<?xml version="1.0" encoding="UTF-8" standalone="no"?>
<!DOCTYPE svg PUBLIC "-//W3C//DTD SVG 1.1//EN"
 "http://www.w3.org/Graphics/SVG/1.1/DTD/svg11.dtd">
<!-- Generated by graphviz version 2.43.0 (0)
 -->
<!-- Title: include/elements/activation_function.h Pages: 1 -->
<svg width="1203pt" height="500pt"
 viewBox="0.00 0.00 1202.50 500.00" xmlns="http://www.w3.org/2000/svg" xmlns:xlink="http://www.w3.org/1999/xlink">
<g id="graph0" class="graph" transform="scale(1 1) rotate(0) translate(4 496)">
<title>include/elements/activation_function.h</title>
<!-- Node1 -->
<g id="Node000001" class="node">
<title>Node1</title>
<g id="a_Node000001"><a xlink:title=" ">
<polygon fill="#999999" stroke="#666666" points="550,-492 398,-492 398,-462 550,-462 550,-492"/>
<text text-anchor="start" x="406" y="-480" font-family="Helvetica,sans-Serif" font-size="10.00">include/elements/activation</text>
<text text-anchor="middle" x="474" y="-469" font-family="Helvetica,sans-Serif" font-size="10.00">_function.h</text>
</a>
</g>
</g>
<!-- Node2 -->
<g id="Node000002" class="node">
<title>Node2</title>
<g id="a_Node000002"><a xlink:href="neural__field__parameters_8h.html" target="_top" xlink:title=" ">
<polygon fill="white" stroke="#666666" points="307.5,-426 150.5,-426 150.5,-396 307.5,-396 307.5,-426"/>
<text text-anchor="start" x="158.5" y="-414" font-family="Helvetica,sans-Serif" font-size="10.00">include/element_parameters</text>
<text text-anchor="middle" x="229" y="-403" font-family="Helvetica,sans-Serif" font-size="10.00">/neural_field_parameters.h</text>
</a>
</g>
</g>
<!-- Node1&#45;&gt;Node2 -->
<g id="edge1_Node000001_Node000002" class="edge">
<title>Node1&#45;&gt;Node2</title>
<g id="a_edge1_Node000001_Node000002"><a xlink:title=" ">
<path fill="none" stroke="#63b8ff" d="M410.4,-459.39C370.74,-449.03 320.27,-435.84 282.64,-426.01"/>
<polygon fill="#63b8ff" stroke="#63b8ff" points="409.67,-462.81 420.23,-461.95 411.44,-456.04 409.67,-462.81"/>
</a>
</g>
</g>
<!-- Node4 -->
<g id="Node000004" class="node">
<title>Node4</title>
<g id="a_Node000004"><a xlink:href="neural__field_8h.html" target="_top" xlink:title=" ">
<polygon fill="white" stroke="#666666" points="541,-426 407,-426 407,-396 541,-396 541,-426"/>
<text text-anchor="start" x="415" y="-414" font-family="Helvetica,sans-Serif" font-size="10.00">include/elements/neural</text>
<text text-anchor="middle" x="474" y="-403" font-family="Helvetica,sans-Serif" font-size="10.00">_field.h</text>
</a>
</g>
</g>
<!-- Node1&#45;&gt;Node4 -->
<g id="edge3_Node000001_Node000004" class="edge">
<title>Node1&#45;&gt;Node4</title>
<g id="a_edge3_Node000001_Node000004"><a xlink:title=" ">
<path fill="none" stroke="#63b8ff" d="M474,-451.54C474,-442.96 474,-433.61 474,-426.16"/>
<polygon fill="#63b8ff" stroke="#63b8ff" points="470.5,-451.8 474,-461.8 477.5,-451.8 470.5,-451.8"/>
</a>
</g>
</g>
<!-- Node27 -->
<g id="Node000027" class="node">
<title>Node27</title>
<g id="a_Node000027"><a xlink:href="activation__function_8cpp.html" target="_top" xlink:title=" ">
<polygon fill="white" stroke="#666666" points="690.5,-426 559.5,-426 559.5,-396 690.5,-396 690.5,-426"/>
<text text-anchor="start" x="567.5" y="-414" font-family="Helvetica,sans-Serif" font-size="10.00">src/elements/activation</text>
<text text-anchor="middle" x="625" y="-403" font-family="Helvetica,sans-Serif" font-size="10.00">_function.cpp</text>
</a>
</g>
</g>
<!-- Node1&#45;&gt;Node27 -->
<g id="edge37_Node000001_Node000027" class="edge">
<title>Node1&#45;&gt;Node27</title>
<g id="a_edge37_Node000001_Node000027"><a xlink:title=" ">
<path fill="none" stroke="#63b8ff" d="M516.66,-457.92C540.53,-447.8 569.83,-435.38 591.94,-426.01"/>
<polygon fill="#63b8ff" stroke="#63b8ff" points="514.98,-454.83 507.14,-461.95 517.71,-461.28 514.98,-454.83"/>
</a>
</g>
</g>
<!-- Node3 -->
<g id="Node000003" class="node">
<title>Node3</title>
<g id="a_Node000003"><a xlink:href="neural__field__parameters_8cpp.html" target="_top" xlink:title=" ">
<polygon fill="white" stroke="#666666" points="158,-360 0,-360 0,-330 158,-330 158,-360"/>
<text text-anchor="start" x="8" y="-348" font-family="Helvetica,sans-Serif" font-size="10.00">src/element_parameters</text>
<text text-anchor="middle" x="79" y="-337" font-family="Helvetica,sans-Serif" font-size="10.00">/neural_field_parameters.cpp</text>
</a>
</g>
</g>
<!-- Node2&#45;&gt;Node3 -->
<g id="edge2_Node000002_Node000003" class="edge">
<title>Node2&#45;&gt;Node3</title>
<g id="a_edge2_Node000002_Node000003"><a xlink:title=" ">
<path fill="none" stroke="#63b8ff" d="M186.62,-391.92C162.92,-381.8 133.81,-369.38 111.84,-360.01"/>
<polygon fill="#63b8ff" stroke="#63b8ff" points="185.51,-395.25 196.08,-395.95 188.26,-388.81 185.51,-395.25"/>
</a>
</g>
</g>
<!-- Node5 -->
<g id="Node000005" class="node">
<title>Node5</title>
<g id="a_Node000005"><a xlink:href="element__factory_8h.html" target="_top" xlink:title=" ">
<polygon fill="white" stroke="#666666" points="678,-294 534,-294 534,-264 678,-264 678,-294"/>
<text text-anchor="start" x="542" y="-282" font-family="Helvetica,sans-Serif" font-size="10.00">include/elements/element</text>
<text text-anchor="middle" x="606" y="-271" font-family="Helvetica,sans-Serif" font-size="10.00">_factory.h</text>
</a>
</g>
</g>
<!-- Node4&#45;&gt;Node5 -->
<g id="edge4_Node000004_Node000005" class="edge">
<title>Node4&#45;&gt;Node5</title>
<g id="a_edge4_Node000004_Node000005"><a xlink:title=" ">
<path fill="none" stroke="#63b8ff" d="M540.12,-393.01C569.56,-383.98 599.51,-372.23 608,-360 621.55,-340.48 616.1,-311.35 611,-294.15"/>
<polygon fill="#63b8ff" stroke="#63b8ff" points="538.78,-389.76 530.19,-395.96 540.77,-396.47 538.78,-389.76"/>
</a>
</g>
</g>
<!-- Node15 -->
<g id="Node000015" class="node">
<title>Node15</title>
<g id="a_Node000015"><a xlink:href="field__coupling_8h.html" target="_top" xlink:title=" ">
<polygon fill="white" stroke="#666666" points="468.5,-360 343.5,-360 343.5,-330 468.5,-330 468.5,-360"/>
<text text-anchor="start" x="351.5" y="-348" font-family="Helvetica,sans-Serif" font-size="10.00">include/elements/field</text>
<text text-anchor="middle" x="406" y="-337" font-family="Helvetica,sans-Serif" font-size="10.00">_coupling.h</text>
</a>
</g>
</g>
<!-- Node4&#45;&gt;Node15 -->
<g id="edge14_Node000004_Node000015" class="edge">
<title>Node4&#45;&gt;Node15</title>
<g id="a_edge14_Node000004_Node000015"><a xlink:title=" ">
<path fill="none" stroke="#63b8ff" d="M451.61,-388.92C441.58,-379.49 430.02,-368.61 421.05,-360.16"/>
<polygon fill="#63b8ff" stroke="#63b8ff" points="449.23,-391.49 458.91,-395.8 454.03,-386.39 449.23,-391.49"/>
</a>
</g>
</g>
<!-- Node16 -->
<g id="Node000016" class="node">
<title>Node16</title>
<g id="a_Node000016"><a xlink:href="simulation__file__manager_8h.html" target="_top" xlink:title=" ">
<polygon fill="white" stroke="#666666" points="853.5,-294 704.5,-294 704.5,-264 853.5,-264 853.5,-294"/>
<text text-anchor="start" x="712.5" y="-282" font-family="Helvetica,sans-Serif" font-size="10.00">include/simulation</text>
<text text-anchor="middle" x="779" y="-271" font-family="Helvetica,sans-Serif" font-size="10.00">/simulation_file_manager.h</text>
</a>
</g>
</g>
<!-- Node4&#45;&gt;Node16 -->
<g id="edge29_Node000004_Node000016" class="edge">
<title>Node4&#45;&gt;Node16</title>
<g id="a_edge29_Node000004_Node000016"><a xlink:title=" ">
<path fill="none" stroke="#63b8ff" d="M533.9,-392.99C562.5,-384.22 596.96,-372.71 627,-360 673.96,-340.13 726.01,-311.11 755.39,-294.03"/>
<polygon fill="#63b8ff" stroke="#63b8ff" points="532.6,-389.73 524.04,-395.98 534.63,-396.43 532.6,-389.73"/>
</a>
</g>
</g>
<!-- Node19 -->
<g id="Node000019" class="node">
<title>Node19</title>
<g id="a_Node000019"><a xlink:href="element__window_8h.html" target="_top" xlink:title=" ">
<polygon fill="white" stroke="#666666" points="377.5,-294 252.5,-294 252.5,-264 377.5,-264 377.5,-294"/>
<text text-anchor="start" x="260.5" y="-282" font-family="Helvetica,sans-Serif" font-size="10.00">include/user_interface</text>
<text text-anchor="middle" x="315" y="-271" font-family="Helvetica,sans-Serif" font-size="10.00">/element_window.h</text>
</a>
</g>
</g>
<!-- Node4&#45;&gt;Node19 -->
<g id="edge30_Node000004_Node000019" class="edge">
<title>Node4&#45;&gt;Node19</title>
<g id="a_edge30_Node000004_Node000019"><a xlink:title=" ">
<path fill="none" stroke="#63b8ff" d="M396.9,-397.2C373.83,-389.84 350.35,-378.25 334,-360 317.62,-341.71 314.67,-311.88 314.5,-294.28"/>
<polygon fill="#63b8ff" stroke="#63b8ff" points="396.15,-400.63 406.74,-400.1 398.13,-393.92 396.15,-400.63"/>
</a>
</g>
</g>
<!-- Node20 -->
<g id="Node000020" class="node">
<title>Node20</title>
<g id="a_Node000020"><a xlink:href="node__graph__window_8h.html" target="_top" xlink:title=" ">
<polygon fill="white" stroke="#666666" points="198,-228 70,-228 70,-198 198,-198 198,-228"/>
<text text-anchor="start" x="78" y="-216" font-family="Helvetica,sans-Serif" font-size="10.00">include/user_interface</text>
<text text-anchor="middle" x="134" y="-205" font-family="Helvetica,sans-Serif" font-size="10.00">/node_graph_window.h</text>
</a>
</g>
</g>
<!-- Node4&#45;&gt;Node20 -->
<g id="edge35_Node000004_Node000020" class="edge">
<title>Node4&#45;&gt;Node20</title>
<g id="a_edge35_Node000004_Node000020"><a xlink:title=" ">
<path fill="none" stroke="#63b8ff" d="M405.15,-393.23C345.73,-376.06 260.21,-344.62 200,-294 176.43,-274.19 154.9,-245.15 143.2,-228.05"/>
<polygon fill="#63b8ff" stroke="#63b8ff" points="404.25,-396.61 414.83,-395.97 406.16,-389.88 404.25,-396.61"/>
</a>
</g>
</g>
<!-- Node24 -->
<g id="Node000024" class="node">
<title>Node24</title>
<g id="a_Node000024"><a xlink:href="field__metrics__window_8h.html" target="_top" xlink:title=" ">
<polygon fill="white" stroke="#666666" points="1189,-228 1055,-228 1055,-198 1189,-198 1189,-228"/>
<text text-anchor="start" x="1063" y="-216" font-family="Helvetica,sans-Serif" font-size="10.00">include/user_interface</text>
<text text-anchor="middle" x="1122" y="-205" font-family="Helvetica,sans-Serif" font-size="10.00">/field_metrics_window.h</text>
</a>
</g>
</g>
<!-- Node4&#45;&gt;Node24 -->
<g id="edge31_Node000004_Node000024" class="edge">
<title>Node4&#45;&gt;Node24</title>
<g id="a_edge31_Node000004_Node000024"><a xlink:title=" ">
<path fill="none" stroke="#63b8ff" d="M543.65,-393.48C581.48,-384.22 628.98,-372.12 671,-360 823.81,-315.92 1002.92,-255.19 1081.54,-228.07"/>
<polygon fill="#63b8ff" stroke="#63b8ff" points="542.64,-390.13 533.75,-395.9 544.3,-396.93 542.64,-390.13"/>
</a>
</g>
</g>
<!-- Node26 -->
<g id="Node000026" class="node">
<title>Node26</title>
<g id="a_Node000026"><a xlink:href="neural__field_8cpp.html" target="_top" xlink:title=" ">
<polygon fill="white" stroke="#666666" points="599.5,-360 486.5,-360 486.5,-330 599.5,-330 599.5,-360"/>
<text text-anchor="start" x="494.5" y="-348" font-family="Helvetica,sans-Serif" font-size="10.00">src/elements/neural</text>
<text text-anchor="middle" x="543" y="-337" font-family="Helvetica,sans-Serif" font-size="10.00">_field.cpp</text>
</a>
</g>
</g>
<!-- Node4&#45;&gt;Node26 -->
<g id="edge36_Node000004_Node000026" class="edge">
<title>Node4&#45;&gt;Node26</title>
<g id="a_edge36_Node000004_Node000026"><a xlink:title=" ">
<path fill="none" stroke="#63b8ff" d="M496.72,-388.92C506.9,-379.49 518.63,-368.61 527.73,-360.16"/>
<polygon fill="#63b8ff" stroke="#63b8ff" points="494.26,-386.43 489.31,-395.8 499.03,-391.56 494.26,-386.43"/>
</a>
</g>
</g>
<!-- Node6 -->
<g id="Node000006" class="node">
<title>Node6</title>
<g id="a_Node000006"><a xlink:href="simulation__window_8h.html" target="_top" xlink:title=" ">
<polygon fill="white" stroke="#666666" points="698.5,-228 573.5,-228 573.5,-198 698.5,-198 698.5,-228"/>
<text text-anchor="start" x="581.5" y="-216" font-family="Helvetica,sans-Serif" font-size="10.00">include/user_interface</text>
<text text-anchor="middle" x="636" y="-205" font-family="Helvetica,sans-Serif" font-size="10.00">/simulation_window.h</text>
</a>
</g>
</g>
<!-- Node5&#45;&gt;Node6 -->
<g id="edge5_Node000005_Node000006" class="edge">
<title>Node5&#45;&gt;Node6</title>
<g id="a_edge5_Node000005_Node000006"><a xlink:title=" ">
<path fill="none" stroke="#63b8ff" d="M616.93,-254.68C621.1,-245.79 625.71,-235.95 629.36,-228.16"/>
<polygon fill="#63b8ff" stroke="#63b8ff" points="613.73,-253.26 612.66,-263.8 620.07,-256.23 613.73,-253.26"/>
</a>
</g>
</g>
<!-- Node14 -->
<g id="Node000014" class="node">
<title>Node14</title>
<g id="a_Node000014"><a xlink:href="element__factory_8cpp.html" target="_top" xlink:title=" ">
<polygon fill="white" stroke="#666666" points="555.5,-228 432.5,-228 432.5,-198 555.5,-198 555.5,-228"/>
<text text-anchor="start" x="440.5" y="-216" font-family="Helvetica,sans-Serif" font-size="10.00">src/elements/element</text>
<text text-anchor="middle" x="494" y="-205" font-family="Helvetica,sans-Serif" font-size="10.00">_factory.cpp</text>
</a>
</g>
</g>
<!-- Node5&#45;&gt;Node14 -->
<g id="edge13_Node000005_Node000014" class="edge">
<title>Node5&#45;&gt;Node14</title>
<g id="a_edge13_Node000005_Node000014"><a xlink:title=" ">
<path fill="none" stroke="#63b8ff" d="M572.69,-258.97C555.31,-249.03 534.41,-237.09 518.52,-228.01"/>
<polygon fill="#63b8ff" stroke="#63b8ff" points="571,-262.03 581.42,-263.95 574.48,-255.95 571,-262.03"/>
</a>
</g>
</g>
<!-- Node7 -->
<g id="Node000007" class="node">
<title>Node7</title>
<g id="a_Node000007"><a xlink:href="dynamic-neural-field-composer-dynamic_8h.html" target="_top" xlink:title=" ">
<polygon fill="white" stroke="#666666" points="542,-162 394,-162 394,-132 542,-132 542,-162"/>
<text text-anchor="start" x="402" y="-150" font-family="Helvetica,sans-Serif" font-size="10.00">include/dynamic&#45;neural</text>
<text text-anchor="middle" x="468" y="-139" font-family="Helvetica,sans-Serif" font-size="10.00">&#45;field&#45;composer&#45;dynamic.h</text>
</a>
</g>
</g>
<!-- Node6&#45;&gt;Node7 -->
<g id="edge6_Node000006_Node000007" class="edge">
<title>Node6&#45;&gt;Node7</title>
<g id="a_edge6_Node000006_Node000007"><a xlink:title=" ">
<path fill="none" stroke="#63b8ff" d="M589.6,-194.32C562.86,-184.14 529.71,-171.51 504.78,-162.01"/>
<polygon fill="#63b8ff" stroke="#63b8ff" points="588.54,-197.67 599.13,-197.95 591.03,-191.12 588.54,-197.67"/>
</a>
</g>
</g>
<!-- Node9 -->
<g id="Node000009" class="node">
<title>Node9</title>
<g id="a_Node000009"><a xlink:href="static__layout__window_8h.html" target="_top" xlink:title=" ">
<polygon fill="white" stroke="#666666" points="359,-162 225,-162 225,-132 359,-132 359,-162"/>
<text text-anchor="start" x="233" y="-150" font-family="Helvetica,sans-Serif" font-size="10.00">include/user_interface</text>
<text text-anchor="middle" x="292" y="-139" font-family="Helvetica,sans-Serif" font-size="10.00">/static_layout_window.h</text>
</a>
</g>
</g>
<!-- Node6&#45;&gt;Node9 -->
<g id="edge8_Node000006_Node000009" class="edge">
<title>Node6&#45;&gt;Node9</title>
<g id="a_edge8_Node000006_Node000009"><a xlink:title=" ">
<path fill="none" stroke="#63b8ff" d="M562.99,-197.82C487.35,-183.54 411.81,-169.72 359.1,-160.14"/>
<polygon fill="#63b8ff" stroke="#63b8ff" points="562.7,-201.33 573.18,-199.75 564,-194.45 562.7,-201.33"/>
</a>
</g>
</g>
<!-- Node13 -->
<g id="Node000013" class="node">
<title>Node13</title>
<g id="a_Node000013"><a xlink:href="simulation__window_8cpp.html" target="_top" xlink:title=" ">
<polygon fill="white" stroke="#666666" points="703,-162 569,-162 569,-132 703,-132 703,-162"/>
<text text-anchor="start" x="577" y="-150" font-family="Helvetica,sans-Serif" font-size="10.00">src/user_interface</text>
<text text-anchor="middle" x="636" y="-139" font-family="Helvetica,sans-Serif" font-size="10.00">/simulation_window.cpp</text>
</a>
</g>
</g>
<!-- Node6&#45;&gt;Node13 -->
<g id="edge12_Node000006_Node000013" class="edge">
<title>Node6&#45;&gt;Node13</title>
<g id="a_edge12_Node000006_Node000013"><a xlink:title=" ">
<path fill="none" stroke="#63b8ff" d="M636,-187.54C636,-178.96 636,-169.61 636,-162.16"/>
<polygon fill="#63b8ff" stroke="#63b8ff" points="632.5,-187.8 636,-197.8 639.5,-187.8 632.5,-187.8"/>
</a>
</g>
</g>
<!-- Node8 -->
<g id="Node000008" class="node">
<title>Node8</title>
<g id="a_Node000008"><a xlink:href="dynamic-neural-field-composer-dynamic_8cpp.html" target="_top" xlink:title=" ">
<polygon fill="white" stroke="#666666" points="547.5,-96 388.5,-96 388.5,-66 547.5,-66 547.5,-96"/>
<text text-anchor="start" x="396.5" y="-84" font-family="Helvetica,sans-Serif" font-size="10.00">src/dynamic&#45;neural</text>
<text text-anchor="middle" x="468" y="-73" font-family="Helvetica,sans-Serif" font-size="10.00">&#45;field&#45;composer&#45;dynamic.cpp</text>
</a>
</g>
</g>
<!-- Node7&#45;&gt;Node8 -->
<g id="edge7_Node000007_Node000008" class="edge">
<title>Node7&#45;&gt;Node8</title>
<g id="a_edge7_Node000007_Node000008"><a xlink:title=" ">
<path fill="none" stroke="#63b8ff" d="M468,-121.54C468,-112.96 468,-103.61 468,-96.16"/>
<polygon fill="#63b8ff" stroke="#63b8ff" points="464.5,-121.8 468,-131.8 471.5,-121.8 464.5,-121.8"/>
</a>
</g>
</g>
<!-- Node10 -->
<g id="Node000010" class="node">
<title>Node10</title>
<g id="a_Node000010"><a xlink:href="dynamic-neural-field-composer-static_8h.html" target="_top" xlink:title=" ">
<polygon fill="white" stroke="#666666" points="203.5,-96 70.5,-96 70.5,-66 203.5,-66 203.5,-96"/>
<text text-anchor="start" x="78.5" y="-84" font-family="Helvetica,sans-Serif" font-size="10.00">include/dynamic&#45;neural</text>
<text text-anchor="middle" x="137" y="-73" font-family="Helvetica,sans-Serif" font-size="10.00">&#45;field&#45;composer&#45;static.h</text>
</a>
</g>
</g>
<!-- Node9&#45;&gt;Node10 -->
<g id="edge9_Node000009_Node000010" class="edge">
<title>Node9&#45;&gt;Node10</title>
<g id="a_edge9_Node000009_Node000010"><a xlink:title=" ">
<path fill="none" stroke="#63b8ff" d="M248.54,-128.05C223.98,-117.91 193.73,-105.43 170.94,-96.01"/>
<polygon fill="#63b8ff" stroke="#63b8ff" points="247.41,-131.37 257.98,-131.95 250.08,-124.9 247.41,-131.37"/>
</a>
</g>
</g>
<!-- Node12 -->
<g id="Node000012" class="node">
<title>Node12</title>
<g id="a_Node000012"><a xlink:href="static__layout__window_8cpp.html" target="_top" xlink:title=" ">
<polygon fill="white" stroke="#666666" points="366.5,-96 221.5,-96 221.5,-66 366.5,-66 366.5,-96"/>
<text text-anchor="start" x="229.5" y="-84" font-family="Helvetica,sans-Serif" font-size="10.00">src/user_interface</text>
<text text-anchor="middle" x="294" y="-73" font-family="Helvetica,sans-Serif" font-size="10.00">/static_layout_window.cpp</text>
</a>
</g>
</g>
<!-- Node9&#45;&gt;Node12 -->
<g id="edge11_Node000009_Node000012" class="edge">
<title>Node9&#45;&gt;Node12</title>
<g id="a_edge11_Node000009_Node000012"><a xlink:title=" ">
<path fill="none" stroke="#63b8ff" d="M292.76,-121.54C293.03,-112.96 293.32,-103.61 293.56,-96.16"/>
<polygon fill="#63b8ff" stroke="#63b8ff" points="289.26,-121.69 292.44,-131.8 296.25,-121.91 289.26,-121.69"/>
</a>
</g>
</g>
<!-- Node11 -->
<g id="Node000011" class="node">
<title>Node11</title>
<g id="a_Node000011"><a xlink:href="dynamic-neural-field-composer-static_8cpp.html" target="_top" xlink:title=" ">
<polygon fill="white" stroke="#666666" points="209,-30 65,-30 65,0 209,0 209,-30"/>
<text text-anchor="start" x="73" y="-18" font-family="Helvetica,sans-Serif" font-size="10.00">src/dynamic&#45;neural</text>
<text text-anchor="middle" x="137" y="-7" font-family="Helvetica,sans-Serif" font-size="10.00">&#45;field&#45;composer&#45;static.cpp</text>
</a>
</g>
</g>
<!-- Node10&#45;&gt;Node11 -->
<g id="edge10_Node000010_Node000011" class="edge">
<title>Node10&#45;&gt;Node11</title>
<g id="a_edge10_Node000010_Node000011"><a xlink:title=" ">
<path fill="none" stroke="#63b8ff" d="M137,-55.54C137,-46.96 137,-37.61 137,-30.16"/>
<polygon fill="#63b8ff" stroke="#63b8ff" points="133.5,-55.8 137,-65.8 140.5,-55.8 133.5,-55.8"/>
</a>
</g>
</g>
<!-- Node15&#45;&gt;Node5 -->
<g id="edge15_Node000015_Node000005" class="edge">
<title>Node15&#45;&gt;Node5</title>
<g id="a_edge15_Node000015_Node000005"><a xlink:title=" ">
<path fill="none" stroke="#63b8ff" d="M459.57,-326.86C491.69,-316.58 532.01,-303.68 562.21,-294.01"/>
<polygon fill="#63b8ff" stroke="#63b8ff" points="458.35,-323.57 449.89,-329.95 460.48,-330.24 458.35,-323.57"/>
</a>
</g>
</g>
<!-- Node15&#45;&gt;Node16 -->
<g id="edge16_Node000015_Node000016" class="edge">
<title>Node15&#45;&gt;Node16</title>
<g id="a_edge16_Node000015_Node000016"><a xlink:title=" ">
<path fill="none" stroke="#63b8ff" d="M478.75,-329.71C561.29,-314.84 645.63,-301.07 704.42,-291.7"/>
<polygon fill="#63b8ff" stroke="#63b8ff" points="477.92,-326.3 468.7,-331.53 479.16,-333.19 477.92,-326.3"/>
</a>
</g>
</g>
<!-- Node15&#45;&gt;Node19 -->
<g id="edge19_Node000015_Node000019" class="edge">
<title>Node15&#45;&gt;Node19</title>
<g id="a_edge19_Node000015_Node000019"><a xlink:title=" ">
<path fill="none" stroke="#63b8ff" d="M377.6,-324.03C363.83,-314.34 347.62,-302.94 335.14,-294.16"/>
<polygon fill="#63b8ff" stroke="#63b8ff" points="375.61,-326.91 385.8,-329.8 379.64,-321.18 375.61,-326.91"/>
</a>
</g>
</g>
<!-- Node15&#45;&gt;Node20 -->
<g id="edge27_Node000015_Node000020" class="edge">
<title>Node15&#45;&gt;Node20</title>
<g id="a_edge27_Node000015_Node000020"><a xlink:title=" ">
<path fill="none" stroke="#63b8ff" d="M333.68,-327.43C304.65,-319.36 271.4,-308.26 243,-294 233.35,-289.15 181.26,-249.95 152.73,-228.27"/>
<polygon fill="#63b8ff" stroke="#63b8ff" points="332.79,-330.81 343.35,-330.05 334.62,-324.06 332.79,-330.81"/>
</a>
</g>
</g>
<!-- Node23 -->
<g id="Node000023" class="node">
<title>Node23</title>
<g id="a_Node000023"><a xlink:href="field__coupling_8cpp.html" target="_top" xlink:title=" ">
<polygon fill="white" stroke="#666666" points="500,-294 396,-294 396,-264 500,-264 500,-294"/>
<text text-anchor="start" x="404" y="-282" font-family="Helvetica,sans-Serif" font-size="10.00">src/elements/field</text>
<text text-anchor="middle" x="448" y="-271" font-family="Helvetica,sans-Serif" font-size="10.00">_coupling.cpp</text>
</a>
</g>
</g>
<!-- Node15&#45;&gt;Node23 -->
<g id="edge28_Node000015_Node000023" class="edge">
<title>Node15&#45;&gt;Node23</title>
<g id="a_edge28_Node000015_Node000023"><a xlink:title=" ">
<path fill="none" stroke="#63b8ff" d="M420.93,-321.24C426.86,-312.21 433.49,-302.11 438.7,-294.16"/>
<polygon fill="#63b8ff" stroke="#63b8ff" points="417.88,-319.52 415.32,-329.8 423.73,-323.36 417.88,-319.52"/>
</a>
</g>
</g>
<!-- Node17 -->
<g id="Node000017" class="node">
<title>Node17</title>
<g id="a_Node000017"><a xlink:href="simulation_8cpp.html" target="_top" xlink:title=" ">
<polygon fill="white" stroke="#666666" points="1036.5,-222.5 875.5,-222.5 875.5,-203.5 1036.5,-203.5 1036.5,-222.5"/>
<text text-anchor="middle" x="956" y="-210.5" font-family="Helvetica,sans-Serif" font-size="10.00">src/simulation/simulation.cpp</text>
</a>
</g>
</g>
<!-- Node16&#45;&gt;Node17 -->
<g id="edge17_Node000016_Node000017" class="edge">
<title>Node16&#45;&gt;Node17</title>
<g id="a_edge17_Node000016_Node000017"><a xlink:title=" ">
<path fill="none" stroke="#63b8ff" d="M827.62,-260.42C861.72,-248.09 905.81,-232.15 932.44,-222.52"/>
<polygon fill="#63b8ff" stroke="#63b8ff" points="826.06,-257.26 817.84,-263.95 828.44,-263.85 826.06,-257.26"/>
</a>
</g>
</g>
<!-- Node18 -->
<g id="Node000018" class="node">
<title>Node18</title>
<g id="a_Node000018"><a xlink:href="simulation__file__manager_8cpp.html" target="_top" xlink:title=" ">
<polygon fill="white" stroke="#666666" points="857,-228 717,-228 717,-198 857,-198 857,-228"/>
<text text-anchor="start" x="725" y="-216" font-family="Helvetica,sans-Serif" font-size="10.00">src/simulation/simulation</text>
<text text-anchor="middle" x="787" y="-205" font-family="Helvetica,sans-Serif" font-size="10.00">_file_manager.cpp</text>
</a>
</g>
</g>
<!-- Node16&#45;&gt;Node18 -->
<g id="edge18_Node000016_Node000018" class="edge">
<title>Node16&#45;&gt;Node18</title>
<g id="a_edge18_Node000016_Node000018"><a xlink:title=" ">
<path fill="none" stroke="#63b8ff" d="M782.02,-253.83C783.1,-245.17 784.29,-235.7 785.23,-228.16"/>
<polygon fill="#63b8ff" stroke="#63b8ff" points="778.54,-253.44 780.78,-263.8 785.49,-254.31 778.54,-253.44"/>
</a>
</g>
</g>
<!-- Node19&#45;&gt;Node7 -->
<g id="edge20_Node000019_Node000007" class="edge">
<title>Node19&#45;&gt;Node7</title>
<g id="a_edge20_Node000019_Node000007"><a xlink:title=" ">
<path fill="none" stroke="#63b8ff" d="M344.84,-258.13C357.53,-249.31 372.31,-238.55 385,-228 410.85,-206.5 438.52,-178.77 454.48,-162.24"/>
<polygon fill="#63b8ff" stroke="#63b8ff" points="342.69,-255.36 336.43,-263.9 346.65,-261.13 342.69,-255.36"/>
</a>
</g>
</g>
<!-- Node19&#45;&gt;Node9 -->
<g id="edge25_Node000019_Node000009" class="edge">
<title>Node19&#45;&gt;Node9</title>
<g id="a_edge25_Node000019_Node000009"><a xlink:title=" ">
<path fill="none" stroke="#63b8ff" d="M274.75,-258.7C262.99,-250.91 251.54,-240.72 245,-228 238.9,-216.14 240.09,-210.4 245,-198 250.62,-183.82 262.37,-171.32 272.71,-162.37"/>
<polygon fill="#63b8ff" stroke="#63b8ff" points="272.95,-261.7 283.3,-263.94 276.61,-255.73 272.95,-261.7"/>
</a>
</g>
</g>
<!-- Node19&#45;&gt;Node20 -->
<g id="edge21_Node000019_Node000020" class="edge">
<title>Node19&#45;&gt;Node20</title>
<g id="a_edge21_Node000019_Node000020"><a xlink:title=" ">
<path fill="none" stroke="#63b8ff" d="M265.76,-260.59C236.82,-250.36 200.72,-237.59 173.63,-228.01"/>
<polygon fill="#63b8ff" stroke="#63b8ff" points="264.68,-263.92 275.28,-263.95 267.02,-257.32 264.68,-263.92"/>
</a>
</g>
</g>
<!-- Node22 -->
<g id="Node000022" class="node">
<title>Node22</title>
<g id="a_Node000022"><a xlink:href="element__window_8cpp.html" target="_top" xlink:title=" ">
<polygon fill="white" stroke="#666666" points="376,-228 254,-228 254,-198 376,-198 376,-228"/>
<text text-anchor="start" x="262" y="-216" font-family="Helvetica,sans-Serif" font-size="10.00">src/user_interface</text>
<text text-anchor="middle" x="315" y="-205" font-family="Helvetica,sans-Serif" font-size="10.00">/element_window.cpp</text>
</a>
</g>
</g>
<!-- Node19&#45;&gt;Node22 -->
<g id="edge26_Node000019_Node000022" class="edge">
<title>Node19&#45;&gt;Node22</title>
<g id="a_edge26_Node000019_Node000022"><a xlink:title=" ">
<path fill="none" stroke="#63b8ff" d="M315,-253.54C315,-244.96 315,-235.61 315,-228.16"/>
<polygon fill="#63b8ff" stroke="#63b8ff" points="311.5,-253.8 315,-263.8 318.5,-253.8 311.5,-253.8"/>
</a>
</g>
</g>
<!-- Node20&#45;&gt;Node7 -->
<g id="edge22_Node000020_Node000007" class="edge">
<title>Node20&#45;&gt;Node7</title>
<g id="a_edge22_Node000020_Node000007"><a xlink:title=" ">
<path fill="none" stroke="#63b8ff" d="M208.15,-197.79C263.77,-187.13 339.55,-172.61 394.92,-162"/>
<polygon fill="#63b8ff" stroke="#63b8ff" points="207.17,-194.42 198,-199.74 208.48,-201.29 207.17,-194.42"/>
</a>
</g>
</g>
<!-- Node20&#45;&gt;Node9 -->
<g id="edge23_Node000020_Node000009" class="edge">
<title>Node20&#45;&gt;Node9</title>
<g id="a_edge23_Node000020_Node000009"><a xlink:title=" ">
<path fill="none" stroke="#63b8ff" d="M177.97,-194.19C203.06,-184.02 234.07,-171.47 257.41,-162.01"/>
<polygon fill="#63b8ff" stroke="#63b8ff" points="176.63,-190.96 168.67,-197.95 179.26,-197.44 176.63,-190.96"/>
</a>
</g>
</g>
<!-- Node21 -->
<g id="Node000021" class="node">
<title>Node21</title>
<g id="a_Node000021"><a xlink:href="node__graph__window_8cpp.html" target="_top" xlink:title=" ">
<polygon fill="white" stroke="#666666" points="203.5,-162 64.5,-162 64.5,-132 203.5,-132 203.5,-162"/>
<text text-anchor="start" x="72.5" y="-150" font-family="Helvetica,sans-Serif" font-size="10.00">src/user_interface</text>
<text text-anchor="middle" x="134" y="-139" font-family="Helvetica,sans-Serif" font-size="10.00">/node_graph_window.cpp</text>
</a>
</g>
</g>
<!-- Node20&#45;&gt;Node21 -->
<g id="edge24_Node000020_Node000021" class="edge">
<title>Node20&#45;&gt;Node21</title>
<g id="a_edge24_Node000020_Node000021"><a xlink:title=" ">
<path fill="none" stroke="#63b8ff" d="M134,-187.54C134,-178.96 134,-169.61 134,-162.16"/>
<polygon fill="#63b8ff" stroke="#63b8ff" points="130.5,-187.8 134,-197.8 137.5,-187.8 130.5,-187.8"/>
</a>
</g>
</g>
<!-- Node24&#45;&gt;Node7 -->
<g id="edge32_Node000024_Node000007" class="edge">
<title>Node24&#45;&gt;Node7</title>
<g id="a_edge32_Node000024_Node000007"><a xlink:title=" ">
<path fill="none" stroke="#63b8ff" d="M1044.88,-197.96C829.45,-170.81 771.97,-185.94 560,-162 554.22,-161.35 548.25,-160.6 542.25,-159.8"/>
<polygon fill="#63b8ff" stroke="#63b8ff" points="1044.56,-201.44 1054.93,-199.24 1045.45,-194.5 1044.56,-201.44"/>
</a>
</g>
</g>
<!-- Node24&#45;&gt;Node9 -->
<g id="edge33_Node000024_Node000009" class="edge">
<title>Node24&#45;&gt;Node9</title>
<g id="a_edge33_Node000024_Node000009"><a xlink:title=" ">
<path fill="none" stroke="#63b8ff" d="M1044.87,-197.98C752.1,-163.92 674.4,-191.6 385,-162 376.63,-161.14 367.87,-160.07 359.21,-158.89"/>
<polygon fill="#63b8ff" stroke="#63b8ff" points="1044.59,-201.47 1054.93,-199.17 1045.41,-194.52 1044.59,-201.47"/>
</a>
</g>
</g>
<!-- Node25 -->
<g id="Node000025" class="node">
<title>Node25</title>
<g id="a_Node000025"><a xlink:href="field__metrics__window_8cpp.html" target="_top" xlink:title=" ">
<polygon fill="white" stroke="#666666" points="1194.5,-162 1049.5,-162 1049.5,-132 1194.5,-132 1194.5,-162"/>
<text text-anchor="start" x="1057.5" y="-150" font-family="Helvetica,sans-Serif" font-size="10.00">src/user_interface</text>
<text text-anchor="middle" x="1122" y="-139" font-family="Helvetica,sans-Serif" font-size="10.00">/field_metrics_window.cpp</text>
</a>
</g>
</g>
<!-- Node24&#45;&gt;Node25 -->
<g id="edge34_Node000024_Node000025" class="edge">
<title>Node24&#45;&gt;Node25</title>
<g id="a_edge34_Node000024_Node000025"><a xlink:title=" ">
<path fill="none" stroke="#63b8ff" d="M1122,-187.54C1122,-178.96 1122,-169.61 1122,-162.16"/>
<polygon fill="#63b8ff" stroke="#63b8ff" points="1118.5,-187.8 1122,-197.8 1125.5,-187.8 1118.5,-187.8"/>
</a>
</g>
</g>
</g>
</svg>
