<?xml version="1.0" encoding="UTF-8" standalone="no"?>
<!DOCTYPE svg PUBLIC "-//W3C//DTD SVG 1.1//EN"
 "http://www.w3.org/Graphics/SVG/1.1/DTD/svg11.dtd">
<!-- Generated by graphviz version 2.43.0 (0)
 -->
<!-- Title: src/elements/activation_function.cpp Pages: 1 -->
<svg width="1088pt" height="280pt"
 viewBox="0.00 0.00 1088.14 280.00" xmlns="http://www.w3.org/2000/svg" xmlns:xlink="http://www.w3.org/1999/xlink">
<g id="graph0" class="graph" transform="scale(1 1) rotate(0) translate(4 276)">
<title>src/elements/activation_function.cpp</title>
<!-- Node1 -->
<g id="Node000001" class="node">
<title>Node1</title>
<g id="a_Node000001"><a xlink:title=" ">
<polygon fill="#999999" stroke="#666666" points="402.64,-272 271.64,-272 271.64,-242 402.64,-242 402.64,-272"/>
<text text-anchor="start" x="279.64" y="-260" font-family="Helvetica,sans-Serif" font-size="10.00">src/elements/activation</text>
<text text-anchor="middle" x="337.14" y="-249" font-family="Helvetica,sans-Serif" font-size="10.00">_function.cpp</text>
</a>
</g>
</g>
<!-- Node2 -->
<g id="Node000002" class="node">
<title>Node2</title>
<g id="a_Node000002"><a xlink:href="activation__function_8h.html" target="_top" xlink:title=" ">
<polygon fill="white" stroke="#666666" points="394.14,-206 280.14,-206 280.14,-176 394.14,-176 394.14,-206"/>
<text text-anchor="start" x="288.14" y="-194" font-family="Helvetica,sans-Serif" font-size="10.00">elements/activation</text>
<text text-anchor="middle" x="337.14" y="-183" font-family="Helvetica,sans-Serif" font-size="10.00">_function.h</text>
</a>
</g>
</g>
<!-- Node1&#45;&gt;Node2 -->
<g id="edge1_Node000001_Node000002" class="edge">
<title>Node1&#45;&gt;Node2</title>
<g id="a_edge1_Node000001_Node000002"><a xlink:title=" ">
<path fill="none" stroke="#63b8ff" d="M337.14,-241.8C337.14,-234.34 337.14,-224.99 337.14,-216.41"/>
<polygon fill="#63b8ff" stroke="#63b8ff" points="340.64,-216.16 337.14,-206.16 333.64,-216.16 340.64,-216.16"/>
</a>
</g>
</g>
<!-- Node3 -->
<g id="Node000003" class="node">
<title>Node3</title>
<g id="a_Node000003"><a xlink:title=" ">
<polygon fill="#e0e0e0" stroke="#999999" points="229.14,-19 185.14,-19 185.14,0 229.14,0 229.14,-19"/>
<text text-anchor="middle" x="207.14" y="-7" font-family="Helvetica,sans-Serif" font-size="10.00">string</text>
</a>
</g>
</g>
<!-- Node2&#45;&gt;Node3 -->
<g id="edge2_Node000002_Node000003" class="edge">
<title>Node2&#45;&gt;Node3</title>
<g id="a_edge2_Node000002_Node000003"><a xlink:title=" ">
<path fill="none" stroke="#63b8ff" d="M280.05,-180.18C194.29,-164.14 38.77,-129.58 6.14,-85 -1.73,-74.24 -2.2,-65.4 6.14,-55 16.68,-41.87 120.61,-23.96 174.73,-15.42"/>
<polygon fill="#63b8ff" stroke="#63b8ff" points="175.51,-18.84 184.85,-13.84 174.43,-11.92 175.51,-18.84"/>
</a>
</g>
</g>
<!-- Node4 -->
<g id="Node000004" class="node">
<title>Node4</title>
<g id="a_Node000004"><a xlink:href="logger_8h.html" target="_top" xlink:title=" ">
<polygon fill="white" stroke="#666666" points="378.64,-140 295.64,-140 295.64,-121 378.64,-121 378.64,-140"/>
<text text-anchor="middle" x="337.14" y="-128" font-family="Helvetica,sans-Serif" font-size="10.00">tools/logger.h</text>
</a>
</g>
</g>
<!-- Node2&#45;&gt;Node4 -->
<g id="edge3_Node000002_Node000004" class="edge">
<title>Node2&#45;&gt;Node4</title>
<g id="a_edge3_Node000002_Node000004"><a xlink:title=" ">
<path fill="none" stroke="#63b8ff" d="M337.14,-175.84C337.14,-168.21 337.14,-158.7 337.14,-150.45"/>
<polygon fill="#63b8ff" stroke="#63b8ff" points="340.64,-150.27 337.14,-140.27 333.64,-150.27 340.64,-150.27"/>
</a>
</g>
</g>
<!-- Node16 -->
<g id="Node000016" class="node">
<title>Node16</title>
<g id="a_Node000016"><a xlink:href="math_8h.html" target="_top" xlink:title=" ">
<polygon fill="white" stroke="#666666" points="762.14,-79.5 684.14,-79.5 684.14,-60.5 762.14,-60.5 762.14,-79.5"/>
<text text-anchor="middle" x="723.14" y="-67.5" font-family="Helvetica,sans-Serif" font-size="10.00">tools/math.h</text>
</a>
</g>
</g>
<!-- Node2&#45;&gt;Node16 -->
<g id="edge19_Node000002_Node000016" class="edge">
<title>Node2&#45;&gt;Node16</title>
<g id="a_edge19_Node000002_Node000016"><a xlink:title=" ">
<path fill="none" stroke="#63b8ff" d="M382.56,-176C459.49,-152.28 614.01,-104.64 685.4,-82.64"/>
<polygon fill="#63b8ff" stroke="#63b8ff" points="686.78,-85.87 695.31,-79.58 684.72,-79.18 686.78,-85.87"/>
</a>
</g>
</g>
<!-- Node4&#45;&gt;Node3 -->
<g id="edge5_Node000004_Node000003" class="edge">
<title>Node4&#45;&gt;Node3</title>
<g id="a_edge5_Node000004_Node000003"><a xlink:title=" ">
<path fill="none" stroke="#63b8ff" d="M332.03,-120.86C322.98,-106.06 302.9,-75.48 280.14,-55 266.38,-42.62 248.71,-31.75 234.2,-23.84"/>
<polygon fill="#63b8ff" stroke="#63b8ff" points="235.67,-20.66 225.19,-19.1 232.41,-26.86 235.67,-20.66"/>
</a>
</g>
</g>
<!-- Node5 -->
<g id="Node000005" class="node">
<title>Node5</title>
<g id="a_Node000005"><a xlink:title=" ">
<polygon fill="#e0e0e0" stroke="#999999" points="425.14,-79.5 365.14,-79.5 365.14,-60.5 425.14,-60.5 425.14,-79.5"/>
<text text-anchor="middle" x="395.14" y="-67.5" font-family="Helvetica,sans-Serif" font-size="10.00">iostream</text>
</a>
</g>
</g>
<!-- Node4&#45;&gt;Node5 -->
<g id="edge4_Node000004_Node000005" class="edge">
<title>Node4&#45;&gt;Node5</title>
<g id="a_edge4_Node000004_Node000005"><a xlink:title=" ">
<path fill="none" stroke="#63b8ff" d="M345.7,-120.87C354.52,-111.97 368.49,-97.89 379.33,-86.95"/>
<polygon fill="#63b8ff" stroke="#63b8ff" points="381.99,-89.23 386.55,-79.67 377.02,-84.3 381.99,-89.23"/>
</a>
</g>
</g>
<!-- Node6 -->
<g id="Node000006" class="node">
<title>Node6</title>
<g id="a_Node000006"><a xlink:title=" ">
<polygon fill="#e0e0e0" stroke="#999999" points="351.14,-19 301.14,-19 301.14,0 351.14,0 351.14,-19"/>
<text text-anchor="middle" x="326.14" y="-7" font-family="Helvetica,sans-Serif" font-size="10.00">chrono</text>
</a>
</g>
</g>
<!-- Node4&#45;&gt;Node6 -->
<g id="edge6_Node000004_Node000006" class="edge">
<title>Node4&#45;&gt;Node6</title>
<g id="a_edge6_Node000004_Node000006"><a xlink:title=" ">
<path fill="none" stroke="#63b8ff" d="M336.35,-120.94C334.59,-101.91 330.32,-55.69 327.9,-29.47"/>
<polygon fill="#63b8ff" stroke="#63b8ff" points="331.36,-28.94 326.96,-19.3 324.39,-29.58 331.36,-28.94"/>
</a>
</g>
</g>
<!-- Node7 -->
<g id="Node000007" class="node">
<title>Node7</title>
<g id="a_Node000007"><a xlink:title=" ">
<polygon fill="#e0e0e0" stroke="#999999" points="565.14,-79.5 509.14,-79.5 509.14,-60.5 565.14,-60.5 565.14,-79.5"/>
<text text-anchor="middle" x="537.14" y="-67.5" font-family="Helvetica,sans-Serif" font-size="10.00">iomanip</text>
</a>
</g>
</g>
<!-- Node4&#45;&gt;Node7 -->
<g id="edge7_Node000004_Node000007" class="edge">
<title>Node4&#45;&gt;Node7</title>
<g id="a_edge7_Node000004_Node000007"><a xlink:title=" ">
<path fill="none" stroke="#63b8ff" d="M372.08,-120.99C405.29,-112.66 456.48,-99.18 500.14,-85 502,-84.4 503.91,-83.75 505.83,-83.09"/>
<polygon fill="#63b8ff" stroke="#63b8ff" points="507.14,-86.33 515.35,-79.64 504.76,-79.75 507.14,-86.33"/>
</a>
</g>
</g>
<!-- Node8 -->
<g id="Node000008" class="node">
<title>Node8</title>
<g id="a_Node000008"><a xlink:title=" ">
<polygon fill="#e0e0e0" stroke="#999999" points="270.64,-85 163.64,-85 163.64,-55 270.64,-55 270.64,-85"/>
<text text-anchor="start" x="171.64" y="-73" font-family="Helvetica,sans-Serif" font-size="10.00">imgui&#45;platform&#45;kit</text>
<text text-anchor="middle" x="217.14" y="-62" font-family="Helvetica,sans-Serif" font-size="10.00">/log_window.h</text>
</a>
</g>
</g>
<!-- Node4&#45;&gt;Node8 -->
<g id="edge8_Node000004_Node000008" class="edge">
<title>Node4&#45;&gt;Node8</title>
<g id="a_edge8_Node000004_Node000008"><a xlink:title=" ">
<path fill="none" stroke="#63b8ff" d="M319.69,-120.99C302.93,-112.82 277.04,-100.2 255.47,-89.69"/>
<polygon fill="#63b8ff" stroke="#63b8ff" points="256.75,-86.41 246.22,-85.18 253.68,-92.71 256.75,-86.41"/>
</a>
</g>
</g>
<!-- Node9 -->
<g id="Node000009" class="node">
<title>Node9</title>
<g id="a_Node000009"><a xlink:href="exception_8h.html" target="_top" xlink:title=" ">
<polygon fill="white" stroke="#666666" points="145.14,-79.5 15.14,-79.5 15.14,-60.5 145.14,-60.5 145.14,-79.5"/>
<text text-anchor="middle" x="80.14" y="-67.5" font-family="Helvetica,sans-Serif" font-size="10.00">exceptions/exception.h</text>
</a>
</g>
</g>
<!-- Node4&#45;&gt;Node9 -->
<g id="edge9_Node000004_Node000009" class="edge">
<title>Node4&#45;&gt;Node9</title>
<g id="a_edge9_Node000004_Node000009"><a xlink:title=" ">
<path fill="none" stroke="#63b8ff" d="M299.77,-120.99C254.19,-110.62 177.08,-93.07 127.41,-81.76"/>
<polygon fill="#63b8ff" stroke="#63b8ff" points="128.08,-78.32 117.56,-79.52 126.53,-85.15 128.08,-78.32"/>
</a>
</g>
</g>
<!-- Node11 -->
<g id="Node000011" class="node">
<title>Node11</title>
<g id="a_Node000011"><a xlink:href="utils_8h.html" target="_top" xlink:title=" ">
<polygon fill="white" stroke="#666666" points="490.64,-79.5 443.64,-79.5 443.64,-60.5 490.64,-60.5 490.64,-79.5"/>
<text text-anchor="middle" x="467.14" y="-67.5" font-family="Helvetica,sans-Serif" font-size="10.00">utils.h</text>
</a>
</g>
</g>
<!-- Node4&#45;&gt;Node11 -->
<g id="edge12_Node000004_Node000011" class="edge">
<title>Node4&#45;&gt;Node11</title>
<g id="a_edge12_Node000004_Node000011"><a xlink:title=" ">
<path fill="none" stroke="#63b8ff" d="M356.05,-120.99C377.8,-111.2 413.76,-95.02 438.86,-83.73"/>
<polygon fill="#63b8ff" stroke="#63b8ff" points="440.53,-86.81 448.22,-79.52 437.66,-80.43 440.53,-86.81"/>
</a>
</g>
</g>
<!-- Node9&#45;&gt;Node3 -->
<g id="edge11_Node000009_Node000003" class="edge">
<title>Node9&#45;&gt;Node3</title>
<g id="a_edge11_Node000009_Node000003"><a xlink:title=" ">
<path fill="none" stroke="#63b8ff" d="M98.61,-60.49C119.87,-50.7 154.99,-34.52 179.51,-23.23"/>
<polygon fill="#63b8ff" stroke="#63b8ff" points="181.03,-26.38 188.65,-19.02 178.11,-20.02 181.03,-26.38"/>
</a>
</g>
</g>
<!-- Node10 -->
<g id="Node000010" class="node">
<title>Node10</title>
<g id="a_Node000010"><a xlink:title=" ">
<polygon fill="#e0e0e0" stroke="#999999" points="112.64,-19 47.64,-19 47.64,0 112.64,0 112.64,-19"/>
<text text-anchor="middle" x="80.14" y="-7" font-family="Helvetica,sans-Serif" font-size="10.00">exception</text>
</a>
</g>
</g>
<!-- Node9&#45;&gt;Node10 -->
<g id="edge10_Node000009_Node000010" class="edge">
<title>Node9&#45;&gt;Node10</title>
<g id="a_edge10_Node000009_Node000010"><a xlink:title=" ">
<path fill="none" stroke="#63b8ff" d="M80.14,-60.37C80.14,-52.25 80.14,-39.81 80.14,-29.39"/>
<polygon fill="#63b8ff" stroke="#63b8ff" points="83.64,-29.17 80.14,-19.17 76.64,-29.17 83.64,-29.17"/>
</a>
</g>
</g>
<!-- Node11&#45;&gt;Node3 -->
<g id="edge13_Node000011_Node000003" class="edge">
<title>Node11&#45;&gt;Node3</title>
<g id="a_edge13_Node000011_Node000003"><a xlink:title=" ">
<path fill="none" stroke="#63b8ff" d="M448.89,-60.46C444.16,-58.47 439.02,-56.5 434.14,-55 366.25,-34.19 283.84,-20.9 239.37,-14.67"/>
<polygon fill="#63b8ff" stroke="#63b8ff" points="239.81,-11.19 229.43,-13.3 238.86,-18.13 239.81,-11.19"/>
</a>
</g>
</g>
<!-- Node11&#45;&gt;Node6 -->
<g id="edge18_Node000011_Node000006" class="edge">
<title>Node11&#45;&gt;Node6</title>
<g id="a_edge18_Node000011_Node000006"><a xlink:title=" ">
<path fill="none" stroke="#63b8ff" d="M446.91,-60.38C442.7,-58.59 438.28,-56.73 434.14,-55 408.02,-44.08 378.27,-31.83 356.61,-22.96"/>
<polygon fill="#63b8ff" stroke="#63b8ff" points="357.86,-19.68 347.28,-19.13 355.2,-26.16 357.86,-19.68"/>
</a>
</g>
</g>
<!-- Node12 -->
<g id="Node000012" class="node">
<title>Node12</title>
<g id="a_Node000012"><a xlink:title=" ">
<polygon fill="#e0e0e0" stroke="#999999" points="490.64,-19 443.64,-19 443.64,0 490.64,0 490.64,-19"/>
<text text-anchor="middle" x="467.14" y="-7" font-family="Helvetica,sans-Serif" font-size="10.00">vector</text>
</a>
</g>
</g>
<!-- Node11&#45;&gt;Node12 -->
<g id="edge14_Node000011_Node000012" class="edge">
<title>Node11&#45;&gt;Node12</title>
<g id="a_edge14_Node000011_Node000012"><a xlink:title=" ">
<path fill="none" stroke="#63b8ff" d="M467.14,-60.37C467.14,-52.25 467.14,-39.81 467.14,-29.39"/>
<polygon fill="#63b8ff" stroke="#63b8ff" points="470.64,-29.17 467.14,-19.17 463.64,-29.17 470.64,-29.17"/>
</a>
</g>
</g>
<!-- Node13 -->
<g id="Node000013" class="node">
<title>Node13</title>
<g id="a_Node000013"><a xlink:title=" ">
<polygon fill="#e0e0e0" stroke="#999999" points="563.14,-19 509.14,-19 509.14,0 563.14,0 563.14,-19"/>
<text text-anchor="middle" x="536.14" y="-7" font-family="Helvetica,sans-Serif" font-size="10.00">random</text>
</a>
</g>
</g>
<!-- Node11&#45;&gt;Node13 -->
<g id="edge15_Node000011_Node000013" class="edge">
<title>Node11&#45;&gt;Node13</title>
<g id="a_edge15_Node000011_Node000013"><a xlink:title=" ">
<path fill="none" stroke="#63b8ff" d="M477.32,-60.37C488.02,-51.3 505.08,-36.84 518.07,-25.82"/>
<polygon fill="#63b8ff" stroke="#63b8ff" points="520.56,-28.3 525.92,-19.17 516.03,-22.96 520.56,-28.3"/>
</a>
</g>
</g>
<!-- Node14 -->
<g id="Node000014" class="node">
<title>Node14</title>
<g id="a_Node000014"><a xlink:title=" ">
<polygon fill="#e0e0e0" stroke="#999999" points="425.14,-19 369.14,-19 369.14,0 425.14,0 425.14,-19"/>
<text text-anchor="middle" x="397.14" y="-7" font-family="Helvetica,sans-Serif" font-size="10.00">sstream</text>
</a>
</g>
</g>
<!-- Node11&#45;&gt;Node14 -->
<g id="edge16_Node000011_Node000014" class="edge">
<title>Node11&#45;&gt;Node14</title>
<g id="a_edge16_Node000011_Node000014"><a xlink:title=" ">
<path fill="none" stroke="#63b8ff" d="M456.81,-60.37C445.96,-51.3 428.66,-36.84 415.47,-25.82"/>
<polygon fill="#63b8ff" stroke="#63b8ff" points="417.43,-22.89 407.51,-19.17 412.94,-28.27 417.43,-22.89"/>
</a>
</g>
</g>
<!-- Node15 -->
<g id="Node000015" class="node">
<title>Node15</title>
<g id="a_Node000015"><a xlink:title=" ">
<polygon fill="#e0e0e0" stroke="#999999" points="636.64,-19 581.64,-19 581.64,0 636.64,0 636.64,-19"/>
<text text-anchor="middle" x="609.14" y="-7" font-family="Helvetica,sans-Serif" font-size="10.00">fstream</text>
</a>
</g>
</g>
<!-- Node11&#45;&gt;Node15 -->
<g id="edge17_Node000011_Node000015" class="edge">
<title>Node11&#45;&gt;Node15</title>
<g id="a_edge17_Node000011_Node000015"><a xlink:title=" ">
<path fill="none" stroke="#63b8ff" d="M487.37,-60.37C491.59,-58.58 496.01,-56.72 500.14,-55 526.49,-44.03 556.52,-31.79 578.38,-22.93"/>
<polygon fill="#63b8ff" stroke="#63b8ff" points="579.85,-26.11 587.8,-19.11 577.22,-19.62 579.85,-26.11"/>
</a>
</g>
</g>
<!-- Node16&#45;&gt;Node12 -->
<g id="edge20_Node000016_Node000012" class="edge">
<title>Node16&#45;&gt;Node12</title>
<g id="a_edge20_Node000016_Node000012"><a xlink:title=" ">
<path fill="none" stroke="#63b8ff" d="M683.98,-60.61C641.38,-51.4 571.05,-35.94 500.82,-19.1"/>
<polygon fill="#63b8ff" stroke="#63b8ff" points="501.45,-15.66 490.91,-16.72 499.82,-22.46 501.45,-15.66"/>
</a>
</g>
</g>
<!-- Node16&#45;&gt;Node13 -->
<g id="edge27_Node000016_Node000013" class="edge">
<title>Node16&#45;&gt;Node13</title>
<g id="a_edge27_Node000016_Node000013"><a xlink:title=" ">
<path fill="none" stroke="#63b8ff" d="M695.95,-60.49C663.54,-50.36 609.24,-33.37 573.06,-22.05"/>
<polygon fill="#63b8ff" stroke="#63b8ff" points="573.96,-18.66 563.37,-19.02 571.87,-25.34 573.96,-18.66"/>
</a>
</g>
</g>
<!-- Node16&#45;&gt;Node15 -->
<g id="edge29_Node000016_Node000015" class="edge">
<title>Node16&#45;&gt;Node15</title>
<g id="a_edge29_Node000016_Node000015"><a xlink:title=" ">
<path fill="none" stroke="#63b8ff" d="M706.32,-60.37C687.55,-50.73 656.94,-35.03 635.09,-23.81"/>
<polygon fill="#63b8ff" stroke="#63b8ff" points="636.53,-20.62 626.03,-19.17 633.33,-26.85 636.53,-20.62"/>
</a>
</g>
</g>
<!-- Node16&#45;&gt;Node16 -->
<g id="edge23_Node000016_Node000016" class="edge">
<title>Node16&#45;&gt;Node16</title>
<g id="a_edge23_Node000016_Node000016"><a xlink:title=" ">
<path fill="none" stroke="#63b8ff" d="M744.19,-79.53C761.77,-83.61 780.14,-80.43 780.14,-70 780.14,-61.61 768.25,-57.91 754.44,-58.91"/>
<polygon fill="#63b8ff" stroke="#63b8ff" points="753.55,-55.5 744.19,-60.47 754.6,-62.42 753.55,-55.5"/>
</a>
</g>
</g>
<!-- Node17 -->
<g id="Node000017" class="node">
<title>Node17</title>
<g id="a_Node000017"><a xlink:title=" ">
<polygon fill="#e0e0e0" stroke="#999999" points="932.14,-19 890.14,-19 890.14,0 932.14,0 932.14,-19"/>
<text text-anchor="middle" x="911.14" y="-7" font-family="Helvetica,sans-Serif" font-size="10.00">array</text>
</a>
</g>
</g>
<!-- Node16&#45;&gt;Node17 -->
<g id="edge21_Node000016_Node000017" class="edge">
<title>Node16&#45;&gt;Node17</title>
<g id="a_edge21_Node000016_Node000017"><a xlink:title=" ">
<path fill="none" stroke="#63b8ff" d="M750.48,-60.49C784.87,-49.79 843.78,-31.46 879.91,-20.22"/>
<polygon fill="#63b8ff" stroke="#63b8ff" points="881.39,-23.42 889.9,-17.11 879.31,-16.74 881.39,-23.42"/>
</a>
</g>
</g>
<!-- Node18 -->
<g id="Node000018" class="node">
<title>Node18</title>
<g id="a_Node000018"><a xlink:title=" ">
<polygon fill="#e0e0e0" stroke="#999999" points="997.64,-19 950.64,-19 950.64,0 997.64,0 997.64,-19"/>
<text text-anchor="middle" x="974.14" y="-7" font-family="Helvetica,sans-Serif" font-size="10.00">cmath</text>
</a>
</g>
</g>
<!-- Node16&#45;&gt;Node18 -->
<g id="edge22_Node000016_Node000018" class="edge">
<title>Node16&#45;&gt;Node18</title>
<g id="a_edge22_Node000016_Node000018"><a xlink:title=" ">
<path fill="none" stroke="#63b8ff" d="M761.81,-60.46C803.4,-51.2 871.73,-35.78 940.26,-19.16"/>
<polygon fill="#63b8ff" stroke="#63b8ff" points="941.48,-22.47 950.37,-16.7 939.82,-15.67 941.48,-22.47"/>
</a>
</g>
</g>
<!-- Node19 -->
<g id="Node000019" class="node">
<title>Node19</title>
<g id="a_Node000019"><a xlink:title=" ">
<polygon fill="#e0e0e0" stroke="#999999" points="1080.14,-19 1016.14,-19 1016.14,0 1080.14,0 1080.14,-19"/>
<text text-anchor="middle" x="1048.14" y="-7" font-family="Helvetica,sans-Serif" font-size="10.00">algorithm</text>
</a>
</g>
</g>
<!-- Node16&#45;&gt;Node19 -->
<g id="edge24_Node000016_Node000019" class="edge">
<title>Node16&#45;&gt;Node19</title>
<g id="a_edge24_Node000016_Node000019"><a xlink:title=" ">
<path fill="none" stroke="#63b8ff" d="M762.26,-62.5C815.21,-53.61 912.9,-36.92 1006.06,-19.16"/>
<polygon fill="#63b8ff" stroke="#63b8ff" points="1006.77,-22.59 1015.93,-17.27 1005.45,-15.71 1006.77,-22.59"/>
</a>
</g>
</g>
<!-- Node20 -->
<g id="Node000020" class="node">
<title>Node20</title>
<g id="a_Node000020"><a xlink:title=" ">
<polygon fill="#e0e0e0" stroke="#999999" points="711.14,-19 655.14,-19 655.14,0 711.14,0 711.14,-19"/>
<text text-anchor="middle" x="683.14" y="-7" font-family="Helvetica,sans-Serif" font-size="10.00">numeric</text>
</a>
</g>
</g>
<!-- Node16&#45;&gt;Node20 -->
<g id="edge25_Node000016_Node000020" class="edge">
<title>Node16&#45;&gt;Node20</title>
<g id="a_edge25_Node000016_Node000020"><a xlink:title=" ">
<path fill="none" stroke="#63b8ff" d="M717.24,-60.37C711.39,-51.81 702.27,-38.47 694.93,-27.74"/>
<polygon fill="#63b8ff" stroke="#63b8ff" points="697.6,-25.45 689.07,-19.17 691.82,-29.4 697.6,-25.45"/>
</a>
</g>
</g>
<!-- Node21 -->
<g id="Node000021" class="node">
<title>Node21</title>
<g id="a_Node000021"><a xlink:title=" ">
<polygon fill="#e0e0e0" stroke="#999999" points="794.64,-19 729.64,-19 729.64,0 794.64,0 794.64,-19"/>
<text text-anchor="middle" x="762.14" y="-7" font-family="Helvetica,sans-Serif" font-size="10.00">functional</text>
</a>
</g>
</g>
<!-- Node16&#45;&gt;Node21 -->
<g id="edge26_Node000016_Node000021" class="edge">
<title>Node16&#45;&gt;Node21</title>
<g id="a_edge26_Node000016_Node000021"><a xlink:title=" ">
<path fill="none" stroke="#63b8ff" d="M728.9,-60.37C734.6,-51.81 743.49,-38.47 750.65,-27.74"/>
<polygon fill="#63b8ff" stroke="#63b8ff" points="753.73,-29.43 756.36,-19.17 747.9,-25.55 753.73,-29.43"/>
</a>
</g>
</g>
<!-- Node22 -->
<g id="Node000022" class="node">
<title>Node22</title>
<g id="a_Node000022"><a xlink:title=" ">
<polygon fill="#e0e0e0" stroke="#999999" points="871.64,-19 812.64,-19 812.64,0 871.64,0 871.64,-19"/>
<text text-anchor="middle" x="842.14" y="-7" font-family="Helvetica,sans-Serif" font-size="10.00">numbers</text>
</a>
</g>
</g>
<!-- Node16&#45;&gt;Node22 -->
<g id="edge28_Node000016_Node000022" class="edge">
<title>Node16&#45;&gt;Node22</title>
<g id="a_edge28_Node000016_Node000022"><a xlink:title=" ">
<path fill="none" stroke="#63b8ff" d="M740.45,-60.49C760.19,-50.79 792.7,-34.81 815.64,-23.53"/>
<polygon fill="#63b8ff" stroke="#63b8ff" points="817.39,-26.57 824.82,-19.02 814.3,-20.29 817.39,-26.57"/>
</a>
</g>
</g>
</g>
</svg>
