<?xml version="1.0" encoding="UTF-8" standalone="no"?>
<!DOCTYPE svg PUBLIC "-//W3C//DTD SVG 1.1//EN"
 "http://www.w3.org/Graphics/SVG/1.1/DTD/svg11.dtd">
<!-- Generated by graphviz version 2.43.0 (0)
 -->
<!-- Title: src/elements/activation_function.cpp Pages: 1 -->
<svg width="1487pt" height="335pt"
 viewBox="0.00 0.00 1486.97 335.00" xmlns="http://www.w3.org/2000/svg" xmlns:xlink="http://www.w3.org/1999/xlink">
<g id="graph0" class="graph" transform="scale(1 1) rotate(0) translate(4 331)">
<title>src/elements/activation_function.cpp</title>
<!-- Node1 -->
<g id="Node000001" class="node">
<title>Node1</title>
<g id="a_Node000001"><a xlink:title=" ">
<polygon fill="#999999" stroke="#666666" points="759.97,-327 628.97,-327 628.97,-297 759.97,-297 759.97,-327"/>
<text text-anchor="start" x="636.97" y="-315" font-family="Helvetica,sans-Serif" font-size="10.00">src/elements/activation</text>
<text text-anchor="middle" x="694.47" y="-304" font-family="Helvetica,sans-Serif" font-size="10.00">_function.cpp</text>
</a>
</g>
</g>
<!-- Node2 -->
<g id="Node000002" class="node">
<title>Node2</title>
<g id="a_Node000002"><a xlink:href="activation__function_8h.html" target="_top" xlink:title=" ">
<polygon fill="white" stroke="#666666" points="709.47,-261 595.47,-261 595.47,-231 709.47,-231 709.47,-261"/>
<text text-anchor="start" x="603.47" y="-249" font-family="Helvetica,sans-Serif" font-size="10.00">elements/activation</text>
<text text-anchor="middle" x="652.47" y="-238" font-family="Helvetica,sans-Serif" font-size="10.00">_function.h</text>
</a>
</g>
</g>
<!-- Node1&#45;&gt;Node2 -->
<g id="edge1_Node000001_Node000002" class="edge">
<title>Node1&#45;&gt;Node2</title>
<g id="a_edge1_Node000001_Node000002"><a xlink:title=" ">
<path fill="none" stroke="#63b8ff" d="M685.15,-296.8C679.93,-288.84 673.3,-278.74 667.38,-269.71"/>
<polygon fill="#63b8ff" stroke="#63b8ff" points="670.18,-267.6 661.77,-261.16 664.33,-271.44 670.18,-267.6"/>
</a>
</g>
</g>
<!-- Node28 -->
<g id="Node000028" class="node">
<title>Node28</title>
<g id="a_Node000028"><a xlink:href="simd__dispatch_8h.html" target="_top" xlink:title=" ">
<polygon fill="white" stroke="#666666" points="1478.97,-74 1355.97,-74 1355.97,-55 1478.97,-55 1478.97,-74"/>
<text text-anchor="middle" x="1417.47" y="-62" font-family="Helvetica,sans-Serif" font-size="10.00">tools/simd_dispatch.h</text>
</a>
</g>
</g>
<!-- Node1&#45;&gt;Node28 -->
<g id="edge37_Node000001_Node000028" class="edge">
<title>Node1&#45;&gt;Node28</title>
<g id="a_edge37_Node000001_Node000028"><a xlink:title=" ">
<path fill="none" stroke="#63b8ff" d="M735.94,-296.92C865.68,-252.86 1262.37,-118.17 1382.58,-77.35"/>
<polygon fill="#63b8ff" stroke="#63b8ff" points="1384.03,-80.55 1392.37,-74.02 1381.78,-73.92 1384.03,-80.55"/>
</a>
</g>
</g>
<!-- Node3 -->
<g id="Node000003" class="node">
<title>Node3</title>
<g id="a_Node000003"><a xlink:title=" ">
<polygon fill="#e0e0e0" stroke="#999999" points="87.47,-74 43.47,-74 43.47,-55 87.47,-55 87.47,-74"/>
<text text-anchor="middle" x="65.47" y="-62" font-family="Helvetica,sans-Serif" font-size="10.00">string</text>
</a>
</g>
</g>
<!-- Node2&#45;&gt;Node3 -->
<g id="edge2_Node000002_Node000003" class="edge">
<title>Node2&#45;&gt;Node3</title>
<g id="a_edge2_Node000002_Node000003"><a xlink:title=" ">
<path fill="none" stroke="#63b8ff" d="M595.28,-245.31C450.34,-244.71 75.22,-233.94 5.47,-140 -2.48,-129.29 -0.52,-121.91 5.47,-110 12.16,-96.71 24.91,-86.39 36.94,-79.05"/>
<polygon fill="#63b8ff" stroke="#63b8ff" points="38.89,-81.97 45.89,-74.02 35.46,-75.87 38.89,-81.97"/>
</a>
</g>
</g>
<!-- Node4 -->
<g id="Node000004" class="node">
<title>Node4</title>
<g id="a_Node000004"><a xlink:href="logger_8h.html" target="_top" xlink:title=" ">
<polygon fill="white" stroke="#666666" points="279.97,-195 196.97,-195 196.97,-176 279.97,-176 279.97,-195"/>
<text text-anchor="middle" x="238.47" y="-183" font-family="Helvetica,sans-Serif" font-size="10.00">tools/logger.h</text>
</a>
</g>
</g>
<!-- Node2&#45;&gt;Node4 -->
<g id="edge3_Node000002_Node000004" class="edge">
<title>Node2&#45;&gt;Node4</title>
<g id="a_edge3_Node000002_Node000004"><a xlink:title=" ">
<path fill="none" stroke="#63b8ff" d="M595.34,-236.93C514.46,-225.5 367.78,-204.77 290.05,-193.79"/>
<polygon fill="#63b8ff" stroke="#63b8ff" points="290.4,-190.3 280.01,-192.37 289.42,-197.23 290.4,-190.3"/>
</a>
</g>
</g>
<!-- Node19 -->
<g id="Node000019" class="node">
<title>Node19</title>
<g id="a_Node000019"><a xlink:href="math_8h.html" target="_top" xlink:title=" ">
<polygon fill="white" stroke="#666666" points="927.47,-134.5 849.47,-134.5 849.47,-115.5 927.47,-115.5 927.47,-134.5"/>
<text text-anchor="middle" x="888.47" y="-122.5" font-family="Helvetica,sans-Serif" font-size="10.00">tools/math.h</text>
</a>
</g>
</g>
<!-- Node2&#45;&gt;Node19 -->
<g id="edge22_Node000002_Node000019" class="edge">
<title>Node2&#45;&gt;Node19</title>
<g id="a_edge22_Node000002_Node000019"><a xlink:title=" ">
<path fill="none" stroke="#63b8ff" d="M680.47,-230.88C726.54,-207.65 817.67,-161.7 862.43,-139.13"/>
<polygon fill="#63b8ff" stroke="#63b8ff" points="864.14,-142.19 871.5,-134.56 860.99,-135.94 864.14,-142.19"/>
</a>
</g>
</g>
<!-- Node4&#45;&gt;Node3 -->
<g id="edge5_Node000004_Node000003" class="edge">
<title>Node4&#45;&gt;Node3</title>
<g id="a_edge5_Node000004_Node000003"><a xlink:title=" ">
<path fill="none" stroke="#63b8ff" d="M196.95,-182.36C138.66,-178.38 37.11,-167.58 14.47,-140 -1.71,-120.28 23.29,-95.52 43.66,-80.1"/>
<polygon fill="#63b8ff" stroke="#63b8ff" points="45.91,-82.8 51.97,-74.11 41.81,-77.12 45.91,-82.8"/>
</a>
</g>
</g>
<!-- Node5 -->
<g id="Node000005" class="node">
<title>Node5</title>
<g id="a_Node000005"><a xlink:title=" ">
<polygon fill="#e0e0e0" stroke="#999999" points="83.47,-134.5 23.47,-134.5 23.47,-115.5 83.47,-115.5 83.47,-134.5"/>
<text text-anchor="middle" x="53.47" y="-122.5" font-family="Helvetica,sans-Serif" font-size="10.00">iostream</text>
</a>
</g>
</g>
<!-- Node4&#45;&gt;Node5 -->
<g id="edge4_Node000004_Node000005" class="edge">
<title>Node4&#45;&gt;Node5</title>
<g id="a_edge4_Node000004_Node000005"><a xlink:title=" ">
<path fill="none" stroke="#63b8ff" d="M211.44,-175.99C183.05,-167.05 137.11,-152.56 97.47,-140 95.07,-139.24 92.58,-138.45 90.08,-137.66"/>
<polygon fill="#63b8ff" stroke="#63b8ff" points="91.05,-134.29 80.46,-134.6 88.93,-140.96 91.05,-134.29"/>
</a>
</g>
</g>
<!-- Node6 -->
<g id="Node000006" class="node">
<title>Node6</title>
<g id="a_Node000006"><a xlink:title=" ">
<polygon fill="#e0e0e0" stroke="#999999" points="180.47,-74 130.47,-74 130.47,-55 180.47,-55 180.47,-74"/>
<text text-anchor="middle" x="155.47" y="-62" font-family="Helvetica,sans-Serif" font-size="10.00">chrono</text>
</a>
</g>
</g>
<!-- Node4&#45;&gt;Node6 -->
<g id="edge6_Node000004_Node000006" class="edge">
<title>Node4&#45;&gt;Node6</title>
<g id="a_edge6_Node000004_Node000006"><a xlink:title=" ">
<path fill="none" stroke="#63b8ff" d="M196.94,-178.82C173.19,-173.21 145.25,-162.07 130.47,-140 118.67,-122.37 130.43,-98.68 141.48,-82.78"/>
<polygon fill="#63b8ff" stroke="#63b8ff" points="144.54,-84.54 147.72,-74.43 138.93,-80.35 144.54,-84.54"/>
</a>
</g>
</g>
<!-- Node7 -->
<g id="Node000007" class="node">
<title>Node7</title>
<g id="a_Node000007"><a xlink:title=" ">
<polygon fill="#e0e0e0" stroke="#999999" points="195.47,-134.5 139.47,-134.5 139.47,-115.5 195.47,-115.5 195.47,-134.5"/>
<text text-anchor="middle" x="167.47" y="-122.5" font-family="Helvetica,sans-Serif" font-size="10.00">iomanip</text>
</a>
</g>
</g>
<!-- Node4&#45;&gt;Node7 -->
<g id="edge7_Node000004_Node000007" class="edge">
<title>Node4&#45;&gt;Node7</title>
<g id="a_edge7_Node000004_Node000007"><a xlink:title=" ">
<path fill="none" stroke="#63b8ff" d="M228,-175.87C216.98,-166.8 199.44,-152.34 186.07,-141.32"/>
<polygon fill="#63b8ff" stroke="#63b8ff" points="187.94,-138.33 177.99,-134.67 183.48,-143.73 187.94,-138.33"/>
</a>
</g>
</g>
<!-- Node8 -->
<g id="Node000008" class="node">
<title>Node8</title>
<g id="a_Node000008"><a xlink:title=" ">
<polygon fill="#e0e0e0" stroke="#999999" points="263.47,-134.5 213.47,-134.5 213.47,-115.5 263.47,-115.5 263.47,-134.5"/>
<text text-anchor="middle" x="238.47" y="-122.5" font-family="Helvetica,sans-Serif" font-size="10.00">atomic</text>
</a>
</g>
</g>
<!-- Node4&#45;&gt;Node8 -->
<g id="edge8_Node000004_Node000008" class="edge">
<title>Node4&#45;&gt;Node8</title>
<g id="a_edge8_Node000004_Node000008"><a xlink:title=" ">
<path fill="none" stroke="#63b8ff" d="M238.47,-175.87C238.47,-167.75 238.47,-155.31 238.47,-144.89"/>
<polygon fill="#63b8ff" stroke="#63b8ff" points="241.97,-144.67 238.47,-134.67 234.97,-144.67 241.97,-144.67"/>
</a>
</g>
</g>
<!-- Node9 -->
<g id="Node000009" class="node">
<title>Node9</title>
<g id="a_Node000009"><a xlink:title=" ">
<polygon fill="#e0e0e0" stroke="#999999" points="388.97,-140 281.97,-140 281.97,-110 388.97,-110 388.97,-140"/>
<text text-anchor="start" x="289.97" y="-128" font-family="Helvetica,sans-Serif" font-size="10.00">imgui&#45;platform&#45;kit</text>
<text text-anchor="middle" x="335.47" y="-117" font-family="Helvetica,sans-Serif" font-size="10.00">/log_window.h</text>
</a>
</g>
</g>
<!-- Node4&#45;&gt;Node9 -->
<g id="edge9_Node000004_Node000009" class="edge">
<title>Node4&#45;&gt;Node9</title>
<g id="a_edge9_Node000004_Node000009"><a xlink:title=" ">
<path fill="none" stroke="#63b8ff" d="M252.79,-175.87C266.07,-167.86 286.31,-155.65 303.45,-145.31"/>
<polygon fill="#63b8ff" stroke="#63b8ff" points="305.31,-148.28 312.07,-140.11 301.7,-142.28 305.31,-148.28"/>
</a>
</g>
</g>
<!-- Node10 -->
<g id="Node000010" class="node">
<title>Node10</title>
<g id="a_Node000010"><a xlink:href="exception_8h.html" target="_top" xlink:title=" ">
<polygon fill="white" stroke="#666666" points="537.47,-134.5 407.47,-134.5 407.47,-115.5 537.47,-115.5 537.47,-134.5"/>
<text text-anchor="middle" x="472.47" y="-122.5" font-family="Helvetica,sans-Serif" font-size="10.00">exceptions/exception.h</text>
</a>
</g>
</g>
<!-- Node4&#45;&gt;Node10 -->
<g id="edge10_Node000004_Node000010" class="edge">
<title>Node4&#45;&gt;Node10</title>
<g id="a_edge10_Node000004_Node000010"><a xlink:title=" ">
<path fill="none" stroke="#63b8ff" d="M272.5,-175.99C313.74,-165.68 383.33,-148.28 428.58,-136.97"/>
<polygon fill="#63b8ff" stroke="#63b8ff" points="429.55,-140.34 438.41,-134.52 427.86,-133.55 429.55,-140.34"/>
</a>
</g>
</g>
<!-- Node13 -->
<g id="Node000013" class="node">
<title>Node13</title>
<g id="a_Node000013"><a xlink:href="utils_8h.html" target="_top" xlink:title=" ">
<polygon fill="white" stroke="#666666" points="602.97,-134.5 555.97,-134.5 555.97,-115.5 602.97,-115.5 602.97,-134.5"/>
<text text-anchor="middle" x="579.47" y="-122.5" font-family="Helvetica,sans-Serif" font-size="10.00">utils.h</text>
</a>
</g>
</g>
<!-- Node4&#45;&gt;Node13 -->
<g id="edge14_Node000004_Node000013" class="edge">
<title>Node4&#45;&gt;Node13</title>
<g id="a_edge14_Node000004_Node000013"><a xlink:title=" ">
<path fill="none" stroke="#63b8ff" d="M280.02,-181.9C339.86,-177.41 453.33,-166.02 546.47,-140 548.36,-139.47 550.28,-138.86 552.2,-138.2"/>
<polygon fill="#63b8ff" stroke="#63b8ff" points="553.55,-141.43 561.62,-134.56 551.03,-134.9 553.55,-141.43"/>
</a>
</g>
</g>
<!-- Node10&#45;&gt;Node3 -->
<g id="edge13_Node000010_Node000003" class="edge">
<title>Node10&#45;&gt;Node3</title>
<g id="a_edge13_Node000010_Node000003"><a xlink:title=" ">
<path fill="none" stroke="#63b8ff" d="M428.92,-115.45C418.63,-113.55 407.68,-111.62 397.47,-110 275.29,-90.64 243.97,-91.28 121.47,-74 113.69,-72.9 105.3,-71.66 97.45,-70.47"/>
<polygon fill="#63b8ff" stroke="#63b8ff" points="97.95,-67.01 87.53,-68.96 96.89,-73.93 97.95,-67.01"/>
</a>
</g>
</g>
<!-- Node11 -->
<g id="Node000011" class="node">
<title>Node11</title>
<g id="a_Node000011"><a xlink:title=" ">
<polygon fill="#e0e0e0" stroke="#999999" points="377.47,-74 327.47,-74 327.47,-55 377.47,-55 377.47,-74"/>
<text text-anchor="middle" x="352.47" y="-62" font-family="Helvetica,sans-Serif" font-size="10.00">cstdint</text>
</a>
</g>
</g>
<!-- Node10&#45;&gt;Node11 -->
<g id="edge11_Node000010_Node000011" class="edge">
<title>Node10&#45;&gt;Node11</title>
<g id="a_edge11_Node000010_Node000011"><a xlink:title=" ">
<path fill="none" stroke="#63b8ff" d="M455.02,-115.49C435.12,-105.79 402.33,-89.81 379.2,-78.53"/>
<polygon fill="#63b8ff" stroke="#63b8ff" points="380.47,-75.25 369.94,-74.02 377.4,-81.54 380.47,-75.25"/>
</a>
</g>
</g>
<!-- Node12 -->
<g id="Node000012" class="node">
<title>Node12</title>
<g id="a_Node000012"><a xlink:title=" ">
<polygon fill="#e0e0e0" stroke="#999999" points="308.97,-74 243.97,-74 243.97,-55 308.97,-55 308.97,-74"/>
<text text-anchor="middle" x="276.47" y="-62" font-family="Helvetica,sans-Serif" font-size="10.00">exception</text>
</a>
</g>
</g>
<!-- Node10&#45;&gt;Node12 -->
<g id="edge12_Node000010_Node000012" class="edge">
<title>Node10&#45;&gt;Node12</title>
<g id="a_edge12_Node000010_Node000012"><a xlink:title=" ">
<path fill="none" stroke="#63b8ff" d="M443.97,-115.49C409.86,-105.31 352.6,-88.22 314.68,-76.9"/>
<polygon fill="#63b8ff" stroke="#63b8ff" points="315.59,-73.52 305.01,-74.02 313.59,-80.23 315.59,-73.52"/>
</a>
</g>
</g>
<!-- Node13&#45;&gt;Node3 -->
<g id="edge15_Node000013_Node000003" class="edge">
<title>Node13&#45;&gt;Node3</title>
<g id="a_edge15_Node000013_Node000003"><a xlink:title=" ">
<path fill="none" stroke="#63b8ff" d="M562.02,-115.38C557.1,-113.29 551.67,-111.29 546.47,-110 362.47,-64.41 309.73,-96.24 121.47,-74 113.66,-73.08 105.27,-71.9 97.42,-70.72"/>
<polygon fill="#63b8ff" stroke="#63b8ff" points="97.92,-67.26 87.5,-69.19 96.85,-74.18 97.92,-67.26"/>
</a>
</g>
</g>
<!-- Node13&#45;&gt;Node6 -->
<g id="edge20_Node000013_Node000006" class="edge">
<title>Node13&#45;&gt;Node6</title>
<g id="a_edge20_Node000013_Node000006"><a xlink:title=" ">
<path fill="none" stroke="#63b8ff" d="M561.99,-115.48C557.07,-113.39 551.65,-111.36 546.47,-110 537.88,-107.74 285.17,-79.78 190.67,-69.37"/>
<polygon fill="#63b8ff" stroke="#63b8ff" points="190.8,-65.86 180.47,-68.25 190.03,-72.82 190.8,-65.86"/>
</a>
</g>
</g>
<!-- Node14 -->
<g id="Node000014" class="node">
<title>Node14</title>
<g id="a_Node000014"><a xlink:title=" ">
<polygon fill="#e0e0e0" stroke="#999999" points="602.97,-74 555.97,-74 555.97,-55 602.97,-55 602.97,-74"/>
<text text-anchor="middle" x="579.47" y="-62" font-family="Helvetica,sans-Serif" font-size="10.00">vector</text>
</a>
</g>
</g>
<!-- Node13&#45;&gt;Node14 -->
<g id="edge16_Node000013_Node000014" class="edge">
<title>Node13&#45;&gt;Node14</title>
<g id="a_edge16_Node000013_Node000014"><a xlink:title=" ">
<path fill="none" stroke="#63b8ff" d="M579.47,-115.37C579.47,-107.25 579.47,-94.81 579.47,-84.39"/>
<polygon fill="#63b8ff" stroke="#63b8ff" points="582.97,-84.17 579.47,-74.17 575.97,-84.17 582.97,-84.17"/>
</a>
</g>
</g>
<!-- Node15 -->
<g id="Node000015" class="node">
<title>Node15</title>
<g id="a_Node000015"><a xlink:title=" ">
<polygon fill="#e0e0e0" stroke="#999999" points="675.47,-74 621.47,-74 621.47,-55 675.47,-55 675.47,-74"/>
<text text-anchor="middle" x="648.47" y="-62" font-family="Helvetica,sans-Serif" font-size="10.00">random</text>
</a>
</g>
</g>
<!-- Node13&#45;&gt;Node15 -->
<g id="edge17_Node000013_Node000015" class="edge">
<title>Node13&#45;&gt;Node15</title>
<g id="a_edge17_Node000013_Node000015"><a xlink:title=" ">
<path fill="none" stroke="#63b8ff" d="M589.65,-115.37C600.36,-106.3 617.41,-91.84 630.4,-80.82"/>
<polygon fill="#63b8ff" stroke="#63b8ff" points="632.89,-83.3 638.25,-74.17 628.36,-77.96 632.89,-83.3"/>
</a>
</g>
</g>
<!-- Node16 -->
<g id="Node000016" class="node">
<title>Node16</title>
<g id="a_Node000016"><a xlink:title=" ">
<polygon fill="#e0e0e0" stroke="#999999" points="451.47,-74 395.47,-74 395.47,-55 451.47,-55 451.47,-74"/>
<text text-anchor="middle" x="423.47" y="-62" font-family="Helvetica,sans-Serif" font-size="10.00">sstream</text>
</a>
</g>
</g>
<!-- Node13&#45;&gt;Node16 -->
<g id="edge18_Node000013_Node000016" class="edge">
<title>Node13&#45;&gt;Node16</title>
<g id="a_edge18_Node000013_Node000016"><a xlink:title=" ">
<path fill="none" stroke="#63b8ff" d="M559.65,-115.39C555.33,-113.56 550.76,-111.68 546.47,-110 516.93,-98.4 482.99,-86.2 458.26,-77.52"/>
<polygon fill="#63b8ff" stroke="#63b8ff" points="459.19,-74.14 448.59,-74.14 456.88,-80.75 459.19,-74.14"/>
</a>
</g>
</g>
<!-- Node17 -->
<g id="Node000017" class="node">
<title>Node17</title>
<g id="a_Node000017"><a xlink:title=" ">
<polygon fill="#e0e0e0" stroke="#999999" points="748.97,-74 693.97,-74 693.97,-55 748.97,-55 748.97,-74"/>
<text text-anchor="middle" x="721.47" y="-62" font-family="Helvetica,sans-Serif" font-size="10.00">fstream</text>
</a>
</g>
</g>
<!-- Node13&#45;&gt;Node17 -->
<g id="edge19_Node000013_Node000017" class="edge">
<title>Node13&#45;&gt;Node17</title>
<g id="a_edge19_Node000013_Node000017"><a xlink:title=" ">
<path fill="none" stroke="#63b8ff" d="M600.12,-115.49C624.1,-105.62 663.86,-89.23 691.3,-77.93"/>
<polygon fill="#63b8ff" stroke="#63b8ff" points="692.89,-81.06 700.8,-74.02 690.22,-74.59 692.89,-81.06"/>
</a>
</g>
</g>
<!-- Node18 -->
<g id="Node000018" class="node">
<title>Node18</title>
<g id="a_Node000018"><a xlink:title=" ">
<polygon fill="#e0e0e0" stroke="#999999" points="537.47,-74 469.47,-74 469.47,-55 537.47,-55 537.47,-74"/>
<text text-anchor="middle" x="503.47" y="-62" font-family="Helvetica,sans-Serif" font-size="10.00">filesystem</text>
</a>
</g>
</g>
<!-- Node13&#45;&gt;Node18 -->
<g id="edge21_Node000013_Node000018" class="edge">
<title>Node13&#45;&gt;Node18</title>
<g id="a_edge21_Node000013_Node000018"><a xlink:title=" ">
<path fill="none" stroke="#63b8ff" d="M568.26,-115.37C556.36,-106.21 537.33,-91.56 522.97,-80.51"/>
<polygon fill="#63b8ff" stroke="#63b8ff" points="524.79,-77.49 514.73,-74.17 520.52,-83.04 524.79,-77.49"/>
</a>
</g>
</g>
<!-- Node19&#45;&gt;Node11 -->
<g id="edge34_Node000019_Node000011" class="edge">
<title>Node19&#45;&gt;Node11</title>
<g id="a_edge34_Node000019_Node000011"><a xlink:title=" ">
<path fill="none" stroke="#63b8ff" d="M849.16,-122.04C765.77,-117.46 564.96,-104.21 387.67,-73.96"/>
<polygon fill="#63b8ff" stroke="#63b8ff" points="388.09,-70.48 377.64,-72.22 386.89,-77.38 388.09,-70.48"/>
</a>
</g>
</g>
<!-- Node19&#45;&gt;Node14 -->
<g id="edge23_Node000019_Node000014" class="edge">
<title>Node19&#45;&gt;Node14</title>
<g id="a_edge23_Node000019_Node000014"><a xlink:title=" ">
<path fill="none" stroke="#63b8ff" d="M849.44,-117.85C797.7,-109.49 703.36,-93.56 613.07,-73.99"/>
<polygon fill="#63b8ff" stroke="#63b8ff" points="613.73,-70.55 603.22,-71.84 612.24,-77.39 613.73,-70.55"/>
</a>
</g>
</g>
<!-- Node19&#45;&gt;Node15 -->
<g id="edge29_Node000019_Node000015" class="edge">
<title>Node19&#45;&gt;Node15</title>
<g id="a_edge29_Node000019_Node000015"><a xlink:title=" ">
<path fill="none" stroke="#63b8ff" d="M853.57,-115.49C808.73,-104.56 731.23,-85.67 685.42,-74.51"/>
<polygon fill="#63b8ff" stroke="#63b8ff" points="686.14,-71.08 675.6,-72.11 684.48,-77.88 686.14,-71.08"/>
</a>
</g>
</g>
<!-- Node19&#45;&gt;Node17 -->
<g id="edge31_Node000019_Node000017" class="edge">
<title>Node19&#45;&gt;Node17</title>
<g id="a_edge31_Node000019_Node000017"><a xlink:title=" ">
<path fill="none" stroke="#63b8ff" d="M864.19,-115.49C835.5,-105.44 787.58,-88.66 755.27,-77.34"/>
<polygon fill="#63b8ff" stroke="#63b8ff" points="756.38,-74.02 745.79,-74.02 754.07,-80.63 756.38,-74.02"/>
</a>
</g>
</g>
<!-- Node20 -->
<g id="Node000020" class="node">
<title>Node20</title>
<g id="a_Node000020"><a xlink:title=" ">
<polygon fill="#e0e0e0" stroke="#999999" points="809.47,-74 767.47,-74 767.47,-55 809.47,-55 809.47,-74"/>
<text text-anchor="middle" x="788.47" y="-62" font-family="Helvetica,sans-Serif" font-size="10.00">array</text>
</a>
</g>
</g>
<!-- Node19&#45;&gt;Node20 -->
<g id="edge24_Node000019_Node000020" class="edge">
<title>Node19&#45;&gt;Node20</title>
<g id="a_edge24_Node000019_Node000020"><a xlink:title=" ">
<path fill="none" stroke="#63b8ff" d="M873.72,-115.37C857.47,-105.86 831.12,-90.45 812.01,-79.27"/>
<polygon fill="#63b8ff" stroke="#63b8ff" points="813.69,-76.2 803.29,-74.17 810.15,-82.24 813.69,-76.2"/>
</a>
</g>
</g>
<!-- Node21 -->
<g id="Node000021" class="node">
<title>Node21</title>
<g id="a_Node000021"><a xlink:title=" ">
<polygon fill="#e0e0e0" stroke="#999999" points="874.97,-74 827.97,-74 827.97,-55 874.97,-55 874.97,-74"/>
<text text-anchor="middle" x="851.47" y="-62" font-family="Helvetica,sans-Serif" font-size="10.00">cmath</text>
</a>
</g>
</g>
<!-- Node19&#45;&gt;Node21 -->
<g id="edge25_Node000019_Node000021" class="edge">
<title>Node19&#45;&gt;Node21</title>
<g id="a_edge25_Node000019_Node000021"><a xlink:title=" ">
<path fill="none" stroke="#63b8ff" d="M883.01,-115.37C877.6,-106.81 869.16,-93.47 862.38,-82.74"/>
<polygon fill="#63b8ff" stroke="#63b8ff" points="865.26,-80.75 856.95,-74.17 859.34,-84.49 865.26,-80.75"/>
</a>
</g>
</g>
<!-- Node22 -->
<g id="Node000022" class="node">
<title>Node22</title>
<g id="a_Node000022"><a xlink:title=" ">
<polygon fill="#e0e0e0" stroke="#999999" points="957.47,-74 893.47,-74 893.47,-55 957.47,-55 957.47,-74"/>
<text text-anchor="middle" x="925.47" y="-62" font-family="Helvetica,sans-Serif" font-size="10.00">algorithm</text>
</a>
</g>
</g>
<!-- Node19&#45;&gt;Node22 -->
<g id="edge26_Node000019_Node000022" class="edge">
<title>Node19&#45;&gt;Node22</title>
<g id="a_edge26_Node000019_Node000022"><a xlink:title=" ">
<path fill="none" stroke="#63b8ff" d="M893.93,-115.37C899.34,-106.81 907.78,-93.47 914.57,-82.74"/>
<polygon fill="#63b8ff" stroke="#63b8ff" points="917.6,-84.49 919.99,-74.17 911.69,-80.75 917.6,-84.49"/>
</a>
</g>
</g>
<!-- Node23 -->
<g id="Node000023" class="node">
<title>Node23</title>
<g id="a_Node000023"><a xlink:title=" ">
<polygon fill="#e0e0e0" stroke="#999999" points="1031.47,-74 975.47,-74 975.47,-55 1031.47,-55 1031.47,-74"/>
<text text-anchor="middle" x="1003.47" y="-62" font-family="Helvetica,sans-Serif" font-size="10.00">numeric</text>
</a>
</g>
</g>
<!-- Node19&#45;&gt;Node23 -->
<g id="edge27_Node000019_Node000023" class="edge">
<title>Node19&#45;&gt;Node23</title>
<g id="a_edge27_Node000019_Node000023"><a xlink:title=" ">
<path fill="none" stroke="#63b8ff" d="M905.44,-115.37C924.38,-105.73 955.26,-90.03 977.3,-78.81"/>
<polygon fill="#63b8ff" stroke="#63b8ff" points="979.11,-81.82 986.43,-74.17 975.93,-75.58 979.11,-81.82"/>
</a>
</g>
</g>
<!-- Node24 -->
<g id="Node000024" class="node">
<title>Node24</title>
<g id="a_Node000024"><a xlink:title=" ">
<polygon fill="#e0e0e0" stroke="#999999" points="1114.97,-74 1049.97,-74 1049.97,-55 1114.97,-55 1114.97,-74"/>
<text text-anchor="middle" x="1082.47" y="-62" font-family="Helvetica,sans-Serif" font-size="10.00">functional</text>
</a>
</g>
</g>
<!-- Node19&#45;&gt;Node24 -->
<g id="edge28_Node000019_Node000024" class="edge">
<title>Node19&#45;&gt;Node24</title>
<g id="a_edge28_Node000019_Node000024"><a xlink:title=" ">
<path fill="none" stroke="#63b8ff" d="M916.68,-115.49C950.45,-105.31 1007.12,-88.22 1044.66,-76.9"/>
<polygon fill="#63b8ff" stroke="#63b8ff" points="1045.67,-80.25 1054.23,-74.02 1043.64,-73.55 1045.67,-80.25"/>
</a>
</g>
</g>
<!-- Node25 -->
<g id="Node000025" class="node">
<title>Node25</title>
<g id="a_Node000025"><a xlink:title=" ">
<polygon fill="#e0e0e0" stroke="#999999" points="1191.97,-74 1132.97,-74 1132.97,-55 1191.97,-55 1191.97,-74"/>
<text text-anchor="middle" x="1162.47" y="-62" font-family="Helvetica,sans-Serif" font-size="10.00">numbers</text>
</a>
</g>
</g>
<!-- Node19&#45;&gt;Node25 -->
<g id="edge30_Node000019_Node000025" class="edge">
<title>Node19&#45;&gt;Node25</title>
<g id="a_edge30_Node000019_Node000025"><a xlink:title=" ">
<path fill="none" stroke="#63b8ff" d="M927.75,-115.82C972.6,-106.45 1048.44,-90.51 1122.63,-74.39"/>
<polygon fill="#63b8ff" stroke="#63b8ff" points="1123.58,-77.76 1132.61,-72.21 1122.09,-70.92 1123.58,-77.76"/>
</a>
</g>
</g>
<!-- Node26 -->
<g id="Node000026" class="node">
<title>Node26</title>
<g id="a_Node000026"><a xlink:title=" ">
<polygon fill="#e0e0e0" stroke="#999999" points="1278.97,-74 1209.97,-74 1209.97,-55 1278.97,-55 1278.97,-74"/>
<text text-anchor="middle" x="1244.47" y="-62" font-family="Helvetica,sans-Serif" font-size="10.00">type_traits</text>
</a>
</g>
</g>
<!-- Node19&#45;&gt;Node26 -->
<g id="edge32_Node000019_Node000026" class="edge">
<title>Node19&#45;&gt;Node26</title>
<g id="a_edge32_Node000019_Node000026"><a xlink:title=" ">
<path fill="none" stroke="#63b8ff" d="M927.59,-118.22C985.06,-109.63 1095.94,-92.67 1199.74,-74.26"/>
<polygon fill="#63b8ff" stroke="#63b8ff" points="1200.53,-77.68 1209.76,-72.48 1199.3,-70.78 1200.53,-77.68"/>
</a>
</g>
</g>
<!-- Node27 -->
<g id="Node000027" class="node">
<title>Node27</title>
<g id="a_Node000027"><a xlink:title=" ">
<polygon fill="#e0e0e0" stroke="#999999" points="1337.47,-74 1297.47,-74 1297.47,-55 1337.47,-55 1337.47,-74"/>
<text text-anchor="middle" x="1317.47" y="-62" font-family="Helvetica,sans-Serif" font-size="10.00">span</text>
</a>
</g>
</g>
<!-- Node19&#45;&gt;Node27 -->
<g id="edge33_Node000019_Node000027" class="edge">
<title>Node19&#45;&gt;Node27</title>
<g id="a_edge33_Node000019_Node000027"><a xlink:title=" ">
<path fill="none" stroke="#63b8ff" d="M927.68,-119.91C1010.88,-111.11 1203.68,-90.01 1287.4,-73.86"/>
<polygon fill="#63b8ff" stroke="#63b8ff" points="1288.19,-77.27 1297.3,-71.86 1286.8,-70.41 1288.19,-77.27"/>
</a>
</g>
</g>
<!-- Node19&#45;&gt;Node28 -->
<g id="edge35_Node000019_Node000028" class="edge">
<title>Node19&#45;&gt;Node28</title>
<g id="a_edge35_Node000019_Node000028"><a xlink:title=" ">
<path fill="none" stroke="#63b8ff" d="M927.7,-119.86C1005.26,-111.63 1183.98,-92.54 1345.77,-74.07"/>
<polygon fill="#63b8ff" stroke="#63b8ff" points="1346.37,-77.52 1355.9,-72.91 1345.57,-70.57 1346.37,-77.52"/>
</a>
</g>
</g>
<!-- Node29 -->
<g id="Node000029" class="node">
<title>Node29</title>
<g id="a_Node000029"><a xlink:title=" ">
<polygon fill="#e0e0e0" stroke="#999999" points="1443.97,-19 1390.97,-19 1390.97,0 1443.97,0 1443.97,-19"/>
<text text-anchor="middle" x="1417.47" y="-7" font-family="Helvetica,sans-Serif" font-size="10.00">cstddef</text>
</a>
</g>
</g>
<!-- Node28&#45;&gt;Node29 -->
<g id="edge36_Node000028_Node000029" class="edge">
<title>Node28&#45;&gt;Node29</title>
<g id="a_edge36_Node000028_Node000029"><a xlink:title=" ">
<path fill="none" stroke="#63b8ff" d="M1417.47,-54.75C1417.47,-47.8 1417.47,-37.85 1417.47,-29.13"/>
<polygon fill="#63b8ff" stroke="#63b8ff" points="1420.97,-29.09 1417.47,-19.09 1413.97,-29.09 1420.97,-29.09"/>
</a>
</g>
</g>
</g>
</svg>
