<?xml version="1.0" encoding="UTF-8" standalone="no"?>
<!DOCTYPE svg PUBLIC "-//W3C//DTD SVG 1.1//EN"
 "http://www.w3.org/Graphics/SVG/1.1/DTD/svg11.dtd">
<!-- Generated by graphviz version 2.43.0 (0)
 -->
<!-- Title: include/elements/activation_function.h Pages: 1 -->
<svg width="1175pt" height="500pt"
 viewBox="0.00 0.00 1175.00 500.00" xmlns="http://www.w3.org/2000/svg" xmlns:xlink="http://www.w3.org/1999/xlink">
<g id="graph0" class="graph" transform="scale(1 1) rotate(0) translate(4 496)">
<title>include/elements/activation_function.h</title>
<!-- Node1 -->
<g id="Node000001" class="node">
<title>Node1</title>
<g id="a_Node000001"><a xlink:title=" ">
<polygon fill="#999999" stroke="#666666" points="719.5,-492 567.5,-492 567.5,-462 719.5,-462 719.5,-492"/>
<text text-anchor="start" x="575.5" y="-480" font-family="Helvetica,sans-Serif" font-size="10.00">include/elements/activation</text>
<text text-anchor="middle" x="643.5" y="-469" font-family="Helvetica,sans-Serif" font-size="10.00">_function.h</text>
</a>
</g>
</g>
<!-- Node2 -->
<g id="Node000002" class="node">
<title>Node2</title>
<g id="a_Node000002"><a xlink:href="neural__field__parameters_8h.html" target="_top" xlink:title=" ">
<polygon fill="white" stroke="#666666" points="522,-426 365,-426 365,-396 522,-396 522,-426"/>
<text text-anchor="start" x="373" y="-414" font-family="Helvetica,sans-Serif" font-size="10.00">include/element_parameters</text>
<text text-anchor="middle" x="443.5" y="-403" font-family="Helvetica,sans-Serif" font-size="10.00">/neural_field_parameters.h</text>
</a>
</g>
</g>
<!-- Node1&#45;&gt;Node2 -->
<g id="edge1_Node000001_Node000002" class="edge">
<title>Node1&#45;&gt;Node2</title>
<g id="a_edge1_Node000001_Node000002"><a xlink:title=" ">
<path fill="none" stroke="#63b8ff" d="M589.93,-458.86C557.81,-448.58 517.49,-435.68 487.29,-426.01"/>
<polygon fill="#63b8ff" stroke="#63b8ff" points="589.02,-462.24 599.61,-461.95 591.15,-455.57 589.02,-462.24"/>
</a>
</g>
</g>
<!-- Node4 -->
<g id="Node000004" class="node">
<title>Node4</title>
<g id="a_Node000004"><a xlink:href="neural__field_8h.html" target="_top" xlink:title=" ">
<polygon fill="white" stroke="#666666" points="710.5,-426 576.5,-426 576.5,-396 710.5,-396 710.5,-426"/>
<text text-anchor="start" x="584.5" y="-414" font-family="Helvetica,sans-Serif" font-size="10.00">include/elements/neural</text>
<text text-anchor="middle" x="643.5" y="-403" font-family="Helvetica,sans-Serif" font-size="10.00">_field.h</text>
</a>
</g>
</g>
<!-- Node1&#45;&gt;Node4 -->
<g id="edge3_Node000001_Node000004" class="edge">
<title>Node1&#45;&gt;Node4</title>
<g id="a_edge3_Node000001_Node000004"><a xlink:title=" ">
<path fill="none" stroke="#63b8ff" d="M643.5,-451.54C643.5,-442.96 643.5,-433.61 643.5,-426.16"/>
<polygon fill="#63b8ff" stroke="#63b8ff" points="640,-451.8 643.5,-461.8 647,-451.8 640,-451.8"/>
</a>
</g>
</g>
<!-- Node27 -->
<g id="Node000027" class="node">
<title>Node27</title>
<g id="a_Node000027"><a xlink:href="activation__function_8cpp.html" target="_top" xlink:title=" ">
<polygon fill="white" stroke="#666666" points="860,-426 729,-426 729,-396 860,-396 860,-426"/>
<text text-anchor="start" x="737" y="-414" font-family="Helvetica,sans-Serif" font-size="10.00">src/elements/activation</text>
<text text-anchor="middle" x="794.5" y="-403" font-family="Helvetica,sans-Serif" font-size="10.00">_function.cpp</text>
</a>
</g>
</g>
<!-- Node1&#45;&gt;Node27 -->
<g id="edge36_Node000001_Node000027" class="edge">
<title>Node1&#45;&gt;Node27</title>
<g id="a_edge36_Node000001_Node000027"><a xlink:title=" ">
<path fill="none" stroke="#63b8ff" d="M686.16,-457.92C710.03,-447.8 739.33,-435.38 761.44,-426.01"/>
<polygon fill="#63b8ff" stroke="#63b8ff" points="684.48,-454.83 676.64,-461.95 687.21,-461.28 684.48,-454.83"/>
</a>
</g>
</g>
<!-- Node3 -->
<g id="Node000003" class="node">
<title>Node3</title>
<g id="a_Node000003"><a xlink:href="neural__field__parameters_8cpp.html" target="_top" xlink:title=" ">
<polygon fill="white" stroke="#666666" points="418.5,-360 260.5,-360 260.5,-330 418.5,-330 418.5,-360"/>
<text text-anchor="start" x="268.5" y="-348" font-family="Helvetica,sans-Serif" font-size="10.00">src/element_parameters</text>
<text text-anchor="middle" x="339.5" y="-337" font-family="Helvetica,sans-Serif" font-size="10.00">/neural_field_parameters.cpp</text>
</a>
</g>
</g>
<!-- Node2&#45;&gt;Node3 -->
<g id="edge2_Node000002_Node000003" class="edge">
<title>Node2&#45;&gt;Node3</title>
<g id="a_edge2_Node000002_Node000003"><a xlink:title=" ">
<path fill="none" stroke="#63b8ff" d="M412.13,-390.69C396.07,-380.82 376.89,-369.01 362.27,-360.01"/>
<polygon fill="#63b8ff" stroke="#63b8ff" points="410.33,-393.69 420.68,-395.95 413.99,-387.73 410.33,-393.69"/>
</a>
</g>
</g>
<!-- Node5 -->
<g id="Node000005" class="node">
<title>Node5</title>
<g id="a_Node000005"><a xlink:href="element__factory_8h.html" target="_top" xlink:title=" ">
<polygon fill="white" stroke="#666666" points="319.5,-294 175.5,-294 175.5,-264 319.5,-264 319.5,-294"/>
<text text-anchor="start" x="183.5" y="-282" font-family="Helvetica,sans-Serif" font-size="10.00">include/elements/element</text>
<text text-anchor="middle" x="247.5" y="-271" font-family="Helvetica,sans-Serif" font-size="10.00">_factory.h</text>
</a>
</g>
</g>
<!-- Node4&#45;&gt;Node5 -->
<g id="edge4_Node000004_Node000005" class="edge">
<title>Node4&#45;&gt;Node5</title>
<g id="a_edge4_Node000004_Node000005"><a xlink:title=" ">
<path fill="none" stroke="#63b8ff" d="M572.11,-393.32C541.66,-385.05 506.16,-373.84 475.5,-360 452.57,-349.65 450.52,-340.14 427.5,-330 391.88,-314.32 350.1,-302.35 315.77,-294.06"/>
<polygon fill="#63b8ff" stroke="#63b8ff" points="571.25,-396.71 581.81,-395.9 573.05,-389.94 571.25,-396.71"/>
</a>
</g>
</g>
<!-- Node15 -->
<g id="Node000015" class="node">
<title>Node15</title>
<g id="a_Node000015"><a xlink:href="field__coupling_8h.html" target="_top" xlink:title=" ">
<polygon fill="white" stroke="#666666" points="638,-360 513,-360 513,-330 638,-330 638,-360"/>
<text text-anchor="start" x="521" y="-348" font-family="Helvetica,sans-Serif" font-size="10.00">include/elements/field</text>
<text text-anchor="middle" x="575.5" y="-337" font-family="Helvetica,sans-Serif" font-size="10.00">_coupling.h</text>
</a>
</g>
</g>
<!-- Node4&#45;&gt;Node15 -->
<g id="edge14_Node000004_Node000015" class="edge">
<title>Node4&#45;&gt;Node15</title>
<g id="a_edge14_Node000004_Node000015"><a xlink:title=" ">
<path fill="none" stroke="#63b8ff" d="M621.11,-388.92C611.08,-379.49 599.52,-368.61 590.55,-360.16"/>
<polygon fill="#63b8ff" stroke="#63b8ff" points="618.73,-391.49 628.41,-395.8 623.53,-386.39 618.73,-391.49"/>
</a>
</g>
</g>
<!-- Node16 -->
<g id="Node000016" class="node">
<title>Node16</title>
<g id="a_Node000016"><a xlink:href="simulation__file__manager_8h.html" target="_top" xlink:title=" ">
<polygon fill="white" stroke="#666666" points="531,-294 382,-294 382,-264 531,-264 531,-294"/>
<text text-anchor="start" x="390" y="-282" font-family="Helvetica,sans-Serif" font-size="10.00">include/simulation</text>
<text text-anchor="middle" x="456.5" y="-271" font-family="Helvetica,sans-Serif" font-size="10.00">/simulation_file_manager.h</text>
</a>
</g>
</g>
<!-- Node4&#45;&gt;Node16 -->
<g id="edge29_Node000004_Node000016" class="edge">
<title>Node4&#45;&gt;Node16</title>
<g id="a_edge29_Node000004_Node000016"><a xlink:title=" ">
<path fill="none" stroke="#63b8ff" d="M566.56,-393.13C544.53,-385.63 521.6,-374.98 503.5,-360 482.03,-342.23 468.11,-311.94 461.35,-294.17"/>
<polygon fill="#63b8ff" stroke="#63b8ff" points="565.68,-396.52 576.27,-396.26 567.83,-389.86 565.68,-396.52"/>
</a>
</g>
</g>
<!-- Node19 -->
<g id="Node000019" class="node">
<title>Node19</title>
<g id="a_Node000019"><a xlink:href="element__window_8h.html" target="_top" xlink:title=" ">
<polygon fill="white" stroke="#666666" points="835,-294 710,-294 710,-264 835,-264 835,-294"/>
<text text-anchor="start" x="718" y="-282" font-family="Helvetica,sans-Serif" font-size="10.00">include/user_interface</text>
<text text-anchor="middle" x="772.5" y="-271" font-family="Helvetica,sans-Serif" font-size="10.00">/element_window.h</text>
</a>
</g>
</g>
<!-- Node4&#45;&gt;Node19 -->
<g id="edge30_Node000004_Node000019" class="edge">
<title>Node4&#45;&gt;Node19</title>
<g id="a_edge30_Node000004_Node000019"><a xlink:title=" ">
<path fill="none" stroke="#63b8ff" d="M709.62,-393.01C739.06,-383.98 769.01,-372.23 777.5,-360 791.07,-340.45 784.28,-311.32 778.28,-294.14"/>
<polygon fill="#63b8ff" stroke="#63b8ff" points="708.28,-389.76 699.69,-395.96 710.27,-396.47 708.28,-389.76"/>
</a>
</g>
</g>
<!-- Node20 -->
<g id="Node000020" class="node">
<title>Node20</title>
<g id="a_Node000020"><a xlink:href="node__graph__window_8h.html" target="_top" xlink:title=" ">
<polygon fill="white" stroke="#666666" points="927.5,-228 799.5,-228 799.5,-198 927.5,-198 927.5,-228"/>
<text text-anchor="start" x="807.5" y="-216" font-family="Helvetica,sans-Serif" font-size="10.00">include/user_interface</text>
<text text-anchor="middle" x="863.5" y="-205" font-family="Helvetica,sans-Serif" font-size="10.00">/node_graph_window.h</text>
</a>
</g>
</g>
<!-- Node4&#45;&gt;Node20 -->
<g id="edge34_Node000004_Node000020" class="edge">
<title>Node4&#45;&gt;Node20</title>
<g id="a_edge34_Node000004_Node000020"><a xlink:title=" ">
<path fill="none" stroke="#63b8ff" d="M720.26,-394.8C745.83,-387.22 773.4,-376.11 795.5,-360 824.81,-338.63 828.15,-326.86 843.5,-294 853.68,-272.21 859.11,-244.56 861.64,-228.14"/>
<polygon fill="#63b8ff" stroke="#63b8ff" points="719.24,-391.45 710.57,-397.53 721.14,-398.18 719.24,-391.45"/>
</a>
</g>
</g>
<!-- Node24 -->
<g id="Node000024" class="node">
<title>Node24</title>
<g id="a_Node000024"><a xlink:href="field__metrics__window_8h.html" target="_top" xlink:title=" ">
<polygon fill="white" stroke="#666666" points="1060.5,-360 926.5,-360 926.5,-330 1060.5,-330 1060.5,-360"/>
<text text-anchor="start" x="934.5" y="-348" font-family="Helvetica,sans-Serif" font-size="10.00">include/user_interface</text>
<text text-anchor="middle" x="993.5" y="-337" font-family="Helvetica,sans-Serif" font-size="10.00">/field_metrics_window.h</text>
</a>
</g>
</g>
<!-- Node4&#45;&gt;Node24 -->
<g id="edge31_Node000004_Node000024" class="edge">
<title>Node4&#45;&gt;Node24</title>
<g id="a_edge31_Node000004_Node000024"><a xlink:title=" ">
<path fill="none" stroke="#63b8ff" d="M720.89,-395.75C797.03,-381.79 873.4,-367.87 926.49,-358.2"/>
<polygon fill="#63b8ff" stroke="#63b8ff" points="719.84,-392.38 710.64,-397.63 721.1,-399.27 719.84,-392.38"/>
</a>
</g>
</g>
<!-- Node26 -->
<g id="Node000026" class="node">
<title>Node26</title>
<g id="a_Node000026"><a xlink:href="neural__field_8cpp.html" target="_top" xlink:title=" ">
<polygon fill="white" stroke="#666666" points="769,-360 656,-360 656,-330 769,-330 769,-360"/>
<text text-anchor="start" x="664" y="-348" font-family="Helvetica,sans-Serif" font-size="10.00">src/elements/neural</text>
<text text-anchor="middle" x="712.5" y="-337" font-family="Helvetica,sans-Serif" font-size="10.00">_field.cpp</text>
</a>
</g>
</g>
<!-- Node4&#45;&gt;Node26 -->
<g id="edge35_Node000004_Node000026" class="edge">
<title>Node4&#45;&gt;Node26</title>
<g id="a_edge35_Node000004_Node000026"><a xlink:title=" ">
<path fill="none" stroke="#63b8ff" d="M666.22,-388.92C676.4,-379.49 688.13,-368.61 697.23,-360.16"/>
<polygon fill="#63b8ff" stroke="#63b8ff" points="663.76,-386.43 658.81,-395.8 668.53,-391.56 663.76,-386.43"/>
</a>
</g>
</g>
<!-- Node6 -->
<g id="Node000006" class="node">
<title>Node6</title>
<g id="a_Node000006"><a xlink:href="simulation__window_8h.html" target="_top" xlink:title=" ">
<polygon fill="white" stroke="#666666" points="266,-228 141,-228 141,-198 266,-198 266,-228"/>
<text text-anchor="start" x="149" y="-216" font-family="Helvetica,sans-Serif" font-size="10.00">include/user_interface</text>
<text text-anchor="middle" x="203.5" y="-205" font-family="Helvetica,sans-Serif" font-size="10.00">/simulation_window.h</text>
</a>
</g>
</g>
<!-- Node5&#45;&gt;Node6 -->
<g id="edge5_Node000005_Node000006" class="edge">
<title>Node5&#45;&gt;Node6</title>
<g id="a_edge5_Node000005_Node000006"><a xlink:title=" ">
<path fill="none" stroke="#63b8ff" d="M232.05,-255.53C225.79,-246.43 218.76,-236.19 213.24,-228.16"/>
<polygon fill="#63b8ff" stroke="#63b8ff" points="229.19,-257.54 237.73,-263.8 234.95,-253.57 229.19,-257.54"/>
</a>
</g>
</g>
<!-- Node14 -->
<g id="Node000014" class="node">
<title>Node14</title>
<g id="a_Node000014"><a xlink:href="element__factory_8cpp.html" target="_top" xlink:title=" ">
<polygon fill="white" stroke="#666666" points="123,-228 0,-228 0,-198 123,-198 123,-228"/>
<text text-anchor="start" x="8" y="-216" font-family="Helvetica,sans-Serif" font-size="10.00">src/elements/element</text>
<text text-anchor="middle" x="61.5" y="-205" font-family="Helvetica,sans-Serif" font-size="10.00">_factory.cpp</text>
</a>
</g>
</g>
<!-- Node5&#45;&gt;Node14 -->
<g id="edge13_Node000005_Node000014" class="edge">
<title>Node5&#45;&gt;Node14</title>
<g id="a_edge13_Node000005_Node000014"><a xlink:title=" ">
<path fill="none" stroke="#63b8ff" d="M196.9,-260.59C167.16,-250.36 130.06,-237.59 102.22,-228.01"/>
<polygon fill="#63b8ff" stroke="#63b8ff" points="196.09,-264.01 206.68,-263.95 198.36,-257.39 196.09,-264.01"/>
</a>
</g>
</g>
<!-- Node7 -->
<g id="Node000007" class="node">
<title>Node7</title>
<g id="a_Node000007"><a xlink:href="dynamic-neural-field-composer-dynamic_8h.html" target="_top" xlink:title=" ">
<polygon fill="white" stroke="#666666" points="1029.5,-162 881.5,-162 881.5,-132 1029.5,-132 1029.5,-162"/>
<text text-anchor="start" x="889.5" y="-150" font-family="Helvetica,sans-Serif" font-size="10.00">include/dynamic&#45;neural</text>
<text text-anchor="middle" x="955.5" y="-139" font-family="Helvetica,sans-Serif" font-size="10.00">&#45;field&#45;composer&#45;dynamic.h</text>
</a>
</g>
</g>
<!-- Node6&#45;&gt;Node7 -->
<g id="edge6_Node000006_Node000007" class="edge">
<title>Node6&#45;&gt;Node7</title>
<g id="a_edge6_Node000006_Node000007"><a xlink:title=" ">
<path fill="none" stroke="#63b8ff" d="M276.41,-197.87C539.95,-164.91 610.72,-191.51 871.5,-162 874.73,-161.63 878.03,-161.23 881.36,-160.79"/>
<polygon fill="#63b8ff" stroke="#63b8ff" points="275.63,-194.44 266.15,-199.17 276.51,-201.39 275.63,-194.44"/>
</a>
</g>
</g>
<!-- Node9 -->
<g id="Node000009" class="node">
<title>Node9</title>
<g id="a_Node000009"><a xlink:href="static__layout__window_8h.html" target="_top" xlink:title=" ">
<polygon fill="white" stroke="#666666" points="698.5,-162 564.5,-162 564.5,-132 698.5,-132 698.5,-162"/>
<text text-anchor="start" x="572.5" y="-150" font-family="Helvetica,sans-Serif" font-size="10.00">include/user_interface</text>
<text text-anchor="middle" x="631.5" y="-139" font-family="Helvetica,sans-Serif" font-size="10.00">/static_layout_window.h</text>
</a>
</g>
</g>
<!-- Node6&#45;&gt;Node9 -->
<g id="edge8_Node000006_Node000009" class="edge">
<title>Node6&#45;&gt;Node9</title>
<g id="a_edge8_Node000006_Node000009"><a xlink:title=" ">
<path fill="none" stroke="#63b8ff" d="M276.1,-197.78C382.15,-180.11 494.5,-165.14 564.22,-156.29"/>
<polygon fill="#63b8ff" stroke="#63b8ff" points="275.47,-194.34 266.19,-199.44 276.63,-201.24 275.47,-194.34"/>
</a>
</g>
</g>
<!-- Node13 -->
<g id="Node000013" class="node">
<title>Node13</title>
<g id="a_Node000013"><a xlink:href="simulation__window_8cpp.html" target="_top" xlink:title=" ">
<polygon fill="white" stroke="#666666" points="270.5,-162 136.5,-162 136.5,-132 270.5,-132 270.5,-162"/>
<text text-anchor="start" x="144.5" y="-150" font-family="Helvetica,sans-Serif" font-size="10.00">src/user_interface</text>
<text text-anchor="middle" x="203.5" y="-139" font-family="Helvetica,sans-Serif" font-size="10.00">/simulation_window.cpp</text>
</a>
</g>
</g>
<!-- Node6&#45;&gt;Node13 -->
<g id="edge12_Node000006_Node000013" class="edge">
<title>Node6&#45;&gt;Node13</title>
<g id="a_edge12_Node000006_Node000013"><a xlink:title=" ">
<path fill="none" stroke="#63b8ff" d="M203.5,-187.54C203.5,-178.96 203.5,-169.61 203.5,-162.16"/>
<polygon fill="#63b8ff" stroke="#63b8ff" points="200,-187.8 203.5,-197.8 207,-187.8 200,-187.8"/>
</a>
</g>
</g>
<!-- Node8 -->
<g id="Node000008" class="node">
<title>Node8</title>
<g id="a_Node000008"><a xlink:href="dynamic-neural-field-composer-dynamic_8cpp.html" target="_top" xlink:title=" ">
<polygon fill="white" stroke="#666666" points="1035,-96 876,-96 876,-66 1035,-66 1035,-96"/>
<text text-anchor="start" x="884" y="-84" font-family="Helvetica,sans-Serif" font-size="10.00">src/dynamic&#45;neural</text>
<text text-anchor="middle" x="955.5" y="-73" font-family="Helvetica,sans-Serif" font-size="10.00">&#45;field&#45;composer&#45;dynamic.cpp</text>
</a>
</g>
</g>
<!-- Node7&#45;&gt;Node8 -->
<g id="edge7_Node000007_Node000008" class="edge">
<title>Node7&#45;&gt;Node8</title>
<g id="a_edge7_Node000007_Node000008"><a xlink:title=" ">
<path fill="none" stroke="#63b8ff" d="M955.5,-121.54C955.5,-112.96 955.5,-103.61 955.5,-96.16"/>
<polygon fill="#63b8ff" stroke="#63b8ff" points="952,-121.8 955.5,-131.8 959,-121.8 952,-121.8"/>
</a>
</g>
</g>
<!-- Node10 -->
<g id="Node000010" class="node">
<title>Node10</title>
<g id="a_Node000010"><a xlink:href="dynamic-neural-field-composer-static_8h.html" target="_top" xlink:title=" ">
<polygon fill="white" stroke="#666666" points="618,-96 485,-96 485,-66 618,-66 618,-96"/>
<text text-anchor="start" x="493" y="-84" font-family="Helvetica,sans-Serif" font-size="10.00">include/dynamic&#45;neural</text>
<text text-anchor="middle" x="551.5" y="-73" font-family="Helvetica,sans-Serif" font-size="10.00">&#45;field&#45;composer&#45;static.h</text>
</a>
</g>
</g>
<!-- Node9&#45;&gt;Node10 -->
<g id="edge9_Node000009_Node000010" class="edge">
<title>Node9&#45;&gt;Node10</title>
<g id="a_edge9_Node000009_Node000010"><a xlink:title=" ">
<path fill="none" stroke="#63b8ff" d="M605.85,-125.48C593.89,-115.91 579.97,-104.77 569.2,-96.16"/>
<polygon fill="#63b8ff" stroke="#63b8ff" points="603.75,-128.28 613.75,-131.8 608.12,-122.82 603.75,-128.28"/>
</a>
</g>
</g>
<!-- Node12 -->
<g id="Node000012" class="node">
<title>Node12</title>
<g id="a_Node000012"><a xlink:href="static__layout__window_8cpp.html" target="_top" xlink:title=" ">
<polygon fill="white" stroke="#666666" points="781,-96 636,-96 636,-66 781,-66 781,-96"/>
<text text-anchor="start" x="644" y="-84" font-family="Helvetica,sans-Serif" font-size="10.00">src/user_interface</text>
<text text-anchor="middle" x="708.5" y="-73" font-family="Helvetica,sans-Serif" font-size="10.00">/static_layout_window.cpp</text>
</a>
</g>
</g>
<!-- Node9&#45;&gt;Node12 -->
<g id="edge11_Node000009_Node000012" class="edge">
<title>Node9&#45;&gt;Node12</title>
<g id="a_edge11_Node000009_Node000012"><a xlink:title=" ">
<path fill="none" stroke="#63b8ff" d="M656.52,-125.2C667.95,-115.7 681.2,-104.69 691.46,-96.16"/>
<polygon fill="#63b8ff" stroke="#63b8ff" points="654.04,-122.71 648.59,-131.8 658.52,-128.1 654.04,-122.71"/>
</a>
</g>
</g>
<!-- Node11 -->
<g id="Node000011" class="node">
<title>Node11</title>
<g id="a_Node000011"><a xlink:href="dynamic-neural-field-composer-static_8cpp.html" target="_top" xlink:title=" ">
<polygon fill="white" stroke="#666666" points="623.5,-30 479.5,-30 479.5,0 623.5,0 623.5,-30"/>
<text text-anchor="start" x="487.5" y="-18" font-family="Helvetica,sans-Serif" font-size="10.00">src/dynamic&#45;neural</text>
<text text-anchor="middle" x="551.5" y="-7" font-family="Helvetica,sans-Serif" font-size="10.00">&#45;field&#45;composer&#45;static.cpp</text>
</a>
</g>
</g>
<!-- Node10&#45;&gt;Node11 -->
<g id="edge10_Node000010_Node000011" class="edge">
<title>Node10&#45;&gt;Node11</title>
<g id="a_edge10_Node000010_Node000011"><a xlink:title=" ">
<path fill="none" stroke="#63b8ff" d="M551.5,-55.54C551.5,-46.96 551.5,-37.61 551.5,-30.16"/>
<polygon fill="#63b8ff" stroke="#63b8ff" points="548,-55.8 551.5,-65.8 555,-55.8 548,-55.8"/>
</a>
</g>
</g>
<!-- Node15&#45;&gt;Node5 -->
<g id="edge15_Node000015_Node000005" class="edge">
<title>Node15&#45;&gt;Node5</title>
<g id="a_edge15_Node000015_Node000005"><a xlink:title=" ">
<path fill="none" stroke="#63b8ff" d="M502.69,-329.79C448.06,-319.13 373.64,-304.61 319.27,-294"/>
<polygon fill="#63b8ff" stroke="#63b8ff" points="502.16,-333.26 512.65,-331.74 503.5,-326.39 502.16,-333.26"/>
</a>
</g>
</g>
<!-- Node15&#45;&gt;Node16 -->
<g id="edge16_Node000015_Node000016" class="edge">
<title>Node15&#45;&gt;Node16</title>
<g id="a_edge16_Node000015_Node000016"><a xlink:title=" ">
<path fill="none" stroke="#63b8ff" d="M540.37,-325.11C521.85,-315.14 499.51,-303.13 482.55,-294.01"/>
<polygon fill="#63b8ff" stroke="#63b8ff" points="538.92,-328.3 549.38,-329.95 542.24,-322.14 538.92,-328.3"/>
</a>
</g>
</g>
<!-- Node15&#45;&gt;Node19 -->
<g id="edge19_Node000015_Node000019" class="edge">
<title>Node15&#45;&gt;Node19</title>
<g id="a_edge19_Node000015_Node000019"><a xlink:title=" ">
<path fill="none" stroke="#63b8ff" d="M628.27,-326.86C659.9,-316.58 699.62,-303.68 729.37,-294.01"/>
<polygon fill="#63b8ff" stroke="#63b8ff" points="627.16,-323.54 618.73,-329.95 629.32,-330.19 627.16,-323.54"/>
</a>
</g>
</g>
<!-- Node15&#45;&gt;Node20 -->
<g id="edge27_Node000015_Node000020" class="edge">
<title>Node15&#45;&gt;Node20</title>
<g id="a_edge27_Node000015_Node000020"><a xlink:title=" ">
<path fill="none" stroke="#63b8ff" d="M611.41,-324.92C627.38,-316.04 646.22,-305.02 662.5,-294 680.32,-281.94 681.44,-273.99 700.5,-264 731.43,-247.78 768.48,-235.89 799.44,-227.78"/>
<polygon fill="#63b8ff" stroke="#63b8ff" points="609.46,-322 602.38,-329.88 612.83,-328.13 609.46,-322"/>
</a>
</g>
</g>
<!-- Node23 -->
<g id="Node000023" class="node">
<title>Node23</title>
<g id="a_Node000023"><a xlink:href="field__coupling_8cpp.html" target="_top" xlink:title=" ">
<polygon fill="white" stroke="#666666" points="653.5,-294 549.5,-294 549.5,-264 653.5,-264 653.5,-294"/>
<text text-anchor="start" x="557.5" y="-282" font-family="Helvetica,sans-Serif" font-size="10.00">src/elements/field</text>
<text text-anchor="middle" x="601.5" y="-271" font-family="Helvetica,sans-Serif" font-size="10.00">_coupling.cpp</text>
</a>
</g>
</g>
<!-- Node15&#45;&gt;Node23 -->
<g id="edge28_Node000015_Node000023" class="edge">
<title>Node15&#45;&gt;Node23</title>
<g id="a_edge28_Node000015_Node000023"><a xlink:title=" ">
<path fill="none" stroke="#63b8ff" d="M585.09,-320.39C588.67,-311.59 592.62,-301.86 595.75,-294.16"/>
<polygon fill="#63b8ff" stroke="#63b8ff" points="581.79,-319.21 581.27,-329.8 588.28,-321.85 581.79,-319.21"/>
</a>
</g>
</g>
<!-- Node17 -->
<g id="Node000017" class="node">
<title>Node17</title>
<g id="a_Node000017"><a xlink:href="simulation_8cpp.html" target="_top" xlink:title=" ">
<polygon fill="white" stroke="#666666" points="445,-222.5 284,-222.5 284,-203.5 445,-203.5 445,-222.5"/>
<text text-anchor="middle" x="364.5" y="-210.5" font-family="Helvetica,sans-Serif" font-size="10.00">src/simulation/simulation.cpp</text>
</a>
</g>
</g>
<!-- Node16&#45;&gt;Node17 -->
<g id="edge17_Node000016_Node000017" class="edge">
<title>Node16&#45;&gt;Node17</title>
<g id="a_edge17_Node000016_Node000017"><a xlink:title=" ">
<path fill="none" stroke="#63b8ff" d="M427.57,-257.87C410.54,-246.03 389.87,-231.65 376.95,-222.66"/>
<polygon fill="#63b8ff" stroke="#63b8ff" points="425.87,-260.96 436.08,-263.8 429.87,-255.21 425.87,-260.96"/>
</a>
</g>
</g>
<!-- Node18 -->
<g id="Node000018" class="node">
<title>Node18</title>
<g id="a_Node000018"><a xlink:href="simulation__file__manager_8cpp.html" target="_top" xlink:title=" ">
<polygon fill="white" stroke="#666666" points="603.5,-228 463.5,-228 463.5,-198 603.5,-198 603.5,-228"/>
<text text-anchor="start" x="471.5" y="-216" font-family="Helvetica,sans-Serif" font-size="10.00">src/simulation/simulation</text>
<text text-anchor="middle" x="533.5" y="-205" font-family="Helvetica,sans-Serif" font-size="10.00">_file_manager.cpp</text>
</a>
</g>
</g>
<!-- Node16&#45;&gt;Node18 -->
<g id="edge18_Node000016_Node000018" class="edge">
<title>Node16&#45;&gt;Node18</title>
<g id="a_edge18_Node000016_Node000018"><a xlink:title=" ">
<path fill="none" stroke="#63b8ff" d="M481.52,-257.2C492.95,-247.7 506.2,-236.69 516.46,-228.16"/>
<polygon fill="#63b8ff" stroke="#63b8ff" points="479.04,-254.71 473.59,-263.8 483.52,-260.1 479.04,-254.71"/>
</a>
</g>
</g>
<!-- Node19&#45;&gt;Node7 -->
<g id="edge20_Node000019_Node000007" class="edge">
<title>Node19&#45;&gt;Node7</title>
<g id="a_edge20_Node000019_Node000007"><a xlink:title=" ">
<path fill="none" stroke="#63b8ff" d="M845.58,-271.92C877.56,-265.59 913.06,-252.96 936.5,-228 953.41,-210 956.14,-179.79 956.13,-162.1"/>
<polygon fill="#63b8ff" stroke="#63b8ff" points="844.56,-268.55 835.34,-273.76 845.8,-275.44 844.56,-268.55"/>
</a>
</g>
</g>
<!-- Node19&#45;&gt;Node9 -->
<g id="edge25_Node000019_Node000009" class="edge">
<title>Node19&#45;&gt;Node9</title>
<g id="a_edge25_Node000019_Node000009"><a xlink:title=" ">
<path fill="none" stroke="#63b8ff" d="M700.55,-261.36C681.97,-253.92 663.55,-243.25 650.5,-228 634.54,-209.34 631.45,-179.64 631.14,-162.16"/>
<polygon fill="#63b8ff" stroke="#63b8ff" points="699.37,-264.66 709.96,-264.86 701.81,-258.09 699.37,-264.66"/>
</a>
</g>
</g>
<!-- Node19&#45;&gt;Node20 -->
<g id="edge21_Node000019_Node000020" class="edge">
<title>Node19&#45;&gt;Node20</title>
<g id="a_edge21_Node000019_Node000020"><a xlink:title=" ">
<path fill="none" stroke="#63b8ff" d="M800.9,-258.03C814.67,-248.34 830.88,-236.94 843.36,-228.16"/>
<polygon fill="#63b8ff" stroke="#63b8ff" points="798.86,-255.18 792.7,-263.8 802.89,-260.91 798.86,-255.18"/>
</a>
</g>
</g>
<!-- Node22 -->
<g id="Node000022" class="node">
<title>Node22</title>
<g id="a_Node000022"><a xlink:href="element__window_8cpp.html" target="_top" xlink:title=" ">
<polygon fill="white" stroke="#666666" points="781.5,-228 659.5,-228 659.5,-198 781.5,-198 781.5,-228"/>
<text text-anchor="start" x="667.5" y="-216" font-family="Helvetica,sans-Serif" font-size="10.00">src/user_interface</text>
<text text-anchor="middle" x="720.5" y="-205" font-family="Helvetica,sans-Serif" font-size="10.00">/element_window.cpp</text>
</a>
</g>
</g>
<!-- Node19&#45;&gt;Node22 -->
<g id="edge26_Node000019_Node000022" class="edge">
<title>Node19&#45;&gt;Node22</title>
<g id="a_edge26_Node000019_Node000022"><a xlink:title=" ">
<path fill="none" stroke="#63b8ff" d="M754.47,-255.81C747.02,-246.64 738.6,-236.28 732.01,-228.16"/>
<polygon fill="#63b8ff" stroke="#63b8ff" points="751.94,-258.24 760.96,-263.8 757.37,-253.83 751.94,-258.24"/>
</a>
</g>
</g>
<!-- Node20&#45;&gt;Node7 -->
<g id="edge22_Node000020_Node000007" class="edge">
<title>Node20&#45;&gt;Node7</title>
<g id="a_edge22_Node000020_Node000007"><a xlink:title=" ">
<path fill="none" stroke="#63b8ff" d="M892.21,-192.03C906.13,-182.34 922.53,-170.94 935.14,-162.16"/>
<polygon fill="#63b8ff" stroke="#63b8ff" points="890.13,-189.21 883.92,-197.8 894.13,-194.96 890.13,-189.21"/>
</a>
</g>
</g>
<!-- Node20&#45;&gt;Node9 -->
<g id="edge23_Node000020_Node000009" class="edge">
<title>Node20&#45;&gt;Node9</title>
<g id="a_edge23_Node000020_Node000009"><a xlink:title=" ">
<path fill="none" stroke="#63b8ff" d="M802.79,-195.25C765.31,-184.91 717.78,-171.8 682.29,-162.01"/>
<polygon fill="#63b8ff" stroke="#63b8ff" points="802.02,-198.67 812.59,-197.95 803.88,-191.92 802.02,-198.67"/>
</a>
</g>
</g>
<!-- Node21 -->
<g id="Node000021" class="node">
<title>Node21</title>
<g id="a_Node000021"><a xlink:href="node__graph__window_8cpp.html" target="_top" xlink:title=" ">
<polygon fill="white" stroke="#666666" points="863,-162 724,-162 724,-132 863,-132 863,-162"/>
<text text-anchor="start" x="732" y="-150" font-family="Helvetica,sans-Serif" font-size="10.00">src/user_interface</text>
<text text-anchor="middle" x="793.5" y="-139" font-family="Helvetica,sans-Serif" font-size="10.00">/node_graph_window.cpp</text>
</a>
</g>
</g>
<!-- Node20&#45;&gt;Node21 -->
<g id="edge24_Node000020_Node000021" class="edge">
<title>Node20&#45;&gt;Node21</title>
<g id="a_edge24_Node000020_Node000021"><a xlink:title=" ">
<path fill="none" stroke="#63b8ff" d="M840.45,-190.92C830.13,-181.49 818.23,-170.61 808.99,-162.16"/>
<polygon fill="#63b8ff" stroke="#63b8ff" points="838.22,-193.63 847.96,-197.8 842.95,-188.47 838.22,-193.63"/>
</a>
</g>
</g>
<!-- Node24&#45;&gt;Node7 -->
<g id="edge32_Node000024_Node000007" class="edge">
<title>Node24&#45;&gt;Node7</title>
<g id="a_edge32_Node000024_Node000007"><a xlink:title=" ">
<path fill="none" stroke="#63b8ff" d="M988.83,-319.89C980.82,-278.58 964.71,-195.48 958.26,-162.23"/>
<polygon fill="#63b8ff" stroke="#63b8ff" points="985.43,-320.75 990.77,-329.9 992.3,-319.42 985.43,-320.75"/>
</a>
</g>
</g>
<!-- Node25 -->
<g id="Node000025" class="node">
<title>Node25</title>
<g id="a_Node000025"><a xlink:href="field__metrics__window_8cpp.html" target="_top" xlink:title=" ">
<polygon fill="white" stroke="#666666" points="1167,-294 1022,-294 1022,-264 1167,-264 1167,-294"/>
<text text-anchor="start" x="1030" y="-282" font-family="Helvetica,sans-Serif" font-size="10.00">src/user_interface</text>
<text text-anchor="middle" x="1094.5" y="-271" font-family="Helvetica,sans-Serif" font-size="10.00">/field_metrics_window.cpp</text>
</a>
</g>
</g>
<!-- Node24&#45;&gt;Node25 -->
<g id="edge33_Node000024_Node000025" class="edge">
<title>Node24&#45;&gt;Node25</title>
<g id="a_edge33_Node000024_Node000025"><a xlink:title=" ">
<path fill="none" stroke="#63b8ff" d="M1024.59,-324.3C1039.96,-314.56 1058.17,-303.02 1072.15,-294.16"/>
<polygon fill="#63b8ff" stroke="#63b8ff" points="1022.49,-321.49 1015.92,-329.8 1026.24,-327.4 1022.49,-321.49"/>
</a>
</g>
</g>
</g>
</svg>
