<?xml version="1.0" encoding="UTF-8" standalone="no"?>
<!DOCTYPE svg PUBLIC "-//W3C//DTD SVG 1.1//EN"
 "http://www.w3.org/Graphics/SVG/1.1/DTD/svg11.dtd">
<!-- Generated by graphviz version 2.43.0 (0)
 -->
<!-- Title: src/elements/activation_function.cpp Pages: 1 -->
<svg width="1123pt" height="280pt"
 viewBox="0.00 0.00 1122.62 280.00" xmlns="http://www.w3.org/2000/svg" xmlns:xlink="http://www.w3.org/1999/xlink">
<g id="graph0" class="graph" transform="scale(1 1) rotate(0) translate(4 276)">
<title>src/elements/activation_function.cpp</title>
<!-- Node1 -->
<g id="Node000001" class="node">
<title>Node1</title>
<g id="a_Node000001"><a xlink:title=" ">
<polygon fill="#999999" stroke="#666666" points="402.62,-272 271.62,-272 271.62,-242 402.62,-242 402.62,-272"/>
<text text-anchor="start" x="279.62" y="-260" font-family="Helvetica,sans-Serif" font-size="10.00">src/elements/activation</text>
<text text-anchor="middle" x="337.12" y="-249" font-family="Helvetica,sans-Serif" font-size="10.00">_function.cpp</text>
</a>
</g>
</g>
<!-- Node2 -->
<g id="Node000002" class="node">
<title>Node2</title>
<g id="a_Node000002"><a xlink:href="activation__function_8h.html" target="_top" xlink:title=" ">
<polygon fill="white" stroke="#666666" points="394.12,-206 280.12,-206 280.12,-176 394.12,-176 394.12,-206"/>
<text text-anchor="start" x="288.12" y="-194" font-family="Helvetica,sans-Serif" font-size="10.00">elements/activation</text>
<text text-anchor="middle" x="337.12" y="-183" font-family="Helvetica,sans-Serif" font-size="10.00">_function.h</text>
</a>
</g>
</g>
<!-- Node1&#45;&gt;Node2 -->
<g id="edge1_Node000001_Node000002" class="edge">
<title>Node1&#45;&gt;Node2</title>
<g id="a_edge1_Node000001_Node000002"><a xlink:title=" ">
<path fill="none" stroke="#63b8ff" d="M337.12,-241.8C337.12,-234.34 337.12,-224.99 337.12,-216.41"/>
<polygon fill="#63b8ff" stroke="#63b8ff" points="340.62,-216.16 337.12,-206.16 333.62,-216.16 340.62,-216.16"/>
</a>
</g>
</g>
<!-- Node3 -->
<g id="Node000003" class="node">
<title>Node3</title>
<g id="a_Node000003"><a xlink:title=" ">
<polygon fill="#e0e0e0" stroke="#999999" points="221.12,-19 177.12,-19 177.12,0 221.12,0 221.12,-19"/>
<text text-anchor="middle" x="199.12" y="-7" font-family="Helvetica,sans-Serif" font-size="10.00">string</text>
</a>
</g>
</g>
<!-- Node2&#45;&gt;Node3 -->
<g id="edge2_Node000002_Node000003" class="edge">
<title>Node2&#45;&gt;Node3</title>
<g id="a_edge2_Node000002_Node000003"><a xlink:title=" ">
<path fill="none" stroke="#63b8ff" d="M280.02,-180.18C194.27,-164.14 38.74,-129.58 6.12,-85 -1.76,-74.24 -2.18,-65.43 6.12,-55 16.13,-42.41 114.61,-24.45 166.89,-15.7"/>
<polygon fill="#63b8ff" stroke="#63b8ff" points="167.7,-19.11 176.99,-14.03 166.55,-12.21 167.7,-19.11"/>
</a>
</g>
</g>
<!-- Node4 -->
<g id="Node000004" class="node">
<title>Node4</title>
<g id="a_Node000004"><a xlink:href="logger_8h.html" target="_top" xlink:title=" ">
<polygon fill="white" stroke="#666666" points="378.62,-140 295.62,-140 295.62,-121 378.62,-121 378.62,-140"/>
<text text-anchor="middle" x="337.12" y="-128" font-family="Helvetica,sans-Serif" font-size="10.00">tools/logger.h</text>
</a>
</g>
</g>
<!-- Node2&#45;&gt;Node4 -->
<g id="edge3_Node000002_Node000004" class="edge">
<title>Node2&#45;&gt;Node4</title>
<g id="a_edge3_Node000002_Node000004"><a xlink:title=" ">
<path fill="none" stroke="#63b8ff" d="M337.12,-175.84C337.12,-168.21 337.12,-158.7 337.12,-150.45"/>
<polygon fill="#63b8ff" stroke="#63b8ff" points="340.62,-150.27 337.12,-140.27 333.62,-150.27 340.62,-150.27"/>
</a>
</g>
</g>
<!-- Node17 -->
<g id="Node000017" class="node">
<title>Node17</title>
<g id="a_Node000017"><a xlink:href="math_8h.html" target="_top" xlink:title=" ">
<polygon fill="white" stroke="#666666" points="782.12,-79.5 704.12,-79.5 704.12,-60.5 782.12,-60.5 782.12,-79.5"/>
<text text-anchor="middle" x="743.12" y="-67.5" font-family="Helvetica,sans-Serif" font-size="10.00">tools/math.h</text>
</a>
</g>
</g>
<!-- Node2&#45;&gt;Node17 -->
<g id="edge20_Node000002_Node000017" class="edge">
<title>Node2&#45;&gt;Node17</title>
<g id="a_edge20_Node000002_Node000017"><a xlink:title=" ">
<path fill="none" stroke="#63b8ff" d="M384.89,-176C466.07,-152.2 629.4,-104.33 704.16,-82.42"/>
<polygon fill="#63b8ff" stroke="#63b8ff" points="705.49,-85.68 714.1,-79.51 703.52,-78.96 705.49,-85.68"/>
</a>
</g>
</g>
<!-- Node4&#45;&gt;Node3 -->
<g id="edge5_Node000004_Node000003" class="edge">
<title>Node4&#45;&gt;Node3</title>
<g id="a_edge5_Node000004_Node000003"><a xlink:title=" ">
<path fill="none" stroke="#63b8ff" d="M332.11,-120.75C323.19,-105.78 303.34,-74.96 280.12,-55 265.01,-42.01 245.49,-31.15 229.4,-23.41"/>
<polygon fill="#63b8ff" stroke="#63b8ff" points="230.44,-20.03 219.89,-19 227.49,-26.38 230.44,-20.03"/>
</a>
</g>
</g>
<!-- Node5 -->
<g id="Node000005" class="node">
<title>Node5</title>
<g id="a_Node000005"><a xlink:title=" ">
<polygon fill="#e0e0e0" stroke="#999999" points="425.12,-79.5 365.12,-79.5 365.12,-60.5 425.12,-60.5 425.12,-79.5"/>
<text text-anchor="middle" x="395.12" y="-67.5" font-family="Helvetica,sans-Serif" font-size="10.00">iostream</text>
</a>
</g>
</g>
<!-- Node4&#45;&gt;Node5 -->
<g id="edge4_Node000004_Node000005" class="edge">
<title>Node4&#45;&gt;Node5</title>
<g id="a_edge4_Node000004_Node000005"><a xlink:title=" ">
<path fill="none" stroke="#63b8ff" d="M345.68,-120.87C354.5,-111.97 368.46,-97.89 379.3,-86.95"/>
<polygon fill="#63b8ff" stroke="#63b8ff" points="381.97,-89.23 386.53,-79.67 377,-84.3 381.97,-89.23"/>
</a>
</g>
</g>
<!-- Node6 -->
<g id="Node000006" class="node">
<title>Node6</title>
<g id="a_Node000006"><a xlink:title=" ">
<polygon fill="#e0e0e0" stroke="#999999" points="300.12,-19 250.12,-19 250.12,0 300.12,0 300.12,-19"/>
<text text-anchor="middle" x="275.12" y="-7" font-family="Helvetica,sans-Serif" font-size="10.00">chrono</text>
</a>
</g>
</g>
<!-- Node4&#45;&gt;Node6 -->
<g id="edge6_Node000004_Node000006" class="edge">
<title>Node4&#45;&gt;Node6</title>
<g id="a_edge6_Node000004_Node000006"><a xlink:title=" ">
<path fill="none" stroke="#63b8ff" d="M335.48,-120.79C332.53,-106.4 325.44,-77.07 313.12,-55 307.33,-44.62 298.89,-34.43 291.44,-26.43"/>
<polygon fill="#63b8ff" stroke="#63b8ff" points="293.92,-23.97 284.45,-19.23 288.9,-28.84 293.92,-23.97"/>
</a>
</g>
</g>
<!-- Node7 -->
<g id="Node000007" class="node">
<title>Node7</title>
<g id="a_Node000007"><a xlink:title=" ">
<polygon fill="#e0e0e0" stroke="#999999" points="565.12,-79.5 509.12,-79.5 509.12,-60.5 565.12,-60.5 565.12,-79.5"/>
<text text-anchor="middle" x="537.12" y="-67.5" font-family="Helvetica,sans-Serif" font-size="10.00">iomanip</text>
</a>
</g>
</g>
<!-- Node4&#45;&gt;Node7 -->
<g id="edge7_Node000004_Node000007" class="edge">
<title>Node4&#45;&gt;Node7</title>
<g id="a_edge7_Node000004_Node000007"><a xlink:title=" ">
<path fill="none" stroke="#63b8ff" d="M372.06,-120.99C405.26,-112.66 456.46,-99.18 500.12,-85 501.98,-84.4 503.89,-83.75 505.8,-83.09"/>
<polygon fill="#63b8ff" stroke="#63b8ff" points="507.12,-86.33 515.33,-79.64 504.73,-79.75 507.12,-86.33"/>
</a>
</g>
</g>
<!-- Node8 -->
<g id="Node000008" class="node">
<title>Node8</title>
<g id="a_Node000008"><a xlink:title=" ">
<polygon fill="#e0e0e0" stroke="#999999" points="270.62,-85 163.62,-85 163.62,-55 270.62,-55 270.62,-85"/>
<text text-anchor="start" x="171.62" y="-73" font-family="Helvetica,sans-Serif" font-size="10.00">imgui&#45;platform&#45;kit</text>
<text text-anchor="middle" x="217.12" y="-62" font-family="Helvetica,sans-Serif" font-size="10.00">/log_window.h</text>
</a>
</g>
</g>
<!-- Node4&#45;&gt;Node8 -->
<g id="edge8_Node000004_Node000008" class="edge">
<title>Node4&#45;&gt;Node8</title>
<g id="a_edge8_Node000004_Node000008"><a xlink:title=" ">
<path fill="none" stroke="#63b8ff" d="M319.67,-120.99C302.91,-112.82 277.02,-100.2 255.45,-89.69"/>
<polygon fill="#63b8ff" stroke="#63b8ff" points="256.72,-86.41 246.2,-85.18 253.66,-92.71 256.72,-86.41"/>
</a>
</g>
</g>
<!-- Node9 -->
<g id="Node000009" class="node">
<title>Node9</title>
<g id="a_Node000009"><a xlink:href="exception_8h.html" target="_top" xlink:title=" ">
<polygon fill="white" stroke="#666666" points="145.12,-79.5 15.12,-79.5 15.12,-60.5 145.12,-60.5 145.12,-79.5"/>
<text text-anchor="middle" x="80.12" y="-67.5" font-family="Helvetica,sans-Serif" font-size="10.00">exceptions/exception.h</text>
</a>
</g>
</g>
<!-- Node4&#45;&gt;Node9 -->
<g id="edge9_Node000004_Node000009" class="edge">
<title>Node4&#45;&gt;Node9</title>
<g id="a_edge9_Node000004_Node000009"><a xlink:title=" ">
<path fill="none" stroke="#63b8ff" d="M299.75,-120.99C254.16,-110.62 177.06,-93.07 127.39,-81.76"/>
<polygon fill="#63b8ff" stroke="#63b8ff" points="128.06,-78.32 117.53,-79.52 126.51,-85.15 128.06,-78.32"/>
</a>
</g>
</g>
<!-- Node11 -->
<g id="Node000011" class="node">
<title>Node11</title>
<g id="a_Node000011"><a xlink:href="utils_8h.html" target="_top" xlink:title=" ">
<polygon fill="white" stroke="#666666" points="490.62,-79.5 443.62,-79.5 443.62,-60.5 490.62,-60.5 490.62,-79.5"/>
<text text-anchor="middle" x="467.12" y="-67.5" font-family="Helvetica,sans-Serif" font-size="10.00">utils.h</text>
</a>
</g>
</g>
<!-- Node4&#45;&gt;Node11 -->
<g id="edge12_Node000004_Node000011" class="edge">
<title>Node4&#45;&gt;Node11</title>
<g id="a_edge12_Node000004_Node000011"><a xlink:title=" ">
<path fill="none" stroke="#63b8ff" d="M356.02,-120.99C377.78,-111.2 413.74,-95.02 438.83,-83.73"/>
<polygon fill="#63b8ff" stroke="#63b8ff" points="440.51,-86.81 448.19,-79.52 437.64,-80.43 440.51,-86.81"/>
</a>
</g>
</g>
<!-- Node9&#45;&gt;Node3 -->
<g id="edge11_Node000009_Node000003" class="edge">
<title>Node9&#45;&gt;Node3</title>
<g id="a_edge11_Node000009_Node000003"><a xlink:title=" ">
<path fill="none" stroke="#63b8ff" d="M97.42,-60.49C117.16,-50.79 149.67,-34.81 172.61,-23.53"/>
<polygon fill="#63b8ff" stroke="#63b8ff" points="174.36,-26.57 181.8,-19.02 171.28,-20.29 174.36,-26.57"/>
</a>
</g>
</g>
<!-- Node10 -->
<g id="Node000010" class="node">
<title>Node10</title>
<g id="a_Node000010"><a xlink:title=" ">
<polygon fill="#e0e0e0" stroke="#999999" points="112.62,-19 47.62,-19 47.62,0 112.62,0 112.62,-19"/>
<text text-anchor="middle" x="80.12" y="-7" font-family="Helvetica,sans-Serif" font-size="10.00">exception</text>
</a>
</g>
</g>
<!-- Node9&#45;&gt;Node10 -->
<g id="edge10_Node000009_Node000010" class="edge">
<title>Node9&#45;&gt;Node10</title>
<g id="a_edge10_Node000009_Node000010"><a xlink:title=" ">
<path fill="none" stroke="#63b8ff" d="M80.12,-60.37C80.12,-52.25 80.12,-39.81 80.12,-29.39"/>
<polygon fill="#63b8ff" stroke="#63b8ff" points="83.62,-29.17 80.12,-19.17 76.62,-29.17 83.62,-29.17"/>
</a>
</g>
</g>
<!-- Node11&#45;&gt;Node3 -->
<g id="edge13_Node000011_Node000003" class="edge">
<title>Node11&#45;&gt;Node3</title>
<g id="a_edge13_Node000011_Node000003"><a xlink:title=" ">
<path fill="none" stroke="#63b8ff" d="M448.88,-60.43C444.15,-58.44 439.01,-56.47 434.12,-55 350.58,-29.81 326.77,-35.65 241.12,-19 237.91,-18.38 234.56,-17.71 231.21,-17.05"/>
<polygon fill="#63b8ff" stroke="#63b8ff" points="231.83,-13.6 221.34,-15.06 230.45,-20.47 231.83,-13.6"/>
</a>
</g>
</g>
<!-- Node11&#45;&gt;Node6 -->
<g id="edge18_Node000011_Node000006" class="edge">
<title>Node11&#45;&gt;Node6</title>
<g id="a_edge18_Node000011_Node000006"><a xlink:title=" ">
<path fill="none" stroke="#63b8ff" d="M448.09,-60.44C443.55,-58.53 438.7,-56.61 434.12,-55 411.29,-47 349.43,-30.2 309.94,-19.69"/>
<polygon fill="#63b8ff" stroke="#63b8ff" points="310.75,-16.28 300.18,-17.09 308.95,-23.04 310.75,-16.28"/>
</a>
</g>
</g>
<!-- Node12 -->
<g id="Node000012" class="node">
<title>Node12</title>
<g id="a_Node000012"><a xlink:title=" ">
<polygon fill="#e0e0e0" stroke="#999999" points="525.62,-19 478.62,-19 478.62,0 525.62,0 525.62,-19"/>
<text text-anchor="middle" x="502.12" y="-7" font-family="Helvetica,sans-Serif" font-size="10.00">vector</text>
</a>
</g>
</g>
<!-- Node11&#45;&gt;Node12 -->
<g id="edge14_Node000011_Node000012" class="edge">
<title>Node11&#45;&gt;Node12</title>
<g id="a_edge14_Node000011_Node000012"><a xlink:title=" ">
<path fill="none" stroke="#63b8ff" d="M472.28,-60.37C477.35,-51.9 485.22,-38.74 491.61,-28.07"/>
<polygon fill="#63b8ff" stroke="#63b8ff" points="494.8,-29.55 496.93,-19.17 488.8,-25.95 494.8,-29.55"/>
</a>
</g>
</g>
<!-- Node13 -->
<g id="Node000013" class="node">
<title>Node13</title>
<g id="a_Node000013"><a xlink:title=" ">
<polygon fill="#e0e0e0" stroke="#999999" points="598.12,-19 544.12,-19 544.12,0 598.12,0 598.12,-19"/>
<text text-anchor="middle" x="571.12" y="-7" font-family="Helvetica,sans-Serif" font-size="10.00">random</text>
</a>
</g>
</g>
<!-- Node11&#45;&gt;Node13 -->
<g id="edge15_Node000011_Node000013" class="edge">
<title>Node11&#45;&gt;Node13</title>
<g id="a_edge15_Node000011_Node000013"><a xlink:title=" ">
<path fill="none" stroke="#63b8ff" d="M482.47,-60.37C499.44,-50.82 527.02,-35.31 546.91,-24.12"/>
<polygon fill="#63b8ff" stroke="#63b8ff" points="548.71,-27.12 555.71,-19.17 545.28,-21.02 548.71,-27.12"/>
</a>
</g>
</g>
<!-- Node14 -->
<g id="Node000014" class="node">
<title>Node14</title>
<g id="a_Node000014"><a xlink:title=" ">
<polygon fill="#e0e0e0" stroke="#999999" points="460.12,-19 404.12,-19 404.12,0 460.12,0 460.12,-19"/>
<text text-anchor="middle" x="432.12" y="-7" font-family="Helvetica,sans-Serif" font-size="10.00">sstream</text>
</a>
</g>
</g>
<!-- Node11&#45;&gt;Node14 -->
<g id="edge16_Node000011_Node000014" class="edge">
<title>Node11&#45;&gt;Node14</title>
<g id="a_edge16_Node000011_Node000014"><a xlink:title=" ">
<path fill="none" stroke="#63b8ff" d="M461.96,-60.37C456.89,-51.9 449.02,-38.74 442.63,-28.07"/>
<polygon fill="#63b8ff" stroke="#63b8ff" points="445.44,-25.95 437.31,-19.17 439.44,-29.55 445.44,-25.95"/>
</a>
</g>
</g>
<!-- Node15 -->
<g id="Node000015" class="node">
<title>Node15</title>
<g id="a_Node000015"><a xlink:title=" ">
<polygon fill="#e0e0e0" stroke="#999999" points="671.62,-19 616.62,-19 616.62,0 671.62,0 671.62,-19"/>
<text text-anchor="middle" x="644.12" y="-7" font-family="Helvetica,sans-Serif" font-size="10.00">fstream</text>
</a>
</g>
</g>
<!-- Node11&#45;&gt;Node15 -->
<g id="edge17_Node000011_Node000015" class="edge">
<title>Node11&#45;&gt;Node15</title>
<g id="a_edge17_Node000011_Node000015"><a xlink:title=" ">
<path fill="none" stroke="#63b8ff" d="M486.53,-60.38C490.96,-58.52 495.68,-56.62 500.12,-55 535.84,-41.94 577.43,-29.36 606.7,-20.93"/>
<polygon fill="#63b8ff" stroke="#63b8ff" points="607.85,-24.24 616.51,-18.13 605.93,-17.51 607.85,-24.24"/>
</a>
</g>
</g>
<!-- Node16 -->
<g id="Node000016" class="node">
<title>Node16</title>
<g id="a_Node000016"><a xlink:title=" ">
<polygon fill="#e0e0e0" stroke="#999999" points="386.12,-19 318.12,-19 318.12,0 386.12,0 386.12,-19"/>
<text text-anchor="middle" x="352.12" y="-7" font-family="Helvetica,sans-Serif" font-size="10.00">filesystem</text>
</a>
</g>
</g>
<!-- Node11&#45;&gt;Node16 -->
<g id="edge19_Node000011_Node000016" class="edge">
<title>Node11&#45;&gt;Node16</title>
<g id="a_edge19_Node000011_Node000016"><a xlink:title=" ">
<path fill="none" stroke="#63b8ff" d="M450.15,-60.37C431.21,-50.73 400.33,-35.03 378.29,-23.81"/>
<polygon fill="#63b8ff" stroke="#63b8ff" points="379.66,-20.58 369.16,-19.17 376.48,-26.82 379.66,-20.58"/>
</a>
</g>
</g>
<!-- Node17&#45;&gt;Node12 -->
<g id="edge21_Node000017_Node000012" class="edge">
<title>Node17&#45;&gt;Node12</title>
<g id="a_edge21_Node000017_Node000012"><a xlink:title=" ">
<path fill="none" stroke="#63b8ff" d="M706.63,-60.42C667.01,-51.06 601.62,-35.49 535.64,-19.1"/>
<polygon fill="#63b8ff" stroke="#63b8ff" points="536.45,-15.69 525.9,-16.67 534.76,-22.49 536.45,-15.69"/>
</a>
</g>
</g>
<!-- Node17&#45;&gt;Node13 -->
<g id="edge28_Node000017_Node000013" class="edge">
<title>Node17&#45;&gt;Node13</title>
<g id="a_edge28_Node000017_Node000013"><a xlink:title=" ">
<path fill="none" stroke="#63b8ff" d="M718.11,-60.49C688.56,-50.44 639.21,-33.66 605.93,-22.34"/>
<polygon fill="#63b8ff" stroke="#63b8ff" points="606.75,-18.92 596.16,-19.02 604.5,-25.55 606.75,-18.92"/>
</a>
</g>
</g>
<!-- Node17&#45;&gt;Node15 -->
<g id="edge30_Node000017_Node000015" class="edge">
<title>Node17&#45;&gt;Node15</title>
<g id="a_edge30_Node000017_Node000015"><a xlink:title=" ">
<path fill="none" stroke="#63b8ff" d="M728.51,-60.37C712.43,-50.86 686.34,-35.45 667.42,-24.27"/>
<polygon fill="#63b8ff" stroke="#63b8ff" points="669.18,-21.24 658.79,-19.17 665.62,-27.27 669.18,-21.24"/>
</a>
</g>
</g>
<!-- Node17&#45;&gt;Node17 -->
<g id="edge24_Node000017_Node000017" class="edge">
<title>Node17&#45;&gt;Node17</title>
<g id="a_edge24_Node000017_Node000017"><a xlink:title=" ">
<path fill="none" stroke="#63b8ff" d="M764.17,-79.53C781.75,-83.61 800.12,-80.43 800.12,-70 800.12,-61.61 788.22,-57.91 774.42,-58.91"/>
<polygon fill="#63b8ff" stroke="#63b8ff" points="773.53,-55.5 764.17,-60.47 774.58,-62.42 773.53,-55.5"/>
</a>
</g>
</g>
<!-- Node18 -->
<g id="Node000018" class="node">
<title>Node18</title>
<g id="a_Node000018"><a xlink:title=" ">
<polygon fill="#e0e0e0" stroke="#999999" points="732.12,-19 690.12,-19 690.12,0 732.12,0 732.12,-19"/>
<text text-anchor="middle" x="711.12" y="-7" font-family="Helvetica,sans-Serif" font-size="10.00">array</text>
</a>
</g>
</g>
<!-- Node17&#45;&gt;Node18 -->
<g id="edge22_Node000017_Node000018" class="edge">
<title>Node17&#45;&gt;Node18</title>
<g id="a_edge22_Node000017_Node000018"><a xlink:title=" ">
<path fill="none" stroke="#63b8ff" d="M738.4,-60.37C733.77,-51.9 726.57,-38.74 720.73,-28.07"/>
<polygon fill="#63b8ff" stroke="#63b8ff" points="723.73,-26.26 715.86,-19.17 717.59,-29.62 723.73,-26.26"/>
</a>
</g>
</g>
<!-- Node19 -->
<g id="Node000019" class="node">
<title>Node19</title>
<g id="a_Node000019"><a xlink:title=" ">
<polygon fill="#e0e0e0" stroke="#999999" points="797.62,-19 750.62,-19 750.62,0 797.62,0 797.62,-19"/>
<text text-anchor="middle" x="774.12" y="-7" font-family="Helvetica,sans-Serif" font-size="10.00">cmath</text>
</a>
</g>
</g>
<!-- Node17&#45;&gt;Node19 -->
<g id="edge23_Node000017_Node000019" class="edge">
<title>Node17&#45;&gt;Node19</title>
<g id="a_edge23_Node000017_Node000019"><a xlink:title=" ">
<path fill="none" stroke="#63b8ff" d="M747.69,-60.37C752.18,-51.9 759.15,-38.74 764.81,-28.07"/>
<polygon fill="#63b8ff" stroke="#63b8ff" points="767.94,-29.64 769.53,-19.17 761.75,-26.36 767.94,-29.64"/>
</a>
</g>
</g>
<!-- Node20 -->
<g id="Node000020" class="node">
<title>Node20</title>
<g id="a_Node000020"><a xlink:title=" ">
<polygon fill="#e0e0e0" stroke="#999999" points="880.12,-19 816.12,-19 816.12,0 880.12,0 880.12,-19"/>
<text text-anchor="middle" x="848.12" y="-7" font-family="Helvetica,sans-Serif" font-size="10.00">algorithm</text>
</a>
</g>
</g>
<!-- Node17&#45;&gt;Node20 -->
<g id="edge25_Node000017_Node000020" class="edge">
<title>Node17&#45;&gt;Node20</title>
<g id="a_edge25_Node000017_Node000020"><a xlink:title=" ">
<path fill="none" stroke="#63b8ff" d="M758.61,-60.37C775.75,-50.82 803.59,-35.31 823.68,-24.12"/>
<polygon fill="#63b8ff" stroke="#63b8ff" points="825.53,-27.09 832.56,-19.17 822.12,-20.98 825.53,-27.09"/>
</a>
</g>
</g>
<!-- Node21 -->
<g id="Node000021" class="node">
<title>Node21</title>
<g id="a_Node000021"><a xlink:title=" ">
<polygon fill="#e0e0e0" stroke="#999999" points="954.12,-19 898.12,-19 898.12,0 954.12,0 954.12,-19"/>
<text text-anchor="middle" x="926.12" y="-7" font-family="Helvetica,sans-Serif" font-size="10.00">numeric</text>
</a>
</g>
</g>
<!-- Node17&#45;&gt;Node21 -->
<g id="edge26_Node000017_Node000021" class="edge">
<title>Node17&#45;&gt;Node21</title>
<g id="a_edge26_Node000017_Node000021"><a xlink:title=" ">
<path fill="none" stroke="#63b8ff" d="M769.73,-60.49C801.31,-50.4 854.13,-33.51 889.54,-22.19"/>
<polygon fill="#63b8ff" stroke="#63b8ff" points="891.02,-25.4 899.48,-19.02 888.89,-18.73 891.02,-25.4"/>
</a>
</g>
</g>
<!-- Node22 -->
<g id="Node000022" class="node">
<title>Node22</title>
<g id="a_Node000022"><a xlink:title=" ">
<polygon fill="#e0e0e0" stroke="#999999" points="1037.62,-19 972.62,-19 972.62,0 1037.62,0 1037.62,-19"/>
<text text-anchor="middle" x="1005.12" y="-7" font-family="Helvetica,sans-Serif" font-size="10.00">functional</text>
</a>
</g>
</g>
<!-- Node17&#45;&gt;Node22 -->
<g id="edge27_Node000017_Node000022" class="edge">
<title>Node17&#45;&gt;Node22</title>
<g id="a_edge27_Node000017_Node000022"><a xlink:title=" ">
<path fill="none" stroke="#63b8ff" d="M781.22,-60.49C829.41,-49.73 912.18,-31.25 962.45,-20.03"/>
<polygon fill="#63b8ff" stroke="#63b8ff" points="963.36,-23.41 972.36,-17.81 961.84,-16.58 963.36,-23.41"/>
</a>
</g>
</g>
<!-- Node23 -->
<g id="Node000023" class="node">
<title>Node23</title>
<g id="a_Node000023"><a xlink:title=" ">
<polygon fill="#e0e0e0" stroke="#999999" points="1114.62,-19 1055.62,-19 1055.62,0 1114.62,0 1114.62,-19"/>
<text text-anchor="middle" x="1085.12" y="-7" font-family="Helvetica,sans-Serif" font-size="10.00">numbers</text>
</a>
</g>
</g>
<!-- Node17&#45;&gt;Node23 -->
<g id="edge29_Node000017_Node000023" class="edge">
<title>Node17&#45;&gt;Node23</title>
<g id="a_edge29_Node000017_Node000023"><a xlink:title=" ">
<path fill="none" stroke="#63b8ff" d="M782.6,-63.24C838.84,-54.88 945.45,-38.43 1045.33,-19.27"/>
<polygon fill="#63b8ff" stroke="#63b8ff" points="1046.13,-22.68 1055.28,-17.34 1044.8,-15.8 1046.13,-22.68"/>
</a>
</g>
</g>
</g>
</svg>
