<?xml version="1.0" encoding="UTF-8" standalone="no"?>
<!DOCTYPE svg PUBLIC "-//W3C//DTD SVG 1.1//EN"
 "http://www.w3.org/Graphics/SVG/1.1/DTD/svg11.dtd">
<!-- Generated by graphviz version 2.43.0 (0)
 -->
<!-- Title: include/elements/activation_function.h Pages: 1 -->
<svg width="1138pt" height="214pt"
 viewBox="0.00 0.00 1137.50 214.00" xmlns="http://www.w3.org/2000/svg" xmlns:xlink="http://www.w3.org/1999/xlink">
<g id="graph0" class="graph" transform="scale(1 1) rotate(0) translate(4 210)">
<title>include/elements/activation_function.h</title>
<!-- Node1 -->
<g id="Node000001" class="node">
<title>Node1</title>
<g id="a_Node000001"><a xlink:title=" ">
<polygon fill="#999999" stroke="#666666" points="461.5,-206 309.5,-206 309.5,-176 461.5,-176 461.5,-206"/>
<text text-anchor="start" x="317.5" y="-194" font-family="Helvetica,sans-Serif" font-size="10.00">include/elements/activation</text>
<text text-anchor="middle" x="385.5" y="-183" font-family="Helvetica,sans-Serif" font-size="10.00">_function.h</text>
</a>
</g>
</g>
<!-- Node2 -->
<g id="Node000002" class="node">
<title>Node2</title>
<g id="a_Node000002"><a xlink:title=" ">
<polygon fill="#e0e0e0" stroke="#999999" points="230.5,-19 186.5,-19 186.5,0 230.5,0 230.5,-19"/>
<text text-anchor="middle" x="208.5" y="-7" font-family="Helvetica,sans-Serif" font-size="10.00">string</text>
</a>
</g>
</g>
<!-- Node1&#45;&gt;Node2 -->
<g id="edge1_Node000001_Node000002" class="edge">
<title>Node1&#45;&gt;Node2</title>
<g id="a_edge1_Node000001_Node000002"><a xlink:title=" ">
<path fill="none" stroke="#63b8ff" d="M333.52,-175.87C290.19,-161.03 231.23,-133.01 203.5,-85 193.6,-67.85 197.29,-44.64 201.88,-28.71"/>
<polygon fill="#63b8ff" stroke="#63b8ff" points="205.27,-29.6 205.05,-19.01 198.62,-27.43 205.27,-29.6"/>
</a>
</g>
</g>
<!-- Node3 -->
<g id="Node000003" class="node">
<title>Node3</title>
<g id="a_Node000003"><a xlink:href="logger_8h.html" target="_top" xlink:title=" ">
<polygon fill="white" stroke="#666666" points="427,-140 344,-140 344,-121 427,-121 427,-140"/>
<text text-anchor="middle" x="385.5" y="-128" font-family="Helvetica,sans-Serif" font-size="10.00">tools/logger.h</text>
</a>
</g>
</g>
<!-- Node1&#45;&gt;Node3 -->
<g id="edge2_Node000001_Node000003" class="edge">
<title>Node1&#45;&gt;Node3</title>
<g id="a_edge2_Node000001_Node000003"><a xlink:title=" ">
<path fill="none" stroke="#63b8ff" d="M385.5,-175.84C385.5,-168.21 385.5,-158.7 385.5,-150.45"/>
<polygon fill="#63b8ff" stroke="#63b8ff" points="389,-150.27 385.5,-140.27 382,-150.27 389,-150.27"/>
</a>
</g>
</g>
<!-- Node17 -->
<g id="Node000017" class="node">
<title>Node17</title>
<g id="a_Node000017"><a xlink:href="math_8h.html" target="_top" xlink:title=" ">
<polygon fill="white" stroke="#666666" points="810.5,-79.5 732.5,-79.5 732.5,-60.5 810.5,-60.5 810.5,-79.5"/>
<text text-anchor="middle" x="771.5" y="-67.5" font-family="Helvetica,sans-Serif" font-size="10.00">tools/math.h</text>
</a>
</g>
</g>
<!-- Node1&#45;&gt;Node17 -->
<g id="edge20_Node000001_Node000017" class="edge">
<title>Node1&#45;&gt;Node17</title>
<g id="a_edge20_Node000001_Node000017"><a xlink:title=" ">
<path fill="none" stroke="#63b8ff" d="M430.91,-176C507.84,-152.28 662.37,-104.64 733.76,-82.64"/>
<polygon fill="#63b8ff" stroke="#63b8ff" points="735.14,-85.87 743.67,-79.58 733.08,-79.18 735.14,-85.87"/>
</a>
</g>
</g>
<!-- Node3&#45;&gt;Node2 -->
<g id="edge4_Node000003_Node000002" class="edge">
<title>Node3&#45;&gt;Node2</title>
<g id="a_edge4_Node000003_Node000002"><a xlink:title=" ">
<path fill="none" stroke="#63b8ff" d="M381.05,-120.86C372.73,-105.52 353.39,-73.39 328.5,-55 302.11,-35.5 266.24,-23.69 240.61,-17.19"/>
<polygon fill="#63b8ff" stroke="#63b8ff" points="241.19,-13.73 230.65,-14.8 239.55,-20.53 241.19,-13.73"/>
</a>
</g>
</g>
<!-- Node4 -->
<g id="Node000004" class="node">
<title>Node4</title>
<g id="a_Node000004"><a xlink:title=" ">
<polygon fill="#e0e0e0" stroke="#999999" points="473.5,-79.5 413.5,-79.5 413.5,-60.5 473.5,-60.5 473.5,-79.5"/>
<text text-anchor="middle" x="443.5" y="-67.5" font-family="Helvetica,sans-Serif" font-size="10.00">iostream</text>
</a>
</g>
</g>
<!-- Node3&#45;&gt;Node4 -->
<g id="edge3_Node000003_Node000004" class="edge">
<title>Node3&#45;&gt;Node4</title>
<g id="a_edge3_Node000003_Node000004"><a xlink:title=" ">
<path fill="none" stroke="#63b8ff" d="M394.06,-120.87C402.88,-111.97 416.84,-97.89 427.68,-86.95"/>
<polygon fill="#63b8ff" stroke="#63b8ff" points="430.35,-89.23 434.91,-79.67 425.38,-84.3 430.35,-89.23"/>
</a>
</g>
</g>
<!-- Node5 -->
<g id="Node000005" class="node">
<title>Node5</title>
<g id="a_Node000005"><a xlink:title=" ">
<polygon fill="#e0e0e0" stroke="#999999" points="315.5,-19 265.5,-19 265.5,0 315.5,0 315.5,-19"/>
<text text-anchor="middle" x="290.5" y="-7" font-family="Helvetica,sans-Serif" font-size="10.00">chrono</text>
</a>
</g>
</g>
<!-- Node3&#45;&gt;Node5 -->
<g id="edge5_Node000003_Node000005" class="edge">
<title>Node3&#45;&gt;Node5</title>
<g id="a_edge5_Node000003_Node000005"><a xlink:title=" ">
<path fill="none" stroke="#63b8ff" d="M384.64,-120.79C382.78,-105.89 377.19,-75.16 361.5,-55 351.05,-41.57 335.32,-31.12 321.32,-23.73"/>
<polygon fill="#63b8ff" stroke="#63b8ff" points="322.51,-20.41 311.99,-19.11 319.4,-26.68 322.51,-20.41"/>
</a>
</g>
</g>
<!-- Node6 -->
<g id="Node000006" class="node">
<title>Node6</title>
<g id="a_Node000006"><a xlink:title=" ">
<polygon fill="#e0e0e0" stroke="#999999" points="613.5,-79.5 557.5,-79.5 557.5,-60.5 613.5,-60.5 613.5,-79.5"/>
<text text-anchor="middle" x="585.5" y="-67.5" font-family="Helvetica,sans-Serif" font-size="10.00">iomanip</text>
</a>
</g>
</g>
<!-- Node3&#45;&gt;Node6 -->
<g id="edge6_Node000003_Node000006" class="edge">
<title>Node3&#45;&gt;Node6</title>
<g id="a_edge6_Node000003_Node000006"><a xlink:title=" ">
<path fill="none" stroke="#63b8ff" d="M420.44,-120.99C453.64,-112.66 504.84,-99.18 548.5,-85 550.36,-84.4 552.27,-83.75 554.18,-83.09"/>
<polygon fill="#63b8ff" stroke="#63b8ff" points="555.5,-86.33 563.71,-79.64 553.12,-79.75 555.5,-86.33"/>
</a>
</g>
</g>
<!-- Node7 -->
<g id="Node000007" class="node">
<title>Node7</title>
<g id="a_Node000007"><a xlink:title=" ">
<polygon fill="#e0e0e0" stroke="#999999" points="319,-85 212,-85 212,-55 319,-55 319,-85"/>
<text text-anchor="start" x="220" y="-73" font-family="Helvetica,sans-Serif" font-size="10.00">imgui&#45;platform&#45;kit</text>
<text text-anchor="middle" x="265.5" y="-62" font-family="Helvetica,sans-Serif" font-size="10.00">/log_window.h</text>
</a>
</g>
</g>
<!-- Node3&#45;&gt;Node7 -->
<g id="edge7_Node000003_Node000007" class="edge">
<title>Node3&#45;&gt;Node7</title>
<g id="a_edge7_Node000003_Node000007"><a xlink:title=" ">
<path fill="none" stroke="#63b8ff" d="M368.05,-120.99C351.29,-112.82 325.4,-100.2 303.83,-89.69"/>
<polygon fill="#63b8ff" stroke="#63b8ff" points="305.1,-86.41 294.58,-85.18 302.04,-92.71 305.1,-86.41"/>
</a>
</g>
</g>
<!-- Node8 -->
<g id="Node000008" class="node">
<title>Node8</title>
<g id="a_Node000008"><a xlink:href="exception_8h.html" target="_top" xlink:title=" ">
<polygon fill="white" stroke="#666666" points="155.5,-79.5 25.5,-79.5 25.5,-60.5 155.5,-60.5 155.5,-79.5"/>
<text text-anchor="middle" x="90.5" y="-67.5" font-family="Helvetica,sans-Serif" font-size="10.00">exceptions/exception.h</text>
</a>
</g>
</g>
<!-- Node3&#45;&gt;Node8 -->
<g id="edge8_Node000003_Node000008" class="edge">
<title>Node3&#45;&gt;Node8</title>
<g id="a_edge8_Node000003_Node000008"><a xlink:title=" ">
<path fill="none" stroke="#63b8ff" d="M343.86,-121.24C291.27,-110.81 200.74,-92.86 143.33,-81.48"/>
<polygon fill="#63b8ff" stroke="#63b8ff" points="143.85,-78.01 133.36,-79.5 142.49,-84.88 143.85,-78.01"/>
</a>
</g>
</g>
<!-- Node11 -->
<g id="Node000011" class="node">
<title>Node11</title>
<g id="a_Node000011"><a xlink:href="utils_8h.html" target="_top" xlink:title=" ">
<polygon fill="white" stroke="#666666" points="539,-79.5 492,-79.5 492,-60.5 539,-60.5 539,-79.5"/>
<text text-anchor="middle" x="515.5" y="-67.5" font-family="Helvetica,sans-Serif" font-size="10.00">utils.h</text>
</a>
</g>
</g>
<!-- Node3&#45;&gt;Node11 -->
<g id="edge12_Node000003_Node000011" class="edge">
<title>Node3&#45;&gt;Node11</title>
<g id="a_edge12_Node000003_Node000011"><a xlink:title=" ">
<path fill="none" stroke="#63b8ff" d="M404.4,-120.99C426.16,-111.2 462.12,-95.02 487.21,-83.73"/>
<polygon fill="#63b8ff" stroke="#63b8ff" points="488.89,-86.81 496.57,-79.52 486.02,-80.43 488.89,-86.81"/>
</a>
</g>
</g>
<!-- Node8&#45;&gt;Node2 -->
<g id="edge11_Node000008_Node000002" class="edge">
<title>Node8&#45;&gt;Node2</title>
<g id="a_edge11_Node000008_Node000002"><a xlink:title=" ">
<path fill="none" stroke="#63b8ff" d="M107.66,-60.49C127.23,-50.79 159.47,-34.81 182.22,-23.53"/>
<polygon fill="#63b8ff" stroke="#63b8ff" points="183.92,-26.59 191.32,-19.02 180.81,-20.32 183.92,-26.59"/>
</a>
</g>
</g>
<!-- Node9 -->
<g id="Node000009" class="node">
<title>Node9</title>
<g id="a_Node000009"><a xlink:title=" ">
<polygon fill="#e0e0e0" stroke="#999999" points="133.5,-19 83.5,-19 83.5,0 133.5,0 133.5,-19"/>
<text text-anchor="middle" x="108.5" y="-7" font-family="Helvetica,sans-Serif" font-size="10.00">cstdint</text>
</a>
</g>
</g>
<!-- Node8&#45;&gt;Node9 -->
<g id="edge9_Node000008_Node000009" class="edge">
<title>Node8&#45;&gt;Node9</title>
<g id="a_edge9_Node000008_Node000009"><a xlink:title=" ">
<path fill="none" stroke="#63b8ff" d="M93.16,-60.37C95.68,-52.16 99.56,-39.54 102.79,-29.05"/>
<polygon fill="#63b8ff" stroke="#63b8ff" points="106.24,-29.75 105.83,-19.17 99.55,-27.7 106.24,-29.75"/>
</a>
</g>
</g>
<!-- Node10 -->
<g id="Node000010" class="node">
<title>Node10</title>
<g id="a_Node000010"><a xlink:title=" ">
<polygon fill="#e0e0e0" stroke="#999999" points="65,-19 0,-19 0,0 65,0 65,-19"/>
<text text-anchor="middle" x="32.5" y="-7" font-family="Helvetica,sans-Serif" font-size="10.00">exception</text>
</a>
</g>
</g>
<!-- Node8&#45;&gt;Node10 -->
<g id="edge10_Node000008_Node000010" class="edge">
<title>Node8&#45;&gt;Node10</title>
<g id="a_edge10_Node000008_Node000010"><a xlink:title=" ">
<path fill="none" stroke="#63b8ff" d="M81.94,-60.37C73.12,-51.47 59.16,-37.39 48.32,-26.45"/>
<polygon fill="#63b8ff" stroke="#63b8ff" points="50.62,-23.8 41.09,-19.17 45.65,-28.73 50.62,-23.8"/>
</a>
</g>
</g>
<!-- Node11&#45;&gt;Node2 -->
<g id="edge13_Node000011_Node000002" class="edge">
<title>Node11&#45;&gt;Node2</title>
<g id="a_edge13_Node000011_Node000002"><a xlink:title=" ">
<path fill="none" stroke="#63b8ff" d="M497.63,-60.49C492.8,-58.45 487.52,-56.44 482.5,-55 384.74,-26.93 356.8,-35.87 256.5,-19 251.54,-18.17 246.31,-17.26 241.18,-16.37"/>
<polygon fill="#63b8ff" stroke="#63b8ff" points="241.41,-12.85 230.95,-14.56 240.19,-19.74 241.41,-12.85"/>
</a>
</g>
</g>
<!-- Node11&#45;&gt;Node5 -->
<g id="edge18_Node000011_Node000005" class="edge">
<title>Node11&#45;&gt;Node5</title>
<g id="a_edge18_Node000011_Node000005"><a xlink:title=" ">
<path fill="none" stroke="#63b8ff" d="M496.87,-60.42C492.24,-58.47 487.24,-56.53 482.5,-55 416.91,-33.8 396.31,-35.53 325.58,-19.19"/>
<polygon fill="#63b8ff" stroke="#63b8ff" points="326.27,-15.75 315.74,-16.87 324.67,-22.57 326.27,-15.75"/>
</a>
</g>
</g>
<!-- Node12 -->
<g id="Node000012" class="node">
<title>Node12</title>
<g id="a_Node000012"><a xlink:title=" ">
<polygon fill="#e0e0e0" stroke="#999999" points="614,-19 567,-19 567,0 614,0 614,-19"/>
<text text-anchor="middle" x="590.5" y="-7" font-family="Helvetica,sans-Serif" font-size="10.00">vector</text>
</a>
</g>
</g>
<!-- Node11&#45;&gt;Node12 -->
<g id="edge14_Node000011_Node000012" class="edge">
<title>Node11&#45;&gt;Node12</title>
<g id="a_edge14_Node000011_Node000012"><a xlink:title=" ">
<path fill="none" stroke="#63b8ff" d="M526.57,-60.37C538.31,-51.21 557.09,-36.56 571.26,-25.51"/>
<polygon fill="#63b8ff" stroke="#63b8ff" points="573.66,-28.08 579.39,-19.17 569.35,-22.56 573.66,-28.08"/>
</a>
</g>
</g>
<!-- Node13 -->
<g id="Node000013" class="node">
<title>Node13</title>
<g id="a_Node000013"><a xlink:title=" ">
<polygon fill="#e0e0e0" stroke="#999999" points="686.5,-19 632.5,-19 632.5,0 686.5,0 686.5,-19"/>
<text text-anchor="middle" x="659.5" y="-7" font-family="Helvetica,sans-Serif" font-size="10.00">random</text>
</a>
</g>
</g>
<!-- Node11&#45;&gt;Node13 -->
<g id="edge15_Node000011_Node000013" class="edge">
<title>Node11&#45;&gt;Node13</title>
<g id="a_edge15_Node000011_Node000013"><a xlink:title=" ">
<path fill="none" stroke="#63b8ff" d="M535.37,-60.5C539.69,-58.67 544.24,-56.76 548.5,-55 575.42,-43.9 606.16,-31.6 628.45,-22.76"/>
<polygon fill="#63b8ff" stroke="#63b8ff" points="629.75,-26.01 637.75,-19.07 627.17,-19.5 629.75,-26.01"/>
</a>
</g>
</g>
<!-- Node14 -->
<g id="Node000014" class="node">
<title>Node14</title>
<g id="a_Node000014"><a xlink:title=" ">
<polygon fill="#e0e0e0" stroke="#999999" points="475.5,-19 419.5,-19 419.5,0 475.5,0 475.5,-19"/>
<text text-anchor="middle" x="447.5" y="-7" font-family="Helvetica,sans-Serif" font-size="10.00">sstream</text>
</a>
</g>
</g>
<!-- Node11&#45;&gt;Node14 -->
<g id="edge16_Node000011_Node000014" class="edge">
<title>Node11&#45;&gt;Node14</title>
<g id="a_edge16_Node000011_Node000014"><a xlink:title=" ">
<path fill="none" stroke="#63b8ff" d="M505.47,-60.37C494.92,-51.3 478.11,-36.84 465.31,-25.82"/>
<polygon fill="#63b8ff" stroke="#63b8ff" points="467.44,-23.04 457.57,-19.17 462.87,-28.34 467.44,-23.04"/>
</a>
</g>
</g>
<!-- Node15 -->
<g id="Node000015" class="node">
<title>Node15</title>
<g id="a_Node000015"><a xlink:title=" ">
<polygon fill="#e0e0e0" stroke="#999999" points="549,-19 494,-19 494,0 549,0 549,-19"/>
<text text-anchor="middle" x="521.5" y="-7" font-family="Helvetica,sans-Serif" font-size="10.00">fstream</text>
</a>
</g>
</g>
<!-- Node11&#45;&gt;Node15 -->
<g id="edge17_Node000011_Node000015" class="edge">
<title>Node11&#45;&gt;Node15</title>
<g id="a_edge17_Node000011_Node000015"><a xlink:title=" ">
<path fill="none" stroke="#63b8ff" d="M516.39,-60.37C517.22,-52.25 518.49,-39.81 519.56,-29.39"/>
<polygon fill="#63b8ff" stroke="#63b8ff" points="523.07,-29.47 520.61,-19.17 516.11,-28.76 523.07,-29.47"/>
</a>
</g>
</g>
<!-- Node16 -->
<g id="Node000016" class="node">
<title>Node16</title>
<g id="a_Node000016"><a xlink:title=" ">
<polygon fill="#e0e0e0" stroke="#999999" points="401.5,-19 333.5,-19 333.5,0 401.5,0 401.5,-19"/>
<text text-anchor="middle" x="367.5" y="-7" font-family="Helvetica,sans-Serif" font-size="10.00">filesystem</text>
</a>
</g>
</g>
<!-- Node11&#45;&gt;Node16 -->
<g id="edge19_Node000011_Node000016" class="edge">
<title>Node11&#45;&gt;Node16</title>
<g id="a_edge19_Node000011_Node000016"><a xlink:title=" ">
<path fill="none" stroke="#63b8ff" d="M495.65,-60.46C491.33,-58.63 486.77,-56.73 482.5,-55 454.85,-43.79 423.22,-31.59 400.14,-22.81"/>
<polygon fill="#63b8ff" stroke="#63b8ff" points="401.09,-19.43 390.5,-19.15 398.6,-25.97 401.09,-19.43"/>
</a>
</g>
</g>
<!-- Node17&#45;&gt;Node12 -->
<g id="edge21_Node000017_Node000012" class="edge">
<title>Node17&#45;&gt;Node12</title>
<g id="a_edge21_Node000017_Node000012"><a xlink:title=" ">
<path fill="none" stroke="#63b8ff" d="M745.18,-60.49C713.14,-50.14 659,-32.64 624.01,-21.33"/>
<polygon fill="#63b8ff" stroke="#63b8ff" points="624.85,-17.92 614.25,-18.18 622.69,-24.58 624.85,-17.92"/>
</a>
</g>
</g>
<!-- Node17&#45;&gt;Node13 -->
<g id="edge27_Node000017_Node000013" class="edge">
<title>Node17&#45;&gt;Node13</title>
<g id="a_edge27_Node000017_Node000013"><a xlink:title=" ">
<path fill="none" stroke="#63b8ff" d="M754.97,-60.37C736.53,-50.73 706.46,-35.03 684.99,-23.81"/>
<polygon fill="#63b8ff" stroke="#63b8ff" points="686.58,-20.69 676.09,-19.17 683.34,-26.9 686.58,-20.69"/>
</a>
</g>
</g>
<!-- Node17&#45;&gt;Node15 -->
<g id="edge29_Node000017_Node000015" class="edge">
<title>Node17&#45;&gt;Node15</title>
<g id="a_edge29_Node000017_Node000015"><a xlink:title=" ">
<path fill="none" stroke="#63b8ff" d="M735.15,-60.49C688.09,-49.48 606.49,-30.39 558.92,-19.26"/>
<polygon fill="#63b8ff" stroke="#63b8ff" points="559.56,-15.81 549.02,-16.94 557.96,-22.63 559.56,-15.81"/>
</a>
</g>
</g>
<!-- Node18 -->
<g id="Node000018" class="node">
<title>Node18</title>
<g id="a_Node000018"><a xlink:title=" ">
<polygon fill="#e0e0e0" stroke="#999999" points="981.5,-19 939.5,-19 939.5,0 981.5,0 981.5,-19"/>
<text text-anchor="middle" x="960.5" y="-7" font-family="Helvetica,sans-Serif" font-size="10.00">array</text>
</a>
</g>
</g>
<!-- Node17&#45;&gt;Node18 -->
<g id="edge22_Node000017_Node000018" class="edge">
<title>Node17&#45;&gt;Node18</title>
<g id="a_edge22_Node000017_Node000018"><a xlink:title=" ">
<path fill="none" stroke="#63b8ff" d="M798.98,-60.49C833.79,-49.72 893.61,-31.21 929.86,-19.98"/>
<polygon fill="#63b8ff" stroke="#63b8ff" points="930.9,-23.33 939.42,-17.03 928.83,-16.64 930.9,-23.33"/>
</a>
</g>
</g>
<!-- Node19 -->
<g id="Node000019" class="node">
<title>Node19</title>
<g id="a_Node000019"><a xlink:title=" ">
<polygon fill="#e0e0e0" stroke="#999999" points="1047,-19 1000,-19 1000,0 1047,0 1047,-19"/>
<text text-anchor="middle" x="1023.5" y="-7" font-family="Helvetica,sans-Serif" font-size="10.00">cmath</text>
</a>
</g>
</g>
<!-- Node17&#45;&gt;Node19 -->
<g id="edge23_Node000017_Node000019" class="edge">
<title>Node17&#45;&gt;Node19</title>
<g id="a_edge23_Node000017_Node000019"><a xlink:title=" ">
<path fill="none" stroke="#63b8ff" d="M810.34,-60.47C852.21,-51.2 921.06,-35.75 990,-19.07"/>
<polygon fill="#63b8ff" stroke="#63b8ff" points="990.83,-22.47 999.73,-16.71 989.18,-15.67 990.83,-22.47"/>
</a>
</g>
</g>
<!-- Node20 -->
<g id="Node000020" class="node">
<title>Node20</title>
<g id="a_Node000020"><a xlink:title=" ">
<polygon fill="#e0e0e0" stroke="#999999" points="1129.5,-19 1065.5,-19 1065.5,0 1129.5,0 1129.5,-19"/>
<text text-anchor="middle" x="1097.5" y="-7" font-family="Helvetica,sans-Serif" font-size="10.00">algorithm</text>
</a>
</g>
</g>
<!-- Node17&#45;&gt;Node20 -->
<g id="edge24_Node000017_Node000020" class="edge">
<title>Node17&#45;&gt;Node20</title>
<g id="a_edge24_Node000017_Node000020"><a xlink:title=" ">
<path fill="none" stroke="#63b8ff" d="M810.76,-62.51C863.9,-53.63 961.93,-36.95 1055.39,-19.17"/>
<polygon fill="#63b8ff" stroke="#63b8ff" points="1056.12,-22.59 1065.29,-17.28 1054.81,-15.71 1056.12,-22.59"/>
</a>
</g>
</g>
<!-- Node21 -->
<g id="Node000021" class="node">
<title>Node21</title>
<g id="a_Node000021"><a xlink:title=" ">
<polygon fill="#e0e0e0" stroke="#999999" points="760.5,-19 704.5,-19 704.5,0 760.5,0 760.5,-19"/>
<text text-anchor="middle" x="732.5" y="-7" font-family="Helvetica,sans-Serif" font-size="10.00">numeric</text>
</a>
</g>
</g>
<!-- Node17&#45;&gt;Node21 -->
<g id="edge25_Node000017_Node000021" class="edge">
<title>Node17&#45;&gt;Node21</title>
<g id="a_edge25_Node000017_Node000021"><a xlink:title=" ">
<path fill="none" stroke="#63b8ff" d="M765.75,-60.37C760.04,-51.81 751.15,-38.47 743.99,-27.74"/>
<polygon fill="#63b8ff" stroke="#63b8ff" points="746.74,-25.55 738.28,-19.17 740.91,-29.43 746.74,-25.55"/>
</a>
</g>
</g>
<!-- Node22 -->
<g id="Node000022" class="node">
<title>Node22</title>
<g id="a_Node000022"><a xlink:title=" ">
<polygon fill="#e0e0e0" stroke="#999999" points="844,-19 779,-19 779,0 844,0 844,-19"/>
<text text-anchor="middle" x="811.5" y="-7" font-family="Helvetica,sans-Serif" font-size="10.00">functional</text>
</a>
</g>
</g>
<!-- Node17&#45;&gt;Node22 -->
<g id="edge26_Node000017_Node000022" class="edge">
<title>Node17&#45;&gt;Node22</title>
<g id="a_edge26_Node000017_Node000022"><a xlink:title=" ">
<path fill="none" stroke="#63b8ff" d="M777.4,-60.37C783.25,-51.81 792.37,-38.47 799.71,-27.74"/>
<polygon fill="#63b8ff" stroke="#63b8ff" points="802.82,-29.4 805.57,-19.17 797.04,-25.45 802.82,-29.4"/>
</a>
</g>
</g>
<!-- Node23 -->
<g id="Node000023" class="node">
<title>Node23</title>
<g id="a_Node000023"><a xlink:title=" ">
<polygon fill="#e0e0e0" stroke="#999999" points="921,-19 862,-19 862,0 921,0 921,-19"/>
<text text-anchor="middle" x="891.5" y="-7" font-family="Helvetica,sans-Serif" font-size="10.00">numbers</text>
</a>
</g>
</g>
<!-- Node17&#45;&gt;Node23 -->
<g id="edge28_Node000017_Node000023" class="edge">
<title>Node17&#45;&gt;Node23</title>
<g id="a_edge28_Node000017_Node000023"><a xlink:title=" ">
<path fill="none" stroke="#63b8ff" d="M788.95,-60.49C808.86,-50.79 841.64,-34.81 864.77,-23.53"/>
<polygon fill="#63b8ff" stroke="#63b8ff" points="866.57,-26.54 874.03,-19.02 863.51,-20.25 866.57,-26.54"/>
</a>
</g>
</g>
</g>
</svg>
