<?xml version="1.0" encoding="UTF-8" standalone="no"?>
<!DOCTYPE svg PUBLIC "-//W3C//DTD SVG 1.1//EN"
 "http://www.w3.org/Graphics/SVG/1.1/DTD/svg11.dtd">
<!-- Generated by graphviz version 2.43.0 (0)
 -->
<!-- Title: include/elements/activation_function.h Pages: 1 -->
<svg width="1085pt" height="500pt"
 viewBox="0.00 0.00 1084.79 500.00" xmlns="http://www.w3.org/2000/svg" xmlns:xlink="http://www.w3.org/1999/xlink">
<g id="graph0" class="graph" transform="scale(1 1) rotate(0) translate(4 496)">
<title>include/elements/activation_function.h</title>
<!-- Node1 -->
<g id="Node000001" class="node">
<title>Node1</title>
<g id="a_Node000001"><a xlink:title=" ">
<polygon fill="#999999" stroke="#666666" points="647,-492 495,-492 495,-462 647,-462 647,-492"/>
<text text-anchor="start" x="503" y="-480" font-family="Helvetica,sans-Serif" font-size="10.00">include/elements/activation</text>
<text text-anchor="middle" x="571" y="-469" font-family="Helvetica,sans-Serif" font-size="10.00">_function.h</text>
</a>
</g>
</g>
<!-- Node2 -->
<g id="Node000002" class="node">
<title>Node2</title>
<g id="a_Node000002"><a xlink:href="neural__field__parameters_8h.html" target="_top" xlink:title=" ">
<polygon fill="white" stroke="#666666" points="357.5,-426 200.5,-426 200.5,-396 357.5,-396 357.5,-426"/>
<text text-anchor="start" x="208.5" y="-414" font-family="Helvetica,sans-Serif" font-size="10.00">include/element_parameters</text>
<text text-anchor="middle" x="279" y="-403" font-family="Helvetica,sans-Serif" font-size="10.00">/neural_field_parameters.h</text>
</a>
</g>
</g>
<!-- Node1&#45;&gt;Node2 -->
<g id="edge1_Node000001_Node000002" class="edge">
<title>Node1&#45;&gt;Node2</title>
<g id="a_edge1_Node000001_Node000002"><a xlink:title=" ">
<path fill="none" stroke="#63b8ff" d="M496.99,-459.78C449.46,-449.36 388.35,-435.97 342.93,-426.01"/>
<polygon fill="#63b8ff" stroke="#63b8ff" points="496.4,-463.23 506.92,-461.95 497.9,-456.4 496.4,-463.23"/>
</a>
</g>
</g>
<!-- Node4 -->
<g id="Node000004" class="node">
<title>Node4</title>
<g id="a_Node000004"><a xlink:href="neural__field_8h.html" target="_top" xlink:title=" ">
<polygon fill="white" stroke="#666666" points="591,-426 457,-426 457,-396 591,-396 591,-426"/>
<text text-anchor="start" x="465" y="-414" font-family="Helvetica,sans-Serif" font-size="10.00">include/elements/neural</text>
<text text-anchor="middle" x="524" y="-403" font-family="Helvetica,sans-Serif" font-size="10.00">_field.h</text>
</a>
</g>
</g>
<!-- Node1&#45;&gt;Node4 -->
<g id="edge3_Node000001_Node000004" class="edge">
<title>Node1&#45;&gt;Node4</title>
<g id="a_edge3_Node000001_Node000004"><a xlink:title=" ">
<path fill="none" stroke="#63b8ff" d="M554.5,-453.53C547.81,-444.43 540.3,-434.19 534.4,-426.16"/>
<polygon fill="#63b8ff" stroke="#63b8ff" points="551.83,-455.81 560.57,-461.8 557.47,-451.66 551.83,-455.81"/>
</a>
</g>
</g>
<!-- Node25 -->
<g id="Node000025" class="node">
<title>Node25</title>
<g id="a_Node000025"><a xlink:href="neural__field__2d_8h.html" target="_top" xlink:title=" ">
<polygon fill="white" stroke="#666666" points="814,-360 680,-360 680,-330 814,-330 814,-360"/>
<text text-anchor="start" x="688" y="-348" font-family="Helvetica,sans-Serif" font-size="10.00">include/elements/neural</text>
<text text-anchor="middle" x="747" y="-337" font-family="Helvetica,sans-Serif" font-size="10.00">_field_2d.h</text>
</a>
</g>
</g>
<!-- Node1&#45;&gt;Node25 -->
<g id="edge32_Node000001_Node000025" class="edge">
<title>Node1&#45;&gt;Node25</title>
<g id="a_edge32_Node000001_Node000025"><a xlink:title=" ">
<path fill="none" stroke="#63b8ff" d="M585.72,-453.44C598.02,-435.96 616.91,-412.1 638,-396 658.19,-380.59 683.89,-368.51 705.27,-360.09"/>
<polygon fill="#63b8ff" stroke="#63b8ff" points="582.67,-451.69 579.91,-461.92 588.44,-455.65 582.67,-451.69"/>
</a>
</g>
</g>
<!-- Node27 -->
<g id="Node000027" class="node">
<title>Node27</title>
<g id="a_Node000027"><a xlink:href="activation__function_8cpp.html" target="_top" xlink:title=" ">
<polygon fill="white" stroke="#666666" points="778.5,-426 647.5,-426 647.5,-396 778.5,-396 778.5,-426"/>
<text text-anchor="start" x="655.5" y="-414" font-family="Helvetica,sans-Serif" font-size="10.00">src/elements/activation</text>
<text text-anchor="middle" x="713" y="-403" font-family="Helvetica,sans-Serif" font-size="10.00">_function.cpp</text>
</a>
</g>
</g>
<!-- Node1&#45;&gt;Node27 -->
<g id="edge40_Node000001_Node000027" class="edge">
<title>Node1&#45;&gt;Node27</title>
<g id="a_edge40_Node000001_Node000027"><a xlink:title=" ">
<path fill="none" stroke="#63b8ff" d="M611.42,-457.78C633.8,-447.69 661.21,-435.34 681.91,-426.01"/>
<polygon fill="#63b8ff" stroke="#63b8ff" points="609.84,-454.65 602.16,-461.95 612.72,-461.04 609.84,-454.65"/>
</a>
</g>
</g>
<!-- Node3 -->
<g id="Node000003" class="node">
<title>Node3</title>
<g id="a_Node000003"><a xlink:href="neural__field__parameters_8cpp.html" target="_top" xlink:title=" ">
<polygon fill="white" stroke="#666666" points="234,-360 76,-360 76,-330 234,-330 234,-360"/>
<text text-anchor="start" x="84" y="-348" font-family="Helvetica,sans-Serif" font-size="10.00">src/element_parameters</text>
<text text-anchor="middle" x="155" y="-337" font-family="Helvetica,sans-Serif" font-size="10.00">/neural_field_parameters.cpp</text>
</a>
</g>
</g>
<!-- Node2&#45;&gt;Node3 -->
<g id="edge2_Node000002_Node000003" class="edge">
<title>Node2&#45;&gt;Node3</title>
<g id="a_edge2_Node000002_Node000003"><a xlink:title=" ">
<path fill="none" stroke="#63b8ff" d="M242.66,-391.24C223.3,-381.25 199.9,-369.18 182.15,-360.01"/>
<polygon fill="#63b8ff" stroke="#63b8ff" points="241.3,-394.48 251.79,-395.95 244.51,-388.26 241.3,-394.48"/>
</a>
</g>
</g>
<!-- Node5 -->
<g id="Node000005" class="node">
<title>Node5</title>
<g id="a_Node000005"><a xlink:href="element__factory_8h.html" target="_top" xlink:title=" ">
<polygon fill="white" stroke="#666666" points="557,-294 413,-294 413,-264 557,-264 557,-294"/>
<text text-anchor="start" x="421" y="-282" font-family="Helvetica,sans-Serif" font-size="10.00">include/elements/element</text>
<text text-anchor="middle" x="485" y="-271" font-family="Helvetica,sans-Serif" font-size="10.00">_factory.h</text>
</a>
</g>
</g>
<!-- Node4&#45;&gt;Node5 -->
<g id="edge4_Node000004_Node000005" class="edge">
<title>Node4&#45;&gt;Node5</title>
<g id="a_edge4_Node000004_Node000005"><a xlink:title=" ">
<path fill="none" stroke="#63b8ff" d="M511.98,-386.85C508.04,-378.55 503.93,-369.01 501,-360 493.69,-337.5 489.11,-310.31 486.81,-294.13"/>
<polygon fill="#63b8ff" stroke="#63b8ff" points="508.89,-388.49 516.44,-395.92 515.17,-385.4 508.89,-388.49"/>
</a>
</g>
</g>
<!-- Node13 -->
<g id="Node000013" class="node">
<title>Node13</title>
<g id="a_Node000013"><a xlink:href="simulation__window_8cpp.html" target="_top" xlink:title=" ">
<polygon fill="white" stroke="#666666" points="980,-162 846,-162 846,-132 980,-132 980,-162"/>
<text text-anchor="start" x="854" y="-150" font-family="Helvetica,sans-Serif" font-size="10.00">src/user_interface</text>
<text text-anchor="middle" x="913" y="-139" font-family="Helvetica,sans-Serif" font-size="10.00">/simulation_window.cpp</text>
</a>
</g>
</g>
<!-- Node4&#45;&gt;Node13 -->
<g id="edge31_Node000004_Node000013" class="edge">
<title>Node4&#45;&gt;Node13</title>
<g id="a_edge31_Node000004_Node000013"><a xlink:title=" ">
<path fill="none" stroke="#63b8ff" d="M601.27,-400.58C687.69,-389.74 822.1,-371.92 872,-360 960.99,-338.74 1013.67,-368.35 1067,-294 1107.05,-238.17 1007.01,-186.2 949.74,-162.09"/>
<polygon fill="#63b8ff" stroke="#63b8ff" points="600.73,-397.12 591.24,-401.83 601.59,-404.07 600.73,-397.12"/>
</a>
</g>
</g>
<!-- Node15 -->
<g id="Node000015" class="node">
<title>Node15</title>
<g id="a_Node000015"><a xlink:href="field__coupling_8h.html" target="_top" xlink:title=" ">
<polygon fill="white" stroke="#666666" points="453.5,-360 328.5,-360 328.5,-330 453.5,-330 453.5,-360"/>
<text text-anchor="start" x="336.5" y="-348" font-family="Helvetica,sans-Serif" font-size="10.00">include/elements/field</text>
<text text-anchor="middle" x="391" y="-337" font-family="Helvetica,sans-Serif" font-size="10.00">_coupling.h</text>
</a>
</g>
</g>
<!-- Node4&#45;&gt;Node15 -->
<g id="edge15_Node000004_Node000015" class="edge">
<title>Node4&#45;&gt;Node15</title>
<g id="a_edge15_Node000004_Node000015"><a xlink:title=" ">
<path fill="none" stroke="#63b8ff" d="M485.58,-391.51C464.72,-381.47 439.33,-369.26 420.12,-360.01"/>
<polygon fill="#63b8ff" stroke="#63b8ff" points="484.28,-394.77 494.81,-395.95 487.32,-388.46 484.28,-394.77"/>
</a>
</g>
</g>
<!-- Node16 -->
<g id="Node000016" class="node">
<title>Node16</title>
<g id="a_Node000016"><a xlink:href="simulation__file__manager_8h.html" target="_top" xlink:title=" ">
<polygon fill="white" stroke="#666666" points="724.5,-294 575.5,-294 575.5,-264 724.5,-264 724.5,-294"/>
<text text-anchor="start" x="583.5" y="-282" font-family="Helvetica,sans-Serif" font-size="10.00">include/simulation</text>
<text text-anchor="middle" x="650" y="-271" font-family="Helvetica,sans-Serif" font-size="10.00">/simulation_file_manager.h</text>
</a>
</g>
</g>
<!-- Node4&#45;&gt;Node16 -->
<g id="edge26_Node000004_Node000016" class="edge">
<title>Node4&#45;&gt;Node16</title>
<g id="a_edge26_Node000004_Node000016"><a xlink:title=" ">
<path fill="none" stroke="#63b8ff" d="M587.86,-391.88C604.33,-384.42 620.61,-374.11 632,-360 647.38,-340.95 650.22,-311.38 650.43,-294.03"/>
<polygon fill="#63b8ff" stroke="#63b8ff" points="586.04,-388.85 578.17,-395.95 588.75,-395.3 586.04,-388.85"/>
</a>
</g>
</g>
<!-- Node19 -->
<g id="Node000019" class="node">
<title>Node19</title>
<g id="a_Node000019"><a xlink:href="node__graph__window_8h.html" target="_top" xlink:title=" ">
<polygon fill="white" stroke="#666666" points="255,-294 127,-294 127,-264 255,-264 255,-294"/>
<text text-anchor="start" x="135" y="-282" font-family="Helvetica,sans-Serif" font-size="10.00">include/user_interface</text>
<text text-anchor="middle" x="191" y="-271" font-family="Helvetica,sans-Serif" font-size="10.00">/node_graph_window.h</text>
</a>
</g>
</g>
<!-- Node4&#45;&gt;Node19 -->
<g id="edge27_Node000004_Node000019" class="edge">
<title>Node4&#45;&gt;Node19</title>
<g id="a_edge27_Node000004_Node000019"><a xlink:title=" ">
<path fill="none" stroke="#63b8ff" d="M446.79,-399.31C404.57,-391.71 352.05,-379.34 308,-360 268.79,-342.79 228.83,-312.02 207.25,-294.07"/>
<polygon fill="#63b8ff" stroke="#63b8ff" points="446.29,-402.77 456.74,-401.05 447.49,-395.88 446.29,-402.77"/>
</a>
</g>
</g>
<!-- Node22 -->
<g id="Node000022" class="node">
<title>Node22</title>
<g id="a_Node000022"><a xlink:href="element__window_8cpp.html" target="_top" xlink:title=" ">
<polygon fill="white" stroke="#666666" points="395,-294 273,-294 273,-264 395,-264 395,-294"/>
<text text-anchor="start" x="281" y="-282" font-family="Helvetica,sans-Serif" font-size="10.00">src/user_interface</text>
<text text-anchor="middle" x="334" y="-271" font-family="Helvetica,sans-Serif" font-size="10.00">/element_window.cpp</text>
</a>
</g>
</g>
<!-- Node4&#45;&gt;Node22 -->
<g id="edge29_Node000004_Node000022" class="edge">
<title>Node4&#45;&gt;Node22</title>
<g id="a_edge29_Node000004_Node000022"><a xlink:title=" ">
<path fill="none" stroke="#63b8ff" d="M446.82,-401.11C395.6,-393.43 334.96,-380.32 319,-360 303.99,-340.89 315.92,-311.34 325.37,-294.01"/>
<polygon fill="#63b8ff" stroke="#63b8ff" points="446.53,-404.6 456.92,-402.57 447.53,-397.67 446.53,-404.6"/>
</a>
</g>
</g>
<!-- Node23 -->
<g id="Node000023" class="node">
<title>Node23</title>
<g id="a_Node000023"><a xlink:href="neural__field_8cpp.html" target="_top" xlink:title=" ">
<polygon fill="white" stroke="#666666" points="623.5,-360 510.5,-360 510.5,-330 623.5,-330 623.5,-360"/>
<text text-anchor="start" x="518.5" y="-348" font-family="Helvetica,sans-Serif" font-size="10.00">src/elements/neural</text>
<text text-anchor="middle" x="567" y="-337" font-family="Helvetica,sans-Serif" font-size="10.00">_field.cpp</text>
</a>
</g>
</g>
<!-- Node4&#45;&gt;Node23 -->
<g id="edge28_Node000004_Node000023" class="edge">
<title>Node4&#45;&gt;Node23</title>
<g id="a_edge28_Node000004_Node000023"><a xlink:title=" ">
<path fill="none" stroke="#63b8ff" d="M539.29,-387.24C545.36,-378.21 552.14,-368.11 557.48,-360.16"/>
<polygon fill="#63b8ff" stroke="#63b8ff" points="536.21,-385.54 533.54,-395.8 542.03,-389.45 536.21,-385.54"/>
</a>
</g>
</g>
<!-- Node24 -->
<g id="Node000024" class="node">
<title>Node24</title>
<g id="a_Node000024"><a xlink:href="field__metrics__window_8cpp.html" target="_top" xlink:title=" ">
<polygon fill="white" stroke="#666666" points="1057.5,-294 912.5,-294 912.5,-264 1057.5,-264 1057.5,-294"/>
<text text-anchor="start" x="920.5" y="-282" font-family="Helvetica,sans-Serif" font-size="10.00">src/user_interface</text>
<text text-anchor="middle" x="985" y="-271" font-family="Helvetica,sans-Serif" font-size="10.00">/field_metrics_window.cpp</text>
</a>
</g>
</g>
<!-- Node4&#45;&gt;Node24 -->
<g id="edge30_Node000004_Node000024" class="edge">
<title>Node4&#45;&gt;Node24</title>
<g id="a_edge30_Node000004_Node000024"><a xlink:title=" ">
<path fill="none" stroke="#63b8ff" d="M601.4,-399.68C675.87,-389.27 782.88,-372.95 823,-360 875.09,-343.19 931.44,-312.12 962.04,-294.05"/>
<polygon fill="#63b8ff" stroke="#63b8ff" points="600.55,-396.26 591.12,-401.1 601.51,-403.2 600.55,-396.26"/>
</a>
</g>
</g>
<!-- Node6 -->
<g id="Node000006" class="node">
<title>Node6</title>
<g id="a_Node000006"><a xlink:href="simulation__window_8h.html" target="_top" xlink:title=" ">
<polygon fill="white" stroke="#666666" points="546.5,-228 421.5,-228 421.5,-198 546.5,-198 546.5,-228"/>
<text text-anchor="start" x="429.5" y="-216" font-family="Helvetica,sans-Serif" font-size="10.00">include/user_interface</text>
<text text-anchor="middle" x="484" y="-205" font-family="Helvetica,sans-Serif" font-size="10.00">/simulation_window.h</text>
</a>
</g>
</g>
<!-- Node5&#45;&gt;Node6 -->
<g id="edge5_Node000005_Node000006" class="edge">
<title>Node5&#45;&gt;Node6</title>
<g id="a_edge5_Node000005_Node000006"><a xlink:title=" ">
<path fill="none" stroke="#63b8ff" d="M484.62,-253.54C484.48,-244.96 484.34,-235.61 484.22,-228.16"/>
<polygon fill="#63b8ff" stroke="#63b8ff" points="481.12,-253.85 484.78,-263.8 488.12,-253.74 481.12,-253.85"/>
</a>
</g>
</g>
<!-- Node14 -->
<g id="Node000014" class="node">
<title>Node14</title>
<g id="a_Node000014"><a xlink:href="element__factory_8cpp.html" target="_top" xlink:title=" ">
<polygon fill="white" stroke="#666666" points="403.5,-228 280.5,-228 280.5,-198 403.5,-198 403.5,-228"/>
<text text-anchor="start" x="288.5" y="-216" font-family="Helvetica,sans-Serif" font-size="10.00">src/elements/element</text>
<text text-anchor="middle" x="342" y="-205" font-family="Helvetica,sans-Serif" font-size="10.00">_factory.cpp</text>
</a>
</g>
</g>
<!-- Node5&#45;&gt;Node14 -->
<g id="edge14_Node000005_Node000014" class="edge">
<title>Node5&#45;&gt;Node14</title>
<g id="a_edge14_Node000005_Node000014"><a xlink:title=" ">
<path fill="none" stroke="#63b8ff" d="M444.3,-259.78C421.75,-249.69 394.16,-237.34 373.31,-228.01"/>
<polygon fill="#63b8ff" stroke="#63b8ff" points="443.06,-263.06 453.62,-263.95 445.92,-256.68 443.06,-263.06"/>
</a>
</g>
</g>
<!-- Node7 -->
<g id="Node000007" class="node">
<title>Node7</title>
<g id="a_Node000007"><a xlink:href="dynamic-neural-field-composer-dynamic_8h.html" target="_top" xlink:title=" ">
<polygon fill="white" stroke="#666666" points="427,-162 279,-162 279,-132 427,-132 427,-162"/>
<text text-anchor="start" x="287" y="-150" font-family="Helvetica,sans-Serif" font-size="10.00">include/dynamic&#45;neural</text>
<text text-anchor="middle" x="353" y="-139" font-family="Helvetica,sans-Serif" font-size="10.00">&#45;field&#45;composer&#45;dynamic.h</text>
</a>
</g>
</g>
<!-- Node6&#45;&gt;Node7 -->
<g id="edge6_Node000006_Node000007" class="edge">
<title>Node6&#45;&gt;Node7</title>
<g id="a_edge6_Node000006_Node000007"><a xlink:title=" ">
<path fill="none" stroke="#63b8ff" d="M446.16,-193.51C425.61,-183.47 400.61,-171.26 381.68,-162.01"/>
<polygon fill="#63b8ff" stroke="#63b8ff" points="444.73,-196.71 455.25,-197.95 447.8,-190.42 444.73,-196.71"/>
</a>
</g>
</g>
<!-- Node9 -->
<g id="Node000009" class="node">
<title>Node9</title>
<g id="a_Node000009"><a xlink:href="static__layout_8h.html" target="_top" xlink:title=" ">
<polygon fill="white" stroke="#666666" points="251.5,-162 126.5,-162 126.5,-132 251.5,-132 251.5,-162"/>
<text text-anchor="start" x="134.5" y="-150" font-family="Helvetica,sans-Serif" font-size="10.00">include/user_interface</text>
<text text-anchor="middle" x="189" y="-139" font-family="Helvetica,sans-Serif" font-size="10.00">/static_layout.h</text>
</a>
</g>
</g>
<!-- Node6&#45;&gt;Node9 -->
<g id="edge8_Node000006_Node000009" class="edge">
<title>Node6&#45;&gt;Node9</title>
<g id="a_edge8_Node000006_Node000009"><a xlink:title=" ">
<path fill="none" stroke="#63b8ff" d="M411.54,-196.28C362.56,-185.65 298.52,-171.76 251.73,-161.61"/>
<polygon fill="#63b8ff" stroke="#63b8ff" points="410.92,-199.73 421.44,-198.43 412.41,-192.89 410.92,-199.73"/>
</a>
</g>
</g>
<!-- Node6&#45;&gt;Node13 -->
<g id="edge13_Node000006_Node000013" class="edge">
<title>Node6&#45;&gt;Node13</title>
<g id="a_edge13_Node000006_Node000013"><a xlink:title=" ">
<path fill="none" stroke="#63b8ff" d="M556.79,-197.92C663.67,-180.24 776.01,-165.23 845.72,-156.34"/>
<polygon fill="#63b8ff" stroke="#63b8ff" points="556.08,-194.49 546.79,-199.59 557.23,-201.4 556.08,-194.49"/>
</a>
</g>
</g>
<!-- Node8 -->
<g id="Node000008" class="node">
<title>Node8</title>
<g id="a_Node000008"><a xlink:href="dynamic-neural-field-composer-dynamic_8cpp.html" target="_top" xlink:title=" ">
<polygon fill="white" stroke="#666666" points="432.5,-96 273.5,-96 273.5,-66 432.5,-66 432.5,-96"/>
<text text-anchor="start" x="281.5" y="-84" font-family="Helvetica,sans-Serif" font-size="10.00">src/dynamic&#45;neural</text>
<text text-anchor="middle" x="353" y="-73" font-family="Helvetica,sans-Serif" font-size="10.00">&#45;field&#45;composer&#45;dynamic.cpp</text>
</a>
</g>
</g>
<!-- Node7&#45;&gt;Node8 -->
<g id="edge7_Node000007_Node000008" class="edge">
<title>Node7&#45;&gt;Node8</title>
<g id="a_edge7_Node000007_Node000008"><a xlink:title=" ">
<path fill="none" stroke="#63b8ff" d="M353,-121.54C353,-112.96 353,-103.61 353,-96.16"/>
<polygon fill="#63b8ff" stroke="#63b8ff" points="349.5,-121.8 353,-131.8 356.5,-121.8 349.5,-121.8"/>
</a>
</g>
</g>
<!-- Node9&#45;&gt;Node8 -->
<g id="edge11_Node000009_Node000008" class="edge">
<title>Node9&#45;&gt;Node8</title>
<g id="a_edge11_Node000009_Node000008"><a xlink:title=" ">
<path fill="none" stroke="#63b8ff" d="M234.64,-128.19C260.69,-118.02 292.87,-105.47 317.09,-96.01"/>
<polygon fill="#63b8ff" stroke="#63b8ff" points="233.03,-125.06 224.99,-131.95 235.58,-131.58 233.03,-125.06"/>
</a>
</g>
</g>
<!-- Node10 -->
<g id="Node000010" class="node">
<title>Node10</title>
<g id="a_Node000010"><a xlink:href="dynamic-neural-field-composer-static_8h.html" target="_top" xlink:title=" ">
<polygon fill="white" stroke="#666666" points="255.5,-96 122.5,-96 122.5,-66 255.5,-66 255.5,-96"/>
<text text-anchor="start" x="130.5" y="-84" font-family="Helvetica,sans-Serif" font-size="10.00">include/dynamic&#45;neural</text>
<text text-anchor="middle" x="189" y="-73" font-family="Helvetica,sans-Serif" font-size="10.00">&#45;field&#45;composer&#45;static.h</text>
</a>
</g>
</g>
<!-- Node9&#45;&gt;Node10 -->
<g id="edge9_Node000009_Node000010" class="edge">
<title>Node9&#45;&gt;Node10</title>
<g id="a_edge9_Node000009_Node000010"><a xlink:title=" ">
<path fill="none" stroke="#63b8ff" d="M189,-121.54C189,-112.96 189,-103.61 189,-96.16"/>
<polygon fill="#63b8ff" stroke="#63b8ff" points="185.5,-121.8 189,-131.8 192.5,-121.8 185.5,-121.8"/>
</a>
</g>
</g>
<!-- Node12 -->
<g id="Node000012" class="node">
<title>Node12</title>
<g id="a_Node000012"><a xlink:href="static__layout_8cpp.html" target="_top" xlink:title=" ">
<polygon fill="white" stroke="#666666" points="104,-96 0,-96 0,-66 104,-66 104,-96"/>
<text text-anchor="start" x="8" y="-84" font-family="Helvetica,sans-Serif" font-size="10.00">src/user_interface</text>
<text text-anchor="middle" x="52" y="-73" font-family="Helvetica,sans-Serif" font-size="10.00">/static_layout.cpp</text>
</a>
</g>
</g>
<!-- Node9&#45;&gt;Node12 -->
<g id="edge12_Node000009_Node000012" class="edge">
<title>Node9&#45;&gt;Node12</title>
<g id="a_edge12_Node000009_Node000012"><a xlink:title=" ">
<path fill="none" stroke="#63b8ff" d="M149.72,-127.65C128.17,-117.58 101.88,-105.3 82,-96.01"/>
<polygon fill="#63b8ff" stroke="#63b8ff" points="148.39,-130.89 158.93,-131.95 151.36,-124.55 148.39,-130.89"/>
</a>
</g>
</g>
<!-- Node11 -->
<g id="Node000011" class="node">
<title>Node11</title>
<g id="a_Node000011"><a xlink:href="dynamic-neural-field-composer-static_8cpp.html" target="_top" xlink:title=" ">
<polygon fill="white" stroke="#666666" points="261,-30 117,-30 117,0 261,0 261,-30"/>
<text text-anchor="start" x="125" y="-18" font-family="Helvetica,sans-Serif" font-size="10.00">src/dynamic&#45;neural</text>
<text text-anchor="middle" x="189" y="-7" font-family="Helvetica,sans-Serif" font-size="10.00">&#45;field&#45;composer&#45;static.cpp</text>
</a>
</g>
</g>
<!-- Node10&#45;&gt;Node11 -->
<g id="edge10_Node000010_Node000011" class="edge">
<title>Node10&#45;&gt;Node11</title>
<g id="a_edge10_Node000010_Node000011"><a xlink:title=" ">
<path fill="none" stroke="#63b8ff" d="M189,-55.54C189,-46.96 189,-37.61 189,-30.16"/>
<polygon fill="#63b8ff" stroke="#63b8ff" points="185.5,-55.8 189,-65.8 192.5,-55.8 185.5,-55.8"/>
</a>
</g>
</g>
<!-- Node15&#45;&gt;Node5 -->
<g id="edge16_Node000015_Node000005" class="edge">
<title>Node15&#45;&gt;Node5</title>
<g id="a_edge16_Node000015_Node000005"><a xlink:title=" ">
<path fill="none" stroke="#63b8ff" d="M420.33,-324.03C434.56,-314.34 451.31,-302.94 464.2,-294.16"/>
<polygon fill="#63b8ff" stroke="#63b8ff" points="418.16,-321.28 411.86,-329.8 422.1,-327.06 418.16,-321.28"/>
</a>
</g>
</g>
<!-- Node15&#45;&gt;Node16 -->
<g id="edge17_Node000015_Node000016" class="edge">
<title>Node15&#45;&gt;Node16</title>
<g id="a_edge17_Node000015_Node000016"><a xlink:title=" ">
<path fill="none" stroke="#63b8ff" d="M457.7,-327.52C499.71,-317.14 553.35,-303.88 593.29,-294.01"/>
<polygon fill="#63b8ff" stroke="#63b8ff" points="456.71,-324.16 447.84,-329.95 458.39,-330.95 456.71,-324.16"/>
</a>
</g>
</g>
<!-- Node15&#45;&gt;Node19 -->
<g id="edge20_Node000015_Node000019" class="edge">
<title>Node15&#45;&gt;Node19</title>
<g id="a_edge20_Node000015_Node000019"><a xlink:title=" ">
<path fill="none" stroke="#63b8ff" d="M337.43,-326.86C305.31,-316.58 264.99,-303.68 234.79,-294.01"/>
<polygon fill="#63b8ff" stroke="#63b8ff" points="336.52,-330.24 347.11,-329.95 338.65,-323.57 336.52,-330.24"/>
</a>
</g>
</g>
<!-- Node21 -->
<g id="Node000021" class="node">
<title>Node21</title>
<g id="a_Node000021"><a xlink:href="field__coupling_8cpp.html" target="_top" xlink:title=" ">
<polygon fill="white" stroke="#666666" points="109,-294 5,-294 5,-264 109,-264 109,-294"/>
<text text-anchor="start" x="13" y="-282" font-family="Helvetica,sans-Serif" font-size="10.00">src/elements/field</text>
<text text-anchor="middle" x="57" y="-271" font-family="Helvetica,sans-Serif" font-size="10.00">_coupling.cpp</text>
</a>
</g>
</g>
<!-- Node15&#45;&gt;Node21 -->
<g id="edge24_Node000015_Node000021" class="edge">
<title>Node15&#45;&gt;Node21</title>
<g id="a_edge24_Node000015_Node000021"><a xlink:title=" ">
<path fill="none" stroke="#63b8ff" d="M318.21,-331.58C263.11,-321.95 185.64,-307.95 118,-294 115.13,-293.41 112.18,-292.78 109.21,-292.14"/>
<polygon fill="#63b8ff" stroke="#63b8ff" points="317.78,-335.05 328.23,-333.32 318.98,-328.16 317.78,-335.05"/>
</a>
</g>
</g>
<!-- Node15&#45;&gt;Node22 -->
<g id="edge25_Node000015_Node000022" class="edge">
<title>Node15&#45;&gt;Node22</title>
<g id="a_edge25_Node000015_Node000022"><a xlink:title=" ">
<path fill="none" stroke="#63b8ff" d="M371.48,-322.09C363.26,-312.85 353.91,-302.36 346.61,-294.16"/>
<polygon fill="#63b8ff" stroke="#63b8ff" points="369.09,-324.66 378.35,-329.8 374.31,-320 369.09,-324.66"/>
</a>
</g>
</g>
<!-- Node17 -->
<g id="Node000017" class="node">
<title>Node17</title>
<g id="a_Node000017"><a xlink:href="simulation_8cpp.html" target="_top" xlink:title=" ">
<polygon fill="white" stroke="#666666" points="884.5,-222.5 723.5,-222.5 723.5,-203.5 884.5,-203.5 884.5,-222.5"/>
<text text-anchor="middle" x="804" y="-210.5" font-family="Helvetica,sans-Serif" font-size="10.00">src/simulation/simulation.cpp</text>
</a>
</g>
</g>
<!-- Node16&#45;&gt;Node17 -->
<g id="edge18_Node000016_Node000017" class="edge">
<title>Node16&#45;&gt;Node17</title>
<g id="a_edge18_Node000016_Node000017"><a xlink:title=" ">
<path fill="none" stroke="#63b8ff" d="M693.07,-260.1C722.63,-247.82 760.53,-232.06 783.51,-222.52"/>
<polygon fill="#63b8ff" stroke="#63b8ff" points="691.69,-256.89 683.8,-263.95 694.37,-263.35 691.69,-256.89"/>
</a>
</g>
</g>
<!-- Node18 -->
<g id="Node000018" class="node">
<title>Node18</title>
<g id="a_Node000018"><a xlink:href="simulation__file__manager_8cpp.html" target="_top" xlink:title=" ">
<polygon fill="white" stroke="#666666" points="705,-228 565,-228 565,-198 705,-198 705,-228"/>
<text text-anchor="start" x="573" y="-216" font-family="Helvetica,sans-Serif" font-size="10.00">src/simulation/simulation</text>
<text text-anchor="middle" x="635" y="-205" font-family="Helvetica,sans-Serif" font-size="10.00">_file_manager.cpp</text>
</a>
</g>
</g>
<!-- Node16&#45;&gt;Node18 -->
<g id="edge19_Node000016_Node000018" class="edge">
<title>Node16&#45;&gt;Node18</title>
<g id="a_edge19_Node000016_Node000018"><a xlink:title=" ">
<path fill="none" stroke="#63b8ff" d="M644.33,-253.83C642.31,-245.17 640.09,-235.7 638.32,-228.16"/>
<polygon fill="#63b8ff" stroke="#63b8ff" points="640.98,-254.86 646.67,-263.8 647.8,-253.26 640.98,-254.86"/>
</a>
</g>
</g>
<!-- Node19&#45;&gt;Node7 -->
<g id="edge21_Node000019_Node000007" class="edge">
<title>Node19&#45;&gt;Node7</title>
<g id="a_edge21_Node000019_Node000007"><a xlink:title=" ">
<path fill="none" stroke="#63b8ff" d="M151.48,-258.91C124.3,-243.22 96.09,-220.05 114,-198 119.33,-191.44 210.79,-173.65 278.99,-161.16"/>
<polygon fill="#63b8ff" stroke="#63b8ff" points="150.14,-262.17 160.59,-263.94 153.52,-256.04 150.14,-262.17"/>
</a>
</g>
</g>
<!-- Node19&#45;&gt;Node9 -->
<g id="edge22_Node000019_Node000009" class="edge">
<title>Node19&#45;&gt;Node9</title>
<g id="a_edge22_Node000019_Node000009"><a xlink:title=" ">
<path fill="none" stroke="#63b8ff" d="M119.58,-259.69C104.35,-252.37 90.12,-242.17 81,-228 73.78,-216.79 73.82,-209.24 81,-198 91.96,-180.85 110.47,-169.5 129.11,-162.02"/>
<polygon fill="#63b8ff" stroke="#63b8ff" points="118.6,-263.08 129.16,-263.89 121.41,-256.67 118.6,-263.08"/>
</a>
</g>
</g>
<!-- Node20 -->
<g id="Node000020" class="node">
<title>Node20</title>
<g id="a_Node000020"><a xlink:href="node__graph__window_8cpp.html" target="_top" xlink:title=" ">
<polygon fill="white" stroke="#666666" points="262.5,-228 123.5,-228 123.5,-198 262.5,-198 262.5,-228"/>
<text text-anchor="start" x="131.5" y="-216" font-family="Helvetica,sans-Serif" font-size="10.00">src/user_interface</text>
<text text-anchor="middle" x="193" y="-205" font-family="Helvetica,sans-Serif" font-size="10.00">/node_graph_window.cpp</text>
</a>
</g>
</g>
<!-- Node19&#45;&gt;Node20 -->
<g id="edge23_Node000019_Node000020" class="edge">
<title>Node19&#45;&gt;Node20</title>
<g id="a_edge23_Node000019_Node000020"><a xlink:title=" ">
<path fill="none" stroke="#63b8ff" d="M191.76,-253.54C192.03,-244.96 192.32,-235.61 192.56,-228.16"/>
<polygon fill="#63b8ff" stroke="#63b8ff" points="188.26,-253.69 191.44,-263.8 195.25,-253.91 188.26,-253.69"/>
</a>
</g>
</g>
<!-- Node25&#45;&gt;Node5 -->
<g id="edge33_Node000025_Node000005" class="edge">
<title>Node25&#45;&gt;Node5</title>
<g id="a_edge33_Node000025_Node000005"><a xlink:title=" ">
<path fill="none" stroke="#63b8ff" d="M679.52,-327.52C637.03,-317.14 582.77,-303.88 542.36,-294.01"/>
<polygon fill="#63b8ff" stroke="#63b8ff" points="678.96,-330.98 689.5,-329.95 680.62,-324.18 678.96,-330.98"/>
</a>
</g>
</g>
<!-- Node25&#45;&gt;Node13 -->
<g id="edge39_Node000025_Node000013" class="edge">
<title>Node25&#45;&gt;Node13</title>
<g id="a_edge39_Node000025_Node000013"><a xlink:title=" ">
<path fill="none" stroke="#63b8ff" d="M811.77,-326.32C830.4,-318.77 849.56,-308.29 864,-294 901.24,-257.13 910.18,-191.14 912.32,-162.23"/>
<polygon fill="#63b8ff" stroke="#63b8ff" points="810.49,-323.07 802.4,-329.91 812.99,-329.61 810.49,-323.07"/>
</a>
</g>
</g>
<!-- Node25&#45;&gt;Node16 -->
<g id="edge34_Node000025_Node000016" class="edge">
<title>Node25&#45;&gt;Node16</title>
<g id="a_edge34_Node000025_Node000016"><a xlink:title=" ">
<path fill="none" stroke="#63b8ff" d="M716.73,-324.03C702.05,-314.34 684.77,-302.94 671.47,-294.16"/>
<polygon fill="#63b8ff" stroke="#63b8ff" points="715.2,-327.21 725.47,-329.8 719.05,-321.37 715.2,-327.21"/>
</a>
</g>
</g>
<!-- Node25&#45;&gt;Node19 -->
<g id="edge35_Node000025_Node000019" class="edge">
<title>Node25&#45;&gt;Node19</title>
<g id="a_edge35_Node000025_Node000019"><a xlink:title=" ">
<path fill="none" stroke="#63b8ff" d="M669.8,-334.35C657.17,-332.84 644.23,-331.34 632,-330 468.64,-312.07 426.65,-317.5 264,-294 261.06,-293.58 258.06,-293.11 255.04,-292.63"/>
<polygon fill="#63b8ff" stroke="#63b8ff" points="669.49,-337.84 679.84,-335.55 670.33,-330.89 669.49,-337.84"/>
</a>
</g>
</g>
<!-- Node25&#45;&gt;Node22 -->
<g id="edge37_Node000025_Node000022" class="edge">
<title>Node25&#45;&gt;Node22</title>
<g id="a_edge37_Node000025_Node000022"><a xlink:title=" ">
<path fill="none" stroke="#63b8ff" d="M669.78,-333.93C600.15,-324.56 495,-309.72 404,-294 401.07,-293.49 398.07,-292.96 395.05,-292.41"/>
<polygon fill="#63b8ff" stroke="#63b8ff" points="669.42,-337.41 679.8,-335.27 670.35,-330.47 669.42,-337.41"/>
</a>
</g>
</g>
<!-- Node25&#45;&gt;Node24 -->
<g id="edge38_Node000025_Node000024" class="edge">
<title>Node25&#45;&gt;Node24</title>
<g id="a_edge38_Node000025_Node000024"><a xlink:title=" ">
<path fill="none" stroke="#63b8ff" d="M809.28,-327.25C847.73,-316.91 896.49,-303.8 932.89,-294.01"/>
<polygon fill="#63b8ff" stroke="#63b8ff" points="807.98,-323.98 799.23,-329.95 809.8,-330.74 807.98,-323.98"/>
</a>
</g>
</g>
<!-- Node26 -->
<g id="Node000026" class="node">
<title>Node26</title>
<g id="a_Node000026"><a xlink:href="neural__field__2d_8cpp.html" target="_top" xlink:title=" ">
<polygon fill="white" stroke="#666666" points="855.5,-294 742.5,-294 742.5,-264 855.5,-264 855.5,-294"/>
<text text-anchor="start" x="750.5" y="-282" font-family="Helvetica,sans-Serif" font-size="10.00">src/elements/neural</text>
<text text-anchor="middle" x="799" y="-271" font-family="Helvetica,sans-Serif" font-size="10.00">_field_2d.cpp</text>
</a>
</g>
</g>
<!-- Node25&#45;&gt;Node26 -->
<g id="edge36_Node000025_Node000026" class="edge">
<title>Node25&#45;&gt;Node26</title>
<g id="a_edge36_Node000025_Node000026"><a xlink:title=" ">
<path fill="none" stroke="#63b8ff" d="M765.03,-321.81C772.48,-312.64 780.9,-302.28 787.49,-294.16"/>
<polygon fill="#63b8ff" stroke="#63b8ff" points="762.13,-319.83 758.54,-329.8 767.56,-324.24 762.13,-319.83"/>
</a>
</g>
</g>
</g>
</svg>
