<?xml version="1.0" encoding="UTF-8" standalone="no"?>
<!DOCTYPE svg PUBLIC "-//W3C//DTD SVG 1.1//EN"
 "http://www.w3.org/Graphics/SVG/1.1/DTD/svg11.dtd">
<!-- Generated by graphviz version 2.43.0 (0)
 -->
<!-- Title: include/application/application.h Pages: 1 -->
<svg width="1530pt" height="456pt"
 viewBox="0.00 0.00 1530.00 456.00" xmlns="http://www.w3.org/2000/svg" xmlns:xlink="http://www.w3.org/1999/xlink">
<g id="graph0" class="graph" transform="scale(1 1) rotate(0) translate(4 452)">
<title>include/application/application.h</title>
<!-- Node1 -->
<g id="Node000001" class="node">
<title>Node1</title>
<g id="a_Node000001"><a xlink:title=" ">
<polygon fill="#999999" stroke="#666666" points="656,-448 547,-448 547,-418 656,-418 656,-448"/>
<text text-anchor="start" x="555" y="-436" font-family="Helvetica,sans-Serif" font-size="10.00">include/application</text>
<text text-anchor="middle" x="601.5" y="-425" font-family="Helvetica,sans-Serif" font-size="10.00">/application.h</text>
</a>
</g>
</g>
<!-- Node2 -->
<g id="Node000002" class="node">
<title>Node2</title>
<g id="a_Node000002"><a xlink:title=" ">
<polygon fill="#e0e0e0" stroke="#999999" points="69,-376.5 0,-376.5 0,-357.5 69,-357.5 69,-376.5"/>
<text text-anchor="middle" x="34.5" y="-364.5" font-family="Helvetica,sans-Serif" font-size="10.00">type_traits</text>
</a>
</g>
</g>
<!-- Node1&#45;&gt;Node2 -->
<g id="edge1_Node000001_Node000002" class="edge">
<title>Node1&#45;&gt;Node2</title>
<g id="a_edge1_Node000001_Node000002"><a xlink:title=" ">
<path fill="none" stroke="#63b8ff" d="M546.98,-430.73C451.08,-427.62 246.38,-417.1 77.5,-382 74.09,-381.29 70.57,-380.41 67.09,-379.43"/>
<polygon fill="#63b8ff" stroke="#63b8ff" points="68.04,-376.06 57.46,-376.5 66.01,-382.76 68.04,-376.06"/>
</a>
</g>
</g>
<!-- Node3 -->
<g id="Node000003" class="node">
<title>Node3</title>
<g id="a_Node000003"><a xlink:title=" ">
<polygon fill="#e0e0e0" stroke="#999999" points="194,-382 87,-382 87,-352 194,-352 194,-382"/>
<text text-anchor="start" x="95" y="-370" font-family="Helvetica,sans-Serif" font-size="10.00">imgui&#45;platform&#45;kit</text>
<text text-anchor="middle" x="140.5" y="-359" font-family="Helvetica,sans-Serif" font-size="10.00">/user_interface.h</text>
</a>
</g>
</g>
<!-- Node1&#45;&gt;Node3 -->
<g id="edge2_Node000001_Node000003" class="edge">
<title>Node1&#45;&gt;Node3</title>
<g id="a_edge2_Node000001_Node000003"><a xlink:title=" ">
<path fill="none" stroke="#63b8ff" d="M546.95,-426.39C470.89,-418.27 328.76,-402 208.5,-382 207.05,-381.76 205.59,-381.51 204.11,-381.25"/>
<polygon fill="#63b8ff" stroke="#63b8ff" points="204.72,-377.8 194.25,-379.46 203.46,-384.69 204.72,-377.8"/>
</a>
</g>
</g>
<!-- Node4 -->
<g id="Node000004" class="node">
<title>Node4</title>
<g id="a_Node000004"><a xlink:href="exception_8h.html" target="_top" xlink:title=" ">
<polygon fill="white" stroke="#666666" points="356.5,-79.5 226.5,-79.5 226.5,-60.5 356.5,-60.5 356.5,-79.5"/>
<text text-anchor="middle" x="291.5" y="-67.5" font-family="Helvetica,sans-Serif" font-size="10.00">exceptions/exception.h</text>
</a>
</g>
</g>
<!-- Node1&#45;&gt;Node4 -->
<g id="edge3_Node000001_Node000004" class="edge">
<title>Node1&#45;&gt;Node4</title>
<g id="a_edge3_Node000001_Node000004"><a xlink:title=" ">
<path fill="none" stroke="#63b8ff" d="M546.79,-425.61C441.84,-411.82 222.5,-374.94 222.5,-307.5 222.5,-307.5 222.5,-307.5 222.5,-190 222.5,-148.28 254.63,-108.09 275.04,-86.77"/>
<polygon fill="#63b8ff" stroke="#63b8ff" points="277.64,-89.12 282.19,-79.55 272.67,-84.19 277.64,-89.12"/>
</a>
</g>
</g>
<!-- Node7 -->
<g id="Node000007" class="node">
<title>Node7</title>
<g id="a_Node000007"><a xlink:href="simulation_8h.html" target="_top" xlink:title=" ">
<polygon fill="white" stroke="#666666" points="1293.5,-316 1161.5,-316 1161.5,-297 1293.5,-297 1293.5,-316"/>
<text text-anchor="middle" x="1227.5" y="-304" font-family="Helvetica,sans-Serif" font-size="10.00">simulation/simulation.h</text>
</a>
</g>
</g>
<!-- Node1&#45;&gt;Node7 -->
<g id="edge6_Node000001_Node000007" class="edge">
<title>Node1&#45;&gt;Node7</title>
<g id="a_edge6_Node000001_Node000007"><a xlink:title=" ">
<path fill="none" stroke="#63b8ff" d="M609.56,-417.71C621.04,-398.92 644.02,-366.57 673.5,-352 755.38,-311.53 1019.14,-306.58 1150.98,-306.75"/>
<polygon fill="#63b8ff" stroke="#63b8ff" points="1151.01,-310.25 1161.01,-306.77 1151.02,-303.25 1151.01,-310.25"/>
</a>
</g>
</g>
<!-- Node28 -->
<g id="Node000028" class="node">
<title>Node28</title>
<g id="a_Node000028"><a xlink:href="visualization_8h.html" target="_top" xlink:title=" ">
<polygon fill="white" stroke="#666666" points="626,-376.5 473,-376.5 473,-357.5 626,-357.5 626,-376.5"/>
<text text-anchor="middle" x="549.5" y="-364.5" font-family="Helvetica,sans-Serif" font-size="10.00">visualization/visualization.h</text>
</a>
</g>
</g>
<!-- Node1&#45;&gt;Node28 -->
<g id="edge43_Node000001_Node000028" class="edge">
<title>Node1&#45;&gt;Node28</title>
<g id="a_edge43_Node000001_Node000028"><a xlink:title=" ">
<path fill="none" stroke="#63b8ff" d="M589.96,-417.8C582.01,-408.01 571.42,-394.98 563.07,-384.7"/>
<polygon fill="#63b8ff" stroke="#63b8ff" points="565.71,-382.4 556.69,-376.84 560.28,-386.81 565.71,-382.4"/>
</a>
</g>
</g>
<!-- Node33 -->
<g id="Node000033" class="node">
<title>Node33</title>
<g id="a_Node000033"><a xlink:href="IconsFontAwesome6_8h.html" target="_top" xlink:title=" ">
<polygon fill="white" stroke="#666666" points="812,-382 683,-382 683,-352 812,-352 812,-382"/>
<text text-anchor="start" x="691" y="-370" font-family="Helvetica,sans-Serif" font-size="10.00">user_interface/fonts</text>
<text text-anchor="middle" x="747.5" y="-359" font-family="Helvetica,sans-Serif" font-size="10.00">/IconsFontAwesome6.h</text>
</a>
</g>
</g>
<!-- Node1&#45;&gt;Node33 -->
<g id="edge59_Node000001_Node000033" class="edge">
<title>Node1&#45;&gt;Node33</title>
<g id="a_edge59_Node000001_Node000033"><a xlink:title=" ">
<path fill="none" stroke="#63b8ff" d="M633.54,-417.95C654.94,-408.58 683.27,-396.16 706.33,-386.05"/>
<polygon fill="#63b8ff" stroke="#63b8ff" points="707.78,-389.23 715.53,-382.01 704.97,-382.82 707.78,-389.23"/>
</a>
</g>
</g>
<!-- Node34 -->
<g id="Node000034" class="node">
<title>Node34</title>
<g id="a_Node000034"><a xlink:href="fa_8h.html" target="_top" xlink:title=" ">
<polygon fill="white" stroke="#666666" points="966.5,-376.5 830.5,-376.5 830.5,-357.5 966.5,-357.5 966.5,-376.5"/>
<text text-anchor="middle" x="898.5" y="-364.5" font-family="Helvetica,sans-Serif" font-size="10.00">user_interface/fonts/fa.h</text>
</a>
</g>
</g>
<!-- Node1&#45;&gt;Node34 -->
<g id="edge60_Node000001_Node000034" class="edge">
<title>Node1&#45;&gt;Node34</title>
<g id="a_edge60_Node000001_Node000034"><a xlink:title=" ">
<path fill="none" stroke="#63b8ff" d="M656.32,-420.19C711.43,-408.31 795.64,-390.17 848.84,-378.7"/>
<polygon fill="#63b8ff" stroke="#63b8ff" points="849.69,-382.1 858.73,-376.57 848.21,-375.26 849.69,-382.1"/>
</a>
</g>
</g>
<!-- Node35 -->
<g id="Node000035" class="node">
<title>Node35</title>
<g id="a_Node000035"><a xlink:href="imgui__freetype_8h.html" target="_top" xlink:title=" ">
<polygon fill="white" stroke="#666666" points="1325.5,-382 1211.5,-382 1211.5,-352 1325.5,-352 1325.5,-382"/>
<text text-anchor="start" x="1219.5" y="-370" font-family="Helvetica,sans-Serif" font-size="10.00">user_interface/fonts</text>
<text text-anchor="middle" x="1268.5" y="-359" font-family="Helvetica,sans-Serif" font-size="10.00">/imgui_freetype.h</text>
</a>
</g>
</g>
<!-- Node1&#45;&gt;Node35 -->
<g id="edge61_Node000001_Node000035" class="edge">
<title>Node1&#45;&gt;Node35</title>
<g id="a_edge61_Node000001_Node000035"><a xlink:title=" ">
<path fill="none" stroke="#63b8ff" d="M656.08,-426.76C777.38,-415.12 1069.01,-387.14 1201.27,-374.45"/>
<polygon fill="#63b8ff" stroke="#63b8ff" points="1201.65,-377.93 1211.27,-373.49 1200.98,-370.96 1201.65,-377.93"/>
</a>
</g>
</g>
<!-- Node5 -->
<g id="Node000005" class="node">
<title>Node5</title>
<g id="a_Node000005"><a xlink:title=" ">
<polygon fill="#e0e0e0" stroke="#999999" points="324,-19 259,-19 259,0 324,0 324,-19"/>
<text text-anchor="middle" x="291.5" y="-7" font-family="Helvetica,sans-Serif" font-size="10.00">exception</text>
</a>
</g>
</g>
<!-- Node4&#45;&gt;Node5 -->
<g id="edge4_Node000004_Node000005" class="edge">
<title>Node4&#45;&gt;Node5</title>
<g id="a_edge4_Node000004_Node000005"><a xlink:title=" ">
<path fill="none" stroke="#63b8ff" d="M291.5,-60.37C291.5,-52.25 291.5,-39.81 291.5,-29.39"/>
<polygon fill="#63b8ff" stroke="#63b8ff" points="295,-29.17 291.5,-19.17 288,-29.17 295,-29.17"/>
</a>
</g>
</g>
<!-- Node6 -->
<g id="Node000006" class="node">
<title>Node6</title>
<g id="a_Node000006"><a xlink:title=" ">
<polygon fill="#e0e0e0" stroke="#999999" points="482.5,-19 438.5,-19 438.5,0 482.5,0 482.5,-19"/>
<text text-anchor="middle" x="460.5" y="-7" font-family="Helvetica,sans-Serif" font-size="10.00">string</text>
</a>
</g>
</g>
<!-- Node4&#45;&gt;Node6 -->
<g id="edge5_Node000004_Node000006" class="edge">
<title>Node4&#45;&gt;Node6</title>
<g id="a_edge5_Node000004_Node000006"><a xlink:title=" ">
<path fill="none" stroke="#63b8ff" d="M316.07,-60.49C345.86,-50.18 396.11,-32.79 428.79,-21.48"/>
<polygon fill="#63b8ff" stroke="#63b8ff" points="430.02,-24.76 438.32,-18.18 427.73,-18.14 430.02,-24.76"/>
</a>
</g>
</g>
<!-- Node7&#45;&gt;Node4 -->
<g id="edge41_Node000007_Node000004" class="edge">
<title>Node7&#45;&gt;Node4</title>
<g id="a_edge41_Node000007_Node000004"><a xlink:title=" ">
<path fill="none" stroke="#63b8ff" d="M1161.26,-302.1C965.81,-291.52 401.1,-256.83 336.5,-206 300.68,-177.81 293.12,-120.13 291.69,-90.11"/>
<polygon fill="#63b8ff" stroke="#63b8ff" points="295.17,-89.65 291.39,-79.75 288.18,-89.85 295.17,-89.65"/>
</a>
</g>
</g>
<!-- Node7&#45;&gt;Node6 -->
<g id="edge9_Node000007_Node000006" class="edge">
<title>Node7&#45;&gt;Node6</title>
<g id="a_edge9_Node000007_Node000006"><a xlink:title=" ">
<path fill="none" stroke="#63b8ff" d="M1231.08,-296.85C1239.78,-274.33 1259.32,-213.06 1231.5,-176 1140.28,-54.47 627.52,-19.26 492.88,-12.05"/>
<polygon fill="#63b8ff" stroke="#63b8ff" points="492.96,-8.55 482.79,-11.53 492.59,-15.54 492.96,-8.55"/>
</a>
</g>
</g>
<!-- Node8 -->
<g id="Node000008" class="node">
<title>Node8</title>
<g id="a_Node000008"><a xlink:title=" ">
<polygon fill="#e0e0e0" stroke="#999999" points="1415,-19 1368,-19 1368,0 1415,0 1415,-19"/>
<text text-anchor="middle" x="1391.5" y="-7" font-family="Helvetica,sans-Serif" font-size="10.00">vector</text>
</a>
</g>
</g>
<!-- Node7&#45;&gt;Node8 -->
<g id="edge7_Node000007_Node000008" class="edge">
<title>Node7&#45;&gt;Node8</title>
<g id="a_edge7_Node000007_Node000008"><a xlink:title=" ">
<path fill="none" stroke="#63b8ff" d="M1271.66,-296.98C1323.5,-284.11 1402.5,-254.29 1402.5,-192 1402.5,-192 1402.5,-192 1402.5,-129.5 1402.5,-93.84 1397.54,-52.42 1394.28,-29.05"/>
<polygon fill="#63b8ff" stroke="#63b8ff" points="1397.74,-28.53 1392.85,-19.13 1390.82,-29.53 1397.74,-28.53"/>
</a>
</g>
</g>
<!-- Node9 -->
<g id="Node000009" class="node">
<title>Node9</title>
<g id="a_Node000009"><a xlink:title=" ">
<polygon fill="#e0e0e0" stroke="#999999" points="1222.5,-200.5 1164.5,-200.5 1164.5,-181.5 1222.5,-181.5 1222.5,-200.5"/>
<text text-anchor="middle" x="1193.5" y="-188.5" font-family="Helvetica,sans-Serif" font-size="10.00">memory</text>
</a>
</g>
</g>
<!-- Node7&#45;&gt;Node9 -->
<g id="edge8_Node000007_Node000009" class="edge">
<title>Node7&#45;&gt;Node9</title>
<g id="a_edge8_Node000007_Node000009"><a xlink:title=" ">
<path fill="none" stroke="#63b8ff" d="M1224.94,-296.97C1219.46,-278.65 1206.44,-235.18 1198.98,-210.31"/>
<polygon fill="#63b8ff" stroke="#63b8ff" points="1202.31,-209.2 1196.09,-200.63 1195.6,-211.21 1202.31,-209.2"/>
</a>
</g>
</g>
<!-- Node10 -->
<g id="Node000010" class="node">
<title>Node10</title>
<g id="a_Node000010"><a xlink:title=" ">
<polygon fill="#e0e0e0" stroke="#999999" points="1349.5,-19 1281.5,-19 1281.5,0 1349.5,0 1349.5,-19"/>
<text text-anchor="middle" x="1315.5" y="-7" font-family="Helvetica,sans-Serif" font-size="10.00">filesystem</text>
</a>
</g>
</g>
<!-- Node7&#45;&gt;Node10 -->
<g id="edge10_Node000007_Node000010" class="edge">
<title>Node7&#45;&gt;Node10</title>
<g id="a_edge10_Node000007_Node000010"><a xlink:title=" ">
<path fill="none" stroke="#63b8ff" d="M1265.46,-296.97C1284.99,-290.5 1307.21,-279.46 1319.5,-261 1368.39,-187.57 1337.3,-73.27 1322.28,-28.94"/>
<polygon fill="#63b8ff" stroke="#63b8ff" points="1325.49,-27.51 1318.86,-19.24 1318.88,-29.84 1325.49,-27.51"/>
</a>
</g>
</g>
<!-- Node11 -->
<g id="Node000011" class="node">
<title>Node11</title>
<g id="a_Node000011"><a xlink:title=" ">
<polygon fill="#e0e0e0" stroke="#999999" points="1043.5,-19 993.5,-19 993.5,0 1043.5,0 1043.5,-19"/>
<text text-anchor="middle" x="1018.5" y="-7" font-family="Helvetica,sans-Serif" font-size="10.00">chrono</text>
</a>
</g>
</g>
<!-- Node7&#45;&gt;Node11 -->
<g id="edge11_Node000007_Node000011" class="edge">
<title>Node7&#45;&gt;Node11</title>
<g id="a_edge11_Node000007_Node000011"><a xlink:title=" ">
<path fill="none" stroke="#63b8ff" d="M1237.94,-296.87C1246.92,-288.7 1259.24,-275.55 1264.5,-261 1277.34,-225.47 1277.63,-211.42 1264.5,-176 1239.85,-109.51 1219.73,-93.99 1160.5,-55 1151.39,-49 1092.48,-31.55 1053.46,-20.36"/>
<polygon fill="#63b8ff" stroke="#63b8ff" points="1054.1,-16.91 1043.52,-17.53 1052.18,-23.64 1054.1,-16.91"/>
</a>
</g>
</g>
<!-- Node12 -->
<g id="Node000012" class="node">
<title>Node12</title>
<g id="a_Node000012"><a xlink:href="element_8h.html" target="_top" xlink:title=" ">
<polygon fill="white" stroke="#666666" points="985,-261 870,-261 870,-242 985,-242 985,-261"/>
<text text-anchor="middle" x="927.5" y="-249" font-family="Helvetica,sans-Serif" font-size="10.00">elements/element.h</text>
</a>
</g>
</g>
<!-- Node7&#45;&gt;Node12 -->
<g id="edge12_Node000007_Node000012" class="edge">
<title>Node7&#45;&gt;Node12</title>
<g id="a_edge12_Node000007_Node000012"><a xlink:title=" ">
<path fill="none" stroke="#63b8ff" d="M1179.3,-296.98C1126.75,-287.7 1042.65,-272.84 986.27,-262.88"/>
<polygon fill="#63b8ff" stroke="#63b8ff" points="986.53,-259.38 976.08,-261.08 985.32,-266.27 986.53,-259.38"/>
</a>
</g>
</g>
<!-- Node21 -->
<g id="Node000021" class="node">
<title>Node21</title>
<g id="a_Node000021"><a xlink:href="utils_8h.html" target="_top" xlink:title=" ">
<polygon fill="white" stroke="#666666" points="1260,-79.5 1213,-79.5 1213,-60.5 1260,-60.5 1260,-79.5"/>
<text text-anchor="middle" x="1236.5" y="-67.5" font-family="Helvetica,sans-Serif" font-size="10.00">utils.h</text>
</a>
</g>
</g>
<!-- Node7&#45;&gt;Node21 -->
<g id="edge42_Node000007_Node000021" class="edge">
<title>Node7&#45;&gt;Node21</title>
<g id="a_edge42_Node000007_Node000021"><a xlink:title=" ">
<path fill="none" stroke="#63b8ff" d="M1255.15,-296.98C1272.08,-290.17 1292.39,-278.76 1302.5,-261 1336.43,-201.42 1279.48,-121.45 1251.1,-87.43"/>
<polygon fill="#63b8ff" stroke="#63b8ff" points="1253.74,-85.13 1244.58,-79.81 1248.42,-89.68 1253.74,-85.13"/>
</a>
</g>
</g>
<!-- Node12&#45;&gt;Node4 -->
<g id="edge20_Node000012_Node000004" class="edge">
<title>Node12&#45;&gt;Node4</title>
<g id="a_edge20_Node000012_Node000004"><a xlink:title=" ">
<path fill="none" stroke="#63b8ff" d="M869.96,-249.27C733.24,-245.88 397.19,-234.7 355.5,-206 350.25,-202.39 315.32,-124.71 299.39,-88.85"/>
<polygon fill="#63b8ff" stroke="#63b8ff" points="302.53,-87.29 295.28,-79.57 296.13,-90.13 302.53,-87.29"/>
</a>
</g>
</g>
<!-- Node12&#45;&gt;Node6 -->
<g id="edge14_Node000012_Node000006" class="edge">
<title>Node12&#45;&gt;Node6</title>
<g id="a_edge14_Node000012_Node000006"><a xlink:title=" ">
<path fill="none" stroke="#63b8ff" d="M869.64,-248.69C838.19,-244.38 801.69,-233.26 781.5,-206 741.39,-151.84 839.91,-105.7 795.5,-55 775.71,-32.4 573.17,-17.48 492.96,-12.42"/>
<polygon fill="#63b8ff" stroke="#63b8ff" points="493.12,-8.92 482.92,-11.79 492.69,-15.91 493.12,-8.92"/>
</a>
</g>
</g>
<!-- Node12&#45;&gt;Node8 -->
<g id="edge13_Node000012_Node000008" class="edge">
<title>Node12&#45;&gt;Node8</title>
<g id="a_edge13_Node000012_Node000008"><a xlink:title=" ">
<path fill="none" stroke="#63b8ff" d="M985.39,-243.66C1024.22,-237.48 1075.69,-226.15 1117.5,-206 1136.88,-196.66 1137.7,-188.09 1155.5,-176 1222.21,-130.67 1247.84,-133.21 1312.5,-85 1336.44,-67.15 1361,-42.87 1376.24,-26.95"/>
<polygon fill="#63b8ff" stroke="#63b8ff" points="1378.99,-29.14 1383.32,-19.46 1373.9,-24.33 1378.99,-29.14"/>
</a>
</g>
</g>
<!-- Node12&#45;&gt;Node9 -->
<g id="edge16_Node000012_Node000009" class="edge">
<title>Node12&#45;&gt;Node9</title>
<g id="a_edge16_Node000012_Node000009"><a xlink:title=" ">
<path fill="none" stroke="#63b8ff" d="M979.26,-241.95C1024.71,-234.03 1092.45,-221.19 1150.5,-206 1153.28,-205.27 1156.14,-204.47 1159,-203.62"/>
<polygon fill="#63b8ff" stroke="#63b8ff" points="1160.12,-206.94 1168.64,-200.65 1158.05,-200.26 1160.12,-206.94"/>
</a>
</g>
</g>
<!-- Node13 -->
<g id="Node000013" class="node">
<title>Node13</title>
<g id="a_Node000013"><a xlink:title=" ">
<polygon fill="#e0e0e0" stroke="#999999" points="884,-200.5 791,-200.5 791,-181.5 884,-181.5 884,-200.5"/>
<text text-anchor="middle" x="837.5" y="-188.5" font-family="Helvetica,sans-Serif" font-size="10.00">unordered_map</text>
</a>
</g>
</g>
<!-- Node12&#45;&gt;Node13 -->
<g id="edge15_Node000012_Node000013" class="edge">
<title>Node12&#45;&gt;Node13</title>
<g id="a_edge15_Node000012_Node000013"><a xlink:title=" ">
<path fill="none" stroke="#63b8ff" d="M914.22,-241.87C899.86,-232.54 876.74,-217.51 859.63,-206.38"/>
<polygon fill="#63b8ff" stroke="#63b8ff" points="861.13,-203.18 850.83,-200.67 857.31,-209.05 861.13,-203.18"/>
</a>
</g>
</g>
<!-- Node14 -->
<g id="Node000014" class="node">
<title>Node14</title>
<g id="a_Node000014"><a xlink:title=" ">
<polygon fill="#e0e0e0" stroke="#999999" points="952.5,-200.5 902.5,-200.5 902.5,-181.5 952.5,-181.5 952.5,-200.5"/>
<text text-anchor="middle" x="927.5" y="-188.5" font-family="Helvetica,sans-Serif" font-size="10.00">ranges</text>
</a>
</g>
</g>
<!-- Node12&#45;&gt;Node14 -->
<g id="edge17_Node000012_Node000014" class="edge">
<title>Node12&#45;&gt;Node14</title>
<g id="a_edge17_Node000012_Node000014"><a xlink:title=" ">
<path fill="none" stroke="#63b8ff" d="M927.5,-241.87C927.5,-233.75 927.5,-221.31 927.5,-210.89"/>
<polygon fill="#63b8ff" stroke="#63b8ff" points="931,-210.67 927.5,-200.67 924,-210.67 931,-210.67"/>
</a>
</g>
</g>
<!-- Node15 -->
<g id="Node000015" class="node">
<title>Node15</title>
<g id="a_Node000015"><a xlink:title=" ">
<polygon fill="#e0e0e0" stroke="#999999" points="1034.5,-200.5 970.5,-200.5 970.5,-181.5 1034.5,-181.5 1034.5,-200.5"/>
<text text-anchor="middle" x="1002.5" y="-188.5" font-family="Helvetica,sans-Serif" font-size="10.00">algorithm</text>
</a>
</g>
</g>
<!-- Node12&#45;&gt;Node15 -->
<g id="edge18_Node000012_Node000015" class="edge">
<title>Node12&#45;&gt;Node15</title>
<g id="a_edge18_Node000012_Node000015"><a xlink:title=" ">
<path fill="none" stroke="#63b8ff" d="M938.57,-241.87C950.31,-232.71 969.09,-218.06 983.26,-207.01"/>
<polygon fill="#63b8ff" stroke="#63b8ff" points="985.66,-209.58 991.39,-200.67 981.35,-204.06 985.66,-209.58"/>
</a>
</g>
</g>
<!-- Node16 -->
<g id="Node000016" class="node">
<title>Node16</title>
<g id="a_Node000016"><a xlink:title=" ">
<polygon fill="#e0e0e0" stroke="#999999" points="1108.5,-200.5 1052.5,-200.5 1052.5,-181.5 1108.5,-181.5 1108.5,-200.5"/>
<text text-anchor="middle" x="1080.5" y="-188.5" font-family="Helvetica,sans-Serif" font-size="10.00">numeric</text>
</a>
</g>
</g>
<!-- Node12&#45;&gt;Node16 -->
<g id="edge19_Node000012_Node000016" class="edge">
<title>Node12&#45;&gt;Node16</title>
<g id="a_edge19_Node000012_Node000016"><a xlink:title=" ">
<path fill="none" stroke="#63b8ff" d="M949.75,-241.99C975.81,-232.03 1019.18,-215.45 1048.77,-204.13"/>
<polygon fill="#63b8ff" stroke="#63b8ff" points="1050.14,-207.36 1058.23,-200.52 1047.64,-200.82 1050.14,-207.36"/>
</a>
</g>
</g>
<!-- Node17 -->
<g id="Node000017" class="node">
<title>Node17</title>
<g id="a_Node000017"><a xlink:href="logger_8h.html" target="_top" xlink:title=" ">
<polygon fill="white" stroke="#666666" points="658,-140 575,-140 575,-121 658,-121 658,-140"/>
<text text-anchor="middle" x="616.5" y="-128" font-family="Helvetica,sans-Serif" font-size="10.00">tools/logger.h</text>
</a>
</g>
</g>
<!-- Node12&#45;&gt;Node17 -->
<g id="edge21_Node000012_Node000017" class="edge">
<title>Node12&#45;&gt;Node17</title>
<g id="a_edge21_Node000012_Node000017"><a xlink:title=" ">
<path fill="none" stroke="#63b8ff" d="M878.15,-241.96C841.56,-234.75 790.9,-222.87 748.5,-206 707.13,-189.54 662.77,-162.29 637.46,-145.7"/>
<polygon fill="#63b8ff" stroke="#63b8ff" points="639.3,-142.73 629.03,-140.12 635.43,-148.56 639.3,-142.73"/>
</a>
</g>
</g>
<!-- Node25 -->
<g id="Node000025" class="node">
<title>Node25</title>
<g id="a_Node000025"><a xlink:href="element__parameters_8h.html" target="_top" xlink:title=" ">
<polygon fill="white" stroke="#666666" points="620,-206 489,-206 489,-176 620,-176 620,-206"/>
<text text-anchor="start" x="497" y="-194" font-family="Helvetica,sans-Serif" font-size="10.00">element_parameters</text>
<text text-anchor="middle" x="554.5" y="-183" font-family="Helvetica,sans-Serif" font-size="10.00">/element_parameters.h</text>
</a>
</g>
</g>
<!-- Node12&#45;&gt;Node25 -->
<g id="edge36_Node000012_Node000025" class="edge">
<title>Node12&#45;&gt;Node25</title>
<g id="a_edge36_Node000012_Node000025"><a xlink:title=" ">
<path fill="none" stroke="#63b8ff" d="M873.26,-241.99C809.19,-231.95 702.22,-215.17 630.06,-203.85"/>
<polygon fill="#63b8ff" stroke="#63b8ff" points="630.54,-200.38 620.12,-202.29 629.46,-207.3 630.54,-200.38"/>
</a>
</g>
</g>
<!-- Node17&#45;&gt;Node4 -->
<g id="edge27_Node000017_Node000004" class="edge">
<title>Node17&#45;&gt;Node4</title>
<g id="a_edge27_Node000017_Node000004"><a xlink:title=" ">
<path fill="none" stroke="#63b8ff" d="M574.68,-121.97C517.23,-111.63 413.69,-92.99 348.99,-81.35"/>
<polygon fill="#63b8ff" stroke="#63b8ff" points="349.42,-77.87 338.96,-79.54 348.18,-84.76 349.42,-77.87"/>
</a>
</g>
</g>
<!-- Node17&#45;&gt;Node6 -->
<g id="edge23_Node000017_Node000006" class="edge">
<title>Node17&#45;&gt;Node6</title>
<g id="a_edge23_Node000017_Node000006"><a xlink:title=" ">
<path fill="none" stroke="#63b8ff" d="M576.23,-120.95C540.8,-112.64 492.84,-99.23 479.5,-85 465.41,-69.97 461.4,-45.97 460.44,-29.29"/>
<polygon fill="#63b8ff" stroke="#63b8ff" points="463.94,-29.02 460.18,-19.11 456.94,-29.2 463.94,-29.02"/>
</a>
</g>
</g>
<!-- Node17&#45;&gt;Node11 -->
<g id="edge24_Node000017_Node000011" class="edge">
<title>Node17&#45;&gt;Node11</title>
<g id="a_edge24_Node000017_Node000011"><a xlink:title=" ">
<path fill="none" stroke="#63b8ff" d="M628.94,-120.75C641.52,-111.87 661.49,-97.64 678.5,-85 696.05,-71.96 697.37,-63.54 717.5,-55 807.69,-16.74 925.17,-10.56 983.07,-10.06"/>
<polygon fill="#63b8ff" stroke="#63b8ff" points="983.18,-13.56 993.17,-10.03 983.16,-6.56 983.18,-13.56"/>
</a>
</g>
</g>
<!-- Node18 -->
<g id="Node000018" class="node">
<title>Node18</title>
<g id="a_Node000018"><a xlink:title=" ">
<polygon fill="#e0e0e0" stroke="#999999" points="786.5,-79.5 726.5,-79.5 726.5,-60.5 786.5,-60.5 786.5,-79.5"/>
<text text-anchor="middle" x="756.5" y="-67.5" font-family="Helvetica,sans-Serif" font-size="10.00">iostream</text>
</a>
</g>
</g>
<!-- Node17&#45;&gt;Node18 -->
<g id="edge22_Node000017_Node000018" class="edge">
<title>Node17&#45;&gt;Node18</title>
<g id="a_edge22_Node000017_Node000018"><a xlink:title=" ">
<path fill="none" stroke="#63b8ff" d="M636.86,-120.99C660.5,-111.12 699.7,-94.73 726.75,-83.43"/>
<polygon fill="#63b8ff" stroke="#63b8ff" points="728.24,-86.6 736.12,-79.52 725.54,-80.14 728.24,-86.6"/>
</a>
</g>
</g>
<!-- Node19 -->
<g id="Node000019" class="node">
<title>Node19</title>
<g id="a_Node000019"><a xlink:title=" ">
<polygon fill="#e0e0e0" stroke="#999999" points="544.5,-79.5 488.5,-79.5 488.5,-60.5 544.5,-60.5 544.5,-79.5"/>
<text text-anchor="middle" x="516.5" y="-67.5" font-family="Helvetica,sans-Serif" font-size="10.00">iomanip</text>
</a>
</g>
</g>
<!-- Node17&#45;&gt;Node19 -->
<g id="edge25_Node000017_Node000019" class="edge">
<title>Node17&#45;&gt;Node19</title>
<g id="a_edge25_Node000017_Node000019"><a xlink:title=" ">
<path fill="none" stroke="#63b8ff" d="M601.74,-120.87C585.5,-111.36 559.15,-95.95 540.04,-84.77"/>
<polygon fill="#63b8ff" stroke="#63b8ff" points="541.71,-81.7 531.32,-79.67 538.18,-87.74 541.71,-81.7"/>
</a>
</g>
</g>
<!-- Node20 -->
<g id="Node000020" class="node">
<title>Node20</title>
<g id="a_Node000020"><a xlink:title=" ">
<polygon fill="#e0e0e0" stroke="#999999" points="670,-85 563,-85 563,-55 670,-55 670,-85"/>
<text text-anchor="start" x="571" y="-73" font-family="Helvetica,sans-Serif" font-size="10.00">imgui&#45;platform&#45;kit</text>
<text text-anchor="middle" x="616.5" y="-62" font-family="Helvetica,sans-Serif" font-size="10.00">/log_window.h</text>
</a>
</g>
</g>
<!-- Node17&#45;&gt;Node20 -->
<g id="edge26_Node000017_Node000020" class="edge">
<title>Node17&#45;&gt;Node20</title>
<g id="a_edge26_Node000017_Node000020"><a xlink:title=" ">
<path fill="none" stroke="#63b8ff" d="M616.5,-120.87C616.5,-114.11 616.5,-104.35 616.5,-95.26"/>
<polygon fill="#63b8ff" stroke="#63b8ff" points="620,-95.11 616.5,-85.11 613,-95.11 620,-95.11"/>
</a>
</g>
</g>
<!-- Node17&#45;&gt;Node21 -->
<g id="edge28_Node000017_Node000021" class="edge">
<title>Node17&#45;&gt;Node21</title>
<g id="a_edge28_Node000017_Node000021"><a xlink:title=" ">
<path fill="none" stroke="#63b8ff" d="M658.14,-125.57C773.77,-114.66 1097.19,-84.14 1202.73,-74.19"/>
<polygon fill="#63b8ff" stroke="#63b8ff" points="1203.18,-77.66 1212.81,-73.24 1202.53,-70.69 1203.18,-77.66"/>
</a>
</g>
</g>
<!-- Node21&#45;&gt;Node6 -->
<g id="edge29_Node000021_Node000006" class="edge">
<title>Node21&#45;&gt;Node6</title>
<g id="a_edge29_Node000021_Node000006"><a xlink:title=" ">
<path fill="none" stroke="#63b8ff" d="M1212.99,-63.92C1198.03,-60.88 1178.21,-57.19 1160.5,-55 904.26,-23.37 592.3,-13.61 492.69,-11.19"/>
<polygon fill="#63b8ff" stroke="#63b8ff" points="492.74,-7.69 482.66,-10.95 492.57,-14.69 492.74,-7.69"/>
</a>
</g>
</g>
<!-- Node21&#45;&gt;Node8 -->
<g id="edge30_Node000021_Node000008" class="edge">
<title>Node21&#45;&gt;Node8</title>
<g id="a_edge30_Node000021_Node000008"><a xlink:title=" ">
<path fill="none" stroke="#63b8ff" d="M1259.04,-60.49C1285.44,-50.53 1329.38,-33.95 1359.35,-22.63"/>
<polygon fill="#63b8ff" stroke="#63b8ff" points="1360.81,-25.82 1368.93,-19.02 1358.34,-19.27 1360.81,-25.82"/>
</a>
</g>
</g>
<!-- Node21&#45;&gt;Node10 -->
<g id="edge35_Node000021_Node000010" class="edge">
<title>Node21&#45;&gt;Node10</title>
<g id="a_edge35_Node000021_Node000010"><a xlink:title=" ">
<path fill="none" stroke="#63b8ff" d="M1248.16,-60.37C1260.64,-51.12 1280.68,-36.28 1295.66,-25.19"/>
<polygon fill="#63b8ff" stroke="#63b8ff" points="1297.84,-27.93 1303.8,-19.17 1293.68,-22.31 1297.84,-27.93"/>
</a>
</g>
</g>
<!-- Node21&#45;&gt;Node11 -->
<g id="edge34_Node000021_Node000011" class="edge">
<title>Node21&#45;&gt;Node11</title>
<g id="a_edge34_Node000021_Node000011"><a xlink:title=" ">
<path fill="none" stroke="#63b8ff" d="M1214.54,-60.44C1209.32,-58.53 1203.74,-56.61 1198.5,-55 1137.6,-36.34 1119.08,-35.18 1053.74,-19.28"/>
<polygon fill="#63b8ff" stroke="#63b8ff" points="1054.3,-15.81 1043.75,-16.82 1052.62,-22.61 1054.3,-15.81"/>
</a>
</g>
</g>
<!-- Node22 -->
<g id="Node000022" class="node">
<title>Node22</title>
<g id="a_Node000022"><a xlink:title=" ">
<polygon fill="#e0e0e0" stroke="#999999" points="1263.5,-19 1209.5,-19 1209.5,0 1263.5,0 1263.5,-19"/>
<text text-anchor="middle" x="1236.5" y="-7" font-family="Helvetica,sans-Serif" font-size="10.00">random</text>
</a>
</g>
</g>
<!-- Node21&#45;&gt;Node22 -->
<g id="edge31_Node000021_Node000022" class="edge">
<title>Node21&#45;&gt;Node22</title>
<g id="a_edge31_Node000021_Node000022"><a xlink:title=" ">
<path fill="none" stroke="#63b8ff" d="M1236.5,-60.37C1236.5,-52.25 1236.5,-39.81 1236.5,-29.39"/>
<polygon fill="#63b8ff" stroke="#63b8ff" points="1240,-29.17 1236.5,-19.17 1233,-29.17 1240,-29.17"/>
</a>
</g>
</g>
<!-- Node23 -->
<g id="Node000023" class="node">
<title>Node23</title>
<g id="a_Node000023"><a xlink:title=" ">
<polygon fill="#e0e0e0" stroke="#999999" points="1117.5,-19 1061.5,-19 1061.5,0 1117.5,0 1117.5,-19"/>
<text text-anchor="middle" x="1089.5" y="-7" font-family="Helvetica,sans-Serif" font-size="10.00">sstream</text>
</a>
</g>
</g>
<!-- Node21&#45;&gt;Node23 -->
<g id="edge32_Node000021_Node000023" class="edge">
<title>Node21&#45;&gt;Node23</title>
<g id="a_edge32_Node000021_Node000023"><a xlink:title=" ">
<path fill="none" stroke="#63b8ff" d="M1215.12,-60.49C1190.19,-50.57 1148.78,-34.09 1120.36,-22.78"/>
<polygon fill="#63b8ff" stroke="#63b8ff" points="1121.49,-19.46 1110.9,-19.02 1118.9,-25.97 1121.49,-19.46"/>
</a>
</g>
</g>
<!-- Node24 -->
<g id="Node000024" class="node">
<title>Node24</title>
<g id="a_Node000024"><a xlink:title=" ">
<polygon fill="#e0e0e0" stroke="#999999" points="1191,-19 1136,-19 1136,0 1191,0 1191,-19"/>
<text text-anchor="middle" x="1163.5" y="-7" font-family="Helvetica,sans-Serif" font-size="10.00">fstream</text>
</a>
</g>
</g>
<!-- Node21&#45;&gt;Node24 -->
<g id="edge33_Node000021_Node000024" class="edge">
<title>Node21&#45;&gt;Node24</title>
<g id="a_edge33_Node000021_Node000024"><a xlink:title=" ">
<path fill="none" stroke="#63b8ff" d="M1225.73,-60.37C1214.3,-51.21 1196.02,-36.56 1182.22,-25.51"/>
<polygon fill="#63b8ff" stroke="#63b8ff" points="1184.31,-22.69 1174.32,-19.17 1179.93,-28.15 1184.31,-22.69"/>
</a>
</g>
</g>
<!-- Node25&#45;&gt;Node6 -->
<g id="edge38_Node000025_Node000006" class="edge">
<title>Node25&#45;&gt;Node6</title>
<g id="a_edge38_Node000025_Node000006"><a xlink:title=" ">
<path fill="none" stroke="#63b8ff" d="M534.16,-175.82C510.64,-157.9 473.59,-124.59 461.5,-85 455.9,-66.66 456.45,-44.59 457.9,-29.25"/>
<polygon fill="#63b8ff" stroke="#63b8ff" points="461.42,-29.34 459.11,-19 454.46,-28.53 461.42,-29.34"/>
</a>
</g>
</g>
<!-- Node25&#45;&gt;Node17 -->
<g id="edge40_Node000025_Node000017" class="edge">
<title>Node25&#45;&gt;Node17</title>
<g id="a_edge40_Node000025_Node000017"><a xlink:title=" ">
<path fill="none" stroke="#63b8ff" d="M569.51,-175.84C578.69,-167.17 590.45,-156.08 599.91,-147.15"/>
<polygon fill="#63b8ff" stroke="#63b8ff" points="602.34,-149.67 607.21,-140.27 597.53,-144.58 602.34,-149.67"/>
</a>
</g>
</g>
<!-- Node26 -->
<g id="Node000026" class="node">
<title>Node26</title>
<g id="a_Node000026"><a xlink:title=" ">
<polygon fill="#e0e0e0" stroke="#999999" points="450.5,-140 412.5,-140 412.5,-121 450.5,-121 450.5,-140"/>
<text text-anchor="middle" x="431.5" y="-128" font-family="Helvetica,sans-Serif" font-size="10.00">map</text>
</a>
</g>
</g>
<!-- Node25&#45;&gt;Node26 -->
<g id="edge37_Node000025_Node000026" class="edge">
<title>Node25&#45;&gt;Node26</title>
<g id="a_edge37_Node000025_Node000026"><a xlink:title=" ">
<path fill="none" stroke="#63b8ff" d="M525.04,-175.99C504.88,-166.4 478.36,-153.79 458.7,-144.44"/>
<polygon fill="#63b8ff" stroke="#63b8ff" points="460.2,-141.27 449.66,-140.14 457.19,-147.6 460.2,-141.27"/>
</a>
</g>
</g>
<!-- Node27 -->
<g id="Node000027" class="node">
<title>Node27</title>
<g id="a_Node000027"><a xlink:title=" ">
<polygon fill="#e0e0e0" stroke="#999999" points="556.5,-140 506.5,-140 506.5,-121 556.5,-121 556.5,-140"/>
<text text-anchor="middle" x="531.5" y="-128" font-family="Helvetica,sans-Serif" font-size="10.00">format</text>
</a>
</g>
</g>
<!-- Node25&#45;&gt;Node27 -->
<g id="edge39_Node000025_Node000027" class="edge">
<title>Node25&#45;&gt;Node27</title>
<g id="a_edge39_Node000025_Node000027"><a xlink:title=" ">
<path fill="none" stroke="#63b8ff" d="M548.93,-175.84C545.83,-167.95 541.94,-158.05 538.62,-149.61"/>
<polygon fill="#63b8ff" stroke="#63b8ff" points="541.86,-148.29 534.95,-140.27 535.35,-150.85 541.86,-148.29"/>
</a>
</g>
</g>
<!-- Node28&#45;&gt;Node4 -->
<g id="edge47_Node000028_Node000004" class="edge">
<title>Node28&#45;&gt;Node4</title>
<g id="a_edge47_Node000028_Node000004"><a xlink:title=" ">
<path fill="none" stroke="#63b8ff" d="M472.99,-359.54C405.8,-352.44 314.53,-338.9 286.5,-316 262.88,-296.71 260.5,-283 260.5,-252.5 260.5,-252.5 260.5,-252.5 260.5,-190 260.5,-153.32 274.46,-112.28 283.64,-89.25"/>
<polygon fill="#63b8ff" stroke="#63b8ff" points="286.99,-90.33 287.57,-79.75 280.52,-87.66 286.99,-90.33"/>
</a>
</g>
</g>
<!-- Node28&#45;&gt;Node7 -->
<g id="edge46_Node000028_Node000007" class="edge">
<title>Node28&#45;&gt;Node7</title>
<g id="a_edge46_Node000028_Node000007"><a xlink:title=" ">
<path fill="none" stroke="#63b8ff" d="M600.42,-357.46C613.46,-355.47 627.48,-353.49 640.5,-352 823.15,-331.06 1038.94,-317.58 1151.12,-311.41"/>
<polygon fill="#63b8ff" stroke="#63b8ff" points="1151.52,-314.89 1161.32,-310.85 1151.14,-307.9 1151.52,-314.89"/>
</a>
</g>
</g>
<!-- Node28&#45;&gt;Node8 -->
<g id="edge45_Node000028_Node000008" class="edge">
<title>Node28&#45;&gt;Node8</title>
<g id="a_edge45_Node000028_Node000008"><a xlink:title=" ">
<path fill="none" stroke="#63b8ff" d="M618.95,-357.47C636.72,-355.48 655.8,-353.5 673.5,-352 952.51,-328.28 1030.8,-383.71 1302.5,-316 1368.01,-299.68 1440.5,-320.01 1440.5,-252.5 1440.5,-252.5 1440.5,-252.5 1440.5,-129.5 1440.5,-90.79 1418.06,-49.97 1403.55,-27.63"/>
<polygon fill="#63b8ff" stroke="#63b8ff" points="1406.39,-25.59 1397.91,-19.24 1400.59,-29.5 1406.39,-25.59"/>
</a>
</g>
</g>
<!-- Node28&#45;&gt;Node17 -->
<g id="edge54_Node000028_Node000017" class="edge">
<title>Node28&#45;&gt;Node17</title>
<g id="a_edge54_Node000028_Node000017"><a xlink:title=" ">
<path fill="none" stroke="#63b8ff" d="M571.56,-357.39C588.7,-349.43 611.35,-335.82 622.5,-316 652.7,-262.31 634.17,-185.24 623.06,-150.16"/>
<polygon fill="#63b8ff" stroke="#63b8ff" points="626.27,-148.71 619.78,-140.33 619.62,-150.93 626.27,-148.71"/>
</a>
</g>
</g>
<!-- Node28&#45;&gt;Node18 -->
<g id="edge44_Node000028_Node000018" class="edge">
<title>Node28&#45;&gt;Node18</title>
<g id="a_edge44_Node000028_Node000018"><a xlink:title=" ">
<path fill="none" stroke="#63b8ff" d="M576.24,-357.48C616.11,-342.92 686.5,-309.18 686.5,-252.5 686.5,-252.5 686.5,-252.5 686.5,-190 686.5,-148.13 719.09,-107.99 739.8,-86.72"/>
<polygon fill="#63b8ff" stroke="#63b8ff" points="742.42,-89.05 747.06,-79.52 737.49,-84.08 742.42,-89.05"/>
</a>
</g>
</g>
<!-- Node29 -->
<g id="Node000029" class="node">
<title>Node29</title>
<g id="a_Node000029"><a xlink:href="plot_8h.html" target="_top" xlink:title=" ">
<polygon fill="white" stroke="#666666" points="384.5,-261 340.5,-261 340.5,-242 384.5,-242 384.5,-261"/>
<text text-anchor="middle" x="362.5" y="-249" font-family="Helvetica,sans-Serif" font-size="10.00">plot.h</text>
</a>
</g>
</g>
<!-- Node28&#45;&gt;Node29 -->
<g id="edge48_Node000028_Node000029" class="edge">
<title>Node28&#45;&gt;Node29</title>
<g id="a_edge48_Node000028_Node000029"><a xlink:title=" ">
<path fill="none" stroke="#63b8ff" d="M535.9,-357.39C515.04,-344.21 473.86,-318.34 438.5,-297 421.05,-286.47 401.16,-274.84 386.11,-266.11"/>
<polygon fill="#63b8ff" stroke="#63b8ff" points="387.83,-263.06 377.42,-261.08 384.33,-269.12 387.83,-263.06"/>
</a>
</g>
</g>
<!-- Node31 -->
<g id="Node000031" class="node">
<title>Node31</title>
<g id="a_Node000031"><a xlink:href="lineplot_8h.html" target="_top" xlink:title=" ">
<polygon fill="white" stroke="#666666" points="613.5,-316 485.5,-316 485.5,-297 613.5,-297 613.5,-316"/>
<text text-anchor="middle" x="549.5" y="-304" font-family="Helvetica,sans-Serif" font-size="10.00">visualization/lineplot.h</text>
</a>
</g>
</g>
<!-- Node28&#45;&gt;Node31 -->
<g id="edge55_Node000028_Node000031" class="edge">
<title>Node28&#45;&gt;Node31</title>
<g id="a_edge55_Node000028_Node000031"><a xlink:title=" ">
<path fill="none" stroke="#63b8ff" d="M549.5,-357.37C549.5,-349.25 549.5,-336.81 549.5,-326.39"/>
<polygon fill="#63b8ff" stroke="#63b8ff" points="553,-326.17 549.5,-316.17 546,-326.17 553,-326.17"/>
</a>
</g>
</g>
<!-- Node32 -->
<g id="Node000032" class="node">
<title>Node32</title>
<g id="a_Node000032"><a xlink:href="heatmap_8h.html" target="_top" xlink:title=" ">
<polygon fill="white" stroke="#666666" points="429.5,-316 295.5,-316 295.5,-297 429.5,-297 429.5,-316"/>
<text text-anchor="middle" x="362.5" y="-304" font-family="Helvetica,sans-Serif" font-size="10.00">visualization/heatmap.h</text>
</a>
</g>
</g>
<!-- Node28&#45;&gt;Node32 -->
<g id="edge57_Node000028_Node000032" class="edge">
<title>Node28&#45;&gt;Node32</title>
<g id="a_edge57_Node000028_Node000032"><a xlink:title=" ">
<path fill="none" stroke="#63b8ff" d="M522.31,-357.49C489.9,-347.36 435.6,-330.37 399.42,-319.05"/>
<polygon fill="#63b8ff" stroke="#63b8ff" points="400.31,-315.66 389.72,-316.02 398.22,-322.34 400.31,-315.66"/>
</a>
</g>
</g>
<!-- Node30 -->
<g id="Node000030" class="node">
<title>Node30</title>
<g id="a_Node000030"><a xlink:href="plot__parameters_8h.html" target="_top" xlink:title=" ">
<polygon fill="white" stroke="#666666" points="470.5,-200.5 364.5,-200.5 364.5,-181.5 470.5,-181.5 470.5,-200.5"/>
<text text-anchor="middle" x="417.5" y="-188.5" font-family="Helvetica,sans-Serif" font-size="10.00">plot_parameters.h</text>
</a>
</g>
</g>
<!-- Node29&#45;&gt;Node30 -->
<g id="edge49_Node000029_Node000030" class="edge">
<title>Node29&#45;&gt;Node30</title>
<g id="a_edge49_Node000029_Node000030"><a xlink:title=" ">
<path fill="none" stroke="#63b8ff" d="M370.62,-241.87C378.9,-233.05 391.97,-219.16 402.2,-208.27"/>
<polygon fill="#63b8ff" stroke="#63b8ff" points="405.05,-210.35 409.35,-200.67 399.95,-205.56 405.05,-210.35"/>
</a>
</g>
</g>
<!-- Node30&#45;&gt;Node6 -->
<g id="edge51_Node000030_Node000006" class="edge">
<title>Node30&#45;&gt;Node6</title>
<g id="a_edge51_Node000030_Node000006"><a xlink:title=" ">
<path fill="none" stroke="#63b8ff" d="M413.98,-181.17C405.59,-158.68 386.72,-97.95 408.5,-55 414.71,-42.75 425.92,-32.48 436.35,-24.91"/>
<polygon fill="#63b8ff" stroke="#63b8ff" points="438.47,-27.7 444.79,-19.2 434.55,-21.91 438.47,-27.7"/>
</a>
</g>
</g>
<!-- Node30&#45;&gt;Node8 -->
<g id="edge52_Node000030_Node000008" class="edge">
<title>Node30&#45;&gt;Node8</title>
<g id="a_edge52_Node000030_Node000008"><a xlink:title=" ">
<path fill="none" stroke="#63b8ff" d="M452.13,-181.49C461.01,-179.5 470.58,-177.52 479.5,-176 827.93,-116.77 935.3,-200.01 1269.5,-85 1309.28,-71.31 1349.86,-43.09 1372.75,-25.58"/>
<polygon fill="#63b8ff" stroke="#63b8ff" points="1375.15,-28.14 1380.89,-19.23 1370.85,-22.63 1375.15,-28.14"/>
</a>
</g>
</g>
<!-- Node30&#45;&gt;Node17 -->
<g id="edge53_Node000030_Node000017" class="edge">
<title>Node30&#45;&gt;Node17</title>
<g id="a_edge53_Node000030_Node000017"><a xlink:title=" ">
<path fill="none" stroke="#63b8ff" d="M446.44,-181.49C481.07,-171.31 539.2,-154.22 577.71,-142.9"/>
<polygon fill="#63b8ff" stroke="#63b8ff" points="578.92,-146.2 587.53,-140.02 576.95,-139.48 578.92,-146.2"/>
</a>
</g>
</g>
<!-- Node30&#45;&gt;Node26 -->
<g id="edge50_Node000030_Node000026" class="edge">
<title>Node30&#45;&gt;Node26</title>
<g id="a_edge50_Node000030_Node000026"><a xlink:title=" ">
<path fill="none" stroke="#63b8ff" d="M419.57,-181.37C421.53,-173.16 424.55,-160.54 427.06,-150.05"/>
<polygon fill="#63b8ff" stroke="#63b8ff" points="430.5,-150.71 429.43,-140.17 423.69,-149.08 430.5,-150.71"/>
</a>
</g>
</g>
<!-- Node31&#45;&gt;Node29 -->
<g id="edge56_Node000031_Node000029" class="edge">
<title>Node31&#45;&gt;Node29</title>
<g id="a_edge56_Node000031_Node000029"><a xlink:title=" ">
<path fill="none" stroke="#63b8ff" d="M519.46,-296.98C485.16,-287.26 429.29,-271.43 394.28,-261.51"/>
<polygon fill="#63b8ff" stroke="#63b8ff" points="395.14,-258.11 384.57,-258.75 393.23,-264.85 395.14,-258.11"/>
</a>
</g>
</g>
<!-- Node32&#45;&gt;Node29 -->
<g id="edge58_Node000032_Node000029" class="edge">
<title>Node32&#45;&gt;Node29</title>
<g id="a_edge58_Node000032_Node000029"><a xlink:title=" ">
<path fill="none" stroke="#63b8ff" d="M362.5,-296.75C362.5,-289.8 362.5,-279.85 362.5,-271.13"/>
<polygon fill="#63b8ff" stroke="#63b8ff" points="366,-271.09 362.5,-261.09 359,-271.09 366,-271.09"/>
</a>
</g>
</g>
<!-- Node36 -->
<g id="Node000036" class="node">
<title>Node36</title>
<g id="a_Node000036"><a xlink:title=" ">
<polygon fill="#e0e0e0" stroke="#999999" points="1522,-316 1469,-316 1469,-297 1522,-297 1522,-316"/>
<text text-anchor="middle" x="1495.5" y="-304" font-family="Helvetica,sans-Serif" font-size="10.00">imgui.h</text>
</a>
</g>
</g>
<!-- Node35&#45;&gt;Node36 -->
<g id="edge62_Node000035_Node000036" class="edge">
<title>Node35&#45;&gt;Node36</title>
<g id="a_edge62_Node000035_Node000036"><a xlink:title=" ">
<path fill="none" stroke="#63b8ff" d="M1322.87,-351.99C1365.07,-341.11 1422.41,-326.34 1459.19,-316.86"/>
<polygon fill="#63b8ff" stroke="#63b8ff" points="1460.18,-320.22 1468.99,-314.33 1458.43,-313.44 1460.18,-320.22"/>
</a>
</g>
</g>
</g>
</svg>
