<?xml version="1.0" encoding="UTF-8" standalone="no"?>
<!DOCTYPE svg PUBLIC "-//W3C//DTD SVG 1.1//EN"
 "http://www.w3.org/Graphics/SVG/1.1/DTD/svg11.dtd">
<!-- Generated by graphviz version 2.43.0 (0)
 -->
<!-- Title: src/application/application.cpp Pages: 1 -->
<svg width="1520pt" height="500pt"
 viewBox="0.00 0.00 1519.50 500.00" xmlns="http://www.w3.org/2000/svg" xmlns:xlink="http://www.w3.org/1999/xlink">
<g id="graph0" class="graph" transform="scale(1 1) rotate(0) translate(4 496)">
<title>src/application/application.cpp</title>
<!-- Node1 -->
<g id="Node000001" class="node">
<title>Node1</title>
<g id="a_Node000001"><a xlink:title=" ">
<polygon fill="#999999" stroke="#666666" points="1360,-492 1195,-492 1195,-473 1360,-473 1360,-492"/>
<text text-anchor="middle" x="1277.5" y="-480" font-family="Helvetica,sans-Serif" font-size="10.00">src/application/application.cpp</text>
</a>
</g>
</g>
<!-- Node2 -->
<g id="Node000002" class="node">
<title>Node2</title>
<g id="a_Node000002"><a xlink:href="application_8h.html" target="_top" xlink:title=" ">
<polygon fill="white" stroke="#666666" points="1113,-437 976,-437 976,-418 1113,-418 1113,-437"/>
<text text-anchor="middle" x="1044.5" y="-425" font-family="Helvetica,sans-Serif" font-size="10.00">application/application.h</text>
</a>
</g>
</g>
<!-- Node1&#45;&gt;Node2 -->
<g id="edge1_Node000001_Node000002" class="edge">
<title>Node1&#45;&gt;Node2</title>
<g id="a_edge1_Node000001_Node000002"><a xlink:title=" ">
<path fill="none" stroke="#63b8ff" d="M1240.06,-472.98C1199.85,-463.84 1135.82,-449.27 1092.06,-439.32"/>
<polygon fill="#63b8ff" stroke="#63b8ff" points="1092.76,-435.89 1082.23,-437.08 1091.2,-442.71 1092.76,-435.89"/>
</a>
</g>
</g>
<!-- Node23 -->
<g id="Node000023" class="node">
<title>Node23</title>
<g id="a_Node000023"><a xlink:href="utils_8h.html" target="_top" xlink:title=" ">
<polygon fill="white" stroke="#666666" points="1135,-79.5 1088,-79.5 1088,-60.5 1135,-60.5 1135,-79.5"/>
<text text-anchor="middle" x="1111.5" y="-67.5" font-family="Helvetica,sans-Serif" font-size="10.00">utils.h</text>
</a>
</g>
</g>
<!-- Node1&#45;&gt;Node23 -->
<g id="edge65_Node000001_Node000023" class="edge">
<title>Node1&#45;&gt;Node23</title>
<g id="a_edge65_Node000001_Node000023"><a xlink:title=" ">
<path fill="none" stroke="#63b8ff" d="M1360.33,-474.77C1427.64,-464.22 1511.5,-437.19 1511.5,-368 1511.5,-368 1511.5,-368 1511.5,-190 1511.5,-113.79 1241.4,-82.48 1145.1,-73.73"/>
<polygon fill="#63b8ff" stroke="#63b8ff" points="1145.3,-70.24 1135.03,-72.84 1144.68,-77.21 1145.3,-70.24"/>
</a>
</g>
</g>
<!-- Node3 -->
<g id="Node000003" class="node">
<title>Node3</title>
<g id="a_Node000003"><a xlink:title=" ">
<polygon fill="#e0e0e0" stroke="#999999" points="1351,-376.5 1282,-376.5 1282,-357.5 1351,-357.5 1351,-376.5"/>
<text text-anchor="middle" x="1316.5" y="-364.5" font-family="Helvetica,sans-Serif" font-size="10.00">type_traits</text>
</a>
</g>
</g>
<!-- Node2&#45;&gt;Node3 -->
<g id="edge2_Node000002_Node000003" class="edge">
<title>Node2&#45;&gt;Node3</title>
<g id="a_edge2_Node000002_Node000003"><a xlink:title=" ">
<path fill="none" stroke="#63b8ff" d="M1097.41,-417.96C1143.87,-410.03 1213.11,-397.19 1272.5,-382 1275.34,-381.27 1278.27,-380.47 1281.2,-379.62"/>
<polygon fill="#63b8ff" stroke="#63b8ff" points="1282.49,-382.89 1291.05,-376.65 1280.47,-376.19 1282.49,-382.89"/>
</a>
</g>
</g>
<!-- Node4 -->
<g id="Node000004" class="node">
<title>Node4</title>
<g id="a_Node000004"><a xlink:title=" ">
<polygon fill="#e0e0e0" stroke="#999999" points="107,-382 0,-382 0,-352 107,-352 107,-382"/>
<text text-anchor="start" x="8" y="-370" font-family="Helvetica,sans-Serif" font-size="10.00">imgui&#45;platform&#45;kit</text>
<text text-anchor="middle" x="53.5" y="-359" font-family="Helvetica,sans-Serif" font-size="10.00">/user_interface.h</text>
</a>
</g>
</g>
<!-- Node2&#45;&gt;Node4 -->
<g id="edge3_Node000002_Node000004" class="edge">
<title>Node2&#45;&gt;Node4</title>
<g id="a_edge3_Node000002_Node000004"><a xlink:title=" ">
<path fill="none" stroke="#63b8ff" d="M975.87,-426.81C822.2,-426.72 439.03,-422.1 121.5,-382 120.04,-381.82 118.57,-381.62 117.09,-381.41"/>
<polygon fill="#63b8ff" stroke="#63b8ff" points="117.62,-377.95 107.19,-379.85 116.53,-384.86 117.62,-377.95"/>
</a>
</g>
</g>
<!-- Node5 -->
<g id="Node000005" class="node">
<title>Node5</title>
<g id="a_Node000005"><a xlink:href="exception_8h.html" target="_top" xlink:title=" ">
<polygon fill="white" stroke="#666666" points="285.5,-79.5 155.5,-79.5 155.5,-60.5 285.5,-60.5 285.5,-79.5"/>
<text text-anchor="middle" x="220.5" y="-67.5" font-family="Helvetica,sans-Serif" font-size="10.00">exceptions/exception.h</text>
</a>
</g>
</g>
<!-- Node2&#45;&gt;Node5 -->
<g id="edge4_Node000002_Node000005" class="edge">
<title>Node2&#45;&gt;Node5</title>
<g id="a_edge4_Node000002_Node000005"><a xlink:title=" ">
<path fill="none" stroke="#63b8ff" d="M975.8,-424.72C764.04,-418.32 135.5,-392.2 135.5,-307.5 135.5,-307.5 135.5,-307.5 135.5,-190 135.5,-145.52 175.31,-106.19 200.44,-85.79"/>
<polygon fill="#63b8ff" stroke="#63b8ff" points="202.61,-88.54 208.32,-79.62 198.29,-83.03 202.61,-88.54"/>
</a>
</g>
</g>
<!-- Node9 -->
<g id="Node000009" class="node">
<title>Node9</title>
<g id="a_Node000009"><a xlink:href="simulation_8h.html" target="_top" xlink:title=" ">
<polygon fill="white" stroke="#666666" points="615.5,-316 483.5,-316 483.5,-297 615.5,-297 615.5,-316"/>
<text text-anchor="middle" x="549.5" y="-304" font-family="Helvetica,sans-Serif" font-size="10.00">simulation/simulation.h</text>
</a>
</g>
</g>
<!-- Node2&#45;&gt;Node9 -->
<g id="edge8_Node000002_Node000009" class="edge">
<title>Node2&#45;&gt;Node9</title>
<g id="a_edge8_Node000002_Node000009"><a xlink:title=" ">
<path fill="none" stroke="#63b8ff" d="M987.93,-417.96C938.24,-410.04 864.16,-397.21 800.5,-382 722.49,-363.37 632.77,-335.03 584.55,-319.21"/>
<polygon fill="#63b8ff" stroke="#63b8ff" points="585.5,-315.84 574.91,-316.04 583.31,-322.49 585.5,-315.84"/>
</a>
</g>
</g>
<!-- Node30 -->
<g id="Node000030" class="node">
<title>Node30</title>
<g id="a_Node000030"><a xlink:href="visualization_8h.html" target="_top" xlink:title=" ">
<polygon fill="white" stroke="#666666" points="962,-376.5 809,-376.5 809,-357.5 962,-357.5 962,-376.5"/>
<text text-anchor="middle" x="885.5" y="-364.5" font-family="Helvetica,sans-Serif" font-size="10.00">visualization/visualization.h</text>
</a>
</g>
</g>
<!-- Node2&#45;&gt;Node30 -->
<g id="edge45_Node000002_Node000030" class="edge">
<title>Node2&#45;&gt;Node30</title>
<g id="a_edge45_Node000002_Node000030"><a xlink:title=" ">
<path fill="none" stroke="#63b8ff" d="M1021.38,-417.99C994.18,-407.99 948.83,-391.3 918.08,-379.99"/>
<polygon fill="#63b8ff" stroke="#63b8ff" points="919.24,-376.68 908.65,-376.52 916.82,-383.25 919.24,-376.68"/>
</a>
</g>
</g>
<!-- Node35 -->
<g id="Node000035" class="node">
<title>Node35</title>
<g id="a_Node000035"><a xlink:href="IconsFontAwesome6_8h.html" target="_top" xlink:title=" ">
<polygon fill="white" stroke="#666666" points="1109,-382 980,-382 980,-352 1109,-352 1109,-382"/>
<text text-anchor="start" x="988" y="-370" font-family="Helvetica,sans-Serif" font-size="10.00">user_interface/fonts</text>
<text text-anchor="middle" x="1044.5" y="-359" font-family="Helvetica,sans-Serif" font-size="10.00">/IconsFontAwesome6.h</text>
</a>
</g>
</g>
<!-- Node2&#45;&gt;Node35 -->
<g id="edge61_Node000002_Node000035" class="edge">
<title>Node2&#45;&gt;Node35</title>
<g id="a_edge61_Node000002_Node000035"><a xlink:title=" ">
<path fill="none" stroke="#63b8ff" d="M1044.5,-417.87C1044.5,-411.11 1044.5,-401.35 1044.5,-392.26"/>
<polygon fill="#63b8ff" stroke="#63b8ff" points="1048,-392.11 1044.5,-382.11 1041,-392.11 1048,-392.11"/>
</a>
</g>
</g>
<!-- Node36 -->
<g id="Node000036" class="node">
<title>Node36</title>
<g id="a_Node000036"><a xlink:href="fa_8h.html" target="_top" xlink:title=" ">
<polygon fill="white" stroke="#666666" points="1263.5,-376.5 1127.5,-376.5 1127.5,-357.5 1263.5,-357.5 1263.5,-376.5"/>
<text text-anchor="middle" x="1195.5" y="-364.5" font-family="Helvetica,sans-Serif" font-size="10.00">user_interface/fonts/fa.h</text>
</a>
</g>
</g>
<!-- Node2&#45;&gt;Node36 -->
<g id="edge62_Node000002_Node000036" class="edge">
<title>Node2&#45;&gt;Node36</title>
<g id="a_edge62_Node000002_Node000036"><a xlink:title=" ">
<path fill="none" stroke="#63b8ff" d="M1066.46,-417.99C1092.18,-408.03 1134.98,-391.45 1164.18,-380.13"/>
<polygon fill="#63b8ff" stroke="#63b8ff" points="1165.46,-383.39 1173.52,-376.52 1162.93,-376.87 1165.46,-383.39"/>
</a>
</g>
</g>
<!-- Node37 -->
<g id="Node000037" class="node">
<title>Node37</title>
<g id="a_Node000037"><a xlink:href="imgui__freetype_8h.html" target="_top" xlink:title=" ">
<polygon fill="white" stroke="#666666" points="1483.5,-382 1369.5,-382 1369.5,-352 1483.5,-352 1483.5,-382"/>
<text text-anchor="start" x="1377.5" y="-370" font-family="Helvetica,sans-Serif" font-size="10.00">user_interface/fonts</text>
<text text-anchor="middle" x="1426.5" y="-359" font-family="Helvetica,sans-Serif" font-size="10.00">/imgui_freetype.h</text>
</a>
</g>
</g>
<!-- Node2&#45;&gt;Node37 -->
<g id="edge63_Node000002_Node000037" class="edge">
<title>Node2&#45;&gt;Node37</title>
<g id="a_edge63_Node000002_Node000037"><a xlink:title=" ">
<path fill="none" stroke="#63b8ff" d="M1113.14,-418.22C1175.04,-410.44 1268.78,-397.88 1359.42,-382.12"/>
<polygon fill="#63b8ff" stroke="#63b8ff" points="1360.06,-385.56 1369.31,-380.38 1358.86,-378.66 1360.06,-385.56"/>
</a>
</g>
</g>
<!-- Node6 -->
<g id="Node000006" class="node">
<title>Node6</title>
<g id="a_Node000006"><a xlink:title=" ">
<polygon fill="#e0e0e0" stroke="#999999" points="283.5,-19 233.5,-19 233.5,0 283.5,0 283.5,-19"/>
<text text-anchor="middle" x="258.5" y="-7" font-family="Helvetica,sans-Serif" font-size="10.00">cstdint</text>
</a>
</g>
</g>
<!-- Node5&#45;&gt;Node6 -->
<g id="edge5_Node000005_Node000006" class="edge">
<title>Node5&#45;&gt;Node6</title>
<g id="a_edge5_Node000005_Node000006"><a xlink:title=" ">
<path fill="none" stroke="#63b8ff" d="M226.11,-60.37C231.66,-51.81 240.33,-38.47 247.3,-27.74"/>
<polygon fill="#63b8ff" stroke="#63b8ff" points="250.36,-29.46 252.87,-19.17 244.49,-25.65 250.36,-29.46"/>
</a>
</g>
</g>
<!-- Node7 -->
<g id="Node000007" class="node">
<title>Node7</title>
<g id="a_Node000007"><a xlink:title=" ">
<polygon fill="#e0e0e0" stroke="#999999" points="215,-19 150,-19 150,0 215,0 215,-19"/>
<text text-anchor="middle" x="182.5" y="-7" font-family="Helvetica,sans-Serif" font-size="10.00">exception</text>
</a>
</g>
</g>
<!-- Node5&#45;&gt;Node7 -->
<g id="edge6_Node000005_Node000007" class="edge">
<title>Node5&#45;&gt;Node7</title>
<g id="a_edge6_Node000005_Node000007"><a xlink:title=" ">
<path fill="none" stroke="#63b8ff" d="M214.89,-60.37C209.34,-51.81 200.67,-38.47 193.7,-27.74"/>
<polygon fill="#63b8ff" stroke="#63b8ff" points="196.51,-25.65 188.13,-19.17 190.64,-29.46 196.51,-25.65"/>
</a>
</g>
</g>
<!-- Node8 -->
<g id="Node000008" class="node">
<title>Node8</title>
<g id="a_Node000008"><a xlink:title=" ">
<polygon fill="#e0e0e0" stroke="#999999" points="613.5,-19 569.5,-19 569.5,0 613.5,0 613.5,-19"/>
<text text-anchor="middle" x="591.5" y="-7" font-family="Helvetica,sans-Serif" font-size="10.00">string</text>
</a>
</g>
</g>
<!-- Node5&#45;&gt;Node8 -->
<g id="edge7_Node000005_Node000008" class="edge">
<title>Node5&#45;&gt;Node8</title>
<g id="a_edge7_Node000005_Node000008"><a xlink:title=" ">
<path fill="none" stroke="#63b8ff" d="M273.4,-60.45C284.66,-58.64 296.47,-56.75 307.5,-55 398.8,-40.5 506.67,-23.69 559.33,-15.5"/>
<polygon fill="#63b8ff" stroke="#63b8ff" points="560.06,-18.93 569.4,-13.93 558.98,-12.01 560.06,-18.93"/>
</a>
</g>
</g>
<!-- Node9&#45;&gt;Node5 -->
<g id="edge43_Node000009_Node000005" class="edge">
<title>Node9&#45;&gt;Node5</title>
<g id="a_edge43_Node000009_Node000005"><a xlink:title=" ">
<path fill="none" stroke="#63b8ff" d="M483.23,-305.46C401.19,-303.9 268.26,-295.85 235.5,-261 191.14,-213.8 205.85,-127.69 215.23,-89.78"/>
<polygon fill="#63b8ff" stroke="#63b8ff" points="218.73,-90.21 217.9,-79.65 211.97,-88.43 218.73,-90.21"/>
</a>
</g>
</g>
<!-- Node9&#45;&gt;Node8 -->
<g id="edge11_Node000009_Node000008" class="edge">
<title>Node9&#45;&gt;Node8</title>
<g id="a_edge11_Node000009_Node000008"><a xlink:title=" ">
<path fill="none" stroke="#63b8ff" d="M483.45,-304.34C410.54,-301.5 299.93,-292.04 273.5,-261 249.01,-232.24 253.9,-208.3 273.5,-176 337.25,-70.95 491.82,-29.5 559.2,-16.03"/>
<polygon fill="#63b8ff" stroke="#63b8ff" points="560.08,-19.42 569.24,-14.1 558.76,-12.55 560.08,-19.42"/>
</a>
</g>
</g>
<!-- Node10 -->
<g id="Node000010" class="node">
<title>Node10</title>
<g id="a_Node000010"><a xlink:title=" ">
<polygon fill="#e0e0e0" stroke="#999999" points="1251,-19 1204,-19 1204,0 1251,0 1251,-19"/>
<text text-anchor="middle" x="1227.5" y="-7" font-family="Helvetica,sans-Serif" font-size="10.00">vector</text>
</a>
</g>
</g>
<!-- Node9&#45;&gt;Node10 -->
<g id="edge9_Node000009_Node000010" class="edge">
<title>Node9&#45;&gt;Node10</title>
<g id="a_edge9_Node000009_Node000010"><a xlink:title=" ">
<path fill="none" stroke="#63b8ff" d="M615.83,-299.71C693.1,-292.54 824.49,-279.03 936.5,-261 966.19,-256.22 1178.83,-225.76 1201.5,-206 1254.1,-160.15 1257.16,-123.62 1244.5,-55 1242.83,-45.95 1239.4,-36.36 1236.06,-28.41"/>
<polygon fill="#63b8ff" stroke="#63b8ff" points="1239.16,-26.78 1231.87,-19.09 1232.77,-29.65 1239.16,-26.78"/>
</a>
</g>
</g>
<!-- Node11 -->
<g id="Node000011" class="node">
<title>Node11</title>
<g id="a_Node000011"><a xlink:title=" ">
<polygon fill="#e0e0e0" stroke="#999999" points="411.5,-200.5 353.5,-200.5 353.5,-181.5 411.5,-181.5 411.5,-200.5"/>
<text text-anchor="middle" x="382.5" y="-188.5" font-family="Helvetica,sans-Serif" font-size="10.00">memory</text>
</a>
</g>
</g>
<!-- Node9&#45;&gt;Node11 -->
<g id="edge10_Node000009_Node000011" class="edge">
<title>Node9&#45;&gt;Node11</title>
<g id="a_edge10_Node000009_Node000011"><a xlink:title=" ">
<path fill="none" stroke="#63b8ff" d="M536.95,-296.97C508.54,-277.66 439.05,-230.43 403.78,-206.46"/>
<polygon fill="#63b8ff" stroke="#63b8ff" points="405.44,-203.36 395.2,-200.63 401.5,-209.15 405.44,-203.36"/>
</a>
</g>
</g>
<!-- Node12 -->
<g id="Node000012" class="node">
<title>Node12</title>
<g id="a_Node000012"><a xlink:title=" ">
<polygon fill="#e0e0e0" stroke="#999999" points="700.5,-19 632.5,-19 632.5,0 700.5,0 700.5,-19"/>
<text text-anchor="middle" x="666.5" y="-7" font-family="Helvetica,sans-Serif" font-size="10.00">filesystem</text>
</a>
</g>
</g>
<!-- Node9&#45;&gt;Node12 -->
<g id="edge12_Node000009_Node000012" class="edge">
<title>Node9&#45;&gt;Node12</title>
<g id="a_edge12_Node000009_Node000012"><a xlink:title=" ">
<path fill="none" stroke="#63b8ff" d="M483.26,-302.33C420.58,-297.79 332.98,-286.87 311.5,-261 287.37,-231.94 291.2,-207.86 311.5,-176 348.24,-118.34 546.28,-49.16 629.56,-22.12"/>
<polygon fill="#63b8ff" stroke="#63b8ff" points="630.69,-25.44 639.13,-19.04 628.54,-18.78 630.69,-25.44"/>
</a>
</g>
</g>
<!-- Node13 -->
<g id="Node000013" class="node">
<title>Node13</title>
<g id="a_Node000013"><a xlink:title=" ">
<polygon fill="#e0e0e0" stroke="#999999" points="768.5,-19 718.5,-19 718.5,0 768.5,0 768.5,-19"/>
<text text-anchor="middle" x="743.5" y="-7" font-family="Helvetica,sans-Serif" font-size="10.00">chrono</text>
</a>
</g>
</g>
<!-- Node9&#45;&gt;Node13 -->
<g id="edge13_Node000009_Node000013" class="edge">
<title>Node9&#45;&gt;Node13</title>
<g id="a_edge13_Node000009_Node000013"><a xlink:title=" ">
<path fill="none" stroke="#63b8ff" d="M504.78,-296.94C432.06,-280.91 300.49,-241.9 344.5,-176 366.15,-143.58 615.84,-54.65 708.86,-22.39"/>
<polygon fill="#63b8ff" stroke="#63b8ff" points="710.08,-25.67 718.39,-19.09 707.79,-19.05 710.08,-25.67"/>
</a>
</g>
</g>
<!-- Node14 -->
<g id="Node000014" class="node">
<title>Node14</title>
<g id="a_Node000014"><a xlink:href="element_8h.html" target="_top" xlink:title=" ">
<polygon fill="white" stroke="#666666" points="691,-261 576,-261 576,-242 691,-242 691,-261"/>
<text text-anchor="middle" x="633.5" y="-249" font-family="Helvetica,sans-Serif" font-size="10.00">elements/element.h</text>
</a>
</g>
</g>
<!-- Node9&#45;&gt;Node14 -->
<g id="edge14_Node000009_Node000014" class="edge">
<title>Node9&#45;&gt;Node14</title>
<g id="a_edge14_Node000009_Node000014"><a xlink:title=" ">
<path fill="none" stroke="#63b8ff" d="M563,-296.98C575.9,-288.84 595.6,-276.41 610.9,-266.76"/>
<polygon fill="#63b8ff" stroke="#63b8ff" points="613.17,-269.47 619.76,-261.17 609.43,-263.55 613.17,-269.47"/>
</a>
</g>
</g>
<!-- Node9&#45;&gt;Node23 -->
<g id="edge44_Node000009_Node000023" class="edge">
<title>Node9&#45;&gt;Node23</title>
<g id="a_edge44_Node000009_Node000023"><a xlink:title=" ">
<path fill="none" stroke="#63b8ff" d="M610.59,-296.96C767.51,-274.89 1173.17,-216.91 1182.5,-206 1214.91,-168.1 1161.23,-112.92 1130.57,-86.38"/>
<polygon fill="#63b8ff" stroke="#63b8ff" points="1132.53,-83.45 1122.62,-79.69 1128.02,-88.81 1132.53,-83.45"/>
</a>
</g>
</g>
<!-- Node14&#45;&gt;Node5 -->
<g id="edge22_Node000014_Node000005" class="edge">
<title>Node14&#45;&gt;Node5</title>
<g id="a_edge22_Node000014_Node000005"><a xlink:title=" ">
<path fill="none" stroke="#63b8ff" d="M575.82,-242.11C540.63,-235.49 495.46,-224.25 458.5,-206 439.21,-196.47 438.55,-187.72 420.5,-176 362.13,-138.1 288.58,-102.29 248.94,-83.88"/>
<polygon fill="#63b8ff" stroke="#63b8ff" points="250.17,-80.6 239.62,-79.59 247.24,-86.95 250.17,-80.6"/>
</a>
</g>
</g>
<!-- Node14&#45;&gt;Node8 -->
<g id="edge16_Node000014_Node000008" class="edge">
<title>Node14&#45;&gt;Node8</title>
<g id="a_edge16_Node000014_Node000008"><a xlink:title=" ">
<path fill="none" stroke="#63b8ff" d="M632.95,-241.57C631.7,-226.86 627.6,-197.09 614.5,-176 601.53,-155.12 582.77,-162.34 572.5,-140 555.48,-102.99 571.62,-54.3 582.82,-28.44"/>
<polygon fill="#63b8ff" stroke="#63b8ff" points="586.09,-29.7 587.07,-19.15 579.73,-26.79 586.09,-29.7"/>
</a>
</g>
</g>
<!-- Node14&#45;&gt;Node10 -->
<g id="edge15_Node000014_Node000010" class="edge">
<title>Node14&#45;&gt;Node10</title>
<g id="a_edge15_Node000014_Node000010"><a xlink:title=" ">
<path fill="none" stroke="#63b8ff" d="M691.23,-247.65C828.45,-240.62 1164.11,-221.9 1182.5,-206 1234.54,-161.02 1233.07,-69.08 1229.68,-29.41"/>
<polygon fill="#63b8ff" stroke="#63b8ff" points="1233.14,-28.89 1228.67,-19.29 1226.18,-29.59 1233.14,-28.89"/>
</a>
</g>
</g>
<!-- Node14&#45;&gt;Node11 -->
<g id="edge18_Node000014_Node000011" class="edge">
<title>Node14&#45;&gt;Node11</title>
<g id="a_edge18_Node000014_Node000011"><a xlink:title=" ">
<path fill="none" stroke="#63b8ff" d="M586.91,-241.97C544.53,-233.87 480.42,-220.77 425.5,-206 422.73,-205.25 419.87,-204.44 417.01,-203.58"/>
<polygon fill="#63b8ff" stroke="#63b8ff" points="417.97,-200.21 407.38,-200.59 415.89,-206.9 417.97,-200.21"/>
</a>
</g>
</g>
<!-- Node15 -->
<g id="Node000015" class="node">
<title>Node15</title>
<g id="a_Node000015"><a xlink:title=" ">
<polygon fill="#e0e0e0" stroke="#999999" points="755,-200.5 662,-200.5 662,-181.5 755,-181.5 755,-200.5"/>
<text text-anchor="middle" x="708.5" y="-188.5" font-family="Helvetica,sans-Serif" font-size="10.00">unordered_map</text>
</a>
</g>
</g>
<!-- Node14&#45;&gt;Node15 -->
<g id="edge17_Node000014_Node000015" class="edge">
<title>Node14&#45;&gt;Node15</title>
<g id="a_edge17_Node000014_Node000015"><a xlink:title=" ">
<path fill="none" stroke="#63b8ff" d="M644.57,-241.87C656.31,-232.71 675.09,-218.06 689.26,-207.01"/>
<polygon fill="#63b8ff" stroke="#63b8ff" points="691.66,-209.58 697.39,-200.67 687.35,-204.06 691.66,-209.58"/>
</a>
</g>
</g>
<!-- Node16 -->
<g id="Node000016" class="node">
<title>Node16</title>
<g id="a_Node000016"><a xlink:title=" ">
<polygon fill="#e0e0e0" stroke="#999999" points="823.5,-200.5 773.5,-200.5 773.5,-181.5 823.5,-181.5 823.5,-200.5"/>
<text text-anchor="middle" x="798.5" y="-188.5" font-family="Helvetica,sans-Serif" font-size="10.00">ranges</text>
</a>
</g>
</g>
<!-- Node14&#45;&gt;Node16 -->
<g id="edge19_Node000014_Node000016" class="edge">
<title>Node14&#45;&gt;Node16</title>
<g id="a_edge19_Node000014_Node000016"><a xlink:title=" ">
<path fill="none" stroke="#63b8ff" d="M660.03,-241.86C686.4,-233.16 727.94,-219.19 763.5,-206 764.92,-205.47 766.37,-204.93 767.83,-204.37"/>
<polygon fill="#63b8ff" stroke="#63b8ff" points="769.42,-207.51 777.47,-200.61 766.88,-200.98 769.42,-207.51"/>
</a>
</g>
</g>
<!-- Node17 -->
<g id="Node000017" class="node">
<title>Node17</title>
<g id="a_Node000017"><a xlink:title=" ">
<polygon fill="#e0e0e0" stroke="#999999" points="531.5,-200.5 467.5,-200.5 467.5,-181.5 531.5,-181.5 531.5,-200.5"/>
<text text-anchor="middle" x="499.5" y="-188.5" font-family="Helvetica,sans-Serif" font-size="10.00">algorithm</text>
</a>
</g>
</g>
<!-- Node14&#45;&gt;Node17 -->
<g id="edge20_Node000014_Node000017" class="edge">
<title>Node14&#45;&gt;Node17</title>
<g id="a_edge20_Node000014_Node000017"><a xlink:title=" ">
<path fill="none" stroke="#63b8ff" d="M614.02,-241.99C591.49,-232.16 554.19,-215.88 528.31,-204.58"/>
<polygon fill="#63b8ff" stroke="#63b8ff" points="529.57,-201.31 519.01,-200.52 526.77,-207.73 529.57,-201.31"/>
</a>
</g>
</g>
<!-- Node18 -->
<g id="Node000018" class="node">
<title>Node18</title>
<g id="a_Node000018"><a xlink:title=" ">
<polygon fill="#e0e0e0" stroke="#999999" points="605.5,-200.5 549.5,-200.5 549.5,-181.5 605.5,-181.5 605.5,-200.5"/>
<text text-anchor="middle" x="577.5" y="-188.5" font-family="Helvetica,sans-Serif" font-size="10.00">numeric</text>
</a>
</g>
</g>
<!-- Node14&#45;&gt;Node18 -->
<g id="edge21_Node000014_Node000018" class="edge">
<title>Node14&#45;&gt;Node18</title>
<g id="a_edge21_Node000014_Node000018"><a xlink:title=" ">
<path fill="none" stroke="#63b8ff" d="M625.24,-241.87C616.72,-232.97 603.24,-218.89 592.77,-207.95"/>
<polygon fill="#63b8ff" stroke="#63b8ff" points="595.24,-205.47 585.8,-200.67 590.18,-210.31 595.24,-205.47"/>
</a>
</g>
</g>
<!-- Node19 -->
<g id="Node000019" class="node">
<title>Node19</title>
<g id="a_Node000019"><a xlink:href="logger_8h.html" target="_top" xlink:title=" ">
<polygon fill="white" stroke="#666666" points="1028,-140 945,-140 945,-121 1028,-121 1028,-140"/>
<text text-anchor="middle" x="986.5" y="-128" font-family="Helvetica,sans-Serif" font-size="10.00">tools/logger.h</text>
</a>
</g>
</g>
<!-- Node14&#45;&gt;Node19 -->
<g id="edge23_Node000014_Node000019" class="edge">
<title>Node14&#45;&gt;Node19</title>
<g id="a_edge23_Node000014_Node000019"><a xlink:title=" ">
<path fill="none" stroke="#63b8ff" d="M691.28,-247.13C785.33,-241.06 963.03,-226.94 982.5,-206 996.24,-191.21 994.73,-166.82 991.45,-149.99"/>
<polygon fill="#63b8ff" stroke="#63b8ff" points="994.85,-149.16 989.18,-140.21 988.03,-150.74 994.85,-149.16"/>
</a>
</g>
</g>
<!-- Node27 -->
<g id="Node000027" class="node">
<title>Node27</title>
<g id="a_Node000027"><a xlink:href="element__parameters_8h.html" target="_top" xlink:title=" ">
<polygon fill="white" stroke="#666666" points="973,-206 842,-206 842,-176 973,-176 973,-206"/>
<text text-anchor="start" x="850" y="-194" font-family="Helvetica,sans-Serif" font-size="10.00">element_parameters</text>
<text text-anchor="middle" x="907.5" y="-183" font-family="Helvetica,sans-Serif" font-size="10.00">/element_parameters.h</text>
</a>
</g>
</g>
<!-- Node14&#45;&gt;Node27 -->
<g id="edge38_Node000014_Node000027" class="edge">
<title>Node14&#45;&gt;Node27</title>
<g id="a_edge38_Node000014_Node000027"><a xlink:title=" ">
<path fill="none" stroke="#63b8ff" d="M673.34,-241.99C714.74,-233.16 780.52,-219.11 831.83,-208.16"/>
<polygon fill="#63b8ff" stroke="#63b8ff" points="832.84,-211.52 841.89,-206.01 831.38,-204.67 832.84,-211.52"/>
</a>
</g>
</g>
<!-- Node19&#45;&gt;Node5 -->
<g id="edge29_Node000019_Node000005" class="edge">
<title>Node19&#45;&gt;Node5</title>
<g id="a_edge29_Node000019_Node000005"><a xlink:title=" ">
<path fill="none" stroke="#63b8ff" d="M944.8,-122.22C941.66,-121.77 938.53,-121.36 935.5,-121 703.28,-93.59 426.73,-79.48 296.05,-73.91"/>
<polygon fill="#63b8ff" stroke="#63b8ff" points="295.9,-70.4 285.76,-73.48 295.6,-77.4 295.9,-70.4"/>
</a>
</g>
</g>
<!-- Node19&#45;&gt;Node8 -->
<g id="edge25_Node000019_Node000008" class="edge">
<title>Node19&#45;&gt;Node8</title>
<g id="a_edge25_Node000019_Node000008"><a xlink:title=" ">
<path fill="none" stroke="#63b8ff" d="M944.88,-122.52C880.53,-111.63 762.31,-91.2 743.5,-85 695.6,-69.21 643.62,-41.12 614.55,-24.31"/>
<polygon fill="#63b8ff" stroke="#63b8ff" points="616.01,-21.1 605.61,-19.07 612.47,-27.14 616.01,-21.1"/>
</a>
</g>
</g>
<!-- Node19&#45;&gt;Node13 -->
<g id="edge26_Node000019_Node000013" class="edge">
<title>Node19&#45;&gt;Node13</title>
<g id="a_edge26_Node000019_Node000013"><a xlink:title=" ">
<path fill="none" stroke="#63b8ff" d="M944.88,-122.41C881.94,-111.52 769.12,-91.27 762.5,-85 747.54,-70.83 743.72,-46.65 743.03,-29.7"/>
<polygon fill="#63b8ff" stroke="#63b8ff" points="746.53,-29.3 742.97,-19.32 739.53,-29.35 746.53,-29.3"/>
</a>
</g>
</g>
<!-- Node20 -->
<g id="Node000020" class="node">
<title>Node20</title>
<g id="a_Node000020"><a xlink:title=" ">
<polygon fill="#e0e0e0" stroke="#999999" points="1031.5,-79.5 971.5,-79.5 971.5,-60.5 1031.5,-60.5 1031.5,-79.5"/>
<text text-anchor="middle" x="1001.5" y="-67.5" font-family="Helvetica,sans-Serif" font-size="10.00">iostream</text>
</a>
</g>
</g>
<!-- Node19&#45;&gt;Node20 -->
<g id="edge24_Node000019_Node000020" class="edge">
<title>Node19&#45;&gt;Node20</title>
<g id="a_edge24_Node000019_Node000020"><a xlink:title=" ">
<path fill="none" stroke="#63b8ff" d="M988.71,-120.87C990.82,-112.66 994.05,-100.04 996.74,-89.55"/>
<polygon fill="#63b8ff" stroke="#63b8ff" points="1000.18,-90.22 999.28,-79.67 993.4,-88.48 1000.18,-90.22"/>
</a>
</g>
</g>
<!-- Node21 -->
<g id="Node000021" class="node">
<title>Node21</title>
<g id="a_Node000021"><a xlink:title=" ">
<polygon fill="#e0e0e0" stroke="#999999" points="827.5,-79.5 771.5,-79.5 771.5,-60.5 827.5,-60.5 827.5,-79.5"/>
<text text-anchor="middle" x="799.5" y="-67.5" font-family="Helvetica,sans-Serif" font-size="10.00">iomanip</text>
</a>
</g>
</g>
<!-- Node19&#45;&gt;Node21 -->
<g id="edge27_Node000019_Node000021" class="edge">
<title>Node19&#45;&gt;Node21</title>
<g id="a_edge27_Node000019_Node000021"><a xlink:title=" ">
<path fill="none" stroke="#63b8ff" d="M955.79,-120.94C925.54,-112.36 878.1,-98.53 837.5,-85 835.6,-84.37 833.65,-83.7 831.69,-83.02"/>
<polygon fill="#63b8ff" stroke="#63b8ff" points="832.52,-79.6 821.92,-79.53 830.16,-86.19 832.52,-79.6"/>
</a>
</g>
</g>
<!-- Node22 -->
<g id="Node000022" class="node">
<title>Node22</title>
<g id="a_Node000022"><a xlink:title=" ">
<polygon fill="#e0e0e0" stroke="#999999" points="953,-85 846,-85 846,-55 953,-55 953,-85"/>
<text text-anchor="start" x="854" y="-73" font-family="Helvetica,sans-Serif" font-size="10.00">imgui&#45;platform&#45;kit</text>
<text text-anchor="middle" x="899.5" y="-62" font-family="Helvetica,sans-Serif" font-size="10.00">/log_window.h</text>
</a>
</g>
</g>
<!-- Node19&#45;&gt;Node22 -->
<g id="edge28_Node000019_Node000022" class="edge">
<title>Node19&#45;&gt;Node22</title>
<g id="a_edge28_Node000019_Node000022"><a xlink:title=" ">
<path fill="none" stroke="#63b8ff" d="M973.66,-120.87C961.97,-113 944.25,-101.09 929.07,-90.89"/>
<polygon fill="#63b8ff" stroke="#63b8ff" points="930.74,-87.79 920.49,-85.11 926.84,-93.6 930.74,-87.79"/>
</a>
</g>
</g>
<!-- Node19&#45;&gt;Node23 -->
<g id="edge30_Node000019_Node000023" class="edge">
<title>Node19&#45;&gt;Node23</title>
<g id="a_edge30_Node000019_Node000023"><a xlink:title=" ">
<path fill="none" stroke="#63b8ff" d="M1004.68,-120.99C1025.51,-111.25 1059.87,-95.16 1083.98,-83.88"/>
<polygon fill="#63b8ff" stroke="#63b8ff" points="1085.73,-86.93 1093.3,-79.52 1082.76,-80.59 1085.73,-86.93"/>
</a>
</g>
</g>
<!-- Node23&#45;&gt;Node8 -->
<g id="edge31_Node000023_Node000008" class="edge">
<title>Node23&#45;&gt;Node8</title>
<g id="a_edge31_Node000023_Node000008"><a xlink:title=" ">
<path fill="none" stroke="#63b8ff" d="M1091.3,-60.4C1085.63,-58.3 1079.41,-56.3 1073.5,-55 880.7,-12.61 823.11,-51.59 623.68,-18.64"/>
<polygon fill="#63b8ff" stroke="#63b8ff" points="624.21,-15.18 613.77,-16.96 623.04,-22.08 624.21,-15.18"/>
</a>
</g>
</g>
<!-- Node23&#45;&gt;Node10 -->
<g id="edge32_Node000023_Node000010" class="edge">
<title>Node23&#45;&gt;Node10</title>
<g id="a_edge32_Node000023_Node000010"><a xlink:title=" ">
<path fill="none" stroke="#63b8ff" d="M1128.62,-60.37C1147.72,-50.73 1178.87,-35.03 1201.1,-23.81"/>
<polygon fill="#63b8ff" stroke="#63b8ff" points="1202.96,-26.8 1210.31,-19.17 1199.81,-20.55 1202.96,-26.8"/>
</a>
</g>
</g>
<!-- Node23&#45;&gt;Node12 -->
<g id="edge37_Node000023_Node000012" class="edge">
<title>Node23&#45;&gt;Node12</title>
<g id="a_edge37_Node000023_Node000012"><a xlink:title=" ">
<path fill="none" stroke="#63b8ff" d="M1091.28,-60.47C1085.62,-58.38 1079.39,-56.35 1073.5,-55 918.31,-19.35 872.2,-41.82 710.99,-19.06"/>
<polygon fill="#63b8ff" stroke="#63b8ff" points="711.11,-15.54 700.72,-17.57 710.11,-22.47 711.11,-15.54"/>
</a>
</g>
</g>
<!-- Node23&#45;&gt;Node13 -->
<g id="edge36_Node000023_Node000013" class="edge">
<title>Node23&#45;&gt;Node13</title>
<g id="a_edge36_Node000023_Node000013"><a xlink:title=" ">
<path fill="none" stroke="#63b8ff" d="M1090.85,-60.46C1085.29,-58.42 1079.23,-56.42 1073.5,-55 968.18,-28.83 839.87,-17.11 778.92,-12.72"/>
<polygon fill="#63b8ff" stroke="#63b8ff" points="778.91,-9.21 768.69,-12.01 778.42,-16.2 778.91,-9.21"/>
</a>
</g>
</g>
<!-- Node24 -->
<g id="Node000024" class="node">
<title>Node24</title>
<g id="a_Node000024"><a xlink:title=" ">
<polygon fill="#e0e0e0" stroke="#999999" points="1038.5,-19 984.5,-19 984.5,0 1038.5,0 1038.5,-19"/>
<text text-anchor="middle" x="1011.5" y="-7" font-family="Helvetica,sans-Serif" font-size="10.00">random</text>
</a>
</g>
</g>
<!-- Node23&#45;&gt;Node24 -->
<g id="edge33_Node000023_Node000024" class="edge">
<title>Node23&#45;&gt;Node24</title>
<g id="a_edge33_Node000023_Node000024"><a xlink:title=" ">
<path fill="none" stroke="#63b8ff" d="M1096.74,-60.37C1080.5,-50.86 1054.15,-35.45 1035.04,-24.27"/>
<polygon fill="#63b8ff" stroke="#63b8ff" points="1036.71,-21.2 1026.32,-19.17 1033.18,-27.24 1036.71,-21.2"/>
</a>
</g>
</g>
<!-- Node25 -->
<g id="Node000025" class="node">
<title>Node25</title>
<g id="a_Node000025"><a xlink:title=" ">
<polygon fill="#e0e0e0" stroke="#999999" points="1112.5,-19 1056.5,-19 1056.5,0 1112.5,0 1112.5,-19"/>
<text text-anchor="middle" x="1084.5" y="-7" font-family="Helvetica,sans-Serif" font-size="10.00">sstream</text>
</a>
</g>
</g>
<!-- Node23&#45;&gt;Node25 -->
<g id="edge34_Node000023_Node000025" class="edge">
<title>Node23&#45;&gt;Node25</title>
<g id="a_edge34_Node000023_Node000025"><a xlink:title=" ">
<path fill="none" stroke="#63b8ff" d="M1107.52,-60.37C1103.65,-51.99 1097.66,-39.01 1092.76,-28.39"/>
<polygon fill="#63b8ff" stroke="#63b8ff" points="1095.87,-26.78 1088.5,-19.17 1089.51,-29.71 1095.87,-26.78"/>
</a>
</g>
</g>
<!-- Node26 -->
<g id="Node000026" class="node">
<title>Node26</title>
<g id="a_Node000026"><a xlink:title=" ">
<polygon fill="#e0e0e0" stroke="#999999" points="1186,-19 1131,-19 1131,0 1186,0 1186,-19"/>
<text text-anchor="middle" x="1158.5" y="-7" font-family="Helvetica,sans-Serif" font-size="10.00">fstream</text>
</a>
</g>
</g>
<!-- Node23&#45;&gt;Node26 -->
<g id="edge35_Node000023_Node000026" class="edge">
<title>Node23&#45;&gt;Node26</title>
<g id="a_edge35_Node000023_Node000026"><a xlink:title=" ">
<path fill="none" stroke="#63b8ff" d="M1118.44,-60.37C1125.45,-51.64 1136.46,-37.93 1145.17,-27.09"/>
<polygon fill="#63b8ff" stroke="#63b8ff" points="1148,-29.16 1151.54,-19.17 1142.54,-24.77 1148,-29.16"/>
</a>
</g>
</g>
<!-- Node27&#45;&gt;Node8 -->
<g id="edge40_Node000027_Node000008" class="edge">
<title>Node27&#45;&gt;Node8</title>
<g id="a_edge40_Node000027_Node000008"><a xlink:title=" ">
<path fill="none" stroke="#63b8ff" d="M864.85,-175.88C815.85,-158.6 734.16,-126.43 671.5,-85 646.16,-68.24 621.22,-43.31 606.1,-26.98"/>
<polygon fill="#63b8ff" stroke="#63b8ff" points="608.45,-24.36 599.14,-19.31 603.27,-29.07 608.45,-24.36"/>
</a>
</g>
</g>
<!-- Node27&#45;&gt;Node19 -->
<g id="edge42_Node000027_Node000019" class="edge">
<title>Node27&#45;&gt;Node19</title>
<g id="a_edge42_Node000027_Node000019"><a xlink:title=" ">
<path fill="none" stroke="#63b8ff" d="M926.62,-175.84C938.68,-166.91 954.21,-155.41 966.44,-146.35"/>
<polygon fill="#63b8ff" stroke="#63b8ff" points="968.71,-149.03 974.66,-140.27 964.54,-143.4 968.71,-149.03"/>
</a>
</g>
</g>
<!-- Node28 -->
<g id="Node000028" class="node">
<title>Node28</title>
<g id="a_Node000028"><a xlink:title=" ">
<polygon fill="#e0e0e0" stroke="#999999" points="926.5,-140 888.5,-140 888.5,-121 926.5,-121 926.5,-140"/>
<text text-anchor="middle" x="907.5" y="-128" font-family="Helvetica,sans-Serif" font-size="10.00">map</text>
</a>
</g>
</g>
<!-- Node27&#45;&gt;Node28 -->
<g id="edge39_Node000027_Node000028" class="edge">
<title>Node27&#45;&gt;Node28</title>
<g id="a_edge39_Node000027_Node000028"><a xlink:title=" ">
<path fill="none" stroke="#63b8ff" d="M907.5,-175.84C907.5,-168.21 907.5,-158.7 907.5,-150.45"/>
<polygon fill="#63b8ff" stroke="#63b8ff" points="911,-150.27 907.5,-140.27 904,-150.27 911,-150.27"/>
</a>
</g>
</g>
<!-- Node29 -->
<g id="Node000029" class="node">
<title>Node29</title>
<g id="a_Node000029"><a xlink:title=" ">
<polygon fill="#e0e0e0" stroke="#999999" points="631.5,-140 581.5,-140 581.5,-121 631.5,-121 631.5,-140"/>
<text text-anchor="middle" x="606.5" y="-128" font-family="Helvetica,sans-Serif" font-size="10.00">format</text>
</a>
</g>
</g>
<!-- Node27&#45;&gt;Node29 -->
<g id="edge41_Node000027_Node000029" class="edge">
<title>Node27&#45;&gt;Node29</title>
<g id="a_edge41_Node000027_Node000029"><a xlink:title=" ">
<path fill="none" stroke="#63b8ff" d="M841.73,-177.65C776.82,-165.43 682.14,-147.49 645.5,-140 644.24,-139.74 642.96,-139.48 641.66,-139.21"/>
<polygon fill="#63b8ff" stroke="#63b8ff" points="642.16,-135.74 631.65,-137.08 640.71,-142.58 642.16,-135.74"/>
</a>
</g>
</g>
<!-- Node30&#45;&gt;Node5 -->
<g id="edge49_Node000030_Node000005" class="edge">
<title>Node30&#45;&gt;Node5</title>
<g id="a_edge49_Node000030_Node000005"><a xlink:title=" ">
<path fill="none" stroke="#63b8ff" d="M808.97,-361.73C625.07,-350.47 173.5,-316.3 173.5,-252.5 173.5,-252.5 173.5,-252.5 173.5,-190 173.5,-151.52 195.03,-110.62 208.94,-88.2"/>
<polygon fill="#63b8ff" stroke="#63b8ff" points="211.89,-90.09 214.36,-79.78 206,-86.3 211.89,-90.09"/>
</a>
</g>
</g>
<!-- Node30&#45;&gt;Node9 -->
<g id="edge48_Node000030_Node000009" class="edge">
<title>Node30&#45;&gt;Node9</title>
<g id="a_edge48_Node000030_Node000009"><a xlink:title=" ">
<path fill="none" stroke="#63b8ff" d="M836.64,-357.49C776.17,-346.97 673.28,-329.05 608.48,-317.77"/>
<polygon fill="#63b8ff" stroke="#63b8ff" points="608.87,-314.28 598.42,-316.02 607.67,-321.18 608.87,-314.28"/>
</a>
</g>
</g>
<!-- Node30&#45;&gt;Node10 -->
<g id="edge47_Node000030_Node000010" class="edge">
<title>Node30&#45;&gt;Node10</title>
<g id="a_edge47_Node000030_Node000010"><a xlink:title=" ">
<path fill="none" stroke="#63b8ff" d="M935.47,-357.48C947.27,-355.58 959.82,-353.64 971.5,-352 1107.11,-332.99 1151.72,-370.15 1277.5,-316 1317.93,-298.59 1353.5,-296.52 1353.5,-252.5 1353.5,-252.5 1353.5,-252.5 1353.5,-129.5 1353.5,-77.3 1295.63,-41.19 1258.33,-23.35"/>
<polygon fill="#63b8ff" stroke="#63b8ff" points="1259.42,-20 1248.87,-19 1256.5,-26.36 1259.42,-20"/>
</a>
</g>
</g>
<!-- Node30&#45;&gt;Node19 -->
<g id="edge56_Node000030_Node000019" class="edge">
<title>Node30&#45;&gt;Node19</title>
<g id="a_edge56_Node000030_Node000019"><a xlink:title=" ">
<path fill="none" stroke="#63b8ff" d="M889.47,-357.14C895.68,-343.65 908.46,-317.37 922.5,-297 952.9,-252.9 982.76,-256.17 1001.5,-206 1008.48,-187.32 1001.99,-164.73 995.5,-149.36"/>
<polygon fill="#63b8ff" stroke="#63b8ff" points="998.55,-147.62 991.18,-140.01 992.2,-150.55 998.55,-147.62"/>
</a>
</g>
</g>
<!-- Node30&#45;&gt;Node20 -->
<g id="edge46_Node000030_Node000020" class="edge">
<title>Node30&#45;&gt;Node20</title>
<g id="a_edge46_Node000030_Node000020"><a xlink:title=" ">
<path fill="none" stroke="#63b8ff" d="M935.93,-357.47C947.6,-355.59 959.97,-353.66 971.5,-352 1035.12,-342.83 1215.97,-364.2 1258.5,-316 1343.53,-219.64 1119.65,-117.75 1033.59,-83.24"/>
<polygon fill="#63b8ff" stroke="#63b8ff" points="1034.86,-79.98 1024.27,-79.55 1032.28,-86.49 1034.86,-79.98"/>
</a>
</g>
</g>
<!-- Node31 -->
<g id="Node000031" class="node">
<title>Node31</title>
<g id="a_Node000031"><a xlink:href="plot_8h.html" target="_top" xlink:title=" ">
<polygon fill="white" stroke="#666666" points="1128.5,-261 1084.5,-261 1084.5,-242 1128.5,-242 1128.5,-261"/>
<text text-anchor="middle" x="1106.5" y="-249" font-family="Helvetica,sans-Serif" font-size="10.00">plot.h</text>
</a>
</g>
</g>
<!-- Node30&#45;&gt;Node31 -->
<g id="edge50_Node000030_Node000031" class="edge">
<title>Node30&#45;&gt;Node31</title>
<g id="a_edge50_Node000030_Node000031"><a xlink:title=" ">
<path fill="none" stroke="#63b8ff" d="M935.95,-357.48C984.42,-348.45 1053.34,-333.15 1074.5,-316 1088.56,-304.6 1097.01,-285.43 1101.67,-271.13"/>
<polygon fill="#63b8ff" stroke="#63b8ff" points="1105.08,-271.93 1104.52,-261.35 1098.36,-269.97 1105.08,-271.93"/>
</a>
</g>
</g>
<!-- Node33 -->
<g id="Node000033" class="node">
<title>Node33</title>
<g id="a_Node000033"><a xlink:href="lineplot_8h.html" target="_top" xlink:title=" ">
<polygon fill="white" stroke="#666666" points="1249.5,-316 1121.5,-316 1121.5,-297 1249.5,-297 1249.5,-316"/>
<text text-anchor="middle" x="1185.5" y="-304" font-family="Helvetica,sans-Serif" font-size="10.00">visualization/lineplot.h</text>
</a>
</g>
</g>
<!-- Node30&#45;&gt;Node33 -->
<g id="edge57_Node000030_Node000033" class="edge">
<title>Node30&#45;&gt;Node33</title>
<g id="a_edge57_Node000030_Node000033"><a xlink:title=" ">
<path fill="none" stroke="#63b8ff" d="M929.12,-357.49C982.78,-347.03 1073.85,-329.27 1131.77,-317.98"/>
<polygon fill="#63b8ff" stroke="#63b8ff" points="1132.68,-321.37 1141.82,-316.02 1131.34,-314.5 1132.68,-321.37"/>
</a>
</g>
</g>
<!-- Node34 -->
<g id="Node000034" class="node">
<title>Node34</title>
<g id="a_Node000034"><a xlink:href="heatmap_8h.html" target="_top" xlink:title=" ">
<polygon fill="white" stroke="#666666" points="1065.5,-316 931.5,-316 931.5,-297 1065.5,-297 1065.5,-316"/>
<text text-anchor="middle" x="998.5" y="-304" font-family="Helvetica,sans-Serif" font-size="10.00">visualization/heatmap.h</text>
</a>
</g>
</g>
<!-- Node30&#45;&gt;Node34 -->
<g id="edge59_Node000030_Node000034" class="edge">
<title>Node30&#45;&gt;Node34</title>
<g id="a_edge59_Node000030_Node000034"><a xlink:title=" ">
<path fill="none" stroke="#63b8ff" d="M902.17,-357.37C920.78,-347.73 951.12,-332.03 972.78,-320.81"/>
<polygon fill="#63b8ff" stroke="#63b8ff" points="974.49,-323.87 981.76,-316.17 971.27,-317.66 974.49,-323.87"/>
</a>
</g>
</g>
<!-- Node32 -->
<g id="Node000032" class="node">
<title>Node32</title>
<g id="a_Node000032"><a xlink:href="plot__parameters_8h.html" target="_top" xlink:title=" ">
<polygon fill="white" stroke="#666666" points="1173.5,-200.5 1067.5,-200.5 1067.5,-181.5 1173.5,-181.5 1173.5,-200.5"/>
<text text-anchor="middle" x="1120.5" y="-188.5" font-family="Helvetica,sans-Serif" font-size="10.00">plot_parameters.h</text>
</a>
</g>
</g>
<!-- Node31&#45;&gt;Node32 -->
<g id="edge51_Node000031_Node000032" class="edge">
<title>Node31&#45;&gt;Node32</title>
<g id="a_edge51_Node000031_Node000032"><a xlink:title=" ">
<path fill="none" stroke="#63b8ff" d="M1108.57,-241.87C1110.53,-233.66 1113.55,-221.04 1116.06,-210.55"/>
<polygon fill="#63b8ff" stroke="#63b8ff" points="1119.5,-211.21 1118.43,-200.67 1112.69,-209.58 1119.5,-211.21"/>
</a>
</g>
</g>
<!-- Node32&#45;&gt;Node8 -->
<g id="edge53_Node000032_Node000008" class="edge">
<title>Node32&#45;&gt;Node8</title>
<g id="a_edge53_Node000032_Node000008"><a xlink:title=" ">
<path fill="none" stroke="#63b8ff" d="M1118.37,-181.44C1111.74,-156.78 1088.94,-85.44 1040.5,-55 964.21,-7.06 730.37,-33.23 623.69,-18.5"/>
<polygon fill="#63b8ff" stroke="#63b8ff" points="624.19,-15.04 613.77,-16.94 623.11,-21.95 624.19,-15.04"/>
</a>
</g>
</g>
<!-- Node32&#45;&gt;Node10 -->
<g id="edge54_Node000032_Node000010" class="edge">
<title>Node32&#45;&gt;Node10</title>
<g id="a_edge54_Node000032_Node000010"><a xlink:title=" ">
<path fill="none" stroke="#63b8ff" d="M1123.83,-181.34C1132.53,-159.25 1157.37,-99.38 1187.5,-55 1194.41,-44.82 1203.5,-34.52 1211.26,-26.41"/>
<polygon fill="#63b8ff" stroke="#63b8ff" points="1213.93,-28.68 1218.46,-19.1 1208.95,-23.77 1213.93,-28.68"/>
</a>
</g>
</g>
<!-- Node32&#45;&gt;Node19 -->
<g id="edge55_Node000032_Node000019" class="edge">
<title>Node32&#45;&gt;Node19</title>
<g id="a_edge55_Node000032_Node000019"><a xlink:title=" ">
<path fill="none" stroke="#63b8ff" d="M1101.02,-181.49C1078.49,-171.66 1041.19,-155.38 1015.31,-144.08"/>
<polygon fill="#63b8ff" stroke="#63b8ff" points="1016.57,-140.81 1006.01,-140.02 1013.77,-147.23 1016.57,-140.81"/>
</a>
</g>
</g>
<!-- Node32&#45;&gt;Node28 -->
<g id="edge52_Node000032_Node000028" class="edge">
<title>Node32&#45;&gt;Node28</title>
<g id="a_edge52_Node000032_Node000028"><a xlink:title=" ">
<path fill="none" stroke="#63b8ff" d="M1088.21,-181.43C1051.42,-171.62 989.54,-154.98 936.5,-140 936.4,-139.97 936.3,-139.94 936.2,-139.91"/>
<polygon fill="#63b8ff" stroke="#63b8ff" points="937.09,-136.53 926.52,-137.13 935.16,-143.26 937.09,-136.53"/>
</a>
</g>
</g>
<!-- Node33&#45;&gt;Node31 -->
<g id="edge58_Node000033_Node000031" class="edge">
<title>Node33&#45;&gt;Node31</title>
<g id="a_edge58_Node000033_Node000031"><a xlink:title=" ">
<path fill="none" stroke="#63b8ff" d="M1172.81,-296.98C1160.67,-288.84 1142.14,-276.41 1127.75,-266.76"/>
<polygon fill="#63b8ff" stroke="#63b8ff" points="1129.68,-263.84 1119.42,-261.17 1125.78,-269.65 1129.68,-263.84"/>
</a>
</g>
</g>
<!-- Node34&#45;&gt;Node31 -->
<g id="edge60_Node000034_Node000031" class="edge">
<title>Node34&#45;&gt;Node31</title>
<g id="a_edge60_Node000034_Node000031"><a xlink:title=" ">
<path fill="none" stroke="#63b8ff" d="M1015.85,-296.98C1033.07,-288.54 1059.7,-275.47 1079.65,-265.68"/>
<polygon fill="#63b8ff" stroke="#63b8ff" points="1081.4,-268.72 1088.83,-261.17 1078.31,-262.43 1081.4,-268.72"/>
</a>
</g>
</g>
<!-- Node38 -->
<g id="Node000038" class="node">
<title>Node38</title>
<g id="a_Node000038"><a xlink:title=" ">
<polygon fill="#e0e0e0" stroke="#999999" points="1453,-316 1400,-316 1400,-297 1453,-297 1453,-316"/>
<text text-anchor="middle" x="1426.5" y="-304" font-family="Helvetica,sans-Serif" font-size="10.00">imgui.h</text>
</a>
</g>
</g>
<!-- Node37&#45;&gt;Node38 -->
<g id="edge64_Node000037_Node000038" class="edge">
<title>Node37&#45;&gt;Node38</title>
<g id="a_edge64_Node000037_Node000038"><a xlink:title=" ">
<path fill="none" stroke="#63b8ff" d="M1426.5,-351.84C1426.5,-344.21 1426.5,-334.7 1426.5,-326.45"/>
<polygon fill="#63b8ff" stroke="#63b8ff" points="1430,-326.27 1426.5,-316.27 1423,-326.27 1430,-326.27"/>
</a>
</g>
</g>
</g>
</svg>
