<?xml version="1.0" encoding="UTF-8" standalone="no"?>
<!DOCTYPE svg PUBLIC "-//W3C//DTD SVG 1.1//EN"
 "http://www.w3.org/Graphics/SVG/1.1/DTD/svg11.dtd">
<!-- Generated by graphviz version 2.43.0 (0)
 -->
<!-- Title: include/application/application.h Pages: 1 -->
<svg width="1644pt" height="456pt"
 viewBox="0.00 0.00 1644.00 456.00" xmlns="http://www.w3.org/2000/svg" xmlns:xlink="http://www.w3.org/1999/xlink">
<g id="graph0" class="graph" transform="scale(1 1) rotate(0) translate(4 452)">
<title>include/application/application.h</title>
<!-- Node1 -->
<g id="Node000001" class="node">
<title>Node1</title>
<g id="a_Node000001"><a xlink:title=" ">
<polygon fill="#999999" stroke="#666666" points="464,-448 355,-448 355,-418 464,-418 464,-448"/>
<text text-anchor="start" x="363" y="-436" font-family="Helvetica,sans-Serif" font-size="10.00">include/application</text>
<text text-anchor="middle" x="409.5" y="-425" font-family="Helvetica,sans-Serif" font-size="10.00">/application.h</text>
</a>
</g>
</g>
<!-- Node2 -->
<g id="Node000002" class="node">
<title>Node2</title>
<g id="a_Node000002"><a xlink:title=" ">
<polygon fill="#e0e0e0" stroke="#999999" points="69,-376.5 0,-376.5 0,-357.5 69,-357.5 69,-376.5"/>
<text text-anchor="middle" x="34.5" y="-364.5" font-family="Helvetica,sans-Serif" font-size="10.00">type_traits</text>
</a>
</g>
</g>
<!-- Node1&#45;&gt;Node2 -->
<g id="edge1_Node000001_Node000002" class="edge">
<title>Node1&#45;&gt;Node2</title>
<g id="a_edge1_Node000001_Node000002"><a xlink:title=" ">
<path fill="none" stroke="#63b8ff" d="M354.92,-426.58C288.7,-419.36 173.93,-404.79 77.5,-382 74.47,-381.28 71.34,-380.45 68.22,-379.56"/>
<polygon fill="#63b8ff" stroke="#63b8ff" points="68.99,-376.14 58.41,-376.56 66.95,-382.83 68.99,-376.14"/>
</a>
</g>
</g>
<!-- Node3 -->
<g id="Node000003" class="node">
<title>Node3</title>
<g id="a_Node000003"><a xlink:title=" ">
<polygon fill="#e0e0e0" stroke="#999999" points="194,-382 87,-382 87,-352 194,-352 194,-382"/>
<text text-anchor="start" x="95" y="-370" font-family="Helvetica,sans-Serif" font-size="10.00">imgui&#45;platform&#45;kit</text>
<text text-anchor="middle" x="140.5" y="-359" font-family="Helvetica,sans-Serif" font-size="10.00">/user_interface.h</text>
</a>
</g>
</g>
<!-- Node1&#45;&gt;Node3 -->
<g id="edge2_Node000001_Node000003" class="edge">
<title>Node1&#45;&gt;Node3</title>
<g id="a_edge2_Node000001_Node000003"><a xlink:title=" ">
<path fill="none" stroke="#63b8ff" d="M354.74,-418.97C311.09,-408.59 249.9,-394.03 204.09,-383.13"/>
<polygon fill="#63b8ff" stroke="#63b8ff" points="204.8,-379.7 194.27,-380.79 203.18,-386.51 204.8,-379.7"/>
</a>
</g>
</g>
<!-- Node4 -->
<g id="Node000004" class="node">
<title>Node4</title>
<g id="a_Node000004"><a xlink:href="exception_8h.html" target="_top" xlink:title=" ">
<polygon fill="white" stroke="#666666" points="401.5,-79.5 271.5,-79.5 271.5,-60.5 401.5,-60.5 401.5,-79.5"/>
<text text-anchor="middle" x="336.5" y="-67.5" font-family="Helvetica,sans-Serif" font-size="10.00">exceptions/exception.h</text>
</a>
</g>
</g>
<!-- Node1&#45;&gt;Node4 -->
<g id="edge3_Node000001_Node000004" class="edge">
<title>Node1&#45;&gt;Node4</title>
<g id="a_edge3_Node000001_Node000004"><a xlink:title=" ">
<path fill="none" stroke="#63b8ff" d="M354.91,-420.24C299.71,-404.77 222.5,-371.66 222.5,-307.5 222.5,-307.5 222.5,-307.5 222.5,-190 222.5,-140.05 275.52,-102.88 309.24,-84.3"/>
<polygon fill="#63b8ff" stroke="#63b8ff" points="310.99,-87.33 318.18,-79.55 307.71,-81.15 310.99,-87.33"/>
</a>
</g>
</g>
<!-- Node8 -->
<g id="Node000008" class="node">
<title>Node8</title>
<g id="a_Node000008"><a xlink:href="simulation_8h.html" target="_top" xlink:title=" ">
<polygon fill="white" stroke="#666666" points="1316.5,-316 1184.5,-316 1184.5,-297 1316.5,-297 1316.5,-316"/>
<text text-anchor="middle" x="1250.5" y="-304" font-family="Helvetica,sans-Serif" font-size="10.00">simulation/simulation.h</text>
</a>
</g>
</g>
<!-- Node1&#45;&gt;Node8 -->
<g id="edge7_Node000001_Node000008" class="edge">
<title>Node1&#45;&gt;Node8</title>
<g id="a_edge7_Node000001_Node000008"><a xlink:title=" ">
<path fill="none" stroke="#63b8ff" d="M464.03,-423.93C611.93,-402.03 1020.41,-341.56 1182.73,-317.53"/>
<polygon fill="#63b8ff" stroke="#63b8ff" points="1183.68,-320.93 1193.06,-316 1182.65,-314.01 1183.68,-320.93"/>
</a>
</g>
</g>
<!-- Node30 -->
<g id="Node000030" class="node">
<title>Node30</title>
<g id="a_Node000030"><a xlink:href="visualization_8h.html" target="_top" xlink:title=" ">
<polygon fill="white" stroke="#666666" points="673,-376.5 520,-376.5 520,-357.5 673,-357.5 673,-376.5"/>
<text text-anchor="middle" x="596.5" y="-364.5" font-family="Helvetica,sans-Serif" font-size="10.00">visualization/visualization.h</text>
</a>
</g>
</g>
<!-- Node1&#45;&gt;Node30 -->
<g id="edge48_Node000001_Node000030" class="edge">
<title>Node1&#45;&gt;Node30</title>
<g id="a_edge48_Node000001_Node000030"><a xlink:title=" ">
<path fill="none" stroke="#63b8ff" d="M450.54,-417.95C483.91,-406.53 530.47,-390.6 561.96,-379.82"/>
<polygon fill="#63b8ff" stroke="#63b8ff" points="563.29,-383.07 571.61,-376.52 561.02,-376.44 563.29,-383.07"/>
</a>
</g>
</g>
<!-- Node35 -->
<g id="Node000035" class="node">
<title>Node35</title>
<g id="a_Node000035"><a xlink:href="imgui__freetype_8h.html" target="_top" xlink:title=" ">
<polygon fill="white" stroke="#666666" points="1391.5,-382 1277.5,-382 1277.5,-352 1391.5,-352 1391.5,-382"/>
<text text-anchor="start" x="1285.5" y="-370" font-family="Helvetica,sans-Serif" font-size="10.00">user_interface/fonts</text>
<text text-anchor="middle" x="1334.5" y="-359" font-family="Helvetica,sans-Serif" font-size="10.00">/imgui_freetype.h</text>
</a>
</g>
</g>
<!-- Node1&#45;&gt;Node35 -->
<g id="edge64_Node000001_Node000035" class="edge">
<title>Node1&#45;&gt;Node35</title>
<g id="a_edge64_Node000001_Node000035"><a xlink:title=" ">
<path fill="none" stroke="#63b8ff" d="M464.25,-428.21C624.45,-417.13 1091.98,-384.78 1267.17,-372.66"/>
<polygon fill="#63b8ff" stroke="#63b8ff" points="1267.55,-376.14 1277.28,-371.96 1267.07,-369.16 1267.55,-376.14"/>
</a>
</g>
</g>
<!-- Node5 -->
<g id="Node000005" class="node">
<title>Node5</title>
<g id="a_Node000005"><a xlink:title=" ">
<polygon fill="#e0e0e0" stroke="#999999" points="399.5,-19 349.5,-19 349.5,0 399.5,0 399.5,-19"/>
<text text-anchor="middle" x="374.5" y="-7" font-family="Helvetica,sans-Serif" font-size="10.00">cstdint</text>
</a>
</g>
</g>
<!-- Node4&#45;&gt;Node5 -->
<g id="edge4_Node000004_Node000005" class="edge">
<title>Node4&#45;&gt;Node5</title>
<g id="a_edge4_Node000004_Node000005"><a xlink:title=" ">
<path fill="none" stroke="#63b8ff" d="M342.11,-60.37C347.66,-51.81 356.33,-38.47 363.3,-27.74"/>
<polygon fill="#63b8ff" stroke="#63b8ff" points="366.36,-29.46 368.87,-19.17 360.49,-25.65 366.36,-29.46"/>
</a>
</g>
</g>
<!-- Node6 -->
<g id="Node000006" class="node">
<title>Node6</title>
<g id="a_Node000006"><a xlink:title=" ">
<polygon fill="#e0e0e0" stroke="#999999" points="331,-19 266,-19 266,0 331,0 331,-19"/>
<text text-anchor="middle" x="298.5" y="-7" font-family="Helvetica,sans-Serif" font-size="10.00">exception</text>
</a>
</g>
</g>
<!-- Node4&#45;&gt;Node6 -->
<g id="edge5_Node000004_Node000006" class="edge">
<title>Node4&#45;&gt;Node6</title>
<g id="a_edge5_Node000004_Node000006"><a xlink:title=" ">
<path fill="none" stroke="#63b8ff" d="M330.89,-60.37C325.34,-51.81 316.67,-38.47 309.7,-27.74"/>
<polygon fill="#63b8ff" stroke="#63b8ff" points="312.51,-25.65 304.13,-19.17 306.64,-29.46 312.51,-25.65"/>
</a>
</g>
</g>
<!-- Node7 -->
<g id="Node000007" class="node">
<title>Node7</title>
<g id="a_Node000007"><a xlink:title=" ">
<polygon fill="#e0e0e0" stroke="#999999" points="897.5,-19 853.5,-19 853.5,0 897.5,0 897.5,-19"/>
<text text-anchor="middle" x="875.5" y="-7" font-family="Helvetica,sans-Serif" font-size="10.00">string</text>
</a>
</g>
</g>
<!-- Node4&#45;&gt;Node7 -->
<g id="edge6_Node000004_Node000007" class="edge">
<title>Node4&#45;&gt;Node7</title>
<g id="a_edge6_Node000004_Node000007"><a xlink:title=" ">
<path fill="none" stroke="#63b8ff" d="M401.8,-61.33C419.84,-59.25 439.42,-57.01 457.5,-55 601.35,-39.02 773.18,-21.09 843.31,-13.83"/>
<polygon fill="#63b8ff" stroke="#63b8ff" points="843.7,-17.3 853.29,-12.79 842.98,-10.34 843.7,-17.3"/>
</a>
</g>
</g>
<!-- Node8&#45;&gt;Node4 -->
<g id="edge42_Node000008_Node000004" class="edge">
<title>Node8&#45;&gt;Node4</title>
<g id="a_edge42_Node000008_Node000004"><a xlink:title=" ">
<path fill="none" stroke="#63b8ff" d="M1184.44,-300.04C984.16,-283.24 395.46,-231.86 363.5,-206 329.07,-178.13 330.34,-119.87 333.66,-89.82"/>
<polygon fill="#63b8ff" stroke="#63b8ff" points="337.15,-90.17 334.97,-79.8 330.21,-89.27 337.15,-90.17"/>
</a>
</g>
</g>
<!-- Node8&#45;&gt;Node7 -->
<g id="edge10_Node000008_Node000007" class="edge">
<title>Node8&#45;&gt;Node7</title>
<g id="a_edge10_Node000008_Node000007"><a xlink:title=" ">
<path fill="none" stroke="#63b8ff" d="M1251.77,-296.93C1254.59,-274.62 1259.13,-213.79 1231.5,-176 1151.15,-66.1 979.45,-26.94 907.88,-15.04"/>
<polygon fill="#63b8ff" stroke="#63b8ff" points="908.1,-11.53 897.67,-13.42 907,-18.45 908.1,-11.53"/>
</a>
</g>
</g>
<!-- Node9 -->
<g id="Node000009" class="node">
<title>Node9</title>
<g id="a_Node000009"><a xlink:title=" ">
<polygon fill="#e0e0e0" stroke="#999999" points="1499,-19 1452,-19 1452,0 1499,0 1499,-19"/>
<text text-anchor="middle" x="1475.5" y="-7" font-family="Helvetica,sans-Serif" font-size="10.00">vector</text>
</a>
</g>
</g>
<!-- Node8&#45;&gt;Node9 -->
<g id="edge8_Node000008_Node000009" class="edge">
<title>Node8&#45;&gt;Node9</title>
<g id="a_edge8_Node000008_Node000009"><a xlink:title=" ">
<path fill="none" stroke="#63b8ff" d="M1316.59,-304.82C1395.37,-300.1 1516.5,-278.74 1516.5,-192 1516.5,-192 1516.5,-192 1516.5,-129.5 1516.5,-91.62 1497.7,-50.48 1485.56,-27.86"/>
<polygon fill="#63b8ff" stroke="#63b8ff" points="1488.61,-26.14 1480.69,-19.1 1482.49,-29.54 1488.61,-26.14"/>
</a>
</g>
</g>
<!-- Node10 -->
<g id="Node000010" class="node">
<title>Node10</title>
<g id="a_Node000010"><a xlink:title=" ">
<polygon fill="#e0e0e0" stroke="#999999" points="1222.5,-200.5 1164.5,-200.5 1164.5,-181.5 1222.5,-181.5 1222.5,-200.5"/>
<text text-anchor="middle" x="1193.5" y="-188.5" font-family="Helvetica,sans-Serif" font-size="10.00">memory</text>
</a>
</g>
</g>
<!-- Node8&#45;&gt;Node10 -->
<g id="edge9_Node000008_Node000010" class="edge">
<title>Node8&#45;&gt;Node10</title>
<g id="a_edge9_Node000008_Node000010"><a xlink:title=" ">
<path fill="none" stroke="#63b8ff" d="M1246.22,-296.97C1236.93,-278.48 1214.79,-234.4 1202.36,-209.64"/>
<polygon fill="#63b8ff" stroke="#63b8ff" points="1205.45,-208 1197.83,-200.63 1199.19,-211.14 1205.45,-208"/>
</a>
</g>
</g>
<!-- Node11 -->
<g id="Node000011" class="node">
<title>Node11</title>
<g id="a_Node000011"><a xlink:title=" ">
<polygon fill="#e0e0e0" stroke="#999999" points="1431.5,-19 1363.5,-19 1363.5,0 1431.5,0 1431.5,-19"/>
<text text-anchor="middle" x="1397.5" y="-7" font-family="Helvetica,sans-Serif" font-size="10.00">filesystem</text>
</a>
</g>
</g>
<!-- Node8&#45;&gt;Node11 -->
<g id="edge11_Node000008_Node000011" class="edge">
<title>Node8&#45;&gt;Node11</title>
<g id="a_edge11_Node000008_Node000011"><a xlink:title=" ">
<path fill="none" stroke="#63b8ff" d="M1283.11,-296.99C1327.77,-283.13 1402.5,-251.12 1402.5,-192 1402.5,-192 1402.5,-192 1402.5,-129.5 1402.5,-94.12 1400.27,-52.88 1398.79,-29.41"/>
<polygon fill="#63b8ff" stroke="#63b8ff" points="1402.26,-28.9 1398.11,-19.15 1395.27,-29.36 1402.26,-28.9"/>
</a>
</g>
</g>
<!-- Node12 -->
<g id="Node000012" class="node">
<title>Node12</title>
<g id="a_Node000012"><a xlink:title=" ">
<polygon fill="#e0e0e0" stroke="#999999" points="1120.5,-19 1070.5,-19 1070.5,0 1120.5,0 1120.5,-19"/>
<text text-anchor="middle" x="1095.5" y="-7" font-family="Helvetica,sans-Serif" font-size="10.00">chrono</text>
</a>
</g>
</g>
<!-- Node8&#45;&gt;Node12 -->
<g id="edge12_Node000008_Node000012" class="edge">
<title>Node8&#45;&gt;Node12</title>
<g id="a_edge12_Node000008_Node000012"><a xlink:title=" ">
<path fill="none" stroke="#63b8ff" d="M1254.1,-296.82C1257.56,-287.99 1262.53,-273.81 1264.5,-261 1270.24,-223.66 1275.75,-212.06 1264.5,-176 1247.75,-122.29 1220.11,-120.54 1176.5,-85 1153.04,-65.88 1127.6,-41.9 1111.62,-26.39"/>
<polygon fill="#63b8ff" stroke="#63b8ff" points="1113.78,-23.61 1104.18,-19.13 1108.89,-28.62 1113.78,-23.61"/>
</a>
</g>
</g>
<!-- Node13 -->
<g id="Node000013" class="node">
<title>Node13</title>
<g id="a_Node000013"><a xlink:href="element_8h.html" target="_top" xlink:title=" ">
<polygon fill="white" stroke="#666666" points="1058,-261 943,-261 943,-242 1058,-242 1058,-261"/>
<text text-anchor="middle" x="1000.5" y="-249" font-family="Helvetica,sans-Serif" font-size="10.00">elements/element.h</text>
</a>
</g>
</g>
<!-- Node8&#45;&gt;Node13 -->
<g id="edge13_Node000008_Node000013" class="edge">
<title>Node8&#45;&gt;Node13</title>
<g id="a_edge13_Node000008_Node000013"><a xlink:title=" ">
<path fill="none" stroke="#63b8ff" d="M1210.33,-296.98C1167,-287.8 1097.91,-273.15 1050.94,-263.19"/>
<polygon fill="#63b8ff" stroke="#63b8ff" points="1051.49,-259.73 1040.98,-261.08 1050.04,-266.58 1051.49,-259.73"/>
</a>
</g>
</g>
<!-- Node22 -->
<g id="Node000022" class="node">
<title>Node22</title>
<g id="a_Node000022"><a xlink:href="utils_8h.html" target="_top" xlink:title=" ">
<polygon fill="white" stroke="#666666" points="1233,-79.5 1186,-79.5 1186,-60.5 1233,-60.5 1233,-79.5"/>
<text text-anchor="middle" x="1209.5" y="-67.5" font-family="Helvetica,sans-Serif" font-size="10.00">utils.h</text>
</a>
</g>
</g>
<!-- Node8&#45;&gt;Node22 -->
<g id="edge43_Node000008_Node000022" class="edge">
<title>Node8&#45;&gt;Node22</title>
<g id="a_edge43_Node000008_Node000022"><a xlink:title=" ">
<path fill="none" stroke="#63b8ff" d="M1266.53,-296.95C1278.91,-289.35 1295.15,-276.97 1302.5,-261 1328.52,-204.48 1334.42,-174.41 1302.5,-121 1298.71,-114.66 1262.82,-96.48 1236.75,-83.88"/>
<polygon fill="#63b8ff" stroke="#63b8ff" points="1238.2,-80.7 1227.67,-79.53 1235.18,-87.01 1238.2,-80.7"/>
</a>
</g>
</g>
<!-- Node29 -->
<g id="Node000029" class="node">
<title>Node29</title>
<g id="a_Node000029"><a xlink:href="simulation__recorder_8h.html" target="_top" xlink:title=" ">
<polygon fill="white" stroke="#666666" points="1374,-85 1251,-85 1251,-55 1374,-55 1374,-85"/>
<text text-anchor="start" x="1259" y="-73" font-family="Helvetica,sans-Serif" font-size="10.00">simulation/simulation</text>
<text text-anchor="middle" x="1312.5" y="-62" font-family="Helvetica,sans-Serif" font-size="10.00">_recorder.h</text>
</a>
</g>
</g>
<!-- Node8&#45;&gt;Node29 -->
<g id="edge44_Node000008_Node000029" class="edge">
<title>Node8&#45;&gt;Node29</title>
<g id="a_edge44_Node000008_Node000029"><a xlink:title=" ">
<path fill="none" stroke="#63b8ff" d="M1271.12,-296.94C1286.53,-289.56 1307.01,-277.47 1319.5,-261 1334.96,-240.61 1332.68,-231.3 1336.5,-206 1342.4,-166.93 1330.56,-121.78 1321.51,-94.85"/>
<polygon fill="#63b8ff" stroke="#63b8ff" points="1324.71,-93.42 1318.1,-85.15 1318.11,-95.74 1324.71,-93.42"/>
</a>
</g>
</g>
<!-- Node13&#45;&gt;Node4 -->
<g id="edge21_Node000013_Node000004" class="edge">
<title>Node13&#45;&gt;Node4</title>
<g id="a_edge21_Node000013_Node000004"><a xlink:title=" ">
<path fill="none" stroke="#63b8ff" d="M942.88,-247.9C795.64,-241.03 415.62,-221.87 393.5,-206 355.19,-178.52 342.47,-120.08 338.37,-89.9"/>
<polygon fill="#63b8ff" stroke="#63b8ff" points="341.84,-89.37 337.19,-79.85 334.88,-90.19 341.84,-89.37"/>
</a>
</g>
</g>
<!-- Node13&#45;&gt;Node7 -->
<g id="edge15_Node000013_Node000007" class="edge">
<title>Node13&#45;&gt;Node7</title>
<g id="a_edge15_Node000013_Node000007"><a xlink:title=" ">
<path fill="none" stroke="#63b8ff" d="M1019.17,-241.97C1032.83,-234.59 1050.36,-222.5 1058.5,-206 1064.4,-194.04 1063.58,-188.33 1058.5,-176 1028.02,-101.98 944.53,-47.84 901.66,-24"/>
<polygon fill="#63b8ff" stroke="#63b8ff" points="903.13,-20.81 892.67,-19.11 899.79,-26.96 903.13,-20.81"/>
</a>
</g>
</g>
<!-- Node13&#45;&gt;Node9 -->
<g id="edge14_Node000013_Node000009" class="edge">
<title>Node13&#45;&gt;Node9</title>
<g id="a_edge14_Node000013_Node000009"><a xlink:title=" ">
<path fill="none" stroke="#63b8ff" d="M1016.95,-241.8C1044.95,-227.18 1103.85,-197.2 1155.5,-176 1270.71,-128.72 1320.08,-158.65 1420.5,-85 1440.9,-70.04 1457,-45.33 1466.38,-28.5"/>
<polygon fill="#63b8ff" stroke="#63b8ff" points="1469.72,-29.67 1471.33,-19.2 1463.54,-26.38 1469.72,-29.67"/>
</a>
</g>
</g>
<!-- Node13&#45;&gt;Node10 -->
<g id="edge17_Node000013_Node000010" class="edge">
<title>Node13&#45;&gt;Node10</title>
<g id="a_edge17_Node000013_Node000010"><a xlink:title=" ">
<path fill="none" stroke="#63b8ff" d="M1030.17,-241.95C1060.48,-233.15 1108.87,-218.95 1150.5,-206 1152.93,-205.25 1155.43,-204.46 1157.95,-203.66"/>
<polygon fill="#63b8ff" stroke="#63b8ff" points="1159.16,-206.94 1167.61,-200.55 1157.02,-200.28 1159.16,-206.94"/>
</a>
</g>
</g>
<!-- Node14 -->
<g id="Node000014" class="node">
<title>Node14</title>
<g id="a_Node000014"><a xlink:title=" ">
<polygon fill="#e0e0e0" stroke="#999999" points="882,-200.5 789,-200.5 789,-181.5 882,-181.5 882,-200.5"/>
<text text-anchor="middle" x="835.5" y="-188.5" font-family="Helvetica,sans-Serif" font-size="10.00">unordered_map</text>
</a>
</g>
</g>
<!-- Node13&#45;&gt;Node14 -->
<g id="edge16_Node000013_Node000014" class="edge">
<title>Node13&#45;&gt;Node14</title>
<g id="a_edge16_Node000013_Node000014"><a xlink:title=" ">
<path fill="none" stroke="#63b8ff" d="M976.51,-241.99C948.28,-231.99 901.22,-215.3 869.31,-203.99"/>
<polygon fill="#63b8ff" stroke="#63b8ff" points="870.12,-200.56 859.52,-200.52 867.78,-207.16 870.12,-200.56"/>
</a>
</g>
</g>
<!-- Node15 -->
<g id="Node000015" class="node">
<title>Node15</title>
<g id="a_Node000015"><a xlink:title=" ">
<polygon fill="#e0e0e0" stroke="#999999" points="950.5,-200.5 900.5,-200.5 900.5,-181.5 950.5,-181.5 950.5,-200.5"/>
<text text-anchor="middle" x="925.5" y="-188.5" font-family="Helvetica,sans-Serif" font-size="10.00">ranges</text>
</a>
</g>
</g>
<!-- Node13&#45;&gt;Node15 -->
<g id="edge18_Node000013_Node000015" class="edge">
<title>Node13&#45;&gt;Node15</title>
<g id="a_edge18_Node000013_Node000015"><a xlink:title=" ">
<path fill="none" stroke="#63b8ff" d="M989.43,-241.87C977.69,-232.71 958.91,-218.06 944.74,-207.01"/>
<polygon fill="#63b8ff" stroke="#63b8ff" points="946.65,-204.06 936.61,-200.67 942.34,-209.58 946.65,-204.06"/>
</a>
</g>
</g>
<!-- Node16 -->
<g id="Node000016" class="node">
<title>Node16</title>
<g id="a_Node000016"><a xlink:title=" ">
<polygon fill="#e0e0e0" stroke="#999999" points="1032.5,-200.5 968.5,-200.5 968.5,-181.5 1032.5,-181.5 1032.5,-200.5"/>
<text text-anchor="middle" x="1000.5" y="-188.5" font-family="Helvetica,sans-Serif" font-size="10.00">algorithm</text>
</a>
</g>
</g>
<!-- Node13&#45;&gt;Node16 -->
<g id="edge19_Node000013_Node000016" class="edge">
<title>Node13&#45;&gt;Node16</title>
<g id="a_edge19_Node000013_Node000016"><a xlink:title=" ">
<path fill="none" stroke="#63b8ff" d="M1000.5,-241.87C1000.5,-233.75 1000.5,-221.31 1000.5,-210.89"/>
<polygon fill="#63b8ff" stroke="#63b8ff" points="1004,-210.67 1000.5,-200.67 997,-210.67 1004,-210.67"/>
</a>
</g>
</g>
<!-- Node17 -->
<g id="Node000017" class="node">
<title>Node17</title>
<g id="a_Node000017"><a xlink:title=" ">
<polygon fill="#e0e0e0" stroke="#999999" points="770.5,-200.5 714.5,-200.5 714.5,-181.5 770.5,-181.5 770.5,-200.5"/>
<text text-anchor="middle" x="742.5" y="-188.5" font-family="Helvetica,sans-Serif" font-size="10.00">numeric</text>
</a>
</g>
</g>
<!-- Node13&#45;&gt;Node17 -->
<g id="edge20_Node000013_Node000017" class="edge">
<title>Node13&#45;&gt;Node17</title>
<g id="a_edge20_Node000013_Node000017"><a xlink:title=" ">
<path fill="none" stroke="#63b8ff" d="M945.41,-241.98C900.33,-234.39 835.17,-222.02 779.5,-206 777.35,-205.38 775.16,-204.7 772.96,-203.97"/>
<polygon fill="#63b8ff" stroke="#63b8ff" points="774.03,-200.63 763.43,-200.6 771.69,-207.23 774.03,-200.63"/>
</a>
</g>
</g>
<!-- Node18 -->
<g id="Node000018" class="node">
<title>Node18</title>
<g id="a_Node000018"><a xlink:href="logger_8h.html" target="_top" xlink:title=" ">
<polygon fill="white" stroke="#666666" points="768,-140 685,-140 685,-121 768,-121 768,-140"/>
<text text-anchor="middle" x="726.5" y="-128" font-family="Helvetica,sans-Serif" font-size="10.00">tools/logger.h</text>
</a>
</g>
</g>
<!-- Node13&#45;&gt;Node18 -->
<g id="edge22_Node000013_Node000018" class="edge">
<title>Node13&#45;&gt;Node18</title>
<g id="a_edge22_Node000013_Node000018"><a xlink:title=" ">
<path fill="none" stroke="#63b8ff" d="M1011.49,-241.96C1029.06,-227.31 1059.7,-196.95 1041.5,-176 1008.09,-137.54 859.27,-131.4 778.71,-130.97"/>
<polygon fill="#63b8ff" stroke="#63b8ff" points="778.3,-127.47 768.29,-130.95 778.28,-134.47 778.3,-127.47"/>
</a>
</g>
</g>
<!-- Node26 -->
<g id="Node000026" class="node">
<title>Node26</title>
<g id="a_Node000026"><a xlink:href="element__parameters_8h.html" target="_top" xlink:title=" ">
<polygon fill="white" stroke="#666666" points="658,-206 527,-206 527,-176 658,-176 658,-206"/>
<text text-anchor="start" x="535" y="-194" font-family="Helvetica,sans-Serif" font-size="10.00">element_parameters</text>
<text text-anchor="middle" x="592.5" y="-183" font-family="Helvetica,sans-Serif" font-size="10.00">/element_parameters.h</text>
</a>
</g>
</g>
<!-- Node13&#45;&gt;Node26 -->
<g id="edge37_Node000013_Node000026" class="edge">
<title>Node13&#45;&gt;Node26</title>
<g id="a_edge37_Node000013_Node000026"><a xlink:title=" ">
<path fill="none" stroke="#63b8ff" d="M942.91,-242.24C870.97,-231.93 747.7,-214.25 668.19,-202.85"/>
<polygon fill="#63b8ff" stroke="#63b8ff" points="668.63,-199.38 658.24,-201.43 667.64,-206.31 668.63,-199.38"/>
</a>
</g>
</g>
<!-- Node18&#45;&gt;Node4 -->
<g id="edge28_Node000018_Node000004" class="edge">
<title>Node18&#45;&gt;Node4</title>
<g id="a_edge28_Node000018_Node000004"><a xlink:title=" ">
<path fill="none" stroke="#63b8ff" d="M684.76,-122.48C681.63,-121.97 678.51,-121.47 675.5,-121 582.7,-106.43 475.42,-90.81 406.82,-80.98"/>
<polygon fill="#63b8ff" stroke="#63b8ff" points="406.96,-77.46 396.56,-79.51 405.97,-84.39 406.96,-77.46"/>
</a>
</g>
</g>
<!-- Node18&#45;&gt;Node7 -->
<g id="edge24_Node000018_Node000007" class="edge">
<title>Node18&#45;&gt;Node7</title>
<g id="a_edge24_Node000018_Node000007"><a xlink:title=" ">
<path fill="none" stroke="#63b8ff" d="M725.39,-120.96C723.92,-105.76 723.17,-73.86 739.5,-55 765.51,-24.97 812.09,-15.09 843.4,-11.91"/>
<polygon fill="#63b8ff" stroke="#63b8ff" points="843.71,-15.39 853.38,-11.07 843.12,-8.42 843.71,-15.39"/>
</a>
</g>
</g>
<!-- Node18&#45;&gt;Node12 -->
<g id="edge25_Node000018_Node000012" class="edge">
<title>Node18&#45;&gt;Node12</title>
<g id="a_edge25_Node000018_Node000012"><a xlink:title=" ">
<path fill="none" stroke="#63b8ff" d="M768.31,-123.71C811.63,-117.03 880.94,-104.39 938.5,-85 987.52,-68.48 1041.3,-40.68 1071.47,-24.11"/>
<polygon fill="#63b8ff" stroke="#63b8ff" points="1073.36,-27.06 1080.41,-19.15 1069.96,-20.94 1073.36,-27.06"/>
</a>
</g>
</g>
<!-- Node19 -->
<g id="Node000019" class="node">
<title>Node19</title>
<g id="a_Node000019"><a xlink:title=" ">
<polygon fill="#e0e0e0" stroke="#999999" points="687.5,-79.5 627.5,-79.5 627.5,-60.5 687.5,-60.5 687.5,-79.5"/>
<text text-anchor="middle" x="657.5" y="-67.5" font-family="Helvetica,sans-Serif" font-size="10.00">iostream</text>
</a>
</g>
</g>
<!-- Node18&#45;&gt;Node19 -->
<g id="edge23_Node000018_Node000019" class="edge">
<title>Node18&#45;&gt;Node19</title>
<g id="a_edge23_Node000018_Node000019"><a xlink:title=" ">
<path fill="none" stroke="#63b8ff" d="M716.32,-120.87C705.62,-111.8 688.56,-97.34 675.57,-86.32"/>
<polygon fill="#63b8ff" stroke="#63b8ff" points="677.61,-83.46 667.72,-79.67 673.09,-88.8 677.61,-83.46"/>
</a>
</g>
</g>
<!-- Node20 -->
<g id="Node000020" class="node">
<title>Node20</title>
<g id="a_Node000020"><a xlink:title=" ">
<polygon fill="#e0e0e0" stroke="#999999" points="804.5,-79.5 748.5,-79.5 748.5,-60.5 804.5,-60.5 804.5,-79.5"/>
<text text-anchor="middle" x="776.5" y="-67.5" font-family="Helvetica,sans-Serif" font-size="10.00">iomanip</text>
</a>
</g>
</g>
<!-- Node18&#45;&gt;Node20 -->
<g id="edge26_Node000018_Node000020" class="edge">
<title>Node18&#45;&gt;Node20</title>
<g id="a_edge26_Node000018_Node000020"><a xlink:title=" ">
<path fill="none" stroke="#63b8ff" d="M733.88,-120.87C741.41,-112.05 753.29,-98.16 762.59,-87.27"/>
<polygon fill="#63b8ff" stroke="#63b8ff" points="765.26,-89.54 769.09,-79.67 759.93,-85 765.26,-89.54"/>
</a>
</g>
</g>
<!-- Node21 -->
<g id="Node000021" class="node">
<title>Node21</title>
<g id="a_Node000021"><a xlink:title=" ">
<polygon fill="#e0e0e0" stroke="#999999" points="930,-85 823,-85 823,-55 930,-55 930,-85"/>
<text text-anchor="start" x="831" y="-73" font-family="Helvetica,sans-Serif" font-size="10.00">imgui&#45;platform&#45;kit</text>
<text text-anchor="middle" x="876.5" y="-62" font-family="Helvetica,sans-Serif" font-size="10.00">/log_window.h</text>
</a>
</g>
</g>
<!-- Node18&#45;&gt;Node21 -->
<g id="edge27_Node000018_Node000021" class="edge">
<title>Node18&#45;&gt;Node21</title>
<g id="a_edge27_Node000018_Node000021"><a xlink:title=" ">
<path fill="none" stroke="#63b8ff" d="M748.31,-120.99C769.9,-112.57 803.6,-99.43 831.03,-88.73"/>
<polygon fill="#63b8ff" stroke="#63b8ff" points="832.39,-91.96 840.44,-85.06 829.85,-85.44 832.39,-91.96"/>
</a>
</g>
</g>
<!-- Node18&#45;&gt;Node22 -->
<g id="edge29_Node000018_Node000022" class="edge">
<title>Node18&#45;&gt;Node22</title>
<g id="a_edge29_Node000018_Node000022"><a xlink:title=" ">
<path fill="none" stroke="#63b8ff" d="M768.01,-124.52C836.31,-116.33 976.68,-99.46 1095.5,-85 1122.5,-81.71 1153.09,-77.96 1175.78,-75.16"/>
<polygon fill="#63b8ff" stroke="#63b8ff" points="1176.42,-78.61 1185.92,-73.91 1175.57,-71.66 1176.42,-78.61"/>
</a>
</g>
</g>
<!-- Node22&#45;&gt;Node7 -->
<g id="edge30_Node000022_Node000007" class="edge">
<title>Node22&#45;&gt;Node7</title>
<g id="a_edge30_Node000022_Node000007"><a xlink:title=" ">
<path fill="none" stroke="#63b8ff" d="M1185.89,-64.58C1170.89,-61.79 1151.07,-58.13 1133.5,-55 1052.21,-40.5 956.36,-24.17 907.56,-15.91"/>
<polygon fill="#63b8ff" stroke="#63b8ff" points="908.05,-12.44 897.6,-14.23 906.88,-19.34 908.05,-12.44"/>
</a>
</g>
</g>
<!-- Node22&#45;&gt;Node9 -->
<g id="edge31_Node000022_Node000009" class="edge">
<title>Node22&#45;&gt;Node9</title>
<g id="a_edge31_Node000022_Node000009"><a xlink:title=" ">
<path fill="none" stroke="#63b8ff" d="M1227.16,-60.4C1231.75,-58.41 1236.74,-56.45 1241.5,-55 1327.48,-28.81 1352.57,-37.61 1440.5,-19 1440.96,-18.9 1441.42,-18.8 1441.89,-18.7"/>
<polygon fill="#63b8ff" stroke="#63b8ff" points="1442.84,-22.08 1451.82,-16.45 1441.29,-15.25 1442.84,-22.08"/>
</a>
</g>
</g>
<!-- Node22&#45;&gt;Node11 -->
<g id="edge36_Node000022_Node000011" class="edge">
<title>Node22&#45;&gt;Node11</title>
<g id="a_edge36_Node000022_Node000011"><a xlink:title=" ">
<path fill="none" stroke="#63b8ff" d="M1227.94,-60.43C1232.34,-58.53 1237.05,-56.6 1241.5,-55 1278.69,-41.63 1321.97,-29.55 1353.5,-21.36"/>
<polygon fill="#63b8ff" stroke="#63b8ff" points="1354.49,-24.72 1363.3,-18.84 1352.75,-17.94 1354.49,-24.72"/>
</a>
</g>
</g>
<!-- Node22&#45;&gt;Node12 -->
<g id="edge35_Node000022_Node000012" class="edge">
<title>Node22&#45;&gt;Node12</title>
<g id="a_edge35_Node000022_Node000012"><a xlink:title=" ">
<path fill="none" stroke="#63b8ff" d="M1192.68,-60.37C1173.9,-50.73 1143.3,-35.03 1121.45,-23.81"/>
<polygon fill="#63b8ff" stroke="#63b8ff" points="1122.89,-20.62 1112.39,-19.17 1119.69,-26.85 1122.89,-20.62"/>
</a>
</g>
</g>
<!-- Node23 -->
<g id="Node000023" class="node">
<title>Node23</title>
<g id="a_Node000023"><a xlink:title=" ">
<polygon fill="#e0e0e0" stroke="#999999" points="1266.5,-19 1212.5,-19 1212.5,0 1266.5,0 1266.5,-19"/>
<text text-anchor="middle" x="1239.5" y="-7" font-family="Helvetica,sans-Serif" font-size="10.00">random</text>
</a>
</g>
</g>
<!-- Node22&#45;&gt;Node23 -->
<g id="edge32_Node000022_Node000023" class="edge">
<title>Node22&#45;&gt;Node23</title>
<g id="a_edge32_Node000022_Node000023"><a xlink:title=" ">
<path fill="none" stroke="#63b8ff" d="M1213.93,-60.37C1218.27,-51.9 1225.02,-38.74 1230.49,-28.07"/>
<polygon fill="#63b8ff" stroke="#63b8ff" points="1233.61,-29.66 1235.06,-19.17 1227.38,-26.47 1233.61,-29.66"/>
</a>
</g>
</g>
<!-- Node24 -->
<g id="Node000024" class="node">
<title>Node24</title>
<g id="a_Node000024"><a xlink:title=" ">
<polygon fill="#e0e0e0" stroke="#999999" points="1194.5,-19 1138.5,-19 1138.5,0 1194.5,0 1194.5,-19"/>
<text text-anchor="middle" x="1166.5" y="-7" font-family="Helvetica,sans-Serif" font-size="10.00">sstream</text>
</a>
</g>
</g>
<!-- Node22&#45;&gt;Node24 -->
<g id="edge33_Node000022_Node000024" class="edge">
<title>Node22&#45;&gt;Node24</title>
<g id="a_edge33_Node000022_Node000024"><a xlink:title=" ">
<path fill="none" stroke="#63b8ff" d="M1203.16,-60.37C1196.8,-51.73 1186.86,-38.2 1178.93,-27.42"/>
<polygon fill="#63b8ff" stroke="#63b8ff" points="1181.61,-25.15 1172.87,-19.17 1175.97,-29.3 1181.61,-25.15"/>
</a>
</g>
</g>
<!-- Node25 -->
<g id="Node000025" class="node">
<title>Node25</title>
<g id="a_Node000025"><a xlink:title=" ">
<polygon fill="#e0e0e0" stroke="#999999" points="1340,-19 1285,-19 1285,0 1340,0 1340,-19"/>
<text text-anchor="middle" x="1312.5" y="-7" font-family="Helvetica,sans-Serif" font-size="10.00">fstream</text>
</a>
</g>
</g>
<!-- Node22&#45;&gt;Node25 -->
<g id="edge34_Node000022_Node000025" class="edge">
<title>Node22&#45;&gt;Node25</title>
<g id="a_edge34_Node000022_Node000025"><a xlink:title=" ">
<path fill="none" stroke="#63b8ff" d="M1224.7,-60.37C1241.51,-50.82 1268.82,-35.31 1288.52,-24.12"/>
<polygon fill="#63b8ff" stroke="#63b8ff" points="1290.27,-27.15 1297.24,-19.17 1286.82,-21.06 1290.27,-27.15"/>
</a>
</g>
</g>
<!-- Node26&#45;&gt;Node7 -->
<g id="edge39_Node000026_Node000007" class="edge">
<title>Node26&#45;&gt;Node7</title>
<g id="a_edge39_Node000026_Node000007"><a xlink:title=" ">
<path fill="none" stroke="#63b8ff" d="M590.52,-175.79C587.56,-148.24 585.45,-87.43 618.5,-55 649.83,-24.26 781.09,-14.56 842.96,-11.66"/>
<polygon fill="#63b8ff" stroke="#63b8ff" points="843.48,-15.14 853.32,-11.21 843.18,-8.15 843.48,-15.14"/>
</a>
</g>
</g>
<!-- Node26&#45;&gt;Node18 -->
<g id="edge41_Node000026_Node000018" class="edge">
<title>Node26&#45;&gt;Node18</title>
<g id="a_edge41_Node000026_Node000018"><a xlink:title=" ">
<path fill="none" stroke="#63b8ff" d="M624.6,-175.99C646.75,-166.31 675.98,-153.56 697.45,-144.18"/>
<polygon fill="#63b8ff" stroke="#63b8ff" points="698.95,-147.35 706.71,-140.14 696.15,-140.93 698.95,-147.35"/>
</a>
</g>
</g>
<!-- Node27 -->
<g id="Node000027" class="node">
<title>Node27</title>
<g id="a_Node000027"><a xlink:title=" ">
<polygon fill="#e0e0e0" stroke="#999999" points="552.5,-140 514.5,-140 514.5,-121 552.5,-121 552.5,-140"/>
<text text-anchor="middle" x="533.5" y="-128" font-family="Helvetica,sans-Serif" font-size="10.00">map</text>
</a>
</g>
</g>
<!-- Node26&#45;&gt;Node27 -->
<g id="edge38_Node000026_Node000027" class="edge">
<title>Node26&#45;&gt;Node27</title>
<g id="a_edge38_Node000026_Node000027"><a xlink:title=" ">
<path fill="none" stroke="#63b8ff" d="M578.22,-175.84C569.57,-167.26 558.51,-156.3 549.56,-147.42"/>
<polygon fill="#63b8ff" stroke="#63b8ff" points="551.91,-144.82 542.34,-140.27 546.98,-149.79 551.91,-144.82"/>
</a>
</g>
</g>
<!-- Node28 -->
<g id="Node000028" class="node">
<title>Node28</title>
<g id="a_Node000028"><a xlink:title=" ">
<polygon fill="#e0e0e0" stroke="#999999" points="666.5,-140 616.5,-140 616.5,-121 666.5,-121 666.5,-140"/>
<text text-anchor="middle" x="641.5" y="-128" font-family="Helvetica,sans-Serif" font-size="10.00">format</text>
</a>
</g>
</g>
<!-- Node26&#45;&gt;Node28 -->
<g id="edge40_Node000026_Node000028" class="edge">
<title>Node26&#45;&gt;Node28</title>
<g id="a_edge40_Node000026_Node000028"><a xlink:title=" ">
<path fill="none" stroke="#63b8ff" d="M604.36,-175.84C611.4,-167.43 620.36,-156.74 627.71,-147.96"/>
<polygon fill="#63b8ff" stroke="#63b8ff" points="630.42,-150.18 634.16,-140.27 625.05,-145.68 630.42,-150.18"/>
</a>
</g>
</g>
<!-- Node29&#45;&gt;Node7 -->
<g id="edge45_Node000029_Node000007" class="edge">
<title>Node29&#45;&gt;Node7</title>
<g id="a_edge45_Node000029_Node000007"><a xlink:title=" ">
<path fill="none" stroke="#63b8ff" d="M1250.98,-56.58C1247.78,-56.02 1244.6,-55.49 1241.5,-55 1119,-35.5 972.23,-20.02 908.13,-13.65"/>
<polygon fill="#63b8ff" stroke="#63b8ff" points="908.16,-10.14 897.86,-12.64 907.47,-17.1 908.16,-10.14"/>
</a>
</g>
</g>
<!-- Node29&#45;&gt;Node9 -->
<g id="edge46_Node000029_Node000009" class="edge">
<title>Node29&#45;&gt;Node9</title>
<g id="a_edge46_Node000029_Node000009"><a xlink:title=" ">
<path fill="none" stroke="#63b8ff" d="M1351.54,-54.99C1379.27,-45.04 1416.09,-31.82 1442.38,-22.39"/>
<polygon fill="#63b8ff" stroke="#63b8ff" points="1443.67,-25.64 1451.9,-18.97 1441.31,-19.05 1443.67,-25.64"/>
</a>
</g>
</g>
<!-- Node29&#45;&gt;Node25 -->
<g id="edge47_Node000029_Node000025" class="edge">
<title>Node29&#45;&gt;Node25</title>
<g id="a_edge47_Node000029_Node000025"><a xlink:title=" ">
<path fill="none" stroke="#63b8ff" d="M1312.5,-54.84C1312.5,-47.21 1312.5,-37.7 1312.5,-29.45"/>
<polygon fill="#63b8ff" stroke="#63b8ff" points="1316,-29.27 1312.5,-19.27 1309,-29.27 1316,-29.27"/>
</a>
</g>
</g>
<!-- Node30&#45;&gt;Node4 -->
<g id="edge52_Node000030_Node000004" class="edge">
<title>Node30&#45;&gt;Node4</title>
<g id="a_edge52_Node000030_Node000004"><a xlink:title=" ">
<path fill="none" stroke="#63b8ff" d="M519.79,-363.11C437.64,-358.46 314.37,-346.48 279.5,-316 257.32,-296.61 260.5,-281.96 260.5,-252.5 260.5,-252.5 260.5,-252.5 260.5,-190 260.5,-147.21 295.84,-107.44 318.32,-86.47"/>
<polygon fill="#63b8ff" stroke="#63b8ff" points="320.84,-88.92 325.93,-79.63 316.16,-83.71 320.84,-88.92"/>
</a>
</g>
</g>
<!-- Node30&#45;&gt;Node8 -->
<g id="edge51_Node000030_Node000008" class="edge">
<title>Node30&#45;&gt;Node8</title>
<g id="a_edge51_Node000030_Node000008"><a xlink:title=" ">
<path fill="none" stroke="#63b8ff" d="M673.12,-359.15C798.94,-347.89 1047.89,-325.62 1173.77,-314.36"/>
<polygon fill="#63b8ff" stroke="#63b8ff" points="1174.45,-317.82 1184.09,-313.44 1173.82,-310.84 1174.45,-317.82"/>
</a>
</g>
</g>
<!-- Node30&#45;&gt;Node9 -->
<g id="edge50_Node000030_Node000009" class="edge">
<title>Node30&#45;&gt;Node9</title>
<g id="a_edge50_Node000030_Node000009"><a xlink:title=" ">
<path fill="none" stroke="#63b8ff" d="M673.28,-364.93C900.61,-360.76 1554.5,-341.06 1554.5,-252.5 1554.5,-252.5 1554.5,-252.5 1554.5,-129.5 1554.5,-86.02 1517.44,-46.28 1494.09,-25.55"/>
<polygon fill="#63b8ff" stroke="#63b8ff" points="1496.36,-22.88 1486.48,-19.04 1491.8,-28.2 1496.36,-22.88"/>
</a>
</g>
</g>
<!-- Node30&#45;&gt;Node18 -->
<g id="edge59_Node000030_Node000018" class="edge">
<title>Node30&#45;&gt;Node18</title>
<g id="a_edge59_Node000030_Node000018"><a xlink:title=" ">
<path fill="none" stroke="#63b8ff" d="M608.21,-357.18C619.75,-347.97 637.25,-332.59 648.5,-316 686.2,-260.39 678.49,-237.51 705.5,-176 709.36,-167.2 713.89,-157.54 717.74,-149.48"/>
<polygon fill="#63b8ff" stroke="#63b8ff" points="720.98,-150.83 722.17,-140.3 714.68,-147.78 720.98,-150.83"/>
</a>
</g>
</g>
<!-- Node30&#45;&gt;Node19 -->
<g id="edge49_Node000030_Node000019" class="edge">
<title>Node30&#45;&gt;Node19</title>
<g id="a_edge49_Node000030_Node000019"><a xlink:title=" ">
<path fill="none" stroke="#63b8ff" d="M599.23,-357.27C602.99,-343.49 608.19,-316.28 597.5,-297 575.14,-256.66 551.43,-261.22 509.5,-242 460.43,-219.51 425.52,-249.46 393.5,-206 385.59,-195.27 386.45,-187.32 393.5,-176 441.33,-99.22 556.11,-78.56 617.38,-73.02"/>
<polygon fill="#63b8ff" stroke="#63b8ff" points="617.77,-76.5 627.45,-72.2 617.2,-69.52 617.77,-76.5"/>
</a>
</g>
</g>
<!-- Node31 -->
<g id="Node000031" class="node">
<title>Node31</title>
<g id="a_Node000031"><a xlink:href="plot_8h.html" target="_top" xlink:title=" ">
<polygon fill="white" stroke="#666666" points="500.5,-261 456.5,-261 456.5,-242 500.5,-242 500.5,-261"/>
<text text-anchor="middle" x="478.5" y="-249" font-family="Helvetica,sans-Serif" font-size="10.00">plot.h</text>
</a>
</g>
</g>
<!-- Node30&#45;&gt;Node31 -->
<g id="edge53_Node000030_Node000031" class="edge">
<title>Node30&#45;&gt;Node31</title>
<g id="a_edge53_Node000030_Node000031"><a xlink:title=" ">
<path fill="none" stroke="#63b8ff" d="M596.39,-357.28C595.75,-343.02 592.54,-314.55 577.5,-297 560.35,-276.99 532.39,-265.56 510.55,-259.31"/>
<polygon fill="#63b8ff" stroke="#63b8ff" points="511.27,-255.88 500.71,-256.72 509.49,-262.65 511.27,-255.88"/>
</a>
</g>
</g>
<!-- Node33 -->
<g id="Node000033" class="node">
<title>Node33</title>
<g id="a_Node000033"><a xlink:href="lineplot_8h.html" target="_top" xlink:title=" ">
<polygon fill="white" stroke="#666666" points="416.5,-316 288.5,-316 288.5,-297 416.5,-297 416.5,-316"/>
<text text-anchor="middle" x="352.5" y="-304" font-family="Helvetica,sans-Serif" font-size="10.00">visualization/lineplot.h</text>
</a>
</g>
</g>
<!-- Node30&#45;&gt;Node33 -->
<g id="edge60_Node000030_Node000033" class="edge">
<title>Node30&#45;&gt;Node33</title>
<g id="a_edge60_Node000030_Node000033"><a xlink:title=" ">
<path fill="none" stroke="#63b8ff" d="M561.02,-357.49C517.92,-347.16 445.14,-329.71 397.97,-318.4"/>
<polygon fill="#63b8ff" stroke="#63b8ff" points="398.56,-314.94 388.02,-316.02 396.93,-321.75 398.56,-314.94"/>
</a>
</g>
</g>
<!-- Node34 -->
<g id="Node000034" class="node">
<title>Node34</title>
<g id="a_Node000034"><a xlink:href="heatmap_8h.html" target="_top" xlink:title=" ">
<polygon fill="white" stroke="#666666" points="568.5,-316 434.5,-316 434.5,-297 568.5,-297 568.5,-316"/>
<text text-anchor="middle" x="501.5" y="-304" font-family="Helvetica,sans-Serif" font-size="10.00">visualization/heatmap.h</text>
</a>
</g>
</g>
<!-- Node30&#45;&gt;Node34 -->
<g id="edge62_Node000030_Node000034" class="edge">
<title>Node30&#45;&gt;Node34</title>
<g id="a_edge62_Node000030_Node000034"><a xlink:title=" ">
<path fill="none" stroke="#63b8ff" d="M582.48,-357.37C567.19,-347.95 542.47,-332.73 524.36,-321.58"/>
<polygon fill="#63b8ff" stroke="#63b8ff" points="525.93,-318.43 515.58,-316.17 522.25,-324.39 525.93,-318.43"/>
</a>
</g>
</g>
<!-- Node32 -->
<g id="Node000032" class="node">
<title>Node32</title>
<g id="a_Node000032"><a xlink:href="plot__parameters_8h.html" target="_top" xlink:title=" ">
<polygon fill="white" stroke="#666666" points="508.5,-200.5 402.5,-200.5 402.5,-181.5 508.5,-181.5 508.5,-200.5"/>
<text text-anchor="middle" x="455.5" y="-188.5" font-family="Helvetica,sans-Serif" font-size="10.00">plot_parameters.h</text>
</a>
</g>
</g>
<!-- Node31&#45;&gt;Node32 -->
<g id="edge54_Node000031_Node000032" class="edge">
<title>Node31&#45;&gt;Node32</title>
<g id="a_edge54_Node000031_Node000032"><a xlink:title=" ">
<path fill="none" stroke="#63b8ff" d="M475.11,-241.87C471.84,-233.57 466.81,-220.78 462.66,-210.22"/>
<polygon fill="#63b8ff" stroke="#63b8ff" points="465.82,-208.69 458.91,-200.67 459.31,-211.25 465.82,-208.69"/>
</a>
</g>
</g>
<!-- Node32&#45;&gt;Node7 -->
<g id="edge56_Node000032_Node000007" class="edge">
<title>Node32&#45;&gt;Node7</title>
<g id="a_edge56_Node000032_Node000007"><a xlink:title=" ">
<path fill="none" stroke="#63b8ff" d="M460.57,-181.26C468.85,-167.47 486.26,-140.25 505.5,-121 540.82,-85.66 550.34,-74.13 596.5,-55 680.65,-20.13 789.53,-12.43 842.98,-10.84"/>
<polygon fill="#63b8ff" stroke="#63b8ff" points="843.3,-14.33 853.21,-10.59 843.13,-7.33 843.3,-14.33"/>
</a>
</g>
</g>
<!-- Node32&#45;&gt;Node9 -->
<g id="edge57_Node000032_Node000009" class="edge">
<title>Node32&#45;&gt;Node9</title>
<g id="a_edge57_Node000032_Node000009"><a xlink:title=" ">
<path fill="none" stroke="#63b8ff" d="M490.12,-181.43C499,-179.44 508.57,-177.47 517.5,-176 565.23,-168.13 1338.81,-103.51 1383.5,-85 1414.83,-72.02 1443.99,-44.83 1460.77,-27.13"/>
<polygon fill="#63b8ff" stroke="#63b8ff" points="1463.77,-29.04 1467.96,-19.31 1458.61,-24.3 1463.77,-29.04"/>
</a>
</g>
</g>
<!-- Node32&#45;&gt;Node18 -->
<g id="edge58_Node000032_Node000018" class="edge">
<title>Node32&#45;&gt;Node18</title>
<g id="a_edge58_Node000032_Node000018"><a xlink:title=" ">
<path fill="none" stroke="#63b8ff" d="M492.86,-181.49C500.98,-179.66 509.52,-177.75 517.5,-176 571.51,-164.15 633.48,-151.02 675.83,-142.11"/>
<polygon fill="#63b8ff" stroke="#63b8ff" points="676.55,-145.53 685.62,-140.05 675.11,-138.68 676.55,-145.53"/>
</a>
</g>
</g>
<!-- Node32&#45;&gt;Node27 -->
<g id="edge55_Node000032_Node000027" class="edge">
<title>Node32&#45;&gt;Node27</title>
<g id="a_edge55_Node000032_Node000027"><a xlink:title=" ">
<path fill="none" stroke="#63b8ff" d="M467.01,-181.37C479.34,-172.12 499.12,-157.28 513.91,-146.19"/>
<polygon fill="#63b8ff" stroke="#63b8ff" points="516.04,-148.97 521.94,-140.17 511.84,-143.37 516.04,-148.97"/>
</a>
</g>
</g>
<!-- Node33&#45;&gt;Node31 -->
<g id="edge61_Node000033_Node000031" class="edge">
<title>Node33&#45;&gt;Node31</title>
<g id="a_edge61_Node000033_Node000031"><a xlink:title=" ">
<path fill="none" stroke="#63b8ff" d="M372.74,-296.98C393.2,-288.38 425.03,-274.99 448.43,-265.15"/>
<polygon fill="#63b8ff" stroke="#63b8ff" points="450.03,-268.27 457.89,-261.17 447.31,-261.82 450.03,-268.27"/>
</a>
</g>
</g>
<!-- Node34&#45;&gt;Node31 -->
<g id="edge63_Node000034_Node000031" class="edge">
<title>Node34&#45;&gt;Node31</title>
<g id="a_edge63_Node000034_Node000031"><a xlink:title=" ">
<path fill="none" stroke="#63b8ff" d="M497.7,-296.75C494.59,-289.57 490.08,-279.18 486.21,-270.27"/>
<polygon fill="#63b8ff" stroke="#63b8ff" points="489.42,-268.87 482.23,-261.09 483,-271.66 489.42,-268.87"/>
</a>
</g>
</g>
<!-- Node36 -->
<g id="Node000036" class="node">
<title>Node36</title>
<g id="a_Node000036"><a xlink:title=" ">
<polygon fill="#e0e0e0" stroke="#999999" points="1636,-316 1583,-316 1583,-297 1636,-297 1636,-316"/>
<text text-anchor="middle" x="1609.5" y="-304" font-family="Helvetica,sans-Serif" font-size="10.00">imgui.h</text>
</a>
</g>
</g>
<!-- Node35&#45;&gt;Node36 -->
<g id="edge65_Node000035_Node000036" class="edge">
<title>Node35&#45;&gt;Node36</title>
<g id="a_edge65_Node000035_Node000036"><a xlink:title=" ">
<path fill="none" stroke="#63b8ff" d="M1391.81,-353.81C1446.25,-342.23 1526.47,-325.16 1572.8,-315.31"/>
<polygon fill="#63b8ff" stroke="#63b8ff" points="1573.65,-318.7 1582.71,-313.2 1572.2,-311.86 1573.65,-318.7"/>
</a>
</g>
</g>
</g>
</svg>
