<?xml version="1.0" encoding="UTF-8" standalone="no"?>
<!DOCTYPE svg PUBLIC "-//W3C//DTD SVG 1.1//EN"
 "http://www.w3.org/Graphics/SVG/1.1/DTD/svg11.dtd">
<!-- Generated by graphviz version 2.43.0 (0)
 -->
<!-- Title: src/application/application.cpp Pages: 1 -->
<svg width="1487pt" height="500pt"
 viewBox="0.00 0.00 1487.00 500.00" xmlns="http://www.w3.org/2000/svg" xmlns:xlink="http://www.w3.org/1999/xlink">
<g id="graph0" class="graph" transform="scale(1 1) rotate(0) translate(4 496)">
<title>src/application/application.cpp</title>
<!-- Node1 -->
<g id="Node000001" class="node">
<title>Node1</title>
<g id="a_Node000001"><a xlink:title=" ">
<polygon fill="#999999" stroke="#666666" points="1437.5,-492 1272.5,-492 1272.5,-473 1437.5,-473 1437.5,-492"/>
<text text-anchor="middle" x="1355" y="-480" font-family="Helvetica,sans-Serif" font-size="10.00">src/application/application.cpp</text>
</a>
</g>
</g>
<!-- Node2 -->
<g id="Node000002" class="node">
<title>Node2</title>
<g id="a_Node000002"><a xlink:href="application_8h.html" target="_top" xlink:title=" ">
<polygon fill="white" stroke="#666666" points="841.5,-437 704.5,-437 704.5,-418 841.5,-418 841.5,-437"/>
<text text-anchor="middle" x="773" y="-425" font-family="Helvetica,sans-Serif" font-size="10.00">application/application.h</text>
</a>
</g>
</g>
<!-- Node1&#45;&gt;Node2 -->
<g id="edge1_Node000001_Node000002" class="edge">
<title>Node1&#45;&gt;Node2</title>
<g id="a_edge1_Node000001_Node000002"><a xlink:title=" ">
<path fill="none" stroke="#63b8ff" d="M1272.23,-473.96C1160.24,-463.76 961.84,-445.7 851.88,-435.68"/>
<polygon fill="#63b8ff" stroke="#63b8ff" points="852.13,-432.19 841.85,-434.77 851.49,-439.16 852.13,-432.19"/>
</a>
</g>
</g>
<!-- Node11 -->
<g id="Node000011" class="node">
<title>Node11</title>
<g id="a_Node000011"><a xlink:title=" ">
<polygon fill="#e0e0e0" stroke="#999999" points="1151,-261 1083,-261 1083,-242 1151,-242 1151,-261"/>
<text text-anchor="middle" x="1117" y="-249" font-family="Helvetica,sans-Serif" font-size="10.00">filesystem</text>
</a>
</g>
</g>
<!-- Node1&#45;&gt;Node11 -->
<g id="edge63_Node000001_Node000011" class="edge">
<title>Node1&#45;&gt;Node11</title>
<g id="a_edge63_Node000001_Node000011"><a xlink:title=" ">
<path fill="none" stroke="#63b8ff" d="M1353.08,-472.94C1345.09,-437.45 1314.55,-303.42 1308,-297 1287.51,-276.92 1211.23,-264 1161.49,-257.51"/>
<polygon fill="#63b8ff" stroke="#63b8ff" points="1161.67,-254 1151.31,-256.22 1160.79,-260.94 1161.67,-254"/>
</a>
</g>
</g>
<!-- Node38 -->
<g id="Node000038" class="node">
<title>Node38</title>
<g id="a_Node000038"><a xlink:title=" ">
<polygon fill="#e0e0e0" stroke="#999999" points="1411,-437 1355,-437 1355,-418 1411,-418 1411,-437"/>
<text text-anchor="middle" x="1383" y="-425" font-family="Helvetica,sans-Serif" font-size="10.00">unistd.h</text>
</a>
</g>
</g>
<!-- Node1&#45;&gt;Node38 -->
<g id="edge64_Node000001_Node000038" class="edge">
<title>Node1&#45;&gt;Node38</title>
<g id="a_edge64_Node000001_Node000038"><a xlink:title=" ">
<path fill="none" stroke="#63b8ff" d="M1359.62,-472.75C1363.46,-465.49 1369.02,-454.95 1373.76,-445.98"/>
<polygon fill="#63b8ff" stroke="#63b8ff" points="1376.89,-447.57 1378.46,-437.09 1370.7,-444.3 1376.89,-447.57"/>
</a>
</g>
</g>
<!-- Node39 -->
<g id="Node000039" class="node">
<title>Node39</title>
<g id="a_Node000039"><a xlink:title=" ">
<polygon fill="#e0e0e0" stroke="#999999" points="1479,-437 1429,-437 1429,-418 1479,-418 1479,-437"/>
<text text-anchor="middle" x="1454" y="-425" font-family="Helvetica,sans-Serif" font-size="10.00">climits</text>
</a>
</g>
</g>
<!-- Node1&#45;&gt;Node39 -->
<g id="edge65_Node000001_Node000039" class="edge">
<title>Node1&#45;&gt;Node39</title>
<g id="a_edge65_Node000001_Node000039"><a xlink:title=" ">
<path fill="none" stroke="#63b8ff" d="M1370.91,-472.98C1386.55,-464.61 1410.66,-451.7 1428.88,-441.95"/>
<polygon fill="#63b8ff" stroke="#63b8ff" points="1430.64,-444.98 1437.8,-437.17 1427.34,-438.8 1430.64,-444.98"/>
</a>
</g>
</g>
<!-- Node3 -->
<g id="Node000003" class="node">
<title>Node3</title>
<g id="a_Node000003"><a xlink:title=" ">
<polygon fill="#e0e0e0" stroke="#999999" points="807.5,-376.5 738.5,-376.5 738.5,-357.5 807.5,-357.5 807.5,-376.5"/>
<text text-anchor="middle" x="773" y="-364.5" font-family="Helvetica,sans-Serif" font-size="10.00">type_traits</text>
</a>
</g>
</g>
<!-- Node2&#45;&gt;Node3 -->
<g id="edge2_Node000002_Node000003" class="edge">
<title>Node2&#45;&gt;Node3</title>
<g id="a_edge2_Node000002_Node000003"><a xlink:title=" ">
<path fill="none" stroke="#63b8ff" d="M773,-417.87C773,-409.75 773,-397.31 773,-386.89"/>
<polygon fill="#63b8ff" stroke="#63b8ff" points="776.5,-386.67 773,-376.67 769.5,-386.67 776.5,-386.67"/>
</a>
</g>
</g>
<!-- Node4 -->
<g id="Node000004" class="node">
<title>Node4</title>
<g id="a_Node000004"><a xlink:title=" ">
<polygon fill="#e0e0e0" stroke="#999999" points="932.5,-382 825.5,-382 825.5,-352 932.5,-352 932.5,-382"/>
<text text-anchor="start" x="833.5" y="-370" font-family="Helvetica,sans-Serif" font-size="10.00">imgui&#45;platform&#45;kit</text>
<text text-anchor="middle" x="879" y="-359" font-family="Helvetica,sans-Serif" font-size="10.00">/user_interface.h</text>
</a>
</g>
</g>
<!-- Node2&#45;&gt;Node4 -->
<g id="edge3_Node000002_Node000004" class="edge">
<title>Node2&#45;&gt;Node4</title>
<g id="a_edge3_Node000002_Node000004"><a xlink:title=" ">
<path fill="none" stroke="#63b8ff" d="M788.64,-417.87C803.29,-409.78 825.69,-397.42 844.52,-387.03"/>
<polygon fill="#63b8ff" stroke="#63b8ff" points="846.36,-390.01 853.42,-382.11 842.98,-383.88 846.36,-390.01"/>
</a>
</g>
</g>
<!-- Node5 -->
<g id="Node000005" class="node">
<title>Node5</title>
<g id="a_Node000005"><a xlink:href="exception_8h.html" target="_top" xlink:title=" ">
<polygon fill="white" stroke="#666666" points="130,-79.5 0,-79.5 0,-60.5 130,-60.5 130,-79.5"/>
<text text-anchor="middle" x="65" y="-67.5" font-family="Helvetica,sans-Serif" font-size="10.00">exceptions/exception.h</text>
</a>
</g>
</g>
<!-- Node2&#45;&gt;Node5 -->
<g id="edge4_Node000002_Node000005" class="edge">
<title>Node2&#45;&gt;Node5</title>
<g id="a_edge4_Node000002_Node000005"><a xlink:title=" ">
<path fill="none" stroke="#63b8ff" d="M704.49,-422.73C520.07,-411.68 27,-375.74 27,-307.5 27,-307.5 27,-307.5 27,-190 27,-152.57 44.27,-111.53 55.52,-88.75"/>
<polygon fill="#63b8ff" stroke="#63b8ff" points="58.74,-90.15 60.19,-79.65 52.51,-86.96 58.74,-90.15"/>
</a>
</g>
</g>
<!-- Node8 -->
<g id="Node000008" class="node">
<title>Node8</title>
<g id="a_Node000008"><a xlink:href="simulation_8h.html" target="_top" xlink:title=" ">
<polygon fill="white" stroke="#666666" points="673,-316 541,-316 541,-297 673,-297 673,-316"/>
<text text-anchor="middle" x="607" y="-304" font-family="Helvetica,sans-Serif" font-size="10.00">simulation/simulation.h</text>
</a>
</g>
</g>
<!-- Node2&#45;&gt;Node8 -->
<g id="edge7_Node000002_Node000008" class="edge">
<title>Node2&#45;&gt;Node8</title>
<g id="a_edge7_Node000002_Node000008"><a xlink:title=" ">
<path fill="none" stroke="#63b8ff" d="M704.38,-422.47C608.74,-416.15 445,-402.46 427,-382 392.01,-342.23 467.21,-323.23 530.87,-314.48"/>
<polygon fill="#63b8ff" stroke="#63b8ff" points="531.5,-317.93 540.96,-313.16 530.6,-310.99 531.5,-317.93"/>
</a>
</g>
</g>
<!-- Node29 -->
<g id="Node000029" class="node">
<title>Node29</title>
<g id="a_Node000029"><a xlink:href="visualization_8h.html" target="_top" xlink:title=" ">
<polygon fill="white" stroke="#666666" points="1103.5,-376.5 950.5,-376.5 950.5,-357.5 1103.5,-357.5 1103.5,-376.5"/>
<text text-anchor="middle" x="1027" y="-364.5" font-family="Helvetica,sans-Serif" font-size="10.00">visualization/visualization.h</text>
</a>
</g>
</g>
<!-- Node2&#45;&gt;Node29 -->
<g id="edge43_Node000002_Node000029" class="edge">
<title>Node2&#45;&gt;Node29</title>
<g id="a_edge43_Node000002_Node000029"><a xlink:title=" ">
<path fill="none" stroke="#63b8ff" d="M809.93,-417.99C854.89,-407.64 930.88,-390.14 979.97,-378.83"/>
<polygon fill="#63b8ff" stroke="#63b8ff" points="981.06,-382.17 990.02,-376.52 979.49,-375.35 981.06,-382.17"/>
</a>
</g>
</g>
<!-- Node34 -->
<g id="Node000034" class="node">
<title>Node34</title>
<g id="a_Node000034"><a xlink:href="IconsFontAwesome6_8h.html" target="_top" xlink:title=" ">
<polygon fill="white" stroke="#666666" points="565.5,-382 436.5,-382 436.5,-352 565.5,-352 565.5,-382"/>
<text text-anchor="start" x="444.5" y="-370" font-family="Helvetica,sans-Serif" font-size="10.00">user_interface/fonts</text>
<text text-anchor="middle" x="501" y="-359" font-family="Helvetica,sans-Serif" font-size="10.00">/IconsFontAwesome6.h</text>
</a>
</g>
</g>
<!-- Node2&#45;&gt;Node34 -->
<g id="edge59_Node000002_Node000034" class="edge">
<title>Node2&#45;&gt;Node34</title>
<g id="a_edge59_Node000002_Node000034"><a xlink:title=" ">
<path fill="none" stroke="#63b8ff" d="M733.45,-417.99C692.22,-409.13 626.62,-395.02 575.6,-384.04"/>
<polygon fill="#63b8ff" stroke="#63b8ff" points="576.12,-380.58 565.61,-381.89 574.65,-387.42 576.12,-380.58"/>
</a>
</g>
</g>
<!-- Node35 -->
<g id="Node000035" class="node">
<title>Node35</title>
<g id="a_Node000035"><a xlink:href="fa_8h.html" target="_top" xlink:title=" ">
<polygon fill="white" stroke="#666666" points="720,-376.5 584,-376.5 584,-357.5 720,-357.5 720,-376.5"/>
<text text-anchor="middle" x="652" y="-364.5" font-family="Helvetica,sans-Serif" font-size="10.00">user_interface/fonts/fa.h</text>
</a>
</g>
</g>
<!-- Node2&#45;&gt;Node35 -->
<g id="edge60_Node000002_Node000035" class="edge">
<title>Node2&#45;&gt;Node35</title>
<g id="a_edge60_Node000002_Node000035"><a xlink:title=" ">
<path fill="none" stroke="#63b8ff" d="M755.41,-417.99C735.24,-408.25 701.98,-392.16 678.64,-380.88"/>
<polygon fill="#63b8ff" stroke="#63b8ff" points="680.14,-377.72 669.62,-376.52 677.1,-384.02 680.14,-377.72"/>
</a>
</g>
</g>
<!-- Node36 -->
<g id="Node000036" class="node">
<title>Node36</title>
<g id="a_Node000036"><a xlink:href="imgui__freetype_8h.html" target="_top" xlink:title=" ">
<polygon fill="white" stroke="#666666" points="1278,-382 1164,-382 1164,-352 1278,-352 1278,-382"/>
<text text-anchor="start" x="1172" y="-370" font-family="Helvetica,sans-Serif" font-size="10.00">user_interface/fonts</text>
<text text-anchor="middle" x="1221" y="-359" font-family="Helvetica,sans-Serif" font-size="10.00">/imgui_freetype.h</text>
</a>
</g>
</g>
<!-- Node2&#45;&gt;Node36 -->
<g id="edge61_Node000002_Node000036" class="edge">
<title>Node2&#45;&gt;Node36</title>
<g id="a_edge61_Node000002_Node000036"><a xlink:title=" ">
<path fill="none" stroke="#63b8ff" d="M838.14,-417.99C922.44,-406.99 1068.59,-387.9 1153.86,-376.77"/>
<polygon fill="#63b8ff" stroke="#63b8ff" points="1154.48,-380.22 1163.95,-375.45 1153.58,-373.27 1154.48,-380.22"/>
</a>
</g>
</g>
<!-- Node6 -->
<g id="Node000006" class="node">
<title>Node6</title>
<g id="a_Node000006"><a xlink:title=" ">
<polygon fill="#e0e0e0" stroke="#999999" points="97.5,-19 32.5,-19 32.5,0 97.5,0 97.5,-19"/>
<text text-anchor="middle" x="65" y="-7" font-family="Helvetica,sans-Serif" font-size="10.00">exception</text>
</a>
</g>
</g>
<!-- Node5&#45;&gt;Node6 -->
<g id="edge5_Node000005_Node000006" class="edge">
<title>Node5&#45;&gt;Node6</title>
<g id="a_edge5_Node000005_Node000006"><a xlink:title=" ">
<path fill="none" stroke="#63b8ff" d="M65,-60.37C65,-52.25 65,-39.81 65,-29.39"/>
<polygon fill="#63b8ff" stroke="#63b8ff" points="68.5,-29.17 65,-19.17 61.5,-29.17 68.5,-29.17"/>
</a>
</g>
</g>
<!-- Node7 -->
<g id="Node000007" class="node">
<title>Node7</title>
<g id="a_Node000007"><a xlink:title=" ">
<polygon fill="#e0e0e0" stroke="#999999" points="658,-19 614,-19 614,0 658,0 658,-19"/>
<text text-anchor="middle" x="636" y="-7" font-family="Helvetica,sans-Serif" font-size="10.00">string</text>
</a>
</g>
</g>
<!-- Node5&#45;&gt;Node7 -->
<g id="edge6_Node000005_Node000007" class="edge">
<title>Node5&#45;&gt;Node7</title>
<g id="a_edge6_Node000005_Node000007"><a xlink:title=" ">
<path fill="none" stroke="#63b8ff" d="M109.19,-60.48C120.5,-58.49 132.68,-56.51 144,-55 316.53,-31.95 524.73,-17.48 603.6,-12.47"/>
<polygon fill="#63b8ff" stroke="#63b8ff" points="604.1,-15.95 613.86,-11.83 603.66,-8.96 604.1,-15.95"/>
</a>
</g>
</g>
<!-- Node8&#45;&gt;Node5 -->
<g id="edge41_Node000008_Node000005" class="edge">
<title>Node8&#45;&gt;Node5</title>
<g id="a_edge41_Node000008_Node000005"><a xlink:title=" ">
<path fill="none" stroke="#63b8ff" d="M540.8,-303.36C416.68,-298.76 158.63,-286.26 127,-261 120.03,-255.44 84.29,-136.35 70.47,-89.6"/>
<polygon fill="#63b8ff" stroke="#63b8ff" points="73.78,-88.45 67.59,-79.85 67.06,-90.43 73.78,-88.45"/>
</a>
</g>
</g>
<!-- Node8&#45;&gt;Node7 -->
<g id="edge10_Node000008_Node000007" class="edge">
<title>Node8&#45;&gt;Node7</title>
<g id="a_edge10_Node000008_Node000007"><a xlink:title=" ">
<path fill="none" stroke="#63b8ff" d="M540.59,-300.85C427.63,-291.39 205.83,-265.53 160,-206 151.87,-195.44 152.27,-186.87 160,-176 265.72,-27.31 515.03,-11.04 603.87,-10.12"/>
<polygon fill="#63b8ff" stroke="#63b8ff" points="603.9,-13.62 613.88,-10.08 603.87,-6.62 603.9,-13.62"/>
</a>
</g>
</g>
<!-- Node9 -->
<g id="Node000009" class="node">
<title>Node9</title>
<g id="a_Node000009"><a xlink:title=" ">
<polygon fill="#e0e0e0" stroke="#999999" points="1231.5,-19 1184.5,-19 1184.5,0 1231.5,0 1231.5,-19"/>
<text text-anchor="middle" x="1208" y="-7" font-family="Helvetica,sans-Serif" font-size="10.00">vector</text>
</a>
</g>
</g>
<!-- Node8&#45;&gt;Node9 -->
<g id="edge8_Node000008_Node000009" class="edge">
<title>Node8&#45;&gt;Node9</title>
<g id="a_edge8_Node000008_Node000009"><a xlink:title=" ">
<path fill="none" stroke="#63b8ff" d="M673.22,-302.32C736.78,-297.8 834.81,-286.94 916,-261 1027.9,-225.25 1058.14,-211.96 1151,-140 1176.88,-119.95 1186.73,-114.93 1200,-85 1207.82,-67.37 1209.26,-45.18 1209.1,-29.62"/>
<polygon fill="#63b8ff" stroke="#63b8ff" points="1212.58,-29.08 1208.73,-19.2 1205.58,-29.32 1212.58,-29.08"/>
</a>
</g>
</g>
<!-- Node10 -->
<g id="Node000010" class="node">
<title>Node10</title>
<g id="a_Node000010"><a xlink:title=" ">
<polygon fill="#e0e0e0" stroke="#999999" points="227,-200.5 169,-200.5 169,-181.5 227,-181.5 227,-200.5"/>
<text text-anchor="middle" x="198" y="-188.5" font-family="Helvetica,sans-Serif" font-size="10.00">memory</text>
</a>
</g>
</g>
<!-- Node8&#45;&gt;Node10 -->
<g id="edge9_Node000008_Node000010" class="edge">
<title>Node8&#45;&gt;Node10</title>
<g id="a_edge9_Node000008_Node000010"><a xlink:title=" ">
<path fill="none" stroke="#63b8ff" d="M573.54,-296.99C508.96,-280.45 362.78,-242.35 241,-206 238.56,-205.27 236.06,-204.51 233.54,-203.72"/>
<polygon fill="#63b8ff" stroke="#63b8ff" points="234.45,-200.34 223.86,-200.65 232.33,-207.01 234.45,-200.34"/>
</a>
</g>
</g>
<!-- Node8&#45;&gt;Node11 -->
<g id="edge11_Node000008_Node000011" class="edge">
<title>Node8&#45;&gt;Node11</title>
<g id="a_edge11_Node000008_Node000011"><a xlink:title=" ">
<path fill="none" stroke="#63b8ff" d="M673.15,-298.66C757.41,-289.95 907.53,-274.4 1036,-261 1047.86,-259.76 1060.69,-258.42 1072.57,-257.17"/>
<polygon fill="#63b8ff" stroke="#63b8ff" points="1073.13,-260.63 1082.71,-256.11 1072.4,-253.67 1073.13,-260.63"/>
</a>
</g>
</g>
<!-- Node12 -->
<g id="Node000012" class="node">
<title>Node12</title>
<g id="a_Node000012"><a xlink:title=" ">
<polygon fill="#e0e0e0" stroke="#999999" points="929,-19 879,-19 879,0 929,0 929,-19"/>
<text text-anchor="middle" x="904" y="-7" font-family="Helvetica,sans-Serif" font-size="10.00">chrono</text>
</a>
</g>
</g>
<!-- Node8&#45;&gt;Node12 -->
<g id="edge12_Node000008_Node000012" class="edge">
<title>Node8&#45;&gt;Node12</title>
<g id="a_edge12_Node000008_Node000012"><a xlink:title=" ">
<path fill="none" stroke="#63b8ff" d="M649.29,-296.93C695.06,-285.15 765.81,-259.07 798,-206 833.4,-147.64 730.06,-110.35 770,-55 792.36,-24.01 837.17,-14.26 868.8,-11.38"/>
<polygon fill="#63b8ff" stroke="#63b8ff" points="869.25,-14.85 878.97,-10.64 868.75,-7.87 869.25,-14.85"/>
</a>
</g>
</g>
<!-- Node13 -->
<g id="Node000013" class="node">
<title>Node13</title>
<g id="a_Node000013"><a xlink:href="element_8h.html" target="_top" xlink:title=" ">
<polygon fill="white" stroke="#666666" points="604.5,-261 489.5,-261 489.5,-242 604.5,-242 604.5,-261"/>
<text text-anchor="middle" x="547" y="-249" font-family="Helvetica,sans-Serif" font-size="10.00">elements/element.h</text>
</a>
</g>
</g>
<!-- Node8&#45;&gt;Node13 -->
<g id="edge13_Node000008_Node000013" class="edge">
<title>Node8&#45;&gt;Node13</title>
<g id="a_edge13_Node000008_Node000013"><a xlink:title=" ">
<path fill="none" stroke="#63b8ff" d="M597.36,-296.98C588.49,-289.15 575.13,-277.34 564.39,-267.86"/>
<polygon fill="#63b8ff" stroke="#63b8ff" points="566.63,-265.17 556.82,-261.17 561.99,-270.41 566.63,-265.17"/>
</a>
</g>
</g>
<!-- Node22 -->
<g id="Node000022" class="node">
<title>Node22</title>
<g id="a_Node000022"><a xlink:href="utils_8h.html" target="_top" xlink:title=" ">
<polygon fill="white" stroke="#666666" points="1063.5,-79.5 1016.5,-79.5 1016.5,-60.5 1063.5,-60.5 1063.5,-79.5"/>
<text text-anchor="middle" x="1040" y="-67.5" font-family="Helvetica,sans-Serif" font-size="10.00">utils.h</text>
</a>
</g>
</g>
<!-- Node8&#45;&gt;Node22 -->
<g id="edge42_Node000008_Node000022" class="edge">
<title>Node8&#45;&gt;Node22</title>
<g id="a_edge42_Node000008_Node000022"><a xlink:title=" ">
<path fill="none" stroke="#63b8ff" d="M673.36,-297.5C773.2,-284.05 954.98,-253.62 998,-206 1027.94,-172.86 1036.54,-118.64 1039,-90.04"/>
<polygon fill="#63b8ff" stroke="#63b8ff" points="1042.51,-90.02 1039.72,-79.8 1035.53,-89.53 1042.51,-90.02"/>
</a>
</g>
</g>
<!-- Node13&#45;&gt;Node5 -->
<g id="edge21_Node000013_Node000005" class="edge">
<title>Node13&#45;&gt;Node5</title>
<g id="a_edge21_Node000013_Node000005"><a xlink:title=" ">
<path fill="none" stroke="#63b8ff" d="M489.42,-244.55C421.08,-236.89 311.63,-222.58 274,-206 254.31,-197.33 253.64,-188.32 236,-176 185.35,-140.64 122.82,-103.88 89.17,-84.63"/>
<polygon fill="#63b8ff" stroke="#63b8ff" points="90.9,-81.59 80.48,-79.69 87.44,-87.68 90.9,-81.59"/>
</a>
</g>
</g>
<!-- Node13&#45;&gt;Node7 -->
<g id="edge15_Node000013_Node000007" class="edge">
<title>Node13&#45;&gt;Node7</title>
<g id="a_edge15_Node000013_Node000007"><a xlink:title=" ">
<path fill="none" stroke="#63b8ff" d="M545.62,-241.99C542.53,-220.79 536.51,-164.21 552,-121 565.93,-82.15 598.82,-45.83 619.06,-26.04"/>
<polygon fill="#63b8ff" stroke="#63b8ff" points="621.56,-28.49 626.38,-19.06 616.73,-23.43 621.56,-28.49"/>
</a>
</g>
</g>
<!-- Node13&#45;&gt;Node9 -->
<g id="edge14_Node000013_Node000009" class="edge">
<title>Node13&#45;&gt;Node9</title>
<g id="a_edge14_Node000013_Node000009"><a xlink:title=" ">
<path fill="none" stroke="#63b8ff" d="M604.55,-248.32C709.34,-243.77 927.01,-231.52 998,-206 1088.71,-173.39 1117.32,-159.9 1178,-85 1191.41,-68.45 1199.5,-45.13 1203.84,-29"/>
<polygon fill="#63b8ff" stroke="#63b8ff" points="1207.27,-29.71 1206.27,-19.17 1200.47,-28.04 1207.27,-29.71"/>
</a>
</g>
</g>
<!-- Node13&#45;&gt;Node10 -->
<g id="edge17_Node000013_Node000010" class="edge">
<title>Node13&#45;&gt;Node10</title>
<g id="a_edge17_Node000013_Node000010"><a xlink:title=" ">
<path fill="none" stroke="#63b8ff" d="M489.49,-245.09C427.58,-238.59 326.47,-225.97 241,-206 237.96,-205.29 234.83,-204.46 231.71,-203.57"/>
<polygon fill="#63b8ff" stroke="#63b8ff" points="232.49,-200.15 221.9,-200.58 230.45,-206.85 232.49,-200.15"/>
</a>
</g>
</g>
<!-- Node14 -->
<g id="Node000014" class="node">
<title>Node14</title>
<g id="a_Node000014"><a xlink:title=" ">
<polygon fill="#e0e0e0" stroke="#999999" points="450.5,-200.5 357.5,-200.5 357.5,-181.5 450.5,-181.5 450.5,-200.5"/>
<text text-anchor="middle" x="404" y="-188.5" font-family="Helvetica,sans-Serif" font-size="10.00">unordered_map</text>
</a>
</g>
</g>
<!-- Node13&#45;&gt;Node14 -->
<g id="edge16_Node000013_Node000014" class="edge">
<title>Node13&#45;&gt;Node14</title>
<g id="a_edge16_Node000013_Node000014"><a xlink:title=" ">
<path fill="none" stroke="#63b8ff" d="M526.21,-241.99C502.06,-232.12 462.02,-215.73 434.38,-204.43"/>
<polygon fill="#63b8ff" stroke="#63b8ff" points="435.4,-201.06 424.82,-200.52 432.75,-207.54 435.4,-201.06"/>
</a>
</g>
</g>
<!-- Node15 -->
<g id="Node000015" class="node">
<title>Node15</title>
<g id="a_Node000015"><a xlink:title=" ">
<polygon fill="#e0e0e0" stroke="#999999" points="519,-200.5 469,-200.5 469,-181.5 519,-181.5 519,-200.5"/>
<text text-anchor="middle" x="494" y="-188.5" font-family="Helvetica,sans-Serif" font-size="10.00">ranges</text>
</a>
</g>
</g>
<!-- Node13&#45;&gt;Node15 -->
<g id="edge18_Node000013_Node000015" class="edge">
<title>Node13&#45;&gt;Node15</title>
<g id="a_edge18_Node000013_Node000015"><a xlink:title=" ">
<path fill="none" stroke="#63b8ff" d="M539.18,-241.87C531.19,-233.05 518.61,-219.16 508.74,-208.27"/>
<polygon fill="#63b8ff" stroke="#63b8ff" points="511.16,-205.73 501.85,-200.67 505.97,-210.43 511.16,-205.73"/>
</a>
</g>
</g>
<!-- Node16 -->
<g id="Node000016" class="node">
<title>Node16</title>
<g id="a_Node000016"><a xlink:title=" ">
<polygon fill="#e0e0e0" stroke="#999999" points="789,-200.5 725,-200.5 725,-181.5 789,-181.5 789,-200.5"/>
<text text-anchor="middle" x="757" y="-188.5" font-family="Helvetica,sans-Serif" font-size="10.00">algorithm</text>
</a>
</g>
</g>
<!-- Node13&#45;&gt;Node16 -->
<g id="edge19_Node000013_Node000016" class="edge">
<title>Node13&#45;&gt;Node16</title>
<g id="a_edge19_Node000013_Node000016"><a xlink:title=" ">
<path fill="none" stroke="#63b8ff" d="M582.49,-241.94C616.83,-233.47 670.25,-219.81 716,-206 718.31,-205.3 720.68,-204.56 723.07,-203.8"/>
<polygon fill="#63b8ff" stroke="#63b8ff" points="724.41,-207.04 732.81,-200.58 722.22,-200.39 724.41,-207.04"/>
</a>
</g>
</g>
<!-- Node17 -->
<g id="Node000017" class="node">
<title>Node17</title>
<g id="a_Node000017"><a xlink:title=" ">
<polygon fill="#e0e0e0" stroke="#999999" points="339,-200.5 283,-200.5 283,-181.5 339,-181.5 339,-200.5"/>
<text text-anchor="middle" x="311" y="-188.5" font-family="Helvetica,sans-Serif" font-size="10.00">numeric</text>
</a>
</g>
</g>
<!-- Node13&#45;&gt;Node17 -->
<g id="edge20_Node000013_Node000017" class="edge">
<title>Node13&#45;&gt;Node17</title>
<g id="a_edge20_Node000013_Node000017"><a xlink:title=" ">
<path fill="none" stroke="#63b8ff" d="M500.28,-242C459.64,-234.14 399.38,-221.38 348,-206 345.86,-205.36 343.67,-204.66 341.47,-203.92"/>
<polygon fill="#63b8ff" stroke="#63b8ff" points="342.55,-200.58 331.95,-200.52 340.2,-207.18 342.55,-200.58"/>
</a>
</g>
</g>
<!-- Node18 -->
<g id="Node000018" class="node">
<title>Node18</title>
<g id="a_Node000018"><a xlink:href="logger_8h.html" target="_top" xlink:title=" ">
<polygon fill="white" stroke="#666666" points="955.5,-140 872.5,-140 872.5,-121 955.5,-121 955.5,-140"/>
<text text-anchor="middle" x="914" y="-128" font-family="Helvetica,sans-Serif" font-size="10.00">tools/logger.h</text>
</a>
</g>
</g>
<!-- Node13&#45;&gt;Node18 -->
<g id="edge22_Node000013_Node000018" class="edge">
<title>Node13&#45;&gt;Node18</title>
<g id="a_edge22_Node000013_Node000018"><a xlink:title=" ">
<path fill="none" stroke="#63b8ff" d="M604.56,-246.77C656.6,-241.9 734.54,-230.85 798,-206 835.41,-191.35 873.64,-163.88 895.53,-146.7"/>
<polygon fill="#63b8ff" stroke="#63b8ff" points="897.97,-149.23 903.6,-140.25 893.6,-143.76 897.97,-149.23"/>
</a>
</g>
</g>
<!-- Node26 -->
<g id="Node000026" class="node">
<title>Node26</title>
<g id="a_Node000026"><a xlink:href="element__parameters_8h.html" target="_top" xlink:title=" ">
<polygon fill="white" stroke="#666666" points="706.5,-206 575.5,-206 575.5,-176 706.5,-176 706.5,-206"/>
<text text-anchor="start" x="583.5" y="-194" font-family="Helvetica,sans-Serif" font-size="10.00">element_parameters</text>
<text text-anchor="middle" x="641" y="-183" font-family="Helvetica,sans-Serif" font-size="10.00">/element_parameters.h</text>
</a>
</g>
</g>
<!-- Node13&#45;&gt;Node26 -->
<g id="edge36_Node000013_Node000026" class="edge">
<title>Node13&#45;&gt;Node26</title>
<g id="a_edge36_Node000013_Node000026"><a xlink:title=" ">
<path fill="none" stroke="#63b8ff" d="M560.87,-241.87C573.62,-233.93 593,-221.87 609.51,-211.6"/>
<polygon fill="#63b8ff" stroke="#63b8ff" points="611.68,-214.37 618.32,-206.11 607.98,-208.43 611.68,-214.37"/>
</a>
</g>
</g>
<!-- Node18&#45;&gt;Node5 -->
<g id="edge28_Node000018_Node000005" class="edge">
<title>Node18&#45;&gt;Node5</title>
<g id="a_edge28_Node000018_Node000005"><a xlink:title=" ">
<path fill="none" stroke="#63b8ff" d="M872.48,-126.64C738.16,-117.38 314.11,-88.17 140.37,-76.19"/>
<polygon fill="#63b8ff" stroke="#63b8ff" points="140.5,-72.69 130.29,-75.5 140.02,-79.68 140.5,-72.69"/>
</a>
</g>
</g>
<!-- Node18&#45;&gt;Node7 -->
<g id="edge24_Node000018_Node000007" class="edge">
<title>Node18&#45;&gt;Node7</title>
<g id="a_edge24_Node000018_Node000007"><a xlink:title=" ">
<path fill="none" stroke="#63b8ff" d="M879.24,-120.94C849.62,-113.13 806.22,-100.46 770,-85 728.79,-67.41 683.84,-40.74 657.89,-24.54"/>
<polygon fill="#63b8ff" stroke="#63b8ff" points="659.55,-21.45 649.22,-19.08 655.82,-27.37 659.55,-21.45"/>
</a>
</g>
</g>
<!-- Node18&#45;&gt;Node12 -->
<g id="edge25_Node000018_Node000012" class="edge">
<title>Node18&#45;&gt;Node12</title>
<g id="a_edge25_Node000018_Node000012"><a xlink:title=" ">
<path fill="none" stroke="#63b8ff" d="M913.28,-120.94C911.68,-101.91 907.8,-55.69 905.59,-29.47"/>
<polygon fill="#63b8ff" stroke="#63b8ff" points="909.06,-28.97 904.74,-19.3 902.09,-29.56 909.06,-28.97"/>
</a>
</g>
</g>
<!-- Node19 -->
<g id="Node000019" class="node">
<title>Node19</title>
<g id="a_Node000019"><a xlink:title=" ">
<polygon fill="#e0e0e0" stroke="#999999" points="1142,-79.5 1082,-79.5 1082,-60.5 1142,-60.5 1142,-79.5"/>
<text text-anchor="middle" x="1112" y="-67.5" font-family="Helvetica,sans-Serif" font-size="10.00">iostream</text>
</a>
</g>
</g>
<!-- Node18&#45;&gt;Node19 -->
<g id="edge23_Node000018_Node000019" class="edge">
<title>Node18&#45;&gt;Node19</title>
<g id="a_edge23_Node000018_Node000019"><a xlink:title=" ">
<path fill="none" stroke="#63b8ff" d="M947.09,-120.98C979.4,-112.49 1029.85,-98.76 1073,-85 1075.12,-84.33 1077.29,-83.61 1079.47,-82.87"/>
<polygon fill="#63b8ff" stroke="#63b8ff" points="1080.7,-86.15 1089,-79.57 1078.4,-79.54 1080.7,-86.15"/>
</a>
</g>
</g>
<!-- Node20 -->
<g id="Node000020" class="node">
<title>Node20</title>
<g id="a_Node000020"><a xlink:title=" ">
<polygon fill="#e0e0e0" stroke="#999999" points="998,-79.5 942,-79.5 942,-60.5 998,-60.5 998,-79.5"/>
<text text-anchor="middle" x="970" y="-67.5" font-family="Helvetica,sans-Serif" font-size="10.00">iomanip</text>
</a>
</g>
</g>
<!-- Node18&#45;&gt;Node20 -->
<g id="edge26_Node000018_Node000020" class="edge">
<title>Node18&#45;&gt;Node20</title>
<g id="a_edge26_Node000018_Node000020"><a xlink:title=" ">
<path fill="none" stroke="#63b8ff" d="M922.26,-120.87C930.78,-111.97 944.26,-97.89 954.73,-86.95"/>
<polygon fill="#63b8ff" stroke="#63b8ff" points="957.32,-89.31 961.7,-79.67 952.26,-84.47 957.32,-89.31"/>
</a>
</g>
</g>
<!-- Node21 -->
<g id="Node000021" class="node">
<title>Node21</title>
<g id="a_Node000021"><a xlink:title=" ">
<polygon fill="#e0e0e0" stroke="#999999" points="885.5,-85 778.5,-85 778.5,-55 885.5,-55 885.5,-85"/>
<text text-anchor="start" x="786.5" y="-73" font-family="Helvetica,sans-Serif" font-size="10.00">imgui&#45;platform&#45;kit</text>
<text text-anchor="middle" x="832" y="-62" font-family="Helvetica,sans-Serif" font-size="10.00">/log_window.h</text>
</a>
</g>
</g>
<!-- Node18&#45;&gt;Node21 -->
<g id="edge27_Node000018_Node000021" class="edge">
<title>Node18&#45;&gt;Node21</title>
<g id="a_edge27_Node000018_Node000021"><a xlink:title=" ">
<path fill="none" stroke="#63b8ff" d="M901.9,-120.87C890.98,-113.08 874.49,-101.32 860.28,-91.17"/>
<polygon fill="#63b8ff" stroke="#63b8ff" points="861.96,-88.07 851.78,-85.11 857.89,-93.77 861.96,-88.07"/>
</a>
</g>
</g>
<!-- Node18&#45;&gt;Node22 -->
<g id="edge29_Node000018_Node000022" class="edge">
<title>Node18&#45;&gt;Node22</title>
<g id="a_edge29_Node000018_Node000022"><a xlink:title=" ">
<path fill="none" stroke="#63b8ff" d="M932.32,-120.99C953.41,-111.2 988.26,-95.02 1012.58,-83.73"/>
<polygon fill="#63b8ff" stroke="#63b8ff" points="1014.06,-86.9 1021.66,-79.52 1011.11,-80.55 1014.06,-86.9"/>
</a>
</g>
</g>
<!-- Node22&#45;&gt;Node7 -->
<g id="edge30_Node000022_Node000007" class="edge">
<title>Node22&#45;&gt;Node7</title>
<g id="a_edge30_Node000022_Node000007"><a xlink:title=" ">
<path fill="none" stroke="#63b8ff" d="M1022.17,-60.35C1017.34,-58.32 1012.05,-56.35 1007,-55 884.68,-22.42 733.27,-13.65 668.2,-11.33"/>
<polygon fill="#63b8ff" stroke="#63b8ff" points="668.26,-7.83 658.15,-10.99 668.03,-14.82 668.26,-7.83"/>
</a>
</g>
</g>
<!-- Node22&#45;&gt;Node9 -->
<g id="edge31_Node000022_Node000009" class="edge">
<title>Node22&#45;&gt;Node9</title>
<g id="a_edge31_Node000022_Node000009"><a xlink:title=" ">
<path fill="none" stroke="#63b8ff" d="M1059.44,-60.44C1063.87,-58.58 1068.57,-56.67 1073,-55 1107.2,-42.13 1147.01,-29.26 1174.49,-20.7"/>
<polygon fill="#63b8ff" stroke="#63b8ff" points="1175.86,-23.94 1184.38,-17.63 1173.79,-17.25 1175.86,-23.94"/>
</a>
</g>
</g>
<!-- Node22&#45;&gt;Node12 -->
<g id="edge35_Node000022_Node000012" class="edge">
<title>Node22&#45;&gt;Node12</title>
<g id="a_edge35_Node000022_Node000012"><a xlink:title=" ">
<path fill="none" stroke="#63b8ff" d="M1020.22,-60.49C997.36,-50.66 959.51,-34.38 933.24,-23.08"/>
<polygon fill="#63b8ff" stroke="#63b8ff" points="934.37,-19.75 923.8,-19.02 931.6,-26.18 934.37,-19.75"/>
</a>
</g>
</g>
<!-- Node23 -->
<g id="Node000023" class="node">
<title>Node23</title>
<g id="a_Node000023"><a xlink:title=" ">
<polygon fill="#e0e0e0" stroke="#999999" points="1149,-19 1095,-19 1095,0 1149,0 1149,-19"/>
<text text-anchor="middle" x="1122" y="-7" font-family="Helvetica,sans-Serif" font-size="10.00">random</text>
</a>
</g>
</g>
<!-- Node22&#45;&gt;Node23 -->
<g id="edge32_Node000022_Node000023" class="edge">
<title>Node22&#45;&gt;Node23</title>
<g id="a_edge32_Node000022_Node000023"><a xlink:title=" ">
<path fill="none" stroke="#63b8ff" d="M1052.1,-60.37C1065.06,-51.12 1085.86,-36.28 1101.4,-25.19"/>
<polygon fill="#63b8ff" stroke="#63b8ff" points="1103.74,-27.82 1109.85,-19.17 1099.68,-22.13 1103.74,-27.82"/>
</a>
</g>
</g>
<!-- Node24 -->
<g id="Node000024" class="node">
<title>Node24</title>
<g id="a_Node000024"><a xlink:title=" ">
<polygon fill="#e0e0e0" stroke="#999999" points="1003,-19 947,-19 947,0 1003,0 1003,-19"/>
<text text-anchor="middle" x="975" y="-7" font-family="Helvetica,sans-Serif" font-size="10.00">sstream</text>
</a>
</g>
</g>
<!-- Node22&#45;&gt;Node24 -->
<g id="edge33_Node000022_Node000024" class="edge">
<title>Node22&#45;&gt;Node24</title>
<g id="a_edge33_Node000022_Node000024"><a xlink:title=" ">
<path fill="none" stroke="#63b8ff" d="M1030.41,-60.37C1020.42,-51.38 1004.57,-37.11 992.37,-26.14"/>
<polygon fill="#63b8ff" stroke="#63b8ff" points="994.4,-23.26 984.63,-19.17 989.72,-28.46 994.4,-23.26"/>
</a>
</g>
</g>
<!-- Node25 -->
<g id="Node000025" class="node">
<title>Node25</title>
<g id="a_Node000025"><a xlink:title=" ">
<polygon fill="#e0e0e0" stroke="#999999" points="1076.5,-19 1021.5,-19 1021.5,0 1076.5,0 1076.5,-19"/>
<text text-anchor="middle" x="1049" y="-7" font-family="Helvetica,sans-Serif" font-size="10.00">fstream</text>
</a>
</g>
</g>
<!-- Node22&#45;&gt;Node25 -->
<g id="edge34_Node000022_Node000025" class="edge">
<title>Node22&#45;&gt;Node25</title>
<g id="a_edge34_Node000022_Node000025"><a xlink:title=" ">
<path fill="none" stroke="#63b8ff" d="M1041.33,-60.37C1042.59,-52.16 1044.53,-39.54 1046.15,-29.05"/>
<polygon fill="#63b8ff" stroke="#63b8ff" points="1049.61,-29.58 1047.67,-19.17 1042.69,-28.52 1049.61,-29.58"/>
</a>
</g>
</g>
<!-- Node26&#45;&gt;Node7 -->
<g id="edge38_Node000026_Node000007" class="edge">
<title>Node26&#45;&gt;Node7</title>
<g id="a_edge38_Node000026_Node000007"><a xlink:title=" ">
<path fill="none" stroke="#63b8ff" d="M640.61,-175.91C639.71,-143.85 637.53,-65.38 636.52,-29.26"/>
<polygon fill="#63b8ff" stroke="#63b8ff" points="640.02,-29.03 636.24,-19.13 633.02,-29.23 640.02,-29.03"/>
</a>
</g>
</g>
<!-- Node26&#45;&gt;Node18 -->
<g id="edge40_Node000026_Node000018" class="edge">
<title>Node26&#45;&gt;Node18</title>
<g id="a_edge40_Node000026_Node000018"><a xlink:title=" ">
<path fill="none" stroke="#63b8ff" d="M706.39,-175.99C754.83,-165.61 819.85,-151.68 864.13,-142.19"/>
<polygon fill="#63b8ff" stroke="#63b8ff" points="865.04,-145.57 874.08,-140.05 863.57,-138.73 865.04,-145.57"/>
</a>
</g>
</g>
<!-- Node27 -->
<g id="Node000027" class="node">
<title>Node27</title>
<g id="a_Node000027"><a xlink:title=" ">
<polygon fill="#e0e0e0" stroke="#999999" points="705,-140 667,-140 667,-121 705,-121 705,-140"/>
<text text-anchor="middle" x="686" y="-128" font-family="Helvetica,sans-Serif" font-size="10.00">map</text>
</a>
</g>
</g>
<!-- Node26&#45;&gt;Node27 -->
<g id="edge37_Node000026_Node000027" class="edge">
<title>Node26&#45;&gt;Node27</title>
<g id="a_edge37_Node000026_Node000027"><a xlink:title=" ">
<path fill="none" stroke="#63b8ff" d="M651.89,-175.84C658.29,-167.52 666.42,-156.96 673.13,-148.23"/>
<polygon fill="#63b8ff" stroke="#63b8ff" points="675.93,-150.33 679.26,-140.27 670.39,-146.06 675.93,-150.33"/>
</a>
</g>
</g>
<!-- Node28 -->
<g id="Node000028" class="node">
<title>Node28</title>
<g id="a_Node000028"><a xlink:title=" ">
<polygon fill="#e0e0e0" stroke="#999999" points="611,-140 561,-140 561,-121 611,-121 611,-140"/>
<text text-anchor="middle" x="586" y="-128" font-family="Helvetica,sans-Serif" font-size="10.00">format</text>
</a>
</g>
</g>
<!-- Node26&#45;&gt;Node28 -->
<g id="edge39_Node000026_Node000028" class="edge">
<title>Node26&#45;&gt;Node28</title>
<g id="a_edge39_Node000026_Node000028"><a xlink:title=" ">
<path fill="none" stroke="#63b8ff" d="M627.69,-175.84C619.7,-167.35 609.52,-156.52 601.22,-147.69"/>
<polygon fill="#63b8ff" stroke="#63b8ff" points="603.64,-145.15 594.24,-140.27 598.54,-149.95 603.64,-145.15"/>
</a>
</g>
</g>
<!-- Node29&#45;&gt;Node5 -->
<g id="edge47_Node000029_Node000005" class="edge">
<title>Node29&#45;&gt;Node5</title>
<g id="a_edge47_Node000029_Node000005"><a xlink:title=" ">
<path fill="none" stroke="#63b8ff" d="M978.99,-357.44C966.94,-355.47 954.02,-353.52 942,-352 844.7,-339.73 65,-350.57 65,-252.5 65,-252.5 65,-252.5 65,-190 65,-154.65 65,-113.4 65,-89.92"/>
<polygon fill="#63b8ff" stroke="#63b8ff" points="68.5,-89.66 65,-79.66 61.5,-89.66 68.5,-89.66"/>
</a>
</g>
</g>
<!-- Node29&#45;&gt;Node8 -->
<g id="edge46_Node000029_Node000008" class="edge">
<title>Node29&#45;&gt;Node8</title>
<g id="a_edge46_Node000029_Node000008"><a xlink:title=" ">
<path fill="none" stroke="#63b8ff" d="M976.7,-357.45C965.3,-355.59 953.24,-353.67 942,-352 853.41,-338.82 751.34,-325.54 683.38,-316.96"/>
<polygon fill="#63b8ff" stroke="#63b8ff" points="683.55,-313.45 673.19,-315.67 682.68,-320.4 683.55,-313.45"/>
</a>
</g>
</g>
<!-- Node29&#45;&gt;Node9 -->
<g id="edge45_Node000029_Node000009" class="edge">
<title>Node29&#45;&gt;Node9</title>
<g id="a_edge45_Node000029_Node000009"><a xlink:title=" ">
<path fill="none" stroke="#63b8ff" d="M1056.7,-357.43C1080.52,-349.48 1113.85,-335.88 1138,-316 1161.14,-296.96 1164.78,-288.36 1177,-261 1209.72,-187.76 1208.06,-164.72 1217,-85 1218.49,-71.75 1218.33,-68.27 1217,-55 1216.15,-46.47 1214.39,-37.16 1212.66,-29.27"/>
<polygon fill="#63b8ff" stroke="#63b8ff" points="1216.01,-28.22 1210.32,-19.29 1209.2,-29.82 1216.01,-28.22"/>
</a>
</g>
</g>
<!-- Node29&#45;&gt;Node18 -->
<g id="edge54_Node000029_Node000018" class="edge">
<title>Node29&#45;&gt;Node18</title>
<g id="a_edge54_Node000029_Node000018"><a xlink:title=" ">
<path fill="none" stroke="#63b8ff" d="M1040.84,-357.24C1053.21,-348.5 1070.51,-333.83 1078,-316 1081.27,-308.21 1080.43,-305.09 1078,-297 1059.44,-235.26 1045.74,-219.32 998,-176 983.08,-162.46 963.3,-151.72 946.68,-144.18"/>
<polygon fill="#63b8ff" stroke="#63b8ff" points="947.88,-140.89 937.32,-140.12 945.09,-147.31 947.88,-140.89"/>
</a>
</g>
</g>
<!-- Node29&#45;&gt;Node19 -->
<g id="edge44_Node000029_Node000019" class="edge">
<title>Node29&#45;&gt;Node19</title>
<g id="a_edge44_Node000029_Node000019"><a xlink:title=" ">
<path fill="none" stroke="#63b8ff" d="M1046.9,-357.49C1077.96,-342.95 1136.8,-310.07 1160,-261 1188.32,-201.12 1145.8,-122.42 1123.81,-88.17"/>
<polygon fill="#63b8ff" stroke="#63b8ff" points="1126.67,-86.14 1118.23,-79.74 1120.83,-90.01 1126.67,-86.14"/>
</a>
</g>
</g>
<!-- Node30 -->
<g id="Node000030" class="node">
<title>Node30</title>
<g id="a_Node000030"><a xlink:href="plot_8h.html" target="_top" xlink:title=" ">
<polygon fill="white" stroke="#666666" points="1027,-261 983,-261 983,-242 1027,-242 1027,-261"/>
<text text-anchor="middle" x="1005" y="-249" font-family="Helvetica,sans-Serif" font-size="10.00">plot.h</text>
</a>
</g>
</g>
<!-- Node29&#45;&gt;Node30 -->
<g id="edge48_Node000029_Node000030" class="edge">
<title>Node29&#45;&gt;Node30</title>
<g id="a_edge48_Node000029_Node000030"><a xlink:title=" ">
<path fill="none" stroke="#63b8ff" d="M992.11,-357.49C970.71,-350.27 945,-337.54 932,-316 918.61,-293.81 947.87,-275.3 973.24,-264.1"/>
<polygon fill="#63b8ff" stroke="#63b8ff" points="974.79,-267.25 982.68,-260.17 972.1,-260.78 974.79,-267.25"/>
</a>
</g>
</g>
<!-- Node32 -->
<g id="Node000032" class="node">
<title>Node32</title>
<g id="a_Node000032"><a xlink:href="lineplot_8h.html" target="_top" xlink:title=" ">
<polygon fill="white" stroke="#666666" points="1069,-316 941,-316 941,-297 1069,-297 1069,-316"/>
<text text-anchor="middle" x="1005" y="-304" font-family="Helvetica,sans-Serif" font-size="10.00">visualization/lineplot.h</text>
</a>
</g>
</g>
<!-- Node29&#45;&gt;Node32 -->
<g id="edge55_Node000029_Node000032" class="edge">
<title>Node29&#45;&gt;Node32</title>
<g id="a_edge55_Node000029_Node000032"><a xlink:title=" ">
<path fill="none" stroke="#63b8ff" d="M1023.75,-357.37C1020.63,-349.07 1015.82,-336.28 1011.85,-325.72"/>
<polygon fill="#63b8ff" stroke="#63b8ff" points="1015.06,-324.3 1008.26,-316.17 1008.5,-326.76 1015.06,-324.3"/>
</a>
</g>
</g>
<!-- Node33 -->
<g id="Node000033" class="node">
<title>Node33</title>
<g id="a_Node000033"><a xlink:href="heatmap_8h.html" target="_top" xlink:title=" ">
<polygon fill="white" stroke="#666666" points="885,-316 751,-316 751,-297 885,-297 885,-316"/>
<text text-anchor="middle" x="818" y="-304" font-family="Helvetica,sans-Serif" font-size="10.00">visualization/heatmap.h</text>
</a>
</g>
</g>
<!-- Node29&#45;&gt;Node33 -->
<g id="edge57_Node000029_Node000033" class="edge">
<title>Node29&#45;&gt;Node33</title>
<g id="a_edge57_Node000029_Node000033"><a xlink:title=" ">
<path fill="none" stroke="#63b8ff" d="M996.61,-357.49C960.08,-347.27 898.66,-330.08 858.23,-318.76"/>
<polygon fill="#63b8ff" stroke="#63b8ff" points="859,-315.34 848.43,-316.02 857.11,-322.08 859,-315.34"/>
</a>
</g>
</g>
<!-- Node31 -->
<g id="Node000031" class="node">
<title>Node31</title>
<g id="a_Node000031"><a xlink:href="plot__parameters_8h.html" target="_top" xlink:title=" ">
<polygon fill="white" stroke="#666666" points="989,-200.5 883,-200.5 883,-181.5 989,-181.5 989,-200.5"/>
<text text-anchor="middle" x="936" y="-188.5" font-family="Helvetica,sans-Serif" font-size="10.00">plot_parameters.h</text>
</a>
</g>
</g>
<!-- Node30&#45;&gt;Node31 -->
<g id="edge49_Node000030_Node000031" class="edge">
<title>Node30&#45;&gt;Node31</title>
<g id="a_edge49_Node000030_Node000031"><a xlink:title=" ">
<path fill="none" stroke="#63b8ff" d="M994.82,-241.87C984.12,-232.8 967.06,-218.34 954.07,-207.32"/>
<polygon fill="#63b8ff" stroke="#63b8ff" points="956.11,-204.46 946.22,-200.67 951.59,-209.8 956.11,-204.46"/>
</a>
</g>
</g>
<!-- Node31&#45;&gt;Node7 -->
<g id="edge51_Node000031_Node000007" class="edge">
<title>Node31&#45;&gt;Node7</title>
<g id="a_edge51_Node000031_Node000007"><a xlink:title=" ">
<path fill="none" stroke="#63b8ff" d="M908.53,-181.5C863.28,-166.65 771.44,-132.95 705,-85 682.32,-68.63 661.26,-43.95 648.51,-27.53"/>
<polygon fill="#63b8ff" stroke="#63b8ff" points="651.16,-25.23 642.33,-19.37 645.58,-29.46 651.16,-25.23"/>
</a>
</g>
</g>
<!-- Node31&#45;&gt;Node9 -->
<g id="edge52_Node000031_Node000009" class="edge">
<title>Node31&#45;&gt;Node9</title>
<g id="a_edge52_Node000031_Node000009"><a xlink:title=" ">
<path fill="none" stroke="#63b8ff" d="M962.72,-181.48C1005.74,-166.84 1091.54,-133.68 1151,-85 1170.8,-68.79 1187.77,-44.4 1197.93,-27.99"/>
<polygon fill="#63b8ff" stroke="#63b8ff" points="1200.95,-29.75 1203.09,-19.37 1194.95,-26.15 1200.95,-29.75"/>
</a>
</g>
</g>
<!-- Node31&#45;&gt;Node18 -->
<g id="edge53_Node000031_Node000018" class="edge">
<title>Node31&#45;&gt;Node18</title>
<g id="a_edge53_Node000031_Node000018"><a xlink:title=" ">
<path fill="none" stroke="#63b8ff" d="M932.75,-181.37C929.63,-173.07 924.82,-160.28 920.85,-149.72"/>
<polygon fill="#63b8ff" stroke="#63b8ff" points="924.06,-148.3 917.26,-140.17 917.5,-150.76 924.06,-148.3"/>
</a>
</g>
</g>
<!-- Node31&#45;&gt;Node27 -->
<g id="edge50_Node000031_Node000027" class="edge">
<title>Node31&#45;&gt;Node27</title>
<g id="a_edge50_Node000031_Node000027"><a xlink:title=" ">
<path fill="none" stroke="#63b8ff" d="M897.52,-181.45C854.08,-171.72 781.35,-155.21 719,-140 717.74,-139.69 716.45,-139.38 715.15,-139.05"/>
<polygon fill="#63b8ff" stroke="#63b8ff" points="715.73,-135.59 705.17,-136.53 714.01,-142.37 715.73,-135.59"/>
</a>
</g>
</g>
<!-- Node32&#45;&gt;Node30 -->
<g id="edge56_Node000032_Node000030" class="edge">
<title>Node32&#45;&gt;Node30</title>
<g id="a_edge56_Node000032_Node000030"><a xlink:title=" ">
<path fill="none" stroke="#63b8ff" d="M1005,-296.75C1005,-289.8 1005,-279.85 1005,-271.13"/>
<polygon fill="#63b8ff" stroke="#63b8ff" points="1008.5,-271.09 1005,-261.09 1001.5,-271.09 1008.5,-271.09"/>
</a>
</g>
</g>
<!-- Node33&#45;&gt;Node30 -->
<g id="edge58_Node000033_Node000030" class="edge">
<title>Node33&#45;&gt;Node30</title>
<g id="a_edge58_Node000033_Node000030"><a xlink:title=" ">
<path fill="none" stroke="#63b8ff" d="M848.04,-296.98C882.34,-287.26 938.21,-271.43 973.22,-261.51"/>
<polygon fill="#63b8ff" stroke="#63b8ff" points="974.27,-264.85 982.93,-258.75 972.36,-258.11 974.27,-264.85"/>
</a>
</g>
</g>
<!-- Node37 -->
<g id="Node000037" class="node">
<title>Node37</title>
<g id="a_Node000037"><a xlink:title=" ">
<polygon fill="#e0e0e0" stroke="#999999" points="1298.5,-316 1245.5,-316 1245.5,-297 1298.5,-297 1298.5,-316"/>
<text text-anchor="middle" x="1272" y="-304" font-family="Helvetica,sans-Serif" font-size="10.00">imgui.h</text>
</a>
</g>
</g>
<!-- Node36&#45;&gt;Node37 -->
<g id="edge62_Node000036_Node000037" class="edge">
<title>Node36&#45;&gt;Node37</title>
<g id="a_edge62_Node000036_Node000037"><a xlink:title=" ">
<path fill="none" stroke="#63b8ff" d="M1233.35,-351.84C1240.67,-343.43 1250,-332.74 1257.65,-323.96"/>
<polygon fill="#63b8ff" stroke="#63b8ff" points="1260.42,-326.1 1264.36,-316.27 1255.15,-321.5 1260.42,-326.1"/>
</a>
</g>
</g>
</g>
</svg>
