<?xml version="1.0" encoding="UTF-8" standalone="no"?>
<!DOCTYPE svg PUBLIC "-//W3C//DTD SVG 1.1//EN"
 "http://www.w3.org/Graphics/SVG/1.1/DTD/svg11.dtd">
<!-- Generated by graphviz version 2.43.0 (0)
 -->
<!-- Title: src/elements/asymmetric_gauss_kernel.cpp Pages: 1 -->
<svg width="1211pt" height="456pt"
 viewBox="0.00 0.00 1210.50 456.00" xmlns="http://www.w3.org/2000/svg" xmlns:xlink="http://www.w3.org/1999/xlink">
<g id="graph0" class="graph" transform="scale(1 1) rotate(0) translate(4 452)">
<title>src/elements/asymmetric_gauss_kernel.cpp</title>
<!-- Node1 -->
<g id="Node000001" class="node">
<title>Node1</title>
<g id="a_Node000001"><a xlink:title=" ">
<polygon fill="#999999" stroke="#666666" points="939.5,-448 798.5,-448 798.5,-418 939.5,-418 939.5,-448"/>
<text text-anchor="start" x="806.5" y="-436" font-family="Helvetica,sans-Serif" font-size="10.00">src/elements/asymmetric</text>
<text text-anchor="middle" x="869" y="-425" font-family="Helvetica,sans-Serif" font-size="10.00">_gauss_kernel.cpp</text>
</a>
</g>
</g>
<!-- Node2 -->
<g id="Node000002" class="node">
<title>Node2</title>
<g id="a_Node000002"><a xlink:href="asymmetric__gauss__kernel_8h.html" target="_top" xlink:title=" ">
<polygon fill="white" stroke="#666666" points="931,-382 807,-382 807,-352 931,-352 931,-382"/>
<text text-anchor="start" x="815" y="-370" font-family="Helvetica,sans-Serif" font-size="10.00">elements/asymmetric</text>
<text text-anchor="middle" x="869" y="-359" font-family="Helvetica,sans-Serif" font-size="10.00">_gauss_kernel.h</text>
</a>
</g>
</g>
<!-- Node1&#45;&gt;Node2 -->
<g id="edge1_Node000001_Node000002" class="edge">
<title>Node1&#45;&gt;Node2</title>
<g id="a_edge1_Node000001_Node000002"><a xlink:title=" ">
<path fill="none" stroke="#63b8ff" d="M869,-417.8C869,-410.34 869,-400.99 869,-392.41"/>
<polygon fill="#63b8ff" stroke="#63b8ff" points="872.5,-392.16 869,-382.16 865.5,-392.16 872.5,-392.16"/>
</a>
</g>
</g>
<!-- Node3 -->
<g id="Node000003" class="node">
<title>Node3</title>
<g id="a_Node000003"><a xlink:href="kernel_8h.html" target="_top" xlink:title=" ">
<polygon fill="white" stroke="#666666" points="869,-316 813,-316 813,-297 869,-297 869,-316"/>
<text text-anchor="middle" x="841" y="-304" font-family="Helvetica,sans-Serif" font-size="10.00">kernel.h</text>
</a>
</g>
</g>
<!-- Node2&#45;&gt;Node3 -->
<g id="edge2_Node000002_Node000003" class="edge">
<title>Node2&#45;&gt;Node3</title>
<g id="a_edge2_Node000002_Node000003"><a xlink:title=" ">
<path fill="none" stroke="#63b8ff" d="M862.22,-351.84C858.41,-343.87 853.61,-333.84 849.54,-325.33"/>
<polygon fill="#63b8ff" stroke="#63b8ff" points="852.67,-323.77 845.2,-316.27 846.36,-326.8 852.67,-323.77"/>
</a>
</g>
</g>
<!-- Node28 -->
<g id="Node000028" class="node">
<title>Node28</title>
<g id="a_Node000028"><a xlink:href="math_8h.html" target="_top" xlink:title=" ">
<polygon fill="white" stroke="#666666" points="967,-261 889,-261 889,-242 967,-242 967,-261"/>
<text text-anchor="middle" x="928" y="-249" font-family="Helvetica,sans-Serif" font-size="10.00">tools/math.h</text>
</a>
</g>
</g>
<!-- Node2&#45;&gt;Node28 -->
<g id="edge35_Node000002_Node000028" class="edge">
<title>Node2&#45;&gt;Node28</title>
<g id="a_edge35_Node000002_Node000028"><a xlink:title=" ">
<path fill="none" stroke="#63b8ff" d="M876.47,-351.63C887.23,-330.93 907.06,-292.78 918.73,-270.32"/>
<polygon fill="#63b8ff" stroke="#63b8ff" points="921.96,-271.72 923.46,-261.23 915.74,-268.49 921.96,-271.72"/>
</a>
</g>
</g>
<!-- Node4 -->
<g id="Node000004" class="node">
<title>Node4</title>
<g id="a_Node000004"><a xlink:href="element_8h.html" target="_top" xlink:title=" ">
<polygon fill="white" stroke="#666666" points="537,-261 471,-261 471,-242 537,-242 537,-261"/>
<text text-anchor="middle" x="504" y="-249" font-family="Helvetica,sans-Serif" font-size="10.00">element.h</text>
</a>
</g>
</g>
<!-- Node3&#45;&gt;Node4 -->
<g id="edge3_Node000003_Node000004" class="edge">
<title>Node3&#45;&gt;Node4</title>
<g id="a_edge3_Node000003_Node000004"><a xlink:title=" ">
<path fill="none" stroke="#63b8ff" d="M812.85,-301.07C754.01,-291.82 617.69,-270.38 547.5,-259.34"/>
<polygon fill="#63b8ff" stroke="#63b8ff" points="547.65,-255.82 537.23,-257.73 546.57,-262.74 547.65,-255.82"/>
</a>
</g>
</g>
<!-- Node27 -->
<g id="Node000027" class="node">
<title>Node27</title>
<g id="a_Node000027"><a xlink:title=" ">
<polygon fill="#e0e0e0" stroke="#999999" points="862,-200.5 820,-200.5 820,-181.5 862,-181.5 862,-200.5"/>
<text text-anchor="middle" x="841" y="-188.5" font-family="Helvetica,sans-Serif" font-size="10.00">array</text>
</a>
</g>
</g>
<!-- Node3&#45;&gt;Node27 -->
<g id="edge34_Node000003_Node000027" class="edge">
<title>Node3&#45;&gt;Node27</title>
<g id="a_edge34_Node000003_Node000027"><a xlink:title=" ">
<path fill="none" stroke="#63b8ff" d="M841,-296.97C841,-278.73 841,-235.57 841,-210.64"/>
<polygon fill="#63b8ff" stroke="#63b8ff" points="844.5,-210.63 841,-200.63 837.5,-210.63 844.5,-210.63"/>
</a>
</g>
</g>
<!-- Node5 -->
<g id="Node000005" class="node">
<title>Node5</title>
<g id="a_Node000005"><a xlink:title=" ">
<polygon fill="#e0e0e0" stroke="#999999" points="783.5,-19 736.5,-19 736.5,0 783.5,0 783.5,-19"/>
<text text-anchor="middle" x="760" y="-7" font-family="Helvetica,sans-Serif" font-size="10.00">vector</text>
</a>
</g>
</g>
<!-- Node4&#45;&gt;Node5 -->
<g id="edge4_Node000004_Node000005" class="edge">
<title>Node4&#45;&gt;Node5</title>
<g id="a_edge4_Node000004_Node000005"><a xlink:title=" ">
<path fill="none" stroke="#63b8ff" d="M527.96,-241.97C547.27,-234.38 574.48,-222.01 595,-206 664.44,-151.85 725.3,-64.3 749.21,-27.57"/>
<polygon fill="#63b8ff" stroke="#63b8ff" points="752.25,-29.31 754.71,-19.01 746.36,-25.53 752.25,-29.31"/>
</a>
</g>
</g>
<!-- Node6 -->
<g id="Node000006" class="node">
<title>Node6</title>
<g id="a_Node000006"><a xlink:title=" ">
<polygon fill="#e0e0e0" stroke="#999999" points="226,-19 182,-19 182,0 226,0 226,-19"/>
<text text-anchor="middle" x="204" y="-7" font-family="Helvetica,sans-Serif" font-size="10.00">string</text>
</a>
</g>
</g>
<!-- Node4&#45;&gt;Node6 -->
<g id="edge5_Node000004_Node000006" class="edge">
<title>Node4&#45;&gt;Node6</title>
<g id="a_edge5_Node000004_Node000006"><a xlink:title=" ">
<path fill="none" stroke="#63b8ff" d="M470.89,-251.28C394.9,-252.3 211.5,-250.03 173,-206 128.14,-154.71 171.37,-65.59 193.14,-28.01"/>
<polygon fill="#63b8ff" stroke="#63b8ff" points="196.26,-29.61 198.39,-19.23 190.25,-26.02 196.26,-29.61"/>
</a>
</g>
</g>
<!-- Node7 -->
<g id="Node000007" class="node">
<title>Node7</title>
<g id="a_Node000007"><a xlink:title=" ">
<polygon fill="#e0e0e0" stroke="#999999" points="275.5,-200.5 182.5,-200.5 182.5,-181.5 275.5,-181.5 275.5,-200.5"/>
<text text-anchor="middle" x="229" y="-188.5" font-family="Helvetica,sans-Serif" font-size="10.00">unordered_map</text>
</a>
</g>
</g>
<!-- Node4&#45;&gt;Node7 -->
<g id="edge6_Node000004_Node000007" class="edge">
<title>Node4&#45;&gt;Node7</title>
<g id="a_edge6_Node000004_Node000007"><a xlink:title=" ">
<path fill="none" stroke="#63b8ff" d="M470.88,-244.25C427.91,-236.02 350.65,-220.87 285,-206 280.82,-205.05 276.48,-204.03 272.14,-202.99"/>
<polygon fill="#63b8ff" stroke="#63b8ff" points="272.65,-199.51 262.11,-200.54 270.99,-206.31 272.65,-199.51"/>
</a>
</g>
</g>
<!-- Node8 -->
<g id="Node000008" class="node">
<title>Node8</title>
<g id="a_Node000008"><a xlink:title=" ">
<polygon fill="#e0e0e0" stroke="#999999" points="352,-200.5 294,-200.5 294,-181.5 352,-181.5 352,-200.5"/>
<text text-anchor="middle" x="323" y="-188.5" font-family="Helvetica,sans-Serif" font-size="10.00">memory</text>
</a>
</g>
</g>
<!-- Node4&#45;&gt;Node8 -->
<g id="edge7_Node000004_Node000008" class="edge">
<title>Node4&#45;&gt;Node8</title>
<g id="a_edge7_Node000004_Node000008"><a xlink:title=" ">
<path fill="none" stroke="#63b8ff" d="M475.1,-241.98C446.12,-233.33 400.27,-219.33 361,-206 359.15,-205.37 357.26,-204.72 355.35,-204.05"/>
<polygon fill="#63b8ff" stroke="#63b8ff" points="356.43,-200.72 345.84,-200.63 354.07,-207.3 356.43,-200.72"/>
</a>
</g>
</g>
<!-- Node9 -->
<g id="Node000009" class="node">
<title>Node9</title>
<g id="a_Node000009"><a xlink:title=" ">
<polygon fill="#e0e0e0" stroke="#999999" points="420,-200.5 370,-200.5 370,-181.5 420,-181.5 420,-200.5"/>
<text text-anchor="middle" x="395" y="-188.5" font-family="Helvetica,sans-Serif" font-size="10.00">ranges</text>
</a>
</g>
</g>
<!-- Node4&#45;&gt;Node9 -->
<g id="edge8_Node000004_Node000009" class="edge">
<title>Node4&#45;&gt;Node9</title>
<g id="a_edge8_Node000004_Node000009"><a xlink:title=" ">
<path fill="none" stroke="#63b8ff" d="M487.92,-241.87C470.05,-232.28 440.96,-216.67 420.09,-205.47"/>
<polygon fill="#63b8ff" stroke="#63b8ff" points="421.62,-202.31 411.15,-200.67 418.31,-208.48 421.62,-202.31"/>
</a>
</g>
</g>
<!-- Node10 -->
<g id="Node000010" class="node">
<title>Node10</title>
<g id="a_Node000010"><a xlink:title=" ">
<polygon fill="#e0e0e0" stroke="#999999" points="728,-200.5 664,-200.5 664,-181.5 728,-181.5 728,-200.5"/>
<text text-anchor="middle" x="696" y="-188.5" font-family="Helvetica,sans-Serif" font-size="10.00">algorithm</text>
</a>
</g>
</g>
<!-- Node4&#45;&gt;Node10 -->
<g id="edge9_Node000004_Node000010" class="edge">
<title>Node4&#45;&gt;Node10</title>
<g id="a_edge9_Node000004_Node000010"><a xlink:title=" ">
<path fill="none" stroke="#63b8ff" d="M531.92,-241.99C565.19,-231.86 620.95,-214.87 658.1,-203.55"/>
<polygon fill="#63b8ff" stroke="#63b8ff" points="659.5,-206.78 668.05,-200.52 657.46,-200.08 659.5,-206.78"/>
</a>
</g>
</g>
<!-- Node11 -->
<g id="Node000011" class="node">
<title>Node11</title>
<g id="a_Node000011"><a xlink:title=" ">
<polygon fill="#e0e0e0" stroke="#999999" points="802,-200.5 746,-200.5 746,-181.5 802,-181.5 802,-200.5"/>
<text text-anchor="middle" x="774" y="-188.5" font-family="Helvetica,sans-Serif" font-size="10.00">numeric</text>
</a>
</g>
</g>
<!-- Node4&#45;&gt;Node11 -->
<g id="edge10_Node000004_Node000011" class="edge">
<title>Node4&#45;&gt;Node11</title>
<g id="a_edge10_Node000004_Node000011"><a xlink:title=" ">
<path fill="none" stroke="#63b8ff" d="M537.22,-246.01C582.8,-239.42 667.05,-225.75 737,-206 739.15,-205.39 741.35,-204.72 743.55,-203.99"/>
<polygon fill="#63b8ff" stroke="#63b8ff" points="744.81,-207.26 753.08,-200.64 742.48,-200.66 744.81,-207.26"/>
</a>
</g>
</g>
<!-- Node12 -->
<g id="Node000012" class="node">
<title>Node12</title>
<g id="a_Node000012"><a xlink:href="exception_8h.html" target="_top" xlink:title=" ">
<polygon fill="white" stroke="#666666" points="130,-79.5 0,-79.5 0,-60.5 130,-60.5 130,-79.5"/>
<text text-anchor="middle" x="65" y="-67.5" font-family="Helvetica,sans-Serif" font-size="10.00">exceptions/exception.h</text>
</a>
</g>
</g>
<!-- Node4&#45;&gt;Node12 -->
<g id="edge11_Node000004_Node000012" class="edge">
<title>Node4&#45;&gt;Node12</title>
<g id="a_edge11_Node000004_Node000012"><a xlink:title=" ">
<path fill="none" stroke="#63b8ff" d="M470.84,-250.21C391.56,-248.94 193.67,-242.14 140,-206 98.79,-178.25 77.94,-119.93 69.57,-89.84"/>
<polygon fill="#63b8ff" stroke="#63b8ff" points="72.87,-88.61 66.96,-79.82 66.09,-90.37 72.87,-88.61"/>
</a>
</g>
</g>
<!-- Node14 -->
<g id="Node000014" class="node">
<title>Node14</title>
<g id="a_Node000014"><a xlink:href="logger_8h.html" target="_top" xlink:title=" ">
<polygon fill="white" stroke="#666666" points="545.5,-140 462.5,-140 462.5,-121 545.5,-121 545.5,-140"/>
<text text-anchor="middle" x="504" y="-128" font-family="Helvetica,sans-Serif" font-size="10.00">tools/logger.h</text>
</a>
</g>
</g>
<!-- Node4&#45;&gt;Node14 -->
<g id="edge14_Node000004_Node000014" class="edge">
<title>Node4&#45;&gt;Node14</title>
<g id="a_edge14_Node000004_Node000014"><a xlink:title=" ">
<path fill="none" stroke="#63b8ff" d="M531.29,-241.88C548,-235.03 568.04,-223.62 578,-206 584.56,-194.39 584.56,-187.61 578,-176 569.83,-161.55 554.88,-151.27 540.54,-144.26"/>
<polygon fill="#63b8ff" stroke="#63b8ff" points="541.85,-141.01 531.29,-140.12 538.99,-147.4 541.85,-141.01"/>
</a>
</g>
</g>
<!-- Node24 -->
<g id="Node000024" class="node">
<title>Node24</title>
<g id="a_Node000024"><a xlink:href="element__parameters_8h.html" target="_top" xlink:title=" ">
<polygon fill="white" stroke="#666666" points="569.5,-206 438.5,-206 438.5,-176 569.5,-176 569.5,-206"/>
<text text-anchor="start" x="446.5" y="-194" font-family="Helvetica,sans-Serif" font-size="10.00">element_parameters</text>
<text text-anchor="middle" x="504" y="-183" font-family="Helvetica,sans-Serif" font-size="10.00">/element_parameters.h</text>
</a>
</g>
</g>
<!-- Node4&#45;&gt;Node24 -->
<g id="edge29_Node000004_Node000024" class="edge">
<title>Node4&#45;&gt;Node24</title>
<g id="a_edge29_Node000004_Node000024"><a xlink:title=" ">
<path fill="none" stroke="#63b8ff" d="M504,-241.87C504,-235.11 504,-225.35 504,-216.26"/>
<polygon fill="#63b8ff" stroke="#63b8ff" points="507.5,-216.11 504,-206.11 500.5,-216.11 507.5,-216.11"/>
</a>
</g>
</g>
<!-- Node12&#45;&gt;Node6 -->
<g id="edge13_Node000012_Node000006" class="edge">
<title>Node12&#45;&gt;Node6</title>
<g id="a_edge13_Node000012_Node000006"><a xlink:title=" ">
<path fill="none" stroke="#63b8ff" d="M85.21,-60.49C108.68,-50.62 147.61,-34.23 174.46,-22.93"/>
<polygon fill="#63b8ff" stroke="#63b8ff" points="175.9,-26.12 183.76,-19.02 173.19,-19.67 175.9,-26.12"/>
</a>
</g>
</g>
<!-- Node13 -->
<g id="Node000013" class="node">
<title>Node13</title>
<g id="a_Node000013"><a xlink:title=" ">
<polygon fill="#e0e0e0" stroke="#999999" points="97.5,-19 32.5,-19 32.5,0 97.5,0 97.5,-19"/>
<text text-anchor="middle" x="65" y="-7" font-family="Helvetica,sans-Serif" font-size="10.00">exception</text>
</a>
</g>
</g>
<!-- Node12&#45;&gt;Node13 -->
<g id="edge12_Node000012_Node000013" class="edge">
<title>Node12&#45;&gt;Node13</title>
<g id="a_edge12_Node000012_Node000013"><a xlink:title=" ">
<path fill="none" stroke="#63b8ff" d="M65,-60.37C65,-52.25 65,-39.81 65,-29.39"/>
<polygon fill="#63b8ff" stroke="#63b8ff" points="68.5,-29.17 65,-19.17 61.5,-29.17 68.5,-29.17"/>
</a>
</g>
</g>
<!-- Node14&#45;&gt;Node6 -->
<g id="edge16_Node000014_Node000006" class="edge">
<title>Node14&#45;&gt;Node6</title>
<g id="a_edge16_Node000014_Node000006"><a xlink:title=" ">
<path fill="none" stroke="#63b8ff" d="M462.31,-122.26C393.99,-110.34 265.29,-87.63 261,-85 238.71,-71.35 221.96,-45.53 212.57,-28.17"/>
<polygon fill="#63b8ff" stroke="#63b8ff" points="215.59,-26.38 207.91,-19.08 209.36,-29.57 215.59,-26.38"/>
</a>
</g>
</g>
<!-- Node14&#45;&gt;Node12 -->
<g id="edge20_Node000014_Node000012" class="edge">
<title>Node14&#45;&gt;Node12</title>
<g id="a_edge20_Node000014_Node000012"><a xlink:title=" ">
<path fill="none" stroke="#63b8ff" d="M462.27,-122.42C459.14,-121.92 456.02,-121.45 453,-121 344.65,-105 218.85,-89.31 140.57,-79.9"/>
<polygon fill="#63b8ff" stroke="#63b8ff" points="140.67,-76.39 130.32,-78.67 139.83,-83.34 140.67,-76.39"/>
</a>
</g>
</g>
<!-- Node15 -->
<g id="Node000015" class="node">
<title>Node15</title>
<g id="a_Node000015"><a xlink:title=" ">
<polygon fill="#e0e0e0" stroke="#999999" points="530,-79.5 470,-79.5 470,-60.5 530,-60.5 530,-79.5"/>
<text text-anchor="middle" x="500" y="-67.5" font-family="Helvetica,sans-Serif" font-size="10.00">iostream</text>
</a>
</g>
</g>
<!-- Node14&#45;&gt;Node15 -->
<g id="edge15_Node000014_Node000015" class="edge">
<title>Node14&#45;&gt;Node15</title>
<g id="a_edge15_Node000014_Node000015"><a xlink:title=" ">
<path fill="none" stroke="#63b8ff" d="M503.41,-120.87C502.85,-112.75 502,-100.31 501.29,-89.89"/>
<polygon fill="#63b8ff" stroke="#63b8ff" points="504.77,-89.41 500.59,-79.67 497.78,-89.88 504.77,-89.41"/>
</a>
</g>
</g>
<!-- Node16 -->
<g id="Node000016" class="node">
<title>Node16</title>
<g id="a_Node000016"><a xlink:title=" ">
<polygon fill="#e0e0e0" stroke="#999999" points="558,-19 508,-19 508,0 558,0 558,-19"/>
<text text-anchor="middle" x="533" y="-7" font-family="Helvetica,sans-Serif" font-size="10.00">chrono</text>
</a>
</g>
</g>
<!-- Node14&#45;&gt;Node16 -->
<g id="edge17_Node000014_Node000016" class="edge">
<title>Node14&#45;&gt;Node16</title>
<g id="a_edge17_Node000014_Node000016"><a xlink:title=" ">
<path fill="none" stroke="#63b8ff" d="M513.88,-120.75C522.39,-112.5 534.05,-99.3 539,-85 545.35,-66.65 542.23,-44.29 538.53,-28.88"/>
<polygon fill="#63b8ff" stroke="#63b8ff" points="541.86,-27.79 535.87,-19.05 535.11,-29.62 541.86,-27.79"/>
</a>
</g>
</g>
<!-- Node17 -->
<g id="Node000017" class="node">
<title>Node17</title>
<g id="a_Node000017"><a xlink:title=" ">
<polygon fill="#e0e0e0" stroke="#999999" points="326,-79.5 270,-79.5 270,-60.5 326,-60.5 326,-79.5"/>
<text text-anchor="middle" x="298" y="-67.5" font-family="Helvetica,sans-Serif" font-size="10.00">iomanip</text>
</a>
</g>
</g>
<!-- Node14&#45;&gt;Node17 -->
<g id="edge18_Node000014_Node000017" class="edge">
<title>Node14&#45;&gt;Node17</title>
<g id="a_edge18_Node000014_Node000017"><a xlink:title=" ">
<path fill="none" stroke="#63b8ff" d="M467.09,-120.96C432.64,-112.7 379.94,-99.37 335,-85 333.09,-84.39 331.13,-83.73 329.16,-83.05"/>
<polygon fill="#63b8ff" stroke="#63b8ff" points="329.98,-79.63 319.39,-79.53 327.61,-86.21 329.98,-79.63"/>
</a>
</g>
</g>
<!-- Node18 -->
<g id="Node000018" class="node">
<title>Node18</title>
<g id="a_Node000018"><a xlink:title=" ">
<polygon fill="#e0e0e0" stroke="#999999" points="451.5,-85 344.5,-85 344.5,-55 451.5,-55 451.5,-85"/>
<text text-anchor="start" x="352.5" y="-73" font-family="Helvetica,sans-Serif" font-size="10.00">imgui&#45;platform&#45;kit</text>
<text text-anchor="middle" x="398" y="-62" font-family="Helvetica,sans-Serif" font-size="10.00">/log_window.h</text>
</a>
</g>
</g>
<!-- Node14&#45;&gt;Node18 -->
<g id="edge19_Node000014_Node000018" class="edge">
<title>Node14&#45;&gt;Node18</title>
<g id="a_edge19_Node000014_Node000018"><a xlink:title=" ">
<path fill="none" stroke="#63b8ff" d="M488.36,-120.87C473.71,-112.78 451.31,-100.42 432.48,-90.03"/>
<polygon fill="#63b8ff" stroke="#63b8ff" points="434.02,-86.88 423.58,-85.11 430.64,-93.01 434.02,-86.88"/>
</a>
</g>
</g>
<!-- Node19 -->
<g id="Node000019" class="node">
<title>Node19</title>
<g id="a_Node000019"><a xlink:href="utils_8h.html" target="_top" xlink:title=" ">
<polygon fill="white" stroke="#666666" points="633.5,-79.5 586.5,-79.5 586.5,-60.5 633.5,-60.5 633.5,-79.5"/>
<text text-anchor="middle" x="610" y="-67.5" font-family="Helvetica,sans-Serif" font-size="10.00">utils.h</text>
</a>
</g>
</g>
<!-- Node14&#45;&gt;Node19 -->
<g id="edge21_Node000014_Node000019" class="edge">
<title>Node14&#45;&gt;Node19</title>
<g id="a_edge21_Node000014_Node000019"><a xlink:title=" ">
<path fill="none" stroke="#63b8ff" d="M519.64,-120.87C536.94,-111.32 565.05,-95.81 585.33,-84.62"/>
<polygon fill="#63b8ff" stroke="#63b8ff" points="587.23,-87.56 594.3,-79.67 583.85,-81.43 587.23,-87.56"/>
</a>
</g>
</g>
<!-- Node19&#45;&gt;Node5 -->
<g id="edge23_Node000019_Node000005" class="edge">
<title>Node19&#45;&gt;Node5</title>
<g id="a_edge23_Node000019_Node000005"><a xlink:title=" ">
<path fill="none" stroke="#63b8ff" d="M631.81,-60.49C657.25,-50.57 699.51,-34.09 728.51,-22.78"/>
<polygon fill="#63b8ff" stroke="#63b8ff" points="730.12,-25.91 738.16,-19.02 727.57,-19.39 730.12,-25.91"/>
</a>
</g>
</g>
<!-- Node19&#45;&gt;Node6 -->
<g id="edge22_Node000019_Node000006" class="edge">
<title>Node19&#45;&gt;Node6</title>
<g id="a_edge22_Node000019_Node000006"><a xlink:title=" ">
<path fill="none" stroke="#63b8ff" d="M586.4,-63.96C572.62,-61.12 554.87,-57.62 539,-55 428.14,-36.73 295.68,-20.89 235.97,-14.07"/>
<polygon fill="#63b8ff" stroke="#63b8ff" points="236.35,-10.59 226.02,-12.94 235.56,-17.55 236.35,-10.59"/>
</a>
</g>
</g>
<!-- Node19&#45;&gt;Node16 -->
<g id="edge27_Node000019_Node000016" class="edge">
<title>Node19&#45;&gt;Node16</title>
<g id="a_edge27_Node000019_Node000016"><a xlink:title=" ">
<path fill="none" stroke="#63b8ff" d="M598.64,-60.37C586.58,-51.21 567.3,-36.56 552.75,-25.51"/>
<polygon fill="#63b8ff" stroke="#63b8ff" points="554.49,-22.43 544.41,-19.17 550.25,-28 554.49,-22.43"/>
</a>
</g>
</g>
<!-- Node20 -->
<g id="Node000020" class="node">
<title>Node20</title>
<g id="a_Node000020"><a xlink:title=" ">
<polygon fill="#e0e0e0" stroke="#999999" points="925,-19 871,-19 871,0 925,0 925,-19"/>
<text text-anchor="middle" x="898" y="-7" font-family="Helvetica,sans-Serif" font-size="10.00">random</text>
</a>
</g>
</g>
<!-- Node19&#45;&gt;Node20 -->
<g id="edge24_Node000019_Node000020" class="edge">
<title>Node19&#45;&gt;Node20</title>
<g id="a_edge24_Node000019_Node000020"><a xlink:title=" ">
<path fill="none" stroke="#63b8ff" d="M633.57,-64.21C683.6,-54.05 800.78,-30.25 860.93,-18.03"/>
<polygon fill="#63b8ff" stroke="#63b8ff" points="861.67,-21.45 870.77,-16.03 860.28,-14.59 861.67,-21.45"/>
</a>
</g>
</g>
<!-- Node21 -->
<g id="Node000021" class="node">
<title>Node21</title>
<g id="a_Node000021"><a xlink:title=" ">
<polygon fill="#e0e0e0" stroke="#999999" points="718,-19 662,-19 662,0 718,0 718,-19"/>
<text text-anchor="middle" x="690" y="-7" font-family="Helvetica,sans-Serif" font-size="10.00">sstream</text>
</a>
</g>
</g>
<!-- Node19&#45;&gt;Node21 -->
<g id="edge25_Node000019_Node000021" class="edge">
<title>Node19&#45;&gt;Node21</title>
<g id="a_edge25_Node000019_Node000021"><a xlink:title=" ">
<path fill="none" stroke="#63b8ff" d="M621.8,-60.37C634.45,-51.12 654.74,-36.28 669.91,-25.19"/>
<polygon fill="#63b8ff" stroke="#63b8ff" points="672.14,-27.9 678.15,-19.17 668.01,-22.24 672.14,-27.9"/>
</a>
</g>
</g>
<!-- Node22 -->
<g id="Node000022" class="node">
<title>Node22</title>
<g id="a_Node000022"><a xlink:title=" ">
<polygon fill="#e0e0e0" stroke="#999999" points="1032.5,-19 977.5,-19 977.5,0 1032.5,0 1032.5,-19"/>
<text text-anchor="middle" x="1005" y="-7" font-family="Helvetica,sans-Serif" font-size="10.00">fstream</text>
</a>
</g>
</g>
<!-- Node19&#45;&gt;Node22 -->
<g id="edge26_Node000019_Node000022" class="edge">
<title>Node19&#45;&gt;Node22</title>
<g id="a_edge26_Node000019_Node000022"><a xlink:title=" ">
<path fill="none" stroke="#63b8ff" d="M633.53,-65.52C699.49,-55.75 886.65,-28.03 967.28,-16.09"/>
<polygon fill="#63b8ff" stroke="#63b8ff" points="968.1,-19.5 977.47,-14.58 967.07,-12.58 968.1,-19.5"/>
</a>
</g>
</g>
<!-- Node23 -->
<g id="Node000023" class="node">
<title>Node23</title>
<g id="a_Node000023"><a xlink:title=" ">
<polygon fill="#e0e0e0" stroke="#999999" points="644,-19 576,-19 576,0 644,0 644,-19"/>
<text text-anchor="middle" x="610" y="-7" font-family="Helvetica,sans-Serif" font-size="10.00">filesystem</text>
</a>
</g>
</g>
<!-- Node19&#45;&gt;Node23 -->
<g id="edge28_Node000019_Node000023" class="edge">
<title>Node19&#45;&gt;Node23</title>
<g id="a_edge28_Node000019_Node000023"><a xlink:title=" ">
<path fill="none" stroke="#63b8ff" d="M610,-60.37C610,-52.25 610,-39.81 610,-29.39"/>
<polygon fill="#63b8ff" stroke="#63b8ff" points="613.5,-29.17 610,-19.17 606.5,-29.17 613.5,-29.17"/>
</a>
</g>
</g>
<!-- Node24&#45;&gt;Node6 -->
<g id="edge31_Node000024_Node000006" class="edge">
<title>Node24&#45;&gt;Node6</title>
<g id="a_edge31_Node000024_Node000006"><a xlink:title=" ">
<path fill="none" stroke="#63b8ff" d="M443,-175.96C408.88,-167.28 365.91,-154.93 329,-140 280.89,-120.54 258.78,-125.23 226,-85 212.99,-69.03 207.67,-45.59 205.5,-29.29"/>
<polygon fill="#63b8ff" stroke="#63b8ff" points="208.98,-28.89 204.44,-19.32 202.02,-29.63 208.98,-28.89"/>
</a>
</g>
</g>
<!-- Node24&#45;&gt;Node14 -->
<g id="edge33_Node000024_Node000014" class="edge">
<title>Node24&#45;&gt;Node14</title>
<g id="a_edge33_Node000024_Node000014"><a xlink:title=" ">
<path fill="none" stroke="#63b8ff" d="M504,-175.84C504,-168.21 504,-158.7 504,-150.45"/>
<polygon fill="#63b8ff" stroke="#63b8ff" points="507.5,-150.27 504,-140.27 500.5,-150.27 507.5,-150.27"/>
</a>
</g>
</g>
<!-- Node25 -->
<g id="Node000025" class="node">
<title>Node25</title>
<g id="a_Node000025"><a xlink:title=" ">
<polygon fill="#e0e0e0" stroke="#999999" points="376,-140 338,-140 338,-121 376,-121 376,-140"/>
<text text-anchor="middle" x="357" y="-128" font-family="Helvetica,sans-Serif" font-size="10.00">map</text>
</a>
</g>
</g>
<!-- Node24&#45;&gt;Node25 -->
<g id="edge30_Node000024_Node000025" class="edge">
<title>Node24&#45;&gt;Node25</title>
<g id="a_edge30_Node000024_Node000025"><a xlink:title=" ">
<path fill="none" stroke="#63b8ff" d="M468.79,-175.99C443.37,-165.87 409.48,-152.38 385.7,-142.92"/>
<polygon fill="#63b8ff" stroke="#63b8ff" points="386.77,-139.58 376.18,-139.13 384.18,-146.08 386.77,-139.58"/>
</a>
</g>
</g>
<!-- Node26 -->
<g id="Node000026" class="node">
<title>Node26</title>
<g id="a_Node000026"><a xlink:title=" ">
<polygon fill="#e0e0e0" stroke="#999999" points="444,-140 394,-140 394,-121 444,-121 444,-140"/>
<text text-anchor="middle" x="419" y="-128" font-family="Helvetica,sans-Serif" font-size="10.00">format</text>
</a>
</g>
</g>
<!-- Node24&#45;&gt;Node26 -->
<g id="edge32_Node000024_Node000026" class="edge">
<title>Node24&#45;&gt;Node26</title>
<g id="a_edge32_Node000024_Node000026"><a xlink:title=" ">
<path fill="none" stroke="#63b8ff" d="M483.42,-175.84C470.33,-166.83 453.41,-155.18 440.2,-146.09"/>
<polygon fill="#63b8ff" stroke="#63b8ff" points="441.96,-143.05 431.74,-140.27 437.99,-148.82 441.96,-143.05"/>
</a>
</g>
</g>
<!-- Node28&#45;&gt;Node5 -->
<g id="edge36_Node000028_Node000005" class="edge">
<title>Node28&#45;&gt;Node5</title>
<g id="a_edge36_Node000028_Node000005"><a xlink:title=" ">
<path fill="none" stroke="#63b8ff" d="M922.02,-241.96C897.58,-207.04 805,-74.79 771.88,-27.47"/>
<polygon fill="#63b8ff" stroke="#63b8ff" points="774.69,-25.38 766.08,-19.19 768.95,-29.39 774.69,-25.38"/>
</a>
</g>
</g>
<!-- Node28&#45;&gt;Node10 -->
<g id="edge40_Node000028_Node000010" class="edge">
<title>Node28&#45;&gt;Node10</title>
<g id="a_edge40_Node000028_Node000010"><a xlink:title=" ">
<path fill="none" stroke="#63b8ff" d="M888.93,-242.6C850.12,-234.46 789.04,-220.91 737,-206 734.53,-205.29 731.99,-204.53 729.45,-203.73"/>
<polygon fill="#63b8ff" stroke="#63b8ff" points="730.31,-200.33 719.72,-200.55 728.14,-206.98 730.31,-200.33"/>
</a>
</g>
</g>
<!-- Node28&#45;&gt;Node11 -->
<g id="edge41_Node000028_Node000011" class="edge">
<title>Node28&#45;&gt;Node11</title>
<g id="a_edge41_Node000028_Node000011"><a xlink:title=" ">
<path fill="none" stroke="#63b8ff" d="M905.61,-241.99C879.38,-232.03 835.72,-215.45 805.94,-204.13"/>
<polygon fill="#63b8ff" stroke="#63b8ff" points="807.01,-200.8 796.42,-200.52 804.53,-207.34 807.01,-200.8"/>
</a>
</g>
</g>
<!-- Node28&#45;&gt;Node20 -->
<g id="edge43_Node000028_Node000020" class="edge">
<title>Node28&#45;&gt;Node20</title>
<g id="a_edge43_Node000028_Node000020"><a xlink:title=" ">
<path fill="none" stroke="#63b8ff" d="M947.27,-241.9C961.12,-234.55 978.76,-222.54 987,-206 992.95,-194.07 990.26,-188.93 987,-176 972.12,-116.91 931.57,-55.94 910.74,-27.29"/>
<polygon fill="#63b8ff" stroke="#63b8ff" points="913.49,-25.12 904.72,-19.17 907.86,-29.29 913.49,-25.12"/>
</a>
</g>
</g>
<!-- Node28&#45;&gt;Node22 -->
<g id="edge45_Node000028_Node000022" class="edge">
<title>Node28&#45;&gt;Node22</title>
<g id="a_edge45_Node000028_Node000022"><a xlink:title=" ">
<path fill="none" stroke="#63b8ff" d="M954.83,-241.98C971.58,-235.12 991.83,-223.67 1002,-206 1035,-148.68 1019.5,-65.36 1010.22,-28.83"/>
<polygon fill="#63b8ff" stroke="#63b8ff" points="1013.57,-27.82 1007.6,-19.07 1006.81,-29.64 1013.57,-27.82"/>
</a>
</g>
</g>
<!-- Node28&#45;&gt;Node27 -->
<g id="edge37_Node000028_Node000027" class="edge">
<title>Node28&#45;&gt;Node27</title>
<g id="a_edge37_Node000028_Node000027"><a xlink:title=" ">
<path fill="none" stroke="#63b8ff" d="M915.16,-241.87C901.28,-232.54 878.93,-217.51 862.39,-206.38"/>
<polygon fill="#63b8ff" stroke="#63b8ff" points="864.14,-203.34 853.89,-200.67 860.24,-209.15 864.14,-203.34"/>
</a>
</g>
</g>
<!-- Node28&#45;&gt;Node28 -->
<g id="edge39_Node000028_Node000028" class="edge">
<title>Node28&#45;&gt;Node28</title>
<g id="a_edge39_Node000028_Node000028"><a xlink:title=" ">
<path fill="none" stroke="#63b8ff" d="M954.68,-261.03C970.34,-263.06 985,-259.88 985,-251.5 985,-244.95 976.05,-241.58 964.67,-241.38"/>
<polygon fill="#63b8ff" stroke="#63b8ff" points="964.46,-237.89 954.68,-241.97 964.87,-244.88 964.46,-237.89"/>
</a>
</g>
</g>
<!-- Node29 -->
<g id="Node000029" class="node">
<title>Node29</title>
<g id="a_Node000029"><a xlink:title=" ">
<polygon fill="#e0e0e0" stroke="#999999" points="1119.5,-200.5 1072.5,-200.5 1072.5,-181.5 1119.5,-181.5 1119.5,-200.5"/>
<text text-anchor="middle" x="1096" y="-188.5" font-family="Helvetica,sans-Serif" font-size="10.00">cmath</text>
</a>
</g>
</g>
<!-- Node28&#45;&gt;Node29 -->
<g id="edge38_Node000028_Node000029" class="edge">
<title>Node28&#45;&gt;Node29</title>
<g id="a_edge38_Node000028_Node000029"><a xlink:title=" ">
<path fill="none" stroke="#63b8ff" d="M953.47,-241.98C979.72,-233.14 1021.81,-218.86 1058,-206 1059.84,-205.35 1061.72,-204.67 1063.63,-203.98"/>
<polygon fill="#63b8ff" stroke="#63b8ff" points="1064.93,-207.24 1073.12,-200.53 1062.53,-200.66 1064.93,-207.24"/>
</a>
</g>
</g>
<!-- Node30 -->
<g id="Node000030" class="node">
<title>Node30</title>
<g id="a_Node000030"><a xlink:title=" ">
<polygon fill="#e0e0e0" stroke="#999999" points="1202.5,-200.5 1137.5,-200.5 1137.5,-181.5 1202.5,-181.5 1202.5,-200.5"/>
<text text-anchor="middle" x="1170" y="-188.5" font-family="Helvetica,sans-Serif" font-size="10.00">functional</text>
</a>
</g>
</g>
<!-- Node28&#45;&gt;Node30 -->
<g id="edge42_Node000028_Node000030" class="edge">
<title>Node28&#45;&gt;Node30</title>
<g id="a_edge42_Node000028_Node000030"><a xlink:title=" ">
<path fill="none" stroke="#63b8ff" d="M967.23,-243.16C1007.97,-235.22 1073.42,-221.59 1129,-206 1131.47,-205.31 1134.01,-204.55 1136.56,-203.76"/>
<polygon fill="#63b8ff" stroke="#63b8ff" points="1137.86,-207.01 1146.29,-200.59 1135.7,-200.36 1137.86,-207.01"/>
</a>
</g>
</g>
<!-- Node31 -->
<g id="Node000031" class="node">
<title>Node31</title>
<g id="a_Node000031"><a xlink:title=" ">
<polygon fill="#e0e0e0" stroke="#999999" points="977.5,-200.5 918.5,-200.5 918.5,-181.5 977.5,-181.5 977.5,-200.5"/>
<text text-anchor="middle" x="948" y="-188.5" font-family="Helvetica,sans-Serif" font-size="10.00">numbers</text>
</a>
</g>
</g>
<!-- Node28&#45;&gt;Node31 -->
<g id="edge44_Node000028_Node000031" class="edge">
<title>Node28&#45;&gt;Node31</title>
<g id="a_edge44_Node000028_Node000031"><a xlink:title=" ">
<path fill="none" stroke="#63b8ff" d="M930.95,-241.87C933.79,-233.57 938.16,-220.78 941.77,-210.22"/>
<polygon fill="#63b8ff" stroke="#63b8ff" points="945.11,-211.26 945.04,-200.67 938.49,-209 945.11,-211.26"/>
</a>
</g>
</g>
</g>
</svg>
