<?xml version="1.0" encoding="UTF-8" standalone="no"?>
<!DOCTYPE svg PUBLIC "-//W3C//DTD SVG 1.1//EN"
 "http://www.w3.org/Graphics/SVG/1.1/DTD/svg11.dtd">
<!-- Generated by graphviz version 2.43.0 (0)
 -->
<!-- Title: src/elements/asymmetric_gauss_kernel_2d.cpp Pages: 1 -->
<svg width="1268pt" height="456pt"
 viewBox="0.00 0.00 1268.15 456.00" xmlns="http://www.w3.org/2000/svg" xmlns:xlink="http://www.w3.org/1999/xlink">
<g id="graph0" class="graph" transform="scale(1 1) rotate(0) translate(4 452)">
<title>src/elements/asymmetric_gauss_kernel_2d.cpp</title>
<!-- Node1 -->
<g id="Node000001" class="node">
<title>Node1</title>
<g id="a_Node000001"><a xlink:title=" ">
<polygon fill="#999999" stroke="#666666" points="937,-448 796,-448 796,-418 937,-418 937,-448"/>
<text text-anchor="start" x="804" y="-436" font-family="Helvetica,sans-Serif" font-size="10.00">src/elements/asymmetric</text>
<text text-anchor="middle" x="866.5" y="-425" font-family="Helvetica,sans-Serif" font-size="10.00">_gauss_kernel_2d.cpp</text>
</a>
</g>
</g>
<!-- Node2 -->
<g id="Node000002" class="node">
<title>Node2</title>
<g id="a_Node000002"><a xlink:href="asymmetric__gauss__kernel__2d_8h.html" target="_top" xlink:title=" ">
<polygon fill="white" stroke="#666666" points="928.5,-382 804.5,-382 804.5,-352 928.5,-352 928.5,-382"/>
<text text-anchor="start" x="812.5" y="-370" font-family="Helvetica,sans-Serif" font-size="10.00">elements/asymmetric</text>
<text text-anchor="middle" x="866.5" y="-359" font-family="Helvetica,sans-Serif" font-size="10.00">_gauss_kernel_2d.h</text>
</a>
</g>
</g>
<!-- Node1&#45;&gt;Node2 -->
<g id="edge1_Node000001_Node000002" class="edge">
<title>Node1&#45;&gt;Node2</title>
<g id="a_edge1_Node000001_Node000002"><a xlink:title=" ">
<path fill="none" stroke="#63b8ff" d="M866.5,-417.8C866.5,-410.34 866.5,-400.99 866.5,-392.41"/>
<polygon fill="#63b8ff" stroke="#63b8ff" points="870,-392.16 866.5,-382.16 863,-392.16 870,-392.16"/>
</a>
</g>
</g>
<!-- Node3 -->
<g id="Node000003" class="node">
<title>Node3</title>
<g id="a_Node000003"><a xlink:title=" ">
<polygon fill="#e0e0e0" stroke="#999999" points="410.5,-19 354.5,-19 354.5,0 410.5,0 410.5,-19"/>
<text text-anchor="middle" x="382.5" y="-7" font-family="Helvetica,sans-Serif" font-size="10.00">sstream</text>
</a>
</g>
</g>
<!-- Node2&#45;&gt;Node3 -->
<g id="edge2_Node000002_Node000003" class="edge">
<title>Node2&#45;&gt;Node3</title>
<g id="a_edge2_Node000002_Node000003"><a xlink:title=" ">
<path fill="none" stroke="#63b8ff" d="M804.28,-361.07C650.63,-347.46 260.03,-303.76 182.5,-206 121.7,-129.33 280.56,-52.22 350.92,-22.88"/>
<polygon fill="#63b8ff" stroke="#63b8ff" points="352.31,-26.09 360.23,-19.06 349.65,-19.61 352.31,-26.09"/>
</a>
</g>
</g>
<!-- Node4 -->
<g id="Node000004" class="node">
<title>Node4</title>
<g id="a_Node000004"><a xlink:title=" ">
<polygon fill="#e0e0e0" stroke="#999999" points="1246.5,-79.5 1190.5,-79.5 1190.5,-60.5 1246.5,-60.5 1246.5,-79.5"/>
<text text-anchor="middle" x="1218.5" y="-67.5" font-family="Helvetica,sans-Serif" font-size="10.00">iomanip</text>
</a>
</g>
</g>
<!-- Node2&#45;&gt;Node4 -->
<g id="edge3_Node000002_Node000004" class="edge">
<title>Node2&#45;&gt;Node4</title>
<g id="a_edge3_Node000002_Node000004"><a xlink:title=" ">
<path fill="none" stroke="#63b8ff" d="M912.79,-351.99C976.94,-330.39 1092.83,-283.19 1162.5,-206 1193.43,-171.73 1208.68,-117.99 1214.92,-89.76"/>
<polygon fill="#63b8ff" stroke="#63b8ff" points="1218.41,-90.16 1217,-79.66 1211.55,-88.75 1218.41,-90.16"/>
</a>
</g>
</g>
<!-- Node5 -->
<g id="Node000005" class="node">
<title>Node5</title>
<g id="a_Node000005"><a xlink:title=" ">
<polygon fill="#e0e0e0" stroke="#999999" points="870.5,-200.5 828.5,-200.5 828.5,-181.5 870.5,-181.5 870.5,-200.5"/>
<text text-anchor="middle" x="849.5" y="-188.5" font-family="Helvetica,sans-Serif" font-size="10.00">array</text>
</a>
</g>
</g>
<!-- Node2&#45;&gt;Node5 -->
<g id="edge4_Node000002_Node000005" class="edge">
<title>Node2&#45;&gt;Node5</title>
<g id="a_edge4_Node000002_Node000005"><a xlink:title=" ">
<path fill="none" stroke="#63b8ff" d="M865.11,-351.76C862.06,-320.55 854.79,-246.11 851.35,-210.97"/>
<polygon fill="#63b8ff" stroke="#63b8ff" points="854.8,-210.3 850.35,-200.68 847.84,-210.98 854.8,-210.3"/>
</a>
</g>
</g>
<!-- Node6 -->
<g id="Node000006" class="node">
<title>Node6</title>
<g id="a_Node000006"><a xlink:href="math_8h.html" target="_top" xlink:title=" ">
<polygon fill="white" stroke="#666666" points="1007.5,-261 929.5,-261 929.5,-242 1007.5,-242 1007.5,-261"/>
<text text-anchor="middle" x="968.5" y="-249" font-family="Helvetica,sans-Serif" font-size="10.00">tools/math.h</text>
</a>
</g>
</g>
<!-- Node2&#45;&gt;Node6 -->
<g id="edge5_Node000002_Node000006" class="edge">
<title>Node2&#45;&gt;Node6</title>
<g id="a_edge5_Node000002_Node000006"><a xlink:title=" ">
<path fill="none" stroke="#63b8ff" d="M879.42,-351.63C898.43,-330.47 933.85,-291.05 953.82,-268.83"/>
<polygon fill="#63b8ff" stroke="#63b8ff" points="956.57,-271.01 960.66,-261.23 951.37,-266.33 956.57,-271.01"/>
</a>
</g>
</g>
<!-- Node15 -->
<g id="Node000015" class="node">
<title>Node15</title>
<g id="a_Node000015"><a xlink:href="kernel_8h.html" target="_top" xlink:title=" ">
<polygon fill="white" stroke="#666666" points="838.5,-316 782.5,-316 782.5,-297 838.5,-297 838.5,-316"/>
<text text-anchor="middle" x="810.5" y="-304" font-family="Helvetica,sans-Serif" font-size="10.00">kernel.h</text>
</a>
</g>
</g>
<!-- Node2&#45;&gt;Node15 -->
<g id="edge15_Node000002_Node000015" class="edge">
<title>Node2&#45;&gt;Node15</title>
<g id="a_edge15_Node000002_Node000015"><a xlink:title=" ">
<path fill="none" stroke="#63b8ff" d="M852.94,-351.84C844.82,-343.35 834.45,-332.52 826,-323.69"/>
<polygon fill="#63b8ff" stroke="#63b8ff" points="828.33,-321.07 818.89,-316.27 823.28,-325.91 828.33,-321.07"/>
</a>
</g>
</g>
<!-- Node6&#45;&gt;Node5 -->
<g id="edge7_Node000006_Node000005" class="edge">
<title>Node6&#45;&gt;Node5</title>
<g id="a_edge7_Node000006_Node000005"><a xlink:title=" ">
<path fill="none" stroke="#63b8ff" d="M951.2,-241.99C931.45,-232.29 898.95,-216.31 876.01,-205.03"/>
<polygon fill="#63b8ff" stroke="#63b8ff" points="877.34,-201.79 866.82,-200.52 874.25,-208.07 877.34,-201.79"/>
</a>
</g>
</g>
<!-- Node7 -->
<g id="Node000007" class="node">
<title>Node7</title>
<g id="a_Node000007"><a xlink:title=" ">
<polygon fill="#e0e0e0" stroke="#999999" points="688,-19 641,-19 641,0 688,0 688,-19"/>
<text text-anchor="middle" x="664.5" y="-7" font-family="Helvetica,sans-Serif" font-size="10.00">vector</text>
</a>
</g>
</g>
<!-- Node6&#45;&gt;Node7 -->
<g id="edge6_Node000006_Node000007" class="edge">
<title>Node6&#45;&gt;Node7</title>
<g id="a_edge6_Node000006_Node000007"><a xlink:title=" ">
<path fill="none" stroke="#63b8ff" d="M1007.53,-244.71C1056.65,-235.68 1131.55,-215.07 1104.5,-176 1009.17,-38.29 783.92,-15.01 698.31,-11.2"/>
<polygon fill="#63b8ff" stroke="#63b8ff" points="698.24,-7.69 688.12,-10.81 697.98,-14.69 698.24,-7.69"/>
</a>
</g>
</g>
<!-- Node8 -->
<g id="Node000008" class="node">
<title>Node8</title>
<g id="a_Node000008"><a xlink:title=" ">
<polygon fill="#e0e0e0" stroke="#999999" points="936,-200.5 889,-200.5 889,-181.5 936,-181.5 936,-200.5"/>
<text text-anchor="middle" x="912.5" y="-188.5" font-family="Helvetica,sans-Serif" font-size="10.00">cmath</text>
</a>
</g>
</g>
<!-- Node6&#45;&gt;Node8 -->
<g id="edge8_Node000006_Node000008" class="edge">
<title>Node6&#45;&gt;Node8</title>
<g id="a_edge8_Node000006_Node000008"><a xlink:title=" ">
<path fill="none" stroke="#63b8ff" d="M960.24,-241.87C951.72,-232.97 938.24,-218.89 927.77,-207.95"/>
<polygon fill="#63b8ff" stroke="#63b8ff" points="930.24,-205.47 920.8,-200.67 925.18,-210.31 930.24,-205.47"/>
</a>
</g>
</g>
<!-- Node9 -->
<g id="Node000009" class="node">
<title>Node9</title>
<g id="a_Node000009"><a xlink:title=" ">
<polygon fill="#e0e0e0" stroke="#999999" points="810.5,-200.5 746.5,-200.5 746.5,-181.5 810.5,-181.5 810.5,-200.5"/>
<text text-anchor="middle" x="778.5" y="-188.5" font-family="Helvetica,sans-Serif" font-size="10.00">algorithm</text>
</a>
</g>
</g>
<!-- Node6&#45;&gt;Node9 -->
<g id="edge9_Node000006_Node000009" class="edge">
<title>Node6&#45;&gt;Node9</title>
<g id="a_edge9_Node000006_Node000009"><a xlink:title=" ">
<path fill="none" stroke="#63b8ff" d="M938.71,-241.97C908.56,-233.25 860.64,-219.16 819.5,-206 817.35,-205.31 815.13,-204.59 812.9,-203.86"/>
<polygon fill="#63b8ff" stroke="#63b8ff" points="813.76,-200.45 803.16,-200.6 811.54,-207.09 813.76,-200.45"/>
</a>
</g>
</g>
<!-- Node10 -->
<g id="Node000010" class="node">
<title>Node10</title>
<g id="a_Node000010"><a xlink:title=" ">
<polygon fill="#e0e0e0" stroke="#999999" points="728.5,-200.5 672.5,-200.5 672.5,-181.5 728.5,-181.5 728.5,-200.5"/>
<text text-anchor="middle" x="700.5" y="-188.5" font-family="Helvetica,sans-Serif" font-size="10.00">numeric</text>
</a>
</g>
</g>
<!-- Node6&#45;&gt;Node10 -->
<g id="edge10_Node000006_Node000010" class="edge">
<title>Node6&#45;&gt;Node10</title>
<g id="a_edge10_Node000006_Node000010"><a xlink:title=" ">
<path fill="none" stroke="#63b8ff" d="M929.19,-245.03C882.84,-238.1 803.71,-224.75 737.5,-206 735.35,-205.39 733.15,-204.71 730.95,-203.99"/>
<polygon fill="#63b8ff" stroke="#63b8ff" points="732.02,-200.65 721.42,-200.63 729.69,-207.26 732.02,-200.65"/>
</a>
</g>
</g>
<!-- Node11 -->
<g id="Node000011" class="node">
<title>Node11</title>
<g id="a_Node000011"><a xlink:title=" ">
<polygon fill="#e0e0e0" stroke="#999999" points="1019,-200.5 954,-200.5 954,-181.5 1019,-181.5 1019,-200.5"/>
<text text-anchor="middle" x="986.5" y="-188.5" font-family="Helvetica,sans-Serif" font-size="10.00">functional</text>
</a>
</g>
</g>
<!-- Node6&#45;&gt;Node11 -->
<g id="edge11_Node000006_Node000011" class="edge">
<title>Node6&#45;&gt;Node11</title>
<g id="a_edge11_Node000006_Node000011"><a xlink:title=" ">
<path fill="none" stroke="#63b8ff" d="M971.16,-241.87C973.68,-233.66 977.56,-221.04 980.79,-210.55"/>
<polygon fill="#63b8ff" stroke="#63b8ff" points="984.24,-211.25 983.83,-200.67 977.55,-209.2 984.24,-211.25"/>
</a>
</g>
</g>
<!-- Node12 -->
<g id="Node000012" class="node">
<title>Node12</title>
<g id="a_Node000012"><a xlink:title=" ">
<polygon fill="#e0e0e0" stroke="#999999" points="983.5,-19 929.5,-19 929.5,0 983.5,0 983.5,-19"/>
<text text-anchor="middle" x="956.5" y="-7" font-family="Helvetica,sans-Serif" font-size="10.00">random</text>
</a>
</g>
</g>
<!-- Node6&#45;&gt;Node12 -->
<g id="edge12_Node000006_Node000012" class="edge">
<title>Node6&#45;&gt;Node12</title>
<g id="a_edge12_Node000006_Node000012"><a xlink:title=" ">
<path fill="none" stroke="#63b8ff" d="M1007.8,-245.76C1052.89,-239.42 1122.65,-226.53 1138.5,-206 1179.51,-152.88 1179.94,-107.79 1138.5,-55 1120.86,-32.53 1041.78,-19.95 993.85,-14.26"/>
<polygon fill="#63b8ff" stroke="#63b8ff" points="994.17,-10.78 983.84,-13.12 993.38,-17.73 994.17,-10.78"/>
</a>
</g>
</g>
<!-- Node13 -->
<g id="Node000013" class="node">
<title>Node13</title>
<g id="a_Node000013"><a xlink:title=" ">
<polygon fill="#e0e0e0" stroke="#999999" points="1096,-200.5 1037,-200.5 1037,-181.5 1096,-181.5 1096,-200.5"/>
<text text-anchor="middle" x="1066.5" y="-188.5" font-family="Helvetica,sans-Serif" font-size="10.00">numbers</text>
</a>
</g>
</g>
<!-- Node6&#45;&gt;Node13 -->
<g id="edge13_Node000006_Node000013" class="edge">
<title>Node6&#45;&gt;Node13</title>
<g id="a_edge13_Node000006_Node000013"><a xlink:title=" ">
<path fill="none" stroke="#63b8ff" d="M982.96,-241.87C998.81,-232.41 1024.47,-217.09 1043.18,-205.92"/>
<polygon fill="#63b8ff" stroke="#63b8ff" points="1045.19,-208.8 1051.98,-200.67 1041.6,-202.79 1045.19,-208.8"/>
</a>
</g>
</g>
<!-- Node14 -->
<g id="Node000014" class="node">
<title>Node14</title>
<g id="a_Node000014"><a xlink:title=" ">
<polygon fill="#e0e0e0" stroke="#999999" points="1188,-19 1133,-19 1133,0 1188,0 1188,-19"/>
<text text-anchor="middle" x="1160.5" y="-7" font-family="Helvetica,sans-Serif" font-size="10.00">fstream</text>
</a>
</g>
</g>
<!-- Node6&#45;&gt;Node14 -->
<g id="edge14_Node000006_Node000014" class="edge">
<title>Node6&#45;&gt;Node14</title>
<g id="a_edge14_Node000006_Node000014"><a xlink:title=" ">
<path fill="none" stroke="#63b8ff" d="M1007.56,-249.22C1049,-246.2 1114.95,-236.51 1162.5,-206 1219.59,-169.37 1233.67,-149.22 1255.5,-85 1259.79,-72.38 1262.65,-66.25 1255.5,-55 1242.9,-35.19 1218.9,-24.05 1198.18,-17.86"/>
<polygon fill="#63b8ff" stroke="#63b8ff" points="1198.9,-14.43 1188.33,-15.21 1197.08,-21.19 1198.9,-14.43"/>
</a>
</g>
</g>
<!-- Node15&#45;&gt;Node5 -->
<g id="edge48_Node000015_Node000005" class="edge">
<title>Node15&#45;&gt;Node5</title>
<g id="a_edge48_Node000015_Node000005"><a xlink:title=" ">
<path fill="none" stroke="#63b8ff" d="M813.43,-296.97C819.73,-278.65 834.66,-235.18 843.21,-210.31"/>
<polygon fill="#63b8ff" stroke="#63b8ff" points="846.59,-211.22 846.53,-200.63 839.97,-208.95 846.59,-211.22"/>
</a>
</g>
</g>
<!-- Node16 -->
<g id="Node000016" class="node">
<title>Node16</title>
<g id="a_Node000016"><a xlink:href="element_8h.html" target="_top" xlink:title=" ">
<polygon fill="white" stroke="#666666" points="586.5,-261 520.5,-261 520.5,-242 586.5,-242 586.5,-261"/>
<text text-anchor="middle" x="553.5" y="-249" font-family="Helvetica,sans-Serif" font-size="10.00">element.h</text>
</a>
</g>
</g>
<!-- Node15&#45;&gt;Node16 -->
<g id="edge16_Node000015_Node000016" class="edge">
<title>Node15&#45;&gt;Node16</title>
<g id="a_edge16_Node000015_Node000016"><a xlink:title=" ">
<path fill="none" stroke="#63b8ff" d="M782.01,-299.63C737.05,-290.35 649.32,-272.26 596.61,-261.39"/>
<polygon fill="#63b8ff" stroke="#63b8ff" points="597.06,-257.91 586.56,-259.32 595.65,-264.77 597.06,-257.91"/>
</a>
</g>
</g>
<!-- Node16&#45;&gt;Node7 -->
<g id="edge17_Node000016_Node000007" class="edge">
<title>Node16&#45;&gt;Node7</title>
<g id="a_edge17_Node000016_Node000007"><a xlink:title=" ">
<path fill="none" stroke="#63b8ff" d="M567.1,-241.85C578.62,-233.86 594.78,-220.98 604.5,-206 641.99,-148.22 657.12,-65.74 662.24,-29.18"/>
<polygon fill="#63b8ff" stroke="#63b8ff" points="665.75,-29.38 663.57,-19.01 658.81,-28.47 665.75,-29.38"/>
</a>
</g>
</g>
<!-- Node16&#45;&gt;Node9 -->
<g id="edge22_Node000016_Node000009" class="edge">
<title>Node16&#45;&gt;Node9</title>
<g id="a_edge22_Node000016_Node000009"><a xlink:title=" ">
<path fill="none" stroke="#63b8ff" d="M586.65,-243.45C623.67,-235.34 685.27,-221.2 737.5,-206 739.96,-205.28 742.5,-204.51 745.05,-203.7"/>
<polygon fill="#63b8ff" stroke="#63b8ff" points="746.36,-206.96 754.77,-200.52 744.18,-200.31 746.36,-206.96"/>
</a>
</g>
</g>
<!-- Node16&#45;&gt;Node10 -->
<g id="edge23_Node000016_Node000010" class="edge">
<title>Node16&#45;&gt;Node10</title>
<g id="a_edge23_Node000016_Node000010"><a xlink:title=" ">
<path fill="none" stroke="#63b8ff" d="M574.88,-241.99C599.81,-232.07 641.22,-215.59 669.64,-204.28"/>
<polygon fill="#63b8ff" stroke="#63b8ff" points="671.1,-207.47 679.1,-200.52 668.51,-200.96 671.1,-207.47"/>
</a>
</g>
</g>
<!-- Node17 -->
<g id="Node000017" class="node">
<title>Node17</title>
<g id="a_Node000017"><a xlink:title=" ">
<polygon fill="#e0e0e0" stroke="#999999" points="261.5,-19 217.5,-19 217.5,0 261.5,0 261.5,-19"/>
<text text-anchor="middle" x="239.5" y="-7" font-family="Helvetica,sans-Serif" font-size="10.00">string</text>
</a>
</g>
</g>
<!-- Node16&#45;&gt;Node17 -->
<g id="edge18_Node000016_Node000017" class="edge">
<title>Node16&#45;&gt;Node17</title>
<g id="a_edge18_Node000016_Node000017"><a xlink:title=" ">
<path fill="none" stroke="#63b8ff" d="M520.38,-248.99C433.6,-244.71 204.78,-231.11 182.5,-206 135.78,-153.34 196.23,-64.32 225.39,-27.36"/>
<polygon fill="#63b8ff" stroke="#63b8ff" points="228.47,-29.12 232.05,-19.14 223.03,-24.71 228.47,-29.12"/>
</a>
</g>
</g>
<!-- Node18 -->
<g id="Node000018" class="node">
<title>Node18</title>
<g id="a_Node000018"><a xlink:title=" ">
<polygon fill="#e0e0e0" stroke="#999999" points="434,-200.5 341,-200.5 341,-181.5 434,-181.5 434,-200.5"/>
<text text-anchor="middle" x="387.5" y="-188.5" font-family="Helvetica,sans-Serif" font-size="10.00">unordered_map</text>
</a>
</g>
</g>
<!-- Node16&#45;&gt;Node18 -->
<g id="edge19_Node000016_Node000018" class="edge">
<title>Node16&#45;&gt;Node18</title>
<g id="a_edge19_Node000016_Node000018"><a xlink:title=" ">
<path fill="none" stroke="#63b8ff" d="M529.36,-241.99C500.96,-231.99 453.62,-215.3 421.51,-203.99"/>
<polygon fill="#63b8ff" stroke="#63b8ff" points="422.26,-200.54 411.67,-200.52 419.94,-207.14 422.26,-200.54"/>
</a>
</g>
</g>
<!-- Node19 -->
<g id="Node000019" class="node">
<title>Node19</title>
<g id="a_Node000019"><a xlink:title=" ">
<polygon fill="#e0e0e0" stroke="#999999" points="510.5,-200.5 452.5,-200.5 452.5,-181.5 510.5,-181.5 510.5,-200.5"/>
<text text-anchor="middle" x="481.5" y="-188.5" font-family="Helvetica,sans-Serif" font-size="10.00">memory</text>
</a>
</g>
</g>
<!-- Node16&#45;&gt;Node19 -->
<g id="edge20_Node000016_Node000019" class="edge">
<title>Node16&#45;&gt;Node19</title>
<g id="a_edge20_Node000016_Node000019"><a xlink:title=" ">
<path fill="none" stroke="#63b8ff" d="M542.88,-241.87C531.6,-232.71 513.58,-218.06 499.97,-207.01"/>
<polygon fill="#63b8ff" stroke="#63b8ff" points="502.14,-204.26 492.17,-200.67 497.72,-209.69 502.14,-204.26"/>
</a>
</g>
</g>
<!-- Node20 -->
<g id="Node000020" class="node">
<title>Node20</title>
<g id="a_Node000020"><a xlink:title=" ">
<polygon fill="#e0e0e0" stroke="#999999" points="578.5,-200.5 528.5,-200.5 528.5,-181.5 578.5,-181.5 578.5,-200.5"/>
<text text-anchor="middle" x="553.5" y="-188.5" font-family="Helvetica,sans-Serif" font-size="10.00">ranges</text>
</a>
</g>
</g>
<!-- Node16&#45;&gt;Node20 -->
<g id="edge21_Node000016_Node000020" class="edge">
<title>Node16&#45;&gt;Node20</title>
<g id="a_edge21_Node000016_Node000020"><a xlink:title=" ">
<path fill="none" stroke="#63b8ff" d="M553.5,-241.87C553.5,-233.75 553.5,-221.31 553.5,-210.89"/>
<polygon fill="#63b8ff" stroke="#63b8ff" points="557,-210.67 553.5,-200.67 550,-210.67 557,-210.67"/>
</a>
</g>
</g>
<!-- Node21 -->
<g id="Node000021" class="node">
<title>Node21</title>
<g id="a_Node000021"><a xlink:href="exception_8h.html" target="_top" xlink:title=" ">
<polygon fill="white" stroke="#666666" points="135.5,-79.5 5.5,-79.5 5.5,-60.5 135.5,-60.5 135.5,-79.5"/>
<text text-anchor="middle" x="70.5" y="-67.5" font-family="Helvetica,sans-Serif" font-size="10.00">exceptions/exception.h</text>
</a>
</g>
</g>
<!-- Node16&#45;&gt;Node21 -->
<g id="edge24_Node000016_Node000021" class="edge">
<title>Node16&#45;&gt;Node21</title>
<g id="a_edge24_Node000016_Node000021"><a xlink:title=" ">
<path fill="none" stroke="#63b8ff" d="M520.26,-250.6C434.92,-250.27 210.47,-245.56 149.5,-206 107.08,-178.48 84.57,-119.57 75.45,-89.49"/>
<polygon fill="#63b8ff" stroke="#63b8ff" points="78.71,-88.16 72.6,-79.5 71.98,-90.08 78.71,-88.16"/>
</a>
</g>
</g>
<!-- Node24 -->
<g id="Node000024" class="node">
<title>Node24</title>
<g id="a_Node000024"><a xlink:href="logger_8h.html" target="_top" xlink:title=" ">
<polygon fill="white" stroke="#666666" points="479,-140 396,-140 396,-121 479,-121 479,-140"/>
<text text-anchor="middle" x="437.5" y="-128" font-family="Helvetica,sans-Serif" font-size="10.00">tools/logger.h</text>
</a>
</g>
</g>
<!-- Node16&#45;&gt;Node24 -->
<g id="edge28_Node000016_Node000024" class="edge">
<title>Node16&#45;&gt;Node24</title>
<g id="a_edge28_Node000016_Node000024"><a xlink:title=" ">
<path fill="none" stroke="#63b8ff" d="M563.28,-241.59C578.2,-226.92 603.32,-197.19 587.5,-176 565.04,-145.92 523.12,-135.34 489.29,-131.99"/>
<polygon fill="#63b8ff" stroke="#63b8ff" points="489.33,-128.48 479.08,-131.16 488.77,-135.45 489.33,-128.48"/>
</a>
</g>
</g>
<!-- Node30 -->
<g id="Node000030" class="node">
<title>Node30</title>
<g id="a_Node000030"><a xlink:href="element__parameters_8h.html" target="_top" xlink:title=" ">
<polygon fill="white" stroke="#666666" points="323,-206 192,-206 192,-176 323,-176 323,-206"/>
<text text-anchor="start" x="200" y="-194" font-family="Helvetica,sans-Serif" font-size="10.00">element_parameters</text>
<text text-anchor="middle" x="257.5" y="-183" font-family="Helvetica,sans-Serif" font-size="10.00">/element_parameters.h</text>
</a>
</g>
</g>
<!-- Node16&#45;&gt;Node30 -->
<g id="edge43_Node000016_Node000030" class="edge">
<title>Node16&#45;&gt;Node30</title>
<g id="a_edge43_Node000016_Node000030"><a xlink:title=" ">
<path fill="none" stroke="#63b8ff" d="M520.41,-243.96C475.39,-235.06 393.55,-218.89 333.1,-206.94"/>
<polygon fill="#63b8ff" stroke="#63b8ff" points="333.7,-203.49 323.21,-204.99 332.34,-210.36 333.7,-203.49"/>
</a>
</g>
</g>
<!-- Node21&#45;&gt;Node17 -->
<g id="edge27_Node000021_Node000017" class="edge">
<title>Node21&#45;&gt;Node17</title>
<g id="a_edge27_Node000021_Node000017"><a xlink:title=" ">
<path fill="none" stroke="#63b8ff" d="M95.07,-60.49C124.86,-50.18 175.11,-32.79 207.79,-21.48"/>
<polygon fill="#63b8ff" stroke="#63b8ff" points="209.02,-24.76 217.32,-18.18 206.73,-18.14 209.02,-24.76"/>
</a>
</g>
</g>
<!-- Node22 -->
<g id="Node000022" class="node">
<title>Node22</title>
<g id="a_Node000022"><a xlink:title=" ">
<polygon fill="#e0e0e0" stroke="#999999" points="133.5,-19 83.5,-19 83.5,0 133.5,0 133.5,-19"/>
<text text-anchor="middle" x="108.5" y="-7" font-family="Helvetica,sans-Serif" font-size="10.00">cstdint</text>
</a>
</g>
</g>
<!-- Node21&#45;&gt;Node22 -->
<g id="edge25_Node000021_Node000022" class="edge">
<title>Node21&#45;&gt;Node22</title>
<g id="a_edge25_Node000021_Node000022"><a xlink:title=" ">
<path fill="none" stroke="#63b8ff" d="M76.11,-60.37C81.66,-51.81 90.33,-38.47 97.3,-27.74"/>
<polygon fill="#63b8ff" stroke="#63b8ff" points="100.36,-29.46 102.87,-19.17 94.49,-25.65 100.36,-29.46"/>
</a>
</g>
</g>
<!-- Node23 -->
<g id="Node000023" class="node">
<title>Node23</title>
<g id="a_Node000023"><a xlink:title=" ">
<polygon fill="#e0e0e0" stroke="#999999" points="65,-19 0,-19 0,0 65,0 65,-19"/>
<text text-anchor="middle" x="32.5" y="-7" font-family="Helvetica,sans-Serif" font-size="10.00">exception</text>
</a>
</g>
</g>
<!-- Node21&#45;&gt;Node23 -->
<g id="edge26_Node000021_Node000023" class="edge">
<title>Node21&#45;&gt;Node23</title>
<g id="a_edge26_Node000021_Node000023"><a xlink:title=" ">
<path fill="none" stroke="#63b8ff" d="M64.89,-60.37C59.34,-51.81 50.67,-38.47 43.7,-27.74"/>
<polygon fill="#63b8ff" stroke="#63b8ff" points="46.51,-25.65 38.13,-19.17 40.64,-29.46 46.51,-25.65"/>
</a>
</g>
</g>
<!-- Node24&#45;&gt;Node4 -->
<g id="edge32_Node000024_Node000004" class="edge">
<title>Node24&#45;&gt;Node4</title>
<g id="a_edge32_Node000024_Node000004"><a xlink:title=" ">
<path fill="none" stroke="#63b8ff" d="M479.21,-126.38C615.86,-116.14 1048.78,-83.71 1180.26,-73.86"/>
<polygon fill="#63b8ff" stroke="#63b8ff" points="1180.56,-77.35 1190.27,-73.11 1180.04,-70.37 1180.56,-77.35"/>
</a>
</g>
</g>
<!-- Node24&#45;&gt;Node17 -->
<g id="edge30_Node000024_Node000017" class="edge">
<title>Node24&#45;&gt;Node17</title>
<g id="a_edge30_Node000024_Node000017"><a xlink:title=" ">
<path fill="none" stroke="#63b8ff" d="M395.96,-123.27C366.18,-117.25 326.24,-105.86 296.5,-85 275.32,-70.15 258.48,-45.05 248.75,-28.13"/>
<polygon fill="#63b8ff" stroke="#63b8ff" points="251.75,-26.33 243.86,-19.26 245.62,-29.71 251.75,-26.33"/>
</a>
</g>
</g>
<!-- Node24&#45;&gt;Node21 -->
<g id="edge34_Node000024_Node000021" class="edge">
<title>Node24&#45;&gt;Node21</title>
<g id="a_edge34_Node000024_Node000021"><a xlink:title=" ">
<path fill="none" stroke="#63b8ff" d="M395.76,-122.85C331.88,-112.66 209.4,-93.14 134.33,-81.17"/>
<polygon fill="#63b8ff" stroke="#63b8ff" points="134.48,-77.66 124.06,-79.54 133.38,-84.57 134.48,-77.66"/>
</a>
</g>
</g>
<!-- Node25 -->
<g id="Node000025" class="node">
<title>Node25</title>
<g id="a_Node000025"><a xlink:title=" ">
<polygon fill="#e0e0e0" stroke="#999999" points="365.5,-79.5 305.5,-79.5 305.5,-60.5 365.5,-60.5 365.5,-79.5"/>
<text text-anchor="middle" x="335.5" y="-67.5" font-family="Helvetica,sans-Serif" font-size="10.00">iostream</text>
</a>
</g>
</g>
<!-- Node24&#45;&gt;Node25 -->
<g id="edge29_Node000024_Node000025" class="edge">
<title>Node24&#45;&gt;Node25</title>
<g id="a_edge29_Node000024_Node000025"><a xlink:title=" ">
<path fill="none" stroke="#63b8ff" d="M422.45,-120.87C405.88,-111.36 379,-95.95 359.51,-84.77"/>
<polygon fill="#63b8ff" stroke="#63b8ff" points="361.03,-81.61 350.61,-79.67 357.55,-87.68 361.03,-81.61"/>
</a>
</g>
</g>
<!-- Node26 -->
<g id="Node000026" class="node">
<title>Node26</title>
<g id="a_Node000026"><a xlink:title=" ">
<polygon fill="#e0e0e0" stroke="#999999" points="536.5,-19 486.5,-19 486.5,0 536.5,0 536.5,-19"/>
<text text-anchor="middle" x="511.5" y="-7" font-family="Helvetica,sans-Serif" font-size="10.00">chrono</text>
</a>
</g>
</g>
<!-- Node24&#45;&gt;Node26 -->
<g id="edge31_Node000024_Node000026" class="edge">
<title>Node24&#45;&gt;Node26</title>
<g id="a_edge31_Node000024_Node000026"><a xlink:title=" ">
<path fill="none" stroke="#63b8ff" d="M456.66,-120.87C470.84,-113.44 489.39,-101.34 499.5,-85 509.93,-68.15 512.22,-45.19 512.35,-29.24"/>
<polygon fill="#63b8ff" stroke="#63b8ff" points="515.85,-28.97 512.15,-19.04 508.85,-29.11 515.85,-28.97"/>
</a>
</g>
</g>
<!-- Node27 -->
<g id="Node000027" class="node">
<title>Node27</title>
<g id="a_Node000027"><a xlink:title=" ">
<polygon fill="#e0e0e0" stroke="#999999" points="491,-85 384,-85 384,-55 491,-55 491,-85"/>
<text text-anchor="start" x="392" y="-73" font-family="Helvetica,sans-Serif" font-size="10.00">imgui&#45;platform&#45;kit</text>
<text text-anchor="middle" x="437.5" y="-62" font-family="Helvetica,sans-Serif" font-size="10.00">/log_window.h</text>
</a>
</g>
</g>
<!-- Node24&#45;&gt;Node27 -->
<g id="edge33_Node000024_Node000027" class="edge">
<title>Node24&#45;&gt;Node27</title>
<g id="a_edge33_Node000024_Node000027"><a xlink:title=" ">
<path fill="none" stroke="#63b8ff" d="M437.5,-120.87C437.5,-114.11 437.5,-104.35 437.5,-95.26"/>
<polygon fill="#63b8ff" stroke="#63b8ff" points="441,-95.11 437.5,-85.11 434,-95.11 441,-95.11"/>
</a>
</g>
</g>
<!-- Node28 -->
<g id="Node000028" class="node">
<title>Node28</title>
<g id="a_Node000028"><a xlink:href="utils_8h.html" target="_top" xlink:title=" ">
<polygon fill="white" stroke="#666666" points="605,-79.5 558,-79.5 558,-60.5 605,-60.5 605,-79.5"/>
<text text-anchor="middle" x="581.5" y="-67.5" font-family="Helvetica,sans-Serif" font-size="10.00">utils.h</text>
</a>
</g>
</g>
<!-- Node24&#45;&gt;Node28 -->
<g id="edge35_Node000024_Node000028" class="edge">
<title>Node24&#45;&gt;Node28</title>
<g id="a_edge35_Node000024_Node000028"><a xlink:title=" ">
<path fill="none" stroke="#63b8ff" d="M458.44,-120.99C482.86,-111.07 523.43,-94.59 551.27,-83.28"/>
<polygon fill="#63b8ff" stroke="#63b8ff" points="552.59,-86.52 560.54,-79.52 549.95,-80.04 552.59,-86.52"/>
</a>
</g>
</g>
<!-- Node28&#45;&gt;Node3 -->
<g id="edge39_Node000028_Node000003" class="edge">
<title>Node28&#45;&gt;Node3</title>
<g id="a_edge39_Node000028_Node000003"><a xlink:title=" ">
<path fill="none" stroke="#63b8ff" d="M557.89,-62.06C523.91,-52.07 460.86,-33.54 420.34,-21.62"/>
<polygon fill="#63b8ff" stroke="#63b8ff" points="421.13,-18.21 410.55,-18.75 419.16,-24.93 421.13,-18.21"/>
</a>
</g>
</g>
<!-- Node28&#45;&gt;Node7 -->
<g id="edge37_Node000028_Node000007" class="edge">
<title>Node28&#45;&gt;Node7</title>
<g id="a_edge37_Node000028_Node000007"><a xlink:title=" ">
<path fill="none" stroke="#63b8ff" d="M593.75,-60.37C606.86,-51.12 627.92,-36.28 643.65,-25.19"/>
<polygon fill="#63b8ff" stroke="#63b8ff" points="646.05,-27.79 652.2,-19.17 642.01,-22.07 646.05,-27.79"/>
</a>
</g>
</g>
<!-- Node28&#45;&gt;Node12 -->
<g id="edge38_Node000028_Node000012" class="edge">
<title>Node28&#45;&gt;Node12</title>
<g id="a_edge38_Node000028_Node000012"><a xlink:title=" ">
<path fill="none" stroke="#63b8ff" d="M605.24,-65.3C668.67,-55.4 842.46,-28.29 919.22,-16.32"/>
<polygon fill="#63b8ff" stroke="#63b8ff" points="920.04,-19.73 929.38,-14.73 918.96,-12.81 920.04,-19.73"/>
</a>
</g>
</g>
<!-- Node28&#45;&gt;Node14 -->
<g id="edge40_Node000028_Node000014" class="edge">
<title>Node28&#45;&gt;Node14</title>
<g id="a_edge40_Node000028_Node000014"><a xlink:title=" ">
<path fill="none" stroke="#63b8ff" d="M605.28,-66.6C694.95,-57.54 1013.13,-25.39 1122.93,-14.3"/>
<polygon fill="#63b8ff" stroke="#63b8ff" points="1123.29,-17.78 1132.88,-13.29 1122.58,-10.81 1123.29,-17.78"/>
</a>
</g>
</g>
<!-- Node28&#45;&gt;Node17 -->
<g id="edge36_Node000028_Node000017" class="edge">
<title>Node28&#45;&gt;Node17</title>
<g id="a_edge36_Node000028_Node000017"><a xlink:title=" ">
<path fill="none" stroke="#63b8ff" d="M557.99,-64.98C498.26,-54.76 340.53,-27.78 272.03,-16.06"/>
<polygon fill="#63b8ff" stroke="#63b8ff" points="272.27,-12.56 261.83,-14.32 271.09,-19.45 272.27,-12.56"/>
</a>
</g>
</g>
<!-- Node28&#45;&gt;Node26 -->
<g id="edge41_Node000028_Node000026" class="edge">
<title>Node28&#45;&gt;Node26</title>
<g id="a_edge41_Node000028_Node000026"><a xlink:title=" ">
<path fill="none" stroke="#63b8ff" d="M571.17,-60.37C560.31,-51.3 543.01,-36.84 529.83,-25.82"/>
<polygon fill="#63b8ff" stroke="#63b8ff" points="531.79,-22.89 521.87,-19.17 527.3,-28.27 531.79,-22.89"/>
</a>
</g>
</g>
<!-- Node29 -->
<g id="Node000029" class="node">
<title>Node29</title>
<g id="a_Node000029"><a xlink:title=" ">
<polygon fill="#e0e0e0" stroke="#999999" points="622.5,-19 554.5,-19 554.5,0 622.5,0 622.5,-19"/>
<text text-anchor="middle" x="588.5" y="-7" font-family="Helvetica,sans-Serif" font-size="10.00">filesystem</text>
</a>
</g>
</g>
<!-- Node28&#45;&gt;Node29 -->
<g id="edge42_Node000028_Node000029" class="edge">
<title>Node28&#45;&gt;Node29</title>
<g id="a_edge42_Node000028_Node000029"><a xlink:title=" ">
<path fill="none" stroke="#63b8ff" d="M582.53,-60.37C583.5,-52.25 584.99,-39.81 586.24,-29.39"/>
<polygon fill="#63b8ff" stroke="#63b8ff" points="589.75,-29.51 587.46,-19.17 582.8,-28.68 589.75,-29.51"/>
</a>
</g>
</g>
<!-- Node30&#45;&gt;Node17 -->
<g id="edge45_Node000030_Node000017" class="edge">
<title>Node30&#45;&gt;Node17</title>
<g id="a_edge45_Node000030_Node000017"><a xlink:title=" ">
<path fill="none" stroke="#63b8ff" d="M256.09,-175.91C252.87,-143.85 245,-65.38 241.38,-29.26"/>
<polygon fill="#63b8ff" stroke="#63b8ff" points="244.85,-28.74 240.37,-19.13 237.88,-29.43 244.85,-28.74"/>
</a>
</g>
</g>
<!-- Node30&#45;&gt;Node24 -->
<g id="edge47_Node000030_Node000024" class="edge">
<title>Node30&#45;&gt;Node24</title>
<g id="a_edge47_Node000030_Node000024"><a xlink:title=" ">
<path fill="none" stroke="#63b8ff" d="M300.61,-175.99C331.41,-165.98 372.37,-152.67 401.43,-143.22"/>
<polygon fill="#63b8ff" stroke="#63b8ff" points="402.75,-146.47 411.18,-140.05 400.59,-139.82 402.75,-146.47"/>
</a>
</g>
</g>
<!-- Node31 -->
<g id="Node000031" class="node">
<title>Node31</title>
<g id="a_Node000031"><a xlink:title=" ">
<polygon fill="#e0e0e0" stroke="#999999" points="305.5,-140 267.5,-140 267.5,-121 305.5,-121 305.5,-140"/>
<text text-anchor="middle" x="286.5" y="-128" font-family="Helvetica,sans-Serif" font-size="10.00">map</text>
</a>
</g>
</g>
<!-- Node30&#45;&gt;Node31 -->
<g id="edge44_Node000030_Node000031" class="edge">
<title>Node30&#45;&gt;Node31</title>
<g id="a_edge44_Node000030_Node000031"><a xlink:title=" ">
<path fill="none" stroke="#63b8ff" d="M264.52,-175.84C268.47,-167.87 273.44,-157.84 277.66,-149.33"/>
<polygon fill="#63b8ff" stroke="#63b8ff" points="280.85,-150.78 282.15,-140.27 274.58,-147.67 280.85,-150.78"/>
</a>
</g>
</g>
<!-- Node32 -->
<g id="Node000032" class="node">
<title>Node32</title>
<g id="a_Node000032"><a xlink:title=" ">
<polygon fill="#e0e0e0" stroke="#999999" points="373.5,-140 323.5,-140 323.5,-121 373.5,-121 373.5,-140"/>
<text text-anchor="middle" x="348.5" y="-128" font-family="Helvetica,sans-Serif" font-size="10.00">format</text>
</a>
</g>
</g>
<!-- Node30&#45;&gt;Node32 -->
<g id="edge46_Node000030_Node000032" class="edge">
<title>Node30&#45;&gt;Node32</title>
<g id="a_edge46_Node000030_Node000032"><a xlink:title=" ">
<path fill="none" stroke="#63b8ff" d="M279.53,-175.84C293.77,-166.68 312.23,-154.82 326.47,-145.66"/>
<polygon fill="#63b8ff" stroke="#63b8ff" points="328.61,-148.45 335.13,-140.09 324.83,-142.56 328.61,-148.45"/>
</a>
</g>
</g>
</g>
</svg>
