<?xml version="1.0" encoding="UTF-8" standalone="no"?>
<!DOCTYPE svg PUBLIC "-//W3C//DTD SVG 1.1//EN"
 "http://www.w3.org/Graphics/SVG/1.1/DTD/svg11.dtd">
<!-- Generated by graphviz version 2.43.0 (0)
 -->
<!-- Title: src/elements/boost_stimulus_2d.cpp Pages: 1 -->
<svg width="1047pt" height="390pt"
 viewBox="0.00 0.00 1046.50 390.00" xmlns="http://www.w3.org/2000/svg" xmlns:xlink="http://www.w3.org/1999/xlink">
<g id="graph0" class="graph" transform="scale(1 1) rotate(0) translate(4 386)">
<title>src/elements/boost_stimulus_2d.cpp</title>
<!-- Node1 -->
<g id="Node000001" class="node">
<title>Node1</title>
<g id="a_Node000001"><a xlink:title=" ">
<polygon fill="#999999" stroke="#666666" points="307.5,-382 197.5,-382 197.5,-352 307.5,-352 307.5,-382"/>
<text text-anchor="start" x="205.5" y="-370" font-family="Helvetica,sans-Serif" font-size="10.00">src/elements/boost</text>
<text text-anchor="middle" x="252.5" y="-359" font-family="Helvetica,sans-Serif" font-size="10.00">_stimulus_2d.cpp</text>
</a>
</g>
</g>
<!-- Node2 -->
<g id="Node000002" class="node">
<title>Node2</title>
<g id="a_Node000002"><a xlink:href="boost__stimulus__2d_8h.html" target="_top" xlink:title=" ">
<polygon fill="white" stroke="#666666" points="335.5,-316 169.5,-316 169.5,-297 335.5,-297 335.5,-316"/>
<text text-anchor="middle" x="252.5" y="-304" font-family="Helvetica,sans-Serif" font-size="10.00">elements/boost_stimulus_2d.h</text>
</a>
</g>
</g>
<!-- Node1&#45;&gt;Node2 -->
<g id="edge1_Node000001_Node000002" class="edge">
<title>Node1&#45;&gt;Node2</title>
<g id="a_edge1_Node000001_Node000002"><a xlink:title=" ">
<path fill="none" stroke="#63b8ff" d="M252.5,-351.84C252.5,-344.21 252.5,-334.7 252.5,-326.45"/>
<polygon fill="#63b8ff" stroke="#63b8ff" points="256,-326.27 252.5,-316.27 249,-326.27 256,-326.27"/>
</a>
</g>
</g>
<!-- Node3 -->
<g id="Node000003" class="node">
<title>Node3</title>
<g id="a_Node000003"><a xlink:title=" ">
<polygon fill="#e0e0e0" stroke="#999999" points="47,-261 0,-261 0,-242 47,-242 47,-261"/>
<text text-anchor="middle" x="23.5" y="-249" font-family="Helvetica,sans-Serif" font-size="10.00">cmath</text>
</a>
</g>
</g>
<!-- Node2&#45;&gt;Node3 -->
<g id="edge2_Node000002_Node000003" class="edge">
<title>Node2&#45;&gt;Node3</title>
<g id="a_edge2_Node000002_Node000003"><a xlink:title=" ">
<path fill="none" stroke="#63b8ff" d="M215.71,-296.98C171.91,-286.85 99.38,-270.06 57.06,-260.27"/>
<polygon fill="#63b8ff" stroke="#63b8ff" points="57.77,-256.84 47.24,-257.99 56.19,-263.66 57.77,-256.84"/>
</a>
</g>
</g>
<!-- Node4 -->
<g id="Node000004" class="node">
<title>Node4</title>
<g id="a_Node000004"><a xlink:title=" ">
<polygon fill="#e0e0e0" stroke="#999999" points="1038.5,-19 982.5,-19 982.5,0 1038.5,0 1038.5,-19"/>
<text text-anchor="middle" x="1010.5" y="-7" font-family="Helvetica,sans-Serif" font-size="10.00">sstream</text>
</a>
</g>
</g>
<!-- Node2&#45;&gt;Node4 -->
<g id="edge3_Node000002_Node000004" class="edge">
<title>Node2&#45;&gt;Node4</title>
<g id="a_edge3_Node000002_Node000004"><a xlink:title=" ">
<path fill="none" stroke="#63b8ff" d="M335.82,-301.36C529.65,-290.63 994.5,-258.01 994.5,-192 994.5,-192 994.5,-192 994.5,-129.5 994.5,-93.67 1001.71,-52.31 1006.45,-29"/>
<polygon fill="#63b8ff" stroke="#63b8ff" points="1009.9,-29.61 1008.54,-19.11 1003.05,-28.17 1009.9,-29.61"/>
</a>
</g>
</g>
<!-- Node5 -->
<g id="Node000005" class="node">
<title>Node5</title>
<g id="a_Node000005"><a xlink:title=" ">
<polygon fill="#e0e0e0" stroke="#999999" points="223.5,-79.5 167.5,-79.5 167.5,-60.5 223.5,-60.5 223.5,-79.5"/>
<text text-anchor="middle" x="195.5" y="-67.5" font-family="Helvetica,sans-Serif" font-size="10.00">iomanip</text>
</a>
</g>
</g>
<!-- Node2&#45;&gt;Node5 -->
<g id="edge4_Node000002_Node000005" class="edge">
<title>Node2&#45;&gt;Node5</title>
<g id="a_edge4_Node000002_Node000005"><a xlink:title=" ">
<path fill="none" stroke="#63b8ff" d="M229.64,-296.91C197.11,-283.29 138.72,-253.33 114.5,-206 96.67,-171.16 114.52,-152.68 137.5,-121 147.55,-107.15 162.16,-94.58 174.21,-85.51"/>
<polygon fill="#63b8ff" stroke="#63b8ff" points="176.38,-88.26 182.42,-79.56 172.27,-82.59 176.38,-88.26"/>
</a>
</g>
</g>
<!-- Node6 -->
<g id="Node000006" class="node">
<title>Node6</title>
<g id="a_Node000006"><a xlink:href="element_8h.html" target="_top" xlink:title=" ">
<polygon fill="white" stroke="#666666" points="462.5,-261 396.5,-261 396.5,-242 462.5,-242 462.5,-261"/>
<text text-anchor="middle" x="429.5" y="-249" font-family="Helvetica,sans-Serif" font-size="10.00">element.h</text>
</a>
</g>
</g>
<!-- Node2&#45;&gt;Node6 -->
<g id="edge5_Node000002_Node000006" class="edge">
<title>Node2&#45;&gt;Node6</title>
<g id="a_edge5_Node000002_Node000006"><a xlink:title=" ">
<path fill="none" stroke="#63b8ff" d="M280.94,-296.98C310.78,-288.05 357.88,-273.94 391.03,-264.02"/>
<polygon fill="#63b8ff" stroke="#63b8ff" points="392.26,-267.3 400.84,-261.08 390.26,-260.6 392.26,-267.3"/>
</a>
</g>
</g>
<!-- Node7 -->
<g id="Node000007" class="node">
<title>Node7</title>
<g id="a_Node000007"><a xlink:title=" ">
<polygon fill="#e0e0e0" stroke="#999999" points="964,-19 917,-19 917,0 964,0 964,-19"/>
<text text-anchor="middle" x="940.5" y="-7" font-family="Helvetica,sans-Serif" font-size="10.00">vector</text>
</a>
</g>
</g>
<!-- Node6&#45;&gt;Node7 -->
<g id="edge6_Node000006_Node000007" class="edge">
<title>Node6&#45;&gt;Node7</title>
<g id="a_edge6_Node000006_Node000007"><a xlink:title=" ">
<path fill="none" stroke="#63b8ff" d="M462.57,-248.25C534.25,-243.01 701.68,-228.68 753.5,-206 831.02,-172.07 846.8,-150.4 900.5,-85 914.71,-67.69 926.19,-44.55 933.15,-28.68"/>
<polygon fill="#63b8ff" stroke="#63b8ff" points="936.39,-30 937.05,-19.43 929.94,-27.28 936.39,-30"/>
</a>
</g>
</g>
<!-- Node8 -->
<g id="Node000008" class="node">
<title>Node8</title>
<g id="a_Node000008"><a xlink:title=" ">
<polygon fill="#e0e0e0" stroke="#999999" points="579.5,-19 535.5,-19 535.5,0 579.5,0 579.5,-19"/>
<text text-anchor="middle" x="557.5" y="-7" font-family="Helvetica,sans-Serif" font-size="10.00">string</text>
</a>
</g>
</g>
<!-- Node6&#45;&gt;Node8 -->
<g id="edge7_Node000006_Node000008" class="edge">
<title>Node6&#45;&gt;Node8</title>
<g id="a_edge7_Node000006_Node000008"><a xlink:title=" ">
<path fill="none" stroke="#63b8ff" d="M462.72,-247.6C489.74,-243.29 526.29,-232.58 544.5,-206 561.15,-181.7 540.93,-169.35 538.5,-140 537.8,-131.58 537.78,-129.41 538.5,-121 541.29,-88.3 548.65,-50.74 553.35,-28.91"/>
<polygon fill="#63b8ff" stroke="#63b8ff" points="556.79,-29.55 555.52,-19.03 549.95,-28.04 556.79,-29.55"/>
</a>
</g>
</g>
<!-- Node9 -->
<g id="Node000009" class="node">
<title>Node9</title>
<g id="a_Node000009"><a xlink:title=" ">
<polygon fill="#e0e0e0" stroke="#999999" points="235,-200.5 142,-200.5 142,-181.5 235,-181.5 235,-200.5"/>
<text text-anchor="middle" x="188.5" y="-188.5" font-family="Helvetica,sans-Serif" font-size="10.00">unordered_map</text>
</a>
</g>
</g>
<!-- Node6&#45;&gt;Node9 -->
<g id="edge8_Node000006_Node000009" class="edge">
<title>Node6&#45;&gt;Node9</title>
<g id="a_edge8_Node000006_Node000009"><a xlink:title=" ">
<path fill="none" stroke="#63b8ff" d="M396.39,-242.63C359.36,-233.81 297.6,-219.02 244.5,-206 240.61,-205.05 236.58,-204.05 232.53,-203.05"/>
<polygon fill="#63b8ff" stroke="#63b8ff" points="233.09,-199.58 222.54,-200.56 231.4,-206.37 233.09,-199.58"/>
</a>
</g>
</g>
<!-- Node10 -->
<g id="Node000010" class="node">
<title>Node10</title>
<g id="a_Node000010"><a xlink:title=" ">
<polygon fill="#e0e0e0" stroke="#999999" points="311.5,-200.5 253.5,-200.5 253.5,-181.5 311.5,-181.5 311.5,-200.5"/>
<text text-anchor="middle" x="282.5" y="-188.5" font-family="Helvetica,sans-Serif" font-size="10.00">memory</text>
</a>
</g>
</g>
<!-- Node6&#45;&gt;Node10 -->
<g id="edge9_Node000006_Node000010" class="edge">
<title>Node6&#45;&gt;Node10</title>
<g id="a_edge9_Node000006_Node000010"><a xlink:title=" ">
<path fill="none" stroke="#63b8ff" d="M408.12,-241.99C383.19,-232.07 341.78,-215.59 313.36,-204.28"/>
<polygon fill="#63b8ff" stroke="#63b8ff" points="314.49,-200.96 303.9,-200.52 311.9,-207.47 314.49,-200.96"/>
</a>
</g>
</g>
<!-- Node11 -->
<g id="Node000011" class="node">
<title>Node11</title>
<g id="a_Node000011"><a xlink:title=" ">
<polygon fill="#e0e0e0" stroke="#999999" points="379.5,-200.5 329.5,-200.5 329.5,-181.5 379.5,-181.5 379.5,-200.5"/>
<text text-anchor="middle" x="354.5" y="-188.5" font-family="Helvetica,sans-Serif" font-size="10.00">ranges</text>
</a>
</g>
</g>
<!-- Node6&#45;&gt;Node11 -->
<g id="edge10_Node000006_Node000011" class="edge">
<title>Node6&#45;&gt;Node11</title>
<g id="a_edge10_Node000006_Node000011"><a xlink:title=" ">
<path fill="none" stroke="#63b8ff" d="M418.43,-241.87C406.69,-232.71 387.91,-218.06 373.74,-207.01"/>
<polygon fill="#63b8ff" stroke="#63b8ff" points="375.65,-204.06 365.61,-200.67 371.34,-209.58 375.65,-204.06"/>
</a>
</g>
</g>
<!-- Node12 -->
<g id="Node000012" class="node">
<title>Node12</title>
<g id="a_Node000012"><a xlink:title=" ">
<polygon fill="#e0e0e0" stroke="#999999" points="461.5,-200.5 397.5,-200.5 397.5,-181.5 461.5,-181.5 461.5,-200.5"/>
<text text-anchor="middle" x="429.5" y="-188.5" font-family="Helvetica,sans-Serif" font-size="10.00">algorithm</text>
</a>
</g>
</g>
<!-- Node6&#45;&gt;Node12 -->
<g id="edge11_Node000006_Node000012" class="edge">
<title>Node6&#45;&gt;Node12</title>
<g id="a_edge11_Node000006_Node000012"><a xlink:title=" ">
<path fill="none" stroke="#63b8ff" d="M429.5,-241.87C429.5,-233.75 429.5,-221.31 429.5,-210.89"/>
<polygon fill="#63b8ff" stroke="#63b8ff" points="433,-210.67 429.5,-200.67 426,-210.67 433,-210.67"/>
</a>
</g>
</g>
<!-- Node13 -->
<g id="Node000013" class="node">
<title>Node13</title>
<g id="a_Node000013"><a xlink:title=" ">
<polygon fill="#e0e0e0" stroke="#999999" points="535.5,-200.5 479.5,-200.5 479.5,-181.5 535.5,-181.5 535.5,-200.5"/>
<text text-anchor="middle" x="507.5" y="-188.5" font-family="Helvetica,sans-Serif" font-size="10.00">numeric</text>
</a>
</g>
</g>
<!-- Node6&#45;&gt;Node13 -->
<g id="edge12_Node000006_Node000013" class="edge">
<title>Node6&#45;&gt;Node13</title>
<g id="a_edge12_Node000006_Node000013"><a xlink:title=" ">
<path fill="none" stroke="#63b8ff" d="M441.01,-241.87C453.34,-232.62 473.12,-217.78 487.91,-206.69"/>
<polygon fill="#63b8ff" stroke="#63b8ff" points="490.04,-209.47 495.94,-200.67 485.84,-203.87 490.04,-209.47"/>
</a>
</g>
</g>
<!-- Node14 -->
<g id="Node000014" class="node">
<title>Node14</title>
<g id="a_Node000014"><a xlink:href="exception_8h.html" target="_top" xlink:title=" ">
<polygon fill="white" stroke="#666666" points="491.5,-79.5 361.5,-79.5 361.5,-60.5 491.5,-60.5 491.5,-79.5"/>
<text text-anchor="middle" x="426.5" y="-67.5" font-family="Helvetica,sans-Serif" font-size="10.00">exceptions/exception.h</text>
</a>
</g>
</g>
<!-- Node6&#45;&gt;Node14 -->
<g id="edge13_Node000006_Node000014" class="edge">
<title>Node6&#45;&gt;Node14</title>
<g id="a_edge13_Node000006_Node000014"><a xlink:title=" ">
<path fill="none" stroke="#63b8ff" d="M396.39,-250.71C326.24,-250.37 166.27,-245.21 132.5,-206 65.65,-128.39 243.24,-92.85 350.93,-78.82"/>
<polygon fill="#63b8ff" stroke="#63b8ff" points="351.65,-82.26 361.13,-77.53 350.77,-75.31 351.65,-82.26"/>
</a>
</g>
</g>
<!-- Node17 -->
<g id="Node000017" class="node">
<title>Node17</title>
<g id="a_Node000017"><a xlink:href="logger_8h.html" target="_top" xlink:title=" ">
<polygon fill="white" stroke="#666666" points="793,-140 710,-140 710,-121 793,-121 793,-140"/>
<text text-anchor="middle" x="751.5" y="-128" font-family="Helvetica,sans-Serif" font-size="10.00">tools/logger.h</text>
</a>
</g>
</g>
<!-- Node6&#45;&gt;Node17 -->
<g id="edge17_Node000006_Node000017" class="edge">
<title>Node6&#45;&gt;Node17</title>
<g id="a_edge17_Node000006_Node000017"><a xlink:title=" ">
<path fill="none" stroke="#63b8ff" d="M462.56,-250.12C532.72,-248.62 693.3,-241.33 732.5,-206 747.89,-192.13 751.6,-167.7 752.14,-150.61"/>
<polygon fill="#63b8ff" stroke="#63b8ff" points="755.64,-150.16 752.11,-140.17 748.64,-150.18 755.64,-150.16"/>
</a>
</g>
</g>
<!-- Node25 -->
<g id="Node000025" class="node">
<title>Node25</title>
<g id="a_Node000025"><a xlink:href="element__parameters_8h.html" target="_top" xlink:title=" ">
<polygon fill="white" stroke="#666666" points="723,-206 592,-206 592,-176 723,-176 723,-206"/>
<text text-anchor="start" x="600" y="-194" font-family="Helvetica,sans-Serif" font-size="10.00">element_parameters</text>
<text text-anchor="middle" x="657.5" y="-183" font-family="Helvetica,sans-Serif" font-size="10.00">/element_parameters.h</text>
</a>
</g>
</g>
<!-- Node6&#45;&gt;Node25 -->
<g id="edge32_Node000006_Node000025" class="edge">
<title>Node6&#45;&gt;Node25</title>
<g id="a_edge32_Node000006_Node000025"><a xlink:title=" ">
<path fill="none" stroke="#63b8ff" d="M462.65,-241.99C496.68,-233.26 550.52,-219.45 592.98,-208.55"/>
<polygon fill="#63b8ff" stroke="#63b8ff" points="593.87,-211.94 602.69,-206.06 592.13,-205.16 593.87,-211.94"/>
</a>
</g>
</g>
<!-- Node14&#45;&gt;Node8 -->
<g id="edge16_Node000014_Node000008" class="edge">
<title>Node14&#45;&gt;Node8</title>
<g id="a_edge16_Node000014_Node000008"><a xlink:title=" ">
<path fill="none" stroke="#63b8ff" d="M445.55,-60.49C467.47,-50.7 503.71,-34.52 529,-23.23"/>
<polygon fill="#63b8ff" stroke="#63b8ff" points="530.72,-26.29 538.43,-19.02 527.87,-19.9 530.72,-26.29"/>
</a>
</g>
</g>
<!-- Node15 -->
<g id="Node000015" class="node">
<title>Node15</title>
<g id="a_Node000015"><a xlink:title=" ">
<polygon fill="#e0e0e0" stroke="#999999" points="404.5,-19 354.5,-19 354.5,0 404.5,0 404.5,-19"/>
<text text-anchor="middle" x="379.5" y="-7" font-family="Helvetica,sans-Serif" font-size="10.00">cstdint</text>
</a>
</g>
</g>
<!-- Node14&#45;&gt;Node15 -->
<g id="edge14_Node000014_Node000015" class="edge">
<title>Node14&#45;&gt;Node15</title>
<g id="a_edge14_Node000014_Node000015"><a xlink:title=" ">
<path fill="none" stroke="#63b8ff" d="M419.56,-60.37C412.55,-51.64 401.54,-37.93 392.83,-27.09"/>
<polygon fill="#63b8ff" stroke="#63b8ff" points="395.46,-24.77 386.46,-19.17 390,-29.16 395.46,-24.77"/>
</a>
</g>
</g>
<!-- Node16 -->
<g id="Node000016" class="node">
<title>Node16</title>
<g id="a_Node000016"><a xlink:title=" ">
<polygon fill="#e0e0e0" stroke="#999999" points="488,-19 423,-19 423,0 488,0 488,-19"/>
<text text-anchor="middle" x="455.5" y="-7" font-family="Helvetica,sans-Serif" font-size="10.00">exception</text>
</a>
</g>
</g>
<!-- Node14&#45;&gt;Node16 -->
<g id="edge15_Node000014_Node000016" class="edge">
<title>Node14&#45;&gt;Node16</title>
<g id="a_edge15_Node000014_Node000016"><a xlink:title=" ">
<path fill="none" stroke="#63b8ff" d="M430.78,-60.37C434.93,-51.99 441.37,-39.01 446.63,-28.39"/>
<polygon fill="#63b8ff" stroke="#63b8ff" points="449.9,-29.68 451.2,-19.17 443.63,-26.57 449.9,-29.68"/>
</a>
</g>
</g>
<!-- Node17&#45;&gt;Node5 -->
<g id="edge21_Node000017_Node000005" class="edge">
<title>Node17&#45;&gt;Node5</title>
<g id="a_edge21_Node000017_Node000005"><a xlink:title=" ">
<path fill="none" stroke="#63b8ff" d="M709.71,-125.1C605.31,-114.12 334.31,-85.6 233.77,-75.03"/>
<polygon fill="#63b8ff" stroke="#63b8ff" points="234.06,-71.54 223.75,-73.97 233.33,-78.5 234.06,-71.54"/>
</a>
</g>
</g>
<!-- Node17&#45;&gt;Node8 -->
<g id="edge19_Node000017_Node000008" class="edge">
<title>Node17&#45;&gt;Node8</title>
<g id="a_edge19_Node000017_Node000008"><a xlink:title=" ">
<path fill="none" stroke="#63b8ff" d="M740.38,-120.97C728.7,-112.02 709.8,-97.53 693.5,-85 676.16,-71.68 673.22,-66.3 654.5,-55 633.6,-42.39 608.52,-30.97 589.1,-22.86"/>
<polygon fill="#63b8ff" stroke="#63b8ff" points="590.37,-19.6 579.79,-19.04 587.72,-26.08 590.37,-19.6"/>
</a>
</g>
</g>
<!-- Node17&#45;&gt;Node14 -->
<g id="edge23_Node000017_Node000014" class="edge">
<title>Node17&#45;&gt;Node14</title>
<g id="a_edge23_Node000017_Node000014"><a xlink:title=" ">
<path fill="none" stroke="#63b8ff" d="M709.68,-121.97C652.23,-111.63 548.69,-92.99 483.99,-81.35"/>
<polygon fill="#63b8ff" stroke="#63b8ff" points="484.42,-77.87 473.96,-79.54 483.18,-84.76 484.42,-77.87"/>
</a>
</g>
</g>
<!-- Node18 -->
<g id="Node000018" class="node">
<title>Node18</title>
<g id="a_Node000018"><a xlink:title=" ">
<polygon fill="#e0e0e0" stroke="#999999" points="645.5,-79.5 585.5,-79.5 585.5,-60.5 645.5,-60.5 645.5,-79.5"/>
<text text-anchor="middle" x="615.5" y="-67.5" font-family="Helvetica,sans-Serif" font-size="10.00">iostream</text>
</a>
</g>
</g>
<!-- Node17&#45;&gt;Node18 -->
<g id="edge18_Node000017_Node000018" class="edge">
<title>Node17&#45;&gt;Node18</title>
<g id="a_edge18_Node000017_Node000018"><a xlink:title=" ">
<path fill="none" stroke="#63b8ff" d="M731.72,-120.99C708.86,-111.16 671.01,-94.88 644.74,-83.58"/>
<polygon fill="#63b8ff" stroke="#63b8ff" points="645.87,-80.25 635.3,-79.52 643.1,-86.68 645.87,-80.25"/>
</a>
</g>
</g>
<!-- Node19 -->
<g id="Node000019" class="node">
<title>Node19</title>
<g id="a_Node000019"><a xlink:title=" ">
<polygon fill="#e0e0e0" stroke="#999999" points="898.5,-19 848.5,-19 848.5,0 898.5,0 898.5,-19"/>
<text text-anchor="middle" x="873.5" y="-7" font-family="Helvetica,sans-Serif" font-size="10.00">chrono</text>
</a>
</g>
</g>
<!-- Node17&#45;&gt;Node19 -->
<g id="edge20_Node000017_Node000019" class="edge">
<title>Node17&#45;&gt;Node19</title>
<g id="a_edge20_Node000017_Node000019"><a xlink:title=" ">
<path fill="none" stroke="#63b8ff" d="M793.21,-127.68C823.69,-123.9 863.12,-113.38 883.5,-85 895.24,-68.65 889.21,-44.97 882.55,-28.71"/>
<polygon fill="#63b8ff" stroke="#63b8ff" points="885.58,-26.92 878.27,-19.26 879.21,-29.81 885.58,-26.92"/>
</a>
</g>
</g>
<!-- Node20 -->
<g id="Node000020" class="node">
<title>Node20</title>
<g id="a_Node000020"><a xlink:title=" ">
<polygon fill="#e0e0e0" stroke="#999999" points="809,-85 702,-85 702,-55 809,-55 809,-85"/>
<text text-anchor="start" x="710" y="-73" font-family="Helvetica,sans-Serif" font-size="10.00">imgui&#45;platform&#45;kit</text>
<text text-anchor="middle" x="755.5" y="-62" font-family="Helvetica,sans-Serif" font-size="10.00">/log_window.h</text>
</a>
</g>
</g>
<!-- Node17&#45;&gt;Node20 -->
<g id="edge22_Node000017_Node000020" class="edge">
<title>Node17&#45;&gt;Node20</title>
<g id="a_edge22_Node000017_Node000020"><a xlink:title=" ">
<path fill="none" stroke="#63b8ff" d="M752.09,-120.87C752.55,-114.11 753.22,-104.35 753.84,-95.26"/>
<polygon fill="#63b8ff" stroke="#63b8ff" points="757.34,-95.33 754.53,-85.11 750.36,-94.85 757.34,-95.33"/>
</a>
</g>
</g>
<!-- Node21 -->
<g id="Node000021" class="node">
<title>Node21</title>
<g id="a_Node000021"><a xlink:href="utils_8h.html" target="_top" xlink:title=" ">
<polygon fill="white" stroke="#666666" points="874,-79.5 827,-79.5 827,-60.5 874,-60.5 874,-79.5"/>
<text text-anchor="middle" x="850.5" y="-67.5" font-family="Helvetica,sans-Serif" font-size="10.00">utils.h</text>
</a>
</g>
</g>
<!-- Node17&#45;&gt;Node21 -->
<g id="edge24_Node000017_Node000021" class="edge">
<title>Node17&#45;&gt;Node21</title>
<g id="a_edge24_Node000017_Node000021"><a xlink:title=" ">
<path fill="none" stroke="#63b8ff" d="M766.11,-120.87C782.19,-111.36 808.28,-95.95 827.2,-84.77"/>
<polygon fill="#63b8ff" stroke="#63b8ff" points="829,-87.77 835.83,-79.67 825.44,-81.74 829,-87.77"/>
</a>
</g>
</g>
<!-- Node21&#45;&gt;Node4 -->
<g id="edge28_Node000021_Node000004" class="edge">
<title>Node21&#45;&gt;Node4</title>
<g id="a_edge28_Node000021_Node000004"><a xlink:title=" ">
<path fill="none" stroke="#63b8ff" d="M873.77,-60.49C901.14,-50.49 946.77,-33.8 977.72,-22.49"/>
<polygon fill="#63b8ff" stroke="#63b8ff" points="979.02,-25.74 987.21,-19.02 976.61,-19.16 979.02,-25.74"/>
</a>
</g>
</g>
<!-- Node21&#45;&gt;Node7 -->
<g id="edge26_Node000021_Node000007" class="edge">
<title>Node21&#45;&gt;Node7</title>
<g id="a_edge26_Node000021_Node000007"><a xlink:title=" ">
<path fill="none" stroke="#63b8ff" d="M863.78,-60.37C878.14,-51.04 901.26,-36.01 918.37,-24.88"/>
<polygon fill="#63b8ff" stroke="#63b8ff" points="920.69,-27.55 927.17,-19.17 916.87,-21.68 920.69,-27.55"/>
</a>
</g>
</g>
<!-- Node21&#45;&gt;Node8 -->
<g id="edge25_Node000021_Node000008" class="edge">
<title>Node21&#45;&gt;Node8</title>
<g id="a_edge25_Node000021_Node000008"><a xlink:title=" ">
<path fill="none" stroke="#63b8ff" d="M832.85,-60.36C828.26,-58.37 823.26,-56.42 818.5,-55 817.81,-54.79 659.3,-27.82 589.67,-15.97"/>
<polygon fill="#63b8ff" stroke="#63b8ff" points="590.13,-12.5 579.68,-14.27 588.95,-19.4 590.13,-12.5"/>
</a>
</g>
</g>
<!-- Node21&#45;&gt;Node19 -->
<g id="edge30_Node000021_Node000019" class="edge">
<title>Node21&#45;&gt;Node19</title>
<g id="a_edge30_Node000021_Node000019"><a xlink:title=" ">
<path fill="none" stroke="#63b8ff" d="M853.89,-60.37C857.16,-52.07 862.19,-39.28 866.34,-28.72"/>
<polygon fill="#63b8ff" stroke="#63b8ff" points="869.69,-29.75 870.09,-19.17 863.18,-27.19 869.69,-29.75"/>
</a>
</g>
</g>
<!-- Node22 -->
<g id="Node000022" class="node">
<title>Node22</title>
<g id="a_Node000022"><a xlink:title=" ">
<polygon fill="#e0e0e0" stroke="#999999" points="756.5,-19 702.5,-19 702.5,0 756.5,0 756.5,-19"/>
<text text-anchor="middle" x="729.5" y="-7" font-family="Helvetica,sans-Serif" font-size="10.00">random</text>
</a>
</g>
</g>
<!-- Node21&#45;&gt;Node22 -->
<g id="edge27_Node000021_Node000022" class="edge">
<title>Node21&#45;&gt;Node22</title>
<g id="a_edge27_Node000021_Node000022"><a xlink:title=" ">
<path fill="none" stroke="#63b8ff" d="M832.91,-60.49C812.74,-50.75 779.48,-34.66 756.14,-23.38"/>
<polygon fill="#63b8ff" stroke="#63b8ff" points="757.64,-20.22 747.12,-19.02 754.6,-26.52 757.64,-20.22"/>
</a>
</g>
</g>
<!-- Node23 -->
<g id="Node000023" class="node">
<title>Node23</title>
<g id="a_Node000023"><a xlink:title=" ">
<polygon fill="#e0e0e0" stroke="#999999" points="830,-19 775,-19 775,0 830,0 830,-19"/>
<text text-anchor="middle" x="802.5" y="-7" font-family="Helvetica,sans-Serif" font-size="10.00">fstream</text>
</a>
</g>
</g>
<!-- Node21&#45;&gt;Node23 -->
<g id="edge29_Node000021_Node000023" class="edge">
<title>Node21&#45;&gt;Node23</title>
<g id="a_edge29_Node000021_Node000023"><a xlink:title=" ">
<path fill="none" stroke="#63b8ff" d="M843.42,-60.37C836.26,-51.64 825.01,-37.93 816.11,-27.09"/>
<polygon fill="#63b8ff" stroke="#63b8ff" points="818.66,-24.68 809.61,-19.17 813.25,-29.12 818.66,-24.68"/>
</a>
</g>
</g>
<!-- Node24 -->
<g id="Node000024" class="node">
<title>Node24</title>
<g id="a_Node000024"><a xlink:title=" ">
<polygon fill="#e0e0e0" stroke="#999999" points="684.5,-19 616.5,-19 616.5,0 684.5,0 684.5,-19"/>
<text text-anchor="middle" x="650.5" y="-7" font-family="Helvetica,sans-Serif" font-size="10.00">filesystem</text>
</a>
</g>
</g>
<!-- Node21&#45;&gt;Node24 -->
<g id="edge31_Node000021_Node000024" class="edge">
<title>Node21&#45;&gt;Node24</title>
<g id="a_edge31_Node000021_Node000024"><a xlink:title=" ">
<path fill="none" stroke="#63b8ff" d="M832.08,-60.37C827.68,-58.47 822.97,-56.56 818.5,-55 777.32,-40.63 729.08,-28.3 694.89,-20.29"/>
<polygon fill="#63b8ff" stroke="#63b8ff" points="695.28,-16.79 684.75,-17.94 693.7,-23.61 695.28,-16.79"/>
</a>
</g>
</g>
<!-- Node25&#45;&gt;Node8 -->
<g id="edge34_Node000025_Node000008" class="edge">
<title>Node25&#45;&gt;Node8</title>
<g id="a_edge34_Node000025_Node000008"><a xlink:title=" ">
<path fill="none" stroke="#63b8ff" d="M663.29,-175.75C668.35,-160.82 673.35,-137.3 662.5,-121 639.54,-86.5 603.57,-116.37 576.5,-85 563.18,-69.56 558.99,-46.03 557.78,-29.55"/>
<polygon fill="#63b8ff" stroke="#63b8ff" points="561.27,-29.29 557.34,-19.46 554.28,-29.6 561.27,-29.29"/>
</a>
</g>
</g>
<!-- Node25&#45;&gt;Node17 -->
<g id="edge36_Node000025_Node000017" class="edge">
<title>Node25&#45;&gt;Node17</title>
<g id="a_edge36_Node000025_Node000017"><a xlink:title=" ">
<path fill="none" stroke="#63b8ff" d="M680.25,-175.84C695.1,-166.6 714.4,-154.59 729.16,-145.4"/>
<polygon fill="#63b8ff" stroke="#63b8ff" points="731.05,-148.35 737.69,-140.09 727.35,-142.41 731.05,-148.35"/>
</a>
</g>
</g>
<!-- Node26 -->
<g id="Node000026" class="node">
<title>Node26</title>
<g id="a_Node000026"><a xlink:title=" ">
<polygon fill="#e0e0e0" stroke="#999999" points="585.5,-140 547.5,-140 547.5,-121 585.5,-121 585.5,-140"/>
<text text-anchor="middle" x="566.5" y="-128" font-family="Helvetica,sans-Serif" font-size="10.00">map</text>
</a>
</g>
</g>
<!-- Node25&#45;&gt;Node26 -->
<g id="edge33_Node000025_Node000026" class="edge">
<title>Node25&#45;&gt;Node26</title>
<g id="a_edge33_Node000025_Node000026"><a xlink:title=" ">
<path fill="none" stroke="#63b8ff" d="M635.47,-175.84C621.23,-166.68 602.77,-154.82 588.53,-145.66"/>
<polygon fill="#63b8ff" stroke="#63b8ff" points="590.17,-142.56 579.87,-140.09 586.39,-148.45 590.17,-142.56"/>
</a>
</g>
</g>
<!-- Node27 -->
<g id="Node000027" class="node">
<title>Node27</title>
<g id="a_Node000027"><a xlink:title=" ">
<polygon fill="#e0e0e0" stroke="#999999" points="653.5,-140 603.5,-140 603.5,-121 653.5,-121 653.5,-140"/>
<text text-anchor="middle" x="628.5" y="-128" font-family="Helvetica,sans-Serif" font-size="10.00">format</text>
</a>
</g>
</g>
<!-- Node25&#45;&gt;Node27 -->
<g id="edge35_Node000025_Node000027" class="edge">
<title>Node25&#45;&gt;Node27</title>
<g id="a_edge35_Node000025_Node000027"><a xlink:title=" ">
<path fill="none" stroke="#63b8ff" d="M650.48,-175.84C646.53,-167.87 641.56,-157.84 637.34,-149.33"/>
<polygon fill="#63b8ff" stroke="#63b8ff" points="640.42,-147.67 632.85,-140.27 634.15,-150.78 640.42,-147.67"/>
</a>
</g>
</g>
</g>
</svg>
