<?xml version="1.0" encoding="UTF-8" standalone="no"?>
<!DOCTYPE svg PUBLIC "-//W3C//DTD SVG 1.1//EN"
 "http://www.w3.org/Graphics/SVG/1.1/DTD/svg11.dtd">
<!-- Generated by graphviz version 2.43.0 (0)
 -->
<!-- Title: src/user_interface/node_utilities/builders.cpp Pages: 1 -->
<svg width="644pt" height="280pt"
 viewBox="0.00 0.00 644.00 280.00" xmlns="http://www.w3.org/2000/svg" xmlns:xlink="http://www.w3.org/1999/xlink">
<g id="graph0" class="graph" transform="scale(1 1) rotate(0) translate(4 276)">
<title>src/user_interface/node_utilities/builders.cpp</title>
<!-- Node1 -->
<g id="Node000001" class="node">
<title>Node1</title>
<g id="a_Node000001"><a xlink:title=" ">
<polygon fill="#999999" stroke="#666666" points="423.5,-272 275.5,-272 275.5,-242 423.5,-242 423.5,-272"/>
<text text-anchor="start" x="283.5" y="-260" font-family="Helvetica,sans-Serif" font-size="10.00">src/user_interface</text>
<text text-anchor="middle" x="349.5" y="-249" font-family="Helvetica,sans-Serif" font-size="10.00">/node_utilities/builders.cpp</text>
</a>
</g>
</g>
<!-- Node2 -->
<g id="Node000002" class="node">
<title>Node2</title>
<g id="a_Node000002"><a xlink:href="builders_8h.html" target="_top" xlink:title=" ">
<polygon fill="white" stroke="#666666" points="358,-206 245,-206 245,-176 358,-176 358,-206"/>
<text text-anchor="start" x="253" y="-194" font-family="Helvetica,sans-Serif" font-size="10.00">user_interface/node</text>
<text text-anchor="middle" x="301.5" y="-183" font-family="Helvetica,sans-Serif" font-size="10.00">_utilities/builders.h</text>
</a>
</g>
</g>
<!-- Node1&#45;&gt;Node2 -->
<g id="edge1_Node000001_Node000002" class="edge">
<title>Node1&#45;&gt;Node2</title>
<g id="a_edge1_Node000001_Node000002"><a xlink:title=" ">
<path fill="none" stroke="#63b8ff" d="M338.85,-241.8C332.82,-233.76 325.14,-223.53 318.32,-214.43"/>
<polygon fill="#63b8ff" stroke="#63b8ff" points="320.92,-212.06 312.12,-206.16 315.32,-216.26 320.92,-212.06"/>
</a>
</g>
</g>
<!-- Node6 -->
<g id="Node000006" class="node">
<title>Node6</title>
<g id="a_Node000006"><a xlink:title=" ">
<polygon fill="#e0e0e0" stroke="#999999" points="454.5,-74 358.5,-74 358.5,-55 454.5,-55 454.5,-74"/>
<text text-anchor="middle" x="406.5" y="-62" font-family="Helvetica,sans-Serif" font-size="10.00">imgui_internal.h</text>
</a>
</g>
</g>
<!-- Node1&#45;&gt;Node6 -->
<g id="edge17_Node000001_Node000006" class="edge">
<title>Node1&#45;&gt;Node6</title>
<g id="a_edge17_Node000001_Node000006"><a xlink:title=" ">
<path fill="none" stroke="#63b8ff" d="M354.99,-241.66C358.71,-231.71 363.64,-218.13 367.5,-206 381.27,-162.73 394.89,-111.12 401.81,-84.1"/>
<polygon fill="#63b8ff" stroke="#63b8ff" points="405.28,-84.67 404.35,-74.12 398.49,-82.95 405.28,-84.67"/>
</a>
</g>
</g>
<!-- Node3 -->
<g id="Node000003" class="node">
<title>Node3</title>
<g id="a_Node000003"><a xlink:title=" ">
<polygon fill="#e0e0e0" stroke="#999999" points="214.5,-140 74.5,-140 74.5,-110 214.5,-110 214.5,-140"/>
<text text-anchor="start" x="82.5" y="-128" font-family="Helvetica,sans-Serif" font-size="10.00">imgui&#45;platform&#45;kit</text>
<text text-anchor="middle" x="144.5" y="-117" font-family="Helvetica,sans-Serif" font-size="10.00">/user_interface_window.h</text>
</a>
</g>
</g>
<!-- Node2&#45;&gt;Node3 -->
<g id="edge2_Node000002_Node000003" class="edge">
<title>Node2&#45;&gt;Node3</title>
<g id="a_edge2_Node000002_Node000003"><a xlink:title=" ">
<path fill="none" stroke="#63b8ff" d="M267.05,-175.95C243.94,-166.53 213.3,-154.04 188.44,-143.91"/>
<polygon fill="#63b8ff" stroke="#63b8ff" points="189.46,-140.55 178.87,-140.01 186.81,-147.03 189.46,-140.55"/>
</a>
</g>
</g>
<!-- Node4 -->
<g id="Node000004" class="node">
<title>Node4</title>
<g id="a_Node000004"><a xlink:href="widgets_8h.html" target="_top" xlink:title=" ">
<polygon fill="white" stroke="#666666" points="370,-134.5 233,-134.5 233,-115.5 370,-115.5 370,-134.5"/>
<text text-anchor="middle" x="301.5" y="-122.5" font-family="Helvetica,sans-Serif" font-size="10.00">user_interface/widgets.h</text>
</a>
</g>
</g>
<!-- Node2&#45;&gt;Node4 -->
<g id="edge3_Node000002_Node000004" class="edge">
<title>Node2&#45;&gt;Node4</title>
<g id="a_edge3_Node000002_Node000004"><a xlink:title=" ">
<path fill="none" stroke="#63b8ff" d="M301.5,-175.8C301.5,-166.7 301.5,-154.79 301.5,-144.9"/>
<polygon fill="#63b8ff" stroke="#63b8ff" points="305,-144.84 301.5,-134.84 298,-144.84 305,-144.84"/>
</a>
</g>
</g>
<!-- Node5 -->
<g id="Node000005" class="node">
<title>Node5</title>
<g id="a_Node000005"><a xlink:title=" ">
<polygon fill="#e0e0e0" stroke="#999999" points="169,-74 116,-74 116,-55 169,-55 169,-74"/>
<text text-anchor="middle" x="142.5" y="-62" font-family="Helvetica,sans-Serif" font-size="10.00">imgui.h</text>
</a>
</g>
</g>
<!-- Node4&#45;&gt;Node5 -->
<g id="edge4_Node000004_Node000005" class="edge">
<title>Node4&#45;&gt;Node5</title>
<g id="a_edge4_Node000004_Node000005"><a xlink:title=" ">
<path fill="none" stroke="#63b8ff" d="M278.38,-115.49C251.18,-105.49 205.83,-88.8 175.08,-77.49"/>
<polygon fill="#63b8ff" stroke="#63b8ff" points="176.24,-74.18 165.65,-74.02 173.82,-80.75 176.24,-74.18"/>
</a>
</g>
</g>
<!-- Node4&#45;&gt;Node6 -->
<g id="edge5_Node000004_Node000006" class="edge">
<title>Node4&#45;&gt;Node6</title>
<g id="a_edge5_Node000004_Node000006"><a xlink:title=" ">
<path fill="none" stroke="#63b8ff" d="M316.99,-115.37C334.13,-105.82 361.97,-90.31 382.06,-79.12"/>
<polygon fill="#63b8ff" stroke="#63b8ff" points="383.91,-82.09 390.94,-74.17 380.5,-75.98 383.91,-82.09"/>
</a>
</g>
</g>
<!-- Node7 -->
<g id="Node000007" class="node">
<title>Node7</title>
<g id="a_Node000007"><a xlink:title=" ">
<polygon fill="#e0e0e0" stroke="#999999" points="244,-74 187,-74 187,-55 244,-55 244,-74"/>
<text text-anchor="middle" x="215.5" y="-62" font-family="Helvetica,sans-Serif" font-size="10.00">implot.h</text>
</a>
</g>
</g>
<!-- Node4&#45;&gt;Node7 -->
<g id="edge6_Node000004_Node000007" class="edge">
<title>Node4&#45;&gt;Node7</title>
<g id="a_edge6_Node000004_Node000007"><a xlink:title=" ">
<path fill="none" stroke="#63b8ff" d="M288.81,-115.37C275.09,-106.04 253,-91.01 236.65,-79.88"/>
<polygon fill="#63b8ff" stroke="#63b8ff" points="238.48,-76.9 228.24,-74.17 234.54,-82.69 238.48,-76.9"/>
</a>
</g>
</g>
<!-- Node8 -->
<g id="Node000008" class="node">
<title>Node8</title>
<g id="a_Node000008"><a xlink:href="math_8h.html" target="_top" xlink:title=" ">
<polygon fill="white" stroke="#666666" points="340.5,-74 262.5,-74 262.5,-55 340.5,-55 340.5,-74"/>
<text text-anchor="middle" x="301.5" y="-62" font-family="Helvetica,sans-Serif" font-size="10.00">tools/math.h</text>
</a>
</g>
</g>
<!-- Node4&#45;&gt;Node8 -->
<g id="edge7_Node000004_Node000008" class="edge">
<title>Node4&#45;&gt;Node8</title>
<g id="a_edge7_Node000004_Node000008"><a xlink:title=" ">
<path fill="none" stroke="#63b8ff" d="M301.5,-115.37C301.5,-107.25 301.5,-94.81 301.5,-84.39"/>
<polygon fill="#63b8ff" stroke="#63b8ff" points="305,-84.17 301.5,-74.17 298,-84.17 305,-84.17"/>
</a>
</g>
</g>
<!-- Node9 -->
<g id="Node000009" class="node">
<title>Node9</title>
<g id="a_Node000009"><a xlink:title=" ">
<polygon fill="#e0e0e0" stroke="#999999" points="47,-19 0,-19 0,0 47,0 47,-19"/>
<text text-anchor="middle" x="23.5" y="-7" font-family="Helvetica,sans-Serif" font-size="10.00">vector</text>
</a>
</g>
</g>
<!-- Node8&#45;&gt;Node9 -->
<g id="edge8_Node000008_Node000009" class="edge">
<title>Node8&#45;&gt;Node9</title>
<g id="a_edge8_Node000008_Node000009"><a xlink:title=" ">
<path fill="none" stroke="#63b8ff" d="M262.26,-56.53C203.95,-46.16 97.71,-27.17 57.21,-18.94"/>
<polygon fill="#63b8ff" stroke="#63b8ff" points="57.75,-15.48 47.24,-16.83 56.3,-22.33 57.75,-15.48"/>
</a>
</g>
</g>
<!-- Node10 -->
<g id="Node000010" class="node">
<title>Node10</title>
<g id="a_Node000010"><a xlink:title=" ">
<polygon fill="#e0e0e0" stroke="#999999" points="107.5,-19 65.5,-19 65.5,0 107.5,0 107.5,-19"/>
<text text-anchor="middle" x="86.5" y="-7" font-family="Helvetica,sans-Serif" font-size="10.00">array</text>
</a>
</g>
</g>
<!-- Node8&#45;&gt;Node10 -->
<g id="edge9_Node000008_Node000010" class="edge">
<title>Node8&#45;&gt;Node10</title>
<g id="a_edge9_Node000008_Node000010"><a xlink:title=" ">
<path fill="none" stroke="#63b8ff" d="M264.18,-54.99C228.79,-46.81 173.89,-33.86 117.56,-19.2"/>
<polygon fill="#63b8ff" stroke="#63b8ff" points="118.34,-15.79 107.78,-16.64 116.56,-22.56 118.34,-15.79"/>
</a>
</g>
</g>
<!-- Node11 -->
<g id="Node000011" class="node">
<title>Node11</title>
<g id="a_Node000011"><a xlink:title=" ">
<polygon fill="#e0e0e0" stroke="#999999" points="173,-19 126,-19 126,0 173,0 173,-19"/>
<text text-anchor="middle" x="149.5" y="-7" font-family="Helvetica,sans-Serif" font-size="10.00">cmath</text>
</a>
</g>
</g>
<!-- Node8&#45;&gt;Node11 -->
<g id="edge10_Node000008_Node000011" class="edge">
<title>Node8&#45;&gt;Node11</title>
<g id="a_edge10_Node000008_Node000011"><a xlink:title=" ">
<path fill="none" stroke="#63b8ff" d="M277.08,-54.98C251.56,-46.09 211.34,-32.06 182.89,-22.14"/>
<polygon fill="#63b8ff" stroke="#63b8ff" points="183.95,-18.81 173.36,-18.82 181.65,-25.42 183.95,-18.81"/>
</a>
</g>
</g>
<!-- Node12 -->
<g id="Node000012" class="node">
<title>Node12</title>
<g id="a_Node000012"><a xlink:title=" ">
<polygon fill="#e0e0e0" stroke="#999999" points="255.5,-19 191.5,-19 191.5,0 255.5,0 255.5,-19"/>
<text text-anchor="middle" x="223.5" y="-7" font-family="Helvetica,sans-Serif" font-size="10.00">algorithm</text>
</a>
</g>
</g>
<!-- Node8&#45;&gt;Node12 -->
<g id="edge11_Node000008_Node000012" class="edge">
<title>Node8&#45;&gt;Node12</title>
<g id="a_edge11_Node000008_Node000012"><a xlink:title=" ">
<path fill="none" stroke="#63b8ff" d="M288.97,-54.98C277.1,-46.92 259.04,-34.65 244.89,-25.03"/>
<polygon fill="#63b8ff" stroke="#63b8ff" points="246.5,-21.9 236.26,-19.17 242.56,-27.69 246.5,-21.9"/>
</a>
</g>
</g>
<!-- Node13 -->
<g id="Node000013" class="node">
<title>Node13</title>
<g id="a_Node000013"><a xlink:title=" ">
<polygon fill="#e0e0e0" stroke="#999999" points="329.5,-19 273.5,-19 273.5,0 329.5,0 329.5,-19"/>
<text text-anchor="middle" x="301.5" y="-7" font-family="Helvetica,sans-Serif" font-size="10.00">numeric</text>
</a>
</g>
</g>
<!-- Node8&#45;&gt;Node13 -->
<g id="edge12_Node000008_Node000013" class="edge">
<title>Node8&#45;&gt;Node13</title>
<g id="a_edge12_Node000008_Node000013"><a xlink:title=" ">
<path fill="none" stroke="#63b8ff" d="M301.5,-54.75C301.5,-47.8 301.5,-37.85 301.5,-29.13"/>
<polygon fill="#63b8ff" stroke="#63b8ff" points="305,-29.09 301.5,-19.09 298,-29.09 305,-29.09"/>
</a>
</g>
</g>
<!-- Node14 -->
<g id="Node000014" class="node">
<title>Node14</title>
<g id="a_Node000014"><a xlink:title=" ">
<polygon fill="#e0e0e0" stroke="#999999" points="413,-19 348,-19 348,0 413,0 413,-19"/>
<text text-anchor="middle" x="380.5" y="-7" font-family="Helvetica,sans-Serif" font-size="10.00">functional</text>
</a>
</g>
</g>
<!-- Node8&#45;&gt;Node14 -->
<g id="edge13_Node000008_Node000014" class="edge">
<title>Node8&#45;&gt;Node14</title>
<g id="a_edge13_Node000008_Node000014"><a xlink:title=" ">
<path fill="none" stroke="#63b8ff" d="M314.19,-54.98C326.33,-46.84 344.86,-34.41 359.25,-24.76"/>
<polygon fill="#63b8ff" stroke="#63b8ff" points="361.22,-27.65 367.58,-19.17 357.32,-21.84 361.22,-27.65"/>
</a>
</g>
</g>
<!-- Node15 -->
<g id="Node000015" class="node">
<title>Node15</title>
<g id="a_Node000015"><a xlink:title=" ">
<polygon fill="#e0e0e0" stroke="#999999" points="485.5,-19 431.5,-19 431.5,0 485.5,0 485.5,-19"/>
<text text-anchor="middle" x="458.5" y="-7" font-family="Helvetica,sans-Serif" font-size="10.00">random</text>
</a>
</g>
</g>
<!-- Node8&#45;&gt;Node15 -->
<g id="edge14_Node000008_Node000015" class="edge">
<title>Node8&#45;&gt;Node15</title>
<g id="a_edge14_Node000008_Node000015"><a xlink:title=" ">
<path fill="none" stroke="#63b8ff" d="M326.72,-54.98C352.86,-46.16 393.9,-32.31 423.23,-22.41"/>
<polygon fill="#63b8ff" stroke="#63b8ff" points="424.72,-25.6 433.08,-19.08 422.48,-18.96 424.72,-25.6"/>
</a>
</g>
</g>
<!-- Node16 -->
<g id="Node000016" class="node">
<title>Node16</title>
<g id="a_Node000016"><a xlink:title=" ">
<polygon fill="#e0e0e0" stroke="#999999" points="563,-19 504,-19 504,0 563,0 563,-19"/>
<text text-anchor="middle" x="533.5" y="-7" font-family="Helvetica,sans-Serif" font-size="10.00">numbers</text>
</a>
</g>
</g>
<!-- Node8&#45;&gt;Node16 -->
<g id="edge15_Node000008_Node000016" class="edge">
<title>Node8&#45;&gt;Node16</title>
<g id="a_edge15_Node000008_Node000016"><a xlink:title=" ">
<path fill="none" stroke="#63b8ff" d="M338.77,-54.98C381.23,-45.29 450.31,-29.5 493.76,-19.58"/>
<polygon fill="#63b8ff" stroke="#63b8ff" points="494.72,-22.95 503.69,-17.31 493.16,-16.12 494.72,-22.95"/>
</a>
</g>
</g>
<!-- Node17 -->
<g id="Node000017" class="node">
<title>Node17</title>
<g id="a_Node000017"><a xlink:title=" ">
<polygon fill="#e0e0e0" stroke="#999999" points="636,-19 581,-19 581,0 636,0 636,-19"/>
<text text-anchor="middle" x="608.5" y="-7" font-family="Helvetica,sans-Serif" font-size="10.00">fstream</text>
</a>
</g>
</g>
<!-- Node8&#45;&gt;Node17 -->
<g id="edge16_Node000008_Node000017" class="edge">
<title>Node8&#45;&gt;Node17</title>
<g id="a_edge16_Node000008_Node000017"><a xlink:title=" ">
<path fill="none" stroke="#63b8ff" d="M340.52,-56.54C343.56,-56.01 346.58,-55.49 349.5,-55 445.3,-38.79 472.3,-38.55 570.58,-19.28"/>
<polygon fill="#63b8ff" stroke="#63b8ff" points="571.5,-22.66 580.64,-17.29 570.15,-15.79 571.5,-22.66"/>
</a>
</g>
</g>
</g>
</svg>
