<?xml version="1.0" encoding="UTF-8" standalone="no"?>
<!DOCTYPE svg PUBLIC "-//W3C//DTD SVG 1.1//EN"
 "http://www.w3.org/Graphics/SVG/1.1/DTD/svg11.dtd">
<!-- Generated by graphviz version 2.43.0 (0)
 -->
<!-- Title: dnf_composer::element::Element::updateInput Pages: 1 -->
<svg width="554pt" height="422pt"
 viewBox="0.00 0.00 554.00 422.00" xmlns="http://www.w3.org/2000/svg" xmlns:xlink="http://www.w3.org/1999/xlink">
<g id="graph0" class="graph" transform="scale(1 1) rotate(0) translate(4 418)">
<title>dnf_composer::element::Element::updateInput</title>
<!-- Node1 -->
<g id="Node000001" class="node">
<title>Node1</title>
<g id="a_Node000001"><a xlink:title="Pull data from all registered input elements into this element&#39;s components.">
<polygon fill="#999999" stroke="#666666" points="546,-222 414,-222 414,-192 546,-192 546,-222"/>
<text text-anchor="start" x="422" y="-210" font-family="Helvetica,sans-Serif" font-size="10.00">dnf_composer::element</text>
<text text-anchor="middle" x="480" y="-199" font-family="Helvetica,sans-Serif" font-size="10.00">::Element::updateInput</text>
</a>
</g>
</g>
<!-- Node2 -->
<g id="Node000002" class="node">
<title>Node2</title>
<g id="a_Node000002"><a xlink:href="classdnf__composer_1_1element_1_1GaussStimulus.html#a3677ed68684c7cd362e7e54f42fafb06" target="_top" xlink:title="Initialize the element (called once before the simulation loop).">
<polygon fill="white" stroke="#666666" points="359,-414 227,-414 227,-384 359,-384 359,-414"/>
<text text-anchor="start" x="235" y="-402" font-family="Helvetica,sans-Serif" font-size="10.00">dnf_composer::element</text>
<text text-anchor="middle" x="293" y="-391" font-family="Helvetica,sans-Serif" font-size="10.00">::GaussStimulus::init</text>
</a>
</g>
</g>
<!-- Node1&#45;&gt;Node2 -->
<g id="edge1_Node000001_Node000002" class="edge">
<title>Node1&#45;&gt;Node2</title>
<g id="a_edge1_Node000001_Node000002"><a xlink:title=" ">
<path fill="none" stroke="#63b8ff" d="M470.86,-231.61C457.44,-268.38 427.13,-337.35 378,-375 372.34,-379.34 365.93,-382.89 359.23,-385.8"/>
<polygon fill="#63b8ff" stroke="#63b8ff" points="474.17,-232.75 474.2,-222.15 467.57,-230.42 474.17,-232.75"/>
</a>
</g>
</g>
<!-- Node4 -->
<g id="Node000004" class="node">
<title>Node4</title>
<g id="a_Node000004"><a xlink:href="classdnf__composer_1_1element_1_1AsymmetricGaussKernel.html#afa45a45ca8acb0432937de3b1563ba82" target="_top" xlink:title="Advance the element by one time step.">
<polygon fill="white" stroke="#666666" points="378,-366 208,-366 208,-336 378,-336 378,-366"/>
<text text-anchor="start" x="216" y="-354" font-family="Helvetica,sans-Serif" font-size="10.00">dnf_composer::element</text>
<text text-anchor="middle" x="293" y="-343" font-family="Helvetica,sans-Serif" font-size="10.00">::AsymmetricGaussKernel::step</text>
</a>
</g>
</g>
<!-- Node1&#45;&gt;Node4 -->
<g id="edge3_Node000001_Node000004" class="edge">
<title>Node1&#45;&gt;Node4</title>
<g id="a_edge3_Node000001_Node000004"><a xlink:title=" ">
<path fill="none" stroke="#63b8ff" d="M465.07,-230.89C447.96,-258.13 416.44,-302.11 378,-327 372.65,-330.46 366.8,-333.44 360.75,-335.99"/>
<polygon fill="#63b8ff" stroke="#63b8ff" points="468.27,-232.37 470.5,-222.01 462.3,-228.71 468.27,-232.37"/>
</a>
</g>
</g>
<!-- Node5 -->
<g id="Node000005" class="node">
<title>Node5</title>
<g id="a_Node000005"><a xlink:href="classdnf__composer_1_1element_1_1FieldCoupling.html#ae0215c3f9b5ebe1030429c427cf6d8bf" target="_top" xlink:title="Advance the element by one time step.">
<polygon fill="white" stroke="#666666" points="359,-318 227,-318 227,-288 359,-288 359,-318"/>
<text text-anchor="start" x="235" y="-306" font-family="Helvetica,sans-Serif" font-size="10.00">dnf_composer::element</text>
<text text-anchor="middle" x="293" y="-295" font-family="Helvetica,sans-Serif" font-size="10.00">::FieldCoupling::step</text>
</a>
</g>
</g>
<!-- Node1&#45;&gt;Node5 -->
<g id="edge4_Node000001_Node000005" class="edge">
<title>Node1&#45;&gt;Node5</title>
<g id="a_edge4_Node000001_Node000005"><a xlink:title=" ">
<path fill="none" stroke="#63b8ff" d="M453.76,-228.72C434.21,-244.59 405.84,-265.59 378,-279 371.03,-282.36 363.5,-285.33 355.92,-287.93"/>
<polygon fill="#63b8ff" stroke="#63b8ff" points="456.09,-231.34 461.57,-222.28 451.63,-225.94 456.09,-231.34"/>
</a>
</g>
</g>
<!-- Node6 -->
<g id="Node000006" class="node">
<title>Node6</title>
<g id="a_Node000006"><a xlink:href="classdnf__composer_1_1element_1_1GaussFieldCoupling.html#a5f4bbce89a4ac5b4f014d7071847c564" target="_top" xlink:title="Advance the element by one time step.">
<polygon fill="white" stroke="#666666" points="366,-270 220,-270 220,-240 366,-240 366,-270"/>
<text text-anchor="start" x="228" y="-258" font-family="Helvetica,sans-Serif" font-size="10.00">dnf_composer::element</text>
<text text-anchor="middle" x="293" y="-247" font-family="Helvetica,sans-Serif" font-size="10.00">::GaussFieldCoupling::step</text>
</a>
</g>
</g>
<!-- Node1&#45;&gt;Node6 -->
<g id="edge5_Node000001_Node000006" class="edge">
<title>Node1&#45;&gt;Node6</title>
<g id="a_edge5_Node000001_Node000006"><a xlink:title=" ">
<path fill="none" stroke="#63b8ff" d="M411.24,-224.58C391.74,-229.64 370.66,-235.11 351.82,-240"/>
<polygon fill="#63b8ff" stroke="#63b8ff" points="412.17,-227.96 420.97,-222.06 410.41,-221.18 412.17,-227.96"/>
</a>
</g>
</g>
<!-- Node7 -->
<g id="Node000007" class="node">
<title>Node7</title>
<g id="a_Node000007"><a xlink:href="classdnf__composer_1_1element_1_1GaussKernel.html#a5fd228b67854d1c571f272756c67389a" target="_top" xlink:title="Advance the element by one time step.">
<polygon fill="white" stroke="#666666" points="359,-222 227,-222 227,-192 359,-192 359,-222"/>
<text text-anchor="start" x="235" y="-210" font-family="Helvetica,sans-Serif" font-size="10.00">dnf_composer::element</text>
<text text-anchor="middle" x="293" y="-199" font-family="Helvetica,sans-Serif" font-size="10.00">::GaussKernel::step</text>
</a>
</g>
</g>
<!-- Node1&#45;&gt;Node7 -->
<g id="edge6_Node000001_Node000007" class="edge">
<title>Node1&#45;&gt;Node7</title>
<g id="a_edge6_Node000001_Node000007"><a xlink:title=" ">
<path fill="none" stroke="#63b8ff" d="M403.69,-207C388.96,-207 373.63,-207 359.26,-207"/>
<polygon fill="#63b8ff" stroke="#63b8ff" points="403.78,-210.5 413.78,-207 403.78,-203.5 403.78,-210.5"/>
</a>
</g>
</g>
<!-- Node8 -->
<g id="Node000008" class="node">
<title>Node8</title>
<g id="a_Node000008"><a xlink:href="classdnf__composer_1_1element_1_1MemoryTrace.html#ac0979d0eaf416db2d48e127c031a4642" target="_top" xlink:title="Advance the element by one time step.">
<polygon fill="white" stroke="#666666" points="359,-174 227,-174 227,-144 359,-144 359,-174"/>
<text text-anchor="start" x="235" y="-162" font-family="Helvetica,sans-Serif" font-size="10.00">dnf_composer::element</text>
<text text-anchor="middle" x="293" y="-151" font-family="Helvetica,sans-Serif" font-size="10.00">::MemoryTrace::step</text>
</a>
</g>
</g>
<!-- Node1&#45;&gt;Node8 -->
<g id="edge7_Node000001_Node000008" class="edge">
<title>Node1&#45;&gt;Node8</title>
<g id="a_edge7_Node000001_Node000008"><a xlink:title=" ">
<path fill="none" stroke="#63b8ff" d="M411.24,-189.42C391.74,-184.36 370.66,-178.89 351.82,-174"/>
<polygon fill="#63b8ff" stroke="#63b8ff" points="410.41,-192.82 420.97,-191.94 412.17,-186.04 410.41,-192.82"/>
</a>
</g>
</g>
<!-- Node9 -->
<g id="Node000009" class="node">
<title>Node9</title>
<g id="a_Node000009"><a xlink:href="classdnf__composer_1_1element_1_1MexicanHatKernel.html#ac18abde56a67c7c1c127d38065d6f316" target="_top" xlink:title="Advance the element by one time step.">
<polygon fill="white" stroke="#666666" points="362.5,-126 223.5,-126 223.5,-96 362.5,-96 362.5,-126"/>
<text text-anchor="start" x="231.5" y="-114" font-family="Helvetica,sans-Serif" font-size="10.00">dnf_composer::element</text>
<text text-anchor="middle" x="293" y="-103" font-family="Helvetica,sans-Serif" font-size="10.00">::MexicanHatKernel::step</text>
</a>
</g>
</g>
<!-- Node1&#45;&gt;Node9 -->
<g id="edge8_Node000001_Node000009" class="edge">
<title>Node1&#45;&gt;Node9</title>
<g id="a_edge8_Node000001_Node000009"><a xlink:title=" ">
<path fill="none" stroke="#63b8ff" d="M453.76,-185.28C434.21,-169.41 405.84,-148.41 378,-135 371.03,-131.64 363.5,-128.67 355.92,-126.07"/>
<polygon fill="#63b8ff" stroke="#63b8ff" points="451.63,-188.06 461.57,-191.72 456.09,-182.66 451.63,-188.06"/>
</a>
</g>
</g>
<!-- Node10 -->
<g id="Node000010" class="node">
<title>Node10</title>
<g id="a_Node000010"><a xlink:href="classdnf__composer_1_1element_1_1NeuralField.html#a06d26adf22e574e2b6c8589c0d4f996e" target="_top" xlink:title="Advance the element by one time step.">
<polygon fill="white" stroke="#666666" points="359,-78 227,-78 227,-48 359,-48 359,-78"/>
<text text-anchor="start" x="235" y="-66" font-family="Helvetica,sans-Serif" font-size="10.00">dnf_composer::element</text>
<text text-anchor="middle" x="293" y="-55" font-family="Helvetica,sans-Serif" font-size="10.00">::NeuralField::step</text>
</a>
</g>
</g>
<!-- Node1&#45;&gt;Node10 -->
<g id="edge9_Node000001_Node000010" class="edge">
<title>Node1&#45;&gt;Node10</title>
<g id="a_edge9_Node000001_Node000010"><a xlink:title=" ">
<path fill="none" stroke="#63b8ff" d="M465.07,-183.11C447.96,-155.87 416.44,-111.89 378,-87 372.14,-83.21 365.68,-80 359.02,-77.3"/>
<polygon fill="#63b8ff" stroke="#63b8ff" points="462.3,-185.29 470.5,-191.99 468.27,-181.63 462.3,-185.29"/>
</a>
</g>
</g>
<!-- Node11 -->
<g id="Node000011" class="node">
<title>Node11</title>
<g id="a_Node000011"><a xlink:href="classdnf__composer_1_1element_1_1OscillatoryKernel.html#ab95458cda2baab4cbaf0e010e2cb86a8" target="_top" xlink:title="Advance the element by one time step.">
<polygon fill="white" stroke="#666666" points="359.5,-30 226.5,-30 226.5,0 359.5,0 359.5,-30"/>
<text text-anchor="start" x="234.5" y="-18" font-family="Helvetica,sans-Serif" font-size="10.00">dnf_composer::element</text>
<text text-anchor="middle" x="293" y="-7" font-family="Helvetica,sans-Serif" font-size="10.00">::OscillatoryKernel::step</text>
</a>
</g>
</g>
<!-- Node1&#45;&gt;Node11 -->
<g id="edge10_Node000001_Node000011" class="edge">
<title>Node1&#45;&gt;Node11</title>
<g id="a_edge10_Node000001_Node000011"><a xlink:title=" ">
<path fill="none" stroke="#63b8ff" d="M470.86,-182.39C457.44,-145.62 427.13,-76.65 378,-39 372.46,-34.76 366.2,-31.26 359.66,-28.39"/>
<polygon fill="#63b8ff" stroke="#63b8ff" points="467.57,-183.58 474.2,-191.85 474.17,-181.25 467.57,-183.58"/>
</a>
</g>
</g>
<!-- Node3 -->
<g id="Node000003" class="node">
<title>Node3</title>
<g id="a_Node000003"><a xlink:href="classdnf__composer_1_1element_1_1GaussStimulus.html#af05b6b8c812a9db74fd719824bfdfaca" target="_top" xlink:title=" ">
<polygon fill="white" stroke="#666666" points="172,-414 0,-414 0,-384 172,-384 172,-414"/>
<text text-anchor="start" x="8" y="-402" font-family="Helvetica,sans-Serif" font-size="10.00">dnf_composer::element</text>
<text text-anchor="middle" x="86" y="-391" font-family="Helvetica,sans-Serif" font-size="10.00">::GaussStimulus::setParameters</text>
</a>
</g>
</g>
<!-- Node2&#45;&gt;Node3 -->
<g id="edge2_Node000002_Node000003" class="edge">
<title>Node2&#45;&gt;Node3</title>
<g id="a_edge2_Node000002_Node000003"><a xlink:title=" ">
<path fill="none" stroke="#63b8ff" d="M216.52,-399C202.11,-399 186.93,-399 172.24,-399"/>
<polygon fill="#63b8ff" stroke="#63b8ff" points="216.86,-402.5 226.86,-399 216.86,-395.5 216.86,-402.5"/>
</a>
</g>
</g>
</g>
</svg>
