<?xml version="1.0" encoding="UTF-8" standalone="no"?>
<!DOCTYPE svg PUBLIC "-//W3C//DTD SVG 1.1//EN"
 "http://www.w3.org/Graphics/SVG/1.1/DTD/svg11.dtd">
<!-- Generated by graphviz version 2.43.0 (0)
 -->
<!-- Title: dnf_composer::Application::init Pages: 1 -->
<svg width="518pt" height="110pt"
 viewBox="0.00 0.00 518.00 110.00" xmlns="http://www.w3.org/2000/svg" xmlns:xlink="http://www.w3.org/1999/xlink">
<g id="graph0" class="graph" transform="scale(1 1) rotate(0) translate(4 106)">
<title>dnf_composer::Application::init</title>
<!-- Node1 -->
<g id="Node000001" class="node">
<title>Node1</title>
<g id="a_Node000001"><a xlink:title="Initialize the GUI and all registered windows. Call once before step().">
<polygon fill="#999999" stroke="#666666" points="146,-78 0,-78 0,-48 146,-48 146,-78"/>
<text text-anchor="start" x="8" y="-66" font-family="Helvetica,sans-Serif" font-size="10.00">dnf_composer::Application</text>
<text text-anchor="middle" x="73" y="-55" font-family="Helvetica,sans-Serif" font-size="10.00">::init</text>
</a>
</g>
</g>
<!-- Node2 -->
<g id="Node000002" class="node">
<title>Node2</title>
<g id="a_Node000002"><a xlink:href="namespacednf__composer_1_1tools_1_1utils.html#a140c0903ddcfc3ba01218f11d31608dc" target="_top" xlink:title=" ">
<polygon fill="white" stroke="#666666" points="321.5,-102 188.5,-102 188.5,-72 321.5,-72 321.5,-102"/>
<text text-anchor="start" x="196.5" y="-90" font-family="Helvetica,sans-Serif" font-size="10.00">dnf_composer::tools</text>
<text text-anchor="middle" x="255" y="-79" font-family="Helvetica,sans-Serif" font-size="10.00">::utils::getResourceRoot</text>
</a>
</g>
</g>
<!-- Node1&#45;&gt;Node2 -->
<g id="edge1_Node000001_Node000002" class="edge">
<title>Node1&#45;&gt;Node2</title>
<g id="a_edge1_Node000001_Node000002"><a xlink:title=" ">
<path fill="none" stroke="#63b8ff" d="M146.18,-72.62C156.7,-74.03 167.56,-75.48 178.16,-76.89"/>
<polygon fill="#63b8ff" stroke="#63b8ff" points="177.84,-80.38 188.22,-78.23 178.77,-73.44 177.84,-80.38"/>
</a>
</g>
</g>
<!-- Node3 -->
<g id="Node000003" class="node">
<title>Node3</title>
<g id="a_Node000003"><a xlink:href="classdnf__composer_1_1Application.html#a24c2fd485519f3eb60859afcca994d72" target="_top" xlink:title="Register the application&#39;s ImGui settings handler (for persistence).">
<polygon fill="white" stroke="#666666" points="328,-54 182,-54 182,-24 328,-24 328,-54"/>
<text text-anchor="start" x="190" y="-42" font-family="Helvetica,sans-Serif" font-size="10.00">dnf_composer::Application</text>
<text text-anchor="middle" x="255" y="-31" font-family="Helvetica,sans-Serif" font-size="10.00">::registerSettingsHandler</text>
</a>
</g>
</g>
<!-- Node1&#45;&gt;Node3 -->
<g id="edge2_Node000001_Node000003" class="edge">
<title>Node1&#45;&gt;Node3</title>
<g id="a_edge2_Node000001_Node000003"><a xlink:title=" ">
<path fill="none" stroke="#63b8ff" d="M146.18,-53.38C154.61,-52.25 163.27,-51.1 171.82,-49.96"/>
<polygon fill="#63b8ff" stroke="#63b8ff" points="172.36,-53.42 181.81,-48.63 171.43,-46.48 172.36,-53.42"/>
</a>
</g>
</g>
<!-- Node4 -->
<g id="Node000004" class="node">
<title>Node4</title>
<g id="a_Node000004"><a xlink:href="classdnf__composer_1_1Application.html#a5d44fa04caa6256d1abaca0398ece286" target="_top" xlink:title=" ">
<polygon fill="white" stroke="#666666" points="510,-78 364,-78 364,-48 510,-48 510,-78"/>
<text text-anchor="start" x="372" y="-66" font-family="Helvetica,sans-Serif" font-size="10.00">dnf_composer::Application</text>
<text text-anchor="middle" x="437" y="-55" font-family="Helvetica,sans-Serif" font-size="10.00">::getUiScalePct</text>
</a>
</g>
</g>
<!-- Node3&#45;&gt;Node4 -->
<g id="edge3_Node000003_Node000004" class="edge">
<title>Node3&#45;&gt;Node4</title>
<g id="a_edge3_Node000003_Node000004"><a xlink:title=" ">
<path fill="none" stroke="#63b8ff" d="M328.18,-48.62C336.61,-49.75 345.27,-50.9 353.82,-52.04"/>
<polygon fill="#63b8ff" stroke="#63b8ff" points="353.43,-55.52 363.81,-53.37 354.36,-48.58 353.43,-55.52"/>
</a>
</g>
</g>
<!-- Node5 -->
<g id="Node000005" class="node">
<title>Node5</title>
<g id="a_Node000005"><a xlink:href="classdnf__composer_1_1Application.html#a527c4e705f610b5efeee26a26e05a655" target="_top" xlink:title=" ">
<polygon fill="white" stroke="#666666" points="510,-30 364,-30 364,0 510,0 510,-30"/>
<text text-anchor="start" x="372" y="-18" font-family="Helvetica,sans-Serif" font-size="10.00">dnf_composer::Application</text>
<text text-anchor="middle" x="437" y="-7" font-family="Helvetica,sans-Serif" font-size="10.00">::setUiScalePct</text>
</a>
</g>
</g>
<!-- Node3&#45;&gt;Node5 -->
<g id="edge4_Node000003_Node000005" class="edge">
<title>Node3&#45;&gt;Node5</title>
<g id="a_edge4_Node000003_Node000005"><a xlink:title=" ">
<path fill="none" stroke="#63b8ff" d="M328.18,-29.38C336.61,-28.25 345.27,-27.1 353.82,-25.96"/>
<polygon fill="#63b8ff" stroke="#63b8ff" points="354.36,-29.42 363.81,-24.63 353.43,-22.48 354.36,-29.42"/>
</a>
</g>
</g>
</g>
</svg>
