<?xml version="1.0" encoding="UTF-8" standalone="no"?>
<!DOCTYPE svg PUBLIC "-//W3C//DTD SVG 1.1//EN"
 "http://www.w3.org/Graphics/SVG/1.1/DTD/svg11.dtd">
<!-- Generated by graphviz version 2.43.0 (0)
 -->
<!-- Title: dnf_composer::element::Element::updateInput Pages: 1 -->
<svg width="580pt" height="950pt"
 viewBox="0.00 0.00 580.00 950.00" xmlns="http://www.w3.org/2000/svg" xmlns:xlink="http://www.w3.org/1999/xlink">
<g id="graph0" class="graph" transform="scale(1 1) rotate(0) translate(4 946)">
<title>dnf_composer::element::Element::updateInput</title>
<!-- Node1 -->
<g id="Node000001" class="node">
<title>Node1</title>
<g id="a_Node000001"><a xlink:title="Pull data from all registered input elements into this element&#39;s components.">
<polygon fill="#999999" stroke="#666666" points="572,-486 440,-486 440,-456 572,-456 572,-486"/>
<text text-anchor="start" x="448" y="-474" font-family="Helvetica,sans-Serif" font-size="10.00">dnf_composer::element</text>
<text text-anchor="middle" x="506" y="-463" font-family="Helvetica,sans-Serif" font-size="10.00">::Element::updateInput</text>
</a>
</g>
</g>
<!-- Node2 -->
<g id="Node000002" class="node">
<title>Node2</title>
<g id="a_Node000002"><a xlink:href="classdnf__composer_1_1element_1_1GaussStimulus.html#a3677ed68684c7cd362e7e54f42fafb06" target="_top" xlink:title="Initialize the element (called once before the simulation loop).">
<polygon fill="white" stroke="#666666" points="378.5,-942 246.5,-942 246.5,-912 378.5,-912 378.5,-942"/>
<text text-anchor="start" x="254.5" y="-930" font-family="Helvetica,sans-Serif" font-size="10.00">dnf_composer::element</text>
<text text-anchor="middle" x="312.5" y="-919" font-family="Helvetica,sans-Serif" font-size="10.00">::GaussStimulus::init</text>
</a>
</g>
</g>
<!-- Node1&#45;&gt;Node2 -->
<g id="edge1_Node000001_Node000002" class="edge">
<title>Node1&#45;&gt;Node2</title>
<g id="a_edge1_Node000001_Node000002"><a xlink:title=" ">
<path fill="none" stroke="#63b8ff" d="M502.48,-496.29C493.67,-579.63 461.64,-843.63 404,-903 396.98,-910.23 388.05,-915.37 378.55,-919"/>
<polygon fill="#63b8ff" stroke="#63b8ff" points="505.97,-496.5 503.52,-486.19 499.01,-495.78 505.97,-496.5"/>
</a>
</g>
</g>
<!-- Node4 -->
<g id="Node000004" class="node">
<title>Node4</title>
<g id="a_Node000004"><a xlink:href="classdnf__composer_1_1element_1_1GaussStimulus2D.html#a942b7e1646c800e33517bf0d694eb128" target="_top" xlink:title="Initialize the element (called once before the simulation loop).">
<polygon fill="white" stroke="#666666" points="378.5,-894 246.5,-894 246.5,-864 378.5,-864 378.5,-894"/>
<text text-anchor="start" x="254.5" y="-882" font-family="Helvetica,sans-Serif" font-size="10.00">dnf_composer::element</text>
<text text-anchor="middle" x="312.5" y="-871" font-family="Helvetica,sans-Serif" font-size="10.00">::GaussStimulus2D::init</text>
</a>
</g>
</g>
<!-- Node1&#45;&gt;Node4 -->
<g id="edge3_Node000001_Node000004" class="edge">
<title>Node1&#45;&gt;Node4</title>
<g id="a_edge3_Node000001_Node000004"><a xlink:title=" ">
<path fill="none" stroke="#63b8ff" d="M501.66,-496.47C491.03,-573.73 455.63,-803.26 404,-855 397,-862.02 388.19,-867.05 378.84,-870.66"/>
<polygon fill="#63b8ff" stroke="#63b8ff" points="505.17,-496.6 503.05,-486.22 498.24,-495.66 505.17,-496.6"/>
</a>
</g>
</g>
<!-- Node6 -->
<g id="Node000006" class="node">
<title>Node6</title>
<g id="a_Node000006"><a xlink:href="classdnf__composer_1_1element_1_1AsymmetricGaussKernel.html#afa45a45ca8acb0432937de3b1563ba82" target="_top" xlink:title="Advance the element by one time step.">
<polygon fill="white" stroke="#666666" points="397.5,-846 227.5,-846 227.5,-816 397.5,-816 397.5,-846"/>
<text text-anchor="start" x="235.5" y="-834" font-family="Helvetica,sans-Serif" font-size="10.00">dnf_composer::element</text>
<text text-anchor="middle" x="312.5" y="-823" font-family="Helvetica,sans-Serif" font-size="10.00">::AsymmetricGaussKernel::step</text>
</a>
</g>
</g>
<!-- Node1&#45;&gt;Node6 -->
<g id="edge5_Node000001_Node000006" class="edge">
<title>Node1&#45;&gt;Node6</title>
<g id="a_edge5_Node000001_Node000006"><a xlink:title=" ">
<path fill="none" stroke="#63b8ff" d="M505.24,-496.48C504.39,-558.9 493.19,-720.69 404,-807 400.5,-810.39 396.57,-813.32 392.37,-815.84"/>
<polygon fill="#63b8ff" stroke="#63b8ff" points="508.74,-496.36 505.3,-486.34 501.74,-496.32 508.74,-496.36"/>
</a>
</g>
</g>
<!-- Node7 -->
<g id="Node000007" class="node">
<title>Node7</title>
<g id="a_Node000007"><a xlink:href="classdnf__composer_1_1element_1_1AsymmetricGaussKernel2D.html#ab88efe9a35d4b8489448f12e6ab15509" target="_top" xlink:title="Advance the element by one time step.">
<polygon fill="white" stroke="#666666" points="404,-798 221,-798 221,-768 404,-768 404,-798"/>
<text text-anchor="start" x="229" y="-786" font-family="Helvetica,sans-Serif" font-size="10.00">dnf_composer::element</text>
<text text-anchor="middle" x="312.5" y="-775" font-family="Helvetica,sans-Serif" font-size="10.00">::AsymmetricGaussKernel2D::step</text>
</a>
</g>
</g>
<!-- Node1&#45;&gt;Node7 -->
<g id="edge6_Node000001_Node000007" class="edge">
<title>Node1&#45;&gt;Node7</title>
<g id="a_edge6_Node000001_Node000007"><a xlink:title=" ">
<path fill="none" stroke="#63b8ff" d="M503.76,-496.25C499.63,-552.16 481.68,-687.16 404,-759 400.3,-762.42 396.17,-765.37 391.77,-767.9"/>
<polygon fill="#63b8ff" stroke="#63b8ff" points="507.26,-496.37 504.42,-486.16 500.28,-495.91 507.26,-496.37"/>
</a>
</g>
</g>
<!-- Node8 -->
<g id="Node000008" class="node">
<title>Node8</title>
<g id="a_Node000008"><a xlink:href="classdnf__composer_1_1element_1_1Collapse.html#a39c72c141eecd57cd074c976be5fe32e" target="_top" xlink:title="Advance the element by one time step.">
<polygon fill="white" stroke="#666666" points="378.5,-750 246.5,-750 246.5,-720 378.5,-720 378.5,-750"/>
<text text-anchor="start" x="254.5" y="-738" font-family="Helvetica,sans-Serif" font-size="10.00">dnf_composer::element</text>
<text text-anchor="middle" x="312.5" y="-727" font-family="Helvetica,sans-Serif" font-size="10.00">::Collapse::step</text>
</a>
</g>
</g>
<!-- Node1&#45;&gt;Node8 -->
<g id="edge7_Node000001_Node000008" class="edge">
<title>Node1&#45;&gt;Node8</title>
<g id="a_edge7_Node000001_Node000008"><a xlink:title=" ">
<path fill="none" stroke="#63b8ff" d="M501.78,-496.06C494.13,-544.96 470.28,-653.36 404,-711 396.76,-717.29 388.06,-721.96 378.94,-725.42"/>
<polygon fill="#63b8ff" stroke="#63b8ff" points="505.26,-496.43 503.25,-486.03 498.33,-495.42 505.26,-496.43"/>
</a>
</g>
</g>
<!-- Node9 -->
<g id="Node000009" class="node">
<title>Node9</title>
<g id="a_Node000009"><a xlink:href="classdnf__composer_1_1element_1_1Expand.html#aff714ff29d5f0b1f850882f143d0b9b8" target="_top" xlink:title="Advance the element by one time step.">
<polygon fill="white" stroke="#666666" points="378.5,-702 246.5,-702 246.5,-672 378.5,-672 378.5,-702"/>
<text text-anchor="start" x="254.5" y="-690" font-family="Helvetica,sans-Serif" font-size="10.00">dnf_composer::element</text>
<text text-anchor="middle" x="312.5" y="-679" font-family="Helvetica,sans-Serif" font-size="10.00">::Expand::step</text>
</a>
</g>
</g>
<!-- Node1&#45;&gt;Node9 -->
<g id="edge8_Node000001_Node000009" class="edge">
<title>Node1&#45;&gt;Node9</title>
<g id="a_edge8_Node000001_Node000009"><a xlink:title=" ">
<path fill="none" stroke="#63b8ff" d="M498.9,-495.93C487.51,-537.11 459,-619.16 404,-663 396.63,-668.88 387.95,-673.32 378.94,-676.68"/>
<polygon fill="#63b8ff" stroke="#63b8ff" points="502.31,-496.72 501.49,-486.15 495.55,-494.92 502.31,-496.72"/>
</a>
</g>
</g>
<!-- Node10 -->
<g id="Node000010" class="node">
<title>Node10</title>
<g id="a_Node000010"><a xlink:href="classdnf__composer_1_1element_1_1FieldCoupling.html#ae0215c3f9b5ebe1030429c427cf6d8bf" target="_top" xlink:title="Advance the element by one time step.">
<polygon fill="white" stroke="#666666" points="378.5,-654 246.5,-654 246.5,-624 378.5,-624 378.5,-654"/>
<text text-anchor="start" x="254.5" y="-642" font-family="Helvetica,sans-Serif" font-size="10.00">dnf_composer::element</text>
<text text-anchor="middle" x="312.5" y="-631" font-family="Helvetica,sans-Serif" font-size="10.00">::FieldCoupling::step</text>
</a>
</g>
</g>
<!-- Node1&#45;&gt;Node10 -->
<g id="edge9_Node000001_Node000010" class="edge">
<title>Node1&#45;&gt;Node10</title>
<g id="a_edge9_Node000001_Node000010"><a xlink:title=" ">
<path fill="none" stroke="#63b8ff" d="M494.44,-495.49C479.22,-527.84 448.03,-584.28 404,-615 396.4,-620.3 387.7,-624.43 378.76,-627.65"/>
<polygon fill="#63b8ff" stroke="#63b8ff" points="497.67,-496.83 498.65,-486.28 491.31,-493.92 497.67,-496.83"/>
</a>
</g>
</g>
<!-- Node11 -->
<g id="Node000011" class="node">
<title>Node11</title>
<g id="a_Node000011"><a xlink:href="classdnf__composer_1_1element_1_1GaussFieldCoupling.html#a5f4bbce89a4ac5b4f014d7071847c564" target="_top" xlink:title="Advance the element by one time step.">
<polygon fill="white" stroke="#666666" points="385.5,-606 239.5,-606 239.5,-576 385.5,-576 385.5,-606"/>
<text text-anchor="start" x="247.5" y="-594" font-family="Helvetica,sans-Serif" font-size="10.00">dnf_composer::element</text>
<text text-anchor="middle" x="312.5" y="-583" font-family="Helvetica,sans-Serif" font-size="10.00">::GaussFieldCoupling::step</text>
</a>
</g>
</g>
<!-- Node1&#45;&gt;Node11 -->
<g id="edge10_Node000001_Node000011" class="edge">
<title>Node1&#45;&gt;Node11</title>
<g id="a_edge10_Node000001_Node000011"><a xlink:title=" ">
<path fill="none" stroke="#63b8ff" d="M486.85,-493.94C468.3,-515.86 437.52,-548.27 404,-567 397.9,-570.41 391.29,-573.35 384.53,-575.89"/>
<polygon fill="#63b8ff" stroke="#63b8ff" points="489.66,-496.03 493.34,-486.1 484.27,-491.57 489.66,-496.03"/>
</a>
</g>
</g>
<!-- Node12 -->
<g id="Node000012" class="node">
<title>Node12</title>
<g id="a_Node000012"><a xlink:href="classdnf__composer_1_1element_1_1GaussKernel.html#a5fd228b67854d1c571f272756c67389a" target="_top" xlink:title="Advance the element by one time step.">
<polygon fill="white" stroke="#666666" points="378.5,-558 246.5,-558 246.5,-528 378.5,-528 378.5,-558"/>
<text text-anchor="start" x="254.5" y="-546" font-family="Helvetica,sans-Serif" font-size="10.00">dnf_composer::element</text>
<text text-anchor="middle" x="312.5" y="-535" font-family="Helvetica,sans-Serif" font-size="10.00">::GaussKernel::step</text>
</a>
</g>
</g>
<!-- Node1&#45;&gt;Node12 -->
<g id="edge11_Node000001_Node000012" class="edge">
<title>Node1&#45;&gt;Node12</title>
<g id="a_edge11_Node000001_Node000012"><a xlink:title=" ">
<path fill="none" stroke="#63b8ff" d="M467.78,-490.72C449,-500.13 425.67,-511.05 404,-519 395.15,-522.25 385.66,-525.25 376.28,-527.96"/>
<polygon fill="#63b8ff" stroke="#63b8ff" points="469.54,-493.74 476.87,-486.09 466.37,-487.5 469.54,-493.74"/>
</a>
</g>
</g>
<!-- Node13 -->
<g id="Node000013" class="node">
<title>Node13</title>
<g id="a_Node000013"><a xlink:href="classdnf__composer_1_1element_1_1GaussKernel2D.html#afe15b891a5a3bf3caba5213476d12edf" target="_top" xlink:title="Advance the element by one time step.">
<polygon fill="white" stroke="#666666" points="378.5,-510 246.5,-510 246.5,-480 378.5,-480 378.5,-510"/>
<text text-anchor="start" x="254.5" y="-498" font-family="Helvetica,sans-Serif" font-size="10.00">dnf_composer::element</text>
<text text-anchor="middle" x="312.5" y="-487" font-family="Helvetica,sans-Serif" font-size="10.00">::GaussKernel2D::step</text>
</a>
</g>
</g>
<!-- Node1&#45;&gt;Node13 -->
<g id="edge12_Node000001_Node000013" class="edge">
<title>Node1&#45;&gt;Node13</title>
<g id="a_edge12_Node000001_Node000013"><a xlink:title=" ">
<path fill="none" stroke="#63b8ff" d="M429.57,-480.45C412.77,-482.56 395.1,-484.77 378.75,-486.82"/>
<polygon fill="#63b8ff" stroke="#63b8ff" points="430.41,-483.88 439.9,-479.16 429.54,-476.93 430.41,-483.88"/>
</a>
</g>
</g>
<!-- Node14 -->
<g id="Node000014" class="node">
<title>Node14</title>
<g id="a_Node000014"><a xlink:href="classdnf__composer_1_1element_1_1MemoryTrace.html#ac0979d0eaf416db2d48e127c031a4642" target="_top" xlink:title="Advance the element by one time step.">
<polygon fill="white" stroke="#666666" points="378.5,-462 246.5,-462 246.5,-432 378.5,-432 378.5,-462"/>
<text text-anchor="start" x="254.5" y="-450" font-family="Helvetica,sans-Serif" font-size="10.00">dnf_composer::element</text>
<text text-anchor="middle" x="312.5" y="-439" font-family="Helvetica,sans-Serif" font-size="10.00">::MemoryTrace::step</text>
</a>
</g>
</g>
<!-- Node1&#45;&gt;Node14 -->
<g id="edge13_Node000001_Node000014" class="edge">
<title>Node1&#45;&gt;Node14</title>
<g id="a_edge13_Node000001_Node000014"><a xlink:title=" ">
<path fill="none" stroke="#63b8ff" d="M429.57,-461.55C412.77,-459.44 395.1,-457.23 378.75,-455.18"/>
<polygon fill="#63b8ff" stroke="#63b8ff" points="429.54,-465.07 439.9,-462.84 430.41,-458.12 429.54,-465.07"/>
</a>
</g>
</g>
<!-- Node15 -->
<g id="Node000015" class="node">
<title>Node15</title>
<g id="a_Node000015"><a xlink:href="classdnf__composer_1_1element_1_1MemoryTrace2D.html#af50b896126dbac77330edb9d7d1c9e22" target="_top" xlink:title="Advance the element by one time step.">
<polygon fill="white" stroke="#666666" points="378.5,-414 246.5,-414 246.5,-384 378.5,-384 378.5,-414"/>
<text text-anchor="start" x="254.5" y="-402" font-family="Helvetica,sans-Serif" font-size="10.00">dnf_composer::element</text>
<text text-anchor="middle" x="312.5" y="-391" font-family="Helvetica,sans-Serif" font-size="10.00">::MemoryTrace2D::step</text>
</a>
</g>
</g>
<!-- Node1&#45;&gt;Node15 -->
<g id="edge14_Node000001_Node000015" class="edge">
<title>Node1&#45;&gt;Node15</title>
<g id="a_edge14_Node000001_Node000015"><a xlink:title=" ">
<path fill="none" stroke="#63b8ff" d="M467.78,-451.28C449,-441.87 425.67,-430.95 404,-423 395.15,-419.75 385.66,-416.75 376.28,-414.04"/>
<polygon fill="#63b8ff" stroke="#63b8ff" points="466.37,-454.5 476.87,-455.91 469.54,-448.26 466.37,-454.5"/>
</a>
</g>
</g>
<!-- Node16 -->
<g id="Node000016" class="node">
<title>Node16</title>
<g id="a_Node000016"><a xlink:href="classdnf__composer_1_1element_1_1MexicanHatKernel.html#ac18abde56a67c7c1c127d38065d6f316" target="_top" xlink:title="Advance the element by one time step.">
<polygon fill="white" stroke="#666666" points="382,-366 243,-366 243,-336 382,-336 382,-366"/>
<text text-anchor="start" x="251" y="-354" font-family="Helvetica,sans-Serif" font-size="10.00">dnf_composer::element</text>
<text text-anchor="middle" x="312.5" y="-343" font-family="Helvetica,sans-Serif" font-size="10.00">::MexicanHatKernel::step</text>
</a>
</g>
</g>
<!-- Node1&#45;&gt;Node16 -->
<g id="edge15_Node000001_Node000016" class="edge">
<title>Node1&#45;&gt;Node16</title>
<g id="a_edge15_Node000001_Node000016"><a xlink:title=" ">
<path fill="none" stroke="#63b8ff" d="M486.85,-448.06C468.3,-426.14 437.52,-393.73 404,-375 397.19,-371.19 389.75,-367.97 382.16,-365.25"/>
<polygon fill="#63b8ff" stroke="#63b8ff" points="484.27,-450.43 493.34,-455.9 489.66,-445.97 484.27,-450.43"/>
</a>
</g>
</g>
<!-- Node17 -->
<g id="Node000017" class="node">
<title>Node17</title>
<g id="a_Node000017"><a xlink:href="classdnf__composer_1_1element_1_1MexicanHatKernel2D.html#a586a0dc4008c2456314a6254e9d9d0ee" target="_top" xlink:title="Advance the element by one time step.">
<polygon fill="white" stroke="#666666" points="388.5,-318 236.5,-318 236.5,-288 388.5,-288 388.5,-318"/>
<text text-anchor="start" x="244.5" y="-306" font-family="Helvetica,sans-Serif" font-size="10.00">dnf_composer::element</text>
<text text-anchor="middle" x="312.5" y="-295" font-family="Helvetica,sans-Serif" font-size="10.00">::MexicanHatKernel2D::step</text>
</a>
</g>
</g>
<!-- Node1&#45;&gt;Node17 -->
<g id="edge16_Node000001_Node000017" class="edge">
<title>Node1&#45;&gt;Node17</title>
<g id="a_edge16_Node000001_Node000017"><a xlink:title=" ">
<path fill="none" stroke="#63b8ff" d="M494.44,-446.51C479.22,-414.16 448.03,-357.72 404,-327 399.07,-323.56 393.67,-320.61 388.05,-318.09"/>
<polygon fill="#63b8ff" stroke="#63b8ff" points="491.31,-448.08 498.65,-455.72 497.67,-445.17 491.31,-448.08"/>
</a>
</g>
</g>
<!-- Node18 -->
<g id="Node000018" class="node">
<title>Node18</title>
<g id="a_Node000018"><a xlink:href="classdnf__composer_1_1element_1_1NeuralField.html#a06d26adf22e574e2b6c8589c0d4f996e" target="_top" xlink:title="Advance the element by one time step.">
<polygon fill="white" stroke="#666666" points="378.5,-270 246.5,-270 246.5,-240 378.5,-240 378.5,-270"/>
<text text-anchor="start" x="254.5" y="-258" font-family="Helvetica,sans-Serif" font-size="10.00">dnf_composer::element</text>
<text text-anchor="middle" x="312.5" y="-247" font-family="Helvetica,sans-Serif" font-size="10.00">::NeuralField::step</text>
</a>
</g>
</g>
<!-- Node1&#45;&gt;Node18 -->
<g id="edge17_Node000001_Node000018" class="edge">
<title>Node1&#45;&gt;Node18</title>
<g id="a_edge17_Node000001_Node000018"><a xlink:title=" ">
<path fill="none" stroke="#63b8ff" d="M498.9,-446.07C487.51,-404.89 459,-322.84 404,-279 396.63,-273.12 387.95,-268.68 378.94,-265.32"/>
<polygon fill="#63b8ff" stroke="#63b8ff" points="495.55,-447.08 501.49,-455.85 502.31,-445.28 495.55,-447.08"/>
</a>
</g>
</g>
<!-- Node19 -->
<g id="Node000019" class="node">
<title>Node19</title>
<g id="a_Node000019"><a xlink:href="classdnf__composer_1_1element_1_1NeuralField2D.html#a98912e65d06df349db24a965ee89fc41" target="_top" xlink:title="Advance the element by one time step.">
<polygon fill="white" stroke="#666666" points="378.5,-222 246.5,-222 246.5,-192 378.5,-192 378.5,-222"/>
<text text-anchor="start" x="254.5" y="-210" font-family="Helvetica,sans-Serif" font-size="10.00">dnf_composer::element</text>
<text text-anchor="middle" x="312.5" y="-199" font-family="Helvetica,sans-Serif" font-size="10.00">::NeuralField2D::step</text>
</a>
</g>
</g>
<!-- Node1&#45;&gt;Node19 -->
<g id="edge18_Node000001_Node000019" class="edge">
<title>Node1&#45;&gt;Node19</title>
<g id="a_edge18_Node000001_Node000019"><a xlink:title=" ">
<path fill="none" stroke="#63b8ff" d="M501.78,-445.94C494.13,-397.04 470.28,-288.64 404,-231 396.76,-224.71 388.06,-220.04 378.94,-216.58"/>
<polygon fill="#63b8ff" stroke="#63b8ff" points="498.33,-446.58 503.25,-455.97 505.26,-445.57 498.33,-446.58"/>
</a>
</g>
</g>
<!-- Node20 -->
<g id="Node000020" class="node">
<title>Node20</title>
<g id="a_Node000020"><a xlink:href="classdnf__composer_1_1element_1_1OscillatoryKernel.html#ab95458cda2baab4cbaf0e010e2cb86a8" target="_top" xlink:title="Advance the element by one time step.">
<polygon fill="white" stroke="#666666" points="379,-174 246,-174 246,-144 379,-144 379,-174"/>
<text text-anchor="start" x="254" y="-162" font-family="Helvetica,sans-Serif" font-size="10.00">dnf_composer::element</text>
<text text-anchor="middle" x="312.5" y="-151" font-family="Helvetica,sans-Serif" font-size="10.00">::OscillatoryKernel::step</text>
</a>
</g>
</g>
<!-- Node1&#45;&gt;Node20 -->
<g id="edge19_Node000001_Node000020" class="edge">
<title>Node1&#45;&gt;Node20</title>
<g id="a_edge19_Node000001_Node000020"><a xlink:title=" ">
<path fill="none" stroke="#63b8ff" d="M503.76,-445.75C499.63,-389.84 481.68,-254.84 404,-183 396.96,-176.49 388.36,-171.7 379.29,-168.2"/>
<polygon fill="#63b8ff" stroke="#63b8ff" points="500.28,-446.09 504.42,-455.84 507.26,-445.63 500.28,-446.09"/>
</a>
</g>
</g>
<!-- Node21 -->
<g id="Node000021" class="node">
<title>Node21</title>
<g id="a_Node000021"><a xlink:href="classdnf__composer_1_1element_1_1OscillatoryKernel2D.html#a1a8e3064bedd9fd6d4a00818bc3ff271" target="_top" xlink:title="Advance the element by one time step.">
<polygon fill="white" stroke="#666666" points="385.5,-126 239.5,-126 239.5,-96 385.5,-96 385.5,-126"/>
<text text-anchor="start" x="247.5" y="-114" font-family="Helvetica,sans-Serif" font-size="10.00">dnf_composer::element</text>
<text text-anchor="middle" x="312.5" y="-103" font-family="Helvetica,sans-Serif" font-size="10.00">::OscillatoryKernel2D::step</text>
</a>
</g>
</g>
<!-- Node1&#45;&gt;Node21 -->
<g id="edge20_Node000001_Node000021" class="edge">
<title>Node1&#45;&gt;Node21</title>
<g id="a_edge20_Node000001_Node000021"><a xlink:title=" ">
<path fill="none" stroke="#63b8ff" d="M505.24,-445.52C504.39,-383.1 493.19,-221.31 404,-135 398.74,-129.91 392.54,-125.87 385.88,-122.67"/>
<polygon fill="#63b8ff" stroke="#63b8ff" points="501.74,-445.68 505.3,-455.66 508.74,-445.64 501.74,-445.68"/>
</a>
</g>
</g>
<!-- Node22 -->
<g id="Node000022" class="node">
<title>Node22</title>
<g id="a_Node000022"><a xlink:href="classdnf__composer_1_1element_1_1Resize.html#a7e1f337e5edccf11af88d726540ad280" target="_top" xlink:title="Advance the element by one time step.">
<polygon fill="white" stroke="#666666" points="378.5,-78 246.5,-78 246.5,-48 378.5,-48 378.5,-78"/>
<text text-anchor="start" x="254.5" y="-66" font-family="Helvetica,sans-Serif" font-size="10.00">dnf_composer::element</text>
<text text-anchor="middle" x="312.5" y="-55" font-family="Helvetica,sans-Serif" font-size="10.00">::Resize::step</text>
</a>
</g>
</g>
<!-- Node1&#45;&gt;Node22 -->
<g id="edge21_Node000001_Node000022" class="edge">
<title>Node1&#45;&gt;Node22</title>
<g id="a_edge21_Node000001_Node000022"><a xlink:title=" ">
<path fill="none" stroke="#63b8ff" d="M501.66,-445.53C491.03,-368.27 455.63,-138.74 404,-87 397,-79.98 388.19,-74.95 378.84,-71.34"/>
<polygon fill="#63b8ff" stroke="#63b8ff" points="498.24,-446.34 503.05,-455.78 505.17,-445.4 498.24,-446.34"/>
</a>
</g>
</g>
<!-- Node23 -->
<g id="Node000023" class="node">
<title>Node23</title>
<g id="a_Node000023"><a xlink:href="classdnf__composer_1_1element_1_1Resize2D.html#a78dcfa0ab25a60128557f23e446a0dc6" target="_top" xlink:title="Advance the element by one time step.">
<polygon fill="white" stroke="#666666" points="378.5,-30 246.5,-30 246.5,0 378.5,0 378.5,-30"/>
<text text-anchor="start" x="254.5" y="-18" font-family="Helvetica,sans-Serif" font-size="10.00">dnf_composer::element</text>
<text text-anchor="middle" x="312.5" y="-7" font-family="Helvetica,sans-Serif" font-size="10.00">::Resize2D::step</text>
</a>
</g>
</g>
<!-- Node1&#45;&gt;Node23 -->
<g id="edge22_Node000001_Node000023" class="edge">
<title>Node1&#45;&gt;Node23</title>
<g id="a_edge22_Node000001_Node000023"><a xlink:title=" ">
<path fill="none" stroke="#63b8ff" d="M502.48,-445.71C493.67,-362.37 461.64,-98.37 404,-39 396.98,-31.77 388.05,-26.63 378.55,-23"/>
<polygon fill="#63b8ff" stroke="#63b8ff" points="499.01,-446.22 503.52,-455.81 505.97,-445.5 499.01,-446.22"/>
</a>
</g>
</g>
<!-- Node3 -->
<g id="Node000003" class="node">
<title>Node3</title>
<g id="a_Node000003"><a xlink:href="classdnf__composer_1_1element_1_1GaussStimulus.html#af05b6b8c812a9db74fd719824bfdfaca" target="_top" xlink:title=" ">
<polygon fill="white" stroke="#666666" points="178.5,-942 6.5,-942 6.5,-912 178.5,-912 178.5,-942"/>
<text text-anchor="start" x="14.5" y="-930" font-family="Helvetica,sans-Serif" font-size="10.00">dnf_composer::element</text>
<text text-anchor="middle" x="92.5" y="-919" font-family="Helvetica,sans-Serif" font-size="10.00">::GaussStimulus::setParameters</text>
</a>
</g>
</g>
<!-- Node2&#45;&gt;Node3 -->
<g id="edge2_Node000002_Node000003" class="edge">
<title>Node2&#45;&gt;Node3</title>
<g id="a_edge2_Node000002_Node000003"><a xlink:title=" ">
<path fill="none" stroke="#63b8ff" d="M236.27,-927C217.76,-927 197.81,-927 178.86,-927"/>
<polygon fill="#63b8ff" stroke="#63b8ff" points="236.39,-930.5 246.39,-927 236.39,-923.5 236.39,-930.5"/>
</a>
</g>
</g>
<!-- Node5 -->
<g id="Node000005" class="node">
<title>Node5</title>
<g id="a_Node000005"><a xlink:href="classdnf__composer_1_1element_1_1GaussStimulus2D.html#a391bd4d0d9795ae3e85e2f834210685a" target="_top" xlink:title=" ">
<polygon fill="white" stroke="#666666" points="185,-894 0,-894 0,-864 185,-864 185,-894"/>
<text text-anchor="start" x="8" y="-882" font-family="Helvetica,sans-Serif" font-size="10.00">dnf_composer::element</text>
<text text-anchor="middle" x="92.5" y="-871" font-family="Helvetica,sans-Serif" font-size="10.00">::GaussStimulus2D::setParameters</text>
</a>
</g>
</g>
<!-- Node4&#45;&gt;Node5 -->
<g id="edge4_Node000004_Node000005" class="edge">
<title>Node4&#45;&gt;Node5</title>
<g id="a_edge4_Node000004_Node000005"><a xlink:title=" ">
<path fill="none" stroke="#63b8ff" d="M236.31,-879C219.87,-879 202.29,-879 185.28,-879"/>
<polygon fill="#63b8ff" stroke="#63b8ff" points="236.39,-882.5 246.39,-879 236.39,-875.5 236.39,-882.5"/>
</a>
</g>
</g>
</g>
</svg>
