<?xml version="1.0" encoding="UTF-8" standalone="no"?>
<!DOCTYPE svg PUBLIC "-//W3C//DTD SVG 1.1//EN"
 "http://www.w3.org/Graphics/SVG/1.1/DTD/svg11.dtd">
<!-- Generated by graphviz version 2.43.0 (0)
 -->
<!-- Title: dnf_composer::Simulation::getElement Pages: 1 -->
<svg width="332pt" height="230pt"
 viewBox="0.00 0.00 332.00 230.00" xmlns="http://www.w3.org/2000/svg" xmlns:xlink="http://www.w3.org/1999/xlink">
<g id="graph0" class="graph" transform="scale(1 1) rotate(0) translate(4 226)">
<title>dnf_composer::Simulation::getElement</title>
<!-- Node1 -->
<g id="Node000001" class="node">
<title>Node1</title>
<g id="a_Node000001"><a xlink:title="Retrieve an element by its unique name. Throws if not found.">
<polygon fill="#999999" stroke="#666666" points="324,-126 180,-126 180,-96 324,-96 324,-126"/>
<text text-anchor="start" x="188" y="-114" font-family="Helvetica,sans-Serif" font-size="10.00">dnf_composer::Simulation</text>
<text text-anchor="middle" x="252" y="-103" font-family="Helvetica,sans-Serif" font-size="10.00">::getElement</text>
</a>
</g>
</g>
<!-- Node2 -->
<g id="Node000002" class="node">
<title>Node2</title>
<g id="a_Node000002"><a xlink:href="classdnf__composer_1_1Simulation.html#af2cbdd9d53809ca631ccb66c2fe615f0" target="_top" xlink:title=" ">
<polygon fill="white" stroke="#666666" points="144,-222 0,-222 0,-192 144,-192 144,-222"/>
<text text-anchor="start" x="8" y="-210" font-family="Helvetica,sans-Serif" font-size="10.00">dnf_composer::Simulation</text>
<text text-anchor="middle" x="72" y="-199" font-family="Helvetica,sans-Serif" font-size="10.00">::componentExists</text>
</a>
</g>
</g>
<!-- Node1&#45;&gt;Node2 -->
<g id="edge1_Node000001_Node000002" class="edge">
<title>Node1&#45;&gt;Node2</title>
<g id="a_edge1_Node000001_Node000002"><a xlink:title=" ">
<path fill="none" stroke="#63b8ff" d="M223.75,-132.32C202.84,-147.93 172.75,-168.78 144,-183 137.35,-186.29 130.14,-189.3 122.96,-192"/>
<polygon fill="#63b8ff" stroke="#63b8ff" points="225.98,-135.02 231.85,-126.2 221.76,-129.44 225.98,-135.02"/>
</a>
</g>
</g>
<!-- Node3 -->
<g id="Node000003" class="node">
<title>Node3</title>
<g id="a_Node000003"><a xlink:href="classdnf__composer_1_1Simulation.html#acb26d62a62480a829e32e693cd89b99c" target="_top" xlink:title="Wire stimulusElementId&#39;s stimulusComponent as input to receivingElementId.">
<polygon fill="white" stroke="#666666" points="144,-174 0,-174 0,-144 144,-144 144,-174"/>
<text text-anchor="start" x="8" y="-162" font-family="Helvetica,sans-Serif" font-size="10.00">dnf_composer::Simulation</text>
<text text-anchor="middle" x="72" y="-151" font-family="Helvetica,sans-Serif" font-size="10.00">::createInteraction</text>
</a>
</g>
</g>
<!-- Node1&#45;&gt;Node3 -->
<g id="edge2_Node000001_Node000003" class="edge">
<title>Node1&#45;&gt;Node3</title>
<g id="a_edge2_Node000001_Node000003"><a xlink:title=" ">
<path fill="none" stroke="#63b8ff" d="M185.29,-128.72C166.67,-133.74 146.59,-139.15 128.63,-144"/>
<polygon fill="#63b8ff" stroke="#63b8ff" points="186.42,-132.04 195.17,-126.06 184.6,-125.28 186.42,-132.04"/>
</a>
</g>
</g>
<!-- Node4 -->
<g id="Node000004" class="node">
<title>Node4</title>
<g id="a_Node000004"><a xlink:href="classdnf__composer_1_1Simulation.html#ab793cd0a18d45717e78440e4eada4dc2" target="_top" xlink:title="Write the named component to a CSV file in the output directory.">
<polygon fill="white" stroke="#666666" points="144,-126 0,-126 0,-96 144,-96 144,-126"/>
<text text-anchor="start" x="8" y="-114" font-family="Helvetica,sans-Serif" font-size="10.00">dnf_composer::Simulation</text>
<text text-anchor="middle" x="72" y="-103" font-family="Helvetica,sans-Serif" font-size="10.00">::exportComponentToFile</text>
</a>
</g>
</g>
<!-- Node1&#45;&gt;Node4 -->
<g id="edge3_Node000001_Node000004" class="edge">
<title>Node1&#45;&gt;Node4</title>
<g id="a_edge3_Node000001_Node000004"><a xlink:title=" ">
<path fill="none" stroke="#63b8ff" d="M169.83,-111C161.21,-111 152.49,-111 144,-111"/>
<polygon fill="#63b8ff" stroke="#63b8ff" points="169.88,-114.5 179.88,-111 169.88,-107.5 169.88,-114.5"/>
</a>
</g>
</g>
<!-- Node5 -->
<g id="Node000005" class="node">
<title>Node5</title>
<g id="a_Node000005"><a xlink:href="classdnf__composer_1_1Simulation.html#a6670671e5363dcd90296fac622a94b73" target="_top" xlink:title=" ">
<polygon fill="white" stroke="#666666" points="144,-78 0,-78 0,-48 144,-48 144,-78"/>
<text text-anchor="start" x="8" y="-66" font-family="Helvetica,sans-Serif" font-size="10.00">dnf_composer::Simulation</text>
<text text-anchor="middle" x="72" y="-55" font-family="Helvetica,sans-Serif" font-size="10.00">::getComponent</text>
</a>
</g>
</g>
<!-- Node1&#45;&gt;Node5 -->
<g id="edge4_Node000001_Node000005" class="edge">
<title>Node1&#45;&gt;Node5</title>
<g id="a_edge4_Node000001_Node000005"><a xlink:title=" ">
<path fill="none" stroke="#63b8ff" d="M185.29,-93.28C166.67,-88.26 146.59,-82.85 128.63,-78"/>
<polygon fill="#63b8ff" stroke="#63b8ff" points="184.6,-96.72 195.17,-95.94 186.42,-89.96 184.6,-96.72"/>
</a>
</g>
</g>
<!-- Node6 -->
<g id="Node000006" class="node">
<title>Node6</title>
<g id="a_Node000006"><a xlink:href="classdnf__composer_1_1Simulation.html#a2ab758857ee20d0aafc7b8bf25930135" target="_top" xlink:title=" ">
<polygon fill="white" stroke="#666666" points="144,-30 0,-30 0,0 144,0 144,-30"/>
<text text-anchor="start" x="8" y="-18" font-family="Helvetica,sans-Serif" font-size="10.00">dnf_composer::Simulation</text>
<text text-anchor="middle" x="72" y="-7" font-family="Helvetica,sans-Serif" font-size="10.00">::getComponentPtr</text>
</a>
</g>
</g>
<!-- Node1&#45;&gt;Node6 -->
<g id="edge5_Node000001_Node000006" class="edge">
<title>Node1&#45;&gt;Node6</title>
<g id="a_edge5_Node000001_Node000006"><a xlink:title=" ">
<path fill="none" stroke="#63b8ff" d="M223.75,-89.68C202.84,-74.07 172.75,-53.22 144,-39 137.35,-35.71 130.14,-32.7 122.96,-30"/>
<polygon fill="#63b8ff" stroke="#63b8ff" points="221.76,-92.56 231.85,-95.8 225.98,-86.98 221.76,-92.56"/>
</a>
</g>
</g>
</g>
</svg>
