<?xml version="1.0" encoding="UTF-8" standalone="no"?>
<!DOCTYPE svg PUBLIC "-//W3C//DTD SVG 1.1//EN"
 "http://www.w3.org/Graphics/SVG/1.1/DTD/svg11.dtd">
<!-- Generated by graphviz version 2.43.0 (0)
 -->
<!-- Title: dnf_composer::user_interface::SimulationWindow::render Pages: 1 -->
<svg width="573pt" height="462pt"
 viewBox="0.00 0.00 573.00 462.00" xmlns="http://www.w3.org/2000/svg" xmlns:xlink="http://www.w3.org/1999/xlink">
<g id="graph0" class="graph" transform="scale(1 1) rotate(0) translate(4 458)">
<title>dnf_composer::user_interface::SimulationWindow::render</title>
<!-- Node1 -->
<g id="Node000001" class="node">
<title>Node1</title>
<g id="a_Node000001"><a xlink:title=" ">
<polygon fill="#999999" stroke="#666666" points="163,-247 0,-247 0,-206 163,-206 163,-247"/>
<text text-anchor="start" x="8" y="-235" font-family="Helvetica,sans-Serif" font-size="10.00">dnf_composer::user</text>
<text text-anchor="start" x="8" y="-224" font-family="Helvetica,sans-Serif" font-size="10.00">_interface::SimulationWindow</text>
<text text-anchor="middle" x="81.5" y="-213" font-family="Helvetica,sans-Serif" font-size="10.00">::render</text>
</a>
</g>
</g>
<!-- Node2 -->
<g id="Node000002" class="node">
<title>Node2</title>
<g id="a_Node000002"><a xlink:href="classdnf__composer_1_1user__interface_1_1SimulationWindow.html#affb52c7f20aea6a3f5b1c62285bf6438" target="_top" xlink:title=" ">
<polygon fill="white" stroke="#666666" points="383,-454 220,-454 220,-413 383,-413 383,-454"/>
<text text-anchor="start" x="228" y="-442" font-family="Helvetica,sans-Serif" font-size="10.00">dnf_composer::user</text>
<text text-anchor="start" x="228" y="-431" font-family="Helvetica,sans-Serif" font-size="10.00">_interface::SimulationWindow</text>
<text text-anchor="middle" x="301.5" y="-420" font-family="Helvetica,sans-Serif" font-size="10.00">::renderAddElementCard</text>
</a>
</g>
</g>
<!-- Node1&#45;&gt;Node2 -->
<g id="edge1_Node000001_Node000002" class="edge">
<title>Node1&#45;&gt;Node2</title>
<g id="a_edge1_Node000001_Node000002"><a xlink:title=" ">
<path fill="none" stroke="#63b8ff" d="M90.23,-247.01C105.31,-284.17 142.2,-362.67 199,-404.5 202.67,-407.2 206.58,-409.65 210.66,-411.87"/>
<polygon fill="#63b8ff" stroke="#63b8ff" points="209.29,-415.1 219.81,-416.39 212.39,-408.82 209.29,-415.1"/>
</a>
</g>
</g>
<!-- Node4 -->
<g id="Node000004" class="node">
<title>Node4</title>
<g id="a_Node000004"><a xlink:href="classdnf__composer_1_1user__interface_1_1SimulationWindow.html#ab90ecbdffdbf47e25b47b6f8fc6866c7" target="_top" xlink:title=" ">
<polygon fill="white" stroke="#666666" points="404,-395 199,-395 199,-354 404,-354 404,-395"/>
<text text-anchor="start" x="207" y="-383" font-family="Helvetica,sans-Serif" font-size="10.00">dnf_composer::user</text>
<text text-anchor="start" x="207" y="-372" font-family="Helvetica,sans-Serif" font-size="10.00">_interface::SimulationWindow</text>
<text text-anchor="middle" x="301.5" y="-361" font-family="Helvetica,sans-Serif" font-size="10.00">::renderExportElementComponentCard</text>
</a>
</g>
</g>
<!-- Node1&#45;&gt;Node4 -->
<g id="edge3_Node000001_Node000004" class="edge">
<title>Node1&#45;&gt;Node4</title>
<g id="a_edge3_Node000001_Node000004"><a xlink:title=" ">
<path fill="none" stroke="#63b8ff" d="M97.4,-247.38C117.49,-274.03 155.78,-319.76 199,-345.5 201.47,-346.97 204.02,-348.37 206.63,-349.71"/>
<polygon fill="#63b8ff" stroke="#63b8ff" points="205.17,-352.89 215.71,-353.98 208.16,-346.55 205.17,-352.89"/>
</a>
</g>
</g>
<!-- Node5 -->
<g id="Node000005" class="node">
<title>Node5</title>
<g id="a_Node000005"><a xlink:href="classdnf__composer_1_1user__interface_1_1SimulationWindow.html#a3630c30901d2b73b1eaa20b40825f6f4" target="_top" xlink:title=" ">
<polygon fill="white" stroke="#666666" points="396.5,-336 206.5,-336 206.5,-295 396.5,-295 396.5,-336"/>
<text text-anchor="start" x="214.5" y="-324" font-family="Helvetica,sans-Serif" font-size="10.00">dnf_composer::user</text>
<text text-anchor="start" x="214.5" y="-313" font-family="Helvetica,sans-Serif" font-size="10.00">_interface::SimulationWindow</text>
<text text-anchor="middle" x="301.5" y="-302" font-family="Helvetica,sans-Serif" font-size="10.00">::renderLogElementParametersCard</text>
</a>
</g>
</g>
<!-- Node1&#45;&gt;Node5 -->
<g id="edge4_Node000001_Node000005" class="edge">
<title>Node1&#45;&gt;Node5</title>
<g id="a_edge4_Node000001_Node000005"><a xlink:title=" ">
<path fill="none" stroke="#63b8ff" d="M117.85,-247.03C140.52,-259.6 170.87,-275.36 199,-286.5 203.5,-288.28 208.16,-290.01 212.88,-291.66"/>
<polygon fill="#63b8ff" stroke="#63b8ff" points="212.07,-295.08 222.66,-294.97 214.31,-288.45 212.07,-295.08"/>
</a>
</g>
</g>
<!-- Node6 -->
<g id="Node000006" class="node">
<title>Node6</title>
<g id="a_Node000006"><a xlink:href="classdnf__composer_1_1user__interface_1_1SimulationWindow.html#a58938ca889b91293bb674ffdef45b226" target="_top" xlink:title=" ">
<polygon fill="white" stroke="#666666" points="383,-277 220,-277 220,-236 383,-236 383,-277"/>
<text text-anchor="start" x="228" y="-265" font-family="Helvetica,sans-Serif" font-size="10.00">dnf_composer::user</text>
<text text-anchor="start" x="228" y="-254" font-family="Helvetica,sans-Serif" font-size="10.00">_interface::SimulationWindow</text>
<text text-anchor="middle" x="301.5" y="-243" font-family="Helvetica,sans-Serif" font-size="10.00">::renderRemoveElementCard</text>
</a>
</g>
</g>
<!-- Node1&#45;&gt;Node6 -->
<g id="edge5_Node000001_Node000006" class="edge">
<title>Node1&#45;&gt;Node6</title>
<g id="a_edge5_Node000001_Node000006"><a xlink:title=" ">
<path fill="none" stroke="#63b8ff" d="M163.06,-237.59C178.28,-239.68 194.3,-241.88 209.81,-244.02"/>
<polygon fill="#63b8ff" stroke="#63b8ff" points="209.53,-247.51 219.91,-245.41 210.48,-240.58 209.53,-247.51"/>
</a>
</g>
</g>
<!-- Node7 -->
<g id="Node000007" class="node">
<title>Node7</title>
<g id="a_Node000007"><a xlink:href="classdnf__composer_1_1user__interface_1_1SimulationWindow.html#abf457e8c59e1953591a17904653a4f2d" target="_top" xlink:title=" ">
<polygon fill="white" stroke="#666666" points="383,-159 220,-159 220,-118 383,-118 383,-159"/>
<text text-anchor="start" x="228" y="-147" font-family="Helvetica,sans-Serif" font-size="10.00">dnf_composer::user</text>
<text text-anchor="start" x="228" y="-136" font-family="Helvetica,sans-Serif" font-size="10.00">_interface::SimulationWindow</text>
<text text-anchor="middle" x="301.5" y="-125" font-family="Helvetica,sans-Serif" font-size="10.00">::renderRunForIterationsCard</text>
</a>
</g>
</g>
<!-- Node1&#45;&gt;Node7 -->
<g id="edge6_Node000001_Node000007" class="edge">
<title>Node1&#45;&gt;Node7</title>
<g id="a_edge6_Node000001_Node000007"><a xlink:title=" ">
<path fill="none" stroke="#63b8ff" d="M119.52,-205.99C142.05,-194.04 171.67,-179.25 199,-168.5 204.42,-166.37 210.06,-164.3 215.77,-162.32"/>
<polygon fill="#63b8ff" stroke="#63b8ff" points="217.08,-165.58 225.44,-159.07 214.85,-158.94 217.08,-165.58"/>
</a>
</g>
</g>
<!-- Node9 -->
<g id="Node000009" class="node">
<title>Node9</title>
<g id="a_Node000009"><a xlink:href="classdnf__composer_1_1user__interface_1_1SimulationWindow.html#a1752634b611833df6dc90fe09952eaef" target="_top" xlink:title=" ">
<polygon fill="white" stroke="#666666" points="383,-218 220,-218 220,-177 383,-177 383,-218"/>
<text text-anchor="start" x="228" y="-206" font-family="Helvetica,sans-Serif" font-size="10.00">dnf_composer::user</text>
<text text-anchor="start" x="228" y="-195" font-family="Helvetica,sans-Serif" font-size="10.00">_interface::SimulationWindow</text>
<text text-anchor="middle" x="301.5" y="-184" font-family="Helvetica,sans-Serif" font-size="10.00">::renderSetInteractionCard</text>
</a>
</g>
</g>
<!-- Node1&#45;&gt;Node9 -->
<g id="edge8_Node000001_Node000009" class="edge">
<title>Node1&#45;&gt;Node9</title>
<g id="a_edge8_Node000001_Node000009"><a xlink:title=" ">
<path fill="none" stroke="#63b8ff" d="M163.06,-215.78C178.28,-213.76 194.3,-211.63 209.81,-209.56"/>
<polygon fill="#63b8ff" stroke="#63b8ff" points="210.46,-213.01 219.91,-208.22 209.54,-206.07 210.46,-213.01"/>
</a>
</g>
</g>
<!-- Node10 -->
<g id="Node000010" class="node">
<title>Node10</title>
<g id="a_Node000010"><a xlink:href="classdnf__composer_1_1user__interface_1_1SimulationWindow.html#aac4b37a12ff9f9a25d5e07be89561feb" target="_top" xlink:title=" ">
<polygon fill="white" stroke="#666666" points="386.5,-100 216.5,-100 216.5,-59 386.5,-59 386.5,-100"/>
<text text-anchor="start" x="224.5" y="-88" font-family="Helvetica,sans-Serif" font-size="10.00">dnf_composer::user</text>
<text text-anchor="start" x="224.5" y="-77" font-family="Helvetica,sans-Serif" font-size="10.00">_interface::SimulationWindow</text>
<text text-anchor="middle" x="301.5" y="-66" font-family="Helvetica,sans-Serif" font-size="10.00">::renderSimulationControlsCard</text>
</a>
</g>
</g>
<!-- Node1&#45;&gt;Node10 -->
<g id="edge10_Node000001_Node000010" class="edge">
<title>Node1&#45;&gt;Node10</title>
<g id="a_edge10_Node000001_Node000010"><a xlink:title=" ">
<path fill="none" stroke="#63b8ff" d="M97.44,-205.8C117.57,-179.38 155.91,-134.04 199,-108.5 201.63,-106.94 204.36,-105.46 207.15,-104.05"/>
<polygon fill="#63b8ff" stroke="#63b8ff" points="208.66,-107.21 216.25,-99.82 205.71,-100.86 208.66,-107.21"/>
</a>
</g>
</g>
<!-- Node12 -->
<g id="Node000012" class="node">
<title>Node12</title>
<g id="a_Node000012"><a xlink:href="classdnf__composer_1_1user__interface_1_1SimulationWindow.html#a19c0195f5337f676bd9920e05d199591" target="_top" xlink:title=" ">
<polygon fill="white" stroke="#666666" points="394,-41 209,-41 209,0 394,0 394,-41"/>
<text text-anchor="start" x="217" y="-29" font-family="Helvetica,sans-Serif" font-size="10.00">dnf_composer::user</text>
<text text-anchor="start" x="217" y="-18" font-family="Helvetica,sans-Serif" font-size="10.00">_interface::SimulationWindow</text>
<text text-anchor="middle" x="301.5" y="-7" font-family="Helvetica,sans-Serif" font-size="10.00">::renderSimulationParametersCard</text>
</a>
</g>
</g>
<!-- Node1&#45;&gt;Node12 -->
<g id="edge12_Node000001_Node000012" class="edge">
<title>Node1&#45;&gt;Node12</title>
<g id="a_edge12_Node000001_Node000012"><a xlink:title=" ">
<path fill="none" stroke="#63b8ff" d="M90.38,-205.82C105.59,-168.74 142.52,-90.99 199,-49.5 200.61,-48.32 202.26,-47.19 203.95,-46.1"/>
<polygon fill="#63b8ff" stroke="#63b8ff" points="205.8,-49.08 212.72,-41.05 202.31,-43.01 205.8,-49.08"/>
</a>
</g>
</g>
<!-- Node3 -->
<g id="Node000003" class="node">
<title>Node3</title>
<g id="a_Node000003"><a xlink:href="namespacednf__composer_1_1user__interface_1_1widgets.html#a9c6e294d502952377736e23b9f120276" target="_top" xlink:title=" ">
<polygon fill="white" stroke="#666666" points="559,-336 446,-336 446,-295 559,-295 559,-336"/>
<text text-anchor="start" x="454" y="-324" font-family="Helvetica,sans-Serif" font-size="10.00">dnf_composer::user</text>
<text text-anchor="start" x="454" y="-313" font-family="Helvetica,sans-Serif" font-size="10.00">_interface::widgets</text>
<text text-anchor="middle" x="502.5" y="-302" font-family="Helvetica,sans-Serif" font-size="10.00">::renderHelpMarker</text>
</a>
</g>
</g>
<!-- Node2&#45;&gt;Node3 -->
<g id="edge2_Node000002_Node000003" class="edge">
<title>Node2&#45;&gt;Node3</title>
<g id="a_edge2_Node000002_Node000003"><a xlink:title=" ">
<path fill="none" stroke="#63b8ff" d="M383.14,-414.24C390.38,-411.39 397.44,-408.16 404,-404.5 432.27,-388.72 459.02,-363.26 477.33,-343.6"/>
<polygon fill="#63b8ff" stroke="#63b8ff" points="480.01,-345.87 484.16,-336.12 474.83,-341.15 480.01,-345.87"/>
</a>
</g>
</g>
<!-- Node8 -->
<g id="Node000008" class="node">
<title>Node8</title>
<g id="a_Node000008"><a xlink:href="namespacednf__composer_1_1tools_1_1logger.html#af64ef64b3026606a73972fdcae2ca87a" target="_top" xlink:title=" ">
<polygon fill="white" stroke="#666666" points="560.5,-153.5 444.5,-153.5 444.5,-123.5 560.5,-123.5 560.5,-153.5"/>
<text text-anchor="start" x="452.5" y="-141.5" font-family="Helvetica,sans-Serif" font-size="10.00">dnf_composer::tools</text>
<text text-anchor="middle" x="502.5" y="-130.5" font-family="Helvetica,sans-Serif" font-size="10.00">::logger::log</text>
</a>
</g>
</g>
<!-- Node7&#45;&gt;Node8 -->
<g id="edge7_Node000007_Node000008" class="edge">
<title>Node7&#45;&gt;Node8</title>
<g id="a_edge7_Node000007_Node000008"><a xlink:title=" ">
<path fill="none" stroke="#63b8ff" d="M383.15,-138.5C400.11,-138.5 417.82,-138.5 434.22,-138.5"/>
<polygon fill="#63b8ff" stroke="#63b8ff" points="434.24,-142 444.24,-138.5 434.24,-135 434.24,-142"/>
</a>
</g>
</g>
<!-- Node9&#45;&gt;Node3 -->
<g id="edge9_Node000009_Node000003" class="edge">
<title>Node9&#45;&gt;Node3</title>
<g id="a_edge9_Node000009_Node000003"><a xlink:title=" ">
<path fill="none" stroke="#63b8ff" d="M383.12,-217.64C390.36,-220.54 397.43,-223.82 404,-227.5 431.92,-243.15 458.54,-268.09 476.88,-287.43"/>
<polygon fill="#63b8ff" stroke="#63b8ff" points="474.36,-289.87 483.74,-294.81 479.49,-285.1 474.36,-289.87"/>
</a>
</g>
</g>
<!-- Node11 -->
<g id="Node000011" class="node">
<title>Node11</title>
<g id="a_Node000011"><a xlink:href="namespacednf__composer_1_1user__interface_1_1widgets.html#abebd873e7af3d84c1dc4d4e8d75b474e" target="_top" xlink:title=" ">
<polygon fill="white" stroke="#666666" points="565,-100 440,-100 440,-59 565,-59 565,-100"/>
<text text-anchor="start" x="448" y="-88" font-family="Helvetica,sans-Serif" font-size="10.00">dnf_composer::user</text>
<text text-anchor="start" x="448" y="-77" font-family="Helvetica,sans-Serif" font-size="10.00">_interface::widgets</text>
<text text-anchor="middle" x="502.5" y="-66" font-family="Helvetica,sans-Serif" font-size="10.00">::renderIconTileButton</text>
</a>
</g>
</g>
<!-- Node10&#45;&gt;Node11 -->
<g id="edge11_Node000010_Node000011" class="edge">
<title>Node10&#45;&gt;Node11</title>
<g id="a_edge11_Node000010_Node000011"><a xlink:title=" ">
<path fill="none" stroke="#63b8ff" d="M386.61,-79.5C400.95,-79.5 415.72,-79.5 429.71,-79.5"/>
<polygon fill="#63b8ff" stroke="#63b8ff" points="429.73,-83 439.73,-79.5 429.73,-76 429.73,-83"/>
</a>
</g>
</g>
</g>
</svg>
