<?xml version="1.0" encoding="UTF-8" standalone="no"?>
<!DOCTYPE svg PUBLIC "-//W3C//DTD SVG 1.1//EN"
 "http://www.w3.org/Graphics/SVG/1.1/DTD/svg11.dtd">
<!-- Generated by graphviz version 2.43.0 (0)
 -->
<!-- Title: dnf_composer::element::NeuralField Pages: 1 -->
<svg width="193pt" height="755pt"
 viewBox="0.00 0.00 193.00 755.00" xmlns="http://www.w3.org/2000/svg" xmlns:xlink="http://www.w3.org/1999/xlink">
<g id="graph0" class="graph" transform="scale(1 1) rotate(0) translate(4 751)">
<title>dnf_composer::element::NeuralField</title>
<!-- Node1 -->
<g id="Node000001" class="node">
<title>Node1</title>
<g id="a_Node000001"><a xlink:title="Continuous attractor neural field — the core DFT building block.">
<polygon fill="#999999" stroke="transparent" points="168,-360 17,-360 17,0 168,0 168,-360"/>
<text text-anchor="start" x="35" y="-348" font-family="Helvetica,sans-Serif" font-size="10.00">dnf_composer::element</text>
<text text-anchor="start" x="62" y="-337" font-family="Helvetica,sans-Serif" font-size="10.00">::NeuralField</text>
<text text-anchor="start" x="21.5" y="-322" font-family="Helvetica,sans-Serif" font-size="10.00">#</text>
<text text-anchor="start" x="34.5" y="-322" font-family="Helvetica,sans-Serif" font-size="10.00">parameters</text>
<text text-anchor="start" x="21.5" y="-307" font-family="Helvetica,sans-Serif" font-size="10.00">#</text>
<text text-anchor="start" x="34.5" y="-307" font-family="Helvetica,sans-Serif" font-size="10.00">state</text>
<text text-anchor="start" x="21.5" y="-292" font-family="Helvetica,sans-Serif" font-size="10.00">+</text>
<text text-anchor="start" x="34.5" y="-292" font-family="Helvetica,sans-Serif" font-size="10.00">clone()</text>
<text text-anchor="start" x="21.5" y="-277" font-family="Helvetica,sans-Serif" font-size="10.00">+</text>
<text text-anchor="start" x="34.5" y="-277" font-family="Helvetica,sans-Serif" font-size="10.00">getBumps()</text>
<text text-anchor="start" x="21.5" y="-262" font-family="Helvetica,sans-Serif" font-size="10.00">+</text>
<text text-anchor="start" x="34.5" y="-262" font-family="Helvetica,sans-Serif" font-size="10.00">getHighestActivation()</text>
<text text-anchor="start" x="21.5" y="-247" font-family="Helvetica,sans-Serif" font-size="10.00">+</text>
<text text-anchor="start" x="34.5" y="-247" font-family="Helvetica,sans-Serif" font-size="10.00">getLowestActivation()</text>
<text text-anchor="start" x="21.5" y="-232" font-family="Helvetica,sans-Serif" font-size="10.00">+</text>
<text text-anchor="start" x="34.5" y="-232" font-family="Helvetica,sans-Serif" font-size="10.00">getParameters()</text>
<text text-anchor="start" x="21.5" y="-217" font-family="Helvetica,sans-Serif" font-size="10.00">+</text>
<text text-anchor="start" x="34.5" y="-217" font-family="Helvetica,sans-Serif" font-size="10.00">getSelfExcitationKernel()</text>
<text text-anchor="start" x="21.5" y="-202" font-family="Helvetica,sans-Serif" font-size="10.00">+</text>
<text text-anchor="start" x="34.5" y="-202" font-family="Helvetica,sans-Serif" font-size="10.00">getStabilityThreshold()</text>
<text text-anchor="start" x="21.5" y="-187" font-family="Helvetica,sans-Serif" font-size="10.00">+</text>
<text text-anchor="start" x="34.5" y="-187" font-family="Helvetica,sans-Serif" font-size="10.00">init()</text>
<text text-anchor="start" x="21.5" y="-172" font-family="Helvetica,sans-Serif" font-size="10.00">+</text>
<text text-anchor="start" x="34.5" y="-172" font-family="Helvetica,sans-Serif" font-size="10.00">isStable()</text>
<text text-anchor="start" x="21.5" y="-157" font-family="Helvetica,sans-Serif" font-size="10.00">+</text>
<text text-anchor="start" x="34.5" y="-157" font-family="Helvetica,sans-Serif" font-size="10.00">NeuralField()</text>
<text text-anchor="start" x="21.5" y="-142" font-family="Helvetica,sans-Serif" font-size="10.00">+</text>
<text text-anchor="start" x="34.5" y="-142" font-family="Helvetica,sans-Serif" font-size="10.00">setParameters()</text>
<text text-anchor="start" x="21.5" y="-127" font-family="Helvetica,sans-Serif" font-size="10.00">+</text>
<text text-anchor="start" x="34.5" y="-127" font-family="Helvetica,sans-Serif" font-size="10.00">setThresholdForStability()</text>
<text text-anchor="start" x="21.5" y="-112" font-family="Helvetica,sans-Serif" font-size="10.00">+</text>
<text text-anchor="start" x="34.5" y="-112" font-family="Helvetica,sans-Serif" font-size="10.00">step()</text>
<text text-anchor="start" x="21.5" y="-97" font-family="Helvetica,sans-Serif" font-size="10.00">+</text>
<text text-anchor="start" x="34.5" y="-97" font-family="Helvetica,sans-Serif" font-size="10.00">toString()</text>
<text text-anchor="start" x="21.5" y="-82" font-family="Helvetica,sans-Serif" font-size="10.00">#</text>
<text text-anchor="start" x="34.5" y="-82" font-family="Helvetica,sans-Serif" font-size="10.00">calculateActivation()</text>
<text text-anchor="start" x="21.5" y="-67" font-family="Helvetica,sans-Serif" font-size="10.00">#</text>
<text text-anchor="start" x="34.5" y="-67" font-family="Helvetica,sans-Serif" font-size="10.00">calculateOutput()</text>
<text text-anchor="start" x="21.5" y="-52" font-family="Helvetica,sans-Serif" font-size="10.00">#</text>
<text text-anchor="start" x="34.5" y="-52" font-family="Helvetica,sans-Serif" font-size="10.00">checkStability()</text>
<text text-anchor="start" x="21.5" y="-37" font-family="Helvetica,sans-Serif" font-size="10.00">#</text>
<text text-anchor="start" x="34.5" y="-37" font-family="Helvetica,sans-Serif" font-size="10.00">updateBumps()</text>
<text text-anchor="start" x="21.5" y="-22" font-family="Helvetica,sans-Serif" font-size="10.00">#</text>
<text text-anchor="start" x="34.5" y="-22" font-family="Helvetica,sans-Serif" font-size="10.00">updateMinMaxActivation()</text>
<text text-anchor="start" x="21.5" y="-7" font-family="Helvetica,sans-Serif" font-size="10.00">#</text>
<text text-anchor="start" x="34.5" y="-7" font-family="Helvetica,sans-Serif" font-size="10.00">updateState()</text>
<polygon fill="#666666" stroke="#666666" points="17.5,-332 17.5,-332 168.5,-332 168.5,-332 17.5,-332"/>
<polygon fill="#666666" stroke="#666666" points="17.5,-302 17.5,-302 32.5,-302 32.5,-302 17.5,-302"/>
<polygon fill="#666666" stroke="#666666" points="32.5,-302 32.5,-302 168.5,-302 168.5,-302 32.5,-302"/>
<polygon fill="none" stroke="#666666" points="17,0 17,-360 168,-360 168,0 17,0"/>
</a>
</g>
</g>
<!-- Node2 -->
<g id="Node000002" class="node">
<title>Node2</title>
<g id="a_Node000002"><a xlink:href="classdnf__composer_1_1element_1_1Element.html" target="_top" xlink:title="Abstract base class for all simulation elements.">
<polygon fill="white" stroke="transparent" points="185,-651 0,-651 0,-396 185,-396 185,-651"/>
<text text-anchor="start" x="35" y="-638.5" font-family="Helvetica,sans-Serif" font-size="10.00">dnf_composer::element</text>
<text text-anchor="start" x="69.5" y="-627.5" font-family="Helvetica,sans-Serif" font-size="10.00">::Element</text>
<text text-anchor="start" x="4.5" y="-612.5" font-family="Helvetica,sans-Serif" font-size="10.00">#</text>
<text text-anchor="start" x="17.5" y="-612.5" font-family="Helvetica,sans-Serif" font-size="10.00">commonParameters</text>
<text text-anchor="start" x="4.5" y="-597.5" font-family="Helvetica,sans-Serif" font-size="10.00">#</text>
<text text-anchor="start" x="17.5" y="-597.5" font-family="Helvetica,sans-Serif" font-size="10.00">components</text>
<text text-anchor="start" x="4.5" y="-582.5" font-family="Helvetica,sans-Serif" font-size="10.00">#</text>
<text text-anchor="start" x="17.5" y="-582.5" font-family="Helvetica,sans-Serif" font-size="10.00">inputs</text>
<text text-anchor="start" x="4.5" y="-567.5" font-family="Helvetica,sans-Serif" font-size="10.00">#</text>
<text text-anchor="start" x="17.5" y="-567.5" font-family="Helvetica,sans-Serif" font-size="10.00">outputs</text>
<text text-anchor="start" x="4.5" y="-552.5" font-family="Helvetica,sans-Serif" font-size="10.00">+</text>
<text text-anchor="start" x="17.5" y="-552.5" font-family="Helvetica,sans-Serif" font-size="10.00">addInput()</text>
<text text-anchor="start" x="4.5" y="-537.5" font-family="Helvetica,sans-Serif" font-size="10.00">+</text>
<text text-anchor="start" x="17.5" y="-537.5" font-family="Helvetica,sans-Serif" font-size="10.00">changeDimensions()</text>
<text text-anchor="start" x="4.5" y="-522.5" font-family="Helvetica,sans-Serif" font-size="10.00">+</text>
<text text-anchor="start" x="17.5" y="-522.5" font-family="Helvetica,sans-Serif" font-size="10.00">clone()</text>
<text text-anchor="start" x="4.5" y="-507.5" font-family="Helvetica,sans-Serif" font-size="10.00">+</text>
<text text-anchor="start" x="17.5" y="-507.5" font-family="Helvetica,sans-Serif" font-size="10.00">close()</text>
<text text-anchor="start" x="4.5" y="-492.5" font-family="Helvetica,sans-Serif" font-size="10.00">+</text>
<text text-anchor="start" x="17.5" y="-492.5" font-family="Helvetica,sans-Serif" font-size="10.00">Element()</text>
<text text-anchor="start" x="4.5" y="-477.5" font-family="Helvetica,sans-Serif" font-size="10.00">+</text>
<text text-anchor="start" x="17.5" y="-477.5" font-family="Helvetica,sans-Serif" font-size="10.00">getComponent()</text>
<text text-anchor="start" x="4.5" y="-462.5" font-family="Helvetica,sans-Serif" font-size="10.00">+</text>
<text text-anchor="start" x="17.5" y="-462.5" font-family="Helvetica,sans-Serif" font-size="10.00">getComponentList()</text>
<text text-anchor="start" x="4.5" y="-447.5" font-family="Helvetica,sans-Serif" font-size="10.00">+</text>
<text text-anchor="start" x="17.5" y="-447.5" font-family="Helvetica,sans-Serif" font-size="10.00">getComponentPtr()</text>
<text text-anchor="start" x="4.5" y="-432.5" font-family="Helvetica,sans-Serif" font-size="10.00">+</text>
<text text-anchor="start" x="17.5" y="-432.5" font-family="Helvetica,sans-Serif" font-size="10.00">getComponents()</text>
<text text-anchor="start" x="4.5" y="-417.5" font-family="Helvetica,sans-Serif" font-size="10.00">+</text>
<text text-anchor="start" x="17.5" y="-417.5" font-family="Helvetica,sans-Serif" font-size="10.00">getElementCommonParameters()</text>
<text text-anchor="start" x="17.5" y="-402.5" font-family="Helvetica,sans-Serif" font-size="10.00">and 27 more...</text>
<polygon fill="#666666" stroke="#666666" points="0.5,-622.5 0.5,-622.5 185.5,-622.5 185.5,-622.5 0.5,-622.5"/>
<polygon fill="#666666" stroke="#666666" points="0.5,-562.5 0.5,-562.5 15.5,-562.5 15.5,-562.5 0.5,-562.5"/>
<polygon fill="#666666" stroke="#666666" points="15.5,-562.5 15.5,-562.5 185.5,-562.5 185.5,-562.5 15.5,-562.5"/>
<polygon fill="none" stroke="#666666" points="0,-396 0,-651 185,-651 185,-396 0,-396"/>
</a>
</g>
</g>
<!-- Node2&#45;&gt;Node1 -->
<g id="edge1_Node000001_Node000002" class="edge">
<title>Node2&#45;&gt;Node1</title>
<g id="a_edge1_Node000001_Node000002"><a xlink:title=" ">
<path fill="none" stroke="#63b8ff" d="M92.5,-385.63C92.5,-377.23 92.5,-368.7 92.5,-360.16"/>
<polygon fill="none" stroke="#63b8ff" points="89,-385.82 92.5,-395.82 96,-385.82 89,-385.82"/>
</a>
</g>
</g>
<!-- Node3 -->
<g id="Node000003" class="node">
<title>Node3</title>
<g id="a_Node000003"><a xlink:title=" ">
<polygon fill="white" stroke="transparent" points="155,-747 30,-747 30,-687 155,-687 155,-747"/>
<text text-anchor="start" x="35.5" y="-735" font-family="Helvetica,sans-Serif" font-size="10.00">std::enable_shared</text>
<text text-anchor="start" x="35.5" y="-724" font-family="Helvetica,sans-Serif" font-size="10.00">_from_this&lt; Element &gt;</text>
<text text-anchor="start" x="91" y="-709" font-family="Helvetica,sans-Serif" font-size="10.00"> </text>
<text text-anchor="start" x="91" y="-694" font-family="Helvetica,sans-Serif" font-size="10.00"> </text>
<polygon fill="#666666" stroke="#666666" points="30.5,-719 30.5,-719 155.5,-719 155.5,-719 30.5,-719"/>
<polygon fill="#666666" stroke="#666666" points="30.5,-704 30.5,-704 155.5,-704 155.5,-704 30.5,-704"/>
<polygon fill="none" stroke="#666666" points="30,-687 30,-747 155,-747 155,-687 30,-687"/>
</a>
</g>
</g>
<!-- Node3&#45;&gt;Node2 -->
<g id="edge2_Node000002_Node000003" class="edge">
<title>Node3&#45;&gt;Node2</title>
<g id="a_edge2_Node000002_Node000003"><a xlink:title=" ">
<path fill="none" stroke="#63b8ff" d="M92.5,-676.74C92.5,-668.9 92.5,-660.27 92.5,-651.23"/>
<polygon fill="none" stroke="#63b8ff" points="89,-676.92 92.5,-686.92 96,-676.92 89,-676.92"/>
</a>
</g>
</g>
</g>
</svg>
