<?xml version="1.0" encoding="UTF-8" standalone="no"?>
<!DOCTYPE svg PUBLIC "-//W3C//DTD SVG 1.1//EN"
 "http://www.w3.org/Graphics/SVG/1.1/DTD/svg11.dtd">
<!-- Generated by graphviz version 2.43.0 (0)
 -->
<!-- Title: dnf_composer::element::BoostStimulus::toString Pages: 1 -->
<svg width="512pt" height="137pt"
 viewBox="0.00 0.00 512.00 137.00" xmlns="http://www.w3.org/2000/svg" xmlns:xlink="http://www.w3.org/1999/xlink">
<g id="graph0" class="graph" transform="scale(1 1) rotate(0) translate(4 133)">
<title>dnf_composer::element::BoostStimulus::toString</title>
<!-- Node1 -->
<g id="Node000001" class="node">
<title>Node1</title>
<g id="a_Node000001"><a xlink:title=" ">
<polygon fill="#999999" stroke="#666666" points="137,-64.5 0,-64.5 0,-34.5 137,-34.5 137,-64.5"/>
<text text-anchor="start" x="8" y="-52.5" font-family="Helvetica,sans-Serif" font-size="10.00">dnf_composer::element</text>
<text text-anchor="middle" x="68.5" y="-41.5" font-family="Helvetica,sans-Serif" font-size="10.00">::BoostStimulus::toString</text>
</a>
</g>
</g>
<!-- Node2 -->
<g id="Node000002" class="node">
<title>Node2</title>
<g id="a_Node000002"><a xlink:href="structdnf__composer_1_1element_1_1ElementCommonParameters.html#a83c667c71a22c80a0e415da7fab9795b" target="_top" xlink:title=" ">
<polygon fill="white" stroke="#666666" points="336,-100 173,-100 173,-59 336,-59 336,-100"/>
<text text-anchor="start" x="181" y="-88" font-family="Helvetica,sans-Serif" font-size="10.00">dnf_composer::element</text>
<text text-anchor="start" x="181" y="-77" font-family="Helvetica,sans-Serif" font-size="10.00">::ElementCommonParameters</text>
<text text-anchor="middle" x="254.5" y="-66" font-family="Helvetica,sans-Serif" font-size="10.00">::toString</text>
</a>
</g>
</g>
<!-- Node1&#45;&gt;Node2 -->
<g id="edge1_Node000001_Node000002" class="edge">
<title>Node1&#45;&gt;Node2</title>
<g id="a_edge1_Node000001_Node000002"><a xlink:title=" ">
<path fill="none" stroke="#63b8ff" d="M137.23,-60.54C145.55,-61.9 154.16,-63.3 162.75,-64.7"/>
<polygon fill="#63b8ff" stroke="#63b8ff" points="162.38,-68.19 172.82,-66.35 163.51,-61.28 162.38,-68.19"/>
</a>
</g>
</g>
<!-- Node5 -->
<g id="Node000005" class="node">
<title>Node5</title>
<g id="a_Node000005"><a xlink:href="structdnf__composer_1_1element_1_1BoostStimulusParameters.html#a2ef28a0565ed4ad370e9dc61a0b081fd" target="_top" xlink:title=" ">
<polygon fill="white" stroke="#666666" points="329,-41 180,-41 180,0 329,0 329,-41"/>
<text text-anchor="start" x="188" y="-29" font-family="Helvetica,sans-Serif" font-size="10.00">dnf_composer::element</text>
<text text-anchor="start" x="188" y="-18" font-family="Helvetica,sans-Serif" font-size="10.00">::BoostStimulusParameters</text>
<text text-anchor="middle" x="254.5" y="-7" font-family="Helvetica,sans-Serif" font-size="10.00">::toString</text>
</a>
</g>
</g>
<!-- Node1&#45;&gt;Node5 -->
<g id="edge4_Node000001_Node000005" class="edge">
<title>Node1&#45;&gt;Node5</title>
<g id="a_edge4_Node000001_Node000005"><a xlink:title=" ">
<path fill="none" stroke="#63b8ff" d="M137.23,-38.83C147.82,-37.16 158.88,-35.41 169.77,-33.7"/>
<polygon fill="#63b8ff" stroke="#63b8ff" points="170.39,-37.14 179.72,-32.13 169.3,-30.23 170.39,-37.14"/>
</a>
</g>
</g>
<!-- Node3 -->
<g id="Node000003" class="node">
<title>Node3</title>
<g id="a_Node000003"><a xlink:href="structdnf__composer_1_1element_1_1ElementDimensions.html#a1e2439e8cba19f3bf61a48cdd01c4fc7" target="_top" xlink:title=" ">
<polygon fill="white" stroke="#666666" points="504,-129 372,-129 372,-88 504,-88 504,-129"/>
<text text-anchor="start" x="380" y="-117" font-family="Helvetica,sans-Serif" font-size="10.00">dnf_composer::element</text>
<text text-anchor="start" x="380" y="-106" font-family="Helvetica,sans-Serif" font-size="10.00">::ElementDimensions::</text>
<text text-anchor="middle" x="438" y="-95" font-family="Helvetica,sans-Serif" font-size="10.00">toString</text>
</a>
</g>
</g>
<!-- Node2&#45;&gt;Node3 -->
<g id="edge2_Node000002_Node000003" class="edge">
<title>Node2&#45;&gt;Node3</title>
<g id="a_edge2_Node000002_Node000003"><a xlink:title=" ">
<path fill="none" stroke="#63b8ff" d="M336.17,-92.39C344.74,-93.76 353.44,-95.15 361.94,-96.51"/>
<polygon fill="#63b8ff" stroke="#63b8ff" points="361.39,-99.96 371.82,-98.09 362.5,-93.05 361.39,-99.96"/>
</a>
</g>
</g>
<!-- Node4 -->
<g id="Node000004" class="node">
<title>Node4</title>
<g id="a_Node000004"><a xlink:href="structdnf__composer_1_1element_1_1ElementIdentifiers.html#a0eb01a994b1696c38ea371454620d2d4" target="_top" xlink:title=" ">
<polygon fill="white" stroke="#666666" points="504,-70 372,-70 372,-29 504,-29 504,-70"/>
<text text-anchor="start" x="380" y="-58" font-family="Helvetica,sans-Serif" font-size="10.00">dnf_composer::element</text>
<text text-anchor="start" x="380" y="-47" font-family="Helvetica,sans-Serif" font-size="10.00">::ElementIdentifiers</text>
<text text-anchor="middle" x="438" y="-36" font-family="Helvetica,sans-Serif" font-size="10.00">::toString</text>
</a>
</g>
</g>
<!-- Node2&#45;&gt;Node4 -->
<g id="edge3_Node000002_Node000004" class="edge">
<title>Node2&#45;&gt;Node4</title>
<g id="a_edge3_Node000002_Node000004"><a xlink:title=" ">
<path fill="none" stroke="#63b8ff" d="M336.17,-66.17C344.74,-64.75 353.44,-63.31 361.94,-61.91"/>
<polygon fill="#63b8ff" stroke="#63b8ff" points="362.53,-65.36 371.82,-60.27 361.38,-58.45 362.53,-65.36"/>
</a>
</g>
</g>
</g>
</svg>
