<?xml version="1.0" encoding="UTF-8" standalone="no"?>
<!DOCTYPE svg PUBLIC "-//W3C//DTD SVG 1.1//EN"
 "http://www.w3.org/Graphics/SVG/1.1/DTD/svg11.dtd">
<!-- Generated by graphviz version 2.43.0 (0)
 -->
<!-- Title: dnf_composer::element::Element::getUniqueName Pages: 1 -->
<svg width="575pt" height="524pt"
 viewBox="0.00 0.00 575.00 524.00" xmlns="http://www.w3.org/2000/svg" xmlns:xlink="http://www.w3.org/1999/xlink">
<g id="graph0" class="graph" transform="scale(1 1) rotate(0) translate(4 520)">
<title>dnf_composer::element::Element::getUniqueName</title>
<!-- Node1 -->
<g id="Node000001" class="node">
<title>Node1</title>
<g id="a_Node000001"><a xlink:title=" ">
<polygon fill="#999999" stroke="#666666" points="567,-270 418,-270 418,-240 567,-240 567,-270"/>
<text text-anchor="start" x="426" y="-258" font-family="Helvetica,sans-Serif" font-size="10.00">dnf_composer::element</text>
<text text-anchor="middle" x="492.5" y="-247" font-family="Helvetica,sans-Serif" font-size="10.00">::Element::getUniqueName</text>
</a>
</g>
</g>
<!-- Node2 -->
<g id="Node000002" class="node">
<title>Node2</title>
<g id="a_Node000002"><a xlink:href="classdnf__composer_1_1element_1_1Element.html#aed78b4e2f69bf55673030220bbef6650" target="_top" xlink:title="Register inputElement as an upstream source for this element.">
<polygon fill="white" stroke="#666666" points="367.5,-515 235.5,-515 235.5,-485 367.5,-485 367.5,-515"/>
<text text-anchor="start" x="243.5" y="-503" font-family="Helvetica,sans-Serif" font-size="10.00">dnf_composer::element</text>
<text text-anchor="middle" x="301.5" y="-492" font-family="Helvetica,sans-Serif" font-size="10.00">::Element::addInput</text>
</a>
</g>
</g>
<!-- Node1&#45;&gt;Node2 -->
<g id="edge1_Node000001_Node000002" class="edge">
<title>Node1&#45;&gt;Node2</title>
<g id="a_edge1_Node000001_Node000002"><a xlink:title=" ">
<path fill="none" stroke="#63b8ff" d="M485.92,-279.99C474.48,-325.49 444.02,-422.03 382,-475 377.49,-478.85 372.38,-482.11 366.99,-484.87"/>
<polygon fill="#63b8ff" stroke="#63b8ff" points="489.37,-280.62 488.32,-270.08 482.57,-278.98 489.37,-280.62"/>
</a>
</g>
</g>
<!-- Node4 -->
<g id="Node000004" class="node">
<title>Node4</title>
<g id="a_Node000004"><a xlink:href="classdnf__composer_1_1element_1_1GaussStimulus.html#a3677ed68684c7cd362e7e54f42fafb06" target="_top" xlink:title="Initialize the element (called once before the simulation loop).">
<polygon fill="white" stroke="#666666" points="367.5,-466 235.5,-466 235.5,-436 367.5,-436 367.5,-466"/>
<text text-anchor="start" x="243.5" y="-454" font-family="Helvetica,sans-Serif" font-size="10.00">dnf_composer::element</text>
<text text-anchor="middle" x="301.5" y="-443" font-family="Helvetica,sans-Serif" font-size="10.00">::GaussStimulus::init</text>
</a>
</g>
</g>
<!-- Node1&#45;&gt;Node4 -->
<g id="edge3_Node000001_Node000004" class="edge">
<title>Node1&#45;&gt;Node4</title>
<g id="a_edge3_Node000001_Node000004"><a xlink:title=" ">
<path fill="none" stroke="#63b8ff" d="M482.21,-279.62C466.94,-316.76 433.06,-386.94 382,-426 376.94,-429.87 371.28,-433.14 365.36,-435.92"/>
<polygon fill="#63b8ff" stroke="#63b8ff" points="485.56,-280.65 486.02,-270.07 479.06,-278.06 485.56,-280.65"/>
</a>
</g>
</g>
<!-- Node6 -->
<g id="Node000006" class="node">
<title>Node6</title>
<g id="a_Node000006"><a xlink:href="classdnf__composer_1_1element_1_1GaussStimulus2D.html#a942b7e1646c800e33517bf0d694eb128" target="_top" xlink:title="Initialize the element (called once before the simulation loop).">
<polygon fill="white" stroke="#666666" points="367.5,-417 235.5,-417 235.5,-387 367.5,-387 367.5,-417"/>
<text text-anchor="start" x="243.5" y="-405" font-family="Helvetica,sans-Serif" font-size="10.00">dnf_composer::element</text>
<text text-anchor="middle" x="301.5" y="-394" font-family="Helvetica,sans-Serif" font-size="10.00">::GaussStimulus2D::init</text>
</a>
</g>
</g>
<!-- Node1&#45;&gt;Node6 -->
<g id="edge5_Node000001_Node000006" class="edge">
<title>Node1&#45;&gt;Node6</title>
<g id="a_edge5_Node000001_Node000006"><a xlink:title=" ">
<path fill="none" stroke="#63b8ff" d="M475.64,-278.59C456.42,-305.48 421.65,-349.06 382,-375 374.92,-379.63 366.97,-383.54 358.91,-386.84"/>
<polygon fill="#63b8ff" stroke="#63b8ff" points="478.67,-280.36 481.54,-270.16 472.94,-276.34 478.67,-280.36"/>
</a>
</g>
</g>
<!-- Node8 -->
<g id="Node000008" class="node">
<title>Node8</title>
<g id="a_Node000008"><a xlink:href="classdnf__composer_1_1element_1_1TimedGaussStimulus.html#a7cb7acb2e4c8ece790553cb21d4c33dd" target="_top" xlink:title="Initialize the element (called once before the simulation loop).">
<polygon fill="white" stroke="#666666" points="375.5,-366 227.5,-366 227.5,-336 375.5,-336 375.5,-366"/>
<text text-anchor="start" x="235.5" y="-354" font-family="Helvetica,sans-Serif" font-size="10.00">dnf_composer::element</text>
<text text-anchor="middle" x="301.5" y="-343" font-family="Helvetica,sans-Serif" font-size="10.00">::TimedGaussStimulus::init</text>
</a>
</g>
</g>
<!-- Node1&#45;&gt;Node8 -->
<g id="edge7_Node000001_Node000008" class="edge">
<title>Node1&#45;&gt;Node8</title>
<g id="a_edge7_Node000001_Node000008"><a xlink:title=" ">
<path fill="none" stroke="#63b8ff" d="M464.07,-276.27C442.68,-292.03 411.71,-313.11 382,-327 374.95,-330.3 367.33,-333.27 359.71,-335.91"/>
<polygon fill="#63b8ff" stroke="#63b8ff" points="466.42,-278.88 472.33,-270.09 462.23,-273.27 466.42,-278.88"/>
</a>
</g>
</g>
<!-- Node10 -->
<g id="Node000010" class="node">
<title>Node10</title>
<g id="a_Node000010"><a xlink:href="classdnf__composer_1_1element_1_1TimedGaussStimulus2D.html#a283b859099270f4c90ae2aef6fefb30b" target="_top" xlink:title="Initialize the element (called once before the simulation loop).">
<polygon fill="white" stroke="#666666" points="382,-318 221,-318 221,-288 382,-288 382,-318"/>
<text text-anchor="start" x="229" y="-306" font-family="Helvetica,sans-Serif" font-size="10.00">dnf_composer::element</text>
<text text-anchor="middle" x="301.5" y="-295" font-family="Helvetica,sans-Serif" font-size="10.00">::TimedGaussStimulus2D::init</text>
</a>
</g>
</g>
<!-- Node1&#45;&gt;Node10 -->
<g id="edge9_Node000001_Node000010" class="edge">
<title>Node1&#45;&gt;Node10</title>
<g id="a_edge9_Node000001_Node000010"><a xlink:title=" ">
<path fill="none" stroke="#63b8ff" d="M422.28,-272.58C402.36,-277.64 380.82,-283.11 361.57,-288"/>
<polygon fill="#63b8ff" stroke="#63b8ff" points="423.39,-275.91 432.22,-270.06 421.66,-269.13 423.39,-275.91"/>
</a>
</g>
</g>
<!-- Node12 -->
<g id="Node000012" class="node">
<title>Node12</title>
<g id="a_Node000012"><a xlink:href="classdnf__composer_1_1element_1_1FieldCoupling.html#aed8043b5951aea5276d37e06b26f04a7" target="_top" xlink:title="Load the weight matrix from a binary file in weightsDirectory.">
<polygon fill="white" stroke="#666666" points="379,-270 224,-270 224,-240 379,-240 379,-270"/>
<text text-anchor="start" x="232" y="-258" font-family="Helvetica,sans-Serif" font-size="10.00">dnf_composer::element</text>
<text text-anchor="middle" x="301.5" y="-247" font-family="Helvetica,sans-Serif" font-size="10.00">::FieldCoupling::readWeights</text>
</a>
</g>
</g>
<!-- Node1&#45;&gt;Node12 -->
<g id="edge11_Node000001_Node000012" class="edge">
<title>Node1&#45;&gt;Node12</title>
<g id="a_edge11_Node000001_Node000012"><a xlink:title=" ">
<path fill="none" stroke="#63b8ff" d="M407.63,-255C398.11,-255 388.45,-255 379.03,-255"/>
<polygon fill="#63b8ff" stroke="#63b8ff" points="407.89,-258.5 417.89,-255 407.89,-251.5 407.89,-258.5"/>
</a>
</g>
</g>
<!-- Node14 -->
<g id="Node000014" class="node">
<title>Node14</title>
<g id="a_Node000014"><a xlink:href="classdnf__composer_1_1element_1_1Element.html#a7508a9a8d72df33b553d7a75e5138d37" target="_top" xlink:title=" ">
<polygon fill="white" stroke="#666666" points="367.5,-222 235.5,-222 235.5,-192 367.5,-192 367.5,-222"/>
<text text-anchor="start" x="243.5" y="-210" font-family="Helvetica,sans-Serif" font-size="10.00">dnf_composer::element</text>
<text text-anchor="middle" x="301.5" y="-199" font-family="Helvetica,sans-Serif" font-size="10.00">::Element::removeInput</text>
</a>
</g>
</g>
<!-- Node1&#45;&gt;Node14 -->
<g id="edge13_Node000001_Node000014" class="edge">
<title>Node1&#45;&gt;Node14</title>
<g id="a_edge13_Node000001_Node000014"><a xlink:title=" ">
<path fill="none" stroke="#63b8ff" d="M422.28,-237.42C402.36,-232.36 380.82,-226.89 361.57,-222"/>
<polygon fill="#63b8ff" stroke="#63b8ff" points="421.66,-240.87 432.22,-239.94 423.39,-234.09 421.66,-240.87"/>
</a>
</g>
</g>
<!-- Node15 -->
<g id="Node000015" class="node">
<title>Node15</title>
<g id="a_Node000015"><a xlink:href="classdnf__composer_1_1element_1_1Element.html#a5df41b16d087981d9d4f93a504648f72" target="_top" xlink:title=" ">
<polygon fill="white" stroke="#666666" points="367.5,-174 235.5,-174 235.5,-144 367.5,-144 367.5,-174"/>
<text text-anchor="start" x="243.5" y="-162" font-family="Helvetica,sans-Serif" font-size="10.00">dnf_composer::element</text>
<text text-anchor="middle" x="301.5" y="-151" font-family="Helvetica,sans-Serif" font-size="10.00">::Element::removeInput</text>
</a>
</g>
</g>
<!-- Node1&#45;&gt;Node15 -->
<g id="edge14_Node000001_Node000015" class="edge">
<title>Node1&#45;&gt;Node15</title>
<g id="a_edge14_Node000001_Node000015"><a xlink:title=" ">
<path fill="none" stroke="#63b8ff" d="M464.07,-233.73C442.68,-217.97 411.71,-196.89 382,-183 374.95,-179.7 367.33,-176.73 359.71,-174.09"/>
<polygon fill="#63b8ff" stroke="#63b8ff" points="462.23,-236.73 472.33,-239.91 466.42,-231.12 462.23,-236.73"/>
</a>
</g>
</g>
<!-- Node16 -->
<g id="Node000016" class="node">
<title>Node16</title>
<g id="a_Node000016"><a xlink:href="classdnf__composer_1_1element_1_1Element.html#a5c10d5a2d969823d9ca113bf13b7e3b3" target="_top" xlink:title="Deregister this element as an input of outputElementId.">
<polygon fill="white" stroke="#666666" points="371.5,-126 231.5,-126 231.5,-96 371.5,-96 371.5,-126"/>
<text text-anchor="start" x="239.5" y="-114" font-family="Helvetica,sans-Serif" font-size="10.00">dnf_composer::element</text>
<text text-anchor="middle" x="301.5" y="-103" font-family="Helvetica,sans-Serif" font-size="10.00">::Element::removeOutput</text>
</a>
</g>
</g>
<!-- Node1&#45;&gt;Node16 -->
<g id="edge15_Node000001_Node000016" class="edge">
<title>Node1&#45;&gt;Node16</title>
<g id="a_edge15_Node000001_Node000016"><a xlink:title=" ">
<path fill="none" stroke="#63b8ff" d="M475.79,-231.17C456.72,-204.05 422.09,-160.26 382,-135 376.63,-131.62 370.76,-128.69 364.72,-126.16"/>
<polygon fill="#63b8ff" stroke="#63b8ff" points="473.1,-233.42 481.65,-239.67 478.86,-229.45 473.1,-233.42"/>
</a>
</g>
</g>
<!-- Node17 -->
<g id="Node000017" class="node">
<title>Node17</title>
<g id="a_Node000017"><a xlink:href="classdnf__composer_1_1element_1_1Element.html#a8f63314b45ca31ced114a5f527e999c3" target="_top" xlink:title="Deregister this element as an input of the element with uniqueId.">
<polygon fill="white" stroke="#666666" points="371.5,-78 231.5,-78 231.5,-48 371.5,-48 371.5,-78"/>
<text text-anchor="start" x="239.5" y="-66" font-family="Helvetica,sans-Serif" font-size="10.00">dnf_composer::element</text>
<text text-anchor="middle" x="301.5" y="-55" font-family="Helvetica,sans-Serif" font-size="10.00">::Element::removeOutput</text>
</a>
</g>
</g>
<!-- Node1&#45;&gt;Node17 -->
<g id="edge16_Node000001_Node000017" class="edge">
<title>Node1&#45;&gt;Node17</title>
<g id="a_edge16_Node000001_Node000017"><a xlink:title=" ">
<path fill="none" stroke="#63b8ff" d="M482.03,-230.47C466.62,-193.81 432.67,-124.98 382,-87 377.39,-83.54 372.27,-80.58 366.93,-78.04"/>
<polygon fill="#63b8ff" stroke="#63b8ff" points="478.86,-231.97 485.88,-239.9 485.34,-229.32 478.86,-231.97"/>
</a>
</g>
</g>
<!-- Node18 -->
<g id="Node000018" class="node">
<title>Node18</title>
<g id="a_Node000018"><a xlink:href="classdnf__composer_1_1element_1_1FieldCoupling.html#ab74a05063b97a31c7f74ed6fd38b3954" target="_top" xlink:title="Save the current weight matrix to a binary file in weightsDirectory.">
<polygon fill="white" stroke="#666666" points="380.5,-30 222.5,-30 222.5,0 380.5,0 380.5,-30"/>
<text text-anchor="start" x="230.5" y="-18" font-family="Helvetica,sans-Serif" font-size="10.00">dnf_composer::element</text>
<text text-anchor="middle" x="301.5" y="-7" font-family="Helvetica,sans-Serif" font-size="10.00">::FieldCoupling::writeWeights</text>
</a>
</g>
</g>
<!-- Node1&#45;&gt;Node18 -->
<g id="edge17_Node000001_Node000018" class="edge">
<title>Node1&#45;&gt;Node18</title>
<g id="a_edge17_Node000001_Node000018"><a xlink:title=" ">
<path fill="none" stroke="#63b8ff" d="M485.76,-230.07C474.12,-185.14 443.46,-90.49 382,-39 377.91,-35.57 373.34,-32.64 368.52,-30.12"/>
<polygon fill="#63b8ff" stroke="#63b8ff" points="482.39,-231.01 488.2,-239.86 489.18,-229.32 482.39,-231.01"/>
</a>
</g>
</g>
<!-- Node3 -->
<g id="Node000003" class="node">
<title>Node3</title>
<g id="a_Node000003"><a xlink:href="classdnf__composer_1_1element_1_1FieldCoupling.html#aa514731154519f2d4767bad8e27ca17b" target="_top" xlink:title="Register inputElement as an upstream source for this element.">
<polygon fill="white" stroke="#666666" points="161,-516 24,-516 24,-486 161,-486 161,-516"/>
<text text-anchor="start" x="32" y="-504" font-family="Helvetica,sans-Serif" font-size="10.00">dnf_composer::element</text>
<text text-anchor="middle" x="92.5" y="-493" font-family="Helvetica,sans-Serif" font-size="10.00">::FieldCoupling::addInput</text>
</a>
</g>
</g>
<!-- Node2&#45;&gt;Node3 -->
<g id="edge2_Node000002_Node000003" class="edge">
<title>Node2&#45;&gt;Node3</title>
<g id="a_edge2_Node000002_Node000003"><a xlink:title=" ">
<path fill="none" stroke="#63b8ff" d="M225.17,-500.36C204.26,-500.46 181.69,-500.57 161.24,-500.67"/>
<polygon fill="#63b8ff" stroke="#63b8ff" points="225.31,-503.86 235.29,-500.32 225.27,-496.86 225.31,-503.86"/>
</a>
</g>
</g>
<!-- Node5 -->
<g id="Node000005" class="node">
<title>Node5</title>
<g id="a_Node000005"><a xlink:href="classdnf__composer_1_1element_1_1GaussStimulus.html#af05b6b8c812a9db74fd719824bfdfaca" target="_top" xlink:title=" ">
<polygon fill="white" stroke="#666666" points="178.5,-468 6.5,-468 6.5,-438 178.5,-438 178.5,-468"/>
<text text-anchor="start" x="14.5" y="-456" font-family="Helvetica,sans-Serif" font-size="10.00">dnf_composer::element</text>
<text text-anchor="middle" x="92.5" y="-445" font-family="Helvetica,sans-Serif" font-size="10.00">::GaussStimulus::setParameters</text>
</a>
</g>
</g>
<!-- Node4&#45;&gt;Node5 -->
<g id="edge4_Node000004_Node000005" class="edge">
<title>Node4&#45;&gt;Node5</title>
<g id="a_edge4_Node000004_Node000005"><a xlink:title=" ">
<path fill="none" stroke="#63b8ff" d="M224.98,-451.73C209.87,-451.88 193.91,-452.03 178.5,-452.18"/>
<polygon fill="#63b8ff" stroke="#63b8ff" points="225.32,-455.23 235.29,-451.63 225.25,-448.23 225.32,-455.23"/>
</a>
</g>
</g>
<!-- Node7 -->
<g id="Node000007" class="node">
<title>Node7</title>
<g id="a_Node000007"><a xlink:href="classdnf__composer_1_1element_1_1GaussStimulus2D.html#a391bd4d0d9795ae3e85e2f834210685a" target="_top" xlink:title=" ">
<polygon fill="white" stroke="#666666" points="185,-420 0,-420 0,-390 185,-390 185,-420"/>
<text text-anchor="start" x="8" y="-408" font-family="Helvetica,sans-Serif" font-size="10.00">dnf_composer::element</text>
<text text-anchor="middle" x="92.5" y="-397" font-family="Helvetica,sans-Serif" font-size="10.00">::GaussStimulus2D::setParameters</text>
</a>
</g>
</g>
<!-- Node6&#45;&gt;Node7 -->
<g id="edge6_Node000006_Node000007" class="edge">
<title>Node6&#45;&gt;Node7</title>
<g id="a_edge6_Node000006_Node000007"><a xlink:title=" ">
<path fill="none" stroke="#63b8ff" d="M225.07,-403.09C212.14,-403.28 198.57,-403.48 185.27,-403.67"/>
<polygon fill="#63b8ff" stroke="#63b8ff" points="225.34,-406.59 235.29,-402.95 225.24,-399.59 225.34,-406.59"/>
</a>
</g>
</g>
<!-- Node9 -->
<g id="Node000009" class="node">
<title>Node9</title>
<g id="a_Node000009"><a xlink:href="classdnf__composer_1_1element_1_1TimedGaussStimulus.html#ad3728cf451116c584642eee5ee422cd3" target="_top" xlink:title=" ">
<polygon fill="white" stroke="#666666" points="158.5,-371.5 26.5,-371.5 26.5,-330.5 158.5,-330.5 158.5,-371.5"/>
<text text-anchor="start" x="34.5" y="-359.5" font-family="Helvetica,sans-Serif" font-size="10.00">dnf_composer::element</text>
<text text-anchor="start" x="34.5" y="-348.5" font-family="Helvetica,sans-Serif" font-size="10.00">::TimedGaussStimulus</text>
<text text-anchor="middle" x="92.5" y="-337.5" font-family="Helvetica,sans-Serif" font-size="10.00">::setParameters</text>
</a>
</g>
</g>
<!-- Node8&#45;&gt;Node9 -->
<g id="edge8_Node000008_Node000009" class="edge">
<title>Node8&#45;&gt;Node9</title>
<g id="a_edge8_Node000008_Node000009"><a xlink:title=" ">
<path fill="none" stroke="#63b8ff" d="M217.16,-351C197.72,-351 177.28,-351 158.75,-351"/>
<polygon fill="#63b8ff" stroke="#63b8ff" points="217.23,-354.5 227.23,-351 217.23,-347.5 217.23,-354.5"/>
</a>
</g>
</g>
<!-- Node11 -->
<g id="Node000011" class="node">
<title>Node11</title>
<g id="a_Node000011"><a xlink:href="classdnf__composer_1_1element_1_1TimedGaussStimulus2D.html#a9cf70a3ebe946dc04a7c1fca89875f55" target="_top" xlink:title=" ">
<polygon fill="white" stroke="#666666" points="162.5,-312.5 22.5,-312.5 22.5,-271.5 162.5,-271.5 162.5,-312.5"/>
<text text-anchor="start" x="30.5" y="-300.5" font-family="Helvetica,sans-Serif" font-size="10.00">dnf_composer::element</text>
<text text-anchor="start" x="30.5" y="-289.5" font-family="Helvetica,sans-Serif" font-size="10.00">::TimedGaussStimulus2D</text>
<text text-anchor="middle" x="92.5" y="-278.5" font-family="Helvetica,sans-Serif" font-size="10.00">::setParameters</text>
</a>
</g>
</g>
<!-- Node10&#45;&gt;Node11 -->
<g id="edge10_Node000010_Node000011" class="edge">
<title>Node10&#45;&gt;Node11</title>
<g id="a_edge10_Node000010_Node000011"><a xlink:title=" ">
<path fill="none" stroke="#63b8ff" d="M210.36,-298.21C194.4,-297.36 178.01,-296.49 162.74,-295.68"/>
<polygon fill="#63b8ff" stroke="#63b8ff" points="210.59,-301.73 220.76,-298.76 210.96,-294.74 210.59,-301.73"/>
</a>
</g>
</g>
<!-- Node13 -->
<g id="Node000013" class="node">
<title>Node13</title>
<g id="a_Node000013"><a xlink:href="classdnf__composer_1_1element_1_1FieldCoupling.html#a7af578f4c654acfce33920528d239c7d" target="_top" xlink:title="Construct a FieldCoupling.">
<polygon fill="white" stroke="#666666" points="173,-253 12,-253 12,-223 173,-223 173,-253"/>
<text text-anchor="start" x="20" y="-241" font-family="Helvetica,sans-Serif" font-size="10.00">dnf_composer::element</text>
<text text-anchor="middle" x="92.5" y="-230" font-family="Helvetica,sans-Serif" font-size="10.00">::FieldCoupling::FieldCoupling</text>
</a>
</g>
</g>
<!-- Node12&#45;&gt;Node13 -->
<g id="edge12_Node000012_Node000013" class="edge">
<title>Node12&#45;&gt;Node13</title>
<g id="a_edge12_Node000012_Node000013"><a xlink:title=" ">
<path fill="none" stroke="#63b8ff" d="M213.58,-247.86C200.22,-246.76 186.48,-245.64 173.28,-244.55"/>
<polygon fill="#63b8ff" stroke="#63b8ff" points="213.46,-251.36 223.72,-248.69 214.04,-244.39 213.46,-251.36"/>
</a>
</g>
</g>
</g>
</svg>
