<?xml version="1.0" encoding="UTF-8" standalone="no"?>
<!DOCTYPE svg PUBLIC "-//W3C//DTD SVG 1.1//EN"
 "http://www.w3.org/Graphics/SVG/1.1/DTD/svg11.dtd">
<!-- Generated by graphviz version 2.43.0 (0)
 -->
<!-- Title: dnf_composer::LinePlot Pages: 1 -->
<svg width="352pt" height="1026pt"
 viewBox="0.00 0.00 351.50 1026.00" xmlns="http://www.w3.org/2000/svg" xmlns:xlink="http://www.w3.org/1999/xlink">
<g id="graph0" class="graph" transform="scale(1 1) rotate(0) translate(4 1022)">
<title>dnf_composer::LinePlot</title>
<!-- Node1 -->
<g id="Node000001" class="node">
<title>Node1</title>
<g id="a_Node000001"><a xlink:title=" ">
<polygon fill="#999999" stroke="transparent" points="188.5,-139 63.5,-139 63.5,0 188.5,0 188.5,-139"/>
<text text-anchor="start" x="69" y="-126.5" font-family="Helvetica,sans-Serif" font-size="10.00">dnf_composer::LinePlot</text>
<text text-anchor="start" x="124.5" y="-111.5" font-family="Helvetica,sans-Serif" font-size="10.00"> </text>
<text text-anchor="start" x="70.5" y="-96.5" font-family="Helvetica,sans-Serif" font-size="10.00">+</text>
<text text-anchor="start" x="86" y="-96.5" font-family="Helvetica,sans-Serif" font-size="10.00">getAutoFit()</text>
<text text-anchor="start" x="70.5" y="-81.5" font-family="Helvetica,sans-Serif" font-size="10.00">+</text>
<text text-anchor="start" x="86" y="-81.5" font-family="Helvetica,sans-Serif" font-size="10.00">getLineThickness()</text>
<text text-anchor="start" x="70.5" y="-66.5" font-family="Helvetica,sans-Serif" font-size="10.00">+</text>
<text text-anchor="start" x="86" y="-66.5" font-family="Helvetica,sans-Serif" font-size="10.00">LinePlot()</text>
<text text-anchor="start" x="70.5" y="-51.5" font-family="Helvetica,sans-Serif" font-size="10.00">+</text>
<text text-anchor="start" x="86" y="-51.5" font-family="Helvetica,sans-Serif" font-size="10.00">render()</text>
<text text-anchor="start" x="70.5" y="-36.5" font-family="Helvetica,sans-Serif" font-size="10.00">+</text>
<text text-anchor="start" x="86" y="-36.5" font-family="Helvetica,sans-Serif" font-size="10.00">setAutoFit()</text>
<text text-anchor="start" x="70.5" y="-21.5" font-family="Helvetica,sans-Serif" font-size="10.00">+</text>
<text text-anchor="start" x="86" y="-21.5" font-family="Helvetica,sans-Serif" font-size="10.00">setLineThickness()</text>
<text text-anchor="start" x="70.5" y="-6.5" font-family="Helvetica,sans-Serif" font-size="10.00">+</text>
<text text-anchor="start" x="86" y="-6.5" font-family="Helvetica,sans-Serif" font-size="10.00">toString()</text>
<polygon fill="#666666" stroke="#666666" points="64,-121.5 64,-121.5 189,-121.5 189,-121.5 64,-121.5"/>
<polygon fill="#666666" stroke="#666666" points="64,-106.5 64,-106.5 189,-106.5 189,-106.5 64,-106.5"/>
<polygon fill="none" stroke="#666666" points="63.5,0 63.5,-139 188.5,-139 188.5,0 63.5,0"/>
</a>
</g>
</g>
<!-- Node2 -->
<g id="Node000002" class="node">
<title>Node2</title>
<g id="a_Node000002"><a xlink:href="classdnf__composer_1_1Plot.html" target="_top" xlink:title="Abstract base class for all renderable plots.">
<polygon fill="white" stroke="transparent" points="194,-375 58,-375 58,-176 194,-176 194,-375"/>
<text text-anchor="start" x="79" y="-362.5" font-family="Helvetica,sans-Serif" font-size="10.00">dnf_composer::Plot</text>
<text text-anchor="start" x="62" y="-347.5" font-family="Helvetica,sans-Serif" font-size="10.00">#</text>
<text text-anchor="start" x="75" y="-347.5" font-family="Helvetica,sans-Serif" font-size="10.00">uniqueIdentifier</text>
<text text-anchor="start" x="62" y="-332.5" font-family="Helvetica,sans-Serif" font-size="10.00">#</text>
<text text-anchor="start" x="75" y="-332.5" font-family="Helvetica,sans-Serif" font-size="10.00">uniqueIdentifierCounter</text>
<text text-anchor="start" x="62" y="-317.5" font-family="Helvetica,sans-Serif" font-size="10.00">+</text>
<text text-anchor="start" x="75" y="-317.5" font-family="Helvetica,sans-Serif" font-size="10.00">getAnnotations()</text>
<text text-anchor="start" x="62" y="-302.5" font-family="Helvetica,sans-Serif" font-size="10.00">+</text>
<text text-anchor="start" x="75" y="-302.5" font-family="Helvetica,sans-Serif" font-size="10.00">getDimensions()</text>
<text text-anchor="start" x="62" y="-287.5" font-family="Helvetica,sans-Serif" font-size="10.00">+</text>
<text text-anchor="start" x="75" y="-287.5" font-family="Helvetica,sans-Serif" font-size="10.00">getType()</text>
<text text-anchor="start" x="62" y="-272.5" font-family="Helvetica,sans-Serif" font-size="10.00">+</text>
<text text-anchor="start" x="75" y="-272.5" font-family="Helvetica,sans-Serif" font-size="10.00">getUniqueIdentifier()</text>
<text text-anchor="start" x="62" y="-257.5" font-family="Helvetica,sans-Serif" font-size="10.00">+</text>
<text text-anchor="start" x="75" y="-257.5" font-family="Helvetica,sans-Serif" font-size="10.00">Plot()</text>
<text text-anchor="start" x="62" y="-242.5" font-family="Helvetica,sans-Serif" font-size="10.00">+</text>
<text text-anchor="start" x="75" y="-242.5" font-family="Helvetica,sans-Serif" font-size="10.00">render()</text>
<text text-anchor="start" x="62" y="-227.5" font-family="Helvetica,sans-Serif" font-size="10.00">+</text>
<text text-anchor="start" x="75" y="-227.5" font-family="Helvetica,sans-Serif" font-size="10.00">setAnnotations()</text>
<text text-anchor="start" x="62" y="-212.5" font-family="Helvetica,sans-Serif" font-size="10.00">+</text>
<text text-anchor="start" x="75" y="-212.5" font-family="Helvetica,sans-Serif" font-size="10.00">setDimensions()</text>
<text text-anchor="start" x="62" y="-197.5" font-family="Helvetica,sans-Serif" font-size="10.00">+</text>
<text text-anchor="start" x="75" y="-197.5" font-family="Helvetica,sans-Serif" font-size="10.00">toString()</text>
<text text-anchor="start" x="62" y="-182.5" font-family="Helvetica,sans-Serif" font-size="10.00">+</text>
<text text-anchor="start" x="75" y="-182.5" font-family="Helvetica,sans-Serif" font-size="10.00">~Plot()</text>
<polygon fill="#666666" stroke="#666666" points="58,-357.5 58,-357.5 194,-357.5 194,-357.5 58,-357.5"/>
<polygon fill="#666666" stroke="#666666" points="58,-327.5 58,-327.5 73,-327.5 73,-327.5 58,-327.5"/>
<polygon fill="#666666" stroke="#666666" points="73,-327.5 73,-327.5 194,-327.5 194,-327.5 73,-327.5"/>
<polygon fill="none" stroke="#666666" points="58,-176 58,-375 194,-375 194,-176 58,-176"/>
</a>
</g>
</g>
<!-- Node2&#45;&gt;Node1 -->
<g id="edge1_Node000001_Node000002" class="edge">
<title>Node2&#45;&gt;Node1</title>
<g id="a_edge1_Node000001_Node000002"><a xlink:title=" ">
<path fill="none" stroke="#63b8ff" d="M126,-165.61C126,-156.61 126,-147.68 126,-139.1"/>
<polygon fill="none" stroke="#63b8ff" points="122.5,-165.79 126,-175.79 129.5,-165.79 122.5,-165.79"/>
</a>
</g>
</g>
<!-- Node3 -->
<g id="Node000003" class="node">
<title>Node3</title>
<g id="a_Node000003"><a xlink:href="structdnf__composer_1_1PlotCommonParameters.html" target="_top" xlink:title=" ">
<polygon fill="white" stroke="transparent" points="200.5,-557 51.5,-557 51.5,-422 200.5,-422 200.5,-557"/>
<text text-anchor="start" x="57" y="-544.5" font-family="Helvetica,sans-Serif" font-size="10.00">dnf_composer::PlotCommon</text>
<text text-anchor="start" x="98.5" y="-533.5" font-family="Helvetica,sans-Serif" font-size="10.00">Parameters</text>
<text text-anchor="start" x="56" y="-518.5" font-family="Helvetica,sans-Serif" font-size="10.00">+</text>
<text text-anchor="start" x="69" y="-518.5" font-family="Helvetica,sans-Serif" font-size="10.00">type</text>
<text text-anchor="start" x="56" y="-503.5" font-family="Helvetica,sans-Serif" font-size="10.00">+</text>
<text text-anchor="start" x="69" y="-503.5" font-family="Helvetica,sans-Serif" font-size="10.00">operator==()</text>
<text text-anchor="start" x="56" y="-488.5" font-family="Helvetica,sans-Serif" font-size="10.00">+</text>
<text text-anchor="start" x="69" y="-488.5" font-family="Helvetica,sans-Serif" font-size="10.00">PlotCommonParameters()</text>
<text text-anchor="start" x="56" y="-473.5" font-family="Helvetica,sans-Serif" font-size="10.00">+</text>
<text text-anchor="start" x="69" y="-473.5" font-family="Helvetica,sans-Serif" font-size="10.00">PlotCommonParameters()</text>
<text text-anchor="start" x="56" y="-458.5" font-family="Helvetica,sans-Serif" font-size="10.00">+</text>
<text text-anchor="start" x="69" y="-458.5" font-family="Helvetica,sans-Serif" font-size="10.00">PlotCommonParameters()</text>
<text text-anchor="start" x="56" y="-443.5" font-family="Helvetica,sans-Serif" font-size="10.00">+</text>
<text text-anchor="start" x="69" y="-443.5" font-family="Helvetica,sans-Serif" font-size="10.00">PlotCommonParameters()</text>
<text text-anchor="start" x="56" y="-428.5" font-family="Helvetica,sans-Serif" font-size="10.00">+</text>
<text text-anchor="start" x="69" y="-428.5" font-family="Helvetica,sans-Serif" font-size="10.00">toString()</text>
<polygon fill="#666666" stroke="#666666" points="52,-528.5 52,-528.5 201,-528.5 201,-528.5 52,-528.5"/>
<polygon fill="#666666" stroke="#666666" points="52,-513.5 52,-513.5 67,-513.5 67,-513.5 52,-513.5"/>
<polygon fill="#666666" stroke="#666666" points="67,-513.5 67,-513.5 201,-513.5 201,-513.5 67,-513.5"/>
<polygon fill="none" stroke="#666666" points="51.5,-422 51.5,-557 200.5,-557 200.5,-422 51.5,-422"/>
</a>
</g>
</g>
<!-- Node3&#45;&gt;Node2 -->
<g id="edge2_Node000002_Node000003" class="edge">
<title>Node3&#45;&gt;Node2</title>
<g id="a_edge2_Node000002_Node000003"><a xlink:title=" ">
<path fill="none" stroke="#63b8ff" d="M126,-421.71C126,-410.72 126,-399.08 126,-387.36"/>
<polygon fill="none" stroke="#63b8ff" points="126,-387.13 122,-381.13 126,-375.13 130,-381.13 126,-387.13"/>
</a>
</g>
<text text-anchor="middle" x="181" y="-396" font-family="Helvetica,sans-Serif" font-size="10.00" fill="grey"> #commonParameters</text>
</g>
<!-- Node4 -->
<g id="Node000004" class="node">
<title>Node4</title>
<g id="a_Node000004"><a xlink:href="structdnf__composer_1_1PlotDimensions.html" target="_top" xlink:title=" ">
<polygon fill="white" stroke="transparent" points="162,-803 0,-803 0,-604 162,-604 162,-803"/>
<text text-anchor="start" x="5" y="-790.5" font-family="Helvetica,sans-Serif" font-size="10.00">dnf_composer::PlotDimensions</text>
<text text-anchor="start" x="18" y="-775.5" font-family="Helvetica,sans-Serif" font-size="10.00">+</text>
<text text-anchor="start" x="45" y="-775.5" font-family="Helvetica,sans-Serif" font-size="10.00">xMax</text>
<text text-anchor="start" x="18" y="-760.5" font-family="Helvetica,sans-Serif" font-size="10.00">+</text>
<text text-anchor="start" x="45" y="-760.5" font-family="Helvetica,sans-Serif" font-size="10.00">xMin</text>
<text text-anchor="start" x="18" y="-745.5" font-family="Helvetica,sans-Serif" font-size="10.00">+</text>
<text text-anchor="start" x="45" y="-745.5" font-family="Helvetica,sans-Serif" font-size="10.00">xStep</text>
<text text-anchor="start" x="18" y="-730.5" font-family="Helvetica,sans-Serif" font-size="10.00">+</text>
<text text-anchor="start" x="45" y="-730.5" font-family="Helvetica,sans-Serif" font-size="10.00">yMax</text>
<text text-anchor="start" x="18" y="-715.5" font-family="Helvetica,sans-Serif" font-size="10.00">+</text>
<text text-anchor="start" x="45" y="-715.5" font-family="Helvetica,sans-Serif" font-size="10.00">yMin</text>
<text text-anchor="start" x="18" y="-700.5" font-family="Helvetica,sans-Serif" font-size="10.00">+</text>
<text text-anchor="start" x="45" y="-700.5" font-family="Helvetica,sans-Serif" font-size="10.00">yStep</text>
<text text-anchor="start" x="18" y="-685.5" font-family="Helvetica,sans-Serif" font-size="10.00">+</text>
<text text-anchor="start" x="45" y="-685.5" font-family="Helvetica,sans-Serif" font-size="10.00">isLegal()</text>
<text text-anchor="start" x="18" y="-670.5" font-family="Helvetica,sans-Serif" font-size="10.00">+</text>
<text text-anchor="start" x="45" y="-670.5" font-family="Helvetica,sans-Serif" font-size="10.00">operator==()</text>
<text text-anchor="start" x="18" y="-655.5" font-family="Helvetica,sans-Serif" font-size="10.00">+</text>
<text text-anchor="start" x="45" y="-655.5" font-family="Helvetica,sans-Serif" font-size="10.00">PlotDimensions()</text>
<text text-anchor="start" x="18" y="-640.5" font-family="Helvetica,sans-Serif" font-size="10.00">+</text>
<text text-anchor="start" x="45" y="-640.5" font-family="Helvetica,sans-Serif" font-size="10.00">PlotDimensions()</text>
<text text-anchor="start" x="18" y="-625.5" font-family="Helvetica,sans-Serif" font-size="10.00">+</text>
<text text-anchor="start" x="45" y="-625.5" font-family="Helvetica,sans-Serif" font-size="10.00">PlotDimensions()</text>
<text text-anchor="start" x="18" y="-610.5" font-family="Helvetica,sans-Serif" font-size="10.00">+</text>
<text text-anchor="start" x="45" y="-610.5" font-family="Helvetica,sans-Serif" font-size="10.00">toString()</text>
<polygon fill="#666666" stroke="#666666" points="0,-785.5 0,-785.5 162,-785.5 162,-785.5 0,-785.5"/>
<polygon fill="#666666" stroke="#666666" points="0,-695.5 0,-695.5 43,-695.5 43,-695.5 0,-695.5"/>
<polygon fill="#666666" stroke="#666666" points="43,-695.5 43,-695.5 162,-695.5 162,-695.5 43,-695.5"/>
<polygon fill="none" stroke="#666666" points="0,-604 0,-803 162,-803 162,-604 0,-604"/>
</a>
</g>
</g>
<!-- Node4&#45;&gt;Node3 -->
<g id="edge3_Node000003_Node000004" class="edge">
<title>Node4&#45;&gt;Node3</title>
<g id="a_edge3_Node000003_Node000004"><a xlink:title=" ">
<path fill="none" stroke="#63b8ff" d="M101.92,-603.95C104.42,-592.15 106.95,-580.23 109.39,-568.77"/>
<polygon fill="none" stroke="#63b8ff" points="109.39,-568.77 106.72,-562.07 111.88,-557.03 114.55,-563.73 109.39,-568.77"/>
</a>
</g>
<text text-anchor="middle" x="142" y="-578" font-family="Helvetica,sans-Serif" font-size="10.00" fill="grey"> +dimensions</text>
</g>
<!-- Node5 -->
<g id="Node000005" class="node">
<title>Node5</title>
<g id="a_Node000005"><a xlink:href="structdnf__composer_1_1PlotAnnotations.html" target="_top" xlink:title=" ">
<polygon fill="white" stroke="transparent" points="343.5,-750.5 180.5,-750.5 180.5,-656.5 343.5,-656.5 343.5,-750.5"/>
<text text-anchor="start" x="186" y="-738.5" font-family="Helvetica,sans-Serif" font-size="10.00">dnf_composer::PlotAnnotations</text>
<text text-anchor="start" x="260.5" y="-723.5" font-family="Helvetica,sans-Serif" font-size="10.00"> </text>
<text text-anchor="start" x="199" y="-708.5" font-family="Helvetica,sans-Serif" font-size="10.00">+</text>
<text text-anchor="start" x="226" y="-708.5" font-family="Helvetica,sans-Serif" font-size="10.00">operator==()</text>
<text text-anchor="start" x="199" y="-693.5" font-family="Helvetica,sans-Serif" font-size="10.00">+</text>
<text text-anchor="start" x="226" y="-693.5" font-family="Helvetica,sans-Serif" font-size="10.00">PlotAnnotations()</text>
<text text-anchor="start" x="199" y="-678.5" font-family="Helvetica,sans-Serif" font-size="10.00">+</text>
<text text-anchor="start" x="226" y="-678.5" font-family="Helvetica,sans-Serif" font-size="10.00">PlotAnnotations()</text>
<text text-anchor="start" x="199" y="-663.5" font-family="Helvetica,sans-Serif" font-size="10.00">+</text>
<text text-anchor="start" x="226" y="-663.5" font-family="Helvetica,sans-Serif" font-size="10.00">toString()</text>
<polygon fill="#666666" stroke="#666666" points="181,-733.5 181,-733.5 344,-733.5 344,-733.5 181,-733.5"/>
<polygon fill="#666666" stroke="#666666" points="181,-718.5 181,-718.5 344,-718.5 344,-718.5 181,-718.5"/>
<polygon fill="none" stroke="#666666" points="180.5,-656.5 180.5,-750.5 343.5,-750.5 343.5,-656.5 180.5,-656.5"/>
</a>
</g>
</g>
<!-- Node5&#45;&gt;Node3 -->
<g id="edge4_Node000003_Node000005" class="edge">
<title>Node5&#45;&gt;Node3</title>
<g id="a_edge4_Node000003_Node000005"><a xlink:title=" ">
<path fill="none" stroke="#63b8ff" d="M232.49,-656.5C215.86,-630.57 194.65,-597.51 175.54,-567.72"/>
<polygon fill="none" stroke="#63b8ff" points="175.36,-567.44 168.75,-564.55 168.88,-557.34 175.48,-560.23 175.36,-567.44"/>
</a>
</g>
<text text-anchor="middle" x="220" y="-578" font-family="Helvetica,sans-Serif" font-size="10.00" fill="grey"> +annotations</text>
</g>
<!-- Node6 -->
<g id="Node000006" class="node">
<title>Node6</title>
<g id="a_Node000006"><a xlink:title=" ">
<polygon fill="white" stroke="transparent" points="291.5,-921 232.5,-921 232.5,-872 291.5,-872 291.5,-921"/>
<text text-anchor="start" x="238" y="-908.5" font-family="Helvetica,sans-Serif" font-size="10.00">std::string</text>
<text text-anchor="start" x="260.5" y="-893.5" font-family="Helvetica,sans-Serif" font-size="10.00"> </text>
<text text-anchor="start" x="260.5" y="-878.5" font-family="Helvetica,sans-Serif" font-size="10.00"> </text>
<polygon fill="#666666" stroke="#666666" points="233,-903.5 233,-903.5 292,-903.5 292,-903.5 233,-903.5"/>
<polygon fill="#666666" stroke="#666666" points="233,-888.5 233,-888.5 292,-888.5 292,-888.5 233,-888.5"/>
<polygon fill="none" stroke="#666666" points="232.5,-872 232.5,-921 291.5,-921 291.5,-872 232.5,-872"/>
</a>
</g>
</g>
<!-- Node6&#45;&gt;Node5 -->
<g id="edge5_Node000005_Node000006" class="edge">
<title>Node6&#45;&gt;Node5</title>
<g id="a_edge5_Node000005_Node000006"><a xlink:title=" ">
<path fill="none" stroke="#63b8ff" d="M262,-871.7C262,-844.56 262,-799.23 262,-762.61"/>
<polygon fill="none" stroke="#63b8ff" points="262,-762.57 258,-756.57 262,-750.57 266,-756.57 262,-762.57"/>
</a>
</g>
<text text-anchor="middle" x="284" y="-846" font-family="Helvetica,sans-Serif" font-size="10.00" fill="grey"> +title</text>
<text text-anchor="middle" x="284" y="-835" font-family="Helvetica,sans-Serif" font-size="10.00" fill="grey">+x_label</text>
<text text-anchor="middle" x="284" y="-824" font-family="Helvetica,sans-Serif" font-size="10.00" fill="grey">+y_label</text>
</g>
<!-- Node7 -->
<g id="Node000007" class="node">
<title>Node7</title>
<g id="a_Node000007"><a xlink:title=" ">
<polygon fill="white" stroke="transparent" points="311,-1018 213,-1018 213,-958 311,-958 311,-1018"/>
<text text-anchor="start" x="218" y="-1006" font-family="Helvetica,sans-Serif" font-size="10.00">std::basic_string&lt;</text>
<text text-anchor="start" x="243.5" y="-995" font-family="Helvetica,sans-Serif" font-size="10.00"> Char &gt;</text>
<text text-anchor="start" x="260" y="-980" font-family="Helvetica,sans-Serif" font-size="10.00"> </text>
<text text-anchor="start" x="260" y="-965" font-family="Helvetica,sans-Serif" font-size="10.00"> </text>
<polygon fill="#666666" stroke="#666666" points="213,-990 213,-990 311,-990 311,-990 213,-990"/>
<polygon fill="#666666" stroke="#666666" points="213,-975 213,-975 311,-975 311,-975 213,-975"/>
<polygon fill="none" stroke="#666666" points="213,-958 213,-1018 311,-1018 311,-958 213,-958"/>
</a>
</g>
</g>
<!-- Node7&#45;&gt;Node6 -->
<g id="edge6_Node000006_Node000007" class="edge">
<title>Node7&#45;&gt;Node6</title>
<g id="a_edge6_Node000006_Node000007"><a xlink:title=" ">
<path fill="none" stroke="#63b8ff" d="M262,-947.41C262,-938.47 262,-929.25 262,-921.21"/>
<polygon fill="none" stroke="#63b8ff" points="258.5,-947.69 262,-957.69 265.5,-947.69 258.5,-947.69"/>
</a>
</g>
</g>
</g>
</svg>
