<?xml version="1.0" encoding="UTF-8" standalone="no"?>
<!DOCTYPE svg PUBLIC "-//W3C//DTD SVG 1.1//EN"
 "http://www.w3.org/Graphics/SVG/1.1/DTD/svg11.dtd">
<!-- Generated by graphviz version 2.43.0 (0)
 -->
<!-- Title: dnf_composer::user_interface::SimulationWindow::render Pages: 1 -->
<svg width="1292pt" height="344pt"
 viewBox="0.00 0.00 1292.00 344.00" xmlns="http://www.w3.org/2000/svg" xmlns:xlink="http://www.w3.org/1999/xlink">
<g id="graph0" class="graph" transform="scale(1 1) rotate(0) translate(4 340)">
<title>dnf_composer::user_interface::SimulationWindow::render</title>
<!-- Node1 -->
<g id="Node000001" class="node">
<title>Node1</title>
<g id="a_Node000001"><a xlink:title=" ">
<polygon fill="#999999" stroke="#666666" points="163,-188 0,-188 0,-147 163,-147 163,-188"/>
<text text-anchor="start" x="8" y="-176" font-family="Helvetica,sans-Serif" font-size="10.00">dnf_composer::user</text>
<text text-anchor="start" x="8" y="-165" font-family="Helvetica,sans-Serif" font-size="10.00">_interface::SimulationWindow</text>
<text text-anchor="middle" x="81.5" y="-154" font-family="Helvetica,sans-Serif" font-size="10.00">::render</text>
</a>
</g>
</g>
<!-- Node2 -->
<g id="Node000002" class="node">
<title>Node2</title>
<g id="a_Node000002"><a xlink:href="classdnf__composer_1_1user__interface_1_1SimulationWindow.html#ab1d68a0e88f02379e326b7b73170f8b8" target="_top" xlink:title=" ">
<polygon fill="white" stroke="#666666" points="362,-188 199,-188 199,-147 362,-147 362,-188"/>
<text text-anchor="start" x="207" y="-176" font-family="Helvetica,sans-Serif" font-size="10.00">dnf_composer::user</text>
<text text-anchor="start" x="207" y="-165" font-family="Helvetica,sans-Serif" font-size="10.00">_interface::SimulationWindow</text>
<text text-anchor="middle" x="280.5" y="-154" font-family="Helvetica,sans-Serif" font-size="10.00">::renderSidebarContents</text>
</a>
</g>
</g>
<!-- Node1&#45;&gt;Node2 -->
<g id="edge1_Node000001_Node000002" class="edge">
<title>Node1&#45;&gt;Node2</title>
<g id="a_edge1_Node000001_Node000002"><a xlink:title=" ">
<path fill="none" stroke="#63b8ff" d="M163.2,-167.5C171.67,-167.5 180.33,-167.5 188.91,-167.5"/>
<polygon fill="#63b8ff" stroke="#63b8ff" points="188.93,-171 198.93,-167.5 188.93,-164 188.93,-171"/>
</a>
</g>
</g>
<!-- Node3 -->
<g id="Node000003" class="node">
<title>Node3</title>
<g id="a_Node000003"><a xlink:href="classdnf__composer_1_1user__interface_1_1SimulationWindow.html#affb52c7f20aea6a3f5b1c62285bf6438" target="_top" xlink:title=" ">
<polygon fill="white" stroke="#666666" points="574.5,-336 411.5,-336 411.5,-295 574.5,-295 574.5,-336"/>
<text text-anchor="start" x="419.5" y="-324" font-family="Helvetica,sans-Serif" font-size="10.00">dnf_composer::user</text>
<text text-anchor="start" x="419.5" y="-313" font-family="Helvetica,sans-Serif" font-size="10.00">_interface::SimulationWindow</text>
<text text-anchor="middle" x="493" y="-302" font-family="Helvetica,sans-Serif" font-size="10.00">::renderAddElementCard</text>
</a>
</g>
</g>
<!-- Node2&#45;&gt;Node3 -->
<g id="edge2_Node000002_Node000003" class="edge">
<title>Node2&#45;&gt;Node3</title>
<g id="a_edge2_Node000002_Node000003"><a xlink:title=" ">
<path fill="none" stroke="#63b8ff" d="M296.48,-188.24C316.67,-214.75 355.05,-260.31 398,-286.5 400.31,-287.91 402.7,-289.26 405.14,-290.54"/>
<polygon fill="#63b8ff" stroke="#63b8ff" points="403.68,-293.72 414.2,-294.94 406.73,-287.42 403.68,-293.72"/>
</a>
</g>
</g>
<!-- Node4 -->
<g id="Node000004" class="node">
<title>Node4</title>
<g id="a_Node000004"><a xlink:href="classdnf__composer_1_1user__interface_1_1SimulationWindow.html#a8e2eae386da6e58b71b9e681b5bd2abc" target="_top" xlink:title=" ">
<polygon fill="white" stroke="#666666" points="574.5,-277 411.5,-277 411.5,-236 574.5,-236 574.5,-277"/>
<text text-anchor="start" x="419.5" y="-265" font-family="Helvetica,sans-Serif" font-size="10.00">dnf_composer::user</text>
<text text-anchor="start" x="419.5" y="-254" font-family="Helvetica,sans-Serif" font-size="10.00">_interface::SimulationWindow</text>
<text text-anchor="middle" x="493" y="-243" font-family="Helvetica,sans-Serif" font-size="10.00">::renderDataCard</text>
</a>
</g>
</g>
<!-- Node2&#45;&gt;Node4 -->
<g id="edge3_Node000002_Node000004" class="edge">
<title>Node2&#45;&gt;Node4</title>
<g id="a_edge3_Node000002_Node000004"><a xlink:title=" ">
<path fill="none" stroke="#63b8ff" d="M317.45,-188.11C340.09,-200.56 370.19,-216.15 398,-227.5 402.21,-229.22 406.55,-230.89 410.96,-232.51"/>
<polygon fill="#63b8ff" stroke="#63b8ff" points="410.1,-235.92 420.7,-235.96 412.45,-229.32 410.1,-235.92"/>
</a>
</g>
</g>
<!-- Node11 -->
<g id="Node000011" class="node">
<title>Node11</title>
<g id="a_Node000011"><a xlink:href="classdnf__composer_1_1user__interface_1_1SimulationWindow.html#a3630c30901d2b73b1eaa20b40825f6f4" target="_top" xlink:title=" ">
<polygon fill="white" stroke="#666666" points="588,-218 398,-218 398,-177 588,-177 588,-218"/>
<text text-anchor="start" x="406" y="-206" font-family="Helvetica,sans-Serif" font-size="10.00">dnf_composer::user</text>
<text text-anchor="start" x="406" y="-195" font-family="Helvetica,sans-Serif" font-size="10.00">_interface::SimulationWindow</text>
<text text-anchor="middle" x="493" y="-184" font-family="Helvetica,sans-Serif" font-size="10.00">::renderLogElementParametersCard</text>
</a>
</g>
</g>
<!-- Node2&#45;&gt;Node11 -->
<g id="edge10_Node000002_Node000011" class="edge">
<title>Node2&#45;&gt;Node11</title>
<g id="a_edge10_Node000002_Node000011"><a xlink:title=" ">
<path fill="none" stroke="#63b8ff" d="M362.28,-179.01C370.62,-180.2 379.17,-181.42 387.71,-182.64"/>
<polygon fill="#63b8ff" stroke="#63b8ff" points="387.32,-186.12 397.72,-184.06 388.31,-179.19 387.32,-186.12"/>
</a>
</g>
</g>
<!-- Node14 -->
<g id="Node000014" class="node">
<title>Node14</title>
<g id="a_Node000014"><a xlink:href="classdnf__composer_1_1user__interface_1_1SimulationWindow.html#ab231a4f0beb49a70451d8dc65baaa483" target="_top" xlink:title=" ">
<polygon fill="white" stroke="#666666" points="574.5,-100 411.5,-100 411.5,-59 574.5,-59 574.5,-100"/>
<text text-anchor="start" x="419.5" y="-88" font-family="Helvetica,sans-Serif" font-size="10.00">dnf_composer::user</text>
<text text-anchor="start" x="419.5" y="-77" font-family="Helvetica,sans-Serif" font-size="10.00">_interface::SimulationWindow</text>
<text text-anchor="middle" x="493" y="-66" font-family="Helvetica,sans-Serif" font-size="10.00">::renderMonitoringCard</text>
</a>
</g>
</g>
<!-- Node2&#45;&gt;Node14 -->
<g id="edge14_Node000002_Node000014" class="edge">
<title>Node2&#45;&gt;Node14</title>
<g id="a_edge14_Node000002_Node000014"><a xlink:title=" ">
<path fill="none" stroke="#63b8ff" d="M318.01,-147C340.6,-134.82 370.46,-119.63 398,-108.5 402.21,-106.8 406.56,-105.14 410.98,-103.53"/>
<polygon fill="#63b8ff" stroke="#63b8ff" points="412.46,-106.72 420.72,-100.09 410.12,-100.12 412.46,-106.72"/>
</a>
</g>
</g>
<!-- Node16 -->
<g id="Node000016" class="node">
<title>Node16</title>
<g id="a_Node000016"><a xlink:href="classdnf__composer_1_1user__interface_1_1SimulationWindow.html#a58938ca889b91293bb674ffdef45b226" target="_top" xlink:title=" ">
<polygon fill="white" stroke="#666666" points="574.5,-159 411.5,-159 411.5,-118 574.5,-118 574.5,-159"/>
<text text-anchor="start" x="419.5" y="-147" font-family="Helvetica,sans-Serif" font-size="10.00">dnf_composer::user</text>
<text text-anchor="start" x="419.5" y="-136" font-family="Helvetica,sans-Serif" font-size="10.00">_interface::SimulationWindow</text>
<text text-anchor="middle" x="493" y="-125" font-family="Helvetica,sans-Serif" font-size="10.00">::renderRemoveElementCard</text>
</a>
</g>
</g>
<!-- Node2&#45;&gt;Node16 -->
<g id="edge16_Node000002_Node000016" class="edge">
<title>Node2&#45;&gt;Node16</title>
<g id="a_edge16_Node000002_Node000016"><a xlink:title=" ">
<path fill="none" stroke="#63b8ff" d="M362.28,-156.37C375,-154.62 388.22,-152.8 401.15,-151.02"/>
<polygon fill="#63b8ff" stroke="#63b8ff" points="402,-154.43 411.43,-149.6 401.05,-147.5 402,-154.43"/>
</a>
</g>
</g>
<!-- Node17 -->
<g id="Node000017" class="node">
<title>Node17</title>
<g id="a_Node000017"><a xlink:href="classdnf__composer_1_1user__interface_1_1SimulationWindow.html#a1752634b611833df6dc90fe09952eaef" target="_top" xlink:title=" ">
<polygon fill="white" stroke="#666666" points="574.5,-41 411.5,-41 411.5,0 574.5,0 574.5,-41"/>
<text text-anchor="start" x="419.5" y="-29" font-family="Helvetica,sans-Serif" font-size="10.00">dnf_composer::user</text>
<text text-anchor="start" x="419.5" y="-18" font-family="Helvetica,sans-Serif" font-size="10.00">_interface::SimulationWindow</text>
<text text-anchor="middle" x="493" y="-7" font-family="Helvetica,sans-Serif" font-size="10.00">::renderSetInteractionCard</text>
</a>
</g>
</g>
<!-- Node2&#45;&gt;Node17 -->
<g id="edge18_Node000002_Node000017" class="edge">
<title>Node2&#45;&gt;Node17</title>
<g id="a_edge18_Node000002_Node000017"><a xlink:title=" ">
<path fill="none" stroke="#63b8ff" d="M296.52,-146.94C316.75,-120.66 355.18,-75.49 398,-49.5 400.32,-48.09 402.7,-46.75 405.15,-45.47"/>
<polygon fill="#63b8ff" stroke="#63b8ff" points="406.74,-48.59 414.22,-41.09 403.69,-42.29 406.74,-48.59"/>
</a>
</g>
</g>
<!-- Node5 -->
<g id="Node000005" class="node">
<title>Node5</title>
<g id="a_Node000005"><a xlink:href="classdnf__composer_1_1SimulationRecorder.html#ad6a67166f5f8420901788dd360115e46" target="_top" xlink:title="Write a single&#45;row snapshot CSV for the given element/component. Output path: data/&lt;simName&gt;/exports/...">
<polygon fill="white" stroke="#666666" points="781,-270.5 637,-270.5 637,-240.5 781,-240.5 781,-270.5"/>
<text text-anchor="start" x="645" y="-258.5" font-family="Helvetica,sans-Serif" font-size="10.00">dnf_composer::Simulation</text>
<text text-anchor="middle" x="709" y="-247.5" font-family="Helvetica,sans-Serif" font-size="10.00">Recorder::takeSnapshot</text>
</a>
</g>
</g>
<!-- Node4&#45;&gt;Node5 -->
<g id="edge4_Node000004_Node000005" class="edge">
<title>Node4&#45;&gt;Node5</title>
<g id="a_edge4_Node000004_Node000005"><a xlink:title=" ">
<path fill="none" stroke="#63b8ff" d="M574.6,-256.12C591.57,-256.04 609.49,-255.96 626.5,-255.88"/>
<polygon fill="#63b8ff" stroke="#63b8ff" points="626.97,-259.38 636.96,-255.83 626.94,-252.38 626.97,-259.38"/>
</a>
</g>
</g>
<!-- Node6 -->
<g id="Node000006" class="node">
<title>Node6</title>
<g id="a_Node000006"><a xlink:href="classdnf__composer_1_1Simulation.html#a860f418ff5193deb9ae8f4a791a5f391" target="_top" xlink:title="Retrieve an element by its unique name. Throws if not found.">
<polygon fill="white" stroke="#666666" points="974,-317.5 830,-317.5 830,-287.5 974,-287.5 974,-317.5"/>
<text text-anchor="start" x="838" y="-305.5" font-family="Helvetica,sans-Serif" font-size="10.00">dnf_composer::Simulation</text>
<text text-anchor="middle" x="902" y="-294.5" font-family="Helvetica,sans-Serif" font-size="10.00">::getElement</text>
</a>
</g>
</g>
<!-- Node5&#45;&gt;Node6 -->
<g id="edge5_Node000005_Node000006" class="edge">
<title>Node5&#45;&gt;Node6</title>
<g id="a_edge5_Node000005_Node000006"><a xlink:title=" ">
<path fill="none" stroke="#63b8ff" d="M770.96,-270.5C789.82,-275.14 810.77,-280.3 830.24,-285.09"/>
<polygon fill="#63b8ff" stroke="#63b8ff" points="829.42,-288.49 839.97,-287.48 831.09,-281.69 829.42,-288.49"/>
</a>
</g>
</g>
<!-- Node7 -->
<g id="Node000007" class="node">
<title>Node7</title>
<g id="a_Node000007"><a xlink:href="namespacednf__composer_1_1tools_1_1utils.html#a140c0903ddcfc3ba01218f11d31608dc" target="_top" xlink:title=" ">
<polygon fill="white" stroke="#666666" points="968.5,-269.5 835.5,-269.5 835.5,-239.5 968.5,-239.5 968.5,-269.5"/>
<text text-anchor="start" x="843.5" y="-257.5" font-family="Helvetica,sans-Serif" font-size="10.00">dnf_composer::tools</text>
<text text-anchor="middle" x="902" y="-246.5" font-family="Helvetica,sans-Serif" font-size="10.00">::utils::getResourceRoot</text>
</a>
</g>
</g>
<!-- Node5&#45;&gt;Node7 -->
<g id="edge6_Node000005_Node000007" class="edge">
<title>Node5&#45;&gt;Node7</title>
<g id="a_edge6_Node000005_Node000007"><a xlink:title=" ">
<path fill="none" stroke="#63b8ff" d="M781.12,-255.13C795.37,-255.05 810.4,-254.97 824.82,-254.9"/>
<polygon fill="#63b8ff" stroke="#63b8ff" points="825.21,-258.4 835.19,-254.84 825.17,-251.4 825.21,-258.4"/>
</a>
</g>
</g>
<!-- Node8 -->
<g id="Node000008" class="node">
<title>Node8</title>
<g id="a_Node000008"><a xlink:href="namespacednf__composer_1_1tools_1_1logger.html#af64ef64b3026606a73972fdcae2ca87a" target="_top" xlink:title=" ">
<polygon fill="white" stroke="#666666" points="960,-218.5 844,-218.5 844,-188.5 960,-188.5 960,-218.5"/>
<text text-anchor="start" x="852" y="-206.5" font-family="Helvetica,sans-Serif" font-size="10.00">dnf_composer::tools</text>
<text text-anchor="middle" x="902" y="-195.5" font-family="Helvetica,sans-Serif" font-size="10.00">::logger::log</text>
</a>
</g>
</g>
<!-- Node5&#45;&gt;Node8 -->
<g id="edge7_Node000005_Node000008" class="edge">
<title>Node5&#45;&gt;Node8</title>
<g id="a_edge7_Node000005_Node000008"><a xlink:title=" ">
<path fill="none" stroke="#63b8ff" d="M765.25,-240.46C787.42,-234.42 813.13,-227.42 836.18,-221.15"/>
<polygon fill="#63b8ff" stroke="#63b8ff" points="837.15,-224.51 845.88,-218.51 835.31,-217.76 837.15,-224.51"/>
</a>
</g>
</g>
<!-- Node9 -->
<g id="Node000009" class="node">
<title>Node9</title>
<g id="a_Node000009"><a xlink:href="classdnf__composer_1_1tools_1_1logger_1_1Logger.html#afb1ee0f96356dacc5d6ff7bde232982b" target="_top" xlink:title=" ">
<polygon fill="white" stroke="#666666" points="1126,-218.5 1010,-218.5 1010,-188.5 1126,-188.5 1126,-218.5"/>
<text text-anchor="start" x="1018" y="-206.5" font-family="Helvetica,sans-Serif" font-size="10.00">dnf_composer::tools</text>
<text text-anchor="middle" x="1068" y="-195.5" font-family="Helvetica,sans-Serif" font-size="10.00">::logger::Logger::log</text>
</a>
</g>
</g>
<!-- Node8&#45;&gt;Node9 -->
<g id="edge8_Node000008_Node000009" class="edge">
<title>Node8&#45;&gt;Node9</title>
<g id="a_edge8_Node000008_Node000009"><a xlink:title=" ">
<path fill="none" stroke="#63b8ff" d="M960.36,-203.5C973.04,-203.5 986.59,-203.5 999.63,-203.5"/>
<polygon fill="#63b8ff" stroke="#63b8ff" points="999.95,-207 1009.95,-203.5 999.95,-200 999.95,-207"/>
</a>
</g>
</g>
<!-- Node10 -->
<g id="Node000010" class="node">
<title>Node10</title>
<g id="a_Node000010"><a xlink:href="namespacednf__composer_1_1tools_1_1utils.html#a9b9ee760b745eb4a1dfabacac1c026d2" target="_top" xlink:title=" ">
<polygon fill="white" stroke="#666666" points="1284,-218.5 1162,-218.5 1162,-188.5 1284,-188.5 1284,-218.5"/>
<text text-anchor="start" x="1170" y="-206.5" font-family="Helvetica,sans-Serif" font-size="10.00">dnf_composer::tools</text>
<text text-anchor="middle" x="1223" y="-195.5" font-family="Helvetica,sans-Serif" font-size="10.00">::utils::safe_localtime</text>
</a>
</g>
</g>
<!-- Node9&#45;&gt;Node10 -->
<g id="edge9_Node000009_Node000010" class="edge">
<title>Node9&#45;&gt;Node10</title>
<g id="a_edge9_Node000009_Node000010"><a xlink:title=" ">
<path fill="none" stroke="#63b8ff" d="M1126.41,-203.5C1134.67,-203.5 1143.24,-203.5 1151.72,-203.5"/>
<polygon fill="#63b8ff" stroke="#63b8ff" points="1151.97,-207 1161.97,-203.5 1151.97,-200 1151.97,-207"/>
</a>
</g>
</g>
<!-- Node11&#45;&gt;Node8 -->
<g id="edge13_Node000011_Node000008" class="edge">
<title>Node11&#45;&gt;Node8</title>
<g id="a_edge13_Node000011_Node000008"><a xlink:title=" ">
<path fill="none" stroke="#63b8ff" d="M588.14,-198.89C663.29,-200 766.75,-201.52 833.75,-202.51"/>
<polygon fill="#63b8ff" stroke="#63b8ff" points="833.72,-206.01 843.77,-202.66 833.82,-199.01 833.72,-206.01"/>
</a>
</g>
</g>
<!-- Node12 -->
<g id="Node000012" class="node">
<title>Node12</title>
<g id="a_Node000012"><a xlink:href="namespacednf__composer_1_1element.html#a55b0e0fb6529de014e86fa1380005bba" target="_top" xlink:title="Category info for a label, or an UNKNOWN/grey fallback.">
<polygon fill="white" stroke="#666666" points="780,-161.5 638,-161.5 638,-131.5 780,-131.5 780,-161.5"/>
<text text-anchor="start" x="646" y="-149.5" font-family="Helvetica,sans-Serif" font-size="10.00">dnf_composer::element</text>
<text text-anchor="middle" x="709" y="-138.5" font-family="Helvetica,sans-Serif" font-size="10.00">::getElementCategoryInfo</text>
</a>
</g>
</g>
<!-- Node11&#45;&gt;Node12 -->
<g id="edge11_Node000011_Node000012" class="edge">
<title>Node11&#45;&gt;Node12</title>
<g id="a_edge11_Node000011_Node000012"><a xlink:title=" ">
<path fill="none" stroke="#63b8ff" d="M580.12,-176.98C598.18,-172.67 617.06,-168.17 634.6,-163.99"/>
<polygon fill="#63b8ff" stroke="#63b8ff" points="635.84,-167.29 644.76,-161.57 634.22,-160.48 635.84,-167.29"/>
</a>
</g>
</g>
<!-- Node13 -->
<g id="Node000013" class="node">
<title>Node13</title>
<g id="a_Node000013"><a xlink:href="namespacednf__composer_1_1element.html#add3a3ba11f87c3c31b3060e2bb378635" target="_top" xlink:title="Maps every ElementLabel to its category info. The one place UI panels resolve an element&#39;s type/categ...">
<polygon fill="white" stroke="#666666" points="968.5,-161.5 835.5,-161.5 835.5,-131.5 968.5,-131.5 968.5,-161.5"/>
<text text-anchor="start" x="843.5" y="-149.5" font-family="Helvetica,sans-Serif" font-size="10.00">dnf_composer::element</text>
<text text-anchor="middle" x="902" y="-138.5" font-family="Helvetica,sans-Serif" font-size="10.00">::elementCategoryTable</text>
</a>
</g>
</g>
<!-- Node12&#45;&gt;Node13 -->
<g id="edge12_Node000012_Node000013" class="edge">
<title>Node12&#45;&gt;Node13</title>
<g id="a_edge12_Node000012_Node000013"><a xlink:title=" ">
<path fill="none" stroke="#63b8ff" d="M780.04,-146.5C794.74,-146.5 810.32,-146.5 825.22,-146.5"/>
<polygon fill="#63b8ff" stroke="#63b8ff" points="825.41,-150 835.41,-146.5 825.41,-143 825.41,-150"/>
</a>
</g>
</g>
<!-- Node15 -->
<g id="Node000015" class="node">
<title>Node15</title>
<g id="a_Node000015"><a xlink:href="classdnf__composer_1_1user__interface_1_1FieldMetricsWindow.html#aeea6cfdef3cefb8f22fbcf50679651fe" target="_top" xlink:title=" ">
<polygon fill="white" stroke="#666666" points="794,-100 624,-100 624,-59 794,-59 794,-100"/>
<text text-anchor="start" x="632" y="-88" font-family="Helvetica,sans-Serif" font-size="10.00">dnf_composer::user</text>
<text text-anchor="start" x="632" y="-77" font-family="Helvetica,sans-Serif" font-size="10.00">_interface::FieldMetricsWindow</text>
<text text-anchor="middle" x="709" y="-66" font-family="Helvetica,sans-Serif" font-size="10.00">::renderContents</text>
</a>
</g>
</g>
<!-- Node14&#45;&gt;Node15 -->
<g id="edge15_Node000014_Node000015" class="edge">
<title>Node14&#45;&gt;Node15</title>
<g id="a_edge15_Node000014_Node000015"><a xlink:title=" ">
<path fill="none" stroke="#63b8ff" d="M574.6,-79.5C587.31,-79.5 600.56,-79.5 613.55,-79.5"/>
<polygon fill="#63b8ff" stroke="#63b8ff" points="613.91,-83 623.91,-79.5 613.91,-76 613.91,-83"/>
</a>
</g>
</g>
<!-- Node16&#45;&gt;Node12 -->
<g id="edge17_Node000016_Node000012" class="edge">
<title>Node16&#45;&gt;Node12</title>
<g id="a_edge17_Node000016_Node000012"><a xlink:title=" ">
<path fill="none" stroke="#63b8ff" d="M574.6,-141.51C592.03,-142.16 610.46,-142.85 627.87,-143.5"/>
<polygon fill="#63b8ff" stroke="#63b8ff" points="627.87,-147.01 637.99,-143.88 628.13,-140.01 627.87,-147.01"/>
</a>
</g>
</g>
</g>
</svg>
