<?xml version="1.0" encoding="UTF-8" standalone="no"?>
<!DOCTYPE svg PUBLIC "-//W3C//DTD SVG 1.1//EN"
 "http://www.w3.org/Graphics/SVG/1.1/DTD/svg11.dtd">
<!-- Generated by graphviz version 2.43.0 (0)
 -->
<!-- Title: dnf_composer::user_interface::HelpWindow Pages: 1 -->
<svg width="136pt" height="224pt"
 viewBox="0.00 0.00 136.00 224.00" xmlns="http://www.w3.org/2000/svg" xmlns:xlink="http://www.w3.org/1999/xlink">
<g id="graph0" class="graph" transform="scale(1 1) rotate(0) translate(4 220)">
<title>dnf_composer::user_interface::HelpWindow</title>
<!-- Node1 -->
<g id="Node000001" class="node">
<title>Node1</title>
<g id="a_Node000001"><a xlink:title=" ">
<polygon fill="#999999" stroke="transparent" points="127.5,-120 0.5,-120 0.5,0 127.5,0 127.5,-120"/>
<text text-anchor="start" x="6" y="-108" font-family="Helvetica,sans-Serif" font-size="10.00">dnf_composer::user</text>
<text text-anchor="start" x="6" y="-97" font-family="Helvetica,sans-Serif" font-size="10.00">_interface::HelpWindow</text>
<text text-anchor="start" x="62.5" y="-82" font-family="Helvetica,sans-Serif" font-size="10.00"> </text>
<text text-anchor="start" x="12" y="-67" font-family="Helvetica,sans-Serif" font-size="10.00">+</text>
<text text-anchor="start" x="32" y="-67" font-family="Helvetica,sans-Serif" font-size="10.00">HelpWindow()</text>
<text text-anchor="start" x="12" y="-52" font-family="Helvetica,sans-Serif" font-size="10.00">+</text>
<text text-anchor="start" x="32" y="-52" font-family="Helvetica,sans-Serif" font-size="10.00">render()</text>
<text text-anchor="start" x="12" y="-37" font-family="Helvetica,sans-Serif" font-size="10.00">+</text>
<text text-anchor="start" x="32" y="-37" font-family="Helvetica,sans-Serif" font-size="10.00">~HelpWindow()</text>
<text text-anchor="start" x="12" y="-22" font-family="Helvetica,sans-Serif" font-size="10.00">+</text>
<text text-anchor="start" x="32" y="-22" font-family="Helvetica,sans-Serif" font-size="10.00">isActive()</text>
<text text-anchor="start" x="12" y="-7" font-family="Helvetica,sans-Serif" font-size="10.00">+</text>
<text text-anchor="start" x="32" y="-7" font-family="Helvetica,sans-Serif" font-size="10.00">setActive()</text>
<polygon fill="#666666" stroke="#666666" points="1,-92 1,-92 128,-92 128,-92 1,-92"/>
<polygon fill="#666666" stroke="#666666" points="1,-77 1,-77 128,-77 128,-77 1,-77"/>
<polygon fill="none" stroke="#666666" points="0.5,0 0.5,-120 127.5,-120 127.5,0 0.5,0"/>
</a>
</g>
</g>
<!-- Node2 -->
<g id="Node000002" class="node">
<title>Node2</title>
<g id="a_Node000002"><a xlink:title=" ">
<polygon fill="white" stroke="transparent" points="128,-216 0,-216 0,-156 128,-156 128,-216"/>
<text text-anchor="start" x="5" y="-204" font-family="Helvetica,sans-Serif" font-size="10.00">imgui_kit::UserInterface</text>
<text text-anchor="start" x="44" y="-193" font-family="Helvetica,sans-Serif" font-size="10.00">Window</text>
<text text-anchor="start" x="62" y="-178" font-family="Helvetica,sans-Serif" font-size="10.00"> </text>
<text text-anchor="start" x="62" y="-163" font-family="Helvetica,sans-Serif" font-size="10.00"> </text>
<polygon fill="#666666" stroke="#666666" points="0,-188 0,-188 128,-188 128,-188 0,-188"/>
<polygon fill="#666666" stroke="#666666" points="0,-173 0,-173 128,-173 128,-173 0,-173"/>
<polygon fill="none" stroke="#666666" points="0,-156 0,-216 128,-216 128,-156 0,-156"/>
</a>
</g>
</g>
<!-- Node2&#45;&gt;Node1 -->
<g id="edge1_Node000001_Node000002" class="edge">
<title>Node2&#45;&gt;Node1</title>
<g id="a_edge1_Node000001_Node000002"><a xlink:title=" ">
<path fill="none" stroke="#63b8ff" d="M64,-145.93C64,-137.73 64,-128.9 64,-120.16"/>
<polygon fill="none" stroke="#63b8ff" points="60.5,-145.93 64,-155.93 67.5,-145.93 60.5,-145.93"/>
</a>
</g>
</g>
</g>
</svg>
