<?xml version="1.0" encoding="UTF-8" standalone="no"?>
<!DOCTYPE svg PUBLIC "-//W3C//DTD SVG 1.1//EN"
 "http://www.w3.org/Graphics/SVG/1.1/DTD/svg11.dtd">
<!-- Generated by graphviz version 2.43.0 (0)
 -->
<!-- Title: dnf_composer::element::GaussFieldCoupling Pages: 1 -->
<svg width="193pt" height="605pt"
 viewBox="0.00 0.00 193.00 605.00" xmlns="http://www.w3.org/2000/svg" xmlns:xlink="http://www.w3.org/1999/xlink">
<g id="graph0" class="graph" transform="scale(1 1) rotate(0) translate(4 601)">
<title>dnf_composer::element::GaussFieldCoupling</title>
<!-- Node1 -->
<g id="Node000001" class="node">
<title>Node1</title>
<g id="a_Node000001"><a xlink:title="Sparse Gaussian field coupling with a fixed, user&#45;defined projection.">
<polygon fill="#999999" stroke="transparent" points="168,-210 17,-210 17,0 168,0 168,-210"/>
<text text-anchor="start" x="35" y="-198" font-family="Helvetica,sans-Serif" font-size="10.00">dnf_composer::element</text>
<text text-anchor="start" x="41.5" y="-187" font-family="Helvetica,sans-Serif" font-size="10.00">::GaussFieldCoupling</text>
<text text-anchor="start" x="91" y="-172" font-family="Helvetica,sans-Serif" font-size="10.00"> </text>
<text text-anchor="start" x="21.5" y="-157" font-family="Helvetica,sans-Serif" font-size="10.00">+</text>
<text text-anchor="start" x="34.5" y="-157" font-family="Helvetica,sans-Serif" font-size="10.00">addCoupling()</text>
<text text-anchor="start" x="21.5" y="-142" font-family="Helvetica,sans-Serif" font-size="10.00">+</text>
<text text-anchor="start" x="34.5" y="-142" font-family="Helvetica,sans-Serif" font-size="10.00">changeDimensions()</text>
<text text-anchor="start" x="21.5" y="-127" font-family="Helvetica,sans-Serif" font-size="10.00">+</text>
<text text-anchor="start" x="34.5" y="-127" font-family="Helvetica,sans-Serif" font-size="10.00">changeInputDimensions()</text>
<text text-anchor="start" x="21.5" y="-112" font-family="Helvetica,sans-Serif" font-size="10.00">+</text>
<text text-anchor="start" x="34.5" y="-112" font-family="Helvetica,sans-Serif" font-size="10.00">clone()</text>
<text text-anchor="start" x="21.5" y="-97" font-family="Helvetica,sans-Serif" font-size="10.00">+</text>
<text text-anchor="start" x="34.5" y="-97" font-family="Helvetica,sans-Serif" font-size="10.00">GaussFieldCoupling()</text>
<text text-anchor="start" x="21.5" y="-82" font-family="Helvetica,sans-Serif" font-size="10.00">+</text>
<text text-anchor="start" x="34.5" y="-82" font-family="Helvetica,sans-Serif" font-size="10.00">getInputFieldDimensions()</text>
<text text-anchor="start" x="21.5" y="-67" font-family="Helvetica,sans-Serif" font-size="10.00">+</text>
<text text-anchor="start" x="34.5" y="-67" font-family="Helvetica,sans-Serif" font-size="10.00">getParameters()</text>
<text text-anchor="start" x="21.5" y="-52" font-family="Helvetica,sans-Serif" font-size="10.00">+</text>
<text text-anchor="start" x="34.5" y="-52" font-family="Helvetica,sans-Serif" font-size="10.00">init()</text>
<text text-anchor="start" x="21.5" y="-37" font-family="Helvetica,sans-Serif" font-size="10.00">+</text>
<text text-anchor="start" x="34.5" y="-37" font-family="Helvetica,sans-Serif" font-size="10.00">setParameters()</text>
<text text-anchor="start" x="21.5" y="-22" font-family="Helvetica,sans-Serif" font-size="10.00">+</text>
<text text-anchor="start" x="34.5" y="-22" font-family="Helvetica,sans-Serif" font-size="10.00">step()</text>
<text text-anchor="start" x="21.5" y="-7" font-family="Helvetica,sans-Serif" font-size="10.00">+</text>
<text text-anchor="start" x="34.5" y="-7" font-family="Helvetica,sans-Serif" font-size="10.00">toString()</text>
<polygon fill="#666666" stroke="#666666" points="17.5,-182 17.5,-182 168.5,-182 168.5,-182 17.5,-182"/>
<polygon fill="#666666" stroke="#666666" points="17.5,-167 17.5,-167 168.5,-167 168.5,-167 17.5,-167"/>
<polygon fill="none" stroke="#666666" points="17,0 17,-210 168,-210 168,0 17,0"/>
</a>
</g>
</g>
<!-- Node2 -->
<g id="Node000002" class="node">
<title>Node2</title>
<g id="a_Node000002"><a xlink:href="classdnf__composer_1_1element_1_1Element.html" target="_top" xlink:title="Abstract base class for all simulation elements.">
<polygon fill="white" stroke="transparent" points="185,-501 0,-501 0,-246 185,-246 185,-501"/>
<text text-anchor="start" x="35" y="-488.5" font-family="Helvetica,sans-Serif" font-size="10.00">dnf_composer::element</text>
<text text-anchor="start" x="69.5" y="-477.5" font-family="Helvetica,sans-Serif" font-size="10.00">::Element</text>
<text text-anchor="start" x="4.5" y="-462.5" font-family="Helvetica,sans-Serif" font-size="10.00">#</text>
<text text-anchor="start" x="17.5" y="-462.5" font-family="Helvetica,sans-Serif" font-size="10.00">commonParameters</text>
<text text-anchor="start" x="4.5" y="-447.5" font-family="Helvetica,sans-Serif" font-size="10.00">#</text>
<text text-anchor="start" x="17.5" y="-447.5" font-family="Helvetica,sans-Serif" font-size="10.00">components</text>
<text text-anchor="start" x="4.5" y="-432.5" font-family="Helvetica,sans-Serif" font-size="10.00">#</text>
<text text-anchor="start" x="17.5" y="-432.5" font-family="Helvetica,sans-Serif" font-size="10.00">inputs</text>
<text text-anchor="start" x="4.5" y="-417.5" font-family="Helvetica,sans-Serif" font-size="10.00">#</text>
<text text-anchor="start" x="17.5" y="-417.5" font-family="Helvetica,sans-Serif" font-size="10.00">outputs</text>
<text text-anchor="start" x="4.5" y="-402.5" font-family="Helvetica,sans-Serif" font-size="10.00">+</text>
<text text-anchor="start" x="17.5" y="-402.5" font-family="Helvetica,sans-Serif" font-size="10.00">addInput()</text>
<text text-anchor="start" x="4.5" y="-387.5" font-family="Helvetica,sans-Serif" font-size="10.00">+</text>
<text text-anchor="start" x="17.5" y="-387.5" font-family="Helvetica,sans-Serif" font-size="10.00">changeDimensions()</text>
<text text-anchor="start" x="4.5" y="-372.5" font-family="Helvetica,sans-Serif" font-size="10.00">+</text>
<text text-anchor="start" x="17.5" y="-372.5" font-family="Helvetica,sans-Serif" font-size="10.00">clone()</text>
<text text-anchor="start" x="4.5" y="-357.5" font-family="Helvetica,sans-Serif" font-size="10.00">+</text>
<text text-anchor="start" x="17.5" y="-357.5" font-family="Helvetica,sans-Serif" font-size="10.00">close()</text>
<text text-anchor="start" x="4.5" y="-342.5" font-family="Helvetica,sans-Serif" font-size="10.00">+</text>
<text text-anchor="start" x="17.5" y="-342.5" font-family="Helvetica,sans-Serif" font-size="10.00">Element()</text>
<text text-anchor="start" x="4.5" y="-327.5" font-family="Helvetica,sans-Serif" font-size="10.00">+</text>
<text text-anchor="start" x="17.5" y="-327.5" font-family="Helvetica,sans-Serif" font-size="10.00">getComponent()</text>
<text text-anchor="start" x="4.5" y="-312.5" font-family="Helvetica,sans-Serif" font-size="10.00">+</text>
<text text-anchor="start" x="17.5" y="-312.5" font-family="Helvetica,sans-Serif" font-size="10.00">getComponentList()</text>
<text text-anchor="start" x="4.5" y="-297.5" font-family="Helvetica,sans-Serif" font-size="10.00">+</text>
<text text-anchor="start" x="17.5" y="-297.5" font-family="Helvetica,sans-Serif" font-size="10.00">getComponentPtr()</text>
<text text-anchor="start" x="4.5" y="-282.5" font-family="Helvetica,sans-Serif" font-size="10.00">+</text>
<text text-anchor="start" x="17.5" y="-282.5" font-family="Helvetica,sans-Serif" font-size="10.00">getComponents()</text>
<text text-anchor="start" x="4.5" y="-267.5" font-family="Helvetica,sans-Serif" font-size="10.00">+</text>
<text text-anchor="start" x="17.5" y="-267.5" font-family="Helvetica,sans-Serif" font-size="10.00">getElementCommonParameters()</text>
<text text-anchor="start" x="17.5" y="-252.5" font-family="Helvetica,sans-Serif" font-size="10.00">and 27 more...</text>
<polygon fill="#666666" stroke="#666666" points="0.5,-472.5 0.5,-472.5 185.5,-472.5 185.5,-472.5 0.5,-472.5"/>
<polygon fill="#666666" stroke="#666666" points="0.5,-412.5 0.5,-412.5 15.5,-412.5 15.5,-412.5 0.5,-412.5"/>
<polygon fill="#666666" stroke="#666666" points="15.5,-412.5 15.5,-412.5 185.5,-412.5 185.5,-412.5 15.5,-412.5"/>
<polygon fill="none" stroke="#666666" points="0,-246 0,-501 185,-501 185,-246 0,-246"/>
</a>
</g>
</g>
<!-- Node2&#45;&gt;Node1 -->
<g id="edge1_Node000001_Node000002" class="edge">
<title>Node2&#45;&gt;Node1</title>
<g id="a_edge1_Node000001_Node000002"><a xlink:title=" ">
<path fill="none" stroke="#63b8ff" d="M92.5,-235.79C92.5,-227.19 92.5,-218.61 92.5,-210.2"/>
<polygon fill="none" stroke="#63b8ff" points="89,-235.88 92.5,-245.88 96,-235.88 89,-235.88"/>
</a>
</g>
</g>
<!-- Node3 -->
<g id="Node000003" class="node">
<title>Node3</title>
<g id="a_Node000003"><a xlink:title=" ">
<polygon fill="white" stroke="transparent" points="155,-597 30,-597 30,-537 155,-537 155,-597"/>
<text text-anchor="start" x="35.5" y="-585" font-family="Helvetica,sans-Serif" font-size="10.00">std::enable_shared</text>
<text text-anchor="start" x="35.5" y="-574" font-family="Helvetica,sans-Serif" font-size="10.00">_from_this&lt; Element &gt;</text>
<text text-anchor="start" x="91" y="-559" font-family="Helvetica,sans-Serif" font-size="10.00"> </text>
<text text-anchor="start" x="91" y="-544" font-family="Helvetica,sans-Serif" font-size="10.00"> </text>
<polygon fill="#666666" stroke="#666666" points="30.5,-569 30.5,-569 155.5,-569 155.5,-569 30.5,-569"/>
<polygon fill="#666666" stroke="#666666" points="30.5,-554 30.5,-554 155.5,-554 155.5,-554 30.5,-554"/>
<polygon fill="none" stroke="#666666" points="30,-537 30,-597 155,-597 155,-537 30,-537"/>
</a>
</g>
</g>
<!-- Node3&#45;&gt;Node2 -->
<g id="edge2_Node000002_Node000003" class="edge">
<title>Node3&#45;&gt;Node2</title>
<g id="a_edge2_Node000002_Node000003"><a xlink:title=" ">
<path fill="none" stroke="#63b8ff" d="M92.5,-526.74C92.5,-518.9 92.5,-510.27 92.5,-501.23"/>
<polygon fill="none" stroke="#63b8ff" points="89,-526.92 92.5,-536.92 96,-526.92 89,-526.92"/>
</a>
</g>
</g>
</g>
</svg>
