<?xml version="1.0" encoding="UTF-8" standalone="no"?>
<!DOCTYPE svg PUBLIC "-//W3C//DTD SVG 1.1//EN"
 "http://www.w3.org/Graphics/SVG/1.1/DTD/svg11.dtd">
<!-- Generated by graphviz version 2.43.0 (0)
 -->
<!-- Title: dnf_composer::SimulationRecorder::takeSnapshot Pages: 1 -->
<svg width="332pt" height="134pt"
 viewBox="0.00 0.00 332.00 134.00" xmlns="http://www.w3.org/2000/svg" xmlns:xlink="http://www.w3.org/1999/xlink">
<g id="graph0" class="graph" transform="scale(1 1) rotate(0) translate(4 130)">
<title>dnf_composer::SimulationRecorder::takeSnapshot</title>
<!-- Node1 -->
<g id="Node000001" class="node">
<title>Node1</title>
<g id="a_Node000001"><a xlink:title="Write a single&#45;row snapshot CSV for the given element/component. Output path: data/&lt;simName&gt;/exports/...">
<polygon fill="#999999" stroke="#666666" points="144,-78 0,-78 0,-48 144,-48 144,-78"/>
<text text-anchor="start" x="8" y="-66" font-family="Helvetica,sans-Serif" font-size="10.00">dnf_composer::Simulation</text>
<text text-anchor="middle" x="72" y="-55" font-family="Helvetica,sans-Serif" font-size="10.00">Recorder::takeSnapshot</text>
</a>
</g>
</g>
<!-- Node2 -->
<g id="Node000002" class="node">
<title>Node2</title>
<g id="a_Node000002"><a xlink:href="classdnf__composer_1_1Simulation.html#a860f418ff5193deb9ae8f4a791a5f391" target="_top" xlink:title="Retrieve an element by its unique name. Throws if not found.">
<polygon fill="white" stroke="#666666" points="324,-126 180,-126 180,-96 324,-96 324,-126"/>
<text text-anchor="start" x="188" y="-114" font-family="Helvetica,sans-Serif" font-size="10.00">dnf_composer::Simulation</text>
<text text-anchor="middle" x="252" y="-103" font-family="Helvetica,sans-Serif" font-size="10.00">::getElement</text>
</a>
</g>
</g>
<!-- Node1&#45;&gt;Node2 -->
<g id="edge1_Node000001_Node000002" class="edge">
<title>Node1&#45;&gt;Node2</title>
<g id="a_edge1_Node000001_Node000002"><a xlink:title=" ">
<path fill="none" stroke="#63b8ff" d="M128.83,-78.06C146.81,-82.9 166.89,-88.32 185.5,-93.34"/>
<polygon fill="#63b8ff" stroke="#63b8ff" points="184.8,-96.77 195.37,-96 186.62,-90.01 184.8,-96.77"/>
</a>
</g>
</g>
<!-- Node3 -->
<g id="Node000003" class="node">
<title>Node3</title>
<g id="a_Node000003"><a xlink:href="namespacednf__composer_1_1tools_1_1utils.html#a140c0903ddcfc3ba01218f11d31608dc" target="_top" xlink:title=" ">
<polygon fill="white" stroke="#666666" points="318.5,-78 185.5,-78 185.5,-48 318.5,-48 318.5,-78"/>
<text text-anchor="start" x="193.5" y="-66" font-family="Helvetica,sans-Serif" font-size="10.00">dnf_composer::tools</text>
<text text-anchor="middle" x="252" y="-55" font-family="Helvetica,sans-Serif" font-size="10.00">::utils::getResourceRoot</text>
</a>
</g>
</g>
<!-- Node1&#45;&gt;Node3 -->
<g id="edge2_Node000001_Node000003" class="edge">
<title>Node1&#45;&gt;Node3</title>
<g id="a_edge2_Node000001_Node000003"><a xlink:title=" ">
<path fill="none" stroke="#63b8ff" d="M144.12,-63C154.36,-63 164.93,-63 175.25,-63"/>
<polygon fill="#63b8ff" stroke="#63b8ff" points="175.48,-66.5 185.48,-63 175.48,-59.5 175.48,-66.5"/>
</a>
</g>
</g>
<!-- Node4 -->
<g id="Node000004" class="node">
<title>Node4</title>
<g id="a_Node000004"><a xlink:href="namespacednf__composer_1_1tools_1_1logger.html#af64ef64b3026606a73972fdcae2ca87a" target="_top" xlink:title=" ">
<polygon fill="white" stroke="#666666" points="310,-30 194,-30 194,0 310,0 310,-30"/>
<text text-anchor="start" x="202" y="-18" font-family="Helvetica,sans-Serif" font-size="10.00">dnf_composer::tools</text>
<text text-anchor="middle" x="252" y="-7" font-family="Helvetica,sans-Serif" font-size="10.00">::logger::log</text>
</a>
</g>
</g>
<!-- Node1&#45;&gt;Node4 -->
<g id="edge3_Node000001_Node000004" class="edge">
<title>Node1&#45;&gt;Node4</title>
<g id="a_edge3_Node000001_Node000004"><a xlink:title=" ">
<path fill="none" stroke="#63b8ff" d="M128.83,-47.94C146.81,-43.1 166.89,-37.68 185.5,-32.66"/>
<polygon fill="#63b8ff" stroke="#63b8ff" points="186.62,-35.99 195.37,-30 184.8,-29.23 186.62,-35.99"/>
</a>
</g>
</g>
</g>
</svg>
