<?xml version="1.0" encoding="UTF-8" standalone="no"?>
<!DOCTYPE svg PUBLIC "-//W3C//DTD SVG 1.1//EN"
 "http://www.w3.org/Graphics/SVG/1.1/DTD/svg11.dtd">
<!-- Generated by graphviz version 2.43.0 (0)
 -->
<!-- Title: dnf_composer::element::OscillatoryKernel Pages: 1 -->
<svg width="193pt" height="731pt"
 viewBox="0.00 0.00 193.00 731.00" xmlns="http://www.w3.org/2000/svg" xmlns:xlink="http://www.w3.org/1999/xlink">
<g id="graph0" class="graph" transform="scale(1 1) rotate(0) translate(4 727)">
<title>dnf_composer::element::OscillatoryKernel</title>
<!-- Node1 -->
<g id="Node000001" class="node">
<title>Node1</title>
<g id="a_Node000001"><a xlink:title="Damped&#45;cosine convolution kernel for oscillatory field dynamics.">
<polygon fill="#999999" stroke="transparent" points="155.5,-150 29.5,-150 29.5,0 155.5,0 155.5,-150"/>
<text text-anchor="start" x="34.5" y="-138" font-family="Helvetica,sans-Serif" font-size="10.00">dnf_composer::element</text>
<text text-anchor="start" x="47.5" y="-127" font-family="Helvetica,sans-Serif" font-size="10.00">::OscillatoryKernel</text>
<text text-anchor="start" x="90.5" y="-112" font-family="Helvetica,sans-Serif" font-size="10.00"> </text>
<text text-anchor="start" x="37" y="-97" font-family="Helvetica,sans-Serif" font-size="10.00">+</text>
<text text-anchor="start" x="53.5" y="-97" font-family="Helvetica,sans-Serif" font-size="10.00">clone()</text>
<text text-anchor="start" x="37" y="-82" font-family="Helvetica,sans-Serif" font-size="10.00">+</text>
<text text-anchor="start" x="53.5" y="-82" font-family="Helvetica,sans-Serif" font-size="10.00">getParameters()</text>
<text text-anchor="start" x="37" y="-67" font-family="Helvetica,sans-Serif" font-size="10.00">+</text>
<text text-anchor="start" x="53.5" y="-67" font-family="Helvetica,sans-Serif" font-size="10.00">init()</text>
<text text-anchor="start" x="37" y="-52" font-family="Helvetica,sans-Serif" font-size="10.00">+</text>
<text text-anchor="start" x="53.5" y="-52" font-family="Helvetica,sans-Serif" font-size="10.00">OscillatoryKernel()</text>
<text text-anchor="start" x="37" y="-37" font-family="Helvetica,sans-Serif" font-size="10.00">+</text>
<text text-anchor="start" x="53.5" y="-37" font-family="Helvetica,sans-Serif" font-size="10.00">setParameters()</text>
<text text-anchor="start" x="37" y="-22" font-family="Helvetica,sans-Serif" font-size="10.00">+</text>
<text text-anchor="start" x="53.5" y="-22" font-family="Helvetica,sans-Serif" font-size="10.00">step()</text>
<text text-anchor="start" x="37" y="-7" font-family="Helvetica,sans-Serif" font-size="10.00">+</text>
<text text-anchor="start" x="53.5" y="-7" font-family="Helvetica,sans-Serif" font-size="10.00">toString()</text>
<polygon fill="#666666" stroke="#666666" points="29.5,-122 29.5,-122 155.5,-122 155.5,-122 29.5,-122"/>
<polygon fill="#666666" stroke="#666666" points="29.5,-107 29.5,-107 155.5,-107 155.5,-107 29.5,-107"/>
<polygon fill="none" stroke="#666666" points="29.5,0 29.5,-150 155.5,-150 155.5,0 29.5,0"/>
</a>
</g>
</g>
<!-- Node2 -->
<g id="Node000002" class="node">
<title>Node2</title>
<g id="a_Node000002"><a xlink:href="classdnf__composer_1_1element_1_1Kernel.html" target="_top" xlink:title="Abstract base class for all convolution&#45;based interaction kernels.">
<polygon fill="white" stroke="transparent" points="155.5,-336 29.5,-336 29.5,-186 155.5,-186 155.5,-336"/>
<text text-anchor="start" x="34.5" y="-324" font-family="Helvetica,sans-Serif" font-size="10.00">dnf_composer::element</text>
<text text-anchor="start" x="74" y="-313" font-family="Helvetica,sans-Serif" font-size="10.00">::Kernel</text>
<text text-anchor="start" x="38.5" y="-298" font-family="Helvetica,sans-Serif" font-size="10.00">#</text>
<text text-anchor="start" x="56.5" y="-298" font-family="Helvetica,sans-Serif" font-size="10.00">cutOfFactor</text>
<text text-anchor="start" x="38.5" y="-283" font-family="Helvetica,sans-Serif" font-size="10.00">#</text>
<text text-anchor="start" x="56.5" y="-283" font-family="Helvetica,sans-Serif" font-size="10.00">extIndex</text>
<text text-anchor="start" x="38.5" y="-268" font-family="Helvetica,sans-Serif" font-size="10.00">#</text>
<text text-anchor="start" x="56.5" y="-268" font-family="Helvetica,sans-Serif" font-size="10.00">fullSum</text>
<text text-anchor="start" x="38.5" y="-253" font-family="Helvetica,sans-Serif" font-size="10.00">#</text>
<text text-anchor="start" x="56.5" y="-253" font-family="Helvetica,sans-Serif" font-size="10.00">kernelRange</text>
<text text-anchor="start" x="38.5" y="-238" font-family="Helvetica,sans-Serif" font-size="10.00">+</text>
<text text-anchor="start" x="56.5" y="-238" font-family="Helvetica,sans-Serif" font-size="10.00">getExtIndex()</text>
<text text-anchor="start" x="38.5" y="-223" font-family="Helvetica,sans-Serif" font-size="10.00">+</text>
<text text-anchor="start" x="56.5" y="-223" font-family="Helvetica,sans-Serif" font-size="10.00">getKernelRange()</text>
<text text-anchor="start" x="38.5" y="-208" font-family="Helvetica,sans-Serif" font-size="10.00">+</text>
<text text-anchor="start" x="56.5" y="-208" font-family="Helvetica,sans-Serif" font-size="10.00">Kernel()</text>
<text text-anchor="start" x="38.5" y="-193" font-family="Helvetica,sans-Serif" font-size="10.00">+</text>
<text text-anchor="start" x="56.5" y="-193" font-family="Helvetica,sans-Serif" font-size="10.00">~Kernel()</text>
<polygon fill="#666666" stroke="#666666" points="29.5,-308 29.5,-308 155.5,-308 155.5,-308 29.5,-308"/>
<polygon fill="#666666" stroke="#666666" points="29.5,-248 29.5,-248 54.5,-248 54.5,-248 29.5,-248"/>
<polygon fill="#666666" stroke="#666666" points="54.5,-248 54.5,-248 155.5,-248 155.5,-248 54.5,-248"/>
<polygon fill="none" stroke="#666666" points="29.5,-186 29.5,-336 155.5,-336 155.5,-186 29.5,-186"/>
</a>
</g>
</g>
<!-- Node2&#45;&gt;Node1 -->
<g id="edge1_Node000001_Node000002" class="edge">
<title>Node2&#45;&gt;Node1</title>
<g id="a_edge1_Node000001_Node000002"><a xlink:title=" ">
<path fill="none" stroke="#63b8ff" d="M92.5,-175.93C92.5,-167.35 92.5,-158.66 92.5,-150.19"/>
<polygon fill="none" stroke="#63b8ff" points="89,-175.96 92.5,-185.96 96,-175.96 89,-175.96"/>
</a>
</g>
</g>
<!-- Node3 -->
<g id="Node000003" class="node">
<title>Node3</title>
<g id="a_Node000003"><a xlink:href="classdnf__composer_1_1element_1_1Element.html" target="_top" xlink:title="Abstract base class for all simulation elements.">
<polygon fill="white" stroke="transparent" points="185,-627 0,-627 0,-372 185,-372 185,-627"/>
<text text-anchor="start" x="35" y="-614.5" font-family="Helvetica,sans-Serif" font-size="10.00">dnf_composer::element</text>
<text text-anchor="start" x="69.5" y="-603.5" font-family="Helvetica,sans-Serif" font-size="10.00">::Element</text>
<text text-anchor="start" x="4.5" y="-588.5" font-family="Helvetica,sans-Serif" font-size="10.00">#</text>
<text text-anchor="start" x="17.5" y="-588.5" font-family="Helvetica,sans-Serif" font-size="10.00">commonParameters</text>
<text text-anchor="start" x="4.5" y="-573.5" font-family="Helvetica,sans-Serif" font-size="10.00">#</text>
<text text-anchor="start" x="17.5" y="-573.5" font-family="Helvetica,sans-Serif" font-size="10.00">components</text>
<text text-anchor="start" x="4.5" y="-558.5" font-family="Helvetica,sans-Serif" font-size="10.00">#</text>
<text text-anchor="start" x="17.5" y="-558.5" font-family="Helvetica,sans-Serif" font-size="10.00">inputs</text>
<text text-anchor="start" x="4.5" y="-543.5" font-family="Helvetica,sans-Serif" font-size="10.00">#</text>
<text text-anchor="start" x="17.5" y="-543.5" font-family="Helvetica,sans-Serif" font-size="10.00">outputs</text>
<text text-anchor="start" x="4.5" y="-528.5" font-family="Helvetica,sans-Serif" font-size="10.00">+</text>
<text text-anchor="start" x="17.5" y="-528.5" font-family="Helvetica,sans-Serif" font-size="10.00">addInput()</text>
<text text-anchor="start" x="4.5" y="-513.5" font-family="Helvetica,sans-Serif" font-size="10.00">+</text>
<text text-anchor="start" x="17.5" y="-513.5" font-family="Helvetica,sans-Serif" font-size="10.00">clone()</text>
<text text-anchor="start" x="4.5" y="-498.5" font-family="Helvetica,sans-Serif" font-size="10.00">+</text>
<text text-anchor="start" x="17.5" y="-498.5" font-family="Helvetica,sans-Serif" font-size="10.00">close()</text>
<text text-anchor="start" x="4.5" y="-483.5" font-family="Helvetica,sans-Serif" font-size="10.00">+</text>
<text text-anchor="start" x="17.5" y="-483.5" font-family="Helvetica,sans-Serif" font-size="10.00">Element()</text>
<text text-anchor="start" x="4.5" y="-468.5" font-family="Helvetica,sans-Serif" font-size="10.00">+</text>
<text text-anchor="start" x="17.5" y="-468.5" font-family="Helvetica,sans-Serif" font-size="10.00">getComponent()</text>
<text text-anchor="start" x="4.5" y="-453.5" font-family="Helvetica,sans-Serif" font-size="10.00">+</text>
<text text-anchor="start" x="17.5" y="-453.5" font-family="Helvetica,sans-Serif" font-size="10.00">getComponentList()</text>
<text text-anchor="start" x="4.5" y="-438.5" font-family="Helvetica,sans-Serif" font-size="10.00">+</text>
<text text-anchor="start" x="17.5" y="-438.5" font-family="Helvetica,sans-Serif" font-size="10.00">getComponentPtr()</text>
<text text-anchor="start" x="4.5" y="-423.5" font-family="Helvetica,sans-Serif" font-size="10.00">+</text>
<text text-anchor="start" x="17.5" y="-423.5" font-family="Helvetica,sans-Serif" font-size="10.00">getComponents()</text>
<text text-anchor="start" x="4.5" y="-408.5" font-family="Helvetica,sans-Serif" font-size="10.00">+</text>
<text text-anchor="start" x="17.5" y="-408.5" font-family="Helvetica,sans-Serif" font-size="10.00">getElementCommonParameters()</text>
<text text-anchor="start" x="4.5" y="-393.5" font-family="Helvetica,sans-Serif" font-size="10.00">+</text>
<text text-anchor="start" x="17.5" y="-393.5" font-family="Helvetica,sans-Serif" font-size="10.00">getInputs()</text>
<text text-anchor="start" x="17.5" y="-378.5" font-family="Helvetica,sans-Serif" font-size="10.00">and 26 more...</text>
<polygon fill="#666666" stroke="#666666" points="0.5,-598.5 0.5,-598.5 185.5,-598.5 185.5,-598.5 0.5,-598.5"/>
<polygon fill="#666666" stroke="#666666" points="0.5,-538.5 0.5,-538.5 15.5,-538.5 15.5,-538.5 0.5,-538.5"/>
<polygon fill="#666666" stroke="#666666" points="15.5,-538.5 15.5,-538.5 185.5,-538.5 185.5,-538.5 15.5,-538.5"/>
<polygon fill="none" stroke="#666666" points="0,-372 0,-627 185,-627 185,-372 0,-372"/>
</a>
</g>
</g>
<!-- Node3&#45;&gt;Node2 -->
<g id="edge2_Node000002_Node000003" class="edge">
<title>Node3&#45;&gt;Node2</title>
<g id="a_edge2_Node000002_Node000003"><a xlink:title=" ">
<path fill="none" stroke="#63b8ff" d="M92.5,-361.7C92.5,-353.01 92.5,-344.46 92.5,-336.25"/>
<polygon fill="none" stroke="#63b8ff" points="89,-361.94 92.5,-371.94 96,-361.94 89,-361.94"/>
</a>
</g>
</g>
<!-- Node4 -->
<g id="Node000004" class="node">
<title>Node4</title>
<g id="a_Node000004"><a xlink:title=" ">
<polygon fill="white" stroke="transparent" points="155,-723 30,-723 30,-663 155,-663 155,-723"/>
<text text-anchor="start" x="35.5" y="-711" font-family="Helvetica,sans-Serif" font-size="10.00">std::enable_shared</text>
<text text-anchor="start" x="35.5" y="-700" font-family="Helvetica,sans-Serif" font-size="10.00">_from_this&lt; Element &gt;</text>
<text text-anchor="start" x="91" y="-685" font-family="Helvetica,sans-Serif" font-size="10.00"> </text>
<text text-anchor="start" x="91" y="-670" font-family="Helvetica,sans-Serif" font-size="10.00"> </text>
<polygon fill="#666666" stroke="#666666" points="30.5,-695 30.5,-695 155.5,-695 155.5,-695 30.5,-695"/>
<polygon fill="#666666" stroke="#666666" points="30.5,-680 30.5,-680 155.5,-680 155.5,-680 30.5,-680"/>
<polygon fill="none" stroke="#666666" points="30,-663 30,-723 155,-723 155,-663 30,-663"/>
</a>
</g>
</g>
<!-- Node4&#45;&gt;Node3 -->
<g id="edge3_Node000003_Node000004" class="edge">
<title>Node4&#45;&gt;Node3</title>
<g id="a_edge3_Node000003_Node000004"><a xlink:title=" ">
<path fill="none" stroke="#63b8ff" d="M92.5,-652.74C92.5,-644.9 92.5,-636.27 92.5,-627.23"/>
<polygon fill="none" stroke="#63b8ff" points="89,-652.92 92.5,-662.92 96,-652.92 89,-652.92"/>
</a>
</g>
</g>
</g>
</svg>
