<?xml version="1.0" encoding="UTF-8" standalone="no"?>
<!DOCTYPE svg PUBLIC "-//W3C//DTD SVG 1.1//EN"
 "http://www.w3.org/Graphics/SVG/1.1/DTD/svg11.dtd">
<!-- Generated by graphviz version 2.43.0 (0)
 -->
<!-- Title: dnf_composer::user_interface::ElementWindow::render Pages: 1 -->
<svg width="534pt" height="108pt"
 viewBox="0.00 0.00 534.00 108.00" xmlns="http://www.w3.org/2000/svg" xmlns:xlink="http://www.w3.org/1999/xlink">
<g id="graph0" class="graph" transform="scale(1 1) rotate(0) translate(4 104)">
<title>dnf_composer::user_interface::ElementWindow::render</title>
<!-- Node1 -->
<g id="Node000001" class="node">
<title>Node1</title>
<g id="a_Node000001"><a xlink:title=" ">
<polygon fill="#999999" stroke="#666666" points="151,-70 0,-70 0,-29 151,-29 151,-70"/>
<text text-anchor="start" x="8" y="-58" font-family="Helvetica,sans-Serif" font-size="10.00">dnf_composer::user</text>
<text text-anchor="start" x="8" y="-47" font-family="Helvetica,sans-Serif" font-size="10.00">_interface::ElementWindow</text>
<text text-anchor="middle" x="75.5" y="-36" font-family="Helvetica,sans-Serif" font-size="10.00">::render</text>
</a>
</g>
</g>
<!-- Node2 -->
<g id="Node000002" class="node">
<title>Node2</title>
<g id="a_Node000002"><a xlink:href="classdnf__composer_1_1user__interface_1_1ElementWindow.html#a7a9a4725216b2715382e35468362857a" target="_top" xlink:title=" ">
<polygon fill="white" stroke="#666666" points="339,-70 187,-70 187,-29 339,-29 339,-70"/>
<text text-anchor="start" x="195" y="-58" font-family="Helvetica,sans-Serif" font-size="10.00">dnf_composer::user</text>
<text text-anchor="start" x="195" y="-47" font-family="Helvetica,sans-Serif" font-size="10.00">_interface::ElementWindow</text>
<text text-anchor="middle" x="263" y="-36" font-family="Helvetica,sans-Serif" font-size="10.00">::renderElementControlCard</text>
</a>
</g>
</g>
<!-- Node1&#45;&gt;Node2 -->
<g id="edge1_Node000001_Node000002" class="edge">
<title>Node1&#45;&gt;Node2</title>
<g id="a_edge1_Node000001_Node000002"><a xlink:title=" ">
<path fill="none" stroke="#63b8ff" d="M151.15,-49.5C159.61,-49.5 168.29,-49.5 176.88,-49.5"/>
<polygon fill="#63b8ff" stroke="#63b8ff" points="176.9,-53 186.9,-49.5 176.9,-46 176.9,-53"/>
</a>
</g>
</g>
<!-- Node3 -->
<g id="Node000003" class="node">
<title>Node3</title>
<g id="a_Node000003"><a xlink:href="namespacednf__composer_1_1user__interface_1_1widgets.html#a9c6e294d502952377736e23b9f120276" target="_top" xlink:title=" ">
<polygon fill="white" stroke="#666666" points="507,-100 394,-100 394,-59 507,-59 507,-100"/>
<text text-anchor="start" x="402" y="-88" font-family="Helvetica,sans-Serif" font-size="10.00">dnf_composer::user</text>
<text text-anchor="start" x="402" y="-77" font-family="Helvetica,sans-Serif" font-size="10.00">_interface::widgets</text>
<text text-anchor="middle" x="450.5" y="-66" font-family="Helvetica,sans-Serif" font-size="10.00">::renderHelpMarker</text>
</a>
</g>
</g>
<!-- Node2&#45;&gt;Node3 -->
<g id="edge2_Node000002_Node000003" class="edge">
<title>Node2&#45;&gt;Node3</title>
<g id="a_edge2_Node000002_Node000003"><a xlink:title=" ">
<path fill="none" stroke="#63b8ff" d="M339.18,-61.66C353.89,-64.04 369.21,-66.52 383.59,-68.84"/>
<polygon fill="#63b8ff" stroke="#63b8ff" points="383.44,-72.36 393.87,-70.5 384.56,-65.45 383.44,-72.36"/>
</a>
</g>
</g>
<!-- Node4 -->
<g id="Node000004" class="node">
<title>Node4</title>
<g id="a_Node000004"><a xlink:href="classdnf__composer_1_1user__interface_1_1ElementWindow.html#a9228aa9c672ebe10bfb418abe3be6cb6" target="_top" xlink:title=" ">
<polygon fill="white" stroke="#666666" points="526,-41 375,-41 375,0 526,0 526,-41"/>
<text text-anchor="start" x="383" y="-29" font-family="Helvetica,sans-Serif" font-size="10.00">dnf_composer::user</text>
<text text-anchor="start" x="383" y="-18" font-family="Helvetica,sans-Serif" font-size="10.00">_interface::ElementWindow</text>
<text text-anchor="middle" x="450.5" y="-7" font-family="Helvetica,sans-Serif" font-size="10.00">::switchElementToModify</text>
</a>
</g>
</g>
<!-- Node2&#45;&gt;Node4 -->
<g id="edge3_Node000002_Node000004" class="edge">
<title>Node2&#45;&gt;Node4</title>
<g id="a_edge3_Node000002_Node000004"><a xlink:title=" ">
<path fill="none" stroke="#63b8ff" d="M339.18,-37.75C347.63,-36.43 356.28,-35.07 364.83,-33.74"/>
<polygon fill="#63b8ff" stroke="#63b8ff" points="365.47,-37.18 374.81,-32.18 364.39,-30.26 365.47,-37.18"/>
</a>
</g>
</g>
</g>
</svg>
