<?xml version="1.0" encoding="UTF-8" standalone="no"?>
<!DOCTYPE svg PUBLIC "-//W3C//DTD SVG 1.1//EN"
 "http://www.w3.org/Graphics/SVG/1.1/DTD/svg11.dtd">
<!-- Generated by graphviz version 2.43.0 (0)
 -->
<!-- Title: dnf_composer::element::AsymmetricGaussKernel::setParameters Pages: 1 -->
<svg width="718pt" height="268pt"
 viewBox="0.00 0.00 718.00 268.00" xmlns="http://www.w3.org/2000/svg" xmlns:xlink="http://www.w3.org/1999/xlink">
<g id="graph0" class="graph" transform="scale(1 1) rotate(0) translate(4 264)">
<title>dnf_composer::element::AsymmetricGaussKernel::setParameters</title>
<!-- Node1 -->
<g id="Node000001" class="node">
<title>Node1</title>
<g id="a_Node000001"><a xlink:title=" ">
<polygon fill="#999999" stroke="#666666" points="143,-147.5 0,-147.5 0,-106.5 143,-106.5 143,-147.5"/>
<text text-anchor="start" x="8" y="-135.5" font-family="Helvetica,sans-Serif" font-size="10.00">dnf_composer::element</text>
<text text-anchor="start" x="8" y="-124.5" font-family="Helvetica,sans-Serif" font-size="10.00">::AsymmetricGaussKernel</text>
<text text-anchor="middle" x="71.5" y="-113.5" font-family="Helvetica,sans-Serif" font-size="10.00">::setParameters</text>
</a>
</g>
</g>
<!-- Node2 -->
<g id="Node000002" class="node">
<title>Node2</title>
<g id="a_Node000002"><a xlink:href="classdnf__composer_1_1element_1_1AsymmetricGaussKernel.html#a96e938df35bc5c5b9944201750e5ff83" target="_top" xlink:title="Initialize the element (called once before the simulation loop).">
<polygon fill="white" stroke="#666666" points="343,-142 179,-142 179,-112 343,-112 343,-142"/>
<text text-anchor="start" x="187" y="-130" font-family="Helvetica,sans-Serif" font-size="10.00">dnf_composer::element</text>
<text text-anchor="middle" x="261" y="-119" font-family="Helvetica,sans-Serif" font-size="10.00">::AsymmetricGaussKernel::init</text>
</a>
</g>
</g>
<!-- Node1&#45;&gt;Node2 -->
<g id="edge1_Node000001_Node000002" class="edge">
<title>Node1&#45;&gt;Node2</title>
<g id="a_edge1_Node000001_Node000002"><a xlink:title=" ">
<path fill="none" stroke="#63b8ff" d="M143.12,-127C151.48,-127 160.09,-127 168.68,-127"/>
<polygon fill="#63b8ff" stroke="#63b8ff" points="168.74,-130.5 178.74,-127 168.74,-123.5 168.74,-130.5"/>
</a>
</g>
</g>
<!-- Node3 -->
<g id="Node000003" class="node">
<title>Node3</title>
<g id="a_Node000003"><a xlink:href="namespacednf__composer_1_1tools_1_1math.html#ae0ded32bda3fdcee5561849a0ef3785c" target="_top" xlink:title=" ">
<polygon fill="white" stroke="#666666" points="538.5,-260 380.5,-260 380.5,-230 538.5,-230 538.5,-260"/>
<text text-anchor="start" x="388.5" y="-248" font-family="Helvetica,sans-Serif" font-size="10.00">dnf_composer::tools</text>
<text text-anchor="middle" x="459.5" y="-237" font-family="Helvetica,sans-Serif" font-size="10.00">::math::computeKernelRange</text>
</a>
</g>
</g>
<!-- Node2&#45;&gt;Node3 -->
<g id="edge2_Node000002_Node000003" class="edge">
<title>Node2&#45;&gt;Node3</title>
<g id="a_edge2_Node000002_Node000003"><a xlink:title=" ">
<path fill="none" stroke="#63b8ff" d="M276.89,-142.19C297.89,-162.79 338.2,-199.5 379,-221 382.49,-222.84 386.14,-224.56 389.87,-226.16"/>
<polygon fill="#63b8ff" stroke="#63b8ff" points="388.72,-229.47 399.3,-229.92 391.31,-222.96 388.72,-229.47"/>
</a>
</g>
</g>
<!-- Node4 -->
<g id="Node000004" class="node">
<title>Node4</title>
<g id="a_Node000004"><a xlink:href="namespacednf__composer_1_1tools_1_1math.html#a67b836c5dd7641c0def85f572838361e" target="_top" xlink:title=" ">
<polygon fill="white" stroke="#666666" points="538.5,-212 380.5,-212 380.5,-182 538.5,-182 538.5,-212"/>
<text text-anchor="start" x="388.5" y="-200" font-family="Helvetica,sans-Serif" font-size="10.00">dnf_composer::tools</text>
<text text-anchor="middle" x="459.5" y="-189" font-family="Helvetica,sans-Serif" font-size="10.00">::math::createExtendedIndex</text>
</a>
</g>
</g>
<!-- Node2&#45;&gt;Node4 -->
<g id="edge3_Node000002_Node000004" class="edge">
<title>Node2&#45;&gt;Node4</title>
<g id="a_edge3_Node000002_Node000004"><a xlink:title=" ">
<path fill="none" stroke="#63b8ff" d="M298.08,-142.06C321.07,-151.44 351.57,-163.49 379,-173 384.81,-175.02 390.89,-177.03 396.99,-178.98"/>
<polygon fill="#63b8ff" stroke="#63b8ff" points="395.97,-182.32 406.56,-181.98 398.07,-175.65 395.97,-182.32"/>
</a>
</g>
</g>
<!-- Node5 -->
<g id="Node000005" class="node">
<title>Node5</title>
<g id="a_Node000005"><a xlink:href="namespacednf__composer_1_1tools_1_1math.html#af1e4dc23150121f5d2c1ff789f3de9d3" target="_top" xlink:title=" ">
<polygon fill="white" stroke="#666666" points="517.5,-164 401.5,-164 401.5,-134 517.5,-134 517.5,-164"/>
<text text-anchor="start" x="409.5" y="-152" font-family="Helvetica,sans-Serif" font-size="10.00">dnf_composer::tools</text>
<text text-anchor="middle" x="459.5" y="-141" font-family="Helvetica,sans-Serif" font-size="10.00">::math::gauss</text>
</a>
</g>
</g>
<!-- Node2&#45;&gt;Node5 -->
<g id="edge4_Node000002_Node000005" class="edge">
<title>Node2&#45;&gt;Node5</title>
<g id="a_edge4_Node000002_Node000005"><a xlink:title=" ">
<path fill="none" stroke="#63b8ff" d="M343.06,-136.08C359.1,-137.87 375.78,-139.74 391.3,-141.48"/>
<polygon fill="#63b8ff" stroke="#63b8ff" points="390.99,-144.96 401.32,-142.6 391.77,-138.01 390.99,-144.96"/>
</a>
</g>
</g>
<!-- Node6 -->
<g id="Node000006" class="node">
<title>Node6</title>
<g id="a_Node000006"><a xlink:href="namespacednf__composer_1_1tools_1_1math.html#a4bd4cb928b836aa87f5383f232ac4da3" target="_top" xlink:title=" ">
<polygon fill="white" stroke="#666666" points="710,-99 576,-99 576,-69 710,-69 710,-99"/>
<text text-anchor="start" x="584" y="-87" font-family="Helvetica,sans-Serif" font-size="10.00">dnf_composer::tools</text>
<text text-anchor="middle" x="643" y="-76" font-family="Helvetica,sans-Serif" font-size="10.00">::math::gaussDerivative</text>
</a>
</g>
</g>
<!-- Node2&#45;&gt;Node6 -->
<g id="edge5_Node000002_Node000006" class="edge">
<title>Node2&#45;&gt;Node6</title>
<g id="a_edge5_Node000002_Node000006"><a xlink:title=" ">
<path fill="none" stroke="#63b8ff" d="M343.05,-117.83C408.95,-110.37 501.26,-99.93 565.81,-92.62"/>
<polygon fill="#63b8ff" stroke="#63b8ff" points="566.38,-96.08 575.93,-91.48 565.6,-89.12 566.38,-96.08"/>
</a>
</g>
</g>
<!-- Node7 -->
<g id="Node000007" class="node">
<title>Node7</title>
<g id="a_Node000007"><a xlink:href="namespacednf__composer_1_1tools_1_1math.html#a6f23f713f1bfd818c93988f8e122281c" target="_top" xlink:title=" ">
<polygon fill="white" stroke="#666666" points="540,-78 379,-78 379,-48 540,-48 540,-78"/>
<text text-anchor="start" x="387" y="-66" font-family="Helvetica,sans-Serif" font-size="10.00">dnf_composer::tools</text>
<text text-anchor="middle" x="459.5" y="-55" font-family="Helvetica,sans-Serif" font-size="10.00">::math::gaussDerivativeNorm</text>
</a>
</g>
</g>
<!-- Node2&#45;&gt;Node7 -->
<g id="edge6_Node000002_Node000007" class="edge">
<title>Node2&#45;&gt;Node7</title>
<g id="a_edge6_Node000002_Node000007"><a xlink:title=" ">
<path fill="none" stroke="#63b8ff" d="M308.07,-111.99C336.3,-102.8 372.63,-90.97 402.51,-81.24"/>
<polygon fill="#63b8ff" stroke="#63b8ff" points="403.95,-84.45 412.38,-78.02 401.79,-77.79 403.95,-84.45"/>
</a>
</g>
</g>
<!-- Node8 -->
<g id="Node000008" class="node">
<title>Node8</title>
<g id="a_Node000008"><a xlink:href="namespacednf__composer_1_1tools_1_1math.html#ae679c020137ca5fab108caa79fa33a13" target="_top" xlink:title=" ">
<polygon fill="white" stroke="#666666" points="517.5,-30 401.5,-30 401.5,0 517.5,0 517.5,-30"/>
<text text-anchor="start" x="409.5" y="-18" font-family="Helvetica,sans-Serif" font-size="10.00">dnf_composer::tools</text>
<text text-anchor="middle" x="459.5" y="-7" font-family="Helvetica,sans-Serif" font-size="10.00">::math::gaussNorm</text>
</a>
</g>
</g>
<!-- Node2&#45;&gt;Node8 -->
<g id="edge8_Node000002_Node000008" class="edge">
<title>Node2&#45;&gt;Node8</title>
<g id="a_edge8_Node000002_Node000008"><a xlink:title=" ">
<path fill="none" stroke="#63b8ff" d="M278.18,-111.85C299.68,-92.46 339.55,-58.99 379,-39 383.01,-36.97 387.23,-35.07 391.54,-33.31"/>
<polygon fill="#63b8ff" stroke="#63b8ff" points="392.99,-36.5 401.09,-29.67 390.5,-29.96 392.99,-36.5"/>
</a>
</g>
</g>
<!-- Node7&#45;&gt;Node6 -->
<g id="edge7_Node000007_Node000006" class="edge">
<title>Node7&#45;&gt;Node6</title>
<g id="a_edge7_Node000007_Node000006"><a xlink:title=" ">
<path fill="none" stroke="#63b8ff" d="M540.11,-72.21C548.57,-73.19 557.17,-74.18 565.59,-75.16"/>
<polygon fill="#63b8ff" stroke="#63b8ff" points="565.43,-78.66 575.77,-76.34 566.24,-71.71 565.43,-78.66"/>
</a>
</g>
</g>
</g>
</svg>
