<?xml version="1.0" encoding="UTF-8" standalone="no"?>
<!DOCTYPE svg PUBLIC "-//W3C//DTD SVG 1.1//EN"
 "http://www.w3.org/Graphics/SVG/1.1/DTD/svg11.dtd">
<!-- Generated by graphviz version 2.43.0 (0)
 -->
<!-- Title: dnf_composer::Simulation::init Pages: 1 -->
<svg width="321pt" height="86pt"
 viewBox="0.00 0.00 321.00 86.00" xmlns="http://www.w3.org/2000/svg" xmlns:xlink="http://www.w3.org/1999/xlink">
<g id="graph0" class="graph" transform="scale(1 1) rotate(0) translate(4 82)">
<title>dnf_composer::Simulation::init</title>
<!-- Node1 -->
<g id="Node000001" class="node">
<title>Node1</title>
<g id="a_Node000001"><a xlink:title="Initialize all registered elements. Must be called before step().">
<polygon fill="#999999" stroke="#666666" points="144,-54 0,-54 0,-24 144,-24 144,-54"/>
<text text-anchor="start" x="8" y="-42" font-family="Helvetica,sans-Serif" font-size="10.00">dnf_composer::Simulation</text>
<text text-anchor="middle" x="72" y="-31" font-family="Helvetica,sans-Serif" font-size="10.00">::init</text>
</a>
</g>
</g>
<!-- Node2 -->
<g id="Node000002" class="node">
<title>Node2</title>
<g id="a_Node000002"><a xlink:href="namespacednf__composer_1_1tools_1_1utils.html#a140c0903ddcfc3ba01218f11d31608dc" target="_top" xlink:title=" ">
<polygon fill="white" stroke="#666666" points="313,-78 180,-78 180,-48 313,-48 313,-78"/>
<text text-anchor="start" x="188" y="-66" font-family="Helvetica,sans-Serif" font-size="10.00">dnf_composer::tools</text>
<text text-anchor="middle" x="246.5" y="-55" font-family="Helvetica,sans-Serif" font-size="10.00">::utils::getResourceRoot</text>
</a>
</g>
</g>
<!-- Node1&#45;&gt;Node2 -->
<g id="edge1_Node000001_Node000002" class="edge">
<title>Node1&#45;&gt;Node2</title>
<g id="a_edge1_Node000001_Node000002"><a xlink:title=" ">
<path fill="none" stroke="#63b8ff" d="M144.16,-48.9C152.63,-50.08 161.3,-51.29 169.83,-52.47"/>
<polygon fill="#63b8ff" stroke="#63b8ff" points="169.38,-55.94 179.76,-53.85 170.34,-49.01 169.38,-55.94"/>
</a>
</g>
</g>
<!-- Node3 -->
<g id="Node000003" class="node">
<title>Node3</title>
<g id="a_Node000003"><a xlink:href="namespacednf__composer_1_1tools_1_1logger.html#af64ef64b3026606a73972fdcae2ca87a" target="_top" xlink:title=" ">
<polygon fill="white" stroke="#666666" points="304.5,-30 188.5,-30 188.5,0 304.5,0 304.5,-30"/>
<text text-anchor="start" x="196.5" y="-18" font-family="Helvetica,sans-Serif" font-size="10.00">dnf_composer::tools</text>
<text text-anchor="middle" x="246.5" y="-7" font-family="Helvetica,sans-Serif" font-size="10.00">::logger::log</text>
</a>
</g>
</g>
<!-- Node1&#45;&gt;Node3 -->
<g id="edge2_Node000001_Node000003" class="edge">
<title>Node1&#45;&gt;Node3</title>
<g id="a_edge2_Node000001_Node000003"><a xlink:title=" ">
<path fill="none" stroke="#63b8ff" d="M144.16,-29.1C155.46,-27.53 167.11,-25.91 178.31,-24.35"/>
<polygon fill="#63b8ff" stroke="#63b8ff" points="179.03,-27.78 188.45,-22.94 178.06,-20.85 179.03,-27.78"/>
</a>
</g>
</g>
</g>
</svg>
