<?xml version="1.0" encoding="UTF-8" standalone="no"?>
<!DOCTYPE svg PUBLIC "-//W3C//DTD SVG 1.1//EN"
 "http://www.w3.org/Graphics/SVG/1.1/DTD/svg11.dtd">
<!-- Generated by graphviz version 2.43.0 (0)
 -->
<!-- Title: dnf_composer::element::AsymmetricGaussKernel::step Pages: 1 -->
<svg width="367pt" height="230pt"
 viewBox="0.00 0.00 367.00 230.00" xmlns="http://www.w3.org/2000/svg" xmlns:xlink="http://www.w3.org/1999/xlink">
<g id="graph0" class="graph" transform="scale(1 1) rotate(0) translate(4 226)">
<title>dnf_composer::element::AsymmetricGaussKernel::step</title>
<!-- Node1 -->
<g id="Node000001" class="node">
<title>Node1</title>
<g id="a_Node000001"><a xlink:title="Advance the element by one time step.">
<polygon fill="#999999" stroke="#666666" points="170,-126 0,-126 0,-96 170,-96 170,-126"/>
<text text-anchor="start" x="8" y="-114" font-family="Helvetica,sans-Serif" font-size="10.00">dnf_composer::element</text>
<text text-anchor="middle" x="85" y="-103" font-family="Helvetica,sans-Serif" font-size="10.00">::AsymmetricGaussKernel::step</text>
</a>
</g>
</g>
<!-- Node2 -->
<g id="Node000002" class="node">
<title>Node2</title>
<g id="a_Node000002"><a xlink:href="namespacednf__composer_1_1tools_1_1math.html#a384e37867853468a2ab2f1ec45bf2e43" target="_top" xlink:title=" ">
<polygon fill="white" stroke="#666666" points="340.5,-222 224.5,-222 224.5,-192 340.5,-192 340.5,-222"/>
<text text-anchor="start" x="232.5" y="-210" font-family="Helvetica,sans-Serif" font-size="10.00">dnf_composer::tools</text>
<text text-anchor="middle" x="282.5" y="-199" font-family="Helvetica,sans-Serif" font-size="10.00">::math::conv_same</text>
</a>
</g>
</g>
<!-- Node1&#45;&gt;Node2 -->
<g id="edge1_Node000001_Node000002" class="edge">
<title>Node1&#45;&gt;Node2</title>
<g id="a_edge1_Node000001_Node000002"><a xlink:title=" ">
<path fill="none" stroke="#63b8ff" d="M107.71,-126.15C131.13,-141.97 169.91,-166.7 206,-183 210.13,-184.87 214.45,-186.65 218.84,-188.34"/>
<polygon fill="#63b8ff" stroke="#63b8ff" points="217.92,-191.73 228.51,-191.89 220.33,-185.16 217.92,-191.73"/>
</a>
</g>
</g>
<!-- Node3 -->
<g id="Node000003" class="node">
<title>Node3</title>
<g id="a_Node000003"><a xlink:href="namespacednf__composer_1_1tools_1_1math.html#ab20d3ab488a94e0088c4bd53d8deac9c" target="_top" xlink:title=" ">
<polygon fill="white" stroke="#666666" points="340.5,-174 224.5,-174 224.5,-144 340.5,-144 340.5,-174"/>
<text text-anchor="start" x="232.5" y="-162" font-family="Helvetica,sans-Serif" font-size="10.00">dnf_composer::tools</text>
<text text-anchor="middle" x="282.5" y="-151" font-family="Helvetica,sans-Serif" font-size="10.00">::math::conv_valid</text>
</a>
</g>
</g>
<!-- Node1&#45;&gt;Node3 -->
<g id="edge2_Node000001_Node000003" class="edge">
<title>Node1&#45;&gt;Node3</title>
<g id="a_edge2_Node000001_Node000003"><a xlink:title=" ">
<path fill="none" stroke="#63b8ff" d="M147.32,-126.06C168.68,-131.3 192.76,-137.21 214.55,-142.56"/>
<polygon fill="#63b8ff" stroke="#63b8ff" points="213.84,-145.99 224.39,-144.98 215.51,-139.19 213.84,-145.99"/>
</a>
</g>
</g>
<!-- Node4 -->
<g id="Node000004" class="node">
<title>Node4</title>
<g id="a_Node000004"><a xlink:href="namespacednf__composer_1_1tools_1_1math.html#a82c852ff9a51203bb51445e709dd22e1" target="_top" xlink:title=" ">
<polygon fill="white" stroke="#666666" points="359,-126 206,-126 206,-96 359,-96 359,-126"/>
<text text-anchor="start" x="214" y="-114" font-family="Helvetica,sans-Serif" font-size="10.00">dnf_composer::tools</text>
<text text-anchor="middle" x="282.5" y="-103" font-family="Helvetica,sans-Serif" font-size="10.00">::math::obtainCircularVector</text>
</a>
</g>
</g>
<!-- Node1&#45;&gt;Node4 -->
<g id="edge3_Node000001_Node000004" class="edge">
<title>Node1&#45;&gt;Node4</title>
<g id="a_edge3_Node000001_Node000004"><a xlink:title=" ">
<path fill="none" stroke="#63b8ff" d="M170.04,-111C178.51,-111 187.11,-111 195.59,-111"/>
<polygon fill="#63b8ff" stroke="#63b8ff" points="195.85,-114.5 205.85,-111 195.85,-107.5 195.85,-114.5"/>
</a>
</g>
</g>
<!-- Node5 -->
<g id="Node000005" class="node">
<title>Node5</title>
<g id="a_Node000005"><a xlink:href="namespacednf__composer_1_1tools_1_1math.html#ae470bf545f26f68babb6ce2731349b52" target="_top" xlink:title=" ">
<polygon fill="white" stroke="#666666" points="342,-78 223,-78 223,-48 342,-48 342,-78"/>
<text text-anchor="start" x="231" y="-66" font-family="Helvetica,sans-Serif" font-size="10.00">dnf_composer::tools</text>
<text text-anchor="middle" x="282.5" y="-55" font-family="Helvetica,sans-Serif" font-size="10.00">::math::resampleInto</text>
</a>
</g>
</g>
<!-- Node1&#45;&gt;Node5 -->
<g id="edge4_Node000001_Node000005" class="edge">
<title>Node1&#45;&gt;Node5</title>
<g id="a_edge4_Node000001_Node000005"><a xlink:title=" ">
<path fill="none" stroke="#63b8ff" d="M147.32,-95.94C168.11,-90.84 191.45,-85.11 212.78,-79.87"/>
<polygon fill="#63b8ff" stroke="#63b8ff" points="213.86,-83.21 222.73,-77.43 212.19,-76.41 213.86,-83.21"/>
</a>
</g>
</g>
<!-- Node6 -->
<g id="Node000006" class="node">
<title>Node6</title>
<g id="a_Node000006"><a xlink:href="classdnf__composer_1_1element_1_1Element.html#a87401af54d46e1cf99d2755d3fce0a9a" target="_top" xlink:title="Pull data from all registered input elements into this element&#39;s components.">
<polygon fill="white" stroke="#666666" points="348.5,-30 216.5,-30 216.5,0 348.5,0 348.5,-30"/>
<text text-anchor="start" x="224.5" y="-18" font-family="Helvetica,sans-Serif" font-size="10.00">dnf_composer::element</text>
<text text-anchor="middle" x="282.5" y="-7" font-family="Helvetica,sans-Serif" font-size="10.00">::Element::updateInput</text>
</a>
</g>
</g>
<!-- Node1&#45;&gt;Node6 -->
<g id="edge5_Node000001_Node000006" class="edge">
<title>Node1&#45;&gt;Node6</title>
<g id="a_edge5_Node000001_Node000006"><a xlink:title=" ">
<path fill="none" stroke="#63b8ff" d="M107.71,-95.85C131.13,-80.03 169.91,-55.3 206,-39 210.13,-37.13 214.45,-35.35 218.84,-33.66"/>
<polygon fill="#63b8ff" stroke="#63b8ff" points="220.33,-36.84 228.51,-30.11 217.92,-30.27 220.33,-36.84"/>
</a>
</g>
</g>
</g>
</svg>
