<?xml version="1.0" encoding="UTF-8" standalone="no"?>
<!DOCTYPE svg PUBLIC "-//W3C//DTD SVG 1.1//EN"
 "http://www.w3.org/Graphics/SVG/1.1/DTD/svg11.dtd">
<!-- Generated by graphviz version 2.43.0 (0)
 -->
<!-- Title: dnf_composer::Heatmap::setDimensionHint Pages: 1 -->
<svg width="542pt" height="86pt"
 viewBox="0.00 0.00 542.00 86.00" xmlns="http://www.w3.org/2000/svg" xmlns:xlink="http://www.w3.org/1999/xlink">
<g id="graph0" class="graph" transform="scale(1 1) rotate(0) translate(4 82)">
<title>dnf_composer::Heatmap::setDimensionHint</title>
<!-- Node1 -->
<g id="Node000001" class="node">
<title>Node1</title>
<g id="a_Node000001"><a xlink:title=" ">
<polygon fill="#999999" stroke="#666666" points="534,-54 397,-54 397,-24 534,-24 534,-54"/>
<text text-anchor="start" x="405" y="-42" font-family="Helvetica,sans-Serif" font-size="10.00">dnf_composer::Heatmap</text>
<text text-anchor="middle" x="465.5" y="-31" font-family="Helvetica,sans-Serif" font-size="10.00">::setDimensionHint</text>
</a>
</g>
</g>
<!-- Node2 -->
<g id="Node000002" class="node">
<title>Node2</title>
<g id="a_Node000002"><a xlink:href="namespacednf__composer.html#a4c2031cd1248fcbb3a6ac4e79c90bfae" target="_top" xlink:title=" ">
<polygon fill="white" stroke="#666666" points="361,-54 191,-54 191,-24 361,-24 361,-54"/>
<text text-anchor="start" x="199" y="-42" font-family="Helvetica,sans-Serif" font-size="10.00">dnf_composer::updateHeatmap</text>
<text text-anchor="middle" x="276" y="-31" font-family="Helvetica,sans-Serif" font-size="10.00">DimensionHint</text>
</a>
</g>
</g>
<!-- Node1&#45;&gt;Node2 -->
<g id="edge1_Node000001_Node000002" class="edge">
<title>Node1&#45;&gt;Node2</title>
<g id="a_edge1_Node000001_Node000002"><a xlink:title=" ">
<path fill="none" stroke="#63b8ff" d="M386.68,-39C378.29,-39 369.72,-39 361.25,-39"/>
<polygon fill="#63b8ff" stroke="#63b8ff" points="386.81,-42.5 396.81,-39 386.81,-35.5 386.81,-42.5"/>
</a>
</g>
</g>
<!-- Node3 -->
<g id="Node000003" class="node">
<title>Node3</title>
<g id="a_Node000003"><a xlink:href="classdnf__composer_1_1Visualization.html#a4120843cb7f862565a5bdcc9e855628f" target="_top" xlink:title="Render all plots (creates ImGui windows or child regions as appropriate).">
<polygon fill="white" stroke="#666666" points="155,-78 0,-78 0,-48 155,-48 155,-78"/>
<text text-anchor="start" x="8" y="-66" font-family="Helvetica,sans-Serif" font-size="10.00">dnf_composer::Visualization</text>
<text text-anchor="middle" x="77.5" y="-55" font-family="Helvetica,sans-Serif" font-size="10.00">::render</text>
</a>
</g>
</g>
<!-- Node2&#45;&gt;Node3 -->
<g id="edge2_Node000002_Node000003" class="edge">
<title>Node2&#45;&gt;Node3</title>
<g id="a_edge2_Node000002_Node000003"><a xlink:title=" ">
<path fill="none" stroke="#63b8ff" d="M180.74,-50.51C172.13,-51.56 163.48,-52.62 155.06,-53.65"/>
<polygon fill="#63b8ff" stroke="#63b8ff" points="181.31,-53.97 190.81,-49.28 180.46,-47.02 181.31,-53.97"/>
</a>
</g>
</g>
<!-- Node4 -->
<g id="Node000004" class="node">
<title>Node4</title>
<g id="a_Node000004"><a xlink:href="classdnf__composer_1_1Visualization.html#ab975004429a0a13107b131e21597833e" target="_top" xlink:title="Render a single plot&#39;s content without creating an ImGui window (caller owns the region).">
<polygon fill="white" stroke="#666666" points="155,-30 0,-30 0,0 155,0 155,-30"/>
<text text-anchor="start" x="8" y="-18" font-family="Helvetica,sans-Serif" font-size="10.00">dnf_composer::Visualization</text>
<text text-anchor="middle" x="77.5" y="-7" font-family="Helvetica,sans-Serif" font-size="10.00">::renderTile</text>
</a>
</g>
</g>
<!-- Node2&#45;&gt;Node4 -->
<g id="edge3_Node000002_Node000004" class="edge">
<title>Node2&#45;&gt;Node4</title>
<g id="a_edge3_Node000002_Node000004"><a xlink:title=" ">
<path fill="none" stroke="#63b8ff" d="M180.74,-27.49C172.13,-26.44 163.48,-25.38 155.06,-24.35"/>
<polygon fill="#63b8ff" stroke="#63b8ff" points="180.46,-30.98 190.81,-28.72 181.31,-24.03 180.46,-30.98"/>
</a>
</g>
</g>
</g>
</svg>
