<?xml version="1.0" encoding="UTF-8" standalone="no"?>
<!DOCTYPE svg PUBLIC "-//W3C//DTD SVG 1.1//EN"
 "http://www.w3.org/Graphics/SVG/1.1/DTD/svg11.dtd">
<!-- Generated by graphviz version 2.43.0 (0)
 -->
<!-- Title: dnf_composer::element::AsymmetricGaussKernel::init Pages: 1 -->
<svg width="539pt" height="268pt"
 viewBox="0.00 0.00 539.00 268.00" xmlns="http://www.w3.org/2000/svg" xmlns:xlink="http://www.w3.org/1999/xlink">
<g id="graph0" class="graph" transform="scale(1 1) rotate(0) translate(4 264)">
<title>dnf_composer::element::AsymmetricGaussKernel::init</title>
<!-- Node1 -->
<g id="Node000001" class="node">
<title>Node1</title>
<g id="a_Node000001"><a xlink:title="Initialize the element (called once before the simulation loop).">
<polygon fill="#999999" stroke="#666666" points="164,-142 0,-142 0,-112 164,-112 164,-142"/>
<text text-anchor="start" x="8" y="-130" font-family="Helvetica,sans-Serif" font-size="10.00">dnf_composer::element</text>
<text text-anchor="middle" x="82" y="-119" font-family="Helvetica,sans-Serif" font-size="10.00">::AsymmetricGaussKernel::init</text>
</a>
</g>
</g>
<!-- Node2 -->
<g id="Node000002" class="node">
<title>Node2</title>
<g id="a_Node000002"><a xlink:href="namespacednf__composer_1_1tools_1_1math.html#ae0ded32bda3fdcee5561849a0ef3785c" target="_top" xlink:title=" ">
<polygon fill="white" stroke="#666666" points="359.5,-260 201.5,-260 201.5,-230 359.5,-230 359.5,-260"/>
<text text-anchor="start" x="209.5" y="-248" font-family="Helvetica,sans-Serif" font-size="10.00">dnf_composer::tools</text>
<text text-anchor="middle" x="280.5" y="-237" font-family="Helvetica,sans-Serif" font-size="10.00">::math::computeKernelRange</text>
</a>
</g>
</g>
<!-- Node1&#45;&gt;Node2 -->
<g id="edge1_Node000001_Node000002" class="edge">
<title>Node1&#45;&gt;Node2</title>
<g id="a_edge1_Node000001_Node000002"><a xlink:title=" ">
<path fill="none" stroke="#63b8ff" d="M97.89,-142.19C118.89,-162.79 159.2,-199.5 200,-221 203.49,-222.84 207.14,-224.56 210.87,-226.16"/>
<polygon fill="#63b8ff" stroke="#63b8ff" points="209.72,-229.47 220.3,-229.92 212.31,-222.96 209.72,-229.47"/>
</a>
</g>
</g>
<!-- Node3 -->
<g id="Node000003" class="node">
<title>Node3</title>
<g id="a_Node000003"><a xlink:href="namespacednf__composer_1_1tools_1_1math.html#a67b836c5dd7641c0def85f572838361e" target="_top" xlink:title=" ">
<polygon fill="white" stroke="#666666" points="359.5,-212 201.5,-212 201.5,-182 359.5,-182 359.5,-212"/>
<text text-anchor="start" x="209.5" y="-200" font-family="Helvetica,sans-Serif" font-size="10.00">dnf_composer::tools</text>
<text text-anchor="middle" x="280.5" y="-189" font-family="Helvetica,sans-Serif" font-size="10.00">::math::createExtendedIndex</text>
</a>
</g>
</g>
<!-- Node1&#45;&gt;Node3 -->
<g id="edge2_Node000001_Node000003" class="edge">
<title>Node1&#45;&gt;Node3</title>
<g id="a_edge2_Node000001_Node000003"><a xlink:title=" ">
<path fill="none" stroke="#63b8ff" d="M119.08,-142.06C142.07,-151.44 172.57,-163.49 200,-173 205.81,-175.02 211.89,-177.03 217.99,-178.98"/>
<polygon fill="#63b8ff" stroke="#63b8ff" points="216.97,-182.32 227.56,-181.98 219.07,-175.65 216.97,-182.32"/>
</a>
</g>
</g>
<!-- Node4 -->
<g id="Node000004" class="node">
<title>Node4</title>
<g id="a_Node000004"><a xlink:href="namespacednf__composer_1_1tools_1_1math.html#af1e4dc23150121f5d2c1ff789f3de9d3" target="_top" xlink:title=" ">
<polygon fill="white" stroke="#666666" points="338.5,-164 222.5,-164 222.5,-134 338.5,-134 338.5,-164"/>
<text text-anchor="start" x="230.5" y="-152" font-family="Helvetica,sans-Serif" font-size="10.00">dnf_composer::tools</text>
<text text-anchor="middle" x="280.5" y="-141" font-family="Helvetica,sans-Serif" font-size="10.00">::math::gauss</text>
</a>
</g>
</g>
<!-- Node1&#45;&gt;Node4 -->
<g id="edge3_Node000001_Node000004" class="edge">
<title>Node1&#45;&gt;Node4</title>
<g id="a_edge3_Node000001_Node000004"><a xlink:title=" ">
<path fill="none" stroke="#63b8ff" d="M164.06,-136.08C180.1,-137.87 196.78,-139.74 212.3,-141.48"/>
<polygon fill="#63b8ff" stroke="#63b8ff" points="211.99,-144.96 222.32,-142.6 212.77,-138.01 211.99,-144.96"/>
</a>
</g>
</g>
<!-- Node5 -->
<g id="Node000005" class="node">
<title>Node5</title>
<g id="a_Node000005"><a xlink:href="namespacednf__composer_1_1tools_1_1math.html#a4bd4cb928b836aa87f5383f232ac4da3" target="_top" xlink:title=" ">
<polygon fill="white" stroke="#666666" points="531,-99 397,-99 397,-69 531,-69 531,-99"/>
<text text-anchor="start" x="405" y="-87" font-family="Helvetica,sans-Serif" font-size="10.00">dnf_composer::tools</text>
<text text-anchor="middle" x="464" y="-76" font-family="Helvetica,sans-Serif" font-size="10.00">::math::gaussDerivative</text>
</a>
</g>
</g>
<!-- Node1&#45;&gt;Node5 -->
<g id="edge4_Node000001_Node000005" class="edge">
<title>Node1&#45;&gt;Node5</title>
<g id="a_edge4_Node000001_Node000005"><a xlink:title=" ">
<path fill="none" stroke="#63b8ff" d="M164.05,-117.83C229.95,-110.37 322.26,-99.93 386.81,-92.62"/>
<polygon fill="#63b8ff" stroke="#63b8ff" points="387.38,-96.08 396.93,-91.48 386.6,-89.12 387.38,-96.08"/>
</a>
</g>
</g>
<!-- Node6 -->
<g id="Node000006" class="node">
<title>Node6</title>
<g id="a_Node000006"><a xlink:href="namespacednf__composer_1_1tools_1_1math.html#a6f23f713f1bfd818c93988f8e122281c" target="_top" xlink:title=" ">
<polygon fill="white" stroke="#666666" points="361,-78 200,-78 200,-48 361,-48 361,-78"/>
<text text-anchor="start" x="208" y="-66" font-family="Helvetica,sans-Serif" font-size="10.00">dnf_composer::tools</text>
<text text-anchor="middle" x="280.5" y="-55" font-family="Helvetica,sans-Serif" font-size="10.00">::math::gaussDerivativeNorm</text>
</a>
</g>
</g>
<!-- Node1&#45;&gt;Node6 -->
<g id="edge5_Node000001_Node000006" class="edge">
<title>Node1&#45;&gt;Node6</title>
<g id="a_edge5_Node000001_Node000006"><a xlink:title=" ">
<path fill="none" stroke="#63b8ff" d="M129.07,-111.99C157.3,-102.8 193.63,-90.97 223.51,-81.24"/>
<polygon fill="#63b8ff" stroke="#63b8ff" points="224.95,-84.45 233.38,-78.02 222.79,-77.79 224.95,-84.45"/>
</a>
</g>
</g>
<!-- Node7 -->
<g id="Node000007" class="node">
<title>Node7</title>
<g id="a_Node000007"><a xlink:href="namespacednf__composer_1_1tools_1_1math.html#ae679c020137ca5fab108caa79fa33a13" target="_top" xlink:title=" ">
<polygon fill="white" stroke="#666666" points="338.5,-30 222.5,-30 222.5,0 338.5,0 338.5,-30"/>
<text text-anchor="start" x="230.5" y="-18" font-family="Helvetica,sans-Serif" font-size="10.00">dnf_composer::tools</text>
<text text-anchor="middle" x="280.5" y="-7" font-family="Helvetica,sans-Serif" font-size="10.00">::math::gaussNorm</text>
</a>
</g>
</g>
<!-- Node1&#45;&gt;Node7 -->
<g id="edge7_Node000001_Node000007" class="edge">
<title>Node1&#45;&gt;Node7</title>
<g id="a_edge7_Node000001_Node000007"><a xlink:title=" ">
<path fill="none" stroke="#63b8ff" d="M99.18,-111.85C120.68,-92.46 160.55,-58.99 200,-39 204.01,-36.97 208.23,-35.07 212.54,-33.31"/>
<polygon fill="#63b8ff" stroke="#63b8ff" points="213.99,-36.5 222.09,-29.67 211.5,-29.96 213.99,-36.5"/>
</a>
</g>
</g>
<!-- Node6&#45;&gt;Node5 -->
<g id="edge6_Node000006_Node000005" class="edge">
<title>Node6&#45;&gt;Node5</title>
<g id="a_edge6_Node000006_Node000005"><a xlink:title=" ">
<path fill="none" stroke="#63b8ff" d="M361.11,-72.21C369.57,-73.19 378.17,-74.18 386.59,-75.16"/>
<polygon fill="#63b8ff" stroke="#63b8ff" points="386.43,-78.66 396.77,-76.34 387.24,-71.71 386.43,-78.66"/>
</a>
</g>
</g>
</g>
</svg>
