<?xml version="1.0" encoding="UTF-8" standalone="no"?>
<!DOCTYPE svg PUBLIC "-//W3C//DTD SVG 1.1//EN"
 "http://www.w3.org/Graphics/SVG/1.1/DTD/svg11.dtd">
<!-- Generated by graphviz version 2.43.0 (0)
 -->
<!-- Title: dnf_composer::element::GaussFieldCoupling::toString Pages: 1 -->
<svg width="518pt" height="108pt"
 viewBox="0.00 0.00 518.00 108.00" xmlns="http://www.w3.org/2000/svg" xmlns:xlink="http://www.w3.org/1999/xlink">
<g id="graph0" class="graph" transform="scale(1 1) rotate(0) translate(4 104)">
<title>dnf_composer::element::GaussFieldCoupling::toString</title>
<!-- Node1 -->
<g id="Node000001" class="node">
<title>Node1</title>
<g id="a_Node000001"><a xlink:title=" ">
<polygon fill="#999999" stroke="#666666" points="132,-70 0,-70 0,-29 132,-29 132,-70"/>
<text text-anchor="start" x="8" y="-58" font-family="Helvetica,sans-Serif" font-size="10.00">dnf_composer::element</text>
<text text-anchor="start" x="8" y="-47" font-family="Helvetica,sans-Serif" font-size="10.00">::GaussFieldCoupling</text>
<text text-anchor="middle" x="66" y="-36" font-family="Helvetica,sans-Serif" font-size="10.00">::toString</text>
</a>
</g>
</g>
<!-- Node2 -->
<g id="Node000002" class="node">
<title>Node2</title>
<g id="a_Node000002"><a xlink:href="structdnf__composer_1_1element_1_1ElementCommonParameters.html#a83c667c71a22c80a0e415da7fab9795b" target="_top" xlink:title=" ">
<polygon fill="white" stroke="#666666" points="336.5,-41 173.5,-41 173.5,0 336.5,0 336.5,-41"/>
<text text-anchor="start" x="181.5" y="-29" font-family="Helvetica,sans-Serif" font-size="10.00">dnf_composer::element</text>
<text text-anchor="start" x="181.5" y="-18" font-family="Helvetica,sans-Serif" font-size="10.00">::ElementCommonParameters</text>
<text text-anchor="middle" x="255" y="-7" font-family="Helvetica,sans-Serif" font-size="10.00">::toString</text>
</a>
</g>
</g>
<!-- Node1&#45;&gt;Node2 -->
<g id="edge1_Node000001_Node000002" class="edge">
<title>Node1&#45;&gt;Node2</title>
<g id="a_edge1_Node000001_Node000002"><a xlink:title=" ">
<path fill="none" stroke="#63b8ff" d="M132.14,-39.4C142.21,-37.84 152.75,-36.2 163.26,-34.57"/>
<polygon fill="#63b8ff" stroke="#63b8ff" points="163.95,-38.01 173.29,-33.02 162.88,-31.09 163.95,-38.01"/>
</a>
</g>
</g>
<!-- Node5 -->
<g id="Node000005" class="node">
<title>Node5</title>
<g id="a_Node000005"><a xlink:href="structdnf__composer_1_1element_1_1GaussFieldCouplingParameters.html#a2e99d9d86c8a44b489917bf45d325d9a" target="_top" xlink:title=" ">
<polygon fill="white" stroke="#666666" points="342,-100 168,-100 168,-59 342,-59 342,-100"/>
<text text-anchor="start" x="176" y="-88" font-family="Helvetica,sans-Serif" font-size="10.00">dnf_composer::element</text>
<text text-anchor="start" x="176" y="-77" font-family="Helvetica,sans-Serif" font-size="10.00">::GaussFieldCouplingParameters</text>
<text text-anchor="middle" x="255" y="-66" font-family="Helvetica,sans-Serif" font-size="10.00">::toString</text>
</a>
</g>
</g>
<!-- Node1&#45;&gt;Node5 -->
<g id="edge4_Node000001_Node000005" class="edge">
<title>Node1&#45;&gt;Node5</title>
<g id="a_edge4_Node000001_Node000005"><a xlink:title=" ">
<path fill="none" stroke="#63b8ff" d="M132.14,-59.95C140.4,-61.28 148.98,-62.65 157.6,-64.03"/>
<polygon fill="#63b8ff" stroke="#63b8ff" points="157.28,-67.53 167.71,-65.66 158.39,-60.62 157.28,-67.53"/>
</a>
</g>
</g>
<!-- Node3 -->
<g id="Node000003" class="node">
<title>Node3</title>
<g id="a_Node000003"><a xlink:href="structdnf__composer_1_1element_1_1ElementDimensions.html#a1e2439e8cba19f3bf61a48cdd01c4fc7" target="_top" xlink:title=" ">
<polygon fill="white" stroke="#666666" points="510,-100 378,-100 378,-59 510,-59 510,-100"/>
<text text-anchor="start" x="386" y="-88" font-family="Helvetica,sans-Serif" font-size="10.00">dnf_composer::element</text>
<text text-anchor="start" x="386" y="-77" font-family="Helvetica,sans-Serif" font-size="10.00">::ElementDimensions::</text>
<text text-anchor="middle" x="444" y="-66" font-family="Helvetica,sans-Serif" font-size="10.00">toString</text>
</a>
</g>
</g>
<!-- Node2&#45;&gt;Node3 -->
<g id="edge2_Node000002_Node000003" class="edge">
<title>Node2&#45;&gt;Node3</title>
<g id="a_edge2_Node000002_Node000003"><a xlink:title=" ">
<path fill="none" stroke="#63b8ff" d="M321.14,-41.05C336.33,-45.84 352.62,-50.98 368.19,-55.9"/>
<polygon fill="#63b8ff" stroke="#63b8ff" points="367.19,-59.25 377.78,-58.92 369.29,-52.57 367.19,-59.25"/>
</a>
</g>
</g>
<!-- Node4 -->
<g id="Node000004" class="node">
<title>Node4</title>
<g id="a_Node000004"><a xlink:href="structdnf__composer_1_1element_1_1ElementIdentifiers.html#a0eb01a994b1696c38ea371454620d2d4" target="_top" xlink:title=" ">
<polygon fill="white" stroke="#666666" points="510,-41 378,-41 378,0 510,0 510,-41"/>
<text text-anchor="start" x="386" y="-29" font-family="Helvetica,sans-Serif" font-size="10.00">dnf_composer::element</text>
<text text-anchor="start" x="386" y="-18" font-family="Helvetica,sans-Serif" font-size="10.00">::ElementIdentifiers</text>
<text text-anchor="middle" x="444" y="-7" font-family="Helvetica,sans-Serif" font-size="10.00">::toString</text>
</a>
</g>
</g>
<!-- Node2&#45;&gt;Node4 -->
<g id="edge3_Node000002_Node000004" class="edge">
<title>Node2&#45;&gt;Node4</title>
<g id="a_edge3_Node000002_Node000004"><a xlink:title=" ">
<path fill="none" stroke="#63b8ff" d="M336.66,-20.5C346.97,-20.5 357.48,-20.5 367.7,-20.5"/>
<polygon fill="#63b8ff" stroke="#63b8ff" points="367.8,-24 377.8,-20.5 367.8,-17 367.8,-24"/>
</a>
</g>
</g>
<!-- Node5&#45;&gt;Node3 -->
<g id="edge5_Node000005_Node000003" class="edge">
<title>Node5&#45;&gt;Node3</title>
<g id="a_edge5_Node000005_Node000003"><a xlink:title=" ">
<path fill="none" stroke="#63b8ff" d="M342.11,-79.5C350.63,-79.5 359.23,-79.5 367.63,-79.5"/>
<polygon fill="#63b8ff" stroke="#63b8ff" points="367.75,-83 377.75,-79.5 367.75,-76 367.75,-83"/>
</a>
</g>
</g>
</g>
</svg>
