<?xml version="1.0" encoding="UTF-8" standalone="no"?>
<!DOCTYPE svg PUBLIC "-//W3C//DTD SVG 1.1//EN"
 "http://www.w3.org/Graphics/SVG/1.1/DTD/svg11.dtd">
<!-- Generated by graphviz version 2.43.0 (0)
 -->
<!-- Title: dnf_composer::element::Element::removeOutputs Pages: 1 -->
<svg width="377pt" height="86pt"
 viewBox="0.00 0.00 377.00 86.00" xmlns="http://www.w3.org/2000/svg" xmlns:xlink="http://www.w3.org/1999/xlink">
<g id="graph0" class="graph" transform="scale(1 1) rotate(0) translate(4 82)">
<title>dnf_composer::element::Element::removeOutputs</title>
<!-- Node1 -->
<g id="Node000001" class="node">
<title>Node1</title>
<g id="a_Node000001"><a xlink:title=" ">
<polygon fill="#999999" stroke="#666666" points="369,-54 224,-54 224,-24 369,-24 369,-54"/>
<text text-anchor="start" x="232" y="-42" font-family="Helvetica,sans-Serif" font-size="10.00">dnf_composer::element</text>
<text text-anchor="middle" x="296.5" y="-31" font-family="Helvetica,sans-Serif" font-size="10.00">::Element::removeOutputs</text>
</a>
</g>
</g>
<!-- Node2 -->
<g id="Node000002" class="node">
<title>Node2</title>
<g id="a_Node000002"><a xlink:href="classdnf__composer_1_1element_1_1Collapse.html#ad6700e2bb17bd998c6a8451e4e572063" target="_top" xlink:title="Resize the 2D input field dimensions and rebuild the input buffer.">
<polygon fill="white" stroke="#666666" points="188,-78 0,-78 0,-48 188,-48 188,-78"/>
<text text-anchor="start" x="8" y="-66" font-family="Helvetica,sans-Serif" font-size="10.00">dnf_composer::element</text>
<text text-anchor="middle" x="94" y="-55" font-family="Helvetica,sans-Serif" font-size="10.00">::Collapse::changeInputDimensions</text>
</a>
</g>
</g>
<!-- Node1&#45;&gt;Node2 -->
<g id="edge1_Node000001_Node000002" class="edge">
<title>Node1&#45;&gt;Node2</title>
<g id="a_edge1_Node000001_Node000002"><a xlink:title=" ">
<path fill="none" stroke="#63b8ff" d="M213.8,-48.78C205.37,-49.79 196.77,-50.82 188.23,-51.84"/>
<polygon fill="#63b8ff" stroke="#63b8ff" points="214.45,-52.23 223.96,-47.56 213.62,-45.28 214.45,-52.23"/>
</a>
</g>
</g>
<!-- Node3 -->
<g id="Node000003" class="node">
<title>Node3</title>
<g id="a_Node000003"><a xlink:href="classdnf__composer_1_1element_1_1Expand.html#a6cee09d9807a6b35a20c50d2f64e6dc4" target="_top" xlink:title="Resize the 1D input field dimensions and rebuild the input buffer.">
<polygon fill="white" stroke="#666666" points="185,-30 3,-30 3,0 185,0 185,-30"/>
<text text-anchor="start" x="11" y="-18" font-family="Helvetica,sans-Serif" font-size="10.00">dnf_composer::element</text>
<text text-anchor="middle" x="94" y="-7" font-family="Helvetica,sans-Serif" font-size="10.00">::Expand::changeInputDimensions</text>
</a>
</g>
</g>
<!-- Node1&#45;&gt;Node3 -->
<g id="edge2_Node000001_Node000003" class="edge">
<title>Node1&#45;&gt;Node3</title>
<g id="a_edge2_Node000001_Node000003"><a xlink:title=" ">
<path fill="none" stroke="#63b8ff" d="M213.8,-29.22C204.34,-28.09 194.65,-26.93 185.09,-25.78"/>
<polygon fill="#63b8ff" stroke="#63b8ff" points="213.62,-32.72 223.96,-30.44 214.45,-25.77 213.62,-32.72"/>
</a>
</g>
</g>
</g>
</svg>
