<?xml version="1.0" encoding="UTF-8" standalone="no"?>
<!DOCTYPE svg PUBLIC "-//W3C//DTD SVG 1.1//EN"
 "http://www.w3.org/Graphics/SVG/1.1/DTD/svg11.dtd">
<!-- Generated by graphviz version 2.43.0 (0)
 -->
<!-- Title: dnf_composer::element::AsymmetricGaussKernel2D::init Pages: 1 -->
<svg width="553pt" height="268pt"
 viewBox="0.00 0.00 553.00 268.00" xmlns="http://www.w3.org/2000/svg" xmlns:xlink="http://www.w3.org/1999/xlink">
<g id="graph0" class="graph" transform="scale(1 1) rotate(0) translate(4 264)">
<title>dnf_composer::element::AsymmetricGaussKernel2D::init</title>
<!-- Node1 -->
<g id="Node000001" class="node">
<title>Node1</title>
<g id="a_Node000001"><a xlink:title="Initialize the element (called once before the simulation loop).">
<polygon fill="#999999" stroke="#666666" points="178,-142 0,-142 0,-112 178,-112 178,-142"/>
<text text-anchor="start" x="8" y="-130" font-family="Helvetica,sans-Serif" font-size="10.00">dnf_composer::element</text>
<text text-anchor="middle" x="89" y="-119" font-family="Helvetica,sans-Serif" font-size="10.00">::AsymmetricGaussKernel2D::init</text>
</a>
</g>
</g>
<!-- Node2 -->
<g id="Node000002" class="node">
<title>Node2</title>
<g id="a_Node000002"><a xlink:href="namespacednf__composer_1_1tools_1_1math.html#ae0ded32bda3fdcee5561849a0ef3785c" target="_top" xlink:title=" ">
<polygon fill="white" stroke="#666666" points="373.5,-260 215.5,-260 215.5,-230 373.5,-230 373.5,-260"/>
<text text-anchor="start" x="223.5" y="-248" font-family="Helvetica,sans-Serif" font-size="10.00">dnf_composer::tools</text>
<text text-anchor="middle" x="294.5" y="-237" font-family="Helvetica,sans-Serif" font-size="10.00">::math::computeKernelRange</text>
</a>
</g>
</g>
<!-- Node1&#45;&gt;Node2 -->
<g id="edge1_Node000001_Node000002" class="edge">
<title>Node1&#45;&gt;Node2</title>
<g id="a_edge1_Node000001_Node000002"><a xlink:title=" ">
<path fill="none" stroke="#63b8ff" d="M105.96,-142.13C128.42,-162.67 171.39,-199.31 214,-221 217.69,-222.88 221.54,-224.63 225.49,-226.28"/>
<polygon fill="#63b8ff" stroke="#63b8ff" points="224.23,-229.54 234.81,-229.9 226.76,-223.01 224.23,-229.54"/>
</a>
</g>
</g>
<!-- Node3 -->
<g id="Node000003" class="node">
<title>Node3</title>
<g id="a_Node000003"><a xlink:href="namespacednf__composer_1_1tools_1_1math.html#a67b836c5dd7641c0def85f572838361e" target="_top" xlink:title=" ">
<polygon fill="white" stroke="#666666" points="373.5,-212 215.5,-212 215.5,-182 373.5,-182 373.5,-212"/>
<text text-anchor="start" x="223.5" y="-200" font-family="Helvetica,sans-Serif" font-size="10.00">dnf_composer::tools</text>
<text text-anchor="middle" x="294.5" y="-189" font-family="Helvetica,sans-Serif" font-size="10.00">::math::createExtendedIndex</text>
</a>
</g>
</g>
<!-- Node1&#45;&gt;Node3 -->
<g id="edge2_Node000001_Node000003" class="edge">
<title>Node1&#45;&gt;Node3</title>
<g id="a_edge2_Node000001_Node000003"><a xlink:title=" ">
<path fill="none" stroke="#63b8ff" d="M128.6,-142.02C152.96,-151.33 185.16,-163.31 214,-173 219.92,-174.99 226.11,-176.99 232.31,-178.95"/>
<polygon fill="#63b8ff" stroke="#63b8ff" points="231.44,-182.34 242.03,-181.97 233.52,-175.66 231.44,-182.34"/>
</a>
</g>
</g>
<!-- Node4 -->
<g id="Node000004" class="node">
<title>Node4</title>
<g id="a_Node000004"><a xlink:href="namespacednf__composer_1_1tools_1_1math.html#af1e4dc23150121f5d2c1ff789f3de9d3" target="_top" xlink:title=" ">
<polygon fill="white" stroke="#666666" points="352.5,-164 236.5,-164 236.5,-134 352.5,-134 352.5,-164"/>
<text text-anchor="start" x="244.5" y="-152" font-family="Helvetica,sans-Serif" font-size="10.00">dnf_composer::tools</text>
<text text-anchor="middle" x="294.5" y="-141" font-family="Helvetica,sans-Serif" font-size="10.00">::math::gauss</text>
</a>
</g>
</g>
<!-- Node1&#45;&gt;Node4 -->
<g id="edge3_Node000001_Node000004" class="edge">
<title>Node1&#45;&gt;Node4</title>
<g id="a_edge3_Node000001_Node000004"><a xlink:title=" ">
<path fill="none" stroke="#63b8ff" d="M178.07,-136.52C194.29,-138.27 210.97,-140.08 226.44,-141.75"/>
<polygon fill="#63b8ff" stroke="#63b8ff" points="226.1,-145.23 236.42,-142.83 226.85,-138.27 226.1,-145.23"/>
</a>
</g>
</g>
<!-- Node5 -->
<g id="Node000005" class="node">
<title>Node5</title>
<g id="a_Node000005"><a xlink:href="namespacednf__composer_1_1tools_1_1math.html#a4bd4cb928b836aa87f5383f232ac4da3" target="_top" xlink:title=" ">
<polygon fill="white" stroke="#666666" points="545,-99 411,-99 411,-69 545,-69 545,-99"/>
<text text-anchor="start" x="419" y="-87" font-family="Helvetica,sans-Serif" font-size="10.00">dnf_composer::tools</text>
<text text-anchor="middle" x="478" y="-76" font-family="Helvetica,sans-Serif" font-size="10.00">::math::gaussDerivative</text>
</a>
</g>
</g>
<!-- Node1&#45;&gt;Node5 -->
<g id="edge4_Node000001_Node000005" class="edge">
<title>Node1&#45;&gt;Node5</title>
<g id="a_edge4_Node000001_Node000005"><a xlink:title=" ">
<path fill="none" stroke="#63b8ff" d="M178.3,-117.19C245.43,-109.73 336.82,-99.58 400.77,-92.47"/>
<polygon fill="#63b8ff" stroke="#63b8ff" points="401.24,-95.94 410.79,-91.36 400.47,-88.98 401.24,-95.94"/>
</a>
</g>
</g>
<!-- Node6 -->
<g id="Node000006" class="node">
<title>Node6</title>
<g id="a_Node000006"><a xlink:href="namespacednf__composer_1_1tools_1_1math.html#a6f23f713f1bfd818c93988f8e122281c" target="_top" xlink:title=" ">
<polygon fill="white" stroke="#666666" points="375,-78 214,-78 214,-48 375,-48 375,-78"/>
<text text-anchor="start" x="222" y="-66" font-family="Helvetica,sans-Serif" font-size="10.00">dnf_composer::tools</text>
<text text-anchor="middle" x="294.5" y="-55" font-family="Helvetica,sans-Serif" font-size="10.00">::math::gaussDerivativeNorm</text>
</a>
</g>
</g>
<!-- Node1&#45;&gt;Node6 -->
<g id="edge5_Node000001_Node000006" class="edge">
<title>Node1&#45;&gt;Node6</title>
<g id="a_edge5_Node000001_Node000006"><a xlink:title=" ">
<path fill="none" stroke="#63b8ff" d="M137.71,-111.99C167.08,-102.76 204.9,-90.87 235.92,-81.11"/>
<polygon fill="#63b8ff" stroke="#63b8ff" points="237.25,-84.36 245.74,-78.02 235.15,-77.68 237.25,-84.36"/>
</a>
</g>
</g>
<!-- Node7 -->
<g id="Node000007" class="node">
<title>Node7</title>
<g id="a_Node000007"><a xlink:href="namespacednf__composer_1_1tools_1_1math.html#ae679c020137ca5fab108caa79fa33a13" target="_top" xlink:title=" ">
<polygon fill="white" stroke="#666666" points="352.5,-30 236.5,-30 236.5,0 352.5,0 352.5,-30"/>
<text text-anchor="start" x="244.5" y="-18" font-family="Helvetica,sans-Serif" font-size="10.00">dnf_composer::tools</text>
<text text-anchor="middle" x="294.5" y="-7" font-family="Helvetica,sans-Serif" font-size="10.00">::math::gaussNorm</text>
</a>
</g>
</g>
<!-- Node1&#45;&gt;Node7 -->
<g id="edge7_Node000001_Node000007" class="edge">
<title>Node1&#45;&gt;Node7</title>
<g id="a_edge7_Node000001_Node000007"><a xlink:title=" ">
<path fill="none" stroke="#63b8ff" d="M107.32,-111.91C130.29,-92.59 172.74,-59.19 214,-39 218.04,-37.02 222.28,-35.17 226.61,-33.44"/>
<polygon fill="#63b8ff" stroke="#63b8ff" points="228.04,-36.64 236.18,-29.85 225.59,-30.08 228.04,-36.64"/>
</a>
</g>
</g>
<!-- Node6&#45;&gt;Node5 -->
<g id="edge6_Node000006_Node000005" class="edge">
<title>Node6&#45;&gt;Node5</title>
<g id="a_edge6_Node000006_Node000005"><a xlink:title=" ">
<path fill="none" stroke="#63b8ff" d="M375.11,-72.21C383.57,-73.19 392.17,-74.18 400.59,-75.16"/>
<polygon fill="#63b8ff" stroke="#63b8ff" points="400.43,-78.66 410.77,-76.34 401.24,-71.71 400.43,-78.66"/>
</a>
</g>
</g>
</g>
</svg>
