<?xml version="1.0" encoding="UTF-8" standalone="no"?>
<!DOCTYPE svg PUBLIC "-//W3C//DTD SVG 1.1//EN"
 "http://www.w3.org/Graphics/SVG/1.1/DTD/svg11.dtd">
<!-- Generated by graphviz version 2.43.0 (0)
 -->
<!-- Title: dnf_composer::element::Collapse Pages: 1 -->
<svg width="546pt" height="1281pt"
 viewBox="0.00 0.00 546.00 1281.00" xmlns="http://www.w3.org/2000/svg" xmlns:xlink="http://www.w3.org/1999/xlink">
<g id="graph0" class="graph" transform="scale(1 1) rotate(0) translate(4 1277)">
<title>dnf_composer::element::Collapse</title>
<!-- Node1 -->
<g id="Node000001" class="node">
<title>Node1</title>
<g id="a_Node000001"><a xlink:title="Collapses a 2D input field to a 1D output by reducing along one axis.">
<polygon fill="#999999" stroke="transparent" points="443.5,-309 296.5,-309 296.5,-129 443.5,-129 443.5,-309"/>
<text text-anchor="start" x="312.5" y="-297" font-family="Helvetica,sans-Serif" font-size="10.00">dnf_composer::element</text>
<text text-anchor="start" x="346" y="-286" font-family="Helvetica,sans-Serif" font-size="10.00">::Collapse</text>
<text text-anchor="start" x="368.5" y="-271" font-family="Helvetica,sans-Serif" font-size="10.00"> </text>
<text text-anchor="start" x="301" y="-256" font-family="Helvetica,sans-Serif" font-size="10.00">+</text>
<text text-anchor="start" x="314" y="-256" font-family="Helvetica,sans-Serif" font-size="10.00">addInput()</text>
<text text-anchor="start" x="301" y="-241" font-family="Helvetica,sans-Serif" font-size="10.00">+</text>
<text text-anchor="start" x="314" y="-241" font-family="Helvetica,sans-Serif" font-size="10.00">changeInputDimensions()</text>
<text text-anchor="start" x="301" y="-226" font-family="Helvetica,sans-Serif" font-size="10.00">+</text>
<text text-anchor="start" x="314" y="-226" font-family="Helvetica,sans-Serif" font-size="10.00">clone()</text>
<text text-anchor="start" x="301" y="-211" font-family="Helvetica,sans-Serif" font-size="10.00">+</text>
<text text-anchor="start" x="314" y="-211" font-family="Helvetica,sans-Serif" font-size="10.00">Collapse()</text>
<text text-anchor="start" x="301" y="-196" font-family="Helvetica,sans-Serif" font-size="10.00">+</text>
<text text-anchor="start" x="314" y="-196" font-family="Helvetica,sans-Serif" font-size="10.00">getParameters()</text>
<text text-anchor="start" x="301" y="-181" font-family="Helvetica,sans-Serif" font-size="10.00">+</text>
<text text-anchor="start" x="314" y="-181" font-family="Helvetica,sans-Serif" font-size="10.00">init()</text>
<text text-anchor="start" x="301" y="-166" font-family="Helvetica,sans-Serif" font-size="10.00">+</text>
<text text-anchor="start" x="314" y="-166" font-family="Helvetica,sans-Serif" font-size="10.00">setParameters()</text>
<text text-anchor="start" x="301" y="-151" font-family="Helvetica,sans-Serif" font-size="10.00">+</text>
<text text-anchor="start" x="314" y="-151" font-family="Helvetica,sans-Serif" font-size="10.00">step()</text>
<text text-anchor="start" x="301" y="-136" font-family="Helvetica,sans-Serif" font-size="10.00">+</text>
<text text-anchor="start" x="314" y="-136" font-family="Helvetica,sans-Serif" font-size="10.00">toString()</text>
<polygon fill="#666666" stroke="#666666" points="297,-281 297,-281 444,-281 444,-281 297,-281"/>
<polygon fill="#666666" stroke="#666666" points="297,-266 297,-266 444,-266 444,-266 297,-266"/>
<polygon fill="none" stroke="#666666" points="296.5,-129 296.5,-309 443.5,-309 443.5,-129 296.5,-129"/>
</a>
</g>
</g>
<!-- Node2 -->
<g id="Node000002" class="node">
<title>Node2</title>
<g id="a_Node000002"><a xlink:href="classdnf__composer_1_1element_1_1Element.html" target="_top" xlink:title="Abstract base class for all simulation elements.">
<polygon fill="white" stroke="transparent" points="293,-566 167,-566 167,-356 293,-356 293,-566"/>
<text text-anchor="start" x="172" y="-554" font-family="Helvetica,sans-Serif" font-size="10.00">dnf_composer::element</text>
<text text-anchor="start" x="206.5" y="-543" font-family="Helvetica,sans-Serif" font-size="10.00">::Element</text>
<text text-anchor="start" x="228" y="-528" font-family="Helvetica,sans-Serif" font-size="10.00"> </text>
<text text-anchor="start" x="172" y="-513" font-family="Helvetica,sans-Serif" font-size="10.00">+</text>
<text text-anchor="start" x="186" y="-513" font-family="Helvetica,sans-Serif" font-size="10.00">addInput()</text>
<text text-anchor="start" x="172" y="-498" font-family="Helvetica,sans-Serif" font-size="10.00">+</text>
<text text-anchor="start" x="186" y="-498" font-family="Helvetica,sans-Serif" font-size="10.00">buildInputCache()</text>
<text text-anchor="start" x="172" y="-483" font-family="Helvetica,sans-Serif" font-size="10.00">+</text>
<text text-anchor="start" x="186" y="-483" font-family="Helvetica,sans-Serif" font-size="10.00">changeDimensions()</text>
<text text-anchor="start" x="172" y="-468" font-family="Helvetica,sans-Serif" font-size="10.00">+</text>
<text text-anchor="start" x="186" y="-468" font-family="Helvetica,sans-Serif" font-size="10.00">clone()</text>
<text text-anchor="start" x="172" y="-453" font-family="Helvetica,sans-Serif" font-size="10.00">+</text>
<text text-anchor="start" x="186" y="-453" font-family="Helvetica,sans-Serif" font-size="10.00">close()</text>
<text text-anchor="start" x="172" y="-438" font-family="Helvetica,sans-Serif" font-size="10.00">+</text>
<text text-anchor="start" x="186" y="-438" font-family="Helvetica,sans-Serif" font-size="10.00">Element()</text>
<text text-anchor="start" x="172" y="-423" font-family="Helvetica,sans-Serif" font-size="10.00">+</text>
<text text-anchor="start" x="186" y="-423" font-family="Helvetica,sans-Serif" font-size="10.00">getComponent()</text>
<text text-anchor="start" x="172" y="-408" font-family="Helvetica,sans-Serif" font-size="10.00">+</text>
<text text-anchor="start" x="186" y="-408" font-family="Helvetica,sans-Serif" font-size="10.00">getComponentList()</text>
<text text-anchor="start" x="172" y="-393" font-family="Helvetica,sans-Serif" font-size="10.00">+</text>
<text text-anchor="start" x="186" y="-393" font-family="Helvetica,sans-Serif" font-size="10.00">getComponentPtr()</text>
<text text-anchor="start" x="172" y="-378" font-family="Helvetica,sans-Serif" font-size="10.00">+</text>
<text text-anchor="start" x="186" y="-378" font-family="Helvetica,sans-Serif" font-size="10.00">getComponents()</text>
<text text-anchor="start" x="186" y="-363" font-family="Helvetica,sans-Serif" font-size="10.00">and 29 more...</text>
<polygon fill="#666666" stroke="#666666" points="167,-538 167,-538 293,-538 293,-538 167,-538"/>
<polygon fill="#666666" stroke="#666666" points="167,-523 167,-523 293,-523 293,-523 167,-523"/>
<polygon fill="none" stroke="#666666" points="167,-356 167,-566 293,-566 293,-356 167,-356"/>
</a>
</g>
</g>
<!-- Node2&#45;&gt;Node1 -->
<g id="edge1_Node000001_Node000002" class="edge">
<title>Node2&#45;&gt;Node1</title>
<g id="a_edge1_Node000001_Node000002"><a xlink:title=" ">
<path fill="none" stroke="#63b8ff" d="M295.92,-347C303.34,-334.27 310.82,-321.45 318.03,-309.09"/>
<polygon fill="none" stroke="#63b8ff" points="292.81,-345.38 290.8,-355.78 298.86,-348.91 292.81,-345.38"/>
</a>
</g>
</g>
<!-- Node12 -->
<g id="Node000012" class="node">
<title>Node12</title>
<g id="a_Node000012"><a xlink:title=" ">
<polygon fill="white" stroke="transparent" points="196,-249 28,-249 28,-189 196,-189 196,-249"/>
<text text-anchor="start" x="33" y="-237" font-family="Helvetica,sans-Serif" font-size="10.00">std::shared_ptr&lt; dnf</text>
<text text-anchor="start" x="33" y="-226" font-family="Helvetica,sans-Serif" font-size="10.00">_composer::element::Element &gt;</text>
<text text-anchor="start" x="110" y="-211" font-family="Helvetica,sans-Serif" font-size="10.00"> </text>
<text text-anchor="start" x="53.5" y="-196" font-family="Helvetica,sans-Serif" font-size="10.00">+</text>
<text text-anchor="start" x="88" y="-196" font-family="Helvetica,sans-Serif" font-size="10.00">operator&#45;&gt;()</text>
<polygon fill="#666666" stroke="#666666" points="28,-221 28,-221 196,-221 196,-221 28,-221"/>
<polygon fill="#666666" stroke="#666666" points="28,-206 28,-206 196,-206 196,-206 28,-206"/>
<polygon fill="none" stroke="#666666" points="28,-189 28,-249 196,-249 196,-189 28,-189"/>
</a>
</g>
</g>
<!-- Node2&#45;&gt;Node12 -->
<g id="edge13_Node000012_Node000002" class="edge">
<title>Node2&#45;&gt;Node12</title>
<g id="a_edge13_Node000012_Node000002"><a xlink:title=" ">
<path fill="none" stroke="#63b8ff" d="M178.76,-355.78C162.13,-321.95 144.65,-286.42 131.76,-260.19"/>
<polygon fill="none" stroke="#63b8ff" points="131.65,-259.96 125.41,-256.34 126.35,-249.19 132.59,-252.81 131.65,-259.96"/>
</a>
</g>
<text text-anchor="middle" x="180.5" y="-330" font-family="Helvetica,sans-Serif" font-size="10.00" fill="grey"> +ptr</text>
</g>
<!-- Node3 -->
<g id="Node000003" class="node">
<title>Node3</title>
<g id="a_Node000003"><a xlink:title=" ">
<polygon fill="white" stroke="transparent" points="451.5,-733 326.5,-733 326.5,-673 451.5,-673 451.5,-733"/>
<text text-anchor="start" x="332" y="-721" font-family="Helvetica,sans-Serif" font-size="10.00">std::enable_shared</text>
<text text-anchor="start" x="332" y="-710" font-family="Helvetica,sans-Serif" font-size="10.00">_from_this&lt; Element &gt;</text>
<text text-anchor="start" x="387.5" y="-695" font-family="Helvetica,sans-Serif" font-size="10.00"> </text>
<text text-anchor="start" x="387.5" y="-680" font-family="Helvetica,sans-Serif" font-size="10.00"> </text>
<polygon fill="#666666" stroke="#666666" points="327,-705 327,-705 452,-705 452,-705 327,-705"/>
<polygon fill="#666666" stroke="#666666" points="327,-690 327,-690 452,-690 452,-690 327,-690"/>
<polygon fill="none" stroke="#666666" points="326.5,-673 326.5,-733 451.5,-733 451.5,-673 326.5,-673"/>
</a>
</g>
</g>
<!-- Node3&#45;&gt;Node2 -->
<g id="edge2_Node000002_Node000003" class="edge">
<title>Node3&#45;&gt;Node2</title>
<g id="a_edge2_Node000002_Node000003"><a xlink:title=" ">
<path fill="none" stroke="#63b8ff" d="M377.1,-663.22C368.86,-639.36 356.58,-608.72 341,-584 327.49,-562.56 310.05,-541.36 293.02,-522.8"/>
<polygon fill="none" stroke="#63b8ff" points="373.88,-664.62 380.38,-672.99 380.52,-662.4 373.88,-664.62"/>
</a>
</g>
</g>
<!-- Node4 -->
<g id="Node000004" class="node">
<title>Node4</title>
<g id="a_Node000004"><a xlink:href="structdnf__composer_1_1element_1_1ElementCommonParameters.html" target="_top" xlink:title=" ">
<polygon fill="white" stroke="transparent" points="308.5,-793 139.5,-793 139.5,-613 308.5,-613 308.5,-793"/>
<text text-anchor="start" x="151" y="-781" font-family="Helvetica,sans-Serif" font-size="10.00">dnf_composer::element</text>
<text text-anchor="start" x="151" y="-770" font-family="Helvetica,sans-Serif" font-size="10.00">::ElementCommonParameters</text>
<text text-anchor="start" x="222.5" y="-755" font-family="Helvetica,sans-Serif" font-size="10.00"> </text>
<text text-anchor="start" x="144" y="-740" font-family="Helvetica,sans-Serif" font-size="10.00">+</text>
<text text-anchor="start" x="157" y="-740" font-family="Helvetica,sans-Serif" font-size="10.00">ElementCommonParameters()</text>
<text text-anchor="start" x="144" y="-725" font-family="Helvetica,sans-Serif" font-size="10.00">+</text>
<text text-anchor="start" x="157" y="-725" font-family="Helvetica,sans-Serif" font-size="10.00">ElementCommonParameters()</text>
<text text-anchor="start" x="144" y="-710" font-family="Helvetica,sans-Serif" font-size="10.00">+</text>
<text text-anchor="start" x="157" y="-710" font-family="Helvetica,sans-Serif" font-size="10.00">ElementCommonParameters()</text>
<text text-anchor="start" x="144" y="-695" font-family="Helvetica,sans-Serif" font-size="10.00">+</text>
<text text-anchor="start" x="157" y="-695" font-family="Helvetica,sans-Serif" font-size="10.00">ElementCommonParameters()</text>
<text text-anchor="start" x="144" y="-680" font-family="Helvetica,sans-Serif" font-size="10.00">+</text>
<text text-anchor="start" x="157" y="-680" font-family="Helvetica,sans-Serif" font-size="10.00">ElementCommonParameters()</text>
<text text-anchor="start" x="144" y="-665" font-family="Helvetica,sans-Serif" font-size="10.00">+</text>
<text text-anchor="start" x="157" y="-665" font-family="Helvetica,sans-Serif" font-size="10.00">ElementCommonParameters()</text>
<text text-anchor="start" x="144" y="-650" font-family="Helvetica,sans-Serif" font-size="10.00">+</text>
<text text-anchor="start" x="157" y="-650" font-family="Helvetica,sans-Serif" font-size="10.00">operator==()</text>
<text text-anchor="start" x="144" y="-635" font-family="Helvetica,sans-Serif" font-size="10.00">+</text>
<text text-anchor="start" x="157" y="-635" font-family="Helvetica,sans-Serif" font-size="10.00">print()</text>
<text text-anchor="start" x="144" y="-620" font-family="Helvetica,sans-Serif" font-size="10.00">+</text>
<text text-anchor="start" x="157" y="-620" font-family="Helvetica,sans-Serif" font-size="10.00">toString()</text>
<polygon fill="#666666" stroke="#666666" points="140,-765 140,-765 309,-765 309,-765 140,-765"/>
<polygon fill="#666666" stroke="#666666" points="140,-750 140,-750 309,-750 309,-750 140,-750"/>
<polygon fill="none" stroke="#666666" points="139.5,-613 139.5,-793 308.5,-793 308.5,-613 139.5,-613"/>
</a>
</g>
</g>
<!-- Node4&#45;&gt;Node2 -->
<g id="edge3_Node000002_Node000004" class="edge">
<title>Node4&#45;&gt;Node2</title>
<g id="a_edge3_Node000002_Node000004"><a xlink:title=" ">
<path fill="none" stroke="#63b8ff" d="M226.23,-612.97C226.51,-601.69 226.8,-590.01 227.09,-578.37"/>
<polygon fill="none" stroke="#63b8ff" points="227.09,-578.28 223.24,-572.18 227.39,-566.28 231.24,-572.38 227.09,-578.28"/>
</a>
</g>
<text text-anchor="middle" x="282" y="-587" font-family="Helvetica,sans-Serif" font-size="10.00" fill="grey"> #commonParameters</text>
</g>
<!-- Node5 -->
<g id="Node000005" class="node">
<title>Node5</title>
<g id="a_Node000005"><a xlink:href="structdnf__composer_1_1element_1_1ElementIdentifiers.html" target="_top" xlink:title=" ">
<polygon fill="white" stroke="transparent" points="423,-1035 287,-1035 287,-885 423,-885 423,-1035"/>
<text text-anchor="start" x="297" y="-1023" font-family="Helvetica,sans-Serif" font-size="10.00">dnf_composer::element</text>
<text text-anchor="start" x="307" y="-1012" font-family="Helvetica,sans-Serif" font-size="10.00">::ElementIdentifiers</text>
<text text-anchor="start" x="291" y="-997" font-family="Helvetica,sans-Serif" font-size="10.00">+</text>
<text text-anchor="start" x="304" y="-997" font-family="Helvetica,sans-Serif" font-size="10.00">label</text>
<text text-anchor="start" x="291" y="-982" font-family="Helvetica,sans-Serif" font-size="10.00">+</text>
<text text-anchor="start" x="304" y="-982" font-family="Helvetica,sans-Serif" font-size="10.00">uniqueIdentifier</text>
<text text-anchor="start" x="291" y="-967" font-family="Helvetica,sans-Serif" font-size="10.00">+</text>
<text text-anchor="start" x="304" y="-967" font-family="Helvetica,sans-Serif" font-size="10.00">uniqueIdentifierCounter</text>
<text text-anchor="start" x="291" y="-952" font-family="Helvetica,sans-Serif" font-size="10.00">+</text>
<text text-anchor="start" x="304" y="-952" font-family="Helvetica,sans-Serif" font-size="10.00">ElementIdentifiers()</text>
<text text-anchor="start" x="291" y="-937" font-family="Helvetica,sans-Serif" font-size="10.00">+</text>
<text text-anchor="start" x="304" y="-937" font-family="Helvetica,sans-Serif" font-size="10.00">ElementIdentifiers()</text>
<text text-anchor="start" x="291" y="-922" font-family="Helvetica,sans-Serif" font-size="10.00">+</text>
<text text-anchor="start" x="304" y="-922" font-family="Helvetica,sans-Serif" font-size="10.00">operator==()</text>
<text text-anchor="start" x="291" y="-907" font-family="Helvetica,sans-Serif" font-size="10.00">+</text>
<text text-anchor="start" x="304" y="-907" font-family="Helvetica,sans-Serif" font-size="10.00">print()</text>
<text text-anchor="start" x="291" y="-892" font-family="Helvetica,sans-Serif" font-size="10.00">+</text>
<text text-anchor="start" x="304" y="-892" font-family="Helvetica,sans-Serif" font-size="10.00">toString()</text>
<polygon fill="#666666" stroke="#666666" points="287,-1007 287,-1007 423,-1007 423,-1007 287,-1007"/>
<polygon fill="#666666" stroke="#666666" points="287,-962 287,-962 302,-962 302,-962 287,-962"/>
<polygon fill="#666666" stroke="#666666" points="302,-962 302,-962 423,-962 423,-962 302,-962"/>
<polygon fill="none" stroke="#666666" points="287,-885 287,-1035 423,-1035 423,-885 287,-885"/>
</a>
</g>
</g>
<!-- Node5&#45;&gt;Node4 -->
<g id="edge4_Node000004_Node000005" class="edge">
<title>Node5&#45;&gt;Node4</title>
<g id="a_edge4_Node000004_Node000005"><a xlink:title=" ">
<path fill="none" stroke="#63b8ff" d="M350.76,-884.69C347.11,-860.2 340.57,-833.5 329,-811 326.59,-806.31 322.3,-800.41 316.8,-793.82"/>
<polygon fill="none" stroke="#63b8ff" points="316.5,-793.48 309.54,-791.59 308.6,-784.44 315.56,-786.32 316.5,-793.48"/>
</a>
</g>
<text text-anchor="middle" x="364.5" y="-814" font-family="Helvetica,sans-Serif" font-size="10.00" fill="grey"> +identifiers</text>
</g>
<!-- Node6 -->
<g id="Node000006" class="node">
<title>Node6</title>
<g id="a_Node000006"><a xlink:title=" ">
<polygon fill="white" stroke="transparent" points="384.5,-1176 325.5,-1176 325.5,-1127 384.5,-1127 384.5,-1176"/>
<text text-anchor="start" x="331" y="-1163.5" font-family="Helvetica,sans-Serif" font-size="10.00">std::string</text>
<text text-anchor="start" x="353.5" y="-1148.5" font-family="Helvetica,sans-Serif" font-size="10.00"> </text>
<text text-anchor="start" x="353.5" y="-1133.5" font-family="Helvetica,sans-Serif" font-size="10.00"> </text>
<polygon fill="#666666" stroke="#666666" points="326,-1158.5 326,-1158.5 385,-1158.5 385,-1158.5 326,-1158.5"/>
<polygon fill="#666666" stroke="#666666" points="326,-1143.5 326,-1143.5 385,-1143.5 385,-1143.5 326,-1143.5"/>
<polygon fill="none" stroke="#666666" points="325.5,-1127 325.5,-1176 384.5,-1176 384.5,-1127 325.5,-1127"/>
</a>
</g>
</g>
<!-- Node6&#45;&gt;Node5 -->
<g id="edge5_Node000005_Node000006" class="edge">
<title>Node6&#45;&gt;Node5</title>
<g id="a_edge5_Node000005_Node000006"><a xlink:title=" ">
<path fill="none" stroke="#63b8ff" d="M355,-1126.88C355,-1106.83 355,-1076.76 355,-1047.7"/>
<polygon fill="none" stroke="#63b8ff" points="355,-1047.34 351,-1041.34 355,-1035.34 359,-1041.34 355,-1047.34"/>
</a>
</g>
<text text-anchor="middle" x="392" y="-1101" font-family="Helvetica,sans-Serif" font-size="10.00" fill="grey"> +uniqueName</text>
</g>
<!-- Node9 -->
<g id="Node000009" class="node">
<title>Node9</title>
<g id="a_Node000009"><a xlink:title=" ">
<polygon fill="white" stroke="transparent" points="113,-995.5 5,-995.5 5,-924.5 113,-924.5 113,-995.5"/>
<text text-anchor="start" x="10" y="-983" font-family="Helvetica,sans-Serif" font-size="10.00">std::unordered_map</text>
<text text-anchor="start" x="10" y="-972" font-family="Helvetica,sans-Serif" font-size="10.00">&lt; std::string, std::</text>
<text text-anchor="start" x="10" y="-961" font-family="Helvetica,sans-Serif" font-size="10.00">vector&lt; double &gt; &gt;</text>
<text text-anchor="start" x="57" y="-946" font-family="Helvetica,sans-Serif" font-size="10.00"> </text>
<text text-anchor="start" x="57" y="-931" font-family="Helvetica,sans-Serif" font-size="10.00"> </text>
<polygon fill="#666666" stroke="#666666" points="5,-956 5,-956 113,-956 113,-956 5,-956"/>
<polygon fill="#666666" stroke="#666666" points="5,-941 5,-941 113,-941 113,-941 5,-941"/>
<polygon fill="none" stroke="#666666" points="5,-924.5 5,-995.5 113,-995.5 113,-924.5 5,-924.5"/>
</a>
</g>
</g>
<!-- Node6&#45;&gt;Node9 -->
<g id="edge9_Node000009_Node000006" class="edge">
<title>Node6&#45;&gt;Node9</title>
<g id="a_edge9_Node000009_Node000006"><a xlink:title=" ">
<path fill="none" stroke="#63b8ff" d="M325.22,-1147.73C279.34,-1142.12 190.55,-1125.76 132,-1080 107.74,-1061.04 89.58,-1031.59 77.44,-1006.73"/>
<polygon fill="none" stroke="#63b8ff" points="77.36,-1006.56 71.2,-1002.82 72.29,-995.69 78.45,-999.43 77.36,-1006.56"/>
</a>
</g>
<text text-anchor="middle" x="193" y="-1101" font-family="Helvetica,sans-Serif" font-size="10.00" fill="grey"> +keys</text>
</g>
<!-- Node11 -->
<g id="Node000011" class="node">
<title>Node11</title>
<g id="a_Node000011"><a xlink:title=" ">
<polygon fill="white" stroke="transparent" points="310.5,-82 153.5,-82 153.5,0 310.5,0 310.5,-82"/>
<text text-anchor="start" x="159" y="-70" font-family="Helvetica,sans-Serif" font-size="10.00">std::unordered_map</text>
<text text-anchor="start" x="159" y="-59" font-family="Helvetica,sans-Serif" font-size="10.00">&lt; std::shared_ptr&lt; dnf</text>
<text text-anchor="start" x="159" y="-48" font-family="Helvetica,sans-Serif" font-size="10.00">_composer::element::Element</text>
<text text-anchor="start" x="193.5" y="-37" font-family="Helvetica,sans-Serif" font-size="10.00"> &gt;, std::string &gt;</text>
<text text-anchor="start" x="230.5" y="-22" font-family="Helvetica,sans-Serif" font-size="10.00"> </text>
<text text-anchor="start" x="230.5" y="-7" font-family="Helvetica,sans-Serif" font-size="10.00"> </text>
<polygon fill="#666666" stroke="#666666" points="154,-32 154,-32 311,-32 311,-32 154,-32"/>
<polygon fill="#666666" stroke="#666666" points="154,-17 154,-17 311,-17 311,-17 154,-17"/>
<polygon fill="none" stroke="#666666" points="153.5,0 153.5,-82 310.5,-82 310.5,0 153.5,0"/>
</a>
</g>
</g>
<!-- Node6&#45;&gt;Node11 -->
<g id="edge14_Node000011_Node000006" class="edge">
<title>Node6&#45;&gt;Node11</title>
<g id="a_edge14_Node000011_Node000006"><a xlink:title=" ">
<path fill="none" stroke="#63b8ff" d="M384.57,-1141.06C400.93,-1134.46 420.43,-1124.08 433,-1109 477.18,-1055.98 480,-1030.01 480,-961 480,-961 480,-961 480,-218 480,-176.66 481.03,-159.38 453,-129 418.93,-92.07 367.22,-70.58 322.38,-58.21"/>
<polygon fill="none" stroke="#63b8ff" points="322.15,-58.15 315.33,-60.49 310.54,-55.1 317.36,-52.76 322.15,-58.15"/>
</a>
</g>
<text text-anchor="middle" x="509" y="-587" font-family="Helvetica,sans-Serif" font-size="10.00" fill="grey"> +elements</text>
</g>
<!-- Node7 -->
<g id="Node000007" class="node">
<title>Node7</title>
<g id="a_Node000007"><a xlink:title=" ">
<polygon fill="white" stroke="transparent" points="404,-1273 306,-1273 306,-1213 404,-1213 404,-1273"/>
<text text-anchor="start" x="311" y="-1261" font-family="Helvetica,sans-Serif" font-size="10.00">std::basic_string&lt;</text>
<text text-anchor="start" x="336.5" y="-1250" font-family="Helvetica,sans-Serif" font-size="10.00"> Char &gt;</text>
<text text-anchor="start" x="353" y="-1235" font-family="Helvetica,sans-Serif" font-size="10.00"> </text>
<text text-anchor="start" x="353" y="-1220" font-family="Helvetica,sans-Serif" font-size="10.00"> </text>
<polygon fill="#666666" stroke="#666666" points="306,-1245 306,-1245 404,-1245 404,-1245 306,-1245"/>
<polygon fill="#666666" stroke="#666666" points="306,-1230 306,-1230 404,-1230 404,-1230 306,-1230"/>
<polygon fill="none" stroke="#666666" points="306,-1213 306,-1273 404,-1273 404,-1213 306,-1213"/>
</a>
</g>
</g>
<!-- Node7&#45;&gt;Node6 -->
<g id="edge6_Node000006_Node000007" class="edge">
<title>Node7&#45;&gt;Node6</title>
<g id="a_edge6_Node000006_Node000007"><a xlink:title=" ">
<path fill="none" stroke="#63b8ff" d="M355,-1202.41C355,-1193.47 355,-1184.25 355,-1176.21"/>
<polygon fill="none" stroke="#63b8ff" points="351.5,-1202.69 355,-1212.69 358.5,-1202.69 351.5,-1202.69"/>
</a>
</g>
</g>
<!-- Node8 -->
<g id="Node000008" class="node">
<title>Node8</title>
<g id="a_Node000008"><a xlink:href="structdnf__composer_1_1element_1_1ElementDimensions.html" target="_top" xlink:title=" ">
<polygon fill="white" stroke="transparent" points="268.5,-1080 141.5,-1080 141.5,-840 268.5,-840 268.5,-1080"/>
<text text-anchor="start" x="147.5" y="-1068" font-family="Helvetica,sans-Serif" font-size="10.00">dnf_composer::element</text>
<text text-anchor="start" x="153" y="-1057" font-family="Helvetica,sans-Serif" font-size="10.00">::ElementDimensions</text>
<text text-anchor="start" x="146" y="-1042" font-family="Helvetica,sans-Serif" font-size="10.00">+</text>
<text text-anchor="start" x="159" y="-1042" font-family="Helvetica,sans-Serif" font-size="10.00">d_x</text>
<text text-anchor="start" x="146" y="-1027" font-family="Helvetica,sans-Serif" font-size="10.00">+</text>
<text text-anchor="start" x="159" y="-1027" font-family="Helvetica,sans-Serif" font-size="10.00">d_y</text>
<text text-anchor="start" x="146" y="-1012" font-family="Helvetica,sans-Serif" font-size="10.00">+</text>
<text text-anchor="start" x="159" y="-1012" font-family="Helvetica,sans-Serif" font-size="10.00">dimensionality</text>
<text text-anchor="start" x="146" y="-997" font-family="Helvetica,sans-Serif" font-size="10.00">+</text>
<text text-anchor="start" x="159" y="-997" font-family="Helvetica,sans-Serif" font-size="10.00">size</text>
<text text-anchor="start" x="146" y="-982" font-family="Helvetica,sans-Serif" font-size="10.00">+</text>
<text text-anchor="start" x="159" y="-982" font-family="Helvetica,sans-Serif" font-size="10.00">size_x</text>
<text text-anchor="start" x="146" y="-967" font-family="Helvetica,sans-Serif" font-size="10.00">+</text>
<text text-anchor="start" x="159" y="-967" font-family="Helvetica,sans-Serif" font-size="10.00">size_y</text>
<text text-anchor="start" x="146" y="-952" font-family="Helvetica,sans-Serif" font-size="10.00">+</text>
<text text-anchor="start" x="159" y="-952" font-family="Helvetica,sans-Serif" font-size="10.00">x_max</text>
<text text-anchor="start" x="146" y="-937" font-family="Helvetica,sans-Serif" font-size="10.00">+</text>
<text text-anchor="start" x="159" y="-937" font-family="Helvetica,sans-Serif" font-size="10.00">y_max</text>
<text text-anchor="start" x="146" y="-922" font-family="Helvetica,sans-Serif" font-size="10.00">+</text>
<text text-anchor="start" x="159" y="-922" font-family="Helvetica,sans-Serif" font-size="10.00">ElementDimensions()</text>
<text text-anchor="start" x="146" y="-907" font-family="Helvetica,sans-Serif" font-size="10.00">+</text>
<text text-anchor="start" x="159" y="-907" font-family="Helvetica,sans-Serif" font-size="10.00">ElementDimensions()</text>
<text text-anchor="start" x="146" y="-892" font-family="Helvetica,sans-Serif" font-size="10.00">+</text>
<text text-anchor="start" x="159" y="-892" font-family="Helvetica,sans-Serif" font-size="10.00">ElementDimensions()</text>
<text text-anchor="start" x="146" y="-877" font-family="Helvetica,sans-Serif" font-size="10.00">+</text>
<text text-anchor="start" x="159" y="-877" font-family="Helvetica,sans-Serif" font-size="10.00">operator==()</text>
<text text-anchor="start" x="146" y="-862" font-family="Helvetica,sans-Serif" font-size="10.00">+</text>
<text text-anchor="start" x="159" y="-862" font-family="Helvetica,sans-Serif" font-size="10.00">print()</text>
<text text-anchor="start" x="146" y="-847" font-family="Helvetica,sans-Serif" font-size="10.00">+</text>
<text text-anchor="start" x="159" y="-847" font-family="Helvetica,sans-Serif" font-size="10.00">toString()</text>
<polygon fill="#666666" stroke="#666666" points="142,-1052 142,-1052 269,-1052 269,-1052 142,-1052"/>
<polygon fill="#666666" stroke="#666666" points="142,-932 142,-932 157,-932 157,-932 142,-932"/>
<polygon fill="#666666" stroke="#666666" points="157,-932 157,-932 269,-932 269,-932 157,-932"/>
<polygon fill="none" stroke="#666666" points="141.5,-840 141.5,-1080 268.5,-1080 268.5,-840 141.5,-840"/>
</a>
</g>
</g>
<!-- Node8&#45;&gt;Node4 -->
<g id="edge7_Node000004_Node000008" class="edge">
<title>Node8&#45;&gt;Node4</title>
<g id="a_edge7_Node000004_Node000008"><a xlink:title=" ">
<path fill="none" stroke="#63b8ff" d="M209,-839.8C209.58,-830.05 210.24,-820.36 211,-811 211.15,-809.1 211.32,-807.19 211.48,-805.26"/>
<polygon fill="none" stroke="#63b8ff" points="211.49,-805.22 208.07,-798.87 212.61,-793.27 216.03,-799.62 211.49,-805.22"/>
</a>
</g>
<text text-anchor="middle" x="270" y="-814" font-family="Helvetica,sans-Serif" font-size="10.00" fill="grey"> +dimensionParameters</text>
</g>
<!-- Node9&#45;&gt;Node2 -->
<g id="edge8_Node000002_Node000009" class="edge">
<title>Node9&#45;&gt;Node2</title>
<g id="a_edge8_Node000002_Node000009"><a xlink:title=" ">
<path fill="none" stroke="#63b8ff" d="M50.05,-924.4C35.23,-859.82 11.64,-718 59,-613 79.17,-568.28 119.85,-531.49 156.47,-505.42"/>
<polygon fill="none" stroke="#63b8ff" points="156.81,-505.19 159.46,-498.48 166.67,-498.36 164.02,-505.06 156.81,-505.19"/>
</a>
</g>
<text text-anchor="middle" x="95" y="-700.5" font-family="Helvetica,sans-Serif" font-size="10.00" fill="grey"> #components</text>
</g>
<!-- Node10 -->
<g id="Node000010" class="node">
<title>Node10</title>
<g id="a_Node000010"><a xlink:title=" ">
<polygon fill="white" stroke="transparent" points="118,-1176 0,-1176 0,-1127 118,-1127 118,-1176"/>
<text text-anchor="start" x="5" y="-1163.5" font-family="Helvetica,sans-Serif" font-size="10.00">std::vector&lt; double &gt;</text>
<text text-anchor="start" x="16.5" y="-1148.5" font-family="Helvetica,sans-Serif" font-size="10.00">+</text>
<text text-anchor="start" x="42" y="-1148.5" font-family="Helvetica,sans-Serif" font-size="10.00">elements</text>
<text text-anchor="start" x="57" y="-1133.5" font-family="Helvetica,sans-Serif" font-size="10.00"> </text>
<polygon fill="#666666" stroke="#666666" points="0,-1158.5 0,-1158.5 118,-1158.5 118,-1158.5 0,-1158.5"/>
<polygon fill="#666666" stroke="#666666" points="0,-1143.5 0,-1143.5 40,-1143.5 40,-1143.5 0,-1143.5"/>
<polygon fill="#666666" stroke="#666666" points="40,-1143.5 40,-1143.5 118,-1143.5 118,-1143.5 40,-1143.5"/>
<polygon fill="none" stroke="#666666" points="0,-1127 0,-1176 118,-1176 118,-1127 0,-1127"/>
</a>
</g>
</g>
<!-- Node10&#45;&gt;Node9 -->
<g id="edge10_Node000009_Node000010" class="edge">
<title>Node10&#45;&gt;Node9</title>
<g id="a_edge10_Node000009_Node000010"><a xlink:title=" ">
<path fill="none" stroke="#63b8ff" d="M59,-1126.88C59,-1097.2 59,-1045.57 59,-1007.77"/>
<polygon fill="none" stroke="#63b8ff" points="59,-1007.53 55,-1001.53 59,-995.53 63,-1001.53 59,-1007.53"/>
</a>
</g>
<text text-anchor="middle" x="88" y="-1101" font-family="Helvetica,sans-Serif" font-size="10.00" fill="grey"> +elements</text>
</g>
<!-- Node11&#45;&gt;Node2 -->
<g id="edge11_Node000002_Node000011" class="edge">
<title>Node11&#45;&gt;Node2</title>
<g id="a_edge11_Node000002_Node000011"><a xlink:title=" ">
<path fill="none" stroke="#63b8ff" d="M231.81,-82.17C231.52,-141.87 230.97,-256.36 230.56,-343.73"/>
<polygon fill="none" stroke="#63b8ff" points="230.56,-343.87 234.53,-349.89 230.5,-355.87 226.53,-349.85 230.56,-343.87"/>
</a>
</g>
<text text-anchor="middle" x="254" y="-222" font-family="Helvetica,sans-Serif" font-size="10.00" fill="grey"> #inputs</text>
<text text-anchor="middle" x="254" y="-211" font-family="Helvetica,sans-Serif" font-size="10.00" fill="grey">#outputs</text>
</g>
<!-- Node12&#45;&gt;Node11 -->
<g id="edge12_Node000011_Node000012" class="edge">
<title>Node12&#45;&gt;Node11</title>
<g id="a_edge12_Node000011_Node000012"><a xlink:title=" ">
<path fill="none" stroke="#63b8ff" d="M128.34,-188.65C142.25,-164.31 163.24,-129.11 184,-100 185.89,-97.35 187.87,-94.66 189.9,-91.98"/>
<polygon fill="none" stroke="#63b8ff" points="190.06,-91.77 190.58,-84.58 197.42,-82.3 196.9,-89.49 190.06,-91.77"/>
</a>
</g>
<text text-anchor="middle" x="201" y="-103" font-family="Helvetica,sans-Serif" font-size="10.00" fill="grey"> +keys</text>
</g>
</g>
</svg>
