<?xml version="1.0" encoding="UTF-8" standalone="no"?>
<!DOCTYPE svg PUBLIC "-//W3C//DTD SVG 1.1//EN"
 "http://www.w3.org/Graphics/SVG/1.1/DTD/svg11.dtd">
<!-- Generated by graphviz version 2.43.0 (0)
 -->
<!-- Title: dnf_composer::Heatmap::toString Pages: 1 -->
<svg width="578pt" height="110pt"
 viewBox="0.00 0.00 578.00 110.00" xmlns="http://www.w3.org/2000/svg" xmlns:xlink="http://www.w3.org/1999/xlink">
<g id="graph0" class="graph" transform="scale(1 1) rotate(0) translate(4 106)">
<title>dnf_composer::Heatmap::toString</title>
<!-- Node1 -->
<g id="Node000001" class="node">
<title>Node1</title>
<g id="a_Node000001"><a xlink:title=" ">
<polygon fill="#999999" stroke="#666666" points="137,-54 0,-54 0,-24 137,-24 137,-54"/>
<text text-anchor="start" x="8" y="-42" font-family="Helvetica,sans-Serif" font-size="10.00">dnf_composer::Heatmap</text>
<text text-anchor="middle" x="68.5" y="-31" font-family="Helvetica,sans-Serif" font-size="10.00">::toString</text>
</a>
</g>
</g>
<!-- Node2 -->
<g id="Node000002" class="node">
<title>Node2</title>
<g id="a_Node000002"><a xlink:href="structdnf__composer_1_1PlotCommonParameters.html#a0e9a7632cb1e21cec853bfc8e0eed413" target="_top" xlink:title=" ">
<polygon fill="white" stroke="#666666" points="346.5,-78 191.5,-78 191.5,-48 346.5,-48 346.5,-78"/>
<text text-anchor="start" x="199.5" y="-66" font-family="Helvetica,sans-Serif" font-size="10.00">dnf_composer::PlotCommon</text>
<text text-anchor="middle" x="269" y="-55" font-family="Helvetica,sans-Serif" font-size="10.00">Parameters::toString</text>
</a>
</g>
</g>
<!-- Node1&#45;&gt;Node2 -->
<g id="edge1_Node000001_Node000002" class="edge">
<title>Node1&#45;&gt;Node2</title>
<g id="a_edge1_Node000001_Node000002"><a xlink:title=" ">
<path fill="none" stroke="#63b8ff" d="M137.26,-47.19C151.4,-48.9 166.5,-50.73 181.22,-52.51"/>
<polygon fill="#63b8ff" stroke="#63b8ff" points="180.99,-56.01 191.34,-53.73 181.83,-49.06 180.99,-56.01"/>
</a>
</g>
</g>
<!-- Node5 -->
<g id="Node000005" class="node">
<title>Node5</title>
<g id="a_Node000005"><a xlink:href="structdnf__composer_1_1HeatmapParameters.html#abe341e9dba6443f458a9545fd21f8b27" target="_top" xlink:title=" ">
<polygon fill="white" stroke="#666666" points="365,-30 173,-30 173,0 365,0 365,-30"/>
<text text-anchor="start" x="181" y="-18" font-family="Helvetica,sans-Serif" font-size="10.00">dnf_composer::HeatmapParameters</text>
<text text-anchor="middle" x="269" y="-7" font-family="Helvetica,sans-Serif" font-size="10.00">::toString</text>
</a>
</g>
</g>
<!-- Node1&#45;&gt;Node5 -->
<g id="edge4_Node000001_Node000005" class="edge">
<title>Node1&#45;&gt;Node5</title>
<g id="a_edge4_Node000001_Node000005"><a xlink:title=" ">
<path fill="none" stroke="#63b8ff" d="M137.26,-30.81C145.49,-29.81 154.05,-28.78 162.67,-27.74"/>
<polygon fill="#63b8ff" stroke="#63b8ff" points="163.29,-31.19 172.79,-26.51 162.45,-24.24 163.29,-31.19"/>
</a>
</g>
</g>
<!-- Node3 -->
<g id="Node000003" class="node">
<title>Node3</title>
<g id="a_Node000003"><a xlink:href="structdnf__composer_1_1PlotDimensions.html#a2d3269aa20d5e324f7acf9f85d4d7460" target="_top" xlink:title=" ">
<polygon fill="white" stroke="#666666" points="569.5,-102 401.5,-102 401.5,-72 569.5,-72 569.5,-102"/>
<text text-anchor="start" x="409.5" y="-90" font-family="Helvetica,sans-Serif" font-size="10.00">dnf_composer::PlotDimensions</text>
<text text-anchor="middle" x="485.5" y="-79" font-family="Helvetica,sans-Serif" font-size="10.00">::toString</text>
</a>
</g>
</g>
<!-- Node2&#45;&gt;Node3 -->
<g id="edge2_Node000002_Node000003" class="edge">
<title>Node2&#45;&gt;Node3</title>
<g id="a_edge2_Node000002_Node000003"><a xlink:title=" ">
<path fill="none" stroke="#63b8ff" d="M346.53,-71.56C361,-73.18 376.28,-74.89 391.2,-76.56"/>
<polygon fill="#63b8ff" stroke="#63b8ff" points="391.12,-80.07 401.45,-77.71 391.9,-73.12 391.12,-80.07"/>
</a>
</g>
</g>
<!-- Node4 -->
<g id="Node000004" class="node">
<title>Node4</title>
<g id="a_Node000004"><a xlink:href="structdnf__composer_1_1PlotAnnotations.html#aef0fb7926b0f41734d3ddba4c506ef1d" target="_top" xlink:title=" ">
<polygon fill="white" stroke="#666666" points="570,-54 401,-54 401,-24 570,-24 570,-54"/>
<text text-anchor="start" x="409" y="-42" font-family="Helvetica,sans-Serif" font-size="10.00">dnf_composer::PlotAnnotations</text>
<text text-anchor="middle" x="485.5" y="-31" font-family="Helvetica,sans-Serif" font-size="10.00">::toString</text>
</a>
</g>
</g>
<!-- Node2&#45;&gt;Node4 -->
<g id="edge3_Node000002_Node000004" class="edge">
<title>Node2&#45;&gt;Node4</title>
<g id="a_edge3_Node000002_Node000004"><a xlink:title=" ">
<path fill="none" stroke="#63b8ff" d="M346.53,-54.44C360.8,-52.84 375.87,-51.15 390.59,-49.51"/>
<polygon fill="#63b8ff" stroke="#63b8ff" points="391.17,-52.96 400.72,-48.37 390.39,-46.01 391.17,-52.96"/>
</a>
</g>
</g>
</g>
</svg>
