<?xml version="1.0" encoding="UTF-8" standalone="no"?>
<!DOCTYPE svg PUBLIC "-//W3C//DTD SVG 1.1//EN"
 "http://www.w3.org/Graphics/SVG/1.1/DTD/svg11.dtd">
<!-- Generated by graphviz version 2.43.0 (0)
 -->
<!-- Title: dnf_composer::element::Resize::init Pages: 1 -->
<svg width="355pt" height="86pt"
 viewBox="0.00 0.00 355.00 86.00" xmlns="http://www.w3.org/2000/svg" xmlns:xlink="http://www.w3.org/1999/xlink">
<g id="graph0" class="graph" transform="scale(1 1) rotate(0) translate(4 82)">
<title>dnf_composer::element::Resize::init</title>
<!-- Node1 -->
<g id="Node000001" class="node">
<title>Node1</title>
<g id="a_Node000001"><a xlink:title="Initialize the element (called once before the simulation loop).">
<polygon fill="#999999" stroke="#666666" points="347,-54 215,-54 215,-24 347,-24 347,-54"/>
<text text-anchor="start" x="223" y="-42" font-family="Helvetica,sans-Serif" font-size="10.00">dnf_composer::element</text>
<text text-anchor="middle" x="281" y="-31" font-family="Helvetica,sans-Serif" font-size="10.00">::Resize::init</text>
</a>
</g>
</g>
<!-- Node2 -->
<g id="Node000002" class="node">
<title>Node2</title>
<g id="a_Node000002"><a xlink:href="classdnf__composer_1_1element_1_1Resize.html#a13132c25e60a98f23b8abf21bf78b50f" target="_top" xlink:title="Resize the input field dimensions and rebuild the input buffer. Connections are not removed automatic...">
<polygon fill="white" stroke="#666666" points="179,-78 0,-78 0,-48 179,-48 179,-78"/>
<text text-anchor="start" x="8" y="-66" font-family="Helvetica,sans-Serif" font-size="10.00">dnf_composer::element</text>
<text text-anchor="middle" x="89.5" y="-55" font-family="Helvetica,sans-Serif" font-size="10.00">::Resize::changeInputDimensions</text>
</a>
</g>
</g>
<!-- Node1&#45;&gt;Node2 -->
<g id="edge1_Node000001_Node000002" class="edge">
<title>Node1&#45;&gt;Node2</title>
<g id="a_edge1_Node000001_Node000002"><a xlink:title=" ">
<path fill="none" stroke="#63b8ff" d="M204.71,-48.54C196.35,-49.59 187.77,-50.68 179.27,-51.76"/>
<polygon fill="#63b8ff" stroke="#63b8ff" points="205.3,-51.99 214.78,-47.26 204.42,-45.04 205.3,-51.99"/>
</a>
</g>
</g>
<!-- Node3 -->
<g id="Node000003" class="node">
<title>Node3</title>
<g id="a_Node000003"><a xlink:href="classdnf__composer_1_1element_1_1Resize.html#add62a35449b5374b9a0976f626f0acb1" target="_top" xlink:title=" ">
<polygon fill="white" stroke="#666666" points="155.5,-30 23.5,-30 23.5,0 155.5,0 155.5,-30"/>
<text text-anchor="start" x="31.5" y="-18" font-family="Helvetica,sans-Serif" font-size="10.00">dnf_composer::element</text>
<text text-anchor="middle" x="89.5" y="-7" font-family="Helvetica,sans-Serif" font-size="10.00">::Resize::setParameters</text>
</a>
</g>
</g>
<!-- Node1&#45;&gt;Node3 -->
<g id="edge2_Node000001_Node000003" class="edge">
<title>Node1&#45;&gt;Node3</title>
<g id="a_edge2_Node000001_Node000003"><a xlink:title=" ">
<path fill="none" stroke="#63b8ff" d="M204.76,-29.47C188.47,-27.41 171.37,-25.24 155.51,-23.23"/>
<polygon fill="#63b8ff" stroke="#63b8ff" points="204.42,-32.96 214.78,-30.74 205.3,-26.01 204.42,-32.96"/>
</a>
</g>
</g>
</g>
</svg>
