<?xml version="1.0" encoding="UTF-8" standalone="no"?>
<!DOCTYPE svg PUBLIC "-//W3C//DTD SVG 1.1//EN"
 "http://www.w3.org/Graphics/SVG/1.1/DTD/svg11.dtd">
<!-- Generated by graphviz version 2.43.0 (0)
 -->
<!-- Title: dnf_composer::Application::init Pages: 1 -->
<svg width="518pt" height="182pt"
 viewBox="0.00 0.00 518.00 182.00" xmlns="http://www.w3.org/2000/svg" xmlns:xlink="http://www.w3.org/1999/xlink">
<g id="graph0" class="graph" transform="scale(1 1) rotate(0) translate(4 178)">
<title>dnf_composer::Application::init</title>
<!-- Node1 -->
<g id="Node000001" class="node">
<title>Node1</title>
<g id="a_Node000001"><a xlink:title="Initialize the GUI and all registered windows. Call once before step().">
<polygon fill="#999999" stroke="#666666" points="146,-102 0,-102 0,-72 146,-72 146,-102"/>
<text text-anchor="start" x="8" y="-90" font-family="Helvetica,sans-Serif" font-size="10.00">dnf_composer::Application</text>
<text text-anchor="middle" x="73" y="-79" font-family="Helvetica,sans-Serif" font-size="10.00">::init</text>
</a>
</g>
</g>
<!-- Node2 -->
<g id="Node000002" class="node">
<title>Node2</title>
<g id="a_Node000002"><a xlink:href="classdnf__composer_1_1Application.html#a24c2fd485519f3eb60859afcca994d72" target="_top" xlink:title="Register the application&#39;s ImGui settings handler (for persistence).">
<polygon fill="white" stroke="#666666" points="328,-102 182,-102 182,-72 328,-72 328,-102"/>
<text text-anchor="start" x="190" y="-90" font-family="Helvetica,sans-Serif" font-size="10.00">dnf_composer::Application</text>
<text text-anchor="middle" x="255" y="-79" font-family="Helvetica,sans-Serif" font-size="10.00">::registerSettingsHandler</text>
</a>
</g>
</g>
<!-- Node1&#45;&gt;Node2 -->
<g id="edge1_Node000001_Node000002" class="edge">
<title>Node1&#45;&gt;Node2</title>
<g id="a_edge1_Node000001_Node000002"><a xlink:title=" ">
<path fill="none" stroke="#63b8ff" d="M146.18,-87C154.52,-87 163.08,-87 171.54,-87"/>
<polygon fill="#63b8ff" stroke="#63b8ff" points="171.81,-90.5 181.81,-87 171.81,-83.5 171.81,-90.5"/>
</a>
</g>
</g>
<!-- Node3 -->
<g id="Node000003" class="node">
<title>Node3</title>
<g id="a_Node000003"><a xlink:href="classdnf__composer_1_1Application.html#a9e40cde6d898b2e3cd8de3805659f7da" target="_top" xlink:title=" ">
<polygon fill="white" stroke="#666666" points="510,-174 364,-174 364,-144 510,-144 510,-174"/>
<text text-anchor="start" x="372" y="-162" font-family="Helvetica,sans-Serif" font-size="10.00">dnf_composer::Application</text>
<text text-anchor="middle" x="437" y="-151" font-family="Helvetica,sans-Serif" font-size="10.00">::getUIMode</text>
</a>
</g>
</g>
<!-- Node2&#45;&gt;Node3 -->
<g id="edge2_Node000002_Node000003" class="edge">
<title>Node2&#45;&gt;Node3</title>
<g id="a_edge2_Node000002_Node000003"><a xlink:title=" ">
<path fill="none" stroke="#63b8ff" d="M287.79,-102.1C309.13,-111.99 337.98,-124.91 364,-135 368.79,-136.86 373.79,-138.71 378.83,-140.51"/>
<polygon fill="#63b8ff" stroke="#63b8ff" points="377.92,-143.9 388.52,-143.9 380.23,-137.29 377.92,-143.9"/>
</a>
</g>
</g>
<!-- Node4 -->
<g id="Node000004" class="node">
<title>Node4</title>
<g id="a_Node000004"><a xlink:href="classdnf__composer_1_1Application.html#a5d44fa04caa6256d1abaca0398ece286" target="_top" xlink:title=" ">
<polygon fill="white" stroke="#666666" points="510,-126 364,-126 364,-96 510,-96 510,-126"/>
<text text-anchor="start" x="372" y="-114" font-family="Helvetica,sans-Serif" font-size="10.00">dnf_composer::Application</text>
<text text-anchor="middle" x="437" y="-103" font-family="Helvetica,sans-Serif" font-size="10.00">::getUiScalePct</text>
</a>
</g>
</g>
<!-- Node2&#45;&gt;Node4 -->
<g id="edge3_Node000002_Node000004" class="edge">
<title>Node2&#45;&gt;Node4</title>
<g id="a_edge3_Node000002_Node000004"><a xlink:title=" ">
<path fill="none" stroke="#63b8ff" d="M328.18,-96.62C336.61,-97.75 345.27,-98.9 353.82,-100.04"/>
<polygon fill="#63b8ff" stroke="#63b8ff" points="353.43,-103.52 363.81,-101.37 354.36,-96.58 353.43,-103.52"/>
</a>
</g>
</g>
<!-- Node5 -->
<g id="Node000005" class="node">
<title>Node5</title>
<g id="a_Node000005"><a xlink:href="classdnf__composer_1_1Application.html#a3451e29528070821cf8a7a4807685e60" target="_top" xlink:title=" ">
<polygon fill="white" stroke="#666666" points="510,-78 364,-78 364,-48 510,-48 510,-78"/>
<text text-anchor="start" x="372" y="-66" font-family="Helvetica,sans-Serif" font-size="10.00">dnf_composer::Application</text>
<text text-anchor="middle" x="437" y="-55" font-family="Helvetica,sans-Serif" font-size="10.00">::setUIMode</text>
</a>
</g>
</g>
<!-- Node2&#45;&gt;Node5 -->
<g id="edge4_Node000002_Node000005" class="edge">
<title>Node2&#45;&gt;Node5</title>
<g id="a_edge4_Node000002_Node000005"><a xlink:title=" ">
<path fill="none" stroke="#63b8ff" d="M328.18,-77.38C336.61,-76.25 345.27,-75.1 353.82,-73.96"/>
<polygon fill="#63b8ff" stroke="#63b8ff" points="354.36,-77.42 363.81,-72.63 353.43,-70.48 354.36,-77.42"/>
</a>
</g>
</g>
<!-- Node6 -->
<g id="Node000006" class="node">
<title>Node6</title>
<g id="a_Node000006"><a xlink:href="classdnf__composer_1_1Application.html#a527c4e705f610b5efeee26a26e05a655" target="_top" xlink:title=" ">
<polygon fill="white" stroke="#666666" points="510,-30 364,-30 364,0 510,0 510,-30"/>
<text text-anchor="start" x="372" y="-18" font-family="Helvetica,sans-Serif" font-size="10.00">dnf_composer::Application</text>
<text text-anchor="middle" x="437" y="-7" font-family="Helvetica,sans-Serif" font-size="10.00">::setUiScalePct</text>
</a>
</g>
</g>
<!-- Node2&#45;&gt;Node6 -->
<g id="edge5_Node000002_Node000006" class="edge">
<title>Node2&#45;&gt;Node6</title>
<g id="a_edge5_Node000002_Node000006"><a xlink:title=" ">
<path fill="none" stroke="#63b8ff" d="M287.79,-71.9C309.13,-62.01 337.98,-49.09 364,-39 368.79,-37.14 373.79,-35.29 378.83,-33.49"/>
<polygon fill="#63b8ff" stroke="#63b8ff" points="380.23,-36.71 388.52,-30.1 377.92,-30.1 380.23,-36.71"/>
</a>
</g>
</g>
</g>
</svg>
