<?xml version="1.0" encoding="UTF-8" standalone="no"?>
<!DOCTYPE svg PUBLIC "-//W3C//DTD SVG 1.1//EN"
 "http://www.w3.org/Graphics/SVG/1.1/DTD/svg11.dtd">
<!-- Generated by graphviz version 2.43.0 (0)
 -->
<!-- Title: dnf_composer::element::OscillatoryKernel2D::setParameters Pages: 1 -->
<svg width="511pt" height="86pt"
 viewBox="0.00 0.00 511.00 86.00" xmlns="http://www.w3.org/2000/svg" xmlns:xlink="http://www.w3.org/1999/xlink">
<g id="graph0" class="graph" transform="scale(1 1) rotate(0) translate(4 82)">
<title>dnf_composer::element::OscillatoryKernel2D::setParameters</title>
<!-- Node1 -->
<g id="Node000001" class="node">
<title>Node1</title>
<g id="a_Node000001"><a xlink:title=" ">
<polygon fill="#999999" stroke="#666666" points="132,-59.5 0,-59.5 0,-18.5 132,-18.5 132,-59.5"/>
<text text-anchor="start" x="8" y="-47.5" font-family="Helvetica,sans-Serif" font-size="10.00">dnf_composer::element</text>
<text text-anchor="start" x="8" y="-36.5" font-family="Helvetica,sans-Serif" font-size="10.00">::OscillatoryKernel2D</text>
<text text-anchor="middle" x="66" y="-25.5" font-family="Helvetica,sans-Serif" font-size="10.00">::setParameters</text>
</a>
</g>
</g>
<!-- Node2 -->
<g id="Node000002" class="node">
<title>Node2</title>
<g id="a_Node000002"><a xlink:href="classdnf__composer_1_1element_1_1OscillatoryKernel2D.html#ab280029bb925d2eb1c0b2af7b6053f9c" target="_top" xlink:title="Initialize the element (called once before the simulation loop).">
<polygon fill="white" stroke="#666666" points="309,-54 168,-54 168,-24 309,-24 309,-54"/>
<text text-anchor="start" x="176" y="-42" font-family="Helvetica,sans-Serif" font-size="10.00">dnf_composer::element</text>
<text text-anchor="middle" x="238.5" y="-31" font-family="Helvetica,sans-Serif" font-size="10.00">::OscillatoryKernel2D::init</text>
</a>
</g>
</g>
<!-- Node1&#45;&gt;Node2 -->
<g id="edge1_Node000001_Node000002" class="edge">
<title>Node1&#45;&gt;Node2</title>
<g id="a_edge1_Node000001_Node000002"><a xlink:title=" ">
<path fill="none" stroke="#63b8ff" d="M132.43,-39C140.71,-39 149.25,-39 157.72,-39"/>
<polygon fill="#63b8ff" stroke="#63b8ff" points="158,-42.5 168,-39 158,-35.5 158,-42.5"/>
</a>
</g>
</g>
<!-- Node3 -->
<g id="Node000003" class="node">
<title>Node3</title>
<g id="a_Node000003"><a xlink:href="namespacednf__composer_1_1tools_1_1math.html#ae0ded32bda3fdcee5561849a0ef3785c" target="_top" xlink:title=" ">
<polygon fill="white" stroke="#666666" points="503,-78 345,-78 345,-48 503,-48 503,-78"/>
<text text-anchor="start" x="353" y="-66" font-family="Helvetica,sans-Serif" font-size="10.00">dnf_composer::tools</text>
<text text-anchor="middle" x="424" y="-55" font-family="Helvetica,sans-Serif" font-size="10.00">::math::computeKernelRange</text>
</a>
</g>
</g>
<!-- Node2&#45;&gt;Node3 -->
<g id="edge2_Node000002_Node000003" class="edge">
<title>Node2&#45;&gt;Node3</title>
<g id="a_edge2_Node000002_Node000003"><a xlink:title=" ">
<path fill="none" stroke="#63b8ff" d="M309.14,-48.11C317.52,-49.2 326.16,-50.33 334.76,-51.46"/>
<polygon fill="#63b8ff" stroke="#63b8ff" points="334.45,-54.95 344.82,-52.77 335.36,-48.01 334.45,-54.95"/>
</a>
</g>
</g>
<!-- Node4 -->
<g id="Node000004" class="node">
<title>Node4</title>
<g id="a_Node000004"><a xlink:href="namespacednf__composer_1_1tools_1_1math.html#a67b836c5dd7641c0def85f572838361e" target="_top" xlink:title=" ">
<polygon fill="white" stroke="#666666" points="503,-30 345,-30 345,0 503,0 503,-30"/>
<text text-anchor="start" x="353" y="-18" font-family="Helvetica,sans-Serif" font-size="10.00">dnf_composer::tools</text>
<text text-anchor="middle" x="424" y="-7" font-family="Helvetica,sans-Serif" font-size="10.00">::math::createExtendedIndex</text>
</a>
</g>
</g>
<!-- Node2&#45;&gt;Node4 -->
<g id="edge3_Node000002_Node000004" class="edge">
<title>Node2&#45;&gt;Node4</title>
<g id="a_edge3_Node000002_Node000004"><a xlink:title=" ">
<path fill="none" stroke="#63b8ff" d="M309.14,-29.89C317.52,-28.8 326.16,-27.67 334.76,-26.54"/>
<polygon fill="#63b8ff" stroke="#63b8ff" points="335.36,-29.99 344.82,-25.23 334.45,-23.05 335.36,-29.99"/>
</a>
</g>
</g>
</g>
</svg>
