<?xml version="1.0" encoding="UTF-8" standalone="no"?>
<!DOCTYPE svg PUBLIC "-//W3C//DTD SVG 1.1//EN"
 "http://www.w3.org/Graphics/SVG/1.1/DTD/svg11.dtd">
<!-- Generated by graphviz version 2.43.0 (0)
 -->
<!-- Title: dnf_composer::element::NeuralField::updateState Pages: 1 -->
<svg width="536pt" height="194pt"
 viewBox="0.00 0.00 536.00 193.50" xmlns="http://www.w3.org/2000/svg" xmlns:xlink="http://www.w3.org/1999/xlink">
<g id="graph0" class="graph" transform="scale(1 1) rotate(0) translate(4 189.5)">
<title>dnf_composer::element::NeuralField::updateState</title>
<!-- Node1 -->
<g id="Node000001" class="node">
<title>Node1</title>
<g id="a_Node000001"><a xlink:title=" ">
<polygon fill="#999999" stroke="#666666" points="143,-89.5 0,-89.5 0,-59.5 143,-59.5 143,-89.5"/>
<text text-anchor="start" x="8" y="-77.5" font-family="Helvetica,sans-Serif" font-size="10.00">dnf_composer::element</text>
<text text-anchor="middle" x="71.5" y="-66.5" font-family="Helvetica,sans-Serif" font-size="10.00">::NeuralField::updateState</text>
</a>
</g>
</g>
<!-- Node2 -->
<g id="Node000002" class="node">
<title>Node2</title>
<g id="a_Node000002"><a xlink:href="classdnf__composer_1_1element_1_1NeuralField.html#ae6323cef88c0207eff5b3c2931d3ddcc" target="_top" xlink:title=" ">
<polygon fill="white" stroke="#666666" points="334,-137.5 181,-137.5 181,-107.5 334,-107.5 334,-137.5"/>
<text text-anchor="start" x="189" y="-125.5" font-family="Helvetica,sans-Serif" font-size="10.00">dnf_composer::element</text>
<text text-anchor="middle" x="257.5" y="-114.5" font-family="Helvetica,sans-Serif" font-size="10.00">::NeuralField::checkStability</text>
</a>
</g>
</g>
<!-- Node1&#45;&gt;Node2 -->
<g id="edge1_Node000001_Node000002" class="edge">
<title>Node1&#45;&gt;Node2</title>
<g id="a_edge1_Node000001_Node000002"><a xlink:title=" ">
<path fill="none" stroke="#63b8ff" d="M130.21,-89.56C148.88,-94.43 169.75,-99.87 189.06,-104.91"/>
<polygon fill="#63b8ff" stroke="#63b8ff" points="188.43,-108.36 198.99,-107.5 190.2,-101.59 188.43,-108.36"/>
</a>
</g>
</g>
<!-- Node6 -->
<g id="Node000006" class="node">
<title>Node6</title>
<g id="a_Node000006"><a xlink:href="classdnf__composer_1_1element_1_1NeuralField.html#acd9d648c62f1ae7e454f578ef434c713" target="_top" xlink:title=" ">
<polygon fill="white" stroke="#666666" points="333.5,-89.5 181.5,-89.5 181.5,-59.5 333.5,-59.5 333.5,-89.5"/>
<text text-anchor="start" x="189.5" y="-77.5" font-family="Helvetica,sans-Serif" font-size="10.00">dnf_composer::element</text>
<text text-anchor="middle" x="257.5" y="-66.5" font-family="Helvetica,sans-Serif" font-size="10.00">::NeuralField::updateBumps</text>
</a>
</g>
</g>
<!-- Node1&#45;&gt;Node6 -->
<g id="edge5_Node000001_Node000006" class="edge">
<title>Node1&#45;&gt;Node6</title>
<g id="a_edge5_Node000001_Node000006"><a xlink:title=" ">
<path fill="none" stroke="#63b8ff" d="M143.11,-74.5C152.34,-74.5 161.87,-74.5 171.31,-74.5"/>
<polygon fill="#63b8ff" stroke="#63b8ff" points="171.49,-78 181.49,-74.5 171.49,-71 171.49,-78"/>
</a>
</g>
</g>
<!-- Node7 -->
<g id="Node000007" class="node">
<title>Node7</title>
<g id="a_Node000007"><a xlink:href="classdnf__composer_1_1element_1_1NeuralField.html#ad9fb693f1c66a9e4df7fddef4c796406" target="_top" xlink:title=" ">
<polygon fill="white" stroke="#666666" points="336,-41 179,-41 179,0 336,0 336,-41"/>
<text text-anchor="start" x="187" y="-29" font-family="Helvetica,sans-Serif" font-size="10.00">dnf_composer::element</text>
<text text-anchor="start" x="187" y="-18" font-family="Helvetica,sans-Serif" font-size="10.00">::NeuralField::updateMinMax</text>
<text text-anchor="middle" x="257.5" y="-7" font-family="Helvetica,sans-Serif" font-size="10.00">Activation</text>
</a>
</g>
</g>
<!-- Node1&#45;&gt;Node7 -->
<g id="edge6_Node000001_Node000007" class="edge">
<title>Node1&#45;&gt;Node7</title>
<g id="a_edge6_Node000001_Node000007"><a xlink:title=" ">
<path fill="none" stroke="#63b8ff" d="M123.75,-59.46C140.17,-54.64 158.76,-49.18 176.72,-43.91"/>
<polygon fill="#63b8ff" stroke="#63b8ff" points="178,-47.19 186.61,-41.01 176.03,-40.47 178,-47.19"/>
</a>
</g>
</g>
<!-- Node3 -->
<g id="Node000003" class="node">
<title>Node3</title>
<g id="a_Node000003"><a xlink:href="namespacednf__composer_1_1tools_1_1math.html#a35dcf8c3860cc1855d20c0ff0594a052" target="_top" xlink:title=" ">
<polygon fill="white" stroke="#666666" points="523.5,-185.5 376.5,-185.5 376.5,-155.5 523.5,-155.5 523.5,-185.5"/>
<text text-anchor="start" x="384.5" y="-173.5" font-family="Helvetica,sans-Serif" font-size="10.00">dnf_composer::tools</text>
<text text-anchor="middle" x="450" y="-162.5" font-family="Helvetica,sans-Serif" font-size="10.00">::math::calculateVectorAvg</text>
</a>
</g>
</g>
<!-- Node2&#45;&gt;Node3 -->
<g id="edge2_Node000002_Node000003" class="edge">
<title>Node2&#45;&gt;Node3</title>
<g id="a_edge2_Node000002_Node000003"><a xlink:title=" ">
<path fill="none" stroke="#63b8ff" d="M318.25,-137.56C337.76,-142.47 359.58,-147.97 379.72,-153.04"/>
<polygon fill="#63b8ff" stroke="#63b8ff" points="378.91,-156.45 389.46,-155.5 380.62,-149.66 378.91,-156.45"/>
</a>
</g>
</g>
<!-- Node4 -->
<g id="Node000004" class="node">
<title>Node4</title>
<g id="a_Node000004"><a xlink:href="namespacednf__composer_1_1tools_1_1math.html#a2d30fb692257cd6e7006091e88f74d74" target="_top" xlink:title=" ">
<polygon fill="white" stroke="#666666" points="528,-137.5 372,-137.5 372,-107.5 528,-107.5 528,-137.5"/>
<text text-anchor="start" x="380" y="-125.5" font-family="Helvetica,sans-Serif" font-size="10.00">dnf_composer::tools</text>
<text text-anchor="middle" x="450" y="-114.5" font-family="Helvetica,sans-Serif" font-size="10.00">::math::calculateVectorNorm</text>
</a>
</g>
</g>
<!-- Node2&#45;&gt;Node4 -->
<g id="edge3_Node000002_Node000004" class="edge">
<title>Node2&#45;&gt;Node4</title>
<g id="a_edge3_Node000002_Node000004"><a xlink:title=" ">
<path fill="none" stroke="#63b8ff" d="M334.06,-122.5C343.22,-122.5 352.63,-122.5 361.93,-122.5"/>
<polygon fill="#63b8ff" stroke="#63b8ff" points="361.97,-126 371.97,-122.5 361.97,-119 361.97,-126"/>
</a>
</g>
</g>
<!-- Node5 -->
<g id="Node000005" class="node">
<title>Node5</title>
<g id="a_Node000005"><a xlink:href="namespacednf__composer_1_1tools_1_1math.html#a8ef191ccbfe8ac462c5ce6a6e88a3f3a" target="_top" xlink:title=" ">
<polygon fill="white" stroke="#666666" points="525.5,-89.5 374.5,-89.5 374.5,-59.5 525.5,-59.5 525.5,-89.5"/>
<text text-anchor="start" x="382.5" y="-77.5" font-family="Helvetica,sans-Serif" font-size="10.00">dnf_composer::tools</text>
<text text-anchor="middle" x="450" y="-66.5" font-family="Helvetica,sans-Serif" font-size="10.00">::math::calculateVectorSum</text>
</a>
</g>
</g>
<!-- Node2&#45;&gt;Node5 -->
<g id="edge4_Node000002_Node000005" class="edge">
<title>Node2&#45;&gt;Node5</title>
<g id="a_edge4_Node000002_Node000005"><a xlink:title=" ">
<path fill="none" stroke="#63b8ff" d="M318.25,-107.44C337.76,-102.53 359.58,-97.03 379.72,-91.96"/>
<polygon fill="#63b8ff" stroke="#63b8ff" points="380.62,-95.34 389.46,-89.5 378.91,-88.55 380.62,-95.34"/>
</a>
</g>
</g>
</g>
</svg>
