<?xml version="1.0" encoding="UTF-8" standalone="no"?>
<!DOCTYPE svg PUBLIC "-//W3C//DTD SVG 1.1//EN"
 "http://www.w3.org/Graphics/SVG/1.1/DTD/svg11.dtd">
<!-- Generated by graphviz version 2.43.0 (0)
 -->
<!-- Title: dnf_composer::element::MemoryTrace2D Pages: 1 -->
<svg width="546pt" height="1251pt"
 viewBox="0.00 0.00 546.00 1251.00" xmlns="http://www.w3.org/2000/svg" xmlns:xlink="http://www.w3.org/1999/xlink">
<g id="graph0" class="graph" transform="scale(1 1) rotate(0) translate(4 1247)">
<title>dnf_composer::element::MemoryTrace2D</title>
<!-- Node1 -->
<g id="Node000001" class="node">
<title>Node1</title>
<g id="a_Node000001"><a xlink:title="Persistent 2D spatial memory that accumulates and decays field activity.">
<polygon fill="#999999" stroke="transparent" points="433,-279 307,-279 307,-129 433,-129 433,-279"/>
<text text-anchor="start" x="312" y="-267" font-family="Helvetica,sans-Serif" font-size="10.00">dnf_composer::element</text>
<text text-anchor="start" x="327" y="-256" font-family="Helvetica,sans-Serif" font-size="10.00">::MemoryTrace2D</text>
<text text-anchor="start" x="368" y="-241" font-family="Helvetica,sans-Serif" font-size="10.00"> </text>
<text text-anchor="start" x="315" y="-226" font-family="Helvetica,sans-Serif" font-size="10.00">+</text>
<text text-anchor="start" x="332" y="-226" font-family="Helvetica,sans-Serif" font-size="10.00">clone()</text>
<text text-anchor="start" x="315" y="-211" font-family="Helvetica,sans-Serif" font-size="10.00">+</text>
<text text-anchor="start" x="332" y="-211" font-family="Helvetica,sans-Serif" font-size="10.00">getParameters()</text>
<text text-anchor="start" x="315" y="-196" font-family="Helvetica,sans-Serif" font-size="10.00">+</text>
<text text-anchor="start" x="332" y="-196" font-family="Helvetica,sans-Serif" font-size="10.00">init()</text>
<text text-anchor="start" x="315" y="-181" font-family="Helvetica,sans-Serif" font-size="10.00">+</text>
<text text-anchor="start" x="332" y="-181" font-family="Helvetica,sans-Serif" font-size="10.00">MemoryTrace2D()</text>
<text text-anchor="start" x="315" y="-166" font-family="Helvetica,sans-Serif" font-size="10.00">+</text>
<text text-anchor="start" x="332" y="-166" font-family="Helvetica,sans-Serif" font-size="10.00">setParameters()</text>
<text text-anchor="start" x="315" y="-151" font-family="Helvetica,sans-Serif" font-size="10.00">+</text>
<text text-anchor="start" x="332" y="-151" font-family="Helvetica,sans-Serif" font-size="10.00">step()</text>
<text text-anchor="start" x="315" y="-136" font-family="Helvetica,sans-Serif" font-size="10.00">+</text>
<text text-anchor="start" x="332" y="-136" font-family="Helvetica,sans-Serif" font-size="10.00">toString()</text>
<polygon fill="#666666" stroke="#666666" points="307,-251 307,-251 433,-251 433,-251 307,-251"/>
<polygon fill="#666666" stroke="#666666" points="307,-236 307,-236 433,-236 433,-236 307,-236"/>
<polygon fill="none" stroke="#666666" points="307,-129 307,-279 433,-279 433,-129 307,-129"/>
</a>
</g>
</g>
<!-- Node2 -->
<g id="Node000002" class="node">
<title>Node2</title>
<g id="a_Node000002"><a xlink:href="classdnf__composer_1_1element_1_1Element.html" target="_top" xlink:title="Abstract base class for all simulation elements.">
<polygon fill="white" stroke="transparent" points="301,-536 175,-536 175,-326 301,-326 301,-536"/>
<text text-anchor="start" x="180" y="-524" font-family="Helvetica,sans-Serif" font-size="10.00">dnf_composer::element</text>
<text text-anchor="start" x="214.5" y="-513" font-family="Helvetica,sans-Serif" font-size="10.00">::Element</text>
<text text-anchor="start" x="236" y="-498" font-family="Helvetica,sans-Serif" font-size="10.00"> </text>
<text text-anchor="start" x="180" y="-483" font-family="Helvetica,sans-Serif" font-size="10.00">+</text>
<text text-anchor="start" x="194" y="-483" font-family="Helvetica,sans-Serif" font-size="10.00">addInput()</text>
<text text-anchor="start" x="180" y="-468" font-family="Helvetica,sans-Serif" font-size="10.00">+</text>
<text text-anchor="start" x="194" y="-468" font-family="Helvetica,sans-Serif" font-size="10.00">buildInputCache()</text>
<text text-anchor="start" x="180" y="-453" font-family="Helvetica,sans-Serif" font-size="10.00">+</text>
<text text-anchor="start" x="194" y="-453" font-family="Helvetica,sans-Serif" font-size="10.00">changeDimensions()</text>
<text text-anchor="start" x="180" y="-438" font-family="Helvetica,sans-Serif" font-size="10.00">+</text>
<text text-anchor="start" x="194" y="-438" font-family="Helvetica,sans-Serif" font-size="10.00">clone()</text>
<text text-anchor="start" x="180" y="-423" font-family="Helvetica,sans-Serif" font-size="10.00">+</text>
<text text-anchor="start" x="194" y="-423" font-family="Helvetica,sans-Serif" font-size="10.00">close()</text>
<text text-anchor="start" x="180" y="-408" font-family="Helvetica,sans-Serif" font-size="10.00">+</text>
<text text-anchor="start" x="194" y="-408" font-family="Helvetica,sans-Serif" font-size="10.00">Element()</text>
<text text-anchor="start" x="180" y="-393" font-family="Helvetica,sans-Serif" font-size="10.00">+</text>
<text text-anchor="start" x="194" y="-393" font-family="Helvetica,sans-Serif" font-size="10.00">getComponent()</text>
<text text-anchor="start" x="180" y="-378" font-family="Helvetica,sans-Serif" font-size="10.00">+</text>
<text text-anchor="start" x="194" y="-378" font-family="Helvetica,sans-Serif" font-size="10.00">getComponentList()</text>
<text text-anchor="start" x="180" y="-363" font-family="Helvetica,sans-Serif" font-size="10.00">+</text>
<text text-anchor="start" x="194" y="-363" font-family="Helvetica,sans-Serif" font-size="10.00">getComponentPtr()</text>
<text text-anchor="start" x="180" y="-348" font-family="Helvetica,sans-Serif" font-size="10.00">+</text>
<text text-anchor="start" x="194" y="-348" font-family="Helvetica,sans-Serif" font-size="10.00">getComponents()</text>
<text text-anchor="start" x="194" y="-333" font-family="Helvetica,sans-Serif" font-size="10.00">and 28 more...</text>
<polygon fill="#666666" stroke="#666666" points="175,-508 175,-508 301,-508 301,-508 175,-508"/>
<polygon fill="#666666" stroke="#666666" points="175,-493 175,-493 301,-493 301,-493 175,-493"/>
<polygon fill="none" stroke="#666666" points="175,-326 175,-536 301,-536 301,-326 175,-326"/>
</a>
</g>
</g>
<!-- Node2&#45;&gt;Node1 -->
<g id="edge1_Node000001_Node000002" class="edge">
<title>Node2&#45;&gt;Node1</title>
<g id="a_edge1_Node000001_Node000002"><a xlink:title=" ">
<path fill="none" stroke="#63b8ff" d="M304.38,-316.86C311.9,-304.03 319.42,-291.22 326.54,-279.08"/>
<polygon fill="none" stroke="#63b8ff" points="301.21,-315.34 299.17,-325.73 307.25,-318.88 301.21,-315.34"/>
</a>
</g>
</g>
<!-- Node12 -->
<g id="Node000012" class="node">
<title>Node12</title>
<g id="a_Node000012"><a xlink:title=" ">
<polygon fill="white" stroke="transparent" points="207,-234 39,-234 39,-174 207,-174 207,-234"/>
<text text-anchor="start" x="44" y="-222" font-family="Helvetica,sans-Serif" font-size="10.00">std::shared_ptr&lt; dnf</text>
<text text-anchor="start" x="44" y="-211" font-family="Helvetica,sans-Serif" font-size="10.00">_composer::element::Element &gt;</text>
<text text-anchor="start" x="121" y="-196" font-family="Helvetica,sans-Serif" font-size="10.00"> </text>
<text text-anchor="start" x="64.5" y="-181" font-family="Helvetica,sans-Serif" font-size="10.00">+</text>
<text text-anchor="start" x="99" y="-181" font-family="Helvetica,sans-Serif" font-size="10.00">operator&#45;&gt;()</text>
<polygon fill="#666666" stroke="#666666" points="39,-206 39,-206 207,-206 207,-206 39,-206"/>
<polygon fill="#666666" stroke="#666666" points="39,-191 39,-191 207,-191 207,-191 39,-191"/>
<polygon fill="none" stroke="#666666" points="39,-174 39,-234 207,-234 207,-174 39,-174"/>
</a>
</g>
</g>
<!-- Node2&#45;&gt;Node12 -->
<g id="edge13_Node000012_Node000002" class="edge">
<title>Node2&#45;&gt;Node12</title>
<g id="a_edge13_Node000012_Node000002"><a xlink:title=" ">
<path fill="none" stroke="#63b8ff" d="M184.71,-325.73C170.03,-297.02 154.99,-267.58 143.43,-244.97"/>
<polygon fill="none" stroke="#63b8ff" points="143.35,-244.81 137.05,-241.29 137.89,-234.12 144.18,-237.65 143.35,-244.81"/>
</a>
</g>
<text text-anchor="middle" x="186.5" y="-300" font-family="Helvetica,sans-Serif" font-size="10.00" fill="grey"> +ptr</text>
</g>
<!-- Node3 -->
<g id="Node000003" class="node">
<title>Node3</title>
<g id="a_Node000003"><a xlink:title=" ">
<polygon fill="white" stroke="transparent" points="451.5,-703 326.5,-703 326.5,-643 451.5,-643 451.5,-703"/>
<text text-anchor="start" x="332" y="-691" font-family="Helvetica,sans-Serif" font-size="10.00">std::enable_shared</text>
<text text-anchor="start" x="332" y="-680" font-family="Helvetica,sans-Serif" font-size="10.00">_from_this&lt; Element &gt;</text>
<text text-anchor="start" x="387.5" y="-665" font-family="Helvetica,sans-Serif" font-size="10.00"> </text>
<text text-anchor="start" x="387.5" y="-650" font-family="Helvetica,sans-Serif" font-size="10.00"> </text>
<polygon fill="#666666" stroke="#666666" points="327,-675 327,-675 452,-675 452,-675 327,-675"/>
<polygon fill="#666666" stroke="#666666" points="327,-660 327,-660 452,-660 452,-660 327,-660"/>
<polygon fill="none" stroke="#666666" points="326.5,-643 326.5,-703 451.5,-703 451.5,-643 326.5,-643"/>
</a>
</g>
</g>
<!-- Node3&#45;&gt;Node2 -->
<g id="edge2_Node000002_Node000003" class="edge">
<title>Node3&#45;&gt;Node2</title>
<g id="a_edge2_Node000002_Node000003"><a xlink:title=" ">
<path fill="none" stroke="#63b8ff" d="M377.89,-632.83C370.24,-609.07 358.79,-578.68 344,-554 331.96,-533.9 316.49,-513.94 301.12,-496.15"/>
<polygon fill="none" stroke="#63b8ff" points="374.61,-634.07 380.94,-642.57 381.3,-631.98 374.61,-634.07"/>
</a>
</g>
</g>
<!-- Node4 -->
<g id="Node000004" class="node">
<title>Node4</title>
<g id="a_Node000004"><a xlink:href="structdnf__composer_1_1element_1_1ElementCommonParameters.html" target="_top" xlink:title=" ">
<polygon fill="white" stroke="transparent" points="308.5,-763 139.5,-763 139.5,-583 308.5,-583 308.5,-763"/>
<text text-anchor="start" x="151" y="-751" font-family="Helvetica,sans-Serif" font-size="10.00">dnf_composer::element</text>
<text text-anchor="start" x="151" y="-740" font-family="Helvetica,sans-Serif" font-size="10.00">::ElementCommonParameters</text>
<text text-anchor="start" x="222.5" y="-725" font-family="Helvetica,sans-Serif" font-size="10.00"> </text>
<text text-anchor="start" x="144" y="-710" font-family="Helvetica,sans-Serif" font-size="10.00">+</text>
<text text-anchor="start" x="157" y="-710" font-family="Helvetica,sans-Serif" font-size="10.00">ElementCommonParameters()</text>
<text text-anchor="start" x="144" y="-695" font-family="Helvetica,sans-Serif" font-size="10.00">+</text>
<text text-anchor="start" x="157" y="-695" font-family="Helvetica,sans-Serif" font-size="10.00">ElementCommonParameters()</text>
<text text-anchor="start" x="144" y="-680" font-family="Helvetica,sans-Serif" font-size="10.00">+</text>
<text text-anchor="start" x="157" y="-680" font-family="Helvetica,sans-Serif" font-size="10.00">ElementCommonParameters()</text>
<text text-anchor="start" x="144" y="-665" font-family="Helvetica,sans-Serif" font-size="10.00">+</text>
<text text-anchor="start" x="157" y="-665" font-family="Helvetica,sans-Serif" font-size="10.00">ElementCommonParameters()</text>
<text text-anchor="start" x="144" y="-650" font-family="Helvetica,sans-Serif" font-size="10.00">+</text>
<text text-anchor="start" x="157" y="-650" font-family="Helvetica,sans-Serif" font-size="10.00">ElementCommonParameters()</text>
<text text-anchor="start" x="144" y="-635" font-family="Helvetica,sans-Serif" font-size="10.00">+</text>
<text text-anchor="start" x="157" y="-635" font-family="Helvetica,sans-Serif" font-size="10.00">ElementCommonParameters()</text>
<text text-anchor="start" x="144" y="-620" font-family="Helvetica,sans-Serif" font-size="10.00">+</text>
<text text-anchor="start" x="157" y="-620" font-family="Helvetica,sans-Serif" font-size="10.00">operator==()</text>
<text text-anchor="start" x="144" y="-605" font-family="Helvetica,sans-Serif" font-size="10.00">+</text>
<text text-anchor="start" x="157" y="-605" font-family="Helvetica,sans-Serif" font-size="10.00">print()</text>
<text text-anchor="start" x="144" y="-590" font-family="Helvetica,sans-Serif" font-size="10.00">+</text>
<text text-anchor="start" x="157" y="-590" font-family="Helvetica,sans-Serif" font-size="10.00">toString()</text>
<polygon fill="#666666" stroke="#666666" points="140,-735 140,-735 309,-735 309,-735 140,-735"/>
<polygon fill="#666666" stroke="#666666" points="140,-720 140,-720 309,-720 309,-720 140,-720"/>
<polygon fill="none" stroke="#666666" points="139.5,-583 139.5,-763 308.5,-763 308.5,-583 139.5,-583"/>
</a>
</g>
</g>
<!-- Node4&#45;&gt;Node2 -->
<g id="edge3_Node000002_Node000004" class="edge">
<title>Node4&#45;&gt;Node2</title>
<g id="a_edge3_Node000002_Node000004"><a xlink:title=" ">
<path fill="none" stroke="#63b8ff" d="M229.19,-582.97C229.85,-571.69 230.53,-560.01 231.21,-548.37"/>
<polygon fill="none" stroke="#63b8ff" points="231.22,-548.26 227.57,-542.04 231.92,-536.28 235.56,-542.51 231.22,-548.26"/>
</a>
</g>
<text text-anchor="middle" x="285" y="-557" font-family="Helvetica,sans-Serif" font-size="10.00" fill="grey"> #commonParameters</text>
</g>
<!-- Node5 -->
<g id="Node000005" class="node">
<title>Node5</title>
<g id="a_Node000005"><a xlink:href="structdnf__composer_1_1element_1_1ElementIdentifiers.html" target="_top" xlink:title=" ">
<polygon fill="white" stroke="transparent" points="423,-1005 287,-1005 287,-855 423,-855 423,-1005"/>
<text text-anchor="start" x="297" y="-993" font-family="Helvetica,sans-Serif" font-size="10.00">dnf_composer::element</text>
<text text-anchor="start" x="307" y="-982" font-family="Helvetica,sans-Serif" font-size="10.00">::ElementIdentifiers</text>
<text text-anchor="start" x="291" y="-967" font-family="Helvetica,sans-Serif" font-size="10.00">+</text>
<text text-anchor="start" x="304" y="-967" font-family="Helvetica,sans-Serif" font-size="10.00">label</text>
<text text-anchor="start" x="291" y="-952" font-family="Helvetica,sans-Serif" font-size="10.00">+</text>
<text text-anchor="start" x="304" y="-952" font-family="Helvetica,sans-Serif" font-size="10.00">uniqueIdentifier</text>
<text text-anchor="start" x="291" y="-937" font-family="Helvetica,sans-Serif" font-size="10.00">+</text>
<text text-anchor="start" x="304" y="-937" font-family="Helvetica,sans-Serif" font-size="10.00">uniqueIdentifierCounter</text>
<text text-anchor="start" x="291" y="-922" font-family="Helvetica,sans-Serif" font-size="10.00">+</text>
<text text-anchor="start" x="304" y="-922" font-family="Helvetica,sans-Serif" font-size="10.00">ElementIdentifiers()</text>
<text text-anchor="start" x="291" y="-907" font-family="Helvetica,sans-Serif" font-size="10.00">+</text>
<text text-anchor="start" x="304" y="-907" font-family="Helvetica,sans-Serif" font-size="10.00">ElementIdentifiers()</text>
<text text-anchor="start" x="291" y="-892" font-family="Helvetica,sans-Serif" font-size="10.00">+</text>
<text text-anchor="start" x="304" y="-892" font-family="Helvetica,sans-Serif" font-size="10.00">operator==()</text>
<text text-anchor="start" x="291" y="-877" font-family="Helvetica,sans-Serif" font-size="10.00">+</text>
<text text-anchor="start" x="304" y="-877" font-family="Helvetica,sans-Serif" font-size="10.00">print()</text>
<text text-anchor="start" x="291" y="-862" font-family="Helvetica,sans-Serif" font-size="10.00">+</text>
<text text-anchor="start" x="304" y="-862" font-family="Helvetica,sans-Serif" font-size="10.00">toString()</text>
<polygon fill="#666666" stroke="#666666" points="287,-977 287,-977 423,-977 423,-977 287,-977"/>
<polygon fill="#666666" stroke="#666666" points="287,-932 287,-932 302,-932 302,-932 287,-932"/>
<polygon fill="#666666" stroke="#666666" points="302,-932 302,-932 423,-932 423,-932 302,-932"/>
<polygon fill="none" stroke="#666666" points="287,-855 287,-1005 423,-1005 423,-855 287,-855"/>
</a>
</g>
</g>
<!-- Node5&#45;&gt;Node4 -->
<g id="edge4_Node000004_Node000005" class="edge">
<title>Node5&#45;&gt;Node4</title>
<g id="a_edge4_Node000004_Node000005"><a xlink:title=" ">
<path fill="none" stroke="#63b8ff" d="M350.76,-854.69C347.11,-830.2 340.57,-803.5 329,-781 326.59,-776.31 322.3,-770.41 316.8,-763.82"/>
<polygon fill="none" stroke="#63b8ff" points="316.5,-763.48 309.54,-761.59 308.6,-754.44 315.56,-756.32 316.5,-763.48"/>
</a>
</g>
<text text-anchor="middle" x="364.5" y="-784" font-family="Helvetica,sans-Serif" font-size="10.00" fill="grey"> +identifiers</text>
</g>
<!-- Node6 -->
<g id="Node000006" class="node">
<title>Node6</title>
<g id="a_Node000006"><a xlink:title=" ">
<polygon fill="white" stroke="transparent" points="384.5,-1146 325.5,-1146 325.5,-1097 384.5,-1097 384.5,-1146"/>
<text text-anchor="start" x="331" y="-1133.5" font-family="Helvetica,sans-Serif" font-size="10.00">std::string</text>
<text text-anchor="start" x="353.5" y="-1118.5" font-family="Helvetica,sans-Serif" font-size="10.00"> </text>
<text text-anchor="start" x="353.5" y="-1103.5" font-family="Helvetica,sans-Serif" font-size="10.00"> </text>
<polygon fill="#666666" stroke="#666666" points="326,-1128.5 326,-1128.5 385,-1128.5 385,-1128.5 326,-1128.5"/>
<polygon fill="#666666" stroke="#666666" points="326,-1113.5 326,-1113.5 385,-1113.5 385,-1113.5 326,-1113.5"/>
<polygon fill="none" stroke="#666666" points="325.5,-1097 325.5,-1146 384.5,-1146 384.5,-1097 325.5,-1097"/>
</a>
</g>
</g>
<!-- Node6&#45;&gt;Node5 -->
<g id="edge5_Node000005_Node000006" class="edge">
<title>Node6&#45;&gt;Node5</title>
<g id="a_edge5_Node000005_Node000006"><a xlink:title=" ">
<path fill="none" stroke="#63b8ff" d="M355,-1096.88C355,-1076.83 355,-1046.76 355,-1017.7"/>
<polygon fill="none" stroke="#63b8ff" points="355,-1017.34 351,-1011.34 355,-1005.34 359,-1011.34 355,-1017.34"/>
</a>
</g>
<text text-anchor="middle" x="392" y="-1071" font-family="Helvetica,sans-Serif" font-size="10.00" fill="grey"> +uniqueName</text>
</g>
<!-- Node9 -->
<g id="Node000009" class="node">
<title>Node9</title>
<g id="a_Node000009"><a xlink:title=" ">
<polygon fill="white" stroke="transparent" points="113,-965.5 5,-965.5 5,-894.5 113,-894.5 113,-965.5"/>
<text text-anchor="start" x="10" y="-953" font-family="Helvetica,sans-Serif" font-size="10.00">std::unordered_map</text>
<text text-anchor="start" x="10" y="-942" font-family="Helvetica,sans-Serif" font-size="10.00">&lt; std::string, std::</text>
<text text-anchor="start" x="10" y="-931" font-family="Helvetica,sans-Serif" font-size="10.00">vector&lt; double &gt; &gt;</text>
<text text-anchor="start" x="57" y="-916" font-family="Helvetica,sans-Serif" font-size="10.00"> </text>
<text text-anchor="start" x="57" y="-901" font-family="Helvetica,sans-Serif" font-size="10.00"> </text>
<polygon fill="#666666" stroke="#666666" points="5,-926 5,-926 113,-926 113,-926 5,-926"/>
<polygon fill="#666666" stroke="#666666" points="5,-911 5,-911 113,-911 113,-911 5,-911"/>
<polygon fill="none" stroke="#666666" points="5,-894.5 5,-965.5 113,-965.5 113,-894.5 5,-894.5"/>
</a>
</g>
</g>
<!-- Node6&#45;&gt;Node9 -->
<g id="edge9_Node000009_Node000006" class="edge">
<title>Node6&#45;&gt;Node9</title>
<g id="a_edge9_Node000009_Node000006"><a xlink:title=" ">
<path fill="none" stroke="#63b8ff" d="M325.22,-1117.73C279.34,-1112.12 190.55,-1095.76 132,-1050 107.74,-1031.04 89.58,-1001.59 77.44,-976.73"/>
<polygon fill="none" stroke="#63b8ff" points="77.36,-976.56 71.2,-972.82 72.29,-965.69 78.45,-969.43 77.36,-976.56"/>
</a>
</g>
<text text-anchor="middle" x="193" y="-1071" font-family="Helvetica,sans-Serif" font-size="10.00" fill="grey"> +keys</text>
</g>
<!-- Node11 -->
<g id="Node000011" class="node">
<title>Node11</title>
<g id="a_Node000011"><a xlink:title=" ">
<polygon fill="white" stroke="transparent" points="321.5,-82 164.5,-82 164.5,0 321.5,0 321.5,-82"/>
<text text-anchor="start" x="170" y="-70" font-family="Helvetica,sans-Serif" font-size="10.00">std::unordered_map</text>
<text text-anchor="start" x="170" y="-59" font-family="Helvetica,sans-Serif" font-size="10.00">&lt; std::shared_ptr&lt; dnf</text>
<text text-anchor="start" x="170" y="-48" font-family="Helvetica,sans-Serif" font-size="10.00">_composer::element::Element</text>
<text text-anchor="start" x="204.5" y="-37" font-family="Helvetica,sans-Serif" font-size="10.00"> &gt;, std::string &gt;</text>
<text text-anchor="start" x="241.5" y="-22" font-family="Helvetica,sans-Serif" font-size="10.00"> </text>
<text text-anchor="start" x="241.5" y="-7" font-family="Helvetica,sans-Serif" font-size="10.00"> </text>
<polygon fill="#666666" stroke="#666666" points="165,-32 165,-32 322,-32 322,-32 165,-32"/>
<polygon fill="#666666" stroke="#666666" points="165,-17 165,-17 322,-17 322,-17 165,-17"/>
<polygon fill="none" stroke="#666666" points="164.5,0 164.5,-82 321.5,-82 321.5,0 164.5,0"/>
</a>
</g>
</g>
<!-- Node6&#45;&gt;Node11 -->
<g id="edge14_Node000011_Node000006" class="edge">
<title>Node6&#45;&gt;Node11</title>
<g id="a_edge14_Node000011_Node000006"><a xlink:title=" ">
<path fill="none" stroke="#63b8ff" d="M384.57,-1111.06C400.93,-1104.46 420.43,-1094.08 433,-1079 477.18,-1025.98 480,-1000.01 480,-931 480,-931 480,-931 480,-203 480,-129.06 400.09,-86.7 333.07,-64.18"/>
<polygon fill="none" stroke="#63b8ff" points="333.01,-64.16 326.07,-66.12 321.59,-60.47 328.53,-58.51 333.01,-64.16"/>
</a>
</g>
<text text-anchor="middle" x="509" y="-557" font-family="Helvetica,sans-Serif" font-size="10.00" fill="grey"> +elements</text>
</g>
<!-- Node7 -->
<g id="Node000007" class="node">
<title>Node7</title>
<g id="a_Node000007"><a xlink:title=" ">
<polygon fill="white" stroke="transparent" points="404,-1243 306,-1243 306,-1183 404,-1183 404,-1243"/>
<text text-anchor="start" x="311" y="-1231" font-family="Helvetica,sans-Serif" font-size="10.00">std::basic_string&lt;</text>
<text text-anchor="start" x="336.5" y="-1220" font-family="Helvetica,sans-Serif" font-size="10.00"> Char &gt;</text>
<text text-anchor="start" x="353" y="-1205" font-family="Helvetica,sans-Serif" font-size="10.00"> </text>
<text text-anchor="start" x="353" y="-1190" font-family="Helvetica,sans-Serif" font-size="10.00"> </text>
<polygon fill="#666666" stroke="#666666" points="306,-1215 306,-1215 404,-1215 404,-1215 306,-1215"/>
<polygon fill="#666666" stroke="#666666" points="306,-1200 306,-1200 404,-1200 404,-1200 306,-1200"/>
<polygon fill="none" stroke="#666666" points="306,-1183 306,-1243 404,-1243 404,-1183 306,-1183"/>
</a>
</g>
</g>
<!-- Node7&#45;&gt;Node6 -->
<g id="edge6_Node000006_Node000007" class="edge">
<title>Node7&#45;&gt;Node6</title>
<g id="a_edge6_Node000006_Node000007"><a xlink:title=" ">
<path fill="none" stroke="#63b8ff" d="M355,-1172.41C355,-1163.47 355,-1154.25 355,-1146.21"/>
<polygon fill="none" stroke="#63b8ff" points="351.5,-1172.69 355,-1182.69 358.5,-1172.69 351.5,-1172.69"/>
</a>
</g>
</g>
<!-- Node8 -->
<g id="Node000008" class="node">
<title>Node8</title>
<g id="a_Node000008"><a xlink:href="structdnf__composer_1_1element_1_1ElementDimensions.html" target="_top" xlink:title=" ">
<polygon fill="white" stroke="transparent" points="268.5,-1050 141.5,-1050 141.5,-810 268.5,-810 268.5,-1050"/>
<text text-anchor="start" x="147.5" y="-1038" font-family="Helvetica,sans-Serif" font-size="10.00">dnf_composer::element</text>
<text text-anchor="start" x="153" y="-1027" font-family="Helvetica,sans-Serif" font-size="10.00">::ElementDimensions</text>
<text text-anchor="start" x="146" y="-1012" font-family="Helvetica,sans-Serif" font-size="10.00">+</text>
<text text-anchor="start" x="159" y="-1012" font-family="Helvetica,sans-Serif" font-size="10.00">d_x</text>
<text text-anchor="start" x="146" y="-997" font-family="Helvetica,sans-Serif" font-size="10.00">+</text>
<text text-anchor="start" x="159" y="-997" font-family="Helvetica,sans-Serif" font-size="10.00">d_y</text>
<text text-anchor="start" x="146" y="-982" font-family="Helvetica,sans-Serif" font-size="10.00">+</text>
<text text-anchor="start" x="159" y="-982" font-family="Helvetica,sans-Serif" font-size="10.00">dimensionality</text>
<text text-anchor="start" x="146" y="-967" font-family="Helvetica,sans-Serif" font-size="10.00">+</text>
<text text-anchor="start" x="159" y="-967" font-family="Helvetica,sans-Serif" font-size="10.00">size</text>
<text text-anchor="start" x="146" y="-952" font-family="Helvetica,sans-Serif" font-size="10.00">+</text>
<text text-anchor="start" x="159" y="-952" font-family="Helvetica,sans-Serif" font-size="10.00">size_x</text>
<text text-anchor="start" x="146" y="-937" font-family="Helvetica,sans-Serif" font-size="10.00">+</text>
<text text-anchor="start" x="159" y="-937" font-family="Helvetica,sans-Serif" font-size="10.00">size_y</text>
<text text-anchor="start" x="146" y="-922" font-family="Helvetica,sans-Serif" font-size="10.00">+</text>
<text text-anchor="start" x="159" y="-922" font-family="Helvetica,sans-Serif" font-size="10.00">x_max</text>
<text text-anchor="start" x="146" y="-907" font-family="Helvetica,sans-Serif" font-size="10.00">+</text>
<text text-anchor="start" x="159" y="-907" font-family="Helvetica,sans-Serif" font-size="10.00">y_max</text>
<text text-anchor="start" x="146" y="-892" font-family="Helvetica,sans-Serif" font-size="10.00">+</text>
<text text-anchor="start" x="159" y="-892" font-family="Helvetica,sans-Serif" font-size="10.00">ElementDimensions()</text>
<text text-anchor="start" x="146" y="-877" font-family="Helvetica,sans-Serif" font-size="10.00">+</text>
<text text-anchor="start" x="159" y="-877" font-family="Helvetica,sans-Serif" font-size="10.00">ElementDimensions()</text>
<text text-anchor="start" x="146" y="-862" font-family="Helvetica,sans-Serif" font-size="10.00">+</text>
<text text-anchor="start" x="159" y="-862" font-family="Helvetica,sans-Serif" font-size="10.00">ElementDimensions()</text>
<text text-anchor="start" x="146" y="-847" font-family="Helvetica,sans-Serif" font-size="10.00">+</text>
<text text-anchor="start" x="159" y="-847" font-family="Helvetica,sans-Serif" font-size="10.00">operator==()</text>
<text text-anchor="start" x="146" y="-832" font-family="Helvetica,sans-Serif" font-size="10.00">+</text>
<text text-anchor="start" x="159" y="-832" font-family="Helvetica,sans-Serif" font-size="10.00">print()</text>
<text text-anchor="start" x="146" y="-817" font-family="Helvetica,sans-Serif" font-size="10.00">+</text>
<text text-anchor="start" x="159" y="-817" font-family="Helvetica,sans-Serif" font-size="10.00">toString()</text>
<polygon fill="#666666" stroke="#666666" points="142,-1022 142,-1022 269,-1022 269,-1022 142,-1022"/>
<polygon fill="#666666" stroke="#666666" points="142,-902 142,-902 157,-902 157,-902 142,-902"/>
<polygon fill="#666666" stroke="#666666" points="157,-902 157,-902 269,-902 269,-902 157,-902"/>
<polygon fill="none" stroke="#666666" points="141.5,-810 141.5,-1050 268.5,-1050 268.5,-810 141.5,-810"/>
</a>
</g>
</g>
<!-- Node8&#45;&gt;Node4 -->
<g id="edge7_Node000004_Node000008" class="edge">
<title>Node8&#45;&gt;Node4</title>
<g id="a_edge7_Node000004_Node000008"><a xlink:title=" ">
<path fill="none" stroke="#63b8ff" d="M209,-809.8C209.58,-800.05 210.24,-790.36 211,-781 211.15,-779.1 211.32,-777.19 211.48,-775.26"/>
<polygon fill="none" stroke="#63b8ff" points="211.49,-775.22 208.07,-768.87 212.61,-763.27 216.03,-769.62 211.49,-775.22"/>
</a>
</g>
<text text-anchor="middle" x="270" y="-784" font-family="Helvetica,sans-Serif" font-size="10.00" fill="grey"> +dimensionParameters</text>
</g>
<!-- Node9&#45;&gt;Node2 -->
<g id="edge8_Node000002_Node000009" class="edge">
<title>Node9&#45;&gt;Node2</title>
<g id="a_edge8_Node000002_Node000009"><a xlink:title=" ">
<path fill="none" stroke="#63b8ff" d="M49.83,-894.3C34.63,-829.55 10.46,-687.46 59,-583 80.91,-535.85 125.59,-498.13 164.83,-472.18"/>
<polygon fill="none" stroke="#63b8ff" points="164.84,-472.17 167.72,-465.56 174.93,-465.68 172.05,-472.29 164.84,-472.17"/>
</a>
</g>
<text text-anchor="middle" x="95" y="-670.5" font-family="Helvetica,sans-Serif" font-size="10.00" fill="grey"> #components</text>
</g>
<!-- Node10 -->
<g id="Node000010" class="node">
<title>Node10</title>
<g id="a_Node000010"><a xlink:title=" ">
<polygon fill="white" stroke="transparent" points="118,-1146 0,-1146 0,-1097 118,-1097 118,-1146"/>
<text text-anchor="start" x="5" y="-1133.5" font-family="Helvetica,sans-Serif" font-size="10.00">std::vector&lt; double &gt;</text>
<text text-anchor="start" x="16.5" y="-1118.5" font-family="Helvetica,sans-Serif" font-size="10.00">+</text>
<text text-anchor="start" x="42" y="-1118.5" font-family="Helvetica,sans-Serif" font-size="10.00">elements</text>
<text text-anchor="start" x="57" y="-1103.5" font-family="Helvetica,sans-Serif" font-size="10.00"> </text>
<polygon fill="#666666" stroke="#666666" points="0,-1128.5 0,-1128.5 118,-1128.5 118,-1128.5 0,-1128.5"/>
<polygon fill="#666666" stroke="#666666" points="0,-1113.5 0,-1113.5 40,-1113.5 40,-1113.5 0,-1113.5"/>
<polygon fill="#666666" stroke="#666666" points="40,-1113.5 40,-1113.5 118,-1113.5 118,-1113.5 40,-1113.5"/>
<polygon fill="none" stroke="#666666" points="0,-1097 0,-1146 118,-1146 118,-1097 0,-1097"/>
</a>
</g>
</g>
<!-- Node10&#45;&gt;Node9 -->
<g id="edge10_Node000009_Node000010" class="edge">
<title>Node10&#45;&gt;Node9</title>
<g id="a_edge10_Node000009_Node000010"><a xlink:title=" ">
<path fill="none" stroke="#63b8ff" d="M59,-1096.88C59,-1067.2 59,-1015.57 59,-977.77"/>
<polygon fill="none" stroke="#63b8ff" points="59,-977.53 55,-971.53 59,-965.53 63,-971.53 59,-977.53"/>
</a>
</g>
<text text-anchor="middle" x="88" y="-1071" font-family="Helvetica,sans-Serif" font-size="10.00" fill="grey"> +elements</text>
</g>
<!-- Node11&#45;&gt;Node2 -->
<g id="edge11_Node000002_Node000011" class="edge">
<title>Node11&#45;&gt;Node2</title>
<g id="a_edge11_Node000002_Node000011"><a xlink:title=" ">
<path fill="none" stroke="#63b8ff" d="M242.48,-82.24C241.78,-136.39 240.51,-234.96 239.5,-313.37"/>
<polygon fill="none" stroke="#63b8ff" points="239.5,-313.77 243.42,-319.82 239.34,-325.77 235.42,-319.72 239.5,-313.77"/>
</a>
</g>
<text text-anchor="middle" x="264" y="-207" font-family="Helvetica,sans-Serif" font-size="10.00" fill="grey"> #inputs</text>
<text text-anchor="middle" x="264" y="-196" font-family="Helvetica,sans-Serif" font-size="10.00" fill="grey">#outputs</text>
</g>
<!-- Node12&#45;&gt;Node11 -->
<g id="edge12_Node000011_Node000012" class="edge">
<title>Node12&#45;&gt;Node11</title>
<g id="a_edge12_Node000011_Node000012"><a xlink:title=" ">
<path fill="none" stroke="#63b8ff" d="M142.56,-173.69C156.7,-152.83 176.5,-124.3 195,-100 197.08,-97.27 199.24,-94.49 201.43,-91.7"/>
<polygon fill="none" stroke="#63b8ff" points="201.51,-91.6 202.13,-84.41 209,-82.22 208.38,-89.41 201.51,-91.6"/>
</a>
</g>
<text text-anchor="middle" x="212" y="-103" font-family="Helvetica,sans-Serif" font-size="10.00" fill="grey"> +keys</text>
</g>
</g>
</svg>
