<?xml version="1.0" encoding="UTF-8" standalone="no"?>
<!DOCTYPE svg PUBLIC "-//W3C//DTD SVG 1.1//EN"
 "http://www.w3.org/Graphics/SVG/1.1/DTD/svg11.dtd">
<!-- Generated by graphviz version 2.43.0 (0)
 -->
<!-- Title: dnf_composer::element::TimedGaussStimulus Pages: 1 -->
<svg width="141pt" height="545pt"
 viewBox="0.00 0.00 141.00 545.00" xmlns="http://www.w3.org/2000/svg" xmlns:xlink="http://www.w3.org/1999/xlink">
<g id="graph0" class="graph" transform="scale(1 1) rotate(0) translate(4 541)">
<title>dnf_composer::element::TimedGaussStimulus</title>
<!-- Node1 -->
<g id="Node000001" class="node">
<title>Node1</title>
<g id="a_Node000001"><a xlink:title="Gaussian stimulus that is active only during specified time intervals.">
<polygon fill="#999999" stroke="transparent" points="133,-150 0,-150 0,0 133,0 133,-150"/>
<text text-anchor="start" x="9" y="-138" font-family="Helvetica,sans-Serif" font-size="10.00">dnf_composer::element</text>
<text text-anchor="start" x="12" y="-127" font-family="Helvetica,sans-Serif" font-size="10.00">::TimedGaussStimulus</text>
<text text-anchor="start" x="65" y="-112" font-family="Helvetica,sans-Serif" font-size="10.00"> </text>
<text text-anchor="start" x="4.5" y="-97" font-family="Helvetica,sans-Serif" font-size="10.00">+</text>
<text text-anchor="start" x="17.5" y="-97" font-family="Helvetica,sans-Serif" font-size="10.00">clone()</text>
<text text-anchor="start" x="4.5" y="-82" font-family="Helvetica,sans-Serif" font-size="10.00">+</text>
<text text-anchor="start" x="17.5" y="-82" font-family="Helvetica,sans-Serif" font-size="10.00">getParameters()</text>
<text text-anchor="start" x="4.5" y="-67" font-family="Helvetica,sans-Serif" font-size="10.00">+</text>
<text text-anchor="start" x="17.5" y="-67" font-family="Helvetica,sans-Serif" font-size="10.00">init()</text>
<text text-anchor="start" x="4.5" y="-52" font-family="Helvetica,sans-Serif" font-size="10.00">+</text>
<text text-anchor="start" x="17.5" y="-52" font-family="Helvetica,sans-Serif" font-size="10.00">setParameters()</text>
<text text-anchor="start" x="4.5" y="-37" font-family="Helvetica,sans-Serif" font-size="10.00">+</text>
<text text-anchor="start" x="17.5" y="-37" font-family="Helvetica,sans-Serif" font-size="10.00">step()</text>
<text text-anchor="start" x="4.5" y="-22" font-family="Helvetica,sans-Serif" font-size="10.00">+</text>
<text text-anchor="start" x="17.5" y="-22" font-family="Helvetica,sans-Serif" font-size="10.00">TimedGaussStimulus()</text>
<text text-anchor="start" x="4.5" y="-7" font-family="Helvetica,sans-Serif" font-size="10.00">+</text>
<text text-anchor="start" x="17.5" y="-7" font-family="Helvetica,sans-Serif" font-size="10.00">toString()</text>
<polygon fill="#666666" stroke="#666666" points="0.5,-122 0.5,-122 133.5,-122 133.5,-122 0.5,-122"/>
<polygon fill="#666666" stroke="#666666" points="0.5,-107 0.5,-107 133.5,-107 133.5,-107 0.5,-107"/>
<polygon fill="none" stroke="#666666" points="0,0 0,-150 133,-150 133,0 0,0"/>
</a>
</g>
</g>
<!-- Node2 -->
<g id="Node000002" class="node">
<title>Node2</title>
<g id="a_Node000002"><a xlink:href="classdnf__composer_1_1element_1_1Element.html" target="_top" xlink:title="Abstract base class for all simulation elements.">
<polygon fill="white" stroke="transparent" points="129.5,-441 3.5,-441 3.5,-186 129.5,-186 129.5,-441"/>
<text text-anchor="start" x="8.5" y="-428.5" font-family="Helvetica,sans-Serif" font-size="10.00">dnf_composer::element</text>
<text text-anchor="start" x="43" y="-417.5" font-family="Helvetica,sans-Serif" font-size="10.00">::Element</text>
<text text-anchor="start" x="8.5" y="-402.5" font-family="Helvetica,sans-Serif" font-size="10.00">#</text>
<text text-anchor="start" x="22.5" y="-402.5" font-family="Helvetica,sans-Serif" font-size="10.00">commonParameters</text>
<text text-anchor="start" x="8.5" y="-387.5" font-family="Helvetica,sans-Serif" font-size="10.00">#</text>
<text text-anchor="start" x="22.5" y="-387.5" font-family="Helvetica,sans-Serif" font-size="10.00">components</text>
<text text-anchor="start" x="8.5" y="-372.5" font-family="Helvetica,sans-Serif" font-size="10.00">#</text>
<text text-anchor="start" x="22.5" y="-372.5" font-family="Helvetica,sans-Serif" font-size="10.00">inputs</text>
<text text-anchor="start" x="8.5" y="-357.5" font-family="Helvetica,sans-Serif" font-size="10.00">#</text>
<text text-anchor="start" x="22.5" y="-357.5" font-family="Helvetica,sans-Serif" font-size="10.00">outputs</text>
<text text-anchor="start" x="8.5" y="-342.5" font-family="Helvetica,sans-Serif" font-size="10.00">+</text>
<text text-anchor="start" x="22.5" y="-342.5" font-family="Helvetica,sans-Serif" font-size="10.00">addInput()</text>
<text text-anchor="start" x="8.5" y="-327.5" font-family="Helvetica,sans-Serif" font-size="10.00">+</text>
<text text-anchor="start" x="22.5" y="-327.5" font-family="Helvetica,sans-Serif" font-size="10.00">buildInputCache()</text>
<text text-anchor="start" x="8.5" y="-312.5" font-family="Helvetica,sans-Serif" font-size="10.00">+</text>
<text text-anchor="start" x="22.5" y="-312.5" font-family="Helvetica,sans-Serif" font-size="10.00">changeDimensions()</text>
<text text-anchor="start" x="8.5" y="-297.5" font-family="Helvetica,sans-Serif" font-size="10.00">+</text>
<text text-anchor="start" x="22.5" y="-297.5" font-family="Helvetica,sans-Serif" font-size="10.00">clone()</text>
<text text-anchor="start" x="8.5" y="-282.5" font-family="Helvetica,sans-Serif" font-size="10.00">+</text>
<text text-anchor="start" x="22.5" y="-282.5" font-family="Helvetica,sans-Serif" font-size="10.00">close()</text>
<text text-anchor="start" x="8.5" y="-267.5" font-family="Helvetica,sans-Serif" font-size="10.00">+</text>
<text text-anchor="start" x="22.5" y="-267.5" font-family="Helvetica,sans-Serif" font-size="10.00">Element()</text>
<text text-anchor="start" x="8.5" y="-252.5" font-family="Helvetica,sans-Serif" font-size="10.00">+</text>
<text text-anchor="start" x="22.5" y="-252.5" font-family="Helvetica,sans-Serif" font-size="10.00">getComponent()</text>
<text text-anchor="start" x="8.5" y="-237.5" font-family="Helvetica,sans-Serif" font-size="10.00">+</text>
<text text-anchor="start" x="22.5" y="-237.5" font-family="Helvetica,sans-Serif" font-size="10.00">getComponentList()</text>
<text text-anchor="start" x="8.5" y="-222.5" font-family="Helvetica,sans-Serif" font-size="10.00">+</text>
<text text-anchor="start" x="22.5" y="-222.5" font-family="Helvetica,sans-Serif" font-size="10.00">getComponentPtr()</text>
<text text-anchor="start" x="8.5" y="-207.5" font-family="Helvetica,sans-Serif" font-size="10.00">+</text>
<text text-anchor="start" x="22.5" y="-207.5" font-family="Helvetica,sans-Serif" font-size="10.00">getComponents()</text>
<text text-anchor="start" x="22.5" y="-192.5" font-family="Helvetica,sans-Serif" font-size="10.00">and 29 more...</text>
<polygon fill="#666666" stroke="#666666" points="3.5,-412.5 3.5,-412.5 129.5,-412.5 129.5,-412.5 3.5,-412.5"/>
<polygon fill="#666666" stroke="#666666" points="3.5,-352.5 3.5,-352.5 20.5,-352.5 20.5,-352.5 3.5,-352.5"/>
<polygon fill="#666666" stroke="#666666" points="20.5,-352.5 20.5,-352.5 129.5,-352.5 129.5,-352.5 20.5,-352.5"/>
<polygon fill="none" stroke="#666666" points="3.5,-186 3.5,-441 129.5,-441 129.5,-186 3.5,-186"/>
</a>
</g>
</g>
<!-- Node2&#45;&gt;Node1 -->
<g id="edge1_Node000001_Node000002" class="edge">
<title>Node2&#45;&gt;Node1</title>
<g id="a_edge1_Node000001_Node000002"><a xlink:title=" ">
<path fill="none" stroke="#63b8ff" d="M66.5,-175.7C66.5,-167.01 66.5,-158.46 66.5,-150.25"/>
<polygon fill="none" stroke="#63b8ff" points="63,-175.94 66.5,-185.94 70,-175.94 63,-175.94"/>
</a>
</g>
</g>
<!-- Node3 -->
<g id="Node000003" class="node">
<title>Node3</title>
<g id="a_Node000003"><a xlink:title=" ">
<polygon fill="white" stroke="transparent" points="129,-537 4,-537 4,-477 129,-477 129,-537"/>
<text text-anchor="start" x="9.5" y="-525" font-family="Helvetica,sans-Serif" font-size="10.00">std::enable_shared</text>
<text text-anchor="start" x="9.5" y="-514" font-family="Helvetica,sans-Serif" font-size="10.00">_from_this&lt; Element &gt;</text>
<text text-anchor="start" x="65" y="-499" font-family="Helvetica,sans-Serif" font-size="10.00"> </text>
<text text-anchor="start" x="65" y="-484" font-family="Helvetica,sans-Serif" font-size="10.00"> </text>
<polygon fill="#666666" stroke="#666666" points="4.5,-509 4.5,-509 129.5,-509 129.5,-509 4.5,-509"/>
<polygon fill="#666666" stroke="#666666" points="4.5,-494 4.5,-494 129.5,-494 129.5,-494 4.5,-494"/>
<polygon fill="none" stroke="#666666" points="4,-477 4,-537 129,-537 129,-477 4,-477"/>
</a>
</g>
</g>
<!-- Node3&#45;&gt;Node2 -->
<g id="edge2_Node000002_Node000003" class="edge">
<title>Node3&#45;&gt;Node2</title>
<g id="a_edge2_Node000002_Node000003"><a xlink:title=" ">
<path fill="none" stroke="#63b8ff" d="M66.5,-466.74C66.5,-458.9 66.5,-450.27 66.5,-441.23"/>
<polygon fill="none" stroke="#63b8ff" points="63,-466.92 66.5,-476.92 70,-466.92 63,-466.92"/>
</a>
</g>
</g>
</g>
</svg>
