<?xml version="1.0" encoding="UTF-8" standalone="no"?>
<!DOCTYPE svg PUBLIC "-//W3C//DTD SVG 1.1//EN"
 "http://www.w3.org/Graphics/SVG/1.1/DTD/svg11.dtd">
<!-- Generated by graphviz version 2.43.0 (0)
 -->
<!-- Title: dnf_composer::element::Kernel Pages: 1 -->
<svg width="605pt" height="1131pt"
 viewBox="0.00 0.00 605.00 1131.00" xmlns="http://www.w3.org/2000/svg" xmlns:xlink="http://www.w3.org/1999/xlink">
<g id="graph0" class="graph" transform="scale(1 1) rotate(0) translate(4 1127)">
<title>dnf_composer::element::Kernel</title>
<!-- Node1 -->
<g id="Node000001" class="node">
<title>Node1</title>
<g id="a_Node000001"><a xlink:title="Abstract base class for all convolution&#45;based interaction kernels.">
<polygon fill="#999999" stroke="transparent" points="228,-249 102,-249 102,-129 228,-129 228,-249"/>
<text text-anchor="start" x="107" y="-237" font-family="Helvetica,sans-Serif" font-size="10.00">dnf_composer::element</text>
<text text-anchor="start" x="146.5" y="-226" font-family="Helvetica,sans-Serif" font-size="10.00">::Kernel</text>
<text text-anchor="start" x="111" y="-211" font-family="Helvetica,sans-Serif" font-size="10.00">#</text>
<text text-anchor="start" x="129" y="-211" font-family="Helvetica,sans-Serif" font-size="10.00">cutOfFactor</text>
<text text-anchor="start" x="111" y="-196" font-family="Helvetica,sans-Serif" font-size="10.00">#</text>
<text text-anchor="start" x="129" y="-196" font-family="Helvetica,sans-Serif" font-size="10.00">fullSum</text>
<text text-anchor="start" x="111" y="-181" font-family="Helvetica,sans-Serif" font-size="10.00">+</text>
<text text-anchor="start" x="129" y="-181" font-family="Helvetica,sans-Serif" font-size="10.00">getExtIndex()</text>
<text text-anchor="start" x="111" y="-166" font-family="Helvetica,sans-Serif" font-size="10.00">+</text>
<text text-anchor="start" x="129" y="-166" font-family="Helvetica,sans-Serif" font-size="10.00">getKernelRange()</text>
<text text-anchor="start" x="111" y="-151" font-family="Helvetica,sans-Serif" font-size="10.00">+</text>
<text text-anchor="start" x="129" y="-151" font-family="Helvetica,sans-Serif" font-size="10.00">Kernel()</text>
<text text-anchor="start" x="111" y="-136" font-family="Helvetica,sans-Serif" font-size="10.00">+</text>
<text text-anchor="start" x="129" y="-136" font-family="Helvetica,sans-Serif" font-size="10.00">~Kernel()</text>
<polygon fill="#666666" stroke="#666666" points="102,-221 102,-221 228,-221 228,-221 102,-221"/>
<polygon fill="#666666" stroke="#666666" points="102,-191 102,-191 127,-191 127,-191 102,-191"/>
<polygon fill="#666666" stroke="#666666" points="127,-191 127,-191 228,-191 228,-191 127,-191"/>
<polygon fill="none" stroke="#666666" points="102,-129 102,-249 228,-249 228,-129 102,-129"/>
</a>
</g>
</g>
<!-- Node2 -->
<g id="Node000002" class="node">
<title>Node2</title>
<g id="a_Node000002"><a xlink:href="classdnf__composer_1_1element_1_1Element.html" target="_top" xlink:title="Abstract base class for all simulation elements.">
<polygon fill="white" stroke="transparent" points="381,-506 255,-506 255,-296 381,-296 381,-506"/>
<text text-anchor="start" x="260" y="-494" font-family="Helvetica,sans-Serif" font-size="10.00">dnf_composer::element</text>
<text text-anchor="start" x="294.5" y="-483" font-family="Helvetica,sans-Serif" font-size="10.00">::Element</text>
<text text-anchor="start" x="316" y="-468" font-family="Helvetica,sans-Serif" font-size="10.00"> </text>
<text text-anchor="start" x="260" y="-453" font-family="Helvetica,sans-Serif" font-size="10.00">+</text>
<text text-anchor="start" x="274" y="-453" font-family="Helvetica,sans-Serif" font-size="10.00">addInput()</text>
<text text-anchor="start" x="260" y="-438" font-family="Helvetica,sans-Serif" font-size="10.00">+</text>
<text text-anchor="start" x="274" y="-438" font-family="Helvetica,sans-Serif" font-size="10.00">buildInputCache()</text>
<text text-anchor="start" x="260" y="-423" font-family="Helvetica,sans-Serif" font-size="10.00">+</text>
<text text-anchor="start" x="274" y="-423" font-family="Helvetica,sans-Serif" font-size="10.00">changeDimensions()</text>
<text text-anchor="start" x="260" y="-408" font-family="Helvetica,sans-Serif" font-size="10.00">+</text>
<text text-anchor="start" x="274" y="-408" font-family="Helvetica,sans-Serif" font-size="10.00">clone()</text>
<text text-anchor="start" x="260" y="-393" font-family="Helvetica,sans-Serif" font-size="10.00">+</text>
<text text-anchor="start" x="274" y="-393" font-family="Helvetica,sans-Serif" font-size="10.00">close()</text>
<text text-anchor="start" x="260" y="-378" font-family="Helvetica,sans-Serif" font-size="10.00">+</text>
<text text-anchor="start" x="274" y="-378" font-family="Helvetica,sans-Serif" font-size="10.00">Element()</text>
<text text-anchor="start" x="260" y="-363" font-family="Helvetica,sans-Serif" font-size="10.00">+</text>
<text text-anchor="start" x="274" y="-363" font-family="Helvetica,sans-Serif" font-size="10.00">getComponent()</text>
<text text-anchor="start" x="260" y="-348" font-family="Helvetica,sans-Serif" font-size="10.00">+</text>
<text text-anchor="start" x="274" y="-348" font-family="Helvetica,sans-Serif" font-size="10.00">getComponentList()</text>
<text text-anchor="start" x="260" y="-333" font-family="Helvetica,sans-Serif" font-size="10.00">+</text>
<text text-anchor="start" x="274" y="-333" font-family="Helvetica,sans-Serif" font-size="10.00">getComponentPtr()</text>
<text text-anchor="start" x="260" y="-318" font-family="Helvetica,sans-Serif" font-size="10.00">+</text>
<text text-anchor="start" x="274" y="-318" font-family="Helvetica,sans-Serif" font-size="10.00">getComponents()</text>
<text text-anchor="start" x="274" y="-303" font-family="Helvetica,sans-Serif" font-size="10.00">and 28 more...</text>
<polygon fill="#666666" stroke="#666666" points="255,-478 255,-478 381,-478 381,-478 255,-478"/>
<polygon fill="#666666" stroke="#666666" points="255,-463 255,-463 381,-463 381,-463 255,-463"/>
<polygon fill="none" stroke="#666666" points="255,-296 255,-506 381,-506 381,-296 255,-296"/>
</a>
</g>
</g>
<!-- Node2&#45;&gt;Node1 -->
<g id="edge1_Node000001_Node000002" class="edge">
<title>Node2&#45;&gt;Node1</title>
<g id="a_edge1_Node000001_Node000002"><a xlink:title=" ">
<path fill="none" stroke="#63b8ff" d="M249.07,-298.88C241.38,-288.05 233.59,-277.25 226,-267 221.74,-261.24 217.23,-255.3 212.67,-249.4"/>
<polygon fill="none" stroke="#63b8ff" points="246.29,-301.01 254.92,-307.16 252.01,-296.97 246.29,-301.01"/>
</a>
</g>
</g>
<!-- Node12 -->
<g id="Node000012" class="node">
<title>Node12</title>
<g id="a_Node000012"><a xlink:title=" ">
<polygon fill="white" stroke="transparent" points="414,-219 246,-219 246,-159 414,-159 414,-219"/>
<text text-anchor="start" x="251" y="-207" font-family="Helvetica,sans-Serif" font-size="10.00">std::shared_ptr&lt; dnf</text>
<text text-anchor="start" x="251" y="-196" font-family="Helvetica,sans-Serif" font-size="10.00">_composer::element::Element &gt;</text>
<text text-anchor="start" x="328" y="-181" font-family="Helvetica,sans-Serif" font-size="10.00"> </text>
<text text-anchor="start" x="271.5" y="-166" font-family="Helvetica,sans-Serif" font-size="10.00">+</text>
<text text-anchor="start" x="306" y="-166" font-family="Helvetica,sans-Serif" font-size="10.00">operator&#45;&gt;()</text>
<polygon fill="#666666" stroke="#666666" points="246,-191 246,-191 414,-191 414,-191 246,-191"/>
<polygon fill="#666666" stroke="#666666" points="246,-176 246,-176 414,-176 414,-176 246,-176"/>
<polygon fill="none" stroke="#666666" points="246,-159 246,-219 414,-219 414,-159 246,-159"/>
</a>
</g>
</g>
<!-- Node2&#45;&gt;Node12 -->
<g id="edge13_Node000012_Node000002" class="edge">
<title>Node2&#45;&gt;Node12</title>
<g id="a_edge13_Node000012_Node000002"><a xlink:title=" ">
<path fill="none" stroke="#63b8ff" d="M323.95,-295.92C325.26,-272.96 326.57,-249.94 327.64,-231.26"/>
<polygon fill="none" stroke="#63b8ff" points="327.65,-231.05 324,-224.83 328.34,-219.07 331.99,-225.28 327.65,-231.05"/>
</a>
</g>
<text text-anchor="middle" x="337.5" y="-270" font-family="Helvetica,sans-Serif" font-size="10.00" fill="grey"> +ptr</text>
</g>
<!-- Node3 -->
<g id="Node000003" class="node">
<title>Node3</title>
<g id="a_Node000003"><a xlink:title=" ">
<polygon fill="white" stroke="transparent" points="212.5,-673 87.5,-673 87.5,-613 212.5,-613 212.5,-673"/>
<text text-anchor="start" x="93" y="-661" font-family="Helvetica,sans-Serif" font-size="10.00">std::enable_shared</text>
<text text-anchor="start" x="93" y="-650" font-family="Helvetica,sans-Serif" font-size="10.00">_from_this&lt; Element &gt;</text>
<text text-anchor="start" x="148.5" y="-635" font-family="Helvetica,sans-Serif" font-size="10.00"> </text>
<text text-anchor="start" x="148.5" y="-620" font-family="Helvetica,sans-Serif" font-size="10.00"> </text>
<polygon fill="#666666" stroke="#666666" points="88,-645 88,-645 213,-645 213,-645 88,-645"/>
<polygon fill="#666666" stroke="#666666" points="88,-630 88,-630 213,-630 213,-630 88,-630"/>
<polygon fill="none" stroke="#666666" points="87.5,-613 87.5,-673 212.5,-673 212.5,-613 87.5,-613"/>
</a>
</g>
</g>
<!-- Node3&#45;&gt;Node2 -->
<g id="edge2_Node000002_Node000003" class="edge">
<title>Node3&#45;&gt;Node2</title>
<g id="a_edge2_Node000002_Node000003"><a xlink:title=" ">
<path fill="none" stroke="#63b8ff" d="M176.54,-604.09C197.53,-574.1 227.73,-530.96 254.83,-492.24"/>
<polygon fill="none" stroke="#63b8ff" points="173.47,-602.37 170.6,-612.57 179.2,-606.39 173.47,-602.37"/>
</a>
</g>
</g>
<!-- Node4 -->
<g id="Node000004" class="node">
<title>Node4</title>
<g id="a_Node000004"><a xlink:href="structdnf__composer_1_1element_1_1ElementCommonParameters.html" target="_top" xlink:title="Bundles identity and spatial dimensions passed to every Element constructor.">
<polygon fill="white" stroke="transparent" points="399.5,-733 230.5,-733 230.5,-553 399.5,-553 399.5,-733"/>
<text text-anchor="start" x="242" y="-721" font-family="Helvetica,sans-Serif" font-size="10.00">dnf_composer::element</text>
<text text-anchor="start" x="242" y="-710" font-family="Helvetica,sans-Serif" font-size="10.00">::ElementCommonParameters</text>
<text text-anchor="start" x="313.5" y="-695" font-family="Helvetica,sans-Serif" font-size="10.00"> </text>
<text text-anchor="start" x="235" y="-680" font-family="Helvetica,sans-Serif" font-size="10.00">+</text>
<text text-anchor="start" x="248" y="-680" font-family="Helvetica,sans-Serif" font-size="10.00">ElementCommonParameters()</text>
<text text-anchor="start" x="235" y="-665" font-family="Helvetica,sans-Serif" font-size="10.00">+</text>
<text text-anchor="start" x="248" y="-665" font-family="Helvetica,sans-Serif" font-size="10.00">ElementCommonParameters()</text>
<text text-anchor="start" x="235" y="-650" font-family="Helvetica,sans-Serif" font-size="10.00">+</text>
<text text-anchor="start" x="248" y="-650" font-family="Helvetica,sans-Serif" font-size="10.00">ElementCommonParameters()</text>
<text text-anchor="start" x="235" y="-635" font-family="Helvetica,sans-Serif" font-size="10.00">+</text>
<text text-anchor="start" x="248" y="-635" font-family="Helvetica,sans-Serif" font-size="10.00">ElementCommonParameters()</text>
<text text-anchor="start" x="235" y="-620" font-family="Helvetica,sans-Serif" font-size="10.00">+</text>
<text text-anchor="start" x="248" y="-620" font-family="Helvetica,sans-Serif" font-size="10.00">ElementCommonParameters()</text>
<text text-anchor="start" x="235" y="-605" font-family="Helvetica,sans-Serif" font-size="10.00">+</text>
<text text-anchor="start" x="248" y="-605" font-family="Helvetica,sans-Serif" font-size="10.00">ElementCommonParameters()</text>
<text text-anchor="start" x="235" y="-590" font-family="Helvetica,sans-Serif" font-size="10.00">+</text>
<text text-anchor="start" x="248" y="-590" font-family="Helvetica,sans-Serif" font-size="10.00">operator==()</text>
<text text-anchor="start" x="235" y="-575" font-family="Helvetica,sans-Serif" font-size="10.00">+</text>
<text text-anchor="start" x="248" y="-575" font-family="Helvetica,sans-Serif" font-size="10.00">print()</text>
<text text-anchor="start" x="235" y="-560" font-family="Helvetica,sans-Serif" font-size="10.00">+</text>
<text text-anchor="start" x="248" y="-560" font-family="Helvetica,sans-Serif" font-size="10.00">toString()</text>
<polygon fill="#666666" stroke="#666666" points="231,-705 231,-705 400,-705 400,-705 231,-705"/>
<polygon fill="#666666" stroke="#666666" points="231,-690 231,-690 400,-690 400,-690 231,-690"/>
<polygon fill="none" stroke="#666666" points="230.5,-553 230.5,-733 399.5,-733 399.5,-553 230.5,-553"/>
</a>
</g>
</g>
<!-- Node4&#45;&gt;Node2 -->
<g id="edge3_Node000002_Node000004" class="edge">
<title>Node4&#45;&gt;Node2</title>
<g id="a_edge3_Node000002_Node000004"><a xlink:title=" ">
<path fill="none" stroke="#63b8ff" d="M314.77,-552.76C314.81,-543.06 314.89,-533.32 315,-524 315.02,-522.09 315.05,-520.16 315.08,-518.22"/>
<polygon fill="none" stroke="#63b8ff" points="315.08,-518.15 311.17,-512.09 315.27,-506.15 319.17,-512.22 315.08,-518.15"/>
</a>
</g>
<text text-anchor="middle" x="370" y="-527" font-family="Helvetica,sans-Serif" font-size="10.00" fill="grey"> #commonParameters</text>
</g>
<!-- Node5 -->
<g id="Node000005" class="node">
<title>Node5</title>
<g id="a_Node000005"><a xlink:href="structdnf__composer_1_1element_1_1ElementIdentifiers.html" target="_top" xlink:title="Identity information for an element: numeric ID, name, and type label.">
<polygon fill="white" stroke="transparent" points="384,-930 248,-930 248,-780 384,-780 384,-930"/>
<text text-anchor="start" x="258" y="-918" font-family="Helvetica,sans-Serif" font-size="10.00">dnf_composer::element</text>
<text text-anchor="start" x="268" y="-907" font-family="Helvetica,sans-Serif" font-size="10.00">::ElementIdentifiers</text>
<text text-anchor="start" x="252" y="-892" font-family="Helvetica,sans-Serif" font-size="10.00">+</text>
<text text-anchor="start" x="265" y="-892" font-family="Helvetica,sans-Serif" font-size="10.00">label</text>
<text text-anchor="start" x="252" y="-877" font-family="Helvetica,sans-Serif" font-size="10.00">+</text>
<text text-anchor="start" x="265" y="-877" font-family="Helvetica,sans-Serif" font-size="10.00">uniqueIdentifier</text>
<text text-anchor="start" x="252" y="-862" font-family="Helvetica,sans-Serif" font-size="10.00">+</text>
<text text-anchor="start" x="265" y="-862" font-family="Helvetica,sans-Serif" font-size="10.00">uniqueIdentifierCounter</text>
<text text-anchor="start" x="252" y="-847" font-family="Helvetica,sans-Serif" font-size="10.00">+</text>
<text text-anchor="start" x="265" y="-847" font-family="Helvetica,sans-Serif" font-size="10.00">ElementIdentifiers()</text>
<text text-anchor="start" x="252" y="-832" font-family="Helvetica,sans-Serif" font-size="10.00">+</text>
<text text-anchor="start" x="265" y="-832" font-family="Helvetica,sans-Serif" font-size="10.00">ElementIdentifiers()</text>
<text text-anchor="start" x="252" y="-817" font-family="Helvetica,sans-Serif" font-size="10.00">+</text>
<text text-anchor="start" x="265" y="-817" font-family="Helvetica,sans-Serif" font-size="10.00">operator==()</text>
<text text-anchor="start" x="252" y="-802" font-family="Helvetica,sans-Serif" font-size="10.00">+</text>
<text text-anchor="start" x="265" y="-802" font-family="Helvetica,sans-Serif" font-size="10.00">print()</text>
<text text-anchor="start" x="252" y="-787" font-family="Helvetica,sans-Serif" font-size="10.00">+</text>
<text text-anchor="start" x="265" y="-787" font-family="Helvetica,sans-Serif" font-size="10.00">toString()</text>
<polygon fill="#666666" stroke="#666666" points="248,-902 248,-902 384,-902 384,-902 248,-902"/>
<polygon fill="#666666" stroke="#666666" points="248,-857 248,-857 263,-857 263,-857 248,-857"/>
<polygon fill="#666666" stroke="#666666" points="263,-857 263,-857 384,-857 384,-857 263,-857"/>
<polygon fill="none" stroke="#666666" points="248,-780 248,-930 384,-930 384,-780 248,-780"/>
</a>
</g>
</g>
<!-- Node5&#45;&gt;Node4 -->
<g id="edge4_Node000004_Node000005" class="edge">
<title>Node5&#45;&gt;Node4</title>
<g id="a_edge4_Node000004_Node000005"><a xlink:title=" ">
<path fill="none" stroke="#63b8ff" d="M315.65,-779.96C315.59,-768.74 315.54,-757.01 315.48,-745.33"/>
<polygon fill="none" stroke="#63b8ff" points="315.48,-745.21 311.45,-739.23 315.42,-733.21 319.45,-739.19 315.48,-745.21"/>
</a>
</g>
<text text-anchor="middle" x="345.5" y="-754" font-family="Helvetica,sans-Serif" font-size="10.00" fill="grey"> +identifiers</text>
</g>
<!-- Node6 -->
<g id="Node000006" class="node">
<title>Node6</title>
<g id="a_Node000006"><a xlink:title=" ">
<polygon fill="white" stroke="transparent" points="502.5,-1026 443.5,-1026 443.5,-977 502.5,-977 502.5,-1026"/>
<text text-anchor="start" x="449" y="-1013.5" font-family="Helvetica,sans-Serif" font-size="10.00">std::string</text>
<text text-anchor="start" x="471.5" y="-998.5" font-family="Helvetica,sans-Serif" font-size="10.00"> </text>
<text text-anchor="start" x="471.5" y="-983.5" font-family="Helvetica,sans-Serif" font-size="10.00"> </text>
<polygon fill="#666666" stroke="#666666" points="444,-1008.5 444,-1008.5 503,-1008.5 503,-1008.5 444,-1008.5"/>
<polygon fill="#666666" stroke="#666666" points="444,-993.5 444,-993.5 503,-993.5 503,-993.5 444,-993.5"/>
<polygon fill="none" stroke="#666666" points="443.5,-977 443.5,-1026 502.5,-1026 502.5,-977 443.5,-977"/>
</a>
</g>
</g>
<!-- Node6&#45;&gt;Node5 -->
<g id="edge5_Node000005_Node000006" class="edge">
<title>Node6&#45;&gt;Node5</title>
<g id="a_edge5_Node000005_Node000006"><a xlink:title=" ">
<path fill="none" stroke="#63b8ff" d="M443.28,-990.05C426.16,-983.05 404.96,-972.62 389,-959 382.24,-953.23 375.79,-946.7 369.72,-939.8"/>
<polygon fill="none" stroke="#63b8ff" points="369.38,-939.4 362.46,-937.36 361.68,-930.19 368.6,-932.23 369.38,-939.4"/>
</a>
</g>
<text text-anchor="middle" x="426" y="-951" font-family="Helvetica,sans-Serif" font-size="10.00" fill="grey"> +uniqueName</text>
</g>
<!-- Node9 -->
<g id="Node000009" class="node">
<title>Node9</title>
<g id="a_Node000009"><a xlink:title=" ">
<polygon fill="white" stroke="transparent" points="510,-890.5 402,-890.5 402,-819.5 510,-819.5 510,-890.5"/>
<text text-anchor="start" x="407" y="-878" font-family="Helvetica,sans-Serif" font-size="10.00">std::unordered_map</text>
<text text-anchor="start" x="407" y="-867" font-family="Helvetica,sans-Serif" font-size="10.00">&lt; std::string, std::</text>
<text text-anchor="start" x="407" y="-856" font-family="Helvetica,sans-Serif" font-size="10.00">vector&lt; double &gt; &gt;</text>
<text text-anchor="start" x="454" y="-841" font-family="Helvetica,sans-Serif" font-size="10.00"> </text>
<text text-anchor="start" x="454" y="-826" font-family="Helvetica,sans-Serif" font-size="10.00"> </text>
<polygon fill="#666666" stroke="#666666" points="402,-851 402,-851 510,-851 510,-851 402,-851"/>
<polygon fill="#666666" stroke="#666666" points="402,-836 402,-836 510,-836 510,-836 402,-836"/>
<polygon fill="none" stroke="#666666" points="402,-819.5 402,-890.5 510,-890.5 510,-819.5 402,-819.5"/>
</a>
</g>
</g>
<!-- Node6&#45;&gt;Node9 -->
<g id="edge9_Node000009_Node000006" class="edge">
<title>Node6&#45;&gt;Node9</title>
<g id="a_edge9_Node000009_Node000006"><a xlink:title=" ">
<path fill="none" stroke="#63b8ff" d="M470.23,-976.96C467.87,-956.92 464.41,-927.51 461.49,-902.71"/>
<polygon fill="none" stroke="#63b8ff" points="461.47,-902.52 456.8,-897.03 460.07,-890.6 464.74,-896.09 461.47,-902.52"/>
</a>
</g>
<text text-anchor="middle" x="484" y="-951" font-family="Helvetica,sans-Serif" font-size="10.00" fill="grey"> +keys</text>
</g>
<!-- Node11 -->
<g id="Node000011" class="node">
<title>Node11</title>
<g id="a_Node000011"><a xlink:title=" ">
<polygon fill="white" stroke="transparent" points="528.5,-82 371.5,-82 371.5,0 528.5,0 528.5,-82"/>
<text text-anchor="start" x="377" y="-70" font-family="Helvetica,sans-Serif" font-size="10.00">std::unordered_map</text>
<text text-anchor="start" x="377" y="-59" font-family="Helvetica,sans-Serif" font-size="10.00">&lt; std::shared_ptr&lt; dnf</text>
<text text-anchor="start" x="377" y="-48" font-family="Helvetica,sans-Serif" font-size="10.00">_composer::element::Element</text>
<text text-anchor="start" x="411.5" y="-37" font-family="Helvetica,sans-Serif" font-size="10.00"> &gt;, std::string &gt;</text>
<text text-anchor="start" x="448.5" y="-22" font-family="Helvetica,sans-Serif" font-size="10.00"> </text>
<text text-anchor="start" x="448.5" y="-7" font-family="Helvetica,sans-Serif" font-size="10.00"> </text>
<polygon fill="#666666" stroke="#666666" points="372,-32 372,-32 529,-32 529,-32 372,-32"/>
<polygon fill="#666666" stroke="#666666" points="372,-17 372,-17 529,-17 529,-17 372,-17"/>
<polygon fill="none" stroke="#666666" points="371.5,0 371.5,-82 528.5,-82 528.5,0 371.5,0"/>
</a>
</g>
</g>
<!-- Node6&#45;&gt;Node11 -->
<g id="edge14_Node000011_Node000006" class="edge">
<title>Node6&#45;&gt;Node11</title>
<g id="a_edge14_Node000011_Node000006"><a xlink:title=" ">
<path fill="none" stroke="#63b8ff" d="M492.49,-976.97C496.84,-971.25 501.27,-965.04 505,-959 530.33,-917.99 539,-904.21 539,-856 539,-856 539,-856 539,-188 539,-152.31 519.37,-117.94 498.54,-91.52"/>
<polygon fill="none" stroke="#63b8ff" points="498.47,-91.43 491.57,-89.33 490.85,-82.16 497.75,-84.26 498.47,-91.43"/>
</a>
</g>
<text text-anchor="middle" x="568" y="-527" font-family="Helvetica,sans-Serif" font-size="10.00" fill="grey"> +elements</text>
</g>
<!-- Node7 -->
<g id="Node000007" class="node">
<title>Node7</title>
<g id="a_Node000007"><a xlink:title=" ">
<polygon fill="white" stroke="transparent" points="522,-1123 424,-1123 424,-1063 522,-1063 522,-1123"/>
<text text-anchor="start" x="429" y="-1111" font-family="Helvetica,sans-Serif" font-size="10.00">std::basic_string&lt;</text>
<text text-anchor="start" x="454.5" y="-1100" font-family="Helvetica,sans-Serif" font-size="10.00"> Char &gt;</text>
<text text-anchor="start" x="471" y="-1085" font-family="Helvetica,sans-Serif" font-size="10.00"> </text>
<text text-anchor="start" x="471" y="-1070" font-family="Helvetica,sans-Serif" font-size="10.00"> </text>
<polygon fill="#666666" stroke="#666666" points="424,-1095 424,-1095 522,-1095 522,-1095 424,-1095"/>
<polygon fill="#666666" stroke="#666666" points="424,-1080 424,-1080 522,-1080 522,-1080 424,-1080"/>
<polygon fill="none" stroke="#666666" points="424,-1063 424,-1123 522,-1123 522,-1063 424,-1063"/>
</a>
</g>
</g>
<!-- Node7&#45;&gt;Node6 -->
<g id="edge6_Node000006_Node000007" class="edge">
<title>Node7&#45;&gt;Node6</title>
<g id="a_edge6_Node000006_Node000007"><a xlink:title=" ">
<path fill="none" stroke="#63b8ff" d="M473,-1052.41C473,-1043.47 473,-1034.25 473,-1026.21"/>
<polygon fill="none" stroke="#63b8ff" points="469.5,-1052.69 473,-1062.69 476.5,-1052.69 469.5,-1052.69"/>
</a>
</g>
</g>
<!-- Node8 -->
<g id="Node000008" class="node">
<title>Node8</title>
<g id="a_Node000008"><a xlink:href="structdnf__composer_1_1element_1_1ElementDimensions.html" target="_top" xlink:title="Spatial discretization of a one&#45;dimensional field.">
<polygon fill="white" stroke="transparent" points="229.5,-922.5 102.5,-922.5 102.5,-787.5 229.5,-787.5 229.5,-922.5"/>
<text text-anchor="start" x="108.5" y="-910" font-family="Helvetica,sans-Serif" font-size="10.00">dnf_composer::element</text>
<text text-anchor="start" x="114" y="-899" font-family="Helvetica,sans-Serif" font-size="10.00">::ElementDimensions</text>
<text text-anchor="start" x="107" y="-884" font-family="Helvetica,sans-Serif" font-size="10.00">+</text>
<text text-anchor="start" x="120" y="-884" font-family="Helvetica,sans-Serif" font-size="10.00">d_x</text>
<text text-anchor="start" x="107" y="-869" font-family="Helvetica,sans-Serif" font-size="10.00">+</text>
<text text-anchor="start" x="120" y="-869" font-family="Helvetica,sans-Serif" font-size="10.00">size</text>
<text text-anchor="start" x="107" y="-854" font-family="Helvetica,sans-Serif" font-size="10.00">+</text>
<text text-anchor="start" x="120" y="-854" font-family="Helvetica,sans-Serif" font-size="10.00">x_max</text>
<text text-anchor="start" x="107" y="-839" font-family="Helvetica,sans-Serif" font-size="10.00">+</text>
<text text-anchor="start" x="120" y="-839" font-family="Helvetica,sans-Serif" font-size="10.00">ElementDimensions()</text>
<text text-anchor="start" x="107" y="-824" font-family="Helvetica,sans-Serif" font-size="10.00">+</text>
<text text-anchor="start" x="120" y="-824" font-family="Helvetica,sans-Serif" font-size="10.00">operator==()</text>
<text text-anchor="start" x="107" y="-809" font-family="Helvetica,sans-Serif" font-size="10.00">+</text>
<text text-anchor="start" x="120" y="-809" font-family="Helvetica,sans-Serif" font-size="10.00">print()</text>
<text text-anchor="start" x="107" y="-794" font-family="Helvetica,sans-Serif" font-size="10.00">+</text>
<text text-anchor="start" x="120" y="-794" font-family="Helvetica,sans-Serif" font-size="10.00">toString()</text>
<polygon fill="#666666" stroke="#666666" points="103,-894 103,-894 230,-894 230,-894 103,-894"/>
<polygon fill="#666666" stroke="#666666" points="103,-849 103,-849 118,-849 118,-849 103,-849"/>
<polygon fill="#666666" stroke="#666666" points="118,-849 118,-849 230,-849 230,-849 118,-849"/>
<polygon fill="none" stroke="#666666" points="102.5,-787.5 102.5,-922.5 229.5,-922.5 229.5,-787.5 102.5,-787.5"/>
</a>
</g>
</g>
<!-- Node8&#45;&gt;Node4 -->
<g id="edge7_Node000004_Node000008" class="edge">
<title>Node8&#45;&gt;Node4</title>
<g id="a_edge7_Node000004_Node000008"><a xlink:title=" ">
<path fill="none" stroke="#63b8ff" d="M175.54,-787.46C179.5,-774.54 185.1,-761.71 193,-751 200.39,-740.99 207.1,-741.54 220.58,-733.2"/>
<polygon fill="none" stroke="#63b8ff" points="220.68,-733.13 223.29,-726.4 230.5,-726.22 227.89,-732.95 220.68,-733.13"/>
</a>
</g>
<text text-anchor="middle" x="252" y="-754" font-family="Helvetica,sans-Serif" font-size="10.00" fill="grey"> +dimensionParameters</text>
</g>
<!-- Node9&#45;&gt;Node2 -->
<g id="edge8_Node000002_Node000009" class="edge">
<title>Node9&#45;&gt;Node2</title>
<g id="a_edge8_Node000002_Node000009"><a xlink:title=" ">
<path fill="none" stroke="#63b8ff" d="M455.43,-819.47C453.79,-745.97 447.6,-576.45 425,-524 416.39,-504.03 403.25,-485 389.08,-468.17"/>
<polygon fill="none" stroke="#63b8ff" points="389.02,-468.1 382.06,-466.21 381.13,-459.06 388.09,-460.95 389.02,-468.1"/>
</a>
</g>
<text text-anchor="middle" x="488" y="-640.5" font-family="Helvetica,sans-Serif" font-size="10.00" fill="grey"> #components</text>
</g>
<!-- Node10 -->
<g id="Node000010" class="node">
<title>Node10</title>
<g id="a_Node000010"><a xlink:title=" ">
<polygon fill="white" stroke="transparent" points="354,-1026 236,-1026 236,-977 354,-977 354,-1026"/>
<text text-anchor="start" x="241" y="-1013.5" font-family="Helvetica,sans-Serif" font-size="10.00">std::vector&lt; double &gt;</text>
<text text-anchor="start" x="252.5" y="-998.5" font-family="Helvetica,sans-Serif" font-size="10.00">+</text>
<text text-anchor="start" x="278" y="-998.5" font-family="Helvetica,sans-Serif" font-size="10.00">elements</text>
<text text-anchor="start" x="293" y="-983.5" font-family="Helvetica,sans-Serif" font-size="10.00"> </text>
<polygon fill="#666666" stroke="#666666" points="236,-1008.5 236,-1008.5 354,-1008.5 354,-1008.5 236,-1008.5"/>
<polygon fill="#666666" stroke="#666666" points="236,-993.5 236,-993.5 276,-993.5 276,-993.5 236,-993.5"/>
<polygon fill="#666666" stroke="#666666" points="276,-993.5 276,-993.5 354,-993.5 354,-993.5 276,-993.5"/>
<polygon fill="none" stroke="#666666" points="236,-977 236,-1026 354,-1026 354,-977 236,-977"/>
</a>
</g>
</g>
<!-- Node10&#45;&gt;Node9 -->
<g id="edge10_Node000009_Node000010" class="edge">
<title>Node10&#45;&gt;Node9</title>
<g id="a_edge10_Node000009_Node000010"><a xlink:title=" ">
<path fill="none" stroke="#63b8ff" d="M299.78,-976.95C303.01,-966.69 308.33,-955.35 317,-948 343.48,-925.55 363.39,-948.12 393,-930 405.59,-922.3 416.94,-911.21 426.42,-899.96"/>
<polygon fill="none" stroke="#63b8ff" points="426.45,-899.92 427.06,-892.74 433.93,-890.54 433.31,-897.73 426.45,-899.92"/>
</a>
</g>
<text text-anchor="middle" x="346" y="-951" font-family="Helvetica,sans-Serif" font-size="10.00" fill="grey"> +elements</text>
</g>
<!-- Node11&#45;&gt;Node2 -->
<g id="edge11_Node000002_Node000011" class="edge">
<title>Node11&#45;&gt;Node2</title>
<g id="a_edge11_Node000002_Node000011"><a xlink:title=" ">
<path fill="none" stroke="#63b8ff" d="M450.33,-82.29C449.41,-125.04 444.29,-193.89 423,-249 414.34,-271.42 401.69,-293.72 388.15,-314.02"/>
<polygon fill="none" stroke="#63b8ff" points="388.01,-314.23 387.92,-321.44 381.23,-324.13 381.32,-316.91 388.01,-314.23"/>
</a>
</g>
<text text-anchor="middle" x="470" y="-192" font-family="Helvetica,sans-Serif" font-size="10.00" fill="grey"> #inputs</text>
<text text-anchor="middle" x="470" y="-181" font-family="Helvetica,sans-Serif" font-size="10.00" fill="grey">#outputs</text>
</g>
<!-- Node12&#45;&gt;Node11 -->
<g id="edge12_Node000011_Node000012" class="edge">
<title>Node12&#45;&gt;Node11</title>
<g id="a_edge12_Node000011_Node000012"><a xlink:title=" ">
<path fill="none" stroke="#63b8ff" d="M353.96,-158.63C367.95,-141.51 385.95,-119.51 402,-100 404.22,-97.3 406.5,-94.54 408.8,-91.75"/>
<polygon fill="none" stroke="#63b8ff" points="409.02,-91.48 409.76,-84.31 416.66,-82.23 415.93,-89.4 409.02,-91.48"/>
</a>
</g>
<text text-anchor="middle" x="419" y="-103" font-family="Helvetica,sans-Serif" font-size="10.00" fill="grey"> +keys</text>
</g>
<!-- Node13 -->
<g id="Node000013" class="node">
<title>Node13</title>
<g id="a_Node000013"><a xlink:title=" ">
<polygon fill="white" stroke="transparent" points="104,-425.5 0,-425.5 0,-376.5 104,-376.5 104,-425.5"/>
<text text-anchor="start" x="5" y="-413" font-family="Helvetica,sans-Serif" font-size="10.00">std::array&lt; int, 2 &gt;</text>
<text text-anchor="start" x="13" y="-398" font-family="Helvetica,sans-Serif" font-size="10.00">+</text>
<text text-anchor="start" x="35" y="-398" font-family="Helvetica,sans-Serif" font-size="10.00">elements</text>
<text text-anchor="start" x="50" y="-383" font-family="Helvetica,sans-Serif" font-size="10.00"> </text>
<polygon fill="#666666" stroke="#666666" points="0,-408 0,-408 104,-408 104,-408 0,-408"/>
<polygon fill="#666666" stroke="#666666" points="0,-393 0,-393 33,-393 33,-393 0,-393"/>
<polygon fill="#666666" stroke="#666666" points="33,-393 33,-393 104,-393 104,-393 33,-393"/>
<polygon fill="none" stroke="#666666" points="0,-376.5 0,-425.5 104,-425.5 104,-376.5 0,-376.5"/>
</a>
</g>
</g>
<!-- Node13&#45;&gt;Node1 -->
<g id="edge15_Node000001_Node000013" class="edge">
<title>Node13&#45;&gt;Node1</title>
<g id="a_edge15_Node000001_Node000013"><a xlink:title=" ">
<path fill="none" stroke="#63b8ff" d="M55.21,-376.03C59.73,-348.28 69.77,-301.91 90,-267 91.56,-264.32 93.23,-261.66 94.99,-259.03"/>
<polygon fill="none" stroke="#63b8ff" points="95.16,-258.79 95.44,-251.58 102.2,-249.07 101.92,-256.27 95.16,-258.79"/>
</a>
</g>
<text text-anchor="middle" x="126.5" y="-270" font-family="Helvetica,sans-Serif" font-size="10.00" fill="grey"> #kernelRange</text>
</g>
<!-- Node14 -->
<g id="Node000014" class="node">
<title>Node14</title>
<g id="a_Node000014"><a xlink:title=" ">
<polygon fill="white" stroke="transparent" points="220,-425.5 122,-425.5 122,-376.5 220,-376.5 220,-425.5"/>
<text text-anchor="start" x="127" y="-413" font-family="Helvetica,sans-Serif" font-size="10.00">std::vector&lt; int &gt;</text>
<text text-anchor="start" x="133.5" y="-398" font-family="Helvetica,sans-Serif" font-size="10.00">+</text>
<text text-anchor="start" x="154" y="-398" font-family="Helvetica,sans-Serif" font-size="10.00">elements</text>
<text text-anchor="start" x="169" y="-383" font-family="Helvetica,sans-Serif" font-size="10.00"> </text>
<polygon fill="#666666" stroke="#666666" points="122,-408 122,-408 220,-408 220,-408 122,-408"/>
<polygon fill="#666666" stroke="#666666" points="122,-393 122,-393 152,-393 152,-393 122,-393"/>
<polygon fill="#666666" stroke="#666666" points="152,-393 152,-393 220,-393 220,-393 152,-393"/>
<polygon fill="none" stroke="#666666" points="122,-376.5 122,-425.5 220,-425.5 220,-376.5 122,-376.5"/>
</a>
</g>
</g>
<!-- Node14&#45;&gt;Node1 -->
<g id="edge16_Node000001_Node000014" class="edge">
<title>Node14&#45;&gt;Node1</title>
<g id="a_edge16_Node000001_Node000014"><a xlink:title=" ">
<path fill="none" stroke="#63b8ff" d="M170.32,-376.32C169.53,-348.61 168.18,-301.45 167.04,-261.5"/>
<polygon fill="none" stroke="#63b8ff" points="167.04,-261.36 162.87,-255.48 166.7,-249.37 170.87,-255.25 167.04,-261.36"/>
</a>
</g>
<text text-anchor="middle" x="194.5" y="-270" font-family="Helvetica,sans-Serif" font-size="10.00" fill="grey"> #extIndex</text>
</g>
</g>
</svg>
