<?xml version="1.0" encoding="UTF-8" standalone="no"?>
<!DOCTYPE svg PUBLIC "-//W3C//DTD SVG 1.1//EN"
 "http://www.w3.org/Graphics/SVG/1.1/DTD/svg11.dtd">
<!-- Generated by graphviz version 2.43.0 (0)
 -->
<!-- Title: dnf_composer::element::AsymmetricGaussKernel Pages: 1 -->
<svg width="595pt" height="1289pt"
 viewBox="0.00 0.00 595.00 1289.00" xmlns="http://www.w3.org/2000/svg" xmlns:xlink="http://www.w3.org/1999/xlink">
<g id="graph0" class="graph" transform="scale(1 1) rotate(0) translate(4 1285)">
<title>dnf_composer::element::AsymmetricGaussKernel</title>
<!-- Node1 -->
<g id="Node000001" class="node">
<title>Node1</title>
<g id="a_Node000001"><a xlink:title="Spatially shifted Gaussian kernel that induces directional peak drift.">
<polygon fill="#999999" stroke="transparent" points="244.5,-150 95.5,-150 95.5,0 244.5,0 244.5,-150"/>
<text text-anchor="start" x="107" y="-138" font-family="Helvetica,sans-Serif" font-size="10.00">dnf_composer::element</text>
<text text-anchor="start" x="107" y="-127" font-family="Helvetica,sans-Serif" font-size="10.00">::AsymmetricGaussKernel</text>
<text text-anchor="start" x="168.5" y="-112" font-family="Helvetica,sans-Serif" font-size="10.00"> </text>
<text text-anchor="start" x="100" y="-97" font-family="Helvetica,sans-Serif" font-size="10.00">+</text>
<text text-anchor="start" x="113" y="-97" font-family="Helvetica,sans-Serif" font-size="10.00">AsymmetricGaussKernel()</text>
<text text-anchor="start" x="100" y="-82" font-family="Helvetica,sans-Serif" font-size="10.00">+</text>
<text text-anchor="start" x="113" y="-82" font-family="Helvetica,sans-Serif" font-size="10.00">clone()</text>
<text text-anchor="start" x="100" y="-67" font-family="Helvetica,sans-Serif" font-size="10.00">+</text>
<text text-anchor="start" x="113" y="-67" font-family="Helvetica,sans-Serif" font-size="10.00">getParameters()</text>
<text text-anchor="start" x="100" y="-52" font-family="Helvetica,sans-Serif" font-size="10.00">+</text>
<text text-anchor="start" x="113" y="-52" font-family="Helvetica,sans-Serif" font-size="10.00">init()</text>
<text text-anchor="start" x="100" y="-37" font-family="Helvetica,sans-Serif" font-size="10.00">+</text>
<text text-anchor="start" x="113" y="-37" font-family="Helvetica,sans-Serif" font-size="10.00">setParameters()</text>
<text text-anchor="start" x="100" y="-22" font-family="Helvetica,sans-Serif" font-size="10.00">+</text>
<text text-anchor="start" x="113" y="-22" font-family="Helvetica,sans-Serif" font-size="10.00">step()</text>
<text text-anchor="start" x="100" y="-7" font-family="Helvetica,sans-Serif" font-size="10.00">+</text>
<text text-anchor="start" x="113" y="-7" font-family="Helvetica,sans-Serif" font-size="10.00">toString()</text>
<polygon fill="#666666" stroke="#666666" points="96,-122 96,-122 245,-122 245,-122 96,-122"/>
<polygon fill="#666666" stroke="#666666" points="96,-107 96,-107 245,-107 245,-107 96,-107"/>
<polygon fill="none" stroke="#666666" points="95.5,0 95.5,-150 244.5,-150 244.5,0 95.5,0"/>
</a>
</g>
</g>
<!-- Node2 -->
<g id="Node000002" class="node">
<title>Node2</title>
<g id="a_Node000002"><a xlink:href="classdnf__composer_1_1element_1_1Kernel.html" target="_top" xlink:title="Abstract base class for all convolution&#45;based interaction kernels.">
<polygon fill="white" stroke="transparent" points="233,-317 107,-317 107,-197 233,-197 233,-317"/>
<text text-anchor="start" x="112" y="-305" font-family="Helvetica,sans-Serif" font-size="10.00">dnf_composer::element</text>
<text text-anchor="start" x="151.5" y="-294" font-family="Helvetica,sans-Serif" font-size="10.00">::Kernel</text>
<text text-anchor="start" x="116" y="-279" font-family="Helvetica,sans-Serif" font-size="10.00">#</text>
<text text-anchor="start" x="134" y="-279" font-family="Helvetica,sans-Serif" font-size="10.00">cutOfFactor</text>
<text text-anchor="start" x="116" y="-264" font-family="Helvetica,sans-Serif" font-size="10.00">#</text>
<text text-anchor="start" x="134" y="-264" font-family="Helvetica,sans-Serif" font-size="10.00">fullSum</text>
<text text-anchor="start" x="116" y="-249" font-family="Helvetica,sans-Serif" font-size="10.00">+</text>
<text text-anchor="start" x="134" y="-249" font-family="Helvetica,sans-Serif" font-size="10.00">getExtIndex()</text>
<text text-anchor="start" x="116" y="-234" font-family="Helvetica,sans-Serif" font-size="10.00">+</text>
<text text-anchor="start" x="134" y="-234" font-family="Helvetica,sans-Serif" font-size="10.00">getKernelRange()</text>
<text text-anchor="start" x="116" y="-219" font-family="Helvetica,sans-Serif" font-size="10.00">+</text>
<text text-anchor="start" x="134" y="-219" font-family="Helvetica,sans-Serif" font-size="10.00">Kernel()</text>
<text text-anchor="start" x="116" y="-204" font-family="Helvetica,sans-Serif" font-size="10.00">+</text>
<text text-anchor="start" x="134" y="-204" font-family="Helvetica,sans-Serif" font-size="10.00">~Kernel()</text>
<polygon fill="#666666" stroke="#666666" points="107,-289 107,-289 233,-289 233,-289 107,-289"/>
<polygon fill="#666666" stroke="#666666" points="107,-259 107,-259 132,-259 132,-259 107,-259"/>
<polygon fill="#666666" stroke="#666666" points="132,-259 132,-259 233,-259 233,-259 132,-259"/>
<polygon fill="none" stroke="#666666" points="107,-197 107,-317 233,-317 233,-197 107,-197"/>
</a>
</g>
</g>
<!-- Node2&#45;&gt;Node1 -->
<g id="edge1_Node000001_Node000002" class="edge">
<title>Node2&#45;&gt;Node1</title>
<g id="a_edge1_Node000001_Node000002"><a xlink:title=" ">
<path fill="none" stroke="#63b8ff" d="M170,-186.3C170,-174.45 170,-162.1 170,-150.14"/>
<polygon fill="none" stroke="#63b8ff" points="166.5,-186.56 170,-196.56 173.5,-186.56 166.5,-186.56"/>
</a>
</g>
</g>
<!-- Node3 -->
<g id="Node000003" class="node">
<title>Node3</title>
<g id="a_Node000003"><a xlink:href="classdnf__composer_1_1element_1_1Element.html" target="_top" xlink:title="Abstract base class for all simulation elements.">
<polygon fill="white" stroke="transparent" points="365,-574 239,-574 239,-364 365,-364 365,-574"/>
<text text-anchor="start" x="244" y="-562" font-family="Helvetica,sans-Serif" font-size="10.00">dnf_composer::element</text>
<text text-anchor="start" x="278.5" y="-551" font-family="Helvetica,sans-Serif" font-size="10.00">::Element</text>
<text text-anchor="start" x="300" y="-536" font-family="Helvetica,sans-Serif" font-size="10.00"> </text>
<text text-anchor="start" x="244" y="-521" font-family="Helvetica,sans-Serif" font-size="10.00">+</text>
<text text-anchor="start" x="258" y="-521" font-family="Helvetica,sans-Serif" font-size="10.00">addInput()</text>
<text text-anchor="start" x="244" y="-506" font-family="Helvetica,sans-Serif" font-size="10.00">+</text>
<text text-anchor="start" x="258" y="-506" font-family="Helvetica,sans-Serif" font-size="10.00">buildInputCache()</text>
<text text-anchor="start" x="244" y="-491" font-family="Helvetica,sans-Serif" font-size="10.00">+</text>
<text text-anchor="start" x="258" y="-491" font-family="Helvetica,sans-Serif" font-size="10.00">changeDimensions()</text>
<text text-anchor="start" x="244" y="-476" font-family="Helvetica,sans-Serif" font-size="10.00">+</text>
<text text-anchor="start" x="258" y="-476" font-family="Helvetica,sans-Serif" font-size="10.00">clone()</text>
<text text-anchor="start" x="244" y="-461" font-family="Helvetica,sans-Serif" font-size="10.00">+</text>
<text text-anchor="start" x="258" y="-461" font-family="Helvetica,sans-Serif" font-size="10.00">close()</text>
<text text-anchor="start" x="244" y="-446" font-family="Helvetica,sans-Serif" font-size="10.00">+</text>
<text text-anchor="start" x="258" y="-446" font-family="Helvetica,sans-Serif" font-size="10.00">Element()</text>
<text text-anchor="start" x="244" y="-431" font-family="Helvetica,sans-Serif" font-size="10.00">+</text>
<text text-anchor="start" x="258" y="-431" font-family="Helvetica,sans-Serif" font-size="10.00">getComponent()</text>
<text text-anchor="start" x="244" y="-416" font-family="Helvetica,sans-Serif" font-size="10.00">+</text>
<text text-anchor="start" x="258" y="-416" font-family="Helvetica,sans-Serif" font-size="10.00">getComponentList()</text>
<text text-anchor="start" x="244" y="-401" font-family="Helvetica,sans-Serif" font-size="10.00">+</text>
<text text-anchor="start" x="258" y="-401" font-family="Helvetica,sans-Serif" font-size="10.00">getComponentPtr()</text>
<text text-anchor="start" x="244" y="-386" font-family="Helvetica,sans-Serif" font-size="10.00">+</text>
<text text-anchor="start" x="258" y="-386" font-family="Helvetica,sans-Serif" font-size="10.00">getComponents()</text>
<text text-anchor="start" x="258" y="-371" font-family="Helvetica,sans-Serif" font-size="10.00">and 28 more...</text>
<polygon fill="#666666" stroke="#666666" points="239,-546 239,-546 365,-546 365,-546 239,-546"/>
<polygon fill="#666666" stroke="#666666" points="239,-531 239,-531 365,-531 365,-531 239,-531"/>
<polygon fill="none" stroke="#666666" points="239,-364 239,-574 365,-574 365,-364 239,-364"/>
</a>
</g>
</g>
<!-- Node3&#45;&gt;Node2 -->
<g id="edge2_Node000002_Node000003" class="edge">
<title>Node3&#45;&gt;Node2</title>
<g id="a_edge2_Node000002_Node000003"><a xlink:title=" ">
<path fill="none" stroke="#63b8ff" d="M241.67,-355.2C237.49,-348.3 233.25,-341.52 229,-335 225.14,-329.08 220.95,-323.02 216.66,-317.04"/>
<polygon fill="none" stroke="#63b8ff" points="238.79,-357.2 246.92,-363.99 244.79,-353.61 238.79,-357.2"/>
</a>
</g>
</g>
<!-- Node13 -->
<g id="Node000013" class="node">
<title>Node13</title>
<g id="a_Node000013"><a xlink:title=" ">
<polygon fill="white" stroke="transparent" points="501,-287 333,-287 333,-227 501,-227 501,-287"/>
<text text-anchor="start" x="338" y="-275" font-family="Helvetica,sans-Serif" font-size="10.00">std::shared_ptr&lt; dnf</text>
<text text-anchor="start" x="338" y="-264" font-family="Helvetica,sans-Serif" font-size="10.00">_composer::element::Element &gt;</text>
<text text-anchor="start" x="415" y="-249" font-family="Helvetica,sans-Serif" font-size="10.00"> </text>
<text text-anchor="start" x="358.5" y="-234" font-family="Helvetica,sans-Serif" font-size="10.00">+</text>
<text text-anchor="start" x="393" y="-234" font-family="Helvetica,sans-Serif" font-size="10.00">operator&#45;&gt;()</text>
<polygon fill="#666666" stroke="#666666" points="333,-259 333,-259 501,-259 501,-259 333,-259"/>
<polygon fill="#666666" stroke="#666666" points="333,-244 333,-244 501,-244 501,-244 333,-244"/>
<polygon fill="none" stroke="#666666" points="333,-227 333,-287 501,-287 501,-227 333,-227"/>
</a>
</g>
</g>
<!-- Node3&#45;&gt;Node13 -->
<g id="edge14_Node000013_Node000003" class="edge">
<title>Node3&#45;&gt;Node13</title>
<g id="a_edge14_Node000013_Node000003"><a xlink:title=" ">
<path fill="none" stroke="#63b8ff" d="M358.99,-363.92C371.93,-340.3 384.9,-316.61 395.29,-297.65"/>
<polygon fill="none" stroke="#63b8ff" points="395.32,-297.59 394.69,-290.41 401.08,-287.07 401.71,-294.25 395.32,-297.59"/>
</a>
</g>
<text text-anchor="middle" x="385.5" y="-338" font-family="Helvetica,sans-Serif" font-size="10.00" fill="grey"> +ptr</text>
</g>
<!-- Node4 -->
<g id="Node000004" class="node">
<title>Node4</title>
<g id="a_Node000004"><a xlink:title=" ">
<polygon fill="white" stroke="transparent" points="201.5,-741 76.5,-741 76.5,-681 201.5,-681 201.5,-741"/>
<text text-anchor="start" x="82" y="-729" font-family="Helvetica,sans-Serif" font-size="10.00">std::enable_shared</text>
<text text-anchor="start" x="82" y="-718" font-family="Helvetica,sans-Serif" font-size="10.00">_from_this&lt; Element &gt;</text>
<text text-anchor="start" x="137.5" y="-703" font-family="Helvetica,sans-Serif" font-size="10.00"> </text>
<text text-anchor="start" x="137.5" y="-688" font-family="Helvetica,sans-Serif" font-size="10.00"> </text>
<polygon fill="#666666" stroke="#666666" points="77,-713 77,-713 202,-713 202,-713 77,-713"/>
<polygon fill="#666666" stroke="#666666" points="77,-698 77,-698 202,-698 202,-698 77,-698"/>
<polygon fill="none" stroke="#666666" points="76.5,-681 76.5,-741 201.5,-741 201.5,-681 76.5,-681"/>
</a>
</g>
</g>
<!-- Node4&#45;&gt;Node3 -->
<g id="edge3_Node000003_Node000004" class="edge">
<title>Node4&#45;&gt;Node3</title>
<g id="a_edge3_Node000003_Node000004"><a xlink:title=" ">
<path fill="none" stroke="#63b8ff" d="M164.62,-672.28C184.53,-642.96 213.02,-601.02 238.89,-562.92"/>
<polygon fill="none" stroke="#63b8ff" points="161.71,-670.33 158.99,-680.57 167.5,-674.27 161.71,-670.33"/>
</a>
</g>
</g>
<!-- Node5 -->
<g id="Node000005" class="node">
<title>Node5</title>
<g id="a_Node000005"><a xlink:href="structdnf__composer_1_1element_1_1ElementCommonParameters.html" target="_top" xlink:title=" ">
<polygon fill="white" stroke="transparent" points="388.5,-801 219.5,-801 219.5,-621 388.5,-621 388.5,-801"/>
<text text-anchor="start" x="231" y="-789" font-family="Helvetica,sans-Serif" font-size="10.00">dnf_composer::element</text>
<text text-anchor="start" x="231" y="-778" font-family="Helvetica,sans-Serif" font-size="10.00">::ElementCommonParameters</text>
<text text-anchor="start" x="302.5" y="-763" font-family="Helvetica,sans-Serif" font-size="10.00"> </text>
<text text-anchor="start" x="224" y="-748" font-family="Helvetica,sans-Serif" font-size="10.00">+</text>
<text text-anchor="start" x="237" y="-748" font-family="Helvetica,sans-Serif" font-size="10.00">ElementCommonParameters()</text>
<text text-anchor="start" x="224" y="-733" font-family="Helvetica,sans-Serif" font-size="10.00">+</text>
<text text-anchor="start" x="237" y="-733" font-family="Helvetica,sans-Serif" font-size="10.00">ElementCommonParameters()</text>
<text text-anchor="start" x="224" y="-718" font-family="Helvetica,sans-Serif" font-size="10.00">+</text>
<text text-anchor="start" x="237" y="-718" font-family="Helvetica,sans-Serif" font-size="10.00">ElementCommonParameters()</text>
<text text-anchor="start" x="224" y="-703" font-family="Helvetica,sans-Serif" font-size="10.00">+</text>
<text text-anchor="start" x="237" y="-703" font-family="Helvetica,sans-Serif" font-size="10.00">ElementCommonParameters()</text>
<text text-anchor="start" x="224" y="-688" font-family="Helvetica,sans-Serif" font-size="10.00">+</text>
<text text-anchor="start" x="237" y="-688" font-family="Helvetica,sans-Serif" font-size="10.00">ElementCommonParameters()</text>
<text text-anchor="start" x="224" y="-673" font-family="Helvetica,sans-Serif" font-size="10.00">+</text>
<text text-anchor="start" x="237" y="-673" font-family="Helvetica,sans-Serif" font-size="10.00">ElementCommonParameters()</text>
<text text-anchor="start" x="224" y="-658" font-family="Helvetica,sans-Serif" font-size="10.00">+</text>
<text text-anchor="start" x="237" y="-658" font-family="Helvetica,sans-Serif" font-size="10.00">operator==()</text>
<text text-anchor="start" x="224" y="-643" font-family="Helvetica,sans-Serif" font-size="10.00">+</text>
<text text-anchor="start" x="237" y="-643" font-family="Helvetica,sans-Serif" font-size="10.00">print()</text>
<text text-anchor="start" x="224" y="-628" font-family="Helvetica,sans-Serif" font-size="10.00">+</text>
<text text-anchor="start" x="237" y="-628" font-family="Helvetica,sans-Serif" font-size="10.00">toString()</text>
<polygon fill="#666666" stroke="#666666" points="220,-773 220,-773 389,-773 389,-773 220,-773"/>
<polygon fill="#666666" stroke="#666666" points="220,-758 220,-758 389,-758 389,-758 220,-758"/>
<polygon fill="none" stroke="#666666" points="219.5,-621 219.5,-801 388.5,-801 388.5,-621 219.5,-621"/>
</a>
</g>
</g>
<!-- Node5&#45;&gt;Node3 -->
<g id="edge4_Node000003_Node000005" class="edge">
<title>Node5&#45;&gt;Node3</title>
<g id="a_edge4_Node000003_Node000005"><a xlink:title=" ">
<path fill="none" stroke="#63b8ff" d="M303.16,-620.96C303.1,-614.88 303.05,-608.85 303,-603 302.95,-597.59 302.91,-592.06 302.86,-586.48"/>
<polygon fill="none" stroke="#63b8ff" points="302.86,-586.19 298.81,-580.22 302.77,-574.19 306.81,-580.15 302.86,-586.19"/>
</a>
</g>
<text text-anchor="middle" x="358" y="-595" font-family="Helvetica,sans-Serif" font-size="10.00" fill="grey"> #commonParameters</text>
</g>
<!-- Node6 -->
<g id="Node000006" class="node">
<title>Node6</title>
<g id="a_Node000006"><a xlink:href="structdnf__composer_1_1element_1_1ElementIdentifiers.html" target="_top" xlink:title=" ">
<polygon fill="white" stroke="transparent" points="374,-1043 238,-1043 238,-893 374,-893 374,-1043"/>
<text text-anchor="start" x="248" y="-1031" font-family="Helvetica,sans-Serif" font-size="10.00">dnf_composer::element</text>
<text text-anchor="start" x="258" y="-1020" font-family="Helvetica,sans-Serif" font-size="10.00">::ElementIdentifiers</text>
<text text-anchor="start" x="242" y="-1005" font-family="Helvetica,sans-Serif" font-size="10.00">+</text>
<text text-anchor="start" x="255" y="-1005" font-family="Helvetica,sans-Serif" font-size="10.00">label</text>
<text text-anchor="start" x="242" y="-990" font-family="Helvetica,sans-Serif" font-size="10.00">+</text>
<text text-anchor="start" x="255" y="-990" font-family="Helvetica,sans-Serif" font-size="10.00">uniqueIdentifier</text>
<text text-anchor="start" x="242" y="-975" font-family="Helvetica,sans-Serif" font-size="10.00">+</text>
<text text-anchor="start" x="255" y="-975" font-family="Helvetica,sans-Serif" font-size="10.00">uniqueIdentifierCounter</text>
<text text-anchor="start" x="242" y="-960" font-family="Helvetica,sans-Serif" font-size="10.00">+</text>
<text text-anchor="start" x="255" y="-960" font-family="Helvetica,sans-Serif" font-size="10.00">ElementIdentifiers()</text>
<text text-anchor="start" x="242" y="-945" font-family="Helvetica,sans-Serif" font-size="10.00">+</text>
<text text-anchor="start" x="255" y="-945" font-family="Helvetica,sans-Serif" font-size="10.00">ElementIdentifiers()</text>
<text text-anchor="start" x="242" y="-930" font-family="Helvetica,sans-Serif" font-size="10.00">+</text>
<text text-anchor="start" x="255" y="-930" font-family="Helvetica,sans-Serif" font-size="10.00">operator==()</text>
<text text-anchor="start" x="242" y="-915" font-family="Helvetica,sans-Serif" font-size="10.00">+</text>
<text text-anchor="start" x="255" y="-915" font-family="Helvetica,sans-Serif" font-size="10.00">print()</text>
<text text-anchor="start" x="242" y="-900" font-family="Helvetica,sans-Serif" font-size="10.00">+</text>
<text text-anchor="start" x="255" y="-900" font-family="Helvetica,sans-Serif" font-size="10.00">toString()</text>
<polygon fill="#666666" stroke="#666666" points="238,-1015 238,-1015 374,-1015 374,-1015 238,-1015"/>
<polygon fill="#666666" stroke="#666666" points="238,-970 238,-970 253,-970 253,-970 238,-970"/>
<polygon fill="#666666" stroke="#666666" points="253,-970 253,-970 374,-970 374,-970 253,-970"/>
<polygon fill="none" stroke="#666666" points="238,-893 238,-1043 374,-1043 374,-893 238,-893"/>
</a>
</g>
</g>
<!-- Node6&#45;&gt;Node5 -->
<g id="edge5_Node000005_Node000006" class="edge">
<title>Node6&#45;&gt;Node5</title>
<g id="a_edge5_Node000005_Node000006"><a xlink:title=" ">
<path fill="none" stroke="#63b8ff" d="M305.42,-892.9C305.22,-868.03 305,-839.86 304.79,-813.28"/>
<polygon fill="none" stroke="#63b8ff" points="304.79,-813.19 300.75,-807.22 304.7,-801.19 308.75,-807.16 304.79,-813.19"/>
</a>
</g>
<text text-anchor="middle" x="334.5" y="-822" font-family="Helvetica,sans-Serif" font-size="10.00" fill="grey"> +identifiers</text>
</g>
<!-- Node7 -->
<g id="Node000007" class="node">
<title>Node7</title>
<g id="a_Node000007"><a xlink:title=" ">
<polygon fill="white" stroke="transparent" points="492.5,-1184 433.5,-1184 433.5,-1135 492.5,-1135 492.5,-1184"/>
<text text-anchor="start" x="439" y="-1171.5" font-family="Helvetica,sans-Serif" font-size="10.00">std::string</text>
<text text-anchor="start" x="461.5" y="-1156.5" font-family="Helvetica,sans-Serif" font-size="10.00"> </text>
<text text-anchor="start" x="461.5" y="-1141.5" font-family="Helvetica,sans-Serif" font-size="10.00"> </text>
<polygon fill="#666666" stroke="#666666" points="434,-1166.5 434,-1166.5 493,-1166.5 493,-1166.5 434,-1166.5"/>
<polygon fill="#666666" stroke="#666666" points="434,-1151.5 434,-1151.5 493,-1151.5 493,-1151.5 434,-1151.5"/>
<polygon fill="none" stroke="#666666" points="433.5,-1135 433.5,-1184 492.5,-1184 492.5,-1135 433.5,-1135"/>
</a>
</g>
</g>
<!-- Node7&#45;&gt;Node6 -->
<g id="edge6_Node000006_Node000007" class="edge">
<title>Node7&#45;&gt;Node6</title>
<g id="a_edge6_Node000006_Node000007"><a xlink:title=" ">
<path fill="none" stroke="#63b8ff" d="M433.24,-1149C415.98,-1142.28 394.81,-1131.81 380,-1117 362.28,-1099.28 348.05,-1076.46 336.98,-1054.06"/>
<polygon fill="none" stroke="#63b8ff" points="336.93,-1053.97 330.75,-1050.26 331.8,-1043.12 337.98,-1046.83 336.93,-1053.97"/>
</a>
</g>
<text text-anchor="middle" x="417" y="-1109" font-family="Helvetica,sans-Serif" font-size="10.00" fill="grey"> +uniqueName</text>
</g>
<!-- Node10 -->
<g id="Node000010" class="node">
<title>Node10</title>
<g id="a_Node000010"><a xlink:title=" ">
<polygon fill="white" stroke="transparent" points="500,-1003.5 392,-1003.5 392,-932.5 500,-932.5 500,-1003.5"/>
<text text-anchor="start" x="397" y="-991" font-family="Helvetica,sans-Serif" font-size="10.00">std::unordered_map</text>
<text text-anchor="start" x="397" y="-980" font-family="Helvetica,sans-Serif" font-size="10.00">&lt; std::string, std::</text>
<text text-anchor="start" x="397" y="-969" font-family="Helvetica,sans-Serif" font-size="10.00">vector&lt; double &gt; &gt;</text>
<text text-anchor="start" x="444" y="-954" font-family="Helvetica,sans-Serif" font-size="10.00"> </text>
<text text-anchor="start" x="444" y="-939" font-family="Helvetica,sans-Serif" font-size="10.00"> </text>
<polygon fill="#666666" stroke="#666666" points="392,-964 392,-964 500,-964 500,-964 392,-964"/>
<polygon fill="#666666" stroke="#666666" points="392,-949 392,-949 500,-949 500,-949 392,-949"/>
<polygon fill="none" stroke="#666666" points="392,-932.5 392,-1003.5 500,-1003.5 500,-932.5 392,-932.5"/>
</a>
</g>
</g>
<!-- Node7&#45;&gt;Node10 -->
<g id="edge10_Node000010_Node000007" class="edge">
<title>Node7&#45;&gt;Node10</title>
<g id="a_edge10_Node000010_Node000007"><a xlink:title=" ">
<path fill="none" stroke="#63b8ff" d="M460.88,-1134.88C458.22,-1105.2 453.59,-1053.57 450.2,-1015.77"/>
<polygon fill="none" stroke="#63b8ff" points="450.17,-1015.49 445.65,-1009.87 449.1,-1003.53 453.62,-1009.15 450.17,-1015.49"/>
</a>
</g>
<text text-anchor="middle" x="475" y="-1109" font-family="Helvetica,sans-Serif" font-size="10.00" fill="grey"> +keys</text>
</g>
<!-- Node12 -->
<g id="Node000012" class="node">
<title>Node12</title>
<g id="a_Node000012"><a xlink:title=" ">
<polygon fill="white" stroke="transparent" points="495.5,-116 338.5,-116 338.5,-34 495.5,-34 495.5,-116"/>
<text text-anchor="start" x="344" y="-104" font-family="Helvetica,sans-Serif" font-size="10.00">std::unordered_map</text>
<text text-anchor="start" x="344" y="-93" font-family="Helvetica,sans-Serif" font-size="10.00">&lt; std::shared_ptr&lt; dnf</text>
<text text-anchor="start" x="344" y="-82" font-family="Helvetica,sans-Serif" font-size="10.00">_composer::element::Element</text>
<text text-anchor="start" x="378.5" y="-71" font-family="Helvetica,sans-Serif" font-size="10.00"> &gt;, std::string &gt;</text>
<text text-anchor="start" x="415.5" y="-56" font-family="Helvetica,sans-Serif" font-size="10.00"> </text>
<text text-anchor="start" x="415.5" y="-41" font-family="Helvetica,sans-Serif" font-size="10.00"> </text>
<polygon fill="#666666" stroke="#666666" points="339,-66 339,-66 496,-66 496,-66 339,-66"/>
<polygon fill="#666666" stroke="#666666" points="339,-51 339,-51 496,-51 496,-51 339,-51"/>
<polygon fill="none" stroke="#666666" points="338.5,-34 338.5,-116 495.5,-116 495.5,-34 338.5,-34"/>
</a>
</g>
</g>
<!-- Node7&#45;&gt;Node12 -->
<g id="edge15_Node000012_Node000007" class="edge">
<title>Node7&#45;&gt;Node12</title>
<g id="a_edge15_Node000012_Node000007"><a xlink:title=" ">
<path fill="none" stroke="#63b8ff" d="M483.61,-1134.67C487.98,-1129.06 492.36,-1122.98 496,-1117 531.03,-1059.43 529,-1036.39 529,-969 529,-969 529,-969 529,-256 529,-206.38 497.93,-159.1 468.53,-125.45"/>
<polygon fill="none" stroke="#63b8ff" points="468.34,-125.25 461.35,-123.47 460.3,-116.34 467.29,-118.11 468.34,-125.25"/>
</a>
</g>
<text text-anchor="middle" x="558" y="-595" font-family="Helvetica,sans-Serif" font-size="10.00" fill="grey"> +elements</text>
</g>
<!-- Node8 -->
<g id="Node000008" class="node">
<title>Node8</title>
<g id="a_Node000008"><a xlink:title=" ">
<polygon fill="white" stroke="transparent" points="512,-1281 414,-1281 414,-1221 512,-1221 512,-1281"/>
<text text-anchor="start" x="419" y="-1269" font-family="Helvetica,sans-Serif" font-size="10.00">std::basic_string&lt;</text>
<text text-anchor="start" x="444.5" y="-1258" font-family="Helvetica,sans-Serif" font-size="10.00"> Char &gt;</text>
<text text-anchor="start" x="461" y="-1243" font-family="Helvetica,sans-Serif" font-size="10.00"> </text>
<text text-anchor="start" x="461" y="-1228" font-family="Helvetica,sans-Serif" font-size="10.00"> </text>
<polygon fill="#666666" stroke="#666666" points="414,-1253 414,-1253 512,-1253 512,-1253 414,-1253"/>
<polygon fill="#666666" stroke="#666666" points="414,-1238 414,-1238 512,-1238 512,-1238 414,-1238"/>
<polygon fill="none" stroke="#666666" points="414,-1221 414,-1281 512,-1281 512,-1221 414,-1221"/>
</a>
</g>
</g>
<!-- Node8&#45;&gt;Node7 -->
<g id="edge7_Node000007_Node000008" class="edge">
<title>Node8&#45;&gt;Node7</title>
<g id="a_edge7_Node000007_Node000008"><a xlink:title=" ">
<path fill="none" stroke="#63b8ff" d="M463,-1210.41C463,-1201.47 463,-1192.25 463,-1184.21"/>
<polygon fill="none" stroke="#63b8ff" points="459.5,-1210.69 463,-1220.69 466.5,-1210.69 459.5,-1210.69"/>
</a>
</g>
</g>
<!-- Node9 -->
<g id="Node000009" class="node">
<title>Node9</title>
<g id="a_Node000009"><a xlink:href="structdnf__composer_1_1element_1_1ElementDimensions.html" target="_top" xlink:title=" ">
<polygon fill="white" stroke="transparent" points="219.5,-1088 92.5,-1088 92.5,-848 219.5,-848 219.5,-1088"/>
<text text-anchor="start" x="98.5" y="-1076" font-family="Helvetica,sans-Serif" font-size="10.00">dnf_composer::element</text>
<text text-anchor="start" x="104" y="-1065" font-family="Helvetica,sans-Serif" font-size="10.00">::ElementDimensions</text>
<text text-anchor="start" x="97" y="-1050" font-family="Helvetica,sans-Serif" font-size="10.00">+</text>
<text text-anchor="start" x="110" y="-1050" font-family="Helvetica,sans-Serif" font-size="10.00">d_x</text>
<text text-anchor="start" x="97" y="-1035" font-family="Helvetica,sans-Serif" font-size="10.00">+</text>
<text text-anchor="start" x="110" y="-1035" font-family="Helvetica,sans-Serif" font-size="10.00">d_y</text>
<text text-anchor="start" x="97" y="-1020" font-family="Helvetica,sans-Serif" font-size="10.00">+</text>
<text text-anchor="start" x="110" y="-1020" font-family="Helvetica,sans-Serif" font-size="10.00">dimensionality</text>
<text text-anchor="start" x="97" y="-1005" font-family="Helvetica,sans-Serif" font-size="10.00">+</text>
<text text-anchor="start" x="110" y="-1005" font-family="Helvetica,sans-Serif" font-size="10.00">size</text>
<text text-anchor="start" x="97" y="-990" font-family="Helvetica,sans-Serif" font-size="10.00">+</text>
<text text-anchor="start" x="110" y="-990" font-family="Helvetica,sans-Serif" font-size="10.00">size_x</text>
<text text-anchor="start" x="97" y="-975" font-family="Helvetica,sans-Serif" font-size="10.00">+</text>
<text text-anchor="start" x="110" y="-975" font-family="Helvetica,sans-Serif" font-size="10.00">size_y</text>
<text text-anchor="start" x="97" y="-960" font-family="Helvetica,sans-Serif" font-size="10.00">+</text>
<text text-anchor="start" x="110" y="-960" font-family="Helvetica,sans-Serif" font-size="10.00">x_max</text>
<text text-anchor="start" x="97" y="-945" font-family="Helvetica,sans-Serif" font-size="10.00">+</text>
<text text-anchor="start" x="110" y="-945" font-family="Helvetica,sans-Serif" font-size="10.00">y_max</text>
<text text-anchor="start" x="97" y="-930" font-family="Helvetica,sans-Serif" font-size="10.00">+</text>
<text text-anchor="start" x="110" y="-930" font-family="Helvetica,sans-Serif" font-size="10.00">ElementDimensions()</text>
<text text-anchor="start" x="97" y="-915" font-family="Helvetica,sans-Serif" font-size="10.00">+</text>
<text text-anchor="start" x="110" y="-915" font-family="Helvetica,sans-Serif" font-size="10.00">ElementDimensions()</text>
<text text-anchor="start" x="97" y="-900" font-family="Helvetica,sans-Serif" font-size="10.00">+</text>
<text text-anchor="start" x="110" y="-900" font-family="Helvetica,sans-Serif" font-size="10.00">ElementDimensions()</text>
<text text-anchor="start" x="97" y="-885" font-family="Helvetica,sans-Serif" font-size="10.00">+</text>
<text text-anchor="start" x="110" y="-885" font-family="Helvetica,sans-Serif" font-size="10.00">operator==()</text>
<text text-anchor="start" x="97" y="-870" font-family="Helvetica,sans-Serif" font-size="10.00">+</text>
<text text-anchor="start" x="110" y="-870" font-family="Helvetica,sans-Serif" font-size="10.00">print()</text>
<text text-anchor="start" x="97" y="-855" font-family="Helvetica,sans-Serif" font-size="10.00">+</text>
<text text-anchor="start" x="110" y="-855" font-family="Helvetica,sans-Serif" font-size="10.00">toString()</text>
<polygon fill="#666666" stroke="#666666" points="93,-1060 93,-1060 220,-1060 220,-1060 93,-1060"/>
<polygon fill="#666666" stroke="#666666" points="93,-940 93,-940 108,-940 108,-940 93,-940"/>
<polygon fill="#666666" stroke="#666666" points="108,-940 108,-940 220,-940 220,-940 108,-940"/>
<polygon fill="none" stroke="#666666" points="92.5,-848 92.5,-1088 219.5,-1088 219.5,-848 92.5,-848"/>
</a>
</g>
</g>
<!-- Node9&#45;&gt;Node5 -->
<g id="edge8_Node000005_Node000009" class="edge">
<title>Node9&#45;&gt;Node5</title>
<g id="a_edge8_Node000005_Node000009"><a xlink:title=" ">
<path fill="none" stroke="#63b8ff" d="M167.53,-847.92C171.27,-837.68 176.01,-827.86 182,-819 188.97,-808.69 195.95,-809.44 209.54,-801.17"/>
<polygon fill="none" stroke="#63b8ff" points="209.65,-801.09 212.29,-794.38 219.5,-794.22 216.86,-800.94 209.65,-801.09"/>
</a>
</g>
<text text-anchor="middle" x="241" y="-822" font-family="Helvetica,sans-Serif" font-size="10.00" fill="grey"> +dimensionParameters</text>
</g>
<!-- Node10&#45;&gt;Node3 -->
<g id="edge9_Node000003_Node000010" class="edge">
<title>Node10&#45;&gt;Node3</title>
<g id="a_edge9_Node000003_Node000010"><a xlink:title=" ">
<path fill="none" stroke="#63b8ff" d="M445.75,-932.35C444.74,-851.48 439.53,-652.53 413,-592 403.65,-570.67 389.04,-550.58 373.46,-533.1"/>
<polygon fill="none" stroke="#63b8ff" points="373.38,-533.01 366.37,-531.32 365.24,-524.2 372.25,-525.89 373.38,-533.01"/>
</a>
</g>
<text text-anchor="middle" x="477" y="-708.5" font-family="Helvetica,sans-Serif" font-size="10.00" fill="grey"> #components</text>
</g>
<!-- Node11 -->
<g id="Node000011" class="node">
<title>Node11</title>
<g id="a_Node000011"><a xlink:title=" ">
<polygon fill="white" stroke="transparent" points="344,-1184 226,-1184 226,-1135 344,-1135 344,-1184"/>
<text text-anchor="start" x="231" y="-1171.5" font-family="Helvetica,sans-Serif" font-size="10.00">std::vector&lt; double &gt;</text>
<text text-anchor="start" x="242.5" y="-1156.5" font-family="Helvetica,sans-Serif" font-size="10.00">+</text>
<text text-anchor="start" x="268" y="-1156.5" font-family="Helvetica,sans-Serif" font-size="10.00">elements</text>
<text text-anchor="start" x="283" y="-1141.5" font-family="Helvetica,sans-Serif" font-size="10.00"> </text>
<polygon fill="#666666" stroke="#666666" points="226,-1166.5 226,-1166.5 344,-1166.5 344,-1166.5 226,-1166.5"/>
<polygon fill="#666666" stroke="#666666" points="226,-1151.5 226,-1151.5 266,-1151.5 266,-1151.5 226,-1151.5"/>
<polygon fill="#666666" stroke="#666666" points="266,-1151.5 266,-1151.5 344,-1151.5 344,-1151.5 266,-1151.5"/>
<polygon fill="none" stroke="#666666" points="226,-1135 226,-1184 344,-1184 344,-1135 226,-1135"/>
</a>
</g>
</g>
<!-- Node11&#45;&gt;Node10 -->
<g id="edge11_Node000010_Node000011" class="edge">
<title>Node11&#45;&gt;Node10</title>
<g id="a_edge11_Node000010_Node000011"><a xlink:title=" ">
<path fill="none" stroke="#63b8ff" d="M290.26,-1134.95C293.69,-1124.68 299.22,-1113.34 308,-1106 334.29,-1084 355.91,-1109.01 383,-1088 406.52,-1069.76 422.23,-1040.22 432.08,-1015.14"/>
<polygon fill="none" stroke="#63b8ff" points="432.17,-1014.88 430.5,-1007.87 436.32,-1003.62 438,-1010.63 432.17,-1014.88"/>
</a>
</g>
<text text-anchor="middle" x="337" y="-1109" font-family="Helvetica,sans-Serif" font-size="10.00" fill="grey"> +elements</text>
</g>
<!-- Node12&#45;&gt;Node3 -->
<g id="edge12_Node000003_Node000012" class="edge">
<title>Node12&#45;&gt;Node3</title>
<g id="a_edge12_Node000003_Node000012"><a xlink:title=" ">
<path fill="none" stroke="#63b8ff" d="M349.73,-116.02C322.08,-136.42 293.05,-163.95 278,-197 256.21,-244.86 257.91,-302.34 266.79,-352.02"/>
<polygon fill="none" stroke="#63b8ff" points="266.79,-352.03 271.85,-357.17 269.06,-363.81 264,-358.68 266.79,-352.03"/>
</a>
</g>
<text text-anchor="middle" x="301" y="-260" font-family="Helvetica,sans-Serif" font-size="10.00" fill="grey"> #inputs</text>
<text text-anchor="middle" x="301" y="-249" font-family="Helvetica,sans-Serif" font-size="10.00" fill="grey">#outputs</text>
</g>
<!-- Node13&#45;&gt;Node12 -->
<g id="edge13_Node000012_Node000013" class="edge">
<title>Node13&#45;&gt;Node12</title>
<g id="a_edge13_Node000012_Node000013"><a xlink:title=" ">
<path fill="none" stroke="#63b8ff" d="M417,-226.68C417,-200.12 417,-160.36 417,-128.36"/>
<polygon fill="none" stroke="#63b8ff" points="417,-128.07 413,-122.07 417,-116.07 421,-122.07 417,-128.07"/>
</a>
</g>
<text text-anchor="middle" x="434" y="-171" font-family="Helvetica,sans-Serif" font-size="10.00" fill="grey"> +keys</text>
</g>
<!-- Node14 -->
<g id="Node000014" class="node">
<title>Node14</title>
<g id="a_Node000014"><a xlink:title=" ">
<polygon fill="white" stroke="transparent" points="104,-493.5 0,-493.5 0,-444.5 104,-444.5 104,-493.5"/>
<text text-anchor="start" x="5" y="-481" font-family="Helvetica,sans-Serif" font-size="10.00">std::array&lt; int, 2 &gt;</text>
<text text-anchor="start" x="13" y="-466" font-family="Helvetica,sans-Serif" font-size="10.00">+</text>
<text text-anchor="start" x="35" y="-466" font-family="Helvetica,sans-Serif" font-size="10.00">elements</text>
<text text-anchor="start" x="50" y="-451" font-family="Helvetica,sans-Serif" font-size="10.00"> </text>
<polygon fill="#666666" stroke="#666666" points="0,-476 0,-476 104,-476 104,-476 0,-476"/>
<polygon fill="#666666" stroke="#666666" points="0,-461 0,-461 33,-461 33,-461 0,-461"/>
<polygon fill="#666666" stroke="#666666" points="33,-461 33,-461 104,-461 104,-461 33,-461"/>
<polygon fill="none" stroke="#666666" points="0,-444.5 0,-493.5 104,-493.5 104,-444.5 0,-444.5"/>
</a>
</g>
</g>
<!-- Node14&#45;&gt;Node2 -->
<g id="edge16_Node000002_Node000014" class="edge">
<title>Node14&#45;&gt;Node2</title>
<g id="a_edge16_Node000002_Node000014"><a xlink:title=" ">
<path fill="none" stroke="#63b8ff" d="M55.69,-444.48C60.81,-416.74 71.93,-369.98 93,-335 94.94,-331.78 97.04,-328.6 99.26,-325.47"/>
<polygon fill="none" stroke="#63b8ff" points="99.47,-325.2 99.94,-318 106.76,-315.66 106.29,-322.85 99.47,-325.2"/>
</a>
</g>
<text text-anchor="middle" x="129.5" y="-338" font-family="Helvetica,sans-Serif" font-size="10.00" fill="grey"> #kernelRange</text>
</g>
<!-- Node15 -->
<g id="Node000015" class="node">
<title>Node15</title>
<g id="a_Node000015"><a xlink:title=" ">
<polygon fill="white" stroke="transparent" points="220,-493.5 122,-493.5 122,-444.5 220,-444.5 220,-493.5"/>
<text text-anchor="start" x="127" y="-481" font-family="Helvetica,sans-Serif" font-size="10.00">std::vector&lt; int &gt;</text>
<text text-anchor="start" x="133.5" y="-466" font-family="Helvetica,sans-Serif" font-size="10.00">+</text>
<text text-anchor="start" x="154" y="-466" font-family="Helvetica,sans-Serif" font-size="10.00">elements</text>
<text text-anchor="start" x="169" y="-451" font-family="Helvetica,sans-Serif" font-size="10.00"> </text>
<polygon fill="#666666" stroke="#666666" points="122,-476 122,-476 220,-476 220,-476 122,-476"/>
<polygon fill="#666666" stroke="#666666" points="122,-461 122,-461 152,-461 152,-461 122,-461"/>
<polygon fill="#666666" stroke="#666666" points="152,-461 152,-461 220,-461 220,-461 152,-461"/>
<polygon fill="none" stroke="#666666" points="122,-444.5 122,-493.5 220,-493.5 220,-444.5 122,-444.5"/>
</a>
</g>
</g>
<!-- Node15&#45;&gt;Node2 -->
<g id="edge17_Node000002_Node000015" class="edge">
<title>Node15&#45;&gt;Node2</title>
<g id="a_edge17_Node000002_Node000015"><a xlink:title=" ">
<path fill="none" stroke="#63b8ff" d="M170.89,-444.32C170.76,-416.61 170.53,-369.45 170.34,-329.5"/>
<polygon fill="none" stroke="#63b8ff" points="170.34,-329.37 166.31,-323.39 170.28,-317.37 174.31,-323.35 170.34,-329.37"/>
</a>
</g>
<text text-anchor="middle" x="197.5" y="-338" font-family="Helvetica,sans-Serif" font-size="10.00" fill="grey"> #extIndex</text>
</g>
</g>
</svg>
