<?xml version="1.0" encoding="UTF-8" standalone="no"?>
<!DOCTYPE svg PUBLIC "-//W3C//DTD SVG 1.1//EN"
 "http://www.w3.org/Graphics/SVG/1.1/DTD/svg11.dtd">
<!-- Generated by graphviz version 2.43.0 (0)
 -->
<!-- Title: dnf_composer::user_interface::SimulationWindow::renderLogElementParametersCard Pages: 1 -->
<svg width="545pt" height="86pt"
 viewBox="0.00 0.00 545.00 86.00" xmlns="http://www.w3.org/2000/svg" xmlns:xlink="http://www.w3.org/1999/xlink">
<g id="graph0" class="graph" transform="scale(1 1) rotate(0) translate(4 82)">
<title>dnf_composer::user_interface::SimulationWindow::renderLogElementParametersCard</title>
<!-- Node1 -->
<g id="Node000001" class="node">
<title>Node1</title>
<g id="a_Node000001"><a xlink:title=" ">
<polygon fill="#999999" stroke="#666666" points="190,-59.5 0,-59.5 0,-18.5 190,-18.5 190,-59.5"/>
<text text-anchor="start" x="8" y="-47.5" font-family="Helvetica,sans-Serif" font-size="10.00">dnf_composer::user</text>
<text text-anchor="start" x="8" y="-36.5" font-family="Helvetica,sans-Serif" font-size="10.00">_interface::SimulationWindow</text>
<text text-anchor="middle" x="95" y="-25.5" font-family="Helvetica,sans-Serif" font-size="10.00">::renderLogElementParametersCard</text>
</a>
</g>
</g>
<!-- Node2 -->
<g id="Node000002" class="node">
<title>Node2</title>
<g id="a_Node000002"><a xlink:href="namespacednf__composer_1_1element.html#a55b0e0fb6529de014e86fa1380005bba" target="_top" xlink:title="Category info for a label, or an UNKNOWN/grey fallback.">
<polygon fill="white" stroke="#666666" points="368,-78 226,-78 226,-48 368,-48 368,-78"/>
<text text-anchor="start" x="234" y="-66" font-family="Helvetica,sans-Serif" font-size="10.00">dnf_composer::element</text>
<text text-anchor="middle" x="297" y="-55" font-family="Helvetica,sans-Serif" font-size="10.00">::getElementCategoryInfo</text>
</a>
</g>
</g>
<!-- Node1&#45;&gt;Node2 -->
<g id="edge1_Node000001_Node000002" class="edge">
<title>Node1&#45;&gt;Node2</title>
<g id="a_edge1_Node000001_Node000002"><a xlink:title=" ">
<path fill="none" stroke="#63b8ff" d="M190.14,-50.3C198.72,-51.33 207.34,-52.36 215.78,-53.37"/>
<polygon fill="#63b8ff" stroke="#63b8ff" points="215.61,-56.88 225.95,-54.59 216.44,-49.93 215.61,-56.88"/>
</a>
</g>
</g>
<!-- Node4 -->
<g id="Node000004" class="node">
<title>Node4</title>
<g id="a_Node000004"><a xlink:href="namespacednf__composer_1_1tools_1_1logger.html#af64ef64b3026606a73972fdcae2ca87a" target="_top" xlink:title=" ">
<polygon fill="white" stroke="#666666" points="355,-30 239,-30 239,0 355,0 355,-30"/>
<text text-anchor="start" x="247" y="-18" font-family="Helvetica,sans-Serif" font-size="10.00">dnf_composer::tools</text>
<text text-anchor="middle" x="297" y="-7" font-family="Helvetica,sans-Serif" font-size="10.00">::logger::log</text>
</a>
</g>
</g>
<!-- Node1&#45;&gt;Node4 -->
<g id="edge3_Node000001_Node000004" class="edge">
<title>Node1&#45;&gt;Node4</title>
<g id="a_edge3_Node000001_Node000004"><a xlink:title=" ">
<path fill="none" stroke="#63b8ff" d="M190.14,-27.7C203.12,-26.15 216.24,-24.57 228.6,-23.09"/>
<polygon fill="#63b8ff" stroke="#63b8ff" points="229.29,-26.53 238.8,-21.86 228.45,-19.58 229.29,-26.53"/>
</a>
</g>
</g>
<!-- Node3 -->
<g id="Node000003" class="node">
<title>Node3</title>
<g id="a_Node000003"><a xlink:href="namespacednf__composer_1_1element.html#add3a3ba11f87c3c31b3060e2bb378635" target="_top" xlink:title="Maps every ElementLabel to its category info. The one place UI panels resolve an element&#39;s type/categ...">
<polygon fill="white" stroke="#666666" points="537,-78 404,-78 404,-48 537,-48 537,-78"/>
<text text-anchor="start" x="412" y="-66" font-family="Helvetica,sans-Serif" font-size="10.00">dnf_composer::element</text>
<text text-anchor="middle" x="470.5" y="-55" font-family="Helvetica,sans-Serif" font-size="10.00">::elementCategoryTable</text>
</a>
</g>
</g>
<!-- Node2&#45;&gt;Node3 -->
<g id="edge2_Node000002_Node000003" class="edge">
<title>Node2&#45;&gt;Node3</title>
<g id="a_edge2_Node000002_Node000003"><a xlink:title=" ">
<path fill="none" stroke="#63b8ff" d="M368.25,-63C376.6,-63 385.16,-63 393.58,-63"/>
<polygon fill="#63b8ff" stroke="#63b8ff" points="393.78,-66.5 403.78,-63 393.78,-59.5 393.78,-66.5"/>
</a>
</g>
</g>
</g>
</svg>
