<?xml version="1.0" encoding="UTF-8" standalone="no"?>
<!DOCTYPE svg PUBLIC "-//W3C//DTD SVG 1.1//EN"
 "http://www.w3.org/Graphics/SVG/1.1/DTD/svg11.dtd">
<!-- Generated by graphviz version 2.43.0 (0)
 -->
<!-- Title: dnf_composer::element::NeuralField::updateMinMaxActivation Pages: 1 -->
<svg width="512pt" height="49pt"
 viewBox="0.00 0.00 512.00 49.00" xmlns="http://www.w3.org/2000/svg" xmlns:xlink="http://www.w3.org/1999/xlink">
<g id="graph0" class="graph" transform="scale(1 1) rotate(0) translate(4 45)">
<title>dnf_composer::element::NeuralField::updateMinMaxActivation</title>
<!-- Node1 -->
<g id="Node000001" class="node">
<title>Node1</title>
<g id="a_Node000001"><a xlink:title=" ">
<polygon fill="#999999" stroke="#666666" points="504,-41 347,-41 347,0 504,0 504,-41"/>
<text text-anchor="start" x="355" y="-29" font-family="Helvetica,sans-Serif" font-size="10.00">dnf_composer::element</text>
<text text-anchor="start" x="355" y="-18" font-family="Helvetica,sans-Serif" font-size="10.00">::NeuralField::updateMinMax</text>
<text text-anchor="middle" x="425.5" y="-7" font-family="Helvetica,sans-Serif" font-size="10.00">Activation</text>
</a>
</g>
</g>
<!-- Node2 -->
<g id="Node000002" class="node">
<title>Node2</title>
<g id="a_Node000002"><a xlink:href="classdnf__composer_1_1element_1_1NeuralField.html#a6656f6846ca05bcf2a66394833e0170e" target="_top" xlink:title=" ">
<polygon fill="white" stroke="#666666" points="311,-35.5 168,-35.5 168,-5.5 311,-5.5 311,-35.5"/>
<text text-anchor="start" x="176" y="-23.5" font-family="Helvetica,sans-Serif" font-size="10.00">dnf_composer::element</text>
<text text-anchor="middle" x="239.5" y="-12.5" font-family="Helvetica,sans-Serif" font-size="10.00">::NeuralField::updateState</text>
</a>
</g>
</g>
<!-- Node1&#45;&gt;Node2 -->
<g id="edge1_Node000001_Node000002" class="edge">
<title>Node1&#45;&gt;Node2</title>
<g id="a_edge1_Node000001_Node000002"><a xlink:title=" ">
<path fill="none" stroke="#63b8ff" d="M336.47,-20.5C328.02,-20.5 319.52,-20.5 311.27,-20.5"/>
<polygon fill="#63b8ff" stroke="#63b8ff" points="336.73,-24 346.73,-20.5 336.73,-17 336.73,-24"/>
</a>
</g>
</g>
<!-- Node3 -->
<g id="Node000003" class="node">
<title>Node3</title>
<g id="a_Node000003"><a xlink:href="classdnf__composer_1_1element_1_1NeuralField.html#a06d26adf22e574e2b6c8589c0d4f996e" target="_top" xlink:title="Advance the element by one time step.">
<polygon fill="white" stroke="#666666" points="132,-35.5 0,-35.5 0,-5.5 132,-5.5 132,-35.5"/>
<text text-anchor="start" x="8" y="-23.5" font-family="Helvetica,sans-Serif" font-size="10.00">dnf_composer::element</text>
<text text-anchor="middle" x="66" y="-12.5" font-family="Helvetica,sans-Serif" font-size="10.00">::NeuralField::step</text>
</a>
</g>
</g>
<!-- Node2&#45;&gt;Node3 -->
<g id="edge2_Node000002_Node000003" class="edge">
<title>Node2&#45;&gt;Node3</title>
<g id="a_edge2_Node000002_Node000003"><a xlink:title=" ">
<path fill="none" stroke="#63b8ff" d="M157.72,-20.5C149.12,-20.5 140.46,-20.5 132.08,-20.5"/>
<polygon fill="#63b8ff" stroke="#63b8ff" points="157.75,-24 167.75,-20.5 157.75,-17 157.75,-24"/>
</a>
</g>
</g>
</g>
</svg>
