<?xml version="1.0" encoding="UTF-8" standalone="no"?>
<!DOCTYPE svg PUBLIC "-//W3C//DTD SVG 1.1//EN"
 "http://www.w3.org/Graphics/SVG/1.1/DTD/svg11.dtd">
<!-- Generated by graphviz version 2.43.0 (0)
 -->
<!-- Title: dnf_composer::Simulation::runForRealTime Pages: 1 -->
<svg width="692pt" height="225pt"
 viewBox="0.00 0.00 692.00 225.00" xmlns="http://www.w3.org/2000/svg" xmlns:xlink="http://www.w3.org/1999/xlink">
<g id="graph0" class="graph" transform="scale(1 1) rotate(0) translate(4 221)">
<title>dnf_composer::Simulation::runForRealTime</title>
<!-- Node1 -->
<g id="Node000001" class="node">
<title>Node1</title>
<g id="a_Node000001"><a xlink:title="Run the simulation in real&#45;time for milliseconds wall&#45;clock ms.">
<polygon fill="#999999" stroke="#666666" points="144,-112 0,-112 0,-82 144,-82 144,-112"/>
<text text-anchor="start" x="8" y="-100" font-family="Helvetica,sans-Serif" font-size="10.00">dnf_composer::Simulation</text>
<text text-anchor="middle" x="72" y="-89" font-family="Helvetica,sans-Serif" font-size="10.00">::runForRealTime</text>
</a>
</g>
</g>
<!-- Node2 -->
<g id="Node000002" class="node">
<title>Node2</title>
<g id="a_Node000002"><a xlink:href="classdnf__composer_1_1Simulation.html#a62cc626df0de91c4eef6db88e34a6080" target="_top" xlink:title="Release resources of all elements and reset timing state.">
<polygon fill="white" stroke="#666666" points="324,-169 180,-169 180,-139 324,-139 324,-169"/>
<text text-anchor="start" x="188" y="-157" font-family="Helvetica,sans-Serif" font-size="10.00">dnf_composer::Simulation</text>
<text text-anchor="middle" x="252" y="-146" font-family="Helvetica,sans-Serif" font-size="10.00">::close</text>
</a>
</g>
</g>
<!-- Node1&#45;&gt;Node2 -->
<g id="edge1_Node000001_Node000002" class="edge">
<title>Node1&#45;&gt;Node2</title>
<g id="a_edge1_Node000001_Node000002"><a xlink:title=" ">
<path fill="none" stroke="#63b8ff" d="M120.23,-112.13C142.95,-119.4 170.37,-128.18 194.22,-135.82"/>
<polygon fill="#63b8ff" stroke="#63b8ff" points="193.26,-139.19 203.85,-138.9 195.4,-132.52 193.26,-139.19"/>
</a>
</g>
</g>
<!-- Node5 -->
<g id="Node000005" class="node">
<title>Node5</title>
<g id="a_Node000005"><a xlink:href="classdnf__composer_1_1Simulation.html#aa3419352b0706f0ba4c85781b8aa32ae" target="_top" xlink:title="Initialize all registered elements. Must be called before step().">
<polygon fill="white" stroke="#666666" points="324,-112 180,-112 180,-82 324,-82 324,-112"/>
<text text-anchor="start" x="188" y="-100" font-family="Helvetica,sans-Serif" font-size="10.00">dnf_composer::Simulation</text>
<text text-anchor="middle" x="252" y="-89" font-family="Helvetica,sans-Serif" font-size="10.00">::init</text>
</a>
</g>
</g>
<!-- Node1&#45;&gt;Node5 -->
<g id="edge4_Node000001_Node000005" class="edge">
<title>Node1&#45;&gt;Node5</title>
<g id="a_edge4_Node000001_Node000005"><a xlink:title=" ">
<path fill="none" stroke="#63b8ff" d="M144.12,-97C152.61,-97 161.33,-97 169.94,-97"/>
<polygon fill="#63b8ff" stroke="#63b8ff" points="170,-100.5 180,-97 170,-93.5 170,-100.5"/>
</a>
</g>
</g>
<!-- Node8 -->
<g id="Node000008" class="node">
<title>Node8</title>
<g id="a_Node000008"><a xlink:href="classdnf__composer_1_1Simulation.html#aeed960786dc5ee998232e105af74ae0c" target="_top" xlink:title="Advance all elements by one deltaT.">
<polygon fill="white" stroke="#666666" points="324,-45 180,-45 180,-15 324,-15 324,-45"/>
<text text-anchor="start" x="188" y="-33" font-family="Helvetica,sans-Serif" font-size="10.00">dnf_composer::Simulation</text>
<text text-anchor="middle" x="252" y="-22" font-family="Helvetica,sans-Serif" font-size="10.00">::step</text>
</a>
</g>
</g>
<!-- Node1&#45;&gt;Node8 -->
<g id="edge7_Node000001_Node000008" class="edge">
<title>Node1&#45;&gt;Node8</title>
<g id="a_edge7_Node000001_Node000008"><a xlink:title=" ">
<path fill="none" stroke="#63b8ff" d="M112.95,-81.96C139.08,-72.13 173.41,-59.2 201.31,-48.7"/>
<polygon fill="#63b8ff" stroke="#63b8ff" points="202.75,-51.9 210.88,-45.1 200.29,-45.35 202.75,-51.9"/>
</a>
</g>
</g>
<!-- Node3 -->
<g id="Node000003" class="node">
<title>Node3</title>
<g id="a_Node000003"><a xlink:href="classdnf__composer_1_1Simulation.html#a19103585fab0d6a554634db1cd33b1bb" target="_top" xlink:title="Pause the simulation (subsequent step() calls are no&#45;ops).">
<polygon fill="white" stroke="#666666" points="504,-217 360,-217 360,-187 504,-187 504,-217"/>
<text text-anchor="start" x="368" y="-205" font-family="Helvetica,sans-Serif" font-size="10.00">dnf_composer::Simulation</text>
<text text-anchor="middle" x="432" y="-194" font-family="Helvetica,sans-Serif" font-size="10.00">::pause</text>
</a>
</g>
</g>
<!-- Node2&#45;&gt;Node3 -->
<g id="edge2_Node000002_Node000003" class="edge">
<title>Node2&#45;&gt;Node3</title>
<g id="a_edge2_Node000002_Node000003"><a xlink:title=" ">
<path fill="none" stroke="#63b8ff" d="M308.83,-169.06C326.81,-173.9 346.89,-179.32 365.5,-184.34"/>
<polygon fill="#63b8ff" stroke="#63b8ff" points="364.8,-187.77 375.37,-187 366.62,-181.01 364.8,-187.77"/>
</a>
</g>
</g>
<!-- Node4 -->
<g id="Node000004" class="node">
<title>Node4</title>
<g id="a_Node000004"><a xlink:href="classdnf__composer_1_1SimulationRecorder.html#a691afc08bae84b7b8d21a30801acd96b" target="_top" xlink:title="Stop all active recordings and close all open files.">
<polygon fill="white" stroke="#666666" points="504,-169 360,-169 360,-139 504,-139 504,-169"/>
<text text-anchor="start" x="368" y="-157" font-family="Helvetica,sans-Serif" font-size="10.00">dnf_composer::Simulation</text>
<text text-anchor="middle" x="432" y="-146" font-family="Helvetica,sans-Serif" font-size="10.00">Recorder::stopAll</text>
</a>
</g>
</g>
<!-- Node2&#45;&gt;Node4 -->
<g id="edge3_Node000002_Node000004" class="edge">
<title>Node2&#45;&gt;Node4</title>
<g id="a_edge3_Node000002_Node000004"><a xlink:title=" ">
<path fill="none" stroke="#63b8ff" d="M324.12,-154C332.61,-154 341.33,-154 349.94,-154"/>
<polygon fill="#63b8ff" stroke="#63b8ff" points="350,-157.5 360,-154 350,-150.5 350,-157.5"/>
</a>
</g>
</g>
<!-- Node6 -->
<g id="Node000006" class="node">
<title>Node6</title>
<g id="a_Node000006"><a xlink:href="namespacednf__composer_1_1tools_1_1utils.html#a140c0903ddcfc3ba01218f11d31608dc" target="_top" xlink:title=" ">
<polygon fill="white" stroke="#666666" points="498.5,-121 365.5,-121 365.5,-91 498.5,-91 498.5,-121"/>
<text text-anchor="start" x="373.5" y="-109" font-family="Helvetica,sans-Serif" font-size="10.00">dnf_composer::tools</text>
<text text-anchor="middle" x="432" y="-98" font-family="Helvetica,sans-Serif" font-size="10.00">::utils::getResourceRoot</text>
</a>
</g>
</g>
<!-- Node5&#45;&gt;Node6 -->
<g id="edge5_Node000005_Node000006" class="edge">
<title>Node5&#45;&gt;Node6</title>
<g id="a_edge5_Node000005_Node000006"><a xlink:title=" ">
<path fill="none" stroke="#63b8ff" d="M324.12,-100.6C334.36,-101.11 344.93,-101.65 355.25,-102.17"/>
<polygon fill="#63b8ff" stroke="#63b8ff" points="355.31,-105.68 365.48,-102.69 355.67,-98.69 355.31,-105.68"/>
</a>
</g>
</g>
<!-- Node7 -->
<g id="Node000007" class="node">
<title>Node7</title>
<g id="a_Node000007"><a xlink:href="namespacednf__composer_1_1tools_1_1logger.html#af64ef64b3026606a73972fdcae2ca87a" target="_top" xlink:title=" ">
<polygon fill="white" stroke="#666666" points="670,-78 554,-78 554,-48 670,-48 670,-78"/>
<text text-anchor="start" x="562" y="-66" font-family="Helvetica,sans-Serif" font-size="10.00">dnf_composer::tools</text>
<text text-anchor="middle" x="612" y="-55" font-family="Helvetica,sans-Serif" font-size="10.00">::logger::log</text>
</a>
</g>
</g>
<!-- Node5&#45;&gt;Node7 -->
<g id="edge6_Node000005_Node000007" class="edge">
<title>Node5&#45;&gt;Node7</title>
<g id="a_edge6_Node000005_Node000007"><a xlink:title=" ">
<path fill="none" stroke="#63b8ff" d="M324,-86.4C336,-84.79 348.34,-83.26 360,-82 422.09,-75.3 493.08,-70.16 543.68,-66.93"/>
<polygon fill="#63b8ff" stroke="#63b8ff" points="544.07,-70.41 553.83,-66.29 543.63,-63.42 544.07,-70.41"/>
</a>
</g>
</g>
<!-- Node9 -->
<g id="Node000009" class="node">
<title>Node9</title>
<g id="a_Node000009"><a xlink:href="classdnf__composer_1_1SimulationRecorder.html#ae82a04488e5edcccdd38a7e02545b4b4" target="_top" xlink:title="Called each simulation step to append rows to active recordings. Ticks are derived from sim....">
<polygon fill="white" stroke="#666666" points="504,-35 360,-35 360,-5 504,-5 504,-35"/>
<text text-anchor="start" x="368" y="-23" font-family="Helvetica,sans-Serif" font-size="10.00">dnf_composer::Simulation</text>
<text text-anchor="middle" x="432" y="-12" font-family="Helvetica,sans-Serif" font-size="10.00">Recorder::update</text>
</a>
</g>
</g>
<!-- Node8&#45;&gt;Node9 -->
<g id="edge8_Node000008_Node000009" class="edge">
<title>Node8&#45;&gt;Node9</title>
<g id="a_edge8_Node000008_Node000009"><a xlink:title=" ">
<path fill="none" stroke="#63b8ff" d="M324.12,-26C332.61,-25.53 341.33,-25.04 349.94,-24.55"/>
<polygon fill="#63b8ff" stroke="#63b8ff" points="350.21,-28.04 360,-23.99 349.81,-21.06 350.21,-28.04"/>
</a>
</g>
</g>
<!-- Node9&#45;&gt;Node7 -->
<g id="edge10_Node000009_Node000007" class="edge">
<title>Node9&#45;&gt;Node7</title>
<g id="a_edge10_Node000009_Node000007"><a xlink:title=" ">
<path fill="none" stroke="#63b8ff" d="M495.26,-35.04C511.03,-38.85 528.04,-42.96 544.04,-46.82"/>
<polygon fill="#63b8ff" stroke="#63b8ff" points="543.3,-50.25 553.85,-49.19 544.95,-43.44 543.3,-50.25"/>
</a>
</g>
</g>
<!-- Node10 -->
<g id="Node000010" class="node">
<title>Node10</title>
<g id="a_Node000010"><a xlink:href="classdnf__composer_1_1Simulation.html#a860f418ff5193deb9ae8f4a791a5f391" target="_top" xlink:title="Retrieve an element by its unique name. Throws if not found.">
<polygon fill="white" stroke="#666666" points="684,-30 540,-30 540,0 684,0 684,-30"/>
<text text-anchor="start" x="548" y="-18" font-family="Helvetica,sans-Serif" font-size="10.00">dnf_composer::Simulation</text>
<text text-anchor="middle" x="612" y="-7" font-family="Helvetica,sans-Serif" font-size="10.00">::getElement</text>
</a>
</g>
</g>
<!-- Node9&#45;&gt;Node10 -->
<g id="edge9_Node000009_Node000010" class="edge">
<title>Node9&#45;&gt;Node10</title>
<g id="a_edge9_Node000009_Node000010"><a xlink:title=" ">
<path fill="none" stroke="#63b8ff" d="M504.12,-18C512.61,-17.76 521.33,-17.52 529.94,-17.28"/>
<polygon fill="#63b8ff" stroke="#63b8ff" points="530.1,-20.77 540,-16.99 529.9,-13.78 530.1,-20.77"/>
</a>
</g>
</g>
</g>
</svg>
