<?xml version="1.0" encoding="UTF-8" standalone="no"?>
<!DOCTYPE svg PUBLIC "-//W3C//DTD SVG 1.1//EN"
 "http://www.w3.org/Graphics/SVG/1.1/DTD/svg11.dtd">
<!-- Generated by graphviz version 2.43.0 (0)
 -->
<!-- Title: dnf_composer::element::GaussKernel::setParameters Pages: 1 -->
<svg width="530pt" height="182pt"
 viewBox="0.00 0.00 530.00 182.00" xmlns="http://www.w3.org/2000/svg" xmlns:xlink="http://www.w3.org/1999/xlink">
<g id="graph0" class="graph" transform="scale(1 1) rotate(0) translate(4 178)">
<title>dnf_composer::element::GaussKernel::setParameters</title>
<!-- Node1 -->
<g id="Node000001" class="node">
<title>Node1</title>
<g id="a_Node000001"><a xlink:title=" ">
<polygon fill="#999999" stroke="#666666" points="160,-102 0,-102 0,-72 160,-72 160,-102"/>
<text text-anchor="start" x="8" y="-90" font-family="Helvetica,sans-Serif" font-size="10.00">dnf_composer::element</text>
<text text-anchor="middle" x="80" y="-79" font-family="Helvetica,sans-Serif" font-size="10.00">::GaussKernel::setParameters</text>
</a>
</g>
</g>
<!-- Node2 -->
<g id="Node000002" class="node">
<title>Node2</title>
<g id="a_Node000002"><a xlink:href="classdnf__composer_1_1element_1_1GaussKernel.html#a287d7d8ff2d471d38fc915b73c0422bd" target="_top" xlink:title="Initialize the element (called once before the simulation loop).">
<polygon fill="white" stroke="#666666" points="328,-102 196,-102 196,-72 328,-72 328,-102"/>
<text text-anchor="start" x="204" y="-90" font-family="Helvetica,sans-Serif" font-size="10.00">dnf_composer::element</text>
<text text-anchor="middle" x="262" y="-79" font-family="Helvetica,sans-Serif" font-size="10.00">::GaussKernel::init</text>
</a>
</g>
</g>
<!-- Node1&#45;&gt;Node2 -->
<g id="edge1_Node000001_Node000002" class="edge">
<title>Node1&#45;&gt;Node2</title>
<g id="a_edge1_Node000001_Node000002"><a xlink:title=" ">
<path fill="none" stroke="#63b8ff" d="M160.21,-87C168.66,-87 177.24,-87 185.64,-87"/>
<polygon fill="#63b8ff" stroke="#63b8ff" points="185.78,-90.5 195.78,-87 185.78,-83.5 185.78,-90.5"/>
</a>
</g>
</g>
<!-- Node3 -->
<g id="Node000003" class="node">
<title>Node3</title>
<g id="a_Node000003"><a xlink:href="namespacednf__composer_1_1tools_1_1math.html#ae0ded32bda3fdcee5561849a0ef3785c" target="_top" xlink:title=" ">
<polygon fill="white" stroke="#666666" points="522,-174 364,-174 364,-144 522,-144 522,-174"/>
<text text-anchor="start" x="372" y="-162" font-family="Helvetica,sans-Serif" font-size="10.00">dnf_composer::tools</text>
<text text-anchor="middle" x="443" y="-151" font-family="Helvetica,sans-Serif" font-size="10.00">::math::computeKernelRange</text>
</a>
</g>
</g>
<!-- Node2&#45;&gt;Node3 -->
<g id="edge2_Node000002_Node000003" class="edge">
<title>Node2&#45;&gt;Node3</title>
<g id="a_edge2_Node000002_Node000003"><a xlink:title=" ">
<path fill="none" stroke="#63b8ff" d="M291.68,-102C311.63,-112.1 339.03,-125.28 364,-135 369.03,-136.96 374.3,-138.87 379.61,-140.69"/>
<polygon fill="#63b8ff" stroke="#63b8ff" points="378.6,-144.05 389.2,-143.89 380.82,-137.41 378.6,-144.05"/>
</a>
</g>
</g>
<!-- Node4 -->
<g id="Node000004" class="node">
<title>Node4</title>
<g id="a_Node000004"><a xlink:href="namespacednf__composer_1_1tools_1_1math.html#a67b836c5dd7641c0def85f572838361e" target="_top" xlink:title=" ">
<polygon fill="white" stroke="#666666" points="522,-126 364,-126 364,-96 522,-96 522,-126"/>
<text text-anchor="start" x="372" y="-114" font-family="Helvetica,sans-Serif" font-size="10.00">dnf_composer::tools</text>
<text text-anchor="middle" x="443" y="-103" font-family="Helvetica,sans-Serif" font-size="10.00">::math::createExtendedIndex</text>
</a>
</g>
</g>
<!-- Node2&#45;&gt;Node4 -->
<g id="edge3_Node000002_Node000004" class="edge">
<title>Node2&#45;&gt;Node4</title>
<g id="a_edge3_Node000002_Node000004"><a xlink:title=" ">
<path fill="none" stroke="#63b8ff" d="M328.13,-95.73C336.46,-96.85 345.1,-98.01 353.73,-99.16"/>
<polygon fill="#63b8ff" stroke="#63b8ff" points="353.45,-102.66 363.83,-100.52 354.38,-95.72 353.45,-102.66"/>
</a>
</g>
</g>
<!-- Node5 -->
<g id="Node000005" class="node">
<title>Node5</title>
<g id="a_Node000005"><a xlink:href="namespacednf__composer_1_1tools_1_1math.html#af1e4dc23150121f5d2c1ff789f3de9d3" target="_top" xlink:title=" ">
<polygon fill="white" stroke="#666666" points="501,-78 385,-78 385,-48 501,-48 501,-78"/>
<text text-anchor="start" x="393" y="-66" font-family="Helvetica,sans-Serif" font-size="10.00">dnf_composer::tools</text>
<text text-anchor="middle" x="443" y="-55" font-family="Helvetica,sans-Serif" font-size="10.00">::math::gauss</text>
</a>
</g>
</g>
<!-- Node2&#45;&gt;Node5 -->
<g id="edge4_Node000002_Node000005" class="edge">
<title>Node2&#45;&gt;Node5</title>
<g id="a_edge4_Node000002_Node000005"><a xlink:title=" ">
<path fill="none" stroke="#63b8ff" d="M328.13,-78.27C343.38,-76.22 359.66,-74.04 374.99,-71.98"/>
<polygon fill="#63b8ff" stroke="#63b8ff" points="375.46,-75.45 384.91,-70.65 374.53,-68.51 375.46,-75.45"/>
</a>
</g>
</g>
<!-- Node6 -->
<g id="Node000006" class="node">
<title>Node6</title>
<g id="a_Node000006"><a xlink:href="namespacednf__composer_1_1tools_1_1math.html#ae679c020137ca5fab108caa79fa33a13" target="_top" xlink:title=" ">
<polygon fill="white" stroke="#666666" points="501,-30 385,-30 385,0 501,0 501,-30"/>
<text text-anchor="start" x="393" y="-18" font-family="Helvetica,sans-Serif" font-size="10.00">dnf_composer::tools</text>
<text text-anchor="middle" x="443" y="-7" font-family="Helvetica,sans-Serif" font-size="10.00">::math::gaussNorm</text>
</a>
</g>
</g>
<!-- Node2&#45;&gt;Node6 -->
<g id="edge5_Node000002_Node000006" class="edge">
<title>Node2&#45;&gt;Node6</title>
<g id="a_edge5_Node000002_Node000006"><a xlink:title=" ">
<path fill="none" stroke="#63b8ff" d="M291.68,-72C311.63,-61.9 339.03,-48.72 364,-39 369.03,-37.04 374.3,-35.13 379.61,-33.31"/>
<polygon fill="#63b8ff" stroke="#63b8ff" points="380.82,-36.59 389.2,-30.11 378.6,-29.95 380.82,-36.59"/>
</a>
</g>
</g>
</g>
</svg>
