<?xml version="1.0" encoding="UTF-8" standalone="no"?>
<!DOCTYPE svg PUBLIC "-//W3C//DTD SVG 1.1//EN"
 "http://www.w3.org/Graphics/SVG/1.1/DTD/svg11.dtd">
<!-- Generated by graphviz version 2.43.0 (0)
 -->
<!-- Title: dnf_composer::element::Resize::addInput Pages: 1 -->
<svg width="493pt" height="60pt"
 viewBox="0.00 0.00 493.00 60.00" xmlns="http://www.w3.org/2000/svg" xmlns:xlink="http://www.w3.org/1999/xlink">
<g id="graph0" class="graph" transform="scale(1 1) rotate(0) translate(4 56)">
<title>dnf_composer::element::Resize::addInput</title>
<!-- Node1 -->
<g id="Node000001" class="node">
<title>Node1</title>
<g id="a_Node000001"><a xlink:title="Register inputElement as an upstream source for this element.">
<polygon fill="#999999" stroke="#666666" points="132,-30 0,-30 0,0 132,0 132,-30"/>
<text text-anchor="start" x="8" y="-18" font-family="Helvetica,sans-Serif" font-size="10.00">dnf_composer::element</text>
<text text-anchor="middle" x="66" y="-7" font-family="Helvetica,sans-Serif" font-size="10.00">::Resize::addInput</text>
</a>
</g>
</g>
<!-- Node2 -->
<g id="Node000002" class="node">
<title>Node2</title>
<g id="a_Node000002"><a xlink:href="classdnf__composer_1_1element_1_1Element.html#aed78b4e2f69bf55673030220bbef6650" target="_top" xlink:title="Register inputElement as an upstream source for this element.">
<polygon fill="white" stroke="#666666" points="300,-52 168,-52 168,-22 300,-22 300,-52"/>
<text text-anchor="start" x="176" y="-40" font-family="Helvetica,sans-Serif" font-size="10.00">dnf_composer::element</text>
<text text-anchor="middle" x="234" y="-29" font-family="Helvetica,sans-Serif" font-size="10.00">::Element::addInput</text>
</a>
</g>
</g>
<!-- Node1&#45;&gt;Node2 -->
<g id="edge1_Node000001_Node000002" class="edge">
<title>Node1&#45;&gt;Node2</title>
<g id="a_edge1_Node000001_Node000002"><a xlink:title=" ">
<path fill="none" stroke="#63b8ff" d="M132.13,-23.63C140.55,-24.75 149.23,-25.9 157.8,-27.03"/>
<polygon fill="#63b8ff" stroke="#63b8ff" points="157.41,-30.51 167.78,-28.36 158.33,-23.57 157.41,-30.51"/>
</a>
</g>
</g>
<!-- Node3 -->
<g id="Node000003" class="node">
<title>Node3</title>
<g id="a_Node000003"><a xlink:href="classdnf__composer_1_1element_1_1Element.html#a03cc479b5f360d8e7f679d4ecdad8944" target="_top" xlink:title=" ">
<polygon fill="white" stroke="#666666" points="485,-30 336,-30 336,0 485,0 485,-30"/>
<text text-anchor="start" x="344" y="-18" font-family="Helvetica,sans-Serif" font-size="10.00">dnf_composer::element</text>
<text text-anchor="middle" x="410.5" y="-7" font-family="Helvetica,sans-Serif" font-size="10.00">::Element::getUniqueName</text>
</a>
</g>
</g>
<!-- Node1&#45;&gt;Node3 -->
<g id="edge3_Node000001_Node000003" class="edge">
<title>Node1&#45;&gt;Node3</title>
<g id="a_edge3_Node000001_Node000003"><a xlink:title=" ">
<path fill="none" stroke="#63b8ff" d="M132.19,-13.52C144.11,-13.3 156.43,-13.11 168,-13 226.66,-12.42 241.34,-12.46 300,-13 308.34,-13.08 317.03,-13.18 325.71,-13.31"/>
<polygon fill="#63b8ff" stroke="#63b8ff" points="325.82,-16.81 335.88,-13.47 325.93,-9.82 325.82,-16.81"/>
</a>
</g>
</g>
<!-- Node2&#45;&gt;Node3 -->
<g id="edge2_Node000002_Node000003" class="edge">
<title>Node2&#45;&gt;Node3</title>
<g id="a_edge2_Node000002_Node000003"><a xlink:title=" ">
<path fill="none" stroke="#63b8ff" d="M300.47,-28.75C308.75,-27.7 317.3,-26.62 325.8,-25.55"/>
<polygon fill="#63b8ff" stroke="#63b8ff" points="326.26,-29.02 335.75,-24.3 325.39,-22.08 326.26,-29.02"/>
</a>
</g>
</g>
</g>
</svg>
