<?xml version="1.0" encoding="UTF-8" standalone="no"?>
<!DOCTYPE svg PUBLIC "-//W3C//DTD SVG 1.1//EN"
 "http://www.w3.org/Graphics/SVG/1.1/DTD/svg11.dtd">
<!-- Generated by graphviz version 2.43.0 (0)
 -->
<!-- Title: dnf_composer::element::NeuralField::step Pages: 1 -->
<svg width="739pt" height="242pt"
 viewBox="0.00 0.00 739.00 241.50" xmlns="http://www.w3.org/2000/svg" xmlns:xlink="http://www.w3.org/1999/xlink">
<g id="graph0" class="graph" transform="scale(1 1) rotate(0) translate(4 237.5)">
<title>dnf_composer::element::NeuralField::step</title>
<!-- Node1 -->
<g id="Node000001" class="node">
<title>Node1</title>
<g id="a_Node000001"><a xlink:title="Advance the element by one time step.">
<polygon fill="#999999" stroke="#666666" points="132,-161.5 0,-161.5 0,-131.5 132,-131.5 132,-161.5"/>
<text text-anchor="start" x="8" y="-149.5" font-family="Helvetica,sans-Serif" font-size="10.00">dnf_composer::element</text>
<text text-anchor="middle" x="66" y="-138.5" font-family="Helvetica,sans-Serif" font-size="10.00">::NeuralField::step</text>
</a>
</g>
</g>
<!-- Node2 -->
<g id="Node000002" class="node">
<title>Node2</title>
<g id="a_Node000002"><a xlink:href="classdnf__composer_1_1element_1_1NeuralField.html#ae0ba15fe0c90d15d7bbfe0e4d91289b2" target="_top" xlink:title=" ">
<polygon fill="white" stroke="#666666" points="346,-233.5 168,-233.5 168,-203.5 346,-203.5 346,-233.5"/>
<text text-anchor="start" x="176" y="-221.5" font-family="Helvetica,sans-Serif" font-size="10.00">dnf_composer::element</text>
<text text-anchor="middle" x="257" y="-210.5" font-family="Helvetica,sans-Serif" font-size="10.00">::NeuralField::calculateActivation</text>
</a>
</g>
</g>
<!-- Node1&#45;&gt;Node2 -->
<g id="edge1_Node000001_Node000002" class="edge">
<title>Node1&#45;&gt;Node2</title>
<g id="a_edge1_Node000001_Node000002"><a xlink:title=" ">
<path fill="none" stroke="#63b8ff" d="M95.15,-161.54C115.09,-171.78 142.7,-185.12 168,-194.5 173.52,-196.54 179.29,-198.5 185.12,-200.35"/>
<polygon fill="#63b8ff" stroke="#63b8ff" points="184.37,-203.79 194.96,-203.37 186.42,-197.09 184.37,-203.79"/>
</a>
</g>
</g>
<!-- Node3 -->
<g id="Node000003" class="node">
<title>Node3</title>
<g id="a_Node000003"><a xlink:href="classdnf__composer_1_1element_1_1NeuralField.html#ae3c715f01f0818371b8059627df7b7a2" target="_top" xlink:title=" ">
<polygon fill="white" stroke="#666666" points="337.5,-185.5 176.5,-185.5 176.5,-155.5 337.5,-155.5 337.5,-185.5"/>
<text text-anchor="start" x="184.5" y="-173.5" font-family="Helvetica,sans-Serif" font-size="10.00">dnf_composer::element</text>
<text text-anchor="middle" x="257" y="-162.5" font-family="Helvetica,sans-Serif" font-size="10.00">::NeuralField::calculateOutput</text>
</a>
</g>
</g>
<!-- Node1&#45;&gt;Node3 -->
<g id="edge2_Node000001_Node000003" class="edge">
<title>Node1&#45;&gt;Node3</title>
<g id="a_edge2_Node000001_Node000003"><a xlink:title=" ">
<path fill="none" stroke="#63b8ff" d="M132.04,-154.76C143.11,-156.16 154.78,-157.65 166.34,-159.12"/>
<polygon fill="#63b8ff" stroke="#63b8ff" points="166.11,-162.61 176.47,-160.4 166.99,-155.67 166.11,-162.61"/>
</a>
</g>
</g>
<!-- Node4 -->
<g id="Node000004" class="node">
<title>Node4</title>
<g id="a_Node000004"><a xlink:href="classdnf__composer_1_1element_1_1Element.html#a87401af54d46e1cf99d2755d3fce0a9a" target="_top" xlink:title="Pull data from all registered input elements into this element&#39;s components.">
<polygon fill="white" stroke="#666666" points="323,-137.5 191,-137.5 191,-107.5 323,-107.5 323,-137.5"/>
<text text-anchor="start" x="199" y="-125.5" font-family="Helvetica,sans-Serif" font-size="10.00">dnf_composer::element</text>
<text text-anchor="middle" x="257" y="-114.5" font-family="Helvetica,sans-Serif" font-size="10.00">::Element::updateInput</text>
</a>
</g>
</g>
<!-- Node1&#45;&gt;Node4 -->
<g id="edge3_Node000001_Node000004" class="edge">
<title>Node1&#45;&gt;Node4</title>
<g id="a_edge3_Node000001_Node000004"><a xlink:title=" ">
<path fill="none" stroke="#63b8ff" d="M132.04,-138.24C147.78,-136.24 164.73,-134.09 180.89,-132.04"/>
<polygon fill="#63b8ff" stroke="#63b8ff" points="181.36,-135.51 190.84,-130.77 180.48,-128.56 181.36,-135.51"/>
</a>
</g>
</g>
<!-- Node5 -->
<g id="Node000005" class="node">
<title>Node5</title>
<g id="a_Node000005"><a xlink:href="classdnf__composer_1_1element_1_1NeuralField.html#a6656f6846ca05bcf2a66394833e0170e" target="_top" xlink:title=" ">
<polygon fill="white" stroke="#666666" points="328.5,-89.5 185.5,-89.5 185.5,-59.5 328.5,-59.5 328.5,-89.5"/>
<text text-anchor="start" x="193.5" y="-77.5" font-family="Helvetica,sans-Serif" font-size="10.00">dnf_composer::element</text>
<text text-anchor="middle" x="257" y="-66.5" font-family="Helvetica,sans-Serif" font-size="10.00">::NeuralField::updateState</text>
</a>
</g>
</g>
<!-- Node1&#45;&gt;Node5 -->
<g id="edge4_Node000001_Node000005" class="edge">
<title>Node1&#45;&gt;Node5</title>
<g id="a_edge4_Node000001_Node000005"><a xlink:title=" ">
<path fill="none" stroke="#63b8ff" d="M95.15,-131.46C115.09,-121.22 142.7,-107.88 168,-98.5 173.52,-96.46 179.29,-94.5 185.12,-92.65"/>
<polygon fill="#63b8ff" stroke="#63b8ff" points="186.42,-95.91 194.96,-89.63 184.37,-89.21 186.42,-95.91"/>
</a>
</g>
</g>
<!-- Node6 -->
<g id="Node000006" class="node">
<title>Node6</title>
<g id="a_Node000006"><a xlink:href="classdnf__composer_1_1element_1_1NeuralField.html#ae6323cef88c0207eff5b3c2931d3ddcc" target="_top" xlink:title=" ">
<polygon fill="white" stroke="#666666" points="537,-137.5 384,-137.5 384,-107.5 537,-107.5 537,-137.5"/>
<text text-anchor="start" x="392" y="-125.5" font-family="Helvetica,sans-Serif" font-size="10.00">dnf_composer::element</text>
<text text-anchor="middle" x="460.5" y="-114.5" font-family="Helvetica,sans-Serif" font-size="10.00">::NeuralField::checkStability</text>
</a>
</g>
</g>
<!-- Node5&#45;&gt;Node6 -->
<g id="edge5_Node000005_Node000006" class="edge">
<title>Node5&#45;&gt;Node6</title>
<g id="a_edge5_Node000005_Node000006"><a xlink:title=" ">
<path fill="none" stroke="#63b8ff" d="M321.2,-89.56C341.93,-94.49 365.13,-100.02 386.51,-105.11"/>
<polygon fill="#63b8ff" stroke="#63b8ff" points="385.98,-108.58 396.52,-107.5 387.6,-101.78 385.98,-108.58"/>
</a>
</g>
</g>
<!-- Node10 -->
<g id="Node000010" class="node">
<title>Node10</title>
<g id="a_Node000010"><a xlink:href="classdnf__composer_1_1element_1_1NeuralField.html#acd9d648c62f1ae7e454f578ef434c713" target="_top" xlink:title=" ">
<polygon fill="white" stroke="#666666" points="536.5,-89.5 384.5,-89.5 384.5,-59.5 536.5,-59.5 536.5,-89.5"/>
<text text-anchor="start" x="392.5" y="-77.5" font-family="Helvetica,sans-Serif" font-size="10.00">dnf_composer::element</text>
<text text-anchor="middle" x="460.5" y="-66.5" font-family="Helvetica,sans-Serif" font-size="10.00">::NeuralField::updateBumps</text>
</a>
</g>
</g>
<!-- Node5&#45;&gt;Node10 -->
<g id="edge9_Node000005_Node000010" class="edge">
<title>Node5&#45;&gt;Node10</title>
<g id="a_edge9_Node000005_Node000010"><a xlink:title=" ">
<path fill="none" stroke="#63b8ff" d="M328.76,-74.5C343.41,-74.5 358.99,-74.5 374.1,-74.5"/>
<polygon fill="#63b8ff" stroke="#63b8ff" points="374.46,-78 384.46,-74.5 374.46,-71 374.46,-78"/>
</a>
</g>
</g>
<!-- Node11 -->
<g id="Node000011" class="node">
<title>Node11</title>
<g id="a_Node000011"><a xlink:href="classdnf__composer_1_1element_1_1NeuralField.html#ad9fb693f1c66a9e4df7fddef4c796406" target="_top" xlink:title=" ">
<polygon fill="white" stroke="#666666" points="539,-41 382,-41 382,0 539,0 539,-41"/>
<text text-anchor="start" x="390" y="-29" font-family="Helvetica,sans-Serif" font-size="10.00">dnf_composer::element</text>
<text text-anchor="start" x="390" y="-18" font-family="Helvetica,sans-Serif" font-size="10.00">::NeuralField::updateMinMax</text>
<text text-anchor="middle" x="460.5" y="-7" font-family="Helvetica,sans-Serif" font-size="10.00">Activation</text>
</a>
</g>
</g>
<!-- Node5&#45;&gt;Node11 -->
<g id="edge10_Node000005_Node000011" class="edge">
<title>Node5&#45;&gt;Node11</title>
<g id="a_edge10_Node000005_Node000011"><a xlink:title=" ">
<path fill="none" stroke="#63b8ff" d="M314.13,-59.46C332.44,-54.55 353.22,-48.98 373.22,-43.62"/>
<polygon fill="#63b8ff" stroke="#63b8ff" points="374.21,-46.98 382.96,-41.01 372.4,-40.22 374.21,-46.98"/>
</a>
</g>
</g>
<!-- Node7 -->
<g id="Node000007" class="node">
<title>Node7</title>
<g id="a_Node000007"><a xlink:href="namespacednf__composer_1_1tools_1_1math.html#a35dcf8c3860cc1855d20c0ff0594a052" target="_top" xlink:title=" ">
<polygon fill="white" stroke="#666666" points="726.5,-185.5 579.5,-185.5 579.5,-155.5 726.5,-155.5 726.5,-185.5"/>
<text text-anchor="start" x="587.5" y="-173.5" font-family="Helvetica,sans-Serif" font-size="10.00">dnf_composer::tools</text>
<text text-anchor="middle" x="653" y="-162.5" font-family="Helvetica,sans-Serif" font-size="10.00">::math::calculateVectorAvg</text>
</a>
</g>
</g>
<!-- Node6&#45;&gt;Node7 -->
<g id="edge6_Node000006_Node000007" class="edge">
<title>Node6&#45;&gt;Node7</title>
<g id="a_edge6_Node000006_Node000007"><a xlink:title=" ">
<path fill="none" stroke="#63b8ff" d="M521.25,-137.56C540.76,-142.47 562.58,-147.97 582.72,-153.04"/>
<polygon fill="#63b8ff" stroke="#63b8ff" points="581.91,-156.45 592.46,-155.5 583.62,-149.66 581.91,-156.45"/>
</a>
</g>
</g>
<!-- Node8 -->
<g id="Node000008" class="node">
<title>Node8</title>
<g id="a_Node000008"><a xlink:href="namespacednf__composer_1_1tools_1_1math.html#a2d30fb692257cd6e7006091e88f74d74" target="_top" xlink:title=" ">
<polygon fill="white" stroke="#666666" points="731,-137.5 575,-137.5 575,-107.5 731,-107.5 731,-137.5"/>
<text text-anchor="start" x="583" y="-125.5" font-family="Helvetica,sans-Serif" font-size="10.00">dnf_composer::tools</text>
<text text-anchor="middle" x="653" y="-114.5" font-family="Helvetica,sans-Serif" font-size="10.00">::math::calculateVectorNorm</text>
</a>
</g>
</g>
<!-- Node6&#45;&gt;Node8 -->
<g id="edge7_Node000006_Node000008" class="edge">
<title>Node6&#45;&gt;Node8</title>
<g id="a_edge7_Node000006_Node000008"><a xlink:title=" ">
<path fill="none" stroke="#63b8ff" d="M537.06,-122.5C546.22,-122.5 555.63,-122.5 564.93,-122.5"/>
<polygon fill="#63b8ff" stroke="#63b8ff" points="564.97,-126 574.97,-122.5 564.97,-119 564.97,-126"/>
</a>
</g>
</g>
<!-- Node9 -->
<g id="Node000009" class="node">
<title>Node9</title>
<g id="a_Node000009"><a xlink:href="namespacednf__composer_1_1tools_1_1math.html#a8ef191ccbfe8ac462c5ce6a6e88a3f3a" target="_top" xlink:title=" ">
<polygon fill="white" stroke="#666666" points="728.5,-89.5 577.5,-89.5 577.5,-59.5 728.5,-59.5 728.5,-89.5"/>
<text text-anchor="start" x="585.5" y="-77.5" font-family="Helvetica,sans-Serif" font-size="10.00">dnf_composer::tools</text>
<text text-anchor="middle" x="653" y="-66.5" font-family="Helvetica,sans-Serif" font-size="10.00">::math::calculateVectorSum</text>
</a>
</g>
</g>
<!-- Node6&#45;&gt;Node9 -->
<g id="edge8_Node000006_Node000009" class="edge">
<title>Node6&#45;&gt;Node9</title>
<g id="a_edge8_Node000006_Node000009"><a xlink:title=" ">
<path fill="none" stroke="#63b8ff" d="M521.25,-107.44C540.76,-102.53 562.58,-97.03 582.72,-91.96"/>
<polygon fill="#63b8ff" stroke="#63b8ff" points="583.62,-95.34 592.46,-89.5 581.91,-88.55 583.62,-95.34"/>
</a>
</g>
</g>
</g>
</svg>
