<?xml version="1.0" encoding="UTF-8" standalone="no"?>
<!DOCTYPE svg PUBLIC "-//W3C//DTD SVG 1.1//EN"
 "http://www.w3.org/Graphics/SVG/1.1/DTD/svg11.dtd">
<!-- Generated by graphviz version 2.43.0 (0)
 -->
<!-- Title: dnf_composer::Plot Pages: 1 -->
<svg width="352pt" height="820pt"
 viewBox="0.00 0.00 351.50 820.00" xmlns="http://www.w3.org/2000/svg" xmlns:xlink="http://www.w3.org/1999/xlink">
<g id="graph0" class="graph" transform="scale(1 1) rotate(0) translate(4 816)">
<title>dnf_composer::Plot</title>
<!-- Node1 -->
<g id="Node000001" class="node">
<title>Node1</title>
<g id="a_Node000001"><a xlink:title="Abstract base class for all renderable plots.">
<polygon fill="#999999" stroke="transparent" points="194,-199 58,-199 58,0 194,0 194,-199"/>
<text text-anchor="start" x="79" y="-186.5" font-family="Helvetica,sans-Serif" font-size="10.00">dnf_composer::Plot</text>
<text text-anchor="start" x="62" y="-171.5" font-family="Helvetica,sans-Serif" font-size="10.00">#</text>
<text text-anchor="start" x="75" y="-171.5" font-family="Helvetica,sans-Serif" font-size="10.00">uniqueIdentifier</text>
<text text-anchor="start" x="62" y="-156.5" font-family="Helvetica,sans-Serif" font-size="10.00">#</text>
<text text-anchor="start" x="75" y="-156.5" font-family="Helvetica,sans-Serif" font-size="10.00">uniqueIdentifierCounter</text>
<text text-anchor="start" x="62" y="-141.5" font-family="Helvetica,sans-Serif" font-size="10.00">+</text>
<text text-anchor="start" x="75" y="-141.5" font-family="Helvetica,sans-Serif" font-size="10.00">getAnnotations()</text>
<text text-anchor="start" x="62" y="-126.5" font-family="Helvetica,sans-Serif" font-size="10.00">+</text>
<text text-anchor="start" x="75" y="-126.5" font-family="Helvetica,sans-Serif" font-size="10.00">getDimensions()</text>
<text text-anchor="start" x="62" y="-111.5" font-family="Helvetica,sans-Serif" font-size="10.00">+</text>
<text text-anchor="start" x="75" y="-111.5" font-family="Helvetica,sans-Serif" font-size="10.00">getType()</text>
<text text-anchor="start" x="62" y="-96.5" font-family="Helvetica,sans-Serif" font-size="10.00">+</text>
<text text-anchor="start" x="75" y="-96.5" font-family="Helvetica,sans-Serif" font-size="10.00">getUniqueIdentifier()</text>
<text text-anchor="start" x="62" y="-81.5" font-family="Helvetica,sans-Serif" font-size="10.00">+</text>
<text text-anchor="start" x="75" y="-81.5" font-family="Helvetica,sans-Serif" font-size="10.00">Plot()</text>
<text text-anchor="start" x="62" y="-66.5" font-family="Helvetica,sans-Serif" font-size="10.00">+</text>
<text text-anchor="start" x="75" y="-66.5" font-family="Helvetica,sans-Serif" font-size="10.00">render()</text>
<text text-anchor="start" x="62" y="-51.5" font-family="Helvetica,sans-Serif" font-size="10.00">+</text>
<text text-anchor="start" x="75" y="-51.5" font-family="Helvetica,sans-Serif" font-size="10.00">setAnnotations()</text>
<text text-anchor="start" x="62" y="-36.5" font-family="Helvetica,sans-Serif" font-size="10.00">+</text>
<text text-anchor="start" x="75" y="-36.5" font-family="Helvetica,sans-Serif" font-size="10.00">setDimensions()</text>
<text text-anchor="start" x="62" y="-21.5" font-family="Helvetica,sans-Serif" font-size="10.00">+</text>
<text text-anchor="start" x="75" y="-21.5" font-family="Helvetica,sans-Serif" font-size="10.00">toString()</text>
<text text-anchor="start" x="62" y="-6.5" font-family="Helvetica,sans-Serif" font-size="10.00">+</text>
<text text-anchor="start" x="75" y="-6.5" font-family="Helvetica,sans-Serif" font-size="10.00">~Plot()</text>
<polygon fill="#666666" stroke="#666666" points="58,-181.5 58,-181.5 194,-181.5 194,-181.5 58,-181.5"/>
<polygon fill="#666666" stroke="#666666" points="58,-151.5 58,-151.5 73,-151.5 73,-151.5 58,-151.5"/>
<polygon fill="#666666" stroke="#666666" points="73,-151.5 73,-151.5 194,-151.5 194,-151.5 73,-151.5"/>
<polygon fill="none" stroke="#666666" points="58,0 58,-199 194,-199 194,0 58,0"/>
</a>
</g>
</g>
<!-- Node2 -->
<g id="Node000002" class="node">
<title>Node2</title>
<g id="a_Node000002"><a xlink:href="structdnf__composer_1_1PlotCommonParameters.html" target="_top" xlink:title=" ">
<polygon fill="white" stroke="transparent" points="200.5,-351 51.5,-351 51.5,-246 200.5,-246 200.5,-351"/>
<text text-anchor="start" x="57" y="-338.5" font-family="Helvetica,sans-Serif" font-size="10.00">dnf_composer::PlotCommon</text>
<text text-anchor="start" x="98.5" y="-327.5" font-family="Helvetica,sans-Serif" font-size="10.00">Parameters</text>
<text text-anchor="start" x="56" y="-312.5" font-family="Helvetica,sans-Serif" font-size="10.00">+</text>
<text text-anchor="start" x="69" y="-312.5" font-family="Helvetica,sans-Serif" font-size="10.00">type</text>
<text text-anchor="start" x="56" y="-297.5" font-family="Helvetica,sans-Serif" font-size="10.00">+</text>
<text text-anchor="start" x="69" y="-297.5" font-family="Helvetica,sans-Serif" font-size="10.00">operator==()</text>
<text text-anchor="start" x="56" y="-282.5" font-family="Helvetica,sans-Serif" font-size="10.00">+</text>
<text text-anchor="start" x="69" y="-282.5" font-family="Helvetica,sans-Serif" font-size="10.00">PlotCommonParameters()</text>
<text text-anchor="start" x="56" y="-267.5" font-family="Helvetica,sans-Serif" font-size="10.00">+</text>
<text text-anchor="start" x="69" y="-267.5" font-family="Helvetica,sans-Serif" font-size="10.00">PlotCommonParameters()</text>
<text text-anchor="start" x="56" y="-252.5" font-family="Helvetica,sans-Serif" font-size="10.00">+</text>
<text text-anchor="start" x="69" y="-252.5" font-family="Helvetica,sans-Serif" font-size="10.00">toString()</text>
<polygon fill="#666666" stroke="#666666" points="52,-322.5 52,-322.5 201,-322.5 201,-322.5 52,-322.5"/>
<polygon fill="#666666" stroke="#666666" points="52,-307.5 52,-307.5 67,-307.5 67,-307.5 52,-307.5"/>
<polygon fill="#666666" stroke="#666666" points="67,-307.5 67,-307.5 201,-307.5 201,-307.5 67,-307.5"/>
<polygon fill="none" stroke="#666666" points="51.5,-246 51.5,-351 200.5,-351 200.5,-246 51.5,-246"/>
</a>
</g>
</g>
<!-- Node2&#45;&gt;Node1 -->
<g id="edge1_Node000001_Node000002" class="edge">
<title>Node2&#45;&gt;Node1</title>
<g id="a_edge1_Node000001_Node000002"><a xlink:title=" ">
<path fill="none" stroke="#63b8ff" d="M126,-246C126,-235.14 126,-223.29 126,-211.18"/>
<polygon fill="none" stroke="#63b8ff" points="126,-211.02 122,-205.02 126,-199.02 130,-205.02 126,-211.02"/>
</a>
</g>
<text text-anchor="middle" x="181" y="-220" font-family="Helvetica,sans-Serif" font-size="10.00" fill="grey"> #commonParameters</text>
</g>
<!-- Node3 -->
<g id="Node000003" class="node">
<title>Node3</title>
<g id="a_Node000003"><a xlink:href="structdnf__composer_1_1PlotDimensions.html" target="_top" xlink:title=" ">
<polygon fill="white" stroke="transparent" points="162,-597 0,-597 0,-398 162,-398 162,-597"/>
<text text-anchor="start" x="5" y="-584.5" font-family="Helvetica,sans-Serif" font-size="10.00">dnf_composer::PlotDimensions</text>
<text text-anchor="start" x="18" y="-569.5" font-family="Helvetica,sans-Serif" font-size="10.00">+</text>
<text text-anchor="start" x="45" y="-569.5" font-family="Helvetica,sans-Serif" font-size="10.00">xMax</text>
<text text-anchor="start" x="18" y="-554.5" font-family="Helvetica,sans-Serif" font-size="10.00">+</text>
<text text-anchor="start" x="45" y="-554.5" font-family="Helvetica,sans-Serif" font-size="10.00">xMin</text>
<text text-anchor="start" x="18" y="-539.5" font-family="Helvetica,sans-Serif" font-size="10.00">+</text>
<text text-anchor="start" x="45" y="-539.5" font-family="Helvetica,sans-Serif" font-size="10.00">xStep</text>
<text text-anchor="start" x="18" y="-524.5" font-family="Helvetica,sans-Serif" font-size="10.00">+</text>
<text text-anchor="start" x="45" y="-524.5" font-family="Helvetica,sans-Serif" font-size="10.00">yMax</text>
<text text-anchor="start" x="18" y="-509.5" font-family="Helvetica,sans-Serif" font-size="10.00">+</text>
<text text-anchor="start" x="45" y="-509.5" font-family="Helvetica,sans-Serif" font-size="10.00">yMin</text>
<text text-anchor="start" x="18" y="-494.5" font-family="Helvetica,sans-Serif" font-size="10.00">+</text>
<text text-anchor="start" x="45" y="-494.5" font-family="Helvetica,sans-Serif" font-size="10.00">yStep</text>
<text text-anchor="start" x="18" y="-479.5" font-family="Helvetica,sans-Serif" font-size="10.00">+</text>
<text text-anchor="start" x="45" y="-479.5" font-family="Helvetica,sans-Serif" font-size="10.00">isLegal()</text>
<text text-anchor="start" x="18" y="-464.5" font-family="Helvetica,sans-Serif" font-size="10.00">+</text>
<text text-anchor="start" x="45" y="-464.5" font-family="Helvetica,sans-Serif" font-size="10.00">operator==()</text>
<text text-anchor="start" x="18" y="-449.5" font-family="Helvetica,sans-Serif" font-size="10.00">+</text>
<text text-anchor="start" x="45" y="-449.5" font-family="Helvetica,sans-Serif" font-size="10.00">PlotDimensions()</text>
<text text-anchor="start" x="18" y="-434.5" font-family="Helvetica,sans-Serif" font-size="10.00">+</text>
<text text-anchor="start" x="45" y="-434.5" font-family="Helvetica,sans-Serif" font-size="10.00">PlotDimensions()</text>
<text text-anchor="start" x="18" y="-419.5" font-family="Helvetica,sans-Serif" font-size="10.00">+</text>
<text text-anchor="start" x="45" y="-419.5" font-family="Helvetica,sans-Serif" font-size="10.00">PlotDimensions()</text>
<text text-anchor="start" x="18" y="-404.5" font-family="Helvetica,sans-Serif" font-size="10.00">+</text>
<text text-anchor="start" x="45" y="-404.5" font-family="Helvetica,sans-Serif" font-size="10.00">toString()</text>
<polygon fill="#666666" stroke="#666666" points="0,-579.5 0,-579.5 162,-579.5 162,-579.5 0,-579.5"/>
<polygon fill="#666666" stroke="#666666" points="0,-489.5 0,-489.5 43,-489.5 43,-489.5 0,-489.5"/>
<polygon fill="#666666" stroke="#666666" points="43,-489.5 43,-489.5 162,-489.5 162,-489.5 43,-489.5"/>
<polygon fill="none" stroke="#666666" points="0,-398 0,-597 162,-597 162,-398 0,-398"/>
</a>
</g>
</g>
<!-- Node3&#45;&gt;Node2 -->
<g id="edge2_Node000002_Node000003" class="edge">
<title>Node3&#45;&gt;Node2</title>
<g id="a_edge2_Node000002_Node000003"><a xlink:title=" ">
<path fill="none" stroke="#63b8ff" d="M103.57,-397.71C106.27,-385.87 108.98,-374.03 111.52,-362.88"/>
<polygon fill="none" stroke="#63b8ff" points="111.54,-362.79 108.98,-356.05 114.22,-351.09 116.78,-357.83 111.54,-362.79"/>
</a>
</g>
<text text-anchor="middle" x="143" y="-372" font-family="Helvetica,sans-Serif" font-size="10.00" fill="grey"> +dimensions</text>
</g>
<!-- Node4 -->
<g id="Node000004" class="node">
<title>Node4</title>
<g id="a_Node000004"><a xlink:href="structdnf__composer_1_1PlotAnnotations.html" target="_top" xlink:title=" ">
<polygon fill="white" stroke="transparent" points="343.5,-544.5 180.5,-544.5 180.5,-450.5 343.5,-450.5 343.5,-544.5"/>
<text text-anchor="start" x="186" y="-532.5" font-family="Helvetica,sans-Serif" font-size="10.00">dnf_composer::PlotAnnotations</text>
<text text-anchor="start" x="260.5" y="-517.5" font-family="Helvetica,sans-Serif" font-size="10.00"> </text>
<text text-anchor="start" x="199" y="-502.5" font-family="Helvetica,sans-Serif" font-size="10.00">+</text>
<text text-anchor="start" x="226" y="-502.5" font-family="Helvetica,sans-Serif" font-size="10.00">operator==()</text>
<text text-anchor="start" x="199" y="-487.5" font-family="Helvetica,sans-Serif" font-size="10.00">+</text>
<text text-anchor="start" x="226" y="-487.5" font-family="Helvetica,sans-Serif" font-size="10.00">PlotAnnotations()</text>
<text text-anchor="start" x="199" y="-472.5" font-family="Helvetica,sans-Serif" font-size="10.00">+</text>
<text text-anchor="start" x="226" y="-472.5" font-family="Helvetica,sans-Serif" font-size="10.00">PlotAnnotations()</text>
<text text-anchor="start" x="199" y="-457.5" font-family="Helvetica,sans-Serif" font-size="10.00">+</text>
<text text-anchor="start" x="226" y="-457.5" font-family="Helvetica,sans-Serif" font-size="10.00">toString()</text>
<polygon fill="#666666" stroke="#666666" points="181,-527.5 181,-527.5 344,-527.5 344,-527.5 181,-527.5"/>
<polygon fill="#666666" stroke="#666666" points="181,-512.5 181,-512.5 344,-512.5 344,-512.5 181,-512.5"/>
<polygon fill="none" stroke="#666666" points="180.5,-450.5 180.5,-544.5 343.5,-544.5 343.5,-450.5 180.5,-450.5"/>
</a>
</g>
</g>
<!-- Node4&#45;&gt;Node2 -->
<g id="edge3_Node000002_Node000004" class="edge">
<title>Node4&#45;&gt;Node2</title>
<g id="a_edge3_Node000002_Node000004"><a xlink:title=" ">
<path fill="none" stroke="#63b8ff" d="M234.26,-450.31C219.11,-425.76 199.68,-395.3 181,-369 179.1,-366.33 177.14,-363.62 175.14,-360.9"/>
<polygon fill="none" stroke="#63b8ff" points="174.94,-360.64 168.14,-358.24 167.74,-351.04 174.54,-353.44 174.94,-360.64"/>
</a>
</g>
<text text-anchor="middle" x="223" y="-372" font-family="Helvetica,sans-Serif" font-size="10.00" fill="grey"> +annotations</text>
</g>
<!-- Node5 -->
<g id="Node000005" class="node">
<title>Node5</title>
<g id="a_Node000005"><a xlink:title=" ">
<polygon fill="white" stroke="transparent" points="291.5,-715 232.5,-715 232.5,-666 291.5,-666 291.5,-715"/>
<text text-anchor="start" x="238" y="-702.5" font-family="Helvetica,sans-Serif" font-size="10.00">std::string</text>
<text text-anchor="start" x="260.5" y="-687.5" font-family="Helvetica,sans-Serif" font-size="10.00"> </text>
<text text-anchor="start" x="260.5" y="-672.5" font-family="Helvetica,sans-Serif" font-size="10.00"> </text>
<polygon fill="#666666" stroke="#666666" points="233,-697.5 233,-697.5 292,-697.5 292,-697.5 233,-697.5"/>
<polygon fill="#666666" stroke="#666666" points="233,-682.5 233,-682.5 292,-682.5 292,-682.5 233,-682.5"/>
<polygon fill="none" stroke="#666666" points="232.5,-666 232.5,-715 291.5,-715 291.5,-666 232.5,-666"/>
</a>
</g>
</g>
<!-- Node5&#45;&gt;Node4 -->
<g id="edge4_Node000004_Node000005" class="edge">
<title>Node5&#45;&gt;Node4</title>
<g id="a_edge4_Node000004_Node000005"><a xlink:title=" ">
<path fill="none" stroke="#63b8ff" d="M262,-665.7C262,-638.56 262,-593.23 262,-556.61"/>
<polygon fill="none" stroke="#63b8ff" points="262,-556.57 258,-550.57 262,-544.57 266,-550.57 262,-556.57"/>
</a>
</g>
<text text-anchor="middle" x="284" y="-640" font-family="Helvetica,sans-Serif" font-size="10.00" fill="grey"> +title</text>
<text text-anchor="middle" x="284" y="-629" font-family="Helvetica,sans-Serif" font-size="10.00" fill="grey">+x_label</text>
<text text-anchor="middle" x="284" y="-618" font-family="Helvetica,sans-Serif" font-size="10.00" fill="grey">+y_label</text>
</g>
<!-- Node6 -->
<g id="Node000006" class="node">
<title>Node6</title>
<g id="a_Node000006"><a xlink:title=" ">
<polygon fill="white" stroke="transparent" points="311,-812 213,-812 213,-752 311,-752 311,-812"/>
<text text-anchor="start" x="218" y="-800" font-family="Helvetica,sans-Serif" font-size="10.00">std::basic_string&lt;</text>
<text text-anchor="start" x="243.5" y="-789" font-family="Helvetica,sans-Serif" font-size="10.00"> Char &gt;</text>
<text text-anchor="start" x="260" y="-774" font-family="Helvetica,sans-Serif" font-size="10.00"> </text>
<text text-anchor="start" x="260" y="-759" font-family="Helvetica,sans-Serif" font-size="10.00"> </text>
<polygon fill="#666666" stroke="#666666" points="213,-784 213,-784 311,-784 311,-784 213,-784"/>
<polygon fill="#666666" stroke="#666666" points="213,-769 213,-769 311,-769 311,-769 213,-769"/>
<polygon fill="none" stroke="#666666" points="213,-752 213,-812 311,-812 311,-752 213,-752"/>
</a>
</g>
</g>
<!-- Node6&#45;&gt;Node5 -->
<g id="edge5_Node000005_Node000006" class="edge">
<title>Node6&#45;&gt;Node5</title>
<g id="a_edge5_Node000005_Node000006"><a xlink:title=" ">
<path fill="none" stroke="#63b8ff" d="M262,-741.41C262,-732.47 262,-723.25 262,-715.21"/>
<polygon fill="none" stroke="#63b8ff" points="258.5,-741.69 262,-751.69 265.5,-741.69 258.5,-741.69"/>
</a>
</g>
</g>
</g>
</svg>
