<?xml version="1.0" encoding="UTF-8" standalone="no"?>
<!DOCTYPE svg PUBLIC "-//W3C//DTD SVG 1.1//EN"
 "http://www.w3.org/Graphics/SVG/1.1/DTD/svg11.dtd">
<!-- Generated by graphviz version 2.43.0 (0)
 -->
<!-- Title: dnf_composer::element::CorrelatedNormalNoise2D::toString Pages: 1 -->
<svg width="569pt" height="137pt"
 viewBox="0.00 0.00 569.00 137.00" xmlns="http://www.w3.org/2000/svg" xmlns:xlink="http://www.w3.org/1999/xlink">
<g id="graph0" class="graph" transform="scale(1 1) rotate(0) translate(4 133)">
<title>dnf_composer::element::CorrelatedNormalNoise2D::toString</title>
<!-- Node1 -->
<g id="Node000001" class="node">
<title>Node1</title>
<g id="a_Node000001"><a xlink:title=" ">
<polygon fill="#999999" stroke="#666666" points="151,-70 0,-70 0,-29 151,-29 151,-70"/>
<text text-anchor="start" x="8" y="-58" font-family="Helvetica,sans-Serif" font-size="10.00">dnf_composer::element</text>
<text text-anchor="start" x="8" y="-47" font-family="Helvetica,sans-Serif" font-size="10.00">::CorrelatedNormalNoise2D</text>
<text text-anchor="middle" x="75.5" y="-36" font-family="Helvetica,sans-Serif" font-size="10.00">::toString</text>
</a>
</g>
</g>
<!-- Node2 -->
<g id="Node000002" class="node">
<title>Node2</title>
<g id="a_Node000002"><a xlink:href="structdnf__composer_1_1element_1_1ElementCommonParameters.html#a83c667c71a22c80a0e415da7fab9795b" target="_top" xlink:title=" ">
<polygon fill="white" stroke="#666666" points="371.5,-100 208.5,-100 208.5,-59 371.5,-59 371.5,-100"/>
<text text-anchor="start" x="216.5" y="-88" font-family="Helvetica,sans-Serif" font-size="10.00">dnf_composer::element</text>
<text text-anchor="start" x="216.5" y="-77" font-family="Helvetica,sans-Serif" font-size="10.00">::ElementCommonParameters</text>
<text text-anchor="middle" x="290" y="-66" font-family="Helvetica,sans-Serif" font-size="10.00">::toString</text>
</a>
</g>
</g>
<!-- Node1&#45;&gt;Node2 -->
<g id="edge1_Node000001_Node000002" class="edge">
<title>Node1&#45;&gt;Node2</title>
<g id="a_edge1_Node000001_Node000002"><a xlink:title=" ">
<path fill="none" stroke="#63b8ff" d="M151.12,-60.03C166.33,-62.18 182.48,-64.46 198.18,-66.68"/>
<polygon fill="#63b8ff" stroke="#63b8ff" points="198.02,-70.19 208.41,-68.12 199,-63.26 198.02,-70.19"/>
</a>
</g>
</g>
<!-- Node5 -->
<g id="Node000005" class="node">
<title>Node5</title>
<g id="a_Node000005"><a xlink:href="structdnf__composer_1_1element_1_1CorrelatedNormalNoise2DParameters.html#aa645334a41ec207ca206283658f16876" target="_top" xlink:title=" ">
<polygon fill="white" stroke="#666666" points="393,-41 187,-41 187,0 393,0 393,-41"/>
<text text-anchor="start" x="195" y="-29" font-family="Helvetica,sans-Serif" font-size="10.00">dnf_composer::element</text>
<text text-anchor="start" x="195" y="-18" font-family="Helvetica,sans-Serif" font-size="10.00">::CorrelatedNormalNoise2DParameters</text>
<text text-anchor="middle" x="290" y="-7" font-family="Helvetica,sans-Serif" font-size="10.00">::toString</text>
</a>
</g>
</g>
<!-- Node1&#45;&gt;Node5 -->
<g id="edge4_Node000001_Node000005" class="edge">
<title>Node1&#45;&gt;Node5</title>
<g id="a_edge4_Node000001_Node000005"><a xlink:title=" ">
<path fill="none" stroke="#63b8ff" d="M151.12,-39.32C159.55,-38.17 168.27,-36.98 177.04,-35.78"/>
<polygon fill="#63b8ff" stroke="#63b8ff" points="177.52,-39.25 186.96,-34.43 176.57,-32.31 177.52,-39.25"/>
</a>
</g>
</g>
<!-- Node3 -->
<g id="Node000003" class="node">
<title>Node3</title>
<g id="a_Node000003"><a xlink:href="structdnf__composer_1_1element_1_1ElementDimensions.html#a1e2439e8cba19f3bf61a48cdd01c4fc7" target="_top" xlink:title=" ">
<polygon fill="white" stroke="#666666" points="561,-129 429,-129 429,-88 561,-88 561,-129"/>
<text text-anchor="start" x="437" y="-117" font-family="Helvetica,sans-Serif" font-size="10.00">dnf_composer::element</text>
<text text-anchor="start" x="437" y="-106" font-family="Helvetica,sans-Serif" font-size="10.00">::ElementDimensions::</text>
<text text-anchor="middle" x="495" y="-95" font-family="Helvetica,sans-Serif" font-size="10.00">toString</text>
</a>
</g>
</g>
<!-- Node2&#45;&gt;Node3 -->
<g id="edge2_Node000002_Node000003" class="edge">
<title>Node2&#45;&gt;Node3</title>
<g id="a_edge2_Node000002_Node000003"><a xlink:title=" ">
<path fill="none" stroke="#63b8ff" d="M371.52,-91C387.14,-93.23 403.45,-95.56 418.89,-97.77"/>
<polygon fill="#63b8ff" stroke="#63b8ff" points="418.5,-101.25 428.89,-99.2 419.49,-94.32 418.5,-101.25"/>
</a>
</g>
</g>
<!-- Node4 -->
<g id="Node000004" class="node">
<title>Node4</title>
<g id="a_Node000004"><a xlink:href="structdnf__composer_1_1element_1_1ElementIdentifiers.html#a0eb01a994b1696c38ea371454620d2d4" target="_top" xlink:title=" ">
<polygon fill="white" stroke="#666666" points="561,-70 429,-70 429,-29 561,-29 561,-70"/>
<text text-anchor="start" x="437" y="-58" font-family="Helvetica,sans-Serif" font-size="10.00">dnf_composer::element</text>
<text text-anchor="start" x="437" y="-47" font-family="Helvetica,sans-Serif" font-size="10.00">::ElementIdentifiers</text>
<text text-anchor="middle" x="495" y="-36" font-family="Helvetica,sans-Serif" font-size="10.00">::toString</text>
</a>
</g>
</g>
<!-- Node2&#45;&gt;Node4 -->
<g id="edge3_Node000002_Node000004" class="edge">
<title>Node2&#45;&gt;Node4</title>
<g id="a_edge3_Node000002_Node000004"><a xlink:title=" ">
<path fill="none" stroke="#63b8ff" d="M371.52,-67.6C387.14,-65.29 403.45,-62.88 418.89,-60.6"/>
<polygon fill="#63b8ff" stroke="#63b8ff" points="419.51,-64.05 428.89,-59.12 418.49,-57.12 419.51,-64.05"/>
</a>
</g>
</g>
</g>
</svg>
