<?xml version="1.0" encoding="UTF-8" standalone="no"?>
<!DOCTYPE svg PUBLIC "-//W3C//DTD SVG 1.1//EN"
 "http://www.w3.org/Graphics/SVG/1.1/DTD/svg11.dtd">
<!-- Generated by graphviz version 2.43.0 (0)
 -->
<!-- Title: dnf_composer::element::NeuralField2D Pages: 1 -->
<svg width="546pt" height="1371pt"
 viewBox="0.00 0.00 546.00 1371.00" xmlns="http://www.w3.org/2000/svg" xmlns:xlink="http://www.w3.org/1999/xlink">
<g id="graph0" class="graph" transform="scale(1 1) rotate(0) translate(4 1367)">
<title>dnf_composer::element::NeuralField2D</title>
<!-- Node1 -->
<g id="Node000001" class="node">
<title>Node1</title>
<g id="a_Node000001"><a xlink:title=" ">
<polygon fill="#999999" stroke="transparent" points="445.5,-399 294.5,-399 294.5,-129 445.5,-129 445.5,-399"/>
<text text-anchor="start" x="312.5" y="-387" font-family="Helvetica,sans-Serif" font-size="10.00">dnf_composer::element</text>
<text text-anchor="start" x="332.5" y="-376" font-family="Helvetica,sans-Serif" font-size="10.00">::NeuralField2D</text>
<text text-anchor="start" x="368.5" y="-361" font-family="Helvetica,sans-Serif" font-size="10.00"> </text>
<text text-anchor="start" x="299" y="-346" font-family="Helvetica,sans-Serif" font-size="10.00">+</text>
<text text-anchor="start" x="312" y="-346" font-family="Helvetica,sans-Serif" font-size="10.00">clone()</text>
<text text-anchor="start" x="299" y="-331" font-family="Helvetica,sans-Serif" font-size="10.00">+</text>
<text text-anchor="start" x="312" y="-331" font-family="Helvetica,sans-Serif" font-size="10.00">getBumps()</text>
<text text-anchor="start" x="299" y="-316" font-family="Helvetica,sans-Serif" font-size="10.00">+</text>
<text text-anchor="start" x="312" y="-316" font-family="Helvetica,sans-Serif" font-size="10.00">getComputeStateMetrics()</text>
<text text-anchor="start" x="299" y="-301" font-family="Helvetica,sans-Serif" font-size="10.00">+</text>
<text text-anchor="start" x="312" y="-301" font-family="Helvetica,sans-Serif" font-size="10.00">getHighestActivation()</text>
<text text-anchor="start" x="299" y="-286" font-family="Helvetica,sans-Serif" font-size="10.00">+</text>
<text text-anchor="start" x="312" y="-286" font-family="Helvetica,sans-Serif" font-size="10.00">getLowestActivation()</text>
<text text-anchor="start" x="299" y="-271" font-family="Helvetica,sans-Serif" font-size="10.00">+</text>
<text text-anchor="start" x="312" y="-271" font-family="Helvetica,sans-Serif" font-size="10.00">getParameters()</text>
<text text-anchor="start" x="299" y="-256" font-family="Helvetica,sans-Serif" font-size="10.00">+</text>
<text text-anchor="start" x="312" y="-256" font-family="Helvetica,sans-Serif" font-size="10.00">getStabilityThreshold()</text>
<text text-anchor="start" x="299" y="-241" font-family="Helvetica,sans-Serif" font-size="10.00">+</text>
<text text-anchor="start" x="312" y="-241" font-family="Helvetica,sans-Serif" font-size="10.00">init()</text>
<text text-anchor="start" x="299" y="-226" font-family="Helvetica,sans-Serif" font-size="10.00">+</text>
<text text-anchor="start" x="312" y="-226" font-family="Helvetica,sans-Serif" font-size="10.00">isStable()</text>
<text text-anchor="start" x="299" y="-211" font-family="Helvetica,sans-Serif" font-size="10.00">+</text>
<text text-anchor="start" x="312" y="-211" font-family="Helvetica,sans-Serif" font-size="10.00">NeuralField2D()</text>
<text text-anchor="start" x="299" y="-196" font-family="Helvetica,sans-Serif" font-size="10.00">+</text>
<text text-anchor="start" x="312" y="-196" font-family="Helvetica,sans-Serif" font-size="10.00">setComputeStateMetrics()</text>
<text text-anchor="start" x="299" y="-181" font-family="Helvetica,sans-Serif" font-size="10.00">+</text>
<text text-anchor="start" x="312" y="-181" font-family="Helvetica,sans-Serif" font-size="10.00">setParameters()</text>
<text text-anchor="start" x="299" y="-166" font-family="Helvetica,sans-Serif" font-size="10.00">+</text>
<text text-anchor="start" x="312" y="-166" font-family="Helvetica,sans-Serif" font-size="10.00">setThresholdForStability()</text>
<text text-anchor="start" x="299" y="-151" font-family="Helvetica,sans-Serif" font-size="10.00">+</text>
<text text-anchor="start" x="312" y="-151" font-family="Helvetica,sans-Serif" font-size="10.00">step()</text>
<text text-anchor="start" x="299" y="-136" font-family="Helvetica,sans-Serif" font-size="10.00">+</text>
<text text-anchor="start" x="312" y="-136" font-family="Helvetica,sans-Serif" font-size="10.00">toString()</text>
<polygon fill="#666666" stroke="#666666" points="295,-371 295,-371 446,-371 446,-371 295,-371"/>
<polygon fill="#666666" stroke="#666666" points="295,-356 295,-356 446,-356 446,-356 295,-356"/>
<polygon fill="none" stroke="#666666" points="294.5,-129 294.5,-399 445.5,-399 445.5,-129 294.5,-129"/>
</a>
</g>
</g>
<!-- Node2 -->
<g id="Node000002" class="node">
<title>Node2</title>
<g id="a_Node000002"><a xlink:href="classdnf__composer_1_1element_1_1Element.html" target="_top" xlink:title="Abstract base class for all simulation elements.">
<polygon fill="white" stroke="transparent" points="291,-656 165,-656 165,-446 291,-446 291,-656"/>
<text text-anchor="start" x="170" y="-644" font-family="Helvetica,sans-Serif" font-size="10.00">dnf_composer::element</text>
<text text-anchor="start" x="204.5" y="-633" font-family="Helvetica,sans-Serif" font-size="10.00">::Element</text>
<text text-anchor="start" x="226" y="-618" font-family="Helvetica,sans-Serif" font-size="10.00"> </text>
<text text-anchor="start" x="170" y="-603" font-family="Helvetica,sans-Serif" font-size="10.00">+</text>
<text text-anchor="start" x="184" y="-603" font-family="Helvetica,sans-Serif" font-size="10.00">addInput()</text>
<text text-anchor="start" x="170" y="-588" font-family="Helvetica,sans-Serif" font-size="10.00">+</text>
<text text-anchor="start" x="184" y="-588" font-family="Helvetica,sans-Serif" font-size="10.00">buildInputCache()</text>
<text text-anchor="start" x="170" y="-573" font-family="Helvetica,sans-Serif" font-size="10.00">+</text>
<text text-anchor="start" x="184" y="-573" font-family="Helvetica,sans-Serif" font-size="10.00">changeDimensions()</text>
<text text-anchor="start" x="170" y="-558" font-family="Helvetica,sans-Serif" font-size="10.00">+</text>
<text text-anchor="start" x="184" y="-558" font-family="Helvetica,sans-Serif" font-size="10.00">clone()</text>
<text text-anchor="start" x="170" y="-543" font-family="Helvetica,sans-Serif" font-size="10.00">+</text>
<text text-anchor="start" x="184" y="-543" font-family="Helvetica,sans-Serif" font-size="10.00">close()</text>
<text text-anchor="start" x="170" y="-528" font-family="Helvetica,sans-Serif" font-size="10.00">+</text>
<text text-anchor="start" x="184" y="-528" font-family="Helvetica,sans-Serif" font-size="10.00">Element()</text>
<text text-anchor="start" x="170" y="-513" font-family="Helvetica,sans-Serif" font-size="10.00">+</text>
<text text-anchor="start" x="184" y="-513" font-family="Helvetica,sans-Serif" font-size="10.00">getComponent()</text>
<text text-anchor="start" x="170" y="-498" font-family="Helvetica,sans-Serif" font-size="10.00">+</text>
<text text-anchor="start" x="184" y="-498" font-family="Helvetica,sans-Serif" font-size="10.00">getComponentList()</text>
<text text-anchor="start" x="170" y="-483" font-family="Helvetica,sans-Serif" font-size="10.00">+</text>
<text text-anchor="start" x="184" y="-483" font-family="Helvetica,sans-Serif" font-size="10.00">getComponentPtr()</text>
<text text-anchor="start" x="170" y="-468" font-family="Helvetica,sans-Serif" font-size="10.00">+</text>
<text text-anchor="start" x="184" y="-468" font-family="Helvetica,sans-Serif" font-size="10.00">getComponents()</text>
<text text-anchor="start" x="184" y="-453" font-family="Helvetica,sans-Serif" font-size="10.00">and 28 more...</text>
<polygon fill="#666666" stroke="#666666" points="165,-628 165,-628 291,-628 291,-628 165,-628"/>
<polygon fill="#666666" stroke="#666666" points="165,-613 165,-613 291,-613 291,-613 165,-613"/>
<polygon fill="none" stroke="#666666" points="165,-446 165,-656 291,-656 291,-446 165,-446"/>
</a>
</g>
</g>
<!-- Node2&#45;&gt;Node1 -->
<g id="edge1_Node000001_Node000002" class="edge">
<title>Node2&#45;&gt;Node1</title>
<g id="a_edge1_Node000001_Node000002"><a xlink:title=" ">
<path fill="none" stroke="#63b8ff" d="M284.49,-436.62C290.58,-424.41 296.81,-411.9 303,-399.46"/>
<polygon fill="none" stroke="#63b8ff" points="281.19,-435.39 279.87,-445.9 287.46,-438.51 281.19,-435.39"/>
</a>
</g>
</g>
<!-- Node12 -->
<g id="Node000012" class="node">
<title>Node12</title>
<g id="a_Node000012"><a xlink:title=" ">
<polygon fill="white" stroke="transparent" points="194,-294 26,-294 26,-234 194,-234 194,-294"/>
<text text-anchor="start" x="31" y="-282" font-family="Helvetica,sans-Serif" font-size="10.00">std::shared_ptr&lt; dnf</text>
<text text-anchor="start" x="31" y="-271" font-family="Helvetica,sans-Serif" font-size="10.00">_composer::element::Element &gt;</text>
<text text-anchor="start" x="108" y="-256" font-family="Helvetica,sans-Serif" font-size="10.00"> </text>
<text text-anchor="start" x="51.5" y="-241" font-family="Helvetica,sans-Serif" font-size="10.00">+</text>
<text text-anchor="start" x="86" y="-241" font-family="Helvetica,sans-Serif" font-size="10.00">operator&#45;&gt;()</text>
<polygon fill="#666666" stroke="#666666" points="26,-266 26,-266 194,-266 194,-266 26,-266"/>
<polygon fill="#666666" stroke="#666666" points="26,-251 26,-251 194,-251 194,-251 26,-251"/>
<polygon fill="none" stroke="#666666" points="26,-234 26,-294 194,-294 194,-234 26,-234"/>
</a>
</g>
</g>
<!-- Node2&#45;&gt;Node12 -->
<g id="edge13_Node000012_Node000002" class="edge">
<title>Node2&#45;&gt;Node12</title>
<g id="a_edge13_Node000012_Node000002"><a xlink:title=" ">
<path fill="none" stroke="#63b8ff" d="M184.9,-445.9C164.7,-397.11 141.82,-341.84 126.72,-305.37"/>
<polygon fill="none" stroke="#63b8ff" points="126.69,-305.31 120.7,-301.3 122.1,-294.22 128.09,-298.24 126.69,-305.31"/>
</a>
</g>
<text text-anchor="middle" x="189.5" y="-420" font-family="Helvetica,sans-Serif" font-size="10.00" fill="grey"> +ptr</text>
</g>
<!-- Node3 -->
<g id="Node000003" class="node">
<title>Node3</title>
<g id="a_Node000003"><a xlink:title=" ">
<polygon fill="white" stroke="transparent" points="451.5,-823 326.5,-823 326.5,-763 451.5,-763 451.5,-823"/>
<text text-anchor="start" x="332" y="-811" font-family="Helvetica,sans-Serif" font-size="10.00">std::enable_shared</text>
<text text-anchor="start" x="332" y="-800" font-family="Helvetica,sans-Serif" font-size="10.00">_from_this&lt; Element &gt;</text>
<text text-anchor="start" x="387.5" y="-785" font-family="Helvetica,sans-Serif" font-size="10.00"> </text>
<text text-anchor="start" x="387.5" y="-770" font-family="Helvetica,sans-Serif" font-size="10.00"> </text>
<polygon fill="#666666" stroke="#666666" points="327,-795 327,-795 452,-795 452,-795 327,-795"/>
<polygon fill="#666666" stroke="#666666" points="327,-780 327,-780 452,-780 452,-780 327,-780"/>
<polygon fill="none" stroke="#666666" points="326.5,-763 326.5,-823 451.5,-823 451.5,-763 326.5,-763"/>
</a>
</g>
</g>
<!-- Node3&#45;&gt;Node2 -->
<g id="edge2_Node000002_Node000003" class="edge">
<title>Node3&#45;&gt;Node2</title>
<g id="a_edge2_Node000002_Node000003"><a xlink:title=" ">
<path fill="none" stroke="#63b8ff" d="M376.87,-753.52C368.43,-729.61 355.84,-698.81 340,-674 326.23,-652.43 308.5,-631.11 291.22,-612.48"/>
<polygon fill="none" stroke="#63b8ff" points="373.56,-754.66 380.13,-762.98 380.18,-752.39 373.56,-754.66"/>
</a>
</g>
</g>
<!-- Node4 -->
<g id="Node000004" class="node">
<title>Node4</title>
<g id="a_Node000004"><a xlink:href="structdnf__composer_1_1element_1_1ElementCommonParameters.html" target="_top" xlink:title=" ">
<polygon fill="white" stroke="transparent" points="308.5,-883 139.5,-883 139.5,-703 308.5,-703 308.5,-883"/>
<text text-anchor="start" x="151" y="-871" font-family="Helvetica,sans-Serif" font-size="10.00">dnf_composer::element</text>
<text text-anchor="start" x="151" y="-860" font-family="Helvetica,sans-Serif" font-size="10.00">::ElementCommonParameters</text>
<text text-anchor="start" x="222.5" y="-845" font-family="Helvetica,sans-Serif" font-size="10.00"> </text>
<text text-anchor="start" x="144" y="-830" font-family="Helvetica,sans-Serif" font-size="10.00">+</text>
<text text-anchor="start" x="157" y="-830" font-family="Helvetica,sans-Serif" font-size="10.00">ElementCommonParameters()</text>
<text text-anchor="start" x="144" y="-815" font-family="Helvetica,sans-Serif" font-size="10.00">+</text>
<text text-anchor="start" x="157" y="-815" font-family="Helvetica,sans-Serif" font-size="10.00">ElementCommonParameters()</text>
<text text-anchor="start" x="144" y="-800" font-family="Helvetica,sans-Serif" font-size="10.00">+</text>
<text text-anchor="start" x="157" y="-800" font-family="Helvetica,sans-Serif" font-size="10.00">ElementCommonParameters()</text>
<text text-anchor="start" x="144" y="-785" font-family="Helvetica,sans-Serif" font-size="10.00">+</text>
<text text-anchor="start" x="157" y="-785" font-family="Helvetica,sans-Serif" font-size="10.00">ElementCommonParameters()</text>
<text text-anchor="start" x="144" y="-770" font-family="Helvetica,sans-Serif" font-size="10.00">+</text>
<text text-anchor="start" x="157" y="-770" font-family="Helvetica,sans-Serif" font-size="10.00">ElementCommonParameters()</text>
<text text-anchor="start" x="144" y="-755" font-family="Helvetica,sans-Serif" font-size="10.00">+</text>
<text text-anchor="start" x="157" y="-755" font-family="Helvetica,sans-Serif" font-size="10.00">ElementCommonParameters()</text>
<text text-anchor="start" x="144" y="-740" font-family="Helvetica,sans-Serif" font-size="10.00">+</text>
<text text-anchor="start" x="157" y="-740" font-family="Helvetica,sans-Serif" font-size="10.00">operator==()</text>
<text text-anchor="start" x="144" y="-725" font-family="Helvetica,sans-Serif" font-size="10.00">+</text>
<text text-anchor="start" x="157" y="-725" font-family="Helvetica,sans-Serif" font-size="10.00">print()</text>
<text text-anchor="start" x="144" y="-710" font-family="Helvetica,sans-Serif" font-size="10.00">+</text>
<text text-anchor="start" x="157" y="-710" font-family="Helvetica,sans-Serif" font-size="10.00">toString()</text>
<polygon fill="#666666" stroke="#666666" points="140,-855 140,-855 309,-855 309,-855 140,-855"/>
<polygon fill="#666666" stroke="#666666" points="140,-840 140,-840 309,-840 309,-840 140,-840"/>
<polygon fill="none" stroke="#666666" points="139.5,-703 139.5,-883 308.5,-883 308.5,-703 139.5,-703"/>
</a>
</g>
</g>
<!-- Node4&#45;&gt;Node2 -->
<g id="edge3_Node000002_Node000004" class="edge">
<title>Node4&#45;&gt;Node2</title>
<g id="a_edge3_Node000002_Node000004"><a xlink:title=" ">
<path fill="none" stroke="#63b8ff" d="M225.48,-702.97C225.67,-691.69 225.87,-680.01 226.06,-668.37"/>
<polygon fill="none" stroke="#63b8ff" points="226.06,-668.28 222.16,-662.22 226.26,-656.28 230.16,-662.35 226.06,-668.28"/>
</a>
</g>
<text text-anchor="middle" x="281" y="-677" font-family="Helvetica,sans-Serif" font-size="10.00" fill="grey"> #commonParameters</text>
</g>
<!-- Node5 -->
<g id="Node000005" class="node">
<title>Node5</title>
<g id="a_Node000005"><a xlink:href="structdnf__composer_1_1element_1_1ElementIdentifiers.html" target="_top" xlink:title=" ">
<polygon fill="white" stroke="transparent" points="423,-1125 287,-1125 287,-975 423,-975 423,-1125"/>
<text text-anchor="start" x="297" y="-1113" font-family="Helvetica,sans-Serif" font-size="10.00">dnf_composer::element</text>
<text text-anchor="start" x="307" y="-1102" font-family="Helvetica,sans-Serif" font-size="10.00">::ElementIdentifiers</text>
<text text-anchor="start" x="291" y="-1087" font-family="Helvetica,sans-Serif" font-size="10.00">+</text>
<text text-anchor="start" x="304" y="-1087" font-family="Helvetica,sans-Serif" font-size="10.00">label</text>
<text text-anchor="start" x="291" y="-1072" font-family="Helvetica,sans-Serif" font-size="10.00">+</text>
<text text-anchor="start" x="304" y="-1072" font-family="Helvetica,sans-Serif" font-size="10.00">uniqueIdentifier</text>
<text text-anchor="start" x="291" y="-1057" font-family="Helvetica,sans-Serif" font-size="10.00">+</text>
<text text-anchor="start" x="304" y="-1057" font-family="Helvetica,sans-Serif" font-size="10.00">uniqueIdentifierCounter</text>
<text text-anchor="start" x="291" y="-1042" font-family="Helvetica,sans-Serif" font-size="10.00">+</text>
<text text-anchor="start" x="304" y="-1042" font-family="Helvetica,sans-Serif" font-size="10.00">ElementIdentifiers()</text>
<text text-anchor="start" x="291" y="-1027" font-family="Helvetica,sans-Serif" font-size="10.00">+</text>
<text text-anchor="start" x="304" y="-1027" font-family="Helvetica,sans-Serif" font-size="10.00">ElementIdentifiers()</text>
<text text-anchor="start" x="291" y="-1012" font-family="Helvetica,sans-Serif" font-size="10.00">+</text>
<text text-anchor="start" x="304" y="-1012" font-family="Helvetica,sans-Serif" font-size="10.00">operator==()</text>
<text text-anchor="start" x="291" y="-997" font-family="Helvetica,sans-Serif" font-size="10.00">+</text>
<text text-anchor="start" x="304" y="-997" font-family="Helvetica,sans-Serif" font-size="10.00">print()</text>
<text text-anchor="start" x="291" y="-982" font-family="Helvetica,sans-Serif" font-size="10.00">+</text>
<text text-anchor="start" x="304" y="-982" font-family="Helvetica,sans-Serif" font-size="10.00">toString()</text>
<polygon fill="#666666" stroke="#666666" points="287,-1097 287,-1097 423,-1097 423,-1097 287,-1097"/>
<polygon fill="#666666" stroke="#666666" points="287,-1052 287,-1052 302,-1052 302,-1052 287,-1052"/>
<polygon fill="#666666" stroke="#666666" points="302,-1052 302,-1052 423,-1052 423,-1052 302,-1052"/>
<polygon fill="none" stroke="#666666" points="287,-975 287,-1125 423,-1125 423,-975 287,-975"/>
</a>
</g>
</g>
<!-- Node5&#45;&gt;Node4 -->
<g id="edge4_Node000004_Node000005" class="edge">
<title>Node5&#45;&gt;Node4</title>
<g id="a_edge4_Node000004_Node000005"><a xlink:title=" ">
<path fill="none" stroke="#63b8ff" d="M350.76,-974.69C347.11,-950.2 340.57,-923.5 329,-901 326.59,-896.31 322.3,-890.41 316.8,-883.82"/>
<polygon fill="none" stroke="#63b8ff" points="316.5,-883.48 309.54,-881.59 308.6,-874.44 315.56,-876.32 316.5,-883.48"/>
</a>
</g>
<text text-anchor="middle" x="364.5" y="-904" font-family="Helvetica,sans-Serif" font-size="10.00" fill="grey"> +identifiers</text>
</g>
<!-- Node6 -->
<g id="Node000006" class="node">
<title>Node6</title>
<g id="a_Node000006"><a xlink:title=" ">
<polygon fill="white" stroke="transparent" points="384.5,-1266 325.5,-1266 325.5,-1217 384.5,-1217 384.5,-1266"/>
<text text-anchor="start" x="331" y="-1253.5" font-family="Helvetica,sans-Serif" font-size="10.00">std::string</text>
<text text-anchor="start" x="353.5" y="-1238.5" font-family="Helvetica,sans-Serif" font-size="10.00"> </text>
<text text-anchor="start" x="353.5" y="-1223.5" font-family="Helvetica,sans-Serif" font-size="10.00"> </text>
<polygon fill="#666666" stroke="#666666" points="326,-1248.5 326,-1248.5 385,-1248.5 385,-1248.5 326,-1248.5"/>
<polygon fill="#666666" stroke="#666666" points="326,-1233.5 326,-1233.5 385,-1233.5 385,-1233.5 326,-1233.5"/>
<polygon fill="none" stroke="#666666" points="325.5,-1217 325.5,-1266 384.5,-1266 384.5,-1217 325.5,-1217"/>
</a>
</g>
</g>
<!-- Node6&#45;&gt;Node5 -->
<g id="edge5_Node000005_Node000006" class="edge">
<title>Node6&#45;&gt;Node5</title>
<g id="a_edge5_Node000005_Node000006"><a xlink:title=" ">
<path fill="none" stroke="#63b8ff" d="M355,-1216.88C355,-1196.83 355,-1166.76 355,-1137.7"/>
<polygon fill="none" stroke="#63b8ff" points="355,-1137.34 351,-1131.34 355,-1125.34 359,-1131.34 355,-1137.34"/>
</a>
</g>
<text text-anchor="middle" x="392" y="-1191" font-family="Helvetica,sans-Serif" font-size="10.00" fill="grey"> +uniqueName</text>
</g>
<!-- Node9 -->
<g id="Node000009" class="node">
<title>Node9</title>
<g id="a_Node000009"><a xlink:title=" ">
<polygon fill="white" stroke="transparent" points="113,-1085.5 5,-1085.5 5,-1014.5 113,-1014.5 113,-1085.5"/>
<text text-anchor="start" x="10" y="-1073" font-family="Helvetica,sans-Serif" font-size="10.00">std::unordered_map</text>
<text text-anchor="start" x="10" y="-1062" font-family="Helvetica,sans-Serif" font-size="10.00">&lt; std::string, std::</text>
<text text-anchor="start" x="10" y="-1051" font-family="Helvetica,sans-Serif" font-size="10.00">vector&lt; double &gt; &gt;</text>
<text text-anchor="start" x="57" y="-1036" font-family="Helvetica,sans-Serif" font-size="10.00"> </text>
<text text-anchor="start" x="57" y="-1021" font-family="Helvetica,sans-Serif" font-size="10.00"> </text>
<polygon fill="#666666" stroke="#666666" points="5,-1046 5,-1046 113,-1046 113,-1046 5,-1046"/>
<polygon fill="#666666" stroke="#666666" points="5,-1031 5,-1031 113,-1031 113,-1031 5,-1031"/>
<polygon fill="none" stroke="#666666" points="5,-1014.5 5,-1085.5 113,-1085.5 113,-1014.5 5,-1014.5"/>
</a>
</g>
</g>
<!-- Node6&#45;&gt;Node9 -->
<g id="edge9_Node000009_Node000006" class="edge">
<title>Node6&#45;&gt;Node9</title>
<g id="a_edge9_Node000009_Node000006"><a xlink:title=" ">
<path fill="none" stroke="#63b8ff" d="M325.22,-1237.73C279.34,-1232.12 190.55,-1215.76 132,-1170 107.74,-1151.04 89.58,-1121.59 77.44,-1096.73"/>
<polygon fill="none" stroke="#63b8ff" points="77.36,-1096.56 71.2,-1092.82 72.29,-1085.69 78.45,-1089.43 77.36,-1096.56"/>
</a>
</g>
<text text-anchor="middle" x="193" y="-1191" font-family="Helvetica,sans-Serif" font-size="10.00" fill="grey"> +keys</text>
</g>
<!-- Node11 -->
<g id="Node000011" class="node">
<title>Node11</title>
<g id="a_Node000011"><a xlink:title=" ">
<polygon fill="white" stroke="transparent" points="308.5,-82 151.5,-82 151.5,0 308.5,0 308.5,-82"/>
<text text-anchor="start" x="157" y="-70" font-family="Helvetica,sans-Serif" font-size="10.00">std::unordered_map</text>
<text text-anchor="start" x="157" y="-59" font-family="Helvetica,sans-Serif" font-size="10.00">&lt; std::shared_ptr&lt; dnf</text>
<text text-anchor="start" x="157" y="-48" font-family="Helvetica,sans-Serif" font-size="10.00">_composer::element::Element</text>
<text text-anchor="start" x="191.5" y="-37" font-family="Helvetica,sans-Serif" font-size="10.00"> &gt;, std::string &gt;</text>
<text text-anchor="start" x="228.5" y="-22" font-family="Helvetica,sans-Serif" font-size="10.00"> </text>
<text text-anchor="start" x="228.5" y="-7" font-family="Helvetica,sans-Serif" font-size="10.00"> </text>
<polygon fill="#666666" stroke="#666666" points="152,-32 152,-32 309,-32 309,-32 152,-32"/>
<polygon fill="#666666" stroke="#666666" points="152,-17 152,-17 309,-17 309,-17 152,-17"/>
<polygon fill="none" stroke="#666666" points="151.5,0 151.5,-82 308.5,-82 308.5,0 151.5,0"/>
</a>
</g>
</g>
<!-- Node6&#45;&gt;Node11 -->
<g id="edge14_Node000011_Node000006" class="edge">
<title>Node6&#45;&gt;Node11</title>
<g id="a_edge14_Node000011_Node000006"><a xlink:title=" ">
<path fill="none" stroke="#63b8ff" d="M384.57,-1231.06C400.93,-1224.46 420.43,-1214.08 433,-1199 477.18,-1145.98 480,-1120.01 480,-1051 480,-1051 480,-1051 480,-263 480,-202.42 493.71,-175.6 455,-129 421.57,-88.76 367.2,-67.07 320.27,-55.42"/>
<polygon fill="none" stroke="#63b8ff" points="320.21,-55.4 313.45,-57.93 308.52,-52.67 315.28,-50.14 320.21,-55.4"/>
</a>
</g>
<text text-anchor="middle" x="509" y="-677" font-family="Helvetica,sans-Serif" font-size="10.00" fill="grey"> +elements</text>
</g>
<!-- Node7 -->
<g id="Node000007" class="node">
<title>Node7</title>
<g id="a_Node000007"><a xlink:title=" ">
<polygon fill="white" stroke="transparent" points="404,-1363 306,-1363 306,-1303 404,-1303 404,-1363"/>
<text text-anchor="start" x="311" y="-1351" font-family="Helvetica,sans-Serif" font-size="10.00">std::basic_string&lt;</text>
<text text-anchor="start" x="336.5" y="-1340" font-family="Helvetica,sans-Serif" font-size="10.00"> Char &gt;</text>
<text text-anchor="start" x="353" y="-1325" font-family="Helvetica,sans-Serif" font-size="10.00"> </text>
<text text-anchor="start" x="353" y="-1310" font-family="Helvetica,sans-Serif" font-size="10.00"> </text>
<polygon fill="#666666" stroke="#666666" points="306,-1335 306,-1335 404,-1335 404,-1335 306,-1335"/>
<polygon fill="#666666" stroke="#666666" points="306,-1320 306,-1320 404,-1320 404,-1320 306,-1320"/>
<polygon fill="none" stroke="#666666" points="306,-1303 306,-1363 404,-1363 404,-1303 306,-1303"/>
</a>
</g>
</g>
<!-- Node7&#45;&gt;Node6 -->
<g id="edge6_Node000006_Node000007" class="edge">
<title>Node7&#45;&gt;Node6</title>
<g id="a_edge6_Node000006_Node000007"><a xlink:title=" ">
<path fill="none" stroke="#63b8ff" d="M355,-1292.41C355,-1283.47 355,-1274.25 355,-1266.21"/>
<polygon fill="none" stroke="#63b8ff" points="351.5,-1292.69 355,-1302.69 358.5,-1292.69 351.5,-1292.69"/>
</a>
</g>
</g>
<!-- Node8 -->
<g id="Node000008" class="node">
<title>Node8</title>
<g id="a_Node000008"><a xlink:href="structdnf__composer_1_1element_1_1ElementDimensions.html" target="_top" xlink:title=" ">
<polygon fill="white" stroke="transparent" points="268.5,-1170 141.5,-1170 141.5,-930 268.5,-930 268.5,-1170"/>
<text text-anchor="start" x="147.5" y="-1158" font-family="Helvetica,sans-Serif" font-size="10.00">dnf_composer::element</text>
<text text-anchor="start" x="153" y="-1147" font-family="Helvetica,sans-Serif" font-size="10.00">::ElementDimensions</text>
<text text-anchor="start" x="146" y="-1132" font-family="Helvetica,sans-Serif" font-size="10.00">+</text>
<text text-anchor="start" x="159" y="-1132" font-family="Helvetica,sans-Serif" font-size="10.00">d_x</text>
<text text-anchor="start" x="146" y="-1117" font-family="Helvetica,sans-Serif" font-size="10.00">+</text>
<text text-anchor="start" x="159" y="-1117" font-family="Helvetica,sans-Serif" font-size="10.00">d_y</text>
<text text-anchor="start" x="146" y="-1102" font-family="Helvetica,sans-Serif" font-size="10.00">+</text>
<text text-anchor="start" x="159" y="-1102" font-family="Helvetica,sans-Serif" font-size="10.00">dimensionality</text>
<text text-anchor="start" x="146" y="-1087" font-family="Helvetica,sans-Serif" font-size="10.00">+</text>
<text text-anchor="start" x="159" y="-1087" font-family="Helvetica,sans-Serif" font-size="10.00">size</text>
<text text-anchor="start" x="146" y="-1072" font-family="Helvetica,sans-Serif" font-size="10.00">+</text>
<text text-anchor="start" x="159" y="-1072" font-family="Helvetica,sans-Serif" font-size="10.00">size_x</text>
<text text-anchor="start" x="146" y="-1057" font-family="Helvetica,sans-Serif" font-size="10.00">+</text>
<text text-anchor="start" x="159" y="-1057" font-family="Helvetica,sans-Serif" font-size="10.00">size_y</text>
<text text-anchor="start" x="146" y="-1042" font-family="Helvetica,sans-Serif" font-size="10.00">+</text>
<text text-anchor="start" x="159" y="-1042" font-family="Helvetica,sans-Serif" font-size="10.00">x_max</text>
<text text-anchor="start" x="146" y="-1027" font-family="Helvetica,sans-Serif" font-size="10.00">+</text>
<text text-anchor="start" x="159" y="-1027" font-family="Helvetica,sans-Serif" font-size="10.00">y_max</text>
<text text-anchor="start" x="146" y="-1012" font-family="Helvetica,sans-Serif" font-size="10.00">+</text>
<text text-anchor="start" x="159" y="-1012" font-family="Helvetica,sans-Serif" font-size="10.00">ElementDimensions()</text>
<text text-anchor="start" x="146" y="-997" font-family="Helvetica,sans-Serif" font-size="10.00">+</text>
<text text-anchor="start" x="159" y="-997" font-family="Helvetica,sans-Serif" font-size="10.00">ElementDimensions()</text>
<text text-anchor="start" x="146" y="-982" font-family="Helvetica,sans-Serif" font-size="10.00">+</text>
<text text-anchor="start" x="159" y="-982" font-family="Helvetica,sans-Serif" font-size="10.00">ElementDimensions()</text>
<text text-anchor="start" x="146" y="-967" font-family="Helvetica,sans-Serif" font-size="10.00">+</text>
<text text-anchor="start" x="159" y="-967" font-family="Helvetica,sans-Serif" font-size="10.00">operator==()</text>
<text text-anchor="start" x="146" y="-952" font-family="Helvetica,sans-Serif" font-size="10.00">+</text>
<text text-anchor="start" x="159" y="-952" font-family="Helvetica,sans-Serif" font-size="10.00">print()</text>
<text text-anchor="start" x="146" y="-937" font-family="Helvetica,sans-Serif" font-size="10.00">+</text>
<text text-anchor="start" x="159" y="-937" font-family="Helvetica,sans-Serif" font-size="10.00">toString()</text>
<polygon fill="#666666" stroke="#666666" points="142,-1142 142,-1142 269,-1142 269,-1142 142,-1142"/>
<polygon fill="#666666" stroke="#666666" points="142,-1022 142,-1022 157,-1022 157,-1022 142,-1022"/>
<polygon fill="#666666" stroke="#666666" points="157,-1022 157,-1022 269,-1022 269,-1022 157,-1022"/>
<polygon fill="none" stroke="#666666" points="141.5,-930 141.5,-1170 268.5,-1170 268.5,-930 141.5,-930"/>
</a>
</g>
</g>
<!-- Node8&#45;&gt;Node4 -->
<g id="edge7_Node000004_Node000008" class="edge">
<title>Node8&#45;&gt;Node4</title>
<g id="a_edge7_Node000004_Node000008"><a xlink:title=" ">
<path fill="none" stroke="#63b8ff" d="M209,-929.8C209.58,-920.05 210.24,-910.36 211,-901 211.15,-899.1 211.32,-897.19 211.48,-895.26"/>
<polygon fill="none" stroke="#63b8ff" points="211.49,-895.22 208.07,-888.87 212.61,-883.27 216.03,-889.62 211.49,-895.22"/>
</a>
</g>
<text text-anchor="middle" x="270" y="-904" font-family="Helvetica,sans-Serif" font-size="10.00" fill="grey"> +dimensionParameters</text>
</g>
<!-- Node9&#45;&gt;Node2 -->
<g id="edge8_Node000002_Node000009" class="edge">
<title>Node9&#45;&gt;Node2</title>
<g id="a_edge8_Node000002_Node000009"><a xlink:title=" ">
<path fill="none" stroke="#63b8ff" d="M50.11,-1014.42C35.38,-949.89 11.95,-808.14 59,-703 78.83,-658.68 118.81,-622.01 154.91,-595.9"/>
<polygon fill="none" stroke="#63b8ff" points="155.15,-595.73 157.76,-589 164.97,-588.82 162.36,-595.54 155.15,-595.73"/>
</a>
</g>
<text text-anchor="middle" x="95" y="-790.5" font-family="Helvetica,sans-Serif" font-size="10.00" fill="grey"> #components</text>
</g>
<!-- Node10 -->
<g id="Node000010" class="node">
<title>Node10</title>
<g id="a_Node000010"><a xlink:title=" ">
<polygon fill="white" stroke="transparent" points="118,-1266 0,-1266 0,-1217 118,-1217 118,-1266"/>
<text text-anchor="start" x="5" y="-1253.5" font-family="Helvetica,sans-Serif" font-size="10.00">std::vector&lt; double &gt;</text>
<text text-anchor="start" x="16.5" y="-1238.5" font-family="Helvetica,sans-Serif" font-size="10.00">+</text>
<text text-anchor="start" x="42" y="-1238.5" font-family="Helvetica,sans-Serif" font-size="10.00">elements</text>
<text text-anchor="start" x="57" y="-1223.5" font-family="Helvetica,sans-Serif" font-size="10.00"> </text>
<polygon fill="#666666" stroke="#666666" points="0,-1248.5 0,-1248.5 118,-1248.5 118,-1248.5 0,-1248.5"/>
<polygon fill="#666666" stroke="#666666" points="0,-1233.5 0,-1233.5 40,-1233.5 40,-1233.5 0,-1233.5"/>
<polygon fill="#666666" stroke="#666666" points="40,-1233.5 40,-1233.5 118,-1233.5 118,-1233.5 40,-1233.5"/>
<polygon fill="none" stroke="#666666" points="0,-1217 0,-1266 118,-1266 118,-1217 0,-1217"/>
</a>
</g>
</g>
<!-- Node10&#45;&gt;Node9 -->
<g id="edge10_Node000009_Node000010" class="edge">
<title>Node10&#45;&gt;Node9</title>
<g id="a_edge10_Node000009_Node000010"><a xlink:title=" ">
<path fill="none" stroke="#63b8ff" d="M59,-1216.88C59,-1187.2 59,-1135.57 59,-1097.77"/>
<polygon fill="none" stroke="#63b8ff" points="59,-1097.53 55,-1091.53 59,-1085.53 63,-1091.53 59,-1097.53"/>
</a>
</g>
<text text-anchor="middle" x="88" y="-1191" font-family="Helvetica,sans-Serif" font-size="10.00" fill="grey"> +elements</text>
</g>
<!-- Node11&#45;&gt;Node2 -->
<g id="edge11_Node000002_Node000011" class="edge">
<title>Node11&#45;&gt;Node2</title>
<g id="a_edge11_Node000002_Node000011"><a xlink:title=" ">
<path fill="none" stroke="#63b8ff" d="M229.84,-82.09C229.55,-157.14 228.9,-321.4 228.46,-433.89"/>
<polygon fill="none" stroke="#63b8ff" points="228.46,-433.97 232.43,-439.99 228.41,-445.97 224.43,-439.96 228.46,-433.97"/>
</a>
</g>
<text text-anchor="middle" x="253" y="-267" font-family="Helvetica,sans-Serif" font-size="10.00" fill="grey"> #inputs</text>
<text text-anchor="middle" x="253" y="-256" font-family="Helvetica,sans-Serif" font-size="10.00" fill="grey">#outputs</text>
</g>
<!-- Node12&#45;&gt;Node11 -->
<g id="edge12_Node000011_Node000012" class="edge">
<title>Node12&#45;&gt;Node11</title>
<g id="a_edge12_Node000011_Node000012"><a xlink:title=" ">
<path fill="none" stroke="#63b8ff" d="M120.1,-233.83C132.34,-200.26 154.75,-144.08 182,-100 183.68,-97.28 185.48,-94.55 187.36,-91.84"/>
<polygon fill="none" stroke="#63b8ff" points="187.36,-91.83 187.67,-84.62 194.44,-82.13 194.13,-89.34 187.36,-91.83"/>
</a>
</g>
<text text-anchor="middle" x="199" y="-103" font-family="Helvetica,sans-Serif" font-size="10.00" fill="grey"> +keys</text>
</g>
</g>
</svg>
