<?xml version="1.0" encoding="UTF-8" standalone="no"?>
<!DOCTYPE svg PUBLIC "-//W3C//DTD SVG 1.1//EN"
 "http://www.w3.org/Graphics/SVG/1.1/DTD/svg11.dtd">
<!-- Generated by graphviz version 2.43.0 (0)
 -->
<!-- Title: dnf_composer::user_interface::SimulationWindow::renderSidebarContents Pages: 1 -->
<svg width="772pt" height="344pt"
 viewBox="0.00 0.00 772.00 344.00" xmlns="http://www.w3.org/2000/svg" xmlns:xlink="http://www.w3.org/1999/xlink">
<g id="graph0" class="graph" transform="scale(1 1) rotate(0) translate(4 340)">
<title>dnf_composer::user_interface::SimulationWindow::renderSidebarContents</title>
<!-- Node1 -->
<g id="Node000001" class="node">
<title>Node1</title>
<g id="a_Node000001"><a xlink:title=" ">
<polygon fill="#999999" stroke="#666666" points="163,-188 0,-188 0,-147 163,-147 163,-188"/>
<text text-anchor="start" x="8" y="-176" font-family="Helvetica,sans-Serif" font-size="10.00">dnf_composer::user</text>
<text text-anchor="start" x="8" y="-165" font-family="Helvetica,sans-Serif" font-size="10.00">_interface::SimulationWindow</text>
<text text-anchor="middle" x="81.5" y="-154" font-family="Helvetica,sans-Serif" font-size="10.00">::renderSidebarContents</text>
</a>
</g>
</g>
<!-- Node2 -->
<g id="Node000002" class="node">
<title>Node2</title>
<g id="a_Node000002"><a xlink:href="classdnf__composer_1_1user__interface_1_1SimulationWindow.html#affb52c7f20aea6a3f5b1c62285bf6438" target="_top" xlink:title=" ">
<polygon fill="white" stroke="#666666" points="375.5,-336 212.5,-336 212.5,-295 375.5,-295 375.5,-336"/>
<text text-anchor="start" x="220.5" y="-324" font-family="Helvetica,sans-Serif" font-size="10.00">dnf_composer::user</text>
<text text-anchor="start" x="220.5" y="-313" font-family="Helvetica,sans-Serif" font-size="10.00">_interface::SimulationWindow</text>
<text text-anchor="middle" x="294" y="-302" font-family="Helvetica,sans-Serif" font-size="10.00">::renderAddElementCard</text>
</a>
</g>
</g>
<!-- Node1&#45;&gt;Node2 -->
<g id="edge1_Node000001_Node000002" class="edge">
<title>Node1&#45;&gt;Node2</title>
<g id="a_edge1_Node000001_Node000002"><a xlink:title=" ">
<path fill="none" stroke="#63b8ff" d="M97.48,-188.24C117.67,-214.75 156.05,-260.31 199,-286.5 201.31,-287.91 203.7,-289.26 206.14,-290.54"/>
<polygon fill="#63b8ff" stroke="#63b8ff" points="204.68,-293.72 215.2,-294.94 207.73,-287.42 204.68,-293.72"/>
</a>
</g>
</g>
<!-- Node3 -->
<g id="Node000003" class="node">
<title>Node3</title>
<g id="a_Node000003"><a xlink:href="classdnf__composer_1_1user__interface_1_1SimulationWindow.html#a8e2eae386da6e58b71b9e681b5bd2abc" target="_top" xlink:title=" ">
<polygon fill="white" stroke="#666666" points="375.5,-277 212.5,-277 212.5,-236 375.5,-236 375.5,-277"/>
<text text-anchor="start" x="220.5" y="-265" font-family="Helvetica,sans-Serif" font-size="10.00">dnf_composer::user</text>
<text text-anchor="start" x="220.5" y="-254" font-family="Helvetica,sans-Serif" font-size="10.00">_interface::SimulationWindow</text>
<text text-anchor="middle" x="294" y="-243" font-family="Helvetica,sans-Serif" font-size="10.00">::renderDataCard</text>
</a>
</g>
</g>
<!-- Node1&#45;&gt;Node3 -->
<g id="edge2_Node000001_Node000003" class="edge">
<title>Node1&#45;&gt;Node3</title>
<g id="a_edge2_Node000001_Node000003"><a xlink:title=" ">
<path fill="none" stroke="#63b8ff" d="M118.45,-188.11C141.09,-200.56 171.19,-216.15 199,-227.5 203.21,-229.22 207.55,-230.89 211.96,-232.51"/>
<polygon fill="#63b8ff" stroke="#63b8ff" points="211.1,-235.92 221.7,-235.96 213.45,-229.32 211.1,-235.92"/>
</a>
</g>
</g>
<!-- Node4 -->
<g id="Node000004" class="node">
<title>Node4</title>
<g id="a_Node000004"><a xlink:href="classdnf__composer_1_1user__interface_1_1SimulationWindow.html#a3630c30901d2b73b1eaa20b40825f6f4" target="_top" xlink:title=" ">
<polygon fill="white" stroke="#666666" points="389,-159 199,-159 199,-118 389,-118 389,-159"/>
<text text-anchor="start" x="207" y="-147" font-family="Helvetica,sans-Serif" font-size="10.00">dnf_composer::user</text>
<text text-anchor="start" x="207" y="-136" font-family="Helvetica,sans-Serif" font-size="10.00">_interface::SimulationWindow</text>
<text text-anchor="middle" x="294" y="-125" font-family="Helvetica,sans-Serif" font-size="10.00">::renderLogElementParametersCard</text>
</a>
</g>
</g>
<!-- Node1&#45;&gt;Node4 -->
<g id="edge3_Node000001_Node000004" class="edge">
<title>Node1&#45;&gt;Node4</title>
<g id="a_edge3_Node000001_Node000004"><a xlink:title=" ">
<path fill="none" stroke="#63b8ff" d="M163.28,-156.37C171.62,-155.22 180.17,-154.04 188.71,-152.87"/>
<polygon fill="#63b8ff" stroke="#63b8ff" points="189.29,-156.32 198.72,-151.49 188.33,-149.39 189.29,-156.32"/>
</a>
</g>
</g>
<!-- Node8 -->
<g id="Node000008" class="node">
<title>Node8</title>
<g id="a_Node000008"><a xlink:href="classdnf__composer_1_1user__interface_1_1SimulationWindow.html#ab231a4f0beb49a70451d8dc65baaa483" target="_top" xlink:title=" ">
<polygon fill="white" stroke="#666666" points="375.5,-100 212.5,-100 212.5,-59 375.5,-59 375.5,-100"/>
<text text-anchor="start" x="220.5" y="-88" font-family="Helvetica,sans-Serif" font-size="10.00">dnf_composer::user</text>
<text text-anchor="start" x="220.5" y="-77" font-family="Helvetica,sans-Serif" font-size="10.00">_interface::SimulationWindow</text>
<text text-anchor="middle" x="294" y="-66" font-family="Helvetica,sans-Serif" font-size="10.00">::renderMonitoringCard</text>
</a>
</g>
</g>
<!-- Node1&#45;&gt;Node8 -->
<g id="edge7_Node000001_Node000008" class="edge">
<title>Node1&#45;&gt;Node8</title>
<g id="a_edge7_Node000001_Node000008"><a xlink:title=" ">
<path fill="none" stroke="#63b8ff" d="M119.01,-147C141.6,-134.82 171.46,-119.63 199,-108.5 203.21,-106.8 207.56,-105.14 211.98,-103.53"/>
<polygon fill="#63b8ff" stroke="#63b8ff" points="213.46,-106.72 221.72,-100.09 211.12,-100.12 213.46,-106.72"/>
</a>
</g>
</g>
<!-- Node10 -->
<g id="Node000010" class="node">
<title>Node10</title>
<g id="a_Node000010"><a xlink:href="classdnf__composer_1_1user__interface_1_1SimulationWindow.html#a58938ca889b91293bb674ffdef45b226" target="_top" xlink:title=" ">
<polygon fill="white" stroke="#666666" points="375.5,-218 212.5,-218 212.5,-177 375.5,-177 375.5,-218"/>
<text text-anchor="start" x="220.5" y="-206" font-family="Helvetica,sans-Serif" font-size="10.00">dnf_composer::user</text>
<text text-anchor="start" x="220.5" y="-195" font-family="Helvetica,sans-Serif" font-size="10.00">_interface::SimulationWindow</text>
<text text-anchor="middle" x="294" y="-184" font-family="Helvetica,sans-Serif" font-size="10.00">::renderRemoveElementCard</text>
</a>
</g>
</g>
<!-- Node1&#45;&gt;Node10 -->
<g id="edge9_Node000001_Node000010" class="edge">
<title>Node1&#45;&gt;Node10</title>
<g id="a_edge9_Node000001_Node000010"><a xlink:title=" ">
<path fill="none" stroke="#63b8ff" d="M163.28,-179.01C176.13,-180.84 189.48,-182.75 202.53,-184.61"/>
<polygon fill="#63b8ff" stroke="#63b8ff" points="202.04,-188.07 212.43,-186.02 203.03,-181.14 202.04,-188.07"/>
</a>
</g>
</g>
<!-- Node11 -->
<g id="Node000011" class="node">
<title>Node11</title>
<g id="a_Node000011"><a xlink:href="classdnf__composer_1_1user__interface_1_1SimulationWindow.html#a1752634b611833df6dc90fe09952eaef" target="_top" xlink:title=" ">
<polygon fill="white" stroke="#666666" points="375.5,-41 212.5,-41 212.5,0 375.5,0 375.5,-41"/>
<text text-anchor="start" x="220.5" y="-29" font-family="Helvetica,sans-Serif" font-size="10.00">dnf_composer::user</text>
<text text-anchor="start" x="220.5" y="-18" font-family="Helvetica,sans-Serif" font-size="10.00">_interface::SimulationWindow</text>
<text text-anchor="middle" x="294" y="-7" font-family="Helvetica,sans-Serif" font-size="10.00">::renderSetInteractionCard</text>
</a>
</g>
</g>
<!-- Node1&#45;&gt;Node11 -->
<g id="edge11_Node000001_Node000011" class="edge">
<title>Node1&#45;&gt;Node11</title>
<g id="a_edge11_Node000001_Node000011"><a xlink:title=" ">
<path fill="none" stroke="#63b8ff" d="M97.52,-146.94C117.75,-120.66 156.18,-75.49 199,-49.5 201.32,-48.09 203.7,-46.75 206.15,-45.47"/>
<polygon fill="#63b8ff" stroke="#63b8ff" points="207.74,-48.59 215.22,-41.09 204.69,-42.29 207.74,-48.59"/>
</a>
</g>
</g>
<!-- Node5 -->
<g id="Node000005" class="node">
<title>Node5</title>
<g id="a_Node000005"><a xlink:href="namespacednf__composer_1_1element.html#a55b0e0fb6529de014e86fa1380005bba" target="_top" xlink:title="Category info for a label, or an UNKNOWN/grey fallback.">
<polygon fill="white" stroke="#666666" points="581,-206.5 439,-206.5 439,-176.5 581,-176.5 581,-206.5"/>
<text text-anchor="start" x="447" y="-194.5" font-family="Helvetica,sans-Serif" font-size="10.00">dnf_composer::element</text>
<text text-anchor="middle" x="510" y="-183.5" font-family="Helvetica,sans-Serif" font-size="10.00">::getElementCategoryInfo</text>
</a>
</g>
</g>
<!-- Node4&#45;&gt;Node5 -->
<g id="edge4_Node000004_Node000005" class="edge">
<title>Node4&#45;&gt;Node5</title>
<g id="a_edge4_Node000004_Node000005"><a xlink:title=" ">
<path fill="none" stroke="#63b8ff" d="M378.04,-159.07C397.95,-164 419.03,-169.22 438.32,-173.99"/>
<polygon fill="#63b8ff" stroke="#63b8ff" points="437.68,-177.44 448.23,-176.45 439.36,-170.65 437.68,-177.44"/>
</a>
</g>
</g>
<!-- Node7 -->
<g id="Node000007" class="node">
<title>Node7</title>
<g id="a_Node000007"><a xlink:href="namespacednf__composer_1_1tools_1_1logger.html#af64ef64b3026606a73972fdcae2ca87a" target="_top" xlink:title=" ">
<polygon fill="white" stroke="#666666" points="568,-153.5 452,-153.5 452,-123.5 568,-123.5 568,-153.5"/>
<text text-anchor="start" x="460" y="-141.5" font-family="Helvetica,sans-Serif" font-size="10.00">dnf_composer::tools</text>
<text text-anchor="middle" x="510" y="-130.5" font-family="Helvetica,sans-Serif" font-size="10.00">::logger::log</text>
</a>
</g>
</g>
<!-- Node4&#45;&gt;Node7 -->
<g id="edge6_Node000004_Node000007" class="edge">
<title>Node4&#45;&gt;Node7</title>
<g id="a_edge6_Node000004_Node000007"><a xlink:title=" ">
<path fill="none" stroke="#63b8ff" d="M389.17,-138.5C406.82,-138.5 424.93,-138.5 441.57,-138.5"/>
<polygon fill="#63b8ff" stroke="#63b8ff" points="441.71,-142 451.71,-138.5 441.71,-135 441.71,-142"/>
</a>
</g>
</g>
<!-- Node6 -->
<g id="Node000006" class="node">
<title>Node6</title>
<g id="a_Node000006"><a xlink:href="namespacednf__composer_1_1element.html#add3a3ba11f87c3c31b3060e2bb378635" target="_top" xlink:title="Maps every ElementLabel to its category info. The one place UI panels resolve an element&#39;s type/categ...">
<polygon fill="white" stroke="#666666" points="764,-206.5 631,-206.5 631,-176.5 764,-176.5 764,-206.5"/>
<text text-anchor="start" x="639" y="-194.5" font-family="Helvetica,sans-Serif" font-size="10.00">dnf_composer::element</text>
<text text-anchor="middle" x="697.5" y="-183.5" font-family="Helvetica,sans-Serif" font-size="10.00">::elementCategoryTable</text>
</a>
</g>
</g>
<!-- Node5&#45;&gt;Node6 -->
<g id="edge5_Node000005_Node000006" class="edge">
<title>Node5&#45;&gt;Node6</title>
<g id="a_edge5_Node000005_Node000006"><a xlink:title=" ">
<path fill="none" stroke="#63b8ff" d="M581.13,-191.5C594,-191.5 607.49,-191.5 620.53,-191.5"/>
<polygon fill="#63b8ff" stroke="#63b8ff" points="620.86,-195 630.86,-191.5 620.86,-188 620.86,-195"/>
</a>
</g>
</g>
<!-- Node9 -->
<g id="Node000009" class="node">
<title>Node9</title>
<g id="a_Node000009"><a xlink:href="classdnf__composer_1_1user__interface_1_1FieldMetricsWindow.html#aeea6cfdef3cefb8f22fbcf50679651fe" target="_top" xlink:title=" ">
<polygon fill="white" stroke="#666666" points="595,-100 425,-100 425,-59 595,-59 595,-100"/>
<text text-anchor="start" x="433" y="-88" font-family="Helvetica,sans-Serif" font-size="10.00">dnf_composer::user</text>
<text text-anchor="start" x="433" y="-77" font-family="Helvetica,sans-Serif" font-size="10.00">_interface::FieldMetricsWindow</text>
<text text-anchor="middle" x="510" y="-66" font-family="Helvetica,sans-Serif" font-size="10.00">::renderContents</text>
</a>
</g>
</g>
<!-- Node8&#45;&gt;Node9 -->
<g id="edge8_Node000008_Node000009" class="edge">
<title>Node8&#45;&gt;Node9</title>
<g id="a_edge8_Node000008_Node000009"><a xlink:title=" ">
<path fill="none" stroke="#63b8ff" d="M375.6,-79.5C388.31,-79.5 401.56,-79.5 414.55,-79.5"/>
<polygon fill="#63b8ff" stroke="#63b8ff" points="414.91,-83 424.91,-79.5 414.91,-76 414.91,-83"/>
</a>
</g>
</g>
<!-- Node10&#45;&gt;Node5 -->
<g id="edge10_Node000010_Node000005" class="edge">
<title>Node10&#45;&gt;Node5</title>
<g id="a_edge10_Node000010_Node000005"><a xlink:title=" ">
<path fill="none" stroke="#63b8ff" d="M375.6,-195.24C393.03,-194.75 411.46,-194.23 428.87,-193.75"/>
<polygon fill="#63b8ff" stroke="#63b8ff" points="429.1,-197.24 438.99,-193.46 428.9,-190.24 429.1,-197.24"/>
</a>
</g>
</g>
</g>
</svg>
