<?xml version="1.0" encoding="UTF-8" standalone="no"?>
<!DOCTYPE svg PUBLIC "-//W3C//DTD SVG 1.1//EN"
 "http://www.w3.org/Graphics/SVG/1.1/DTD/svg11.dtd">
<!-- Generated by graphviz version 2.43.0 (0)
 -->
<!-- Title: dnf_composer::user_interface::StatusBarWindow::drawContents Pages: 1 -->
<svg width="360pt" height="86pt"
 viewBox="0.00 0.00 360.00 86.00" xmlns="http://www.w3.org/2000/svg" xmlns:xlink="http://www.w3.org/1999/xlink">
<g id="graph0" class="graph" transform="scale(1 1) rotate(0) translate(4 82)">
<title>dnf_composer::user_interface::StatusBarWindow::drawContents</title>
<!-- Node1 -->
<g id="Node000001" class="node">
<title>Node1</title>
<g id="a_Node000001"><a xlink:title=" ">
<polygon fill="#999999" stroke="#666666" points="158,-59.5 0,-59.5 0,-18.5 158,-18.5 158,-59.5"/>
<text text-anchor="start" x="8" y="-47.5" font-family="Helvetica,sans-Serif" font-size="10.00">dnf_composer::user</text>
<text text-anchor="start" x="8" y="-36.5" font-family="Helvetica,sans-Serif" font-size="10.00">_interface::StatusBarWindow</text>
<text text-anchor="middle" x="79" y="-25.5" font-family="Helvetica,sans-Serif" font-size="10.00">::drawContents</text>
</a>
</g>
</g>
<!-- Node2 -->
<g id="Node000002" class="node">
<title>Node2</title>
<g id="a_Node000002"><a xlink:href="namespacednf__composer_1_1tools_1_1utils.html#acc349857e9ffc357a3b9e8fcd0a43e47" target="_top" xlink:title=" ">
<polygon fill="white" stroke="#666666" points="352,-78 194,-78 194,-48 352,-48 352,-78"/>
<text text-anchor="start" x="202" y="-66" font-family="Helvetica,sans-Serif" font-size="10.00">dnf_composer::tools</text>
<text text-anchor="middle" x="273" y="-55" font-family="Helvetica,sans-Serif" font-size="10.00">::utils::getProcessMemoryMb</text>
</a>
</g>
</g>
<!-- Node1&#45;&gt;Node2 -->
<g id="edge1_Node000001_Node000002" class="edge">
<title>Node1&#45;&gt;Node2</title>
<g id="a_edge1_Node000001_Node000002"><a xlink:title=" ">
<path fill="none" stroke="#63b8ff" d="M158.09,-48.76C166.6,-49.83 175.3,-50.91 183.92,-51.99"/>
<polygon fill="#63b8ff" stroke="#63b8ff" points="183.62,-55.48 193.98,-53.25 184.49,-48.53 183.62,-55.48"/>
</a>
</g>
</g>
<!-- Node3 -->
<g id="Node000003" class="node">
<title>Node3</title>
<g id="a_Node000003"><a xlink:href="classdnf__composer_1_1Application.html#a5d44fa04caa6256d1abaca0398ece286" target="_top" xlink:title=" ">
<polygon fill="white" stroke="#666666" points="346,-30 200,-30 200,0 346,0 346,-30"/>
<text text-anchor="start" x="208" y="-18" font-family="Helvetica,sans-Serif" font-size="10.00">dnf_composer::Application</text>
<text text-anchor="middle" x="273" y="-7" font-family="Helvetica,sans-Serif" font-size="10.00">::getUiScalePct</text>
</a>
</g>
</g>
<!-- Node1&#45;&gt;Node3 -->
<g id="edge2_Node000001_Node000003" class="edge">
<title>Node1&#45;&gt;Node3</title>
<g id="a_edge2_Node000001_Node000003"><a xlink:title=" ">
<path fill="none" stroke="#63b8ff" d="M158.09,-29.24C168.56,-27.93 179.32,-26.59 189.85,-25.27"/>
<polygon fill="#63b8ff" stroke="#63b8ff" points="190.37,-28.73 199.86,-24.02 189.5,-21.79 190.37,-28.73"/>
</a>
</g>
</g>
</g>
</svg>
