<?xml version="1.0" encoding="UTF-8" standalone="no"?>
<!DOCTYPE svg PUBLIC "-//W3C//DTD SVG 1.1//EN"
 "http://www.w3.org/Graphics/SVG/1.1/DTD/svg11.dtd">
<!-- Generated by graphviz version 2.43.0 (0)
 -->
<!-- Title: dnf_composer::user_interface::SimulationWindow::renderRemoveElementCard Pages: 1 -->
<svg width="518pt" height="49pt"
 viewBox="0.00 0.00 518.00 49.00" xmlns="http://www.w3.org/2000/svg" xmlns:xlink="http://www.w3.org/1999/xlink">
<g id="graph0" class="graph" transform="scale(1 1) rotate(0) translate(4 45)">
<title>dnf_composer::user_interface::SimulationWindow::renderRemoveElementCard</title>
<!-- Node1 -->
<g id="Node000001" class="node">
<title>Node1</title>
<g id="a_Node000001"><a xlink:title=" ">
<polygon fill="#999999" stroke="#666666" points="163,-41 0,-41 0,0 163,0 163,-41"/>
<text text-anchor="start" x="8" y="-29" font-family="Helvetica,sans-Serif" font-size="10.00">dnf_composer::user</text>
<text text-anchor="start" x="8" y="-18" font-family="Helvetica,sans-Serif" font-size="10.00">_interface::SimulationWindow</text>
<text text-anchor="middle" x="81.5" y="-7" font-family="Helvetica,sans-Serif" font-size="10.00">::renderRemoveElementCard</text>
</a>
</g>
</g>
<!-- Node2 -->
<g id="Node000002" class="node">
<title>Node2</title>
<g id="a_Node000002"><a xlink:href="namespacednf__composer_1_1element.html#a55b0e0fb6529de014e86fa1380005bba" target="_top" xlink:title="Category info for a label, or an UNKNOWN/grey fallback.">
<polygon fill="white" stroke="#666666" points="341,-35.5 199,-35.5 199,-5.5 341,-5.5 341,-35.5"/>
<text text-anchor="start" x="207" y="-23.5" font-family="Helvetica,sans-Serif" font-size="10.00">dnf_composer::element</text>
<text text-anchor="middle" x="270" y="-12.5" font-family="Helvetica,sans-Serif" font-size="10.00">::getElementCategoryInfo</text>
</a>
</g>
</g>
<!-- Node1&#45;&gt;Node2 -->
<g id="edge1_Node000001_Node000002" class="edge">
<title>Node1&#45;&gt;Node2</title>
<g id="a_edge1_Node000001_Node000002"><a xlink:title=" ">
<path fill="none" stroke="#63b8ff" d="M163.22,-20.5C171.69,-20.5 180.29,-20.5 188.76,-20.5"/>
<polygon fill="#63b8ff" stroke="#63b8ff" points="188.99,-24 198.99,-20.5 188.99,-17 188.99,-24"/>
</a>
</g>
</g>
<!-- Node3 -->
<g id="Node000003" class="node">
<title>Node3</title>
<g id="a_Node000003"><a xlink:href="namespacednf__composer_1_1element.html#add3a3ba11f87c3c31b3060e2bb378635" target="_top" xlink:title="Maps every ElementLabel to its category info. The one place UI panels resolve an element&#39;s type/categ...">
<polygon fill="white" stroke="#666666" points="510,-35.5 377,-35.5 377,-5.5 510,-5.5 510,-35.5"/>
<text text-anchor="start" x="385" y="-23.5" font-family="Helvetica,sans-Serif" font-size="10.00">dnf_composer::element</text>
<text text-anchor="middle" x="443.5" y="-12.5" font-family="Helvetica,sans-Serif" font-size="10.00">::elementCategoryTable</text>
</a>
</g>
</g>
<!-- Node2&#45;&gt;Node3 -->
<g id="edge2_Node000002_Node000003" class="edge">
<title>Node2&#45;&gt;Node3</title>
<g id="a_edge2_Node000002_Node000003"><a xlink:title=" ">
<path fill="none" stroke="#63b8ff" d="M341.25,-20.5C349.6,-20.5 358.16,-20.5 366.58,-20.5"/>
<polygon fill="#63b8ff" stroke="#63b8ff" points="366.78,-24 376.78,-20.5 366.78,-17 366.78,-24"/>
</a>
</g>
</g>
</g>
</svg>
