<?xml version="1.0" encoding="UTF-8" standalone="no"?>
<!DOCTYPE svg PUBLIC "-//W3C//DTD SVG 1.1//EN"
 "http://www.w3.org/Graphics/SVG/1.1/DTD/svg11.dtd">
<!-- Generated by graphviz version 2.43.0 (0)
 -->
<!-- Title: dnf_composer::element::OscillatoryKernel::step Pages: 1 -->
<svg width="538pt" height="230pt"
 viewBox="0.00 0.00 538.00 230.00" xmlns="http://www.w3.org/2000/svg" xmlns:xlink="http://www.w3.org/1999/xlink">
<g id="graph0" class="graph" transform="scale(1 1) rotate(0) translate(4 226)">
<title>dnf_composer::element::OscillatoryKernel::step</title>
<!-- Node1 -->
<g id="Node000001" class="node">
<title>Node1</title>
<g id="a_Node000001"><a xlink:title="Advance the element by one time step.">
<polygon fill="#999999" stroke="#666666" points="133,-126 0,-126 0,-96 133,-96 133,-126"/>
<text text-anchor="start" x="8" y="-114" font-family="Helvetica,sans-Serif" font-size="10.00">dnf_composer::element</text>
<text text-anchor="middle" x="66.5" y="-103" font-family="Helvetica,sans-Serif" font-size="10.00">::OscillatoryKernel::step</text>
</a>
</g>
</g>
<!-- Node2 -->
<g id="Node000002" class="node">
<title>Node2</title>
<g id="a_Node000002"><a xlink:href="namespacednf__composer_1_1tools_1_1math.html#acaa6baa4408e4f22fdc63b4e0c86a21e" target="_top" xlink:title=" ">
<polygon fill="white" stroke="#666666" points="324.5,-222 190.5,-222 190.5,-192 324.5,-192 324.5,-222"/>
<text text-anchor="start" x="198.5" y="-210" font-family="Helvetica,sans-Serif" font-size="10.00">dnf_composer::tools</text>
<text text-anchor="middle" x="257.5" y="-199" font-family="Helvetica,sans-Serif" font-size="10.00">::math::conv_same_into</text>
</a>
</g>
</g>
<!-- Node1&#45;&gt;Node2 -->
<g id="edge1_Node000001_Node000002" class="edge">
<title>Node1&#45;&gt;Node2</title>
<g id="a_edge1_Node000001_Node000002"><a xlink:title=" ">
<path fill="none" stroke="#63b8ff" d="M84.65,-126.04C103.93,-142.24 136.78,-167.74 169,-183 173.12,-184.95 177.42,-186.76 181.81,-188.45"/>
<polygon fill="#63b8ff" stroke="#63b8ff" points="180.94,-191.86 191.54,-191.94 183.31,-185.27 180.94,-191.86"/>
</a>
</g>
</g>
<!-- Node3 -->
<g id="Node000003" class="node">
<title>Node3</title>
<g id="a_Node000003"><a xlink:href="namespacednf__composer_1_1tools_1_1math.html#ad862439d033f9f7a74671d9fd5916e6d" target="_top" xlink:title=" ">
<polygon fill="white" stroke="#666666" points="323,-174 192,-174 192,-144 323,-144 323,-174"/>
<text text-anchor="start" x="200" y="-162" font-family="Helvetica,sans-Serif" font-size="10.00">dnf_composer::tools</text>
<text text-anchor="middle" x="257.5" y="-151" font-family="Helvetica,sans-Serif" font-size="10.00">::math::conv_valid_into</text>
</a>
</g>
</g>
<!-- Node1&#45;&gt;Node3 -->
<g id="edge2_Node000001_Node000003" class="edge">
<title>Node1&#45;&gt;Node3</title>
<g id="a_edge2_Node000001_Node000003"><a xlink:title=" ">
<path fill="none" stroke="#63b8ff" d="M126.78,-126.06C146.05,-130.95 167.59,-136.42 187.5,-141.48"/>
<polygon fill="#63b8ff" stroke="#63b8ff" points="186.87,-144.93 197.43,-144 188.6,-138.14 186.87,-144.93"/>
</a>
</g>
</g>
<!-- Node4 -->
<g id="Node000004" class="node">
<title>Node4</title>
<g id="a_Node000004"><a xlink:href="namespacednf__composer_1_1tools_1_1math.html#aec1f39db13636109a1de5b032117e7ad" target="_top" xlink:title=" ">
<polygon fill="white" stroke="#666666" points="346,-126 169,-126 169,-96 346,-96 346,-126"/>
<text text-anchor="start" x="177" y="-114" font-family="Helvetica,sans-Serif" font-size="10.00">dnf_composer::tools</text>
<text text-anchor="middle" x="257.5" y="-103" font-family="Helvetica,sans-Serif" font-size="10.00">::math::obtainCircularVector_into</text>
</a>
</g>
</g>
<!-- Node1&#45;&gt;Node4 -->
<g id="edge3_Node000001_Node000004" class="edge">
<title>Node1&#45;&gt;Node4</title>
<g id="a_edge3_Node000001_Node000004"><a xlink:title=" ">
<path fill="none" stroke="#63b8ff" d="M133.07,-111C141.35,-111 149.95,-111 158.59,-111"/>
<polygon fill="#63b8ff" stroke="#63b8ff" points="158.74,-114.5 168.74,-111 158.74,-107.5 158.74,-114.5"/>
</a>
</g>
</g>
<!-- Node5 -->
<g id="Node000005" class="node">
<title>Node5</title>
<g id="a_Node000005"><a xlink:href="namespacednf__composer_1_1tools_1_1math.html#ae470bf545f26f68babb6ce2731349b52" target="_top" xlink:title=" ">
<polygon fill="white" stroke="#666666" points="317,-78 198,-78 198,-48 317,-48 317,-78"/>
<text text-anchor="start" x="206" y="-66" font-family="Helvetica,sans-Serif" font-size="10.00">dnf_composer::tools</text>
<text text-anchor="middle" x="257.5" y="-55" font-family="Helvetica,sans-Serif" font-size="10.00">::math::resampleInto</text>
</a>
</g>
</g>
<!-- Node1&#45;&gt;Node5 -->
<g id="edge4_Node000001_Node000005" class="edge">
<title>Node1&#45;&gt;Node5</title>
<g id="a_edge4_Node000001_Node000005"><a xlink:title=" ">
<path fill="none" stroke="#63b8ff" d="M126.78,-95.94C146.23,-91.01 167.99,-85.48 188.06,-80.38"/>
<polygon fill="#63b8ff" stroke="#63b8ff" points="188.92,-83.77 197.75,-77.92 187.2,-76.99 188.92,-83.77"/>
</a>
</g>
</g>
<!-- Node6 -->
<g id="Node000006" class="node">
<title>Node6</title>
<g id="a_Node000006"><a xlink:href="classdnf__composer_1_1element_1_1Element.html#a87401af54d46e1cf99d2755d3fce0a9a" target="_top" xlink:title="Pull data from all registered input elements into this element&#39;s components.">
<polygon fill="white" stroke="#666666" points="323.5,-30 191.5,-30 191.5,0 323.5,0 323.5,-30"/>
<text text-anchor="start" x="199.5" y="-18" font-family="Helvetica,sans-Serif" font-size="10.00">dnf_composer::element</text>
<text text-anchor="middle" x="257.5" y="-7" font-family="Helvetica,sans-Serif" font-size="10.00">::Element::updateInput</text>
</a>
</g>
</g>
<!-- Node1&#45;&gt;Node6 -->
<g id="edge5_Node000001_Node000006" class="edge">
<title>Node1&#45;&gt;Node6</title>
<g id="a_edge5_Node000001_Node000006"><a xlink:title=" ">
<path fill="none" stroke="#63b8ff" d="M84.65,-95.96C103.93,-79.76 136.78,-54.26 169,-39 173.12,-37.05 177.42,-35.24 181.81,-33.55"/>
<polygon fill="#63b8ff" stroke="#63b8ff" points="183.31,-36.73 191.54,-30.06 180.94,-30.14 183.31,-36.73"/>
</a>
</g>
</g>
<!-- Node7 -->
<g id="Node000007" class="node">
<title>Node7</title>
<g id="a_Node000007"><a xlink:href="classdnf__composer_1_1element_1_1Element.html#a48e4fcaeda8316d79dfaa8de41cec87e" target="_top" xlink:title="Cache raw pointers to input component data. Call after all element init()s complete.">
<polygon fill="white" stroke="#666666" points="530,-30 382,-30 382,0 530,0 530,-30"/>
<text text-anchor="start" x="390" y="-18" font-family="Helvetica,sans-Serif" font-size="10.00">dnf_composer::element</text>
<text text-anchor="middle" x="456" y="-7" font-family="Helvetica,sans-Serif" font-size="10.00">::Element::buildInputCache</text>
</a>
</g>
</g>
<!-- Node6&#45;&gt;Node7 -->
<g id="edge6_Node000006_Node000007" class="edge">
<title>Node6&#45;&gt;Node7</title>
<g id="a_edge6_Node000006_Node000007"><a xlink:title=" ">
<path fill="none" stroke="#63b8ff" d="M323.66,-15C338.96,-15 355.48,-15 371.47,-15"/>
<polygon fill="#63b8ff" stroke="#63b8ff" points="371.88,-18.5 381.88,-15 371.88,-11.5 371.88,-18.5"/>
</a>
</g>
</g>
</g>
</svg>
