<?xml version="1.0" encoding="UTF-8" standalone="no"?>
<!DOCTYPE svg PUBLIC "-//W3C//DTD SVG 1.1//EN"
 "http://www.w3.org/Graphics/SVG/1.1/DTD/svg11.dtd">
<!-- Generated by graphviz version 2.43.0 (0)
 -->
<!-- Title: dnf_composer::element::Expand::step Pages: 1 -->
<svg width="524pt" height="86pt"
 viewBox="0.00 0.00 524.00 86.00" xmlns="http://www.w3.org/2000/svg" xmlns:xlink="http://www.w3.org/1999/xlink">
<g id="graph0" class="graph" transform="scale(1 1) rotate(0) translate(4 82)">
<title>dnf_composer::element::Expand::step</title>
<!-- Node1 -->
<g id="Node000001" class="node">
<title>Node1</title>
<g id="a_Node000001"><a xlink:title="Advance the element by one time step.">
<polygon fill="#999999" stroke="#666666" points="132,-54 0,-54 0,-24 132,-24 132,-54"/>
<text text-anchor="start" x="8" y="-42" font-family="Helvetica,sans-Serif" font-size="10.00">dnf_composer::element</text>
<text text-anchor="middle" x="66" y="-31" font-family="Helvetica,sans-Serif" font-size="10.00">::Expand::step</text>
</a>
</g>
</g>
<!-- Node2 -->
<g id="Node000002" class="node">
<title>Node2</title>
<g id="a_Node000002"><a xlink:href="namespacednf__composer_1_1tools_1_1math.html#a664e422125516c1dbc86e7adda106c47" target="_top" xlink:title=" ">
<polygon fill="white" stroke="#666666" points="332,-78 168,-78 168,-48 332,-48 332,-78"/>
<text text-anchor="start" x="176" y="-66" font-family="Helvetica,sans-Serif" font-size="10.00">dnf_composer::tools</text>
<text text-anchor="middle" x="250" y="-55" font-family="Helvetica,sans-Serif" font-size="10.00">::math::broadcast1DTo2D_into</text>
</a>
</g>
</g>
<!-- Node1&#45;&gt;Node2 -->
<g id="edge1_Node000001_Node000002" class="edge">
<title>Node1&#45;&gt;Node2</title>
<g id="a_edge1_Node000001_Node000002"><a xlink:title=" ">
<path fill="none" stroke="#63b8ff" d="M132.19,-47.6C140.48,-48.69 149.07,-49.82 157.67,-50.96"/>
<polygon fill="#63b8ff" stroke="#63b8ff" points="157.38,-54.45 167.75,-52.29 158.29,-47.51 157.38,-54.45"/>
</a>
</g>
</g>
<!-- Node3 -->
<g id="Node000003" class="node">
<title>Node3</title>
<g id="a_Node000003"><a xlink:href="classdnf__composer_1_1element_1_1Element.html#a87401af54d46e1cf99d2755d3fce0a9a" target="_top" xlink:title="Pull data from all registered input elements into this element&#39;s components.">
<polygon fill="white" stroke="#666666" points="316,-30 184,-30 184,0 316,0 316,-30"/>
<text text-anchor="start" x="192" y="-18" font-family="Helvetica,sans-Serif" font-size="10.00">dnf_composer::element</text>
<text text-anchor="middle" x="250" y="-7" font-family="Helvetica,sans-Serif" font-size="10.00">::Element::updateInput</text>
</a>
</g>
</g>
<!-- Node1&#45;&gt;Node3 -->
<g id="edge2_Node000001_Node000003" class="edge">
<title>Node1&#45;&gt;Node3</title>
<g id="a_edge2_Node000001_Node000003"><a xlink:title=" ">
<path fill="none" stroke="#63b8ff" d="M132.19,-30.4C145.73,-28.62 160.11,-26.72 173.97,-24.89"/>
<polygon fill="#63b8ff" stroke="#63b8ff" points="174.5,-28.35 183.96,-23.58 173.59,-21.41 174.5,-28.35"/>
</a>
</g>
</g>
<!-- Node4 -->
<g id="Node000004" class="node">
<title>Node4</title>
<g id="a_Node000004"><a xlink:href="classdnf__composer_1_1element_1_1Element.html#a48e4fcaeda8316d79dfaa8de41cec87e" target="_top" xlink:title="Cache raw pointers to input component data. Call after all element init()s complete.">
<polygon fill="white" stroke="#666666" points="516,-30 368,-30 368,0 516,0 516,-30"/>
<text text-anchor="start" x="376" y="-18" font-family="Helvetica,sans-Serif" font-size="10.00">dnf_composer::element</text>
<text text-anchor="middle" x="442" y="-7" font-family="Helvetica,sans-Serif" font-size="10.00">::Element::buildInputCache</text>
</a>
</g>
</g>
<!-- Node3&#45;&gt;Node4 -->
<g id="edge3_Node000003_Node000004" class="edge">
<title>Node3&#45;&gt;Node4</title>
<g id="a_edge3_Node000003_Node000004"><a xlink:title=" ">
<path fill="none" stroke="#63b8ff" d="M316.12,-15C329.52,-15 343.8,-15 357.74,-15"/>
<polygon fill="#63b8ff" stroke="#63b8ff" points="357.81,-18.5 367.81,-15 357.81,-11.5 357.81,-18.5"/>
</a>
</g>
</g>
</g>
</svg>
