<?xml version="1.0" encoding="UTF-8" standalone="no"?>
<!DOCTYPE svg PUBLIC "-//W3C//DTD SVG 1.1//EN"
 "http://www.w3.org/Graphics/SVG/1.1/DTD/svg11.dtd">
<!-- Generated by graphviz version 2.43.0 (0)
 -->
<!-- Title: dnf_composer::element::Element::getUniqueName Pages: 1 -->
<svg width="578pt" height="854pt"
 viewBox="0.00 0.00 578.00 854.00" xmlns="http://www.w3.org/2000/svg" xmlns:xlink="http://www.w3.org/1999/xlink">
<g id="graph0" class="graph" transform="scale(1 1) rotate(0) translate(4 850)">
<title>dnf_composer::element::Element::getUniqueName</title>
<!-- Node1 -->
<g id="Node000001" class="node">
<title>Node1</title>
<g id="a_Node000001"><a xlink:title=" ">
<polygon fill="#999999" stroke="#666666" points="570,-414 421,-414 421,-384 570,-384 570,-414"/>
<text text-anchor="start" x="429" y="-402" font-family="Helvetica,sans-Serif" font-size="10.00">dnf_composer::element</text>
<text text-anchor="middle" x="495.5" y="-391" font-family="Helvetica,sans-Serif" font-size="10.00">::Element::getUniqueName</text>
</a>
</g>
</g>
<!-- Node2 -->
<g id="Node000002" class="node">
<title>Node2</title>
<g id="a_Node000002"><a xlink:href="classdnf__composer_1_1element_1_1Element.html#aed78b4e2f69bf55673030220bbef6650" target="_top" xlink:title="Register inputElement as an upstream source for this element.">
<polygon fill="white" stroke="#666666" points="370.5,-711 238.5,-711 238.5,-681 370.5,-681 370.5,-711"/>
<text text-anchor="start" x="246.5" y="-699" font-family="Helvetica,sans-Serif" font-size="10.00">dnf_composer::element</text>
<text text-anchor="middle" x="304.5" y="-688" font-family="Helvetica,sans-Serif" font-size="10.00">::Element::addInput</text>
</a>
</g>
</g>
<!-- Node1&#45;&gt;Node2 -->
<g id="edge1_Node000001_Node000002" class="edge">
<title>Node1&#45;&gt;Node2</title>
<g id="a_edge1_Node000001_Node000002"><a xlink:title=" ">
<path fill="none" stroke="#63b8ff" d="M490.52,-424.18C481.18,-475.48 453.24,-593.11 385,-662 377.18,-669.89 367.24,-676.06 357.06,-680.85"/>
<polygon fill="#63b8ff" stroke="#63b8ff" points="493.98,-424.73 492.24,-414.28 487.08,-423.53 493.98,-424.73"/>
</a>
</g>
</g>
<!-- Node3 -->
<g id="Node000003" class="node">
<title>Node3</title>
<g id="a_Node000003"><a xlink:href="classdnf__composer_1_1element_1_1Collapse.html#a253aeba5c2ce116d81e00300270ec9b4" target="_top" xlink:title="Register inputElement as an upstream source for this element.">
<polygon fill="white" stroke="#666666" points="160,-846 28,-846 28,-816 160,-816 160,-846"/>
<text text-anchor="start" x="36" y="-834" font-family="Helvetica,sans-Serif" font-size="10.00">dnf_composer::element</text>
<text text-anchor="middle" x="94" y="-823" font-family="Helvetica,sans-Serif" font-size="10.00">::Collapse::addInput</text>
</a>
</g>
</g>
<!-- Node1&#45;&gt;Node3 -->
<g id="edge7_Node000001_Node000003" class="edge">
<title>Node1&#45;&gt;Node3</title>
<g id="a_edge7_Node000001_Node000003"><a xlink:title=" ">
<path fill="none" stroke="#63b8ff" d="M495.02,-424.68C494.89,-491.42 484.83,-671.64 385,-765 324.28,-821.78 225.23,-833.25 160.08,-833.94"/>
<polygon fill="#63b8ff" stroke="#63b8ff" points="498.52,-424.25 494.96,-414.27 491.52,-424.29 498.52,-424.25"/>
</a>
</g>
</g>
<!-- Node4 -->
<g id="Node000004" class="node">
<title>Node4</title>
<g id="a_Node000004"><a xlink:href="classdnf__composer_1_1element_1_1Expand.html#ac294cacc5fe3594231ac34e9d7b81053" target="_top" xlink:title="Register inputElement as an upstream source for this element.">
<polygon fill="white" stroke="#666666" points="160,-798 28,-798 28,-768 160,-768 160,-798"/>
<text text-anchor="start" x="36" y="-786" font-family="Helvetica,sans-Serif" font-size="10.00">dnf_composer::element</text>
<text text-anchor="middle" x="94" y="-775" font-family="Helvetica,sans-Serif" font-size="10.00">::Expand::addInput</text>
</a>
</g>
</g>
<!-- Node1&#45;&gt;Node4 -->
<g id="edge8_Node000001_Node000004" class="edge">
<title>Node1&#45;&gt;Node4</title>
<g id="a_edge8_Node000001_Node000004"><a xlink:title=" ">
<path fill="none" stroke="#63b8ff" d="M493.83,-424.47C490.78,-485.42 474.18,-640.52 385,-720 323.27,-775.02 224.95,-785.81 160.19,-786.21"/>
<polygon fill="#63b8ff" stroke="#63b8ff" points="497.34,-424.36 494.26,-414.22 490.34,-424.07 497.34,-424.36"/>
</a>
</g>
</g>
<!-- Node6 -->
<g id="Node000006" class="node">
<title>Node6</title>
<g id="a_Node000006"><a xlink:href="classdnf__composer_1_1element_1_1Resize.html#ae235a4df6fc8ac7a35eb783d9cd383b0" target="_top" xlink:title="Register inputElement as an upstream source for this element.">
<polygon fill="white" stroke="#666666" points="160,-702 28,-702 28,-672 160,-672 160,-702"/>
<text text-anchor="start" x="36" y="-690" font-family="Helvetica,sans-Serif" font-size="10.00">dnf_composer::element</text>
<text text-anchor="middle" x="94" y="-679" font-family="Helvetica,sans-Serif" font-size="10.00">::Resize::addInput</text>
</a>
</g>
</g>
<!-- Node1&#45;&gt;Node6 -->
<g id="edge9_Node000001_Node000006" class="edge">
<title>Node1&#45;&gt;Node6</title>
<g id="a_edge9_Node000001_Node000006"><a xlink:title=" ">
<path fill="none" stroke="#63b8ff" d="M488.71,-424.01C477.05,-468.58 446.48,-561.69 385,-611 350.59,-638.6 234.61,-662.97 160.17,-676.29"/>
<polygon fill="#63b8ff" stroke="#63b8ff" points="492.11,-424.83 491.15,-414.28 485.32,-423.12 492.11,-424.83"/>
</a>
</g>
</g>
<!-- Node7 -->
<g id="Node000007" class="node">
<title>Node7</title>
<g id="a_Node000007"><a xlink:href="classdnf__composer_1_1element_1_1Resize2D.html#a404491583299e2a0455232c99087d505" target="_top" xlink:title="Register inputElement as an upstream source for this element.">
<polygon fill="white" stroke="#666666" points="160,-654 28,-654 28,-624 160,-624 160,-654"/>
<text text-anchor="start" x="36" y="-642" font-family="Helvetica,sans-Serif" font-size="10.00">dnf_composer::element</text>
<text text-anchor="middle" x="94" y="-631" font-family="Helvetica,sans-Serif" font-size="10.00">::Resize2D::addInput</text>
</a>
</g>
</g>
<!-- Node1&#45;&gt;Node7 -->
<g id="edge10_Node000001_Node000007" class="edge">
<title>Node1&#45;&gt;Node7</title>
<g id="a_edge10_Node000001_Node000007"><a xlink:title=" ">
<path fill="none" stroke="#63b8ff" d="M485.37,-423.57C470.33,-460.58 436.73,-530.2 385,-567 318.1,-614.58 223.1,-630.85 160.3,-636.34"/>
<polygon fill="#63b8ff" stroke="#63b8ff" points="488.71,-424.64 489.12,-414.05 482.2,-422.08 488.71,-424.64"/>
</a>
</g>
</g>
<!-- Node8 -->
<g id="Node000008" class="node">
<title>Node8</title>
<g id="a_Node000008"><a xlink:href="classdnf__composer_1_1element_1_1Collapse.html#aac1829e73a37f4021417c1d979ea86c1" target="_top" xlink:title="Initialize the element (called once before the simulation loop).">
<polygon fill="white" stroke="#666666" points="370.5,-558 238.5,-558 238.5,-528 370.5,-528 370.5,-558"/>
<text text-anchor="start" x="246.5" y="-546" font-family="Helvetica,sans-Serif" font-size="10.00">dnf_composer::element</text>
<text text-anchor="middle" x="304.5" y="-535" font-family="Helvetica,sans-Serif" font-size="10.00">::Collapse::init</text>
</a>
</g>
</g>
<!-- Node1&#45;&gt;Node8 -->
<g id="edge11_Node000001_Node000008" class="edge">
<title>Node1&#45;&gt;Node8</title>
<g id="a_edge11_Node000001_Node000008"><a xlink:title=" ">
<path fill="none" stroke="#63b8ff" d="M478.79,-422.83C459.72,-449.95 425.09,-493.74 385,-519 379.63,-522.38 373.76,-525.31 367.72,-527.84"/>
<polygon fill="#63b8ff" stroke="#63b8ff" points="481.86,-424.55 484.65,-414.33 476.1,-420.58 481.86,-424.55"/>
</a>
</g>
</g>
<!-- Node11 -->
<g id="Node000011" class="node">
<title>Node11</title>
<g id="a_Node000011"><a xlink:href="classdnf__composer_1_1element_1_1Expand.html#ac6a1f8de47cf070ac116ef15ea042dfc" target="_top" xlink:title="Initialize the element (called once before the simulation loop).">
<polygon fill="white" stroke="#666666" points="370.5,-510 238.5,-510 238.5,-480 370.5,-480 370.5,-510"/>
<text text-anchor="start" x="246.5" y="-498" font-family="Helvetica,sans-Serif" font-size="10.00">dnf_composer::element</text>
<text text-anchor="middle" x="304.5" y="-487" font-family="Helvetica,sans-Serif" font-size="10.00">::Expand::init</text>
</a>
</g>
</g>
<!-- Node1&#45;&gt;Node11 -->
<g id="edge14_Node000001_Node000011" class="edge">
<title>Node1&#45;&gt;Node11</title>
<g id="a_edge14_Node000001_Node000011"><a xlink:title=" ">
<path fill="none" stroke="#63b8ff" d="M467.07,-420.27C445.68,-436.03 414.71,-457.11 385,-471 377.95,-474.3 370.33,-477.27 362.71,-479.91"/>
<polygon fill="#63b8ff" stroke="#63b8ff" points="469.42,-422.88 475.33,-414.09 465.23,-417.27 469.42,-422.88"/>
</a>
</g>
</g>
<!-- Node14 -->
<g id="Node000014" class="node">
<title>Node14</title>
<g id="a_Node000014"><a xlink:href="classdnf__composer_1_1element_1_1GaussStimulus.html#a3677ed68684c7cd362e7e54f42fafb06" target="_top" xlink:title="Initialize the element (called once before the simulation loop).">
<polygon fill="white" stroke="#666666" points="370.5,-462 238.5,-462 238.5,-432 370.5,-432 370.5,-462"/>
<text text-anchor="start" x="246.5" y="-450" font-family="Helvetica,sans-Serif" font-size="10.00">dnf_composer::element</text>
<text text-anchor="middle" x="304.5" y="-439" font-family="Helvetica,sans-Serif" font-size="10.00">::GaussStimulus::init</text>
</a>
</g>
</g>
<!-- Node1&#45;&gt;Node14 -->
<g id="edge17_Node000001_Node000014" class="edge">
<title>Node1&#45;&gt;Node14</title>
<g id="a_edge17_Node000001_Node000014"><a xlink:title=" ">
<path fill="none" stroke="#63b8ff" d="M425.28,-416.58C405.36,-421.64 383.82,-427.11 364.57,-432"/>
<polygon fill="#63b8ff" stroke="#63b8ff" points="426.39,-419.91 435.22,-414.06 424.66,-413.13 426.39,-419.91"/>
</a>
</g>
</g>
<!-- Node16 -->
<g id="Node000016" class="node">
<title>Node16</title>
<g id="a_Node000016"><a xlink:href="classdnf__composer_1_1element_1_1GaussStimulus2D.html#a942b7e1646c800e33517bf0d694eb128" target="_top" xlink:title="Initialize the element (called once before the simulation loop).">
<polygon fill="white" stroke="#666666" points="370.5,-414 238.5,-414 238.5,-384 370.5,-384 370.5,-414"/>
<text text-anchor="start" x="246.5" y="-402" font-family="Helvetica,sans-Serif" font-size="10.00">dnf_composer::element</text>
<text text-anchor="middle" x="304.5" y="-391" font-family="Helvetica,sans-Serif" font-size="10.00">::GaussStimulus2D::init</text>
</a>
</g>
</g>
<!-- Node1&#45;&gt;Node16 -->
<g id="edge19_Node000001_Node000016" class="edge">
<title>Node1&#45;&gt;Node16</title>
<g id="a_edge19_Node000001_Node000016"><a xlink:title=" ">
<path fill="none" stroke="#63b8ff" d="M410.69,-399C397.25,-399 383.52,-399 370.61,-399"/>
<polygon fill="#63b8ff" stroke="#63b8ff" points="410.89,-402.5 420.89,-399 410.89,-395.5 410.89,-402.5"/>
</a>
</g>
</g>
<!-- Node18 -->
<g id="Node000018" class="node">
<title>Node18</title>
<g id="a_Node000018"><a xlink:href="classdnf__composer_1_1element_1_1TimedGaussStimulus.html#a7cb7acb2e4c8ece790553cb21d4c33dd" target="_top" xlink:title="Initialize the element (called once before the simulation loop).">
<polygon fill="white" stroke="#666666" points="378.5,-366 230.5,-366 230.5,-336 378.5,-336 378.5,-366"/>
<text text-anchor="start" x="238.5" y="-354" font-family="Helvetica,sans-Serif" font-size="10.00">dnf_composer::element</text>
<text text-anchor="middle" x="304.5" y="-343" font-family="Helvetica,sans-Serif" font-size="10.00">::TimedGaussStimulus::init</text>
</a>
</g>
</g>
<!-- Node1&#45;&gt;Node18 -->
<g id="edge21_Node000001_Node000018" class="edge">
<title>Node1&#45;&gt;Node18</title>
<g id="a_edge21_Node000001_Node000018"><a xlink:title=" ">
<path fill="none" stroke="#63b8ff" d="M425.28,-381.42C405.36,-376.36 383.82,-370.89 364.57,-366"/>
<polygon fill="#63b8ff" stroke="#63b8ff" points="424.66,-384.87 435.22,-383.94 426.39,-378.09 424.66,-384.87"/>
</a>
</g>
</g>
<!-- Node20 -->
<g id="Node000020" class="node">
<title>Node20</title>
<g id="a_Node000020"><a xlink:href="classdnf__composer_1_1element_1_1TimedGaussStimulus2D.html#a283b859099270f4c90ae2aef6fefb30b" target="_top" xlink:title="Initialize the element (called once before the simulation loop).">
<polygon fill="white" stroke="#666666" points="385,-318 224,-318 224,-288 385,-288 385,-318"/>
<text text-anchor="start" x="232" y="-306" font-family="Helvetica,sans-Serif" font-size="10.00">dnf_composer::element</text>
<text text-anchor="middle" x="304.5" y="-295" font-family="Helvetica,sans-Serif" font-size="10.00">::TimedGaussStimulus2D::init</text>
</a>
</g>
</g>
<!-- Node1&#45;&gt;Node20 -->
<g id="edge23_Node000001_Node000020" class="edge">
<title>Node1&#45;&gt;Node20</title>
<g id="a_edge23_Node000001_Node000020"><a xlink:title=" ">
<path fill="none" stroke="#63b8ff" d="M467.07,-377.73C445.68,-361.97 414.71,-340.89 385,-327 377.95,-323.7 370.33,-320.73 362.71,-318.09"/>
<polygon fill="#63b8ff" stroke="#63b8ff" points="465.23,-380.73 475.33,-383.91 469.42,-375.12 465.23,-380.73"/>
</a>
</g>
</g>
<!-- Node22 -->
<g id="Node000022" class="node">
<title>Node22</title>
<g id="a_Node000022"><a xlink:href="classdnf__composer_1_1element_1_1FieldCoupling.html#aed8043b5951aea5276d37e06b26f04a7" target="_top" xlink:title="Load the weight matrix from a binary file in weightsDirectory.">
<polygon fill="white" stroke="#666666" points="382,-270 227,-270 227,-240 382,-240 382,-270"/>
<text text-anchor="start" x="235" y="-258" font-family="Helvetica,sans-Serif" font-size="10.00">dnf_composer::element</text>
<text text-anchor="middle" x="304.5" y="-247" font-family="Helvetica,sans-Serif" font-size="10.00">::FieldCoupling::readWeights</text>
</a>
</g>
</g>
<!-- Node1&#45;&gt;Node22 -->
<g id="edge25_Node000001_Node000022" class="edge">
<title>Node1&#45;&gt;Node22</title>
<g id="a_edge25_Node000001_Node000022"><a xlink:title=" ">
<path fill="none" stroke="#63b8ff" d="M478.79,-375.17C459.72,-348.05 425.09,-304.26 385,-279 379.63,-275.62 373.76,-272.69 367.72,-270.16"/>
<polygon fill="#63b8ff" stroke="#63b8ff" points="476.1,-377.42 484.65,-383.67 481.86,-373.45 476.1,-377.42"/>
</a>
</g>
</g>
<!-- Node24 -->
<g id="Node000024" class="node">
<title>Node24</title>
<g id="a_Node000024"><a xlink:href="classdnf__composer_1_1element_1_1Element.html#a7508a9a8d72df33b553d7a75e5138d37" target="_top" xlink:title=" ">
<polygon fill="white" stroke="#666666" points="370.5,-222 238.5,-222 238.5,-192 370.5,-192 370.5,-222"/>
<text text-anchor="start" x="246.5" y="-210" font-family="Helvetica,sans-Serif" font-size="10.00">dnf_composer::element</text>
<text text-anchor="middle" x="304.5" y="-199" font-family="Helvetica,sans-Serif" font-size="10.00">::Element::removeInput</text>
</a>
</g>
</g>
<!-- Node1&#45;&gt;Node24 -->
<g id="edge27_Node000001_Node000024" class="edge">
<title>Node1&#45;&gt;Node24</title>
<g id="a_edge27_Node000001_Node000024"><a xlink:title=" ">
<path fill="none" stroke="#63b8ff" d="M485.03,-374.47C469.62,-337.81 435.67,-268.98 385,-231 380.39,-227.54 375.27,-224.58 369.93,-222.04"/>
<polygon fill="#63b8ff" stroke="#63b8ff" points="481.86,-375.97 488.88,-383.9 488.34,-373.32 481.86,-375.97"/>
</a>
</g>
</g>
<!-- Node25 -->
<g id="Node000025" class="node">
<title>Node25</title>
<g id="a_Node000025"><a xlink:href="classdnf__composer_1_1element_1_1Element.html#a5df41b16d087981d9d4f93a504648f72" target="_top" xlink:title=" ">
<polygon fill="white" stroke="#666666" points="370.5,-174 238.5,-174 238.5,-144 370.5,-144 370.5,-174"/>
<text text-anchor="start" x="246.5" y="-162" font-family="Helvetica,sans-Serif" font-size="10.00">dnf_composer::element</text>
<text text-anchor="middle" x="304.5" y="-151" font-family="Helvetica,sans-Serif" font-size="10.00">::Element::removeInput</text>
</a>
</g>
</g>
<!-- Node1&#45;&gt;Node25 -->
<g id="edge28_Node000001_Node000025" class="edge">
<title>Node1&#45;&gt;Node25</title>
<g id="a_edge28_Node000001_Node000025"><a xlink:title=" ">
<path fill="none" stroke="#63b8ff" d="M488.76,-374.07C477.12,-329.14 446.46,-234.49 385,-183 380.69,-179.39 375.85,-176.32 370.74,-173.71"/>
<polygon fill="#63b8ff" stroke="#63b8ff" points="485.39,-375.01 491.2,-383.86 492.18,-373.32 485.39,-375.01"/>
</a>
</g>
</g>
<!-- Node26 -->
<g id="Node000026" class="node">
<title>Node26</title>
<g id="a_Node000026"><a xlink:href="classdnf__composer_1_1element_1_1Element.html#a5c10d5a2d969823d9ca113bf13b7e3b3" target="_top" xlink:title="Deregister this element as an input of outputElementId.">
<polygon fill="white" stroke="#666666" points="374.5,-126 234.5,-126 234.5,-96 374.5,-96 374.5,-126"/>
<text text-anchor="start" x="242.5" y="-114" font-family="Helvetica,sans-Serif" font-size="10.00">dnf_composer::element</text>
<text text-anchor="middle" x="304.5" y="-103" font-family="Helvetica,sans-Serif" font-size="10.00">::Element::removeOutput</text>
</a>
</g>
</g>
<!-- Node1&#45;&gt;Node26 -->
<g id="edge29_Node000001_Node000026" class="edge">
<title>Node1&#45;&gt;Node26</title>
<g id="a_edge29_Node000001_Node000026"><a xlink:title=" ">
<path fill="none" stroke="#63b8ff" d="M491.28,-373.84C483.25,-321.55 457.48,-200.58 385,-135 381.26,-131.61 377.05,-128.71 372.58,-126.21"/>
<polygon fill="#63b8ff" stroke="#63b8ff" points="487.84,-374.51 492.74,-383.91 494.77,-373.51 487.84,-374.51"/>
</a>
</g>
</g>
<!-- Node27 -->
<g id="Node000027" class="node">
<title>Node27</title>
<g id="a_Node000027"><a xlink:href="classdnf__composer_1_1element_1_1Element.html#a8f63314b45ca31ced114a5f527e999c3" target="_top" xlink:title="Deregister this element as an input of the element with uniqueId.">
<polygon fill="white" stroke="#666666" points="374.5,-78 234.5,-78 234.5,-48 374.5,-48 374.5,-78"/>
<text text-anchor="start" x="242.5" y="-66" font-family="Helvetica,sans-Serif" font-size="10.00">dnf_composer::element</text>
<text text-anchor="middle" x="304.5" y="-55" font-family="Helvetica,sans-Serif" font-size="10.00">::Element::removeOutput</text>
</a>
</g>
</g>
<!-- Node1&#45;&gt;Node27 -->
<g id="edge30_Node000001_Node000027" class="edge">
<title>Node1&#45;&gt;Node27</title>
<g id="a_edge30_Node000001_Node000027"><a xlink:title=" ">
<path fill="none" stroke="#63b8ff" d="M493.09,-373.48C488.43,-314.36 468.59,-166.96 385,-87 381.46,-83.61 377.45,-80.7 373.17,-78.2"/>
<polygon fill="#63b8ff" stroke="#63b8ff" points="489.62,-374.04 493.82,-383.77 496.6,-373.55 489.62,-374.04"/>
</a>
</g>
</g>
<!-- Node28 -->
<g id="Node000028" class="node">
<title>Node28</title>
<g id="a_Node000028"><a xlink:href="classdnf__composer_1_1element_1_1FieldCoupling.html#ab74a05063b97a31c7f74ed6fd38b3954" target="_top" xlink:title="Save the current weight matrix to a binary file in weightsDirectory.">
<polygon fill="white" stroke="#666666" points="383.5,-30 225.5,-30 225.5,0 383.5,0 383.5,-30"/>
<text text-anchor="start" x="233.5" y="-18" font-family="Helvetica,sans-Serif" font-size="10.00">dnf_composer::element</text>
<text text-anchor="middle" x="304.5" y="-7" font-family="Helvetica,sans-Serif" font-size="10.00">::FieldCoupling::writeWeights</text>
</a>
</g>
</g>
<!-- Node1&#45;&gt;Node28 -->
<g id="edge31_Node000001_Node000028" class="edge">
<title>Node1&#45;&gt;Node28</title>
<g id="a_edge31_Node000001_Node000028"><a xlink:title=" ">
<path fill="none" stroke="#63b8ff" d="M494.49,-373.67C493.06,-308.57 480.08,-133.88 385,-39 381.53,-35.54 377.58,-32.57 373.34,-30.03"/>
<polygon fill="#63b8ff" stroke="#63b8ff" points="491,-373.88 494.64,-383.83 498,-373.78 491,-373.88"/>
</a>
</g>
</g>
<!-- Node2&#45;&gt;Node3 -->
<g id="edge2_Node000002_Node000003" class="edge">
<title>Node2&#45;&gt;Node3</title>
<g id="a_edge2_Node000002_Node000003"><a xlink:title=" ">
<path fill="none" stroke="#63b8ff" d="M285.74,-719.07C265,-744.41 228.36,-784.47 188,-807 179.41,-811.79 169.84,-815.65 160.2,-818.75"/>
<polygon fill="#63b8ff" stroke="#63b8ff" points="288.61,-721.08 292.14,-711.09 283.15,-716.7 288.61,-721.08"/>
</a>
</g>
</g>
<!-- Node2&#45;&gt;Node4 -->
<g id="edge3_Node000002_Node000004" class="edge">
<title>Node2&#45;&gt;Node4</title>
<g id="a_edge3_Node000002_Node000004"><a xlink:title=" ">
<path fill="none" stroke="#63b8ff" d="M271.19,-716.44C248.59,-730.03 217.32,-747.43 188,-759 179.16,-762.49 169.64,-765.62 160.19,-768.37"/>
<polygon fill="#63b8ff" stroke="#63b8ff" points="273.29,-719.26 280.01,-711.07 269.64,-713.28 273.29,-719.26"/>
</a>
</g>
</g>
<!-- Node5 -->
<g id="Node000005" class="node">
<title>Node5</title>
<g id="a_Node000005"><a xlink:href="classdnf__composer_1_1element_1_1FieldCoupling.html#aa514731154519f2d4767bad8e27ca17b" target="_top" xlink:title="Register inputElement as an upstream source for this element.">
<polygon fill="white" stroke="#666666" points="162.5,-750 25.5,-750 25.5,-720 162.5,-720 162.5,-750"/>
<text text-anchor="start" x="33.5" y="-738" font-family="Helvetica,sans-Serif" font-size="10.00">dnf_composer::element</text>
<text text-anchor="middle" x="94" y="-727" font-family="Helvetica,sans-Serif" font-size="10.00">::FieldCoupling::addInput</text>
</a>
</g>
</g>
<!-- Node2&#45;&gt;Node5 -->
<g id="edge4_Node000002_Node000005" class="edge">
<title>Node2&#45;&gt;Node5</title>
<g id="a_edge4_Node000002_Node000005"><a xlink:title=" ">
<path fill="none" stroke="#63b8ff" d="M228.37,-710.05C206.97,-714.06 183.8,-718.39 162.86,-722.31"/>
<polygon fill="#63b8ff" stroke="#63b8ff" points="229.2,-713.46 238.39,-708.18 227.91,-706.58 229.2,-713.46"/>
</a>
</g>
</g>
<!-- Node2&#45;&gt;Node6 -->
<g id="edge5_Node000002_Node000006" class="edge">
<title>Node2&#45;&gt;Node6</title>
<g id="a_edge5_Node000002_Node000006"><a xlink:title=" ">
<path fill="none" stroke="#63b8ff" d="M228.32,-692.75C206.07,-691.79 181.91,-690.75 160.34,-689.82"/>
<polygon fill="#63b8ff" stroke="#63b8ff" points="228.25,-696.25 238.39,-693.19 228.55,-689.26 228.25,-696.25"/>
</a>
</g>
</g>
<!-- Node2&#45;&gt;Node7 -->
<g id="edge6_Node000002_Node000007" class="edge">
<title>Node2&#45;&gt;Node7</title>
<g id="a_edge6_Node000002_Node000007"><a xlink:title=" ">
<path fill="none" stroke="#63b8ff" d="M241.8,-678.06C224.43,-673.09 205.5,-667.76 188,-663 177.06,-660.03 165.37,-656.94 154.1,-654.01"/>
<polygon fill="#63b8ff" stroke="#63b8ff" points="241.26,-681.54 251.83,-680.93 243.19,-674.81 241.26,-681.54"/>
</a>
</g>
</g>
<!-- Node9 -->
<g id="Node000009" class="node">
<title>Node9</title>
<g id="a_Node000009"><a xlink:href="classdnf__composer_1_1element_1_1Collapse.html#ad6700e2bb17bd998c6a8451e4e572063" target="_top" xlink:title="Resize the 2D input field dimensions and rebuild the input buffer.">
<polygon fill="white" stroke="#666666" points="188,-606 0,-606 0,-576 188,-576 188,-606"/>
<text text-anchor="start" x="8" y="-594" font-family="Helvetica,sans-Serif" font-size="10.00">dnf_composer::element</text>
<text text-anchor="middle" x="94" y="-583" font-family="Helvetica,sans-Serif" font-size="10.00">::Collapse::changeInputDimensions</text>
</a>
</g>
</g>
<!-- Node8&#45;&gt;Node9 -->
<g id="edge12_Node000008_Node000009" class="edge">
<title>Node8&#45;&gt;Node9</title>
<g id="a_edge12_Node000008_Node000009"><a xlink:title=" ">
<path fill="none" stroke="#63b8ff" d="M228.62,-560.24C206.29,-565.38 182,-570.97 160.34,-575.96"/>
<polygon fill="#63b8ff" stroke="#63b8ff" points="229.43,-563.64 238.39,-557.99 227.86,-556.82 229.43,-563.64"/>
</a>
</g>
</g>
<!-- Node10 -->
<g id="Node000010" class="node">
<title>Node10</title>
<g id="a_Node000010"><a xlink:href="classdnf__composer_1_1element_1_1Collapse.html#a4ff26d7d48419d27bc20c47801731a34" target="_top" xlink:title=" ">
<polygon fill="white" stroke="#666666" points="164.5,-558 23.5,-558 23.5,-528 164.5,-528 164.5,-558"/>
<text text-anchor="start" x="31.5" y="-546" font-family="Helvetica,sans-Serif" font-size="10.00">dnf_composer::element</text>
<text text-anchor="middle" x="94" y="-535" font-family="Helvetica,sans-Serif" font-size="10.00">::Collapse::setParameters</text>
</a>
</g>
</g>
<!-- Node8&#45;&gt;Node10 -->
<g id="edge13_Node000008_Node000010" class="edge">
<title>Node8&#45;&gt;Node10</title>
<g id="a_edge13_Node000008_Node000010"><a xlink:title=" ">
<path fill="none" stroke="#63b8ff" d="M228.34,-543C207.57,-543 185.12,-543 164.67,-543"/>
<polygon fill="#63b8ff" stroke="#63b8ff" points="228.39,-546.5 238.39,-543 228.39,-539.5 228.39,-546.5"/>
</a>
</g>
</g>
<!-- Node12 -->
<g id="Node000012" class="node">
<title>Node12</title>
<g id="a_Node000012"><a xlink:href="classdnf__composer_1_1element_1_1Expand.html#a6cee09d9807a6b35a20c50d2f64e6dc4" target="_top" xlink:title="Resize the 1D input field dimensions and rebuild the input buffer.">
<polygon fill="white" stroke="#666666" points="185,-510 3,-510 3,-480 185,-480 185,-510"/>
<text text-anchor="start" x="11" y="-498" font-family="Helvetica,sans-Serif" font-size="10.00">dnf_composer::element</text>
<text text-anchor="middle" x="94" y="-487" font-family="Helvetica,sans-Serif" font-size="10.00">::Expand::changeInputDimensions</text>
</a>
</g>
</g>
<!-- Node11&#45;&gt;Node12 -->
<g id="edge15_Node000011_Node000012" class="edge">
<title>Node11&#45;&gt;Node12</title>
<g id="a_edge15_Node000011_Node000012"><a xlink:title=" ">
<path fill="none" stroke="#63b8ff" d="M228.35,-495C214.36,-495 199.6,-495 185.22,-495"/>
<polygon fill="#63b8ff" stroke="#63b8ff" points="228.39,-498.5 238.39,-495 228.39,-491.5 228.39,-498.5"/>
</a>
</g>
</g>
<!-- Node13 -->
<g id="Node000013" class="node">
<title>Node13</title>
<g id="a_Node000013"><a xlink:href="classdnf__composer_1_1element_1_1Expand.html#afdfc64f2b2ed4f25e01b78f1f2e793a1" target="_top" xlink:title=" ">
<polygon fill="white" stroke="#666666" points="161.5,-462 26.5,-462 26.5,-432 161.5,-432 161.5,-462"/>
<text text-anchor="start" x="34.5" y="-450" font-family="Helvetica,sans-Serif" font-size="10.00">dnf_composer::element</text>
<text text-anchor="middle" x="94" y="-439" font-family="Helvetica,sans-Serif" font-size="10.00">::Expand::setParameters</text>
</a>
</g>
</g>
<!-- Node11&#45;&gt;Node13 -->
<g id="edge16_Node000011_Node000013" class="edge">
<title>Node11&#45;&gt;Node13</title>
<g id="a_edge16_Node000011_Node000013"><a xlink:title=" ">
<path fill="none" stroke="#63b8ff" d="M228.62,-477.76C206.29,-472.62 182,-467.03 160.34,-462.04"/>
<polygon fill="#63b8ff" stroke="#63b8ff" points="227.86,-481.18 238.39,-480.01 229.43,-474.36 227.86,-481.18"/>
</a>
</g>
</g>
<!-- Node15 -->
<g id="Node000015" class="node">
<title>Node15</title>
<g id="a_Node000015"><a xlink:href="classdnf__composer_1_1element_1_1GaussStimulus.html#af05b6b8c812a9db74fd719824bfdfaca" target="_top" xlink:title=" ">
<polygon fill="white" stroke="#666666" points="180,-414 8,-414 8,-384 180,-384 180,-414"/>
<text text-anchor="start" x="16" y="-402" font-family="Helvetica,sans-Serif" font-size="10.00">dnf_composer::element</text>
<text text-anchor="middle" x="94" y="-391" font-family="Helvetica,sans-Serif" font-size="10.00">::GaussStimulus::setParameters</text>
</a>
</g>
</g>
<!-- Node14&#45;&gt;Node15 -->
<g id="edge18_Node000014_Node000015" class="edge">
<title>Node14&#45;&gt;Node15</title>
<g id="a_edge18_Node000014_Node000015"><a xlink:title=" ">
<path fill="none" stroke="#63b8ff" d="M228.62,-429.76C206.29,-424.62 182,-419.03 160.34,-414.04"/>
<polygon fill="#63b8ff" stroke="#63b8ff" points="227.86,-433.18 238.39,-432.01 229.43,-426.36 227.86,-433.18"/>
</a>
</g>
</g>
<!-- Node17 -->
<g id="Node000017" class="node">
<title>Node17</title>
<g id="a_Node000017"><a xlink:href="classdnf__composer_1_1element_1_1GaussStimulus2D.html#a391bd4d0d9795ae3e85e2f834210685a" target="_top" xlink:title=" ">
<polygon fill="white" stroke="#666666" points="186.5,-366 1.5,-366 1.5,-336 186.5,-336 186.5,-366"/>
<text text-anchor="start" x="9.5" y="-354" font-family="Helvetica,sans-Serif" font-size="10.00">dnf_composer::element</text>
<text text-anchor="middle" x="94" y="-343" font-family="Helvetica,sans-Serif" font-size="10.00">::GaussStimulus2D::setParameters</text>
</a>
</g>
</g>
<!-- Node16&#45;&gt;Node17 -->
<g id="edge20_Node000016_Node000017" class="edge">
<title>Node16&#45;&gt;Node17</title>
<g id="a_edge20_Node000016_Node000017"><a xlink:title=" ">
<path fill="none" stroke="#63b8ff" d="M228.62,-381.76C206.29,-376.62 182,-371.03 160.34,-366.04"/>
<polygon fill="#63b8ff" stroke="#63b8ff" points="227.86,-385.18 238.39,-384.01 229.43,-378.36 227.86,-385.18"/>
</a>
</g>
</g>
<!-- Node19 -->
<g id="Node000019" class="node">
<title>Node19</title>
<g id="a_Node000019"><a xlink:href="classdnf__composer_1_1element_1_1TimedGaussStimulus.html#ad3728cf451116c584642eee5ee422cd3" target="_top" xlink:title=" ">
<polygon fill="white" stroke="#666666" points="160,-317.5 28,-317.5 28,-276.5 160,-276.5 160,-317.5"/>
<text text-anchor="start" x="36" y="-305.5" font-family="Helvetica,sans-Serif" font-size="10.00">dnf_composer::element</text>
<text text-anchor="start" x="36" y="-294.5" font-family="Helvetica,sans-Serif" font-size="10.00">::TimedGaussStimulus</text>
<text text-anchor="middle" x="94" y="-283.5" font-family="Helvetica,sans-Serif" font-size="10.00">::setParameters</text>
</a>
</g>
</g>
<!-- Node18&#45;&gt;Node19 -->
<g id="edge22_Node000018_Node000019" class="edge">
<title>Node18&#45;&gt;Node19</title>
<g id="a_edge22_Node000018_Node000019"><a xlink:title=" ">
<path fill="none" stroke="#63b8ff" d="M235.59,-333.41C211.34,-327.13 184.11,-320.08 160.1,-313.86"/>
<polygon fill="#63b8ff" stroke="#63b8ff" points="234.86,-336.84 245.42,-335.96 236.62,-330.06 234.86,-336.84"/>
</a>
</g>
</g>
<!-- Node21 -->
<g id="Node000021" class="node">
<title>Node21</title>
<g id="a_Node000021"><a xlink:href="classdnf__composer_1_1element_1_1TimedGaussStimulus2D.html#a9cf70a3ebe946dc04a7c1fca89875f55" target="_top" xlink:title=" ">
<polygon fill="white" stroke="#666666" points="164,-258.5 24,-258.5 24,-217.5 164,-217.5 164,-258.5"/>
<text text-anchor="start" x="32" y="-246.5" font-family="Helvetica,sans-Serif" font-size="10.00">dnf_composer::element</text>
<text text-anchor="start" x="32" y="-235.5" font-family="Helvetica,sans-Serif" font-size="10.00">::TimedGaussStimulus2D</text>
<text text-anchor="middle" x="94" y="-224.5" font-family="Helvetica,sans-Serif" font-size="10.00">::setParameters</text>
</a>
</g>
</g>
<!-- Node20&#45;&gt;Node21 -->
<g id="edge24_Node000020_Node000021" class="edge">
<title>Node20&#45;&gt;Node21</title>
<g id="a_edge24_Node000020_Node000021"><a xlink:title=" ">
<path fill="none" stroke="#63b8ff" d="M242.97,-284.83C236.56,-282.87 230.15,-280.9 224,-279 202.79,-272.43 179.66,-265.12 158.92,-258.52"/>
<polygon fill="#63b8ff" stroke="#63b8ff" points="242.41,-288.32 253,-287.87 244.45,-281.62 242.41,-288.32"/>
</a>
</g>
</g>
<!-- Node23 -->
<g id="Node000023" class="node">
<title>Node23</title>
<g id="a_Node000023"><a xlink:href="classdnf__composer_1_1element_1_1FieldCoupling.html#a0bb6c82b8d890d0a37c25821f1777a4c" target="_top" xlink:title="Load weights if the file exists; log INFO in either case. Unlike readWeights(), this never logs an er...">
<polygon fill="white" stroke="#666666" points="180,-199 8,-199 8,-169 180,-169 180,-199"/>
<text text-anchor="start" x="16" y="-187" font-family="Helvetica,sans-Serif" font-size="10.00">dnf_composer::element</text>
<text text-anchor="middle" x="94" y="-176" font-family="Helvetica,sans-Serif" font-size="10.00">::FieldCoupling::tryReadWeights</text>
</a>
</g>
</g>
<!-- Node22&#45;&gt;Node23 -->
<g id="edge26_Node000022_Node000023" class="edge">
<title>Node22&#45;&gt;Node23</title>
<g id="a_edge26_Node000022_Node000023"><a xlink:title=" ">
<path fill="none" stroke="#63b8ff" d="M237.32,-236.56C232.76,-234.82 228.28,-232.97 224,-231 206.75,-223.07 205.41,-215.58 188,-208 180.36,-204.67 172.15,-201.73 163.89,-199.15"/>
<polygon fill="#63b8ff" stroke="#63b8ff" points="236.16,-239.87 246.76,-239.97 238.54,-233.28 236.16,-239.87"/>
</a>
</g>
</g>
</g>
</svg>
