<?xml version="1.0" encoding="UTF-8" standalone="no"?>
<!DOCTYPE svg PUBLIC "-//W3C//DTD SVG 1.1//EN"
 "http://www.w3.org/Graphics/SVG/1.1/DTD/svg11.dtd">
<!-- Generated by graphviz version 2.43.0 (0)
 -->
<!-- Title: dnf_composer::user_interface::ElementWindow::render Pages: 1 -->
<svg width="534pt" height="49pt"
 viewBox="0.00 0.00 534.00 49.00" xmlns="http://www.w3.org/2000/svg" xmlns:xlink="http://www.w3.org/1999/xlink">
<g id="graph0" class="graph" transform="scale(1 1) rotate(0) translate(4 45)">
<title>dnf_composer::user_interface::ElementWindow::render</title>
<!-- Node1 -->
<g id="Node000001" class="node">
<title>Node1</title>
<g id="a_Node000001"><a xlink:title=" ">
<polygon fill="#999999" stroke="#666666" points="151,-41 0,-41 0,0 151,0 151,-41"/>
<text text-anchor="start" x="8" y="-29" font-family="Helvetica,sans-Serif" font-size="10.00">dnf_composer::user</text>
<text text-anchor="start" x="8" y="-18" font-family="Helvetica,sans-Serif" font-size="10.00">_interface::ElementWindow</text>
<text text-anchor="middle" x="75.5" y="-7" font-family="Helvetica,sans-Serif" font-size="10.00">::render</text>
</a>
</g>
</g>
<!-- Node2 -->
<g id="Node000002" class="node">
<title>Node2</title>
<g id="a_Node000002"><a xlink:href="classdnf__composer_1_1user__interface_1_1ElementWindow.html#a3a560b6dda3f430c27e918cf398d99e3" target="_top" xlink:title=" ">
<polygon fill="white" stroke="#666666" points="339,-41 187,-41 187,0 339,0 339,-41"/>
<text text-anchor="start" x="195" y="-29" font-family="Helvetica,sans-Serif" font-size="10.00">dnf_composer::user</text>
<text text-anchor="start" x="195" y="-18" font-family="Helvetica,sans-Serif" font-size="10.00">_interface::ElementWindow</text>
<text text-anchor="middle" x="263" y="-7" font-family="Helvetica,sans-Serif" font-size="10.00">::renderElementControlCard</text>
</a>
</g>
</g>
<!-- Node1&#45;&gt;Node2 -->
<g id="edge1_Node000001_Node000002" class="edge">
<title>Node1&#45;&gt;Node2</title>
<g id="a_edge1_Node000001_Node000002"><a xlink:title=" ">
<path fill="none" stroke="#63b8ff" d="M151.15,-20.5C159.61,-20.5 168.29,-20.5 176.88,-20.5"/>
<polygon fill="#63b8ff" stroke="#63b8ff" points="176.9,-24 186.9,-20.5 176.9,-17 176.9,-24"/>
</a>
</g>
</g>
<!-- Node3 -->
<g id="Node000003" class="node">
<title>Node3</title>
<g id="a_Node000003"><a xlink:href="classdnf__composer_1_1user__interface_1_1ElementWindow.html#a9228aa9c672ebe10bfb418abe3be6cb6" target="_top" xlink:title=" ">
<polygon fill="white" stroke="#666666" points="526,-41 375,-41 375,0 526,0 526,-41"/>
<text text-anchor="start" x="383" y="-29" font-family="Helvetica,sans-Serif" font-size="10.00">dnf_composer::user</text>
<text text-anchor="start" x="383" y="-18" font-family="Helvetica,sans-Serif" font-size="10.00">_interface::ElementWindow</text>
<text text-anchor="middle" x="450.5" y="-7" font-family="Helvetica,sans-Serif" font-size="10.00">::switchElementToModify</text>
</a>
</g>
</g>
<!-- Node2&#45;&gt;Node3 -->
<g id="edge2_Node000002_Node000003" class="edge">
<title>Node2&#45;&gt;Node3</title>
<g id="a_edge2_Node000002_Node000003"><a xlink:title=" ">
<path fill="none" stroke="#63b8ff" d="M339.18,-20.5C347.54,-20.5 356.09,-20.5 364.55,-20.5"/>
<polygon fill="#63b8ff" stroke="#63b8ff" points="364.81,-24 374.81,-20.5 364.81,-17 364.81,-24"/>
</a>
</g>
</g>
</g>
</svg>
