<?xml version="1.0" encoding="UTF-8" standalone="no"?>
<!DOCTYPE svg PUBLIC "-//W3C//DTD SVG 1.1//EN"
 "http://www.w3.org/Graphics/SVG/1.1/DTD/svg11.dtd">
<!-- Generated by graphviz version 2.43.0 (0)
 -->
<!-- Title: dnf_composer::element::GaussStimulus2D::init Pages: 1 -->
<svg width="509pt" height="194pt"
 viewBox="0.00 0.00 509.00 194.00" xmlns="http://www.w3.org/2000/svg" xmlns:xlink="http://www.w3.org/1999/xlink">
<g id="graph0" class="graph" transform="scale(1 1) rotate(0) translate(4 190)">
<title>dnf_composer::element::GaussStimulus2D::init</title>
<!-- Node1 -->
<g id="Node000001" class="node">
<title>Node1</title>
<g id="a_Node000001"><a xlink:title="Initialize the element (called once before the simulation loop).">
<polygon fill="#999999" stroke="#666666" points="132,-105 0,-105 0,-75 132,-75 132,-105"/>
<text text-anchor="start" x="8" y="-93" font-family="Helvetica,sans-Serif" font-size="10.00">dnf_composer::element</text>
<text text-anchor="middle" x="66" y="-82" font-family="Helvetica,sans-Serif" font-size="10.00">::GaussStimulus2D::init</text>
</a>
</g>
</g>
<!-- Node2 -->
<g id="Node000002" class="node">
<title>Node2</title>
<g id="a_Node000002"><a xlink:href="namespacednf__composer_1_1tools_1_1math.html#a6df4f4bcf6f94d0571317a3a0a780bf6" target="_top" xlink:title=" ">
<polygon fill="white" stroke="#666666" points="300.5,-186 184.5,-186 184.5,-156 300.5,-156 300.5,-186"/>
<text text-anchor="start" x="192.5" y="-174" font-family="Helvetica,sans-Serif" font-size="10.00">dnf_composer::tools</text>
<text text-anchor="middle" x="242.5" y="-163" font-family="Helvetica,sans-Serif" font-size="10.00">::math::gaussian_2d</text>
</a>
</g>
</g>
<!-- Node1&#45;&gt;Node2 -->
<g id="edge1_Node000001_Node000002" class="edge">
<title>Node1&#45;&gt;Node2</title>
<g id="a_edge1_Node000001_Node000002"><a xlink:title=" ">
<path fill="none" stroke="#63b8ff" d="M90.79,-105.21C110.83,-117.59 140.54,-134.91 168,-147 172.3,-148.89 176.81,-150.72 181.37,-152.46"/>
<polygon fill="#63b8ff" stroke="#63b8ff" points="180.2,-155.76 190.79,-155.91 182.6,-149.18 180.2,-155.76"/>
</a>
</g>
</g>
<!-- Node3 -->
<g id="Node000003" class="node">
<title>Node3</title>
<g id="a_Node000003"><a xlink:href="namespacednf__composer_1_1tools_1_1math.html#a9b2573978f59b8476c092b5051880f48" target="_top" xlink:title=" ">
<polygon fill="white" stroke="#666666" points="300.5,-137.5 184.5,-137.5 184.5,-96.5 300.5,-96.5 300.5,-137.5"/>
<text text-anchor="start" x="192.5" y="-125.5" font-family="Helvetica,sans-Serif" font-size="10.00">dnf_composer::tools</text>
<text text-anchor="start" x="192.5" y="-114.5" font-family="Helvetica,sans-Serif" font-size="10.00">::math::gaussian_2d</text>
<text text-anchor="middle" x="242.5" y="-103.5" font-family="Helvetica,sans-Serif" font-size="10.00">_periodic</text>
</a>
</g>
</g>
<!-- Node1&#45;&gt;Node3 -->
<g id="edge2_Node000001_Node000003" class="edge">
<title>Node1&#45;&gt;Node3</title>
<g id="a_edge2_Node000001_Node000003"><a xlink:title=" ">
<path fill="none" stroke="#63b8ff" d="M132.47,-100.13C146.04,-102.23 160.35,-104.44 173.99,-106.55"/>
<polygon fill="#63b8ff" stroke="#63b8ff" points="173.84,-110.07 184.26,-108.14 174.91,-103.15 173.84,-110.07"/>
</a>
</g>
</g>
<!-- Node4 -->
<g id="Node000004" class="node">
<title>Node4</title>
<g id="a_Node000004"><a xlink:href="classdnf__composer_1_1element_1_1Element.html#a03cc479b5f360d8e7f679d4ecdad8944" target="_top" xlink:title=" ">
<polygon fill="white" stroke="#666666" points="317,-78 168,-78 168,-48 317,-48 317,-78"/>
<text text-anchor="start" x="176" y="-66" font-family="Helvetica,sans-Serif" font-size="10.00">dnf_composer::element</text>
<text text-anchor="middle" x="242.5" y="-55" font-family="Helvetica,sans-Serif" font-size="10.00">::Element::getUniqueName</text>
</a>
</g>
</g>
<!-- Node1&#45;&gt;Node4 -->
<g id="edge3_Node000001_Node000004" class="edge">
<title>Node1&#45;&gt;Node4</title>
<g id="a_edge3_Node000001_Node000004"><a xlink:title=" ">
<path fill="none" stroke="#63b8ff" d="M132.47,-79.87C140.75,-78.59 149.3,-77.27 157.8,-75.95"/>
<polygon fill="#63b8ff" stroke="#63b8ff" points="158.4,-79.4 167.75,-74.41 157.33,-72.48 158.4,-79.4"/>
</a>
</g>
</g>
<!-- Node5 -->
<g id="Node000005" class="node">
<title>Node5</title>
<g id="a_Node000005"><a xlink:href="classdnf__composer_1_1element_1_1Element.html#a87401af54d46e1cf99d2755d3fce0a9a" target="_top" xlink:title="Pull data from all registered input elements into this element&#39;s components.">
<polygon fill="white" stroke="#666666" points="308.5,-30 176.5,-30 176.5,0 308.5,0 308.5,-30"/>
<text text-anchor="start" x="184.5" y="-18" font-family="Helvetica,sans-Serif" font-size="10.00">dnf_composer::element</text>
<text text-anchor="middle" x="242.5" y="-7" font-family="Helvetica,sans-Serif" font-size="10.00">::Element::updateInput</text>
</a>
</g>
</g>
<!-- Node1&#45;&gt;Node5 -->
<g id="edge4_Node000001_Node000005" class="edge">
<title>Node1&#45;&gt;Node5</title>
<g id="a_edge4_Node000001_Node000005"><a xlink:title=" ">
<path fill="none" stroke="#63b8ff" d="M94.33,-74.77C114.36,-63.97 142.4,-49.57 168,-39 172.49,-37.14 177.19,-35.33 181.93,-33.59"/>
<polygon fill="#63b8ff" stroke="#63b8ff" points="183.45,-36.77 191.7,-30.12 181.11,-30.17 183.45,-36.77"/>
</a>
</g>
</g>
<!-- Node6 -->
<g id="Node000006" class="node">
<title>Node6</title>
<g id="a_Node000006"><a xlink:href="classdnf__composer_1_1element_1_1Element.html#a48e4fcaeda8316d79dfaa8de41cec87e" target="_top" xlink:title="Cache raw pointers to input component data. Call after all element init()s complete.">
<polygon fill="white" stroke="#666666" points="501,-30 353,-30 353,0 501,0 501,-30"/>
<text text-anchor="start" x="361" y="-18" font-family="Helvetica,sans-Serif" font-size="10.00">dnf_composer::element</text>
<text text-anchor="middle" x="427" y="-7" font-family="Helvetica,sans-Serif" font-size="10.00">::Element::buildInputCache</text>
</a>
</g>
</g>
<!-- Node5&#45;&gt;Node6 -->
<g id="edge5_Node000005_Node000006" class="edge">
<title>Node5&#45;&gt;Node6</title>
<g id="a_edge5_Node000005_Node000006"><a xlink:title=" ">
<path fill="none" stroke="#63b8ff" d="M308.61,-15C319.7,-15 331.34,-15 342.82,-15"/>
<polygon fill="#63b8ff" stroke="#63b8ff" points="342.84,-18.5 352.84,-15 342.84,-11.5 342.84,-18.5"/>
</a>
</g>
</g>
</g>
</svg>
