<?xml version="1.0" encoding="UTF-8" standalone="no"?>
<!DOCTYPE svg PUBLIC "-//W3C//DTD SVG 1.1//EN"
 "http://www.w3.org/Graphics/SVG/1.1/DTD/svg11.dtd">
<!-- Generated by graphviz version 2.43.0 (0)
 -->
<!-- Title: dnf_composer::element::GaussFieldCoupling Pages: 1 -->
<svg width="546pt" height="1191pt"
 viewBox="0.00 0.00 546.00 1191.00" xmlns="http://www.w3.org/2000/svg" xmlns:xlink="http://www.w3.org/1999/xlink">
<g id="graph0" class="graph" transform="scale(1 1) rotate(0) translate(4 1187)">
<title>dnf_composer::element::GaussFieldCoupling</title>
<!-- Node1 -->
<g id="Node000001" class="node">
<title>Node1</title>
<g id="a_Node000001"><a xlink:title="Sparse Gaussian field coupling with a fixed, user&#45;defined projection.">
<polygon fill="#999999" stroke="transparent" points="445.5,-309 294.5,-309 294.5,-129 445.5,-129 445.5,-309"/>
<text text-anchor="start" x="312.5" y="-297" font-family="Helvetica,sans-Serif" font-size="10.00">dnf_composer::element</text>
<text text-anchor="start" x="319" y="-286" font-family="Helvetica,sans-Serif" font-size="10.00">::GaussFieldCoupling</text>
<text text-anchor="start" x="368.5" y="-271" font-family="Helvetica,sans-Serif" font-size="10.00"> </text>
<text text-anchor="start" x="299" y="-256" font-family="Helvetica,sans-Serif" font-size="10.00">+</text>
<text text-anchor="start" x="312" y="-256" font-family="Helvetica,sans-Serif" font-size="10.00">addCoupling()</text>
<text text-anchor="start" x="299" y="-241" font-family="Helvetica,sans-Serif" font-size="10.00">+</text>
<text text-anchor="start" x="312" y="-241" font-family="Helvetica,sans-Serif" font-size="10.00">clone()</text>
<text text-anchor="start" x="299" y="-226" font-family="Helvetica,sans-Serif" font-size="10.00">+</text>
<text text-anchor="start" x="312" y="-226" font-family="Helvetica,sans-Serif" font-size="10.00">GaussFieldCoupling()</text>
<text text-anchor="start" x="299" y="-211" font-family="Helvetica,sans-Serif" font-size="10.00">+</text>
<text text-anchor="start" x="312" y="-211" font-family="Helvetica,sans-Serif" font-size="10.00">getInputFieldDimensions()</text>
<text text-anchor="start" x="299" y="-196" font-family="Helvetica,sans-Serif" font-size="10.00">+</text>
<text text-anchor="start" x="312" y="-196" font-family="Helvetica,sans-Serif" font-size="10.00">getParameters()</text>
<text text-anchor="start" x="299" y="-181" font-family="Helvetica,sans-Serif" font-size="10.00">+</text>
<text text-anchor="start" x="312" y="-181" font-family="Helvetica,sans-Serif" font-size="10.00">init()</text>
<text text-anchor="start" x="299" y="-166" font-family="Helvetica,sans-Serif" font-size="10.00">+</text>
<text text-anchor="start" x="312" y="-166" font-family="Helvetica,sans-Serif" font-size="10.00">setParameters()</text>
<text text-anchor="start" x="299" y="-151" font-family="Helvetica,sans-Serif" font-size="10.00">+</text>
<text text-anchor="start" x="312" y="-151" font-family="Helvetica,sans-Serif" font-size="10.00">step()</text>
<text text-anchor="start" x="299" y="-136" font-family="Helvetica,sans-Serif" font-size="10.00">+</text>
<text text-anchor="start" x="312" y="-136" font-family="Helvetica,sans-Serif" font-size="10.00">toString()</text>
<polygon fill="#666666" stroke="#666666" points="295,-281 295,-281 446,-281 446,-281 295,-281"/>
<polygon fill="#666666" stroke="#666666" points="295,-266 295,-266 446,-266 446,-266 295,-266"/>
<polygon fill="none" stroke="#666666" points="294.5,-129 294.5,-309 445.5,-309 445.5,-129 294.5,-129"/>
</a>
</g>
</g>
<!-- Node2 -->
<g id="Node000002" class="node">
<title>Node2</title>
<g id="a_Node000002"><a xlink:href="classdnf__composer_1_1element_1_1Element.html" target="_top" xlink:title="Abstract base class for all simulation elements.">
<polygon fill="white" stroke="transparent" points="320.5,-566 135.5,-566 135.5,-356 320.5,-356 320.5,-566"/>
<text text-anchor="start" x="170.5" y="-554" font-family="Helvetica,sans-Serif" font-size="10.00">dnf_composer::element</text>
<text text-anchor="start" x="205" y="-543" font-family="Helvetica,sans-Serif" font-size="10.00">::Element</text>
<text text-anchor="start" x="226.5" y="-528" font-family="Helvetica,sans-Serif" font-size="10.00"> </text>
<text text-anchor="start" x="140" y="-513" font-family="Helvetica,sans-Serif" font-size="10.00">+</text>
<text text-anchor="start" x="153" y="-513" font-family="Helvetica,sans-Serif" font-size="10.00">addInput()</text>
<text text-anchor="start" x="140" y="-498" font-family="Helvetica,sans-Serif" font-size="10.00">+</text>
<text text-anchor="start" x="153" y="-498" font-family="Helvetica,sans-Serif" font-size="10.00">clone()</text>
<text text-anchor="start" x="140" y="-483" font-family="Helvetica,sans-Serif" font-size="10.00">+</text>
<text text-anchor="start" x="153" y="-483" font-family="Helvetica,sans-Serif" font-size="10.00">close()</text>
<text text-anchor="start" x="140" y="-468" font-family="Helvetica,sans-Serif" font-size="10.00">+</text>
<text text-anchor="start" x="153" y="-468" font-family="Helvetica,sans-Serif" font-size="10.00">Element()</text>
<text text-anchor="start" x="140" y="-453" font-family="Helvetica,sans-Serif" font-size="10.00">+</text>
<text text-anchor="start" x="153" y="-453" font-family="Helvetica,sans-Serif" font-size="10.00">getComponent()</text>
<text text-anchor="start" x="140" y="-438" font-family="Helvetica,sans-Serif" font-size="10.00">+</text>
<text text-anchor="start" x="153" y="-438" font-family="Helvetica,sans-Serif" font-size="10.00">getComponentList()</text>
<text text-anchor="start" x="140" y="-423" font-family="Helvetica,sans-Serif" font-size="10.00">+</text>
<text text-anchor="start" x="153" y="-423" font-family="Helvetica,sans-Serif" font-size="10.00">getComponentPtr()</text>
<text text-anchor="start" x="140" y="-408" font-family="Helvetica,sans-Serif" font-size="10.00">+</text>
<text text-anchor="start" x="153" y="-408" font-family="Helvetica,sans-Serif" font-size="10.00">getComponents()</text>
<text text-anchor="start" x="140" y="-393" font-family="Helvetica,sans-Serif" font-size="10.00">+</text>
<text text-anchor="start" x="153" y="-393" font-family="Helvetica,sans-Serif" font-size="10.00">getElementCommonParameters()</text>
<text text-anchor="start" x="140" y="-378" font-family="Helvetica,sans-Serif" font-size="10.00">+</text>
<text text-anchor="start" x="153" y="-378" font-family="Helvetica,sans-Serif" font-size="10.00">getInputs()</text>
<text text-anchor="start" x="153" y="-363" font-family="Helvetica,sans-Serif" font-size="10.00">and 26 more...</text>
<polygon fill="#666666" stroke="#666666" points="136,-538 136,-538 321,-538 321,-538 136,-538"/>
<polygon fill="#666666" stroke="#666666" points="136,-523 136,-523 321,-523 321,-523 136,-523"/>
<polygon fill="none" stroke="#666666" points="135.5,-356 135.5,-566 320.5,-566 320.5,-356 135.5,-356"/>
</a>
</g>
</g>
<!-- Node2&#45;&gt;Node1 -->
<g id="edge1_Node000001_Node000002" class="edge">
<title>Node2&#45;&gt;Node1</title>
<g id="a_edge1_Node000001_Node000002"><a xlink:title=" ">
<path fill="none" stroke="#63b8ff" d="M294.86,-347C302.39,-334.27 309.98,-321.45 317.29,-309.09"/>
<polygon fill="none" stroke="#63b8ff" points="291.74,-345.39 289.66,-355.78 297.77,-348.96 291.74,-345.39"/>
</a>
</g>
</g>
<!-- Node12 -->
<g id="Node000012" class="node">
<title>Node12</title>
<g id="a_Node000012"><a xlink:title=" ">
<polygon fill="white" stroke="transparent" points="194,-249 26,-249 26,-189 194,-189 194,-249"/>
<text text-anchor="start" x="31" y="-237" font-family="Helvetica,sans-Serif" font-size="10.00">std::shared_ptr&lt; dnf</text>
<text text-anchor="start" x="31" y="-226" font-family="Helvetica,sans-Serif" font-size="10.00">_composer::element::Element &gt;</text>
<text text-anchor="start" x="108" y="-211" font-family="Helvetica,sans-Serif" font-size="10.00"> </text>
<text text-anchor="start" x="51.5" y="-196" font-family="Helvetica,sans-Serif" font-size="10.00">+</text>
<text text-anchor="start" x="86" y="-196" font-family="Helvetica,sans-Serif" font-size="10.00">operator&#45;&gt;()</text>
<polygon fill="#666666" stroke="#666666" points="26,-221 26,-221 194,-221 194,-221 26,-221"/>
<polygon fill="#666666" stroke="#666666" points="26,-206 26,-206 194,-206 194,-206 26,-206"/>
<polygon fill="none" stroke="#666666" points="26,-189 26,-249 194,-249 194,-189 26,-189"/>
</a>
</g>
</g>
<!-- Node2&#45;&gt;Node12 -->
<g id="edge13_Node000012_Node000002" class="edge">
<title>Node2&#45;&gt;Node12</title>
<g id="a_edge13_Node000012_Node000002"><a xlink:title=" ">
<path fill="none" stroke="#63b8ff" d="M176.76,-355.78C160.13,-321.95 142.65,-286.42 129.76,-260.19"/>
<polygon fill="none" stroke="#63b8ff" points="129.65,-259.96 123.41,-256.34 124.35,-249.19 130.59,-252.81 129.65,-259.96"/>
</a>
</g>
<text text-anchor="middle" x="178.5" y="-330" font-family="Helvetica,sans-Serif" font-size="10.00" fill="grey"> +ptr</text>
</g>
<!-- Node3 -->
<g id="Node000003" class="node">
<title>Node3</title>
<g id="a_Node000003"><a xlink:title=" ">
<polygon fill="white" stroke="transparent" points="451.5,-733 326.5,-733 326.5,-673 451.5,-673 451.5,-733"/>
<text text-anchor="start" x="332" y="-721" font-family="Helvetica,sans-Serif" font-size="10.00">std::enable_shared</text>
<text text-anchor="start" x="332" y="-710" font-family="Helvetica,sans-Serif" font-size="10.00">_from_this&lt; Element &gt;</text>
<text text-anchor="start" x="387.5" y="-695" font-family="Helvetica,sans-Serif" font-size="10.00"> </text>
<text text-anchor="start" x="387.5" y="-680" font-family="Helvetica,sans-Serif" font-size="10.00"> </text>
<polygon fill="#666666" stroke="#666666" points="327,-705 327,-705 452,-705 452,-705 327,-705"/>
<polygon fill="#666666" stroke="#666666" points="327,-690 327,-690 452,-690 452,-690 327,-690"/>
<polygon fill="none" stroke="#666666" points="326.5,-673 326.5,-733 451.5,-733 451.5,-673 326.5,-673"/>
</a>
</g>
</g>
<!-- Node3&#45;&gt;Node2 -->
<g id="edge2_Node000002_Node000003" class="edge">
<title>Node3&#45;&gt;Node2</title>
<g id="a_edge2_Node000002_Node000003"><a xlink:title=" ">
<path fill="none" stroke="#63b8ff" d="M376.87,-663.52C368.43,-639.61 355.84,-608.81 340,-584 334.12,-574.79 327.52,-565.63 320.54,-556.7"/>
<polygon fill="none" stroke="#63b8ff" points="373.56,-664.66 380.13,-672.98 380.18,-662.39 373.56,-664.66"/>
</a>
</g>
</g>
<!-- Node4 -->
<g id="Node000004" class="node">
<title>Node4</title>
<g id="a_Node000004"><a xlink:href="structdnf__composer_1_1element_1_1ElementCommonParameters.html" target="_top" xlink:title="Bundles identity and spatial dimensions passed to every Element constructor.">
<polygon fill="white" stroke="transparent" points="308.5,-793 139.5,-793 139.5,-613 308.5,-613 308.5,-793"/>
<text text-anchor="start" x="151" y="-781" font-family="Helvetica,sans-Serif" font-size="10.00">dnf_composer::element</text>
<text text-anchor="start" x="151" y="-770" font-family="Helvetica,sans-Serif" font-size="10.00">::ElementCommonParameters</text>
<text text-anchor="start" x="222.5" y="-755" font-family="Helvetica,sans-Serif" font-size="10.00"> </text>
<text text-anchor="start" x="144" y="-740" font-family="Helvetica,sans-Serif" font-size="10.00">+</text>
<text text-anchor="start" x="157" y="-740" font-family="Helvetica,sans-Serif" font-size="10.00">ElementCommonParameters()</text>
<text text-anchor="start" x="144" y="-725" font-family="Helvetica,sans-Serif" font-size="10.00">+</text>
<text text-anchor="start" x="157" y="-725" font-family="Helvetica,sans-Serif" font-size="10.00">ElementCommonParameters()</text>
<text text-anchor="start" x="144" y="-710" font-family="Helvetica,sans-Serif" font-size="10.00">+</text>
<text text-anchor="start" x="157" y="-710" font-family="Helvetica,sans-Serif" font-size="10.00">ElementCommonParameters()</text>
<text text-anchor="start" x="144" y="-695" font-family="Helvetica,sans-Serif" font-size="10.00">+</text>
<text text-anchor="start" x="157" y="-695" font-family="Helvetica,sans-Serif" font-size="10.00">ElementCommonParameters()</text>
<text text-anchor="start" x="144" y="-680" font-family="Helvetica,sans-Serif" font-size="10.00">+</text>
<text text-anchor="start" x="157" y="-680" font-family="Helvetica,sans-Serif" font-size="10.00">ElementCommonParameters()</text>
<text text-anchor="start" x="144" y="-665" font-family="Helvetica,sans-Serif" font-size="10.00">+</text>
<text text-anchor="start" x="157" y="-665" font-family="Helvetica,sans-Serif" font-size="10.00">ElementCommonParameters()</text>
<text text-anchor="start" x="144" y="-650" font-family="Helvetica,sans-Serif" font-size="10.00">+</text>
<text text-anchor="start" x="157" y="-650" font-family="Helvetica,sans-Serif" font-size="10.00">operator==()</text>
<text text-anchor="start" x="144" y="-635" font-family="Helvetica,sans-Serif" font-size="10.00">+</text>
<text text-anchor="start" x="157" y="-635" font-family="Helvetica,sans-Serif" font-size="10.00">print()</text>
<text text-anchor="start" x="144" y="-620" font-family="Helvetica,sans-Serif" font-size="10.00">+</text>
<text text-anchor="start" x="157" y="-620" font-family="Helvetica,sans-Serif" font-size="10.00">toString()</text>
<polygon fill="#666666" stroke="#666666" points="140,-765 140,-765 309,-765 309,-765 140,-765"/>
<polygon fill="#666666" stroke="#666666" points="140,-750 140,-750 309,-750 309,-750 140,-750"/>
<polygon fill="none" stroke="#666666" points="139.5,-613 139.5,-793 308.5,-793 308.5,-613 139.5,-613"/>
</a>
</g>
</g>
<!-- Node4&#45;&gt;Node2 -->
<g id="edge3_Node000002_Node000004" class="edge">
<title>Node4&#45;&gt;Node2</title>
<g id="a_edge3_Node000002_Node000004"><a xlink:title=" ">
<path fill="none" stroke="#63b8ff" d="M225.48,-612.97C225.67,-601.69 225.87,-590.01 226.06,-578.37"/>
<polygon fill="none" stroke="#63b8ff" points="226.06,-578.28 222.16,-572.22 226.26,-566.28 230.16,-572.35 226.06,-578.28"/>
</a>
</g>
<text text-anchor="middle" x="281" y="-587" font-family="Helvetica,sans-Serif" font-size="10.00" fill="grey"> #commonParameters</text>
</g>
<!-- Node5 -->
<g id="Node000005" class="node">
<title>Node5</title>
<g id="a_Node000005"><a xlink:href="structdnf__composer_1_1element_1_1ElementIdentifiers.html" target="_top" xlink:title="Identity information for an element: numeric ID, name, and type label.">
<polygon fill="white" stroke="transparent" points="423,-990 287,-990 287,-840 423,-840 423,-990"/>
<text text-anchor="start" x="297" y="-978" font-family="Helvetica,sans-Serif" font-size="10.00">dnf_composer::element</text>
<text text-anchor="start" x="307" y="-967" font-family="Helvetica,sans-Serif" font-size="10.00">::ElementIdentifiers</text>
<text text-anchor="start" x="291" y="-952" font-family="Helvetica,sans-Serif" font-size="10.00">+</text>
<text text-anchor="start" x="304" y="-952" font-family="Helvetica,sans-Serif" font-size="10.00">label</text>
<text text-anchor="start" x="291" y="-937" font-family="Helvetica,sans-Serif" font-size="10.00">+</text>
<text text-anchor="start" x="304" y="-937" font-family="Helvetica,sans-Serif" font-size="10.00">uniqueIdentifier</text>
<text text-anchor="start" x="291" y="-922" font-family="Helvetica,sans-Serif" font-size="10.00">+</text>
<text text-anchor="start" x="304" y="-922" font-family="Helvetica,sans-Serif" font-size="10.00">uniqueIdentifierCounter</text>
<text text-anchor="start" x="291" y="-907" font-family="Helvetica,sans-Serif" font-size="10.00">+</text>
<text text-anchor="start" x="304" y="-907" font-family="Helvetica,sans-Serif" font-size="10.00">ElementIdentifiers()</text>
<text text-anchor="start" x="291" y="-892" font-family="Helvetica,sans-Serif" font-size="10.00">+</text>
<text text-anchor="start" x="304" y="-892" font-family="Helvetica,sans-Serif" font-size="10.00">ElementIdentifiers()</text>
<text text-anchor="start" x="291" y="-877" font-family="Helvetica,sans-Serif" font-size="10.00">+</text>
<text text-anchor="start" x="304" y="-877" font-family="Helvetica,sans-Serif" font-size="10.00">operator==()</text>
<text text-anchor="start" x="291" y="-862" font-family="Helvetica,sans-Serif" font-size="10.00">+</text>
<text text-anchor="start" x="304" y="-862" font-family="Helvetica,sans-Serif" font-size="10.00">print()</text>
<text text-anchor="start" x="291" y="-847" font-family="Helvetica,sans-Serif" font-size="10.00">+</text>
<text text-anchor="start" x="304" y="-847" font-family="Helvetica,sans-Serif" font-size="10.00">toString()</text>
<polygon fill="#666666" stroke="#666666" points="287,-962 287,-962 423,-962 423,-962 287,-962"/>
<polygon fill="#666666" stroke="#666666" points="287,-917 287,-917 302,-917 302,-917 287,-917"/>
<polygon fill="#666666" stroke="#666666" points="302,-917 302,-917 423,-917 423,-917 302,-917"/>
<polygon fill="none" stroke="#666666" points="287,-840 287,-990 423,-990 423,-840 287,-840"/>
</a>
</g>
</g>
<!-- Node5&#45;&gt;Node4 -->
<g id="edge4_Node000004_Node000005" class="edge">
<title>Node5&#45;&gt;Node4</title>
<g id="a_edge4_Node000004_Node000005"><a xlink:title=" ">
<path fill="none" stroke="#63b8ff" d="M341.36,-839.85C338.07,-829.82 334.01,-819.93 329,-811 325.24,-804.3 320.95,-797.72 316.3,-791.32"/>
<polygon fill="none" stroke="#63b8ff" points="316.02,-790.96 309.19,-788.63 308.72,-781.43 315.55,-783.76 316.02,-790.96"/>
</a>
</g>
<text text-anchor="middle" x="364.5" y="-814" font-family="Helvetica,sans-Serif" font-size="10.00" fill="grey"> +identifiers</text>
</g>
<!-- Node6 -->
<g id="Node000006" class="node">
<title>Node6</title>
<g id="a_Node000006"><a xlink:title=" ">
<polygon fill="white" stroke="transparent" points="384.5,-1086 325.5,-1086 325.5,-1037 384.5,-1037 384.5,-1086"/>
<text text-anchor="start" x="331" y="-1073.5" font-family="Helvetica,sans-Serif" font-size="10.00">std::string</text>
<text text-anchor="start" x="353.5" y="-1058.5" font-family="Helvetica,sans-Serif" font-size="10.00"> </text>
<text text-anchor="start" x="353.5" y="-1043.5" font-family="Helvetica,sans-Serif" font-size="10.00"> </text>
<polygon fill="#666666" stroke="#666666" points="326,-1068.5 326,-1068.5 385,-1068.5 385,-1068.5 326,-1068.5"/>
<polygon fill="#666666" stroke="#666666" points="326,-1053.5 326,-1053.5 385,-1053.5 385,-1053.5 326,-1053.5"/>
<polygon fill="none" stroke="#666666" points="325.5,-1037 325.5,-1086 384.5,-1086 384.5,-1037 325.5,-1037"/>
</a>
</g>
</g>
<!-- Node6&#45;&gt;Node5 -->
<g id="edge5_Node000005_Node000006" class="edge">
<title>Node6&#45;&gt;Node5</title>
<g id="a_edge5_Node000005_Node000006"><a xlink:title=" ">
<path fill="none" stroke="#63b8ff" d="M355,-1036.96C355,-1027.14 355,-1015.08 355,-1002.41"/>
<polygon fill="none" stroke="#63b8ff" points="355,-1002.13 351,-996.13 355,-990.13 359,-996.13 355,-1002.13"/>
</a>
</g>
<text text-anchor="middle" x="392" y="-1011" font-family="Helvetica,sans-Serif" font-size="10.00" fill="grey"> +uniqueName</text>
</g>
<!-- Node9 -->
<g id="Node000009" class="node">
<title>Node9</title>
<g id="a_Node000009"><a xlink:title=" ">
<polygon fill="white" stroke="transparent" points="113,-950.5 5,-950.5 5,-879.5 113,-879.5 113,-950.5"/>
<text text-anchor="start" x="10" y="-938" font-family="Helvetica,sans-Serif" font-size="10.00">std::unordered_map</text>
<text text-anchor="start" x="10" y="-927" font-family="Helvetica,sans-Serif" font-size="10.00">&lt; std::string, std::</text>
<text text-anchor="start" x="10" y="-916" font-family="Helvetica,sans-Serif" font-size="10.00">vector&lt; double &gt; &gt;</text>
<text text-anchor="start" x="57" y="-901" font-family="Helvetica,sans-Serif" font-size="10.00"> </text>
<text text-anchor="start" x="57" y="-886" font-family="Helvetica,sans-Serif" font-size="10.00"> </text>
<polygon fill="#666666" stroke="#666666" points="5,-911 5,-911 113,-911 113,-911 5,-911"/>
<polygon fill="#666666" stroke="#666666" points="5,-896 5,-896 113,-896 113,-896 5,-896"/>
<polygon fill="none" stroke="#666666" points="5,-879.5 5,-950.5 113,-950.5 113,-879.5 5,-879.5"/>
</a>
</g>
</g>
<!-- Node6&#45;&gt;Node9 -->
<g id="edge9_Node000009_Node000006" class="edge">
<title>Node6&#45;&gt;Node9</title>
<g id="a_edge9_Node000009_Node000006"><a xlink:title=" ">
<path fill="none" stroke="#63b8ff" d="M325.3,-1055.84C280.68,-1047.83 194.86,-1028.47 132,-990 118.64,-981.82 105.95,-970.68 95.01,-959.53"/>
<polygon fill="none" stroke="#63b8ff" points="94.86,-959.37 87.83,-957.75 86.63,-950.64 93.65,-952.26 94.86,-959.37"/>
</a>
</g>
<text text-anchor="middle" x="207" y="-1011" font-family="Helvetica,sans-Serif" font-size="10.00" fill="grey"> +keys</text>
</g>
<!-- Node11 -->
<g id="Node000011" class="node">
<title>Node11</title>
<g id="a_Node000011"><a xlink:title=" ">
<polygon fill="white" stroke="transparent" points="308.5,-82 151.5,-82 151.5,0 308.5,0 308.5,-82"/>
<text text-anchor="start" x="157" y="-70" font-family="Helvetica,sans-Serif" font-size="10.00">std::unordered_map</text>
<text text-anchor="start" x="157" y="-59" font-family="Helvetica,sans-Serif" font-size="10.00">&lt; std::shared_ptr&lt; dnf</text>
<text text-anchor="start" x="157" y="-48" font-family="Helvetica,sans-Serif" font-size="10.00">_composer::element::Element</text>
<text text-anchor="start" x="191.5" y="-37" font-family="Helvetica,sans-Serif" font-size="10.00"> &gt;, std::string &gt;</text>
<text text-anchor="start" x="228.5" y="-22" font-family="Helvetica,sans-Serif" font-size="10.00"> </text>
<text text-anchor="start" x="228.5" y="-7" font-family="Helvetica,sans-Serif" font-size="10.00"> </text>
<polygon fill="#666666" stroke="#666666" points="152,-32 152,-32 309,-32 309,-32 152,-32"/>
<polygon fill="#666666" stroke="#666666" points="152,-17 152,-17 309,-17 309,-17 152,-17"/>
<polygon fill="none" stroke="#666666" points="151.5,0 151.5,-82 308.5,-82 308.5,0 151.5,0"/>
</a>
</g>
</g>
<!-- Node6&#45;&gt;Node11 -->
<g id="edge14_Node000011_Node000006" class="edge">
<title>Node6&#45;&gt;Node11</title>
<g id="a_edge14_Node000011_Node000006"><a xlink:title=" ">
<path fill="none" stroke="#63b8ff" d="M384.67,-1050.15C400.65,-1043.35 419.76,-1033.08 433,-1019 467.48,-982.35 480,-966.32 480,-916 480,-916 480,-916 480,-218 480,-176.91 482.64,-159.4 455,-129 420.21,-90.73 366.62,-69.14 320.47,-57.04"/>
<polygon fill="none" stroke="#63b8ff" points="320.25,-56.98 313.46,-59.42 308.6,-54.09 315.39,-51.65 320.25,-56.98"/>
</a>
</g>
<text text-anchor="middle" x="509" y="-587" font-family="Helvetica,sans-Serif" font-size="10.00" fill="grey"> +elements</text>
</g>
<!-- Node7 -->
<g id="Node000007" class="node">
<title>Node7</title>
<g id="a_Node000007"><a xlink:title=" ">
<polygon fill="white" stroke="transparent" points="404,-1183 306,-1183 306,-1123 404,-1123 404,-1183"/>
<text text-anchor="start" x="311" y="-1171" font-family="Helvetica,sans-Serif" font-size="10.00">std::basic_string&lt;</text>
<text text-anchor="start" x="336.5" y="-1160" font-family="Helvetica,sans-Serif" font-size="10.00"> Char &gt;</text>
<text text-anchor="start" x="353" y="-1145" font-family="Helvetica,sans-Serif" font-size="10.00"> </text>
<text text-anchor="start" x="353" y="-1130" font-family="Helvetica,sans-Serif" font-size="10.00"> </text>
<polygon fill="#666666" stroke="#666666" points="306,-1155 306,-1155 404,-1155 404,-1155 306,-1155"/>
<polygon fill="#666666" stroke="#666666" points="306,-1140 306,-1140 404,-1140 404,-1140 306,-1140"/>
<polygon fill="none" stroke="#666666" points="306,-1123 306,-1183 404,-1183 404,-1123 306,-1123"/>
</a>
</g>
</g>
<!-- Node7&#45;&gt;Node6 -->
<g id="edge6_Node000006_Node000007" class="edge">
<title>Node7&#45;&gt;Node6</title>
<g id="a_edge6_Node000006_Node000007"><a xlink:title=" ">
<path fill="none" stroke="#63b8ff" d="M355,-1112.41C355,-1103.47 355,-1094.25 355,-1086.21"/>
<polygon fill="none" stroke="#63b8ff" points="351.5,-1112.69 355,-1122.69 358.5,-1112.69 351.5,-1112.69"/>
</a>
</g>
</g>
<!-- Node8 -->
<g id="Node000008" class="node">
<title>Node8</title>
<g id="a_Node000008"><a xlink:href="structdnf__composer_1_1element_1_1ElementDimensions.html" target="_top" xlink:title="Spatial discretization of a one&#45;dimensional field.">
<polygon fill="white" stroke="transparent" points="268.5,-982.5 141.5,-982.5 141.5,-847.5 268.5,-847.5 268.5,-982.5"/>
<text text-anchor="start" x="147.5" y="-970" font-family="Helvetica,sans-Serif" font-size="10.00">dnf_composer::element</text>
<text text-anchor="start" x="153" y="-959" font-family="Helvetica,sans-Serif" font-size="10.00">::ElementDimensions</text>
<text text-anchor="start" x="146" y="-944" font-family="Helvetica,sans-Serif" font-size="10.00">+</text>
<text text-anchor="start" x="159" y="-944" font-family="Helvetica,sans-Serif" font-size="10.00">d_x</text>
<text text-anchor="start" x="146" y="-929" font-family="Helvetica,sans-Serif" font-size="10.00">+</text>
<text text-anchor="start" x="159" y="-929" font-family="Helvetica,sans-Serif" font-size="10.00">size</text>
<text text-anchor="start" x="146" y="-914" font-family="Helvetica,sans-Serif" font-size="10.00">+</text>
<text text-anchor="start" x="159" y="-914" font-family="Helvetica,sans-Serif" font-size="10.00">x_max</text>
<text text-anchor="start" x="146" y="-899" font-family="Helvetica,sans-Serif" font-size="10.00">+</text>
<text text-anchor="start" x="159" y="-899" font-family="Helvetica,sans-Serif" font-size="10.00">ElementDimensions()</text>
<text text-anchor="start" x="146" y="-884" font-family="Helvetica,sans-Serif" font-size="10.00">+</text>
<text text-anchor="start" x="159" y="-884" font-family="Helvetica,sans-Serif" font-size="10.00">operator==()</text>
<text text-anchor="start" x="146" y="-869" font-family="Helvetica,sans-Serif" font-size="10.00">+</text>
<text text-anchor="start" x="159" y="-869" font-family="Helvetica,sans-Serif" font-size="10.00">print()</text>
<text text-anchor="start" x="146" y="-854" font-family="Helvetica,sans-Serif" font-size="10.00">+</text>
<text text-anchor="start" x="159" y="-854" font-family="Helvetica,sans-Serif" font-size="10.00">toString()</text>
<polygon fill="#666666" stroke="#666666" points="142,-954 142,-954 269,-954 269,-954 142,-954"/>
<polygon fill="#666666" stroke="#666666" points="142,-909 142,-909 157,-909 157,-909 142,-909"/>
<polygon fill="#666666" stroke="#666666" points="157,-909 157,-909 269,-909 269,-909 157,-909"/>
<polygon fill="none" stroke="#666666" points="141.5,-847.5 141.5,-982.5 268.5,-982.5 268.5,-847.5 141.5,-847.5"/>
</a>
</g>
</g>
<!-- Node8&#45;&gt;Node4 -->
<g id="edge7_Node000004_Node000008" class="edge">
<title>Node8&#45;&gt;Node4</title>
<g id="a_edge7_Node000004_Node000008"><a xlink:title=" ">
<path fill="none" stroke="#63b8ff" d="M208.26,-847.47C209.03,-835.32 209.94,-822.77 211,-811 211.17,-809.1 211.35,-807.19 211.53,-805.26"/>
<polygon fill="none" stroke="#63b8ff" points="211.53,-805.22 208.15,-798.86 212.73,-793.28 216.11,-799.65 211.53,-805.22"/>
</a>
</g>
<text text-anchor="middle" x="270" y="-814" font-family="Helvetica,sans-Serif" font-size="10.00" fill="grey"> +dimensionParameters</text>
</g>
<!-- Node9&#45;&gt;Node2 -->
<g id="edge8_Node000002_Node000009" class="edge">
<title>Node9&#45;&gt;Node2</title>
<g id="a_edge8_Node000002_Node000009"><a xlink:title=" ">
<path fill="none" stroke="#63b8ff" d="M50.2,-879.16C37.38,-821.05 19.19,-701.96 59,-613 73.59,-580.39 99.09,-551.92 125.93,-528.75"/>
<polygon fill="none" stroke="#63b8ff" points="126.25,-528.48 128.29,-521.56 135.46,-520.78 133.42,-527.7 126.25,-528.48"/>
</a>
</g>
<text text-anchor="middle" x="95" y="-700.5" font-family="Helvetica,sans-Serif" font-size="10.00" fill="grey"> #components</text>
</g>
<!-- Node10 -->
<g id="Node000010" class="node">
<title>Node10</title>
<g id="a_Node000010"><a xlink:title=" ">
<polygon fill="white" stroke="transparent" points="118,-1086 0,-1086 0,-1037 118,-1037 118,-1086"/>
<text text-anchor="start" x="5" y="-1073.5" font-family="Helvetica,sans-Serif" font-size="10.00">std::vector&lt; double &gt;</text>
<text text-anchor="start" x="16.5" y="-1058.5" font-family="Helvetica,sans-Serif" font-size="10.00">+</text>
<text text-anchor="start" x="42" y="-1058.5" font-family="Helvetica,sans-Serif" font-size="10.00">elements</text>
<text text-anchor="start" x="57" y="-1043.5" font-family="Helvetica,sans-Serif" font-size="10.00"> </text>
<polygon fill="#666666" stroke="#666666" points="0,-1068.5 0,-1068.5 118,-1068.5 118,-1068.5 0,-1068.5"/>
<polygon fill="#666666" stroke="#666666" points="0,-1053.5 0,-1053.5 40,-1053.5 40,-1053.5 0,-1053.5"/>
<polygon fill="#666666" stroke="#666666" points="40,-1053.5 40,-1053.5 118,-1053.5 118,-1053.5 40,-1053.5"/>
<polygon fill="none" stroke="#666666" points="0,-1037 0,-1086 118,-1086 118,-1037 0,-1037"/>
</a>
</g>
</g>
<!-- Node10&#45;&gt;Node9 -->
<g id="edge10_Node000009_Node000010" class="edge">
<title>Node10&#45;&gt;Node9</title>
<g id="a_edge10_Node000009_Node000010"><a xlink:title=" ">
<path fill="none" stroke="#63b8ff" d="M59,-1036.96C59,-1016.92 59,-987.51 59,-962.71"/>
<polygon fill="none" stroke="#63b8ff" points="59,-962.6 55,-956.6 59,-950.6 63,-956.6 59,-962.6"/>
</a>
</g>
<text text-anchor="middle" x="88" y="-1011" font-family="Helvetica,sans-Serif" font-size="10.00" fill="grey"> +elements</text>
</g>
<!-- Node11&#45;&gt;Node2 -->
<g id="edge11_Node000002_Node000011" class="edge">
<title>Node11&#45;&gt;Node2</title>
<g id="a_edge11_Node000002_Node000011"><a xlink:title=" ">
<path fill="none" stroke="#63b8ff" d="M229.81,-82.17C229.52,-141.87 228.97,-256.36 228.56,-343.73"/>
<polygon fill="none" stroke="#63b8ff" points="228.56,-343.87 232.53,-349.89 228.5,-355.87 224.53,-349.85 228.56,-343.87"/>
</a>
</g>
<text text-anchor="middle" x="253" y="-222" font-family="Helvetica,sans-Serif" font-size="10.00" fill="grey"> #inputs</text>
<text text-anchor="middle" x="253" y="-211" font-family="Helvetica,sans-Serif" font-size="10.00" fill="grey">#outputs</text>
</g>
<!-- Node12&#45;&gt;Node11 -->
<g id="edge12_Node000011_Node000012" class="edge">
<title>Node12&#45;&gt;Node11</title>
<g id="a_edge12_Node000011_Node000012"><a xlink:title=" ">
<path fill="none" stroke="#63b8ff" d="M126.34,-188.65C140.25,-164.31 161.24,-129.11 182,-100 183.89,-97.35 185.87,-94.66 187.9,-91.98"/>
<polygon fill="none" stroke="#63b8ff" points="188.06,-91.77 188.58,-84.58 195.42,-82.3 194.9,-89.49 188.06,-91.77"/>
</a>
</g>
<text text-anchor="middle" x="199" y="-103" font-family="Helvetica,sans-Serif" font-size="10.00" fill="grey"> +keys</text>
</g>
</g>
</svg>
