<?xml version="1.0" encoding="UTF-8" standalone="no"?>
<!DOCTYPE svg PUBLIC "-//W3C//DTD SVG 1.1//EN"
 "http://www.w3.org/Graphics/SVG/1.1/DTD/svg11.dtd">
<!-- Generated by graphviz version 2.43.0 (0)
 -->
<!-- Title: dnf_composer::element::NeuralField::step Pages: 1 -->
<svg width="542pt" height="182pt"
 viewBox="0.00 0.00 542.00 182.00" xmlns="http://www.w3.org/2000/svg" xmlns:xlink="http://www.w3.org/1999/xlink">
<g id="graph0" class="graph" transform="scale(1 1) rotate(0) translate(4 178)">
<title>dnf_composer::element::NeuralField::step</title>
<!-- Node1 -->
<g id="Node000001" class="node">
<title>Node1</title>
<g id="a_Node000001"><a xlink:title="Advance the element by one time step.">
<polygon fill="#999999" stroke="#666666" points="132,-102 0,-102 0,-72 132,-72 132,-102"/>
<text text-anchor="start" x="8" y="-90" font-family="Helvetica,sans-Serif" font-size="10.00">dnf_composer::element</text>
<text text-anchor="middle" x="66" y="-79" font-family="Helvetica,sans-Serif" font-size="10.00">::NeuralField::step</text>
</a>
</g>
</g>
<!-- Node2 -->
<g id="Node000002" class="node">
<title>Node2</title>
<g id="a_Node000002"><a xlink:href="classdnf__composer_1_1element_1_1NeuralField.html#ae0ba15fe0c90d15d7bbfe0e4d91289b2" target="_top" xlink:title=" ">
<polygon fill="white" stroke="#666666" points="346,-174 168,-174 168,-144 346,-144 346,-174"/>
<text text-anchor="start" x="176" y="-162" font-family="Helvetica,sans-Serif" font-size="10.00">dnf_composer::element</text>
<text text-anchor="middle" x="257" y="-151" font-family="Helvetica,sans-Serif" font-size="10.00">::NeuralField::calculateActivation</text>
</a>
</g>
</g>
<!-- Node1&#45;&gt;Node2 -->
<g id="edge1_Node000001_Node000002" class="edge">
<title>Node1&#45;&gt;Node2</title>
<g id="a_edge1_Node000001_Node000002"><a xlink:title=" ">
<path fill="none" stroke="#63b8ff" d="M95.15,-102.04C115.09,-112.28 142.7,-125.62 168,-135 173.52,-137.04 179.29,-139 185.12,-140.85"/>
<polygon fill="#63b8ff" stroke="#63b8ff" points="184.37,-144.29 194.96,-143.87 186.42,-137.59 184.37,-144.29"/>
</a>
</g>
</g>
<!-- Node3 -->
<g id="Node000003" class="node">
<title>Node3</title>
<g id="a_Node000003"><a xlink:href="classdnf__composer_1_1element_1_1NeuralField.html#ae3c715f01f0818371b8059627df7b7a2" target="_top" xlink:title=" ">
<polygon fill="white" stroke="#666666" points="337.5,-126 176.5,-126 176.5,-96 337.5,-96 337.5,-126"/>
<text text-anchor="start" x="184.5" y="-114" font-family="Helvetica,sans-Serif" font-size="10.00">dnf_composer::element</text>
<text text-anchor="middle" x="257" y="-103" font-family="Helvetica,sans-Serif" font-size="10.00">::NeuralField::calculateOutput</text>
</a>
</g>
</g>
<!-- Node1&#45;&gt;Node3 -->
<g id="edge2_Node000001_Node000003" class="edge">
<title>Node1&#45;&gt;Node3</title>
<g id="a_edge2_Node000001_Node000003"><a xlink:title=" ">
<path fill="none" stroke="#63b8ff" d="M132.04,-95.26C143.11,-96.66 154.78,-98.15 166.34,-99.62"/>
<polygon fill="#63b8ff" stroke="#63b8ff" points="166.11,-103.11 176.47,-100.9 166.99,-96.17 166.11,-103.11"/>
</a>
</g>
</g>
<!-- Node4 -->
<g id="Node000004" class="node">
<title>Node4</title>
<g id="a_Node000004"><a xlink:href="classdnf__composer_1_1element_1_1Element.html#a87401af54d46e1cf99d2755d3fce0a9a" target="_top" xlink:title="Pull data from all registered input elements into this element&#39;s components.">
<polygon fill="white" stroke="#666666" points="323,-78 191,-78 191,-48 323,-48 323,-78"/>
<text text-anchor="start" x="199" y="-66" font-family="Helvetica,sans-Serif" font-size="10.00">dnf_composer::element</text>
<text text-anchor="middle" x="257" y="-55" font-family="Helvetica,sans-Serif" font-size="10.00">::Element::updateInput</text>
</a>
</g>
</g>
<!-- Node1&#45;&gt;Node4 -->
<g id="edge3_Node000001_Node000004" class="edge">
<title>Node1&#45;&gt;Node4</title>
<g id="a_edge3_Node000001_Node000004"><a xlink:title=" ">
<path fill="none" stroke="#63b8ff" d="M132.04,-78.74C147.78,-76.74 164.73,-74.59 180.89,-72.54"/>
<polygon fill="#63b8ff" stroke="#63b8ff" points="181.36,-76.01 190.84,-71.27 180.48,-69.06 181.36,-76.01"/>
</a>
</g>
</g>
<!-- Node6 -->
<g id="Node000006" class="node">
<title>Node6</title>
<g id="a_Node000006"><a xlink:href="classdnf__composer_1_1element_1_1NeuralField.html#a6656f6846ca05bcf2a66394833e0170e" target="_top" xlink:title=" ">
<polygon fill="white" stroke="#666666" points="328.5,-30 185.5,-30 185.5,0 328.5,0 328.5,-30"/>
<text text-anchor="start" x="193.5" y="-18" font-family="Helvetica,sans-Serif" font-size="10.00">dnf_composer::element</text>
<text text-anchor="middle" x="257" y="-7" font-family="Helvetica,sans-Serif" font-size="10.00">::NeuralField::updateState</text>
</a>
</g>
</g>
<!-- Node1&#45;&gt;Node6 -->
<g id="edge5_Node000001_Node000006" class="edge">
<title>Node1&#45;&gt;Node6</title>
<g id="a_edge5_Node000001_Node000006"><a xlink:title=" ">
<path fill="none" stroke="#63b8ff" d="M95.15,-71.96C115.09,-61.72 142.7,-48.38 168,-39 173.52,-36.96 179.29,-35 185.12,-33.15"/>
<polygon fill="#63b8ff" stroke="#63b8ff" points="186.42,-36.41 194.96,-30.13 184.37,-29.71 186.42,-36.41"/>
</a>
</g>
</g>
<!-- Node5 -->
<g id="Node000005" class="node">
<title>Node5</title>
<g id="a_Node000005"><a xlink:href="classdnf__composer_1_1element_1_1Element.html#a48e4fcaeda8316d79dfaa8de41cec87e" target="_top" xlink:title="Cache raw pointers to input component data. Call after all element init()s complete.">
<polygon fill="white" stroke="#666666" points="532,-78 384,-78 384,-48 532,-48 532,-78"/>
<text text-anchor="start" x="392" y="-66" font-family="Helvetica,sans-Serif" font-size="10.00">dnf_composer::element</text>
<text text-anchor="middle" x="458" y="-55" font-family="Helvetica,sans-Serif" font-size="10.00">::Element::buildInputCache</text>
</a>
</g>
</g>
<!-- Node4&#45;&gt;Node5 -->
<g id="edge4_Node000004_Node000005" class="edge">
<title>Node4&#45;&gt;Node5</title>
<g id="a_edge4_Node000004_Node000005"><a xlink:title=" ">
<path fill="none" stroke="#63b8ff" d="M323.16,-63C339.21,-63 356.62,-63 373.41,-63"/>
<polygon fill="#63b8ff" stroke="#63b8ff" points="373.77,-66.5 383.77,-63 373.77,-59.5 373.77,-66.5"/>
</a>
</g>
</g>
<!-- Node7 -->
<g id="Node000007" class="node">
<title>Node7</title>
<g id="a_Node000007"><a xlink:href="classdnf__composer_1_1element_1_1NeuralField.html#acd9d648c62f1ae7e454f578ef434c713" target="_top" xlink:title=" ">
<polygon fill="white" stroke="#666666" points="534,-30 382,-30 382,0 534,0 534,-30"/>
<text text-anchor="start" x="390" y="-18" font-family="Helvetica,sans-Serif" font-size="10.00">dnf_composer::element</text>
<text text-anchor="middle" x="458" y="-7" font-family="Helvetica,sans-Serif" font-size="10.00">::NeuralField::updateBumps</text>
</a>
</g>
</g>
<!-- Node6&#45;&gt;Node7 -->
<g id="edge6_Node000006_Node000007" class="edge">
<title>Node6&#45;&gt;Node7</title>
<g id="a_edge6_Node000006_Node000007"><a xlink:title=" ">
<path fill="none" stroke="#63b8ff" d="M328.72,-15C342.56,-15 357.22,-15 371.49,-15"/>
<polygon fill="#63b8ff" stroke="#63b8ff" points="371.79,-18.5 381.79,-15 371.79,-11.5 371.79,-18.5"/>
</a>
</g>
</g>
</g>
</svg>
