<?xml version="1.0" encoding="UTF-8" standalone="no"?>
<!DOCTYPE svg PUBLIC "-//W3C//DTD SVG 1.1//EN"
 "http://www.w3.org/Graphics/SVG/1.1/DTD/svg11.dtd">
<!-- Generated by graphviz version 2.43.0 (0)
 -->
<!-- Title: dnf_composer::element::Collapse::step Pages: 1 -->
<svg width="506pt" height="134pt"
 viewBox="0.00 0.00 506.00 134.00" xmlns="http://www.w3.org/2000/svg" xmlns:xlink="http://www.w3.org/1999/xlink">
<g id="graph0" class="graph" transform="scale(1 1) rotate(0) translate(4 130)">
<title>dnf_composer::element::Collapse::step</title>
<!-- Node1 -->
<g id="Node000001" class="node">
<title>Node1</title>
<g id="a_Node000001"><a xlink:title="Advance the element by one time step.">
<polygon fill="#999999" stroke="#666666" points="132,-78 0,-78 0,-48 132,-48 132,-78"/>
<text text-anchor="start" x="8" y="-66" font-family="Helvetica,sans-Serif" font-size="10.00">dnf_composer::element</text>
<text text-anchor="middle" x="66" y="-55" font-family="Helvetica,sans-Serif" font-size="10.00">::Collapse::step</text>
</a>
</g>
</g>
<!-- Node2 -->
<g id="Node000002" class="node">
<title>Node2</title>
<g id="a_Node000002"><a xlink:href="namespacednf__composer_1_1tools_1_1math.html#a95380809f9539267569ce75a0ec994ac" target="_top" xlink:title=" ">
<polygon fill="white" stroke="#666666" points="314,-126 168,-126 168,-96 314,-96 314,-126"/>
<text text-anchor="start" x="176" y="-114" font-family="Helvetica,sans-Serif" font-size="10.00">dnf_composer::tools</text>
<text text-anchor="middle" x="241" y="-103" font-family="Helvetica,sans-Serif" font-size="10.00">::math::reduce2DAxis_into</text>
</a>
</g>
</g>
<!-- Node1&#45;&gt;Node2 -->
<g id="edge1_Node000001_Node000002" class="edge">
<title>Node1&#45;&gt;Node2</title>
<g id="a_edge1_Node000001_Node000002"><a xlink:title=" ">
<path fill="none" stroke="#63b8ff" d="M121.26,-78.06C138.65,-82.88 158.07,-88.27 176.09,-93.27"/>
<polygon fill="#63b8ff" stroke="#63b8ff" points="175.36,-96.7 185.93,-96 177.23,-89.95 175.36,-96.7"/>
</a>
</g>
</g>
<!-- Node3 -->
<g id="Node000003" class="node">
<title>Node3</title>
<g id="a_Node000003"><a xlink:href="namespacednf__composer_1_1element.html#a4a021a7c6fdf2bc6b14a5c6ee944395b" target="_top" xlink:title="Maps a CompressionType to the corresponding math reduction op.">
<polygon fill="white" stroke="#666666" points="307,-78 175,-78 175,-48 307,-48 307,-78"/>
<text text-anchor="start" x="183" y="-66" font-family="Helvetica,sans-Serif" font-size="10.00">dnf_composer::element</text>
<text text-anchor="middle" x="241" y="-55" font-family="Helvetica,sans-Serif" font-size="10.00">::toReduceOp</text>
</a>
</g>
</g>
<!-- Node1&#45;&gt;Node3 -->
<g id="edge2_Node000001_Node000003" class="edge">
<title>Node1&#45;&gt;Node3</title>
<g id="a_edge2_Node000001_Node000003"><a xlink:title=" ">
<path fill="none" stroke="#63b8ff" d="M132.4,-63C142.92,-63 153.87,-63 164.6,-63"/>
<polygon fill="#63b8ff" stroke="#63b8ff" points="164.79,-66.5 174.79,-63 164.79,-59.5 164.79,-66.5"/>
</a>
</g>
</g>
<!-- Node4 -->
<g id="Node000004" class="node">
<title>Node4</title>
<g id="a_Node000004"><a xlink:href="classdnf__composer_1_1element_1_1Element.html#a87401af54d46e1cf99d2755d3fce0a9a" target="_top" xlink:title="Pull data from all registered input elements into this element&#39;s components.">
<polygon fill="white" stroke="#666666" points="307,-30 175,-30 175,0 307,0 307,-30"/>
<text text-anchor="start" x="183" y="-18" font-family="Helvetica,sans-Serif" font-size="10.00">dnf_composer::element</text>
<text text-anchor="middle" x="241" y="-7" font-family="Helvetica,sans-Serif" font-size="10.00">::Element::updateInput</text>
</a>
</g>
</g>
<!-- Node1&#45;&gt;Node4 -->
<g id="edge3_Node000001_Node000004" class="edge">
<title>Node1&#45;&gt;Node4</title>
<g id="a_edge3_Node000001_Node000004"><a xlink:title=" ">
<path fill="none" stroke="#63b8ff" d="M121.26,-47.94C138.65,-43.12 158.07,-37.73 176.09,-32.73"/>
<polygon fill="#63b8ff" stroke="#63b8ff" points="177.23,-36.05 185.93,-30 175.36,-29.3 177.23,-36.05"/>
</a>
</g>
</g>
<!-- Node5 -->
<g id="Node000005" class="node">
<title>Node5</title>
<g id="a_Node000005"><a xlink:href="classdnf__composer_1_1element_1_1Element.html#a48e4fcaeda8316d79dfaa8de41cec87e" target="_top" xlink:title="Cache raw pointers to input component data. Call after all element init()s complete.">
<polygon fill="white" stroke="#666666" points="498,-30 350,-30 350,0 498,0 498,-30"/>
<text text-anchor="start" x="358" y="-18" font-family="Helvetica,sans-Serif" font-size="10.00">dnf_composer::element</text>
<text text-anchor="middle" x="424" y="-7" font-family="Helvetica,sans-Serif" font-size="10.00">::Element::buildInputCache</text>
</a>
</g>
</g>
<!-- Node4&#45;&gt;Node5 -->
<g id="edge4_Node000004_Node000005" class="edge">
<title>Node4&#45;&gt;Node5</title>
<g id="a_edge4_Node000004_Node000005"><a xlink:title=" ">
<path fill="none" stroke="#63b8ff" d="M307.09,-15C317.72,-15 328.86,-15 339.85,-15"/>
<polygon fill="#63b8ff" stroke="#63b8ff" points="339.89,-18.5 349.89,-15 339.89,-11.5 339.89,-18.5"/>
</a>
</g>
</g>
</g>
</svg>
