<?xml version="1.0" encoding="UTF-8" standalone="no"?>
<!DOCTYPE svg PUBLIC "-//W3C//DTD SVG 1.1//EN"
 "http://www.w3.org/Graphics/SVG/1.1/DTD/svg11.dtd">
<!-- Generated by graphviz version 2.43.0 (0)
 -->
<!-- Title: dnf_composer::element::TimedGaussStimulus Pages: 1 -->
<svg width="546pt" height="1251pt"
 viewBox="0.00 0.00 546.00 1251.00" xmlns="http://www.w3.org/2000/svg" xmlns:xlink="http://www.w3.org/1999/xlink">
<g id="graph0" class="graph" transform="scale(1 1) rotate(0) translate(4 1247)">
<title>dnf_composer::element::TimedGaussStimulus</title>
<!-- Node1 -->
<g id="Node000001" class="node">
<title>Node1</title>
<g id="a_Node000001"><a xlink:title="Gaussian stimulus that is active only during specified time intervals.">
<polygon fill="#999999" stroke="transparent" points="436.5,-279 303.5,-279 303.5,-129 436.5,-129 436.5,-279"/>
<text text-anchor="start" x="312.5" y="-267" font-family="Helvetica,sans-Serif" font-size="10.00">dnf_composer::element</text>
<text text-anchor="start" x="315.5" y="-256" font-family="Helvetica,sans-Serif" font-size="10.00">::TimedGaussStimulus</text>
<text text-anchor="start" x="368.5" y="-241" font-family="Helvetica,sans-Serif" font-size="10.00"> </text>
<text text-anchor="start" x="308" y="-226" font-family="Helvetica,sans-Serif" font-size="10.00">+</text>
<text text-anchor="start" x="321" y="-226" font-family="Helvetica,sans-Serif" font-size="10.00">clone()</text>
<text text-anchor="start" x="308" y="-211" font-family="Helvetica,sans-Serif" font-size="10.00">+</text>
<text text-anchor="start" x="321" y="-211" font-family="Helvetica,sans-Serif" font-size="10.00">getParameters()</text>
<text text-anchor="start" x="308" y="-196" font-family="Helvetica,sans-Serif" font-size="10.00">+</text>
<text text-anchor="start" x="321" y="-196" font-family="Helvetica,sans-Serif" font-size="10.00">init()</text>
<text text-anchor="start" x="308" y="-181" font-family="Helvetica,sans-Serif" font-size="10.00">+</text>
<text text-anchor="start" x="321" y="-181" font-family="Helvetica,sans-Serif" font-size="10.00">setParameters()</text>
<text text-anchor="start" x="308" y="-166" font-family="Helvetica,sans-Serif" font-size="10.00">+</text>
<text text-anchor="start" x="321" y="-166" font-family="Helvetica,sans-Serif" font-size="10.00">step()</text>
<text text-anchor="start" x="308" y="-151" font-family="Helvetica,sans-Serif" font-size="10.00">+</text>
<text text-anchor="start" x="321" y="-151" font-family="Helvetica,sans-Serif" font-size="10.00">TimedGaussStimulus()</text>
<text text-anchor="start" x="308" y="-136" font-family="Helvetica,sans-Serif" font-size="10.00">+</text>
<text text-anchor="start" x="321" y="-136" font-family="Helvetica,sans-Serif" font-size="10.00">toString()</text>
<polygon fill="#666666" stroke="#666666" points="304,-251 304,-251 437,-251 437,-251 304,-251"/>
<polygon fill="#666666" stroke="#666666" points="304,-236 304,-236 437,-236 437,-236 304,-236"/>
<polygon fill="none" stroke="#666666" points="303.5,-129 303.5,-279 436.5,-279 436.5,-129 303.5,-129"/>
</a>
</g>
</g>
<!-- Node2 -->
<g id="Node000002" class="node">
<title>Node2</title>
<g id="a_Node000002"><a xlink:href="classdnf__composer_1_1element_1_1Element.html" target="_top" xlink:title="Abstract base class for all simulation elements.">
<polygon fill="white" stroke="transparent" points="298,-536 172,-536 172,-326 298,-326 298,-536"/>
<text text-anchor="start" x="177" y="-524" font-family="Helvetica,sans-Serif" font-size="10.00">dnf_composer::element</text>
<text text-anchor="start" x="211.5" y="-513" font-family="Helvetica,sans-Serif" font-size="10.00">::Element</text>
<text text-anchor="start" x="233" y="-498" font-family="Helvetica,sans-Serif" font-size="10.00"> </text>
<text text-anchor="start" x="177" y="-483" font-family="Helvetica,sans-Serif" font-size="10.00">+</text>
<text text-anchor="start" x="191" y="-483" font-family="Helvetica,sans-Serif" font-size="10.00">addInput()</text>
<text text-anchor="start" x="177" y="-468" font-family="Helvetica,sans-Serif" font-size="10.00">+</text>
<text text-anchor="start" x="191" y="-468" font-family="Helvetica,sans-Serif" font-size="10.00">buildInputCache()</text>
<text text-anchor="start" x="177" y="-453" font-family="Helvetica,sans-Serif" font-size="10.00">+</text>
<text text-anchor="start" x="191" y="-453" font-family="Helvetica,sans-Serif" font-size="10.00">changeDimensions()</text>
<text text-anchor="start" x="177" y="-438" font-family="Helvetica,sans-Serif" font-size="10.00">+</text>
<text text-anchor="start" x="191" y="-438" font-family="Helvetica,sans-Serif" font-size="10.00">clone()</text>
<text text-anchor="start" x="177" y="-423" font-family="Helvetica,sans-Serif" font-size="10.00">+</text>
<text text-anchor="start" x="191" y="-423" font-family="Helvetica,sans-Serif" font-size="10.00">close()</text>
<text text-anchor="start" x="177" y="-408" font-family="Helvetica,sans-Serif" font-size="10.00">+</text>
<text text-anchor="start" x="191" y="-408" font-family="Helvetica,sans-Serif" font-size="10.00">Element()</text>
<text text-anchor="start" x="177" y="-393" font-family="Helvetica,sans-Serif" font-size="10.00">+</text>
<text text-anchor="start" x="191" y="-393" font-family="Helvetica,sans-Serif" font-size="10.00">getComponent()</text>
<text text-anchor="start" x="177" y="-378" font-family="Helvetica,sans-Serif" font-size="10.00">+</text>
<text text-anchor="start" x="191" y="-378" font-family="Helvetica,sans-Serif" font-size="10.00">getComponentList()</text>
<text text-anchor="start" x="177" y="-363" font-family="Helvetica,sans-Serif" font-size="10.00">+</text>
<text text-anchor="start" x="191" y="-363" font-family="Helvetica,sans-Serif" font-size="10.00">getComponentPtr()</text>
<text text-anchor="start" x="177" y="-348" font-family="Helvetica,sans-Serif" font-size="10.00">+</text>
<text text-anchor="start" x="191" y="-348" font-family="Helvetica,sans-Serif" font-size="10.00">getComponents()</text>
<text text-anchor="start" x="191" y="-333" font-family="Helvetica,sans-Serif" font-size="10.00">and 28 more...</text>
<polygon fill="#666666" stroke="#666666" points="172,-508 172,-508 298,-508 298,-508 172,-508"/>
<polygon fill="#666666" stroke="#666666" points="172,-493 172,-493 298,-493 298,-493 172,-493"/>
<polygon fill="none" stroke="#666666" points="172,-326 172,-536 298,-536 298,-326 172,-326"/>
</a>
</g>
</g>
<!-- Node2&#45;&gt;Node1 -->
<g id="edge1_Node000001_Node000002" class="edge">
<title>Node2&#45;&gt;Node1</title>
<g id="a_edge1_Node000001_Node000002"><a xlink:title=" ">
<path fill="none" stroke="#63b8ff" d="M302.88,-316.86C310.58,-304.03 318.27,-291.22 325.55,-279.08"/>
<polygon fill="none" stroke="#63b8ff" points="299.7,-315.36 297.56,-325.73 305.71,-318.96 299.7,-315.36"/>
</a>
</g>
</g>
<!-- Node12 -->
<g id="Node000012" class="node">
<title>Node12</title>
<g id="a_Node000012"><a xlink:title=" ">
<polygon fill="white" stroke="transparent" points="203,-234 35,-234 35,-174 203,-174 203,-234"/>
<text text-anchor="start" x="40" y="-222" font-family="Helvetica,sans-Serif" font-size="10.00">std::shared_ptr&lt; dnf</text>
<text text-anchor="start" x="40" y="-211" font-family="Helvetica,sans-Serif" font-size="10.00">_composer::element::Element &gt;</text>
<text text-anchor="start" x="117" y="-196" font-family="Helvetica,sans-Serif" font-size="10.00"> </text>
<text text-anchor="start" x="60.5" y="-181" font-family="Helvetica,sans-Serif" font-size="10.00">+</text>
<text text-anchor="start" x="95" y="-181" font-family="Helvetica,sans-Serif" font-size="10.00">operator&#45;&gt;()</text>
<polygon fill="#666666" stroke="#666666" points="35,-206 35,-206 203,-206 203,-206 35,-206"/>
<polygon fill="#666666" stroke="#666666" points="35,-191 35,-191 203,-191 203,-191 35,-191"/>
<polygon fill="none" stroke="#666666" points="35,-174 35,-234 203,-234 203,-174 35,-174"/>
</a>
</g>
</g>
<!-- Node2&#45;&gt;Node12 -->
<g id="edge13_Node000012_Node000002" class="edge">
<title>Node2&#45;&gt;Node12</title>
<g id="a_edge13_Node000012_Node000002"><a xlink:title=" ">
<path fill="none" stroke="#63b8ff" d="M181.24,-325.73C166.44,-297.02 151.27,-267.58 139.61,-244.97"/>
<polygon fill="none" stroke="#63b8ff" points="139.51,-244.79 133.21,-241.29 134.02,-234.12 140.32,-237.62 139.51,-244.79"/>
</a>
</g>
<text text-anchor="middle" x="183.5" y="-300" font-family="Helvetica,sans-Serif" font-size="10.00" fill="grey"> +ptr</text>
</g>
<!-- Node3 -->
<g id="Node000003" class="node">
<title>Node3</title>
<g id="a_Node000003"><a xlink:title=" ">
<polygon fill="white" stroke="transparent" points="451.5,-703 326.5,-703 326.5,-643 451.5,-643 451.5,-703"/>
<text text-anchor="start" x="332" y="-691" font-family="Helvetica,sans-Serif" font-size="10.00">std::enable_shared</text>
<text text-anchor="start" x="332" y="-680" font-family="Helvetica,sans-Serif" font-size="10.00">_from_this&lt; Element &gt;</text>
<text text-anchor="start" x="387.5" y="-665" font-family="Helvetica,sans-Serif" font-size="10.00"> </text>
<text text-anchor="start" x="387.5" y="-650" font-family="Helvetica,sans-Serif" font-size="10.00"> </text>
<polygon fill="#666666" stroke="#666666" points="327,-675 327,-675 452,-675 452,-675 327,-675"/>
<polygon fill="#666666" stroke="#666666" points="327,-660 327,-660 452,-660 452,-660 327,-660"/>
<polygon fill="none" stroke="#666666" points="326.5,-643 326.5,-703 451.5,-703 451.5,-643 326.5,-643"/>
</a>
</g>
</g>
<!-- Node3&#45;&gt;Node2 -->
<g id="edge2_Node000002_Node000003" class="edge">
<title>Node3&#45;&gt;Node2</title>
<g id="a_edge2_Node000002_Node000003"><a xlink:title=" ">
<path fill="none" stroke="#63b8ff" d="M378.02,-632.76C370.41,-608.97 358.96,-578.58 344,-554 331.23,-533.01 314.64,-512.28 298.28,-494.03"/>
<polygon fill="none" stroke="#63b8ff" points="374.73,-634 381.04,-642.51 381.42,-631.92 374.73,-634"/>
</a>
</g>
</g>
<!-- Node4 -->
<g id="Node000004" class="node">
<title>Node4</title>
<g id="a_Node000004"><a xlink:href="structdnf__composer_1_1element_1_1ElementCommonParameters.html" target="_top" xlink:title=" ">
<polygon fill="white" stroke="transparent" points="308.5,-763 139.5,-763 139.5,-583 308.5,-583 308.5,-763"/>
<text text-anchor="start" x="151" y="-751" font-family="Helvetica,sans-Serif" font-size="10.00">dnf_composer::element</text>
<text text-anchor="start" x="151" y="-740" font-family="Helvetica,sans-Serif" font-size="10.00">::ElementCommonParameters</text>
<text text-anchor="start" x="222.5" y="-725" font-family="Helvetica,sans-Serif" font-size="10.00"> </text>
<text text-anchor="start" x="144" y="-710" font-family="Helvetica,sans-Serif" font-size="10.00">+</text>
<text text-anchor="start" x="157" y="-710" font-family="Helvetica,sans-Serif" font-size="10.00">ElementCommonParameters()</text>
<text text-anchor="start" x="144" y="-695" font-family="Helvetica,sans-Serif" font-size="10.00">+</text>
<text text-anchor="start" x="157" y="-695" font-family="Helvetica,sans-Serif" font-size="10.00">ElementCommonParameters()</text>
<text text-anchor="start" x="144" y="-680" font-family="Helvetica,sans-Serif" font-size="10.00">+</text>
<text text-anchor="start" x="157" y="-680" font-family="Helvetica,sans-Serif" font-size="10.00">ElementCommonParameters()</text>
<text text-anchor="start" x="144" y="-665" font-family="Helvetica,sans-Serif" font-size="10.00">+</text>
<text text-anchor="start" x="157" y="-665" font-family="Helvetica,sans-Serif" font-size="10.00">ElementCommonParameters()</text>
<text text-anchor="start" x="144" y="-650" font-family="Helvetica,sans-Serif" font-size="10.00">+</text>
<text text-anchor="start" x="157" y="-650" font-family="Helvetica,sans-Serif" font-size="10.00">ElementCommonParameters()</text>
<text text-anchor="start" x="144" y="-635" font-family="Helvetica,sans-Serif" font-size="10.00">+</text>
<text text-anchor="start" x="157" y="-635" font-family="Helvetica,sans-Serif" font-size="10.00">ElementCommonParameters()</text>
<text text-anchor="start" x="144" y="-620" font-family="Helvetica,sans-Serif" font-size="10.00">+</text>
<text text-anchor="start" x="157" y="-620" font-family="Helvetica,sans-Serif" font-size="10.00">operator==()</text>
<text text-anchor="start" x="144" y="-605" font-family="Helvetica,sans-Serif" font-size="10.00">+</text>
<text text-anchor="start" x="157" y="-605" font-family="Helvetica,sans-Serif" font-size="10.00">print()</text>
<text text-anchor="start" x="144" y="-590" font-family="Helvetica,sans-Serif" font-size="10.00">+</text>
<text text-anchor="start" x="157" y="-590" font-family="Helvetica,sans-Serif" font-size="10.00">toString()</text>
<polygon fill="#666666" stroke="#666666" points="140,-735 140,-735 309,-735 309,-735 140,-735"/>
<polygon fill="#666666" stroke="#666666" points="140,-720 140,-720 309,-720 309,-720 140,-720"/>
<polygon fill="none" stroke="#666666" points="139.5,-583 139.5,-763 308.5,-763 308.5,-583 139.5,-583"/>
</a>
</g>
</g>
<!-- Node4&#45;&gt;Node2 -->
<g id="edge3_Node000002_Node000004" class="edge">
<title>Node4&#45;&gt;Node2</title>
<g id="a_edge3_Node000002_Node000004"><a xlink:title=" ">
<path fill="none" stroke="#63b8ff" d="M228.08,-582.97C228.6,-571.69 229.13,-560.01 229.67,-548.37"/>
<polygon fill="none" stroke="#63b8ff" points="229.67,-548.27 225.95,-542.1 230.22,-536.28 233.94,-542.46 229.67,-548.27"/>
</a>
</g>
<text text-anchor="middle" x="285" y="-557" font-family="Helvetica,sans-Serif" font-size="10.00" fill="grey"> #commonParameters</text>
</g>
<!-- Node5 -->
<g id="Node000005" class="node">
<title>Node5</title>
<g id="a_Node000005"><a xlink:href="structdnf__composer_1_1element_1_1ElementIdentifiers.html" target="_top" xlink:title=" ">
<polygon fill="white" stroke="transparent" points="423,-1005 287,-1005 287,-855 423,-855 423,-1005"/>
<text text-anchor="start" x="297" y="-993" font-family="Helvetica,sans-Serif" font-size="10.00">dnf_composer::element</text>
<text text-anchor="start" x="307" y="-982" font-family="Helvetica,sans-Serif" font-size="10.00">::ElementIdentifiers</text>
<text text-anchor="start" x="291" y="-967" font-family="Helvetica,sans-Serif" font-size="10.00">+</text>
<text text-anchor="start" x="304" y="-967" font-family="Helvetica,sans-Serif" font-size="10.00">label</text>
<text text-anchor="start" x="291" y="-952" font-family="Helvetica,sans-Serif" font-size="10.00">+</text>
<text text-anchor="start" x="304" y="-952" font-family="Helvetica,sans-Serif" font-size="10.00">uniqueIdentifier</text>
<text text-anchor="start" x="291" y="-937" font-family="Helvetica,sans-Serif" font-size="10.00">+</text>
<text text-anchor="start" x="304" y="-937" font-family="Helvetica,sans-Serif" font-size="10.00">uniqueIdentifierCounter</text>
<text text-anchor="start" x="291" y="-922" font-family="Helvetica,sans-Serif" font-size="10.00">+</text>
<text text-anchor="start" x="304" y="-922" font-family="Helvetica,sans-Serif" font-size="10.00">ElementIdentifiers()</text>
<text text-anchor="start" x="291" y="-907" font-family="Helvetica,sans-Serif" font-size="10.00">+</text>
<text text-anchor="start" x="304" y="-907" font-family="Helvetica,sans-Serif" font-size="10.00">ElementIdentifiers()</text>
<text text-anchor="start" x="291" y="-892" font-family="Helvetica,sans-Serif" font-size="10.00">+</text>
<text text-anchor="start" x="304" y="-892" font-family="Helvetica,sans-Serif" font-size="10.00">operator==()</text>
<text text-anchor="start" x="291" y="-877" font-family="Helvetica,sans-Serif" font-size="10.00">+</text>
<text text-anchor="start" x="304" y="-877" font-family="Helvetica,sans-Serif" font-size="10.00">print()</text>
<text text-anchor="start" x="291" y="-862" font-family="Helvetica,sans-Serif" font-size="10.00">+</text>
<text text-anchor="start" x="304" y="-862" font-family="Helvetica,sans-Serif" font-size="10.00">toString()</text>
<polygon fill="#666666" stroke="#666666" points="287,-977 287,-977 423,-977 423,-977 287,-977"/>
<polygon fill="#666666" stroke="#666666" points="287,-932 287,-932 302,-932 302,-932 287,-932"/>
<polygon fill="#666666" stroke="#666666" points="302,-932 302,-932 423,-932 423,-932 302,-932"/>
<polygon fill="none" stroke="#666666" points="287,-855 287,-1005 423,-1005 423,-855 287,-855"/>
</a>
</g>
</g>
<!-- Node5&#45;&gt;Node4 -->
<g id="edge4_Node000004_Node000005" class="edge">
<title>Node5&#45;&gt;Node4</title>
<g id="a_edge4_Node000004_Node000005"><a xlink:title=" ">
<path fill="none" stroke="#63b8ff" d="M350.76,-854.69C347.11,-830.2 340.57,-803.5 329,-781 326.59,-776.31 322.3,-770.41 316.8,-763.82"/>
<polygon fill="none" stroke="#63b8ff" points="316.5,-763.48 309.54,-761.59 308.6,-754.44 315.56,-756.32 316.5,-763.48"/>
</a>
</g>
<text text-anchor="middle" x="364.5" y="-784" font-family="Helvetica,sans-Serif" font-size="10.00" fill="grey"> +identifiers</text>
</g>
<!-- Node6 -->
<g id="Node000006" class="node">
<title>Node6</title>
<g id="a_Node000006"><a xlink:title=" ">
<polygon fill="white" stroke="transparent" points="384.5,-1146 325.5,-1146 325.5,-1097 384.5,-1097 384.5,-1146"/>
<text text-anchor="start" x="331" y="-1133.5" font-family="Helvetica,sans-Serif" font-size="10.00">std::string</text>
<text text-anchor="start" x="353.5" y="-1118.5" font-family="Helvetica,sans-Serif" font-size="10.00"> </text>
<text text-anchor="start" x="353.5" y="-1103.5" font-family="Helvetica,sans-Serif" font-size="10.00"> </text>
<polygon fill="#666666" stroke="#666666" points="326,-1128.5 326,-1128.5 385,-1128.5 385,-1128.5 326,-1128.5"/>
<polygon fill="#666666" stroke="#666666" points="326,-1113.5 326,-1113.5 385,-1113.5 385,-1113.5 326,-1113.5"/>
<polygon fill="none" stroke="#666666" points="325.5,-1097 325.5,-1146 384.5,-1146 384.5,-1097 325.5,-1097"/>
</a>
</g>
</g>
<!-- Node6&#45;&gt;Node5 -->
<g id="edge5_Node000005_Node000006" class="edge">
<title>Node6&#45;&gt;Node5</title>
<g id="a_edge5_Node000005_Node000006"><a xlink:title=" ">
<path fill="none" stroke="#63b8ff" d="M355,-1096.88C355,-1076.83 355,-1046.76 355,-1017.7"/>
<polygon fill="none" stroke="#63b8ff" points="355,-1017.34 351,-1011.34 355,-1005.34 359,-1011.34 355,-1017.34"/>
</a>
</g>
<text text-anchor="middle" x="392" y="-1071" font-family="Helvetica,sans-Serif" font-size="10.00" fill="grey"> +uniqueName</text>
</g>
<!-- Node9 -->
<g id="Node000009" class="node">
<title>Node9</title>
<g id="a_Node000009"><a xlink:title=" ">
<polygon fill="white" stroke="transparent" points="113,-965.5 5,-965.5 5,-894.5 113,-894.5 113,-965.5"/>
<text text-anchor="start" x="10" y="-953" font-family="Helvetica,sans-Serif" font-size="10.00">std::unordered_map</text>
<text text-anchor="start" x="10" y="-942" font-family="Helvetica,sans-Serif" font-size="10.00">&lt; std::string, std::</text>
<text text-anchor="start" x="10" y="-931" font-family="Helvetica,sans-Serif" font-size="10.00">vector&lt; double &gt; &gt;</text>
<text text-anchor="start" x="57" y="-916" font-family="Helvetica,sans-Serif" font-size="10.00"> </text>
<text text-anchor="start" x="57" y="-901" font-family="Helvetica,sans-Serif" font-size="10.00"> </text>
<polygon fill="#666666" stroke="#666666" points="5,-926 5,-926 113,-926 113,-926 5,-926"/>
<polygon fill="#666666" stroke="#666666" points="5,-911 5,-911 113,-911 113,-911 5,-911"/>
<polygon fill="none" stroke="#666666" points="5,-894.5 5,-965.5 113,-965.5 113,-894.5 5,-894.5"/>
</a>
</g>
</g>
<!-- Node6&#45;&gt;Node9 -->
<g id="edge9_Node000009_Node000006" class="edge">
<title>Node6&#45;&gt;Node9</title>
<g id="a_edge9_Node000009_Node000006"><a xlink:title=" ">
<path fill="none" stroke="#63b8ff" d="M325.22,-1117.73C279.34,-1112.12 190.55,-1095.76 132,-1050 107.74,-1031.04 89.58,-1001.59 77.44,-976.73"/>
<polygon fill="none" stroke="#63b8ff" points="77.36,-976.56 71.2,-972.82 72.29,-965.69 78.45,-969.43 77.36,-976.56"/>
</a>
</g>
<text text-anchor="middle" x="193" y="-1071" font-family="Helvetica,sans-Serif" font-size="10.00" fill="grey"> +keys</text>
</g>
<!-- Node11 -->
<g id="Node000011" class="node">
<title>Node11</title>
<g id="a_Node000011"><a xlink:title=" ">
<polygon fill="white" stroke="transparent" points="317.5,-82 160.5,-82 160.5,0 317.5,0 317.5,-82"/>
<text text-anchor="start" x="166" y="-70" font-family="Helvetica,sans-Serif" font-size="10.00">std::unordered_map</text>
<text text-anchor="start" x="166" y="-59" font-family="Helvetica,sans-Serif" font-size="10.00">&lt; std::shared_ptr&lt; dnf</text>
<text text-anchor="start" x="166" y="-48" font-family="Helvetica,sans-Serif" font-size="10.00">_composer::element::Element</text>
<text text-anchor="start" x="200.5" y="-37" font-family="Helvetica,sans-Serif" font-size="10.00"> &gt;, std::string &gt;</text>
<text text-anchor="start" x="237.5" y="-22" font-family="Helvetica,sans-Serif" font-size="10.00"> </text>
<text text-anchor="start" x="237.5" y="-7" font-family="Helvetica,sans-Serif" font-size="10.00"> </text>
<polygon fill="#666666" stroke="#666666" points="161,-32 161,-32 318,-32 318,-32 161,-32"/>
<polygon fill="#666666" stroke="#666666" points="161,-17 161,-17 318,-17 318,-17 161,-17"/>
<polygon fill="none" stroke="#666666" points="160.5,0 160.5,-82 317.5,-82 317.5,0 160.5,0"/>
</a>
</g>
</g>
<!-- Node6&#45;&gt;Node11 -->
<g id="edge14_Node000011_Node000006" class="edge">
<title>Node6&#45;&gt;Node11</title>
<g id="a_edge14_Node000011_Node000006"><a xlink:title=" ">
<path fill="none" stroke="#63b8ff" d="M384.57,-1111.06C400.93,-1104.46 420.43,-1094.08 433,-1079 477.18,-1025.98 480,-1000.01 480,-931 480,-931 480,-931 480,-203 480,-127.73 397.7,-85.45 329.29,-63.31"/>
<polygon fill="none" stroke="#63b8ff" points="329.04,-63.23 322.12,-65.27 317.58,-59.67 324.5,-57.63 329.04,-63.23"/>
</a>
</g>
<text text-anchor="middle" x="509" y="-557" font-family="Helvetica,sans-Serif" font-size="10.00" fill="grey"> +elements</text>
</g>
<!-- Node7 -->
<g id="Node000007" class="node">
<title>Node7</title>
<g id="a_Node000007"><a xlink:title=" ">
<polygon fill="white" stroke="transparent" points="404,-1243 306,-1243 306,-1183 404,-1183 404,-1243"/>
<text text-anchor="start" x="311" y="-1231" font-family="Helvetica,sans-Serif" font-size="10.00">std::basic_string&lt;</text>
<text text-anchor="start" x="336.5" y="-1220" font-family="Helvetica,sans-Serif" font-size="10.00"> Char &gt;</text>
<text text-anchor="start" x="353" y="-1205" font-family="Helvetica,sans-Serif" font-size="10.00"> </text>
<text text-anchor="start" x="353" y="-1190" font-family="Helvetica,sans-Serif" font-size="10.00"> </text>
<polygon fill="#666666" stroke="#666666" points="306,-1215 306,-1215 404,-1215 404,-1215 306,-1215"/>
<polygon fill="#666666" stroke="#666666" points="306,-1200 306,-1200 404,-1200 404,-1200 306,-1200"/>
<polygon fill="none" stroke="#666666" points="306,-1183 306,-1243 404,-1243 404,-1183 306,-1183"/>
</a>
</g>
</g>
<!-- Node7&#45;&gt;Node6 -->
<g id="edge6_Node000006_Node000007" class="edge">
<title>Node7&#45;&gt;Node6</title>
<g id="a_edge6_Node000006_Node000007"><a xlink:title=" ">
<path fill="none" stroke="#63b8ff" d="M355,-1172.41C355,-1163.47 355,-1154.25 355,-1146.21"/>
<polygon fill="none" stroke="#63b8ff" points="351.5,-1172.69 355,-1182.69 358.5,-1172.69 351.5,-1172.69"/>
</a>
</g>
</g>
<!-- Node8 -->
<g id="Node000008" class="node">
<title>Node8</title>
<g id="a_Node000008"><a xlink:href="structdnf__composer_1_1element_1_1ElementDimensions.html" target="_top" xlink:title=" ">
<polygon fill="white" stroke="transparent" points="268.5,-1050 141.5,-1050 141.5,-810 268.5,-810 268.5,-1050"/>
<text text-anchor="start" x="147.5" y="-1038" font-family="Helvetica,sans-Serif" font-size="10.00">dnf_composer::element</text>
<text text-anchor="start" x="153" y="-1027" font-family="Helvetica,sans-Serif" font-size="10.00">::ElementDimensions</text>
<text text-anchor="start" x="146" y="-1012" font-family="Helvetica,sans-Serif" font-size="10.00">+</text>
<text text-anchor="start" x="159" y="-1012" font-family="Helvetica,sans-Serif" font-size="10.00">d_x</text>
<text text-anchor="start" x="146" y="-997" font-family="Helvetica,sans-Serif" font-size="10.00">+</text>
<text text-anchor="start" x="159" y="-997" font-family="Helvetica,sans-Serif" font-size="10.00">d_y</text>
<text text-anchor="start" x="146" y="-982" font-family="Helvetica,sans-Serif" font-size="10.00">+</text>
<text text-anchor="start" x="159" y="-982" font-family="Helvetica,sans-Serif" font-size="10.00">dimensionality</text>
<text text-anchor="start" x="146" y="-967" font-family="Helvetica,sans-Serif" font-size="10.00">+</text>
<text text-anchor="start" x="159" y="-967" font-family="Helvetica,sans-Serif" font-size="10.00">size</text>
<text text-anchor="start" x="146" y="-952" font-family="Helvetica,sans-Serif" font-size="10.00">+</text>
<text text-anchor="start" x="159" y="-952" font-family="Helvetica,sans-Serif" font-size="10.00">size_x</text>
<text text-anchor="start" x="146" y="-937" font-family="Helvetica,sans-Serif" font-size="10.00">+</text>
<text text-anchor="start" x="159" y="-937" font-family="Helvetica,sans-Serif" font-size="10.00">size_y</text>
<text text-anchor="start" x="146" y="-922" font-family="Helvetica,sans-Serif" font-size="10.00">+</text>
<text text-anchor="start" x="159" y="-922" font-family="Helvetica,sans-Serif" font-size="10.00">x_max</text>
<text text-anchor="start" x="146" y="-907" font-family="Helvetica,sans-Serif" font-size="10.00">+</text>
<text text-anchor="start" x="159" y="-907" font-family="Helvetica,sans-Serif" font-size="10.00">y_max</text>
<text text-anchor="start" x="146" y="-892" font-family="Helvetica,sans-Serif" font-size="10.00">+</text>
<text text-anchor="start" x="159" y="-892" font-family="Helvetica,sans-Serif" font-size="10.00">ElementDimensions()</text>
<text text-anchor="start" x="146" y="-877" font-family="Helvetica,sans-Serif" font-size="10.00">+</text>
<text text-anchor="start" x="159" y="-877" font-family="Helvetica,sans-Serif" font-size="10.00">ElementDimensions()</text>
<text text-anchor="start" x="146" y="-862" font-family="Helvetica,sans-Serif" font-size="10.00">+</text>
<text text-anchor="start" x="159" y="-862" font-family="Helvetica,sans-Serif" font-size="10.00">ElementDimensions()</text>
<text text-anchor="start" x="146" y="-847" font-family="Helvetica,sans-Serif" font-size="10.00">+</text>
<text text-anchor="start" x="159" y="-847" font-family="Helvetica,sans-Serif" font-size="10.00">operator==()</text>
<text text-anchor="start" x="146" y="-832" font-family="Helvetica,sans-Serif" font-size="10.00">+</text>
<text text-anchor="start" x="159" y="-832" font-family="Helvetica,sans-Serif" font-size="10.00">print()</text>
<text text-anchor="start" x="146" y="-817" font-family="Helvetica,sans-Serif" font-size="10.00">+</text>
<text text-anchor="start" x="159" y="-817" font-family="Helvetica,sans-Serif" font-size="10.00">toString()</text>
<polygon fill="#666666" stroke="#666666" points="142,-1022 142,-1022 269,-1022 269,-1022 142,-1022"/>
<polygon fill="#666666" stroke="#666666" points="142,-902 142,-902 157,-902 157,-902 142,-902"/>
<polygon fill="#666666" stroke="#666666" points="157,-902 157,-902 269,-902 269,-902 157,-902"/>
<polygon fill="none" stroke="#666666" points="141.5,-810 141.5,-1050 268.5,-1050 268.5,-810 141.5,-810"/>
</a>
</g>
</g>
<!-- Node8&#45;&gt;Node4 -->
<g id="edge7_Node000004_Node000008" class="edge">
<title>Node8&#45;&gt;Node4</title>
<g id="a_edge7_Node000004_Node000008"><a xlink:title=" ">
<path fill="none" stroke="#63b8ff" d="M209,-809.8C209.58,-800.05 210.24,-790.36 211,-781 211.15,-779.1 211.32,-777.19 211.48,-775.26"/>
<polygon fill="none" stroke="#63b8ff" points="211.49,-775.22 208.07,-768.87 212.61,-763.27 216.03,-769.62 211.49,-775.22"/>
</a>
</g>
<text text-anchor="middle" x="270" y="-784" font-family="Helvetica,sans-Serif" font-size="10.00" fill="grey"> +dimensionParameters</text>
</g>
<!-- Node9&#45;&gt;Node2 -->
<g id="edge8_Node000002_Node000009" class="edge">
<title>Node9&#45;&gt;Node2</title>
<g id="a_edge8_Node000002_Node000009"><a xlink:title=" ">
<path fill="none" stroke="#63b8ff" d="M49.91,-894.33C34.85,-829.65 10.89,-687.66 59,-583 80.22,-536.83 123.3,-499.48 161.53,-473.48"/>
<polygon fill="none" stroke="#63b8ff" points="161.64,-473.4 164.43,-466.76 171.64,-466.78 168.85,-473.43 161.64,-473.4"/>
</a>
</g>
<text text-anchor="middle" x="95" y="-670.5" font-family="Helvetica,sans-Serif" font-size="10.00" fill="grey"> #components</text>
</g>
<!-- Node10 -->
<g id="Node000010" class="node">
<title>Node10</title>
<g id="a_Node000010"><a xlink:title=" ">
<polygon fill="white" stroke="transparent" points="118,-1146 0,-1146 0,-1097 118,-1097 118,-1146"/>
<text text-anchor="start" x="5" y="-1133.5" font-family="Helvetica,sans-Serif" font-size="10.00">std::vector&lt; double &gt;</text>
<text text-anchor="start" x="16.5" y="-1118.5" font-family="Helvetica,sans-Serif" font-size="10.00">+</text>
<text text-anchor="start" x="42" y="-1118.5" font-family="Helvetica,sans-Serif" font-size="10.00">elements</text>
<text text-anchor="start" x="57" y="-1103.5" font-family="Helvetica,sans-Serif" font-size="10.00"> </text>
<polygon fill="#666666" stroke="#666666" points="0,-1128.5 0,-1128.5 118,-1128.5 118,-1128.5 0,-1128.5"/>
<polygon fill="#666666" stroke="#666666" points="0,-1113.5 0,-1113.5 40,-1113.5 40,-1113.5 0,-1113.5"/>
<polygon fill="#666666" stroke="#666666" points="40,-1113.5 40,-1113.5 118,-1113.5 118,-1113.5 40,-1113.5"/>
<polygon fill="none" stroke="#666666" points="0,-1097 0,-1146 118,-1146 118,-1097 0,-1097"/>
</a>
</g>
</g>
<!-- Node10&#45;&gt;Node9 -->
<g id="edge10_Node000009_Node000010" class="edge">
<title>Node10&#45;&gt;Node9</title>
<g id="a_edge10_Node000009_Node000010"><a xlink:title=" ">
<path fill="none" stroke="#63b8ff" d="M59,-1096.88C59,-1067.2 59,-1015.57 59,-977.77"/>
<polygon fill="none" stroke="#63b8ff" points="59,-977.53 55,-971.53 59,-965.53 63,-971.53 59,-977.53"/>
</a>
</g>
<text text-anchor="middle" x="88" y="-1071" font-family="Helvetica,sans-Serif" font-size="10.00" fill="grey"> +elements</text>
</g>
<!-- Node11&#45;&gt;Node2 -->
<g id="edge11_Node000002_Node000011" class="edge">
<title>Node11&#45;&gt;Node2</title>
<g id="a_edge11_Node000002_Node000011"><a xlink:title=" ">
<path fill="none" stroke="#63b8ff" d="M238.59,-82.24C238.03,-136.39 237.01,-234.96 236.2,-313.37"/>
<polygon fill="none" stroke="#63b8ff" points="236.2,-313.77 240.14,-319.81 236.07,-325.77 232.14,-319.73 236.2,-313.77"/>
</a>
</g>
<text text-anchor="middle" x="261" y="-207" font-family="Helvetica,sans-Serif" font-size="10.00" fill="grey"> #inputs</text>
<text text-anchor="middle" x="261" y="-196" font-family="Helvetica,sans-Serif" font-size="10.00" fill="grey">#outputs</text>
</g>
<!-- Node12&#45;&gt;Node11 -->
<g id="edge12_Node000011_Node000012" class="edge">
<title>Node12&#45;&gt;Node11</title>
<g id="a_edge12_Node000011_Node000012"><a xlink:title=" ">
<path fill="none" stroke="#63b8ff" d="M138.56,-173.69C152.7,-152.83 172.5,-124.3 191,-100 193.08,-97.27 195.24,-94.49 197.43,-91.7"/>
<polygon fill="none" stroke="#63b8ff" points="197.51,-91.6 198.13,-84.41 205,-82.22 204.38,-89.41 197.51,-91.6"/>
</a>
</g>
<text text-anchor="middle" x="208" y="-103" font-family="Helvetica,sans-Serif" font-size="10.00" fill="grey"> +keys</text>
</g>
</g>
</svg>
