<?xml version="1.0" encoding="UTF-8" standalone="no"?>
<!DOCTYPE svg PUBLIC "-//W3C//DTD SVG 1.1//EN"
 "http://www.w3.org/Graphics/SVG/1.1/DTD/svg11.dtd">
<!-- Generated by graphviz version 2.43.0 (0)
 -->
<!-- Title: dnf_composer::element::FieldCoupling::FieldCoupling Pages: 1 -->
<svg width="545pt" height="38pt"
 viewBox="0.00 0.00 545.00 38.00" xmlns="http://www.w3.org/2000/svg" xmlns:xlink="http://www.w3.org/1999/xlink">
<g id="graph0" class="graph" transform="scale(1 1) rotate(0) translate(4 34)">
<title>dnf_composer::element::FieldCoupling::FieldCoupling</title>
<!-- Node1 -->
<g id="Node000001" class="node">
<title>Node1</title>
<g id="a_Node000001"><a xlink:title="Construct a FieldCoupling.">
<polygon fill="#999999" stroke="#666666" points="161,-30 0,-30 0,0 161,0 161,-30"/>
<text text-anchor="start" x="8" y="-18" font-family="Helvetica,sans-Serif" font-size="10.00">dnf_composer::element</text>
<text text-anchor="middle" x="80.5" y="-7" font-family="Helvetica,sans-Serif" font-size="10.00">::FieldCoupling::FieldCoupling</text>
</a>
</g>
</g>
<!-- Node2 -->
<g id="Node000002" class="node">
<title>Node2</title>
<g id="a_Node000002"><a xlink:href="classdnf__composer_1_1element_1_1FieldCoupling.html#aed8043b5951aea5276d37e06b26f04a7" target="_top" xlink:title="Load the weight matrix from a binary file in weightsDirectory.">
<polygon fill="white" stroke="#666666" points="352,-30 197,-30 197,0 352,0 352,-30"/>
<text text-anchor="start" x="205" y="-18" font-family="Helvetica,sans-Serif" font-size="10.00">dnf_composer::element</text>
<text text-anchor="middle" x="274.5" y="-7" font-family="Helvetica,sans-Serif" font-size="10.00">::FieldCoupling::readWeights</text>
</a>
</g>
</g>
<!-- Node1&#45;&gt;Node2 -->
<g id="edge1_Node000001_Node000002" class="edge">
<title>Node1&#45;&gt;Node2</title>
<g id="a_edge1_Node000001_Node000002"><a xlink:title=" ">
<path fill="none" stroke="#63b8ff" d="M161.26,-15C169.61,-15 178.13,-15 186.55,-15"/>
<polygon fill="#63b8ff" stroke="#63b8ff" points="186.77,-18.5 196.77,-15 186.77,-11.5 186.77,-18.5"/>
</a>
</g>
</g>
<!-- Node3 -->
<g id="Node000003" class="node">
<title>Node3</title>
<g id="a_Node000003"><a xlink:href="classdnf__composer_1_1element_1_1Element.html#a03cc479b5f360d8e7f679d4ecdad8944" target="_top" xlink:title=" ">
<polygon fill="white" stroke="#666666" points="537,-30 388,-30 388,0 537,0 537,-30"/>
<text text-anchor="start" x="396" y="-18" font-family="Helvetica,sans-Serif" font-size="10.00">dnf_composer::element</text>
<text text-anchor="middle" x="462.5" y="-7" font-family="Helvetica,sans-Serif" font-size="10.00">::Element::getUniqueName</text>
</a>
</g>
</g>
<!-- Node2&#45;&gt;Node3 -->
<g id="edge2_Node000002_Node000003" class="edge">
<title>Node2&#45;&gt;Node3</title>
<g id="a_edge2_Node000002_Node000003"><a xlink:title=" ">
<path fill="none" stroke="#63b8ff" d="M352.23,-15C360.62,-15 369.2,-15 377.67,-15"/>
<polygon fill="#63b8ff" stroke="#63b8ff" points="377.94,-18.5 387.94,-15 377.94,-11.5 377.94,-18.5"/>
</a>
</g>
</g>
</g>
</svg>
