<?xml version="1.0" encoding="UTF-8" standalone="no"?>
<!DOCTYPE svg PUBLIC "-//W3C//DTD SVG 1.1//EN"
 "http://www.w3.org/Graphics/SVG/1.1/DTD/svg11.dtd">
<!-- Generated by graphviz version 2.43.0 (0)
 -->
<!-- Title: dnf_composer::Simulation::run Pages: 1 -->
<svg width="534pt" height="134pt"
 viewBox="0.00 0.00 534.00 134.00" xmlns="http://www.w3.org/2000/svg" xmlns:xlink="http://www.w3.org/1999/xlink">
<g id="graph0" class="graph" transform="scale(1 1) rotate(0) translate(4 130)">
<title>dnf_composer::Simulation::run</title>
<!-- Node1 -->
<g id="Node000001" class="node">
<title>Node1</title>
<g id="a_Node000001"><a xlink:title="Run the simulation for runTime milliseconds (blocking).">
<polygon fill="#999999" stroke="#666666" points="166,-72.5 0,-72.5 0,-53.5 166,-53.5 166,-72.5"/>
<text text-anchor="middle" x="83" y="-60.5" font-family="Helvetica,sans-Serif" font-size="10.00">dnf_composer::Simulation::run</text>
</a>
</g>
</g>
<!-- Node2 -->
<g id="Node000002" class="node">
<title>Node2</title>
<g id="a_Node000002"><a xlink:href="classdnf__composer_1_1Simulation.html#a62cc626df0de91c4eef6db88e34a6080" target="_top" xlink:title="Release resources of all elements and reset timing state.">
<polygon fill="white" stroke="#666666" points="346,-126 202,-126 202,-96 346,-96 346,-126"/>
<text text-anchor="start" x="210" y="-114" font-family="Helvetica,sans-Serif" font-size="10.00">dnf_composer::Simulation</text>
<text text-anchor="middle" x="274" y="-103" font-family="Helvetica,sans-Serif" font-size="10.00">::close</text>
</a>
</g>
</g>
<!-- Node1&#45;&gt;Node2 -->
<g id="edge1_Node000001_Node000002" class="edge">
<title>Node1&#45;&gt;Node2</title>
<g id="a_edge1_Node000001_Node000002"><a xlink:title=" ">
<path fill="none" stroke="#63b8ff" d="M121.79,-72.6C145.2,-78.54 175.98,-86.36 203.65,-93.39"/>
<polygon fill="#63b8ff" stroke="#63b8ff" points="203.14,-96.87 213.69,-95.94 204.86,-90.08 203.14,-96.87"/>
</a>
</g>
</g>
<!-- Node4 -->
<g id="Node000004" class="node">
<title>Node4</title>
<g id="a_Node000004"><a xlink:href="classdnf__composer_1_1Simulation.html#aa3419352b0706f0ba4c85781b8aa32ae" target="_top" xlink:title="Initialize all registered elements. Must be called before step().">
<polygon fill="white" stroke="#666666" points="346,-78 202,-78 202,-48 346,-48 346,-78"/>
<text text-anchor="start" x="210" y="-66" font-family="Helvetica,sans-Serif" font-size="10.00">dnf_composer::Simulation</text>
<text text-anchor="middle" x="274" y="-55" font-family="Helvetica,sans-Serif" font-size="10.00">::init</text>
</a>
</g>
</g>
<!-- Node1&#45;&gt;Node4 -->
<g id="edge3_Node000001_Node000004" class="edge">
<title>Node1&#45;&gt;Node4</title>
<g id="a_edge3_Node000001_Node000004"><a xlink:title=" ">
<path fill="none" stroke="#63b8ff" d="M166.07,-63C174.57,-63 183.21,-63 191.7,-63"/>
<polygon fill="#63b8ff" stroke="#63b8ff" points="191.96,-66.5 201.96,-63 191.96,-59.5 191.96,-66.5"/>
</a>
</g>
</g>
<!-- Node6 -->
<g id="Node000006" class="node">
<title>Node6</title>
<g id="a_Node000006"><a xlink:href="classdnf__composer_1_1Simulation.html#aeed960786dc5ee998232e105af74ae0c" target="_top" xlink:title="Advance all elements by one deltaT.">
<polygon fill="white" stroke="#666666" points="346,-30 202,-30 202,0 346,0 346,-30"/>
<text text-anchor="start" x="210" y="-18" font-family="Helvetica,sans-Serif" font-size="10.00">dnf_composer::Simulation</text>
<text text-anchor="middle" x="274" y="-7" font-family="Helvetica,sans-Serif" font-size="10.00">::step</text>
</a>
</g>
</g>
<!-- Node1&#45;&gt;Node6 -->
<g id="edge5_Node000001_Node000006" class="edge">
<title>Node1&#45;&gt;Node6</title>
<g id="a_edge5_Node000001_Node000006"><a xlink:title=" ">
<path fill="none" stroke="#63b8ff" d="M121.79,-53.4C145.2,-47.46 175.98,-39.64 203.65,-32.61"/>
<polygon fill="#63b8ff" stroke="#63b8ff" points="204.86,-35.92 213.69,-30.06 203.14,-29.13 204.86,-35.92"/>
</a>
</g>
</g>
<!-- Node3 -->
<g id="Node000003" class="node">
<title>Node3</title>
<g id="a_Node000003"><a xlink:href="classdnf__composer_1_1Simulation.html#a19103585fab0d6a554634db1cd33b1bb" target="_top" xlink:title="Pause the simulation (subsequent step() calls are no&#45;ops).">
<polygon fill="white" stroke="#666666" points="526,-126 382,-126 382,-96 526,-96 526,-126"/>
<text text-anchor="start" x="390" y="-114" font-family="Helvetica,sans-Serif" font-size="10.00">dnf_composer::Simulation</text>
<text text-anchor="middle" x="454" y="-103" font-family="Helvetica,sans-Serif" font-size="10.00">::pause</text>
</a>
</g>
</g>
<!-- Node2&#45;&gt;Node3 -->
<g id="edge2_Node000002_Node000003" class="edge">
<title>Node2&#45;&gt;Node3</title>
<g id="a_edge2_Node000002_Node000003"><a xlink:title=" ">
<path fill="none" stroke="#63b8ff" d="M346.12,-111C354.61,-111 363.33,-111 371.94,-111"/>
<polygon fill="#63b8ff" stroke="#63b8ff" points="372,-114.5 382,-111 372,-107.5 372,-114.5"/>
</a>
</g>
</g>
<!-- Node5 -->
<g id="Node000005" class="node">
<title>Node5</title>
<g id="a_Node000005"><a xlink:href="namespacednf__composer_1_1tools_1_1logger.html#af64ef64b3026606a73972fdcae2ca87a" target="_top" xlink:title=" ">
<polygon fill="white" stroke="#666666" points="512,-78 396,-78 396,-48 512,-48 512,-78"/>
<text text-anchor="start" x="404" y="-66" font-family="Helvetica,sans-Serif" font-size="10.00">dnf_composer::tools</text>
<text text-anchor="middle" x="454" y="-55" font-family="Helvetica,sans-Serif" font-size="10.00">::logger::log</text>
</a>
</g>
</g>
<!-- Node4&#45;&gt;Node5 -->
<g id="edge4_Node000004_Node000005" class="edge">
<title>Node4&#45;&gt;Node5</title>
<g id="a_edge4_Node000004_Node000005"><a xlink:title=" ">
<path fill="none" stroke="#63b8ff" d="M346.12,-63C359.18,-63 372.79,-63 385.73,-63"/>
<polygon fill="#63b8ff" stroke="#63b8ff" points="385.96,-66.5 395.96,-63 385.96,-59.5 385.96,-66.5"/>
</a>
</g>
</g>
</g>
</svg>
