<?xml version="1.0" encoding="UTF-8" standalone="no"?>
<!DOCTYPE svg PUBLIC "-//W3C//DTD SVG 1.1//EN"
 "http://www.w3.org/Graphics/SVG/1.1/DTD/svg11.dtd">
<!-- Generated by graphviz version 2.43.0 (0)
 -->
<!-- Title: dnf_composer::element::MexicanHatKernel::toString Pages: 1 -->
<svg width="535pt" height="137pt"
 viewBox="0.00 0.00 535.00 137.00" xmlns="http://www.w3.org/2000/svg" xmlns:xlink="http://www.w3.org/1999/xlink">
<g id="graph0" class="graph" transform="scale(1 1) rotate(0) translate(4 133)">
<title>dnf_composer::element::MexicanHatKernel::toString</title>
<!-- Node1 -->
<g id="Node000001" class="node">
<title>Node1</title>
<g id="a_Node000001"><a xlink:title=" ">
<polygon fill="#999999" stroke="#666666" points="156,-64.5 0,-64.5 0,-34.5 156,-34.5 156,-64.5"/>
<text text-anchor="start" x="8" y="-52.5" font-family="Helvetica,sans-Serif" font-size="10.00">dnf_composer::element</text>
<text text-anchor="middle" x="78" y="-41.5" font-family="Helvetica,sans-Serif" font-size="10.00">::MexicanHatKernel::toString</text>
</a>
</g>
</g>
<!-- Node2 -->
<g id="Node000002" class="node">
<title>Node2</title>
<g id="a_Node000002"><a xlink:href="structdnf__composer_1_1element_1_1ElementCommonParameters.html#a83c667c71a22c80a0e415da7fab9795b" target="_top" xlink:title=" ">
<polygon fill="white" stroke="#666666" points="357,-100 194,-100 194,-59 357,-59 357,-100"/>
<text text-anchor="start" x="202" y="-88" font-family="Helvetica,sans-Serif" font-size="10.00">dnf_composer::element</text>
<text text-anchor="start" x="202" y="-77" font-family="Helvetica,sans-Serif" font-size="10.00">::ElementCommonParameters</text>
<text text-anchor="middle" x="275.5" y="-66" font-family="Helvetica,sans-Serif" font-size="10.00">::toString</text>
</a>
</g>
</g>
<!-- Node1&#45;&gt;Node2 -->
<g id="edge1_Node000001_Node000002" class="edge">
<title>Node1&#45;&gt;Node2</title>
<g id="a_edge1_Node000001_Node000002"><a xlink:title=" ">
<path fill="none" stroke="#63b8ff" d="M156.27,-61.36C165.36,-62.75 174.7,-64.19 183.95,-65.61"/>
<polygon fill="#63b8ff" stroke="#63b8ff" points="183.53,-69.08 193.94,-67.14 184.59,-62.16 183.53,-69.08"/>
</a>
</g>
</g>
<!-- Node5 -->
<g id="Node000005" class="node">
<title>Node5</title>
<g id="a_Node000005"><a xlink:href="structdnf__composer_1_1element_1_1MexicanHatKernelParameters.html#a8763ad658883276689daa31303b7e833" target="_top" xlink:title=" ">
<polygon fill="white" stroke="#666666" points="359,-41 192,-41 192,0 359,0 359,-41"/>
<text text-anchor="start" x="200" y="-29" font-family="Helvetica,sans-Serif" font-size="10.00">dnf_composer::element</text>
<text text-anchor="start" x="200" y="-18" font-family="Helvetica,sans-Serif" font-size="10.00">::MexicanHatKernelParameters</text>
<text text-anchor="middle" x="275.5" y="-7" font-family="Helvetica,sans-Serif" font-size="10.00">::toString</text>
</a>
</g>
</g>
<!-- Node1&#45;&gt;Node5 -->
<g id="edge4_Node000001_Node000005" class="edge">
<title>Node1&#45;&gt;Node5</title>
<g id="a_edge4_Node000001_Node000005"><a xlink:title=" ">
<path fill="none" stroke="#63b8ff" d="M156.27,-38.04C164.63,-36.8 173.2,-35.53 181.72,-34.26"/>
<polygon fill="#63b8ff" stroke="#63b8ff" points="182.31,-37.71 191.68,-32.78 181.28,-30.79 182.31,-37.71"/>
</a>
</g>
</g>
<!-- Node3 -->
<g id="Node000003" class="node">
<title>Node3</title>
<g id="a_Node000003"><a xlink:href="structdnf__composer_1_1element_1_1ElementDimensions.html#a1e2439e8cba19f3bf61a48cdd01c4fc7" target="_top" xlink:title=" ">
<polygon fill="white" stroke="#666666" points="527,-129 395,-129 395,-88 527,-88 527,-129"/>
<text text-anchor="start" x="403" y="-117" font-family="Helvetica,sans-Serif" font-size="10.00">dnf_composer::element</text>
<text text-anchor="start" x="403" y="-106" font-family="Helvetica,sans-Serif" font-size="10.00">::ElementDimensions::</text>
<text text-anchor="middle" x="461" y="-95" font-family="Helvetica,sans-Serif" font-size="10.00">toString</text>
</a>
</g>
</g>
<!-- Node2&#45;&gt;Node3 -->
<g id="edge2_Node000002_Node000003" class="edge">
<title>Node2&#45;&gt;Node3</title>
<g id="a_edge2_Node000002_Node000003"><a xlink:title=" ">
<path fill="none" stroke="#63b8ff" d="M357.25,-92.26C366.4,-93.71 375.7,-95.18 384.78,-96.61"/>
<polygon fill="#63b8ff" stroke="#63b8ff" points="384.49,-100.11 394.91,-98.21 385.58,-93.2 384.49,-100.11"/>
</a>
</g>
</g>
<!-- Node4 -->
<g id="Node000004" class="node">
<title>Node4</title>
<g id="a_Node000004"><a xlink:href="structdnf__composer_1_1element_1_1ElementIdentifiers.html#a0eb01a994b1696c38ea371454620d2d4" target="_top" xlink:title=" ">
<polygon fill="white" stroke="#666666" points="527,-70 395,-70 395,-29 527,-29 527,-70"/>
<text text-anchor="start" x="403" y="-58" font-family="Helvetica,sans-Serif" font-size="10.00">dnf_composer::element</text>
<text text-anchor="start" x="403" y="-47" font-family="Helvetica,sans-Serif" font-size="10.00">::ElementIdentifiers</text>
<text text-anchor="middle" x="461" y="-36" font-family="Helvetica,sans-Serif" font-size="10.00">::toString</text>
</a>
</g>
</g>
<!-- Node2&#45;&gt;Node4 -->
<g id="edge3_Node000002_Node000004" class="edge">
<title>Node2&#45;&gt;Node4</title>
<g id="a_edge3_Node000002_Node000004"><a xlink:title=" ">
<path fill="none" stroke="#63b8ff" d="M357.25,-66.3C366.4,-64.8 375.7,-63.28 384.78,-61.8"/>
<polygon fill="#63b8ff" stroke="#63b8ff" points="385.61,-65.21 394.91,-60.14 384.48,-58.3 385.61,-65.21"/>
</a>
</g>
</g>
</g>
</svg>
