<?xml version="1.0" encoding="UTF-8" standalone="no"?>
<!DOCTYPE svg PUBLIC "-//W3C//DTD SVG 1.1//EN"
 "http://www.w3.org/Graphics/SVG/1.1/DTD/svg11.dtd">
<!-- Generated by graphviz version 2.43.0 (0)
 -->
<!-- Title: dnf_composer::SimulationRecorder::stopAll Pages: 1 -->
<svg width="534pt" height="126pt"
 viewBox="0.00 0.00 534.00 126.00" xmlns="http://www.w3.org/2000/svg" xmlns:xlink="http://www.w3.org/1999/xlink">
<g id="graph0" class="graph" transform="scale(1 1) rotate(0) translate(4 122)">
<title>dnf_composer::SimulationRecorder::stopAll</title>
<!-- Node1 -->
<g id="Node000001" class="node">
<title>Node1</title>
<g id="a_Node000001"><a xlink:title="Stop all active recordings and close all open files.">
<polygon fill="#999999" stroke="#666666" points="526,-94 382,-94 382,-64 526,-64 526,-94"/>
<text text-anchor="start" x="390" y="-82" font-family="Helvetica,sans-Serif" font-size="10.00">dnf_composer::Simulation</text>
<text text-anchor="middle" x="454" y="-71" font-family="Helvetica,sans-Serif" font-size="10.00">Recorder::stopAll</text>
</a>
</g>
</g>
<!-- Node2 -->
<g id="Node000002" class="node">
<title>Node2</title>
<g id="a_Node000002"><a xlink:href="classdnf__composer_1_1Simulation.html#a77e7b52a61fe632c8a1dd4c607a433c7" target="_top" xlink:title="Remove all elements and reset the simulation to its initial state.">
<polygon fill="white" stroke="#666666" points="346,-118 202,-118 202,-88 346,-88 346,-118"/>
<text text-anchor="start" x="210" y="-106" font-family="Helvetica,sans-Serif" font-size="10.00">dnf_composer::Simulation</text>
<text text-anchor="middle" x="274" y="-95" font-family="Helvetica,sans-Serif" font-size="10.00">::clean</text>
</a>
</g>
</g>
<!-- Node1&#45;&gt;Node2 -->
<g id="edge1_Node000001_Node000002" class="edge">
<title>Node1&#45;&gt;Node2</title>
<g id="a_edge1_Node000001_Node000002"><a xlink:title=" ">
<path fill="none" stroke="#63b8ff" d="M371.83,-89.94C363.21,-91.11 354.49,-92.28 346,-93.43"/>
<polygon fill="#63b8ff" stroke="#63b8ff" points="372.44,-93.39 381.88,-88.59 371.5,-86.46 372.44,-93.39"/>
</a>
</g>
</g>
<!-- Node4 -->
<g id="Node000004" class="node">
<title>Node4</title>
<g id="a_Node000004"><a xlink:href="classdnf__composer_1_1Simulation.html#a62cc626df0de91c4eef6db88e34a6080" target="_top" xlink:title="Release resources of all elements and reset timing state.">
<polygon fill="white" stroke="#666666" points="346,-70 202,-70 202,-40 346,-40 346,-70"/>
<text text-anchor="start" x="210" y="-58" font-family="Helvetica,sans-Serif" font-size="10.00">dnf_composer::Simulation</text>
<text text-anchor="middle" x="274" y="-47" font-family="Helvetica,sans-Serif" font-size="10.00">::close</text>
</a>
</g>
</g>
<!-- Node1&#45;&gt;Node4 -->
<g id="edge3_Node000001_Node000004" class="edge">
<title>Node1&#45;&gt;Node4</title>
<g id="a_edge3_Node000001_Node000004"><a xlink:title=" ">
<path fill="none" stroke="#63b8ff" d="M371.83,-68.06C363.21,-66.89 354.49,-65.72 346,-64.57"/>
<polygon fill="#63b8ff" stroke="#63b8ff" points="371.5,-71.54 381.88,-69.41 372.44,-64.61 371.5,-71.54"/>
</a>
</g>
</g>
<!-- Node3 -->
<g id="Node000003" class="node">
<title>Node3</title>
<g id="a_Node000003"><a xlink:href="classdnf__composer_1_1Simulation.html#a487ef819fe0e501707580714b92b80ca" target="_top" xlink:title="Deserialize the simulation state from a JSON file.">
<polygon fill="white" stroke="#666666" points="155,-118 11,-118 11,-88 155,-88 155,-118"/>
<text text-anchor="start" x="19" y="-106" font-family="Helvetica,sans-Serif" font-size="10.00">dnf_composer::Simulation</text>
<text text-anchor="middle" x="83" y="-95" font-family="Helvetica,sans-Serif" font-size="10.00">::read</text>
</a>
</g>
</g>
<!-- Node2&#45;&gt;Node3 -->
<g id="edge2_Node000002_Node000003" class="edge">
<title>Node2&#45;&gt;Node3</title>
<g id="a_edge2_Node000002_Node000003"><a xlink:title=" ">
<path fill="none" stroke="#63b8ff" d="M191.68,-103C179.52,-103 167.05,-103 155.12,-103"/>
<polygon fill="#63b8ff" stroke="#63b8ff" points="191.82,-106.5 201.82,-103 191.82,-99.5 191.82,-106.5"/>
</a>
</g>
</g>
<!-- Node5 -->
<g id="Node000005" class="node">
<title>Node5</title>
<g id="a_Node000005"><a xlink:href="classdnf__composer_1_1Simulation.html#adc98d900b0ed2e9f901ee9bf0170d93b" target="_top" xlink:title="Run the simulation for runTime milliseconds (blocking).">
<polygon fill="white" stroke="#666666" points="166,-67.5 0,-67.5 0,-48.5 166,-48.5 166,-67.5"/>
<text text-anchor="middle" x="83" y="-55.5" font-family="Helvetica,sans-Serif" font-size="10.00">dnf_composer::Simulation::run</text>
</a>
</g>
</g>
<!-- Node4&#45;&gt;Node5 -->
<g id="edge4_Node000004_Node000005" class="edge">
<title>Node4&#45;&gt;Node5</title>
<g id="a_edge4_Node000004_Node000005"><a xlink:title=" ">
<path fill="none" stroke="#63b8ff" d="M191.64,-56.29C183.22,-56.43 174.66,-56.56 166.23,-56.69"/>
<polygon fill="#63b8ff" stroke="#63b8ff" points="191.87,-59.79 201.82,-56.13 191.76,-52.79 191.87,-59.79"/>
</a>
</g>
</g>
<!-- Node6 -->
<g id="Node000006" class="node">
<title>Node6</title>
<g id="a_Node000006"><a xlink:href="classdnf__composer_1_1Simulation.html#a02cc12769e196f46a1ca4eb4f360fc3c" target="_top" xlink:title="Run the simulation in real&#45;time for milliseconds wall&#45;clock ms.">
<polygon fill="white" stroke="#666666" points="155,-30 11,-30 11,0 155,0 155,-30"/>
<text text-anchor="start" x="19" y="-18" font-family="Helvetica,sans-Serif" font-size="10.00">dnf_composer::Simulation</text>
<text text-anchor="middle" x="83" y="-7" font-family="Helvetica,sans-Serif" font-size="10.00">::runForRealTime</text>
</a>
</g>
</g>
<!-- Node4&#45;&gt;Node6 -->
<g id="edge5_Node000004_Node000006" class="edge">
<title>Node4&#45;&gt;Node6</title>
<g id="a_edge5_Node000004_Node000006"><a xlink:title=" ">
<path fill="none" stroke="#63b8ff" d="M192.24,-37.91C179.86,-35.29 167.15,-32.6 155,-30.03"/>
<polygon fill="#63b8ff" stroke="#63b8ff" points="191.58,-41.35 202.09,-39.99 193.03,-34.5 191.58,-41.35"/>
</a>
</g>
</g>
</g>
</svg>
