<?xml version="1.0" encoding="UTF-8" standalone="no"?>
<!DOCTYPE svg PUBLIC "-//W3C//DTD SVG 1.1//EN"
 "http://www.w3.org/Graphics/SVG/1.1/DTD/svg11.dtd">
<!-- Generated by graphviz version 2.43.0 (0)
 -->
<!-- Title: dnf_composer::Simulation Pages: 1 -->
<svg width="1122pt" height="1060pt"
 viewBox="0.00 0.00 1121.58 1060.00" xmlns="http://www.w3.org/2000/svg" xmlns:xlink="http://www.w3.org/1999/xlink">
<g id="graph0" class="graph" transform="scale(1 1) rotate(0) translate(4 1056)">
<title>dnf_composer::Simulation</title>
<!-- Node1 -->
<g id="Node000001" class="node">
<title>Node1</title>
<g id="a_Node000001"><a xlink:title="Manages the element registry and drives the simulation loop.">
<polygon fill="#999999" stroke="transparent" points="511.08,-561 366.08,-561 366.08,-257 511.08,-257 511.08,-561"/>
<text text-anchor="start" x="375.08" y="-549" font-family="Helvetica,sans-Serif" font-size="10.00">dnf_composer::Simulation</text>
<text text-anchor="start" x="370.58" y="-534" font-family="Helvetica,sans-Serif" font-size="10.00">+</text>
<text text-anchor="start" x="383.58" y="-534" font-family="Helvetica,sans-Serif" font-size="10.00">accumulatedRunDuration</text>
<text text-anchor="start" x="370.58" y="-519" font-family="Helvetica,sans-Serif" font-size="10.00">+</text>
<text text-anchor="start" x="383.58" y="-519" font-family="Helvetica,sans-Serif" font-size="10.00">deltaT</text>
<text text-anchor="start" x="370.58" y="-504" font-family="Helvetica,sans-Serif" font-size="10.00">+</text>
<text text-anchor="start" x="383.58" y="-504" font-family="Helvetica,sans-Serif" font-size="10.00">lastStepDuration</text>
<text text-anchor="start" x="370.58" y="-489" font-family="Helvetica,sans-Serif" font-size="10.00">+</text>
<text text-anchor="start" x="383.58" y="-489" font-family="Helvetica,sans-Serif" font-size="10.00">runSegmentStart</text>
<text text-anchor="start" x="370.58" y="-474" font-family="Helvetica,sans-Serif" font-size="10.00">+</text>
<text text-anchor="start" x="383.58" y="-474" font-family="Helvetica,sans-Serif" font-size="10.00">t</text>
<text text-anchor="start" x="370.58" y="-459" font-family="Helvetica,sans-Serif" font-size="10.00">+</text>
<text text-anchor="start" x="383.58" y="-459" font-family="Helvetica,sans-Serif" font-size="10.00">tZero</text>
<text text-anchor="start" x="370.58" y="-444" font-family="Helvetica,sans-Serif" font-size="10.00">#</text>
<text text-anchor="start" x="383.58" y="-444" font-family="Helvetica,sans-Serif" font-size="10.00">initialized</text>
<text text-anchor="start" x="370.58" y="-429" font-family="Helvetica,sans-Serif" font-size="10.00">#</text>
<text text-anchor="start" x="383.58" y="-429" font-family="Helvetica,sans-Serif" font-size="10.00">paused</text>
<text text-anchor="start" x="370.58" y="-414" font-family="Helvetica,sans-Serif" font-size="10.00">+</text>
<text text-anchor="start" x="383.58" y="-414" font-family="Helvetica,sans-Serif" font-size="10.00">addElement()</text>
<text text-anchor="start" x="370.58" y="-399" font-family="Helvetica,sans-Serif" font-size="10.00">+</text>
<text text-anchor="start" x="383.58" y="-399" font-family="Helvetica,sans-Serif" font-size="10.00">changeDimensions()</text>
<text text-anchor="start" x="370.58" y="-384" font-family="Helvetica,sans-Serif" font-size="10.00">+</text>
<text text-anchor="start" x="383.58" y="-384" font-family="Helvetica,sans-Serif" font-size="10.00">clean()</text>
<text text-anchor="start" x="370.58" y="-369" font-family="Helvetica,sans-Serif" font-size="10.00">+</text>
<text text-anchor="start" x="383.58" y="-369" font-family="Helvetica,sans-Serif" font-size="10.00">close()</text>
<text text-anchor="start" x="370.58" y="-354" font-family="Helvetica,sans-Serif" font-size="10.00">+</text>
<text text-anchor="start" x="383.58" y="-354" font-family="Helvetica,sans-Serif" font-size="10.00">componentExists()</text>
<text text-anchor="start" x="370.58" y="-339" font-family="Helvetica,sans-Serif" font-size="10.00">+</text>
<text text-anchor="start" x="383.58" y="-339" font-family="Helvetica,sans-Serif" font-size="10.00">createInteraction()</text>
<text text-anchor="start" x="370.58" y="-324" font-family="Helvetica,sans-Serif" font-size="10.00">+</text>
<text text-anchor="start" x="383.58" y="-324" font-family="Helvetica,sans-Serif" font-size="10.00">getComponent()</text>
<text text-anchor="start" x="370.58" y="-309" font-family="Helvetica,sans-Serif" font-size="10.00">+</text>
<text text-anchor="start" x="383.58" y="-309" font-family="Helvetica,sans-Serif" font-size="10.00">getComponentPtr()</text>
<text text-anchor="start" x="370.58" y="-294" font-family="Helvetica,sans-Serif" font-size="10.00">+</text>
<text text-anchor="start" x="383.58" y="-294" font-family="Helvetica,sans-Serif" font-size="10.00">getDeltaT()</text>
<text text-anchor="start" x="370.58" y="-279" font-family="Helvetica,sans-Serif" font-size="10.00">+</text>
<text text-anchor="start" x="383.58" y="-279" font-family="Helvetica,sans-Serif" font-size="10.00">getElement()</text>
<text text-anchor="start" x="383.58" y="-264" font-family="Helvetica,sans-Serif" font-size="10.00">and 35 more...</text>
<polygon fill="#666666" stroke="#666666" points="366.58,-544 366.58,-544 511.58,-544 511.58,-544 366.58,-544"/>
<polygon fill="#666666" stroke="#666666" points="366.58,-424 366.58,-424 381.58,-424 381.58,-424 366.58,-424"/>
<polygon fill="#666666" stroke="#666666" points="381.58,-424 381.58,-424 511.58,-424 511.58,-424 381.58,-424"/>
<polygon fill="none" stroke="#666666" points="366.08,-257 366.08,-561 511.08,-561 511.08,-257 366.08,-257"/>
</a>
</g>
</g>
<!-- Node2 -->
<g id="Node000002" class="node">
<title>Node2</title>
<g id="a_Node000002"><a xlink:title=" ">
<polygon fill="white" stroke="transparent" points="682.08,-758 545.08,-758 545.08,-698 682.08,-698 682.08,-758"/>
<text text-anchor="start" x="550.58" y="-746" font-family="Helvetica,sans-Serif" font-size="10.00">std::enable_shared</text>
<text text-anchor="start" x="550.58" y="-735" font-family="Helvetica,sans-Serif" font-size="10.00">_from_this&lt; Simulation &gt;</text>
<text text-anchor="start" x="612.08" y="-720" font-family="Helvetica,sans-Serif" font-size="10.00"> </text>
<text text-anchor="start" x="612.08" y="-705" font-family="Helvetica,sans-Serif" font-size="10.00"> </text>
<polygon fill="#666666" stroke="#666666" points="545.58,-730 545.58,-730 682.58,-730 682.58,-730 545.58,-730"/>
<polygon fill="#666666" stroke="#666666" points="545.58,-715 545.58,-715 682.58,-715 682.58,-715 545.58,-715"/>
<polygon fill="none" stroke="#666666" points="545.08,-698 545.08,-758 682.08,-758 682.08,-698 545.08,-698"/>
</a>
</g>
</g>
<!-- Node2&#45;&gt;Node1 -->
<g id="edge1_Node000001_Node000002" class="edge">
<title>Node2&#45;&gt;Node1</title>
<g id="a_edge1_Node000001_Node000002"><a xlink:title=" ">
<path fill="none" stroke="#63b8ff" d="M592.54,-688.89C572.31,-652.25 540.55,-594.71 511.11,-541.4"/>
<polygon fill="none" stroke="#63b8ff" points="589.53,-690.68 597.43,-697.75 595.66,-687.3 589.53,-690.68"/>
</a>
</g>
</g>
<!-- Node3 -->
<g id="Node000003" class="node">
<title>Node3</title>
<g id="a_Node000003"><a xlink:title=" ">
<polygon fill="white" stroke="transparent" points="402.58,-763.5 246.58,-763.5 246.58,-692.5 402.58,-692.5 402.58,-763.5"/>
<text text-anchor="start" x="251.58" y="-751" font-family="Helvetica,sans-Serif" font-size="10.00">std::vector&lt; std::shared</text>
<text text-anchor="start" x="251.58" y="-740" font-family="Helvetica,sans-Serif" font-size="10.00">_ptr&lt; dnf_composer::element</text>
<text text-anchor="start" x="289.58" y="-729" font-family="Helvetica,sans-Serif" font-size="10.00">::Element &gt; &gt;</text>
<text text-anchor="start" x="322.58" y="-714" font-family="Helvetica,sans-Serif" font-size="10.00"> </text>
<text text-anchor="start" x="322.58" y="-699" font-family="Helvetica,sans-Serif" font-size="10.00"> </text>
<polygon fill="#666666" stroke="#666666" points="246.58,-724 246.58,-724 402.58,-724 402.58,-724 246.58,-724"/>
<polygon fill="#666666" stroke="#666666" points="246.58,-709 246.58,-709 402.58,-709 402.58,-709 246.58,-709"/>
<polygon fill="none" stroke="#666666" points="246.58,-692.5 246.58,-763.5 402.58,-763.5 402.58,-692.5 246.58,-692.5"/>
</a>
</g>
</g>
<!-- Node3&#45;&gt;Node1 -->
<g id="edge2_Node000001_Node000003" class="edge">
<title>Node3&#45;&gt;Node1</title>
<g id="a_edge2_Node000001_Node000003"><a xlink:title=" ">
<path fill="none" stroke="#63b8ff" d="M333.12,-692.22C340.86,-661.98 353.1,-617.15 366.58,-579 367.32,-576.89 368.08,-574.77 368.85,-572.65"/>
<polygon fill="none" stroke="#63b8ff" points="368.92,-572.45 367.24,-565.44 373.07,-561.19 374.75,-568.21 368.92,-572.45"/>
</a>
</g>
<text text-anchor="middle" x="395.58" y="-582" font-family="Helvetica,sans-Serif" font-size="10.00" fill="grey"> #elements</text>
</g>
<!-- Node4 -->
<g id="Node000004" class="node">
<title>Node4</title>
<g id="a_Node000004"><a xlink:title=" ">
<polygon fill="white" stroke="transparent" points="233.58,-955 65.58,-955 65.58,-895 233.58,-895 233.58,-955"/>
<text text-anchor="start" x="70.58" y="-943" font-family="Helvetica,sans-Serif" font-size="10.00">std::shared_ptr&lt; dnf</text>
<text text-anchor="start" x="70.58" y="-932" font-family="Helvetica,sans-Serif" font-size="10.00">_composer::element::Element &gt;</text>
<text text-anchor="start" x="147.58" y="-917" font-family="Helvetica,sans-Serif" font-size="10.00"> </text>
<text text-anchor="start" x="91.08" y="-902" font-family="Helvetica,sans-Serif" font-size="10.00">+</text>
<text text-anchor="start" x="125.58" y="-902" font-family="Helvetica,sans-Serif" font-size="10.00">operator&#45;&gt;()</text>
<polygon fill="#666666" stroke="#666666" points="65.58,-927 65.58,-927 233.58,-927 233.58,-927 65.58,-927"/>
<polygon fill="#666666" stroke="#666666" points="65.58,-912 65.58,-912 233.58,-912 233.58,-912 65.58,-912"/>
<polygon fill="none" stroke="#666666" points="65.58,-895 65.58,-955 233.58,-955 233.58,-895 65.58,-895"/>
</a>
</g>
</g>
<!-- Node4&#45;&gt;Node3 -->
<g id="edge3_Node000003_Node000004" class="edge">
<title>Node4&#45;&gt;Node3</title>
<g id="a_edge3_Node000003_Node000004"><a xlink:title=" ">
<path fill="none" stroke="#63b8ff" d="M186.31,-894.95C202.46,-881.42 221.22,-864.66 236.58,-848 257.89,-824.88 278.94,-796.67 295.1,-773.51"/>
<polygon fill="none" stroke="#63b8ff" points="295.13,-773.48 295.24,-766.27 301.94,-763.6 301.83,-770.81 295.13,-773.48"/>
</a>
</g>
<text text-anchor="middle" x="245.58" y="-869" font-family="Helvetica,sans-Serif" font-size="10.00" fill="grey"> +elements</text>
</g>
<!-- Node14 -->
<g id="Node000014" class="node">
<title>Node14</title>
<g id="a_Node000014"><a xlink:title=" ">
<polygon fill="white" stroke="transparent" points="228.08,-769 71.08,-769 71.08,-687 228.08,-687 228.08,-769"/>
<text text-anchor="start" x="76.58" y="-757" font-family="Helvetica,sans-Serif" font-size="10.00">std::unordered_map</text>
<text text-anchor="start" x="76.58" y="-746" font-family="Helvetica,sans-Serif" font-size="10.00">&lt; std::shared_ptr&lt; dnf</text>
<text text-anchor="start" x="76.58" y="-735" font-family="Helvetica,sans-Serif" font-size="10.00">_composer::element::Element</text>
<text text-anchor="start" x="111.08" y="-724" font-family="Helvetica,sans-Serif" font-size="10.00"> &gt;, std::string &gt;</text>
<text text-anchor="start" x="148.08" y="-709" font-family="Helvetica,sans-Serif" font-size="10.00"> </text>
<text text-anchor="start" x="148.08" y="-694" font-family="Helvetica,sans-Serif" font-size="10.00"> </text>
<polygon fill="#666666" stroke="#666666" points="71.58,-719 71.58,-719 228.58,-719 228.58,-719 71.58,-719"/>
<polygon fill="#666666" stroke="#666666" points="71.58,-704 71.58,-704 228.58,-704 228.58,-704 71.58,-704"/>
<polygon fill="none" stroke="#666666" points="71.08,-687 71.08,-769 228.08,-769 228.08,-687 71.08,-687"/>
</a>
</g>
</g>
<!-- Node4&#45;&gt;Node14 -->
<g id="edge15_Node000014_Node000004" class="edge">
<title>Node4&#45;&gt;Node14</title>
<g id="a_edge15_Node000014_Node000004"><a xlink:title=" ">
<path fill="none" stroke="#63b8ff" d="M149.58,-894.81C149.58,-864.96 149.58,-817.96 149.58,-781.61"/>
<polygon fill="none" stroke="#63b8ff" points="149.58,-781.24 145.58,-775.24 149.58,-769.24 153.58,-775.24 149.58,-781.24"/>
</a>
</g>
<text text-anchor="middle" x="166.58" y="-869" font-family="Helvetica,sans-Serif" font-size="10.00" fill="grey"> +keys</text>
</g>
<!-- Node5 -->
<g id="Node000005" class="node">
<title>Node5</title>
<g id="a_Node000005"><a xlink:href="classdnf__composer_1_1element_1_1Element.html" target="_top" xlink:title="Abstract base class for all simulation elements.">
<polygon fill="white" stroke="transparent" points="344.58,-210 218.58,-210 218.58,0 344.58,0 344.58,-210"/>
<text text-anchor="start" x="223.58" y="-198" font-family="Helvetica,sans-Serif" font-size="10.00">dnf_composer::element</text>
<text text-anchor="start" x="258.08" y="-187" font-family="Helvetica,sans-Serif" font-size="10.00">::Element</text>
<text text-anchor="start" x="279.58" y="-172" font-family="Helvetica,sans-Serif" font-size="10.00"> </text>
<text text-anchor="start" x="223.58" y="-157" font-family="Helvetica,sans-Serif" font-size="10.00">+</text>
<text text-anchor="start" x="237.58" y="-157" font-family="Helvetica,sans-Serif" font-size="10.00">addInput()</text>
<text text-anchor="start" x="223.58" y="-142" font-family="Helvetica,sans-Serif" font-size="10.00">+</text>
<text text-anchor="start" x="237.58" y="-142" font-family="Helvetica,sans-Serif" font-size="10.00">buildInputCache()</text>
<text text-anchor="start" x="223.58" y="-127" font-family="Helvetica,sans-Serif" font-size="10.00">+</text>
<text text-anchor="start" x="237.58" y="-127" font-family="Helvetica,sans-Serif" font-size="10.00">changeDimensions()</text>
<text text-anchor="start" x="223.58" y="-112" font-family="Helvetica,sans-Serif" font-size="10.00">+</text>
<text text-anchor="start" x="237.58" y="-112" font-family="Helvetica,sans-Serif" font-size="10.00">clone()</text>
<text text-anchor="start" x="223.58" y="-97" font-family="Helvetica,sans-Serif" font-size="10.00">+</text>
<text text-anchor="start" x="237.58" y="-97" font-family="Helvetica,sans-Serif" font-size="10.00">close()</text>
<text text-anchor="start" x="223.58" y="-82" font-family="Helvetica,sans-Serif" font-size="10.00">+</text>
<text text-anchor="start" x="237.58" y="-82" font-family="Helvetica,sans-Serif" font-size="10.00">Element()</text>
<text text-anchor="start" x="223.58" y="-67" font-family="Helvetica,sans-Serif" font-size="10.00">+</text>
<text text-anchor="start" x="237.58" y="-67" font-family="Helvetica,sans-Serif" font-size="10.00">getComponent()</text>
<text text-anchor="start" x="223.58" y="-52" font-family="Helvetica,sans-Serif" font-size="10.00">+</text>
<text text-anchor="start" x="237.58" y="-52" font-family="Helvetica,sans-Serif" font-size="10.00">getComponentList()</text>
<text text-anchor="start" x="223.58" y="-37" font-family="Helvetica,sans-Serif" font-size="10.00">+</text>
<text text-anchor="start" x="237.58" y="-37" font-family="Helvetica,sans-Serif" font-size="10.00">getComponentPtr()</text>
<text text-anchor="start" x="223.58" y="-22" font-family="Helvetica,sans-Serif" font-size="10.00">+</text>
<text text-anchor="start" x="237.58" y="-22" font-family="Helvetica,sans-Serif" font-size="10.00">getComponents()</text>
<text text-anchor="start" x="237.58" y="-7" font-family="Helvetica,sans-Serif" font-size="10.00">and 29 more...</text>
<polygon fill="#666666" stroke="#666666" points="218.58,-182 218.58,-182 344.58,-182 344.58,-182 218.58,-182"/>
<polygon fill="#666666" stroke="#666666" points="218.58,-167 218.58,-167 344.58,-167 344.58,-167 218.58,-167"/>
<polygon fill="none" stroke="#666666" points="218.58,0 218.58,-210 344.58,-210 344.58,0 218.58,0"/>
</a>
</g>
</g>
<!-- Node5&#45;&gt;Node4 -->
<g id="edge4_Node000004_Node000005" class="edge">
<title>Node5&#45;&gt;Node4</title>
<g id="a_edge4_Node000004_Node000005"><a xlink:title=" ">
<path fill="none" stroke="#63b8ff" d="M218.23,-151.09C185.13,-178.04 146.97,-215.15 124.58,-257 -0.03,-489.92 -48.35,-607.81 61.58,-848 68.41,-862.92 79.77,-876.03 92.1,-886.97"/>
<polygon fill="none" stroke="#63b8ff" points="92.43,-887.24 99.6,-888 101.66,-894.91 94.49,-894.15 92.43,-887.24"/>
</a>
</g>
<text text-anchor="middle" x="14.08" y="-582" font-family="Helvetica,sans-Serif" font-size="10.00" fill="grey"> +ptr</text>
</g>
<!-- Node6 -->
<g id="Node000006" class="node">
<title>Node6</title>
<g id="a_Node000006"><a xlink:title=" ">
<polygon fill="white" stroke="transparent" points="344.08,-439 219.08,-439 219.08,-379 344.08,-379 344.08,-439"/>
<text text-anchor="start" x="224.58" y="-427" font-family="Helvetica,sans-Serif" font-size="10.00">std::enable_shared</text>
<text text-anchor="start" x="224.58" y="-416" font-family="Helvetica,sans-Serif" font-size="10.00">_from_this&lt; Element &gt;</text>
<text text-anchor="start" x="280.08" y="-401" font-family="Helvetica,sans-Serif" font-size="10.00"> </text>
<text text-anchor="start" x="280.08" y="-386" font-family="Helvetica,sans-Serif" font-size="10.00"> </text>
<polygon fill="#666666" stroke="#666666" points="219.58,-411 219.58,-411 344.58,-411 344.58,-411 219.58,-411"/>
<polygon fill="#666666" stroke="#666666" points="219.58,-396 219.58,-396 344.58,-396 344.58,-396 219.58,-396"/>
<polygon fill="none" stroke="#666666" points="219.08,-379 219.08,-439 344.08,-439 344.08,-379 219.08,-379"/>
</a>
</g>
</g>
<!-- Node6&#45;&gt;Node5 -->
<g id="edge5_Node000005_Node000006" class="edge">
<title>Node6&#45;&gt;Node5</title>
<g id="a_edge5_Node000005_Node000006"><a xlink:title=" ">
<path fill="none" stroke="#63b8ff" d="M281.58,-368.63C281.58,-328.59 281.58,-264.85 281.58,-210.19"/>
<polygon fill="none" stroke="#63b8ff" points="278.08,-368.77 281.58,-378.77 285.08,-368.77 278.08,-368.77"/>
</a>
</g>
</g>
<!-- Node7 -->
<g id="Node000007" class="node">
<title>Node7</title>
<g id="a_Node000007"><a xlink:href="structdnf__composer_1_1element_1_1ElementCommonParameters.html" target="_top" xlink:title=" ">
<polygon fill="white" stroke="transparent" points="853.08,-499 684.08,-499 684.08,-319 853.08,-319 853.08,-499"/>
<text text-anchor="start" x="695.58" y="-487" font-family="Helvetica,sans-Serif" font-size="10.00">dnf_composer::element</text>
<text text-anchor="start" x="695.58" y="-476" font-family="Helvetica,sans-Serif" font-size="10.00">::ElementCommonParameters</text>
<text text-anchor="start" x="767.08" y="-461" font-family="Helvetica,sans-Serif" font-size="10.00"> </text>
<text text-anchor="start" x="688.58" y="-446" font-family="Helvetica,sans-Serif" font-size="10.00">+</text>
<text text-anchor="start" x="701.58" y="-446" font-family="Helvetica,sans-Serif" font-size="10.00">ElementCommonParameters()</text>
<text text-anchor="start" x="688.58" y="-431" font-family="Helvetica,sans-Serif" font-size="10.00">+</text>
<text text-anchor="start" x="701.58" y="-431" font-family="Helvetica,sans-Serif" font-size="10.00">ElementCommonParameters()</text>
<text text-anchor="start" x="688.58" y="-416" font-family="Helvetica,sans-Serif" font-size="10.00">+</text>
<text text-anchor="start" x="701.58" y="-416" font-family="Helvetica,sans-Serif" font-size="10.00">ElementCommonParameters()</text>
<text text-anchor="start" x="688.58" y="-401" font-family="Helvetica,sans-Serif" font-size="10.00">+</text>
<text text-anchor="start" x="701.58" y="-401" font-family="Helvetica,sans-Serif" font-size="10.00">ElementCommonParameters()</text>
<text text-anchor="start" x="688.58" y="-386" font-family="Helvetica,sans-Serif" font-size="10.00">+</text>
<text text-anchor="start" x="701.58" y="-386" font-family="Helvetica,sans-Serif" font-size="10.00">ElementCommonParameters()</text>
<text text-anchor="start" x="688.58" y="-371" font-family="Helvetica,sans-Serif" font-size="10.00">+</text>
<text text-anchor="start" x="701.58" y="-371" font-family="Helvetica,sans-Serif" font-size="10.00">ElementCommonParameters()</text>
<text text-anchor="start" x="688.58" y="-356" font-family="Helvetica,sans-Serif" font-size="10.00">+</text>
<text text-anchor="start" x="701.58" y="-356" font-family="Helvetica,sans-Serif" font-size="10.00">operator==()</text>
<text text-anchor="start" x="688.58" y="-341" font-family="Helvetica,sans-Serif" font-size="10.00">+</text>
<text text-anchor="start" x="701.58" y="-341" font-family="Helvetica,sans-Serif" font-size="10.00">print()</text>
<text text-anchor="start" x="688.58" y="-326" font-family="Helvetica,sans-Serif" font-size="10.00">+</text>
<text text-anchor="start" x="701.58" y="-326" font-family="Helvetica,sans-Serif" font-size="10.00">toString()</text>
<polygon fill="#666666" stroke="#666666" points="684.58,-471 684.58,-471 853.58,-471 853.58,-471 684.58,-471"/>
<polygon fill="#666666" stroke="#666666" points="684.58,-456 684.58,-456 853.58,-456 853.58,-456 684.58,-456"/>
<polygon fill="none" stroke="#666666" points="684.08,-319 684.08,-499 853.08,-499 853.08,-319 684.08,-319"/>
</a>
</g>
</g>
<!-- Node7&#45;&gt;Node5 -->
<g id="edge6_Node000005_Node000007" class="edge">
<title>Node7&#45;&gt;Node5</title>
<g id="a_edge6_Node000005_Node000007"><a xlink:title=" ">
<path fill="none" stroke="#63b8ff" d="M684.03,-355.57C591.11,-297.95 443.35,-206.32 355.08,-151.58"/>
<polygon fill="none" stroke="#63b8ff" points="354.82,-151.42 347.61,-151.66 344.62,-145.09 351.83,-144.86 354.82,-151.42"/>
</a>
</g>
<text text-anchor="middle" x="551.58" y="-231" font-family="Helvetica,sans-Serif" font-size="10.00" fill="grey"> #commonParameters</text>
</g>
<!-- Node8 -->
<g id="Node000008" class="node">
<title>Node8</title>
<g id="a_Node000008"><a xlink:href="structdnf__composer_1_1element_1_1ElementIdentifiers.html" target="_top" xlink:title=" ">
<polygon fill="white" stroke="transparent" points="836.58,-803 700.58,-803 700.58,-653 836.58,-653 836.58,-803"/>
<text text-anchor="start" x="710.58" y="-791" font-family="Helvetica,sans-Serif" font-size="10.00">dnf_composer::element</text>
<text text-anchor="start" x="720.58" y="-780" font-family="Helvetica,sans-Serif" font-size="10.00">::ElementIdentifiers</text>
<text text-anchor="start" x="704.58" y="-765" font-family="Helvetica,sans-Serif" font-size="10.00">+</text>
<text text-anchor="start" x="717.58" y="-765" font-family="Helvetica,sans-Serif" font-size="10.00">label</text>
<text text-anchor="start" x="704.58" y="-750" font-family="Helvetica,sans-Serif" font-size="10.00">+</text>
<text text-anchor="start" x="717.58" y="-750" font-family="Helvetica,sans-Serif" font-size="10.00">uniqueIdentifier</text>
<text text-anchor="start" x="704.58" y="-735" font-family="Helvetica,sans-Serif" font-size="10.00">+</text>
<text text-anchor="start" x="717.58" y="-735" font-family="Helvetica,sans-Serif" font-size="10.00">uniqueIdentifierCounter</text>
<text text-anchor="start" x="704.58" y="-720" font-family="Helvetica,sans-Serif" font-size="10.00">+</text>
<text text-anchor="start" x="717.58" y="-720" font-family="Helvetica,sans-Serif" font-size="10.00">ElementIdentifiers()</text>
<text text-anchor="start" x="704.58" y="-705" font-family="Helvetica,sans-Serif" font-size="10.00">+</text>
<text text-anchor="start" x="717.58" y="-705" font-family="Helvetica,sans-Serif" font-size="10.00">ElementIdentifiers()</text>
<text text-anchor="start" x="704.58" y="-690" font-family="Helvetica,sans-Serif" font-size="10.00">+</text>
<text text-anchor="start" x="717.58" y="-690" font-family="Helvetica,sans-Serif" font-size="10.00">operator==()</text>
<text text-anchor="start" x="704.58" y="-675" font-family="Helvetica,sans-Serif" font-size="10.00">+</text>
<text text-anchor="start" x="717.58" y="-675" font-family="Helvetica,sans-Serif" font-size="10.00">print()</text>
<text text-anchor="start" x="704.58" y="-660" font-family="Helvetica,sans-Serif" font-size="10.00">+</text>
<text text-anchor="start" x="717.58" y="-660" font-family="Helvetica,sans-Serif" font-size="10.00">toString()</text>
<polygon fill="#666666" stroke="#666666" points="700.58,-775 700.58,-775 836.58,-775 836.58,-775 700.58,-775"/>
<polygon fill="#666666" stroke="#666666" points="700.58,-730 700.58,-730 715.58,-730 715.58,-730 700.58,-730"/>
<polygon fill="#666666" stroke="#666666" points="715.58,-730 715.58,-730 836.58,-730 836.58,-730 715.58,-730"/>
<polygon fill="none" stroke="#666666" points="700.58,-653 700.58,-803 836.58,-803 836.58,-653 700.58,-653"/>
</a>
</g>
</g>
<!-- Node8&#45;&gt;Node7 -->
<g id="edge7_Node000007_Node000008" class="edge">
<title>Node8&#45;&gt;Node7</title>
<g id="a_edge7_Node000007_Node000008"><a xlink:title=" ">
<path fill="none" stroke="#63b8ff" d="M768.58,-652.68C768.58,-610.51 768.58,-557.15 768.58,-511.21"/>
<polygon fill="none" stroke="#63b8ff" points="768.58,-511.08 764.58,-505.08 768.58,-499.08 772.58,-505.08 768.58,-511.08"/>
</a>
</g>
<text text-anchor="middle" x="799.08" y="-582" font-family="Helvetica,sans-Serif" font-size="10.00" fill="grey"> +identifiers</text>
</g>
<!-- Node9 -->
<g id="Node000009" class="node">
<title>Node9</title>
<g id="a_Node000009"><a xlink:title=" ">
<polygon fill="white" stroke="transparent" points="559.08,-949.5 500.08,-949.5 500.08,-900.5 559.08,-900.5 559.08,-949.5"/>
<text text-anchor="start" x="505.58" y="-937" font-family="Helvetica,sans-Serif" font-size="10.00">std::string</text>
<text text-anchor="start" x="528.08" y="-922" font-family="Helvetica,sans-Serif" font-size="10.00"> </text>
<text text-anchor="start" x="528.08" y="-907" font-family="Helvetica,sans-Serif" font-size="10.00"> </text>
<polygon fill="#666666" stroke="#666666" points="500.58,-932 500.58,-932 559.58,-932 559.58,-932 500.58,-932"/>
<polygon fill="#666666" stroke="#666666" points="500.58,-917 500.58,-917 559.58,-917 559.58,-917 500.58,-917"/>
<polygon fill="none" stroke="#666666" points="500.08,-900.5 500.08,-949.5 559.08,-949.5 559.08,-900.5 500.08,-900.5"/>
</a>
</g>
</g>
<!-- Node9&#45;&gt;Node1 -->
<g id="edge17_Node000001_Node000009" class="edge">
<title>Node9&#45;&gt;Node1</title>
<g id="a_edge17_Node000001_Node000009"><a xlink:title=" ">
<path fill="none" stroke="#63b8ff" d="M499.95,-905.73C481.19,-892.32 458.47,-872.26 447.58,-848 426.12,-800.19 425.15,-676.95 428.83,-573.34"/>
<polygon fill="none" stroke="#63b8ff" points="428.84,-573.12 425.07,-566.97 429.29,-561.13 433.07,-567.27 428.84,-573.12"/>
</a>
</g>
<text text-anchor="middle" x="491.58" y="-725.5" font-family="Helvetica,sans-Serif" font-size="10.00" fill="grey"> #uniqueIdentifier</text>
</g>
<!-- Node9&#45;&gt;Node8 -->
<g id="edge8_Node000008_Node000009" class="edge">
<title>Node9&#45;&gt;Node8</title>
<g id="a_edge8_Node000008_Node000009"><a xlink:title=" ">
<path fill="none" stroke="#63b8ff" d="M559.37,-915.41C593.96,-904.29 651.28,-882.18 690.58,-848 702.05,-838.02 712.51,-825.97 721.79,-813.4"/>
<polygon fill="none" stroke="#63b8ff" points="722.04,-813.05 722.24,-805.84 728.97,-803.25 728.77,-810.46 722.04,-813.05"/>
</a>
</g>
<text text-anchor="middle" x="700.58" y="-869" font-family="Helvetica,sans-Serif" font-size="10.00" fill="grey"> +uniqueName</text>
</g>
<!-- Node12 -->
<g id="Node000012" class="node">
<title>Node12</title>
<g id="a_Node000012"><a xlink:title=" ">
<polygon fill="white" stroke="transparent" points="1108.58,-763.5 1000.58,-763.5 1000.58,-692.5 1108.58,-692.5 1108.58,-763.5"/>
<text text-anchor="start" x="1005.58" y="-751" font-family="Helvetica,sans-Serif" font-size="10.00">std::unordered_map</text>
<text text-anchor="start" x="1005.58" y="-740" font-family="Helvetica,sans-Serif" font-size="10.00">&lt; std::string, std::</text>
<text text-anchor="start" x="1005.58" y="-729" font-family="Helvetica,sans-Serif" font-size="10.00">vector&lt; double &gt; &gt;</text>
<text text-anchor="start" x="1052.58" y="-714" font-family="Helvetica,sans-Serif" font-size="10.00"> </text>
<text text-anchor="start" x="1052.58" y="-699" font-family="Helvetica,sans-Serif" font-size="10.00"> </text>
<polygon fill="#666666" stroke="#666666" points="1000.58,-724 1000.58,-724 1108.58,-724 1108.58,-724 1000.58,-724"/>
<polygon fill="#666666" stroke="#666666" points="1000.58,-709 1000.58,-709 1108.58,-709 1108.58,-709 1000.58,-709"/>
<polygon fill="none" stroke="#666666" points="1000.58,-692.5 1000.58,-763.5 1108.58,-763.5 1108.58,-692.5 1000.58,-692.5"/>
</a>
</g>
</g>
<!-- Node9&#45;&gt;Node12 -->
<g id="edge12_Node000012_Node000009" class="edge">
<title>Node9&#45;&gt;Node12</title>
<g id="a_edge12_Node000012_Node000009"><a xlink:title=" ">
<path fill="none" stroke="#63b8ff" d="M559.31,-922.51C650.06,-917.46 921.54,-898.37 991.58,-848 1016.02,-830.42 1031.81,-800.42 1041.47,-774.94"/>
<polygon fill="none" stroke="#63b8ff" points="1041.48,-774.92 1039.71,-767.92 1045.49,-763.61 1047.25,-770.6 1041.48,-774.92"/>
</a>
</g>
<text text-anchor="middle" x="966.58" y="-869" font-family="Helvetica,sans-Serif" font-size="10.00" fill="grey"> +keys</text>
</g>
<!-- Node9&#45;&gt;Node14 -->
<g id="edge16_Node000014_Node000009" class="edge">
<title>Node9&#45;&gt;Node14</title>
<g id="a_edge16_Node000014_Node000009"><a xlink:title=" ">
<path fill="none" stroke="#63b8ff" d="M500.04,-917.49C430.31,-901.95 259.6,-862.89 237.58,-848 212.08,-830.77 191.18,-803.61 176.15,-779.59"/>
<polygon fill="none" stroke="#63b8ff" points="176.07,-779.45 169.54,-776.37 169.87,-769.17 176.39,-772.24 176.07,-779.45"/>
</a>
</g>
<text text-anchor="middle" x="357.58" y="-869" font-family="Helvetica,sans-Serif" font-size="10.00" fill="grey"> +elements</text>
</g>
<!-- Node10 -->
<g id="Node000010" class="node">
<title>Node10</title>
<g id="a_Node000010"><a xlink:title=" ">
<polygon fill="white" stroke="transparent" points="578.58,-1052 480.58,-1052 480.58,-992 578.58,-992 578.58,-1052"/>
<text text-anchor="start" x="485.58" y="-1040" font-family="Helvetica,sans-Serif" font-size="10.00">std::basic_string&lt;</text>
<text text-anchor="start" x="511.08" y="-1029" font-family="Helvetica,sans-Serif" font-size="10.00"> Char &gt;</text>
<text text-anchor="start" x="527.58" y="-1014" font-family="Helvetica,sans-Serif" font-size="10.00"> </text>
<text text-anchor="start" x="527.58" y="-999" font-family="Helvetica,sans-Serif" font-size="10.00"> </text>
<polygon fill="#666666" stroke="#666666" points="480.58,-1024 480.58,-1024 578.58,-1024 578.58,-1024 480.58,-1024"/>
<polygon fill="#666666" stroke="#666666" points="480.58,-1009 480.58,-1009 578.58,-1009 578.58,-1009 480.58,-1009"/>
<polygon fill="none" stroke="#666666" points="480.58,-992 480.58,-1052 578.58,-1052 578.58,-992 480.58,-992"/>
</a>
</g>
</g>
<!-- Node10&#45;&gt;Node9 -->
<g id="edge9_Node000009_Node000010" class="edge">
<title>Node10&#45;&gt;Node9</title>
<g id="a_edge9_Node000009_Node000010"><a xlink:title=" ">
<path fill="none" stroke="#63b8ff" d="M529.58,-981.81C529.58,-970.93 529.58,-959.44 529.58,-949.74"/>
<polygon fill="none" stroke="#63b8ff" points="526.08,-981.98 529.58,-991.98 533.08,-981.98 526.08,-981.98"/>
</a>
</g>
</g>
<!-- Node11 -->
<g id="Node000011" class="node">
<title>Node11</title>
<g id="a_Node000011"><a xlink:href="structdnf__composer_1_1element_1_1ElementDimensions.html" target="_top" xlink:title=" ">
<polygon fill="white" stroke="transparent" points="982.08,-848 855.08,-848 855.08,-608 982.08,-608 982.08,-848"/>
<text text-anchor="start" x="861.08" y="-836" font-family="Helvetica,sans-Serif" font-size="10.00">dnf_composer::element</text>
<text text-anchor="start" x="866.58" y="-825" font-family="Helvetica,sans-Serif" font-size="10.00">::ElementDimensions</text>
<text text-anchor="start" x="859.58" y="-810" font-family="Helvetica,sans-Serif" font-size="10.00">+</text>
<text text-anchor="start" x="872.58" y="-810" font-family="Helvetica,sans-Serif" font-size="10.00">d_x</text>
<text text-anchor="start" x="859.58" y="-795" font-family="Helvetica,sans-Serif" font-size="10.00">+</text>
<text text-anchor="start" x="872.58" y="-795" font-family="Helvetica,sans-Serif" font-size="10.00">d_y</text>
<text text-anchor="start" x="859.58" y="-780" font-family="Helvetica,sans-Serif" font-size="10.00">+</text>
<text text-anchor="start" x="872.58" y="-780" font-family="Helvetica,sans-Serif" font-size="10.00">dimensionality</text>
<text text-anchor="start" x="859.58" y="-765" font-family="Helvetica,sans-Serif" font-size="10.00">+</text>
<text text-anchor="start" x="872.58" y="-765" font-family="Helvetica,sans-Serif" font-size="10.00">size</text>
<text text-anchor="start" x="859.58" y="-750" font-family="Helvetica,sans-Serif" font-size="10.00">+</text>
<text text-anchor="start" x="872.58" y="-750" font-family="Helvetica,sans-Serif" font-size="10.00">size_x</text>
<text text-anchor="start" x="859.58" y="-735" font-family="Helvetica,sans-Serif" font-size="10.00">+</text>
<text text-anchor="start" x="872.58" y="-735" font-family="Helvetica,sans-Serif" font-size="10.00">size_y</text>
<text text-anchor="start" x="859.58" y="-720" font-family="Helvetica,sans-Serif" font-size="10.00">+</text>
<text text-anchor="start" x="872.58" y="-720" font-family="Helvetica,sans-Serif" font-size="10.00">x_max</text>
<text text-anchor="start" x="859.58" y="-705" font-family="Helvetica,sans-Serif" font-size="10.00">+</text>
<text text-anchor="start" x="872.58" y="-705" font-family="Helvetica,sans-Serif" font-size="10.00">y_max</text>
<text text-anchor="start" x="859.58" y="-690" font-family="Helvetica,sans-Serif" font-size="10.00">+</text>
<text text-anchor="start" x="872.58" y="-690" font-family="Helvetica,sans-Serif" font-size="10.00">ElementDimensions()</text>
<text text-anchor="start" x="859.58" y="-675" font-family="Helvetica,sans-Serif" font-size="10.00">+</text>
<text text-anchor="start" x="872.58" y="-675" font-family="Helvetica,sans-Serif" font-size="10.00">ElementDimensions()</text>
<text text-anchor="start" x="859.58" y="-660" font-family="Helvetica,sans-Serif" font-size="10.00">+</text>
<text text-anchor="start" x="872.58" y="-660" font-family="Helvetica,sans-Serif" font-size="10.00">ElementDimensions()</text>
<text text-anchor="start" x="859.58" y="-645" font-family="Helvetica,sans-Serif" font-size="10.00">+</text>
<text text-anchor="start" x="872.58" y="-645" font-family="Helvetica,sans-Serif" font-size="10.00">operator==()</text>
<text text-anchor="start" x="859.58" y="-630" font-family="Helvetica,sans-Serif" font-size="10.00">+</text>
<text text-anchor="start" x="872.58" y="-630" font-family="Helvetica,sans-Serif" font-size="10.00">print()</text>
<text text-anchor="start" x="859.58" y="-615" font-family="Helvetica,sans-Serif" font-size="10.00">+</text>
<text text-anchor="start" x="872.58" y="-615" font-family="Helvetica,sans-Serif" font-size="10.00">toString()</text>
<polygon fill="#666666" stroke="#666666" points="855.58,-820 855.58,-820 982.58,-820 982.58,-820 855.58,-820"/>
<polygon fill="#666666" stroke="#666666" points="855.58,-700 855.58,-700 870.58,-700 870.58,-700 855.58,-700"/>
<polygon fill="#666666" stroke="#666666" points="870.58,-700 870.58,-700 982.58,-700 982.58,-700 870.58,-700"/>
<polygon fill="none" stroke="#666666" points="855.08,-608 855.08,-848 982.08,-848 982.08,-608 855.08,-608"/>
</a>
</g>
</g>
<!-- Node11&#45;&gt;Node7 -->
<g id="edge10_Node000007_Node000011" class="edge">
<title>Node11&#45;&gt;Node7</title>
<g id="a_edge10_Node000007_Node000011"><a xlink:title=" ">
<path fill="none" stroke="#63b8ff" d="M862.08,-607.61C846.92,-575.56 830.68,-541.25 816.06,-510.35"/>
<polygon fill="none" stroke="#63b8ff" points="815.89,-509.98 809.7,-506.27 810.75,-499.13 816.93,-502.84 815.89,-509.98"/>
</a>
</g>
<text text-anchor="middle" x="911.58" y="-582" font-family="Helvetica,sans-Serif" font-size="10.00" fill="grey"> +dimensionParameters</text>
</g>
<!-- Node12&#45;&gt;Node5 -->
<g id="edge11_Node000005_Node000012" class="edge">
<title>Node12&#45;&gt;Node5</title>
<g id="a_edge11_Node000005_Node000012"><a xlink:title=" ">
<path fill="none" stroke="#63b8ff" d="M1050.82,-692.32C1039.5,-605.22 997.61,-375.81 861.58,-257 786.12,-191.1 496.01,-138.9 356.87,-117.08"/>
<polygon fill="none" stroke="#63b8ff" points="356.55,-117.03 350.01,-120.06 344.69,-115.19 351.24,-112.16 356.55,-117.03"/>
</a>
</g>
<text text-anchor="middle" x="1060.58" y="-406.5" font-family="Helvetica,sans-Serif" font-size="10.00" fill="grey"> #components</text>
</g>
<!-- Node13 -->
<g id="Node000013" class="node">
<title>Node13</title>
<g id="a_Node000013"><a xlink:title=" ">
<polygon fill="white" stroke="transparent" points="1113.58,-949.5 995.58,-949.5 995.58,-900.5 1113.58,-900.5 1113.58,-949.5"/>
<text text-anchor="start" x="1000.58" y="-937" font-family="Helvetica,sans-Serif" font-size="10.00">std::vector&lt; double &gt;</text>
<text text-anchor="start" x="1012.08" y="-922" font-family="Helvetica,sans-Serif" font-size="10.00">+</text>
<text text-anchor="start" x="1037.58" y="-922" font-family="Helvetica,sans-Serif" font-size="10.00">elements</text>
<text text-anchor="start" x="1052.58" y="-907" font-family="Helvetica,sans-Serif" font-size="10.00"> </text>
<polygon fill="#666666" stroke="#666666" points="995.58,-932 995.58,-932 1113.58,-932 1113.58,-932 995.58,-932"/>
<polygon fill="#666666" stroke="#666666" points="995.58,-917 995.58,-917 1035.58,-917 1035.58,-917 995.58,-917"/>
<polygon fill="#666666" stroke="#666666" points="1035.58,-917 1035.58,-917 1113.58,-917 1113.58,-917 1035.58,-917"/>
<polygon fill="none" stroke="#666666" points="995.58,-900.5 995.58,-949.5 1113.58,-949.5 1113.58,-900.5 995.58,-900.5"/>
</a>
</g>
</g>
<!-- Node13&#45;&gt;Node12 -->
<g id="edge13_Node000012_Node000013" class="edge">
<title>Node13&#45;&gt;Node12</title>
<g id="a_edge13_Node000012_Node000013"><a xlink:title=" ">
<path fill="none" stroke="#63b8ff" d="M1054.58,-900.48C1054.58,-869.77 1054.58,-815.3 1054.58,-775.98"/>
<polygon fill="none" stroke="#63b8ff" points="1054.58,-775.79 1050.58,-769.79 1054.58,-763.79 1058.58,-769.79 1054.58,-775.79"/>
</a>
</g>
<text text-anchor="middle" x="1083.58" y="-869" font-family="Helvetica,sans-Serif" font-size="10.00" fill="grey"> +elements</text>
</g>
<!-- Node14&#45;&gt;Node5 -->
<g id="edge14_Node000005_Node000014" class="edge">
<title>Node14&#45;&gt;Node5</title>
<g id="a_edge14_Node000005_Node000014"><a xlink:title=" ">
<path fill="none" stroke="#63b8ff" d="M142.62,-686.77C129.95,-603.55 109.16,-407.68 163.58,-257 173.86,-228.53 191.73,-201.23 210.5,-177.86"/>
<polygon fill="none" stroke="#63b8ff" points="210.65,-177.68 211.39,-170.51 218.3,-168.43 217.56,-175.61 210.65,-177.68"/>
</a>
</g>
<text text-anchor="middle" x="186.58" y="-412" font-family="Helvetica,sans-Serif" font-size="10.00" fill="grey"> #inputs</text>
<text text-anchor="middle" x="186.58" y="-401" font-family="Helvetica,sans-Serif" font-size="10.00" fill="grey">#outputs</text>
</g>
</g>
</svg>
