<?xml version="1.0" encoding="UTF-8" standalone="no"?>
<!DOCTYPE svg PUBLIC "-//W3C//DTD SVG 1.1//EN"
 "http://www.w3.org/Graphics/SVG/1.1/DTD/svg11.dtd">
<!-- Generated by graphviz version 2.43.0 (0)
 -->
<!-- Title: dnf_composer::element::TimedGaussStimulus2D::setParameters Pages: 1 -->
<svg width="530pt" height="146pt"
 viewBox="0.00 0.00 530.00 146.00" xmlns="http://www.w3.org/2000/svg" xmlns:xlink="http://www.w3.org/1999/xlink">
<g id="graph0" class="graph" transform="scale(1 1) rotate(0) translate(4 142)">
<title>dnf_composer::element::TimedGaussStimulus2D::setParameters</title>
<!-- Node1 -->
<g id="Node000001" class="node">
<title>Node1</title>
<g id="a_Node000001"><a xlink:title=" ">
<polygon fill="#999999" stroke="#666666" points="140,-89.5 0,-89.5 0,-48.5 140,-48.5 140,-89.5"/>
<text text-anchor="start" x="8" y="-77.5" font-family="Helvetica,sans-Serif" font-size="10.00">dnf_composer::element</text>
<text text-anchor="start" x="8" y="-66.5" font-family="Helvetica,sans-Serif" font-size="10.00">::TimedGaussStimulus2D</text>
<text text-anchor="middle" x="70" y="-55.5" font-family="Helvetica,sans-Serif" font-size="10.00">::setParameters</text>
</a>
</g>
</g>
<!-- Node2 -->
<g id="Node000002" class="node">
<title>Node2</title>
<g id="a_Node000002"><a xlink:href="classdnf__composer_1_1element_1_1TimedGaussStimulus2D.html#a283b859099270f4c90ae2aef6fefb30b" target="_top" xlink:title="Initialize the element (called once before the simulation loop).">
<polygon fill="white" stroke="#666666" points="337,-84 176,-84 176,-54 337,-54 337,-84"/>
<text text-anchor="start" x="184" y="-72" font-family="Helvetica,sans-Serif" font-size="10.00">dnf_composer::element</text>
<text text-anchor="middle" x="256.5" y="-61" font-family="Helvetica,sans-Serif" font-size="10.00">::TimedGaussStimulus2D::init</text>
</a>
</g>
</g>
<!-- Node1&#45;&gt;Node2 -->
<g id="edge1_Node000001_Node000002" class="edge">
<title>Node1&#45;&gt;Node2</title>
<g id="a_edge1_Node000001_Node000002"><a xlink:title=" ">
<path fill="none" stroke="#63b8ff" d="M140.23,-69C148.6,-69 157.25,-69 165.87,-69"/>
<polygon fill="#63b8ff" stroke="#63b8ff" points="165.96,-72.5 175.96,-69 165.96,-65.5 165.96,-72.5"/>
</a>
</g>
</g>
<!-- Node3 -->
<g id="Node000003" class="node">
<title>Node3</title>
<g id="a_Node000003"><a xlink:href="namespacednf__composer_1_1tools_1_1math.html#a6df4f4bcf6f94d0571317a3a0a780bf6" target="_top" xlink:title=" ">
<polygon fill="white" stroke="#666666" points="505.5,-138 389.5,-138 389.5,-108 505.5,-108 505.5,-138"/>
<text text-anchor="start" x="397.5" y="-126" font-family="Helvetica,sans-Serif" font-size="10.00">dnf_composer::tools</text>
<text text-anchor="middle" x="447.5" y="-115" font-family="Helvetica,sans-Serif" font-size="10.00">::math::gaussian_2d</text>
</a>
</g>
</g>
<!-- Node2&#45;&gt;Node3 -->
<g id="edge2_Node000002_Node000003" class="edge">
<title>Node2&#45;&gt;Node3</title>
<g id="a_edge2_Node000002_Node000003"><a xlink:title=" ">
<path fill="none" stroke="#63b8ff" d="M310.15,-84.04C333.09,-90.6 360.16,-98.33 384.11,-105.17"/>
<polygon fill="#63b8ff" stroke="#63b8ff" points="383.23,-108.56 393.81,-107.95 385.15,-101.83 383.23,-108.56"/>
</a>
</g>
</g>
<!-- Node4 -->
<g id="Node000004" class="node">
<title>Node4</title>
<g id="a_Node000004"><a xlink:href="namespacednf__composer_1_1tools_1_1math.html#a9b2573978f59b8476c092b5051880f48" target="_top" xlink:title=" ">
<polygon fill="white" stroke="#666666" points="505.5,-89.5 389.5,-89.5 389.5,-48.5 505.5,-48.5 505.5,-89.5"/>
<text text-anchor="start" x="397.5" y="-77.5" font-family="Helvetica,sans-Serif" font-size="10.00">dnf_composer::tools</text>
<text text-anchor="start" x="397.5" y="-66.5" font-family="Helvetica,sans-Serif" font-size="10.00">::math::gaussian_2d</text>
<text text-anchor="middle" x="447.5" y="-55.5" font-family="Helvetica,sans-Serif" font-size="10.00">_periodic</text>
</a>
</g>
</g>
<!-- Node2&#45;&gt;Node4 -->
<g id="edge3_Node000002_Node000004" class="edge">
<title>Node2&#45;&gt;Node4</title>
<g id="a_edge3_Node000002_Node000004"><a xlink:title=" ">
<path fill="none" stroke="#63b8ff" d="M337.11,-69C351.09,-69 365.53,-69 379.14,-69"/>
<polygon fill="#63b8ff" stroke="#63b8ff" points="379.37,-72.5 389.37,-69 379.37,-65.5 379.37,-72.5"/>
</a>
</g>
</g>
<!-- Node5 -->
<g id="Node000005" class="node">
<title>Node5</title>
<g id="a_Node000005"><a xlink:href="classdnf__composer_1_1element_1_1Element.html#a03cc479b5f360d8e7f679d4ecdad8944" target="_top" xlink:title=" ">
<polygon fill="white" stroke="#666666" points="522,-30 373,-30 373,0 522,0 522,-30"/>
<text text-anchor="start" x="381" y="-18" font-family="Helvetica,sans-Serif" font-size="10.00">dnf_composer::element</text>
<text text-anchor="middle" x="447.5" y="-7" font-family="Helvetica,sans-Serif" font-size="10.00">::Element::getUniqueName</text>
</a>
</g>
</g>
<!-- Node2&#45;&gt;Node5 -->
<g id="edge4_Node000002_Node000005" class="edge">
<title>Node2&#45;&gt;Node5</title>
<g id="a_edge4_Node000002_Node000005"><a xlink:title=" ">
<path fill="none" stroke="#63b8ff" d="M310.15,-53.96C333.09,-47.4 360.16,-39.67 384.11,-32.83"/>
<polygon fill="#63b8ff" stroke="#63b8ff" points="385.15,-36.17 393.81,-30.05 383.23,-29.44 385.15,-36.17"/>
</a>
</g>
</g>
</g>
</svg>
