<?xml version="1.0" encoding="UTF-8" standalone="no"?>
<!DOCTYPE svg PUBLIC "-//W3C//DTD SVG 1.1//EN"
 "http://www.w3.org/Graphics/SVG/1.1/DTD/svg11.dtd">
<!-- Generated by graphviz version 2.43.0 (0)
 -->
<!-- Title: dnf_composer::element::GaussFieldCoupling::setParameters Pages: 1 -->
<svg width="468pt" height="98pt"
 viewBox="0.00 0.00 468.00 97.50" xmlns="http://www.w3.org/2000/svg" xmlns:xlink="http://www.w3.org/1999/xlink">
<g id="graph0" class="graph" transform="scale(1 1) rotate(0) translate(4 93.5)">
<title>dnf_composer::element::GaussFieldCoupling::setParameters</title>
<!-- Node1 -->
<g id="Node000001" class="node">
<title>Node1</title>
<g id="a_Node000001"><a xlink:title=" ">
<polygon fill="#999999" stroke="#666666" points="132,-68 0,-68 0,-27 132,-27 132,-68"/>
<text text-anchor="start" x="8" y="-56" font-family="Helvetica,sans-Serif" font-size="10.00">dnf_composer::element</text>
<text text-anchor="start" x="8" y="-45" font-family="Helvetica,sans-Serif" font-size="10.00">::GaussFieldCoupling</text>
<text text-anchor="middle" x="66" y="-34" font-family="Helvetica,sans-Serif" font-size="10.00">::setParameters</text>
</a>
</g>
</g>
<!-- Node2 -->
<g id="Node000002" class="node">
<title>Node2</title>
<g id="a_Node000002"><a xlink:href="classdnf__composer_1_1element_1_1GaussFieldCoupling.html#af9329fd9e8be90a4177c5c1769b52864" target="_top" xlink:title="Initialize the element (called once before the simulation loop).">
<polygon fill="white" stroke="#666666" points="308,-62.5 168,-62.5 168,-32.5 308,-32.5 308,-62.5"/>
<text text-anchor="start" x="176" y="-50.5" font-family="Helvetica,sans-Serif" font-size="10.00">dnf_composer::element</text>
<text text-anchor="middle" x="238" y="-39.5" font-family="Helvetica,sans-Serif" font-size="10.00">::GaussFieldCoupling::init</text>
</a>
</g>
</g>
<!-- Node1&#45;&gt;Node2 -->
<g id="edge1_Node000001_Node000002" class="edge">
<title>Node1&#45;&gt;Node2</title>
<g id="a_edge1_Node000001_Node000002"><a xlink:title=" ">
<path fill="none" stroke="#63b8ff" d="M132.24,-47.5C140.65,-47.5 149.34,-47.5 157.94,-47.5"/>
<polygon fill="#63b8ff" stroke="#63b8ff" points="157.98,-51 167.98,-47.5 157.98,-44 157.98,-51"/>
</a>
</g>
</g>
<!-- Node3 -->
<g id="Node000003" class="node">
<title>Node3</title>
<g id="a_Node000003"><a xlink:href="namespacednf__composer_1_1tools_1_1math.html#a6df4f4bcf6f94d0571317a3a0a780bf6" target="_top" xlink:title=" ">
<polygon fill="white" stroke="#666666" points="460,-89.5 344,-89.5 344,-59.5 460,-59.5 460,-89.5"/>
<text text-anchor="start" x="352" y="-77.5" font-family="Helvetica,sans-Serif" font-size="10.00">dnf_composer::tools</text>
<text text-anchor="middle" x="402" y="-66.5" font-family="Helvetica,sans-Serif" font-size="10.00">::math::gaussian_2d</text>
</a>
</g>
</g>
<!-- Node2&#45;&gt;Node3 -->
<g id="edge2_Node000002_Node000003" class="edge">
<title>Node2&#45;&gt;Node3</title>
<g id="a_edge2_Node000002_Node000003"><a xlink:title=" ">
<path fill="none" stroke="#63b8ff" d="M308.17,-59.03C316.61,-60.43 325.22,-61.87 333.63,-63.27"/>
<polygon fill="#63b8ff" stroke="#63b8ff" points="333.33,-66.77 343.77,-64.96 334.48,-59.86 333.33,-66.77"/>
</a>
</g>
</g>
<!-- Node4 -->
<g id="Node000004" class="node">
<title>Node4</title>
<g id="a_Node000004"><a xlink:href="namespacednf__composer_1_1tools_1_1math.html#a9b2573978f59b8476c092b5051880f48" target="_top" xlink:title=" ">
<polygon fill="white" stroke="#666666" points="460,-41 344,-41 344,0 460,0 460,-41"/>
<text text-anchor="start" x="352" y="-29" font-family="Helvetica,sans-Serif" font-size="10.00">dnf_composer::tools</text>
<text text-anchor="start" x="352" y="-18" font-family="Helvetica,sans-Serif" font-size="10.00">::math::gaussian_2d</text>
<text text-anchor="middle" x="402" y="-7" font-family="Helvetica,sans-Serif" font-size="10.00">_periodic</text>
</a>
</g>
</g>
<!-- Node2&#45;&gt;Node4 -->
<g id="edge3_Node000002_Node000004" class="edge">
<title>Node2&#45;&gt;Node4</title>
<g id="a_edge3_Node000002_Node000004"><a xlink:title=" ">
<path fill="none" stroke="#63b8ff" d="M308.17,-35.97C316.61,-34.57 325.22,-33.13 333.63,-31.73"/>
<polygon fill="#63b8ff" stroke="#63b8ff" points="334.48,-35.14 343.77,-30.04 333.33,-28.23 334.48,-35.14"/>
</a>
</g>
</g>
</g>
</svg>
