<?xml version="1.0" encoding="UTF-8" standalone="no"?>
<!DOCTYPE svg PUBLIC "-//W3C//DTD SVG 1.1//EN"
 "http://www.w3.org/Graphics/SVG/1.1/DTD/svg11.dtd">
<!-- Generated by graphviz version 2.43.0 (0)
 -->
<!-- Title: dnf_composer::element::AsymmetricGaussKernel::step Pages: 1 -->
<svg width="575pt" height="230pt"
 viewBox="0.00 0.00 575.00 230.00" xmlns="http://www.w3.org/2000/svg" xmlns:xlink="http://www.w3.org/1999/xlink">
<g id="graph0" class="graph" transform="scale(1 1) rotate(0) translate(4 226)">
<title>dnf_composer::element::AsymmetricGaussKernel::step</title>
<!-- Node1 -->
<g id="Node000001" class="node">
<title>Node1</title>
<g id="a_Node000001"><a xlink:title="Advance the element by one time step.">
<polygon fill="#999999" stroke="#666666" points="170,-126 0,-126 0,-96 170,-96 170,-126"/>
<text text-anchor="start" x="8" y="-114" font-family="Helvetica,sans-Serif" font-size="10.00">dnf_composer::element</text>
<text text-anchor="middle" x="85" y="-103" font-family="Helvetica,sans-Serif" font-size="10.00">::AsymmetricGaussKernel::step</text>
</a>
</g>
</g>
<!-- Node2 -->
<g id="Node000002" class="node">
<title>Node2</title>
<g id="a_Node000002"><a xlink:href="namespacednf__composer_1_1tools_1_1math.html#acaa6baa4408e4f22fdc63b4e0c86a21e" target="_top" xlink:title=" ">
<polygon fill="white" stroke="#666666" points="361.5,-222 227.5,-222 227.5,-192 361.5,-192 361.5,-222"/>
<text text-anchor="start" x="235.5" y="-210" font-family="Helvetica,sans-Serif" font-size="10.00">dnf_composer::tools</text>
<text text-anchor="middle" x="294.5" y="-199" font-family="Helvetica,sans-Serif" font-size="10.00">::math::conv_same_into</text>
</a>
</g>
</g>
<!-- Node1&#45;&gt;Node2 -->
<g id="edge1_Node000001_Node000002" class="edge">
<title>Node1&#45;&gt;Node2</title>
<g id="a_edge1_Node000001_Node000002"><a xlink:title=" ">
<path fill="none" stroke="#63b8ff" d="M107.16,-126.14C130.42,-142.19 169.36,-167.33 206,-183 210.77,-185.04 215.75,-186.95 220.82,-188.73"/>
<polygon fill="#63b8ff" stroke="#63b8ff" points="220.05,-192.16 230.65,-192 222.26,-185.52 220.05,-192.16"/>
</a>
</g>
</g>
<!-- Node3 -->
<g id="Node000003" class="node">
<title>Node3</title>
<g id="a_Node000003"><a xlink:href="namespacednf__composer_1_1tools_1_1math.html#ad862439d033f9f7a74671d9fd5916e6d" target="_top" xlink:title=" ">
<polygon fill="white" stroke="#666666" points="360,-174 229,-174 229,-144 360,-144 360,-174"/>
<text text-anchor="start" x="237" y="-162" font-family="Helvetica,sans-Serif" font-size="10.00">dnf_composer::tools</text>
<text text-anchor="middle" x="294.5" y="-151" font-family="Helvetica,sans-Serif" font-size="10.00">::math::conv_valid_into</text>
</a>
</g>
</g>
<!-- Node1&#45;&gt;Node3 -->
<g id="edge2_Node000001_Node000003" class="edge">
<title>Node1&#45;&gt;Node3</title>
<g id="a_edge2_Node000001_Node000003"><a xlink:title=" ">
<path fill="none" stroke="#63b8ff" d="M151.08,-126.06C172.52,-131.01 196.53,-136.57 218.64,-141.68"/>
<polygon fill="#63b8ff" stroke="#63b8ff" points="218.11,-145.15 228.65,-144 219.69,-138.33 218.11,-145.15"/>
</a>
</g>
</g>
<!-- Node4 -->
<g id="Node000004" class="node">
<title>Node4</title>
<g id="a_Node000004"><a xlink:href="namespacednf__composer_1_1tools_1_1math.html#aec1f39db13636109a1de5b032117e7ad" target="_top" xlink:title=" ">
<polygon fill="white" stroke="#666666" points="383,-126 206,-126 206,-96 383,-96 383,-126"/>
<text text-anchor="start" x="214" y="-114" font-family="Helvetica,sans-Serif" font-size="10.00">dnf_composer::tools</text>
<text text-anchor="middle" x="294.5" y="-103" font-family="Helvetica,sans-Serif" font-size="10.00">::math::obtainCircularVector_into</text>
</a>
</g>
</g>
<!-- Node1&#45;&gt;Node4 -->
<g id="edge3_Node000001_Node000004" class="edge">
<title>Node1&#45;&gt;Node4</title>
<g id="a_edge3_Node000001_Node000004"><a xlink:title=" ">
<path fill="none" stroke="#63b8ff" d="M170.1,-111C178.58,-111 187.24,-111 195.84,-111"/>
<polygon fill="#63b8ff" stroke="#63b8ff" points="195.9,-114.5 205.9,-111 195.9,-107.5 195.9,-114.5"/>
</a>
</g>
</g>
<!-- Node5 -->
<g id="Node000005" class="node">
<title>Node5</title>
<g id="a_Node000005"><a xlink:href="namespacednf__composer_1_1tools_1_1math.html#ae470bf545f26f68babb6ce2731349b52" target="_top" xlink:title=" ">
<polygon fill="white" stroke="#666666" points="354,-78 235,-78 235,-48 354,-48 354,-78"/>
<text text-anchor="start" x="243" y="-66" font-family="Helvetica,sans-Serif" font-size="10.00">dnf_composer::tools</text>
<text text-anchor="middle" x="294.5" y="-55" font-family="Helvetica,sans-Serif" font-size="10.00">::math::resampleInto</text>
</a>
</g>
</g>
<!-- Node1&#45;&gt;Node5 -->
<g id="edge4_Node000001_Node000005" class="edge">
<title>Node1&#45;&gt;Node5</title>
<g id="a_edge4_Node000001_Node000005"><a xlink:title=" ">
<path fill="none" stroke="#63b8ff" d="M151.08,-95.94C174.59,-90.51 201.18,-84.36 224.97,-78.85"/>
<polygon fill="#63b8ff" stroke="#63b8ff" points="226.02,-82.2 234.98,-76.54 224.45,-75.38 226.02,-82.2"/>
</a>
</g>
</g>
<!-- Node6 -->
<g id="Node000006" class="node">
<title>Node6</title>
<g id="a_Node000006"><a xlink:href="classdnf__composer_1_1element_1_1Element.html#a87401af54d46e1cf99d2755d3fce0a9a" target="_top" xlink:title="Pull data from all registered input elements into this element&#39;s components.">
<polygon fill="white" stroke="#666666" points="360.5,-30 228.5,-30 228.5,0 360.5,0 360.5,-30"/>
<text text-anchor="start" x="236.5" y="-18" font-family="Helvetica,sans-Serif" font-size="10.00">dnf_composer::element</text>
<text text-anchor="middle" x="294.5" y="-7" font-family="Helvetica,sans-Serif" font-size="10.00">::Element::updateInput</text>
</a>
</g>
</g>
<!-- Node1&#45;&gt;Node6 -->
<g id="edge5_Node000001_Node000006" class="edge">
<title>Node1&#45;&gt;Node6</title>
<g id="a_edge5_Node000001_Node000006"><a xlink:title=" ">
<path fill="none" stroke="#63b8ff" d="M107.16,-95.86C130.42,-79.81 169.36,-54.67 206,-39 210.77,-36.96 215.75,-35.05 220.82,-33.27"/>
<polygon fill="#63b8ff" stroke="#63b8ff" points="222.26,-36.48 230.65,-30 220.05,-29.84 222.26,-36.48"/>
</a>
</g>
</g>
<!-- Node7 -->
<g id="Node000007" class="node">
<title>Node7</title>
<g id="a_Node000007"><a xlink:href="classdnf__composer_1_1element_1_1Element.html#a48e4fcaeda8316d79dfaa8de41cec87e" target="_top" xlink:title="Cache raw pointers to input component data. Call after all element init()s complete.">
<polygon fill="white" stroke="#666666" points="567,-30 419,-30 419,0 567,0 567,-30"/>
<text text-anchor="start" x="427" y="-18" font-family="Helvetica,sans-Serif" font-size="10.00">dnf_composer::element</text>
<text text-anchor="middle" x="493" y="-7" font-family="Helvetica,sans-Serif" font-size="10.00">::Element::buildInputCache</text>
</a>
</g>
</g>
<!-- Node6&#45;&gt;Node7 -->
<g id="edge6_Node000006_Node000007" class="edge">
<title>Node6&#45;&gt;Node7</title>
<g id="a_edge6_Node000006_Node000007"><a xlink:title=" ">
<path fill="none" stroke="#63b8ff" d="M360.66,-15C375.96,-15 392.48,-15 408.47,-15"/>
<polygon fill="#63b8ff" stroke="#63b8ff" points="408.88,-18.5 418.88,-15 408.88,-11.5 408.88,-18.5"/>
</a>
</g>
</g>
</g>
</svg>
