<?xml version="1.0" encoding="UTF-8" standalone="no"?>
<!DOCTYPE svg PUBLIC "-//W3C//DTD SVG 1.1//EN"
 "http://www.w3.org/Graphics/SVG/1.1/DTD/svg11.dtd">
<!-- Generated by graphviz version 2.43.0 (0)
 -->
<!-- Title: dnf_composer::Simulation::getElement Pages: 1 -->
<svg width="332pt" height="278pt"
 viewBox="0.00 0.00 332.00 278.00" xmlns="http://www.w3.org/2000/svg" xmlns:xlink="http://www.w3.org/1999/xlink">
<g id="graph0" class="graph" transform="scale(1 1) rotate(0) translate(4 274)">
<title>dnf_composer::Simulation::getElement</title>
<!-- Node1 -->
<g id="Node000001" class="node">
<title>Node1</title>
<g id="a_Node000001"><a xlink:title="Retrieve an element by its unique name. Throws if not found.">
<polygon fill="#999999" stroke="#666666" points="324,-150 180,-150 180,-120 324,-120 324,-150"/>
<text text-anchor="start" x="188" y="-138" font-family="Helvetica,sans-Serif" font-size="10.00">dnf_composer::Simulation</text>
<text text-anchor="middle" x="252" y="-127" font-family="Helvetica,sans-Serif" font-size="10.00">::getElement</text>
</a>
</g>
</g>
<!-- Node2 -->
<g id="Node000002" class="node">
<title>Node2</title>
<g id="a_Node000002"><a xlink:href="classdnf__composer_1_1Simulation.html#a25e8c5e2e105b2a3cf853d21824e33c0" target="_top" xlink:title="Disconnect all connections from elementId and resize it to newDimensions.">
<polygon fill="white" stroke="#666666" points="144,-270 0,-270 0,-240 144,-240 144,-270"/>
<text text-anchor="start" x="8" y="-258" font-family="Helvetica,sans-Serif" font-size="10.00">dnf_composer::Simulation</text>
<text text-anchor="middle" x="72" y="-247" font-family="Helvetica,sans-Serif" font-size="10.00">::changeDimensions</text>
</a>
</g>
</g>
<!-- Node1&#45;&gt;Node2 -->
<g id="edge1_Node000001_Node000002" class="edge">
<title>Node1&#45;&gt;Node2</title>
<g id="a_edge1_Node000001_Node000002"><a xlink:title=" ">
<path fill="none" stroke="#63b8ff" d="M231.14,-157.47C211.05,-178.99 178.16,-211.05 144,-231 138.27,-234.35 132,-237.31 125.65,-239.92"/>
<polygon fill="#63b8ff" stroke="#63b8ff" points="233.75,-159.8 237.94,-150.07 228.6,-155.07 233.75,-159.8"/>
</a>
</g>
</g>
<!-- Node3 -->
<g id="Node000003" class="node">
<title>Node3</title>
<g id="a_Node000003"><a xlink:href="classdnf__composer_1_1Simulation.html#af2cbdd9d53809ca631ccb66c2fe615f0" target="_top" xlink:title=" ">
<polygon fill="white" stroke="#666666" points="144,-222 0,-222 0,-192 144,-192 144,-222"/>
<text text-anchor="start" x="8" y="-210" font-family="Helvetica,sans-Serif" font-size="10.00">dnf_composer::Simulation</text>
<text text-anchor="middle" x="72" y="-199" font-family="Helvetica,sans-Serif" font-size="10.00">::componentExists</text>
</a>
</g>
</g>
<!-- Node1&#45;&gt;Node3 -->
<g id="edge2_Node000001_Node000003" class="edge">
<title>Node1&#45;&gt;Node3</title>
<g id="a_edge2_Node000001_Node000003"><a xlink:title=" ">
<path fill="none" stroke="#63b8ff" d="M210.17,-154.42C190.38,-163.55 166.15,-174.31 144,-183 136.25,-186.04 127.93,-189.06 119.82,-191.88"/>
<polygon fill="#63b8ff" stroke="#63b8ff" points="211.91,-157.47 219.5,-150.09 208.96,-151.13 211.91,-157.47"/>
</a>
</g>
</g>
<!-- Node4 -->
<g id="Node000004" class="node">
<title>Node4</title>
<g id="a_Node000004"><a xlink:href="classdnf__composer_1_1Simulation.html#acb26d62a62480a829e32e693cd89b99c" target="_top" xlink:title="Wire stimulusElementId&#39;s stimulusComponent as input to receivingElementId.">
<polygon fill="white" stroke="#666666" points="144,-174 0,-174 0,-144 144,-144 144,-174"/>
<text text-anchor="start" x="8" y="-162" font-family="Helvetica,sans-Serif" font-size="10.00">dnf_composer::Simulation</text>
<text text-anchor="middle" x="72" y="-151" font-family="Helvetica,sans-Serif" font-size="10.00">::createInteraction</text>
</a>
</g>
</g>
<!-- Node1&#45;&gt;Node4 -->
<g id="edge3_Node000001_Node000004" class="edge">
<title>Node1&#45;&gt;Node4</title>
<g id="a_edge3_Node000001_Node000004"><a xlink:title=" ">
<path fill="none" stroke="#63b8ff" d="M169.83,-145.94C161.21,-147.11 152.49,-148.28 144,-149.43"/>
<polygon fill="#63b8ff" stroke="#63b8ff" points="170.44,-149.39 179.88,-144.59 169.5,-142.46 170.44,-149.39"/>
</a>
</g>
</g>
<!-- Node5 -->
<g id="Node000005" class="node">
<title>Node5</title>
<g id="a_Node000005"><a xlink:href="classdnf__composer_1_1Simulation.html#ab793cd0a18d45717e78440e4eada4dc2" target="_top" xlink:title="Write the named component to a CSV file in the output directory.">
<polygon fill="white" stroke="#666666" points="144,-126 0,-126 0,-96 144,-96 144,-126"/>
<text text-anchor="start" x="8" y="-114" font-family="Helvetica,sans-Serif" font-size="10.00">dnf_composer::Simulation</text>
<text text-anchor="middle" x="72" y="-103" font-family="Helvetica,sans-Serif" font-size="10.00">::exportComponentToFile</text>
</a>
</g>
</g>
<!-- Node1&#45;&gt;Node5 -->
<g id="edge4_Node000001_Node000005" class="edge">
<title>Node1&#45;&gt;Node5</title>
<g id="a_edge4_Node000001_Node000005"><a xlink:title=" ">
<path fill="none" stroke="#63b8ff" d="M169.83,-124.06C161.21,-122.89 152.49,-121.72 144,-120.57"/>
<polygon fill="#63b8ff" stroke="#63b8ff" points="169.5,-127.54 179.88,-125.41 170.44,-120.61 169.5,-127.54"/>
</a>
</g>
</g>
<!-- Node6 -->
<g id="Node000006" class="node">
<title>Node6</title>
<g id="a_Node000006"><a xlink:href="classdnf__composer_1_1Simulation.html#a6670671e5363dcd90296fac622a94b73" target="_top" xlink:title=" ">
<polygon fill="white" stroke="#666666" points="144,-78 0,-78 0,-48 144,-48 144,-78"/>
<text text-anchor="start" x="8" y="-66" font-family="Helvetica,sans-Serif" font-size="10.00">dnf_composer::Simulation</text>
<text text-anchor="middle" x="72" y="-55" font-family="Helvetica,sans-Serif" font-size="10.00">::getComponent</text>
</a>
</g>
</g>
<!-- Node1&#45;&gt;Node6 -->
<g id="edge5_Node000001_Node000006" class="edge">
<title>Node1&#45;&gt;Node6</title>
<g id="a_edge5_Node000001_Node000006"><a xlink:title=" ">
<path fill="none" stroke="#63b8ff" d="M210.17,-115.58C190.38,-106.45 166.15,-95.69 144,-87 136.25,-83.96 127.93,-80.94 119.82,-78.12"/>
<polygon fill="#63b8ff" stroke="#63b8ff" points="208.96,-118.87 219.5,-119.91 211.91,-112.53 208.96,-118.87"/>
</a>
</g>
</g>
<!-- Node7 -->
<g id="Node000007" class="node">
<title>Node7</title>
<g id="a_Node000007"><a xlink:href="classdnf__composer_1_1Simulation.html#a2ab758857ee20d0aafc7b8bf25930135" target="_top" xlink:title=" ">
<polygon fill="white" stroke="#666666" points="144,-30 0,-30 0,0 144,0 144,-30"/>
<text text-anchor="start" x="8" y="-18" font-family="Helvetica,sans-Serif" font-size="10.00">dnf_composer::Simulation</text>
<text text-anchor="middle" x="72" y="-7" font-family="Helvetica,sans-Serif" font-size="10.00">::getComponentPtr</text>
</a>
</g>
</g>
<!-- Node1&#45;&gt;Node7 -->
<g id="edge6_Node000001_Node000007" class="edge">
<title>Node1&#45;&gt;Node7</title>
<g id="a_edge6_Node000001_Node000007"><a xlink:title=" ">
<path fill="none" stroke="#63b8ff" d="M231.14,-112.53C211.05,-91.01 178.16,-58.95 144,-39 138.27,-35.65 132,-32.69 125.65,-30.08"/>
<polygon fill="#63b8ff" stroke="#63b8ff" points="228.6,-114.93 237.94,-119.93 233.75,-110.2 228.6,-114.93"/>
</a>
</g>
</g>
</g>
</svg>
