<?xml version="1.0" encoding="UTF-8" standalone="no"?>
<!DOCTYPE svg PUBLIC "-//W3C//DTD SVG 1.1//EN"
 "http://www.w3.org/Graphics/SVG/1.1/DTD/svg11.dtd">
<!-- Generated by graphviz version 2.43.0 (0)
 -->
<!-- Title: dnf_composer::element::AsymmetricGaussKernel::step Pages: 1 -->
<svg width="885pt" height="205pt"
 viewBox="0.00 0.00 885.00 204.50" xmlns="http://www.w3.org/2000/svg" xmlns:xlink="http://www.w3.org/1999/xlink">
<g id="graph0" class="graph" transform="scale(1 1) rotate(0) translate(4 200.5)">
<title>dnf_composer::element::AsymmetricGaussKernel::step</title>
<!-- Node1 -->
<g id="Node000001" class="node">
<title>Node1</title>
<g id="a_Node000001"><a xlink:title="Advance the element by one time step.">
<polygon fill="#999999" stroke="#666666" points="170,-103 0,-103 0,-73 170,-73 170,-103"/>
<text text-anchor="start" x="8" y="-91" font-family="Helvetica,sans-Serif" font-size="10.00">dnf_composer::element</text>
<text text-anchor="middle" x="85" y="-80" font-family="Helvetica,sans-Serif" font-size="10.00">::AsymmetricGaussKernel::step</text>
</a>
</g>
</g>
<!-- Node2 -->
<g id="Node000002" class="node">
<title>Node2</title>
<g id="a_Node000002"><a xlink:href="namespacednf__composer_1_1tools_1_1math.html#acaa6baa4408e4f22fdc63b4e0c86a21e" target="_top" xlink:title=" ">
<polygon fill="white" stroke="#666666" points="361.5,-178 227.5,-178 227.5,-148 361.5,-148 361.5,-178"/>
<text text-anchor="start" x="235.5" y="-166" font-family="Helvetica,sans-Serif" font-size="10.00">dnf_composer::tools</text>
<text text-anchor="middle" x="294.5" y="-155" font-family="Helvetica,sans-Serif" font-size="10.00">::math::conv_same_into</text>
</a>
</g>
</g>
<!-- Node1&#45;&gt;Node2 -->
<g id="edge1_Node000001_Node000002" class="edge">
<title>Node1&#45;&gt;Node2</title>
<g id="a_edge1_Node000001_Node000002"><a xlink:title=" ">
<path fill="none" stroke="#63b8ff" d="M118.13,-103.05C142.04,-113.9 175.64,-128.44 206,-139 211.96,-141.07 218.19,-143.08 224.47,-145"/>
<polygon fill="#63b8ff" stroke="#63b8ff" points="223.75,-148.44 234.33,-147.93 225.75,-141.73 223.75,-148.44"/>
</a>
</g>
</g>
<!-- Node3 -->
<g id="Node000003" class="node">
<title>Node3</title>
<g id="a_Node000003"><a xlink:href="namespacednf__composer_1_1tools_1_1math.html#ad862439d033f9f7a74671d9fd5916e6d" target="_top" xlink:title=" ">
<polygon fill="white" stroke="#666666" points="360,-130 229,-130 229,-100 360,-100 360,-130"/>
<text text-anchor="start" x="237" y="-118" font-family="Helvetica,sans-Serif" font-size="10.00">dnf_composer::tools</text>
<text text-anchor="middle" x="294.5" y="-107" font-family="Helvetica,sans-Serif" font-size="10.00">::math::conv_valid_into</text>
</a>
</g>
</g>
<!-- Node1&#45;&gt;Node3 -->
<g id="edge2_Node000001_Node000003" class="edge">
<title>Node1&#45;&gt;Node3</title>
<g id="a_edge2_Node000001_Node000003"><a xlink:title=" ">
<path fill="none" stroke="#63b8ff" d="M170.1,-98.94C186.13,-101.03 202.82,-103.2 218.55,-105.25"/>
<polygon fill="#63b8ff" stroke="#63b8ff" points="218.36,-108.75 228.72,-106.57 219.26,-101.81 218.36,-108.75"/>
</a>
</g>
</g>
<!-- Node6 -->
<g id="Node000006" class="node">
<title>Node6</title>
<g id="a_Node000006"><a xlink:href="namespacednf__composer_1_1tools_1_1math.html#aec1f39db13636109a1de5b032117e7ad" target="_top" xlink:title="Gather contents at 1&#45;based indices into out (circular extension helper).">
<polygon fill="white" stroke="#666666" points="383,-79 206,-79 206,-49 383,-49 383,-79"/>
<text text-anchor="start" x="214" y="-67" font-family="Helvetica,sans-Serif" font-size="10.00">dnf_composer::tools</text>
<text text-anchor="middle" x="294.5" y="-56" font-family="Helvetica,sans-Serif" font-size="10.00">::math::obtainCircularVector_into</text>
</a>
</g>
</g>
<!-- Node1&#45;&gt;Node6 -->
<g id="edge5_Node000001_Node000006" class="edge">
<title>Node1&#45;&gt;Node6</title>
<g id="a_edge5_Node000001_Node000006"><a xlink:title=" ">
<path fill="none" stroke="#63b8ff" d="M170.1,-78.27C178.58,-77.29 187.24,-76.29 195.84,-75.3"/>
<polygon fill="#63b8ff" stroke="#63b8ff" points="196.37,-78.76 205.9,-74.13 195.57,-71.8 196.37,-78.76"/>
</a>
</g>
</g>
<!-- Node10 -->
<g id="Node000010" class="node">
<title>Node10</title>
<g id="a_Node000010"><a xlink:href="classdnf__composer_1_1element_1_1Element.html#a87401af54d46e1cf99d2755d3fce0a9a" target="_top" xlink:title="Pull data from all registered input elements into this element&#39;s components. Virtual so a subclass ca...">
<polygon fill="white" stroke="#666666" points="360.5,-31 228.5,-31 228.5,-1 360.5,-1 360.5,-31"/>
<text text-anchor="start" x="236.5" y="-19" font-family="Helvetica,sans-Serif" font-size="10.00">dnf_composer::element</text>
<text text-anchor="middle" x="294.5" y="-8" font-family="Helvetica,sans-Serif" font-size="10.00">::Element::updateInput</text>
</a>
</g>
</g>
<!-- Node1&#45;&gt;Node10 -->
<g id="edge9_Node000001_Node000010" class="edge">
<title>Node1&#45;&gt;Node10</title>
<g id="a_edge9_Node000001_Node000010"><a xlink:title=" ">
<path fill="none" stroke="#63b8ff" d="M120.53,-72.98C144.31,-62.94 176.75,-49.83 206,-40 212.08,-37.96 218.43,-35.96 224.82,-34.04"/>
<polygon fill="#63b8ff" stroke="#63b8ff" points="226.25,-37.27 234.86,-31.1 224.28,-30.55 226.25,-37.27"/>
</a>
</g>
</g>
<!-- Node4 -->
<g id="Node000004" class="node">
<title>Node4</title>
<g id="a_Node000004"><a xlink:href="namespacednf__composer_1_1tools_1_1math_1_1detail.html#ac8dc7ef3bad470af9e384c9aa8aae846" target="_top" xlink:title=" ">
<polygon fill="white" stroke="#666666" points="551,-196.5 435,-196.5 435,-155.5 551,-155.5 551,-196.5"/>
<text text-anchor="start" x="443" y="-184.5" font-family="Helvetica,sans-Serif" font-size="10.00">dnf_composer::tools</text>
<text text-anchor="start" x="443" y="-173.5" font-family="Helvetica,sans-Serif" font-size="10.00">::math::detail::avx2</text>
<text text-anchor="middle" x="493" y="-162.5" font-family="Helvetica,sans-Serif" font-size="10.00">_fma_available</text>
</a>
</g>
</g>
<!-- Node3&#45;&gt;Node4 -->
<g id="edge3_Node000003_Node000004" class="edge">
<title>Node3&#45;&gt;Node4</title>
<g id="a_edge3_Node000003_Node000004"><a xlink:title=" ">
<path fill="none" stroke="#63b8ff" d="M352.13,-130C362.43,-132.88 373.06,-135.95 383,-139 396.74,-143.21 411.36,-147.98 425.28,-152.65"/>
<polygon fill="#63b8ff" stroke="#63b8ff" points="424.2,-155.98 434.79,-155.87 426.44,-149.35 424.2,-155.98"/>
</a>
</g>
</g>
<!-- Node5 -->
<g id="Node000005" class="node">
<title>Node5</title>
<g id="a_Node000005"><a xlink:href="namespacednf__composer_1_1tools_1_1math_1_1detail.html#a7de913e60d3b646bcf05297d4aa7fb03" target="_top" xlink:title=" ">
<polygon fill="white" stroke="#666666" points="553,-137.5 433,-137.5 433,-96.5 553,-96.5 553,-137.5"/>
<text text-anchor="start" x="441" y="-125.5" font-family="Helvetica,sans-Serif" font-size="10.00">dnf_composer::tools</text>
<text text-anchor="start" x="441" y="-114.5" font-family="Helvetica,sans-Serif" font-size="10.00">::math::detail::conv</text>
<text text-anchor="middle" x="493" y="-103.5" font-family="Helvetica,sans-Serif" font-size="10.00">_valid_into_avx2_f64</text>
</a>
</g>
</g>
<!-- Node3&#45;&gt;Node5 -->
<g id="edge4_Node000003_Node000005" class="edge">
<title>Node3&#45;&gt;Node5</title>
<g id="a_edge4_Node000003_Node000005"><a xlink:title=" ">
<path fill="none" stroke="#63b8ff" d="M360.11,-115.66C380.21,-115.86 402.44,-116.09 422.83,-116.3"/>
<polygon fill="#63b8ff" stroke="#63b8ff" points="422.96,-119.8 432.99,-116.4 423.03,-112.8 422.96,-119.8"/>
</a>
</g>
</g>
<!-- Node7 -->
<g id="Node000007" class="node">
<title>Node7</title>
<g id="a_Node000007"><a xlink:href="namespacednf__composer_1_1tools_1_1logger.html#af64ef64b3026606a73972fdcae2ca87a" target="_top" xlink:title="Convenience free function: build a Logger and log message with it.">
<polygon fill="white" stroke="#666666" points="551,-78 435,-78 435,-48 551,-48 551,-78"/>
<text text-anchor="start" x="443" y="-66" font-family="Helvetica,sans-Serif" font-size="10.00">dnf_composer::tools</text>
<text text-anchor="middle" x="493" y="-55" font-family="Helvetica,sans-Serif" font-size="10.00">::logger::log</text>
</a>
</g>
</g>
<!-- Node6&#45;&gt;Node7 -->
<g id="edge6_Node000006_Node000007" class="edge">
<title>Node6&#45;&gt;Node7</title>
<g id="a_edge6_Node000006_Node000007"><a xlink:title=" ">
<path fill="none" stroke="#63b8ff" d="M383.12,-63.55C397.06,-63.48 411.3,-63.41 424.68,-63.34"/>
<polygon fill="#63b8ff" stroke="#63b8ff" points="424.75,-66.84 434.73,-63.29 424.71,-59.84 424.75,-66.84"/>
</a>
</g>
</g>
<!-- Node8 -->
<g id="Node000008" class="node">
<title>Node8</title>
<g id="a_Node000008"><a xlink:href="classdnf__composer_1_1tools_1_1logger_1_1Logger.html#afb1ee0f96356dacc5d6ff7bde232982b" target="_top" xlink:title="Emit message if this logger&#39;s configured level is at or above the global minimum level.">
<polygon fill="white" stroke="#666666" points="719,-78 603,-78 603,-48 719,-48 719,-78"/>
<text text-anchor="start" x="611" y="-66" font-family="Helvetica,sans-Serif" font-size="10.00">dnf_composer::tools</text>
<text text-anchor="middle" x="661" y="-55" font-family="Helvetica,sans-Serif" font-size="10.00">::logger::Logger::log</text>
</a>
</g>
</g>
<!-- Node7&#45;&gt;Node8 -->
<g id="edge7_Node000007_Node000008" class="edge">
<title>Node7&#45;&gt;Node8</title>
<g id="a_edge7_Node000007_Node000008"><a xlink:title=" ">
<path fill="none" stroke="#63b8ff" d="M551.13,-63C564.43,-63 578.72,-63 592.42,-63"/>
<polygon fill="#63b8ff" stroke="#63b8ff" points="592.77,-66.5 602.77,-63 592.77,-59.5 592.77,-66.5"/>
</a>
</g>
</g>
<!-- Node9 -->
<g id="Node000009" class="node">
<title>Node9</title>
<g id="a_Node000009"><a xlink:href="namespacednf__composer_1_1tools_1_1utils.html#a9b9ee760b745eb4a1dfabacac1c026d2" target="_top" xlink:title="Portable wrapper around the platform&#39;s thread&#45;safe localtime conversion.">
<polygon fill="white" stroke="#666666" points="877,-78 755,-78 755,-48 877,-48 877,-78"/>
<text text-anchor="start" x="763" y="-66" font-family="Helvetica,sans-Serif" font-size="10.00">dnf_composer::tools</text>
<text text-anchor="middle" x="816" y="-55" font-family="Helvetica,sans-Serif" font-size="10.00">::utils::safe_localtime</text>
</a>
</g>
</g>
<!-- Node8&#45;&gt;Node9 -->
<g id="edge8_Node000008_Node000009" class="edge">
<title>Node8&#45;&gt;Node9</title>
<g id="a_edge8_Node000008_Node000009"><a xlink:title=" ">
<path fill="none" stroke="#63b8ff" d="M719.41,-63C727.67,-63 736.24,-63 744.72,-63"/>
<polygon fill="#63b8ff" stroke="#63b8ff" points="744.97,-66.5 754.97,-63 744.97,-59.5 744.97,-66.5"/>
</a>
</g>
</g>
<!-- Node11 -->
<g id="Node000011" class="node">
<title>Node11</title>
<g id="a_Node000011"><a xlink:href="classdnf__composer_1_1element_1_1Element.html#a48e4fcaeda8316d79dfaa8de41cec87e" target="_top" xlink:title="Cache raw pointers to input component data. Call after all element init()s complete....">
<polygon fill="white" stroke="#666666" points="567,-30 419,-30 419,0 567,0 567,-30"/>
<text text-anchor="start" x="427" y="-18" font-family="Helvetica,sans-Serif" font-size="10.00">dnf_composer::element</text>
<text text-anchor="middle" x="493" y="-7" font-family="Helvetica,sans-Serif" font-size="10.00">::Element::buildInputCache</text>
</a>
</g>
</g>
<!-- Node10&#45;&gt;Node11 -->
<g id="edge10_Node000010_Node000011" class="edge">
<title>Node10&#45;&gt;Node11</title>
<g id="a_edge10_Node000010_Node000011"><a xlink:title=" ">
<path fill="none" stroke="#63b8ff" d="M360.66,-15.67C375.96,-15.59 392.48,-15.51 408.47,-15.43"/>
<polygon fill="#63b8ff" stroke="#63b8ff" points="408.89,-18.92 418.88,-15.37 408.86,-11.92 408.89,-18.92"/>
</a>
</g>
</g>
</g>
</svg>
