<?xml version="1.0" encoding="UTF-8" standalone="no"?>
<!DOCTYPE svg PUBLIC "-//W3C//DTD SVG 1.1//EN"
 "http://www.w3.org/Graphics/SVG/1.1/DTD/svg11.dtd">
<!-- Generated by graphviz version 2.43.0 (0)
 -->
<!-- Title: dnf_composer::element::GaussFieldCoupling::init Pages: 1 -->
<svg width="300pt" height="98pt"
 viewBox="0.00 0.00 300.00 97.50" xmlns="http://www.w3.org/2000/svg" xmlns:xlink="http://www.w3.org/1999/xlink">
<g id="graph0" class="graph" transform="scale(1 1) rotate(0) translate(4 93.5)">
<title>dnf_composer::element::GaussFieldCoupling::init</title>
<!-- Node1 -->
<g id="Node000001" class="node">
<title>Node1</title>
<g id="a_Node000001"><a xlink:title="Initialize the element (called once before the simulation loop).">
<polygon fill="#999999" stroke="#666666" points="140,-62.5 0,-62.5 0,-32.5 140,-32.5 140,-62.5"/>
<text text-anchor="start" x="8" y="-50.5" font-family="Helvetica,sans-Serif" font-size="10.00">dnf_composer::element</text>
<text text-anchor="middle" x="70" y="-39.5" font-family="Helvetica,sans-Serif" font-size="10.00">::GaussFieldCoupling::init</text>
</a>
</g>
</g>
<!-- Node2 -->
<g id="Node000002" class="node">
<title>Node2</title>
<g id="a_Node000002"><a xlink:href="namespacednf__composer_1_1tools_1_1math.html#a6df4f4bcf6f94d0571317a3a0a780bf6" target="_top" xlink:title=" ">
<polygon fill="white" stroke="#666666" points="292,-89.5 176,-89.5 176,-59.5 292,-59.5 292,-89.5"/>
<text text-anchor="start" x="184" y="-77.5" font-family="Helvetica,sans-Serif" font-size="10.00">dnf_composer::tools</text>
<text text-anchor="middle" x="234" y="-66.5" font-family="Helvetica,sans-Serif" font-size="10.00">::math::gaussian_2d</text>
</a>
</g>
</g>
<!-- Node1&#45;&gt;Node2 -->
<g id="edge1_Node000001_Node000002" class="edge">
<title>Node1&#45;&gt;Node2</title>
<g id="a_edge1_Node000001_Node000002"><a xlink:title=" ">
<path fill="none" stroke="#63b8ff" d="M140.17,-59.03C148.61,-60.43 157.22,-61.87 165.63,-63.27"/>
<polygon fill="#63b8ff" stroke="#63b8ff" points="165.33,-66.77 175.77,-64.96 166.48,-59.86 165.33,-66.77"/>
</a>
</g>
</g>
<!-- Node3 -->
<g id="Node000003" class="node">
<title>Node3</title>
<g id="a_Node000003"><a xlink:href="namespacednf__composer_1_1tools_1_1math.html#a9b2573978f59b8476c092b5051880f48" target="_top" xlink:title=" ">
<polygon fill="white" stroke="#666666" points="292,-41 176,-41 176,0 292,0 292,-41"/>
<text text-anchor="start" x="184" y="-29" font-family="Helvetica,sans-Serif" font-size="10.00">dnf_composer::tools</text>
<text text-anchor="start" x="184" y="-18" font-family="Helvetica,sans-Serif" font-size="10.00">::math::gaussian_2d</text>
<text text-anchor="middle" x="234" y="-7" font-family="Helvetica,sans-Serif" font-size="10.00">_periodic</text>
</a>
</g>
</g>
<!-- Node1&#45;&gt;Node3 -->
<g id="edge2_Node000001_Node000003" class="edge">
<title>Node1&#45;&gt;Node3</title>
<g id="a_edge2_Node000001_Node000003"><a xlink:title=" ">
<path fill="none" stroke="#63b8ff" d="M140.17,-35.97C148.61,-34.57 157.22,-33.13 165.63,-31.73"/>
<polygon fill="#63b8ff" stroke="#63b8ff" points="166.48,-35.14 175.77,-30.04 165.33,-28.23 166.48,-35.14"/>
</a>
</g>
</g>
</g>
</svg>
