<?xml version="1.0" encoding="UTF-8" standalone="no"?>
<!DOCTYPE svg PUBLIC "-//W3C//DTD SVG 1.1//EN"
 "http://www.w3.org/Graphics/SVG/1.1/DTD/svg11.dtd">
<!-- Generated by graphviz version 2.43.0 (0)
 -->
<!-- Title: dnf_composer::Heatmap Pages: 1 -->
<svg width="352pt" height="1011pt"
 viewBox="0.00 0.00 351.50 1011.00" xmlns="http://www.w3.org/2000/svg" xmlns:xlink="http://www.w3.org/1999/xlink">
<g id="graph0" class="graph" transform="scale(1 1) rotate(0) translate(4 1007)">
<title>dnf_composer::Heatmap</title>
<!-- Node1 -->
<g id="Node000001" class="node">
<title>Node1</title>
<g id="a_Node000001"><a xlink:title=" ">
<polygon fill="#999999" stroke="transparent" points="191.5,-124 60.5,-124 60.5,0 191.5,0 191.5,-124"/>
<text text-anchor="start" x="66" y="-112" font-family="Helvetica,sans-Serif" font-size="10.00">dnf_composer::Heatmap</text>
<text text-anchor="start" x="124.5" y="-97" font-family="Helvetica,sans-Serif" font-size="10.00"> </text>
<text text-anchor="start" x="68.5" y="-82" font-family="Helvetica,sans-Serif" font-size="10.00">+</text>
<text text-anchor="start" x="85" y="-82" font-family="Helvetica,sans-Serif" font-size="10.00">getScale()</text>
<text text-anchor="start" x="68.5" y="-67" font-family="Helvetica,sans-Serif" font-size="10.00">+</text>
<text text-anchor="start" x="85" y="-67" font-family="Helvetica,sans-Serif" font-size="10.00">Heatmap()</text>
<text text-anchor="start" x="68.5" y="-52" font-family="Helvetica,sans-Serif" font-size="10.00">+</text>
<text text-anchor="start" x="85" y="-52" font-family="Helvetica,sans-Serif" font-size="10.00">render()</text>
<text text-anchor="start" x="68.5" y="-37" font-family="Helvetica,sans-Serif" font-size="10.00">+</text>
<text text-anchor="start" x="85" y="-37" font-family="Helvetica,sans-Serif" font-size="10.00">setDimensionHint()</text>
<text text-anchor="start" x="68.5" y="-22" font-family="Helvetica,sans-Serif" font-size="10.00">+</text>
<text text-anchor="start" x="85" y="-22" font-family="Helvetica,sans-Serif" font-size="10.00">setScale()</text>
<text text-anchor="start" x="68.5" y="-7" font-family="Helvetica,sans-Serif" font-size="10.00">+</text>
<text text-anchor="start" x="85" y="-7" font-family="Helvetica,sans-Serif" font-size="10.00">toString()</text>
<polygon fill="#666666" stroke="#666666" points="61,-107 61,-107 192,-107 192,-107 61,-107"/>
<polygon fill="#666666" stroke="#666666" points="61,-92 61,-92 192,-92 192,-92 61,-92"/>
<polygon fill="none" stroke="#666666" points="60.5,0 60.5,-124 191.5,-124 191.5,0 60.5,0"/>
</a>
</g>
</g>
<!-- Node2 -->
<g id="Node000002" class="node">
<title>Node2</title>
<g id="a_Node000002"><a xlink:href="classdnf__composer_1_1Plot.html" target="_top" xlink:title="Abstract base class for all renderable plots.">
<polygon fill="white" stroke="transparent" points="194,-360 58,-360 58,-161 194,-161 194,-360"/>
<text text-anchor="start" x="79" y="-347.5" font-family="Helvetica,sans-Serif" font-size="10.00">dnf_composer::Plot</text>
<text text-anchor="start" x="62" y="-332.5" font-family="Helvetica,sans-Serif" font-size="10.00">#</text>
<text text-anchor="start" x="75" y="-332.5" font-family="Helvetica,sans-Serif" font-size="10.00">uniqueIdentifier</text>
<text text-anchor="start" x="62" y="-317.5" font-family="Helvetica,sans-Serif" font-size="10.00">#</text>
<text text-anchor="start" x="75" y="-317.5" font-family="Helvetica,sans-Serif" font-size="10.00">uniqueIdentifierCounter</text>
<text text-anchor="start" x="62" y="-302.5" font-family="Helvetica,sans-Serif" font-size="10.00">+</text>
<text text-anchor="start" x="75" y="-302.5" font-family="Helvetica,sans-Serif" font-size="10.00">getAnnotations()</text>
<text text-anchor="start" x="62" y="-287.5" font-family="Helvetica,sans-Serif" font-size="10.00">+</text>
<text text-anchor="start" x="75" y="-287.5" font-family="Helvetica,sans-Serif" font-size="10.00">getDimensions()</text>
<text text-anchor="start" x="62" y="-272.5" font-family="Helvetica,sans-Serif" font-size="10.00">+</text>
<text text-anchor="start" x="75" y="-272.5" font-family="Helvetica,sans-Serif" font-size="10.00">getType()</text>
<text text-anchor="start" x="62" y="-257.5" font-family="Helvetica,sans-Serif" font-size="10.00">+</text>
<text text-anchor="start" x="75" y="-257.5" font-family="Helvetica,sans-Serif" font-size="10.00">getUniqueIdentifier()</text>
<text text-anchor="start" x="62" y="-242.5" font-family="Helvetica,sans-Serif" font-size="10.00">+</text>
<text text-anchor="start" x="75" y="-242.5" font-family="Helvetica,sans-Serif" font-size="10.00">Plot()</text>
<text text-anchor="start" x="62" y="-227.5" font-family="Helvetica,sans-Serif" font-size="10.00">+</text>
<text text-anchor="start" x="75" y="-227.5" font-family="Helvetica,sans-Serif" font-size="10.00">render()</text>
<text text-anchor="start" x="62" y="-212.5" font-family="Helvetica,sans-Serif" font-size="10.00">+</text>
<text text-anchor="start" x="75" y="-212.5" font-family="Helvetica,sans-Serif" font-size="10.00">setAnnotations()</text>
<text text-anchor="start" x="62" y="-197.5" font-family="Helvetica,sans-Serif" font-size="10.00">+</text>
<text text-anchor="start" x="75" y="-197.5" font-family="Helvetica,sans-Serif" font-size="10.00">setDimensions()</text>
<text text-anchor="start" x="62" y="-182.5" font-family="Helvetica,sans-Serif" font-size="10.00">+</text>
<text text-anchor="start" x="75" y="-182.5" font-family="Helvetica,sans-Serif" font-size="10.00">toString()</text>
<text text-anchor="start" x="62" y="-167.5" font-family="Helvetica,sans-Serif" font-size="10.00">+</text>
<text text-anchor="start" x="75" y="-167.5" font-family="Helvetica,sans-Serif" font-size="10.00">~Plot()</text>
<polygon fill="#666666" stroke="#666666" points="58,-342.5 58,-342.5 194,-342.5 194,-342.5 58,-342.5"/>
<polygon fill="#666666" stroke="#666666" points="58,-312.5 58,-312.5 73,-312.5 73,-312.5 58,-312.5"/>
<polygon fill="#666666" stroke="#666666" points="73,-312.5 73,-312.5 194,-312.5 194,-312.5 73,-312.5"/>
<polygon fill="none" stroke="#666666" points="58,-161 58,-360 194,-360 194,-161 58,-161"/>
</a>
</g>
</g>
<!-- Node2&#45;&gt;Node1 -->
<g id="edge1_Node000001_Node000002" class="edge">
<title>Node2&#45;&gt;Node1</title>
<g id="a_edge1_Node000001_Node000002"><a xlink:title=" ">
<path fill="none" stroke="#63b8ff" d="M126,-150.69C126,-141.62 126,-132.68 126,-124.17"/>
<polygon fill="none" stroke="#63b8ff" points="122.5,-150.96 126,-160.96 129.5,-150.96 122.5,-150.96"/>
</a>
</g>
</g>
<!-- Node3 -->
<g id="Node000003" class="node">
<title>Node3</title>
<g id="a_Node000003"><a xlink:href="structdnf__composer_1_1PlotCommonParameters.html" target="_top" xlink:title=" ">
<polygon fill="white" stroke="transparent" points="200.5,-542 51.5,-542 51.5,-407 200.5,-407 200.5,-542"/>
<text text-anchor="start" x="57" y="-529.5" font-family="Helvetica,sans-Serif" font-size="10.00">dnf_composer::PlotCommon</text>
<text text-anchor="start" x="98.5" y="-518.5" font-family="Helvetica,sans-Serif" font-size="10.00">Parameters</text>
<text text-anchor="start" x="56" y="-503.5" font-family="Helvetica,sans-Serif" font-size="10.00">+</text>
<text text-anchor="start" x="69" y="-503.5" font-family="Helvetica,sans-Serif" font-size="10.00">type</text>
<text text-anchor="start" x="56" y="-488.5" font-family="Helvetica,sans-Serif" font-size="10.00">+</text>
<text text-anchor="start" x="69" y="-488.5" font-family="Helvetica,sans-Serif" font-size="10.00">operator==()</text>
<text text-anchor="start" x="56" y="-473.5" font-family="Helvetica,sans-Serif" font-size="10.00">+</text>
<text text-anchor="start" x="69" y="-473.5" font-family="Helvetica,sans-Serif" font-size="10.00">PlotCommonParameters()</text>
<text text-anchor="start" x="56" y="-458.5" font-family="Helvetica,sans-Serif" font-size="10.00">+</text>
<text text-anchor="start" x="69" y="-458.5" font-family="Helvetica,sans-Serif" font-size="10.00">PlotCommonParameters()</text>
<text text-anchor="start" x="56" y="-443.5" font-family="Helvetica,sans-Serif" font-size="10.00">+</text>
<text text-anchor="start" x="69" y="-443.5" font-family="Helvetica,sans-Serif" font-size="10.00">PlotCommonParameters()</text>
<text text-anchor="start" x="56" y="-428.5" font-family="Helvetica,sans-Serif" font-size="10.00">+</text>
<text text-anchor="start" x="69" y="-428.5" font-family="Helvetica,sans-Serif" font-size="10.00">PlotCommonParameters()</text>
<text text-anchor="start" x="56" y="-413.5" font-family="Helvetica,sans-Serif" font-size="10.00">+</text>
<text text-anchor="start" x="69" y="-413.5" font-family="Helvetica,sans-Serif" font-size="10.00">toString()</text>
<polygon fill="#666666" stroke="#666666" points="52,-513.5 52,-513.5 201,-513.5 201,-513.5 52,-513.5"/>
<polygon fill="#666666" stroke="#666666" points="52,-498.5 52,-498.5 67,-498.5 67,-498.5 52,-498.5"/>
<polygon fill="#666666" stroke="#666666" points="67,-498.5 67,-498.5 201,-498.5 201,-498.5 67,-498.5"/>
<polygon fill="none" stroke="#666666" points="51.5,-407 51.5,-542 200.5,-542 200.5,-407 51.5,-407"/>
</a>
</g>
</g>
<!-- Node3&#45;&gt;Node2 -->
<g id="edge2_Node000002_Node000003" class="edge">
<title>Node3&#45;&gt;Node2</title>
<g id="a_edge2_Node000002_Node000003"><a xlink:title=" ">
<path fill="none" stroke="#63b8ff" d="M126,-406.71C126,-395.72 126,-384.08 126,-372.36"/>
<polygon fill="none" stroke="#63b8ff" points="126,-372.13 122,-366.13 126,-360.13 130,-366.13 126,-372.13"/>
</a>
</g>
<text text-anchor="middle" x="181" y="-381" font-family="Helvetica,sans-Serif" font-size="10.00" fill="grey"> #commonParameters</text>
</g>
<!-- Node4 -->
<g id="Node000004" class="node">
<title>Node4</title>
<g id="a_Node000004"><a xlink:href="structdnf__composer_1_1PlotDimensions.html" target="_top" xlink:title=" ">
<polygon fill="white" stroke="transparent" points="162,-788 0,-788 0,-589 162,-589 162,-788"/>
<text text-anchor="start" x="5" y="-775.5" font-family="Helvetica,sans-Serif" font-size="10.00">dnf_composer::PlotDimensions</text>
<text text-anchor="start" x="18" y="-760.5" font-family="Helvetica,sans-Serif" font-size="10.00">+</text>
<text text-anchor="start" x="45" y="-760.5" font-family="Helvetica,sans-Serif" font-size="10.00">xMax</text>
<text text-anchor="start" x="18" y="-745.5" font-family="Helvetica,sans-Serif" font-size="10.00">+</text>
<text text-anchor="start" x="45" y="-745.5" font-family="Helvetica,sans-Serif" font-size="10.00">xMin</text>
<text text-anchor="start" x="18" y="-730.5" font-family="Helvetica,sans-Serif" font-size="10.00">+</text>
<text text-anchor="start" x="45" y="-730.5" font-family="Helvetica,sans-Serif" font-size="10.00">xStep</text>
<text text-anchor="start" x="18" y="-715.5" font-family="Helvetica,sans-Serif" font-size="10.00">+</text>
<text text-anchor="start" x="45" y="-715.5" font-family="Helvetica,sans-Serif" font-size="10.00">yMax</text>
<text text-anchor="start" x="18" y="-700.5" font-family="Helvetica,sans-Serif" font-size="10.00">+</text>
<text text-anchor="start" x="45" y="-700.5" font-family="Helvetica,sans-Serif" font-size="10.00">yMin</text>
<text text-anchor="start" x="18" y="-685.5" font-family="Helvetica,sans-Serif" font-size="10.00">+</text>
<text text-anchor="start" x="45" y="-685.5" font-family="Helvetica,sans-Serif" font-size="10.00">yStep</text>
<text text-anchor="start" x="18" y="-670.5" font-family="Helvetica,sans-Serif" font-size="10.00">+</text>
<text text-anchor="start" x="45" y="-670.5" font-family="Helvetica,sans-Serif" font-size="10.00">isLegal()</text>
<text text-anchor="start" x="18" y="-655.5" font-family="Helvetica,sans-Serif" font-size="10.00">+</text>
<text text-anchor="start" x="45" y="-655.5" font-family="Helvetica,sans-Serif" font-size="10.00">operator==()</text>
<text text-anchor="start" x="18" y="-640.5" font-family="Helvetica,sans-Serif" font-size="10.00">+</text>
<text text-anchor="start" x="45" y="-640.5" font-family="Helvetica,sans-Serif" font-size="10.00">PlotDimensions()</text>
<text text-anchor="start" x="18" y="-625.5" font-family="Helvetica,sans-Serif" font-size="10.00">+</text>
<text text-anchor="start" x="45" y="-625.5" font-family="Helvetica,sans-Serif" font-size="10.00">PlotDimensions()</text>
<text text-anchor="start" x="18" y="-610.5" font-family="Helvetica,sans-Serif" font-size="10.00">+</text>
<text text-anchor="start" x="45" y="-610.5" font-family="Helvetica,sans-Serif" font-size="10.00">PlotDimensions()</text>
<text text-anchor="start" x="18" y="-595.5" font-family="Helvetica,sans-Serif" font-size="10.00">+</text>
<text text-anchor="start" x="45" y="-595.5" font-family="Helvetica,sans-Serif" font-size="10.00">toString()</text>
<polygon fill="#666666" stroke="#666666" points="0,-770.5 0,-770.5 162,-770.5 162,-770.5 0,-770.5"/>
<polygon fill="#666666" stroke="#666666" points="0,-680.5 0,-680.5 43,-680.5 43,-680.5 0,-680.5"/>
<polygon fill="#666666" stroke="#666666" points="43,-680.5 43,-680.5 162,-680.5 162,-680.5 43,-680.5"/>
<polygon fill="none" stroke="#666666" points="0,-589 0,-788 162,-788 162,-589 0,-589"/>
</a>
</g>
</g>
<!-- Node4&#45;&gt;Node3 -->
<g id="edge3_Node000003_Node000004" class="edge">
<title>Node4&#45;&gt;Node3</title>
<g id="a_edge3_Node000003_Node000004"><a xlink:title=" ">
<path fill="none" stroke="#63b8ff" d="M101.92,-588.95C104.42,-577.15 106.95,-565.23 109.39,-553.77"/>
<polygon fill="none" stroke="#63b8ff" points="109.39,-553.77 106.72,-547.07 111.88,-542.03 114.55,-548.73 109.39,-553.77"/>
</a>
</g>
<text text-anchor="middle" x="142" y="-563" font-family="Helvetica,sans-Serif" font-size="10.00" fill="grey"> +dimensions</text>
</g>
<!-- Node5 -->
<g id="Node000005" class="node">
<title>Node5</title>
<g id="a_Node000005"><a xlink:href="structdnf__composer_1_1PlotAnnotations.html" target="_top" xlink:title=" ">
<polygon fill="white" stroke="transparent" points="343.5,-735.5 180.5,-735.5 180.5,-641.5 343.5,-641.5 343.5,-735.5"/>
<text text-anchor="start" x="186" y="-723.5" font-family="Helvetica,sans-Serif" font-size="10.00">dnf_composer::PlotAnnotations</text>
<text text-anchor="start" x="260.5" y="-708.5" font-family="Helvetica,sans-Serif" font-size="10.00"> </text>
<text text-anchor="start" x="199" y="-693.5" font-family="Helvetica,sans-Serif" font-size="10.00">+</text>
<text text-anchor="start" x="226" y="-693.5" font-family="Helvetica,sans-Serif" font-size="10.00">operator==()</text>
<text text-anchor="start" x="199" y="-678.5" font-family="Helvetica,sans-Serif" font-size="10.00">+</text>
<text text-anchor="start" x="226" y="-678.5" font-family="Helvetica,sans-Serif" font-size="10.00">PlotAnnotations()</text>
<text text-anchor="start" x="199" y="-663.5" font-family="Helvetica,sans-Serif" font-size="10.00">+</text>
<text text-anchor="start" x="226" y="-663.5" font-family="Helvetica,sans-Serif" font-size="10.00">PlotAnnotations()</text>
<text text-anchor="start" x="199" y="-648.5" font-family="Helvetica,sans-Serif" font-size="10.00">+</text>
<text text-anchor="start" x="226" y="-648.5" font-family="Helvetica,sans-Serif" font-size="10.00">toString()</text>
<polygon fill="#666666" stroke="#666666" points="181,-718.5 181,-718.5 344,-718.5 344,-718.5 181,-718.5"/>
<polygon fill="#666666" stroke="#666666" points="181,-703.5 181,-703.5 344,-703.5 344,-703.5 181,-703.5"/>
<polygon fill="none" stroke="#666666" points="180.5,-641.5 180.5,-735.5 343.5,-735.5 343.5,-641.5 180.5,-641.5"/>
</a>
</g>
</g>
<!-- Node5&#45;&gt;Node3 -->
<g id="edge4_Node000003_Node000005" class="edge">
<title>Node5&#45;&gt;Node3</title>
<g id="a_edge4_Node000003_Node000005"><a xlink:title=" ">
<path fill="none" stroke="#63b8ff" d="M232.49,-641.5C215.86,-615.57 194.65,-582.51 175.54,-552.72"/>
<polygon fill="none" stroke="#63b8ff" points="175.36,-552.44 168.75,-549.55 168.88,-542.34 175.48,-545.23 175.36,-552.44"/>
</a>
</g>
<text text-anchor="middle" x="220" y="-563" font-family="Helvetica,sans-Serif" font-size="10.00" fill="grey"> +annotations</text>
</g>
<!-- Node6 -->
<g id="Node000006" class="node">
<title>Node6</title>
<g id="a_Node000006"><a xlink:title=" ">
<polygon fill="white" stroke="transparent" points="291.5,-906 232.5,-906 232.5,-857 291.5,-857 291.5,-906"/>
<text text-anchor="start" x="238" y="-893.5" font-family="Helvetica,sans-Serif" font-size="10.00">std::string</text>
<text text-anchor="start" x="260.5" y="-878.5" font-family="Helvetica,sans-Serif" font-size="10.00"> </text>
<text text-anchor="start" x="260.5" y="-863.5" font-family="Helvetica,sans-Serif" font-size="10.00"> </text>
<polygon fill="#666666" stroke="#666666" points="233,-888.5 233,-888.5 292,-888.5 292,-888.5 233,-888.5"/>
<polygon fill="#666666" stroke="#666666" points="233,-873.5 233,-873.5 292,-873.5 292,-873.5 233,-873.5"/>
<polygon fill="none" stroke="#666666" points="232.5,-857 232.5,-906 291.5,-906 291.5,-857 232.5,-857"/>
</a>
</g>
</g>
<!-- Node6&#45;&gt;Node5 -->
<g id="edge5_Node000005_Node000006" class="edge">
<title>Node6&#45;&gt;Node5</title>
<g id="a_edge5_Node000005_Node000006"><a xlink:title=" ">
<path fill="none" stroke="#63b8ff" d="M262,-856.7C262,-829.56 262,-784.23 262,-747.61"/>
<polygon fill="none" stroke="#63b8ff" points="262,-747.57 258,-741.57 262,-735.57 266,-741.57 262,-747.57"/>
</a>
</g>
<text text-anchor="middle" x="284" y="-831" font-family="Helvetica,sans-Serif" font-size="10.00" fill="grey"> +title</text>
<text text-anchor="middle" x="284" y="-820" font-family="Helvetica,sans-Serif" font-size="10.00" fill="grey">+x_label</text>
<text text-anchor="middle" x="284" y="-809" font-family="Helvetica,sans-Serif" font-size="10.00" fill="grey">+y_label</text>
</g>
<!-- Node7 -->
<g id="Node000007" class="node">
<title>Node7</title>
<g id="a_Node000007"><a xlink:title=" ">
<polygon fill="white" stroke="transparent" points="311,-1003 213,-1003 213,-943 311,-943 311,-1003"/>
<text text-anchor="start" x="218" y="-991" font-family="Helvetica,sans-Serif" font-size="10.00">std::basic_string&lt;</text>
<text text-anchor="start" x="243.5" y="-980" font-family="Helvetica,sans-Serif" font-size="10.00"> Char &gt;</text>
<text text-anchor="start" x="260" y="-965" font-family="Helvetica,sans-Serif" font-size="10.00"> </text>
<text text-anchor="start" x="260" y="-950" font-family="Helvetica,sans-Serif" font-size="10.00"> </text>
<polygon fill="#666666" stroke="#666666" points="213,-975 213,-975 311,-975 311,-975 213,-975"/>
<polygon fill="#666666" stroke="#666666" points="213,-960 213,-960 311,-960 311,-960 213,-960"/>
<polygon fill="none" stroke="#666666" points="213,-943 213,-1003 311,-1003 311,-943 213,-943"/>
</a>
</g>
</g>
<!-- Node7&#45;&gt;Node6 -->
<g id="edge6_Node000006_Node000007" class="edge">
<title>Node7&#45;&gt;Node6</title>
<g id="a_edge6_Node000006_Node000007"><a xlink:title=" ">
<path fill="none" stroke="#63b8ff" d="M262,-932.41C262,-923.47 262,-914.25 262,-906.21"/>
<polygon fill="none" stroke="#63b8ff" points="258.5,-932.69 262,-942.69 265.5,-932.69 258.5,-932.69"/>
</a>
</g>
</g>
</g>
</svg>
