<?xml version="1.0" encoding="UTF-8" standalone="no"?>
<!DOCTYPE svg PUBLIC "-//W3C//DTD SVG 1.1//EN"
 "http://www.w3.org/Graphics/SVG/1.1/DTD/svg11.dtd">
<!-- Generated by graphviz version 2.43.0 (0)
 -->
<!-- Title: dnf_composer::user_interface::SimulationWindow::render Pages: 1 -->
<svg width="802pt" height="344pt"
 viewBox="0.00 0.00 802.00 344.00" xmlns="http://www.w3.org/2000/svg" xmlns:xlink="http://www.w3.org/1999/xlink">
<g id="graph0" class="graph" transform="scale(1 1) rotate(0) translate(4 340)">
<title>dnf_composer::user_interface::SimulationWindow::render</title>
<!-- Node1 -->
<g id="Node000001" class="node">
<title>Node1</title>
<g id="a_Node000001"><a xlink:title=" ">
<polygon fill="#999999" stroke="#666666" points="163,-188 0,-188 0,-147 163,-147 163,-188"/>
<text text-anchor="start" x="8" y="-176" font-family="Helvetica,sans-Serif" font-size="10.00">dnf_composer::user</text>
<text text-anchor="start" x="8" y="-165" font-family="Helvetica,sans-Serif" font-size="10.00">_interface::SimulationWindow</text>
<text text-anchor="middle" x="81.5" y="-154" font-family="Helvetica,sans-Serif" font-size="10.00">::render</text>
</a>
</g>
</g>
<!-- Node2 -->
<g id="Node000002" class="node">
<title>Node2</title>
<g id="a_Node000002"><a xlink:href="classdnf__composer_1_1user__interface_1_1SimulationWindow.html#ab1d68a0e88f02379e326b7b73170f8b8" target="_top" xlink:title=" ">
<polygon fill="white" stroke="#666666" points="362,-188 199,-188 199,-147 362,-147 362,-188"/>
<text text-anchor="start" x="207" y="-176" font-family="Helvetica,sans-Serif" font-size="10.00">dnf_composer::user</text>
<text text-anchor="start" x="207" y="-165" font-family="Helvetica,sans-Serif" font-size="10.00">_interface::SimulationWindow</text>
<text text-anchor="middle" x="280.5" y="-154" font-family="Helvetica,sans-Serif" font-size="10.00">::renderSidebarContents</text>
</a>
</g>
</g>
<!-- Node1&#45;&gt;Node2 -->
<g id="edge1_Node000001_Node000002" class="edge">
<title>Node1&#45;&gt;Node2</title>
<g id="a_edge1_Node000001_Node000002"><a xlink:title=" ">
<path fill="none" stroke="#63b8ff" d="M163.2,-167.5C171.67,-167.5 180.33,-167.5 188.91,-167.5"/>
<polygon fill="#63b8ff" stroke="#63b8ff" points="188.93,-171 198.93,-167.5 188.93,-164 188.93,-171"/>
</a>
</g>
</g>
<!-- Node3 -->
<g id="Node000003" class="node">
<title>Node3</title>
<g id="a_Node000003"><a xlink:href="classdnf__composer_1_1user__interface_1_1SimulationWindow.html#affb52c7f20aea6a3f5b1c62285bf6438" target="_top" xlink:title=" ">
<polygon fill="white" stroke="#666666" points="574.5,-336 411.5,-336 411.5,-295 574.5,-295 574.5,-336"/>
<text text-anchor="start" x="419.5" y="-324" font-family="Helvetica,sans-Serif" font-size="10.00">dnf_composer::user</text>
<text text-anchor="start" x="419.5" y="-313" font-family="Helvetica,sans-Serif" font-size="10.00">_interface::SimulationWindow</text>
<text text-anchor="middle" x="493" y="-302" font-family="Helvetica,sans-Serif" font-size="10.00">::renderAddElementCard</text>
</a>
</g>
</g>
<!-- Node2&#45;&gt;Node3 -->
<g id="edge2_Node000002_Node000003" class="edge">
<title>Node2&#45;&gt;Node3</title>
<g id="a_edge2_Node000002_Node000003"><a xlink:title=" ">
<path fill="none" stroke="#63b8ff" d="M296.48,-188.24C316.67,-214.75 355.05,-260.31 398,-286.5 400.31,-287.91 402.7,-289.26 405.14,-290.54"/>
<polygon fill="#63b8ff" stroke="#63b8ff" points="403.68,-293.72 414.2,-294.94 406.73,-287.42 403.68,-293.72"/>
</a>
</g>
</g>
<!-- Node4 -->
<g id="Node000004" class="node">
<title>Node4</title>
<g id="a_Node000004"><a xlink:href="classdnf__composer_1_1user__interface_1_1SimulationWindow.html#a8e2eae386da6e58b71b9e681b5bd2abc" target="_top" xlink:title=" ">
<polygon fill="white" stroke="#666666" points="574.5,-277 411.5,-277 411.5,-236 574.5,-236 574.5,-277"/>
<text text-anchor="start" x="419.5" y="-265" font-family="Helvetica,sans-Serif" font-size="10.00">dnf_composer::user</text>
<text text-anchor="start" x="419.5" y="-254" font-family="Helvetica,sans-Serif" font-size="10.00">_interface::SimulationWindow</text>
<text text-anchor="middle" x="493" y="-243" font-family="Helvetica,sans-Serif" font-size="10.00">::renderDataCard</text>
</a>
</g>
</g>
<!-- Node2&#45;&gt;Node4 -->
<g id="edge3_Node000002_Node000004" class="edge">
<title>Node2&#45;&gt;Node4</title>
<g id="a_edge3_Node000002_Node000004"><a xlink:title=" ">
<path fill="none" stroke="#63b8ff" d="M317.45,-188.11C340.09,-200.56 370.19,-216.15 398,-227.5 402.21,-229.22 406.55,-230.89 410.96,-232.51"/>
<polygon fill="#63b8ff" stroke="#63b8ff" points="410.1,-235.92 420.7,-235.96 412.45,-229.32 410.1,-235.92"/>
</a>
</g>
</g>
<!-- Node5 -->
<g id="Node000005" class="node">
<title>Node5</title>
<g id="a_Node000005"><a xlink:href="classdnf__composer_1_1user__interface_1_1SimulationWindow.html#a3630c30901d2b73b1eaa20b40825f6f4" target="_top" xlink:title=" ">
<polygon fill="white" stroke="#666666" points="588,-218 398,-218 398,-177 588,-177 588,-218"/>
<text text-anchor="start" x="406" y="-206" font-family="Helvetica,sans-Serif" font-size="10.00">dnf_composer::user</text>
<text text-anchor="start" x="406" y="-195" font-family="Helvetica,sans-Serif" font-size="10.00">_interface::SimulationWindow</text>
<text text-anchor="middle" x="493" y="-184" font-family="Helvetica,sans-Serif" font-size="10.00">::renderLogElementParametersCard</text>
</a>
</g>
</g>
<!-- Node2&#45;&gt;Node5 -->
<g id="edge4_Node000002_Node000005" class="edge">
<title>Node2&#45;&gt;Node5</title>
<g id="a_edge4_Node000002_Node000005"><a xlink:title=" ">
<path fill="none" stroke="#63b8ff" d="M362.28,-179.01C370.62,-180.2 379.17,-181.42 387.71,-182.64"/>
<polygon fill="#63b8ff" stroke="#63b8ff" points="387.32,-186.12 397.72,-184.06 388.31,-179.19 387.32,-186.12"/>
</a>
</g>
</g>
<!-- Node7 -->
<g id="Node000007" class="node">
<title>Node7</title>
<g id="a_Node000007"><a xlink:href="classdnf__composer_1_1user__interface_1_1SimulationWindow.html#ab231a4f0beb49a70451d8dc65baaa483" target="_top" xlink:title=" ">
<polygon fill="white" stroke="#666666" points="574.5,-159 411.5,-159 411.5,-118 574.5,-118 574.5,-159"/>
<text text-anchor="start" x="419.5" y="-147" font-family="Helvetica,sans-Serif" font-size="10.00">dnf_composer::user</text>
<text text-anchor="start" x="419.5" y="-136" font-family="Helvetica,sans-Serif" font-size="10.00">_interface::SimulationWindow</text>
<text text-anchor="middle" x="493" y="-125" font-family="Helvetica,sans-Serif" font-size="10.00">::renderMonitoringCard</text>
</a>
</g>
</g>
<!-- Node2&#45;&gt;Node7 -->
<g id="edge6_Node000002_Node000007" class="edge">
<title>Node2&#45;&gt;Node7</title>
<g id="a_edge6_Node000002_Node000007"><a xlink:title=" ">
<path fill="none" stroke="#63b8ff" d="M362.28,-156.37C375,-154.62 388.22,-152.8 401.15,-151.02"/>
<polygon fill="#63b8ff" stroke="#63b8ff" points="402,-154.43 411.43,-149.6 401.05,-147.5 402,-154.43"/>
</a>
</g>
</g>
<!-- Node9 -->
<g id="Node000009" class="node">
<title>Node9</title>
<g id="a_Node000009"><a xlink:href="classdnf__composer_1_1user__interface_1_1SimulationWindow.html#a58938ca889b91293bb674ffdef45b226" target="_top" xlink:title=" ">
<polygon fill="white" stroke="#666666" points="574.5,-100 411.5,-100 411.5,-59 574.5,-59 574.5,-100"/>
<text text-anchor="start" x="419.5" y="-88" font-family="Helvetica,sans-Serif" font-size="10.00">dnf_composer::user</text>
<text text-anchor="start" x="419.5" y="-77" font-family="Helvetica,sans-Serif" font-size="10.00">_interface::SimulationWindow</text>
<text text-anchor="middle" x="493" y="-66" font-family="Helvetica,sans-Serif" font-size="10.00">::renderRemoveElementCard</text>
</a>
</g>
</g>
<!-- Node2&#45;&gt;Node9 -->
<g id="edge8_Node000002_Node000009" class="edge">
<title>Node2&#45;&gt;Node9</title>
<g id="a_edge8_Node000002_Node000009"><a xlink:title=" ">
<path fill="none" stroke="#63b8ff" d="M318.01,-147C340.6,-134.82 370.46,-119.63 398,-108.5 402.21,-106.8 406.56,-105.14 410.98,-103.53"/>
<polygon fill="#63b8ff" stroke="#63b8ff" points="412.46,-106.72 420.72,-100.09 410.12,-100.12 412.46,-106.72"/>
</a>
</g>
</g>
<!-- Node10 -->
<g id="Node000010" class="node">
<title>Node10</title>
<g id="a_Node000010"><a xlink:href="classdnf__composer_1_1user__interface_1_1SimulationWindow.html#a1752634b611833df6dc90fe09952eaef" target="_top" xlink:title=" ">
<polygon fill="white" stroke="#666666" points="574.5,-41 411.5,-41 411.5,0 574.5,0 574.5,-41"/>
<text text-anchor="start" x="419.5" y="-29" font-family="Helvetica,sans-Serif" font-size="10.00">dnf_composer::user</text>
<text text-anchor="start" x="419.5" y="-18" font-family="Helvetica,sans-Serif" font-size="10.00">_interface::SimulationWindow</text>
<text text-anchor="middle" x="493" y="-7" font-family="Helvetica,sans-Serif" font-size="10.00">::renderSetInteractionCard</text>
</a>
</g>
</g>
<!-- Node2&#45;&gt;Node10 -->
<g id="edge9_Node000002_Node000010" class="edge">
<title>Node2&#45;&gt;Node10</title>
<g id="a_edge9_Node000002_Node000010"><a xlink:title=" ">
<path fill="none" stroke="#63b8ff" d="M296.52,-146.94C316.75,-120.66 355.18,-75.49 398,-49.5 400.32,-48.09 402.7,-46.75 405.15,-45.47"/>
<polygon fill="#63b8ff" stroke="#63b8ff" points="406.74,-48.59 414.22,-41.09 403.69,-42.29 406.74,-48.59"/>
</a>
</g>
</g>
<!-- Node6 -->
<g id="Node000006" class="node">
<title>Node6</title>
<g id="a_Node000006"><a xlink:href="namespacednf__composer_1_1tools_1_1logger.html#af64ef64b3026606a73972fdcae2ca87a" target="_top" xlink:title=" ">
<polygon fill="white" stroke="#666666" points="767,-212.5 651,-212.5 651,-182.5 767,-182.5 767,-212.5"/>
<text text-anchor="start" x="659" y="-200.5" font-family="Helvetica,sans-Serif" font-size="10.00">dnf_composer::tools</text>
<text text-anchor="middle" x="709" y="-189.5" font-family="Helvetica,sans-Serif" font-size="10.00">::logger::log</text>
</a>
</g>
</g>
<!-- Node5&#45;&gt;Node6 -->
<g id="edge5_Node000005_Node000006" class="edge">
<title>Node5&#45;&gt;Node6</title>
<g id="a_edge5_Node000005_Node000006"><a xlink:title=" ">
<path fill="none" stroke="#63b8ff" d="M588.17,-197.5C605.82,-197.5 623.93,-197.5 640.57,-197.5"/>
<polygon fill="#63b8ff" stroke="#63b8ff" points="640.71,-201 650.71,-197.5 640.71,-194 640.71,-201"/>
</a>
</g>
</g>
<!-- Node8 -->
<g id="Node000008" class="node">
<title>Node8</title>
<g id="a_Node000008"><a xlink:href="classdnf__composer_1_1user__interface_1_1FieldMetricsWindow.html#aeea6cfdef3cefb8f22fbcf50679651fe" target="_top" xlink:title=" ">
<polygon fill="white" stroke="#666666" points="794,-159 624,-159 624,-118 794,-118 794,-159"/>
<text text-anchor="start" x="632" y="-147" font-family="Helvetica,sans-Serif" font-size="10.00">dnf_composer::user</text>
<text text-anchor="start" x="632" y="-136" font-family="Helvetica,sans-Serif" font-size="10.00">_interface::FieldMetricsWindow</text>
<text text-anchor="middle" x="709" y="-125" font-family="Helvetica,sans-Serif" font-size="10.00">::renderContents</text>
</a>
</g>
</g>
<!-- Node7&#45;&gt;Node8 -->
<g id="edge7_Node000007_Node000008" class="edge">
<title>Node7&#45;&gt;Node8</title>
<g id="a_edge7_Node000007_Node000008"><a xlink:title=" ">
<path fill="none" stroke="#63b8ff" d="M574.6,-138.5C587.31,-138.5 600.56,-138.5 613.55,-138.5"/>
<polygon fill="#63b8ff" stroke="#63b8ff" points="613.91,-142 623.91,-138.5 613.91,-135 613.91,-142"/>
</a>
</g>
</g>
</g>
</svg>
