<?xml version="1.0" encoding="UTF-8" standalone="no"?>
<!DOCTYPE svg PUBLIC "-//W3C//DTD SVG 1.1//EN"
 "http://www.w3.org/Graphics/SVG/1.1/DTD/svg11.dtd">
<!-- Generated by graphviz version 2.43.0 (0)
 -->
<!-- Title: dnf_composer::user_interface::FieldMetricsWindow::renderContents Pages: 1 -->
<svg width="782pt" height="108pt"
 viewBox="0.00 0.00 782.00 108.00" xmlns="http://www.w3.org/2000/svg" xmlns:xlink="http://www.w3.org/1999/xlink">
<g id="graph0" class="graph" transform="scale(1 1) rotate(0) translate(4 104)">
<title>dnf_composer::user_interface::FieldMetricsWindow::renderContents</title>
<!-- Node1 -->
<g id="Node000001" class="node">
<title>Node1</title>
<g id="a_Node000001"><a xlink:title=" ">
<polygon fill="#999999" stroke="#666666" points="774,-70 604,-70 604,-29 774,-29 774,-70"/>
<text text-anchor="start" x="612" y="-58" font-family="Helvetica,sans-Serif" font-size="10.00">dnf_composer::user</text>
<text text-anchor="start" x="612" y="-47" font-family="Helvetica,sans-Serif" font-size="10.00">_interface::FieldMetricsWindow</text>
<text text-anchor="middle" x="689" y="-36" font-family="Helvetica,sans-Serif" font-size="10.00">::renderContents</text>
</a>
</g>
</g>
<!-- Node2 -->
<g id="Node000002" class="node">
<title>Node2</title>
<g id="a_Node000002"><a xlink:href="classdnf__composer_1_1user__interface_1_1FieldMetricsWindow.html#a10db9e719c6aa89e1e22353ed652370e" target="_top" xlink:title=" ">
<polygon fill="white" stroke="#666666" points="568,-100 398,-100 398,-59 568,-59 568,-100"/>
<text text-anchor="start" x="406" y="-88" font-family="Helvetica,sans-Serif" font-size="10.00">dnf_composer::user</text>
<text text-anchor="start" x="406" y="-77" font-family="Helvetica,sans-Serif" font-size="10.00">_interface::FieldMetricsWindow</text>
<text text-anchor="middle" x="483" y="-66" font-family="Helvetica,sans-Serif" font-size="10.00">::render</text>
</a>
</g>
</g>
<!-- Node1&#45;&gt;Node2 -->
<g id="edge1_Node000001_Node000002" class="edge">
<title>Node1&#45;&gt;Node2</title>
<g id="a_edge1_Node000001_Node000002"><a xlink:title=" ">
<path fill="none" stroke="#63b8ff" d="M593.88,-63.34C585.34,-64.6 576.73,-65.86 568.29,-67.1"/>
<polygon fill="#63b8ff" stroke="#63b8ff" points="594.46,-66.79 603.85,-61.88 593.44,-59.87 594.46,-66.79"/>
</a>
</g>
</g>
<!-- Node3 -->
<g id="Node000003" class="node">
<title>Node3</title>
<g id="a_Node000003"><a xlink:href="classdnf__composer_1_1user__interface_1_1SimulationWindow.html#ab231a4f0beb49a70451d8dc65baaa483" target="_top" xlink:title=" ">
<polygon fill="white" stroke="#666666" points="564.5,-41 401.5,-41 401.5,0 564.5,0 564.5,-41"/>
<text text-anchor="start" x="409.5" y="-29" font-family="Helvetica,sans-Serif" font-size="10.00">dnf_composer::user</text>
<text text-anchor="start" x="409.5" y="-18" font-family="Helvetica,sans-Serif" font-size="10.00">_interface::SimulationWindow</text>
<text text-anchor="middle" x="483" y="-7" font-family="Helvetica,sans-Serif" font-size="10.00">::renderMonitoringCard</text>
</a>
</g>
</g>
<!-- Node1&#45;&gt;Node3 -->
<g id="edge2_Node000001_Node000003" class="edge">
<title>Node1&#45;&gt;Node3</title>
<g id="a_edge2_Node000001_Node000003"><a xlink:title=" ">
<path fill="none" stroke="#63b8ff" d="M593.77,-36.1C584.05,-34.72 574.23,-33.33 564.68,-31.97"/>
<polygon fill="#63b8ff" stroke="#63b8ff" points="593.45,-39.59 603.85,-37.54 594.44,-32.66 593.45,-39.59"/>
</a>
</g>
</g>
<!-- Node4 -->
<g id="Node000004" class="node">
<title>Node4</title>
<g id="a_Node000004"><a xlink:href="classdnf__composer_1_1user__interface_1_1SimulationWindow.html#ab1d68a0e88f02379e326b7b73170f8b8" target="_top" xlink:title=" ">
<polygon fill="white" stroke="#666666" points="362,-41 199,-41 199,0 362,0 362,-41"/>
<text text-anchor="start" x="207" y="-29" font-family="Helvetica,sans-Serif" font-size="10.00">dnf_composer::user</text>
<text text-anchor="start" x="207" y="-18" font-family="Helvetica,sans-Serif" font-size="10.00">_interface::SimulationWindow</text>
<text text-anchor="middle" x="280.5" y="-7" font-family="Helvetica,sans-Serif" font-size="10.00">::renderSidebarContents</text>
</a>
</g>
</g>
<!-- Node3&#45;&gt;Node4 -->
<g id="edge3_Node000003_Node000004" class="edge">
<title>Node3&#45;&gt;Node4</title>
<g id="a_edge3_Node000003_Node000004"><a xlink:title=" ">
<path fill="none" stroke="#63b8ff" d="M391.23,-20.5C381.49,-20.5 371.63,-20.5 362.02,-20.5"/>
<polygon fill="#63b8ff" stroke="#63b8ff" points="391.32,-24 401.32,-20.5 391.32,-17 391.32,-24"/>
</a>
</g>
</g>
<!-- Node5 -->
<g id="Node000005" class="node">
<title>Node5</title>
<g id="a_Node000005"><a xlink:href="classdnf__composer_1_1user__interface_1_1SimulationWindow.html#ac0c5ebab9dd16f951c2c231a8e1f6f34" target="_top" xlink:title=" ">
<polygon fill="white" stroke="#666666" points="163,-41 0,-41 0,0 163,0 163,-41"/>
<text text-anchor="start" x="8" y="-29" font-family="Helvetica,sans-Serif" font-size="10.00">dnf_composer::user</text>
<text text-anchor="start" x="8" y="-18" font-family="Helvetica,sans-Serif" font-size="10.00">_interface::SimulationWindow</text>
<text text-anchor="middle" x="81.5" y="-7" font-family="Helvetica,sans-Serif" font-size="10.00">::render</text>
</a>
</g>
</g>
<!-- Node4&#45;&gt;Node5 -->
<g id="edge4_Node000004_Node000005" class="edge">
<title>Node4&#45;&gt;Node5</title>
<g id="a_edge4_Node000004_Node000005"><a xlink:title=" ">
<path fill="none" stroke="#63b8ff" d="M188.78,-20.5C180.2,-20.5 171.55,-20.5 163.07,-20.5"/>
<polygon fill="#63b8ff" stroke="#63b8ff" points="188.8,-24 198.8,-20.5 188.8,-17 188.8,-24"/>
</a>
</g>
</g>
</g>
</svg>
