<?xml version="1.0" encoding="UTF-8" standalone="no"?>
<!DOCTYPE svg PUBLIC "-//W3C//DTD SVG 1.1//EN"
 "http://www.w3.org/Graphics/SVG/1.1/DTD/svg11.dtd">
<!-- Generated by graphviz version 2.43.0 (0)
 -->
<!-- Title: dnf_composer::element::GaussKernel::step Pages: 1 -->
<svg width="329pt" height="230pt"
 viewBox="0.00 0.00 329.00 230.00" xmlns="http://www.w3.org/2000/svg" xmlns:xlink="http://www.w3.org/1999/xlink">
<g id="graph0" class="graph" transform="scale(1 1) rotate(0) translate(4 226)">
<title>dnf_composer::element::GaussKernel::step</title>
<!-- Node1 -->
<g id="Node000001" class="node">
<title>Node1</title>
<g id="a_Node000001"><a xlink:title="Advance the element by one time step.">
<polygon fill="#999999" stroke="#666666" points="132,-126 0,-126 0,-96 132,-96 132,-126"/>
<text text-anchor="start" x="8" y="-114" font-family="Helvetica,sans-Serif" font-size="10.00">dnf_composer::element</text>
<text text-anchor="middle" x="66" y="-103" font-family="Helvetica,sans-Serif" font-size="10.00">::GaussKernel::step</text>
</a>
</g>
</g>
<!-- Node2 -->
<g id="Node000002" class="node">
<title>Node2</title>
<g id="a_Node000002"><a xlink:href="namespacednf__composer_1_1tools_1_1math.html#a384e37867853468a2ab2f1ec45bf2e43" target="_top" xlink:title=" ">
<polygon fill="white" stroke="#666666" points="302.5,-222 186.5,-222 186.5,-192 302.5,-192 302.5,-222"/>
<text text-anchor="start" x="194.5" y="-210" font-family="Helvetica,sans-Serif" font-size="10.00">dnf_composer::tools</text>
<text text-anchor="middle" x="244.5" y="-199" font-family="Helvetica,sans-Serif" font-size="10.00">::math::conv_same</text>
</a>
</g>
</g>
<!-- Node1&#45;&gt;Node2 -->
<g id="edge1_Node000001_Node000002" class="edge">
<title>Node1&#45;&gt;Node2</title>
<g id="a_edge1_Node000001_Node000002"><a xlink:title=" ">
<path fill="none" stroke="#63b8ff" d="M84.52,-126.09C103.84,-142.1 136.41,-167.21 168,-183 171.74,-184.87 175.65,-186.63 179.64,-188.29"/>
<polygon fill="#63b8ff" stroke="#63b8ff" points="178.48,-191.59 189.07,-191.96 181.02,-185.07 178.48,-191.59"/>
</a>
</g>
</g>
<!-- Node3 -->
<g id="Node000003" class="node">
<title>Node3</title>
<g id="a_Node000003"><a xlink:href="namespacednf__composer_1_1tools_1_1math.html#ab20d3ab488a94e0088c4bd53d8deac9c" target="_top" xlink:title=" ">
<polygon fill="white" stroke="#666666" points="302.5,-174 186.5,-174 186.5,-144 302.5,-144 302.5,-174"/>
<text text-anchor="start" x="194.5" y="-162" font-family="Helvetica,sans-Serif" font-size="10.00">dnf_composer::tools</text>
<text text-anchor="middle" x="244.5" y="-151" font-family="Helvetica,sans-Serif" font-size="10.00">::math::conv_valid</text>
</a>
</g>
</g>
<!-- Node1&#45;&gt;Node3 -->
<g id="edge2_Node000001_Node000003" class="edge">
<title>Node1&#45;&gt;Node3</title>
<g id="a_edge2_Node000001_Node000003"><a xlink:title=" ">
<path fill="none" stroke="#63b8ff" d="M122.36,-126.06C140.19,-130.9 160.1,-136.32 178.55,-141.34"/>
<polygon fill="#63b8ff" stroke="#63b8ff" points="177.77,-144.75 188.34,-144 179.6,-138 177.77,-144.75"/>
</a>
</g>
</g>
<!-- Node4 -->
<g id="Node000004" class="node">
<title>Node4</title>
<g id="a_Node000004"><a xlink:href="namespacednf__composer_1_1tools_1_1math.html#a82c852ff9a51203bb51445e709dd22e1" target="_top" xlink:title=" ">
<polygon fill="white" stroke="#666666" points="321,-126 168,-126 168,-96 321,-96 321,-126"/>
<text text-anchor="start" x="176" y="-114" font-family="Helvetica,sans-Serif" font-size="10.00">dnf_composer::tools</text>
<text text-anchor="middle" x="244.5" y="-103" font-family="Helvetica,sans-Serif" font-size="10.00">::math::obtainCircularVector</text>
</a>
</g>
</g>
<!-- Node1&#45;&gt;Node4 -->
<g id="edge3_Node000001_Node000004" class="edge">
<title>Node1&#45;&gt;Node4</title>
<g id="a_edge3_Node000001_Node000004"><a xlink:title=" ">
<path fill="none" stroke="#63b8ff" d="M132.22,-111C140.55,-111 149.17,-111 157.76,-111"/>
<polygon fill="#63b8ff" stroke="#63b8ff" points="157.81,-114.5 167.81,-111 157.81,-107.5 157.81,-114.5"/>
</a>
</g>
</g>
<!-- Node5 -->
<g id="Node000005" class="node">
<title>Node5</title>
<g id="a_Node000005"><a xlink:href="namespacednf__composer_1_1tools_1_1math.html#ae470bf545f26f68babb6ce2731349b52" target="_top" xlink:title=" ">
<polygon fill="white" stroke="#666666" points="304,-78 185,-78 185,-48 304,-48 304,-78"/>
<text text-anchor="start" x="193" y="-66" font-family="Helvetica,sans-Serif" font-size="10.00">dnf_composer::tools</text>
<text text-anchor="middle" x="244.5" y="-55" font-family="Helvetica,sans-Serif" font-size="10.00">::math::resampleInto</text>
</a>
</g>
</g>
<!-- Node1&#45;&gt;Node5 -->
<g id="edge4_Node000001_Node000005" class="edge">
<title>Node1&#45;&gt;Node5</title>
<g id="a_edge4_Node000001_Node000005"><a xlink:title=" ">
<path fill="none" stroke="#63b8ff" d="M122.36,-95.94C140.19,-91.1 160.1,-85.68 178.55,-80.66"/>
<polygon fill="#63b8ff" stroke="#63b8ff" points="179.6,-84 188.34,-78 177.77,-77.25 179.6,-84"/>
</a>
</g>
</g>
<!-- Node6 -->
<g id="Node000006" class="node">
<title>Node6</title>
<g id="a_Node000006"><a xlink:href="classdnf__composer_1_1element_1_1Element.html#a87401af54d46e1cf99d2755d3fce0a9a" target="_top" xlink:title="Pull data from all registered input elements into this element&#39;s components.">
<polygon fill="white" stroke="#666666" points="310.5,-30 178.5,-30 178.5,0 310.5,0 310.5,-30"/>
<text text-anchor="start" x="186.5" y="-18" font-family="Helvetica,sans-Serif" font-size="10.00">dnf_composer::element</text>
<text text-anchor="middle" x="244.5" y="-7" font-family="Helvetica,sans-Serif" font-size="10.00">::Element::updateInput</text>
</a>
</g>
</g>
<!-- Node1&#45;&gt;Node6 -->
<g id="edge5_Node000001_Node000006" class="edge">
<title>Node1&#45;&gt;Node6</title>
<g id="a_edge5_Node000001_Node000006"><a xlink:title=" ">
<path fill="none" stroke="#63b8ff" d="M84.52,-95.91C103.84,-79.9 136.41,-54.79 168,-39 171.74,-37.13 175.65,-35.37 179.64,-33.71"/>
<polygon fill="#63b8ff" stroke="#63b8ff" points="181.02,-36.93 189.07,-30.04 178.48,-30.41 181.02,-36.93"/>
</a>
</g>
</g>
</g>
</svg>
