<?xml version="1.0" encoding="UTF-8" standalone="no"?>
<!DOCTYPE svg PUBLIC "-//W3C//DTD SVG 1.1//EN"
 "http://www.w3.org/Graphics/SVG/1.1/DTD/svg11.dtd">
<!-- Generated by graphviz version 2.43.0 (0)
 -->
<!-- Title: dnf_composer::element::GaussStimulus::setParameters Pages: 1 -->
<svg width="535pt" height="230pt"
 viewBox="0.00 0.00 535.00 230.00" xmlns="http://www.w3.org/2000/svg" xmlns:xlink="http://www.w3.org/1999/xlink">
<g id="graph0" class="graph" transform="scale(1 1) rotate(0) translate(4 226)">
<title>dnf_composer::element::GaussStimulus::setParameters</title>
<!-- Node1 -->
<g id="Node000001" class="node">
<title>Node1</title>
<g id="a_Node000001"><a xlink:title=" ">
<polygon fill="#999999" stroke="#666666" points="172,-126 0,-126 0,-96 172,-96 172,-126"/>
<text text-anchor="start" x="8" y="-114" font-family="Helvetica,sans-Serif" font-size="10.00">dnf_composer::element</text>
<text text-anchor="middle" x="86" y="-103" font-family="Helvetica,sans-Serif" font-size="10.00">::GaussStimulus::setParameters</text>
</a>
</g>
</g>
<!-- Node2 -->
<g id="Node000002" class="node">
<title>Node2</title>
<g id="a_Node000002"><a xlink:href="classdnf__composer_1_1element_1_1GaussStimulus.html#a3677ed68684c7cd362e7e54f42fafb06" target="_top" xlink:title="Initialize the element (called once before the simulation loop).">
<polygon fill="white" stroke="#666666" points="340,-126 208,-126 208,-96 340,-96 340,-126"/>
<text text-anchor="start" x="216" y="-114" font-family="Helvetica,sans-Serif" font-size="10.00">dnf_composer::element</text>
<text text-anchor="middle" x="274" y="-103" font-family="Helvetica,sans-Serif" font-size="10.00">::GaussStimulus::init</text>
</a>
</g>
</g>
<!-- Node1&#45;&gt;Node2 -->
<g id="edge1_Node000001_Node000002" class="edge">
<title>Node1&#45;&gt;Node2</title>
<g id="a_edge1_Node000001_Node000002"><a xlink:title=" ">
<path fill="none" stroke="#63b8ff" d="M172.11,-111C180.68,-111 189.33,-111 197.79,-111"/>
<polygon fill="#63b8ff" stroke="#63b8ff" points="197.98,-114.5 207.98,-111 197.98,-107.5 197.98,-114.5"/>
</a>
</g>
</g>
<!-- Node3 -->
<g id="Node000003" class="node">
<title>Node3</title>
<g id="a_Node000003"><a xlink:href="namespacednf__composer_1_1tools_1_1math.html#a8ef191ccbfe8ac462c5ce6a6e88a3f3a" target="_top" xlink:title=" ">
<polygon fill="white" stroke="#666666" points="527,-222 376,-222 376,-192 527,-192 527,-222"/>
<text text-anchor="start" x="384" y="-210" font-family="Helvetica,sans-Serif" font-size="10.00">dnf_composer::tools</text>
<text text-anchor="middle" x="451.5" y="-199" font-family="Helvetica,sans-Serif" font-size="10.00">::math::calculateVectorSum</text>
</a>
</g>
</g>
<!-- Node2&#45;&gt;Node3 -->
<g id="edge2_Node000002_Node000003" class="edge">
<title>Node2&#45;&gt;Node3</title>
<g id="a_edge2_Node000002_Node000003"><a xlink:title=" ">
<path fill="none" stroke="#63b8ff" d="M292.53,-126.07C311.87,-142.06 344.44,-167.15 376,-183 379.59,-184.8 383.34,-186.51 387.16,-188.11"/>
<polygon fill="#63b8ff" stroke="#63b8ff" points="386.21,-191.5 396.79,-191.91 388.77,-184.98 386.21,-191.5"/>
</a>
</g>
</g>
<!-- Node4 -->
<g id="Node000004" class="node">
<title>Node4</title>
<g id="a_Node000004"><a xlink:href="namespacednf__composer_1_1tools_1_1math.html#a04eaa5c52dfa8bf546d7c290c9e91978" target="_top" xlink:title=" ">
<polygon fill="white" stroke="#666666" points="511.5,-174 391.5,-174 391.5,-144 511.5,-144 511.5,-174"/>
<text text-anchor="start" x="399.5" y="-162" font-family="Helvetica,sans-Serif" font-size="10.00">dnf_composer::tools</text>
<text text-anchor="middle" x="451.5" y="-151" font-family="Helvetica,sans-Serif" font-size="10.00">::math::circularGauss</text>
</a>
</g>
</g>
<!-- Node2&#45;&gt;Node4 -->
<g id="edge3_Node000002_Node000004" class="edge">
<title>Node2&#45;&gt;Node4</title>
<g id="a_edge3_Node000002_Node000004"><a xlink:title=" ">
<path fill="none" stroke="#63b8ff" d="M330.05,-126.06C347.77,-130.9 367.57,-136.32 385.92,-141.34"/>
<polygon fill="#63b8ff" stroke="#63b8ff" points="385.08,-144.74 395.65,-144 386.93,-137.98 385.08,-144.74"/>
</a>
</g>
</g>
<!-- Node5 -->
<g id="Node000005" class="node">
<title>Node5</title>
<g id="a_Node000005"><a xlink:href="namespacednf__composer_1_1tools_1_1math.html#af1e4dc23150121f5d2c1ff789f3de9d3" target="_top" xlink:title=" ">
<polygon fill="white" stroke="#666666" points="509.5,-126 393.5,-126 393.5,-96 509.5,-96 509.5,-126"/>
<text text-anchor="start" x="401.5" y="-114" font-family="Helvetica,sans-Serif" font-size="10.00">dnf_composer::tools</text>
<text text-anchor="middle" x="451.5" y="-103" font-family="Helvetica,sans-Serif" font-size="10.00">::math::gauss</text>
</a>
</g>
</g>
<!-- Node2&#45;&gt;Node5 -->
<g id="edge4_Node000002_Node000005" class="edge">
<title>Node2&#45;&gt;Node5</title>
<g id="a_edge4_Node000002_Node000005"><a xlink:title=" ">
<path fill="none" stroke="#63b8ff" d="M340.35,-111C354.39,-111 369.24,-111 383.35,-111"/>
<polygon fill="#63b8ff" stroke="#63b8ff" points="383.46,-114.5 393.46,-111 383.46,-107.5 383.46,-114.5"/>
</a>
</g>
</g>
<!-- Node6 -->
<g id="Node000006" class="node">
<title>Node6</title>
<g id="a_Node000006"><a xlink:href="classdnf__composer_1_1element_1_1Element.html#a03cc479b5f360d8e7f679d4ecdad8944" target="_top" xlink:title=" ">
<polygon fill="white" stroke="#666666" points="526,-78 377,-78 377,-48 526,-48 526,-78"/>
<text text-anchor="start" x="385" y="-66" font-family="Helvetica,sans-Serif" font-size="10.00">dnf_composer::element</text>
<text text-anchor="middle" x="451.5" y="-55" font-family="Helvetica,sans-Serif" font-size="10.00">::Element::getUniqueName</text>
</a>
</g>
</g>
<!-- Node2&#45;&gt;Node6 -->
<g id="edge5_Node000002_Node000006" class="edge">
<title>Node2&#45;&gt;Node6</title>
<g id="a_edge5_Node000002_Node000006"><a xlink:title=" ">
<path fill="none" stroke="#63b8ff" d="M330.05,-95.94C347.77,-91.1 367.57,-85.68 385.92,-80.66"/>
<polygon fill="#63b8ff" stroke="#63b8ff" points="386.93,-84.02 395.65,-78 385.08,-77.26 386.93,-84.02"/>
</a>
</g>
</g>
<!-- Node7 -->
<g id="Node000007" class="node">
<title>Node7</title>
<g id="a_Node000007"><a xlink:href="classdnf__composer_1_1element_1_1Element.html#a87401af54d46e1cf99d2755d3fce0a9a" target="_top" xlink:title="Pull data from all registered input elements into this element&#39;s components.">
<polygon fill="white" stroke="#666666" points="517.5,-30 385.5,-30 385.5,0 517.5,0 517.5,-30"/>
<text text-anchor="start" x="393.5" y="-18" font-family="Helvetica,sans-Serif" font-size="10.00">dnf_composer::element</text>
<text text-anchor="middle" x="451.5" y="-7" font-family="Helvetica,sans-Serif" font-size="10.00">::Element::updateInput</text>
</a>
</g>
</g>
<!-- Node2&#45;&gt;Node7 -->
<g id="edge6_Node000002_Node000007" class="edge">
<title>Node2&#45;&gt;Node7</title>
<g id="a_edge6_Node000002_Node000007"><a xlink:title=" ">
<path fill="none" stroke="#63b8ff" d="M292.53,-95.93C311.87,-79.94 344.44,-54.85 376,-39 379.59,-37.2 383.34,-35.49 387.16,-33.89"/>
<polygon fill="#63b8ff" stroke="#63b8ff" points="388.77,-37.02 396.79,-30.09 386.21,-30.5 388.77,-37.02"/>
</a>
</g>
</g>
</g>
</svg>
