<?xml version="1.0" encoding="UTF-8" standalone="no"?>
<!DOCTYPE svg PUBLIC "-//W3C//DTD SVG 1.1//EN"
 "http://www.w3.org/Graphics/SVG/1.1/DTD/svg11.dtd">
<!-- Generated by graphviz version 2.43.0 (0)
 -->
<!-- Title: dnf_composer::Plot Pages: 1 -->
<svg width="282pt" height="397pt"
 viewBox="0.00 0.00 282.00 397.00" xmlns="http://www.w3.org/2000/svg" xmlns:xlink="http://www.w3.org/1999/xlink">
<g id="graph0" class="graph" transform="scale(1 1) rotate(0) translate(4 393)">
<title>dnf_composer::Plot</title>
<!-- Node1 -->
<g id="Node000001" class="node">
<title>Node1</title>
<g id="a_Node000001"><a xlink:title="Abstract base class for all renderable plots.">
<polygon fill="#999999" stroke="transparent" points="206.5,-389 70.5,-389 70.5,-175 206.5,-175 206.5,-389"/>
<text text-anchor="start" x="91.5" y="-377" font-family="Helvetica,sans-Serif" font-size="10.00">dnf_composer::Plot</text>
<text text-anchor="start" x="74.5" y="-362" font-family="Helvetica,sans-Serif" font-size="10.00">#</text>
<text text-anchor="start" x="87.5" y="-362" font-family="Helvetica,sans-Serif" font-size="10.00">commonParameters</text>
<text text-anchor="start" x="74.5" y="-347" font-family="Helvetica,sans-Serif" font-size="10.00">#</text>
<text text-anchor="start" x="87.5" y="-347" font-family="Helvetica,sans-Serif" font-size="10.00">uniqueIdentifier</text>
<text text-anchor="start" x="74.5" y="-332" font-family="Helvetica,sans-Serif" font-size="10.00">#</text>
<text text-anchor="start" x="87.5" y="-332" font-family="Helvetica,sans-Serif" font-size="10.00">uniqueIdentifierCounter</text>
<text text-anchor="start" x="74.5" y="-317" font-family="Helvetica,sans-Serif" font-size="10.00">+</text>
<text text-anchor="start" x="87.5" y="-317" font-family="Helvetica,sans-Serif" font-size="10.00">getAnnotations()</text>
<text text-anchor="start" x="74.5" y="-302" font-family="Helvetica,sans-Serif" font-size="10.00">+</text>
<text text-anchor="start" x="87.5" y="-302" font-family="Helvetica,sans-Serif" font-size="10.00">getDimensions()</text>
<text text-anchor="start" x="74.5" y="-287" font-family="Helvetica,sans-Serif" font-size="10.00">+</text>
<text text-anchor="start" x="87.5" y="-287" font-family="Helvetica,sans-Serif" font-size="10.00">getType()</text>
<text text-anchor="start" x="74.5" y="-272" font-family="Helvetica,sans-Serif" font-size="10.00">+</text>
<text text-anchor="start" x="87.5" y="-272" font-family="Helvetica,sans-Serif" font-size="10.00">getUniqueIdentifier()</text>
<text text-anchor="start" x="74.5" y="-257" font-family="Helvetica,sans-Serif" font-size="10.00">+</text>
<text text-anchor="start" x="87.5" y="-257" font-family="Helvetica,sans-Serif" font-size="10.00">Plot()</text>
<text text-anchor="start" x="74.5" y="-242" font-family="Helvetica,sans-Serif" font-size="10.00">+</text>
<text text-anchor="start" x="87.5" y="-242" font-family="Helvetica,sans-Serif" font-size="10.00">render()</text>
<text text-anchor="start" x="74.5" y="-227" font-family="Helvetica,sans-Serif" font-size="10.00">+</text>
<text text-anchor="start" x="87.5" y="-227" font-family="Helvetica,sans-Serif" font-size="10.00">setAnnotations()</text>
<text text-anchor="start" x="74.5" y="-212" font-family="Helvetica,sans-Serif" font-size="10.00">+</text>
<text text-anchor="start" x="87.5" y="-212" font-family="Helvetica,sans-Serif" font-size="10.00">setDimensions()</text>
<text text-anchor="start" x="74.5" y="-197" font-family="Helvetica,sans-Serif" font-size="10.00">+</text>
<text text-anchor="start" x="87.5" y="-197" font-family="Helvetica,sans-Serif" font-size="10.00">toString()</text>
<text text-anchor="start" x="74.5" y="-182" font-family="Helvetica,sans-Serif" font-size="10.00">+</text>
<text text-anchor="start" x="87.5" y="-182" font-family="Helvetica,sans-Serif" font-size="10.00">~Plot()</text>
<polygon fill="#666666" stroke="#666666" points="70.5,-372 70.5,-372 206.5,-372 206.5,-372 70.5,-372"/>
<polygon fill="#666666" stroke="#666666" points="70.5,-327 70.5,-327 85.5,-327 85.5,-327 70.5,-327"/>
<polygon fill="#666666" stroke="#666666" points="85.5,-327 85.5,-327 206.5,-327 206.5,-327 85.5,-327"/>
<polygon fill="none" stroke="#666666" points="70.5,-175 70.5,-389 206.5,-389 206.5,-175 70.5,-175"/>
</a>
</g>
</g>
<!-- Node2 -->
<g id="Node000002" class="node">
<title>Node2</title>
<g id="a_Node000002"><a xlink:href="classdnf__composer_1_1Heatmap.html" target="_top" xlink:title=" ">
<polygon fill="white" stroke="transparent" points="131,-131.5 0,-131.5 0,-7.5 131,-7.5 131,-131.5"/>
<text text-anchor="start" x="5.5" y="-119.5" font-family="Helvetica,sans-Serif" font-size="10.00">dnf_composer::Heatmap</text>
<text text-anchor="start" x="64" y="-104.5" font-family="Helvetica,sans-Serif" font-size="10.00"> </text>
<text text-anchor="start" x="8" y="-89.5" font-family="Helvetica,sans-Serif" font-size="10.00">+</text>
<text text-anchor="start" x="24.5" y="-89.5" font-family="Helvetica,sans-Serif" font-size="10.00">getScale()</text>
<text text-anchor="start" x="8" y="-74.5" font-family="Helvetica,sans-Serif" font-size="10.00">+</text>
<text text-anchor="start" x="24.5" y="-74.5" font-family="Helvetica,sans-Serif" font-size="10.00">Heatmap()</text>
<text text-anchor="start" x="8" y="-59.5" font-family="Helvetica,sans-Serif" font-size="10.00">+</text>
<text text-anchor="start" x="24.5" y="-59.5" font-family="Helvetica,sans-Serif" font-size="10.00">render()</text>
<text text-anchor="start" x="8" y="-44.5" font-family="Helvetica,sans-Serif" font-size="10.00">+</text>
<text text-anchor="start" x="24.5" y="-44.5" font-family="Helvetica,sans-Serif" font-size="10.00">setDimensionHint()</text>
<text text-anchor="start" x="8" y="-29.5" font-family="Helvetica,sans-Serif" font-size="10.00">+</text>
<text text-anchor="start" x="24.5" y="-29.5" font-family="Helvetica,sans-Serif" font-size="10.00">setScale()</text>
<text text-anchor="start" x="8" y="-14.5" font-family="Helvetica,sans-Serif" font-size="10.00">+</text>
<text text-anchor="start" x="24.5" y="-14.5" font-family="Helvetica,sans-Serif" font-size="10.00">toString()</text>
<polygon fill="#666666" stroke="#666666" points="0.5,-114.5 0.5,-114.5 131.5,-114.5 131.5,-114.5 0.5,-114.5"/>
<polygon fill="#666666" stroke="#666666" points="0.5,-99.5 0.5,-99.5 131.5,-99.5 131.5,-99.5 0.5,-99.5"/>
<polygon fill="none" stroke="#666666" points="0,-7.5 0,-131.5 131,-131.5 131,-7.5 0,-7.5"/>
</a>
</g>
</g>
<!-- Node1&#45;&gt;Node2 -->
<g id="edge1_Node000001_Node000002" class="edge">
<title>Node1&#45;&gt;Node2</title>
<g id="a_edge1_Node000001_Node000002"><a xlink:title=" ">
<path fill="none" stroke="#63b8ff" d="M98.31,-165.12C94.32,-153.6 90.38,-142.24 86.7,-131.63"/>
<polygon fill="none" stroke="#63b8ff" points="95.1,-166.52 101.68,-174.82 101.71,-164.23 95.1,-166.52"/>
</a>
</g>
</g>
<!-- Node3 -->
<g id="Node000003" class="node">
<title>Node3</title>
<g id="a_Node000003"><a xlink:href="classdnf__composer_1_1LinePlot.html" target="_top" xlink:title=" ">
<polygon fill="white" stroke="transparent" points="274,-139 149,-139 149,0 274,0 274,-139"/>
<text text-anchor="start" x="154.5" y="-126.5" font-family="Helvetica,sans-Serif" font-size="10.00">dnf_composer::LinePlot</text>
<text text-anchor="start" x="210" y="-111.5" font-family="Helvetica,sans-Serif" font-size="10.00"> </text>
<text text-anchor="start" x="156" y="-96.5" font-family="Helvetica,sans-Serif" font-size="10.00">+</text>
<text text-anchor="start" x="171.5" y="-96.5" font-family="Helvetica,sans-Serif" font-size="10.00">getAutoFit()</text>
<text text-anchor="start" x="156" y="-81.5" font-family="Helvetica,sans-Serif" font-size="10.00">+</text>
<text text-anchor="start" x="171.5" y="-81.5" font-family="Helvetica,sans-Serif" font-size="10.00">getLineThickness()</text>
<text text-anchor="start" x="156" y="-66.5" font-family="Helvetica,sans-Serif" font-size="10.00">+</text>
<text text-anchor="start" x="171.5" y="-66.5" font-family="Helvetica,sans-Serif" font-size="10.00">LinePlot()</text>
<text text-anchor="start" x="156" y="-51.5" font-family="Helvetica,sans-Serif" font-size="10.00">+</text>
<text text-anchor="start" x="171.5" y="-51.5" font-family="Helvetica,sans-Serif" font-size="10.00">render()</text>
<text text-anchor="start" x="156" y="-36.5" font-family="Helvetica,sans-Serif" font-size="10.00">+</text>
<text text-anchor="start" x="171.5" y="-36.5" font-family="Helvetica,sans-Serif" font-size="10.00">setAutoFit()</text>
<text text-anchor="start" x="156" y="-21.5" font-family="Helvetica,sans-Serif" font-size="10.00">+</text>
<text text-anchor="start" x="171.5" y="-21.5" font-family="Helvetica,sans-Serif" font-size="10.00">setLineThickness()</text>
<text text-anchor="start" x="156" y="-6.5" font-family="Helvetica,sans-Serif" font-size="10.00">+</text>
<text text-anchor="start" x="171.5" y="-6.5" font-family="Helvetica,sans-Serif" font-size="10.00">toString()</text>
<polygon fill="#666666" stroke="#666666" points="149.5,-121.5 149.5,-121.5 274.5,-121.5 274.5,-121.5 149.5,-121.5"/>
<polygon fill="#666666" stroke="#666666" points="149.5,-106.5 149.5,-106.5 274.5,-106.5 274.5,-106.5 149.5,-106.5"/>
<polygon fill="none" stroke="#666666" points="149,0 149,-139 274,-139 274,0 149,0"/>
</a>
</g>
</g>
<!-- Node1&#45;&gt;Node3 -->
<g id="edge2_Node000001_Node000003" class="edge">
<title>Node1&#45;&gt;Node3</title>
<g id="a_edge2_Node000001_Node000003"><a xlink:title=" ">
<path fill="none" stroke="#63b8ff" d="M178.68,-165.15C181.76,-156.26 184.81,-147.47 187.73,-139.05"/>
<polygon fill="none" stroke="#63b8ff" points="175.29,-164.23 175.32,-174.82 181.9,-166.52 175.29,-164.23"/>
</a>
</g>
</g>
</g>
</svg>
