<?xml version="1.0" encoding="UTF-8" standalone="no"?>
<!DOCTYPE svg PUBLIC "-//W3C//DTD SVG 1.1//EN"
 "http://www.w3.org/Graphics/SVG/1.1/DTD/svg11.dtd">
<!-- Generated by graphviz version 2.43.0 (0)
 -->
<!-- Title: dnf_composer::element::OscillatoryKernel::step Pages: 1 -->
<svg width="538pt" height="182pt"
 viewBox="0.00 0.00 538.00 182.00" xmlns="http://www.w3.org/2000/svg" xmlns:xlink="http://www.w3.org/1999/xlink">
<g id="graph0" class="graph" transform="scale(1 1) rotate(0) translate(4 178)">
<title>dnf_composer::element::OscillatoryKernel::step</title>
<!-- Node1 -->
<g id="Node000001" class="node">
<title>Node1</title>
<g id="a_Node000001"><a xlink:title="Advance the element by one time step.">
<polygon fill="#999999" stroke="#666666" points="133,-102 0,-102 0,-72 133,-72 133,-102"/>
<text text-anchor="start" x="8" y="-90" font-family="Helvetica,sans-Serif" font-size="10.00">dnf_composer::element</text>
<text text-anchor="middle" x="66.5" y="-79" font-family="Helvetica,sans-Serif" font-size="10.00">::OscillatoryKernel::step</text>
</a>
</g>
</g>
<!-- Node2 -->
<g id="Node000002" class="node">
<title>Node2</title>
<g id="a_Node000002"><a xlink:href="namespacednf__composer_1_1tools_1_1math.html#acaa6baa4408e4f22fdc63b4e0c86a21e" target="_top" xlink:title=" ">
<polygon fill="white" stroke="#666666" points="324.5,-174 190.5,-174 190.5,-144 324.5,-144 324.5,-174"/>
<text text-anchor="start" x="198.5" y="-162" font-family="Helvetica,sans-Serif" font-size="10.00">dnf_composer::tools</text>
<text text-anchor="middle" x="257.5" y="-151" font-family="Helvetica,sans-Serif" font-size="10.00">::math::conv_same_into</text>
</a>
</g>
</g>
<!-- Node1&#45;&gt;Node2 -->
<g id="edge1_Node000001_Node000002" class="edge">
<title>Node1&#45;&gt;Node2</title>
<g id="a_edge1_Node000001_Node000002"><a xlink:title=" ">
<path fill="none" stroke="#63b8ff" d="M95.8,-102.02C115.85,-112.25 143.59,-125.59 169,-135 174.58,-137.07 180.42,-139.05 186.33,-140.92"/>
<polygon fill="#63b8ff" stroke="#63b8ff" points="185.7,-144.39 196.28,-143.97 187.75,-137.7 185.7,-144.39"/>
</a>
</g>
</g>
<!-- Node3 -->
<g id="Node000003" class="node">
<title>Node3</title>
<g id="a_Node000003"><a xlink:href="namespacednf__composer_1_1tools_1_1math.html#ad862439d033f9f7a74671d9fd5916e6d" target="_top" xlink:title=" ">
<polygon fill="white" stroke="#666666" points="323,-126 192,-126 192,-96 323,-96 323,-126"/>
<text text-anchor="start" x="200" y="-114" font-family="Helvetica,sans-Serif" font-size="10.00">dnf_composer::tools</text>
<text text-anchor="middle" x="257.5" y="-103" font-family="Helvetica,sans-Serif" font-size="10.00">::math::conv_valid_into</text>
</a>
</g>
</g>
<!-- Node1&#45;&gt;Node3 -->
<g id="edge2_Node000001_Node000003" class="edge">
<title>Node1&#45;&gt;Node3</title>
<g id="a_edge2_Node000001_Node000003"><a xlink:title=" ">
<path fill="none" stroke="#63b8ff" d="M133.07,-95.33C148.64,-97.3 165.37,-99.43 181.33,-101.45"/>
<polygon fill="#63b8ff" stroke="#63b8ff" points="181.32,-104.98 191.68,-102.77 182.2,-98.04 181.32,-104.98"/>
</a>
</g>
</g>
<!-- Node4 -->
<g id="Node000004" class="node">
<title>Node4</title>
<g id="a_Node000004"><a xlink:href="namespacednf__composer_1_1tools_1_1math.html#aec1f39db13636109a1de5b032117e7ad" target="_top" xlink:title=" ">
<polygon fill="white" stroke="#666666" points="346,-78 169,-78 169,-48 346,-48 346,-78"/>
<text text-anchor="start" x="177" y="-66" font-family="Helvetica,sans-Serif" font-size="10.00">dnf_composer::tools</text>
<text text-anchor="middle" x="257.5" y="-55" font-family="Helvetica,sans-Serif" font-size="10.00">::math::obtainCircularVector_into</text>
</a>
</g>
</g>
<!-- Node1&#45;&gt;Node4 -->
<g id="edge3_Node000001_Node000004" class="edge">
<title>Node1&#45;&gt;Node4</title>
<g id="a_edge3_Node000001_Node000004"><a xlink:title=" ">
<path fill="none" stroke="#63b8ff" d="M133.07,-78.67C141.35,-77.62 149.95,-76.53 158.59,-75.43"/>
<polygon fill="#63b8ff" stroke="#63b8ff" points="159.26,-78.88 168.74,-74.14 158.38,-71.93 159.26,-78.88"/>
</a>
</g>
</g>
<!-- Node5 -->
<g id="Node000005" class="node">
<title>Node5</title>
<g id="a_Node000005"><a xlink:href="classdnf__composer_1_1element_1_1Element.html#a87401af54d46e1cf99d2755d3fce0a9a" target="_top" xlink:title="Pull data from all registered input elements into this element&#39;s components.">
<polygon fill="white" stroke="#666666" points="323.5,-30 191.5,-30 191.5,0 323.5,0 323.5,-30"/>
<text text-anchor="start" x="199.5" y="-18" font-family="Helvetica,sans-Serif" font-size="10.00">dnf_composer::element</text>
<text text-anchor="middle" x="257.5" y="-7" font-family="Helvetica,sans-Serif" font-size="10.00">::Element::updateInput</text>
</a>
</g>
</g>
<!-- Node1&#45;&gt;Node5 -->
<g id="edge4_Node000001_Node000005" class="edge">
<title>Node1&#45;&gt;Node5</title>
<g id="a_edge4_Node000001_Node000005"><a xlink:title=" ">
<path fill="none" stroke="#63b8ff" d="M95.8,-71.98C115.85,-61.75 143.59,-48.41 169,-39 174.58,-36.93 180.42,-34.95 186.33,-33.08"/>
<polygon fill="#63b8ff" stroke="#63b8ff" points="187.75,-36.3 196.28,-30.03 185.7,-29.61 187.75,-36.3"/>
</a>
</g>
</g>
<!-- Node6 -->
<g id="Node000006" class="node">
<title>Node6</title>
<g id="a_Node000006"><a xlink:href="classdnf__composer_1_1element_1_1Element.html#a48e4fcaeda8316d79dfaa8de41cec87e" target="_top" xlink:title="Cache raw pointers to input component data. Call after all element init()s complete.">
<polygon fill="white" stroke="#666666" points="530,-30 382,-30 382,0 530,0 530,-30"/>
<text text-anchor="start" x="390" y="-18" font-family="Helvetica,sans-Serif" font-size="10.00">dnf_composer::element</text>
<text text-anchor="middle" x="456" y="-7" font-family="Helvetica,sans-Serif" font-size="10.00">::Element::buildInputCache</text>
</a>
</g>
</g>
<!-- Node5&#45;&gt;Node6 -->
<g id="edge5_Node000005_Node000006" class="edge">
<title>Node5&#45;&gt;Node6</title>
<g id="a_edge5_Node000005_Node000006"><a xlink:title=" ">
<path fill="none" stroke="#63b8ff" d="M323.66,-15C338.96,-15 355.48,-15 371.47,-15"/>
<polygon fill="#63b8ff" stroke="#63b8ff" points="371.88,-18.5 381.88,-15 371.88,-11.5 371.88,-18.5"/>
</a>
</g>
</g>
</g>
</svg>
