<?xml version="1.0" encoding="UTF-8" standalone="no"?>
<!DOCTYPE svg PUBLIC "-//W3C//DTD SVG 1.1//EN"
 "http://www.w3.org/Graphics/SVG/1.1/DTD/svg11.dtd">
<!-- Generated by graphviz version 2.43.0 (0)
 -->
<!-- Title: dnf_composer::Simulation::init Pages: 1 -->
<svg width="354pt" height="124pt"
 viewBox="0.00 0.00 354.00 124.00" xmlns="http://www.w3.org/2000/svg" xmlns:xlink="http://www.w3.org/1999/xlink">
<g id="graph0" class="graph" transform="scale(1 1) rotate(0) translate(4 120)">
<title>dnf_composer::Simulation::init</title>
<!-- Node1 -->
<g id="Node000001" class="node">
<title>Node1</title>
<g id="a_Node000001"><a xlink:title="Initialize all registered elements. Must be called before step().">
<polygon fill="#999999" stroke="#666666" points="346,-73 202,-73 202,-43 346,-43 346,-73"/>
<text text-anchor="start" x="210" y="-61" font-family="Helvetica,sans-Serif" font-size="10.00">dnf_composer::Simulation</text>
<text text-anchor="middle" x="274" y="-50" font-family="Helvetica,sans-Serif" font-size="10.00">::init</text>
</a>
</g>
</g>
<!-- Node2 -->
<g id="Node000002" class="node">
<title>Node2</title>
<g id="a_Node000002"><a xlink:href="classdnf__composer_1_1Simulation.html#a487ef819fe0e501707580714b92b80ca" target="_top" xlink:title="Deserialize the simulation state from a JSON file.">
<polygon fill="white" stroke="#666666" points="155,-116 11,-116 11,-86 155,-86 155,-116"/>
<text text-anchor="start" x="19" y="-104" font-family="Helvetica,sans-Serif" font-size="10.00">dnf_composer::Simulation</text>
<text text-anchor="middle" x="83" y="-93" font-family="Helvetica,sans-Serif" font-size="10.00">::read</text>
</a>
</g>
</g>
<!-- Node1&#45;&gt;Node2 -->
<g id="edge1_Node000001_Node000002" class="edge">
<title>Node1&#45;&gt;Node2</title>
<g id="a_edge1_Node000001_Node000002"><a xlink:title=" ">
<path fill="none" stroke="#63b8ff" d="M196.83,-75.33C181.34,-78.85 165.17,-82.53 150.07,-85.97"/>
<polygon fill="#63b8ff" stroke="#63b8ff" points="197.92,-78.67 206.9,-73.04 196.37,-71.85 197.92,-78.67"/>
</a>
</g>
</g>
<!-- Node3 -->
<g id="Node000003" class="node">
<title>Node3</title>
<g id="a_Node000003"><a xlink:href="classdnf__composer_1_1Simulation.html#adc98d900b0ed2e9f901ee9bf0170d93b" target="_top" xlink:title="Run the simulation for runTime milliseconds (blocking).">
<polygon fill="white" stroke="#666666" points="166,-67.5 0,-67.5 0,-48.5 166,-48.5 166,-67.5"/>
<text text-anchor="middle" x="83" y="-55.5" font-family="Helvetica,sans-Serif" font-size="10.00">dnf_composer::Simulation::run</text>
</a>
</g>
</g>
<!-- Node1&#45;&gt;Node3 -->
<g id="edge2_Node000001_Node000003" class="edge">
<title>Node1&#45;&gt;Node3</title>
<g id="a_edge2_Node000001_Node000003"><a xlink:title=" ">
<path fill="none" stroke="#63b8ff" d="M191.64,-58C183.22,-58 174.66,-58 166.23,-58"/>
<polygon fill="#63b8ff" stroke="#63b8ff" points="191.82,-61.5 201.82,-58 191.82,-54.5 191.82,-61.5"/>
</a>
</g>
</g>
<!-- Node4 -->
<g id="Node000004" class="node">
<title>Node4</title>
<g id="a_Node000004"><a xlink:href="classdnf__composer_1_1Simulation.html#a02cc12769e196f46a1ca4eb4f360fc3c" target="_top" xlink:title="Run the simulation in real&#45;time for milliseconds wall&#45;clock ms.">
<polygon fill="white" stroke="#666666" points="155,-30 11,-30 11,0 155,0 155,-30"/>
<text text-anchor="start" x="19" y="-18" font-family="Helvetica,sans-Serif" font-size="10.00">dnf_composer::Simulation</text>
<text text-anchor="middle" x="83" y="-7" font-family="Helvetica,sans-Serif" font-size="10.00">::runForRealTime</text>
</a>
</g>
</g>
<!-- Node1&#45;&gt;Node4 -->
<g id="edge3_Node000001_Node000004" class="edge">
<title>Node1&#45;&gt;Node4</title>
<g id="a_edge3_Node000001_Node000004"><a xlink:title=" ">
<path fill="none" stroke="#63b8ff" d="M196.83,-40.67C181.34,-37.15 165.17,-33.47 150.07,-30.03"/>
<polygon fill="#63b8ff" stroke="#63b8ff" points="196.37,-44.15 206.9,-42.96 197.92,-37.33 196.37,-44.15"/>
</a>
</g>
</g>
</g>
</svg>
