<?xml version="1.0" encoding="UTF-8" standalone="no"?>
<!DOCTYPE svg PUBLIC "-//W3C//DTD SVG 1.1//EN"
 "http://www.w3.org/Graphics/SVG/1.1/DTD/svg11.dtd">
<!-- Generated by graphviz version 2.43.0 (0)
 -->
<!-- Title: dnf_composer::element::Kernel Pages: 1 -->
<svg width="590pt" height="731pt"
 viewBox="0.00 0.00 589.50 731.00" xmlns="http://www.w3.org/2000/svg" xmlns:xlink="http://www.w3.org/1999/xlink">
<g id="graph0" class="graph" transform="scale(1 1) rotate(0) translate(4 727)">
<title>dnf_composer::element::Kernel</title>
<!-- Node1 -->
<g id="Node000001" class="node">
<title>Node1</title>
<g id="a_Node000001"><a xlink:title="Abstract base class for all convolution&#45;based interaction kernels.">
<polygon fill="#999999" stroke="transparent" points="365.5,-336 239.5,-336 239.5,-186 365.5,-186 365.5,-336"/>
<text text-anchor="start" x="244.5" y="-324" font-family="Helvetica,sans-Serif" font-size="10.00">dnf_composer::element</text>
<text text-anchor="start" x="284" y="-313" font-family="Helvetica,sans-Serif" font-size="10.00">::Kernel</text>
<text text-anchor="start" x="248.5" y="-298" font-family="Helvetica,sans-Serif" font-size="10.00">#</text>
<text text-anchor="start" x="266.5" y="-298" font-family="Helvetica,sans-Serif" font-size="10.00">cutOfFactor</text>
<text text-anchor="start" x="248.5" y="-283" font-family="Helvetica,sans-Serif" font-size="10.00">#</text>
<text text-anchor="start" x="266.5" y="-283" font-family="Helvetica,sans-Serif" font-size="10.00">extIndex</text>
<text text-anchor="start" x="248.5" y="-268" font-family="Helvetica,sans-Serif" font-size="10.00">#</text>
<text text-anchor="start" x="266.5" y="-268" font-family="Helvetica,sans-Serif" font-size="10.00">fullSum</text>
<text text-anchor="start" x="248.5" y="-253" font-family="Helvetica,sans-Serif" font-size="10.00">#</text>
<text text-anchor="start" x="266.5" y="-253" font-family="Helvetica,sans-Serif" font-size="10.00">kernelRange</text>
<text text-anchor="start" x="248.5" y="-238" font-family="Helvetica,sans-Serif" font-size="10.00">+</text>
<text text-anchor="start" x="266.5" y="-238" font-family="Helvetica,sans-Serif" font-size="10.00">getExtIndex()</text>
<text text-anchor="start" x="248.5" y="-223" font-family="Helvetica,sans-Serif" font-size="10.00">+</text>
<text text-anchor="start" x="266.5" y="-223" font-family="Helvetica,sans-Serif" font-size="10.00">getKernelRange()</text>
<text text-anchor="start" x="248.5" y="-208" font-family="Helvetica,sans-Serif" font-size="10.00">+</text>
<text text-anchor="start" x="266.5" y="-208" font-family="Helvetica,sans-Serif" font-size="10.00">Kernel()</text>
<text text-anchor="start" x="248.5" y="-193" font-family="Helvetica,sans-Serif" font-size="10.00">+</text>
<text text-anchor="start" x="266.5" y="-193" font-family="Helvetica,sans-Serif" font-size="10.00">~Kernel()</text>
<polygon fill="#666666" stroke="#666666" points="239.5,-308 239.5,-308 365.5,-308 365.5,-308 239.5,-308"/>
<polygon fill="#666666" stroke="#666666" points="239.5,-248 239.5,-248 264.5,-248 264.5,-248 239.5,-248"/>
<polygon fill="#666666" stroke="#666666" points="264.5,-248 264.5,-248 365.5,-248 365.5,-248 264.5,-248"/>
<polygon fill="none" stroke="#666666" points="239.5,-186 239.5,-336 365.5,-336 365.5,-186 239.5,-186"/>
</a>
</g>
</g>
<!-- Node4 -->
<g id="Node000004" class="node">
<title>Node4</title>
<g id="a_Node000004"><a xlink:href="classdnf__composer_1_1element_1_1AsymmetricGaussKernel.html" target="_top" xlink:title="Spatially shifted Gaussian kernel that induces directional peak drift.">
<polygon fill="white" stroke="transparent" points="149,-150 0,-150 0,0 149,0 149,-150"/>
<text text-anchor="start" x="11.5" y="-138" font-family="Helvetica,sans-Serif" font-size="10.00">dnf_composer::element</text>
<text text-anchor="start" x="11.5" y="-127" font-family="Helvetica,sans-Serif" font-size="10.00">::AsymmetricGaussKernel</text>
<text text-anchor="start" x="73" y="-112" font-family="Helvetica,sans-Serif" font-size="10.00"> </text>
<text text-anchor="start" x="4.5" y="-97" font-family="Helvetica,sans-Serif" font-size="10.00">+</text>
<text text-anchor="start" x="17.5" y="-97" font-family="Helvetica,sans-Serif" font-size="10.00">AsymmetricGaussKernel()</text>
<text text-anchor="start" x="4.5" y="-82" font-family="Helvetica,sans-Serif" font-size="10.00">+</text>
<text text-anchor="start" x="17.5" y="-82" font-family="Helvetica,sans-Serif" font-size="10.00">clone()</text>
<text text-anchor="start" x="4.5" y="-67" font-family="Helvetica,sans-Serif" font-size="10.00">+</text>
<text text-anchor="start" x="17.5" y="-67" font-family="Helvetica,sans-Serif" font-size="10.00">getParameters()</text>
<text text-anchor="start" x="4.5" y="-52" font-family="Helvetica,sans-Serif" font-size="10.00">+</text>
<text text-anchor="start" x="17.5" y="-52" font-family="Helvetica,sans-Serif" font-size="10.00">init()</text>
<text text-anchor="start" x="4.5" y="-37" font-family="Helvetica,sans-Serif" font-size="10.00">+</text>
<text text-anchor="start" x="17.5" y="-37" font-family="Helvetica,sans-Serif" font-size="10.00">setParameters()</text>
<text text-anchor="start" x="4.5" y="-22" font-family="Helvetica,sans-Serif" font-size="10.00">+</text>
<text text-anchor="start" x="17.5" y="-22" font-family="Helvetica,sans-Serif" font-size="10.00">step()</text>
<text text-anchor="start" x="4.5" y="-7" font-family="Helvetica,sans-Serif" font-size="10.00">+</text>
<text text-anchor="start" x="17.5" y="-7" font-family="Helvetica,sans-Serif" font-size="10.00">toString()</text>
<polygon fill="#666666" stroke="#666666" points="0.5,-122 0.5,-122 149.5,-122 149.5,-122 0.5,-122"/>
<polygon fill="#666666" stroke="#666666" points="0.5,-107 0.5,-107 149.5,-107 149.5,-107 0.5,-107"/>
<polygon fill="none" stroke="#666666" points="0,0 0,-150 149,-150 149,0 0,0"/>
</a>
</g>
</g>
<!-- Node1&#45;&gt;Node4 -->
<g id="edge3_Node000001_Node000004" class="edge">
<title>Node1&#45;&gt;Node4</title>
<g id="a_edge3_Node000001_Node000004"><a xlink:title=" ">
<path fill="none" stroke="#63b8ff" d="M231.21,-207.1C207.78,-189.3 181.78,-169.1 158.5,-150 155.5,-147.53 152.45,-145 149.38,-142.43"/>
<polygon fill="none" stroke="#63b8ff" points="229.3,-210.04 239.38,-213.29 233.53,-204.46 229.3,-210.04"/>
</a>
</g>
</g>
<!-- Node5 -->
<g id="Node000005" class="node">
<title>Node5</title>
<g id="a_Node000005"><a xlink:href="classdnf__composer_1_1element_1_1GaussKernel.html" target="_top" xlink:title="Gaussian convolution kernel providing local excitation and optional global inhibition.">
<polygon fill="white" stroke="transparent" points="293.5,-150 167.5,-150 167.5,0 293.5,0 293.5,-150"/>
<text text-anchor="start" x="172.5" y="-138" font-family="Helvetica,sans-Serif" font-size="10.00">dnf_composer::element</text>
<text text-anchor="start" x="197" y="-127" font-family="Helvetica,sans-Serif" font-size="10.00">::GaussKernel</text>
<text text-anchor="start" x="228.5" y="-112" font-family="Helvetica,sans-Serif" font-size="10.00"> </text>
<text text-anchor="start" x="178" y="-97" font-family="Helvetica,sans-Serif" font-size="10.00">+</text>
<text text-anchor="start" x="197.5" y="-97" font-family="Helvetica,sans-Serif" font-size="10.00">clone()</text>
<text text-anchor="start" x="178" y="-82" font-family="Helvetica,sans-Serif" font-size="10.00">+</text>
<text text-anchor="start" x="197.5" y="-82" font-family="Helvetica,sans-Serif" font-size="10.00">GaussKernel()</text>
<text text-anchor="start" x="178" y="-67" font-family="Helvetica,sans-Serif" font-size="10.00">+</text>
<text text-anchor="start" x="197.5" y="-67" font-family="Helvetica,sans-Serif" font-size="10.00">getParameters()</text>
<text text-anchor="start" x="178" y="-52" font-family="Helvetica,sans-Serif" font-size="10.00">+</text>
<text text-anchor="start" x="197.5" y="-52" font-family="Helvetica,sans-Serif" font-size="10.00">init()</text>
<text text-anchor="start" x="178" y="-37" font-family="Helvetica,sans-Serif" font-size="10.00">+</text>
<text text-anchor="start" x="197.5" y="-37" font-family="Helvetica,sans-Serif" font-size="10.00">setParameters()</text>
<text text-anchor="start" x="178" y="-22" font-family="Helvetica,sans-Serif" font-size="10.00">+</text>
<text text-anchor="start" x="197.5" y="-22" font-family="Helvetica,sans-Serif" font-size="10.00">step()</text>
<text text-anchor="start" x="178" y="-7" font-family="Helvetica,sans-Serif" font-size="10.00">+</text>
<text text-anchor="start" x="197.5" y="-7" font-family="Helvetica,sans-Serif" font-size="10.00">toString()</text>
<polygon fill="#666666" stroke="#666666" points="167.5,-122 167.5,-122 293.5,-122 293.5,-122 167.5,-122"/>
<polygon fill="#666666" stroke="#666666" points="167.5,-107 167.5,-107 293.5,-107 293.5,-107 167.5,-107"/>
<polygon fill="none" stroke="#666666" points="167.5,0 167.5,-150 293.5,-150 293.5,0 167.5,0"/>
</a>
</g>
</g>
<!-- Node1&#45;&gt;Node5 -->
<g id="edge4_Node000001_Node000005" class="edge">
<title>Node1&#45;&gt;Node5</title>
<g id="a_edge4_Node000001_Node000005"><a xlink:title=" ">
<path fill="none" stroke="#63b8ff" d="M269.82,-176.49C266.39,-167.72 262.92,-158.85 259.53,-150.19"/>
<polygon fill="none" stroke="#63b8ff" points="266.62,-177.92 273.53,-185.96 273.14,-175.37 266.62,-177.92"/>
</a>
</g>
</g>
<!-- Node6 -->
<g id="Node000006" class="node">
<title>Node6</title>
<g id="a_Node000006"><a xlink:href="classdnf__composer_1_1element_1_1MexicanHatKernel.html" target="_top" xlink:title="Difference&#45;of&#45;Gaussians convolution kernel for DFT lateral interactions.">
<polygon fill="white" stroke="transparent" points="437.5,-150 311.5,-150 311.5,0 437.5,0 437.5,-150"/>
<text text-anchor="start" x="316.5" y="-138" font-family="Helvetica,sans-Serif" font-size="10.00">dnf_composer::element</text>
<text text-anchor="start" x="326.5" y="-127" font-family="Helvetica,sans-Serif" font-size="10.00">::MexicanHatKernel</text>
<text text-anchor="start" x="372.5" y="-112" font-family="Helvetica,sans-Serif" font-size="10.00"> </text>
<text text-anchor="start" x="317.5" y="-97" font-family="Helvetica,sans-Serif" font-size="10.00">+</text>
<text text-anchor="start" x="332.5" y="-97" font-family="Helvetica,sans-Serif" font-size="10.00">clone()</text>
<text text-anchor="start" x="317.5" y="-82" font-family="Helvetica,sans-Serif" font-size="10.00">+</text>
<text text-anchor="start" x="332.5" y="-82" font-family="Helvetica,sans-Serif" font-size="10.00">getParameters()</text>
<text text-anchor="start" x="317.5" y="-67" font-family="Helvetica,sans-Serif" font-size="10.00">+</text>
<text text-anchor="start" x="332.5" y="-67" font-family="Helvetica,sans-Serif" font-size="10.00">init()</text>
<text text-anchor="start" x="317.5" y="-52" font-family="Helvetica,sans-Serif" font-size="10.00">+</text>
<text text-anchor="start" x="332.5" y="-52" font-family="Helvetica,sans-Serif" font-size="10.00">MexicanHatKernel()</text>
<text text-anchor="start" x="317.5" y="-37" font-family="Helvetica,sans-Serif" font-size="10.00">+</text>
<text text-anchor="start" x="332.5" y="-37" font-family="Helvetica,sans-Serif" font-size="10.00">setParameters()</text>
<text text-anchor="start" x="317.5" y="-22" font-family="Helvetica,sans-Serif" font-size="10.00">+</text>
<text text-anchor="start" x="332.5" y="-22" font-family="Helvetica,sans-Serif" font-size="10.00">step()</text>
<text text-anchor="start" x="317.5" y="-7" font-family="Helvetica,sans-Serif" font-size="10.00">+</text>
<text text-anchor="start" x="332.5" y="-7" font-family="Helvetica,sans-Serif" font-size="10.00">toString()</text>
<polygon fill="#666666" stroke="#666666" points="311.5,-122 311.5,-122 437.5,-122 437.5,-122 311.5,-122"/>
<polygon fill="#666666" stroke="#666666" points="311.5,-107 311.5,-107 437.5,-107 437.5,-107 311.5,-107"/>
<polygon fill="none" stroke="#666666" points="311.5,0 311.5,-150 437.5,-150 437.5,0 311.5,0"/>
</a>
</g>
</g>
<!-- Node1&#45;&gt;Node6 -->
<g id="edge5_Node000001_Node000006" class="edge">
<title>Node1&#45;&gt;Node6</title>
<g id="a_edge5_Node000001_Node000006"><a xlink:title=" ">
<path fill="none" stroke="#63b8ff" d="M335.18,-176.49C338.61,-167.72 342.08,-158.85 345.47,-150.19"/>
<polygon fill="none" stroke="#63b8ff" points="331.86,-175.37 331.47,-185.96 338.38,-177.92 331.86,-175.37"/>
</a>
</g>
</g>
<!-- Node7 -->
<g id="Node000007" class="node">
<title>Node7</title>
<g id="a_Node000007"><a xlink:href="classdnf__composer_1_1element_1_1OscillatoryKernel.html" target="_top" xlink:title="Damped&#45;cosine convolution kernel for oscillatory field dynamics.">
<polygon fill="white" stroke="transparent" points="581.5,-150 455.5,-150 455.5,0 581.5,0 581.5,-150"/>
<text text-anchor="start" x="460.5" y="-138" font-family="Helvetica,sans-Serif" font-size="10.00">dnf_composer::element</text>
<text text-anchor="start" x="473.5" y="-127" font-family="Helvetica,sans-Serif" font-size="10.00">::OscillatoryKernel</text>
<text text-anchor="start" x="516.5" y="-112" font-family="Helvetica,sans-Serif" font-size="10.00"> </text>
<text text-anchor="start" x="463" y="-97" font-family="Helvetica,sans-Serif" font-size="10.00">+</text>
<text text-anchor="start" x="479.5" y="-97" font-family="Helvetica,sans-Serif" font-size="10.00">clone()</text>
<text text-anchor="start" x="463" y="-82" font-family="Helvetica,sans-Serif" font-size="10.00">+</text>
<text text-anchor="start" x="479.5" y="-82" font-family="Helvetica,sans-Serif" font-size="10.00">getParameters()</text>
<text text-anchor="start" x="463" y="-67" font-family="Helvetica,sans-Serif" font-size="10.00">+</text>
<text text-anchor="start" x="479.5" y="-67" font-family="Helvetica,sans-Serif" font-size="10.00">init()</text>
<text text-anchor="start" x="463" y="-52" font-family="Helvetica,sans-Serif" font-size="10.00">+</text>
<text text-anchor="start" x="479.5" y="-52" font-family="Helvetica,sans-Serif" font-size="10.00">OscillatoryKernel()</text>
<text text-anchor="start" x="463" y="-37" font-family="Helvetica,sans-Serif" font-size="10.00">+</text>
<text text-anchor="start" x="479.5" y="-37" font-family="Helvetica,sans-Serif" font-size="10.00">setParameters()</text>
<text text-anchor="start" x="463" y="-22" font-family="Helvetica,sans-Serif" font-size="10.00">+</text>
<text text-anchor="start" x="479.5" y="-22" font-family="Helvetica,sans-Serif" font-size="10.00">step()</text>
<text text-anchor="start" x="463" y="-7" font-family="Helvetica,sans-Serif" font-size="10.00">+</text>
<text text-anchor="start" x="479.5" y="-7" font-family="Helvetica,sans-Serif" font-size="10.00">toString()</text>
<polygon fill="#666666" stroke="#666666" points="455.5,-122 455.5,-122 581.5,-122 581.5,-122 455.5,-122"/>
<polygon fill="#666666" stroke="#666666" points="455.5,-107 455.5,-107 581.5,-107 581.5,-107 455.5,-107"/>
<polygon fill="none" stroke="#666666" points="455.5,0 455.5,-150 581.5,-150 581.5,0 455.5,0"/>
</a>
</g>
</g>
<!-- Node1&#45;&gt;Node7 -->
<g id="edge6_Node000001_Node000007" class="edge">
<title>Node1&#45;&gt;Node7</title>
<g id="a_edge6_Node000001_Node000007"><a xlink:title=" ">
<path fill="none" stroke="#63b8ff" d="M374.02,-208.63C397.68,-190.78 423.77,-170.17 446.5,-150 449.45,-147.38 452.42,-144.67 455.4,-141.89"/>
<polygon fill="none" stroke="#63b8ff" points="371.66,-206.03 365.75,-214.82 375.86,-211.63 371.66,-206.03"/>
</a>
</g>
</g>
<!-- Node2 -->
<g id="Node000002" class="node">
<title>Node2</title>
<g id="a_Node000002"><a xlink:href="classdnf__composer_1_1element_1_1Element.html" target="_top" xlink:title="Abstract base class for all simulation elements.">
<polygon fill="white" stroke="transparent" points="365.5,-627 239.5,-627 239.5,-372 365.5,-372 365.5,-627"/>
<text text-anchor="start" x="244.5" y="-614.5" font-family="Helvetica,sans-Serif" font-size="10.00">dnf_composer::element</text>
<text text-anchor="start" x="279" y="-603.5" font-family="Helvetica,sans-Serif" font-size="10.00">::Element</text>
<text text-anchor="start" x="244.5" y="-588.5" font-family="Helvetica,sans-Serif" font-size="10.00">#</text>
<text text-anchor="start" x="258.5" y="-588.5" font-family="Helvetica,sans-Serif" font-size="10.00">commonParameters</text>
<text text-anchor="start" x="244.5" y="-573.5" font-family="Helvetica,sans-Serif" font-size="10.00">#</text>
<text text-anchor="start" x="258.5" y="-573.5" font-family="Helvetica,sans-Serif" font-size="10.00">components</text>
<text text-anchor="start" x="244.5" y="-558.5" font-family="Helvetica,sans-Serif" font-size="10.00">#</text>
<text text-anchor="start" x="258.5" y="-558.5" font-family="Helvetica,sans-Serif" font-size="10.00">inputs</text>
<text text-anchor="start" x="244.5" y="-543.5" font-family="Helvetica,sans-Serif" font-size="10.00">#</text>
<text text-anchor="start" x="258.5" y="-543.5" font-family="Helvetica,sans-Serif" font-size="10.00">outputs</text>
<text text-anchor="start" x="244.5" y="-528.5" font-family="Helvetica,sans-Serif" font-size="10.00">+</text>
<text text-anchor="start" x="258.5" y="-528.5" font-family="Helvetica,sans-Serif" font-size="10.00">addInput()</text>
<text text-anchor="start" x="244.5" y="-513.5" font-family="Helvetica,sans-Serif" font-size="10.00">+</text>
<text text-anchor="start" x="258.5" y="-513.5" font-family="Helvetica,sans-Serif" font-size="10.00">buildInputCache()</text>
<text text-anchor="start" x="244.5" y="-498.5" font-family="Helvetica,sans-Serif" font-size="10.00">+</text>
<text text-anchor="start" x="258.5" y="-498.5" font-family="Helvetica,sans-Serif" font-size="10.00">changeDimensions()</text>
<text text-anchor="start" x="244.5" y="-483.5" font-family="Helvetica,sans-Serif" font-size="10.00">+</text>
<text text-anchor="start" x="258.5" y="-483.5" font-family="Helvetica,sans-Serif" font-size="10.00">clone()</text>
<text text-anchor="start" x="244.5" y="-468.5" font-family="Helvetica,sans-Serif" font-size="10.00">+</text>
<text text-anchor="start" x="258.5" y="-468.5" font-family="Helvetica,sans-Serif" font-size="10.00">close()</text>
<text text-anchor="start" x="244.5" y="-453.5" font-family="Helvetica,sans-Serif" font-size="10.00">+</text>
<text text-anchor="start" x="258.5" y="-453.5" font-family="Helvetica,sans-Serif" font-size="10.00">Element()</text>
<text text-anchor="start" x="244.5" y="-438.5" font-family="Helvetica,sans-Serif" font-size="10.00">+</text>
<text text-anchor="start" x="258.5" y="-438.5" font-family="Helvetica,sans-Serif" font-size="10.00">getComponent()</text>
<text text-anchor="start" x="244.5" y="-423.5" font-family="Helvetica,sans-Serif" font-size="10.00">+</text>
<text text-anchor="start" x="258.5" y="-423.5" font-family="Helvetica,sans-Serif" font-size="10.00">getComponentList()</text>
<text text-anchor="start" x="244.5" y="-408.5" font-family="Helvetica,sans-Serif" font-size="10.00">+</text>
<text text-anchor="start" x="258.5" y="-408.5" font-family="Helvetica,sans-Serif" font-size="10.00">getComponentPtr()</text>
<text text-anchor="start" x="244.5" y="-393.5" font-family="Helvetica,sans-Serif" font-size="10.00">+</text>
<text text-anchor="start" x="258.5" y="-393.5" font-family="Helvetica,sans-Serif" font-size="10.00">getComponents()</text>
<text text-anchor="start" x="258.5" y="-378.5" font-family="Helvetica,sans-Serif" font-size="10.00">and 28 more...</text>
<polygon fill="#666666" stroke="#666666" points="239.5,-598.5 239.5,-598.5 365.5,-598.5 365.5,-598.5 239.5,-598.5"/>
<polygon fill="#666666" stroke="#666666" points="239.5,-538.5 239.5,-538.5 256.5,-538.5 256.5,-538.5 239.5,-538.5"/>
<polygon fill="#666666" stroke="#666666" points="256.5,-538.5 256.5,-538.5 365.5,-538.5 365.5,-538.5 256.5,-538.5"/>
<polygon fill="none" stroke="#666666" points="239.5,-372 239.5,-627 365.5,-627 365.5,-372 239.5,-372"/>
</a>
</g>
</g>
<!-- Node2&#45;&gt;Node1 -->
<g id="edge1_Node000001_Node000002" class="edge">
<title>Node2&#45;&gt;Node1</title>
<g id="a_edge1_Node000001_Node000002"><a xlink:title=" ">
<path fill="none" stroke="#63b8ff" d="M302.5,-361.7C302.5,-353.01 302.5,-344.46 302.5,-336.25"/>
<polygon fill="none" stroke="#63b8ff" points="299,-361.94 302.5,-371.94 306,-361.94 299,-361.94"/>
</a>
</g>
</g>
<!-- Node3 -->
<g id="Node000003" class="node">
<title>Node3</title>
<g id="a_Node000003"><a xlink:title=" ">
<polygon fill="white" stroke="transparent" points="365,-723 240,-723 240,-663 365,-663 365,-723"/>
<text text-anchor="start" x="245.5" y="-711" font-family="Helvetica,sans-Serif" font-size="10.00">std::enable_shared</text>
<text text-anchor="start" x="245.5" y="-700" font-family="Helvetica,sans-Serif" font-size="10.00">_from_this&lt; Element &gt;</text>
<text text-anchor="start" x="301" y="-685" font-family="Helvetica,sans-Serif" font-size="10.00"> </text>
<text text-anchor="start" x="301" y="-670" font-family="Helvetica,sans-Serif" font-size="10.00"> </text>
<polygon fill="#666666" stroke="#666666" points="240.5,-695 240.5,-695 365.5,-695 365.5,-695 240.5,-695"/>
<polygon fill="#666666" stroke="#666666" points="240.5,-680 240.5,-680 365.5,-680 365.5,-680 240.5,-680"/>
<polygon fill="none" stroke="#666666" points="240,-663 240,-723 365,-723 365,-663 240,-663"/>
</a>
</g>
</g>
<!-- Node3&#45;&gt;Node2 -->
<g id="edge2_Node000002_Node000003" class="edge">
<title>Node3&#45;&gt;Node2</title>
<g id="a_edge2_Node000002_Node000003"><a xlink:title=" ">
<path fill="none" stroke="#63b8ff" d="M302.5,-652.74C302.5,-644.9 302.5,-636.27 302.5,-627.23"/>
<polygon fill="none" stroke="#63b8ff" points="299,-652.92 302.5,-662.92 306,-652.92 299,-652.92"/>
</a>
</g>
</g>
</g>
</svg>
