<?xml version="1.0" encoding="UTF-8" standalone="no"?>
<!DOCTYPE svg PUBLIC "-//W3C//DTD SVG 1.1//EN"
 "http://www.w3.org/Graphics/SVG/1.1/DTD/svg11.dtd">
<!-- Generated by graphviz version 2.43.0 (0)
 -->
<!-- Title: dnf_composer::element::GaussKernel2D::toString Pages: 1 -->
<svg width="516pt" height="137pt"
 viewBox="0.00 0.00 516.00 137.00" xmlns="http://www.w3.org/2000/svg" xmlns:xlink="http://www.w3.org/1999/xlink">
<g id="graph0" class="graph" transform="scale(1 1) rotate(0) translate(4 133)">
<title>dnf_composer::element::GaussKernel2D::toString</title>
<!-- Node1 -->
<g id="Node000001" class="node">
<title>Node1</title>
<g id="a_Node000001"><a xlink:title=" ">
<polygon fill="#999999" stroke="#666666" points="141,-64.5 0,-64.5 0,-34.5 141,-34.5 141,-64.5"/>
<text text-anchor="start" x="8" y="-52.5" font-family="Helvetica,sans-Serif" font-size="10.00">dnf_composer::element</text>
<text text-anchor="middle" x="70.5" y="-41.5" font-family="Helvetica,sans-Serif" font-size="10.00">::GaussKernel2D::toString</text>
</a>
</g>
</g>
<!-- Node2 -->
<g id="Node000002" class="node">
<title>Node2</title>
<g id="a_Node000002"><a xlink:href="structdnf__composer_1_1element_1_1ElementCommonParameters.html#a83c667c71a22c80a0e415da7fab9795b" target="_top" xlink:title=" ">
<polygon fill="white" stroke="#666666" points="340,-100 177,-100 177,-59 340,-59 340,-100"/>
<text text-anchor="start" x="185" y="-88" font-family="Helvetica,sans-Serif" font-size="10.00">dnf_composer::element</text>
<text text-anchor="start" x="185" y="-77" font-family="Helvetica,sans-Serif" font-size="10.00">::ElementCommonParameters</text>
<text text-anchor="middle" x="258.5" y="-66" font-family="Helvetica,sans-Serif" font-size="10.00">::toString</text>
</a>
</g>
</g>
<!-- Node1&#45;&gt;Node2 -->
<g id="edge1_Node000001_Node000002" class="edge">
<title>Node1&#45;&gt;Node2</title>
<g id="a_edge1_Node000001_Node000002"><a xlink:title=" ">
<path fill="none" stroke="#63b8ff" d="M141.02,-60.71C149.4,-62.07 158.06,-63.46 166.68,-64.85"/>
<polygon fill="#63b8ff" stroke="#63b8ff" points="166.35,-68.34 176.78,-66.48 167.47,-61.43 166.35,-68.34"/>
</a>
</g>
</g>
<!-- Node5 -->
<g id="Node000005" class="node">
<title>Node5</title>
<g id="a_Node000005"><a xlink:href="structdnf__composer_1_1element_1_1GaussKernel2DParameters.html#af4a5c29a0424e75619235e30b22a6c64" target="_top" xlink:title=" ">
<polygon fill="white" stroke="#666666" points="334.5,-41 182.5,-41 182.5,0 334.5,0 334.5,-41"/>
<text text-anchor="start" x="190.5" y="-29" font-family="Helvetica,sans-Serif" font-size="10.00">dnf_composer::element</text>
<text text-anchor="start" x="190.5" y="-18" font-family="Helvetica,sans-Serif" font-size="10.00">::GaussKernel2DParameters</text>
<text text-anchor="middle" x="258.5" y="-7" font-family="Helvetica,sans-Serif" font-size="10.00">::toString</text>
</a>
</g>
</g>
<!-- Node1&#45;&gt;Node5 -->
<g id="edge4_Node000001_Node000005" class="edge">
<title>Node1&#45;&gt;Node5</title>
<g id="a_edge4_Node000001_Node000005"><a xlink:title=" ">
<path fill="none" stroke="#63b8ff" d="M141.02,-38.66C151.27,-37.06 161.92,-35.4 172.43,-33.76"/>
<polygon fill="#63b8ff" stroke="#63b8ff" points="173.11,-37.2 182.45,-32.2 172.03,-30.28 173.11,-37.2"/>
</a>
</g>
</g>
<!-- Node3 -->
<g id="Node000003" class="node">
<title>Node3</title>
<g id="a_Node000003"><a xlink:href="structdnf__composer_1_1element_1_1ElementDimensions.html#a1e2439e8cba19f3bf61a48cdd01c4fc7" target="_top" xlink:title=" ">
<polygon fill="white" stroke="#666666" points="508,-129 376,-129 376,-88 508,-88 508,-129"/>
<text text-anchor="start" x="384" y="-117" font-family="Helvetica,sans-Serif" font-size="10.00">dnf_composer::element</text>
<text text-anchor="start" x="384" y="-106" font-family="Helvetica,sans-Serif" font-size="10.00">::ElementDimensions::</text>
<text text-anchor="middle" x="442" y="-95" font-family="Helvetica,sans-Serif" font-size="10.00">toString</text>
</a>
</g>
</g>
<!-- Node2&#45;&gt;Node3 -->
<g id="edge2_Node000002_Node000003" class="edge">
<title>Node2&#45;&gt;Node3</title>
<g id="a_edge2_Node000002_Node000003"><a xlink:title=" ">
<path fill="none" stroke="#63b8ff" d="M340.17,-92.39C348.74,-93.76 357.44,-95.15 365.94,-96.51"/>
<polygon fill="#63b8ff" stroke="#63b8ff" points="365.39,-99.96 375.82,-98.09 366.5,-93.05 365.39,-99.96"/>
</a>
</g>
</g>
<!-- Node4 -->
<g id="Node000004" class="node">
<title>Node4</title>
<g id="a_Node000004"><a xlink:href="structdnf__composer_1_1element_1_1ElementIdentifiers.html#a0eb01a994b1696c38ea371454620d2d4" target="_top" xlink:title=" ">
<polygon fill="white" stroke="#666666" points="508,-70 376,-70 376,-29 508,-29 508,-70"/>
<text text-anchor="start" x="384" y="-58" font-family="Helvetica,sans-Serif" font-size="10.00">dnf_composer::element</text>
<text text-anchor="start" x="384" y="-47" font-family="Helvetica,sans-Serif" font-size="10.00">::ElementIdentifiers</text>
<text text-anchor="middle" x="442" y="-36" font-family="Helvetica,sans-Serif" font-size="10.00">::toString</text>
</a>
</g>
</g>
<!-- Node2&#45;&gt;Node4 -->
<g id="edge3_Node000002_Node000004" class="edge">
<title>Node2&#45;&gt;Node4</title>
<g id="a_edge3_Node000002_Node000004"><a xlink:title=" ">
<path fill="none" stroke="#63b8ff" d="M340.17,-66.17C348.74,-64.75 357.44,-63.31 365.94,-61.91"/>
<polygon fill="#63b8ff" stroke="#63b8ff" points="366.53,-65.36 375.82,-60.27 365.38,-58.45 366.53,-65.36"/>
</a>
</g>
</g>
</g>
</svg>
