<?xml version="1.0" encoding="UTF-8" standalone="no"?>
<!DOCTYPE svg PUBLIC "-//W3C//DTD SVG 1.1//EN"
 "http://www.w3.org/Graphics/SVG/1.1/DTD/svg11.dtd">
<!-- Generated by graphviz version 2.43.0 (0)
 -->
<!-- Title: dnf_composer::element::FieldCoupling Pages: 1 -->
<svg width="791pt" height="1210pt"
 viewBox="0.00 0.00 790.50 1210.00" xmlns="http://www.w3.org/2000/svg" xmlns:xlink="http://www.w3.org/1999/xlink">
<g id="graph0" class="graph" transform="scale(1 1) rotate(0) translate(4 1206)">
<title>dnf_composer::element::FieldCoupling</title>
<!-- Node1 -->
<g id="Node000001" class="node">
<title>Node1</title>
<g id="a_Node000001"><a xlink:title="Full&#45;matrix learned coupling between two neural fields.">
<polygon fill="#999999" stroke="transparent" points="276,-210 129,-210 129,0 276,0 276,-210"/>
<text text-anchor="start" x="145" y="-198" font-family="Helvetica,sans-Serif" font-size="10.00">dnf_composer::element</text>
<text text-anchor="start" x="166.5" y="-187" font-family="Helvetica,sans-Serif" font-size="10.00">::FieldCoupling</text>
<text text-anchor="start" x="201" y="-172" font-family="Helvetica,sans-Serif" font-size="10.00"> </text>
<text text-anchor="start" x="133.5" y="-157" font-family="Helvetica,sans-Serif" font-size="10.00">+</text>
<text text-anchor="start" x="146.5" y="-157" font-family="Helvetica,sans-Serif" font-size="10.00">changeDimensions()</text>
<text text-anchor="start" x="133.5" y="-142" font-family="Helvetica,sans-Serif" font-size="10.00">+</text>
<text text-anchor="start" x="146.5" y="-142" font-family="Helvetica,sans-Serif" font-size="10.00">changeInputDimensions()</text>
<text text-anchor="start" x="133.5" y="-127" font-family="Helvetica,sans-Serif" font-size="10.00">+</text>
<text text-anchor="start" x="146.5" y="-127" font-family="Helvetica,sans-Serif" font-size="10.00">clearWeights()</text>
<text text-anchor="start" x="133.5" y="-112" font-family="Helvetica,sans-Serif" font-size="10.00">+</text>
<text text-anchor="start" x="146.5" y="-112" font-family="Helvetica,sans-Serif" font-size="10.00">clone()</text>
<text text-anchor="start" x="133.5" y="-97" font-family="Helvetica,sans-Serif" font-size="10.00">+</text>
<text text-anchor="start" x="146.5" y="-97" font-family="Helvetica,sans-Serif" font-size="10.00">FieldCoupling()</text>
<text text-anchor="start" x="133.5" y="-82" font-family="Helvetica,sans-Serif" font-size="10.00">+</text>
<text text-anchor="start" x="146.5" y="-82" font-family="Helvetica,sans-Serif" font-size="10.00">getParameters()</text>
<text text-anchor="start" x="133.5" y="-67" font-family="Helvetica,sans-Serif" font-size="10.00">+</text>
<text text-anchor="start" x="146.5" y="-67" font-family="Helvetica,sans-Serif" font-size="10.00">getWeightsDirectory()</text>
<text text-anchor="start" x="133.5" y="-52" font-family="Helvetica,sans-Serif" font-size="10.00">+</text>
<text text-anchor="start" x="146.5" y="-52" font-family="Helvetica,sans-Serif" font-size="10.00">init()</text>
<text text-anchor="start" x="133.5" y="-37" font-family="Helvetica,sans-Serif" font-size="10.00">+</text>
<text text-anchor="start" x="146.5" y="-37" font-family="Helvetica,sans-Serif" font-size="10.00">readWeights()</text>
<text text-anchor="start" x="133.5" y="-22" font-family="Helvetica,sans-Serif" font-size="10.00">+</text>
<text text-anchor="start" x="146.5" y="-22" font-family="Helvetica,sans-Serif" font-size="10.00">setLearning()</text>
<text text-anchor="start" x="146.5" y="-7" font-family="Helvetica,sans-Serif" font-size="10.00">and 6 more...</text>
<polygon fill="#666666" stroke="#666666" points="129.5,-182 129.5,-182 276.5,-182 276.5,-182 129.5,-182"/>
<polygon fill="#666666" stroke="#666666" points="129.5,-167 129.5,-167 276.5,-167 276.5,-167 129.5,-167"/>
<polygon fill="none" stroke="#666666" points="129,0 129,-210 276,-210 276,0 129,0"/>
</a>
</g>
</g>
<!-- Node2 -->
<g id="Node000002" class="node">
<title>Node2</title>
<g id="a_Node000002"><a xlink:href="classdnf__composer_1_1element_1_1Element.html" target="_top" xlink:title="Abstract base class for all simulation elements.">
<polygon fill="white" stroke="transparent" points="488,-585 303,-585 303,-375 488,-375 488,-585"/>
<text text-anchor="start" x="338" y="-573" font-family="Helvetica,sans-Serif" font-size="10.00">dnf_composer::element</text>
<text text-anchor="start" x="372.5" y="-562" font-family="Helvetica,sans-Serif" font-size="10.00">::Element</text>
<text text-anchor="start" x="394" y="-547" font-family="Helvetica,sans-Serif" font-size="10.00"> </text>
<text text-anchor="start" x="307.5" y="-532" font-family="Helvetica,sans-Serif" font-size="10.00">+</text>
<text text-anchor="start" x="320.5" y="-532" font-family="Helvetica,sans-Serif" font-size="10.00">addInput()</text>
<text text-anchor="start" x="307.5" y="-517" font-family="Helvetica,sans-Serif" font-size="10.00">+</text>
<text text-anchor="start" x="320.5" y="-517" font-family="Helvetica,sans-Serif" font-size="10.00">changeDimensions()</text>
<text text-anchor="start" x="307.5" y="-502" font-family="Helvetica,sans-Serif" font-size="10.00">+</text>
<text text-anchor="start" x="320.5" y="-502" font-family="Helvetica,sans-Serif" font-size="10.00">clone()</text>
<text text-anchor="start" x="307.5" y="-487" font-family="Helvetica,sans-Serif" font-size="10.00">+</text>
<text text-anchor="start" x="320.5" y="-487" font-family="Helvetica,sans-Serif" font-size="10.00">close()</text>
<text text-anchor="start" x="307.5" y="-472" font-family="Helvetica,sans-Serif" font-size="10.00">+</text>
<text text-anchor="start" x="320.5" y="-472" font-family="Helvetica,sans-Serif" font-size="10.00">Element()</text>
<text text-anchor="start" x="307.5" y="-457" font-family="Helvetica,sans-Serif" font-size="10.00">+</text>
<text text-anchor="start" x="320.5" y="-457" font-family="Helvetica,sans-Serif" font-size="10.00">getComponent()</text>
<text text-anchor="start" x="307.5" y="-442" font-family="Helvetica,sans-Serif" font-size="10.00">+</text>
<text text-anchor="start" x="320.5" y="-442" font-family="Helvetica,sans-Serif" font-size="10.00">getComponentList()</text>
<text text-anchor="start" x="307.5" y="-427" font-family="Helvetica,sans-Serif" font-size="10.00">+</text>
<text text-anchor="start" x="320.5" y="-427" font-family="Helvetica,sans-Serif" font-size="10.00">getComponentPtr()</text>
<text text-anchor="start" x="307.5" y="-412" font-family="Helvetica,sans-Serif" font-size="10.00">+</text>
<text text-anchor="start" x="320.5" y="-412" font-family="Helvetica,sans-Serif" font-size="10.00">getComponents()</text>
<text text-anchor="start" x="307.5" y="-397" font-family="Helvetica,sans-Serif" font-size="10.00">+</text>
<text text-anchor="start" x="320.5" y="-397" font-family="Helvetica,sans-Serif" font-size="10.00">getElementCommonParameters()</text>
<text text-anchor="start" x="320.5" y="-382" font-family="Helvetica,sans-Serif" font-size="10.00">and 27 more...</text>
<polygon fill="#666666" stroke="#666666" points="303.5,-557 303.5,-557 488.5,-557 488.5,-557 303.5,-557"/>
<polygon fill="#666666" stroke="#666666" points="303.5,-542 303.5,-542 488.5,-542 488.5,-542 303.5,-542"/>
<polygon fill="none" stroke="#666666" points="303,-375 303,-585 488,-585 488,-375 303,-375"/>
</a>
</g>
</g>
<!-- Node2&#45;&gt;Node1 -->
<g id="edge1_Node000001_Node000002" class="edge">
<title>Node2&#45;&gt;Node1</title>
<g id="a_edge1_Node000001_Node000002"><a xlink:title=" ">
<path fill="none" stroke="#63b8ff" d="M315.59,-366.01C307.76,-353.41 300.23,-340.58 293.5,-328 273.54,-290.73 255.11,-248.11 240.12,-210.25"/>
<polygon fill="none" stroke="#63b8ff" points="312.77,-368.1 321.05,-374.7 318.69,-364.37 312.77,-368.1"/>
</a>
</g>
</g>
<!-- Node12 -->
<g id="Node000012" class="node">
<title>Node12</title>
<g id="a_Node000012"><a xlink:title=" ">
<polygon fill="white" stroke="transparent" points="470.5,-328 302.5,-328 302.5,-268 470.5,-268 470.5,-328"/>
<text text-anchor="start" x="307.5" y="-316" font-family="Helvetica,sans-Serif" font-size="10.00">std::shared_ptr&lt; dnf</text>
<text text-anchor="start" x="307.5" y="-305" font-family="Helvetica,sans-Serif" font-size="10.00">_composer::element::Element &gt;</text>
<text text-anchor="start" x="384.5" y="-290" font-family="Helvetica,sans-Serif" font-size="10.00"> </text>
<text text-anchor="start" x="328" y="-275" font-family="Helvetica,sans-Serif" font-size="10.00">+</text>
<text text-anchor="start" x="362.5" y="-275" font-family="Helvetica,sans-Serif" font-size="10.00">operator&#45;&gt;()</text>
<polygon fill="#666666" stroke="#666666" points="302.5,-300 302.5,-300 470.5,-300 470.5,-300 302.5,-300"/>
<polygon fill="#666666" stroke="#666666" points="302.5,-285 302.5,-285 470.5,-285 470.5,-285 302.5,-285"/>
<polygon fill="none" stroke="#666666" points="302.5,-268 302.5,-328 470.5,-328 470.5,-268 302.5,-268"/>
</a>
</g>
</g>
<!-- Node2&#45;&gt;Node12 -->
<g id="edge13_Node000012_Node000002" class="edge">
<title>Node2&#45;&gt;Node12</title>
<g id="a_edge13_Node000012_Node000002"><a xlink:title=" ">
<path fill="none" stroke="#63b8ff" d="M390.29,-374.81C389.68,-362.65 389.09,-350.85 388.57,-340.32"/>
<polygon fill="none" stroke="#63b8ff" points="388.56,-340.15 384.26,-334.35 387.96,-328.16 392.25,-333.95 388.56,-340.15"/>
</a>
</g>
<text text-anchor="middle" x="401" y="-349" font-family="Helvetica,sans-Serif" font-size="10.00" fill="grey"> +ptr</text>
</g>
<!-- Node3 -->
<g id="Node000003" class="node">
<title>Node3</title>
<g id="a_Node000003"><a xlink:title=" ">
<polygon fill="white" stroke="transparent" points="368,-752 243,-752 243,-692 368,-692 368,-752"/>
<text text-anchor="start" x="248.5" y="-740" font-family="Helvetica,sans-Serif" font-size="10.00">std::enable_shared</text>
<text text-anchor="start" x="248.5" y="-729" font-family="Helvetica,sans-Serif" font-size="10.00">_from_this&lt; Element &gt;</text>
<text text-anchor="start" x="304" y="-714" font-family="Helvetica,sans-Serif" font-size="10.00"> </text>
<text text-anchor="start" x="304" y="-699" font-family="Helvetica,sans-Serif" font-size="10.00"> </text>
<polygon fill="#666666" stroke="#666666" points="243.5,-724 243.5,-724 368.5,-724 368.5,-724 243.5,-724"/>
<polygon fill="#666666" stroke="#666666" points="243.5,-709 243.5,-709 368.5,-709 368.5,-709 243.5,-709"/>
<polygon fill="none" stroke="#666666" points="243,-692 243,-752 368,-752 368,-692 243,-692"/>
</a>
</g>
</g>
<!-- Node3&#45;&gt;Node2 -->
<g id="edge2_Node000002_Node000003" class="edge">
<title>Node3&#45;&gt;Node2</title>
<g id="a_edge2_Node000002_Node000003"><a xlink:title=" ">
<path fill="none" stroke="#63b8ff" d="M320.14,-681.96C330.03,-655.58 343.6,-619.4 356.5,-585.01"/>
<polygon fill="none" stroke="#63b8ff" points="316.77,-680.98 316.54,-691.57 323.32,-683.44 316.77,-680.98"/>
</a>
</g>
</g>
<!-- Node4 -->
<g id="Node000004" class="node">
<title>Node4</title>
<g id="a_Node000004"><a xlink:href="structdnf__composer_1_1element_1_1ElementCommonParameters.html" target="_top" xlink:title="Bundles identity and spatial dimensions passed to every Element constructor.">
<polygon fill="white" stroke="transparent" points="555,-812 386,-812 386,-632 555,-632 555,-812"/>
<text text-anchor="start" x="397.5" y="-800" font-family="Helvetica,sans-Serif" font-size="10.00">dnf_composer::element</text>
<text text-anchor="start" x="397.5" y="-789" font-family="Helvetica,sans-Serif" font-size="10.00">::ElementCommonParameters</text>
<text text-anchor="start" x="469" y="-774" font-family="Helvetica,sans-Serif" font-size="10.00"> </text>
<text text-anchor="start" x="390.5" y="-759" font-family="Helvetica,sans-Serif" font-size="10.00">+</text>
<text text-anchor="start" x="403.5" y="-759" font-family="Helvetica,sans-Serif" font-size="10.00">ElementCommonParameters()</text>
<text text-anchor="start" x="390.5" y="-744" font-family="Helvetica,sans-Serif" font-size="10.00">+</text>
<text text-anchor="start" x="403.5" y="-744" font-family="Helvetica,sans-Serif" font-size="10.00">ElementCommonParameters()</text>
<text text-anchor="start" x="390.5" y="-729" font-family="Helvetica,sans-Serif" font-size="10.00">+</text>
<text text-anchor="start" x="403.5" y="-729" font-family="Helvetica,sans-Serif" font-size="10.00">ElementCommonParameters()</text>
<text text-anchor="start" x="390.5" y="-714" font-family="Helvetica,sans-Serif" font-size="10.00">+</text>
<text text-anchor="start" x="403.5" y="-714" font-family="Helvetica,sans-Serif" font-size="10.00">ElementCommonParameters()</text>
<text text-anchor="start" x="390.5" y="-699" font-family="Helvetica,sans-Serif" font-size="10.00">+</text>
<text text-anchor="start" x="403.5" y="-699" font-family="Helvetica,sans-Serif" font-size="10.00">ElementCommonParameters()</text>
<text text-anchor="start" x="390.5" y="-684" font-family="Helvetica,sans-Serif" font-size="10.00">+</text>
<text text-anchor="start" x="403.5" y="-684" font-family="Helvetica,sans-Serif" font-size="10.00">ElementCommonParameters()</text>
<text text-anchor="start" x="390.5" y="-669" font-family="Helvetica,sans-Serif" font-size="10.00">+</text>
<text text-anchor="start" x="403.5" y="-669" font-family="Helvetica,sans-Serif" font-size="10.00">operator==()</text>
<text text-anchor="start" x="390.5" y="-654" font-family="Helvetica,sans-Serif" font-size="10.00">+</text>
<text text-anchor="start" x="403.5" y="-654" font-family="Helvetica,sans-Serif" font-size="10.00">print()</text>
<text text-anchor="start" x="390.5" y="-639" font-family="Helvetica,sans-Serif" font-size="10.00">+</text>
<text text-anchor="start" x="403.5" y="-639" font-family="Helvetica,sans-Serif" font-size="10.00">toString()</text>
<polygon fill="#666666" stroke="#666666" points="386.5,-784 386.5,-784 555.5,-784 555.5,-784 386.5,-784"/>
<polygon fill="#666666" stroke="#666666" points="386.5,-769 386.5,-769 555.5,-769 555.5,-769 386.5,-769"/>
<polygon fill="none" stroke="#666666" points="386,-632 386,-812 555,-812 555,-632 386,-632"/>
</a>
</g>
</g>
<!-- Node4&#45;&gt;Node2 -->
<g id="edge3_Node000002_Node000004" class="edge">
<title>Node4&#45;&gt;Node2</title>
<g id="a_edge3_Node000002_Node000004"><a xlink:title=" ">
<path fill="none" stroke="#63b8ff" d="M442.68,-631.97C439.12,-620.57 435.43,-608.76 431.75,-597.01"/>
<polygon fill="none" stroke="#63b8ff" points="431.67,-596.74 426.06,-592.2 428.09,-585.28 433.7,-589.82 431.67,-596.74"/>
</a>
</g>
<text text-anchor="middle" x="489.5" y="-606" font-family="Helvetica,sans-Serif" font-size="10.00" fill="grey"> #commonParameters</text>
</g>
<!-- Node5 -->
<g id="Node000005" class="node">
<title>Node5</title>
<g id="a_Node000005"><a xlink:href="structdnf__composer_1_1element_1_1ElementIdentifiers.html" target="_top" xlink:title="Identity information for an element: numeric ID, name, and type label.">
<polygon fill="white" stroke="transparent" points="536.5,-1009 400.5,-1009 400.5,-859 536.5,-859 536.5,-1009"/>
<text text-anchor="start" x="410.5" y="-997" font-family="Helvetica,sans-Serif" font-size="10.00">dnf_composer::element</text>
<text text-anchor="start" x="420.5" y="-986" font-family="Helvetica,sans-Serif" font-size="10.00">::ElementIdentifiers</text>
<text text-anchor="start" x="404.5" y="-971" font-family="Helvetica,sans-Serif" font-size="10.00">+</text>
<text text-anchor="start" x="417.5" y="-971" font-family="Helvetica,sans-Serif" font-size="10.00">label</text>
<text text-anchor="start" x="404.5" y="-956" font-family="Helvetica,sans-Serif" font-size="10.00">+</text>
<text text-anchor="start" x="417.5" y="-956" font-family="Helvetica,sans-Serif" font-size="10.00">uniqueIdentifier</text>
<text text-anchor="start" x="404.5" y="-941" font-family="Helvetica,sans-Serif" font-size="10.00">+</text>
<text text-anchor="start" x="417.5" y="-941" font-family="Helvetica,sans-Serif" font-size="10.00">uniqueIdentifierCounter</text>
<text text-anchor="start" x="404.5" y="-926" font-family="Helvetica,sans-Serif" font-size="10.00">+</text>
<text text-anchor="start" x="417.5" y="-926" font-family="Helvetica,sans-Serif" font-size="10.00">ElementIdentifiers()</text>
<text text-anchor="start" x="404.5" y="-911" font-family="Helvetica,sans-Serif" font-size="10.00">+</text>
<text text-anchor="start" x="417.5" y="-911" font-family="Helvetica,sans-Serif" font-size="10.00">ElementIdentifiers()</text>
<text text-anchor="start" x="404.5" y="-896" font-family="Helvetica,sans-Serif" font-size="10.00">+</text>
<text text-anchor="start" x="417.5" y="-896" font-family="Helvetica,sans-Serif" font-size="10.00">operator==()</text>
<text text-anchor="start" x="404.5" y="-881" font-family="Helvetica,sans-Serif" font-size="10.00">+</text>
<text text-anchor="start" x="417.5" y="-881" font-family="Helvetica,sans-Serif" font-size="10.00">print()</text>
<text text-anchor="start" x="404.5" y="-866" font-family="Helvetica,sans-Serif" font-size="10.00">+</text>
<text text-anchor="start" x="417.5" y="-866" font-family="Helvetica,sans-Serif" font-size="10.00">toString()</text>
<polygon fill="#666666" stroke="#666666" points="400.5,-981 400.5,-981 536.5,-981 536.5,-981 400.5,-981"/>
<polygon fill="#666666" stroke="#666666" points="400.5,-936 400.5,-936 415.5,-936 415.5,-936 400.5,-936"/>
<polygon fill="#666666" stroke="#666666" points="415.5,-936 415.5,-936 536.5,-936 536.5,-936 415.5,-936"/>
<polygon fill="none" stroke="#666666" points="400.5,-859 400.5,-1009 536.5,-1009 536.5,-859 400.5,-859"/>
</a>
</g>
</g>
<!-- Node5&#45;&gt;Node4 -->
<g id="edge4_Node000004_Node000005" class="edge">
<title>Node5&#45;&gt;Node4</title>
<g id="a_edge4_Node000004_Node000005"><a xlink:title=" ">
<path fill="none" stroke="#63b8ff" d="M489.58,-858.75C490.75,-852.78 491.75,-846.81 492.5,-841 493.2,-835.56 493.52,-830 493.54,-824.39"/>
<polygon fill="none" stroke="#63b8ff" points="493.52,-824.06 489.32,-818.2 493.11,-812.07 497.31,-817.92 493.52,-824.06"/>
</a>
</g>
<text text-anchor="middle" x="523" y="-833" font-family="Helvetica,sans-Serif" font-size="10.00" fill="grey"> +identifiers</text>
</g>
<!-- Node6 -->
<g id="Node000006" class="node">
<title>Node6</title>
<g id="a_Node000006"><a xlink:title=" ">
<polygon fill="white" stroke="transparent" points="568,-1105 509,-1105 509,-1056 568,-1056 568,-1105"/>
<text text-anchor="start" x="514.5" y="-1092.5" font-family="Helvetica,sans-Serif" font-size="10.00">std::string</text>
<text text-anchor="start" x="537" y="-1077.5" font-family="Helvetica,sans-Serif" font-size="10.00"> </text>
<text text-anchor="start" x="537" y="-1062.5" font-family="Helvetica,sans-Serif" font-size="10.00"> </text>
<polygon fill="#666666" stroke="#666666" points="509.5,-1087.5 509.5,-1087.5 568.5,-1087.5 568.5,-1087.5 509.5,-1087.5"/>
<polygon fill="#666666" stroke="#666666" points="509.5,-1072.5 509.5,-1072.5 568.5,-1072.5 568.5,-1072.5 509.5,-1072.5"/>
<polygon fill="none" stroke="#666666" points="509,-1056 509,-1105 568,-1105 568,-1056 509,-1056"/>
</a>
</g>
</g>
<!-- Node6&#45;&gt;Node1 -->
<g id="edge19_Node000001_Node000006" class="edge">
<title>Node6&#45;&gt;Node1</title>
<g id="a_edge19_Node000001_Node000006"><a xlink:title=" ">
<path fill="none" stroke="#63b8ff" d="M508.71,-1080.2C425.99,-1080.44 199.5,-1068.87 199.5,-935 199.5,-935 199.5,-935 199.5,-297 199.5,-272.77 199.74,-246.82 200.09,-222.1"/>
<polygon fill="none" stroke="#63b8ff" points="200.09,-222.08 196.18,-216.02 200.27,-210.08 204.18,-216.14 200.09,-222.08"/>
</a>
</g>
<text text-anchor="middle" x="247" y="-606" font-family="Helvetica,sans-Serif" font-size="10.00" fill="grey"> #weightsDirectory</text>
</g>
<!-- Node6&#45;&gt;Node5 -->
<g id="edge5_Node000005_Node000006" class="edge">
<title>Node6&#45;&gt;Node5</title>
<g id="a_edge5_Node000005_Node000006"><a xlink:title=" ">
<path fill="none" stroke="#63b8ff" d="M514.36,-1055.8C509.63,-1050.29 505.04,-1044.2 501.5,-1038 498.3,-1032.4 495.36,-1026.44 492.67,-1020.33"/>
<polygon fill="none" stroke="#63b8ff" points="492.66,-1020.3 486.69,-1016.27 488.11,-1009.2 494.09,-1013.23 492.66,-1020.3"/>
</a>
</g>
<text text-anchor="middle" x="538.5" y="-1030" font-family="Helvetica,sans-Serif" font-size="10.00" fill="grey"> +uniqueName</text>
</g>
<!-- Node9 -->
<g id="Node000009" class="node">
<title>Node9</title>
<g id="a_Node000009"><a xlink:title=" ">
<polygon fill="white" stroke="transparent" points="662.5,-969.5 554.5,-969.5 554.5,-898.5 662.5,-898.5 662.5,-969.5"/>
<text text-anchor="start" x="559.5" y="-957" font-family="Helvetica,sans-Serif" font-size="10.00">std::unordered_map</text>
<text text-anchor="start" x="559.5" y="-946" font-family="Helvetica,sans-Serif" font-size="10.00">&lt; std::string, std::</text>
<text text-anchor="start" x="559.5" y="-935" font-family="Helvetica,sans-Serif" font-size="10.00">vector&lt; double &gt; &gt;</text>
<text text-anchor="start" x="606.5" y="-920" font-family="Helvetica,sans-Serif" font-size="10.00"> </text>
<text text-anchor="start" x="606.5" y="-905" font-family="Helvetica,sans-Serif" font-size="10.00"> </text>
<polygon fill="#666666" stroke="#666666" points="554.5,-930 554.5,-930 662.5,-930 662.5,-930 554.5,-930"/>
<polygon fill="#666666" stroke="#666666" points="554.5,-915 554.5,-915 662.5,-915 662.5,-915 554.5,-915"/>
<polygon fill="none" stroke="#666666" points="554.5,-898.5 554.5,-969.5 662.5,-969.5 662.5,-898.5 554.5,-898.5"/>
</a>
</g>
</g>
<!-- Node6&#45;&gt;Node9 -->
<g id="edge9_Node000009_Node000006" class="edge">
<title>Node6&#45;&gt;Node9</title>
<g id="a_edge9_Node000009_Node000006"><a xlink:title=" ">
<path fill="none" stroke="#63b8ff" d="M562.64,-1055.8C567.37,-1050.29 571.96,-1044.2 575.5,-1038 585.43,-1020.61 592.82,-999.84 598.05,-981.52"/>
<polygon fill="none" stroke="#63b8ff" points="598.06,-981.48 595.76,-974.64 601.19,-969.89 603.49,-976.72 598.06,-981.48"/>
</a>
</g>
<text text-anchor="middle" x="597.5" y="-1030" font-family="Helvetica,sans-Serif" font-size="10.00" fill="grey"> +keys</text>
</g>
<!-- Node11 -->
<g id="Node000011" class="node">
<title>Node11</title>
<g id="a_Node000011"><a xlink:title=" ">
<polygon fill="white" stroke="transparent" points="585,-146 428,-146 428,-64 585,-64 585,-146"/>
<text text-anchor="start" x="433.5" y="-134" font-family="Helvetica,sans-Serif" font-size="10.00">std::unordered_map</text>
<text text-anchor="start" x="433.5" y="-123" font-family="Helvetica,sans-Serif" font-size="10.00">&lt; std::shared_ptr&lt; dnf</text>
<text text-anchor="start" x="433.5" y="-112" font-family="Helvetica,sans-Serif" font-size="10.00">_composer::element::Element</text>
<text text-anchor="start" x="468" y="-101" font-family="Helvetica,sans-Serif" font-size="10.00"> &gt;, std::string &gt;</text>
<text text-anchor="start" x="505" y="-86" font-family="Helvetica,sans-Serif" font-size="10.00"> </text>
<text text-anchor="start" x="505" y="-71" font-family="Helvetica,sans-Serif" font-size="10.00"> </text>
<polygon fill="#666666" stroke="#666666" points="428.5,-96 428.5,-96 585.5,-96 585.5,-96 428.5,-96"/>
<polygon fill="#666666" stroke="#666666" points="428.5,-81 428.5,-81 585.5,-81 585.5,-81 428.5,-81"/>
<polygon fill="none" stroke="#666666" points="428,-64 428,-146 585,-146 585,-64 428,-64"/>
</a>
</g>
</g>
<!-- Node6&#45;&gt;Node11 -->
<g id="edge14_Node000011_Node000006" class="edge">
<title>Node6&#45;&gt;Node11</title>
<g id="a_edge14_Node000011_Node000006"><a xlink:title=" ">
<path fill="none" stroke="#63b8ff" d="M568.05,-1071.66C598.59,-1062.02 645.36,-1042.63 671.5,-1009 692.34,-982.19 690.5,-968.96 690.5,-935 690.5,-935 690.5,-935 690.5,-297 690.5,-235.42 640.28,-186.06 592.32,-152.95"/>
<polygon fill="none" stroke="#63b8ff" points="592.11,-152.81 584.9,-152.79 582.14,-146.13 589.35,-146.14 592.11,-152.81"/>
</a>
</g>
<text text-anchor="middle" x="719.5" y="-606" font-family="Helvetica,sans-Serif" font-size="10.00" fill="grey"> +elements</text>
</g>
<!-- Node7 -->
<g id="Node000007" class="node">
<title>Node7</title>
<g id="a_Node000007"><a xlink:title=" ">
<polygon fill="white" stroke="transparent" points="587.5,-1202 489.5,-1202 489.5,-1142 587.5,-1142 587.5,-1202"/>
<text text-anchor="start" x="494.5" y="-1190" font-family="Helvetica,sans-Serif" font-size="10.00">std::basic_string&lt;</text>
<text text-anchor="start" x="520" y="-1179" font-family="Helvetica,sans-Serif" font-size="10.00"> Char &gt;</text>
<text text-anchor="start" x="536.5" y="-1164" font-family="Helvetica,sans-Serif" font-size="10.00"> </text>
<text text-anchor="start" x="536.5" y="-1149" font-family="Helvetica,sans-Serif" font-size="10.00"> </text>
<polygon fill="#666666" stroke="#666666" points="489.5,-1174 489.5,-1174 587.5,-1174 587.5,-1174 489.5,-1174"/>
<polygon fill="#666666" stroke="#666666" points="489.5,-1159 489.5,-1159 587.5,-1159 587.5,-1159 489.5,-1159"/>
<polygon fill="none" stroke="#666666" points="489.5,-1142 489.5,-1202 587.5,-1202 587.5,-1142 489.5,-1142"/>
</a>
</g>
</g>
<!-- Node7&#45;&gt;Node6 -->
<g id="edge6_Node000006_Node000007" class="edge">
<title>Node7&#45;&gt;Node6</title>
<g id="a_edge6_Node000006_Node000007"><a xlink:title=" ">
<path fill="none" stroke="#63b8ff" d="M538.5,-1131.41C538.5,-1122.47 538.5,-1113.25 538.5,-1105.21"/>
<polygon fill="none" stroke="#63b8ff" points="535,-1131.69 538.5,-1141.69 542,-1131.69 535,-1131.69"/>
</a>
</g>
</g>
<!-- Node8 -->
<g id="Node000008" class="node">
<title>Node8</title>
<g id="a_Node000008"><a xlink:href="structdnf__composer_1_1element_1_1ElementDimensions.html" target="_top" xlink:title="Spatial discretization of a one&#45;dimensional field.">
<polygon fill="white" stroke="transparent" points="369,-1001.5 242,-1001.5 242,-866.5 369,-866.5 369,-1001.5"/>
<text text-anchor="start" x="248" y="-989" font-family="Helvetica,sans-Serif" font-size="10.00">dnf_composer::element</text>
<text text-anchor="start" x="253.5" y="-978" font-family="Helvetica,sans-Serif" font-size="10.00">::ElementDimensions</text>
<text text-anchor="start" x="246.5" y="-963" font-family="Helvetica,sans-Serif" font-size="10.00">+</text>
<text text-anchor="start" x="259.5" y="-963" font-family="Helvetica,sans-Serif" font-size="10.00">d_x</text>
<text text-anchor="start" x="246.5" y="-948" font-family="Helvetica,sans-Serif" font-size="10.00">+</text>
<text text-anchor="start" x="259.5" y="-948" font-family="Helvetica,sans-Serif" font-size="10.00">size</text>
<text text-anchor="start" x="246.5" y="-933" font-family="Helvetica,sans-Serif" font-size="10.00">+</text>
<text text-anchor="start" x="259.5" y="-933" font-family="Helvetica,sans-Serif" font-size="10.00">x_max</text>
<text text-anchor="start" x="246.5" y="-918" font-family="Helvetica,sans-Serif" font-size="10.00">+</text>
<text text-anchor="start" x="259.5" y="-918" font-family="Helvetica,sans-Serif" font-size="10.00">ElementDimensions()</text>
<text text-anchor="start" x="246.5" y="-903" font-family="Helvetica,sans-Serif" font-size="10.00">+</text>
<text text-anchor="start" x="259.5" y="-903" font-family="Helvetica,sans-Serif" font-size="10.00">operator==()</text>
<text text-anchor="start" x="246.5" y="-888" font-family="Helvetica,sans-Serif" font-size="10.00">+</text>
<text text-anchor="start" x="259.5" y="-888" font-family="Helvetica,sans-Serif" font-size="10.00">print()</text>
<text text-anchor="start" x="246.5" y="-873" font-family="Helvetica,sans-Serif" font-size="10.00">+</text>
<text text-anchor="start" x="259.5" y="-873" font-family="Helvetica,sans-Serif" font-size="10.00">toString()</text>
<polygon fill="#666666" stroke="#666666" points="242.5,-973 242.5,-973 369.5,-973 369.5,-973 242.5,-973"/>
<polygon fill="#666666" stroke="#666666" points="242.5,-928 242.5,-928 257.5,-928 257.5,-928 242.5,-928"/>
<polygon fill="#666666" stroke="#666666" points="257.5,-928 257.5,-928 369.5,-928 369.5,-928 257.5,-928"/>
<polygon fill="none" stroke="#666666" points="242,-866.5 242,-1001.5 369,-1001.5 369,-866.5 242,-866.5"/>
</a>
</g>
</g>
<!-- Node8&#45;&gt;Node4 -->
<g id="edge7_Node000004_Node000008" class="edge">
<title>Node8&#45;&gt;Node4</title>
<g id="a_edge7_Node000004_Node000008"><a xlink:title=" ">
<path fill="none" stroke="#63b8ff" d="M344.96,-866.36C353.01,-853.99 361.72,-841.38 370.5,-830 373.02,-826.73 375.63,-823.45 378.3,-820.16"/>
<polygon fill="none" stroke="#63b8ff" points="378.3,-820.15 379.05,-812.98 385.96,-810.91 385.21,-818.08 378.3,-820.15"/>
</a>
</g>
<text text-anchor="middle" x="429.5" y="-833" font-family="Helvetica,sans-Serif" font-size="10.00" fill="grey"> +dimensionParameters</text>
</g>
<!-- Node13 -->
<g id="Node000013" class="node">
<title>Node13</title>
<g id="a_Node000013"><a xlink:href="structdnf__composer_1_1element_1_1FieldCouplingParameters.html" target="_top" xlink:title="Parameters for a learned full&#45;matrix field coupling.">
<polygon fill="white" stroke="transparent" points="171,-789.5 20,-789.5 20,-654.5 171,-654.5 171,-789.5"/>
<text text-anchor="start" x="32" y="-777" font-family="Helvetica,sans-Serif" font-size="10.00">dnf_composer::element</text>
<text text-anchor="start" x="32" y="-766" font-family="Helvetica,sans-Serif" font-size="10.00">::FieldCouplingParameters</text>
<text text-anchor="start" x="24.5" y="-751" font-family="Helvetica,sans-Serif" font-size="10.00">+</text>
<text text-anchor="start" x="37.5" y="-751" font-family="Helvetica,sans-Serif" font-size="10.00">isLearningActive</text>
<text text-anchor="start" x="24.5" y="-736" font-family="Helvetica,sans-Serif" font-size="10.00">+</text>
<text text-anchor="start" x="37.5" y="-736" font-family="Helvetica,sans-Serif" font-size="10.00">learningRate</text>
<text text-anchor="start" x="24.5" y="-721" font-family="Helvetica,sans-Serif" font-size="10.00">+</text>
<text text-anchor="start" x="37.5" y="-721" font-family="Helvetica,sans-Serif" font-size="10.00">learningRule</text>
<text text-anchor="start" x="24.5" y="-706" font-family="Helvetica,sans-Serif" font-size="10.00">+</text>
<text text-anchor="start" x="37.5" y="-706" font-family="Helvetica,sans-Serif" font-size="10.00">scalar</text>
<text text-anchor="start" x="24.5" y="-691" font-family="Helvetica,sans-Serif" font-size="10.00">+</text>
<text text-anchor="start" x="37.5" y="-691" font-family="Helvetica,sans-Serif" font-size="10.00">FieldCouplingParameters()</text>
<text text-anchor="start" x="24.5" y="-676" font-family="Helvetica,sans-Serif" font-size="10.00">+</text>
<text text-anchor="start" x="37.5" y="-676" font-family="Helvetica,sans-Serif" font-size="10.00">operator==()</text>
<text text-anchor="start" x="24.5" y="-661" font-family="Helvetica,sans-Serif" font-size="10.00">+</text>
<text text-anchor="start" x="37.5" y="-661" font-family="Helvetica,sans-Serif" font-size="10.00">toString()</text>
<polygon fill="#666666" stroke="#666666" points="20.5,-761 20.5,-761 171.5,-761 171.5,-761 20.5,-761"/>
<polygon fill="#666666" stroke="#666666" points="20.5,-701 20.5,-701 35.5,-701 35.5,-701 20.5,-701"/>
<polygon fill="#666666" stroke="#666666" points="35.5,-701 35.5,-701 171.5,-701 171.5,-701 35.5,-701"/>
<polygon fill="none" stroke="#666666" points="20,-654.5 20,-789.5 171,-789.5 171,-654.5 20,-654.5"/>
</a>
</g>
</g>
<!-- Node8&#45;&gt;Node13 -->
<g id="edge17_Node000013_Node000008" class="edge">
<title>Node8&#45;&gt;Node13</title>
<g id="a_edge17_Node000013_Node000008"><a xlink:title=" ">
<path fill="none" stroke="#63b8ff" d="M241.92,-869.42C219.45,-846.95 193.97,-821.47 170.63,-798.13"/>
<polygon fill="none" stroke="#63b8ff" points="170.62,-798.12 163.55,-796.71 162.14,-789.64 169.21,-791.05 170.62,-798.12"/>
</a>
</g>
<text text-anchor="middle" x="272.5" y="-833" font-family="Helvetica,sans-Serif" font-size="10.00" fill="grey"> +inputFieldDimensions</text>
</g>
<!-- Node9&#45;&gt;Node2 -->
<g id="edge8_Node000002_Node000009" class="edge">
<title>Node9&#45;&gt;Node2</title>
<g id="a_edge8_Node000002_Node000009"><a xlink:title=" ">
<path fill="none" stroke="#63b8ff" d="M607.44,-898.21C604.81,-841.18 595.75,-724.85 564.5,-632 559.8,-618.05 557.99,-614.25 548.5,-603 533.57,-585.31 515.76,-568.4 497.64,-553.1"/>
<polygon fill="none" stroke="#63b8ff" points="497.41,-552.9 490.23,-552.16 488.16,-545.25 495.33,-545.99 497.41,-552.9"/>
</a>
</g>
<text text-anchor="middle" x="636.5" y="-719.5" font-family="Helvetica,sans-Serif" font-size="10.00" fill="grey"> #components</text>
</g>
<!-- Node10 -->
<g id="Node000010" class="node">
<title>Node10</title>
<g id="a_Node000010"><a xlink:title=" ">
<polygon fill="white" stroke="transparent" points="782.5,-1105 664.5,-1105 664.5,-1056 782.5,-1056 782.5,-1105"/>
<text text-anchor="start" x="669.5" y="-1092.5" font-family="Helvetica,sans-Serif" font-size="10.00">std::vector&lt; double &gt;</text>
<text text-anchor="start" x="681" y="-1077.5" font-family="Helvetica,sans-Serif" font-size="10.00">+</text>
<text text-anchor="start" x="706.5" y="-1077.5" font-family="Helvetica,sans-Serif" font-size="10.00">elements</text>
<text text-anchor="start" x="721.5" y="-1062.5" font-family="Helvetica,sans-Serif" font-size="10.00"> </text>
<polygon fill="#666666" stroke="#666666" points="664.5,-1087.5 664.5,-1087.5 782.5,-1087.5 782.5,-1087.5 664.5,-1087.5"/>
<polygon fill="#666666" stroke="#666666" points="664.5,-1072.5 664.5,-1072.5 704.5,-1072.5 704.5,-1072.5 664.5,-1072.5"/>
<polygon fill="#666666" stroke="#666666" points="704.5,-1072.5 704.5,-1072.5 782.5,-1072.5 782.5,-1072.5 704.5,-1072.5"/>
<polygon fill="none" stroke="#666666" points="664.5,-1056 664.5,-1105 782.5,-1105 782.5,-1056 664.5,-1056"/>
</a>
</g>
</g>
<!-- Node10&#45;&gt;Node9 -->
<g id="edge10_Node000009_Node000010" class="edge">
<title>Node10&#45;&gt;Node9</title>
<g id="a_edge10_Node000009_Node000010"><a xlink:title=" ">
<path fill="none" stroke="#63b8ff" d="M704.77,-1055.96C688.23,-1035.18 663.69,-1004.35 643.52,-979.01"/>
<polygon fill="none" stroke="#63b8ff" points="643.51,-978.99 636.64,-976.78 636.04,-969.6 642.9,-971.8 643.51,-978.99"/>
</a>
</g>
<text text-anchor="middle" x="718.5" y="-1030" font-family="Helvetica,sans-Serif" font-size="10.00" fill="grey"> +elements</text>
</g>
<!-- Node11&#45;&gt;Node2 -->
<g id="edge11_Node000002_Node000011" class="edge">
<title>Node11&#45;&gt;Node2</title>
<g id="a_edge11_Node000002_Node000011"><a xlink:title=" ">
<path fill="none" stroke="#63b8ff" d="M506.22,-146.3C504.86,-191.56 499.43,-266.71 479.5,-328 475.59,-340.01 470.7,-352.16 465.25,-364.07"/>
<polygon fill="none" stroke="#63b8ff" points="465.24,-364.09 466.28,-371.23 460.1,-374.93 459.06,-367.8 465.24,-364.09"/>
</a>
</g>
<text text-anchor="middle" x="516.5" y="-301" font-family="Helvetica,sans-Serif" font-size="10.00" fill="grey"> #inputs</text>
<text text-anchor="middle" x="516.5" y="-290" font-family="Helvetica,sans-Serif" font-size="10.00" fill="grey">#outputs</text>
</g>
<!-- Node12&#45;&gt;Node1 -->
<g id="edge18_Node000001_Node000012" class="edge">
<title>Node12&#45;&gt;Node1</title>
<g id="a_edge18_Node000001_Node000012"><a xlink:title=" ">
<path fill="none" stroke="#63b8ff" d="M358.55,-267.99C338.78,-247.46 311.16,-218.8 284.65,-191.28"/>
<polygon fill="none" stroke="#63b8ff" points="284.42,-191.04 277.38,-189.49 276.09,-182.39 283.14,-183.94 284.42,-191.04"/>
</a>
</g>
<text text-anchor="middle" x="356.5" y="-242" font-family="Helvetica,sans-Serif" font-size="10.00" fill="grey"> #input</text>
<text text-anchor="middle" x="356.5" y="-231" font-family="Helvetica,sans-Serif" font-size="10.00" fill="grey">#output</text>
</g>
<!-- Node12&#45;&gt;Node11 -->
<g id="edge12_Node000011_Node000012" class="edge">
<title>Node12&#45;&gt;Node11</title>
<g id="a_edge12_Node000011_Node000012"><a xlink:title=" ">
<path fill="none" stroke="#63b8ff" d="M404.73,-267.99C423.28,-238.45 452.43,-192.06 474.78,-156.48"/>
<polygon fill="none" stroke="#63b8ff" points="474.8,-156.45 474.61,-149.24 481.19,-146.29 481.38,-153.5 474.8,-156.45"/>
</a>
</g>
<text text-anchor="middle" x="445.5" y="-236.5" font-family="Helvetica,sans-Serif" font-size="10.00" fill="grey"> +keys</text>
</g>
<!-- Node13&#45;&gt;Node1 -->
<g id="edge15_Node000001_Node000013" class="edge">
<title>Node13&#45;&gt;Node1</title>
<g id="a_edge15_Node000001_Node000013"><a xlink:title=" ">
<path fill="none" stroke="#63b8ff" d="M93.79,-654.23C93.16,-578.67 96.01,-452.27 117.5,-346 125.89,-304.5 139.9,-260.45 154.16,-221.57"/>
<polygon fill="none" stroke="#63b8ff" points="154.2,-221.46 152.54,-214.45 158.38,-210.22 160.04,-217.24 154.2,-221.46"/>
</a>
</g>
<text text-anchor="middle" x="151.5" y="-349" font-family="Helvetica,sans-Serif" font-size="10.00" fill="grey"> #parameters</text>
</g>
<!-- Node14 -->
<g id="Node000014" class="node">
<title>Node14</title>
<g id="a_Node000014"><a xlink:href="structdnf__composer_1_1element_1_1ElementSpecificParameters.html" target="_top" xlink:title="Abstract base for all element&#45;specific parameter structs.">
<polygon fill="white" stroke="transparent" points="171,-986.5 0,-986.5 0,-881.5 171,-881.5 171,-986.5"/>
<text text-anchor="start" x="16" y="-974" font-family="Helvetica,sans-Serif" font-size="10.00">dnf_composer::element</text>
<text text-anchor="start" x="16" y="-963" font-family="Helvetica,sans-Serif" font-size="10.00">::ElementSpecificParameters</text>
<text text-anchor="start" x="84" y="-948" font-family="Helvetica,sans-Serif" font-size="10.00"> </text>
<text text-anchor="start" x="4.5" y="-933" font-family="Helvetica,sans-Serif" font-size="10.00">+</text>
<text text-anchor="start" x="17.5" y="-933" font-family="Helvetica,sans-Serif" font-size="10.00">ElementSpecificParameters()</text>
<text text-anchor="start" x="4.5" y="-918" font-family="Helvetica,sans-Serif" font-size="10.00">+</text>
<text text-anchor="start" x="17.5" y="-918" font-family="Helvetica,sans-Serif" font-size="10.00">print()</text>
<text text-anchor="start" x="4.5" y="-903" font-family="Helvetica,sans-Serif" font-size="10.00">+</text>
<text text-anchor="start" x="17.5" y="-903" font-family="Helvetica,sans-Serif" font-size="10.00">toString()</text>
<text text-anchor="start" x="4.5" y="-888" font-family="Helvetica,sans-Serif" font-size="10.00">+</text>
<text text-anchor="start" x="17.5" y="-888" font-family="Helvetica,sans-Serif" font-size="10.00">~ElementSpecificParameters()</text>
<polygon fill="#666666" stroke="#666666" points="0.5,-958 0.5,-958 171.5,-958 171.5,-958 0.5,-958"/>
<polygon fill="#666666" stroke="#666666" points="0.5,-943 0.5,-943 171.5,-943 171.5,-943 0.5,-943"/>
<polygon fill="none" stroke="#666666" points="0,-881.5 0,-986.5 171,-986.5 171,-881.5 0,-881.5"/>
</a>
</g>
</g>
<!-- Node14&#45;&gt;Node13 -->
<g id="edge16_Node000013_Node000014" class="edge">
<title>Node14&#45;&gt;Node13</title>
<g id="a_edge16_Node000013_Node000014"><a xlink:title=" ">
<path fill="none" stroke="#63b8ff" d="M88.43,-871.37C89.66,-845.67 91.08,-815.76 92.33,-789.56"/>
<polygon fill="none" stroke="#63b8ff" points="84.94,-871.2 87.96,-881.36 91.93,-871.54 84.94,-871.2"/>
</a>
</g>
</g>
</g>
</svg>
