<?xml version="1.0" encoding="UTF-8" standalone="no"?>
<!DOCTYPE svg PUBLIC "-//W3C//DTD SVG 1.1//EN"
 "http://www.w3.org/Graphics/SVG/1.1/DTD/svg11.dtd">
<!-- Generated by graphviz version 2.43.0 (0)
 -->
<!-- Title: dnf_composer::user_interface::ElementWindow::renderElementControlCard Pages: 1 -->
<svg width="516pt" height="98pt"
 viewBox="0.00 0.00 516.00 97.50" xmlns="http://www.w3.org/2000/svg" xmlns:xlink="http://www.w3.org/1999/xlink">
<g id="graph0" class="graph" transform="scale(1 1) rotate(0) translate(4 93.5)">
<title>dnf_composer::user_interface::ElementWindow::renderElementControlCard</title>
<!-- Node1 -->
<g id="Node000001" class="node">
<title>Node1</title>
<g id="a_Node000001"><a xlink:title=" ">
<polygon fill="#999999" stroke="#666666" points="152,-68 0,-68 0,-27 152,-27 152,-68"/>
<text text-anchor="start" x="8" y="-56" font-family="Helvetica,sans-Serif" font-size="10.00">dnf_composer::user</text>
<text text-anchor="start" x="8" y="-45" font-family="Helvetica,sans-Serif" font-size="10.00">_interface::ElementWindow</text>
<text text-anchor="middle" x="76" y="-34" font-family="Helvetica,sans-Serif" font-size="10.00">::renderElementControlCard</text>
</a>
</g>
</g>
<!-- Node2 -->
<g id="Node000002" class="node">
<title>Node2</title>
<g id="a_Node000002"><a xlink:href="namespacednf__composer_1_1element.html#a55b0e0fb6529de014e86fa1380005bba" target="_top" xlink:title="Category info for a label, or an UNKNOWN/grey fallback.">
<polygon fill="white" stroke="#666666" points="334.5,-89.5 192.5,-89.5 192.5,-59.5 334.5,-59.5 334.5,-89.5"/>
<text text-anchor="start" x="200.5" y="-77.5" font-family="Helvetica,sans-Serif" font-size="10.00">dnf_composer::element</text>
<text text-anchor="middle" x="263.5" y="-66.5" font-family="Helvetica,sans-Serif" font-size="10.00">::getElementCategoryInfo</text>
</a>
</g>
</g>
<!-- Node1&#45;&gt;Node2 -->
<g id="edge1_Node000001_Node000002" class="edge">
<title>Node1&#45;&gt;Node2</title>
<g id="a_edge1_Node000001_Node000002"><a xlink:title=" ">
<path fill="none" stroke="#63b8ff" d="M152.18,-58.44C162.13,-59.89 172.35,-61.38 182.37,-62.84"/>
<polygon fill="#63b8ff" stroke="#63b8ff" points="181.91,-66.31 192.31,-64.28 182.91,-59.38 181.91,-66.31"/>
</a>
</g>
</g>
<!-- Node4 -->
<g id="Node000004" class="node">
<title>Node4</title>
<g id="a_Node000004"><a xlink:href="classdnf__composer_1_1user__interface_1_1ElementWindow.html#ab588d1eb8d31f86bfee1b99fe37c33a5" target="_top" xlink:title=" ">
<polygon fill="white" stroke="#666666" points="339,-41 188,-41 188,0 339,0 339,-41"/>
<text text-anchor="start" x="196" y="-29" font-family="Helvetica,sans-Serif" font-size="10.00">dnf_composer::user</text>
<text text-anchor="start" x="196" y="-18" font-family="Helvetica,sans-Serif" font-size="10.00">_interface::ElementWindow</text>
<text text-anchor="middle" x="263.5" y="-7" font-family="Helvetica,sans-Serif" font-size="10.00">::switchElementToModify</text>
</a>
</g>
</g>
<!-- Node1&#45;&gt;Node4 -->
<g id="edge3_Node000001_Node000004" class="edge">
<title>Node1&#45;&gt;Node4</title>
<g id="a_edge3_Node000001_Node000004"><a xlink:title=" ">
<path fill="none" stroke="#63b8ff" d="M152.18,-36.56C160.63,-35.33 169.28,-34.07 177.83,-32.82"/>
<polygon fill="#63b8ff" stroke="#63b8ff" points="178.42,-36.27 187.81,-31.37 177.41,-29.35 178.42,-36.27"/>
</a>
</g>
</g>
<!-- Node3 -->
<g id="Node000003" class="node">
<title>Node3</title>
<g id="a_Node000003"><a xlink:href="namespacednf__composer_1_1element.html#add3a3ba11f87c3c31b3060e2bb378635" target="_top" xlink:title="Maps every ElementLabel to its category info. The one place UI panels resolve an element&#39;s type/categ...">
<polygon fill="white" stroke="#666666" points="508,-89.5 375,-89.5 375,-59.5 508,-59.5 508,-89.5"/>
<text text-anchor="start" x="383" y="-77.5" font-family="Helvetica,sans-Serif" font-size="10.00">dnf_composer::element</text>
<text text-anchor="middle" x="441.5" y="-66.5" font-family="Helvetica,sans-Serif" font-size="10.00">::elementCategoryTable</text>
</a>
</g>
</g>
<!-- Node2&#45;&gt;Node3 -->
<g id="edge2_Node000002_Node000003" class="edge">
<title>Node2&#45;&gt;Node3</title>
<g id="a_edge2_Node000002_Node000003"><a xlink:title=" ">
<path fill="none" stroke="#63b8ff" d="M334.57,-74.5C344.45,-74.5 354.66,-74.5 364.65,-74.5"/>
<polygon fill="#63b8ff" stroke="#63b8ff" points="364.97,-78 374.97,-74.5 364.97,-71 364.97,-78"/>
</a>
</g>
</g>
</g>
</svg>
