<?xml version="1.0" encoding="UTF-8" standalone="no"?>
<!DOCTYPE svg PUBLIC "-//W3C//DTD SVG 1.1//EN"
 "http://www.w3.org/Graphics/SVG/1.1/DTD/svg11.dtd">
<!-- Generated by graphviz version 2.43.0 (0)
 -->
<!-- Title: dnf_composer::Application::getUiScalePct Pages: 1 -->
<svg width="542pt" height="98pt"
 viewBox="0.00 0.00 542.00 97.50" xmlns="http://www.w3.org/2000/svg" xmlns:xlink="http://www.w3.org/1999/xlink">
<g id="graph0" class="graph" transform="scale(1 1) rotate(0) translate(4 93.5)">
<title>dnf_composer::Application::getUiScalePct</title>
<!-- Node1 -->
<g id="Node000001" class="node">
<title>Node1</title>
<g id="a_Node000001"><a xlink:title=" ">
<polygon fill="#999999" stroke="#666666" points="534,-57 388,-57 388,-27 534,-27 534,-57"/>
<text text-anchor="start" x="396" y="-45" font-family="Helvetica,sans-Serif" font-size="10.00">dnf_composer::Application</text>
<text text-anchor="middle" x="461" y="-34" font-family="Helvetica,sans-Serif" font-size="10.00">::getUiScalePct</text>
</a>
</g>
</g>
<!-- Node2 -->
<g id="Node000002" class="node">
<title>Node2</title>
<g id="a_Node000002"><a xlink:href="classdnf__composer_1_1user__interface_1_1StatusBarWindow.html#a94a72781b2f2e3fb6a5272028e1e5410" target="_top" xlink:title=" ">
<polygon fill="white" stroke="#666666" points="352,-89.5 194,-89.5 194,-48.5 352,-48.5 352,-89.5"/>
<text text-anchor="start" x="202" y="-77.5" font-family="Helvetica,sans-Serif" font-size="10.00">dnf_composer::user</text>
<text text-anchor="start" x="202" y="-66.5" font-family="Helvetica,sans-Serif" font-size="10.00">_interface::StatusBarWindow</text>
<text text-anchor="middle" x="273" y="-55.5" font-family="Helvetica,sans-Serif" font-size="10.00">::drawContents</text>
</a>
</g>
</g>
<!-- Node1&#45;&gt;Node2 -->
<g id="edge1_Node000001_Node000002" class="edge">
<title>Node1&#45;&gt;Node2</title>
<g id="a_edge1_Node000001_Node000002"><a xlink:title=" ">
<path fill="none" stroke="#63b8ff" d="M377.91,-53.92C369.4,-55.15 360.77,-56.4 352.3,-57.63"/>
<polygon fill="#63b8ff" stroke="#63b8ff" points="378.43,-57.38 387.82,-52.48 377.42,-50.45 378.43,-57.38"/>
</a>
</g>
</g>
<!-- Node4 -->
<g id="Node000004" class="node">
<title>Node4</title>
<g id="a_Node000004"><a xlink:href="classdnf__composer_1_1Application.html#a24c2fd485519f3eb60859afcca994d72" target="_top" xlink:title="Register the application&#39;s ImGui settings handler (for persistence).">
<polygon fill="white" stroke="#666666" points="346,-30 200,-30 200,0 346,0 346,-30"/>
<text text-anchor="start" x="208" y="-18" font-family="Helvetica,sans-Serif" font-size="10.00">dnf_composer::Application</text>
<text text-anchor="middle" x="273" y="-7" font-family="Helvetica,sans-Serif" font-size="10.00">::registerSettingsHandler</text>
</a>
</g>
</g>
<!-- Node1&#45;&gt;Node4 -->
<g id="edge3_Node000001_Node000004" class="edge">
<title>Node1&#45;&gt;Node4</title>
<g id="a_edge3_Node000001_Node000004"><a xlink:title=" ">
<path fill="none" stroke="#63b8ff" d="M377.79,-30.07C367.24,-28.53 356.51,-26.98 346.14,-25.47"/>
<polygon fill="#63b8ff" stroke="#63b8ff" points="377.42,-33.55 387.82,-31.52 378.43,-26.62 377.42,-33.55"/>
</a>
</g>
</g>
<!-- Node3 -->
<g id="Node000003" class="node">
<title>Node3</title>
<g id="a_Node000003"><a xlink:href="classdnf__composer_1_1user__interface_1_1StatusBarWindow.html#a015b342c2d19883df591b5869be041c5" target="_top" xlink:title=" ">
<polygon fill="white" stroke="#666666" points="158,-89.5 0,-89.5 0,-48.5 158,-48.5 158,-89.5"/>
<text text-anchor="start" x="8" y="-77.5" font-family="Helvetica,sans-Serif" font-size="10.00">dnf_composer::user</text>
<text text-anchor="start" x="8" y="-66.5" font-family="Helvetica,sans-Serif" font-size="10.00">_interface::StatusBarWindow</text>
<text text-anchor="middle" x="79" y="-55.5" font-family="Helvetica,sans-Serif" font-size="10.00">::render</text>
</a>
</g>
</g>
<!-- Node2&#45;&gt;Node3 -->
<g id="edge2_Node000002_Node000003" class="edge">
<title>Node2&#45;&gt;Node3</title>
<g id="a_edge2_Node000002_Node000003"><a xlink:title=" ">
<path fill="none" stroke="#63b8ff" d="M183.85,-69C175.23,-69 166.53,-69 158.02,-69"/>
<polygon fill="#63b8ff" stroke="#63b8ff" points="183.91,-72.5 193.91,-69 183.91,-65.5 183.91,-72.5"/>
</a>
</g>
</g>
<!-- Node5 -->
<g id="Node000005" class="node">
<title>Node5</title>
<g id="a_Node000005"><a xlink:href="classdnf__composer_1_1Application.html#ad9787ecf2d64ff85c949f2ba24784a08" target="_top" xlink:title="Initialize the GUI and all registered windows. Call once before step().">
<polygon fill="white" stroke="#666666" points="152,-30 6,-30 6,0 152,0 152,-30"/>
<text text-anchor="start" x="14" y="-18" font-family="Helvetica,sans-Serif" font-size="10.00">dnf_composer::Application</text>
<text text-anchor="middle" x="79" y="-7" font-family="Helvetica,sans-Serif" font-size="10.00">::init</text>
</a>
</g>
</g>
<!-- Node4&#45;&gt;Node5 -->
<g id="edge4_Node000004_Node000005" class="edge">
<title>Node4&#45;&gt;Node5</title>
<g id="a_edge4_Node000004_Node000005"><a xlink:title=" ">
<path fill="none" stroke="#63b8ff" d="M189.96,-15C177.38,-15 164.47,-15 152.12,-15"/>
<polygon fill="#63b8ff" stroke="#63b8ff" points="189.96,-18.5 199.96,-15 189.96,-11.5 189.96,-18.5"/>
</a>
</g>
</g>
</g>
</svg>
