<?xml version="1.0" encoding="UTF-8" standalone="no"?>
<!DOCTYPE svg PUBLIC "-//W3C//DTD SVG 1.1//EN"
 "http://www.w3.org/Graphics/SVG/1.1/DTD/svg11.dtd">
<!-- Generated by graphviz version 2.43.0 (0)
 -->
<!-- Title: include/elements/collapse.h Pages: 1 -->
<svg width="1269pt" height="324pt"
 viewBox="0.00 0.00 1269.00 324.00" xmlns="http://www.w3.org/2000/svg" xmlns:xlink="http://www.w3.org/1999/xlink">
<g id="graph0" class="graph" transform="scale(1 1) rotate(0) translate(4 320)">
<title>include/elements/collapse.h</title>
<!-- Node1 -->
<g id="Node000001" class="node">
<title>Node1</title>
<g id="a_Node000001"><a xlink:title=" ">
<polygon fill="#999999" stroke="#666666" points="801.5,-316 648.5,-316 648.5,-297 801.5,-297 801.5,-316"/>
<text text-anchor="middle" x="725" y="-304" font-family="Helvetica,sans-Serif" font-size="10.00">include/elements/collapse.h</text>
</a>
</g>
</g>
<!-- Node2 -->
<g id="Node000002" class="node">
<title>Node2</title>
<g id="a_Node000002"><a xlink:title=" ">
<polygon fill="#e0e0e0" stroke="#999999" points="131,-140 93,-140 93,-121 131,-121 131,-140"/>
<text text-anchor="middle" x="112" y="-128" font-family="Helvetica,sans-Serif" font-size="10.00">map</text>
</a>
</g>
</g>
<!-- Node1&#45;&gt;Node2 -->
<g id="edge1_Node000001_Node000002" class="edge">
<title>Node1&#45;&gt;Node2</title>
<g id="a_edge1_Node000001_Node000002"><a xlink:title=" ">
<path fill="none" stroke="#63b8ff" d="M648.25,-300.33C511.19,-289.79 231.35,-261.93 153,-206 134.07,-192.49 122.92,-167.4 117.13,-150.1"/>
<polygon fill="#63b8ff" stroke="#63b8ff" points="120.34,-148.6 114.08,-140.05 113.64,-150.64 120.34,-148.6"/>
</a>
</g>
</g>
<!-- Node3 -->
<g id="Node000003" class="node">
<title>Node3</title>
<g id="a_Node000003"><a xlink:title=" ">
<polygon fill="#e0e0e0" stroke="#999999" points="1234,-19 1178,-19 1178,0 1234,0 1234,-19"/>
<text text-anchor="middle" x="1206" y="-7" font-family="Helvetica,sans-Serif" font-size="10.00">sstream</text>
</a>
</g>
</g>
<!-- Node1&#45;&gt;Node3 -->
<g id="edge2_Node000001_Node000003" class="edge">
<title>Node1&#45;&gt;Node3</title>
<g id="a_edge2_Node000001_Node000003"><a xlink:title=" ">
<path fill="none" stroke="#63b8ff" d="M801.51,-305.04C949.61,-302.07 1261,-284.8 1261,-192 1261,-192 1261,-192 1261,-129.5 1261,-89.89 1235.58,-49.14 1219.31,-27.11"/>
<polygon fill="#63b8ff" stroke="#63b8ff" points="1222.05,-24.93 1213.19,-19.12 1216.49,-29.19 1222.05,-24.93"/>
</a>
</g>
</g>
<!-- Node4 -->
<g id="Node000004" class="node">
<title>Node4</title>
<g id="a_Node000004"><a xlink:href="math_8h.html" target="_top" xlink:title=" ">
<polygon fill="white" stroke="#666666" points="979,-261 901,-261 901,-242 979,-242 979,-261"/>
<text text-anchor="middle" x="940" y="-249" font-family="Helvetica,sans-Serif" font-size="10.00">tools/math.h</text>
</a>
</g>
</g>
<!-- Node1&#45;&gt;Node4 -->
<g id="edge3_Node000001_Node000004" class="edge">
<title>Node1&#45;&gt;Node4</title>
<g id="a_edge3_Node000001_Node000004"><a xlink:title=" ">
<path fill="none" stroke="#63b8ff" d="M759.54,-296.98C796.42,-287.89 854.99,-273.46 895.34,-263.51"/>
<polygon fill="#63b8ff" stroke="#63b8ff" points="896.31,-266.87 905.19,-261.08 894.64,-260.08 896.31,-266.87"/>
</a>
</g>
</g>
<!-- Node14 -->
<g id="Node000014" class="node">
<title>Node14</title>
<g id="a_Node000014"><a xlink:href="element_8h.html" target="_top" xlink:title=" ">
<polygon fill="white" stroke="#666666" points="574,-261 508,-261 508,-242 574,-242 574,-261"/>
<text text-anchor="middle" x="541" y="-249" font-family="Helvetica,sans-Serif" font-size="10.00">element.h</text>
</a>
</g>
</g>
<!-- Node1&#45;&gt;Node14 -->
<g id="edge13_Node000001_Node000014" class="edge">
<title>Node1&#45;&gt;Node14</title>
<g id="a_edge13_Node000001_Node000014"><a xlink:title=" ">
<path fill="none" stroke="#63b8ff" d="M695.44,-296.98C664.28,-288.01 615.03,-273.82 580.54,-263.89"/>
<polygon fill="#63b8ff" stroke="#63b8ff" points="581.37,-260.49 570.79,-261.08 579.43,-267.21 581.37,-260.49"/>
</a>
</g>
</g>
<!-- Node5 -->
<g id="Node000005" class="node">
<title>Node5</title>
<g id="a_Node000005"><a xlink:title=" ">
<polygon fill="#e0e0e0" stroke="#999999" points="719.5,-19 672.5,-19 672.5,0 719.5,0 719.5,-19"/>
<text text-anchor="middle" x="696" y="-7" font-family="Helvetica,sans-Serif" font-size="10.00">vector</text>
</a>
</g>
</g>
<!-- Node4&#45;&gt;Node5 -->
<g id="edge4_Node000004_Node000005" class="edge">
<title>Node4&#45;&gt;Node5</title>
<g id="a_edge4_Node000004_Node000005"><a xlink:title=" ">
<path fill="none" stroke="#63b8ff" d="M926.85,-241.96C914.11,-233.46 894.51,-219.72 879,-206 810.31,-145.22 738.81,-62.02 709.63,-27.05"/>
<polygon fill="#63b8ff" stroke="#63b8ff" points="712.22,-24.7 703.14,-19.24 706.84,-29.17 712.22,-24.7"/>
</a>
</g>
</g>
<!-- Node6 -->
<g id="Node000006" class="node">
<title>Node6</title>
<g id="a_Node000006"><a xlink:title=" ">
<polygon fill="#e0e0e0" stroke="#999999" points="930,-200.5 888,-200.5 888,-181.5 930,-181.5 930,-200.5"/>
<text text-anchor="middle" x="909" y="-188.5" font-family="Helvetica,sans-Serif" font-size="10.00">array</text>
</a>
</g>
</g>
<!-- Node4&#45;&gt;Node6 -->
<g id="edge5_Node000004_Node000006" class="edge">
<title>Node4&#45;&gt;Node6</title>
<g id="a_edge5_Node000004_Node000006"><a xlink:title=" ">
<path fill="none" stroke="#63b8ff" d="M935.43,-241.87C930.94,-233.4 923.97,-220.24 918.31,-209.57"/>
<polygon fill="#63b8ff" stroke="#63b8ff" points="921.37,-207.86 913.59,-200.67 915.18,-211.14 921.37,-207.86"/>
</a>
</g>
</g>
<!-- Node7 -->
<g id="Node000007" class="node">
<title>Node7</title>
<g id="a_Node000007"><a xlink:title=" ">
<polygon fill="#e0e0e0" stroke="#999999" points="995.5,-200.5 948.5,-200.5 948.5,-181.5 995.5,-181.5 995.5,-200.5"/>
<text text-anchor="middle" x="972" y="-188.5" font-family="Helvetica,sans-Serif" font-size="10.00">cmath</text>
</a>
</g>
</g>
<!-- Node4&#45;&gt;Node7 -->
<g id="edge6_Node000004_Node000007" class="edge">
<title>Node4&#45;&gt;Node7</title>
<g id="a_edge6_Node000004_Node000007"><a xlink:title=" ">
<path fill="none" stroke="#63b8ff" d="M944.72,-241.87C949.35,-233.4 956.55,-220.24 962.39,-209.57"/>
<polygon fill="#63b8ff" stroke="#63b8ff" points="965.53,-211.12 967.26,-200.67 959.39,-207.76 965.53,-211.12"/>
</a>
</g>
</g>
<!-- Node8 -->
<g id="Node000008" class="node">
<title>Node8</title>
<g id="a_Node000008"><a xlink:title=" ">
<polygon fill="#e0e0e0" stroke="#999999" points="832,-200.5 768,-200.5 768,-181.5 832,-181.5 832,-200.5"/>
<text text-anchor="middle" x="800" y="-188.5" font-family="Helvetica,sans-Serif" font-size="10.00">algorithm</text>
</a>
</g>
</g>
<!-- Node4&#45;&gt;Node8 -->
<g id="edge7_Node000004_Node000008" class="edge">
<title>Node4&#45;&gt;Node8</title>
<g id="a_edge7_Node000004_Node000008"><a xlink:title=" ">
<path fill="none" stroke="#63b8ff" d="M919.64,-241.99C896,-232.12 856.8,-215.73 829.75,-204.43"/>
<polygon fill="#63b8ff" stroke="#63b8ff" points="830.96,-201.14 820.38,-200.52 828.26,-207.6 830.96,-201.14"/>
</a>
</g>
</g>
<!-- Node9 -->
<g id="Node000009" class="node">
<title>Node9</title>
<g id="a_Node000009"><a xlink:title=" ">
<polygon fill="#e0e0e0" stroke="#999999" points="750,-200.5 694,-200.5 694,-181.5 750,-181.5 750,-200.5"/>
<text text-anchor="middle" x="722" y="-188.5" font-family="Helvetica,sans-Serif" font-size="10.00">numeric</text>
</a>
</g>
</g>
<!-- Node4&#45;&gt;Node9 -->
<g id="edge8_Node000004_Node000009" class="edge">
<title>Node4&#45;&gt;Node9</title>
<g id="a_edge8_Node000004_Node000009"><a xlink:title=" ">
<path fill="none" stroke="#63b8ff" d="M900.79,-242.29C863.87,-234.23 807.21,-220.99 759,-206 757.08,-205.4 755.12,-204.76 753.15,-204.09"/>
<polygon fill="#63b8ff" stroke="#63b8ff" points="753.96,-200.66 743.37,-200.59 751.6,-207.25 753.96,-200.66"/>
</a>
</g>
</g>
<!-- Node10 -->
<g id="Node000010" class="node">
<title>Node10</title>
<g id="a_Node000010"><a xlink:title=" ">
<polygon fill="#e0e0e0" stroke="#999999" points="1078.5,-200.5 1013.5,-200.5 1013.5,-181.5 1078.5,-181.5 1078.5,-200.5"/>
<text text-anchor="middle" x="1046" y="-188.5" font-family="Helvetica,sans-Serif" font-size="10.00">functional</text>
</a>
</g>
</g>
<!-- Node4&#45;&gt;Node10 -->
<g id="edge9_Node000004_Node000010" class="edge">
<title>Node4&#45;&gt;Node10</title>
<g id="a_edge9_Node000004_Node000010"><a xlink:title=" ">
<path fill="none" stroke="#63b8ff" d="M955.64,-241.87C972.94,-232.32 1001.05,-216.81 1021.33,-205.62"/>
<polygon fill="#63b8ff" stroke="#63b8ff" points="1023.23,-208.56 1030.3,-200.67 1019.85,-202.43 1023.23,-208.56"/>
</a>
</g>
</g>
<!-- Node11 -->
<g id="Node000011" class="node">
<title>Node11</title>
<g id="a_Node000011"><a xlink:title=" ">
<polygon fill="#e0e0e0" stroke="#999999" points="948,-19 894,-19 894,0 948,0 948,-19"/>
<text text-anchor="middle" x="921" y="-7" font-family="Helvetica,sans-Serif" font-size="10.00">random</text>
</a>
</g>
</g>
<!-- Node4&#45;&gt;Node11 -->
<g id="edge10_Node000004_Node000011" class="edge">
<title>Node4&#45;&gt;Node11</title>
<g id="a_edge10_Node000004_Node000011"><a xlink:title=" ">
<path fill="none" stroke="#63b8ff" d="M979.01,-250.79C1013.85,-248.71 1063.11,-239.48 1088,-206 1095.96,-195.3 1093.13,-188.31 1088,-176 1058.48,-105.19 982.3,-49.16 943.88,-24.36"/>
<polygon fill="#63b8ff" stroke="#63b8ff" points="945.73,-21.39 935.41,-19.01 941.99,-27.31 945.73,-21.39"/>
</a>
</g>
</g>
<!-- Node12 -->
<g id="Node000012" class="node">
<title>Node12</title>
<g id="a_Node000012"><a xlink:title=" ">
<polygon fill="#e0e0e0" stroke="#999999" points="1232.5,-200.5 1173.5,-200.5 1173.5,-181.5 1232.5,-181.5 1232.5,-200.5"/>
<text text-anchor="middle" x="1203" y="-188.5" font-family="Helvetica,sans-Serif" font-size="10.00">numbers</text>
</a>
</g>
</g>
<!-- Node4&#45;&gt;Node12 -->
<g id="edge11_Node000004_Node000012" class="edge">
<title>Node4&#45;&gt;Node12</title>
<g id="a_edge11_Node000004_Node000012"><a xlink:title=" ">
<path fill="none" stroke="#63b8ff" d="M979.06,-243.87C1023.09,-236.1 1096.67,-222.2 1159,-206 1161.84,-205.26 1164.76,-204.45 1167.69,-203.6"/>
<polygon fill="#63b8ff" stroke="#63b8ff" points="1168.99,-206.86 1177.54,-200.61 1166.96,-200.16 1168.99,-206.86"/>
</a>
</g>
</g>
<!-- Node13 -->
<g id="Node000013" class="node">
<title>Node13</title>
<g id="a_Node000013"><a xlink:title=" ">
<polygon fill="#e0e0e0" stroke="#999999" points="1099.5,-19 1044.5,-19 1044.5,0 1099.5,0 1099.5,-19"/>
<text text-anchor="middle" x="1072" y="-7" font-family="Helvetica,sans-Serif" font-size="10.00">fstream</text>
</a>
</g>
</g>
<!-- Node4&#45;&gt;Node13 -->
<g id="edge12_Node000004_Node000013" class="edge">
<title>Node4&#45;&gt;Node13</title>
<g id="a_edge12_Node000004_Node000013"><a xlink:title=" ">
<path fill="none" stroke="#63b8ff" d="M979.09,-245.38C1022.63,-238.77 1088.9,-225.74 1104,-206 1145.25,-152.06 1103.84,-65.04 1082.73,-28.04"/>
<polygon fill="#63b8ff" stroke="#63b8ff" points="1085.5,-25.84 1077.41,-19.01 1079.47,-29.4 1085.5,-25.84"/>
</a>
</g>
</g>
<!-- Node14&#45;&gt;Node5 -->
<g id="edge14_Node000014_Node000005" class="edge">
<title>Node14&#45;&gt;Node5</title>
<g id="a_edge14_Node000014_Node000005"><a xlink:title=" ">
<path fill="none" stroke="#63b8ff" d="M574.36,-244.68C597.94,-238.84 628.54,-227.5 647,-206 691.62,-154.03 696.65,-67.23 696.55,-29.25"/>
<polygon fill="#63b8ff" stroke="#63b8ff" points="700.05,-29.07 696.39,-19.13 693.05,-29.18 700.05,-29.07"/>
</a>
</g>
</g>
<!-- Node14&#45;&gt;Node8 -->
<g id="edge19_Node000014_Node000008" class="edge">
<title>Node14&#45;&gt;Node8</title>
<g id="a_edge19_Node000014_Node000008"><a xlink:title=" ">
<path fill="none" stroke="#63b8ff" d="M574.18,-245.09C617.18,-237.76 694.32,-223.57 759,-206 761.63,-205.29 764.34,-204.49 767.05,-203.66"/>
<polygon fill="#63b8ff" stroke="#63b8ff" points="768.31,-206.93 776.74,-200.52 766.15,-200.27 768.31,-206.93"/>
</a>
</g>
</g>
<!-- Node14&#45;&gt;Node9 -->
<g id="edge20_Node000014_Node000009" class="edge">
<title>Node14&#45;&gt;Node9</title>
<g id="a_edge20_Node000014_Node000009"><a xlink:title=" ">
<path fill="none" stroke="#63b8ff" d="M567.94,-241.98C595.96,-233.09 641.1,-218.71 680,-206 682.14,-205.3 684.33,-204.58 686.55,-203.85"/>
<polygon fill="#63b8ff" stroke="#63b8ff" points="687.86,-207.1 696.25,-200.64 685.66,-200.46 687.86,-207.1"/>
</a>
</g>
</g>
<!-- Node15 -->
<g id="Node000015" class="node">
<title>Node15</title>
<g id="a_Node000015"><a xlink:title=" ">
<polygon fill="#e0e0e0" stroke="#999999" points="418,-19 374,-19 374,0 418,0 418,-19"/>
<text text-anchor="middle" x="396" y="-7" font-family="Helvetica,sans-Serif" font-size="10.00">string</text>
</a>
</g>
</g>
<!-- Node14&#45;&gt;Node15 -->
<g id="edge15_Node000014_Node000015" class="edge">
<title>Node14&#45;&gt;Node15</title>
<g id="a_edge15_Node000014_Node000015"><a xlink:title=" ">
<path fill="none" stroke="#63b8ff" d="M507.99,-251.17C472.82,-249.88 418.61,-241.72 392,-206 352.06,-152.39 456.57,-166.86 493,-85 498.42,-72.82 500.2,-66.22 493,-55 478.77,-32.82 450.42,-21.55 428.02,-15.91"/>
<polygon fill="#63b8ff" stroke="#63b8ff" points="428.75,-12.49 418.22,-13.7 427.21,-19.32 428.75,-12.49"/>
</a>
</g>
</g>
<!-- Node16 -->
<g id="Node000016" class="node">
<title>Node16</title>
<g id="a_Node000016"><a xlink:title=" ">
<polygon fill="#e0e0e0" stroke="#999999" points="493.5,-200.5 400.5,-200.5 400.5,-181.5 493.5,-181.5 493.5,-200.5"/>
<text text-anchor="middle" x="447" y="-188.5" font-family="Helvetica,sans-Serif" font-size="10.00">unordered_map</text>
</a>
</g>
</g>
<!-- Node14&#45;&gt;Node16 -->
<g id="edge16_Node000014_Node000016" class="edge">
<title>Node14&#45;&gt;Node16</title>
<g id="a_edge16_Node000014_Node000016"><a xlink:title=" ">
<path fill="none" stroke="#63b8ff" d="M527.13,-241.87C512,-232.45 487.54,-217.23 469.62,-206.08"/>
<polygon fill="#63b8ff" stroke="#63b8ff" points="471.27,-202.98 460.93,-200.67 467.57,-208.92 471.27,-202.98"/>
</a>
</g>
</g>
<!-- Node17 -->
<g id="Node000017" class="node">
<title>Node17</title>
<g id="a_Node000017"><a xlink:title=" ">
<polygon fill="#e0e0e0" stroke="#999999" points="570,-200.5 512,-200.5 512,-181.5 570,-181.5 570,-200.5"/>
<text text-anchor="middle" x="541" y="-188.5" font-family="Helvetica,sans-Serif" font-size="10.00">memory</text>
</a>
</g>
</g>
<!-- Node14&#45;&gt;Node17 -->
<g id="edge17_Node000014_Node000017" class="edge">
<title>Node14&#45;&gt;Node17</title>
<g id="a_edge17_Node000014_Node000017"><a xlink:title=" ">
<path fill="none" stroke="#63b8ff" d="M541,-241.87C541,-233.75 541,-221.31 541,-210.89"/>
<polygon fill="#63b8ff" stroke="#63b8ff" points="544.5,-210.67 541,-200.67 537.5,-210.67 544.5,-210.67"/>
</a>
</g>
</g>
<!-- Node18 -->
<g id="Node000018" class="node">
<title>Node18</title>
<g id="a_Node000018"><a xlink:title=" ">
<polygon fill="#e0e0e0" stroke="#999999" points="638,-200.5 588,-200.5 588,-181.5 638,-181.5 638,-200.5"/>
<text text-anchor="middle" x="613" y="-188.5" font-family="Helvetica,sans-Serif" font-size="10.00">ranges</text>
</a>
</g>
</g>
<!-- Node14&#45;&gt;Node18 -->
<g id="edge18_Node000014_Node000018" class="edge">
<title>Node14&#45;&gt;Node18</title>
<g id="a_edge18_Node000014_Node000018"><a xlink:title=" ">
<path fill="none" stroke="#63b8ff" d="M551.62,-241.87C562.9,-232.71 580.92,-218.06 594.53,-207.01"/>
<polygon fill="#63b8ff" stroke="#63b8ff" points="596.78,-209.69 602.33,-200.67 592.36,-204.26 596.78,-209.69"/>
</a>
</g>
</g>
<!-- Node19 -->
<g id="Node000019" class="node">
<title>Node19</title>
<g id="a_Node000019"><a xlink:href="exception_8h.html" target="_top" xlink:title=" ">
<polygon fill="white" stroke="#666666" points="130,-79.5 0,-79.5 0,-60.5 130,-60.5 130,-79.5"/>
<text text-anchor="middle" x="65" y="-67.5" font-family="Helvetica,sans-Serif" font-size="10.00">exceptions/exception.h</text>
</a>
</g>
</g>
<!-- Node14&#45;&gt;Node19 -->
<g id="edge21_Node000014_Node000019" class="edge">
<title>Node14&#45;&gt;Node19</title>
<g id="a_edge21_Node000014_Node000019"><a xlink:title=" ">
<path fill="none" stroke="#63b8ff" d="M507.83,-249.4C425.85,-246.24 215.76,-235.45 153,-206 114.58,-187.97 105.75,-176.44 84,-140 74.75,-124.51 69.88,-104.4 67.4,-89.89"/>
<polygon fill="#63b8ff" stroke="#63b8ff" points="70.81,-89.02 65.88,-79.65 63.89,-90.05 70.81,-89.02"/>
</a>
</g>
</g>
<!-- Node22 -->
<g id="Node000022" class="node">
<title>Node22</title>
<g id="a_Node000022"><a xlink:href="logger_8h.html" target="_top" xlink:title=" ">
<polygon fill="white" stroke="#666666" points="375.5,-140 292.5,-140 292.5,-121 375.5,-121 375.5,-140"/>
<text text-anchor="middle" x="334" y="-128" font-family="Helvetica,sans-Serif" font-size="10.00">tools/logger.h</text>
</a>
</g>
</g>
<!-- Node14&#45;&gt;Node22 -->
<g id="edge25_Node000014_Node000022" class="edge">
<title>Node14&#45;&gt;Node22</title>
<g id="a_edge25_Node000014_Node000022"><a xlink:title=" ">
<path fill="none" stroke="#63b8ff" d="M507.89,-246.36C461.27,-239.9 379.55,-226.03 358,-206 342.63,-191.72 337.07,-167.57 335.08,-150.65"/>
<polygon fill="#63b8ff" stroke="#63b8ff" points="338.53,-149.96 334.19,-140.3 331.56,-150.56 338.53,-149.96"/>
</a>
</g>
</g>
<!-- Node29 -->
<g id="Node000029" class="node">
<title>Node29</title>
<g id="a_Node000029"><a xlink:href="element__parameters_8h.html" target="_top" xlink:title=" ">
<polygon fill="white" stroke="#666666" points="292.5,-206 161.5,-206 161.5,-176 292.5,-176 292.5,-206"/>
<text text-anchor="start" x="169.5" y="-194" font-family="Helvetica,sans-Serif" font-size="10.00">element_parameters</text>
<text text-anchor="middle" x="227" y="-183" font-family="Helvetica,sans-Serif" font-size="10.00">/element_parameters.h</text>
</a>
</g>
</g>
<!-- Node14&#45;&gt;Node29 -->
<g id="edge40_Node000014_Node000029" class="edge">
<title>Node14&#45;&gt;Node29</title>
<g id="a_edge40_Node000014_Node000029"><a xlink:title=" ">
<path fill="none" stroke="#63b8ff" d="M507.99,-244.35C459.54,-235.32 367.84,-218.24 302.37,-206.04"/>
<polygon fill="#63b8ff" stroke="#63b8ff" points="302.97,-202.59 292.5,-204.2 301.69,-209.48 302.97,-202.59"/>
</a>
</g>
</g>
<!-- Node19&#45;&gt;Node15 -->
<g id="edge24_Node000019_Node000015" class="edge">
<title>Node19&#45;&gt;Node15</title>
<g id="a_edge24_Node000019_Node000015"><a xlink:title=" ">
<path fill="none" stroke="#63b8ff" d="M113.04,-60.48C123.26,-58.67 133.99,-56.77 144,-55 222.9,-41.04 315.71,-24.66 363.67,-16.2"/>
<polygon fill="#63b8ff" stroke="#63b8ff" points="364.51,-19.61 373.75,-14.42 363.29,-12.71 364.51,-19.61"/>
</a>
</g>
</g>
<!-- Node20 -->
<g id="Node000020" class="node">
<title>Node20</title>
<g id="a_Node000020"><a xlink:title=" ">
<polygon fill="#e0e0e0" stroke="#999999" points="52,-19 2,-19 2,0 52,0 52,-19"/>
<text text-anchor="middle" x="27" y="-7" font-family="Helvetica,sans-Serif" font-size="10.00">cstdint</text>
</a>
</g>
</g>
<!-- Node19&#45;&gt;Node20 -->
<g id="edge22_Node000019_Node000020" class="edge">
<title>Node19&#45;&gt;Node20</title>
<g id="a_edge22_Node000019_Node000020"><a xlink:title=" ">
<path fill="none" stroke="#63b8ff" d="M59.39,-60.37C53.84,-51.81 45.17,-38.47 38.2,-27.74"/>
<polygon fill="#63b8ff" stroke="#63b8ff" points="41.01,-25.65 32.63,-19.17 35.14,-29.46 41.01,-25.65"/>
</a>
</g>
</g>
<!-- Node21 -->
<g id="Node000021" class="node">
<title>Node21</title>
<g id="a_Node000021"><a xlink:title=" ">
<polygon fill="#e0e0e0" stroke="#999999" points="135.5,-19 70.5,-19 70.5,0 135.5,0 135.5,-19"/>
<text text-anchor="middle" x="103" y="-7" font-family="Helvetica,sans-Serif" font-size="10.00">exception</text>
</a>
</g>
</g>
<!-- Node19&#45;&gt;Node21 -->
<g id="edge23_Node000019_Node000021" class="edge">
<title>Node19&#45;&gt;Node21</title>
<g id="a_edge23_Node000019_Node000021"><a xlink:title=" ">
<path fill="none" stroke="#63b8ff" d="M70.61,-60.37C76.16,-51.81 84.83,-38.47 91.8,-27.74"/>
<polygon fill="#63b8ff" stroke="#63b8ff" points="94.86,-29.46 97.37,-19.17 88.99,-25.65 94.86,-29.46"/>
</a>
</g>
</g>
<!-- Node22&#45;&gt;Node15 -->
<g id="edge27_Node000022_Node000015" class="edge">
<title>Node22&#45;&gt;Node15</title>
<g id="a_edge27_Node000022_Node000015"><a xlink:title=" ">
<path fill="none" stroke="#63b8ff" d="M345.2,-120.82C355.01,-112.62 368.94,-99.45 377,-85 386.74,-67.55 391.58,-45.04 393.93,-29.35"/>
<polygon fill="#63b8ff" stroke="#63b8ff" points="397.42,-29.67 395.23,-19.3 390.47,-28.77 397.42,-29.67"/>
</a>
</g>
</g>
<!-- Node22&#45;&gt;Node19 -->
<g id="edge31_Node000022_Node000019" class="edge">
<title>Node22&#45;&gt;Node19</title>
<g id="a_edge31_Node000022_Node000019"><a xlink:title=" ">
<path fill="none" stroke="#63b8ff" d="M294.89,-120.99C247.07,-110.6 166.13,-92.99 114.15,-81.69"/>
<polygon fill="#63b8ff" stroke="#63b8ff" points="114.68,-78.22 104.16,-79.52 113.19,-85.06 114.68,-78.22"/>
</a>
</g>
</g>
<!-- Node23 -->
<g id="Node000023" class="node">
<title>Node23</title>
<g id="a_Node000023"><a xlink:title=" ">
<polygon fill="#e0e0e0" stroke="#999999" points="484,-79.5 424,-79.5 424,-60.5 484,-60.5 484,-79.5"/>
<text text-anchor="middle" x="454" y="-67.5" font-family="Helvetica,sans-Serif" font-size="10.00">iostream</text>
</a>
</g>
</g>
<!-- Node22&#45;&gt;Node23 -->
<g id="edge26_Node000022_Node000023" class="edge">
<title>Node22&#45;&gt;Node23</title>
<g id="a_edge26_Node000022_Node000023"><a xlink:title=" ">
<path fill="none" stroke="#63b8ff" d="M351.45,-120.99C371.36,-111.29 404.14,-95.31 427.27,-84.03"/>
<polygon fill="#63b8ff" stroke="#63b8ff" points="429.07,-87.04 436.53,-79.52 426.01,-80.75 429.07,-87.04"/>
</a>
</g>
</g>
<!-- Node24 -->
<g id="Node000024" class="node">
<title>Node24</title>
<g id="a_Node000024"><a xlink:title=" ">
<polygon fill="#e0e0e0" stroke="#999999" points="568,-19 518,-19 518,0 568,0 568,-19"/>
<text text-anchor="middle" x="543" y="-7" font-family="Helvetica,sans-Serif" font-size="10.00">chrono</text>
</a>
</g>
</g>
<!-- Node22&#45;&gt;Node24 -->
<g id="edge28_Node000022_Node000024" class="edge">
<title>Node22&#45;&gt;Node24</title>
<g id="a_edge28_Node000022_Node000024"><a xlink:title=" ">
<path fill="none" stroke="#63b8ff" d="M375.63,-125.85C409.89,-121.08 458.28,-110.12 493,-85 512.96,-70.56 527.34,-45.52 535.42,-28.5"/>
<polygon fill="#63b8ff" stroke="#63b8ff" points="538.74,-29.65 539.63,-19.1 532.35,-26.79 538.74,-29.65"/>
</a>
</g>
</g>
<!-- Node25 -->
<g id="Node000025" class="node">
<title>Node25</title>
<g id="a_Node000025"><a xlink:title=" ">
<polygon fill="#e0e0e0" stroke="#999999" points="242,-79.5 186,-79.5 186,-60.5 242,-60.5 242,-79.5"/>
<text text-anchor="middle" x="214" y="-67.5" font-family="Helvetica,sans-Serif" font-size="10.00">iomanip</text>
</a>
</g>
</g>
<!-- Node22&#45;&gt;Node25 -->
<g id="edge29_Node000022_Node000025" class="edge">
<title>Node22&#45;&gt;Node25</title>
<g id="a_edge29_Node000022_Node000025"><a xlink:title=" ">
<path fill="none" stroke="#63b8ff" d="M316.55,-120.99C296.64,-111.29 263.86,-95.31 240.73,-84.03"/>
<polygon fill="#63b8ff" stroke="#63b8ff" points="241.99,-80.75 231.47,-79.52 238.93,-87.04 241.99,-80.75"/>
</a>
</g>
</g>
<!-- Node26 -->
<g id="Node000026" class="node">
<title>Node26</title>
<g id="a_Node000026"><a xlink:title=" ">
<polygon fill="#e0e0e0" stroke="#999999" points="367.5,-85 260.5,-85 260.5,-55 367.5,-55 367.5,-85"/>
<text text-anchor="start" x="268.5" y="-73" font-family="Helvetica,sans-Serif" font-size="10.00">imgui&#45;platform&#45;kit</text>
<text text-anchor="middle" x="314" y="-62" font-family="Helvetica,sans-Serif" font-size="10.00">/log_window.h</text>
</a>
</g>
</g>
<!-- Node22&#45;&gt;Node26 -->
<g id="edge30_Node000022_Node000026" class="edge">
<title>Node22&#45;&gt;Node26</title>
<g id="a_edge30_Node000022_Node000026"><a xlink:title=" ">
<path fill="none" stroke="#63b8ff" d="M331.05,-120.87C328.69,-113.96 325.26,-103.93 322.09,-94.67"/>
<polygon fill="#63b8ff" stroke="#63b8ff" points="325.37,-93.44 318.83,-85.11 318.75,-95.71 325.37,-93.44"/>
</a>
</g>
</g>
<!-- Node27 -->
<g id="Node000027" class="node">
<title>Node27</title>
<g id="a_Node000027"><a xlink:href="utils_8h.html" target="_top" xlink:title=" ">
<polygon fill="white" stroke="#666666" points="637.5,-79.5 590.5,-79.5 590.5,-60.5 637.5,-60.5 637.5,-79.5"/>
<text text-anchor="middle" x="614" y="-67.5" font-family="Helvetica,sans-Serif" font-size="10.00">utils.h</text>
</a>
</g>
</g>
<!-- Node22&#45;&gt;Node27 -->
<g id="edge32_Node000022_Node000027" class="edge">
<title>Node22&#45;&gt;Node27</title>
<g id="a_edge32_Node000022_Node000027"><a xlink:title=" ">
<path fill="none" stroke="#63b8ff" d="M375.77,-122.48C422.02,-114.46 498.69,-100.43 564,-85 569.43,-83.72 575.15,-82.24 580.71,-80.73"/>
<polygon fill="#63b8ff" stroke="#63b8ff" points="581.75,-84.07 590.45,-78.02 579.88,-77.33 581.75,-84.07"/>
</a>
</g>
</g>
<!-- Node27&#45;&gt;Node3 -->
<g id="edge36_Node000027_Node000003" class="edge">
<title>Node27&#45;&gt;Node3</title>
<g id="a_edge36_Node000027_Node000003"><a xlink:title=" ">
<path fill="none" stroke="#63b8ff" d="M637.57,-66.67C728.3,-57.71 1055.46,-25.38 1167.81,-14.27"/>
<polygon fill="#63b8ff" stroke="#63b8ff" points="1168.39,-17.73 1177.99,-13.27 1167.7,-10.77 1168.39,-17.73"/>
</a>
</g>
</g>
<!-- Node27&#45;&gt;Node5 -->
<g id="edge34_Node000027_Node000005" class="edge">
<title>Node27&#45;&gt;Node5</title>
<g id="a_edge34_Node000027_Node000005"><a xlink:title=" ">
<path fill="none" stroke="#63b8ff" d="M626.1,-60.37C639.06,-51.12 659.86,-36.28 675.4,-25.19"/>
<polygon fill="#63b8ff" stroke="#63b8ff" points="677.74,-27.82 683.85,-19.17 673.68,-22.13 677.74,-27.82"/>
</a>
</g>
</g>
<!-- Node27&#45;&gt;Node11 -->
<g id="edge35_Node000027_Node000011" class="edge">
<title>Node27&#45;&gt;Node11</title>
<g id="a_edge35_Node000027_Node000011"><a xlink:title=" ">
<path fill="none" stroke="#63b8ff" d="M637.58,-64.51C690.65,-54.39 819.81,-29.78 883.81,-17.59"/>
<polygon fill="#63b8ff" stroke="#63b8ff" points="884.7,-20.98 893.86,-15.67 883.39,-14.1 884.7,-20.98"/>
</a>
</g>
</g>
<!-- Node27&#45;&gt;Node13 -->
<g id="edge37_Node000027_Node000013" class="edge">
<title>Node27&#45;&gt;Node13</title>
<g id="a_edge37_Node000027_Node000013"><a xlink:title=" ">
<path fill="none" stroke="#63b8ff" d="M637.66,-65.98C712.19,-56.46 942.57,-27.03 1034.02,-15.35"/>
<polygon fill="#63b8ff" stroke="#63b8ff" points="1034.74,-18.79 1044.21,-14.05 1033.85,-11.84 1034.74,-18.79"/>
</a>
</g>
</g>
<!-- Node27&#45;&gt;Node15 -->
<g id="edge33_Node000027_Node000015" class="edge">
<title>Node27&#45;&gt;Node15</title>
<g id="a_edge33_Node000027_Node000015"><a xlink:title=" ">
<path fill="none" stroke="#63b8ff" d="M590.26,-62.63C550.92,-52.07 472.21,-30.95 428.01,-19.09"/>
<polygon fill="#63b8ff" stroke="#63b8ff" points="428.65,-15.64 418.08,-16.43 426.84,-22.4 428.65,-15.64"/>
</a>
</g>
</g>
<!-- Node27&#45;&gt;Node24 -->
<g id="edge38_Node000027_Node000024" class="edge">
<title>Node27&#45;&gt;Node24</title>
<g id="a_edge38_Node000027_Node000024"><a xlink:title=" ">
<path fill="none" stroke="#63b8ff" d="M603.52,-60.37C592.51,-51.3 574.96,-36.84 561.59,-25.82"/>
<polygon fill="#63b8ff" stroke="#63b8ff" points="563.46,-22.83 553.52,-19.17 559.01,-28.23 563.46,-22.83"/>
</a>
</g>
</g>
<!-- Node28 -->
<g id="Node000028" class="node">
<title>Node28</title>
<g id="a_Node000028"><a xlink:title=" ">
<polygon fill="#e0e0e0" stroke="#999999" points="654,-19 586,-19 586,0 654,0 654,-19"/>
<text text-anchor="middle" x="620" y="-7" font-family="Helvetica,sans-Serif" font-size="10.00">filesystem</text>
</a>
</g>
</g>
<!-- Node27&#45;&gt;Node28 -->
<g id="edge39_Node000027_Node000028" class="edge">
<title>Node27&#45;&gt;Node28</title>
<g id="a_edge39_Node000027_Node000028"><a xlink:title=" ">
<path fill="none" stroke="#63b8ff" d="M614.89,-60.37C615.72,-52.25 616.99,-39.81 618.06,-29.39"/>
<polygon fill="#63b8ff" stroke="#63b8ff" points="621.57,-29.47 619.11,-19.17 614.61,-28.76 621.57,-29.47"/>
</a>
</g>
</g>
<!-- Node29&#45;&gt;Node2 -->
<g id="edge41_Node000029_Node000002" class="edge">
<title>Node29&#45;&gt;Node2</title>
<g id="a_edge41_Node000029_Node000002"><a xlink:title=" ">
<path fill="none" stroke="#63b8ff" d="M199.45,-175.99C180.78,-166.49 156.26,-154.02 137.94,-144.69"/>
<polygon fill="#63b8ff" stroke="#63b8ff" points="139.48,-141.55 128.98,-140.14 136.31,-147.79 139.48,-141.55"/>
</a>
</g>
</g>
<!-- Node29&#45;&gt;Node15 -->
<g id="edge42_Node000029_Node000015" class="edge">
<title>Node29&#45;&gt;Node15</title>
<g id="a_edge42_Node000029_Node000015"><a xlink:title=" ">
<path fill="none" stroke="#63b8ff" d="M224.98,-175.84C222.5,-161.39 217.41,-138.65 208,-121 198.07,-102.37 184.35,-104.79 177,-85 172.36,-72.5 168.56,-65.32 177,-55 200.19,-26.62 308.4,-15.9 363.54,-12.22"/>
<polygon fill="#63b8ff" stroke="#63b8ff" points="364.05,-15.7 373.81,-11.58 363.61,-8.71 364.05,-15.7"/>
</a>
</g>
</g>
<!-- Node29&#45;&gt;Node22 -->
<g id="edge44_Node000029_Node000022" class="edge">
<title>Node29&#45;&gt;Node22</title>
<g id="a_edge44_Node000029_Node000022"><a xlink:title=" ">
<path fill="none" stroke="#63b8ff" d="M252.63,-175.99C269.84,-166.58 292.4,-154.24 309.4,-144.95"/>
<polygon fill="#63b8ff" stroke="#63b8ff" points="311.1,-148.01 318.2,-140.14 307.75,-141.87 311.1,-148.01"/>
</a>
</g>
</g>
<!-- Node30 -->
<g id="Node000030" class="node">
<title>Node30</title>
<g id="a_Node000030"><a xlink:title=" ">
<polygon fill="#e0e0e0" stroke="#999999" points="199,-140 149,-140 149,-121 199,-121 199,-140"/>
<text text-anchor="middle" x="174" y="-128" font-family="Helvetica,sans-Serif" font-size="10.00">format</text>
</a>
</g>
</g>
<!-- Node29&#45;&gt;Node30 -->
<g id="edge43_Node000029_Node000030" class="edge">
<title>Node29&#45;&gt;Node30</title>
<g id="a_edge43_Node000029_Node000030"><a xlink:title=" ">
<path fill="none" stroke="#63b8ff" d="M214.17,-175.84C206.48,-167.35 196.67,-156.52 188.67,-147.69"/>
<polygon fill="#63b8ff" stroke="#63b8ff" points="191.25,-145.33 181.94,-140.27 186.06,-150.03 191.25,-145.33"/>
</a>
</g>
</g>
</g>
</svg>
