<?xml version="1.0" encoding="UTF-8" standalone="no"?>
<!DOCTYPE svg PUBLIC "-//W3C//DTD SVG 1.1//EN"
 "http://www.w3.org/Graphics/SVG/1.1/DTD/svg11.dtd">
<!-- Generated by graphviz version 2.43.0 (0)
 -->
<!-- Title: include/user_interface/control_bar_window.h Pages: 1 -->
<svg width="1304pt" height="588pt"
 viewBox="0.00 0.00 1303.70 588.00" xmlns="http://www.w3.org/2000/svg" xmlns:xlink="http://www.w3.org/1999/xlink">
<g id="graph0" class="graph" transform="scale(1 1) rotate(0) translate(4 584)">
<title>include/user_interface/control_bar_window.h</title>
<!-- Node1 -->
<g id="Node000001" class="node">
<title>Node1</title>
<g id="a_Node000001"><a xlink:title=" ">
<polygon fill="#999999" stroke="#666666" points="332.2,-580 207.2,-580 207.2,-550 332.2,-550 332.2,-580"/>
<text text-anchor="start" x="215.2" y="-568" font-family="Helvetica,sans-Serif" font-size="10.00">include/user_interface</text>
<text text-anchor="middle" x="269.7" y="-557" font-family="Helvetica,sans-Serif" font-size="10.00">/control_bar_window.h</text>
</a>
</g>
</g>
<!-- Node2 -->
<g id="Node000002" class="node">
<title>Node2</title>
<g id="a_Node000002"><a xlink:title=" ">
<polygon fill="#e0e0e0" stroke="#999999" points="339.7,-448 199.7,-448 199.7,-418 339.7,-418 339.7,-448"/>
<text text-anchor="start" x="207.7" y="-436" font-family="Helvetica,sans-Serif" font-size="10.00">imgui&#45;platform&#45;kit</text>
<text text-anchor="middle" x="269.7" y="-425" font-family="Helvetica,sans-Serif" font-size="10.00">/user_interface_window.h</text>
</a>
</g>
</g>
<!-- Node1&#45;&gt;Node2 -->
<g id="edge1_Node000001_Node000002" class="edge">
<title>Node1&#45;&gt;Node2</title>
<g id="a_edge1_Node000001_Node000002"><a xlink:title=" ">
<path fill="none" stroke="#63b8ff" d="M269.7,-549.84C269.7,-527.86 269.7,-485.27 269.7,-458.3"/>
<polygon fill="#63b8ff" stroke="#63b8ff" points="273.2,-458.14 269.7,-448.14 266.2,-458.14 273.2,-458.14"/>
</a>
</g>
</g>
<!-- Node3 -->
<g id="Node000003" class="node">
<title>Node3</title>
<g id="a_Node000003"><a xlink:href="simulation_8h.html" target="_top" xlink:title=" ">
<polygon fill="white" stroke="#666666" points="295.7,-316 163.7,-316 163.7,-297 295.7,-297 295.7,-316"/>
<text text-anchor="middle" x="229.7" y="-304" font-family="Helvetica,sans-Serif" font-size="10.00">simulation/simulation.h</text>
</a>
</g>
</g>
<!-- Node1&#45;&gt;Node3 -->
<g id="edge2_Node000001_Node000003" class="edge">
<title>Node1&#45;&gt;Node3</title>
<g id="a_edge2_Node000001_Node000003"><a xlink:title=" ">
<path fill="none" stroke="#63b8ff" d="M255.72,-549.8C236.68,-529.34 203.47,-489.45 190.7,-448 177.09,-403.83 202.73,-351.2 218.56,-324.64"/>
<polygon fill="#63b8ff" stroke="#63b8ff" points="221.56,-326.45 223.85,-316.1 215.61,-322.76 221.56,-326.45"/>
</a>
</g>
</g>
<!-- Node28 -->
<g id="Node000028" class="node">
<title>Node28</title>
<g id="a_Node000028"><a xlink:href="log__window_8h.html" target="_top" xlink:title=" ">
<polygon fill="white" stroke="#666666" points="474.7,-514 370.7,-514 370.7,-484 474.7,-484 474.7,-514"/>
<text text-anchor="start" x="378.7" y="-502" font-family="Helvetica,sans-Serif" font-size="10.00">user_interface/log</text>
<text text-anchor="middle" x="422.7" y="-491" font-family="Helvetica,sans-Serif" font-size="10.00">_window.h</text>
</a>
</g>
</g>
<!-- Node1&#45;&gt;Node28 -->
<g id="edge42_Node000001_Node000028" class="edge">
<title>Node1&#45;&gt;Node28</title>
<g id="a_edge42_Node000001_Node000028"><a xlink:title=" ">
<path fill="none" stroke="#63b8ff" d="M303.28,-549.95C325.8,-540.53 355.65,-528.04 379.88,-517.91"/>
<polygon fill="#63b8ff" stroke="#63b8ff" points="381.33,-521.1 389.2,-514.01 378.63,-514.64 381.33,-521.1"/>
</a>
</g>
</g>
<!-- Node4 -->
<g id="Node000004" class="node">
<title>Node4</title>
<g id="a_Node000004"><a xlink:title=" ">
<polygon fill="#e0e0e0" stroke="#999999" points="101.2,-19 54.2,-19 54.2,0 101.2,0 101.2,-19"/>
<text text-anchor="middle" x="77.7" y="-7" font-family="Helvetica,sans-Serif" font-size="10.00">vector</text>
</a>
</g>
</g>
<!-- Node3&#45;&gt;Node4 -->
<g id="edge3_Node000003_Node000004" class="edge">
<title>Node3&#45;&gt;Node4</title>
<g id="a_edge3_Node000003_Node000004"><a xlink:title=" ">
<path fill="none" stroke="#63b8ff" d="M197.09,-296.99C152.43,-283.13 77.7,-251.12 77.7,-192 77.7,-192 77.7,-192 77.7,-129.5 77.7,-94.15 77.7,-52.9 77.7,-29.42"/>
<polygon fill="#63b8ff" stroke="#63b8ff" points="81.2,-29.16 77.7,-19.16 74.2,-29.16 81.2,-29.16"/>
</a>
</g>
</g>
<!-- Node5 -->
<g id="Node000005" class="node">
<title>Node5</title>
<g id="a_Node000005"><a xlink:title=" ">
<polygon fill="#e0e0e0" stroke="#999999" points="315.7,-200.5 257.7,-200.5 257.7,-181.5 315.7,-181.5 315.7,-200.5"/>
<text text-anchor="middle" x="286.7" y="-188.5" font-family="Helvetica,sans-Serif" font-size="10.00">memory</text>
</a>
</g>
</g>
<!-- Node3&#45;&gt;Node5 -->
<g id="edge4_Node000003_Node000005" class="edge">
<title>Node3&#45;&gt;Node5</title>
<g id="a_edge4_Node000003_Node000005"><a xlink:title=" ">
<path fill="none" stroke="#63b8ff" d="M233.98,-296.97C243.27,-278.48 265.41,-234.4 277.84,-209.64"/>
<polygon fill="#63b8ff" stroke="#63b8ff" points="281.01,-211.14 282.37,-200.63 274.75,-208 281.01,-211.14"/>
</a>
</g>
</g>
<!-- Node6 -->
<g id="Node000006" class="node">
<title>Node6</title>
<g id="a_Node000006"><a xlink:title=" ">
<polygon fill="#e0e0e0" stroke="#999999" points="876.7,-19 832.7,-19 832.7,0 876.7,0 876.7,-19"/>
<text text-anchor="middle" x="854.7" y="-7" font-family="Helvetica,sans-Serif" font-size="10.00">string</text>
</a>
</g>
</g>
<!-- Node3&#45;&gt;Node6 -->
<g id="edge5_Node000003_Node000006" class="edge">
<title>Node3&#45;&gt;Node6</title>
<g id="a_edge5_Node000003_Node000006"><a xlink:title=" ">
<path fill="none" stroke="#63b8ff" d="M228.58,-296.74C226.2,-274.47 222.8,-214.72 248.7,-176 307.09,-88.69 352.12,-88.41 451.7,-55 520.43,-31.94 739.44,-17.18 822.42,-12.29"/>
<polygon fill="#63b8ff" stroke="#63b8ff" points="822.74,-15.78 832.52,-11.71 822.33,-8.79 822.74,-15.78"/>
</a>
</g>
</g>
<!-- Node7 -->
<g id="Node000007" class="node">
<title>Node7</title>
<g id="a_Node000007"><a xlink:title=" ">
<polygon fill="#e0e0e0" stroke="#999999" points="187.7,-19 119.7,-19 119.7,0 187.7,0 187.7,-19"/>
<text text-anchor="middle" x="153.7" y="-7" font-family="Helvetica,sans-Serif" font-size="10.00">filesystem</text>
</a>
</g>
</g>
<!-- Node3&#45;&gt;Node7 -->
<g id="edge6_Node000003_Node000007" class="edge">
<title>Node3&#45;&gt;Node7</title>
<g id="a_edge6_Node000003_Node000007"><a xlink:title=" ">
<path fill="none" stroke="#63b8ff" d="M209.11,-296.95C194.52,-289.69 175.94,-277.77 166.7,-261 124.34,-184.17 140.6,-73.13 149.45,-29.3"/>
<polygon fill="#63b8ff" stroke="#63b8ff" points="152.89,-29.96 151.55,-19.45 146.04,-28.5 152.89,-29.96"/>
</a>
</g>
</g>
<!-- Node8 -->
<g id="Node000008" class="node">
<title>Node8</title>
<g id="a_Node000008"><a xlink:title=" ">
<polygon fill="#e0e0e0" stroke="#999999" points="475.7,-19 425.7,-19 425.7,0 475.7,0 475.7,-19"/>
<text text-anchor="middle" x="450.7" y="-7" font-family="Helvetica,sans-Serif" font-size="10.00">chrono</text>
</a>
</g>
</g>
<!-- Node3&#45;&gt;Node8 -->
<g id="edge7_Node000003_Node000008" class="edge">
<title>Node3&#45;&gt;Node8</title>
<g id="a_edge7_Node000003_Node000008"><a xlink:title=" ">
<path fill="none" stroke="#63b8ff" d="M226.22,-297C218.08,-275.81 199.66,-219.26 215.7,-176 240.35,-109.51 260.94,-94.7 319.7,-55 335.57,-44.28 382.52,-29.64 415.66,-20.13"/>
<polygon fill="#63b8ff" stroke="#63b8ff" points="416.78,-23.45 425.45,-17.35 414.87,-16.72 416.78,-23.45"/>
</a>
</g>
</g>
<!-- Node9 -->
<g id="Node000009" class="node">
<title>Node9</title>
<g id="a_Node000009"><a xlink:href="element_8h.html" target="_top" xlink:title=" ">
<polygon fill="white" stroke="#666666" points="552.2,-261 437.2,-261 437.2,-242 552.2,-242 552.2,-261"/>
<text text-anchor="middle" x="494.7" y="-249" font-family="Helvetica,sans-Serif" font-size="10.00">elements/element.h</text>
</a>
</g>
</g>
<!-- Node3&#45;&gt;Node9 -->
<g id="edge8_Node000003_Node000009" class="edge">
<title>Node3&#45;&gt;Node9</title>
<g id="a_edge8_Node000003_Node000009"><a xlink:title=" ">
<path fill="none" stroke="#63b8ff" d="M272.28,-296.98C318.4,-287.76 392.06,-273.03 441.85,-263.07"/>
<polygon fill="#63b8ff" stroke="#63b8ff" points="442.67,-266.48 451.79,-261.08 441.3,-259.61 442.67,-266.48"/>
</a>
</g>
</g>
<!-- Node14 -->
<g id="Node000014" class="node">
<title>Node14</title>
<g id="a_Node000014"><a xlink:href="exception_8h.html" target="_top" xlink:title=" ">
<polygon fill="white" stroke="#666666" points="1192.7,-79.5 1062.7,-79.5 1062.7,-60.5 1192.7,-60.5 1192.7,-79.5"/>
<text text-anchor="middle" x="1127.7" y="-67.5" font-family="Helvetica,sans-Serif" font-size="10.00">exceptions/exception.h</text>
</a>
</g>
</g>
<!-- Node3&#45;&gt;Node14 -->
<g id="edge40_Node000003_Node000014" class="edge">
<title>Node3&#45;&gt;Node14</title>
<g id="a_edge40_Node000003_Node000014"><a xlink:title=" ">
<path fill="none" stroke="#63b8ff" d="M295.81,-302.28C490.16,-292.23 1049.94,-258.92 1111.7,-206 1144.91,-177.54 1138.42,-119.54 1132.31,-89.68"/>
<polygon fill="#63b8ff" stroke="#63b8ff" points="1135.68,-88.72 1130.07,-79.73 1128.85,-90.26 1135.68,-88.72"/>
</a>
</g>
</g>
<!-- Node21 -->
<g id="Node000021" class="node">
<title>Node21</title>
<g id="a_Node000021"><a xlink:href="utils_8h.html" target="_top" xlink:title=" ">
<polygon fill="white" stroke="#666666" points="267.2,-79.5 220.2,-79.5 220.2,-60.5 267.2,-60.5 267.2,-79.5"/>
<text text-anchor="middle" x="243.7" y="-67.5" font-family="Helvetica,sans-Serif" font-size="10.00">utils.h</text>
</a>
</g>
</g>
<!-- Node3&#45;&gt;Node21 -->
<g id="edge41_Node000003_Node000021" class="edge">
<title>Node3&#45;&gt;Node21</title>
<g id="a_edge41_Node000003_Node000021"><a xlink:title=" ">
<path fill="none" stroke="#63b8ff" d="M213.67,-296.95C201.28,-289.35 185.05,-276.97 177.7,-261 161.9,-226.68 167.24,-212.3 177.7,-176 187.72,-141.22 213.05,-106.83 229.25,-87.33"/>
<polygon fill="#63b8ff" stroke="#63b8ff" points="231.94,-89.57 235.77,-79.69 226.61,-85.03 231.94,-89.57"/>
</a>
</g>
</g>
<!-- Node9&#45;&gt;Node4 -->
<g id="edge9_Node000009_Node000004" class="edge">
<title>Node9&#45;&gt;Node4</title>
<g id="a_edge9_Node000009_Node000004"><a xlink:title=" ">
<path fill="none" stroke="#63b8ff" d="M475.2,-241.9C405.6,-211.12 172.01,-107.12 142.7,-85 121.17,-68.75 101.58,-44.38 89.66,-27.98"/>
<polygon fill="#63b8ff" stroke="#63b8ff" points="92.2,-25.51 83.57,-19.36 86.48,-29.55 92.2,-25.51"/>
</a>
</g>
</g>
<!-- Node9&#45;&gt;Node5 -->
<g id="edge12_Node000009_Node000005" class="edge">
<title>Node9&#45;&gt;Node5</title>
<g id="a_edge12_Node000009_Node000005"><a xlink:title=" ">
<path fill="none" stroke="#63b8ff" d="M461.06,-241.97C427.62,-233.36 374.92,-219.45 329.7,-206 327.11,-205.23 324.44,-204.41 321.75,-203.58"/>
<polygon fill="#63b8ff" stroke="#63b8ff" points="322.69,-200.2 312.1,-200.51 320.57,-206.87 322.69,-200.2"/>
</a>
</g>
</g>
<!-- Node9&#45;&gt;Node6 -->
<g id="edge10_Node000009_Node000006" class="edge">
<title>Node9&#45;&gt;Node6</title>
<g id="a_edge10_Node000009_Node000006"><a xlink:title=" ">
<path fill="none" stroke="#63b8ff" d="M476.94,-241.9C462.59,-234.19 442.71,-221.69 429.7,-206 404.22,-175.27 377.9,-153.77 400.7,-121 449.6,-50.71 726.6,-21.2 822.23,-13.02"/>
<polygon fill="#63b8ff" stroke="#63b8ff" points="822.78,-16.48 832.46,-12.16 822.2,-9.51 822.78,-16.48"/>
</a>
</g>
</g>
<!-- Node10 -->
<g id="Node000010" class="node">
<title>Node10</title>
<g id="a_Node000010"><a xlink:title=" ">
<polygon fill="#e0e0e0" stroke="#999999" points="541.2,-200.5 448.2,-200.5 448.2,-181.5 541.2,-181.5 541.2,-200.5"/>
<text text-anchor="middle" x="494.7" y="-188.5" font-family="Helvetica,sans-Serif" font-size="10.00">unordered_map</text>
</a>
</g>
</g>
<!-- Node9&#45;&gt;Node10 -->
<g id="edge11_Node000009_Node000010" class="edge">
<title>Node9&#45;&gt;Node10</title>
<g id="a_edge11_Node000009_Node000010"><a xlink:title=" ">
<path fill="none" stroke="#63b8ff" d="M494.7,-241.87C494.7,-233.75 494.7,-221.31 494.7,-210.89"/>
<polygon fill="#63b8ff" stroke="#63b8ff" points="498.2,-210.67 494.7,-200.67 491.2,-210.67 498.2,-210.67"/>
</a>
</g>
</g>
<!-- Node11 -->
<g id="Node000011" class="node">
<title>Node11</title>
<g id="a_Node000011"><a xlink:title=" ">
<polygon fill="#e0e0e0" stroke="#999999" points="609.7,-200.5 559.7,-200.5 559.7,-181.5 609.7,-181.5 609.7,-200.5"/>
<text text-anchor="middle" x="584.7" y="-188.5" font-family="Helvetica,sans-Serif" font-size="10.00">ranges</text>
</a>
</g>
</g>
<!-- Node9&#45;&gt;Node11 -->
<g id="edge13_Node000009_Node000011" class="edge">
<title>Node9&#45;&gt;Node11</title>
<g id="a_edge13_Node000009_Node000011"><a xlink:title=" ">
<path fill="none" stroke="#63b8ff" d="M507.98,-241.87C522.34,-232.54 545.46,-217.51 562.57,-206.38"/>
<polygon fill="#63b8ff" stroke="#63b8ff" points="564.89,-209.05 571.37,-200.67 561.07,-203.18 564.89,-209.05"/>
</a>
</g>
</g>
<!-- Node12 -->
<g id="Node000012" class="node">
<title>Node12</title>
<g id="a_Node000012"><a xlink:title=" ">
<polygon fill="#e0e0e0" stroke="#999999" points="691.7,-200.5 627.7,-200.5 627.7,-181.5 691.7,-181.5 691.7,-200.5"/>
<text text-anchor="middle" x="659.7" y="-188.5" font-family="Helvetica,sans-Serif" font-size="10.00">algorithm</text>
</a>
</g>
</g>
<!-- Node9&#45;&gt;Node12 -->
<g id="edge14_Node000009_Node000012" class="edge">
<title>Node9&#45;&gt;Node12</title>
<g id="a_edge14_Node000009_Node000012"><a xlink:title=" ">
<path fill="none" stroke="#63b8ff" d="M518.69,-241.99C546.92,-231.99 593.98,-215.3 625.89,-203.99"/>
<polygon fill="#63b8ff" stroke="#63b8ff" points="627.42,-207.16 635.68,-200.52 625.08,-200.56 627.42,-207.16"/>
</a>
</g>
</g>
<!-- Node13 -->
<g id="Node000013" class="node">
<title>Node13</title>
<g id="a_Node000013"><a xlink:title=" ">
<polygon fill="#e0e0e0" stroke="#999999" points="765.7,-200.5 709.7,-200.5 709.7,-181.5 765.7,-181.5 765.7,-200.5"/>
<text text-anchor="middle" x="737.7" y="-188.5" font-family="Helvetica,sans-Serif" font-size="10.00">numeric</text>
</a>
</g>
</g>
<!-- Node9&#45;&gt;Node13 -->
<g id="edge15_Node000009_Node000013" class="edge">
<title>Node9&#45;&gt;Node13</title>
<g id="a_edge15_Node000009_Node000013"><a xlink:title=" ">
<path fill="none" stroke="#63b8ff" d="M544.33,-241.93C586.39,-234.15 648.06,-221.55 700.7,-206 702.84,-205.37 705.03,-204.67 707.23,-203.93"/>
<polygon fill="#63b8ff" stroke="#63b8ff" points="708.51,-207.2 716.75,-200.55 706.16,-200.6 708.51,-207.2"/>
</a>
</g>
</g>
<!-- Node9&#45;&gt;Node14 -->
<g id="edge16_Node000009_Node000014" class="edge">
<title>Node9&#45;&gt;Node14</title>
<g id="a_edge16_Node000009_Node000014"><a xlink:title=" ">
<path fill="none" stroke="#63b8ff" d="M552.31,-247.92C697.07,-241.21 1066.04,-222.55 1086.7,-206 1121.97,-177.74 1127.7,-120.09 1128.14,-90.09"/>
<polygon fill="#63b8ff" stroke="#63b8ff" points="1131.64,-89.73 1128.1,-79.74 1124.64,-89.76 1131.64,-89.73"/>
</a>
</g>
</g>
<!-- Node17 -->
<g id="Node000017" class="node">
<title>Node17</title>
<g id="a_Node000017"><a xlink:href="logger_8h.html" target="_top" xlink:title=" ">
<polygon fill="white" stroke="#666666" points="835.2,-140 752.2,-140 752.2,-121 835.2,-121 835.2,-140"/>
<text text-anchor="middle" x="793.7" y="-128" font-family="Helvetica,sans-Serif" font-size="10.00">tools/logger.h</text>
</a>
</g>
</g>
<!-- Node9&#45;&gt;Node17 -->
<g id="edge20_Node000009_Node000017" class="edge">
<title>Node9&#45;&gt;Node17</title>
<g id="a_edge20_Node000009_Node000017"><a xlink:title=" ">
<path fill="none" stroke="#63b8ff" d="M476.93,-241.96C463.69,-234.51 446.58,-222.33 438.7,-206 432.9,-193.99 429.88,-186 438.7,-176 458.43,-153.64 648.35,-139.78 742,-134.26"/>
<polygon fill="#63b8ff" stroke="#63b8ff" points="742.34,-137.74 752.12,-133.67 741.93,-130.76 742.34,-137.74"/>
</a>
</g>
</g>
<!-- Node25 -->
<g id="Node000025" class="node">
<title>Node25</title>
<g id="a_Node000025"><a xlink:href="element__parameters_8h.html" target="_top" xlink:title=" ">
<polygon fill="white" stroke="#666666" points="953.2,-206 822.2,-206 822.2,-176 953.2,-176 953.2,-206"/>
<text text-anchor="start" x="830.2" y="-194" font-family="Helvetica,sans-Serif" font-size="10.00">element_parameters</text>
<text text-anchor="middle" x="887.7" y="-183" font-family="Helvetica,sans-Serif" font-size="10.00">/element_parameters.h</text>
</a>
</g>
</g>
<!-- Node9&#45;&gt;Node25 -->
<g id="edge35_Node000009_Node000025" class="edge">
<title>Node9&#45;&gt;Node25</title>
<g id="a_edge35_Node000009_Node000025"><a xlink:title=" ">
<path fill="none" stroke="#63b8ff" d="M551.85,-241.99C620.5,-231.77 735.93,-214.59 811.96,-203.27"/>
<polygon fill="#63b8ff" stroke="#63b8ff" points="812.58,-206.72 821.96,-201.79 811.55,-199.8 812.58,-206.72"/>
</a>
</g>
</g>
<!-- Node14&#45;&gt;Node6 -->
<g id="edge19_Node000014_Node000006" class="edge">
<title>Node14&#45;&gt;Node6</title>
<g id="a_edge19_Node000014_Node000006"><a xlink:title=" ">
<path fill="none" stroke="#63b8ff" d="M1088,-60.49C1033.61,-48.84 936.95,-28.13 886.84,-17.39"/>
<polygon fill="#63b8ff" stroke="#63b8ff" points="887.39,-13.93 876.88,-15.25 885.92,-20.77 887.39,-13.93"/>
</a>
</g>
</g>
<!-- Node15 -->
<g id="Node000015" class="node">
<title>Node15</title>
<g id="a_Node000015"><a xlink:title=" ">
<polygon fill="#e0e0e0" stroke="#999999" points="1190.7,-19 1140.7,-19 1140.7,0 1190.7,0 1190.7,-19"/>
<text text-anchor="middle" x="1165.7" y="-7" font-family="Helvetica,sans-Serif" font-size="10.00">cstdint</text>
</a>
</g>
</g>
<!-- Node14&#45;&gt;Node15 -->
<g id="edge17_Node000014_Node000015" class="edge">
<title>Node14&#45;&gt;Node15</title>
<g id="a_edge17_Node000014_Node000015"><a xlink:title=" ">
<path fill="none" stroke="#63b8ff" d="M1133.31,-60.37C1138.86,-51.81 1147.53,-38.47 1154.5,-27.74"/>
<polygon fill="#63b8ff" stroke="#63b8ff" points="1157.56,-29.46 1160.07,-19.17 1151.69,-25.65 1157.56,-29.46"/>
</a>
</g>
</g>
<!-- Node16 -->
<g id="Node000016" class="node">
<title>Node16</title>
<g id="a_Node000016"><a xlink:title=" ">
<polygon fill="#e0e0e0" stroke="#999999" points="1122.2,-19 1057.2,-19 1057.2,0 1122.2,0 1122.2,-19"/>
<text text-anchor="middle" x="1089.7" y="-7" font-family="Helvetica,sans-Serif" font-size="10.00">exception</text>
</a>
</g>
</g>
<!-- Node14&#45;&gt;Node16 -->
<g id="edge18_Node000014_Node000016" class="edge">
<title>Node14&#45;&gt;Node16</title>
<g id="a_edge18_Node000014_Node000016"><a xlink:title=" ">
<path fill="none" stroke="#63b8ff" d="M1122.09,-60.37C1116.54,-51.81 1107.87,-38.47 1100.9,-27.74"/>
<polygon fill="#63b8ff" stroke="#63b8ff" points="1103.71,-25.65 1095.33,-19.17 1097.84,-29.46 1103.71,-25.65"/>
</a>
</g>
</g>
<!-- Node17&#45;&gt;Node6 -->
<g id="edge22_Node000017_Node000006" class="edge">
<title>Node17&#45;&gt;Node6</title>
<g id="a_edge22_Node000017_Node000006"><a xlink:title=" ">
<path fill="none" stroke="#63b8ff" d="M795.02,-120.76C797.47,-106.34 803.6,-76.97 815.7,-55 821.5,-44.47 830.14,-34.27 837.82,-26.3"/>
<polygon fill="#63b8ff" stroke="#63b8ff" points="840.4,-28.67 845.03,-19.14 835.47,-23.7 840.4,-28.67"/>
</a>
</g>
</g>
<!-- Node17&#45;&gt;Node8 -->
<g id="edge23_Node000017_Node000008" class="edge">
<title>Node17&#45;&gt;Node8</title>
<g id="a_edge23_Node000017_Node000008"><a xlink:title=" ">
<path fill="none" stroke="#63b8ff" d="M752.17,-124.94C708.02,-119.18 636.72,-107.21 578.7,-85 538.03,-69.43 495.15,-41.86 470.78,-24.97"/>
<polygon fill="#63b8ff" stroke="#63b8ff" points="472.59,-21.96 462.39,-19.07 468.56,-27.69 472.59,-21.96"/>
</a>
</g>
</g>
<!-- Node17&#45;&gt;Node14 -->
<g id="edge26_Node000017_Node000014" class="edge">
<title>Node17&#45;&gt;Node14</title>
<g id="a_edge26_Node000017_Node000014"><a xlink:title=" ">
<path fill="none" stroke="#63b8ff" d="M835.33,-122.21C894.21,-111.9 1002.09,-93 1069.06,-81.27"/>
<polygon fill="#63b8ff" stroke="#63b8ff" points="1069.79,-84.7 1079.04,-79.52 1068.59,-77.8 1069.79,-84.7"/>
</a>
</g>
</g>
<!-- Node18 -->
<g id="Node000018" class="node">
<title>Node18</title>
<g id="a_Node000018"><a xlink:title=" ">
<polygon fill="#e0e0e0" stroke="#999999" points="884.7,-79.5 824.7,-79.5 824.7,-60.5 884.7,-60.5 884.7,-79.5"/>
<text text-anchor="middle" x="854.7" y="-67.5" font-family="Helvetica,sans-Serif" font-size="10.00">iostream</text>
</a>
</g>
</g>
<!-- Node17&#45;&gt;Node18 -->
<g id="edge21_Node000017_Node000018" class="edge">
<title>Node17&#45;&gt;Node18</title>
<g id="a_edge21_Node000017_Node000018"><a xlink:title=" ">
<path fill="none" stroke="#63b8ff" d="M802.7,-120.87C812.07,-111.88 826.95,-97.61 838.4,-86.64"/>
<polygon fill="#63b8ff" stroke="#63b8ff" points="840.87,-89.12 845.66,-79.67 836.02,-84.06 840.87,-89.12"/>
</a>
</g>
</g>
<!-- Node19 -->
<g id="Node000019" class="node">
<title>Node19</title>
<g id="a_Node000019"><a xlink:title=" ">
<polygon fill="#e0e0e0" stroke="#999999" points="768.7,-79.5 712.7,-79.5 712.7,-60.5 768.7,-60.5 768.7,-79.5"/>
<text text-anchor="middle" x="740.7" y="-67.5" font-family="Helvetica,sans-Serif" font-size="10.00">iomanip</text>
</a>
</g>
</g>
<!-- Node17&#45;&gt;Node19 -->
<g id="edge24_Node000017_Node000019" class="edge">
<title>Node17&#45;&gt;Node19</title>
<g id="a_edge24_Node000017_Node000019"><a xlink:title=" ">
<path fill="none" stroke="#63b8ff" d="M785.88,-120.87C777.89,-112.05 765.3,-98.16 755.44,-87.27"/>
<polygon fill="#63b8ff" stroke="#63b8ff" points="757.86,-84.73 748.55,-79.67 752.67,-89.43 757.86,-84.73"/>
</a>
</g>
</g>
<!-- Node20 -->
<g id="Node000020" class="node">
<title>Node20</title>
<g id="a_Node000020"><a xlink:title=" ">
<polygon fill="#e0e0e0" stroke="#999999" points="694.2,-85 587.2,-85 587.2,-55 694.2,-55 694.2,-85"/>
<text text-anchor="start" x="595.2" y="-73" font-family="Helvetica,sans-Serif" font-size="10.00">imgui&#45;platform&#45;kit</text>
<text text-anchor="middle" x="640.7" y="-62" font-family="Helvetica,sans-Serif" font-size="10.00">/log_window.h</text>
</a>
</g>
</g>
<!-- Node17&#45;&gt;Node20 -->
<g id="edge25_Node000017_Node000020" class="edge">
<title>Node17&#45;&gt;Node20</title>
<g id="a_edge25_Node000017_Node000020"><a xlink:title=" ">
<path fill="none" stroke="#63b8ff" d="M771.45,-120.99C749.43,-112.57 715.06,-99.43 687.08,-88.73"/>
<polygon fill="#63b8ff" stroke="#63b8ff" points="688.07,-85.37 677.48,-85.06 685.57,-91.9 688.07,-85.37"/>
</a>
</g>
</g>
<!-- Node17&#45;&gt;Node21 -->
<g id="edge27_Node000017_Node000021" class="edge">
<title>Node17&#45;&gt;Node21</title>
<g id="a_edge27_Node000017_Node000021"><a xlink:title=" ">
<path fill="none" stroke="#63b8ff" d="M751.91,-125.05C646.8,-113.88 373.03,-84.76 277.32,-74.58"/>
<polygon fill="#63b8ff" stroke="#63b8ff" points="277.64,-71.09 267.33,-73.51 276.9,-78.05 277.64,-71.09"/>
</a>
</g>
</g>
<!-- Node21&#45;&gt;Node4 -->
<g id="edge29_Node000021_Node000004" class="edge">
<title>Node21&#45;&gt;Node4</title>
<g id="a_edge29_Node000021_Node000004"><a xlink:title=" ">
<path fill="none" stroke="#63b8ff" d="M220.82,-60.49C215.84,-58.66 210.6,-56.75 205.7,-55 173.63,-43.52 136.89,-30.79 111.03,-21.9"/>
<polygon fill="#63b8ff" stroke="#63b8ff" points="111.93,-18.51 101.34,-18.57 109.66,-25.13 111.93,-18.51"/>
</a>
</g>
</g>
<!-- Node21&#45;&gt;Node6 -->
<g id="edge28_Node000021_Node000006" class="edge">
<title>Node21&#45;&gt;Node6</title>
<g id="a_edge28_Node000021_Node000006"><a xlink:title=" ">
<path fill="none" stroke="#63b8ff" d="M267.22,-64.04C282.19,-61.05 302.01,-57.36 319.7,-55 509.32,-29.71 738.79,-16.37 822.32,-12.07"/>
<polygon fill="#63b8ff" stroke="#63b8ff" points="822.64,-15.56 832.45,-11.56 822.28,-8.57 822.64,-15.56"/>
</a>
</g>
</g>
<!-- Node21&#45;&gt;Node7 -->
<g id="edge34_Node000021_Node000007" class="edge">
<title>Node21&#45;&gt;Node7</title>
<g id="a_edge34_Node000021_Node000007"><a xlink:title=" ">
<path fill="none" stroke="#63b8ff" d="M230.42,-60.37C216.06,-51.04 192.94,-36.01 175.83,-24.88"/>
<polygon fill="#63b8ff" stroke="#63b8ff" points="177.33,-21.68 167.03,-19.17 173.51,-27.55 177.33,-21.68"/>
</a>
</g>
</g>
<!-- Node21&#45;&gt;Node8 -->
<g id="edge33_Node000021_Node000008" class="edge">
<title>Node21&#45;&gt;Node8</title>
<g id="a_edge33_Node000021_Node000008"><a xlink:title=" ">
<path fill="none" stroke="#63b8ff" d="M265.68,-60.5C270.9,-58.59 276.47,-56.65 281.7,-55 306.49,-47.19 373.83,-29.89 415.63,-19.31"/>
<polygon fill="#63b8ff" stroke="#63b8ff" points="416.58,-22.68 425.41,-16.84 414.86,-15.9 416.58,-22.68"/>
</a>
</g>
</g>
<!-- Node22 -->
<g id="Node000022" class="node">
<title>Node22</title>
<g id="a_Node000022"><a xlink:title=" ">
<polygon fill="#e0e0e0" stroke="#999999" points="407.7,-19 353.7,-19 353.7,0 407.7,0 407.7,-19"/>
<text text-anchor="middle" x="380.7" y="-7" font-family="Helvetica,sans-Serif" font-size="10.00">random</text>
</a>
</g>
</g>
<!-- Node21&#45;&gt;Node22 -->
<g id="edge30_Node000021_Node000022" class="edge">
<title>Node21&#45;&gt;Node22</title>
<g id="a_edge30_Node000021_Node000022"><a xlink:title=" ">
<path fill="none" stroke="#63b8ff" d="M263.62,-60.49C286.65,-50.66 324.78,-34.38 351.24,-23.08"/>
<polygon fill="#63b8ff" stroke="#63b8ff" points="352.93,-26.16 360.75,-19.02 350.18,-19.72 352.93,-26.16"/>
</a>
</g>
</g>
<!-- Node23 -->
<g id="Node000023" class="node">
<title>Node23</title>
<g id="a_Node000023"><a xlink:title=" ">
<polygon fill="#e0e0e0" stroke="#999999" points="261.7,-19 205.7,-19 205.7,0 261.7,0 261.7,-19"/>
<text text-anchor="middle" x="233.7" y="-7" font-family="Helvetica,sans-Serif" font-size="10.00">sstream</text>
</a>
</g>
</g>
<!-- Node21&#45;&gt;Node23 -->
<g id="edge31_Node000021_Node000023" class="edge">
<title>Node21&#45;&gt;Node23</title>
<g id="a_edge31_Node000021_Node000023"><a xlink:title=" ">
<path fill="none" stroke="#63b8ff" d="M242.22,-60.37C240.82,-52.16 238.66,-39.54 236.87,-29.05"/>
<polygon fill="#63b8ff" stroke="#63b8ff" points="240.32,-28.43 235.18,-19.17 233.42,-29.61 240.32,-28.43"/>
</a>
</g>
</g>
<!-- Node24 -->
<g id="Node000024" class="node">
<title>Node24</title>
<g id="a_Node000024"><a xlink:title=" ">
<polygon fill="#e0e0e0" stroke="#999999" points="335.2,-19 280.2,-19 280.2,0 335.2,0 335.2,-19"/>
<text text-anchor="middle" x="307.7" y="-7" font-family="Helvetica,sans-Serif" font-size="10.00">fstream</text>
</a>
</g>
</g>
<!-- Node21&#45;&gt;Node24 -->
<g id="edge32_Node000021_Node000024" class="edge">
<title>Node21&#45;&gt;Node24</title>
<g id="a_edge32_Node000021_Node000024"><a xlink:title=" ">
<path fill="none" stroke="#63b8ff" d="M253.14,-60.37C262.97,-51.38 278.59,-37.11 290.59,-26.14"/>
<polygon fill="#63b8ff" stroke="#63b8ff" points="293.2,-28.5 298.22,-19.17 288.47,-23.33 293.2,-28.5"/>
</a>
</g>
</g>
<!-- Node25&#45;&gt;Node6 -->
<g id="edge37_Node000025_Node000006" class="edge">
<title>Node25&#45;&gt;Node6</title>
<g id="a_edge37_Node000025_Node000006"><a xlink:title=" ">
<path fill="none" stroke="#63b8ff" d="M891.93,-175.63C898.6,-150.31 909.31,-96.5 893.7,-55 889.52,-43.89 881.18,-33.75 873.27,-25.96"/>
<polygon fill="#63b8ff" stroke="#63b8ff" points="875.42,-23.19 865.69,-19.01 870.69,-28.35 875.42,-23.19"/>
</a>
</g>
</g>
<!-- Node25&#45;&gt;Node17 -->
<g id="edge39_Node000025_Node000017" class="edge">
<title>Node25&#45;&gt;Node17</title>
<g id="a_edge39_Node000025_Node000017"><a xlink:title=" ">
<path fill="none" stroke="#63b8ff" d="M864.94,-175.84C850.1,-166.6 830.8,-154.59 816.04,-145.4"/>
<polygon fill="#63b8ff" stroke="#63b8ff" points="817.85,-142.41 807.51,-140.09 814.15,-148.35 817.85,-142.41"/>
</a>
</g>
</g>
<!-- Node26 -->
<g id="Node000026" class="node">
<title>Node26</title>
<g id="a_Node000026"><a xlink:title=" ">
<polygon fill="#e0e0e0" stroke="#999999" points="988.7,-140 950.7,-140 950.7,-121 988.7,-121 988.7,-140"/>
<text text-anchor="middle" x="969.7" y="-128" font-family="Helvetica,sans-Serif" font-size="10.00">map</text>
</a>
</g>
</g>
<!-- Node25&#45;&gt;Node26 -->
<g id="edge36_Node000025_Node000026" class="edge">
<title>Node25&#45;&gt;Node26</title>
<g id="a_edge36_Node000025_Node000026"><a xlink:title=" ">
<path fill="none" stroke="#63b8ff" d="M907.55,-175.84C920.18,-166.83 936.5,-155.18 949.25,-146.09"/>
<polygon fill="#63b8ff" stroke="#63b8ff" points="951.3,-148.92 957.41,-140.27 947.24,-143.22 951.3,-148.92"/>
</a>
</g>
</g>
<!-- Node27 -->
<g id="Node000027" class="node">
<title>Node27</title>
<g id="a_Node000027"><a xlink:title=" ">
<polygon fill="#e0e0e0" stroke="#999999" points="459.7,-140 409.7,-140 409.7,-121 459.7,-121 459.7,-140"/>
<text text-anchor="middle" x="434.7" y="-128" font-family="Helvetica,sans-Serif" font-size="10.00">format</text>
</a>
</g>
</g>
<!-- Node25&#45;&gt;Node27 -->
<g id="edge38_Node000025_Node000027" class="edge">
<title>Node25&#45;&gt;Node27</title>
<g id="a_edge38_Node000025_Node000027"><a xlink:title=" ">
<path fill="none" stroke="#63b8ff" d="M821.98,-181.81C806.47,-179.89 790.01,-177.86 774.7,-176 640.96,-159.72 606.56,-162.37 473.7,-140 472.43,-139.79 471.14,-139.56 469.84,-139.32"/>
<polygon fill="#63b8ff" stroke="#63b8ff" points="470.29,-135.84 459.81,-137.34 468.94,-142.71 470.29,-135.84"/>
</a>
</g>
</g>
<!-- Node28&#45;&gt;Node2 -->
<g id="edge46_Node000028_Node000002" class="edge">
<title>Node28&#45;&gt;Node2</title>
<g id="a_edge46_Node000028_Node000002"><a xlink:title=" ">
<path fill="none" stroke="#63b8ff" d="M389.12,-483.95C366.6,-474.53 336.74,-462.04 312.52,-451.91"/>
<polygon fill="#63b8ff" stroke="#63b8ff" points="313.77,-448.64 303.2,-448.01 311.07,-455.1 313.77,-448.64"/>
</a>
</g>
</g>
<!-- Node28&#45;&gt;Node4 -->
<g id="edge43_Node000028_Node000004" class="edge">
<title>Node28&#45;&gt;Node4</title>
<g id="a_edge43_Node000028_Node000004"><a xlink:title=" ">
<path fill="none" stroke="#63b8ff" d="M414.25,-483.84C402.26,-465.18 378.44,-432.99 348.7,-418 283.22,-385 76.06,-430.09 20.7,-382 -5.1,-359.59 1.7,-341.67 1.7,-307.5 1.7,-307.5 1.7,-307.5 1.7,-129.5 1.7,-86.71 37.04,-46.94 59.52,-25.97"/>
<polygon fill="#63b8ff" stroke="#63b8ff" points="62.04,-28.42 67.13,-19.13 57.36,-23.21 62.04,-28.42"/>
</a>
</g>
</g>
<!-- Node28&#45;&gt;Node6 -->
<g id="edge44_Node000028_Node000006" class="edge">
<title>Node28&#45;&gt;Node6</title>
<g id="a_edge44_Node000028_Node000006"><a xlink:title=" ">
<path fill="none" stroke="#63b8ff" d="M475.02,-495.76C663.36,-487.02 1295.7,-451.46 1295.7,-368 1295.7,-368 1295.7,-368 1295.7,-129.5 1295.7,-76.19 1250.82,-75.7 1201.7,-55 1145.29,-31.22 962.55,-17.3 887.42,-12.45"/>
<polygon fill="#63b8ff" stroke="#63b8ff" points="887.34,-8.94 877.14,-11.81 886.9,-15.93 887.34,-8.94"/>
</a>
</g>
</g>
<!-- Node29 -->
<g id="Node000029" class="node">
<title>Node29</title>
<g id="a_Node000029"><a xlink:title=" ">
<polygon fill="#e0e0e0" stroke="#999999" points="449.2,-442.5 396.2,-442.5 396.2,-423.5 449.2,-423.5 449.2,-442.5"/>
<text text-anchor="middle" x="422.7" y="-430.5" font-family="Helvetica,sans-Serif" font-size="10.00">cstdarg</text>
</a>
</g>
</g>
<!-- Node28&#45;&gt;Node29 -->
<g id="edge45_Node000028_Node000029" class="edge">
<title>Node28&#45;&gt;Node29</title>
<g id="a_edge45_Node000028_Node000029"><a xlink:title=" ">
<path fill="none" stroke="#63b8ff" d="M422.7,-483.8C422.7,-474.7 422.7,-462.79 422.7,-452.9"/>
<polygon fill="#63b8ff" stroke="#63b8ff" points="426.2,-452.84 422.7,-442.84 419.2,-452.84 426.2,-452.84"/>
</a>
</g>
</g>
<!-- Node30 -->
<g id="Node000030" class="node">
<title>Node30</title>
<g id="a_Node000030"><a xlink:href="application_8h.html" target="_top" xlink:title=" ">
<polygon fill="white" stroke="#666666" points="751.2,-442.5 614.2,-442.5 614.2,-423.5 751.2,-423.5 751.2,-442.5"/>
<text text-anchor="middle" x="682.7" y="-430.5" font-family="Helvetica,sans-Serif" font-size="10.00">application/application.h</text>
</a>
</g>
</g>
<!-- Node28&#45;&gt;Node30 -->
<g id="edge47_Node000028_Node000030" class="edge">
<title>Node28&#45;&gt;Node30</title>
<g id="a_edge47_Node000028_Node000030"><a xlink:title=" ">
<path fill="none" stroke="#63b8ff" d="M475,-485.13C522.84,-473.35 592.85,-456.12 638.1,-444.98"/>
<polygon fill="#63b8ff" stroke="#63b8ff" points="639.05,-448.35 647.92,-442.56 637.38,-441.55 639.05,-448.35"/>
</a>
</g>
</g>
<!-- Node40 -->
<g id="Node000040" class="node">
<title>Node40</title>
<g id="a_Node000040"><a xlink:href="IconsFontAwesome6_8h.html" target="_top" xlink:title=" ">
<polygon fill="white" stroke="#666666" points="596.2,-448 467.2,-448 467.2,-418 596.2,-418 596.2,-448"/>
<text text-anchor="start" x="475.2" y="-436" font-family="Helvetica,sans-Serif" font-size="10.00">user_interface/fonts</text>
<text text-anchor="middle" x="531.7" y="-425" font-family="Helvetica,sans-Serif" font-size="10.00">/IconsFontAwesome6.h</text>
</a>
</g>
</g>
<!-- Node28&#45;&gt;Node40 -->
<g id="edge70_Node000028_Node000040" class="edge">
<title>Node28&#45;&gt;Node40</title>
<g id="a_edge70_Node000028_Node000040"><a xlink:title=" ">
<path fill="none" stroke="#63b8ff" d="M446.62,-483.95C461.95,-474.95 482.06,-463.14 498.88,-453.27"/>
<polygon fill="#63b8ff" stroke="#63b8ff" points="500.98,-456.09 507.83,-448.01 497.44,-450.06 500.98,-456.09"/>
</a>
</g>
</g>
<!-- Node30&#45;&gt;Node3 -->
<g id="edge51_Node000030_Node000003" class="edge">
<title>Node30&#45;&gt;Node3</title>
<g id="a_edge51_Node000030_Node000003"><a xlink:title=" ">
<path fill="none" stroke="#63b8ff" d="M689.63,-423.33C701.64,-407.22 723.32,-372.45 704.7,-352 678.43,-323.16 433.57,-312.67 306.08,-309.14"/>
<polygon fill="#63b8ff" stroke="#63b8ff" points="306.08,-305.64 295.99,-308.86 305.89,-312.63 306.08,-305.64"/>
</a>
</g>
</g>
<!-- Node30&#45;&gt;Node14 -->
<g id="edge50_Node000030_Node000014" class="edge">
<title>Node30&#45;&gt;Node14</title>
<g id="a_edge50_Node000030_Node000014"><a xlink:title=" ">
<path fill="none" stroke="#63b8ff" d="M751.2,-431.44C903.67,-428.34 1257.7,-410.09 1257.7,-307.5 1257.7,-307.5 1257.7,-307.5 1257.7,-190 1257.7,-136.97 1198.12,-101.2 1159.63,-83.63"/>
<polygon fill="#63b8ff" stroke="#63b8ff" points="1160.91,-80.37 1150.34,-79.55 1158.09,-86.78 1160.91,-80.37"/>
</a>
</g>
</g>
<!-- Node31 -->
<g id="Node000031" class="node">
<title>Node31</title>
<g id="a_Node000031"><a xlink:title=" ">
<polygon fill="#e0e0e0" stroke="#999999" points="570.2,-376.5 501.2,-376.5 501.2,-357.5 570.2,-357.5 570.2,-376.5"/>
<text text-anchor="middle" x="535.7" y="-364.5" font-family="Helvetica,sans-Serif" font-size="10.00">type_traits</text>
</a>
</g>
</g>
<!-- Node30&#45;&gt;Node31 -->
<g id="edge48_Node000030_Node000031" class="edge">
<title>Node30&#45;&gt;Node31</title>
<g id="a_edge48_Node000030_Node000031"><a xlink:title=" ">
<path fill="none" stroke="#63b8ff" d="M662.87,-423.37C637.67,-412.39 593.94,-393.36 564.91,-380.72"/>
<polygon fill="#63b8ff" stroke="#63b8ff" points="566.25,-377.48 555.68,-376.7 563.45,-383.9 566.25,-377.48"/>
</a>
</g>
</g>
<!-- Node32 -->
<g id="Node000032" class="node">
<title>Node32</title>
<g id="a_Node000032"><a xlink:title=" ">
<polygon fill="#e0e0e0" stroke="#999999" points="695.2,-382 588.2,-382 588.2,-352 695.2,-352 695.2,-382"/>
<text text-anchor="start" x="596.2" y="-370" font-family="Helvetica,sans-Serif" font-size="10.00">imgui&#45;platform&#45;kit</text>
<text text-anchor="middle" x="641.7" y="-359" font-family="Helvetica,sans-Serif" font-size="10.00">/user_interface.h</text>
</a>
</g>
</g>
<!-- Node30&#45;&gt;Node32 -->
<g id="edge49_Node000030_Node000032" class="edge">
<title>Node30&#45;&gt;Node32</title>
<g id="a_edge49_Node000030_Node000032"><a xlink:title=" ">
<path fill="none" stroke="#63b8ff" d="M677.17,-423.37C671.86,-415.08 663.6,-402.18 656.38,-390.92"/>
<polygon fill="#63b8ff" stroke="#63b8ff" points="659.24,-388.89 650.9,-382.36 653.35,-392.67 659.24,-388.89"/>
</a>
</g>
</g>
<!-- Node33 -->
<g id="Node000033" class="node">
<title>Node33</title>
<g id="a_Node000033"><a xlink:href="visualization_8h.html" target="_top" xlink:title=" ">
<polygon fill="white" stroke="#666666" points="962.2,-376.5 809.2,-376.5 809.2,-357.5 962.2,-357.5 962.2,-376.5"/>
<text text-anchor="middle" x="885.7" y="-364.5" font-family="Helvetica,sans-Serif" font-size="10.00">visualization/visualization.h</text>
</a>
</g>
</g>
<!-- Node30&#45;&gt;Node33 -->
<g id="edge52_Node000030_Node000033" class="edge">
<title>Node30&#45;&gt;Node33</title>
<g id="a_edge52_Node000030_Node000033"><a xlink:title=" ">
<path fill="none" stroke="#63b8ff" d="M710.08,-423.37C745.89,-412.08 808.79,-392.25 848.79,-379.64"/>
<polygon fill="#63b8ff" stroke="#63b8ff" points="849.95,-382.94 858.43,-376.6 847.84,-376.27 849.95,-382.94"/>
</a>
</g>
</g>
<!-- Node38 -->
<g id="Node000038" class="node">
<title>Node38</title>
<g id="a_Node000038"><a xlink:href="imgui__freetype_8h.html" target="_top" xlink:title=" ">
<polygon fill="white" stroke="#666666" points="143.7,-382 29.7,-382 29.7,-352 143.7,-352 143.7,-382"/>
<text text-anchor="start" x="37.7" y="-370" font-family="Helvetica,sans-Serif" font-size="10.00">user_interface/fonts</text>
<text text-anchor="middle" x="86.7" y="-359" font-family="Helvetica,sans-Serif" font-size="10.00">/imgui_freetype.h</text>
</a>
</g>
</g>
<!-- Node30&#45;&gt;Node38 -->
<g id="edge68_Node000030_Node000038" class="edge">
<title>Node30&#45;&gt;Node38</title>
<g id="a_edge68_Node000030_Node000038"><a xlink:title=" ">
<path fill="none" stroke="#63b8ff" d="M639.23,-423.44C628.31,-421.47 616.6,-419.51 605.7,-418 444.2,-395.58 253.02,-379.96 153.89,-372.66"/>
<polygon fill="#63b8ff" stroke="#63b8ff" points="153.94,-369.16 143.71,-371.92 153.43,-376.14 153.94,-369.16"/>
</a>
</g>
</g>
<!-- Node33&#45;&gt;Node3 -->
<g id="edge55_Node000033_Node000003" class="edge">
<title>Node33&#45;&gt;Node3</title>
<g id="a_edge55_Node000033_Node000003"><a xlink:title=" ">
<path fill="none" stroke="#63b8ff" d="M808.89,-358.63C785.99,-356.46 760.83,-354.11 737.7,-352 584.64,-338.06 405.55,-322.56 306.13,-314.03"/>
<polygon fill="#63b8ff" stroke="#63b8ff" points="306.14,-310.52 295.88,-313.15 305.54,-317.49 306.14,-310.52"/>
</a>
</g>
</g>
<!-- Node33&#45;&gt;Node4 -->
<g id="edge54_Node000033_Node000004" class="edge">
<title>Node33&#45;&gt;Node4</title>
<g id="a_edge54_Node000033_Node000004"><a xlink:title=" ">
<path fill="none" stroke="#63b8ff" d="M809.09,-359.87C776.87,-357.35 738.97,-354.45 704.7,-352 582.53,-343.28 266.93,-365.06 154.7,-316 85.83,-285.89 39.7,-267.16 39.7,-192 39.7,-192 39.7,-192 39.7,-129.5 39.7,-92.07 56.97,-51.03 68.22,-28.25"/>
<polygon fill="#63b8ff" stroke="#63b8ff" points="71.44,-29.65 72.89,-19.15 65.21,-26.46 71.44,-29.65"/>
</a>
</g>
</g>
<!-- Node33&#45;&gt;Node14 -->
<g id="edge56_Node000033_Node000014" class="edge">
<title>Node33&#45;&gt;Node14</title>
<g id="a_edge56_Node000033_Node000014"><a xlink:title=" ">
<path fill="none" stroke="#63b8ff" d="M962.37,-360.85C1014.89,-355.01 1085.01,-342.56 1141.7,-316 1182.18,-297.04 1219.7,-297.2 1219.7,-252.5 1219.7,-252.5 1219.7,-252.5 1219.7,-190 1219.7,-144.29 1176.68,-105.45 1149.48,-85.46"/>
<polygon fill="#63b8ff" stroke="#63b8ff" points="1151.46,-82.57 1141.27,-79.64 1147.41,-88.28 1151.46,-82.57"/>
</a>
</g>
</g>
<!-- Node33&#45;&gt;Node17 -->
<g id="edge63_Node000033_Node000017" class="edge">
<title>Node33&#45;&gt;Node17</title>
<g id="a_edge63_Node000033_Node000017"><a xlink:title=" ">
<path fill="none" stroke="#63b8ff" d="M864.23,-357.41C847.21,-349.38 824.4,-335.67 812.7,-316 781.21,-263.03 786.18,-186.16 790.7,-150.71"/>
<polygon fill="#63b8ff" stroke="#63b8ff" points="794.23,-150.77 792.16,-140.38 787.29,-149.79 794.23,-150.77"/>
</a>
</g>
</g>
<!-- Node33&#45;&gt;Node18 -->
<g id="edge53_Node000033_Node000018" class="edge">
<title>Node33&#45;&gt;Node18</title>
<g id="a_edge53_Node000033_Node000018"><a xlink:title=" ">
<path fill="none" stroke="#63b8ff" d="M962.25,-360.45C1024.82,-354.14 1106.17,-341.23 1126.7,-316 1132.03,-309.45 1128.04,-305.34 1126.7,-297 1117.7,-241.08 1121.8,-220.46 1086.7,-176 1038.67,-115.16 947.62,-88.41 895,-77.59"/>
<polygon fill="#63b8ff" stroke="#63b8ff" points="895.5,-74.12 885.01,-75.63 894.15,-80.99 895.5,-74.12"/>
</a>
</g>
</g>
<!-- Node34 -->
<g id="Node000034" class="node">
<title>Node34</title>
<g id="a_Node000034"><a xlink:href="plot_8h.html" target="_top" xlink:title=" ">
<polygon fill="white" stroke="#666666" points="1051.7,-261 1007.7,-261 1007.7,-242 1051.7,-242 1051.7,-261"/>
<text text-anchor="middle" x="1029.7" y="-249" font-family="Helvetica,sans-Serif" font-size="10.00">plot.h</text>
</a>
</g>
</g>
<!-- Node33&#45;&gt;Node34 -->
<g id="edge57_Node000033_Node000034" class="edge">
<title>Node33&#45;&gt;Node34</title>
<g id="a_edge57_Node000033_Node000034"><a xlink:title=" ">
<path fill="none" stroke="#63b8ff" d="M962.45,-359.11C1020.11,-352.16 1092.2,-339.06 1110.7,-316 1128.83,-293.4 1091.49,-273.95 1061.68,-262.73"/>
<polygon fill="#63b8ff" stroke="#63b8ff" points="1062.54,-259.32 1051.95,-259.25 1060.18,-265.91 1062.54,-259.32"/>
</a>
</g>
</g>
<!-- Node36 -->
<g id="Node000036" class="node">
<title>Node36</title>
<g id="a_Node000036"><a xlink:href="lineplot_8h.html" target="_top" xlink:title=" ">
<polygon fill="white" stroke="#666666" points="949.7,-316 821.7,-316 821.7,-297 949.7,-297 949.7,-316"/>
<text text-anchor="middle" x="885.7" y="-304" font-family="Helvetica,sans-Serif" font-size="10.00">visualization/lineplot.h</text>
</a>
</g>
</g>
<!-- Node33&#45;&gt;Node36 -->
<g id="edge64_Node000033_Node000036" class="edge">
<title>Node33&#45;&gt;Node36</title>
<g id="a_edge64_Node000033_Node000036"><a xlink:title=" ">
<path fill="none" stroke="#63b8ff" d="M885.7,-357.37C885.7,-349.25 885.7,-336.81 885.7,-326.39"/>
<polygon fill="#63b8ff" stroke="#63b8ff" points="889.2,-326.17 885.7,-316.17 882.2,-326.17 889.2,-326.17"/>
</a>
</g>
</g>
<!-- Node37 -->
<g id="Node000037" class="node">
<title>Node37</title>
<g id="a_Node000037"><a xlink:href="heatmap_8h.html" target="_top" xlink:title=" ">
<polygon fill="white" stroke="#666666" points="1101.7,-316 967.7,-316 967.7,-297 1101.7,-297 1101.7,-316"/>
<text text-anchor="middle" x="1034.7" y="-304" font-family="Helvetica,sans-Serif" font-size="10.00">visualization/heatmap.h</text>
</a>
</g>
</g>
<!-- Node33&#45;&gt;Node37 -->
<g id="edge66_Node000033_Node000037" class="edge">
<title>Node33&#45;&gt;Node37</title>
<g id="a_edge66_Node000033_Node000037"><a xlink:title=" ">
<path fill="none" stroke="#63b8ff" d="M907.37,-357.49C932.64,-347.57 974.61,-331.09 1003.42,-319.78"/>
<polygon fill="#63b8ff" stroke="#63b8ff" points="1004.98,-322.93 1013.01,-316.02 1002.42,-316.41 1004.98,-322.93"/>
</a>
</g>
</g>
<!-- Node35 -->
<g id="Node000035" class="node">
<title>Node35</title>
<g id="a_Node000035"><a xlink:href="plot__parameters_8h.html" target="_top" xlink:title=" ">
<polygon fill="white" stroke="#666666" points="1077.7,-200.5 971.7,-200.5 971.7,-181.5 1077.7,-181.5 1077.7,-200.5"/>
<text text-anchor="middle" x="1024.7" y="-188.5" font-family="Helvetica,sans-Serif" font-size="10.00">plot_parameters.h</text>
</a>
</g>
</g>
<!-- Node34&#45;&gt;Node35 -->
<g id="edge58_Node000034_Node000035" class="edge">
<title>Node34&#45;&gt;Node35</title>
<g id="a_edge58_Node000034_Node000035"><a xlink:title=" ">
<path fill="none" stroke="#63b8ff" d="M1028.96,-241.87C1028.27,-233.75 1027.2,-221.31 1026.31,-210.89"/>
<polygon fill="#63b8ff" stroke="#63b8ff" points="1029.78,-210.33 1025.44,-200.67 1022.8,-210.93 1029.78,-210.33"/>
</a>
</g>
</g>
<!-- Node35&#45;&gt;Node4 -->
<g id="edge61_Node000035_Node000004" class="edge">
<title>Node35&#45;&gt;Node4</title>
<g id="a_edge61_Node000035_Node000004"><a xlink:title=" ">
<path fill="none" stroke="#63b8ff" d="M989.74,-181.45C980.95,-179.48 971.51,-177.52 962.7,-176 921.23,-168.83 250.7,-98.06 210.7,-85 167.68,-70.96 122.79,-42.43 97.72,-25.04"/>
<polygon fill="#63b8ff" stroke="#63b8ff" points="99.61,-22.09 89.42,-19.18 95.57,-27.81 99.61,-22.09"/>
</a>
</g>
</g>
<!-- Node35&#45;&gt;Node6 -->
<g id="edge60_Node000035_Node000006" class="edge">
<title>Node35&#45;&gt;Node6</title>
<g id="a_edge60_Node000035_Node000006"><a xlink:title=" ">
<path fill="none" stroke="#63b8ff" d="M1022.86,-181.19C1019.63,-167.3 1011.89,-139.94 997.7,-121 965.31,-77.76 911.8,-42.7 880.23,-24.37"/>
<polygon fill="#63b8ff" stroke="#63b8ff" points="881.61,-21.13 871.19,-19.23 878.15,-27.22 881.61,-21.13"/>
</a>
</g>
</g>
<!-- Node35&#45;&gt;Node17 -->
<g id="edge62_Node000035_Node000017" class="edge">
<title>Node35&#45;&gt;Node17</title>
<g id="a_edge62_Node000035_Node000017"><a xlink:title=" ">
<path fill="none" stroke="#63b8ff" d="M991.11,-181.49C950.39,-171.18 881.7,-153.78 837.03,-142.47"/>
<polygon fill="#63b8ff" stroke="#63b8ff" points="837.88,-139.08 827.33,-140.02 836.16,-145.86 837.88,-139.08"/>
</a>
</g>
</g>
<!-- Node35&#45;&gt;Node26 -->
<g id="edge59_Node000035_Node000026" class="edge">
<title>Node35&#45;&gt;Node26</title>
<g id="a_edge59_Node000035_Node000026"><a xlink:title=" ">
<path fill="none" stroke="#63b8ff" d="M1016.58,-181.37C1008.3,-172.55 995.23,-158.66 985,-147.77"/>
<polygon fill="#63b8ff" stroke="#63b8ff" points="987.25,-145.06 977.85,-140.17 982.15,-149.85 987.25,-145.06"/>
</a>
</g>
</g>
<!-- Node36&#45;&gt;Node34 -->
<g id="edge65_Node000036_Node000034" class="edge">
<title>Node36&#45;&gt;Node34</title>
<g id="a_edge65_Node000036_Node000034"><a xlink:title=" ">
<path fill="none" stroke="#63b8ff" d="M908.84,-296.98C932.95,-288.11 970.9,-274.14 997.83,-264.23"/>
<polygon fill="#63b8ff" stroke="#63b8ff" points="999.39,-267.38 1007.57,-260.65 996.97,-260.82 999.39,-267.38"/>
</a>
</g>
</g>
<!-- Node37&#45;&gt;Node34 -->
<g id="edge67_Node000037_Node000034" class="edge">
<title>Node37&#45;&gt;Node34</title>
<g id="a_edge67_Node000037_Node000034"><a xlink:title=" ">
<path fill="none" stroke="#63b8ff" d="M1033.87,-296.75C1033.22,-289.8 1032.28,-279.85 1031.46,-271.13"/>
<polygon fill="#63b8ff" stroke="#63b8ff" points="1034.93,-270.72 1030.51,-261.09 1027.96,-271.37 1034.93,-270.72"/>
</a>
</g>
</g>
<!-- Node39 -->
<g id="Node000039" class="node">
<title>Node39</title>
<g id="a_Node000039"><a xlink:title=" ">
<polygon fill="#e0e0e0" stroke="#999999" points="83.2,-316 30.2,-316 30.2,-297 83.2,-297 83.2,-316"/>
<text text-anchor="middle" x="56.7" y="-304" font-family="Helvetica,sans-Serif" font-size="10.00">imgui.h</text>
</a>
</g>
</g>
<!-- Node38&#45;&gt;Node39 -->
<g id="edge69_Node000038_Node000039" class="edge">
<title>Node38&#45;&gt;Node39</title>
<g id="a_edge69_Node000038_Node000039"><a xlink:title=" ">
<path fill="none" stroke="#63b8ff" d="M79.44,-351.84C75.35,-343.87 70.21,-333.84 65.84,-325.33"/>
<polygon fill="#63b8ff" stroke="#63b8ff" points="68.87,-323.57 61.19,-316.27 62.64,-326.76 68.87,-323.57"/>
</a>
</g>
</g>
</g>
</svg>
