<?xml version="1.0" encoding="UTF-8" standalone="no"?>
<!DOCTYPE svg PUBLIC "-//W3C//DTD SVG 1.1//EN"
 "http://www.w3.org/Graphics/SVG/1.1/DTD/svg11.dtd">
<!-- Generated by graphviz version 2.43.0 (0)
 -->
<!-- Title: include/elements/correlated_normal_noise_2d.h Pages: 1 -->
<svg width="1241pt" height="335pt"
 viewBox="0.00 0.00 1241.00 335.00" xmlns="http://www.w3.org/2000/svg" xmlns:xlink="http://www.w3.org/1999/xlink">
<g id="graph0" class="graph" transform="scale(1 1) rotate(0) translate(4 331)">
<title>include/elements/correlated_normal_noise_2d.h</title>
<!-- Node1 -->
<g id="Node000001" class="node">
<title>Node1</title>
<g id="a_Node000001"><a xlink:title=" ">
<polygon fill="#999999" stroke="#666666" points="476.5,-327 323.5,-327 323.5,-297 476.5,-297 476.5,-327"/>
<text text-anchor="start" x="331.5" y="-315" font-family="Helvetica,sans-Serif" font-size="10.00">include/elements/correlated</text>
<text text-anchor="middle" x="400" y="-304" font-family="Helvetica,sans-Serif" font-size="10.00">_normal_noise_2d.h</text>
</a>
</g>
</g>
<!-- Node2 -->
<g id="Node000002" class="node">
<title>Node2</title>
<g id="a_Node000002"><a xlink:title=" ">
<polygon fill="#e0e0e0" stroke="#999999" points="75.5,-200.5 28.5,-200.5 28.5,-181.5 75.5,-181.5 75.5,-200.5"/>
<text text-anchor="middle" x="52" y="-188.5" font-family="Helvetica,sans-Serif" font-size="10.00">cmath</text>
</a>
</g>
</g>
<!-- Node1&#45;&gt;Node2 -->
<g id="edge1_Node000001_Node000002" class="edge">
<title>Node1&#45;&gt;Node2</title>
<g id="a_edge1_Node000001_Node000002"><a xlink:title=" ">
<path fill="none" stroke="#63b8ff" d="M357.25,-296.92C297.35,-277.09 185.09,-239.62 90,-206 88.16,-205.35 86.27,-204.68 84.37,-203.99"/>
<polygon fill="#63b8ff" stroke="#63b8ff" points="85.47,-200.67 74.87,-200.54 83.07,-207.24 85.47,-200.67"/>
</a>
</g>
</g>
<!-- Node3 -->
<g id="Node000003" class="node">
<title>Node3</title>
<g id="a_Node000003"><a xlink:title=" ">
<polygon fill="#e0e0e0" stroke="#999999" points="60,-19 4,-19 4,0 60,0 60,-19"/>
<text text-anchor="middle" x="32" y="-7" font-family="Helvetica,sans-Serif" font-size="10.00">sstream</text>
</a>
</g>
</g>
<!-- Node1&#45;&gt;Node3 -->
<g id="edge2_Node000001_Node000003" class="edge">
<title>Node1&#45;&gt;Node3</title>
<g id="a_edge2_Node000001_Node000003"><a xlink:title=" ">
<path fill="none" stroke="#63b8ff" d="M323.35,-303.93C207.2,-291.06 0,-258.75 0,-192 0,-192 0,-192 0,-129.5 0,-92.75 14.41,-51.73 23.89,-28.73"/>
<polygon fill="#63b8ff" stroke="#63b8ff" points="27.23,-29.81 27.95,-19.24 20.8,-27.06 27.23,-29.81"/>
</a>
</g>
</g>
<!-- Node4 -->
<g id="Node000004" class="node">
<title>Node4</title>
<g id="a_Node000004"><a xlink:title=" ">
<polygon fill="#e0e0e0" stroke="#999999" points="1233,-79.5 1177,-79.5 1177,-60.5 1233,-60.5 1233,-79.5"/>
<text text-anchor="middle" x="1205" y="-67.5" font-family="Helvetica,sans-Serif" font-size="10.00">iomanip</text>
</a>
</g>
</g>
<!-- Node1&#45;&gt;Node4 -->
<g id="edge3_Node000001_Node000004" class="edge">
<title>Node1&#45;&gt;Node4</title>
<g id="a_edge3_Node000001_Node000004"><a xlink:title=" ">
<path fill="none" stroke="#63b8ff" d="M476.79,-307.86C639.54,-299.94 1012.77,-274.61 1117,-206 1160.5,-177.37 1187.26,-119 1198.63,-89.28"/>
<polygon fill="#63b8ff" stroke="#63b8ff" points="1201.98,-90.32 1202.13,-79.73 1195.4,-87.92 1201.98,-90.32"/>
</a>
</g>
</g>
<!-- Node5 -->
<g id="Node000005" class="node">
<title>Node5</title>
<g id="a_Node000005"><a xlink:title=" ">
<polygon fill="#e0e0e0" stroke="#999999" points="485,-200.5 429,-200.5 429,-181.5 485,-181.5 485,-200.5"/>
<text text-anchor="middle" x="457" y="-188.5" font-family="Helvetica,sans-Serif" font-size="10.00">numeric</text>
</a>
</g>
</g>
<!-- Node1&#45;&gt;Node5 -->
<g id="edge4_Node000001_Node000005" class="edge">
<title>Node1&#45;&gt;Node5</title>
<g id="a_edge4_Node000001_Node000005"><a xlink:title=" ">
<path fill="none" stroke="#63b8ff" d="M406.76,-296.88C417.14,-275.22 436.99,-233.78 448.38,-209.99"/>
<polygon fill="#63b8ff" stroke="#63b8ff" points="451.66,-211.24 452.83,-200.71 445.35,-208.22 451.66,-211.24"/>
</a>
</g>
</g>
<!-- Node6 -->
<g id="Node000006" class="node">
<title>Node6</title>
<g id="a_Node000006"><a xlink:href="math_8h.html" target="_top" xlink:title=" ">
<polygon fill="white" stroke="#666666" points="342,-261 264,-261 264,-242 342,-242 342,-261"/>
<text text-anchor="middle" x="303" y="-249" font-family="Helvetica,sans-Serif" font-size="10.00">tools/math.h</text>
</a>
</g>
</g>
<!-- Node1&#45;&gt;Node6 -->
<g id="edge5_Node000001_Node000006" class="edge">
<title>Node1&#45;&gt;Node6</title>
<g id="a_edge5_Node000001_Node000006"><a xlink:title=" ">
<path fill="none" stroke="#63b8ff" d="M376.52,-296.84C361.2,-287.6 341.29,-275.59 326.05,-266.4"/>
<polygon fill="#63b8ff" stroke="#63b8ff" points="327.62,-263.26 317.25,-261.09 324.01,-269.26 327.62,-263.26"/>
</a>
</g>
</g>
<!-- Node14 -->
<g id="Node000014" class="node">
<title>Node14</title>
<g id="a_Node000014"><a xlink:href="element_8h.html" target="_top" xlink:title=" ">
<polygon fill="white" stroke="#666666" points="790,-261 724,-261 724,-242 790,-242 790,-261"/>
<text text-anchor="middle" x="757" y="-249" font-family="Helvetica,sans-Serif" font-size="10.00">element.h</text>
</a>
</g>
</g>
<!-- Node1&#45;&gt;Node14 -->
<g id="edge15_Node000001_Node000014" class="edge">
<title>Node1&#45;&gt;Node14</title>
<g id="a_edge15_Node000001_Node000014"><a xlink:title=" ">
<path fill="none" stroke="#63b8ff" d="M476.59,-298.45C548.87,-286.61 654.69,-269.27 713.5,-259.63"/>
<polygon fill="#63b8ff" stroke="#63b8ff" points="714.26,-263.05 723.57,-257.98 713.13,-256.14 714.26,-263.05"/>
</a>
</g>
</g>
<!-- Node6&#45;&gt;Node2 -->
<g id="edge8_Node000006_Node000002" class="edge">
<title>Node6&#45;&gt;Node2</title>
<g id="a_edge8_Node000006_Node000002"><a xlink:title=" ">
<path fill="none" stroke="#63b8ff" d="M263.71,-244.08C220.65,-236.63 149.73,-223.14 90,-206 87.72,-205.35 85.38,-204.62 83.04,-203.85"/>
<polygon fill="#63b8ff" stroke="#63b8ff" points="84.12,-200.52 73.52,-200.55 81.82,-207.14 84.12,-200.52"/>
</a>
</g>
</g>
<!-- Node6&#45;&gt;Node5 -->
<g id="edge10_Node000006_Node000005" class="edge">
<title>Node6&#45;&gt;Node5</title>
<g id="a_edge10_Node000006_Node000005"><a xlink:title=" ">
<path fill="none" stroke="#63b8ff" d="M325.39,-241.99C351.62,-232.03 395.28,-215.45 425.06,-204.13"/>
<polygon fill="#63b8ff" stroke="#63b8ff" points="426.47,-207.34 434.58,-200.52 423.99,-200.8 426.47,-207.34"/>
</a>
</g>
</g>
<!-- Node7 -->
<g id="Node000007" class="node">
<title>Node7</title>
<g id="a_Node000007"><a xlink:title=" ">
<polygon fill="#e0e0e0" stroke="#999999" points="430.5,-19 383.5,-19 383.5,0 430.5,0 430.5,-19"/>
<text text-anchor="middle" x="407" y="-7" font-family="Helvetica,sans-Serif" font-size="10.00">vector</text>
</a>
</g>
</g>
<!-- Node6&#45;&gt;Node7 -->
<g id="edge6_Node000006_Node000007" class="edge">
<title>Node6&#45;&gt;Node7</title>
<g id="a_edge6_Node000006_Node000007"><a xlink:title=" ">
<path fill="none" stroke="#63b8ff" d="M330.55,-241.93C347.89,-235.05 369.16,-223.59 381,-206 418.24,-150.65 413.86,-66.3 409.63,-29.16"/>
<polygon fill="#63b8ff" stroke="#63b8ff" points="413.11,-28.72 408.38,-19.24 406.16,-29.6 413.11,-28.72"/>
</a>
</g>
</g>
<!-- Node8 -->
<g id="Node000008" class="node">
<title>Node8</title>
<g id="a_Node000008"><a xlink:title=" ">
<polygon fill="#e0e0e0" stroke="#999999" points="212,-200.5 170,-200.5 170,-181.5 212,-181.5 212,-200.5"/>
<text text-anchor="middle" x="191" y="-188.5" font-family="Helvetica,sans-Serif" font-size="10.00">array</text>
</a>
</g>
</g>
<!-- Node6&#45;&gt;Node8 -->
<g id="edge7_Node000006_Node000008" class="edge">
<title>Node6&#45;&gt;Node8</title>
<g id="a_edge7_Node000006_Node000008"><a xlink:title=" ">
<path fill="none" stroke="#63b8ff" d="M286.47,-241.87C268.03,-232.23 237.96,-216.53 216.49,-205.31"/>
<polygon fill="#63b8ff" stroke="#63b8ff" points="218.08,-202.19 207.59,-200.67 214.84,-208.4 218.08,-202.19"/>
</a>
</g>
</g>
<!-- Node9 -->
<g id="Node000009" class="node">
<title>Node9</title>
<g id="a_Node000009"><a xlink:title=" ">
<polygon fill="#e0e0e0" stroke="#999999" points="567,-200.5 503,-200.5 503,-181.5 567,-181.5 567,-200.5"/>
<text text-anchor="middle" x="535" y="-188.5" font-family="Helvetica,sans-Serif" font-size="10.00">algorithm</text>
</a>
</g>
</g>
<!-- Node6&#45;&gt;Node9 -->
<g id="edge9_Node000006_Node000009" class="edge">
<title>Node6&#45;&gt;Node9</title>
<g id="a_edge9_Node000006_Node000009"><a xlink:title=" ">
<path fill="none" stroke="#63b8ff" d="M342.07,-242.6C380.88,-234.46 441.96,-220.91 494,-206 496.47,-205.29 499.01,-204.53 501.55,-203.73"/>
<polygon fill="#63b8ff" stroke="#63b8ff" points="502.86,-206.98 511.28,-200.55 500.69,-200.33 502.86,-206.98"/>
</a>
</g>
</g>
<!-- Node10 -->
<g id="Node000010" class="node">
<title>Node10</title>
<g id="a_Node000010"><a xlink:title=" ">
<polygon fill="#e0e0e0" stroke="#999999" points="295.5,-200.5 230.5,-200.5 230.5,-181.5 295.5,-181.5 295.5,-200.5"/>
<text text-anchor="middle" x="263" y="-188.5" font-family="Helvetica,sans-Serif" font-size="10.00">functional</text>
</a>
</g>
</g>
<!-- Node6&#45;&gt;Node10 -->
<g id="edge11_Node000006_Node000010" class="edge">
<title>Node6&#45;&gt;Node10</title>
<g id="a_edge11_Node000006_Node000010"><a xlink:title=" ">
<path fill="none" stroke="#63b8ff" d="M297.1,-241.87C291.25,-233.31 282.13,-219.97 274.79,-209.24"/>
<polygon fill="#63b8ff" stroke="#63b8ff" points="277.46,-206.95 268.93,-200.67 271.68,-210.9 277.46,-206.95"/>
</a>
</g>
</g>
<!-- Node11 -->
<g id="Node000011" class="node">
<title>Node11</title>
<g id="a_Node000011"><a xlink:title=" ">
<polygon fill="#e0e0e0" stroke="#999999" points="233,-19 179,-19 179,0 233,0 233,-19"/>
<text text-anchor="middle" x="206" y="-7" font-family="Helvetica,sans-Serif" font-size="10.00">random</text>
</a>
</g>
</g>
<!-- Node6&#45;&gt;Node11 -->
<g id="edge12_Node000006_Node000011" class="edge">
<title>Node6&#45;&gt;Node11</title>
<g id="a_edge12_Node000006_Node000011"><a xlink:title=" ">
<path fill="none" stroke="#63b8ff" d="M263.94,-243.59C226.3,-236.04 173.31,-222.76 161,-206 120.31,-150.6 169.1,-64.42 193.59,-27.85"/>
<polygon fill="#63b8ff" stroke="#63b8ff" points="196.7,-29.51 199.5,-19.29 190.94,-25.54 196.7,-29.51"/>
</a>
</g>
</g>
<!-- Node12 -->
<g id="Node000012" class="node">
<title>Node12</title>
<g id="a_Node000012"><a xlink:title=" ">
<polygon fill="#e0e0e0" stroke="#999999" points="372.5,-200.5 313.5,-200.5 313.5,-181.5 372.5,-181.5 372.5,-200.5"/>
<text text-anchor="middle" x="343" y="-188.5" font-family="Helvetica,sans-Serif" font-size="10.00">numbers</text>
</a>
</g>
</g>
<!-- Node6&#45;&gt;Node12 -->
<g id="edge13_Node000006_Node000012" class="edge">
<title>Node6&#45;&gt;Node12</title>
<g id="a_edge13_Node000006_Node000012"><a xlink:title=" ">
<path fill="none" stroke="#63b8ff" d="M308.9,-241.87C314.75,-233.31 323.87,-219.97 331.21,-209.24"/>
<polygon fill="#63b8ff" stroke="#63b8ff" points="334.32,-210.9 337.07,-200.67 328.54,-206.95 334.32,-210.9"/>
</a>
</g>
</g>
<!-- Node13 -->
<g id="Node000013" class="node">
<title>Node13</title>
<g id="a_Node000013"><a xlink:title=" ">
<polygon fill="#e0e0e0" stroke="#999999" points="148.5,-19 93.5,-19 93.5,0 148.5,0 148.5,-19"/>
<text text-anchor="middle" x="121" y="-7" font-family="Helvetica,sans-Serif" font-size="10.00">fstream</text>
</a>
</g>
</g>
<!-- Node6&#45;&gt;Node13 -->
<g id="edge14_Node000006_Node000013" class="edge">
<title>Node6&#45;&gt;Node13</title>
<g id="a_edge14_Node000006_Node000013"><a xlink:title=" ">
<path fill="none" stroke="#63b8ff" d="M263.97,-244.64C222.1,-237.5 159.51,-224.14 144,-206 100.52,-155.16 110.09,-67.76 117,-29.44"/>
<polygon fill="#63b8ff" stroke="#63b8ff" points="120.51,-29.7 119,-19.22 113.64,-28.36 120.51,-29.7"/>
</a>
</g>
</g>
<!-- Node14&#45;&gt;Node5 -->
<g id="edge22_Node000014_Node000005" class="edge">
<title>Node14&#45;&gt;Node5</title>
<g id="a_edge22_Node000014_Node000005"><a xlink:title=" ">
<path fill="none" stroke="#63b8ff" d="M723.75,-246.97C673.42,-241.17 575.12,-227.99 494,-206 491.71,-205.38 489.36,-204.67 487.01,-203.91"/>
<polygon fill="#63b8ff" stroke="#63b8ff" points="488.1,-200.58 477.51,-200.57 485.78,-207.19 488.1,-200.58"/>
</a>
</g>
</g>
<!-- Node14&#45;&gt;Node7 -->
<g id="edge16_Node000014_Node000007" class="edge">
<title>Node14&#45;&gt;Node7</title>
<g id="a_edge16_Node000014_Node000007"><a xlink:title=" ">
<path fill="none" stroke="#63b8ff" d="M741.66,-241.96C726.47,-233.34 702.69,-219.43 683,-206 664.93,-193.68 661.64,-188.93 644,-176 565.55,-118.48 470.02,-53.18 428.26,-24.86"/>
<polygon fill="#63b8ff" stroke="#63b8ff" points="429.98,-21.8 419.73,-19.09 426.05,-27.59 429.98,-21.8"/>
</a>
</g>
</g>
<!-- Node14&#45;&gt;Node9 -->
<g id="edge21_Node000014_Node000009" class="edge">
<title>Node14&#45;&gt;Node9</title>
<g id="a_edge21_Node000014_Node000009"><a xlink:title=" ">
<path fill="none" stroke="#63b8ff" d="M723.74,-243.25C687.25,-235.08 627.08,-220.97 576,-206 573.54,-205.28 571,-204.5 568.46,-203.69"/>
<polygon fill="#63b8ff" stroke="#63b8ff" points="569.33,-200.3 558.74,-200.5 567.14,-206.95 569.33,-200.3"/>
</a>
</g>
</g>
<!-- Node15 -->
<g id="Node000015" class="node">
<title>Node15</title>
<g id="a_Node000015"><a xlink:title=" ">
<polygon fill="#e0e0e0" stroke="#999999" points="985,-19 941,-19 941,0 985,0 985,-19"/>
<text text-anchor="middle" x="963" y="-7" font-family="Helvetica,sans-Serif" font-size="10.00">string</text>
</a>
</g>
</g>
<!-- Node14&#45;&gt;Node15 -->
<g id="edge17_Node000014_Node000015" class="edge">
<title>Node14&#45;&gt;Node15</title>
<g id="a_edge17_Node000014_Node000015"><a xlink:title=" ">
<path fill="none" stroke="#63b8ff" d="M790.26,-248.93C846.86,-245.47 958.11,-235.07 982,-206 1024.74,-153.98 990.25,-65.91 972.24,-28.34"/>
<polygon fill="#63b8ff" stroke="#63b8ff" points="975.26,-26.56 967.67,-19.16 968.99,-29.67 975.26,-26.56"/>
</a>
</g>
</g>
<!-- Node16 -->
<g id="Node000016" class="node">
<title>Node16</title>
<g id="a_Node000016"><a xlink:title=" ">
<polygon fill="#e0e0e0" stroke="#999999" points="972.5,-200.5 879.5,-200.5 879.5,-181.5 972.5,-181.5 972.5,-200.5"/>
<text text-anchor="middle" x="926" y="-188.5" font-family="Helvetica,sans-Serif" font-size="10.00">unordered_map</text>
</a>
</g>
</g>
<!-- Node14&#45;&gt;Node16 -->
<g id="edge18_Node000014_Node000016" class="edge">
<title>Node14&#45;&gt;Node16</title>
<g id="a_edge18_Node000014_Node000016"><a xlink:title=" ">
<path fill="none" stroke="#63b8ff" d="M781.57,-241.99C810.61,-231.94 859.1,-215.16 891.8,-203.84"/>
<polygon fill="#63b8ff" stroke="#63b8ff" points="893.09,-207.1 901.4,-200.52 890.8,-200.48 893.09,-207.1"/>
</a>
</g>
</g>
<!-- Node17 -->
<g id="Node000017" class="node">
<title>Node17</title>
<g id="a_Node000017"><a xlink:title=" ">
<polygon fill="#e0e0e0" stroke="#999999" points="1087,-200.5 1029,-200.5 1029,-181.5 1087,-181.5 1087,-200.5"/>
<text text-anchor="middle" x="1058" y="-188.5" font-family="Helvetica,sans-Serif" font-size="10.00">memory</text>
</a>
</g>
</g>
<!-- Node14&#45;&gt;Node17 -->
<g id="edge19_Node000014_Node000017" class="edge">
<title>Node14&#45;&gt;Node17</title>
<g id="a_edge19_Node000014_Node000017"><a xlink:title=" ">
<path fill="none" stroke="#63b8ff" d="M790.31,-246.32C839.77,-239.76 935.36,-225.72 1015,-206 1017.95,-205.27 1021,-204.44 1024.04,-203.55"/>
<polygon fill="#63b8ff" stroke="#63b8ff" points="1025.09,-206.89 1033.62,-200.61 1023.03,-200.2 1025.09,-206.89"/>
</a>
</g>
</g>
<!-- Node18 -->
<g id="Node000018" class="node">
<title>Node18</title>
<g id="a_Node000018"><a xlink:title=" ">
<polygon fill="#e0e0e0" stroke="#999999" points="635,-200.5 585,-200.5 585,-181.5 635,-181.5 635,-200.5"/>
<text text-anchor="middle" x="610" y="-188.5" font-family="Helvetica,sans-Serif" font-size="10.00">ranges</text>
</a>
</g>
</g>
<!-- Node14&#45;&gt;Node18 -->
<g id="edge20_Node000014_Node000018" class="edge">
<title>Node14&#45;&gt;Node18</title>
<g id="a_edge20_Node000014_Node000018"><a xlink:title=" ">
<path fill="none" stroke="#63b8ff" d="M735.62,-241.99C710.69,-232.07 669.28,-215.59 640.86,-204.28"/>
<polygon fill="#63b8ff" stroke="#63b8ff" points="641.99,-200.96 631.4,-200.52 639.4,-207.47 641.99,-200.96"/>
</a>
</g>
</g>
<!-- Node19 -->
<g id="Node000019" class="node">
<title>Node19</title>
<g id="a_Node000019"><a xlink:href="exception_8h.html" target="_top" xlink:title=" ">
<polygon fill="white" stroke="#666666" points="1159,-79.5 1029,-79.5 1029,-60.5 1159,-60.5 1159,-79.5"/>
<text text-anchor="middle" x="1094" y="-67.5" font-family="Helvetica,sans-Serif" font-size="10.00">exceptions/exception.h</text>
</a>
</g>
</g>
<!-- Node14&#45;&gt;Node19 -->
<g id="edge23_Node000014_Node000019" class="edge">
<title>Node14&#45;&gt;Node19</title>
<g id="a_edge23_Node000014_Node000019"><a xlink:title=" ">
<path fill="none" stroke="#63b8ff" d="M790.21,-248.59C871.62,-243.58 1075.99,-228.81 1096,-206 1124.51,-173.5 1110.9,-117.76 1101.07,-89.13"/>
<polygon fill="#63b8ff" stroke="#63b8ff" points="1104.3,-87.78 1097.58,-79.59 1097.72,-90.19 1104.3,-87.78"/>
</a>
</g>
</g>
<!-- Node22 -->
<g id="Node000022" class="node">
<title>Node22</title>
<g id="a_Node000022"><a xlink:href="logger_8h.html" target="_top" xlink:title=" ">
<polygon fill="white" stroke="#666666" points="892.5,-140 809.5,-140 809.5,-121 892.5,-121 892.5,-140"/>
<text text-anchor="middle" x="851" y="-128" font-family="Helvetica,sans-Serif" font-size="10.00">tools/logger.h</text>
</a>
</g>
</g>
<!-- Node14&#45;&gt;Node22 -->
<g id="edge27_Node000014_Node000022" class="edge">
<title>Node14&#45;&gt;Node22</title>
<g id="a_edge27_Node000014_Node000022"><a xlink:title=" ">
<path fill="none" stroke="#63b8ff" d="M781.06,-241.97C797.76,-234.85 819.21,-223.09 832,-206 844.1,-189.83 848.53,-166.76 850.14,-150.58"/>
<polygon fill="#63b8ff" stroke="#63b8ff" points="853.66,-150.45 850.87,-140.22 846.67,-149.95 853.66,-150.45"/>
</a>
</g>
</g>
<!-- Node28 -->
<g id="Node000028" class="node">
<title>Node28</title>
<g id="a_Node000028"><a xlink:href="element__parameters_8h.html" target="_top" xlink:title=" ">
<polygon fill="white" stroke="#666666" points="822.5,-206 691.5,-206 691.5,-176 822.5,-176 822.5,-206"/>
<text text-anchor="start" x="699.5" y="-194" font-family="Helvetica,sans-Serif" font-size="10.00">element_parameters</text>
<text text-anchor="middle" x="757" y="-183" font-family="Helvetica,sans-Serif" font-size="10.00">/element_parameters.h</text>
</a>
</g>
</g>
<!-- Node14&#45;&gt;Node28 -->
<g id="edge42_Node000014_Node000028" class="edge">
<title>Node14&#45;&gt;Node28</title>
<g id="a_edge42_Node000014_Node000028"><a xlink:title=" ">
<path fill="none" stroke="#63b8ff" d="M757,-241.87C757,-235.11 757,-225.35 757,-216.26"/>
<polygon fill="#63b8ff" stroke="#63b8ff" points="760.5,-216.11 757,-206.11 753.5,-216.11 760.5,-216.11"/>
</a>
</g>
</g>
<!-- Node19&#45;&gt;Node15 -->
<g id="edge26_Node000019_Node000015" class="edge">
<title>Node19&#45;&gt;Node15</title>
<g id="a_edge26_Node000019_Node000015"><a xlink:title=" ">
<path fill="none" stroke="#63b8ff" d="M1074.95,-60.49C1053.03,-50.7 1016.79,-34.52 991.5,-23.23"/>
<polygon fill="#63b8ff" stroke="#63b8ff" points="992.63,-19.9 982.07,-19.02 989.78,-26.29 992.63,-19.9"/>
</a>
</g>
</g>
<!-- Node20 -->
<g id="Node000020" class="node">
<title>Node20</title>
<g id="a_Node000020"><a xlink:title=" ">
<polygon fill="#e0e0e0" stroke="#999999" points="1086,-19 1036,-19 1036,0 1086,0 1086,-19"/>
<text text-anchor="middle" x="1061" y="-7" font-family="Helvetica,sans-Serif" font-size="10.00">cstdint</text>
</a>
</g>
</g>
<!-- Node19&#45;&gt;Node20 -->
<g id="edge24_Node000019_Node000020" class="edge">
<title>Node19&#45;&gt;Node20</title>
<g id="a_edge24_Node000019_Node000020"><a xlink:title=" ">
<path fill="none" stroke="#63b8ff" d="M1089.13,-60.37C1084.35,-51.9 1076.93,-38.74 1070.91,-28.07"/>
<polygon fill="#63b8ff" stroke="#63b8ff" points="1073.85,-26.16 1065.89,-19.17 1067.75,-29.6 1073.85,-26.16"/>
</a>
</g>
</g>
<!-- Node21 -->
<g id="Node000021" class="node">
<title>Node21</title>
<g id="a_Node000021"><a xlink:title=" ">
<polygon fill="#e0e0e0" stroke="#999999" points="1169.5,-19 1104.5,-19 1104.5,0 1169.5,0 1169.5,-19"/>
<text text-anchor="middle" x="1137" y="-7" font-family="Helvetica,sans-Serif" font-size="10.00">exception</text>
</a>
</g>
</g>
<!-- Node19&#45;&gt;Node21 -->
<g id="edge25_Node000019_Node000021" class="edge">
<title>Node19&#45;&gt;Node21</title>
<g id="a_edge25_Node000019_Node000021"><a xlink:title=" ">
<path fill="none" stroke="#63b8ff" d="M1100.34,-60.37C1106.7,-51.73 1116.64,-38.2 1124.57,-27.42"/>
<polygon fill="#63b8ff" stroke="#63b8ff" points="1127.53,-29.3 1130.63,-19.17 1121.89,-25.15 1127.53,-29.3"/>
</a>
</g>
</g>
<!-- Node22&#45;&gt;Node4 -->
<g id="edge31_Node000022_Node000004" class="edge">
<title>Node22&#45;&gt;Node4</title>
<g id="a_edge31_Node000022_Node000004"><a xlink:title=" ">
<path fill="none" stroke="#63b8ff" d="M892.6,-126.62C953.74,-121.73 1071.09,-109.81 1168,-85 1170.45,-84.37 1172.95,-83.64 1175.45,-82.84"/>
<polygon fill="#63b8ff" stroke="#63b8ff" points="1176.62,-86.14 1184.91,-79.53 1174.31,-79.53 1176.62,-86.14"/>
</a>
</g>
</g>
<!-- Node22&#45;&gt;Node15 -->
<g id="edge29_Node000022_Node000015" class="edge">
<title>Node22&#45;&gt;Node15</title>
<g id="a_edge29_Node000022_Node000015"><a xlink:title=" ">
<path fill="none" stroke="#63b8ff" d="M885.23,-121C905.12,-114.35 929.13,-103.13 944,-85 956.93,-69.24 961.2,-45.76 962.53,-29.39"/>
<polygon fill="#63b8ff" stroke="#63b8ff" points="966.03,-29.54 963.06,-19.37 959.04,-29.17 966.03,-29.54"/>
</a>
</g>
</g>
<!-- Node22&#45;&gt;Node19 -->
<g id="edge33_Node000022_Node000019" class="edge">
<title>Node22&#45;&gt;Node19</title>
<g id="a_edge33_Node000022_Node000019"><a xlink:title=" ">
<path fill="none" stroke="#63b8ff" d="M886.33,-120.99C929.26,-110.66 1001.74,-93.21 1048.72,-81.9"/>
<polygon fill="#63b8ff" stroke="#63b8ff" points="1049.72,-85.26 1058.62,-79.52 1048.08,-78.45 1049.72,-85.26"/>
</a>
</g>
</g>
<!-- Node23 -->
<g id="Node000023" class="node">
<title>Node23</title>
<g id="a_Node000023"><a xlink:title=" ">
<polygon fill="#e0e0e0" stroke="#999999" points="935,-79.5 875,-79.5 875,-60.5 935,-60.5 935,-79.5"/>
<text text-anchor="middle" x="905" y="-67.5" font-family="Helvetica,sans-Serif" font-size="10.00">iostream</text>
</a>
</g>
</g>
<!-- Node22&#45;&gt;Node23 -->
<g id="edge28_Node000022_Node000023" class="edge">
<title>Node22&#45;&gt;Node23</title>
<g id="a_edge28_Node000022_Node000023"><a xlink:title=" ">
<path fill="none" stroke="#63b8ff" d="M858.97,-120.87C867.1,-112.05 879.93,-98.16 889.98,-87.27"/>
<polygon fill="#63b8ff" stroke="#63b8ff" points="892.79,-89.39 897,-79.67 887.64,-84.64 892.79,-89.39"/>
</a>
</g>
</g>
<!-- Node24 -->
<g id="Node000024" class="node">
<title>Node24</title>
<g id="a_Node000024"><a xlink:title=" ">
<polygon fill="#e0e0e0" stroke="#999999" points="623,-19 573,-19 573,0 623,0 623,-19"/>
<text text-anchor="middle" x="598" y="-7" font-family="Helvetica,sans-Serif" font-size="10.00">chrono</text>
</a>
</g>
</g>
<!-- Node22&#45;&gt;Node24 -->
<g id="edge30_Node000022_Node000024" class="edge">
<title>Node22&#45;&gt;Node24</title>
<g id="a_edge30_Node000022_Node000024"><a xlink:title=" ">
<path fill="none" stroke="#63b8ff" d="M827.97,-120.92C805.53,-112.39 770.55,-98.64 741,-85 698.48,-65.38 650.47,-39.59 622.3,-24.07"/>
<polygon fill="#63b8ff" stroke="#63b8ff" points="623.65,-20.82 613.21,-19.04 620.26,-26.94 623.65,-20.82"/>
</a>
</g>
</g>
<!-- Node25 -->
<g id="Node000025" class="node">
<title>Node25</title>
<g id="a_Node000025"><a xlink:title=" ">
<polygon fill="#e0e0e0" stroke="#999999" points="856.5,-85 749.5,-85 749.5,-55 856.5,-55 856.5,-85"/>
<text text-anchor="start" x="757.5" y="-73" font-family="Helvetica,sans-Serif" font-size="10.00">imgui&#45;platform&#45;kit</text>
<text text-anchor="middle" x="803" y="-62" font-family="Helvetica,sans-Serif" font-size="10.00">/log_window.h</text>
</a>
</g>
</g>
<!-- Node22&#45;&gt;Node25 -->
<g id="edge32_Node000022_Node000025" class="edge">
<title>Node22&#45;&gt;Node25</title>
<g id="a_edge32_Node000022_Node000025"><a xlink:title=" ">
<path fill="none" stroke="#63b8ff" d="M843.92,-120.87C837.89,-113.52 828.96,-102.63 820.98,-92.91"/>
<polygon fill="#63b8ff" stroke="#63b8ff" points="823.63,-90.63 814.58,-85.11 818.22,-95.07 823.63,-90.63"/>
</a>
</g>
</g>
<!-- Node26 -->
<g id="Node000026" class="node">
<title>Node26</title>
<g id="a_Node000026"><a xlink:href="utils_8h.html" target="_top" xlink:title=" ">
<polygon fill="white" stroke="#666666" points="360.5,-79.5 313.5,-79.5 313.5,-60.5 360.5,-60.5 360.5,-79.5"/>
<text text-anchor="middle" x="337" y="-67.5" font-family="Helvetica,sans-Serif" font-size="10.00">utils.h</text>
</a>
</g>
</g>
<!-- Node22&#45;&gt;Node26 -->
<g id="edge34_Node000022_Node000026" class="edge">
<title>Node22&#45;&gt;Node26</title>
<g id="a_edge34_Node000022_Node000026"><a xlink:title=" ">
<path fill="none" stroke="#63b8ff" d="M809.37,-124.76C710.17,-113.47 461.37,-85.15 370.72,-74.84"/>
<polygon fill="#63b8ff" stroke="#63b8ff" points="371.04,-71.35 360.71,-73.7 370.25,-78.31 371.04,-71.35"/>
</a>
</g>
</g>
<!-- Node26&#45;&gt;Node3 -->
<g id="edge38_Node000026_Node000003" class="edge">
<title>Node26&#45;&gt;Node3</title>
<g id="a_edge38_Node000026_Node000003"><a xlink:title=" ">
<path fill="none" stroke="#63b8ff" d="M313.32,-64.46C260.82,-54.39 134.24,-30.11 70.31,-17.85"/>
<polygon fill="#63b8ff" stroke="#63b8ff" points="70.72,-14.36 60.24,-15.92 69.4,-21.24 70.72,-14.36"/>
</a>
</g>
</g>
<!-- Node26&#45;&gt;Node7 -->
<g id="edge36_Node000026_Node000007" class="edge">
<title>Node26&#45;&gt;Node7</title>
<g id="a_edge36_Node000026_Node000007"><a xlink:title=" ">
<path fill="none" stroke="#63b8ff" d="M347.33,-60.37C358.19,-51.3 375.49,-36.84 388.67,-25.82"/>
<polygon fill="#63b8ff" stroke="#63b8ff" points="391.2,-28.27 396.63,-19.17 386.71,-22.89 391.2,-28.27"/>
</a>
</g>
</g>
<!-- Node26&#45;&gt;Node11 -->
<g id="edge37_Node000026_Node000011" class="edge">
<title>Node26&#45;&gt;Node11</title>
<g id="a_edge37_Node000026_Node000011"><a xlink:title=" ">
<path fill="none" stroke="#63b8ff" d="M317.95,-60.49C296.03,-50.7 259.79,-34.52 234.5,-23.23"/>
<polygon fill="#63b8ff" stroke="#63b8ff" points="235.63,-19.9 225.07,-19.02 232.78,-26.29 235.63,-19.9"/>
</a>
</g>
</g>
<!-- Node26&#45;&gt;Node13 -->
<g id="edge39_Node000026_Node000013" class="edge">
<title>Node26&#45;&gt;Node13</title>
<g id="a_edge39_Node000026_Node000013"><a xlink:title=" ">
<path fill="none" stroke="#63b8ff" d="M313.47,-62.63C276.14,-52.52 203.02,-32.71 158.43,-20.64"/>
<polygon fill="#63b8ff" stroke="#63b8ff" points="159.13,-17.2 148.56,-17.96 157.3,-23.96 159.13,-17.2"/>
</a>
</g>
</g>
<!-- Node26&#45;&gt;Node15 -->
<g id="edge35_Node000026_Node000015" class="edge">
<title>Node26&#45;&gt;Node15</title>
<g id="a_edge35_Node000026_Node000015"><a xlink:title=" ">
<path fill="none" stroke="#63b8ff" d="M360.78,-66.78C457.28,-57.76 819.84,-23.88 930.64,-13.52"/>
<polygon fill="#63b8ff" stroke="#63b8ff" points="931.22,-16.99 940.85,-12.57 930.57,-10.02 931.22,-16.99"/>
</a>
</g>
</g>
<!-- Node26&#45;&gt;Node24 -->
<g id="edge40_Node000026_Node000024" class="edge">
<title>Node26&#45;&gt;Node24</title>
<g id="a_edge40_Node000026_Node000024"><a xlink:title=" ">
<path fill="none" stroke="#63b8ff" d="M360.62,-63.71C406.72,-53.37 508.85,-30.48 562.89,-18.37"/>
<polygon fill="#63b8ff" stroke="#63b8ff" points="563.72,-21.77 572.71,-16.17 562.19,-14.94 563.72,-21.77"/>
</a>
</g>
</g>
<!-- Node27 -->
<g id="Node000027" class="node">
<title>Node27</title>
<g id="a_Node000027"><a xlink:title=" ">
<polygon fill="#e0e0e0" stroke="#999999" points="365,-19 297,-19 297,0 365,0 365,-19"/>
<text text-anchor="middle" x="331" y="-7" font-family="Helvetica,sans-Serif" font-size="10.00">filesystem</text>
</a>
</g>
</g>
<!-- Node26&#45;&gt;Node27 -->
<g id="edge41_Node000026_Node000027" class="edge">
<title>Node26&#45;&gt;Node27</title>
<g id="a_edge41_Node000026_Node000027"><a xlink:title=" ">
<path fill="none" stroke="#63b8ff" d="M336.11,-60.37C335.28,-52.25 334.01,-39.81 332.94,-29.39"/>
<polygon fill="#63b8ff" stroke="#63b8ff" points="336.39,-28.76 331.89,-19.17 329.43,-29.47 336.39,-28.76"/>
</a>
</g>
</g>
<!-- Node28&#45;&gt;Node15 -->
<g id="edge44_Node000028_Node000015" class="edge">
<title>Node28&#45;&gt;Node15</title>
<g id="a_edge44_Node000028_Node000015"><a xlink:title=" ">
<path fill="none" stroke="#63b8ff" d="M756.17,-175.91C755.2,-161.91 753.3,-139.86 750,-121 747.16,-104.75 743.02,-101.37 741,-85 739.37,-71.77 732.55,-65.31 741,-55 764.64,-26.15 875.22,-15.62 930.86,-12.1"/>
<polygon fill="#63b8ff" stroke="#63b8ff" points="931.12,-15.59 940.89,-11.51 930.7,-8.6 931.12,-15.59"/>
</a>
</g>
</g>
<!-- Node28&#45;&gt;Node22 -->
<g id="edge46_Node000028_Node000022" class="edge">
<title>Node28&#45;&gt;Node22</title>
<g id="a_edge46_Node000028_Node000022"><a xlink:title=" ">
<path fill="none" stroke="#63b8ff" d="M779.75,-175.84C794.6,-166.6 813.9,-154.59 828.66,-145.4"/>
<polygon fill="#63b8ff" stroke="#63b8ff" points="830.55,-148.35 837.19,-140.09 826.85,-142.41 830.55,-148.35"/>
</a>
</g>
</g>
<!-- Node29 -->
<g id="Node000029" class="node">
<title>Node29</title>
<g id="a_Node000029"><a xlink:title=" ">
<polygon fill="#e0e0e0" stroke="#999999" points="741,-140 703,-140 703,-121 741,-121 741,-140"/>
<text text-anchor="middle" x="722" y="-128" font-family="Helvetica,sans-Serif" font-size="10.00">map</text>
</a>
</g>
</g>
<!-- Node28&#45;&gt;Node29 -->
<g id="edge43_Node000028_Node000029" class="edge">
<title>Node28&#45;&gt;Node29</title>
<g id="a_edge43_Node000028_Node000029"><a xlink:title=" ">
<path fill="none" stroke="#63b8ff" d="M748.53,-175.84C743.71,-167.78 737.63,-157.62 732.5,-149.06"/>
<polygon fill="#63b8ff" stroke="#63b8ff" points="735.38,-147.05 727.24,-140.27 729.38,-150.64 735.38,-147.05"/>
</a>
</g>
</g>
<!-- Node30 -->
<g id="Node000030" class="node">
<title>Node30</title>
<g id="a_Node000030"><a xlink:title=" ">
<polygon fill="#e0e0e0" stroke="#999999" points="685,-140 635,-140 635,-121 685,-121 685,-140"/>
<text text-anchor="middle" x="660" y="-128" font-family="Helvetica,sans-Serif" font-size="10.00">format</text>
</a>
</g>
</g>
<!-- Node28&#45;&gt;Node30 -->
<g id="edge45_Node000028_Node000030" class="edge">
<title>Node28&#45;&gt;Node30</title>
<g id="a_edge45_Node000028_Node000030"><a xlink:title=" ">
<path fill="none" stroke="#63b8ff" d="M733.52,-175.84C718.2,-166.6 698.29,-154.59 683.05,-145.4"/>
<polygon fill="#63b8ff" stroke="#63b8ff" points="684.62,-142.26 674.25,-140.09 681.01,-148.26 684.62,-142.26"/>
</a>
</g>
</g>
</g>
</svg>
