<?xml version="1.0" encoding="UTF-8" standalone="no"?>
<!DOCTYPE svg PUBLIC "-//W3C//DTD SVG 1.1//EN"
 "http://www.w3.org/Graphics/SVG/1.1/DTD/svg11.dtd">
<!-- Generated by graphviz version 2.43.0 (0)
 -->
<!-- Title: include/elements/correlated_normal_noise_2d.h Pages: 1 -->
<svg width="975pt" height="368pt"
 viewBox="0.00 0.00 974.50 368.00" xmlns="http://www.w3.org/2000/svg" xmlns:xlink="http://www.w3.org/1999/xlink">
<g id="graph0" class="graph" transform="scale(1 1) rotate(0) translate(4 364)">
<title>include/elements/correlated_normal_noise_2d.h</title>
<!-- Node1 -->
<g id="Node000001" class="node">
<title>Node1</title>
<g id="a_Node000001"><a xlink:title=" ">
<polygon fill="#999999" stroke="#666666" points="632,-360 479,-360 479,-330 632,-330 632,-360"/>
<text text-anchor="start" x="487" y="-348" font-family="Helvetica,sans-Serif" font-size="10.00">include/elements/correlated</text>
<text text-anchor="middle" x="555.5" y="-337" font-family="Helvetica,sans-Serif" font-size="10.00">_normal_noise_2d.h</text>
</a>
</g>
</g>
<!-- Node2 -->
<g id="Node000002" class="node">
<title>Node2</title>
<g id="a_Node000002"><a xlink:href="element__factory_8h.html" target="_top" xlink:title=" ">
<polygon fill="white" stroke="#666666" points="275.5,-294 131.5,-294 131.5,-264 275.5,-264 275.5,-294"/>
<text text-anchor="start" x="139.5" y="-282" font-family="Helvetica,sans-Serif" font-size="10.00">include/elements/element</text>
<text text-anchor="middle" x="203.5" y="-271" font-family="Helvetica,sans-Serif" font-size="10.00">_factory.h</text>
</a>
</g>
</g>
<!-- Node1&#45;&gt;Node2 -->
<g id="edge1_Node000001_Node000002" class="edge">
<title>Node1&#45;&gt;Node2</title>
<g id="a_edge1_Node000001_Node000002"><a xlink:title=" ">
<path fill="none" stroke="#63b8ff" d="M468.58,-328.2C409.24,-317.41 331.56,-303.28 275.65,-293.12"/>
<polygon fill="#63b8ff" stroke="#63b8ff" points="468.22,-331.69 478.69,-330.03 469.47,-324.8 468.22,-331.69"/>
</a>
</g>
</g>
<!-- Node12 -->
<g id="Node000012" class="node">
<title>Node12</title>
<g id="a_Node000012"><a xlink:href="simulation__file__manager_8h.html" target="_top" xlink:title=" ">
<polygon fill="white" stroke="#666666" points="755,-294 606,-294 606,-264 755,-264 755,-294"/>
<text text-anchor="start" x="614" y="-282" font-family="Helvetica,sans-Serif" font-size="10.00">include/simulation</text>
<text text-anchor="middle" x="680.5" y="-271" font-family="Helvetica,sans-Serif" font-size="10.00">/simulation_file_manager.h</text>
</a>
</g>
</g>
<!-- Node1&#45;&gt;Node12 -->
<g id="edge11_Node000001_Node000012" class="edge">
<title>Node1&#45;&gt;Node12</title>
<g id="a_edge11_Node000001_Node000012"><a xlink:title=" ">
<path fill="none" stroke="#63b8ff" d="M591.87,-325.38C611.43,-315.36 635.15,-303.22 653.13,-294.01"/>
<polygon fill="#63b8ff" stroke="#63b8ff" points="590.24,-322.28 582.93,-329.95 593.43,-328.51 590.24,-322.28"/>
</a>
</g>
</g>
<!-- Node15 -->
<g id="Node000015" class="node">
<title>Node15</title>
<g id="a_Node000015"><a xlink:href="element__window_8h.html" target="_top" xlink:title=" ">
<polygon fill="white" stroke="#666666" points="541,-294 416,-294 416,-264 541,-264 541,-294"/>
<text text-anchor="start" x="424" y="-282" font-family="Helvetica,sans-Serif" font-size="10.00">include/user_interface</text>
<text text-anchor="middle" x="478.5" y="-271" font-family="Helvetica,sans-Serif" font-size="10.00">/element_window.h</text>
</a>
</g>
</g>
<!-- Node1&#45;&gt;Node15 -->
<g id="edge14_Node000001_Node000015" class="edge">
<title>Node1&#45;&gt;Node15</title>
<g id="a_edge14_Node000001_Node000015"><a xlink:title=" ">
<path fill="none" stroke="#63b8ff" d="M530.48,-323.2C519.05,-313.7 505.8,-302.69 495.54,-294.16"/>
<polygon fill="#63b8ff" stroke="#63b8ff" points="528.48,-326.1 538.41,-329.8 532.96,-320.71 528.48,-326.1"/>
</a>
</g>
</g>
<!-- Node19 -->
<g id="Node000019" class="node">
<title>Node19</title>
<g id="a_Node000019"><a xlink:href="correlated__normal__noise__2d_8cpp.html" target="_top" xlink:title=" ">
<polygon fill="white" stroke="#666666" points="905.5,-294 773.5,-294 773.5,-264 905.5,-264 905.5,-294"/>
<text text-anchor="start" x="781.5" y="-282" font-family="Helvetica,sans-Serif" font-size="10.00">src/elements/correlated</text>
<text text-anchor="middle" x="839.5" y="-271" font-family="Helvetica,sans-Serif" font-size="10.00">_normal_noise_2d.cpp</text>
</a>
</g>
</g>
<!-- Node1&#45;&gt;Node19 -->
<g id="edge22_Node000001_Node000019" class="edge">
<title>Node1&#45;&gt;Node19</title>
<g id="a_edge22_Node000001_Node000019"><a xlink:title=" ">
<path fill="none" stroke="#63b8ff" d="M627.77,-327.71C673.96,-317.31 733.24,-303.95 777.32,-294.01"/>
<polygon fill="#63b8ff" stroke="#63b8ff" points="626.81,-324.34 617.83,-329.95 628.35,-331.17 626.81,-324.34"/>
</a>
</g>
</g>
<!-- Node3 -->
<g id="Node000003" class="node">
<title>Node3</title>
<g id="a_Node000003"><a xlink:href="simulation__window_8h.html" target="_top" xlink:title=" ">
<polygon fill="white" stroke="#666666" points="266,-228 141,-228 141,-198 266,-198 266,-228"/>
<text text-anchor="start" x="149" y="-216" font-family="Helvetica,sans-Serif" font-size="10.00">include/user_interface</text>
<text text-anchor="middle" x="203.5" y="-205" font-family="Helvetica,sans-Serif" font-size="10.00">/simulation_window.h</text>
</a>
</g>
</g>
<!-- Node2&#45;&gt;Node3 -->
<g id="edge2_Node000002_Node000003" class="edge">
<title>Node2&#45;&gt;Node3</title>
<g id="a_edge2_Node000002_Node000003"><a xlink:title=" ">
<path fill="none" stroke="#63b8ff" d="M203.5,-253.54C203.5,-244.96 203.5,-235.61 203.5,-228.16"/>
<polygon fill="#63b8ff" stroke="#63b8ff" points="200,-253.8 203.5,-263.8 207,-253.8 200,-253.8"/>
</a>
</g>
</g>
<!-- Node11 -->
<g id="Node000011" class="node">
<title>Node11</title>
<g id="a_Node000011"><a xlink:href="element__factory_8cpp.html" target="_top" xlink:title=" ">
<polygon fill="white" stroke="#666666" points="123,-228 0,-228 0,-198 123,-198 123,-228"/>
<text text-anchor="start" x="8" y="-216" font-family="Helvetica,sans-Serif" font-size="10.00">src/elements/element</text>
<text text-anchor="middle" x="61.5" y="-205" font-family="Helvetica,sans-Serif" font-size="10.00">_factory.cpp</text>
</a>
</g>
</g>
<!-- Node2&#45;&gt;Node11 -->
<g id="edge10_Node000002_Node000011" class="edge">
<title>Node2&#45;&gt;Node11</title>
<g id="a_edge10_Node000002_Node000011"><a xlink:title=" ">
<path fill="none" stroke="#63b8ff" d="M163.08,-259.78C140.7,-249.69 113.29,-237.34 92.59,-228.01"/>
<polygon fill="#63b8ff" stroke="#63b8ff" points="161.78,-263.04 172.34,-263.95 164.66,-256.65 161.78,-263.04"/>
</a>
</g>
</g>
<!-- Node4 -->
<g id="Node000004" class="node">
<title>Node4</title>
<g id="a_Node000004"><a xlink:href="dynamic-neural-field-composer-dynamic_8h.html" target="_top" xlink:title=" ">
<polygon fill="white" stroke="#666666" points="335.5,-162 187.5,-162 187.5,-132 335.5,-132 335.5,-162"/>
<text text-anchor="start" x="195.5" y="-150" font-family="Helvetica,sans-Serif" font-size="10.00">include/dynamic&#45;neural</text>
<text text-anchor="middle" x="261.5" y="-139" font-family="Helvetica,sans-Serif" font-size="10.00">&#45;field&#45;composer&#45;dynamic.h</text>
</a>
</g>
</g>
<!-- Node3&#45;&gt;Node4 -->
<g id="edge3_Node000003_Node000004" class="edge">
<title>Node3&#45;&gt;Node4</title>
<g id="a_edge3_Node000003_Node000004"><a xlink:title=" ">
<path fill="none" stroke="#63b8ff" d="M223.1,-190.37C231.54,-181.06 241.16,-170.44 248.66,-162.16"/>
<polygon fill="#63b8ff" stroke="#63b8ff" points="220.49,-188.04 216.37,-197.8 225.68,-192.74 220.49,-188.04"/>
</a>
</g>
</g>
<!-- Node6 -->
<g id="Node000006" class="node">
<title>Node6</title>
<g id="a_Node000006"><a xlink:href="static__layout__window_8h.html" target="_top" xlink:title=" ">
<polygon fill="white" stroke="#666666" points="487.5,-162 353.5,-162 353.5,-132 487.5,-132 487.5,-162"/>
<text text-anchor="start" x="361.5" y="-150" font-family="Helvetica,sans-Serif" font-size="10.00">include/user_interface</text>
<text text-anchor="middle" x="420.5" y="-139" font-family="Helvetica,sans-Serif" font-size="10.00">/static_layout_window.h</text>
</a>
</g>
</g>
<!-- Node3&#45;&gt;Node6 -->
<g id="edge5_Node000003_Node000006" class="edge">
<title>Node3&#45;&gt;Node6</title>
<g id="a_edge5_Node000003_Node000006"><a xlink:title=" ">
<path fill="none" stroke="#63b8ff" d="M260.73,-195.12C295.72,-184.8 339.94,-171.76 372.99,-162.01"/>
<polygon fill="#63b8ff" stroke="#63b8ff" points="259.72,-191.77 251.12,-197.95 261.7,-198.48 259.72,-191.77"/>
</a>
</g>
</g>
<!-- Node10 -->
<g id="Node000010" class="node">
<title>Node10</title>
<g id="a_Node000010"><a xlink:href="simulation__window_8cpp.html" target="_top" xlink:title=" ">
<polygon fill="white" stroke="#666666" points="169.5,-162 35.5,-162 35.5,-132 169.5,-132 169.5,-162"/>
<text text-anchor="start" x="43.5" y="-150" font-family="Helvetica,sans-Serif" font-size="10.00">src/user_interface</text>
<text text-anchor="middle" x="102.5" y="-139" font-family="Helvetica,sans-Serif" font-size="10.00">/simulation_window.cpp</text>
</a>
</g>
</g>
<!-- Node3&#45;&gt;Node10 -->
<g id="edge9_Node000003_Node000010" class="edge">
<title>Node3&#45;&gt;Node10</title>
<g id="a_edge9_Node000003_Node000010"><a xlink:title=" ">
<path fill="none" stroke="#63b8ff" d="M172.41,-192.3C157.04,-182.56 138.83,-171.02 124.85,-162.16"/>
<polygon fill="#63b8ff" stroke="#63b8ff" points="170.76,-195.4 181.08,-197.8 174.51,-189.49 170.76,-195.4"/>
</a>
</g>
</g>
<!-- Node5 -->
<g id="Node000005" class="node">
<title>Node5</title>
<g id="a_Node000005"><a xlink:href="dynamic-neural-field-composer-dynamic_8cpp.html" target="_top" xlink:title=" ">
<polygon fill="white" stroke="#666666" points="330,-96 171,-96 171,-66 330,-66 330,-96"/>
<text text-anchor="start" x="179" y="-84" font-family="Helvetica,sans-Serif" font-size="10.00">src/dynamic&#45;neural</text>
<text text-anchor="middle" x="250.5" y="-73" font-family="Helvetica,sans-Serif" font-size="10.00">&#45;field&#45;composer&#45;dynamic.cpp</text>
</a>
</g>
</g>
<!-- Node4&#45;&gt;Node5 -->
<g id="edge4_Node000004_Node000005" class="edge">
<title>Node4&#45;&gt;Node5</title>
<g id="a_edge4_Node000004_Node000005"><a xlink:title=" ">
<path fill="none" stroke="#63b8ff" d="M257.34,-121.83C255.86,-113.17 254.23,-103.7 252.93,-96.16"/>
<polygon fill="#63b8ff" stroke="#63b8ff" points="253.92,-122.53 259.06,-131.8 260.81,-121.35 253.92,-122.53"/>
</a>
</g>
</g>
<!-- Node7 -->
<g id="Node000007" class="node">
<title>Node7</title>
<g id="a_Node000007"><a xlink:href="dynamic-neural-field-composer-static_8h.html" target="_top" xlink:title=" ">
<polygon fill="white" stroke="#666666" points="644,-96 511,-96 511,-66 644,-66 644,-96"/>
<text text-anchor="start" x="519" y="-84" font-family="Helvetica,sans-Serif" font-size="10.00">include/dynamic&#45;neural</text>
<text text-anchor="middle" x="577.5" y="-73" font-family="Helvetica,sans-Serif" font-size="10.00">&#45;field&#45;composer&#45;static.h</text>
</a>
</g>
</g>
<!-- Node6&#45;&gt;Node7 -->
<g id="edge6_Node000006_Node000007" class="edge">
<title>Node6&#45;&gt;Node7</title>
<g id="a_edge6_Node000006_Node000007"><a xlink:title=" ">
<path fill="none" stroke="#63b8ff" d="M464.52,-128.05C489.4,-117.91 520.03,-105.43 543.13,-96.01"/>
<polygon fill="#63b8ff" stroke="#63b8ff" points="462.89,-124.94 454.95,-131.95 465.54,-131.42 462.89,-124.94"/>
</a>
</g>
</g>
<!-- Node9 -->
<g id="Node000009" class="node">
<title>Node9</title>
<g id="a_Node000009"><a xlink:href="static__layout__window_8cpp.html" target="_top" xlink:title=" ">
<polygon fill="white" stroke="#666666" points="493,-96 348,-96 348,-66 493,-66 493,-96"/>
<text text-anchor="start" x="356" y="-84" font-family="Helvetica,sans-Serif" font-size="10.00">src/user_interface</text>
<text text-anchor="middle" x="420.5" y="-73" font-family="Helvetica,sans-Serif" font-size="10.00">/static_layout_window.cpp</text>
</a>
</g>
</g>
<!-- Node6&#45;&gt;Node9 -->
<g id="edge8_Node000006_Node000009" class="edge">
<title>Node6&#45;&gt;Node9</title>
<g id="a_edge8_Node000006_Node000009"><a xlink:title=" ">
<path fill="none" stroke="#63b8ff" d="M420.5,-121.54C420.5,-112.96 420.5,-103.61 420.5,-96.16"/>
<polygon fill="#63b8ff" stroke="#63b8ff" points="417,-121.8 420.5,-131.8 424,-121.8 417,-121.8"/>
</a>
</g>
</g>
<!-- Node8 -->
<g id="Node000008" class="node">
<title>Node8</title>
<g id="a_Node000008"><a xlink:href="dynamic-neural-field-composer-static_8cpp.html" target="_top" xlink:title=" ">
<polygon fill="white" stroke="#666666" points="649.5,-30 505.5,-30 505.5,0 649.5,0 649.5,-30"/>
<text text-anchor="start" x="513.5" y="-18" font-family="Helvetica,sans-Serif" font-size="10.00">src/dynamic&#45;neural</text>
<text text-anchor="middle" x="577.5" y="-7" font-family="Helvetica,sans-Serif" font-size="10.00">&#45;field&#45;composer&#45;static.cpp</text>
</a>
</g>
</g>
<!-- Node7&#45;&gt;Node8 -->
<g id="edge7_Node000007_Node000008" class="edge">
<title>Node7&#45;&gt;Node8</title>
<g id="a_edge7_Node000007_Node000008"><a xlink:title=" ">
<path fill="none" stroke="#63b8ff" d="M577.5,-55.54C577.5,-46.96 577.5,-37.61 577.5,-30.16"/>
<polygon fill="#63b8ff" stroke="#63b8ff" points="574,-55.8 577.5,-65.8 581,-55.8 574,-55.8"/>
</a>
</g>
</g>
<!-- Node13 -->
<g id="Node000013" class="node">
<title>Node13</title>
<g id="a_Node000013"><a xlink:href="simulation_8cpp.html" target="_top" xlink:title=" ">
<polygon fill="white" stroke="#666666" points="808,-222.5 647,-222.5 647,-203.5 808,-203.5 808,-222.5"/>
<text text-anchor="middle" x="727.5" y="-210.5" font-family="Helvetica,sans-Serif" font-size="10.00">src/simulation/simulation.cpp</text>
</a>
</g>
</g>
<!-- Node12&#45;&gt;Node13 -->
<g id="edge12_Node000012_Node000013" class="edge">
<title>Node12&#45;&gt;Node13</title>
<g id="a_edge12_Node000012_Node000013"><a xlink:title=" ">
<path fill="none" stroke="#63b8ff" d="M696.94,-255.61C705.23,-244.32 714.81,-231.28 721,-222.84"/>
<polygon fill="#63b8ff" stroke="#63b8ff" points="694.03,-253.66 690.93,-263.8 699.67,-257.81 694.03,-253.66"/>
</a>
</g>
</g>
<!-- Node14 -->
<g id="Node000014" class="node">
<title>Node14</title>
<g id="a_Node000014"><a xlink:href="simulation__file__manager_8cpp.html" target="_top" xlink:title=" ">
<polygon fill="white" stroke="#666666" points="966.5,-228 826.5,-228 826.5,-198 966.5,-198 966.5,-228"/>
<text text-anchor="start" x="834.5" y="-216" font-family="Helvetica,sans-Serif" font-size="10.00">src/simulation/simulation</text>
<text text-anchor="middle" x="896.5" y="-205" font-family="Helvetica,sans-Serif" font-size="10.00">_file_manager.cpp</text>
</a>
</g>
</g>
<!-- Node12&#45;&gt;Node14 -->
<g id="edge13_Node000012_Node000014" class="edge">
<title>Node12&#45;&gt;Node14</title>
<g id="a_edge13_Node000012_Node000014"><a xlink:title=" ">
<path fill="none" stroke="#63b8ff" d="M737.91,-260.99C772.67,-250.69 816.45,-237.72 849.21,-228.01"/>
<polygon fill="#63b8ff" stroke="#63b8ff" points="736.5,-257.76 727.9,-263.95 738.48,-264.47 736.5,-257.76"/>
</a>
</g>
</g>
<!-- Node15&#45;&gt;Node4 -->
<g id="edge15_Node000015_Node000004" class="edge">
<title>Node15&#45;&gt;Node4</title>
<g id="a_edge15_Node000015_Node000004"><a xlink:title=" ">
<path fill="none" stroke="#63b8ff" d="M405.96,-267.43C375.17,-260.2 340.28,-248.12 313.5,-228 290.46,-210.69 274.71,-179.95 266.99,-162.04"/>
<polygon fill="#63b8ff" stroke="#63b8ff" points="405.28,-270.86 415.8,-269.61 406.8,-264.03 405.28,-270.86"/>
</a>
</g>
</g>
<!-- Node15&#45;&gt;Node6 -->
<g id="edge20_Node000015_Node000006" class="edge">
<title>Node15&#45;&gt;Node6</title>
<g id="a_edge20_Node000015_Node000006"><a xlink:title=" ">
<path fill="none" stroke="#63b8ff" d="M475.46,-253.46C472.78,-237.14 467.94,-215.56 459.5,-198 453.11,-184.7 442.73,-171.63 434.28,-162.18"/>
<polygon fill="#63b8ff" stroke="#63b8ff" points="472.06,-254.42 476.99,-263.8 478.99,-253.4 472.06,-254.42"/>
</a>
</g>
</g>
<!-- Node16 -->
<g id="Node000016" class="node">
<title>Node16</title>
<g id="a_Node000016"><a xlink:href="node__graph__window_8h.html" target="_top" xlink:title=" ">
<polygon fill="white" stroke="#666666" points="450.5,-228 322.5,-228 322.5,-198 450.5,-198 450.5,-228"/>
<text text-anchor="start" x="330.5" y="-216" font-family="Helvetica,sans-Serif" font-size="10.00">include/user_interface</text>
<text text-anchor="middle" x="386.5" y="-205" font-family="Helvetica,sans-Serif" font-size="10.00">/node_graph_window.h</text>
</a>
</g>
</g>
<!-- Node15&#45;&gt;Node16 -->
<g id="edge16_Node000015_Node000016" class="edge">
<title>Node15&#45;&gt;Node16</title>
<g id="a_edge16_Node000015_Node000016"><a xlink:title=" ">
<path fill="none" stroke="#63b8ff" d="M449.79,-258.03C435.87,-248.34 419.47,-236.94 406.86,-228.16"/>
<polygon fill="#63b8ff" stroke="#63b8ff" points="447.87,-260.96 458.08,-263.8 451.87,-255.21 447.87,-260.96"/>
</a>
</g>
</g>
<!-- Node18 -->
<g id="Node000018" class="node">
<title>Node18</title>
<g id="a_Node000018"><a xlink:href="element__window_8cpp.html" target="_top" xlink:title=" ">
<polygon fill="white" stroke="#666666" points="628.5,-228 506.5,-228 506.5,-198 628.5,-198 628.5,-228"/>
<text text-anchor="start" x="514.5" y="-216" font-family="Helvetica,sans-Serif" font-size="10.00">src/user_interface</text>
<text text-anchor="middle" x="567.5" y="-205" font-family="Helvetica,sans-Serif" font-size="10.00">/element_window.cpp</text>
</a>
</g>
</g>
<!-- Node15&#45;&gt;Node18 -->
<g id="edge21_Node000015_Node000018" class="edge">
<title>Node15&#45;&gt;Node18</title>
<g id="a_edge21_Node000015_Node000018"><a xlink:title=" ">
<path fill="none" stroke="#63b8ff" d="M506.66,-257.75C520.04,-248.13 535.72,-236.86 547.8,-228.16"/>
<polygon fill="#63b8ff" stroke="#63b8ff" points="504.33,-255.12 498.25,-263.8 508.41,-260.8 504.33,-255.12"/>
</a>
</g>
</g>
<!-- Node16&#45;&gt;Node4 -->
<g id="edge17_Node000016_Node000004" class="edge">
<title>Node16&#45;&gt;Node4</title>
<g id="a_edge17_Node000016_Node000004"><a xlink:title=" ">
<path fill="none" stroke="#63b8ff" d="M350.13,-193.38C330.57,-183.36 306.85,-171.22 288.87,-162.01"/>
<polygon fill="#63b8ff" stroke="#63b8ff" points="348.57,-196.51 359.07,-197.95 351.76,-190.28 348.57,-196.51"/>
</a>
</g>
</g>
<!-- Node16&#45;&gt;Node6 -->
<g id="edge18_Node000016_Node000006" class="edge">
<title>Node16&#45;&gt;Node6</title>
<g id="a_edge18_Node000016_Node000006"><a xlink:title=" ">
<path fill="none" stroke="#63b8ff" d="M398.74,-188.96C403.5,-180 408.8,-170.03 412.98,-162.16"/>
<polygon fill="#63b8ff" stroke="#63b8ff" points="395.65,-187.32 394.05,-197.8 401.83,-190.61 395.65,-187.32"/>
</a>
</g>
</g>
<!-- Node17 -->
<g id="Node000017" class="node">
<title>Node17</title>
<g id="a_Node000017"><a xlink:href="node__graph__window_8cpp.html" target="_top" xlink:title=" ">
<polygon fill="white" stroke="#666666" points="645,-162 506,-162 506,-132 645,-132 645,-162"/>
<text text-anchor="start" x="514" y="-150" font-family="Helvetica,sans-Serif" font-size="10.00">src/user_interface</text>
<text text-anchor="middle" x="575.5" y="-139" font-family="Helvetica,sans-Serif" font-size="10.00">/node_graph_window.cpp</text>
</a>
</g>
</g>
<!-- Node16&#45;&gt;Node17 -->
<g id="edge19_Node000016_Node000017" class="edge">
<title>Node16&#45;&gt;Node17</title>
<g id="a_edge19_Node000016_Node000017"><a xlink:title=" ">
<path fill="none" stroke="#63b8ff" d="M437.52,-194.72C467.8,-184.47 505.71,-171.63 534.12,-162.01"/>
<polygon fill="#63b8ff" stroke="#63b8ff" points="436.33,-191.43 427.98,-197.95 438.57,-198.06 436.33,-191.43"/>
</a>
</g>
</g>
</g>
</svg>
