<?xml version="1.0" encoding="UTF-8" standalone="no"?>
<!DOCTYPE svg PUBLIC "-//W3C//DTD SVG 1.1//EN"
 "http://www.w3.org/Graphics/SVG/1.1/DTD/svg11.dtd">
<!-- Generated by graphviz version 2.43.0 (0)
 -->
<!-- Title: src Pages: 1 -->
<svg width="813pt" height="98pt"
 viewBox="0.00 0.00 813.00 98.00" xmlns="http://www.w3.org/2000/svg" xmlns:xlink="http://www.w3.org/1999/xlink">
<g id="graph0" class="graph" transform="scale(1 1) rotate(0) translate(4 94)">
<title>src</title>
<g id="clust1" class="cluster">
<title>clusterdir_68267d1309a1af8e8297ef4c3efbcdba</title>
<g id="a_clust1"><a xlink:href="dir_68267d1309a1af8e8297ef4c3efbcdba.html" target="_top">
<polygon fill="#edf0f7" stroke="#404040" stroke-width="2" points="8,-47 8,-82 797,-82 797,-47 8,-47"/>
</a>
</g>
</g>
<!-- dir_68267d1309a1af8e8297ef4c3efbcdba -->
<g id="node1" class="node">
<title>dir_68267d1309a1af8e8297ef4c3efbcdba</title>
<text text-anchor="middle" x="773" y="-62" font-family="Helvetica,sans-Serif" font-size="10.00">src</text>
</g>
<!-- dir_d44c64559bbebec7f509842c48db8b23 -->
<g id="node10" class="node">
<title>dir_d44c64559bbebec7f509842c48db8b23</title>
<g id="a_node10"><a xlink:href="dir_d44c64559bbebec7f509842c48db8b23.html" target="_top" xlink:title="include">
<polygon fill="#edf0f7" stroke="red" points="424,-19 372,-19 372,0 424,0 424,-19"/>
<text text-anchor="middle" x="398" y="-7" font-family="Helvetica,sans-Serif" font-size="10.00">include</text>
</a>
</g>
</g>
<!-- dir_68267d1309a1af8e8297ef4c3efbcdba&#45;&gt;dir_d44c64559bbebec7f509842c48db8b23 -->
<g id="edge1" class="edge">
<title>dir_68267d1309a1af8e8297ef4c3efbcdba&#45;&gt;dir_d44c64559bbebec7f509842c48db8b23</title>
<g id="a_edge1"><a xlink:href="dir_000015_000010.html" target="_top">
<path fill="none" stroke="#63b8ff" d="M762.88,-54.88C758.82,-51.88 753.93,-48.82 749,-47 691.9,-25.96 512.05,-15.6 434.35,-12.01"/>
<polygon fill="#63b8ff" stroke="#63b8ff" points="434.23,-8.5 424.09,-11.55 433.92,-15.49 434.23,-8.5"/>
</a>
</g>
<g id="a_edge1&#45;headlabel"><a xlink:href="dir_000015_000010.html" target="_top" xlink:title="58">
<text text-anchor="middle" x="437.95" y="-3.32" font-family="Helvetica,sans-Serif" font-size="10.00" fill="#63b8ff">58</text>
</a>
</g>
</g>
<!-- dir_844f6ab5c2ae79211596f3dcdd81adb7 -->
<g id="node2" class="node">
<title>dir_844f6ab5c2ae79211596f3dcdd81adb7</title>
<g id="a_node2"><a xlink:href="dir_844f6ab5c2ae79211596f3dcdd81adb7.html" target="_top" xlink:title="application">
<polygon fill="#a2b4d6" stroke="#404040" points="739.5,-74 668.5,-74 668.5,-55 739.5,-55 739.5,-74"/>
<text text-anchor="middle" x="704" y="-62" font-family="Helvetica,sans-Serif" font-size="10.00">application</text>
</a>
</g>
</g>
<!-- dir_844f6ab5c2ae79211596f3dcdd81adb7&#45;&gt;dir_d44c64559bbebec7f509842c48db8b23 -->
<g id="edge2" class="edge">
<title>dir_844f6ab5c2ae79211596f3dcdd81adb7&#45;&gt;dir_d44c64559bbebec7f509842c48db8b23</title>
<g id="a_edge2"><a xlink:href="dir_000001_000010.html" target="_top">
<path fill="none" stroke="#63b8ff" d="M684.15,-54.99C676.69,-52.08 668.07,-49.05 660,-47 580.83,-26.9 485.21,-17.11 434.21,-13.01"/>
<polygon fill="#63b8ff" stroke="#63b8ff" points="434.27,-9.5 424.02,-12.22 433.72,-16.48 434.27,-9.5"/>
</a>
</g>
<g id="a_edge2&#45;headlabel"><a xlink:href="dir_000001_000010.html" target="_top" xlink:title="1">
<text text-anchor="middle" x="438.07" y="-4.45" font-family="Helvetica,sans-Serif" font-size="10.00" fill="#63b8ff">1</text>
</a>
</g>
</g>
<!-- dir_96cc287b3f310ba55293394b59ef73d7 -->
<g id="node3" class="node">
<title>dir_96cc287b3f310ba55293394b59ef73d7</title>
<g id="a_node3"><a xlink:href="dir_96cc287b3f310ba55293394b59ef73d7.html" target="_top" xlink:title="element_parameters">
<polygon fill="#a2b4d6" stroke="#404040" points="650.5,-74 531.5,-74 531.5,-55 650.5,-55 650.5,-74"/>
<text text-anchor="middle" x="591" y="-62" font-family="Helvetica,sans-Serif" font-size="10.00">element_parameters</text>
</a>
</g>
</g>
<!-- dir_96cc287b3f310ba55293394b59ef73d7&#45;&gt;dir_d44c64559bbebec7f509842c48db8b23 -->
<g id="edge3" class="edge">
<title>dir_96cc287b3f310ba55293394b59ef73d7&#45;&gt;dir_d44c64559bbebec7f509842c48db8b23</title>
<g id="a_edge3"><a xlink:href="dir_000003_000010.html" target="_top">
<path fill="none" stroke="#63b8ff" d="M559.99,-54.98C525.61,-45.54 470.23,-30.33 433.97,-20.38"/>
<polygon fill="#63b8ff" stroke="#63b8ff" points="434.85,-16.99 424.28,-17.72 433,-23.74 434.85,-16.99"/>
</a>
</g>
<g id="a_edge3&#45;headlabel"><a xlink:href="dir_000003_000010.html" target="_top" xlink:title="6">
<text text-anchor="middle" x="439.07" y="-12.7" font-family="Helvetica,sans-Serif" font-size="10.00" fill="#63b8ff">6</text>
</a>
</g>
</g>
<!-- dir_b2470cdf236b10787c6012057be7848d -->
<g id="node4" class="node">
<title>dir_b2470cdf236b10787c6012057be7848d</title>
<g id="a_node4"><a xlink:href="dir_b2470cdf236b10787c6012057be7848d.html" target="_top" xlink:title="elements">
<polygon fill="#a2b4d6" stroke="#404040" points="513,-74 451,-74 451,-55 513,-55 513,-74"/>
<text text-anchor="middle" x="482" y="-62" font-family="Helvetica,sans-Serif" font-size="10.00">elements</text>
</a>
</g>
</g>
<!-- dir_b2470cdf236b10787c6012057be7848d&#45;&gt;dir_d44c64559bbebec7f509842c48db8b23 -->
<g id="edge4" class="edge">
<title>dir_b2470cdf236b10787c6012057be7848d&#45;&gt;dir_d44c64559bbebec7f509842c48db8b23</title>
<g id="a_edge4"><a xlink:href="dir_000005_000010.html" target="_top">
<path fill="none" stroke="#63b8ff" d="M468.5,-54.98C455.6,-46.84 435.9,-34.41 420.6,-24.76"/>
<polygon fill="#63b8ff" stroke="#63b8ff" points="422.07,-21.55 411.74,-19.17 418.33,-27.47 422.07,-21.55"/>
</a>
</g>
<g id="a_edge4&#45;headlabel"><a xlink:href="dir_000005_000010.html" target="_top" xlink:title="15">
<text text-anchor="middle" x="426.62" y="-18.56" font-family="Helvetica,sans-Serif" font-size="10.00" fill="#63b8ff">15</text>
</a>
</g>
</g>
<!-- dir_6e33d6500a76933db4361f663e54ab12 -->
<g id="node5" class="node">
<title>dir_6e33d6500a76933db4361f663e54ab12</title>
<g id="a_node5"><a xlink:href="dir_6e33d6500a76933db4361f663e54ab12.html" target="_top" xlink:title="exceptions">
<polygon fill="#a2b4d6" stroke="#404040" points="433,-74 363,-74 363,-55 433,-55 433,-74"/>
<text text-anchor="middle" x="398" y="-62" font-family="Helvetica,sans-Serif" font-size="10.00">exceptions</text>
</a>
</g>
</g>
<!-- dir_6e33d6500a76933db4361f663e54ab12&#45;&gt;dir_d44c64559bbebec7f509842c48db8b23 -->
<g id="edge5" class="edge">
<title>dir_6e33d6500a76933db4361f663e54ab12&#45;&gt;dir_d44c64559bbebec7f509842c48db8b23</title>
<g id="a_edge5"><a xlink:href="dir_000007_000010.html" target="_top">
<path fill="none" stroke="#63b8ff" d="M398,-54.75C398,-47.8 398,-37.85 398,-29.13"/>
<polygon fill="#63b8ff" stroke="#63b8ff" points="401.5,-29.09 398,-19.09 394.5,-29.09 401.5,-29.09"/>
</a>
</g>
<g id="a_edge5&#45;headlabel"><a xlink:href="dir_000007_000010.html" target="_top" xlink:title="1">
<text text-anchor="middle" x="404.34" y="-30.18" font-family="Helvetica,sans-Serif" font-size="10.00" fill="#63b8ff">1</text>
</a>
</g>
</g>
<!-- dir_d73d1ee04cc237a5854777ea99c55872 -->
<g id="node6" class="node">
<title>dir_d73d1ee04cc237a5854777ea99c55872</title>
<g id="a_node6"><a xlink:href="dir_d73d1ee04cc237a5854777ea99c55872.html" target="_top" xlink:title="simulation">
<polygon fill="#a2b4d6" stroke="#404040" points="345,-74 277,-74 277,-55 345,-55 345,-74"/>
<text text-anchor="middle" x="311" y="-62" font-family="Helvetica,sans-Serif" font-size="10.00">simulation</text>
</a>
</g>
</g>
<!-- dir_d73d1ee04cc237a5854777ea99c55872&#45;&gt;dir_d44c64559bbebec7f509842c48db8b23 -->
<g id="edge6" class="edge">
<title>dir_d73d1ee04cc237a5854777ea99c55872&#45;&gt;dir_d44c64559bbebec7f509842c48db8b23</title>
<g id="a_edge6"><a xlink:href="dir_000014_000010.html" target="_top">
<path fill="none" stroke="#63b8ff" d="M324.98,-54.98C338.47,-46.77 359.13,-34.18 375.04,-24.49"/>
<polygon fill="#63b8ff" stroke="#63b8ff" points="377.05,-27.36 383.77,-19.17 373.41,-21.38 377.05,-27.36"/>
</a>
</g>
<g id="a_edge6&#45;headlabel"><a xlink:href="dir_000014_000010.html" target="_top" xlink:title="3">
<text text-anchor="middle" x="375.46" y="-29.16" font-family="Helvetica,sans-Serif" font-size="10.00" fill="#63b8ff">3</text>
</a>
</g>
</g>
<!-- dir_1563a38af0d3a5e4a6330d6d45e9792a -->
<g id="node7" class="node">
<title>dir_1563a38af0d3a5e4a6330d6d45e9792a</title>
<g id="a_node7"><a xlink:href="dir_1563a38af0d3a5e4a6330d6d45e9792a.html" target="_top" xlink:title="tools">
<polygon fill="#a2b4d6" stroke="#404040" points="258.5,-74 217.5,-74 217.5,-55 258.5,-55 258.5,-74"/>
<text text-anchor="middle" x="238" y="-62" font-family="Helvetica,sans-Serif" font-size="10.00">tools</text>
</a>
</g>
</g>
<!-- dir_1563a38af0d3a5e4a6330d6d45e9792a&#45;&gt;dir_d44c64559bbebec7f509842c48db8b23 -->
<g id="edge7" class="edge">
<title>dir_1563a38af0d3a5e4a6330d6d45e9792a&#45;&gt;dir_d44c64559bbebec7f509842c48db8b23</title>
<g id="a_edge7"><a xlink:href="dir_000017_000010.html" target="_top">
<path fill="none" stroke="#63b8ff" d="M252.02,-54.92C256.95,-52.14 262.61,-49.21 268,-47 298.65,-34.46 335.05,-24.65 361.53,-18.37"/>
<polygon fill="#63b8ff" stroke="#63b8ff" points="362.56,-21.72 371.51,-16.06 360.98,-14.9 362.56,-21.72"/>
</a>
</g>
<g id="a_edge7&#45;headlabel"><a xlink:href="dir_000017_000010.html" target="_top" xlink:title="6">
<text text-anchor="middle" x="359.7" y="-22.8" font-family="Helvetica,sans-Serif" font-size="10.00" fill="#63b8ff">6</text>
</a>
</g>
</g>
<!-- dir_3ff33c31d85f61b3fc6158eec2750235 -->
<g id="node8" class="node">
<title>dir_3ff33c31d85f61b3fc6158eec2750235</title>
<g id="a_node8"><a xlink:href="dir_3ff33c31d85f61b3fc6158eec2750235.html" target="_top" xlink:title="user_interface">
<polygon fill="#a2b4d6" stroke="#404040" points="199,-74 113,-74 113,-55 199,-55 199,-74"/>
<text text-anchor="middle" x="156" y="-62" font-family="Helvetica,sans-Serif" font-size="10.00">user_interface</text>
</a>
</g>
</g>
<!-- dir_3ff33c31d85f61b3fc6158eec2750235&#45;&gt;dir_d44c64559bbebec7f509842c48db8b23 -->
<g id="edge8" class="edge">
<title>dir_3ff33c31d85f61b3fc6158eec2750235&#45;&gt;dir_d44c64559bbebec7f509842c48db8b23</title>
<g id="a_edge8"><a xlink:href="dir_000019_000010.html" target="_top">
<path fill="none" stroke="#63b8ff" d="M181.45,-54.95C190.13,-52.2 199.93,-49.28 209,-47 261.58,-33.78 323.43,-22.66 361.68,-16.28"/>
<polygon fill="#63b8ff" stroke="#63b8ff" points="362.51,-19.69 371.81,-14.61 361.38,-12.78 362.51,-19.69"/>
</a>
</g>
<g id="a_edge8&#45;headlabel"><a xlink:href="dir_000019_000010.html" target="_top" xlink:title="18">
<text text-anchor="middle" x="359.43" y="-20.58" font-family="Helvetica,sans-Serif" font-size="10.00" fill="#63b8ff">18</text>
</a>
</g>
</g>
<!-- dir_b00de47ad7e2e13a637d9aa605dec95e -->
<g id="node9" class="node">
<title>dir_b00de47ad7e2e13a637d9aa605dec95e</title>
<g id="a_node9"><a xlink:href="dir_b00de47ad7e2e13a637d9aa605dec95e.html" target="_top" xlink:title="visualization">
<polygon fill="#a2b4d6" stroke="#404040" points="94.5,-74 15.5,-74 15.5,-55 94.5,-55 94.5,-74"/>
<text text-anchor="middle" x="55" y="-62" font-family="Helvetica,sans-Serif" font-size="10.00">visualization</text>
</a>
</g>
</g>
<!-- dir_b00de47ad7e2e13a637d9aa605dec95e&#45;&gt;dir_d44c64559bbebec7f509842c48db8b23 -->
<g id="edge9" class="edge">
<title>dir_b00de47ad7e2e13a637d9aa605dec95e&#45;&gt;dir_d44c64559bbebec7f509842c48db8b23</title>
<g id="a_edge9"><a xlink:href="dir_000021_000010.html" target="_top">
<path fill="none" stroke="#63b8ff" d="M77.17,-54.98C85.48,-52.07 95.07,-49.04 104,-47 195.39,-26.16 305.67,-16.49 361.62,-12.65"/>
<polygon fill="#63b8ff" stroke="#63b8ff" points="361.99,-16.14 371.74,-11.98 361.53,-9.15 361.99,-16.14"/>
</a>
</g>
<g id="a_edge9&#45;headlabel"><a xlink:href="dir_000021_000010.html" target="_top" xlink:title="6">
<text text-anchor="middle" x="358.59" y="-16.71" font-family="Helvetica,sans-Serif" font-size="10.00" fill="#63b8ff">6</text>
</a>
</g>
</g>
</g>
</svg>
