<?xml version="1.0" encoding="UTF-8" standalone="no"?>
<!DOCTYPE svg PUBLIC "-//W3C//DTD SVG 1.1//EN"
 "http://www.w3.org/Graphics/SVG/1.1/DTD/svg11.dtd">
<!-- Generated by graphviz version 2.43.0 (0)
 -->
<!-- Title: include Pages: 1 -->
<svg width="320pt" height="499pt"
 viewBox="0.00 0.00 320.00 499.00" xmlns="http://www.w3.org/2000/svg" xmlns:xlink="http://www.w3.org/1999/xlink">
<g id="graph0" class="graph" transform="scale(1 1) rotate(0) translate(4 495)">
<title>include</title>
<g id="clust1" class="cluster">
<title>clusterdir_d44c64559bbebec7f509842c48db8b23</title>
<g id="a_clust1"><a xlink:href="dir_d44c64559bbebec7f509842c48db8b23.html" target="_top">
<polygon fill="#edf0f7" stroke="#404040" stroke-width="2" points="8,-8 8,-483 304,-483 304,-8 8,-8"/>
</a>
</g>
</g>
<!-- dir_d44c64559bbebec7f509842c48db8b23 -->
<g id="node1" class="node">
<title>dir_d44c64559bbebec7f509842c48db8b23</title>
<text text-anchor="middle" x="128" y="-463" font-family="Helvetica,sans-Serif" font-size="10.00">include</text>
</g>
<!-- dir_0905a5bd6d6fe3014f1bc7b1fd731555 -->
<g id="node2" class="node">
<title>dir_0905a5bd6d6fe3014f1bc7b1fd731555</title>
<g id="a_node2"><a xlink:href="dir_0905a5bd6d6fe3014f1bc7b1fd731555.html" target="_top" xlink:title="application">
<polygon fill="#a2b4d6" stroke="#404040" points="163.5,-420 92.5,-420 92.5,-401 163.5,-401 163.5,-420"/>
<text text-anchor="middle" x="128" y="-408" font-family="Helvetica,sans-Serif" font-size="10.00">application</text>
</a>
</g>
</g>
<!-- dir_d44c64559bbebec7f509842c48db8b23&#45;&gt;dir_0905a5bd6d6fe3014f1bc7b1fd731555 -->
<g id="edge1" class="edge">
<title>dir_d44c64559bbebec7f509842c48db8b23&#45;&gt;dir_0905a5bd6d6fe3014f1bc7b1fd731555</title>
<g id="a_edge1"><a xlink:href="dir_000010_000000.html" target="_top">
<path fill="none" stroke="#63b8ff" d="M128,-455.75C128,-448.8 128,-438.85 128,-430.13"/>
<polygon fill="#63b8ff" stroke="#63b8ff" points="131.5,-430.09 128,-420.09 124.5,-430.09 131.5,-430.09"/>
</a>
</g>
<g id="a_edge1&#45;headlabel"><a xlink:href="dir_000010_000000.html" target="_top" xlink:title="9">
<text text-anchor="middle" x="134.34" y="-431.18" font-family="Helvetica,sans-Serif" font-size="10.00" fill="#63b8ff">9</text>
</a>
</g>
</g>
<!-- dir_9b3e4941ecb329a8e4b2e76d4d49b51d -->
<g id="node8" class="node">
<title>dir_9b3e4941ecb329a8e4b2e76d4d49b51d</title>
<g id="a_node8"><a xlink:href="dir_9b3e4941ecb329a8e4b2e76d4d49b51d.html" target="_top" xlink:title="user_interface">
<polygon fill="#a2b4d6" stroke="#404040" points="233,-365 147,-365 147,-346 233,-346 233,-365"/>
<text text-anchor="middle" x="190" y="-353" font-family="Helvetica,sans-Serif" font-size="10.00">user_interface</text>
</a>
</g>
</g>
<!-- dir_d44c64559bbebec7f509842c48db8b23&#45;&gt;dir_9b3e4941ecb329a8e4b2e76d4d49b51d -->
<g id="edge3" class="edge">
<title>dir_d44c64559bbebec7f509842c48db8b23&#45;&gt;dir_9b3e4941ecb329a8e4b2e76d4d49b51d</title>
<g id="a_edge3"><a xlink:href="dir_000010_000018.html" target="_top">
<path fill="none" stroke="#63b8ff" d="M139.69,-455.9C149.94,-447.76 164.5,-434.63 173,-420 180.98,-406.26 185.31,-388.69 187.6,-375.51"/>
<polygon fill="#63b8ff" stroke="#63b8ff" points="191.11,-375.68 189.12,-365.27 184.19,-374.65 191.11,-375.68"/>
</a>
</g>
<g id="a_edge3&#45;headlabel"><a xlink:href="dir_000010_000018.html" target="_top" xlink:title="15">
<text text-anchor="middle" x="193.39" y="-377.15" font-family="Helvetica,sans-Serif" font-size="10.00" fill="#63b8ff">15</text>
</a>
</g>
</g>
<!-- dir_8d7e0b28499b72c842cf2c1318866710 -->
<g id="node9" class="node">
<title>dir_8d7e0b28499b72c842cf2c1318866710</title>
<g id="a_node9"><a xlink:href="dir_8d7e0b28499b72c842cf2c1318866710.html" target="_top" xlink:title="visualization">
<polygon fill="#a2b4d6" stroke="#404040" points="114.5,-310 35.5,-310 35.5,-291 114.5,-291 114.5,-310"/>
<text text-anchor="middle" x="75" y="-298" font-family="Helvetica,sans-Serif" font-size="10.00">visualization</text>
</a>
</g>
</g>
<!-- dir_d44c64559bbebec7f509842c48db8b23&#45;&gt;dir_8d7e0b28499b72c842cf2c1318866710 -->
<g id="edge2" class="edge">
<title>dir_d44c64559bbebec7f509842c48db8b23&#45;&gt;dir_8d7e0b28499b72c842cf2c1318866710</title>
<g id="a_edge2"><a xlink:href="dir_000010_000020.html" target="_top">
<path fill="none" stroke="#63b8ff" d="M115.51,-455.87C105.08,-447.9 90.85,-435.03 84,-420 69.07,-387.26 70.31,-344.14 72.61,-319.97"/>
<polygon fill="#63b8ff" stroke="#63b8ff" points="76.09,-320.36 73.72,-310.03 69.13,-319.58 76.09,-320.36"/>
</a>
</g>
<g id="a_edge2&#45;headlabel"><a xlink:href="dir_000010_000020.html" target="_top" xlink:title="6">
<text text-anchor="middle" x="78.51" y="-321.75" font-family="Helvetica,sans-Serif" font-size="10.00" fill="#63b8ff">6</text>
</a>
</g>
</g>
<!-- dir_06ec884a0825782b323e4577406ae7aa -->
<g id="node5" class="node">
<title>dir_06ec884a0825782b323e4577406ae7aa</title>
<g id="a_node5"><a xlink:href="dir_06ec884a0825782b323e4577406ae7aa.html" target="_top" xlink:title="exceptions">
<polygon fill="#a2b4d6" stroke="#404040" points="92,-35 22,-35 22,-16 92,-16 92,-35"/>
<text text-anchor="middle" x="57" y="-23" font-family="Helvetica,sans-Serif" font-size="10.00">exceptions</text>
</a>
</g>
</g>
<!-- dir_0905a5bd6d6fe3014f1bc7b1fd731555&#45;&gt;dir_06ec884a0825782b323e4577406ae7aa -->
<g id="edge4" class="edge">
<title>dir_0905a5bd6d6fe3014f1bc7b1fd731555&#45;&gt;dir_06ec884a0825782b323e4577406ae7aa</title>
<g id="a_edge4"><a xlink:href="dir_000000_000006.html" target="_top">
<path fill="none" stroke="#63b8ff" d="M114.88,-400.88C92.7,-385.53 48.14,-351.16 27,-310 13.95,-284.59 17,-275.07 17,-246.5 17,-246.5 17,-246.5 17,-134.5 17,-100.67 34.47,-64.38 46.32,-43.66"/>
<polygon fill="#63b8ff" stroke="#63b8ff" points="49.34,-45.44 51.44,-35.06 43.32,-41.86 49.34,-45.44"/>
</a>
</g>
<g id="a_edge4&#45;headlabel"><a xlink:href="dir_000000_000006.html" target="_top" xlink:title="1">
<text text-anchor="middle" x="49.94" y="-47.48" font-family="Helvetica,sans-Serif" font-size="10.00" fill="#63b8ff">1</text>
</a>
</g>
</g>
<!-- dir_5b4f22f4782ab9e132490b62f43f6146 -->
<g id="node6" class="node">
<title>dir_5b4f22f4782ab9e132490b62f43f6146</title>
<g id="a_node6"><a xlink:href="dir_5b4f22f4782ab9e132490b62f43f6146.html" target="_top" xlink:title="simulation">
<polygon fill="#a2b4d6" stroke="#404040" points="167,-255 99,-255 99,-236 167,-236 167,-255"/>
<text text-anchor="middle" x="133" y="-243" font-family="Helvetica,sans-Serif" font-size="10.00">simulation</text>
</a>
</g>
</g>
<!-- dir_0905a5bd6d6fe3014f1bc7b1fd731555&#45;&gt;dir_5b4f22f4782ab9e132490b62f43f6146 -->
<g id="edge5" class="edge">
<title>dir_0905a5bd6d6fe3014f1bc7b1fd731555&#45;&gt;dir_5b4f22f4782ab9e132490b62f43f6146</title>
<g id="a_edge5"><a xlink:href="dir_000000_000013.html" target="_top">
<path fill="none" stroke="#63b8ff" d="M128.27,-400.74C129.05,-375.31 131.33,-301.08 132.41,-265.69"/>
<polygon fill="#63b8ff" stroke="#63b8ff" points="135.92,-265.41 132.73,-255.31 128.92,-265.19 135.92,-265.41"/>
</a>
</g>
<g id="a_edge5&#45;headlabel"><a xlink:href="dir_000000_000013.html" target="_top" xlink:title="1">
<text text-anchor="middle" x="138.65" y="-266.59" font-family="Helvetica,sans-Serif" font-size="10.00" fill="#63b8ff">1</text>
</a>
</g>
</g>
<!-- dir_0905a5bd6d6fe3014f1bc7b1fd731555&#45;&gt;dir_9b3e4941ecb329a8e4b2e76d4d49b51d -->
<g id="edge7" class="edge">
<title>dir_0905a5bd6d6fe3014f1bc7b1fd731555&#45;&gt;dir_9b3e4941ecb329a8e4b2e76d4d49b51d</title>
<g id="a_edge7"><a xlink:href="dir_000000_000018.html" target="_top">
<path fill="none" stroke="#63b8ff" d="M133.07,-400.75C140.74,-392.72 154.51,-380.67 166.72,-371.18"/>
<polygon fill="#63b8ff" stroke="#63b8ff" points="168.93,-373.89 174.82,-365.09 164.72,-368.3 168.93,-373.89"/>
</a>
</g>
<g id="a_edge7&#45;headlabel"><a xlink:href="dir_000000_000018.html" target="_top" xlink:title="3">
<text text-anchor="middle" x="167.76" y="-375.82" font-family="Helvetica,sans-Serif" font-size="10.00" fill="#63b8ff">3</text>
</a>
</g>
</g>
<!-- dir_0905a5bd6d6fe3014f1bc7b1fd731555&#45;&gt;dir_8d7e0b28499b72c842cf2c1318866710 -->
<g id="edge6" class="edge">
<title>dir_0905a5bd6d6fe3014f1bc7b1fd731555&#45;&gt;dir_8d7e0b28499b72c842cf2c1318866710</title>
<g id="a_edge6"><a xlink:href="dir_000000_000020.html" target="_top">
<path fill="none" stroke="#63b8ff" d="M123.66,-400.66C114.96,-382.93 95.23,-342.73 83.74,-319.32"/>
<polygon fill="#63b8ff" stroke="#63b8ff" points="86.8,-317.59 79.25,-310.16 80.51,-320.68 86.8,-317.59"/>
</a>
</g>
<g id="a_edge6&#45;headlabel"><a xlink:href="dir_000000_000020.html" target="_top" xlink:title="1">
<text text-anchor="middle" x="90.93" y="-317.07" font-family="Helvetica,sans-Serif" font-size="10.00" fill="#63b8ff">1</text>
</a>
</g>
</g>
<!-- dir_f576050f07e2bc15a7f050f73a80137e -->
<g id="node3" class="node">
<title>dir_f576050f07e2bc15a7f050f73a80137e</title>
<g id="a_node3"><a xlink:href="dir_f576050f07e2bc15a7f050f73a80137e.html" target="_top" xlink:title="element_parameters">
<polygon fill="#a2b4d6" stroke="#404040" points="255.5,-145 136.5,-145 136.5,-126 255.5,-126 255.5,-145"/>
<text text-anchor="middle" x="196" y="-133" font-family="Helvetica,sans-Serif" font-size="10.00">element_parameters</text>
</a>
</g>
</g>
<!-- dir_5cf46d5786cc9ec242e3a7a980f190c8 -->
<g id="node4" class="node">
<title>dir_5cf46d5786cc9ec242e3a7a980f190c8</title>
<g id="a_node4"><a xlink:href="dir_5cf46d5786cc9ec242e3a7a980f190c8.html" target="_top" xlink:title="elements">
<polygon fill="#a2b4d6" stroke="#404040" points="221,-200 159,-200 159,-181 221,-181 221,-200"/>
<text text-anchor="middle" x="190" y="-188" font-family="Helvetica,sans-Serif" font-size="10.00">elements</text>
</a>
</g>
</g>
<!-- dir_f576050f07e2bc15a7f050f73a80137e&#45;&gt;dir_5cf46d5786cc9ec242e3a7a980f190c8 -->
<g id="edge8" class="edge">
<title>dir_f576050f07e2bc15a7f050f73a80137e&#45;&gt;dir_5cf46d5786cc9ec242e3a7a980f190c8</title>
<g id="a_edge8"><a xlink:href="dir_000002_000004.html" target="_top">
<path fill="none" stroke="#63b8ff" d="M200.16,-145.09C200.9,-152.06 200.2,-162.15 198.57,-170.95"/>
<polygon fill="#63b8ff" stroke="#63b8ff" points="195.15,-170.2 196.16,-180.75 201.95,-171.88 195.15,-170.2"/>
</a>
</g>
<g id="a_edge8&#45;headlabel"><a xlink:href="dir_000002_000004.html" target="_top" xlink:title="1">
<text text-anchor="middle" x="193.26" y="-163.53" font-family="Helvetica,sans-Serif" font-size="10.00" fill="#63b8ff">1</text>
</a>
</g>
</g>
<!-- dir_db22b1395f615d1428e10e22469fe87b -->
<g id="node7" class="node">
<title>dir_db22b1395f615d1428e10e22469fe87b</title>
<g id="a_node7"><a xlink:href="dir_db22b1395f615d1428e10e22469fe87b.html" target="_top" xlink:title="tools">
<polygon fill="#a2b4d6" stroke="#404040" points="127.5,-90 86.5,-90 86.5,-71 127.5,-71 127.5,-90"/>
<text text-anchor="middle" x="107" y="-78" font-family="Helvetica,sans-Serif" font-size="10.00">tools</text>
</a>
</g>
</g>
<!-- dir_f576050f07e2bc15a7f050f73a80137e&#45;&gt;dir_db22b1395f615d1428e10e22469fe87b -->
<g id="edge9" class="edge">
<title>dir_f576050f07e2bc15a7f050f73a80137e&#45;&gt;dir_db22b1395f615d1428e10e22469fe87b</title>
<g id="a_edge9"><a xlink:href="dir_000002_000016.html" target="_top">
<path fill="none" stroke="#63b8ff" d="M181.7,-125.98C167.9,-117.77 146.76,-105.18 130.49,-95.49"/>
<polygon fill="#63b8ff" stroke="#63b8ff" points="131.94,-92.28 121.56,-90.17 128.36,-98.29 131.94,-92.28"/>
</a>
</g>
<g id="a_edge9&#45;headlabel"><a xlink:href="dir_000002_000016.html" target="_top" xlink:title="1">
<text text-anchor="middle" x="136.48" y="-89.18" font-family="Helvetica,sans-Serif" font-size="10.00" fill="#63b8ff">1</text>
</a>
</g>
</g>
<!-- dir_5cf46d5786cc9ec242e3a7a980f190c8&#45;&gt;dir_f576050f07e2bc15a7f050f73a80137e -->
<g id="edge13" class="edge">
<title>dir_5cf46d5786cc9ec242e3a7a980f190c8&#45;&gt;dir_f576050f07e2bc15a7f050f73a80137e</title>
<g id="a_edge13"><a xlink:href="dir_000004_000002.html" target="_top">
<path fill="none" stroke="#63b8ff" d="M185.82,-180.75C185.11,-173.72 185.82,-163.62 187.47,-154.84"/>
<polygon fill="#63b8ff" stroke="#63b8ff" points="190.87,-155.64 189.9,-145.09 184.08,-153.95 190.87,-155.64"/>
</a>
</g>
<g id="a_edge13&#45;headlabel"><a xlink:href="dir_000004_000002.html" target="_top" xlink:title="1">
<text text-anchor="middle" x="192.76" y="-157.31" font-family="Helvetica,sans-Serif" font-size="10.00" fill="#63b8ff">1</text>
</a>
</g>
</g>
<!-- dir_5cf46d5786cc9ec242e3a7a980f190c8&#45;&gt;dir_06ec884a0825782b323e4577406ae7aa -->
<g id="edge10" class="edge">
<title>dir_5cf46d5786cc9ec242e3a7a980f190c8&#45;&gt;dir_06ec884a0825782b323e4577406ae7aa</title>
<g id="a_edge10"><a xlink:href="dir_000004_000006.html" target="_top">
<path fill="none" stroke="#63b8ff" d="M215.42,-180.94C242.76,-170.25 280.37,-150.39 265,-126 229.36,-69.44 151.71,-44.33 102.02,-33.71"/>
<polygon fill="#63b8ff" stroke="#63b8ff" points="102.67,-30.27 92.17,-31.71 101.28,-37.13 102.67,-30.27"/>
</a>
</g>
<g id="a_edge10&#45;headlabel"><a xlink:href="dir_000004_000006.html" target="_top" xlink:title="1">
<text text-anchor="middle" x="106.76" y="-25.7" font-family="Helvetica,sans-Serif" font-size="10.00" fill="#63b8ff">1</text>
</a>
</g>
</g>
<!-- dir_5cf46d5786cc9ec242e3a7a980f190c8&#45;&gt;dir_5b4f22f4782ab9e132490b62f43f6146 -->
<g id="edge11" class="edge">
<title>dir_5cf46d5786cc9ec242e3a7a980f190c8&#45;&gt;dir_5b4f22f4782ab9e132490b62f43f6146</title>
<g id="a_edge11"><a xlink:href="dir_000004_000013.html" target="_top">
<path fill="none" stroke="#63b8ff" d="M185.82,-200.17C178.99,-208.13 166.44,-220.11 155.16,-229.6"/>
<polygon fill="#63b8ff" stroke="#63b8ff" points="152.85,-226.97 147.27,-235.98 157.25,-232.42 152.85,-226.97"/>
</a>
</g>
<g id="a_edge11&#45;headlabel"><a xlink:href="dir_000004_000013.html" target="_top" xlink:title="2">
<text text-anchor="middle" x="153.85" y="-220.01" font-family="Helvetica,sans-Serif" font-size="10.00" fill="#63b8ff">2</text>
</a>
</g>
</g>
<!-- dir_5cf46d5786cc9ec242e3a7a980f190c8&#45;&gt;dir_db22b1395f615d1428e10e22469fe87b -->
<g id="edge12" class="edge">
<title>dir_5cf46d5786cc9ec242e3a7a980f190c8&#45;&gt;dir_db22b1395f615d1428e10e22469fe87b</title>
<g id="a_edge12"><a xlink:href="dir_000004_000016.html" target="_top">
<path fill="none" stroke="#63b8ff" d="M172.41,-180.86C158.52,-173.2 139.61,-160.8 128,-145 118.22,-131.7 112.83,-113.58 109.96,-100.1"/>
<polygon fill="#63b8ff" stroke="#63b8ff" points="113.37,-99.28 108.11,-90.08 106.49,-100.55 113.37,-99.28"/>
</a>
</g>
<g id="a_edge12&#45;headlabel"><a xlink:href="dir_000004_000016.html" target="_top" xlink:title="23">
<text text-anchor="middle" x="116.82" y="-99.8" font-family="Helvetica,sans-Serif" font-size="10.00" fill="#63b8ff">23</text>
</a>
</g>
</g>
<!-- dir_5b4f22f4782ab9e132490b62f43f6146&#45;&gt;dir_5cf46d5786cc9ec242e3a7a980f190c8 -->
<g id="edge15" class="edge">
<title>dir_5b4f22f4782ab9e132490b62f43f6146&#45;&gt;dir_5cf46d5786cc9ec242e3a7a980f190c8</title>
<g id="a_edge15"><a xlink:href="dir_000013_000004.html" target="_top">
<path fill="none" stroke="#63b8ff" d="M137.25,-235.75C144.09,-227.8 156.55,-215.91 167.78,-206.45"/>
<polygon fill="#63b8ff" stroke="#63b8ff" points="170.06,-209.1 175.63,-200.09 165.66,-203.66 170.06,-209.1"/>
</a>
</g>
<g id="a_edge15&#45;headlabel"><a xlink:href="dir_000013_000004.html" target="_top" xlink:title="25">
<text text-anchor="middle" x="169.06" y="-211.07" font-family="Helvetica,sans-Serif" font-size="10.00" fill="#63b8ff">25</text>
</a>
</g>
</g>
<!-- dir_5b4f22f4782ab9e132490b62f43f6146&#45;&gt;dir_06ec884a0825782b323e4577406ae7aa -->
<g id="edge14" class="edge">
<title>dir_5b4f22f4782ab9e132490b62f43f6146&#45;&gt;dir_06ec884a0825782b323e4577406ae7aa</title>
<g id="a_edge14"><a xlink:href="dir_000013_000006.html" target="_top">
<path fill="none" stroke="#63b8ff" d="M129.66,-236C126.17,-227.07 120.58,-212.59 116,-200 95.58,-143.83 73.36,-76.67 62.97,-44.9"/>
<polygon fill="#63b8ff" stroke="#63b8ff" points="66.24,-43.63 59.82,-35.21 59.59,-45.8 66.24,-43.63"/>
</a>
</g>
<g id="a_edge14&#45;headlabel"><a xlink:href="dir_000013_000006.html" target="_top" xlink:title="1">
<text text-anchor="middle" x="70.06" y="-43.67" font-family="Helvetica,sans-Serif" font-size="10.00" fill="#63b8ff">1</text>
</a>
</g>
</g>
<!-- dir_5b4f22f4782ab9e132490b62f43f6146&#45;&gt;dir_db22b1395f615d1428e10e22469fe87b -->
<g id="edge16" class="edge">
<title>dir_5b4f22f4782ab9e132490b62f43f6146&#45;&gt;dir_db22b1395f615d1428e10e22469fe87b</title>
<g id="a_edge16"><a xlink:href="dir_000013_000016.html" target="_top">
<path fill="none" stroke="#63b8ff" d="M131.09,-235.76C127.37,-218.48 119.07,-178.74 114,-145 111.75,-130.05 109.91,-113.02 108.69,-100.37"/>
<polygon fill="#63b8ff" stroke="#63b8ff" points="112.15,-99.79 107.74,-90.16 105.18,-100.44 112.15,-99.79"/>
</a>
</g>
<g id="a_edge16&#45;headlabel"><a xlink:href="dir_000013_000016.html" target="_top" xlink:title="2">
<text text-anchor="middle" x="115.31" y="-100.6" font-family="Helvetica,sans-Serif" font-size="10.00" fill="#63b8ff">2</text>
</a>
</g>
</g>
<!-- dir_db22b1395f615d1428e10e22469fe87b&#45;&gt;dir_06ec884a0825782b323e4577406ae7aa -->
<g id="edge17" class="edge">
<title>dir_db22b1395f615d1428e10e22469fe87b&#45;&gt;dir_06ec884a0825782b323e4577406ae7aa</title>
<g id="a_edge17"><a xlink:href="dir_000016_000006.html" target="_top">
<path fill="none" stroke="#63b8ff" d="M98.74,-70.75C91.54,-63.11 80.89,-51.82 72.15,-42.56"/>
<polygon fill="#63b8ff" stroke="#63b8ff" points="74.51,-39.96 65.1,-35.09 69.42,-44.76 74.51,-39.96"/>
</a>
</g>
<g id="a_edge17&#45;headlabel"><a xlink:href="dir_000016_000006.html" target="_top" xlink:title="1">
<text text-anchor="middle" x="79.04" y="-38.13" font-family="Helvetica,sans-Serif" font-size="10.00" fill="#63b8ff">1</text>
</a>
</g>
</g>
<!-- dir_9b3e4941ecb329a8e4b2e76d4d49b51d&#45;&gt;dir_0905a5bd6d6fe3014f1bc7b1fd731555 -->
<g id="edge18" class="edge">
<title>dir_9b3e4941ecb329a8e4b2e76d4d49b51d&#45;&gt;dir_0905a5bd6d6fe3014f1bc7b1fd731555</title>
<g id="a_edge18"><a xlink:href="dir_000018_000000.html" target="_top">
<path fill="none" stroke="#63b8ff" d="M185.01,-365.17C177.34,-373.21 163.48,-385.34 151.21,-394.88"/>
<polygon fill="#63b8ff" stroke="#63b8ff" points="148.97,-392.18 143.08,-400.98 153.18,-397.78 148.97,-392.18"/>
</a>
</g>
<g id="a_edge18&#45;headlabel"><a xlink:href="dir_000018_000000.html" target="_top" xlink:title="7">
<text text-anchor="middle" x="150.14" y="-385.25" font-family="Helvetica,sans-Serif" font-size="10.00" fill="#63b8ff">7</text>
</a>
</g>
</g>
<!-- dir_9b3e4941ecb329a8e4b2e76d4d49b51d&#45;&gt;dir_5cf46d5786cc9ec242e3a7a980f190c8 -->
<g id="edge20" class="edge">
<title>dir_9b3e4941ecb329a8e4b2e76d4d49b51d&#45;&gt;dir_5cf46d5786cc9ec242e3a7a980f190c8</title>
<g id="a_edge20"><a xlink:href="dir_000018_000004.html" target="_top">
<path fill="none" stroke="#63b8ff" d="M190,-345.74C190,-320.31 190,-246.08 190,-210.69"/>
<polygon fill="#63b8ff" stroke="#63b8ff" points="193.5,-210.31 190,-200.31 186.5,-210.31 193.5,-210.31"/>
</a>
</g>
<g id="a_edge20&#45;headlabel"><a xlink:href="dir_000018_000004.html" target="_top" xlink:title="49">
<text text-anchor="middle" x="196.34" y="-211.4" font-family="Helvetica,sans-Serif" font-size="10.00" fill="#63b8ff">49</text>
</a>
</g>
</g>
<!-- dir_9b3e4941ecb329a8e4b2e76d4d49b51d&#45;&gt;dir_5b4f22f4782ab9e132490b62f43f6146 -->
<g id="edge19" class="edge">
<title>dir_9b3e4941ecb329a8e4b2e76d4d49b51d&#45;&gt;dir_5b4f22f4782ab9e132490b62f43f6146</title>
<g id="a_edge19"><a xlink:href="dir_000018_000013.html" target="_top">
<path fill="none" stroke="#63b8ff" d="M185.34,-345.66C175.94,-327.85 154.57,-287.37 142.24,-264.01"/>
<polygon fill="#63b8ff" stroke="#63b8ff" points="145.33,-262.37 137.57,-255.16 139.14,-265.64 145.33,-262.37"/>
</a>
</g>
<g id="a_edge19&#45;headlabel"><a xlink:href="dir_000018_000013.html" target="_top" xlink:title="6">
<text text-anchor="middle" x="149.52" y="-261.72" font-family="Helvetica,sans-Serif" font-size="10.00" fill="#63b8ff">6</text>
</a>
</g>
</g>
<!-- dir_9b3e4941ecb329a8e4b2e76d4d49b51d&#45;&gt;dir_db22b1395f615d1428e10e22469fe87b -->
<g id="edge22" class="edge">
<title>dir_9b3e4941ecb329a8e4b2e76d4d49b51d&#45;&gt;dir_db22b1395f615d1428e10e22469fe87b</title>
<g id="a_edge22"><a xlink:href="dir_000018_000016.html" target="_top">
<path fill="none" stroke="#63b8ff" d="M203.66,-345.96C227.68,-329.76 275,-292.07 275,-246.5 275,-246.5 275,-246.5 275,-189.5 275,-160.93 283.97,-147.36 265,-126 232.93,-89.89 174.08,-82.09 137.96,-80.94"/>
<polygon fill="#63b8ff" stroke="#63b8ff" points="137.59,-77.43 127.53,-80.77 137.48,-84.43 137.59,-77.43"/>
</a>
</g>
<g id="a_edge22&#45;headlabel"><a xlink:href="dir_000018_000016.html" target="_top" xlink:title="2">
<text text-anchor="middle" x="141.23" y="-72.15" font-family="Helvetica,sans-Serif" font-size="10.00" fill="#63b8ff">2</text>
</a>
</g>
</g>
<!-- dir_9b3e4941ecb329a8e4b2e76d4d49b51d&#45;&gt;dir_8d7e0b28499b72c842cf2c1318866710 -->
<g id="edge21" class="edge">
<title>dir_9b3e4941ecb329a8e4b2e76d4d49b51d&#45;&gt;dir_8d7e0b28499b72c842cf2c1318866710</title>
<g id="a_edge21"><a xlink:href="dir_000018_000020.html" target="_top">
<path fill="none" stroke="#63b8ff" d="M171.52,-345.98C153.02,-337.46 124.32,-324.23 103.02,-314.41"/>
<polygon fill="#63b8ff" stroke="#63b8ff" points="104.36,-311.18 93.81,-310.17 101.43,-317.53 104.36,-311.18"/>
</a>
</g>
<g id="a_edge21&#45;headlabel"><a xlink:href="dir_000018_000020.html" target="_top" xlink:title="3">
<text text-anchor="middle" x="108.81" y="-307.6" font-family="Helvetica,sans-Serif" font-size="10.00" fill="#63b8ff">3</text>
</a>
</g>
</g>
<!-- dir_8d7e0b28499b72c842cf2c1318866710&#45;&gt;dir_06ec884a0825782b323e4577406ae7aa -->
<g id="edge23" class="edge">
<title>dir_8d7e0b28499b72c842cf2c1318866710&#45;&gt;dir_06ec884a0825782b323e4577406ae7aa</title>
<g id="a_edge23"><a xlink:href="dir_000020_000006.html" target="_top">
<path fill="none" stroke="#63b8ff" d="M69.72,-290.9C59.27,-273.07 37,-230.46 37,-191.5 37,-191.5 37,-191.5 37,-134.5 37,-102.51 45.59,-66.07 51.51,-44.75"/>
<polygon fill="#63b8ff" stroke="#63b8ff" points="54.89,-45.66 54.3,-35.08 48.16,-43.71 54.89,-45.66"/>
</a>
</g>
<g id="a_edge23&#45;headlabel"><a xlink:href="dir_000020_000006.html" target="_top" xlink:title="1">
<text text-anchor="middle" x="56.62" y="-47.4" font-family="Helvetica,sans-Serif" font-size="10.00" fill="#63b8ff">1</text>
</a>
</g>
</g>
<!-- dir_8d7e0b28499b72c842cf2c1318866710&#45;&gt;dir_5b4f22f4782ab9e132490b62f43f6146 -->
<g id="edge24" class="edge">
<title>dir_8d7e0b28499b72c842cf2c1318866710&#45;&gt;dir_5b4f22f4782ab9e132490b62f43f6146</title>
<g id="a_edge24"><a xlink:href="dir_000020_000013.html" target="_top">
<path fill="none" stroke="#63b8ff" d="M84.32,-290.98C92.81,-283.23 105.56,-271.58 115.88,-262.14"/>
<polygon fill="#63b8ff" stroke="#63b8ff" points="118.49,-264.5 123.51,-255.17 113.77,-259.33 118.49,-264.5"/>
</a>
</g>
<g id="a_edge24&#45;headlabel"><a xlink:href="dir_000020_000013.html" target="_top" xlink:title="1">
<text text-anchor="middle" x="117.75" y="-266.52" font-family="Helvetica,sans-Serif" font-size="10.00" fill="#63b8ff">1</text>
</a>
</g>
</g>
<!-- dir_8d7e0b28499b72c842cf2c1318866710&#45;&gt;dir_db22b1395f615d1428e10e22469fe87b -->
<g id="edge25" class="edge">
<title>dir_8d7e0b28499b72c842cf2c1318866710&#45;&gt;dir_db22b1395f615d1428e10e22469fe87b</title>
<g id="a_edge25"><a xlink:href="dir_000020_000016.html" target="_top">
<path fill="none" stroke="#63b8ff" d="M76.25,-290.95C80.95,-258.95 97.58,-145.68 104.23,-100.4"/>
<polygon fill="#63b8ff" stroke="#63b8ff" points="107.73,-100.63 105.72,-90.22 100.8,-99.61 107.73,-100.63"/>
</a>
</g>
<g id="a_edge25&#45;headlabel"><a xlink:href="dir_000020_000016.html" target="_top" xlink:title="2">
<text text-anchor="middle" x="110.02" y="-102.09" font-family="Helvetica,sans-Serif" font-size="10.00" fill="#63b8ff">2</text>
</a>
</g>
</g>
</g>
</svg>
