<?xml version="1.0" encoding="UTF-8" standalone="no"?>
<!DOCTYPE svg PUBLIC "-//W3C//DTD SVG 1.1//EN"
 "http://www.w3.org/Graphics/SVG/1.1/DTD/svg11.dtd">
<!-- Generated by graphviz version 2.43.0 (0)
 -->
<!-- Title: main Pages: 1 -->
<svg width="231pt" height="134pt"
 viewBox="0.00 0.00 231.00 134.00" xmlns="http://www.w3.org/2000/svg" xmlns:xlink="http://www.w3.org/1999/xlink">
<g id="graph0" class="graph" transform="scale(1 1) rotate(0) translate(4 130)">
<title>main</title>
<!-- Node1 -->
<g id="Node000001" class="node">
<title>Node1</title>
<g id="a_Node000001"><a xlink:title=" ">
<polygon fill="#999999" stroke="#666666" points="41,-72.5 0,-72.5 0,-53.5 41,-53.5 41,-72.5"/>
<text text-anchor="middle" x="20.5" y="-60.5" font-family="Helvetica,sans-Serif" font-size="10.00">main</text>
</a>
</g>
</g>
<!-- Node2 -->
<g id="Node000002" class="node">
<title>Node2</title>
<g id="a_Node000002"><a xlink:href="classdnf__composer_1_1Application.html#a481da8b1fe6014d57f91fc3f575a913d" target="_top" xlink:title="Register a window that needs no Simulation or Visualization pointer.">
<polygon fill="white" stroke="#666666" points="223,-126 77,-126 77,-96 223,-96 223,-126"/>
<text text-anchor="start" x="85" y="-114" font-family="Helvetica,sans-Serif" font-size="10.00">dnf_composer::Application</text>
<text text-anchor="middle" x="150" y="-103" font-family="Helvetica,sans-Serif" font-size="10.00">::addWindow</text>
</a>
</g>
</g>
<!-- Node1&#45;&gt;Node2 -->
<g id="edge1_Node000001_Node000002" class="edge">
<title>Node1&#45;&gt;Node2</title>
<g id="a_edge1_Node000001_Node000002"><a xlink:title=" ">
<path fill="none" stroke="#63b8ff" d="M41.11,-71.97C51.65,-76.67 64.94,-82.39 77,-87 82,-88.91 87.23,-90.82 92.48,-92.68"/>
<polygon fill="#63b8ff" stroke="#63b8ff" points="91.33,-95.98 101.93,-95.96 93.63,-89.37 91.33,-95.98"/>
</a>
</g>
</g>
<!-- Node3 -->
<g id="Node000003" class="node">
<title>Node3</title>
<g id="a_Node000003"><a xlink:href="classdnf__composer_1_1Exception.html#ada00840f6f256ff40e20bfcd50a79454" target="_top" xlink:title=" ">
<polygon fill="white" stroke="#666666" points="220,-78 80,-78 80,-48 220,-48 220,-78"/>
<text text-anchor="start" x="88" y="-66" font-family="Helvetica,sans-Serif" font-size="10.00">dnf_composer::Exception</text>
<text text-anchor="middle" x="150" y="-55" font-family="Helvetica,sans-Serif" font-size="10.00">::getErrorCode</text>
</a>
</g>
</g>
<!-- Node1&#45;&gt;Node3 -->
<g id="edge2_Node000001_Node000003" class="edge">
<title>Node1&#45;&gt;Node3</title>
<g id="a_edge2_Node000001_Node000003"><a xlink:title=" ">
<path fill="none" stroke="#63b8ff" d="M41.14,-63C49.19,-63 59.07,-63 69.56,-63"/>
<polygon fill="#63b8ff" stroke="#63b8ff" points="69.76,-66.5 79.76,-63 69.76,-59.5 69.76,-66.5"/>
</a>
</g>
</g>
<!-- Node4 -->
<g id="Node000004" class="node">
<title>Node4</title>
<g id="a_Node000004"><a xlink:href="classdnf__composer_1_1Exception.html#a52961c9cc2656b73d7767f5a3840a4b5" target="_top" xlink:title=" ">
<polygon fill="white" stroke="#666666" points="220,-30 80,-30 80,0 220,0 220,-30"/>
<text text-anchor="start" x="88" y="-18" font-family="Helvetica,sans-Serif" font-size="10.00">dnf_composer::Exception</text>
<text text-anchor="middle" x="150" y="-7" font-family="Helvetica,sans-Serif" font-size="10.00">::what</text>
</a>
</g>
</g>
<!-- Node1&#45;&gt;Node4 -->
<g id="edge3_Node000001_Node000004" class="edge">
<title>Node1&#45;&gt;Node4</title>
<g id="a_edge3_Node000001_Node000004"><a xlink:title=" ">
<path fill="none" stroke="#63b8ff" d="M41.11,-54.03C51.65,-49.33 64.94,-43.61 77,-39 82,-37.09 87.23,-35.18 92.48,-33.32"/>
<polygon fill="#63b8ff" stroke="#63b8ff" points="93.63,-36.63 101.93,-30.04 91.33,-30.02 93.63,-36.63"/>
</a>
</g>
</g>
</g>
</svg>
