<?xml version="1.0" encoding="UTF-8" standalone="no"?>
<!DOCTYPE svg PUBLIC "-//W3C//DTD SVG 1.1//EN"
 "http://www.w3.org/Graphics/SVG/1.1/DTD/svg11.dtd">
<!-- Generated by graphviz version 2.43.0 (0)
 -->
<!-- Title: include/elements/field_coupling.h Pages: 1 -->
<svg width="1395pt" height="445pt"
 viewBox="0.00 0.00 1394.66 445.00" xmlns="http://www.w3.org/2000/svg" xmlns:xlink="http://www.w3.org/1999/xlink">
<g id="graph0" class="graph" transform="scale(1 1) rotate(0) translate(4 441)">
<title>include/elements/field_coupling.h</title>
<!-- Node1 -->
<g id="Node000001" class="node">
<title>Node1</title>
<g id="a_Node000001"><a xlink:title=" ">
<polygon fill="#999999" stroke="#666666" points="460.16,-437 335.16,-437 335.16,-407 460.16,-407 460.16,-437"/>
<text text-anchor="start" x="343.16" y="-425" font-family="Helvetica,sans-Serif" font-size="10.00">include/elements/field</text>
<text text-anchor="middle" x="397.66" y="-414" font-family="Helvetica,sans-Serif" font-size="10.00">_coupling.h</text>
</a>
</g>
</g>
<!-- Node2 -->
<g id="Node000002" class="node">
<title>Node2</title>
<g id="a_Node000002"><a xlink:title=" ">
<polygon fill="#e0e0e0" stroke="#999999" points="331.66,-371 299.66,-371 299.66,-352 331.66,-352 331.66,-371"/>
<text text-anchor="middle" x="315.66" y="-359" font-family="Helvetica,sans-Serif" font-size="10.00">set</text>
</a>
</g>
</g>
<!-- Node1&#45;&gt;Node2 -->
<g id="edge1_Node000001_Node000002" class="edge">
<title>Node1&#45;&gt;Node2</title>
<g id="a_edge1_Node000001_Node000002"><a xlink:title=" ">
<path fill="none" stroke="#63b8ff" d="M377.81,-406.84C365.18,-397.83 348.86,-386.18 336.11,-377.09"/>
<polygon fill="#63b8ff" stroke="#63b8ff" points="338.12,-374.22 327.95,-371.27 334.06,-379.92 338.12,-374.22"/>
</a>
</g>
</g>
<!-- Node3 -->
<g id="Node000003" class="node">
<title>Node3</title>
<g id="a_Node000003"><a xlink:href="math_8h.html" target="_top" xlink:title=" ">
<polygon fill="white" stroke="#666666" points="338.66,-261 260.66,-261 260.66,-242 338.66,-242 338.66,-261"/>
<text text-anchor="middle" x="299.66" y="-249" font-family="Helvetica,sans-Serif" font-size="10.00">tools/math.h</text>
</a>
</g>
</g>
<!-- Node1&#45;&gt;Node3 -->
<g id="edge2_Node000001_Node000003" class="edge">
<title>Node1&#45;&gt;Node3</title>
<g id="a_edge2_Node000001_Node000003"><a xlink:title=" ">
<path fill="none" stroke="#63b8ff" d="M389.47,-406.92C371.64,-376.26 329.31,-303.48 309.81,-269.96"/>
<polygon fill="#63b8ff" stroke="#63b8ff" points="312.81,-268.14 304.75,-261.25 306.75,-271.66 312.81,-268.14"/>
</a>
</g>
</g>
<!-- Node13 -->
<g id="Node000013" class="node">
<title>Node13</title>
<g id="a_Node000013"><a xlink:href="element_8h.html" target="_top" xlink:title=" ">
<polygon fill="white" stroke="#666666" points="859.66,-261 793.66,-261 793.66,-242 859.66,-242 859.66,-261"/>
<text text-anchor="middle" x="826.66" y="-249" font-family="Helvetica,sans-Serif" font-size="10.00">element.h</text>
</a>
</g>
</g>
<!-- Node1&#45;&gt;Node13 -->
<g id="edge13_Node000001_Node000013" class="edge">
<title>Node1&#45;&gt;Node13</title>
<g id="a_edge13_Node000001_Node000013"><a xlink:title=" ">
<path fill="none" stroke="#63b8ff" d="M460.23,-417.93C517.41,-413.22 603.23,-401.28 671.66,-371 729.49,-345.41 785.4,-294.12 811.44,-268.23"/>
<polygon fill="#63b8ff" stroke="#63b8ff" points="813.99,-270.63 818.53,-261.06 809.01,-265.71 813.99,-270.63"/>
</a>
</g>
</g>
<!-- Node25 -->
<g id="Node000025" class="node">
<title>Node25</title>
<g id="a_Node000025"><a xlink:href="utils_8h.html" target="_top" xlink:title=" ">
<polygon fill="white" stroke="#666666" points="580.16,-79.5 533.16,-79.5 533.16,-60.5 580.16,-60.5 580.16,-79.5"/>
<text text-anchor="middle" x="556.66" y="-67.5" font-family="Helvetica,sans-Serif" font-size="10.00">utils.h</text>
</a>
</g>
</g>
<!-- Node1&#45;&gt;Node25 -->
<g id="edge61_Node000001_Node000025" class="edge">
<title>Node1&#45;&gt;Node25</title>
<g id="a_edge61_Node000001_Node000025"><a xlink:title=" ">
<path fill="none" stroke="#63b8ff" d="M397.66,-406.67C397.66,-385.14 397.66,-343.17 397.66,-307.5 397.66,-307.5 397.66,-307.5 397.66,-190 397.66,-127.84 476.51,-94.22 523.15,-79.76"/>
<polygon fill="#63b8ff" stroke="#63b8ff" points="524.26,-83.08 532.86,-76.89 522.27,-76.37 524.26,-83.08"/>
</a>
</g>
</g>
<!-- Node30 -->
<g id="Node000030" class="node">
<title>Node30</title>
<g id="a_Node000030"><a xlink:href="neural__field_8h.html" target="_top" xlink:title=" ">
<polygon fill="white" stroke="#666666" points="663.16,-371 580.16,-371 580.16,-352 663.16,-352 663.16,-371"/>
<text text-anchor="middle" x="621.66" y="-359" font-family="Helvetica,sans-Serif" font-size="10.00">neural_field.h</text>
</a>
</g>
</g>
<!-- Node1&#45;&gt;Node30 -->
<g id="edge43_Node000001_Node000030" class="edge">
<title>Node1&#45;&gt;Node30</title>
<g id="a_edge43_Node000001_Node000030"><a xlink:title=" ">
<path fill="none" stroke="#63b8ff" d="M451.31,-406.99C490.47,-396.76 542.84,-383.09 579.12,-373.61"/>
<polygon fill="#63b8ff" stroke="#63b8ff" points="580.12,-376.97 588.91,-371.05 578.35,-370.19 580.12,-376.97"/>
</a>
</g>
</g>
<!-- Node3&#45;&gt;Node3 -->
<g id="edge6_Node000003_Node000003" class="edge">
<title>Node3&#45;&gt;Node3</title>
<g id="a_edge6_Node000003_Node000003"><a xlink:title=" ">
<path fill="none" stroke="#63b8ff" d="M326.34,-261.03C342,-263.06 356.66,-259.88 356.66,-251.5 356.66,-244.95 347.71,-241.58 336.33,-241.38"/>
<polygon fill="#63b8ff" stroke="#63b8ff" points="336.12,-237.89 326.34,-241.97 336.53,-244.88 336.12,-237.89"/>
</a>
</g>
</g>
<!-- Node4 -->
<g id="Node000004" class="node">
<title>Node4</title>
<g id="a_Node000004"><a xlink:title=" ">
<polygon fill="#e0e0e0" stroke="#999999" points="632.16,-19 585.16,-19 585.16,0 632.16,0 632.16,-19"/>
<text text-anchor="middle" x="608.66" y="-7" font-family="Helvetica,sans-Serif" font-size="10.00">vector</text>
</a>
</g>
</g>
<!-- Node3&#45;&gt;Node4 -->
<g id="edge3_Node000003_Node000004" class="edge">
<title>Node3&#45;&gt;Node4</title>
<g id="a_edge3_Node000003_Node000004"><a xlink:title=" ">
<path fill="none" stroke="#63b8ff" d="M300.19,-241.56C301.43,-226.84 305.49,-197.05 318.66,-176 338.73,-143.92 351.99,-141.72 383.66,-121 448.83,-78.36 532.84,-41.33 577.5,-22.91"/>
<polygon fill="#63b8ff" stroke="#63b8ff" points="579,-26.08 586.94,-19.06 576.36,-19.6 579,-26.08"/>
</a>
</g>
</g>
<!-- Node5 -->
<g id="Node000005" class="node">
<title>Node5</title>
<g id="a_Node000005"><a xlink:title=" ">
<polygon fill="#e0e0e0" stroke="#999999" points="369.66,-200.5 327.66,-200.5 327.66,-181.5 369.66,-181.5 369.66,-200.5"/>
<text text-anchor="middle" x="348.66" y="-188.5" font-family="Helvetica,sans-Serif" font-size="10.00">array</text>
</a>
</g>
</g>
<!-- Node3&#45;&gt;Node5 -->
<g id="edge4_Node000003_Node000005" class="edge">
<title>Node3&#45;&gt;Node5</title>
<g id="a_edge4_Node000003_Node000005"><a xlink:title=" ">
<path fill="none" stroke="#63b8ff" d="M306.89,-241.87C314.2,-233.14 325.68,-219.43 334.76,-208.59"/>
<polygon fill="#63b8ff" stroke="#63b8ff" points="337.66,-210.58 341.4,-200.67 332.3,-206.09 337.66,-210.58"/>
</a>
</g>
</g>
<!-- Node6 -->
<g id="Node000006" class="node">
<title>Node6</title>
<g id="a_Node000006"><a xlink:title=" ">
<polygon fill="#e0e0e0" stroke="#999999" points="72.16,-200.5 25.16,-200.5 25.16,-181.5 72.16,-181.5 72.16,-200.5"/>
<text text-anchor="middle" x="48.66" y="-188.5" font-family="Helvetica,sans-Serif" font-size="10.00">cmath</text>
</a>
</g>
</g>
<!-- Node3&#45;&gt;Node6 -->
<g id="edge5_Node000003_Node000006" class="edge">
<title>Node3&#45;&gt;Node6</title>
<g id="a_edge5_Node000003_Node000006"><a xlink:title=" ">
<path fill="none" stroke="#63b8ff" d="M260.66,-245.13C216.36,-238.45 142.25,-225.49 80.66,-206 79.03,-205.48 77.37,-204.91 75.71,-204.3"/>
<polygon fill="#63b8ff" stroke="#63b8ff" points="76.93,-201.02 66.34,-200.53 74.31,-207.51 76.93,-201.02"/>
</a>
</g>
</g>
<!-- Node7 -->
<g id="Node000007" class="node">
<title>Node7</title>
<g id="a_Node000007"><a xlink:title=" ">
<polygon fill="#e0e0e0" stroke="#999999" points="601.66,-200.5 537.66,-200.5 537.66,-181.5 601.66,-181.5 601.66,-200.5"/>
<text text-anchor="middle" x="569.66" y="-188.5" font-family="Helvetica,sans-Serif" font-size="10.00">algorithm</text>
</a>
</g>
</g>
<!-- Node3&#45;&gt;Node7 -->
<g id="edge7_Node000003_Node000007" class="edge">
<title>Node3&#45;&gt;Node7</title>
<g id="a_edge7_Node000003_Node000007"><a xlink:title=" ">
<path fill="none" stroke="#63b8ff" d="M338.92,-241.99C389.24,-231.09 476.13,-212.27 527.71,-201.09"/>
<polygon fill="#63b8ff" stroke="#63b8ff" points="528.51,-204.5 537.54,-198.96 527.02,-197.66 528.51,-204.5"/>
</a>
</g>
</g>
<!-- Node8 -->
<g id="Node000008" class="node">
<title>Node8</title>
<g id="a_Node000008"><a xlink:title=" ">
<polygon fill="#e0e0e0" stroke="#999999" points="481.66,-200.5 425.66,-200.5 425.66,-181.5 481.66,-181.5 481.66,-200.5"/>
<text text-anchor="middle" x="453.66" y="-188.5" font-family="Helvetica,sans-Serif" font-size="10.00">numeric</text>
</a>
</g>
</g>
<!-- Node3&#45;&gt;Node8 -->
<g id="edge8_Node000003_Node000008" class="edge">
<title>Node3&#45;&gt;Node8</title>
<g id="a_edge8_Node000003_Node000008"><a xlink:title=" ">
<path fill="none" stroke="#63b8ff" d="M322.05,-241.99C348.29,-232.03 391.94,-215.45 421.72,-204.13"/>
<polygon fill="#63b8ff" stroke="#63b8ff" points="423.14,-207.34 431.24,-200.52 420.65,-200.8 423.14,-207.34"/>
</a>
</g>
</g>
<!-- Node9 -->
<g id="Node000009" class="node">
<title>Node9</title>
<g id="a_Node000009"><a xlink:title=" ">
<polygon fill="#e0e0e0" stroke="#999999" points="155.16,-200.5 90.16,-200.5 90.16,-181.5 155.16,-181.5 155.16,-200.5"/>
<text text-anchor="middle" x="122.66" y="-188.5" font-family="Helvetica,sans-Serif" font-size="10.00">functional</text>
</a>
</g>
</g>
<!-- Node3&#45;&gt;Node9 -->
<g id="edge9_Node000003_Node000009" class="edge">
<title>Node3&#45;&gt;Node9</title>
<g id="a_edge9_Node000003_Node000009"><a xlink:title=" ">
<path fill="none" stroke="#63b8ff" d="M273.92,-241.99C243.38,-231.9 192.29,-215.01 158.04,-203.69"/>
<polygon fill="#63b8ff" stroke="#63b8ff" points="159.02,-200.33 148.43,-200.52 156.83,-206.98 159.02,-200.33"/>
</a>
</g>
</g>
<!-- Node10 -->
<g id="Node000010" class="node">
<title>Node10</title>
<g id="a_Node000010"><a xlink:title=" ">
<polygon fill="#e0e0e0" stroke="#999999" points="122.66,-19 68.66,-19 68.66,0 122.66,0 122.66,-19"/>
<text text-anchor="middle" x="95.66" y="-7" font-family="Helvetica,sans-Serif" font-size="10.00">random</text>
</a>
</g>
</g>
<!-- Node3&#45;&gt;Node10 -->
<g id="edge10_Node000003_Node000010" class="edge">
<title>Node3&#45;&gt;Node10</title>
<g id="a_edge10_Node000003_Node000010"><a xlink:title=" ">
<path fill="none" stroke="#63b8ff" d="M260.58,-250.36C190.23,-249.2 46.73,-242.31 15.66,-206 -31.99,-150.3 43.54,-62.4 78.94,-26.53"/>
<polygon fill="#63b8ff" stroke="#63b8ff" points="81.58,-28.85 86.22,-19.33 76.65,-23.88 81.58,-28.85"/>
</a>
</g>
</g>
<!-- Node11 -->
<g id="Node000011" class="node">
<title>Node11</title>
<g id="a_Node000011"><a xlink:title=" ">
<polygon fill="#e0e0e0" stroke="#999999" points="271.16,-200.5 212.16,-200.5 212.16,-181.5 271.16,-181.5 271.16,-200.5"/>
<text text-anchor="middle" x="241.66" y="-188.5" font-family="Helvetica,sans-Serif" font-size="10.00">numbers</text>
</a>
</g>
</g>
<!-- Node3&#45;&gt;Node11 -->
<g id="edge11_Node000003_Node000011" class="edge">
<title>Node3&#45;&gt;Node11</title>
<g id="a_edge11_Node000003_Node000011"><a xlink:title=" ">
<path fill="none" stroke="#63b8ff" d="M291.1,-241.87C282.28,-232.97 268.32,-218.89 257.48,-207.95"/>
<polygon fill="#63b8ff" stroke="#63b8ff" points="259.78,-205.3 250.25,-200.67 254.81,-210.23 259.78,-205.3"/>
</a>
</g>
</g>
<!-- Node12 -->
<g id="Node000012" class="node">
<title>Node12</title>
<g id="a_Node000012"><a xlink:title=" ">
<polygon fill="#e0e0e0" stroke="#999999" points="393.16,-19 338.16,-19 338.16,0 393.16,0 393.16,-19"/>
<text text-anchor="middle" x="365.66" y="-7" font-family="Helvetica,sans-Serif" font-size="10.00">fstream</text>
</a>
</g>
</g>
<!-- Node3&#45;&gt;Node12 -->
<g id="edge12_Node000003_Node000012" class="edge">
<title>Node3&#45;&gt;Node12</title>
<g id="a_edge12_Node000003_Node000012"><a xlink:title=" ">
<path fill="none" stroke="#63b8ff" d="M260.27,-243.08C239.34,-236.91 215.37,-225.81 202.66,-206 195.46,-194.78 198.71,-188.74 202.66,-176 221.97,-113.71 237.44,-98.91 285.66,-55 300.06,-41.89 319.01,-31.13 334.85,-23.48"/>
<polygon fill="#63b8ff" stroke="#63b8ff" points="336.65,-26.5 344.25,-19.12 333.7,-20.15 336.65,-26.5"/>
</a>
</g>
</g>
<!-- Node13&#45;&gt;Node4 -->
<g id="edge14_Node000013_Node000004" class="edge">
<title>Node13&#45;&gt;Node4</title>
<g id="a_edge14_Node000013_Node000004"><a xlink:title=" ">
<path fill="none" stroke="#63b8ff" d="M793.44,-247.65C762.41,-243.38 716.51,-232.68 686.66,-206 642.75,-166.75 653.72,-140 632.66,-85 625.47,-66.21 618.57,-44.23 614.03,-29.04"/>
<polygon fill="#63b8ff" stroke="#63b8ff" points="617.35,-27.93 611.17,-19.32 610.63,-29.9 617.35,-27.93"/>
</a>
</g>
</g>
<!-- Node13&#45;&gt;Node7 -->
<g id="edge19_Node000013_Node000007" class="edge">
<title>Node13&#45;&gt;Node7</title>
<g id="a_edge19_Node000013_Node000007"><a xlink:title=" ">
<path fill="none" stroke="#63b8ff" d="M793.59,-242.97C747.17,-232.41 662.68,-213.17 611.81,-201.59"/>
<polygon fill="#63b8ff" stroke="#63b8ff" points="612.32,-198.12 601.8,-199.32 610.77,-204.95 612.32,-198.12"/>
</a>
</g>
</g>
<!-- Node13&#45;&gt;Node8 -->
<g id="edge20_Node000013_Node000008" class="edge">
<title>Node13&#45;&gt;Node8</title>
<g id="a_edge20_Node000013_Node000008"><a xlink:title=" ">
<path fill="none" stroke="#63b8ff" d="M793.53,-245.95C738.45,-238.3 624.61,-222.11 528.66,-206 516.64,-203.98 503.57,-201.6 491.75,-199.39"/>
<polygon fill="#63b8ff" stroke="#63b8ff" points="492.23,-195.92 481.75,-197.49 490.93,-202.79 492.23,-195.92"/>
</a>
</g>
</g>
<!-- Node14 -->
<g id="Node000014" class="node">
<title>Node14</title>
<g id="a_Node000014"><a xlink:title=" ">
<polygon fill="#e0e0e0" stroke="#999999" points="1136.66,-19 1092.66,-19 1092.66,0 1136.66,0 1136.66,-19"/>
<text text-anchor="middle" x="1114.66" y="-7" font-family="Helvetica,sans-Serif" font-size="10.00">string</text>
</a>
</g>
</g>
<!-- Node13&#45;&gt;Node14 -->
<g id="edge15_Node000013_Node000014" class="edge">
<title>Node13&#45;&gt;Node14</title>
<g id="a_edge15_Node000013_Node000014"><a xlink:title=" ">
<path fill="none" stroke="#63b8ff" d="M860.06,-246.99C911.24,-241.01 1005.85,-227.37 1031.66,-206 1087.76,-159.56 1106.7,-68.41 1112.43,-29.18"/>
<polygon fill="#63b8ff" stroke="#63b8ff" points="1115.91,-29.55 1113.76,-19.18 1108.97,-28.63 1115.91,-29.55"/>
</a>
</g>
</g>
<!-- Node15 -->
<g id="Node000015" class="node">
<title>Node15</title>
<g id="a_Node000015"><a xlink:title=" ">
<polygon fill="#e0e0e0" stroke="#999999" points="938.16,-200.5 845.16,-200.5 845.16,-181.5 938.16,-181.5 938.16,-200.5"/>
<text text-anchor="middle" x="891.66" y="-188.5" font-family="Helvetica,sans-Serif" font-size="10.00">unordered_map</text>
</a>
</g>
</g>
<!-- Node13&#45;&gt;Node15 -->
<g id="edge16_Node000013_Node000015" class="edge">
<title>Node13&#45;&gt;Node15</title>
<g id="a_edge16_Node000013_Node000015"><a xlink:title=" ">
<path fill="none" stroke="#63b8ff" d="M836.25,-241.87C846.24,-232.88 862.09,-218.61 874.29,-207.64"/>
<polygon fill="#63b8ff" stroke="#63b8ff" points="876.94,-209.96 882.03,-200.67 872.26,-204.76 876.94,-209.96"/>
</a>
</g>
</g>
<!-- Node16 -->
<g id="Node000016" class="node">
<title>Node16</title>
<g id="a_Node000016"><a xlink:title=" ">
<polygon fill="#e0e0e0" stroke="#999999" points="1272.66,-200.5 1214.66,-200.5 1214.66,-181.5 1272.66,-181.5 1272.66,-200.5"/>
<text text-anchor="middle" x="1243.66" y="-188.5" font-family="Helvetica,sans-Serif" font-size="10.00">memory</text>
</a>
</g>
</g>
<!-- Node13&#45;&gt;Node16 -->
<g id="edge17_Node000013_Node000016" class="edge">
<title>Node13&#45;&gt;Node16</title>
<g id="a_edge17_Node000013_Node000016"><a xlink:title=" ">
<path fill="none" stroke="#63b8ff" d="M859.73,-245.86C935.69,-235.21 1122.35,-209.02 1204.16,-197.54"/>
<polygon fill="#63b8ff" stroke="#63b8ff" points="1205.11,-200.94 1214.53,-196.09 1204.14,-194.01 1205.11,-200.94"/>
</a>
</g>
</g>
<!-- Node17 -->
<g id="Node000017" class="node">
<title>Node17</title>
<g id="a_Node000017"><a xlink:title=" ">
<polygon fill="#e0e0e0" stroke="#999999" points="1006.66,-200.5 956.66,-200.5 956.66,-181.5 1006.66,-181.5 1006.66,-200.5"/>
<text text-anchor="middle" x="981.66" y="-188.5" font-family="Helvetica,sans-Serif" font-size="10.00">ranges</text>
</a>
</g>
</g>
<!-- Node13&#45;&gt;Node17 -->
<g id="edge18_Node000013_Node000017" class="edge">
<title>Node13&#45;&gt;Node17</title>
<g id="a_edge18_Node000013_Node000017"><a xlink:title=" ">
<path fill="none" stroke="#63b8ff" d="M850.87,-241.9C875.37,-233.13 914.29,-219 947.66,-206 949.04,-205.46 950.44,-204.91 951.86,-204.35"/>
<polygon fill="#63b8ff" stroke="#63b8ff" points="953.25,-207.56 961.22,-200.57 950.63,-201.07 953.25,-207.56"/>
</a>
</g>
</g>
<!-- Node18 -->
<g id="Node000018" class="node">
<title>Node18</title>
<g id="a_Node000018"><a xlink:href="exception_8h.html" target="_top" xlink:title=" ">
<polygon fill="white" stroke="#666666" points="1272.66,-79.5 1142.66,-79.5 1142.66,-60.5 1272.66,-60.5 1272.66,-79.5"/>
<text text-anchor="middle" x="1207.66" y="-67.5" font-family="Helvetica,sans-Serif" font-size="10.00">exceptions/exception.h</text>
</a>
</g>
</g>
<!-- Node13&#45;&gt;Node18 -->
<g id="edge21_Node000013_Node000018" class="edge">
<title>Node13&#45;&gt;Node18</title>
<g id="a_edge21_Node000013_Node000018"><a xlink:title=" ">
<path fill="none" stroke="#63b8ff" d="M860.07,-247.53C921.17,-241.66 1048.18,-227.26 1086.66,-206 1138.39,-177.42 1179.33,-118.13 1197.48,-88.57"/>
<polygon fill="#63b8ff" stroke="#63b8ff" points="1200.62,-90.14 1202.74,-79.76 1194.61,-86.55 1200.62,-90.14"/>
</a>
</g>
</g>
<!-- Node20 -->
<g id="Node000020" class="node">
<title>Node20</title>
<g id="a_Node000020"><a xlink:href="logger_8h.html" target="_top" xlink:title=" ">
<polygon fill="white" stroke="#666666" points="941.16,-140 858.16,-140 858.16,-121 941.16,-121 941.16,-140"/>
<text text-anchor="middle" x="899.66" y="-128" font-family="Helvetica,sans-Serif" font-size="10.00">tools/logger.h</text>
</a>
</g>
</g>
<!-- Node13&#45;&gt;Node20 -->
<g id="edge24_Node000013_Node000020" class="edge">
<title>Node13&#45;&gt;Node20</title>
<g id="a_edge24_Node000013_Node000020"><a xlink:title=" ">
<path fill="none" stroke="#63b8ff" d="M859.73,-247.57C908.64,-242.46 996.56,-230.11 1015.66,-206 1023.94,-195.55 1023.21,-186.99 1015.66,-176 1001.12,-154.85 975.03,-143.74 951.27,-137.92"/>
<polygon fill="#63b8ff" stroke="#63b8ff" points="951.79,-134.45 941.28,-135.73 950.3,-141.29 951.79,-134.45"/>
</a>
</g>
</g>
<!-- Node27 -->
<g id="Node000027" class="node">
<title>Node27</title>
<g id="a_Node000027"><a xlink:href="element__parameters_8h.html" target="_top" xlink:title=" ">
<polygon fill="white" stroke="#666666" points="827.16,-206 696.16,-206 696.16,-176 827.16,-176 827.16,-206"/>
<text text-anchor="start" x="704.16" y="-194" font-family="Helvetica,sans-Serif" font-size="10.00">element_parameters</text>
<text text-anchor="middle" x="761.66" y="-183" font-family="Helvetica,sans-Serif" font-size="10.00">/element_parameters.h</text>
</a>
</g>
</g>
<!-- Node13&#45;&gt;Node27 -->
<g id="edge38_Node000013_Node000027" class="edge">
<title>Node13&#45;&gt;Node27</title>
<g id="a_edge38_Node000013_Node000027"><a xlink:title=" ">
<path fill="none" stroke="#63b8ff" d="M817.07,-241.87C808.66,-234.3 796.08,-222.98 785.03,-213.04"/>
<polygon fill="#63b8ff" stroke="#63b8ff" points="787.12,-210.2 777.34,-206.11 782.44,-215.41 787.12,-210.2"/>
</a>
</g>
</g>
<!-- Node18&#45;&gt;Node14 -->
<g id="edge23_Node000018_Node000014" class="edge">
<title>Node18&#45;&gt;Node14</title>
<g id="a_edge23_Node000018_Node000014"><a xlink:title=" ">
<path fill="none" stroke="#63b8ff" d="M1193.94,-60.37C1178.96,-50.95 1154.77,-35.73 1137.04,-24.58"/>
<polygon fill="#63b8ff" stroke="#63b8ff" points="1138.77,-21.53 1128.44,-19.17 1135.04,-27.45 1138.77,-21.53"/>
</a>
</g>
</g>
<!-- Node19 -->
<g id="Node000019" class="node">
<title>Node19</title>
<g id="a_Node000019"><a xlink:title=" ">
<polygon fill="#e0e0e0" stroke="#999999" points="1240.16,-19 1175.16,-19 1175.16,0 1240.16,0 1240.16,-19"/>
<text text-anchor="middle" x="1207.66" y="-7" font-family="Helvetica,sans-Serif" font-size="10.00">exception</text>
</a>
</g>
</g>
<!-- Node18&#45;&gt;Node19 -->
<g id="edge22_Node000018_Node000019" class="edge">
<title>Node18&#45;&gt;Node19</title>
<g id="a_edge22_Node000018_Node000019"><a xlink:title=" ">
<path fill="none" stroke="#63b8ff" d="M1207.66,-60.37C1207.66,-52.25 1207.66,-39.81 1207.66,-29.39"/>
<polygon fill="#63b8ff" stroke="#63b8ff" points="1211.16,-29.17 1207.66,-19.17 1204.16,-29.17 1211.16,-29.17"/>
</a>
</g>
</g>
<!-- Node20&#45;&gt;Node14 -->
<g id="edge26_Node000020_Node000014" class="edge">
<title>Node20&#45;&gt;Node14</title>
<g id="a_edge26_Node000020_Node000014"><a xlink:title=" ">
<path fill="none" stroke="#63b8ff" d="M915.12,-120.94C951.99,-100.54 1045.31,-48.88 1090.03,-24.13"/>
<polygon fill="#63b8ff" stroke="#63b8ff" points="1092,-27.05 1099.05,-19.14 1088.61,-20.92 1092,-27.05"/>
</a>
</g>
</g>
<!-- Node20&#45;&gt;Node18 -->
<g id="edge30_Node000020_Node000018" class="edge">
<title>Node20&#45;&gt;Node18</title>
<g id="a_edge30_Node000020_Node000018"><a xlink:title=" ">
<path fill="none" stroke="#63b8ff" d="M941.2,-121.61C995.84,-111.23 1092,-92.97 1152.64,-81.45"/>
<polygon fill="#63b8ff" stroke="#63b8ff" points="1153.62,-84.83 1162.79,-79.52 1152.31,-77.95 1153.62,-84.83"/>
</a>
</g>
</g>
<!-- Node21 -->
<g id="Node000021" class="node">
<title>Node21</title>
<g id="a_Node000021"><a xlink:title=" ">
<polygon fill="#e0e0e0" stroke="#999999" points="734.66,-79.5 674.66,-79.5 674.66,-60.5 734.66,-60.5 734.66,-79.5"/>
<text text-anchor="middle" x="704.66" y="-67.5" font-family="Helvetica,sans-Serif" font-size="10.00">iostream</text>
</a>
</g>
</g>
<!-- Node20&#45;&gt;Node21 -->
<g id="edge25_Node000020_Node000021" class="edge">
<title>Node20&#45;&gt;Node21</title>
<g id="a_edge25_Node000020_Node000021"><a xlink:title=" ">
<path fill="none" stroke="#63b8ff" d="M867.2,-120.92C835.52,-112.39 786.02,-98.63 743.66,-85 741.55,-84.32 739.37,-83.6 737.19,-82.86"/>
<polygon fill="#63b8ff" stroke="#63b8ff" points="738.27,-79.53 727.67,-79.55 735.96,-86.14 738.27,-79.53"/>
</a>
</g>
</g>
<!-- Node22 -->
<g id="Node000022" class="node">
<title>Node22</title>
<g id="a_Node000022"><a xlink:title=" ">
<polygon fill="#e0e0e0" stroke="#999999" points="987.66,-19 937.66,-19 937.66,0 987.66,0 987.66,-19"/>
<text text-anchor="middle" x="962.66" y="-7" font-family="Helvetica,sans-Serif" font-size="10.00">chrono</text>
</a>
</g>
</g>
<!-- Node20&#45;&gt;Node22 -->
<g id="edge27_Node000020_Node000022" class="edge">
<title>Node20&#45;&gt;Node22</title>
<g id="a_edge27_Node000020_Node000022"><a xlink:title=" ">
<path fill="none" stroke="#63b8ff" d="M911.13,-120.87C921.17,-112.71 935.42,-99.56 943.66,-85 953.5,-67.61 958.33,-45.09 960.64,-29.38"/>
<polygon fill="#63b8ff" stroke="#63b8ff" points="964.13,-29.68 961.92,-19.32 957.19,-28.8 964.13,-29.68"/>
</a>
</g>
</g>
<!-- Node23 -->
<g id="Node000023" class="node">
<title>Node23</title>
<g id="a_Node000023"><a xlink:title=" ">
<polygon fill="#e0e0e0" stroke="#999999" points="808.66,-79.5 752.66,-79.5 752.66,-60.5 808.66,-60.5 808.66,-79.5"/>
<text text-anchor="middle" x="780.66" y="-67.5" font-family="Helvetica,sans-Serif" font-size="10.00">iomanip</text>
</a>
</g>
</g>
<!-- Node20&#45;&gt;Node23 -->
<g id="edge28_Node000020_Node000023" class="edge">
<title>Node20&#45;&gt;Node23</title>
<g id="a_edge28_Node000020_Node000023"><a xlink:title=" ">
<path fill="none" stroke="#63b8ff" d="M882.36,-120.99C862.62,-111.29 830.11,-95.31 807.17,-84.03"/>
<polygon fill="#63b8ff" stroke="#63b8ff" points="808.5,-80.79 797.99,-79.52 805.42,-87.07 808.5,-80.79"/>
</a>
</g>
</g>
<!-- Node24 -->
<g id="Node000024" class="node">
<title>Node24</title>
<g id="a_Node000024"><a xlink:title=" ">
<polygon fill="#e0e0e0" stroke="#999999" points="934.16,-85 827.16,-85 827.16,-55 934.16,-55 934.16,-85"/>
<text text-anchor="start" x="835.16" y="-73" font-family="Helvetica,sans-Serif" font-size="10.00">imgui&#45;platform&#45;kit</text>
<text text-anchor="middle" x="880.66" y="-62" font-family="Helvetica,sans-Serif" font-size="10.00">/log_window.h</text>
</a>
</g>
</g>
<!-- Node20&#45;&gt;Node24 -->
<g id="edge29_Node000020_Node000024" class="edge">
<title>Node20&#45;&gt;Node24</title>
<g id="a_edge29_Node000020_Node000024"><a xlink:title=" ">
<path fill="none" stroke="#63b8ff" d="M896.86,-120.87C894.61,-113.96 891.36,-103.93 888.35,-94.67"/>
<polygon fill="#63b8ff" stroke="#63b8ff" points="891.66,-93.54 885.24,-85.11 885.01,-95.71 891.66,-93.54"/>
</a>
</g>
</g>
<!-- Node20&#45;&gt;Node25 -->
<g id="edge31_Node000020_Node000025" class="edge">
<title>Node20&#45;&gt;Node25</title>
<g id="a_edge31_Node000020_Node000025"><a xlink:title=" ">
<path fill="none" stroke="#63b8ff" d="M857.94,-122.39C789.25,-110.67 653.67,-87.55 590.52,-76.77"/>
<polygon fill="#63b8ff" stroke="#63b8ff" points="590.75,-73.26 580.31,-75.03 589.58,-80.16 590.75,-73.26"/>
</a>
</g>
</g>
<!-- Node25&#45;&gt;Node4 -->
<g id="edge33_Node000025_Node000004" class="edge">
<title>Node25&#45;&gt;Node4</title>
<g id="a_edge33_Node000025_Node000004"><a xlink:title=" ">
<path fill="none" stroke="#63b8ff" d="M564.33,-60.37C572.17,-51.55 584.52,-37.66 594.2,-26.77"/>
<polygon fill="#63b8ff" stroke="#63b8ff" points="596.93,-28.97 600.96,-19.17 591.7,-24.32 596.93,-28.97"/>
</a>
</g>
</g>
<!-- Node25&#45;&gt;Node10 -->
<g id="edge34_Node000025_Node000010" class="edge">
<title>Node25&#45;&gt;Node10</title>
<g id="a_edge34_Node000025_Node000010"><a xlink:title=" ">
<path fill="none" stroke="#63b8ff" d="M532.85,-65.98C457.56,-56.42 224.29,-26.82 132.91,-15.23"/>
<polygon fill="#63b8ff" stroke="#63b8ff" points="133.11,-11.72 122.74,-13.94 132.22,-18.67 133.11,-11.72"/>
</a>
</g>
</g>
<!-- Node25&#45;&gt;Node12 -->
<g id="edge36_Node000025_Node000012" class="edge">
<title>Node25&#45;&gt;Node12</title>
<g id="a_edge36_Node000025_Node000012"><a xlink:title=" ">
<path fill="none" stroke="#63b8ff" d="M532.86,-61.71C500.27,-51.73 441.43,-33.71 402.96,-21.92"/>
<polygon fill="#63b8ff" stroke="#63b8ff" points="403.75,-18.51 393.17,-18.93 401.7,-25.2 403.75,-18.51"/>
</a>
</g>
</g>
<!-- Node25&#45;&gt;Node14 -->
<g id="edge32_Node000025_Node000014" class="edge">
<title>Node25&#45;&gt;Node14</title>
<g id="a_edge32_Node000025_Node000014"><a xlink:title=" ">
<path fill="none" stroke="#63b8ff" d="M580.45,-65.74C602.52,-62.77 636.28,-58.34 665.66,-55 821.44,-37.28 1008.1,-20.07 1082.12,-13.4"/>
<polygon fill="#63b8ff" stroke="#63b8ff" points="1082.56,-16.87 1092.21,-12.49 1081.94,-9.9 1082.56,-16.87"/>
</a>
</g>
</g>
<!-- Node25&#45;&gt;Node22 -->
<g id="edge37_Node000025_Node000022" class="edge">
<title>Node25&#45;&gt;Node22</title>
<g id="a_edge37_Node000025_Node000022"><a xlink:title=" ">
<path fill="none" stroke="#63b8ff" d="M580.24,-65.6C648.43,-55.78 846.12,-27.29 927.26,-15.6"/>
<polygon fill="#63b8ff" stroke="#63b8ff" points="928.07,-19.02 937.47,-14.13 927.07,-12.09 928.07,-19.02"/>
</a>
</g>
</g>
<!-- Node26 -->
<g id="Node000026" class="node">
<title>Node26</title>
<g id="a_Node000026"><a xlink:title=" ">
<polygon fill="#e0e0e0" stroke="#999999" points="566.66,-19 510.66,-19 510.66,0 566.66,0 566.66,-19"/>
<text text-anchor="middle" x="538.66" y="-7" font-family="Helvetica,sans-Serif" font-size="10.00">sstream</text>
</a>
</g>
</g>
<!-- Node25&#45;&gt;Node26 -->
<g id="edge35_Node000025_Node000026" class="edge">
<title>Node25&#45;&gt;Node26</title>
<g id="a_edge35_Node000025_Node000026"><a xlink:title=" ">
<path fill="none" stroke="#63b8ff" d="M554,-60.37C551.48,-52.16 547.6,-39.54 544.37,-29.05"/>
<polygon fill="#63b8ff" stroke="#63b8ff" points="547.61,-27.7 541.33,-19.17 540.92,-29.75 547.61,-27.7"/>
</a>
</g>
</g>
<!-- Node27&#45;&gt;Node14 -->
<g id="edge40_Node000027_Node000014" class="edge">
<title>Node27&#45;&gt;Node14</title>
<g id="a_edge40_Node000027_Node000014"><a xlink:title=" ">
<path fill="none" stroke="#63b8ff" d="M825.97,-175.92C871.72,-165.36 928.79,-150.9 950.66,-140 986.07,-122.35 989.6,-109.51 1020.66,-85 1046.89,-64.31 1077.16,-40.29 1096.1,-25.24"/>
<polygon fill="#63b8ff" stroke="#63b8ff" points="1098.3,-27.97 1103.96,-19.01 1093.95,-22.49 1098.3,-27.97"/>
</a>
</g>
</g>
<!-- Node27&#45;&gt;Node20 -->
<g id="edge42_Node000027_Node000020" class="edge">
<title>Node27&#45;&gt;Node20</title>
<g id="a_edge42_Node000027_Node000020"><a xlink:title=" ">
<path fill="none" stroke="#63b8ff" d="M794.71,-175.99C817.64,-166.27 847.9,-153.44 870.04,-144.06"/>
<polygon fill="#63b8ff" stroke="#63b8ff" points="871.44,-147.26 879.28,-140.14 868.71,-140.82 871.44,-147.26"/>
</a>
</g>
</g>
<!-- Node28 -->
<g id="Node000028" class="node">
<title>Node28</title>
<g id="a_Node000028"><a xlink:title=" ">
<polygon fill="#e0e0e0" stroke="#999999" points="801.66,-140 763.66,-140 763.66,-121 801.66,-121 801.66,-140"/>
<text text-anchor="middle" x="782.66" y="-128" font-family="Helvetica,sans-Serif" font-size="10.00">map</text>
</a>
</g>
</g>
<!-- Node27&#45;&gt;Node28 -->
<g id="edge39_Node000027_Node000028" class="edge">
<title>Node27&#45;&gt;Node28</title>
<g id="a_edge39_Node000027_Node000028"><a xlink:title=" ">
<path fill="none" stroke="#63b8ff" d="M766.74,-175.84C769.54,-168.04 773.05,-158.27 776.06,-149.89"/>
<polygon fill="#63b8ff" stroke="#63b8ff" points="779.43,-150.86 779.51,-140.27 772.84,-148.5 779.43,-150.86"/>
</a>
</g>
</g>
<!-- Node29 -->
<g id="Node000029" class="node">
<title>Node29</title>
<g id="a_Node000029"><a xlink:title=" ">
<polygon fill="#e0e0e0" stroke="#999999" points="745.66,-140 695.66,-140 695.66,-121 745.66,-121 745.66,-140"/>
<text text-anchor="middle" x="720.66" y="-128" font-family="Helvetica,sans-Serif" font-size="10.00">format</text>
</a>
</g>
</g>
<!-- Node27&#45;&gt;Node29 -->
<g id="edge41_Node000027_Node000029" class="edge">
<title>Node27&#45;&gt;Node29</title>
<g id="a_edge41_Node000027_Node000029"><a xlink:title=" ">
<path fill="none" stroke="#63b8ff" d="M751.74,-175.84C745.97,-167.61 738.66,-157.18 732.58,-148.51"/>
<polygon fill="#63b8ff" stroke="#63b8ff" points="735.41,-146.45 726.8,-140.27 729.68,-150.46 735.41,-146.45"/>
</a>
</g>
</g>
<!-- Node30&#45;&gt;Node13 -->
<g id="edge44_Node000030_Node000013" class="edge">
<title>Node30&#45;&gt;Node13</title>
<g id="a_edge44_Node000030_Node000013"><a xlink:title=" ">
<path fill="none" stroke="#63b8ff" d="M638.09,-351.84C673.86,-333 759,-288.14 801.55,-265.73"/>
<polygon fill="#63b8ff" stroke="#63b8ff" points="803.22,-268.8 810.44,-261.05 799.96,-262.61 803.22,-268.8"/>
</a>
</g>
</g>
<!-- Node31 -->
<g id="Node000031" class="node">
<title>Node31</title>
<g id="a_Node000031"><a xlink:href="activation__function_8h.html" target="_top" xlink:title=" ">
<polygon fill="white" stroke="#666666" points="681.16,-316 562.16,-316 562.16,-297 681.16,-297 681.16,-316"/>
<text text-anchor="middle" x="621.66" y="-304" font-family="Helvetica,sans-Serif" font-size="10.00">activation_function.h</text>
</a>
</g>
</g>
<!-- Node30&#45;&gt;Node31 -->
<g id="edge45_Node000030_Node000031" class="edge">
<title>Node30&#45;&gt;Node31</title>
<g id="a_edge45_Node000030_Node000031"><a xlink:title=" ">
<path fill="none" stroke="#63b8ff" d="M621.66,-351.75C621.66,-344.8 621.66,-334.85 621.66,-326.13"/>
<polygon fill="#63b8ff" stroke="#63b8ff" points="625.16,-326.09 621.66,-316.09 618.16,-326.09 625.16,-326.09"/>
</a>
</g>
</g>
<!-- Node32 -->
<g id="Node000032" class="node">
<title>Node32</title>
<g id="a_Node000032"><a xlink:href="simulation_8h.html" target="_top" xlink:title=" ">
<polygon fill="white" stroke="#666666" points="1252.66,-316 1120.66,-316 1120.66,-297 1252.66,-297 1252.66,-316"/>
<text text-anchor="middle" x="1186.66" y="-304" font-family="Helvetica,sans-Serif" font-size="10.00">simulation/simulation.h</text>
</a>
</g>
</g>
<!-- Node30&#45;&gt;Node32 -->
<g id="edge49_Node000030_Node000032" class="edge">
<title>Node30&#45;&gt;Node32</title>
<g id="a_edge49_Node000030_Node000032"><a xlink:title=" ">
<path fill="none" stroke="#63b8ff" d="M663.21,-356.6C757.55,-347.75 989.14,-326.03 1110.17,-314.68"/>
<polygon fill="#63b8ff" stroke="#63b8ff" points="1110.83,-318.13 1120.46,-313.71 1110.18,-311.16 1110.83,-318.13"/>
</a>
</g>
</g>
<!-- Node34 -->
<g id="Node000034" class="node">
<title>Node34</title>
<g id="a_Node000034"><a xlink:href="kernel_8h.html" target="_top" xlink:title=" ">
<polygon fill="white" stroke="#666666" points="543.66,-316 439.66,-316 439.66,-297 543.66,-297 543.66,-316"/>
<text text-anchor="middle" x="491.66" y="-304" font-family="Helvetica,sans-Serif" font-size="10.00">elements/kernel.h</text>
</a>
</g>
</g>
<!-- Node30&#45;&gt;Node34 -->
<g id="edge58_Node000030_Node000034" class="edge">
<title>Node30&#45;&gt;Node34</title>
<g id="a_edge58_Node000030_Node000034"><a xlink:title=" ">
<path fill="none" stroke="#63b8ff" d="M600.77,-351.98C579.58,-343.34 546.53,-329.87 522.36,-320.02"/>
<polygon fill="#63b8ff" stroke="#63b8ff" points="523.51,-316.7 512.93,-316.17 520.87,-323.19 523.51,-316.7"/>
</a>
</g>
</g>
<!-- Node31&#45;&gt;Node3 -->
<g id="edge48_Node000031_Node000003" class="edge">
<title>Node31&#45;&gt;Node3</title>
<g id="a_edge48_Node000031_Node000003"><a xlink:title=" ">
<path fill="none" stroke="#63b8ff" d="M569.93,-296.98C509.09,-286.97 408.84,-270.47 349.05,-260.63"/>
<polygon fill="#63b8ff" stroke="#63b8ff" points="349.52,-257.16 339.09,-258.99 348.39,-264.07 349.52,-257.16"/>
</a>
</g>
</g>
<!-- Node31&#45;&gt;Node14 -->
<g id="edge46_Node000031_Node000014" class="edge">
<title>Node31&#45;&gt;Node14</title>
<g id="a_edge46_Node000031_Node000014"><a xlink:title=" ">
<path fill="none" stroke="#63b8ff" d="M681.21,-300.91C836.15,-288.37 1242.59,-251.4 1281.66,-206 1325.44,-155.13 1322.55,-108.21 1281.66,-55 1273.35,-44.19 1192.66,-26.3 1146.56,-16.83"/>
<polygon fill="#63b8ff" stroke="#63b8ff" points="1147.23,-13.4 1136.74,-14.83 1145.84,-20.26 1147.23,-13.4"/>
</a>
</g>
</g>
<!-- Node31&#45;&gt;Node20 -->
<g id="edge47_Node000031_Node000020" class="edge">
<title>Node31&#45;&gt;Node20</title>
<g id="a_edge47_Node000031_Node000020"><a xlink:title=" ">
<path fill="none" stroke="#63b8ff" d="M607.07,-296.87C572.49,-275.39 491.19,-218.24 528.66,-176 533.92,-170.08 747.06,-147.29 847.85,-136.82"/>
<polygon fill="#63b8ff" stroke="#63b8ff" points="848.24,-140.3 857.83,-135.79 847.52,-133.34 848.24,-140.3"/>
</a>
</g>
</g>
<!-- Node32&#45;&gt;Node4 -->
<g id="edge50_Node000032_Node000004" class="edge">
<title>Node32&#45;&gt;Node4</title>
<g id="a_edge50_Node000032_Node000004"><a xlink:title=" ">
<path fill="none" stroke="#63b8ff" d="M1178.3,-296.96C1154.94,-273.62 1086.04,-208.35 1015.66,-176 947.07,-144.47 921,-164.71 849.66,-140 831.44,-133.69 828.78,-127.58 810.66,-121 748.25,-98.33 721.18,-121.42 665.66,-85 643.92,-70.74 627.12,-45.29 617.56,-28.15"/>
<polygon fill="#63b8ff" stroke="#63b8ff" points="620.57,-26.36 612.79,-19.17 614.39,-29.64 620.57,-26.36"/>
</a>
</g>
</g>
<!-- Node32&#45;&gt;Node13 -->
<g id="edge55_Node000032_Node000013" class="edge">
<title>Node32&#45;&gt;Node13</title>
<g id="a_edge55_Node000032_Node000013"><a xlink:title=" ">
<path fill="none" stroke="#63b8ff" d="M1128.82,-296.98C1056.71,-286.37 935.08,-268.46 870.31,-258.93"/>
<polygon fill="#63b8ff" stroke="#63b8ff" points="870.44,-255.41 860.04,-257.41 869.43,-262.33 870.44,-255.41"/>
</a>
</g>
</g>
<!-- Node32&#45;&gt;Node14 -->
<g id="edge52_Node000032_Node000014" class="edge">
<title>Node32&#45;&gt;Node14</title>
<g id="a_edge52_Node000032_Node000014"><a xlink:title=" ">
<path fill="none" stroke="#63b8ff" d="M1247.75,-296.99C1306.57,-284.95 1386.66,-256.68 1386.66,-192 1386.66,-192 1386.66,-192 1386.66,-129.5 1386.66,-83.45 1354.83,-77.51 1314.66,-55 1300.11,-46.85 1199.59,-26.77 1146.83,-16.6"/>
<polygon fill="#63b8ff" stroke="#63b8ff" points="1147.44,-13.16 1136.96,-14.71 1146.12,-20.03 1147.44,-13.16"/>
</a>
</g>
</g>
<!-- Node32&#45;&gt;Node16 -->
<g id="edge51_Node000032_Node000016" class="edge">
<title>Node32&#45;&gt;Node16</title>
<g id="a_edge51_Node000032_Node000016"><a xlink:title=" ">
<path fill="none" stroke="#63b8ff" d="M1236.24,-296.98C1257.01,-290.7 1279.2,-279.82 1291.66,-261 1304.19,-242.08 1283.78,-220.67 1265.82,-206.79"/>
<polygon fill="#63b8ff" stroke="#63b8ff" points="1267.5,-203.69 1257.36,-200.63 1263.38,-209.35 1267.5,-203.69"/>
</a>
</g>
</g>
<!-- Node32&#45;&gt;Node18 -->
<g id="edge56_Node000032_Node000018" class="edge">
<title>Node32&#45;&gt;Node18</title>
<g id="a_edge56_Node000032_Node000018"><a xlink:title=" ">
<path fill="none" stroke="#63b8ff" d="M1250.01,-296.95C1271.61,-290.66 1293.59,-279.79 1306.66,-261 1348.72,-200.54 1266.48,-119.93 1227.07,-86.52"/>
<polygon fill="#63b8ff" stroke="#63b8ff" points="1228.86,-83.46 1218.93,-79.78 1224.4,-88.85 1228.86,-83.46"/>
</a>
</g>
</g>
<!-- Node32&#45;&gt;Node22 -->
<g id="edge54_Node000032_Node000022" class="edge">
<title>Node32&#45;&gt;Node22</title>
<g id="a_edge54_Node000032_Node000022"><a xlink:title=" ">
<path fill="none" stroke="#63b8ff" d="M1187.01,-296.94C1187.51,-275.14 1186.41,-216.41 1162.66,-176 1119.68,-102.88 1031.81,-47.83 988.28,-23.79"/>
<polygon fill="#63b8ff" stroke="#63b8ff" points="989.91,-20.69 979.45,-19.01 986.57,-26.85 989.91,-20.69"/>
</a>
</g>
</g>
<!-- Node32&#45;&gt;Node25 -->
<g id="edge57_Node000032_Node000025" class="edge">
<title>Node32&#45;&gt;Node25</title>
<g id="a_edge57_Node000032_Node000025"><a xlink:title=" ">
<path fill="none" stroke="#63b8ff" d="M1120.46,-304.19C1039.86,-301.23 900.21,-291.67 784.66,-261 725.21,-245.22 705.93,-244.13 657.66,-206 615.32,-172.55 581.58,-117.26 566.01,-88.94"/>
<polygon fill="#63b8ff" stroke="#63b8ff" points="568.93,-86.97 561.12,-79.82 562.76,-90.28 568.93,-86.97"/>
</a>
</g>
</g>
<!-- Node33 -->
<g id="Node000033" class="node">
<title>Node33</title>
<g id="a_Node000033"><a xlink:title=" ">
<polygon fill="#e0e0e0" stroke="#999999" points="1282.66,-261 1214.66,-261 1214.66,-242 1282.66,-242 1282.66,-261"/>
<text text-anchor="middle" x="1248.66" y="-249" font-family="Helvetica,sans-Serif" font-size="10.00">filesystem</text>
</a>
</g>
</g>
<!-- Node32&#45;&gt;Node33 -->
<g id="edge53_Node000032_Node000033" class="edge">
<title>Node32&#45;&gt;Node33</title>
<g id="a_edge53_Node000032_Node000033"><a xlink:title=" ">
<path fill="none" stroke="#63b8ff" d="M1196.62,-296.98C1205.79,-289.15 1219.6,-277.34 1230.69,-267.86"/>
<polygon fill="#63b8ff" stroke="#63b8ff" points="1233.19,-270.33 1238.52,-261.17 1228.64,-265.01 1233.19,-270.33"/>
</a>
</g>
</g>
<!-- Node34&#45;&gt;Node5 -->
<g id="edge60_Node000034_Node000005" class="edge">
<title>Node34&#45;&gt;Node5</title>
<g id="a_edge60_Node000034_Node000005"><a xlink:title=" ">
<path fill="none" stroke="#63b8ff" d="M480.91,-296.97C456.79,-277.82 398.09,-231.23 367.66,-207.08"/>
<polygon fill="#63b8ff" stroke="#63b8ff" points="369.54,-204.11 359.53,-200.63 365.19,-209.59 369.54,-204.11"/>
</a>
</g>
</g>
<!-- Node34&#45;&gt;Node13 -->
<g id="edge59_Node000034_Node000013" class="edge">
<title>Node34&#45;&gt;Node13</title>
<g id="a_edge59_Node000034_Node000013"><a xlink:title=" ">
<path fill="none" stroke="#63b8ff" d="M544,-297.22C609.93,-286.79 722,-269.06 783.35,-259.35"/>
<polygon fill="#63b8ff" stroke="#63b8ff" points="784.14,-262.77 793.47,-257.75 783.04,-255.86 784.14,-262.77"/>
</a>
</g>
</g>
</g>
</svg>
