<?xml version="1.0" encoding="UTF-8" standalone="no"?>
<!DOCTYPE svg PUBLIC "-//W3C//DTD SVG 1.1//EN"
 "http://www.w3.org/Graphics/SVG/1.1/DTD/svg11.dtd">
<!-- Generated by graphviz version 2.43.0 (0)
 -->
<!-- Title: include/elements/field_coupling.h Pages: 1 -->
<svg width="1610pt" height="445pt"
 viewBox="0.00 0.00 1609.87 445.00" xmlns="http://www.w3.org/2000/svg" xmlns:xlink="http://www.w3.org/1999/xlink">
<g id="graph0" class="graph" transform="scale(1 1) rotate(0) translate(4 441)">
<title>include/elements/field_coupling.h</title>
<!-- Node1 -->
<g id="Node000001" class="node">
<title>Node1</title>
<g id="a_Node000001"><a xlink:title=" ">
<polygon fill="#999999" stroke="#666666" points="351.8,-437 226.8,-437 226.8,-407 351.8,-407 351.8,-437"/>
<text text-anchor="start" x="234.8" y="-425" font-family="Helvetica,sans-Serif" font-size="10.00">include/elements/field</text>
<text text-anchor="middle" x="289.3" y="-414" font-family="Helvetica,sans-Serif" font-size="10.00">_coupling.h</text>
</a>
</g>
</g>
<!-- Node2 -->
<g id="Node000002" class="node">
<title>Node2</title>
<g id="a_Node000002"><a xlink:title=" ">
<polygon fill="#e0e0e0" stroke="#999999" points="56.3,-371 24.3,-371 24.3,-352 56.3,-352 56.3,-371"/>
<text text-anchor="middle" x="40.3" y="-359" font-family="Helvetica,sans-Serif" font-size="10.00">set</text>
</a>
</g>
</g>
<!-- Node1&#45;&gt;Node2 -->
<g id="edge1_Node000001_Node000002" class="edge">
<title>Node1&#45;&gt;Node2</title>
<g id="a_edge1_Node000001_Node000002"><a xlink:title=" ">
<path fill="none" stroke="#63b8ff" d="M226.79,-407.63C182.87,-398.01 122.82,-384.43 70.3,-371 69.03,-370.68 67.74,-370.34 66.43,-369.99"/>
<polygon fill="#63b8ff" stroke="#63b8ff" points="67.02,-366.52 56.45,-367.24 65.16,-373.27 67.02,-366.52"/>
</a>
</g>
</g>
<!-- Node3 -->
<g id="Node000003" class="node">
<title>Node3</title>
<g id="a_Node000003"><a xlink:href="math_8h.html" target="_top" xlink:title=" ">
<polygon fill="white" stroke="#666666" points="328.3,-261 250.3,-261 250.3,-242 328.3,-242 328.3,-261"/>
<text text-anchor="middle" x="289.3" y="-249" font-family="Helvetica,sans-Serif" font-size="10.00">tools/math.h</text>
</a>
</g>
</g>
<!-- Node1&#45;&gt;Node3 -->
<g id="edge2_Node000001_Node000003" class="edge">
<title>Node1&#45;&gt;Node3</title>
<g id="a_edge2_Node000001_Node000003"><a xlink:title=" ">
<path fill="none" stroke="#63b8ff" d="M289.3,-406.92C289.3,-376.65 289.3,-305.35 289.3,-271.27"/>
<polygon fill="#63b8ff" stroke="#63b8ff" points="292.8,-271.25 289.3,-261.25 285.8,-271.25 292.8,-271.25"/>
</a>
</g>
</g>
<!-- Node13 -->
<g id="Node000013" class="node">
<title>Node13</title>
<g id="a_Node000013"><a xlink:href="element_8h.html" target="_top" xlink:title=" ">
<polygon fill="white" stroke="#666666" points="905.3,-261 839.3,-261 839.3,-242 905.3,-242 905.3,-261"/>
<text text-anchor="middle" x="872.3" y="-249" font-family="Helvetica,sans-Serif" font-size="10.00">element.h</text>
</a>
</g>
</g>
<!-- Node1&#45;&gt;Node13 -->
<g id="edge12_Node000001_Node000013" class="edge">
<title>Node1&#45;&gt;Node13</title>
<g id="a_edge12_Node000001_Node000013"><a xlink:title=" ">
<path fill="none" stroke="#63b8ff" d="M351.85,-415.37C477.86,-403.02 756.85,-370.24 834.3,-316 850.05,-304.97 860.37,-285.13 866.23,-270.55"/>
<polygon fill="#63b8ff" stroke="#63b8ff" points="869.55,-271.67 869.72,-261.07 862.98,-269.25 869.55,-271.67"/>
</a>
</g>
</g>
<!-- Node26 -->
<g id="Node000026" class="node">
<title>Node26</title>
<g id="a_Node000026"><a xlink:href="utils_8h.html" target="_top" xlink:title=" ">
<polygon fill="white" stroke="#666666" points="699.8,-79.5 652.8,-79.5 652.8,-60.5 699.8,-60.5 699.8,-79.5"/>
<text text-anchor="middle" x="676.3" y="-67.5" font-family="Helvetica,sans-Serif" font-size="10.00">utils.h</text>
</a>
</g>
</g>
<!-- Node1&#45;&gt;Node26 -->
<g id="edge66_Node000001_Node000026" class="edge">
<title>Node1&#45;&gt;Node26</title>
<g id="a_edge66_Node000001_Node000026"><a xlink:title=" ">
<path fill="none" stroke="#63b8ff" d="M226.68,-412.99C166.39,-401.35 84.3,-373.4 84.3,-307.5 84.3,-307.5 84.3,-307.5 84.3,-250.5 84.3,-216.33 78.33,-199.32 103.3,-176 182.62,-101.94 531.62,-78.26 642.42,-72.54"/>
<polygon fill="#63b8ff" stroke="#63b8ff" points="642.86,-76.02 652.68,-72.03 642.52,-69.03 642.86,-76.02"/>
</a>
</g>
</g>
<!-- Node32 -->
<g id="Node000032" class="node">
<title>Node32</title>
<g id="a_Node000032"><a xlink:href="neural__field_8h.html" target="_top" xlink:title=" ">
<polygon fill="white" stroke="#666666" points="964.8,-371 881.8,-371 881.8,-352 964.8,-352 964.8,-371"/>
<text text-anchor="middle" x="923.3" y="-359" font-family="Helvetica,sans-Serif" font-size="10.00">neural_field.h</text>
</a>
</g>
</g>
<!-- Node1&#45;&gt;Node32 -->
<g id="edge44_Node000001_Node000032" class="edge">
<title>Node1&#45;&gt;Node32</title>
<g id="a_edge44_Node000001_Node000032"><a xlink:title=" ">
<path fill="none" stroke="#63b8ff" d="M351.87,-416.91C458.07,-409.68 680.27,-393.26 867.3,-371 868.77,-370.83 870.25,-370.64 871.75,-370.45"/>
<polygon fill="#63b8ff" stroke="#63b8ff" points="872.31,-373.91 881.75,-369.11 871.38,-366.97 872.31,-373.91"/>
</a>
</g>
</g>
<!-- Node4 -->
<g id="Node000004" class="node">
<title>Node4</title>
<g id="a_Node000004"><a xlink:title=" ">
<polygon fill="#e0e0e0" stroke="#999999" points="768.8,-19 721.8,-19 721.8,0 768.8,0 768.8,-19"/>
<text text-anchor="middle" x="745.3" y="-7" font-family="Helvetica,sans-Serif" font-size="10.00">vector</text>
</a>
</g>
</g>
<!-- Node3&#45;&gt;Node4 -->
<g id="edge3_Node000003_Node000004" class="edge">
<title>Node3&#45;&gt;Node4</title>
<g id="a_edge3_Node000003_Node000004"><a xlink:title=" ">
<path fill="none" stroke="#63b8ff" d="M264.49,-241.95C248.46,-234.99 228.87,-223.42 219.3,-206 212.88,-194.31 211.44,-186.77 219.3,-176 234.53,-155.12 598.55,-51.65 711.91,-19.83"/>
<polygon fill="#63b8ff" stroke="#63b8ff" points="713.1,-23.13 721.78,-17.06 711.21,-16.39 713.1,-23.13"/>
</a>
</g>
</g>
<!-- Node5 -->
<g id="Node000005" class="node">
<title>Node5</title>
<g id="a_Node000005"><a xlink:title=" ">
<polygon fill="#e0e0e0" stroke="#999999" points="419.3,-200.5 377.3,-200.5 377.3,-181.5 419.3,-181.5 419.3,-200.5"/>
<text text-anchor="middle" x="398.3" y="-188.5" font-family="Helvetica,sans-Serif" font-size="10.00">array</text>
</a>
</g>
</g>
<!-- Node3&#45;&gt;Node5 -->
<g id="edge4_Node000003_Node000005" class="edge">
<title>Node3&#45;&gt;Node5</title>
<g id="a_edge4_Node000003_Node000005"><a xlink:title=" ">
<path fill="none" stroke="#63b8ff" d="M305.38,-241.87C323.26,-232.28 352.34,-216.67 373.21,-205.47"/>
<polygon fill="#63b8ff" stroke="#63b8ff" points="375,-208.48 382.15,-200.67 371.69,-202.31 375,-208.48"/>
</a>
</g>
</g>
<!-- Node6 -->
<g id="Node000006" class="node">
<title>Node6</title>
<g id="a_Node000006"><a xlink:title=" ">
<polygon fill="#e0e0e0" stroke="#999999" points="275.8,-200.5 228.8,-200.5 228.8,-181.5 275.8,-181.5 275.8,-200.5"/>
<text text-anchor="middle" x="252.3" y="-188.5" font-family="Helvetica,sans-Serif" font-size="10.00">cmath</text>
</a>
</g>
</g>
<!-- Node3&#45;&gt;Node6 -->
<g id="edge5_Node000003_Node000006" class="edge">
<title>Node3&#45;&gt;Node6</title>
<g id="a_edge5_Node000003_Node000006"><a xlink:title=" ">
<path fill="none" stroke="#63b8ff" d="M283.84,-241.87C278.43,-233.31 269.99,-219.97 263.21,-209.24"/>
<polygon fill="#63b8ff" stroke="#63b8ff" points="266.09,-207.25 257.78,-200.67 260.17,-210.99 266.09,-207.25"/>
</a>
</g>
</g>
<!-- Node7 -->
<g id="Node000007" class="node">
<title>Node7</title>
<g id="a_Node000007"><a xlink:title=" ">
<polygon fill="#e0e0e0" stroke="#999999" points="501.3,-200.5 437.3,-200.5 437.3,-181.5 501.3,-181.5 501.3,-200.5"/>
<text text-anchor="middle" x="469.3" y="-188.5" font-family="Helvetica,sans-Serif" font-size="10.00">algorithm</text>
</a>
</g>
</g>
<!-- Node3&#45;&gt;Node7 -->
<g id="edge6_Node000003_Node000007" class="edge">
<title>Node3&#45;&gt;Node7</title>
<g id="a_edge6_Node000003_Node000007"><a xlink:title=" ">
<path fill="none" stroke="#63b8ff" d="M316.52,-241.96C344.58,-233.11 389.57,-218.81 428.3,-206 430.53,-205.26 432.83,-204.5 435.14,-203.72"/>
<polygon fill="#63b8ff" stroke="#63b8ff" points="436.26,-207.04 444.61,-200.52 434.02,-200.41 436.26,-207.04"/>
</a>
</g>
</g>
<!-- Node8 -->
<g id="Node000008" class="node">
<title>Node8</title>
<g id="a_Node000008"><a xlink:title=" ">
<polygon fill="#e0e0e0" stroke="#999999" points="575.3,-200.5 519.3,-200.5 519.3,-181.5 575.3,-181.5 575.3,-200.5"/>
<text text-anchor="middle" x="547.3" y="-188.5" font-family="Helvetica,sans-Serif" font-size="10.00">numeric</text>
</a>
</g>
</g>
<!-- Node3&#45;&gt;Node8 -->
<g id="edge7_Node000003_Node000008" class="edge">
<title>Node3&#45;&gt;Node8</title>
<g id="a_edge7_Node000003_Node000008"><a xlink:title=" ">
<path fill="none" stroke="#63b8ff" d="M328.49,-244.59C373.03,-237.43 447.68,-224.02 510.3,-206 512.45,-205.38 514.64,-204.7 516.84,-203.97"/>
<polygon fill="#63b8ff" stroke="#63b8ff" points="518.11,-207.23 526.37,-200.6 515.78,-200.63 518.11,-207.23"/>
</a>
</g>
</g>
<!-- Node9 -->
<g id="Node000009" class="node">
<title>Node9</title>
<g id="a_Node000009"><a xlink:title=" ">
<polygon fill="#e0e0e0" stroke="#999999" points="358.8,-200.5 293.8,-200.5 293.8,-181.5 358.8,-181.5 358.8,-200.5"/>
<text text-anchor="middle" x="326.3" y="-188.5" font-family="Helvetica,sans-Serif" font-size="10.00">functional</text>
</a>
</g>
</g>
<!-- Node3&#45;&gt;Node9 -->
<g id="edge8_Node000003_Node000009" class="edge">
<title>Node3&#45;&gt;Node9</title>
<g id="a_edge8_Node000003_Node000009"><a xlink:title=" ">
<path fill="none" stroke="#63b8ff" d="M294.76,-241.87C300.17,-233.31 308.61,-219.97 315.4,-209.24"/>
<polygon fill="#63b8ff" stroke="#63b8ff" points="318.43,-210.99 320.82,-200.67 312.52,-207.25 318.43,-210.99"/>
</a>
</g>
</g>
<!-- Node10 -->
<g id="Node000010" class="node">
<title>Node10</title>
<g id="a_Node000010"><a xlink:title=" ">
<polygon fill="#e0e0e0" stroke="#999999" points="298.3,-19 244.3,-19 244.3,0 298.3,0 298.3,-19"/>
<text text-anchor="middle" x="271.3" y="-7" font-family="Helvetica,sans-Serif" font-size="10.00">random</text>
</a>
</g>
</g>
<!-- Node3&#45;&gt;Node10 -->
<g id="edge9_Node000003_Node000010" class="edge">
<title>Node3&#45;&gt;Node10</title>
<g id="a_edge9_Node000003_Node000010"><a xlink:title=" ">
<path fill="none" stroke="#63b8ff" d="M250.08,-249.63C185.13,-247.28 59.68,-238.52 32.3,-206 -10.92,-154.66 -10.59,-106.62 32.3,-55 57.49,-24.68 173.16,-14.92 233.86,-11.85"/>
<polygon fill="#63b8ff" stroke="#63b8ff" points="234.34,-15.33 244.17,-11.37 234.02,-8.34 234.34,-15.33"/>
</a>
</g>
</g>
<!-- Node11 -->
<g id="Node000011" class="node">
<title>Node11</title>
<g id="a_Node000011"><a xlink:title=" ">
<polygon fill="#e0e0e0" stroke="#999999" points="171.8,-200.5 112.8,-200.5 112.8,-181.5 171.8,-181.5 171.8,-200.5"/>
<text text-anchor="middle" x="142.3" y="-188.5" font-family="Helvetica,sans-Serif" font-size="10.00">numbers</text>
</a>
</g>
</g>
<!-- Node3&#45;&gt;Node11 -->
<g id="edge10_Node000003_Node000011" class="edge">
<title>Node3&#45;&gt;Node11</title>
<g id="a_edge10_Node000003_Node000011"><a xlink:title=" ">
<path fill="none" stroke="#63b8ff" d="M267.93,-241.99C243,-232.07 201.58,-215.59 173.16,-204.28"/>
<polygon fill="#63b8ff" stroke="#63b8ff" points="174.29,-200.96 163.7,-200.52 171.7,-207.47 174.29,-200.96"/>
</a>
</g>
</g>
<!-- Node12 -->
<g id="Node000012" class="node">
<title>Node12</title>
<g id="a_Node000012"><a xlink:title=" ">
<polygon fill="#e0e0e0" stroke="#999999" points="703.8,-19 648.8,-19 648.8,0 703.8,0 703.8,-19"/>
<text text-anchor="middle" x="676.3" y="-7" font-family="Helvetica,sans-Serif" font-size="10.00">fstream</text>
</a>
</g>
</g>
<!-- Node3&#45;&gt;Node12 -->
<g id="edge11_Node000003_Node000012" class="edge">
<title>Node3&#45;&gt;Node12</title>
<g id="a_edge11_Node000003_Node000012"><a xlink:title=" ">
<path fill="none" stroke="#63b8ff" d="M250.21,-246.76C201.15,-241.16 121.25,-228.74 103.3,-206 57.82,-148.35 82.04,-115.31 186.3,-55 271.15,-5.92 524.07,-32.66 638.53,-18.72"/>
<polygon fill="#63b8ff" stroke="#63b8ff" points="639.08,-22.18 648.51,-17.35 638.12,-15.25 639.08,-22.18"/>
</a>
</g>
</g>
<!-- Node13&#45;&gt;Node4 -->
<g id="edge13_Node000013_Node000004" class="edge">
<title>Node13&#45;&gt;Node4</title>
<g id="a_edge13_Node000013_Node000004"><a xlink:title=" ">
<path fill="none" stroke="#63b8ff" d="M839.24,-248.11C779.53,-243.23 656.71,-230.46 622.3,-206 594.89,-186.52 593.8,-172.54 585.3,-140 568.54,-75.82 660.21,-36.63 711.87,-19.93"/>
<polygon fill="#63b8ff" stroke="#63b8ff" points="713.12,-23.2 721.63,-16.89 711.04,-16.52 713.12,-23.2"/>
</a>
</g>
</g>
<!-- Node13&#45;&gt;Node7 -->
<g id="edge18_Node000013_Node000007" class="edge">
<title>Node13&#45;&gt;Node7</title>
<g id="a_edge18_Node000013_Node000007"><a xlink:title=" ">
<path fill="none" stroke="#63b8ff" d="M838.96,-248.71C774.68,-244.75 629.41,-233.35 510.3,-206 507.32,-205.32 504.25,-204.49 501.19,-203.6"/>
<polygon fill="#63b8ff" stroke="#63b8ff" points="502.21,-200.25 491.62,-200.55 500.08,-206.92 502.21,-200.25"/>
</a>
</g>
</g>
<!-- Node13&#45;&gt;Node8 -->
<g id="edge19_Node000013_Node000008" class="edge">
<title>Node13&#45;&gt;Node8</title>
<g id="a_edge19_Node000013_Node000008"><a xlink:title=" ">
<path fill="none" stroke="#63b8ff" d="M839.27,-247.11C786.1,-241.24 678.46,-227.71 589.3,-206 586.34,-205.28 583.28,-204.44 580.23,-203.55"/>
<polygon fill="#63b8ff" stroke="#63b8ff" points="581.24,-200.19 570.65,-200.54 579.14,-206.87 581.24,-200.19"/>
</a>
</g>
</g>
<!-- Node14 -->
<g id="Node000014" class="node">
<title>Node14</title>
<g id="a_Node000014"><a xlink:title=" ">
<polygon fill="#e0e0e0" stroke="#999999" points="1317.3,-19 1273.3,-19 1273.3,0 1317.3,0 1317.3,-19"/>
<text text-anchor="middle" x="1295.3" y="-7" font-family="Helvetica,sans-Serif" font-size="10.00">string</text>
</a>
</g>
</g>
<!-- Node13&#45;&gt;Node14 -->
<g id="edge14_Node000013_Node000014" class="edge">
<title>Node13&#45;&gt;Node14</title>
<g id="a_edge14_Node000013_Node000014"><a xlink:title=" ">
<path fill="none" stroke="#63b8ff" d="M894.63,-241.87C915.59,-233.5 947.64,-220.05 974.3,-206 996.56,-194.27 999.86,-187.37 1022.3,-176 1081.2,-146.16 1098.64,-144.61 1160.3,-121 1203.64,-104.41 1223.75,-115.98 1258.3,-85 1275.06,-69.97 1285.13,-45.63 1290.44,-28.88"/>
<polygon fill="#63b8ff" stroke="#63b8ff" points="1293.84,-29.73 1293.27,-19.15 1287.12,-27.78 1293.84,-29.73"/>
</a>
</g>
</g>
<!-- Node15 -->
<g id="Node000015" class="node">
<title>Node15</title>
<g id="a_Node000015"><a xlink:title=" ">
<polygon fill="#e0e0e0" stroke="#999999" points="873.8,-200.5 780.8,-200.5 780.8,-181.5 873.8,-181.5 873.8,-200.5"/>
<text text-anchor="middle" x="827.3" y="-188.5" font-family="Helvetica,sans-Serif" font-size="10.00">unordered_map</text>
</a>
</g>
</g>
<!-- Node13&#45;&gt;Node15 -->
<g id="edge15_Node000013_Node000015" class="edge">
<title>Node13&#45;&gt;Node15</title>
<g id="a_edge15_Node000013_Node000015"><a xlink:title=" ">
<path fill="none" stroke="#63b8ff" d="M865.66,-241.87C859.01,-233.23 848.61,-219.7 840.31,-208.92"/>
<polygon fill="#63b8ff" stroke="#63b8ff" points="842.84,-206.46 833.97,-200.67 837.29,-210.73 842.84,-206.46"/>
</a>
</g>
</g>
<!-- Node16 -->
<g id="Node000016" class="node">
<title>Node16</title>
<g id="a_Node000016"><a xlink:title=" ">
<polygon fill="#e0e0e0" stroke="#999999" points="1132.3,-200.5 1074.3,-200.5 1074.3,-181.5 1132.3,-181.5 1132.3,-200.5"/>
<text text-anchor="middle" x="1103.3" y="-188.5" font-family="Helvetica,sans-Serif" font-size="10.00">memory</text>
</a>
</g>
</g>
<!-- Node13&#45;&gt;Node16 -->
<g id="edge16_Node000013_Node000016" class="edge">
<title>Node13&#45;&gt;Node16</title>
<g id="a_edge16_Node000013_Node000016"><a xlink:title=" ">
<path fill="none" stroke="#63b8ff" d="M905.45,-243.52C943.18,-235.37 1006.53,-221.09 1060.3,-206 1062.9,-205.27 1065.59,-204.48 1068.28,-203.67"/>
<polygon fill="#63b8ff" stroke="#63b8ff" points="1069.44,-206.97 1077.94,-200.64 1067.35,-200.29 1069.44,-206.97"/>
</a>
</g>
</g>
<!-- Node17 -->
<g id="Node000017" class="node">
<title>Node17</title>
<g id="a_Node000017"><a xlink:title=" ">
<polygon fill="#e0e0e0" stroke="#999999" points="942.3,-200.5 892.3,-200.5 892.3,-181.5 942.3,-181.5 942.3,-200.5"/>
<text text-anchor="middle" x="917.3" y="-188.5" font-family="Helvetica,sans-Serif" font-size="10.00">ranges</text>
</a>
</g>
</g>
<!-- Node13&#45;&gt;Node17 -->
<g id="edge17_Node000013_Node000017" class="edge">
<title>Node13&#45;&gt;Node17</title>
<g id="a_edge17_Node000013_Node000017"><a xlink:title=" ">
<path fill="none" stroke="#63b8ff" d="M878.94,-241.87C885.59,-233.23 895.99,-219.7 904.29,-208.92"/>
<polygon fill="#63b8ff" stroke="#63b8ff" points="907.31,-210.73 910.63,-200.67 901.76,-206.46 907.31,-210.73"/>
</a>
</g>
</g>
<!-- Node18 -->
<g id="Node000018" class="node">
<title>Node18</title>
<g id="a_Node000018"><a xlink:href="exception_8h.html" target="_top" xlink:title=" ">
<polygon fill="white" stroke="#666666" points="1572.3,-79.5 1442.3,-79.5 1442.3,-60.5 1572.3,-60.5 1572.3,-79.5"/>
<text text-anchor="middle" x="1507.3" y="-67.5" font-family="Helvetica,sans-Serif" font-size="10.00">exceptions/exception.h</text>
</a>
</g>
</g>
<!-- Node13&#45;&gt;Node18 -->
<g id="edge20_Node000013_Node000018" class="edge">
<title>Node13&#45;&gt;Node18</title>
<g id="a_edge20_Node000013_Node000018"><a xlink:title=" ">
<path fill="none" stroke="#63b8ff" d="M905.31,-243.92C936.47,-236.97 984,-224.44 1022.3,-206 1043.3,-195.89 1044.04,-185.53 1065.3,-176 1187.46,-121.27 1341.9,-92.96 1432.14,-80.09"/>
<polygon fill="#63b8ff" stroke="#63b8ff" points="1432.86,-83.53 1442.28,-78.67 1431.89,-76.59 1432.86,-83.53"/>
</a>
</g>
</g>
<!-- Node21 -->
<g id="Node000021" class="node">
<title>Node21</title>
<g id="a_Node000021"><a xlink:href="logger_8h.html" target="_top" xlink:title=" ">
<polygon fill="white" stroke="#666666" points="1022.8,-140 939.8,-140 939.8,-121 1022.8,-121 1022.8,-140"/>
<text text-anchor="middle" x="981.3" y="-128" font-family="Helvetica,sans-Serif" font-size="10.00">tools/logger.h</text>
</a>
</g>
</g>
<!-- Node13&#45;&gt;Node21 -->
<g id="edge24_Node000013_Node000021" class="edge">
<title>Node13&#45;&gt;Node21</title>
<g id="a_edge24_Node000013_Node000021"><a xlink:title=" ">
<path fill="none" stroke="#63b8ff" d="M896.57,-241.88C913.86,-234.65 936.56,-222.8 951.3,-206 965.35,-189.99 973.31,-166.56 977.45,-150.27"/>
<polygon fill="#63b8ff" stroke="#63b8ff" points="980.91,-150.84 979.74,-140.31 974.09,-149.27 980.91,-150.84"/>
</a>
</g>
</g>
<!-- Node29 -->
<g id="Node000029" class="node">
<title>Node29</title>
<g id="a_Node000029"><a xlink:href="element__parameters_8h.html" target="_top" xlink:title=" ">
<polygon fill="white" stroke="#666666" points="762.8,-206 631.8,-206 631.8,-176 762.8,-176 762.8,-206"/>
<text text-anchor="start" x="639.8" y="-194" font-family="Helvetica,sans-Serif" font-size="10.00">element_parameters</text>
<text text-anchor="middle" x="697.3" y="-183" font-family="Helvetica,sans-Serif" font-size="10.00">/element_parameters.h</text>
</a>
</g>
</g>
<!-- Node13&#45;&gt;Node29 -->
<g id="edge39_Node000013_Node000029" class="edge">
<title>Node13&#45;&gt;Node29</title>
<g id="a_edge39_Node000013_Node000029"><a xlink:title=" ">
<path fill="none" stroke="#63b8ff" d="M846.85,-241.99C821.34,-233.46 781.32,-220.09 749.1,-209.32"/>
<polygon fill="#63b8ff" stroke="#63b8ff" points="749.97,-205.92 739.37,-206.06 747.75,-212.55 749.97,-205.92"/>
</a>
</g>
</g>
<!-- Node18&#45;&gt;Node14 -->
<g id="edge23_Node000018_Node000014" class="edge">
<title>Node18&#45;&gt;Node14</title>
<g id="a_edge23_Node000018_Node000014"><a xlink:title=" ">
<path fill="none" stroke="#63b8ff" d="M1476.47,-60.49C1436.65,-49.5 1367.65,-30.46 1327.27,-19.32"/>
<polygon fill="#63b8ff" stroke="#63b8ff" points="1327.99,-15.89 1317.42,-16.6 1326.12,-22.64 1327.99,-15.89"/>
</a>
</g>
</g>
<!-- Node19 -->
<g id="Node000019" class="node">
<title>Node19</title>
<g id="a_Node000019"><a xlink:title=" ">
<polygon fill="#e0e0e0" stroke="#999999" points="1570.3,-19 1520.3,-19 1520.3,0 1570.3,0 1570.3,-19"/>
<text text-anchor="middle" x="1545.3" y="-7" font-family="Helvetica,sans-Serif" font-size="10.00">cstdint</text>
</a>
</g>
</g>
<!-- Node18&#45;&gt;Node19 -->
<g id="edge21_Node000018_Node000019" class="edge">
<title>Node18&#45;&gt;Node19</title>
<g id="a_edge21_Node000018_Node000019"><a xlink:title=" ">
<path fill="none" stroke="#63b8ff" d="M1512.91,-60.37C1518.47,-51.81 1527.13,-38.47 1534.1,-27.74"/>
<polygon fill="#63b8ff" stroke="#63b8ff" points="1537.16,-29.46 1539.67,-19.17 1531.29,-25.65 1537.16,-29.46"/>
</a>
</g>
</g>
<!-- Node20 -->
<g id="Node000020" class="node">
<title>Node20</title>
<g id="a_Node000020"><a xlink:title=" ">
<polygon fill="#e0e0e0" stroke="#999999" points="1501.8,-19 1436.8,-19 1436.8,0 1501.8,0 1501.8,-19"/>
<text text-anchor="middle" x="1469.3" y="-7" font-family="Helvetica,sans-Serif" font-size="10.00">exception</text>
</a>
</g>
</g>
<!-- Node18&#45;&gt;Node20 -->
<g id="edge22_Node000018_Node000020" class="edge">
<title>Node18&#45;&gt;Node20</title>
<g id="a_edge22_Node000018_Node000020"><a xlink:title=" ">
<path fill="none" stroke="#63b8ff" d="M1501.69,-60.37C1496.14,-51.81 1487.47,-38.47 1480.5,-27.74"/>
<polygon fill="#63b8ff" stroke="#63b8ff" points="1483.31,-25.65 1474.93,-19.17 1477.44,-29.46 1483.31,-25.65"/>
</a>
</g>
</g>
<!-- Node21&#45;&gt;Node14 -->
<g id="edge26_Node000021_Node000014" class="edge">
<title>Node21&#45;&gt;Node14</title>
<g id="a_edge26_Node000021_Node000014"><a xlink:title=" ">
<path fill="none" stroke="#63b8ff" d="M1022.98,-125.15C1083.43,-118.31 1191.95,-103.84 1226.3,-85 1251.34,-71.27 1272.32,-45.08 1284.35,-27.7"/>
<polygon fill="#63b8ff" stroke="#63b8ff" points="1287.46,-29.35 1290.08,-19.09 1281.63,-25.47 1287.46,-29.35"/>
</a>
</g>
</g>
<!-- Node21&#45;&gt;Node18 -->
<g id="edge30_Node000021_Node000018" class="edge">
<title>Node21&#45;&gt;Node18</title>
<g id="a_edge30_Node000021_Node000018"><a xlink:title=" ">
<path fill="none" stroke="#63b8ff" d="M1023.02,-124.86C1111.61,-115.01 1319.63,-91.87 1432.04,-79.37"/>
<polygon fill="#63b8ff" stroke="#63b8ff" points="1432.73,-82.81 1442.28,-78.23 1431.96,-75.86 1432.73,-82.81"/>
</a>
</g>
</g>
<!-- Node22 -->
<g id="Node000022" class="node">
<title>Node22</title>
<g id="a_Node000022"><a xlink:title=" ">
<polygon fill="#e0e0e0" stroke="#999999" points="942.3,-79.5 882.3,-79.5 882.3,-60.5 942.3,-60.5 942.3,-79.5"/>
<text text-anchor="middle" x="912.3" y="-67.5" font-family="Helvetica,sans-Serif" font-size="10.00">iostream</text>
</a>
</g>
</g>
<!-- Node21&#45;&gt;Node22 -->
<g id="edge25_Node000021_Node000022" class="edge">
<title>Node21&#45;&gt;Node22</title>
<g id="a_edge25_Node000021_Node000022"><a xlink:title=" ">
<path fill="none" stroke="#63b8ff" d="M971.12,-120.87C960.42,-111.8 943.37,-97.34 930.37,-86.32"/>
<polygon fill="#63b8ff" stroke="#63b8ff" points="932.42,-83.46 922.52,-79.67 927.89,-88.8 932.42,-83.46"/>
</a>
</g>
</g>
<!-- Node23 -->
<g id="Node000023" class="node">
<title>Node23</title>
<g id="a_Node000023"><a xlink:title=" ">
<polygon fill="#e0e0e0" stroke="#999999" points="1249.3,-19 1199.3,-19 1199.3,0 1249.3,0 1249.3,-19"/>
<text text-anchor="middle" x="1224.3" y="-7" font-family="Helvetica,sans-Serif" font-size="10.00">chrono</text>
</a>
</g>
</g>
<!-- Node21&#45;&gt;Node23 -->
<g id="edge27_Node000021_Node000023" class="edge">
<title>Node21&#45;&gt;Node23</title>
<g id="a_edge27_Node000021_Node000023"><a xlink:title=" ">
<path fill="none" stroke="#63b8ff" d="M1022.92,-126.47C1080.29,-121.44 1179.55,-109.41 1205.3,-85 1220.26,-70.83 1224.08,-46.65 1224.77,-29.7"/>
<polygon fill="#63b8ff" stroke="#63b8ff" points="1228.27,-29.35 1224.83,-19.32 1221.27,-29.3 1228.27,-29.35"/>
</a>
</g>
</g>
<!-- Node24 -->
<g id="Node000024" class="node">
<title>Node24</title>
<g id="a_Node000024"><a xlink:title=" ">
<polygon fill="#e0e0e0" stroke="#999999" points="1016.3,-79.5 960.3,-79.5 960.3,-60.5 1016.3,-60.5 1016.3,-79.5"/>
<text text-anchor="middle" x="988.3" y="-67.5" font-family="Helvetica,sans-Serif" font-size="10.00">iomanip</text>
</a>
</g>
</g>
<!-- Node21&#45;&gt;Node24 -->
<g id="edge28_Node000021_Node000024" class="edge">
<title>Node21&#45;&gt;Node24</title>
<g id="a_edge28_Node000021_Node000024"><a xlink:title=" ">
<path fill="none" stroke="#63b8ff" d="M982.33,-120.87C983.31,-112.75 984.79,-100.31 986.04,-89.89"/>
<polygon fill="#63b8ff" stroke="#63b8ff" points="989.55,-90.01 987.26,-79.67 982.6,-89.18 989.55,-90.01"/>
</a>
</g>
</g>
<!-- Node25 -->
<g id="Node000025" class="node">
<title>Node25</title>
<g id="a_Node000025"><a xlink:title=" ">
<polygon fill="#e0e0e0" stroke="#999999" points="863.8,-85 756.8,-85 756.8,-55 863.8,-55 863.8,-85"/>
<text text-anchor="start" x="764.8" y="-73" font-family="Helvetica,sans-Serif" font-size="10.00">imgui&#45;platform&#45;kit</text>
<text text-anchor="middle" x="810.3" y="-62" font-family="Helvetica,sans-Serif" font-size="10.00">/log_window.h</text>
</a>
</g>
</g>
<!-- Node21&#45;&gt;Node25 -->
<g id="edge29_Node000021_Node000025" class="edge">
<title>Node21&#45;&gt;Node25</title>
<g id="a_edge29_Node000021_Node000025"><a xlink:title=" ">
<path fill="none" stroke="#63b8ff" d="M956.44,-120.99C931.5,-112.46 892.4,-99.09 860.91,-88.32"/>
<polygon fill="#63b8ff" stroke="#63b8ff" points="862.01,-84.99 851.41,-85.06 859.74,-91.61 862.01,-84.99"/>
</a>
</g>
</g>
<!-- Node21&#45;&gt;Node26 -->
<g id="edge31_Node000021_Node000026" class="edge">
<title>Node21&#45;&gt;Node26</title>
<g id="a_edge31_Node000021_Node000026"><a xlink:title=" ">
<path fill="none" stroke="#63b8ff" d="M939.44,-121.63C892.61,-112.8 814.49,-98.01 747.3,-85 735.09,-82.64 721.71,-80.01 709.88,-77.67"/>
<polygon fill="#63b8ff" stroke="#63b8ff" points="710.45,-74.21 699.96,-75.71 709.09,-81.08 710.45,-74.21"/>
</a>
</g>
</g>
<!-- Node26&#45;&gt;Node4 -->
<g id="edge33_Node000026_Node000004" class="edge">
<title>Node26&#45;&gt;Node4</title>
<g id="a_edge33_Node000026_Node000004"><a xlink:title=" ">
<path fill="none" stroke="#63b8ff" d="M686.48,-60.37C697.18,-51.3 714.24,-36.84 727.23,-25.82"/>
<polygon fill="#63b8ff" stroke="#63b8ff" points="729.71,-28.3 735.08,-19.17 725.19,-22.96 729.71,-28.3"/>
</a>
</g>
</g>
<!-- Node26&#45;&gt;Node10 -->
<g id="edge34_Node000026_Node000010" class="edge">
<title>Node26&#45;&gt;Node10</title>
<g id="a_edge34_Node000026_Node000010"><a xlink:title=" ">
<path fill="none" stroke="#63b8ff" d="M652.78,-65.6C585.33,-55.86 390.9,-27.77 308.7,-15.9"/>
<polygon fill="#63b8ff" stroke="#63b8ff" points="308.95,-12.4 298.56,-14.44 307.95,-19.33 308.95,-12.4"/>
</a>
</g>
</g>
<!-- Node26&#45;&gt;Node12 -->
<g id="edge36_Node000026_Node000012" class="edge">
<title>Node26&#45;&gt;Node12</title>
<g id="a_edge36_Node000026_Node000012"><a xlink:title=" ">
<path fill="none" stroke="#63b8ff" d="M676.3,-60.37C676.3,-52.25 676.3,-39.81 676.3,-29.39"/>
<polygon fill="#63b8ff" stroke="#63b8ff" points="679.8,-29.17 676.3,-19.17 672.8,-29.17 679.8,-29.17"/>
</a>
</g>
</g>
<!-- Node26&#45;&gt;Node14 -->
<g id="edge32_Node000026_Node000014" class="edge">
<title>Node26&#45;&gt;Node14</title>
<g id="a_edge32_Node000026_Node000014"><a xlink:title=" ">
<path fill="none" stroke="#63b8ff" d="M696.1,-60.49C701.87,-58.34 708.25,-56.29 714.3,-55 951.31,-4.6 1018.57,-54.24 1258.3,-19 1259.81,-18.78 1261.35,-18.53 1262.9,-18.25"/>
<polygon fill="#63b8ff" stroke="#63b8ff" points="1263.99,-21.6 1273.11,-16.2 1262.61,-14.74 1263.99,-21.6"/>
</a>
</g>
</g>
<!-- Node26&#45;&gt;Node23 -->
<g id="edge37_Node000026_Node000023" class="edge">
<title>Node26&#45;&gt;Node23</title>
<g id="a_edge37_Node000026_Node000023"><a xlink:title=" ">
<path fill="none" stroke="#63b8ff" d="M696.51,-60.42C702.18,-58.33 708.4,-56.32 714.3,-55 805.21,-34.67 1089.16,-17.8 1189.09,-12.35"/>
<polygon fill="#63b8ff" stroke="#63b8ff" points="1189.46,-15.84 1199.26,-11.8 1189.09,-8.85 1189.46,-15.84"/>
</a>
</g>
</g>
<!-- Node27 -->
<g id="Node000027" class="node">
<title>Node27</title>
<g id="a_Node000027"><a xlink:title=" ">
<polygon fill="#e0e0e0" stroke="#999999" points="630.3,-19 574.3,-19 574.3,0 630.3,0 630.3,-19"/>
<text text-anchor="middle" x="602.3" y="-7" font-family="Helvetica,sans-Serif" font-size="10.00">sstream</text>
</a>
</g>
</g>
<!-- Node26&#45;&gt;Node27 -->
<g id="edge35_Node000026_Node000027" class="edge">
<title>Node26&#45;&gt;Node27</title>
<g id="a_edge35_Node000026_Node000027"><a xlink:title=" ">
<path fill="none" stroke="#63b8ff" d="M665.38,-60.37C653.8,-51.21 635.27,-36.56 621.28,-25.51"/>
<polygon fill="#63b8ff" stroke="#63b8ff" points="623.28,-22.62 613.26,-19.17 618.94,-28.11 623.28,-22.62"/>
</a>
</g>
</g>
<!-- Node28 -->
<g id="Node000028" class="node">
<title>Node28</title>
<g id="a_Node000028"><a xlink:title=" ">
<polygon fill="#e0e0e0" stroke="#999999" points="1018.3,-19 950.3,-19 950.3,0 1018.3,0 1018.3,-19"/>
<text text-anchor="middle" x="984.3" y="-7" font-family="Helvetica,sans-Serif" font-size="10.00">filesystem</text>
</a>
</g>
</g>
<!-- Node26&#45;&gt;Node28 -->
<g id="edge38_Node000026_Node000028" class="edge">
<title>Node26&#45;&gt;Node28</title>
<g id="a_edge38_Node000026_Node000028"><a xlink:title=" ">
<path fill="none" stroke="#63b8ff" d="M697.38,-60.43C702.83,-58.44 708.73,-56.47 714.3,-55 792.46,-34.36 886,-21.5 939.95,-15.19"/>
<polygon fill="#63b8ff" stroke="#63b8ff" points="940.66,-18.64 950.19,-14.02 939.86,-11.68 940.66,-18.64"/>
</a>
</g>
</g>
<!-- Node29&#45;&gt;Node14 -->
<g id="edge41_Node000029_Node000014" class="edge">
<title>Node29&#45;&gt;Node14</title>
<g id="a_edge41_Node000029_Node000014"><a xlink:title=" ">
<path fill="none" stroke="#63b8ff" d="M700.56,-175.6C708.03,-143.96 727.3,-69.99 747.3,-55 792.85,-20.86 1202.01,-27.4 1258.3,-19 1259.81,-18.78 1261.35,-18.52 1262.89,-18.25"/>
<polygon fill="#63b8ff" stroke="#63b8ff" points="1263.99,-21.6 1273.1,-16.19 1262.61,-14.73 1263.99,-21.6"/>
</a>
</g>
</g>
<!-- Node29&#45;&gt;Node21 -->
<g id="edge43_Node000029_Node000021" class="edge">
<title>Node29&#45;&gt;Node21</title>
<g id="a_edge43_Node000029_Node000021"><a xlink:title=" ">
<path fill="none" stroke="#63b8ff" d="M762.81,-176.51C813.63,-166.04 883.09,-151.73 929.93,-142.08"/>
<polygon fill="#63b8ff" stroke="#63b8ff" points="930.77,-145.48 939.86,-140.04 929.36,-138.63 930.77,-145.48"/>
</a>
</g>
</g>
<!-- Node30 -->
<g id="Node000030" class="node">
<title>Node30</title>
<g id="a_Node000030"><a xlink:title=" ">
<polygon fill="#e0e0e0" stroke="#999999" points="632.3,-140 594.3,-140 594.3,-121 632.3,-121 632.3,-140"/>
<text text-anchor="middle" x="613.3" y="-128" font-family="Helvetica,sans-Serif" font-size="10.00">map</text>
</a>
</g>
</g>
<!-- Node29&#45;&gt;Node30 -->
<g id="edge40_Node000029_Node000030" class="edge">
<title>Node29&#45;&gt;Node30</title>
<g id="a_edge40_Node000029_Node000030"><a xlink:title=" ">
<path fill="none" stroke="#63b8ff" d="M676.97,-175.84C664.03,-166.83 647.31,-155.18 634.25,-146.09"/>
<polygon fill="#63b8ff" stroke="#63b8ff" points="636.09,-143.11 625.89,-140.27 632.09,-148.85 636.09,-143.11"/>
</a>
</g>
</g>
<!-- Node31 -->
<g id="Node000031" class="node">
<title>Node31</title>
<g id="a_Node000031"><a xlink:title=" ">
<polygon fill="#e0e0e0" stroke="#999999" points="700.3,-140 650.3,-140 650.3,-121 700.3,-121 700.3,-140"/>
<text text-anchor="middle" x="675.3" y="-128" font-family="Helvetica,sans-Serif" font-size="10.00">format</text>
</a>
</g>
</g>
<!-- Node29&#45;&gt;Node31 -->
<g id="edge42_Node000029_Node000031" class="edge">
<title>Node29&#45;&gt;Node31</title>
<g id="a_edge42_Node000029_Node000031"><a xlink:title=" ">
<path fill="none" stroke="#63b8ff" d="M691.98,-175.84C689.04,-168.04 685.37,-158.27 682.22,-149.89"/>
<polygon fill="#63b8ff" stroke="#63b8ff" points="685.39,-148.39 678.6,-140.27 678.84,-150.86 685.39,-148.39"/>
</a>
</g>
</g>
<!-- Node32&#45;&gt;Node13 -->
<g id="edge45_Node000032_Node000013" class="edge">
<title>Node32&#45;&gt;Node13</title>
<g id="a_edge45_Node000032_Node000013"><a xlink:title=" ">
<path fill="none" stroke="#63b8ff" d="M919.13,-351.66C910.76,-333.93 891.77,-293.73 880.72,-270.32"/>
<polygon fill="#63b8ff" stroke="#63b8ff" points="883.82,-268.71 876.39,-261.16 877.5,-271.7 883.82,-268.71"/>
</a>
</g>
</g>
<!-- Node33 -->
<g id="Node000033" class="node">
<title>Node33</title>
<g id="a_Node000033"><a xlink:href="activation__function_8h.html" target="_top" xlink:title=" ">
<polygon fill="white" stroke="#666666" points="1118.8,-316 999.8,-316 999.8,-297 1118.8,-297 1118.8,-316"/>
<text text-anchor="middle" x="1059.3" y="-304" font-family="Helvetica,sans-Serif" font-size="10.00">activation_function.h</text>
</a>
</g>
</g>
<!-- Node32&#45;&gt;Node33 -->
<g id="edge46_Node000032_Node000033" class="edge">
<title>Node32&#45;&gt;Node33</title>
<g id="a_edge46_Node000032_Node000033"><a xlink:title=" ">
<path fill="none" stroke="#63b8ff" d="M945.15,-351.98C967.42,-343.3 1002.2,-329.75 1027.52,-319.88"/>
<polygon fill="#63b8ff" stroke="#63b8ff" points="1029.01,-323.06 1037.05,-316.17 1026.46,-316.54 1029.01,-323.06"/>
</a>
</g>
</g>
<!-- Node34 -->
<g id="Node000034" class="node">
<title>Node34</title>
<g id="a_Node000034"><a xlink:href="simulation_8h.html" target="_top" xlink:title=" ">
<polygon fill="white" stroke="#666666" points="1336.3,-316 1204.3,-316 1204.3,-297 1336.3,-297 1336.3,-316"/>
<text text-anchor="middle" x="1270.3" y="-304" font-family="Helvetica,sans-Serif" font-size="10.00">simulation/simulation.h</text>
</a>
</g>
</g>
<!-- Node32&#45;&gt;Node34 -->
<g id="edge50_Node000032_Node000034" class="edge">
<title>Node32&#45;&gt;Node34</title>
<g id="a_edge50_Node000032_Node000034"><a xlink:title=" ">
<path fill="none" stroke="#63b8ff" d="M964.81,-354.16C1024.14,-345.1 1133.78,-328.35 1204.3,-317.58"/>
<polygon fill="#63b8ff" stroke="#63b8ff" points="1205.06,-321.01 1214.42,-316.04 1204,-314.09 1205.06,-321.01"/>
</a>
</g>
</g>
<!-- Node36 -->
<g id="Node000036" class="node">
<title>Node36</title>
<g id="a_Node000036"><a xlink:href="kernel_8h.html" target="_top" xlink:title=" ">
<polygon fill="white" stroke="#666666" points="825.3,-316 721.3,-316 721.3,-297 825.3,-297 825.3,-316"/>
<text text-anchor="middle" x="773.3" y="-304" font-family="Helvetica,sans-Serif" font-size="10.00">elements/kernel.h</text>
</a>
</g>
</g>
<!-- Node32&#45;&gt;Node36 -->
<g id="edge63_Node000032_Node000036" class="edge">
<title>Node32&#45;&gt;Node36</title>
<g id="a_edge63_Node000032_Node000036"><a xlink:title=" ">
<path fill="none" stroke="#63b8ff" d="M899.2,-351.98C874.42,-343.23 835.6,-329.51 807.61,-319.62"/>
<polygon fill="#63b8ff" stroke="#63b8ff" points="808.43,-316.2 797.84,-316.17 806.1,-322.8 808.43,-316.2"/>
</a>
</g>
</g>
<!-- Node33&#45;&gt;Node3 -->
<g id="edge49_Node000033_Node000003" class="edge">
<title>Node33&#45;&gt;Node3</title>
<g id="a_edge49_Node000033_Node000003"><a xlink:title=" ">
<path fill="none" stroke="#63b8ff" d="M999.52,-301.39C852.3,-291.25 474.37,-265.24 338.71,-255.9"/>
<polygon fill="#63b8ff" stroke="#63b8ff" points="338.82,-252.4 328.61,-255.21 338.34,-259.38 338.82,-252.4"/>
</a>
</g>
</g>
<!-- Node33&#45;&gt;Node14 -->
<g id="edge47_Node000033_Node000014" class="edge">
<title>Node33&#45;&gt;Node14</title>
<g id="a_edge47_Node000033_Node000014"><a xlink:title=" ">
<path fill="none" stroke="#63b8ff" d="M1079.09,-296.9C1095.89,-289.03 1120.11,-276.3 1138.3,-261 1215.67,-195.97 1240.24,-176.9 1282.3,-85 1290.4,-67.31 1293.48,-45.13 1294.64,-29.59"/>
<polygon fill="#63b8ff" stroke="#63b8ff" points="1298.15,-29.36 1295.2,-19.18 1291.16,-28.98 1298.15,-29.36"/>
</a>
</g>
</g>
<!-- Node33&#45;&gt;Node21 -->
<g id="edge48_Node000033_Node000021" class="edge">
<title>Node33&#45;&gt;Node21</title>
<g id="a_edge48_Node000033_Node000021"><a xlink:title=" ">
<path fill="none" stroke="#63b8ff" d="M1072.14,-296.99C1102.57,-275.79 1174.14,-219.22 1141.3,-176 1134.45,-166.98 1075.74,-152.27 1031.41,-142.25"/>
<polygon fill="#63b8ff" stroke="#63b8ff" points="1032.15,-138.83 1021.62,-140.06 1030.62,-145.66 1032.15,-138.83"/>
</a>
</g>
</g>
<!-- Node34&#45;&gt;Node4 -->
<g id="edge51_Node000034_Node000004" class="edge">
<title>Node34&#45;&gt;Node4</title>
<g id="a_edge51_Node000034_Node000004"><a xlink:title=" ">
<path fill="none" stroke="#63b8ff" d="M1264.09,-296.63C1255.22,-284.12 1238.24,-260.74 1222.3,-242 1196.03,-211.11 1188.37,-204.27 1159.3,-176 1144.92,-162.01 1043.4,-63.65 1025.3,-55 943.29,-15.78 833.88,-9.99 779.29,-9.81"/>
<polygon fill="#63b8ff" stroke="#63b8ff" points="779.11,-6.31 769.12,-9.84 779.13,-13.31 779.11,-6.31"/>
</a>
</g>
</g>
<!-- Node34&#45;&gt;Node13 -->
<g id="edge56_Node000034_Node000013" class="edge">
<title>Node34&#45;&gt;Node13</title>
<g id="a_edge56_Node000034_Node000013"><a xlink:title=" ">
<path fill="none" stroke="#63b8ff" d="M1206.36,-296.98C1124.74,-286.12 985.73,-267.61 915.56,-258.26"/>
<polygon fill="#63b8ff" stroke="#63b8ff" points="915.69,-254.75 905.31,-256.9 914.76,-261.69 915.69,-254.75"/>
</a>
</g>
</g>
<!-- Node34&#45;&gt;Node14 -->
<g id="edge53_Node000034_Node000014" class="edge">
<title>Node34&#45;&gt;Node14</title>
<g id="a_edge53_Node000034_Node000014"><a xlink:title=" ">
<path fill="none" stroke="#63b8ff" d="M1333.15,-296.96C1428.89,-282.17 1600.3,-247.89 1600.3,-192 1600.3,-192 1600.3,-192 1600.3,-129.5 1600.3,-95.33 1606.59,-77.98 1581.3,-55 1562.69,-38.08 1398.24,-20.41 1327.47,-13.51"/>
<polygon fill="#63b8ff" stroke="#63b8ff" points="1327.63,-10.01 1317.34,-12.53 1326.96,-16.97 1327.63,-10.01"/>
</a>
</g>
</g>
<!-- Node34&#45;&gt;Node16 -->
<g id="edge52_Node000034_Node000016" class="edge">
<title>Node34&#45;&gt;Node16</title>
<g id="a_edge52_Node000034_Node000016"><a xlink:title=" ">
<path fill="none" stroke="#63b8ff" d="M1250.81,-296.97C1232.9,-288.78 1205.93,-275.53 1184.3,-261 1160.27,-244.86 1135.32,-222.63 1119.57,-207.81"/>
<polygon fill="#63b8ff" stroke="#63b8ff" points="1121.88,-205.17 1112.22,-200.81 1117.04,-210.24 1121.88,-205.17"/>
</a>
</g>
</g>
<!-- Node34&#45;&gt;Node18 -->
<g id="edge57_Node000034_Node000018" class="edge">
<title>Node34&#45;&gt;Node18</title>
<g id="a_edge57_Node000034_Node000018"><a xlink:title=" ">
<path fill="none" stroke="#63b8ff" d="M1323.29,-296.99C1349.37,-290.63 1379.93,-279.67 1402.3,-261 1459.18,-213.52 1490.62,-126.91 1502.15,-89.28"/>
<polygon fill="#63b8ff" stroke="#63b8ff" points="1505.52,-90.23 1504.99,-79.65 1498.81,-88.25 1505.52,-90.23"/>
</a>
</g>
</g>
<!-- Node34&#45;&gt;Node23 -->
<g id="edge55_Node000034_Node000023" class="edge">
<title>Node34&#45;&gt;Node23</title>
<g id="a_edge55_Node000034_Node000023"><a xlink:title=" ">
<path fill="none" stroke="#63b8ff" d="M1310.92,-296.99C1330.62,-290.59 1352.52,-279.61 1364.3,-261 1397.58,-208.43 1369.89,-182.97 1364.3,-121 1361.62,-91.31 1371.69,-77.65 1352.3,-55 1340.03,-40.67 1292.88,-26.82 1259.38,-18.48"/>
<polygon fill="#63b8ff" stroke="#63b8ff" points="1260.02,-15.04 1249.48,-16.08 1258.37,-21.84 1260.02,-15.04"/>
</a>
</g>
</g>
<!-- Node34&#45;&gt;Node26 -->
<g id="edge58_Node000034_Node000026" class="edge">
<title>Node34&#45;&gt;Node26</title>
<g id="a_edge58_Node000034_Node000026"><a xlink:title=" ">
<path fill="none" stroke="#63b8ff" d="M1260.57,-296.81C1250.76,-287.96 1235.25,-273.77 1222.3,-261 1185.15,-224.35 1187.36,-200.52 1141.3,-176 1057.33,-131.29 1023.2,-160.49 930.3,-140 850.32,-122.36 757.81,-95.59 709.53,-81.13"/>
<polygon fill="#63b8ff" stroke="#63b8ff" points="710.51,-77.77 699.92,-78.24 708.49,-84.47 710.51,-77.77"/>
</a>
</g>
</g>
<!-- Node34&#45;&gt;Node28 -->
<g id="edge54_Node000034_Node000028" class="edge">
<title>Node34&#45;&gt;Node28</title>
<g id="a_edge54_Node000034_Node000028"><a xlink:title=" ">
<path fill="none" stroke="#63b8ff" d="M1273.65,-296.8C1276.86,-287.94 1281.48,-273.75 1283.3,-261 1284.5,-252.64 1284.18,-250.4 1283.3,-242 1273.91,-152.44 1277.45,-108.89 1205.3,-55 1177.92,-34.55 1085.06,-21.29 1028.79,-14.93"/>
<polygon fill="#63b8ff" stroke="#63b8ff" points="1029.06,-11.44 1018.73,-13.82 1028.29,-18.4 1029.06,-11.44"/>
</a>
</g>
</g>
<!-- Node35 -->
<g id="Node000035" class="node">
<title>Node35</title>
<g id="a_Node000035"><a xlink:href="simulation__recorder_8h.html" target="_top" xlink:title=" ">
<polygon fill="white" stroke="#666666" points="1195.8,-85 1072.8,-85 1072.8,-55 1195.8,-55 1195.8,-85"/>
<text text-anchor="start" x="1080.8" y="-73" font-family="Helvetica,sans-Serif" font-size="10.00">simulation/simulation</text>
<text text-anchor="middle" x="1134.3" y="-62" font-family="Helvetica,sans-Serif" font-size="10.00">_recorder.h</text>
</a>
</g>
</g>
<!-- Node34&#45;&gt;Node35 -->
<g id="edge59_Node000034_Node000035" class="edge">
<title>Node34&#45;&gt;Node35</title>
<g id="a_edge59_Node000034_Node000035"><a xlink:title=" ">
<path fill="none" stroke="#63b8ff" d="M1270.89,-296.7C1271.94,-274.83 1272.31,-216.86 1250.3,-176 1230.65,-139.53 1193.25,-109.25 1166.22,-90.73"/>
<polygon fill="#63b8ff" stroke="#63b8ff" points="1168.1,-87.78 1157.84,-85.14 1164.22,-93.6 1168.1,-87.78"/>
</a>
</g>
</g>
<!-- Node35&#45;&gt;Node4 -->
<g id="edge61_Node000035_Node000004" class="edge">
<title>Node35&#45;&gt;Node4</title>
<g id="a_edge61_Node000035_Node000004"><a xlink:title=" ">
<path fill="none" stroke="#63b8ff" d="M1072.54,-57.4C1067.72,-56.57 1062.94,-55.76 1058.3,-55 956.82,-38.45 836.25,-22.29 778.87,-14.81"/>
<polygon fill="#63b8ff" stroke="#63b8ff" points="779.28,-11.34 768.91,-13.52 778.38,-18.28 779.28,-11.34"/>
</a>
</g>
</g>
<!-- Node35&#45;&gt;Node12 -->
<g id="edge62_Node000035_Node000012" class="edge">
<title>Node35&#45;&gt;Node12</title>
<g id="a_edge62_Node000035_Node000012"><a xlink:title=" ">
<path fill="none" stroke="#63b8ff" d="M1072.64,-60.94C1057.19,-58.95 1040.64,-56.87 1025.3,-55 889.56,-38.48 851.98,-42.91 714.24,-19.17"/>
<polygon fill="#63b8ff" stroke="#63b8ff" points="714.59,-15.68 704.14,-17.41 713.39,-22.58 714.59,-15.68"/>
</a>
</g>
</g>
<!-- Node35&#45;&gt;Node14 -->
<g id="edge60_Node000035_Node000014" class="edge">
<title>Node35&#45;&gt;Node14</title>
<g id="a_edge60_Node000035_Node000014"><a xlink:title=" ">
<path fill="none" stroke="#63b8ff" d="M1172.86,-54.99C1200.58,-44.92 1237.5,-31.5 1263.53,-22.05"/>
<polygon fill="#63b8ff" stroke="#63b8ff" points="1264.72,-25.34 1272.93,-18.63 1262.33,-18.76 1264.72,-25.34"/>
</a>
</g>
</g>
<!-- Node36&#45;&gt;Node5 -->
<g id="edge65_Node000036_Node000005" class="edge">
<title>Node36&#45;&gt;Node5</title>
<g id="a_edge65_Node000036_Node000005"><a xlink:title=" ">
<path fill="none" stroke="#63b8ff" d="M736.94,-297C673.37,-281.7 538.33,-247.25 428.3,-206 427.25,-205.61 426.19,-205.19 425.12,-204.76"/>
<polygon fill="#63b8ff" stroke="#63b8ff" points="426.12,-201.38 415.55,-200.61 423.33,-207.8 426.12,-201.38"/>
</a>
</g>
</g>
<!-- Node36&#45;&gt;Node13 -->
<g id="edge64_Node000036_Node000013" class="edge">
<title>Node36&#45;&gt;Node13</title>
<g id="a_edge64_Node000036_Node000013"><a xlink:title=" ">
<path fill="none" stroke="#63b8ff" d="M789.21,-296.98C804.85,-288.61 828.96,-275.7 847.19,-265.95"/>
<polygon fill="#63b8ff" stroke="#63b8ff" points="848.94,-268.98 856.11,-261.17 845.64,-262.8 848.94,-268.98"/>
</a>
</g>
</g>
</g>
</svg>
