<?xml version="1.0" encoding="UTF-8" standalone="no"?>
<!DOCTYPE svg PUBLIC "-//W3C//DTD SVG 1.1//EN"
 "http://www.w3.org/Graphics/SVG/1.1/DTD/svg11.dtd">
<!-- Generated by graphviz version 2.43.0 (0)
 -->
<!-- Title: src/elements/field_coupling.cpp Pages: 1 -->
<svg width="1555pt" height="500pt"
 viewBox="0.00 0.00 1555.15 500.00" xmlns="http://www.w3.org/2000/svg" xmlns:xlink="http://www.w3.org/1999/xlink">
<g id="graph0" class="graph" transform="scale(1 1) rotate(0) translate(4 496)">
<title>src/elements/field_coupling.cpp</title>
<!-- Node1 -->
<g id="Node000001" class="node">
<title>Node1</title>
<g id="a_Node000001"><a xlink:title=" ">
<polygon fill="#999999" stroke="#666666" points="1536.15,-492 1432.15,-492 1432.15,-462 1536.15,-462 1536.15,-492"/>
<text text-anchor="start" x="1440.15" y="-480" font-family="Helvetica,sans-Serif" font-size="10.00">src/elements/field</text>
<text text-anchor="middle" x="1484.15" y="-469" font-family="Helvetica,sans-Serif" font-size="10.00">_coupling.cpp</text>
</a>
</g>
</g>
<!-- Node2 -->
<g id="Node000002" class="node">
<title>Node2</title>
<g id="a_Node000002"><a xlink:href="field__coupling_8h.html" target="_top" xlink:title=" ">
<polygon fill="white" stroke="#666666" points="1506.15,-426 1364.15,-426 1364.15,-407 1506.15,-407 1506.15,-426"/>
<text text-anchor="middle" x="1435.15" y="-414" font-family="Helvetica,sans-Serif" font-size="10.00">elements/field_coupling.h</text>
</a>
</g>
</g>
<!-- Node1&#45;&gt;Node2 -->
<g id="edge1_Node000001_Node000002" class="edge">
<title>Node1&#45;&gt;Node2</title>
<g id="a_edge1_Node000001_Node000002"><a xlink:title=" ">
<path fill="none" stroke="#63b8ff" d="M1472.29,-461.84C1465.25,-453.43 1456.29,-442.74 1448.94,-433.96"/>
<polygon fill="#63b8ff" stroke="#63b8ff" points="1451.6,-431.68 1442.49,-426.27 1446.23,-436.18 1451.6,-431.68"/>
</a>
</g>
</g>
<!-- Node26 -->
<g id="Node000026" class="node">
<title>Node26</title>
<g id="a_Node000026"><a xlink:href="utils_8h.html" target="_top" xlink:title=" ">
<polygon fill="white" stroke="#666666" points="816.65,-79.5 769.65,-79.5 769.65,-60.5 816.65,-60.5 816.65,-79.5"/>
<text text-anchor="middle" x="793.15" y="-67.5" font-family="Helvetica,sans-Serif" font-size="10.00">utils.h</text>
</a>
</g>
</g>
<!-- Node1&#45;&gt;Node26 -->
<g id="edge64_Node000001_Node000026" class="edge">
<title>Node1&#45;&gt;Node26</title>
<g id="a_edge64_Node000001_Node000026"><a xlink:title=" ">
<path fill="none" stroke="#63b8ff" d="M1498.13,-461.98C1516.69,-441.82 1547.15,-402.62 1547.15,-362.5 1547.15,-362.5 1547.15,-362.5 1547.15,-250.5 1547.15,-100.35 974.16,-75.58 827.18,-71.69"/>
<polygon fill="#63b8ff" stroke="#63b8ff" points="827.04,-68.19 816.96,-71.44 826.87,-75.18 827.04,-68.19"/>
</a>
</g>
</g>
<!-- Node3 -->
<g id="Node000003" class="node">
<title>Node3</title>
<g id="a_Node000003"><a xlink:title=" ">
<polygon fill="#e0e0e0" stroke="#999999" points="1481.15,-371 1449.15,-371 1449.15,-352 1481.15,-352 1481.15,-371"/>
<text text-anchor="middle" x="1465.15" y="-359" font-family="Helvetica,sans-Serif" font-size="10.00">set</text>
</a>
</g>
</g>
<!-- Node2&#45;&gt;Node3 -->
<g id="edge2_Node000002_Node000003" class="edge">
<title>Node2&#45;&gt;Node3</title>
<g id="a_edge2_Node000002_Node000003"><a xlink:title=" ">
<path fill="none" stroke="#63b8ff" d="M1440.1,-406.75C1444.21,-399.49 1450.18,-388.95 1455.25,-379.98"/>
<polygon fill="#63b8ff" stroke="#63b8ff" points="1458.41,-381.52 1460.29,-371.09 1452.32,-378.07 1458.41,-381.52"/>
</a>
</g>
</g>
<!-- Node4 -->
<g id="Node000004" class="node">
<title>Node4</title>
<g id="a_Node000004"><a xlink:href="math_8h.html" target="_top" xlink:title=" ">
<polygon fill="white" stroke="#666666" points="1241.15,-261 1163.15,-261 1163.15,-242 1241.15,-242 1241.15,-261"/>
<text text-anchor="middle" x="1202.15" y="-249" font-family="Helvetica,sans-Serif" font-size="10.00">tools/math.h</text>
</a>
</g>
</g>
<!-- Node2&#45;&gt;Node4 -->
<g id="edge3_Node000002_Node000004" class="edge">
<title>Node2&#45;&gt;Node4</title>
<g id="a_edge3_Node000002_Node000004"><a xlink:title=" ">
<path fill="none" stroke="#63b8ff" d="M1452.27,-406.9C1473.46,-395.08 1505.04,-372.91 1490.15,-352 1435.73,-275.63 1318.59,-257.32 1251.68,-253.27"/>
<polygon fill="#63b8ff" stroke="#63b8ff" points="1251.55,-249.76 1241.39,-252.74 1251.19,-256.75 1251.55,-249.76"/>
</a>
</g>
</g>
<!-- Node14 -->
<g id="Node000014" class="node">
<title>Node14</title>
<g id="a_Node000014"><a xlink:href="element_8h.html" target="_top" xlink:title=" ">
<polygon fill="white" stroke="#666666" points="749.15,-261 683.15,-261 683.15,-242 749.15,-242 749.15,-261"/>
<text text-anchor="middle" x="716.15" y="-249" font-family="Helvetica,sans-Serif" font-size="10.00">element.h</text>
</a>
</g>
</g>
<!-- Node2&#45;&gt;Node14 -->
<g id="edge14_Node000002_Node000014" class="edge">
<title>Node2&#45;&gt;Node14</title>
<g id="a_edge14_Node000002_Node000014"><a xlink:title=" ">
<path fill="none" stroke="#63b8ff" d="M1397.51,-406.97C1275.13,-379.22 888.98,-291.68 759.19,-262.26"/>
<polygon fill="#63b8ff" stroke="#63b8ff" points="759.74,-258.79 749.22,-260 758.2,-265.62 759.74,-258.79"/>
</a>
</g>
</g>
<!-- Node2&#45;&gt;Node26 -->
<g id="edge63_Node000002_Node000026" class="edge">
<title>Node2&#45;&gt;Node26</title>
<g id="a_edge63_Node000002_Node000026"><a xlink:title=" ">
<path fill="none" stroke="#63b8ff" d="M1434.99,-406.78C1434.09,-367.74 1428.41,-209.51 1395.15,-176 1314.5,-94.77 942.08,-75.88 827.07,-71.95"/>
<polygon fill="#63b8ff" stroke="#63b8ff" points="826.87,-68.44 816.76,-71.61 826.65,-75.43 826.87,-68.44"/>
</a>
</g>
</g>
<!-- Node32 -->
<g id="Node000032" class="node">
<title>Node32</title>
<g id="a_Node000032"><a xlink:href="neural__field_8h.html" target="_top" xlink:title=" ">
<polygon fill="white" stroke="#666666" points="717.65,-371 634.65,-371 634.65,-352 717.65,-352 717.65,-371"/>
<text text-anchor="middle" x="676.15" y="-359" font-family="Helvetica,sans-Serif" font-size="10.00">neural_field.h</text>
</a>
</g>
</g>
<!-- Node2&#45;&gt;Node32 -->
<g id="edge45_Node000002_Node000032" class="edge">
<title>Node2&#45;&gt;Node32</title>
<g id="a_edge45_Node000002_Node000032"><a xlink:title=" ">
<path fill="none" stroke="#63b8ff" d="M1364.09,-410.54C1212.67,-399.96 861.25,-375.43 728.34,-366.14"/>
<polygon fill="#63b8ff" stroke="#63b8ff" points="728.25,-362.63 718.03,-365.42 727.76,-369.61 728.25,-362.63"/>
</a>
</g>
</g>
<!-- Node4&#45;&gt;Node4 -->
<g id="edge7_Node000004_Node000004" class="edge">
<title>Node4&#45;&gt;Node4</title>
<g id="a_edge7_Node000004_Node000004"><a xlink:title=" ">
<path fill="none" stroke="#63b8ff" d="M1228.83,-261.03C1244.49,-263.06 1259.15,-259.88 1259.15,-251.5 1259.15,-244.95 1250.2,-241.58 1238.82,-241.38"/>
<polygon fill="#63b8ff" stroke="#63b8ff" points="1238.61,-237.89 1228.83,-241.97 1239.02,-244.88 1238.61,-237.89"/>
</a>
</g>
</g>
<!-- Node5 -->
<g id="Node000005" class="node">
<title>Node5</title>
<g id="a_Node000005"><a xlink:title=" ">
<polygon fill="#e0e0e0" stroke="#999999" points="908.65,-19 861.65,-19 861.65,0 908.65,0 908.65,-19"/>
<text text-anchor="middle" x="885.15" y="-7" font-family="Helvetica,sans-Serif" font-size="10.00">vector</text>
</a>
</g>
</g>
<!-- Node4&#45;&gt;Node5 -->
<g id="edge4_Node000004_Node000005" class="edge">
<title>Node4&#45;&gt;Node5</title>
<g id="a_edge4_Node000004_Node000005"><a xlink:title=" ">
<path fill="none" stroke="#63b8ff" d="M1194.82,-241.64C1182.52,-227.05 1156.55,-197.43 1131.15,-176 1055.49,-112.16 954.67,-50.84 909.2,-24.28"/>
<polygon fill="#63b8ff" stroke="#63b8ff" points="910.77,-21.14 900.36,-19.15 907.25,-27.2 910.77,-21.14"/>
</a>
</g>
</g>
<!-- Node6 -->
<g id="Node000006" class="node">
<title>Node6</title>
<g id="a_Node000006"><a xlink:title=" ">
<polygon fill="#e0e0e0" stroke="#999999" points="1122.15,-200.5 1080.15,-200.5 1080.15,-181.5 1122.15,-181.5 1122.15,-200.5"/>
<text text-anchor="middle" x="1101.15" y="-188.5" font-family="Helvetica,sans-Serif" font-size="10.00">array</text>
</a>
</g>
</g>
<!-- Node4&#45;&gt;Node6 -->
<g id="edge5_Node000004_Node000006" class="edge">
<title>Node4&#45;&gt;Node6</title>
<g id="a_edge5_Node000004_Node000006"><a xlink:title=" ">
<path fill="none" stroke="#63b8ff" d="M1187.25,-241.87C1170.84,-232.36 1144.22,-216.95 1124.92,-205.77"/>
<polygon fill="#63b8ff" stroke="#63b8ff" points="1126.52,-202.65 1116.11,-200.67 1123.01,-208.71 1126.52,-202.65"/>
</a>
</g>
</g>
<!-- Node7 -->
<g id="Node000007" class="node">
<title>Node7</title>
<g id="a_Node000007"><a xlink:title=" ">
<polygon fill="#e0e0e0" stroke="#999999" points="1225.65,-200.5 1178.65,-200.5 1178.65,-181.5 1225.65,-181.5 1225.65,-200.5"/>
<text text-anchor="middle" x="1202.15" y="-188.5" font-family="Helvetica,sans-Serif" font-size="10.00">cmath</text>
</a>
</g>
</g>
<!-- Node4&#45;&gt;Node7 -->
<g id="edge6_Node000004_Node000007" class="edge">
<title>Node4&#45;&gt;Node7</title>
<g id="a_edge6_Node000004_Node000007"><a xlink:title=" ">
<path fill="none" stroke="#63b8ff" d="M1202.15,-241.87C1202.15,-233.75 1202.15,-221.31 1202.15,-210.89"/>
<polygon fill="#63b8ff" stroke="#63b8ff" points="1205.65,-210.67 1202.15,-200.67 1198.65,-210.67 1205.65,-210.67"/>
</a>
</g>
</g>
<!-- Node8 -->
<g id="Node000008" class="node">
<title>Node8</title>
<g id="a_Node000008"><a xlink:title=" ">
<polygon fill="#e0e0e0" stroke="#999999" points="988.15,-200.5 924.15,-200.5 924.15,-181.5 988.15,-181.5 988.15,-200.5"/>
<text text-anchor="middle" x="956.15" y="-188.5" font-family="Helvetica,sans-Serif" font-size="10.00">algorithm</text>
</a>
</g>
</g>
<!-- Node4&#45;&gt;Node8 -->
<g id="edge8_Node000004_Node000008" class="edge">
<title>Node4&#45;&gt;Node8</title>
<g id="a_edge8_Node000004_Node000008"><a xlink:title=" ">
<path fill="none" stroke="#63b8ff" d="M1162.9,-243.38C1121.4,-235.52 1054.16,-221.87 997.15,-206 994.68,-205.31 992.13,-204.56 989.59,-203.77"/>
<polygon fill="#63b8ff" stroke="#63b8ff" points="990.44,-200.37 979.85,-200.61 988.28,-207.03 990.44,-200.37"/>
</a>
</g>
</g>
<!-- Node9 -->
<g id="Node000009" class="node">
<title>Node9</title>
<g id="a_Node000009"><a xlink:title=" ">
<polygon fill="#e0e0e0" stroke="#999999" points="1062.15,-200.5 1006.15,-200.5 1006.15,-181.5 1062.15,-181.5 1062.15,-200.5"/>
<text text-anchor="middle" x="1034.15" y="-188.5" font-family="Helvetica,sans-Serif" font-size="10.00">numeric</text>
</a>
</g>
</g>
<!-- Node4&#45;&gt;Node9 -->
<g id="edge9_Node000004_Node000009" class="edge">
<title>Node4&#45;&gt;Node9</title>
<g id="a_edge9_Node000004_Node000009"><a xlink:title=" ">
<path fill="none" stroke="#63b8ff" d="M1175.96,-241.9C1149.45,-233.12 1107.32,-218.98 1071.15,-206 1069.51,-205.41 1067.82,-204.8 1066.12,-204.18"/>
<polygon fill="#63b8ff" stroke="#63b8ff" points="1067,-200.77 1056.41,-200.56 1064.56,-207.33 1067,-200.77"/>
</a>
</g>
</g>
<!-- Node10 -->
<g id="Node000010" class="node">
<title>Node10</title>
<g id="a_Node000010"><a xlink:title=" ">
<polygon fill="#e0e0e0" stroke="#999999" points="1308.65,-200.5 1243.65,-200.5 1243.65,-181.5 1308.65,-181.5 1308.65,-200.5"/>
<text text-anchor="middle" x="1276.15" y="-188.5" font-family="Helvetica,sans-Serif" font-size="10.00">functional</text>
</a>
</g>
</g>
<!-- Node4&#45;&gt;Node10 -->
<g id="edge10_Node000004_Node000010" class="edge">
<title>Node4&#45;&gt;Node10</title>
<g id="a_edge10_Node000004_Node000010"><a xlink:title=" ">
<path fill="none" stroke="#63b8ff" d="M1213.07,-241.87C1224.65,-232.71 1243.18,-218.06 1257.17,-207.01"/>
<polygon fill="#63b8ff" stroke="#63b8ff" points="1259.51,-209.61 1265.19,-200.67 1255.17,-204.12 1259.51,-209.61"/>
</a>
</g>
</g>
<!-- Node11 -->
<g id="Node000011" class="node">
<title>Node11</title>
<g id="a_Node000011"><a xlink:title=" ">
<polygon fill="#e0e0e0" stroke="#999999" points="1205.15,-19 1151.15,-19 1151.15,0 1205.15,0 1205.15,-19"/>
<text text-anchor="middle" x="1178.15" y="-7" font-family="Helvetica,sans-Serif" font-size="10.00">random</text>
</a>
</g>
</g>
<!-- Node4&#45;&gt;Node11 -->
<g id="edge11_Node000004_Node000011" class="edge">
<title>Node4&#45;&gt;Node11</title>
<g id="a_edge11_Node000004_Node000011"><a xlink:title=" ">
<path fill="none" stroke="#63b8ff" d="M1241.33,-250.36C1306.03,-248.42 1425.22,-236.76 1395.15,-176 1356.04,-96.98 1259.12,-45.39 1209.11,-23.11"/>
<polygon fill="#63b8ff" stroke="#63b8ff" points="1210.33,-19.82 1199.76,-19.04 1207.53,-26.24 1210.33,-19.82"/>
</a>
</g>
</g>
<!-- Node12 -->
<g id="Node000012" class="node">
<title>Node12</title>
<g id="a_Node000012"><a xlink:title=" ">
<polygon fill="#e0e0e0" stroke="#999999" points="1385.65,-200.5 1326.65,-200.5 1326.65,-181.5 1385.65,-181.5 1385.65,-200.5"/>
<text text-anchor="middle" x="1356.15" y="-188.5" font-family="Helvetica,sans-Serif" font-size="10.00">numbers</text>
</a>
</g>
</g>
<!-- Node4&#45;&gt;Node12 -->
<g id="edge12_Node000004_Node000012" class="edge">
<title>Node4&#45;&gt;Node12</title>
<g id="a_edge12_Node000004_Node000012"><a xlink:title=" ">
<path fill="none" stroke="#63b8ff" d="M1224.54,-241.99C1250.77,-232.03 1294.43,-215.45 1324.21,-204.13"/>
<polygon fill="#63b8ff" stroke="#63b8ff" points="1325.62,-207.34 1333.73,-200.52 1323.14,-200.8 1325.62,-207.34"/>
</a>
</g>
</g>
<!-- Node13 -->
<g id="Node000013" class="node">
<title>Node13</title>
<g id="a_Node000013"><a xlink:title=" ">
<polygon fill="#e0e0e0" stroke="#999999" points="1411.65,-19 1356.65,-19 1356.65,0 1411.65,0 1411.65,-19"/>
<text text-anchor="middle" x="1384.15" y="-7" font-family="Helvetica,sans-Serif" font-size="10.00">fstream</text>
</a>
</g>
</g>
<!-- Node4&#45;&gt;Node13 -->
<g id="edge13_Node000004_Node000013" class="edge">
<title>Node4&#45;&gt;Node13</title>
<g id="a_edge13_Node000004_Node000013"><a xlink:title=" ">
<path fill="none" stroke="#63b8ff" d="M1241.37,-247.89C1295.88,-243.34 1390.2,-231.88 1411.15,-206 1453.71,-153.42 1414.56,-65.66 1394.42,-28.26"/>
<polygon fill="#63b8ff" stroke="#63b8ff" points="1397.26,-26.15 1389.33,-19.11 1391.14,-29.55 1397.26,-26.15"/>
</a>
</g>
</g>
<!-- Node14&#45;&gt;Node5 -->
<g id="edge15_Node000014_Node000005" class="edge">
<title>Node14&#45;&gt;Node5</title>
<g id="a_edge15_Node000014_Node000005"><a xlink:title=" ">
<path fill="none" stroke="#63b8ff" d="M749.2,-245.98C791.53,-239.45 861.33,-225.93 877.15,-206 918.67,-153.7 901.14,-66.43 890.77,-28.75"/>
<polygon fill="#63b8ff" stroke="#63b8ff" points="894.12,-27.74 887.97,-19.12 887.4,-29.7 894.12,-27.74"/>
</a>
</g>
</g>
<!-- Node14&#45;&gt;Node8 -->
<g id="edge20_Node000014_Node000008" class="edge">
<title>Node14&#45;&gt;Node8</title>
<g id="a_edge20_Node000014_Node000008"><a xlink:title=" ">
<path fill="none" stroke="#63b8ff" d="M749.28,-243.64C788.04,-235.44 854.05,-220.95 910.15,-206 913.12,-205.21 916.19,-204.36 919.26,-203.47"/>
<polygon fill="#63b8ff" stroke="#63b8ff" points="920.39,-206.79 929,-200.61 918.42,-200.07 920.39,-206.79"/>
</a>
</g>
</g>
<!-- Node14&#45;&gt;Node9 -->
<g id="edge21_Node000014_Node000009" class="edge">
<title>Node14&#45;&gt;Node9</title>
<g id="a_edge21_Node000014_Node000009"><a xlink:title=" ">
<path fill="none" stroke="#63b8ff" d="M749.48,-247.45C802.57,-242.1 909.31,-229.31 997.15,-206 999.45,-205.39 1001.8,-204.69 1004.15,-203.93"/>
<polygon fill="#63b8ff" stroke="#63b8ff" points="1005.37,-207.22 1013.65,-200.61 1003.06,-200.61 1005.37,-207.22"/>
</a>
</g>
</g>
<!-- Node15 -->
<g id="Node000015" class="node">
<title>Node15</title>
<g id="a_Node000015"><a xlink:title=" ">
<polygon fill="#e0e0e0" stroke="#999999" points="398.15,-19 354.15,-19 354.15,0 398.15,0 398.15,-19"/>
<text text-anchor="middle" x="376.15" y="-7" font-family="Helvetica,sans-Serif" font-size="10.00">string</text>
</a>
</g>
</g>
<!-- Node14&#45;&gt;Node15 -->
<g id="edge16_Node000014_Node000015" class="edge">
<title>Node14&#45;&gt;Node15</title>
<g id="a_edge16_Node000014_Node000015"><a xlink:title=" ">
<path fill="none" stroke="#63b8ff" d="M711.27,-241.98C706.59,-233.26 699.84,-219.17 697.15,-206 694.48,-192.94 694.69,-189.1 697.15,-176 700.31,-159.13 707.98,-156.87 711.15,-140 712.71,-131.7 712.39,-129.35 711.15,-121 706.66,-90.68 714.42,-74.94 691.15,-55 649.16,-19.02 480.17,-12.1 408.52,-10.79"/>
<polygon fill="#63b8ff" stroke="#63b8ff" points="408.33,-7.29 398.28,-10.63 408.23,-14.29 408.33,-7.29"/>
</a>
</g>
</g>
<!-- Node16 -->
<g id="Node000016" class="node">
<title>Node16</title>
<g id="a_Node000016"><a xlink:title=" ">
<polygon fill="#e0e0e0" stroke="#999999" points="799.65,-200.5 706.65,-200.5 706.65,-181.5 799.65,-181.5 799.65,-200.5"/>
<text text-anchor="middle" x="753.15" y="-188.5" font-family="Helvetica,sans-Serif" font-size="10.00">unordered_map</text>
</a>
</g>
</g>
<!-- Node14&#45;&gt;Node16 -->
<g id="edge17_Node000014_Node000016" class="edge">
<title>Node14&#45;&gt;Node16</title>
<g id="a_edge17_Node000014_Node000016"><a xlink:title=" ">
<path fill="none" stroke="#63b8ff" d="M721.61,-241.87C727.02,-233.31 735.46,-219.97 742.25,-209.24"/>
<polygon fill="#63b8ff" stroke="#63b8ff" points="745.28,-210.99 747.67,-200.67 739.36,-207.25 745.28,-210.99"/>
</a>
</g>
</g>
<!-- Node17 -->
<g id="Node000017" class="node">
<title>Node17</title>
<g id="a_Node000017"><a xlink:title=" ">
<polygon fill="#e0e0e0" stroke="#999999" points="424.15,-200.5 366.15,-200.5 366.15,-181.5 424.15,-181.5 424.15,-200.5"/>
<text text-anchor="middle" x="395.15" y="-188.5" font-family="Helvetica,sans-Serif" font-size="10.00">memory</text>
</a>
</g>
</g>
<!-- Node14&#45;&gt;Node17 -->
<g id="edge18_Node000014_Node000017" class="edge">
<title>Node14&#45;&gt;Node17</title>
<g id="a_edge18_Node000014_Node000017"><a xlink:title=" ">
<path fill="none" stroke="#63b8ff" d="M682.87,-246.88C630.37,-240.78 525.34,-227.04 438.15,-206 435.12,-205.27 431.99,-204.43 428.87,-203.53"/>
<polygon fill="#63b8ff" stroke="#63b8ff" points="429.65,-200.11 419.07,-200.52 427.6,-206.8 429.65,-200.11"/>
</a>
</g>
</g>
<!-- Node18 -->
<g id="Node000018" class="node">
<title>Node18</title>
<g id="a_Node000018"><a xlink:title=" ">
<polygon fill="#e0e0e0" stroke="#999999" points="868.15,-200.5 818.15,-200.5 818.15,-181.5 868.15,-181.5 868.15,-200.5"/>
<text text-anchor="middle" x="843.15" y="-188.5" font-family="Helvetica,sans-Serif" font-size="10.00">ranges</text>
</a>
</g>
</g>
<!-- Node14&#45;&gt;Node18 -->
<g id="edge19_Node000014_Node000018" class="edge">
<title>Node14&#45;&gt;Node18</title>
<g id="a_edge19_Node000014_Node000018"><a xlink:title=" ">
<path fill="none" stroke="#63b8ff" d="M734.62,-241.99C755.87,-232.2 791,-216.02 815.52,-204.73"/>
<polygon fill="#63b8ff" stroke="#63b8ff" points="817.04,-207.88 824.66,-200.52 814.11,-201.52 817.04,-207.88"/>
</a>
</g>
</g>
<!-- Node19 -->
<g id="Node000019" class="node">
<title>Node19</title>
<g id="a_Node000019"><a xlink:href="exception_8h.html" target="_top" xlink:title=" ">
<polygon fill="white" stroke="#666666" points="234.15,-79.5 104.15,-79.5 104.15,-60.5 234.15,-60.5 234.15,-79.5"/>
<text text-anchor="middle" x="169.15" y="-67.5" font-family="Helvetica,sans-Serif" font-size="10.00">exceptions/exception.h</text>
</a>
</g>
</g>
<!-- Node14&#45;&gt;Node19 -->
<g id="edge22_Node000014_Node000019" class="edge">
<title>Node14&#45;&gt;Node19</title>
<g id="a_edge22_Node000014_Node000019"><a xlink:title=" ">
<path fill="none" stroke="#63b8ff" d="M682.88,-248.92C635.15,-245.66 545.26,-235.76 475.15,-206 454.03,-197.04 453.29,-186.99 433.15,-176 356.06,-133.95 258.52,-99.6 206.25,-82.59"/>
<polygon fill="#63b8ff" stroke="#63b8ff" points="207.32,-79.25 196.73,-79.51 205.17,-85.91 207.32,-79.25"/>
</a>
</g>
</g>
<!-- Node21 -->
<g id="Node000021" class="node">
<title>Node21</title>
<g id="a_Node000021"><a xlink:href="logger_8h.html" target="_top" xlink:title=" ">
<polygon fill="white" stroke="#666666" points="494.65,-140 411.65,-140 411.65,-121 494.65,-121 494.65,-140"/>
<text text-anchor="middle" x="453.15" y="-128" font-family="Helvetica,sans-Serif" font-size="10.00">tools/logger.h</text>
</a>
</g>
</g>
<!-- Node14&#45;&gt;Node21 -->
<g id="edge25_Node000014_Node000021" class="edge">
<title>Node14&#45;&gt;Node21</title>
<g id="a_edge25_Node000014_Node000021"><a xlink:title=" ">
<path fill="none" stroke="#63b8ff" d="M683,-250.35C639.74,-248.68 563.19,-240.56 509.15,-206 487.27,-192.01 470.81,-166.28 461.58,-149.03"/>
<polygon fill="#63b8ff" stroke="#63b8ff" points="464.64,-147.33 456.99,-140 458.4,-150.5 464.64,-147.33"/>
</a>
</g>
</g>
<!-- Node29 -->
<g id="Node000029" class="node">
<title>Node29</title>
<g id="a_Node000029"><a xlink:href="element__parameters_8h.html" target="_top" xlink:title=" ">
<polygon fill="white" stroke="#666666" points="649.65,-206 518.65,-206 518.65,-176 649.65,-176 649.65,-206"/>
<text text-anchor="start" x="526.65" y="-194" font-family="Helvetica,sans-Serif" font-size="10.00">element_parameters</text>
<text text-anchor="middle" x="584.15" y="-183" font-family="Helvetica,sans-Serif" font-size="10.00">/element_parameters.h</text>
</a>
</g>
</g>
<!-- Node14&#45;&gt;Node29 -->
<g id="edge40_Node000014_Node000029" class="edge">
<title>Node14&#45;&gt;Node29</title>
<g id="a_edge40_Node000014_Node000029"><a xlink:title=" ">
<path fill="none" stroke="#63b8ff" d="M696.96,-241.99C678.21,-233.68 649.08,-220.78 625.12,-210.16"/>
<polygon fill="#63b8ff" stroke="#63b8ff" points="626.44,-206.92 615.88,-206.06 623.61,-213.32 626.44,-206.92"/>
</a>
</g>
</g>
<!-- Node19&#45;&gt;Node15 -->
<g id="edge24_Node000019_Node000015" class="edge">
<title>Node19&#45;&gt;Node15</title>
<g id="a_edge24_Node000019_Node000015"><a xlink:title=" ">
<path fill="none" stroke="#63b8ff" d="M199.25,-60.49C237.93,-49.56 304.79,-30.67 344.3,-19.5"/>
<polygon fill="#63b8ff" stroke="#63b8ff" points="345.29,-22.86 353.96,-16.77 343.39,-16.12 345.29,-22.86"/>
</a>
</g>
</g>
<!-- Node20 -->
<g id="Node000020" class="node">
<title>Node20</title>
<g id="a_Node000020"><a xlink:title=" ">
<polygon fill="#e0e0e0" stroke="#999999" points="201.65,-19 136.65,-19 136.65,0 201.65,0 201.65,-19"/>
<text text-anchor="middle" x="169.15" y="-7" font-family="Helvetica,sans-Serif" font-size="10.00">exception</text>
</a>
</g>
</g>
<!-- Node19&#45;&gt;Node20 -->
<g id="edge23_Node000019_Node000020" class="edge">
<title>Node19&#45;&gt;Node20</title>
<g id="a_edge23_Node000019_Node000020"><a xlink:title=" ">
<path fill="none" stroke="#63b8ff" d="M169.15,-60.37C169.15,-52.25 169.15,-39.81 169.15,-29.39"/>
<polygon fill="#63b8ff" stroke="#63b8ff" points="172.65,-29.17 169.15,-19.17 165.65,-29.17 172.65,-29.17"/>
</a>
</g>
</g>
<!-- Node21&#45;&gt;Node15 -->
<g id="edge27_Node000021_Node000015" class="edge">
<title>Node21&#45;&gt;Node15</title>
<g id="a_edge27_Node000021_Node000015"><a xlink:title=" ">
<path fill="none" stroke="#63b8ff" d="M436.68,-120.95C423.5,-113.27 405.56,-100.79 395.15,-85 384.03,-68.14 379.42,-45.19 377.51,-29.24"/>
<polygon fill="#63b8ff" stroke="#63b8ff" points="380.97,-28.67 376.53,-19.04 374,-29.33 380.97,-28.67"/>
</a>
</g>
</g>
<!-- Node21&#45;&gt;Node19 -->
<g id="edge31_Node000021_Node000019" class="edge">
<title>Node21&#45;&gt;Node19</title>
<g id="a_edge31_Node000021_Node000019"><a xlink:title=" ">
<path fill="none" stroke="#63b8ff" d="M411.85,-120.99C361.16,-110.55 275.2,-92.85 220.36,-81.55"/>
<polygon fill="#63b8ff" stroke="#63b8ff" points="221,-78.11 210.5,-79.52 219.58,-84.96 221,-78.11"/>
</a>
</g>
</g>
<!-- Node22 -->
<g id="Node000022" class="node">
<title>Node22</title>
<g id="a_Node000022"><a xlink:title=" ">
<polygon fill="#e0e0e0" stroke="#999999" points="664.15,-79.5 604.15,-79.5 604.15,-60.5 664.15,-60.5 664.15,-79.5"/>
<text text-anchor="middle" x="634.15" y="-67.5" font-family="Helvetica,sans-Serif" font-size="10.00">iostream</text>
</a>
</g>
</g>
<!-- Node21&#45;&gt;Node22 -->
<g id="edge26_Node000021_Node000022" class="edge">
<title>Node21&#45;&gt;Node22</title>
<g id="a_edge26_Node000021_Node000022"><a xlink:title=" ">
<path fill="none" stroke="#63b8ff" d="M481.06,-120.97C509.56,-112.2 555.06,-98.01 594.15,-85 596.25,-84.3 598.41,-83.57 600.58,-82.83"/>
<polygon fill="#63b8ff" stroke="#63b8ff" points="601.76,-86.13 610.08,-79.56 599.48,-79.51 601.76,-86.13"/>
</a>
</g>
</g>
<!-- Node23 -->
<g id="Node000023" class="node">
<title>Node23</title>
<g id="a_Node000023"><a xlink:title=" ">
<polygon fill="#e0e0e0" stroke="#999999" points="325.15,-19 275.15,-19 275.15,0 325.15,0 325.15,-19"/>
<text text-anchor="middle" x="300.15" y="-7" font-family="Helvetica,sans-Serif" font-size="10.00">chrono</text>
</a>
</g>
</g>
<!-- Node21&#45;&gt;Node23 -->
<g id="edge28_Node000021_Node000023" class="edge">
<title>Node21&#45;&gt;Node23</title>
<g id="a_edge28_Node000021_Node000023"><a xlink:title=" ">
<path fill="none" stroke="#63b8ff" d="M436.63,-120.9C421.19,-112.56 397.78,-99.13 379.15,-85 355.36,-66.96 330.76,-42.72 315.47,-26.86"/>
<polygon fill="#63b8ff" stroke="#63b8ff" points="317.8,-24.24 308.37,-19.41 312.73,-29.07 317.8,-24.24"/>
</a>
</g>
</g>
<!-- Node24 -->
<g id="Node000024" class="node">
<title>Node24</title>
<g id="a_Node000024"><a xlink:title=" ">
<polygon fill="#e0e0e0" stroke="#999999" points="460.15,-79.5 404.15,-79.5 404.15,-60.5 460.15,-60.5 460.15,-79.5"/>
<text text-anchor="middle" x="432.15" y="-67.5" font-family="Helvetica,sans-Serif" font-size="10.00">iomanip</text>
</a>
</g>
</g>
<!-- Node21&#45;&gt;Node24 -->
<g id="edge29_Node000021_Node000024" class="edge">
<title>Node21&#45;&gt;Node24</title>
<g id="a_edge29_Node000021_Node000024"><a xlink:title=" ">
<path fill="none" stroke="#63b8ff" d="M450.05,-120.87C447.07,-112.57 442.48,-99.78 438.69,-89.22"/>
<polygon fill="#63b8ff" stroke="#63b8ff" points="441.93,-87.9 435.26,-79.67 435.35,-90.26 441.93,-87.9"/>
</a>
</g>
</g>
<!-- Node25 -->
<g id="Node000025" class="node">
<title>Node25</title>
<g id="a_Node000025"><a xlink:title=" ">
<polygon fill="#e0e0e0" stroke="#999999" points="585.65,-85 478.65,-85 478.65,-55 585.65,-55 585.65,-85"/>
<text text-anchor="start" x="486.65" y="-73" font-family="Helvetica,sans-Serif" font-size="10.00">imgui&#45;platform&#45;kit</text>
<text text-anchor="middle" x="532.15" y="-62" font-family="Helvetica,sans-Serif" font-size="10.00">/log_window.h</text>
</a>
</g>
</g>
<!-- Node21&#45;&gt;Node25 -->
<g id="edge30_Node000021_Node000025" class="edge">
<title>Node21&#45;&gt;Node25</title>
<g id="a_edge30_Node000021_Node000025"><a xlink:title=" ">
<path fill="none" stroke="#63b8ff" d="M464.81,-120.87C475.33,-113.08 491.21,-101.32 504.91,-91.17"/>
<polygon fill="#63b8ff" stroke="#63b8ff" points="507.14,-93.88 513.09,-85.11 502.97,-88.25 507.14,-93.88"/>
</a>
</g>
</g>
<!-- Node21&#45;&gt;Node26 -->
<g id="edge32_Node000021_Node000026" class="edge">
<title>Node21&#45;&gt;Node26</title>
<g id="a_edge32_Node000021_Node000026"><a xlink:title=" ">
<path fill="none" stroke="#63b8ff" d="M494.84,-122.33C562.9,-110.62 696.54,-87.62 759.21,-76.84"/>
<polygon fill="#63b8ff" stroke="#63b8ff" points="760.08,-80.24 769.34,-75.1 758.89,-73.34 760.08,-80.24"/>
</a>
</g>
</g>
<!-- Node26&#45;&gt;Node5 -->
<g id="edge34_Node000026_Node000005" class="edge">
<title>Node26&#45;&gt;Node5</title>
<g id="a_edge34_Node000026_Node000005"><a xlink:title=" ">
<path fill="none" stroke="#63b8ff" d="M806.72,-60.37C821.54,-50.95 845.48,-35.73 863.01,-24.58"/>
<polygon fill="#63b8ff" stroke="#63b8ff" points="864.96,-27.49 871.52,-19.17 861.2,-21.58 864.96,-27.49"/>
</a>
</g>
</g>
<!-- Node26&#45;&gt;Node11 -->
<g id="edge35_Node000026_Node000011" class="edge">
<title>Node26&#45;&gt;Node11</title>
<g id="a_edge35_Node000026_Node000011"><a xlink:title=" ">
<path fill="none" stroke="#63b8ff" d="M816.65,-65.43C881.34,-55.6 1062.39,-28.09 1140.97,-16.15"/>
<polygon fill="#63b8ff" stroke="#63b8ff" points="1141.56,-19.6 1150.92,-14.64 1140.5,-12.68 1141.56,-19.6"/>
</a>
</g>
</g>
<!-- Node26&#45;&gt;Node13 -->
<g id="edge37_Node000026_Node000013" class="edge">
<title>Node26&#45;&gt;Node13</title>
<g id="a_edge37_Node000026_Node000013"><a xlink:title=" ">
<path fill="none" stroke="#63b8ff" d="M816.68,-66.67C907.36,-57.69 1234.61,-25.3 1346.41,-14.24"/>
<polygon fill="#63b8ff" stroke="#63b8ff" points="1346.93,-17.7 1356.54,-13.23 1346.24,-10.74 1346.93,-17.7"/>
</a>
</g>
</g>
<!-- Node26&#45;&gt;Node15 -->
<g id="edge33_Node000026_Node000015" class="edge">
<title>Node26&#45;&gt;Node15</title>
<g id="a_edge33_Node000026_Node000015"><a xlink:title=" ">
<path fill="none" stroke="#63b8ff" d="M769.41,-61.4C761.45,-59.07 752.47,-56.68 744.15,-55 621.61,-30.25 473.14,-17.44 408.65,-12.7"/>
<polygon fill="#63b8ff" stroke="#63b8ff" points="408.55,-9.18 398.33,-11.95 408.05,-16.16 408.55,-9.18"/>
</a>
</g>
</g>
<!-- Node26&#45;&gt;Node23 -->
<g id="edge38_Node000026_Node000023" class="edge">
<title>Node26&#45;&gt;Node23</title>
<g id="a_edge38_Node000026_Node000023"><a xlink:title=" ">
<path fill="none" stroke="#63b8ff" d="M769.25,-66.16C745.03,-63.3 706.5,-58.78 673.15,-55 527.43,-38.5 490.2,-40.63 345.15,-19 341.93,-18.52 338.58,-17.97 335.23,-17.4"/>
<polygon fill="#63b8ff" stroke="#63b8ff" points="335.78,-13.94 325.32,-15.61 334.54,-20.83 335.78,-13.94"/>
</a>
</g>
</g>
<!-- Node27 -->
<g id="Node000027" class="node">
<title>Node27</title>
<g id="a_Node000027"><a xlink:title=" ">
<polygon fill="#e0e0e0" stroke="#999999" points="821.15,-19 765.15,-19 765.15,0 821.15,0 821.15,-19"/>
<text text-anchor="middle" x="793.15" y="-7" font-family="Helvetica,sans-Serif" font-size="10.00">sstream</text>
</a>
</g>
</g>
<!-- Node26&#45;&gt;Node27 -->
<g id="edge36_Node000026_Node000027" class="edge">
<title>Node26&#45;&gt;Node27</title>
<g id="a_edge36_Node000026_Node000027"><a xlink:title=" ">
<path fill="none" stroke="#63b8ff" d="M793.15,-60.37C793.15,-52.25 793.15,-39.81 793.15,-29.39"/>
<polygon fill="#63b8ff" stroke="#63b8ff" points="796.65,-29.17 793.15,-19.17 789.65,-29.17 796.65,-29.17"/>
</a>
</g>
</g>
<!-- Node28 -->
<g id="Node000028" class="node">
<title>Node28</title>
<g id="a_Node000028"><a xlink:title=" ">
<polygon fill="#e0e0e0" stroke="#999999" points="632.15,-19 564.15,-19 564.15,0 632.15,0 632.15,-19"/>
<text text-anchor="middle" x="598.15" y="-7" font-family="Helvetica,sans-Serif" font-size="10.00">filesystem</text>
</a>
</g>
</g>
<!-- Node26&#45;&gt;Node28 -->
<g id="edge39_Node000026_Node000028" class="edge">
<title>Node26&#45;&gt;Node28</title>
<g id="a_edge39_Node000026_Node000028"><a xlink:title=" ">
<path fill="none" stroke="#63b8ff" d="M769.63,-61.94C736.55,-52.02 675.9,-33.83 636.32,-21.95"/>
<polygon fill="#63b8ff" stroke="#63b8ff" points="637.07,-18.52 626.49,-19 635.06,-25.23 637.07,-18.52"/>
</a>
</g>
</g>
<!-- Node29&#45;&gt;Node15 -->
<g id="edge42_Node000029_Node000015" class="edge">
<title>Node29&#45;&gt;Node15</title>
<g id="a_edge42_Node000029_Node000015"><a xlink:title=" ">
<path fill="none" stroke="#63b8ff" d="M580.68,-175.92C577.83,-160.91 575.9,-137.13 587.15,-121 610.85,-87.01 650.19,-119.5 673.15,-85 680.54,-73.9 681.85,-65.1 673.15,-55 656,-35.09 481.7,-18.94 408.38,-12.98"/>
<polygon fill="#63b8ff" stroke="#63b8ff" points="408.57,-9.48 398.32,-12.17 408.01,-16.46 408.57,-9.48"/>
</a>
</g>
</g>
<!-- Node29&#45;&gt;Node21 -->
<g id="edge44_Node000029_Node000021" class="edge">
<title>Node29&#45;&gt;Node21</title>
<g id="a_edge44_Node000029_Node000021"><a xlink:title=" ">
<path fill="none" stroke="#63b8ff" d="M552.77,-175.99C531.21,-166.36 502.8,-153.67 481.84,-144.31"/>
<polygon fill="#63b8ff" stroke="#63b8ff" points="483.05,-141.02 472.5,-140.14 480.2,-147.41 483.05,-141.02"/>
</a>
</g>
</g>
<!-- Node30 -->
<g id="Node000030" class="node">
<title>Node30</title>
<g id="a_Node000030"><a xlink:title=" ">
<polygon fill="#e0e0e0" stroke="#999999" points="702.15,-140 664.15,-140 664.15,-121 702.15,-121 702.15,-140"/>
<text text-anchor="middle" x="683.15" y="-128" font-family="Helvetica,sans-Serif" font-size="10.00">map</text>
</a>
</g>
</g>
<!-- Node29&#45;&gt;Node30 -->
<g id="edge41_Node000029_Node000030" class="edge">
<title>Node29&#45;&gt;Node30</title>
<g id="a_edge41_Node000029_Node000030"><a xlink:title=" ">
<path fill="none" stroke="#63b8ff" d="M607.86,-175.99C623.5,-166.75 643.89,-154.7 659.51,-145.47"/>
<polygon fill="#63b8ff" stroke="#63b8ff" points="661.7,-148.24 668.53,-140.14 658.14,-142.21 661.7,-148.24"/>
</a>
</g>
</g>
<!-- Node31 -->
<g id="Node000031" class="node">
<title>Node31</title>
<g id="a_Node000031"><a xlink:title=" ">
<polygon fill="#e0e0e0" stroke="#999999" points="646.15,-140 596.15,-140 596.15,-121 646.15,-121 646.15,-140"/>
<text text-anchor="middle" x="621.15" y="-128" font-family="Helvetica,sans-Serif" font-size="10.00">format</text>
</a>
</g>
</g>
<!-- Node29&#45;&gt;Node31 -->
<g id="edge43_Node000029_Node000031" class="edge">
<title>Node29&#45;&gt;Node31</title>
<g id="a_edge43_Node000029_Node000031"><a xlink:title=" ">
<path fill="none" stroke="#63b8ff" d="M593.11,-175.84C598.26,-167.69 604.77,-157.4 610.22,-148.78"/>
<polygon fill="#63b8ff" stroke="#63b8ff" points="613.22,-150.59 615.61,-140.27 607.3,-146.85 613.22,-150.59"/>
</a>
</g>
</g>
<!-- Node32&#45;&gt;Node14 -->
<g id="edge46_Node000032_Node000014" class="edge">
<title>Node32&#45;&gt;Node14</title>
<g id="a_edge46_Node000032_Node000014"><a xlink:title=" ">
<path fill="none" stroke="#63b8ff" d="M678.33,-351.73C681.5,-339.36 687.82,-316.13 695.15,-297 698.59,-288.03 703.06,-278.34 706.99,-270.31"/>
<polygon fill="#63b8ff" stroke="#63b8ff" points="710.21,-271.7 711.57,-261.2 703.95,-268.56 710.21,-271.7"/>
</a>
</g>
</g>
<!-- Node33 -->
<g id="Node000033" class="node">
<title>Node33</title>
<g id="a_Node000033"><a xlink:href="activation__function_8h.html" target="_top" xlink:title=" ">
<polygon fill="white" stroke="#666666" points="575.65,-316 456.65,-316 456.65,-297 575.65,-297 575.65,-316"/>
<text text-anchor="middle" x="516.15" y="-304" font-family="Helvetica,sans-Serif" font-size="10.00">activation_function.h</text>
</a>
</g>
</g>
<!-- Node32&#45;&gt;Node33 -->
<g id="edge47_Node000032_Node000033" class="edge">
<title>Node32&#45;&gt;Node33</title>
<g id="a_edge47_Node000032_Node000033"><a xlink:title=" ">
<path fill="none" stroke="#63b8ff" d="M650.44,-351.98C623.7,-343.13 581.62,-329.19 551.7,-319.28"/>
<polygon fill="#63b8ff" stroke="#63b8ff" points="552.65,-315.9 542.06,-316.08 550.45,-322.55 552.65,-315.9"/>
</a>
</g>
</g>
<!-- Node34 -->
<g id="Node000034" class="node">
<title>Node34</title>
<g id="a_Node000034"><a xlink:href="simulation_8h.html" target="_top" xlink:title=" ">
<polygon fill="white" stroke="#666666" points="290.15,-316 158.15,-316 158.15,-297 290.15,-297 290.15,-316"/>
<text text-anchor="middle" x="224.15" y="-304" font-family="Helvetica,sans-Serif" font-size="10.00">simulation/simulation.h</text>
</a>
</g>
</g>
<!-- Node32&#45;&gt;Node34 -->
<g id="edge51_Node000032_Node000034" class="edge">
<title>Node32&#45;&gt;Node34</title>
<g id="a_edge51_Node000032_Node000034"><a xlink:title=" ">
<path fill="none" stroke="#63b8ff" d="M634.44,-355.61C558.45,-346.7 396.46,-327.7 300.31,-316.43"/>
<polygon fill="#63b8ff" stroke="#63b8ff" points="300.7,-312.95 290.36,-315.26 299.88,-319.9 300.7,-312.95"/>
</a>
</g>
</g>
<!-- Node35 -->
<g id="Node000035" class="node">
<title>Node35</title>
<g id="a_Node000035"><a xlink:href="kernel_8h.html" target="_top" xlink:title=" ">
<polygon fill="white" stroke="#666666" points="808.15,-316 704.15,-316 704.15,-297 808.15,-297 808.15,-316"/>
<text text-anchor="middle" x="756.15" y="-304" font-family="Helvetica,sans-Serif" font-size="10.00">elements/kernel.h</text>
</a>
</g>
</g>
<!-- Node32&#45;&gt;Node35 -->
<g id="edge60_Node000032_Node000035" class="edge">
<title>Node32&#45;&gt;Node35</title>
<g id="a_edge60_Node000032_Node000035"><a xlink:title=" ">
<path fill="none" stroke="#63b8ff" d="M689,-351.98C701.29,-343.84 720.06,-331.41 734.63,-321.76"/>
<polygon fill="#63b8ff" stroke="#63b8ff" points="736.66,-324.61 743.06,-316.17 732.79,-318.78 736.66,-324.61"/>
</a>
</g>
</g>
<!-- Node33&#45;&gt;Node4 -->
<g id="edge50_Node000033_Node000004" class="edge">
<title>Node33&#45;&gt;Node4</title>
<g id="a_edge50_Node000033_Node000004"><a xlink:title=" ">
<path fill="none" stroke="#63b8ff" d="M575.83,-300.89C709.18,-290.59 1029.26,-265.86 1152.56,-256.33"/>
<polygon fill="#63b8ff" stroke="#63b8ff" points="1153.13,-259.8 1162.83,-255.54 1152.59,-252.82 1153.13,-259.8"/>
</a>
</g>
</g>
<!-- Node33&#45;&gt;Node15 -->
<g id="edge48_Node000033_Node000015" class="edge">
<title>Node33&#45;&gt;Node15</title>
<g id="a_edge48_Node000033_Node000015"><a xlink:title=" ">
<path fill="none" stroke="#63b8ff" d="M469.1,-297C442.74,-290.47 410.4,-279.36 386.15,-261 362.46,-243.07 357,-234.36 348.15,-206 328.45,-142.82 354.38,-63.76 368.32,-28.7"/>
<polygon fill="#63b8ff" stroke="#63b8ff" points="371.63,-29.87 372.2,-19.29 365.15,-27.2 371.63,-29.87"/>
</a>
</g>
</g>
<!-- Node33&#45;&gt;Node21 -->
<g id="edge49_Node000033_Node000021" class="edge">
<title>Node33&#45;&gt;Node21</title>
<g id="a_edge49_Node000033_Node000021"><a xlink:title=" ">
<path fill="none" stroke="#63b8ff" d="M486.76,-296.89C448.92,-284.04 384.76,-255.85 357.15,-206 350.69,-194.34 349.97,-187.24 357.15,-176 367.24,-160.19 384.56,-149.92 401.72,-143.27"/>
<polygon fill="#63b8ff" stroke="#63b8ff" points="402.92,-146.56 411.2,-139.94 400.6,-139.96 402.92,-146.56"/>
</a>
</g>
</g>
<!-- Node34&#45;&gt;Node5 -->
<g id="edge52_Node000034_Node000005" class="edge">
<title>Node34&#45;&gt;Node5</title>
<g id="a_edge52_Node000034_Node000005"><a xlink:title=" ">
<path fill="none" stroke="#63b8ff" d="M226.83,-296.94C238.96,-259.83 292.6,-112.2 395.15,-55 479.86,-7.75 733.83,-30.41 830.15,-19 837.11,-18.17 844.55,-17.13 851.63,-16.07"/>
<polygon fill="#63b8ff" stroke="#63b8ff" points="852.3,-19.5 861.65,-14.51 851.23,-12.59 852.3,-19.5"/>
</a>
</g>
</g>
<!-- Node34&#45;&gt;Node14 -->
<g id="edge57_Node000034_Node000014" class="edge">
<title>Node34&#45;&gt;Node14</title>
<g id="a_edge57_Node000034_Node000014"><a xlink:title=" ">
<path fill="none" stroke="#63b8ff" d="M290.25,-298.38C392.62,-287.35 586.69,-266.45 672.95,-257.15"/>
<polygon fill="#63b8ff" stroke="#63b8ff" points="673.35,-260.63 682.92,-256.08 672.6,-253.67 673.35,-260.63"/>
</a>
</g>
</g>
<!-- Node34&#45;&gt;Node15 -->
<g id="edge54_Node000034_Node000015" class="edge">
<title>Node34&#45;&gt;Node15</title>
<g id="a_edge54_Node000034_Node000015"><a xlink:title=" ">
<path fill="none" stroke="#63b8ff" d="M158.01,-301.54C125.52,-296.37 87.92,-285.11 62.15,-261 38.44,-238.82 38.15,-224.47 38.15,-192 38.15,-192 38.15,-192 38.15,-129.5 38.15,-94.71 35.44,-77.29 62.15,-55 108.96,-15.94 274.01,-29.05 334.15,-19 337.38,-18.46 340.74,-17.86 344.09,-17.22"/>
<polygon fill="#63b8ff" stroke="#63b8ff" points="344.83,-20.64 353.97,-15.28 343.48,-13.77 344.83,-20.64"/>
</a>
</g>
</g>
<!-- Node34&#45;&gt;Node17 -->
<g id="edge53_Node000034_Node000017" class="edge">
<title>Node34&#45;&gt;Node17</title>
<g id="a_edge53_Node000034_Node000017"><a xlink:title=" ">
<path fill="none" stroke="#63b8ff" d="M237,-296.97C266.09,-277.66 337.25,-230.43 373.36,-206.46"/>
<polygon fill="#63b8ff" stroke="#63b8ff" points="375.75,-209.08 382.15,-200.63 371.88,-203.24 375.75,-209.08"/>
</a>
</g>
</g>
<!-- Node34&#45;&gt;Node19 -->
<g id="edge58_Node000034_Node000019" class="edge">
<title>Node34&#45;&gt;Node19</title>
<g id="a_edge58_Node000034_Node000019"><a xlink:title=" ">
<path fill="none" stroke="#63b8ff" d="M221.12,-296.7C218.1,-287.78 213.46,-273.53 210.15,-261 193.71,-198.86 179.04,-124.01 172.6,-89.76"/>
<polygon fill="#63b8ff" stroke="#63b8ff" points="176.01,-88.97 170.74,-79.78 169.13,-90.25 176.01,-88.97"/>
</a>
</g>
</g>
<!-- Node34&#45;&gt;Node23 -->
<g id="edge56_Node000034_Node000023" class="edge">
<title>Node34&#45;&gt;Node23</title>
<g id="a_edge56_Node000034_Node000023"><a xlink:title=" ">
<path fill="none" stroke="#63b8ff" d="M158.15,-297.8C107.8,-290.68 43.84,-278.53 24.15,-261 -0.1,-239.41 0.15,-224.47 0.15,-192 0.15,-192 0.15,-192 0.15,-129.5 0.15,-94.71 -2.24,-77.66 24.15,-55 42.19,-39.51 194.3,-21.66 264.68,-14.14"/>
<polygon fill="#63b8ff" stroke="#63b8ff" points="265.27,-17.6 274.85,-13.07 264.53,-10.64 265.27,-17.6"/>
</a>
</g>
</g>
<!-- Node34&#45;&gt;Node26 -->
<g id="edge59_Node000034_Node000026" class="edge">
<title>Node34&#45;&gt;Node26</title>
<g id="a_edge59_Node000034_Node000026"><a xlink:title=" ">
<path fill="none" stroke="#63b8ff" d="M230.23,-296.96C247.34,-273.63 298.46,-208.38 357.15,-176 361.67,-173.51 658.3,-102.99 759.64,-78.95"/>
<polygon fill="#63b8ff" stroke="#63b8ff" points="760.45,-82.35 769.37,-76.64 758.83,-75.54 760.45,-82.35"/>
</a>
</g>
</g>
<!-- Node34&#45;&gt;Node28 -->
<g id="edge55_Node000034_Node000028" class="edge">
<title>Node34&#45;&gt;Node28</title>
<g id="a_edge55_Node000034_Node000028"><a xlink:title=" ">
<path fill="none" stroke="#63b8ff" d="M193.12,-296.96C149.73,-282.9 76.15,-250.45 76.15,-192 76.15,-192 76.15,-192 76.15,-129.5 76.15,-95.33 69.12,-77.14 95.15,-55 112.51,-40.24 433.64,-20.09 553.52,-13.05"/>
<polygon fill="#63b8ff" stroke="#63b8ff" points="554.03,-16.53 563.81,-12.45 553.62,-9.54 554.03,-16.53"/>
</a>
</g>
</g>
<!-- Node35&#45;&gt;Node6 -->
<g id="edge62_Node000035_Node000006" class="edge">
<title>Node35&#45;&gt;Node6</title>
<g id="a_edge62_Node000035_Node000006"><a xlink:title=" ">
<path fill="none" stroke="#63b8ff" d="M787.92,-296.95C845.28,-281.19 969.61,-245.54 1071.15,-206 1072.19,-205.59 1073.25,-205.17 1074.32,-204.73"/>
<polygon fill="#63b8ff" stroke="#63b8ff" points="1076.12,-207.76 1083.87,-200.53 1073.3,-201.35 1076.12,-207.76"/>
</a>
</g>
</g>
<!-- Node35&#45;&gt;Node14 -->
<g id="edge61_Node000035_Node000014" class="edge">
<title>Node35&#45;&gt;Node14</title>
<g id="a_edge61_Node000035_Node000014"><a xlink:title=" ">
<path fill="none" stroke="#63b8ff" d="M749.54,-296.75C743.89,-289.26 735.6,-278.28 728.7,-269.13"/>
<polygon fill="#63b8ff" stroke="#63b8ff" points="731.45,-266.96 722.63,-261.09 725.86,-271.18 731.45,-266.96"/>
</a>
</g>
</g>
</g>
</svg>
