<?xml version="1.0" encoding="UTF-8" standalone="no"?>
<!DOCTYPE svg PUBLIC "-//W3C//DTD SVG 1.1//EN"
 "http://www.w3.org/Graphics/SVG/1.1/DTD/svg11.dtd">
<!-- Generated by graphviz version 2.43.0 (0)
 -->
<!-- Title: src/elements/gauss_kernel_2d.cpp Pages: 1 -->
<svg width="1180pt" height="445pt"
 viewBox="0.00 0.00 1180.00 445.00" xmlns="http://www.w3.org/2000/svg" xmlns:xlink="http://www.w3.org/1999/xlink">
<g id="graph0" class="graph" transform="scale(1 1) rotate(0) translate(4 441)">
<title>src/elements/gauss_kernel_2d.cpp</title>
<!-- Node1 -->
<g id="Node000001" class="node">
<title>Node1</title>
<g id="a_Node000001"><a xlink:title=" ">
<polygon fill="#999999" stroke="#666666" points="330.5,-437 219.5,-437 219.5,-407 330.5,-407 330.5,-437"/>
<text text-anchor="start" x="227.5" y="-425" font-family="Helvetica,sans-Serif" font-size="10.00">src/elements/gauss</text>
<text text-anchor="middle" x="275" y="-414" font-family="Helvetica,sans-Serif" font-size="10.00">_kernel_2d.cpp</text>
</a>
</g>
</g>
<!-- Node2 -->
<g id="Node000002" class="node">
<title>Node2</title>
<g id="a_Node000002"><a xlink:href="gauss__kernel__2d_8h.html" target="_top" xlink:title=" ">
<polygon fill="white" stroke="#666666" points="352.5,-371 197.5,-371 197.5,-352 352.5,-352 352.5,-371"/>
<text text-anchor="middle" x="275" y="-359" font-family="Helvetica,sans-Serif" font-size="10.00">elements/gauss_kernel_2d.h</text>
</a>
</g>
</g>
<!-- Node1&#45;&gt;Node2 -->
<g id="edge1_Node000001_Node000002" class="edge">
<title>Node1&#45;&gt;Node2</title>
<g id="a_edge1_Node000001_Node000002"><a xlink:title=" ">
<path fill="none" stroke="#63b8ff" d="M275,-406.84C275,-399.21 275,-389.7 275,-381.45"/>
<polygon fill="#63b8ff" stroke="#63b8ff" points="278.5,-381.27 275,-371.27 271.5,-381.27 278.5,-381.27"/>
</a>
</g>
</g>
<!-- Node3 -->
<g id="Node000003" class="node">
<title>Node3</title>
<g id="a_Node000003"><a xlink:title=" ">
<polygon fill="#e0e0e0" stroke="#999999" points="84.5,-200.5 37.5,-200.5 37.5,-181.5 84.5,-181.5 84.5,-200.5"/>
<text text-anchor="middle" x="61" y="-188.5" font-family="Helvetica,sans-Serif" font-size="10.00">cmath</text>
</a>
</g>
</g>
<!-- Node2&#45;&gt;Node3 -->
<g id="edge2_Node000002_Node000003" class="edge">
<title>Node2&#45;&gt;Node3</title>
<g id="a_edge2_Node000002_Node000003"><a xlink:title=" ">
<path fill="none" stroke="#63b8ff" d="M264.09,-351.91C229.75,-324.87 123.54,-241.24 79.96,-206.93"/>
<polygon fill="#63b8ff" stroke="#63b8ff" points="81.91,-204.01 71.88,-200.57 77.58,-209.51 81.91,-204.01"/>
</a>
</g>
</g>
<!-- Node4 -->
<g id="Node000004" class="node">
<title>Node4</title>
<g id="a_Node000004"><a xlink:title=" ">
<polygon fill="#e0e0e0" stroke="#999999" points="56,-19 0,-19 0,0 56,0 56,-19"/>
<text text-anchor="middle" x="28" y="-7" font-family="Helvetica,sans-Serif" font-size="10.00">sstream</text>
</a>
</g>
</g>
<!-- Node2&#45;&gt;Node4 -->
<g id="edge3_Node000002_Node000004" class="edge">
<title>Node2&#45;&gt;Node4</title>
<g id="a_edge3_Node000002_Node000004"><a xlink:title=" ">
<path fill="none" stroke="#63b8ff" d="M230.48,-351.98C154.75,-336.21 9,-299.73 9,-252.5 9,-252.5 9,-252.5 9,-129.5 9,-93.54 17.56,-52.23 23.19,-28.96"/>
<polygon fill="#63b8ff" stroke="#63b8ff" points="26.63,-29.64 25.67,-19.09 19.84,-27.93 26.63,-29.64"/>
</a>
</g>
</g>
<!-- Node5 -->
<g id="Node000005" class="node">
<title>Node5</title>
<g id="a_Node000005"><a xlink:title=" ">
<polygon fill="#e0e0e0" stroke="#999999" points="458,-79.5 402,-79.5 402,-60.5 458,-60.5 458,-79.5"/>
<text text-anchor="middle" x="430" y="-67.5" font-family="Helvetica,sans-Serif" font-size="10.00">iomanip</text>
</a>
</g>
</g>
<!-- Node2&#45;&gt;Node5 -->
<g id="edge4_Node000002_Node000005" class="edge">
<title>Node2&#45;&gt;Node5</title>
<g id="a_edge4_Node000002_Node000005"><a xlink:title=" ">
<path fill="none" stroke="#63b8ff" d="M352.55,-359.04C427.57,-353.02 530,-330.51 530,-252.5 530,-252.5 530,-252.5 530,-190 530,-142.8 483.32,-104.55 453.75,-85.05"/>
<polygon fill="#63b8ff" stroke="#63b8ff" points="455.51,-82.02 445.19,-79.61 451.75,-87.93 455.51,-82.02"/>
</a>
</g>
</g>
<!-- Node6 -->
<g id="Node000006" class="node">
<title>Node6</title>
<g id="a_Node000006"><a xlink:title=" ">
<polygon fill="#e0e0e0" stroke="#999999" points="331,-316 275,-316 275,-297 331,-297 331,-316"/>
<text text-anchor="middle" x="303" y="-304" font-family="Helvetica,sans-Serif" font-size="10.00">optional</text>
</a>
</g>
</g>
<!-- Node2&#45;&gt;Node6 -->
<g id="edge5_Node000002_Node000006" class="edge">
<title>Node2&#45;&gt;Node6</title>
<g id="a_edge5_Node000002_Node000006"><a xlink:title=" ">
<path fill="none" stroke="#63b8ff" d="M279.62,-351.75C283.46,-344.49 289.02,-333.95 293.76,-324.98"/>
<polygon fill="#63b8ff" stroke="#63b8ff" points="296.89,-326.57 298.46,-316.09 290.7,-323.3 296.89,-326.57"/>
</a>
</g>
</g>
<!-- Node7 -->
<g id="Node000007" class="node">
<title>Node7</title>
<g id="a_Node000007"><a xlink:href="math_8h.html" target="_top" xlink:title=" ">
<polygon fill="white" stroke="#666666" points="286,-261 208,-261 208,-242 286,-242 286,-261"/>
<text text-anchor="middle" x="247" y="-249" font-family="Helvetica,sans-Serif" font-size="10.00">tools/math.h</text>
</a>
</g>
</g>
<!-- Node2&#45;&gt;Node7 -->
<g id="edge6_Node000002_Node000007" class="edge">
<title>Node2&#45;&gt;Node7</title>
<g id="a_edge6_Node000002_Node000007"><a xlink:title=" ">
<path fill="none" stroke="#63b8ff" d="M272.71,-351.66C268.15,-334.09 257.88,-294.45 251.78,-270.95"/>
<polygon fill="#63b8ff" stroke="#63b8ff" points="255.14,-269.96 249.24,-261.16 248.37,-271.72 255.14,-269.96"/>
</a>
</g>
</g>
<!-- Node16 -->
<g id="Node000016" class="node">
<title>Node16</title>
<g id="a_Node000016"><a xlink:href="kernel_8h.html" target="_top" xlink:title=" ">
<polygon fill="white" stroke="#666666" points="614,-316 558,-316 558,-297 614,-297 614,-316"/>
<text text-anchor="middle" x="586" y="-304" font-family="Helvetica,sans-Serif" font-size="10.00">kernel.h</text>
</a>
</g>
</g>
<!-- Node2&#45;&gt;Node16 -->
<g id="edge16_Node000002_Node000016" class="edge">
<title>Node2&#45;&gt;Node16</title>
<g id="a_edge16_Node000002_Node000016"><a xlink:title=" ">
<path fill="none" stroke="#63b8ff" d="M329.97,-352C384.4,-343.44 470.09,-329.59 544,-316 545.1,-315.8 546.21,-315.59 547.33,-315.38"/>
<polygon fill="#63b8ff" stroke="#63b8ff" points="548.41,-318.74 557.56,-313.4 547.08,-311.86 548.41,-318.74"/>
</a>
</g>
</g>
<!-- Node7&#45;&gt;Node3 -->
<g id="edge9_Node000007_Node000003" class="edge">
<title>Node7&#45;&gt;Node3</title>
<g id="a_edge9_Node000007_Node000003"><a xlink:title=" ">
<path fill="none" stroke="#63b8ff" d="M216.78,-242C186.75,-233.41 139.46,-219.52 99,-206 97.1,-205.36 95.15,-204.7 93.19,-204.01"/>
<polygon fill="#63b8ff" stroke="#63b8ff" points="94.02,-200.59 83.42,-200.52 91.66,-207.18 94.02,-200.59"/>
</a>
</g>
</g>
<!-- Node8 -->
<g id="Node000008" class="node">
<title>Node8</title>
<g id="a_Node000008"><a xlink:title=" ">
<polygon fill="#e0e0e0" stroke="#999999" points="397.5,-19 350.5,-19 350.5,0 397.5,0 397.5,-19"/>
<text text-anchor="middle" x="374" y="-7" font-family="Helvetica,sans-Serif" font-size="10.00">vector</text>
</a>
</g>
</g>
<!-- Node7&#45;&gt;Node8 -->
<g id="edge7_Node000007_Node000008" class="edge">
<title>Node7&#45;&gt;Node8</title>
<g id="a_edge7_Node000007_Node000008"><a xlink:title=" ">
<path fill="none" stroke="#63b8ff" d="M236.01,-241.99C226.55,-233.9 213.57,-220.81 208,-206 203.31,-193.52 202.89,-188.31 208,-176 237.2,-105.66 312.42,-49.72 350.77,-24.71"/>
<polygon fill="#63b8ff" stroke="#63b8ff" points="353.12,-27.36 359.67,-19.03 349.36,-21.46 353.12,-27.36"/>
</a>
</g>
</g>
<!-- Node9 -->
<g id="Node000009" class="node">
<title>Node9</title>
<g id="a_Node000009"><a xlink:title=" ">
<polygon fill="#e0e0e0" stroke="#999999" points="420,-200.5 378,-200.5 378,-181.5 420,-181.5 420,-200.5"/>
<text text-anchor="middle" x="399" y="-188.5" font-family="Helvetica,sans-Serif" font-size="10.00">array</text>
</a>
</g>
</g>
<!-- Node7&#45;&gt;Node9 -->
<g id="edge8_Node000007_Node000009" class="edge">
<title>Node7&#45;&gt;Node9</title>
<g id="a_edge8_Node000007_Node000009"><a xlink:title=" ">
<path fill="none" stroke="#63b8ff" d="M271.76,-241.98C296.36,-233.38 335.06,-219.47 368,-206 369.17,-205.52 370.36,-205.03 371.56,-204.52"/>
<polygon fill="#63b8ff" stroke="#63b8ff" points="372.97,-207.72 380.74,-200.51 370.17,-201.31 372.97,-207.72"/>
</a>
</g>
</g>
<!-- Node10 -->
<g id="Node000010" class="node">
<title>Node10</title>
<g id="a_Node000010"><a xlink:title=" ">
<polygon fill="#e0e0e0" stroke="#999999" points="502,-200.5 438,-200.5 438,-181.5 502,-181.5 502,-200.5"/>
<text text-anchor="middle" x="470" y="-188.5" font-family="Helvetica,sans-Serif" font-size="10.00">algorithm</text>
</a>
</g>
</g>
<!-- Node7&#45;&gt;Node10 -->
<g id="edge10_Node000007_Node000010" class="edge">
<title>Node7&#45;&gt;Node10</title>
<g id="a_edge10_Node000007_Node000010"><a xlink:title=" ">
<path fill="none" stroke="#63b8ff" d="M286.32,-241.95C323.37,-233.65 380.3,-220.24 429,-206 431.46,-205.28 434,-204.5 436.54,-203.7"/>
<polygon fill="#63b8ff" stroke="#63b8ff" points="437.86,-206.95 446.27,-200.51 435.67,-200.3 437.86,-206.95"/>
</a>
</g>
</g>
<!-- Node11 -->
<g id="Node000011" class="node">
<title>Node11</title>
<g id="a_Node000011"><a xlink:title=" ">
<polygon fill="#e0e0e0" stroke="#999999" points="614,-200.5 558,-200.5 558,-181.5 614,-181.5 614,-200.5"/>
<text text-anchor="middle" x="586" y="-188.5" font-family="Helvetica,sans-Serif" font-size="10.00">numeric</text>
</a>
</g>
</g>
<!-- Node7&#45;&gt;Node11 -->
<g id="edge11_Node000007_Node000011" class="edge">
<title>Node7&#45;&gt;Node11</title>
<g id="a_edge11_Node000007_Node000011"><a xlink:title=" ">
<path fill="none" stroke="#63b8ff" d="M286.4,-244.08C338.03,-235.62 431.37,-220.14 511,-206 523,-203.87 536.07,-201.46 547.88,-199.25"/>
<polygon fill="#63b8ff" stroke="#63b8ff" points="548.7,-202.66 557.89,-197.37 547.41,-195.78 548.7,-202.66"/>
</a>
</g>
</g>
<!-- Node12 -->
<g id="Node000012" class="node">
<title>Node12</title>
<g id="a_Node000012"><a xlink:title=" ">
<polygon fill="#e0e0e0" stroke="#999999" points="359.5,-200.5 294.5,-200.5 294.5,-181.5 359.5,-181.5 359.5,-200.5"/>
<text text-anchor="middle" x="327" y="-188.5" font-family="Helvetica,sans-Serif" font-size="10.00">functional</text>
</a>
</g>
</g>
<!-- Node7&#45;&gt;Node12 -->
<g id="edge12_Node000007_Node000012" class="edge">
<title>Node7&#45;&gt;Node12</title>
<g id="a_edge12_Node000007_Node000012"><a xlink:title=" ">
<path fill="none" stroke="#63b8ff" d="M258.8,-241.87C271.45,-232.62 291.74,-217.78 306.91,-206.69"/>
<polygon fill="#63b8ff" stroke="#63b8ff" points="309.14,-209.4 315.15,-200.67 305.01,-203.74 309.14,-209.4"/>
</a>
</g>
</g>
<!-- Node13 -->
<g id="Node000013" class="node">
<title>Node13</title>
<g id="a_Node000013"><a xlink:title=" ">
<polygon fill="#e0e0e0" stroke="#999999" points="313,-19 259,-19 259,0 313,0 313,-19"/>
<text text-anchor="middle" x="286" y="-7" font-family="Helvetica,sans-Serif" font-size="10.00">random</text>
</a>
</g>
</g>
<!-- Node7&#45;&gt;Node13 -->
<g id="edge13_Node000007_Node000013" class="edge">
<title>Node7&#45;&gt;Node13</title>
<g id="a_edge13_Node000007_Node000013"><a xlink:title=" ">
<path fill="none" stroke="#63b8ff" d="M221.15,-241.99C204.73,-235.09 184.8,-223.58 175,-206 142.32,-147.38 137.4,-110.59 175,-55 191.36,-30.82 223.24,-19.77 248.65,-14.73"/>
<polygon fill="#63b8ff" stroke="#63b8ff" points="249.48,-18.14 258.73,-12.97 248.28,-11.25 249.48,-18.14"/>
</a>
</g>
</g>
<!-- Node14 -->
<g id="Node000014" class="node">
<title>Node14</title>
<g id="a_Node000014"><a xlink:title=" ">
<polygon fill="#e0e0e0" stroke="#999999" points="276.5,-200.5 217.5,-200.5 217.5,-181.5 276.5,-181.5 276.5,-200.5"/>
<text text-anchor="middle" x="247" y="-188.5" font-family="Helvetica,sans-Serif" font-size="10.00">numbers</text>
</a>
</g>
</g>
<!-- Node7&#45;&gt;Node14 -->
<g id="edge14_Node000007_Node000014" class="edge">
<title>Node7&#45;&gt;Node14</title>
<g id="a_edge14_Node000007_Node000014"><a xlink:title=" ">
<path fill="none" stroke="#63b8ff" d="M247,-241.87C247,-233.75 247,-221.31 247,-210.89"/>
<polygon fill="#63b8ff" stroke="#63b8ff" points="250.5,-210.67 247,-200.67 243.5,-210.67 250.5,-210.67"/>
</a>
</g>
</g>
<!-- Node15 -->
<g id="Node000015" class="node">
<title>Node15</title>
<g id="a_Node000015"><a xlink:title=" ">
<polygon fill="#e0e0e0" stroke="#999999" points="203.5,-19 148.5,-19 148.5,0 203.5,0 203.5,-19"/>
<text text-anchor="middle" x="176" y="-7" font-family="Helvetica,sans-Serif" font-size="10.00">fstream</text>
</a>
</g>
</g>
<!-- Node7&#45;&gt;Node15 -->
<g id="edge15_Node000007_Node000015" class="edge">
<title>Node7&#45;&gt;Node15</title>
<g id="a_edge15_Node000007_Node000015"><a xlink:title=" ">
<path fill="none" stroke="#63b8ff" d="M212.96,-241.92C193.63,-235.29 170.64,-224.1 157,-206 116.61,-152.4 135.44,-119.21 155,-55 157.8,-45.81 162.19,-36.1 166.24,-28.11"/>
<polygon fill="#63b8ff" stroke="#63b8ff" points="169.44,-29.54 171.04,-19.06 163.26,-26.26 169.44,-29.54"/>
</a>
</g>
</g>
<!-- Node16&#45;&gt;Node9 -->
<g id="edge49_Node000016_Node000009" class="edge">
<title>Node16&#45;&gt;Node9</title>
<g id="a_edge49_Node000016_Node000009"><a xlink:title=" ">
<path fill="none" stroke="#63b8ff" d="M571.94,-296.97C539.86,-277.5 460.99,-229.63 421.83,-205.86"/>
<polygon fill="#63b8ff" stroke="#63b8ff" points="423.58,-202.83 413.22,-200.63 419.95,-208.81 423.58,-202.83"/>
</a>
</g>
</g>
<!-- Node17 -->
<g id="Node000017" class="node">
<title>Node17</title>
<g id="a_Node000017"><a xlink:href="element_8h.html" target="_top" xlink:title=" ">
<polygon fill="white" stroke="#666666" points="807,-261 741,-261 741,-242 807,-242 807,-261"/>
<text text-anchor="middle" x="774" y="-249" font-family="Helvetica,sans-Serif" font-size="10.00">element.h</text>
</a>
</g>
</g>
<!-- Node16&#45;&gt;Node17 -->
<g id="edge17_Node000016_Node000017" class="edge">
<title>Node16&#45;&gt;Node17</title>
<g id="a_edge17_Node000016_Node000017"><a xlink:title=" ">
<path fill="none" stroke="#63b8ff" d="M614.15,-297.57C645.98,-288.59 698.06,-273.91 734.09,-263.75"/>
<polygon fill="#63b8ff" stroke="#63b8ff" points="735.12,-267.1 743.79,-261.02 733.22,-260.36 735.12,-267.1"/>
</a>
</g>
</g>
<!-- Node17&#45;&gt;Node8 -->
<g id="edge18_Node000017_Node000008" class="edge">
<title>Node17&#45;&gt;Node8</title>
<g id="a_edge18_Node000017_Node000008"><a xlink:title=" ">
<path fill="none" stroke="#63b8ff" d="M749.82,-241.86C727.94,-233.69 695.08,-220.54 668,-206 646.82,-194.63 644.29,-187.15 623,-176 525.61,-125 465.64,-167.51 393,-85 379.38,-69.53 375.28,-45.63 374.17,-29.09"/>
<polygon fill="#63b8ff" stroke="#63b8ff" points="377.66,-28.87 373.8,-19.01 370.67,-29.13 377.66,-28.87"/>
</a>
</g>
</g>
<!-- Node17&#45;&gt;Node10 -->
<g id="edge23_Node000017_Node000010" class="edge">
<title>Node17&#45;&gt;Node10</title>
<g id="a_edge23_Node000017_Node000010"><a xlink:title=" ">
<path fill="none" stroke="#63b8ff" d="M740.89,-244.13C685.32,-233.43 573.38,-211.89 512.24,-200.13"/>
<polygon fill="#63b8ff" stroke="#63b8ff" points="512.63,-196.64 502.15,-198.19 511.31,-203.51 512.63,-196.64"/>
</a>
</g>
</g>
<!-- Node17&#45;&gt;Node11 -->
<g id="edge24_Node000017_Node000011" class="edge">
<title>Node17&#45;&gt;Node11</title>
<g id="a_edge24_Node000017_Node000011"><a xlink:title=" ">
<path fill="none" stroke="#63b8ff" d="M745.12,-241.94C715.62,-233.14 668.52,-218.93 628,-206 625.71,-205.27 623.36,-204.51 620.99,-203.74"/>
<polygon fill="#63b8ff" stroke="#63b8ff" points="621.88,-200.35 611.28,-200.55 619.69,-207 621.88,-200.35"/>
</a>
</g>
</g>
<!-- Node18 -->
<g id="Node000018" class="node">
<title>Node18</title>
<g id="a_Node000018"><a xlink:title=" ">
<polygon fill="#e0e0e0" stroke="#999999" points="854,-19 810,-19 810,0 854,0 854,-19"/>
<text text-anchor="middle" x="832" y="-7" font-family="Helvetica,sans-Serif" font-size="10.00">string</text>
</a>
</g>
</g>
<!-- Node17&#45;&gt;Node18 -->
<g id="edge19_Node000017_Node000018" class="edge">
<title>Node17&#45;&gt;Node18</title>
<g id="a_edge19_Node000017_Node000018"><a xlink:title=" ">
<path fill="none" stroke="#63b8ff" d="M801.65,-241.98C818.58,-235.17 838.89,-223.76 849,-206 881.99,-148.07 854.61,-64.47 839.88,-28.3"/>
<polygon fill="#63b8ff" stroke="#63b8ff" points="843.08,-26.88 835.96,-19.04 836.64,-29.61 843.08,-26.88"/>
</a>
</g>
</g>
<!-- Node19 -->
<g id="Node000019" class="node">
<title>Node19</title>
<g id="a_Node000019"><a xlink:title=" ">
<polygon fill="#e0e0e0" stroke="#999999" points="989.5,-200.5 896.5,-200.5 896.5,-181.5 989.5,-181.5 989.5,-200.5"/>
<text text-anchor="middle" x="943" y="-188.5" font-family="Helvetica,sans-Serif" font-size="10.00">unordered_map</text>
</a>
</g>
</g>
<!-- Node17&#45;&gt;Node19 -->
<g id="edge20_Node000017_Node000019" class="edge">
<title>Node17&#45;&gt;Node19</title>
<g id="a_edge20_Node000017_Node000019"><a xlink:title=" ">
<path fill="none" stroke="#63b8ff" d="M798.57,-241.99C827.61,-231.94 876.1,-215.16 908.8,-203.84"/>
<polygon fill="#63b8ff" stroke="#63b8ff" points="910.09,-207.1 918.4,-200.52 907.8,-200.48 910.09,-207.1"/>
</a>
</g>
</g>
<!-- Node20 -->
<g id="Node000020" class="node">
<title>Node20</title>
<g id="a_Node000020"><a xlink:title=" ">
<polygon fill="#e0e0e0" stroke="#999999" points="1104,-200.5 1046,-200.5 1046,-181.5 1104,-181.5 1104,-200.5"/>
<text text-anchor="middle" x="1075" y="-188.5" font-family="Helvetica,sans-Serif" font-size="10.00">memory</text>
</a>
</g>
</g>
<!-- Node17&#45;&gt;Node20 -->
<g id="edge21_Node000017_Node000020" class="edge">
<title>Node17&#45;&gt;Node20</title>
<g id="a_edge21_Node000017_Node000020"><a xlink:title=" ">
<path fill="none" stroke="#63b8ff" d="M807.31,-246.32C856.77,-239.76 952.36,-225.72 1032,-206 1034.95,-205.27 1038,-204.44 1041.04,-203.55"/>
<polygon fill="#63b8ff" stroke="#63b8ff" points="1042.09,-206.89 1050.62,-200.61 1040.03,-200.2 1042.09,-206.89"/>
</a>
</g>
</g>
<!-- Node21 -->
<g id="Node000021" class="node">
<title>Node21</title>
<g id="a_Node000021"><a xlink:title=" ">
<polygon fill="#e0e0e0" stroke="#999999" points="1172,-200.5 1122,-200.5 1122,-181.5 1172,-181.5 1172,-200.5"/>
<text text-anchor="middle" x="1147" y="-188.5" font-family="Helvetica,sans-Serif" font-size="10.00">ranges</text>
</a>
</g>
</g>
<!-- Node17&#45;&gt;Node21 -->
<g id="edge22_Node000017_Node000021" class="edge">
<title>Node17&#45;&gt;Node21</title>
<g id="a_edge22_Node000017_Node000021"><a xlink:title=" ">
<path fill="none" stroke="#63b8ff" d="M807.28,-249C868.66,-245.6 1003.45,-235.21 1113,-206 1114.94,-205.48 1116.92,-204.88 1118.9,-204.22"/>
<polygon fill="#63b8ff" stroke="#63b8ff" points="1120.46,-207.38 1128.6,-200.6 1118,-200.82 1120.46,-207.38"/>
</a>
</g>
</g>
<!-- Node22 -->
<g id="Node000022" class="node">
<title>Node22</title>
<g id="a_Node000022"><a xlink:href="exception_8h.html" target="_top" xlink:title=" ">
<polygon fill="white" stroke="#666666" points="1028,-79.5 898,-79.5 898,-60.5 1028,-60.5 1028,-79.5"/>
<text text-anchor="middle" x="963" y="-67.5" font-family="Helvetica,sans-Serif" font-size="10.00">exceptions/exception.h</text>
</a>
</g>
</g>
<!-- Node17&#45;&gt;Node22 -->
<g id="edge25_Node000017_Node000022" class="edge">
<title>Node17&#45;&gt;Node22</title>
<g id="a_edge25_Node000017_Node000022"><a xlink:title=" ">
<path fill="none" stroke="#63b8ff" d="M807.26,-248.93C863.86,-245.47 975.11,-235.07 999,-206 1027.64,-171.14 995.67,-115.68 976.03,-87.95"/>
<polygon fill="#63b8ff" stroke="#63b8ff" points="978.7,-85.67 969.96,-79.68 973.06,-89.81 978.7,-85.67"/>
</a>
</g>
</g>
<!-- Node25 -->
<g id="Node000025" class="node">
<title>Node25</title>
<g id="a_Node000025"><a xlink:href="logger_8h.html" target="_top" xlink:title=" ">
<polygon fill="white" stroke="#666666" points="679.5,-140 596.5,-140 596.5,-121 679.5,-121 679.5,-140"/>
<text text-anchor="middle" x="638" y="-128" font-family="Helvetica,sans-Serif" font-size="10.00">tools/logger.h</text>
</a>
</g>
</g>
<!-- Node17&#45;&gt;Node25 -->
<g id="edge29_Node000017_Node000025" class="edge">
<title>Node17&#45;&gt;Node25</title>
<g id="a_edge29_Node000017_Node000025"><a xlink:title=" ">
<path fill="none" stroke="#63b8ff" d="M756.16,-241.94C740.44,-233.91 717.41,-220.93 700,-206 679.93,-188.78 661.14,-164.63 649.61,-148.54"/>
<polygon fill="#63b8ff" stroke="#63b8ff" points="652.32,-146.3 643.72,-140.12 646.58,-150.32 652.32,-146.3"/>
</a>
</g>
</g>
<!-- Node31 -->
<g id="Node000031" class="node">
<title>Node31</title>
<g id="a_Node000031"><a xlink:href="element__parameters_8h.html" target="_top" xlink:title=" ">
<polygon fill="white" stroke="#666666" points="839.5,-206 708.5,-206 708.5,-176 839.5,-176 839.5,-206"/>
<text text-anchor="start" x="716.5" y="-194" font-family="Helvetica,sans-Serif" font-size="10.00">element_parameters</text>
<text text-anchor="middle" x="774" y="-183" font-family="Helvetica,sans-Serif" font-size="10.00">/element_parameters.h</text>
</a>
</g>
</g>
<!-- Node17&#45;&gt;Node31 -->
<g id="edge44_Node000017_Node000031" class="edge">
<title>Node17&#45;&gt;Node31</title>
<g id="a_edge44_Node000017_Node000031"><a xlink:title=" ">
<path fill="none" stroke="#63b8ff" d="M774,-241.87C774,-235.11 774,-225.35 774,-216.26"/>
<polygon fill="#63b8ff" stroke="#63b8ff" points="777.5,-216.11 774,-206.11 770.5,-216.11 777.5,-216.11"/>
</a>
</g>
</g>
<!-- Node22&#45;&gt;Node18 -->
<g id="edge28_Node000022_Node000018" class="edge">
<title>Node22&#45;&gt;Node18</title>
<g id="a_edge28_Node000022_Node000018"><a xlink:title=" ">
<path fill="none" stroke="#63b8ff" d="M943.95,-60.49C922.03,-50.7 885.79,-34.52 860.5,-23.23"/>
<polygon fill="#63b8ff" stroke="#63b8ff" points="861.63,-19.9 851.07,-19.02 858.78,-26.29 861.63,-19.9"/>
</a>
</g>
</g>
<!-- Node23 -->
<g id="Node000023" class="node">
<title>Node23</title>
<g id="a_Node000023"><a xlink:title=" ">
<polygon fill="#e0e0e0" stroke="#999999" points="1035,-19 985,-19 985,0 1035,0 1035,-19"/>
<text text-anchor="middle" x="1010" y="-7" font-family="Helvetica,sans-Serif" font-size="10.00">cstdint</text>
</a>
</g>
</g>
<!-- Node22&#45;&gt;Node23 -->
<g id="edge26_Node000022_Node000023" class="edge">
<title>Node22&#45;&gt;Node23</title>
<g id="a_edge26_Node000022_Node000023"><a xlink:title=" ">
<path fill="none" stroke="#63b8ff" d="M969.94,-60.37C976.95,-51.64 987.96,-37.93 996.67,-27.09"/>
<polygon fill="#63b8ff" stroke="#63b8ff" points="999.5,-29.16 1003.04,-19.17 994.04,-24.77 999.5,-29.16"/>
</a>
</g>
</g>
<!-- Node24 -->
<g id="Node000024" class="node">
<title>Node24</title>
<g id="a_Node000024"><a xlink:title=" ">
<polygon fill="#e0e0e0" stroke="#999999" points="966.5,-19 901.5,-19 901.5,0 966.5,0 966.5,-19"/>
<text text-anchor="middle" x="934" y="-7" font-family="Helvetica,sans-Serif" font-size="10.00">exception</text>
</a>
</g>
</g>
<!-- Node22&#45;&gt;Node24 -->
<g id="edge27_Node000022_Node000024" class="edge">
<title>Node22&#45;&gt;Node24</title>
<g id="a_edge27_Node000022_Node000024"><a xlink:title=" ">
<path fill="none" stroke="#63b8ff" d="M958.72,-60.37C954.57,-51.99 948.13,-39.01 942.87,-28.39"/>
<polygon fill="#63b8ff" stroke="#63b8ff" points="945.87,-26.57 938.3,-19.17 939.6,-29.68 945.87,-26.57"/>
</a>
</g>
</g>
<!-- Node25&#45;&gt;Node5 -->
<g id="edge33_Node000025_Node000005" class="edge">
<title>Node25&#45;&gt;Node5</title>
<g id="a_edge33_Node000025_Node000005"><a xlink:title=" ">
<path fill="none" stroke="#63b8ff" d="M601.23,-120.97C566.6,-112.67 513.4,-99.27 468,-85 465.87,-84.33 463.69,-83.61 461.5,-82.87"/>
<polygon fill="#63b8ff" stroke="#63b8ff" points="462.57,-79.54 451.98,-79.51 460.24,-86.14 462.57,-79.54"/>
</a>
</g>
</g>
<!-- Node25&#45;&gt;Node18 -->
<g id="edge31_Node000025_Node000018" class="edge">
<title>Node25&#45;&gt;Node18</title>
<g id="a_edge31_Node000025_Node000018"><a xlink:title=" ">
<path fill="none" stroke="#63b8ff" d="M679.6,-122.76C708.4,-116.56 746.52,-105.15 775,-85 796.11,-70.06 812.97,-44.98 822.72,-28.09"/>
<polygon fill="#63b8ff" stroke="#63b8ff" points="825.84,-29.68 827.62,-19.24 819.72,-26.29 825.84,-29.68"/>
</a>
</g>
</g>
<!-- Node25&#45;&gt;Node22 -->
<g id="edge35_Node000025_Node000022" class="edge">
<title>Node25&#45;&gt;Node22</title>
<g id="a_edge35_Node000025_Node000022"><a xlink:title=" ">
<path fill="none" stroke="#63b8ff" d="M679.82,-121.97C737.27,-111.63 840.81,-92.99 905.51,-81.35"/>
<polygon fill="#63b8ff" stroke="#63b8ff" points="906.32,-84.76 915.54,-79.54 905.08,-77.87 906.32,-84.76"/>
</a>
</g>
</g>
<!-- Node26 -->
<g id="Node000026" class="node">
<title>Node26</title>
<g id="a_Node000026"><a xlink:title=" ">
<polygon fill="#e0e0e0" stroke="#999999" points="602,-79.5 542,-79.5 542,-60.5 602,-60.5 602,-79.5"/>
<text text-anchor="middle" x="572" y="-67.5" font-family="Helvetica,sans-Serif" font-size="10.00">iostream</text>
</a>
</g>
</g>
<!-- Node25&#45;&gt;Node26 -->
<g id="edge30_Node000025_Node000026" class="edge">
<title>Node25&#45;&gt;Node26</title>
<g id="a_edge30_Node000025_Node000026"><a xlink:title=" ">
<path fill="none" stroke="#63b8ff" d="M628.26,-120.87C618.03,-111.8 601.71,-97.34 589.28,-86.32"/>
<polygon fill="#63b8ff" stroke="#63b8ff" points="591.58,-83.68 581.78,-79.67 586.94,-88.92 591.58,-83.68"/>
</a>
</g>
</g>
<!-- Node27 -->
<g id="Node000027" class="node">
<title>Node27</title>
<g id="a_Node000027"><a xlink:title=" ">
<polygon fill="#e0e0e0" stroke="#999999" points="629,-19 579,-19 579,0 629,0 629,-19"/>
<text text-anchor="middle" x="604" y="-7" font-family="Helvetica,sans-Serif" font-size="10.00">chrono</text>
</a>
</g>
</g>
<!-- Node25&#45;&gt;Node27 -->
<g id="edge32_Node000025_Node000027" class="edge">
<title>Node25&#45;&gt;Node27</title>
<g id="a_edge32_Node000025_Node000027"><a xlink:title=" ">
<path fill="none" stroke="#63b8ff" d="M635.55,-120.94C630.09,-101.82 616.79,-55.27 609.32,-29.12"/>
<polygon fill="#63b8ff" stroke="#63b8ff" points="612.63,-27.96 606.51,-19.3 605.9,-29.88 612.63,-27.96"/>
</a>
</g>
</g>
<!-- Node28 -->
<g id="Node000028" class="node">
<title>Node28</title>
<g id="a_Node000028"><a xlink:title=" ">
<polygon fill="#e0e0e0" stroke="#999999" points="765.5,-85 658.5,-85 658.5,-55 765.5,-55 765.5,-85"/>
<text text-anchor="start" x="666.5" y="-73" font-family="Helvetica,sans-Serif" font-size="10.00">imgui&#45;platform&#45;kit</text>
<text text-anchor="middle" x="712" y="-62" font-family="Helvetica,sans-Serif" font-size="10.00">/log_window.h</text>
</a>
</g>
</g>
<!-- Node25&#45;&gt;Node28 -->
<g id="edge34_Node000025_Node000028" class="edge">
<title>Node25&#45;&gt;Node28</title>
<g id="a_edge34_Node000025_Node000028"><a xlink:title=" ">
<path fill="none" stroke="#63b8ff" d="M648.92,-120.87C658.68,-113.15 673.37,-101.54 686.12,-91.46"/>
<polygon fill="#63b8ff" stroke="#63b8ff" points="688.47,-94.06 694.15,-85.11 684.13,-88.57 688.47,-94.06"/>
</a>
</g>
</g>
<!-- Node29 -->
<g id="Node000029" class="node">
<title>Node29</title>
<g id="a_Node000029"><a xlink:href="utils_8h.html" target="_top" xlink:title=" ">
<polygon fill="white" stroke="#666666" points="523.5,-79.5 476.5,-79.5 476.5,-60.5 523.5,-60.5 523.5,-79.5"/>
<text text-anchor="middle" x="500" y="-67.5" font-family="Helvetica,sans-Serif" font-size="10.00">utils.h</text>
</a>
</g>
</g>
<!-- Node25&#45;&gt;Node29 -->
<g id="edge36_Node000025_Node000029" class="edge">
<title>Node25&#45;&gt;Node29</title>
<g id="a_edge36_Node000025_Node000029"><a xlink:title=" ">
<path fill="none" stroke="#63b8ff" d="M617.93,-120.99C594.63,-111.12 555.99,-94.73 529.32,-83.43"/>
<polygon fill="#63b8ff" stroke="#63b8ff" points="530.66,-80.2 520.09,-79.52 527.93,-86.64 530.66,-80.2"/>
</a>
</g>
</g>
<!-- Node29&#45;&gt;Node4 -->
<g id="edge40_Node000029_Node000004" class="edge">
<title>Node29&#45;&gt;Node4</title>
<g id="a_edge40_Node000029_Node000004"><a xlink:title=" ">
<path fill="none" stroke="#63b8ff" d="M482.53,-60.44C477.61,-58.35 472.18,-56.33 467,-55 428.65,-45.16 165.99,-22.2 66.28,-13.72"/>
<polygon fill="#63b8ff" stroke="#63b8ff" points="66.31,-10.21 56.05,-12.85 65.72,-17.18 66.31,-10.21"/>
</a>
</g>
</g>
<!-- Node29&#45;&gt;Node8 -->
<g id="edge38_Node000029_Node000008" class="edge">
<title>Node29&#45;&gt;Node8</title>
<g id="a_edge38_Node000029_Node000008"><a xlink:title=" ">
<path fill="none" stroke="#63b8ff" d="M481.68,-60.49C460.59,-50.7 425.74,-34.52 401.42,-23.23"/>
<polygon fill="#63b8ff" stroke="#63b8ff" points="402.89,-20.05 392.34,-19.02 399.94,-26.4 402.89,-20.05"/>
</a>
</g>
</g>
<!-- Node29&#45;&gt;Node13 -->
<g id="edge39_Node000029_Node000013" class="edge">
<title>Node29&#45;&gt;Node13</title>
<g id="a_edge39_Node000029_Node000013"><a xlink:title=" ">
<path fill="none" stroke="#63b8ff" d="M481.35,-60.48C476.72,-58.53 471.72,-56.57 467,-55 418.02,-38.71 359.81,-25.44 322.89,-17.76"/>
<polygon fill="#63b8ff" stroke="#63b8ff" points="323.56,-14.32 313.06,-15.74 322.15,-21.18 323.56,-14.32"/>
</a>
</g>
</g>
<!-- Node29&#45;&gt;Node15 -->
<g id="edge41_Node000029_Node000015" class="edge">
<title>Node29&#45;&gt;Node15</title>
<g id="a_edge41_Node000029_Node000015"><a xlink:title=" ">
<path fill="none" stroke="#63b8ff" d="M482.14,-60.47C477.31,-58.42 472.03,-56.43 467,-55 420.1,-41.69 281.47,-23.5 213.89,-15.1"/>
<polygon fill="#63b8ff" stroke="#63b8ff" points="214.04,-11.59 203.68,-13.84 213.18,-18.54 214.04,-11.59"/>
</a>
</g>
</g>
<!-- Node29&#45;&gt;Node18 -->
<g id="edge37_Node000029_Node000018" class="edge">
<title>Node29&#45;&gt;Node18</title>
<g id="a_edge37_Node000029_Node000018"><a xlink:title=" ">
<path fill="none" stroke="#63b8ff" d="M517.86,-60.45C522.69,-58.41 527.97,-56.42 533,-55 627.72,-28.33 744.09,-16.85 799.58,-12.62"/>
<polygon fill="#63b8ff" stroke="#63b8ff" points="800.12,-16.09 809.84,-11.87 799.61,-9.11 800.12,-16.09"/>
</a>
</g>
</g>
<!-- Node29&#45;&gt;Node27 -->
<g id="edge42_Node000029_Node000027" class="edge">
<title>Node29&#45;&gt;Node27</title>
<g id="a_edge42_Node000029_Node000027"><a xlink:title=" ">
<path fill="none" stroke="#63b8ff" d="M515.35,-60.37C532.32,-50.82 559.9,-35.31 579.79,-24.12"/>
<polygon fill="#63b8ff" stroke="#63b8ff" points="581.59,-27.12 588.59,-19.17 578.16,-21.02 581.59,-27.12"/>
</a>
</g>
</g>
<!-- Node30 -->
<g id="Node000030" class="node">
<title>Node30</title>
<g id="a_Node000030"><a xlink:title=" ">
<polygon fill="#e0e0e0" stroke="#999999" points="534,-19 466,-19 466,0 534,0 534,-19"/>
<text text-anchor="middle" x="500" y="-7" font-family="Helvetica,sans-Serif" font-size="10.00">filesystem</text>
</a>
</g>
</g>
<!-- Node29&#45;&gt;Node30 -->
<g id="edge43_Node000029_Node000030" class="edge">
<title>Node29&#45;&gt;Node30</title>
<g id="a_edge43_Node000029_Node000030"><a xlink:title=" ">
<path fill="none" stroke="#63b8ff" d="M500,-60.37C500,-52.25 500,-39.81 500,-29.39"/>
<polygon fill="#63b8ff" stroke="#63b8ff" points="503.5,-29.17 500,-19.17 496.5,-29.17 503.5,-29.17"/>
</a>
</g>
</g>
<!-- Node31&#45;&gt;Node18 -->
<g id="edge46_Node000031_Node000018" class="edge">
<title>Node31&#45;&gt;Node18</title>
<g id="a_edge46_Node000031_Node000018"><a xlink:title=" ">
<path fill="none" stroke="#63b8ff" d="M788.18,-176C796.79,-166.63 807.2,-153.56 813,-140 828.8,-103.04 831.84,-55.32 832.21,-29.36"/>
<polygon fill="#63b8ff" stroke="#63b8ff" points="835.71,-29.09 832.22,-19.08 828.71,-29.08 835.71,-29.09"/>
</a>
</g>
</g>
<!-- Node31&#45;&gt;Node25 -->
<g id="edge48_Node000031_Node000025" class="edge">
<title>Node31&#45;&gt;Node25</title>
<g id="a_edge48_Node000031_Node000025"><a xlink:title=" ">
<path fill="none" stroke="#63b8ff" d="M741.42,-175.99C718.94,-166.31 689.28,-153.56 667.49,-144.18"/>
<polygon fill="#63b8ff" stroke="#63b8ff" points="668.65,-140.88 658.08,-140.14 665.89,-147.31 668.65,-140.88"/>
</a>
</g>
</g>
<!-- Node32 -->
<g id="Node000032" class="node">
<title>Node32</title>
<g id="a_Node000032"><a xlink:title=" ">
<polygon fill="#e0e0e0" stroke="#999999" points="736,-140 698,-140 698,-121 736,-121 736,-140"/>
<text text-anchor="middle" x="717" y="-128" font-family="Helvetica,sans-Serif" font-size="10.00">map</text>
</a>
</g>
</g>
<!-- Node31&#45;&gt;Node32 -->
<g id="edge45_Node000031_Node000032" class="edge">
<title>Node31&#45;&gt;Node32</title>
<g id="a_edge45_Node000031_Node000032"><a xlink:title=" ">
<path fill="none" stroke="#63b8ff" d="M760.2,-175.84C751.93,-167.35 741.38,-156.52 732.77,-147.69"/>
<polygon fill="#63b8ff" stroke="#63b8ff" points="735.03,-144.99 725.54,-140.27 730.01,-149.87 735.03,-144.99"/>
</a>
</g>
</g>
<!-- Node33 -->
<g id="Node000033" class="node">
<title>Node33</title>
<g id="a_Node000033"><a xlink:title=" ">
<polygon fill="#e0e0e0" stroke="#999999" points="804,-140 754,-140 754,-121 804,-121 804,-140"/>
<text text-anchor="middle" x="779" y="-128" font-family="Helvetica,sans-Serif" font-size="10.00">format</text>
</a>
</g>
</g>
<!-- Node31&#45;&gt;Node33 -->
<g id="edge47_Node000031_Node000033" class="edge">
<title>Node31&#45;&gt;Node33</title>
<g id="a_edge47_Node000031_Node000033"><a xlink:title=" ">
<path fill="none" stroke="#63b8ff" d="M775.21,-175.84C775.86,-168.21 776.67,-158.7 777.38,-150.45"/>
<polygon fill="#63b8ff" stroke="#63b8ff" points="780.89,-150.53 778.25,-140.27 773.91,-149.93 780.89,-150.53"/>
</a>
</g>
</g>
</g>
</svg>
