<?xml version="1.0" encoding="UTF-8" standalone="no"?>
<!DOCTYPE svg PUBLIC "-//W3C//DTD SVG 1.1//EN"
 "http://www.w3.org/Graphics/SVG/1.1/DTD/svg11.dtd">
<!-- Generated by graphviz version 2.43.0 (0)
 -->
<!-- Title: include/elements/gauss_field_coupling.h Pages: 1 -->
<svg width="1297pt" height="335pt"
 viewBox="0.00 0.00 1296.50 335.00" xmlns="http://www.w3.org/2000/svg" xmlns:xlink="http://www.w3.org/1999/xlink">
<g id="graph0" class="graph" transform="scale(1 1) rotate(0) translate(4 331)">
<title>include/elements/gauss_field_coupling.h</title>
<!-- Node1 -->
<g id="Node000001" class="node">
<title>Node1</title>
<g id="a_Node000001"><a xlink:title=" ">
<polygon fill="#999999" stroke="#666666" points="945,-327 813,-327 813,-297 945,-297 945,-327"/>
<text text-anchor="start" x="821" y="-315" font-family="Helvetica,sans-Serif" font-size="10.00">include/elements/gauss</text>
<text text-anchor="middle" x="879" y="-304" font-family="Helvetica,sans-Serif" font-size="10.00">_field_coupling.h</text>
</a>
</g>
</g>
<!-- Node2 -->
<g id="Node000002" class="node">
<title>Node2</title>
<g id="a_Node000002"><a xlink:href="element_8h.html" target="_top" xlink:title=" ">
<polygon fill="white" stroke="#666666" points="567,-261 501,-261 501,-242 567,-242 567,-261"/>
<text text-anchor="middle" x="534" y="-249" font-family="Helvetica,sans-Serif" font-size="10.00">element.h</text>
</a>
</g>
</g>
<!-- Node1&#45;&gt;Node2 -->
<g id="edge1_Node000001_Node000002" class="edge">
<title>Node1&#45;&gt;Node2</title>
<g id="a_edge1_Node000001_Node000002"><a xlink:title=" ">
<path fill="none" stroke="#63b8ff" d="M812.89,-299.79C743.49,-288.02 636.4,-269.86 577.14,-259.82"/>
<polygon fill="#63b8ff" stroke="#63b8ff" points="577.45,-256.32 567.01,-258.1 576.28,-263.22 577.45,-256.32"/>
</a>
</g>
</g>
<!-- Node17 -->
<g id="Node000017" class="node">
<title>Node17</title>
<g id="a_Node000017"><a xlink:href="utils_8h.html" target="_top" xlink:title=" ">
<polygon fill="white" stroke="#666666" points="625.5,-79.5 578.5,-79.5 578.5,-60.5 625.5,-60.5 625.5,-79.5"/>
<text text-anchor="middle" x="602" y="-67.5" font-family="Helvetica,sans-Serif" font-size="10.00">utils.h</text>
</a>
</g>
</g>
<!-- Node1&#45;&gt;Node17 -->
<g id="edge42_Node000001_Node000017" class="edge">
<title>Node1&#45;&gt;Node17</title>
<g id="a_edge42_Node000001_Node000017"><a xlink:title=" ">
<path fill="none" stroke="#63b8ff" d="M881.27,-296.63C884.66,-269.86 887.94,-211.84 860,-176 804.42,-104.69 692.43,-81.54 636.05,-74.23"/>
<polygon fill="#63b8ff" stroke="#63b8ff" points="636.22,-70.73 625.88,-73.01 635.39,-77.68 636.22,-70.73"/>
</a>
</g>
</g>
<!-- Node24 -->
<g id="Node000024" class="node">
<title>Node24</title>
<g id="a_Node000024"><a xlink:href="math_8h.html" target="_top" xlink:title=" ">
<polygon fill="white" stroke="#666666" points="1018,-261 940,-261 940,-242 1018,-242 1018,-261"/>
<text text-anchor="middle" x="979" y="-249" font-family="Helvetica,sans-Serif" font-size="10.00">tools/math.h</text>
</a>
</g>
</g>
<!-- Node1&#45;&gt;Node24 -->
<g id="edge31_Node000001_Node000024" class="edge">
<title>Node1&#45;&gt;Node24</title>
<g id="a_edge31_Node000001_Node000024"><a xlink:title=" ">
<path fill="none" stroke="#63b8ff" d="M902.95,-296.99C918.89,-287.66 939.73,-275.47 955.56,-266.21"/>
<polygon fill="#63b8ff" stroke="#63b8ff" points="957.37,-269.21 964.23,-261.14 953.83,-263.17 957.37,-269.21"/>
</a>
</g>
</g>
<!-- Node3 -->
<g id="Node000003" class="node">
<title>Node3</title>
<g id="a_Node000003"><a xlink:title=" ">
<polygon fill="#e0e0e0" stroke="#999999" points="803.5,-19 756.5,-19 756.5,0 803.5,0 803.5,-19"/>
<text text-anchor="middle" x="780" y="-7" font-family="Helvetica,sans-Serif" font-size="10.00">vector</text>
</a>
</g>
</g>
<!-- Node2&#45;&gt;Node3 -->
<g id="edge2_Node000002_Node000003" class="edge">
<title>Node2&#45;&gt;Node3</title>
<g id="a_edge2_Node000002_Node000003"><a xlink:title=" ">
<path fill="none" stroke="#63b8ff" d="M545.7,-241.67C557.06,-232.95 574.65,-219.07 589,-206 658.21,-142.97 734.18,-60.99 765.39,-26.69"/>
<polygon fill="#63b8ff" stroke="#63b8ff" points="768.2,-28.8 772.33,-19.04 763.02,-24.1 768.2,-28.8"/>
</a>
</g>
</g>
<!-- Node4 -->
<g id="Node000004" class="node">
<title>Node4</title>
<g id="a_Node000004"><a xlink:title=" ">
<polygon fill="#e0e0e0" stroke="#999999" points="344,-19 300,-19 300,0 344,0 344,-19"/>
<text text-anchor="middle" x="322" y="-7" font-family="Helvetica,sans-Serif" font-size="10.00">string</text>
</a>
</g>
</g>
<!-- Node2&#45;&gt;Node4 -->
<g id="edge3_Node000002_Node000004" class="edge">
<title>Node2&#45;&gt;Node4</title>
<g id="a_edge3_Node000002_Node000004"><a xlink:title=" ">
<path fill="none" stroke="#63b8ff" d="M500.8,-248.23C423.77,-240.86 235.06,-210.19 177,-85 171.39,-72.9 169.07,-65.72 177,-55 202.7,-20.22 255.1,-11.75 289.37,-10.15"/>
<polygon fill="#63b8ff" stroke="#63b8ff" points="289.9,-13.63 299.8,-9.84 289.7,-6.64 289.9,-13.63"/>
</a>
</g>
</g>
<!-- Node5 -->
<g id="Node000005" class="node">
<title>Node5</title>
<g id="a_Node000005"><a xlink:title=" ">
<polygon fill="#e0e0e0" stroke="#999999" points="580.5,-200.5 487.5,-200.5 487.5,-181.5 580.5,-181.5 580.5,-200.5"/>
<text text-anchor="middle" x="534" y="-188.5" font-family="Helvetica,sans-Serif" font-size="10.00">unordered_map</text>
</a>
</g>
</g>
<!-- Node2&#45;&gt;Node5 -->
<g id="edge4_Node000002_Node000005" class="edge">
<title>Node2&#45;&gt;Node5</title>
<g id="a_edge4_Node000002_Node000005"><a xlink:title=" ">
<path fill="none" stroke="#63b8ff" d="M534,-241.87C534,-233.75 534,-221.31 534,-210.89"/>
<polygon fill="#63b8ff" stroke="#63b8ff" points="537.5,-210.67 534,-200.67 530.5,-210.67 537.5,-210.67"/>
</a>
</g>
</g>
<!-- Node6 -->
<g id="Node000006" class="node">
<title>Node6</title>
<g id="a_Node000006"><a xlink:title=" ">
<polygon fill="#e0e0e0" stroke="#999999" points="695,-200.5 637,-200.5 637,-181.5 695,-181.5 695,-200.5"/>
<text text-anchor="middle" x="666" y="-188.5" font-family="Helvetica,sans-Serif" font-size="10.00">memory</text>
</a>
</g>
</g>
<!-- Node2&#45;&gt;Node6 -->
<g id="edge5_Node000002_Node000006" class="edge">
<title>Node2&#45;&gt;Node6</title>
<g id="a_edge5_Node000002_Node000006"><a xlink:title=" ">
<path fill="none" stroke="#63b8ff" d="M553.19,-241.99C575.39,-232.16 612.12,-215.88 637.62,-204.58"/>
<polygon fill="#63b8ff" stroke="#63b8ff" points="639.06,-207.77 646.78,-200.52 636.22,-201.37 639.06,-207.77"/>
</a>
</g>
</g>
<!-- Node7 -->
<g id="Node000007" class="node">
<title>Node7</title>
<g id="a_Node000007"><a xlink:title=" ">
<polygon fill="#e0e0e0" stroke="#999999" points="92,-200.5 42,-200.5 42,-181.5 92,-181.5 92,-200.5"/>
<text text-anchor="middle" x="67" y="-188.5" font-family="Helvetica,sans-Serif" font-size="10.00">ranges</text>
</a>
</g>
</g>
<!-- Node2&#45;&gt;Node7 -->
<g id="edge6_Node000002_Node000007" class="edge">
<title>Node2&#45;&gt;Node7</title>
<g id="a_edge6_Node000002_Node000007"><a xlink:title=" ">
<path fill="none" stroke="#63b8ff" d="M500.81,-249.76C428.28,-247.56 250.58,-238.96 106,-206 103.17,-205.36 100.27,-204.57 97.38,-203.7"/>
<polygon fill="#63b8ff" stroke="#63b8ff" points="98.37,-200.33 87.77,-200.5 96.16,-206.98 98.37,-200.33"/>
</a>
</g>
</g>
<!-- Node8 -->
<g id="Node000008" class="node">
<title>Node8</title>
<g id="a_Node000008"><a xlink:title=" ">
<polygon fill="#e0e0e0" stroke="#999999" points="851,-200.5 787,-200.5 787,-181.5 851,-181.5 851,-200.5"/>
<text text-anchor="middle" x="819" y="-188.5" font-family="Helvetica,sans-Serif" font-size="10.00">algorithm</text>
</a>
</g>
</g>
<!-- Node2&#45;&gt;Node8 -->
<g id="edge7_Node000002_Node000008" class="edge">
<title>Node2&#45;&gt;Node8</title>
<g id="a_edge7_Node000002_Node000008"><a xlink:title=" ">
<path fill="none" stroke="#63b8ff" d="M567.1,-246.06C614.34,-239.36 703.62,-225.37 778,-206 780.64,-205.31 783.35,-204.54 786.07,-203.72"/>
<polygon fill="#63b8ff" stroke="#63b8ff" points="787.32,-206.99 795.77,-200.6 785.17,-200.33 787.32,-206.99"/>
</a>
</g>
</g>
<!-- Node9 -->
<g id="Node000009" class="node">
<title>Node9</title>
<g id="a_Node000009"><a xlink:title=" ">
<polygon fill="#e0e0e0" stroke="#999999" points="769,-200.5 713,-200.5 713,-181.5 769,-181.5 769,-200.5"/>
<text text-anchor="middle" x="741" y="-188.5" font-family="Helvetica,sans-Serif" font-size="10.00">numeric</text>
</a>
</g>
</g>
<!-- Node2&#45;&gt;Node9 -->
<g id="edge8_Node000002_Node000009" class="edge">
<title>Node2&#45;&gt;Node9</title>
<g id="a_edge8_Node000002_Node000009"><a xlink:title=" ">
<path fill="none" stroke="#63b8ff" d="M567.2,-242.91C601.69,-234.77 657.06,-220.98 704,-206 705.91,-205.39 707.87,-204.74 709.84,-204.06"/>
<polygon fill="#63b8ff" stroke="#63b8ff" points="711.39,-207.22 719.61,-200.53 709.02,-200.63 711.39,-207.22"/>
</a>
</g>
</g>
<!-- Node10 -->
<g id="Node000010" class="node">
<title>Node10</title>
<g id="a_Node000010"><a xlink:href="exception_8h.html" target="_top" xlink:title=" ">
<polygon fill="white" stroke="#666666" points="130,-79.5 0,-79.5 0,-60.5 130,-60.5 130,-79.5"/>
<text text-anchor="middle" x="65" y="-67.5" font-family="Helvetica,sans-Serif" font-size="10.00">exceptions/exception.h</text>
</a>
</g>
</g>
<!-- Node2&#45;&gt;Node10 -->
<g id="edge9_Node000002_Node000010" class="edge">
<title>Node2&#45;&gt;Node10</title>
<g id="a_edge9_Node000002_Node000010"><a xlink:title=" ">
<path fill="none" stroke="#63b8ff" d="M500.7,-250.45C417.41,-249.73 202.52,-244.13 144,-206 101.65,-178.41 79.12,-119.57 69.98,-89.51"/>
<polygon fill="#63b8ff" stroke="#63b8ff" points="73.33,-88.49 67.2,-79.85 66.6,-90.42 73.33,-88.49"/>
</a>
</g>
</g>
<!-- Node12 -->
<g id="Node000012" class="node">
<title>Node12</title>
<g id="a_Node000012"><a xlink:href="logger_8h.html" target="_top" xlink:title=" ">
<polygon fill="white" stroke="#666666" points="401.5,-140 318.5,-140 318.5,-121 401.5,-121 401.5,-140"/>
<text text-anchor="middle" x="360" y="-128" font-family="Helvetica,sans-Serif" font-size="10.00">tools/logger.h</text>
</a>
</g>
</g>
<!-- Node2&#45;&gt;Node12 -->
<g id="edge12_Node000002_Node000012" class="edge">
<title>Node2&#45;&gt;Node12</title>
<g id="a_edge12_Node000002_Node000012"><a xlink:title=" ">
<path fill="none" stroke="#63b8ff" d="M500.75,-248.22C448.31,-243.85 350.2,-232.3 329,-206 314.92,-188.54 330.58,-163.78 344.28,-147.68"/>
<polygon fill="#63b8ff" stroke="#63b8ff" points="346.99,-149.9 351.1,-140.14 341.8,-145.21 346.99,-149.9"/>
</a>
</g>
</g>
<!-- Node21 -->
<g id="Node000021" class="node">
<title>Node21</title>
<g id="a_Node000021"><a xlink:href="element__parameters_8h.html" target="_top" xlink:title=" ">
<polygon fill="white" stroke="#666666" points="469.5,-206 338.5,-206 338.5,-176 469.5,-176 469.5,-206"/>
<text text-anchor="start" x="346.5" y="-194" font-family="Helvetica,sans-Serif" font-size="10.00">element_parameters</text>
<text text-anchor="middle" x="404" y="-183" font-family="Helvetica,sans-Serif" font-size="10.00">/element_parameters.h</text>
</a>
</g>
</g>
<!-- Node2&#45;&gt;Node21 -->
<g id="edge26_Node000002_Node000021" class="edge">
<title>Node2&#45;&gt;Node21</title>
<g id="a_edge26_Node000002_Node000021"><a xlink:title=" ">
<path fill="none" stroke="#63b8ff" d="M515.1,-241.99C496.71,-233.72 468.2,-220.89 444.66,-210.3"/>
<polygon fill="#63b8ff" stroke="#63b8ff" points="445.81,-206.98 435.25,-206.06 442.94,-213.36 445.81,-206.98"/>
</a>
</g>
</g>
<!-- Node10&#45;&gt;Node4 -->
<g id="edge11_Node000010_Node000004" class="edge">
<title>Node10&#45;&gt;Node4</title>
<g id="a_edge11_Node000010_Node000004"><a xlink:title=" ">
<path fill="none" stroke="#63b8ff" d="M102.37,-60.49C152.95,-48.98 242.35,-28.63 290,-17.78"/>
<polygon fill="#63b8ff" stroke="#63b8ff" points="290.81,-21.19 299.78,-15.56 289.25,-14.36 290.81,-21.19"/>
</a>
</g>
</g>
<!-- Node11 -->
<g id="Node000011" class="node">
<title>Node11</title>
<g id="a_Node000011"><a xlink:title=" ">
<polygon fill="#e0e0e0" stroke="#999999" points="97.5,-19 32.5,-19 32.5,0 97.5,0 97.5,-19"/>
<text text-anchor="middle" x="65" y="-7" font-family="Helvetica,sans-Serif" font-size="10.00">exception</text>
</a>
</g>
</g>
<!-- Node10&#45;&gt;Node11 -->
<g id="edge10_Node000010_Node000011" class="edge">
<title>Node10&#45;&gt;Node11</title>
<g id="a_edge10_Node000010_Node000011"><a xlink:title=" ">
<path fill="none" stroke="#63b8ff" d="M65,-60.37C65,-52.25 65,-39.81 65,-29.39"/>
<polygon fill="#63b8ff" stroke="#63b8ff" points="68.5,-29.17 65,-19.17 61.5,-29.17 68.5,-29.17"/>
</a>
</g>
</g>
<!-- Node12&#45;&gt;Node4 -->
<g id="edge14_Node000012_Node000004" class="edge">
<title>Node12&#45;&gt;Node4</title>
<g id="a_edge14_Node000012_Node000004"><a xlink:title=" ">
<path fill="none" stroke="#63b8ff" d="M357.27,-120.94C351.16,-101.82 336.3,-55.27 327.95,-29.12"/>
<polygon fill="#63b8ff" stroke="#63b8ff" points="331.19,-27.76 324.81,-19.3 324.52,-29.89 331.19,-27.76"/>
</a>
</g>
</g>
<!-- Node12&#45;&gt;Node10 -->
<g id="edge18_Node000012_Node000010" class="edge">
<title>Node12&#45;&gt;Node10</title>
<g id="a_edge18_Node000012_Node000010"><a xlink:title=" ">
<path fill="none" stroke="#63b8ff" d="M318.36,-121.24C265.77,-110.81 175.24,-92.86 117.83,-81.48"/>
<polygon fill="#63b8ff" stroke="#63b8ff" points="118.35,-78.01 107.86,-79.5 116.99,-84.88 118.35,-78.01"/>
</a>
</g>
</g>
<!-- Node13 -->
<g id="Node000013" class="node">
<title>Node13</title>
<g id="a_Node000013"><a xlink:title=" ">
<polygon fill="#e0e0e0" stroke="#999999" points="448,-79.5 388,-79.5 388,-60.5 448,-60.5 448,-79.5"/>
<text text-anchor="middle" x="418" y="-67.5" font-family="Helvetica,sans-Serif" font-size="10.00">iostream</text>
</a>
</g>
</g>
<!-- Node12&#45;&gt;Node13 -->
<g id="edge13_Node000012_Node000013" class="edge">
<title>Node12&#45;&gt;Node13</title>
<g id="a_edge13_Node000012_Node000013"><a xlink:title=" ">
<path fill="none" stroke="#63b8ff" d="M368.56,-120.87C377.38,-111.97 391.34,-97.89 402.18,-86.95"/>
<polygon fill="#63b8ff" stroke="#63b8ff" points="404.85,-89.23 409.41,-79.67 399.88,-84.3 404.85,-89.23"/>
</a>
</g>
</g>
<!-- Node14 -->
<g id="Node000014" class="node">
<title>Node14</title>
<g id="a_Node000014"><a xlink:title=" ">
<polygon fill="#e0e0e0" stroke="#999999" points="484,-19 434,-19 434,0 484,0 484,-19"/>
<text text-anchor="middle" x="459" y="-7" font-family="Helvetica,sans-Serif" font-size="10.00">chrono</text>
</a>
</g>
</g>
<!-- Node12&#45;&gt;Node14 -->
<g id="edge15_Node000012_Node000014" class="edge">
<title>Node12&#45;&gt;Node14</title>
<g id="a_edge15_Node000012_Node000014"><a xlink:title=" ">
<path fill="none" stroke="#63b8ff" d="M360.07,-120.73C360.62,-105.74 363.68,-74.88 379,-55 390.41,-40.19 408.21,-29.6 424.13,-22.47"/>
<polygon fill="#63b8ff" stroke="#63b8ff" points="425.84,-25.55 433.73,-18.48 423.15,-19.09 425.84,-25.55"/>
</a>
</g>
</g>
<!-- Node15 -->
<g id="Node000015" class="node">
<title>Node15</title>
<g id="a_Node000015"><a xlink:title=" ">
<polygon fill="#e0e0e0" stroke="#999999" points="522,-79.5 466,-79.5 466,-60.5 522,-60.5 522,-79.5"/>
<text text-anchor="middle" x="494" y="-67.5" font-family="Helvetica,sans-Serif" font-size="10.00">iomanip</text>
</a>
</g>
</g>
<!-- Node12&#45;&gt;Node15 -->
<g id="edge16_Node000012_Node000015" class="edge">
<title>Node12&#45;&gt;Node15</title>
<g id="a_edge16_Node000012_Node000015"><a xlink:title=" ">
<path fill="none" stroke="#63b8ff" d="M379.48,-120.99C402.01,-111.16 439.31,-94.88 465.19,-83.58"/>
<polygon fill="#63b8ff" stroke="#63b8ff" points="466.73,-86.73 474.49,-79.52 463.93,-80.31 466.73,-86.73"/>
</a>
</g>
</g>
<!-- Node16 -->
<g id="Node000016" class="node">
<title>Node16</title>
<g id="a_Node000016"><a xlink:title=" ">
<polygon fill="#e0e0e0" stroke="#999999" points="293.5,-85 186.5,-85 186.5,-55 293.5,-55 293.5,-85"/>
<text text-anchor="start" x="194.5" y="-73" font-family="Helvetica,sans-Serif" font-size="10.00">imgui&#45;platform&#45;kit</text>
<text text-anchor="middle" x="240" y="-62" font-family="Helvetica,sans-Serif" font-size="10.00">/log_window.h</text>
</a>
</g>
</g>
<!-- Node12&#45;&gt;Node16 -->
<g id="edge17_Node000012_Node000016" class="edge">
<title>Node12&#45;&gt;Node16</title>
<g id="a_edge17_Node000012_Node000016"><a xlink:title=" ">
<path fill="none" stroke="#63b8ff" d="M342.55,-120.99C325.79,-112.82 299.9,-100.2 278.33,-89.69"/>
<polygon fill="#63b8ff" stroke="#63b8ff" points="279.6,-86.41 269.08,-85.18 276.54,-92.71 279.6,-86.41"/>
</a>
</g>
</g>
<!-- Node12&#45;&gt;Node17 -->
<g id="edge19_Node000012_Node000017" class="edge">
<title>Node12&#45;&gt;Node17</title>
<g id="a_edge19_Node000012_Node000017"><a xlink:title=" ">
<path fill="none" stroke="#63b8ff" d="M395.19,-120.99C441.65,-109.76 522.88,-90.13 568.48,-79.1"/>
<polygon fill="#63b8ff" stroke="#63b8ff" points="569.56,-82.44 578.46,-76.69 567.91,-75.64 569.56,-82.44"/>
</a>
</g>
</g>
<!-- Node17&#45;&gt;Node3 -->
<g id="edge21_Node000017_Node000003" class="edge">
<title>Node17&#45;&gt;Node3</title>
<g id="a_edge21_Node000017_Node000003"><a xlink:title=" ">
<path fill="none" stroke="#63b8ff" d="M624.85,-60.39C629.83,-58.57 635.08,-56.69 640,-55 676.1,-42.62 717.82,-29.51 746.27,-20.75"/>
<polygon fill="#63b8ff" stroke="#63b8ff" points="747.58,-24.01 756.11,-17.73 745.52,-17.32 747.58,-24.01"/>
</a>
</g>
</g>
<!-- Node17&#45;&gt;Node4 -->
<g id="edge20_Node000017_Node000004" class="edge">
<title>Node17&#45;&gt;Node4</title>
<g id="a_edge20_Node000017_Node000004"><a xlink:title=" ">
<path fill="none" stroke="#63b8ff" d="M580.51,-60.35C575.17,-58.41 569.42,-56.49 564,-55 490.23,-34.79 401.27,-21.08 354.45,-14.67"/>
<polygon fill="#63b8ff" stroke="#63b8ff" points="354.69,-11.17 344.31,-13.3 353.75,-18.1 354.69,-11.17"/>
</a>
</g>
</g>
<!-- Node17&#45;&gt;Node14 -->
<g id="edge25_Node000017_Node000014" class="edge">
<title>Node17&#45;&gt;Node14</title>
<g id="a_edge25_Node000017_Node000014"><a xlink:title=" ">
<path fill="none" stroke="#63b8ff" d="M581.21,-60.49C557.06,-50.62 517.02,-34.23 489.38,-22.93"/>
<polygon fill="#63b8ff" stroke="#63b8ff" points="490.4,-19.56 479.82,-19.02 487.75,-26.04 490.4,-19.56"/>
</a>
</g>
</g>
<!-- Node18 -->
<g id="Node000018" class="node">
<title>Node18</title>
<g id="a_Node000018"><a xlink:title=" ">
<polygon fill="#e0e0e0" stroke="#999999" points="665,-19 611,-19 611,0 665,0 665,-19"/>
<text text-anchor="middle" x="638" y="-7" font-family="Helvetica,sans-Serif" font-size="10.00">random</text>
</a>
</g>
</g>
<!-- Node17&#45;&gt;Node18 -->
<g id="edge22_Node000017_Node000018" class="edge">
<title>Node17&#45;&gt;Node18</title>
<g id="a_edge22_Node000017_Node000018"><a xlink:title=" ">
<path fill="none" stroke="#63b8ff" d="M607.31,-60.37C612.58,-51.81 620.79,-38.47 627.39,-27.74"/>
<polygon fill="#63b8ff" stroke="#63b8ff" points="630.41,-29.52 632.67,-19.17 624.44,-25.85 630.41,-29.52"/>
</a>
</g>
</g>
<!-- Node19 -->
<g id="Node000019" class="node">
<title>Node19</title>
<g id="a_Node000019"><a xlink:title=" ">
<polygon fill="#e0e0e0" stroke="#999999" points="593,-19 537,-19 537,0 593,0 593,-19"/>
<text text-anchor="middle" x="565" y="-7" font-family="Helvetica,sans-Serif" font-size="10.00">sstream</text>
</a>
</g>
</g>
<!-- Node17&#45;&gt;Node19 -->
<g id="edge23_Node000017_Node000019" class="edge">
<title>Node17&#45;&gt;Node19</title>
<g id="a_edge23_Node000017_Node000019"><a xlink:title=" ">
<path fill="none" stroke="#63b8ff" d="M596.54,-60.37C591.13,-51.81 582.69,-38.47 575.9,-27.74"/>
<polygon fill="#63b8ff" stroke="#63b8ff" points="578.79,-25.75 570.48,-19.17 572.87,-29.49 578.79,-25.75"/>
</a>
</g>
</g>
<!-- Node20 -->
<g id="Node000020" class="node">
<title>Node20</title>
<g id="a_Node000020"><a xlink:title=" ">
<polygon fill="#e0e0e0" stroke="#999999" points="738.5,-19 683.5,-19 683.5,0 738.5,0 738.5,-19"/>
<text text-anchor="middle" x="711" y="-7" font-family="Helvetica,sans-Serif" font-size="10.00">fstream</text>
</a>
</g>
</g>
<!-- Node17&#45;&gt;Node20 -->
<g id="edge24_Node000017_Node000020" class="edge">
<title>Node17&#45;&gt;Node20</title>
<g id="a_edge24_Node000017_Node000020"><a xlink:title=" ">
<path fill="none" stroke="#63b8ff" d="M618.08,-60.37C635.95,-50.78 665.04,-35.17 685.91,-23.97"/>
<polygon fill="#63b8ff" stroke="#63b8ff" points="687.69,-26.98 694.85,-19.17 684.38,-20.81 687.69,-26.98"/>
</a>
</g>
</g>
<!-- Node21&#45;&gt;Node4 -->
<g id="edge28_Node000021_Node000004" class="edge">
<title>Node21&#45;&gt;Node4</title>
<g id="a_edge28_Node000021_Node000004"><a xlink:title=" ">
<path fill="none" stroke="#63b8ff" d="M432.83,-175.97C463.66,-159.17 510.83,-127.84 531,-85 536.68,-72.94 539.39,-65.36 531,-55 509.16,-28.02 407.6,-16.71 354.52,-12.57"/>
<polygon fill="#63b8ff" stroke="#63b8ff" points="354.51,-9.06 344.28,-11.82 353.99,-16.04 354.51,-9.06"/>
</a>
</g>
</g>
<!-- Node21&#45;&gt;Node12 -->
<g id="edge30_Node000021_Node000012" class="edge">
<title>Node21&#45;&gt;Node12</title>
<g id="a_edge30_Node000021_Node000012"><a xlink:title=" ">
<path fill="none" stroke="#63b8ff" d="M393.35,-175.84C387.16,-167.61 379.31,-157.18 372.79,-148.51"/>
<polygon fill="#63b8ff" stroke="#63b8ff" points="375.4,-146.15 366.59,-140.27 369.81,-150.36 375.4,-146.15"/>
</a>
</g>
</g>
<!-- Node22 -->
<g id="Node000022" class="node">
<title>Node22</title>
<g id="a_Node000022"><a xlink:title=" ">
<polygon fill="#e0e0e0" stroke="#999999" points="558,-140 520,-140 520,-121 558,-121 558,-140"/>
<text text-anchor="middle" x="539" y="-128" font-family="Helvetica,sans-Serif" font-size="10.00">map</text>
</a>
</g>
</g>
<!-- Node21&#45;&gt;Node22 -->
<g id="edge27_Node000021_Node000022" class="edge">
<title>Node21&#45;&gt;Node22</title>
<g id="a_edge27_Node000021_Node000022"><a xlink:title=" ">
<path fill="none" stroke="#63b8ff" d="M436.34,-175.99C458.93,-166.2 488.82,-153.25 510.51,-143.84"/>
<polygon fill="#63b8ff" stroke="#63b8ff" points="512.07,-146.99 519.85,-139.8 509.28,-140.56 512.07,-146.99"/>
</a>
</g>
</g>
<!-- Node23 -->
<g id="Node000023" class="node">
<title>Node23</title>
<g id="a_Node000023"><a xlink:title=" ">
<polygon fill="#e0e0e0" stroke="#999999" points="626,-140 576,-140 576,-121 626,-121 626,-140"/>
<text text-anchor="middle" x="601" y="-128" font-family="Helvetica,sans-Serif" font-size="10.00">format</text>
</a>
</g>
</g>
<!-- Node21&#45;&gt;Node23 -->
<g id="edge29_Node000021_Node000023" class="edge">
<title>Node21&#45;&gt;Node23</title>
<g id="a_edge29_Node000021_Node000023"><a xlink:title=" ">
<path fill="none" stroke="#63b8ff" d="M451.19,-175.99C486.52,-165.5 534.08,-151.37 566.05,-141.88"/>
<polygon fill="#63b8ff" stroke="#63b8ff" points="567.25,-145.17 575.84,-138.97 565.26,-138.46 567.25,-145.17"/>
</a>
</g>
</g>
<!-- Node24&#45;&gt;Node3 -->
<g id="edge32_Node000024_Node000003" class="edge">
<title>Node24&#45;&gt;Node3</title>
<g id="a_edge32_Node000024_Node000003"><a xlink:title=" ">
<path fill="none" stroke="#63b8ff" d="M996.46,-241.88C1009.47,-234.38 1026.28,-222.18 1034,-206 1061.53,-148.3 1002.09,-80.39 969,-55 923.34,-19.96 854.51,-11.87 813.73,-10.36"/>
<polygon fill="#63b8ff" stroke="#63b8ff" points="813.59,-6.86 803.51,-10.1 813.42,-13.85 813.59,-6.86"/>
</a>
</g>
</g>
<!-- Node24&#45;&gt;Node8 -->
<g id="edge36_Node000024_Node000008" class="edge">
<title>Node24&#45;&gt;Node8</title>
<g id="a_edge36_Node000024_Node000008"><a xlink:title=" ">
<path fill="none" stroke="#63b8ff" d="M955.73,-241.99C928.36,-231.99 882.73,-215.3 851.78,-203.99"/>
<polygon fill="#63b8ff" stroke="#63b8ff" points="852.89,-200.66 842.29,-200.52 850.48,-207.24 852.89,-200.66"/>
</a>
</g>
</g>
<!-- Node24&#45;&gt;Node9 -->
<g id="edge37_Node000024_Node000009" class="edge">
<title>Node24&#45;&gt;Node9</title>
<g id="a_edge37_Node000024_Node000009"><a xlink:title=" ">
<path fill="none" stroke="#63b8ff" d="M939.67,-243.53C898.83,-235.89 833.31,-222.49 778,-206 775.86,-205.36 773.67,-204.66 771.47,-203.92"/>
<polygon fill="#63b8ff" stroke="#63b8ff" points="772.55,-200.59 761.95,-200.53 770.2,-207.18 772.55,-200.59"/>
</a>
</g>
</g>
<!-- Node24&#45;&gt;Node18 -->
<g id="edge39_Node000024_Node000018" class="edge">
<title>Node24&#45;&gt;Node18</title>
<g id="a_edge39_Node000024_Node000018"><a xlink:title=" ">
<path fill="none" stroke="#63b8ff" d="M969.48,-241.79C945.61,-220.13 880.86,-162.6 822,-121 767.39,-82.4 698.92,-43.62 662.86,-23.88"/>
<polygon fill="#63b8ff" stroke="#63b8ff" points="664.46,-20.76 654,-19.05 661.11,-26.91 664.46,-20.76"/>
</a>
</g>
</g>
<!-- Node24&#45;&gt;Node20 -->
<g id="edge41_Node000024_Node000020" class="edge">
<title>Node24&#45;&gt;Node20</title>
<g id="a_edge41_Node000024_Node000020"><a xlink:title=" ">
<path fill="none" stroke="#63b8ff" d="M978.07,-241.56C974.27,-206.84 958.82,-81.53 931,-55 872.99,0.31 831.7,-33.74 748.92,-19.16"/>
<polygon fill="#63b8ff" stroke="#63b8ff" points="749.37,-15.69 738.88,-17.2 748.02,-22.56 749.37,-15.69"/>
</a>
</g>
</g>
<!-- Node24&#45;&gt;Node24 -->
<g id="edge35_Node000024_Node000024" class="edge">
<title>Node24&#45;&gt;Node24</title>
<g id="a_edge35_Node000024_Node000024"><a xlink:title=" ">
<path fill="none" stroke="#63b8ff" d="M1000.05,-261.03C1017.63,-265.11 1036,-261.93 1036,-251.5 1036,-243.11 1024.1,-239.41 1010.3,-240.41"/>
<polygon fill="#63b8ff" stroke="#63b8ff" points="1009.41,-237 1000.05,-241.97 1010.46,-243.92 1009.41,-237"/>
</a>
</g>
</g>
<!-- Node25 -->
<g id="Node000025" class="node">
<title>Node25</title>
<g id="a_Node000025"><a xlink:title=" ">
<polygon fill="#e0e0e0" stroke="#999999" points="1025,-200.5 983,-200.5 983,-181.5 1025,-181.5 1025,-200.5"/>
<text text-anchor="middle" x="1004" y="-188.5" font-family="Helvetica,sans-Serif" font-size="10.00">array</text>
</a>
</g>
</g>
<!-- Node24&#45;&gt;Node25 -->
<g id="edge33_Node000024_Node000025" class="edge">
<title>Node24&#45;&gt;Node25</title>
<g id="a_edge33_Node000024_Node000025"><a xlink:title=" ">
<path fill="none" stroke="#63b8ff" d="M982.69,-241.87C986.27,-233.49 991.82,-220.51 996.35,-209.89"/>
<polygon fill="#63b8ff" stroke="#63b8ff" points="999.58,-211.24 1000.3,-200.67 993.15,-208.49 999.58,-211.24"/>
</a>
</g>
</g>
<!-- Node26 -->
<g id="Node000026" class="node">
<title>Node26</title>
<g id="a_Node000026"><a xlink:title=" ">
<polygon fill="#e0e0e0" stroke="#999999" points="1128.5,-200.5 1081.5,-200.5 1081.5,-181.5 1128.5,-181.5 1128.5,-200.5"/>
<text text-anchor="middle" x="1105" y="-188.5" font-family="Helvetica,sans-Serif" font-size="10.00">cmath</text>
</a>
</g>
</g>
<!-- Node24&#45;&gt;Node26 -->
<g id="edge34_Node000024_Node000026" class="edge">
<title>Node24&#45;&gt;Node26</title>
<g id="a_edge34_Node000024_Node000026"><a xlink:title=" ">
<path fill="none" stroke="#63b8ff" d="M997.32,-241.99C1018.41,-232.2 1053.26,-216.02 1077.58,-204.73"/>
<polygon fill="#63b8ff" stroke="#63b8ff" points="1079.06,-207.9 1086.66,-200.52 1076.11,-201.55 1079.06,-207.9"/>
</a>
</g>
</g>
<!-- Node27 -->
<g id="Node000027" class="node">
<title>Node27</title>
<g id="a_Node000027"><a xlink:title=" ">
<polygon fill="#e0e0e0" stroke="#999999" points="1211.5,-200.5 1146.5,-200.5 1146.5,-181.5 1211.5,-181.5 1211.5,-200.5"/>
<text text-anchor="middle" x="1179" y="-188.5" font-family="Helvetica,sans-Serif" font-size="10.00">functional</text>
</a>
</g>
</g>
<!-- Node24&#45;&gt;Node27 -->
<g id="edge38_Node000024_Node000027" class="edge">
<title>Node24&#45;&gt;Node27</title>
<g id="a_edge38_Node000024_Node000027"><a xlink:title=" ">
<path fill="none" stroke="#63b8ff" d="M1010.91,-241.99C1042.91,-233.34 1093.55,-219.35 1137,-206 1139.29,-205.3 1141.65,-204.55 1144.03,-203.8"/>
<polygon fill="#63b8ff" stroke="#63b8ff" points="1145.32,-207.06 1153.74,-200.63 1143.15,-200.4 1145.32,-207.06"/>
</a>
</g>
</g>
<!-- Node28 -->
<g id="Node000028" class="node">
<title>Node28</title>
<g id="a_Node000028"><a xlink:title=" ">
<polygon fill="#e0e0e0" stroke="#999999" points="1288.5,-200.5 1229.5,-200.5 1229.5,-181.5 1288.5,-181.5 1288.5,-200.5"/>
<text text-anchor="middle" x="1259" y="-188.5" font-family="Helvetica,sans-Serif" font-size="10.00">numbers</text>
</a>
</g>
</g>
<!-- Node24&#45;&gt;Node28 -->
<g id="edge40_Node000024_Node000028" class="edge">
<title>Node24&#45;&gt;Node28</title>
<g id="a_edge40_Node000024_Node000028"><a xlink:title=" ">
<path fill="none" stroke="#63b8ff" d="M1018.25,-245.25C1066.32,-238.37 1149.96,-224.9 1220,-206 1222.43,-205.34 1224.93,-204.61 1227.42,-203.82"/>
<polygon fill="#63b8ff" stroke="#63b8ff" points="1228.56,-207.13 1236.92,-200.63 1226.33,-200.49 1228.56,-207.13"/>
</a>
</g>
</g>
</g>
</svg>
