<?xml version="1.0" encoding="UTF-8" standalone="no"?>
<!DOCTYPE svg PUBLIC "-//W3C//DTD SVG 1.1//EN"
 "http://www.w3.org/Graphics/SVG/1.1/DTD/svg11.dtd">
<!-- Generated by graphviz version 2.43.0 (0)
 -->
<!-- Title: src/element_parameters/gauss_stimulus_parameters.cpp Pages: 1 -->
<svg width="839pt" height="335pt"
 viewBox="0.00 0.00 838.50 335.00" xmlns="http://www.w3.org/2000/svg" xmlns:xlink="http://www.w3.org/1999/xlink">
<g id="graph0" class="graph" transform="scale(1 1) rotate(0) translate(4 331)">
<title>src/element_parameters/gauss_stimulus_parameters.cpp</title>
<!-- Node1 -->
<g id="Node000001" class="node">
<title>Node1</title>
<g id="a_Node000001"><a xlink:title=" ">
<polygon fill="#999999" stroke="#666666" points="521,-327 344,-327 344,-297 521,-297 521,-327"/>
<text text-anchor="start" x="352" y="-315" font-family="Helvetica,sans-Serif" font-size="10.00">src/element_parameters</text>
<text text-anchor="middle" x="432.5" y="-304" font-family="Helvetica,sans-Serif" font-size="10.00">/gauss_stimulus_parameters.cpp</text>
</a>
</g>
</g>
<!-- Node2 -->
<g id="Node000002" class="node">
<title>Node2</title>
<g id="a_Node000002"><a xlink:href="gauss__stimulus__parameters_8h.html" target="_top" xlink:title=" ">
<polygon fill="white" stroke="#666666" points="460.5,-261 294.5,-261 294.5,-231 460.5,-231 460.5,-261"/>
<text text-anchor="start" x="302.5" y="-249" font-family="Helvetica,sans-Serif" font-size="10.00">element_parameters</text>
<text text-anchor="middle" x="377.5" y="-238" font-family="Helvetica,sans-Serif" font-size="10.00">/gauss_stimulus_parameters.h</text>
</a>
</g>
</g>
<!-- Node1&#45;&gt;Node2 -->
<g id="edge1_Node000001_Node000002" class="edge">
<title>Node1&#45;&gt;Node2</title>
<g id="a_edge1_Node000001_Node000002"><a xlink:title=" ">
<path fill="none" stroke="#63b8ff" d="M420.29,-296.8C413.24,-288.59 404.23,-278.1 396.29,-268.87"/>
<polygon fill="#63b8ff" stroke="#63b8ff" points="398.84,-266.47 389.67,-261.16 393.54,-271.03 398.84,-266.47"/>
</a>
</g>
</g>
<!-- Node6 -->
<g id="Node000006" class="node">
<title>Node6</title>
<g id="a_Node000006"><a xlink:title=" ">
<polygon fill="#e0e0e0" stroke="#999999" points="513.5,-140 463.5,-140 463.5,-121 513.5,-121 513.5,-140"/>
<text text-anchor="middle" x="488.5" y="-128" font-family="Helvetica,sans-Serif" font-size="10.00">format</text>
</a>
</g>
</g>
<!-- Node1&#45;&gt;Node6 -->
<g id="edge24_Node000001_Node000006" class="edge">
<title>Node1&#45;&gt;Node6</title>
<g id="a_edge24_Node000001_Node000006"><a xlink:title=" ">
<path fill="none" stroke="#63b8ff" d="M445.94,-296.87C454.1,-287.45 463.98,-274.38 469.5,-261 484.83,-223.84 488.05,-176.2 488.57,-150.31"/>
<polygon fill="#63b8ff" stroke="#63b8ff" points="492.07,-150.08 488.66,-140.05 485.07,-150.03 492.07,-150.08"/>
</a>
</g>
</g>
<!-- Node3 -->
<g id="Node000003" class="node">
<title>Node3</title>
<g id="a_Node000003"><a xlink:href="element__parameters_8h.html" target="_top" xlink:title=" ">
<polygon fill="white" stroke="#666666" points="441.5,-195 313.5,-195 313.5,-176 441.5,-176 441.5,-195"/>
<text text-anchor="middle" x="377.5" y="-183" font-family="Helvetica,sans-Serif" font-size="10.00">element_parameters.h</text>
</a>
</g>
</g>
<!-- Node2&#45;&gt;Node3 -->
<g id="edge2_Node000002_Node000003" class="edge">
<title>Node2&#45;&gt;Node3</title>
<g id="a_edge2_Node000002_Node000003"><a xlink:title=" ">
<path fill="none" stroke="#63b8ff" d="M377.5,-230.84C377.5,-223.21 377.5,-213.7 377.5,-205.45"/>
<polygon fill="#63b8ff" stroke="#63b8ff" points="381,-205.27 377.5,-195.27 374,-205.27 381,-205.27"/>
</a>
</g>
</g>
<!-- Node4 -->
<g id="Node000004" class="node">
<title>Node4</title>
<g id="a_Node000004"><a xlink:title=" ">
<polygon fill="#e0e0e0" stroke="#999999" points="445.5,-140 407.5,-140 407.5,-121 445.5,-121 445.5,-140"/>
<text text-anchor="middle" x="426.5" y="-128" font-family="Helvetica,sans-Serif" font-size="10.00">map</text>
</a>
</g>
</g>
<!-- Node3&#45;&gt;Node4 -->
<g id="edge3_Node000003_Node000004" class="edge">
<title>Node3&#45;&gt;Node4</title>
<g id="a_edge3_Node000003_Node000004"><a xlink:title=" ">
<path fill="none" stroke="#63b8ff" d="M385.59,-175.75C392.66,-168.11 403.09,-156.82 411.65,-147.56"/>
<polygon fill="#63b8ff" stroke="#63b8ff" points="414.34,-149.81 418.56,-140.09 409.2,-145.06 414.34,-149.81"/>
</a>
</g>
</g>
<!-- Node5 -->
<g id="Node000005" class="node">
<title>Node5</title>
<g id="a_Node000005"><a xlink:title=" ">
<polygon fill="#e0e0e0" stroke="#999999" points="293.5,-19 249.5,-19 249.5,0 293.5,0 293.5,-19"/>
<text text-anchor="middle" x="271.5" y="-7" font-family="Helvetica,sans-Serif" font-size="10.00">string</text>
</a>
</g>
</g>
<!-- Node3&#45;&gt;Node5 -->
<g id="edge4_Node000003_Node000005" class="edge">
<title>Node3&#45;&gt;Node5</title>
<g id="a_edge4_Node000003_Node000005"><a xlink:title=" ">
<path fill="none" stroke="#63b8ff" d="M333.51,-175.99C286.79,-164.35 215.25,-138.48 182.5,-85 175.54,-73.63 175.49,-66.34 182.5,-55 194.93,-34.89 219.51,-23.56 239.7,-17.37"/>
<polygon fill="#63b8ff" stroke="#63b8ff" points="240.77,-20.71 249.47,-14.66 238.9,-13.96 240.77,-20.71"/>
</a>
</g>
</g>
<!-- Node3&#45;&gt;Node6 -->
<g id="edge5_Node000003_Node000006" class="edge">
<title>Node3&#45;&gt;Node6</title>
<g id="a_edge5_Node000003_Node000006"><a xlink:title=" ">
<path fill="none" stroke="#63b8ff" d="M395.33,-175.98C413.11,-167.5 440.65,-154.35 461.18,-144.54"/>
<polygon fill="#63b8ff" stroke="#63b8ff" points="462.83,-147.64 470.34,-140.17 459.81,-141.32 462.83,-147.64"/>
</a>
</g>
</g>
<!-- Node7 -->
<g id="Node000007" class="node">
<title>Node7</title>
<g id="a_Node000007"><a xlink:href="logger_8h.html" target="_top" xlink:title=" ">
<polygon fill="white" stroke="#666666" points="389,-140 306,-140 306,-121 389,-121 389,-140"/>
<text text-anchor="middle" x="347.5" y="-128" font-family="Helvetica,sans-Serif" font-size="10.00">tools/logger.h</text>
</a>
</g>
</g>
<!-- Node3&#45;&gt;Node7 -->
<g id="edge6_Node000003_Node000007" class="edge">
<title>Node3&#45;&gt;Node7</title>
<g id="a_edge6_Node000003_Node000007"><a xlink:title=" ">
<path fill="none" stroke="#63b8ff" d="M372.55,-175.75C368.44,-168.49 362.47,-157.95 357.4,-148.98"/>
<polygon fill="#63b8ff" stroke="#63b8ff" points="360.33,-147.07 352.36,-140.09 354.24,-150.52 360.33,-147.07"/>
</a>
</g>
</g>
<!-- Node7&#45;&gt;Node5 -->
<g id="edge8_Node000007_Node000005" class="edge">
<title>Node7&#45;&gt;Node5</title>
<g id="a_edge8_Node000007_Node000005"><a xlink:title=" ">
<path fill="none" stroke="#63b8ff" d="M380.09,-120.94C409.73,-112.42 450.22,-98.68 459.5,-85 466.99,-73.97 467.77,-65.46 459.5,-55 440.41,-30.86 352.06,-18.46 303.57,-13.38"/>
<polygon fill="#63b8ff" stroke="#63b8ff" points="303.89,-9.89 293.59,-12.37 303.19,-16.85 303.89,-9.89"/>
</a>
</g>
</g>
<!-- Node8 -->
<g id="Node000008" class="node">
<title>Node8</title>
<g id="a_Node000008"><a xlink:title=" ">
<polygon fill="#e0e0e0" stroke="#999999" points="251.5,-79.5 191.5,-79.5 191.5,-60.5 251.5,-60.5 251.5,-79.5"/>
<text text-anchor="middle" x="221.5" y="-67.5" font-family="Helvetica,sans-Serif" font-size="10.00">iostream</text>
</a>
</g>
</g>
<!-- Node7&#45;&gt;Node8 -->
<g id="edge7_Node000007_Node000008" class="edge">
<title>Node7&#45;&gt;Node8</title>
<g id="a_edge7_Node000007_Node000008"><a xlink:title=" ">
<path fill="none" stroke="#63b8ff" d="M329.18,-120.99C308.09,-111.2 273.24,-95.02 248.92,-83.73"/>
<polygon fill="#63b8ff" stroke="#63b8ff" points="250.39,-80.55 239.84,-79.52 247.44,-86.9 250.39,-80.55"/>
</a>
</g>
</g>
<!-- Node9 -->
<g id="Node000009" class="node">
<title>Node9</title>
<g id="a_Node000009"><a xlink:title=" ">
<polygon fill="#e0e0e0" stroke="#999999" points="458.5,-19 408.5,-19 408.5,0 458.5,0 458.5,-19"/>
<text text-anchor="middle" x="433.5" y="-7" font-family="Helvetica,sans-Serif" font-size="10.00">chrono</text>
</a>
</g>
</g>
<!-- Node7&#45;&gt;Node9 -->
<g id="edge9_Node000007_Node000009" class="edge">
<title>Node7&#45;&gt;Node9</title>
<g id="a_edge9_Node000007_Node000009"><a xlink:title=" ">
<path fill="none" stroke="#63b8ff" d="M387.9,-120.93C421.67,-112.86 465.95,-99.81 476.5,-85 490.36,-65.56 470.15,-41.35 453.01,-25.91"/>
<polygon fill="#63b8ff" stroke="#63b8ff" points="454.89,-22.91 445,-19.09 450.35,-28.24 454.89,-22.91"/>
</a>
</g>
</g>
<!-- Node10 -->
<g id="Node000010" class="node">
<title>Node10</title>
<g id="a_Node000010"><a xlink:title=" ">
<polygon fill="#e0e0e0" stroke="#999999" points="325.5,-79.5 269.5,-79.5 269.5,-60.5 325.5,-60.5 325.5,-79.5"/>
<text text-anchor="middle" x="297.5" y="-67.5" font-family="Helvetica,sans-Serif" font-size="10.00">iomanip</text>
</a>
</g>
</g>
<!-- Node7&#45;&gt;Node10 -->
<g id="edge10_Node000007_Node000010" class="edge">
<title>Node7&#45;&gt;Node10</title>
<g id="a_edge10_Node000007_Node000010"><a xlink:title=" ">
<path fill="none" stroke="#63b8ff" d="M340.12,-120.87C332.59,-112.05 320.71,-98.16 311.41,-87.27"/>
<polygon fill="#63b8ff" stroke="#63b8ff" points="314.07,-85 304.91,-79.67 308.74,-89.54 314.07,-85"/>
</a>
</g>
</g>
<!-- Node11 -->
<g id="Node000011" class="node">
<title>Node11</title>
<g id="a_Node000011"><a xlink:title=" ">
<polygon fill="#e0e0e0" stroke="#999999" points="451,-85 344,-85 344,-55 451,-55 451,-85"/>
<text text-anchor="start" x="352" y="-73" font-family="Helvetica,sans-Serif" font-size="10.00">imgui&#45;platform&#45;kit</text>
<text text-anchor="middle" x="397.5" y="-62" font-family="Helvetica,sans-Serif" font-size="10.00">/log_window.h</text>
</a>
</g>
</g>
<!-- Node7&#45;&gt;Node11 -->
<g id="edge11_Node000007_Node000011" class="edge">
<title>Node7&#45;&gt;Node11</title>
<g id="a_edge11_Node000007_Node000011"><a xlink:title=" ">
<path fill="none" stroke="#63b8ff" d="M354.88,-120.87C361.16,-113.52 370.46,-102.63 378.77,-92.91"/>
<polygon fill="#63b8ff" stroke="#63b8ff" points="381.6,-94.99 385.44,-85.11 376.28,-90.44 381.6,-94.99"/>
</a>
</g>
</g>
<!-- Node12 -->
<g id="Node000012" class="node">
<title>Node12</title>
<g id="a_Node000012"><a xlink:href="exception_8h.html" target="_top" xlink:title=" ">
<polygon fill="white" stroke="#666666" points="135.5,-79.5 5.5,-79.5 5.5,-60.5 135.5,-60.5 135.5,-79.5"/>
<text text-anchor="middle" x="70.5" y="-67.5" font-family="Helvetica,sans-Serif" font-size="10.00">exceptions/exception.h</text>
</a>
</g>
</g>
<!-- Node7&#45;&gt;Node12 -->
<g id="edge12_Node000007_Node000012" class="edge">
<title>Node7&#45;&gt;Node12</title>
<g id="a_edge12_Node000007_Node000012"><a xlink:title=" ">
<path fill="none" stroke="#63b8ff" d="M307.22,-120.99C257.88,-110.57 174.29,-92.92 120.78,-81.62"/>
<polygon fill="#63b8ff" stroke="#63b8ff" points="121.33,-78.16 110.83,-79.52 119.89,-85.01 121.33,-78.16"/>
</a>
</g>
</g>
<!-- Node15 -->
<g id="Node000015" class="node">
<title>Node15</title>
<g id="a_Node000015"><a xlink:href="utils_8h.html" target="_top" xlink:title=" ">
<polygon fill="white" stroke="#666666" points="593,-79.5 546,-79.5 546,-60.5 593,-60.5 593,-79.5"/>
<text text-anchor="middle" x="569.5" y="-67.5" font-family="Helvetica,sans-Serif" font-size="10.00">utils.h</text>
</a>
</g>
</g>
<!-- Node7&#45;&gt;Node15 -->
<g id="edge16_Node000007_Node000015" class="edge">
<title>Node7&#45;&gt;Node15</title>
<g id="a_edge16_Node000007_Node000015"><a xlink:title=" ">
<path fill="none" stroke="#63b8ff" d="M388.79,-120.95C426.33,-112.84 483.08,-99.72 531.5,-85 533.63,-84.35 535.82,-83.65 538.01,-82.92"/>
<polygon fill="#63b8ff" stroke="#63b8ff" points="539.26,-86.19 547.54,-79.58 536.95,-79.58 539.26,-86.19"/>
</a>
</g>
</g>
<!-- Node12&#45;&gt;Node5 -->
<g id="edge15_Node000012_Node000005" class="edge">
<title>Node12&#45;&gt;Node5</title>
<g id="a_edge15_Node000012_Node000005"><a xlink:title=" ">
<path fill="none" stroke="#63b8ff" d="M99.73,-60.49C137.01,-49.64 201.25,-30.95 239.72,-19.75"/>
<polygon fill="#63b8ff" stroke="#63b8ff" points="240.75,-23.1 249.37,-16.94 238.79,-16.37 240.75,-23.1"/>
</a>
</g>
</g>
<!-- Node13 -->
<g id="Node000013" class="node">
<title>Node13</title>
<g id="a_Node000013"><a xlink:title=" ">
<polygon fill="#e0e0e0" stroke="#999999" points="133.5,-19 83.5,-19 83.5,0 133.5,0 133.5,-19"/>
<text text-anchor="middle" x="108.5" y="-7" font-family="Helvetica,sans-Serif" font-size="10.00">cstdint</text>
</a>
</g>
</g>
<!-- Node12&#45;&gt;Node13 -->
<g id="edge13_Node000012_Node000013" class="edge">
<title>Node12&#45;&gt;Node13</title>
<g id="a_edge13_Node000012_Node000013"><a xlink:title=" ">
<path fill="none" stroke="#63b8ff" d="M76.11,-60.37C81.66,-51.81 90.33,-38.47 97.3,-27.74"/>
<polygon fill="#63b8ff" stroke="#63b8ff" points="100.36,-29.46 102.87,-19.17 94.49,-25.65 100.36,-29.46"/>
</a>
</g>
</g>
<!-- Node14 -->
<g id="Node000014" class="node">
<title>Node14</title>
<g id="a_Node000014"><a xlink:title=" ">
<polygon fill="#e0e0e0" stroke="#999999" points="65,-19 0,-19 0,0 65,0 65,-19"/>
<text text-anchor="middle" x="32.5" y="-7" font-family="Helvetica,sans-Serif" font-size="10.00">exception</text>
</a>
</g>
</g>
<!-- Node12&#45;&gt;Node14 -->
<g id="edge14_Node000012_Node000014" class="edge">
<title>Node12&#45;&gt;Node14</title>
<g id="a_edge14_Node000012_Node000014"><a xlink:title=" ">
<path fill="none" stroke="#63b8ff" d="M64.89,-60.37C59.34,-51.81 50.67,-38.47 43.7,-27.74"/>
<polygon fill="#63b8ff" stroke="#63b8ff" points="46.51,-25.65 38.13,-19.17 40.64,-29.46 46.51,-25.65"/>
</a>
</g>
</g>
<!-- Node15&#45;&gt;Node5 -->
<g id="edge17_Node000015_Node000005" class="edge">
<title>Node15&#45;&gt;Node5</title>
<g id="a_edge17_Node000015_Node000005"><a xlink:title=" ">
<path fill="none" stroke="#63b8ff" d="M545.87,-64.36C492.75,-53.93 363.88,-28.64 303.59,-16.8"/>
<polygon fill="#63b8ff" stroke="#63b8ff" points="303.99,-13.31 293.51,-14.82 302.65,-20.18 303.99,-13.31"/>
</a>
</g>
</g>
<!-- Node15&#45;&gt;Node9 -->
<g id="edge22_Node000015_Node000009" class="edge">
<title>Node15&#45;&gt;Node9</title>
<g id="a_edge22_Node000015_Node000009"><a xlink:title=" ">
<path fill="none" stroke="#63b8ff" d="M549.72,-60.49C526.86,-50.66 489.01,-34.38 462.74,-23.08"/>
<polygon fill="#63b8ff" stroke="#63b8ff" points="463.87,-19.75 453.3,-19.02 461.1,-26.18 463.87,-19.75"/>
</a>
</g>
</g>
<!-- Node16 -->
<g id="Node000016" class="node">
<title>Node16</title>
<g id="a_Node000016"><a xlink:title=" ">
<polygon fill="#e0e0e0" stroke="#999999" points="524,-19 477,-19 477,0 524,0 524,-19"/>
<text text-anchor="middle" x="500.5" y="-7" font-family="Helvetica,sans-Serif" font-size="10.00">vector</text>
</a>
</g>
</g>
<!-- Node15&#45;&gt;Node16 -->
<g id="edge18_Node000015_Node000016" class="edge">
<title>Node15&#45;&gt;Node16</title>
<g id="a_edge18_Node000015_Node000016"><a xlink:title=" ">
<path fill="none" stroke="#63b8ff" d="M559.32,-60.37C548.62,-51.3 531.56,-36.84 518.57,-25.82"/>
<polygon fill="#63b8ff" stroke="#63b8ff" points="520.61,-22.96 510.72,-19.17 516.09,-28.3 520.61,-22.96"/>
</a>
</g>
</g>
<!-- Node17 -->
<g id="Node000017" class="node">
<title>Node17</title>
<g id="a_Node000017"><a xlink:title=" ">
<polygon fill="#e0e0e0" stroke="#999999" points="596.5,-19 542.5,-19 542.5,0 596.5,0 596.5,-19"/>
<text text-anchor="middle" x="569.5" y="-7" font-family="Helvetica,sans-Serif" font-size="10.00">random</text>
</a>
</g>
</g>
<!-- Node15&#45;&gt;Node17 -->
<g id="edge19_Node000015_Node000017" class="edge">
<title>Node15&#45;&gt;Node17</title>
<g id="a_edge19_Node000015_Node000017"><a xlink:title=" ">
<path fill="none" stroke="#63b8ff" d="M569.5,-60.37C569.5,-52.25 569.5,-39.81 569.5,-29.39"/>
<polygon fill="#63b8ff" stroke="#63b8ff" points="573,-29.17 569.5,-19.17 566,-29.17 573,-29.17"/>
</a>
</g>
</g>
<!-- Node18 -->
<g id="Node000018" class="node">
<title>Node18</title>
<g id="a_Node000018"><a xlink:title=" ">
<polygon fill="#e0e0e0" stroke="#999999" points="670.5,-19 614.5,-19 614.5,0 670.5,0 670.5,-19"/>
<text text-anchor="middle" x="642.5" y="-7" font-family="Helvetica,sans-Serif" font-size="10.00">sstream</text>
</a>
</g>
</g>
<!-- Node15&#45;&gt;Node18 -->
<g id="edge20_Node000015_Node000018" class="edge">
<title>Node15&#45;&gt;Node18</title>
<g id="a_edge20_Node000015_Node000018"><a xlink:title=" ">
<path fill="none" stroke="#63b8ff" d="M580.27,-60.37C591.7,-51.21 609.98,-36.56 623.78,-25.51"/>
<polygon fill="#63b8ff" stroke="#63b8ff" points="626.07,-28.15 631.68,-19.17 621.69,-22.69 626.07,-28.15"/>
</a>
</g>
</g>
<!-- Node19 -->
<g id="Node000019" class="node">
<title>Node19</title>
<g id="a_Node000019"><a xlink:title=" ">
<polygon fill="#e0e0e0" stroke="#999999" points="744,-19 689,-19 689,0 744,0 744,-19"/>
<text text-anchor="middle" x="716.5" y="-7" font-family="Helvetica,sans-Serif" font-size="10.00">fstream</text>
</a>
</g>
</g>
<!-- Node15&#45;&gt;Node19 -->
<g id="edge21_Node000015_Node000019" class="edge">
<title>Node15&#45;&gt;Node19</title>
<g id="a_edge21_Node000015_Node000019"><a xlink:title=" ">
<path fill="none" stroke="#63b8ff" d="M590.88,-60.49C615.81,-50.57 657.22,-34.09 685.64,-22.78"/>
<polygon fill="#63b8ff" stroke="#63b8ff" points="687.1,-25.97 695.1,-19.02 684.51,-19.46 687.1,-25.97"/>
</a>
</g>
</g>
<!-- Node20 -->
<g id="Node000020" class="node">
<title>Node20</title>
<g id="a_Node000020"><a xlink:title=" ">
<polygon fill="#e0e0e0" stroke="#999999" points="830.5,-19 762.5,-19 762.5,0 830.5,0 830.5,-19"/>
<text text-anchor="middle" x="796.5" y="-7" font-family="Helvetica,sans-Serif" font-size="10.00">filesystem</text>
</a>
</g>
</g>
<!-- Node15&#45;&gt;Node20 -->
<g id="edge23_Node000015_Node000020" class="edge">
<title>Node15&#45;&gt;Node20</title>
<g id="a_edge23_Node000015_Node000020"><a xlink:title=" ">
<path fill="none" stroke="#63b8ff" d="M593.36,-62.85C631.41,-53.05 706.35,-33.73 753.8,-21.5"/>
<polygon fill="#63b8ff" stroke="#63b8ff" points="754.67,-24.89 763.48,-19.01 752.93,-18.12 754.67,-24.89"/>
</a>
</g>
</g>
</g>
</svg>
