<?xml version="1.0" encoding="UTF-8" standalone="no"?>
<!DOCTYPE svg PUBLIC "-//W3C//DTD SVG 1.1//EN"
 "http://www.w3.org/Graphics/SVG/1.1/DTD/svg11.dtd">
<!-- Generated by graphviz version 2.43.0 (0)
 -->
<!-- Title: src/elements/gauss_kernel.cpp Pages: 1 -->
<svg width="1162pt" height="445pt"
 viewBox="0.00 0.00 1161.50 445.00" xmlns="http://www.w3.org/2000/svg" xmlns:xlink="http://www.w3.org/1999/xlink">
<g id="graph0" class="graph" transform="scale(1 1) rotate(0) translate(4 441)">
<title>src/elements/gauss_kernel.cpp</title>
<!-- Node1 -->
<g id="Node000001" class="node">
<title>Node1</title>
<g id="a_Node000001"><a xlink:title=" ">
<polygon fill="#999999" stroke="#666666" points="347.5,-437 236.5,-437 236.5,-407 347.5,-407 347.5,-437"/>
<text text-anchor="start" x="244.5" y="-425" font-family="Helvetica,sans-Serif" font-size="10.00">src/elements/gauss</text>
<text text-anchor="middle" x="292" y="-414" font-family="Helvetica,sans-Serif" font-size="10.00">_kernel.cpp</text>
</a>
</g>
</g>
<!-- Node2 -->
<g id="Node000002" class="node">
<title>Node2</title>
<g id="a_Node000002"><a xlink:href="gauss__kernel_8h.html" target="_top" xlink:title=" ">
<polygon fill="white" stroke="#666666" points="361,-371 223,-371 223,-352 361,-352 361,-371"/>
<text text-anchor="middle" x="292" y="-359" font-family="Helvetica,sans-Serif" font-size="10.00">elements/gauss_kernel.h</text>
</a>
</g>
</g>
<!-- Node1&#45;&gt;Node2 -->
<g id="edge1_Node000001_Node000002" class="edge">
<title>Node1&#45;&gt;Node2</title>
<g id="a_edge1_Node000001_Node000002"><a xlink:title=" ">
<path fill="none" stroke="#63b8ff" d="M292,-406.84C292,-399.21 292,-389.7 292,-381.45"/>
<polygon fill="#63b8ff" stroke="#63b8ff" points="295.5,-381.27 292,-371.27 288.5,-381.27 295.5,-381.27"/>
</a>
</g>
</g>
<!-- Node3 -->
<g id="Node000003" class="node">
<title>Node3</title>
<g id="a_Node000003"><a xlink:title=" ">
<polygon fill="#e0e0e0" stroke="#999999" points="96,-200.5 54,-200.5 54,-181.5 96,-181.5 96,-200.5"/>
<text text-anchor="middle" x="75" y="-188.5" font-family="Helvetica,sans-Serif" font-size="10.00">array</text>
</a>
</g>
</g>
<!-- Node2&#45;&gt;Node3 -->
<g id="edge2_Node000002_Node000003" class="edge">
<title>Node2&#45;&gt;Node3</title>
<g id="a_edge2_Node000002_Node000003"><a xlink:title=" ">
<path fill="none" stroke="#63b8ff" d="M278.83,-351.95C265.53,-343.21 244.52,-329.11 227,-316 177.08,-278.65 120.83,-231.31 92.83,-207.37"/>
<polygon fill="#63b8ff" stroke="#63b8ff" points="94.95,-204.58 85.08,-200.72 90.4,-209.89 94.95,-204.58"/>
</a>
</g>
</g>
<!-- Node4 -->
<g id="Node000004" class="node">
<title>Node4</title>
<g id="a_Node000004"><a xlink:title=" ">
<polygon fill="#e0e0e0" stroke="#999999" points="404,-316 348,-316 348,-297 404,-297 404,-316"/>
<text text-anchor="middle" x="376" y="-304" font-family="Helvetica,sans-Serif" font-size="10.00">optional</text>
</a>
</g>
</g>
<!-- Node2&#45;&gt;Node4 -->
<g id="edge3_Node000002_Node000004" class="edge">
<title>Node2&#45;&gt;Node4</title>
<g id="a_edge3_Node000002_Node000004"><a xlink:title=" ">
<path fill="none" stroke="#63b8ff" d="M305.5,-351.98C318.4,-343.84 338.1,-331.41 353.4,-321.76"/>
<polygon fill="#63b8ff" stroke="#63b8ff" points="355.67,-324.47 362.26,-316.17 351.93,-318.55 355.67,-324.47"/>
</a>
</g>
</g>
<!-- Node5 -->
<g id="Node000005" class="node">
<title>Node5</title>
<g id="a_Node000005"><a xlink:href="math_8h.html" target="_top" xlink:title=" ">
<polygon fill="white" stroke="#666666" points="909,-261 831,-261 831,-242 909,-242 909,-261"/>
<text text-anchor="middle" x="870" y="-249" font-family="Helvetica,sans-Serif" font-size="10.00">tools/math.h</text>
</a>
</g>
</g>
<!-- Node2&#45;&gt;Node5 -->
<g id="edge4_Node000002_Node000005" class="edge">
<title>Node2&#45;&gt;Node5</title>
<g id="a_edge4_Node000002_Node000005"><a xlink:title=" ">
<path fill="none" stroke="#63b8ff" d="M295.62,-351.64C302,-337.32 316.72,-309.42 339,-297 380.46,-273.88 696.83,-259.23 820.59,-254.33"/>
<polygon fill="#63b8ff" stroke="#63b8ff" points="821.05,-257.81 830.91,-253.92 820.78,-250.82 821.05,-257.81"/>
</a>
</g>
</g>
<!-- Node14 -->
<g id="Node000014" class="node">
<title>Node14</title>
<g id="a_Node000014"><a xlink:href="kernel_8h.html" target="_top" xlink:title=" ">
<polygon fill="white" stroke="#666666" points="292,-316 236,-316 236,-297 292,-297 292,-316"/>
<text text-anchor="middle" x="264" y="-304" font-family="Helvetica,sans-Serif" font-size="10.00">kernel.h</text>
</a>
</g>
</g>
<!-- Node2&#45;&gt;Node14 -->
<g id="edge15_Node000002_Node000014" class="edge">
<title>Node2&#45;&gt;Node14</title>
<g id="a_edge15_Node000002_Node000014"><a xlink:title=" ">
<path fill="none" stroke="#63b8ff" d="M287.38,-351.75C283.54,-344.49 277.98,-333.95 273.24,-324.98"/>
<polygon fill="#63b8ff" stroke="#63b8ff" points="276.3,-323.3 268.54,-316.09 270.11,-326.57 276.3,-323.3"/>
</a>
</g>
</g>
<!-- Node5&#45;&gt;Node3 -->
<g id="edge6_Node000005_Node000003" class="edge">
<title>Node5&#45;&gt;Node3</title>
<g id="a_edge6_Node000005_Node000003"><a xlink:title=" ">
<path fill="none" stroke="#63b8ff" d="M830.65,-248.13C729.77,-241.99 453.7,-224.7 224,-206 183.41,-202.7 136.66,-198.19 106.52,-195.19"/>
<polygon fill="#63b8ff" stroke="#63b8ff" points="106.5,-191.67 96.21,-194.16 105.81,-198.64 106.5,-191.67"/>
</a>
</g>
</g>
<!-- Node5&#45;&gt;Node5 -->
<g id="edge8_Node000005_Node000005" class="edge">
<title>Node5&#45;&gt;Node5</title>
<g id="a_edge8_Node000005_Node000005"><a xlink:title=" ">
<path fill="none" stroke="#63b8ff" d="M896.68,-261.03C912.34,-263.06 927,-259.88 927,-251.5 927,-244.95 918.05,-241.58 906.67,-241.38"/>
<polygon fill="#63b8ff" stroke="#63b8ff" points="906.46,-237.89 896.68,-241.97 906.87,-244.88 906.46,-237.89"/>
</a>
</g>
</g>
<!-- Node6 -->
<g id="Node000006" class="node">
<title>Node6</title>
<g id="a_Node000006"><a xlink:title=" ">
<polygon fill="#e0e0e0" stroke="#999999" points="776.5,-19 729.5,-19 729.5,0 776.5,0 776.5,-19"/>
<text text-anchor="middle" x="753" y="-7" font-family="Helvetica,sans-Serif" font-size="10.00">vector</text>
</a>
</g>
</g>
<!-- Node5&#45;&gt;Node6 -->
<g id="edge5_Node000005_Node000006" class="edge">
<title>Node5&#45;&gt;Node6</title>
<g id="a_edge5_Node000005_Node000006"><a xlink:title=" ">
<path fill="none" stroke="#63b8ff" d="M893.78,-241.92C909.43,-234.89 928.67,-223.25 938,-206 944.34,-194.27 941.95,-188.74 938,-176 918.69,-113.71 905.28,-96.53 855,-55 834.94,-38.43 807.76,-26.98 786.5,-19.85"/>
<polygon fill="#63b8ff" stroke="#63b8ff" points="787.49,-16.49 776.9,-16.78 785.36,-23.15 787.49,-16.49"/>
</a>
</g>
</g>
<!-- Node7 -->
<g id="Node000007" class="node">
<title>Node7</title>
<g id="a_Node000007"><a xlink:title=" ">
<polygon fill="#e0e0e0" stroke="#999999" points="1070.5,-200.5 1023.5,-200.5 1023.5,-181.5 1070.5,-181.5 1070.5,-200.5"/>
<text text-anchor="middle" x="1047" y="-188.5" font-family="Helvetica,sans-Serif" font-size="10.00">cmath</text>
</a>
</g>
</g>
<!-- Node5&#45;&gt;Node7 -->
<g id="edge7_Node000005_Node000007" class="edge">
<title>Node5&#45;&gt;Node7</title>
<g id="a_edge7_Node000005_Node000007"><a xlink:title=" ">
<path fill="none" stroke="#63b8ff" d="M897.81,-241.99C925.95,-233.28 970.66,-219.19 1009,-206 1010.84,-205.37 1012.74,-204.7 1014.64,-204.03"/>
<polygon fill="#63b8ff" stroke="#63b8ff" points="1015.93,-207.28 1024.15,-200.6 1013.56,-200.7 1015.93,-207.28"/>
</a>
</g>
</g>
<!-- Node8 -->
<g id="Node000008" class="node">
<title>Node8</title>
<g id="a_Node000008"><a xlink:title=" ">
<polygon fill="#e0e0e0" stroke="#999999" points="813,-200.5 749,-200.5 749,-181.5 813,-181.5 813,-200.5"/>
<text text-anchor="middle" x="781" y="-188.5" font-family="Helvetica,sans-Serif" font-size="10.00">algorithm</text>
</a>
</g>
</g>
<!-- Node5&#45;&gt;Node8 -->
<g id="edge9_Node000005_Node000008" class="edge">
<title>Node5&#45;&gt;Node8</title>
<g id="a_edge9_Node000005_Node000008"><a xlink:title=" ">
<path fill="none" stroke="#63b8ff" d="M856.87,-241.87C842.67,-232.54 819.8,-217.51 802.88,-206.38"/>
<polygon fill="#63b8ff" stroke="#63b8ff" points="804.47,-203.24 794.19,-200.67 800.62,-209.08 804.47,-203.24"/>
</a>
</g>
</g>
<!-- Node9 -->
<g id="Node000009" class="node">
<title>Node9</title>
<g id="a_Node000009"><a xlink:title=" ">
<polygon fill="#e0e0e0" stroke="#999999" points="731,-200.5 675,-200.5 675,-181.5 731,-181.5 731,-200.5"/>
<text text-anchor="middle" x="703" y="-188.5" font-family="Helvetica,sans-Serif" font-size="10.00">numeric</text>
</a>
</g>
</g>
<!-- Node5&#45;&gt;Node9 -->
<g id="edge10_Node000005_Node000009" class="edge">
<title>Node5&#45;&gt;Node9</title>
<g id="a_edge10_Node000005_Node000009"><a xlink:title=" ">
<path fill="none" stroke="#63b8ff" d="M844.02,-241.88C817.71,-233.08 775.91,-218.94 740,-206 738.36,-205.41 736.67,-204.8 734.98,-204.17"/>
<polygon fill="#63b8ff" stroke="#63b8ff" points="735.85,-200.76 725.26,-200.56 733.41,-207.32 735.85,-200.76"/>
</a>
</g>
</g>
<!-- Node10 -->
<g id="Node000010" class="node">
<title>Node10</title>
<g id="a_Node000010"><a xlink:title=" ">
<polygon fill="#e0e0e0" stroke="#999999" points="1153.5,-200.5 1088.5,-200.5 1088.5,-181.5 1153.5,-181.5 1153.5,-200.5"/>
<text text-anchor="middle" x="1121" y="-188.5" font-family="Helvetica,sans-Serif" font-size="10.00">functional</text>
</a>
</g>
</g>
<!-- Node5&#45;&gt;Node10 -->
<g id="edge11_Node000005_Node000010" class="edge">
<title>Node5&#45;&gt;Node10</title>
<g id="a_edge11_Node000005_Node000010"><a xlink:title=" ">
<path fill="none" stroke="#63b8ff" d="M909.04,-243.68C951.47,-235.94 1021.08,-222.24 1080,-206 1082.47,-205.32 1085.02,-204.57 1087.57,-203.78"/>
<polygon fill="#63b8ff" stroke="#63b8ff" points="1088.87,-207.04 1097.3,-200.63 1086.71,-200.38 1088.87,-207.04"/>
</a>
</g>
</g>
<!-- Node11 -->
<g id="Node000011" class="node">
<title>Node11</title>
<g id="a_Node000011"><a xlink:title=" ">
<polygon fill="#e0e0e0" stroke="#999999" points="711,-19 657,-19 657,0 711,0 711,-19"/>
<text text-anchor="middle" x="684" y="-7" font-family="Helvetica,sans-Serif" font-size="10.00">random</text>
</a>
</g>
</g>
<!-- Node5&#45;&gt;Node11 -->
<g id="edge12_Node000005_Node000011" class="edge">
<title>Node5&#45;&gt;Node11</title>
<g id="a_edge12_Node000005_Node000011"><a xlink:title=" ">
<path fill="none" stroke="#63b8ff" d="M864.72,-241.55C856.23,-227.32 838.76,-198.81 822,-176 780.06,-118.93 724.68,-55.76 698.68,-26.72"/>
<polygon fill="#63b8ff" stroke="#63b8ff" points="701.17,-24.25 691.88,-19.16 695.96,-28.94 701.17,-24.25"/>
</a>
</g>
</g>
<!-- Node12 -->
<g id="Node000012" class="node">
<title>Node12</title>
<g id="a_Node000012"><a xlink:title=" ">
<polygon fill="#e0e0e0" stroke="#999999" points="928.5,-200.5 869.5,-200.5 869.5,-181.5 928.5,-181.5 928.5,-200.5"/>
<text text-anchor="middle" x="899" y="-188.5" font-family="Helvetica,sans-Serif" font-size="10.00">numbers</text>
</a>
</g>
</g>
<!-- Node5&#45;&gt;Node12 -->
<g id="edge13_Node000005_Node000012" class="edge">
<title>Node5&#45;&gt;Node12</title>
<g id="a_edge13_Node000005_Node000012"><a xlink:title=" ">
<path fill="none" stroke="#63b8ff" d="M874.28,-241.87C878.43,-233.49 884.87,-220.51 890.13,-209.89"/>
<polygon fill="#63b8ff" stroke="#63b8ff" points="893.4,-211.18 894.7,-200.67 887.13,-208.07 893.4,-211.18"/>
</a>
</g>
</g>
<!-- Node13 -->
<g id="Node000013" class="node">
<title>Node13</title>
<g id="a_Node000013"><a xlink:title=" ">
<polygon fill="#e0e0e0" stroke="#999999" points="943.5,-19 888.5,-19 888.5,0 943.5,0 943.5,-19"/>
<text text-anchor="middle" x="916" y="-7" font-family="Helvetica,sans-Serif" font-size="10.00">fstream</text>
</a>
</g>
</g>
<!-- Node5&#45;&gt;Node13 -->
<g id="edge14_Node000005_Node000013" class="edge">
<title>Node5&#45;&gt;Node13</title>
<g id="a_edge14_Node000005_Node000013"><a xlink:title=" ">
<path fill="none" stroke="#63b8ff" d="M909.17,-244C931.36,-238.1 957.34,-226.94 971,-206 1007.66,-149.79 999.9,-115.57 971,-55 964.91,-42.23 953.16,-31.94 942.08,-24.49"/>
<polygon fill="#63b8ff" stroke="#63b8ff" points="943.8,-21.43 933.46,-19.12 940.1,-27.38 943.8,-21.43"/>
</a>
</g>
</g>
<!-- Node14&#45;&gt;Node3 -->
<g id="edge46_Node000014_Node000003" class="edge">
<title>Node14&#45;&gt;Node3</title>
<g id="a_edge46_Node000014_Node000003"><a xlink:title=" ">
<path fill="none" stroke="#63b8ff" d="M257.51,-296.99C246.96,-283.65 224.85,-257.73 201,-242 164.69,-218.05 150.41,-222.08 110,-206 108.59,-205.44 107.16,-204.87 105.7,-204.29"/>
<polygon fill="#63b8ff" stroke="#63b8ff" points="106.68,-200.91 96.09,-200.45 104.08,-207.41 106.68,-200.91"/>
</a>
</g>
</g>
<!-- Node15 -->
<g id="Node000015" class="node">
<title>Node15</title>
<g id="a_Node000015"><a xlink:href="element_8h.html" target="_top" xlink:title=" ">
<polygon fill="white" stroke="#666666" points="461,-261 395,-261 395,-242 461,-242 461,-261"/>
<text text-anchor="middle" x="428" y="-249" font-family="Helvetica,sans-Serif" font-size="10.00">element.h</text>
</a>
</g>
</g>
<!-- Node14&#45;&gt;Node15 -->
<g id="edge16_Node000014_Node000015" class="edge">
<title>Node14&#45;&gt;Node15</title>
<g id="a_edge16_Node000014_Node000015"><a xlink:title=" ">
<path fill="none" stroke="#63b8ff" d="M290.35,-296.98C317.76,-288.13 360.89,-274.19 391.56,-264.28"/>
<polygon fill="#63b8ff" stroke="#63b8ff" points="393,-267.49 401.44,-261.08 390.85,-260.83 393,-267.49"/>
</a>
</g>
</g>
<!-- Node15&#45;&gt;Node6 -->
<g id="edge17_Node000015_Node000006" class="edge">
<title>Node15&#45;&gt;Node6</title>
<g id="a_edge17_Node000015_Node000006"><a xlink:title=" ">
<path fill="none" stroke="#63b8ff" d="M461.17,-250.64C503.54,-249.24 577.43,-241.38 628,-206 693.48,-160.2 732.53,-68.01 746.8,-28.81"/>
<polygon fill="#63b8ff" stroke="#63b8ff" points="750.15,-29.84 750.17,-19.24 743.55,-27.51 750.15,-29.84"/>
</a>
</g>
</g>
<!-- Node15&#45;&gt;Node8 -->
<g id="edge22_Node000015_Node000008" class="edge">
<title>Node15&#45;&gt;Node8</title>
<g id="a_edge22_Node000015_Node000008"><a xlink:title=" ">
<path fill="none" stroke="#63b8ff" d="M461.17,-247.83C518.6,-242.74 639.97,-229.99 740,-206 742.81,-205.33 745.7,-204.54 748.59,-203.69"/>
<polygon fill="#63b8ff" stroke="#63b8ff" points="749.77,-206.98 758.24,-200.62 747.65,-200.31 749.77,-206.98"/>
</a>
</g>
</g>
<!-- Node15&#45;&gt;Node9 -->
<g id="edge23_Node000015_Node000009" class="edge">
<title>Node15&#45;&gt;Node9</title>
<g id="a_edge23_Node000015_Node000009"><a xlink:title=" ">
<path fill="none" stroke="#63b8ff" d="M461.11,-245.6C506.56,-238.55 590.67,-224.35 661,-206 663.79,-205.27 666.66,-204.46 669.53,-203.6"/>
<polygon fill="#63b8ff" stroke="#63b8ff" points="670.7,-206.9 679.18,-200.55 668.59,-200.23 670.7,-206.9"/>
</a>
</g>
</g>
<!-- Node16 -->
<g id="Node000016" class="node">
<title>Node16</title>
<g id="a_Node000016"><a xlink:title=" ">
<polygon fill="#e0e0e0" stroke="#999999" points="218,-19 174,-19 174,0 218,0 218,-19"/>
<text text-anchor="middle" x="196" y="-7" font-family="Helvetica,sans-Serif" font-size="10.00">string</text>
</a>
</g>
</g>
<!-- Node15&#45;&gt;Node16 -->
<g id="edge18_Node000015_Node000016" class="edge">
<title>Node15&#45;&gt;Node16</title>
<g id="a_edge18_Node000015_Node000016"><a xlink:title=" ">
<path fill="none" stroke="#63b8ff" d="M394.57,-248.17C340.65,-243.69 238.08,-231.92 214,-206 168.39,-156.91 182.22,-67.92 191.09,-29.27"/>
<polygon fill="#63b8ff" stroke="#63b8ff" points="194.53,-29.92 193.51,-19.38 187.73,-28.26 194.53,-29.92"/>
</a>
</g>
</g>
<!-- Node17 -->
<g id="Node000017" class="node">
<title>Node17</title>
<g id="a_Node000017"><a xlink:title=" ">
<polygon fill="#e0e0e0" stroke="#999999" points="474.5,-200.5 381.5,-200.5 381.5,-181.5 474.5,-181.5 474.5,-200.5"/>
<text text-anchor="middle" x="428" y="-188.5" font-family="Helvetica,sans-Serif" font-size="10.00">unordered_map</text>
</a>
</g>
</g>
<!-- Node15&#45;&gt;Node17 -->
<g id="edge19_Node000015_Node000017" class="edge">
<title>Node15&#45;&gt;Node17</title>
<g id="a_edge19_Node000015_Node000017"><a xlink:title=" ">
<path fill="none" stroke="#63b8ff" d="M428,-241.87C428,-233.75 428,-221.31 428,-210.89"/>
<polygon fill="#63b8ff" stroke="#63b8ff" points="431.5,-210.67 428,-200.67 424.5,-210.67 431.5,-210.67"/>
</a>
</g>
</g>
<!-- Node18 -->
<g id="Node000018" class="node">
<title>Node18</title>
<g id="a_Node000018"><a xlink:title=" ">
<polygon fill="#e0e0e0" stroke="#999999" points="551,-200.5 493,-200.5 493,-181.5 551,-181.5 551,-200.5"/>
<text text-anchor="middle" x="522" y="-188.5" font-family="Helvetica,sans-Serif" font-size="10.00">memory</text>
</a>
</g>
</g>
<!-- Node15&#45;&gt;Node18 -->
<g id="edge20_Node000015_Node000018" class="edge">
<title>Node15&#45;&gt;Node18</title>
<g id="a_edge20_Node000015_Node000018"><a xlink:title=" ">
<path fill="none" stroke="#63b8ff" d="M441.87,-241.87C457,-232.45 481.46,-217.23 499.38,-206.08"/>
<polygon fill="#63b8ff" stroke="#63b8ff" points="501.43,-208.92 508.07,-200.67 497.73,-202.98 501.43,-208.92"/>
</a>
</g>
</g>
<!-- Node19 -->
<g id="Node000019" class="node">
<title>Node19</title>
<g id="a_Node000019"><a xlink:title=" ">
<polygon fill="#e0e0e0" stroke="#999999" points="619,-200.5 569,-200.5 569,-181.5 619,-181.5 619,-200.5"/>
<text text-anchor="middle" x="594" y="-188.5" font-family="Helvetica,sans-Serif" font-size="10.00">ranges</text>
</a>
</g>
</g>
<!-- Node15&#45;&gt;Node19 -->
<g id="edge21_Node000015_Node000019" class="edge">
<title>Node15&#45;&gt;Node19</title>
<g id="a_edge21_Node000015_Node000019"><a xlink:title=" ">
<path fill="none" stroke="#63b8ff" d="M454.98,-241.98C481.79,-233.37 523.98,-219.47 560,-206 561.42,-205.47 562.87,-204.92 564.33,-204.35"/>
<polygon fill="#63b8ff" stroke="#63b8ff" points="565.96,-207.47 573.95,-200.51 563.37,-200.97 565.96,-207.47"/>
</a>
</g>
</g>
<!-- Node20 -->
<g id="Node000020" class="node">
<title>Node20</title>
<g id="a_Node000020"><a xlink:href="exception_8h.html" target="_top" xlink:title=" ">
<polygon fill="white" stroke="#666666" points="130,-79.5 0,-79.5 0,-60.5 130,-60.5 130,-79.5"/>
<text text-anchor="middle" x="65" y="-67.5" font-family="Helvetica,sans-Serif" font-size="10.00">exceptions/exception.h</text>
</a>
</g>
</g>
<!-- Node15&#45;&gt;Node20 -->
<g id="edge24_Node000015_Node000020" class="edge">
<title>Node15&#45;&gt;Node20</title>
<g id="a_edge24_Node000015_Node000020"><a xlink:title=" ">
<path fill="none" stroke="#63b8ff" d="M394.93,-248.68C329.85,-244.55 187.97,-232.68 148,-206 105.41,-177.57 80.87,-119.11 70.65,-89.32"/>
<polygon fill="#63b8ff" stroke="#63b8ff" points="73.96,-88.17 67.53,-79.75 67.31,-90.34 73.96,-88.17"/>
</a>
</g>
</g>
<!-- Node22 -->
<g id="Node000022" class="node">
<title>Node22</title>
<g id="a_Node000022"><a xlink:href="logger_8h.html" target="_top" xlink:title=" ">
<polygon fill="white" stroke="#666666" points="339.5,-140 256.5,-140 256.5,-121 339.5,-121 339.5,-140"/>
<text text-anchor="middle" x="298" y="-128" font-family="Helvetica,sans-Serif" font-size="10.00">tools/logger.h</text>
</a>
</g>
</g>
<!-- Node15&#45;&gt;Node22 -->
<g id="edge27_Node000015_Node000022" class="edge">
<title>Node15&#45;&gt;Node22</title>
<g id="a_edge27_Node000015_Node000022"><a xlink:title=" ">
<path fill="none" stroke="#63b8ff" d="M394.91,-248.19C342.73,-243.79 245.09,-232.19 224,-206 215.64,-195.62 217.44,-187.61 224,-176 232.17,-161.55 247.12,-151.27 261.46,-144.26"/>
<polygon fill="#63b8ff" stroke="#63b8ff" points="263.01,-147.4 270.71,-140.12 260.15,-141.01 263.01,-147.4"/>
</a>
</g>
</g>
<!-- Node29 -->
<g id="Node000029" class="node">
<title>Node29</title>
<g id="a_Node000029"><a xlink:href="element__parameters_8h.html" target="_top" xlink:title=" ">
<polygon fill="white" stroke="#666666" points="363.5,-206 232.5,-206 232.5,-176 363.5,-176 363.5,-206"/>
<text text-anchor="start" x="240.5" y="-194" font-family="Helvetica,sans-Serif" font-size="10.00">element_parameters</text>
<text text-anchor="middle" x="298" y="-183" font-family="Helvetica,sans-Serif" font-size="10.00">/element_parameters.h</text>
</a>
</g>
</g>
<!-- Node15&#45;&gt;Node29 -->
<g id="edge41_Node000015_Node000029" class="edge">
<title>Node15&#45;&gt;Node29</title>
<g id="a_edge41_Node000015_Node000029"><a xlink:title=" ">
<path fill="none" stroke="#63b8ff" d="M409.1,-241.99C390.71,-233.72 362.2,-220.89 338.66,-210.3"/>
<polygon fill="#63b8ff" stroke="#63b8ff" points="339.81,-206.98 329.25,-206.06 336.94,-213.36 339.81,-206.98"/>
</a>
</g>
</g>
<!-- Node20&#45;&gt;Node16 -->
<g id="edge26_Node000020_Node000016" class="edge">
<title>Node20&#45;&gt;Node16</title>
<g id="a_edge26_Node000020_Node000016"><a xlink:title=" ">
<path fill="none" stroke="#63b8ff" d="M84.05,-60.49C105.97,-50.7 142.21,-34.52 167.5,-23.23"/>
<polygon fill="#63b8ff" stroke="#63b8ff" points="169.22,-26.29 176.93,-19.02 166.37,-19.9 169.22,-26.29"/>
</a>
</g>
</g>
<!-- Node21 -->
<g id="Node000021" class="node">
<title>Node21</title>
<g id="a_Node000021"><a xlink:title=" ">
<polygon fill="#e0e0e0" stroke="#999999" points="97.5,-19 32.5,-19 32.5,0 97.5,0 97.5,-19"/>
<text text-anchor="middle" x="65" y="-7" font-family="Helvetica,sans-Serif" font-size="10.00">exception</text>
</a>
</g>
</g>
<!-- Node20&#45;&gt;Node21 -->
<g id="edge25_Node000020_Node000021" class="edge">
<title>Node20&#45;&gt;Node21</title>
<g id="a_edge25_Node000020_Node000021"><a xlink:title=" ">
<path fill="none" stroke="#63b8ff" d="M65,-60.37C65,-52.25 65,-39.81 65,-29.39"/>
<polygon fill="#63b8ff" stroke="#63b8ff" points="68.5,-29.17 65,-19.17 61.5,-29.17 68.5,-29.17"/>
</a>
</g>
</g>
<!-- Node22&#45;&gt;Node16 -->
<g id="edge29_Node000022_Node000016" class="edge">
<title>Node22&#45;&gt;Node16</title>
<g id="a_edge29_Node000022_Node000016"><a xlink:title=" ">
<path fill="none" stroke="#63b8ff" d="M270.23,-120.89C252.26,-113.94 229.74,-102.42 216,-85 203.45,-69.09 198.75,-45.97 197,-29.71"/>
<polygon fill="#63b8ff" stroke="#63b8ff" points="200.46,-28.99 196.18,-19.29 193.48,-29.54 200.46,-28.99"/>
</a>
</g>
</g>
<!-- Node22&#45;&gt;Node20 -->
<g id="edge33_Node000022_Node000020" class="edge">
<title>Node22&#45;&gt;Node20</title>
<g id="a_edge33_Node000022_Node000020"><a xlink:title=" ">
<path fill="none" stroke="#63b8ff" d="M264.12,-120.99C223.05,-110.68 153.76,-93.28 108.7,-81.97"/>
<polygon fill="#63b8ff" stroke="#63b8ff" points="109.47,-78.56 98.92,-79.52 107.77,-85.35 109.47,-78.56"/>
</a>
</g>
</g>
<!-- Node23 -->
<g id="Node000023" class="node">
<title>Node23</title>
<g id="a_Node000023"><a xlink:title=" ">
<polygon fill="#e0e0e0" stroke="#999999" points="410,-79.5 350,-79.5 350,-60.5 410,-60.5 410,-79.5"/>
<text text-anchor="middle" x="380" y="-67.5" font-family="Helvetica,sans-Serif" font-size="10.00">iostream</text>
</a>
</g>
</g>
<!-- Node22&#45;&gt;Node23 -->
<g id="edge28_Node000022_Node000023" class="edge">
<title>Node22&#45;&gt;Node23</title>
<g id="a_edge28_Node000022_Node000023"><a xlink:title=" ">
<path fill="none" stroke="#63b8ff" d="M310.1,-120.87C323.06,-111.62 343.86,-96.78 359.4,-85.69"/>
<polygon fill="#63b8ff" stroke="#63b8ff" points="361.74,-88.32 367.85,-79.67 357.68,-82.63 361.74,-88.32"/>
</a>
</g>
</g>
<!-- Node24 -->
<g id="Node000024" class="node">
<title>Node24</title>
<g id="a_Node000024"><a xlink:title=" ">
<polygon fill="#e0e0e0" stroke="#999999" points="565,-19 515,-19 515,0 565,0 565,-19"/>
<text text-anchor="middle" x="540" y="-7" font-family="Helvetica,sans-Serif" font-size="10.00">chrono</text>
</a>
</g>
</g>
<!-- Node22&#45;&gt;Node24 -->
<g id="edge30_Node000022_Node000024" class="edge">
<title>Node22&#45;&gt;Node24</title>
<g id="a_edge30_Node000022_Node000024"><a xlink:title=" ">
<path fill="none" stroke="#63b8ff" d="M339.78,-129.01C382.01,-126.58 447.38,-117.31 493,-85 512.74,-71.02 526.03,-45.88 533.3,-28.7"/>
<polygon fill="#63b8ff" stroke="#63b8ff" points="536.64,-29.79 537.06,-19.2 530.13,-27.22 536.64,-29.79"/>
</a>
</g>
</g>
<!-- Node25 -->
<g id="Node000025" class="node">
<title>Node25</title>
<g id="a_Node000025"><a xlink:title=" ">
<polygon fill="#e0e0e0" stroke="#999999" points="484,-79.5 428,-79.5 428,-60.5 484,-60.5 484,-79.5"/>
<text text-anchor="middle" x="456" y="-67.5" font-family="Helvetica,sans-Serif" font-size="10.00">iomanip</text>
</a>
</g>
</g>
<!-- Node22&#45;&gt;Node25 -->
<g id="edge31_Node000022_Node000025" class="edge">
<title>Node22&#45;&gt;Node25</title>
<g id="a_edge31_Node000022_Node000025"><a xlink:title=" ">
<path fill="none" stroke="#63b8ff" d="M321.67,-120.87C346.08,-111.95 385.24,-97.6 419,-85 420.59,-84.41 422.22,-83.8 423.87,-83.18"/>
<polygon fill="#63b8ff" stroke="#63b8ff" points="425.19,-86.42 433.31,-79.62 422.72,-79.87 425.19,-86.42"/>
</a>
</g>
</g>
<!-- Node26 -->
<g id="Node000026" class="node">
<title>Node26</title>
<g id="a_Node000026"><a xlink:title=" ">
<polygon fill="#e0e0e0" stroke="#999999" points="331.5,-85 224.5,-85 224.5,-55 331.5,-55 331.5,-85"/>
<text text-anchor="start" x="232.5" y="-73" font-family="Helvetica,sans-Serif" font-size="10.00">imgui&#45;platform&#45;kit</text>
<text text-anchor="middle" x="278" y="-62" font-family="Helvetica,sans-Serif" font-size="10.00">/log_window.h</text>
</a>
</g>
</g>
<!-- Node22&#45;&gt;Node26 -->
<g id="edge32_Node000022_Node000026" class="edge">
<title>Node22&#45;&gt;Node26</title>
<g id="a_edge32_Node000022_Node000026"><a xlink:title=" ">
<path fill="none" stroke="#63b8ff" d="M295.05,-120.87C292.69,-113.96 289.26,-103.93 286.09,-94.67"/>
<polygon fill="#63b8ff" stroke="#63b8ff" points="289.37,-93.44 282.83,-85.11 282.75,-95.71 289.37,-93.44"/>
</a>
</g>
</g>
<!-- Node27 -->
<g id="Node000027" class="node">
<title>Node27</title>
<g id="a_Node000027"><a xlink:href="utils_8h.html" target="_top" xlink:title=" ">
<polygon fill="white" stroke="#666666" points="625.5,-79.5 578.5,-79.5 578.5,-60.5 625.5,-60.5 625.5,-79.5"/>
<text text-anchor="middle" x="602" y="-67.5" font-family="Helvetica,sans-Serif" font-size="10.00">utils.h</text>
</a>
</g>
</g>
<!-- Node22&#45;&gt;Node27 -->
<g id="edge34_Node000022_Node000027" class="edge">
<title>Node22&#45;&gt;Node27</title>
<g id="a_edge34_Node000022_Node000027"><a xlink:title=" ">
<path fill="none" stroke="#63b8ff" d="M339.52,-125C392.3,-118.72 485.93,-105.72 564,-85 566.44,-84.35 568.94,-83.61 571.44,-82.82"/>
<polygon fill="#63b8ff" stroke="#63b8ff" points="572.6,-86.12 580.92,-79.56 570.33,-79.5 572.6,-86.12"/>
</a>
</g>
</g>
<!-- Node27&#45;&gt;Node6 -->
<g id="edge36_Node000027_Node000006" class="edge">
<title>Node27&#45;&gt;Node6</title>
<g id="a_edge36_Node000027_Node000006"><a xlink:title=" ">
<path fill="none" stroke="#63b8ff" d="M623.96,-60.49C649.68,-50.53 692.48,-33.95 721.68,-22.63"/>
<polygon fill="#63b8ff" stroke="#63b8ff" points="722.96,-25.89 731.02,-19.02 720.43,-19.37 722.96,-25.89"/>
</a>
</g>
</g>
<!-- Node27&#45;&gt;Node11 -->
<g id="edge37_Node000027_Node000011" class="edge">
<title>Node27&#45;&gt;Node11</title>
<g id="a_edge37_Node000027_Node000011"><a xlink:title=" ">
<path fill="none" stroke="#63b8ff" d="M614.1,-60.37C627.06,-51.12 647.86,-36.28 663.4,-25.19"/>
<polygon fill="#63b8ff" stroke="#63b8ff" points="665.74,-27.82 671.85,-19.17 661.68,-22.13 665.74,-27.82"/>
</a>
</g>
</g>
<!-- Node27&#45;&gt;Node13 -->
<g id="edge39_Node000027_Node000013" class="edge">
<title>Node27&#45;&gt;Node13</title>
<g id="a_edge39_Node000027_Node000013"><a xlink:title=" ">
<path fill="none" stroke="#63b8ff" d="M625.6,-64.6C679.62,-54.54 812.62,-29.76 878.2,-17.54"/>
<polygon fill="#63b8ff" stroke="#63b8ff" points="878.93,-20.97 888.12,-15.69 877.65,-14.08 878.93,-20.97"/>
</a>
</g>
</g>
<!-- Node27&#45;&gt;Node16 -->
<g id="edge35_Node000027_Node000016" class="edge">
<title>Node27&#45;&gt;Node16</title>
<g id="a_edge35_Node000027_Node000016"><a xlink:title=" ">
<path fill="none" stroke="#63b8ff" d="M578.43,-64.36C563.45,-61.48 543.62,-57.81 526,-55 417.17,-37.65 287.43,-21.46 228.27,-14.33"/>
<polygon fill="#63b8ff" stroke="#63b8ff" points="228.41,-10.82 218.07,-13.1 227.58,-17.77 228.41,-10.82"/>
</a>
</g>
</g>
<!-- Node27&#45;&gt;Node24 -->
<g id="edge40_Node000027_Node000024" class="edge">
<title>Node27&#45;&gt;Node24</title>
<g id="a_edge40_Node000027_Node000024"><a xlink:title=" ">
<path fill="none" stroke="#63b8ff" d="M592.85,-60.37C583.33,-51.38 568.2,-37.11 556.57,-26.14"/>
<polygon fill="#63b8ff" stroke="#63b8ff" points="558.86,-23.48 549.19,-19.17 554.06,-28.58 558.86,-23.48"/>
</a>
</g>
</g>
<!-- Node28 -->
<g id="Node000028" class="node">
<title>Node28</title>
<g id="a_Node000028"><a xlink:title=" ">
<polygon fill="#e0e0e0" stroke="#999999" points="639,-19 583,-19 583,0 639,0 639,-19"/>
<text text-anchor="middle" x="611" y="-7" font-family="Helvetica,sans-Serif" font-size="10.00">sstream</text>
</a>
</g>
</g>
<!-- Node27&#45;&gt;Node28 -->
<g id="edge38_Node000027_Node000028" class="edge">
<title>Node27&#45;&gt;Node28</title>
<g id="a_edge38_Node000027_Node000028"><a xlink:title=" ">
<path fill="none" stroke="#63b8ff" d="M603.33,-60.37C604.59,-52.16 606.53,-39.54 608.15,-29.05"/>
<polygon fill="#63b8ff" stroke="#63b8ff" points="611.61,-29.58 609.67,-19.17 604.69,-28.52 611.61,-29.58"/>
</a>
</g>
</g>
<!-- Node29&#45;&gt;Node16 -->
<g id="edge43_Node000029_Node000016" class="edge">
<title>Node29&#45;&gt;Node16</title>
<g id="a_edge43_Node000029_Node000016"><a xlink:title=" ">
<path fill="none" stroke="#63b8ff" d="M353.06,-175.95C426.28,-154.72 541.17,-110.92 493,-55 459.17,-15.72 298.68,-10.61 228.73,-10.29"/>
<polygon fill="#63b8ff" stroke="#63b8ff" points="228.31,-6.79 218.31,-10.28 228.3,-13.79 228.31,-6.79"/>
</a>
</g>
</g>
<!-- Node29&#45;&gt;Node22 -->
<g id="edge45_Node000029_Node000022" class="edge">
<title>Node29&#45;&gt;Node22</title>
<g id="a_edge45_Node000029_Node000022"><a xlink:title=" ">
<path fill="none" stroke="#63b8ff" d="M298,-175.84C298,-168.21 298,-158.7 298,-150.45"/>
<polygon fill="#63b8ff" stroke="#63b8ff" points="301.5,-150.27 298,-140.27 294.5,-150.27 301.5,-150.27"/>
</a>
</g>
</g>
<!-- Node30 -->
<g id="Node000030" class="node">
<title>Node30</title>
<g id="a_Node000030"><a xlink:title=" ">
<polygon fill="#e0e0e0" stroke="#999999" points="558,-140 520,-140 520,-121 558,-121 558,-140"/>
<text text-anchor="middle" x="539" y="-128" font-family="Helvetica,sans-Serif" font-size="10.00">map</text>
</a>
</g>
</g>
<!-- Node29&#45;&gt;Node30 -->
<g id="edge42_Node000029_Node000030" class="edge">
<title>Node29&#45;&gt;Node30</title>
<g id="a_edge42_Node000029_Node000030"><a xlink:title=" ">
<path fill="none" stroke="#63b8ff" d="M357.69,-175.92C399.3,-166.04 456.09,-152.43 506,-140 507.26,-139.69 508.55,-139.36 509.84,-139.04"/>
<polygon fill="#63b8ff" stroke="#63b8ff" points="510.99,-142.36 519.82,-136.5 509.26,-135.57 510.99,-142.36"/>
</a>
</g>
</g>
<!-- Node31 -->
<g id="Node000031" class="node">
<title>Node31</title>
<g id="a_Node000031"><a xlink:title=" ">
<polygon fill="#e0e0e0" stroke="#999999" points="626,-140 576,-140 576,-121 626,-121 626,-140"/>
<text text-anchor="middle" x="601" y="-128" font-family="Helvetica,sans-Serif" font-size="10.00">format</text>
</a>
</g>
</g>
<!-- Node29&#45;&gt;Node31 -->
<g id="edge44_Node000029_Node000031" class="edge">
<title>Node29&#45;&gt;Node31</title>
<g id="a_edge44_Node000029_Node000031"><a xlink:title=" ">
<path fill="none" stroke="#63b8ff" d="M363.85,-177.7C366.94,-177.13 370,-176.56 373,-176 456.1,-160.53 479.63,-158.76 565.83,-140.15"/>
<polygon fill="#63b8ff" stroke="#63b8ff" points="566.76,-143.53 575.79,-137.99 565.27,-136.69 566.76,-143.53"/>
</a>
</g>
</g>
</g>
</svg>
