<?xml version="1.0" encoding="UTF-8" standalone="no"?>
<!DOCTYPE svg PUBLIC "-//W3C//DTD SVG 1.1//EN"
 "http://www.w3.org/Graphics/SVG/1.1/DTD/svg11.dtd">
<!-- Generated by graphviz version 2.43.0 (0)
 -->
<!-- Title: include/elements/gauss_kernel.h Pages: 1 -->
<svg width="1141pt" height="390pt"
 viewBox="0.00 0.00 1141.03 390.00" xmlns="http://www.w3.org/2000/svg" xmlns:xlink="http://www.w3.org/1999/xlink">
<g id="graph0" class="graph" transform="scale(1 1) rotate(0) translate(4 386)">
<title>include/elements/gauss_kernel.h</title>
<!-- Node1 -->
<g id="Node000001" class="node">
<title>Node1</title>
<g id="a_Node000001"><a xlink:title=" ">
<polygon fill="#999999" stroke="#666666" points="347,-382 215,-382 215,-352 347,-352 347,-382"/>
<text text-anchor="start" x="223" y="-370" font-family="Helvetica,sans-Serif" font-size="10.00">include/elements/gauss</text>
<text text-anchor="middle" x="281" y="-359" font-family="Helvetica,sans-Serif" font-size="10.00">_kernel.h</text>
</a>
</g>
</g>
<!-- Node2 -->
<g id="Node000002" class="node">
<title>Node2</title>
<g id="a_Node000002"><a xlink:title=" ">
<polygon fill="#e0e0e0" stroke="#999999" points="92,-200.5 50,-200.5 50,-181.5 92,-181.5 92,-200.5"/>
<text text-anchor="middle" x="71" y="-188.5" font-family="Helvetica,sans-Serif" font-size="10.00">array</text>
</a>
</g>
</g>
<!-- Node1&#45;&gt;Node2 -->
<g id="edge1_Node000001_Node000002" class="edge">
<title>Node1&#45;&gt;Node2</title>
<g id="a_edge1_Node000001_Node000002"><a xlink:title=" ">
<path fill="none" stroke="#63b8ff" d="M262.03,-351.81C248.95,-341.94 231.26,-328.38 216,-316 169.11,-277.96 115.49,-231.23 88.49,-207.47"/>
<polygon fill="#63b8ff" stroke="#63b8ff" points="90.51,-204.59 80.7,-200.6 85.88,-209.84 90.51,-204.59"/>
</a>
</g>
</g>
<!-- Node3 -->
<g id="Node000003" class="node">
<title>Node3</title>
<g id="a_Node000003"><a xlink:title=" ">
<polygon fill="#e0e0e0" stroke="#999999" points="393,-316 337,-316 337,-297 393,-297 393,-316"/>
<text text-anchor="middle" x="365" y="-304" font-family="Helvetica,sans-Serif" font-size="10.00">optional</text>
</a>
</g>
</g>
<!-- Node1&#45;&gt;Node3 -->
<g id="edge2_Node000001_Node000003" class="edge">
<title>Node1&#45;&gt;Node3</title>
<g id="a_edge2_Node000001_Node000003"><a xlink:title=" ">
<path fill="none" stroke="#63b8ff" d="M301.33,-351.84C314.27,-342.83 330.99,-331.18 344.05,-322.09"/>
<polygon fill="#63b8ff" stroke="#63b8ff" points="346.21,-324.85 352.41,-316.27 342.21,-319.11 346.21,-324.85"/>
</a>
</g>
</g>
<!-- Node4 -->
<g id="Node000004" class="node">
<title>Node4</title>
<g id="a_Node000004"><a xlink:href="math_8h.html" target="_top" xlink:title=" ">
<polygon fill="white" stroke="#666666" points="913,-261 835,-261 835,-242 913,-242 913,-261"/>
<text text-anchor="middle" x="874" y="-249" font-family="Helvetica,sans-Serif" font-size="10.00">tools/math.h</text>
</a>
</g>
</g>
<!-- Node1&#45;&gt;Node4 -->
<g id="edge3_Node000001_Node000004" class="edge">
<title>Node1&#45;&gt;Node4</title>
<g id="a_edge3_Node000001_Node000004"><a xlink:title=" ">
<path fill="none" stroke="#63b8ff" d="M286.26,-351.78C293.13,-335.45 306.83,-309.32 328,-297 370.32,-272.37 697.96,-258.57 824.42,-254.11"/>
<polygon fill="#63b8ff" stroke="#63b8ff" points="824.73,-257.6 834.6,-253.76 824.48,-250.61 824.73,-257.6"/>
</a>
</g>
</g>
<!-- Node13 -->
<g id="Node000013" class="node">
<title>Node13</title>
<g id="a_Node000013"><a xlink:href="kernel_8h.html" target="_top" xlink:title=" ">
<polygon fill="white" stroke="#666666" points="281,-316 225,-316 225,-297 281,-297 281,-316"/>
<text text-anchor="middle" x="253" y="-304" font-family="Helvetica,sans-Serif" font-size="10.00">kernel.h</text>
</a>
</g>
</g>
<!-- Node1&#45;&gt;Node13 -->
<g id="edge14_Node000001_Node000013" class="edge">
<title>Node1&#45;&gt;Node13</title>
<g id="a_edge14_Node000001_Node000013"><a xlink:title=" ">
<path fill="none" stroke="#63b8ff" d="M274.22,-351.84C270.41,-343.87 265.61,-333.84 261.54,-325.33"/>
<polygon fill="#63b8ff" stroke="#63b8ff" points="264.67,-323.77 257.2,-316.27 258.36,-326.8 264.67,-323.77"/>
</a>
</g>
</g>
<!-- Node4&#45;&gt;Node2 -->
<g id="edge5_Node000004_Node000002" class="edge">
<title>Node4&#45;&gt;Node2</title>
<g id="a_edge5_Node000004_Node000002"><a xlink:title=" ">
<path fill="none" stroke="#63b8ff" d="M834.68,-248.9C728.56,-244.39 427.46,-230.27 178,-206 152.48,-203.52 123.66,-199.69 102.37,-196.66"/>
<polygon fill="#63b8ff" stroke="#63b8ff" points="102.67,-193.17 92.27,-195.21 101.67,-200.1 102.67,-193.17"/>
</a>
</g>
</g>
<!-- Node4&#45;&gt;Node4 -->
<g id="edge7_Node000004_Node000004" class="edge">
<title>Node4&#45;&gt;Node4</title>
<g id="a_edge7_Node000004_Node000004"><a xlink:title=" ">
<path fill="none" stroke="#63b8ff" d="M900.68,-261.03C916.34,-263.06 931,-259.88 931,-251.5 931,-244.95 922.05,-241.58 910.67,-241.38"/>
<polygon fill="#63b8ff" stroke="#63b8ff" points="910.46,-237.89 900.68,-241.97 910.87,-244.88 910.46,-237.89"/>
</a>
</g>
</g>
<!-- Node5 -->
<g id="Node000005" class="node">
<title>Node5</title>
<g id="a_Node000005"><a xlink:title=" ">
<polygon fill="#e0e0e0" stroke="#999999" points="872.5,-19 825.5,-19 825.5,0 872.5,0 872.5,-19"/>
<text text-anchor="middle" x="849" y="-7" font-family="Helvetica,sans-Serif" font-size="10.00">vector</text>
</a>
</g>
</g>
<!-- Node4&#45;&gt;Node5 -->
<g id="edge4_Node000004_Node000005" class="edge">
<title>Node4&#45;&gt;Node5</title>
<g id="a_edge4_Node000004_Node000005"><a xlink:title=" ">
<path fill="none" stroke="#63b8ff" d="M885.64,-241.73C895.31,-233.67 908.35,-220.74 914,-206 938.02,-143.34 945.3,-114.36 914,-55 906.76,-41.27 893.17,-30.97 880.28,-23.76"/>
<polygon fill="#63b8ff" stroke="#63b8ff" points="881.61,-20.51 871.12,-19.05 878.41,-26.73 881.61,-20.51"/>
</a>
</g>
</g>
<!-- Node6 -->
<g id="Node000006" class="node">
<title>Node6</title>
<g id="a_Node000006"><a xlink:title=" ">
<polygon fill="#e0e0e0" stroke="#999999" points="871.5,-200.5 824.5,-200.5 824.5,-181.5 871.5,-181.5 871.5,-200.5"/>
<text text-anchor="middle" x="848" y="-188.5" font-family="Helvetica,sans-Serif" font-size="10.00">cmath</text>
</a>
</g>
</g>
<!-- Node4&#45;&gt;Node6 -->
<g id="edge6_Node000004_Node000006" class="edge">
<title>Node4&#45;&gt;Node6</title>
<g id="a_edge6_Node000004_Node000006"><a xlink:title=" ">
<path fill="none" stroke="#63b8ff" d="M870.16,-241.87C866.44,-233.49 860.67,-220.51 855.95,-209.89"/>
<polygon fill="#63b8ff" stroke="#63b8ff" points="859.11,-208.38 851.85,-200.67 852.72,-211.23 859.11,-208.38"/>
</a>
</g>
</g>
<!-- Node7 -->
<g id="Node000007" class="node">
<title>Node7</title>
<g id="a_Node000007"><a xlink:title=" ">
<polygon fill="#e0e0e0" stroke="#999999" points="732,-200.5 668,-200.5 668,-181.5 732,-181.5 732,-200.5"/>
<text text-anchor="middle" x="700" y="-188.5" font-family="Helvetica,sans-Serif" font-size="10.00">algorithm</text>
</a>
</g>
</g>
<!-- Node4&#45;&gt;Node7 -->
<g id="edge8_Node000004_Node000007" class="edge">
<title>Node4&#45;&gt;Node7</title>
<g id="a_edge8_Node000004_Node000007"><a xlink:title=" ">
<path fill="none" stroke="#63b8ff" d="M847.99,-241.85C821.17,-232.92 778.14,-218.55 741,-206 738.92,-205.3 736.77,-204.57 734.61,-203.84"/>
<polygon fill="#63b8ff" stroke="#63b8ff" points="735.74,-200.52 725.14,-200.61 733.48,-207.15 735.74,-200.52"/>
</a>
</g>
</g>
<!-- Node8 -->
<g id="Node000008" class="node">
<title>Node8</title>
<g id="a_Node000008"><a xlink:title=" ">
<polygon fill="#e0e0e0" stroke="#999999" points="806,-200.5 750,-200.5 750,-181.5 806,-181.5 806,-200.5"/>
<text text-anchor="middle" x="778" y="-188.5" font-family="Helvetica,sans-Serif" font-size="10.00">numeric</text>
</a>
</g>
</g>
<!-- Node4&#45;&gt;Node8 -->
<g id="edge9_Node000004_Node000008" class="edge">
<title>Node4&#45;&gt;Node8</title>
<g id="a_edge9_Node000004_Node000008"><a xlink:title=" ">
<path fill="none" stroke="#63b8ff" d="M859.83,-241.87C844.31,-232.41 819.17,-217.09 800.85,-205.92"/>
<polygon fill="#63b8ff" stroke="#63b8ff" points="802.58,-202.88 792.22,-200.67 798.94,-208.86 802.58,-202.88"/>
</a>
</g>
</g>
<!-- Node9 -->
<g id="Node000009" class="node">
<title>Node9</title>
<g id="a_Node000009"><a xlink:title=" ">
<polygon fill="#e0e0e0" stroke="#999999" points="1031.5,-200.5 966.5,-200.5 966.5,-181.5 1031.5,-181.5 1031.5,-200.5"/>
<text text-anchor="middle" x="999" y="-188.5" font-family="Helvetica,sans-Serif" font-size="10.00">functional</text>
</a>
</g>
</g>
<!-- Node4&#45;&gt;Node9 -->
<g id="edge10_Node000004_Node000009" class="edge">
<title>Node4&#45;&gt;Node9</title>
<g id="a_edge10_Node000004_Node000009"><a xlink:title=" ">
<path fill="none" stroke="#63b8ff" d="M892.18,-241.99C913.01,-232.25 947.37,-216.16 971.48,-204.88"/>
<polygon fill="#63b8ff" stroke="#63b8ff" points="973.23,-207.93 980.8,-200.52 970.26,-201.59 973.23,-207.93"/>
</a>
</g>
</g>
<!-- Node10 -->
<g id="Node000010" class="node">
<title>Node10</title>
<g id="a_Node000010"><a xlink:title=" ">
<polygon fill="#e0e0e0" stroke="#999999" points="807,-19 753,-19 753,0 807,0 807,-19"/>
<text text-anchor="middle" x="780" y="-7" font-family="Helvetica,sans-Serif" font-size="10.00">random</text>
</a>
</g>
</g>
<!-- Node4&#45;&gt;Node10 -->
<g id="edge11_Node000004_Node000010" class="edge">
<title>Node4&#45;&gt;Node10</title>
<g id="a_edge11_Node000004_Node000010"><a xlink:title=" ">
<path fill="none" stroke="#63b8ff" d="M876.88,-241.6C881.02,-227.43 887.47,-199.01 881,-176 864,-115.5 818.08,-55.23 794.46,-27.02"/>
<polygon fill="#63b8ff" stroke="#63b8ff" points="797.06,-24.67 787.91,-19.33 791.73,-29.21 797.06,-24.67"/>
</a>
</g>
</g>
<!-- Node11 -->
<g id="Node000011" class="node">
<title>Node11</title>
<g id="a_Node000011"><a xlink:title=" ">
<polygon fill="#e0e0e0" stroke="#999999" points="1108.5,-200.5 1049.5,-200.5 1049.5,-181.5 1108.5,-181.5 1108.5,-200.5"/>
<text text-anchor="middle" x="1079" y="-188.5" font-family="Helvetica,sans-Serif" font-size="10.00">numbers</text>
</a>
</g>
</g>
<!-- Node4&#45;&gt;Node11 -->
<g id="edge12_Node000004_Node000011" class="edge">
<title>Node4&#45;&gt;Node11</title>
<g id="a_edge12_Node000004_Node000011"><a xlink:title=" ">
<path fill="none" stroke="#63b8ff" d="M909.79,-241.98C943.79,-233.65 996.23,-220.18 1041,-206 1042.91,-205.4 1044.87,-204.75 1046.83,-204.08"/>
<polygon fill="#63b8ff" stroke="#63b8ff" points="1048.35,-207.26 1056.61,-200.64 1046.02,-200.66 1048.35,-207.26"/>
</a>
</g>
</g>
<!-- Node12 -->
<g id="Node000012" class="node">
<title>Node12</title>
<g id="a_Node000012"><a xlink:title=" ">
<polygon fill="#e0e0e0" stroke="#999999" points="1054.5,-19 999.5,-19 999.5,0 1054.5,0 1054.5,-19"/>
<text text-anchor="middle" x="1027" y="-7" font-family="Helvetica,sans-Serif" font-size="10.00">fstream</text>
</a>
</g>
</g>
<!-- Node4&#45;&gt;Node12 -->
<g id="edge13_Node000004_Node000012" class="edge">
<title>Node4&#45;&gt;Node12</title>
<g id="a_edge13_Node000004_Node000012"><a xlink:title=" ">
<path fill="none" stroke="#63b8ff" d="M913.25,-249.22C975.48,-246.28 1092.38,-236.71 1118,-206 1165.93,-148.53 1083.54,-61.62 1045.11,-26.28"/>
<polygon fill="#63b8ff" stroke="#63b8ff" points="1047,-23.27 1037.22,-19.18 1042.31,-28.47 1047,-23.27"/>
</a>
</g>
</g>
<!-- Node13&#45;&gt;Node2 -->
<g id="edge46_Node000013_Node000002" class="edge">
<title>Node13&#45;&gt;Node2</title>
<g id="a_edge46_Node000013_Node000002"><a xlink:title=" ">
<path fill="none" stroke="#63b8ff" d="M246.12,-296.61C235.39,-283.23 213.43,-257.81 190,-242 186.07,-239.35 135.3,-218.34 101.36,-204.41"/>
<polygon fill="#63b8ff" stroke="#63b8ff" points="102.44,-201.07 91.86,-200.52 99.78,-207.55 102.44,-201.07"/>
</a>
</g>
</g>
<!-- Node14 -->
<g id="Node000014" class="node">
<title>Node14</title>
<g id="a_Node000014"><a xlink:href="element_8h.html" target="_top" xlink:title=" ">
<polygon fill="white" stroke="#666666" points="432,-261 366,-261 366,-242 432,-242 432,-261"/>
<text text-anchor="middle" x="399" y="-249" font-family="Helvetica,sans-Serif" font-size="10.00">element.h</text>
</a>
</g>
</g>
<!-- Node13&#45;&gt;Node14 -->
<g id="edge15_Node000013_Node000014" class="edge">
<title>Node13&#45;&gt;Node14</title>
<g id="a_edge15_Node000013_Node000014"><a xlink:title=" ">
<path fill="none" stroke="#63b8ff" d="M276.46,-296.98C300.58,-288.23 338.37,-274.51 365.6,-264.62"/>
<polygon fill="#63b8ff" stroke="#63b8ff" points="366.91,-267.87 375.12,-261.17 364.52,-261.29 366.91,-267.87"/>
</a>
</g>
</g>
<!-- Node14&#45;&gt;Node5 -->
<g id="edge16_Node000014_Node000005" class="edge">
<title>Node14&#45;&gt;Node5</title>
<g id="a_edge16_Node000014_Node000005"><a xlink:title=" ">
<path fill="none" stroke="#63b8ff" d="M432.27,-249.06C477.2,-245.97 558.8,-236.3 621,-206 633.38,-199.97 780.57,-70.78 831.66,-25.79"/>
<polygon fill="#63b8ff" stroke="#63b8ff" points="834.07,-28.33 839.26,-19.09 829.45,-23.08 834.07,-28.33"/>
</a>
</g>
</g>
<!-- Node14&#45;&gt;Node7 -->
<g id="edge21_Node000014_Node000007" class="edge">
<title>Node14&#45;&gt;Node7</title>
<g id="a_edge21_Node000014_Node000007"><a xlink:title=" ">
<path fill="none" stroke="#63b8ff" d="M432.27,-246.02C481.21,-239.14 575.31,-224.76 654,-206 657.35,-205.2 660.81,-204.3 664.27,-203.34"/>
<polygon fill="#63b8ff" stroke="#63b8ff" points="665.25,-206.7 673.88,-200.56 663.3,-199.98 665.25,-206.7"/>
</a>
</g>
</g>
<!-- Node14&#45;&gt;Node8 -->
<g id="edge22_Node000014_Node000008" class="edge">
<title>Node14&#45;&gt;Node8</title>
<g id="a_edge22_Node000014_Node000008"><a xlink:title=" ">
<path fill="none" stroke="#63b8ff" d="M432.01,-248.76C493.58,-244.95 629.78,-233.87 741,-206 743.45,-205.39 745.96,-204.66 748.46,-203.87"/>
<polygon fill="#63b8ff" stroke="#63b8ff" points="749.63,-207.17 757.92,-200.57 747.32,-200.56 749.63,-207.17"/>
</a>
</g>
</g>
<!-- Node15 -->
<g id="Node000015" class="node">
<title>Node15</title>
<g id="a_Node000015"><a xlink:title=" ">
<polygon fill="#e0e0e0" stroke="#999999" points="218,-19 174,-19 174,0 218,0 218,-19"/>
<text text-anchor="middle" x="196" y="-7" font-family="Helvetica,sans-Serif" font-size="10.00">string</text>
</a>
</g>
</g>
<!-- Node14&#45;&gt;Node15 -->
<g id="edge17_Node000014_Node000015" class="edge">
<title>Node14&#45;&gt;Node15</title>
<g id="a_edge17_Node000014_Node000015"><a xlink:title=" ">
<path fill="none" stroke="#63b8ff" d="M365.88,-248.8C310.14,-245.18 201.37,-234.54 178,-206 135.37,-153.93 169.2,-65.89 186.91,-28.34"/>
<polygon fill="#63b8ff" stroke="#63b8ff" points="190.15,-29.68 191.4,-19.15 183.87,-26.6 190.15,-29.68"/>
</a>
</g>
</g>
<!-- Node16 -->
<g id="Node000016" class="node">
<title>Node16</title>
<g id="a_Node000016"><a xlink:title=" ">
<polygon fill="#e0e0e0" stroke="#999999" points="279.5,-200.5 186.5,-200.5 186.5,-181.5 279.5,-181.5 279.5,-200.5"/>
<text text-anchor="middle" x="233" y="-188.5" font-family="Helvetica,sans-Serif" font-size="10.00">unordered_map</text>
</a>
</g>
</g>
<!-- Node14&#45;&gt;Node16 -->
<g id="edge18_Node000014_Node000016" class="edge">
<title>Node14&#45;&gt;Node16</title>
<g id="a_edge18_Node000014_Node000016"><a xlink:title=" ">
<path fill="none" stroke="#63b8ff" d="M374.86,-241.99C346.46,-231.99 299.12,-215.3 267.01,-203.99"/>
<polygon fill="#63b8ff" stroke="#63b8ff" points="267.76,-200.54 257.17,-200.52 265.44,-207.14 267.76,-200.54"/>
</a>
</g>
</g>
<!-- Node17 -->
<g id="Node000017" class="node">
<title>Node17</title>
<g id="a_Node000017"><a xlink:title=" ">
<polygon fill="#e0e0e0" stroke="#999999" points="356,-200.5 298,-200.5 298,-181.5 356,-181.5 356,-200.5"/>
<text text-anchor="middle" x="327" y="-188.5" font-family="Helvetica,sans-Serif" font-size="10.00">memory</text>
</a>
</g>
</g>
<!-- Node14&#45;&gt;Node17 -->
<g id="edge19_Node000014_Node000017" class="edge">
<title>Node14&#45;&gt;Node17</title>
<g id="a_edge19_Node000014_Node000017"><a xlink:title=" ">
<path fill="none" stroke="#63b8ff" d="M388.38,-241.87C377.1,-232.71 359.08,-218.06 345.47,-207.01"/>
<polygon fill="#63b8ff" stroke="#63b8ff" points="347.64,-204.26 337.67,-200.67 343.22,-209.69 347.64,-204.26"/>
</a>
</g>
</g>
<!-- Node18 -->
<g id="Node000018" class="node">
<title>Node18</title>
<g id="a_Node000018"><a xlink:title=" ">
<polygon fill="#e0e0e0" stroke="#999999" points="424,-200.5 374,-200.5 374,-181.5 424,-181.5 424,-200.5"/>
<text text-anchor="middle" x="399" y="-188.5" font-family="Helvetica,sans-Serif" font-size="10.00">ranges</text>
</a>
</g>
</g>
<!-- Node14&#45;&gt;Node18 -->
<g id="edge20_Node000014_Node000018" class="edge">
<title>Node14&#45;&gt;Node18</title>
<g id="a_edge20_Node000014_Node000018"><a xlink:title=" ">
<path fill="none" stroke="#63b8ff" d="M399,-241.87C399,-233.75 399,-221.31 399,-210.89"/>
<polygon fill="#63b8ff" stroke="#63b8ff" points="402.5,-210.67 399,-200.67 395.5,-210.67 402.5,-210.67"/>
</a>
</g>
</g>
<!-- Node19 -->
<g id="Node000019" class="node">
<title>Node19</title>
<g id="a_Node000019"><a xlink:href="exception_8h.html" target="_top" xlink:title=" ">
<polygon fill="white" stroke="#666666" points="130,-79.5 0,-79.5 0,-60.5 130,-60.5 130,-79.5"/>
<text text-anchor="middle" x="65" y="-67.5" font-family="Helvetica,sans-Serif" font-size="10.00">exceptions/exception.h</text>
</a>
</g>
</g>
<!-- Node14&#45;&gt;Node19 -->
<g id="edge23_Node000014_Node000019" class="edge">
<title>Node14&#45;&gt;Node19</title>
<g id="a_edge23_Node000014_Node000019"><a xlink:title=" ">
<path fill="none" stroke="#63b8ff" d="M365.8,-248.16C305.15,-243.34 179.43,-230.61 144,-206 102.67,-177.29 79.78,-119.4 70.29,-89.62"/>
<polygon fill="#63b8ff" stroke="#63b8ff" points="73.54,-88.27 67.3,-79.71 66.83,-90.29 73.54,-88.27"/>
</a>
</g>
</g>
<!-- Node21 -->
<g id="Node000021" class="node">
<title>Node21</title>
<g id="a_Node000021"><a xlink:href="logger_8h.html" target="_top" xlink:title=" ">
<polygon fill="white" stroke="#666666" points="483.5,-140 400.5,-140 400.5,-121 483.5,-121 483.5,-140"/>
<text text-anchor="middle" x="442" y="-128" font-family="Helvetica,sans-Serif" font-size="10.00">tools/logger.h</text>
</a>
</g>
</g>
<!-- Node14&#45;&gt;Node21 -->
<g id="edge26_Node000014_Node000021" class="edge">
<title>Node14&#45;&gt;Node21</title>
<g id="a_edge26_Node000014_Node000021"><a xlink:title=" ">
<path fill="none" stroke="#63b8ff" d="M407.89,-241.87C415.91,-233.5 427.29,-220.05 433,-206 440.28,-188.11 442.14,-165.96 442.43,-150.49"/>
<polygon fill="#63b8ff" stroke="#63b8ff" points="445.93,-150.12 442.4,-140.13 438.93,-150.14 445.93,-150.12"/>
</a>
</g>
</g>
<!-- Node29 -->
<g id="Node000029" class="node">
<title>Node29</title>
<g id="a_Node000029"><a xlink:href="element__parameters_8h.html" target="_top" xlink:title=" ">
<polygon fill="white" stroke="#666666" points="611.5,-206 480.5,-206 480.5,-176 611.5,-176 611.5,-206"/>
<text text-anchor="start" x="488.5" y="-194" font-family="Helvetica,sans-Serif" font-size="10.00">element_parameters</text>
<text text-anchor="middle" x="546" y="-183" font-family="Helvetica,sans-Serif" font-size="10.00">/element_parameters.h</text>
</a>
</g>
</g>
<!-- Node14&#45;&gt;Node29 -->
<g id="edge41_Node000014_Node000029" class="edge">
<title>Node14&#45;&gt;Node29</title>
<g id="a_edge41_Node000014_Node000029"><a xlink:title=" ">
<path fill="none" stroke="#63b8ff" d="M420.38,-241.99C441.44,-233.61 474.27,-220.55 501.08,-209.87"/>
<polygon fill="#63b8ff" stroke="#63b8ff" points="502.66,-213.01 510.66,-206.06 500.07,-206.51 502.66,-213.01"/>
</a>
</g>
</g>
<!-- Node19&#45;&gt;Node15 -->
<g id="edge25_Node000019_Node000015" class="edge">
<title>Node19&#45;&gt;Node15</title>
<g id="a_edge25_Node000019_Node000015"><a xlink:title=" ">
<path fill="none" stroke="#63b8ff" d="M84.05,-60.49C105.97,-50.7 142.21,-34.52 167.5,-23.23"/>
<polygon fill="#63b8ff" stroke="#63b8ff" points="169.22,-26.29 176.93,-19.02 166.37,-19.9 169.22,-26.29"/>
</a>
</g>
</g>
<!-- Node20 -->
<g id="Node000020" class="node">
<title>Node20</title>
<g id="a_Node000020"><a xlink:title=" ">
<polygon fill="#e0e0e0" stroke="#999999" points="97.5,-19 32.5,-19 32.5,0 97.5,0 97.5,-19"/>
<text text-anchor="middle" x="65" y="-7" font-family="Helvetica,sans-Serif" font-size="10.00">exception</text>
</a>
</g>
</g>
<!-- Node19&#45;&gt;Node20 -->
<g id="edge24_Node000019_Node000020" class="edge">
<title>Node19&#45;&gt;Node20</title>
<g id="a_edge24_Node000019_Node000020"><a xlink:title=" ">
<path fill="none" stroke="#63b8ff" d="M65,-60.37C65,-52.25 65,-39.81 65,-29.39"/>
<polygon fill="#63b8ff" stroke="#63b8ff" points="68.5,-29.17 65,-19.17 61.5,-29.17 68.5,-29.17"/>
</a>
</g>
</g>
<!-- Node21&#45;&gt;Node15 -->
<g id="edge28_Node000021_Node000015" class="edge">
<title>Node21&#45;&gt;Node15</title>
<g id="a_edge28_Node000021_Node000015"><a xlink:title=" ">
<path fill="none" stroke="#63b8ff" d="M400.06,-126.48C342.22,-121.46 242.15,-109.43 216,-85 200.81,-70.81 196.69,-46.45 195.8,-29.46"/>
<polygon fill="#63b8ff" stroke="#63b8ff" points="199.29,-29.02 195.6,-19.09 192.29,-29.16 199.29,-29.02"/>
</a>
</g>
</g>
<!-- Node21&#45;&gt;Node19 -->
<g id="edge32_Node000021_Node000019" class="edge">
<title>Node21&#45;&gt;Node19</title>
<g id="a_edge32_Node000021_Node000019"><a xlink:title=" ">
<path fill="none" stroke="#63b8ff" d="M400.21,-123.02C334.81,-112.87 207.72,-93.15 130.2,-81.12"/>
<polygon fill="#63b8ff" stroke="#63b8ff" points="130.48,-77.62 120.07,-79.54 129.41,-84.54 130.48,-77.62"/>
</a>
</g>
</g>
<!-- Node22 -->
<g id="Node000022" class="node">
<title>Node22</title>
<g id="a_Node000022"><a xlink:title=" ">
<polygon fill="#e0e0e0" stroke="#999999" points="410,-79.5 350,-79.5 350,-60.5 410,-60.5 410,-79.5"/>
<text text-anchor="middle" x="380" y="-67.5" font-family="Helvetica,sans-Serif" font-size="10.00">iostream</text>
</a>
</g>
</g>
<!-- Node21&#45;&gt;Node22 -->
<g id="edge27_Node000021_Node000022" class="edge">
<title>Node21&#45;&gt;Node22</title>
<g id="a_edge27_Node000021_Node000022"><a xlink:title=" ">
<path fill="none" stroke="#63b8ff" d="M432.85,-120.87C423.33,-111.88 408.2,-97.61 396.57,-86.64"/>
<polygon fill="#63b8ff" stroke="#63b8ff" points="398.86,-83.98 389.19,-79.67 394.06,-89.08 398.86,-83.98"/>
</a>
</g>
</g>
<!-- Node23 -->
<g id="Node000023" class="node">
<title>Node23</title>
<g id="a_Node000023"><a xlink:title=" ">
<polygon fill="#e0e0e0" stroke="#999999" points="575,-19 525,-19 525,0 575,0 575,-19"/>
<text text-anchor="middle" x="550" y="-7" font-family="Helvetica,sans-Serif" font-size="10.00">chrono</text>
</a>
</g>
</g>
<!-- Node21&#45;&gt;Node23 -->
<g id="edge29_Node000021_Node000023" class="edge">
<title>Node21&#45;&gt;Node23</title>
<g id="a_edge29_Node000021_Node000023"><a xlink:title=" ">
<path fill="none" stroke="#63b8ff" d="M453.12,-120.88C463.85,-112.32 480.3,-98.54 493,-85 510.16,-66.7 527.3,-43.45 538.24,-27.83"/>
<polygon fill="#63b8ff" stroke="#63b8ff" points="541.39,-29.43 544.19,-19.21 535.63,-25.45 541.39,-29.43"/>
</a>
</g>
</g>
<!-- Node24 -->
<g id="Node000024" class="node">
<title>Node24</title>
<g id="a_Node000024"><a xlink:title=" ">
<polygon fill="#e0e0e0" stroke="#999999" points="484,-79.5 428,-79.5 428,-60.5 484,-60.5 484,-79.5"/>
<text text-anchor="middle" x="456" y="-67.5" font-family="Helvetica,sans-Serif" font-size="10.00">iomanip</text>
</a>
</g>
</g>
<!-- Node21&#45;&gt;Node24 -->
<g id="edge30_Node000021_Node000024" class="edge">
<title>Node21&#45;&gt;Node24</title>
<g id="a_edge30_Node000021_Node000024"><a xlink:title=" ">
<path fill="none" stroke="#63b8ff" d="M444.07,-120.87C446.03,-112.66 449.05,-100.04 451.56,-89.55"/>
<polygon fill="#63b8ff" stroke="#63b8ff" points="455,-90.21 453.93,-79.67 448.19,-88.58 455,-90.21"/>
</a>
</g>
</g>
<!-- Node25 -->
<g id="Node000025" class="node">
<title>Node25</title>
<g id="a_Node000025"><a xlink:title=" ">
<polygon fill="#e0e0e0" stroke="#999999" points="331.5,-85 224.5,-85 224.5,-55 331.5,-55 331.5,-85"/>
<text text-anchor="start" x="232.5" y="-73" font-family="Helvetica,sans-Serif" font-size="10.00">imgui&#45;platform&#45;kit</text>
<text text-anchor="middle" x="278" y="-62" font-family="Helvetica,sans-Serif" font-size="10.00">/log_window.h</text>
</a>
</g>
</g>
<!-- Node21&#45;&gt;Node25 -->
<g id="edge31_Node000021_Node000025" class="edge">
<title>Node21&#45;&gt;Node25</title>
<g id="a_edge31_Node000021_Node000025"><a xlink:title=" ">
<path fill="none" stroke="#63b8ff" d="M418.15,-120.99C394.34,-112.5 357.06,-99.2 326.93,-88.45"/>
<polygon fill="#63b8ff" stroke="#63b8ff" points="328.02,-85.13 317.43,-85.06 325.67,-91.72 328.02,-85.13"/>
</a>
</g>
</g>
<!-- Node26 -->
<g id="Node000026" class="node">
<title>Node26</title>
<g id="a_Node000026"><a xlink:href="utils_8h.html" target="_top" xlink:title=" ">
<polygon fill="white" stroke="#666666" points="645.5,-79.5 598.5,-79.5 598.5,-60.5 645.5,-60.5 645.5,-79.5"/>
<text text-anchor="middle" x="622" y="-67.5" font-family="Helvetica,sans-Serif" font-size="10.00">utils.h</text>
</a>
</g>
</g>
<!-- Node21&#45;&gt;Node26 -->
<g id="edge33_Node000021_Node000026" class="edge">
<title>Node21&#45;&gt;Node26</title>
<g id="a_edge33_Node000021_Node000026"><a xlink:title=" ">
<path fill="none" stroke="#63b8ff" d="M468.17,-120.99C500.03,-110.64 553.88,-93.14 588.67,-81.83"/>
<polygon fill="#63b8ff" stroke="#63b8ff" points="589.95,-85.1 598.38,-78.68 587.79,-78.44 589.95,-85.1"/>
</a>
</g>
</g>
<!-- Node26&#45;&gt;Node5 -->
<g id="edge35_Node000026_Node000005" class="edge">
<title>Node26&#45;&gt;Node5</title>
<g id="a_edge35_Node000026_Node000005"><a xlink:title=" ">
<path fill="none" stroke="#63b8ff" d="M643.94,-60.38C649.16,-58.48 654.74,-56.57 660,-55 725.26,-35.53 745.18,-35.81 815.45,-19.06"/>
<polygon fill="#63b8ff" stroke="#63b8ff" points="816.33,-22.45 825.23,-16.7 814.68,-15.65 816.33,-22.45"/>
</a>
</g>
</g>
<!-- Node26&#45;&gt;Node10 -->
<g id="edge36_Node000026_Node000010" class="edge">
<title>Node26&#45;&gt;Node10</title>
<g id="a_edge36_Node000026_Node000010"><a xlink:title=" ">
<path fill="none" stroke="#63b8ff" d="M644.97,-60.49C671.89,-50.53 716.67,-33.95 747.23,-22.63"/>
<polygon fill="#63b8ff" stroke="#63b8ff" points="748.84,-25.77 757,-19.02 746.4,-19.21 748.84,-25.77"/>
</a>
</g>
</g>
<!-- Node26&#45;&gt;Node12 -->
<g id="edge38_Node000026_Node000012" class="edge">
<title>Node26&#45;&gt;Node12</title>
<g id="a_edge38_Node000026_Node000012"><a xlink:title=" ">
<path fill="none" stroke="#63b8ff" d="M645.53,-65.6C712.96,-55.86 907.34,-27.78 989.56,-15.91"/>
<polygon fill="#63b8ff" stroke="#63b8ff" points="990.08,-19.37 999.47,-14.48 989.08,-12.44 990.08,-19.37"/>
</a>
</g>
</g>
<!-- Node26&#45;&gt;Node15 -->
<g id="edge34_Node000026_Node000015" class="edge">
<title>Node26&#45;&gt;Node15</title>
<g id="a_edge34_Node000026_Node000015"><a xlink:title=" ">
<path fill="none" stroke="#63b8ff" d="M598.34,-65.48C578.91,-62.6 550.69,-58.46 526,-55 416.86,-39.68 287.27,-22.5 228.21,-14.73"/>
<polygon fill="#63b8ff" stroke="#63b8ff" points="228.4,-11.22 218.02,-13.39 227.48,-18.16 228.4,-11.22"/>
</a>
</g>
</g>
<!-- Node26&#45;&gt;Node23 -->
<g id="edge39_Node000026_Node000023" class="edge">
<title>Node26&#45;&gt;Node23</title>
<g id="a_edge39_Node000026_Node000023"><a xlink:title=" ">
<path fill="none" stroke="#63b8ff" d="M611.38,-60.37C600.1,-51.21 582.08,-36.56 568.47,-25.51"/>
<polygon fill="#63b8ff" stroke="#63b8ff" points="570.64,-22.76 560.67,-19.17 566.22,-28.19 570.64,-22.76"/>
</a>
</g>
</g>
<!-- Node27 -->
<g id="Node000027" class="node">
<title>Node27</title>
<g id="a_Node000027"><a xlink:title=" ">
<polygon fill="#e0e0e0" stroke="#999999" points="649,-19 593,-19 593,0 649,0 649,-19"/>
<text text-anchor="middle" x="621" y="-7" font-family="Helvetica,sans-Serif" font-size="10.00">sstream</text>
</a>
</g>
</g>
<!-- Node26&#45;&gt;Node27 -->
<g id="edge37_Node000026_Node000027" class="edge">
<title>Node26&#45;&gt;Node27</title>
<g id="a_edge37_Node000026_Node000027"><a xlink:title=" ">
<path fill="none" stroke="#63b8ff" d="M621.85,-60.37C621.71,-52.25 621.5,-39.81 621.32,-29.39"/>
<polygon fill="#63b8ff" stroke="#63b8ff" points="624.82,-29.11 621.15,-19.17 617.82,-29.23 624.82,-29.11"/>
</a>
</g>
</g>
<!-- Node28 -->
<g id="Node000028" class="node">
<title>Node28</title>
<g id="a_Node000028"><a xlink:title=" ">
<polygon fill="#e0e0e0" stroke="#999999" points="735,-19 667,-19 667,0 735,0 735,-19"/>
<text text-anchor="middle" x="701" y="-7" font-family="Helvetica,sans-Serif" font-size="10.00">filesystem</text>
</a>
</g>
</g>
<!-- Node26&#45;&gt;Node28 -->
<g id="edge40_Node000026_Node000028" class="edge">
<title>Node26&#45;&gt;Node28</title>
<g id="a_edge40_Node000026_Node000028"><a xlink:title=" ">
<path fill="none" stroke="#63b8ff" d="M633.66,-60.37C646.14,-51.12 666.18,-36.28 681.16,-25.19"/>
<polygon fill="#63b8ff" stroke="#63b8ff" points="683.34,-27.93 689.3,-19.17 679.18,-22.31 683.34,-27.93"/>
</a>
</g>
</g>
<!-- Node29&#45;&gt;Node15 -->
<g id="edge43_Node000029_Node000015" class="edge">
<title>Node29&#45;&gt;Node15</title>
<g id="a_edge43_Node000029_Node000015"><a xlink:title=" ">
<path fill="none" stroke="#63b8ff" d="M541.25,-175.57C530.19,-142.4 502.95,-62.92 493,-55 452.55,-22.77 296.43,-13.77 228.21,-11.35"/>
<polygon fill="#63b8ff" stroke="#63b8ff" points="228.16,-7.85 218.05,-11.02 227.93,-14.84 228.16,-7.85"/>
</a>
</g>
</g>
<!-- Node29&#45;&gt;Node21 -->
<g id="edge45_Node000029_Node000021" class="edge">
<title>Node29&#45;&gt;Node21</title>
<g id="a_edge45_Node000029_Node000021"><a xlink:title=" ">
<path fill="none" stroke="#63b8ff" d="M521.09,-175.99C504.51,-166.66 482.84,-154.47 466.37,-145.21"/>
<polygon fill="#63b8ff" stroke="#63b8ff" points="467.79,-141.99 457.36,-140.14 464.36,-148.09 467.79,-141.99"/>
</a>
</g>
</g>
<!-- Node30 -->
<g id="Node000030" class="node">
<title>Node30</title>
<g id="a_Node000030"><a xlink:title=" ">
<polygon fill="#e0e0e0" stroke="#999999" points="578,-140 540,-140 540,-121 578,-121 578,-140"/>
<text text-anchor="middle" x="559" y="-128" font-family="Helvetica,sans-Serif" font-size="10.00">map</text>
</a>
</g>
</g>
<!-- Node29&#45;&gt;Node30 -->
<g id="edge42_Node000029_Node000030" class="edge">
<title>Node29&#45;&gt;Node30</title>
<g id="a_edge42_Node000029_Node000030"><a xlink:title=" ">
<path fill="none" stroke="#63b8ff" d="M549.15,-175.84C550.86,-168.13 553,-158.49 554.85,-150.17"/>
<polygon fill="#63b8ff" stroke="#63b8ff" points="558.3,-150.79 557.05,-140.27 551.47,-149.27 558.3,-150.79"/>
</a>
</g>
</g>
<!-- Node31 -->
<g id="Node000031" class="node">
<title>Node31</title>
<g id="a_Node000031"><a xlink:title=" ">
<polygon fill="#e0e0e0" stroke="#999999" points="646,-140 596,-140 596,-121 646,-121 646,-140"/>
<text text-anchor="middle" x="621" y="-128" font-family="Helvetica,sans-Serif" font-size="10.00">format</text>
</a>
</g>
</g>
<!-- Node29&#45;&gt;Node31 -->
<g id="edge44_Node000029_Node000031" class="edge">
<title>Node29&#45;&gt;Node31</title>
<g id="a_edge44_Node000029_Node000031"><a xlink:title=" ">
<path fill="none" stroke="#63b8ff" d="M564.16,-175.84C575.49,-167 590.06,-155.63 601.62,-146.62"/>
<polygon fill="#63b8ff" stroke="#63b8ff" points="604.03,-149.18 609.76,-140.27 599.72,-143.66 604.03,-149.18"/>
</a>
</g>
</g>
</g>
</svg>
