<?xml version="1.0" encoding="UTF-8" standalone="no"?>
<!DOCTYPE svg PUBLIC "-//W3C//DTD SVG 1.1//EN"
 "http://www.w3.org/Graphics/SVG/1.1/DTD/svg11.dtd">
<!-- Generated by graphviz version 2.43.0 (0)
 -->
<!-- Title: src/elements/gauss_field_coupling.cpp Pages: 1 -->
<svg width="1297pt" height="401pt"
 viewBox="0.00 0.00 1296.50 401.00" xmlns="http://www.w3.org/2000/svg" xmlns:xlink="http://www.w3.org/1999/xlink">
<g id="graph0" class="graph" transform="scale(1 1) rotate(0) translate(4 397)">
<title>src/elements/gauss_field_coupling.cpp</title>
<!-- Node1 -->
<g id="Node000001" class="node">
<title>Node1</title>
<g id="a_Node000001"><a xlink:title=" ">
<polygon fill="#999999" stroke="#666666" points="934.5,-393 823.5,-393 823.5,-363 934.5,-363 934.5,-393"/>
<text text-anchor="start" x="831.5" y="-381" font-family="Helvetica,sans-Serif" font-size="10.00">src/elements/gauss</text>
<text text-anchor="middle" x="879" y="-370" font-family="Helvetica,sans-Serif" font-size="10.00">_field_coupling.cpp</text>
</a>
</g>
</g>
<!-- Node2 -->
<g id="Node000002" class="node">
<title>Node2</title>
<g id="a_Node000002"><a xlink:href="gauss__field__coupling_8h.html" target="_top" xlink:title=" ">
<polygon fill="white" stroke="#666666" points="939,-327 819,-327 819,-297 939,-297 939,-327"/>
<text text-anchor="start" x="827" y="-315" font-family="Helvetica,sans-Serif" font-size="10.00">elements/gauss_field</text>
<text text-anchor="middle" x="879" y="-304" font-family="Helvetica,sans-Serif" font-size="10.00">_coupling.h</text>
</a>
</g>
</g>
<!-- Node1&#45;&gt;Node2 -->
<g id="edge1_Node000001_Node000002" class="edge">
<title>Node1&#45;&gt;Node2</title>
<g id="a_edge1_Node000001_Node000002"><a xlink:title=" ">
<path fill="none" stroke="#63b8ff" d="M879,-362.8C879,-355.34 879,-345.99 879,-337.41"/>
<polygon fill="#63b8ff" stroke="#63b8ff" points="882.5,-337.16 879,-327.16 875.5,-337.16 882.5,-337.16"/>
</a>
</g>
</g>
<!-- Node3 -->
<g id="Node000003" class="node">
<title>Node3</title>
<g id="a_Node000003"><a xlink:href="element_8h.html" target="_top" xlink:title=" ">
<polygon fill="white" stroke="#666666" points="567,-261 501,-261 501,-242 567,-242 567,-261"/>
<text text-anchor="middle" x="534" y="-249" font-family="Helvetica,sans-Serif" font-size="10.00">element.h</text>
</a>
</g>
</g>
<!-- Node2&#45;&gt;Node3 -->
<g id="edge2_Node000002_Node000003" class="edge">
<title>Node2&#45;&gt;Node3</title>
<g id="a_edge2_Node000002_Node000003"><a xlink:title=" ">
<path fill="none" stroke="#63b8ff" d="M818.91,-300.81C749.92,-289.11 638.46,-270.21 577.41,-259.86"/>
<polygon fill="#63b8ff" stroke="#63b8ff" points="577.78,-256.37 567.33,-258.15 576.61,-263.28 577.78,-256.37"/>
</a>
</g>
</g>
<!-- Node18 -->
<g id="Node000018" class="node">
<title>Node18</title>
<g id="a_Node000018"><a xlink:href="utils_8h.html" target="_top" xlink:title=" ">
<polygon fill="white" stroke="#666666" points="625.5,-79.5 578.5,-79.5 578.5,-60.5 625.5,-60.5 625.5,-79.5"/>
<text text-anchor="middle" x="602" y="-67.5" font-family="Helvetica,sans-Serif" font-size="10.00">utils.h</text>
</a>
</g>
</g>
<!-- Node2&#45;&gt;Node18 -->
<g id="edge44_Node000002_Node000018" class="edge">
<title>Node2&#45;&gt;Node18</title>
<g id="a_edge44_Node000002_Node000018"><a xlink:title=" ">
<path fill="none" stroke="#63b8ff" d="M881.27,-296.63C884.66,-269.86 887.94,-211.84 860,-176 804.42,-104.69 692.43,-81.54 636.05,-74.23"/>
<polygon fill="#63b8ff" stroke="#63b8ff" points="636.22,-70.73 625.88,-73.01 635.39,-77.68 636.22,-70.73"/>
</a>
</g>
</g>
<!-- Node26 -->
<g id="Node000026" class="node">
<title>Node26</title>
<g id="a_Node000026"><a xlink:href="math_8h.html" target="_top" xlink:title=" ">
<polygon fill="white" stroke="#666666" points="1018,-261 940,-261 940,-242 1018,-242 1018,-261"/>
<text text-anchor="middle" x="979" y="-249" font-family="Helvetica,sans-Serif" font-size="10.00">tools/math.h</text>
</a>
</g>
</g>
<!-- Node2&#45;&gt;Node26 -->
<g id="edge33_Node000002_Node000026" class="edge">
<title>Node2&#45;&gt;Node26</title>
<g id="a_edge33_Node000002_Node000026"><a xlink:title=" ">
<path fill="none" stroke="#63b8ff" d="M902.95,-296.99C918.89,-287.66 939.73,-275.47 955.56,-266.21"/>
<polygon fill="#63b8ff" stroke="#63b8ff" points="957.37,-269.21 964.23,-261.14 953.83,-263.17 957.37,-269.21"/>
</a>
</g>
</g>
<!-- Node4 -->
<g id="Node000004" class="node">
<title>Node4</title>
<g id="a_Node000004"><a xlink:title=" ">
<polygon fill="#e0e0e0" stroke="#999999" points="840.5,-19 793.5,-19 793.5,0 840.5,0 840.5,-19"/>
<text text-anchor="middle" x="817" y="-7" font-family="Helvetica,sans-Serif" font-size="10.00">vector</text>
</a>
</g>
</g>
<!-- Node3&#45;&gt;Node4 -->
<g id="edge3_Node000003_Node000004" class="edge">
<title>Node3&#45;&gt;Node4</title>
<g id="a_edge3_Node000003_Node000004"><a xlink:title=" ">
<path fill="none" stroke="#63b8ff" d="M545.03,-241.73C556.19,-232.82 573.9,-218.58 589,-206 668.34,-139.91 761.36,-59.09 799.42,-25.87"/>
<polygon fill="#63b8ff" stroke="#63b8ff" points="801.86,-28.39 807.09,-19.18 797.25,-23.12 801.86,-28.39"/>
</a>
</g>
</g>
<!-- Node5 -->
<g id="Node000005" class="node">
<title>Node5</title>
<g id="a_Node000005"><a xlink:title=" ">
<polygon fill="#e0e0e0" stroke="#999999" points="344,-19 300,-19 300,0 344,0 344,-19"/>
<text text-anchor="middle" x="322" y="-7" font-family="Helvetica,sans-Serif" font-size="10.00">string</text>
</a>
</g>
</g>
<!-- Node3&#45;&gt;Node5 -->
<g id="edge4_Node000003_Node000005" class="edge">
<title>Node3&#45;&gt;Node5</title>
<g id="a_edge4_Node000003_Node000005"><a xlink:title=" ">
<path fill="none" stroke="#63b8ff" d="M500.8,-248.23C423.77,-240.86 235.06,-210.19 177,-85 171.39,-72.9 169.07,-65.72 177,-55 202.7,-20.22 255.1,-11.75 289.37,-10.15"/>
<polygon fill="#63b8ff" stroke="#63b8ff" points="289.9,-13.63 299.8,-9.84 289.7,-6.64 289.9,-13.63"/>
</a>
</g>
</g>
<!-- Node6 -->
<g id="Node000006" class="node">
<title>Node6</title>
<g id="a_Node000006"><a xlink:title=" ">
<polygon fill="#e0e0e0" stroke="#999999" points="580.5,-200.5 487.5,-200.5 487.5,-181.5 580.5,-181.5 580.5,-200.5"/>
<text text-anchor="middle" x="534" y="-188.5" font-family="Helvetica,sans-Serif" font-size="10.00">unordered_map</text>
</a>
</g>
</g>
<!-- Node3&#45;&gt;Node6 -->
<g id="edge5_Node000003_Node000006" class="edge">
<title>Node3&#45;&gt;Node6</title>
<g id="a_edge5_Node000003_Node000006"><a xlink:title=" ">
<path fill="none" stroke="#63b8ff" d="M534,-241.87C534,-233.75 534,-221.31 534,-210.89"/>
<polygon fill="#63b8ff" stroke="#63b8ff" points="537.5,-210.67 534,-200.67 530.5,-210.67 537.5,-210.67"/>
</a>
</g>
</g>
<!-- Node7 -->
<g id="Node000007" class="node">
<title>Node7</title>
<g id="a_Node000007"><a xlink:title=" ">
<polygon fill="#e0e0e0" stroke="#999999" points="695,-200.5 637,-200.5 637,-181.5 695,-181.5 695,-200.5"/>
<text text-anchor="middle" x="666" y="-188.5" font-family="Helvetica,sans-Serif" font-size="10.00">memory</text>
</a>
</g>
</g>
<!-- Node3&#45;&gt;Node7 -->
<g id="edge6_Node000003_Node000007" class="edge">
<title>Node3&#45;&gt;Node7</title>
<g id="a_edge6_Node000003_Node000007"><a xlink:title=" ">
<path fill="none" stroke="#63b8ff" d="M553.19,-241.99C575.39,-232.16 612.12,-215.88 637.62,-204.58"/>
<polygon fill="#63b8ff" stroke="#63b8ff" points="639.06,-207.77 646.78,-200.52 636.22,-201.37 639.06,-207.77"/>
</a>
</g>
</g>
<!-- Node8 -->
<g id="Node000008" class="node">
<title>Node8</title>
<g id="a_Node000008"><a xlink:title=" ">
<polygon fill="#e0e0e0" stroke="#999999" points="92,-200.5 42,-200.5 42,-181.5 92,-181.5 92,-200.5"/>
<text text-anchor="middle" x="67" y="-188.5" font-family="Helvetica,sans-Serif" font-size="10.00">ranges</text>
</a>
</g>
</g>
<!-- Node3&#45;&gt;Node8 -->
<g id="edge7_Node000003_Node000008" class="edge">
<title>Node3&#45;&gt;Node8</title>
<g id="a_edge7_Node000003_Node000008"><a xlink:title=" ">
<path fill="none" stroke="#63b8ff" d="M500.81,-249.76C428.28,-247.56 250.58,-238.96 106,-206 103.17,-205.36 100.27,-204.57 97.38,-203.7"/>
<polygon fill="#63b8ff" stroke="#63b8ff" points="98.37,-200.33 87.77,-200.5 96.16,-206.98 98.37,-200.33"/>
</a>
</g>
</g>
<!-- Node9 -->
<g id="Node000009" class="node">
<title>Node9</title>
<g id="a_Node000009"><a xlink:title=" ">
<polygon fill="#e0e0e0" stroke="#999999" points="851,-200.5 787,-200.5 787,-181.5 851,-181.5 851,-200.5"/>
<text text-anchor="middle" x="819" y="-188.5" font-family="Helvetica,sans-Serif" font-size="10.00">algorithm</text>
</a>
</g>
</g>
<!-- Node3&#45;&gt;Node9 -->
<g id="edge8_Node000003_Node000009" class="edge">
<title>Node3&#45;&gt;Node9</title>
<g id="a_edge8_Node000003_Node000009"><a xlink:title=" ">
<path fill="none" stroke="#63b8ff" d="M567.1,-246.06C614.34,-239.36 703.62,-225.37 778,-206 780.64,-205.31 783.35,-204.54 786.07,-203.72"/>
<polygon fill="#63b8ff" stroke="#63b8ff" points="787.32,-206.99 795.77,-200.6 785.17,-200.33 787.32,-206.99"/>
</a>
</g>
</g>
<!-- Node10 -->
<g id="Node000010" class="node">
<title>Node10</title>
<g id="a_Node000010"><a xlink:title=" ">
<polygon fill="#e0e0e0" stroke="#999999" points="769,-200.5 713,-200.5 713,-181.5 769,-181.5 769,-200.5"/>
<text text-anchor="middle" x="741" y="-188.5" font-family="Helvetica,sans-Serif" font-size="10.00">numeric</text>
</a>
</g>
</g>
<!-- Node3&#45;&gt;Node10 -->
<g id="edge9_Node000003_Node000010" class="edge">
<title>Node3&#45;&gt;Node10</title>
<g id="a_edge9_Node000003_Node000010"><a xlink:title=" ">
<path fill="none" stroke="#63b8ff" d="M567.2,-242.91C601.69,-234.77 657.06,-220.98 704,-206 705.91,-205.39 707.87,-204.74 709.84,-204.06"/>
<polygon fill="#63b8ff" stroke="#63b8ff" points="711.39,-207.22 719.61,-200.53 709.02,-200.63 711.39,-207.22"/>
</a>
</g>
</g>
<!-- Node11 -->
<g id="Node000011" class="node">
<title>Node11</title>
<g id="a_Node000011"><a xlink:href="exception_8h.html" target="_top" xlink:title=" ">
<polygon fill="white" stroke="#666666" points="130,-79.5 0,-79.5 0,-60.5 130,-60.5 130,-79.5"/>
<text text-anchor="middle" x="65" y="-67.5" font-family="Helvetica,sans-Serif" font-size="10.00">exceptions/exception.h</text>
</a>
</g>
</g>
<!-- Node3&#45;&gt;Node11 -->
<g id="edge10_Node000003_Node000011" class="edge">
<title>Node3&#45;&gt;Node11</title>
<g id="a_edge10_Node000003_Node000011"><a xlink:title=" ">
<path fill="none" stroke="#63b8ff" d="M500.7,-250.45C417.41,-249.73 202.52,-244.13 144,-206 101.65,-178.41 79.12,-119.57 69.98,-89.51"/>
<polygon fill="#63b8ff" stroke="#63b8ff" points="73.33,-88.49 67.2,-79.85 66.6,-90.42 73.33,-88.49"/>
</a>
</g>
</g>
<!-- Node13 -->
<g id="Node000013" class="node">
<title>Node13</title>
<g id="a_Node000013"><a xlink:href="logger_8h.html" target="_top" xlink:title=" ">
<polygon fill="white" stroke="#666666" points="401.5,-140 318.5,-140 318.5,-121 401.5,-121 401.5,-140"/>
<text text-anchor="middle" x="360" y="-128" font-family="Helvetica,sans-Serif" font-size="10.00">tools/logger.h</text>
</a>
</g>
</g>
<!-- Node3&#45;&gt;Node13 -->
<g id="edge13_Node000003_Node000013" class="edge">
<title>Node3&#45;&gt;Node13</title>
<g id="a_edge13_Node000003_Node000013"><a xlink:title=" ">
<path fill="none" stroke="#63b8ff" d="M500.75,-248.22C448.31,-243.85 350.2,-232.3 329,-206 314.92,-188.54 330.58,-163.78 344.28,-147.68"/>
<polygon fill="#63b8ff" stroke="#63b8ff" points="346.99,-149.9 351.1,-140.14 341.8,-145.21 346.99,-149.9"/>
</a>
</g>
</g>
<!-- Node23 -->
<g id="Node000023" class="node">
<title>Node23</title>
<g id="a_Node000023"><a xlink:href="element__parameters_8h.html" target="_top" xlink:title=" ">
<polygon fill="white" stroke="#666666" points="469.5,-206 338.5,-206 338.5,-176 469.5,-176 469.5,-206"/>
<text text-anchor="start" x="346.5" y="-194" font-family="Helvetica,sans-Serif" font-size="10.00">element_parameters</text>
<text text-anchor="middle" x="404" y="-183" font-family="Helvetica,sans-Serif" font-size="10.00">/element_parameters.h</text>
</a>
</g>
</g>
<!-- Node3&#45;&gt;Node23 -->
<g id="edge28_Node000003_Node000023" class="edge">
<title>Node3&#45;&gt;Node23</title>
<g id="a_edge28_Node000003_Node000023"><a xlink:title=" ">
<path fill="none" stroke="#63b8ff" d="M515.1,-241.99C496.71,-233.72 468.2,-220.89 444.66,-210.3"/>
<polygon fill="#63b8ff" stroke="#63b8ff" points="445.81,-206.98 435.25,-206.06 442.94,-213.36 445.81,-206.98"/>
</a>
</g>
</g>
<!-- Node11&#45;&gt;Node5 -->
<g id="edge12_Node000011_Node000005" class="edge">
<title>Node11&#45;&gt;Node5</title>
<g id="a_edge12_Node000011_Node000005"><a xlink:title=" ">
<path fill="none" stroke="#63b8ff" d="M102.37,-60.49C152.95,-48.98 242.35,-28.63 290,-17.78"/>
<polygon fill="#63b8ff" stroke="#63b8ff" points="290.81,-21.19 299.78,-15.56 289.25,-14.36 290.81,-21.19"/>
</a>
</g>
</g>
<!-- Node12 -->
<g id="Node000012" class="node">
<title>Node12</title>
<g id="a_Node000012"><a xlink:title=" ">
<polygon fill="#e0e0e0" stroke="#999999" points="97.5,-19 32.5,-19 32.5,0 97.5,0 97.5,-19"/>
<text text-anchor="middle" x="65" y="-7" font-family="Helvetica,sans-Serif" font-size="10.00">exception</text>
</a>
</g>
</g>
<!-- Node11&#45;&gt;Node12 -->
<g id="edge11_Node000011_Node000012" class="edge">
<title>Node11&#45;&gt;Node12</title>
<g id="a_edge11_Node000011_Node000012"><a xlink:title=" ">
<path fill="none" stroke="#63b8ff" d="M65,-60.37C65,-52.25 65,-39.81 65,-29.39"/>
<polygon fill="#63b8ff" stroke="#63b8ff" points="68.5,-29.17 65,-19.17 61.5,-29.17 68.5,-29.17"/>
</a>
</g>
</g>
<!-- Node13&#45;&gt;Node5 -->
<g id="edge15_Node000013_Node000005" class="edge">
<title>Node13&#45;&gt;Node5</title>
<g id="a_edge15_Node000013_Node000005"><a xlink:title=" ">
<path fill="none" stroke="#63b8ff" d="M357.27,-120.94C351.16,-101.82 336.3,-55.27 327.95,-29.12"/>
<polygon fill="#63b8ff" stroke="#63b8ff" points="331.19,-27.76 324.81,-19.3 324.52,-29.89 331.19,-27.76"/>
</a>
</g>
</g>
<!-- Node13&#45;&gt;Node11 -->
<g id="edge19_Node000013_Node000011" class="edge">
<title>Node13&#45;&gt;Node11</title>
<g id="a_edge19_Node000013_Node000011"><a xlink:title=" ">
<path fill="none" stroke="#63b8ff" d="M318.36,-121.24C265.77,-110.81 175.24,-92.86 117.83,-81.48"/>
<polygon fill="#63b8ff" stroke="#63b8ff" points="118.35,-78.01 107.86,-79.5 116.99,-84.88 118.35,-78.01"/>
</a>
</g>
</g>
<!-- Node14 -->
<g id="Node000014" class="node">
<title>Node14</title>
<g id="a_Node000014"><a xlink:title=" ">
<polygon fill="#e0e0e0" stroke="#999999" points="448,-79.5 388,-79.5 388,-60.5 448,-60.5 448,-79.5"/>
<text text-anchor="middle" x="418" y="-67.5" font-family="Helvetica,sans-Serif" font-size="10.00">iostream</text>
</a>
</g>
</g>
<!-- Node13&#45;&gt;Node14 -->
<g id="edge14_Node000013_Node000014" class="edge">
<title>Node13&#45;&gt;Node14</title>
<g id="a_edge14_Node000013_Node000014"><a xlink:title=" ">
<path fill="none" stroke="#63b8ff" d="M368.56,-120.87C377.38,-111.97 391.34,-97.89 402.18,-86.95"/>
<polygon fill="#63b8ff" stroke="#63b8ff" points="404.85,-89.23 409.41,-79.67 399.88,-84.3 404.85,-89.23"/>
</a>
</g>
</g>
<!-- Node15 -->
<g id="Node000015" class="node">
<title>Node15</title>
<g id="a_Node000015"><a xlink:title=" ">
<polygon fill="#e0e0e0" stroke="#999999" points="441,-19 391,-19 391,0 441,0 441,-19"/>
<text text-anchor="middle" x="416" y="-7" font-family="Helvetica,sans-Serif" font-size="10.00">chrono</text>
</a>
</g>
</g>
<!-- Node13&#45;&gt;Node15 -->
<g id="edge16_Node000013_Node000015" class="edge">
<title>Node13&#45;&gt;Node15</title>
<g id="a_edge16_Node000013_Node000015"><a xlink:title=" ">
<path fill="none" stroke="#63b8ff" d="M360.95,-120.8C362.8,-106.42 367.72,-77.12 379,-55 384.29,-44.64 392.36,-34.55 399.62,-26.6"/>
<polygon fill="#63b8ff" stroke="#63b8ff" points="402.34,-28.82 406.73,-19.17 397.29,-23.97 402.34,-28.82"/>
</a>
</g>
</g>
<!-- Node16 -->
<g id="Node000016" class="node">
<title>Node16</title>
<g id="a_Node000016"><a xlink:title=" ">
<polygon fill="#e0e0e0" stroke="#999999" points="522,-79.5 466,-79.5 466,-60.5 522,-60.5 522,-79.5"/>
<text text-anchor="middle" x="494" y="-67.5" font-family="Helvetica,sans-Serif" font-size="10.00">iomanip</text>
</a>
</g>
</g>
<!-- Node13&#45;&gt;Node16 -->
<g id="edge17_Node000013_Node000016" class="edge">
<title>Node13&#45;&gt;Node16</title>
<g id="a_edge17_Node000013_Node000016"><a xlink:title=" ">
<path fill="none" stroke="#63b8ff" d="M379.48,-120.99C402.01,-111.16 439.31,-94.88 465.19,-83.58"/>
<polygon fill="#63b8ff" stroke="#63b8ff" points="466.73,-86.73 474.49,-79.52 463.93,-80.31 466.73,-86.73"/>
</a>
</g>
</g>
<!-- Node17 -->
<g id="Node000017" class="node">
<title>Node17</title>
<g id="a_Node000017"><a xlink:title=" ">
<polygon fill="#e0e0e0" stroke="#999999" points="293.5,-85 186.5,-85 186.5,-55 293.5,-55 293.5,-85"/>
<text text-anchor="start" x="194.5" y="-73" font-family="Helvetica,sans-Serif" font-size="10.00">imgui&#45;platform&#45;kit</text>
<text text-anchor="middle" x="240" y="-62" font-family="Helvetica,sans-Serif" font-size="10.00">/log_window.h</text>
</a>
</g>
</g>
<!-- Node13&#45;&gt;Node17 -->
<g id="edge18_Node000013_Node000017" class="edge">
<title>Node13&#45;&gt;Node17</title>
<g id="a_edge18_Node000013_Node000017"><a xlink:title=" ">
<path fill="none" stroke="#63b8ff" d="M342.55,-120.99C325.79,-112.82 299.9,-100.2 278.33,-89.69"/>
<polygon fill="#63b8ff" stroke="#63b8ff" points="279.6,-86.41 269.08,-85.18 276.54,-92.71 279.6,-86.41"/>
</a>
</g>
</g>
<!-- Node13&#45;&gt;Node18 -->
<g id="edge20_Node000013_Node000018" class="edge">
<title>Node13&#45;&gt;Node18</title>
<g id="a_edge20_Node000013_Node000018"><a xlink:title=" ">
<path fill="none" stroke="#63b8ff" d="M395.19,-120.99C441.65,-109.76 522.88,-90.13 568.48,-79.1"/>
<polygon fill="#63b8ff" stroke="#63b8ff" points="569.56,-82.44 578.46,-76.69 567.91,-75.64 569.56,-82.44"/>
</a>
</g>
</g>
<!-- Node18&#45;&gt;Node4 -->
<g id="edge22_Node000018_Node000004" class="edge">
<title>Node18&#45;&gt;Node4</title>
<g id="a_edge22_Node000018_Node000004"><a xlink:title=" ">
<path fill="none" stroke="#63b8ff" d="M623.97,-60.45C629.18,-58.55 634.76,-56.62 640,-55 700.09,-36.48 718.36,-35.3 783.28,-19.14"/>
<polygon fill="#63b8ff" stroke="#63b8ff" points="784.37,-22.48 793.21,-16.65 782.66,-15.69 784.37,-22.48"/>
</a>
</g>
</g>
<!-- Node18&#45;&gt;Node5 -->
<g id="edge21_Node000018_Node000005" class="edge">
<title>Node18&#45;&gt;Node5</title>
<g id="a_edge21_Node000018_Node000005"><a xlink:title=" ">
<path fill="none" stroke="#63b8ff" d="M580.51,-60.35C575.17,-58.41 569.42,-56.49 564,-55 524.91,-44.29 410.79,-25 354.36,-15.74"/>
<polygon fill="#63b8ff" stroke="#63b8ff" points="354.64,-12.24 344.21,-14.08 353.51,-19.15 354.64,-12.24"/>
</a>
</g>
</g>
<!-- Node18&#45;&gt;Node15 -->
<g id="edge26_Node000018_Node000015" class="edge">
<title>Node18&#45;&gt;Node15</title>
<g id="a_edge26_Node000018_Node000015"><a xlink:title=" ">
<path fill="none" stroke="#63b8ff" d="M579.58,-60.48C574.48,-58.62 569.07,-56.69 564,-55 525.48,-42.13 480.76,-28.92 450.65,-20.27"/>
<polygon fill="#63b8ff" stroke="#63b8ff" points="451.6,-16.9 441.02,-17.52 449.68,-23.63 451.6,-16.9"/>
</a>
</g>
</g>
<!-- Node19 -->
<g id="Node000019" class="node">
<title>Node19</title>
<g id="a_Node000019"><a xlink:title=" ">
<polygon fill="#e0e0e0" stroke="#999999" points="702,-19 648,-19 648,0 702,0 702,-19"/>
<text text-anchor="middle" x="675" y="-7" font-family="Helvetica,sans-Serif" font-size="10.00">random</text>
</a>
</g>
</g>
<!-- Node18&#45;&gt;Node19 -->
<g id="edge23_Node000018_Node000019" class="edge">
<title>Node18&#45;&gt;Node19</title>
<g id="a_edge23_Node000018_Node000019"><a xlink:title=" ">
<path fill="none" stroke="#63b8ff" d="M612.77,-60.37C624.2,-51.21 642.48,-36.56 656.28,-25.51"/>
<polygon fill="#63b8ff" stroke="#63b8ff" points="658.57,-28.15 664.18,-19.17 654.19,-22.69 658.57,-28.15"/>
</a>
</g>
</g>
<!-- Node20 -->
<g id="Node000020" class="node">
<title>Node20</title>
<g id="a_Node000020"><a xlink:title=" ">
<polygon fill="#e0e0e0" stroke="#999999" points="630,-19 574,-19 574,0 630,0 630,-19"/>
<text text-anchor="middle" x="602" y="-7" font-family="Helvetica,sans-Serif" font-size="10.00">sstream</text>
</a>
</g>
</g>
<!-- Node18&#45;&gt;Node20 -->
<g id="edge24_Node000018_Node000020" class="edge">
<title>Node18&#45;&gt;Node20</title>
<g id="a_edge24_Node000018_Node000020"><a xlink:title=" ">
<path fill="none" stroke="#63b8ff" d="M602,-60.37C602,-52.25 602,-39.81 602,-29.39"/>
<polygon fill="#63b8ff" stroke="#63b8ff" points="605.5,-29.17 602,-19.17 598.5,-29.17 605.5,-29.17"/>
</a>
</g>
</g>
<!-- Node21 -->
<g id="Node000021" class="node">
<title>Node21</title>
<g id="a_Node000021"><a xlink:title=" ">
<polygon fill="#e0e0e0" stroke="#999999" points="775.5,-19 720.5,-19 720.5,0 775.5,0 775.5,-19"/>
<text text-anchor="middle" x="748" y="-7" font-family="Helvetica,sans-Serif" font-size="10.00">fstream</text>
</a>
</g>
</g>
<!-- Node18&#45;&gt;Node21 -->
<g id="edge25_Node000018_Node000021" class="edge">
<title>Node18&#45;&gt;Node21</title>
<g id="a_edge25_Node000018_Node000021"><a xlink:title=" ">
<path fill="none" stroke="#63b8ff" d="M623.23,-60.49C647.99,-50.57 689.12,-34.09 717.35,-22.78"/>
<polygon fill="#63b8ff" stroke="#63b8ff" points="718.76,-25.99 726.74,-19.02 716.16,-19.49 718.76,-25.99"/>
</a>
</g>
</g>
<!-- Node22 -->
<g id="Node000022" class="node">
<title>Node22</title>
<g id="a_Node000022"><a xlink:title=" ">
<polygon fill="#e0e0e0" stroke="#999999" points="556,-19 488,-19 488,0 556,0 556,-19"/>
<text text-anchor="middle" x="522" y="-7" font-family="Helvetica,sans-Serif" font-size="10.00">filesystem</text>
</a>
</g>
</g>
<!-- Node18&#45;&gt;Node22 -->
<g id="edge27_Node000018_Node000022" class="edge">
<title>Node18&#45;&gt;Node22</title>
<g id="a_edge27_Node000018_Node000022"><a xlink:title=" ">
<path fill="none" stroke="#63b8ff" d="M590.2,-60.37C577.55,-51.12 557.26,-36.28 542.09,-25.19"/>
<polygon fill="#63b8ff" stroke="#63b8ff" points="543.99,-22.24 533.85,-19.17 539.86,-27.9 543.99,-22.24"/>
</a>
</g>
</g>
<!-- Node23&#45;&gt;Node5 -->
<g id="edge30_Node000023_Node000005" class="edge">
<title>Node23&#45;&gt;Node5</title>
<g id="a_edge30_Node000023_Node000005"><a xlink:title=" ">
<path fill="none" stroke="#63b8ff" d="M432.83,-175.97C463.66,-159.17 510.83,-127.84 531,-85 536.68,-72.94 539.39,-65.36 531,-55 519.9,-41.29 409.88,-23.38 354.09,-15.09"/>
<polygon fill="#63b8ff" stroke="#63b8ff" points="354.42,-11.6 344.02,-13.61 353.41,-18.52 354.42,-11.6"/>
</a>
</g>
</g>
<!-- Node23&#45;&gt;Node13 -->
<g id="edge32_Node000023_Node000013" class="edge">
<title>Node23&#45;&gt;Node13</title>
<g id="a_edge32_Node000023_Node000013"><a xlink:title=" ">
<path fill="none" stroke="#63b8ff" d="M393.35,-175.84C387.16,-167.61 379.31,-157.18 372.79,-148.51"/>
<polygon fill="#63b8ff" stroke="#63b8ff" points="375.4,-146.15 366.59,-140.27 369.81,-150.36 375.4,-146.15"/>
</a>
</g>
</g>
<!-- Node24 -->
<g id="Node000024" class="node">
<title>Node24</title>
<g id="a_Node000024"><a xlink:title=" ">
<polygon fill="#e0e0e0" stroke="#999999" points="558,-140 520,-140 520,-121 558,-121 558,-140"/>
<text text-anchor="middle" x="539" y="-128" font-family="Helvetica,sans-Serif" font-size="10.00">map</text>
</a>
</g>
</g>
<!-- Node23&#45;&gt;Node24 -->
<g id="edge29_Node000023_Node000024" class="edge">
<title>Node23&#45;&gt;Node24</title>
<g id="a_edge29_Node000023_Node000024"><a xlink:title=" ">
<path fill="none" stroke="#63b8ff" d="M436.34,-175.99C458.93,-166.2 488.82,-153.25 510.51,-143.84"/>
<polygon fill="#63b8ff" stroke="#63b8ff" points="512.07,-146.99 519.85,-139.8 509.28,-140.56 512.07,-146.99"/>
</a>
</g>
</g>
<!-- Node25 -->
<g id="Node000025" class="node">
<title>Node25</title>
<g id="a_Node000025"><a xlink:title=" ">
<polygon fill="#e0e0e0" stroke="#999999" points="626,-140 576,-140 576,-121 626,-121 626,-140"/>
<text text-anchor="middle" x="601" y="-128" font-family="Helvetica,sans-Serif" font-size="10.00">format</text>
</a>
</g>
</g>
<!-- Node23&#45;&gt;Node25 -->
<g id="edge31_Node000023_Node000025" class="edge">
<title>Node23&#45;&gt;Node25</title>
<g id="a_edge31_Node000023_Node000025"><a xlink:title=" ">
<path fill="none" stroke="#63b8ff" d="M451.19,-175.99C486.52,-165.5 534.08,-151.37 566.05,-141.88"/>
<polygon fill="#63b8ff" stroke="#63b8ff" points="567.25,-145.17 575.84,-138.97 565.26,-138.46 567.25,-145.17"/>
</a>
</g>
</g>
<!-- Node26&#45;&gt;Node4 -->
<g id="edge34_Node000026_Node000004" class="edge">
<title>Node26&#45;&gt;Node4</title>
<g id="a_edge34_Node000026_Node000004"><a xlink:title=" ">
<path fill="none" stroke="#63b8ff" d="M996.46,-241.88C1009.47,-234.38 1026.28,-222.18 1034,-206 1061.43,-148.53 1001.6,-81.43 969,-55 934.89,-27.34 884.18,-16.87 850.86,-12.91"/>
<polygon fill="#63b8ff" stroke="#63b8ff" points="851,-9.41 840.69,-11.84 850.27,-16.37 851,-9.41"/>
</a>
</g>
</g>
<!-- Node26&#45;&gt;Node9 -->
<g id="edge38_Node000026_Node000009" class="edge">
<title>Node26&#45;&gt;Node9</title>
<g id="a_edge38_Node000026_Node000009"><a xlink:title=" ">
<path fill="none" stroke="#63b8ff" d="M955.73,-241.99C928.36,-231.99 882.73,-215.3 851.78,-203.99"/>
<polygon fill="#63b8ff" stroke="#63b8ff" points="852.89,-200.66 842.29,-200.52 850.48,-207.24 852.89,-200.66"/>
</a>
</g>
</g>
<!-- Node26&#45;&gt;Node10 -->
<g id="edge39_Node000026_Node000010" class="edge">
<title>Node26&#45;&gt;Node10</title>
<g id="a_edge39_Node000026_Node000010"><a xlink:title=" ">
<path fill="none" stroke="#63b8ff" d="M939.67,-243.53C898.83,-235.89 833.31,-222.49 778,-206 775.86,-205.36 773.67,-204.66 771.47,-203.92"/>
<polygon fill="#63b8ff" stroke="#63b8ff" points="772.55,-200.59 761.95,-200.53 770.2,-207.18 772.55,-200.59"/>
</a>
</g>
</g>
<!-- Node26&#45;&gt;Node19 -->
<g id="edge41_Node000026_Node000019" class="edge">
<title>Node26&#45;&gt;Node19</title>
<g id="a_edge41_Node000026_Node000019"><a xlink:title=" ">
<path fill="none" stroke="#63b8ff" d="M968.84,-241.85C944.05,-220.81 878.35,-165.38 822,-121 777.41,-85.88 723.87,-46.26 695.3,-25.31"/>
<polygon fill="#63b8ff" stroke="#63b8ff" points="697.09,-22.28 686.95,-19.2 692.95,-27.93 697.09,-22.28"/>
</a>
</g>
</g>
<!-- Node26&#45;&gt;Node21 -->
<g id="edge43_Node000026_Node000021" class="edge">
<title>Node26&#45;&gt;Node21</title>
<g id="a_edge43_Node000026_Node000021"><a xlink:title=" ">
<path fill="none" stroke="#63b8ff" d="M978.03,-241.6C974.1,-207.02 958.21,-82.15 931,-55 929.69,-53.69 838.44,-31.91 785.3,-19.32"/>
<polygon fill="#63b8ff" stroke="#63b8ff" points="786.08,-15.9 775.54,-17.01 784.46,-22.72 786.08,-15.9"/>
</a>
</g>
</g>
<!-- Node26&#45;&gt;Node26 -->
<g id="edge37_Node000026_Node000026" class="edge">
<title>Node26&#45;&gt;Node26</title>
<g id="a_edge37_Node000026_Node000026"><a xlink:title=" ">
<path fill="none" stroke="#63b8ff" d="M1000.05,-261.03C1017.63,-265.11 1036,-261.93 1036,-251.5 1036,-243.11 1024.1,-239.41 1010.3,-240.41"/>
<polygon fill="#63b8ff" stroke="#63b8ff" points="1009.41,-237 1000.05,-241.97 1010.46,-243.92 1009.41,-237"/>
</a>
</g>
</g>
<!-- Node27 -->
<g id="Node000027" class="node">
<title>Node27</title>
<g id="a_Node000027"><a xlink:title=" ">
<polygon fill="#e0e0e0" stroke="#999999" points="1025,-200.5 983,-200.5 983,-181.5 1025,-181.5 1025,-200.5"/>
<text text-anchor="middle" x="1004" y="-188.5" font-family="Helvetica,sans-Serif" font-size="10.00">array</text>
</a>
</g>
</g>
<!-- Node26&#45;&gt;Node27 -->
<g id="edge35_Node000026_Node000027" class="edge">
<title>Node26&#45;&gt;Node27</title>
<g id="a_edge35_Node000026_Node000027"><a xlink:title=" ">
<path fill="none" stroke="#63b8ff" d="M982.69,-241.87C986.27,-233.49 991.82,-220.51 996.35,-209.89"/>
<polygon fill="#63b8ff" stroke="#63b8ff" points="999.58,-211.24 1000.3,-200.67 993.15,-208.49 999.58,-211.24"/>
</a>
</g>
</g>
<!-- Node28 -->
<g id="Node000028" class="node">
<title>Node28</title>
<g id="a_Node000028"><a xlink:title=" ">
<polygon fill="#e0e0e0" stroke="#999999" points="1128.5,-200.5 1081.5,-200.5 1081.5,-181.5 1128.5,-181.5 1128.5,-200.5"/>
<text text-anchor="middle" x="1105" y="-188.5" font-family="Helvetica,sans-Serif" font-size="10.00">cmath</text>
</a>
</g>
</g>
<!-- Node26&#45;&gt;Node28 -->
<g id="edge36_Node000026_Node000028" class="edge">
<title>Node26&#45;&gt;Node28</title>
<g id="a_edge36_Node000026_Node000028"><a xlink:title=" ">
<path fill="none" stroke="#63b8ff" d="M997.32,-241.99C1018.41,-232.2 1053.26,-216.02 1077.58,-204.73"/>
<polygon fill="#63b8ff" stroke="#63b8ff" points="1079.06,-207.9 1086.66,-200.52 1076.11,-201.55 1079.06,-207.9"/>
</a>
</g>
</g>
<!-- Node29 -->
<g id="Node000029" class="node">
<title>Node29</title>
<g id="a_Node000029"><a xlink:title=" ">
<polygon fill="#e0e0e0" stroke="#999999" points="1211.5,-200.5 1146.5,-200.5 1146.5,-181.5 1211.5,-181.5 1211.5,-200.5"/>
<text text-anchor="middle" x="1179" y="-188.5" font-family="Helvetica,sans-Serif" font-size="10.00">functional</text>
</a>
</g>
</g>
<!-- Node26&#45;&gt;Node29 -->
<g id="edge40_Node000026_Node000029" class="edge">
<title>Node26&#45;&gt;Node29</title>
<g id="a_edge40_Node000026_Node000029"><a xlink:title=" ">
<path fill="none" stroke="#63b8ff" d="M1010.91,-241.99C1042.91,-233.34 1093.55,-219.35 1137,-206 1139.29,-205.3 1141.65,-204.55 1144.03,-203.8"/>
<polygon fill="#63b8ff" stroke="#63b8ff" points="1145.32,-207.06 1153.74,-200.63 1143.15,-200.4 1145.32,-207.06"/>
</a>
</g>
</g>
<!-- Node30 -->
<g id="Node000030" class="node">
<title>Node30</title>
<g id="a_Node000030"><a xlink:title=" ">
<polygon fill="#e0e0e0" stroke="#999999" points="1288.5,-200.5 1229.5,-200.5 1229.5,-181.5 1288.5,-181.5 1288.5,-200.5"/>
<text text-anchor="middle" x="1259" y="-188.5" font-family="Helvetica,sans-Serif" font-size="10.00">numbers</text>
</a>
</g>
</g>
<!-- Node26&#45;&gt;Node30 -->
<g id="edge42_Node000026_Node000030" class="edge">
<title>Node26&#45;&gt;Node30</title>
<g id="a_edge42_Node000026_Node000030"><a xlink:title=" ">
<path fill="none" stroke="#63b8ff" d="M1018.25,-245.25C1066.32,-238.37 1149.96,-224.9 1220,-206 1222.43,-205.34 1224.93,-204.61 1227.42,-203.82"/>
<polygon fill="#63b8ff" stroke="#63b8ff" points="1228.56,-207.13 1236.92,-200.63 1226.33,-200.49 1228.56,-207.13"/>
</a>
</g>
</g>
</g>
</svg>
