<?xml version="1.0" encoding="UTF-8" standalone="no"?>
<!DOCTYPE svg PUBLIC "-//W3C//DTD SVG 1.1//EN"
 "http://www.w3.org/Graphics/SVG/1.1/DTD/svg11.dtd">
<!-- Generated by graphviz version 2.43.0 (0)
 -->
<!-- Title: src/elements/gauss_stimulus.cpp Pages: 1 -->
<svg width="1186pt" height="390pt"
 viewBox="0.00 0.00 1185.50 390.00" xmlns="http://www.w3.org/2000/svg" xmlns:xlink="http://www.w3.org/1999/xlink">
<g id="graph0" class="graph" transform="scale(1 1) rotate(0) translate(4 386)">
<title>src/elements/gauss_stimulus.cpp</title>
<!-- Node1 -->
<g id="Node000001" class="node">
<title>Node1</title>
<g id="a_Node000001"><a xlink:title=" ">
<polygon fill="#999999" stroke="#666666" points="487.5,-382 376.5,-382 376.5,-352 487.5,-352 487.5,-382"/>
<text text-anchor="start" x="384.5" y="-370" font-family="Helvetica,sans-Serif" font-size="10.00">src/elements/gauss</text>
<text text-anchor="middle" x="432" y="-359" font-family="Helvetica,sans-Serif" font-size="10.00">_stimulus.cpp</text>
</a>
</g>
</g>
<!-- Node2 -->
<g id="Node000002" class="node">
<title>Node2</title>
<g id="a_Node000002"><a xlink:href="gauss__stimulus_8h.html" target="_top" xlink:title=" ">
<polygon fill="white" stroke="#666666" points="507,-316 357,-316 357,-297 507,-297 507,-316"/>
<text text-anchor="middle" x="432" y="-304" font-family="Helvetica,sans-Serif" font-size="10.00">elements/gauss_stimulus.h</text>
</a>
</g>
</g>
<!-- Node1&#45;&gt;Node2 -->
<g id="edge1_Node000001_Node000002" class="edge">
<title>Node1&#45;&gt;Node2</title>
<g id="a_edge1_Node000001_Node000002"><a xlink:title=" ">
<path fill="none" stroke="#63b8ff" d="M432,-351.84C432,-344.21 432,-334.7 432,-326.45"/>
<polygon fill="#63b8ff" stroke="#63b8ff" points="435.5,-326.27 432,-316.27 428.5,-326.27 435.5,-326.27"/>
</a>
</g>
</g>
<!-- Node3 -->
<g id="Node000003" class="node">
<title>Node3</title>
<g id="a_Node000003"><a xlink:title=" ">
<polygon fill="#e0e0e0" stroke="#999999" points="60,-79.5 0,-79.5 0,-60.5 60,-60.5 60,-79.5"/>
<text text-anchor="middle" x="30" y="-67.5" font-family="Helvetica,sans-Serif" font-size="10.00">iostream</text>
</a>
</g>
</g>
<!-- Node2&#45;&gt;Node3 -->
<g id="edge2_Node000002_Node000003" class="edge">
<title>Node2&#45;&gt;Node3</title>
<g id="a_edge2_Node000002_Node000003"><a xlink:title=" ">
<path fill="none" stroke="#63b8ff" d="M356.74,-300.69C282.41,-292.28 169.36,-269.22 95,-206 58.61,-175.06 40.98,-119.05 33.92,-89.85"/>
<polygon fill="#63b8ff" stroke="#63b8ff" points="37.26,-88.75 31.65,-79.76 30.43,-90.29 37.26,-88.75"/>
</a>
</g>
</g>
<!-- Node4 -->
<g id="Node000004" class="node">
<title>Node4</title>
<g id="a_Node000004"><a xlink:href="math_8h.html" target="_top" xlink:title=" ">
<polygon fill="white" stroke="#666666" points="955,-261 877,-261 877,-242 955,-242 955,-261"/>
<text text-anchor="middle" x="916" y="-249" font-family="Helvetica,sans-Serif" font-size="10.00">tools/math.h</text>
</a>
</g>
</g>
<!-- Node2&#45;&gt;Node4 -->
<g id="edge3_Node000002_Node000004" class="edge">
<title>Node2&#45;&gt;Node4</title>
<g id="a_edge3_Node000002_Node000004"><a xlink:title=" ">
<path fill="none" stroke="#63b8ff" d="M507.09,-297.28C607.27,-286.31 781.83,-267.19 866.76,-257.89"/>
<polygon fill="#63b8ff" stroke="#63b8ff" points="867.35,-261.35 876.91,-256.78 866.59,-254.39 867.35,-261.35"/>
</a>
</g>
</g>
<!-- Node14 -->
<g id="Node000014" class="node">
<title>Node14</title>
<g id="a_Node000014"><a xlink:href="element_8h.html" target="_top" xlink:title=" ">
<polygon fill="white" stroke="#666666" points="465,-261 399,-261 399,-242 465,-242 465,-261"/>
<text text-anchor="middle" x="432" y="-249" font-family="Helvetica,sans-Serif" font-size="10.00">element.h</text>
</a>
</g>
</g>
<!-- Node2&#45;&gt;Node14 -->
<g id="edge14_Node000002_Node000014" class="edge">
<title>Node2&#45;&gt;Node14</title>
<g id="a_edge14_Node000002_Node000014"><a xlink:title=" ">
<path fill="none" stroke="#63b8ff" d="M432,-296.75C432,-289.8 432,-279.85 432,-271.13"/>
<polygon fill="#63b8ff" stroke="#63b8ff" points="435.5,-271.09 432,-261.09 428.5,-271.09 435.5,-271.09"/>
</a>
</g>
</g>
<!-- Node4&#45;&gt;Node4 -->
<g id="edge7_Node000004_Node000004" class="edge">
<title>Node4&#45;&gt;Node4</title>
<g id="a_edge7_Node000004_Node000004"><a xlink:title=" ">
<path fill="none" stroke="#63b8ff" d="M942.68,-261.03C958.34,-263.06 973,-259.88 973,-251.5 973,-244.95 964.05,-241.58 952.67,-241.38"/>
<polygon fill="#63b8ff" stroke="#63b8ff" points="952.46,-237.89 942.68,-241.97 952.87,-244.88 952.46,-237.89"/>
</a>
</g>
</g>
<!-- Node5 -->
<g id="Node000005" class="node">
<title>Node5</title>
<g id="a_Node000005"><a xlink:title=" ">
<polygon fill="#e0e0e0" stroke="#999999" points="809.5,-19 762.5,-19 762.5,0 809.5,0 809.5,-19"/>
<text text-anchor="middle" x="786" y="-7" font-family="Helvetica,sans-Serif" font-size="10.00">vector</text>
</a>
</g>
</g>
<!-- Node4&#45;&gt;Node5 -->
<g id="edge4_Node000004_Node000005" class="edge">
<title>Node4&#45;&gt;Node5</title>
<g id="a_edge4_Node000004_Node000005"><a xlink:title=" ">
<path fill="none" stroke="#63b8ff" d="M955.12,-246.08C980.51,-240.96 1011.78,-229.89 1028,-206 1035.49,-194.97 1034.22,-187.79 1028,-176 983.5,-91.66 874.53,-42.13 819.28,-21.63"/>
<polygon fill="#63b8ff" stroke="#63b8ff" points="820.21,-18.24 809.62,-18.14 817.83,-24.83 820.21,-18.24"/>
</a>
</g>
</g>
<!-- Node6 -->
<g id="Node000006" class="node">
<title>Node6</title>
<g id="a_Node000006"><a xlink:title=" ">
<polygon fill="#e0e0e0" stroke="#999999" points="837,-200.5 795,-200.5 795,-181.5 837,-181.5 837,-200.5"/>
<text text-anchor="middle" x="816" y="-188.5" font-family="Helvetica,sans-Serif" font-size="10.00">array</text>
</a>
</g>
</g>
<!-- Node4&#45;&gt;Node6 -->
<g id="edge5_Node000004_Node000006" class="edge">
<title>Node4&#45;&gt;Node6</title>
<g id="a_edge5_Node000004_Node000006"><a xlink:title=" ">
<path fill="none" stroke="#63b8ff" d="M901.24,-241.87C885,-232.36 858.65,-216.95 839.54,-205.77"/>
<polygon fill="#63b8ff" stroke="#63b8ff" points="841.21,-202.7 830.82,-200.67 837.68,-208.74 841.21,-202.7"/>
</a>
</g>
</g>
<!-- Node7 -->
<g id="Node000007" class="node">
<title>Node7</title>
<g id="a_Node000007"><a xlink:title=" ">
<polygon fill="#e0e0e0" stroke="#999999" points="902.5,-200.5 855.5,-200.5 855.5,-181.5 902.5,-181.5 902.5,-200.5"/>
<text text-anchor="middle" x="879" y="-188.5" font-family="Helvetica,sans-Serif" font-size="10.00">cmath</text>
</a>
</g>
</g>
<!-- Node4&#45;&gt;Node7 -->
<g id="edge6_Node000004_Node000007" class="edge">
<title>Node4&#45;&gt;Node7</title>
<g id="a_edge6_Node000004_Node000007"><a xlink:title=" ">
<path fill="none" stroke="#63b8ff" d="M910.54,-241.87C905.13,-233.31 896.69,-219.97 889.9,-209.24"/>
<polygon fill="#63b8ff" stroke="#63b8ff" points="892.79,-207.25 884.48,-200.67 886.87,-210.99 892.79,-207.25"/>
</a>
</g>
</g>
<!-- Node8 -->
<g id="Node000008" class="node">
<title>Node8</title>
<g id="a_Node000008"><a xlink:title=" ">
<polygon fill="#e0e0e0" stroke="#999999" points="703,-200.5 639,-200.5 639,-181.5 703,-181.5 703,-200.5"/>
<text text-anchor="middle" x="671" y="-188.5" font-family="Helvetica,sans-Serif" font-size="10.00">algorithm</text>
</a>
</g>
</g>
<!-- Node4&#45;&gt;Node8 -->
<g id="edge8_Node000004_Node000008" class="edge">
<title>Node4&#45;&gt;Node8</title>
<g id="a_edge8_Node000004_Node000008"><a xlink:title=" ">
<path fill="none" stroke="#63b8ff" d="M876.95,-243.36C835.64,-235.49 768.74,-221.82 712,-206 709.53,-205.31 706.99,-204.56 704.44,-203.77"/>
<polygon fill="#63b8ff" stroke="#63b8ff" points="705.3,-200.37 694.7,-200.61 703.14,-207.02 705.3,-200.37"/>
</a>
</g>
</g>
<!-- Node9 -->
<g id="Node000009" class="node">
<title>Node9</title>
<g id="a_Node000009"><a xlink:title=" ">
<polygon fill="#e0e0e0" stroke="#999999" points="777,-200.5 721,-200.5 721,-181.5 777,-181.5 777,-200.5"/>
<text text-anchor="middle" x="749" y="-188.5" font-family="Helvetica,sans-Serif" font-size="10.00">numeric</text>
</a>
</g>
</g>
<!-- Node4&#45;&gt;Node9 -->
<g id="edge9_Node000004_Node000009" class="edge">
<title>Node4&#45;&gt;Node9</title>
<g id="a_edge9_Node000004_Node000009"><a xlink:title=" ">
<path fill="none" stroke="#63b8ff" d="M890.02,-241.88C863.71,-233.08 821.91,-218.94 786,-206 784.36,-205.41 782.67,-204.8 780.98,-204.17"/>
<polygon fill="#63b8ff" stroke="#63b8ff" points="781.85,-200.76 771.26,-200.56 779.41,-207.32 781.85,-200.76"/>
</a>
</g>
</g>
<!-- Node10 -->
<g id="Node000010" class="node">
<title>Node10</title>
<g id="a_Node000010"><a xlink:title=" ">
<polygon fill="#e0e0e0" stroke="#999999" points="985.5,-200.5 920.5,-200.5 920.5,-181.5 985.5,-181.5 985.5,-200.5"/>
<text text-anchor="middle" x="953" y="-188.5" font-family="Helvetica,sans-Serif" font-size="10.00">functional</text>
</a>
</g>
</g>
<!-- Node4&#45;&gt;Node10 -->
<g id="edge10_Node000004_Node000010" class="edge">
<title>Node4&#45;&gt;Node10</title>
<g id="a_edge10_Node000004_Node000010"><a xlink:title=" ">
<path fill="none" stroke="#63b8ff" d="M921.46,-241.87C926.87,-233.31 935.31,-219.97 942.1,-209.24"/>
<polygon fill="#63b8ff" stroke="#63b8ff" points="945.13,-210.99 947.52,-200.67 939.21,-207.25 945.13,-210.99"/>
</a>
</g>
</g>
<!-- Node11 -->
<g id="Node000011" class="node">
<title>Node11</title>
<g id="a_Node000011"><a xlink:title=" ">
<polygon fill="#e0e0e0" stroke="#999999" points="744,-19 690,-19 690,0 744,0 744,-19"/>
<text text-anchor="middle" x="717" y="-7" font-family="Helvetica,sans-Serif" font-size="10.00">random</text>
</a>
</g>
</g>
<!-- Node4&#45;&gt;Node11 -->
<g id="edge11_Node000004_Node000011" class="edge">
<title>Node4&#45;&gt;Node11</title>
<g id="a_edge11_Node000004_Node000011"><a xlink:title=" ">
<path fill="none" stroke="#63b8ff" d="M946.27,-241.92C963.84,-235.21 984.52,-223.94 995,-206 1001.73,-194.49 1001.59,-187.59 995,-176 967.08,-126.88 811.37,-52.76 745.95,-23.26"/>
<polygon fill="#63b8ff" stroke="#63b8ff" points="747.18,-19.98 736.62,-19.08 744.31,-26.37 747.18,-19.98"/>
</a>
</g>
</g>
<!-- Node12 -->
<g id="Node000012" class="node">
<title>Node12</title>
<g id="a_Node000012"><a xlink:title=" ">
<polygon fill="#e0e0e0" stroke="#999999" points="1177.5,-200.5 1118.5,-200.5 1118.5,-181.5 1177.5,-181.5 1177.5,-200.5"/>
<text text-anchor="middle" x="1148" y="-188.5" font-family="Helvetica,sans-Serif" font-size="10.00">numbers</text>
</a>
</g>
</g>
<!-- Node4&#45;&gt;Node12 -->
<g id="edge12_Node000004_Node000012" class="edge">
<title>Node4&#45;&gt;Node12</title>
<g id="a_edge12_Node000004_Node000012"><a xlink:title=" ">
<path fill="none" stroke="#63b8ff" d="M955.11,-242.15C993.29,-233.78 1052.93,-220.15 1104,-206 1106.75,-205.24 1109.59,-204.42 1112.44,-203.57"/>
<polygon fill="#63b8ff" stroke="#63b8ff" points="1113.51,-206.9 1122.04,-200.62 1111.45,-200.21 1113.51,-206.9"/>
</a>
</g>
</g>
<!-- Node13 -->
<g id="Node000013" class="node">
<title>Node13</title>
<g id="a_Node000013"><a xlink:title=" ">
<polygon fill="#e0e0e0" stroke="#999999" points="986.5,-19 931.5,-19 931.5,0 986.5,0 986.5,-19"/>
<text text-anchor="middle" x="959" y="-7" font-family="Helvetica,sans-Serif" font-size="10.00">fstream</text>
</a>
</g>
</g>
<!-- Node4&#45;&gt;Node13 -->
<g id="edge13_Node000004_Node000013" class="edge">
<title>Node4&#45;&gt;Node13</title>
<g id="a_edge13_Node000004_Node000013"><a xlink:title=" ">
<path fill="none" stroke="#63b8ff" d="M955.18,-250.98C990.5,-249.05 1040.65,-239.96 1066,-206 1106.14,-152.22 1103.25,-110.83 1066,-55 1050.66,-32.01 1020.97,-20.88 996.75,-15.5"/>
<polygon fill="#63b8ff" stroke="#63b8ff" points="997.25,-12.03 986.76,-13.53 995.9,-18.9 997.25,-12.03"/>
</a>
</g>
</g>
<!-- Node14&#45;&gt;Node5 -->
<g id="edge15_Node000014_Node000005" class="edge">
<title>Node14&#45;&gt;Node5</title>
<g id="a_edge15_Node000014_Node000005"><a xlink:title=" ">
<path fill="none" stroke="#63b8ff" d="M465.11,-244.8C495.68,-238.53 541.57,-226.52 577,-206 662.98,-156.21 742.16,-64.92 772.7,-27.34"/>
<polygon fill="#63b8ff" stroke="#63b8ff" points="775.56,-29.38 779.09,-19.39 770.1,-24.99 775.56,-29.38"/>
</a>
</g>
</g>
<!-- Node14&#45;&gt;Node8 -->
<g id="edge20_Node000014_Node000008" class="edge">
<title>Node14&#45;&gt;Node8</title>
<g id="a_edge20_Node000014_Node000008"><a xlink:title=" ">
<path fill="none" stroke="#63b8ff" d="M465.3,-243.55C503.9,-235.33 569.35,-220.86 625,-206 627.97,-205.21 631.04,-204.35 634.11,-203.47"/>
<polygon fill="#63b8ff" stroke="#63b8ff" points="635.24,-206.79 643.85,-200.6 633.26,-200.07 635.24,-206.79"/>
</a>
</g>
</g>
<!-- Node14&#45;&gt;Node9 -->
<g id="edge21_Node000014_Node000009" class="edge">
<title>Node14&#45;&gt;Node9</title>
<g id="a_edge21_Node000014_Node000009"><a xlink:title=" ">
<path fill="none" stroke="#63b8ff" d="M465.22,-247.44C518.12,-242.07 624.47,-229.25 712,-206 714.3,-205.39 716.65,-204.69 719,-203.93"/>
<polygon fill="#63b8ff" stroke="#63b8ff" points="720.22,-207.21 728.5,-200.61 717.91,-200.61 720.22,-207.21"/>
</a>
</g>
</g>
<!-- Node15 -->
<g id="Node000015" class="node">
<title>Node15</title>
<g id="a_Node000015"><a xlink:title=" ">
<polygon fill="#e0e0e0" stroke="#999999" points="530,-19 486,-19 486,0 530,0 530,-19"/>
<text text-anchor="middle" x="508" y="-7" font-family="Helvetica,sans-Serif" font-size="10.00">string</text>
</a>
</g>
</g>
<!-- Node14&#45;&gt;Node15 -->
<g id="edge16_Node000014_Node000015" class="edge">
<title>Node14&#45;&gt;Node15</title>
<g id="a_edge16_Node000014_Node000015"><a xlink:title=" ">
<path fill="none" stroke="#63b8ff" d="M465.1,-247.12C492.84,-242.51 531.42,-231.63 554,-206 579.36,-177.22 578.57,-158.15 569,-121 559.66,-84.77 535.65,-47.72 520.69,-27.05"/>
<polygon fill="#63b8ff" stroke="#63b8ff" points="523.49,-24.95 514.72,-19.01 517.87,-29.13 523.49,-24.95"/>
</a>
</g>
</g>
<!-- Node16 -->
<g id="Node000016" class="node">
<title>Node16</title>
<g id="a_Node000016"><a xlink:title=" ">
<polygon fill="#e0e0e0" stroke="#999999" points="212.5,-200.5 119.5,-200.5 119.5,-181.5 212.5,-181.5 212.5,-200.5"/>
<text text-anchor="middle" x="166" y="-188.5" font-family="Helvetica,sans-Serif" font-size="10.00">unordered_map</text>
</a>
</g>
</g>
<!-- Node14&#45;&gt;Node16 -->
<g id="edge17_Node000014_Node000016" class="edge">
<title>Node14&#45;&gt;Node16</title>
<g id="a_edge17_Node000014_Node000016"><a xlink:title=" ">
<path fill="none" stroke="#63b8ff" d="M398.82,-243.86C357.36,-235.46 284.28,-220.38 222,-206 217.88,-205.05 213.6,-204.03 209.32,-202.99"/>
<polygon fill="#63b8ff" stroke="#63b8ff" points="209.96,-199.55 199.41,-200.56 208.29,-206.35 209.96,-199.55"/>
</a>
</g>
</g>
<!-- Node17 -->
<g id="Node000017" class="node">
<title>Node17</title>
<g id="a_Node000017"><a xlink:title=" ">
<polygon fill="#e0e0e0" stroke="#999999" points="289,-200.5 231,-200.5 231,-181.5 289,-181.5 289,-200.5"/>
<text text-anchor="middle" x="260" y="-188.5" font-family="Helvetica,sans-Serif" font-size="10.00">memory</text>
</a>
</g>
</g>
<!-- Node14&#45;&gt;Node17 -->
<g id="edge18_Node000014_Node000017" class="edge">
<title>Node14&#45;&gt;Node17</title>
<g id="a_edge18_Node000014_Node000017"><a xlink:title=" ">
<path fill="none" stroke="#63b8ff" d="M405.47,-241.97C378.38,-233.19 335.13,-219 298,-206 296.16,-205.36 294.27,-204.69 292.37,-204"/>
<polygon fill="#63b8ff" stroke="#63b8ff" points="293.46,-200.68 282.86,-200.56 291.07,-207.26 293.46,-200.68"/>
</a>
</g>
</g>
<!-- Node18 -->
<g id="Node000018" class="node">
<title>Node18</title>
<g id="a_Node000018"><a xlink:title=" ">
<polygon fill="#e0e0e0" stroke="#999999" points="357,-200.5 307,-200.5 307,-181.5 357,-181.5 357,-200.5"/>
<text text-anchor="middle" x="332" y="-188.5" font-family="Helvetica,sans-Serif" font-size="10.00">ranges</text>
</a>
</g>
</g>
<!-- Node14&#45;&gt;Node18 -->
<g id="edge19_Node000014_Node000018" class="edge">
<title>Node14&#45;&gt;Node18</title>
<g id="a_edge19_Node000014_Node000018"><a xlink:title=" ">
<path fill="none" stroke="#63b8ff" d="M417.24,-241.87C401,-232.36 374.65,-216.95 355.54,-205.77"/>
<polygon fill="#63b8ff" stroke="#63b8ff" points="357.21,-202.7 346.82,-200.67 353.68,-208.74 357.21,-202.7"/>
</a>
</g>
</g>
<!-- Node19 -->
<g id="Node000019" class="node">
<title>Node19</title>
<g id="a_Node000019"><a xlink:href="exception_8h.html" target="_top" xlink:title=" ">
<polygon fill="white" stroke="#666666" points="208,-79.5 78,-79.5 78,-60.5 208,-60.5 208,-79.5"/>
<text text-anchor="middle" x="143" y="-67.5" font-family="Helvetica,sans-Serif" font-size="10.00">exceptions/exception.h</text>
</a>
</g>
</g>
<!-- Node14&#45;&gt;Node19 -->
<g id="edge22_Node000014_Node000019" class="edge">
<title>Node14&#45;&gt;Node19</title>
<g id="a_edge22_Node000014_Node000019"><a xlink:title=" ">
<path fill="none" stroke="#63b8ff" d="M398.96,-251.14C324.51,-251.81 147.26,-248.76 110,-206 80.52,-172.17 111.29,-116.24 130.33,-88.18"/>
<polygon fill="#63b8ff" stroke="#63b8ff" points="133.33,-90 136.23,-79.81 127.61,-85.96 133.33,-90"/>
</a>
</g>
</g>
<!-- Node21 -->
<g id="Node000021" class="node">
<title>Node21</title>
<g id="a_Node000021"><a xlink:href="logger_8h.html" target="_top" xlink:title=" ">
<polygon fill="white" stroke="#666666" points="397.5,-140 314.5,-140 314.5,-121 397.5,-121 397.5,-140"/>
<text text-anchor="middle" x="356" y="-128" font-family="Helvetica,sans-Serif" font-size="10.00">tools/logger.h</text>
</a>
</g>
</g>
<!-- Node14&#45;&gt;Node21 -->
<g id="edge25_Node000014_Node000021" class="edge">
<title>Node14&#45;&gt;Node21</title>
<g id="a_edge25_Node000014_Node000021"><a xlink:title=" ">
<path fill="none" stroke="#63b8ff" d="M426.53,-241.94C414.11,-222.48 383.53,-174.6 367.01,-148.74"/>
<polygon fill="#63b8ff" stroke="#63b8ff" points="369.95,-146.85 361.62,-140.3 364.05,-150.61 369.95,-146.85"/>
</a>
</g>
</g>
<!-- Node27 -->
<g id="Node000027" class="node">
<title>Node27</title>
<g id="a_Node000027"><a xlink:href="element__parameters_8h.html" target="_top" xlink:title=" ">
<polygon fill="white" stroke="#666666" points="544.5,-206 413.5,-206 413.5,-176 544.5,-176 544.5,-206"/>
<text text-anchor="start" x="421.5" y="-194" font-family="Helvetica,sans-Serif" font-size="10.00">element_parameters</text>
<text text-anchor="middle" x="479" y="-183" font-family="Helvetica,sans-Serif" font-size="10.00">/element_parameters.h</text>
</a>
</g>
</g>
<!-- Node14&#45;&gt;Node27 -->
<g id="edge39_Node000014_Node000027" class="edge">
<title>Node14&#45;&gt;Node27</title>
<g id="a_edge39_Node000014_Node000027"><a xlink:title=" ">
<path fill="none" stroke="#63b8ff" d="M438.94,-241.87C444.78,-234.59 453.41,-223.85 461.16,-214.2"/>
<polygon fill="#63b8ff" stroke="#63b8ff" points="464.13,-216.1 467.66,-206.11 458.67,-211.72 464.13,-216.1"/>
</a>
</g>
</g>
<!-- Node19&#45;&gt;Node15 -->
<g id="edge24_Node000019_Node000015" class="edge">
<title>Node19&#45;&gt;Node15</title>
<g id="a_edge24_Node000019_Node000015"><a xlink:title=" ">
<path fill="none" stroke="#63b8ff" d="M190.18,-60.47C200.65,-58.63 211.69,-56.71 222,-55 313.82,-39.72 422.5,-23.25 475.57,-15.32"/>
<polygon fill="#63b8ff" stroke="#63b8ff" points="476.35,-18.74 485.72,-13.8 475.32,-11.82 476.35,-18.74"/>
</a>
</g>
</g>
<!-- Node20 -->
<g id="Node000020" class="node">
<title>Node20</title>
<g id="a_Node000020"><a xlink:title=" ">
<polygon fill="#e0e0e0" stroke="#999999" points="175.5,-19 110.5,-19 110.5,0 175.5,0 175.5,-19"/>
<text text-anchor="middle" x="143" y="-7" font-family="Helvetica,sans-Serif" font-size="10.00">exception</text>
</a>
</g>
</g>
<!-- Node19&#45;&gt;Node20 -->
<g id="edge23_Node000019_Node000020" class="edge">
<title>Node19&#45;&gt;Node20</title>
<g id="a_edge23_Node000019_Node000020"><a xlink:title=" ">
<path fill="none" stroke="#63b8ff" d="M143,-60.37C143,-52.25 143,-39.81 143,-29.39"/>
<polygon fill="#63b8ff" stroke="#63b8ff" points="146.5,-29.17 143,-19.17 139.5,-29.17 146.5,-29.17"/>
</a>
</g>
</g>
<!-- Node21&#45;&gt;Node3 -->
<g id="edge26_Node000021_Node000003" class="edge">
<title>Node21&#45;&gt;Node3</title>
<g id="a_edge26_Node000021_Node000003"><a xlink:title=" ">
<path fill="none" stroke="#63b8ff" d="M314.15,-125.54C257.82,-119.64 154.76,-106.83 69,-85 66.5,-84.36 63.93,-83.63 61.37,-82.84"/>
<polygon fill="#63b8ff" stroke="#63b8ff" points="62.23,-79.44 51.64,-79.59 60.02,-86.08 62.23,-79.44"/>
</a>
</g>
</g>
<!-- Node21&#45;&gt;Node15 -->
<g id="edge27_Node000021_Node000015" class="edge">
<title>Node21&#45;&gt;Node15</title>
<g id="a_edge27_Node000021_Node000015"><a xlink:title=" ">
<path fill="none" stroke="#63b8ff" d="M314.26,-122.3C292.67,-116.23 268.14,-105.14 255,-85 247.72,-73.83 246.43,-65.21 255,-55 282.79,-21.89 413.58,-13.41 475.43,-11.24"/>
<polygon fill="#63b8ff" stroke="#63b8ff" points="475.9,-14.73 485.79,-10.91 475.68,-7.73 475.9,-14.73"/>
</a>
</g>
</g>
<!-- Node21&#45;&gt;Node19 -->
<g id="edge31_Node000021_Node000019" class="edge">
<title>Node21&#45;&gt;Node19</title>
<g id="a_edge31_Node000021_Node000019"><a xlink:title=" ">
<path fill="none" stroke="#63b8ff" d="M325.03,-120.99C287.72,-110.75 224.94,-93.5 183.73,-82.19"/>
<polygon fill="#63b8ff" stroke="#63b8ff" points="184.58,-78.79 174.01,-79.52 182.73,-85.54 184.58,-78.79"/>
</a>
</g>
</g>
<!-- Node22 -->
<g id="Node000022" class="node">
<title>Node22</title>
<g id="a_Node000022"><a xlink:title=" ">
<polygon fill="#e0e0e0" stroke="#999999" points="598,-19 548,-19 548,0 598,0 598,-19"/>
<text text-anchor="middle" x="573" y="-7" font-family="Helvetica,sans-Serif" font-size="10.00">chrono</text>
</a>
</g>
</g>
<!-- Node21&#45;&gt;Node22 -->
<g id="edge28_Node000021_Node000022" class="edge">
<title>Node21&#45;&gt;Node22</title>
<g id="a_edge28_Node000021_Node000022"><a xlink:title=" ">
<path fill="none" stroke="#63b8ff" d="M361.02,-120.69C370.37,-105.06 391.99,-72.5 419,-55 429.09,-48.46 495.69,-30.48 537.94,-19.48"/>
<polygon fill="#63b8ff" stroke="#63b8ff" points="539.05,-22.81 547.85,-16.91 537.29,-16.03 539.05,-22.81"/>
</a>
</g>
</g>
<!-- Node23 -->
<g id="Node000023" class="node">
<title>Node23</title>
<g id="a_Node000023"><a xlink:title=" ">
<polygon fill="#e0e0e0" stroke="#999999" points="484,-79.5 428,-79.5 428,-60.5 484,-60.5 484,-79.5"/>
<text text-anchor="middle" x="456" y="-67.5" font-family="Helvetica,sans-Serif" font-size="10.00">iomanip</text>
</a>
</g>
</g>
<!-- Node21&#45;&gt;Node23 -->
<g id="edge29_Node000021_Node000023" class="edge">
<title>Node21&#45;&gt;Node23</title>
<g id="a_edge29_Node000021_Node000023"><a xlink:title=" ">
<path fill="none" stroke="#63b8ff" d="M370.76,-120.87C387,-111.36 413.35,-95.95 432.46,-84.77"/>
<polygon fill="#63b8ff" stroke="#63b8ff" points="434.32,-87.74 441.18,-79.67 430.79,-81.7 434.32,-87.74"/>
</a>
</g>
</g>
<!-- Node24 -->
<g id="Node000024" class="node">
<title>Node24</title>
<g id="a_Node000024"><a xlink:title=" ">
<polygon fill="#e0e0e0" stroke="#999999" points="371.5,-85 264.5,-85 264.5,-55 371.5,-55 371.5,-85"/>
<text text-anchor="start" x="272.5" y="-73" font-family="Helvetica,sans-Serif" font-size="10.00">imgui&#45;platform&#45;kit</text>
<text text-anchor="middle" x="318" y="-62" font-family="Helvetica,sans-Serif" font-size="10.00">/log_window.h</text>
</a>
</g>
</g>
<!-- Node21&#45;&gt;Node24 -->
<g id="edge30_Node000021_Node000024" class="edge">
<title>Node21&#45;&gt;Node24</title>
<g id="a_edge30_Node000021_Node000024"><a xlink:title=" ">
<path fill="none" stroke="#63b8ff" d="M350.39,-120.87C345.76,-113.74 338.97,-103.28 332.8,-93.79"/>
<polygon fill="#63b8ff" stroke="#63b8ff" points="335.55,-91.59 327.17,-85.11 329.68,-95.41 335.55,-91.59"/>
</a>
</g>
</g>
<!-- Node25 -->
<g id="Node000025" class="node">
<title>Node25</title>
<g id="a_Node000025"><a xlink:href="utils_8h.html" target="_top" xlink:title=" ">
<polygon fill="white" stroke="#666666" points="667.5,-79.5 620.5,-79.5 620.5,-60.5 667.5,-60.5 667.5,-79.5"/>
<text text-anchor="middle" x="644" y="-67.5" font-family="Helvetica,sans-Serif" font-size="10.00">utils.h</text>
</a>
</g>
</g>
<!-- Node21&#45;&gt;Node25 -->
<g id="edge32_Node000021_Node000025" class="edge">
<title>Node21&#45;&gt;Node25</title>
<g id="a_edge32_Node000021_Node000025"><a xlink:title=" ">
<path fill="none" stroke="#63b8ff" d="M397.57,-121.06C454.96,-109.4 557.36,-88.6 610.28,-77.85"/>
<polygon fill="#63b8ff" stroke="#63b8ff" points="611.07,-81.26 620.17,-75.84 609.68,-74.4 611.07,-81.26"/>
</a>
</g>
</g>
<!-- Node25&#45;&gt;Node5 -->
<g id="edge34_Node000025_Node000005" class="edge">
<title>Node25&#45;&gt;Node5</title>
<g id="a_edge34_Node000025_Node000005"><a xlink:title=" ">
<path fill="none" stroke="#63b8ff" d="M664.65,-60.49C688.63,-50.62 728.39,-34.23 755.83,-22.93"/>
<polygon fill="#63b8ff" stroke="#63b8ff" points="757.41,-26.06 765.33,-19.02 754.75,-19.59 757.41,-26.06"/>
</a>
</g>
</g>
<!-- Node25&#45;&gt;Node11 -->
<g id="edge35_Node000025_Node000011" class="edge">
<title>Node25&#45;&gt;Node11</title>
<g id="a_edge35_Node000025_Node000011"><a xlink:title=" ">
<path fill="none" stroke="#63b8ff" d="M654.77,-60.37C666.2,-51.21 684.48,-36.56 698.28,-25.51"/>
<polygon fill="#63b8ff" stroke="#63b8ff" points="700.57,-28.15 706.18,-19.17 696.19,-22.69 700.57,-28.15"/>
</a>
</g>
</g>
<!-- Node25&#45;&gt;Node13 -->
<g id="edge37_Node000025_Node000013" class="edge">
<title>Node25&#45;&gt;Node13</title>
<g id="a_edge37_Node000025_Node000013"><a xlink:title=" ">
<path fill="none" stroke="#63b8ff" d="M667.68,-64.6C722,-54.51 855.96,-29.64 921.57,-17.45"/>
<polygon fill="#63b8ff" stroke="#63b8ff" points="922.3,-20.88 931.49,-15.61 921.02,-13.99 922.3,-20.88"/>
</a>
</g>
</g>
<!-- Node25&#45;&gt;Node15 -->
<g id="edge33_Node000025_Node000015" class="edge">
<title>Node25&#45;&gt;Node15</title>
<g id="a_edge33_Node000025_Node000015"><a xlink:title=" ">
<path fill="none" stroke="#63b8ff" d="M624.22,-60.49C601.36,-50.66 563.51,-34.38 537.24,-23.08"/>
<polygon fill="#63b8ff" stroke="#63b8ff" points="538.37,-19.75 527.8,-19.02 535.6,-26.18 538.37,-19.75"/>
</a>
</g>
</g>
<!-- Node25&#45;&gt;Node22 -->
<g id="edge38_Node000025_Node000022" class="edge">
<title>Node25&#45;&gt;Node22</title>
<g id="a_edge38_Node000025_Node000022"><a xlink:title=" ">
<path fill="none" stroke="#63b8ff" d="M633.52,-60.37C622.51,-51.3 604.96,-36.84 591.59,-25.82"/>
<polygon fill="#63b8ff" stroke="#63b8ff" points="593.46,-22.83 583.52,-19.17 589.01,-28.23 593.46,-22.83"/>
</a>
</g>
</g>
<!-- Node26 -->
<g id="Node000026" class="node">
<title>Node26</title>
<g id="a_Node000026"><a xlink:title=" ">
<polygon fill="#e0e0e0" stroke="#999999" points="672,-19 616,-19 616,0 672,0 672,-19"/>
<text text-anchor="middle" x="644" y="-7" font-family="Helvetica,sans-Serif" font-size="10.00">sstream</text>
</a>
</g>
</g>
<!-- Node25&#45;&gt;Node26 -->
<g id="edge36_Node000025_Node000026" class="edge">
<title>Node25&#45;&gt;Node26</title>
<g id="a_edge36_Node000025_Node000026"><a xlink:title=" ">
<path fill="none" stroke="#63b8ff" d="M644,-60.37C644,-52.25 644,-39.81 644,-29.39"/>
<polygon fill="#63b8ff" stroke="#63b8ff" points="647.5,-29.17 644,-19.17 640.5,-29.17 647.5,-29.17"/>
</a>
</g>
</g>
<!-- Node27&#45;&gt;Node15 -->
<g id="edge41_Node000027_Node000015" class="edge">
<title>Node27&#45;&gt;Node15</title>
<g id="a_edge41_Node000027_Node000015"><a xlink:title=" ">
<path fill="none" stroke="#63b8ff" d="M463.97,-175.97C450.92,-162.01 435.5,-139.99 445,-121 456.93,-97.15 478.77,-107.55 493,-85 503.65,-68.12 506.95,-45.17 507.87,-29.23"/>
<polygon fill="#63b8ff" stroke="#63b8ff" points="511.38,-29.14 508.19,-19.04 504.38,-28.92 511.38,-29.14"/>
</a>
</g>
</g>
<!-- Node27&#45;&gt;Node21 -->
<g id="edge43_Node000027_Node000021" class="edge">
<title>Node27&#45;&gt;Node21</title>
<g id="a_edge43_Node000027_Node000021"><a xlink:title=" ">
<path fill="none" stroke="#63b8ff" d="M449.54,-175.99C429.38,-166.4 402.86,-153.79 383.2,-144.44"/>
<polygon fill="#63b8ff" stroke="#63b8ff" points="384.7,-141.27 374.16,-140.14 381.69,-147.6 384.7,-141.27"/>
</a>
</g>
</g>
<!-- Node28 -->
<g id="Node000028" class="node">
<title>Node28</title>
<g id="a_Node000028"><a xlink:title=" ">
<polygon fill="#e0e0e0" stroke="#999999" points="560,-140 522,-140 522,-121 560,-121 560,-140"/>
<text text-anchor="middle" x="541" y="-128" font-family="Helvetica,sans-Serif" font-size="10.00">map</text>
</a>
</g>
</g>
<!-- Node27&#45;&gt;Node28 -->
<g id="edge40_Node000027_Node000028" class="edge">
<title>Node27&#45;&gt;Node28</title>
<g id="a_edge40_Node000027_Node000028"><a xlink:title=" ">
<path fill="none" stroke="#63b8ff" d="M494.01,-175.84C503.19,-167.17 514.95,-156.08 524.41,-147.15"/>
<polygon fill="#63b8ff" stroke="#63b8ff" points="526.84,-149.67 531.71,-140.27 522.03,-144.58 526.84,-149.67"/>
</a>
</g>
</g>
<!-- Node29 -->
<g id="Node000029" class="node">
<title>Node29</title>
<g id="a_Node000029"><a xlink:title=" ">
<polygon fill="#e0e0e0" stroke="#999999" points="504,-140 454,-140 454,-121 504,-121 504,-140"/>
<text text-anchor="middle" x="479" y="-128" font-family="Helvetica,sans-Serif" font-size="10.00">format</text>
</a>
</g>
</g>
<!-- Node27&#45;&gt;Node29 -->
<g id="edge42_Node000027_Node000029" class="edge">
<title>Node27&#45;&gt;Node29</title>
<g id="a_edge42_Node000027_Node000029"><a xlink:title=" ">
<path fill="none" stroke="#63b8ff" d="M479,-175.84C479,-168.21 479,-158.7 479,-150.45"/>
<polygon fill="#63b8ff" stroke="#63b8ff" points="482.5,-150.27 479,-140.27 475.5,-150.27 482.5,-150.27"/>
</a>
</g>
</g>
</g>
</svg>
