<?xml version="1.0" encoding="UTF-8" standalone="no"?>
<!DOCTYPE svg PUBLIC "-//W3C//DTD SVG 1.1//EN"
 "http://www.w3.org/Graphics/SVG/1.1/DTD/svg11.dtd">
<!-- Generated by graphviz version 2.43.0 (0)
 -->
<!-- Title: src/user_interface/help_window.cpp Pages: 1 -->
<svg width="1624pt" height="522pt"
 viewBox="0.00 0.00 1623.50 522.00" xmlns="http://www.w3.org/2000/svg" xmlns:xlink="http://www.w3.org/1999/xlink">
<g id="graph0" class="graph" transform="scale(1 1) rotate(0) translate(4 518)">
<title>src/user_interface/help_window.cpp</title>
<!-- Node1 -->
<g id="Node000001" class="node">
<title>Node1</title>
<g id="a_Node000001"><a xlink:title=" ">
<polygon fill="#999999" stroke="#666666" points="541,-514 437,-514 437,-484 541,-484 541,-514"/>
<text text-anchor="start" x="445" y="-502" font-family="Helvetica,sans-Serif" font-size="10.00">src/user_interface</text>
<text text-anchor="middle" x="489" y="-491" font-family="Helvetica,sans-Serif" font-size="10.00">/help_window.cpp</text>
</a>
</g>
</g>
<!-- Node2 -->
<g id="Node000002" class="node">
<title>Node2</title>
<g id="a_Node000002"><a xlink:href="help__window_8h.html" target="_top" xlink:title=" ">
<polygon fill="white" stroke="#666666" points="278,-448 168,-448 168,-418 278,-418 278,-448"/>
<text text-anchor="start" x="176" y="-436" font-family="Helvetica,sans-Serif" font-size="10.00">user_interface/help</text>
<text text-anchor="middle" x="223" y="-425" font-family="Helvetica,sans-Serif" font-size="10.00">_window.h</text>
</a>
</g>
</g>
<!-- Node1&#45;&gt;Node2 -->
<g id="edge1_Node000001_Node000002" class="edge">
<title>Node1&#45;&gt;Node2</title>
<g id="a_edge1_Node000001_Node000002"><a xlink:title=" ">
<path fill="none" stroke="#63b8ff" d="M436.76,-485.43C394.19,-475.19 333.86,-460.67 288.14,-449.67"/>
<polygon fill="#63b8ff" stroke="#63b8ff" points="288.86,-446.25 278.32,-447.31 287.23,-453.05 288.86,-446.25"/>
</a>
</g>
</g>
<!-- Node5 -->
<g id="Node000005" class="node">
<title>Node5</title>
<g id="a_Node000005"><a xlink:href="application_8h.html" target="_top" xlink:title=" ">
<polygon fill="white" stroke="#666666" points="869.5,-442.5 732.5,-442.5 732.5,-423.5 869.5,-423.5 869.5,-442.5"/>
<text text-anchor="middle" x="801" y="-430.5" font-family="Helvetica,sans-Serif" font-size="10.00">application/application.h</text>
</a>
</g>
</g>
<!-- Node1&#45;&gt;Node5 -->
<g id="edge4_Node000001_Node000005" class="edge">
<title>Node1&#45;&gt;Node5</title>
<g id="a_edge4_Node000001_Node000005"><a xlink:title=" ">
<path fill="none" stroke="#63b8ff" d="M541.22,-487.29C598.99,-475.44 691.5,-456.46 749.13,-444.64"/>
<polygon fill="#63b8ff" stroke="#63b8ff" points="750.03,-448.03 759.12,-442.59 748.62,-441.17 750.03,-448.03"/>
</a>
</g>
</g>
<!-- Node3 -->
<g id="Node000003" class="node">
<title>Node3</title>
<g id="a_Node000003"><a xlink:title=" ">
<polygon fill="#e0e0e0" stroke="#999999" points="140,-382 0,-382 0,-352 140,-352 140,-382"/>
<text text-anchor="start" x="8" y="-370" font-family="Helvetica,sans-Serif" font-size="10.00">imgui&#45;platform&#45;kit</text>
<text text-anchor="middle" x="70" y="-359" font-family="Helvetica,sans-Serif" font-size="10.00">/user_interface_window.h</text>
</a>
</g>
</g>
<!-- Node2&#45;&gt;Node3 -->
<g id="edge2_Node000002_Node000003" class="edge">
<title>Node2&#45;&gt;Node3</title>
<g id="a_edge2_Node000002_Node000003"><a xlink:title=" ">
<path fill="none" stroke="#63b8ff" d="M189.42,-417.95C166.9,-408.53 137.04,-396.04 112.82,-385.91"/>
<polygon fill="#63b8ff" stroke="#63b8ff" points="114.07,-382.64 103.5,-382.01 111.37,-389.1 114.07,-382.64"/>
</a>
</g>
</g>
<!-- Node4 -->
<g id="Node000004" class="node">
<title>Node4</title>
<g id="a_Node000004"><a xlink:href="IconsFontAwesome6_8h.html" target="_top" xlink:title=" ">
<polygon fill="white" stroke="#666666" points="287.5,-382 158.5,-382 158.5,-352 287.5,-352 287.5,-382"/>
<text text-anchor="start" x="166.5" y="-370" font-family="Helvetica,sans-Serif" font-size="10.00">user_interface/fonts</text>
<text text-anchor="middle" x="223" y="-359" font-family="Helvetica,sans-Serif" font-size="10.00">/IconsFontAwesome6.h</text>
</a>
</g>
</g>
<!-- Node2&#45;&gt;Node4 -->
<g id="edge3_Node000002_Node000004" class="edge">
<title>Node2&#45;&gt;Node4</title>
<g id="a_edge3_Node000002_Node000004"><a xlink:title=" ">
<path fill="none" stroke="#63b8ff" d="M223,-417.8C223,-410.34 223,-400.99 223,-392.41"/>
<polygon fill="#63b8ff" stroke="#63b8ff" points="226.5,-392.16 223,-382.16 219.5,-392.16 226.5,-392.16"/>
</a>
</g>
</g>
<!-- Node6 -->
<g id="Node000006" class="node">
<title>Node6</title>
<g id="a_Node000006"><a xlink:title=" ">
<polygon fill="#e0e0e0" stroke="#999999" points="1030.5,-376.5 961.5,-376.5 961.5,-357.5 1030.5,-357.5 1030.5,-376.5"/>
<text text-anchor="middle" x="996" y="-364.5" font-family="Helvetica,sans-Serif" font-size="10.00">type_traits</text>
</a>
</g>
</g>
<!-- Node5&#45;&gt;Node6 -->
<g id="edge5_Node000005_Node000006" class="edge">
<title>Node5&#45;&gt;Node6</title>
<g id="a_edge5_Node000005_Node000006"><a xlink:title=" ">
<path fill="none" stroke="#63b8ff" d="M827.3,-423.37C861.56,-412.12 921.61,-392.42 960.05,-379.8"/>
<polygon fill="#63b8ff" stroke="#63b8ff" points="961.4,-383.04 969.81,-376.6 959.21,-376.39 961.4,-383.04"/>
</a>
</g>
</g>
<!-- Node7 -->
<g id="Node000007" class="node">
<title>Node7</title>
<g id="a_Node000007"><a xlink:title=" ">
<polygon fill="#e0e0e0" stroke="#999999" points="1155.5,-382 1048.5,-382 1048.5,-352 1155.5,-352 1155.5,-382"/>
<text text-anchor="start" x="1056.5" y="-370" font-family="Helvetica,sans-Serif" font-size="10.00">imgui&#45;platform&#45;kit</text>
<text text-anchor="middle" x="1102" y="-359" font-family="Helvetica,sans-Serif" font-size="10.00">/user_interface.h</text>
</a>
</g>
</g>
<!-- Node5&#45;&gt;Node7 -->
<g id="edge6_Node000005_Node000007" class="edge">
<title>Node5&#45;&gt;Node7</title>
<g id="a_edge6_Node000005_Node000007"><a xlink:title=" ">
<path fill="none" stroke="#63b8ff" d="M842.92,-423.44C888.62,-414.06 964.19,-398.42 1038.28,-382.36"/>
<polygon fill="#63b8ff" stroke="#63b8ff" points="1039.21,-385.74 1048.24,-380.19 1037.73,-378.9 1039.21,-385.74"/>
</a>
</g>
</g>
<!-- Node8 -->
<g id="Node000008" class="node">
<title>Node8</title>
<g id="a_Node000008"><a xlink:href="exception_8h.html" target="_top" xlink:title=" ">
<polygon fill="white" stroke="#666666" points="450,-79.5 320,-79.5 320,-60.5 450,-60.5 450,-79.5"/>
<text text-anchor="middle" x="385" y="-67.5" font-family="Helvetica,sans-Serif" font-size="10.00">exceptions/exception.h</text>
</a>
</g>
</g>
<!-- Node5&#45;&gt;Node8 -->
<g id="edge7_Node000005_Node000008" class="edge">
<title>Node5&#45;&gt;Node8</title>
<g id="a_edge7_Node000005_Node000008"><a xlink:title=" ">
<path fill="none" stroke="#63b8ff" d="M732.28,-428.65C598.49,-420.24 316,-392.42 316,-307.5 316,-307.5 316,-307.5 316,-190 316,-148.28 348.13,-108.09 368.54,-86.77"/>
<polygon fill="#63b8ff" stroke="#63b8ff" points="371.14,-89.12 375.69,-79.55 366.17,-84.19 371.14,-89.12"/>
</a>
</g>
</g>
<!-- Node12 -->
<g id="Node000012" class="node">
<title>Node12</title>
<g id="a_Node000012"><a xlink:href="simulation_8h.html" target="_top" xlink:title=" ">
<polygon fill="white" stroke="#666666" points="1387,-316 1255,-316 1255,-297 1387,-297 1387,-316"/>
<text text-anchor="middle" x="1321" y="-304" font-family="Helvetica,sans-Serif" font-size="10.00">simulation/simulation.h</text>
</a>
</g>
</g>
<!-- Node5&#45;&gt;Node12 -->
<g id="edge11_Node000005_Node000012" class="edge">
<title>Node5&#45;&gt;Node12</title>
<g id="a_edge11_Node000005_Node000012"><a xlink:title=" ">
<path fill="none" stroke="#63b8ff" d="M800.12,-423.38C798.94,-406.72 799.05,-370.12 820,-352 851.38,-324.86 1112.28,-313.49 1244.63,-309.43"/>
<polygon fill="#63b8ff" stroke="#63b8ff" points="1244.81,-312.93 1254.7,-309.13 1244.6,-305.93 1244.81,-312.93"/>
</a>
</g>
</g>
<!-- Node33 -->
<g id="Node000033" class="node">
<title>Node33</title>
<g id="a_Node000033"><a xlink:href="visualization_8h.html" target="_top" xlink:title=" ">
<polygon fill="white" stroke="#666666" points="772.5,-376.5 619.5,-376.5 619.5,-357.5 772.5,-357.5 772.5,-376.5"/>
<text text-anchor="middle" x="696" y="-364.5" font-family="Helvetica,sans-Serif" font-size="10.00">visualization/visualization.h</text>
</a>
</g>
</g>
<!-- Node5&#45;&gt;Node33 -->
<g id="edge48_Node000005_Node000033" class="edge">
<title>Node5&#45;&gt;Node33</title>
<g id="a_edge48_Node000005_Node000033"><a xlink:title=" ">
<path fill="none" stroke="#63b8ff" d="M786.84,-423.37C769.46,-412.78 739.76,-394.67 719.07,-382.06"/>
<polygon fill="#63b8ff" stroke="#63b8ff" points="720.63,-378.92 710.27,-376.7 716.99,-384.89 720.63,-378.92"/>
</a>
</g>
</g>
<!-- Node38 -->
<g id="Node000038" class="node">
<title>Node38</title>
<g id="a_Node000038"><a xlink:href="imgui__freetype_8h.html" target="_top" xlink:title=" ">
<polygon fill="white" stroke="#666666" points="943,-382 829,-382 829,-352 943,-352 943,-382"/>
<text text-anchor="start" x="837" y="-370" font-family="Helvetica,sans-Serif" font-size="10.00">user_interface/fonts</text>
<text text-anchor="middle" x="886" y="-359" font-family="Helvetica,sans-Serif" font-size="10.00">/imgui_freetype.h</text>
</a>
</g>
</g>
<!-- Node5&#45;&gt;Node38 -->
<g id="edge64_Node000005_Node000038" class="edge">
<title>Node5&#45;&gt;Node38</title>
<g id="a_edge64_Node000005_Node000038"><a xlink:title=" ">
<path fill="none" stroke="#63b8ff" d="M812.46,-423.37C824.32,-414.44 843.25,-400.19 858.94,-388.38"/>
<polygon fill="#63b8ff" stroke="#63b8ff" points="861.37,-390.93 867.25,-382.12 857.16,-385.33 861.37,-390.93"/>
</a>
</g>
</g>
<!-- Node9 -->
<g id="Node000009" class="node">
<title>Node9</title>
<g id="a_Node000009"><a xlink:title=" ">
<polygon fill="#e0e0e0" stroke="#999999" points="448,-19 398,-19 398,0 448,0 448,-19"/>
<text text-anchor="middle" x="423" y="-7" font-family="Helvetica,sans-Serif" font-size="10.00">cstdint</text>
</a>
</g>
</g>
<!-- Node8&#45;&gt;Node9 -->
<g id="edge8_Node000008_Node000009" class="edge">
<title>Node8&#45;&gt;Node9</title>
<g id="a_edge8_Node000008_Node000009"><a xlink:title=" ">
<path fill="none" stroke="#63b8ff" d="M390.61,-60.37C396.16,-51.81 404.83,-38.47 411.8,-27.74"/>
<polygon fill="#63b8ff" stroke="#63b8ff" points="414.86,-29.46 417.37,-19.17 408.99,-25.65 414.86,-29.46"/>
</a>
</g>
</g>
<!-- Node10 -->
<g id="Node000010" class="node">
<title>Node10</title>
<g id="a_Node000010"><a xlink:title=" ">
<polygon fill="#e0e0e0" stroke="#999999" points="379.5,-19 314.5,-19 314.5,0 379.5,0 379.5,-19"/>
<text text-anchor="middle" x="347" y="-7" font-family="Helvetica,sans-Serif" font-size="10.00">exception</text>
</a>
</g>
</g>
<!-- Node8&#45;&gt;Node10 -->
<g id="edge9_Node000008_Node000010" class="edge">
<title>Node8&#45;&gt;Node10</title>
<g id="a_edge9_Node000008_Node000010"><a xlink:title=" ">
<path fill="none" stroke="#63b8ff" d="M379.39,-60.37C373.84,-51.81 365.17,-38.47 358.2,-27.74"/>
<polygon fill="#63b8ff" stroke="#63b8ff" points="361.01,-25.65 352.63,-19.17 355.14,-29.46 361.01,-25.65"/>
</a>
</g>
</g>
<!-- Node11 -->
<g id="Node000011" class="node">
<title>Node11</title>
<g id="a_Node000011"><a xlink:title=" ">
<polygon fill="#e0e0e0" stroke="#999999" points="576,-19 532,-19 532,0 576,0 576,-19"/>
<text text-anchor="middle" x="554" y="-7" font-family="Helvetica,sans-Serif" font-size="10.00">string</text>
</a>
</g>
</g>
<!-- Node8&#45;&gt;Node11 -->
<g id="edge10_Node000008_Node000011" class="edge">
<title>Node8&#45;&gt;Node11</title>
<g id="a_edge10_Node000008_Node000011"><a xlink:title=" ">
<path fill="none" stroke="#63b8ff" d="M409.57,-60.49C439.36,-50.18 489.61,-32.79 522.29,-21.48"/>
<polygon fill="#63b8ff" stroke="#63b8ff" points="523.52,-24.76 531.82,-18.18 521.23,-18.14 523.52,-24.76"/>
</a>
</g>
</g>
<!-- Node12&#45;&gt;Node8 -->
<g id="edge46_Node000012_Node000008" class="edge">
<title>Node12&#45;&gt;Node8</title>
<g id="a_edge46_Node000012_Node000008"><a xlink:title=" ">
<path fill="none" stroke="#63b8ff" d="M1254.76,-302.1C1059.31,-291.52 494.6,-256.83 430,-206 394.18,-177.81 386.62,-120.13 385.19,-90.11"/>
<polygon fill="#63b8ff" stroke="#63b8ff" points="388.67,-89.65 384.89,-79.75 381.68,-89.85 388.67,-89.65"/>
</a>
</g>
</g>
<!-- Node12&#45;&gt;Node11 -->
<g id="edge14_Node000012_Node000011" class="edge">
<title>Node12&#45;&gt;Node11</title>
<g id="a_edge14_Node000012_Node000011"><a xlink:title=" ">
<path fill="none" stroke="#63b8ff" d="M1324.58,-296.85C1333.28,-274.33 1352.83,-213.05 1325,-176 1233.74,-54.5 721.01,-19.27 586.38,-12.05"/>
<polygon fill="#63b8ff" stroke="#63b8ff" points="586.46,-8.55 576.29,-11.53 586.09,-15.54 586.46,-8.55"/>
</a>
</g>
</g>
<!-- Node13 -->
<g id="Node000013" class="node">
<title>Node13</title>
<g id="a_Node000013"><a xlink:title=" ">
<polygon fill="#e0e0e0" stroke="#999999" points="1509.5,-19 1462.5,-19 1462.5,0 1509.5,0 1509.5,-19"/>
<text text-anchor="middle" x="1486" y="-7" font-family="Helvetica,sans-Serif" font-size="10.00">vector</text>
</a>
</g>
</g>
<!-- Node12&#45;&gt;Node13 -->
<g id="edge12_Node000012_Node000013" class="edge">
<title>Node12&#45;&gt;Node13</title>
<g id="a_edge12_Node000012_Node000013"><a xlink:title=" ">
<path fill="none" stroke="#63b8ff" d="M1365.16,-296.98C1417,-284.11 1496,-254.29 1496,-192 1496,-192 1496,-192 1496,-129.5 1496,-93.87 1491.49,-52.44 1488.53,-29.06"/>
<polygon fill="#63b8ff" stroke="#63b8ff" points="1492,-28.6 1487.23,-19.14 1485.06,-29.51 1492,-28.6"/>
</a>
</g>
</g>
<!-- Node14 -->
<g id="Node000014" class="node">
<title>Node14</title>
<g id="a_Node000014"><a xlink:title=" ">
<polygon fill="#e0e0e0" stroke="#999999" points="1316,-200.5 1258,-200.5 1258,-181.5 1316,-181.5 1316,-200.5"/>
<text text-anchor="middle" x="1287" y="-188.5" font-family="Helvetica,sans-Serif" font-size="10.00">memory</text>
</a>
</g>
</g>
<!-- Node12&#45;&gt;Node14 -->
<g id="edge13_Node000012_Node000014" class="edge">
<title>Node12&#45;&gt;Node14</title>
<g id="a_edge13_Node000012_Node000014"><a xlink:title=" ">
<path fill="none" stroke="#63b8ff" d="M1318.44,-296.97C1312.96,-278.65 1299.94,-235.18 1292.48,-210.31"/>
<polygon fill="#63b8ff" stroke="#63b8ff" points="1295.81,-209.2 1289.59,-200.63 1289.1,-211.21 1295.81,-209.2"/>
</a>
</g>
</g>
<!-- Node15 -->
<g id="Node000015" class="node">
<title>Node15</title>
<g id="a_Node000015"><a xlink:title=" ">
<polygon fill="#e0e0e0" stroke="#999999" points="1444,-19 1376,-19 1376,0 1444,0 1444,-19"/>
<text text-anchor="middle" x="1410" y="-7" font-family="Helvetica,sans-Serif" font-size="10.00">filesystem</text>
</a>
</g>
</g>
<!-- Node12&#45;&gt;Node15 -->
<g id="edge15_Node000012_Node000015" class="edge">
<title>Node12&#45;&gt;Node15</title>
<g id="a_edge15_Node000012_Node000015"><a xlink:title=" ">
<path fill="none" stroke="#63b8ff" d="M1358.96,-296.97C1378.49,-290.5 1400.71,-279.46 1413,-261 1461.88,-187.58 1431.43,-73.27 1416.67,-28.94"/>
<polygon fill="#63b8ff" stroke="#63b8ff" points="1419.89,-27.55 1413.31,-19.24 1413.27,-29.84 1419.89,-27.55"/>
</a>
</g>
</g>
<!-- Node16 -->
<g id="Node000016" class="node">
<title>Node16</title>
<g id="a_Node000016"><a xlink:title=" ">
<polygon fill="#e0e0e0" stroke="#999999" points="1138,-19 1088,-19 1088,0 1138,0 1138,-19"/>
<text text-anchor="middle" x="1113" y="-7" font-family="Helvetica,sans-Serif" font-size="10.00">chrono</text>
</a>
</g>
</g>
<!-- Node12&#45;&gt;Node16 -->
<g id="edge16_Node000012_Node000016" class="edge">
<title>Node12&#45;&gt;Node16</title>
<g id="a_edge16_Node000012_Node000016"><a xlink:title=" ">
<path fill="none" stroke="#63b8ff" d="M1331.44,-296.87C1340.42,-288.7 1352.74,-275.55 1358,-261 1370.84,-225.47 1371.13,-211.42 1358,-176 1333.35,-109.51 1313.19,-94.05 1254,-55 1236.5,-43.45 1183.91,-28.52 1148.15,-19.23"/>
<polygon fill="#63b8ff" stroke="#63b8ff" points="1148.65,-15.74 1138.1,-16.65 1146.91,-22.52 1148.65,-15.74"/>
</a>
</g>
</g>
<!-- Node17 -->
<g id="Node000017" class="node">
<title>Node17</title>
<g id="a_Node000017"><a xlink:href="element_8h.html" target="_top" xlink:title=" ">
<polygon fill="white" stroke="#666666" points="1078.5,-261 963.5,-261 963.5,-242 1078.5,-242 1078.5,-261"/>
<text text-anchor="middle" x="1021" y="-249" font-family="Helvetica,sans-Serif" font-size="10.00">elements/element.h</text>
</a>
</g>
</g>
<!-- Node12&#45;&gt;Node17 -->
<g id="edge17_Node000012_Node000017" class="edge">
<title>Node12&#45;&gt;Node17</title>
<g id="a_edge17_Node000012_Node000017"><a xlink:title=" ">
<path fill="none" stroke="#63b8ff" d="M1272.8,-296.98C1220.25,-287.7 1136.15,-272.84 1079.77,-262.88"/>
<polygon fill="#63b8ff" stroke="#63b8ff" points="1080.03,-259.38 1069.58,-261.08 1078.82,-266.27 1080.03,-259.38"/>
</a>
</g>
</g>
<!-- Node26 -->
<g id="Node000026" class="node">
<title>Node26</title>
<g id="a_Node000026"><a xlink:href="utils_8h.html" target="_top" xlink:title=" ">
<polygon fill="white" stroke="#666666" points="1353.5,-79.5 1306.5,-79.5 1306.5,-60.5 1353.5,-60.5 1353.5,-79.5"/>
<text text-anchor="middle" x="1330" y="-67.5" font-family="Helvetica,sans-Serif" font-size="10.00">utils.h</text>
</a>
</g>
</g>
<!-- Node12&#45;&gt;Node26 -->
<g id="edge47_Node000012_Node000026" class="edge">
<title>Node12&#45;&gt;Node26</title>
<g id="a_edge47_Node000012_Node000026"><a xlink:title=" ">
<path fill="none" stroke="#63b8ff" d="M1348.65,-296.98C1365.58,-290.17 1385.89,-278.76 1396,-261 1429.93,-201.42 1372.98,-121.45 1344.6,-87.43"/>
<polygon fill="#63b8ff" stroke="#63b8ff" points="1347.24,-85.13 1338.08,-79.81 1341.92,-89.68 1347.24,-85.13"/>
</a>
</g>
</g>
<!-- Node17&#45;&gt;Node8 -->
<g id="edge25_Node000017_Node000008" class="edge">
<title>Node17&#45;&gt;Node8</title>
<g id="a_edge25_Node000017_Node000008"><a xlink:title=" ">
<path fill="none" stroke="#63b8ff" d="M963.46,-249.27C826.74,-245.88 490.69,-234.7 449,-206 443.75,-202.39 408.82,-124.71 392.89,-88.85"/>
<polygon fill="#63b8ff" stroke="#63b8ff" points="396.03,-87.29 388.78,-79.57 389.63,-90.13 396.03,-87.29"/>
</a>
</g>
</g>
<!-- Node17&#45;&gt;Node11 -->
<g id="edge19_Node000017_Node000011" class="edge">
<title>Node17&#45;&gt;Node11</title>
<g id="a_edge19_Node000017_Node000011"><a xlink:title=" ">
<path fill="none" stroke="#63b8ff" d="M963.16,-248.53C932,-244.14 895.96,-233 876,-206 835.96,-151.83 933.38,-105.67 889,-55 869.21,-32.4 666.67,-17.48 586.46,-12.42"/>
<polygon fill="#63b8ff" stroke="#63b8ff" points="586.62,-8.92 576.42,-11.79 586.19,-15.91 586.62,-8.92"/>
</a>
</g>
</g>
<!-- Node17&#45;&gt;Node13 -->
<g id="edge18_Node000017_Node000013" class="edge">
<title>Node17&#45;&gt;Node13</title>
<g id="a_edge18_Node000017_Node000013"><a xlink:title=" ">
<path fill="none" stroke="#63b8ff" d="M1078.89,-243.66C1117.72,-237.48 1169.19,-226.15 1211,-206 1230.38,-196.66 1231.19,-188.07 1249,-176 1316.09,-130.55 1341.97,-133.35 1407,-85 1431.22,-66.99 1456.04,-42.37 1471.24,-26.45"/>
<polygon fill="#63b8ff" stroke="#63b8ff" points="1473.95,-28.68 1478.26,-19 1468.86,-23.88 1473.95,-28.68"/>
</a>
</g>
</g>
<!-- Node17&#45;&gt;Node14 -->
<g id="edge21_Node000017_Node000014" class="edge">
<title>Node17&#45;&gt;Node14</title>
<g id="a_edge21_Node000017_Node000014"><a xlink:title=" ">
<path fill="none" stroke="#63b8ff" d="M1072.76,-241.95C1118.21,-234.03 1185.95,-221.19 1244,-206 1246.78,-205.27 1249.64,-204.47 1252.5,-203.62"/>
<polygon fill="#63b8ff" stroke="#63b8ff" points="1253.62,-206.94 1262.14,-200.65 1251.55,-200.26 1253.62,-206.94"/>
</a>
</g>
</g>
<!-- Node18 -->
<g id="Node000018" class="node">
<title>Node18</title>
<g id="a_Node000018"><a xlink:title=" ">
<polygon fill="#e0e0e0" stroke="#999999" points="977.5,-200.5 884.5,-200.5 884.5,-181.5 977.5,-181.5 977.5,-200.5"/>
<text text-anchor="middle" x="931" y="-188.5" font-family="Helvetica,sans-Serif" font-size="10.00">unordered_map</text>
</a>
</g>
</g>
<!-- Node17&#45;&gt;Node18 -->
<g id="edge20_Node000017_Node000018" class="edge">
<title>Node17&#45;&gt;Node18</title>
<g id="a_edge20_Node000017_Node000018"><a xlink:title=" ">
<path fill="none" stroke="#63b8ff" d="M1007.72,-241.87C993.36,-232.54 970.24,-217.51 953.13,-206.38"/>
<polygon fill="#63b8ff" stroke="#63b8ff" points="954.63,-203.18 944.33,-200.67 950.81,-209.05 954.63,-203.18"/>
</a>
</g>
</g>
<!-- Node19 -->
<g id="Node000019" class="node">
<title>Node19</title>
<g id="a_Node000019"><a xlink:title=" ">
<polygon fill="#e0e0e0" stroke="#999999" points="1046,-200.5 996,-200.5 996,-181.5 1046,-181.5 1046,-200.5"/>
<text text-anchor="middle" x="1021" y="-188.5" font-family="Helvetica,sans-Serif" font-size="10.00">ranges</text>
</a>
</g>
</g>
<!-- Node17&#45;&gt;Node19 -->
<g id="edge22_Node000017_Node000019" class="edge">
<title>Node17&#45;&gt;Node19</title>
<g id="a_edge22_Node000017_Node000019"><a xlink:title=" ">
<path fill="none" stroke="#63b8ff" d="M1021,-241.87C1021,-233.75 1021,-221.31 1021,-210.89"/>
<polygon fill="#63b8ff" stroke="#63b8ff" points="1024.5,-210.67 1021,-200.67 1017.5,-210.67 1024.5,-210.67"/>
</a>
</g>
</g>
<!-- Node20 -->
<g id="Node000020" class="node">
<title>Node20</title>
<g id="a_Node000020"><a xlink:title=" ">
<polygon fill="#e0e0e0" stroke="#999999" points="1128,-200.5 1064,-200.5 1064,-181.5 1128,-181.5 1128,-200.5"/>
<text text-anchor="middle" x="1096" y="-188.5" font-family="Helvetica,sans-Serif" font-size="10.00">algorithm</text>
</a>
</g>
</g>
<!-- Node17&#45;&gt;Node20 -->
<g id="edge23_Node000017_Node000020" class="edge">
<title>Node17&#45;&gt;Node20</title>
<g id="a_edge23_Node000017_Node000020"><a xlink:title=" ">
<path fill="none" stroke="#63b8ff" d="M1032.07,-241.87C1043.81,-232.71 1062.59,-218.06 1076.76,-207.01"/>
<polygon fill="#63b8ff" stroke="#63b8ff" points="1079.16,-209.58 1084.89,-200.67 1074.85,-204.06 1079.16,-209.58"/>
</a>
</g>
</g>
<!-- Node21 -->
<g id="Node000021" class="node">
<title>Node21</title>
<g id="a_Node000021"><a xlink:title=" ">
<polygon fill="#e0e0e0" stroke="#999999" points="1202,-200.5 1146,-200.5 1146,-181.5 1202,-181.5 1202,-200.5"/>
<text text-anchor="middle" x="1174" y="-188.5" font-family="Helvetica,sans-Serif" font-size="10.00">numeric</text>
</a>
</g>
</g>
<!-- Node17&#45;&gt;Node21 -->
<g id="edge24_Node000017_Node000021" class="edge">
<title>Node17&#45;&gt;Node21</title>
<g id="a_edge24_Node000017_Node000021"><a xlink:title=" ">
<path fill="none" stroke="#63b8ff" d="M1043.25,-241.99C1069.31,-232.03 1112.68,-215.45 1142.27,-204.13"/>
<polygon fill="#63b8ff" stroke="#63b8ff" points="1143.64,-207.36 1151.73,-200.52 1141.14,-200.82 1143.64,-207.36"/>
</a>
</g>
</g>
<!-- Node22 -->
<g id="Node000022" class="node">
<title>Node22</title>
<g id="a_Node000022"><a xlink:href="logger_8h.html" target="_top" xlink:title=" ">
<polygon fill="white" stroke="#666666" points="751.5,-140 668.5,-140 668.5,-121 751.5,-121 751.5,-140"/>
<text text-anchor="middle" x="710" y="-128" font-family="Helvetica,sans-Serif" font-size="10.00">tools/logger.h</text>
</a>
</g>
</g>
<!-- Node17&#45;&gt;Node22 -->
<g id="edge26_Node000017_Node000022" class="edge">
<title>Node17&#45;&gt;Node22</title>
<g id="a_edge26_Node000017_Node000022"><a xlink:title=" ">
<path fill="none" stroke="#63b8ff" d="M971.65,-241.96C935.06,-234.75 884.4,-222.87 842,-206 800.63,-189.54 756.27,-162.29 730.96,-145.7"/>
<polygon fill="#63b8ff" stroke="#63b8ff" points="732.8,-142.73 722.53,-140.12 728.93,-148.56 732.8,-142.73"/>
</a>
</g>
</g>
<!-- Node30 -->
<g id="Node000030" class="node">
<title>Node30</title>
<g id="a_Node000030"><a xlink:href="element__parameters_8h.html" target="_top" xlink:title=" ">
<polygon fill="white" stroke="#666666" points="713.5,-206 582.5,-206 582.5,-176 713.5,-176 713.5,-206"/>
<text text-anchor="start" x="590.5" y="-194" font-family="Helvetica,sans-Serif" font-size="10.00">element_parameters</text>
<text text-anchor="middle" x="648" y="-183" font-family="Helvetica,sans-Serif" font-size="10.00">/element_parameters.h</text>
</a>
</g>
</g>
<!-- Node17&#45;&gt;Node30 -->
<g id="edge41_Node000017_Node000030" class="edge">
<title>Node17&#45;&gt;Node30</title>
<g id="a_edge41_Node000017_Node000030"><a xlink:title=" ">
<path fill="none" stroke="#63b8ff" d="M966.76,-241.99C902.69,-231.95 795.72,-215.17 723.56,-203.85"/>
<polygon fill="#63b8ff" stroke="#63b8ff" points="724.04,-200.38 713.62,-202.29 722.96,-207.3 724.04,-200.38"/>
</a>
</g>
</g>
<!-- Node22&#45;&gt;Node8 -->
<g id="edge32_Node000022_Node000008" class="edge">
<title>Node22&#45;&gt;Node8</title>
<g id="a_edge32_Node000022_Node000008"><a xlink:title=" ">
<path fill="none" stroke="#63b8ff" d="M668.18,-121.97C610.73,-111.63 507.19,-92.99 442.49,-81.35"/>
<polygon fill="#63b8ff" stroke="#63b8ff" points="442.92,-77.87 432.46,-79.54 441.68,-84.76 442.92,-77.87"/>
</a>
</g>
</g>
<!-- Node22&#45;&gt;Node11 -->
<g id="edge28_Node000022_Node000011" class="edge">
<title>Node22&#45;&gt;Node11</title>
<g id="a_edge28_Node000022_Node000011"><a xlink:title=" ">
<path fill="none" stroke="#63b8ff" d="M669.73,-120.95C634.3,-112.64 586.34,-99.23 573,-85 558.91,-69.97 554.9,-45.97 553.94,-29.29"/>
<polygon fill="#63b8ff" stroke="#63b8ff" points="557.44,-29.02 553.68,-19.11 550.44,-29.2 557.44,-29.02"/>
</a>
</g>
</g>
<!-- Node22&#45;&gt;Node16 -->
<g id="edge29_Node000022_Node000016" class="edge">
<title>Node22&#45;&gt;Node16</title>
<g id="a_edge29_Node000022_Node000016"><a xlink:title=" ">
<path fill="none" stroke="#63b8ff" d="M722.44,-120.75C735.02,-111.87 754.99,-97.64 772,-85 789.55,-71.96 790.87,-63.54 811,-55 901.72,-16.54 1019.96,-10.47 1077.9,-10.03"/>
<polygon fill="#63b8ff" stroke="#63b8ff" points="1078,-13.53 1087.99,-10.01 1077.99,-6.53 1078,-13.53"/>
</a>
</g>
</g>
<!-- Node23 -->
<g id="Node000023" class="node">
<title>Node23</title>
<g id="a_Node000023"><a xlink:title=" ">
<polygon fill="#e0e0e0" stroke="#999999" points="880,-79.5 820,-79.5 820,-60.5 880,-60.5 880,-79.5"/>
<text text-anchor="middle" x="850" y="-67.5" font-family="Helvetica,sans-Serif" font-size="10.00">iostream</text>
</a>
</g>
</g>
<!-- Node22&#45;&gt;Node23 -->
<g id="edge27_Node000022_Node000023" class="edge">
<title>Node22&#45;&gt;Node23</title>
<g id="a_edge27_Node000022_Node000023"><a xlink:title=" ">
<path fill="none" stroke="#63b8ff" d="M730.36,-120.99C754,-111.12 793.2,-94.73 820.25,-83.43"/>
<polygon fill="#63b8ff" stroke="#63b8ff" points="821.74,-86.6 829.62,-79.52 819.04,-80.14 821.74,-86.6"/>
</a>
</g>
</g>
<!-- Node24 -->
<g id="Node000024" class="node">
<title>Node24</title>
<g id="a_Node000024"><a xlink:title=" ">
<polygon fill="#e0e0e0" stroke="#999999" points="638,-79.5 582,-79.5 582,-60.5 638,-60.5 638,-79.5"/>
<text text-anchor="middle" x="610" y="-67.5" font-family="Helvetica,sans-Serif" font-size="10.00">iomanip</text>
</a>
</g>
</g>
<!-- Node22&#45;&gt;Node24 -->
<g id="edge30_Node000022_Node000024" class="edge">
<title>Node22&#45;&gt;Node24</title>
<g id="a_edge30_Node000022_Node000024"><a xlink:title=" ">
<path fill="none" stroke="#63b8ff" d="M695.24,-120.87C679,-111.36 652.65,-95.95 633.54,-84.77"/>
<polygon fill="#63b8ff" stroke="#63b8ff" points="635.21,-81.7 624.82,-79.67 631.68,-87.74 635.21,-81.7"/>
</a>
</g>
</g>
<!-- Node25 -->
<g id="Node000025" class="node">
<title>Node25</title>
<g id="a_Node000025"><a xlink:title=" ">
<polygon fill="#e0e0e0" stroke="#999999" points="763.5,-85 656.5,-85 656.5,-55 763.5,-55 763.5,-85"/>
<text text-anchor="start" x="664.5" y="-73" font-family="Helvetica,sans-Serif" font-size="10.00">imgui&#45;platform&#45;kit</text>
<text text-anchor="middle" x="710" y="-62" font-family="Helvetica,sans-Serif" font-size="10.00">/log_window.h</text>
</a>
</g>
</g>
<!-- Node22&#45;&gt;Node25 -->
<g id="edge31_Node000022_Node000025" class="edge">
<title>Node22&#45;&gt;Node25</title>
<g id="a_edge31_Node000022_Node000025"><a xlink:title=" ">
<path fill="none" stroke="#63b8ff" d="M710,-120.87C710,-114.11 710,-104.35 710,-95.26"/>
<polygon fill="#63b8ff" stroke="#63b8ff" points="713.5,-95.11 710,-85.11 706.5,-95.11 713.5,-95.11"/>
</a>
</g>
</g>
<!-- Node22&#45;&gt;Node26 -->
<g id="edge33_Node000022_Node000026" class="edge">
<title>Node22&#45;&gt;Node26</title>
<g id="a_edge33_Node000022_Node000026"><a xlink:title=" ">
<path fill="none" stroke="#63b8ff" d="M751.64,-125.57C867.27,-114.66 1190.69,-84.14 1296.23,-74.19"/>
<polygon fill="#63b8ff" stroke="#63b8ff" points="1296.68,-77.66 1306.31,-73.24 1296.03,-70.69 1296.68,-77.66"/>
</a>
</g>
</g>
<!-- Node26&#45;&gt;Node11 -->
<g id="edge34_Node000026_Node000011" class="edge">
<title>Node26&#45;&gt;Node11</title>
<g id="a_edge34_Node000026_Node000011"><a xlink:title=" ">
<path fill="none" stroke="#63b8ff" d="M1306.49,-63.92C1291.53,-60.88 1271.71,-57.19 1254,-55 997.76,-23.37 685.8,-13.61 586.19,-11.19"/>
<polygon fill="#63b8ff" stroke="#63b8ff" points="586.24,-7.69 576.16,-10.95 586.07,-14.69 586.24,-7.69"/>
</a>
</g>
</g>
<!-- Node26&#45;&gt;Node13 -->
<g id="edge35_Node000026_Node000013" class="edge">
<title>Node26&#45;&gt;Node13</title>
<g id="a_edge35_Node000026_Node000013"><a xlink:title=" ">
<path fill="none" stroke="#63b8ff" d="M1352.68,-60.49C1379.26,-50.53 1423.48,-33.95 1453.64,-22.63"/>
<polygon fill="#63b8ff" stroke="#63b8ff" points="1455.15,-25.81 1463.29,-19.02 1452.7,-19.25 1455.15,-25.81"/>
</a>
</g>
</g>
<!-- Node26&#45;&gt;Node15 -->
<g id="edge40_Node000026_Node000015" class="edge">
<title>Node26&#45;&gt;Node15</title>
<g id="a_edge40_Node000026_Node000015"><a xlink:title=" ">
<path fill="none" stroke="#63b8ff" d="M1341.8,-60.37C1354.45,-51.12 1374.74,-36.28 1389.91,-25.19"/>
<polygon fill="#63b8ff" stroke="#63b8ff" points="1392.14,-27.9 1398.15,-19.17 1388.01,-22.24 1392.14,-27.9"/>
</a>
</g>
</g>
<!-- Node26&#45;&gt;Node16 -->
<g id="edge39_Node000026_Node000016" class="edge">
<title>Node26&#45;&gt;Node16</title>
<g id="a_edge39_Node000026_Node000016"><a xlink:title=" ">
<path fill="none" stroke="#63b8ff" d="M1308.04,-60.44C1302.82,-58.54 1297.24,-56.61 1292,-55 1285.06,-52.86 1197.99,-31.39 1147.89,-19.07"/>
<polygon fill="#63b8ff" stroke="#63b8ff" points="1148.65,-15.65 1138.11,-16.66 1146.98,-22.45 1148.65,-15.65"/>
</a>
</g>
</g>
<!-- Node27 -->
<g id="Node000027" class="node">
<title>Node27</title>
<g id="a_Node000027"><a xlink:title=" ">
<polygon fill="#e0e0e0" stroke="#999999" points="1284,-19 1230,-19 1230,0 1284,0 1284,-19"/>
<text text-anchor="middle" x="1257" y="-7" font-family="Helvetica,sans-Serif" font-size="10.00">random</text>
</a>
</g>
</g>
<!-- Node26&#45;&gt;Node27 -->
<g id="edge36_Node000026_Node000027" class="edge">
<title>Node26&#45;&gt;Node27</title>
<g id="a_edge36_Node000026_Node000027"><a xlink:title=" ">
<path fill="none" stroke="#63b8ff" d="M1319.23,-60.37C1307.8,-51.21 1289.52,-36.56 1275.72,-25.51"/>
<polygon fill="#63b8ff" stroke="#63b8ff" points="1277.81,-22.69 1267.82,-19.17 1273.43,-28.15 1277.81,-22.69"/>
</a>
</g>
</g>
<!-- Node28 -->
<g id="Node000028" class="node">
<title>Node28</title>
<g id="a_Node000028"><a xlink:title=" ">
<polygon fill="#e0e0e0" stroke="#999999" points="1358,-19 1302,-19 1302,0 1358,0 1358,-19"/>
<text text-anchor="middle" x="1330" y="-7" font-family="Helvetica,sans-Serif" font-size="10.00">sstream</text>
</a>
</g>
</g>
<!-- Node26&#45;&gt;Node28 -->
<g id="edge37_Node000026_Node000028" class="edge">
<title>Node26&#45;&gt;Node28</title>
<g id="a_edge37_Node000026_Node000028"><a xlink:title=" ">
<path fill="none" stroke="#63b8ff" d="M1330,-60.37C1330,-52.25 1330,-39.81 1330,-29.39"/>
<polygon fill="#63b8ff" stroke="#63b8ff" points="1333.5,-29.17 1330,-19.17 1326.5,-29.17 1333.5,-29.17"/>
</a>
</g>
</g>
<!-- Node29 -->
<g id="Node000029" class="node">
<title>Node29</title>
<g id="a_Node000029"><a xlink:title=" ">
<polygon fill="#e0e0e0" stroke="#999999" points="1211.5,-19 1156.5,-19 1156.5,0 1211.5,0 1211.5,-19"/>
<text text-anchor="middle" x="1184" y="-7" font-family="Helvetica,sans-Serif" font-size="10.00">fstream</text>
</a>
</g>
</g>
<!-- Node26&#45;&gt;Node29 -->
<g id="edge38_Node000026_Node000029" class="edge">
<title>Node26&#45;&gt;Node29</title>
<g id="a_edge38_Node000026_Node000029"><a xlink:title=" ">
<path fill="none" stroke="#63b8ff" d="M1308.77,-60.49C1284.01,-50.57 1242.88,-34.09 1214.65,-22.78"/>
<polygon fill="#63b8ff" stroke="#63b8ff" points="1215.84,-19.49 1205.26,-19.02 1213.24,-25.99 1215.84,-19.49"/>
</a>
</g>
</g>
<!-- Node30&#45;&gt;Node11 -->
<g id="edge43_Node000030_Node000011" class="edge">
<title>Node30&#45;&gt;Node11</title>
<g id="a_edge43_Node000030_Node000011"><a xlink:title=" ">
<path fill="none" stroke="#63b8ff" d="M627.66,-175.82C604.14,-157.9 567.09,-124.59 555,-85 549.4,-66.66 549.95,-44.59 551.4,-29.25"/>
<polygon fill="#63b8ff" stroke="#63b8ff" points="554.92,-29.34 552.61,-19 547.96,-28.53 554.92,-29.34"/>
</a>
</g>
</g>
<!-- Node30&#45;&gt;Node22 -->
<g id="edge45_Node000030_Node000022" class="edge">
<title>Node30&#45;&gt;Node22</title>
<g id="a_edge45_Node000030_Node000022"><a xlink:title=" ">
<path fill="none" stroke="#63b8ff" d="M663.01,-175.84C672.19,-167.17 683.95,-156.08 693.41,-147.15"/>
<polygon fill="#63b8ff" stroke="#63b8ff" points="695.84,-149.67 700.71,-140.27 691.03,-144.58 695.84,-149.67"/>
</a>
</g>
</g>
<!-- Node31 -->
<g id="Node000031" class="node">
<title>Node31</title>
<g id="a_Node000031"><a xlink:title=" ">
<polygon fill="#e0e0e0" stroke="#999999" points="544,-140 506,-140 506,-121 544,-121 544,-140"/>
<text text-anchor="middle" x="525" y="-128" font-family="Helvetica,sans-Serif" font-size="10.00">map</text>
</a>
</g>
</g>
<!-- Node30&#45;&gt;Node31 -->
<g id="edge42_Node000030_Node000031" class="edge">
<title>Node30&#45;&gt;Node31</title>
<g id="a_edge42_Node000030_Node000031"><a xlink:title=" ">
<path fill="none" stroke="#63b8ff" d="M618.54,-175.99C598.38,-166.4 571.86,-153.79 552.2,-144.44"/>
<polygon fill="#63b8ff" stroke="#63b8ff" points="553.7,-141.27 543.16,-140.14 550.69,-147.6 553.7,-141.27"/>
</a>
</g>
</g>
<!-- Node32 -->
<g id="Node000032" class="node">
<title>Node32</title>
<g id="a_Node000032"><a xlink:title=" ">
<polygon fill="#e0e0e0" stroke="#999999" points="650,-140 600,-140 600,-121 650,-121 650,-140"/>
<text text-anchor="middle" x="625" y="-128" font-family="Helvetica,sans-Serif" font-size="10.00">format</text>
</a>
</g>
</g>
<!-- Node30&#45;&gt;Node32 -->
<g id="edge44_Node000030_Node000032" class="edge">
<title>Node30&#45;&gt;Node32</title>
<g id="a_edge44_Node000030_Node000032"><a xlink:title=" ">
<path fill="none" stroke="#63b8ff" d="M642.43,-175.84C639.33,-167.95 635.44,-158.05 632.12,-149.61"/>
<polygon fill="#63b8ff" stroke="#63b8ff" points="635.36,-148.29 628.45,-140.27 628.85,-150.85 635.36,-148.29"/>
</a>
</g>
</g>
<!-- Node33&#45;&gt;Node8 -->
<g id="edge52_Node000033_Node000008" class="edge">
<title>Node33&#45;&gt;Node8</title>
<g id="a_edge52_Node000033_Node000008"><a xlink:title=" ">
<path fill="none" stroke="#63b8ff" d="M619.31,-361.41C540.13,-355.33 423.17,-342.15 387,-316 361.22,-297.37 354,-284.31 354,-252.5 354,-252.5 354,-252.5 354,-190 354,-153.32 367.96,-112.28 377.14,-89.25"/>
<polygon fill="#63b8ff" stroke="#63b8ff" points="380.49,-90.33 381.07,-79.75 374.02,-87.66 380.49,-90.33"/>
</a>
</g>
</g>
<!-- Node33&#45;&gt;Node12 -->
<g id="edge51_Node000033_Node000012" class="edge">
<title>Node33&#45;&gt;Node12</title>
<g id="a_edge51_Node000033_Node000012"><a xlink:title=" ">
<path fill="none" stroke="#63b8ff" d="M747.41,-357.45C760.31,-355.48 774.14,-353.52 787,-352 949.5,-332.75 1140.79,-318.95 1244.59,-312.19"/>
<polygon fill="#63b8ff" stroke="#63b8ff" points="1244.91,-315.68 1254.67,-311.54 1244.46,-308.69 1244.91,-315.68"/>
</a>
</g>
</g>
<!-- Node33&#45;&gt;Node13 -->
<g id="edge50_Node000033_Node000013" class="edge">
<title>Node33&#45;&gt;Node13</title>
<g id="a_edge50_Node000033_Node000013"><a xlink:title=" ">
<path fill="none" stroke="#63b8ff" d="M766.11,-357.47C783.69,-355.5 802.52,-353.53 820,-352 1075.52,-329.6 1147.28,-378.67 1396,-316 1461.47,-299.5 1534,-320.01 1534,-252.5 1534,-252.5 1534,-252.5 1534,-129.5 1534,-90.9 1512.02,-50.05 1497.8,-27.67"/>
<polygon fill="#63b8ff" stroke="#63b8ff" points="1500.7,-25.69 1492.28,-19.26 1494.85,-29.54 1500.7,-25.69"/>
</a>
</g>
</g>
<!-- Node33&#45;&gt;Node22 -->
<g id="edge59_Node000033_Node000022" class="edge">
<title>Node33&#45;&gt;Node22</title>
<g id="a_edge59_Node000033_Node000022"><a xlink:title=" ">
<path fill="none" stroke="#63b8ff" d="M702.42,-357.35C709.07,-347.79 719.04,-331.69 723,-316 727.8,-297.02 751.14,-389.22 722,-176 720.81,-167.28 718.42,-157.84 716.09,-149.9"/>
<polygon fill="#63b8ff" stroke="#63b8ff" points="719.39,-148.73 713.07,-140.23 712.71,-150.82 719.39,-148.73"/>
</a>
</g>
</g>
<!-- Node33&#45;&gt;Node23 -->
<g id="edge49_Node000033_Node000023" class="edge">
<title>Node33&#45;&gt;Node23</title>
<g id="a_edge49_Node000033_Node000023"><a xlink:title=" ">
<path fill="none" stroke="#63b8ff" d="M708.76,-357.36C732.26,-340.3 780,-299.81 780,-252.5 780,-252.5 780,-252.5 780,-190 780,-148.13 812.59,-107.99 833.3,-86.72"/>
<polygon fill="#63b8ff" stroke="#63b8ff" points="835.92,-89.05 840.56,-79.52 830.99,-84.08 835.92,-89.05"/>
</a>
</g>
</g>
<!-- Node34 -->
<g id="Node000034" class="node">
<title>Node34</title>
<g id="a_Node000034"><a xlink:href="plot_8h.html" target="_top" xlink:title=" ">
<polygon fill="white" stroke="#666666" points="485,-261 441,-261 441,-242 485,-242 485,-261"/>
<text text-anchor="middle" x="463" y="-249" font-family="Helvetica,sans-Serif" font-size="10.00">plot.h</text>
</a>
</g>
</g>
<!-- Node33&#45;&gt;Node34 -->
<g id="edge53_Node000033_Node000034" class="edge">
<title>Node33&#45;&gt;Node34</title>
<g id="a_edge53_Node000033_Node000034"><a xlink:title=" ">
<path fill="none" stroke="#63b8ff" d="M673.3,-357.33C649.11,-347.89 609.84,-331.99 577,-316 544.74,-300.3 508.76,-279.72 486.02,-266.31"/>
<polygon fill="#63b8ff" stroke="#63b8ff" points="487.51,-263.13 477.13,-261.04 483.94,-269.15 487.51,-263.13"/>
</a>
</g>
</g>
<!-- Node36 -->
<g id="Node000036" class="node">
<title>Node36</title>
<g id="a_Node000036"><a xlink:href="lineplot_8h.html" target="_top" xlink:title=" ">
<polygon fill="white" stroke="#666666" points="714,-316 586,-316 586,-297 714,-297 714,-316"/>
<text text-anchor="middle" x="650" y="-304" font-family="Helvetica,sans-Serif" font-size="10.00">visualization/lineplot.h</text>
</a>
</g>
</g>
<!-- Node33&#45;&gt;Node36 -->
<g id="edge60_Node000033_Node000036" class="edge">
<title>Node33&#45;&gt;Node36</title>
<g id="a_edge60_Node000033_Node000036"><a xlink:title=" ">
<path fill="none" stroke="#63b8ff" d="M689.21,-357.37C682.35,-348.64 671.57,-334.93 663.05,-324.09"/>
<polygon fill="#63b8ff" stroke="#63b8ff" points="665.75,-321.86 656.82,-316.17 660.25,-326.19 665.75,-321.86"/>
</a>
</g>
</g>
<!-- Node37 -->
<g id="Node000037" class="node">
<title>Node37</title>
<g id="a_Node000037"><a xlink:href="heatmap_8h.html" target="_top" xlink:title=" ">
<polygon fill="white" stroke="#666666" points="530,-316 396,-316 396,-297 530,-297 530,-316"/>
<text text-anchor="middle" x="463" y="-304" font-family="Helvetica,sans-Serif" font-size="10.00">visualization/heatmap.h</text>
</a>
</g>
</g>
<!-- Node33&#45;&gt;Node37 -->
<g id="edge62_Node000033_Node000037" class="edge">
<title>Node33&#45;&gt;Node37</title>
<g id="a_edge62_Node000033_Node000037"><a xlink:title=" ">
<path fill="none" stroke="#63b8ff" d="M662.12,-357.49C621.05,-347.18 551.76,-329.78 506.7,-318.47"/>
<polygon fill="#63b8ff" stroke="#63b8ff" points="507.47,-315.06 496.92,-316.02 505.77,-321.85 507.47,-315.06"/>
</a>
</g>
</g>
<!-- Node35 -->
<g id="Node000035" class="node">
<title>Node35</title>
<g id="a_Node000035"><a xlink:href="plot__parameters_8h.html" target="_top" xlink:title=" ">
<polygon fill="white" stroke="#666666" points="564,-200.5 458,-200.5 458,-181.5 564,-181.5 564,-200.5"/>
<text text-anchor="middle" x="511" y="-188.5" font-family="Helvetica,sans-Serif" font-size="10.00">plot_parameters.h</text>
</a>
</g>
</g>
<!-- Node34&#45;&gt;Node35 -->
<g id="edge54_Node000034_Node000035" class="edge">
<title>Node34&#45;&gt;Node35</title>
<g id="a_edge54_Node000034_Node000035"><a xlink:title=" ">
<path fill="none" stroke="#63b8ff" d="M470.08,-241.87C477.24,-233.14 488.49,-219.43 497.39,-208.59"/>
<polygon fill="#63b8ff" stroke="#63b8ff" points="500.25,-210.62 503.89,-200.67 494.84,-206.18 500.25,-210.62"/>
</a>
</g>
</g>
<!-- Node35&#45;&gt;Node11 -->
<g id="edge56_Node000035_Node000011" class="edge">
<title>Node35&#45;&gt;Node11</title>
<g id="a_edge56_Node000035_Node000011"><a xlink:title=" ">
<path fill="none" stroke="#63b8ff" d="M507.48,-181.17C499.09,-158.68 480.22,-97.95 502,-55 508.21,-42.75 519.42,-32.48 529.85,-24.91"/>
<polygon fill="#63b8ff" stroke="#63b8ff" points="531.97,-27.7 538.29,-19.2 528.05,-21.91 531.97,-27.7"/>
</a>
</g>
</g>
<!-- Node35&#45;&gt;Node13 -->
<g id="edge57_Node000035_Node000013" class="edge">
<title>Node35&#45;&gt;Node13</title>
<g id="a_edge57_Node000035_Node000013"><a xlink:title=" ">
<path fill="none" stroke="#63b8ff" d="M545.63,-181.49C554.51,-179.5 564.08,-177.52 573,-176 921.43,-116.77 1028.6,-199.41 1363,-85 1403.04,-71.3 1443.98,-43.08 1467.07,-25.58"/>
<polygon fill="#63b8ff" stroke="#63b8ff" points="1469.51,-28.12 1475.29,-19.23 1465.23,-22.58 1469.51,-28.12"/>
</a>
</g>
</g>
<!-- Node35&#45;&gt;Node22 -->
<g id="edge58_Node000035_Node000022" class="edge">
<title>Node35&#45;&gt;Node22</title>
<g id="a_edge58_Node000035_Node000022"><a xlink:title=" ">
<path fill="none" stroke="#63b8ff" d="M539.94,-181.49C574.57,-171.31 632.7,-154.22 671.21,-142.9"/>
<polygon fill="#63b8ff" stroke="#63b8ff" points="672.42,-146.2 681.03,-140.02 670.45,-139.48 672.42,-146.2"/>
</a>
</g>
</g>
<!-- Node35&#45;&gt;Node31 -->
<g id="edge55_Node000035_Node000031" class="edge">
<title>Node35&#45;&gt;Node31</title>
<g id="a_edge55_Node000035_Node000031"><a xlink:title=" ">
<path fill="none" stroke="#63b8ff" d="M513.07,-181.37C515.03,-173.16 518.05,-160.54 520.56,-150.05"/>
<polygon fill="#63b8ff" stroke="#63b8ff" points="524,-150.71 522.93,-140.17 517.19,-149.08 524,-150.71"/>
</a>
</g>
</g>
<!-- Node36&#45;&gt;Node34 -->
<g id="edge61_Node000036_Node000034" class="edge">
<title>Node36&#45;&gt;Node34</title>
<g id="a_edge61_Node000036_Node000034"><a xlink:title=" ">
<path fill="none" stroke="#63b8ff" d="M619.96,-296.98C585.66,-287.26 529.79,-271.43 494.78,-261.51"/>
<polygon fill="#63b8ff" stroke="#63b8ff" points="495.64,-258.11 485.07,-258.75 493.73,-264.85 495.64,-258.11"/>
</a>
</g>
</g>
<!-- Node37&#45;&gt;Node34 -->
<g id="edge63_Node000037_Node000034" class="edge">
<title>Node37&#45;&gt;Node34</title>
<g id="a_edge63_Node000037_Node000034"><a xlink:title=" ">
<path fill="none" stroke="#63b8ff" d="M463,-296.75C463,-289.8 463,-279.85 463,-271.13"/>
<polygon fill="#63b8ff" stroke="#63b8ff" points="466.5,-271.09 463,-261.09 459.5,-271.09 466.5,-271.09"/>
</a>
</g>
</g>
<!-- Node39 -->
<g id="Node000039" class="node">
<title>Node39</title>
<g id="a_Node000039"><a xlink:title=" ">
<polygon fill="#e0e0e0" stroke="#999999" points="1615.5,-316 1562.5,-316 1562.5,-297 1615.5,-297 1615.5,-316"/>
<text text-anchor="middle" x="1589" y="-304" font-family="Helvetica,sans-Serif" font-size="10.00">imgui.h</text>
</a>
</g>
</g>
<!-- Node38&#45;&gt;Node39 -->
<g id="edge65_Node000038_Node000039" class="edge">
<title>Node38&#45;&gt;Node39</title>
<g id="a_edge65_Node000038_Node000039"><a xlink:title=" ">
<path fill="none" stroke="#63b8ff" d="M943.29,-353.46C946.57,-352.92 949.82,-352.43 953,-352 1215.58,-316.81 1285.39,-350.98 1548,-316 1549.3,-315.83 1550.61,-315.64 1551.94,-315.43"/>
<polygon fill="#63b8ff" stroke="#63b8ff" points="1552.94,-318.81 1562.19,-313.64 1551.73,-311.92 1552.94,-318.81"/>
</a>
</g>
</g>
</g>
</svg>
