<?xml version="1.0" encoding="UTF-8" standalone="no"?>
<!DOCTYPE svg PUBLIC "-//W3C//DTD SVG 1.1//EN"
 "http://www.w3.org/Graphics/SVG/1.1/DTD/svg11.dtd">
<!-- Generated by graphviz version 2.43.0 (0)
 -->
<!-- Title: include/user_interface/fonts/IconsFontAwesome6.h Pages: 1 -->
<svg width="1613pt" height="368pt"
 viewBox="0.00 0.00 1612.63 368.00" xmlns="http://www.w3.org/2000/svg" xmlns:xlink="http://www.w3.org/1999/xlink">
<g id="graph0" class="graph" transform="scale(1 1) rotate(0) translate(4 364)">
<title>include/user_interface/fonts/IconsFontAwesome6.h</title>
<!-- Node1 -->
<g id="Node000001" class="node">
<title>Node1</title>
<g id="a_Node000001"><a xlink:title=" ">
<polygon fill="#999999" stroke="#666666" points="803.13,-360 646.13,-360 646.13,-330 803.13,-330 803.13,-360"/>
<text text-anchor="start" x="654.13" y="-348" font-family="Helvetica,sans-Serif" font-size="10.00">include/user_interface</text>
<text text-anchor="middle" x="724.63" y="-337" font-family="Helvetica,sans-Serif" font-size="10.00">/fonts/IconsFontAwesome6.h</text>
</a>
</g>
</g>
<!-- Node2 -->
<g id="Node000002" class="node">
<title>Node2</title>
<g id="a_Node000002"><a xlink:href="help__window_8h.html" target="_top" xlink:title=" ">
<polygon fill="white" stroke="#666666" points="209.13,-294 84.13,-294 84.13,-264 209.13,-264 209.13,-294"/>
<text text-anchor="start" x="92.13" y="-282" font-family="Helvetica,sans-Serif" font-size="10.00">include/user_interface</text>
<text text-anchor="middle" x="146.63" y="-271" font-family="Helvetica,sans-Serif" font-size="10.00">/help_window.h</text>
</a>
</g>
</g>
<!-- Node1&#45;&gt;Node2 -->
<g id="edge1_Node000001_Node000002" class="edge">
<title>Node1&#45;&gt;Node2</title>
<g id="a_edge1_Node000001_Node000002"><a xlink:title=" ">
<path fill="none" stroke="#63b8ff" d="M636.08,-337C536.5,-328.68 370.1,-313.45 227.63,-294 221.69,-293.19 215.52,-292.27 209.35,-291.29"/>
<polygon fill="#63b8ff" stroke="#63b8ff" points="635.84,-340.49 646.09,-337.83 636.42,-333.51 635.84,-340.49"/>
</a>
</g>
</g>
<!-- Node7 -->
<g id="Node000007" class="node">
<title>Node7</title>
<g id="a_Node000007"><a xlink:href="static__layout_8cpp.html" target="_top" xlink:title=" ">
<polygon fill="white" stroke="#666666" points="131.63,-96 27.63,-96 27.63,-66 131.63,-66 131.63,-96"/>
<text text-anchor="start" x="35.63" y="-84" font-family="Helvetica,sans-Serif" font-size="10.00">src/user_interface</text>
<text text-anchor="middle" x="79.63" y="-73" font-family="Helvetica,sans-Serif" font-size="10.00">/static_layout.cpp</text>
</a>
</g>
</g>
<!-- Node1&#45;&gt;Node7 -->
<g id="edge31_Node000001_Node000007" class="edge">
<title>Node1&#45;&gt;Node7</title>
<g id="a_edge31_Node000001_Node000007"><a xlink:title=" ">
<path fill="none" stroke="#63b8ff" d="M635.77,-344.34C481.89,-343.75 172.87,-337.03 74.63,-294 26.02,-272.71 -11.54,-248.85 3.63,-198 15.88,-156.93 47.84,-116.89 66.18,-96.31"/>
<polygon fill="#63b8ff" stroke="#63b8ff" points="636.12,-347.84 646.13,-344.37 636.14,-340.84 636.12,-347.84"/>
</a>
</g>
</g>
<!-- Node9 -->
<g id="Node000009" class="node">
<title>Node9</title>
<g id="a_Node000009"><a xlink:href="simulation__window_8cpp.html" target="_top" xlink:title=" ">
<polygon fill="white" stroke="#666666" points="306.63,-228 172.63,-228 172.63,-198 306.63,-198 306.63,-228"/>
<text text-anchor="start" x="180.63" y="-216" font-family="Helvetica,sans-Serif" font-size="10.00">src/user_interface</text>
<text text-anchor="middle" x="239.63" y="-205" font-family="Helvetica,sans-Serif" font-size="10.00">/simulation_window.cpp</text>
</a>
</g>
</g>
<!-- Node1&#45;&gt;Node9 -->
<g id="edge30_Node000001_Node000009" class="edge">
<title>Node1&#45;&gt;Node9</title>
<g id="a_edge30_Node000001_Node000009"><a xlink:title=" ">
<path fill="none" stroke="#63b8ff" d="M635.86,-340.42C531.99,-334.99 367.25,-322.16 312.63,-294 283.22,-278.84 259.74,-246.71 247.94,-228.11"/>
<polygon fill="#63b8ff" stroke="#63b8ff" points="635.86,-343.92 646.02,-340.94 636.21,-336.93 635.86,-343.92"/>
</a>
</g>
</g>
<!-- Node10 -->
<g id="Node000010" class="node">
<title>Node10</title>
<g id="a_Node000010"><a xlink:href="log__window_8h.html" target="_top" xlink:title=" ">
<polygon fill="white" stroke="#666666" points="641.13,-294 516.13,-294 516.13,-264 641.13,-264 641.13,-294"/>
<text text-anchor="start" x="524.13" y="-282" font-family="Helvetica,sans-Serif" font-size="10.00">include/user_interface</text>
<text text-anchor="middle" x="578.63" y="-271" font-family="Helvetica,sans-Serif" font-size="10.00">/log_window.h</text>
</a>
</g>
</g>
<!-- Node1&#45;&gt;Node10 -->
<g id="edge9_Node000001_Node000010" class="edge">
<title>Node1&#45;&gt;Node10</title>
<g id="a_edge9_Node000001_Node000010"><a xlink:title=" ">
<path fill="none" stroke="#63b8ff" d="M683.38,-325.92C660.31,-315.8 631.97,-303.38 610.6,-294.01"/>
<polygon fill="#63b8ff" stroke="#63b8ff" points="682.03,-329.15 692.59,-329.95 684.84,-322.73 682.03,-329.15"/>
</a>
</g>
</g>
<!-- Node13 -->
<g id="Node000013" class="node">
<title>Node13</title>
<g id="a_Node000013"><a xlink:href="control__bar__window_8cpp.html" target="_top" xlink:title=" ">
<polygon fill="white" stroke="#666666" points="930.13,-162 793.13,-162 793.13,-132 930.13,-132 930.13,-162"/>
<text text-anchor="start" x="801.13" y="-150" font-family="Helvetica,sans-Serif" font-size="10.00">src/user_interface</text>
<text text-anchor="middle" x="861.63" y="-139" font-family="Helvetica,sans-Serif" font-size="10.00">/control_bar_window.cpp</text>
</a>
</g>
</g>
<!-- Node1&#45;&gt;Node13 -->
<g id="edge25_Node000001_Node000013" class="edge">
<title>Node1&#45;&gt;Node13</title>
<g id="a_edge25_Node000001_Node000013"><a xlink:title=" ">
<path fill="none" stroke="#63b8ff" d="M703.02,-321.96C688.69,-304.66 674.98,-280.79 689.63,-264 767.19,-175.1 875.07,-316.9 952.63,-228 975.03,-202.32 932.64,-177.11 898.49,-162.05"/>
<polygon fill="#63b8ff" stroke="#63b8ff" points="700.74,-324.67 709.98,-329.86 705.99,-320.04 700.74,-324.67"/>
</a>
</g>
</g>
<!-- Node16 -->
<g id="Node000016" class="node">
<title>Node16</title>
<g id="a_Node000016"><a xlink:href="simulation__window_8h.html" target="_top" xlink:title=" ">
<polygon fill="white" stroke="#666666" points="447.13,-294 322.13,-294 322.13,-264 447.13,-264 447.13,-294"/>
<text text-anchor="start" x="330.13" y="-282" font-family="Helvetica,sans-Serif" font-size="10.00">include/user_interface</text>
<text text-anchor="middle" x="384.63" y="-271" font-family="Helvetica,sans-Serif" font-size="10.00">/simulation_window.h</text>
</a>
</g>
</g>
<!-- Node1&#45;&gt;Node16 -->
<g id="edge20_Node000001_Node000016" class="edge">
<title>Node1&#45;&gt;Node16</title>
<g id="a_edge20_Node000001_Node000016"><a xlink:title=" ">
<path fill="none" stroke="#63b8ff" d="M639.85,-328.04C580.14,-316.8 501.51,-302 447.39,-291.81"/>
<polygon fill="#63b8ff" stroke="#63b8ff" points="639.54,-331.54 650.02,-329.95 640.84,-324.67 639.54,-331.54"/>
</a>
</g>
</g>
<!-- Node17 -->
<g id="Node000017" class="node">
<title>Node17</title>
<g id="a_Node000017"><a xlink:href="application_8cpp.html" target="_top" xlink:title=" ">
<polygon fill="white" stroke="#666666" points="863.13,-288.5 698.13,-288.5 698.13,-269.5 863.13,-269.5 863.13,-288.5"/>
<text text-anchor="middle" x="780.63" y="-276.5" font-family="Helvetica,sans-Serif" font-size="10.00">src/application/application.cpp</text>
</a>
</g>
</g>
<!-- Node1&#45;&gt;Node17 -->
<g id="edge24_Node000001_Node000017" class="edge">
<title>Node1&#45;&gt;Node17</title>
<g id="a_edge24_Node000001_Node000017"><a xlink:title=" ">
<path fill="none" stroke="#63b8ff" d="M743.93,-321.94C753.87,-310.58 765.44,-297.36 772.89,-288.84"/>
<polygon fill="#63b8ff" stroke="#63b8ff" points="741.01,-319.97 737.06,-329.8 746.28,-324.58 741.01,-319.97"/>
</a>
</g>
</g>
<!-- Node18 -->
<g id="Node000018" class="node">
<title>Node18</title>
<g id="a_Node000018"><a xlink:href="element__window_8cpp.html" target="_top" xlink:title=" ">
<polygon fill="white" stroke="#666666" points="1003.63,-294 881.63,-294 881.63,-264 1003.63,-264 1003.63,-294"/>
<text text-anchor="start" x="889.63" y="-282" font-family="Helvetica,sans-Serif" font-size="10.00">src/user_interface</text>
<text text-anchor="middle" x="942.63" y="-271" font-family="Helvetica,sans-Serif" font-size="10.00">/element_window.cpp</text>
</a>
</g>
</g>
<!-- Node1&#45;&gt;Node18 -->
<g id="edge26_Node000001_Node000018" class="edge">
<title>Node1&#45;&gt;Node18</title>
<g id="a_edge26_Node000001_Node000018"><a xlink:title=" ">
<path fill="none" stroke="#63b8ff" d="M782.12,-327.12C817.27,-316.8 861.7,-303.76 894.9,-294.01"/>
<polygon fill="#63b8ff" stroke="#63b8ff" points="781.08,-323.78 772.47,-329.95 783.05,-330.5 781.08,-323.78"/>
</a>
</g>
</g>
<!-- Node19 -->
<g id="Node000019" class="node">
<title>Node19</title>
<g id="a_Node000019"><a xlink:href="field__metrics__window_8cpp.html" target="_top" xlink:title=" ">
<polygon fill="white" stroke="#666666" points="1167.13,-294 1022.13,-294 1022.13,-264 1167.13,-264 1167.13,-294"/>
<text text-anchor="start" x="1030.13" y="-282" font-family="Helvetica,sans-Serif" font-size="10.00">src/user_interface</text>
<text text-anchor="middle" x="1094.63" y="-271" font-family="Helvetica,sans-Serif" font-size="10.00">/field_metrics_window.cpp</text>
</a>
</g>
</g>
<!-- Node1&#45;&gt;Node19 -->
<g id="edge27_Node000001_Node000019" class="edge">
<title>Node1&#45;&gt;Node19</title>
<g id="a_edge27_Node000001_Node000019"><a xlink:title=" ">
<path fill="none" stroke="#63b8ff" d="M813.61,-328.61C877.44,-317.57 962.38,-302.88 1022.11,-292.54"/>
<polygon fill="#63b8ff" stroke="#63b8ff" points="812.81,-325.2 803.55,-330.35 814,-332.09 812.81,-325.2"/>
</a>
</g>
</g>
<!-- Node20 -->
<g id="Node000020" class="node">
<title>Node20</title>
<g id="a_Node000020"><a xlink:href="node__graph__window_8cpp.html" target="_top" xlink:title=" ">
<polygon fill="white" stroke="#666666" points="1324.13,-294 1185.13,-294 1185.13,-264 1324.13,-264 1324.13,-294"/>
<text text-anchor="start" x="1193.13" y="-282" font-family="Helvetica,sans-Serif" font-size="10.00">src/user_interface</text>
<text text-anchor="middle" x="1254.63" y="-271" font-family="Helvetica,sans-Serif" font-size="10.00">/node_graph_window.cpp</text>
</a>
</g>
</g>
<!-- Node1&#45;&gt;Node20 -->
<g id="edge28_Node000001_Node000020" class="edge">
<title>Node1&#45;&gt;Node20</title>
<g id="a_edge28_Node000001_Node000020"><a xlink:title=" ">
<path fill="none" stroke="#63b8ff" d="M813.26,-335.98C904.55,-327.3 1050.86,-312.22 1176.63,-294 1179.35,-293.61 1182.13,-293.19 1184.93,-292.75"/>
<polygon fill="#63b8ff" stroke="#63b8ff" points="812.85,-332.5 803.22,-336.93 813.51,-339.47 812.85,-332.5"/>
</a>
</g>
</g>
<!-- Node21 -->
<g id="Node000021" class="node">
<title>Node21</title>
<g id="a_Node000021"><a xlink:href="plot__control__window_8cpp.html" target="_top" xlink:title=" ">
<polygon fill="white" stroke="#666666" points="1482.63,-294 1342.63,-294 1342.63,-264 1482.63,-264 1482.63,-294"/>
<text text-anchor="start" x="1350.63" y="-282" font-family="Helvetica,sans-Serif" font-size="10.00">src/user_interface</text>
<text text-anchor="middle" x="1412.63" y="-271" font-family="Helvetica,sans-Serif" font-size="10.00">/plot_control_window.cpp</text>
</a>
</g>
</g>
<!-- Node1&#45;&gt;Node21 -->
<g id="edge29_Node000001_Node000021" class="edge">
<title>Node1&#45;&gt;Node21</title>
<g id="a_edge29_Node000001_Node000021"><a xlink:title=" ">
<path fill="none" stroke="#63b8ff" d="M813.36,-339.32C932.17,-332.46 1149.36,-317.84 1333.63,-294 1336.53,-293.62 1339.49,-293.22 1342.47,-292.78"/>
<polygon fill="#63b8ff" stroke="#63b8ff" points="813.01,-335.84 803.23,-339.9 813.41,-342.82 813.01,-335.84"/>
</a>
</g>
</g>
<!-- Node22 -->
<g id="Node000022" class="node">
<title>Node22</title>
<g id="a_Node000022"><a xlink:href="widgets_8cpp.html" target="_top" xlink:title=" ">
<polygon fill="white" stroke="#666666" points="1604.63,-294 1500.63,-294 1500.63,-264 1604.63,-264 1604.63,-294"/>
<text text-anchor="start" x="1508.63" y="-282" font-family="Helvetica,sans-Serif" font-size="10.00">src/user_interface</text>
<text text-anchor="middle" x="1552.63" y="-271" font-family="Helvetica,sans-Serif" font-size="10.00">/widgets.cpp</text>
</a>
</g>
</g>
<!-- Node1&#45;&gt;Node22 -->
<g id="edge32_Node000001_Node000022" class="edge">
<title>Node1&#45;&gt;Node22</title>
<g id="a_edge32_Node000001_Node000022"><a xlink:title=" ">
<path fill="none" stroke="#63b8ff" d="M813.25,-342.83C956.56,-339.91 1247.77,-329.7 1491.63,-294 1494.53,-293.58 1497.5,-293.08 1500.49,-292.55"/>
<polygon fill="#63b8ff" stroke="#63b8ff" points="813.11,-339.33 803.19,-343.03 813.25,-346.33 813.11,-339.33"/>
</a>
</g>
</g>
<!-- Node3 -->
<g id="Node000003" class="node">
<title>Node3</title>
<g id="a_Node000003"><a xlink:href="static__layout_8h.html" target="_top" xlink:title=" ">
<polygon fill="white" stroke="#666666" points="397.13,-162 272.13,-162 272.13,-132 397.13,-132 397.13,-162"/>
<text text-anchor="start" x="280.13" y="-150" font-family="Helvetica,sans-Serif" font-size="10.00">include/user_interface</text>
<text text-anchor="middle" x="334.63" y="-139" font-family="Helvetica,sans-Serif" font-size="10.00">/static_layout.h</text>
</a>
</g>
</g>
<!-- Node2&#45;&gt;Node3 -->
<g id="edge2_Node000002_Node000003" class="edge">
<title>Node2&#45;&gt;Node3</title>
<g id="a_edge2_Node000002_Node000003"><a xlink:title=" ">
<path fill="none" stroke="#63b8ff" d="M145.57,-253.8C146.12,-236.19 149.8,-212.91 163.63,-198 191.19,-168.29 235.32,-155.9 271.84,-150.87"/>
<polygon fill="#63b8ff" stroke="#63b8ff" points="142.07,-253.9 145.56,-263.9 149.07,-253.91 142.07,-253.9"/>
</a>
</g>
</g>
<!-- Node8 -->
<g id="Node000008" class="node">
<title>Node8</title>
<g id="a_Node000008"><a xlink:href="help__window_8cpp.html" target="_top" xlink:title=" ">
<polygon fill="white" stroke="#666666" points="116.63,-228 12.63,-228 12.63,-198 116.63,-198 116.63,-228"/>
<text text-anchor="start" x="20.63" y="-216" font-family="Helvetica,sans-Serif" font-size="10.00">src/user_interface</text>
<text text-anchor="middle" x="64.63" y="-205" font-family="Helvetica,sans-Serif" font-size="10.00">/help_window.cpp</text>
</a>
</g>
</g>
<!-- Node2&#45;&gt;Node8 -->
<g id="edge7_Node000002_Node000008" class="edge">
<title>Node2&#45;&gt;Node8</title>
<g id="a_edge7_Node000002_Node000008"><a xlink:title=" ">
<path fill="none" stroke="#63b8ff" d="M120.34,-257.48C108.08,-247.91 93.81,-236.77 82.78,-228.16"/>
<polygon fill="#63b8ff" stroke="#63b8ff" points="118.39,-260.4 128.43,-263.8 122.7,-254.88 118.39,-260.4"/>
</a>
</g>
</g>
<!-- Node2&#45;&gt;Node9 -->
<g id="edge8_Node000002_Node000009" class="edge">
<title>Node2&#45;&gt;Node9</title>
<g id="a_edge8_Node000002_Node000009"><a xlink:title=" ">
<path fill="none" stroke="#63b8ff" d="M175.65,-258.03C189.72,-248.34 206.3,-236.94 219.05,-228.16"/>
<polygon fill="#63b8ff" stroke="#63b8ff" points="173.52,-255.24 167.27,-263.8 177.49,-261.01 173.52,-255.24"/>
</a>
</g>
</g>
<!-- Node4 -->
<g id="Node000004" class="node">
<title>Node4</title>
<g id="a_Node000004"><a xlink:href="dynamic-neural-field-composer-static_8h.html" target="_top" xlink:title=" ">
<polygon fill="white" stroke="#666666" points="389.13,-96 256.13,-96 256.13,-66 389.13,-66 389.13,-96"/>
<text text-anchor="start" x="264.13" y="-84" font-family="Helvetica,sans-Serif" font-size="10.00">include/dynamic&#45;neural</text>
<text text-anchor="middle" x="322.63" y="-73" font-family="Helvetica,sans-Serif" font-size="10.00">&#45;field&#45;composer&#45;static.h</text>
</a>
</g>
</g>
<!-- Node3&#45;&gt;Node4 -->
<g id="edge3_Node000003_Node000004" class="edge">
<title>Node3&#45;&gt;Node4</title>
<g id="a_edge3_Node000003_Node000004"><a xlink:title=" ">
<path fill="none" stroke="#63b8ff" d="M330.1,-121.83C328.47,-113.17 326.7,-103.7 325.29,-96.16"/>
<polygon fill="#63b8ff" stroke="#63b8ff" points="326.68,-122.61 331.97,-131.8 333.56,-121.32 326.68,-122.61"/>
</a>
</g>
</g>
<!-- Node6 -->
<g id="Node000006" class="node">
<title>Node6</title>
<g id="a_Node000006"><a xlink:href="dynamic-neural-field-composer-dynamic_8cpp.html" target="_top" xlink:title=" ">
<polygon fill="white" stroke="#666666" points="566.13,-96 407.13,-96 407.13,-66 566.13,-66 566.13,-96"/>
<text text-anchor="start" x="415.13" y="-84" font-family="Helvetica,sans-Serif" font-size="10.00">src/dynamic&#45;neural</text>
<text text-anchor="middle" x="486.63" y="-73" font-family="Helvetica,sans-Serif" font-size="10.00">&#45;field&#45;composer&#45;dynamic.cpp</text>
</a>
</g>
</g>
<!-- Node3&#45;&gt;Node6 -->
<g id="edge5_Node000003_Node000006" class="edge">
<title>Node3&#45;&gt;Node6</title>
<g id="a_edge5_Node000003_Node000006"><a xlink:title=" ">
<path fill="none" stroke="#63b8ff" d="M377.25,-128.05C401.33,-117.91 430.99,-105.43 453.35,-96.01"/>
<polygon fill="#63b8ff" stroke="#63b8ff" points="375.85,-124.85 367.99,-131.95 378.56,-131.3 375.85,-124.85"/>
</a>
</g>
</g>
<!-- Node3&#45;&gt;Node7 -->
<g id="edge6_Node000003_Node000007" class="edge">
<title>Node3&#45;&gt;Node7</title>
<g id="a_edge6_Node000003_Node000007"><a xlink:title=" ">
<path fill="none" stroke="#63b8ff" d="M268.95,-129.52C226.36,-118.83 171.63,-105.09 131.98,-95.14"/>
<polygon fill="#63b8ff" stroke="#63b8ff" points="268.12,-132.92 278.67,-131.95 269.82,-126.13 268.12,-132.92"/>
</a>
</g>
</g>
<!-- Node5 -->
<g id="Node000005" class="node">
<title>Node5</title>
<g id="a_Node000005"><a xlink:href="dynamic-neural-field-composer-static_8cpp.html" target="_top" xlink:title=" ">
<polygon fill="white" stroke="#666666" points="394.63,-30 250.63,-30 250.63,0 394.63,0 394.63,-30"/>
<text text-anchor="start" x="258.63" y="-18" font-family="Helvetica,sans-Serif" font-size="10.00">src/dynamic&#45;neural</text>
<text text-anchor="middle" x="322.63" y="-7" font-family="Helvetica,sans-Serif" font-size="10.00">&#45;field&#45;composer&#45;static.cpp</text>
</a>
</g>
</g>
<!-- Node4&#45;&gt;Node5 -->
<g id="edge4_Node000004_Node000005" class="edge">
<title>Node4&#45;&gt;Node5</title>
<g id="a_edge4_Node000004_Node000005"><a xlink:title=" ">
<path fill="none" stroke="#63b8ff" d="M322.63,-55.54C322.63,-46.96 322.63,-37.61 322.63,-30.16"/>
<polygon fill="#63b8ff" stroke="#63b8ff" points="319.13,-55.8 322.63,-65.8 326.13,-55.8 319.13,-55.8"/>
</a>
</g>
</g>
<!-- Node10&#45;&gt;Node3 -->
<g id="edge16_Node000010_Node000003" class="edge">
<title>Node10&#45;&gt;Node3</title>
<g id="a_edge16_Node000010_Node000003"><a xlink:title=" ">
<path fill="none" stroke="#63b8ff" d="M567,-254.56C556.88,-236.51 540.55,-212.3 519.63,-198 483.38,-173.22 435.32,-160.7 397.28,-154.38"/>
<polygon fill="#63b8ff" stroke="#63b8ff" points="564.17,-256.69 571.98,-263.85 570.34,-253.38 564.17,-256.69"/>
</a>
</g>
</g>
<!-- Node10&#45;&gt;Node9 -->
<g id="edge19_Node000010_Node000009" class="edge">
<title>Node10&#45;&gt;Node9</title>
<g id="a_edge19_Node000010_Node000009"><a xlink:title=" ">
<path fill="none" stroke="#63b8ff" d="M506.06,-264.3C447,-253.15 364.31,-237.54 306.77,-226.68"/>
<polygon fill="#63b8ff" stroke="#63b8ff" points="505.58,-267.77 516.06,-266.19 506.88,-260.89 505.58,-267.77"/>
</a>
</g>
</g>
<!-- Node11 -->
<g id="Node000011" class="node">
<title>Node11</title>
<g id="a_Node000011"><a xlink:href="dynamic-neural-field-composer-dynamic_8h.html" target="_top" xlink:title=" ">
<polygon fill="white" stroke="#666666" points="510.63,-228 362.63,-228 362.63,-198 510.63,-198 510.63,-228"/>
<text text-anchor="start" x="370.63" y="-216" font-family="Helvetica,sans-Serif" font-size="10.00">include/dynamic&#45;neural</text>
<text text-anchor="middle" x="436.63" y="-205" font-family="Helvetica,sans-Serif" font-size="10.00">&#45;field&#45;composer&#45;dynamic.h</text>
</a>
</g>
</g>
<!-- Node10&#45;&gt;Node11 -->
<g id="edge10_Node000010_Node000011" class="edge">
<title>Node10&#45;&gt;Node11</title>
<g id="a_edge10_Node000010_Node000011"><a xlink:title=" ">
<path fill="none" stroke="#63b8ff" d="M538.21,-259.78C515.83,-249.69 488.42,-237.34 467.72,-228.01"/>
<polygon fill="#63b8ff" stroke="#63b8ff" points="536.91,-263.04 547.47,-263.95 539.79,-256.65 536.91,-263.04"/>
</a>
</g>
</g>
<!-- Node12 -->
<g id="Node000012" class="node">
<title>Node12</title>
<g id="a_Node000012"><a xlink:href="control__bar__window_8h.html" target="_top" xlink:title=" ">
<polygon fill="white" stroke="#666666" points="814.13,-228 689.13,-228 689.13,-198 814.13,-198 814.13,-228"/>
<text text-anchor="start" x="697.13" y="-216" font-family="Helvetica,sans-Serif" font-size="10.00">include/user_interface</text>
<text text-anchor="middle" x="751.63" y="-205" font-family="Helvetica,sans-Serif" font-size="10.00">/control_bar_window.h</text>
</a>
</g>
</g>
<!-- Node10&#45;&gt;Node12 -->
<g id="edge12_Node000010_Node000012" class="edge">
<title>Node10&#45;&gt;Node12</title>
<g id="a_edge12_Node000010_Node000012"><a xlink:title=" ">
<path fill="none" stroke="#63b8ff" d="M626.05,-260.46C653.65,-250.25 687.97,-237.55 713.75,-228.01"/>
<polygon fill="#63b8ff" stroke="#63b8ff" points="624.76,-257.2 616.6,-263.95 627.19,-263.77 624.76,-257.2"/>
</a>
</g>
</g>
<!-- Node14 -->
<g id="Node000014" class="node">
<title>Node14</title>
<g id="a_Node000014"><a xlink:href="logger_8cpp.html" target="_top" xlink:title=" ">
<polygon fill="white" stroke="#666666" points="943.13,-222.5 832.13,-222.5 832.13,-203.5 943.13,-203.5 943.13,-222.5"/>
<text text-anchor="middle" x="887.63" y="-210.5" font-family="Helvetica,sans-Serif" font-size="10.00">src/tools/logger.cpp</text>
</a>
</g>
</g>
<!-- Node10&#45;&gt;Node14 -->
<g id="edge17_Node000010_Node000014" class="edge">
<title>Node10&#45;&gt;Node14</title>
<g id="a_edge17_Node000010_Node000014"><a xlink:title=" ">
<path fill="none" stroke="#63b8ff" d="M651.2,-263.47C699.99,-253.63 765.72,-240.24 823.63,-228 831.86,-226.26 840.69,-224.35 849.07,-222.53"/>
<polygon fill="#63b8ff" stroke="#63b8ff" points="650.48,-260.04 641.37,-265.45 651.86,-266.9 650.48,-260.04"/>
</a>
</g>
</g>
<!-- Node15 -->
<g id="Node000015" class="node">
<title>Node15</title>
<g id="a_Node000015"><a xlink:href="log__window_8cpp.html" target="_top" xlink:title=" ">
<polygon fill="white" stroke="#666666" points="670.63,-228 566.63,-228 566.63,-198 670.63,-198 670.63,-228"/>
<text text-anchor="start" x="574.63" y="-216" font-family="Helvetica,sans-Serif" font-size="10.00">src/user_interface</text>
<text text-anchor="middle" x="618.63" y="-205" font-family="Helvetica,sans-Serif" font-size="10.00">/log_window.cpp</text>
</a>
</g>
</g>
<!-- Node10&#45;&gt;Node15 -->
<g id="edge18_Node000010_Node000015" class="edge">
<title>Node10&#45;&gt;Node15</title>
<g id="a_edge18_Node000010_Node000015"><a xlink:title=" ">
<path fill="none" stroke="#63b8ff" d="M592.85,-255.24C598.5,-246.21 604.81,-236.11 609.78,-228.16"/>
<polygon fill="#63b8ff" stroke="#63b8ff" points="589.84,-253.46 587.51,-263.8 595.78,-257.17 589.84,-253.46"/>
</a>
</g>
</g>
<!-- Node11&#45;&gt;Node6 -->
<g id="edge11_Node000011_Node000006" class="edge">
<title>Node11&#45;&gt;Node6</title>
<g id="a_edge11_Node000011_Node000006"><a xlink:title=" ">
<path fill="none" stroke="#63b8ff" d="M445.71,-188.39C456.07,-161.46 472.67,-118.31 481.19,-96.14"/>
<polygon fill="#63b8ff" stroke="#63b8ff" points="442.4,-187.25 442.08,-197.84 448.93,-189.76 442.4,-187.25"/>
</a>
</g>
</g>
<!-- Node12&#45;&gt;Node3 -->
<g id="edge13_Node000012_Node000003" class="edge">
<title>Node12&#45;&gt;Node3</title>
<g id="a_edge13_Node000012_Node000003"><a xlink:title=" ">
<path fill="none" stroke="#63b8ff" d="M678.74,-197.9C574.2,-180.34 464.5,-165.12 397.41,-156.17"/>
<polygon fill="#63b8ff" stroke="#63b8ff" points="678.39,-201.39 688.83,-199.61 679.56,-194.49 678.39,-201.39"/>
</a>
</g>
</g>
<!-- Node12&#45;&gt;Node6 -->
<g id="edge14_Node000012_Node000006" class="edge">
<title>Node12&#45;&gt;Node6</title>
<g id="a_edge14_Node000012_Node000006"><a xlink:title=" ">
<path fill="none" stroke="#63b8ff" d="M713.87,-193.48C660.38,-167.23 563.69,-119.8 515.52,-96.17"/>
<polygon fill="#63b8ff" stroke="#63b8ff" points="712.5,-196.7 723.02,-197.96 715.58,-190.42 712.5,-196.7"/>
</a>
</g>
</g>
<!-- Node12&#45;&gt;Node13 -->
<g id="edge15_Node000012_Node000013" class="edge">
<title>Node12&#45;&gt;Node13</title>
<g id="a_edge15_Node000012_Node000013"><a xlink:title=" ">
<path fill="none" stroke="#63b8ff" d="M784.81,-192.69C801.79,-182.82 822.08,-171.01 837.55,-162.01"/>
<polygon fill="#63b8ff" stroke="#63b8ff" points="782.65,-189.9 775.77,-197.95 786.17,-195.95 782.65,-189.9"/>
</a>
</g>
</g>
<!-- Node16&#45;&gt;Node3 -->
<g id="edge22_Node000016_Node000003" class="edge">
<title>Node16&#45;&gt;Node3</title>
<g id="a_edge22_Node000016_Node000003"><a xlink:title=" ">
<path fill="none" stroke="#63b8ff" d="M368.47,-255.4C363.13,-247.1 357.55,-237.42 353.63,-228 344.42,-205.86 339.12,-178.32 336.56,-162.01"/>
<polygon fill="#63b8ff" stroke="#63b8ff" points="365.62,-257.44 374.1,-263.8 371.44,-253.54 365.62,-257.44"/>
</a>
</g>
</g>
<!-- Node16&#45;&gt;Node9 -->
<g id="edge23_Node000016_Node000009" class="edge">
<title>Node16&#45;&gt;Node9</title>
<g id="a_edge23_Node000016_Node000009"><a xlink:title=" ">
<path fill="none" stroke="#63b8ff" d="M343.36,-259.78C320.5,-249.69 292.51,-237.34 271.38,-228.01"/>
<polygon fill="#63b8ff" stroke="#63b8ff" points="342.25,-263.12 352.81,-263.95 345.07,-256.71 342.25,-263.12"/>
</a>
</g>
</g>
<!-- Node16&#45;&gt;Node11 -->
<g id="edge21_Node000016_Node000011" class="edge">
<title>Node16&#45;&gt;Node11</title>
<g id="a_edge21_Node000016_Node000011"><a xlink:title=" ">
<path fill="none" stroke="#63b8ff" d="M402.66,-255.81C410.11,-246.64 418.53,-236.28 425.12,-228.16"/>
<polygon fill="#63b8ff" stroke="#63b8ff" points="399.76,-253.83 396.17,-263.8 405.19,-258.24 399.76,-253.83"/>
</a>
</g>
</g>
</g>
</svg>
