<?xml version="1.0" encoding="UTF-8" standalone="no"?>
<!DOCTYPE svg PUBLIC "-//W3C//DTD SVG 1.1//EN"
 "http://www.w3.org/Graphics/SVG/1.1/DTD/svg11.dtd">
<!-- Generated by graphviz version 2.43.0 (0)
 -->
<!-- Title: Graphical Class Hierarchy Pages: 1 -->
<svg width="412pt" height="1334pt"
 viewBox="0.00 0.00 412.00 1334.00" xmlns="http://www.w3.org/2000/svg" xmlns:xlink="http://www.w3.org/1999/xlink">
<g id="graph0" class="graph" transform="scale(1 1) rotate(0) translate(4 1330)">
<title>Graphical Class Hierarchy</title>
<!-- Node0 -->
<g id="Node000000" class="node">
<title>Node0</title>
<g id="a_Node000000"><a xlink:href="structdnf__composer_1_1element_1_1ElementSpecificParameters.html" target="_top" xlink:title=" ">
<polygon fill="white" stroke="#666666" points="156,-678 0,-678 0,-648 156,-648 156,-678"/>
<text text-anchor="start" x="8" y="-666" font-family="Helvetica,sans-Serif" font-size="10.00">dnf_composer::element</text>
<text text-anchor="middle" x="78" y="-655" font-family="Helvetica,sans-Serif" font-size="10.00">::ElementSpecificParameters</text>
</a>
</g>
</g>
<!-- Node1 -->
<g id="Node000001" class="node">
<title>Node1</title>
<g id="a_Node000001"><a xlink:href="structdnf__composer_1_1element_1_1AsymmetricGaussKernel2DParameters.html" target="_top" xlink:title="Parameters for AsymmetricGaussKernel2D.">
<polygon fill="white" stroke="#666666" points="404,-1326 192,-1326 192,-1296 404,-1296 404,-1326"/>
<text text-anchor="start" x="200" y="-1314" font-family="Helvetica,sans-Serif" font-size="10.00">dnf_composer::element</text>
<text text-anchor="middle" x="298" y="-1303" font-family="Helvetica,sans-Serif" font-size="10.00">::AsymmetricGaussKernel2DParameters</text>
</a>
</g>
</g>
<!-- Node0&#45;&gt;Node1 -->
<g id="edge4_Node000000_Node000001" class="edge">
<title>Node0&#45;&gt;Node1</title>
<g id="a_edge4_Node000000_Node000001"><a xlink:title=" ">
<path fill="none" stroke="#63b8ff" d="M79.97,-688.22C84.57,-793.77 107.53,-1198.59 192,-1287 195.23,-1290.38 198.83,-1293.33 202.7,-1295.9"/>
<polygon fill="#63b8ff" stroke="#63b8ff" points="83.47,-688.01 79.55,-678.17 76.47,-688.31 83.47,-688.01"/>
</a>
</g>
</g>
<!-- Node2 -->
<g id="Node000002" class="node">
<title>Node2</title>
<g id="a_Node000002"><a xlink:href="structdnf__composer_1_1element_1_1AsymmetricGaussKernelParameters.html" target="_top" xlink:title="Parameters for an asymmetric (shifted) Gaussian convolution kernel.">
<polygon fill="white" stroke="#666666" points="397,-1278 199,-1278 199,-1248 397,-1248 397,-1278"/>
<text text-anchor="start" x="207" y="-1266" font-family="Helvetica,sans-Serif" font-size="10.00">dnf_composer::element</text>
<text text-anchor="middle" x="298" y="-1255" font-family="Helvetica,sans-Serif" font-size="10.00">::AsymmetricGaussKernelParameters</text>
</a>
</g>
</g>
<!-- Node0&#45;&gt;Node2 -->
<g id="edge5_Node000000_Node000002" class="edge">
<title>Node0&#45;&gt;Node2</title>
<g id="a_edge5_Node000000_Node000002"><a xlink:title=" ">
<path fill="none" stroke="#63b8ff" d="M80.39,-688.2C86.42,-788.55 113.72,-1158.25 192,-1239 195.25,-1242.36 198.87,-1245.29 202.76,-1247.84"/>
<polygon fill="#63b8ff" stroke="#63b8ff" points="83.87,-687.85 79.8,-678.07 76.88,-688.26 83.87,-687.85"/>
</a>
</g>
</g>
<!-- Node3 -->
<g id="Node000003" class="node">
<title>Node3</title>
<g id="a_Node000003"><a xlink:href="structdnf__composer_1_1element_1_1BoostStimulus2DParameters.html" target="_top" xlink:title=" ">
<polygon fill="white" stroke="#666666" points="379,-1230 217,-1230 217,-1200 379,-1200 379,-1230"/>
<text text-anchor="start" x="225" y="-1218" font-family="Helvetica,sans-Serif" font-size="10.00">dnf_composer::element</text>
<text text-anchor="middle" x="298" y="-1207" font-family="Helvetica,sans-Serif" font-size="10.00">::BoostStimulus2DParameters</text>
</a>
</g>
</g>
<!-- Node0&#45;&gt;Node3 -->
<g id="edge6_Node000000_Node000003" class="edge">
<title>Node0&#45;&gt;Node3</title>
<g id="a_edge6_Node000000_Node000003"><a xlink:title=" ">
<path fill="none" stroke="#63b8ff" d="M80.87,-688.22C88.45,-783.24 119.9,-1117.89 192,-1191 198.96,-1198.06 207.54,-1203.22 216.77,-1206.97"/>
<polygon fill="#63b8ff" stroke="#63b8ff" points="84.35,-687.79 80.09,-678.09 77.37,-688.33 84.35,-687.79"/>
</a>
</g>
</g>
<!-- Node4 -->
<g id="Node000004" class="node">
<title>Node4</title>
<g id="a_Node000004"><a xlink:href="structdnf__composer_1_1element_1_1BoostStimulusParameters.html" target="_top" xlink:title="Parameters for a spatially homogeneous boost stimulus.">
<polygon fill="white" stroke="#666666" points="372.5,-1182 223.5,-1182 223.5,-1152 372.5,-1152 372.5,-1182"/>
<text text-anchor="start" x="231.5" y="-1170" font-family="Helvetica,sans-Serif" font-size="10.00">dnf_composer::element</text>
<text text-anchor="middle" x="298" y="-1159" font-family="Helvetica,sans-Serif" font-size="10.00">::BoostStimulusParameters</text>
</a>
</g>
</g>
<!-- Node0&#45;&gt;Node4 -->
<g id="edge7_Node000000_Node000004" class="edge">
<title>Node0&#45;&gt;Node4</title>
<g id="a_edge7_Node000000_Node000004"><a xlink:title=" ">
<path fill="none" stroke="#63b8ff" d="M81.49,-688.53C90.75,-778.3 126.12,-1077.55 192,-1143 200.62,-1151.57 211.64,-1157.33 223.27,-1161.16"/>
<polygon fill="#63b8ff" stroke="#63b8ff" points="84.95,-688.02 80.46,-678.42 77.99,-688.72 84.95,-688.02"/>
</a>
</g>
</g>
<!-- Node5 -->
<g id="Node000005" class="node">
<title>Node5</title>
<g id="a_Node000005"><a xlink:href="structdnf__composer_1_1element_1_1CollapseParameters.html" target="_top" xlink:title="Parameters for a Collapse (2D &#45;&gt; 1D) element.">
<polygon fill="white" stroke="#666666" points="364,-1134 232,-1134 232,-1104 364,-1104 364,-1134"/>
<text text-anchor="start" x="240" y="-1122" font-family="Helvetica,sans-Serif" font-size="10.00">dnf_composer::element</text>
<text text-anchor="middle" x="298" y="-1111" font-family="Helvetica,sans-Serif" font-size="10.00">::CollapseParameters</text>
</a>
</g>
</g>
<!-- Node0&#45;&gt;Node5 -->
<g id="edge8_Node000000_Node000005" class="edge">
<title>Node0&#45;&gt;Node5</title>
<g id="a_edge8_Node000000_Node000005"><a xlink:title=" ">
<path fill="none" stroke="#63b8ff" d="M82.18,-688.4C93.18,-772.08 132.2,-1037.04 192,-1095 202.81,-1105.48 217.2,-1111.74 231.86,-1115.4"/>
<polygon fill="#63b8ff" stroke="#63b8ff" points="85.63,-687.73 80.87,-678.26 78.69,-688.63 85.63,-687.73"/>
</a>
</g>
</g>
<!-- Node6 -->
<g id="Node000006" class="node">
<title>Node6</title>
<g id="a_Node000006"><a xlink:href="structdnf__composer_1_1element_1_1CorrelatedNormalNoise2DParameters.html" target="_top" xlink:title=" ">
<polygon fill="white" stroke="#666666" points="401,-1086 195,-1086 195,-1056 401,-1056 401,-1086"/>
<text text-anchor="start" x="203" y="-1074" font-family="Helvetica,sans-Serif" font-size="10.00">dnf_composer::element</text>
<text text-anchor="middle" x="298" y="-1063" font-family="Helvetica,sans-Serif" font-size="10.00">::CorrelatedNormalNoise2DParameters</text>
</a>
</g>
</g>
<!-- Node0&#45;&gt;Node6 -->
<g id="edge9_Node000000_Node000006" class="edge">
<title>Node0&#45;&gt;Node6</title>
<g id="a_edge9_Node000000_Node000006"><a xlink:title=" ">
<path fill="none" stroke="#63b8ff" d="M78.32,-688.54C77.96,-757.38 86.98,-948.24 192,-1047 195.54,-1050.33 199.45,-1053.23 203.61,-1055.76"/>
<polygon fill="#63b8ff" stroke="#63b8ff" points="81.82,-688.26 78.45,-678.21 74.82,-688.17 81.82,-688.26"/>
</a>
</g>
</g>
<!-- Node7 -->
<g id="Node000007" class="node">
<title>Node7</title>
<g id="a_Node000007"><a xlink:href="structdnf__composer_1_1element_1_1CorrelatedNormalNoiseParameters.html" target="_top" xlink:title="Parameters for a spatially correlated Gaussian noise source.">
<polygon fill="white" stroke="#666666" points="394.5,-1038 201.5,-1038 201.5,-1008 394.5,-1008 394.5,-1038"/>
<text text-anchor="start" x="209.5" y="-1026" font-family="Helvetica,sans-Serif" font-size="10.00">dnf_composer::element</text>
<text text-anchor="middle" x="298" y="-1015" font-family="Helvetica,sans-Serif" font-size="10.00">::CorrelatedNormalNoiseParameters</text>
</a>
</g>
</g>
<!-- Node0&#45;&gt;Node7 -->
<g id="edge10_Node000000_Node000007" class="edge">
<title>Node0&#45;&gt;Node7</title>
<g id="a_edge10_Node000000_Node000007"><a xlink:title=" ">
<path fill="none" stroke="#63b8ff" d="M79.56,-688.31C82.39,-751.03 98.8,-914.66 192,-999 195.74,-1002.39 199.87,-1005.33 204.24,-1007.88"/>
<polygon fill="#63b8ff" stroke="#63b8ff" points="83.05,-688.01 79.18,-678.14 76.06,-688.27 83.05,-688.01"/>
</a>
</g>
</g>
<!-- Node8 -->
<g id="Node000008" class="node">
<title>Node8</title>
<g id="a_Node000008"><a xlink:href="structdnf__composer_1_1element_1_1ExpandParameters.html" target="_top" xlink:title="Parameters for an Expand (1D &#45;&gt; 2D) element.">
<polygon fill="white" stroke="#666666" points="364,-990 232,-990 232,-960 364,-960 364,-990"/>
<text text-anchor="start" x="240" y="-978" font-family="Helvetica,sans-Serif" font-size="10.00">dnf_composer::element</text>
<text text-anchor="middle" x="298" y="-967" font-family="Helvetica,sans-Serif" font-size="10.00">::ExpandParameters</text>
</a>
</g>
</g>
<!-- Node0&#45;&gt;Node8 -->
<g id="edge11_Node000000_Node000008" class="edge">
<title>Node0&#45;&gt;Node8</title>
<g id="a_edge11_Node000000_Node000008"><a xlink:title=" ">
<path fill="none" stroke="#63b8ff" d="M81.2,-688.52C87.49,-744.98 110.72,-881.02 192,-951 203.2,-960.64 217.48,-966.61 231.88,-970.27"/>
<polygon fill="#63b8ff" stroke="#63b8ff" points="84.66,-687.92 80.16,-678.33 77.69,-688.63 84.66,-687.92"/>
</a>
</g>
</g>
<!-- Node9 -->
<g id="Node000009" class="node">
<title>Node9</title>
<g id="a_Node000009"><a xlink:href="structdnf__composer_1_1element_1_1FieldCouplingParameters.html" target="_top" xlink:title="Parameters for a learned full&#45;matrix field coupling.">
<polygon fill="white" stroke="#666666" points="370,-942 226,-942 226,-912 370,-912 370,-942"/>
<text text-anchor="start" x="234" y="-930" font-family="Helvetica,sans-Serif" font-size="10.00">dnf_composer::element</text>
<text text-anchor="middle" x="298" y="-919" font-family="Helvetica,sans-Serif" font-size="10.00">::FieldCouplingParameters</text>
</a>
</g>
</g>
<!-- Node0&#45;&gt;Node9 -->
<g id="edge12_Node000000_Node000009" class="edge">
<title>Node0&#45;&gt;Node9</title>
<g id="a_edge12_Node000000_Node000009"><a xlink:title=" ">
<path fill="none" stroke="#63b8ff" d="M83.38,-688.32C93.3,-737.69 122.29,-846.89 192,-903 201.76,-910.86 213.6,-916.24 225.77,-919.92"/>
<polygon fill="#63b8ff" stroke="#63b8ff" points="86.76,-687.36 81.45,-678.2 79.88,-688.67 86.76,-687.36"/>
</a>
</g>
</g>
<!-- Node10 -->
<g id="Node000010" class="node">
<title>Node10</title>
<g id="a_Node000010"><a xlink:href="structdnf__composer_1_1element_1_1GaussFieldCouplingParameters.html" target="_top" xlink:title="Parameters for a sparse Gaussian field coupling (fixed projection).">
<polygon fill="white" stroke="#666666" points="385,-894 211,-894 211,-864 385,-864 385,-894"/>
<text text-anchor="start" x="219" y="-882" font-family="Helvetica,sans-Serif" font-size="10.00">dnf_composer::element</text>
<text text-anchor="middle" x="298" y="-871" font-family="Helvetica,sans-Serif" font-size="10.00">::GaussFieldCouplingParameters</text>
</a>
</g>
</g>
<!-- Node0&#45;&gt;Node10 -->
<g id="edge13_Node000000_Node000010" class="edge">
<title>Node0&#45;&gt;Node10</title>
<g id="a_edge13_Node000000_Node000010"><a xlink:title=" ">
<path fill="none" stroke="#63b8ff" d="M86.35,-687.62C100.03,-728.99 133.45,-812.15 192,-855 197.81,-859.25 204.25,-862.77 210.99,-865.67"/>
<polygon fill="#63b8ff" stroke="#63b8ff" points="89.67,-686.51 83.29,-678.05 83,-688.64 89.67,-686.51"/>
</a>
</g>
</g>
<!-- Node11 -->
<g id="Node000011" class="node">
<title>Node11</title>
<g id="a_Node000011"><a xlink:href="structdnf__composer_1_1element_1_1GaussKernel2DParameters.html" target="_top" xlink:title=" ">
<polygon fill="white" stroke="#666666" points="374,-846 222,-846 222,-816 374,-816 374,-846"/>
<text text-anchor="start" x="230" y="-834" font-family="Helvetica,sans-Serif" font-size="10.00">dnf_composer::element</text>
<text text-anchor="middle" x="298" y="-823" font-family="Helvetica,sans-Serif" font-size="10.00">::GaussKernel2DParameters</text>
</a>
</g>
</g>
<!-- Node0&#45;&gt;Node11 -->
<g id="edge14_Node000000_Node000011" class="edge">
<title>Node0&#45;&gt;Node11</title>
<g id="a_edge14_Node000000_Node000011"><a xlink:title=" ">
<path fill="none" stroke="#63b8ff" d="M91.2,-687.31C108.84,-719.85 144.61,-776.95 192,-807 201.08,-812.76 211.38,-817.14 221.89,-820.47"/>
<polygon fill="#63b8ff" stroke="#63b8ff" points="94.28,-685.64 86.51,-678.44 88.09,-688.92 94.28,-685.64"/>
</a>
</g>
</g>
<!-- Node12 -->
<g id="Node000012" class="node">
<title>Node12</title>
<g id="a_Node000012"><a xlink:href="structdnf__composer_1_1element_1_1GaussKernelParameters.html" target="_top" xlink:title="Parameters for a Gaussian lateral interaction kernel.">
<polygon fill="white" stroke="#666666" points="367.5,-798 228.5,-798 228.5,-768 367.5,-768 367.5,-798"/>
<text text-anchor="start" x="236.5" y="-786" font-family="Helvetica,sans-Serif" font-size="10.00">dnf_composer::element</text>
<text text-anchor="middle" x="298" y="-775" font-family="Helvetica,sans-Serif" font-size="10.00">::GaussKernelParameters</text>
</a>
</g>
</g>
<!-- Node0&#45;&gt;Node12 -->
<g id="edge15_Node000000_Node000012" class="edge">
<title>Node0&#45;&gt;Node12</title>
<g id="a_edge15_Node000000_Node000012"><a xlink:title=" ">
<path fill="none" stroke="#63b8ff" d="M99.17,-685.54C120.19,-707.61 155.15,-740.54 192,-759 203.28,-764.65 215.92,-769 228.41,-772.32"/>
<polygon fill="#63b8ff" stroke="#63b8ff" points="101.72,-683.15 92.34,-678.23 96.61,-687.92 101.72,-683.15"/>
</a>
</g>
</g>
<!-- Node13 -->
<g id="Node000013" class="node">
<title>Node13</title>
<g id="a_Node000013"><a xlink:href="structdnf__composer_1_1element_1_1GaussStimulus2DParameters.html" target="_top" xlink:title=" ">
<polygon fill="white" stroke="#666666" points="380,-750 216,-750 216,-720 380,-720 380,-750"/>
<text text-anchor="start" x="224" y="-738" font-family="Helvetica,sans-Serif" font-size="10.00">dnf_composer::element</text>
<text text-anchor="middle" x="298" y="-727" font-family="Helvetica,sans-Serif" font-size="10.00">::GaussStimulus2DParameters</text>
</a>
</g>
</g>
<!-- Node0&#45;&gt;Node13 -->
<g id="edge16_Node000000_Node000013" class="edge">
<title>Node0&#45;&gt;Node13</title>
<g id="a_edge16_Node000000_Node000013"><a xlink:title=" ">
<path fill="none" stroke="#63b8ff" d="M119.9,-682.45C141.08,-691.98 167.56,-703.08 192,-711 202.14,-714.28 212.97,-717.3 223.68,-719.99"/>
<polygon fill="#63b8ff" stroke="#63b8ff" points="121.12,-679.16 110.57,-678.19 118.22,-685.53 121.12,-679.16"/>
</a>
</g>
</g>
<!-- Node14 -->
<g id="Node000014" class="node">
<title>Node14</title>
<g id="a_Node000014"><a xlink:href="structdnf__composer_1_1element_1_1GaussStimulusParameters.html" target="_top" xlink:title="Parameters for a Gaussian&#45;shaped external stimulus.">
<polygon fill="white" stroke="#666666" points="373.5,-702 222.5,-702 222.5,-672 373.5,-672 373.5,-702"/>
<text text-anchor="start" x="230.5" y="-690" font-family="Helvetica,sans-Serif" font-size="10.00">dnf_composer::element</text>
<text text-anchor="middle" x="298" y="-679" font-family="Helvetica,sans-Serif" font-size="10.00">::GaussStimulusParameters</text>
</a>
</g>
</g>
<!-- Node0&#45;&gt;Node14 -->
<g id="edge17_Node000000_Node000014" class="edge">
<title>Node0&#45;&gt;Node14</title>
<g id="a_edge17_Node000000_Node000014"><a xlink:title=" ">
<path fill="none" stroke="#63b8ff" d="M166.33,-672.61C184.81,-674.65 204.16,-676.78 222.14,-678.76"/>
<polygon fill="#63b8ff" stroke="#63b8ff" points="166.49,-669.11 156.17,-671.5 165.72,-676.07 166.49,-669.11"/>
</a>
</g>
</g>
<!-- Node15 -->
<g id="Node000015" class="node">
<title>Node15</title>
<g id="a_Node000015"><a xlink:href="structdnf__composer_1_1element_1_1MemoryTrace2DParameters.html" target="_top" xlink:title="Parameters governing MemoryTrace2D build&#45;up and decay dynamics.">
<polygon fill="white" stroke="#666666" points="377,-654 219,-654 219,-624 377,-624 377,-654"/>
<text text-anchor="start" x="227" y="-642" font-family="Helvetica,sans-Serif" font-size="10.00">dnf_composer::element</text>
<text text-anchor="middle" x="298" y="-631" font-family="Helvetica,sans-Serif" font-size="10.00">::MemoryTrace2DParameters</text>
</a>
</g>
</g>
<!-- Node0&#45;&gt;Node15 -->
<g id="edge18_Node000000_Node000015" class="edge">
<title>Node0&#45;&gt;Node15</title>
<g id="a_edge18_Node000000_Node000015"><a xlink:title=" ">
<path fill="none" stroke="#63b8ff" d="M166.29,-653.39C183.66,-651.48 201.79,-649.48 218.83,-647.61"/>
<polygon fill="#63b8ff" stroke="#63b8ff" points="165.72,-649.93 156.17,-654.5 166.49,-656.89 165.72,-649.93"/>
</a>
</g>
</g>
<!-- Node16 -->
<g id="Node000016" class="node">
<title>Node16</title>
<g id="a_Node000016"><a xlink:href="structdnf__composer_1_1element_1_1MemoryTraceParameters.html" target="_top" xlink:title="Parameters governing MemoryTrace build&#45;up and decay dynamics.">
<polygon fill="white" stroke="#666666" points="370,-606 226,-606 226,-576 370,-576 370,-606"/>
<text text-anchor="start" x="234" y="-594" font-family="Helvetica,sans-Serif" font-size="10.00">dnf_composer::element</text>
<text text-anchor="middle" x="298" y="-583" font-family="Helvetica,sans-Serif" font-size="10.00">::MemoryTraceParameters</text>
</a>
</g>
</g>
<!-- Node0&#45;&gt;Node16 -->
<g id="edge19_Node000000_Node000016" class="edge">
<title>Node0&#45;&gt;Node16</title>
<g id="a_edge19_Node000000_Node000016"><a xlink:title=" ">
<path fill="none" stroke="#63b8ff" d="M119.9,-643.55C141.08,-634.02 167.56,-622.92 192,-615 202.85,-611.49 214.49,-608.28 225.93,-605.44"/>
<polygon fill="#63b8ff" stroke="#63b8ff" points="118.22,-640.47 110.57,-647.81 121.12,-646.84 118.22,-640.47"/>
</a>
</g>
</g>
<!-- Node17 -->
<g id="Node000017" class="node">
<title>Node17</title>
<g id="a_Node000017"><a xlink:href="structdnf__composer_1_1element_1_1MexicanHatKernel2DParameters.html" target="_top" xlink:title=" ">
<polygon fill="white" stroke="#666666" points="388.5,-558 207.5,-558 207.5,-528 388.5,-528 388.5,-558"/>
<text text-anchor="start" x="215.5" y="-546" font-family="Helvetica,sans-Serif" font-size="10.00">dnf_composer::element</text>
<text text-anchor="middle" x="298" y="-535" font-family="Helvetica,sans-Serif" font-size="10.00">::MexicanHatKernel2DParameters</text>
</a>
</g>
</g>
<!-- Node0&#45;&gt;Node17 -->
<g id="edge20_Node000000_Node000017" class="edge">
<title>Node0&#45;&gt;Node17</title>
<g id="a_edge20_Node000000_Node000017"><a xlink:title=" ">
<path fill="none" stroke="#63b8ff" d="M99.17,-640.46C120.19,-618.39 155.15,-585.46 192,-567 198.85,-563.57 206.21,-560.62 213.72,-558.08"/>
<polygon fill="#63b8ff" stroke="#63b8ff" points="96.61,-638.08 92.34,-647.77 101.72,-642.85 96.61,-638.08"/>
</a>
</g>
</g>
<!-- Node18 -->
<g id="Node000018" class="node">
<title>Node18</title>
<g id="a_Node000018"><a xlink:href="structdnf__composer_1_1element_1_1MexicanHatKernelParameters.html" target="_top" xlink:title="Parameters for a Mexican&#45;hat lateral interaction kernel.">
<polygon fill="white" stroke="#666666" points="381.5,-510 214.5,-510 214.5,-480 381.5,-480 381.5,-510"/>
<text text-anchor="start" x="222.5" y="-498" font-family="Helvetica,sans-Serif" font-size="10.00">dnf_composer::element</text>
<text text-anchor="middle" x="298" y="-487" font-family="Helvetica,sans-Serif" font-size="10.00">::MexicanHatKernelParameters</text>
</a>
</g>
</g>
<!-- Node0&#45;&gt;Node18 -->
<g id="edge21_Node000000_Node000018" class="edge">
<title>Node0&#45;&gt;Node18</title>
<g id="a_edge21_Node000000_Node000018"><a xlink:title=" ">
<path fill="none" stroke="#63b8ff" d="M91.2,-638.69C108.84,-606.15 144.61,-549.05 192,-519 198.87,-514.64 206.44,-511.08 214.27,-508.15"/>
<polygon fill="#63b8ff" stroke="#63b8ff" points="88.09,-637.08 86.51,-647.56 94.28,-640.36 88.09,-637.08"/>
</a>
</g>
</g>
<!-- Node19 -->
<g id="Node000019" class="node">
<title>Node19</title>
<g id="a_Node000019"><a xlink:href="structdnf__composer_1_1element_1_1NeuralField2DParameters.html" target="_top" xlink:title=" ">
<polygon fill="white" stroke="#666666" points="371.5,-462 224.5,-462 224.5,-432 371.5,-432 371.5,-462"/>
<text text-anchor="start" x="232.5" y="-450" font-family="Helvetica,sans-Serif" font-size="10.00">dnf_composer::element</text>
<text text-anchor="middle" x="298" y="-439" font-family="Helvetica,sans-Serif" font-size="10.00">::NeuralField2DParameters</text>
</a>
</g>
</g>
<!-- Node0&#45;&gt;Node19 -->
<g id="edge22_Node000000_Node000019" class="edge">
<title>Node0&#45;&gt;Node19</title>
<g id="a_edge22_Node000000_Node000019"><a xlink:title=" ">
<path fill="none" stroke="#63b8ff" d="M86.35,-638.38C100.03,-597.01 133.45,-513.85 192,-471 201.58,-463.99 212.87,-458.98 224.43,-455.41"/>
<polygon fill="#63b8ff" stroke="#63b8ff" points="83,-637.36 83.29,-647.95 89.67,-639.49 83,-637.36"/>
</a>
</g>
</g>
<!-- Node20 -->
<g id="Node000020" class="node">
<title>Node20</title>
<g id="a_Node000020"><a xlink:href="structdnf__composer_1_1element_1_1NeuralFieldParameters.html" target="_top" xlink:title="Parameters that govern a NeuralField&#39;s dynamics.">
<polygon fill="white" stroke="#666666" points="365,-414 231,-414 231,-384 365,-384 365,-414"/>
<text text-anchor="start" x="239" y="-402" font-family="Helvetica,sans-Serif" font-size="10.00">dnf_composer::element</text>
<text text-anchor="middle" x="298" y="-391" font-family="Helvetica,sans-Serif" font-size="10.00">::NeuralFieldParameters</text>
</a>
</g>
</g>
<!-- Node0&#45;&gt;Node20 -->
<g id="edge23_Node000000_Node000020" class="edge">
<title>Node0&#45;&gt;Node20</title>
<g id="a_edge23_Node000000_Node000020"><a xlink:title=" ">
<path fill="none" stroke="#63b8ff" d="M83.38,-637.68C93.3,-588.31 122.29,-479.11 192,-423 203.14,-414.03 217,-408.28 230.96,-404.62"/>
<polygon fill="#63b8ff" stroke="#63b8ff" points="79.88,-637.33 81.45,-647.8 86.76,-638.64 79.88,-637.33"/>
</a>
</g>
</g>
<!-- Node21 -->
<g id="Node000021" class="node">
<title>Node21</title>
<g id="a_Node000021"><a xlink:href="structdnf__composer_1_1element_1_1NormalNoise2DParameters.html" target="_top" xlink:title=" ">
<polygon fill="white" stroke="#666666" points="375.5,-366 220.5,-366 220.5,-336 375.5,-336 375.5,-366"/>
<text text-anchor="start" x="228.5" y="-354" font-family="Helvetica,sans-Serif" font-size="10.00">dnf_composer::element</text>
<text text-anchor="middle" x="298" y="-343" font-family="Helvetica,sans-Serif" font-size="10.00">::NormalNoise2DParameters</text>
</a>
</g>
</g>
<!-- Node0&#45;&gt;Node21 -->
<g id="edge24_Node000000_Node000021" class="edge">
<title>Node0&#45;&gt;Node21</title>
<g id="a_edge24_Node000000_Node000021"><a xlink:title=" ">
<path fill="none" stroke="#63b8ff" d="M81.2,-637.48C87.49,-581.02 110.72,-444.98 192,-375 200.22,-367.92 210.1,-362.82 220.48,-359.16"/>
<polygon fill="#63b8ff" stroke="#63b8ff" points="77.69,-637.37 80.16,-647.67 84.66,-638.08 77.69,-637.37"/>
</a>
</g>
</g>
<!-- Node22 -->
<g id="Node000022" class="node">
<title>Node22</title>
<g id="a_Node000022"><a xlink:href="structdnf__composer_1_1element_1_1NormalNoiseParameters.html" target="_top" xlink:title="Parameters for an additive normal&#45;noise input.">
<polygon fill="white" stroke="#666666" points="369,-318 227,-318 227,-288 369,-288 369,-318"/>
<text text-anchor="start" x="235" y="-306" font-family="Helvetica,sans-Serif" font-size="10.00">dnf_composer::element</text>
<text text-anchor="middle" x="298" y="-295" font-family="Helvetica,sans-Serif" font-size="10.00">::NormalNoiseParameters</text>
</a>
</g>
</g>
<!-- Node0&#45;&gt;Node22 -->
<g id="edge25_Node000000_Node000022" class="edge">
<title>Node0&#45;&gt;Node22</title>
<g id="a_edge25_Node000000_Node000022"><a xlink:title=" ">
<path fill="none" stroke="#63b8ff" d="M79.56,-637.69C82.39,-574.97 98.8,-411.34 192,-327 201.77,-318.15 214.13,-312.36 226.9,-308.61"/>
<polygon fill="#63b8ff" stroke="#63b8ff" points="76.06,-637.73 79.18,-647.86 83.05,-637.99 76.06,-637.73"/>
</a>
</g>
</g>
<!-- Node23 -->
<g id="Node000023" class="node">
<title>Node23</title>
<g id="a_Node000023"><a xlink:href="structdnf__composer_1_1element_1_1OscillatoryKernel2DParameters.html" target="_top" xlink:title="Parameters for OscillatoryKernel2D.">
<polygon fill="white" stroke="#666666" points="385.5,-270 210.5,-270 210.5,-240 385.5,-240 385.5,-270"/>
<text text-anchor="start" x="218.5" y="-258" font-family="Helvetica,sans-Serif" font-size="10.00">dnf_composer::element</text>
<text text-anchor="middle" x="298" y="-247" font-family="Helvetica,sans-Serif" font-size="10.00">::OscillatoryKernel2DParameters</text>
</a>
</g>
</g>
<!-- Node0&#45;&gt;Node23 -->
<g id="edge26_Node000000_Node000023" class="edge">
<title>Node0&#45;&gt;Node23</title>
<g id="a_edge26_Node000000_Node000023"><a xlink:title=" ">
<path fill="none" stroke="#63b8ff" d="M78.32,-637.46C77.96,-568.62 86.98,-377.76 192,-279 197.38,-273.94 203.6,-269.87 210.27,-266.61"/>
<polygon fill="#63b8ff" stroke="#63b8ff" points="74.82,-637.83 78.45,-647.79 81.82,-637.74 74.82,-637.83"/>
</a>
</g>
</g>
<!-- Node24 -->
<g id="Node000024" class="node">
<title>Node24</title>
<g id="a_Node000024"><a xlink:href="structdnf__composer_1_1element_1_1OscillatoryKernelParameters.html" target="_top" xlink:title="Parameters for an oscillatory (damped&#45;cosine) convolution kernel.">
<polygon fill="white" stroke="#666666" points="378.5,-222 217.5,-222 217.5,-192 378.5,-192 378.5,-222"/>
<text text-anchor="start" x="225.5" y="-210" font-family="Helvetica,sans-Serif" font-size="10.00">dnf_composer::element</text>
<text text-anchor="middle" x="298" y="-199" font-family="Helvetica,sans-Serif" font-size="10.00">::OscillatoryKernelParameters</text>
</a>
</g>
</g>
<!-- Node0&#45;&gt;Node24 -->
<g id="edge27_Node000000_Node000024" class="edge">
<title>Node0&#45;&gt;Node24</title>
<g id="a_edge27_Node000000_Node000024"><a xlink:title=" ">
<path fill="none" stroke="#63b8ff" d="M82.18,-637.6C93.18,-553.92 132.2,-288.96 192,-231 199.18,-224.04 207.95,-218.94 217.32,-215.22"/>
<polygon fill="#63b8ff" stroke="#63b8ff" points="78.69,-637.37 80.87,-647.74 85.63,-638.27 78.69,-637.37"/>
</a>
</g>
</g>
<!-- Node25 -->
<g id="Node000025" class="node">
<title>Node25</title>
<g id="a_Node000025"><a xlink:href="structdnf__composer_1_1element_1_1Resize2DParameters.html" target="_top" xlink:title="Parameters for a 2D Resize element.">
<polygon fill="white" stroke="#666666" points="364,-174 232,-174 232,-144 364,-144 364,-174"/>
<text text-anchor="start" x="240" y="-162" font-family="Helvetica,sans-Serif" font-size="10.00">dnf_composer::element</text>
<text text-anchor="middle" x="298" y="-151" font-family="Helvetica,sans-Serif" font-size="10.00">::Resize2DParameters</text>
</a>
</g>
</g>
<!-- Node0&#45;&gt;Node25 -->
<g id="edge28_Node000000_Node000025" class="edge">
<title>Node0&#45;&gt;Node25</title>
<g id="a_edge28_Node000000_Node000025"><a xlink:title=" ">
<path fill="none" stroke="#63b8ff" d="M81.49,-637.47C90.75,-547.7 126.12,-248.45 192,-183 202.74,-172.32 217.2,-166 231.95,-162.35"/>
<polygon fill="#63b8ff" stroke="#63b8ff" points="77.99,-637.28 80.46,-647.58 84.95,-637.98 77.99,-637.28"/>
</a>
</g>
</g>
<!-- Node26 -->
<g id="Node000026" class="node">
<title>Node26</title>
<g id="a_Node000026"><a xlink:href="structdnf__composer_1_1element_1_1ResizeParameters.html" target="_top" xlink:title="Parameters for a 1D Resize element.">
<polygon fill="white" stroke="#666666" points="364,-126 232,-126 232,-96 364,-96 364,-126"/>
<text text-anchor="start" x="240" y="-114" font-family="Helvetica,sans-Serif" font-size="10.00">dnf_composer::element</text>
<text text-anchor="middle" x="298" y="-103" font-family="Helvetica,sans-Serif" font-size="10.00">::ResizeParameters</text>
</a>
</g>
</g>
<!-- Node0&#45;&gt;Node26 -->
<g id="edge29_Node000000_Node000026" class="edge">
<title>Node0&#45;&gt;Node26</title>
<g id="a_edge29_Node000000_Node000026"><a xlink:title=" ">
<path fill="none" stroke="#63b8ff" d="M80.87,-637.78C88.45,-542.76 119.9,-208.11 192,-135 202.64,-124.22 217.05,-117.85 231.79,-114.19"/>
<polygon fill="#63b8ff" stroke="#63b8ff" points="77.37,-637.67 80.09,-647.91 84.35,-638.21 77.37,-637.67"/>
</a>
</g>
</g>
<!-- Node27 -->
<g id="Node000027" class="node">
<title>Node27</title>
<g id="a_Node000027"><a xlink:href="structdnf__composer_1_1element_1_1TimedGaussStimulus2DParameters.html" target="_top" xlink:title=" ">
<polygon fill="white" stroke="#666666" points="395.5,-78 200.5,-78 200.5,-48 395.5,-48 395.5,-78"/>
<text text-anchor="start" x="208.5" y="-66" font-family="Helvetica,sans-Serif" font-size="10.00">dnf_composer::element</text>
<text text-anchor="middle" x="298" y="-55" font-family="Helvetica,sans-Serif" font-size="10.00">::TimedGaussStimulus2DParameters</text>
</a>
</g>
</g>
<!-- Node0&#45;&gt;Node27 -->
<g id="edge30_Node000000_Node000027" class="edge">
<title>Node0&#45;&gt;Node27</title>
<g id="a_edge30_Node000000_Node000027"><a xlink:title=" ">
<path fill="none" stroke="#63b8ff" d="M80.39,-637.8C86.42,-537.45 113.72,-167.75 192,-87 195.25,-83.64 198.87,-80.71 202.76,-78.16"/>
<polygon fill="#63b8ff" stroke="#63b8ff" points="76.88,-637.74 79.8,-647.93 83.87,-638.15 76.88,-637.74"/>
</a>
</g>
</g>
<!-- Node28 -->
<g id="Node000028" class="node">
<title>Node28</title>
<g id="a_Node000028"><a xlink:href="structdnf__composer_1_1element_1_1TimedGaussStimulusParameters.html" target="_top" xlink:title=" ">
<polygon fill="white" stroke="#666666" points="389,-30 207,-30 207,0 389,0 389,-30"/>
<text text-anchor="start" x="215" y="-18" font-family="Helvetica,sans-Serif" font-size="10.00">dnf_composer::element</text>
<text text-anchor="middle" x="298" y="-7" font-family="Helvetica,sans-Serif" font-size="10.00">::TimedGaussStimulusParameters</text>
</a>
</g>
</g>
<!-- Node0&#45;&gt;Node28 -->
<g id="edge31_Node000000_Node000028" class="edge">
<title>Node0&#45;&gt;Node28</title>
<g id="a_edge31_Node000000_Node000028"><a xlink:title=" ">
<path fill="none" stroke="#63b8ff" d="M79.97,-637.78C84.57,-532.23 107.53,-127.41 192,-39 196.39,-34.4 201.47,-30.6 206.97,-27.47"/>
<polygon fill="#63b8ff" stroke="#63b8ff" points="76.47,-637.69 79.55,-647.83 83.47,-637.99 76.47,-637.69"/>
</a>
</g>
</g>
</g>
</svg>
