<?xml version="1.0" encoding="UTF-8" standalone="no"?>
<!DOCTYPE svg PUBLIC "-//W3C//DTD SVG 1.1//EN"
 "http://www.w3.org/Graphics/SVG/1.1/DTD/svg11.dtd">
<!-- Generated by graphviz version 2.43.0 (0)
 -->
<!-- Title: Graphical Class Hierarchy Pages: 1 -->
<svg width="398pt" height="518pt"
 viewBox="0.00 0.00 398.00 518.00" xmlns="http://www.w3.org/2000/svg" xmlns:xlink="http://www.w3.org/1999/xlink">
<g id="graph0" class="graph" transform="scale(1 1) rotate(0) translate(4 514)">
<title>Graphical Class Hierarchy</title>
<!-- Node0 -->
<g id="Node000000" class="node">
<title>Node0</title>
<g id="a_Node000000"><a xlink:href="structdnf__composer_1_1element_1_1ElementSpecificParameters.html" target="_top" xlink:title="Abstract base for all element&#45;specific parameter structs.">
<polygon fill="white" stroke="#666666" points="156,-270 0,-270 0,-240 156,-240 156,-270"/>
<text text-anchor="start" x="8" y="-258" font-family="Helvetica,sans-Serif" font-size="10.00">dnf_composer::element</text>
<text text-anchor="middle" x="78" y="-247" font-family="Helvetica,sans-Serif" font-size="10.00">::ElementSpecificParameters</text>
</a>
</g>
</g>
<!-- Node1 -->
<g id="Node000001" class="node">
<title>Node1</title>
<g id="a_Node000001"><a xlink:href="structdnf__composer_1_1element_1_1AsymmetricGaussKernelParameters.html" target="_top" xlink:title="Parameters for an asymmetric (shifted) Gaussian convolution kernel.">
<polygon fill="white" stroke="#666666" points="390,-510 192,-510 192,-480 390,-480 390,-510"/>
<text text-anchor="start" x="200" y="-498" font-family="Helvetica,sans-Serif" font-size="10.00">dnf_composer::element</text>
<text text-anchor="middle" x="291" y="-487" font-family="Helvetica,sans-Serif" font-size="10.00">::AsymmetricGaussKernelParameters</text>
</a>
</g>
</g>
<!-- Node0&#45;&gt;Node1 -->
<g id="edge3_Node000000_Node000001" class="edge">
<title>Node0&#45;&gt;Node1</title>
<g id="a_edge3_Node000000_Node000001"><a xlink:title=" ">
<path fill="none" stroke="#63b8ff" d="M84.82,-279.94C96.73,-325.28 128.31,-421.11 192,-471 196.41,-474.46 201.25,-477.42 206.35,-479.97"/>
<polygon fill="#63b8ff" stroke="#63b8ff" points="88.16,-278.9 82.32,-270.06 81.38,-280.61 88.16,-278.9"/>
</a>
</g>
</g>
<!-- Node2 -->
<g id="Node000002" class="node">
<title>Node2</title>
<g id="a_Node000002"><a xlink:href="structdnf__composer_1_1element_1_1BoostStimulusParameters.html" target="_top" xlink:title="Parameters for a spatially homogeneous boost stimulus.">
<polygon fill="white" stroke="#666666" points="365.5,-462 216.5,-462 216.5,-432 365.5,-432 365.5,-462"/>
<text text-anchor="start" x="224.5" y="-450" font-family="Helvetica,sans-Serif" font-size="10.00">dnf_composer::element</text>
<text text-anchor="middle" x="291" y="-439" font-family="Helvetica,sans-Serif" font-size="10.00">::BoostStimulusParameters</text>
</a>
</g>
</g>
<!-- Node0&#45;&gt;Node2 -->
<g id="edge4_Node000000_Node000002" class="edge">
<title>Node0&#45;&gt;Node2</title>
<g id="a_edge4_Node000000_Node000002"><a xlink:title=" ">
<path fill="none" stroke="#63b8ff" d="M88.63,-279.6C104.42,-316.65 139.44,-386.31 192,-423 199.4,-428.16 207.78,-432.22 216.46,-435.41"/>
<polygon fill="#63b8ff" stroke="#63b8ff" points="91.74,-277.97 84.68,-270.07 85.27,-280.65 91.74,-277.97"/>
</a>
</g>
</g>
<!-- Node3 -->
<g id="Node000003" class="node">
<title>Node3</title>
<g id="a_Node000003"><a xlink:href="structdnf__composer_1_1element_1_1FieldCouplingParameters.html" target="_top" xlink:title="Parameters for a learned full&#45;matrix field coupling.">
<polygon fill="white" stroke="#666666" points="363,-414 219,-414 219,-384 363,-384 363,-414"/>
<text text-anchor="start" x="227" y="-402" font-family="Helvetica,sans-Serif" font-size="10.00">dnf_composer::element</text>
<text text-anchor="middle" x="291" y="-391" font-family="Helvetica,sans-Serif" font-size="10.00">::FieldCouplingParameters</text>
</a>
</g>
</g>
<!-- Node0&#45;&gt;Node3 -->
<g id="edge5_Node000000_Node000003" class="edge">
<title>Node0&#45;&gt;Node3</title>
<g id="a_edge5_Node000000_Node000003"><a xlink:title=" ">
<path fill="none" stroke="#63b8ff" d="M94.58,-278.41C114.08,-305.81 150.06,-350.55 192,-375 200.25,-379.81 209.42,-383.66 218.76,-386.74"/>
<polygon fill="#63b8ff" stroke="#63b8ff" points="97.43,-276.37 88.85,-270.17 91.69,-280.37 97.43,-276.37"/>
</a>
</g>
</g>
<!-- Node4 -->
<g id="Node000004" class="node">
<title>Node4</title>
<g id="a_Node000004"><a xlink:href="structdnf__composer_1_1element_1_1GaussFieldCouplingParameters.html" target="_top" xlink:title="Parameters for a sparse Gaussian field coupling (fixed projection).">
<polygon fill="white" stroke="#666666" points="378,-366 204,-366 204,-336 378,-336 378,-366"/>
<text text-anchor="start" x="212" y="-354" font-family="Helvetica,sans-Serif" font-size="10.00">dnf_composer::element</text>
<text text-anchor="middle" x="291" y="-343" font-family="Helvetica,sans-Serif" font-size="10.00">::GaussFieldCouplingParameters</text>
</a>
</g>
</g>
<!-- Node0&#45;&gt;Node4 -->
<g id="edge6_Node000000_Node000004" class="edge">
<title>Node0&#45;&gt;Node4</title>
<g id="a_edge6_Node000000_Node000004"><a xlink:title=" ">
<path fill="none" stroke="#63b8ff" d="M106.51,-276.18C128.56,-292.21 160.84,-313.69 192,-327 199.97,-330.41 208.53,-333.39 217.14,-335.99"/>
<polygon fill="#63b8ff" stroke="#63b8ff" points="108.43,-273.24 98.3,-270.11 104.27,-278.87 108.43,-273.24"/>
</a>
</g>
</g>
<!-- Node5 -->
<g id="Node000005" class="node">
<title>Node5</title>
<g id="a_Node000005"><a xlink:href="structdnf__composer_1_1element_1_1GaussKernelParameters.html" target="_top" xlink:title="Parameters for a Gaussian lateral interaction kernel.">
<polygon fill="white" stroke="#666666" points="360.5,-318 221.5,-318 221.5,-288 360.5,-288 360.5,-318"/>
<text text-anchor="start" x="229.5" y="-306" font-family="Helvetica,sans-Serif" font-size="10.00">dnf_composer::element</text>
<text text-anchor="middle" x="291" y="-295" font-family="Helvetica,sans-Serif" font-size="10.00">::GaussKernelParameters</text>
</a>
</g>
</g>
<!-- Node0&#45;&gt;Node5 -->
<g id="edge7_Node000000_Node000005" class="edge">
<title>Node0&#45;&gt;Node5</title>
<g id="a_edge7_Node000000_Node000005"><a xlink:title=" ">
<path fill="none" stroke="#63b8ff" d="M155.06,-272.3C177.64,-277.44 202.17,-283.02 224.05,-288"/>
<polygon fill="#63b8ff" stroke="#63b8ff" points="155.71,-268.86 145.18,-270.06 154.16,-275.69 155.71,-268.86"/>
</a>
</g>
</g>
<!-- Node6 -->
<g id="Node000006" class="node">
<title>Node6</title>
<g id="a_Node000006"><a xlink:href="structdnf__composer_1_1element_1_1GaussStimulusParameters.html" target="_top" xlink:title="Parameters for a Gaussian&#45;shaped external stimulus.">
<polygon fill="white" stroke="#666666" points="366.5,-270 215.5,-270 215.5,-240 366.5,-240 366.5,-270"/>
<text text-anchor="start" x="223.5" y="-258" font-family="Helvetica,sans-Serif" font-size="10.00">dnf_composer::element</text>
<text text-anchor="middle" x="291" y="-247" font-family="Helvetica,sans-Serif" font-size="10.00">::GaussStimulusParameters</text>
</a>
</g>
</g>
<!-- Node0&#45;&gt;Node6 -->
<g id="edge8_Node000000_Node000006" class="edge">
<title>Node0&#45;&gt;Node6</title>
<g id="a_edge8_Node000000_Node000006"><a xlink:title=" ">
<path fill="none" stroke="#63b8ff" d="M166.13,-255C182.44,-255 199.36,-255 215.25,-255"/>
<polygon fill="#63b8ff" stroke="#63b8ff" points="166.07,-251.5 156.07,-255 166.07,-258.5 166.07,-251.5"/>
</a>
</g>
</g>
<!-- Node7 -->
<g id="Node000007" class="node">
<title>Node7</title>
<g id="a_Node000007"><a xlink:href="structdnf__composer_1_1element_1_1MemoryTraceParameters.html" target="_top" xlink:title="Parameters governing MemoryTrace build&#45;up and decay dynamics.">
<polygon fill="white" stroke="#666666" points="363,-222 219,-222 219,-192 363,-192 363,-222"/>
<text text-anchor="start" x="227" y="-210" font-family="Helvetica,sans-Serif" font-size="10.00">dnf_composer::element</text>
<text text-anchor="middle" x="291" y="-199" font-family="Helvetica,sans-Serif" font-size="10.00">::MemoryTraceParameters</text>
</a>
</g>
</g>
<!-- Node0&#45;&gt;Node7 -->
<g id="edge9_Node000000_Node000007" class="edge">
<title>Node0&#45;&gt;Node7</title>
<g id="a_edge9_Node000000_Node000007"><a xlink:title=" ">
<path fill="none" stroke="#63b8ff" d="M155.06,-237.7C177.64,-232.56 202.17,-226.98 224.05,-222"/>
<polygon fill="#63b8ff" stroke="#63b8ff" points="154.16,-234.31 145.18,-239.94 155.71,-241.14 154.16,-234.31"/>
</a>
</g>
</g>
<!-- Node8 -->
<g id="Node000008" class="node">
<title>Node8</title>
<g id="a_Node000008"><a xlink:href="structdnf__composer_1_1element_1_1MexicanHatKernelParameters.html" target="_top" xlink:title="Parameters for a Mexican&#45;hat lateral interaction kernel.">
<polygon fill="white" stroke="#666666" points="374.5,-174 207.5,-174 207.5,-144 374.5,-144 374.5,-174"/>
<text text-anchor="start" x="215.5" y="-162" font-family="Helvetica,sans-Serif" font-size="10.00">dnf_composer::element</text>
<text text-anchor="middle" x="291" y="-151" font-family="Helvetica,sans-Serif" font-size="10.00">::MexicanHatKernelParameters</text>
</a>
</g>
</g>
<!-- Node0&#45;&gt;Node8 -->
<g id="edge10_Node000000_Node000008" class="edge">
<title>Node0&#45;&gt;Node8</title>
<g id="a_edge10_Node000000_Node000008"><a xlink:title=" ">
<path fill="none" stroke="#63b8ff" d="M106.51,-233.82C128.56,-217.79 160.84,-196.31 192,-183 199.97,-179.59 208.53,-176.61 217.14,-174.01"/>
<polygon fill="#63b8ff" stroke="#63b8ff" points="104.27,-231.13 98.3,-239.89 108.43,-236.76 104.27,-231.13"/>
</a>
</g>
</g>
<!-- Node9 -->
<g id="Node000009" class="node">
<title>Node9</title>
<g id="a_Node000009"><a xlink:href="structdnf__composer_1_1element_1_1NeuralFieldParameters.html" target="_top" xlink:title="Parameters that govern a NeuralField&#39;s dynamics.">
<polygon fill="white" stroke="#666666" points="358,-126 224,-126 224,-96 358,-96 358,-126"/>
<text text-anchor="start" x="232" y="-114" font-family="Helvetica,sans-Serif" font-size="10.00">dnf_composer::element</text>
<text text-anchor="middle" x="291" y="-103" font-family="Helvetica,sans-Serif" font-size="10.00">::NeuralFieldParameters</text>
</a>
</g>
</g>
<!-- Node0&#45;&gt;Node9 -->
<g id="edge11_Node000000_Node000009" class="edge">
<title>Node0&#45;&gt;Node9</title>
<g id="a_edge11_Node000000_Node000009"><a xlink:title=" ">
<path fill="none" stroke="#63b8ff" d="M94.58,-231.59C114.08,-204.19 150.06,-159.45 192,-135 201.76,-129.31 212.82,-124.96 223.91,-121.64"/>
<polygon fill="#63b8ff" stroke="#63b8ff" points="91.69,-229.63 88.85,-239.83 97.43,-233.63 91.69,-229.63"/>
</a>
</g>
</g>
<!-- Node10 -->
<g id="Node000010" class="node">
<title>Node10</title>
<g id="a_Node000010"><a xlink:href="structdnf__composer_1_1element_1_1NormalNoiseParameters.html" target="_top" xlink:title="Parameters for an additive normal&#45;noise input.">
<polygon fill="white" stroke="#666666" points="362,-78 220,-78 220,-48 362,-48 362,-78"/>
<text text-anchor="start" x="228" y="-66" font-family="Helvetica,sans-Serif" font-size="10.00">dnf_composer::element</text>
<text text-anchor="middle" x="291" y="-55" font-family="Helvetica,sans-Serif" font-size="10.00">::NormalNoiseParameters</text>
</a>
</g>
</g>
<!-- Node0&#45;&gt;Node10 -->
<g id="edge12_Node000000_Node000010" class="edge">
<title>Node0&#45;&gt;Node10</title>
<g id="a_edge12_Node000000_Node000010"><a xlink:title=" ">
<path fill="none" stroke="#63b8ff" d="M88.63,-230.4C104.42,-193.35 139.44,-123.69 192,-87 200.33,-81.18 209.92,-76.77 219.76,-73.43"/>
<polygon fill="#63b8ff" stroke="#63b8ff" points="85.27,-229.35 84.68,-239.93 91.74,-232.03 85.27,-229.35"/>
</a>
</g>
</g>
<!-- Node11 -->
<g id="Node000011" class="node">
<title>Node11</title>
<g id="a_Node000011"><a xlink:href="structdnf__composer_1_1element_1_1OscillatoryKernelParameters.html" target="_top" xlink:title="Parameters for an oscillatory (damped&#45;cosine) convolution kernel.">
<polygon fill="white" stroke="#666666" points="371.5,-30 210.5,-30 210.5,0 371.5,0 371.5,-30"/>
<text text-anchor="start" x="218.5" y="-18" font-family="Helvetica,sans-Serif" font-size="10.00">dnf_composer::element</text>
<text text-anchor="middle" x="291" y="-7" font-family="Helvetica,sans-Serif" font-size="10.00">::OscillatoryKernelParameters</text>
</a>
</g>
</g>
<!-- Node0&#45;&gt;Node11 -->
<g id="edge13_Node000000_Node000011" class="edge">
<title>Node0&#45;&gt;Node11</title>
<g id="a_edge13_Node000000_Node000011"><a xlink:title=" ">
<path fill="none" stroke="#63b8ff" d="M84.82,-230.06C96.73,-184.72 128.31,-88.89 192,-39 197.52,-34.68 203.7,-31.12 210.21,-28.2"/>
<polygon fill="#63b8ff" stroke="#63b8ff" points="81.38,-229.39 82.32,-239.94 88.16,-231.1 81.38,-229.39"/>
</a>
</g>
</g>
</g>
</svg>
