<?xml version="1.0" encoding="UTF-8" standalone="no"?>
<!DOCTYPE svg PUBLIC "-//W3C//DTD SVG 1.1//EN"
 "http://www.w3.org/Graphics/SVG/1.1/DTD/svg11.dtd">
<!-- Generated by graphviz version 2.43.0 (0)
 -->
<!-- Title: Graphical Class Hierarchy Pages: 1 -->
<svg width="412pt" height="1238pt"
 viewBox="0.00 0.00 412.00 1238.00" xmlns="http://www.w3.org/2000/svg" xmlns:xlink="http://www.w3.org/1999/xlink">
<g id="graph0" class="graph" transform="scale(1 1) rotate(0) translate(4 1234)">
<title>Graphical Class Hierarchy</title>
<!-- Node0 -->
<g id="Node000000" class="node">
<title>Node0</title>
<g id="a_Node000000"><a xlink:href="structdnf__composer_1_1element_1_1ElementSpecificParameters.html" target="_top" xlink:title=" ">
<polygon fill="white" stroke="#666666" points="156,-630 0,-630 0,-600 156,-600 156,-630"/>
<text text-anchor="start" x="8" y="-618" font-family="Helvetica,sans-Serif" font-size="10.00">dnf_composer::element</text>
<text text-anchor="middle" x="78" y="-607" font-family="Helvetica,sans-Serif" font-size="10.00">::ElementSpecificParameters</text>
</a>
</g>
</g>
<!-- Node1 -->
<g id="Node000001" class="node">
<title>Node1</title>
<g id="a_Node000001"><a xlink:href="structdnf__composer_1_1element_1_1AsymmetricGaussKernel2DParameters.html" target="_top" xlink:title="Parameters for AsymmetricGaussKernel2D.">
<polygon fill="white" stroke="#666666" points="404,-1230 192,-1230 192,-1200 404,-1200 404,-1230"/>
<text text-anchor="start" x="200" y="-1218" font-family="Helvetica,sans-Serif" font-size="10.00">dnf_composer::element</text>
<text text-anchor="middle" x="298" y="-1207" font-family="Helvetica,sans-Serif" font-size="10.00">::AsymmetricGaussKernel2DParameters</text>
</a>
</g>
</g>
<!-- Node0&#45;&gt;Node1 -->
<g id="edge4_Node000000_Node000001" class="edge">
<title>Node0&#45;&gt;Node1</title>
<g id="a_edge4_Node000000_Node000001"><a xlink:title=" ">
<path fill="none" stroke="#63b8ff" d="M80.39,-640.2C86.42,-740.55 113.72,-1110.25 192,-1191 195.25,-1194.36 198.87,-1197.29 202.76,-1199.84"/>
<polygon fill="#63b8ff" stroke="#63b8ff" points="83.87,-639.85 79.8,-630.07 76.88,-640.26 83.87,-639.85"/>
</a>
</g>
</g>
<!-- Node2 -->
<g id="Node000002" class="node">
<title>Node2</title>
<g id="a_Node000002"><a xlink:href="structdnf__composer_1_1element_1_1AsymmetricGaussKernelParameters.html" target="_top" xlink:title="Parameters for an asymmetric (shifted) Gaussian convolution kernel.">
<polygon fill="white" stroke="#666666" points="397,-1182 199,-1182 199,-1152 397,-1152 397,-1182"/>
<text text-anchor="start" x="207" y="-1170" font-family="Helvetica,sans-Serif" font-size="10.00">dnf_composer::element</text>
<text text-anchor="middle" x="298" y="-1159" font-family="Helvetica,sans-Serif" font-size="10.00">::AsymmetricGaussKernelParameters</text>
</a>
</g>
</g>
<!-- Node0&#45;&gt;Node2 -->
<g id="edge5_Node000000_Node000002" class="edge">
<title>Node0&#45;&gt;Node2</title>
<g id="a_edge5_Node000000_Node000002"><a xlink:title=" ">
<path fill="none" stroke="#63b8ff" d="M80.87,-640.22C88.45,-735.24 119.9,-1069.89 192,-1143 195.28,-1146.33 198.93,-1149.24 202.83,-1151.77"/>
<polygon fill="#63b8ff" stroke="#63b8ff" points="84.35,-639.79 80.09,-630.09 77.37,-640.33 84.35,-639.79"/>
</a>
</g>
</g>
<!-- Node3 -->
<g id="Node000003" class="node">
<title>Node3</title>
<g id="a_Node000003"><a xlink:href="structdnf__composer_1_1element_1_1BoostStimulus2DParameters.html" target="_top" xlink:title=" ">
<polygon fill="white" stroke="#666666" points="379,-1134 217,-1134 217,-1104 379,-1104 379,-1134"/>
<text text-anchor="start" x="225" y="-1122" font-family="Helvetica,sans-Serif" font-size="10.00">dnf_composer::element</text>
<text text-anchor="middle" x="298" y="-1111" font-family="Helvetica,sans-Serif" font-size="10.00">::BoostStimulus2DParameters</text>
</a>
</g>
</g>
<!-- Node0&#45;&gt;Node3 -->
<g id="edge6_Node000000_Node000003" class="edge">
<title>Node0&#45;&gt;Node3</title>
<g id="a_edge6_Node000000_Node000003"><a xlink:title=" ">
<path fill="none" stroke="#63b8ff" d="M81.49,-640.53C90.75,-730.3 126.12,-1029.55 192,-1095 199.03,-1101.99 207.65,-1107.11 216.9,-1110.84"/>
<polygon fill="#63b8ff" stroke="#63b8ff" points="84.95,-640.02 80.46,-630.42 77.99,-640.72 84.95,-640.02"/>
</a>
</g>
</g>
<!-- Node4 -->
<g id="Node000004" class="node">
<title>Node4</title>
<g id="a_Node000004"><a xlink:href="structdnf__composer_1_1element_1_1BoostStimulusParameters.html" target="_top" xlink:title="Parameters for a spatially homogeneous boost stimulus.">
<polygon fill="white" stroke="#666666" points="372.5,-1086 223.5,-1086 223.5,-1056 372.5,-1056 372.5,-1086"/>
<text text-anchor="start" x="231.5" y="-1074" font-family="Helvetica,sans-Serif" font-size="10.00">dnf_composer::element</text>
<text text-anchor="middle" x="298" y="-1063" font-family="Helvetica,sans-Serif" font-size="10.00">::BoostStimulusParameters</text>
</a>
</g>
</g>
<!-- Node0&#45;&gt;Node4 -->
<g id="edge7_Node000000_Node000004" class="edge">
<title>Node0&#45;&gt;Node4</title>
<g id="a_edge7_Node000000_Node000004"><a xlink:title=" ">
<path fill="none" stroke="#63b8ff" d="M82.18,-640.4C93.18,-724.08 132.2,-989.04 192,-1047 200.73,-1055.46 211.79,-1061.17 223.44,-1064.98"/>
<polygon fill="#63b8ff" stroke="#63b8ff" points="85.63,-639.73 80.87,-630.26 78.69,-640.63 85.63,-639.73"/>
</a>
</g>
</g>
<!-- Node5 -->
<g id="Node000005" class="node">
<title>Node5</title>
<g id="a_Node000005"><a xlink:href="structdnf__composer_1_1element_1_1CorrelatedNormalNoise2DParameters.html" target="_top" xlink:title=" ">
<polygon fill="white" stroke="#666666" points="401,-1038 195,-1038 195,-1008 401,-1008 401,-1038"/>
<text text-anchor="start" x="203" y="-1026" font-family="Helvetica,sans-Serif" font-size="10.00">dnf_composer::element</text>
<text text-anchor="middle" x="298" y="-1015" font-family="Helvetica,sans-Serif" font-size="10.00">::CorrelatedNormalNoise2DParameters</text>
</a>
</g>
</g>
<!-- Node0&#45;&gt;Node5 -->
<g id="edge8_Node000000_Node000005" class="edge">
<title>Node0&#45;&gt;Node5</title>
<g id="a_edge8_Node000000_Node000005"><a xlink:title=" ">
<path fill="none" stroke="#63b8ff" d="M78.32,-640.54C77.96,-709.38 86.98,-900.24 192,-999 195.54,-1002.33 199.45,-1005.23 203.61,-1007.76"/>
<polygon fill="#63b8ff" stroke="#63b8ff" points="81.82,-640.26 78.45,-630.21 74.82,-640.17 81.82,-640.26"/>
</a>
</g>
</g>
<!-- Node6 -->
<g id="Node000006" class="node">
<title>Node6</title>
<g id="a_Node000006"><a xlink:href="structdnf__composer_1_1element_1_1CorrelatedNormalNoiseParameters.html" target="_top" xlink:title="Parameters for a spatially correlated Gaussian noise source.">
<polygon fill="white" stroke="#666666" points="394.5,-990 201.5,-990 201.5,-960 394.5,-960 394.5,-990"/>
<text text-anchor="start" x="209.5" y="-978" font-family="Helvetica,sans-Serif" font-size="10.00">dnf_composer::element</text>
<text text-anchor="middle" x="298" y="-967" font-family="Helvetica,sans-Serif" font-size="10.00">::CorrelatedNormalNoiseParameters</text>
</a>
</g>
</g>
<!-- Node0&#45;&gt;Node6 -->
<g id="edge9_Node000000_Node000006" class="edge">
<title>Node0&#45;&gt;Node6</title>
<g id="a_edge9_Node000000_Node000006"><a xlink:title=" ">
<path fill="none" stroke="#63b8ff" d="M79.56,-640.31C82.39,-703.03 98.8,-866.66 192,-951 195.74,-954.39 199.87,-957.33 204.24,-959.88"/>
<polygon fill="#63b8ff" stroke="#63b8ff" points="83.05,-640.01 79.18,-630.14 76.06,-640.27 83.05,-640.01"/>
</a>
</g>
</g>
<!-- Node7 -->
<g id="Node000007" class="node">
<title>Node7</title>
<g id="a_Node000007"><a xlink:href="structdnf__composer_1_1element_1_1FieldCouplingParameters.html" target="_top" xlink:title="Parameters for a learned full&#45;matrix field coupling.">
<polygon fill="white" stroke="#666666" points="370,-942 226,-942 226,-912 370,-912 370,-942"/>
<text text-anchor="start" x="234" y="-930" font-family="Helvetica,sans-Serif" font-size="10.00">dnf_composer::element</text>
<text text-anchor="middle" x="298" y="-919" font-family="Helvetica,sans-Serif" font-size="10.00">::FieldCouplingParameters</text>
</a>
</g>
</g>
<!-- Node0&#45;&gt;Node7 -->
<g id="edge10_Node000000_Node000007" class="edge">
<title>Node0&#45;&gt;Node7</title>
<g id="a_edge10_Node000000_Node000007"><a xlink:title=" ">
<path fill="none" stroke="#63b8ff" d="M81.2,-640.52C87.49,-696.98 110.72,-833.02 192,-903 201.64,-911.3 213.56,-916.88 225.88,-920.6"/>
<polygon fill="#63b8ff" stroke="#63b8ff" points="84.66,-639.92 80.16,-630.33 77.69,-640.63 84.66,-639.92"/>
</a>
</g>
</g>
<!-- Node8 -->
<g id="Node000008" class="node">
<title>Node8</title>
<g id="a_Node000008"><a xlink:href="structdnf__composer_1_1element_1_1GaussFieldCouplingParameters.html" target="_top" xlink:title="Parameters for a sparse Gaussian field coupling (fixed projection).">
<polygon fill="white" stroke="#666666" points="385,-894 211,-894 211,-864 385,-864 385,-894"/>
<text text-anchor="start" x="219" y="-882" font-family="Helvetica,sans-Serif" font-size="10.00">dnf_composer::element</text>
<text text-anchor="middle" x="298" y="-871" font-family="Helvetica,sans-Serif" font-size="10.00">::GaussFieldCouplingParameters</text>
</a>
</g>
</g>
<!-- Node0&#45;&gt;Node8 -->
<g id="edge11_Node000000_Node000008" class="edge">
<title>Node0&#45;&gt;Node8</title>
<g id="a_edge11_Node000000_Node000008"><a xlink:title=" ">
<path fill="none" stroke="#63b8ff" d="M83.38,-640.32C93.3,-689.69 122.29,-798.89 192,-855 197.68,-859.57 204.07,-863.31 210.81,-866.36"/>
<polygon fill="#63b8ff" stroke="#63b8ff" points="86.76,-639.36 81.45,-630.2 79.88,-640.67 86.76,-639.36"/>
</a>
</g>
</g>
<!-- Node9 -->
<g id="Node000009" class="node">
<title>Node9</title>
<g id="a_Node000009"><a xlink:href="structdnf__composer_1_1element_1_1GaussKernel2DParameters.html" target="_top" xlink:title=" ">
<polygon fill="white" stroke="#666666" points="374,-846 222,-846 222,-816 374,-816 374,-846"/>
<text text-anchor="start" x="230" y="-834" font-family="Helvetica,sans-Serif" font-size="10.00">dnf_composer::element</text>
<text text-anchor="middle" x="298" y="-823" font-family="Helvetica,sans-Serif" font-size="10.00">::GaussKernel2DParameters</text>
</a>
</g>
</g>
<!-- Node0&#45;&gt;Node9 -->
<g id="edge12_Node000000_Node000009" class="edge">
<title>Node0&#45;&gt;Node9</title>
<g id="a_edge12_Node000000_Node000009"><a xlink:title=" ">
<path fill="none" stroke="#63b8ff" d="M86.35,-639.62C100.03,-680.99 133.45,-764.15 192,-807 200.9,-813.52 211.28,-818.3 221.98,-821.81"/>
<polygon fill="#63b8ff" stroke="#63b8ff" points="89.67,-638.51 83.29,-630.05 83,-640.64 89.67,-638.51"/>
</a>
</g>
</g>
<!-- Node10 -->
<g id="Node000010" class="node">
<title>Node10</title>
<g id="a_Node000010"><a xlink:href="structdnf__composer_1_1element_1_1GaussKernelParameters.html" target="_top" xlink:title="Parameters for a Gaussian lateral interaction kernel.">
<polygon fill="white" stroke="#666666" points="367.5,-798 228.5,-798 228.5,-768 367.5,-768 367.5,-798"/>
<text text-anchor="start" x="236.5" y="-786" font-family="Helvetica,sans-Serif" font-size="10.00">dnf_composer::element</text>
<text text-anchor="middle" x="298" y="-775" font-family="Helvetica,sans-Serif" font-size="10.00">::GaussKernelParameters</text>
</a>
</g>
</g>
<!-- Node0&#45;&gt;Node10 -->
<g id="edge13_Node000000_Node000010" class="edge">
<title>Node0&#45;&gt;Node10</title>
<g id="a_edge13_Node000000_Node000010"><a xlink:title=" ">
<path fill="none" stroke="#63b8ff" d="M91.2,-639.31C108.84,-671.85 144.61,-728.95 192,-759 202.98,-765.96 215.73,-770.91 228.49,-774.43"/>
<polygon fill="#63b8ff" stroke="#63b8ff" points="94.28,-637.64 86.51,-630.44 88.09,-640.92 94.28,-637.64"/>
</a>
</g>
</g>
<!-- Node11 -->
<g id="Node000011" class="node">
<title>Node11</title>
<g id="a_Node000011"><a xlink:href="structdnf__composer_1_1element_1_1GaussStimulus2DParameters.html" target="_top" xlink:title=" ">
<polygon fill="white" stroke="#666666" points="380,-750 216,-750 216,-720 380,-720 380,-750"/>
<text text-anchor="start" x="224" y="-738" font-family="Helvetica,sans-Serif" font-size="10.00">dnf_composer::element</text>
<text text-anchor="middle" x="298" y="-727" font-family="Helvetica,sans-Serif" font-size="10.00">::GaussStimulus2DParameters</text>
</a>
</g>
</g>
<!-- Node0&#45;&gt;Node11 -->
<g id="edge14_Node000000_Node000011" class="edge">
<title>Node0&#45;&gt;Node11</title>
<g id="a_edge14_Node000000_Node000011"><a xlink:title=" ">
<path fill="none" stroke="#63b8ff" d="M99.17,-637.54C120.19,-659.61 155.15,-692.54 192,-711 199.52,-714.77 207.65,-717.96 215.92,-720.65"/>
<polygon fill="#63b8ff" stroke="#63b8ff" points="101.72,-635.15 92.34,-630.23 96.61,-639.92 101.72,-635.15"/>
</a>
</g>
</g>
<!-- Node12 -->
<g id="Node000012" class="node">
<title>Node12</title>
<g id="a_Node000012"><a xlink:href="structdnf__composer_1_1element_1_1GaussStimulusParameters.html" target="_top" xlink:title="Parameters for a Gaussian&#45;shaped external stimulus.">
<polygon fill="white" stroke="#666666" points="373.5,-702 222.5,-702 222.5,-672 373.5,-672 373.5,-702"/>
<text text-anchor="start" x="230.5" y="-690" font-family="Helvetica,sans-Serif" font-size="10.00">dnf_composer::element</text>
<text text-anchor="middle" x="298" y="-679" font-family="Helvetica,sans-Serif" font-size="10.00">::GaussStimulusParameters</text>
</a>
</g>
</g>
<!-- Node0&#45;&gt;Node12 -->
<g id="edge15_Node000000_Node000012" class="edge">
<title>Node0&#45;&gt;Node12</title>
<g id="a_edge15_Node000000_Node000012"><a xlink:title=" ">
<path fill="none" stroke="#63b8ff" d="M119.9,-634.45C141.08,-643.98 167.56,-655.08 192,-663 202.14,-666.28 212.97,-669.3 223.68,-671.99"/>
<polygon fill="#63b8ff" stroke="#63b8ff" points="121.12,-631.16 110.57,-630.19 118.22,-637.53 121.12,-631.16"/>
</a>
</g>
</g>
<!-- Node13 -->
<g id="Node000013" class="node">
<title>Node13</title>
<g id="a_Node000013"><a xlink:href="structdnf__composer_1_1element_1_1MemoryTrace2DParameters.html" target="_top" xlink:title="Parameters governing MemoryTrace2D build&#45;up and decay dynamics.">
<polygon fill="white" stroke="#666666" points="377,-654 219,-654 219,-624 377,-624 377,-654"/>
<text text-anchor="start" x="227" y="-642" font-family="Helvetica,sans-Serif" font-size="10.00">dnf_composer::element</text>
<text text-anchor="middle" x="298" y="-631" font-family="Helvetica,sans-Serif" font-size="10.00">::MemoryTrace2DParameters</text>
</a>
</g>
</g>
<!-- Node0&#45;&gt;Node13 -->
<g id="edge16_Node000000_Node000013" class="edge">
<title>Node0&#45;&gt;Node13</title>
<g id="a_edge16_Node000000_Node000013"><a xlink:title=" ">
<path fill="none" stroke="#63b8ff" d="M166.29,-624.61C183.66,-626.52 201.79,-628.52 218.83,-630.39"/>
<polygon fill="#63b8ff" stroke="#63b8ff" points="166.49,-621.11 156.17,-623.5 165.72,-628.07 166.49,-621.11"/>
</a>
</g>
</g>
<!-- Node14 -->
<g id="Node000014" class="node">
<title>Node14</title>
<g id="a_Node000014"><a xlink:href="structdnf__composer_1_1element_1_1MemoryTraceParameters.html" target="_top" xlink:title="Parameters governing MemoryTrace build&#45;up and decay dynamics.">
<polygon fill="white" stroke="#666666" points="370,-606 226,-606 226,-576 370,-576 370,-606"/>
<text text-anchor="start" x="234" y="-594" font-family="Helvetica,sans-Serif" font-size="10.00">dnf_composer::element</text>
<text text-anchor="middle" x="298" y="-583" font-family="Helvetica,sans-Serif" font-size="10.00">::MemoryTraceParameters</text>
</a>
</g>
</g>
<!-- Node0&#45;&gt;Node14 -->
<g id="edge17_Node000000_Node000014" class="edge">
<title>Node0&#45;&gt;Node14</title>
<g id="a_edge17_Node000000_Node000014"><a xlink:title=" ">
<path fill="none" stroke="#63b8ff" d="M166.37,-605.38C186.1,-603.21 206.8,-600.93 225.77,-598.84"/>
<polygon fill="#63b8ff" stroke="#63b8ff" points="165.72,-601.93 156.17,-606.5 166.49,-608.89 165.72,-601.93"/>
</a>
</g>
</g>
<!-- Node15 -->
<g id="Node000015" class="node">
<title>Node15</title>
<g id="a_Node000015"><a xlink:href="structdnf__composer_1_1element_1_1MexicanHatKernel2DParameters.html" target="_top" xlink:title=" ">
<polygon fill="white" stroke="#666666" points="388.5,-558 207.5,-558 207.5,-528 388.5,-528 388.5,-558"/>
<text text-anchor="start" x="215.5" y="-546" font-family="Helvetica,sans-Serif" font-size="10.00">dnf_composer::element</text>
<text text-anchor="middle" x="298" y="-535" font-family="Helvetica,sans-Serif" font-size="10.00">::MexicanHatKernel2DParameters</text>
</a>
</g>
</g>
<!-- Node0&#45;&gt;Node15 -->
<g id="edge18_Node000000_Node000015" class="edge">
<title>Node0&#45;&gt;Node15</title>
<g id="a_edge18_Node000000_Node000015"><a xlink:title=" ">
<path fill="none" stroke="#63b8ff" d="M119.9,-595.55C141.08,-586.02 167.56,-574.92 192,-567 202.14,-563.72 212.97,-560.7 223.68,-558.01"/>
<polygon fill="#63b8ff" stroke="#63b8ff" points="118.22,-592.47 110.57,-599.81 121.12,-598.84 118.22,-592.47"/>
</a>
</g>
</g>
<!-- Node16 -->
<g id="Node000016" class="node">
<title>Node16</title>
<g id="a_Node000016"><a xlink:href="structdnf__composer_1_1element_1_1MexicanHatKernelParameters.html" target="_top" xlink:title="Parameters for a Mexican&#45;hat lateral interaction kernel.">
<polygon fill="white" stroke="#666666" points="381.5,-510 214.5,-510 214.5,-480 381.5,-480 381.5,-510"/>
<text text-anchor="start" x="222.5" y="-498" font-family="Helvetica,sans-Serif" font-size="10.00">dnf_composer::element</text>
<text text-anchor="middle" x="298" y="-487" font-family="Helvetica,sans-Serif" font-size="10.00">::MexicanHatKernelParameters</text>
</a>
</g>
</g>
<!-- Node0&#45;&gt;Node16 -->
<g id="edge19_Node000000_Node000016" class="edge">
<title>Node0&#45;&gt;Node16</title>
<g id="a_edge19_Node000000_Node000016"><a xlink:title=" ">
<path fill="none" stroke="#63b8ff" d="M99.17,-592.46C120.19,-570.39 155.15,-537.46 192,-519 199.02,-515.48 206.57,-512.47 214.27,-509.9"/>
<polygon fill="#63b8ff" stroke="#63b8ff" points="96.61,-590.08 92.34,-599.77 101.72,-594.85 96.61,-590.08"/>
</a>
</g>
</g>
<!-- Node17 -->
<g id="Node000017" class="node">
<title>Node17</title>
<g id="a_Node000017"><a xlink:href="structdnf__composer_1_1element_1_1NeuralField2DParameters.html" target="_top" xlink:title=" ">
<polygon fill="white" stroke="#666666" points="371.5,-462 224.5,-462 224.5,-432 371.5,-432 371.5,-462"/>
<text text-anchor="start" x="232.5" y="-450" font-family="Helvetica,sans-Serif" font-size="10.00">dnf_composer::element</text>
<text text-anchor="middle" x="298" y="-439" font-family="Helvetica,sans-Serif" font-size="10.00">::NeuralField2DParameters</text>
</a>
</g>
</g>
<!-- Node0&#45;&gt;Node17 -->
<g id="edge20_Node000000_Node000017" class="edge">
<title>Node0&#45;&gt;Node17</title>
<g id="a_edge20_Node000000_Node000017"><a xlink:title=" ">
<path fill="none" stroke="#63b8ff" d="M91.2,-590.69C108.84,-558.15 144.61,-501.05 192,-471 201.79,-464.79 213,-460.18 224.36,-456.76"/>
<polygon fill="#63b8ff" stroke="#63b8ff" points="88.09,-589.08 86.51,-599.56 94.28,-592.36 88.09,-589.08"/>
</a>
</g>
</g>
<!-- Node18 -->
<g id="Node000018" class="node">
<title>Node18</title>
<g id="a_Node000018"><a xlink:href="structdnf__composer_1_1element_1_1NeuralFieldParameters.html" target="_top" xlink:title="Parameters that govern a NeuralField&#39;s dynamics.">
<polygon fill="white" stroke="#666666" points="365,-414 231,-414 231,-384 365,-384 365,-414"/>
<text text-anchor="start" x="239" y="-402" font-family="Helvetica,sans-Serif" font-size="10.00">dnf_composer::element</text>
<text text-anchor="middle" x="298" y="-391" font-family="Helvetica,sans-Serif" font-size="10.00">::NeuralFieldParameters</text>
</a>
</g>
</g>
<!-- Node0&#45;&gt;Node18 -->
<g id="edge21_Node000000_Node000018" class="edge">
<title>Node0&#45;&gt;Node18</title>
<g id="a_edge21_Node000000_Node000018"><a xlink:title=" ">
<path fill="none" stroke="#63b8ff" d="M86.35,-590.38C100.03,-549.01 133.45,-465.85 192,-423 203.32,-414.72 217.02,-409.23 230.73,-405.61"/>
<polygon fill="#63b8ff" stroke="#63b8ff" points="83,-589.36 83.29,-599.95 89.67,-591.49 83,-589.36"/>
</a>
</g>
</g>
<!-- Node19 -->
<g id="Node000019" class="node">
<title>Node19</title>
<g id="a_Node000019"><a xlink:href="structdnf__composer_1_1element_1_1NormalNoise2DParameters.html" target="_top" xlink:title=" ">
<polygon fill="white" stroke="#666666" points="375.5,-366 220.5,-366 220.5,-336 375.5,-336 375.5,-366"/>
<text text-anchor="start" x="228.5" y="-354" font-family="Helvetica,sans-Serif" font-size="10.00">dnf_composer::element</text>
<text text-anchor="middle" x="298" y="-343" font-family="Helvetica,sans-Serif" font-size="10.00">::NormalNoise2DParameters</text>
</a>
</g>
</g>
<!-- Node0&#45;&gt;Node19 -->
<g id="edge22_Node000000_Node000019" class="edge">
<title>Node0&#45;&gt;Node19</title>
<g id="a_edge22_Node000000_Node000019"><a xlink:title=" ">
<path fill="none" stroke="#63b8ff" d="M83.38,-589.68C93.3,-540.31 122.29,-431.11 192,-375 200.3,-368.32 210.11,-363.42 220.35,-359.85"/>
<polygon fill="#63b8ff" stroke="#63b8ff" points="79.88,-589.33 81.45,-599.8 86.76,-590.64 79.88,-589.33"/>
</a>
</g>
</g>
<!-- Node20 -->
<g id="Node000020" class="node">
<title>Node20</title>
<g id="a_Node000020"><a xlink:href="structdnf__composer_1_1element_1_1NormalNoiseParameters.html" target="_top" xlink:title="Parameters for an additive normal&#45;noise input.">
<polygon fill="white" stroke="#666666" points="369,-318 227,-318 227,-288 369,-288 369,-318"/>
<text text-anchor="start" x="235" y="-306" font-family="Helvetica,sans-Serif" font-size="10.00">dnf_composer::element</text>
<text text-anchor="middle" x="298" y="-295" font-family="Helvetica,sans-Serif" font-size="10.00">::NormalNoiseParameters</text>
</a>
</g>
</g>
<!-- Node0&#45;&gt;Node20 -->
<g id="edge23_Node000000_Node000020" class="edge">
<title>Node0&#45;&gt;Node20</title>
<g id="a_edge23_Node000000_Node000020"><a xlink:title=" ">
<path fill="none" stroke="#63b8ff" d="M81.2,-589.48C87.49,-533.02 110.72,-396.98 192,-327 201.92,-318.46 214.27,-312.8 226.97,-309.07"/>
<polygon fill="#63b8ff" stroke="#63b8ff" points="77.69,-589.37 80.16,-599.67 84.66,-590.08 77.69,-589.37"/>
</a>
</g>
</g>
<!-- Node21 -->
<g id="Node000021" class="node">
<title>Node21</title>
<g id="a_Node000021"><a xlink:href="structdnf__composer_1_1element_1_1OscillatoryKernel2DParameters.html" target="_top" xlink:title="Parameters for OscillatoryKernel2D.">
<polygon fill="white" stroke="#666666" points="385.5,-270 210.5,-270 210.5,-240 385.5,-240 385.5,-270"/>
<text text-anchor="start" x="218.5" y="-258" font-family="Helvetica,sans-Serif" font-size="10.00">dnf_composer::element</text>
<text text-anchor="middle" x="298" y="-247" font-family="Helvetica,sans-Serif" font-size="10.00">::OscillatoryKernel2DParameters</text>
</a>
</g>
</g>
<!-- Node0&#45;&gt;Node21 -->
<g id="edge24_Node000000_Node000021" class="edge">
<title>Node0&#45;&gt;Node21</title>
<g id="a_edge24_Node000000_Node000021"><a xlink:title=" ">
<path fill="none" stroke="#63b8ff" d="M79.56,-589.69C82.39,-526.97 98.8,-363.34 192,-279 197.48,-274.04 203.76,-270.05 210.48,-266.83"/>
<polygon fill="#63b8ff" stroke="#63b8ff" points="76.06,-589.73 79.18,-599.86 83.05,-589.99 76.06,-589.73"/>
</a>
</g>
</g>
<!-- Node22 -->
<g id="Node000022" class="node">
<title>Node22</title>
<g id="a_Node000022"><a xlink:href="structdnf__composer_1_1element_1_1OscillatoryKernelParameters.html" target="_top" xlink:title="Parameters for an oscillatory (damped&#45;cosine) convolution kernel.">
<polygon fill="white" stroke="#666666" points="378.5,-222 217.5,-222 217.5,-192 378.5,-192 378.5,-222"/>
<text text-anchor="start" x="225.5" y="-210" font-family="Helvetica,sans-Serif" font-size="10.00">dnf_composer::element</text>
<text text-anchor="middle" x="298" y="-199" font-family="Helvetica,sans-Serif" font-size="10.00">::OscillatoryKernelParameters</text>
</a>
</g>
</g>
<!-- Node0&#45;&gt;Node22 -->
<g id="edge25_Node000000_Node000022" class="edge">
<title>Node0&#45;&gt;Node22</title>
<g id="a_edge25_Node000000_Node000022"><a xlink:title=" ">
<path fill="none" stroke="#63b8ff" d="M78.32,-589.46C77.96,-520.62 86.98,-329.76 192,-231 199.22,-224.21 207.95,-219.2 217.26,-215.53"/>
<polygon fill="#63b8ff" stroke="#63b8ff" points="74.82,-589.83 78.45,-599.79 81.82,-589.74 74.82,-589.83"/>
</a>
</g>
</g>
<!-- Node23 -->
<g id="Node000023" class="node">
<title>Node23</title>
<g id="a_Node000023"><a xlink:href="structdnf__composer_1_1element_1_1Resize2DParameters.html" target="_top" xlink:title="Parameters for a 2D Resize element.">
<polygon fill="white" stroke="#666666" points="364,-174 232,-174 232,-144 364,-144 364,-174"/>
<text text-anchor="start" x="240" y="-162" font-family="Helvetica,sans-Serif" font-size="10.00">dnf_composer::element</text>
<text text-anchor="middle" x="298" y="-151" font-family="Helvetica,sans-Serif" font-size="10.00">::Resize2DParameters</text>
</a>
</g>
</g>
<!-- Node0&#45;&gt;Node23 -->
<g id="edge26_Node000000_Node000023" class="edge">
<title>Node0&#45;&gt;Node23</title>
<g id="a_edge26_Node000000_Node000023"><a xlink:title=" ">
<path fill="none" stroke="#63b8ff" d="M82.18,-589.6C93.18,-505.92 132.2,-240.96 192,-183 202.81,-172.52 217.2,-166.26 231.86,-162.6"/>
<polygon fill="#63b8ff" stroke="#63b8ff" points="78.69,-589.37 80.87,-599.74 85.63,-590.27 78.69,-589.37"/>
</a>
</g>
</g>
<!-- Node24 -->
<g id="Node000024" class="node">
<title>Node24</title>
<g id="a_Node000024"><a xlink:href="structdnf__composer_1_1element_1_1ResizeParameters.html" target="_top" xlink:title="Parameters for a 1D Resize element.">
<polygon fill="white" stroke="#666666" points="364,-126 232,-126 232,-96 364,-96 364,-126"/>
<text text-anchor="start" x="240" y="-114" font-family="Helvetica,sans-Serif" font-size="10.00">dnf_composer::element</text>
<text text-anchor="middle" x="298" y="-103" font-family="Helvetica,sans-Serif" font-size="10.00">::ResizeParameters</text>
</a>
</g>
</g>
<!-- Node0&#45;&gt;Node24 -->
<g id="edge27_Node000000_Node000024" class="edge">
<title>Node0&#45;&gt;Node24</title>
<g id="a_edge27_Node000000_Node000024"><a xlink:title=" ">
<path fill="none" stroke="#63b8ff" d="M81.49,-589.47C90.75,-499.7 126.12,-200.45 192,-135 202.74,-124.32 217.2,-118 231.95,-114.35"/>
<polygon fill="#63b8ff" stroke="#63b8ff" points="77.99,-589.28 80.46,-599.58 84.95,-589.98 77.99,-589.28"/>
</a>
</g>
</g>
<!-- Node25 -->
<g id="Node000025" class="node">
<title>Node25</title>
<g id="a_Node000025"><a xlink:href="structdnf__composer_1_1element_1_1TimedGaussStimulus2DParameters.html" target="_top" xlink:title=" ">
<polygon fill="white" stroke="#666666" points="395.5,-78 200.5,-78 200.5,-48 395.5,-48 395.5,-78"/>
<text text-anchor="start" x="208.5" y="-66" font-family="Helvetica,sans-Serif" font-size="10.00">dnf_composer::element</text>
<text text-anchor="middle" x="298" y="-55" font-family="Helvetica,sans-Serif" font-size="10.00">::TimedGaussStimulus2DParameters</text>
</a>
</g>
</g>
<!-- Node0&#45;&gt;Node25 -->
<g id="edge28_Node000000_Node000025" class="edge">
<title>Node0&#45;&gt;Node25</title>
<g id="a_edge28_Node000000_Node000025"><a xlink:title=" ">
<path fill="none" stroke="#63b8ff" d="M80.87,-589.78C88.45,-494.76 119.9,-160.11 192,-87 195.28,-83.67 198.93,-80.76 202.83,-78.23"/>
<polygon fill="#63b8ff" stroke="#63b8ff" points="77.37,-589.67 80.09,-599.91 84.35,-590.21 77.37,-589.67"/>
</a>
</g>
</g>
<!-- Node26 -->
<g id="Node000026" class="node">
<title>Node26</title>
<g id="a_Node000026"><a xlink:href="structdnf__composer_1_1element_1_1TimedGaussStimulusParameters.html" target="_top" xlink:title=" ">
<polygon fill="white" stroke="#666666" points="389,-30 207,-30 207,0 389,0 389,-30"/>
<text text-anchor="start" x="215" y="-18" font-family="Helvetica,sans-Serif" font-size="10.00">dnf_composer::element</text>
<text text-anchor="middle" x="298" y="-7" font-family="Helvetica,sans-Serif" font-size="10.00">::TimedGaussStimulusParameters</text>
</a>
</g>
</g>
<!-- Node0&#45;&gt;Node26 -->
<g id="edge29_Node000000_Node000026" class="edge">
<title>Node0&#45;&gt;Node26</title>
<g id="a_edge29_Node000000_Node000026"><a xlink:title=" ">
<path fill="none" stroke="#63b8ff" d="M80.39,-589.8C86.42,-489.45 113.72,-119.75 192,-39 196.3,-34.57 201.23,-30.88 206.56,-27.82"/>
<polygon fill="#63b8ff" stroke="#63b8ff" points="76.88,-589.74 79.8,-599.93 83.87,-590.15 76.88,-589.74"/>
</a>
</g>
</g>
</g>
</svg>
