<?xml version="1.0" encoding="UTF-8" standalone="no"?>
<!DOCTYPE svg PUBLIC "-//W3C//DTD SVG 1.1//EN"
 "http://www.w3.org/Graphics/SVG/1.1/DTD/svg11.dtd">
<!-- Generated by graphviz version 2.43.0 (0)
 -->
<!-- Title: Graphical Class Hierarchy Pages: 1 -->
<svg width="349pt" height="566pt"
 viewBox="0.00 0.00 349.00 566.00" xmlns="http://www.w3.org/2000/svg" xmlns:xlink="http://www.w3.org/1999/xlink">
<g id="graph0" class="graph" transform="scale(1 1) rotate(0) translate(4 562)">
<title>Graphical Class Hierarchy</title>
<!-- Node0 -->
<g id="Node000000" class="node">
<title>Node0</title>
<g id="a_Node000000"><a xlink:title=" ">
<polygon fill="#e0e0e0" stroke="#999999" points="134,-294 0,-294 0,-264 134,-264 134,-294"/>
<text text-anchor="start" x="8" y="-282" font-family="Helvetica,sans-Serif" font-size="10.00">imgui_kit::UserInterface</text>
<text text-anchor="middle" x="67" y="-271" font-family="Helvetica,sans-Serif" font-size="10.00">Window</text>
</a>
</g>
</g>
<!-- Node1 -->
<g id="Node000001" class="node">
<title>Node1</title>
<g id="a_Node000001"><a xlink:href="classdnf__composer_1_1user__interface_1_1ControlBarWindow.html" target="_top" xlink:title=" ">
<polygon fill="white" stroke="#666666" points="336.5,-558 174.5,-558 174.5,-528 336.5,-528 336.5,-558"/>
<text text-anchor="start" x="182.5" y="-546" font-family="Helvetica,sans-Serif" font-size="10.00">dnf_composer::user</text>
<text text-anchor="middle" x="255.5" y="-535" font-family="Helvetica,sans-Serif" font-size="10.00">_interface::ControlBarWindow</text>
</a>
</g>
</g>
<!-- Node0&#45;&gt;Node1 -->
<g id="edge34_Node000000_Node000001" class="edge">
<title>Node0&#45;&gt;Node1</title>
<g id="a_edge34_Node000000_Node000001"><a xlink:title=" ">
<path fill="none" stroke="#63b8ff" d="M71.48,-304.31C79.56,-353.21 104.19,-460.95 170,-519 173.89,-522.43 178.23,-525.37 182.85,-527.9"/>
<polygon fill="#63b8ff" stroke="#63b8ff" points="74.91,-303.62 69.92,-294.27 68,-304.69 74.91,-303.62"/>
</a>
</g>
</g>
<!-- Node2 -->
<g id="Node000002" class="node">
<title>Node2</title>
<g id="a_Node000002"><a xlink:href="classdnf__composer_1_1user__interface_1_1ElementWindow.html" target="_top" xlink:title=" ">
<polygon fill="white" stroke="#666666" points="331,-510 180,-510 180,-480 331,-480 331,-510"/>
<text text-anchor="start" x="188" y="-498" font-family="Helvetica,sans-Serif" font-size="10.00">dnf_composer::user</text>
<text text-anchor="middle" x="255.5" y="-487" font-family="Helvetica,sans-Serif" font-size="10.00">_interface::ElementWindow</text>
</a>
</g>
</g>
<!-- Node0&#45;&gt;Node2 -->
<g id="edge35_Node000000_Node000002" class="edge">
<title>Node0&#45;&gt;Node2</title>
<g id="a_edge35_Node000000_Node000002"><a xlink:title=" ">
<path fill="none" stroke="#63b8ff" d="M74.32,-303.83C86.06,-344.86 115.17,-426.7 170,-471 174.27,-474.45 179.01,-477.41 184,-479.94"/>
<polygon fill="#63b8ff" stroke="#63b8ff" points="77.67,-302.8 71.64,-294.09 70.92,-304.66 77.67,-302.8"/>
</a>
</g>
</g>
<!-- Node3 -->
<g id="Node000003" class="node">
<title>Node3</title>
<g id="a_Node000003"><a xlink:href="classdnf__composer_1_1user__interface_1_1FieldMetricsWindow.html" target="_top" xlink:title=" ">
<polygon fill="white" stroke="#666666" points="340.5,-462 170.5,-462 170.5,-432 340.5,-432 340.5,-462"/>
<text text-anchor="start" x="178.5" y="-450" font-family="Helvetica,sans-Serif" font-size="10.00">dnf_composer::user</text>
<text text-anchor="middle" x="255.5" y="-439" font-family="Helvetica,sans-Serif" font-size="10.00">_interface::FieldMetricsWindow</text>
</a>
</g>
</g>
<!-- Node0&#45;&gt;Node3 -->
<g id="edge36_Node000000_Node000003" class="edge">
<title>Node0&#45;&gt;Node3</title>
<g id="a_edge36_Node000000_Node000003"><a xlink:title=" ">
<path fill="none" stroke="#63b8ff" d="M78.81,-303.38C94.34,-335.6 126.03,-391.9 170,-423 174.86,-426.43 180.19,-429.38 185.75,-431.9"/>
<polygon fill="#63b8ff" stroke="#63b8ff" points="81.92,-301.78 74.51,-294.21 75.59,-304.75 81.92,-301.78"/>
</a>
</g>
</g>
<!-- Node4 -->
<g id="Node000004" class="node">
<title>Node4</title>
<g id="a_Node000004"><a xlink:href="classdnf__composer_1_1user__interface_1_1HelpWindow.html" target="_top" xlink:title=" ">
<polygon fill="white" stroke="#666666" points="322,-414 189,-414 189,-384 322,-384 322,-414"/>
<text text-anchor="start" x="197" y="-402" font-family="Helvetica,sans-Serif" font-size="10.00">dnf_composer::user</text>
<text text-anchor="middle" x="255.5" y="-391" font-family="Helvetica,sans-Serif" font-size="10.00">_interface::HelpWindow</text>
</a>
</g>
</g>
<!-- Node0&#45;&gt;Node4 -->
<g id="edge37_Node000000_Node000004" class="edge">
<title>Node0&#45;&gt;Node4</title>
<g id="a_edge37_Node000000_Node000004"><a xlink:title=" ">
<path fill="none" stroke="#63b8ff" d="M86.45,-301.8C105.27,-323.62 136.43,-355.96 170,-375 175.97,-378.39 182.45,-381.32 189.08,-383.86"/>
<polygon fill="#63b8ff" stroke="#63b8ff" points="88.98,-299.38 79.86,-294 83.64,-303.9 88.98,-299.38"/>
</a>
</g>
</g>
<!-- Node5 -->
<g id="Node000005" class="node">
<title>Node5</title>
<g id="a_Node000005"><a xlink:href="classdnf__composer_1_1user__interface_1_1LogWindow.html" target="_top" xlink:title=" ">
<polygon fill="white" stroke="#666666" points="319.5,-366 191.5,-366 191.5,-336 319.5,-336 319.5,-366"/>
<text text-anchor="start" x="199.5" y="-354" font-family="Helvetica,sans-Serif" font-size="10.00">dnf_composer::user</text>
<text text-anchor="middle" x="255.5" y="-343" font-family="Helvetica,sans-Serif" font-size="10.00">_interface::LogWindow</text>
</a>
</g>
</g>
<!-- Node0&#45;&gt;Node5 -->
<g id="edge38_Node000000_Node000005" class="edge">
<title>Node0&#45;&gt;Node5</title>
<g id="a_edge38_Node000000_Node000005"><a xlink:title=" ">
<path fill="none" stroke="#63b8ff" d="M106.08,-298.73C124.99,-308.06 148.36,-318.9 170,-327 178.57,-330.21 187.76,-333.23 196.82,-335.98"/>
<polygon fill="#63b8ff" stroke="#63b8ff" points="107.42,-295.49 96.91,-294.16 104.3,-301.75 107.42,-295.49"/>
</a>
</g>
</g>
<!-- Node6 -->
<g id="Node000006" class="node">
<title>Node6</title>
<g id="a_Node000006"><a xlink:href="classdnf__composer_1_1user__interface_1_1MainMenuBar.html" target="_top" xlink:title=" ">
<polygon fill="white" stroke="#666666" points="325,-318 186,-318 186,-288 325,-288 325,-318"/>
<text text-anchor="start" x="194" y="-306" font-family="Helvetica,sans-Serif" font-size="10.00">dnf_composer::user</text>
<text text-anchor="middle" x="255.5" y="-295" font-family="Helvetica,sans-Serif" font-size="10.00">_interface::MainMenuBar</text>
</a>
</g>
</g>
<!-- Node0&#45;&gt;Node6 -->
<g id="edge39_Node000000_Node000006" class="edge">
<title>Node0&#45;&gt;Node6</title>
<g id="a_edge39_Node000000_Node000006"><a xlink:title=" ">
<path fill="none" stroke="#63b8ff" d="M143.97,-288.78C157.79,-290.55 172.13,-292.4 185.73,-294.15"/>
<polygon fill="#63b8ff" stroke="#63b8ff" points="144.38,-285.3 134.02,-287.5 143.49,-292.24 144.38,-285.3"/>
</a>
</g>
</g>
<!-- Node7 -->
<g id="Node000007" class="node">
<title>Node7</title>
<g id="a_Node000007"><a xlink:href="classdnf__composer_1_1user__interface_1_1NodeGraphWindow.html" target="_top" xlink:title=" ">
<polygon fill="white" stroke="#666666" points="338,-270 173,-270 173,-240 338,-240 338,-270"/>
<text text-anchor="start" x="181" y="-258" font-family="Helvetica,sans-Serif" font-size="10.00">dnf_composer::user</text>
<text text-anchor="middle" x="255.5" y="-247" font-family="Helvetica,sans-Serif" font-size="10.00">_interface::NodeGraphWindow</text>
</a>
</g>
</g>
<!-- Node0&#45;&gt;Node7 -->
<g id="edge40_Node000000_Node000007" class="edge">
<title>Node0&#45;&gt;Node7</title>
<g id="a_edge40_Node000000_Node000007"><a xlink:title=" ">
<path fill="none" stroke="#63b8ff" d="M144.17,-269.2C153.63,-267.98 163.34,-266.73 172.88,-265.5"/>
<polygon fill="#63b8ff" stroke="#63b8ff" points="143.49,-265.76 134.02,-270.5 144.38,-272.7 143.49,-265.76"/>
</a>
</g>
</g>
<!-- Node8 -->
<g id="Node000008" class="node">
<title>Node8</title>
<g id="a_Node000008"><a xlink:href="classdnf__composer_1_1user__interface_1_1PlotControlWindow.html" target="_top" xlink:title=" ">
<polygon fill="white" stroke="#666666" points="337.5,-222 173.5,-222 173.5,-192 337.5,-192 337.5,-222"/>
<text text-anchor="start" x="181.5" y="-210" font-family="Helvetica,sans-Serif" font-size="10.00">dnf_composer::user</text>
<text text-anchor="middle" x="255.5" y="-199" font-family="Helvetica,sans-Serif" font-size="10.00">_interface::PlotControlWindow</text>
</a>
</g>
</g>
<!-- Node0&#45;&gt;Node8 -->
<g id="edge41_Node000000_Node000008" class="edge">
<title>Node0&#45;&gt;Node8</title>
<g id="a_edge41_Node000000_Node000008"><a xlink:title=" ">
<path fill="none" stroke="#63b8ff" d="M106.08,-259.27C124.99,-249.94 148.36,-239.1 170,-231 178.57,-227.79 187.76,-224.77 196.82,-222.02"/>
<polygon fill="#63b8ff" stroke="#63b8ff" points="104.3,-256.25 96.91,-263.84 107.42,-262.51 104.3,-256.25"/>
</a>
</g>
</g>
<!-- Node9 -->
<g id="Node000009" class="node">
<title>Node9</title>
<g id="a_Node000009"><a xlink:href="classdnf__composer_1_1user__interface_1_1PlotsWindow.html" target="_top" xlink:title=" ">
<polygon fill="white" stroke="#666666" points="322.5,-174 188.5,-174 188.5,-144 322.5,-144 322.5,-174"/>
<text text-anchor="start" x="196.5" y="-162" font-family="Helvetica,sans-Serif" font-size="10.00">dnf_composer::user</text>
<text text-anchor="middle" x="255.5" y="-151" font-family="Helvetica,sans-Serif" font-size="10.00">_interface::PlotsWindow</text>
</a>
</g>
</g>
<!-- Node0&#45;&gt;Node9 -->
<g id="edge42_Node000000_Node000009" class="edge">
<title>Node0&#45;&gt;Node9</title>
<g id="a_edge42_Node000000_Node000009"><a xlink:title=" ">
<path fill="none" stroke="#63b8ff" d="M86.45,-256.2C105.27,-234.38 136.43,-202.04 170,-183 175.97,-179.61 182.45,-176.68 189.08,-174.14"/>
<polygon fill="#63b8ff" stroke="#63b8ff" points="83.64,-254.1 79.86,-264 88.98,-258.62 83.64,-254.1"/>
</a>
</g>
</g>
<!-- Node10 -->
<g id="Node000010" class="node">
<title>Node10</title>
<g id="a_Node000010"><a xlink:href="classdnf__composer_1_1user__interface_1_1SimulationWindow.html" target="_top" xlink:title=" ">
<polygon fill="white" stroke="#666666" points="337,-126 174,-126 174,-96 337,-96 337,-126"/>
<text text-anchor="start" x="182" y="-114" font-family="Helvetica,sans-Serif" font-size="10.00">dnf_composer::user</text>
<text text-anchor="middle" x="255.5" y="-103" font-family="Helvetica,sans-Serif" font-size="10.00">_interface::SimulationWindow</text>
</a>
</g>
</g>
<!-- Node0&#45;&gt;Node10 -->
<g id="edge43_Node000000_Node000010" class="edge">
<title>Node0&#45;&gt;Node10</title>
<g id="a_edge43_Node000000_Node000010"><a xlink:title=" ">
<path fill="none" stroke="#63b8ff" d="M78.81,-254.62C94.34,-222.4 126.03,-166.1 170,-135 174.86,-131.57 180.19,-128.62 185.75,-126.1"/>
<polygon fill="#63b8ff" stroke="#63b8ff" points="75.59,-253.25 74.51,-263.79 81.92,-256.22 75.59,-253.25"/>
</a>
</g>
</g>
<!-- Node11 -->
<g id="Node000011" class="node">
<title>Node11</title>
<g id="a_Node000011"><a xlink:href="classdnf__composer_1_1user__interface_1_1StaticLayoutWindow.html" target="_top" xlink:title=" ">
<polygon fill="white" stroke="#666666" points="341,-78 170,-78 170,-48 341,-48 341,-78"/>
<text text-anchor="start" x="178" y="-66" font-family="Helvetica,sans-Serif" font-size="10.00">dnf_composer::user</text>
<text text-anchor="middle" x="255.5" y="-55" font-family="Helvetica,sans-Serif" font-size="10.00">_interface::StaticLayoutWindow</text>
</a>
</g>
</g>
<!-- Node0&#45;&gt;Node11 -->
<g id="edge44_Node000000_Node000011" class="edge">
<title>Node0&#45;&gt;Node11</title>
<g id="a_edge44_Node000000_Node000011"><a xlink:title=" ">
<path fill="none" stroke="#63b8ff" d="M74.32,-254.17C86.06,-213.14 115.17,-131.3 170,-87 174.27,-83.55 179.01,-80.59 184,-78.06"/>
<polygon fill="#63b8ff" stroke="#63b8ff" points="70.92,-253.34 71.64,-263.91 77.67,-255.2 70.92,-253.34"/>
</a>
</g>
</g>
<!-- Node12 -->
<g id="Node000012" class="node">
<title>Node12</title>
<g id="a_Node000012"><a xlink:href="classdnf__composer_1_1user__interface_1_1StatusBarWindow.html" target="_top" xlink:title=" ">
<polygon fill="white" stroke="#666666" points="334.5,-30 176.5,-30 176.5,0 334.5,0 334.5,-30"/>
<text text-anchor="start" x="184.5" y="-18" font-family="Helvetica,sans-Serif" font-size="10.00">dnf_composer::user</text>
<text text-anchor="middle" x="255.5" y="-7" font-family="Helvetica,sans-Serif" font-size="10.00">_interface::StatusBarWindow</text>
</a>
</g>
</g>
<!-- Node0&#45;&gt;Node12 -->
<g id="edge45_Node000000_Node000012" class="edge">
<title>Node0&#45;&gt;Node12</title>
<g id="a_edge45_Node000000_Node000012"><a xlink:title=" ">
<path fill="none" stroke="#63b8ff" d="M71.48,-253.69C79.56,-204.79 104.19,-97.05 170,-39 173.89,-35.57 178.23,-32.63 182.85,-30.1"/>
<polygon fill="#63b8ff" stroke="#63b8ff" points="68,-253.31 69.92,-263.73 74.91,-254.38 68,-253.31"/>
</a>
</g>
</g>
</g>
</svg>
