<?xml version="1.0" encoding="UTF-8" standalone="no"?>
<!DOCTYPE svg PUBLIC "-//W3C//DTD SVG 1.1//EN"
 "http://www.w3.org/Graphics/SVG/1.1/DTD/svg11.dtd">
<!-- Generated by graphviz version 2.43.0 (0)
 -->
<!-- Title: Graphical Class Hierarchy Pages: 1 -->
<svg width="676pt" height="806pt"
 viewBox="0.00 0.00 676.00 806.00" xmlns="http://www.w3.org/2000/svg" xmlns:xlink="http://www.w3.org/1999/xlink">
<g id="graph0" class="graph" transform="scale(1 1) rotate(0) translate(4 802)">
<title>Graphical Class Hierarchy</title>
<!-- Node0 -->
<g id="Node000000" class="node">
<title>Node0</title>
<g id="a_Node000000"><a xlink:title=" ">
<polygon fill="#e0e0e0" stroke="#999999" points="109,-435 0,-435 0,-405 109,-405 109,-435"/>
<text text-anchor="start" x="8" y="-423" font-family="Helvetica,sans-Serif" font-size="10.00">std::enable_shared</text>
<text text-anchor="middle" x="54.5" y="-412" font-family="Helvetica,sans-Serif" font-size="10.00">_from_this</text>
</a>
</g>
</g>
<!-- Node1 -->
<g id="Node000001" class="node">
<title>Node1</title>
<g id="a_Node000001"><a xlink:href="classdnf__composer_1_1Simulation.html" target="_top" xlink:title="Manages the element registry and drives the simulation loop.">
<polygon fill="white" stroke="#666666" points="289,-451.5 145,-451.5 145,-432.5 289,-432.5 289,-451.5"/>
<text text-anchor="middle" x="217" y="-439.5" font-family="Helvetica,sans-Serif" font-size="10.00">dnf_composer::Simulation</text>
</a>
</g>
</g>
<!-- Node0&#45;&gt;Node1 -->
<g id="edge41_Node000000_Node000001" class="edge">
<title>Node0&#45;&gt;Node1</title>
<g id="a_edge41_Node000000_Node000001"><a xlink:title=" ">
<path fill="none" stroke="#63b8ff" d="M119.35,-428.75C128.3,-429.98 137.53,-431.24 146.58,-432.48"/>
<polygon fill="#63b8ff" stroke="#63b8ff" points="119.77,-425.28 109.39,-427.39 118.82,-432.21 119.77,-425.28"/>
</a>
</g>
</g>
<!-- Node2 -->
<g id="Node000002" class="node">
<title>Node2</title>
<g id="a_Node000002"><a xlink:href="classdnf__composer_1_1element_1_1Element.html" target="_top" xlink:title="Abstract base class for all simulation elements.">
<polygon fill="white" stroke="#666666" points="283,-414 151,-414 151,-384 283,-384 283,-414"/>
<text text-anchor="start" x="159" y="-402" font-family="Helvetica,sans-Serif" font-size="10.00">dnf_composer::element</text>
<text text-anchor="middle" x="217" y="-391" font-family="Helvetica,sans-Serif" font-size="10.00">::Element</text>
</a>
</g>
</g>
<!-- Node0&#45;&gt;Node2 -->
<g id="edge42_Node000000_Node000002" class="edge">
<title>Node0&#45;&gt;Node2</title>
<g id="a_edge42_Node000000_Node000002"><a xlink:title=" ">
<path fill="none" stroke="#63b8ff" d="M119.54,-411.62C129.84,-410.27 140.51,-408.88 150.84,-407.53"/>
<polygon fill="#63b8ff" stroke="#63b8ff" points="118.85,-408.18 109.39,-412.95 119.76,-415.12 118.85,-408.18"/>
</a>
</g>
</g>
<!-- Node3 -->
<g id="Node000003" class="node">
<title>Node3</title>
<g id="a_Node000003"><a xlink:href="classdnf__composer_1_1element_1_1BoostStimulus.html" target="_top" xlink:title="Spatially uniform (homogeneous) input stimulus.">
<polygon fill="white" stroke="#666666" points="466.5,-798 334.5,-798 334.5,-768 466.5,-768 466.5,-798"/>
<text text-anchor="start" x="342.5" y="-786" font-family="Helvetica,sans-Serif" font-size="10.00">dnf_composer::element</text>
<text text-anchor="middle" x="400.5" y="-775" font-family="Helvetica,sans-Serif" font-size="10.00">::BoostStimulus</text>
</a>
</g>
</g>
<!-- Node2&#45;&gt;Node3 -->
<g id="edge43_Node000002_Node000003" class="edge">
<title>Node2&#45;&gt;Node3</title>
<g id="a_edge43_Node000002_Node000003"><a xlink:title=" ">
<path fill="none" stroke="#63b8ff" d="M285.93,-420.52C287.01,-421.63 288.04,-422.78 289,-424 381.95,-541.41 230.48,-642.85 325,-759 327.74,-762.37 330.97,-765.28 334.51,-767.78"/>
<polygon fill="#63b8ff" stroke="#63b8ff" points="288.01,-417.7 278.07,-414.04 283.55,-423.1 288.01,-417.7"/>
</a>
</g>
</g>
<!-- Node4 -->
<g id="Node000004" class="node">
<title>Node4</title>
<g id="a_Node000004"><a xlink:href="classdnf__composer_1_1element_1_1BoostStimulus2D.html" target="_top" xlink:title="Spatially uniform constant stimulus for 2D neural fields.">
<polygon fill="white" stroke="#666666" points="466.5,-750 334.5,-750 334.5,-720 466.5,-720 466.5,-750"/>
<text text-anchor="start" x="342.5" y="-738" font-family="Helvetica,sans-Serif" font-size="10.00">dnf_composer::element</text>
<text text-anchor="middle" x="400.5" y="-727" font-family="Helvetica,sans-Serif" font-size="10.00">::BoostStimulus2D</text>
</a>
</g>
</g>
<!-- Node2&#45;&gt;Node4 -->
<g id="edge44_Node000002_Node000004" class="edge">
<title>Node2&#45;&gt;Node4</title>
<g id="a_edge44_Node000002_Node000004"><a xlink:title=" ">
<path fill="none" stroke="#63b8ff" d="M285.9,-420.55C286.99,-421.64 288.03,-422.79 289,-424 369.69,-524.08 242.98,-612.01 325,-711 327.86,-714.45 331.22,-717.41 334.91,-719.95"/>
<polygon fill="#63b8ff" stroke="#63b8ff" points="287.95,-417.71 277.99,-414.1 283.53,-423.13 287.95,-417.71"/>
</a>
</g>
</g>
<!-- Node5 -->
<g id="Node000005" class="node">
<title>Node5</title>
<g id="a_Node000005"><a xlink:href="classdnf__composer_1_1element_1_1CorrelatedNormalNoise.html" target="_top" xlink:title="Spatially correlated Gaussian noise source — cedar&#45;compatible.">
<polygon fill="white" stroke="#666666" points="469,-702 332,-702 332,-672 469,-672 469,-702"/>
<text text-anchor="start" x="340" y="-690" font-family="Helvetica,sans-Serif" font-size="10.00">dnf_composer::element</text>
<text text-anchor="middle" x="400.5" y="-679" font-family="Helvetica,sans-Serif" font-size="10.00">::CorrelatedNormalNoise</text>
</a>
</g>
</g>
<!-- Node2&#45;&gt;Node5 -->
<g id="edge45_Node000002_Node000005" class="edge">
<title>Node2&#45;&gt;Node5</title>
<g id="a_edge45_Node000002_Node000005"><a xlink:title=" ">
<path fill="none" stroke="#63b8ff" d="M285.86,-420.58C286.96,-421.67 288.01,-422.8 289,-424 357.45,-506.79 255.44,-581.14 325,-663 327.9,-666.42 331.3,-669.35 335,-671.87"/>
<polygon fill="#63b8ff" stroke="#63b8ff" points="287.88,-417.71 277.89,-414.19 283.5,-423.17 287.88,-417.71"/>
</a>
</g>
</g>
<!-- Node6 -->
<g id="Node000006" class="node">
<title>Node6</title>
<g id="a_Node000006"><a xlink:href="classdnf__composer_1_1element_1_1CorrelatedNormalNoise2D.html" target="_top" xlink:title=" ">
<polygon fill="white" stroke="#666666" points="476,-654 325,-654 325,-624 476,-624 476,-654"/>
<text text-anchor="start" x="333" y="-642" font-family="Helvetica,sans-Serif" font-size="10.00">dnf_composer::element</text>
<text text-anchor="middle" x="400.5" y="-631" font-family="Helvetica,sans-Serif" font-size="10.00">::CorrelatedNormalNoise2D</text>
</a>
</g>
</g>
<!-- Node2&#45;&gt;Node6 -->
<g id="edge46_Node000002_Node000006" class="edge">
<title>Node2&#45;&gt;Node6</title>
<g id="a_edge46_Node000002_Node000006"><a xlink:title=" ">
<path fill="none" stroke="#63b8ff" d="M285.36,-420.22C286.64,-421.41 287.86,-422.67 289,-424 345.26,-489.55 267.86,-550.21 325,-615 328.06,-618.47 331.61,-621.43 335.49,-623.98"/>
<polygon fill="#63b8ff" stroke="#63b8ff" points="287.46,-417.42 277.4,-414.1 283.2,-422.97 287.46,-417.42"/>
</a>
</g>
</g>
<!-- Node7 -->
<g id="Node000007" class="node">
<title>Node7</title>
<g id="a_Node000007"><a xlink:href="classdnf__composer_1_1element_1_1FieldCoupling.html" target="_top" xlink:title="Full&#45;matrix learned coupling between two neural fields.">
<polygon fill="white" stroke="#666666" points="466.5,-606 334.5,-606 334.5,-576 466.5,-576 466.5,-606"/>
<text text-anchor="start" x="342.5" y="-594" font-family="Helvetica,sans-Serif" font-size="10.00">dnf_composer::element</text>
<text text-anchor="middle" x="400.5" y="-583" font-family="Helvetica,sans-Serif" font-size="10.00">::FieldCoupling</text>
</a>
</g>
</g>
<!-- Node2&#45;&gt;Node7 -->
<g id="edge47_Node000002_Node000007" class="edge">
<title>Node2&#45;&gt;Node7</title>
<g id="a_edge47_Node000002_Node000007"><a xlink:title=" ">
<path fill="none" stroke="#63b8ff" d="M285.15,-420.22C286.5,-421.42 287.79,-422.67 289,-424 333.16,-472.42 280.19,-519.18 325,-567 328.25,-570.47 332.01,-573.44 336.07,-575.98"/>
<polygon fill="#63b8ff" stroke="#63b8ff" points="286.95,-417.2 276.82,-414.11 282.81,-422.85 286.95,-417.2"/>
</a>
</g>
</g>
<!-- Node8 -->
<g id="Node000008" class="node">
<title>Node8</title>
<g id="a_Node000008"><a xlink:href="classdnf__composer_1_1element_1_1GaussFieldCoupling.html" target="_top" xlink:title="Sparse Gaussian field coupling with a fixed, user&#45;defined projection.">
<polygon fill="white" stroke="#666666" points="466.5,-558 334.5,-558 334.5,-528 466.5,-528 466.5,-558"/>
<text text-anchor="start" x="342.5" y="-546" font-family="Helvetica,sans-Serif" font-size="10.00">dnf_composer::element</text>
<text text-anchor="middle" x="400.5" y="-535" font-family="Helvetica,sans-Serif" font-size="10.00">::GaussFieldCoupling</text>
</a>
</g>
</g>
<!-- Node2&#45;&gt;Node8 -->
<g id="edge48_Node000002_Node000008" class="edge">
<title>Node2&#45;&gt;Node8</title>
<g id="a_edge48_Node000002_Node000008"><a xlink:title=" ">
<path fill="none" stroke="#63b8ff" d="M284.34,-419.93C285.97,-421.21 287.53,-422.56 289,-424 321.3,-455.55 292.28,-487.89 325,-519 328.64,-522.46 332.79,-525.43 337.22,-527.96"/>
<polygon fill="#63b8ff" stroke="#63b8ff" points="285.93,-416.78 275.66,-414.16 282.05,-422.61 285.93,-416.78"/>
</a>
</g>
</g>
<!-- Node9 -->
<g id="Node000009" class="node">
<title>Node9</title>
<g id="a_Node000009"><a xlink:href="classdnf__composer_1_1element_1_1GaussStimulus.html" target="_top" xlink:title="Localized Gaussian input stimulus applied to a neural field.">
<polygon fill="white" stroke="#666666" points="466.5,-510 334.5,-510 334.5,-480 466.5,-480 466.5,-510"/>
<text text-anchor="start" x="342.5" y="-498" font-family="Helvetica,sans-Serif" font-size="10.00">dnf_composer::element</text>
<text text-anchor="middle" x="400.5" y="-487" font-family="Helvetica,sans-Serif" font-size="10.00">::GaussStimulus</text>
</a>
</g>
</g>
<!-- Node2&#45;&gt;Node9 -->
<g id="edge49_Node000002_Node000009" class="edge">
<title>Node2&#45;&gt;Node9</title>
<g id="a_edge49_Node000002_Node000009"><a xlink:title=" ">
<path fill="none" stroke="#63b8ff" d="M280.64,-418.64C283.55,-420.3 286.36,-422.08 289,-424 310.29,-439.46 303.5,-455.83 325,-471 329.89,-474.45 335.29,-477.42 340.9,-479.97"/>
<polygon fill="#63b8ff" stroke="#63b8ff" points="282.16,-415.49 271.66,-414.06 278.97,-421.72 282.16,-415.49"/>
</a>
</g>
</g>
<!-- Node10 -->
<g id="Node000010" class="node">
<title>Node10</title>
<g id="a_Node000010"><a xlink:href="classdnf__composer_1_1element_1_1GaussStimulus2D.html" target="_top" xlink:title=" ">
<polygon fill="white" stroke="#666666" points="466.5,-462 334.5,-462 334.5,-432 466.5,-432 466.5,-462"/>
<text text-anchor="start" x="342.5" y="-450" font-family="Helvetica,sans-Serif" font-size="10.00">dnf_composer::element</text>
<text text-anchor="middle" x="400.5" y="-439" font-family="Helvetica,sans-Serif" font-size="10.00">::GaussStimulus2D</text>
</a>
</g>
</g>
<!-- Node2&#45;&gt;Node10 -->
<g id="edge50_Node000002_Node000010" class="edge">
<title>Node2&#45;&gt;Node10</title>
<g id="a_edge50_Node000002_Node000010"><a xlink:title=" ">
<path fill="none" stroke="#63b8ff" d="M284.74,-416.65C303.79,-421.69 324.37,-427.13 342.77,-432"/>
<polygon fill="#63b8ff" stroke="#63b8ff" points="285.49,-413.23 274.93,-414.06 283.7,-420 285.49,-413.23"/>
</a>
</g>
</g>
<!-- Node11 -->
<g id="Node000011" class="node">
<title>Node11</title>
<g id="a_Node000011"><a xlink:href="classdnf__composer_1_1element_1_1Kernel.html" target="_top" xlink:title="Abstract base class for all convolution&#45;based interaction kernels.">
<polygon fill="white" stroke="#666666" points="466.5,-414 334.5,-414 334.5,-384 466.5,-384 466.5,-414"/>
<text text-anchor="start" x="342.5" y="-402" font-family="Helvetica,sans-Serif" font-size="10.00">dnf_composer::element</text>
<text text-anchor="middle" x="400.5" y="-391" font-family="Helvetica,sans-Serif" font-size="10.00">::Kernel</text>
</a>
</g>
</g>
<!-- Node2&#45;&gt;Node11 -->
<g id="edge51_Node000002_Node000011" class="edge">
<title>Node2&#45;&gt;Node11</title>
<g id="a_edge51_Node000002_Node000011"><a xlink:title=" ">
<path fill="none" stroke="#63b8ff" d="M293.31,-399C306.93,-399 321.03,-399 334.33,-399"/>
<polygon fill="#63b8ff" stroke="#63b8ff" points="293.01,-395.5 283.01,-399 293.01,-402.5 293.01,-395.5"/>
</a>
</g>
</g>
<!-- Node20 -->
<g id="Node000020" class="node">
<title>Node20</title>
<g id="a_Node000020"><a xlink:href="classdnf__composer_1_1element_1_1MemoryTrace.html" target="_top" xlink:title="Persistent spatial memory that accumulates and decays field activity.">
<polygon fill="white" stroke="#666666" points="466.5,-366 334.5,-366 334.5,-336 466.5,-336 466.5,-366"/>
<text text-anchor="start" x="342.5" y="-354" font-family="Helvetica,sans-Serif" font-size="10.00">dnf_composer::element</text>
<text text-anchor="middle" x="400.5" y="-343" font-family="Helvetica,sans-Serif" font-size="10.00">::MemoryTrace</text>
</a>
</g>
</g>
<!-- Node2&#45;&gt;Node20 -->
<g id="edge60_Node000002_Node000020" class="edge">
<title>Node2&#45;&gt;Node20</title>
<g id="a_edge60_Node000002_Node000020"><a xlink:title=" ">
<path fill="none" stroke="#63b8ff" d="M284.74,-381.35C303.79,-376.31 324.37,-370.87 342.77,-366"/>
<polygon fill="#63b8ff" stroke="#63b8ff" points="283.7,-378 274.93,-383.94 285.49,-384.77 283.7,-378"/>
</a>
</g>
</g>
<!-- Node21 -->
<g id="Node000021" class="node">
<title>Node21</title>
<g id="a_Node000021"><a xlink:href="classdnf__composer_1_1element_1_1MemoryTrace2D.html" target="_top" xlink:title="Persistent 2D spatial memory that accumulates and decays field activity.">
<polygon fill="white" stroke="#666666" points="466.5,-318 334.5,-318 334.5,-288 466.5,-288 466.5,-318"/>
<text text-anchor="start" x="342.5" y="-306" font-family="Helvetica,sans-Serif" font-size="10.00">dnf_composer::element</text>
<text text-anchor="middle" x="400.5" y="-295" font-family="Helvetica,sans-Serif" font-size="10.00">::MemoryTrace2D</text>
</a>
</g>
</g>
<!-- Node2&#45;&gt;Node21 -->
<g id="edge61_Node000002_Node000021" class="edge">
<title>Node2&#45;&gt;Node21</title>
<g id="a_edge61_Node000002_Node000021"><a xlink:title=" ">
<path fill="none" stroke="#63b8ff" d="M245.19,-377.56C266.08,-361.89 296.14,-341.01 325,-327 331.72,-323.74 339,-320.77 346.27,-318.12"/>
<polygon fill="#63b8ff" stroke="#63b8ff" points="242.94,-374.87 237.1,-383.71 247.18,-380.44 242.94,-374.87"/>
</a>
</g>
</g>
<!-- Node22 -->
<g id="Node000022" class="node">
<title>Node22</title>
<g id="a_Node000022"><a xlink:href="classdnf__composer_1_1element_1_1NeuralField.html" target="_top" xlink:title="Continuous attractor neural field — the core DFT building block.">
<polygon fill="white" stroke="#666666" points="466.5,-270 334.5,-270 334.5,-240 466.5,-240 466.5,-270"/>
<text text-anchor="start" x="342.5" y="-258" font-family="Helvetica,sans-Serif" font-size="10.00">dnf_composer::element</text>
<text text-anchor="middle" x="400.5" y="-247" font-family="Helvetica,sans-Serif" font-size="10.00">::NeuralField</text>
</a>
</g>
</g>
<!-- Node2&#45;&gt;Node22 -->
<g id="edge62_Node000002_Node000022" class="edge">
<title>Node2&#45;&gt;Node22</title>
<g id="a_edge62_Node000002_Node000022"><a xlink:title=" ">
<path fill="none" stroke="#63b8ff" d="M233.3,-375.28C251.9,-348.27 285.7,-304.59 325,-279 330.24,-275.59 336,-272.63 341.93,-270.07"/>
<polygon fill="#63b8ff" stroke="#63b8ff" points="230.28,-373.5 227.6,-383.75 236.09,-377.42 230.28,-373.5"/>
</a>
</g>
</g>
<!-- Node23 -->
<g id="Node000023" class="node">
<title>Node23</title>
<g id="a_Node000023"><a xlink:href="classdnf__composer_1_1element_1_1NeuralField2D.html" target="_top" xlink:title=" ">
<polygon fill="white" stroke="#666666" points="466.5,-222 334.5,-222 334.5,-192 466.5,-192 466.5,-222"/>
<text text-anchor="start" x="342.5" y="-210" font-family="Helvetica,sans-Serif" font-size="10.00">dnf_composer::element</text>
<text text-anchor="middle" x="400.5" y="-199" font-family="Helvetica,sans-Serif" font-size="10.00">::NeuralField2D</text>
</a>
</g>
</g>
<!-- Node2&#45;&gt;Node23 -->
<g id="edge63_Node000002_Node000023" class="edge">
<title>Node2&#45;&gt;Node23</title>
<g id="a_edge63_Node000002_Node000023"><a xlink:title=" ">
<path fill="none" stroke="#63b8ff" d="M227.19,-374.59C242.16,-338.08 275.22,-269.45 325,-231 329.41,-227.59 334.32,-224.66 339.45,-222.14"/>
<polygon fill="#63b8ff" stroke="#63b8ff" points="223.9,-373.39 223.45,-383.98 230.4,-375.98 223.9,-373.39"/>
</a>
</g>
</g>
<!-- Node24 -->
<g id="Node000024" class="node">
<title>Node24</title>
<g id="a_Node000024"><a xlink:href="classdnf__composer_1_1element_1_1NormalNoise.html" target="_top" xlink:title="Additive Gaussian noise source for neural fields.">
<polygon fill="white" stroke="#666666" points="466.5,-174 334.5,-174 334.5,-144 466.5,-144 466.5,-174"/>
<text text-anchor="start" x="342.5" y="-162" font-family="Helvetica,sans-Serif" font-size="10.00">dnf_composer::element</text>
<text text-anchor="middle" x="400.5" y="-151" font-family="Helvetica,sans-Serif" font-size="10.00">::NormalNoise</text>
</a>
</g>
</g>
<!-- Node2&#45;&gt;Node24 -->
<g id="edge64_Node000002_Node000024" class="edge">
<title>Node2&#45;&gt;Node24</title>
<g id="a_edge64_Node000002_Node000024"><a xlink:title=" ">
<path fill="none" stroke="#63b8ff" d="M223.53,-374.18C234.78,-329.45 264.54,-235.1 325,-183 329.01,-179.54 333.54,-176.58 338.31,-174.04"/>
<polygon fill="#63b8ff" stroke="#63b8ff" points="220.12,-373.4 221.18,-383.94 226.93,-375.04 220.12,-373.4"/>
</a>
</g>
</g>
<!-- Node25 -->
<g id="Node000025" class="node">
<title>Node25</title>
<g id="a_Node000025"><a xlink:href="classdnf__composer_1_1element_1_1NormalNoise2D.html" target="_top" xlink:title=" ">
<polygon fill="white" stroke="#666666" points="466.5,-126 334.5,-126 334.5,-96 466.5,-96 466.5,-126"/>
<text text-anchor="start" x="342.5" y="-114" font-family="Helvetica,sans-Serif" font-size="10.00">dnf_composer::element</text>
<text text-anchor="middle" x="400.5" y="-103" font-family="Helvetica,sans-Serif" font-size="10.00">::NormalNoise2D</text>
</a>
</g>
</g>
<!-- Node2&#45;&gt;Node25 -->
<g id="edge65_Node000002_Node000025" class="edge">
<title>Node2&#45;&gt;Node25</title>
<g id="a_edge65_Node000002_Node000025"><a xlink:title=" ">
<path fill="none" stroke="#63b8ff" d="M221.06,-373.95C228.74,-321.89 253.63,-201.31 325,-135 328.68,-131.58 332.86,-128.64 337.31,-126.13"/>
<polygon fill="#63b8ff" stroke="#63b8ff" points="217.58,-373.59 219.67,-383.98 224.51,-374.55 217.58,-373.59"/>
</a>
</g>
</g>
<!-- Node26 -->
<g id="Node000026" class="node">
<title>Node26</title>
<g id="a_Node000026"><a xlink:href="classdnf__composer_1_1element_1_1TimedGaussStimulus.html" target="_top" xlink:title="Gaussian stimulus that is active only during specified time intervals.">
<polygon fill="white" stroke="#666666" points="466.5,-78 334.5,-78 334.5,-48 466.5,-48 466.5,-78"/>
<text text-anchor="start" x="342.5" y="-66" font-family="Helvetica,sans-Serif" font-size="10.00">dnf_composer::element</text>
<text text-anchor="middle" x="400.5" y="-55" font-family="Helvetica,sans-Serif" font-size="10.00">::TimedGaussStimulus</text>
</a>
</g>
</g>
<!-- Node2&#45;&gt;Node26 -->
<g id="edge66_Node000002_Node000026" class="edge">
<title>Node2&#45;&gt;Node26</title>
<g id="a_edge66_Node000002_Node000026"><a xlink:title=" ">
<path fill="none" stroke="#63b8ff" d="M219.29,-373.6C223.64,-314.73 242.64,-167.83 325,-87 328.49,-83.57 332.47,-80.64 336.74,-78.12"/>
<polygon fill="#63b8ff" stroke="#63b8ff" points="215.78,-373.64 218.61,-383.84 222.76,-374.09 215.78,-373.64"/>
</a>
</g>
</g>
<!-- Node27 -->
<g id="Node000027" class="node">
<title>Node27</title>
<g id="a_Node000027"><a xlink:href="classdnf__composer_1_1element_1_1TimedGaussStimulus2D.html" target="_top" xlink:title="2D Gaussian stimulus that is active only during specified time intervals.">
<polygon fill="white" stroke="#666666" points="470.5,-30 330.5,-30 330.5,0 470.5,0 470.5,-30"/>
<text text-anchor="start" x="338.5" y="-18" font-family="Helvetica,sans-Serif" font-size="10.00">dnf_composer::element</text>
<text text-anchor="middle" x="400.5" y="-7" font-family="Helvetica,sans-Serif" font-size="10.00">::TimedGaussStimulus2D</text>
</a>
</g>
</g>
<!-- Node2&#45;&gt;Node27 -->
<g id="edge67_Node000002_Node000027" class="edge">
<title>Node2&#45;&gt;Node27</title>
<g id="a_edge67_Node000002_Node000027"><a xlink:title=" ">
<path fill="none" stroke="#63b8ff" d="M217.91,-373.79C219.09,-308.96 231.29,-134.87 325,-39 328.32,-35.6 332.13,-32.68 336.23,-30.17"/>
<polygon fill="#63b8ff" stroke="#63b8ff" points="214.41,-373.87 217.81,-383.9 221.41,-373.94 214.41,-373.87"/>
</a>
</g>
</g>
<!-- Node12 -->
<g id="Node000012" class="node">
<title>Node12</title>
<g id="a_Node000012"><a xlink:href="classdnf__composer_1_1element_1_1AsymmetricGaussKernel.html" target="_top" xlink:title="Spatially shifted Gaussian kernel that induces directional peak drift.">
<polygon fill="white" stroke="#666666" points="661.5,-582 518.5,-582 518.5,-552 661.5,-552 661.5,-582"/>
<text text-anchor="start" x="526.5" y="-570" font-family="Helvetica,sans-Serif" font-size="10.00">dnf_composer::element</text>
<text text-anchor="middle" x="590" y="-559" font-family="Helvetica,sans-Serif" font-size="10.00">::AsymmetricGaussKernel</text>
</a>
</g>
</g>
<!-- Node11&#45;&gt;Node12 -->
<g id="edge52_Node000011_Node000012" class="edge">
<title>Node11&#45;&gt;Node12</title>
<g id="a_edge52_Node000011_Node000012"><a xlink:title=" ">
<path fill="none" stroke="#63b8ff" d="M473.08,-420.25C474.09,-421.13 475.06,-422.04 476,-423 514.97,-462.77 472.84,-503.42 512,-543 515.35,-546.38 519.17,-549.29 523.27,-551.79"/>
<polygon fill="#63b8ff" stroke="#63b8ff" points="474.9,-417.24 464.76,-414.18 470.78,-422.9 474.9,-417.24"/>
</a>
</g>
</g>
<!-- Node13 -->
<g id="Node000013" class="node">
<title>Node13</title>
<g id="a_Node000013"><a xlink:href="classdnf__composer_1_1element_1_1AsymmetricGaussKernel2D.html" target="_top" xlink:title="2D asymmetric Gaussian kernel that induces directional peak drift.">
<polygon fill="white" stroke="#666666" points="668,-534 512,-534 512,-504 668,-504 668,-534"/>
<text text-anchor="start" x="520" y="-522" font-family="Helvetica,sans-Serif" font-size="10.00">dnf_composer::element</text>
<text text-anchor="middle" x="590" y="-511" font-family="Helvetica,sans-Serif" font-size="10.00">::AsymmetricGaussKernel2D</text>
</a>
</g>
</g>
<!-- Node11&#45;&gt;Node13 -->
<g id="edge53_Node000011_Node000013" class="edge">
<title>Node11&#45;&gt;Node13</title>
<g id="a_edge53_Node000011_Node000013"><a xlink:title=" ">
<path fill="none" stroke="#63b8ff" d="M471.28,-419.32C472.91,-420.48 474.49,-421.71 476,-423 503.15,-446.3 484.74,-471.82 512,-495 516.05,-498.45 520.6,-501.4 525.4,-503.93"/>
<polygon fill="#63b8ff" stroke="#63b8ff" points="473.03,-416.29 462.67,-414.06 469.38,-422.26 473.03,-416.29"/>
</a>
</g>
</g>
<!-- Node14 -->
<g id="Node000014" class="node">
<title>Node14</title>
<g id="a_Node000014"><a xlink:href="classdnf__composer_1_1element_1_1GaussKernel.html" target="_top" xlink:title="Gaussian convolution kernel providing local excitation and optional global inhibition.">
<polygon fill="white" stroke="#666666" points="656,-486 524,-486 524,-456 656,-456 656,-486"/>
<text text-anchor="start" x="532" y="-474" font-family="Helvetica,sans-Serif" font-size="10.00">dnf_composer::element</text>
<text text-anchor="middle" x="590" y="-463" font-family="Helvetica,sans-Serif" font-size="10.00">::GaussKernel</text>
</a>
</g>
</g>
<!-- Node11&#45;&gt;Node14 -->
<g id="edge54_Node000011_Node000014" class="edge">
<title>Node11&#45;&gt;Node14</title>
<g id="a_edge54_Node000011_Node000014"><a xlink:title=" ">
<path fill="none" stroke="#63b8ff" d="M464.22,-417.79C468.26,-419.44 472.21,-421.17 476,-423 493.32,-431.36 494.64,-438.72 512,-447 518.95,-450.32 526.47,-453.31 533.99,-455.98"/>
<polygon fill="#63b8ff" stroke="#63b8ff" points="465.3,-414.46 454.71,-414.14 462.79,-421 465.3,-414.46"/>
</a>
</g>
</g>
<!-- Node15 -->
<g id="Node000015" class="node">
<title>Node15</title>
<g id="a_Node000015"><a xlink:href="classdnf__composer_1_1element_1_1GaussKernel2D.html" target="_top" xlink:title=" ">
<polygon fill="white" stroke="#666666" points="656,-438 524,-438 524,-408 656,-408 656,-438"/>
<text text-anchor="start" x="532" y="-426" font-family="Helvetica,sans-Serif" font-size="10.00">dnf_composer::element</text>
<text text-anchor="middle" x="590" y="-415" font-family="Helvetica,sans-Serif" font-size="10.00">::GaussKernel2D</text>
</a>
</g>
</g>
<!-- Node11&#45;&gt;Node15 -->
<g id="edge55_Node000011_Node000015" class="edge">
<title>Node11&#45;&gt;Node15</title>
<g id="a_edge55_Node000011_Node000015"><a xlink:title=" ">
<path fill="none" stroke="#63b8ff" d="M476.67,-408.62C492.25,-410.62 508.55,-412.7 523.75,-414.65"/>
<polygon fill="#63b8ff" stroke="#63b8ff" points="476.92,-405.12 466.55,-407.33 476.03,-412.07 476.92,-405.12"/>
</a>
</g>
</g>
<!-- Node16 -->
<g id="Node000016" class="node">
<title>Node16</title>
<g id="a_Node000016"><a xlink:href="classdnf__composer_1_1element_1_1MexicanHatKernel.html" target="_top" xlink:title="Difference&#45;of&#45;Gaussians convolution kernel for DFT lateral interactions.">
<polygon fill="white" stroke="#666666" points="656,-390 524,-390 524,-360 656,-360 656,-390"/>
<text text-anchor="start" x="532" y="-378" font-family="Helvetica,sans-Serif" font-size="10.00">dnf_composer::element</text>
<text text-anchor="middle" x="590" y="-367" font-family="Helvetica,sans-Serif" font-size="10.00">::MexicanHatKernel</text>
</a>
</g>
</g>
<!-- Node11&#45;&gt;Node16 -->
<g id="edge56_Node000011_Node000016" class="edge">
<title>Node11&#45;&gt;Node16</title>
<g id="a_edge56_Node000011_Node000016"><a xlink:title=" ">
<path fill="none" stroke="#63b8ff" d="M476.67,-389.38C492.25,-387.38 508.55,-385.3 523.75,-383.35"/>
<polygon fill="#63b8ff" stroke="#63b8ff" points="476.03,-385.93 466.55,-390.67 476.92,-392.88 476.03,-385.93"/>
</a>
</g>
</g>
<!-- Node17 -->
<g id="Node000017" class="node">
<title>Node17</title>
<g id="a_Node000017"><a xlink:href="classdnf__composer_1_1element_1_1MexicanHatKernel2D.html" target="_top" xlink:title=" ">
<polygon fill="white" stroke="#666666" points="656,-342 524,-342 524,-312 656,-312 656,-342"/>
<text text-anchor="start" x="532" y="-330" font-family="Helvetica,sans-Serif" font-size="10.00">dnf_composer::element</text>
<text text-anchor="middle" x="590" y="-319" font-family="Helvetica,sans-Serif" font-size="10.00">::MexicanHatKernel2D</text>
</a>
</g>
</g>
<!-- Node11&#45;&gt;Node17 -->
<g id="edge57_Node000011_Node000017" class="edge">
<title>Node11&#45;&gt;Node17</title>
<g id="a_edge57_Node000011_Node000017"><a xlink:title=" ">
<path fill="none" stroke="#63b8ff" d="M464.22,-380.21C468.26,-378.56 472.21,-376.83 476,-375 493.32,-366.64 494.64,-359.28 512,-351 518.95,-347.68 526.47,-344.69 533.99,-342.02"/>
<polygon fill="#63b8ff" stroke="#63b8ff" points="462.79,-377 454.71,-383.86 465.3,-383.54 462.79,-377"/>
</a>
</g>
</g>
<!-- Node18 -->
<g id="Node000018" class="node">
<title>Node18</title>
<g id="a_Node000018"><a xlink:href="classdnf__composer_1_1element_1_1OscillatoryKernel.html" target="_top" xlink:title="Damped&#45;cosine convolution kernel for oscillatory field dynamics.">
<polygon fill="white" stroke="#666666" points="656,-294 524,-294 524,-264 656,-264 656,-294"/>
<text text-anchor="start" x="532" y="-282" font-family="Helvetica,sans-Serif" font-size="10.00">dnf_composer::element</text>
<text text-anchor="middle" x="590" y="-271" font-family="Helvetica,sans-Serif" font-size="10.00">::OscillatoryKernel</text>
</a>
</g>
</g>
<!-- Node11&#45;&gt;Node18 -->
<g id="edge58_Node000011_Node000018" class="edge">
<title>Node11&#45;&gt;Node18</title>
<g id="a_edge58_Node000011_Node000018"><a xlink:title=" ">
<path fill="none" stroke="#63b8ff" d="M471.28,-378.68C472.91,-377.52 474.49,-376.29 476,-375 503.15,-351.7 484.74,-326.18 512,-303 516.05,-299.55 520.6,-296.6 525.4,-294.07"/>
<polygon fill="#63b8ff" stroke="#63b8ff" points="469.38,-375.74 462.67,-383.94 473.03,-381.71 469.38,-375.74"/>
</a>
</g>
</g>
<!-- Node19 -->
<g id="Node000019" class="node">
<title>Node19</title>
<g id="a_Node000019"><a xlink:href="classdnf__composer_1_1element_1_1OscillatoryKernel2D.html" target="_top" xlink:title="2D oscillatory lateral&#45;interaction kernel using separable convolution.">
<polygon fill="white" stroke="#666666" points="656,-246 524,-246 524,-216 656,-216 656,-246"/>
<text text-anchor="start" x="532" y="-234" font-family="Helvetica,sans-Serif" font-size="10.00">dnf_composer::element</text>
<text text-anchor="middle" x="590" y="-223" font-family="Helvetica,sans-Serif" font-size="10.00">::OscillatoryKernel2D</text>
</a>
</g>
</g>
<!-- Node11&#45;&gt;Node19 -->
<g id="edge59_Node000011_Node000019" class="edge">
<title>Node11&#45;&gt;Node19</title>
<g id="a_edge59_Node000011_Node000019"><a xlink:title=" ">
<path fill="none" stroke="#63b8ff" d="M473.08,-377.75C474.09,-376.87 475.06,-375.96 476,-375 514.97,-335.23 472.84,-294.58 512,-255 515.55,-251.42 519.62,-248.37 523.99,-245.77"/>
<polygon fill="#63b8ff" stroke="#63b8ff" points="470.78,-375.1 464.76,-383.82 474.9,-380.76 470.78,-375.1"/>
</a>
</g>
</g>
</g>
</svg>
