<?xml version="1.0" encoding="UTF-8" standalone="no"?>
<!DOCTYPE svg PUBLIC "-//W3C//DTD SVG 1.1//EN"
 "http://www.w3.org/Graphics/SVG/1.1/DTD/svg11.dtd">
<!-- Generated by graphviz version 2.43.0 (0)
 -->
<!-- Title: Graphical Class Hierarchy Pages: 1 -->
<svg width="644pt" height="374pt"
 viewBox="0.00 0.00 644.00 374.00" xmlns="http://www.w3.org/2000/svg" xmlns:xlink="http://www.w3.org/1999/xlink">
<g id="graph0" class="graph" transform="scale(1 1) rotate(0) translate(4 370)">
<title>Graphical Class Hierarchy</title>
<!-- Node0 -->
<g id="Node000000" class="node">
<title>Node0</title>
<g id="a_Node000000"><a xlink:title=" ">
<polygon fill="#e0e0e0" stroke="#999999" points="109,-219 0,-219 0,-189 109,-189 109,-219"/>
<text text-anchor="start" x="8" y="-207" font-family="Helvetica,sans-Serif" font-size="10.00">std::enable_shared</text>
<text text-anchor="middle" x="54.5" y="-196" font-family="Helvetica,sans-Serif" font-size="10.00">_from_this</text>
</a>
</g>
</g>
<!-- Node1 -->
<g id="Node000001" class="node">
<title>Node1</title>
<g id="a_Node000001"><a xlink:href="classdnf__composer_1_1Simulation.html" target="_top" xlink:title="Manages the element registry and drives the simulation loop.">
<polygon fill="white" stroke="#666666" points="289,-235.5 145,-235.5 145,-216.5 289,-216.5 289,-235.5"/>
<text text-anchor="middle" x="217" y="-223.5" font-family="Helvetica,sans-Serif" font-size="10.00">dnf_composer::Simulation</text>
</a>
</g>
</g>
<!-- Node0&#45;&gt;Node1 -->
<g id="edge27_Node000000_Node000001" class="edge">
<title>Node0&#45;&gt;Node1</title>
<g id="a_edge27_Node000000_Node000001"><a xlink:title=" ">
<path fill="none" stroke="#63b8ff" d="M119.35,-212.75C128.3,-213.98 137.53,-215.24 146.58,-216.48"/>
<polygon fill="#63b8ff" stroke="#63b8ff" points="119.77,-209.28 109.39,-211.39 118.82,-216.21 119.77,-209.28"/>
</a>
</g>
</g>
<!-- Node2 -->
<g id="Node000002" class="node">
<title>Node2</title>
<g id="a_Node000002"><a xlink:href="classdnf__composer_1_1element_1_1Element.html" target="_top" xlink:title="Abstract base class for all simulation elements.">
<polygon fill="white" stroke="#666666" points="283,-198 151,-198 151,-168 283,-168 283,-198"/>
<text text-anchor="start" x="159" y="-186" font-family="Helvetica,sans-Serif" font-size="10.00">dnf_composer::element</text>
<text text-anchor="middle" x="217" y="-175" font-family="Helvetica,sans-Serif" font-size="10.00">::Element</text>
</a>
</g>
</g>
<!-- Node0&#45;&gt;Node2 -->
<g id="edge28_Node000000_Node000002" class="edge">
<title>Node0&#45;&gt;Node2</title>
<g id="a_edge28_Node000000_Node000002"><a xlink:title=" ">
<path fill="none" stroke="#63b8ff" d="M119.54,-195.62C129.84,-194.27 140.51,-192.88 150.84,-191.53"/>
<polygon fill="#63b8ff" stroke="#63b8ff" points="118.85,-192.18 109.39,-196.95 119.76,-199.12 118.85,-192.18"/>
</a>
</g>
</g>
<!-- Node3 -->
<g id="Node000003" class="node">
<title>Node3</title>
<g id="a_Node000003"><a xlink:href="classdnf__composer_1_1element_1_1BoostStimulus.html" target="_top" xlink:title="Spatially uniform (homogeneous) input stimulus.">
<polygon fill="white" stroke="#666666" points="457,-366 325,-366 325,-336 457,-336 457,-366"/>
<text text-anchor="start" x="333" y="-354" font-family="Helvetica,sans-Serif" font-size="10.00">dnf_composer::element</text>
<text text-anchor="middle" x="391" y="-343" font-family="Helvetica,sans-Serif" font-size="10.00">::BoostStimulus</text>
</a>
</g>
</g>
<!-- Node2&#45;&gt;Node3 -->
<g id="edge29_Node000002_Node000003" class="edge">
<title>Node2&#45;&gt;Node3</title>
<g id="a_edge29_Node000002_Node000003"><a xlink:title=" ">
<path fill="none" stroke="#63b8ff" d="M284.58,-203.89C286.13,-205.18 287.61,-206.55 289,-208 327.19,-247.94 287.12,-286.77 325,-327 328.22,-330.42 331.96,-333.35 336,-335.86"/>
<polygon fill="#63b8ff" stroke="#63b8ff" points="286.49,-200.95 276.28,-198.09 282.47,-206.69 286.49,-200.95"/>
</a>
</g>
</g>
<!-- Node4 -->
<g id="Node000004" class="node">
<title>Node4</title>
<g id="a_Node000004"><a xlink:href="classdnf__composer_1_1element_1_1FieldCoupling.html" target="_top" xlink:title="Full&#45;matrix learned coupling between two neural fields.">
<polygon fill="white" stroke="#666666" points="457,-318 325,-318 325,-288 457,-288 457,-318"/>
<text text-anchor="start" x="333" y="-306" font-family="Helvetica,sans-Serif" font-size="10.00">dnf_composer::element</text>
<text text-anchor="middle" x="391" y="-295" font-family="Helvetica,sans-Serif" font-size="10.00">::FieldCoupling</text>
</a>
</g>
</g>
<!-- Node2&#45;&gt;Node4 -->
<g id="edge30_Node000002_Node000004" class="edge">
<title>Node2&#45;&gt;Node4</title>
<g id="a_edge30_Node000002_Node000004"><a xlink:title=" ">
<path fill="none" stroke="#63b8ff" d="M282.86,-203.24C285.01,-204.72 287.07,-206.3 289,-208 315.6,-231.33 298.58,-255.47 325,-279 328.86,-282.44 333.26,-285.4 337.91,-287.95"/>
<polygon fill="#63b8ff" stroke="#63b8ff" points="284.56,-200.18 274.18,-198.05 280.97,-206.19 284.56,-200.18"/>
</a>
</g>
</g>
<!-- Node5 -->
<g id="Node000005" class="node">
<title>Node5</title>
<g id="a_Node000005"><a xlink:href="classdnf__composer_1_1element_1_1GaussFieldCoupling.html" target="_top" xlink:title="Sparse Gaussian field coupling with a fixed, user&#45;defined projection.">
<polygon fill="white" stroke="#666666" points="457,-270 325,-270 325,-240 457,-240 457,-270"/>
<text text-anchor="start" x="333" y="-258" font-family="Helvetica,sans-Serif" font-size="10.00">dnf_composer::element</text>
<text text-anchor="middle" x="391" y="-247" font-family="Helvetica,sans-Serif" font-size="10.00">::GaussFieldCoupling</text>
</a>
</g>
</g>
<!-- Node2&#45;&gt;Node5 -->
<g id="edge31_Node000002_Node000005" class="edge">
<title>Node2&#45;&gt;Node5</title>
<g id="a_edge31_Node000002_Node000005"><a xlink:title=" ">
<path fill="none" stroke="#63b8ff" d="M274.91,-201.72C279.74,-203.7 284.49,-205.8 289,-208 306.07,-216.32 308,-222.55 325,-231 331.46,-234.21 338.47,-237.24 345.4,-239.98"/>
<polygon fill="#63b8ff" stroke="#63b8ff" points="276.18,-198.46 265.6,-198.05 273.62,-204.97 276.18,-198.46"/>
</a>
</g>
</g>
<!-- Node6 -->
<g id="Node000006" class="node">
<title>Node6</title>
<g id="a_Node000006"><a xlink:href="classdnf__composer_1_1element_1_1GaussStimulus.html" target="_top" xlink:title="Localized Gaussian input stimulus applied to a neural field.">
<polygon fill="white" stroke="#666666" points="457,-222 325,-222 325,-192 457,-192 457,-222"/>
<text text-anchor="start" x="333" y="-210" font-family="Helvetica,sans-Serif" font-size="10.00">dnf_composer::element</text>
<text text-anchor="middle" x="391" y="-199" font-family="Helvetica,sans-Serif" font-size="10.00">::GaussStimulus</text>
</a>
</g>
</g>
<!-- Node2&#45;&gt;Node6 -->
<g id="edge32_Node000002_Node000006" class="edge">
<title>Node2&#45;&gt;Node6</title>
<g id="a_edge32_Node000002_Node000006"><a xlink:title=" ">
<path fill="none" stroke="#63b8ff" d="M293.09,-193.48C303.68,-194.96 314.5,-196.46 324.88,-197.91"/>
<polygon fill="#63b8ff" stroke="#63b8ff" points="293.41,-189.99 283.03,-192.07 292.45,-196.92 293.41,-189.99"/>
</a>
</g>
</g>
<!-- Node7 -->
<g id="Node000007" class="node">
<title>Node7</title>
<g id="a_Node000007"><a xlink:href="classdnf__composer_1_1element_1_1Kernel.html" target="_top" xlink:title="Abstract base class for all convolution&#45;based interaction kernels.">
<polygon fill="white" stroke="#666666" points="457,-174 325,-174 325,-144 457,-144 457,-174"/>
<text text-anchor="start" x="333" y="-162" font-family="Helvetica,sans-Serif" font-size="10.00">dnf_composer::element</text>
<text text-anchor="middle" x="391" y="-151" font-family="Helvetica,sans-Serif" font-size="10.00">::Kernel</text>
</a>
</g>
</g>
<!-- Node2&#45;&gt;Node7 -->
<g id="edge33_Node000002_Node000007" class="edge">
<title>Node2&#45;&gt;Node7</title>
<g id="a_edge33_Node000002_Node000007"><a xlink:title=" ">
<path fill="none" stroke="#63b8ff" d="M293.09,-172.52C303.68,-171.04 314.5,-169.54 324.88,-168.09"/>
<polygon fill="#63b8ff" stroke="#63b8ff" points="292.45,-169.08 283.03,-173.93 293.41,-176.01 292.45,-169.08"/>
</a>
</g>
</g>
<!-- Node12 -->
<g id="Node000012" class="node">
<title>Node12</title>
<g id="a_Node000012"><a xlink:href="classdnf__composer_1_1element_1_1MemoryTrace.html" target="_top" xlink:title="Persistent spatial memory that accumulates and decays field activity.">
<polygon fill="white" stroke="#666666" points="457,-126 325,-126 325,-96 457,-96 457,-126"/>
<text text-anchor="start" x="333" y="-114" font-family="Helvetica,sans-Serif" font-size="10.00">dnf_composer::element</text>
<text text-anchor="middle" x="391" y="-103" font-family="Helvetica,sans-Serif" font-size="10.00">::MemoryTrace</text>
</a>
</g>
</g>
<!-- Node2&#45;&gt;Node12 -->
<g id="edge38_Node000002_Node000012" class="edge">
<title>Node2&#45;&gt;Node12</title>
<g id="a_edge38_Node000002_Node000012"><a xlink:title=" ">
<path fill="none" stroke="#63b8ff" d="M259.38,-163.65C279.11,-154.62 303.13,-143.93 325,-135 332.35,-132 340.23,-128.95 347.88,-126.08"/>
<polygon fill="#63b8ff" stroke="#63b8ff" points="257.69,-160.57 250.06,-167.93 260.61,-166.93 257.69,-160.57"/>
</a>
</g>
</g>
<!-- Node13 -->
<g id="Node000013" class="node">
<title>Node13</title>
<g id="a_Node000013"><a xlink:href="classdnf__composer_1_1element_1_1NeuralField.html" target="_top" xlink:title="Continuous attractor neural field — the core DFT building block.">
<polygon fill="white" stroke="#666666" points="457,-78 325,-78 325,-48 457,-48 457,-78"/>
<text text-anchor="start" x="333" y="-66" font-family="Helvetica,sans-Serif" font-size="10.00">dnf_composer::element</text>
<text text-anchor="middle" x="391" y="-55" font-family="Helvetica,sans-Serif" font-size="10.00">::NeuralField</text>
</a>
</g>
</g>
<!-- Node2&#45;&gt;Node13 -->
<g id="edge39_Node000002_Node000013" class="edge">
<title>Node2&#45;&gt;Node13</title>
<g id="a_edge39_Node000002_Node000013"><a xlink:title=" ">
<path fill="none" stroke="#63b8ff" d="M238.33,-160.37C258.54,-139.01 291.31,-107.31 325,-87 330.46,-83.71 336.45,-80.75 342.5,-78.13"/>
<polygon fill="#63b8ff" stroke="#63b8ff" points="235.73,-158.03 231.47,-167.73 240.85,-162.8 235.73,-158.03"/>
</a>
</g>
</g>
<!-- Node14 -->
<g id="Node000014" class="node">
<title>Node14</title>
<g id="a_Node000014"><a xlink:href="classdnf__composer_1_1element_1_1NormalNoise.html" target="_top" xlink:title="Additive Gaussian noise source for neural fields.">
<polygon fill="white" stroke="#666666" points="457,-30 325,-30 325,0 457,0 457,-30"/>
<text text-anchor="start" x="333" y="-18" font-family="Helvetica,sans-Serif" font-size="10.00">dnf_composer::element</text>
<text text-anchor="middle" x="391" y="-7" font-family="Helvetica,sans-Serif" font-size="10.00">::NormalNoise</text>
</a>
</g>
</g>
<!-- Node2&#45;&gt;Node14 -->
<g id="edge40_Node000002_Node000014" class="edge">
<title>Node2&#45;&gt;Node14</title>
<g id="a_edge40_Node000002_Node000014"><a xlink:title=" ">
<path fill="none" stroke="#63b8ff" d="M230.28,-158.64C247.43,-126.91 281.39,-71.65 325,-39 329.53,-35.61 334.58,-32.66 339.82,-30.09"/>
<polygon fill="#63b8ff" stroke="#63b8ff" points="227.08,-157.2 225.51,-167.68 233.27,-160.47 227.08,-157.2"/>
</a>
</g>
</g>
<!-- Node8 -->
<g id="Node000008" class="node">
<title>Node8</title>
<g id="a_Node000008"><a xlink:href="classdnf__composer_1_1element_1_1AsymmetricGaussKernel.html" target="_top" xlink:title="Spatially shifted Gaussian kernel that induces directional peak drift.">
<polygon fill="white" stroke="#666666" points="636,-246 493,-246 493,-216 636,-216 636,-246"/>
<text text-anchor="start" x="501" y="-234" font-family="Helvetica,sans-Serif" font-size="10.00">dnf_composer::element</text>
<text text-anchor="middle" x="564.5" y="-223" font-family="Helvetica,sans-Serif" font-size="10.00">::AsymmetricGaussKernel</text>
</a>
</g>
</g>
<!-- Node7&#45;&gt;Node8 -->
<g id="edge34_Node000007_Node000008" class="edge">
<title>Node7&#45;&gt;Node8</title>
<g id="a_edge34_Node000007_Node000008"><a xlink:title=" ">
<path fill="none" stroke="#63b8ff" d="M446.24,-177.92C449.92,-179.54 453.54,-181.24 457,-183 474.14,-191.72 475.75,-198.5 493,-207 499.61,-210.26 506.77,-213.26 513.91,-215.95"/>
<polygon fill="#63b8ff" stroke="#63b8ff" points="447.57,-174.68 437,-174.04 444.87,-181.14 447.57,-174.68"/>
</a>
</g>
</g>
<!-- Node9 -->
<g id="Node000009" class="node">
<title>Node9</title>
<g id="a_Node000009"><a xlink:href="classdnf__composer_1_1element_1_1GaussKernel.html" target="_top" xlink:title="Gaussian convolution kernel providing local excitation and optional global inhibition.">
<polygon fill="white" stroke="#666666" points="630.5,-198 498.5,-198 498.5,-168 630.5,-168 630.5,-198"/>
<text text-anchor="start" x="506.5" y="-186" font-family="Helvetica,sans-Serif" font-size="10.00">dnf_composer::element</text>
<text text-anchor="middle" x="564.5" y="-175" font-family="Helvetica,sans-Serif" font-size="10.00">::GaussKernel</text>
</a>
</g>
</g>
<!-- Node7&#45;&gt;Node9 -->
<g id="edge35_Node000007_Node000009" class="edge">
<title>Node7&#45;&gt;Node9</title>
<g id="a_edge35_Node000007_Node000009"><a xlink:title=" ">
<path fill="none" stroke="#63b8ff" d="M467.52,-169.57C477.8,-171.01 488.28,-172.47 498.36,-173.88"/>
<polygon fill="#63b8ff" stroke="#63b8ff" points="467.71,-166.06 457.33,-168.14 466.74,-172.99 467.71,-166.06"/>
</a>
</g>
</g>
<!-- Node10 -->
<g id="Node000010" class="node">
<title>Node10</title>
<g id="a_Node000010"><a xlink:href="classdnf__composer_1_1element_1_1MexicanHatKernel.html" target="_top" xlink:title="Difference&#45;of&#45;Gaussians convolution kernel for DFT lateral interactions.">
<polygon fill="white" stroke="#666666" points="630.5,-150 498.5,-150 498.5,-120 630.5,-120 630.5,-150"/>
<text text-anchor="start" x="506.5" y="-138" font-family="Helvetica,sans-Serif" font-size="10.00">dnf_composer::element</text>
<text text-anchor="middle" x="564.5" y="-127" font-family="Helvetica,sans-Serif" font-size="10.00">::MexicanHatKernel</text>
</a>
</g>
</g>
<!-- Node7&#45;&gt;Node10 -->
<g id="edge36_Node000007_Node000010" class="edge">
<title>Node7&#45;&gt;Node10</title>
<g id="a_edge36_Node000007_Node000010"><a xlink:title=" ">
<path fill="none" stroke="#63b8ff" d="M467.52,-148.43C477.8,-146.99 488.28,-145.53 498.36,-144.12"/>
<polygon fill="#63b8ff" stroke="#63b8ff" points="466.74,-145.01 457.33,-149.86 467.71,-151.94 466.74,-145.01"/>
</a>
</g>
</g>
<!-- Node11 -->
<g id="Node000011" class="node">
<title>Node11</title>
<g id="a_Node000011"><a xlink:href="classdnf__composer_1_1element_1_1OscillatoryKernel.html" target="_top" xlink:title="Damped&#45;cosine convolution kernel for oscillatory field dynamics.">
<polygon fill="white" stroke="#666666" points="630.5,-102 498.5,-102 498.5,-72 630.5,-72 630.5,-102"/>
<text text-anchor="start" x="506.5" y="-90" font-family="Helvetica,sans-Serif" font-size="10.00">dnf_composer::element</text>
<text text-anchor="middle" x="564.5" y="-79" font-family="Helvetica,sans-Serif" font-size="10.00">::OscillatoryKernel</text>
</a>
</g>
</g>
<!-- Node7&#45;&gt;Node11 -->
<g id="edge37_Node000007_Node000011" class="edge">
<title>Node7&#45;&gt;Node11</title>
<g id="a_edge37_Node000007_Node000011"><a xlink:title=" ">
<path fill="none" stroke="#63b8ff" d="M446.24,-140.08C449.92,-138.46 453.54,-136.76 457,-135 474.14,-126.28 475.75,-119.5 493,-111 499.61,-107.74 506.77,-104.74 513.91,-102.05"/>
<polygon fill="#63b8ff" stroke="#63b8ff" points="444.87,-136.86 437,-143.96 447.57,-143.32 444.87,-136.86"/>
</a>
</g>
</g>
</g>
</svg>
