<?xml version="1.0" encoding="UTF-8" standalone="no"?>
<!DOCTYPE svg PUBLIC "-//W3C//DTD SVG 1.1//EN"
 "http://www.w3.org/Graphics/SVG/1.1/DTD/svg11.dtd">
<!-- Generated by graphviz version 2.43.0 (0)
 -->
<!-- Title: Graphical Class Hierarchy Pages: 1 -->
<svg width="291pt" height="64pt"
 viewBox="0.00 0.00 291.00 64.00" xmlns="http://www.w3.org/2000/svg" xmlns:xlink="http://www.w3.org/1999/xlink">
<g id="graph0" class="graph" transform="scale(1 1) rotate(0) translate(4 60)">
<title>Graphical Class Hierarchy</title>
<!-- Node0 -->
<g id="Node000000" class="node">
<title>Node0</title>
<g id="a_Node000000"><a xlink:href="classdnf__composer_1_1Plot.html" target="_top" xlink:title="Abstract base class for all renderable plots.">
<polygon fill="white" stroke="#666666" points="110,-37 0,-37 0,-18 110,-18 110,-37"/>
<text text-anchor="middle" x="55" y="-25" font-family="Helvetica,sans-Serif" font-size="10.00">dnf_composer::Plot</text>
</a>
</g>
</g>
<!-- Node1 -->
<g id="Node000001" class="node">
<title>Node1</title>
<g id="a_Node000001"><a xlink:href="classdnf__composer_1_1Heatmap.html" target="_top" xlink:title=" ">
<polygon fill="white" stroke="#666666" points="283,-56 146,-56 146,-37 283,-37 283,-56"/>
<text text-anchor="middle" x="214.5" y="-44" font-family="Helvetica,sans-Serif" font-size="10.00">dnf_composer::Heatmap</text>
</a>
</g>
</g>
<!-- Node0&#45;&gt;Node1 -->
<g id="edge30_Node000000_Node000001" class="edge">
<title>Node0&#45;&gt;Node1</title>
<g id="a_edge30_Node000000_Node000001"><a xlink:title=" ">
<path fill="none" stroke="#63b8ff" d="M120.32,-35.26C128.74,-36.27 137.38,-37.32 145.84,-38.34"/>
<polygon fill="#63b8ff" stroke="#63b8ff" points="120.55,-31.76 110.2,-34.04 119.71,-38.71 120.55,-31.76"/>
</a>
</g>
</g>
<!-- Node2 -->
<g id="Node000002" class="node">
<title>Node2</title>
<g id="a_Node000002"><a xlink:href="classdnf__composer_1_1LinePlot.html" target="_top" xlink:title=" ">
<polygon fill="white" stroke="#666666" points="280,-19 149,-19 149,0 280,0 280,-19"/>
<text text-anchor="middle" x="214.5" y="-7" font-family="Helvetica,sans-Serif" font-size="10.00">dnf_composer::LinePlot</text>
</a>
</g>
</g>
<!-- Node0&#45;&gt;Node2 -->
<g id="edge31_Node000000_Node000002" class="edge">
<title>Node0&#45;&gt;Node2</title>
<g id="a_edge31_Node000000_Node000002"><a xlink:title=" ">
<path fill="none" stroke="#63b8ff" d="M120.3,-20.15C129.73,-19.07 139.44,-17.96 148.88,-16.89"/>
<polygon fill="#63b8ff" stroke="#63b8ff" points="119.74,-16.69 110.2,-21.31 120.54,-23.65 119.74,-16.69"/>
</a>
</g>
</g>
</g>
</svg>
