<?xml version="1.0" encoding="UTF-8" standalone="no"?>
<!DOCTYPE svg PUBLIC "-//W3C//DTD SVG 1.1//EN"
 "http://www.w3.org/Graphics/SVG/1.1/DTD/svg11.dtd">
<!-- Generated by graphviz version 2.43.0 (0)
 -->
<!-- Title: Graphical Class Hierarchy Pages: 1 -->
<svg width="308pt" height="86pt"
 viewBox="0.00 0.00 308.00 86.00" xmlns="http://www.w3.org/2000/svg" xmlns:xlink="http://www.w3.org/1999/xlink">
<g id="graph0" class="graph" transform="scale(1 1) rotate(0) translate(4 82)">
<title>Graphical Class Hierarchy</title>
<!-- Node0 -->
<g id="Node000000" class="node">
<title>Node0</title>
<g id="a_Node000000"><a xlink:href="structdnf__composer_1_1element_1_1ActivationFunction.html" target="_top" xlink:title="Abstract base for activation functions applied to a neural field.">
<polygon fill="white" stroke="#666666" points="132,-54 0,-54 0,-24 132,-24 132,-54"/>
<text text-anchor="start" x="8" y="-42" font-family="Helvetica,sans-Serif" font-size="10.00">dnf_composer::element</text>
<text text-anchor="middle" x="66" y="-31" font-family="Helvetica,sans-Serif" font-size="10.00">::ActivationFunction</text>
</a>
</g>
</g>
<!-- Node1 -->
<g id="Node000001" class="node">
<title>Node1</title>
<g id="a_Node000001"><a xlink:href="structdnf__composer_1_1element_1_1HeavisideFunction.html" target="_top" xlink:title="Heaviside step function: output = (x &gt;= x_shift) ? 1 : 0.">
<polygon fill="white" stroke="#666666" points="300,-78 168,-78 168,-48 300,-48 300,-78"/>
<text text-anchor="start" x="176" y="-66" font-family="Helvetica,sans-Serif" font-size="10.00">dnf_composer::element</text>
<text text-anchor="middle" x="234" y="-55" font-family="Helvetica,sans-Serif" font-size="10.00">::HeavisideFunction</text>
</a>
</g>
</g>
<!-- Node0&#45;&gt;Node1 -->
<g id="edge1_Node000000_Node000001" class="edge">
<title>Node0&#45;&gt;Node1</title>
<g id="a_edge1_Node000000_Node000001"><a xlink:title=" ">
<path fill="none" stroke="#63b8ff" d="M142.11,-49.86C150.68,-51.1 159.36,-52.35 167.78,-53.57"/>
<polygon fill="#63b8ff" stroke="#63b8ff" points="142.53,-46.38 132.13,-48.42 141.53,-53.31 142.53,-46.38"/>
</a>
</g>
</g>
<!-- Node2 -->
<g id="Node000002" class="node">
<title>Node2</title>
<g id="a_Node000002"><a xlink:href="structdnf__composer_1_1element_1_1SigmoidFunction.html" target="_top" xlink:title="Logistic sigmoid: output = 1 / (1 + exp(&#45;steepness * (x &#45; x_shift))).">
<polygon fill="white" stroke="#666666" points="300,-30 168,-30 168,0 300,0 300,-30"/>
<text text-anchor="start" x="176" y="-18" font-family="Helvetica,sans-Serif" font-size="10.00">dnf_composer::element</text>
<text text-anchor="middle" x="234" y="-7" font-family="Helvetica,sans-Serif" font-size="10.00">::SigmoidFunction</text>
</a>
</g>
</g>
<!-- Node0&#45;&gt;Node2 -->
<g id="edge2_Node000000_Node000002" class="edge">
<title>Node0&#45;&gt;Node2</title>
<g id="a_edge2_Node000000_Node000002"><a xlink:title=" ">
<path fill="none" stroke="#63b8ff" d="M142.11,-28.14C150.68,-26.9 159.36,-25.65 167.78,-24.43"/>
<polygon fill="#63b8ff" stroke="#63b8ff" points="141.53,-24.69 132.13,-29.58 142.53,-31.62 141.53,-24.69"/>
</a>
</g>
</g>
</g>
</svg>
