<?xml version="1.0" encoding="UTF-8" standalone="no"?>
<!DOCTYPE svg PUBLIC "-//W3C//DTD SVG 1.1//EN"
 "http://www.w3.org/Graphics/SVG/1.1/DTD/svg11.dtd">
<!-- Generated by graphviz version 2.43.0 (0)
 -->
<!-- Title: Graphical Class Hierarchy Pages: 1 -->
<svg width="309pt" height="86pt"
 viewBox="0.00 0.00 309.00 86.00" xmlns="http://www.w3.org/2000/svg" xmlns:xlink="http://www.w3.org/1999/xlink">
<g id="graph0" class="graph" transform="scale(1 1) rotate(0) translate(4 82)">
<title>Graphical Class Hierarchy</title>
<!-- Node0 -->
<g id="Node000000" class="node">
<title>Node0</title>
<g id="a_Node000000"><a xlink:title=" ">
<polygon fill="#e0e0e0" stroke="#999999" points="89,-48.5 0,-48.5 0,-29.5 89,-29.5 89,-48.5"/>
<text text-anchor="middle" x="44.5" y="-36.5" font-family="Helvetica,sans-Serif" font-size="10.00">std::false_type</text>
</a>
</g>
</g>
<!-- Node1 -->
<g id="Node000001" class="node">
<title>Node1</title>
<g id="a_Node000001"><a xlink:href="structdnf__composer_1_1has__simulation__constructor.html" target="_top" xlink:title=" ">
<polygon fill="white" stroke="#666666" points="296,-78 130,-78 130,-48 296,-48 296,-78"/>
<text text-anchor="start" x="138" y="-66" font-family="Helvetica,sans-Serif" font-size="10.00">dnf_composer::has_simulation</text>
<text text-anchor="middle" x="213" y="-55" font-family="Helvetica,sans-Serif" font-size="10.00">_constructor&lt; T, typename &gt;</text>
</a>
</g>
</g>
<!-- Node0&#45;&gt;Node1 -->
<g id="edge80_Node000000_Node000001" class="edge">
<title>Node0&#45;&gt;Node1</title>
<g id="a_edge80_Node000000_Node000001"><a xlink:title=" ">
<path fill="none" stroke="#63b8ff" d="M99.22,-46.74C109.03,-48.16 119.47,-49.66 129.89,-51.16"/>
<polygon fill="#63b8ff" stroke="#63b8ff" points="99.64,-43.27 89.25,-45.31 98.64,-50.2 99.64,-43.27"/>
</a>
</g>
</g>
<!-- Node2 -->
<g id="Node000002" class="node">
<title>Node2</title>
<g id="a_Node000002"><a xlink:href="structdnf__composer_1_1has__visualization__constructor.html" target="_top" xlink:title=" ">
<polygon fill="white" stroke="#666666" points="301,-30 125,-30 125,0 301,0 301,-30"/>
<text text-anchor="start" x="133" y="-18" font-family="Helvetica,sans-Serif" font-size="10.00">dnf_composer::has_visualization</text>
<text text-anchor="middle" x="213" y="-7" font-family="Helvetica,sans-Serif" font-size="10.00">_constructor&lt; T, typename &gt;</text>
</a>
</g>
</g>
<!-- Node0&#45;&gt;Node2 -->
<g id="edge81_Node000000_Node000002" class="edge">
<title>Node0&#45;&gt;Node2</title>
<g id="a_edge81_Node000000_Node000002"><a xlink:title=" ">
<path fill="none" stroke="#63b8ff" d="M99.32,-31.24C107.47,-30.07 116.06,-28.83 124.7,-27.58"/>
<polygon fill="#63b8ff" stroke="#63b8ff" points="98.64,-27.8 89.25,-32.69 99.64,-34.73 98.64,-27.8"/>
</a>
</g>
</g>
</g>
</svg>
