<?xml version="1.0" encoding="UTF-8" standalone="no"?>
<!DOCTYPE svg PUBLIC "-//W3C//DTD SVG 1.1//EN"
 "http://www.w3.org/Graphics/SVG/1.1/DTD/svg11.dtd">
<!-- Generated by graphviz version 2.43.0 (0)
 -->
<!-- Title: Graphical Class Hierarchy Pages: 1 -->
<svg width="676pt" height="902pt"
 viewBox="0.00 0.00 676.00 902.00" xmlns="http://www.w3.org/2000/svg" xmlns:xlink="http://www.w3.org/1999/xlink">
<g id="graph0" class="graph" transform="scale(1 1) rotate(0) translate(4 898)">
<title>Graphical Class Hierarchy</title>
<!-- Node0 -->
<g id="Node000000" class="node">
<title>Node0</title>
<g id="a_Node000000"><a xlink:title=" ">
<polygon fill="#e0e0e0" stroke="#999999" points="109,-483 0,-483 0,-453 109,-453 109,-483"/>
<text text-anchor="start" x="8" y="-471" font-family="Helvetica,sans-Serif" font-size="10.00">std::enable_shared</text>
<text text-anchor="middle" x="54.5" y="-460" font-family="Helvetica,sans-Serif" font-size="10.00">_from_this</text>
</a>
</g>
</g>
<!-- Node1 -->
<g id="Node000001" class="node">
<title>Node1</title>
<g id="a_Node000001"><a xlink:href="classdnf__composer_1_1Simulation.html" target="_top" xlink:title="Manages the element registry and drives the simulation loop.">
<polygon fill="white" stroke="#666666" points="289,-499.5 145,-499.5 145,-480.5 289,-480.5 289,-499.5"/>
<text text-anchor="middle" x="217" y="-487.5" font-family="Helvetica,sans-Serif" font-size="10.00">dnf_composer::Simulation</text>
</a>
</g>
</g>
<!-- Node0&#45;&gt;Node1 -->
<g id="edge46_Node000000_Node000001" class="edge">
<title>Node0&#45;&gt;Node1</title>
<g id="a_edge46_Node000000_Node000001"><a xlink:title=" ">
<path fill="none" stroke="#63b8ff" d="M119.35,-476.75C128.3,-477.98 137.53,-479.24 146.58,-480.48"/>
<polygon fill="#63b8ff" stroke="#63b8ff" points="119.77,-473.28 109.39,-475.39 118.82,-480.21 119.77,-473.28"/>
</a>
</g>
</g>
<!-- Node2 -->
<g id="Node000002" class="node">
<title>Node2</title>
<g id="a_Node000002"><a xlink:href="classdnf__composer_1_1element_1_1Element.html" target="_top" xlink:title="Abstract base class for all simulation elements.">
<polygon fill="white" stroke="#666666" points="283,-462 151,-462 151,-432 283,-432 283,-462"/>
<text text-anchor="start" x="159" y="-450" font-family="Helvetica,sans-Serif" font-size="10.00">dnf_composer::element</text>
<text text-anchor="middle" x="217" y="-439" font-family="Helvetica,sans-Serif" font-size="10.00">::Element</text>
</a>
</g>
</g>
<!-- Node0&#45;&gt;Node2 -->
<g id="edge47_Node000000_Node000002" class="edge">
<title>Node0&#45;&gt;Node2</title>
<g id="a_edge47_Node000000_Node000002"><a xlink:title=" ">
<path fill="none" stroke="#63b8ff" d="M119.54,-459.62C129.84,-458.27 140.51,-456.88 150.84,-455.53"/>
<polygon fill="#63b8ff" stroke="#63b8ff" points="118.85,-456.18 109.39,-460.95 119.76,-463.12 118.85,-456.18"/>
</a>
</g>
</g>
<!-- Node3 -->
<g id="Node000003" class="node">
<title>Node3</title>
<g id="a_Node000003"><a xlink:href="classdnf__composer_1_1element_1_1BoostStimulus.html" target="_top" xlink:title="Spatially uniform (homogeneous) input stimulus.">
<polygon fill="white" stroke="#666666" points="466.5,-894 334.5,-894 334.5,-864 466.5,-864 466.5,-894"/>
<text text-anchor="start" x="342.5" y="-882" font-family="Helvetica,sans-Serif" font-size="10.00">dnf_composer::element</text>
<text text-anchor="middle" x="400.5" y="-871" font-family="Helvetica,sans-Serif" font-size="10.00">::BoostStimulus</text>
</a>
</g>
</g>
<!-- Node2&#45;&gt;Node3 -->
<g id="edge48_Node000002_Node000003" class="edge">
<title>Node2&#45;&gt;Node3</title>
<g id="a_edge48_Node000002_Node000003"><a xlink:title=" ">
<path fill="none" stroke="#63b8ff" d="M286.35,-468.92C287.28,-469.9 288.16,-470.93 289,-472 394.23,-606.75 217.97,-721.67 325,-855 327.72,-858.39 330.93,-861.31 334.45,-863.82"/>
<polygon fill="#63b8ff" stroke="#63b8ff" points="288.34,-466.02 278.45,-462.22 283.81,-471.36 288.34,-466.02"/>
</a>
</g>
</g>
<!-- Node4 -->
<g id="Node000004" class="node">
<title>Node4</title>
<g id="a_Node000004"><a xlink:href="classdnf__composer_1_1element_1_1BoostStimulus2D.html" target="_top" xlink:title="Spatially uniform constant stimulus for 2D neural fields.">
<polygon fill="white" stroke="#666666" points="466.5,-846 334.5,-846 334.5,-816 466.5,-816 466.5,-846"/>
<text text-anchor="start" x="342.5" y="-834" font-family="Helvetica,sans-Serif" font-size="10.00">dnf_composer::element</text>
<text text-anchor="middle" x="400.5" y="-823" font-family="Helvetica,sans-Serif" font-size="10.00">::BoostStimulus2D</text>
</a>
</g>
</g>
<!-- Node2&#45;&gt;Node4 -->
<g id="edge49_Node000002_Node000004" class="edge">
<title>Node2&#45;&gt;Node4</title>
<g id="a_edge49_Node000002_Node000004"><a xlink:title=" ">
<path fill="none" stroke="#63b8ff" d="M285.93,-468.52C287.01,-469.63 288.04,-470.78 289,-472 381.95,-589.41 230.48,-690.85 325,-807 327.74,-810.37 330.97,-813.28 334.51,-815.78"/>
<polygon fill="#63b8ff" stroke="#63b8ff" points="288.01,-465.7 278.07,-462.04 283.55,-471.1 288.01,-465.7"/>
</a>
</g>
</g>
<!-- Node5 -->
<g id="Node000005" class="node">
<title>Node5</title>
<g id="a_Node000005"><a xlink:href="classdnf__composer_1_1element_1_1CorrelatedNormalNoise.html" target="_top" xlink:title="Spatially correlated Gaussian noise source — cedar&#45;compatible.">
<polygon fill="white" stroke="#666666" points="469,-798 332,-798 332,-768 469,-768 469,-798"/>
<text text-anchor="start" x="340" y="-786" font-family="Helvetica,sans-Serif" font-size="10.00">dnf_composer::element</text>
<text text-anchor="middle" x="400.5" y="-775" font-family="Helvetica,sans-Serif" font-size="10.00">::CorrelatedNormalNoise</text>
</a>
</g>
</g>
<!-- Node2&#45;&gt;Node5 -->
<g id="edge50_Node000002_Node000005" class="edge">
<title>Node2&#45;&gt;Node5</title>
<g id="a_edge50_Node000002_Node000005"><a xlink:title=" ">
<path fill="none" stroke="#63b8ff" d="M285.9,-468.55C286.99,-469.64 288.03,-470.79 289,-472 369.69,-572.08 242.98,-660.01 325,-759 327.86,-762.45 331.22,-765.41 334.91,-767.95"/>
<polygon fill="#63b8ff" stroke="#63b8ff" points="287.95,-465.71 277.99,-462.1 283.53,-471.13 287.95,-465.71"/>
</a>
</g>
</g>
<!-- Node6 -->
<g id="Node000006" class="node">
<title>Node6</title>
<g id="a_Node000006"><a xlink:href="classdnf__composer_1_1element_1_1CorrelatedNormalNoise2D.html" target="_top" xlink:title=" ">
<polygon fill="white" stroke="#666666" points="476,-750 325,-750 325,-720 476,-720 476,-750"/>
<text text-anchor="start" x="333" y="-738" font-family="Helvetica,sans-Serif" font-size="10.00">dnf_composer::element</text>
<text text-anchor="middle" x="400.5" y="-727" font-family="Helvetica,sans-Serif" font-size="10.00">::CorrelatedNormalNoise2D</text>
</a>
</g>
</g>
<!-- Node2&#45;&gt;Node6 -->
<g id="edge51_Node000002_Node000006" class="edge">
<title>Node2&#45;&gt;Node6</title>
<g id="a_edge51_Node000002_Node000006"><a xlink:title=" ">
<path fill="none" stroke="#63b8ff" d="M285.86,-468.58C286.96,-469.67 288.01,-470.8 289,-472 357.45,-554.79 255.44,-629.14 325,-711 327.9,-714.42 331.3,-717.35 335,-719.87"/>
<polygon fill="#63b8ff" stroke="#63b8ff" points="287.88,-465.71 277.89,-462.19 283.5,-471.17 287.88,-465.71"/>
</a>
</g>
</g>
<!-- Node7 -->
<g id="Node000007" class="node">
<title>Node7</title>
<g id="a_Node000007"><a xlink:href="classdnf__composer_1_1element_1_1FieldCoupling.html" target="_top" xlink:title="Full&#45;matrix learned coupling between two neural fields.">
<polygon fill="white" stroke="#666666" points="466.5,-702 334.5,-702 334.5,-672 466.5,-672 466.5,-702"/>
<text text-anchor="start" x="342.5" y="-690" font-family="Helvetica,sans-Serif" font-size="10.00">dnf_composer::element</text>
<text text-anchor="middle" x="400.5" y="-679" font-family="Helvetica,sans-Serif" font-size="10.00">::FieldCoupling</text>
</a>
</g>
</g>
<!-- Node2&#45;&gt;Node7 -->
<g id="edge52_Node000002_Node000007" class="edge">
<title>Node2&#45;&gt;Node7</title>
<g id="a_edge52_Node000002_Node000007"><a xlink:title=" ">
<path fill="none" stroke="#63b8ff" d="M285.36,-468.22C286.64,-469.41 287.86,-470.67 289,-472 345.26,-537.55 267.86,-598.21 325,-663 328.06,-666.47 331.61,-669.43 335.49,-671.98"/>
<polygon fill="#63b8ff" stroke="#63b8ff" points="287.46,-465.42 277.4,-462.1 283.2,-470.97 287.46,-465.42"/>
</a>
</g>
</g>
<!-- Node8 -->
<g id="Node000008" class="node">
<title>Node8</title>
<g id="a_Node000008"><a xlink:href="classdnf__composer_1_1element_1_1GaussFieldCoupling.html" target="_top" xlink:title="Sparse Gaussian field coupling with a fixed, user&#45;defined projection.">
<polygon fill="white" stroke="#666666" points="466.5,-654 334.5,-654 334.5,-624 466.5,-624 466.5,-654"/>
<text text-anchor="start" x="342.5" y="-642" font-family="Helvetica,sans-Serif" font-size="10.00">dnf_composer::element</text>
<text text-anchor="middle" x="400.5" y="-631" font-family="Helvetica,sans-Serif" font-size="10.00">::GaussFieldCoupling</text>
</a>
</g>
</g>
<!-- Node2&#45;&gt;Node8 -->
<g id="edge53_Node000002_Node000008" class="edge">
<title>Node2&#45;&gt;Node8</title>
<g id="a_edge53_Node000002_Node000008"><a xlink:title=" ">
<path fill="none" stroke="#63b8ff" d="M285.15,-468.22C286.5,-469.42 287.79,-470.67 289,-472 333.16,-520.42 280.19,-567.18 325,-615 328.25,-618.47 332.01,-621.44 336.07,-623.98"/>
<polygon fill="#63b8ff" stroke="#63b8ff" points="286.95,-465.2 276.82,-462.11 282.81,-470.85 286.95,-465.2"/>
</a>
</g>
</g>
<!-- Node9 -->
<g id="Node000009" class="node">
<title>Node9</title>
<g id="a_Node000009"><a xlink:href="classdnf__composer_1_1element_1_1GaussStimulus.html" target="_top" xlink:title="Localized Gaussian input stimulus applied to a neural field.">
<polygon fill="white" stroke="#666666" points="466.5,-606 334.5,-606 334.5,-576 466.5,-576 466.5,-606"/>
<text text-anchor="start" x="342.5" y="-594" font-family="Helvetica,sans-Serif" font-size="10.00">dnf_composer::element</text>
<text text-anchor="middle" x="400.5" y="-583" font-family="Helvetica,sans-Serif" font-size="10.00">::GaussStimulus</text>
</a>
</g>
</g>
<!-- Node2&#45;&gt;Node9 -->
<g id="edge54_Node000002_Node000009" class="edge">
<title>Node2&#45;&gt;Node9</title>
<g id="a_edge54_Node000002_Node000009"><a xlink:title=" ">
<path fill="none" stroke="#63b8ff" d="M284.34,-467.93C285.97,-469.21 287.53,-470.56 289,-472 321.3,-503.55 292.28,-535.89 325,-567 328.64,-570.46 332.79,-573.43 337.22,-575.96"/>
<polygon fill="#63b8ff" stroke="#63b8ff" points="285.93,-464.78 275.66,-462.16 282.05,-470.61 285.93,-464.78"/>
</a>
</g>
</g>
<!-- Node10 -->
<g id="Node000010" class="node">
<title>Node10</title>
<g id="a_Node000010"><a xlink:href="classdnf__composer_1_1element_1_1GaussStimulus2D.html" target="_top" xlink:title=" ">
<polygon fill="white" stroke="#666666" points="466.5,-558 334.5,-558 334.5,-528 466.5,-528 466.5,-558"/>
<text text-anchor="start" x="342.5" y="-546" font-family="Helvetica,sans-Serif" font-size="10.00">dnf_composer::element</text>
<text text-anchor="middle" x="400.5" y="-535" font-family="Helvetica,sans-Serif" font-size="10.00">::GaussStimulus2D</text>
</a>
</g>
</g>
<!-- Node2&#45;&gt;Node10 -->
<g id="edge55_Node000002_Node000010" class="edge">
<title>Node2&#45;&gt;Node10</title>
<g id="a_edge55_Node000002_Node000010"><a xlink:title=" ">
<path fill="none" stroke="#63b8ff" d="M280.64,-466.64C283.55,-468.3 286.36,-470.08 289,-472 310.29,-487.46 303.5,-503.83 325,-519 329.89,-522.45 335.29,-525.42 340.9,-527.97"/>
<polygon fill="#63b8ff" stroke="#63b8ff" points="282.16,-463.49 271.66,-462.06 278.97,-469.72 282.16,-463.49"/>
</a>
</g>
</g>
<!-- Node11 -->
<g id="Node000011" class="node">
<title>Node11</title>
<g id="a_Node000011"><a xlink:href="classdnf__composer_1_1element_1_1Kernel.html" target="_top" xlink:title="Abstract base class for all convolution&#45;based interaction kernels.">
<polygon fill="white" stroke="#666666" points="466.5,-510 334.5,-510 334.5,-480 466.5,-480 466.5,-510"/>
<text text-anchor="start" x="342.5" y="-498" font-family="Helvetica,sans-Serif" font-size="10.00">dnf_composer::element</text>
<text text-anchor="middle" x="400.5" y="-487" font-family="Helvetica,sans-Serif" font-size="10.00">::Kernel</text>
</a>
</g>
</g>
<!-- Node2&#45;&gt;Node11 -->
<g id="edge56_Node000002_Node000011" class="edge">
<title>Node2&#45;&gt;Node11</title>
<g id="a_edge56_Node000002_Node000011"><a xlink:title=" ">
<path fill="none" stroke="#63b8ff" d="M284.74,-464.65C303.79,-469.69 324.37,-475.13 342.77,-480"/>
<polygon fill="#63b8ff" stroke="#63b8ff" points="285.49,-461.23 274.93,-462.06 283.7,-468 285.49,-461.23"/>
</a>
</g>
</g>
<!-- Node20 -->
<g id="Node000020" class="node">
<title>Node20</title>
<g id="a_Node000020"><a xlink:href="classdnf__composer_1_1element_1_1MemoryTrace.html" target="_top" xlink:title="Persistent spatial memory that accumulates and decays field activity.">
<polygon fill="white" stroke="#666666" points="466.5,-462 334.5,-462 334.5,-432 466.5,-432 466.5,-462"/>
<text text-anchor="start" x="342.5" y="-450" font-family="Helvetica,sans-Serif" font-size="10.00">dnf_composer::element</text>
<text text-anchor="middle" x="400.5" y="-439" font-family="Helvetica,sans-Serif" font-size="10.00">::MemoryTrace</text>
</a>
</g>
</g>
<!-- Node2&#45;&gt;Node20 -->
<g id="edge65_Node000002_Node000020" class="edge">
<title>Node2&#45;&gt;Node20</title>
<g id="a_edge65_Node000002_Node000020"><a xlink:title=" ">
<path fill="none" stroke="#63b8ff" d="M293.31,-447C306.93,-447 321.03,-447 334.33,-447"/>
<polygon fill="#63b8ff" stroke="#63b8ff" points="293.01,-443.5 283.01,-447 293.01,-450.5 293.01,-443.5"/>
</a>
</g>
</g>
<!-- Node21 -->
<g id="Node000021" class="node">
<title>Node21</title>
<g id="a_Node000021"><a xlink:href="classdnf__composer_1_1element_1_1MemoryTrace2D.html" target="_top" xlink:title="Persistent 2D spatial memory that accumulates and decays field activity.">
<polygon fill="white" stroke="#666666" points="466.5,-414 334.5,-414 334.5,-384 466.5,-384 466.5,-414"/>
<text text-anchor="start" x="342.5" y="-402" font-family="Helvetica,sans-Serif" font-size="10.00">dnf_composer::element</text>
<text text-anchor="middle" x="400.5" y="-391" font-family="Helvetica,sans-Serif" font-size="10.00">::MemoryTrace2D</text>
</a>
</g>
</g>
<!-- Node2&#45;&gt;Node21 -->
<g id="edge66_Node000002_Node000021" class="edge">
<title>Node2&#45;&gt;Node21</title>
<g id="a_edge66_Node000002_Node000021"><a xlink:title=" ">
<path fill="none" stroke="#63b8ff" d="M284.74,-429.35C303.79,-424.31 324.37,-418.87 342.77,-414"/>
<polygon fill="#63b8ff" stroke="#63b8ff" points="283.7,-426 274.93,-431.94 285.49,-432.77 283.7,-426"/>
</a>
</g>
</g>
<!-- Node22 -->
<g id="Node000022" class="node">
<title>Node22</title>
<g id="a_Node000022"><a xlink:href="classdnf__composer_1_1element_1_1NeuralField.html" target="_top" xlink:title="Continuous attractor neural field — the core DFT building block.">
<polygon fill="white" stroke="#666666" points="466.5,-366 334.5,-366 334.5,-336 466.5,-336 466.5,-366"/>
<text text-anchor="start" x="342.5" y="-354" font-family="Helvetica,sans-Serif" font-size="10.00">dnf_composer::element</text>
<text text-anchor="middle" x="400.5" y="-343" font-family="Helvetica,sans-Serif" font-size="10.00">::NeuralField</text>
</a>
</g>
</g>
<!-- Node2&#45;&gt;Node22 -->
<g id="edge67_Node000002_Node000022" class="edge">
<title>Node2&#45;&gt;Node22</title>
<g id="a_edge67_Node000002_Node000022"><a xlink:title=" ">
<path fill="none" stroke="#63b8ff" d="M245.19,-425.56C266.08,-409.89 296.14,-389.01 325,-375 331.72,-371.74 339,-368.77 346.27,-366.12"/>
<polygon fill="#63b8ff" stroke="#63b8ff" points="242.94,-422.87 237.1,-431.71 247.18,-428.44 242.94,-422.87"/>
</a>
</g>
</g>
<!-- Node23 -->
<g id="Node000023" class="node">
<title>Node23</title>
<g id="a_Node000023"><a xlink:href="classdnf__composer_1_1element_1_1NeuralField2D.html" target="_top" xlink:title=" ">
<polygon fill="white" stroke="#666666" points="466.5,-318 334.5,-318 334.5,-288 466.5,-288 466.5,-318"/>
<text text-anchor="start" x="342.5" y="-306" font-family="Helvetica,sans-Serif" font-size="10.00">dnf_composer::element</text>
<text text-anchor="middle" x="400.5" y="-295" font-family="Helvetica,sans-Serif" font-size="10.00">::NeuralField2D</text>
</a>
</g>
</g>
<!-- Node2&#45;&gt;Node23 -->
<g id="edge68_Node000002_Node000023" class="edge">
<title>Node2&#45;&gt;Node23</title>
<g id="a_edge68_Node000002_Node000023"><a xlink:title=" ">
<path fill="none" stroke="#63b8ff" d="M233.3,-423.28C251.9,-396.27 285.7,-352.59 325,-327 330.24,-323.59 336,-320.63 341.93,-318.07"/>
<polygon fill="#63b8ff" stroke="#63b8ff" points="230.28,-421.5 227.6,-431.75 236.09,-425.42 230.28,-421.5"/>
</a>
</g>
</g>
<!-- Node24 -->
<g id="Node000024" class="node">
<title>Node24</title>
<g id="a_Node000024"><a xlink:href="classdnf__composer_1_1element_1_1NormalNoise.html" target="_top" xlink:title="Additive Gaussian noise source for neural fields.">
<polygon fill="white" stroke="#666666" points="466.5,-270 334.5,-270 334.5,-240 466.5,-240 466.5,-270"/>
<text text-anchor="start" x="342.5" y="-258" font-family="Helvetica,sans-Serif" font-size="10.00">dnf_composer::element</text>
<text text-anchor="middle" x="400.5" y="-247" font-family="Helvetica,sans-Serif" font-size="10.00">::NormalNoise</text>
</a>
</g>
</g>
<!-- Node2&#45;&gt;Node24 -->
<g id="edge69_Node000002_Node000024" class="edge">
<title>Node2&#45;&gt;Node24</title>
<g id="a_edge69_Node000002_Node000024"><a xlink:title=" ">
<path fill="none" stroke="#63b8ff" d="M227.19,-422.59C242.16,-386.08 275.22,-317.45 325,-279 329.41,-275.59 334.32,-272.66 339.45,-270.14"/>
<polygon fill="#63b8ff" stroke="#63b8ff" points="223.9,-421.39 223.45,-431.98 230.4,-423.98 223.9,-421.39"/>
</a>
</g>
</g>
<!-- Node25 -->
<g id="Node000025" class="node">
<title>Node25</title>
<g id="a_Node000025"><a xlink:href="classdnf__composer_1_1element_1_1NormalNoise2D.html" target="_top" xlink:title=" ">
<polygon fill="white" stroke="#666666" points="466.5,-222 334.5,-222 334.5,-192 466.5,-192 466.5,-222"/>
<text text-anchor="start" x="342.5" y="-210" font-family="Helvetica,sans-Serif" font-size="10.00">dnf_composer::element</text>
<text text-anchor="middle" x="400.5" y="-199" font-family="Helvetica,sans-Serif" font-size="10.00">::NormalNoise2D</text>
</a>
</g>
</g>
<!-- Node2&#45;&gt;Node25 -->
<g id="edge70_Node000002_Node000025" class="edge">
<title>Node2&#45;&gt;Node25</title>
<g id="a_edge70_Node000002_Node000025"><a xlink:title=" ">
<path fill="none" stroke="#63b8ff" d="M223.53,-422.18C234.78,-377.45 264.54,-283.1 325,-231 329.01,-227.54 333.54,-224.58 338.31,-222.04"/>
<polygon fill="#63b8ff" stroke="#63b8ff" points="220.12,-421.4 221.18,-431.94 226.93,-423.04 220.12,-421.4"/>
</a>
</g>
</g>
<!-- Node26 -->
<g id="Node000026" class="node">
<title>Node26</title>
<g id="a_Node000026"><a xlink:href="classdnf__composer_1_1element_1_1Resize.html" target="_top" xlink:title="Resamples a 1D input field of size N to this element&#39;s output size M.">
<polygon fill="white" stroke="#666666" points="466.5,-174 334.5,-174 334.5,-144 466.5,-144 466.5,-174"/>
<text text-anchor="start" x="342.5" y="-162" font-family="Helvetica,sans-Serif" font-size="10.00">dnf_composer::element</text>
<text text-anchor="middle" x="400.5" y="-151" font-family="Helvetica,sans-Serif" font-size="10.00">::Resize</text>
</a>
</g>
</g>
<!-- Node2&#45;&gt;Node26 -->
<g id="edge71_Node000002_Node000026" class="edge">
<title>Node2&#45;&gt;Node26</title>
<g id="a_edge71_Node000002_Node000026"><a xlink:title=" ">
<path fill="none" stroke="#63b8ff" d="M221.06,-421.95C228.74,-369.89 253.63,-249.31 325,-183 328.68,-179.58 332.86,-176.64 337.31,-174.13"/>
<polygon fill="#63b8ff" stroke="#63b8ff" points="217.58,-421.59 219.67,-431.98 224.51,-422.55 217.58,-421.59"/>
</a>
</g>
</g>
<!-- Node27 -->
<g id="Node000027" class="node">
<title>Node27</title>
<g id="a_Node000027"><a xlink:href="classdnf__composer_1_1element_1_1Resize2D.html" target="_top" xlink:title="Resamples a 2D input field of size (Nx x Ny) to this element&#39;s output size (Mx x My).">
<polygon fill="white" stroke="#666666" points="466.5,-126 334.5,-126 334.5,-96 466.5,-96 466.5,-126"/>
<text text-anchor="start" x="342.5" y="-114" font-family="Helvetica,sans-Serif" font-size="10.00">dnf_composer::element</text>
<text text-anchor="middle" x="400.5" y="-103" font-family="Helvetica,sans-Serif" font-size="10.00">::Resize2D</text>
</a>
</g>
</g>
<!-- Node2&#45;&gt;Node27 -->
<g id="edge72_Node000002_Node000027" class="edge">
<title>Node2&#45;&gt;Node27</title>
<g id="a_edge72_Node000002_Node000027"><a xlink:title=" ">
<path fill="none" stroke="#63b8ff" d="M219.29,-421.6C223.64,-362.73 242.64,-215.83 325,-135 328.49,-131.57 332.47,-128.64 336.74,-126.12"/>
<polygon fill="#63b8ff" stroke="#63b8ff" points="215.78,-421.64 218.61,-431.84 222.76,-422.09 215.78,-421.64"/>
</a>
</g>
</g>
<!-- Node28 -->
<g id="Node000028" class="node">
<title>Node28</title>
<g id="a_Node000028"><a xlink:href="classdnf__composer_1_1element_1_1TimedGaussStimulus.html" target="_top" xlink:title="Gaussian stimulus that is active only during specified time intervals.">
<polygon fill="white" stroke="#666666" points="466.5,-78 334.5,-78 334.5,-48 466.5,-48 466.5,-78"/>
<text text-anchor="start" x="342.5" y="-66" font-family="Helvetica,sans-Serif" font-size="10.00">dnf_composer::element</text>
<text text-anchor="middle" x="400.5" y="-55" font-family="Helvetica,sans-Serif" font-size="10.00">::TimedGaussStimulus</text>
</a>
</g>
</g>
<!-- Node2&#45;&gt;Node28 -->
<g id="edge73_Node000002_Node000028" class="edge">
<title>Node2&#45;&gt;Node28</title>
<g id="a_edge73_Node000002_Node000028"><a xlink:title=" ">
<path fill="none" stroke="#63b8ff" d="M217.91,-421.79C219.09,-356.96 231.29,-182.87 325,-87 328.32,-83.6 332.13,-80.68 336.23,-78.17"/>
<polygon fill="#63b8ff" stroke="#63b8ff" points="214.41,-421.87 217.81,-431.9 221.41,-421.94 214.41,-421.87"/>
</a>
</g>
</g>
<!-- Node29 -->
<g id="Node000029" class="node">
<title>Node29</title>
<g id="a_Node000029"><a xlink:href="classdnf__composer_1_1element_1_1TimedGaussStimulus2D.html" target="_top" xlink:title="2D Gaussian stimulus that is active only during specified time intervals.">
<polygon fill="white" stroke="#666666" points="470.5,-30 330.5,-30 330.5,0 470.5,0 470.5,-30"/>
<text text-anchor="start" x="338.5" y="-18" font-family="Helvetica,sans-Serif" font-size="10.00">dnf_composer::element</text>
<text text-anchor="middle" x="400.5" y="-7" font-family="Helvetica,sans-Serif" font-size="10.00">::TimedGaussStimulus2D</text>
</a>
</g>
</g>
<!-- Node2&#45;&gt;Node29 -->
<g id="edge74_Node000002_Node000029" class="edge">
<title>Node2&#45;&gt;Node29</title>
<g id="a_edge74_Node000002_Node000029"><a xlink:title=" ">
<path fill="none" stroke="#63b8ff" d="M221.43,-421.65C232.75,-341.54 271.28,-95.77 325,-39 328.27,-35.55 332.04,-32.59 336.11,-30.05"/>
<polygon fill="#63b8ff" stroke="#63b8ff" points="217.93,-421.43 220.02,-431.82 224.86,-422.39 217.93,-421.43"/>
</a>
</g>
</g>
<!-- Node12 -->
<g id="Node000012" class="node">
<title>Node12</title>
<g id="a_Node000012"><a xlink:href="classdnf__composer_1_1element_1_1AsymmetricGaussKernel.html" target="_top" xlink:title="Spatially shifted Gaussian kernel that induces directional peak drift.">
<polygon fill="white" stroke="#666666" points="661.5,-678 518.5,-678 518.5,-648 661.5,-648 661.5,-678"/>
<text text-anchor="start" x="526.5" y="-666" font-family="Helvetica,sans-Serif" font-size="10.00">dnf_composer::element</text>
<text text-anchor="middle" x="590" y="-655" font-family="Helvetica,sans-Serif" font-size="10.00">::AsymmetricGaussKernel</text>
</a>
</g>
</g>
<!-- Node11&#45;&gt;Node12 -->
<g id="edge57_Node000011_Node000012" class="edge">
<title>Node11&#45;&gt;Node12</title>
<g id="a_edge57_Node000011_Node000012"><a xlink:title=" ">
<path fill="none" stroke="#63b8ff" d="M473.08,-516.25C474.09,-517.13 475.06,-518.04 476,-519 514.97,-558.77 472.84,-599.42 512,-639 515.35,-642.38 519.17,-645.29 523.27,-647.79"/>
<polygon fill="#63b8ff" stroke="#63b8ff" points="474.9,-513.24 464.76,-510.18 470.78,-518.9 474.9,-513.24"/>
</a>
</g>
</g>
<!-- Node13 -->
<g id="Node000013" class="node">
<title>Node13</title>
<g id="a_Node000013"><a xlink:href="classdnf__composer_1_1element_1_1AsymmetricGaussKernel2D.html" target="_top" xlink:title="2D asymmetric Gaussian kernel that induces directional peak drift.">
<polygon fill="white" stroke="#666666" points="668,-630 512,-630 512,-600 668,-600 668,-630"/>
<text text-anchor="start" x="520" y="-618" font-family="Helvetica,sans-Serif" font-size="10.00">dnf_composer::element</text>
<text text-anchor="middle" x="590" y="-607" font-family="Helvetica,sans-Serif" font-size="10.00">::AsymmetricGaussKernel2D</text>
</a>
</g>
</g>
<!-- Node11&#45;&gt;Node13 -->
<g id="edge58_Node000011_Node000013" class="edge">
<title>Node11&#45;&gt;Node13</title>
<g id="a_edge58_Node000011_Node000013"><a xlink:title=" ">
<path fill="none" stroke="#63b8ff" d="M471.28,-515.32C472.91,-516.48 474.49,-517.71 476,-519 503.15,-542.3 484.74,-567.82 512,-591 516.05,-594.45 520.6,-597.4 525.4,-599.93"/>
<polygon fill="#63b8ff" stroke="#63b8ff" points="473.03,-512.29 462.67,-510.06 469.38,-518.26 473.03,-512.29"/>
</a>
</g>
</g>
<!-- Node14 -->
<g id="Node000014" class="node">
<title>Node14</title>
<g id="a_Node000014"><a xlink:href="classdnf__composer_1_1element_1_1GaussKernel.html" target="_top" xlink:title="Gaussian convolution kernel providing local excitation and optional global inhibition.">
<polygon fill="white" stroke="#666666" points="656,-582 524,-582 524,-552 656,-552 656,-582"/>
<text text-anchor="start" x="532" y="-570" font-family="Helvetica,sans-Serif" font-size="10.00">dnf_composer::element</text>
<text text-anchor="middle" x="590" y="-559" font-family="Helvetica,sans-Serif" font-size="10.00">::GaussKernel</text>
</a>
</g>
</g>
<!-- Node11&#45;&gt;Node14 -->
<g id="edge59_Node000011_Node000014" class="edge">
<title>Node11&#45;&gt;Node14</title>
<g id="a_edge59_Node000011_Node000014"><a xlink:title=" ">
<path fill="none" stroke="#63b8ff" d="M464.22,-513.79C468.26,-515.44 472.21,-517.17 476,-519 493.32,-527.36 494.64,-534.72 512,-543 518.95,-546.32 526.47,-549.31 533.99,-551.98"/>
<polygon fill="#63b8ff" stroke="#63b8ff" points="465.3,-510.46 454.71,-510.14 462.79,-517 465.3,-510.46"/>
</a>
</g>
</g>
<!-- Node15 -->
<g id="Node000015" class="node">
<title>Node15</title>
<g id="a_Node000015"><a xlink:href="classdnf__composer_1_1element_1_1GaussKernel2D.html" target="_top" xlink:title=" ">
<polygon fill="white" stroke="#666666" points="656,-534 524,-534 524,-504 656,-504 656,-534"/>
<text text-anchor="start" x="532" y="-522" font-family="Helvetica,sans-Serif" font-size="10.00">dnf_composer::element</text>
<text text-anchor="middle" x="590" y="-511" font-family="Helvetica,sans-Serif" font-size="10.00">::GaussKernel2D</text>
</a>
</g>
</g>
<!-- Node11&#45;&gt;Node15 -->
<g id="edge60_Node000011_Node000015" class="edge">
<title>Node11&#45;&gt;Node15</title>
<g id="a_edge60_Node000011_Node000015"><a xlink:title=" ">
<path fill="none" stroke="#63b8ff" d="M476.67,-504.62C492.25,-506.62 508.55,-508.7 523.75,-510.65"/>
<polygon fill="#63b8ff" stroke="#63b8ff" points="476.92,-501.12 466.55,-503.33 476.03,-508.07 476.92,-501.12"/>
</a>
</g>
</g>
<!-- Node16 -->
<g id="Node000016" class="node">
<title>Node16</title>
<g id="a_Node000016"><a xlink:href="classdnf__composer_1_1element_1_1MexicanHatKernel.html" target="_top" xlink:title="Difference&#45;of&#45;Gaussians convolution kernel for DFT lateral interactions.">
<polygon fill="white" stroke="#666666" points="656,-486 524,-486 524,-456 656,-456 656,-486"/>
<text text-anchor="start" x="532" y="-474" font-family="Helvetica,sans-Serif" font-size="10.00">dnf_composer::element</text>
<text text-anchor="middle" x="590" y="-463" font-family="Helvetica,sans-Serif" font-size="10.00">::MexicanHatKernel</text>
</a>
</g>
</g>
<!-- Node11&#45;&gt;Node16 -->
<g id="edge61_Node000011_Node000016" class="edge">
<title>Node11&#45;&gt;Node16</title>
<g id="a_edge61_Node000011_Node000016"><a xlink:title=" ">
<path fill="none" stroke="#63b8ff" d="M476.67,-485.38C492.25,-483.38 508.55,-481.3 523.75,-479.35"/>
<polygon fill="#63b8ff" stroke="#63b8ff" points="476.03,-481.93 466.55,-486.67 476.92,-488.88 476.03,-481.93"/>
</a>
</g>
</g>
<!-- Node17 -->
<g id="Node000017" class="node">
<title>Node17</title>
<g id="a_Node000017"><a xlink:href="classdnf__composer_1_1element_1_1MexicanHatKernel2D.html" target="_top" xlink:title=" ">
<polygon fill="white" stroke="#666666" points="656,-438 524,-438 524,-408 656,-408 656,-438"/>
<text text-anchor="start" x="532" y="-426" font-family="Helvetica,sans-Serif" font-size="10.00">dnf_composer::element</text>
<text text-anchor="middle" x="590" y="-415" font-family="Helvetica,sans-Serif" font-size="10.00">::MexicanHatKernel2D</text>
</a>
</g>
</g>
<!-- Node11&#45;&gt;Node17 -->
<g id="edge62_Node000011_Node000017" class="edge">
<title>Node11&#45;&gt;Node17</title>
<g id="a_edge62_Node000011_Node000017"><a xlink:title=" ">
<path fill="none" stroke="#63b8ff" d="M464.22,-476.21C468.26,-474.56 472.21,-472.83 476,-471 493.32,-462.64 494.64,-455.28 512,-447 518.95,-443.68 526.47,-440.69 533.99,-438.02"/>
<polygon fill="#63b8ff" stroke="#63b8ff" points="462.79,-473 454.71,-479.86 465.3,-479.54 462.79,-473"/>
</a>
</g>
</g>
<!-- Node18 -->
<g id="Node000018" class="node">
<title>Node18</title>
<g id="a_Node000018"><a xlink:href="classdnf__composer_1_1element_1_1OscillatoryKernel.html" target="_top" xlink:title="Damped&#45;cosine convolution kernel for oscillatory field dynamics.">
<polygon fill="white" stroke="#666666" points="656,-390 524,-390 524,-360 656,-360 656,-390"/>
<text text-anchor="start" x="532" y="-378" font-family="Helvetica,sans-Serif" font-size="10.00">dnf_composer::element</text>
<text text-anchor="middle" x="590" y="-367" font-family="Helvetica,sans-Serif" font-size="10.00">::OscillatoryKernel</text>
</a>
</g>
</g>
<!-- Node11&#45;&gt;Node18 -->
<g id="edge63_Node000011_Node000018" class="edge">
<title>Node11&#45;&gt;Node18</title>
<g id="a_edge63_Node000011_Node000018"><a xlink:title=" ">
<path fill="none" stroke="#63b8ff" d="M471.28,-474.68C472.91,-473.52 474.49,-472.29 476,-471 503.15,-447.7 484.74,-422.18 512,-399 516.05,-395.55 520.6,-392.6 525.4,-390.07"/>
<polygon fill="#63b8ff" stroke="#63b8ff" points="469.38,-471.74 462.67,-479.94 473.03,-477.71 469.38,-471.74"/>
</a>
</g>
</g>
<!-- Node19 -->
<g id="Node000019" class="node">
<title>Node19</title>
<g id="a_Node000019"><a xlink:href="classdnf__composer_1_1element_1_1OscillatoryKernel2D.html" target="_top" xlink:title="2D oscillatory lateral&#45;interaction kernel using separable convolution.">
<polygon fill="white" stroke="#666666" points="656,-342 524,-342 524,-312 656,-312 656,-342"/>
<text text-anchor="start" x="532" y="-330" font-family="Helvetica,sans-Serif" font-size="10.00">dnf_composer::element</text>
<text text-anchor="middle" x="590" y="-319" font-family="Helvetica,sans-Serif" font-size="10.00">::OscillatoryKernel2D</text>
</a>
</g>
</g>
<!-- Node11&#45;&gt;Node19 -->
<g id="edge64_Node000011_Node000019" class="edge">
<title>Node11&#45;&gt;Node19</title>
<g id="a_edge64_Node000011_Node000019"><a xlink:title=" ">
<path fill="none" stroke="#63b8ff" d="M473.08,-473.75C474.09,-472.87 475.06,-471.96 476,-471 514.97,-431.23 472.84,-390.58 512,-351 515.55,-347.42 519.62,-344.37 523.99,-341.77"/>
<polygon fill="#63b8ff" stroke="#63b8ff" points="470.78,-471.1 464.76,-479.82 474.9,-476.76 470.78,-471.1"/>
</a>
</g>
</g>
</g>
</svg>
