<?xml version="1.0" encoding="UTF-8" standalone="no"?>
<!DOCTYPE svg PUBLIC "-//W3C//DTD SVG 1.1//EN"
 "http://www.w3.org/Graphics/SVG/1.1/DTD/svg11.dtd">
<!-- Generated by graphviz version 2.43.0 (0)
 -->
<!-- Title: src/visualization/lineplot.cpp Pages: 1 -->
<svg width="1312pt" height="500pt"
 viewBox="0.00 0.00 1312.00 500.00" xmlns="http://www.w3.org/2000/svg" xmlns:xlink="http://www.w3.org/1999/xlink">
<g id="graph0" class="graph" transform="scale(1 1) rotate(0) translate(4 496)">
<title>src/visualization/lineplot.cpp</title>
<!-- Node1 -->
<g id="Node000001" class="node">
<title>Node1</title>
<g id="a_Node000001"><a xlink:title=" ">
<polygon fill="#999999" stroke="#666666" points="944,-492 788,-492 788,-473 944,-473 944,-492"/>
<text text-anchor="middle" x="866" y="-480" font-family="Helvetica,sans-Serif" font-size="10.00">src/visualization/lineplot.cpp</text>
</a>
</g>
</g>
<!-- Node2 -->
<g id="Node000002" class="node">
<title>Node2</title>
<g id="a_Node000002"><a xlink:href="lineplot_8h.html" target="_top" xlink:title=" ">
<polygon fill="white" stroke="#666666" points="873,-316 745,-316 745,-297 873,-297 873,-316"/>
<text text-anchor="middle" x="809" y="-304" font-family="Helvetica,sans-Serif" font-size="10.00">visualization/lineplot.h</text>
</a>
</g>
</g>
<!-- Node1&#45;&gt;Node2 -->
<g id="edge1_Node000001_Node000002" class="edge">
<title>Node1&#45;&gt;Node2</title>
<g id="a_edge1_Node000001_Node000002"><a xlink:title=" ">
<path fill="none" stroke="#63b8ff" d="M838.66,-472.98C802.49,-460 740.45,-431.44 716,-382 710.09,-370.05 708.89,-363.28 716,-352 725.73,-336.56 742.47,-326.35 759.09,-319.67"/>
<polygon fill="#63b8ff" stroke="#63b8ff" points="760.61,-322.84 768.8,-316.13 758.21,-316.26 760.61,-322.84"/>
</a>
</g>
</g>
<!-- Node21 -->
<g id="Node000021" class="node">
<title>Node21</title>
<g id="a_Node000021"><a xlink:title=" ">
<polygon fill="#e0e0e0" stroke="#999999" points="995,-437 953,-437 953,-418 995,-418 995,-437"/>
<text text-anchor="middle" x="974" y="-425" font-family="Helvetica,sans-Serif" font-size="10.00">array</text>
</a>
</g>
</g>
<!-- Node1&#45;&gt;Node21 -->
<g id="edge25_Node000001_Node000021" class="edge">
<title>Node1&#45;&gt;Node21</title>
<g id="a_edge25_Node000001_Node000021"><a xlink:title=" ">
<path fill="none" stroke="#63b8ff" d="M883.35,-472.98C900.57,-464.54 927.2,-451.47 947.15,-441.68"/>
<polygon fill="#63b8ff" stroke="#63b8ff" points="948.9,-444.72 956.33,-437.17 945.81,-438.43 948.9,-444.72"/>
</a>
</g>
</g>
<!-- Node22 -->
<g id="Node000022" class="node">
<title>Node22</title>
<g id="a_Node000022"><a xlink:href="application_8h.html" target="_top" xlink:title=" ">
<polygon fill="white" stroke="#666666" points="934.5,-437 797.5,-437 797.5,-418 934.5,-418 934.5,-437"/>
<text text-anchor="middle" x="866" y="-425" font-family="Helvetica,sans-Serif" font-size="10.00">application/application.h</text>
</a>
</g>
</g>
<!-- Node1&#45;&gt;Node22 -->
<g id="edge26_Node000001_Node000022" class="edge">
<title>Node1&#45;&gt;Node22</title>
<g id="a_edge26_Node000001_Node000022"><a xlink:title=" ">
<path fill="none" stroke="#63b8ff" d="M866,-472.75C866,-465.8 866,-455.85 866,-447.13"/>
<polygon fill="#63b8ff" stroke="#63b8ff" points="869.5,-447.09 866,-437.09 862.5,-447.09 869.5,-447.09"/>
</a>
</g>
</g>
<!-- Node3 -->
<g id="Node000003" class="node">
<title>Node3</title>
<g id="a_Node000003"><a xlink:href="plot_8h.html" target="_top" xlink:title=" ">
<polygon fill="white" stroke="#666666" points="1063,-261 1019,-261 1019,-242 1063,-242 1063,-261"/>
<text text-anchor="middle" x="1041" y="-249" font-family="Helvetica,sans-Serif" font-size="10.00">plot.h</text>
</a>
</g>
</g>
<!-- Node2&#45;&gt;Node3 -->
<g id="edge2_Node000002_Node000003" class="edge">
<title>Node2&#45;&gt;Node3</title>
<g id="a_edge2_Node000002_Node000003"><a xlink:title=" ">
<path fill="none" stroke="#63b8ff" d="M846.96,-296.98C886.46,-288.1 950.1,-273.71 1005,-261 1006.27,-260.71 1007.56,-260.41 1008.86,-260.1"/>
<polygon fill="#63b8ff" stroke="#63b8ff" points="1009.99,-263.43 1018.92,-257.74 1008.39,-256.62 1009.99,-263.43"/>
</a>
</g>
</g>
<!-- Node4 -->
<g id="Node000004" class="node">
<title>Node4</title>
<g id="a_Node000004"><a xlink:href="plot__parameters_8h.html" target="_top" xlink:title=" ">
<polygon fill="white" stroke="#666666" points="987,-200.5 881,-200.5 881,-181.5 987,-181.5 987,-200.5"/>
<text text-anchor="middle" x="934" y="-188.5" font-family="Helvetica,sans-Serif" font-size="10.00">plot_parameters.h</text>
</a>
</g>
</g>
<!-- Node3&#45;&gt;Node4 -->
<g id="edge3_Node000003_Node000004" class="edge">
<title>Node3&#45;&gt;Node4</title>
<g id="a_edge3_Node000003_Node000004"><a xlink:title=" ">
<path fill="none" stroke="#63b8ff" d="M1025.21,-241.87C1007.67,-232.28 979.12,-216.67 958.63,-205.47"/>
<polygon fill="#63b8ff" stroke="#63b8ff" points="960.31,-202.39 949.85,-200.67 956.95,-208.54 960.31,-202.39"/>
</a>
</g>
</g>
<!-- Node5 -->
<g id="Node000005" class="node">
<title>Node5</title>
<g id="a_Node000005"><a xlink:title=" ">
<polygon fill="#e0e0e0" stroke="#999999" points="547,-140 509,-140 509,-121 547,-121 547,-140"/>
<text text-anchor="middle" x="528" y="-128" font-family="Helvetica,sans-Serif" font-size="10.00">map</text>
</a>
</g>
</g>
<!-- Node4&#45;&gt;Node5 -->
<g id="edge4_Node000004_Node000005" class="edge">
<title>Node4&#45;&gt;Node5</title>
<g id="a_edge4_Node000004_Node000005"><a xlink:title=" ">
<path fill="none" stroke="#63b8ff" d="M899.37,-181.49C890.49,-179.5 880.92,-177.52 872,-176 734.83,-152.64 697.8,-165.41 561,-140 559.72,-139.76 558.42,-139.5 557.11,-139.23"/>
<polygon fill="#63b8ff" stroke="#63b8ff" points="557.63,-135.76 547.1,-136.89 556.04,-142.57 557.63,-135.76"/>
</a>
</g>
</g>
<!-- Node6 -->
<g id="Node000006" class="node">
<title>Node6</title>
<g id="a_Node000006"><a xlink:title=" ">
<polygon fill="#e0e0e0" stroke="#999999" points="898,-19 854,-19 854,0 898,0 898,-19"/>
<text text-anchor="middle" x="876" y="-7" font-family="Helvetica,sans-Serif" font-size="10.00">string</text>
</a>
</g>
</g>
<!-- Node4&#45;&gt;Node6 -->
<g id="edge5_Node000004_Node000006" class="edge">
<title>Node4&#45;&gt;Node6</title>
<g id="a_edge5_Node000004_Node000006"><a xlink:title=" ">
<path fill="none" stroke="#63b8ff" d="M934.45,-181.31C935.24,-159.14 935.21,-99.11 915,-55 910.06,-44.21 901.64,-34.1 893.88,-26.25"/>
<polygon fill="#63b8ff" stroke="#63b8ff" points="896.15,-23.58 886.5,-19.21 891.32,-28.65 896.15,-23.58"/>
</a>
</g>
</g>
<!-- Node7 -->
<g id="Node000007" class="node">
<title>Node7</title>
<g id="a_Node000007"><a xlink:title=" ">
<polygon fill="#e0e0e0" stroke="#999999" points="169.5,-19 122.5,-19 122.5,0 169.5,0 169.5,-19"/>
<text text-anchor="middle" x="146" y="-7" font-family="Helvetica,sans-Serif" font-size="10.00">vector</text>
</a>
</g>
</g>
<!-- Node4&#45;&gt;Node7 -->
<g id="edge6_Node000004_Node000007" class="edge">
<title>Node4&#45;&gt;Node7</title>
<g id="a_edge6_Node000004_Node000007"><a xlink:title=" ">
<path fill="none" stroke="#63b8ff" d="M897.67,-181.48C889.26,-179.59 880.33,-177.66 872,-176 732.21,-148.07 697.27,-140.12 556,-121 473.92,-109.89 253.71,-131.27 185,-85 165.75,-72.03 155.36,-46.44 150.26,-28.9"/>
<polygon fill="#63b8ff" stroke="#63b8ff" points="153.64,-28 147.73,-19.21 146.87,-29.76 153.64,-28"/>
</a>
</g>
</g>
<!-- Node8 -->
<g id="Node000008" class="node">
<title>Node8</title>
<g id="a_Node000008"><a xlink:href="logger_8h.html" target="_top" xlink:title=" ">
<polygon fill="white" stroke="#666666" points="777.5,-140 694.5,-140 694.5,-121 777.5,-121 777.5,-140"/>
<text text-anchor="middle" x="736" y="-128" font-family="Helvetica,sans-Serif" font-size="10.00">tools/logger.h</text>
</a>
</g>
</g>
<!-- Node4&#45;&gt;Node8 -->
<g id="edge7_Node000004_Node000008" class="edge">
<title>Node4&#45;&gt;Node8</title>
<g id="a_edge7_Node000004_Node000008"><a xlink:title=" ">
<path fill="none" stroke="#63b8ff" d="M905.21,-181.49C870.75,-171.31 812.91,-154.22 774.6,-142.9"/>
<polygon fill="#63b8ff" stroke="#63b8ff" points="775.41,-139.49 764.83,-140.02 773.42,-146.21 775.41,-139.49"/>
</a>
</g>
</g>
<!-- Node8&#45;&gt;Node6 -->
<g id="edge9_Node000008_Node000006" class="edge">
<title>Node8&#45;&gt;Node6</title>
<g id="a_edge9_Node000008_Node000006"><a xlink:title=" ">
<path fill="none" stroke="#63b8ff" d="M749.22,-120.81C762.05,-112.18 781.89,-98.37 798,-85 820.83,-66.06 845.27,-42.04 860.58,-26.47"/>
<polygon fill="#63b8ff" stroke="#63b8ff" points="863.23,-28.78 867.71,-19.18 858.22,-23.89 863.23,-28.78"/>
</a>
</g>
</g>
<!-- Node9 -->
<g id="Node000009" class="node">
<title>Node9</title>
<g id="a_Node000009"><a xlink:title=" ">
<polygon fill="#e0e0e0" stroke="#999999" points="906,-79.5 846,-79.5 846,-60.5 906,-60.5 906,-79.5"/>
<text text-anchor="middle" x="876" y="-67.5" font-family="Helvetica,sans-Serif" font-size="10.00">iostream</text>
</a>
</g>
</g>
<!-- Node8&#45;&gt;Node9 -->
<g id="edge8_Node000008_Node000009" class="edge">
<title>Node8&#45;&gt;Node9</title>
<g id="a_edge8_Node000008_Node000009"><a xlink:title=" ">
<path fill="none" stroke="#63b8ff" d="M756.36,-120.99C780,-111.12 819.2,-94.73 846.25,-83.43"/>
<polygon fill="#63b8ff" stroke="#63b8ff" points="847.74,-86.6 855.62,-79.52 845.04,-80.14 847.74,-86.6"/>
</a>
</g>
</g>
<!-- Node10 -->
<g id="Node000010" class="node">
<title>Node10</title>
<g id="a_Node000010"><a xlink:title=" ">
<polygon fill="#e0e0e0" stroke="#999999" points="474,-19 424,-19 424,0 474,0 474,-19"/>
<text text-anchor="middle" x="449" y="-7" font-family="Helvetica,sans-Serif" font-size="10.00">chrono</text>
</a>
</g>
</g>
<!-- Node8&#45;&gt;Node10 -->
<g id="edge10_Node000008_Node000010" class="edge">
<title>Node8&#45;&gt;Node10</title>
<g id="a_edge10_Node000008_Node000010"><a xlink:title=" ">
<path fill="none" stroke="#63b8ff" d="M705.34,-120.95C677.27,-112.79 634.77,-99.6 599,-85 553.53,-66.44 502.76,-39.94 473.48,-24.06"/>
<polygon fill="#63b8ff" stroke="#63b8ff" points="474.87,-20.83 464.42,-19.1 471.51,-26.97 474.87,-20.83"/>
</a>
</g>
</g>
<!-- Node11 -->
<g id="Node000011" class="node">
<title>Node11</title>
<g id="a_Node000011"><a xlink:title=" ">
<polygon fill="#e0e0e0" stroke="#999999" points="664,-79.5 608,-79.5 608,-60.5 664,-60.5 664,-79.5"/>
<text text-anchor="middle" x="636" y="-67.5" font-family="Helvetica,sans-Serif" font-size="10.00">iomanip</text>
</a>
</g>
</g>
<!-- Node8&#45;&gt;Node11 -->
<g id="edge11_Node000008_Node000011" class="edge">
<title>Node8&#45;&gt;Node11</title>
<g id="a_edge11_Node000008_Node000011"><a xlink:title=" ">
<path fill="none" stroke="#63b8ff" d="M721.24,-120.87C705,-111.36 678.65,-95.95 659.54,-84.77"/>
<polygon fill="#63b8ff" stroke="#63b8ff" points="661.21,-81.7 650.82,-79.67 657.68,-87.74 661.21,-81.7"/>
</a>
</g>
</g>
<!-- Node12 -->
<g id="Node000012" class="node">
<title>Node12</title>
<g id="a_Node000012"><a xlink:title=" ">
<polygon fill="#e0e0e0" stroke="#999999" points="789.5,-85 682.5,-85 682.5,-55 789.5,-55 789.5,-85"/>
<text text-anchor="start" x="690.5" y="-73" font-family="Helvetica,sans-Serif" font-size="10.00">imgui&#45;platform&#45;kit</text>
<text text-anchor="middle" x="736" y="-62" font-family="Helvetica,sans-Serif" font-size="10.00">/log_window.h</text>
</a>
</g>
</g>
<!-- Node8&#45;&gt;Node12 -->
<g id="edge12_Node000008_Node000012" class="edge">
<title>Node8&#45;&gt;Node12</title>
<g id="a_edge12_Node000008_Node000012"><a xlink:title=" ">
<path fill="none" stroke="#63b8ff" d="M736,-120.87C736,-114.11 736,-104.35 736,-95.26"/>
<polygon fill="#63b8ff" stroke="#63b8ff" points="739.5,-95.11 736,-85.11 732.5,-95.11 739.5,-95.11"/>
</a>
</g>
</g>
<!-- Node13 -->
<g id="Node000013" class="node">
<title>Node13</title>
<g id="a_Node000013"><a xlink:href="exception_8h.html" target="_top" xlink:title=" ">
<polygon fill="white" stroke="#666666" points="1287,-79.5 1157,-79.5 1157,-60.5 1287,-60.5 1287,-79.5"/>
<text text-anchor="middle" x="1222" y="-67.5" font-family="Helvetica,sans-Serif" font-size="10.00">exceptions/exception.h</text>
</a>
</g>
</g>
<!-- Node8&#45;&gt;Node13 -->
<g id="edge13_Node000008_Node000013" class="edge">
<title>Node8&#45;&gt;Node13</title>
<g id="a_edge13_Node000008_Node000013"><a xlink:title=" ">
<path fill="none" stroke="#63b8ff" d="M777.86,-124.46C859.97,-114.58 1043.17,-92.53 1146.8,-80.05"/>
<polygon fill="#63b8ff" stroke="#63b8ff" points="1147.37,-83.51 1156.88,-78.84 1146.54,-76.56 1147.37,-83.51"/>
</a>
</g>
</g>
<!-- Node16 -->
<g id="Node000016" class="node">
<title>Node16</title>
<g id="a_Node000016"><a xlink:href="utils_8h.html" target="_top" xlink:title=" ">
<polygon fill="white" stroke="#666666" points="382.5,-79.5 335.5,-79.5 335.5,-60.5 382.5,-60.5 382.5,-79.5"/>
<text text-anchor="middle" x="359" y="-67.5" font-family="Helvetica,sans-Serif" font-size="10.00">utils.h</text>
</a>
</g>
</g>
<!-- Node8&#45;&gt;Node16 -->
<g id="edge17_Node000008_Node000016" class="edge">
<title>Node8&#45;&gt;Node16</title>
<g id="a_edge17_Node000008_Node000016"><a xlink:title=" ">
<path fill="none" stroke="#63b8ff" d="M694.05,-123.78C635.82,-115.72 527.24,-100.31 435,-85 421.11,-82.69 405.84,-79.93 392.65,-77.46"/>
<polygon fill="#63b8ff" stroke="#63b8ff" points="393.06,-73.98 382.58,-75.57 391.76,-80.86 393.06,-73.98"/>
</a>
</g>
</g>
<!-- Node13&#45;&gt;Node6 -->
<g id="edge16_Node000013_Node000006" class="edge">
<title>Node13&#45;&gt;Node6</title>
<g id="a_edge16_Node000013_Node000006"><a xlink:title=" ">
<path fill="none" stroke="#63b8ff" d="M1174.39,-60.48C1164.04,-58.65 1153.16,-56.75 1143,-55 1058.25,-40.43 958.24,-23.95 908.09,-15.74"/>
<polygon fill="#63b8ff" stroke="#63b8ff" points="908.6,-12.28 898.17,-14.12 907.47,-19.18 908.6,-12.28"/>
</a>
</g>
</g>
<!-- Node14 -->
<g id="Node000014" class="node">
<title>Node14</title>
<g id="a_Node000014"><a xlink:title=" ">
<polygon fill="#e0e0e0" stroke="#999999" points="1285,-19 1235,-19 1235,0 1285,0 1285,-19"/>
<text text-anchor="middle" x="1260" y="-7" font-family="Helvetica,sans-Serif" font-size="10.00">cstdint</text>
</a>
</g>
</g>
<!-- Node13&#45;&gt;Node14 -->
<g id="edge14_Node000013_Node000014" class="edge">
<title>Node13&#45;&gt;Node14</title>
<g id="a_edge14_Node000013_Node000014"><a xlink:title=" ">
<path fill="none" stroke="#63b8ff" d="M1227.61,-60.37C1233.16,-51.81 1241.83,-38.47 1248.8,-27.74"/>
<polygon fill="#63b8ff" stroke="#63b8ff" points="1251.86,-29.46 1254.37,-19.17 1245.99,-25.65 1251.86,-29.46"/>
</a>
</g>
</g>
<!-- Node15 -->
<g id="Node000015" class="node">
<title>Node15</title>
<g id="a_Node000015"><a xlink:title=" ">
<polygon fill="#e0e0e0" stroke="#999999" points="1216.5,-19 1151.5,-19 1151.5,0 1216.5,0 1216.5,-19"/>
<text text-anchor="middle" x="1184" y="-7" font-family="Helvetica,sans-Serif" font-size="10.00">exception</text>
</a>
</g>
</g>
<!-- Node13&#45;&gt;Node15 -->
<g id="edge15_Node000013_Node000015" class="edge">
<title>Node13&#45;&gt;Node15</title>
<g id="a_edge15_Node000013_Node000015"><a xlink:title=" ">
<path fill="none" stroke="#63b8ff" d="M1216.39,-60.37C1210.84,-51.81 1202.17,-38.47 1195.2,-27.74"/>
<polygon fill="#63b8ff" stroke="#63b8ff" points="1198.01,-25.65 1189.63,-19.17 1192.14,-29.46 1198.01,-25.65"/>
</a>
</g>
</g>
<!-- Node16&#45;&gt;Node6 -->
<g id="edge18_Node000016_Node000006" class="edge">
<title>Node16&#45;&gt;Node6</title>
<g id="a_edge18_Node000016_Node000006"><a xlink:title=" ">
<path fill="none" stroke="#63b8ff" d="M382.57,-66.02C405.62,-63.13 441.71,-58.65 473,-55 610.71,-38.94 775.07,-21.25 843.56,-13.95"/>
<polygon fill="#63b8ff" stroke="#63b8ff" points="844.14,-17.4 853.71,-12.86 843.39,-10.44 844.14,-17.4"/>
</a>
</g>
</g>
<!-- Node16&#45;&gt;Node7 -->
<g id="edge19_Node000016_Node000007" class="edge">
<title>Node16&#45;&gt;Node7</title>
<g id="a_edge19_Node000016_Node000007"><a xlink:title=" ">
<path fill="none" stroke="#63b8ff" d="M340.35,-60.48C335.72,-58.53 330.72,-56.57 326,-55 275.97,-38.32 216.26,-24.76 179.74,-17.17"/>
<polygon fill="#63b8ff" stroke="#63b8ff" points="180.14,-13.67 169.64,-15.09 178.73,-20.53 180.14,-13.67"/>
</a>
</g>
</g>
<!-- Node16&#45;&gt;Node10 -->
<g id="edge23_Node000016_Node000010" class="edge">
<title>Node16&#45;&gt;Node10</title>
<g id="a_edge23_Node000016_Node000010"><a xlink:title=" ">
<path fill="none" stroke="#63b8ff" d="M372.28,-60.37C386.64,-51.04 409.76,-36.01 426.87,-24.88"/>
<polygon fill="#63b8ff" stroke="#63b8ff" points="429.19,-27.55 435.67,-19.17 425.37,-21.68 429.19,-27.55"/>
</a>
</g>
</g>
<!-- Node17 -->
<g id="Node000017" class="node">
<title>Node17</title>
<g id="a_Node000017"><a xlink:title=" ">
<polygon fill="#e0e0e0" stroke="#999999" points="332,-19 278,-19 278,0 332,0 332,-19"/>
<text text-anchor="middle" x="305" y="-7" font-family="Helvetica,sans-Serif" font-size="10.00">random</text>
</a>
</g>
</g>
<!-- Node16&#45;&gt;Node17 -->
<g id="edge20_Node000016_Node000017" class="edge">
<title>Node16&#45;&gt;Node17</title>
<g id="a_edge20_Node000016_Node000017"><a xlink:title=" ">
<path fill="none" stroke="#63b8ff" d="M351.03,-60.37C342.9,-51.55 330.07,-37.66 320.02,-26.77"/>
<polygon fill="#63b8ff" stroke="#63b8ff" points="322.36,-24.14 313,-19.17 317.21,-28.89 322.36,-24.14"/>
</a>
</g>
</g>
<!-- Node18 -->
<g id="Node000018" class="node">
<title>Node18</title>
<g id="a_Node000018"><a xlink:title=" ">
<polygon fill="#e0e0e0" stroke="#999999" points="406,-19 350,-19 350,0 406,0 406,-19"/>
<text text-anchor="middle" x="378" y="-7" font-family="Helvetica,sans-Serif" font-size="10.00">sstream</text>
</a>
</g>
</g>
<!-- Node16&#45;&gt;Node18 -->
<g id="edge21_Node000016_Node000018" class="edge">
<title>Node16&#45;&gt;Node18</title>
<g id="a_edge21_Node000016_Node000018"><a xlink:title=" ">
<path fill="none" stroke="#63b8ff" d="M361.8,-60.37C364.5,-52.07 368.65,-39.28 372.08,-28.72"/>
<polygon fill="#63b8ff" stroke="#63b8ff" points="375.42,-29.76 375.18,-19.17 368.77,-27.6 375.42,-29.76"/>
</a>
</g>
</g>
<!-- Node19 -->
<g id="Node000019" class="node">
<title>Node19</title>
<g id="a_Node000019"><a xlink:title=" ">
<polygon fill="#e0e0e0" stroke="#999999" points="259.5,-19 204.5,-19 204.5,0 259.5,0 259.5,-19"/>
<text text-anchor="middle" x="232" y="-7" font-family="Helvetica,sans-Serif" font-size="10.00">fstream</text>
</a>
</g>
</g>
<!-- Node16&#45;&gt;Node19 -->
<g id="edge22_Node000016_Node000019" class="edge">
<title>Node16&#45;&gt;Node19</title>
<g id="a_edge22_Node000016_Node000019"><a xlink:title=" ">
<path fill="none" stroke="#63b8ff" d="M340.53,-60.49C319.28,-50.7 284.15,-34.52 259.63,-23.23"/>
<polygon fill="#63b8ff" stroke="#63b8ff" points="261.04,-20.02 250.49,-19.02 258.11,-26.38 261.04,-20.02"/>
</a>
</g>
</g>
<!-- Node20 -->
<g id="Node000020" class="node">
<title>Node20</title>
<g id="a_Node000020"><a xlink:title=" ">
<polygon fill="#e0e0e0" stroke="#999999" points="68,-19 0,-19 0,0 68,0 68,-19"/>
<text text-anchor="middle" x="34" y="-7" font-family="Helvetica,sans-Serif" font-size="10.00">filesystem</text>
</a>
</g>
</g>
<!-- Node16&#45;&gt;Node20 -->
<g id="edge24_Node000016_Node000020" class="edge">
<title>Node16&#45;&gt;Node20</title>
<g id="a_edge24_Node000016_Node000020"><a xlink:title=" ">
<path fill="none" stroke="#63b8ff" d="M341.14,-60.46C336.31,-58.42 331.03,-56.43 326,-55 280.36,-42.06 148.19,-24.58 78.39,-15.88"/>
<polygon fill="#63b8ff" stroke="#63b8ff" points="78.51,-12.37 68.15,-14.62 77.65,-19.32 78.51,-12.37"/>
</a>
</g>
</g>
<!-- Node22&#45;&gt;Node13 -->
<g id="edge29_Node000022_Node000013" class="edge">
<title>Node22&#45;&gt;Node13</title>
<g id="a_edge29_Node000022_Node000013"><a xlink:title=" ">
<path fill="none" stroke="#63b8ff" d="M934.76,-418.97C1049.14,-406.44 1266.15,-382.59 1267,-382 1297.3,-360.82 1304,-344.47 1304,-307.5 1304,-307.5 1304,-307.5 1304,-190 1304,-146.24 1265.93,-106.86 1241.67,-86.21"/>
<polygon fill="#63b8ff" stroke="#63b8ff" points="1243.7,-83.35 1233.75,-79.72 1239.26,-88.77 1243.7,-83.35"/>
</a>
</g>
</g>
<!-- Node23 -->
<g id="Node000023" class="node">
<title>Node23</title>
<g id="a_Node000023"><a xlink:title=" ">
<polygon fill="#e0e0e0" stroke="#999999" points="794.5,-376.5 725.5,-376.5 725.5,-357.5 794.5,-357.5 794.5,-376.5"/>
<text text-anchor="middle" x="760" y="-364.5" font-family="Helvetica,sans-Serif" font-size="10.00">type_traits</text>
</a>
</g>
</g>
<!-- Node22&#45;&gt;Node23 -->
<g id="edge27_Node000022_Node000023" class="edge">
<title>Node22&#45;&gt;Node23</title>
<g id="a_edge27_Node000022_Node000023"><a xlink:title=" ">
<path fill="none" stroke="#63b8ff" d="M850.36,-417.87C833.06,-408.32 804.95,-392.81 784.67,-381.62"/>
<polygon fill="#63b8ff" stroke="#63b8ff" points="786.15,-378.43 775.7,-376.67 782.77,-384.56 786.15,-378.43"/>
</a>
</g>
</g>
<!-- Node24 -->
<g id="Node000024" class="node">
<title>Node24</title>
<g id="a_Node000024"><a xlink:title=" ">
<polygon fill="#e0e0e0" stroke="#999999" points="919.5,-382 812.5,-382 812.5,-352 919.5,-352 919.5,-382"/>
<text text-anchor="start" x="820.5" y="-370" font-family="Helvetica,sans-Serif" font-size="10.00">imgui&#45;platform&#45;kit</text>
<text text-anchor="middle" x="866" y="-359" font-family="Helvetica,sans-Serif" font-size="10.00">/user_interface.h</text>
</a>
</g>
</g>
<!-- Node22&#45;&gt;Node24 -->
<g id="edge28_Node000022_Node000024" class="edge">
<title>Node22&#45;&gt;Node24</title>
<g id="a_edge28_Node000022_Node000024"><a xlink:title=" ">
<path fill="none" stroke="#63b8ff" d="M866,-417.87C866,-411.11 866,-401.35 866,-392.26"/>
<polygon fill="#63b8ff" stroke="#63b8ff" points="869.5,-392.11 866,-382.11 862.5,-392.11 869.5,-392.11"/>
</a>
</g>
</g>
<!-- Node25 -->
<g id="Node000025" class="node">
<title>Node25</title>
<g id="a_Node000025"><a xlink:href="simulation_8h.html" target="_top" xlink:title=" ">
<polygon fill="white" stroke="#666666" points="338,-316 206,-316 206,-297 338,-297 338,-316"/>
<text text-anchor="middle" x="272" y="-304" font-family="Helvetica,sans-Serif" font-size="10.00">simulation/simulation.h</text>
</a>
</g>
</g>
<!-- Node22&#45;&gt;Node25 -->
<g id="edge30_Node000022_Node000025" class="edge">
<title>Node22&#45;&gt;Node25</title>
<g id="a_edge30_Node000022_Node000025"><a xlink:title=" ">
<path fill="none" stroke="#63b8ff" d="M823.28,-417.94C717.02,-396.65 441.02,-341.36 324.81,-318.08"/>
<polygon fill="#63b8ff" stroke="#63b8ff" points="325.22,-314.59 314.73,-316.06 323.85,-321.46 325.22,-314.59"/>
</a>
</g>
</g>
<!-- Node35 -->
<g id="Node000035" class="node">
<title>Node35</title>
<g id="a_Node000035"><a xlink:href="visualization_8h.html" target="_top" xlink:title=" ">
<polygon fill="white" stroke="#666666" points="1090.5,-376.5 937.5,-376.5 937.5,-357.5 1090.5,-357.5 1090.5,-376.5"/>
<text text-anchor="middle" x="1014" y="-364.5" font-family="Helvetica,sans-Serif" font-size="10.00">visualization/visualization.h</text>
</a>
</g>
</g>
<!-- Node22&#45;&gt;Node35 -->
<g id="edge57_Node000022_Node000035" class="edge">
<title>Node22&#45;&gt;Node35</title>
<g id="a_edge57_Node000022_Node000035"><a xlink:title=" ">
<path fill="none" stroke="#63b8ff" d="M887.52,-417.99C912.62,-408.07 954.32,-391.59 982.93,-380.28"/>
<polygon fill="#63b8ff" stroke="#63b8ff" points="984.44,-383.45 992.45,-376.52 981.87,-376.94 984.44,-383.45"/>
</a>
</g>
</g>
<!-- Node37 -->
<g id="Node000037" class="node">
<title>Node37</title>
<g id="a_Node000037"><a xlink:href="imgui__freetype_8h.html" target="_top" xlink:title=" ">
<polygon fill="white" stroke="#666666" points="1258,-382 1144,-382 1144,-352 1258,-352 1258,-382"/>
<text text-anchor="start" x="1152" y="-370" font-family="Helvetica,sans-Serif" font-size="10.00">user_interface/fonts</text>
<text text-anchor="middle" x="1201" y="-359" font-family="Helvetica,sans-Serif" font-size="10.00">/imgui_freetype.h</text>
</a>
</g>
</g>
<!-- Node22&#45;&gt;Node37 -->
<g id="edge67_Node000022_Node000037" class="edge">
<title>Node22&#45;&gt;Node37</title>
<g id="a_edge67_Node000022_Node000037"><a xlink:title=" ">
<path fill="none" stroke="#63b8ff" d="M914.71,-417.99C972.42,-407.92 1068.87,-391.07 1133.69,-379.75"/>
<polygon fill="#63b8ff" stroke="#63b8ff" points="1134.56,-383.16 1143.81,-377.99 1133.36,-376.26 1134.56,-383.16"/>
</a>
</g>
</g>
<!-- Node25&#45;&gt;Node6 -->
<g id="edge33_Node000025_Node000006" class="edge">
<title>Node25&#45;&gt;Node6</title>
<g id="a_edge33_Node000025_Node000006"><a xlink:title=" ">
<path fill="none" stroke="#63b8ff" d="M338.09,-301.66C512.38,-290.87 974.18,-257.6 1018,-206 1064.04,-151.79 1019.5,-100.71 965,-55 948.02,-40.76 925.72,-29.62 907.69,-22.05"/>
<polygon fill="#63b8ff" stroke="#63b8ff" points="908.75,-18.7 898.17,-18.21 906.14,-25.2 908.75,-18.7"/>
</a>
</g>
</g>
<!-- Node25&#45;&gt;Node7 -->
<g id="edge31_Node000025_Node000007" class="edge">
<title>Node25&#45;&gt;Node7</title>
<g id="a_edge31_Node000025_Node000007"><a xlink:title=" ">
<path fill="none" stroke="#63b8ff" d="M223.23,-296.89C169.32,-284.24 90,-254.93 90,-192 90,-192 90,-192 90,-129.5 90,-89.77 115.88,-49.06 132.45,-27.07"/>
<polygon fill="#63b8ff" stroke="#63b8ff" points="135.28,-29.13 138.68,-19.1 129.76,-24.82 135.28,-29.13"/>
</a>
</g>
</g>
<!-- Node25&#45;&gt;Node10 -->
<g id="edge35_Node000025_Node000010" class="edge">
<title>Node25&#45;&gt;Node10</title>
<g id="a_edge35_Node000025_Node000010"><a xlink:title=" ">
<path fill="none" stroke="#63b8ff" d="M264.98,-296.77C248.44,-275.06 210.14,-217.41 234,-176 254.13,-141.06 360.61,-111.51 391,-85 410.41,-68.07 427.85,-43.85 438.42,-27.67"/>
<polygon fill="#63b8ff" stroke="#63b8ff" points="441.4,-29.51 443.81,-19.19 435.49,-25.75 441.4,-29.51"/>
</a>
</g>
</g>
<!-- Node25&#45;&gt;Node13 -->
<g id="edge51_Node000025_Node000013" class="edge">
<title>Node25&#45;&gt;Node13</title>
<g id="a_edge51_Node000025_Node000013"><a xlink:title=" ">
<path fill="none" stroke="#63b8ff" d="M338.11,-304.22C487.84,-300.84 848.97,-289.88 967,-261 987.29,-256.03 990.11,-248.41 1010,-242 1083.92,-218.18 1123.74,-258.47 1181,-206 1214.16,-175.61 1220.85,-119.36 1221.97,-89.98"/>
<polygon fill="#63b8ff" stroke="#63b8ff" points="1225.48,-89.9 1222.18,-79.83 1218.48,-89.76 1225.48,-89.9"/>
</a>
</g>
</g>
<!-- Node25&#45;&gt;Node16 -->
<g id="edge52_Node000025_Node000016" class="edge">
<title>Node25&#45;&gt;Node16</title>
<g id="a_edge52_Node000025_Node000016"><a xlink:title=" ">
<path fill="none" stroke="#63b8ff" d="M246.49,-296.9C230.31,-289.96 210.65,-278.44 201,-261 182.71,-227.95 183.15,-209.29 201,-176 215.47,-149 292.33,-105.8 333.27,-84.2"/>
<polygon fill="#63b8ff" stroke="#63b8ff" points="334.9,-87.3 342.14,-79.56 331.66,-81.1 334.9,-87.3"/>
</a>
</g>
</g>
<!-- Node25&#45;&gt;Node20 -->
<g id="edge34_Node000025_Node000020" class="edge">
<title>Node25&#45;&gt;Node20</title>
<g id="a_edge34_Node000025_Node000020"><a xlink:title=" ">
<path fill="none" stroke="#63b8ff" d="M205.89,-303.97C129.45,-298.27 14,-275.8 14,-192 14,-192 14,-192 14,-129.5 14,-93.49 23.02,-52.19 28.94,-28.94"/>
<polygon fill="#63b8ff" stroke="#63b8ff" points="32.38,-29.64 31.55,-19.08 25.61,-27.85 32.38,-29.64"/>
</a>
</g>
</g>
<!-- Node26 -->
<g id="Node000026" class="node">
<title>Node26</title>
<g id="a_Node000026"><a xlink:title=" ">
<polygon fill="#e0e0e0" stroke="#999999" points="301,-200.5 243,-200.5 243,-181.5 301,-181.5 301,-200.5"/>
<text text-anchor="middle" x="272" y="-188.5" font-family="Helvetica,sans-Serif" font-size="10.00">memory</text>
</a>
</g>
</g>
<!-- Node25&#45;&gt;Node26 -->
<g id="edge32_Node000025_Node000026" class="edge">
<title>Node25&#45;&gt;Node26</title>
<g id="a_edge32_Node000025_Node000026"><a xlink:title=" ">
<path fill="none" stroke="#63b8ff" d="M272,-296.97C272,-278.73 272,-235.57 272,-210.64"/>
<polygon fill="#63b8ff" stroke="#63b8ff" points="275.5,-210.63 272,-200.63 268.5,-210.63 275.5,-210.63"/>
</a>
</g>
</g>
<!-- Node27 -->
<g id="Node000027" class="node">
<title>Node27</title>
<g id="a_Node000027"><a xlink:href="element_8h.html" target="_top" xlink:title=" ">
<polygon fill="white" stroke="#666666" points="674.5,-261 559.5,-261 559.5,-242 674.5,-242 674.5,-261"/>
<text text-anchor="middle" x="617" y="-249" font-family="Helvetica,sans-Serif" font-size="10.00">elements/element.h</text>
</a>
</g>
</g>
<!-- Node25&#45;&gt;Node27 -->
<g id="edge36_Node000025_Node000027" class="edge">
<title>Node25&#45;&gt;Node27</title>
<g id="a_edge36_Node000025_Node000027"><a xlink:title=" ">
<path fill="none" stroke="#63b8ff" d="M327.43,-296.98C388.45,-287.61 486.48,-272.55 551.31,-262.59"/>
<polygon fill="#63b8ff" stroke="#63b8ff" points="552.07,-266.02 561.42,-261.04 551.01,-259.1 552.07,-266.02"/>
</a>
</g>
</g>
<!-- Node34 -->
<g id="Node000034" class="node">
<title>Node34</title>
<g id="a_Node000034"><a xlink:href="simulation__recorder_8h.html" target="_top" xlink:title=" ">
<polygon fill="white" stroke="#666666" points="317.5,-85 194.5,-85 194.5,-55 317.5,-55 317.5,-85"/>
<text text-anchor="start" x="202.5" y="-73" font-family="Helvetica,sans-Serif" font-size="10.00">simulation/simulation</text>
<text text-anchor="middle" x="256" y="-62" font-family="Helvetica,sans-Serif" font-size="10.00">_recorder.h</text>
</a>
</g>
</g>
<!-- Node25&#45;&gt;Node34 -->
<g id="edge53_Node000025_Node000034" class="edge">
<title>Node25&#45;&gt;Node34</title>
<g id="a_edge53_Node000025_Node000034"><a xlink:title=" ">
<path fill="none" stroke="#63b8ff" d="M218.88,-296.97C197.83,-290.7 175.65,-279.83 163,-261 127.66,-208.4 149.69,-169.9 190,-121 199.49,-109.49 212.14,-99.09 223.82,-90.8"/>
<polygon fill="#63b8ff" stroke="#63b8ff" points="225.81,-93.67 232.1,-85.14 221.86,-87.89 225.81,-93.67"/>
</a>
</g>
</g>
<!-- Node27&#45;&gt;Node6 -->
<g id="edge38_Node000027_Node000006" class="edge">
<title>Node27&#45;&gt;Node6</title>
<g id="a_edge38_Node000027_Node000006"><a xlink:title=" ">
<path fill="none" stroke="#63b8ff" d="M674.62,-247.88C775.4,-242.71 975.03,-229.58 996,-206 1049.46,-145.9 943.86,-58.93 896.91,-24.91"/>
<polygon fill="#63b8ff" stroke="#63b8ff" points="898.8,-21.96 888.63,-19.01 894.75,-27.66 898.8,-21.96"/>
</a>
</g>
</g>
<!-- Node27&#45;&gt;Node7 -->
<g id="edge37_Node000027_Node000007" class="edge">
<title>Node27&#45;&gt;Node7</title>
<g id="a_edge37_Node000027_Node000007"><a xlink:title=" ">
<path fill="none" stroke="#63b8ff" d="M559.26,-249.23C503.12,-246.13 416.52,-236.28 348,-206 328.32,-197.3 327.73,-188.19 310,-176 244.81,-131.17 201.05,-150.72 157,-85 145.99,-68.57 144.15,-45.54 144.49,-29.45"/>
<polygon fill="#63b8ff" stroke="#63b8ff" points="148,-29.32 145.02,-19.15 141.01,-28.96 148,-29.32"/>
</a>
</g>
</g>
<!-- Node27&#45;&gt;Node8 -->
<g id="edge45_Node000027_Node000008" class="edge">
<title>Node27&#45;&gt;Node8</title>
<g id="a_edge45_Node000027_Node000008"><a xlink:title=" ">
<path fill="none" stroke="#63b8ff" d="M625.56,-241.94C645.36,-222.14 694.59,-172.91 720.1,-147.4"/>
<polygon fill="#63b8ff" stroke="#63b8ff" points="722.6,-149.85 727.2,-140.3 717.65,-144.9 722.6,-149.85"/>
</a>
</g>
</g>
<!-- Node27&#45;&gt;Node13 -->
<g id="edge44_Node000027_Node000013" class="edge">
<title>Node27&#45;&gt;Node13</title>
<g id="a_edge44_Node000027_Node000013"><a xlink:title=" ">
<path fill="none" stroke="#63b8ff" d="M674.58,-247.82C772.14,-242.69 965.52,-229.82 1029,-206 1102.8,-178.31 1174.89,-115.77 1206,-86.57"/>
<polygon fill="#63b8ff" stroke="#63b8ff" points="1208.5,-89.02 1213.33,-79.59 1203.68,-83.95 1208.5,-89.02"/>
</a>
</g>
</g>
<!-- Node27&#45;&gt;Node26 -->
<g id="edge40_Node000027_Node000026" class="edge">
<title>Node27&#45;&gt;Node26</title>
<g id="a_edge40_Node000027_Node000026"><a xlink:title=" ">
<path fill="none" stroke="#63b8ff" d="M559.41,-244.93C498.23,-238.34 398.97,-225.71 315,-206 311.96,-205.29 308.84,-204.46 305.72,-203.57"/>
<polygon fill="#63b8ff" stroke="#63b8ff" points="306.49,-200.15 295.9,-200.57 304.45,-206.84 306.49,-200.15"/>
</a>
</g>
</g>
<!-- Node28 -->
<g id="Node000028" class="node">
<title>Node28</title>
<g id="a_Node000028"><a xlink:title=" ">
<polygon fill="#e0e0e0" stroke="#999999" points="794.5,-200.5 701.5,-200.5 701.5,-181.5 794.5,-181.5 794.5,-200.5"/>
<text text-anchor="middle" x="748" y="-188.5" font-family="Helvetica,sans-Serif" font-size="10.00">unordered_map</text>
</a>
</g>
</g>
<!-- Node27&#45;&gt;Node28 -->
<g id="edge39_Node000027_Node000028" class="edge">
<title>Node27&#45;&gt;Node28</title>
<g id="a_edge39_Node000027_Node000028"><a xlink:title=" ">
<path fill="none" stroke="#63b8ff" d="M636.05,-241.99C657.97,-232.2 694.21,-216.02 719.5,-204.73"/>
<polygon fill="#63b8ff" stroke="#63b8ff" points="721.22,-207.79 728.93,-200.52 718.37,-201.4 721.22,-207.79"/>
</a>
</g>
</g>
<!-- Node29 -->
<g id="Node000029" class="node">
<title>Node29</title>
<g id="a_Node000029"><a xlink:title=" ">
<polygon fill="#e0e0e0" stroke="#999999" points="863,-200.5 813,-200.5 813,-181.5 863,-181.5 863,-200.5"/>
<text text-anchor="middle" x="838" y="-188.5" font-family="Helvetica,sans-Serif" font-size="10.00">ranges</text>
</a>
</g>
</g>
<!-- Node27&#45;&gt;Node29 -->
<g id="edge41_Node000027_Node000029" class="edge">
<title>Node27&#45;&gt;Node29</title>
<g id="a_edge41_Node000027_Node000029"><a xlink:title=" ">
<path fill="none" stroke="#63b8ff" d="M660.71,-241.92C698.72,-234.02 755.06,-221.23 803,-206 804.87,-205.41 806.78,-204.76 808.7,-204.08"/>
<polygon fill="#63b8ff" stroke="#63b8ff" points="810.07,-207.3 818.19,-200.5 807.6,-200.75 810.07,-207.3"/>
</a>
</g>
</g>
<!-- Node30 -->
<g id="Node000030" class="node">
<title>Node30</title>
<g id="a_Node000030"><a xlink:title=" ">
<polygon fill="#e0e0e0" stroke="#999999" points="571,-200.5 507,-200.5 507,-181.5 571,-181.5 571,-200.5"/>
<text text-anchor="middle" x="539" y="-188.5" font-family="Helvetica,sans-Serif" font-size="10.00">algorithm</text>
</a>
</g>
</g>
<!-- Node27&#45;&gt;Node30 -->
<g id="edge42_Node000027_Node000030" class="edge">
<title>Node27&#45;&gt;Node30</title>
<g id="a_edge42_Node000027_Node000030"><a xlink:title=" ">
<path fill="none" stroke="#63b8ff" d="M605.49,-241.87C593.16,-232.62 573.38,-217.78 558.59,-206.69"/>
<polygon fill="#63b8ff" stroke="#63b8ff" points="560.66,-203.87 550.56,-200.67 556.46,-209.47 560.66,-203.87"/>
</a>
</g>
</g>
<!-- Node31 -->
<g id="Node000031" class="node">
<title>Node31</title>
<g id="a_Node000031"><a xlink:title=" ">
<polygon fill="#e0e0e0" stroke="#999999" points="645,-200.5 589,-200.5 589,-181.5 645,-181.5 645,-200.5"/>
<text text-anchor="middle" x="617" y="-188.5" font-family="Helvetica,sans-Serif" font-size="10.00">numeric</text>
</a>
</g>
</g>
<!-- Node27&#45;&gt;Node31 -->
<g id="edge43_Node000027_Node000031" class="edge">
<title>Node27&#45;&gt;Node31</title>
<g id="a_edge43_Node000027_Node000031"><a xlink:title=" ">
<path fill="none" stroke="#63b8ff" d="M617,-241.87C617,-233.75 617,-221.31 617,-210.89"/>
<polygon fill="#63b8ff" stroke="#63b8ff" points="620.5,-210.67 617,-200.67 613.5,-210.67 620.5,-210.67"/>
</a>
</g>
</g>
<!-- Node32 -->
<g id="Node000032" class="node">
<title>Node32</title>
<g id="a_Node000032"><a xlink:href="element__parameters_8h.html" target="_top" xlink:title=" ">
<polygon fill="white" stroke="#666666" points="488.5,-206 357.5,-206 357.5,-176 488.5,-176 488.5,-206"/>
<text text-anchor="start" x="365.5" y="-194" font-family="Helvetica,sans-Serif" font-size="10.00">element_parameters</text>
<text text-anchor="middle" x="423" y="-183" font-family="Helvetica,sans-Serif" font-size="10.00">/element_parameters.h</text>
</a>
</g>
</g>
<!-- Node27&#45;&gt;Node32 -->
<g id="edge46_Node000027_Node000032" class="edge">
<title>Node27&#45;&gt;Node32</title>
<g id="a_edge46_Node000027_Node000032"><a xlink:title=" ">
<path fill="none" stroke="#63b8ff" d="M588.79,-241.99C560.26,-233.39 515.38,-219.86 479.5,-209.04"/>
<polygon fill="#63b8ff" stroke="#63b8ff" points="480.23,-205.6 469.64,-206.06 478.2,-212.3 480.23,-205.6"/>
</a>
</g>
</g>
<!-- Node32&#45;&gt;Node5 -->
<g id="edge47_Node000032_Node000005" class="edge">
<title>Node32&#45;&gt;Node5</title>
<g id="a_edge47_Node000032_Node000005"><a xlink:title=" ">
<path fill="none" stroke="#63b8ff" d="M448.15,-175.99C464.89,-166.66 486.77,-154.47 503.39,-145.21"/>
<polygon fill="#63b8ff" stroke="#63b8ff" points="505.46,-148.06 512.49,-140.14 502.05,-141.95 505.46,-148.06"/>
</a>
</g>
</g>
<!-- Node32&#45;&gt;Node6 -->
<g id="edge48_Node000032_Node000006" class="edge">
<title>Node32&#45;&gt;Node6</title>
<g id="a_edge48_Node000032_Node000006"><a xlink:title=" ">
<path fill="none" stroke="#63b8ff" d="M435.89,-175.77C462.89,-147.05 528.73,-82.55 599,-55 683.21,-21.98 791.01,-13.45 843.86,-11.26"/>
<polygon fill="#63b8ff" stroke="#63b8ff" points="844.11,-14.75 853.98,-10.89 843.86,-7.75 844.11,-14.75"/>
</a>
</g>
</g>
<!-- Node32&#45;&gt;Node8 -->
<g id="edge50_Node000032_Node000008" class="edge">
<title>Node32&#45;&gt;Node8</title>
<g id="a_edge50_Node000032_Node000008"><a xlink:title=" ">
<path fill="none" stroke="#63b8ff" d="M488.62,-177.74C546.88,-166.85 630.88,-151.15 684.45,-141.14"/>
<polygon fill="#63b8ff" stroke="#63b8ff" points="685.22,-144.55 694.41,-139.27 683.94,-137.67 685.22,-144.55"/>
</a>
</g>
</g>
<!-- Node33 -->
<g id="Node000033" class="node">
<title>Node33</title>
<g id="a_Node000033"><a xlink:title=" ">
<polygon fill="#e0e0e0" stroke="#999999" points="448,-140 398,-140 398,-121 448,-121 448,-140"/>
<text text-anchor="middle" x="423" y="-128" font-family="Helvetica,sans-Serif" font-size="10.00">format</text>
</a>
</g>
</g>
<!-- Node32&#45;&gt;Node33 -->
<g id="edge49_Node000032_Node000033" class="edge">
<title>Node32&#45;&gt;Node33</title>
<g id="a_edge49_Node000032_Node000033"><a xlink:title=" ">
<path fill="none" stroke="#63b8ff" d="M423,-175.84C423,-168.21 423,-158.7 423,-150.45"/>
<polygon fill="#63b8ff" stroke="#63b8ff" points="426.5,-150.27 423,-140.27 419.5,-150.27 426.5,-150.27"/>
</a>
</g>
</g>
<!-- Node34&#45;&gt;Node6 -->
<g id="edge54_Node000034_Node000006" class="edge">
<title>Node34&#45;&gt;Node6</title>
<g id="a_edge54_Node000034_Node000006"><a xlink:title=" ">
<path fill="none" stroke="#63b8ff" d="M317.77,-56.24C320.55,-55.79 323.3,-55.38 326,-55 521.61,-27.62 758.9,-15.48 843.84,-11.79"/>
<polygon fill="#63b8ff" stroke="#63b8ff" points="844.05,-15.28 853.89,-11.36 843.75,-8.29 844.05,-15.28"/>
</a>
</g>
</g>
<!-- Node34&#45;&gt;Node7 -->
<g id="edge55_Node000034_Node000007" class="edge">
<title>Node34&#45;&gt;Node7</title>
<g id="a_edge55_Node000034_Node000007"><a xlink:title=" ">
<path fill="none" stroke="#63b8ff" d="M229.65,-54.99C211.95,-45.58 188.77,-33.24 171.29,-23.95"/>
<polygon fill="#63b8ff" stroke="#63b8ff" points="172.72,-20.74 162.24,-19.14 169.43,-26.92 172.72,-20.74"/>
</a>
</g>
</g>
<!-- Node34&#45;&gt;Node19 -->
<g id="edge56_Node000034_Node000019" class="edge">
<title>Node34&#45;&gt;Node19</title>
<g id="a_edge56_Node000034_Node000019"><a xlink:title=" ">
<path fill="none" stroke="#63b8ff" d="M250.19,-54.84C246.96,-46.95 242.89,-37.05 239.43,-28.61"/>
<polygon fill="#63b8ff" stroke="#63b8ff" points="242.63,-27.19 235.6,-19.27 236.15,-29.85 242.63,-27.19"/>
</a>
</g>
</g>
<!-- Node35&#45;&gt;Node2 -->
<g id="edge64_Node000035_Node000002" class="edge">
<title>Node35&#45;&gt;Node2</title>
<g id="a_edge64_Node000035_Node000002"><a xlink:title=" ">
<path fill="none" stroke="#63b8ff" d="M984.19,-357.49C948.44,-347.29 888.37,-330.15 848.71,-318.83"/>
<polygon fill="#63b8ff" stroke="#63b8ff" points="849.42,-315.4 838.84,-316.02 847.5,-322.13 849.42,-315.4"/>
</a>
</g>
</g>
<!-- Node35&#45;&gt;Node3 -->
<g id="edge62_Node000035_Node000003" class="edge">
<title>Node35&#45;&gt;Node3</title>
<g id="a_edge62_Node000035_Node000003"><a xlink:title=" ">
<path fill="none" stroke="#63b8ff" d="M982.64,-357.43C948.22,-346.39 900.31,-325.22 920,-297 925.35,-289.34 975.22,-272.73 1009.24,-262.11"/>
<polygon fill="#63b8ff" stroke="#63b8ff" points="1010.28,-265.46 1018.8,-259.16 1008.21,-258.77 1010.28,-265.46"/>
</a>
</g>
</g>
<!-- Node35&#45;&gt;Node7 -->
<g id="edge59_Node000035_Node000007" class="edge">
<title>Node35&#45;&gt;Node7</title>
<g id="a_edge59_Node000035_Node000007"><a xlink:title=" ">
<path fill="none" stroke="#63b8ff" d="M967.71,-357.49C954.89,-355.4 940.94,-353.37 928,-352 604.52,-317.81 513.64,-390.47 197,-316 128.52,-299.89 52,-322.85 52,-252.5 52,-252.5 52,-252.5 52,-129.5 52,-83.41 95.95,-44.71 123.75,-24.85"/>
<polygon fill="#63b8ff" stroke="#63b8ff" points="125.88,-27.63 132.13,-19.07 121.91,-21.86 125.88,-27.63"/>
</a>
</g>
</g>
<!-- Node35&#45;&gt;Node8 -->
<g id="edge63_Node000035_Node000008" class="edge">
<title>Node35&#45;&gt;Node8</title>
<g id="a_edge63_Node000035_Node000008"><a xlink:title=" ">
<path fill="none" stroke="#63b8ff" d="M1030.22,-357.38C1044.21,-348.93 1063.47,-334.61 1072,-316 1085.7,-286.1 1085.65,-271.92 1072,-242 1053.44,-201.3 1036.43,-195.15 996,-176 928.73,-144.14 842.08,-134.8 787.77,-132.22"/>
<polygon fill="#63b8ff" stroke="#63b8ff" points="787.83,-128.72 777.69,-131.81 787.54,-135.72 787.83,-128.72"/>
</a>
</g>
</g>
<!-- Node35&#45;&gt;Node9 -->
<g id="edge58_Node000035_Node000009" class="edge">
<title>Node35&#45;&gt;Node9</title>
<g id="a_edge58_Node000035_Node000009"><a xlink:title=" ">
<path fill="none" stroke="#63b8ff" d="M1037.67,-357.4C1055.34,-349.57 1078.22,-336.14 1089,-316 1104.52,-287 1099.92,-273.02 1089,-242 1059.65,-158.58 960.04,-105.96 908.1,-83.53"/>
<polygon fill="#63b8ff" stroke="#63b8ff" points="909.26,-80.22 898.68,-79.57 906.54,-86.67 909.26,-80.22"/>
</a>
</g>
</g>
<!-- Node35&#45;&gt;Node13 -->
<g id="edge61_Node000035_Node000013" class="edge">
<title>Node35&#45;&gt;Node13</title>
<g id="a_edge61_Node000035_Node000013"><a xlink:title=" ">
<path fill="none" stroke="#63b8ff" d="M1034.21,-357.45C1053.69,-348.67 1083.45,-333.79 1106,-316 1157.64,-275.26 1171.14,-262.39 1205,-206 1225.21,-172.35 1231.73,-160.16 1229,-121 1228.28,-110.68 1226.74,-99.25 1225.28,-89.93"/>
<polygon fill="#63b8ff" stroke="#63b8ff" points="1228.69,-89.11 1223.61,-79.81 1221.79,-90.25 1228.69,-89.11"/>
</a>
</g>
</g>
<!-- Node35&#45;&gt;Node25 -->
<g id="edge60_Node000035_Node000025" class="edge">
<title>Node35&#45;&gt;Node25</title>
<g id="a_edge60_Node000035_Node000025"><a xlink:title=" ">
<path fill="none" stroke="#63b8ff" d="M966.8,-357.5C954.22,-355.46 940.62,-353.45 928,-352 718.98,-327.95 470.88,-315.46 348.33,-310.36"/>
<polygon fill="#63b8ff" stroke="#63b8ff" points="348.43,-306.86 338.3,-309.94 348.14,-313.85 348.43,-306.86"/>
</a>
</g>
</g>
<!-- Node36 -->
<g id="Node000036" class="node">
<title>Node36</title>
<g id="a_Node000036"><a xlink:href="heatmap_8h.html" target="_top" xlink:title=" ">
<polygon fill="white" stroke="#666666" points="1063,-316 929,-316 929,-297 1063,-297 1063,-316"/>
<text text-anchor="middle" x="996" y="-304" font-family="Helvetica,sans-Serif" font-size="10.00">visualization/heatmap.h</text>
</a>
</g>
</g>
<!-- Node35&#45;&gt;Node36 -->
<g id="edge65_Node000035_Node000036" class="edge">
<title>Node35&#45;&gt;Node36</title>
<g id="a_edge65_Node000035_Node000036"><a xlink:title=" ">
<path fill="none" stroke="#63b8ff" d="M1011.34,-357.37C1008.82,-349.16 1004.94,-336.54 1001.71,-326.05"/>
<polygon fill="#63b8ff" stroke="#63b8ff" points="1004.95,-324.7 998.67,-316.17 998.26,-326.75 1004.95,-324.7"/>
</a>
</g>
</g>
<!-- Node36&#45;&gt;Node3 -->
<g id="edge66_Node000036_Node000003" class="edge">
<title>Node36&#45;&gt;Node3</title>
<g id="a_edge66_Node000036_Node000003"><a xlink:title=" ">
<path fill="none" stroke="#63b8ff" d="M1003.43,-296.75C1009.85,-289.18 1019.31,-278.05 1027.12,-268.84"/>
<polygon fill="#63b8ff" stroke="#63b8ff" points="1029.9,-270.98 1033.71,-261.09 1024.57,-266.45 1029.9,-270.98"/>
</a>
</g>
</g>
<!-- Node38 -->
<g id="Node000038" class="node">
<title>Node38</title>
<g id="a_Node000038"><a xlink:title=" ">
<polygon fill="#e0e0e0" stroke="#999999" points="1275.5,-316 1222.5,-316 1222.5,-297 1275.5,-297 1275.5,-316"/>
<text text-anchor="middle" x="1249" y="-304" font-family="Helvetica,sans-Serif" font-size="10.00">imgui.h</text>
</a>
</g>
</g>
<!-- Node37&#45;&gt;Node38 -->
<g id="edge68_Node000037_Node000038" class="edge">
<title>Node37&#45;&gt;Node38</title>
<g id="a_edge68_Node000037_Node000038"><a xlink:title=" ">
<path fill="none" stroke="#63b8ff" d="M1212.62,-351.84C1219.44,-343.52 1228.11,-332.96 1235.27,-324.23"/>
<polygon fill="#63b8ff" stroke="#63b8ff" points="1238.17,-326.22 1241.81,-316.27 1232.76,-321.78 1238.17,-326.22"/>
</a>
</g>
</g>
</g>
</svg>
