<?xml version="1.0" encoding="UTF-8" standalone="no"?>
<!DOCTYPE svg PUBLIC "-//W3C//DTD SVG 1.1//EN"
 "http://www.w3.org/Graphics/SVG/1.1/DTD/svg11.dtd">
<!-- Generated by graphviz version 2.43.0 (0)
 -->
<!-- Title: include/visualization/lineplot.h Pages: 1 -->
<svg width="1719pt" height="500pt"
 viewBox="0.00 0.00 1719.29 500.00" xmlns="http://www.w3.org/2000/svg" xmlns:xlink="http://www.w3.org/1999/xlink">
<g id="graph0" class="graph" transform="scale(1 1) rotate(0) translate(4 496)">
<title>include/visualization/lineplot.h</title>
<!-- Node1 -->
<g id="Node000001" class="node">
<title>Node1</title>
<g id="a_Node000001"><a xlink:title=" ">
<polygon fill="#999999" stroke="#666666" points="1573.79,-492 1456.79,-492 1456.79,-462 1573.79,-462 1573.79,-492"/>
<text text-anchor="start" x="1464.79" y="-480" font-family="Helvetica,sans-Serif" font-size="10.00">include/visualization</text>
<text text-anchor="middle" x="1515.29" y="-469" font-family="Helvetica,sans-Serif" font-size="10.00">/lineplot.h</text>
</a>
</g>
</g>
<!-- Node2 -->
<g id="Node000002" class="node">
<title>Node2</title>
<g id="a_Node000002"><a xlink:href="visualization_8h.html" target="_top" xlink:title=" ">
<polygon fill="white" stroke="#666666" points="1454.79,-426 1337.79,-426 1337.79,-396 1454.79,-396 1454.79,-426"/>
<text text-anchor="start" x="1345.79" y="-414" font-family="Helvetica,sans-Serif" font-size="10.00">include/visualization</text>
<text text-anchor="middle" x="1396.29" y="-403" font-family="Helvetica,sans-Serif" font-size="10.00">/visualization.h</text>
</a>
</g>
</g>
<!-- Node1&#45;&gt;Node2 -->
<g id="edge1_Node000001_Node000002" class="edge">
<title>Node1&#45;&gt;Node2</title>
<g id="a_edge1_Node000001_Node000002"><a xlink:title=" ">
<path fill="none" stroke="#63b8ff" d="M1480.16,-457.11C1461.64,-447.14 1439.31,-435.13 1422.35,-426.01"/>
<polygon fill="#63b8ff" stroke="#63b8ff" points="1478.71,-460.3 1489.18,-461.95 1482.03,-454.14 1478.71,-460.3"/>
</a>
</g>
</g>
<!-- Node27 -->
<g id="Node000027" class="node">
<title>Node27</title>
<g id="a_Node000027"><a xlink:href="lineplot_8cpp.html" target="_top" xlink:title=" ">
<polygon fill="white" stroke="#666666" points="1637.29,-288.5 1481.29,-288.5 1481.29,-269.5 1637.29,-269.5 1637.29,-288.5"/>
<text text-anchor="middle" x="1559.29" y="-276.5" font-family="Helvetica,sans-Serif" font-size="10.00">src/visualization/lineplot.cpp</text>
</a>
</g>
</g>
<!-- Node1&#45;&gt;Node27 -->
<g id="edge51_Node000001_Node000027" class="edge">
<title>Node1&#45;&gt;Node27</title>
<g id="a_edge51_Node000001_Node000027"><a xlink:title=" ">
<path fill="none" stroke="#63b8ff" d="M1548.58,-456.49C1578.9,-436.58 1621.71,-402.6 1640.29,-360 1645.62,-347.78 1646.79,-341.64 1640.29,-330 1628.78,-309.36 1604.85,-296.18 1585.98,-288.56"/>
<polygon fill="#63b8ff" stroke="#63b8ff" points="1546.54,-453.64 1540,-461.97 1550.31,-459.54 1546.54,-453.64"/>
</a>
</g>
</g>
<!-- Node3 -->
<g id="Node000003" class="node">
<title>Node3</title>
<g id="a_Node000003"><a xlink:href="application_8h.html" target="_top" xlink:title=" ">
<polygon fill="white" stroke="#666666" points="997.79,-360 888.79,-360 888.79,-330 997.79,-330 997.79,-360"/>
<text text-anchor="start" x="896.79" y="-348" font-family="Helvetica,sans-Serif" font-size="10.00">include/application</text>
<text text-anchor="middle" x="943.29" y="-337" font-family="Helvetica,sans-Serif" font-size="10.00">/application.h</text>
</a>
</g>
</g>
<!-- Node2&#45;&gt;Node3 -->
<g id="edge2_Node000002_Node000003" class="edge">
<title>Node2&#45;&gt;Node3</title>
<g id="a_edge2_Node000002_Node000003"><a xlink:title=" ">
<path fill="none" stroke="#63b8ff" d="M1327.4,-400.27C1237.15,-387.52 1080.68,-365.41 998.05,-353.74"/>
<polygon fill="#63b8ff" stroke="#63b8ff" points="1327.14,-403.77 1337.54,-401.7 1328.12,-396.83 1327.14,-403.77"/>
</a>
</g>
</g>
<!-- Node4 -->
<g id="Node000004" class="node">
<title>Node4</title>
<g id="a_Node000004"><a xlink:href="dynamic-neural-field-composer-dynamic_8h.html" target="_top" xlink:title=" ">
<polygon fill="white" stroke="#666666" points="738.29,-162 590.29,-162 590.29,-132 738.29,-132 738.29,-162"/>
<text text-anchor="start" x="598.29" y="-150" font-family="Helvetica,sans-Serif" font-size="10.00">include/dynamic&#45;neural</text>
<text text-anchor="middle" x="664.29" y="-139" font-family="Helvetica,sans-Serif" font-size="10.00">&#45;field&#45;composer&#45;dynamic.h</text>
</a>
</g>
</g>
<!-- Node2&#45;&gt;Node4 -->
<g id="edge42_Node000002_Node000004" class="edge">
<title>Node2&#45;&gt;Node4</title>
<g id="a_edge42_Node000002_Node000004"><a xlink:title=" ">
<path fill="none" stroke="#63b8ff" d="M1327.51,-407.53C1069.08,-397.79 165.35,-359.33 55.29,-294 23.65,-275.22 17.01,-262.88 5.29,-228 1.05,-215.36 -3.77,-207.78 5.29,-198 44.37,-155.85 426,-149.05 590.01,-148.09"/>
<polygon fill="#63b8ff" stroke="#63b8ff" points="1327.39,-411.03 1337.52,-407.91 1327.65,-404.04 1327.39,-411.03"/>
</a>
</g>
</g>
<!-- Node6 -->
<g id="Node000006" class="node">
<title>Node6</title>
<g id="a_Node000006"><a xlink:href="dynamic-neural-field-composer-static_8h.html" target="_top" xlink:title=" ">
<polygon fill="white" stroke="#666666" points="1705.79,-96 1572.79,-96 1572.79,-66 1705.79,-66 1705.79,-96"/>
<text text-anchor="start" x="1580.79" y="-84" font-family="Helvetica,sans-Serif" font-size="10.00">include/dynamic&#45;neural</text>
<text text-anchor="middle" x="1639.29" y="-73" font-family="Helvetica,sans-Serif" font-size="10.00">&#45;field&#45;composer&#45;static.h</text>
</a>
</g>
</g>
<!-- Node2&#45;&gt;Node6 -->
<g id="edge43_Node000002_Node000006" class="edge">
<title>Node2&#45;&gt;Node6</title>
<g id="a_edge43_Node000002_Node000006"><a xlink:title=" ">
<path fill="none" stroke="#63b8ff" d="M1465.32,-409.8C1555.85,-405.48 1703.29,-382.69 1703.29,-280 1703.29,-280 1703.29,-280 1703.29,-212 1703.29,-165.71 1670.23,-118.81 1651.63,-96.08"/>
<polygon fill="#63b8ff" stroke="#63b8ff" points="1464.97,-406.31 1455.12,-410.22 1465.26,-413.31 1464.97,-406.31"/>
</a>
</g>
</g>
<!-- Node10 -->
<g id="Node000010" class="node">
<title>Node10</title>
<g id="a_Node000010"><a xlink:href="static__layout__window_8h.html" target="_top" xlink:title=" ">
<polygon fill="white" stroke="#666666" points="1332.29,-162 1198.29,-162 1198.29,-132 1332.29,-132 1332.29,-162"/>
<text text-anchor="start" x="1206.29" y="-150" font-family="Helvetica,sans-Serif" font-size="10.00">include/user_interface</text>
<text text-anchor="middle" x="1265.29" y="-139" font-family="Helvetica,sans-Serif" font-size="10.00">/static_layout_window.h</text>
</a>
</g>
</g>
<!-- Node2&#45;&gt;Node10 -->
<g id="edge49_Node000002_Node000010" class="edge">
<title>Node2&#45;&gt;Node10</title>
<g id="a_edge49_Node000002_Node000010"><a xlink:title=" ">
<path fill="none" stroke="#63b8ff" d="M1403.12,-386.2C1409.65,-367.91 1421.34,-343.55 1440.29,-330 1518.51,-274.1 1705.87,-339.45 1646.29,-264 1603.54,-209.85 1557.57,-257.69 1495.29,-228 1475.55,-218.59 1475.93,-207.63 1456.29,-198 1434.13,-187.14 1376.47,-172.67 1330.26,-162.1"/>
<polygon fill="#63b8ff" stroke="#63b8ff" points="1399.74,-385.29 1399.94,-395.89 1406.39,-387.48 1399.74,-385.29"/>
</a>
</g>
</g>
<!-- Node21 -->
<g id="Node000021" class="node">
<title>Node21</title>
<g id="a_Node000021"><a xlink:href="plot__control__window_8h.html" target="_top" xlink:title=" ">
<polygon fill="white" stroke="#666666" points="192.29,-294 64.29,-294 64.29,-264 192.29,-264 192.29,-294"/>
<text text-anchor="start" x="72.29" y="-282" font-family="Helvetica,sans-Serif" font-size="10.00">include/user_interface</text>
<text text-anchor="middle" x="128.29" y="-271" font-family="Helvetica,sans-Serif" font-size="10.00">/plot_control_window.h</text>
</a>
</g>
</g>
<!-- Node2&#45;&gt;Node21 -->
<g id="edge44_Node000002_Node000021" class="edge">
<title>Node2&#45;&gt;Node21</title>
<g id="a_edge44_Node000002_Node000021"><a xlink:title=" ">
<path fill="none" stroke="#63b8ff" d="M1327.57,-405.26C1144.64,-392.22 630.82,-352.82 206.29,-294 201.8,-293.38 197.16,-292.68 192.5,-291.94"/>
<polygon fill="#63b8ff" stroke="#63b8ff" points="1327.37,-408.75 1337.59,-405.97 1327.86,-401.77 1327.37,-408.75"/>
</a>
</g>
</g>
<!-- Node28 -->
<g id="Node000028" class="node">
<title>Node28</title>
<g id="a_Node000028"><a xlink:href="plots__window_8h.html" target="_top" xlink:title=" ">
<polygon fill="white" stroke="#666666" points="1447.79,-228 1322.79,-228 1322.79,-198 1447.79,-198 1447.79,-228"/>
<text text-anchor="start" x="1330.79" y="-216" font-family="Helvetica,sans-Serif" font-size="10.00">include/user_interface</text>
<text text-anchor="middle" x="1385.29" y="-205" font-family="Helvetica,sans-Serif" font-size="10.00">/plots_window.h</text>
</a>
</g>
</g>
<!-- Node2&#45;&gt;Node28 -->
<g id="edge45_Node000002_Node000028" class="edge">
<title>Node2&#45;&gt;Node28</title>
<g id="a_edge45_Node000002_Node000028"><a xlink:title=" ">
<path fill="none" stroke="#63b8ff" d="M1394.94,-385.89C1392.62,-344.58 1387.96,-261.48 1386.09,-228.23"/>
<polygon fill="#63b8ff" stroke="#63b8ff" points="1391.45,-386.12 1395.5,-395.9 1398.44,-385.72 1391.45,-386.12"/>
</a>
</g>
</g>
<!-- Node30 -->
<g id="Node000030" class="node">
<title>Node30</title>
<g id="a_Node000030"><a xlink:href="visualization_8cpp.html" target="_top" xlink:title=" ">
<polygon fill="white" stroke="#666666" points="1631.29,-354.5 1449.29,-354.5 1449.29,-335.5 1631.29,-335.5 1631.29,-354.5"/>
<text text-anchor="middle" x="1540.29" y="-342.5" font-family="Helvetica,sans-Serif" font-size="10.00">src/visualization/visualization.cpp</text>
</a>
</g>
</g>
<!-- Node2&#45;&gt;Node30 -->
<g id="edge50_Node000002_Node000030" class="edge">
<title>Node2&#45;&gt;Node30</title>
<g id="a_edge50_Node000002_Node000030"><a xlink:title=" ">
<path fill="none" stroke="#63b8ff" d="M1437.29,-391.78C1464.82,-379.54 1499.83,-363.98 1521.13,-354.52"/>
<polygon fill="#63b8ff" stroke="#63b8ff" points="1435.61,-388.7 1427.89,-395.95 1438.45,-395.09 1435.61,-388.7"/>
</a>
</g>
</g>
<!-- Node3&#45;&gt;Node4 -->
<g id="edge3_Node000003_Node000004" class="edge">
<title>Node3&#45;&gt;Node4</title>
<g id="a_edge3_Node000003_Node000004"><a xlink:title=" ">
<path fill="none" stroke="#63b8ff" d="M878.42,-341.32C749.79,-335.51 466.79,-320.14 373.29,-294 309.36,-276.13 274.36,-284.37 239.29,-228 232.25,-216.68 230.43,-207.96 239.29,-198 262.16,-172.29 474.48,-157.61 590.09,-151.45"/>
<polygon fill="#63b8ff" stroke="#63b8ff" points="878.38,-344.82 888.52,-341.77 878.69,-337.83 878.38,-344.82"/>
</a>
</g>
</g>
<!-- Node3&#45;&gt;Node6 -->
<g id="edge5_Node000003_Node000006" class="edge">
<title>Node3&#45;&gt;Node6</title>
<g id="a_edge5_Node000003_Node000006"><a xlink:title=" ">
<path fill="none" stroke="#63b8ff" d="M1008.32,-342.46C1097.52,-339.09 1262.29,-328.34 1398.29,-294 1432.7,-285.31 1438.38,-274.47 1472.29,-264 1544.43,-241.74 1590.7,-286.6 1638.29,-228 1669.45,-189.63 1653.72,-125 1644.46,-96.38"/>
<polygon fill="#63b8ff" stroke="#63b8ff" points="1007.95,-338.97 998.08,-342.83 1008.2,-345.97 1007.95,-338.97"/>
</a>
</g>
</g>
<!-- Node8 -->
<g id="Node000008" class="node">
<title>Node8</title>
<g id="a_Node000008"><a xlink:href="element__window_8h.html" target="_top" xlink:title=" ">
<polygon fill="white" stroke="#666666" points="1005.79,-294 880.79,-294 880.79,-264 1005.79,-264 1005.79,-294"/>
<text text-anchor="start" x="888.79" y="-282" font-family="Helvetica,sans-Serif" font-size="10.00">include/user_interface</text>
<text text-anchor="middle" x="943.29" y="-271" font-family="Helvetica,sans-Serif" font-size="10.00">/element_window.h</text>
</a>
</g>
</g>
<!-- Node3&#45;&gt;Node8 -->
<g id="edge7_Node000003_Node000008" class="edge">
<title>Node3&#45;&gt;Node8</title>
<g id="a_edge7_Node000003_Node000008"><a xlink:title=" ">
<path fill="none" stroke="#63b8ff" d="M943.29,-319.54C943.29,-310.96 943.29,-301.61 943.29,-294.16"/>
<polygon fill="#63b8ff" stroke="#63b8ff" points="939.79,-319.8 943.29,-329.8 946.79,-319.8 939.79,-319.8"/>
</a>
</g>
</g>
<!-- Node9 -->
<g id="Node000009" class="node">
<title>Node9</title>
<g id="a_Node000009"><a xlink:href="node__graph__window_8h.html" target="_top" xlink:title=" ">
<polygon fill="white" stroke="#666666" points="1266.29,-228 1138.29,-228 1138.29,-198 1266.29,-198 1266.29,-228"/>
<text text-anchor="start" x="1146.29" y="-216" font-family="Helvetica,sans-Serif" font-size="10.00">include/user_interface</text>
<text text-anchor="middle" x="1202.29" y="-205" font-family="Helvetica,sans-Serif" font-size="10.00">/node_graph_window.h</text>
</a>
</g>
</g>
<!-- Node3&#45;&gt;Node9 -->
<g id="edge29_Node000003_Node000009" class="edge">
<title>Node3&#45;&gt;Node9</title>
<g id="a_edge29_Node000003_Node000009"><a xlink:title=" ">
<path fill="none" stroke="#63b8ff" d="M1008.12,-339.99C1110.48,-333 1300.08,-317.08 1320.29,-294 1345.57,-265.14 1296.98,-241.9 1254.71,-228.06"/>
<polygon fill="#63b8ff" stroke="#63b8ff" points="1007.64,-336.52 997.9,-340.68 1008.11,-343.5 1007.64,-336.52"/>
</a>
</g>
</g>
<!-- Node11 -->
<g id="Node000011" class="node">
<title>Node11</title>
<g id="a_Node000011"><a xlink:href="static__layout__window_8cpp.html" target="_top" xlink:title=" ">
<polygon fill="white" stroke="#666666" points="1042.79,-96 897.79,-96 897.79,-66 1042.79,-66 1042.79,-96"/>
<text text-anchor="start" x="905.79" y="-84" font-family="Helvetica,sans-Serif" font-size="10.00">src/user_interface</text>
<text text-anchor="middle" x="970.29" y="-73" font-family="Helvetica,sans-Serif" font-size="10.00">/static_layout_window.cpp</text>
</a>
</g>
</g>
<!-- Node3&#45;&gt;Node11 -->
<g id="edge39_Node000003_Node000011" class="edge">
<title>Node3&#45;&gt;Node11</title>
<g id="a_edge39_Node000003_Node000011"><a xlink:title=" ">
<path fill="none" stroke="#63b8ff" d="M901.61,-324.74C889.62,-316.99 877.99,-306.8 871.29,-294 865.11,-282.19 864.08,-275.21 871.29,-264 892.17,-231.55 927.26,-258.96 950.29,-228 980.07,-187.97 976.09,-124.21 972.5,-96.1"/>
<polygon fill="#63b8ff" stroke="#63b8ff" points="899.96,-327.82 910.34,-329.95 903.55,-321.82 899.96,-327.82"/>
</a>
</g>
</g>
<!-- Node14 -->
<g id="Node000014" class="node">
<title>Node14</title>
<g id="a_Node000014"><a xlink:href="field__metrics__window_8h.html" target="_top" xlink:title=" ">
<polygon fill="white" stroke="#666666" points="754.29,-294 620.29,-294 620.29,-264 754.29,-264 754.29,-294"/>
<text text-anchor="start" x="628.29" y="-282" font-family="Helvetica,sans-Serif" font-size="10.00">include/user_interface</text>
<text text-anchor="middle" x="687.29" y="-271" font-family="Helvetica,sans-Serif" font-size="10.00">/field_metrics_window.h</text>
</a>
</g>
</g>
<!-- Node3&#45;&gt;Node14 -->
<g id="edge17_Node000003_Node000014" class="edge">
<title>Node3&#45;&gt;Node14</title>
<g id="a_edge17_Node000003_Node000014"><a xlink:title=" ">
<path fill="none" stroke="#63b8ff" d="M878.91,-327.91C837.26,-317.49 783.54,-304.06 743.58,-294.07"/>
<polygon fill="#63b8ff" stroke="#63b8ff" points="878.14,-331.32 888.69,-330.35 879.84,-324.53 878.14,-331.32"/>
</a>
</g>
</g>
<!-- Node16 -->
<g id="Node000016" class="node">
<title>Node16</title>
<g id="a_Node000016"><a xlink:href="log__window_8h.html" target="_top" xlink:title=" ">
<polygon fill="white" stroke="#666666" points="572.79,-294 447.79,-294 447.79,-264 572.79,-264 572.79,-294"/>
<text text-anchor="start" x="455.79" y="-282" font-family="Helvetica,sans-Serif" font-size="10.00">include/user_interface</text>
<text text-anchor="middle" x="510.29" y="-271" font-family="Helvetica,sans-Serif" font-size="10.00">/log_window.h</text>
</a>
</g>
</g>
<!-- Node3&#45;&gt;Node16 -->
<g id="edge20_Node000003_Node000016" class="edge">
<title>Node3&#45;&gt;Node16</title>
<g id="a_edge20_Node000003_Node000016"><a xlink:title=" ">
<path fill="none" stroke="#63b8ff" d="M878.45,-334.42C795.99,-322.23 654.56,-301.32 573.09,-289.28"/>
<polygon fill="#63b8ff" stroke="#63b8ff" points="878.05,-337.89 888.45,-335.89 879.07,-330.97 878.05,-337.89"/>
</a>
</g>
</g>
<!-- Node17 -->
<g id="Node000017" class="node">
<title>Node17</title>
<g id="a_Node000017"><a xlink:href="logger_8cpp.html" target="_top" xlink:title=" ">
<polygon fill="white" stroke="#666666" points="359.79,-222.5 248.79,-222.5 248.79,-203.5 359.79,-203.5 359.79,-222.5"/>
<text text-anchor="middle" x="304.29" y="-210.5" font-family="Helvetica,sans-Serif" font-size="10.00">src/tools/logger.cpp</text>
</a>
</g>
</g>
<!-- Node3&#45;&gt;Node17 -->
<g id="edge38_Node000003_Node000017" class="edge">
<title>Node3&#45;&gt;Node17</title>
<g id="a_edge38_Node000003_Node000017"><a xlink:title=" ">
<path fill="none" stroke="#63b8ff" d="M878.48,-341.1C761.18,-335.28 518.4,-320.41 438.29,-294 388.12,-277.46 336.63,-239.7 314.94,-222.64"/>
<polygon fill="#63b8ff" stroke="#63b8ff" points="878.59,-344.61 888.75,-341.61 878.93,-337.62 878.59,-344.61"/>
</a>
</g>
</g>
<!-- Node19 -->
<g id="Node000019" class="node">
<title>Node19</title>
<g id="a_Node000019"><a xlink:href="main__menu__bar_8h.html" target="_top" xlink:title=" ">
<polygon fill="white" stroke="#666666" points="1629.79,-228 1504.79,-228 1504.79,-198 1629.79,-198 1629.79,-228"/>
<text text-anchor="start" x="1512.79" y="-216" font-family="Helvetica,sans-Serif" font-size="10.00">include/user_interface</text>
<text text-anchor="middle" x="1567.29" y="-205" font-family="Helvetica,sans-Serif" font-size="10.00">/main_menu_bar.h</text>
</a>
</g>
</g>
<!-- Node3&#45;&gt;Node19 -->
<g id="edge25_Node000003_Node000019" class="edge">
<title>Node3&#45;&gt;Node19</title>
<g id="a_edge25_Node000003_Node000019"><a xlink:title=" ">
<path fill="none" stroke="#63b8ff" d="M1008.19,-339.98C1087.07,-334.14 1223.83,-320.92 1338.29,-294 1375.5,-285.25 1475.05,-248.69 1529.85,-228.16"/>
<polygon fill="#63b8ff" stroke="#63b8ff" points="1007.64,-336.51 997.92,-340.73 1008.15,-343.5 1007.64,-336.51"/>
</a>
</g>
</g>
<!-- Node3&#45;&gt;Node21 -->
<g id="edge30_Node000003_Node000021" class="edge">
<title>Node3&#45;&gt;Node21</title>
<g id="a_edge30_Node000003_Node000021"><a xlink:title=" ">
<path fill="none" stroke="#63b8ff" d="M878.47,-342C749.87,-337.49 453.52,-324.48 206.29,-294 201.79,-293.44 197.15,-292.8 192.48,-292.1"/>
<polygon fill="#63b8ff" stroke="#63b8ff" points="878.43,-345.5 888.55,-342.34 878.67,-338.5 878.43,-345.5"/>
</a>
</g>
</g>
<!-- Node23 -->
<g id="Node000023" class="node">
<title>Node23</title>
<g id="a_Node000023"><a xlink:href="simulation__window_8h.html" target="_top" xlink:title=" ">
<polygon fill="white" stroke="#666666" points="941.79,-228 816.79,-228 816.79,-198 941.79,-198 941.79,-228"/>
<text text-anchor="start" x="824.79" y="-216" font-family="Helvetica,sans-Serif" font-size="10.00">include/user_interface</text>
<text text-anchor="middle" x="879.29" y="-205" font-family="Helvetica,sans-Serif" font-size="10.00">/simulation_window.h</text>
</a>
</g>
</g>
<!-- Node3&#45;&gt;Node23 -->
<g id="edge33_Node000003_Node000023" class="edge">
<title>Node3&#45;&gt;Node23</title>
<g id="a_edge33_Node000003_Node000023"><a xlink:title=" ">
<path fill="none" stroke="#63b8ff" d="M879.12,-327.02C863.07,-319.57 847.75,-308.98 838.29,-294 824.29,-271.83 846.33,-244.31 863.13,-228"/>
<polygon fill="#63b8ff" stroke="#63b8ff" points="878.04,-330.36 888.61,-331.04 880.77,-323.92 878.04,-330.36"/>
</a>
</g>
</g>
<!-- Node25 -->
<g id="Node000025" class="node">
<title>Node25</title>
<g id="a_Node000025"><a xlink:href="application_8cpp.html" target="_top" xlink:title=" ">
<polygon fill="white" stroke="#666666" points="1188.79,-288.5 1023.79,-288.5 1023.79,-269.5 1188.79,-269.5 1188.79,-288.5"/>
<text text-anchor="middle" x="1106.29" y="-276.5" font-family="Helvetica,sans-Serif" font-size="10.00">src/application/application.cpp</text>
</a>
</g>
</g>
<!-- Node3&#45;&gt;Node25 -->
<g id="edge37_Node000003_Node000025" class="edge">
<title>Node3&#45;&gt;Node25</title>
<g id="a_edge37_Node000003_Node000025"><a xlink:title=" ">
<path fill="none" stroke="#63b8ff" d="M988.48,-326.26C1019.82,-313.95 1060.18,-298.11 1084.6,-288.52"/>
<polygon fill="#63b8ff" stroke="#63b8ff" points="987.09,-323.04 979.06,-329.95 989.65,-329.56 987.09,-323.04"/>
</a>
</g>
</g>
<!-- Node26 -->
<g id="Node000026" class="node">
<title>Node26</title>
<g id="a_Node000026"><a xlink:href="widgets_8cpp.html" target="_top" xlink:title=" ">
<polygon fill="white" stroke="#666666" points="1311.29,-294 1207.29,-294 1207.29,-264 1311.29,-264 1311.29,-294"/>
<text text-anchor="start" x="1215.29" y="-282" font-family="Helvetica,sans-Serif" font-size="10.00">src/user_interface</text>
<text text-anchor="middle" x="1259.29" y="-271" font-family="Helvetica,sans-Serif" font-size="10.00">/widgets.cpp</text>
</a>
</g>
</g>
<!-- Node3&#45;&gt;Node26 -->
<g id="edge40_Node000003_Node000026" class="edge">
<title>Node3&#45;&gt;Node26</title>
<g id="a_edge40_Node000003_Node000026"><a xlink:title=" ">
<path fill="none" stroke="#63b8ff" d="M1007.86,-331.8C1059.25,-321.97 1132.98,-307.59 1197.29,-294 1200.53,-293.32 1203.86,-292.6 1207.22,-291.87"/>
<polygon fill="#63b8ff" stroke="#63b8ff" points="1007.05,-328.39 997.88,-333.71 1008.36,-335.27 1007.05,-328.39"/>
</a>
</g>
</g>
<!-- Node3&#45;&gt;Node27 -->
<g id="edge41_Node000003_Node000027" class="edge">
<title>Node3&#45;&gt;Node27</title>
<g id="a_edge41_Node000003_Node000027"><a xlink:title=" ">
<path fill="none" stroke="#63b8ff" d="M1008.26,-338.98C1107.41,-331.04 1302.4,-314.4 1467.29,-294 1480.12,-292.41 1493.91,-290.45 1506.82,-288.5"/>
<polygon fill="#63b8ff" stroke="#63b8ff" points="1007.79,-335.5 998.09,-339.79 1008.34,-342.48 1007.79,-335.5"/>
</a>
</g>
</g>
<!-- Node5 -->
<g id="Node000005" class="node">
<title>Node5</title>
<g id="a_Node000005"><a xlink:href="dynamic-neural-field-composer-dynamic_8cpp.html" target="_top" xlink:title=" ">
<polygon fill="white" stroke="#666666" points="743.79,-96 584.79,-96 584.79,-66 743.79,-66 743.79,-96"/>
<text text-anchor="start" x="592.79" y="-84" font-family="Helvetica,sans-Serif" font-size="10.00">src/dynamic&#45;neural</text>
<text text-anchor="middle" x="664.29" y="-73" font-family="Helvetica,sans-Serif" font-size="10.00">&#45;field&#45;composer&#45;dynamic.cpp</text>
</a>
</g>
</g>
<!-- Node4&#45;&gt;Node5 -->
<g id="edge4_Node000004_Node000005" class="edge">
<title>Node4&#45;&gt;Node5</title>
<g id="a_edge4_Node000004_Node000005"><a xlink:title=" ">
<path fill="none" stroke="#63b8ff" d="M664.29,-121.54C664.29,-112.96 664.29,-103.61 664.29,-96.16"/>
<polygon fill="#63b8ff" stroke="#63b8ff" points="660.79,-121.8 664.29,-131.8 667.79,-121.8 660.79,-121.8"/>
</a>
</g>
</g>
<!-- Node7 -->
<g id="Node000007" class="node">
<title>Node7</title>
<g id="a_Node000007"><a xlink:href="dynamic-neural-field-composer-static_8cpp.html" target="_top" xlink:title=" ">
<polygon fill="white" stroke="#666666" points="1711.29,-30 1567.29,-30 1567.29,0 1711.29,0 1711.29,-30"/>
<text text-anchor="start" x="1575.29" y="-18" font-family="Helvetica,sans-Serif" font-size="10.00">src/dynamic&#45;neural</text>
<text text-anchor="middle" x="1639.29" y="-7" font-family="Helvetica,sans-Serif" font-size="10.00">&#45;field&#45;composer&#45;static.cpp</text>
</a>
</g>
</g>
<!-- Node6&#45;&gt;Node7 -->
<g id="edge6_Node000006_Node000007" class="edge">
<title>Node6&#45;&gt;Node7</title>
<g id="a_edge6_Node000006_Node000007"><a xlink:title=" ">
<path fill="none" stroke="#63b8ff" d="M1639.29,-55.54C1639.29,-46.96 1639.29,-37.61 1639.29,-30.16"/>
<polygon fill="#63b8ff" stroke="#63b8ff" points="1635.79,-55.8 1639.29,-65.8 1642.79,-55.8 1635.79,-55.8"/>
</a>
</g>
</g>
<!-- Node8&#45;&gt;Node4 -->
<g id="edge8_Node000008_Node000004" class="edge">
<title>Node8&#45;&gt;Node4</title>
<g id="a_edge8_Node000008_Node000004"><a xlink:title=" ">
<path fill="none" stroke="#63b8ff" d="M884.63,-260.78C859.99,-252.46 831.5,-241.35 807.29,-228 788.14,-217.44 786.91,-209.47 768.29,-198 745.77,-184.13 718.83,-171.27 698.01,-162.07"/>
<polygon fill="#63b8ff" stroke="#63b8ff" points="883.62,-264.13 894.21,-263.95 885.82,-257.49 883.62,-264.13"/>
</a>
</g>
</g>
<!-- Node8&#45;&gt;Node9 -->
<g id="edge9_Node000008_Node000009" class="edge">
<title>Node8&#45;&gt;Node9</title>
<g id="a_edge9_Node000008_Node000009"><a xlink:title=" ">
<path fill="none" stroke="#63b8ff" d="M1010,-261.52C1052,-251.14 1105.64,-237.88 1145.59,-228.01"/>
<polygon fill="#63b8ff" stroke="#63b8ff" points="1009,-258.16 1000.13,-263.95 1010.68,-264.95 1009,-258.16"/>
</a>
</g>
</g>
<!-- Node8&#45;&gt;Node10 -->
<g id="edge15_Node000008_Node000010" class="edge">
<title>Node8&#45;&gt;Node10</title>
<g id="a_edge15_Node000008_Node000010"><a xlink:title=" ">
<path fill="none" stroke="#63b8ff" d="M1015.89,-264.06C1087.21,-255.87 1238.63,-270.07 1275.29,-228 1291.2,-209.75 1281.04,-179.63 1272.78,-162.02"/>
<polygon fill="#63b8ff" stroke="#63b8ff" points="1015.4,-260.59 1005.98,-265.44 1016.36,-267.52 1015.4,-260.59"/>
</a>
</g>
</g>
<!-- Node13 -->
<g id="Node000013" class="node">
<title>Node13</title>
<g id="a_Node000013"><a xlink:href="element__window_8cpp.html" target="_top" xlink:title=" ">
<polygon fill="white" stroke="#666666" points="1120.29,-228 998.29,-228 998.29,-198 1120.29,-198 1120.29,-228"/>
<text text-anchor="start" x="1006.29" y="-216" font-family="Helvetica,sans-Serif" font-size="10.00">src/user_interface</text>
<text text-anchor="middle" x="1059.29" y="-205" font-family="Helvetica,sans-Serif" font-size="10.00">/element_window.cpp</text>
</a>
</g>
</g>
<!-- Node8&#45;&gt;Node13 -->
<g id="edge16_Node000008_Node000013" class="edge">
<title>Node8&#45;&gt;Node13</title>
<g id="a_edge16_Node000008_Node000013"><a xlink:title=" ">
<path fill="none" stroke="#63b8ff" d="M977.79,-258.97C995.79,-249.03 1017.44,-237.09 1033.9,-228.01"/>
<polygon fill="#63b8ff" stroke="#63b8ff" points="975.81,-256.06 968.75,-263.95 979.2,-262.19 975.81,-256.06"/>
</a>
</g>
</g>
<!-- Node9&#45;&gt;Node4 -->
<g id="edge10_Node000009_Node000004" class="edge">
<title>Node9&#45;&gt;Node4</title>
<g id="a_edge10_Node000009_Node000004"><a xlink:title=" ">
<path fill="none" stroke="#63b8ff" d="M1128.22,-198.07C1073.6,-191.27 855.31,-168.14 738.52,-155.82"/>
<polygon fill="#63b8ff" stroke="#63b8ff" points="1127.88,-201.56 1138.25,-199.41 1128.8,-194.62 1127.88,-201.56"/>
</a>
</g>
</g>
<!-- Node9&#45;&gt;Node10 -->
<g id="edge11_Node000009_Node000010" class="edge">
<title>Node9&#45;&gt;Node10</title>
<g id="a_edge11_Node000009_Node000010"><a xlink:title=" ">
<path fill="none" stroke="#63b8ff" d="M1223.31,-190.65C1232.54,-181.27 1243.12,-170.53 1251.35,-162.16"/>
<polygon fill="#63b8ff" stroke="#63b8ff" points="1220.8,-188.21 1216.27,-197.8 1225.78,-193.13 1220.8,-188.21"/>
</a>
</g>
</g>
<!-- Node12 -->
<g id="Node000012" class="node">
<title>Node12</title>
<g id="a_Node000012"><a xlink:href="node__graph__window_8cpp.html" target="_top" xlink:title=" ">
<polygon fill="white" stroke="#666666" points="1179.79,-162 1040.79,-162 1040.79,-132 1179.79,-132 1179.79,-162"/>
<text text-anchor="start" x="1048.79" y="-150" font-family="Helvetica,sans-Serif" font-size="10.00">src/user_interface</text>
<text text-anchor="middle" x="1110.29" y="-139" font-family="Helvetica,sans-Serif" font-size="10.00">/node_graph_window.cpp</text>
</a>
</g>
</g>
<!-- Node9&#45;&gt;Node12 -->
<g id="edge14_Node000009_Node000012" class="edge">
<title>Node9&#45;&gt;Node12</title>
<g id="a_edge14_Node000009_Node000012"><a xlink:title=" ">
<path fill="none" stroke="#63b8ff" d="M1173.58,-192.03C1159.66,-182.34 1143.27,-170.94 1130.65,-162.16"/>
<polygon fill="#63b8ff" stroke="#63b8ff" points="1171.67,-194.96 1181.88,-197.8 1175.66,-189.21 1171.67,-194.96"/>
</a>
</g>
</g>
<!-- Node10&#45;&gt;Node6 -->
<g id="edge12_Node000010_Node000006" class="edge">
<title>Node10&#45;&gt;Node6</title>
<g id="a_edge12_Node000010_Node000006"><a xlink:title=" ">
<path fill="none" stroke="#63b8ff" d="M1342.52,-131.8C1427.65,-116.87 1514.54,-102.42 1572.67,-92.87"/>
<polygon fill="#63b8ff" stroke="#63b8ff" points="1341.66,-128.4 1332.42,-133.57 1342.87,-135.29 1341.66,-128.4"/>
</a>
</g>
</g>
<!-- Node10&#45;&gt;Node11 -->
<g id="edge13_Node000010_Node000011" class="edge">
<title>Node10&#45;&gt;Node11</title>
<g id="a_edge13_Node000010_Node000011"><a xlink:title=" ">
<path fill="none" stroke="#63b8ff" d="M1190.53,-129.78C1142.5,-119.36 1080.77,-105.97 1034.88,-96.01"/>
<polygon fill="#63b8ff" stroke="#63b8ff" points="1190.04,-133.26 1200.55,-131.95 1191.52,-126.41 1190.04,-133.26"/>
</a>
</g>
</g>
<!-- Node14&#45;&gt;Node4 -->
<g id="edge18_Node000014_Node000004" class="edge">
<title>Node14&#45;&gt;Node4</title>
<g id="a_edge18_Node000014_Node000004"><a xlink:title=" ">
<path fill="none" stroke="#63b8ff" d="M638.27,-258.95C625.23,-251.37 612.72,-241.23 605.29,-228 598.77,-216.37 599.69,-210.1 605.29,-198 612.29,-182.89 626.35,-170.69 638.99,-162.12"/>
<polygon fill="#63b8ff" stroke="#63b8ff" points="636.86,-262.16 647.32,-263.79 640.16,-255.99 636.86,-262.16"/>
</a>
</g>
</g>
<!-- Node15 -->
<g id="Node000015" class="node">
<title>Node15</title>
<g id="a_Node000015"><a xlink:href="field__metrics__window_8cpp.html" target="_top" xlink:title=" ">
<polygon fill="white" stroke="#666666" points="759.79,-228 614.79,-228 614.79,-198 759.79,-198 759.79,-228"/>
<text text-anchor="start" x="622.79" y="-216" font-family="Helvetica,sans-Serif" font-size="10.00">src/user_interface</text>
<text text-anchor="middle" x="687.29" y="-205" font-family="Helvetica,sans-Serif" font-size="10.00">/field_metrics_window.cpp</text>
</a>
</g>
</g>
<!-- Node14&#45;&gt;Node15 -->
<g id="edge19_Node000014_Node000015" class="edge">
<title>Node14&#45;&gt;Node15</title>
<g id="a_edge19_Node000014_Node000015"><a xlink:title=" ">
<path fill="none" stroke="#63b8ff" d="M687.29,-253.54C687.29,-244.96 687.29,-235.61 687.29,-228.16"/>
<polygon fill="#63b8ff" stroke="#63b8ff" points="683.79,-253.8 687.29,-263.8 690.79,-253.8 683.79,-253.8"/>
</a>
</g>
</g>
<!-- Node16&#45;&gt;Node4 -->
<g id="edge21_Node000016_Node000004" class="edge">
<title>Node16&#45;&gt;Node4</title>
<g id="a_edge21_Node000016_Node000004"><a xlink:title=" ">
<path fill="none" stroke="#63b8ff" d="M532.02,-256.87C549.28,-240.35 574.28,-217.08 597.29,-198 612.6,-185.31 630.71,-171.88 644.24,-162.14"/>
<polygon fill="#63b8ff" stroke="#63b8ff" points="529.44,-254.49 524.66,-263.94 534.29,-259.53 529.44,-254.49"/>
</a>
</g>
</g>
<!-- Node16&#45;&gt;Node11 -->
<g id="edge24_Node000016_Node000011" class="edge">
<title>Node16&#45;&gt;Node11</title>
<g id="a_edge24_Node000016_Node000011"><a xlink:title=" ">
<path fill="none" stroke="#63b8ff" d="M514.62,-254.12C522,-220.87 540.4,-161.38 581.29,-132 606.42,-113.95 791.94,-96.33 897.45,-87.62"/>
<polygon fill="#63b8ff" stroke="#63b8ff" points="511.19,-253.43 512.6,-263.93 518.05,-254.84 511.19,-253.43"/>
</a>
</g>
</g>
<!-- Node16&#45;&gt;Node17 -->
<g id="edge22_Node000016_Node000017" class="edge">
<title>Node16&#45;&gt;Node17</title>
<g id="a_edge22_Node000016_Node000017"><a xlink:title=" ">
<path fill="none" stroke="#63b8ff" d="M455.48,-260.97C415.56,-248.57 363.17,-232.29 331.71,-222.52"/>
<polygon fill="#63b8ff" stroke="#63b8ff" points="454.5,-264.33 465.09,-263.95 456.57,-257.65 454.5,-264.33"/>
</a>
</g>
</g>
<!-- Node18 -->
<g id="Node000018" class="node">
<title>Node18</title>
<g id="a_Node000018"><a xlink:href="log__window_8cpp.html" target="_top" xlink:title=" ">
<polygon fill="white" stroke="#666666" points="482.29,-228 378.29,-228 378.29,-198 482.29,-198 482.29,-228"/>
<text text-anchor="start" x="386.29" y="-216" font-family="Helvetica,sans-Serif" font-size="10.00">src/user_interface</text>
<text text-anchor="middle" x="430.29" y="-205" font-family="Helvetica,sans-Serif" font-size="10.00">/log_window.cpp</text>
</a>
</g>
</g>
<!-- Node16&#45;&gt;Node18 -->
<g id="edge23_Node000016_Node000018" class="edge">
<title>Node16&#45;&gt;Node18</title>
<g id="a_edge23_Node000016_Node000018"><a xlink:title=" ">
<path fill="none" stroke="#63b8ff" d="M484.64,-257.48C472.69,-247.91 458.76,-236.77 448,-228.16"/>
<polygon fill="#63b8ff" stroke="#63b8ff" points="482.54,-260.28 492.54,-263.8 486.92,-254.82 482.54,-260.28"/>
</a>
</g>
</g>
<!-- Node19&#45;&gt;Node4 -->
<g id="edge26_Node000019_Node000004" class="edge">
<title>Node19&#45;&gt;Node4</title>
<g id="a_edge26_Node000019_Node000004"><a xlink:title=" ">
<path fill="none" stroke="#63b8ff" d="M1494.48,-202.07C1481.77,-200.55 1468.66,-199.12 1456.29,-198 1165.04,-171.69 1090.82,-185.09 799.29,-162 779.56,-160.44 758.24,-158.39 738.51,-156.35"/>
<polygon fill="#63b8ff" stroke="#63b8ff" points="1494.21,-205.56 1504.57,-203.3 1495.06,-198.61 1494.21,-205.56"/>
</a>
</g>
</g>
<!-- Node19&#45;&gt;Node6 -->
<g id="edge27_Node000019_Node000006" class="edge">
<title>Node19&#45;&gt;Node6</title>
<g id="a_edge27_Node000019_Node000006"><a xlink:title=" ">
<path fill="none" stroke="#63b8ff" d="M1583.55,-189.68C1589.44,-181.2 1595.95,-171.33 1601.29,-162 1614.06,-139.72 1626.34,-112.46 1633.34,-96.21"/>
<polygon fill="#63b8ff" stroke="#63b8ff" points="1580.63,-187.75 1577.71,-197.94 1586.34,-191.79 1580.63,-187.75"/>
</a>
</g>
</g>
<!-- Node20 -->
<g id="Node000020" class="node">
<title>Node20</title>
<g id="a_Node000020"><a xlink:href="main__menu__bar_8cpp.html" target="_top" xlink:title=" ">
<polygon fill="white" stroke="#666666" points="1592.29,-162 1474.29,-162 1474.29,-132 1592.29,-132 1592.29,-162"/>
<text text-anchor="start" x="1482.29" y="-150" font-family="Helvetica,sans-Serif" font-size="10.00">src/user_interface</text>
<text text-anchor="middle" x="1533.29" y="-139" font-family="Helvetica,sans-Serif" font-size="10.00">/main_menu_bar.cpp</text>
</a>
</g>
</g>
<!-- Node19&#45;&gt;Node20 -->
<g id="edge28_Node000019_Node000020" class="edge">
<title>Node19&#45;&gt;Node20</title>
<g id="a_edge28_Node000019_Node000020"><a xlink:title=" ">
<path fill="none" stroke="#63b8ff" d="M1555.05,-188.96C1550.3,-180 1545,-170.03 1540.82,-162.16"/>
<polygon fill="#63b8ff" stroke="#63b8ff" points="1551.96,-190.61 1559.75,-197.8 1558.15,-187.32 1551.96,-190.61"/>
</a>
</g>
</g>
<!-- Node21&#45;&gt;Node4 -->
<g id="edge31_Node000021_Node000004" class="edge">
<title>Node21&#45;&gt;Node4</title>
<g id="a_edge31_Node000021_Node000004"><a xlink:title=" ">
<path fill="none" stroke="#63b8ff" d="M143.35,-255.49C157.28,-236.68 179.8,-210.91 206.29,-198 272.09,-165.94 477.85,-154.17 589.86,-150.06"/>
<polygon fill="#63b8ff" stroke="#63b8ff" points="140.36,-253.65 137.39,-263.83 146.05,-257.72 140.36,-253.65"/>
</a>
</g>
</g>
<!-- Node22 -->
<g id="Node000022" class="node">
<title>Node22</title>
<g id="a_Node000022"><a xlink:href="plot__control__window_8cpp.html" target="_top" xlink:title=" ">
<polygon fill="white" stroke="#666666" points="154.29,-228 14.29,-228 14.29,-198 154.29,-198 154.29,-228"/>
<text text-anchor="start" x="22.29" y="-216" font-family="Helvetica,sans-Serif" font-size="10.00">src/user_interface</text>
<text text-anchor="middle" x="84.29" y="-205" font-family="Helvetica,sans-Serif" font-size="10.00">/plot_control_window.cpp</text>
</a>
</g>
</g>
<!-- Node21&#45;&gt;Node22 -->
<g id="edge32_Node000021_Node000022" class="edge">
<title>Node21&#45;&gt;Node22</title>
<g id="a_edge32_Node000021_Node000022"><a xlink:title=" ">
<path fill="none" stroke="#63b8ff" d="M112.84,-255.53C106.59,-246.43 99.55,-236.19 94.03,-228.16"/>
<polygon fill="#63b8ff" stroke="#63b8ff" points="109.98,-257.54 118.53,-263.8 115.75,-253.57 109.98,-257.54"/>
</a>
</g>
</g>
<!-- Node23&#45;&gt;Node4 -->
<g id="edge34_Node000023_Node000004" class="edge">
<title>Node23&#45;&gt;Node4</title>
<g id="a_edge34_Node000023_Node000004"><a xlink:title=" ">
<path fill="none" stroke="#63b8ff" d="M822.15,-194.99C787.55,-184.69 743.97,-171.72 711.37,-162.01"/>
<polygon fill="#63b8ff" stroke="#63b8ff" points="821.53,-198.46 832.11,-197.95 823.52,-191.75 821.53,-198.46"/>
</a>
</g>
</g>
<!-- Node23&#45;&gt;Node10 -->
<g id="edge35_Node000023_Node000010" class="edge">
<title>Node23&#45;&gt;Node10</title>
<g id="a_edge35_Node000023_Node000010"><a xlink:title=" ">
<path fill="none" stroke="#63b8ff" d="M952.26,-200.6C1014.92,-190.72 1107.62,-175.86 1188.29,-162 1191.51,-161.45 1194.79,-160.88 1198.11,-160.29"/>
<polygon fill="#63b8ff" stroke="#63b8ff" points="951.42,-197.19 942.08,-202.21 952.51,-204.11 951.42,-197.19"/>
</a>
</g>
</g>
<!-- Node24 -->
<g id="Node000024" class="node">
<title>Node24</title>
<g id="a_Node000024"><a xlink:href="simulation__window_8cpp.html" target="_top" xlink:title=" ">
<polygon fill="white" stroke="#666666" points="942.29,-162 808.29,-162 808.29,-132 942.29,-132 942.29,-162"/>
<text text-anchor="start" x="816.29" y="-150" font-family="Helvetica,sans-Serif" font-size="10.00">src/user_interface</text>
<text text-anchor="middle" x="875.29" y="-139" font-family="Helvetica,sans-Serif" font-size="10.00">/simulation_window.cpp</text>
</a>
</g>
</g>
<!-- Node23&#45;&gt;Node24 -->
<g id="edge36_Node000023_Node000024" class="edge">
<title>Node23&#45;&gt;Node24</title>
<g id="a_edge36_Node000023_Node000024"><a xlink:title=" ">
<path fill="none" stroke="#63b8ff" d="M877.76,-187.54C877.23,-178.96 876.64,-169.61 876.18,-162.16"/>
<polygon fill="#63b8ff" stroke="#63b8ff" points="874.29,-188.03 878.41,-197.8 881.27,-187.6 874.29,-188.03"/>
</a>
</g>
</g>
<!-- Node28&#45;&gt;Node4 -->
<g id="edge46_Node000028_Node000004" class="edge">
<title>Node28&#45;&gt;Node4</title>
<g id="a_edge46_Node000028_Node000004"><a xlink:title=" ">
<path fill="none" stroke="#63b8ff" d="M1312.28,-202.18C1299.95,-200.67 1287.26,-199.21 1275.29,-198 1064.22,-176.6 1010.61,-180.94 799.29,-162 779.58,-160.23 758.27,-158.12 738.53,-156.07"/>
<polygon fill="#63b8ff" stroke="#63b8ff" points="1312.18,-205.69 1322.53,-203.45 1313.04,-198.74 1312.18,-205.69"/>
</a>
</g>
</g>
<!-- Node28&#45;&gt;Node10 -->
<g id="edge47_Node000028_Node000010" class="edge">
<title>Node28&#45;&gt;Node10</title>
<g id="a_edge47_Node000028_Node000010"><a xlink:title=" ">
<path fill="none" stroke="#63b8ff" d="M1350.12,-193.24C1331.39,-183.25 1308.75,-171.18 1291.57,-162.01"/>
<polygon fill="#63b8ff" stroke="#63b8ff" points="1348.49,-196.34 1358.96,-197.95 1351.78,-190.16 1348.49,-196.34"/>
</a>
</g>
</g>
<!-- Node29 -->
<g id="Node000029" class="node">
<title>Node29</title>
<g id="a_Node000029"><a xlink:href="plots__window_8cpp.html" target="_top" xlink:title=" ">
<polygon fill="white" stroke="#666666" points="1456.29,-162 1350.29,-162 1350.29,-132 1456.29,-132 1456.29,-162"/>
<text text-anchor="start" x="1358.29" y="-150" font-family="Helvetica,sans-Serif" font-size="10.00">src/user_interface</text>
<text text-anchor="middle" x="1403.29" y="-139" font-family="Helvetica,sans-Serif" font-size="10.00">/plots_window.cpp</text>
</a>
</g>
</g>
<!-- Node28&#45;&gt;Node29 -->
<g id="edge48_Node000028_Node000029" class="edge">
<title>Node28&#45;&gt;Node29</title>
<g id="a_edge48_Node000028_Node000029"><a xlink:title=" ">
<path fill="none" stroke="#63b8ff" d="M1392.01,-188.11C1394.47,-179.38 1397.17,-169.78 1399.31,-162.16"/>
<polygon fill="#63b8ff" stroke="#63b8ff" points="1388.63,-187.22 1389.29,-197.8 1395.36,-189.12 1388.63,-187.22"/>
</a>
</g>
</g>
</g>
</svg>
