<?xml version="1.0" encoding="UTF-8" standalone="no"?>
<!DOCTYPE svg PUBLIC "-//W3C//DTD SVG 1.1//EN"
 "http://www.w3.org/Graphics/SVG/1.1/DTD/svg11.dtd">
<!-- Generated by graphviz version 2.43.0 (0)
 -->
<!-- Title: include/visualization/lineplot.h Pages: 1 -->
<svg width="1905pt" height="500pt"
 viewBox="0.00 0.00 1905.00 500.00" xmlns="http://www.w3.org/2000/svg" xmlns:xlink="http://www.w3.org/1999/xlink">
<g id="graph0" class="graph" transform="scale(1 1) rotate(0) translate(4 496)">
<title>include/visualization/lineplot.h</title>
<!-- Node1 -->
<g id="Node000001" class="node">
<title>Node1</title>
<g id="a_Node000001"><a xlink:title=" ">
<polygon fill="#999999" stroke="#666666" points="1186.5,-492 1069.5,-492 1069.5,-462 1186.5,-462 1186.5,-492"/>
<text text-anchor="start" x="1077.5" y="-480" font-family="Helvetica,sans-Serif" font-size="10.00">include/visualization</text>
<text text-anchor="middle" x="1128" y="-469" font-family="Helvetica,sans-Serif" font-size="10.00">/lineplot.h</text>
</a>
</g>
</g>
<!-- Node2 -->
<g id="Node000002" class="node">
<title>Node2</title>
<g id="a_Node000002"><a xlink:href="visualization_8h.html" target="_top" xlink:title=" ">
<polygon fill="white" stroke="#666666" points="848.5,-426 731.5,-426 731.5,-396 848.5,-396 848.5,-426"/>
<text text-anchor="start" x="739.5" y="-414" font-family="Helvetica,sans-Serif" font-size="10.00">include/visualization</text>
<text text-anchor="middle" x="790" y="-403" font-family="Helvetica,sans-Serif" font-size="10.00">/visualization.h</text>
</a>
</g>
</g>
<!-- Node1&#45;&gt;Node2 -->
<g id="edge1_Node000001_Node000002" class="edge">
<title>Node1&#45;&gt;Node2</title>
<g id="a_edge1_Node000001_Node000002"><a xlink:title=" ">
<path fill="none" stroke="#63b8ff" d="M1059.06,-462.95C997.17,-451.23 907.31,-434.21 848.77,-423.13"/>
<polygon fill="#63b8ff" stroke="#63b8ff" points="1058.65,-466.43 1069.12,-464.85 1059.95,-459.55 1058.65,-466.43"/>
</a>
</g>
</g>
<!-- Node27 -->
<g id="Node000027" class="node">
<title>Node27</title>
<g id="a_Node000027"><a xlink:href="lineplot_8cpp.html" target="_top" xlink:title=" ">
<polygon fill="white" stroke="#666666" points="1897,-288.5 1741,-288.5 1741,-269.5 1897,-269.5 1897,-288.5"/>
<text text-anchor="middle" x="1819" y="-276.5" font-family="Helvetica,sans-Serif" font-size="10.00">src/visualization/lineplot.cpp</text>
</a>
</g>
</g>
<!-- Node1&#45;&gt;Node27 -->
<g id="edge53_Node000001_Node000027" class="edge">
<title>Node1&#45;&gt;Node27</title>
<g id="a_edge53_Node000001_Node000027"><a xlink:title=" ">
<path fill="none" stroke="#63b8ff" d="M1196.97,-469.52C1305.06,-457.67 1519.52,-427.26 1689,-360 1736.54,-341.13 1786.29,-305.24 1807.89,-288.72"/>
<polygon fill="#63b8ff" stroke="#63b8ff" points="1196.42,-466.06 1186.85,-470.61 1197.17,-473.02 1196.42,-466.06"/>
</a>
</g>
</g>
<!-- Node3 -->
<g id="Node000003" class="node">
<title>Node3</title>
<g id="a_Node000003"><a xlink:href="application_8h.html" target="_top" xlink:title=" ">
<polygon fill="white" stroke="#666666" points="1009.5,-360 900.5,-360 900.5,-330 1009.5,-330 1009.5,-360"/>
<text text-anchor="start" x="908.5" y="-348" font-family="Helvetica,sans-Serif" font-size="10.00">include/application</text>
<text text-anchor="middle" x="955" y="-337" font-family="Helvetica,sans-Serif" font-size="10.00">/application.h</text>
</a>
</g>
</g>
<!-- Node2&#45;&gt;Node3 -->
<g id="edge2_Node000002_Node000003" class="edge">
<title>Node2&#45;&gt;Node3</title>
<g id="a_edge2_Node000002_Node000003"><a xlink:title=" ">
<path fill="none" stroke="#63b8ff" d="M835.57,-392.32C861.84,-382.14 894.39,-369.51 918.87,-360.01"/>
<polygon fill="#63b8ff" stroke="#63b8ff" points="834.27,-389.08 826.21,-395.95 836.8,-395.6 834.27,-389.08"/>
</a>
</g>
</g>
<!-- Node4 -->
<g id="Node000004" class="node">
<title>Node4</title>
<g id="a_Node000004"><a xlink:href="dynamic-neural-field-composer-dynamic_8h.html" target="_top" xlink:title=" ">
<polygon fill="white" stroke="#666666" points="806,-162 658,-162 658,-132 806,-132 806,-162"/>
<text text-anchor="start" x="666" y="-150" font-family="Helvetica,sans-Serif" font-size="10.00">include/dynamic&#45;neural</text>
<text text-anchor="middle" x="732" y="-139" font-family="Helvetica,sans-Serif" font-size="10.00">&#45;field&#45;composer&#45;dynamic.h</text>
</a>
</g>
</g>
<!-- Node2&#45;&gt;Node4 -->
<g id="edge44_Node000002_Node000004" class="edge">
<title>Node2&#45;&gt;Node4</title>
<g id="a_edge44_Node000002_Node000004"><a xlink:title=" ">
<path fill="none" stroke="#63b8ff" d="M721.08,-410.3C602.22,-406.61 361.14,-379.71 254,-228 246.31,-217.11 245.08,-207.91 254,-198 257.35,-194.28 524.55,-168.02 657.94,-155.12"/>
<polygon fill="#63b8ff" stroke="#63b8ff" points="721.06,-413.8 731.15,-410.57 721.25,-406.8 721.06,-413.8"/>
</a>
</g>
</g>
<!-- Node6 -->
<g id="Node000006" class="node">
<title>Node6</title>
<g id="a_Node000006"><a xlink:href="dynamic-neural-field-composer-static_8h.html" target="_top" xlink:title=" ">
<polygon fill="white" stroke="#666666" points="138.5,-96 5.5,-96 5.5,-66 138.5,-66 138.5,-96"/>
<text text-anchor="start" x="13.5" y="-84" font-family="Helvetica,sans-Serif" font-size="10.00">include/dynamic&#45;neural</text>
<text text-anchor="middle" x="72" y="-73" font-family="Helvetica,sans-Serif" font-size="10.00">&#45;field&#45;composer&#45;static.h</text>
</a>
</g>
</g>
<!-- Node2&#45;&gt;Node6 -->
<g id="edge45_Node000002_Node000006" class="edge">
<title>Node2&#45;&gt;Node6</title>
<g id="a_edge45_Node000002_Node000006"><a xlink:title=" ">
<path fill="none" stroke="#63b8ff" d="M721.3,-405.68C531.7,-392.83 15,-351.29 15,-280 15,-280 15,-280 15,-212 15,-166.66 44.45,-119.34 61.01,-96.3"/>
<polygon fill="#63b8ff" stroke="#63b8ff" points="721.22,-409.18 731.43,-406.36 721.69,-402.19 721.22,-409.18"/>
</a>
</g>
</g>
<!-- Node10 -->
<g id="Node000010" class="node">
<title>Node10</title>
<g id="a_Node000010"><a xlink:href="static__layout__window_8h.html" target="_top" xlink:title=" ">
<polygon fill="white" stroke="#666666" points="1247,-162 1113,-162 1113,-132 1247,-132 1247,-162"/>
<text text-anchor="start" x="1121" y="-150" font-family="Helvetica,sans-Serif" font-size="10.00">include/user_interface</text>
<text text-anchor="middle" x="1180" y="-139" font-family="Helvetica,sans-Serif" font-size="10.00">/static_layout_window.h</text>
</a>
</g>
</g>
<!-- Node2&#45;&gt;Node10 -->
<g id="edge51_Node000002_Node000010" class="edge">
<title>Node2&#45;&gt;Node10</title>
<g id="a_edge51_Node000002_Node000010"><a xlink:title=" ">
<path fill="none" stroke="#63b8ff" d="M858.64,-407.23C1047.33,-397.93 1565.87,-360.54 1656,-228 1724.57,-127.18 1900.59,-250.19 1256,-162 1253.08,-161.6 1250.09,-161.17 1247.08,-160.7"/>
<polygon fill="#63b8ff" stroke="#63b8ff" points="858.38,-403.74 848.56,-407.71 858.72,-410.73 858.38,-403.74"/>
</a>
</g>
</g>
<!-- Node21 -->
<g id="Node000021" class="node">
<title>Node21</title>
<g id="a_Node000021"><a xlink:href="plot__control__window_8h.html" target="_top" xlink:title=" ">
<polygon fill="white" stroke="#666666" points="651,-294 523,-294 523,-264 651,-264 651,-294"/>
<text text-anchor="start" x="531" y="-282" font-family="Helvetica,sans-Serif" font-size="10.00">include/user_interface</text>
<text text-anchor="middle" x="587" y="-271" font-family="Helvetica,sans-Serif" font-size="10.00">/plot_control_window.h</text>
</a>
</g>
</g>
<!-- Node2&#45;&gt;Node21 -->
<g id="edge46_Node000002_Node000021" class="edge">
<title>Node2&#45;&gt;Node21</title>
<g id="a_edge46_Node000002_Node000021"><a xlink:title=" ">
<path fill="none" stroke="#63b8ff" d="M732.11,-392.56C710.08,-384.49 685.4,-373.64 665,-360 637.26,-341.46 611.59,-311.72 597.72,-294.2"/>
<polygon fill="#63b8ff" stroke="#63b8ff" points="731.1,-395.92 741.69,-395.96 733.44,-389.32 731.1,-395.92"/>
</a>
</g>
</g>
<!-- Node28 -->
<g id="Node000028" class="node">
<title>Node28</title>
<g id="a_Node000028"><a xlink:href="plots__window_8h.html" target="_top" xlink:title=" ">
<polygon fill="white" stroke="#666666" points="584.5,-228 459.5,-228 459.5,-198 584.5,-198 584.5,-228"/>
<text text-anchor="start" x="467.5" y="-216" font-family="Helvetica,sans-Serif" font-size="10.00">include/user_interface</text>
<text text-anchor="middle" x="522" y="-205" font-family="Helvetica,sans-Serif" font-size="10.00">/plots_window.h</text>
</a>
</g>
</g>
<!-- Node2&#45;&gt;Node28 -->
<g id="edge47_Node000002_Node000028" class="edge">
<title>Node2&#45;&gt;Node28</title>
<g id="a_edge47_Node000002_Node000028"><a xlink:title=" ">
<path fill="none" stroke="#63b8ff" d="M775.22,-387.24C753.52,-355.48 710.12,-297.96 660,-264 635.95,-247.71 605.95,-236.01 580.08,-228.05"/>
<polygon fill="#63b8ff" stroke="#63b8ff" points="772.52,-389.5 781,-395.85 778.33,-385.59 772.52,-389.5"/>
</a>
</g>
</g>
<!-- Node30 -->
<g id="Node000030" class="node">
<title>Node30</title>
<g id="a_Node000030"><a xlink:href="visualization_8cpp.html" target="_top" xlink:title=" ">
<polygon fill="white" stroke="#666666" points="1210,-354.5 1028,-354.5 1028,-335.5 1210,-335.5 1210,-354.5"/>
<text text-anchor="middle" x="1119" y="-342.5" font-family="Helvetica,sans-Serif" font-size="10.00">src/visualization/visualization.cpp</text>
</a>
</g>
</g>
<!-- Node2&#45;&gt;Node30 -->
<g id="edge52_Node000002_Node000030" class="edge">
<title>Node2&#45;&gt;Node30</title>
<g id="a_edge52_Node000002_Node000030"><a xlink:title=" ">
<path fill="none" stroke="#63b8ff" d="M858.99,-396.58C924.03,-383.93 1019.56,-365.34 1074.9,-354.58"/>
<polygon fill="#63b8ff" stroke="#63b8ff" points="857.97,-393.21 848.82,-398.56 859.3,-400.08 857.97,-393.21"/>
</a>
</g>
</g>
<!-- Node3&#45;&gt;Node4 -->
<g id="edge3_Node000003_Node000004" class="edge">
<title>Node3&#45;&gt;Node4</title>
<g id="a_edge3_Node000003_Node000004"><a xlink:title=" ">
<path fill="none" stroke="#63b8ff" d="M934.02,-322.09C921.29,-306.04 909.08,-283.71 918,-264 928,-241.91 949,-250.09 959,-228 964.5,-215.85 967.35,-208.39 959,-198 939.98,-174.33 864.87,-161.21 806.19,-154.42"/>
<polygon fill="#63b8ff" stroke="#63b8ff" points="931.47,-324.51 940.61,-329.87 936.81,-319.98 931.47,-324.51"/>
</a>
</g>
</g>
<!-- Node3&#45;&gt;Node6 -->
<g id="edge5_Node000003_Node000006" class="edge">
<title>Node3&#45;&gt;Node6</title>
<g id="a_edge5_Node000003_Node000006"><a xlink:title=" ">
<path fill="none" stroke="#63b8ff" d="M890.11,-340.58C694.85,-329.59 122.98,-292.14 72,-228 41.24,-189.31 57.34,-124.85 66.76,-96.33"/>
<polygon fill="#63b8ff" stroke="#63b8ff" points="890.05,-344.08 900.23,-341.14 890.44,-337.09 890.05,-344.08"/>
</a>
</g>
</g>
<!-- Node8 -->
<g id="Node000008" class="node">
<title>Node8</title>
<g id="a_Node000008"><a xlink:href="element__window_8h.html" target="_top" xlink:title=" ">
<polygon fill="white" stroke="#666666" points="1434.5,-294 1309.5,-294 1309.5,-264 1434.5,-264 1434.5,-294"/>
<text text-anchor="start" x="1317.5" y="-282" font-family="Helvetica,sans-Serif" font-size="10.00">include/user_interface</text>
<text text-anchor="middle" x="1372" y="-271" font-family="Helvetica,sans-Serif" font-size="10.00">/element_window.h</text>
</a>
</g>
</g>
<!-- Node3&#45;&gt;Node8 -->
<g id="edge7_Node000003_Node000008" class="edge">
<title>Node3&#45;&gt;Node8</title>
<g id="a_edge7_Node000003_Node000008"><a xlink:title=" ">
<path fill="none" stroke="#63b8ff" d="M1019.92,-329.94C1142.61,-308.97 1176,-312.57 1295,-294 1299.7,-293.27 1304.55,-292.47 1309.43,-291.65"/>
<polygon fill="#63b8ff" stroke="#63b8ff" points="1019.01,-326.55 1009.75,-331.7 1020.2,-333.44 1019.01,-326.55"/>
</a>
</g>
</g>
<!-- Node9 -->
<g id="Node000009" class="node">
<title>Node9</title>
<g id="a_Node000009"><a xlink:href="node__graph__window_8h.html" target="_top" xlink:title=" ">
<polygon fill="white" stroke="#666666" points="1317,-228 1189,-228 1189,-198 1317,-198 1317,-228"/>
<text text-anchor="start" x="1197" y="-216" font-family="Helvetica,sans-Serif" font-size="10.00">include/user_interface</text>
<text text-anchor="middle" x="1253" y="-205" font-family="Helvetica,sans-Serif" font-size="10.00">/node_graph_window.h</text>
</a>
</g>
</g>
<!-- Node3&#45;&gt;Node9 -->
<g id="edge30_Node000003_Node000009" class="edge">
<title>Node3&#45;&gt;Node9</title>
<g id="a_edge30_Node000003_Node000009"><a xlink:title=" ">
<path fill="none" stroke="#63b8ff" d="M1019.67,-330.2C1082.65,-321.49 1208.77,-328.01 1242,-294 1258.95,-276.65 1258.01,-246.22 1255.63,-228.3"/>
<polygon fill="#63b8ff" stroke="#63b8ff" points="1019.08,-326.75 1009.77,-331.81 1020.2,-333.66 1019.08,-326.75"/>
</a>
</g>
</g>
<!-- Node11 -->
<g id="Node000011" class="node">
<title>Node11</title>
<g id="a_Node000011"><a xlink:href="static__layout__window_8cpp.html" target="_top" xlink:title=" ">
<polygon fill="white" stroke="#666666" points="1554.5,-96 1409.5,-96 1409.5,-66 1554.5,-66 1554.5,-96"/>
<text text-anchor="start" x="1417.5" y="-84" font-family="Helvetica,sans-Serif" font-size="10.00">src/user_interface</text>
<text text-anchor="middle" x="1482" y="-73" font-family="Helvetica,sans-Serif" font-size="10.00">/static_layout_window.cpp</text>
</a>
</g>
</g>
<!-- Node3&#45;&gt;Node11 -->
<g id="edge41_Node000003_Node000011" class="edge">
<title>Node3&#45;&gt;Node11</title>
<g id="a_edge41_Node000003_Node000011"><a xlink:title=" ">
<path fill="none" stroke="#63b8ff" d="M1019.81,-330.14C1178.31,-310.56 1572.79,-340.93 1656,-228 1681.34,-193.6 1686.83,-166.03 1661,-132 1647.78,-114.59 1598.41,-101.6 1554.86,-93.23"/>
<polygon fill="#63b8ff" stroke="#63b8ff" points="1019.16,-326.7 1009.72,-331.51 1020.1,-333.64 1019.16,-326.7"/>
</a>
</g>
</g>
<!-- Node14 -->
<g id="Node000014" class="node">
<title>Node14</title>
<g id="a_Node000014"><a xlink:href="field__metrics__window_8h.html" target="_top" xlink:title=" ">
<polygon fill="white" stroke="#666666" points="1647,-228 1513,-228 1513,-198 1647,-198 1647,-228"/>
<text text-anchor="start" x="1521" y="-216" font-family="Helvetica,sans-Serif" font-size="10.00">include/user_interface</text>
<text text-anchor="middle" x="1580" y="-205" font-family="Helvetica,sans-Serif" font-size="10.00">/field_metrics_window.h</text>
</a>
</g>
</g>
<!-- Node3&#45;&gt;Node14 -->
<g id="edge17_Node000003_Node000014" class="edge">
<title>Node3&#45;&gt;Node14</title>
<g id="a_edge17_Node000003_Node000014"><a xlink:title=" ">
<path fill="none" stroke="#63b8ff" d="M1019.67,-330.08C1207.97,-303.39 1265.78,-350.11 1443,-294 1489.21,-279.37 1536.64,-247.04 1561.76,-228.27"/>
<polygon fill="#63b8ff" stroke="#63b8ff" points="1019.11,-326.62 1009.73,-331.54 1020.13,-333.55 1019.11,-326.62"/>
</a>
</g>
</g>
<!-- Node16 -->
<g id="Node000016" class="node">
<title>Node16</title>
<g id="a_Node000016"><a xlink:href="log__window_8h.html" target="_top" xlink:title=" ">
<polygon fill="white" stroke="#666666" points="832.5,-294 707.5,-294 707.5,-264 832.5,-264 832.5,-294"/>
<text text-anchor="start" x="715.5" y="-282" font-family="Helvetica,sans-Serif" font-size="10.00">include/user_interface</text>
<text text-anchor="middle" x="770" y="-271" font-family="Helvetica,sans-Serif" font-size="10.00">/log_window.h</text>
</a>
</g>
</g>
<!-- Node3&#45;&gt;Node16 -->
<g id="edge21_Node000003_Node000016" class="edge">
<title>Node3&#45;&gt;Node16</title>
<g id="a_edge21_Node000003_Node000016"><a xlink:title=" ">
<path fill="none" stroke="#63b8ff" d="M904.67,-326.59C875.1,-316.36 838.2,-303.59 810.5,-294.01"/>
<polygon fill="#63b8ff" stroke="#63b8ff" points="903.81,-329.99 914.4,-329.95 906.09,-323.38 903.81,-329.99"/>
</a>
</g>
</g>
<!-- Node17 -->
<g id="Node000017" class="node">
<title>Node17</title>
<g id="a_Node000017"><a xlink:href="logger_8cpp.html" target="_top" xlink:title=" ">
<polygon fill="white" stroke="#666666" points="950.5,-222.5 839.5,-222.5 839.5,-203.5 950.5,-203.5 950.5,-222.5"/>
<text text-anchor="middle" x="895" y="-210.5" font-family="Helvetica,sans-Serif" font-size="10.00">src/tools/logger.cpp</text>
</a>
</g>
</g>
<!-- Node3&#45;&gt;Node17 -->
<g id="edge40_Node000003_Node000017" class="edge">
<title>Node3&#45;&gt;Node17</title>
<g id="a_edge40_Node000003_Node000017"><a xlink:title=" ">
<path fill="none" stroke="#63b8ff" d="M914.75,-324.7C902.99,-316.91 891.54,-306.72 885,-294 872.96,-270.6 884,-238.43 890.71,-222.98"/>
<polygon fill="#63b8ff" stroke="#63b8ff" points="912.95,-327.7 923.3,-329.94 916.61,-321.73 912.95,-327.7"/>
</a>
</g>
</g>
<!-- Node19 -->
<g id="Node000019" class="node">
<title>Node19</title>
<g id="a_Node000019"><a xlink:href="main__menu__bar_8h.html" target="_top" xlink:title=" ">
<polygon fill="white" stroke="#666666" points="206.5,-228 81.5,-228 81.5,-198 206.5,-198 206.5,-228"/>
<text text-anchor="start" x="89.5" y="-216" font-family="Helvetica,sans-Serif" font-size="10.00">include/user_interface</text>
<text text-anchor="middle" x="144" y="-205" font-family="Helvetica,sans-Serif" font-size="10.00">/main_menu_bar.h</text>
</a>
</g>
</g>
<!-- Node3&#45;&gt;Node19 -->
<g id="edge26_Node000003_Node000019" class="edge">
<title>Node3&#45;&gt;Node19</title>
<g id="a_edge26_Node000003_Node000019"><a xlink:title=" ">
<path fill="none" stroke="#63b8ff" d="M890.29,-338.71C804.08,-331.19 646.97,-315.86 514,-294 401.97,-275.59 272.65,-245.59 200.39,-228.04"/>
<polygon fill="#63b8ff" stroke="#63b8ff" points="890.18,-342.21 900.44,-339.58 890.78,-335.23 890.18,-342.21"/>
</a>
</g>
</g>
<!-- Node3&#45;&gt;Node21 -->
<g id="edge31_Node000003_Node000021" class="edge">
<title>Node3&#45;&gt;Node21</title>
<g id="a_edge31_Node000003_Node000021"><a xlink:title=" ">
<path fill="none" stroke="#63b8ff" d="M890.25,-332.74C822.99,-321.04 718.39,-302.85 651.29,-291.18"/>
<polygon fill="#63b8ff" stroke="#63b8ff" points="889.85,-336.22 900.3,-334.49 891.05,-329.33 889.85,-336.22"/>
</a>
</g>
</g>
<!-- Node23 -->
<g id="Node000023" class="node">
<title>Node23</title>
<g id="a_Node000023"><a xlink:href="simulation__window_8h.html" target="_top" xlink:title=" ">
<polygon fill="white" stroke="#666666" points="1170.5,-228 1045.5,-228 1045.5,-198 1170.5,-198 1170.5,-228"/>
<text text-anchor="start" x="1053.5" y="-216" font-family="Helvetica,sans-Serif" font-size="10.00">include/user_interface</text>
<text text-anchor="middle" x="1108" y="-205" font-family="Helvetica,sans-Serif" font-size="10.00">/simulation_window.h</text>
</a>
</g>
</g>
<!-- Node3&#45;&gt;Node23 -->
<g id="edge35_Node000003_Node000023" class="edge">
<title>Node3&#45;&gt;Node23</title>
<g id="a_edge35_Node000003_Node000023"><a xlink:title=" ">
<path fill="none" stroke="#63b8ff" d="M1019.75,-330.2C1078.77,-321.86 1195.94,-327.41 1224,-294 1248.31,-265.05 1201.02,-241.91 1159.71,-228.1"/>
<polygon fill="#63b8ff" stroke="#63b8ff" points="1019.07,-326.76 1009.78,-331.86 1020.22,-333.67 1019.07,-326.76"/>
</a>
</g>
</g>
<!-- Node25 -->
<g id="Node000025" class="node">
<title>Node25</title>
<g id="a_Node000025"><a xlink:href="application_8cpp.html" target="_top" xlink:title=" ">
<polygon fill="white" stroke="#666666" points="1092.5,-288.5 927.5,-288.5 927.5,-269.5 1092.5,-269.5 1092.5,-288.5"/>
<text text-anchor="middle" x="1010" y="-276.5" font-family="Helvetica,sans-Serif" font-size="10.00">src/application/application.cpp</text>
</a>
</g>
</g>
<!-- Node3&#45;&gt;Node25 -->
<g id="edge39_Node000003_Node000025" class="edge">
<title>Node3&#45;&gt;Node25</title>
<g id="a_edge39_Node000003_Node000025"><a xlink:title=" ">
<path fill="none" stroke="#63b8ff" d="M973.95,-321.94C983.72,-310.58 995.08,-297.36 1002.4,-288.84"/>
<polygon fill="#63b8ff" stroke="#63b8ff" points="971.07,-319.93 967.21,-329.8 976.38,-324.49 971.07,-319.93"/>
</a>
</g>
</g>
<!-- Node26 -->
<g id="Node000026" class="node">
<title>Node26</title>
<g id="a_Node000026"><a xlink:href="widgets_8cpp.html" target="_top" xlink:title=" ">
<polygon fill="white" stroke="#666666" points="1215,-294 1111,-294 1111,-264 1215,-264 1215,-294"/>
<text text-anchor="start" x="1119" y="-282" font-family="Helvetica,sans-Serif" font-size="10.00">src/user_interface</text>
<text text-anchor="middle" x="1163" y="-271" font-family="Helvetica,sans-Serif" font-size="10.00">/widgets.cpp</text>
</a>
</g>
</g>
<!-- Node3&#45;&gt;Node26 -->
<g id="edge42_Node000003_Node000026" class="edge">
<title>Node3&#45;&gt;Node26</title>
<g id="a_edge42_Node000003_Node000026"><a xlink:title=" ">
<path fill="none" stroke="#63b8ff" d="M1010.29,-326.99C1043.75,-316.69 1085.92,-303.72 1117.46,-294.01"/>
<polygon fill="#63b8ff" stroke="#63b8ff" points="1009.17,-323.67 1000.65,-329.95 1011.23,-330.36 1009.17,-323.67"/>
</a>
</g>
</g>
<!-- Node3&#45;&gt;Node27 -->
<g id="edge43_Node000003_Node000027" class="edge">
<title>Node3&#45;&gt;Node27</title>
<g id="a_edge43_Node000003_Node000027"><a xlink:title=" ">
<path fill="none" stroke="#63b8ff" d="M1019.99,-330.05C1333.08,-288.99 1416.9,-325.4 1727,-294 1740.66,-292.62 1755.4,-290.61 1768.98,-288.54"/>
<polygon fill="#63b8ff" stroke="#63b8ff" points="1019.16,-326.63 1009.71,-331.41 1020.08,-333.57 1019.16,-326.63"/>
</a>
</g>
</g>
<!-- Node5 -->
<g id="Node000005" class="node">
<title>Node5</title>
<g id="a_Node000005"><a xlink:href="dynamic-neural-field-composer-dynamic_8cpp.html" target="_top" xlink:title=" ">
<polygon fill="white" stroke="#666666" points="811.5,-96 652.5,-96 652.5,-66 811.5,-66 811.5,-96"/>
<text text-anchor="start" x="660.5" y="-84" font-family="Helvetica,sans-Serif" font-size="10.00">src/dynamic&#45;neural</text>
<text text-anchor="middle" x="732" y="-73" font-family="Helvetica,sans-Serif" font-size="10.00">&#45;field&#45;composer&#45;dynamic.cpp</text>
</a>
</g>
</g>
<!-- Node4&#45;&gt;Node5 -->
<g id="edge4_Node000004_Node000005" class="edge">
<title>Node4&#45;&gt;Node5</title>
<g id="a_edge4_Node000004_Node000005"><a xlink:title=" ">
<path fill="none" stroke="#63b8ff" d="M732,-121.54C732,-112.96 732,-103.61 732,-96.16"/>
<polygon fill="#63b8ff" stroke="#63b8ff" points="728.5,-121.8 732,-131.8 735.5,-121.8 728.5,-121.8"/>
</a>
</g>
</g>
<!-- Node7 -->
<g id="Node000007" class="node">
<title>Node7</title>
<g id="a_Node000007"><a xlink:href="dynamic-neural-field-composer-static_8cpp.html" target="_top" xlink:title=" ">
<polygon fill="white" stroke="#666666" points="144,-30 0,-30 0,0 144,0 144,-30"/>
<text text-anchor="start" x="8" y="-18" font-family="Helvetica,sans-Serif" font-size="10.00">src/dynamic&#45;neural</text>
<text text-anchor="middle" x="72" y="-7" font-family="Helvetica,sans-Serif" font-size="10.00">&#45;field&#45;composer&#45;static.cpp</text>
</a>
</g>
</g>
<!-- Node6&#45;&gt;Node7 -->
<g id="edge6_Node000006_Node000007" class="edge">
<title>Node6&#45;&gt;Node7</title>
<g id="a_edge6_Node000006_Node000007"><a xlink:title=" ">
<path fill="none" stroke="#63b8ff" d="M72,-55.54C72,-46.96 72,-37.61 72,-30.16"/>
<polygon fill="#63b8ff" stroke="#63b8ff" points="68.5,-55.8 72,-65.8 75.5,-55.8 68.5,-55.8"/>
</a>
</g>
</g>
<!-- Node8&#45;&gt;Node4 -->
<g id="edge8_Node000008_Node000004" class="edge">
<title>Node8&#45;&gt;Node4</title>
<g id="a_edge8_Node000008_Node000004"><a xlink:title=" ">
<path fill="none" stroke="#63b8ff" d="M1299.26,-271.11C1215.23,-262.46 1082.54,-246.5 1036,-228 1014.35,-219.39 1014.47,-207.06 993,-198 932.96,-172.67 859.71,-160.07 806.12,-153.86"/>
<polygon fill="#63b8ff" stroke="#63b8ff" points="1298.96,-274.6 1309.26,-272.13 1299.67,-267.63 1298.96,-274.6"/>
</a>
</g>
</g>
<!-- Node8&#45;&gt;Node9 -->
<g id="edge9_Node000008_Node000009" class="edge">
<title>Node8&#45;&gt;Node9</title>
<g id="a_edge9_Node000008_Node000009"><a xlink:title=" ">
<path fill="none" stroke="#63b8ff" d="M1336.87,-259.11C1318.35,-249.14 1296.01,-237.13 1279.05,-228.01"/>
<polygon fill="#63b8ff" stroke="#63b8ff" points="1335.42,-262.3 1345.88,-263.95 1338.74,-256.14 1335.42,-262.3"/>
</a>
</g>
</g>
<!-- Node8&#45;&gt;Node10 -->
<g id="edge15_Node000008_Node000010" class="edge">
<title>Node8&#45;&gt;Node10</title>
<g id="a_edge15_Node000008_Node000010"><a xlink:title=" ">
<path fill="none" stroke="#63b8ff" d="M1363.61,-254.12C1356.24,-236.36 1343.88,-212.74 1326,-198 1303.57,-179.51 1273.93,-167.71 1247.21,-160.25"/>
<polygon fill="#63b8ff" stroke="#63b8ff" points="1360.48,-255.74 1367.37,-263.78 1367,-253.2 1360.48,-255.74"/>
</a>
</g>
</g>
<!-- Node13 -->
<g id="Node000013" class="node">
<title>Node13</title>
<g id="a_Node000013"><a xlink:href="element__window_8cpp.html" target="_top" xlink:title=" ">
<polygon fill="white" stroke="#666666" points="1495,-228 1373,-228 1373,-198 1495,-198 1495,-228"/>
<text text-anchor="start" x="1381" y="-216" font-family="Helvetica,sans-Serif" font-size="10.00">src/user_interface</text>
<text text-anchor="middle" x="1434" y="-205" font-family="Helvetica,sans-Serif" font-size="10.00">/element_window.cpp</text>
</a>
</g>
</g>
<!-- Node8&#45;&gt;Node13 -->
<g id="edge16_Node000008_Node000013" class="edge">
<title>Node8&#45;&gt;Node13</title>
<g id="a_edge16_Node000008_Node000013"><a xlink:title=" ">
<path fill="none" stroke="#63b8ff" d="M1392.96,-256.37C1401.97,-247.06 1412.26,-236.44 1420.28,-228.16"/>
<polygon fill="#63b8ff" stroke="#63b8ff" points="1390.2,-254.18 1385.76,-263.8 1395.23,-259.05 1390.2,-254.18"/>
</a>
</g>
</g>
<!-- Node9&#45;&gt;Node4 -->
<g id="edge10_Node000009_Node000004" class="edge">
<title>Node9&#45;&gt;Node4</title>
<g id="a_edge10_Node000009_Node000004"><a xlink:title=" ">
<path fill="none" stroke="#63b8ff" d="M1178.97,-198.08C1041.16,-177.63 892.96,-162.64 806.18,-154.57"/>
<polygon fill="#63b8ff" stroke="#63b8ff" points="1178.47,-201.54 1188.88,-199.56 1179.5,-194.62 1178.47,-201.54"/>
</a>
</g>
</g>
<!-- Node9&#45;&gt;Node10 -->
<g id="edge11_Node000009_Node000010" class="edge">
<title>Node9&#45;&gt;Node10</title>
<g id="a_edge11_Node000009_Node000010"><a xlink:title=" ">
<path fill="none" stroke="#63b8ff" d="M1229.28,-191.2C1218.44,-181.7 1205.88,-170.69 1196.16,-162.16"/>
<polygon fill="#63b8ff" stroke="#63b8ff" points="1226.97,-193.84 1236.8,-197.8 1231.59,-188.57 1226.97,-193.84"/>
</a>
</g>
</g>
<!-- Node12 -->
<g id="Node000012" class="node">
<title>Node12</title>
<g id="a_Node000012"><a xlink:href="node__graph__window_8cpp.html" target="_top" xlink:title=" ">
<polygon fill="white" stroke="#666666" points="1404.5,-162 1265.5,-162 1265.5,-132 1404.5,-132 1404.5,-162"/>
<text text-anchor="start" x="1273.5" y="-150" font-family="Helvetica,sans-Serif" font-size="10.00">src/user_interface</text>
<text text-anchor="middle" x="1335" y="-139" font-family="Helvetica,sans-Serif" font-size="10.00">/node_graph_window.cpp</text>
</a>
</g>
</g>
<!-- Node9&#45;&gt;Node12 -->
<g id="edge14_Node000009_Node000012" class="edge">
<title>Node9&#45;&gt;Node12</title>
<g id="a_edge14_Node000009_Node000012"><a xlink:title=" ">
<path fill="none" stroke="#63b8ff" d="M1279.29,-191.48C1291.55,-181.91 1305.82,-170.77 1316.85,-162.16"/>
<polygon fill="#63b8ff" stroke="#63b8ff" points="1276.93,-188.88 1271.2,-197.8 1281.24,-194.4 1276.93,-188.88"/>
</a>
</g>
</g>
<!-- Node10&#45;&gt;Node6 -->
<g id="edge12_Node000010_Node000006" class="edge">
<title>Node10&#45;&gt;Node6</title>
<g id="a_edge12_Node000010_Node000006"><a xlink:title=" ">
<path fill="none" stroke="#63b8ff" d="M1102.85,-131.98C733.5,-89.89 301.67,-83.17 138.66,-82.15"/>
<polygon fill="#63b8ff" stroke="#63b8ff" points="1102.6,-135.48 1112.94,-133.14 1103.4,-128.52 1102.6,-135.48"/>
</a>
</g>
</g>
<!-- Node10&#45;&gt;Node11 -->
<g id="edge13_Node000010_Node000011" class="edge">
<title>Node10&#45;&gt;Node11</title>
<g id="a_edge13_Node000010_Node000011"><a xlink:title=" ">
<path fill="none" stroke="#63b8ff" d="M1256.23,-129.84C1305.44,-119.42 1368.81,-105.99 1415.88,-96.01"/>
<polygon fill="#63b8ff" stroke="#63b8ff" points="1255.33,-126.46 1246.28,-131.95 1256.78,-133.31 1255.33,-126.46"/>
</a>
</g>
</g>
<!-- Node14&#45;&gt;Node4 -->
<g id="edge18_Node000014_Node000004" class="edge">
<title>Node14&#45;&gt;Node4</title>
<g id="a_edge18_Node000014_Node000004"><a xlink:title=" ">
<path fill="none" stroke="#63b8ff" d="M1502.85,-198.34C1428.79,-192.66 984.65,-164.18 806.12,-152.74"/>
<polygon fill="#63b8ff" stroke="#63b8ff" points="1502.67,-201.83 1512.93,-199.2 1503.27,-194.86 1502.67,-201.83"/>
</a>
</g>
</g>
<!-- Node14&#45;&gt;Node10 -->
<g id="edge19_Node000014_Node000010" class="edge">
<title>Node14&#45;&gt;Node10</title>
<g id="a_edge19_Node000014_Node000010"><a xlink:title=" ">
<path fill="none" stroke="#63b8ff" d="M1503.01,-197.88C1392.44,-179.9 1362.79,-179.58 1256,-162 1253.09,-161.52 1250.11,-161.02 1247.11,-160.51"/>
<polygon fill="#63b8ff" stroke="#63b8ff" points="1502.45,-201.33 1512.89,-199.49 1503.58,-194.42 1502.45,-201.33"/>
</a>
</g>
</g>
<!-- Node15 -->
<g id="Node000015" class="node">
<title>Node15</title>
<g id="a_Node000015"><a xlink:href="field__metrics__window_8cpp.html" target="_top" xlink:title=" ">
<polygon fill="white" stroke="#666666" points="1652.5,-162 1507.5,-162 1507.5,-132 1652.5,-132 1652.5,-162"/>
<text text-anchor="start" x="1515.5" y="-150" font-family="Helvetica,sans-Serif" font-size="10.00">src/user_interface</text>
<text text-anchor="middle" x="1580" y="-139" font-family="Helvetica,sans-Serif" font-size="10.00">/field_metrics_window.cpp</text>
</a>
</g>
</g>
<!-- Node14&#45;&gt;Node15 -->
<g id="edge20_Node000014_Node000015" class="edge">
<title>Node14&#45;&gt;Node15</title>
<g id="a_edge20_Node000014_Node000015"><a xlink:title=" ">
<path fill="none" stroke="#63b8ff" d="M1580,-187.54C1580,-178.96 1580,-169.61 1580,-162.16"/>
<polygon fill="#63b8ff" stroke="#63b8ff" points="1576.5,-187.8 1580,-197.8 1583.5,-187.8 1576.5,-187.8"/>
</a>
</g>
</g>
<!-- Node16&#45;&gt;Node4 -->
<g id="edge22_Node000016_Node000004" class="edge">
<title>Node16&#45;&gt;Node4</title>
<g id="a_edge22_Node000016_Node000004"><a xlink:title=" ">
<path fill="none" stroke="#63b8ff" d="M707.52,-259.74C692.71,-252.33 678.7,-242.08 670,-228 662.99,-216.66 664.25,-210.03 670,-198 677.34,-182.66 691.94,-170.51 705.13,-162.04"/>
<polygon fill="#63b8ff" stroke="#63b8ff" points="706.25,-263.01 716.8,-263.99 709.17,-256.65 706.25,-263.01"/>
</a>
</g>
</g>
<!-- Node16&#45;&gt;Node10 -->
<g id="edge23_Node000016_Node000010" class="edge">
<title>Node16&#45;&gt;Node10</title>
<g id="a_edge23_Node000016_Node000010"><a xlink:title=" ">
<path fill="none" stroke="#63b8ff" d="M780.8,-254.92C790.81,-236.31 807.54,-211.13 830,-198 936.04,-136.02 982.67,-181.13 1104,-162 1106.92,-161.54 1109.89,-161.06 1112.9,-160.56"/>
<polygon fill="#63b8ff" stroke="#63b8ff" points="777.62,-253.46 776.19,-263.96 783.85,-256.65 777.62,-253.46"/>
</a>
</g>
</g>
<!-- Node16&#45;&gt;Node17 -->
<g id="edge24_Node000016_Node000017" class="edge">
<title>Node16&#45;&gt;Node17</title>
<g id="a_edge24_Node000016_Node000017"><a xlink:title=" ">
<path fill="none" stroke="#63b8ff" d="M806.53,-259.3C830.28,-247.14 860.12,-231.86 878.36,-222.52"/>
<polygon fill="#63b8ff" stroke="#63b8ff" points="804.74,-256.28 797.43,-263.95 807.93,-262.51 804.74,-256.28"/>
</a>
</g>
</g>
<!-- Node18 -->
<g id="Node000018" class="node">
<title>Node18</title>
<g id="a_Node000018"><a xlink:href="log__window_8cpp.html" target="_top" xlink:title=" ">
<polygon fill="white" stroke="#666666" points="783,-228 679,-228 679,-198 783,-198 783,-228"/>
<text text-anchor="start" x="687" y="-216" font-family="Helvetica,sans-Serif" font-size="10.00">src/user_interface</text>
<text text-anchor="middle" x="731" y="-205" font-family="Helvetica,sans-Serif" font-size="10.00">/log_window.cpp</text>
</a>
</g>
</g>
<!-- Node16&#45;&gt;Node18 -->
<g id="edge25_Node000016_Node000018" class="edge">
<title>Node16&#45;&gt;Node18</title>
<g id="a_edge25_Node000016_Node000018"><a xlink:title=" ">
<path fill="none" stroke="#63b8ff" d="M756.13,-255.24C750.63,-246.21 744.47,-236.11 739.63,-228.16"/>
<polygon fill="#63b8ff" stroke="#63b8ff" points="753.15,-257.08 761.34,-263.8 759.13,-253.44 753.15,-257.08"/>
</a>
</g>
</g>
<!-- Node19&#45;&gt;Node4 -->
<g id="edge27_Node000019_Node000004" class="edge">
<title>Node19&#45;&gt;Node4</title>
<g id="a_edge27_Node000019_Node000004"><a xlink:title=" ">
<path fill="none" stroke="#63b8ff" d="M216.54,-198.64C218.04,-198.42 219.53,-198.21 221,-198 242.28,-195.03 521.56,-168.15 657.99,-155.08"/>
<polygon fill="#63b8ff" stroke="#63b8ff" points="215.89,-195.2 206.55,-200.18 216.96,-202.12 215.89,-195.2"/>
</a>
</g>
</g>
<!-- Node19&#45;&gt;Node6 -->
<g id="edge28_Node000019_Node000006" class="edge">
<title>Node19&#45;&gt;Node6</title>
<g id="a_edge28_Node000019_Node000006"><a xlink:title=" ">
<path fill="none" stroke="#63b8ff" d="M127.74,-189.68C121.86,-181.2 115.35,-171.33 110,-162 97.23,-139.72 84.95,-112.46 77.96,-96.21"/>
<polygon fill="#63b8ff" stroke="#63b8ff" points="124.95,-191.79 133.58,-197.94 130.67,-187.75 124.95,-191.79"/>
</a>
</g>
</g>
<!-- Node20 -->
<g id="Node000020" class="node">
<title>Node20</title>
<g id="a_Node000020"><a xlink:href="main__menu__bar_8cpp.html" target="_top" xlink:title=" ">
<polygon fill="white" stroke="#666666" points="237,-162 119,-162 119,-132 237,-132 237,-162"/>
<text text-anchor="start" x="127" y="-150" font-family="Helvetica,sans-Serif" font-size="10.00">src/user_interface</text>
<text text-anchor="middle" x="178" y="-139" font-family="Helvetica,sans-Serif" font-size="10.00">/main_menu_bar.cpp</text>
</a>
</g>
</g>
<!-- Node19&#45;&gt;Node20 -->
<g id="edge29_Node000019_Node000020" class="edge">
<title>Node19&#45;&gt;Node20</title>
<g id="a_edge29_Node000019_Node000020"><a xlink:title=" ">
<path fill="none" stroke="#63b8ff" d="M156.24,-188.96C161,-180 166.3,-170.03 170.48,-162.16"/>
<polygon fill="#63b8ff" stroke="#63b8ff" points="153.15,-187.32 151.55,-197.8 159.33,-190.61 153.15,-187.32"/>
</a>
</g>
</g>
<!-- Node21&#45;&gt;Node4 -->
<g id="edge32_Node000021_Node000004" class="edge">
<title>Node21&#45;&gt;Node4</title>
<g id="a_edge32_Node000021_Node000004"><a xlink:title=" ">
<path fill="none" stroke="#63b8ff" d="M513.05,-261.87C468.65,-248.77 425.19,-227.6 450,-198 463.32,-182.12 578.93,-165.71 657.93,-156.2"/>
<polygon fill="#63b8ff" stroke="#63b8ff" points="512.23,-265.28 522.81,-264.62 514.13,-258.54 512.23,-265.28"/>
</a>
</g>
</g>
<!-- Node21&#45;&gt;Node10 -->
<g id="edge33_Node000021_Node000010" class="edge">
<title>Node21&#45;&gt;Node10</title>
<g id="a_edge33_Node000021_Node000010"><a xlink:title=" ">
<path fill="none" stroke="#63b8ff" d="M603.06,-255.56C618.02,-236.6 642.17,-210.59 670,-198 758.17,-158.11 1008.07,-174.78 1104,-162 1106.93,-161.61 1109.91,-161.18 1112.92,-160.73"/>
<polygon fill="#63b8ff" stroke="#63b8ff" points="600.13,-253.63 596.85,-263.7 605.7,-257.87 600.13,-253.63"/>
</a>
</g>
</g>
<!-- Node22 -->
<g id="Node000022" class="node">
<title>Node22</title>
<g id="a_Node000022"><a xlink:href="plot__control__window_8cpp.html" target="_top" xlink:title=" ">
<polygon fill="white" stroke="#666666" points="403,-228 263,-228 263,-198 403,-198 403,-228"/>
<text text-anchor="start" x="271" y="-216" font-family="Helvetica,sans-Serif" font-size="10.00">src/user_interface</text>
<text text-anchor="middle" x="333" y="-205" font-family="Helvetica,sans-Serif" font-size="10.00">/plot_control_window.cpp</text>
</a>
</g>
</g>
<!-- Node21&#45;&gt;Node22 -->
<g id="edge34_Node000021_Node000022" class="edge">
<title>Node21&#45;&gt;Node22</title>
<g id="a_edge34_Node000021_Node000022"><a xlink:title=" ">
<path fill="none" stroke="#63b8ff" d="M521.32,-261.45C480.17,-251.08 427.71,-237.86 388.61,-228.01"/>
<polygon fill="#63b8ff" stroke="#63b8ff" points="520.71,-264.91 531.26,-263.95 522.42,-258.12 520.71,-264.91"/>
</a>
</g>
</g>
<!-- Node23&#45;&gt;Node4 -->
<g id="edge36_Node000023_Node000004" class="edge">
<title>Node23&#45;&gt;Node4</title>
<g id="a_edge36_Node000023_Node000004"><a xlink:title=" ">
<path fill="none" stroke="#63b8ff" d="M1035.43,-198.78C1033.94,-198.51 1032.46,-198.26 1031,-198 954.4,-184.63 866.62,-170.04 806.08,-160.09"/>
<polygon fill="#63b8ff" stroke="#63b8ff" points="1034.94,-202.24 1045.4,-200.54 1036.16,-195.35 1034.94,-202.24"/>
</a>
</g>
</g>
<!-- Node23&#45;&gt;Node10 -->
<g id="edge37_Node000023_Node000010" class="edge">
<title>Node23&#45;&gt;Node10</title>
<g id="a_edge37_Node000023_Node000010"><a xlink:title=" ">
<path fill="none" stroke="#63b8ff" d="M1131.71,-190.92C1142.33,-181.49 1154.57,-170.61 1164.07,-162.16"/>
<polygon fill="#63b8ff" stroke="#63b8ff" points="1129.13,-188.54 1123.98,-197.8 1133.78,-193.77 1129.13,-188.54"/>
</a>
</g>
</g>
<!-- Node24 -->
<g id="Node000024" class="node">
<title>Node24</title>
<g id="a_Node000024"><a xlink:href="simulation__window_8cpp.html" target="_top" xlink:title=" ">
<polygon fill="white" stroke="#666666" points="1095,-162 961,-162 961,-132 1095,-132 1095,-162"/>
<text text-anchor="start" x="969" y="-150" font-family="Helvetica,sans-Serif" font-size="10.00">src/user_interface</text>
<text text-anchor="middle" x="1028" y="-139" font-family="Helvetica,sans-Serif" font-size="10.00">/simulation_window.cpp</text>
</a>
</g>
</g>
<!-- Node23&#45;&gt;Node24 -->
<g id="edge38_Node000023_Node000024" class="edge">
<title>Node23&#45;&gt;Node24</title>
<g id="a_edge38_Node000023_Node000024"><a xlink:title=" ">
<path fill="none" stroke="#63b8ff" d="M1082.35,-191.48C1070.39,-181.91 1056.47,-170.77 1045.7,-162.16"/>
<polygon fill="#63b8ff" stroke="#63b8ff" points="1080.25,-194.28 1090.25,-197.8 1084.62,-188.82 1080.25,-194.28"/>
</a>
</g>
</g>
<!-- Node28&#45;&gt;Node4 -->
<g id="edge48_Node000028_Node000004" class="edge">
<title>Node28&#45;&gt;Node4</title>
<g id="a_edge48_Node000028_Node000004"><a xlink:title=" ">
<path fill="none" stroke="#63b8ff" d="M577.82,-194.99C611.61,-184.69 654.18,-171.72 686.02,-162.01"/>
<polygon fill="#63b8ff" stroke="#63b8ff" points="576.63,-191.69 568.09,-197.95 578.67,-198.39 576.63,-191.69"/>
</a>
</g>
</g>
<!-- Node28&#45;&gt;Node10 -->
<g id="edge49_Node000028_Node000010" class="edge">
<title>Node28&#45;&gt;Node10</title>
<g id="a_edge49_Node000028_Node000010"><a xlink:title=" ">
<path fill="none" stroke="#63b8ff" d="M594.54,-198.59C596.04,-198.38 597.53,-198.19 599,-198 822.24,-169.83 880.79,-190.43 1104,-162 1106.93,-161.63 1109.91,-161.21 1112.93,-160.77"/>
<polygon fill="#63b8ff" stroke="#63b8ff" points="593.92,-195.14 584.53,-200.04 594.93,-202.07 593.92,-195.14"/>
</a>
</g>
</g>
<!-- Node29 -->
<g id="Node000029" class="node">
<title>Node29</title>
<g id="a_Node000029"><a xlink:href="plots__window_8cpp.html" target="_top" xlink:title=" ">
<polygon fill="white" stroke="#666666" points="575,-162 469,-162 469,-132 575,-132 575,-162"/>
<text text-anchor="start" x="477" y="-150" font-family="Helvetica,sans-Serif" font-size="10.00">src/user_interface</text>
<text text-anchor="middle" x="522" y="-139" font-family="Helvetica,sans-Serif" font-size="10.00">/plots_window.cpp</text>
</a>
</g>
</g>
<!-- Node28&#45;&gt;Node29 -->
<g id="edge50_Node000028_Node000029" class="edge">
<title>Node28&#45;&gt;Node29</title>
<g id="a_edge50_Node000028_Node000029"><a xlink:title=" ">
<path fill="none" stroke="#63b8ff" d="M522,-187.54C522,-178.96 522,-169.61 522,-162.16"/>
<polygon fill="#63b8ff" stroke="#63b8ff" points="518.5,-187.8 522,-197.8 525.5,-187.8 518.5,-187.8"/>
</a>
</g>
</g>
</g>
</svg>
