<?xml version="1.0" encoding="UTF-8" standalone="no"?>
<!DOCTYPE svg PUBLIC "-//W3C//DTD SVG 1.1//EN"
 "http://www.w3.org/Graphics/SVG/1.1/DTD/svg11.dtd">
<!-- Generated by graphviz version 2.43.0 (0)
 -->
<!-- Title: src/visualization/lineplot.cpp Pages: 1 -->
<svg width="1756pt" height="500pt"
 viewBox="0.00 0.00 1756.00 500.00" xmlns="http://www.w3.org/2000/svg" xmlns:xlink="http://www.w3.org/1999/xlink">
<g id="graph0" class="graph" transform="scale(1 1) rotate(0) translate(4 496)">
<title>src/visualization/lineplot.cpp</title>
<!-- Node1 -->
<g id="Node000001" class="node">
<title>Node1</title>
<g id="a_Node000001"><a xlink:title=" ">
<polygon fill="#999999" stroke="#666666" points="372,-492 216,-492 216,-473 372,-473 372,-492"/>
<text text-anchor="middle" x="294" y="-480" font-family="Helvetica,sans-Serif" font-size="10.00">src/visualization/lineplot.cpp</text>
</a>
</g>
</g>
<!-- Node2 -->
<g id="Node000002" class="node">
<title>Node2</title>
<g id="a_Node000002"><a xlink:href="lineplot_8h.html" target="_top" xlink:title=" ">
<polygon fill="white" stroke="#666666" points="505,-316 377,-316 377,-297 505,-297 505,-316"/>
<text text-anchor="middle" x="441" y="-304" font-family="Helvetica,sans-Serif" font-size="10.00">visualization/lineplot.h</text>
</a>
</g>
</g>
<!-- Node1&#45;&gt;Node2 -->
<g id="edge1_Node000001_Node000002" class="edge">
<title>Node1&#45;&gt;Node2</title>
<g id="a_edge1_Node000001_Node000002"><a xlink:title=" ">
<path fill="none" stroke="#63b8ff" d="M272.4,-472.96C224.92,-453 118.94,-401.27 161,-352 186.98,-321.56 292.92,-311.84 366.76,-308.79"/>
<polygon fill="#63b8ff" stroke="#63b8ff" points="367.1,-312.28 376.96,-308.41 366.83,-305.29 367.1,-312.28"/>
</a>
</g>
</g>
<!-- Node20 -->
<g id="Node000020" class="node">
<title>Node20</title>
<g id="a_Node000020"><a xlink:href="application_8h.html" target="_top" xlink:title=" ">
<polygon fill="white" stroke="#666666" points="515.5,-437 378.5,-437 378.5,-418 515.5,-418 515.5,-437"/>
<text text-anchor="middle" x="447" y="-425" font-family="Helvetica,sans-Serif" font-size="10.00">application/application.h</text>
</a>
</g>
</g>
<!-- Node1&#45;&gt;Node20 -->
<g id="edge24_Node000001_Node000020" class="edge">
<title>Node1&#45;&gt;Node20</title>
<g id="a_edge24_Node000001_Node000020"><a xlink:title=" ">
<path fill="none" stroke="#63b8ff" d="M318.58,-472.98C344.05,-464.16 384.04,-450.31 412.63,-440.41"/>
<polygon fill="#63b8ff" stroke="#63b8ff" points="413.92,-443.66 422.23,-437.08 411.63,-437.05 413.92,-443.66"/>
</a>
</g>
</g>
<!-- Node3 -->
<g id="Node000003" class="node">
<title>Node3</title>
<g id="a_Node000003"><a xlink:href="plot_8h.html" target="_top" xlink:title=" ">
<polygon fill="white" stroke="#666666" points="666,-261 622,-261 622,-242 666,-242 666,-261"/>
<text text-anchor="middle" x="644" y="-249" font-family="Helvetica,sans-Serif" font-size="10.00">plot.h</text>
</a>
</g>
</g>
<!-- Node2&#45;&gt;Node3 -->
<g id="edge2_Node000002_Node000003" class="edge">
<title>Node2&#45;&gt;Node3</title>
<g id="a_edge2_Node000002_Node000003"><a xlink:title=" ">
<path fill="none" stroke="#63b8ff" d="M473.62,-296.98C511.62,-287.06 574.03,-270.77 611.84,-260.9"/>
<polygon fill="#63b8ff" stroke="#63b8ff" points="613.02,-264.21 621.81,-258.29 611.25,-257.43 613.02,-264.21"/>
</a>
</g>
</g>
<!-- Node4 -->
<g id="Node000004" class="node">
<title>Node4</title>
<g id="a_Node000004"><a xlink:href="plot__parameters_8h.html" target="_top" xlink:title=" ">
<polygon fill="white" stroke="#666666" points="713,-200.5 607,-200.5 607,-181.5 713,-181.5 713,-200.5"/>
<text text-anchor="middle" x="660" y="-188.5" font-family="Helvetica,sans-Serif" font-size="10.00">plot_parameters.h</text>
</a>
</g>
</g>
<!-- Node3&#45;&gt;Node4 -->
<g id="edge3_Node000003_Node000004" class="edge">
<title>Node3&#45;&gt;Node4</title>
<g id="a_edge3_Node000003_Node000004"><a xlink:title=" ">
<path fill="none" stroke="#63b8ff" d="M646.36,-241.87C648.61,-233.66 652.06,-221.04 654.93,-210.55"/>
<polygon fill="#63b8ff" stroke="#63b8ff" points="658.37,-211.24 657.63,-200.67 651.62,-209.39 658.37,-211.24"/>
</a>
</g>
</g>
<!-- Node5 -->
<g id="Node000005" class="node">
<title>Node5</title>
<g id="a_Node000005"><a xlink:title=" ">
<polygon fill="#e0e0e0" stroke="#999999" points="997,-140 959,-140 959,-121 997,-121 997,-140"/>
<text text-anchor="middle" x="978" y="-128" font-family="Helvetica,sans-Serif" font-size="10.00">map</text>
</a>
</g>
</g>
<!-- Node4&#45;&gt;Node5 -->
<g id="edge4_Node000004_Node000005" class="edge">
<title>Node4&#45;&gt;Node5</title>
<g id="a_edge4_Node000004_Node000005"><a xlink:title=" ">
<path fill="none" stroke="#63b8ff" d="M706.24,-181.49C772.75,-169.26 893.5,-147.04 948.86,-136.86"/>
<polygon fill="#63b8ff" stroke="#63b8ff" points="949.51,-140.3 958.71,-135.05 948.24,-133.42 949.51,-140.3"/>
</a>
</g>
</g>
<!-- Node6 -->
<g id="Node000006" class="node">
<title>Node6</title>
<g id="a_Node000006"><a xlink:title=" ">
<polygon fill="#e0e0e0" stroke="#999999" points="1118,-19 1074,-19 1074,0 1118,0 1118,-19"/>
<text text-anchor="middle" x="1096" y="-7" font-family="Helvetica,sans-Serif" font-size="10.00">string</text>
</a>
</g>
</g>
<!-- Node4&#45;&gt;Node6 -->
<g id="edge5_Node000004_Node000006" class="edge">
<title>Node4&#45;&gt;Node6</title>
<g id="a_edge5_Node000004_Node000006"><a xlink:title=" ">
<path fill="none" stroke="#63b8ff" d="M684.33,-181.48C732.84,-164.34 844.88,-123.98 937,-85 984.12,-65.06 1037.8,-39.25 1069.18,-23.83"/>
<polygon fill="#63b8ff" stroke="#63b8ff" points="1071.13,-26.77 1078.55,-19.21 1068.03,-20.49 1071.13,-26.77"/>
</a>
</g>
</g>
<!-- Node7 -->
<g id="Node000007" class="node">
<title>Node7</title>
<g id="a_Node000007"><a xlink:title=" ">
<polygon fill="#e0e0e0" stroke="#999999" points="448.5,-19 401.5,-19 401.5,0 448.5,0 448.5,-19"/>
<text text-anchor="middle" x="425" y="-7" font-family="Helvetica,sans-Serif" font-size="10.00">vector</text>
</a>
</g>
</g>
<!-- Node4&#45;&gt;Node7 -->
<g id="edge6_Node000004_Node000007" class="edge">
<title>Node4&#45;&gt;Node7</title>
<g id="a_edge6_Node000004_Node000007"><a xlink:title=" ">
<path fill="none" stroke="#63b8ff" d="M640.23,-181.43C605.58,-165.78 532.74,-129.98 482,-85 463.03,-68.18 446.05,-44.26 435.66,-28.1"/>
<polygon fill="#63b8ff" stroke="#63b8ff" points="438.35,-25.8 430.08,-19.18 432.41,-29.51 438.35,-25.8"/>
</a>
</g>
</g>
<!-- Node8 -->
<g id="Node000008" class="node">
<title>Node8</title>
<g id="a_Node000008"><a xlink:href="logger_8h.html" target="_top" xlink:title=" ">
<polygon fill="white" stroke="#666666" points="750.5,-140 667.5,-140 667.5,-121 750.5,-121 750.5,-140"/>
<text text-anchor="middle" x="709" y="-128" font-family="Helvetica,sans-Serif" font-size="10.00">tools/logger.h</text>
</a>
</g>
</g>
<!-- Node4&#45;&gt;Node8 -->
<g id="edge7_Node000004_Node000008" class="edge">
<title>Node4&#45;&gt;Node8</title>
<g id="a_edge7_Node000004_Node000008"><a xlink:title=" ">
<path fill="none" stroke="#63b8ff" d="M667.23,-181.37C674.54,-172.64 686.02,-158.93 695.1,-148.09"/>
<polygon fill="#63b8ff" stroke="#63b8ff" points="698,-150.08 701.74,-140.17 692.64,-145.59 698,-150.08"/>
</a>
</g>
</g>
<!-- Node8&#45;&gt;Node6 -->
<g id="edge9_Node000008_Node000006" class="edge">
<title>Node8&#45;&gt;Node6</title>
<g id="a_edge9_Node000008_Node000006"><a xlink:title=" ">
<path fill="none" stroke="#63b8ff" d="M750.66,-121.82C798.94,-112.59 875.29,-96.86 902,-85 923.3,-75.54 924,-65.09 945,-55 955.82,-49.8 1022.85,-30.8 1063.89,-19.37"/>
<polygon fill="#63b8ff" stroke="#63b8ff" points="1065.01,-22.69 1073.71,-16.64 1063.14,-15.95 1065.01,-22.69"/>
</a>
</g>
</g>
<!-- Node9 -->
<g id="Node000009" class="node">
<title>Node9</title>
<g id="a_Node000009"><a xlink:title=" ">
<polygon fill="#e0e0e0" stroke="#999999" points="551,-79.5 491,-79.5 491,-60.5 551,-60.5 551,-79.5"/>
<text text-anchor="middle" x="521" y="-67.5" font-family="Helvetica,sans-Serif" font-size="10.00">iostream</text>
</a>
</g>
</g>
<!-- Node8&#45;&gt;Node9 -->
<g id="edge8_Node000008_Node000009" class="edge">
<title>Node8&#45;&gt;Node9</title>
<g id="a_edge8_Node000008_Node000009"><a xlink:title=" ">
<path fill="none" stroke="#63b8ff" d="M678.6,-120.95C648.38,-112.32 600.78,-98.4 560,-85 558.1,-84.38 556.16,-83.72 554.2,-83.06"/>
<polygon fill="#63b8ff" stroke="#63b8ff" points="555.03,-79.64 544.44,-79.65 552.73,-86.25 555.03,-79.64"/>
</a>
</g>
</g>
<!-- Node10 -->
<g id="Node000010" class="node">
<title>Node10</title>
<g id="a_Node000010"><a xlink:title=" ">
<polygon fill="#e0e0e0" stroke="#999999" points="750,-19 700,-19 700,0 750,0 750,-19"/>
<text text-anchor="middle" x="725" y="-7" font-family="Helvetica,sans-Serif" font-size="10.00">chrono</text>
</a>
</g>
</g>
<!-- Node8&#45;&gt;Node10 -->
<g id="edge10_Node000008_Node000010" class="edge">
<title>Node8&#45;&gt;Node10</title>
<g id="a_edge10_Node000008_Node000010"><a xlink:title=" ">
<path fill="none" stroke="#63b8ff" d="M724.43,-120.8C736.35,-113.11 751.96,-100.69 759,-85 764.46,-72.84 763.27,-67.63 759,-55 755.44,-44.47 748.28,-34.48 741.45,-26.63"/>
<polygon fill="#63b8ff" stroke="#63b8ff" points="743.99,-24.23 734.61,-19.31 738.87,-29.01 743.99,-24.23"/>
</a>
</g>
</g>
<!-- Node11 -->
<g id="Node000011" class="node">
<title>Node11</title>
<g id="a_Node000011"><a xlink:title=" ">
<polygon fill="#e0e0e0" stroke="#999999" points="625,-79.5 569,-79.5 569,-60.5 625,-60.5 625,-79.5"/>
<text text-anchor="middle" x="597" y="-67.5" font-family="Helvetica,sans-Serif" font-size="10.00">iomanip</text>
</a>
</g>
</g>
<!-- Node8&#45;&gt;Node11 -->
<g id="edge11_Node000008_Node000011" class="edge">
<title>Node8&#45;&gt;Node11</title>
<g id="a_edge11_Node000008_Node000011"><a xlink:title=" ">
<path fill="none" stroke="#63b8ff" d="M692.47,-120.87C674.03,-111.23 643.96,-95.53 622.49,-84.31"/>
<polygon fill="#63b8ff" stroke="#63b8ff" points="624.08,-81.19 613.59,-79.67 620.84,-87.4 624.08,-81.19"/>
</a>
</g>
</g>
<!-- Node12 -->
<g id="Node000012" class="node">
<title>Node12</title>
<g id="a_Node000012"><a xlink:title=" ">
<polygon fill="#e0e0e0" stroke="#999999" points="750.5,-85 643.5,-85 643.5,-55 750.5,-55 750.5,-85"/>
<text text-anchor="start" x="651.5" y="-73" font-family="Helvetica,sans-Serif" font-size="10.00">imgui&#45;platform&#45;kit</text>
<text text-anchor="middle" x="697" y="-62" font-family="Helvetica,sans-Serif" font-size="10.00">/log_window.h</text>
</a>
</g>
</g>
<!-- Node8&#45;&gt;Node12 -->
<g id="edge12_Node000008_Node000012" class="edge">
<title>Node8&#45;&gt;Node12</title>
<g id="a_edge12_Node000008_Node000012"><a xlink:title=" ">
<path fill="none" stroke="#63b8ff" d="M707.23,-120.87C705.83,-114.03 703.8,-104.14 701.92,-94.97"/>
<polygon fill="#63b8ff" stroke="#63b8ff" points="705.33,-94.21 699.9,-85.11 698.48,-95.61 705.33,-94.21"/>
</a>
</g>
</g>
<!-- Node13 -->
<g id="Node000013" class="node">
<title>Node13</title>
<g id="a_Node000013"><a xlink:href="exception_8h.html" target="_top" xlink:title=" ">
<polygon fill="white" stroke="#666666" points="1748,-79.5 1618,-79.5 1618,-60.5 1748,-60.5 1748,-79.5"/>
<text text-anchor="middle" x="1683" y="-67.5" font-family="Helvetica,sans-Serif" font-size="10.00">exceptions/exception.h</text>
</a>
</g>
</g>
<!-- Node8&#45;&gt;Node13 -->
<g id="edge13_Node000008_Node000013" class="edge">
<title>Node8&#45;&gt;Node13</title>
<g id="a_edge13_Node000008_Node000013"><a xlink:title=" ">
<path fill="none" stroke="#63b8ff" d="M750.54,-127.01C900.27,-118.01 1413.69,-87.18 1607.83,-75.51"/>
<polygon fill="#63b8ff" stroke="#63b8ff" points="1608.17,-79 1617.94,-74.91 1607.75,-72.01 1608.17,-79"/>
</a>
</g>
</g>
<!-- Node15 -->
<g id="Node000015" class="node">
<title>Node15</title>
<g id="a_Node000015"><a xlink:href="utils_8h.html" target="_top" xlink:title=" ">
<polygon fill="white" stroke="#666666" points="892.5,-79.5 845.5,-79.5 845.5,-60.5 892.5,-60.5 892.5,-79.5"/>
<text text-anchor="middle" x="869" y="-67.5" font-family="Helvetica,sans-Serif" font-size="10.00">utils.h</text>
</a>
</g>
</g>
<!-- Node8&#45;&gt;Node15 -->
<g id="edge16_Node000008_Node000015" class="edge">
<title>Node8&#45;&gt;Node15</title>
<g id="a_edge16_Node000008_Node000015"><a xlink:title=" ">
<path fill="none" stroke="#63b8ff" d="M732.27,-120.99C759.64,-110.99 805.27,-94.3 836.22,-82.99"/>
<polygon fill="#63b8ff" stroke="#63b8ff" points="837.52,-86.24 845.71,-79.52 835.11,-79.66 837.52,-86.24"/>
</a>
</g>
</g>
<!-- Node13&#45;&gt;Node6 -->
<g id="edge15_Node000013_Node000006" class="edge">
<title>Node13&#45;&gt;Node6</title>
<g id="a_edge15_Node000013_Node000006"><a xlink:title=" ">
<path fill="none" stroke="#63b8ff" d="M1638.82,-60.46C1627.5,-58.47 1615.32,-56.5 1604,-55 1425.08,-31.36 1209,-17.15 1128.38,-12.34"/>
<polygon fill="#63b8ff" stroke="#63b8ff" points="1128.55,-8.85 1118.36,-11.75 1128.14,-15.84 1128.55,-8.85"/>
</a>
</g>
</g>
<!-- Node14 -->
<g id="Node000014" class="node">
<title>Node14</title>
<g id="a_Node000014"><a xlink:title=" ">
<polygon fill="#e0e0e0" stroke="#999999" points="1715.5,-19 1650.5,-19 1650.5,0 1715.5,0 1715.5,-19"/>
<text text-anchor="middle" x="1683" y="-7" font-family="Helvetica,sans-Serif" font-size="10.00">exception</text>
</a>
</g>
</g>
<!-- Node13&#45;&gt;Node14 -->
<g id="edge14_Node000013_Node000014" class="edge">
<title>Node13&#45;&gt;Node14</title>
<g id="a_edge14_Node000013_Node000014"><a xlink:title=" ">
<path fill="none" stroke="#63b8ff" d="M1683,-60.37C1683,-52.25 1683,-39.81 1683,-29.39"/>
<polygon fill="#63b8ff" stroke="#63b8ff" points="1686.5,-29.17 1683,-19.17 1679.5,-29.17 1686.5,-29.17"/>
</a>
</g>
</g>
<!-- Node15&#45;&gt;Node6 -->
<g id="edge17_Node000015_Node000006" class="edge">
<title>Node15&#45;&gt;Node6</title>
<g id="a_edge17_Node000015_Node000006"><a xlink:title=" ">
<path fill="none" stroke="#63b8ff" d="M890.94,-60.37C896.16,-58.47 901.74,-56.56 907,-55 973.08,-35.39 993.41,-36.39 1063.88,-19.18"/>
<polygon fill="#63b8ff" stroke="#63b8ff" points="1064.82,-22.55 1073.68,-16.75 1063.13,-15.76 1064.82,-22.55"/>
</a>
</g>
</g>
<!-- Node15&#45;&gt;Node7 -->
<g id="edge18_Node000015_Node000007" class="edge">
<title>Node15&#45;&gt;Node7</title>
<g id="a_edge18_Node000015_Node000007"><a xlink:title=" ">
<path fill="none" stroke="#63b8ff" d="M845.44,-65.9C771.61,-56.17 544.54,-26.25 458.51,-14.91"/>
<polygon fill="#63b8ff" stroke="#63b8ff" points="458.87,-11.43 448.5,-13.6 457.96,-18.37 458.87,-11.43"/>
</a>
</g>
</g>
<!-- Node15&#45;&gt;Node10 -->
<g id="edge22_Node000015_Node000010" class="edge">
<title>Node15&#45;&gt;Node10</title>
<g id="a_edge22_Node000015_Node000010"><a xlink:title=" ">
<path fill="none" stroke="#63b8ff" d="M848.06,-60.49C823.64,-50.57 783.07,-34.09 755.23,-22.78"/>
<polygon fill="#63b8ff" stroke="#63b8ff" points="756.55,-19.54 745.96,-19.02 753.91,-26.02 756.55,-19.54"/>
</a>
</g>
</g>
<!-- Node16 -->
<g id="Node000016" class="node">
<title>Node16</title>
<g id="a_Node000016"><a xlink:title=" ">
<polygon fill="#e0e0e0" stroke="#999999" points="896,-19 842,-19 842,0 896,0 896,-19"/>
<text text-anchor="middle" x="869" y="-7" font-family="Helvetica,sans-Serif" font-size="10.00">random</text>
</a>
</g>
</g>
<!-- Node15&#45;&gt;Node16 -->
<g id="edge19_Node000015_Node000016" class="edge">
<title>Node15&#45;&gt;Node16</title>
<g id="a_edge19_Node000015_Node000016"><a xlink:title=" ">
<path fill="none" stroke="#63b8ff" d="M869,-60.37C869,-52.25 869,-39.81 869,-29.39"/>
<polygon fill="#63b8ff" stroke="#63b8ff" points="872.5,-29.17 869,-19.17 865.5,-29.17 872.5,-29.17"/>
</a>
</g>
</g>
<!-- Node17 -->
<g id="Node000017" class="node">
<title>Node17</title>
<g id="a_Node000017"><a xlink:title=" ">
<polygon fill="#e0e0e0" stroke="#999999" points="970,-19 914,-19 914,0 970,0 970,-19"/>
<text text-anchor="middle" x="942" y="-7" font-family="Helvetica,sans-Serif" font-size="10.00">sstream</text>
</a>
</g>
</g>
<!-- Node15&#45;&gt;Node17 -->
<g id="edge20_Node000015_Node000017" class="edge">
<title>Node15&#45;&gt;Node17</title>
<g id="a_edge20_Node000015_Node000017"><a xlink:title=" ">
<path fill="none" stroke="#63b8ff" d="M879.77,-60.37C891.2,-51.21 909.48,-36.56 923.28,-25.51"/>
<polygon fill="#63b8ff" stroke="#63b8ff" points="925.57,-28.15 931.18,-19.17 921.19,-22.69 925.57,-28.15"/>
</a>
</g>
</g>
<!-- Node18 -->
<g id="Node000018" class="node">
<title>Node18</title>
<g id="a_Node000018"><a xlink:title=" ">
<polygon fill="#e0e0e0" stroke="#999999" points="823.5,-19 768.5,-19 768.5,0 823.5,0 823.5,-19"/>
<text text-anchor="middle" x="796" y="-7" font-family="Helvetica,sans-Serif" font-size="10.00">fstream</text>
</a>
</g>
</g>
<!-- Node15&#45;&gt;Node18 -->
<g id="edge21_Node000015_Node000018" class="edge">
<title>Node15&#45;&gt;Node18</title>
<g id="a_edge21_Node000015_Node000018"><a xlink:title=" ">
<path fill="none" stroke="#63b8ff" d="M858.23,-60.37C846.8,-51.21 828.52,-36.56 814.72,-25.51"/>
<polygon fill="#63b8ff" stroke="#63b8ff" points="816.81,-22.69 806.82,-19.17 812.43,-28.15 816.81,-22.69"/>
</a>
</g>
</g>
<!-- Node19 -->
<g id="Node000019" class="node">
<title>Node19</title>
<g id="a_Node000019"><a xlink:title=" ">
<polygon fill="#e0e0e0" stroke="#999999" points="1056,-19 988,-19 988,0 1056,0 1056,-19"/>
<text text-anchor="middle" x="1022" y="-7" font-family="Helvetica,sans-Serif" font-size="10.00">filesystem</text>
</a>
</g>
</g>
<!-- Node15&#45;&gt;Node19 -->
<g id="edge23_Node000015_Node000019" class="edge">
<title>Node15&#45;&gt;Node19</title>
<g id="a_edge23_Node000015_Node000019"><a xlink:title=" ">
<path fill="none" stroke="#63b8ff" d="M891.25,-60.49C917.31,-50.53 960.68,-33.95 990.27,-22.63"/>
<polygon fill="#63b8ff" stroke="#63b8ff" points="991.64,-25.86 999.73,-19.02 989.14,-19.32 991.64,-25.86"/>
</a>
</g>
</g>
<!-- Node20&#45;&gt;Node13 -->
<g id="edge27_Node000020_Node000013" class="edge">
<title>Node20&#45;&gt;Node13</title>
<g id="a_edge27_Node000020_Node000013"><a xlink:title=" ">
<path fill="none" stroke="#63b8ff" d="M515.95,-423.71C781.19,-412.52 1721,-368.55 1721,-307.5 1721,-307.5 1721,-307.5 1721,-190 1721,-152.57 1703.73,-111.53 1692.48,-88.75"/>
<polygon fill="#63b8ff" stroke="#63b8ff" points="1695.49,-86.96 1687.81,-79.65 1689.26,-90.15 1695.49,-86.96"/>
</a>
</g>
</g>
<!-- Node21 -->
<g id="Node000021" class="node">
<title>Node21</title>
<g id="a_Node000021"><a xlink:title=" ">
<polygon fill="#e0e0e0" stroke="#999999" points="239.5,-376.5 170.5,-376.5 170.5,-357.5 239.5,-357.5 239.5,-376.5"/>
<text text-anchor="middle" x="205" y="-364.5" font-family="Helvetica,sans-Serif" font-size="10.00">type_traits</text>
</a>
</g>
</g>
<!-- Node20&#45;&gt;Node21 -->
<g id="edge25_Node000020_Node000021" class="edge">
<title>Node20&#45;&gt;Node21</title>
<g id="a_edge25_Node000020_Node000021"><a xlink:title=" ">
<path fill="none" stroke="#63b8ff" d="M403.23,-417.96C362.71,-409.75 300.92,-396.5 248,-382 245.23,-381.24 242.38,-380.41 239.52,-379.55"/>
<polygon fill="#63b8ff" stroke="#63b8ff" points="240.48,-376.19 229.89,-376.55 238.39,-382.87 240.48,-376.19"/>
</a>
</g>
</g>
<!-- Node22 -->
<g id="Node000022" class="node">
<title>Node22</title>
<g id="a_Node000022"><a xlink:title=" ">
<polygon fill="#e0e0e0" stroke="#999999" points="364.5,-382 257.5,-382 257.5,-352 364.5,-352 364.5,-382"/>
<text text-anchor="start" x="265.5" y="-370" font-family="Helvetica,sans-Serif" font-size="10.00">imgui&#45;platform&#45;kit</text>
<text text-anchor="middle" x="311" y="-359" font-family="Helvetica,sans-Serif" font-size="10.00">/user_interface.h</text>
</a>
</g>
</g>
<!-- Node20&#45;&gt;Node22 -->
<g id="edge26_Node000020_Node000022" class="edge">
<title>Node20&#45;&gt;Node22</title>
<g id="a_edge26_Node000020_Node000022"><a xlink:title=" ">
<path fill="none" stroke="#63b8ff" d="M427.22,-417.99C407.91,-409.68 377.9,-396.78 353.21,-386.16"/>
<polygon fill="#63b8ff" stroke="#63b8ff" points="354.27,-382.8 343.7,-382.06 351.5,-389.23 354.27,-382.8"/>
</a>
</g>
</g>
<!-- Node23 -->
<g id="Node000023" class="node">
<title>Node23</title>
<g id="a_Node000023"><a xlink:href="simulation_8h.html" target="_top" xlink:title=" ">
<polygon fill="white" stroke="#666666" points="965,-316 833,-316 833,-297 965,-297 965,-316"/>
<text text-anchor="middle" x="899" y="-304" font-family="Helvetica,sans-Serif" font-size="10.00">simulation/simulation.h</text>
</a>
</g>
</g>
<!-- Node20&#45;&gt;Node23 -->
<g id="edge28_Node000020_Node000023" class="edge">
<title>Node20&#45;&gt;Node23</title>
<g id="a_edge28_Node000020_Node000023"><a xlink:title=" ">
<path fill="none" stroke="#63b8ff" d="M515.88,-425.6C615.19,-423.17 792.64,-414.3 847,-382 868.76,-369.07 883.68,-343.07 891.78,-325.47"/>
<polygon fill="#63b8ff" stroke="#63b8ff" points="895.01,-326.81 895.76,-316.24 888.58,-324.04 895.01,-326.81"/>
</a>
</g>
</g>
<!-- Node32 -->
<g id="Node000032" class="node">
<title>Node32</title>
<g id="a_Node000032"><a xlink:href="visualization_8h.html" target="_top" xlink:title=" ">
<polygon fill="white" stroke="#666666" points="837.5,-376.5 684.5,-376.5 684.5,-357.5 837.5,-357.5 837.5,-376.5"/>
<text text-anchor="middle" x="761" y="-364.5" font-family="Helvetica,sans-Serif" font-size="10.00">visualization/visualization.h</text>
</a>
</g>
</g>
<!-- Node20&#45;&gt;Node32 -->
<g id="edge51_Node000020_Node000032" class="edge">
<title>Node20&#45;&gt;Node32</title>
<g id="a_edge51_Node000020_Node000032"><a xlink:title=" ">
<path fill="none" stroke="#63b8ff" d="M492.66,-417.99C548.93,-407.51 644.53,-389.7 705.13,-378.41"/>
<polygon fill="#63b8ff" stroke="#63b8ff" points="706.1,-381.79 715.29,-376.52 704.81,-374.91 706.1,-381.79"/>
</a>
</g>
</g>
<!-- Node34 -->
<g id="Node000034" class="node">
<title>Node34</title>
<g id="a_Node000034"><a xlink:href="IconsFontAwesome6_8h.html" target="_top" xlink:title=" ">
<polygon fill="white" stroke="#666666" points="511.5,-382 382.5,-382 382.5,-352 511.5,-352 511.5,-382"/>
<text text-anchor="start" x="390.5" y="-370" font-family="Helvetica,sans-Serif" font-size="10.00">user_interface/fonts</text>
<text text-anchor="middle" x="447" y="-359" font-family="Helvetica,sans-Serif" font-size="10.00">/IconsFontAwesome6.h</text>
</a>
</g>
</g>
<!-- Node20&#45;&gt;Node34 -->
<g id="edge61_Node000020_Node000034" class="edge">
<title>Node20&#45;&gt;Node34</title>
<g id="a_edge61_Node000020_Node000034"><a xlink:title=" ">
<path fill="none" stroke="#63b8ff" d="M447,-417.87C447,-411.11 447,-401.35 447,-392.26"/>
<polygon fill="#63b8ff" stroke="#63b8ff" points="450.5,-392.11 447,-382.11 443.5,-392.11 450.5,-392.11"/>
</a>
</g>
</g>
<!-- Node35 -->
<g id="Node000035" class="node">
<title>Node35</title>
<g id="a_Node000035"><a xlink:href="fa_8h.html" target="_top" xlink:title=" ">
<polygon fill="white" stroke="#666666" points="666,-376.5 530,-376.5 530,-357.5 666,-357.5 666,-376.5"/>
<text text-anchor="middle" x="598" y="-364.5" font-family="Helvetica,sans-Serif" font-size="10.00">user_interface/fonts/fa.h</text>
</a>
</g>
</g>
<!-- Node20&#45;&gt;Node35 -->
<g id="edge62_Node000020_Node000035" class="edge">
<title>Node20&#45;&gt;Node35</title>
<g id="a_edge62_Node000020_Node000035"><a xlink:title=" ">
<path fill="none" stroke="#63b8ff" d="M468.96,-417.99C494.68,-408.03 537.48,-391.45 566.68,-380.13"/>
<polygon fill="#63b8ff" stroke="#63b8ff" points="567.96,-383.39 576.02,-376.52 565.43,-376.87 567.96,-383.39"/>
</a>
</g>
</g>
<!-- Node36 -->
<g id="Node000036" class="node">
<title>Node36</title>
<g id="a_Node000036"><a xlink:href="imgui__freetype_8h.html" target="_top" xlink:title=" ">
<polygon fill="white" stroke="#666666" points="114,-382 0,-382 0,-352 114,-352 114,-382"/>
<text text-anchor="start" x="8" y="-370" font-family="Helvetica,sans-Serif" font-size="10.00">user_interface/fonts</text>
<text text-anchor="middle" x="57" y="-359" font-family="Helvetica,sans-Serif" font-size="10.00">/imgui_freetype.h</text>
</a>
</g>
</g>
<!-- Node20&#45;&gt;Node36 -->
<g id="edge63_Node000020_Node000036" class="edge">
<title>Node20&#45;&gt;Node36</title>
<g id="a_edge63_Node000020_Node000036"><a xlink:title=" ">
<path fill="none" stroke="#63b8ff" d="M390.29,-417.99C319.77,-407.42 199.54,-389.38 124.39,-378.11"/>
<polygon fill="#63b8ff" stroke="#63b8ff" points="124.5,-374.59 114.1,-376.56 123.47,-381.51 124.5,-374.59"/>
</a>
</g>
</g>
<!-- Node23&#45;&gt;Node6 -->
<g id="edge31_Node000023_Node000006" class="edge">
<title>Node23&#45;&gt;Node6</title>
<g id="a_edge31_Node000023_Node000006"><a xlink:title=" ">
<path fill="none" stroke="#63b8ff" d="M965.16,-300.95C1130.03,-288.94 1548.72,-253.94 1588,-206 1716.75,-48.84 1256.38,-17.33 1128.23,-11.65"/>
<polygon fill="#63b8ff" stroke="#63b8ff" points="1128.37,-8.15 1118.23,-11.23 1128.07,-15.15 1128.37,-8.15"/>
</a>
</g>
</g>
<!-- Node23&#45;&gt;Node7 -->
<g id="edge29_Node000023_Node000007" class="edge">
<title>Node23&#45;&gt;Node7</title>
<g id="a_edge29_Node000023_Node000007"><a xlink:title=" ">
<path fill="none" stroke="#63b8ff" d="M869.72,-296.9C827.02,-284.43 745.09,-260.75 675,-242 611.69,-225.06 587.93,-240.16 532,-206 472.7,-169.79 458.37,-149.69 433,-85 425.96,-67.05 424.39,-44.91 424.32,-29.45"/>
<polygon fill="#63b8ff" stroke="#63b8ff" points="427.82,-29.17 424.49,-19.11 420.82,-29.05 427.82,-29.17"/>
</a>
</g>
</g>
<!-- Node23&#45;&gt;Node10 -->
<g id="edge33_Node000023_Node000010" class="edge">
<title>Node23&#45;&gt;Node10</title>
<g id="a_edge33_Node000023_Node000010"><a xlink:title=" ">
<path fill="none" stroke="#63b8ff" d="M886.55,-296.79C863.61,-279.6 817,-238.92 817,-192 817,-192 817,-192 817,-129.5 817,-83.79 773.98,-44.95 746.78,-24.96"/>
<polygon fill="#63b8ff" stroke="#63b8ff" points="748.76,-22.07 738.57,-19.14 744.71,-27.78 748.76,-22.07"/>
</a>
</g>
</g>
<!-- Node23&#45;&gt;Node13 -->
<g id="edge49_Node000023_Node000013" class="edge">
<title>Node23&#45;&gt;Node13</title>
<g id="a_edge49_Node000023_Node000013"><a xlink:title=" ">
<path fill="none" stroke="#63b8ff" d="M965.01,-305.6C1133.51,-305.27 1569.85,-300.58 1621,-261 1628.05,-255.55 1663.74,-136.39 1677.54,-89.61"/>
<polygon fill="#63b8ff" stroke="#63b8ff" points="1680.95,-90.43 1680.41,-79.85 1674.23,-88.46 1680.95,-90.43"/>
</a>
</g>
</g>
<!-- Node23&#45;&gt;Node15 -->
<g id="edge50_Node000023_Node000015" class="edge">
<title>Node23&#45;&gt;Node15</title>
<g id="a_edge50_Node000023_Node000015"><a xlink:title=" ">
<path fill="none" stroke="#63b8ff" d="M897.9,-296.88C893.55,-262.91 877.56,-137.9 871.42,-89.92"/>
<polygon fill="#63b8ff" stroke="#63b8ff" points="874.89,-89.43 870.15,-79.95 867.94,-90.32 874.89,-89.43"/>
</a>
</g>
</g>
<!-- Node23&#45;&gt;Node19 -->
<g id="edge32_Node000023_Node000019" class="edge">
<title>Node23&#45;&gt;Node19</title>
<g id="a_edge32_Node000023_Node000019"><a xlink:title=" ">
<path fill="none" stroke="#63b8ff" d="M900.44,-296.71C905.07,-269.61 921.04,-185.23 950,-121 966.07,-85.36 992.73,-48.11 1008.71,-27.25"/>
<polygon fill="#63b8ff" stroke="#63b8ff" points="1011.65,-29.16 1015.03,-19.12 1006.13,-24.87 1011.65,-29.16"/>
</a>
</g>
</g>
<!-- Node24 -->
<g id="Node000024" class="node">
<title>Node24</title>
<g id="a_Node000024"><a xlink:title=" ">
<polygon fill="#e0e0e0" stroke="#999999" points="1579,-200.5 1521,-200.5 1521,-181.5 1579,-181.5 1579,-200.5"/>
<text text-anchor="middle" x="1550" y="-188.5" font-family="Helvetica,sans-Serif" font-size="10.00">memory</text>
</a>
</g>
</g>
<!-- Node23&#45;&gt;Node24 -->
<g id="edge30_Node000023_Node000024" class="edge">
<title>Node23&#45;&gt;Node24</title>
<g id="a_edge30_Node000023_Node000024"><a xlink:title=" ">
<path fill="none" stroke="#63b8ff" d="M965.12,-298.95C1077.75,-286.86 1313.43,-257.43 1507,-206 1509.77,-205.26 1512.63,-204.45 1515.5,-203.6"/>
<polygon fill="#63b8ff" stroke="#63b8ff" points="1516.61,-206.92 1525.13,-200.61 1514.54,-200.23 1516.61,-206.92"/>
</a>
</g>
</g>
<!-- Node25 -->
<g id="Node000025" class="node">
<title>Node25</title>
<g id="a_Node000025"><a xlink:href="element_8h.html" target="_top" xlink:title=" ">
<polygon fill="white" stroke="#666666" points="1232.5,-261 1117.5,-261 1117.5,-242 1232.5,-242 1232.5,-261"/>
<text text-anchor="middle" x="1175" y="-249" font-family="Helvetica,sans-Serif" font-size="10.00">elements/element.h</text>
</a>
</g>
</g>
<!-- Node23&#45;&gt;Node25 -->
<g id="edge34_Node000023_Node000025" class="edge">
<title>Node23&#45;&gt;Node25</title>
<g id="a_edge34_Node000023_Node000025"><a xlink:title=" ">
<path fill="none" stroke="#63b8ff" d="M943.34,-296.98C991.49,-287.74 1068.42,-272.97 1120.29,-263.01"/>
<polygon fill="#63b8ff" stroke="#63b8ff" points="1121.15,-266.41 1130.31,-261.08 1119.83,-259.53 1121.15,-266.41"/>
</a>
</g>
</g>
<!-- Node25&#45;&gt;Node6 -->
<g id="edge36_Node000025_Node000006" class="edge">
<title>Node25&#45;&gt;Node6</title>
<g id="a_edge36_Node000025_Node000006"><a xlink:title=" ">
<path fill="none" stroke="#63b8ff" d="M1165.61,-241.89C1157.09,-233.54 1144.85,-220.1 1138,-206 1122.74,-174.62 1105.55,-71.96 1098.87,-29.33"/>
<polygon fill="#63b8ff" stroke="#63b8ff" points="1102.32,-28.78 1097.34,-19.43 1095.41,-29.85 1102.32,-28.78"/>
</a>
</g>
</g>
<!-- Node25&#45;&gt;Node7 -->
<g id="edge35_Node000025_Node000007" class="edge">
<title>Node25&#45;&gt;Node7</title>
<g id="a_edge35_Node000025_Node000007"><a xlink:title=" ">
<path fill="none" stroke="#63b8ff" d="M1117.15,-250.43C990.2,-249.57 691.08,-243.48 598,-206 519.51,-174.39 499.4,-154.41 451,-85 439.15,-68 432.22,-45.08 428.54,-29.17"/>
<polygon fill="#63b8ff" stroke="#63b8ff" points="431.89,-28.07 426.41,-19.01 425.04,-29.51 431.89,-28.07"/>
</a>
</g>
</g>
<!-- Node25&#45;&gt;Node8 -->
<g id="edge43_Node000025_Node000008" class="edge">
<title>Node25&#45;&gt;Node8</title>
<g id="a_edge43_Node000025_Node000008"><a xlink:title=" ">
<path fill="none" stroke="#63b8ff" d="M1124.41,-241.98C1078.79,-233.93 1010.01,-220.9 951,-206 876.15,-187.1 790.11,-159.07 743.46,-143.33"/>
<polygon fill="#63b8ff" stroke="#63b8ff" points="744.44,-139.97 733.84,-140.08 742.19,-146.6 744.44,-139.97"/>
</a>
</g>
</g>
<!-- Node25&#45;&gt;Node13 -->
<g id="edge42_Node000025_Node000013" class="edge">
<title>Node25&#45;&gt;Node13</title>
<g id="a_edge42_Node000025_Node000013"><a xlink:title=" ">
<path fill="none" stroke="#63b8ff" d="M1232.68,-243.54C1313.31,-233.56 1452.32,-215.37 1474,-206 1493.75,-197.46 1494.36,-188.32 1512,-176 1562.65,-140.64 1625.18,-103.88 1658.83,-84.63"/>
<polygon fill="#63b8ff" stroke="#63b8ff" points="1660.56,-87.68 1667.52,-79.69 1657.1,-81.59 1660.56,-87.68"/>
</a>
</g>
</g>
<!-- Node25&#45;&gt;Node24 -->
<g id="edge38_Node000025_Node000024" class="edge">
<title>Node25&#45;&gt;Node24</title>
<g id="a_edge38_Node000025_Node000024"><a xlink:title=" ">
<path fill="none" stroke="#63b8ff" d="M1232.55,-245.98C1299.2,-240.01 1412.03,-227.64 1507,-206 1510.04,-205.31 1513.17,-204.49 1516.29,-203.61"/>
<polygon fill="#63b8ff" stroke="#63b8ff" points="1517.56,-206.88 1526.11,-200.63 1515.52,-200.19 1517.56,-206.88"/>
</a>
</g>
</g>
<!-- Node26 -->
<g id="Node000026" class="node">
<title>Node26</title>
<g id="a_Node000026"><a xlink:title=" ">
<polygon fill="#e0e0e0" stroke="#999999" points="1314.5,-200.5 1221.5,-200.5 1221.5,-181.5 1314.5,-181.5 1314.5,-200.5"/>
<text text-anchor="middle" x="1268" y="-188.5" font-family="Helvetica,sans-Serif" font-size="10.00">unordered_map</text>
</a>
</g>
</g>
<!-- Node25&#45;&gt;Node26 -->
<g id="edge37_Node000025_Node000026" class="edge">
<title>Node25&#45;&gt;Node26</title>
<g id="a_edge37_Node000025_Node000026"><a xlink:title=" ">
<path fill="none" stroke="#63b8ff" d="M1188.72,-241.87C1203.7,-232.45 1227.89,-217.23 1245.62,-206.08"/>
<polygon fill="#63b8ff" stroke="#63b8ff" points="1247.62,-208.95 1254.22,-200.67 1243.89,-203.03 1247.62,-208.95"/>
</a>
</g>
</g>
<!-- Node27 -->
<g id="Node000027" class="node">
<title>Node27</title>
<g id="a_Node000027"><a xlink:title=" ">
<polygon fill="#e0e0e0" stroke="#999999" points="1383,-200.5 1333,-200.5 1333,-181.5 1383,-181.5 1383,-200.5"/>
<text text-anchor="middle" x="1358" y="-188.5" font-family="Helvetica,sans-Serif" font-size="10.00">ranges</text>
</a>
</g>
</g>
<!-- Node25&#45;&gt;Node27 -->
<g id="edge39_Node000025_Node000027" class="edge">
<title>Node25&#45;&gt;Node27</title>
<g id="a_edge39_Node000025_Node000027"><a xlink:title=" ">
<path fill="none" stroke="#63b8ff" d="M1206.98,-241.95C1237.36,-233.6 1284.17,-220.11 1324,-206 1325.43,-205.49 1326.89,-204.96 1328.35,-204.41"/>
<polygon fill="#63b8ff" stroke="#63b8ff" points="1329.96,-207.54 1337.99,-200.63 1327.41,-201.02 1329.96,-207.54"/>
</a>
</g>
</g>
<!-- Node28 -->
<g id="Node000028" class="node">
<title>Node28</title>
<g id="a_Node000028"><a xlink:title=" ">
<polygon fill="#e0e0e0" stroke="#999999" points="1465,-200.5 1401,-200.5 1401,-181.5 1465,-181.5 1465,-200.5"/>
<text text-anchor="middle" x="1433" y="-188.5" font-family="Helvetica,sans-Serif" font-size="10.00">algorithm</text>
</a>
</g>
</g>
<!-- Node25&#45;&gt;Node28 -->
<g id="edge40_Node000025_Node000028" class="edge">
<title>Node25&#45;&gt;Node28</title>
<g id="a_edge40_Node000025_Node000028"><a xlink:title=" ">
<path fill="none" stroke="#63b8ff" d="M1225.85,-241.96C1270.1,-234.07 1335.78,-221.3 1392,-206 1394.63,-205.28 1397.34,-204.49 1400.05,-203.65"/>
<polygon fill="#63b8ff" stroke="#63b8ff" points="1401.31,-206.93 1409.74,-200.51 1399.15,-200.27 1401.31,-206.93"/>
</a>
</g>
</g>
<!-- Node29 -->
<g id="Node000029" class="node">
<title>Node29</title>
<g id="a_Node000029"><a xlink:title=" ">
<polygon fill="#e0e0e0" stroke="#999999" points="1203,-200.5 1147,-200.5 1147,-181.5 1203,-181.5 1203,-200.5"/>
<text text-anchor="middle" x="1175" y="-188.5" font-family="Helvetica,sans-Serif" font-size="10.00">numeric</text>
</a>
</g>
</g>
<!-- Node25&#45;&gt;Node29 -->
<g id="edge41_Node000025_Node000029" class="edge">
<title>Node25&#45;&gt;Node29</title>
<g id="a_edge41_Node000025_Node000029"><a xlink:title=" ">
<path fill="none" stroke="#63b8ff" d="M1175,-241.87C1175,-233.75 1175,-221.31 1175,-210.89"/>
<polygon fill="#63b8ff" stroke="#63b8ff" points="1178.5,-210.67 1175,-200.67 1171.5,-210.67 1178.5,-210.67"/>
</a>
</g>
</g>
<!-- Node30 -->
<g id="Node000030" class="node">
<title>Node30</title>
<g id="a_Node000030"><a xlink:href="element__parameters_8h.html" target="_top" xlink:title=" ">
<polygon fill="white" stroke="#666666" points="1090.5,-206 959.5,-206 959.5,-176 1090.5,-176 1090.5,-206"/>
<text text-anchor="start" x="967.5" y="-194" font-family="Helvetica,sans-Serif" font-size="10.00">element_parameters</text>
<text text-anchor="middle" x="1025" y="-183" font-family="Helvetica,sans-Serif" font-size="10.00">/element_parameters.h</text>
</a>
</g>
</g>
<!-- Node25&#45;&gt;Node30 -->
<g id="edge44_Node000025_Node000030" class="edge">
<title>Node25&#45;&gt;Node30</title>
<g id="a_edge44_Node000025_Node000030"><a xlink:title=" ">
<path fill="none" stroke="#63b8ff" d="M1153.19,-241.99C1131.6,-233.57 1097.9,-220.43 1070.47,-209.73"/>
<polygon fill="#63b8ff" stroke="#63b8ff" points="1071.65,-206.44 1061.06,-206.06 1069.11,-212.96 1071.65,-206.44"/>
</a>
</g>
</g>
<!-- Node30&#45;&gt;Node5 -->
<g id="edge45_Node000030_Node000005" class="edge">
<title>Node30&#45;&gt;Node5</title>
<g id="a_edge45_Node000030_Node000005"><a xlink:title=" ">
<path fill="none" stroke="#63b8ff" d="M1013.62,-175.84C1006.94,-167.52 998.45,-156.96 991.44,-148.23"/>
<polygon fill="#63b8ff" stroke="#63b8ff" points="994.03,-145.87 985.04,-140.27 988.58,-150.25 994.03,-145.87"/>
</a>
</g>
</g>
<!-- Node30&#45;&gt;Node6 -->
<g id="edge46_Node000030_Node000006" class="edge">
<title>Node30&#45;&gt;Node6</title>
<g id="a_edge46_Node000030_Node000006"><a xlink:title=" ">
<path fill="none" stroke="#63b8ff" d="M1028.16,-175.77C1031.48,-161.66 1037.15,-139.53 1044,-121 1056.51,-87.18 1075.35,-49.53 1086.58,-28.06"/>
<polygon fill="#63b8ff" stroke="#63b8ff" points="1089.71,-29.64 1091.3,-19.16 1083.52,-26.36 1089.71,-29.64"/>
</a>
</g>
</g>
<!-- Node30&#45;&gt;Node8 -->
<g id="edge48_Node000030_Node000008" class="edge">
<title>Node30&#45;&gt;Node8</title>
<g id="a_edge48_Node000030_Node000008"><a xlink:title=" ">
<path fill="none" stroke="#63b8ff" d="M959.14,-177.81C900.18,-166.89 814.89,-151.1 760.71,-141.07"/>
<polygon fill="#63b8ff" stroke="#63b8ff" points="761.11,-137.59 750.64,-139.21 759.83,-144.47 761.11,-137.59"/>
</a>
</g>
</g>
<!-- Node31 -->
<g id="Node000031" class="node">
<title>Node31</title>
<g id="a_Node000031"><a xlink:title=" ">
<polygon fill="#e0e0e0" stroke="#999999" points="1103,-140 1053,-140 1053,-121 1103,-121 1103,-140"/>
<text text-anchor="middle" x="1078" y="-128" font-family="Helvetica,sans-Serif" font-size="10.00">format</text>
</a>
</g>
</g>
<!-- Node30&#45;&gt;Node31 -->
<g id="edge47_Node000030_Node000031" class="edge">
<title>Node30&#45;&gt;Node31</title>
<g id="a_edge47_Node000030_Node000031"><a xlink:title=" ">
<path fill="none" stroke="#63b8ff" d="M1037.83,-175.84C1045.52,-167.35 1055.33,-156.52 1063.33,-147.69"/>
<polygon fill="#63b8ff" stroke="#63b8ff" points="1065.94,-150.03 1070.06,-140.27 1060.75,-145.33 1065.94,-150.03"/>
</a>
</g>
</g>
<!-- Node32&#45;&gt;Node2 -->
<g id="edge58_Node000032_Node000002" class="edge">
<title>Node32&#45;&gt;Node2</title>
<g id="a_edge58_Node000032_Node000002"><a xlink:title=" ">
<path fill="none" stroke="#63b8ff" d="M714.47,-357.49C657,-346.99 559.29,-329.12 497.55,-317.84"/>
<polygon fill="#63b8ff" stroke="#63b8ff" points="498.05,-314.37 487.59,-316.02 496.79,-321.26 498.05,-314.37"/>
</a>
</g>
</g>
<!-- Node32&#45;&gt;Node3 -->
<g id="edge56_Node000032_Node000003" class="edge">
<title>Node32&#45;&gt;Node3</title>
<g id="a_edge56_Node000032_Node000003"><a xlink:title=" ">
<path fill="none" stroke="#63b8ff" d="M754.93,-357.37C745.11,-343.72 724.74,-316.68 704,-297 692.31,-285.9 677.82,-275.09 666.01,-266.9"/>
<polygon fill="#63b8ff" stroke="#63b8ff" points="667.84,-263.91 657.6,-261.19 663.91,-269.7 667.84,-263.91"/>
</a>
</g>
</g>
<!-- Node32&#45;&gt;Node7 -->
<g id="edge53_Node000032_Node000007" class="edge">
<title>Node32&#45;&gt;Node7</title>
<g id="a_edge53_Node000032_Node000007"><a xlink:title=" ">
<path fill="none" stroke="#63b8ff" d="M711.03,-357.48C699.23,-355.57 686.69,-353.64 675,-352 524.97,-331 349,-403.99 349,-252.5 349,-252.5 349,-252.5 349,-129.5 349,-86.71 384.34,-46.94 406.82,-25.97"/>
<polygon fill="#63b8ff" stroke="#63b8ff" points="409.34,-28.42 414.43,-19.13 404.66,-23.21 409.34,-28.42"/>
</a>
</g>
</g>
<!-- Node32&#45;&gt;Node8 -->
<g id="edge57_Node000032_Node000008" class="edge">
<title>Node32&#45;&gt;Node8</title>
<g id="a_edge57_Node000032_Node000008"><a xlink:title=" ">
<path fill="none" stroke="#63b8ff" d="M759.46,-357.23C754.66,-330.12 739.2,-245.29 722,-176 719.87,-167.41 717.17,-157.98 714.78,-150.03"/>
<polygon fill="#63b8ff" stroke="#63b8ff" points="718.08,-148.84 711.8,-140.31 711.39,-150.89 718.08,-148.84"/>
</a>
</g>
</g>
<!-- Node32&#45;&gt;Node9 -->
<g id="edge52_Node000032_Node000009" class="edge">
<title>Node32&#45;&gt;Node9</title>
<g id="a_edge52_Node000032_Node000009"><a xlink:title=" ">
<path fill="none" stroke="#63b8ff" d="M714.54,-357.42C656.64,-346.35 563.83,-327.18 552,-316 530.6,-295.76 533,-281.96 533,-252.5 533,-252.5 533,-252.5 533,-190 533,-154.31 527.59,-112.9 524.04,-89.54"/>
<polygon fill="#63b8ff" stroke="#63b8ff" points="527.49,-88.96 522.47,-79.63 520.57,-90.05 527.49,-88.96"/>
</a>
</g>
</g>
<!-- Node32&#45;&gt;Node13 -->
<g id="edge55_Node000032_Node000013" class="edge">
<title>Node32&#45;&gt;Node13</title>
<g id="a_edge55_Node000032_Node000013"><a xlink:title=" ">
<path fill="none" stroke="#63b8ff" d="M837.63,-364.57C1058.88,-359.44 1683,-337.42 1683,-252.5 1683,-252.5 1683,-252.5 1683,-190 1683,-154.65 1683,-113.4 1683,-89.92"/>
<polygon fill="#63b8ff" stroke="#63b8ff" points="1686.5,-89.66 1683,-79.66 1679.5,-89.66 1686.5,-89.66"/>
</a>
</g>
</g>
<!-- Node32&#45;&gt;Node23 -->
<g id="edge54_Node000032_Node000023" class="edge">
<title>Node32&#45;&gt;Node23</title>
<g id="a_edge54_Node000032_Node000023"><a xlink:title=" ">
<path fill="none" stroke="#63b8ff" d="M781.07,-357.49C804.37,-347.62 843.01,-331.23 869.68,-319.93"/>
<polygon fill="#63b8ff" stroke="#63b8ff" points="871.07,-323.14 878.91,-316.02 868.34,-316.7 871.07,-323.14"/>
</a>
</g>
</g>
<!-- Node33 -->
<g id="Node000033" class="node">
<title>Node33</title>
<g id="a_Node000033"><a xlink:href="heatmap_8h.html" target="_top" xlink:title=" ">
<polygon fill="white" stroke="#666666" points="695,-316 561,-316 561,-297 695,-297 695,-316"/>
<text text-anchor="middle" x="628" y="-304" font-family="Helvetica,sans-Serif" font-size="10.00">visualization/heatmap.h</text>
</a>
</g>
</g>
<!-- Node32&#45;&gt;Node33 -->
<g id="edge59_Node000032_Node000033" class="edge">
<title>Node32&#45;&gt;Node33</title>
<g id="a_edge59_Node000032_Node000033"><a xlink:title=" ">
<path fill="none" stroke="#63b8ff" d="M741.66,-357.49C719.3,-347.66 682.29,-331.38 656.6,-320.08"/>
<polygon fill="#63b8ff" stroke="#63b8ff" points="657.93,-316.84 647.36,-316.02 655.11,-323.25 657.93,-316.84"/>
</a>
</g>
</g>
<!-- Node33&#45;&gt;Node3 -->
<g id="edge60_Node000033_Node000003" class="edge">
<title>Node33&#45;&gt;Node3</title>
<g id="a_edge60_Node000033_Node000003"><a xlink:title=" ">
<path fill="none" stroke="#63b8ff" d="M630.64,-296.75C632.76,-289.72 635.81,-279.62 638.46,-270.84"/>
<polygon fill="#63b8ff" stroke="#63b8ff" points="641.87,-271.67 641.41,-261.09 635.17,-269.65 641.87,-271.67"/>
</a>
</g>
</g>
<!-- Node37 -->
<g id="Node000037" class="node">
<title>Node37</title>
<g id="a_Node000037"><a xlink:title=" ">
<polygon fill="#e0e0e0" stroke="#999999" points="83.5,-316 30.5,-316 30.5,-297 83.5,-297 83.5,-316"/>
<text text-anchor="middle" x="57" y="-304" font-family="Helvetica,sans-Serif" font-size="10.00">imgui.h</text>
</a>
</g>
</g>
<!-- Node36&#45;&gt;Node37 -->
<g id="edge64_Node000036_Node000037" class="edge">
<title>Node36&#45;&gt;Node37</title>
<g id="a_edge64_Node000036_Node000037"><a xlink:title=" ">
<path fill="none" stroke="#63b8ff" d="M57,-351.84C57,-344.21 57,-334.7 57,-326.45"/>
<polygon fill="#63b8ff" stroke="#63b8ff" points="60.5,-326.27 57,-316.27 53.5,-326.27 60.5,-326.27"/>
</a>
</g>
</g>
</g>
</svg>
