<?xml version="1.0" encoding="UTF-8" standalone="no"?>
<!DOCTYPE svg PUBLIC "-//W3C//DTD SVG 1.1//EN"
 "http://www.w3.org/Graphics/SVG/1.1/DTD/svg11.dtd">
<!-- Generated by graphviz version 2.43.0 (0)
 -->
<!-- Title: src/user_interface/log_window.cpp Pages: 1 -->
<svg width="1747pt" height="588pt"
 viewBox="0.00 0.00 1747.00 588.00" xmlns="http://www.w3.org/2000/svg" xmlns:xlink="http://www.w3.org/1999/xlink">
<g id="graph0" class="graph" transform="scale(1 1) rotate(0) translate(4 584)">
<title>src/user_interface/log_window.cpp</title>
<!-- Node1 -->
<g id="Node000001" class="node">
<title>Node1</title>
<g id="a_Node000001"><a xlink:title=" ">
<polygon fill="#999999" stroke="#666666" points="1360.5,-580 1256.5,-580 1256.5,-550 1360.5,-550 1360.5,-580"/>
<text text-anchor="start" x="1264.5" y="-568" font-family="Helvetica,sans-Serif" font-size="10.00">src/user_interface</text>
<text text-anchor="middle" x="1308.5" y="-557" font-family="Helvetica,sans-Serif" font-size="10.00">/log_window.cpp</text>
</a>
</g>
</g>
<!-- Node2 -->
<g id="Node000002" class="node">
<title>Node2</title>
<g id="a_Node000002"><a xlink:href="log__window_8h.html" target="_top" xlink:title=" ">
<polygon fill="white" stroke="#666666" points="1360.5,-514 1256.5,-514 1256.5,-484 1360.5,-484 1360.5,-514"/>
<text text-anchor="start" x="1264.5" y="-502" font-family="Helvetica,sans-Serif" font-size="10.00">user_interface/log</text>
<text text-anchor="middle" x="1308.5" y="-491" font-family="Helvetica,sans-Serif" font-size="10.00">_window.h</text>
</a>
</g>
</g>
<!-- Node1&#45;&gt;Node2 -->
<g id="edge1_Node000001_Node000002" class="edge">
<title>Node1&#45;&gt;Node2</title>
<g id="a_edge1_Node000001_Node000002"><a xlink:title=" ">
<path fill="none" stroke="#63b8ff" d="M1308.5,-549.8C1308.5,-542.34 1308.5,-532.99 1308.5,-524.41"/>
<polygon fill="#63b8ff" stroke="#63b8ff" points="1312,-524.16 1308.5,-514.16 1305,-524.16 1312,-524.16"/>
</a>
</g>
</g>
<!-- Node3 -->
<g id="Node000003" class="node">
<title>Node3</title>
<g id="a_Node000003"><a xlink:title=" ">
<polygon fill="#e0e0e0" stroke="#999999" points="1234,-19 1187,-19 1187,0 1234,0 1234,-19"/>
<text text-anchor="middle" x="1210.5" y="-7" font-family="Helvetica,sans-Serif" font-size="10.00">vector</text>
</a>
</g>
</g>
<!-- Node2&#45;&gt;Node3 -->
<g id="edge2_Node000002_Node000003" class="edge">
<title>Node2&#45;&gt;Node3</title>
<g id="a_edge2_Node000002_Node000003"><a xlink:title=" ">
<path fill="none" stroke="#63b8ff" d="M1261.38,-483.89C1244.15,-476.2 1226.44,-464.72 1216.5,-448 1209.69,-436.54 1212.21,-430.63 1216.5,-418 1246.3,-330.2 1343.5,-345.22 1343.5,-252.5 1343.5,-252.5 1343.5,-252.5 1343.5,-129.5 1343.5,-75.94 1282.87,-40.46 1243.48,-23.06"/>
<polygon fill="#63b8ff" stroke="#63b8ff" points="1244.54,-19.71 1233.97,-19.02 1241.81,-26.15 1244.54,-19.71"/>
</a>
</g>
</g>
<!-- Node4 -->
<g id="Node000004" class="node">
<title>Node4</title>
<g id="a_Node000004"><a xlink:title=" ">
<polygon fill="#e0e0e0" stroke="#999999" points="470.5,-19 426.5,-19 426.5,0 470.5,0 470.5,-19"/>
<text text-anchor="middle" x="448.5" y="-7" font-family="Helvetica,sans-Serif" font-size="10.00">string</text>
</a>
</g>
</g>
<!-- Node2&#45;&gt;Node4 -->
<g id="edge3_Node000002_Node000004" class="edge">
<title>Node2&#45;&gt;Node4</title>
<g id="a_edge3_Node000002_Node000004"><a xlink:title=" ">
<path fill="none" stroke="#63b8ff" d="M1256.43,-498.01C1023.37,-497.39 87.5,-487.45 87.5,-368 87.5,-368 87.5,-368 87.5,-250.5 87.5,-147.13 127.76,-112.75 213.5,-55 246.18,-32.99 359.54,-19.16 416.01,-13.47"/>
<polygon fill="#63b8ff" stroke="#63b8ff" points="416.58,-16.94 426.19,-12.48 415.89,-9.97 416.58,-16.94"/>
</a>
</g>
</g>
<!-- Node5 -->
<g id="Node000005" class="node">
<title>Node5</title>
<g id="a_Node000005"><a xlink:title=" ">
<polygon fill="#e0e0e0" stroke="#999999" points="1278,-442.5 1225,-442.5 1225,-423.5 1278,-423.5 1278,-442.5"/>
<text text-anchor="middle" x="1251.5" y="-430.5" font-family="Helvetica,sans-Serif" font-size="10.00">cstdarg</text>
</a>
</g>
</g>
<!-- Node2&#45;&gt;Node5 -->
<g id="edge4_Node000002_Node000005" class="edge">
<title>Node2&#45;&gt;Node5</title>
<g id="a_edge4_Node000002_Node000005"><a xlink:title=" ">
<path fill="none" stroke="#63b8ff" d="M1295.85,-483.8C1287.05,-473.92 1275.3,-460.72 1266.1,-450.39"/>
<polygon fill="#63b8ff" stroke="#63b8ff" points="1268.64,-447.98 1259.38,-442.84 1263.41,-452.64 1268.64,-447.98"/>
</a>
</g>
</g>
<!-- Node6 -->
<g id="Node000006" class="node">
<title>Node6</title>
<g id="a_Node000006"><a xlink:title=" ">
<polygon fill="#e0e0e0" stroke="#999999" points="1436.5,-448 1296.5,-448 1296.5,-418 1436.5,-418 1436.5,-448"/>
<text text-anchor="start" x="1304.5" y="-436" font-family="Helvetica,sans-Serif" font-size="10.00">imgui&#45;platform&#45;kit</text>
<text text-anchor="middle" x="1366.5" y="-425" font-family="Helvetica,sans-Serif" font-size="10.00">/user_interface_window.h</text>
</a>
</g>
</g>
<!-- Node2&#45;&gt;Node6 -->
<g id="edge5_Node000002_Node000006" class="edge">
<title>Node2&#45;&gt;Node6</title>
<g id="a_edge5_Node000002_Node000006"><a xlink:title=" ">
<path fill="none" stroke="#63b8ff" d="M1321.37,-483.8C1328.88,-475.51 1338.51,-464.89 1346.94,-455.59"/>
<polygon fill="#63b8ff" stroke="#63b8ff" points="1349.54,-457.92 1353.66,-448.16 1344.36,-453.22 1349.54,-457.92"/>
</a>
</g>
</g>
<!-- Node7 -->
<g id="Node000007" class="node">
<title>Node7</title>
<g id="a_Node000007"><a xlink:href="application_8h.html" target="_top" xlink:title=" ">
<polygon fill="white" stroke="#666666" points="1592,-442.5 1455,-442.5 1455,-423.5 1592,-423.5 1592,-442.5"/>
<text text-anchor="middle" x="1523.5" y="-430.5" font-family="Helvetica,sans-Serif" font-size="10.00">application/application.h</text>
</a>
</g>
</g>
<!-- Node2&#45;&gt;Node7 -->
<g id="edge6_Node000002_Node000007" class="edge">
<title>Node2&#45;&gt;Node7</title>
<g id="a_edge6_Node000002_Node000007"><a xlink:title=" ">
<path fill="none" stroke="#63b8ff" d="M1355.68,-483.95C1394.55,-472.38 1448.97,-456.18 1485.18,-445.41"/>
<polygon fill="#63b8ff" stroke="#63b8ff" points="1486.3,-448.72 1494.89,-442.52 1484.3,-442.02 1486.3,-448.72"/>
</a>
</g>
</g>
<!-- Node40 -->
<g id="Node000040" class="node">
<title>Node40</title>
<g id="a_Node000040"><a xlink:href="IconsFontAwesome6_8h.html" target="_top" xlink:title=" ">
<polygon fill="white" stroke="#666666" points="1739,-448 1610,-448 1610,-418 1739,-418 1739,-448"/>
<text text-anchor="start" x="1618" y="-436" font-family="Helvetica,sans-Serif" font-size="10.00">user_interface/fonts</text>
<text text-anchor="middle" x="1674.5" y="-425" font-family="Helvetica,sans-Serif" font-size="10.00">/IconsFontAwesome6.h</text>
</a>
</g>
</g>
<!-- Node2&#45;&gt;Node40 -->
<g id="edge68_Node000002_Node000040" class="edge">
<title>Node2&#45;&gt;Node40</title>
<g id="a_edge68_Node000002_Node000040"><a xlink:title=" ">
<path fill="none" stroke="#63b8ff" d="M1360.69,-489.42C1417.21,-480.06 1510.31,-464.43 1599.61,-448.32"/>
<polygon fill="#63b8ff" stroke="#63b8ff" points="1600.42,-451.74 1609.63,-446.51 1599.17,-444.85 1600.42,-451.74"/>
</a>
</g>
</g>
<!-- Node8 -->
<g id="Node000008" class="node">
<title>Node8</title>
<g id="a_Node000008"><a xlink:title=" ">
<polygon fill="#e0e0e0" stroke="#999999" points="1558,-376.5 1489,-376.5 1489,-357.5 1558,-357.5 1558,-376.5"/>
<text text-anchor="middle" x="1523.5" y="-364.5" font-family="Helvetica,sans-Serif" font-size="10.00">type_traits</text>
</a>
</g>
</g>
<!-- Node7&#45;&gt;Node8 -->
<g id="edge7_Node000007_Node000008" class="edge">
<title>Node7&#45;&gt;Node8</title>
<g id="a_edge7_Node000007_Node000008"><a xlink:title=" ">
<path fill="none" stroke="#63b8ff" d="M1523.5,-423.37C1523.5,-414.16 1523.5,-399.29 1523.5,-387.27"/>
<polygon fill="#63b8ff" stroke="#63b8ff" points="1527,-386.91 1523.5,-376.91 1520,-386.91 1527,-386.91"/>
</a>
</g>
</g>
<!-- Node9 -->
<g id="Node000009" class="node">
<title>Node9</title>
<g id="a_Node000009"><a xlink:title=" ">
<polygon fill="#e0e0e0" stroke="#999999" points="1683,-382 1576,-382 1576,-352 1683,-352 1683,-382"/>
<text text-anchor="start" x="1584" y="-370" font-family="Helvetica,sans-Serif" font-size="10.00">imgui&#45;platform&#45;kit</text>
<text text-anchor="middle" x="1629.5" y="-359" font-family="Helvetica,sans-Serif" font-size="10.00">/user_interface.h</text>
</a>
</g>
</g>
<!-- Node7&#45;&gt;Node9 -->
<g id="edge8_Node000007_Node000009" class="edge">
<title>Node7&#45;&gt;Node9</title>
<g id="a_edge8_Node000007_Node000009"><a xlink:title=" ">
<path fill="none" stroke="#63b8ff" d="M1537.8,-423.37C1552.99,-414.2 1577.51,-399.39 1597.37,-387.4"/>
<polygon fill="#63b8ff" stroke="#63b8ff" points="1599.37,-390.28 1606.12,-382.12 1595.75,-384.29 1599.37,-390.28"/>
</a>
</g>
</g>
<!-- Node10 -->
<g id="Node000010" class="node">
<title>Node10</title>
<g id="a_Node000010"><a xlink:href="exception_8h.html" target="_top" xlink:title=" ">
<polygon fill="white" stroke="#666666" points="135.5,-79.5 5.5,-79.5 5.5,-60.5 135.5,-60.5 135.5,-79.5"/>
<text text-anchor="middle" x="70.5" y="-67.5" font-family="Helvetica,sans-Serif" font-size="10.00">exceptions/exception.h</text>
</a>
</g>
</g>
<!-- Node7&#45;&gt;Node10 -->
<g id="edge9_Node000007_Node000010" class="edge">
<title>Node7&#45;&gt;Node10</title>
<g id="a_edge9_Node000007_Node000010"><a xlink:title=" ">
<path fill="none" stroke="#63b8ff" d="M1481.13,-423.44C1469.61,-421.37 1457.11,-419.37 1445.5,-418 903.81,-354.12 753.43,-441 222.5,-316 142.77,-297.23 49.5,-334.4 49.5,-252.5 49.5,-252.5 49.5,-252.5 49.5,-190 49.5,-153.94 58.97,-112.66 65.19,-89.42"/>
<polygon fill="#63b8ff" stroke="#63b8ff" points="68.62,-90.14 67.92,-79.57 61.88,-88.27 68.62,-90.14"/>
</a>
</g>
</g>
<!-- Node13 -->
<g id="Node000013" class="node">
<title>Node13</title>
<g id="a_Node000013"><a xlink:href="simulation_8h.html" target="_top" xlink:title=" ">
<polygon fill="white" stroke="#666666" points="560.5,-316 428.5,-316 428.5,-297 560.5,-297 560.5,-316"/>
<text text-anchor="middle" x="494.5" y="-304" font-family="Helvetica,sans-Serif" font-size="10.00">simulation/simulation.h</text>
</a>
</g>
</g>
<!-- Node7&#45;&gt;Node13 -->
<g id="edge13_Node000007_Node000013" class="edge">
<title>Node7&#45;&gt;Node13</title>
<g id="a_edge13_Node000007_Node000013"><a xlink:title=" ">
<path fill="none" stroke="#63b8ff" d="M1479.88,-423.48C1468.7,-421.49 1456.68,-419.51 1445.5,-418 1270.36,-394.37 1225.12,-401.76 1049.5,-382 873.26,-362.17 666.37,-332.77 562.01,-317.51"/>
<polygon fill="#63b8ff" stroke="#63b8ff" points="562.33,-314.02 551.93,-316.03 561.31,-320.95 562.33,-314.02"/>
</a>
</g>
</g>
<!-- Node33 -->
<g id="Node000033" class="node">
<title>Node33</title>
<g id="a_Node000033"><a xlink:href="visualization_8h.html" target="_top" xlink:title=" ">
<polygon fill="white" stroke="#666666" points="1211,-376.5 1058,-376.5 1058,-357.5 1211,-357.5 1211,-376.5"/>
<text text-anchor="middle" x="1134.5" y="-364.5" font-family="Helvetica,sans-Serif" font-size="10.00">visualization/visualization.h</text>
</a>
</g>
</g>
<!-- Node7&#45;&gt;Node33 -->
<g id="edge50_Node000007_Node000033" class="edge">
<title>Node7&#45;&gt;Node33</title>
<g id="a_edge50_Node000007_Node000033"><a xlink:title=" ">
<path fill="none" stroke="#63b8ff" d="M1476.92,-423.5C1466.58,-421.65 1455.67,-419.73 1445.5,-418 1360.6,-403.56 1262.46,-387.96 1199.5,-378.1"/>
<polygon fill="#63b8ff" stroke="#63b8ff" points="1199.75,-374.59 1189.32,-376.51 1198.66,-381.51 1199.75,-374.59"/>
</a>
</g>
</g>
<!-- Node38 -->
<g id="Node000038" class="node">
<title>Node38</title>
<g id="a_Node000038"><a xlink:href="imgui__freetype_8h.html" target="_top" xlink:title=" ">
<polygon fill="white" stroke="#666666" points="1470.5,-382 1356.5,-382 1356.5,-352 1470.5,-352 1470.5,-382"/>
<text text-anchor="start" x="1364.5" y="-370" font-family="Helvetica,sans-Serif" font-size="10.00">user_interface/fonts</text>
<text text-anchor="middle" x="1413.5" y="-359" font-family="Helvetica,sans-Serif" font-size="10.00">/imgui_freetype.h</text>
</a>
</g>
</g>
<!-- Node7&#45;&gt;Node38 -->
<g id="edge66_Node000007_Node000038" class="edge">
<title>Node7&#45;&gt;Node38</title>
<g id="a_edge66_Node000007_Node000038"><a xlink:title=" ">
<path fill="none" stroke="#63b8ff" d="M1508.66,-423.37C1492.83,-414.16 1467.23,-399.26 1446.56,-387.24"/>
<polygon fill="#63b8ff" stroke="#63b8ff" points="1448.16,-384.12 1437.76,-382.12 1444.64,-390.17 1448.16,-384.12"/>
</a>
</g>
</g>
<!-- Node10&#45;&gt;Node4 -->
<g id="edge12_Node000010_Node000004" class="edge">
<title>Node10&#45;&gt;Node4</title>
<g id="a_edge12_Node000010_Node000004"><a xlink:title=" ">
<path fill="none" stroke="#63b8ff" d="M117.25,-60.49C127.84,-58.63 139.05,-56.7 149.5,-55 246.38,-39.21 361.29,-22.74 416.18,-15.01"/>
<polygon fill="#63b8ff" stroke="#63b8ff" points="416.92,-18.44 426.34,-13.58 415.95,-11.51 416.92,-18.44"/>
</a>
</g>
</g>
<!-- Node11 -->
<g id="Node000011" class="node">
<title>Node11</title>
<g id="a_Node000011"><a xlink:title=" ">
<polygon fill="#e0e0e0" stroke="#999999" points="133.5,-19 83.5,-19 83.5,0 133.5,0 133.5,-19"/>
<text text-anchor="middle" x="108.5" y="-7" font-family="Helvetica,sans-Serif" font-size="10.00">cstdint</text>
</a>
</g>
</g>
<!-- Node10&#45;&gt;Node11 -->
<g id="edge10_Node000010_Node000011" class="edge">
<title>Node10&#45;&gt;Node11</title>
<g id="a_edge10_Node000010_Node000011"><a xlink:title=" ">
<path fill="none" stroke="#63b8ff" d="M76.11,-60.37C81.66,-51.81 90.33,-38.47 97.3,-27.74"/>
<polygon fill="#63b8ff" stroke="#63b8ff" points="100.36,-29.46 102.87,-19.17 94.49,-25.65 100.36,-29.46"/>
</a>
</g>
</g>
<!-- Node12 -->
<g id="Node000012" class="node">
<title>Node12</title>
<g id="a_Node000012"><a xlink:title=" ">
<polygon fill="#e0e0e0" stroke="#999999" points="65,-19 0,-19 0,0 65,0 65,-19"/>
<text text-anchor="middle" x="32.5" y="-7" font-family="Helvetica,sans-Serif" font-size="10.00">exception</text>
</a>
</g>
</g>
<!-- Node10&#45;&gt;Node12 -->
<g id="edge11_Node000010_Node000012" class="edge">
<title>Node10&#45;&gt;Node12</title>
<g id="a_edge11_Node000010_Node000012"><a xlink:title=" ">
<path fill="none" stroke="#63b8ff" d="M64.89,-60.37C59.34,-51.81 50.67,-38.47 43.7,-27.74"/>
<polygon fill="#63b8ff" stroke="#63b8ff" points="46.51,-25.65 38.13,-19.17 40.64,-29.46 46.51,-25.65"/>
</a>
</g>
</g>
<!-- Node13&#45;&gt;Node3 -->
<g id="edge14_Node000013_Node000003" class="edge">
<title>Node13&#45;&gt;Node3</title>
<g id="a_edge14_Node000013_Node000003"><a xlink:title=" ">
<path fill="none" stroke="#63b8ff" d="M560.89,-303.65C683.16,-299.61 939.17,-288.14 1023.5,-261 1106.36,-234.33 1127.46,-211.22 1177.5,-140 1193.27,-117.56 1198.21,-111.44 1205.5,-85 1210.55,-66.68 1211.46,-44.9 1211.31,-29.64"/>
<polygon fill="#63b8ff" stroke="#63b8ff" points="1214.8,-29.31 1211.04,-19.41 1207.8,-29.5 1214.8,-29.31"/>
</a>
</g>
</g>
<!-- Node13&#45;&gt;Node4 -->
<g id="edge16_Node000013_Node000004" class="edge">
<title>Node13&#45;&gt;Node4</title>
<g id="a_edge16_Node000013_Node000004"><a xlink:title=" ">
<path fill="none" stroke="#63b8ff" d="M428.33,-302.19C358.8,-297.41 255.41,-286.2 225.5,-261 200.67,-240.08 201.5,-224.47 201.5,-192 201.5,-192 201.5,-192 201.5,-129.5 201.5,-35.3 349.13,-15.63 416.12,-11.55"/>
<polygon fill="#63b8ff" stroke="#63b8ff" points="416.34,-15.04 426.14,-11.02 415.97,-8.05 416.34,-15.04"/>
</a>
</g>
</g>
<!-- Node13&#45;&gt;Node10 -->
<g id="edge48_Node000013_Node000010" class="edge">
<title>Node13&#45;&gt;Node10</title>
<g id="a_edge48_Node000013_Node000010"><a xlink:title=" ">
<path fill="none" stroke="#63b8ff" d="M428.35,-302.66C350.07,-298.16 225.55,-287.05 187.5,-261 151.7,-236.49 162.09,-213.04 139.5,-176 120.19,-144.35 96.11,-108.44 82.1,-87.88"/>
<polygon fill="#63b8ff" stroke="#63b8ff" points="84.96,-85.86 76.43,-79.58 79.18,-89.81 84.96,-85.86"/>
</a>
</g>
</g>
<!-- Node14 -->
<g id="Node000014" class="node">
<title>Node14</title>
<g id="a_Node000014"><a xlink:title=" ">
<polygon fill="#e0e0e0" stroke="#999999" points="325.5,-200.5 267.5,-200.5 267.5,-181.5 325.5,-181.5 325.5,-200.5"/>
<text text-anchor="middle" x="296.5" y="-188.5" font-family="Helvetica,sans-Serif" font-size="10.00">memory</text>
</a>
</g>
</g>
<!-- Node13&#45;&gt;Node14 -->
<g id="edge15_Node000013_Node000014" class="edge">
<title>Node13&#45;&gt;Node14</title>
<g id="a_edge15_Node000013_Node000014"><a xlink:title=" ">
<path fill="none" stroke="#63b8ff" d="M428.24,-297.44C398.79,-291.25 365.09,-280.31 339.5,-261 322.29,-248.01 310.31,-225.96 303.44,-210.28"/>
<polygon fill="#63b8ff" stroke="#63b8ff" points="306.53,-208.57 299.51,-200.64 300.05,-211.22 306.53,-208.57"/>
</a>
</g>
</g>
<!-- Node15 -->
<g id="Node000015" class="node">
<title>Node15</title>
<g id="a_Node000015"><a xlink:title=" ">
<polygon fill="#e0e0e0" stroke="#999999" points="594.5,-19 526.5,-19 526.5,0 594.5,0 594.5,-19"/>
<text text-anchor="middle" x="560.5" y="-7" font-family="Helvetica,sans-Serif" font-size="10.00">filesystem</text>
</a>
</g>
</g>
<!-- Node13&#45;&gt;Node15 -->
<g id="edge17_Node000013_Node000015" class="edge">
<title>Node13&#45;&gt;Node15</title>
<g id="a_edge17_Node000013_Node000015"><a xlink:title=" ">
<path fill="none" stroke="#63b8ff" d="M432.07,-297C348.61,-282.71 215.81,-248.08 258.5,-176 314.84,-80.88 447.35,-36.83 516.6,-19.69"/>
<polygon fill="#63b8ff" stroke="#63b8ff" points="517.43,-23.09 526.34,-17.36 515.8,-16.29 517.43,-23.09"/>
</a>
</g>
</g>
<!-- Node16 -->
<g id="Node000016" class="node">
<title>Node16</title>
<g id="a_Node000016"><a xlink:title=" ">
<polygon fill="#e0e0e0" stroke="#999999" points="718.5,-19 668.5,-19 668.5,0 718.5,0 718.5,-19"/>
<text text-anchor="middle" x="693.5" y="-7" font-family="Helvetica,sans-Serif" font-size="10.00">chrono</text>
</a>
</g>
</g>
<!-- Node13&#45;&gt;Node16 -->
<g id="edge18_Node000013_Node000016" class="edge">
<title>Node13&#45;&gt;Node16</title>
<g id="a_edge18_Node000013_Node000016"><a xlink:title=" ">
<path fill="none" stroke="#63b8ff" d="M489.07,-296.89C478.87,-280.16 457.21,-241.77 449.5,-206 440.82,-165.72 455.92,-148.61 486.5,-121 539.09,-73.51 615.79,-39.54 659.55,-22.64"/>
<polygon fill="#63b8ff" stroke="#63b8ff" points="661.03,-25.82 669.15,-19.01 658.55,-19.27 661.03,-25.82"/>
</a>
</g>
</g>
<!-- Node17 -->
<g id="Node000017" class="node">
<title>Node17</title>
<g id="a_Node000017"><a xlink:href="element_8h.html" target="_top" xlink:title=" ">
<polygon fill="white" stroke="#666666" points="693,-261 578,-261 578,-242 693,-242 693,-261"/>
<text text-anchor="middle" x="635.5" y="-249" font-family="Helvetica,sans-Serif" font-size="10.00">elements/element.h</text>
</a>
</g>
</g>
<!-- Node13&#45;&gt;Node17 -->
<g id="edge19_Node000013_Node000017" class="edge">
<title>Node13&#45;&gt;Node17</title>
<g id="a_edge19_Node000013_Node000017"><a xlink:title=" ">
<path fill="none" stroke="#63b8ff" d="M517.15,-296.98C540.35,-288.27 576.62,-274.63 602.9,-264.75"/>
<polygon fill="#63b8ff" stroke="#63b8ff" points="604.3,-267.97 612.43,-261.17 601.84,-261.41 604.3,-267.97"/>
</a>
</g>
</g>
<!-- Node26 -->
<g id="Node000026" class="node">
<title>Node26</title>
<g id="a_Node000026"><a xlink:href="utils_8h.html" target="_top" xlink:title=" ">
<polygon fill="white" stroke="#666666" points="969,-79.5 922,-79.5 922,-60.5 969,-60.5 969,-79.5"/>
<text text-anchor="middle" x="945.5" y="-67.5" font-family="Helvetica,sans-Serif" font-size="10.00">utils.h</text>
</a>
</g>
</g>
<!-- Node13&#45;&gt;Node26 -->
<g id="edge49_Node000013_Node000026" class="edge">
<title>Node13&#45;&gt;Node26</title>
<g id="a_edge49_Node000013_Node000026"><a xlink:title=" ">
<path fill="none" stroke="#63b8ff" d="M560.6,-304.85C702.37,-301.92 1028.32,-286.38 1096.5,-206 1139.74,-155.03 1035.51,-105.32 978.98,-83.1"/>
<polygon fill="#63b8ff" stroke="#63b8ff" points="979.94,-79.72 969.35,-79.4 977.43,-86.26 979.94,-79.72"/>
</a>
</g>
</g>
<!-- Node17&#45;&gt;Node3 -->
<g id="edge20_Node000017_Node000003" class="edge">
<title>Node17&#45;&gt;Node3</title>
<g id="a_edge20_Node000017_Node000003"><a xlink:title=" ">
<path fill="none" stroke="#63b8ff" d="M693.22,-251.34C801.72,-251.9 1031.07,-247.9 1096.5,-206 1162.43,-163.78 1194.79,-68.84 1205.9,-28.83"/>
<polygon fill="#63b8ff" stroke="#63b8ff" points="1209.3,-29.65 1208.48,-19.09 1202.53,-27.86 1209.3,-29.65"/>
</a>
</g>
</g>
<!-- Node17&#45;&gt;Node4 -->
<g id="edge21_Node000017_Node000004" class="edge">
<title>Node17&#45;&gt;Node4</title>
<g id="a_edge21_Node000017_Node000004"><a xlink:title=" ">
<path fill="none" stroke="#63b8ff" d="M577.54,-244.41C529.05,-237.99 465.34,-225.97 449.5,-206 408.04,-153.72 429.67,-66.44 441.94,-28.75"/>
<polygon fill="#63b8ff" stroke="#63b8ff" points="445.31,-29.71 445.23,-19.12 438.68,-27.45 445.31,-29.71"/>
</a>
</g>
</g>
<!-- Node17&#45;&gt;Node10 -->
<g id="edge27_Node000017_Node000010" class="edge">
<title>Node17&#45;&gt;Node10</title>
<g id="a_edge27_Node000017_Node000010"><a xlink:title=" ">
<path fill="none" stroke="#63b8ff" d="M579.7,-241.97C534.83,-234.45 470.45,-222.18 415.5,-206 383.7,-196.64 179.33,-114.79 101,-83.28"/>
<polygon fill="#63b8ff" stroke="#63b8ff" points="102.24,-80.01 91.66,-79.53 99.63,-86.51 102.24,-80.01"/>
</a>
</g>
</g>
<!-- Node17&#45;&gt;Node14 -->
<g id="edge23_Node000017_Node000014" class="edge">
<title>Node17&#45;&gt;Node14</title>
<g id="a_edge23_Node000017_Node000014"><a xlink:title=" ">
<path fill="none" stroke="#63b8ff" d="M586.04,-241.97C534.1,-233.02 450.06,-218.53 377.5,-206 363.96,-203.66 349.15,-201.1 335.94,-198.82"/>
<polygon fill="#63b8ff" stroke="#63b8ff" points="336.19,-195.31 325.74,-197.06 335,-202.21 336.19,-195.31"/>
</a>
</g>
</g>
<!-- Node18 -->
<g id="Node000018" class="node">
<title>Node18</title>
<g id="a_Node000018"><a xlink:title=" ">
<polygon fill="#e0e0e0" stroke="#999999" points="775,-200.5 682,-200.5 682,-181.5 775,-181.5 775,-200.5"/>
<text text-anchor="middle" x="728.5" y="-188.5" font-family="Helvetica,sans-Serif" font-size="10.00">unordered_map</text>
</a>
</g>
</g>
<!-- Node17&#45;&gt;Node18 -->
<g id="edge22_Node000017_Node000018" class="edge">
<title>Node17&#45;&gt;Node18</title>
<g id="a_edge22_Node000017_Node000018"><a xlink:title=" ">
<path fill="none" stroke="#63b8ff" d="M649.22,-241.87C664.2,-232.45 688.39,-217.23 706.12,-206.08"/>
<polygon fill="#63b8ff" stroke="#63b8ff" points="708.12,-208.95 714.72,-200.67 704.39,-203.03 708.12,-208.95"/>
</a>
</g>
</g>
<!-- Node19 -->
<g id="Node000019" class="node">
<title>Node19</title>
<g id="a_Node000019"><a xlink:title=" ">
<polygon fill="#e0e0e0" stroke="#999999" points="843.5,-200.5 793.5,-200.5 793.5,-181.5 843.5,-181.5 843.5,-200.5"/>
<text text-anchor="middle" x="818.5" y="-188.5" font-family="Helvetica,sans-Serif" font-size="10.00">ranges</text>
</a>
</g>
</g>
<!-- Node17&#45;&gt;Node19 -->
<g id="edge24_Node000017_Node000019" class="edge">
<title>Node17&#45;&gt;Node19</title>
<g id="a_edge24_Node000017_Node000019"><a xlink:title=" ">
<path fill="none" stroke="#63b8ff" d="M667.48,-241.95C697.86,-233.6 744.67,-220.11 784.5,-206 785.93,-205.49 787.39,-204.96 788.85,-204.41"/>
<polygon fill="#63b8ff" stroke="#63b8ff" points="790.46,-207.54 798.49,-200.63 787.91,-201.02 790.46,-207.54"/>
</a>
</g>
</g>
<!-- Node20 -->
<g id="Node000020" class="node">
<title>Node20</title>
<g id="a_Node000020"><a xlink:title=" ">
<polygon fill="#e0e0e0" stroke="#999999" points="925.5,-200.5 861.5,-200.5 861.5,-181.5 925.5,-181.5 925.5,-200.5"/>
<text text-anchor="middle" x="893.5" y="-188.5" font-family="Helvetica,sans-Serif" font-size="10.00">algorithm</text>
</a>
</g>
</g>
<!-- Node17&#45;&gt;Node20 -->
<g id="edge25_Node000017_Node000020" class="edge">
<title>Node17&#45;&gt;Node20</title>
<g id="a_edge25_Node000017_Node000020"><a xlink:title=" ">
<path fill="none" stroke="#63b8ff" d="M686.35,-241.96C730.6,-234.07 796.28,-221.3 852.5,-206 855.13,-205.28 857.84,-204.49 860.55,-203.65"/>
<polygon fill="#63b8ff" stroke="#63b8ff" points="861.81,-206.93 870.24,-200.51 859.65,-200.27 861.81,-206.93"/>
</a>
</g>
</g>
<!-- Node21 -->
<g id="Node000021" class="node">
<title>Node21</title>
<g id="a_Node000021"><a xlink:title=" ">
<polygon fill="#e0e0e0" stroke="#999999" points="663.5,-200.5 607.5,-200.5 607.5,-181.5 663.5,-181.5 663.5,-200.5"/>
<text text-anchor="middle" x="635.5" y="-188.5" font-family="Helvetica,sans-Serif" font-size="10.00">numeric</text>
</a>
</g>
</g>
<!-- Node17&#45;&gt;Node21 -->
<g id="edge26_Node000017_Node000021" class="edge">
<title>Node17&#45;&gt;Node21</title>
<g id="a_edge26_Node000017_Node000021"><a xlink:title=" ">
<path fill="none" stroke="#63b8ff" d="M635.5,-241.87C635.5,-233.75 635.5,-221.31 635.5,-210.89"/>
<polygon fill="#63b8ff" stroke="#63b8ff" points="639,-210.67 635.5,-200.67 632,-210.67 639,-210.67"/>
</a>
</g>
</g>
<!-- Node22 -->
<g id="Node000022" class="node">
<title>Node22</title>
<g id="a_Node000022"><a xlink:href="logger_8h.html" target="_top" xlink:title=" ">
<polygon fill="white" stroke="#666666" points="917,-140 834,-140 834,-121 917,-121 917,-140"/>
<text text-anchor="middle" x="875.5" y="-128" font-family="Helvetica,sans-Serif" font-size="10.00">tools/logger.h</text>
</a>
</g>
</g>
<!-- Node17&#45;&gt;Node22 -->
<g id="edge28_Node000017_Node000022" class="edge">
<title>Node17&#45;&gt;Node22</title>
<g id="a_edge28_Node000017_Node000022"><a xlink:title=" ">
<path fill="none" stroke="#63b8ff" d="M693.04,-250.48C770.99,-249.09 903.96,-241.43 934.5,-206 943.21,-195.9 940.45,-187.93 934.5,-176 927.93,-162.82 915.4,-152.52 903.57,-145.16"/>
<polygon fill="#63b8ff" stroke="#63b8ff" points="905.18,-142.05 894.77,-140.1 901.7,-148.12 905.18,-142.05"/>
</a>
</g>
</g>
<!-- Node30 -->
<g id="Node000030" class="node">
<title>Node30</title>
<g id="a_Node000030"><a xlink:href="element__parameters_8h.html" target="_top" xlink:title=" ">
<polygon fill="white" stroke="#666666" points="589,-206 458,-206 458,-176 589,-176 589,-206"/>
<text text-anchor="start" x="466" y="-194" font-family="Helvetica,sans-Serif" font-size="10.00">element_parameters</text>
<text text-anchor="middle" x="523.5" y="-183" font-family="Helvetica,sans-Serif" font-size="10.00">/element_parameters.h</text>
</a>
</g>
</g>
<!-- Node17&#45;&gt;Node30 -->
<g id="edge43_Node000017_Node000030" class="edge">
<title>Node17&#45;&gt;Node30</title>
<g id="a_edge43_Node000017_Node000030"><a xlink:title=" ">
<path fill="none" stroke="#63b8ff" d="M618.97,-241.87C603.35,-233.71 579.4,-221.2 559.39,-210.75"/>
<polygon fill="#63b8ff" stroke="#63b8ff" points="561.01,-207.64 550.52,-206.11 557.77,-213.85 561.01,-207.64"/>
</a>
</g>
</g>
<!-- Node22&#45;&gt;Node4 -->
<g id="edge30_Node000022_Node000004" class="edge">
<title>Node22&#45;&gt;Node4</title>
<g id="a_edge30_Node000022_Node000004"><a xlink:title=" ">
<path fill="none" stroke="#63b8ff" d="M838.05,-120.98C801.14,-112.44 743.22,-98.63 693.5,-85 616.41,-63.87 526.74,-35.67 480.2,-20.75"/>
<polygon fill="#63b8ff" stroke="#63b8ff" points="481.27,-17.42 470.68,-17.69 479.13,-24.09 481.27,-17.42"/>
</a>
</g>
</g>
<!-- Node22&#45;&gt;Node10 -->
<g id="edge34_Node000022_Node000010" class="edge">
<title>Node22&#45;&gt;Node10</title>
<g id="a_edge34_Node000022_Node000010"><a xlink:title=" ">
<path fill="none" stroke="#63b8ff" d="M833.91,-126.48C705.17,-117.12 311.86,-88.54 145.77,-76.47"/>
<polygon fill="#63b8ff" stroke="#63b8ff" points="145.87,-72.97 135.65,-75.73 145.37,-79.95 145.87,-72.97"/>
</a>
</g>
</g>
<!-- Node22&#45;&gt;Node16 -->
<g id="edge31_Node000022_Node000016" class="edge">
<title>Node22&#45;&gt;Node16</title>
<g id="a_edge31_Node000022_Node000016"><a xlink:title=" ">
<path fill="none" stroke="#63b8ff" d="M833.92,-129.11C797.36,-126.49 745.17,-116.85 713.5,-85 698.92,-70.34 694.65,-46.27 693.56,-29.47"/>
<polygon fill="#63b8ff" stroke="#63b8ff" points="697.05,-29.08 693.23,-19.2 690.06,-29.31 697.05,-29.08"/>
</a>
</g>
</g>
<!-- Node23 -->
<g id="Node000023" class="node">
<title>Node23</title>
<g id="a_Node000023"><a xlink:title=" ">
<polygon fill="#e0e0e0" stroke="#999999" points="1075.5,-79.5 1015.5,-79.5 1015.5,-60.5 1075.5,-60.5 1075.5,-79.5"/>
<text text-anchor="middle" x="1045.5" y="-67.5" font-family="Helvetica,sans-Serif" font-size="10.00">iostream</text>
</a>
</g>
</g>
<!-- Node22&#45;&gt;Node23 -->
<g id="edge29_Node000022_Node000023" class="edge">
<title>Node22&#45;&gt;Node23</title>
<g id="a_edge29_Node000022_Node000023"><a xlink:title=" ">
<path fill="none" stroke="#63b8ff" d="M900.22,-120.99C929.43,-110.94 978.2,-94.16 1011.09,-82.84"/>
<polygon fill="#63b8ff" stroke="#63b8ff" points="1012.43,-86.08 1020.75,-79.52 1010.16,-79.46 1012.43,-86.08"/>
</a>
</g>
</g>
<!-- Node24 -->
<g id="Node000024" class="node">
<title>Node24</title>
<g id="a_Node000024"><a xlink:title=" ">
<polygon fill="#e0e0e0" stroke="#999999" points="903.5,-79.5 847.5,-79.5 847.5,-60.5 903.5,-60.5 903.5,-79.5"/>
<text text-anchor="middle" x="875.5" y="-67.5" font-family="Helvetica,sans-Serif" font-size="10.00">iomanip</text>
</a>
</g>
</g>
<!-- Node22&#45;&gt;Node24 -->
<g id="edge32_Node000022_Node000024" class="edge">
<title>Node22&#45;&gt;Node24</title>
<g id="a_edge32_Node000022_Node000024"><a xlink:title=" ">
<path fill="none" stroke="#63b8ff" d="M875.5,-120.87C875.5,-112.75 875.5,-100.31 875.5,-89.89"/>
<polygon fill="#63b8ff" stroke="#63b8ff" points="879,-89.67 875.5,-79.67 872,-89.67 879,-89.67"/>
</a>
</g>
</g>
<!-- Node25 -->
<g id="Node000025" class="node">
<title>Node25</title>
<g id="a_Node000025"><a xlink:title=" ">
<polygon fill="#e0e0e0" stroke="#999999" points="829,-85 722,-85 722,-55 829,-55 829,-85"/>
<text text-anchor="start" x="730" y="-73" font-family="Helvetica,sans-Serif" font-size="10.00">imgui&#45;platform&#45;kit</text>
<text text-anchor="middle" x="775.5" y="-62" font-family="Helvetica,sans-Serif" font-size="10.00">/log_window.h</text>
</a>
</g>
</g>
<!-- Node22&#45;&gt;Node25 -->
<g id="edge33_Node000022_Node000025" class="edge">
<title>Node22&#45;&gt;Node25</title>
<g id="a_edge33_Node000022_Node000025"><a xlink:title=" ">
<path fill="none" stroke="#63b8ff" d="M860.74,-120.87C847.05,-112.86 826.18,-100.65 808.52,-90.31"/>
<polygon fill="#63b8ff" stroke="#63b8ff" points="810.03,-87.14 799.63,-85.11 806.49,-93.19 810.03,-87.14"/>
</a>
</g>
</g>
<!-- Node22&#45;&gt;Node26 -->
<g id="edge35_Node000022_Node000026" class="edge">
<title>Node22&#45;&gt;Node26</title>
<g id="a_edge35_Node000022_Node000026"><a xlink:title=" ">
<path fill="none" stroke="#63b8ff" d="M885.83,-120.87C896.69,-111.8 913.99,-97.34 927.17,-86.32"/>
<polygon fill="#63b8ff" stroke="#63b8ff" points="929.7,-88.77 935.13,-79.67 925.21,-83.39 929.7,-88.77"/>
</a>
</g>
</g>
<!-- Node26&#45;&gt;Node3 -->
<g id="edge37_Node000026_Node000003" class="edge">
<title>Node26&#45;&gt;Node3</title>
<g id="a_edge37_Node000026_Node000003"><a xlink:title=" ">
<path fill="none" stroke="#63b8ff" d="M969.24,-63.49C980.52,-60.89 994.2,-57.75 1006.5,-55 1066.54,-41.56 1136.64,-26.38 1177.07,-17.68"/>
<polygon fill="#63b8ff" stroke="#63b8ff" points="1177.88,-21.08 1186.92,-15.56 1176.41,-14.24 1177.88,-21.08"/>
</a>
</g>
</g>
<!-- Node26&#45;&gt;Node4 -->
<g id="edge36_Node000026_Node000004" class="edge">
<title>Node26&#45;&gt;Node4</title>
<g id="a_edge36_Node000026_Node000004"><a xlink:title=" ">
<path fill="none" stroke="#63b8ff" d="M928.04,-60.4C923.12,-58.31 917.69,-56.3 912.5,-55 741.53,-12.06 692.78,-37.78 517.5,-19 505.46,-17.71 492.27,-16.13 480.67,-14.68"/>
<polygon fill="#63b8ff" stroke="#63b8ff" points="480.9,-11.18 470.54,-13.4 480.02,-18.12 480.9,-11.18"/>
</a>
</g>
</g>
<!-- Node26&#45;&gt;Node15 -->
<g id="edge42_Node000026_Node000015" class="edge">
<title>Node26&#45;&gt;Node15</title>
<g id="a_edge42_Node000026_Node000015"><a xlink:title=" ">
<path fill="none" stroke="#63b8ff" d="M927.66,-60.38C922.84,-58.34 917.55,-56.36 912.5,-55 855.44,-39.61 686.16,-22.29 604.94,-14.58"/>
<polygon fill="#63b8ff" stroke="#63b8ff" points="604.84,-11.05 594.55,-13.6 604.18,-18.02 604.84,-11.05"/>
</a>
</g>
</g>
<!-- Node26&#45;&gt;Node16 -->
<g id="edge41_Node000026_Node000016" class="edge">
<title>Node26&#45;&gt;Node16</title>
<g id="a_edge41_Node000026_Node000016"><a xlink:title=" ">
<path fill="none" stroke="#63b8ff" d="M927.24,-60.48C922.51,-58.49 917.37,-56.51 912.5,-55 849,-35.3 772.38,-22.03 728.66,-15.41"/>
<polygon fill="#63b8ff" stroke="#63b8ff" points="728.95,-11.92 718.54,-13.91 727.92,-18.84 728.95,-11.92"/>
</a>
</g>
</g>
<!-- Node27 -->
<g id="Node000027" class="node">
<title>Node27</title>
<g id="a_Node000027"><a xlink:title=" ">
<polygon fill="#e0e0e0" stroke="#999999" points="899.5,-19 845.5,-19 845.5,0 899.5,0 899.5,-19"/>
<text text-anchor="middle" x="872.5" y="-7" font-family="Helvetica,sans-Serif" font-size="10.00">random</text>
</a>
</g>
</g>
<!-- Node26&#45;&gt;Node27 -->
<g id="edge38_Node000026_Node000027" class="edge">
<title>Node26&#45;&gt;Node27</title>
<g id="a_edge38_Node000026_Node000027"><a xlink:title=" ">
<path fill="none" stroke="#63b8ff" d="M934.73,-60.37C923.3,-51.21 905.02,-36.56 891.22,-25.51"/>
<polygon fill="#63b8ff" stroke="#63b8ff" points="893.31,-22.69 883.32,-19.17 888.93,-28.15 893.31,-22.69"/>
</a>
</g>
</g>
<!-- Node28 -->
<g id="Node000028" class="node">
<title>Node28</title>
<g id="a_Node000028"><a xlink:title=" ">
<polygon fill="#e0e0e0" stroke="#999999" points="973.5,-19 917.5,-19 917.5,0 973.5,0 973.5,-19"/>
<text text-anchor="middle" x="945.5" y="-7" font-family="Helvetica,sans-Serif" font-size="10.00">sstream</text>
</a>
</g>
</g>
<!-- Node26&#45;&gt;Node28 -->
<g id="edge39_Node000026_Node000028" class="edge">
<title>Node26&#45;&gt;Node28</title>
<g id="a_edge39_Node000026_Node000028"><a xlink:title=" ">
<path fill="none" stroke="#63b8ff" d="M945.5,-60.37C945.5,-52.25 945.5,-39.81 945.5,-29.39"/>
<polygon fill="#63b8ff" stroke="#63b8ff" points="949,-29.17 945.5,-19.17 942,-29.17 949,-29.17"/>
</a>
</g>
</g>
<!-- Node29 -->
<g id="Node000029" class="node">
<title>Node29</title>
<g id="a_Node000029"><a xlink:title=" ">
<polygon fill="#e0e0e0" stroke="#999999" points="1047,-19 992,-19 992,0 1047,0 1047,-19"/>
<text text-anchor="middle" x="1019.5" y="-7" font-family="Helvetica,sans-Serif" font-size="10.00">fstream</text>
</a>
</g>
</g>
<!-- Node26&#45;&gt;Node29 -->
<g id="edge40_Node000026_Node000029" class="edge">
<title>Node26&#45;&gt;Node29</title>
<g id="a_edge40_Node000026_Node000029"><a xlink:title=" ">
<path fill="none" stroke="#63b8ff" d="M956.42,-60.37C968.01,-51.21 986.53,-36.56 1000.52,-25.51"/>
<polygon fill="#63b8ff" stroke="#63b8ff" points="1002.86,-28.11 1008.54,-19.17 998.52,-22.62 1002.86,-28.11"/>
</a>
</g>
</g>
<!-- Node30&#45;&gt;Node4 -->
<g id="edge45_Node000030_Node000004" class="edge">
<title>Node30&#45;&gt;Node4</title>
<g id="a_edge45_Node000030_Node000004"><a xlink:title=" ">
<path fill="none" stroke="#63b8ff" d="M510.69,-175.59C502.78,-166.05 492.94,-152.96 486.5,-140 467.97,-102.71 456.85,-54.79 451.79,-28.97"/>
<polygon fill="#63b8ff" stroke="#63b8ff" points="455.21,-28.25 449.93,-19.06 448.33,-29.53 455.21,-28.25"/>
</a>
</g>
</g>
<!-- Node30&#45;&gt;Node22 -->
<g id="edge47_Node000030_Node000022" class="edge">
<title>Node30&#45;&gt;Node22</title>
<g id="a_edge47_Node000030_Node000022"><a xlink:title=" ">
<path fill="none" stroke="#63b8ff" d="M589.33,-177.61C592.43,-177.06 595.5,-176.52 598.5,-176 676.88,-162.39 768,-148.03 823.7,-139.42"/>
<polygon fill="#63b8ff" stroke="#63b8ff" points="824.33,-142.87 833.68,-137.88 823.26,-135.95 824.33,-142.87"/>
</a>
</g>
</g>
<!-- Node31 -->
<g id="Node000031" class="node">
<title>Node31</title>
<g id="a_Node000031"><a xlink:title=" ">
<polygon fill="#e0e0e0" stroke="#999999" points="601.5,-140 563.5,-140 563.5,-121 601.5,-121 601.5,-140"/>
<text text-anchor="middle" x="582.5" y="-128" font-family="Helvetica,sans-Serif" font-size="10.00">map</text>
</a>
</g>
</g>
<!-- Node30&#45;&gt;Node31 -->
<g id="edge44_Node000030_Node000031" class="edge">
<title>Node30&#45;&gt;Node31</title>
<g id="a_edge44_Node000030_Node000031"><a xlink:title=" ">
<path fill="none" stroke="#63b8ff" d="M537.78,-175.84C546.43,-167.26 557.49,-156.3 566.44,-147.42"/>
<polygon fill="#63b8ff" stroke="#63b8ff" points="569.02,-149.79 573.66,-140.27 564.09,-144.82 569.02,-149.79"/>
</a>
</g>
</g>
<!-- Node32 -->
<g id="Node000032" class="node">
<title>Node32</title>
<g id="a_Node000032"><a xlink:title=" ">
<polygon fill="#e0e0e0" stroke="#999999" points="545.5,-140 495.5,-140 495.5,-121 545.5,-121 545.5,-140"/>
<text text-anchor="middle" x="520.5" y="-128" font-family="Helvetica,sans-Serif" font-size="10.00">format</text>
</a>
</g>
</g>
<!-- Node30&#45;&gt;Node32 -->
<g id="edge46_Node000030_Node000032" class="edge">
<title>Node30&#45;&gt;Node32</title>
<g id="a_edge46_Node000030_Node000032"><a xlink:title=" ">
<path fill="none" stroke="#63b8ff" d="M522.77,-175.84C522.38,-168.21 521.9,-158.7 521.47,-150.45"/>
<polygon fill="#63b8ff" stroke="#63b8ff" points="524.96,-150.07 520.95,-140.27 517.97,-150.43 524.96,-150.07"/>
</a>
</g>
</g>
<!-- Node33&#45;&gt;Node3 -->
<g id="edge52_Node000033_Node000003" class="edge">
<title>Node33&#45;&gt;Node3</title>
<g id="a_edge52_Node000033_Node000003"><a xlink:title=" ">
<path fill="none" stroke="#63b8ff" d="M1176.33,-357.5C1226.96,-344.48 1305.5,-314.32 1305.5,-252.5 1305.5,-252.5 1305.5,-252.5 1305.5,-129.5 1305.5,-83.22 1261.08,-44.59 1232.99,-24.79"/>
<polygon fill="#63b8ff" stroke="#63b8ff" points="1234.76,-21.76 1224.52,-19.03 1230.82,-27.55 1234.76,-21.76"/>
</a>
</g>
</g>
<!-- Node33&#45;&gt;Node10 -->
<g id="edge54_Node000033_Node000010" class="edge">
<title>Node33&#45;&gt;Node10</title>
<g id="a_edge54_Node000033_Node000010"><a xlink:title=" ">
<path fill="none" stroke="#63b8ff" d="M1057.94,-364.21C926.68,-360.33 650.51,-348.72 419.5,-316 304.28,-299.68 255.83,-331.84 163.5,-261 106.2,-217.04 82.05,-128.5 73.94,-89.81"/>
<polygon fill="#63b8ff" stroke="#63b8ff" points="77.28,-88.65 71.92,-79.51 70.41,-89.99 77.28,-88.65"/>
</a>
</g>
</g>
<!-- Node33&#45;&gt;Node13 -->
<g id="edge53_Node000033_Node000013" class="edge">
<title>Node33&#45;&gt;Node13</title>
<g id="a_edge53_Node000033_Node000013"><a xlink:title=" ">
<path fill="none" stroke="#63b8ff" d="M1057.94,-359C934.66,-347.73 693.58,-325.7 570.6,-314.46"/>
<polygon fill="#63b8ff" stroke="#63b8ff" points="570.79,-310.96 560.51,-313.53 570.15,-317.93 570.79,-310.96"/>
</a>
</g>
</g>
<!-- Node33&#45;&gt;Node22 -->
<g id="edge61_Node000033_Node000022" class="edge">
<title>Node33&#45;&gt;Node22</title>
<g id="a_edge61_Node000033_Node000022"><a xlink:title=" ">
<path fill="none" stroke="#63b8ff" d="M1158.48,-357.48C1176.38,-349.71 1199.56,-336.3 1210.5,-316 1226.11,-287.05 1226.93,-270.49 1210.5,-242 1181.26,-191.28 1151.26,-196.72 1096.5,-176 1040.69,-154.88 972.97,-143.13 927.32,-137.09"/>
<polygon fill="#63b8ff" stroke="#63b8ff" points="927.72,-133.61 917.35,-135.81 926.83,-140.55 927.72,-133.61"/>
</a>
</g>
</g>
<!-- Node33&#45;&gt;Node23 -->
<g id="edge51_Node000033_Node000023" class="edge">
<title>Node33&#45;&gt;Node23</title>
<g id="a_edge51_Node000033_Node000023"><a xlink:title=" ">
<path fill="none" stroke="#63b8ff" d="M1169.04,-357.39C1190.21,-350.13 1215.65,-337.39 1228.5,-316 1245.44,-287.81 1241.6,-272.17 1228.5,-242 1195.82,-166.73 1111.86,-109.5 1070,-84.63"/>
<polygon fill="#63b8ff" stroke="#63b8ff" points="1071.67,-81.55 1061.26,-79.54 1068.15,-87.6 1071.67,-81.55"/>
</a>
</g>
</g>
<!-- Node34 -->
<g id="Node000034" class="node">
<title>Node34</title>
<g id="a_Node000034"><a xlink:href="plot_8h.html" target="_top" xlink:title=" ">
<polygon fill="white" stroke="#666666" points="1201.5,-261 1157.5,-261 1157.5,-242 1201.5,-242 1201.5,-261"/>
<text text-anchor="middle" x="1179.5" y="-249" font-family="Helvetica,sans-Serif" font-size="10.00">plot.h</text>
</a>
</g>
</g>
<!-- Node33&#45;&gt;Node34 -->
<g id="edge55_Node000033_Node000034" class="edge">
<title>Node33&#45;&gt;Node34</title>
<g id="a_edge55_Node000033_Node000034"><a xlink:title=" ">
<path fill="none" stroke="#63b8ff" d="M1057.85,-365.39C977.46,-362.08 868.47,-348.43 912.5,-297 946.29,-257.54 1092.51,-270.98 1143.5,-261 1144.78,-260.75 1146.08,-260.49 1147.39,-260.21"/>
<polygon fill="#63b8ff" stroke="#63b8ff" points="1148.46,-263.56 1157.47,-257.99 1146.95,-256.72 1148.46,-263.56"/>
</a>
</g>
</g>
<!-- Node36 -->
<g id="Node000036" class="node">
<title>Node36</title>
<g id="a_Node000036"><a xlink:href="lineplot_8h.html" target="_top" xlink:title=" ">
<polygon fill="white" stroke="#666666" points="1049.5,-316 921.5,-316 921.5,-297 1049.5,-297 1049.5,-316"/>
<text text-anchor="middle" x="985.5" y="-304" font-family="Helvetica,sans-Serif" font-size="10.00">visualization/lineplot.h</text>
</a>
</g>
</g>
<!-- Node33&#45;&gt;Node36 -->
<g id="edge62_Node000033_Node000036" class="edge">
<title>Node33&#45;&gt;Node36</title>
<g id="a_edge62_Node000033_Node000036"><a xlink:title=" ">
<path fill="none" stroke="#63b8ff" d="M1112.83,-357.49C1087.56,-347.57 1045.59,-331.09 1016.78,-319.78"/>
<polygon fill="#63b8ff" stroke="#63b8ff" points="1017.78,-316.41 1007.19,-316.02 1015.22,-322.93 1017.78,-316.41"/>
</a>
</g>
</g>
<!-- Node37 -->
<g id="Node000037" class="node">
<title>Node37</title>
<g id="a_Node000037"><a xlink:href="heatmap_8h.html" target="_top" xlink:title=" ">
<polygon fill="white" stroke="#666666" points="1201.5,-316 1067.5,-316 1067.5,-297 1201.5,-297 1201.5,-316"/>
<text text-anchor="middle" x="1134.5" y="-304" font-family="Helvetica,sans-Serif" font-size="10.00">visualization/heatmap.h</text>
</a>
</g>
</g>
<!-- Node33&#45;&gt;Node37 -->
<g id="edge64_Node000033_Node000037" class="edge">
<title>Node33&#45;&gt;Node37</title>
<g id="a_edge64_Node000033_Node000037"><a xlink:title=" ">
<path fill="none" stroke="#63b8ff" d="M1134.5,-357.37C1134.5,-349.25 1134.5,-336.81 1134.5,-326.39"/>
<polygon fill="#63b8ff" stroke="#63b8ff" points="1138,-326.17 1134.5,-316.17 1131,-326.17 1138,-326.17"/>
</a>
</g>
</g>
<!-- Node35 -->
<g id="Node000035" class="node">
<title>Node35</title>
<g id="a_Node000035"><a xlink:href="plot__parameters_8h.html" target="_top" xlink:title=" ">
<polygon fill="white" stroke="#666666" points="1087.5,-200.5 981.5,-200.5 981.5,-181.5 1087.5,-181.5 1087.5,-200.5"/>
<text text-anchor="middle" x="1034.5" y="-188.5" font-family="Helvetica,sans-Serif" font-size="10.00">plot_parameters.h</text>
</a>
</g>
</g>
<!-- Node34&#45;&gt;Node35 -->
<g id="edge56_Node000034_Node000035" class="edge">
<title>Node34&#45;&gt;Node35</title>
<g id="a_edge56_Node000034_Node000035"><a xlink:title=" ">
<path fill="none" stroke="#63b8ff" d="M1158.42,-241.99C1133.82,-232.07 1092.97,-215.59 1064.94,-204.28"/>
<polygon fill="#63b8ff" stroke="#63b8ff" points="1066.19,-201.01 1055.61,-200.52 1063.57,-207.5 1066.19,-201.01"/>
</a>
</g>
</g>
<!-- Node35&#45;&gt;Node3 -->
<g id="edge59_Node000035_Node000003" class="edge">
<title>Node35&#45;&gt;Node3</title>
<g id="a_edge59_Node000035_Node000003"><a xlink:title=" ">
<path fill="none" stroke="#63b8ff" d="M1042.99,-181.34C1070.69,-153.09 1158.76,-63.27 1194.85,-26.46"/>
<polygon fill="#63b8ff" stroke="#63b8ff" points="1197.59,-28.66 1202.1,-19.07 1192.6,-23.76 1197.59,-28.66"/>
</a>
</g>
</g>
<!-- Node35&#45;&gt;Node4 -->
<g id="edge58_Node000035_Node000004" class="edge">
<title>Node35&#45;&gt;Node4</title>
<g id="a_edge58_Node000035_Node000004"><a xlink:title=" ">
<path fill="none" stroke="#63b8ff" d="M981.22,-182.12C896.06,-168.5 724.89,-136.93 587.5,-85 543.97,-68.55 496.97,-41.1 470.3,-24.51"/>
<polygon fill="#63b8ff" stroke="#63b8ff" points="472.08,-21.5 461.75,-19.13 468.35,-27.42 472.08,-21.5"/>
</a>
</g>
</g>
<!-- Node35&#45;&gt;Node22 -->
<g id="edge60_Node000035_Node000022" class="edge">
<title>Node35&#45;&gt;Node22</title>
<g id="a_edge60_Node000035_Node000022"><a xlink:title=" ">
<path fill="none" stroke="#63b8ff" d="M1011.38,-181.49C984.18,-171.49 938.83,-154.8 908.08,-143.49"/>
<polygon fill="#63b8ff" stroke="#63b8ff" points="909.24,-140.18 898.65,-140.02 906.82,-146.75 909.24,-140.18"/>
</a>
</g>
</g>
<!-- Node35&#45;&gt;Node31 -->
<g id="edge57_Node000035_Node000031" class="edge">
<title>Node35&#45;&gt;Node31</title>
<g id="a_edge57_Node000035_Node000031"><a xlink:title=" ">
<path fill="none" stroke="#63b8ff" d="M981.34,-182.29C966.22,-180.17 949.72,-177.92 934.5,-176 792.95,-158.11 755.82,-165.86 615.5,-140 614.22,-139.76 612.92,-139.51 611.61,-139.23"/>
<polygon fill="#63b8ff" stroke="#63b8ff" points="612.13,-135.76 601.59,-136.9 610.54,-142.58 612.13,-135.76"/>
</a>
</g>
</g>
<!-- Node36&#45;&gt;Node34 -->
<g id="edge63_Node000036_Node000034" class="edge">
<title>Node36&#45;&gt;Node34</title>
<g id="a_edge63_Node000036_Node000034"><a xlink:title=" ">
<path fill="none" stroke="#63b8ff" d="M1016.67,-296.98C1052.54,-287.18 1111.16,-271.17 1147.42,-261.26"/>
<polygon fill="#63b8ff" stroke="#63b8ff" points="1148.73,-264.53 1157.46,-258.52 1146.89,-257.78 1148.73,-264.53"/>
</a>
</g>
</g>
<!-- Node37&#45;&gt;Node34 -->
<g id="edge65_Node000037_Node000034" class="edge">
<title>Node37&#45;&gt;Node34</title>
<g id="a_edge65_Node000037_Node000034"><a xlink:title=" ">
<path fill="none" stroke="#63b8ff" d="M1141.93,-296.75C1148.35,-289.18 1157.81,-278.05 1165.62,-268.84"/>
<polygon fill="#63b8ff" stroke="#63b8ff" points="1168.4,-270.98 1172.21,-261.09 1163.07,-266.45 1168.4,-270.98"/>
</a>
</g>
</g>
<!-- Node39 -->
<g id="Node000039" class="node">
<title>Node39</title>
<g id="a_Node000039"><a xlink:title=" ">
<polygon fill="#e0e0e0" stroke="#999999" points="1440,-316 1387,-316 1387,-297 1440,-297 1440,-316"/>
<text text-anchor="middle" x="1413.5" y="-304" font-family="Helvetica,sans-Serif" font-size="10.00">imgui.h</text>
</a>
</g>
</g>
<!-- Node38&#45;&gt;Node39 -->
<g id="edge67_Node000038_Node000039" class="edge">
<title>Node38&#45;&gt;Node39</title>
<g id="a_edge67_Node000038_Node000039"><a xlink:title=" ">
<path fill="none" stroke="#63b8ff" d="M1413.5,-351.84C1413.5,-344.21 1413.5,-334.7 1413.5,-326.45"/>
<polygon fill="#63b8ff" stroke="#63b8ff" points="1417,-326.27 1413.5,-316.27 1410,-326.27 1417,-326.27"/>
</a>
</g>
</g>
</g>
</svg>
