<?xml version="1.0" encoding="UTF-8" standalone="no"?>
<!DOCTYPE svg PUBLIC "-//W3C//DTD SVG 1.1//EN"
 "http://www.w3.org/Graphics/SVG/1.1/DTD/svg11.dtd">
<!-- Generated by graphviz version 2.43.0 (0)
 -->
<!-- Title: src/user_interface/log_window.cpp Pages: 1 -->
<svg width="1351pt" height="588pt"
 viewBox="0.00 0.00 1351.00 588.00" xmlns="http://www.w3.org/2000/svg" xmlns:xlink="http://www.w3.org/1999/xlink">
<g id="graph0" class="graph" transform="scale(1 1) rotate(0) translate(4 584)">
<title>src/user_interface/log_window.cpp</title>
<!-- Node1 -->
<g id="Node000001" class="node">
<title>Node1</title>
<g id="a_Node000001"><a xlink:title=" ">
<polygon fill="#999999" stroke="#666666" points="933,-580 829,-580 829,-550 933,-550 933,-580"/>
<text text-anchor="start" x="837" y="-568" font-family="Helvetica,sans-Serif" font-size="10.00">src/user_interface</text>
<text text-anchor="middle" x="881" y="-557" font-family="Helvetica,sans-Serif" font-size="10.00">/log_window.cpp</text>
</a>
</g>
</g>
<!-- Node2 -->
<g id="Node000002" class="node">
<title>Node2</title>
<g id="a_Node000002"><a xlink:href="log__window_8h.html" target="_top" xlink:title=" ">
<polygon fill="white" stroke="#666666" points="933,-514 829,-514 829,-484 933,-484 933,-514"/>
<text text-anchor="start" x="837" y="-502" font-family="Helvetica,sans-Serif" font-size="10.00">user_interface/log</text>
<text text-anchor="middle" x="881" y="-491" font-family="Helvetica,sans-Serif" font-size="10.00">_window.h</text>
</a>
</g>
</g>
<!-- Node1&#45;&gt;Node2 -->
<g id="edge1_Node000001_Node000002" class="edge">
<title>Node1&#45;&gt;Node2</title>
<g id="a_edge1_Node000001_Node000002"><a xlink:title=" ">
<path fill="none" stroke="#63b8ff" d="M881,-549.8C881,-542.34 881,-532.99 881,-524.41"/>
<polygon fill="#63b8ff" stroke="#63b8ff" points="884.5,-524.16 881,-514.16 877.5,-524.16 884.5,-524.16"/>
</a>
</g>
</g>
<!-- Node3 -->
<g id="Node000003" class="node">
<title>Node3</title>
<g id="a_Node000003"><a xlink:title=" ">
<polygon fill="#e0e0e0" stroke="#999999" points="116.5,-19 69.5,-19 69.5,0 116.5,0 116.5,-19"/>
<text text-anchor="middle" x="93" y="-7" font-family="Helvetica,sans-Serif" font-size="10.00">vector</text>
</a>
</g>
</g>
<!-- Node2&#45;&gt;Node3 -->
<g id="edge2_Node000002_Node000003" class="edge">
<title>Node2&#45;&gt;Node3</title>
<g id="a_edge2_Node000002_Node000003"><a xlink:title=" ">
<path fill="none" stroke="#63b8ff" d="M828.85,-495.84C639.6,-487.33 0,-452.31 0,-368 0,-368 0,-368 0,-129.5 0,-83.6 43.49,-44.83 70.99,-24.9"/>
<polygon fill="#63b8ff" stroke="#63b8ff" points="73.08,-27.7 79.28,-19.11 69.08,-21.97 73.08,-27.7"/>
</a>
</g>
</g>
<!-- Node4 -->
<g id="Node000004" class="node">
<title>Node4</title>
<g id="a_Node000004"><a xlink:title=" ">
<polygon fill="#e0e0e0" stroke="#999999" points="864,-19 820,-19 820,0 864,0 864,-19"/>
<text text-anchor="middle" x="842" y="-7" font-family="Helvetica,sans-Serif" font-size="10.00">string</text>
</a>
</g>
</g>
<!-- Node2&#45;&gt;Node4 -->
<g id="edge3_Node000002_Node000004" class="edge">
<title>Node2&#45;&gt;Node4</title>
<g id="a_edge3_Node000002_Node000004"><a xlink:title=" ">
<path fill="none" stroke="#63b8ff" d="M933.1,-494.39C1053.92,-484.6 1343,-452.36 1343,-368 1343,-368 1343,-368 1343,-129.5 1343,-77.92 1301.47,-75.2 1254,-55 1185.51,-25.86 958.61,-14.76 874.09,-11.57"/>
<polygon fill="#63b8ff" stroke="#63b8ff" points="874.18,-8.07 864.06,-11.2 873.92,-15.06 874.18,-8.07"/>
</a>
</g>
</g>
<!-- Node5 -->
<g id="Node000005" class="node">
<title>Node5</title>
<g id="a_Node000005"><a xlink:title=" ">
<polygon fill="#e0e0e0" stroke="#999999" points="907.5,-442.5 854.5,-442.5 854.5,-423.5 907.5,-423.5 907.5,-442.5"/>
<text text-anchor="middle" x="881" y="-430.5" font-family="Helvetica,sans-Serif" font-size="10.00">cstdarg</text>
</a>
</g>
</g>
<!-- Node2&#45;&gt;Node5 -->
<g id="edge4_Node000002_Node000005" class="edge">
<title>Node2&#45;&gt;Node5</title>
<g id="a_edge4_Node000002_Node000005"><a xlink:title=" ">
<path fill="none" stroke="#63b8ff" d="M881,-483.8C881,-474.7 881,-462.79 881,-452.9"/>
<polygon fill="#63b8ff" stroke="#63b8ff" points="884.5,-452.84 881,-442.84 877.5,-452.84 884.5,-452.84"/>
</a>
</g>
</g>
<!-- Node6 -->
<g id="Node000006" class="node">
<title>Node6</title>
<g id="a_Node000006"><a xlink:title=" ">
<polygon fill="#e0e0e0" stroke="#999999" points="1066,-448 926,-448 926,-418 1066,-418 1066,-448"/>
<text text-anchor="start" x="934" y="-436" font-family="Helvetica,sans-Serif" font-size="10.00">imgui&#45;platform&#45;kit</text>
<text text-anchor="middle" x="996" y="-425" font-family="Helvetica,sans-Serif" font-size="10.00">/user_interface_window.h</text>
</a>
</g>
</g>
<!-- Node2&#45;&gt;Node6 -->
<g id="edge5_Node000002_Node000006" class="edge">
<title>Node2&#45;&gt;Node6</title>
<g id="a_edge5_Node000002_Node000006"><a xlink:title=" ">
<path fill="none" stroke="#63b8ff" d="M906.24,-483.95C922.57,-474.87 944.02,-462.93 961.87,-453"/>
<polygon fill="#63b8ff" stroke="#63b8ff" points="963.79,-455.93 970.82,-448.01 960.38,-449.82 963.79,-455.93"/>
</a>
</g>
</g>
<!-- Node7 -->
<g id="Node000007" class="node">
<title>Node7</title>
<g id="a_Node000007"><a xlink:href="application_8h.html" target="_top" xlink:title=" ">
<polygon fill="white" stroke="#666666" points="836.5,-442.5 699.5,-442.5 699.5,-423.5 836.5,-423.5 836.5,-442.5"/>
<text text-anchor="middle" x="768" y="-430.5" font-family="Helvetica,sans-Serif" font-size="10.00">application/application.h</text>
</a>
</g>
</g>
<!-- Node2&#45;&gt;Node7 -->
<g id="edge6_Node000002_Node000007" class="edge">
<title>Node2&#45;&gt;Node7</title>
<g id="a_edge6_Node000002_Node000007"><a xlink:title=" ">
<path fill="none" stroke="#63b8ff" d="M856.2,-483.95C837.08,-473.13 810.8,-458.24 791.91,-447.54"/>
<polygon fill="#63b8ff" stroke="#63b8ff" points="793.46,-444.4 783.04,-442.52 790.01,-450.49 793.46,-444.4"/>
</a>
</g>
</g>
<!-- Node8 -->
<g id="Node000008" class="node">
<title>Node8</title>
<g id="a_Node000008"><a xlink:title=" ">
<polygon fill="#e0e0e0" stroke="#999999" points="749.5,-376.5 680.5,-376.5 680.5,-357.5 749.5,-357.5 749.5,-376.5"/>
<text text-anchor="middle" x="715" y="-364.5" font-family="Helvetica,sans-Serif" font-size="10.00">type_traits</text>
</a>
</g>
</g>
<!-- Node7&#45;&gt;Node8 -->
<g id="edge7_Node000007_Node000008" class="edge">
<title>Node7&#45;&gt;Node8</title>
<g id="a_edge7_Node000007_Node000008"><a xlink:title=" ">
<path fill="none" stroke="#63b8ff" d="M760.85,-423.37C752.68,-413.5 739.11,-397.11 728.84,-384.72"/>
<polygon fill="#63b8ff" stroke="#63b8ff" points="731.45,-382.37 722.37,-376.91 726.06,-386.84 731.45,-382.37"/>
</a>
</g>
</g>
<!-- Node9 -->
<g id="Node000009" class="node">
<title>Node9</title>
<g id="a_Node000009"><a xlink:title=" ">
<polygon fill="#e0e0e0" stroke="#999999" points="874.5,-382 767.5,-382 767.5,-352 874.5,-352 874.5,-382"/>
<text text-anchor="start" x="775.5" y="-370" font-family="Helvetica,sans-Serif" font-size="10.00">imgui&#45;platform&#45;kit</text>
<text text-anchor="middle" x="821" y="-359" font-family="Helvetica,sans-Serif" font-size="10.00">/user_interface.h</text>
</a>
</g>
</g>
<!-- Node7&#45;&gt;Node9 -->
<g id="edge8_Node000007_Node000009" class="edge">
<title>Node7&#45;&gt;Node9</title>
<g id="a_edge8_Node000007_Node000009"><a xlink:title=" ">
<path fill="none" stroke="#63b8ff" d="M775.15,-423.37C782.15,-414.91 793.12,-401.67 802.57,-390.25"/>
<polygon fill="#63b8ff" stroke="#63b8ff" points="805.43,-392.29 809.11,-382.36 800.03,-387.83 805.43,-392.29"/>
</a>
</g>
</g>
<!-- Node10 -->
<g id="Node000010" class="node">
<title>Node10</title>
<g id="a_Node000010"><a xlink:href="exception_8h.html" target="_top" xlink:title=" ">
<polygon fill="white" stroke="#666666" points="1245,-79.5 1115,-79.5 1115,-60.5 1245,-60.5 1245,-79.5"/>
<text text-anchor="middle" x="1180" y="-67.5" font-family="Helvetica,sans-Serif" font-size="10.00">exceptions/exception.h</text>
</a>
</g>
</g>
<!-- Node7&#45;&gt;Node10 -->
<g id="edge9_Node000007_Node000010" class="edge">
<title>Node7&#45;&gt;Node10</title>
<g id="a_edge9_Node000007_Node000010"><a xlink:title=" ">
<path fill="none" stroke="#63b8ff" d="M811.47,-423.48C822.39,-421.51 834.1,-419.54 845,-418 1002.47,-395.76 1052.23,-438.2 1201,-382 1254.19,-361.91 1305,-364.36 1305,-307.5 1305,-307.5 1305,-307.5 1305,-190 1305,-138.02 1247.59,-101.84 1210.58,-83.91"/>
<polygon fill="#63b8ff" stroke="#63b8ff" points="1211.75,-80.6 1201.2,-79.55 1208.79,-86.94 1211.75,-80.6"/>
</a>
</g>
</g>
<!-- Node12 -->
<g id="Node000012" class="node">
<title>Node12</title>
<g id="a_Node000012"><a xlink:href="simulation_8h.html" target="_top" xlink:title=" ">
<polygon fill="white" stroke="#666666" points="368,-316 236,-316 236,-297 368,-297 368,-316"/>
<text text-anchor="middle" x="302" y="-304" font-family="Helvetica,sans-Serif" font-size="10.00">simulation/simulation.h</text>
</a>
</g>
</g>
<!-- Node7&#45;&gt;Node12 -->
<g id="edge12_Node000007_Node000012" class="edge">
<title>Node7&#45;&gt;Node12</title>
<g id="a_edge12_Node000007_Node000012"><a xlink:title=" ">
<path fill="none" stroke="#63b8ff" d="M748.81,-423.45C728.79,-414.23 696.8,-398.62 671,-382 652.91,-370.35 652.81,-360.4 633,-352 588.48,-333.13 461.46,-319.96 378.35,-313.07"/>
<polygon fill="#63b8ff" stroke="#63b8ff" points="378.44,-309.57 368.19,-312.24 377.87,-316.54 378.44,-309.57"/>
</a>
</g>
</g>
<!-- Node32 -->
<g id="Node000032" class="node">
<title>Node32</title>
<g id="a_Node000032"><a xlink:href="visualization_8h.html" target="_top" xlink:title=" ">
<polygon fill="white" stroke="#666666" points="1045.5,-376.5 892.5,-376.5 892.5,-357.5 1045.5,-357.5 1045.5,-376.5"/>
<text text-anchor="middle" x="969" y="-364.5" font-family="Helvetica,sans-Serif" font-size="10.00">visualization/visualization.h</text>
</a>
</g>
</g>
<!-- Node7&#45;&gt;Node32 -->
<g id="edge49_Node000007_Node000032" class="edge">
<title>Node7&#45;&gt;Node32</title>
<g id="a_edge49_Node000007_Node000032"><a xlink:title=" ">
<path fill="none" stroke="#63b8ff" d="M795.11,-423.37C830.57,-412.08 892.84,-392.25 932.45,-379.64"/>
<polygon fill="#63b8ff" stroke="#63b8ff" points="933.53,-382.97 942,-376.6 931.41,-376.3 933.53,-382.97"/>
</a>
</g>
</g>
<!-- Node37 -->
<g id="Node000037" class="node">
<title>Node37</title>
<g id="a_Node000037"><a xlink:href="IconsFontAwesome6_8h.html" target="_top" xlink:title=" ">
<polygon fill="white" stroke="#666666" points="1192.5,-382 1063.5,-382 1063.5,-352 1192.5,-352 1192.5,-382"/>
<text text-anchor="start" x="1071.5" y="-370" font-family="Helvetica,sans-Serif" font-size="10.00">user_interface/fonts</text>
<text text-anchor="middle" x="1128" y="-359" font-family="Helvetica,sans-Serif" font-size="10.00">/IconsFontAwesome6.h</text>
</a>
</g>
</g>
<!-- Node7&#45;&gt;Node37 -->
<g id="edge65_Node000007_Node000037" class="edge">
<title>Node7&#45;&gt;Node37</title>
<g id="a_edge65_Node000007_Node000037"><a xlink:title=" ">
<path fill="none" stroke="#63b8ff" d="M814.41,-423.49C824.49,-421.66 835.1,-419.75 845,-418 934.73,-402.11 959.61,-398.96 1053.51,-382.07"/>
<polygon fill="#63b8ff" stroke="#63b8ff" points="1054.22,-385.5 1063.44,-380.28 1052.98,-378.61 1054.22,-385.5"/>
</a>
</g>
</g>
<!-- Node38 -->
<g id="Node000038" class="node">
<title>Node38</title>
<g id="a_Node000038"><a xlink:href="fa_8h.html" target="_top" xlink:title=" ">
<polygon fill="white" stroke="#666666" points="624,-376.5 488,-376.5 488,-357.5 624,-357.5 624,-376.5"/>
<text text-anchor="middle" x="556" y="-364.5" font-family="Helvetica,sans-Serif" font-size="10.00">user_interface/fonts/fa.h</text>
</a>
</g>
</g>
<!-- Node7&#45;&gt;Node38 -->
<g id="edge66_Node000007_Node000038" class="edge">
<title>Node7&#45;&gt;Node38</title>
<g id="a_edge66_Node000007_Node000038"><a xlink:title=" ">
<path fill="none" stroke="#63b8ff" d="M739.41,-423.37C701.92,-412.05 636.04,-392.16 594.28,-379.56"/>
<polygon fill="#63b8ff" stroke="#63b8ff" points="595.06,-376.14 584.48,-376.6 593.04,-382.84 595.06,-376.14"/>
</a>
</g>
</g>
<!-- Node39 -->
<g id="Node000039" class="node">
<title>Node39</title>
<g id="a_Node000039"><a xlink:href="imgui__freetype_8h.html" target="_top" xlink:title=" ">
<polygon fill="white" stroke="#666666" points="331,-382 217,-382 217,-352 331,-352 331,-382"/>
<text text-anchor="start" x="225" y="-370" font-family="Helvetica,sans-Serif" font-size="10.00">user_interface/fonts</text>
<text text-anchor="middle" x="274" y="-359" font-family="Helvetica,sans-Serif" font-size="10.00">/imgui_freetype.h</text>
</a>
</g>
</g>
<!-- Node7&#45;&gt;Node39 -->
<g id="edge67_Node000007_Node000039" class="edge">
<title>Node7&#45;&gt;Node39</title>
<g id="a_edge67_Node000007_Node000039"><a xlink:title=" ">
<path fill="none" stroke="#63b8ff" d="M702.15,-423.47C608.12,-411.29 436.29,-389.03 341.41,-376.73"/>
<polygon fill="#63b8ff" stroke="#63b8ff" points="341.72,-373.24 331.35,-375.43 340.82,-380.19 341.72,-373.24"/>
</a>
</g>
</g>
<!-- Node10&#45;&gt;Node4 -->
<g id="edge11_Node000010_Node000004" class="edge">
<title>Node10&#45;&gt;Node4</title>
<g id="a_edge11_Node000010_Node000004"><a xlink:title=" ">
<path fill="none" stroke="#63b8ff" d="M1130.85,-60.49C1060.55,-48.33 933.25,-26.29 873.97,-16.03"/>
<polygon fill="#63b8ff" stroke="#63b8ff" points="874.51,-12.57 864.06,-14.32 873.32,-19.47 874.51,-12.57"/>
</a>
</g>
</g>
<!-- Node11 -->
<g id="Node000011" class="node">
<title>Node11</title>
<g id="a_Node000011"><a xlink:title=" ">
<polygon fill="#e0e0e0" stroke="#999999" points="1212.5,-19 1147.5,-19 1147.5,0 1212.5,0 1212.5,-19"/>
<text text-anchor="middle" x="1180" y="-7" font-family="Helvetica,sans-Serif" font-size="10.00">exception</text>
</a>
</g>
</g>
<!-- Node10&#45;&gt;Node11 -->
<g id="edge10_Node000010_Node000011" class="edge">
<title>Node10&#45;&gt;Node11</title>
<g id="a_edge10_Node000010_Node000011"><a xlink:title=" ">
<path fill="none" stroke="#63b8ff" d="M1180,-60.37C1180,-52.25 1180,-39.81 1180,-29.39"/>
<polygon fill="#63b8ff" stroke="#63b8ff" points="1183.5,-29.17 1180,-19.17 1176.5,-29.17 1183.5,-29.17"/>
</a>
</g>
</g>
<!-- Node12&#45;&gt;Node3 -->
<g id="edge13_Node000012_Node000003" class="edge">
<title>Node12&#45;&gt;Node3</title>
<g id="a_edge13_Node000012_Node000003"><a xlink:title=" ">
<path fill="none" stroke="#63b8ff" d="M248.32,-296.98C192.13,-284.66 112,-255.88 112,-192 112,-192 112,-192 112,-129.5 112,-93.54 103.44,-52.23 97.81,-28.96"/>
<polygon fill="#63b8ff" stroke="#63b8ff" points="101.16,-27.93 95.33,-19.09 94.37,-29.64 101.16,-27.93"/>
</a>
</g>
</g>
<!-- Node12&#45;&gt;Node4 -->
<g id="edge15_Node000012_Node000004" class="edge">
<title>Node12&#45;&gt;Node4</title>
<g id="a_edge15_Node000012_Node000004"><a xlink:title=" ">
<path fill="none" stroke="#63b8ff" d="M298.56,-296.78C290.43,-274.6 272.47,-215.06 297,-176 362.87,-71.13 429.68,-91.56 548,-55 640.25,-26.49 754.63,-15.89 809.57,-12.24"/>
<polygon fill="#63b8ff" stroke="#63b8ff" points="809.98,-15.72 819.74,-11.6 809.54,-8.74 809.98,-15.72"/>
</a>
</g>
</g>
<!-- Node12&#45;&gt;Node10 -->
<g id="edge47_Node000012_Node000010" class="edge">
<title>Node12&#45;&gt;Node10</title>
<g id="a_edge47_Node000012_Node000010"><a xlink:title=" ">
<path fill="none" stroke="#63b8ff" d="M368.03,-303.55C537.13,-297.6 981.43,-275.59 1109,-206 1142.52,-187.72 1147,-174.19 1164,-140 1171.86,-124.19 1175.94,-104.4 1178,-90.08"/>
<polygon fill="#63b8ff" stroke="#63b8ff" points="1181.5,-90.29 1179.26,-79.94 1174.55,-89.43 1181.5,-90.29"/>
</a>
</g>
</g>
<!-- Node13 -->
<g id="Node000013" class="node">
<title>Node13</title>
<g id="a_Node000013"><a xlink:title=" ">
<polygon fill="#e0e0e0" stroke="#999999" points="364,-200.5 306,-200.5 306,-181.5 364,-181.5 364,-200.5"/>
<text text-anchor="middle" x="335" y="-188.5" font-family="Helvetica,sans-Serif" font-size="10.00">memory</text>
</a>
</g>
</g>
<!-- Node12&#45;&gt;Node13 -->
<g id="edge14_Node000012_Node000013" class="edge">
<title>Node12&#45;&gt;Node13</title>
<g id="a_edge14_Node000012_Node000013"><a xlink:title=" ">
<path fill="none" stroke="#63b8ff" d="M304.48,-296.97C309.81,-278.65 322.44,-235.18 329.68,-210.31"/>
<polygon fill="#63b8ff" stroke="#63b8ff" points="333.06,-211.21 332.49,-200.63 326.34,-209.26 333.06,-211.21"/>
</a>
</g>
</g>
<!-- Node14 -->
<g id="Node000014" class="node">
<title>Node14</title>
<g id="a_Node000014"><a xlink:title=" ">
<polygon fill="#e0e0e0" stroke="#999999" points="203,-19 135,-19 135,0 203,0 203,-19"/>
<text text-anchor="middle" x="169" y="-7" font-family="Helvetica,sans-Serif" font-size="10.00">filesystem</text>
</a>
</g>
</g>
<!-- Node12&#45;&gt;Node14 -->
<g id="edge16_Node000012_Node000014" class="edge">
<title>Node12&#45;&gt;Node14</title>
<g id="a_edge16_Node000012_Node000014"><a xlink:title=" ">
<path fill="none" stroke="#63b8ff" d="M268.3,-296.86C249.16,-290.2 226.42,-279.01 213,-261 159.6,-189.35 163.13,-74.43 166.95,-29.43"/>
<polygon fill="#63b8ff" stroke="#63b8ff" points="170.45,-29.64 167.92,-19.35 163.48,-28.97 170.45,-29.64"/>
</a>
</g>
</g>
<!-- Node15 -->
<g id="Node000015" class="node">
<title>Node15</title>
<g id="a_Node000015"><a xlink:title=" ">
<polygon fill="#e0e0e0" stroke="#999999" points="491,-19 441,-19 441,0 491,0 491,-19"/>
<text text-anchor="middle" x="466" y="-7" font-family="Helvetica,sans-Serif" font-size="10.00">chrono</text>
</a>
</g>
</g>
<!-- Node12&#45;&gt;Node15 -->
<g id="edge17_Node000012_Node000015" class="edge">
<title>Node12&#45;&gt;Node15</title>
<g id="a_edge17_Node000012_Node000015"><a xlink:title=" ">
<path fill="none" stroke="#63b8ff" d="M291.29,-296.93C282.07,-288.8 269.41,-275.68 264,-261 250.93,-225.56 252.12,-211.86 264,-176 285.07,-112.37 300.84,-95.81 354,-55 366.54,-45.37 403.33,-31.59 431.35,-21.93"/>
<polygon fill="#63b8ff" stroke="#63b8ff" points="432.51,-25.23 440.85,-18.69 430.25,-18.61 432.51,-25.23"/>
</a>
</g>
</g>
<!-- Node16 -->
<g id="Node000016" class="node">
<title>Node16</title>
<g id="a_Node000016"><a xlink:href="element_8h.html" target="_top" xlink:title=" ">
<polygon fill="white" stroke="#666666" points="615.5,-261 500.5,-261 500.5,-242 615.5,-242 615.5,-261"/>
<text text-anchor="middle" x="558" y="-249" font-family="Helvetica,sans-Serif" font-size="10.00">elements/element.h</text>
</a>
</g>
</g>
<!-- Node12&#45;&gt;Node16 -->
<g id="edge18_Node000012_Node000016" class="edge">
<title>Node12&#45;&gt;Node16</title>
<g id="a_edge18_Node000012_Node000016"><a xlink:title=" ">
<path fill="none" stroke="#63b8ff" d="M343.13,-296.98C387.6,-287.78 458.55,-273.09 506.65,-263.13"/>
<polygon fill="#63b8ff" stroke="#63b8ff" points="507.46,-266.54 516.55,-261.08 506.04,-259.68 507.46,-266.54"/>
</a>
</g>
</g>
<!-- Node25 -->
<g id="Node000025" class="node">
<title>Node25</title>
<g id="a_Node000025"><a xlink:href="utils_8h.html" target="_top" xlink:title=" ">
<polygon fill="white" stroke="#666666" points="301.5,-79.5 254.5,-79.5 254.5,-60.5 301.5,-60.5 301.5,-79.5"/>
<text text-anchor="middle" x="278" y="-67.5" font-family="Helvetica,sans-Serif" font-size="10.00">utils.h</text>
</a>
</g>
</g>
<!-- Node12&#45;&gt;Node25 -->
<g id="edge48_Node000012_Node000025" class="edge">
<title>Node12&#45;&gt;Node25</title>
<g id="a_edge48_Node000012_Node000025"><a xlink:title=" ">
<path fill="none" stroke="#63b8ff" d="M273.61,-296.92C256.54,-290.13 236.19,-278.77 226,-261 195.02,-206.95 207.05,-177.64 233,-121 239.08,-107.73 249.95,-95.5 259.49,-86.45"/>
<polygon fill="#63b8ff" stroke="#63b8ff" points="261.95,-88.94 267.05,-79.65 257.27,-83.74 261.95,-88.94"/>
</a>
</g>
</g>
<!-- Node16&#45;&gt;Node3 -->
<g id="edge19_Node000016_Node000003" class="edge">
<title>Node16&#45;&gt;Node3</title>
<g id="a_edge19_Node000016_Node000003"><a xlink:title=" ">
<path fill="none" stroke="#63b8ff" d="M533.88,-241.89C509.91,-233.22 472.19,-219.26 440,-206 409.83,-193.57 402.8,-189.29 373,-176 281.95,-135.41 250.28,-141.28 168,-85 143.75,-68.41 120.5,-43.44 106.48,-27.05"/>
<polygon fill="#63b8ff" stroke="#63b8ff" points="109.14,-24.77 100.04,-19.35 103.77,-29.27 109.14,-24.77"/>
</a>
</g>
</g>
<!-- Node16&#45;&gt;Node4 -->
<g id="edge20_Node000016_Node000004" class="edge">
<title>Node16&#45;&gt;Node4</title>
<g id="a_edge20_Node000016_Node000004"><a xlink:title=" ">
<path fill="none" stroke="#63b8ff" d="M504.88,-241.97C483.83,-235.7 461.65,-224.83 449,-206 441.56,-194.93 441.71,-187.16 449,-176 531.39,-49.93 731.01,-19.71 809.51,-12.62"/>
<polygon fill="#63b8ff" stroke="#63b8ff" points="810.09,-16.09 819.76,-11.77 809.51,-9.11 810.09,-16.09"/>
</a>
</g>
</g>
<!-- Node16&#45;&gt;Node10 -->
<g id="edge26_Node000016_Node000010" class="edge">
<title>Node16&#45;&gt;Node10</title>
<g id="a_edge26_Node000016_Node000010"><a xlink:title=" ">
<path fill="none" stroke="#63b8ff" d="M615.88,-251.29C733.96,-251.99 998.08,-248.57 1076,-206 1124.77,-179.35 1157.97,-119.12 1172.18,-88.94"/>
<polygon fill="#63b8ff" stroke="#63b8ff" points="1175.47,-90.18 1176.41,-79.62 1169.09,-87.28 1175.47,-90.18"/>
</a>
</g>
</g>
<!-- Node16&#45;&gt;Node13 -->
<g id="edge22_Node000016_Node000013" class="edge">
<title>Node16&#45;&gt;Node13</title>
<g id="a_edge22_Node000016_Node000013"><a xlink:title=" ">
<path fill="none" stroke="#63b8ff" d="M520.21,-242C483.64,-233.57 426.75,-219.94 378,-206 375.4,-205.26 372.72,-204.46 370.03,-203.64"/>
<polygon fill="#63b8ff" stroke="#63b8ff" points="370.96,-200.26 360.37,-200.6 368.86,-206.94 370.96,-200.26"/>
</a>
</g>
</g>
<!-- Node17 -->
<g id="Node000017" class="node">
<title>Node17</title>
<g id="a_Node000017"><a xlink:title=" ">
<polygon fill="#e0e0e0" stroke="#999999" points="775.5,-200.5 682.5,-200.5 682.5,-181.5 775.5,-181.5 775.5,-200.5"/>
<text text-anchor="middle" x="729" y="-188.5" font-family="Helvetica,sans-Serif" font-size="10.00">unordered_map</text>
</a>
</g>
</g>
<!-- Node16&#45;&gt;Node17 -->
<g id="edge21_Node000016_Node000017" class="edge">
<title>Node16&#45;&gt;Node17</title>
<g id="a_edge21_Node000016_Node000017"><a xlink:title=" ">
<path fill="none" stroke="#63b8ff" d="M582.86,-241.99C612.25,-231.94 661.31,-215.16 694.39,-203.84"/>
<polygon fill="#63b8ff" stroke="#63b8ff" points="695.78,-207.07 704.11,-200.52 693.51,-200.44 695.78,-207.07"/>
</a>
</g>
</g>
<!-- Node18 -->
<g id="Node000018" class="node">
<title>Node18</title>
<g id="a_Node000018"><a xlink:title=" ">
<polygon fill="#e0e0e0" stroke="#999999" points="508,-200.5 458,-200.5 458,-181.5 508,-181.5 508,-200.5"/>
<text text-anchor="middle" x="483" y="-188.5" font-family="Helvetica,sans-Serif" font-size="10.00">ranges</text>
</a>
</g>
</g>
<!-- Node16&#45;&gt;Node18 -->
<g id="edge23_Node000016_Node000018" class="edge">
<title>Node16&#45;&gt;Node18</title>
<g id="a_edge23_Node000016_Node000018"><a xlink:title=" ">
<path fill="none" stroke="#63b8ff" d="M546.93,-241.87C535.19,-232.71 516.41,-218.06 502.24,-207.01"/>
<polygon fill="#63b8ff" stroke="#63b8ff" points="504.15,-204.06 494.11,-200.67 499.84,-209.58 504.15,-204.06"/>
</a>
</g>
</g>
<!-- Node19 -->
<g id="Node000019" class="node">
<title>Node19</title>
<g id="a_Node000019"><a xlink:title=" ">
<polygon fill="#e0e0e0" stroke="#999999" points="590,-200.5 526,-200.5 526,-181.5 590,-181.5 590,-200.5"/>
<text text-anchor="middle" x="558" y="-188.5" font-family="Helvetica,sans-Serif" font-size="10.00">algorithm</text>
</a>
</g>
</g>
<!-- Node16&#45;&gt;Node19 -->
<g id="edge24_Node000016_Node000019" class="edge">
<title>Node16&#45;&gt;Node19</title>
<g id="a_edge24_Node000016_Node000019"><a xlink:title=" ">
<path fill="none" stroke="#63b8ff" d="M558,-241.87C558,-233.75 558,-221.31 558,-210.89"/>
<polygon fill="#63b8ff" stroke="#63b8ff" points="561.5,-210.67 558,-200.67 554.5,-210.67 561.5,-210.67"/>
</a>
</g>
</g>
<!-- Node20 -->
<g id="Node000020" class="node">
<title>Node20</title>
<g id="a_Node000020"><a xlink:title=" ">
<polygon fill="#e0e0e0" stroke="#999999" points="664,-200.5 608,-200.5 608,-181.5 664,-181.5 664,-200.5"/>
<text text-anchor="middle" x="636" y="-188.5" font-family="Helvetica,sans-Serif" font-size="10.00">numeric</text>
</a>
</g>
</g>
<!-- Node16&#45;&gt;Node20 -->
<g id="edge25_Node000016_Node000020" class="edge">
<title>Node16&#45;&gt;Node20</title>
<g id="a_edge25_Node000016_Node000020"><a xlink:title=" ">
<path fill="none" stroke="#63b8ff" d="M569.51,-241.87C581.84,-232.62 601.62,-217.78 616.41,-206.69"/>
<polygon fill="#63b8ff" stroke="#63b8ff" points="618.54,-209.47 624.44,-200.67 614.34,-203.87 618.54,-209.47"/>
</a>
</g>
</g>
<!-- Node21 -->
<g id="Node000021" class="node">
<title>Node21</title>
<g id="a_Node000021"><a xlink:href="logger_8h.html" target="_top" xlink:title=" ">
<polygon fill="white" stroke="#666666" points="1002.5,-140 919.5,-140 919.5,-121 1002.5,-121 1002.5,-140"/>
<text text-anchor="middle" x="961" y="-128" font-family="Helvetica,sans-Serif" font-size="10.00">tools/logger.h</text>
</a>
</g>
</g>
<!-- Node16&#45;&gt;Node21 -->
<g id="edge27_Node000016_Node000021" class="edge">
<title>Node16&#45;&gt;Node21</title>
<g id="a_edge27_Node000016_Node000021"><a xlink:title=" ">
<path fill="none" stroke="#63b8ff" d="M615.56,-249.65C740.68,-247.2 1028.62,-238.11 1058,-206 1067,-196.16 1065.2,-187.22 1058,-176 1047.7,-159.95 1030,-149.61 1012.52,-142.98"/>
<polygon fill="#63b8ff" stroke="#63b8ff" points="1013.47,-139.61 1002.88,-139.67 1011.2,-146.23 1013.47,-139.61"/>
</a>
</g>
</g>
<!-- Node29 -->
<g id="Node000029" class="node">
<title>Node29</title>
<g id="a_Node000029"><a xlink:href="element__parameters_8h.html" target="_top" xlink:title=" ">
<polygon fill="white" stroke="#666666" points="924.5,-206 793.5,-206 793.5,-176 924.5,-176 924.5,-206"/>
<text text-anchor="start" x="801.5" y="-194" font-family="Helvetica,sans-Serif" font-size="10.00">element_parameters</text>
<text text-anchor="middle" x="859" y="-183" font-family="Helvetica,sans-Serif" font-size="10.00">/element_parameters.h</text>
</a>
</g>
</g>
<!-- Node16&#45;&gt;Node29 -->
<g id="edge42_Node000016_Node000029" class="edge">
<title>Node16&#45;&gt;Node29</title>
<g id="a_edge42_Node000016_Node000029"><a xlink:title=" ">
<path fill="none" stroke="#63b8ff" d="M601.77,-241.99C649.22,-232.77 725.84,-217.88 783.13,-206.75"/>
<polygon fill="#63b8ff" stroke="#63b8ff" points="784.08,-210.13 793.23,-204.78 782.75,-203.25 784.08,-210.13"/>
</a>
</g>
</g>
<!-- Node21&#45;&gt;Node4 -->
<g id="edge29_Node000021_Node000004" class="edge">
<title>Node21&#45;&gt;Node4</title>
<g id="a_edge29_Node000021_Node000004"><a xlink:title=" ">
<path fill="none" stroke="#63b8ff" d="M961.12,-120.58C960.84,-105.37 958.18,-74.18 942,-55 924.76,-34.56 896.26,-23.15 874.08,-17.01"/>
<polygon fill="#63b8ff" stroke="#63b8ff" points="874.65,-13.55 864.09,-14.48 872.93,-20.33 874.65,-13.55"/>
</a>
</g>
</g>
<!-- Node21&#45;&gt;Node10 -->
<g id="edge33_Node000021_Node000010" class="edge">
<title>Node21&#45;&gt;Node10</title>
<g id="a_edge33_Node000021_Node000010"><a xlink:title=" ">
<path fill="none" stroke="#63b8ff" d="M992.84,-120.99C1031.28,-110.73 1096.03,-93.43 1138.39,-82.12"/>
<polygon fill="#63b8ff" stroke="#63b8ff" points="1139.36,-85.48 1148.12,-79.52 1137.55,-78.72 1139.36,-85.48"/>
</a>
</g>
</g>
<!-- Node21&#45;&gt;Node15 -->
<g id="edge30_Node000021_Node000015" class="edge">
<title>Node21&#45;&gt;Node15</title>
<g id="a_edge30_Node000021_Node000015"><a xlink:title=" ">
<path fill="none" stroke="#63b8ff" d="M919.25,-121.83C875.06,-113.52 803.36,-99.5 742,-85 654.83,-64.4 553.4,-35.82 501.14,-20.75"/>
<polygon fill="#63b8ff" stroke="#63b8ff" points="501.94,-17.34 491.36,-17.92 499.99,-24.06 501.94,-17.34"/>
</a>
</g>
</g>
<!-- Node22 -->
<g id="Node000022" class="node">
<title>Node22</title>
<g id="a_Node000022"><a xlink:title=" ">
<polygon fill="#e0e0e0" stroke="#999999" points="1049,-79.5 989,-79.5 989,-60.5 1049,-60.5 1049,-79.5"/>
<text text-anchor="middle" x="1019" y="-67.5" font-family="Helvetica,sans-Serif" font-size="10.00">iostream</text>
</a>
</g>
</g>
<!-- Node21&#45;&gt;Node22 -->
<g id="edge28_Node000021_Node000022" class="edge">
<title>Node21&#45;&gt;Node22</title>
<g id="a_edge28_Node000021_Node000022"><a xlink:title=" ">
<path fill="none" stroke="#63b8ff" d="M969.56,-120.87C978.38,-111.97 992.34,-97.89 1003.18,-86.95"/>
<polygon fill="#63b8ff" stroke="#63b8ff" points="1005.85,-89.23 1010.41,-79.67 1000.88,-84.3 1005.85,-89.23"/>
</a>
</g>
</g>
<!-- Node23 -->
<g id="Node000023" class="node">
<title>Node23</title>
<g id="a_Node000023"><a xlink:title=" ">
<polygon fill="#e0e0e0" stroke="#999999" points="933,-79.5 877,-79.5 877,-60.5 933,-60.5 933,-79.5"/>
<text text-anchor="middle" x="905" y="-67.5" font-family="Helvetica,sans-Serif" font-size="10.00">iomanip</text>
</a>
</g>
</g>
<!-- Node21&#45;&gt;Node23 -->
<g id="edge31_Node000021_Node000023" class="edge">
<title>Node21&#45;&gt;Node23</title>
<g id="a_edge31_Node000021_Node000023"><a xlink:title=" ">
<path fill="none" stroke="#63b8ff" d="M952.74,-120.87C944.22,-111.97 930.74,-97.89 920.27,-86.95"/>
<polygon fill="#63b8ff" stroke="#63b8ff" points="922.74,-84.47 913.3,-79.67 917.68,-89.31 922.74,-84.47"/>
</a>
</g>
</g>
<!-- Node24 -->
<g id="Node000024" class="node">
<title>Node24</title>
<g id="a_Node000024"><a xlink:title=" ">
<polygon fill="#e0e0e0" stroke="#999999" points="858.5,-85 751.5,-85 751.5,-55 858.5,-55 858.5,-85"/>
<text text-anchor="start" x="759.5" y="-73" font-family="Helvetica,sans-Serif" font-size="10.00">imgui&#45;platform&#45;kit</text>
<text text-anchor="middle" x="805" y="-62" font-family="Helvetica,sans-Serif" font-size="10.00">/log_window.h</text>
</a>
</g>
</g>
<!-- Node21&#45;&gt;Node24 -->
<g id="edge32_Node000021_Node000024" class="edge">
<title>Node21&#45;&gt;Node24</title>
<g id="a_edge32_Node000021_Node000024"><a xlink:title=" ">
<path fill="none" stroke="#63b8ff" d="M938.32,-120.99C915.77,-112.54 880.51,-99.32 851.92,-88.59"/>
<polygon fill="#63b8ff" stroke="#63b8ff" points="853.1,-85.3 842.5,-85.06 850.64,-91.85 853.1,-85.3"/>
</a>
</g>
</g>
<!-- Node21&#45;&gt;Node25 -->
<g id="edge34_Node000021_Node000025" class="edge">
<title>Node21&#45;&gt;Node25</title>
<g id="a_edge34_Node000021_Node000025"><a xlink:title=" ">
<path fill="none" stroke="#63b8ff" d="M919.18,-126.86C824.97,-120.79 588.93,-104.78 392,-85 364.94,-82.28 334.35,-78.49 311.68,-75.53"/>
<polygon fill="#63b8ff" stroke="#63b8ff" points="311.92,-72.03 301.55,-74.2 311,-78.97 311.92,-72.03"/>
</a>
</g>
</g>
<!-- Node25&#45;&gt;Node3 -->
<g id="edge36_Node000025_Node000003" class="edge">
<title>Node25&#45;&gt;Node3</title>
<g id="a_edge36_Node000025_Node000003"><a xlink:title=" ">
<path fill="none" stroke="#63b8ff" d="M255.57,-60.49C250.47,-58.62 245.07,-56.7 240,-55 201.33,-42.04 156.39,-28.68 126.48,-20.02"/>
<polygon fill="#63b8ff" stroke="#63b8ff" points="127.14,-16.57 116.56,-17.17 125.2,-23.3 127.14,-16.57"/>
</a>
</g>
</g>
<!-- Node25&#45;&gt;Node4 -->
<g id="edge35_Node000025_Node000004" class="edge">
<title>Node25&#45;&gt;Node4</title>
<g id="a_edge35_Node000025_Node000004"><a xlink:title=" ">
<path fill="none" stroke="#63b8ff" d="M301.53,-64.09C316.5,-61.11 336.32,-57.43 354,-55 524.65,-31.55 730.63,-17.36 809.3,-12.45"/>
<polygon fill="#63b8ff" stroke="#63b8ff" points="809.78,-15.92 819.54,-11.82 809.35,-8.94 809.78,-15.92"/>
</a>
</g>
</g>
<!-- Node25&#45;&gt;Node14 -->
<g id="edge41_Node000025_Node000014" class="edge">
<title>Node25&#45;&gt;Node14</title>
<g id="a_edge41_Node000025_Node000014"><a xlink:title=" ">
<path fill="none" stroke="#63b8ff" d="M261.92,-60.37C244.05,-50.78 214.96,-35.17 194.09,-23.97"/>
<polygon fill="#63b8ff" stroke="#63b8ff" points="195.62,-20.81 185.15,-19.17 192.31,-26.98 195.62,-20.81"/>
</a>
</g>
</g>
<!-- Node25&#45;&gt;Node15 -->
<g id="edge40_Node000025_Node000015" class="edge">
<title>Node25&#45;&gt;Node15</title>
<g id="a_edge40_Node000025_Node000015"><a xlink:title=" ">
<path fill="none" stroke="#63b8ff" d="M300.42,-60.47C305.52,-58.6 310.93,-56.68 316,-55 355.14,-42 400.62,-28.77 431.15,-20.15"/>
<polygon fill="#63b8ff" stroke="#63b8ff" points="432.22,-23.48 440.9,-17.41 430.32,-16.75 432.22,-23.48"/>
</a>
</g>
</g>
<!-- Node26 -->
<g id="Node000026" class="node">
<title>Node26</title>
<g id="a_Node000026"><a xlink:title=" ">
<polygon fill="#e0e0e0" stroke="#999999" points="275,-19 221,-19 221,0 275,0 275,-19"/>
<text text-anchor="middle" x="248" y="-7" font-family="Helvetica,sans-Serif" font-size="10.00">random</text>
</a>
</g>
</g>
<!-- Node25&#45;&gt;Node26 -->
<g id="edge37_Node000025_Node000026" class="edge">
<title>Node25&#45;&gt;Node26</title>
<g id="a_edge37_Node000025_Node000026"><a xlink:title=" ">
<path fill="none" stroke="#63b8ff" d="M273.57,-60.37C269.23,-51.9 262.48,-38.74 257.01,-28.07"/>
<polygon fill="#63b8ff" stroke="#63b8ff" points="260.12,-26.47 252.44,-19.17 253.89,-29.66 260.12,-26.47"/>
</a>
</g>
</g>
<!-- Node27 -->
<g id="Node000027" class="node">
<title>Node27</title>
<g id="a_Node000027"><a xlink:title=" ">
<polygon fill="#e0e0e0" stroke="#999999" points="349,-19 293,-19 293,0 349,0 349,-19"/>
<text text-anchor="middle" x="321" y="-7" font-family="Helvetica,sans-Serif" font-size="10.00">sstream</text>
</a>
</g>
</g>
<!-- Node25&#45;&gt;Node27 -->
<g id="edge38_Node000025_Node000027" class="edge">
<title>Node25&#45;&gt;Node27</title>
<g id="a_edge38_Node000025_Node000027"><a xlink:title=" ">
<path fill="none" stroke="#63b8ff" d="M284.34,-60.37C290.7,-51.73 300.64,-38.2 308.57,-27.42"/>
<polygon fill="#63b8ff" stroke="#63b8ff" points="311.53,-29.3 314.63,-19.17 305.89,-25.15 311.53,-29.3"/>
</a>
</g>
</g>
<!-- Node28 -->
<g id="Node000028" class="node">
<title>Node28</title>
<g id="a_Node000028"><a xlink:title=" ">
<polygon fill="#e0e0e0" stroke="#999999" points="422.5,-19 367.5,-19 367.5,0 422.5,0 422.5,-19"/>
<text text-anchor="middle" x="395" y="-7" font-family="Helvetica,sans-Serif" font-size="10.00">fstream</text>
</a>
</g>
</g>
<!-- Node25&#45;&gt;Node28 -->
<g id="edge39_Node000025_Node000028" class="edge">
<title>Node25&#45;&gt;Node28</title>
<g id="a_edge39_Node000025_Node000028"><a xlink:title=" ">
<path fill="none" stroke="#63b8ff" d="M295.01,-60.49C314.42,-50.79 346.39,-34.81 368.94,-23.53"/>
<polygon fill="#63b8ff" stroke="#63b8ff" points="370.59,-26.62 377.97,-19.02 367.46,-20.36 370.59,-26.62"/>
</a>
</g>
</g>
<!-- Node29&#45;&gt;Node4 -->
<g id="edge44_Node000029_Node000004" class="edge">
<title>Node29&#45;&gt;Node4</title>
<g id="a_edge44_Node000029_Node000004"><a xlink:title=" ">
<path fill="none" stroke="#63b8ff" d="M793.32,-176.79C773.46,-169.39 753.8,-157.88 742,-140 721.19,-108.47 721.42,-86.68 742,-55 756.97,-31.96 786.93,-20.75 810.18,-15.36"/>
<polygon fill="#63b8ff" stroke="#63b8ff" points="810.9,-18.78 819.98,-13.32 809.48,-11.93 810.9,-18.78"/>
</a>
</g>
</g>
<!-- Node29&#45;&gt;Node21 -->
<g id="edge46_Node000029_Node000021" class="edge">
<title>Node29&#45;&gt;Node21</title>
<g id="a_edge46_Node000029_Node000021"><a xlink:title=" ">
<path fill="none" stroke="#63b8ff" d="M883.43,-175.99C899.69,-166.66 920.95,-154.47 937.1,-145.21"/>
<polygon fill="#63b8ff" stroke="#63b8ff" points="939,-148.15 945.94,-140.14 935.52,-142.08 939,-148.15"/>
</a>
</g>
</g>
<!-- Node30 -->
<g id="Node000030" class="node">
<title>Node30</title>
<g id="a_Node000030"><a xlink:title=" ">
<polygon fill="#e0e0e0" stroke="#999999" points="789,-140 751,-140 751,-121 789,-121 789,-140"/>
<text text-anchor="middle" x="770" y="-128" font-family="Helvetica,sans-Serif" font-size="10.00">map</text>
</a>
</g>
</g>
<!-- Node29&#45;&gt;Node30 -->
<g id="edge43_Node000029_Node000030" class="edge">
<title>Node29&#45;&gt;Node30</title>
<g id="a_edge43_Node000029_Node000030"><a xlink:title=" ">
<path fill="none" stroke="#63b8ff" d="M837.46,-175.84C823.53,-166.68 805.47,-154.82 791.55,-145.66"/>
<polygon fill="#63b8ff" stroke="#63b8ff" points="793.35,-142.66 783.08,-140.09 789.51,-148.51 793.35,-142.66"/>
</a>
</g>
</g>
<!-- Node31 -->
<g id="Node000031" class="node">
<title>Node31</title>
<g id="a_Node000031"><a xlink:title=" ">
<polygon fill="#e0e0e0" stroke="#999999" points="695,-140 645,-140 645,-121 695,-121 695,-140"/>
<text text-anchor="middle" x="670" y="-128" font-family="Helvetica,sans-Serif" font-size="10.00">format</text>
</a>
</g>
</g>
<!-- Node29&#45;&gt;Node31 -->
<g id="edge45_Node000029_Node000031" class="edge">
<title>Node29&#45;&gt;Node31</title>
<g id="a_edge45_Node000029_Node000031"><a xlink:title=" ">
<path fill="none" stroke="#63b8ff" d="M813.73,-175.99C780.37,-165.66 735.66,-151.82 705.01,-142.34"/>
<polygon fill="#63b8ff" stroke="#63b8ff" points="705.78,-138.91 695.19,-139.3 703.71,-145.6 705.78,-138.91"/>
</a>
</g>
</g>
<!-- Node32&#45;&gt;Node3 -->
<g id="edge51_Node000032_Node000003" class="edge">
<title>Node32&#45;&gt;Node3</title>
<g id="a_edge51_Node000032_Node000003"><a xlink:title=" ">
<path fill="none" stroke="#63b8ff" d="M922.26,-357.46C909.56,-355.4 895.78,-353.39 883,-352 737.86,-336.25 366.91,-357.72 227,-316 143.12,-290.99 74,-279.53 74,-192 74,-192 74,-192 74,-129.5 74,-93.54 82.56,-52.23 88.19,-28.96"/>
<polygon fill="#63b8ff" stroke="#63b8ff" points="91.63,-29.64 90.67,-19.09 84.84,-27.93 91.63,-29.64"/>
</a>
</g>
</g>
<!-- Node32&#45;&gt;Node10 -->
<g id="edge53_Node000032_Node000010" class="edge">
<title>Node32&#45;&gt;Node10</title>
<g id="a_edge53_Node000032_Node000010"><a xlink:title=" ">
<path fill="none" stroke="#63b8ff" d="M1020.61,-357.48C1076.99,-347.64 1163.25,-330.9 1193,-316 1231.75,-296.59 1267,-295.84 1267,-252.5 1267,-252.5 1267,-252.5 1267,-190 1267,-145.16 1226.25,-105.96 1200.53,-85.68"/>
<polygon fill="#63b8ff" stroke="#63b8ff" points="1202.54,-82.82 1192.46,-79.55 1198.31,-88.39 1202.54,-82.82"/>
</a>
</g>
</g>
<!-- Node32&#45;&gt;Node12 -->
<g id="edge52_Node000032_Node000012" class="edge">
<title>Node32&#45;&gt;Node12</title>
<g id="a_edge52_Node000032_Node000012"><a xlink:title=" ">
<path fill="none" stroke="#63b8ff" d="M920.89,-357.43C908.57,-355.44 895.32,-353.47 883,-352 702.79,-330.47 489.83,-317.26 378.52,-311.29"/>
<polygon fill="#63b8ff" stroke="#63b8ff" points="378.57,-307.78 368.4,-310.75 378.2,-314.77 378.57,-307.78"/>
</a>
</g>
</g>
<!-- Node32&#45;&gt;Node21 -->
<g id="edge60_Node000032_Node000021" class="edge">
<title>Node32&#45;&gt;Node21</title>
<g id="a_edge60_Node000032_Node000021"><a xlink:title=" ">
<path fill="none" stroke="#63b8ff" d="M1019.33,-357.49C1062.61,-349.03 1120.18,-334.63 1134,-316 1165.52,-273.51 1217.65,-307.04 1076,-176 1058.35,-159.67 1034.06,-149.11 1012.34,-142.39"/>
<polygon fill="#63b8ff" stroke="#63b8ff" points="1013.16,-138.98 1002.58,-139.57 1011.22,-145.71 1013.16,-138.98"/>
</a>
</g>
</g>
<!-- Node32&#45;&gt;Node22 -->
<g id="edge50_Node000032_Node000022" class="edge">
<title>Node32&#45;&gt;Node22</title>
<g id="a_edge50_Node000032_Node000022"><a xlink:title=" ">
<path fill="none" stroke="#63b8ff" d="M1010.06,-357.5C1057.59,-347.24 1132.6,-329.68 1158,-316 1195.27,-295.92 1229,-294.83 1229,-252.5 1229,-252.5 1229,-252.5 1229,-190 1229,-112.75 1120.12,-85.05 1059.16,-75.6"/>
<polygon fill="#63b8ff" stroke="#63b8ff" points="1059.49,-72.11 1049.09,-74.13 1058.48,-79.03 1059.49,-72.11"/>
</a>
</g>
</g>
<!-- Node33 -->
<g id="Node000033" class="node">
<title>Node33</title>
<g id="a_Node000033"><a xlink:href="plot_8h.html" target="_top" xlink:title=" ">
<polygon fill="white" stroke="#666666" points="1083,-261 1039,-261 1039,-242 1083,-242 1083,-261"/>
<text text-anchor="middle" x="1061" y="-249" font-family="Helvetica,sans-Serif" font-size="10.00">plot.h</text>
</a>
</g>
</g>
<!-- Node32&#45;&gt;Node33 -->
<g id="edge54_Node000032_Node000033" class="edge">
<title>Node32&#45;&gt;Node33</title>
<g id="a_edge54_Node000032_Node000033"><a xlink:title=" ">
<path fill="none" stroke="#63b8ff" d="M969.36,-357.48C970.36,-343.52 974.09,-315.45 988,-297 998.56,-283 1014.91,-272.45 1029.47,-265.14"/>
<polygon fill="#63b8ff" stroke="#63b8ff" points="1031.14,-268.22 1038.7,-260.8 1028.16,-261.89 1031.14,-268.22"/>
</a>
</g>
</g>
<!-- Node35 -->
<g id="Node000035" class="node">
<title>Node35</title>
<g id="a_Node000035"><a xlink:href="lineplot_8h.html" target="_top" xlink:title=" ">
<polygon fill="white" stroke="#666666" points="1125,-316 997,-316 997,-297 1125,-297 1125,-316"/>
<text text-anchor="middle" x="1061" y="-304" font-family="Helvetica,sans-Serif" font-size="10.00">visualization/lineplot.h</text>
</a>
</g>
</g>
<!-- Node32&#45;&gt;Node35 -->
<g id="edge61_Node000032_Node000035" class="edge">
<title>Node32&#45;&gt;Node35</title>
<g id="a_edge61_Node000032_Node000035"><a xlink:title=" ">
<path fill="none" stroke="#63b8ff" d="M982.57,-357.37C997.39,-347.95 1021.33,-332.73 1038.86,-321.58"/>
<polygon fill="#63b8ff" stroke="#63b8ff" points="1040.81,-324.49 1047.37,-316.17 1037.05,-318.58 1040.81,-324.49"/>
</a>
</g>
</g>
<!-- Node36 -->
<g id="Node000036" class="node">
<title>Node36</title>
<g id="a_Node000036"><a xlink:href="heatmap_8h.html" target="_top" xlink:title=" ">
<polygon fill="white" stroke="#666666" points="941,-316 807,-316 807,-297 941,-297 941,-316"/>
<text text-anchor="middle" x="874" y="-304" font-family="Helvetica,sans-Serif" font-size="10.00">visualization/heatmap.h</text>
</a>
</g>
</g>
<!-- Node32&#45;&gt;Node36 -->
<g id="edge63_Node000032_Node000036" class="edge">
<title>Node32&#45;&gt;Node36</title>
<g id="a_edge63_Node000032_Node000036"><a xlink:title=" ">
<path fill="none" stroke="#63b8ff" d="M954.98,-357.37C939.69,-347.95 914.97,-332.73 896.86,-321.58"/>
<polygon fill="#63b8ff" stroke="#63b8ff" points="898.43,-318.43 888.08,-316.17 894.75,-324.39 898.43,-318.43"/>
</a>
</g>
</g>
<!-- Node34 -->
<g id="Node000034" class="node">
<title>Node34</title>
<g id="a_Node000034"><a xlink:href="plot__parameters_8h.html" target="_top" xlink:title=" ">
<polygon fill="white" stroke="#666666" points="1049,-200.5 943,-200.5 943,-181.5 1049,-181.5 1049,-200.5"/>
<text text-anchor="middle" x="996" y="-188.5" font-family="Helvetica,sans-Serif" font-size="10.00">plot_parameters.h</text>
</a>
</g>
</g>
<!-- Node33&#45;&gt;Node34 -->
<g id="edge55_Node000033_Node000034" class="edge">
<title>Node33&#45;&gt;Node34</title>
<g id="a_edge55_Node000033_Node000034"><a xlink:title=" ">
<path fill="none" stroke="#63b8ff" d="M1051.41,-241.87C1041.42,-232.88 1025.57,-218.61 1013.37,-207.64"/>
<polygon fill="#63b8ff" stroke="#63b8ff" points="1015.4,-204.76 1005.63,-200.67 1010.72,-209.96 1015.4,-204.76"/>
</a>
</g>
</g>
<!-- Node34&#45;&gt;Node3 -->
<g id="edge58_Node000034_Node000003" class="edge">
<title>Node34&#45;&gt;Node3</title>
<g id="a_edge58_Node000034_Node000003"><a xlink:title=" ">
<path fill="none" stroke="#63b8ff" d="M977.09,-181.47C942.42,-166.26 865.96,-134.79 798,-121 556.62,-72.03 483,-148.41 245,-85 195.76,-71.88 143.49,-42.35 114.88,-24.67"/>
<polygon fill="#63b8ff" stroke="#63b8ff" points="116.46,-21.52 106.13,-19.16 112.73,-27.45 116.46,-21.52"/>
</a>
</g>
</g>
<!-- Node34&#45;&gt;Node4 -->
<g id="edge57_Node000034_Node000004" class="edge">
<title>Node34&#45;&gt;Node4</title>
<g id="a_edge57_Node000034_Node000004"><a xlink:title=" ">
<path fill="none" stroke="#63b8ff" d="M1006.01,-181.28C1030.96,-158.5 1091.56,-96.18 1058,-55 1035.21,-27.04 928.94,-16.13 874.43,-12.32"/>
<polygon fill="#63b8ff" stroke="#63b8ff" points="874.47,-8.81 864.26,-11.65 874.01,-15.8 874.47,-8.81"/>
</a>
</g>
</g>
<!-- Node34&#45;&gt;Node21 -->
<g id="edge59_Node000034_Node000021" class="edge">
<title>Node34&#45;&gt;Node21</title>
<g id="a_edge59_Node000034_Node000021"><a xlink:title=" ">
<path fill="none" stroke="#63b8ff" d="M990.84,-181.37C985.77,-172.9 977.9,-159.74 971.51,-149.07"/>
<polygon fill="#63b8ff" stroke="#63b8ff" points="974.32,-146.95 966.19,-140.17 968.32,-150.55 974.32,-146.95"/>
</a>
</g>
</g>
<!-- Node34&#45;&gt;Node30 -->
<g id="edge56_Node000034_Node000030" class="edge">
<title>Node34&#45;&gt;Node30</title>
<g id="a_edge56_Node000034_Node000030"><a xlink:title=" ">
<path fill="none" stroke="#63b8ff" d="M963.14,-181.49C919.01,-170.07 841.29,-149.95 799.15,-139.04"/>
<polygon fill="#63b8ff" stroke="#63b8ff" points="799.8,-135.6 789.24,-136.48 798.05,-142.38 799.8,-135.6"/>
</a>
</g>
</g>
<!-- Node35&#45;&gt;Node33 -->
<g id="edge62_Node000035_Node000033" class="edge">
<title>Node35&#45;&gt;Node33</title>
<g id="a_edge62_Node000035_Node000033"><a xlink:title=" ">
<path fill="none" stroke="#63b8ff" d="M1061,-296.75C1061,-289.8 1061,-279.85 1061,-271.13"/>
<polygon fill="#63b8ff" stroke="#63b8ff" points="1064.5,-271.09 1061,-261.09 1057.5,-271.09 1064.5,-271.09"/>
</a>
</g>
</g>
<!-- Node36&#45;&gt;Node33 -->
<g id="edge64_Node000036_Node000033" class="edge">
<title>Node36&#45;&gt;Node33</title>
<g id="a_edge64_Node000036_Node000033"><a xlink:title=" ">
<path fill="none" stroke="#63b8ff" d="M904.04,-296.98C938.34,-287.26 994.21,-271.43 1029.22,-261.51"/>
<polygon fill="#63b8ff" stroke="#63b8ff" points="1030.27,-264.85 1038.93,-258.75 1028.36,-258.11 1030.27,-264.85"/>
</a>
</g>
</g>
<!-- Node40 -->
<g id="Node000040" class="node">
<title>Node40</title>
<g id="a_Node000040"><a xlink:title=" ">
<polygon fill="#e0e0e0" stroke="#999999" points="81.5,-316 28.5,-316 28.5,-297 81.5,-297 81.5,-316"/>
<text text-anchor="middle" x="55" y="-304" font-family="Helvetica,sans-Serif" font-size="10.00">imgui.h</text>
</a>
</g>
</g>
<!-- Node39&#45;&gt;Node40 -->
<g id="edge68_Node000039_Node000040" class="edge">
<title>Node39&#45;&gt;Node40</title>
<g id="a_edge68_Node000039_Node000040"><a xlink:title=" ">
<path fill="none" stroke="#63b8ff" d="M221.54,-351.99C181.46,-341.28 127.24,-326.8 91.71,-317.3"/>
<polygon fill="#63b8ff" stroke="#63b8ff" points="92.33,-313.85 81.76,-314.65 90.52,-320.61 92.33,-313.85"/>
</a>
</g>
</g>
</g>
</svg>
