<?xml version="1.0" encoding="UTF-8" standalone="no"?>
<!DOCTYPE svg PUBLIC "-//W3C//DTD SVG 1.1//EN"
 "http://www.w3.org/Graphics/SVG/1.1/DTD/svg11.dtd">
<!-- Generated by graphviz version 2.43.0 (0)
 -->
<!-- Title: include/user_interface/log_window.h Pages: 1 -->
<svg width="786pt" height="302pt"
 viewBox="0.00 0.00 786.00 302.00" xmlns="http://www.w3.org/2000/svg" xmlns:xlink="http://www.w3.org/1999/xlink">
<g id="graph0" class="graph" transform="scale(1 1) rotate(0) translate(4 298)">
<title>include/user_interface/log_window.h</title>
<!-- Node1 -->
<g id="Node000001" class="node">
<title>Node1</title>
<g id="a_Node000001"><a xlink:title=" ">
<polygon fill="#999999" stroke="#666666" points="468.5,-294 343.5,-294 343.5,-264 468.5,-264 468.5,-294"/>
<text text-anchor="start" x="351.5" y="-282" font-family="Helvetica,sans-Serif" font-size="10.00">include/user_interface</text>
<text text-anchor="middle" x="406" y="-271" font-family="Helvetica,sans-Serif" font-size="10.00">/log_window.h</text>
</a>
</g>
</g>
<!-- Node2 -->
<g id="Node000002" class="node">
<title>Node2</title>
<g id="a_Node000002"><a xlink:href="dynamic-neural-field-composer-dynamic_8h.html" target="_top" xlink:title=" ">
<polygon fill="white" stroke="#666666" points="148,-162 0,-162 0,-132 148,-132 148,-162"/>
<text text-anchor="start" x="8" y="-150" font-family="Helvetica,sans-Serif" font-size="10.00">include/dynamic&#45;neural</text>
<text text-anchor="middle" x="74" y="-139" font-family="Helvetica,sans-Serif" font-size="10.00">&#45;field&#45;composer&#45;dynamic.h</text>
</a>
</g>
</g>
<!-- Node1&#45;&gt;Node2 -->
<g id="edge1_Node000001_Node000002" class="edge">
<title>Node1&#45;&gt;Node2</title>
<g id="a_edge1_Node000001_Node000002"><a xlink:title=" ">
<path fill="none" stroke="#63b8ff" d="M333.38,-266.22C293.33,-258.27 243.29,-245.91 201,-228 159.49,-210.42 116.08,-180.06 92.3,-162.23"/>
<polygon fill="#63b8ff" stroke="#63b8ff" points="332.85,-269.69 343.34,-268.15 334.18,-262.81 332.85,-269.69"/>
</a>
</g>
</g>
<!-- Node4 -->
<g id="Node000004" class="node">
<title>Node4</title>
<g id="a_Node000004"><a xlink:href="control__bar__window_8h.html" target="_top" xlink:title=" ">
<polygon fill="white" stroke="#666666" points="335.5,-228 210.5,-228 210.5,-198 335.5,-198 335.5,-228"/>
<text text-anchor="start" x="218.5" y="-216" font-family="Helvetica,sans-Serif" font-size="10.00">include/user_interface</text>
<text text-anchor="middle" x="273" y="-205" font-family="Helvetica,sans-Serif" font-size="10.00">/control_bar_window.h</text>
</a>
</g>
</g>
<!-- Node1&#45;&gt;Node4 -->
<g id="edge3_Node000001_Node000004" class="edge">
<title>Node1&#45;&gt;Node4</title>
<g id="a_edge3_Node000001_Node000004"><a xlink:title=" ">
<path fill="none" stroke="#63b8ff" d="M367.58,-259.51C346.72,-249.47 321.33,-237.26 302.12,-228.01"/>
<polygon fill="#63b8ff" stroke="#63b8ff" points="366.28,-262.77 376.81,-263.95 369.32,-256.46 366.28,-262.77"/>
</a>
</g>
</g>
<!-- Node5 -->
<g id="Node000005" class="node">
<title>Node5</title>
<g id="a_Node000005"><a xlink:href="static__layout_8h.html" target="_top" xlink:title=" ">
<polygon fill="white" stroke="#666666" points="484.5,-162 359.5,-162 359.5,-132 484.5,-132 484.5,-162"/>
<text text-anchor="start" x="367.5" y="-150" font-family="Helvetica,sans-Serif" font-size="10.00">include/user_interface</text>
<text text-anchor="middle" x="422" y="-139" font-family="Helvetica,sans-Serif" font-size="10.00">/static_layout.h</text>
</a>
</g>
</g>
<!-- Node1&#45;&gt;Node5 -->
<g id="edge11_Node000001_Node000005" class="edge">
<title>Node1&#45;&gt;Node5</title>
<g id="a_edge11_Node000001_Node000005"><a xlink:title=" ">
<path fill="none" stroke="#63b8ff" d="M392.29,-254.79C384.57,-238.71 377.64,-216.88 384,-198 388.59,-184.36 398.55,-171.49 407.12,-162.23"/>
<polygon fill="#63b8ff" stroke="#63b8ff" points="389.36,-256.73 397.09,-263.98 395.56,-253.5 389.36,-256.73"/>
</a>
</g>
</g>
<!-- Node10 -->
<g id="Node000010" class="node">
<title>Node10</title>
<g id="a_Node000010"><a xlink:href="logger_8cpp.html" target="_top" xlink:title=" ">
<polygon fill="white" stroke="#666666" points="503.5,-222.5 392.5,-222.5 392.5,-203.5 503.5,-203.5 503.5,-222.5"/>
<text text-anchor="middle" x="448" y="-210.5" font-family="Helvetica,sans-Serif" font-size="10.00">src/tools/logger.cpp</text>
</a>
</g>
</g>
<!-- Node1&#45;&gt;Node10 -->
<g id="edge12_Node000001_Node000010" class="edge">
<title>Node1&#45;&gt;Node10</title>
<g id="a_edge12_Node000001_Node000010"><a xlink:title=" ">
<path fill="none" stroke="#63b8ff" d="M420.91,-255.28C428.27,-244.07 436.72,-231.19 442.2,-222.84"/>
<polygon fill="#63b8ff" stroke="#63b8ff" points="417.88,-253.52 415.32,-263.8 423.73,-257.36 417.88,-253.52"/>
</a>
</g>
</g>
<!-- Node11 -->
<g id="Node000011" class="node">
<title>Node11</title>
<g id="a_Node000011"><a xlink:href="log__window_8cpp.html" target="_top" xlink:title=" ">
<polygon fill="white" stroke="#666666" points="626,-228 522,-228 522,-198 626,-198 626,-228"/>
<text text-anchor="start" x="530" y="-216" font-family="Helvetica,sans-Serif" font-size="10.00">src/user_interface</text>
<text text-anchor="middle" x="574" y="-205" font-family="Helvetica,sans-Serif" font-size="10.00">/log_window.cpp</text>
</a>
</g>
</g>
<!-- Node1&#45;&gt;Node11 -->
<g id="edge13_Node000001_Node000011" class="edge">
<title>Node1&#45;&gt;Node11</title>
<g id="a_edge13_Node000001_Node000011"><a xlink:title=" ">
<path fill="none" stroke="#63b8ff" d="M452.4,-260.32C479.14,-250.14 512.29,-237.51 537.22,-228.01"/>
<polygon fill="#63b8ff" stroke="#63b8ff" points="450.97,-257.12 442.87,-263.95 453.46,-263.67 450.97,-257.12"/>
</a>
</g>
</g>
<!-- Node12 -->
<g id="Node000012" class="node">
<title>Node12</title>
<g id="a_Node000012"><a xlink:href="simulation__window_8cpp.html" target="_top" xlink:title=" ">
<polygon fill="white" stroke="#666666" points="778,-228 644,-228 644,-198 778,-198 778,-228"/>
<text text-anchor="start" x="652" y="-216" font-family="Helvetica,sans-Serif" font-size="10.00">src/user_interface</text>
<text text-anchor="middle" x="711" y="-205" font-family="Helvetica,sans-Serif" font-size="10.00">/simulation_window.cpp</text>
</a>
</g>
</g>
<!-- Node1&#45;&gt;Node12 -->
<g id="edge14_Node000001_Node000012" class="edge">
<title>Node1&#45;&gt;Node12</title>
<g id="a_edge14_Node000001_Node000012"><a xlink:title=" ">
<path fill="none" stroke="#63b8ff" d="M478.64,-262.76C528.83,-252.22 595.11,-238.32 644.03,-228.05"/>
<polygon fill="#63b8ff" stroke="#63b8ff" points="477.89,-259.34 468.83,-264.82 479.33,-266.19 477.89,-259.34"/>
</a>
</g>
</g>
<!-- Node3 -->
<g id="Node000003" class="node">
<title>Node3</title>
<g id="a_Node000003"><a xlink:href="dynamic-neural-field-composer-dynamic_8cpp.html" target="_top" xlink:title=" ">
<polygon fill="white" stroke="#666666" points="255.5,-96 96.5,-96 96.5,-66 255.5,-66 255.5,-96"/>
<text text-anchor="start" x="104.5" y="-84" font-family="Helvetica,sans-Serif" font-size="10.00">src/dynamic&#45;neural</text>
<text text-anchor="middle" x="176" y="-73" font-family="Helvetica,sans-Serif" font-size="10.00">&#45;field&#45;composer&#45;dynamic.cpp</text>
</a>
</g>
</g>
<!-- Node2&#45;&gt;Node3 -->
<g id="edge2_Node000002_Node000003" class="edge">
<title>Node2&#45;&gt;Node3</title>
<g id="a_edge2_Node000002_Node000003"><a xlink:title=" ">
<path fill="none" stroke="#63b8ff" d="M105.21,-126.42C120.86,-116.6 139.46,-104.93 153.67,-96.01"/>
<polygon fill="#63b8ff" stroke="#63b8ff" points="102.99,-123.68 96.38,-131.95 106.72,-129.6 102.99,-123.68"/>
</a>
</g>
</g>
<!-- Node4&#45;&gt;Node3 -->
<g id="edge9_Node000004_Node000003" class="edge">
<title>Node4&#45;&gt;Node3</title>
<g id="a_edge9_Node000004_Node000003"><a xlink:title=" ">
<path fill="none" stroke="#63b8ff" d="M230.76,-192.94C217.55,-185.09 204.07,-174.79 195,-162 180.88,-142.09 177.14,-113.08 176.22,-96.02"/>
<polygon fill="#63b8ff" stroke="#63b8ff" points="229.37,-196.17 239.8,-197.99 232.78,-190.06 229.37,-196.17"/>
</a>
</g>
</g>
<!-- Node4&#45;&gt;Node5 -->
<g id="edge4_Node000004_Node000005" class="edge">
<title>Node4&#45;&gt;Node5</title>
<g id="a_edge4_Node000004_Node000005"><a xlink:title=" ">
<path fill="none" stroke="#63b8ff" d="M315.09,-193.92C338.64,-183.8 367.56,-171.38 389.38,-162.01"/>
<polygon fill="#63b8ff" stroke="#63b8ff" points="313.51,-190.79 305.7,-197.95 316.27,-197.22 313.51,-190.79"/>
</a>
</g>
</g>
<!-- Node9 -->
<g id="Node000009" class="node">
<title>Node9</title>
<g id="a_Node000009"><a xlink:href="control__bar__window_8cpp.html" target="_top" xlink:title=" ">
<polygon fill="white" stroke="#666666" points="341.5,-162 204.5,-162 204.5,-132 341.5,-132 341.5,-162"/>
<text text-anchor="start" x="212.5" y="-150" font-family="Helvetica,sans-Serif" font-size="10.00">src/user_interface</text>
<text text-anchor="middle" x="273" y="-139" font-family="Helvetica,sans-Serif" font-size="10.00">/control_bar_window.cpp</text>
</a>
</g>
</g>
<!-- Node4&#45;&gt;Node9 -->
<g id="edge10_Node000004_Node000009" class="edge">
<title>Node4&#45;&gt;Node9</title>
<g id="a_edge10_Node000004_Node000009"><a xlink:title=" ">
<path fill="none" stroke="#63b8ff" d="M273,-187.54C273,-178.96 273,-169.61 273,-162.16"/>
<polygon fill="#63b8ff" stroke="#63b8ff" points="269.5,-187.8 273,-197.8 276.5,-187.8 269.5,-187.8"/>
</a>
</g>
</g>
<!-- Node5&#45;&gt;Node3 -->
<g id="edge7_Node000005_Node000003" class="edge">
<title>Node5&#45;&gt;Node3</title>
<g id="a_edge7_Node000005_Node000003"><a xlink:title=" ">
<path fill="none" stroke="#63b8ff" d="M358.14,-129.39C318.32,-119.03 267.64,-105.84 229.86,-96.01"/>
<polygon fill="#63b8ff" stroke="#63b8ff" points="357.46,-132.82 368.01,-131.95 359.22,-126.05 357.46,-132.82"/>
</a>
</g>
</g>
<!-- Node6 -->
<g id="Node000006" class="node">
<title>Node6</title>
<g id="a_Node000006"><a xlink:href="dynamic-neural-field-composer-static_8h.html" target="_top" xlink:title=" ">
<polygon fill="white" stroke="#666666" points="447.5,-96 314.5,-96 314.5,-66 447.5,-66 447.5,-96"/>
<text text-anchor="start" x="322.5" y="-84" font-family="Helvetica,sans-Serif" font-size="10.00">include/dynamic&#45;neural</text>
<text text-anchor="middle" x="381" y="-73" font-family="Helvetica,sans-Serif" font-size="10.00">&#45;field&#45;composer&#45;static.h</text>
</a>
</g>
</g>
<!-- Node5&#45;&gt;Node6 -->
<g id="edge5_Node000005_Node000006" class="edge">
<title>Node5&#45;&gt;Node6</title>
<g id="a_edge5_Node000005_Node000006"><a xlink:title=" ">
<path fill="none" stroke="#63b8ff" d="M407.42,-123.24C401.64,-114.21 395.16,-104.11 390.07,-96.16"/>
<polygon fill="#63b8ff" stroke="#63b8ff" points="404.56,-125.26 412.9,-131.8 410.45,-121.49 404.56,-125.26"/>
</a>
</g>
</g>
<!-- Node8 -->
<g id="Node000008" class="node">
<title>Node8</title>
<g id="a_Node000008"><a xlink:href="static__layout_8cpp.html" target="_top" xlink:title=" ">
<polygon fill="white" stroke="#666666" points="570,-96 466,-96 466,-66 570,-66 570,-96"/>
<text text-anchor="start" x="474" y="-84" font-family="Helvetica,sans-Serif" font-size="10.00">src/user_interface</text>
<text text-anchor="middle" x="518" y="-73" font-family="Helvetica,sans-Serif" font-size="10.00">/static_layout.cpp</text>
</a>
</g>
</g>
<!-- Node5&#45;&gt;Node8 -->
<g id="edge8_Node000005_Node000008" class="edge">
<title>Node5&#45;&gt;Node8</title>
<g id="a_edge8_Node000005_Node000008"><a xlink:title=" ">
<path fill="none" stroke="#63b8ff" d="M451.96,-126.03C466.49,-116.34 483.59,-104.94 496.75,-96.16"/>
<polygon fill="#63b8ff" stroke="#63b8ff" points="449.68,-123.34 443.31,-131.8 453.57,-129.16 449.68,-123.34"/>
</a>
</g>
</g>
<!-- Node7 -->
<g id="Node000007" class="node">
<title>Node7</title>
<g id="a_Node000007"><a xlink:href="dynamic-neural-field-composer-static_8cpp.html" target="_top" xlink:title=" ">
<polygon fill="white" stroke="#666666" points="453,-30 309,-30 309,0 453,0 453,-30"/>
<text text-anchor="start" x="317" y="-18" font-family="Helvetica,sans-Serif" font-size="10.00">src/dynamic&#45;neural</text>
<text text-anchor="middle" x="381" y="-7" font-family="Helvetica,sans-Serif" font-size="10.00">&#45;field&#45;composer&#45;static.cpp</text>
</a>
</g>
</g>
<!-- Node6&#45;&gt;Node7 -->
<g id="edge6_Node000006_Node000007" class="edge">
<title>Node6&#45;&gt;Node7</title>
<g id="a_edge6_Node000006_Node000007"><a xlink:title=" ">
<path fill="none" stroke="#63b8ff" d="M381,-55.54C381,-46.96 381,-37.61 381,-30.16"/>
<polygon fill="#63b8ff" stroke="#63b8ff" points="377.5,-55.8 381,-65.8 384.5,-55.8 377.5,-55.8"/>
</a>
</g>
</g>
</g>
</svg>
