<?xml version="1.0" encoding="UTF-8" standalone="no"?>
<!DOCTYPE svg PUBLIC "-//W3C//DTD SVG 1.1//EN"
 "http://www.w3.org/Graphics/SVG/1.1/DTD/svg11.dtd">
<!-- Generated by graphviz version 2.43.0 (0)
 -->
<!-- Title: include/user_interface/log_window.h Pages: 1 -->
<svg width="571pt" height="236pt"
 viewBox="0.00 0.00 570.50 236.00" xmlns="http://www.w3.org/2000/svg" xmlns:xlink="http://www.w3.org/1999/xlink">
<g id="graph0" class="graph" transform="scale(1 1) rotate(0) translate(4 232)">
<title>include/user_interface/log_window.h</title>
<!-- Node1 -->
<g id="Node000001" class="node">
<title>Node1</title>
<g id="a_Node000001"><a xlink:title=" ">
<polygon fill="#999999" stroke="#666666" points="376,-228 251,-228 251,-198 376,-198 376,-228"/>
<text text-anchor="start" x="259" y="-216" font-family="Helvetica,sans-Serif" font-size="10.00">include/user_interface</text>
<text text-anchor="middle" x="313.5" y="-205" font-family="Helvetica,sans-Serif" font-size="10.00">/log_window.h</text>
</a>
</g>
</g>
<!-- Node2 -->
<g id="Node000002" class="node">
<title>Node2</title>
<g id="a_Node000002"><a xlink:href="dynamic-neural-field-composer-dynamic_8h.html" target="_top" xlink:title=" ">
<polygon fill="white" stroke="#666666" points="156.5,-162 8.5,-162 8.5,-132 156.5,-132 156.5,-162"/>
<text text-anchor="start" x="16.5" y="-150" font-family="Helvetica,sans-Serif" font-size="10.00">include/dynamic&#45;neural</text>
<text text-anchor="middle" x="82.5" y="-139" font-family="Helvetica,sans-Serif" font-size="10.00">&#45;field&#45;composer&#45;dynamic.h</text>
</a>
</g>
</g>
<!-- Node1&#45;&gt;Node2 -->
<g id="edge1_Node000001_Node000002" class="edge">
<title>Node1&#45;&gt;Node2</title>
<g id="a_edge1_Node000001_Node000002"><a xlink:title=" ">
<path fill="none" stroke="#63b8ff" d="M253.06,-195.25C215.74,-184.91 168.4,-171.8 133.08,-162.01"/>
<polygon fill="#63b8ff" stroke="#63b8ff" points="252.23,-198.66 262.81,-197.95 254.1,-191.91 252.23,-198.66"/>
</a>
</g>
</g>
<!-- Node4 -->
<g id="Node000004" class="node">
<title>Node4</title>
<g id="a_Node000004"><a xlink:href="static__layout__window_8h.html" target="_top" xlink:title=" ">
<polygon fill="white" stroke="#666666" points="310.5,-162 176.5,-162 176.5,-132 310.5,-132 310.5,-162"/>
<text text-anchor="start" x="184.5" y="-150" font-family="Helvetica,sans-Serif" font-size="10.00">include/user_interface</text>
<text text-anchor="middle" x="243.5" y="-139" font-family="Helvetica,sans-Serif" font-size="10.00">/static_layout_window.h</text>
</a>
</g>
</g>
<!-- Node1&#45;&gt;Node4 -->
<g id="edge3_Node000001_Node000004" class="edge">
<title>Node1&#45;&gt;Node4</title>
<g id="a_edge3_Node000001_Node000004"><a xlink:title=" ">
<path fill="none" stroke="#63b8ff" d="M290.45,-190.92C280.13,-181.49 268.23,-170.61 258.99,-162.16"/>
<polygon fill="#63b8ff" stroke="#63b8ff" points="288.22,-193.63 297.96,-197.8 292.95,-188.47 288.22,-193.63"/>
</a>
</g>
</g>
<!-- Node8 -->
<g id="Node000008" class="node">
<title>Node8</title>
<g id="a_Node000008"><a xlink:href="logger_8cpp.html" target="_top" xlink:title=" ">
<polygon fill="white" stroke="#666666" points="440,-156.5 329,-156.5 329,-137.5 440,-137.5 440,-156.5"/>
<text text-anchor="middle" x="384.5" y="-144.5" font-family="Helvetica,sans-Serif" font-size="10.00">src/tools/logger.cpp</text>
</a>
</g>
</g>
<!-- Node1&#45;&gt;Node8 -->
<g id="edge7_Node000001_Node000008" class="edge">
<title>Node1&#45;&gt;Node8</title>
<g id="a_edge7_Node000001_Node000008"><a xlink:title=" ">
<path fill="none" stroke="#63b8ff" d="M336.87,-190.93C349.72,-179.35 364.97,-165.61 374.69,-156.84"/>
<polygon fill="#63b8ff" stroke="#63b8ff" points="334.34,-188.5 329.26,-197.8 339.03,-193.7 334.34,-188.5"/>
</a>
</g>
</g>
<!-- Node9 -->
<g id="Node000009" class="node">
<title>Node9</title>
<g id="a_Node000009"><a xlink:href="log__window_8cpp.html" target="_top" xlink:title=" ">
<polygon fill="white" stroke="#666666" points="562.5,-162 458.5,-162 458.5,-132 562.5,-132 562.5,-162"/>
<text text-anchor="start" x="466.5" y="-150" font-family="Helvetica,sans-Serif" font-size="10.00">src/user_interface</text>
<text text-anchor="middle" x="510.5" y="-139" font-family="Helvetica,sans-Serif" font-size="10.00">/log_window.cpp</text>
</a>
</g>
</g>
<!-- Node1&#45;&gt;Node9 -->
<g id="edge8_Node000001_Node000009" class="edge">
<title>Node1&#45;&gt;Node9</title>
<g id="a_edge8_Node000001_Node000009"><a xlink:title=" ">
<path fill="none" stroke="#63b8ff" d="M366.27,-194.86C397.9,-184.58 437.62,-171.68 467.37,-162.01"/>
<polygon fill="#63b8ff" stroke="#63b8ff" points="365.16,-191.54 356.73,-197.95 367.32,-198.19 365.16,-191.54"/>
</a>
</g>
</g>
<!-- Node3 -->
<g id="Node000003" class="node">
<title>Node3</title>
<g id="a_Node000003"><a xlink:href="dynamic-neural-field-composer-dynamic_8cpp.html" target="_top" xlink:title=" ">
<polygon fill="white" stroke="#666666" points="159,-96 0,-96 0,-66 159,-66 159,-96"/>
<text text-anchor="start" x="8" y="-84" font-family="Helvetica,sans-Serif" font-size="10.00">src/dynamic&#45;neural</text>
<text text-anchor="middle" x="79.5" y="-73" font-family="Helvetica,sans-Serif" font-size="10.00">&#45;field&#45;composer&#45;dynamic.cpp</text>
</a>
</g>
</g>
<!-- Node2&#45;&gt;Node3 -->
<g id="edge2_Node000002_Node000003" class="edge">
<title>Node2&#45;&gt;Node3</title>
<g id="a_edge2_Node000002_Node000003"><a xlink:title=" ">
<path fill="none" stroke="#63b8ff" d="M81.35,-121.54C80.95,-112.96 80.51,-103.61 80.16,-96.16"/>
<polygon fill="#63b8ff" stroke="#63b8ff" points="77.87,-121.97 81.83,-131.8 84.86,-121.64 77.87,-121.97"/>
</a>
</g>
</g>
<!-- Node5 -->
<g id="Node000005" class="node">
<title>Node5</title>
<g id="a_Node000005"><a xlink:href="dynamic-neural-field-composer-static_8h.html" target="_top" xlink:title=" ">
<polygon fill="white" stroke="#666666" points="310,-96 177,-96 177,-66 310,-66 310,-96"/>
<text text-anchor="start" x="185" y="-84" font-family="Helvetica,sans-Serif" font-size="10.00">include/dynamic&#45;neural</text>
<text text-anchor="middle" x="243.5" y="-73" font-family="Helvetica,sans-Serif" font-size="10.00">&#45;field&#45;composer&#45;static.h</text>
</a>
</g>
</g>
<!-- Node4&#45;&gt;Node5 -->
<g id="edge4_Node000004_Node000005" class="edge">
<title>Node4&#45;&gt;Node5</title>
<g id="a_edge4_Node000004_Node000005"><a xlink:title=" ">
<path fill="none" stroke="#63b8ff" d="M243.5,-121.54C243.5,-112.96 243.5,-103.61 243.5,-96.16"/>
<polygon fill="#63b8ff" stroke="#63b8ff" points="240,-121.8 243.5,-131.8 247,-121.8 240,-121.8"/>
</a>
</g>
</g>
<!-- Node7 -->
<g id="Node000007" class="node">
<title>Node7</title>
<g id="a_Node000007"><a xlink:href="static__layout__window_8cpp.html" target="_top" xlink:title=" ">
<polygon fill="white" stroke="#666666" points="473,-96 328,-96 328,-66 473,-66 473,-96"/>
<text text-anchor="start" x="336" y="-84" font-family="Helvetica,sans-Serif" font-size="10.00">src/user_interface</text>
<text text-anchor="middle" x="400.5" y="-73" font-family="Helvetica,sans-Serif" font-size="10.00">/static_layout_window.cpp</text>
</a>
</g>
</g>
<!-- Node4&#45;&gt;Node7 -->
<g id="edge6_Node000004_Node000007" class="edge">
<title>Node4&#45;&gt;Node7</title>
<g id="a_edge6_Node000004_Node000007"><a xlink:title=" ">
<path fill="none" stroke="#63b8ff" d="M287.52,-128.05C312.4,-117.91 343.03,-105.43 366.13,-96.01"/>
<polygon fill="#63b8ff" stroke="#63b8ff" points="285.89,-124.94 277.95,-131.95 288.54,-131.42 285.89,-124.94"/>
</a>
</g>
</g>
<!-- Node6 -->
<g id="Node000006" class="node">
<title>Node6</title>
<g id="a_Node000006"><a xlink:href="dynamic-neural-field-composer-static_8cpp.html" target="_top" xlink:title=" ">
<polygon fill="white" stroke="#666666" points="315.5,-30 171.5,-30 171.5,0 315.5,0 315.5,-30"/>
<text text-anchor="start" x="179.5" y="-18" font-family="Helvetica,sans-Serif" font-size="10.00">src/dynamic&#45;neural</text>
<text text-anchor="middle" x="243.5" y="-7" font-family="Helvetica,sans-Serif" font-size="10.00">&#45;field&#45;composer&#45;static.cpp</text>
</a>
</g>
</g>
<!-- Node5&#45;&gt;Node6 -->
<g id="edge5_Node000005_Node000006" class="edge">
<title>Node5&#45;&gt;Node6</title>
<g id="a_edge5_Node000005_Node000006"><a xlink:title=" ">
<path fill="none" stroke="#63b8ff" d="M243.5,-55.54C243.5,-46.96 243.5,-37.61 243.5,-30.16"/>
<polygon fill="#63b8ff" stroke="#63b8ff" points="240,-55.8 243.5,-65.8 247,-55.8 240,-55.8"/>
</a>
</g>
</g>
</g>
</svg>
