<?xml version="1.0" encoding="UTF-8" standalone="no"?>
<!DOCTYPE svg PUBLIC "-//W3C//DTD SVG 1.1//EN"
 "http://www.w3.org/Graphics/SVG/1.1/DTD/svg11.dtd">
<!-- Generated by graphviz version 2.43.0 (0)
 -->
<!-- Title: src/tools/logger.cpp Pages: 1 -->
<svg width="1670pt" height="577pt"
 viewBox="0.00 0.00 1670.00 577.00" xmlns="http://www.w3.org/2000/svg" xmlns:xlink="http://www.w3.org/1999/xlink">
<g id="graph0" class="graph" transform="scale(1 1) rotate(0) translate(4 573)">
<title>src/tools/logger.cpp</title>
<!-- Node1 -->
<g id="Node000001" class="node">
<title>Node1</title>
<g id="a_Node000001"><a xlink:title=" ">
<polygon fill="#999999" stroke="#666666" points="879.5,-569 768.5,-569 768.5,-550 879.5,-550 879.5,-569"/>
<text text-anchor="middle" x="824" y="-557" font-family="Helvetica,sans-Serif" font-size="10.00">src/tools/logger.cpp</text>
</a>
</g>
</g>
<!-- Node2 -->
<g id="Node000002" class="node">
<title>Node2</title>
<g id="a_Node000002"><a xlink:href="logger_8h.html" target="_top" xlink:title=" ">
<polygon fill="white" stroke="#666666" points="854.5,-140 771.5,-140 771.5,-121 854.5,-121 854.5,-140"/>
<text text-anchor="middle" x="813" y="-128" font-family="Helvetica,sans-Serif" font-size="10.00">tools/logger.h</text>
</a>
</g>
</g>
<!-- Node1&#45;&gt;Node2 -->
<g id="edge1_Node000001_Node000002" class="edge">
<title>Node1&#45;&gt;Node2</title>
<g id="a_edge1_Node000001_Node000002"><a xlink:title=" ">
<path fill="none" stroke="#63b8ff" d="M824,-549.75C824,-529.42 824,-477.45 824,-434 824,-434 824,-434 824,-366 824,-270.98 974.99,-254.87 922,-176 909,-156.65 885.95,-145.71 864.39,-139.53"/>
<polygon fill="#63b8ff" stroke="#63b8ff" points="865.19,-136.12 854.63,-137.01 863.44,-142.9 865.19,-136.12"/>
</a>
</g>
</g>
<!-- Node17 -->
<g id="Node000017" class="node">
<title>Node17</title>
<g id="a_Node000017"><a xlink:href="application_8h.html" target="_top" xlink:title=" ">
<polygon fill="white" stroke="#666666" points="781.5,-442.5 644.5,-442.5 644.5,-423.5 781.5,-423.5 781.5,-442.5"/>
<text text-anchor="middle" x="713" y="-430.5" font-family="Helvetica,sans-Serif" font-size="10.00">application/application.h</text>
</a>
</g>
</g>
<!-- Node1&#45;&gt;Node17 -->
<g id="edge19_Node000001_Node000017" class="edge">
<title>Node1&#45;&gt;Node17</title>
<g id="a_edge19_Node000001_Node000017"><a xlink:title=" ">
<path fill="none" stroke="#63b8ff" d="M816.37,-549.94C798.07,-529.42 751.45,-477.12 727.57,-450.34"/>
<polygon fill="#63b8ff" stroke="#63b8ff" points="729.95,-447.75 720.68,-442.62 724.73,-452.41 729.95,-447.75"/>
</a>
</g>
</g>
<!-- Node39 -->
<g id="Node000039" class="node">
<title>Node39</title>
<g id="a_Node000039"><a xlink:href="log__window_8h.html" target="_top" xlink:title=" ">
<polygon fill="white" stroke="#666666" points="1455,-514 1351,-514 1351,-484 1455,-484 1455,-514"/>
<text text-anchor="start" x="1359" y="-502" font-family="Helvetica,sans-Serif" font-size="10.00">user_interface/log</text>
<text text-anchor="middle" x="1403" y="-491" font-family="Helvetica,sans-Serif" font-size="10.00">_window.h</text>
</a>
</g>
</g>
<!-- Node1&#45;&gt;Node39 -->
<g id="edge66_Node000001_Node000039" class="edge">
<title>Node1&#45;&gt;Node39</title>
<g id="a_edge66_Node000001_Node000039"><a xlink:title=" ">
<path fill="none" stroke="#63b8ff" d="M879.52,-552.89C987.8,-541.95 1226.52,-517.83 1340.3,-506.33"/>
<polygon fill="#63b8ff" stroke="#63b8ff" points="1340.99,-509.78 1350.59,-505.3 1340.29,-502.82 1340.99,-509.78"/>
</a>
</g>
</g>
<!-- Node3 -->
<g id="Node000003" class="node">
<title>Node3</title>
<g id="a_Node000003"><a xlink:title=" ">
<polygon fill="#e0e0e0" stroke="#999999" points="1032,-79.5 972,-79.5 972,-60.5 1032,-60.5 1032,-79.5"/>
<text text-anchor="middle" x="1002" y="-67.5" font-family="Helvetica,sans-Serif" font-size="10.00">iostream</text>
</a>
</g>
</g>
<!-- Node2&#45;&gt;Node3 -->
<g id="edge2_Node000002_Node000003" class="edge">
<title>Node2&#45;&gt;Node3</title>
<g id="a_edge2_Node000002_Node000003"><a xlink:title=" ">
<path fill="none" stroke="#63b8ff" d="M843.61,-120.97C874.03,-112.35 921.96,-98.44 963,-85 965.11,-84.31 967.28,-83.58 969.46,-82.83"/>
<polygon fill="#63b8ff" stroke="#63b8ff" points="970.69,-86.11 978.98,-79.51 968.38,-79.5 970.69,-86.11"/>
</a>
</g>
</g>
<!-- Node4 -->
<g id="Node000004" class="node">
<title>Node4</title>
<g id="a_Node000004"><a xlink:title=" ">
<polygon fill="#e0e0e0" stroke="#999999" points="691,-19 647,-19 647,0 691,0 691,-19"/>
<text text-anchor="middle" x="669" y="-7" font-family="Helvetica,sans-Serif" font-size="10.00">string</text>
</a>
</g>
</g>
<!-- Node2&#45;&gt;Node4 -->
<g id="edge3_Node000002_Node000004" class="edge">
<title>Node2&#45;&gt;Node4</title>
<g id="a_edge3_Node000002_Node000004"><a xlink:title=" ">
<path fill="none" stroke="#63b8ff" d="M802.64,-120.94C778.48,-100.97 718.09,-51.06 687.45,-25.75"/>
<polygon fill="#63b8ff" stroke="#63b8ff" points="689.59,-22.97 679.65,-19.3 685.13,-28.37 689.59,-22.97"/>
</a>
</g>
</g>
<!-- Node5 -->
<g id="Node000005" class="node">
<title>Node5</title>
<g id="a_Node000005"><a xlink:title=" ">
<polygon fill="#e0e0e0" stroke="#999999" points="314,-19 264,-19 264,0 314,0 314,-19"/>
<text text-anchor="middle" x="289" y="-7" font-family="Helvetica,sans-Serif" font-size="10.00">chrono</text>
</a>
</g>
</g>
<!-- Node2&#45;&gt;Node5 -->
<g id="edge4_Node000002_Node000005" class="edge">
<title>Node2&#45;&gt;Node5</title>
<g id="a_edge4_Node000002_Node000005"><a xlink:title=" ">
<path fill="none" stroke="#63b8ff" d="M771.2,-128.09C659.34,-123.98 359.19,-110.65 323,-85 304.73,-72.05 296.07,-46.84 292.11,-29.35"/>
<polygon fill="#63b8ff" stroke="#63b8ff" points="295.48,-28.33 290.14,-19.18 288.61,-29.67 295.48,-28.33"/>
</a>
</g>
</g>
<!-- Node6 -->
<g id="Node000006" class="node">
<title>Node6</title>
<g id="a_Node000006"><a xlink:title=" ">
<polygon fill="#e0e0e0" stroke="#999999" points="828,-79.5 772,-79.5 772,-60.5 828,-60.5 828,-79.5"/>
<text text-anchor="middle" x="800" y="-67.5" font-family="Helvetica,sans-Serif" font-size="10.00">iomanip</text>
</a>
</g>
</g>
<!-- Node2&#45;&gt;Node6 -->
<g id="edge5_Node000002_Node000006" class="edge">
<title>Node2&#45;&gt;Node6</title>
<g id="a_edge5_Node000002_Node000006"><a xlink:title=" ">
<path fill="none" stroke="#63b8ff" d="M811.08,-120.87C809.26,-112.66 806.45,-100.04 804.12,-89.55"/>
<polygon fill="#63b8ff" stroke="#63b8ff" points="807.51,-88.67 801.93,-79.67 800.68,-90.19 807.51,-88.67"/>
</a>
</g>
</g>
<!-- Node7 -->
<g id="Node000007" class="node">
<title>Node7</title>
<g id="a_Node000007"><a xlink:title=" ">
<polygon fill="#e0e0e0" stroke="#999999" points="953.5,-85 846.5,-85 846.5,-55 953.5,-55 953.5,-85"/>
<text text-anchor="start" x="854.5" y="-73" font-family="Helvetica,sans-Serif" font-size="10.00">imgui&#45;platform&#45;kit</text>
<text text-anchor="middle" x="900" y="-62" font-family="Helvetica,sans-Serif" font-size="10.00">/log_window.h</text>
</a>
</g>
</g>
<!-- Node2&#45;&gt;Node7 -->
<g id="edge6_Node000002_Node000007" class="edge">
<title>Node2&#45;&gt;Node7</title>
<g id="a_edge6_Node000002_Node000007"><a xlink:title=" ">
<path fill="none" stroke="#63b8ff" d="M825.84,-120.87C837.53,-113 855.25,-101.09 870.43,-90.89"/>
<polygon fill="#63b8ff" stroke="#63b8ff" points="872.66,-93.6 879.01,-85.11 868.76,-87.79 872.66,-93.6"/>
</a>
</g>
</g>
<!-- Node8 -->
<g id="Node000008" class="node">
<title>Node8</title>
<g id="a_Node000008"><a xlink:href="exception_8h.html" target="_top" xlink:title=" ">
<polygon fill="white" stroke="#666666" points="207,-79.5 77,-79.5 77,-60.5 207,-60.5 207,-79.5"/>
<text text-anchor="middle" x="142" y="-67.5" font-family="Helvetica,sans-Serif" font-size="10.00">exceptions/exception.h</text>
</a>
</g>
</g>
<!-- Node2&#45;&gt;Node8 -->
<g id="edge7_Node000002_Node000008" class="edge">
<title>Node2&#45;&gt;Node8</title>
<g id="a_edge7_Node000002_Node000008"><a xlink:title=" ">
<path fill="none" stroke="#63b8ff" d="M771.17,-126.26C681.25,-119.25 462.84,-101.91 280,-85 259.69,-83.12 237.72,-80.95 217.4,-78.89"/>
<polygon fill="#63b8ff" stroke="#63b8ff" points="217.57,-75.39 207.26,-77.86 216.86,-82.36 217.57,-75.39"/>
</a>
</g>
</g>
<!-- Node11 -->
<g id="Node000011" class="node">
<title>Node11</title>
<g id="a_Node000011"><a xlink:href="utils_8h.html" target="_top" xlink:title=" ">
<polygon fill="white" stroke="#666666" points="378.5,-79.5 331.5,-79.5 331.5,-60.5 378.5,-60.5 378.5,-79.5"/>
<text text-anchor="middle" x="355" y="-67.5" font-family="Helvetica,sans-Serif" font-size="10.00">utils.h</text>
</a>
</g>
</g>
<!-- Node2&#45;&gt;Node11 -->
<g id="edge11_Node000002_Node000011" class="edge">
<title>Node2&#45;&gt;Node11</title>
<g id="a_edge11_Node000002_Node000011"><a xlink:title=" ">
<path fill="none" stroke="#63b8ff" d="M771.14,-124.15C681.13,-112.66 470.67,-85.77 388.6,-75.29"/>
<polygon fill="#63b8ff" stroke="#63b8ff" points="388.94,-71.81 378.57,-74.01 388.05,-78.75 388.94,-71.81"/>
</a>
</g>
</g>
<!-- Node8&#45;&gt;Node4 -->
<g id="edge10_Node000008_Node000004" class="edge">
<title>Node8&#45;&gt;Node4</title>
<g id="a_edge10_Node000008_Node000004"><a xlink:title=" ">
<path fill="none" stroke="#63b8ff" d="M207.15,-61.77C320.97,-49.13 552.01,-23.49 636.83,-14.07"/>
<polygon fill="#63b8ff" stroke="#63b8ff" points="637.34,-17.54 646.89,-12.95 636.57,-10.58 637.34,-17.54"/>
</a>
</g>
</g>
<!-- Node9 -->
<g id="Node000009" class="node">
<title>Node9</title>
<g id="a_Node000009"><a xlink:title=" ">
<polygon fill="#e0e0e0" stroke="#999999" points="160,-19 110,-19 110,0 160,0 160,-19"/>
<text text-anchor="middle" x="135" y="-7" font-family="Helvetica,sans-Serif" font-size="10.00">cstdint</text>
</a>
</g>
</g>
<!-- Node8&#45;&gt;Node9 -->
<g id="edge8_Node000008_Node000009" class="edge">
<title>Node8&#45;&gt;Node9</title>
<g id="a_edge8_Node000008_Node000009"><a xlink:title=" ">
<path fill="none" stroke="#63b8ff" d="M140.97,-60.37C140,-52.25 138.51,-39.81 137.26,-29.39"/>
<polygon fill="#63b8ff" stroke="#63b8ff" points="140.7,-28.68 136.04,-19.17 133.75,-29.51 140.7,-28.68"/>
</a>
</g>
</g>
<!-- Node10 -->
<g id="Node000010" class="node">
<title>Node10</title>
<g id="a_Node000010"><a xlink:title=" ">
<polygon fill="#e0e0e0" stroke="#999999" points="91.5,-19 26.5,-19 26.5,0 91.5,0 91.5,-19"/>
<text text-anchor="middle" x="59" y="-7" font-family="Helvetica,sans-Serif" font-size="10.00">exception</text>
</a>
</g>
</g>
<!-- Node8&#45;&gt;Node10 -->
<g id="edge9_Node000008_Node000010" class="edge">
<title>Node8&#45;&gt;Node10</title>
<g id="a_edge9_Node000008_Node000010"><a xlink:title=" ">
<path fill="none" stroke="#63b8ff" d="M129.75,-60.37C116.64,-51.12 95.58,-36.28 79.85,-25.19"/>
<polygon fill="#63b8ff" stroke="#63b8ff" points="81.49,-22.07 71.3,-19.17 77.45,-27.79 81.49,-22.07"/>
</a>
</g>
</g>
<!-- Node11&#45;&gt;Node4 -->
<g id="edge12_Node000011_Node000004" class="edge">
<title>Node11&#45;&gt;Node4</title>
<g id="a_edge12_Node000011_Node000004"><a xlink:title=" ">
<path fill="none" stroke="#63b8ff" d="M376.07,-60.42C381.52,-58.42 387.42,-56.46 393,-55 479.57,-32.3 584.61,-19.22 636.61,-13.67"/>
<polygon fill="#63b8ff" stroke="#63b8ff" points="637.29,-17.12 646.88,-12.6 636.57,-10.16 637.29,-17.12"/>
</a>
</g>
</g>
<!-- Node11&#45;&gt;Node5 -->
<g id="edge17_Node000011_Node000005" class="edge">
<title>Node11&#45;&gt;Node5</title>
<g id="a_edge17_Node000011_Node000005"><a xlink:title=" ">
<path fill="none" stroke="#63b8ff" d="M345.26,-60.37C335.03,-51.3 318.71,-36.84 306.28,-25.82"/>
<polygon fill="#63b8ff" stroke="#63b8ff" points="308.58,-23.18 298.78,-19.17 303.94,-28.42 308.58,-23.18"/>
</a>
</g>
</g>
<!-- Node12 -->
<g id="Node000012" class="node">
<title>Node12</title>
<g id="a_Node000012"><a xlink:title=" ">
<polygon fill="#e0e0e0" stroke="#999999" points="1254.5,-19 1207.5,-19 1207.5,0 1254.5,0 1254.5,-19"/>
<text text-anchor="middle" x="1231" y="-7" font-family="Helvetica,sans-Serif" font-size="10.00">vector</text>
</a>
</g>
</g>
<!-- Node11&#45;&gt;Node12 -->
<g id="edge13_Node000011_Node000012" class="edge">
<title>Node11&#45;&gt;Node12</title>
<g id="a_edge13_Node000011_Node000012"><a xlink:title=" ">
<path fill="none" stroke="#63b8ff" d="M378.89,-67.4C500.75,-59.27 1053.08,-22.38 1196.75,-12.79"/>
<polygon fill="#63b8ff" stroke="#63b8ff" points="1197.39,-16.25 1207.14,-12.09 1196.93,-9.27 1197.39,-16.25"/>
</a>
</g>
</g>
<!-- Node13 -->
<g id="Node000013" class="node">
<title>Node13</title>
<g id="a_Node000013"><a xlink:title=" ">
<polygon fill="#e0e0e0" stroke="#999999" points="460,-19 406,-19 406,0 460,0 460,-19"/>
<text text-anchor="middle" x="433" y="-7" font-family="Helvetica,sans-Serif" font-size="10.00">random</text>
</a>
</g>
</g>
<!-- Node11&#45;&gt;Node13 -->
<g id="edge14_Node000011_Node000013" class="edge">
<title>Node11&#45;&gt;Node13</title>
<g id="a_edge14_Node000011_Node000013"><a xlink:title=" ">
<path fill="none" stroke="#63b8ff" d="M366.51,-60.37C378.84,-51.12 398.62,-36.28 413.41,-25.19"/>
<polygon fill="#63b8ff" stroke="#63b8ff" points="415.54,-27.97 421.44,-19.17 411.34,-22.37 415.54,-27.97"/>
</a>
</g>
</g>
<!-- Node14 -->
<g id="Node000014" class="node">
<title>Node14</title>
<g id="a_Node000014"><a xlink:title=" ">
<polygon fill="#e0e0e0" stroke="#999999" points="534,-19 478,-19 478,0 534,0 534,-19"/>
<text text-anchor="middle" x="506" y="-7" font-family="Helvetica,sans-Serif" font-size="10.00">sstream</text>
</a>
</g>
</g>
<!-- Node11&#45;&gt;Node14 -->
<g id="edge15_Node000011_Node000014" class="edge">
<title>Node11&#45;&gt;Node14</title>
<g id="a_edge15_Node000011_Node000014"><a xlink:title=" ">
<path fill="none" stroke="#63b8ff" d="M376.96,-60.49C402.68,-50.53 445.48,-33.95 474.68,-22.63"/>
<polygon fill="#63b8ff" stroke="#63b8ff" points="475.96,-25.89 484.02,-19.02 473.43,-19.37 475.96,-25.89"/>
</a>
</g>
</g>
<!-- Node15 -->
<g id="Node000015" class="node">
<title>Node15</title>
<g id="a_Node000015"><a xlink:title=" ">
<polygon fill="#e0e0e0" stroke="#999999" points="387.5,-19 332.5,-19 332.5,0 387.5,0 387.5,-19"/>
<text text-anchor="middle" x="360" y="-7" font-family="Helvetica,sans-Serif" font-size="10.00">fstream</text>
</a>
</g>
</g>
<!-- Node11&#45;&gt;Node15 -->
<g id="edge16_Node000011_Node000015" class="edge">
<title>Node11&#45;&gt;Node15</title>
<g id="a_edge16_Node000011_Node000015"><a xlink:title=" ">
<path fill="none" stroke="#63b8ff" d="M355.74,-60.37C356.43,-52.25 357.5,-39.81 358.39,-29.39"/>
<polygon fill="#63b8ff" stroke="#63b8ff" points="361.89,-29.43 359.26,-19.17 354.92,-28.83 361.89,-29.43"/>
</a>
</g>
</g>
<!-- Node16 -->
<g id="Node000016" class="node">
<title>Node16</title>
<g id="a_Node000016"><a xlink:title=" ">
<polygon fill="#e0e0e0" stroke="#999999" points="246,-19 178,-19 178,0 246,0 246,-19"/>
<text text-anchor="middle" x="212" y="-7" font-family="Helvetica,sans-Serif" font-size="10.00">filesystem</text>
</a>
</g>
</g>
<!-- Node11&#45;&gt;Node16 -->
<g id="edge18_Node000011_Node000016" class="edge">
<title>Node11&#45;&gt;Node16</title>
<g id="a_edge18_Node000011_Node000016"><a xlink:title=" ">
<path fill="none" stroke="#63b8ff" d="M334.21,-60.49C310.06,-50.62 270.02,-34.23 242.38,-22.93"/>
<polygon fill="#63b8ff" stroke="#63b8ff" points="243.4,-19.56 232.82,-19.02 240.75,-26.04 243.4,-19.56"/>
</a>
</g>
</g>
<!-- Node17&#45;&gt;Node8 -->
<g id="edge22_Node000017_Node000008" class="edge">
<title>Node17&#45;&gt;Node8</title>
<g id="a_edge22_Node000017_Node000008"><a xlink:title=" ">
<path fill="none" stroke="#63b8ff" d="M644.31,-427.19C465.61,-413.74 0,-372.49 0,-307.5 0,-307.5 0,-307.5 0,-190 0,-134.65 64.17,-99.94 106.24,-83.13"/>
<polygon fill="#63b8ff" stroke="#63b8ff" points="107.54,-86.38 115.62,-79.53 105.03,-79.84 107.54,-86.38"/>
</a>
</g>
</g>
<!-- Node18 -->
<g id="Node000018" class="node">
<title>Node18</title>
<g id="a_Node000018"><a xlink:title=" ">
<polygon fill="#e0e0e0" stroke="#999999" points="795.5,-376.5 726.5,-376.5 726.5,-357.5 795.5,-357.5 795.5,-376.5"/>
<text text-anchor="middle" x="761" y="-364.5" font-family="Helvetica,sans-Serif" font-size="10.00">type_traits</text>
</a>
</g>
</g>
<!-- Node17&#45;&gt;Node18 -->
<g id="edge20_Node000017_Node000018" class="edge">
<title>Node17&#45;&gt;Node18</title>
<g id="a_edge20_Node000017_Node000018"><a xlink:title=" ">
<path fill="none" stroke="#63b8ff" d="M719.47,-423.37C726.8,-413.59 738.93,-397.42 748.19,-385.08"/>
<polygon fill="#63b8ff" stroke="#63b8ff" points="751.12,-387.01 754.32,-376.91 745.52,-382.81 751.12,-387.01"/>
</a>
</g>
</g>
<!-- Node19 -->
<g id="Node000019" class="node">
<title>Node19</title>
<g id="a_Node000019"><a xlink:title=" ">
<polygon fill="#e0e0e0" stroke="#999999" points="368.5,-382 261.5,-382 261.5,-352 368.5,-352 368.5,-382"/>
<text text-anchor="start" x="269.5" y="-370" font-family="Helvetica,sans-Serif" font-size="10.00">imgui&#45;platform&#45;kit</text>
<text text-anchor="middle" x="315" y="-359" font-family="Helvetica,sans-Serif" font-size="10.00">/user_interface.h</text>
</a>
</g>
</g>
<!-- Node17&#45;&gt;Node19 -->
<g id="edge21_Node000017_Node000019" class="edge">
<title>Node17&#45;&gt;Node19</title>
<g id="a_edge21_Node000017_Node000019"><a xlink:title=" ">
<path fill="none" stroke="#63b8ff" d="M646.35,-423.46C580.76,-414.74 477.57,-400.16 378.45,-382"/>
<polygon fill="#63b8ff" stroke="#63b8ff" points="379.03,-378.55 368.56,-380.17 377.76,-385.43 379.03,-378.55"/>
</a>
</g>
</g>
<!-- Node20 -->
<g id="Node000020" class="node">
<title>Node20</title>
<g id="a_Node000020"><a xlink:href="simulation_8h.html" target="_top" xlink:title=" ">
<polygon fill="white" stroke="#666666" points="507,-316 375,-316 375,-297 507,-297 507,-316"/>
<text text-anchor="middle" x="441" y="-304" font-family="Helvetica,sans-Serif" font-size="10.00">simulation/simulation.h</text>
</a>
</g>
</g>
<!-- Node17&#45;&gt;Node20 -->
<g id="edge23_Node000017_Node000020" class="edge">
<title>Node17&#45;&gt;Node20</title>
<g id="a_edge23_Node000017_Node000020"><a xlink:title=" ">
<path fill="none" stroke="#63b8ff" d="M712,-423.42C709.58,-406.82 701.82,-370.34 679,-352 654.49,-332.31 577.35,-320.43 517.47,-313.97"/>
<polygon fill="#63b8ff" stroke="#63b8ff" points="517.57,-310.46 507.26,-312.9 516.84,-317.42 517.57,-310.46"/>
</a>
</g>
</g>
<!-- Node30 -->
<g id="Node000030" class="node">
<title>Node30</title>
<g id="a_Node000030"><a xlink:href="visualization_8h.html" target="_top" xlink:title=" ">
<polygon fill="white" stroke="#666666" points="1005.5,-376.5 852.5,-376.5 852.5,-357.5 1005.5,-357.5 1005.5,-376.5"/>
<text text-anchor="middle" x="929" y="-364.5" font-family="Helvetica,sans-Serif" font-size="10.00">visualization/visualization.h</text>
</a>
</g>
</g>
<!-- Node17&#45;&gt;Node30 -->
<g id="edge46_Node000017_Node000030" class="edge">
<title>Node17&#45;&gt;Node30</title>
<g id="a_edge46_Node000017_Node000030"><a xlink:title=" ">
<path fill="none" stroke="#63b8ff" d="M742.13,-423.37C780.4,-412.03 847.73,-392.08 890.26,-379.48"/>
<polygon fill="#63b8ff" stroke="#63b8ff" points="891.39,-382.79 899.99,-376.6 889.4,-376.08 891.39,-382.79"/>
</a>
</g>
</g>
<!-- Node35 -->
<g id="Node000035" class="node">
<title>Node35</title>
<g id="a_Node000035"><a xlink:href="IconsFontAwesome6_8h.html" target="_top" xlink:title=" ">
<polygon fill="white" stroke="#666666" points="515.5,-382 386.5,-382 386.5,-352 515.5,-352 515.5,-382"/>
<text text-anchor="start" x="394.5" y="-370" font-family="Helvetica,sans-Serif" font-size="10.00">user_interface/fonts</text>
<text text-anchor="middle" x="451" y="-359" font-family="Helvetica,sans-Serif" font-size="10.00">/IconsFontAwesome6.h</text>
</a>
</g>
</g>
<!-- Node17&#45;&gt;Node35 -->
<g id="edge62_Node000017_Node000035" class="edge">
<title>Node17&#45;&gt;Node35</title>
<g id="a_edge62_Node000017_Node000035"><a xlink:title=" ">
<path fill="none" stroke="#63b8ff" d="M677.94,-423.44C637.28,-413.5 569.34,-396.91 518.37,-384.46"/>
<polygon fill="#63b8ff" stroke="#63b8ff" points="518.96,-381 508.41,-382.02 517.3,-387.8 518.96,-381"/>
</a>
</g>
</g>
<!-- Node36 -->
<g id="Node000036" class="node">
<title>Node36</title>
<g id="a_Node000036"><a xlink:href="fa_8h.html" target="_top" xlink:title=" ">
<polygon fill="white" stroke="#666666" points="670,-376.5 534,-376.5 534,-357.5 670,-357.5 670,-376.5"/>
<text text-anchor="middle" x="602" y="-364.5" font-family="Helvetica,sans-Serif" font-size="10.00">user_interface/fonts/fa.h</text>
</a>
</g>
</g>
<!-- Node17&#45;&gt;Node36 -->
<g id="edge63_Node000017_Node000036" class="edge">
<title>Node17&#45;&gt;Node36</title>
<g id="a_edge63_Node000017_Node000036"><a xlink:title=" ">
<path fill="none" stroke="#63b8ff" d="M698.03,-423.37C679.49,-412.68 647.69,-394.35 625.8,-381.72"/>
<polygon fill="#63b8ff" stroke="#63b8ff" points="627.5,-378.66 617.09,-376.7 624,-384.73 627.5,-378.66"/>
</a>
</g>
</g>
<!-- Node37 -->
<g id="Node000037" class="node">
<title>Node37</title>
<g id="a_Node000037"><a xlink:href="imgui__freetype_8h.html" target="_top" xlink:title=" ">
<polygon fill="white" stroke="#666666" points="1247,-382 1133,-382 1133,-352 1247,-352 1247,-382"/>
<text text-anchor="start" x="1141" y="-370" font-family="Helvetica,sans-Serif" font-size="10.00">user_interface/fonts</text>
<text text-anchor="middle" x="1190" y="-359" font-family="Helvetica,sans-Serif" font-size="10.00">/imgui_freetype.h</text>
</a>
</g>
</g>
<!-- Node17&#45;&gt;Node37 -->
<g id="edge64_Node000017_Node000037" class="edge">
<title>Node17&#45;&gt;Node37</title>
<g id="a_edge64_Node000017_Node000037"><a xlink:title=" ">
<path fill="none" stroke="#63b8ff" d="M776.84,-423.44C867,-411.34 1030.9,-389.35 1122.84,-377.01"/>
<polygon fill="#63b8ff" stroke="#63b8ff" points="1123.43,-380.46 1132.87,-375.66 1122.5,-373.53 1123.43,-380.46"/>
</a>
</g>
</g>
<!-- Node20&#45;&gt;Node4 -->
<g id="edge26_Node000020_Node000004" class="edge">
<title>Node20&#45;&gt;Node4</title>
<g id="a_edge26_Node000020_Node000004"><a xlink:title=" ">
<path fill="none" stroke="#63b8ff" d="M412.83,-296.97C358.64,-279.04 248.31,-234.22 285,-176 325.13,-112.33 552.17,-43.22 637.02,-19.26"/>
<polygon fill="#63b8ff" stroke="#63b8ff" points="638.18,-22.57 646.87,-16.5 636.29,-15.83 638.18,-22.57"/>
</a>
</g>
</g>
<!-- Node20&#45;&gt;Node5 -->
<g id="edge28_Node000020_Node000005" class="edge">
<title>Node20&#45;&gt;Node5</title>
<g id="a_edge28_Node000020_Node000005"><a xlink:title=" ">
<path fill="none" stroke="#63b8ff" d="M374.83,-301.33C311.38,-295.99 221.57,-284.45 196,-261 150.13,-218.94 168.48,-175.78 198,-121 218.3,-83.34 252.45,-46.36 272.64,-26.18"/>
<polygon fill="#63b8ff" stroke="#63b8ff" points="275.2,-28.57 279.88,-19.07 270.29,-23.58 275.2,-28.57"/>
</a>
</g>
</g>
<!-- Node20&#45;&gt;Node8 -->
<g id="edge44_Node000020_Node000008" class="edge">
<title>Node20&#45;&gt;Node8</title>
<g id="a_edge44_Node000020_Node000008"><a xlink:title=" ">
<path fill="none" stroke="#63b8ff" d="M374.89,-305.46C295.13,-303.84 167.98,-295.7 138,-261 95.6,-211.92 120.68,-126.17 134.6,-89.02"/>
<polygon fill="#63b8ff" stroke="#63b8ff" points="137.94,-90.1 138.33,-79.52 131.42,-87.55 137.94,-90.1"/>
</a>
</g>
</g>
<!-- Node20&#45;&gt;Node11 -->
<g id="edge45_Node000020_Node000011" class="edge">
<title>Node20&#45;&gt;Node11</title>
<g id="a_edge45_Node000020_Node000011"><a xlink:title=" ">
<path fill="none" stroke="#63b8ff" d="M374.97,-301.65C315.39,-296.64 234.1,-285.42 214,-261 174.46,-212.96 178.1,-171.82 214,-121 238.14,-86.83 287.72,-75.87 321.17,-72.43"/>
<polygon fill="#63b8ff" stroke="#63b8ff" points="321.74,-75.9 331.41,-71.56 321.15,-68.92 321.74,-75.9"/>
</a>
</g>
</g>
<!-- Node20&#45;&gt;Node12 -->
<g id="edge24_Node000020_Node000012" class="edge">
<title>Node20&#45;&gt;Node12</title>
<g id="a_edge24_Node000020_Node000012"><a xlink:title=" ">
<path fill="none" stroke="#63b8ff" d="M507.26,-299.17C673.15,-282.91 1097.01,-238.65 1152,-206 1206.61,-173.58 1212.39,-146.56 1228,-85 1232.66,-66.6 1232.97,-44.84 1232.38,-29.6"/>
<polygon fill="#63b8ff" stroke="#63b8ff" points="1235.86,-29.18 1231.81,-19.39 1228.87,-29.56 1235.86,-29.18"/>
</a>
</g>
</g>
<!-- Node20&#45;&gt;Node16 -->
<g id="edge27_Node000020_Node000016" class="edge">
<title>Node20&#45;&gt;Node16</title>
<g id="a_edge27_Node000020_Node000016"><a xlink:title=" ">
<path fill="none" stroke="#63b8ff" d="M374.94,-304.5C292.58,-301.89 158.06,-292.74 121,-261 49.2,-199.5 11.88,-131.08 68,-55 74.16,-46.65 127.93,-31.57 167.97,-21.3"/>
<polygon fill="#63b8ff" stroke="#63b8ff" points="168.99,-24.66 177.82,-18.8 167.27,-17.87 168.99,-24.66"/>
</a>
</g>
</g>
<!-- Node21 -->
<g id="Node000021" class="node">
<title>Node21</title>
<g id="a_Node000021"><a xlink:title=" ">
<polygon fill="#e0e0e0" stroke="#999999" points="913,-200.5 855,-200.5 855,-181.5 913,-181.5 913,-200.5"/>
<text text-anchor="middle" x="884" y="-188.5" font-family="Helvetica,sans-Serif" font-size="10.00">memory</text>
</a>
</g>
</g>
<!-- Node20&#45;&gt;Node21 -->
<g id="edge25_Node000020_Node000021" class="edge">
<title>Node20&#45;&gt;Node21</title>
<g id="a_edge25_Node000020_Node000021"><a xlink:title=" ">
<path fill="none" stroke="#63b8ff" d="M507.04,-299.58C564.41,-293.35 649.31,-281.54 721,-261 771.33,-246.58 826.87,-220.79 858.38,-205.15"/>
<polygon fill="#63b8ff" stroke="#63b8ff" points="859.99,-208.26 867.36,-200.65 856.86,-202.01 859.99,-208.26"/>
</a>
</g>
</g>
<!-- Node22 -->
<g id="Node000022" class="node">
<title>Node22</title>
<g id="a_Node000022"><a xlink:href="element_8h.html" target="_top" xlink:title=" ">
<polygon fill="white" stroke="#666666" points="711.5,-261 596.5,-261 596.5,-242 711.5,-242 711.5,-261"/>
<text text-anchor="middle" x="654" y="-249" font-family="Helvetica,sans-Serif" font-size="10.00">elements/element.h</text>
</a>
</g>
</g>
<!-- Node20&#45;&gt;Node22 -->
<g id="edge29_Node000020_Node000022" class="edge">
<title>Node20&#45;&gt;Node22</title>
<g id="a_edge29_Node000020_Node000022"><a xlink:title=" ">
<path fill="none" stroke="#63b8ff" d="M475.22,-296.98C511.76,-287.89 569.78,-273.46 609.76,-263.51"/>
<polygon fill="#63b8ff" stroke="#63b8ff" points="610.65,-266.89 619.51,-261.08 608.96,-260.1 610.65,-266.89"/>
</a>
</g>
</g>
<!-- Node22&#45;&gt;Node2 -->
<g id="edge38_Node000022_Node000002" class="edge">
<title>Node22&#45;&gt;Node2</title>
<g id="a_edge38_Node000022_Node000002"><a xlink:title=" ">
<path fill="none" stroke="#63b8ff" d="M711.67,-247.96C743.3,-243.4 780.55,-232.27 803,-206 816.09,-190.68 817.03,-166.75 815.71,-150.16"/>
<polygon fill="#63b8ff" stroke="#63b8ff" points="819.17,-149.58 814.56,-140.04 812.21,-150.37 819.17,-149.58"/>
</a>
</g>
</g>
<!-- Node22&#45;&gt;Node4 -->
<g id="edge31_Node000022_Node000004" class="edge">
<title>Node22&#45;&gt;Node4</title>
<g id="a_edge31_Node000022_Node000004"><a xlink:title=" ">
<path fill="none" stroke="#63b8ff" d="M711.64,-242.5C733.67,-236.32 756.68,-225.37 770,-206 777.55,-195.01 773.61,-188.84 770,-176 761.01,-144.02 705.85,-62.98 681.05,-27.54"/>
<polygon fill="#63b8ff" stroke="#63b8ff" points="683.8,-25.36 675.19,-19.19 678.08,-29.39 683.8,-25.36"/>
</a>
</g>
</g>
<!-- Node22&#45;&gt;Node8 -->
<g id="edge37_Node000022_Node000008" class="edge">
<title>Node22&#45;&gt;Node8</title>
<g id="a_edge37_Node000022_Node000008"><a xlink:title=" ">
<path fill="none" stroke="#63b8ff" d="M596.34,-247.94C506.77,-243.23 338.9,-231.26 285,-206 226.17,-178.42 175.78,-117.24 153.79,-87.66"/>
<polygon fill="#63b8ff" stroke="#63b8ff" points="156.62,-85.59 147.9,-79.56 150.96,-89.71 156.62,-85.59"/>
</a>
</g>
</g>
<!-- Node22&#45;&gt;Node12 -->
<g id="edge30_Node000022_Node000012" class="edge">
<title>Node22&#45;&gt;Node12</title>
<g id="a_edge30_Node000022_Node000012"><a xlink:title=" ">
<path fill="none" stroke="#63b8ff" d="M711.75,-248C829.35,-242.48 1088.34,-227.98 1122,-206 1186.84,-163.66 1216.78,-68.79 1226.87,-28.81"/>
<polygon fill="#63b8ff" stroke="#63b8ff" points="1230.27,-29.62 1229.2,-19.08 1223.46,-27.99 1230.27,-29.62"/>
</a>
</g>
</g>
<!-- Node22&#45;&gt;Node21 -->
<g id="edge33_Node000022_Node000021" class="edge">
<title>Node22&#45;&gt;Node21</title>
<g id="a_edge33_Node000022_Node000021"><a xlink:title=" ">
<path fill="none" stroke="#63b8ff" d="M694,-241.97C732.03,-233.62 790.72,-220.14 841,-206 843.6,-205.27 846.28,-204.48 848.97,-203.66"/>
<polygon fill="#63b8ff" stroke="#63b8ff" points="850.14,-206.96 858.64,-200.63 848.05,-200.29 850.14,-206.96"/>
</a>
</g>
</g>
<!-- Node23 -->
<g id="Node000023" class="node">
<title>Node23</title>
<g id="a_Node000023"><a xlink:title=" ">
<polygon fill="#e0e0e0" stroke="#999999" points="610.5,-200.5 517.5,-200.5 517.5,-181.5 610.5,-181.5 610.5,-200.5"/>
<text text-anchor="middle" x="564" y="-188.5" font-family="Helvetica,sans-Serif" font-size="10.00">unordered_map</text>
</a>
</g>
</g>
<!-- Node22&#45;&gt;Node23 -->
<g id="edge32_Node000022_Node000023" class="edge">
<title>Node22&#45;&gt;Node23</title>
<g id="a_edge32_Node000022_Node000023"><a xlink:title=" ">
<path fill="none" stroke="#63b8ff" d="M640.72,-241.87C626.36,-232.54 603.24,-217.51 586.13,-206.38"/>
<polygon fill="#63b8ff" stroke="#63b8ff" points="587.63,-203.18 577.33,-200.67 583.81,-209.05 587.63,-203.18"/>
</a>
</g>
</g>
<!-- Node24 -->
<g id="Node000024" class="node">
<title>Node24</title>
<g id="a_Node000024"><a xlink:title=" ">
<polygon fill="#e0e0e0" stroke="#999999" points="679,-200.5 629,-200.5 629,-181.5 679,-181.5 679,-200.5"/>
<text text-anchor="middle" x="654" y="-188.5" font-family="Helvetica,sans-Serif" font-size="10.00">ranges</text>
</a>
</g>
</g>
<!-- Node22&#45;&gt;Node24 -->
<g id="edge34_Node000022_Node000024" class="edge">
<title>Node22&#45;&gt;Node24</title>
<g id="a_edge34_Node000022_Node000024"><a xlink:title=" ">
<path fill="none" stroke="#63b8ff" d="M654,-241.87C654,-233.75 654,-221.31 654,-210.89"/>
<polygon fill="#63b8ff" stroke="#63b8ff" points="657.5,-210.67 654,-200.67 650.5,-210.67 657.5,-210.67"/>
</a>
</g>
</g>
<!-- Node25 -->
<g id="Node000025" class="node">
<title>Node25</title>
<g id="a_Node000025"><a xlink:title=" ">
<polygon fill="#e0e0e0" stroke="#999999" points="761,-200.5 697,-200.5 697,-181.5 761,-181.5 761,-200.5"/>
<text text-anchor="middle" x="729" y="-188.5" font-family="Helvetica,sans-Serif" font-size="10.00">algorithm</text>
</a>
</g>
</g>
<!-- Node22&#45;&gt;Node25 -->
<g id="edge35_Node000022_Node000025" class="edge">
<title>Node22&#45;&gt;Node25</title>
<g id="a_edge35_Node000022_Node000025"><a xlink:title=" ">
<path fill="none" stroke="#63b8ff" d="M665.07,-241.87C676.81,-232.71 695.59,-218.06 709.76,-207.01"/>
<polygon fill="#63b8ff" stroke="#63b8ff" points="712.16,-209.58 717.89,-200.67 707.85,-204.06 712.16,-209.58"/>
</a>
</g>
</g>
<!-- Node26 -->
<g id="Node000026" class="node">
<title>Node26</title>
<g id="a_Node000026"><a xlink:title=" ">
<polygon fill="#e0e0e0" stroke="#999999" points="350,-200.5 294,-200.5 294,-181.5 350,-181.5 350,-200.5"/>
<text text-anchor="middle" x="322" y="-188.5" font-family="Helvetica,sans-Serif" font-size="10.00">numeric</text>
</a>
</g>
</g>
<!-- Node22&#45;&gt;Node26 -->
<g id="edge36_Node000022_Node000026" class="edge">
<title>Node22&#45;&gt;Node26</title>
<g id="a_edge36_Node000022_Node000026"><a xlink:title=" ">
<path fill="none" stroke="#63b8ff" d="M596.4,-245.27C536.62,-239.03 440.75,-226.76 360,-206 357.56,-205.37 355.05,-204.65 352.55,-203.86"/>
<polygon fill="#63b8ff" stroke="#63b8ff" points="353.66,-200.54 343.06,-200.62 351.4,-207.16 353.66,-200.54"/>
</a>
</g>
</g>
<!-- Node27 -->
<g id="Node000027" class="node">
<title>Node27</title>
<g id="a_Node000027"><a xlink:href="element__parameters_8h.html" target="_top" xlink:title=" ">
<polygon fill="white" stroke="#666666" points="499.5,-206 368.5,-206 368.5,-176 499.5,-176 499.5,-206"/>
<text text-anchor="start" x="376.5" y="-194" font-family="Helvetica,sans-Serif" font-size="10.00">element_parameters</text>
<text text-anchor="middle" x="434" y="-183" font-family="Helvetica,sans-Serif" font-size="10.00">/element_parameters.h</text>
</a>
</g>
</g>
<!-- Node22&#45;&gt;Node27 -->
<g id="edge39_Node000022_Node000027" class="edge">
<title>Node22&#45;&gt;Node27</title>
<g id="a_edge39_Node000022_Node000027"><a xlink:title=" ">
<path fill="none" stroke="#63b8ff" d="M622.01,-241.99C589.31,-233.3 537.67,-219.57 496.77,-208.69"/>
<polygon fill="#63b8ff" stroke="#63b8ff" points="497.45,-205.25 486.89,-206.06 495.66,-212.02 497.45,-205.25"/>
</a>
</g>
</g>
<!-- Node27&#45;&gt;Node2 -->
<g id="edge43_Node000027_Node000002" class="edge">
<title>Node27&#45;&gt;Node2</title>
<g id="a_edge43_Node000027_Node000002"><a xlink:title=" ">
<path fill="none" stroke="#63b8ff" d="M499.82,-177.56C502.92,-177.02 505.99,-176.5 509,-176 597.29,-161.3 700.44,-146.76 761.04,-138.47"/>
<polygon fill="#63b8ff" stroke="#63b8ff" points="761.69,-141.92 771.12,-137.1 760.74,-134.98 761.69,-141.92"/>
</a>
</g>
</g>
<!-- Node27&#45;&gt;Node4 -->
<g id="edge41_Node000027_Node000004" class="edge">
<title>Node27&#45;&gt;Node4</title>
<g id="a_edge41_Node000027_Node000004"><a xlink:title=" ">
<path fill="none" stroke="#63b8ff" d="M452.44,-175.91C496.06,-142.6 605.24,-59.2 649.7,-25.24"/>
<polygon fill="#63b8ff" stroke="#63b8ff" points="651.87,-27.99 657.7,-19.13 647.62,-22.42 651.87,-27.99"/>
</a>
</g>
</g>
<!-- Node28 -->
<g id="Node000028" class="node">
<title>Node28</title>
<g id="a_Node000028"><a xlink:title=" ">
<polygon fill="#e0e0e0" stroke="#999999" points="965,-140 927,-140 927,-121 965,-121 965,-140"/>
<text text-anchor="middle" x="946" y="-128" font-family="Helvetica,sans-Serif" font-size="10.00">map</text>
</a>
</g>
</g>
<!-- Node27&#45;&gt;Node28 -->
<g id="edge40_Node000027_Node000028" class="edge">
<title>Node27&#45;&gt;Node28</title>
<g id="a_edge40_Node000027_Node000028"><a xlink:title=" ">
<path fill="none" stroke="#63b8ff" d="M499.8,-177.4C502.91,-176.9 505.98,-176.43 509,-176 665.97,-153.43 706.24,-156.18 864,-140 881.47,-138.21 901.03,-136.18 916.66,-134.56"/>
<polygon fill="#63b8ff" stroke="#63b8ff" points="917.2,-138.02 926.78,-133.5 916.47,-131.06 917.2,-138.02"/>
</a>
</g>
</g>
<!-- Node29 -->
<g id="Node000029" class="node">
<title>Node29</title>
<g id="a_Node000029"><a xlink:title=" ">
<polygon fill="#e0e0e0" stroke="#999999" points="459,-140 409,-140 409,-121 459,-121 459,-140"/>
<text text-anchor="middle" x="434" y="-128" font-family="Helvetica,sans-Serif" font-size="10.00">format</text>
</a>
</g>
</g>
<!-- Node27&#45;&gt;Node29 -->
<g id="edge42_Node000027_Node000029" class="edge">
<title>Node27&#45;&gt;Node29</title>
<g id="a_edge42_Node000027_Node000029"><a xlink:title=" ">
<path fill="none" stroke="#63b8ff" d="M434,-175.84C434,-168.21 434,-158.7 434,-150.45"/>
<polygon fill="#63b8ff" stroke="#63b8ff" points="437.5,-150.27 434,-140.27 430.5,-150.27 437.5,-150.27"/>
</a>
</g>
</g>
<!-- Node30&#45;&gt;Node2 -->
<g id="edge57_Node000030_Node000002" class="edge">
<title>Node30&#45;&gt;Node2</title>
<g id="a_edge57_Node000030_Node000002"><a xlink:title=" ">
<path fill="none" stroke="#63b8ff" d="M922.46,-357.15C913.36,-343.67 899.06,-317.41 909,-297 920.37,-273.66 943.63,-284.34 955,-261 971.55,-227.04 977.36,-206.45 955,-176 934.44,-148.01 896.31,-137.14 864.73,-133.14"/>
<polygon fill="#63b8ff" stroke="#63b8ff" points="865.06,-129.65 854.74,-132.06 864.31,-136.61 865.06,-129.65"/>
</a>
</g>
</g>
<!-- Node30&#45;&gt;Node3 -->
<g id="edge47_Node000030_Node000003" class="edge">
<title>Node30&#45;&gt;Node3</title>
<g id="a_edge47_Node000030_Node000003"><a xlink:title=" ">
<path fill="none" stroke="#63b8ff" d="M1005.57,-363.49C1081.57,-359.19 1190.45,-347.55 1217,-316 1292.84,-225.86 1103.2,-120.33 1029.67,-84.03"/>
<polygon fill="#63b8ff" stroke="#63b8ff" points="1031.03,-80.8 1020.5,-79.57 1027.96,-87.09 1031.03,-80.8"/>
</a>
</g>
</g>
<!-- Node30&#45;&gt;Node8 -->
<g id="edge50_Node000030_Node000008" class="edge">
<title>Node30&#45;&gt;Node8</title>
<g id="a_edge50_Node000030_Node000008"><a xlink:title=" ">
<path fill="none" stroke="#63b8ff" d="M856.91,-357.48C839.9,-355.58 821.82,-353.64 805,-352 719.47,-343.67 38,-338.44 38,-252.5 38,-252.5 38,-252.5 38,-190 38,-142.26 86.05,-104.44 116.82,-85.11"/>
<polygon fill="#63b8ff" stroke="#63b8ff" points="119,-87.88 125.75,-79.72 115.38,-81.89 119,-87.88"/>
</a>
</g>
</g>
<!-- Node30&#45;&gt;Node12 -->
<g id="edge48_Node000030_Node000012" class="edge">
<title>Node30&#45;&gt;Node12</title>
<g id="a_edge48_Node000030_Node000012"><a xlink:title=" ">
<path fill="none" stroke="#63b8ff" d="M1005.8,-361.66C1084.68,-355.8 1200.77,-342.82 1236,-316 1284.26,-279.26 1293,-252.65 1293,-192 1293,-192 1293,-192 1293,-129.5 1293,-88.99 1264.39,-48.6 1246.04,-26.86"/>
<polygon fill="#63b8ff" stroke="#63b8ff" points="1248.58,-24.46 1239.36,-19.24 1243.31,-29.07 1248.58,-24.46"/>
</a>
</g>
</g>
<!-- Node30&#45;&gt;Node20 -->
<g id="edge49_Node000030_Node000020" class="edge">
<title>Node30&#45;&gt;Node20</title>
<g id="a_edge49_Node000030_Node000020"><a xlink:title=" ">
<path fill="none" stroke="#63b8ff" d="M858.04,-357.49C767.24,-346.61 610.58,-327.83 517.28,-316.64"/>
<polygon fill="#63b8ff" stroke="#63b8ff" points="517.69,-313.17 507.35,-315.45 516.86,-320.12 517.69,-313.17"/>
</a>
</g>
</g>
<!-- Node31 -->
<g id="Node000031" class="node">
<title>Node31</title>
<g id="a_Node000031"><a xlink:href="plot_8h.html" target="_top" xlink:title=" ">
<polygon fill="white" stroke="#666666" points="1066,-261 1022,-261 1022,-242 1066,-242 1066,-261"/>
<text text-anchor="middle" x="1044" y="-249" font-family="Helvetica,sans-Serif" font-size="10.00">plot.h</text>
</a>
</g>
</g>
<!-- Node30&#45;&gt;Node31 -->
<g id="edge51_Node000030_Node000031" class="edge">
<title>Node30&#45;&gt;Node31</title>
<g id="a_edge51_Node000030_Node000031"><a xlink:title=" ">
<path fill="none" stroke="#63b8ff" d="M924.25,-357.47C917.18,-343.49 906.02,-315.4 919,-297 929.95,-281.48 978.68,-267.48 1011.96,-259.49"/>
<polygon fill="#63b8ff" stroke="#63b8ff" points="1012.79,-262.89 1021.73,-257.21 1011.2,-256.08 1012.79,-262.89"/>
</a>
</g>
</g>
<!-- Node33 -->
<g id="Node000033" class="node">
<title>Node33</title>
<g id="a_Node000033"><a xlink:href="lineplot_8h.html" target="_top" xlink:title=" ">
<polygon fill="white" stroke="#666666" points="1056,-316 928,-316 928,-297 1056,-297 1056,-316"/>
<text text-anchor="middle" x="992" y="-304" font-family="Helvetica,sans-Serif" font-size="10.00">visualization/lineplot.h</text>
</a>
</g>
</g>
<!-- Node30&#45;&gt;Node33 -->
<g id="edge58_Node000030_Node000033" class="edge">
<title>Node30&#45;&gt;Node33</title>
<g id="a_edge58_Node000030_Node000033"><a xlink:title=" ">
<path fill="none" stroke="#63b8ff" d="M938.3,-357.37C947.97,-348.38 963.34,-334.11 975.16,-323.14"/>
<polygon fill="#63b8ff" stroke="#63b8ff" points="977.72,-325.54 982.67,-316.17 972.96,-320.41 977.72,-325.54"/>
</a>
</g>
</g>
<!-- Node34 -->
<g id="Node000034" class="node">
<title>Node34</title>
<g id="a_Node000034"><a xlink:href="heatmap_8h.html" target="_top" xlink:title=" ">
<polygon fill="white" stroke="#666666" points="1208,-316 1074,-316 1074,-297 1208,-297 1208,-316"/>
<text text-anchor="middle" x="1141" y="-304" font-family="Helvetica,sans-Serif" font-size="10.00">visualization/heatmap.h</text>
</a>
</g>
</g>
<!-- Node30&#45;&gt;Node34 -->
<g id="edge60_Node000030_Node000034" class="edge">
<title>Node30&#45;&gt;Node34</title>
<g id="a_edge60_Node000030_Node000034"><a xlink:title=" ">
<path fill="none" stroke="#63b8ff" d="M959.83,-357.49C996.96,-347.25 1059.45,-330 1100.46,-318.69"/>
<polygon fill="#63b8ff" stroke="#63b8ff" points="1101.43,-322.05 1110.14,-316.02 1099.57,-315.3 1101.43,-322.05"/>
</a>
</g>
</g>
<!-- Node32 -->
<g id="Node000032" class="node">
<title>Node32</title>
<g id="a_Node000032"><a xlink:href="plot__parameters_8h.html" target="_top" xlink:title=" ">
<polygon fill="white" stroke="#666666" points="1113,-200.5 1007,-200.5 1007,-181.5 1113,-181.5 1113,-200.5"/>
<text text-anchor="middle" x="1060" y="-188.5" font-family="Helvetica,sans-Serif" font-size="10.00">plot_parameters.h</text>
</a>
</g>
</g>
<!-- Node31&#45;&gt;Node32 -->
<g id="edge52_Node000031_Node000032" class="edge">
<title>Node31&#45;&gt;Node32</title>
<g id="a_edge52_Node000031_Node000032"><a xlink:title=" ">
<path fill="none" stroke="#63b8ff" d="M1046.36,-241.87C1048.61,-233.66 1052.06,-221.04 1054.93,-210.55"/>
<polygon fill="#63b8ff" stroke="#63b8ff" points="1058.37,-211.24 1057.63,-200.67 1051.62,-209.39 1058.37,-211.24"/>
</a>
</g>
</g>
<!-- Node32&#45;&gt;Node2 -->
<g id="edge56_Node000032_Node000002" class="edge">
<title>Node32&#45;&gt;Node2</title>
<g id="a_edge56_Node000032_Node000002"><a xlink:title=" ">
<path fill="none" stroke="#63b8ff" d="M1024.08,-181.49C980.36,-171.14 906.47,-153.64 858.73,-142.33"/>
<polygon fill="#63b8ff" stroke="#63b8ff" points="859.5,-138.92 848.96,-140.02 857.88,-145.73 859.5,-138.92"/>
</a>
</g>
</g>
<!-- Node32&#45;&gt;Node4 -->
<g id="edge54_Node000032_Node000004" class="edge">
<title>Node32&#45;&gt;Node4</title>
<g id="a_edge54_Node000032_Node000004"><a xlink:title=" ">
<path fill="none" stroke="#63b8ff" d="M1061.96,-181.17C1066.73,-157.04 1076.17,-89.45 1041,-55 1016.88,-31.38 787.2,-16.8 701.25,-12.14"/>
<polygon fill="#63b8ff" stroke="#63b8ff" points="701.21,-8.63 691.04,-11.59 700.84,-15.62 701.21,-8.63"/>
</a>
</g>
</g>
<!-- Node32&#45;&gt;Node12 -->
<g id="edge55_Node000032_Node000012" class="edge">
<title>Node32&#45;&gt;Node12</title>
<g id="a_edge55_Node000032_Node000012"><a xlink:title=" ">
<path fill="none" stroke="#63b8ff" d="M1068.25,-181.34C1095.17,-153.09 1180.73,-63.27 1215.79,-26.46"/>
<polygon fill="#63b8ff" stroke="#63b8ff" points="1218.47,-28.73 1222.84,-19.07 1213.4,-23.9 1218.47,-28.73"/>
</a>
</g>
</g>
<!-- Node32&#45;&gt;Node28 -->
<g id="edge53_Node000032_Node000028" class="edge">
<title>Node32&#45;&gt;Node28</title>
<g id="a_edge53_Node000032_Node000028"><a xlink:title=" ">
<path fill="none" stroke="#63b8ff" d="M1043.18,-181.37C1024.4,-171.73 993.8,-156.03 971.95,-144.81"/>
<polygon fill="#63b8ff" stroke="#63b8ff" points="973.39,-141.62 962.89,-140.17 970.19,-147.85 973.39,-141.62"/>
</a>
</g>
</g>
<!-- Node33&#45;&gt;Node31 -->
<g id="edge59_Node000033_Node000031" class="edge">
<title>Node33&#45;&gt;Node31</title>
<g id="a_edge59_Node000033_Node000031"><a xlink:title=" ">
<path fill="none" stroke="#63b8ff" d="M1000.59,-296.75C1008.16,-289.03 1019.38,-277.6 1028.51,-268.28"/>
<polygon fill="#63b8ff" stroke="#63b8ff" points="1031.07,-270.68 1035.57,-261.09 1026.07,-265.78 1031.07,-270.68"/>
</a>
</g>
</g>
<!-- Node34&#45;&gt;Node31 -->
<g id="edge61_Node000034_Node000031" class="edge">
<title>Node34&#45;&gt;Node31</title>
<g id="a_edge61_Node000034_Node000031"><a xlink:title=" ">
<path fill="none" stroke="#63b8ff" d="M1125.42,-296.98C1110.23,-288.69 1086.9,-275.94 1069.1,-266.22"/>
<polygon fill="#63b8ff" stroke="#63b8ff" points="1070.32,-262.89 1059.87,-261.17 1066.97,-269.04 1070.32,-262.89"/>
</a>
</g>
</g>
<!-- Node38 -->
<g id="Node000038" class="node">
<title>Node38</title>
<g id="a_Node000038"><a xlink:title=" ">
<polygon fill="#e0e0e0" stroke="#999999" points="1355.5,-316 1302.5,-316 1302.5,-297 1355.5,-297 1355.5,-316"/>
<text text-anchor="middle" x="1329" y="-304" font-family="Helvetica,sans-Serif" font-size="10.00">imgui.h</text>
</a>
</g>
</g>
<!-- Node37&#45;&gt;Node38 -->
<g id="edge65_Node000037_Node000038" class="edge">
<title>Node37&#45;&gt;Node38</title>
<g id="a_edge65_Node000037_Node000038"><a xlink:title=" ">
<path fill="none" stroke="#63b8ff" d="M1223.29,-351.99C1246.38,-342.27 1276.87,-329.44 1299.16,-320.06"/>
<polygon fill="#63b8ff" stroke="#63b8ff" points="1300.61,-323.24 1308.47,-316.14 1297.9,-316.79 1300.61,-323.24"/>
</a>
</g>
</g>
<!-- Node39&#45;&gt;Node4 -->
<g id="edge68_Node000039_Node000004" class="edge">
<title>Node39&#45;&gt;Node4</title>
<g id="a_edge68_Node000039_Node000004"><a xlink:title=" ">
<path fill="none" stroke="#63b8ff" d="M1403.56,-483.92C1404.28,-449.42 1402.22,-358.95 1365,-297 1276.41,-149.57 1221.82,-121.03 1063,-55 997.68,-27.84 783.3,-15.61 701.3,-11.84"/>
<polygon fill="#63b8ff" stroke="#63b8ff" points="701.22,-8.33 691.08,-11.38 700.91,-15.33 701.22,-8.33"/>
</a>
</g>
</g>
<!-- Node39&#45;&gt;Node12 -->
<g id="edge67_Node000039_Node000012" class="edge">
<title>Node39&#45;&gt;Node12</title>
<g id="a_edge67_Node000039_Node000012"><a xlink:title=" ">
<path fill="none" stroke="#63b8ff" d="M1406.48,-483.67C1411.97,-459.83 1422,-410.43 1422,-368 1422,-368 1422,-368 1422,-129.5 1422,-56.28 1319.63,-26.49 1264.78,-15.78"/>
<polygon fill="#63b8ff" stroke="#63b8ff" points="1265.27,-12.31 1254.8,-13.94 1264,-19.2 1265.27,-12.31"/>
</a>
</g>
</g>
<!-- Node39&#45;&gt;Node17 -->
<g id="edge71_Node000039_Node000017" class="edge">
<title>Node39&#45;&gt;Node17</title>
<g id="a_edge71_Node000039_Node000017"><a xlink:title=" ">
<path fill="none" stroke="#63b8ff" d="M1350.86,-493.16C1230.75,-482.02 934.01,-454.5 791.65,-441.3"/>
<polygon fill="#63b8ff" stroke="#63b8ff" points="791.95,-437.81 781.67,-440.37 791.31,-444.78 791.95,-437.81"/>
</a>
</g>
</g>
<!-- Node40 -->
<g id="Node000040" class="node">
<title>Node40</title>
<g id="a_Node000040"><a xlink:title=" ">
<polygon fill="#e0e0e0" stroke="#999999" points="1503.5,-442.5 1450.5,-442.5 1450.5,-423.5 1503.5,-423.5 1503.5,-442.5"/>
<text text-anchor="middle" x="1477" y="-430.5" font-family="Helvetica,sans-Serif" font-size="10.00">cstdarg</text>
</a>
</g>
</g>
<!-- Node39&#45;&gt;Node40 -->
<g id="edge69_Node000039_Node000040" class="edge">
<title>Node39&#45;&gt;Node40</title>
<g id="a_edge69_Node000039_Node000040"><a xlink:title=" ">
<path fill="none" stroke="#63b8ff" d="M1419.42,-483.8C1431.19,-473.62 1447.02,-459.93 1459.1,-449.48"/>
<polygon fill="#63b8ff" stroke="#63b8ff" points="1461.5,-452.03 1466.77,-442.84 1456.92,-446.74 1461.5,-452.03"/>
</a>
</g>
</g>
<!-- Node41 -->
<g id="Node000041" class="node">
<title>Node41</title>
<g id="a_Node000041"><a xlink:title=" ">
<polygon fill="#e0e0e0" stroke="#999999" points="1662,-448 1522,-448 1522,-418 1662,-418 1662,-448"/>
<text text-anchor="start" x="1530" y="-436" font-family="Helvetica,sans-Serif" font-size="10.00">imgui&#45;platform&#45;kit</text>
<text text-anchor="middle" x="1592" y="-425" font-family="Helvetica,sans-Serif" font-size="10.00">/user_interface_window.h</text>
</a>
</g>
</g>
<!-- Node39&#45;&gt;Node41 -->
<g id="edge70_Node000039_Node000041" class="edge">
<title>Node39&#45;&gt;Node41</title>
<g id="a_edge70_Node000039_Node000041"><a xlink:title=" ">
<path fill="none" stroke="#63b8ff" d="M1444.48,-483.95C1472.91,-474.33 1510.82,-461.49 1541.08,-451.24"/>
<polygon fill="#63b8ff" stroke="#63b8ff" points="1542.27,-454.53 1550.62,-448.01 1540.03,-447.9 1542.27,-454.53"/>
</a>
</g>
</g>
</g>
</svg>
