<?xml version="1.0" encoding="UTF-8" standalone="no"?>
<!DOCTYPE svg PUBLIC "-//W3C//DTD SVG 1.1//EN"
 "http://www.w3.org/Graphics/SVG/1.1/DTD/svg11.dtd">
<!-- Generated by graphviz version 2.43.0 (0)
 -->
<!-- Title: src/tools/logger.cpp Pages: 1 -->
<svg width="1339pt" height="577pt"
 viewBox="0.00 0.00 1339.22 577.00" xmlns="http://www.w3.org/2000/svg" xmlns:xlink="http://www.w3.org/1999/xlink">
<g id="graph0" class="graph" transform="scale(1 1) rotate(0) translate(4 573)">
<title>src/tools/logger.cpp</title>
<!-- Node1 -->
<g id="Node000001" class="node">
<title>Node1</title>
<g id="a_Node000001"><a xlink:title=" ">
<polygon fill="#999999" stroke="#666666" points="932.5,-569 821.5,-569 821.5,-550 932.5,-550 932.5,-569"/>
<text text-anchor="middle" x="877" y="-557" font-family="Helvetica,sans-Serif" font-size="10.00">src/tools/logger.cpp</text>
</a>
</g>
</g>
<!-- Node2 -->
<g id="Node000002" class="node">
<title>Node2</title>
<g id="a_Node000002"><a xlink:href="logger_8h.html" target="_top" xlink:title=" ">
<polygon fill="white" stroke="#666666" points="869.5,-140 786.5,-140 786.5,-121 869.5,-121 869.5,-140"/>
<text text-anchor="middle" x="828" y="-128" font-family="Helvetica,sans-Serif" font-size="10.00">tools/logger.h</text>
</a>
</g>
</g>
<!-- Node1&#45;&gt;Node2 -->
<g id="edge1_Node000001_Node000002" class="edge">
<title>Node1&#45;&gt;Node2</title>
<g id="a_edge1_Node000001_Node000002"><a xlink:title=" ">
<path fill="none" stroke="#63b8ff" d="M875.07,-549.69C870.23,-524.94 860.39,-454.22 897,-418 984.32,-331.62 1061.92,-438.47 1171,-382 1212.29,-360.62 1254.7,-337.58 1232,-297 1161.46,-170.88 971.91,-140.82 879.74,-133.69"/>
<polygon fill="#63b8ff" stroke="#63b8ff" points="879.76,-130.19 869.53,-132.97 879.26,-137.17 879.76,-130.19"/>
</a>
</g>
</g>
<!-- Node17 -->
<g id="Node000017" class="node">
<title>Node17</title>
<g id="a_Node000017"><a xlink:href="application_8h.html" target="_top" xlink:title=" ">
<polygon fill="white" stroke="#666666" points="848.5,-442.5 711.5,-442.5 711.5,-423.5 848.5,-423.5 848.5,-442.5"/>
<text text-anchor="middle" x="780" y="-430.5" font-family="Helvetica,sans-Serif" font-size="10.00">application/application.h</text>
</a>
</g>
</g>
<!-- Node1&#45;&gt;Node17 -->
<g id="edge19_Node000001_Node000017" class="edge">
<title>Node1&#45;&gt;Node17</title>
<g id="a_edge19_Node000001_Node000017"><a xlink:title=" ">
<path fill="none" stroke="#63b8ff" d="M870.33,-549.94C854.41,-529.51 813.95,-477.57 793,-450.69"/>
<polygon fill="#63b8ff" stroke="#63b8ff" points="795.62,-448.35 786.71,-442.62 790.1,-452.66 795.62,-448.35"/>
</a>
</g>
</g>
<!-- Node37 -->
<g id="Node000037" class="node">
<title>Node37</title>
<g id="a_Node000037"><a xlink:href="log__window_8h.html" target="_top" xlink:title=" ">
<polygon fill="white" stroke="#666666" points="1099,-514 995,-514 995,-484 1099,-484 1099,-514"/>
<text text-anchor="start" x="1003" y="-502" font-family="Helvetica,sans-Serif" font-size="10.00">user_interface/log</text>
<text text-anchor="middle" x="1047" y="-491" font-family="Helvetica,sans-Serif" font-size="10.00">_window.h</text>
</a>
</g>
</g>
<!-- Node1&#45;&gt;Node37 -->
<g id="edge64_Node000001_Node000037" class="edge">
<title>Node1&#45;&gt;Node37</title>
<g id="a_edge64_Node000001_Node000037"><a xlink:title=" ">
<path fill="none" stroke="#63b8ff" d="M901.72,-549.99C926.4,-541.5 965.05,-528.2 996.28,-517.45"/>
<polygon fill="#63b8ff" stroke="#63b8ff" points="997.81,-520.63 1006.13,-514.06 995.53,-514.01 997.81,-520.63"/>
</a>
</g>
</g>
<!-- Node3 -->
<g id="Node000003" class="node">
<title>Node3</title>
<g id="a_Node000003"><a xlink:title=" ">
<polygon fill="#e0e0e0" stroke="#999999" points="1075,-79.5 1015,-79.5 1015,-60.5 1075,-60.5 1075,-79.5"/>
<text text-anchor="middle" x="1045" y="-67.5" font-family="Helvetica,sans-Serif" font-size="10.00">iostream</text>
</a>
</g>
</g>
<!-- Node2&#45;&gt;Node3 -->
<g id="edge2_Node000002_Node000003" class="edge">
<title>Node2&#45;&gt;Node3</title>
<g id="a_edge2_Node000002_Node000003"><a xlink:title=" ">
<path fill="none" stroke="#63b8ff" d="M866.85,-120.96C903.11,-112.72 958.6,-99.39 1006,-85 1008.27,-84.31 1010.59,-83.57 1012.93,-82.8"/>
<polygon fill="#63b8ff" stroke="#63b8ff" points="1014.12,-86.09 1022.44,-79.53 1011.85,-79.47 1014.12,-86.09"/>
</a>
</g>
</g>
<!-- Node4 -->
<g id="Node000004" class="node">
<title>Node4</title>
<g id="a_Node000004"><a xlink:title=" ">
<polygon fill="#e0e0e0" stroke="#999999" points="621,-19 577,-19 577,0 621,0 621,-19"/>
<text text-anchor="middle" x="599" y="-7" font-family="Helvetica,sans-Serif" font-size="10.00">string</text>
</a>
</g>
</g>
<!-- Node2&#45;&gt;Node4 -->
<g id="edge3_Node000002_Node000004" class="edge">
<title>Node2&#45;&gt;Node4</title>
<g id="a_edge3_Node000002_Node000004"><a xlink:title=" ">
<path fill="none" stroke="#63b8ff" d="M804.81,-120.9C783.04,-112.56 749.74,-99.13 722,-85 685.11,-66.21 644.41,-40.51 620.3,-24.73"/>
<polygon fill="#63b8ff" stroke="#63b8ff" points="622.2,-21.78 611.92,-19.2 618.34,-27.63 622.2,-21.78"/>
</a>
</g>
</g>
<!-- Node5 -->
<g id="Node000005" class="node">
<title>Node5</title>
<g id="a_Node000005"><a xlink:title=" ">
<polygon fill="#e0e0e0" stroke="#999999" points="747,-19 697,-19 697,0 747,0 747,-19"/>
<text text-anchor="middle" x="722" y="-7" font-family="Helvetica,sans-Serif" font-size="10.00">chrono</text>
</a>
</g>
</g>
<!-- Node2&#45;&gt;Node5 -->
<g id="edge4_Node000002_Node000005" class="edge">
<title>Node2&#45;&gt;Node5</title>
<g id="a_edge4_Node000002_Node000005"><a xlink:title=" ">
<path fill="none" stroke="#63b8ff" d="M797.22,-120.92C778.36,-114.12 755.19,-102.76 741,-85 728.4,-69.22 724.06,-46.07 722.61,-29.78"/>
<polygon fill="#63b8ff" stroke="#63b8ff" points="726.08,-29.1 722,-19.33 719.09,-29.51 726.08,-29.1"/>
</a>
</g>
</g>
<!-- Node6 -->
<g id="Node000006" class="node">
<title>Node6</title>
<g id="a_Node000006"><a xlink:title=" ">
<polygon fill="#e0e0e0" stroke="#999999" points="806,-79.5 750,-79.5 750,-60.5 806,-60.5 806,-79.5"/>
<text text-anchor="middle" x="778" y="-67.5" font-family="Helvetica,sans-Serif" font-size="10.00">iomanip</text>
</a>
</g>
</g>
<!-- Node2&#45;&gt;Node6 -->
<g id="edge5_Node000002_Node000006" class="edge">
<title>Node2&#45;&gt;Node6</title>
<g id="a_edge5_Node000002_Node000006"><a xlink:title=" ">
<path fill="none" stroke="#63b8ff" d="M820.62,-120.87C813.09,-112.05 801.21,-98.16 791.91,-87.27"/>
<polygon fill="#63b8ff" stroke="#63b8ff" points="794.57,-85 785.41,-79.67 789.24,-89.54 794.57,-85"/>
</a>
</g>
</g>
<!-- Node7 -->
<g id="Node000007" class="node">
<title>Node7</title>
<g id="a_Node000007"><a xlink:title=" ">
<polygon fill="#e0e0e0" stroke="#999999" points="931.5,-85 824.5,-85 824.5,-55 931.5,-55 931.5,-85"/>
<text text-anchor="start" x="832.5" y="-73" font-family="Helvetica,sans-Serif" font-size="10.00">imgui&#45;platform&#45;kit</text>
<text text-anchor="middle" x="878" y="-62" font-family="Helvetica,sans-Serif" font-size="10.00">/log_window.h</text>
</a>
</g>
</g>
<!-- Node2&#45;&gt;Node7 -->
<g id="edge6_Node000002_Node000007" class="edge">
<title>Node2&#45;&gt;Node7</title>
<g id="a_edge6_Node000002_Node000007"><a xlink:title=" ">
<path fill="none" stroke="#63b8ff" d="M835.38,-120.87C841.66,-113.52 850.96,-102.63 859.27,-92.91"/>
<polygon fill="#63b8ff" stroke="#63b8ff" points="862.1,-94.99 865.94,-85.11 856.78,-90.44 862.1,-94.99"/>
</a>
</g>
</g>
<!-- Node8 -->
<g id="Node000008" class="node">
<title>Node8</title>
<g id="a_Node000008"><a xlink:href="exception_8h.html" target="_top" xlink:title=" ">
<polygon fill="white" stroke="#666666" points="151,-79.5 21,-79.5 21,-60.5 151,-60.5 151,-79.5"/>
<text text-anchor="middle" x="86" y="-67.5" font-family="Helvetica,sans-Serif" font-size="10.00">exceptions/exception.h</text>
</a>
</g>
</g>
<!-- Node2&#45;&gt;Node8 -->
<g id="edge7_Node000002_Node000008" class="edge">
<title>Node2&#45;&gt;Node8</title>
<g id="a_edge7_Node000002_Node000008"><a xlink:title=" ">
<path fill="none" stroke="#63b8ff" d="M786.25,-126.21C665.82,-116.71 316.55,-89.18 161.58,-76.96"/>
<polygon fill="#63b8ff" stroke="#63b8ff" points="161.46,-73.44 151.21,-76.14 160.91,-80.42 161.46,-73.44"/>
</a>
</g>
</g>
<!-- Node11 -->
<g id="Node000011" class="node">
<title>Node11</title>
<g id="a_Node000011"><a xlink:href="utils_8h.html" target="_top" xlink:title=" ">
<polygon fill="white" stroke="#666666" points="996.5,-79.5 949.5,-79.5 949.5,-60.5 996.5,-60.5 996.5,-79.5"/>
<text text-anchor="middle" x="973" y="-67.5" font-family="Helvetica,sans-Serif" font-size="10.00">utils.h</text>
</a>
</g>
</g>
<!-- Node2&#45;&gt;Node11 -->
<g id="edge11_Node000002_Node000011" class="edge">
<title>Node2&#45;&gt;Node11</title>
<g id="a_edge11_Node000002_Node000011"><a xlink:title=" ">
<path fill="none" stroke="#63b8ff" d="M850.61,-120.88C873.49,-112.09 909.85,-97.94 941,-85 942.17,-84.52 943.35,-84.02 944.55,-83.51"/>
<polygon fill="#63b8ff" stroke="#63b8ff" points="945.95,-86.72 953.76,-79.56 943.19,-80.29 945.95,-86.72"/>
</a>
</g>
</g>
<!-- Node8&#45;&gt;Node4 -->
<g id="edge10_Node000008_Node000004" class="edge">
<title>Node8&#45;&gt;Node4</title>
<g id="a_edge10_Node000008_Node000004"><a xlink:title=" ">
<path fill="none" stroke="#63b8ff" d="M151.23,-61.56C262.27,-48.9 484.03,-23.61 566.83,-14.17"/>
<polygon fill="#63b8ff" stroke="#63b8ff" points="567.36,-17.63 576.9,-13.02 566.57,-10.68 567.36,-17.63"/>
</a>
</g>
</g>
<!-- Node9 -->
<g id="Node000009" class="node">
<title>Node9</title>
<g id="a_Node000009"><a xlink:title=" ">
<polygon fill="#e0e0e0" stroke="#999999" points="73,-19 23,-19 23,0 73,0 73,-19"/>
<text text-anchor="middle" x="48" y="-7" font-family="Helvetica,sans-Serif" font-size="10.00">cstdint</text>
</a>
</g>
</g>
<!-- Node8&#45;&gt;Node9 -->
<g id="edge8_Node000008_Node000009" class="edge">
<title>Node8&#45;&gt;Node9</title>
<g id="a_edge8_Node000008_Node000009"><a xlink:title=" ">
<path fill="none" stroke="#63b8ff" d="M80.39,-60.37C74.84,-51.81 66.17,-38.47 59.2,-27.74"/>
<polygon fill="#63b8ff" stroke="#63b8ff" points="62.01,-25.65 53.63,-19.17 56.14,-29.46 62.01,-25.65"/>
</a>
</g>
</g>
<!-- Node10 -->
<g id="Node000010" class="node">
<title>Node10</title>
<g id="a_Node000010"><a xlink:title=" ">
<polygon fill="#e0e0e0" stroke="#999999" points="156.5,-19 91.5,-19 91.5,0 156.5,0 156.5,-19"/>
<text text-anchor="middle" x="124" y="-7" font-family="Helvetica,sans-Serif" font-size="10.00">exception</text>
</a>
</g>
</g>
<!-- Node8&#45;&gt;Node10 -->
<g id="edge9_Node000008_Node000010" class="edge">
<title>Node8&#45;&gt;Node10</title>
<g id="a_edge9_Node000008_Node000010"><a xlink:title=" ">
<path fill="none" stroke="#63b8ff" d="M91.61,-60.37C97.16,-51.81 105.83,-38.47 112.8,-27.74"/>
<polygon fill="#63b8ff" stroke="#63b8ff" points="115.86,-29.46 118.37,-19.17 109.99,-25.65 115.86,-29.46"/>
</a>
</g>
</g>
<!-- Node11&#45;&gt;Node4 -->
<g id="edge12_Node000011_Node000004" class="edge">
<title>Node11&#45;&gt;Node4</title>
<g id="a_edge12_Node000011_Node000004"><a xlink:title=" ">
<path fill="none" stroke="#63b8ff" d="M955.72,-60.38C951.04,-58.34 945.91,-56.36 941,-55 882.99,-38.89 705.06,-20.63 631.43,-13.54"/>
<polygon fill="#63b8ff" stroke="#63b8ff" points="631.63,-10.04 621.35,-12.57 630.97,-17.01 631.63,-10.04"/>
</a>
</g>
</g>
<!-- Node11&#45;&gt;Node5 -->
<g id="edge17_Node000011_Node000005" class="edge">
<title>Node11&#45;&gt;Node5</title>
<g id="a_edge17_Node000011_Node000005"><a xlink:title=" ">
<path fill="none" stroke="#63b8ff" d="M955.32,-60.47C950.73,-58.48 945.74,-56.5 941,-55 877.61,-34.94 800.95,-21.8 757.19,-15.3"/>
<polygon fill="#63b8ff" stroke="#63b8ff" points="757.47,-11.8 747.07,-13.83 756.46,-18.73 757.47,-11.8"/>
</a>
</g>
</g>
<!-- Node12 -->
<g id="Node000012" class="node">
<title>Node12</title>
<g id="a_Node000012"><a xlink:title=" ">
<polygon fill="#e0e0e0" stroke="#999999" points="1221.5,-19 1174.5,-19 1174.5,0 1221.5,0 1221.5,-19"/>
<text text-anchor="middle" x="1198" y="-7" font-family="Helvetica,sans-Serif" font-size="10.00">vector</text>
</a>
</g>
</g>
<!-- Node11&#45;&gt;Node12 -->
<g id="edge13_Node000011_Node000012" class="edge">
<title>Node11&#45;&gt;Node12</title>
<g id="a_edge13_Node000011_Node000012"><a xlink:title=" ">
<path fill="none" stroke="#63b8ff" d="M991.63,-60.43C996.27,-58.48 1001.27,-56.54 1006,-55 1060.28,-37.34 1125.35,-23.8 1164.09,-16.51"/>
<polygon fill="#63b8ff" stroke="#63b8ff" points="1165.1,-19.88 1174.29,-14.62 1163.82,-13 1165.1,-19.88"/>
</a>
</g>
</g>
<!-- Node13 -->
<g id="Node000013" class="node">
<title>Node13</title>
<g id="a_Node000013"><a xlink:title=" ">
<polygon fill="#e0e0e0" stroke="#999999" points="927,-19 873,-19 873,0 927,0 927,-19"/>
<text text-anchor="middle" x="900" y="-7" font-family="Helvetica,sans-Serif" font-size="10.00">random</text>
</a>
</g>
</g>
<!-- Node11&#45;&gt;Node13 -->
<g id="edge14_Node000011_Node000013" class="edge">
<title>Node11&#45;&gt;Node13</title>
<g id="a_edge14_Node000011_Node000013"><a xlink:title=" ">
<path fill="none" stroke="#63b8ff" d="M962.23,-60.37C950.8,-51.21 932.52,-36.56 918.72,-25.51"/>
<polygon fill="#63b8ff" stroke="#63b8ff" points="920.81,-22.69 910.82,-19.17 916.43,-28.15 920.81,-22.69"/>
</a>
</g>
</g>
<!-- Node14 -->
<g id="Node000014" class="node">
<title>Node14</title>
<g id="a_Node000014"><a xlink:title=" ">
<polygon fill="#e0e0e0" stroke="#999999" points="1001,-19 945,-19 945,0 1001,0 1001,-19"/>
<text text-anchor="middle" x="973" y="-7" font-family="Helvetica,sans-Serif" font-size="10.00">sstream</text>
</a>
</g>
</g>
<!-- Node11&#45;&gt;Node14 -->
<g id="edge15_Node000011_Node000014" class="edge">
<title>Node11&#45;&gt;Node14</title>
<g id="a_edge15_Node000011_Node000014"><a xlink:title=" ">
<path fill="none" stroke="#63b8ff" d="M973,-60.37C973,-52.25 973,-39.81 973,-29.39"/>
<polygon fill="#63b8ff" stroke="#63b8ff" points="976.5,-29.17 973,-19.17 969.5,-29.17 976.5,-29.17"/>
</a>
</g>
</g>
<!-- Node15 -->
<g id="Node000015" class="node">
<title>Node15</title>
<g id="a_Node000015"><a xlink:title=" ">
<polygon fill="#e0e0e0" stroke="#999999" points="1074.5,-19 1019.5,-19 1019.5,0 1074.5,0 1074.5,-19"/>
<text text-anchor="middle" x="1047" y="-7" font-family="Helvetica,sans-Serif" font-size="10.00">fstream</text>
</a>
</g>
</g>
<!-- Node11&#45;&gt;Node15 -->
<g id="edge16_Node000011_Node000015" class="edge">
<title>Node11&#45;&gt;Node15</title>
<g id="a_edge16_Node000011_Node000015"><a xlink:title=" ">
<path fill="none" stroke="#63b8ff" d="M983.92,-60.37C995.51,-51.21 1014.03,-36.56 1028.02,-25.51"/>
<polygon fill="#63b8ff" stroke="#63b8ff" points="1030.36,-28.11 1036.04,-19.17 1026.02,-22.62 1030.36,-28.11"/>
</a>
</g>
</g>
<!-- Node16 -->
<g id="Node000016" class="node">
<title>Node16</title>
<g id="a_Node000016"><a xlink:title=" ">
<polygon fill="#e0e0e0" stroke="#999999" points="420,-19 352,-19 352,0 420,0 420,-19"/>
<text text-anchor="middle" x="386" y="-7" font-family="Helvetica,sans-Serif" font-size="10.00">filesystem</text>
</a>
</g>
</g>
<!-- Node11&#45;&gt;Node16 -->
<g id="edge18_Node000011_Node000016" class="edge">
<title>Node11&#45;&gt;Node16</title>
<g id="a_edge18_Node000011_Node000016"><a xlink:title=" ">
<path fill="none" stroke="#63b8ff" d="M956.1,-60.36C951.33,-58.27 946.06,-56.27 941,-55 892.04,-42.7 553.38,-20.84 430.46,-13.21"/>
<polygon fill="#63b8ff" stroke="#63b8ff" points="430.47,-9.71 420.27,-12.58 430.03,-16.69 430.47,-9.71"/>
</a>
</g>
</g>
<!-- Node17&#45;&gt;Node8 -->
<g id="edge22_Node000017_Node000008" class="edge">
<title>Node17&#45;&gt;Node8</title>
<g id="a_edge22_Node000017_Node000008"><a xlink:title=" ">
<path fill="none" stroke="#63b8ff" d="M711.46,-428.24C521.13,-416.88 0,-379.24 0,-307.5 0,-307.5 0,-307.5 0,-190 0,-145.34 40.28,-106.08 65.7,-85.74"/>
<polygon fill="#63b8ff" stroke="#63b8ff" points="67.9,-88.46 73.68,-79.58 63.62,-82.92 67.9,-88.46"/>
</a>
</g>
</g>
<!-- Node18 -->
<g id="Node000018" class="node">
<title>Node18</title>
<g id="a_Node000018"><a xlink:title=" ">
<polygon fill="#e0e0e0" stroke="#999999" points="649.5,-376.5 580.5,-376.5 580.5,-357.5 649.5,-357.5 649.5,-376.5"/>
<text text-anchor="middle" x="615" y="-364.5" font-family="Helvetica,sans-Serif" font-size="10.00">type_traits</text>
</a>
</g>
</g>
<!-- Node17&#45;&gt;Node18 -->
<g id="edge20_Node000017_Node000018" class="edge">
<title>Node17&#45;&gt;Node18</title>
<g id="a_edge20_Node000017_Node000018"><a xlink:title=" ">
<path fill="none" stroke="#63b8ff" d="M757.75,-423.37C729.13,-412.27 679.24,-392.92 646.67,-380.28"/>
<polygon fill="#63b8ff" stroke="#63b8ff" points="647.75,-376.95 637.16,-376.6 645.22,-383.48 647.75,-376.95"/>
</a>
</g>
</g>
<!-- Node19 -->
<g id="Node000019" class="node">
<title>Node19</title>
<g id="a_Node000019"><a xlink:title=" ">
<polygon fill="#e0e0e0" stroke="#999999" points="774.5,-382 667.5,-382 667.5,-352 774.5,-352 774.5,-382"/>
<text text-anchor="start" x="675.5" y="-370" font-family="Helvetica,sans-Serif" font-size="10.00">imgui&#45;platform&#45;kit</text>
<text text-anchor="middle" x="721" y="-359" font-family="Helvetica,sans-Serif" font-size="10.00">/user_interface.h</text>
</a>
</g>
</g>
<!-- Node17&#45;&gt;Node19 -->
<g id="edge21_Node000017_Node000019" class="edge">
<title>Node17&#45;&gt;Node19</title>
<g id="a_edge21_Node000017_Node000019"><a xlink:title=" ">
<path fill="none" stroke="#63b8ff" d="M772.04,-423.37C764.17,-414.83 751.8,-401.41 741.21,-389.92"/>
<polygon fill="#63b8ff" stroke="#63b8ff" points="743.59,-387.34 734.24,-382.36 738.44,-392.09 743.59,-387.34"/>
</a>
</g>
</g>
<!-- Node20 -->
<g id="Node000020" class="node">
<title>Node20</title>
<g id="a_Node000020"><a xlink:href="simulation_8h.html" target="_top" xlink:title=" ">
<polygon fill="white" stroke="#666666" points="701,-316 569,-316 569,-297 701,-297 701,-316"/>
<text text-anchor="middle" x="635" y="-304" font-family="Helvetica,sans-Serif" font-size="10.00">simulation/simulation.h</text>
</a>
</g>
</g>
<!-- Node17&#45;&gt;Node20 -->
<g id="edge23_Node000017_Node000020" class="edge">
<title>Node17&#45;&gt;Node20</title>
<g id="a_edge23_Node000017_Node000020"><a xlink:title=" ">
<path fill="none" stroke="#63b8ff" d="M783.71,-423.27C789.83,-407.35 799.87,-373.3 784,-352 773.09,-337.36 732.1,-325.76 695.87,-318.08"/>
<polygon fill="#63b8ff" stroke="#63b8ff" points="696.31,-314.6 685.81,-316.02 694.9,-321.46 696.31,-314.6"/>
</a>
</g>
</g>
<!-- Node30 -->
<g id="Node000030" class="node">
<title>Node30</title>
<g id="a_Node000030"><a xlink:href="visualization_8h.html" target="_top" xlink:title=" ">
<polygon fill="white" stroke="#666666" points="1008.5,-376.5 855.5,-376.5 855.5,-357.5 1008.5,-357.5 1008.5,-376.5"/>
<text text-anchor="middle" x="932" y="-364.5" font-family="Helvetica,sans-Serif" font-size="10.00">visualization/visualization.h</text>
</a>
</g>
</g>
<!-- Node17&#45;&gt;Node30 -->
<g id="edge46_Node000017_Node000030" class="edge">
<title>Node17&#45;&gt;Node30</title>
<g id="a_edge46_Node000017_Node000030"><a xlink:title=" ">
<path fill="none" stroke="#63b8ff" d="M800.5,-423.37C826.56,-412.39 871.78,-393.36 901.79,-380.72"/>
<polygon fill="#63b8ff" stroke="#63b8ff" points="903.48,-383.81 911.34,-376.7 900.77,-377.35 903.48,-383.81"/>
</a>
</g>
</g>
<!-- Node35 -->
<g id="Node000035" class="node">
<title>Node35</title>
<g id="a_Node000035"><a xlink:href="imgui__freetype_8h.html" target="_top" xlink:title=" ">
<polygon fill="white" stroke="#666666" points="1162,-382 1048,-382 1048,-352 1162,-352 1162,-382"/>
<text text-anchor="start" x="1056" y="-370" font-family="Helvetica,sans-Serif" font-size="10.00">user_interface/fonts</text>
<text text-anchor="middle" x="1105" y="-359" font-family="Helvetica,sans-Serif" font-size="10.00">/imgui_freetype.h</text>
</a>
</g>
</g>
<!-- Node17&#45;&gt;Node35 -->
<g id="edge62_Node000017_Node000035" class="edge">
<title>Node17&#45;&gt;Node35</title>
<g id="a_edge62_Node000017_Node000035"><a xlink:title=" ">
<path fill="none" stroke="#63b8ff" d="M823.49,-423.44C878.41,-412.62 973.48,-393.9 1037.78,-381.24"/>
<polygon fill="#63b8ff" stroke="#63b8ff" points="1038.68,-384.63 1047.82,-379.26 1037.33,-377.76 1038.68,-384.63"/>
</a>
</g>
</g>
<!-- Node20&#45;&gt;Node4 -->
<g id="edge26_Node000020_Node000004" class="edge">
<title>Node20&#45;&gt;Node4</title>
<g id="a_edge26_Node000020_Node000004"><a xlink:title=" ">
<path fill="none" stroke="#63b8ff" d="M677.88,-296.96C754.15,-279.96 900.51,-238.11 846,-176 764.69,-83.35 652.31,-232.65 571,-140 543.04,-108.14 569.84,-55.05 587.05,-27.8"/>
<polygon fill="#63b8ff" stroke="#63b8ff" points="590.06,-29.59 592.64,-19.31 584.22,-25.74 590.06,-29.59"/>
</a>
</g>
</g>
<!-- Node20&#45;&gt;Node5 -->
<g id="edge28_Node000020_Node000005" class="edge">
<title>Node20&#45;&gt;Node5</title>
<g id="a_edge28_Node000020_Node000005"><a xlink:title=" ">
<path fill="none" stroke="#63b8ff" d="M568.85,-298.18C468.93,-285.61 287,-256.3 248,-206 239.83,-195.46 243.88,-188.68 248,-176 257.35,-147.26 262.98,-137.96 288,-121 354.4,-76 595.69,-31.76 686.83,-16.28"/>
<polygon fill="#63b8ff" stroke="#63b8ff" points="687.64,-19.69 696.92,-14.58 686.48,-12.79 687.64,-19.69"/>
</a>
</g>
</g>
<!-- Node20&#45;&gt;Node8 -->
<g id="edge44_Node000020_Node000008" class="edge">
<title>Node20&#45;&gt;Node8</title>
<g id="a_edge44_Node000020_Node000008"><a xlink:title=" ">
<path fill="none" stroke="#63b8ff" d="M568.77,-304.71C432.85,-302.42 132.37,-293.67 100,-261 54.24,-214.8 70.51,-127.51 80.52,-89.48"/>
<polygon fill="#63b8ff" stroke="#63b8ff" points="83.92,-90.32 83.24,-79.75 77.18,-88.44 83.92,-90.32"/>
</a>
</g>
</g>
<!-- Node20&#45;&gt;Node11 -->
<g id="edge45_Node000020_Node000011" class="edge">
<title>Node20&#45;&gt;Node11</title>
<g id="a_edge45_Node000020_Node000011"><a xlink:title=" ">
<path fill="none" stroke="#63b8ff" d="M701.18,-297.49C750.8,-290.52 820.03,-278.71 879,-261 908.85,-252.04 990.82,-232 1008,-206 1032.6,-168.77 1003.65,-115.19 985.5,-88.09"/>
<polygon fill="#63b8ff" stroke="#63b8ff" points="988.22,-85.88 979.63,-79.68 982.48,-89.88 988.22,-85.88"/>
</a>
</g>
</g>
<!-- Node20&#45;&gt;Node12 -->
<g id="edge24_Node000020_Node000012" class="edge">
<title>Node20&#45;&gt;Node12</title>
<g id="a_edge24_Node000020_Node000012"><a xlink:title=" ">
<path fill="none" stroke="#63b8ff" d="M701.1,-297.48C773.11,-288.36 883.46,-273.15 924,-261 980.2,-244.15 994.68,-237.78 1044,-206 1109.8,-163.6 1131.31,-151.88 1172,-85 1182.66,-67.48 1189.74,-44.98 1193.79,-29.31"/>
<polygon fill="#63b8ff" stroke="#63b8ff" points="1197.26,-29.82 1196.2,-19.28 1190.46,-28.18 1197.26,-29.82"/>
</a>
</g>
</g>
<!-- Node20&#45;&gt;Node16 -->
<g id="edge27_Node000020_Node000016" class="edge">
<title>Node20&#45;&gt;Node16</title>
<g id="a_edge27_Node000020_Node000016"><a xlink:title=" ">
<path fill="none" stroke="#63b8ff" d="M568.93,-300.93C486.55,-294.49 350.97,-281.22 305,-261 270.05,-245.63 257,-239.68 239,-206 221.13,-172.57 216.74,-155.7 232,-121 254.2,-70.54 313.29,-38.8 351.49,-22.89"/>
<polygon fill="#63b8ff" stroke="#63b8ff" points="353.21,-25.97 361.19,-19 350.6,-19.47 353.21,-25.97"/>
</a>
</g>
</g>
<!-- Node21 -->
<g id="Node000021" class="node">
<title>Node21</title>
<g id="a_Node000021"><a xlink:title=" ">
<polygon fill="#e0e0e0" stroke="#999999" points="837,-200.5 779,-200.5 779,-181.5 837,-181.5 837,-200.5"/>
<text text-anchor="middle" x="808" y="-188.5" font-family="Helvetica,sans-Serif" font-size="10.00">memory</text>
</a>
</g>
</g>
<!-- Node20&#45;&gt;Node21 -->
<g id="edge25_Node000020_Node000021" class="edge">
<title>Node20&#45;&gt;Node21</title>
<g id="a_edge25_Node000020_Node000021"><a xlink:title=" ">
<path fill="none" stroke="#63b8ff" d="M648,-296.97C677.56,-277.58 750.04,-230.03 786.42,-206.16"/>
<polygon fill="#63b8ff" stroke="#63b8ff" points="788.4,-209.04 794.85,-200.63 784.56,-203.19 788.4,-209.04"/>
</a>
</g>
</g>
<!-- Node22 -->
<g id="Node000022" class="node">
<title>Node22</title>
<g id="a_Node000022"><a xlink:href="element_8h.html" target="_top" xlink:title=" ">
<polygon fill="white" stroke="#666666" points="674.5,-261 559.5,-261 559.5,-242 674.5,-242 674.5,-261"/>
<text text-anchor="middle" x="617" y="-249" font-family="Helvetica,sans-Serif" font-size="10.00">elements/element.h</text>
</a>
</g>
</g>
<!-- Node20&#45;&gt;Node22 -->
<g id="edge29_Node000020_Node000022" class="edge">
<title>Node20&#45;&gt;Node22</title>
<g id="a_edge29_Node000020_Node000022"><a xlink:title=" ">
<path fill="none" stroke="#63b8ff" d="M632.03,-296.75C629.64,-289.72 626.21,-279.62 623.23,-270.84"/>
<polygon fill="#63b8ff" stroke="#63b8ff" points="626.45,-269.43 619.92,-261.09 619.82,-271.68 626.45,-269.43"/>
</a>
</g>
</g>
<!-- Node22&#45;&gt;Node2 -->
<g id="edge38_Node000022_Node000002" class="edge">
<title>Node22&#45;&gt;Node2</title>
<g id="a_edge38_Node000022_Node000002"><a xlink:title=" ">
<path fill="none" stroke="#63b8ff" d="M645.96,-241.96C669.89,-234.3 704.3,-221.81 732,-206 750.69,-195.33 753.02,-189.22 770,-176 782.64,-166.16 796.92,-155.2 808.15,-146.62"/>
<polygon fill="#63b8ff" stroke="#63b8ff" points="810.58,-149.17 816.41,-140.32 806.34,-143.6 810.58,-149.17"/>
</a>
</g>
</g>
<!-- Node22&#45;&gt;Node4 -->
<g id="edge31_Node000022_Node000004" class="edge">
<title>Node22&#45;&gt;Node4</title>
<g id="a_edge31_Node000022_Node000004"><a xlink:title=" ">
<path fill="none" stroke="#63b8ff" d="M559.34,-247.68C460.73,-242.27 268.28,-228.87 248,-206 148.57,-93.86 463.33,-32.24 567.03,-15.33"/>
<polygon fill="#63b8ff" stroke="#63b8ff" points="567.62,-18.78 576.94,-13.75 566.52,-11.87 567.62,-18.78"/>
</a>
</g>
</g>
<!-- Node22&#45;&gt;Node8 -->
<g id="edge37_Node000022_Node000008" class="edge">
<title>Node22&#45;&gt;Node8</title>
<g id="a_edge37_Node000022_Node000008"><a xlink:title=" ">
<path fill="none" stroke="#63b8ff" d="M559.35,-248.98C462.82,-245.64 273.26,-235.43 214,-206 159.19,-178.78 115.39,-117.89 96.33,-88.09"/>
<polygon fill="#63b8ff" stroke="#63b8ff" points="99.29,-86.22 91.03,-79.59 93.35,-89.92 99.29,-86.22"/>
</a>
</g>
</g>
<!-- Node22&#45;&gt;Node12 -->
<g id="edge30_Node000022_Node000012" class="edge">
<title>Node22&#45;&gt;Node12</title>
<g id="a_edge30_Node000022_Node000012"><a xlink:title=" ">
<path fill="none" stroke="#63b8ff" d="M674.77,-248.63C768.9,-244.8 950.66,-233.95 1008,-206 1093.5,-164.33 1161.85,-67.6 1187.29,-27.94"/>
<polygon fill="#63b8ff" stroke="#63b8ff" points="1190.45,-29.48 1192.81,-19.16 1184.53,-25.76 1190.45,-29.48"/>
</a>
</g>
</g>
<!-- Node22&#45;&gt;Node21 -->
<g id="edge33_Node000022_Node000021" class="edge">
<title>Node22&#45;&gt;Node21</title>
<g id="a_edge33_Node000022_Node000021"><a xlink:title=" ">
<path fill="none" stroke="#63b8ff" d="M645.99,-242C675.87,-233.18 723.78,-218.91 765,-206 767.43,-205.24 769.93,-204.45 772.44,-203.65"/>
<polygon fill="#63b8ff" stroke="#63b8ff" points="773.66,-206.93 782.11,-200.53 771.52,-200.27 773.66,-206.93"/>
</a>
</g>
</g>
<!-- Node23 -->
<g id="Node000023" class="node">
<title>Node23</title>
<g id="a_Node000023"><a xlink:title=" ">
<polygon fill="#e0e0e0" stroke="#999999" points="498.5,-200.5 405.5,-200.5 405.5,-181.5 498.5,-181.5 498.5,-200.5"/>
<text text-anchor="middle" x="452" y="-188.5" font-family="Helvetica,sans-Serif" font-size="10.00">unordered_map</text>
</a>
</g>
</g>
<!-- Node22&#45;&gt;Node23 -->
<g id="edge32_Node000022_Node000023" class="edge">
<title>Node22&#45;&gt;Node23</title>
<g id="a_edge32_Node000022_Node000023"><a xlink:title=" ">
<path fill="none" stroke="#63b8ff" d="M593.01,-241.99C564.78,-231.99 517.72,-215.3 485.81,-203.99"/>
<polygon fill="#63b8ff" stroke="#63b8ff" points="486.62,-200.56 476.02,-200.52 484.28,-207.16 486.62,-200.56"/>
</a>
</g>
</g>
<!-- Node24 -->
<g id="Node000024" class="node">
<title>Node24</title>
<g id="a_Node000024"><a xlink:title=" ">
<polygon fill="#e0e0e0" stroke="#999999" points="567,-200.5 517,-200.5 517,-181.5 567,-181.5 567,-200.5"/>
<text text-anchor="middle" x="542" y="-188.5" font-family="Helvetica,sans-Serif" font-size="10.00">ranges</text>
</a>
</g>
</g>
<!-- Node22&#45;&gt;Node24 -->
<g id="edge34_Node000022_Node000024" class="edge">
<title>Node22&#45;&gt;Node24</title>
<g id="a_edge34_Node000022_Node000024"><a xlink:title=" ">
<path fill="none" stroke="#63b8ff" d="M605.93,-241.87C594.19,-232.71 575.41,-218.06 561.24,-207.01"/>
<polygon fill="#63b8ff" stroke="#63b8ff" points="563.15,-204.06 553.11,-200.67 558.84,-209.58 563.15,-204.06"/>
</a>
</g>
</g>
<!-- Node25 -->
<g id="Node000025" class="node">
<title>Node25</title>
<g id="a_Node000025"><a xlink:title=" ">
<polygon fill="#e0e0e0" stroke="#999999" points="649,-200.5 585,-200.5 585,-181.5 649,-181.5 649,-200.5"/>
<text text-anchor="middle" x="617" y="-188.5" font-family="Helvetica,sans-Serif" font-size="10.00">algorithm</text>
</a>
</g>
</g>
<!-- Node22&#45;&gt;Node25 -->
<g id="edge35_Node000022_Node000025" class="edge">
<title>Node22&#45;&gt;Node25</title>
<g id="a_edge35_Node000022_Node000025"><a xlink:title=" ">
<path fill="none" stroke="#63b8ff" d="M617,-241.87C617,-233.75 617,-221.31 617,-210.89"/>
<polygon fill="#63b8ff" stroke="#63b8ff" points="620.5,-210.67 617,-200.67 613.5,-210.67 620.5,-210.67"/>
</a>
</g>
</g>
<!-- Node26 -->
<g id="Node000026" class="node">
<title>Node26</title>
<g id="a_Node000026"><a xlink:title=" ">
<polygon fill="#e0e0e0" stroke="#999999" points="723,-200.5 667,-200.5 667,-181.5 723,-181.5 723,-200.5"/>
<text text-anchor="middle" x="695" y="-188.5" font-family="Helvetica,sans-Serif" font-size="10.00">numeric</text>
</a>
</g>
</g>
<!-- Node22&#45;&gt;Node26 -->
<g id="edge36_Node000022_Node000026" class="edge">
<title>Node22&#45;&gt;Node26</title>
<g id="a_edge36_Node000022_Node000026"><a xlink:title=" ">
<path fill="none" stroke="#63b8ff" d="M628.51,-241.87C640.84,-232.62 660.62,-217.78 675.41,-206.69"/>
<polygon fill="#63b8ff" stroke="#63b8ff" points="677.54,-209.47 683.44,-200.67 673.34,-203.87 677.54,-209.47"/>
</a>
</g>
</g>
<!-- Node27 -->
<g id="Node000027" class="node">
<title>Node27</title>
<g id="a_Node000027"><a xlink:href="element__parameters_8h.html" target="_top" xlink:title=" ">
<polygon fill="white" stroke="#666666" points="387.5,-206 256.5,-206 256.5,-176 387.5,-176 387.5,-206"/>
<text text-anchor="start" x="264.5" y="-194" font-family="Helvetica,sans-Serif" font-size="10.00">element_parameters</text>
<text text-anchor="middle" x="322" y="-183" font-family="Helvetica,sans-Serif" font-size="10.00">/element_parameters.h</text>
</a>
</g>
</g>
<!-- Node22&#45;&gt;Node27 -->
<g id="edge39_Node000022_Node000027" class="edge">
<title>Node22&#45;&gt;Node27</title>
<g id="a_edge39_Node000022_Node000027"><a xlink:title=" ">
<path fill="none" stroke="#63b8ff" d="M574.1,-241.99C527.9,-232.83 453.48,-218.07 397.45,-206.96"/>
<polygon fill="#63b8ff" stroke="#63b8ff" points="398.06,-203.51 387.57,-205 396.69,-210.38 398.06,-203.51"/>
</a>
</g>
</g>
<!-- Node27&#45;&gt;Node2 -->
<g id="edge43_Node000027_Node000002" class="edge">
<title>Node27&#45;&gt;Node2</title>
<g id="a_edge43_Node000027_Node000002"><a xlink:title=" ">
<path fill="none" stroke="#63b8ff" d="M387.8,-177.4C390.91,-176.91 393.98,-176.44 397,-176 533.09,-156.31 694.58,-142.05 775.81,-135.5"/>
<polygon fill="#63b8ff" stroke="#63b8ff" points="776.56,-138.96 786.25,-134.67 776.01,-131.98 776.56,-138.96"/>
</a>
</g>
</g>
<!-- Node27&#45;&gt;Node4 -->
<g id="edge41_Node000027_Node000004" class="edge">
<title>Node27&#45;&gt;Node4</title>
<g id="a_edge41_Node000027_Node000004"><a xlink:title=" ">
<path fill="none" stroke="#63b8ff" d="M343.74,-175.91C395.47,-142.39 525.46,-58.16 577.23,-24.61"/>
<polygon fill="#63b8ff" stroke="#63b8ff" points="579.19,-27.51 585.67,-19.13 575.38,-21.64 579.19,-27.51"/>
</a>
</g>
</g>
<!-- Node28 -->
<g id="Node000028" class="node">
<title>Node28</title>
<g id="a_Node000028"><a xlink:title=" ">
<polygon fill="#e0e0e0" stroke="#999999" points="618,-140 580,-140 580,-121 618,-121 618,-140"/>
<text text-anchor="middle" x="599" y="-128" font-family="Helvetica,sans-Serif" font-size="10.00">map</text>
</a>
</g>
</g>
<!-- Node27&#45;&gt;Node28 -->
<g id="edge40_Node000027_Node000028" class="edge">
<title>Node27&#45;&gt;Node28</title>
<g id="a_edge40_Node000027_Node000028"><a xlink:title=" ">
<path fill="none" stroke="#63b8ff" d="M387.65,-176.14C445.46,-163.93 526.95,-146.72 569.9,-137.65"/>
<polygon fill="#63b8ff" stroke="#63b8ff" points="570.89,-141.01 579.95,-135.52 569.44,-134.17 570.89,-141.01"/>
</a>
</g>
</g>
<!-- Node29 -->
<g id="Node000029" class="node">
<title>Node29</title>
<g id="a_Node000029"><a xlink:title=" ">
<polygon fill="#e0e0e0" stroke="#999999" points="347,-140 297,-140 297,-121 347,-121 347,-140"/>
<text text-anchor="middle" x="322" y="-128" font-family="Helvetica,sans-Serif" font-size="10.00">format</text>
</a>
</g>
</g>
<!-- Node27&#45;&gt;Node29 -->
<g id="edge42_Node000027_Node000029" class="edge">
<title>Node27&#45;&gt;Node29</title>
<g id="a_edge42_Node000027_Node000029"><a xlink:title=" ">
<path fill="none" stroke="#63b8ff" d="M322,-175.84C322,-168.21 322,-158.7 322,-150.45"/>
<polygon fill="#63b8ff" stroke="#63b8ff" points="325.5,-150.27 322,-140.27 318.5,-150.27 325.5,-150.27"/>
</a>
</g>
</g>
<!-- Node30&#45;&gt;Node2 -->
<g id="edge57_Node000030_Node000002" class="edge">
<title>Node30&#45;&gt;Node2</title>
<g id="a_edge57_Node000030_Node000002"><a xlink:title=" ">
<path fill="none" stroke="#63b8ff" d="M958.97,-357.37C979.57,-349.54 1007.33,-336.1 1025,-316 1047.57,-290.32 1054.83,-275.03 1046,-242 1037.26,-209.3 1035.04,-196.36 1008,-176 970.94,-148.09 918.56,-137.51 879.85,-133.58"/>
<polygon fill="#63b8ff" stroke="#63b8ff" points="880.1,-130.09 869.82,-132.68 879.47,-137.06 880.1,-130.09"/>
</a>
</g>
</g>
<!-- Node30&#45;&gt;Node3 -->
<g id="edge47_Node000030_Node000003" class="edge">
<title>Node30&#45;&gt;Node3</title>
<g id="a_edge47_Node000030_Node000003"><a xlink:title=" ">
<path fill="none" stroke="#63b8ff" d="M972.94,-357.46C997.41,-350.31 1027.29,-337.68 1046,-316 1102.47,-250.55 1068.65,-134.6 1052.31,-89.59"/>
<polygon fill="#63b8ff" stroke="#63b8ff" points="1055.48,-88.09 1048.68,-79.97 1048.93,-90.56 1055.48,-88.09"/>
</a>
</g>
</g>
<!-- Node30&#45;&gt;Node8 -->
<g id="edge50_Node000030_Node000008" class="edge">
<title>Node30&#45;&gt;Node8</title>
<g id="a_edge50_Node000030_Node000008"><a xlink:title=" ">
<path fill="none" stroke="#63b8ff" d="M855.39,-358.27C638.87,-336.18 38,-273.02 38,-252.5 38,-252.5 38,-252.5 38,-190 38,-151.4 59.98,-110.55 74.2,-88.17"/>
<polygon fill="#63b8ff" stroke="#63b8ff" points="77.15,-90.04 79.72,-79.76 71.3,-86.19 77.15,-90.04"/>
</a>
</g>
</g>
<!-- Node30&#45;&gt;Node12 -->
<g id="edge48_Node000030_Node000012" class="edge">
<title>Node30&#45;&gt;Node12</title>
<g id="a_edge48_Node000030_Node000012"><a xlink:title=" ">
<path fill="none" stroke="#63b8ff" d="M977.12,-357.42C1005.01,-350.23 1040.11,-337.56 1065,-316 1153.55,-239.29 1158.33,-197.22 1192,-85 1197.47,-66.78 1198.64,-44.99 1198.64,-29.7"/>
<polygon fill="#63b8ff" stroke="#63b8ff" points="1202.14,-29.38 1198.47,-19.44 1195.14,-29.5 1202.14,-29.38"/>
</a>
</g>
</g>
<!-- Node30&#45;&gt;Node20 -->
<g id="edge49_Node000030_Node000020" class="edge">
<title>Node30&#45;&gt;Node20</title>
<g id="a_edge49_Node000030_Node000020"><a xlink:title=" ">
<path fill="none" stroke="#63b8ff" d="M888.81,-357.49C835.69,-347.03 745.53,-329.27 688.2,-317.98"/>
<polygon fill="#63b8ff" stroke="#63b8ff" points="688.73,-314.52 678.24,-316.02 687.37,-321.38 688.73,-314.52"/>
</a>
</g>
</g>
<!-- Node31 -->
<g id="Node000031" class="node">
<title>Node31</title>
<g id="a_Node000031"><a xlink:href="plot_8h.html" target="_top" xlink:title=" ">
<polygon fill="white" stroke="#666666" points="1037,-261 993,-261 993,-242 1037,-242 1037,-261"/>
<text text-anchor="middle" x="1015" y="-249" font-family="Helvetica,sans-Serif" font-size="10.00">plot.h</text>
</a>
</g>
</g>
<!-- Node30&#45;&gt;Node31 -->
<g id="edge51_Node000030_Node000031" class="edge">
<title>Node30&#45;&gt;Node31</title>
<g id="a_edge51_Node000030_Node000031"><a xlink:title=" ">
<path fill="none" stroke="#63b8ff" d="M954.65,-357.46C972.3,-349.53 995.8,-335.94 1008,-316 1016.23,-302.55 1017.48,-284.45 1016.96,-271.02"/>
<polygon fill="#63b8ff" stroke="#63b8ff" points="1020.45,-270.75 1016.23,-261.03 1013.47,-271.27 1020.45,-270.75"/>
</a>
</g>
</g>
<!-- Node33 -->
<g id="Node000033" class="node">
<title>Node33</title>
<g id="a_Node000033"><a xlink:href="lineplot_8h.html" target="_top" xlink:title=" ">
<polygon fill="white" stroke="#666666" points="847,-316 719,-316 719,-297 847,-297 847,-316"/>
<text text-anchor="middle" x="783" y="-304" font-family="Helvetica,sans-Serif" font-size="10.00">visualization/lineplot.h</text>
</a>
</g>
</g>
<!-- Node30&#45;&gt;Node33 -->
<g id="edge58_Node000030_Node000033" class="edge">
<title>Node30&#45;&gt;Node33</title>
<g id="a_edge58_Node000030_Node000033"><a xlink:title=" ">
<path fill="none" stroke="#63b8ff" d="M910.33,-357.49C885.06,-347.57 843.09,-331.09 814.28,-319.78"/>
<polygon fill="#63b8ff" stroke="#63b8ff" points="815.28,-316.41 804.69,-316.02 812.72,-322.93 815.28,-316.41"/>
</a>
</g>
</g>
<!-- Node34 -->
<g id="Node000034" class="node">
<title>Node34</title>
<g id="a_Node000034"><a xlink:href="heatmap_8h.html" target="_top" xlink:title=" ">
<polygon fill="white" stroke="#666666" points="999,-316 865,-316 865,-297 999,-297 999,-316"/>
<text text-anchor="middle" x="932" y="-304" font-family="Helvetica,sans-Serif" font-size="10.00">visualization/heatmap.h</text>
</a>
</g>
</g>
<!-- Node30&#45;&gt;Node34 -->
<g id="edge60_Node000030_Node000034" class="edge">
<title>Node30&#45;&gt;Node34</title>
<g id="a_edge60_Node000030_Node000034"><a xlink:title=" ">
<path fill="none" stroke="#63b8ff" d="M932,-357.37C932,-349.25 932,-336.81 932,-326.39"/>
<polygon fill="#63b8ff" stroke="#63b8ff" points="935.5,-326.17 932,-316.17 928.5,-326.17 935.5,-326.17"/>
</a>
</g>
</g>
<!-- Node32 -->
<g id="Node000032" class="node">
<title>Node32</title>
<g id="a_Node000032"><a xlink:href="plot__parameters_8h.html" target="_top" xlink:title=" ">
<polygon fill="white" stroke="#666666" points="999,-200.5 893,-200.5 893,-181.5 999,-181.5 999,-200.5"/>
<text text-anchor="middle" x="946" y="-188.5" font-family="Helvetica,sans-Serif" font-size="10.00">plot_parameters.h</text>
</a>
</g>
</g>
<!-- Node31&#45;&gt;Node32 -->
<g id="edge52_Node000031_Node000032" class="edge">
<title>Node31&#45;&gt;Node32</title>
<g id="a_edge52_Node000031_Node000032"><a xlink:title=" ">
<path fill="none" stroke="#63b8ff" d="M1004.82,-241.87C994.12,-232.8 977.06,-218.34 964.07,-207.32"/>
<polygon fill="#63b8ff" stroke="#63b8ff" points="966.11,-204.46 956.22,-200.67 961.59,-209.8 966.11,-204.46"/>
</a>
</g>
</g>
<!-- Node32&#45;&gt;Node2 -->
<g id="edge56_Node000032_Node000002" class="edge">
<title>Node32&#45;&gt;Node2</title>
<g id="a_edge56_Node000032_Node000002"><a xlink:title=" ">
<path fill="none" stroke="#63b8ff" d="M928.84,-181.49C909.27,-171.79 877.03,-155.81 854.28,-144.53"/>
<polygon fill="#63b8ff" stroke="#63b8ff" points="855.69,-141.32 845.18,-140.02 852.58,-147.59 855.69,-141.32"/>
</a>
</g>
</g>
<!-- Node32&#45;&gt;Node4 -->
<g id="edge54_Node000032_Node000004" class="edge">
<title>Node32&#45;&gt;Node4</title>
<g id="a_edge54_Node000032_Node000004"><a xlink:title=" ">
<path fill="none" stroke="#63b8ff" d="M911.33,-181.5C876.95,-172.65 823.06,-157.63 778,-140 726.35,-119.8 710.23,-118.45 666,-85 643.99,-68.36 623.53,-43.74 611.15,-27.41"/>
<polygon fill="#63b8ff" stroke="#63b8ff" points="613.91,-25.26 605.15,-19.3 608.29,-29.42 613.91,-25.26"/>
</a>
</g>
</g>
<!-- Node32&#45;&gt;Node12 -->
<g id="edge55_Node000032_Node000012" class="edge">
<title>Node32&#45;&gt;Node12</title>
<g id="a_edge55_Node000032_Node000012"><a xlink:title=" ">
<path fill="none" stroke="#63b8ff" d="M958.15,-181.34C998.41,-152.67 1127.65,-60.61 1177.82,-24.87"/>
<polygon fill="#63b8ff" stroke="#63b8ff" points="1179.85,-27.72 1185.97,-19.07 1175.79,-22.02 1179.85,-27.72"/>
</a>
</g>
</g>
<!-- Node32&#45;&gt;Node28 -->
<g id="edge53_Node000032_Node000028" class="edge">
<title>Node32&#45;&gt;Node28</title>
<g id="a_edge53_Node000032_Node000028"><a xlink:title=" ">
<path fill="none" stroke="#63b8ff" d="M907.11,-181.45C897.91,-179.55 888.13,-177.62 879,-176 769.76,-156.65 740.76,-161.87 632,-140 630.73,-139.74 629.43,-139.47 628.12,-139.18"/>
<polygon fill="#63b8ff" stroke="#63b8ff" points="628.65,-135.71 618.11,-136.79 627.03,-142.52 628.65,-135.71"/>
</a>
</g>
</g>
<!-- Node33&#45;&gt;Node31 -->
<g id="edge59_Node000033_Node000031" class="edge">
<title>Node33&#45;&gt;Node31</title>
<g id="a_edge59_Node000033_Node000031"><a xlink:title=" ">
<path fill="none" stroke="#63b8ff" d="M820.96,-296.98C860.46,-288.1 924.1,-273.71 979,-261 980.27,-260.71 981.56,-260.41 982.86,-260.1"/>
<polygon fill="#63b8ff" stroke="#63b8ff" points="983.99,-263.43 992.92,-257.74 982.39,-256.62 983.99,-263.43"/>
</a>
</g>
</g>
<!-- Node34&#45;&gt;Node31 -->
<g id="edge61_Node000034_Node000031" class="edge">
<title>Node34&#45;&gt;Node31</title>
<g id="a_edge61_Node000034_Node000031"><a xlink:title=" ">
<path fill="none" stroke="#63b8ff" d="M945.34,-296.98C958.09,-288.84 977.55,-276.41 992.67,-266.76"/>
<polygon fill="#63b8ff" stroke="#63b8ff" points="994.88,-269.5 1001.42,-261.17 991.11,-263.6 994.88,-269.5"/>
</a>
</g>
</g>
<!-- Node36 -->
<g id="Node000036" class="node">
<title>Node36</title>
<g id="a_Node000036"><a xlink:title=" ">
<polygon fill="#e0e0e0" stroke="#999999" points="1222.5,-316 1169.5,-316 1169.5,-297 1222.5,-297 1222.5,-316"/>
<text text-anchor="middle" x="1196" y="-304" font-family="Helvetica,sans-Serif" font-size="10.00">imgui.h</text>
</a>
</g>
</g>
<!-- Node35&#45;&gt;Node36 -->
<g id="edge63_Node000035_Node000036" class="edge">
<title>Node35&#45;&gt;Node36</title>
<g id="a_edge63_Node000035_Node000036"><a xlink:title=" ">
<path fill="none" stroke="#63b8ff" d="M1127.03,-351.84C1141.27,-342.68 1159.73,-330.82 1173.97,-321.66"/>
<polygon fill="#63b8ff" stroke="#63b8ff" points="1176.11,-324.45 1182.63,-316.09 1172.33,-318.56 1176.11,-324.45"/>
</a>
</g>
</g>
<!-- Node37&#45;&gt;Node4 -->
<g id="edge66_Node000037_Node000004" class="edge">
<title>Node37&#45;&gt;Node4</title>
<g id="a_edge66_Node000037_Node000004"><a xlink:title=" ">
<path fill="none" stroke="#63b8ff" d="M1099.1,-493.94C1159.19,-488.05 1252.48,-474.78 1274,-448 1371.83,-326.28 1118.83,-75.48 1084,-55 1007.83,-10.21 775.98,-27.2 688,-19 669.36,-17.26 648.54,-15.28 631.72,-13.66"/>
<polygon fill="#63b8ff" stroke="#63b8ff" points="631.6,-10.13 621.31,-12.66 630.93,-17.1 631.6,-10.13"/>
</a>
</g>
</g>
<!-- Node37&#45;&gt;Node12 -->
<g id="edge65_Node000037_Node000012" class="edge">
<title>Node37&#45;&gt;Node12</title>
<g id="a_edge65_Node000037_Node000012"><a xlink:title=" ">
<path fill="none" stroke="#63b8ff" d="M1099.08,-494.3C1165.98,-488.5 1277.07,-475.04 1307,-448 1334.55,-423.12 1331,-405.12 1331,-368 1331,-368 1331,-368 1331,-129.5 1331,-75.94 1270.37,-40.46 1230.98,-23.06"/>
<polygon fill="#63b8ff" stroke="#63b8ff" points="1232.04,-19.71 1221.47,-19.02 1229.31,-26.15 1232.04,-19.71"/>
</a>
</g>
</g>
<!-- Node37&#45;&gt;Node17 -->
<g id="edge69_Node000037_Node000017" class="edge">
<title>Node37&#45;&gt;Node17</title>
<g id="a_edge69_Node000037_Node000017"><a xlink:title=" ">
<path fill="none" stroke="#63b8ff" d="M994.89,-485.51C945.68,-473.71 872.63,-456.2 825.66,-444.94"/>
<polygon fill="#63b8ff" stroke="#63b8ff" points="826.3,-441.5 815.76,-442.57 824.67,-448.31 826.3,-441.5"/>
</a>
</g>
</g>
<!-- Node38 -->
<g id="Node000038" class="node">
<title>Node38</title>
<g id="a_Node000038"><a xlink:title=" ">
<polygon fill="#e0e0e0" stroke="#999999" points="958.5,-442.5 905.5,-442.5 905.5,-423.5 958.5,-423.5 958.5,-442.5"/>
<text text-anchor="middle" x="932" y="-430.5" font-family="Helvetica,sans-Serif" font-size="10.00">cstdarg</text>
</a>
</g>
</g>
<!-- Node37&#45;&gt;Node38 -->
<g id="edge67_Node000037_Node000038" class="edge">
<title>Node37&#45;&gt;Node38</title>
<g id="a_edge67_Node000037_Node000038"><a xlink:title=" ">
<path fill="none" stroke="#63b8ff" d="M1021.76,-483.95C1002.22,-473.08 975.32,-458.11 956.07,-447.4"/>
<polygon fill="#63b8ff" stroke="#63b8ff" points="957.74,-444.32 947.3,-442.52 954.34,-450.44 957.74,-444.32"/>
</a>
</g>
</g>
<!-- Node39 -->
<g id="Node000039" class="node">
<title>Node39</title>
<g id="a_Node000039"><a xlink:title=" ">
<polygon fill="#e0e0e0" stroke="#999999" points="1117,-448 977,-448 977,-418 1117,-418 1117,-448"/>
<text text-anchor="start" x="985" y="-436" font-family="Helvetica,sans-Serif" font-size="10.00">imgui&#45;platform&#45;kit</text>
<text text-anchor="middle" x="1047" y="-425" font-family="Helvetica,sans-Serif" font-size="10.00">/user_interface_window.h</text>
</a>
</g>
</g>
<!-- Node37&#45;&gt;Node39 -->
<g id="edge68_Node000037_Node000039" class="edge">
<title>Node37&#45;&gt;Node39</title>
<g id="a_edge68_Node000037_Node000039"><a xlink:title=" ">
<path fill="none" stroke="#63b8ff" d="M1047,-483.8C1047,-476.34 1047,-466.99 1047,-458.41"/>
<polygon fill="#63b8ff" stroke="#63b8ff" points="1050.5,-458.16 1047,-448.16 1043.5,-458.16 1050.5,-458.16"/>
</a>
</g>
</g>
<!-- Node40 -->
<g id="Node000040" class="node">
<title>Node40</title>
<g id="a_Node000040"><a xlink:href="IconsFontAwesome6_8h.html" target="_top" xlink:title=" ">
<polygon fill="white" stroke="#666666" points="1264.5,-448 1135.5,-448 1135.5,-418 1264.5,-418 1264.5,-448"/>
<text text-anchor="start" x="1143.5" y="-436" font-family="Helvetica,sans-Serif" font-size="10.00">user_interface/fonts</text>
<text text-anchor="middle" x="1200" y="-425" font-family="Helvetica,sans-Serif" font-size="10.00">/IconsFontAwesome6.h</text>
</a>
</g>
</g>
<!-- Node37&#45;&gt;Node40 -->
<g id="edge70_Node000037_Node000040" class="edge">
<title>Node37&#45;&gt;Node40</title>
<g id="a_edge70_Node000037_Node000040"><a xlink:title=" ">
<path fill="none" stroke="#63b8ff" d="M1080.58,-483.95C1103.1,-474.53 1132.96,-462.04 1157.18,-451.91"/>
<polygon fill="#63b8ff" stroke="#63b8ff" points="1158.63,-455.1 1166.5,-448.01 1155.93,-448.64 1158.63,-455.1"/>
</a>
</g>
</g>
</g>
</svg>
