<?xml version="1.0" encoding="UTF-8" standalone="no"?>
<!DOCTYPE svg PUBLIC "-//W3C//DTD SVG 1.1//EN"
 "http://www.w3.org/Graphics/SVG/1.1/DTD/svg11.dtd">
<!-- Generated by graphviz version 2.43.0 (0)
 -->
<!-- Title: src/elements/memory_trace.cpp Pages: 1 -->
<svg width="1094pt" height="390pt"
 viewBox="0.00 0.00 1094.21 390.00" xmlns="http://www.w3.org/2000/svg" xmlns:xlink="http://www.w3.org/1999/xlink">
<g id="graph0" class="graph" transform="scale(1 1) rotate(0) translate(4 386)">
<title>src/elements/memory_trace.cpp</title>
<!-- Node1 -->
<g id="Node000001" class="node">
<title>Node1</title>
<g id="a_Node000001"><a xlink:title=" ">
<polygon fill="#999999" stroke="#666666" points="160.5,-382 36.5,-382 36.5,-352 160.5,-352 160.5,-382"/>
<text text-anchor="start" x="44.5" y="-370" font-family="Helvetica,sans-Serif" font-size="10.00">src/elements/memory</text>
<text text-anchor="middle" x="98.5" y="-359" font-family="Helvetica,sans-Serif" font-size="10.00">_trace.cpp</text>
</a>
</g>
</g>
<!-- Node2 -->
<g id="Node000002" class="node">
<title>Node2</title>
<g id="a_Node000002"><a xlink:href="memory__trace_8h.html" target="_top" xlink:title=" ">
<polygon fill="white" stroke="#666666" points="171.5,-316 25.5,-316 25.5,-297 171.5,-297 171.5,-316"/>
<text text-anchor="middle" x="98.5" y="-304" font-family="Helvetica,sans-Serif" font-size="10.00">elements/memory_trace.h</text>
</a>
</g>
</g>
<!-- Node1&#45;&gt;Node2 -->
<g id="edge1_Node000001_Node000002" class="edge">
<title>Node1&#45;&gt;Node2</title>
<g id="a_edge1_Node000001_Node000002"><a xlink:title=" ">
<path fill="none" stroke="#63b8ff" d="M98.5,-351.84C98.5,-344.21 98.5,-334.7 98.5,-326.45"/>
<polygon fill="#63b8ff" stroke="#63b8ff" points="102,-326.27 98.5,-316.27 95,-326.27 102,-326.27"/>
</a>
</g>
</g>
<!-- Node3 -->
<g id="Node000003" class="node">
<title>Node3</title>
<g id="a_Node000003"><a xlink:title=" ">
<polygon fill="#e0e0e0" stroke="#999999" points="47,-261 0,-261 0,-242 47,-242 47,-261"/>
<text text-anchor="middle" x="23.5" y="-249" font-family="Helvetica,sans-Serif" font-size="10.00">cmath</text>
</a>
</g>
</g>
<!-- Node2&#45;&gt;Node3 -->
<g id="edge2_Node000002_Node000003" class="edge">
<title>Node2&#45;&gt;Node3</title>
<g id="a_edge2_Node000002_Node000003"><a xlink:title=" ">
<path fill="none" stroke="#63b8ff" d="M86.45,-296.98C75.04,-288.92 57.67,-276.65 44.07,-267.03"/>
<polygon fill="#63b8ff" stroke="#63b8ff" points="45.96,-264.08 35.77,-261.17 41.92,-269.8 45.96,-264.08"/>
</a>
</g>
</g>
<!-- Node4 -->
<g id="Node000004" class="node">
<title>Node4</title>
<g id="a_Node000004"><a xlink:title=" ">
<polygon fill="#e0e0e0" stroke="#999999" points="159.5,-19 103.5,-19 103.5,0 159.5,0 159.5,-19"/>
<text text-anchor="middle" x="131.5" y="-7" font-family="Helvetica,sans-Serif" font-size="10.00">sstream</text>
</a>
</g>
</g>
<!-- Node2&#45;&gt;Node4 -->
<g id="edge3_Node000002_Node000004" class="edge">
<title>Node2&#45;&gt;Node4</title>
<g id="a_edge3_Node000002_Node000004"><a xlink:title=" ">
<path fill="none" stroke="#63b8ff" d="M95.49,-296.79C89.26,-277.93 75.5,-231.81 75.5,-192 75.5,-192 75.5,-192 75.5,-129.5 75.5,-95.33 78.97,-85.44 94.5,-55 99.79,-44.64 107.86,-34.55 115.12,-26.6"/>
<polygon fill="#63b8ff" stroke="#63b8ff" points="117.84,-28.82 122.23,-19.17 112.79,-23.97 117.84,-28.82"/>
</a>
</g>
</g>
<!-- Node5 -->
<g id="Node000005" class="node">
<title>Node5</title>
<g id="a_Node000005"><a xlink:title=" ">
<polygon fill="#e0e0e0" stroke="#999999" points="159.5,-79.5 103.5,-79.5 103.5,-60.5 159.5,-60.5 159.5,-79.5"/>
<text text-anchor="middle" x="131.5" y="-67.5" font-family="Helvetica,sans-Serif" font-size="10.00">iomanip</text>
</a>
</g>
</g>
<!-- Node2&#45;&gt;Node5 -->
<g id="edge4_Node000002_Node000005" class="edge">
<title>Node2&#45;&gt;Node5</title>
<g id="a_edge4_Node000002_Node000005"><a xlink:title=" ">
<path fill="none" stroke="#63b8ff" d="M99.71,-296.88C104.49,-262.91 122.09,-137.9 128.84,-89.92"/>
<polygon fill="#63b8ff" stroke="#63b8ff" points="132.31,-90.34 130.24,-79.95 125.38,-89.37 132.31,-90.34"/>
</a>
</g>
</g>
<!-- Node6 -->
<g id="Node000006" class="node">
<title>Node6</title>
<g id="a_Node000006"><a xlink:href="element_8h.html" target="_top" xlink:title=" ">
<polygon fill="white" stroke="#666666" points="746.5,-261 680.5,-261 680.5,-242 746.5,-242 746.5,-261"/>
<text text-anchor="middle" x="713.5" y="-249" font-family="Helvetica,sans-Serif" font-size="10.00">element.h</text>
</a>
</g>
</g>
<!-- Node2&#45;&gt;Node6 -->
<g id="edge5_Node000002_Node000006" class="edge">
<title>Node2&#45;&gt;Node6</title>
<g id="a_edge5_Node000002_Node000006"><a xlink:title=" ">
<path fill="none" stroke="#63b8ff" d="M171.77,-299.19C301.1,-288.04 566.02,-265.21 670.13,-256.24"/>
<polygon fill="#63b8ff" stroke="#63b8ff" points="670.61,-259.71 680.27,-255.36 670.01,-252.74 670.61,-259.71"/>
</a>
</g>
</g>
<!-- Node7 -->
<g id="Node000007" class="node">
<title>Node7</title>
<g id="a_Node000007"><a xlink:title=" ">
<polygon fill="#e0e0e0" stroke="#999999" points="525,-19 478,-19 478,0 525,0 525,-19"/>
<text text-anchor="middle" x="501.5" y="-7" font-family="Helvetica,sans-Serif" font-size="10.00">vector</text>
</a>
</g>
</g>
<!-- Node6&#45;&gt;Node7 -->
<g id="edge6_Node000006_Node000007" class="edge">
<title>Node6&#45;&gt;Node7</title>
<g id="a_edge6_Node000006_Node000007"><a xlink:title=" ">
<path fill="none" stroke="#63b8ff" d="M680.13,-249.24C620.05,-246.24 497.32,-236.43 469.5,-206 423.49,-155.67 467.95,-66.02 490.34,-28.16"/>
<polygon fill="#63b8ff" stroke="#63b8ff" points="493.51,-29.67 495.73,-19.31 487.54,-26.03 493.51,-29.67"/>
</a>
</g>
</g>
<!-- Node8 -->
<g id="Node000008" class="node">
<title>Node8</title>
<g id="a_Node000008"><a xlink:title=" ">
<polygon fill="#e0e0e0" stroke="#999999" points="628.5,-19 584.5,-19 584.5,0 628.5,0 628.5,-19"/>
<text text-anchor="middle" x="606.5" y="-7" font-family="Helvetica,sans-Serif" font-size="10.00">string</text>
</a>
</g>
</g>
<!-- Node6&#45;&gt;Node8 -->
<g id="edge7_Node000006_Node000008" class="edge">
<title>Node6&#45;&gt;Node8</title>
<g id="a_edge7_Node000006_Node000008"><a xlink:title=" ">
<path fill="none" stroke="#63b8ff" d="M698.17,-241.88C685.68,-234.08 668.52,-221.46 658.5,-206 620.76,-147.73 636.43,-122.07 618.5,-55 616.2,-46.39 613.63,-36.85 611.46,-28.82"/>
<polygon fill="#63b8ff" stroke="#63b8ff" points="614.8,-27.77 608.81,-19.03 608.04,-29.59 614.8,-27.77"/>
</a>
</g>
</g>
<!-- Node9 -->
<g id="Node000009" class="node">
<title>Node9</title>
<g id="a_Node000009"><a xlink:title=" ">
<polygon fill="#e0e0e0" stroke="#999999" points="760,-200.5 667,-200.5 667,-181.5 760,-181.5 760,-200.5"/>
<text text-anchor="middle" x="713.5" y="-188.5" font-family="Helvetica,sans-Serif" font-size="10.00">unordered_map</text>
</a>
</g>
</g>
<!-- Node6&#45;&gt;Node9 -->
<g id="edge8_Node000006_Node000009" class="edge">
<title>Node6&#45;&gt;Node9</title>
<g id="a_edge8_Node000006_Node000009"><a xlink:title=" ">
<path fill="none" stroke="#63b8ff" d="M713.5,-241.87C713.5,-233.75 713.5,-221.31 713.5,-210.89"/>
<polygon fill="#63b8ff" stroke="#63b8ff" points="717,-210.67 713.5,-200.67 710,-210.67 717,-210.67"/>
</a>
</g>
</g>
<!-- Node10 -->
<g id="Node000010" class="node">
<title>Node10</title>
<g id="a_Node000010"><a xlink:title=" ">
<polygon fill="#e0e0e0" stroke="#999999" points="836.5,-200.5 778.5,-200.5 778.5,-181.5 836.5,-181.5 836.5,-200.5"/>
<text text-anchor="middle" x="807.5" y="-188.5" font-family="Helvetica,sans-Serif" font-size="10.00">memory</text>
</a>
</g>
</g>
<!-- Node6&#45;&gt;Node10 -->
<g id="edge9_Node000006_Node000010" class="edge">
<title>Node6&#45;&gt;Node10</title>
<g id="a_edge9_Node000006_Node000010"><a xlink:title=" ">
<path fill="none" stroke="#63b8ff" d="M727.37,-241.87C742.5,-232.45 766.96,-217.23 784.88,-206.08"/>
<polygon fill="#63b8ff" stroke="#63b8ff" points="786.93,-208.92 793.57,-200.67 783.23,-202.98 786.93,-208.92"/>
</a>
</g>
</g>
<!-- Node11 -->
<g id="Node000011" class="node">
<title>Node11</title>
<g id="a_Node000011"><a xlink:title=" ">
<polygon fill="#e0e0e0" stroke="#999999" points="904.5,-200.5 854.5,-200.5 854.5,-181.5 904.5,-181.5 904.5,-200.5"/>
<text text-anchor="middle" x="879.5" y="-188.5" font-family="Helvetica,sans-Serif" font-size="10.00">ranges</text>
</a>
</g>
</g>
<!-- Node6&#45;&gt;Node11 -->
<g id="edge10_Node000006_Node000011" class="edge">
<title>Node6&#45;&gt;Node11</title>
<g id="a_edge10_Node000006_Node000011"><a xlink:title=" ">
<path fill="none" stroke="#63b8ff" d="M740.48,-241.98C767.29,-233.37 809.48,-219.47 845.5,-206 846.92,-205.47 848.37,-204.92 849.83,-204.35"/>
<polygon fill="#63b8ff" stroke="#63b8ff" points="851.46,-207.47 859.45,-200.51 848.87,-200.97 851.46,-207.47"/>
</a>
</g>
</g>
<!-- Node12 -->
<g id="Node000012" class="node">
<title>Node12</title>
<g id="a_Node000012"><a xlink:title=" ">
<polygon fill="#e0e0e0" stroke="#999999" points="986.5,-200.5 922.5,-200.5 922.5,-181.5 986.5,-181.5 986.5,-200.5"/>
<text text-anchor="middle" x="954.5" y="-188.5" font-family="Helvetica,sans-Serif" font-size="10.00">algorithm</text>
</a>
</g>
</g>
<!-- Node6&#45;&gt;Node12 -->
<g id="edge11_Node000006_Node000012" class="edge">
<title>Node6&#45;&gt;Node12</title>
<g id="a_edge11_Node000006_Node000012"><a xlink:title=" ">
<path fill="none" stroke="#63b8ff" d="M746.69,-244.28C786.6,-236.53 855.46,-222.31 913.5,-206 915.97,-205.31 918.51,-204.55 921.06,-203.75"/>
<polygon fill="#63b8ff" stroke="#63b8ff" points="922.36,-207.01 930.79,-200.59 920.2,-200.35 922.36,-207.01"/>
</a>
</g>
</g>
<!-- Node13 -->
<g id="Node000013" class="node">
<title>Node13</title>
<g id="a_Node000013"><a xlink:title=" ">
<polygon fill="#e0e0e0" stroke="#999999" points="1060.5,-200.5 1004.5,-200.5 1004.5,-181.5 1060.5,-181.5 1060.5,-200.5"/>
<text text-anchor="middle" x="1032.5" y="-188.5" font-family="Helvetica,sans-Serif" font-size="10.00">numeric</text>
</a>
</g>
</g>
<!-- Node6&#45;&gt;Node13 -->
<g id="edge12_Node000006_Node000013" class="edge">
<title>Node6&#45;&gt;Node13</title>
<g id="a_edge12_Node000006_Node000013"><a xlink:title=" ">
<path fill="none" stroke="#63b8ff" d="M746.52,-247.51C799.65,-242.2 907.11,-229.43 995.5,-206 997.8,-205.39 1000.15,-204.69 1002.5,-203.94"/>
<polygon fill="#63b8ff" stroke="#63b8ff" points="1003.72,-207.22 1012,-200.61 1001.41,-200.61 1003.72,-207.22"/>
</a>
</g>
</g>
<!-- Node14 -->
<g id="Node000014" class="node">
<title>Node14</title>
<g id="a_Node000014"><a xlink:href="exception_8h.html" target="_top" xlink:title=" ">
<polygon fill="white" stroke="#666666" points="802.5,-79.5 672.5,-79.5 672.5,-60.5 802.5,-60.5 802.5,-79.5"/>
<text text-anchor="middle" x="737.5" y="-67.5" font-family="Helvetica,sans-Serif" font-size="10.00">exceptions/exception.h</text>
</a>
</g>
</g>
<!-- Node6&#45;&gt;Node14 -->
<g id="edge13_Node000006_Node000014" class="edge">
<title>Node6&#45;&gt;Node14</title>
<g id="a_edge13_Node000006_Node000014"><a xlink:title=" ">
<path fill="none" stroke="#63b8ff" d="M746.51,-248.82C830.69,-244.21 1048.27,-230.05 1069.5,-206 1146.62,-118.64 933.2,-86.85 813.08,-76.07"/>
<polygon fill="#63b8ff" stroke="#63b8ff" points="813.09,-72.56 802.82,-75.19 812.48,-79.54 813.09,-72.56"/>
</a>
</g>
</g>
<!-- Node16 -->
<g id="Node000016" class="node">
<title>Node16</title>
<g id="a_Node000016"><a xlink:href="logger_8h.html" target="_top" xlink:title=" ">
<polygon fill="white" stroke="#666666" points="416,-140 333,-140 333,-121 416,-121 416,-140"/>
<text text-anchor="middle" x="374.5" y="-128" font-family="Helvetica,sans-Serif" font-size="10.00">tools/logger.h</text>
</a>
</g>
</g>
<!-- Node6&#45;&gt;Node16 -->
<g id="edge16_Node000006_Node000016" class="edge">
<title>Node6&#45;&gt;Node16</title>
<g id="a_edge16_Node000006_Node000016"><a xlink:title=" ">
<path fill="none" stroke="#63b8ff" d="M680.28,-248.4C614.87,-243.76 472.12,-231.01 430.5,-206 408.24,-192.62 391.88,-166.74 382.77,-149.28"/>
<polygon fill="#63b8ff" stroke="#63b8ff" points="385.82,-147.56 378.26,-140.14 379.55,-150.66 385.82,-147.56"/>
</a>
</g>
</g>
<!-- Node23 -->
<g id="Node000023" class="node">
<title>Node23</title>
<g id="a_Node000023"><a xlink:href="element__parameters_8h.html" target="_top" xlink:title=" ">
<polygon fill="white" stroke="#666666" points="610,-206 479,-206 479,-176 610,-176 610,-206"/>
<text text-anchor="start" x="487" y="-194" font-family="Helvetica,sans-Serif" font-size="10.00">element_parameters</text>
<text text-anchor="middle" x="544.5" y="-183" font-family="Helvetica,sans-Serif" font-size="10.00">/element_parameters.h</text>
</a>
</g>
</g>
<!-- Node6&#45;&gt;Node23 -->
<g id="edge30_Node000006_Node000023" class="edge">
<title>Node6&#45;&gt;Node23</title>
<g id="a_edge30_Node000006_Node000023"><a xlink:title=" ">
<path fill="none" stroke="#63b8ff" d="M688.93,-241.99C664.39,-233.5 625.97,-220.2 594.92,-209.45"/>
<polygon fill="#63b8ff" stroke="#63b8ff" points="595.72,-206.03 585.13,-206.06 593.44,-212.64 595.72,-206.03"/>
</a>
</g>
</g>
<!-- Node14&#45;&gt;Node8 -->
<g id="edge15_Node000014_Node000008" class="edge">
<title>Node14&#45;&gt;Node8</title>
<g id="a_edge15_Node000014_Node000008"><a xlink:title=" ">
<path fill="none" stroke="#63b8ff" d="M718.45,-60.49C696.53,-50.7 660.29,-34.52 635,-23.23"/>
<polygon fill="#63b8ff" stroke="#63b8ff" points="636.13,-19.9 625.57,-19.02 633.28,-26.29 636.13,-19.9"/>
</a>
</g>
</g>
<!-- Node15 -->
<g id="Node000015" class="node">
<title>Node15</title>
<g id="a_Node000015"><a xlink:title=" ">
<polygon fill="#e0e0e0" stroke="#999999" points="770,-19 705,-19 705,0 770,0 770,-19"/>
<text text-anchor="middle" x="737.5" y="-7" font-family="Helvetica,sans-Serif" font-size="10.00">exception</text>
</a>
</g>
</g>
<!-- Node14&#45;&gt;Node15 -->
<g id="edge14_Node000014_Node000015" class="edge">
<title>Node14&#45;&gt;Node15</title>
<g id="a_edge14_Node000014_Node000015"><a xlink:title=" ">
<path fill="none" stroke="#63b8ff" d="M737.5,-60.37C737.5,-52.25 737.5,-39.81 737.5,-29.39"/>
<polygon fill="#63b8ff" stroke="#63b8ff" points="741,-29.17 737.5,-19.17 734,-29.17 741,-29.17"/>
</a>
</g>
</g>
<!-- Node16&#45;&gt;Node5 -->
<g id="edge20_Node000016_Node000005" class="edge">
<title>Node16&#45;&gt;Node5</title>
<g id="a_edge20_Node000016_Node000005"><a xlink:title=" ">
<path fill="none" stroke="#63b8ff" d="M332.61,-122.35C290.66,-114.74 224.47,-101.53 168.5,-85 166.36,-84.37 164.17,-83.67 161.97,-82.93"/>
<polygon fill="#63b8ff" stroke="#63b8ff" points="163.04,-79.6 152.45,-79.55 160.69,-86.2 163.04,-79.6"/>
</a>
</g>
</g>
<!-- Node16&#45;&gt;Node8 -->
<g id="edge18_Node000016_Node000008" class="edge">
<title>Node16&#45;&gt;Node8</title>
<g id="a_edge18_Node000016_Node000008"><a xlink:title=" ">
<path fill="none" stroke="#63b8ff" d="M391.18,-120.94C431.13,-100.45 532.52,-48.45 580.53,-23.82"/>
<polygon fill="#63b8ff" stroke="#63b8ff" points="582.35,-26.82 589.65,-19.14 579.16,-20.59 582.35,-26.82"/>
</a>
</g>
</g>
<!-- Node16&#45;&gt;Node14 -->
<g id="edge22_Node000016_Node000014" class="edge">
<title>Node16&#45;&gt;Node14</title>
<g id="a_edge22_Node000016_Node000014"><a xlink:title=" ">
<path fill="none" stroke="#63b8ff" d="M416.14,-122.79C479.46,-112.59 600.4,-93.09 674.51,-81.15"/>
<polygon fill="#63b8ff" stroke="#63b8ff" points="675.33,-84.56 684.64,-79.52 674.21,-77.65 675.33,-84.56"/>
</a>
</g>
</g>
<!-- Node17 -->
<g id="Node000017" class="node">
<title>Node17</title>
<g id="a_Node000017"><a xlink:title=" ">
<polygon fill="#e0e0e0" stroke="#999999" points="237.5,-79.5 177.5,-79.5 177.5,-60.5 237.5,-60.5 237.5,-79.5"/>
<text text-anchor="middle" x="207.5" y="-67.5" font-family="Helvetica,sans-Serif" font-size="10.00">iostream</text>
</a>
</g>
</g>
<!-- Node16&#45;&gt;Node17 -->
<g id="edge17_Node000016_Node000017" class="edge">
<title>Node16&#45;&gt;Node17</title>
<g id="a_edge17_Node000016_Node000017"><a xlink:title=" ">
<path fill="none" stroke="#63b8ff" d="M349.46,-120.88C323.63,-111.97 282.21,-97.62 246.5,-85 244.67,-84.35 242.79,-83.69 240.89,-83.01"/>
<polygon fill="#63b8ff" stroke="#63b8ff" points="242.01,-79.69 231.41,-79.63 239.65,-86.29 242.01,-79.69"/>
</a>
</g>
</g>
<!-- Node18 -->
<g id="Node000018" class="node">
<title>Node18</title>
<g id="a_Node000018"><a xlink:title=" ">
<polygon fill="#e0e0e0" stroke="#999999" points="428.5,-19 378.5,-19 378.5,0 428.5,0 428.5,-19"/>
<text text-anchor="middle" x="403.5" y="-7" font-family="Helvetica,sans-Serif" font-size="10.00">chrono</text>
</a>
</g>
</g>
<!-- Node16&#45;&gt;Node18 -->
<g id="edge19_Node000016_Node000018" class="edge">
<title>Node16&#45;&gt;Node18</title>
<g id="a_edge19_Node000016_Node000018"><a xlink:title=" ">
<path fill="none" stroke="#63b8ff" d="M395.02,-121C409.52,-113.77 427.85,-101.86 436.5,-85 446.53,-65.46 432.26,-42.22 419.47,-26.96"/>
<polygon fill="#63b8ff" stroke="#63b8ff" points="421.96,-24.49 412.68,-19.37 416.74,-29.16 421.96,-24.49"/>
</a>
</g>
</g>
<!-- Node19 -->
<g id="Node000019" class="node">
<title>Node19</title>
<g id="a_Node000019"><a xlink:title=" ">
<polygon fill="#e0e0e0" stroke="#999999" points="428,-85 321,-85 321,-55 428,-55 428,-85"/>
<text text-anchor="start" x="329" y="-73" font-family="Helvetica,sans-Serif" font-size="10.00">imgui&#45;platform&#45;kit</text>
<text text-anchor="middle" x="374.5" y="-62" font-family="Helvetica,sans-Serif" font-size="10.00">/log_window.h</text>
</a>
</g>
</g>
<!-- Node16&#45;&gt;Node19 -->
<g id="edge21_Node000016_Node000019" class="edge">
<title>Node16&#45;&gt;Node19</title>
<g id="a_edge21_Node000016_Node000019"><a xlink:title=" ">
<path fill="none" stroke="#63b8ff" d="M374.5,-120.87C374.5,-114.11 374.5,-104.35 374.5,-95.26"/>
<polygon fill="#63b8ff" stroke="#63b8ff" points="378,-95.11 374.5,-85.11 371,-95.11 378,-95.11"/>
</a>
</g>
</g>
<!-- Node20 -->
<g id="Node000020" class="node">
<title>Node20</title>
<g id="a_Node000020"><a xlink:href="utils_8h.html" target="_top" xlink:title=" ">
<polygon fill="white" stroke="#666666" points="303,-79.5 256,-79.5 256,-60.5 303,-60.5 303,-79.5"/>
<text text-anchor="middle" x="279.5" y="-67.5" font-family="Helvetica,sans-Serif" font-size="10.00">utils.h</text>
</a>
</g>
</g>
<!-- Node16&#45;&gt;Node20 -->
<g id="edge23_Node000016_Node000020" class="edge">
<title>Node16&#45;&gt;Node20</title>
<g id="a_edge23_Node000016_Node000020"><a xlink:title=" ">
<path fill="none" stroke="#63b8ff" d="M360.48,-120.87C345.19,-111.45 320.47,-96.23 302.36,-85.08"/>
<polygon fill="#63b8ff" stroke="#63b8ff" points="303.93,-81.93 293.58,-79.67 300.25,-87.89 303.93,-81.93"/>
</a>
</g>
</g>
<!-- Node20&#45;&gt;Node4 -->
<g id="edge27_Node000020_Node000004" class="edge">
<title>Node20&#45;&gt;Node4</title>
<g id="a_edge27_Node000020_Node000004"><a xlink:title=" ">
<path fill="none" stroke="#63b8ff" d="M259.65,-60.46C255.33,-58.63 250.77,-56.73 246.5,-55 218.85,-43.79 187.22,-31.59 164.14,-22.81"/>
<polygon fill="#63b8ff" stroke="#63b8ff" points="165.09,-19.43 154.5,-19.15 162.6,-25.97 165.09,-19.43"/>
</a>
</g>
</g>
<!-- Node20&#45;&gt;Node7 -->
<g id="edge25_Node000020_Node000007" class="edge">
<title>Node20&#45;&gt;Node7</title>
<g id="a_edge25_Node000020_Node000007"><a xlink:title=" ">
<path fill="none" stroke="#63b8ff" d="M297.55,-60.42C302.05,-58.47 306.9,-56.53 311.5,-55 364.98,-37.2 429.19,-23.75 467.6,-16.5"/>
<polygon fill="#63b8ff" stroke="#63b8ff" points="468.52,-19.89 477.72,-14.63 467.25,-13.01 468.52,-19.89"/>
</a>
</g>
</g>
<!-- Node20&#45;&gt;Node8 -->
<g id="edge24_Node000020_Node000008" class="edge">
<title>Node20&#45;&gt;Node8</title>
<g id="a_edge24_Node000020_Node000008"><a xlink:title=" ">
<path fill="none" stroke="#63b8ff" d="M296.8,-60.45C301.48,-58.41 306.61,-56.41 311.5,-55 360.41,-40.88 508.12,-22.21 574.08,-14.3"/>
<polygon fill="#63b8ff" stroke="#63b8ff" points="574.79,-17.74 584.31,-13.08 573.96,-10.79 574.79,-17.74"/>
</a>
</g>
</g>
<!-- Node20&#45;&gt;Node18 -->
<g id="edge29_Node000020_Node000018" class="edge">
<title>Node20&#45;&gt;Node18</title>
<g id="a_edge29_Node000020_Node000018"><a xlink:title=" ">
<path fill="none" stroke="#63b8ff" d="M297.53,-60.49C318.19,-50.75 352.28,-34.66 376.2,-23.38"/>
<polygon fill="#63b8ff" stroke="#63b8ff" points="377.9,-26.45 385.45,-19.02 374.91,-20.12 377.9,-26.45"/>
</a>
</g>
</g>
<!-- Node21 -->
<g id="Node000021" class="node">
<title>Node21</title>
<g id="a_Node000021"><a xlink:title=" ">
<polygon fill="#e0e0e0" stroke="#999999" points="333.5,-19 279.5,-19 279.5,0 333.5,0 333.5,-19"/>
<text text-anchor="middle" x="306.5" y="-7" font-family="Helvetica,sans-Serif" font-size="10.00">random</text>
</a>
</g>
</g>
<!-- Node20&#45;&gt;Node21 -->
<g id="edge26_Node000020_Node000021" class="edge">
<title>Node20&#45;&gt;Node21</title>
<g id="a_edge26_Node000020_Node000021"><a xlink:title=" ">
<path fill="none" stroke="#63b8ff" d="M283.48,-60.37C287.35,-51.99 293.34,-39.01 298.24,-28.39"/>
<polygon fill="#63b8ff" stroke="#63b8ff" points="301.49,-29.71 302.5,-19.17 295.13,-26.78 301.49,-29.71"/>
</a>
</g>
</g>
<!-- Node22 -->
<g id="Node000022" class="node">
<title>Node22</title>
<g id="a_Node000022"><a xlink:title=" ">
<polygon fill="#e0e0e0" stroke="#999999" points="261,-19 206,-19 206,0 261,0 261,-19"/>
<text text-anchor="middle" x="233.5" y="-7" font-family="Helvetica,sans-Serif" font-size="10.00">fstream</text>
</a>
</g>
</g>
<!-- Node20&#45;&gt;Node22 -->
<g id="edge28_Node000020_Node000022" class="edge">
<title>Node20&#45;&gt;Node22</title>
<g id="a_edge28_Node000020_Node000022"><a xlink:title=" ">
<path fill="none" stroke="#63b8ff" d="M272.71,-60.37C265.85,-51.64 255.07,-37.93 246.55,-27.09"/>
<polygon fill="#63b8ff" stroke="#63b8ff" points="249.25,-24.86 240.32,-19.17 243.75,-29.19 249.25,-24.86"/>
</a>
</g>
</g>
<!-- Node23&#45;&gt;Node8 -->
<g id="edge32_Node000023_Node000008" class="edge">
<title>Node23&#45;&gt;Node8</title>
<g id="a_edge32_Node000023_Node000008"><a xlink:title=" ">
<path fill="none" stroke="#63b8ff" d="M560.58,-175.85C569.99,-166.61 581.23,-153.75 587.5,-140 604.18,-103.43 606.88,-55.56 606.96,-29.47"/>
<polygon fill="#63b8ff" stroke="#63b8ff" points="610.45,-29.1 606.85,-19.14 603.45,-29.17 610.45,-29.1"/>
</a>
</g>
</g>
<!-- Node23&#45;&gt;Node16 -->
<g id="edge34_Node000023_Node000016" class="edge">
<title>Node23&#45;&gt;Node16</title>
<g id="a_edge34_Node000023_Node000016"><a xlink:title=" ">
<path fill="none" stroke="#63b8ff" d="M503.78,-175.99C474.91,-166.05 436.59,-152.86 409.17,-143.43"/>
<polygon fill="#63b8ff" stroke="#63b8ff" points="410.2,-140.08 399.61,-140.14 407.92,-146.7 410.2,-140.08"/>
</a>
</g>
</g>
<!-- Node24 -->
<g id="Node000024" class="node">
<title>Node24</title>
<g id="a_Node000024"><a xlink:title=" ">
<polygon fill="#e0e0e0" stroke="#999999" points="510.5,-140 472.5,-140 472.5,-121 510.5,-121 510.5,-140"/>
<text text-anchor="middle" x="491.5" y="-128" font-family="Helvetica,sans-Serif" font-size="10.00">map</text>
</a>
</g>
</g>
<!-- Node23&#45;&gt;Node24 -->
<g id="edge31_Node000023_Node000024" class="edge">
<title>Node23&#45;&gt;Node24</title>
<g id="a_edge31_Node000023_Node000024"><a xlink:title=" ">
<path fill="none" stroke="#63b8ff" d="M531.67,-175.84C523.98,-167.35 514.17,-156.52 506.17,-147.69"/>
<polygon fill="#63b8ff" stroke="#63b8ff" points="508.75,-145.33 499.44,-140.27 503.56,-150.03 508.75,-145.33"/>
</a>
</g>
</g>
<!-- Node25 -->
<g id="Node000025" class="node">
<title>Node25</title>
<g id="a_Node000025"><a xlink:title=" ">
<polygon fill="#e0e0e0" stroke="#999999" points="578.5,-140 528.5,-140 528.5,-121 578.5,-121 578.5,-140"/>
<text text-anchor="middle" x="553.5" y="-128" font-family="Helvetica,sans-Serif" font-size="10.00">format</text>
</a>
</g>
</g>
<!-- Node23&#45;&gt;Node25 -->
<g id="edge33_Node000023_Node000025" class="edge">
<title>Node23&#45;&gt;Node25</title>
<g id="a_edge33_Node000023_Node000025"><a xlink:title=" ">
<path fill="none" stroke="#63b8ff" d="M546.68,-175.84C547.87,-168.13 549.35,-158.49 550.63,-150.17"/>
<polygon fill="#63b8ff" stroke="#63b8ff" points="554.09,-150.68 552.15,-140.27 547.17,-149.62 554.09,-150.68"/>
</a>
</g>
</g>
</g>
</svg>
