<?xml version="1.0" encoding="UTF-8" standalone="no"?>
<!DOCTYPE svg PUBLIC "-//W3C//DTD SVG 1.1//EN"
 "http://www.w3.org/Graphics/SVG/1.1/DTD/svg11.dtd">
<!-- Generated by graphviz version 2.43.0 (0)
 -->
<!-- Title: include/element_parameters/mexican_hat_kernel_parameters.h Pages: 1 -->
<svg width="833pt" height="269pt"
 viewBox="0.00 0.00 832.50 269.00" xmlns="http://www.w3.org/2000/svg" xmlns:xlink="http://www.w3.org/1999/xlink">
<g id="graph0" class="graph" transform="scale(1 1) rotate(0) translate(4 265)">
<title>include/element_parameters/mexican_hat_kernel_parameters.h</title>
<!-- Node1 -->
<g id="Node000001" class="node">
<title>Node1</title>
<g id="a_Node000001"><a xlink:title=" ">
<polygon fill="#999999" stroke="#666666" points="188,-261 0,-261 0,-231 188,-231 188,-261"/>
<text text-anchor="start" x="8" y="-249" font-family="Helvetica,sans-Serif" font-size="10.00">include/element_parameters</text>
<text text-anchor="middle" x="94" y="-238" font-family="Helvetica,sans-Serif" font-size="10.00">/mexican_hat_kernel_parameters.h</text>
</a>
</g>
</g>
<!-- Node2 -->
<g id="Node000002" class="node">
<title>Node2</title>
<g id="a_Node000002"><a xlink:href="element__parameters_8h.html" target="_top" xlink:title=" ">
<polygon fill="white" stroke="#666666" points="158,-195 30,-195 30,-176 158,-176 158,-195"/>
<text text-anchor="middle" x="94" y="-183" font-family="Helvetica,sans-Serif" font-size="10.00">element_parameters.h</text>
</a>
</g>
</g>
<!-- Node1&#45;&gt;Node2 -->
<g id="edge1_Node000001_Node000002" class="edge">
<title>Node1&#45;&gt;Node2</title>
<g id="a_edge1_Node000001_Node000002"><a xlink:title=" ">
<path fill="none" stroke="#63b8ff" d="M94,-230.84C94,-223.21 94,-213.7 94,-205.45"/>
<polygon fill="#63b8ff" stroke="#63b8ff" points="97.5,-205.27 94,-195.27 90.5,-205.27 97.5,-205.27"/>
</a>
</g>
</g>
<!-- Node3 -->
<g id="Node000003" class="node">
<title>Node3</title>
<g id="a_Node000003"><a xlink:title=" ">
<polygon fill="#e0e0e0" stroke="#999999" points="40,-140 2,-140 2,-121 40,-121 40,-140"/>
<text text-anchor="middle" x="21" y="-128" font-family="Helvetica,sans-Serif" font-size="10.00">map</text>
</a>
</g>
</g>
<!-- Node2&#45;&gt;Node3 -->
<g id="edge2_Node000002_Node000003" class="edge">
<title>Node2&#45;&gt;Node3</title>
<g id="a_edge2_Node000002_Node000003"><a xlink:title=" ">
<path fill="none" stroke="#63b8ff" d="M82.27,-175.98C71.27,-168 54.58,-155.88 41.4,-146.31"/>
<polygon fill="#63b8ff" stroke="#63b8ff" points="43.09,-143.21 32.94,-140.17 38.98,-148.88 43.09,-143.21"/>
</a>
</g>
</g>
<!-- Node4 -->
<g id="Node000004" class="node">
<title>Node4</title>
<g id="a_Node000004"><a xlink:title=" ">
<polygon fill="#e0e0e0" stroke="#999999" points="382,-19 338,-19 338,0 382,0 382,-19"/>
<text text-anchor="middle" x="360" y="-7" font-family="Helvetica,sans-Serif" font-size="10.00">string</text>
</a>
</g>
</g>
<!-- Node2&#45;&gt;Node4 -->
<g id="edge3_Node000002_Node000004" class="edge">
<title>Node2&#45;&gt;Node4</title>
<g id="a_edge3_Node000002_Node000004"><a xlink:title=" ">
<path fill="none" stroke="#63b8ff" d="M90.01,-175.99C80.02,-153.26 56.81,-90.51 87,-55 102.46,-36.81 258.64,-20.03 327.58,-13.44"/>
<polygon fill="#63b8ff" stroke="#63b8ff" points="328.24,-16.9 337.86,-12.47 327.58,-9.93 328.24,-16.9"/>
</a>
</g>
</g>
<!-- Node5 -->
<g id="Node000005" class="node">
<title>Node5</title>
<g id="a_Node000005"><a xlink:title=" ">
<polygon fill="#e0e0e0" stroke="#999999" points="146,-140 96,-140 96,-121 146,-121 146,-140"/>
<text text-anchor="middle" x="121" y="-128" font-family="Helvetica,sans-Serif" font-size="10.00">format</text>
</a>
</g>
</g>
<!-- Node2&#45;&gt;Node5 -->
<g id="edge4_Node000002_Node000005" class="edge">
<title>Node2&#45;&gt;Node5</title>
<g id="a_edge4_Node000002_Node000005"><a xlink:title=" ">
<path fill="none" stroke="#63b8ff" d="M98.46,-175.75C102.12,-168.57 107.41,-158.18 111.95,-149.27"/>
<polygon fill="#63b8ff" stroke="#63b8ff" points="115.2,-150.59 116.62,-140.09 108.97,-147.41 115.2,-150.59"/>
</a>
</g>
</g>
<!-- Node6 -->
<g id="Node000006" class="node">
<title>Node6</title>
<g id="a_Node000006"><a xlink:href="logger_8h.html" target="_top" xlink:title=" ">
<polygon fill="white" stroke="#666666" points="454.5,-140 371.5,-140 371.5,-121 454.5,-121 454.5,-140"/>
<text text-anchor="middle" x="413" y="-128" font-family="Helvetica,sans-Serif" font-size="10.00">tools/logger.h</text>
</a>
</g>
</g>
<!-- Node2&#45;&gt;Node6 -->
<g id="edge5_Node000002_Node000006" class="edge">
<title>Node2&#45;&gt;Node6</title>
<g id="a_edge5_Node000002_Node000006"><a xlink:title=" ">
<path fill="none" stroke="#63b8ff" d="M145.25,-175.98C204.52,-166.14 301.55,-150.02 361.1,-140.12"/>
<polygon fill="#63b8ff" stroke="#63b8ff" points="361.75,-143.56 371.04,-138.47 360.6,-136.66 361.75,-143.56"/>
</a>
</g>
</g>
<!-- Node6&#45;&gt;Node4 -->
<g id="edge7_Node000006_Node000004" class="edge">
<title>Node6&#45;&gt;Node4</title>
<g id="a_edge7_Node000006_Node000004"><a xlink:title=" ">
<path fill="none" stroke="#63b8ff" d="M419.82,-120.72C430.17,-106.25 447.41,-76.8 435,-55 425.69,-38.66 407.76,-27.7 391.76,-20.74"/>
<polygon fill="#63b8ff" stroke="#63b8ff" points="392.73,-17.36 382.15,-16.92 390.15,-23.87 392.73,-17.36"/>
</a>
</g>
</g>
<!-- Node7 -->
<g id="Node000007" class="node">
<title>Node7</title>
<g id="a_Node000007"><a xlink:title=" ">
<polygon fill="#e0e0e0" stroke="#999999" points="542,-79.5 482,-79.5 482,-60.5 542,-60.5 542,-79.5"/>
<text text-anchor="middle" x="512" y="-67.5" font-family="Helvetica,sans-Serif" font-size="10.00">iostream</text>
</a>
</g>
</g>
<!-- Node6&#45;&gt;Node7 -->
<g id="edge6_Node000006_Node000007" class="edge">
<title>Node6&#45;&gt;Node7</title>
<g id="a_edge6_Node000006_Node000007"><a xlink:title=" ">
<path fill="none" stroke="#63b8ff" d="M427.61,-120.87C443.69,-111.36 469.78,-95.95 488.7,-84.77"/>
<polygon fill="#63b8ff" stroke="#63b8ff" points="490.5,-87.77 497.33,-79.67 486.94,-81.74 490.5,-87.77"/>
</a>
</g>
</g>
<!-- Node8 -->
<g id="Node000008" class="node">
<title>Node8</title>
<g id="a_Node000008"><a xlink:title=" ">
<polygon fill="#e0e0e0" stroke="#999999" points="540,-19 490,-19 490,0 540,0 540,-19"/>
<text text-anchor="middle" x="515" y="-7" font-family="Helvetica,sans-Serif" font-size="10.00">chrono</text>
</a>
</g>
</g>
<!-- Node6&#45;&gt;Node8 -->
<g id="edge8_Node000006_Node000008" class="edge">
<title>Node6&#45;&gt;Node8</title>
<g id="a_edge8_Node000006_Node000008"><a xlink:title=" ">
<path fill="none" stroke="#63b8ff" d="M454.58,-128.47C486.66,-125.22 529.14,-115.01 551,-85 564.39,-66.61 547.43,-42.46 532.55,-26.71"/>
<polygon fill="#63b8ff" stroke="#63b8ff" points="534.69,-23.9 525.13,-19.32 529.75,-28.86 534.69,-23.9"/>
</a>
</g>
</g>
<!-- Node9 -->
<g id="Node000009" class="node">
<title>Node9</title>
<g id="a_Node000009"><a xlink:title=" ">
<polygon fill="#e0e0e0" stroke="#999999" points="300,-79.5 244,-79.5 244,-60.5 300,-60.5 300,-79.5"/>
<text text-anchor="middle" x="272" y="-67.5" font-family="Helvetica,sans-Serif" font-size="10.00">iomanip</text>
</a>
</g>
</g>
<!-- Node6&#45;&gt;Node9 -->
<g id="edge9_Node000006_Node000009" class="edge">
<title>Node6&#45;&gt;Node9</title>
<g id="a_edge9_Node000006_Node000009"><a xlink:title=" ">
<path fill="none" stroke="#63b8ff" d="M392.5,-120.99C368.69,-111.12 329.21,-94.73 301.96,-83.43"/>
<polygon fill="#63b8ff" stroke="#63b8ff" points="303.11,-80.12 292.53,-79.52 300.42,-86.58 303.11,-80.12"/>
</a>
</g>
</g>
<!-- Node10 -->
<g id="Node000010" class="node">
<title>Node10</title>
<g id="a_Node000010"><a xlink:title=" ">
<polygon fill="#e0e0e0" stroke="#999999" points="425.5,-85 318.5,-85 318.5,-55 425.5,-55 425.5,-85"/>
<text text-anchor="start" x="326.5" y="-73" font-family="Helvetica,sans-Serif" font-size="10.00">imgui&#45;platform&#45;kit</text>
<text text-anchor="middle" x="372" y="-62" font-family="Helvetica,sans-Serif" font-size="10.00">/log_window.h</text>
</a>
</g>
</g>
<!-- Node6&#45;&gt;Node10 -->
<g id="edge10_Node000006_Node000010" class="edge">
<title>Node6&#45;&gt;Node10</title>
<g id="a_edge10_Node000006_Node000010"><a xlink:title=" ">
<path fill="none" stroke="#63b8ff" d="M406.95,-120.87C401.9,-113.67 394.48,-103.07 387.76,-93.49"/>
<polygon fill="#63b8ff" stroke="#63b8ff" points="390.5,-91.29 381.89,-85.11 384.77,-95.31 390.5,-91.29"/>
</a>
</g>
</g>
<!-- Node11 -->
<g id="Node000011" class="node">
<title>Node11</title>
<g id="a_Node000011"><a xlink:href="exception_8h.html" target="_top" xlink:title=" ">
<polygon fill="white" stroke="#666666" points="226,-79.5 96,-79.5 96,-60.5 226,-60.5 226,-79.5"/>
<text text-anchor="middle" x="161" y="-67.5" font-family="Helvetica,sans-Serif" font-size="10.00">exceptions/exception.h</text>
</a>
</g>
</g>
<!-- Node6&#45;&gt;Node11 -->
<g id="edge11_Node000006_Node000011" class="edge">
<title>Node6&#45;&gt;Node11</title>
<g id="a_edge11_Node000006_Node000011"><a xlink:title=" ">
<path fill="none" stroke="#63b8ff" d="M376.36,-120.99C331.75,-110.64 256.37,-93.14 207.66,-81.83"/>
<polygon fill="#63b8ff" stroke="#63b8ff" points="208.22,-78.37 197.69,-79.52 206.64,-85.19 208.22,-78.37"/>
</a>
</g>
</g>
<!-- Node13 -->
<g id="Node000013" class="node">
<title>Node13</title>
<g id="a_Node000013"><a xlink:href="utils_8h.html" target="_top" xlink:title=" ">
<polygon fill="white" stroke="#666666" points="645.5,-79.5 598.5,-79.5 598.5,-60.5 645.5,-60.5 645.5,-79.5"/>
<text text-anchor="middle" x="622" y="-67.5" font-family="Helvetica,sans-Serif" font-size="10.00">utils.h</text>
</a>
</g>
</g>
<!-- Node6&#45;&gt;Node13 -->
<g id="edge14_Node000006_Node000013" class="edge">
<title>Node6&#45;&gt;Node13</title>
<g id="a_edge14_Node000006_Node000013"><a xlink:title=" ">
<path fill="none" stroke="#63b8ff" d="M449.99,-120.99C484.83,-112.71 538.34,-99.32 584,-85 586.13,-84.33 588.31,-83.62 590.5,-82.87"/>
<polygon fill="#63b8ff" stroke="#63b8ff" points="591.76,-86.14 600.02,-79.51 589.43,-79.54 591.76,-86.14"/>
</a>
</g>
</g>
<!-- Node11&#45;&gt;Node4 -->
<g id="edge13_Node000011_Node000004" class="edge">
<title>Node11&#45;&gt;Node4</title>
<g id="a_edge13_Node000011_Node000004"><a xlink:title=" ">
<path fill="none" stroke="#63b8ff" d="M189.94,-60.49C226.59,-49.72 289.57,-31.21 327.74,-19.98"/>
<polygon fill="#63b8ff" stroke="#63b8ff" points="329.2,-23.2 337.8,-17.03 327.22,-16.49 329.2,-23.2"/>
</a>
</g>
</g>
<!-- Node12 -->
<g id="Node000012" class="node">
<title>Node12</title>
<g id="a_Node000012"><a xlink:title=" ">
<polygon fill="#e0e0e0" stroke="#999999" points="193.5,-19 128.5,-19 128.5,0 193.5,0 193.5,-19"/>
<text text-anchor="middle" x="161" y="-7" font-family="Helvetica,sans-Serif" font-size="10.00">exception</text>
</a>
</g>
</g>
<!-- Node11&#45;&gt;Node12 -->
<g id="edge12_Node000011_Node000012" class="edge">
<title>Node11&#45;&gt;Node12</title>
<g id="a_edge12_Node000011_Node000012"><a xlink:title=" ">
<path fill="none" stroke="#63b8ff" d="M161,-60.37C161,-52.25 161,-39.81 161,-29.39"/>
<polygon fill="#63b8ff" stroke="#63b8ff" points="164.5,-29.17 161,-19.17 157.5,-29.17 164.5,-29.17"/>
</a>
</g>
</g>
<!-- Node13&#45;&gt;Node4 -->
<g id="edge15_Node000013_Node000004" class="edge">
<title>Node13&#45;&gt;Node4</title>
<g id="a_edge15_Node000013_Node000004"><a xlink:title=" ">
<path fill="none" stroke="#63b8ff" d="M598.29,-63.71C551.17,-53.18 445.71,-29.64 392.31,-17.71"/>
<polygon fill="#63b8ff" stroke="#63b8ff" points="392.88,-14.25 382.35,-15.49 391.35,-21.09 392.88,-14.25"/>
</a>
</g>
</g>
<!-- Node13&#45;&gt;Node8 -->
<g id="edge20_Node000013_Node000008" class="edge">
<title>Node13&#45;&gt;Node8</title>
<g id="a_edge20_Node000013_Node000008"><a xlink:title=" ">
<path fill="none" stroke="#63b8ff" d="M606.21,-60.37C588.67,-50.78 560.12,-35.17 539.63,-23.97"/>
<polygon fill="#63b8ff" stroke="#63b8ff" points="541.31,-20.89 530.85,-19.17 537.95,-27.04 541.31,-20.89"/>
</a>
</g>
</g>
<!-- Node14 -->
<g id="Node000014" class="node">
<title>Node14</title>
<g id="a_Node000014"><a xlink:title=" ">
<polygon fill="#e0e0e0" stroke="#999999" points="824.5,-19 777.5,-19 777.5,0 824.5,0 824.5,-19"/>
<text text-anchor="middle" x="801" y="-7" font-family="Helvetica,sans-Serif" font-size="10.00">vector</text>
</a>
</g>
</g>
<!-- Node13&#45;&gt;Node14 -->
<g id="edge16_Node000013_Node000014" class="edge">
<title>Node13&#45;&gt;Node14</title>
<g id="a_edge16_Node000013_Node000014"><a xlink:title=" ">
<path fill="none" stroke="#63b8ff" d="M645.77,-61.23C677.02,-51.02 732.09,-33.02 767.53,-21.44"/>
<polygon fill="#63b8ff" stroke="#63b8ff" points="769,-24.64 777.42,-18.21 766.82,-17.99 769,-24.64"/>
</a>
</g>
</g>
<!-- Node15 -->
<g id="Node000015" class="node">
<title>Node15</title>
<g id="a_Node000015"><a xlink:title=" ">
<polygon fill="#e0e0e0" stroke="#999999" points="612,-19 558,-19 558,0 612,0 612,-19"/>
<text text-anchor="middle" x="585" y="-7" font-family="Helvetica,sans-Serif" font-size="10.00">random</text>
</a>
</g>
</g>
<!-- Node13&#45;&gt;Node15 -->
<g id="edge17_Node000013_Node000015" class="edge">
<title>Node13&#45;&gt;Node15</title>
<g id="a_edge17_Node000013_Node000015"><a xlink:title=" ">
<path fill="none" stroke="#63b8ff" d="M616.54,-60.37C611.13,-51.81 602.69,-38.47 595.9,-27.74"/>
<polygon fill="#63b8ff" stroke="#63b8ff" points="598.79,-25.75 590.48,-19.17 592.87,-29.49 598.79,-25.75"/>
</a>
</g>
</g>
<!-- Node16 -->
<g id="Node000016" class="node">
<title>Node16</title>
<g id="a_Node000016"><a xlink:title=" ">
<polygon fill="#e0e0e0" stroke="#999999" points="686,-19 630,-19 630,0 686,0 686,-19"/>
<text text-anchor="middle" x="658" y="-7" font-family="Helvetica,sans-Serif" font-size="10.00">sstream</text>
</a>
</g>
</g>
<!-- Node13&#45;&gt;Node16 -->
<g id="edge18_Node000013_Node000016" class="edge">
<title>Node13&#45;&gt;Node16</title>
<g id="a_edge18_Node000013_Node000016"><a xlink:title=" ">
<path fill="none" stroke="#63b8ff" d="M627.31,-60.37C632.58,-51.81 640.79,-38.47 647.39,-27.74"/>
<polygon fill="#63b8ff" stroke="#63b8ff" points="650.41,-29.52 652.67,-19.17 644.44,-25.85 650.41,-29.52"/>
</a>
</g>
</g>
<!-- Node17 -->
<g id="Node000017" class="node">
<title>Node17</title>
<g id="a_Node000017"><a xlink:title=" ">
<polygon fill="#e0e0e0" stroke="#999999" points="759.5,-19 704.5,-19 704.5,0 759.5,0 759.5,-19"/>
<text text-anchor="middle" x="732" y="-7" font-family="Helvetica,sans-Serif" font-size="10.00">fstream</text>
</a>
</g>
</g>
<!-- Node13&#45;&gt;Node17 -->
<g id="edge19_Node000013_Node000017" class="edge">
<title>Node13&#45;&gt;Node17</title>
<g id="a_edge19_Node000013_Node000017"><a xlink:title=" ">
<path fill="none" stroke="#63b8ff" d="M638.23,-60.37C656.27,-50.78 685.62,-35.17 706.68,-23.97"/>
<polygon fill="#63b8ff" stroke="#63b8ff" points="708.52,-26.95 715.7,-19.17 705.23,-20.77 708.52,-26.95"/>
</a>
</g>
</g>
</g>
</svg>
