<?xml version="1.0" encoding="UTF-8" standalone="no"?>
<!DOCTYPE svg PUBLIC "-//W3C//DTD SVG 1.1//EN"
 "http://www.w3.org/Graphics/SVG/1.1/DTD/svg11.dtd">
<!-- Generated by graphviz version 2.43.0 (0)
 -->
<!-- Title: include/elements/mexican_hat_kernel.h Pages: 1 -->
<svg width="1244pt" height="390pt"
 viewBox="0.00 0.00 1244.00 390.00" xmlns="http://www.w3.org/2000/svg" xmlns:xlink="http://www.w3.org/1999/xlink">
<g id="graph0" class="graph" transform="scale(1 1) rotate(0) translate(4 386)">
<title>include/elements/mexican_hat_kernel.h</title>
<!-- Node1 -->
<g id="Node000001" class="node">
<title>Node1</title>
<g id="a_Node000001"><a xlink:title=" ">
<polygon fill="#999999" stroke="#666666" points="889,-382 743,-382 743,-352 889,-352 889,-382"/>
<text text-anchor="start" x="751" y="-370" font-family="Helvetica,sans-Serif" font-size="10.00">include/elements/mexican</text>
<text text-anchor="middle" x="816" y="-359" font-family="Helvetica,sans-Serif" font-size="10.00">_hat_kernel.h</text>
</a>
</g>
</g>
<!-- Node2 -->
<g id="Node000002" class="node">
<title>Node2</title>
<g id="a_Node000002"><a xlink:title=" ">
<polygon fill="#e0e0e0" stroke="#999999" points="1037.5,-19 990.5,-19 990.5,0 1037.5,0 1037.5,-19"/>
<text text-anchor="middle" x="1014" y="-7" font-family="Helvetica,sans-Serif" font-size="10.00">vector</text>
</a>
</g>
</g>
<!-- Node1&#45;&gt;Node2 -->
<g id="edge1_Node000001_Node000002" class="edge">
<title>Node1&#45;&gt;Node2</title>
<g id="a_edge1_Node000001_Node000002"><a xlink:title=" ">
<path fill="none" stroke="#63b8ff" d="M889.32,-356.26C988.19,-341.05 1152,-307.53 1152,-252.5 1152,-252.5 1152,-252.5 1152,-129.5 1152,-74.29 1087.87,-39.05 1047.05,-22.22"/>
<polygon fill="#63b8ff" stroke="#63b8ff" points="1048.31,-18.95 1037.72,-18.52 1045.73,-25.46 1048.31,-18.95"/>
</a>
</g>
</g>
<!-- Node3 -->
<g id="Node000003" class="node">
<title>Node3</title>
<g id="a_Node000003"><a xlink:title=" ">
<polygon fill="#e0e0e0" stroke="#999999" points="219,-19 175,-19 175,0 219,0 219,-19"/>
<text text-anchor="middle" x="197" y="-7" font-family="Helvetica,sans-Serif" font-size="10.00">string</text>
</a>
</g>
</g>
<!-- Node1&#45;&gt;Node3 -->
<g id="edge2_Node000001_Node000003" class="edge">
<title>Node1&#45;&gt;Node3</title>
<g id="a_edge2_Node000001_Node000003"><a xlink:title=" ">
<path fill="none" stroke="#63b8ff" d="M742.87,-363.46C542.58,-355.52 0,-327.14 0,-252.5 0,-252.5 0,-252.5 0,-129.5 0,-53.49 108.79,-24.73 164.68,-14.98"/>
<polygon fill="#63b8ff" stroke="#63b8ff" points="165.48,-18.39 174.78,-13.32 164.35,-11.48 165.48,-18.39"/>
</a>
</g>
</g>
<!-- Node4 -->
<g id="Node000004" class="node">
<title>Node4</title>
<g id="a_Node000004"><a xlink:title=" ">
<polygon fill="#e0e0e0" stroke="#999999" points="784,-200.5 742,-200.5 742,-181.5 784,-181.5 784,-200.5"/>
<text text-anchor="middle" x="763" y="-188.5" font-family="Helvetica,sans-Serif" font-size="10.00">array</text>
</a>
</g>
</g>
<!-- Node1&#45;&gt;Node4 -->
<g id="edge3_Node000001_Node000004" class="edge">
<title>Node1&#45;&gt;Node4</title>
<g id="a_edge3_Node000001_Node000004"><a xlink:title=" ">
<path fill="none" stroke="#63b8ff" d="M811.66,-351.76C802.11,-320.41 779.28,-245.46 768.64,-210.52"/>
<polygon fill="#63b8ff" stroke="#63b8ff" points="771.91,-209.23 765.65,-200.68 765.21,-211.27 771.91,-209.23"/>
</a>
</g>
</g>
<!-- Node5 -->
<g id="Node000005" class="node">
<title>Node5</title>
<g id="a_Node000005"><a xlink:title=" ">
<polygon fill="#e0e0e0" stroke="#999999" points="1236,-316 1180,-316 1180,-297 1236,-297 1236,-316"/>
<text text-anchor="middle" x="1208" y="-304" font-family="Helvetica,sans-Serif" font-size="10.00">optional</text>
</a>
</g>
</g>
<!-- Node1&#45;&gt;Node5 -->
<g id="edge4_Node000001_Node000005" class="edge">
<title>Node1&#45;&gt;Node5</title>
<g id="a_edge4_Node000001_Node000005"><a xlink:title=" ">
<path fill="none" stroke="#63b8ff" d="M889.26,-356.79C960.21,-347.57 1070.73,-332.43 1166,-316 1167.1,-315.81 1168.21,-315.61 1169.34,-315.41"/>
<polygon fill="#63b8ff" stroke="#63b8ff" points="1170.4,-318.77 1179.58,-313.48 1169.1,-311.9 1170.4,-318.77"/>
</a>
</g>
</g>
<!-- Node6 -->
<g id="Node000006" class="node">
<title>Node6</title>
<g id="a_Node000006"><a xlink:href="kernel_8h.html" target="_top" xlink:title=" ">
<polygon fill="white" stroke="#666666" points="755,-316 699,-316 699,-297 755,-297 755,-316"/>
<text text-anchor="middle" x="727" y="-304" font-family="Helvetica,sans-Serif" font-size="10.00">kernel.h</text>
</a>
</g>
</g>
<!-- Node1&#45;&gt;Node6 -->
<g id="edge5_Node000001_Node000006" class="edge">
<title>Node1&#45;&gt;Node6</title>
<g id="a_edge5_Node000001_Node000006"><a xlink:title=" ">
<path fill="none" stroke="#63b8ff" d="M794.46,-351.84C780.53,-342.68 762.47,-330.82 748.55,-321.66"/>
<polygon fill="#63b8ff" stroke="#63b8ff" points="750.35,-318.66 740.08,-316.09 746.51,-324.51 750.35,-318.66"/>
</a>
</g>
</g>
<!-- Node27 -->
<g id="Node000027" class="node">
<title>Node27</title>
<g id="a_Node000027"><a xlink:href="math_8h.html" target="_top" xlink:title=" ">
<polygon fill="white" stroke="#666666" points="889,-261 811,-261 811,-242 889,-242 889,-261"/>
<text text-anchor="middle" x="850" y="-249" font-family="Helvetica,sans-Serif" font-size="10.00">tools/math.h</text>
</a>
</g>
</g>
<!-- Node1&#45;&gt;Node27 -->
<g id="edge37_Node000001_Node000027" class="edge">
<title>Node1&#45;&gt;Node27</title>
<g id="a_edge37_Node000001_Node000027"><a xlink:title=" ">
<path fill="none" stroke="#63b8ff" d="M820.31,-351.63C826.45,-331.12 837.73,-293.47 844.48,-270.93"/>
<polygon fill="#63b8ff" stroke="#63b8ff" points="847.87,-271.81 847.39,-261.23 841.16,-269.8 847.87,-271.81"/>
</a>
</g>
</g>
<!-- Node6&#45;&gt;Node4 -->
<g id="edge36_Node000006_Node000004" class="edge">
<title>Node6&#45;&gt;Node4</title>
<g id="a_edge36_Node000006_Node000004"><a xlink:title=" ">
<path fill="none" stroke="#63b8ff" d="M729.71,-296.97C735.52,-278.65 749.3,-235.18 757.19,-210.31"/>
<polygon fill="#63b8ff" stroke="#63b8ff" points="760.58,-211.22 760.26,-200.63 753.9,-209.1 760.58,-211.22"/>
</a>
</g>
</g>
<!-- Node7 -->
<g id="Node000007" class="node">
<title>Node7</title>
<g id="a_Node000007"><a xlink:href="element_8h.html" target="_top" xlink:title=" ">
<polygon fill="white" stroke="#666666" points="466,-261 400,-261 400,-242 466,-242 466,-261"/>
<text text-anchor="middle" x="433" y="-249" font-family="Helvetica,sans-Serif" font-size="10.00">element.h</text>
</a>
</g>
</g>
<!-- Node6&#45;&gt;Node7 -->
<g id="edge6_Node000006_Node000007" class="edge">
<title>Node6&#45;&gt;Node7</title>
<g id="a_edge6_Node000006_Node000007"><a xlink:title=" ">
<path fill="none" stroke="#63b8ff" d="M698.81,-300.42C647.18,-291.11 537.16,-271.28 476.09,-260.27"/>
<polygon fill="#63b8ff" stroke="#63b8ff" points="476.47,-256.78 466,-258.45 475.22,-263.67 476.47,-256.78"/>
</a>
</g>
</g>
<!-- Node7&#45;&gt;Node2 -->
<g id="edge7_Node000007_Node000002" class="edge">
<title>Node7&#45;&gt;Node2</title>
<g id="a_edge7_Node000007_Node000002"><a xlink:title=" ">
<path fill="none" stroke="#63b8ff" d="M458.77,-241.91C480.83,-234.04 513.04,-221.31 539,-206 557.53,-195.07 558.27,-186.6 577,-176 717.92,-96.22 904.77,-40.23 980.24,-19.44"/>
<polygon fill="#63b8ff" stroke="#63b8ff" points="981.41,-22.75 990.14,-16.74 979.57,-16 981.41,-22.75"/>
</a>
</g>
</g>
<!-- Node7&#45;&gt;Node3 -->
<g id="edge8_Node000007_Node000003" class="edge">
<title>Node7&#45;&gt;Node3</title>
<g id="a_edge8_Node000007_Node000003"><a xlink:title=" ">
<path fill="none" stroke="#63b8ff" d="M399.75,-249.04C312.05,-244.86 79.62,-231.46 57,-206 30.02,-175.63 4.64,-145.64 81,-55 101.98,-30.1 138.55,-19.09 165.04,-14.25"/>
<polygon fill="#63b8ff" stroke="#63b8ff" points="165.68,-17.69 174.99,-12.63 164.55,-10.78 165.68,-17.69"/>
</a>
</g>
</g>
<!-- Node8 -->
<g id="Node000008" class="node">
<title>Node8</title>
<g id="a_Node000008"><a xlink:title=" ">
<polygon fill="#e0e0e0" stroke="#999999" points="347.5,-200.5 254.5,-200.5 254.5,-181.5 347.5,-181.5 347.5,-200.5"/>
<text text-anchor="middle" x="301" y="-188.5" font-family="Helvetica,sans-Serif" font-size="10.00">unordered_map</text>
</a>
</g>
</g>
<!-- Node7&#45;&gt;Node8 -->
<g id="edge9_Node000007_Node000008" class="edge">
<title>Node7&#45;&gt;Node8</title>
<g id="a_edge9_Node000007_Node000008"><a xlink:title=" ">
<path fill="none" stroke="#63b8ff" d="M413.81,-241.99C391.61,-232.16 354.88,-215.88 329.38,-204.58"/>
<polygon fill="#63b8ff" stroke="#63b8ff" points="330.78,-201.37 320.22,-200.52 327.94,-207.77 330.78,-201.37"/>
</a>
</g>
</g>
<!-- Node9 -->
<g id="Node000009" class="node">
<title>Node9</title>
<g id="a_Node000009"><a xlink:title=" ">
<polygon fill="#e0e0e0" stroke="#999999" points="462,-200.5 404,-200.5 404,-181.5 462,-181.5 462,-200.5"/>
<text text-anchor="middle" x="433" y="-188.5" font-family="Helvetica,sans-Serif" font-size="10.00">memory</text>
</a>
</g>
</g>
<!-- Node7&#45;&gt;Node9 -->
<g id="edge10_Node000007_Node000009" class="edge">
<title>Node7&#45;&gt;Node9</title>
<g id="a_edge10_Node000007_Node000009"><a xlink:title=" ">
<path fill="none" stroke="#63b8ff" d="M433,-241.87C433,-233.75 433,-221.31 433,-210.89"/>
<polygon fill="#63b8ff" stroke="#63b8ff" points="436.5,-210.67 433,-200.67 429.5,-210.67 436.5,-210.67"/>
</a>
</g>
</g>
<!-- Node10 -->
<g id="Node000010" class="node">
<title>Node10</title>
<g id="a_Node000010"><a xlink:title=" ">
<polygon fill="#e0e0e0" stroke="#999999" points="530,-200.5 480,-200.5 480,-181.5 530,-181.5 530,-200.5"/>
<text text-anchor="middle" x="505" y="-188.5" font-family="Helvetica,sans-Serif" font-size="10.00">ranges</text>
</a>
</g>
</g>
<!-- Node7&#45;&gt;Node10 -->
<g id="edge11_Node000007_Node000010" class="edge">
<title>Node7&#45;&gt;Node10</title>
<g id="a_edge11_Node000007_Node000010"><a xlink:title=" ">
<path fill="none" stroke="#63b8ff" d="M443.62,-241.87C454.9,-232.71 472.92,-218.06 486.53,-207.01"/>
<polygon fill="#63b8ff" stroke="#63b8ff" points="488.78,-209.69 494.33,-200.67 484.36,-204.26 488.78,-209.69"/>
</a>
</g>
</g>
<!-- Node11 -->
<g id="Node000011" class="node">
<title>Node11</title>
<g id="a_Node000011"><a xlink:title=" ">
<polygon fill="#e0e0e0" stroke="#999999" points="724,-200.5 660,-200.5 660,-181.5 724,-181.5 724,-200.5"/>
<text text-anchor="middle" x="692" y="-188.5" font-family="Helvetica,sans-Serif" font-size="10.00">algorithm</text>
</a>
</g>
</g>
<!-- Node7&#45;&gt;Node11 -->
<g id="edge12_Node000007_Node000011" class="edge">
<title>Node7&#45;&gt;Node11</title>
<g id="a_edge12_Node000007_Node000011"><a xlink:title=" ">
<path fill="none" stroke="#63b8ff" d="M466.18,-245.09C509.18,-237.76 586.32,-223.57 651,-206 653.63,-205.29 656.34,-204.49 659.05,-203.66"/>
<polygon fill="#63b8ff" stroke="#63b8ff" points="660.31,-206.93 668.74,-200.52 658.15,-200.27 660.31,-206.93"/>
</a>
</g>
</g>
<!-- Node12 -->
<g id="Node000012" class="node">
<title>Node12</title>
<g id="a_Node000012"><a xlink:title=" ">
<polygon fill="#e0e0e0" stroke="#999999" points="642,-200.5 586,-200.5 586,-181.5 642,-181.5 642,-200.5"/>
<text text-anchor="middle" x="614" y="-188.5" font-family="Helvetica,sans-Serif" font-size="10.00">numeric</text>
</a>
</g>
</g>
<!-- Node7&#45;&gt;Node12 -->
<g id="edge13_Node000007_Node000012" class="edge">
<title>Node7&#45;&gt;Node12</title>
<g id="a_edge13_Node000007_Node000012"><a xlink:title=" ">
<path fill="none" stroke="#63b8ff" d="M459.94,-241.98C487.96,-233.09 533.1,-218.71 572,-206 574.14,-205.3 576.33,-204.58 578.55,-203.85"/>
<polygon fill="#63b8ff" stroke="#63b8ff" points="579.86,-207.1 588.25,-200.64 577.66,-200.46 579.86,-207.1"/>
</a>
</g>
</g>
<!-- Node13 -->
<g id="Node000013" class="node">
<title>Node13</title>
<g id="a_Node000013"><a xlink:href="exception_8h.html" target="_top" xlink:title=" ">
<polygon fill="white" stroke="#666666" points="588,-79.5 458,-79.5 458,-60.5 588,-60.5 588,-79.5"/>
<text text-anchor="middle" x="523" y="-67.5" font-family="Helvetica,sans-Serif" font-size="10.00">exceptions/exception.h</text>
</a>
</g>
</g>
<!-- Node7&#45;&gt;Node13 -->
<g id="edge14_Node000007_Node000013" class="edge">
<title>Node7&#45;&gt;Node13</title>
<g id="a_edge14_Node000007_Node000013"><a xlink:title=" ">
<path fill="none" stroke="#63b8ff" d="M422.29,-241.93C413.07,-233.8 400.41,-220.68 395,-206 390.39,-193.49 389.3,-188.05 395,-176 415.61,-132.44 464.12,-100.9 495.15,-84.32"/>
<polygon fill="#63b8ff" stroke="#63b8ff" points="496.9,-87.36 504.17,-79.66 493.68,-81.14 496.9,-87.36"/>
</a>
</g>
</g>
<!-- Node15 -->
<g id="Node000015" class="node">
<title>Node15</title>
<g id="a_Node000015"><a xlink:href="logger_8h.html" target="_top" xlink:title=" ">
<polygon fill="white" stroke="#666666" points="347.5,-140 264.5,-140 264.5,-121 347.5,-121 347.5,-140"/>
<text text-anchor="middle" x="306" y="-128" font-family="Helvetica,sans-Serif" font-size="10.00">tools/logger.h</text>
</a>
</g>
</g>
<!-- Node7&#45;&gt;Node15 -->
<g id="edge17_Node000007_Node000015" class="edge">
<title>Node7&#45;&gt;Node15</title>
<g id="a_edge17_Node000007_Node000015"><a xlink:title=" ">
<path fill="none" stroke="#63b8ff" d="M399.88,-247.47C351.4,-242.27 264.82,-229.83 246,-206 237.73,-195.54 240.01,-187.91 246,-176 252.69,-162.71 265.44,-152.39 277.47,-145.05"/>
<polygon fill="#63b8ff" stroke="#63b8ff" points="279.42,-147.97 286.42,-140.02 275.99,-141.87 279.42,-147.97"/>
</a>
</g>
</g>
<!-- Node24 -->
<g id="Node000024" class="node">
<title>Node24</title>
<g id="a_Node000024"><a xlink:href="element__parameters_8h.html" target="_top" xlink:title=" ">
<polygon fill="white" stroke="#666666" points="197.5,-206 66.5,-206 66.5,-176 197.5,-176 197.5,-206"/>
<text text-anchor="start" x="74.5" y="-194" font-family="Helvetica,sans-Serif" font-size="10.00">element_parameters</text>
<text text-anchor="middle" x="132" y="-183" font-family="Helvetica,sans-Serif" font-size="10.00">/element_parameters.h</text>
</a>
</g>
</g>
<!-- Node7&#45;&gt;Node24 -->
<g id="edge31_Node000007_Node000024" class="edge">
<title>Node7&#45;&gt;Node24</title>
<g id="a_edge31_Node000007_Node000024"><a xlink:title=" ">
<path fill="none" stroke="#63b8ff" d="M399.93,-244.07C354,-235.15 269.58,-218.74 207.73,-206.72"/>
<polygon fill="#63b8ff" stroke="#63b8ff" points="208.11,-203.23 197.63,-204.75 206.77,-210.1 208.11,-203.23"/>
</a>
</g>
</g>
<!-- Node13&#45;&gt;Node3 -->
<g id="edge16_Node000013_Node000003" class="edge">
<title>Node13&#45;&gt;Node3</title>
<g id="a_edge16_Node000013_Node000003"><a xlink:title=" ">
<path fill="none" stroke="#63b8ff" d="M478.41,-60.47C468.72,-58.64 458.52,-56.74 449,-55 370.18,-40.59 277.34,-24.39 229.36,-16.08"/>
<polygon fill="#63b8ff" stroke="#63b8ff" points="229.72,-12.59 219.26,-14.34 228.52,-19.49 229.72,-12.59"/>
</a>
</g>
</g>
<!-- Node14 -->
<g id="Node000014" class="node">
<title>Node14</title>
<g id="a_Node000014"><a xlink:title=" ">
<polygon fill="#e0e0e0" stroke="#999999" points="555.5,-19 490.5,-19 490.5,0 555.5,0 555.5,-19"/>
<text text-anchor="middle" x="523" y="-7" font-family="Helvetica,sans-Serif" font-size="10.00">exception</text>
</a>
</g>
</g>
<!-- Node13&#45;&gt;Node14 -->
<g id="edge15_Node000013_Node000014" class="edge">
<title>Node13&#45;&gt;Node14</title>
<g id="a_edge15_Node000013_Node000014"><a xlink:title=" ">
<path fill="none" stroke="#63b8ff" d="M523,-60.37C523,-52.25 523,-39.81 523,-29.39"/>
<polygon fill="#63b8ff" stroke="#63b8ff" points="526.5,-29.17 523,-19.17 519.5,-29.17 526.5,-29.17"/>
</a>
</g>
</g>
<!-- Node15&#45;&gt;Node3 -->
<g id="edge19_Node000015_Node000003" class="edge">
<title>Node15&#45;&gt;Node3</title>
<g id="a_edge19_Node000015_Node000003"><a xlink:title=" ">
<path fill="none" stroke="#63b8ff" d="M307.81,-120.71C310.38,-105.69 313.32,-74.78 299,-55 282.72,-32.51 252.57,-21.24 229.25,-15.69"/>
<polygon fill="#63b8ff" stroke="#63b8ff" points="229.93,-12.26 219.42,-13.58 228.46,-19.1 229.93,-12.26"/>
</a>
</g>
</g>
<!-- Node15&#45;&gt;Node13 -->
<g id="edge23_Node000015_Node000013" class="edge">
<title>Node15&#45;&gt;Node13</title>
<g id="a_edge23_Node000015_Node000013"><a xlink:title=" ">
<path fill="none" stroke="#63b8ff" d="M337.55,-120.99C375.56,-110.75 439.52,-93.5 481.5,-82.19"/>
<polygon fill="#63b8ff" stroke="#63b8ff" points="482.66,-85.5 491.41,-79.52 480.84,-78.74 482.66,-85.5"/>
</a>
</g>
</g>
<!-- Node16 -->
<g id="Node000016" class="node">
<title>Node16</title>
<g id="a_Node000016"><a xlink:title=" ">
<polygon fill="#e0e0e0" stroke="#999999" points="290,-79.5 230,-79.5 230,-60.5 290,-60.5 290,-79.5"/>
<text text-anchor="middle" x="260" y="-67.5" font-family="Helvetica,sans-Serif" font-size="10.00">iostream</text>
</a>
</g>
</g>
<!-- Node15&#45;&gt;Node16 -->
<g id="edge18_Node000015_Node000016" class="edge">
<title>Node15&#45;&gt;Node16</title>
<g id="a_edge18_Node000015_Node000016"><a xlink:title=" ">
<path fill="none" stroke="#63b8ff" d="M299.21,-120.87C292.35,-112.14 281.57,-98.43 273.05,-87.59"/>
<polygon fill="#63b8ff" stroke="#63b8ff" points="275.75,-85.36 266.82,-79.67 270.25,-89.69 275.75,-85.36"/>
</a>
</g>
</g>
<!-- Node17 -->
<g id="Node000017" class="node">
<title>Node17</title>
<g id="a_Node000017"><a xlink:title=" ">
<polygon fill="#e0e0e0" stroke="#999999" points="627,-19 577,-19 577,0 627,0 627,-19"/>
<text text-anchor="middle" x="602" y="-7" font-family="Helvetica,sans-Serif" font-size="10.00">chrono</text>
</a>
</g>
</g>
<!-- Node15&#45;&gt;Node17 -->
<g id="edge20_Node000015_Node000017" class="edge">
<title>Node15&#45;&gt;Node17</title>
<g id="a_edge20_Node000015_Node000017"><a xlink:title=" ">
<path fill="none" stroke="#63b8ff" d="M311.23,-120.93C321.38,-105.1 345.38,-71.39 375,-55 450.2,-13.38 480.88,-36.62 565,-19 565.6,-18.87 566.21,-18.74 566.83,-18.61"/>
<polygon fill="#63b8ff" stroke="#63b8ff" points="567.93,-21.95 576.95,-16.39 566.43,-15.12 567.93,-21.95"/>
</a>
</g>
</g>
<!-- Node18 -->
<g id="Node000018" class="node">
<title>Node18</title>
<g id="a_Node000018"><a xlink:title=" ">
<polygon fill="#e0e0e0" stroke="#999999" points="440,-79.5 384,-79.5 384,-60.5 440,-60.5 440,-79.5"/>
<text text-anchor="middle" x="412" y="-67.5" font-family="Helvetica,sans-Serif" font-size="10.00">iomanip</text>
</a>
</g>
</g>
<!-- Node15&#45;&gt;Node18 -->
<g id="edge21_Node000015_Node000018" class="edge">
<title>Node15&#45;&gt;Node18</title>
<g id="a_edge21_Node000015_Node000018"><a xlink:title=" ">
<path fill="none" stroke="#63b8ff" d="M321.64,-120.87C338.94,-111.32 367.05,-95.81 387.33,-84.62"/>
<polygon fill="#63b8ff" stroke="#63b8ff" points="389.23,-87.56 396.3,-79.67 385.85,-81.43 389.23,-87.56"/>
</a>
</g>
</g>
<!-- Node19 -->
<g id="Node000019" class="node">
<title>Node19</title>
<g id="a_Node000019"><a xlink:title=" ">
<polygon fill="#e0e0e0" stroke="#999999" points="211.5,-85 104.5,-85 104.5,-55 211.5,-55 211.5,-85"/>
<text text-anchor="start" x="112.5" y="-73" font-family="Helvetica,sans-Serif" font-size="10.00">imgui&#45;platform&#45;kit</text>
<text text-anchor="middle" x="158" y="-62" font-family="Helvetica,sans-Serif" font-size="10.00">/log_window.h</text>
</a>
</g>
</g>
<!-- Node15&#45;&gt;Node19 -->
<g id="edge22_Node000015_Node000019" class="edge">
<title>Node15&#45;&gt;Node19</title>
<g id="a_edge22_Node000015_Node000019"><a xlink:title=" ">
<path fill="none" stroke="#63b8ff" d="M284.48,-120.99C263.27,-112.61 230.22,-99.55 203.22,-88.87"/>
<polygon fill="#63b8ff" stroke="#63b8ff" points="204.17,-85.49 193.58,-85.06 201.59,-92 204.17,-85.49"/>
</a>
</g>
</g>
<!-- Node20 -->
<g id="Node000020" class="node">
<title>Node20</title>
<g id="a_Node000020"><a xlink:href="utils_8h.html" target="_top" xlink:title=" ">
<polygon fill="white" stroke="#666666" points="712.5,-79.5 665.5,-79.5 665.5,-60.5 712.5,-60.5 712.5,-79.5"/>
<text text-anchor="middle" x="689" y="-67.5" font-family="Helvetica,sans-Serif" font-size="10.00">utils.h</text>
</a>
</g>
</g>
<!-- Node15&#45;&gt;Node20 -->
<g id="edge24_Node000015_Node000020" class="edge">
<title>Node15&#45;&gt;Node20</title>
<g id="a_edge24_Node000015_Node000020"><a xlink:title=" ">
<path fill="none" stroke="#63b8ff" d="M347.72,-123.13C424.06,-111.47 584.85,-86.91 655.03,-76.19"/>
<polygon fill="#63b8ff" stroke="#63b8ff" points="655.74,-79.62 665.1,-74.65 654.68,-72.7 655.74,-79.62"/>
</a>
</g>
</g>
<!-- Node20&#45;&gt;Node2 -->
<g id="edge26_Node000020_Node000002" class="edge">
<title>Node20&#45;&gt;Node2</title>
<g id="a_edge26_Node000020_Node000002"><a xlink:title=" ">
<path fill="none" stroke="#63b8ff" d="M712.63,-64.75C769.62,-54.49 914.74,-28.37 980.59,-16.51"/>
<polygon fill="#63b8ff" stroke="#63b8ff" points="981.23,-19.95 990.45,-14.74 979.99,-13.07 981.23,-19.95"/>
</a>
</g>
</g>
<!-- Node20&#45;&gt;Node3 -->
<g id="edge25_Node000020_Node000003" class="edge">
<title>Node20&#45;&gt;Node3</title>
<g id="a_edge25_Node000020_Node000003"><a xlink:title=" ">
<path fill="none" stroke="#63b8ff" d="M665.21,-65.11C646.66,-62.14 620.23,-58.06 597,-55 460.55,-37.04 297.29,-20.37 229.24,-13.64"/>
<polygon fill="#63b8ff" stroke="#63b8ff" points="229.45,-10.15 219.15,-12.65 228.76,-17.11 229.45,-10.15"/>
</a>
</g>
</g>
<!-- Node20&#45;&gt;Node17 -->
<g id="edge30_Node000020_Node000017" class="edge">
<title>Node20&#45;&gt;Node17</title>
<g id="a_edge30_Node000020_Node000017"><a xlink:title=" ">
<path fill="none" stroke="#63b8ff" d="M676.16,-60.37C662.28,-51.04 639.93,-36.01 623.39,-24.88"/>
<polygon fill="#63b8ff" stroke="#63b8ff" points="625.14,-21.84 614.89,-19.17 621.24,-27.65 625.14,-21.84"/>
</a>
</g>
</g>
<!-- Node21 -->
<g id="Node000021" class="node">
<title>Node21</title>
<g id="a_Node000021"><a xlink:title=" ">
<polygon fill="#e0e0e0" stroke="#999999" points="875,-19 821,-19 821,0 875,0 875,-19"/>
<text text-anchor="middle" x="848" y="-7" font-family="Helvetica,sans-Serif" font-size="10.00">random</text>
</a>
</g>
</g>
<!-- Node20&#45;&gt;Node21 -->
<g id="edge27_Node000020_Node000021" class="edge">
<title>Node20&#45;&gt;Node21</title>
<g id="a_edge27_Node000020_Node000021"><a xlink:title=" ">
<path fill="none" stroke="#63b8ff" d="M712.12,-60.49C739.32,-50.49 784.67,-33.8 815.42,-22.49"/>
<polygon fill="#63b8ff" stroke="#63b8ff" points="816.68,-25.75 824.85,-19.02 814.26,-19.18 816.68,-25.75"/>
</a>
</g>
</g>
<!-- Node22 -->
<g id="Node000022" class="node">
<title>Node22</title>
<g id="a_Node000022"><a xlink:title=" ">
<polygon fill="#e0e0e0" stroke="#999999" points="717,-19 661,-19 661,0 717,0 717,-19"/>
<text text-anchor="middle" x="689" y="-7" font-family="Helvetica,sans-Serif" font-size="10.00">sstream</text>
</a>
</g>
</g>
<!-- Node20&#45;&gt;Node22 -->
<g id="edge28_Node000020_Node000022" class="edge">
<title>Node20&#45;&gt;Node22</title>
<g id="a_edge28_Node000020_Node000022"><a xlink:title=" ">
<path fill="none" stroke="#63b8ff" d="M689,-60.37C689,-52.25 689,-39.81 689,-29.39"/>
<polygon fill="#63b8ff" stroke="#63b8ff" points="692.5,-29.17 689,-19.17 685.5,-29.17 692.5,-29.17"/>
</a>
</g>
</g>
<!-- Node23 -->
<g id="Node000023" class="node">
<title>Node23</title>
<g id="a_Node000023"><a xlink:title=" ">
<polygon fill="#e0e0e0" stroke="#999999" points="798.5,-19 743.5,-19 743.5,0 798.5,0 798.5,-19"/>
<text text-anchor="middle" x="771" y="-7" font-family="Helvetica,sans-Serif" font-size="10.00">fstream</text>
</a>
</g>
</g>
<!-- Node20&#45;&gt;Node23 -->
<g id="edge29_Node000020_Node000023" class="edge">
<title>Node20&#45;&gt;Node23</title>
<g id="a_edge29_Node000020_Node000023"><a xlink:title=" ">
<path fill="none" stroke="#63b8ff" d="M701.1,-60.37C714.06,-51.12 734.86,-36.28 750.4,-25.19"/>
<polygon fill="#63b8ff" stroke="#63b8ff" points="752.74,-27.82 758.85,-19.17 748.68,-22.13 752.74,-27.82"/>
</a>
</g>
</g>
<!-- Node24&#45;&gt;Node3 -->
<g id="edge33_Node000024_Node000003" class="edge">
<title>Node24&#45;&gt;Node3</title>
<g id="a_edge33_Node000024_Node000003"><a xlink:title=" ">
<path fill="none" stroke="#63b8ff" d="M118.72,-175.96C110.78,-166.57 101.39,-153.5 97,-140 85.31,-104.07 75.36,-86.65 96,-55 111.14,-31.79 141.4,-20.6 164.87,-15.26"/>
<polygon fill="#63b8ff" stroke="#63b8ff" points="165.67,-18.67 174.77,-13.25 164.27,-11.81 165.67,-18.67"/>
</a>
</g>
</g>
<!-- Node24&#45;&gt;Node15 -->
<g id="edge35_Node000024_Node000015" class="edge">
<title>Node24&#45;&gt;Node15</title>
<g id="a_edge35_Node000024_Node000015"><a xlink:title=" ">
<path fill="none" stroke="#63b8ff" d="M173.68,-175.99C203.32,-166.02 242.69,-152.78 270.77,-143.35"/>
<polygon fill="#63b8ff" stroke="#63b8ff" points="272.2,-146.56 280.56,-140.05 269.96,-139.92 272.2,-146.56"/>
</a>
</g>
</g>
<!-- Node25 -->
<g id="Node000025" class="node">
<title>Node25</title>
<g id="a_Node000025"><a xlink:title=" ">
<polygon fill="#e0e0e0" stroke="#999999" points="212,-140 174,-140 174,-121 212,-121 212,-140"/>
<text text-anchor="middle" x="193" y="-128" font-family="Helvetica,sans-Serif" font-size="10.00">map</text>
</a>
</g>
</g>
<!-- Node24&#45;&gt;Node25 -->
<g id="edge32_Node000024_Node000025" class="edge">
<title>Node24&#45;&gt;Node25</title>
<g id="a_edge32_Node000024_Node000025"><a xlink:title=" ">
<path fill="none" stroke="#63b8ff" d="M146.77,-175.84C155.71,-167.26 167.14,-156.3 176.4,-147.42"/>
<polygon fill="#63b8ff" stroke="#63b8ff" points="179.06,-149.71 183.86,-140.27 174.22,-144.66 179.06,-149.71"/>
</a>
</g>
</g>
<!-- Node26 -->
<g id="Node000026" class="node">
<title>Node26</title>
<g id="a_Node000026"><a xlink:title=" ">
<polygon fill="#e0e0e0" stroke="#999999" points="156,-140 106,-140 106,-121 156,-121 156,-140"/>
<text text-anchor="middle" x="131" y="-128" font-family="Helvetica,sans-Serif" font-size="10.00">format</text>
</a>
</g>
</g>
<!-- Node24&#45;&gt;Node26 -->
<g id="edge34_Node000024_Node000026" class="edge">
<title>Node24&#45;&gt;Node26</title>
<g id="a_edge34_Node000024_Node000026"><a xlink:title=" ">
<path fill="none" stroke="#63b8ff" d="M131.76,-175.84C131.63,-168.21 131.47,-158.7 131.32,-150.45"/>
<polygon fill="#63b8ff" stroke="#63b8ff" points="134.82,-150.2 131.15,-140.27 127.82,-150.32 134.82,-150.2"/>
</a>
</g>
</g>
<!-- Node27&#45;&gt;Node2 -->
<g id="edge38_Node000027_Node000002" class="edge">
<title>Node27&#45;&gt;Node2</title>
<g id="a_edge38_Node000027_Node000002"><a xlink:title=" ">
<path fill="none" stroke="#63b8ff" d="M889.16,-249.26C951.58,-246.37 1069.24,-236.86 1095,-206 1142.06,-149.62 1066.25,-62.1 1030.75,-26.44"/>
<polygon fill="#63b8ff" stroke="#63b8ff" points="1033.05,-23.78 1023.46,-19.27 1028.14,-28.78 1033.05,-23.78"/>
</a>
</g>
</g>
<!-- Node27&#45;&gt;Node4 -->
<g id="edge39_Node000027_Node000004" class="edge">
<title>Node27&#45;&gt;Node4</title>
<g id="a_edge39_Node000027_Node000004"><a xlink:title=" ">
<path fill="none" stroke="#63b8ff" d="M837.16,-241.87C823.28,-232.54 800.93,-217.51 784.39,-206.38"/>
<polygon fill="#63b8ff" stroke="#63b8ff" points="786.14,-203.34 775.89,-200.67 782.24,-209.15 786.14,-203.34"/>
</a>
</g>
</g>
<!-- Node27&#45;&gt;Node11 -->
<g id="edge42_Node000027_Node000011" class="edge">
<title>Node27&#45;&gt;Node11</title>
<g id="a_edge42_Node000027_Node000011"><a xlink:title=" ">
<path fill="none" stroke="#63b8ff" d="M827.03,-241.99C800.11,-232.03 755.33,-215.45 724.77,-204.13"/>
<polygon fill="#63b8ff" stroke="#63b8ff" points="725.6,-200.71 715,-200.52 723.16,-207.27 725.6,-200.71"/>
</a>
</g>
</g>
<!-- Node27&#45;&gt;Node12 -->
<g id="edge43_Node000027_Node000012" class="edge">
<title>Node27&#45;&gt;Node12</title>
<g id="a_edge43_Node000027_Node000012"><a xlink:title=" ">
<path fill="none" stroke="#63b8ff" d="M810.68,-243.42C770.23,-235.73 705.6,-222.35 651,-206 648.86,-205.36 646.67,-204.66 644.47,-203.92"/>
<polygon fill="#63b8ff" stroke="#63b8ff" points="645.55,-200.58 634.95,-200.52 643.2,-207.18 645.55,-200.58"/>
</a>
</g>
</g>
<!-- Node27&#45;&gt;Node21 -->
<g id="edge45_Node000027_Node000021" class="edge">
<title>Node27&#45;&gt;Node21</title>
<g id="a_edge45_Node000027_Node000021"><a xlink:title=" ">
<path fill="none" stroke="#63b8ff" d="M849.93,-241.96C849.64,-207.48 848.56,-78.08 848.16,-29.28"/>
<polygon fill="#63b8ff" stroke="#63b8ff" points="851.66,-29.16 848.07,-19.19 844.66,-29.22 851.66,-29.16"/>
</a>
</g>
</g>
<!-- Node27&#45;&gt;Node23 -->
<g id="edge47_Node000027_Node000023" class="edge">
<title>Node27&#45;&gt;Node23</title>
<g id="a_edge47_Node000027_Node000023"><a xlink:title=" ">
<path fill="none" stroke="#63b8ff" d="M847.19,-241.96C835.82,-207.41 793.07,-77.54 777.08,-28.97"/>
<polygon fill="#63b8ff" stroke="#63b8ff" points="780.31,-27.59 773.86,-19.19 773.66,-29.78 780.31,-27.59"/>
</a>
</g>
</g>
<!-- Node27&#45;&gt;Node27 -->
<g id="edge41_Node000027_Node000027" class="edge">
<title>Node27&#45;&gt;Node27</title>
<g id="a_edge41_Node000027_Node000027"><a xlink:title=" ">
<path fill="none" stroke="#63b8ff" d="M876.68,-261.03C892.34,-263.06 907,-259.88 907,-251.5 907,-244.95 898.05,-241.58 886.67,-241.38"/>
<polygon fill="#63b8ff" stroke="#63b8ff" points="886.46,-237.89 876.68,-241.97 886.87,-244.88 886.46,-237.89"/>
</a>
</g>
</g>
<!-- Node28 -->
<g id="Node000028" class="node">
<title>Node28</title>
<g id="a_Node000028"><a xlink:title=" ">
<polygon fill="#e0e0e0" stroke="#999999" points="925.5,-200.5 878.5,-200.5 878.5,-181.5 925.5,-181.5 925.5,-200.5"/>
<text text-anchor="middle" x="902" y="-188.5" font-family="Helvetica,sans-Serif" font-size="10.00">cmath</text>
</a>
</g>
</g>
<!-- Node27&#45;&gt;Node28 -->
<g id="edge40_Node000027_Node000028" class="edge">
<title>Node27&#45;&gt;Node28</title>
<g id="a_edge40_Node000027_Node000028"><a xlink:title=" ">
<path fill="none" stroke="#63b8ff" d="M857.67,-241.87C865.51,-233.05 877.86,-219.16 887.54,-208.27"/>
<polygon fill="#63b8ff" stroke="#63b8ff" points="890.27,-210.47 894.3,-200.67 885.04,-205.82 890.27,-210.47"/>
</a>
</g>
</g>
<!-- Node29 -->
<g id="Node000029" class="node">
<title>Node29</title>
<g id="a_Node000029"><a xlink:title=" ">
<polygon fill="#e0e0e0" stroke="#999999" points="1008.5,-200.5 943.5,-200.5 943.5,-181.5 1008.5,-181.5 1008.5,-200.5"/>
<text text-anchor="middle" x="976" y="-188.5" font-family="Helvetica,sans-Serif" font-size="10.00">functional</text>
</a>
</g>
</g>
<!-- Node27&#45;&gt;Node29 -->
<g id="edge44_Node000027_Node000029" class="edge">
<title>Node27&#45;&gt;Node29</title>
<g id="a_edge44_Node000027_Node000029"><a xlink:title=" ">
<path fill="none" stroke="#63b8ff" d="M868.32,-241.99C889.41,-232.2 924.26,-216.02 948.58,-204.73"/>
<polygon fill="#63b8ff" stroke="#63b8ff" points="950.06,-207.9 957.66,-200.52 947.11,-201.55 950.06,-207.9"/>
</a>
</g>
</g>
<!-- Node30 -->
<g id="Node000030" class="node">
<title>Node30</title>
<g id="a_Node000030"><a xlink:title=" ">
<polygon fill="#e0e0e0" stroke="#999999" points="1085.5,-200.5 1026.5,-200.5 1026.5,-181.5 1085.5,-181.5 1085.5,-200.5"/>
<text text-anchor="middle" x="1056" y="-188.5" font-family="Helvetica,sans-Serif" font-size="10.00">numbers</text>
</a>
</g>
</g>
<!-- Node27&#45;&gt;Node30 -->
<g id="edge46_Node000027_Node000030" class="edge">
<title>Node27&#45;&gt;Node30</title>
<g id="a_edge46_Node000027_Node000030"><a xlink:title=" ">
<path fill="none" stroke="#63b8ff" d="M886.33,-241.92C920.55,-233.6 973.12,-220.18 1018,-206 1019.91,-205.4 1021.87,-204.75 1023.83,-204.09"/>
<polygon fill="#63b8ff" stroke="#63b8ff" points="1025.35,-207.27 1033.62,-200.64 1023.02,-200.66 1025.35,-207.27"/>
</a>
</g>
</g>
</g>
</svg>
