<?xml version="1.0" encoding="UTF-8" standalone="no"?>
<!DOCTYPE svg PUBLIC "-//W3C//DTD SVG 1.1//EN"
 "http://www.w3.org/Graphics/SVG/1.1/DTD/svg11.dtd">
<!-- Generated by graphviz version 2.43.0 (0)
 -->
<!-- Title: dnf_composer::tools::math::conv2d_separable Pages: 1 -->
<svg width="340pt" height="134pt"
 viewBox="0.00 0.00 340.00 134.00" xmlns="http://www.w3.org/2000/svg" xmlns:xlink="http://www.w3.org/1999/xlink">
<g id="graph0" class="graph" transform="scale(1 1) rotate(0) translate(4 130)">
<title>dnf_composer::tools::math::conv2d_separable</title>
<!-- Node1 -->
<g id="Node000001" class="node">
<title>Node1</title>
<g id="a_Node000001"><a xlink:title=" ">
<polygon fill="#999999" stroke="#666666" points="143,-78 0,-78 0,-48 143,-48 143,-78"/>
<text text-anchor="start" x="8" y="-66" font-family="Helvetica,sans-Serif" font-size="10.00">dnf_composer::tools</text>
<text text-anchor="middle" x="71.5" y="-55" font-family="Helvetica,sans-Serif" font-size="10.00">::math::conv2d_separable</text>
</a>
</g>
</g>
<!-- Node2 -->
<g id="Node000002" class="node">
<title>Node2</title>
<g id="a_Node000002"><a xlink:href="namespacednf__composer_1_1tools_1_1math.html#a384e37867853468a2ab2f1ec45bf2e43" target="_top" xlink:title=" ">
<polygon fill="white" stroke="#666666" points="313.5,-126 197.5,-126 197.5,-96 313.5,-96 313.5,-126"/>
<text text-anchor="start" x="205.5" y="-114" font-family="Helvetica,sans-Serif" font-size="10.00">dnf_composer::tools</text>
<text text-anchor="middle" x="255.5" y="-103" font-family="Helvetica,sans-Serif" font-size="10.00">::math::conv_same</text>
</a>
</g>
</g>
<!-- Node1&#45;&gt;Node2 -->
<g id="edge1_Node000001_Node000002" class="edge">
<title>Node1&#45;&gt;Node2</title>
<g id="a_edge1_Node000001_Node000002"><a xlink:title=" ">
<path fill="none" stroke="#63b8ff" d="M129.59,-78.06C148.05,-82.93 168.69,-88.37 187.79,-93.41"/>
<polygon fill="#63b8ff" stroke="#63b8ff" points="187.05,-96.83 197.62,-96 188.84,-90.06 187.05,-96.83"/>
</a>
</g>
</g>
<!-- Node3 -->
<g id="Node000003" class="node">
<title>Node3</title>
<g id="a_Node000003"><a xlink:href="namespacednf__composer_1_1tools_1_1math.html#ab20d3ab488a94e0088c4bd53d8deac9c" target="_top" xlink:title=" ">
<polygon fill="white" stroke="#666666" points="313.5,-78 197.5,-78 197.5,-48 313.5,-48 313.5,-78"/>
<text text-anchor="start" x="205.5" y="-66" font-family="Helvetica,sans-Serif" font-size="10.00">dnf_composer::tools</text>
<text text-anchor="middle" x="255.5" y="-55" font-family="Helvetica,sans-Serif" font-size="10.00">::math::conv_valid</text>
</a>
</g>
</g>
<!-- Node1&#45;&gt;Node3 -->
<g id="edge2_Node000001_Node000003" class="edge">
<title>Node1&#45;&gt;Node3</title>
<g id="a_edge2_Node000001_Node000003"><a xlink:title=" ">
<path fill="none" stroke="#63b8ff" d="M143.13,-63C157.6,-63 172.8,-63 187.15,-63"/>
<polygon fill="#63b8ff" stroke="#63b8ff" points="187.43,-66.5 197.43,-63 187.43,-59.5 187.43,-66.5"/>
</a>
</g>
</g>
<!-- Node4 -->
<g id="Node000004" class="node">
<title>Node4</title>
<g id="a_Node000004"><a xlink:href="namespacednf__composer_1_1tools_1_1math.html#a82c852ff9a51203bb51445e709dd22e1" target="_top" xlink:title=" ">
<polygon fill="white" stroke="#666666" points="332,-30 179,-30 179,0 332,0 332,-30"/>
<text text-anchor="start" x="187" y="-18" font-family="Helvetica,sans-Serif" font-size="10.00">dnf_composer::tools</text>
<text text-anchor="middle" x="255.5" y="-7" font-family="Helvetica,sans-Serif" font-size="10.00">::math::obtainCircularVector</text>
</a>
</g>
</g>
<!-- Node1&#45;&gt;Node4 -->
<g id="edge3_Node000001_Node000004" class="edge">
<title>Node1&#45;&gt;Node4</title>
<g id="a_edge3_Node000001_Node000004"><a xlink:title=" ">
<path fill="none" stroke="#63b8ff" d="M129.59,-47.94C148.05,-43.07 168.69,-37.63 187.79,-32.59"/>
<polygon fill="#63b8ff" stroke="#63b8ff" points="188.84,-35.94 197.62,-30 187.05,-29.17 188.84,-35.94"/>
</a>
</g>
</g>
</g>
</svg>
