<?xml version="1.0" encoding="UTF-8" standalone="no"?>
<!DOCTYPE svg PUBLIC "-//W3C//DTD SVG 1.1//EN"
 "http://www.w3.org/Graphics/SVG/1.1/DTD/svg11.dtd">
<!-- Generated by graphviz version 2.43.0 (0)
 -->
<!-- Title: FileDialog::ShowFileDialog Pages: 1 -->
<svg width="323pt" height="86pt"
 viewBox="0.00 0.00 323.00 86.00" xmlns="http://www.w3.org/2000/svg" xmlns:xlink="http://www.w3.org/1999/xlink">
<g id="graph0" class="graph" transform="scale(1 1) rotate(0) translate(4 82)">
<title>FileDialog::ShowFileDialog</title>
<!-- Node1 -->
<g id="Node000001" class="node">
<title>Node1</title>
<g id="a_Node000001"><a xlink:title=" ">
<polygon fill="#999999" stroke="#666666" points="146,-48.5 0,-48.5 0,-29.5 146,-29.5 146,-48.5"/>
<text text-anchor="middle" x="73" y="-36.5" font-family="Helvetica,sans-Serif" font-size="10.00">FileDialog::ShowFileDialog</text>
</a>
</g>
</g>
<!-- Node2 -->
<g id="Node000002" class="node">
<title>Node2</title>
<g id="a_Node000002"><a xlink:href="namespacednf__composer_1_1tools_1_1utils.html#a140c0903ddcfc3ba01218f11d31608dc" target="_top" xlink:title=" ">
<polygon fill="white" stroke="#666666" points="315,-78 182,-78 182,-48 315,-48 315,-78"/>
<text text-anchor="start" x="190" y="-66" font-family="Helvetica,sans-Serif" font-size="10.00">dnf_composer::tools</text>
<text text-anchor="middle" x="248.5" y="-55" font-family="Helvetica,sans-Serif" font-size="10.00">::utils::getResourceRoot</text>
</a>
</g>
</g>
<!-- Node1&#45;&gt;Node2 -->
<g id="edge1_Node000001_Node000002" class="edge">
<title>Node1&#45;&gt;Node2</title>
<g id="a_edge1_Node000001_Node000002"><a xlink:title=" ">
<path fill="none" stroke="#63b8ff" d="M143.07,-48.55C152.44,-49.85 162.1,-51.19 171.58,-52.5"/>
<polygon fill="#63b8ff" stroke="#63b8ff" points="171.39,-56 181.77,-53.91 172.35,-49.07 171.39,-56"/>
</a>
</g>
</g>
<!-- Node3 -->
<g id="Node000003" class="node">
<title>Node3</title>
<g id="a_Node000003"><a xlink:href="namespacednf__composer_1_1tools_1_1utils.html#a9b9ee760b745eb4a1dfabacac1c026d2" target="_top" xlink:title=" ">
<polygon fill="white" stroke="#666666" points="309.5,-30 187.5,-30 187.5,0 309.5,0 309.5,-30"/>
<text text-anchor="start" x="195.5" y="-18" font-family="Helvetica,sans-Serif" font-size="10.00">dnf_composer::tools</text>
<text text-anchor="middle" x="248.5" y="-7" font-family="Helvetica,sans-Serif" font-size="10.00">::utils::safe_localtime</text>
</a>
</g>
</g>
<!-- Node1&#45;&gt;Node3 -->
<g id="edge2_Node000001_Node000003" class="edge">
<title>Node1&#45;&gt;Node3</title>
<g id="a_edge2_Node000001_Node000003"><a xlink:title=" ">
<path fill="none" stroke="#63b8ff" d="M143.07,-29.45C154.28,-27.89 165.91,-26.29 177.16,-24.73"/>
<polygon fill="#63b8ff" stroke="#63b8ff" points="177.93,-28.16 187.35,-23.32 176.97,-21.22 177.93,-28.16"/>
</a>
</g>
</g>
</g>
</svg>
