<?xml version="1.0" encoding="UTF-8" standalone="no"?>
<!DOCTYPE svg PUBLIC "-//W3C//DTD SVG 1.1//EN"
 "http://www.w3.org/Graphics/SVG/1.1/DTD/svg11.dtd">
<!-- Generated by graphviz version 2.43.0 (0)
 -->
<!-- Title: dnf_composer::tools::math::createExtendedIndex Pages: 1 -->
<svg width="604pt" height="548pt"
 viewBox="0.00 0.00 604.00 548.00" xmlns="http://www.w3.org/2000/svg" xmlns:xlink="http://www.w3.org/1999/xlink">
<g id="graph0" class="graph" transform="scale(1 1) rotate(0) translate(4 544)">
<title>dnf_composer::tools::math::createExtendedIndex</title>
<!-- Node1 -->
<g id="Node000001" class="node">
<title>Node1</title>
<g id="a_Node000001"><a xlink:title=" ">
<polygon fill="#999999" stroke="#666666" points="596,-279.5 438,-279.5 438,-249.5 596,-249.5 596,-279.5"/>
<text text-anchor="start" x="446" y="-267.5" font-family="Helvetica,sans-Serif" font-size="10.00">dnf_composer::tools</text>
<text text-anchor="middle" x="517" y="-256.5" font-family="Helvetica,sans-Serif" font-size="10.00">::math::createExtendedIndex</text>
</a>
</g>
</g>
<!-- Node2 -->
<g id="Node000002" class="node">
<title>Node2</title>
<g id="a_Node000002"><a xlink:href="classdnf__composer_1_1element_1_1AsymmetricGaussKernel.html#a96e938df35bc5c5b9944201750e5ff83" target="_top" xlink:title="Initialize the element (called once before the simulation loop).">
<polygon fill="white" stroke="#666666" points="395,-524.5 231,-524.5 231,-494.5 395,-494.5 395,-524.5"/>
<text text-anchor="start" x="239" y="-512.5" font-family="Helvetica,sans-Serif" font-size="10.00">dnf_composer::element</text>
<text text-anchor="middle" x="313" y="-501.5" font-family="Helvetica,sans-Serif" font-size="10.00">::AsymmetricGaussKernel::init</text>
</a>
</g>
</g>
<!-- Node1&#45;&gt;Node2 -->
<g id="edge1_Node000001_Node000002" class="edge">
<title>Node1&#45;&gt;Node2</title>
<g id="a_edge1_Node000001_Node000002"><a xlink:title=" ">
<path fill="none" stroke="#63b8ff" d="M508.88,-289.34C495.19,-332.9 461.17,-423.38 402,-475.5 393.03,-483.4 382.02,-489.56 370.86,-494.33"/>
<polygon fill="#63b8ff" stroke="#63b8ff" points="512.29,-290.15 511.86,-279.57 505.59,-288.12 512.29,-290.15"/>
</a>
</g>
</g>
<!-- Node4 -->
<g id="Node000004" class="node">
<title>Node4</title>
<g id="a_Node000004"><a xlink:href="classdnf__composer_1_1element_1_1AsymmetricGaussKernel2D.html#a8234958fc93042c32fa069831a7034c5" target="_top" xlink:title="Initialize the element (called once before the simulation loop).">
<polygon fill="white" stroke="#666666" points="402,-466.5 224,-466.5 224,-436.5 402,-436.5 402,-466.5"/>
<text text-anchor="start" x="232" y="-454.5" font-family="Helvetica,sans-Serif" font-size="10.00">dnf_composer::element</text>
<text text-anchor="middle" x="313" y="-443.5" font-family="Helvetica,sans-Serif" font-size="10.00">::AsymmetricGaussKernel2D::init</text>
</a>
</g>
</g>
<!-- Node1&#45;&gt;Node4 -->
<g id="edge3_Node000001_Node000004" class="edge">
<title>Node1&#45;&gt;Node4</title>
<g id="a_edge3_Node000001_Node000004"><a xlink:title=" ">
<path fill="none" stroke="#63b8ff" d="M503.71,-289.04C485.71,-322.67 449.14,-382.95 402,-418.5 392.23,-425.87 380.63,-431.75 369.11,-436.39"/>
<polygon fill="#63b8ff" stroke="#63b8ff" points="506.95,-290.39 508.49,-279.91 500.75,-287.15 506.95,-290.39"/>
</a>
</g>
</g>
<!-- Node6 -->
<g id="Node000006" class="node">
<title>Node6</title>
<g id="a_Node000006"><a xlink:href="classdnf__composer_1_1element_1_1CorrelatedNormalNoise.html#af15a4f2f22980b9bd2f843d3a7ec77c7" target="_top" xlink:title="Initialize the element (called once before the simulation loop).">
<polygon fill="white" stroke="#666666" points="392.5,-409.5 233.5,-409.5 233.5,-379.5 392.5,-379.5 392.5,-409.5"/>
<text text-anchor="start" x="241.5" y="-397.5" font-family="Helvetica,sans-Serif" font-size="10.00">dnf_composer::element</text>
<text text-anchor="middle" x="313" y="-386.5" font-family="Helvetica,sans-Serif" font-size="10.00">::CorrelatedNormalNoise::init</text>
</a>
</g>
</g>
<!-- Node1&#45;&gt;Node6 -->
<g id="edge5_Node000001_Node000006" class="edge">
<title>Node1&#45;&gt;Node6</title>
<g id="a_edge5_Node000001_Node000006"><a xlink:title=" ">
<path fill="none" stroke="#63b8ff" d="M495.27,-286.88C473.77,-308.96 438.28,-342.39 402,-363.5 391.22,-369.77 378.96,-375.08 367.09,-379.43"/>
<polygon fill="#63b8ff" stroke="#63b8ff" points="497.88,-289.22 502.27,-279.58 492.82,-284.37 497.88,-289.22"/>
</a>
</g>
</g>
<!-- Node8 -->
<g id="Node000008" class="node">
<title>Node8</title>
<g id="a_Node000008"><a xlink:href="classdnf__composer_1_1element_1_1CorrelatedNormalNoise2D.html#af47d2a942186c3cb7bfcf1052a5341c2" target="_top" xlink:title="Initialize the element (called once before the simulation loop).">
<polygon fill="white" stroke="#666666" points="399.5,-354.5 226.5,-354.5 226.5,-324.5 399.5,-324.5 399.5,-354.5"/>
<text text-anchor="start" x="234.5" y="-342.5" font-family="Helvetica,sans-Serif" font-size="10.00">dnf_composer::element</text>
<text text-anchor="middle" x="313" y="-331.5" font-family="Helvetica,sans-Serif" font-size="10.00">::CorrelatedNormalNoise2D::init</text>
</a>
</g>
</g>
<!-- Node1&#45;&gt;Node8 -->
<g id="edge7_Node000001_Node000008" class="edge">
<title>Node1&#45;&gt;Node8</title>
<g id="a_edge7_Node000001_Node000008"><a xlink:title=" ">
<path fill="none" stroke="#63b8ff" d="M473.07,-283.79C451.87,-292.99 425.81,-303.86 402,-312.5 390.58,-316.64 378.19,-320.71 366.4,-324.37"/>
<polygon fill="#63b8ff" stroke="#63b8ff" points="474.68,-286.9 482.43,-279.69 471.87,-280.49 474.68,-286.9"/>
</a>
</g>
</g>
<!-- Node10 -->
<g id="Node000010" class="node">
<title>Node10</title>
<g id="a_Node000010"><a xlink:href="classdnf__composer_1_1element_1_1GaussKernel.html#a287d7d8ff2d471d38fc915b73c0422bd" target="_top" xlink:title="Initialize the element (called once before the simulation loop).">
<polygon fill="white" stroke="#666666" points="379,-303.5 247,-303.5 247,-273.5 379,-273.5 379,-303.5"/>
<text text-anchor="start" x="255" y="-291.5" font-family="Helvetica,sans-Serif" font-size="10.00">dnf_composer::element</text>
<text text-anchor="middle" x="313" y="-280.5" font-family="Helvetica,sans-Serif" font-size="10.00">::GaussKernel::init</text>
</a>
</g>
</g>
<!-- Node1&#45;&gt;Node10 -->
<g id="edge9_Node000001_Node000010" class="edge">
<title>Node1&#45;&gt;Node10</title>
<g id="a_edge9_Node000001_Node000010"><a xlink:title=" ">
<path fill="none" stroke="#63b8ff" d="M427.79,-274.98C411.44,-276.92 394.63,-278.92 379.12,-280.76"/>
<polygon fill="#63b8ff" stroke="#63b8ff" points="428.38,-278.43 437.9,-273.78 427.56,-271.48 428.38,-278.43"/>
</a>
</g>
</g>
<!-- Node12 -->
<g id="Node000012" class="node">
<title>Node12</title>
<g id="a_Node000012"><a xlink:href="classdnf__composer_1_1element_1_1GaussKernel2D.html#a039b5f0baaeb7e4a47195a7b4806df19" target="_top" xlink:title="Initialize the element (called once before the simulation loop).">
<polygon fill="white" stroke="#666666" points="379,-255.5 247,-255.5 247,-225.5 379,-225.5 379,-255.5"/>
<text text-anchor="start" x="255" y="-243.5" font-family="Helvetica,sans-Serif" font-size="10.00">dnf_composer::element</text>
<text text-anchor="middle" x="313" y="-232.5" font-family="Helvetica,sans-Serif" font-size="10.00">::GaussKernel2D::init</text>
</a>
</g>
</g>
<!-- Node1&#45;&gt;Node12 -->
<g id="edge11_Node000001_Node000012" class="edge">
<title>Node1&#45;&gt;Node12</title>
<g id="a_edge11_Node000001_Node000012"><a xlink:title=" ">
<path fill="none" stroke="#63b8ff" d="M427.79,-254.02C411.44,-252.08 394.63,-250.08 379.12,-248.24"/>
<polygon fill="#63b8ff" stroke="#63b8ff" points="427.56,-257.52 437.9,-255.22 428.38,-250.57 427.56,-257.52"/>
</a>
</g>
</g>
<!-- Node14 -->
<g id="Node000014" class="node">
<title>Node14</title>
<g id="a_Node000014"><a xlink:href="classdnf__composer_1_1element_1_1MexicanHatKernel.html#ad80d75e45cea14a7d222559ae88d0c48" target="_top" xlink:title="Initialize the element (called once before the simulation loop).">
<polygon fill="white" stroke="#666666" points="380,-207.5 246,-207.5 246,-177.5 380,-177.5 380,-207.5"/>
<text text-anchor="start" x="254" y="-195.5" font-family="Helvetica,sans-Serif" font-size="10.00">dnf_composer::element</text>
<text text-anchor="middle" x="313" y="-184.5" font-family="Helvetica,sans-Serif" font-size="10.00">::MexicanHatKernel::init</text>
</a>
</g>
</g>
<!-- Node1&#45;&gt;Node14 -->
<g id="edge13_Node000001_Node000014" class="edge">
<title>Node1&#45;&gt;Node14</title>
<g id="a_edge13_Node000001_Node000014"><a xlink:title=" ">
<path fill="none" stroke="#63b8ff" d="M474.11,-245.3C452.78,-235.92 426.29,-224.89 402,-216.5 392.87,-213.35 383.09,-210.34 373.5,-207.57"/>
<polygon fill="#63b8ff" stroke="#63b8ff" points="472.96,-248.61 483.52,-249.47 475.8,-242.22 472.96,-248.61"/>
</a>
</g>
</g>
<!-- Node16 -->
<g id="Node000016" class="node">
<title>Node16</title>
<g id="a_Node000016"><a xlink:href="classdnf__composer_1_1element_1_1MexicanHatKernel2D.html#aee7c3a1257606ea3a13a3436a17e0a61" target="_top" xlink:title="Initialize the element (called once before the simulation loop).">
<polygon fill="white" stroke="#666666" points="386.5,-156.5 239.5,-156.5 239.5,-126.5 386.5,-126.5 386.5,-156.5"/>
<text text-anchor="start" x="247.5" y="-144.5" font-family="Helvetica,sans-Serif" font-size="10.00">dnf_composer::element</text>
<text text-anchor="middle" x="313" y="-133.5" font-family="Helvetica,sans-Serif" font-size="10.00">::MexicanHatKernel2D::init</text>
</a>
</g>
</g>
<!-- Node1&#45;&gt;Node16 -->
<g id="edge15_Node000001_Node000016" class="edge">
<title>Node1&#45;&gt;Node16</title>
<g id="a_edge15_Node000001_Node000016"><a xlink:title=" ">
<path fill="none" stroke="#63b8ff" d="M494.95,-242.17C473.45,-220.54 438.18,-188.21 402,-168.5 393.44,-163.84 383.96,-159.86 374.49,-156.51"/>
<polygon fill="#63b8ff" stroke="#63b8ff" points="492.47,-244.63 501.96,-249.33 497.47,-239.73 492.47,-244.63"/>
</a>
</g>
</g>
<!-- Node18 -->
<g id="Node000018" class="node">
<title>Node18</title>
<g id="a_Node000018"><a xlink:href="classdnf__composer_1_1element_1_1OscillatoryKernel.html#a47f6325fe52fd6baabe982c590867e7d" target="_top" xlink:title="Initialize the element (called once before the simulation loop).">
<polygon fill="white" stroke="#666666" points="379,-99.5 247,-99.5 247,-69.5 379,-69.5 379,-99.5"/>
<text text-anchor="start" x="255" y="-87.5" font-family="Helvetica,sans-Serif" font-size="10.00">dnf_composer::element</text>
<text text-anchor="middle" x="313" y="-76.5" font-family="Helvetica,sans-Serif" font-size="10.00">::OscillatoryKernel::init</text>
</a>
</g>
</g>
<!-- Node1&#45;&gt;Node18 -->
<g id="edge17_Node000001_Node000018" class="edge">
<title>Node1&#45;&gt;Node18</title>
<g id="a_edge17_Node000001_Node000018"><a xlink:title=" ">
<path fill="none" stroke="#63b8ff" d="M503.15,-240.6C484.72,-208.42 447.91,-151.32 402,-117.5 392.02,-110.14 380.2,-104.25 368.53,-99.59"/>
<polygon fill="#63b8ff" stroke="#63b8ff" points="500.11,-242.34 508.05,-249.35 506.22,-238.92 500.11,-242.34"/>
</a>
</g>
</g>
<!-- Node20 -->
<g id="Node000020" class="node">
<title>Node20</title>
<g id="a_Node000020"><a xlink:href="classdnf__composer_1_1element_1_1OscillatoryKernel2D.html#ab280029bb925d2eb1c0b2af7b6053f9c" target="_top" xlink:title="Initialize the element (called once before the simulation loop).">
<polygon fill="white" stroke="#666666" points="383.5,-46.5 242.5,-46.5 242.5,-16.5 383.5,-16.5 383.5,-46.5"/>
<text text-anchor="start" x="250.5" y="-34.5" font-family="Helvetica,sans-Serif" font-size="10.00">dnf_composer::element</text>
<text text-anchor="middle" x="313" y="-23.5" font-family="Helvetica,sans-Serif" font-size="10.00">::OscillatoryKernel2D::init</text>
</a>
</g>
</g>
<!-- Node1&#45;&gt;Node20 -->
<g id="edge19_Node000001_Node000020" class="edge">
<title>Node1&#45;&gt;Node20</title>
<g id="a_edge19_Node000001_Node000020"><a xlink:title=" ">
<path fill="none" stroke="#63b8ff" d="M508.8,-239.87C495.07,-197.16 461.13,-109.28 402,-60.5 395.18,-54.87 387.22,-50.32 378.94,-46.65"/>
<polygon fill="#63b8ff" stroke="#63b8ff" points="505.47,-240.96 511.79,-249.46 512.16,-238.88 505.47,-240.96"/>
</a>
</g>
</g>
<!-- Node3 -->
<g id="Node000003" class="node">
<title>Node3</title>
<g id="a_Node000003"><a xlink:href="classdnf__composer_1_1element_1_1AsymmetricGaussKernel.html#aa692c282d0b5b78e54d15664166a06eb" target="_top" xlink:title=" ">
<polygon fill="white" stroke="#666666" points="165.5,-540 22.5,-540 22.5,-499 165.5,-499 165.5,-540"/>
<text text-anchor="start" x="30.5" y="-528" font-family="Helvetica,sans-Serif" font-size="10.00">dnf_composer::element</text>
<text text-anchor="start" x="30.5" y="-517" font-family="Helvetica,sans-Serif" font-size="10.00">::AsymmetricGaussKernel</text>
<text text-anchor="middle" x="94" y="-506" font-family="Helvetica,sans-Serif" font-size="10.00">::setParameters</text>
</a>
</g>
</g>
<!-- Node2&#45;&gt;Node3 -->
<g id="edge2_Node000002_Node000003" class="edge">
<title>Node2&#45;&gt;Node3</title>
<g id="a_edge2_Node000002_Node000003"><a xlink:title=" ">
<path fill="none" stroke="#63b8ff" d="M220.75,-513.71C202.34,-514.55 183.25,-515.43 165.68,-516.24"/>
<polygon fill="#63b8ff" stroke="#63b8ff" points="221.06,-517.19 230.89,-513.24 220.74,-510.2 221.06,-517.19"/>
</a>
</g>
</g>
<!-- Node5 -->
<g id="Node000005" class="node">
<title>Node5</title>
<g id="a_Node000005"><a xlink:href="classdnf__composer_1_1element_1_1AsymmetricGaussKernel2D.html#afbef9cba9917c5548463b4e8a7cec7fd" target="_top" xlink:title=" ">
<polygon fill="white" stroke="#666666" points="172,-481 16,-481 16,-440 172,-440 172,-481"/>
<text text-anchor="start" x="24" y="-469" font-family="Helvetica,sans-Serif" font-size="10.00">dnf_composer::element</text>
<text text-anchor="start" x="24" y="-458" font-family="Helvetica,sans-Serif" font-size="10.00">::AsymmetricGaussKernel2D</text>
<text text-anchor="middle" x="94" y="-447" font-family="Helvetica,sans-Serif" font-size="10.00">::setParameters</text>
</a>
</g>
</g>
<!-- Node4&#45;&gt;Node5 -->
<g id="edge4_Node000004_Node000005" class="edge">
<title>Node4&#45;&gt;Node5</title>
<g id="a_edge4_Node000004_Node000005"><a xlink:title=" ">
<path fill="none" stroke="#63b8ff" d="M213.63,-455.58C199.68,-456.16 185.51,-456.75 172.04,-457.3"/>
<polygon fill="#63b8ff" stroke="#63b8ff" points="213.89,-459.07 223.74,-455.16 213.6,-452.08 213.89,-459.07"/>
</a>
</g>
</g>
<!-- Node7 -->
<g id="Node000007" class="node">
<title>Node7</title>
<g id="a_Node000007"><a xlink:href="classdnf__composer_1_1element_1_1CorrelatedNormalNoise.html#a78311915d5aafe88d29c65a834482c89" target="_top" xlink:title=" ">
<polygon fill="white" stroke="#666666" points="162.5,-422 25.5,-422 25.5,-381 162.5,-381 162.5,-422"/>
<text text-anchor="start" x="33.5" y="-410" font-family="Helvetica,sans-Serif" font-size="10.00">dnf_composer::element</text>
<text text-anchor="start" x="33.5" y="-399" font-family="Helvetica,sans-Serif" font-size="10.00">::CorrelatedNormalNoise</text>
<text text-anchor="middle" x="94" y="-388" font-family="Helvetica,sans-Serif" font-size="10.00">::setParameters</text>
</a>
</g>
</g>
<!-- Node6&#45;&gt;Node7 -->
<g id="edge6_Node000006_Node000007" class="edge">
<title>Node6&#45;&gt;Node7</title>
<g id="a_edge6_Node000006_Node000007"><a xlink:title=" ">
<path fill="none" stroke="#63b8ff" d="M223.2,-397.36C202.98,-398.02 181.81,-398.7 162.64,-399.32"/>
<polygon fill="#63b8ff" stroke="#63b8ff" points="223.47,-400.86 233.35,-397.04 223.24,-393.86 223.47,-400.86"/>
</a>
</g>
</g>
<!-- Node9 -->
<g id="Node000009" class="node">
<title>Node9</title>
<g id="a_Node000009"><a xlink:href="classdnf__composer_1_1element_1_1CorrelatedNormalNoise2D.html#af30ec1b833c31764733d434ebffd268c" target="_top" xlink:title=" ">
<polygon fill="white" stroke="#666666" points="169.5,-363 18.5,-363 18.5,-322 169.5,-322 169.5,-363"/>
<text text-anchor="start" x="26.5" y="-351" font-family="Helvetica,sans-Serif" font-size="10.00">dnf_composer::element</text>
<text text-anchor="start" x="26.5" y="-340" font-family="Helvetica,sans-Serif" font-size="10.00">::CorrelatedNormalNoise2D</text>
<text text-anchor="middle" x="94" y="-329" font-family="Helvetica,sans-Serif" font-size="10.00">::setParameters</text>
</a>
</g>
</g>
<!-- Node8&#45;&gt;Node9 -->
<g id="edge8_Node000008_Node000009" class="edge">
<title>Node8&#45;&gt;Node9</title>
<g id="a_edge8_Node000008_Node000009"><a xlink:title=" ">
<path fill="none" stroke="#63b8ff" d="M216.07,-340.83C200.5,-341.04 184.58,-341.26 169.61,-341.47"/>
<polygon fill="#63b8ff" stroke="#63b8ff" points="216.29,-344.32 226.24,-340.69 216.19,-337.32 216.29,-344.32"/>
</a>
</g>
</g>
<!-- Node11 -->
<g id="Node000011" class="node">
<title>Node11</title>
<g id="a_Node000011"><a xlink:href="classdnf__composer_1_1element_1_1GaussKernel.html#a36639a54ade8b0154ed3419f2b0e1650" target="_top" xlink:title=" ">
<polygon fill="white" stroke="#666666" points="174,-303.5 14,-303.5 14,-273.5 174,-273.5 174,-303.5"/>
<text text-anchor="start" x="22" y="-291.5" font-family="Helvetica,sans-Serif" font-size="10.00">dnf_composer::element</text>
<text text-anchor="middle" x="94" y="-280.5" font-family="Helvetica,sans-Serif" font-size="10.00">::GaussKernel::setParameters</text>
</a>
</g>
</g>
<!-- Node10&#45;&gt;Node11 -->
<g id="edge10_Node000010_Node000011" class="edge">
<title>Node10&#45;&gt;Node11</title>
<g id="a_edge10_Node000010_Node000011"><a xlink:title=" ">
<path fill="none" stroke="#63b8ff" d="M236.81,-288.5C216.6,-288.5 194.68,-288.5 174.25,-288.5"/>
<polygon fill="#63b8ff" stroke="#63b8ff" points="236.89,-292 246.89,-288.5 236.89,-285 236.89,-292"/>
</a>
</g>
</g>
<!-- Node13 -->
<g id="Node000013" class="node">
<title>Node13</title>
<g id="a_Node000013"><a xlink:href="classdnf__composer_1_1element_1_1GaussKernel2D.html#a8206313c9478fa50f995e397e4dd9738" target="_top" xlink:title=" ">
<polygon fill="white" stroke="#666666" points="180.5,-255.5 7.5,-255.5 7.5,-225.5 180.5,-225.5 180.5,-255.5"/>
<text text-anchor="start" x="15.5" y="-243.5" font-family="Helvetica,sans-Serif" font-size="10.00">dnf_composer::element</text>
<text text-anchor="middle" x="94" y="-232.5" font-family="Helvetica,sans-Serif" font-size="10.00">::GaussKernel2D::setParameters</text>
</a>
</g>
</g>
<!-- Node12&#45;&gt;Node13 -->
<g id="edge12_Node000012_Node000013" class="edge">
<title>Node12&#45;&gt;Node13</title>
<g id="a_edge12_Node000012_Node000013"><a xlink:title=" ">
<path fill="none" stroke="#63b8ff" d="M236.69,-240.5C218.58,-240.5 199.1,-240.5 180.56,-240.5"/>
<polygon fill="#63b8ff" stroke="#63b8ff" points="236.89,-244 246.89,-240.5 236.89,-237 236.89,-244"/>
</a>
</g>
</g>
<!-- Node15 -->
<g id="Node000015" class="node">
<title>Node15</title>
<g id="a_Node000015"><a xlink:href="classdnf__composer_1_1element_1_1MexicanHatKernel.html#a4aa49909a155682d613a1f6284c90601" target="_top" xlink:title=" ">
<polygon fill="white" stroke="#666666" points="188,-207.5 0,-207.5 0,-177.5 188,-177.5 188,-207.5"/>
<text text-anchor="start" x="8" y="-195.5" font-family="Helvetica,sans-Serif" font-size="10.00">dnf_composer::element</text>
<text text-anchor="middle" x="94" y="-184.5" font-family="Helvetica,sans-Serif" font-size="10.00">::MexicanHatKernel::setParameters</text>
</a>
</g>
</g>
<!-- Node14&#45;&gt;Node15 -->
<g id="edge14_Node000014_Node000015" class="edge">
<title>Node14&#45;&gt;Node15</title>
<g id="a_edge14_Node000014_Node000015"><a xlink:title=" ">
<path fill="none" stroke="#63b8ff" d="M235.3,-192.5C220.01,-192.5 203.8,-192.5 188.04,-192.5"/>
<polygon fill="#63b8ff" stroke="#63b8ff" points="235.71,-196 245.71,-192.5 235.71,-189 235.71,-196"/>
</a>
</g>
</g>
<!-- Node17 -->
<g id="Node000017" class="node">
<title>Node17</title>
<g id="a_Node000017"><a xlink:href="classdnf__composer_1_1element_1_1MexicanHatKernel2D.html#a5f4f3aeeccf58debe0e57e786f1bf57e" target="_top" xlink:title=" ">
<polygon fill="white" stroke="#666666" points="160,-159 28,-159 28,-118 160,-118 160,-159"/>
<text text-anchor="start" x="36" y="-147" font-family="Helvetica,sans-Serif" font-size="10.00">dnf_composer::element</text>
<text text-anchor="start" x="36" y="-136" font-family="Helvetica,sans-Serif" font-size="10.00">::MexicanHatKernel2D</text>
<text text-anchor="middle" x="94" y="-125" font-family="Helvetica,sans-Serif" font-size="10.00">::setParameters</text>
</a>
</g>
</g>
<!-- Node16&#45;&gt;Node17 -->
<g id="edge16_Node000016_Node000017" class="edge">
<title>Node16&#45;&gt;Node17</title>
<g id="a_edge16_Node000016_Node000017"><a xlink:title=" ">
<path fill="none" stroke="#63b8ff" d="M229.39,-140.36C206.49,-140.04 181.95,-139.7 160.19,-139.4"/>
<polygon fill="#63b8ff" stroke="#63b8ff" points="229.39,-143.86 239.44,-140.5 229.49,-136.86 229.39,-143.86"/>
</a>
</g>
</g>
<!-- Node19 -->
<g id="Node000019" class="node">
<title>Node19</title>
<g id="a_Node000019"><a xlink:href="classdnf__composer_1_1element_1_1OscillatoryKernel.html#a5058264b50a235c4c92d8e38d13551ca" target="_top" xlink:title=" ">
<polygon fill="white" stroke="#666666" points="160,-100 28,-100 28,-59 160,-59 160,-100"/>
<text text-anchor="start" x="36" y="-88" font-family="Helvetica,sans-Serif" font-size="10.00">dnf_composer::element</text>
<text text-anchor="start" x="36" y="-77" font-family="Helvetica,sans-Serif" font-size="10.00">::OscillatoryKernel::</text>
<text text-anchor="middle" x="94" y="-66" font-family="Helvetica,sans-Serif" font-size="10.00">setParameters</text>
</a>
</g>
</g>
<!-- Node18&#45;&gt;Node19 -->
<g id="edge18_Node000018_Node000019" class="edge">
<title>Node18&#45;&gt;Node19</title>
<g id="a_edge18_Node000018_Node000019"><a xlink:title=" ">
<path fill="none" stroke="#63b8ff" d="M236.74,-82.77C211.77,-82.19 184.2,-81.56 160.06,-81"/>
<polygon fill="#63b8ff" stroke="#63b8ff" points="236.81,-86.27 246.89,-83 236.98,-79.27 236.81,-86.27"/>
</a>
</g>
</g>
<!-- Node21 -->
<g id="Node000021" class="node">
<title>Node21</title>
<g id="a_Node000021"><a xlink:href="classdnf__composer_1_1element_1_1OscillatoryKernel2D.html#a1d361bc75e26ee2354df657332ca5d3c" target="_top" xlink:title=" ">
<polygon fill="white" stroke="#666666" points="160,-41 28,-41 28,0 160,0 160,-41"/>
<text text-anchor="start" x="36" y="-29" font-family="Helvetica,sans-Serif" font-size="10.00">dnf_composer::element</text>
<text text-anchor="start" x="36" y="-18" font-family="Helvetica,sans-Serif" font-size="10.00">::OscillatoryKernel2D</text>
<text text-anchor="middle" x="94" y="-7" font-family="Helvetica,sans-Serif" font-size="10.00">::setParameters</text>
</a>
</g>
</g>
<!-- Node20&#45;&gt;Node21 -->
<g id="edge20_Node000020_Node000021" class="edge">
<title>Node20&#45;&gt;Node21</title>
<g id="a_edge20_Node000020_Node000021"><a xlink:title=" ">
<path fill="none" stroke="#63b8ff" d="M232.39,-27.46C208.61,-26.26 182.84,-24.95 160.11,-23.8"/>
<polygon fill="#63b8ff" stroke="#63b8ff" points="232.28,-30.96 242.44,-27.97 232.63,-23.97 232.28,-30.96"/>
</a>
</g>
</g>
</g>
</svg>
