<?xml version="1.0" encoding="UTF-8" standalone="no"?>
<!DOCTYPE svg PUBLIC "-//W3C//DTD SVG 1.1//EN"
 "http://www.w3.org/Graphics/SVG/1.1/DTD/svg11.dtd">
<!-- Generated by graphviz version 2.43.0 (0)
 -->
<!-- Title: dnf_composer::tools::math::gauss Pages: 1 -->
<svg width="562pt" height="419pt"
 viewBox="0.00 0.00 562.00 419.00" xmlns="http://www.w3.org/2000/svg" xmlns:xlink="http://www.w3.org/1999/xlink">
<g id="graph0" class="graph" transform="scale(1 1) rotate(0) translate(4 415)">
<title>dnf_composer::tools::math::gauss</title>
<!-- Node1 -->
<g id="Node000001" class="node">
<title>Node1</title>
<g id="a_Node000001"><a xlink:title=" ">
<polygon fill="#999999" stroke="#666666" points="554,-220.5 438,-220.5 438,-190.5 554,-190.5 554,-220.5"/>
<text text-anchor="start" x="446" y="-208.5" font-family="Helvetica,sans-Serif" font-size="10.00">dnf_composer::tools</text>
<text text-anchor="middle" x="496" y="-197.5" font-family="Helvetica,sans-Serif" font-size="10.00">::math::gauss</text>
</a>
</g>
</g>
<!-- Node2 -->
<g id="Node000002" class="node">
<title>Node2</title>
<g id="a_Node000002"><a xlink:href="classdnf__composer_1_1element_1_1AsymmetricGaussKernel.html#a96e938df35bc5c5b9944201750e5ff83" target="_top" xlink:title="Initialize the element (called once before the simulation loop).">
<polygon fill="white" stroke="#666666" points="395,-398.5 231,-398.5 231,-368.5 395,-368.5 395,-398.5"/>
<text text-anchor="start" x="239" y="-386.5" font-family="Helvetica,sans-Serif" font-size="10.00">dnf_composer::element</text>
<text text-anchor="middle" x="313" y="-375.5" font-family="Helvetica,sans-Serif" font-size="10.00">::AsymmetricGaussKernel::init</text>
</a>
</g>
</g>
<!-- Node1&#45;&gt;Node2 -->
<g id="edge1_Node000001_Node000002" class="edge">
<title>Node1&#45;&gt;Node2</title>
<g id="a_edge1_Node000001_Node000002"><a xlink:title=" ">
<path fill="none" stroke="#63b8ff" d="M485.39,-230.42C471.63,-262.93 443.35,-319.56 402,-352.5 393.77,-359.06 384.04,-364.29 374.11,-368.44"/>
<polygon fill="#63b8ff" stroke="#63b8ff" points="488.79,-231.35 489.34,-220.77 482.31,-228.69 488.79,-231.35"/>
</a>
</g>
</g>
<!-- Node4 -->
<g id="Node000004" class="node">
<title>Node4</title>
<g id="a_Node000004"><a xlink:href="classdnf__composer_1_1element_1_1AsymmetricGaussKernel2D.html#a8234958fc93042c32fa069831a7034c5" target="_top" xlink:title="Initialize the element (called once before the simulation loop).">
<polygon fill="white" stroke="#666666" points="402,-343.5 224,-343.5 224,-313.5 402,-313.5 402,-343.5"/>
<text text-anchor="start" x="232" y="-331.5" font-family="Helvetica,sans-Serif" font-size="10.00">dnf_composer::element</text>
<text text-anchor="middle" x="313" y="-320.5" font-family="Helvetica,sans-Serif" font-size="10.00">::AsymmetricGaussKernel2D::init</text>
</a>
</g>
</g>
<!-- Node1&#45;&gt;Node4 -->
<g id="edge3_Node000001_Node000004" class="edge">
<title>Node1&#45;&gt;Node4</title>
<g id="a_edge3_Node000001_Node000004"><a xlink:title=" ">
<path fill="none" stroke="#63b8ff" d="M478.02,-228.87C461.06,-250.62 433.1,-282.46 402,-301.5 394.37,-306.17 385.86,-310.09 377.24,-313.37"/>
<polygon fill="#63b8ff" stroke="#63b8ff" points="480.89,-230.87 484.17,-220.8 475.33,-226.63 480.89,-230.87"/>
</a>
</g>
</g>
<!-- Node6 -->
<g id="Node000006" class="node">
<title>Node6</title>
<g id="a_Node000006"><a xlink:href="classdnf__composer_1_1element_1_1GaussKernel.html#a287d7d8ff2d471d38fc915b73c0422bd" target="_top" xlink:title="Initialize the element (called once before the simulation loop).">
<polygon fill="white" stroke="#666666" points="379,-292.5 247,-292.5 247,-262.5 379,-262.5 379,-292.5"/>
<text text-anchor="start" x="255" y="-280.5" font-family="Helvetica,sans-Serif" font-size="10.00">dnf_composer::element</text>
<text text-anchor="middle" x="313" y="-269.5" font-family="Helvetica,sans-Serif" font-size="10.00">::GaussKernel::init</text>
</a>
</g>
</g>
<!-- Node1&#45;&gt;Node6 -->
<g id="edge5_Node000001_Node000006" class="edge">
<title>Node1&#45;&gt;Node6</title>
<g id="a_edge5_Node000001_Node000006"><a xlink:title=" ">
<path fill="none" stroke="#63b8ff" d="M460.16,-225.7C443.04,-235.05 421.86,-245.77 402,-253.5 393.59,-256.78 384.56,-259.78 375.61,-262.48"/>
<polygon fill="#63b8ff" stroke="#63b8ff" points="462.18,-228.58 469.23,-220.67 458.78,-222.46 462.18,-228.58"/>
</a>
</g>
</g>
<!-- Node8 -->
<g id="Node000008" class="node">
<title>Node8</title>
<g id="a_Node000008"><a xlink:href="classdnf__composer_1_1element_1_1GaussKernel2D.html#a039b5f0baaeb7e4a47195a7b4806df19" target="_top" xlink:title="Initialize the element (called once before the simulation loop).">
<polygon fill="white" stroke="#666666" points="379,-244.5 247,-244.5 247,-214.5 379,-214.5 379,-244.5"/>
<text text-anchor="start" x="255" y="-232.5" font-family="Helvetica,sans-Serif" font-size="10.00">dnf_composer::element</text>
<text text-anchor="middle" x="313" y="-221.5" font-family="Helvetica,sans-Serif" font-size="10.00">::GaussKernel2D::init</text>
</a>
</g>
</g>
<!-- Node1&#45;&gt;Node8 -->
<g id="edge7_Node000001_Node000008" class="edge">
<title>Node1&#45;&gt;Node8</title>
<g id="a_edge7_Node000001_Node000008"><a xlink:title=" ">
<path fill="none" stroke="#63b8ff" d="M427.49,-214.45C411.66,-216.55 394.82,-218.78 379.09,-220.87"/>
<polygon fill="#63b8ff" stroke="#63b8ff" points="428.28,-217.88 437.73,-213.09 427.36,-210.94 428.28,-217.88"/>
</a>
</g>
</g>
<!-- Node10 -->
<g id="Node000010" class="node">
<title>Node10</title>
<g id="a_Node000010"><a xlink:href="classdnf__composer_1_1element_1_1GaussStimulus.html#a3677ed68684c7cd362e7e54f42fafb06" target="_top" xlink:title="Initialize the element (called once before the simulation loop).">
<polygon fill="white" stroke="#666666" points="379,-196.5 247,-196.5 247,-166.5 379,-166.5 379,-196.5"/>
<text text-anchor="start" x="255" y="-184.5" font-family="Helvetica,sans-Serif" font-size="10.00">dnf_composer::element</text>
<text text-anchor="middle" x="313" y="-173.5" font-family="Helvetica,sans-Serif" font-size="10.00">::GaussStimulus::init</text>
</a>
</g>
</g>
<!-- Node1&#45;&gt;Node10 -->
<g id="edge9_Node000001_Node000010" class="edge">
<title>Node1&#45;&gt;Node10</title>
<g id="a_edge9_Node000001_Node000010"><a xlink:title=" ">
<path fill="none" stroke="#63b8ff" d="M427.49,-196.55C411.66,-194.45 394.82,-192.22 379.09,-190.13"/>
<polygon fill="#63b8ff" stroke="#63b8ff" points="427.36,-200.06 437.73,-197.91 428.28,-193.12 427.36,-200.06"/>
</a>
</g>
</g>
<!-- Node12 -->
<g id="Node000012" class="node">
<title>Node12</title>
<g id="a_Node000012"><a xlink:href="classdnf__composer_1_1element_1_1MexicanHatKernel.html#ad80d75e45cea14a7d222559ae88d0c48" target="_top" xlink:title="Initialize the element (called once before the simulation loop).">
<polygon fill="white" stroke="#666666" points="380,-148.5 246,-148.5 246,-118.5 380,-118.5 380,-148.5"/>
<text text-anchor="start" x="254" y="-136.5" font-family="Helvetica,sans-Serif" font-size="10.00">dnf_composer::element</text>
<text text-anchor="middle" x="313" y="-125.5" font-family="Helvetica,sans-Serif" font-size="10.00">::MexicanHatKernel::init</text>
</a>
</g>
</g>
<!-- Node1&#45;&gt;Node12 -->
<g id="edge11_Node000001_Node000012" class="edge">
<title>Node1&#45;&gt;Node12</title>
<g id="a_edge11_Node000001_Node000012"><a xlink:title=" ">
<path fill="none" stroke="#63b8ff" d="M460.16,-185.3C443.04,-175.95 421.86,-165.23 402,-157.5 393.59,-154.22 384.56,-151.22 375.61,-148.52"/>
<polygon fill="#63b8ff" stroke="#63b8ff" points="458.78,-188.54 469.23,-190.33 462.18,-182.42 458.78,-188.54"/>
</a>
</g>
</g>
<!-- Node14 -->
<g id="Node000014" class="node">
<title>Node14</title>
<g id="a_Node000014"><a xlink:href="classdnf__composer_1_1element_1_1MexicanHatKernel2D.html#aee7c3a1257606ea3a13a3436a17e0a61" target="_top" xlink:title="Initialize the element (called once before the simulation loop).">
<polygon fill="white" stroke="#666666" points="386.5,-97.5 239.5,-97.5 239.5,-67.5 386.5,-67.5 386.5,-97.5"/>
<text text-anchor="start" x="247.5" y="-85.5" font-family="Helvetica,sans-Serif" font-size="10.00">dnf_composer::element</text>
<text text-anchor="middle" x="313" y="-74.5" font-family="Helvetica,sans-Serif" font-size="10.00">::MexicanHatKernel2D::init</text>
</a>
</g>
</g>
<!-- Node1&#45;&gt;Node14 -->
<g id="edge13_Node000001_Node000014" class="edge">
<title>Node1&#45;&gt;Node14</title>
<g id="a_edge13_Node000001_Node000014"><a xlink:title=" ">
<path fill="none" stroke="#63b8ff" d="M478.02,-182.13C461.06,-160.38 433.1,-128.54 402,-109.5 394.37,-104.83 385.86,-100.91 377.24,-97.63"/>
<polygon fill="#63b8ff" stroke="#63b8ff" points="475.33,-184.37 484.17,-190.2 480.89,-180.13 475.33,-184.37"/>
</a>
</g>
</g>
<!-- Node16 -->
<g id="Node000016" class="node">
<title>Node16</title>
<g id="a_Node000016"><a xlink:href="classdnf__composer_1_1element_1_1TimedGaussStimulus.html#a7cb7acb2e4c8ece790553cb21d4c33dd" target="_top" xlink:title="Initialize the element (called once before the simulation loop).">
<polygon fill="white" stroke="#666666" points="387,-44.5 239,-44.5 239,-14.5 387,-14.5 387,-44.5"/>
<text text-anchor="start" x="247" y="-32.5" font-family="Helvetica,sans-Serif" font-size="10.00">dnf_composer::element</text>
<text text-anchor="middle" x="313" y="-21.5" font-family="Helvetica,sans-Serif" font-size="10.00">::TimedGaussStimulus::init</text>
</a>
</g>
</g>
<!-- Node1&#45;&gt;Node16 -->
<g id="edge15_Node000001_Node000016" class="edge">
<title>Node1&#45;&gt;Node16</title>
<g id="a_edge15_Node000001_Node000016"><a xlink:title=" ">
<path fill="none" stroke="#63b8ff" d="M485.49,-180.46C471.84,-147.8 443.68,-91.02 402,-58.5 394.77,-52.86 386.4,-48.29 377.75,-44.6"/>
<polygon fill="#63b8ff" stroke="#63b8ff" points="482.41,-182.19 489.41,-190.15 488.9,-179.57 482.41,-182.19"/>
</a>
</g>
</g>
<!-- Node3 -->
<g id="Node000003" class="node">
<title>Node3</title>
<g id="a_Node000003"><a xlink:href="classdnf__composer_1_1element_1_1AsymmetricGaussKernel.html#aa692c282d0b5b78e54d15664166a06eb" target="_top" xlink:title=" ">
<polygon fill="white" stroke="#666666" points="165.5,-411 22.5,-411 22.5,-370 165.5,-370 165.5,-411"/>
<text text-anchor="start" x="30.5" y="-399" font-family="Helvetica,sans-Serif" font-size="10.00">dnf_composer::element</text>
<text text-anchor="start" x="30.5" y="-388" font-family="Helvetica,sans-Serif" font-size="10.00">::AsymmetricGaussKernel</text>
<text text-anchor="middle" x="94" y="-377" font-family="Helvetica,sans-Serif" font-size="10.00">::setParameters</text>
</a>
</g>
</g>
<!-- Node2&#45;&gt;Node3 -->
<g id="edge2_Node000002_Node000003" class="edge">
<title>Node2&#45;&gt;Node3</title>
<g id="a_edge2_Node000002_Node000003"><a xlink:title=" ">
<path fill="none" stroke="#63b8ff" d="M220.75,-386.44C202.34,-387.04 183.25,-387.65 165.68,-388.22"/>
<polygon fill="#63b8ff" stroke="#63b8ff" points="221.01,-389.94 230.89,-386.12 220.78,-382.94 221.01,-389.94"/>
</a>
</g>
</g>
<!-- Node5 -->
<g id="Node000005" class="node">
<title>Node5</title>
<g id="a_Node000005"><a xlink:href="classdnf__composer_1_1element_1_1AsymmetricGaussKernel2D.html#afbef9cba9917c5548463b4e8a7cec7fd" target="_top" xlink:title=" ">
<polygon fill="white" stroke="#666666" points="172,-352 16,-352 16,-311 172,-311 172,-352"/>
<text text-anchor="start" x="24" y="-340" font-family="Helvetica,sans-Serif" font-size="10.00">dnf_composer::element</text>
<text text-anchor="start" x="24" y="-329" font-family="Helvetica,sans-Serif" font-size="10.00">::AsymmetricGaussKernel2D</text>
<text text-anchor="middle" x="94" y="-318" font-family="Helvetica,sans-Serif" font-size="10.00">::setParameters</text>
</a>
</g>
</g>
<!-- Node4&#45;&gt;Node5 -->
<g id="edge4_Node000004_Node000005" class="edge">
<title>Node4&#45;&gt;Node5</title>
<g id="a_edge4_Node000004_Node000005"><a xlink:title=" ">
<path fill="none" stroke="#63b8ff" d="M213.63,-329.86C199.68,-330.05 185.51,-330.25 172.04,-330.43"/>
<polygon fill="#63b8ff" stroke="#63b8ff" points="213.79,-333.36 223.74,-329.72 213.69,-326.36 213.79,-333.36"/>
</a>
</g>
</g>
<!-- Node7 -->
<g id="Node000007" class="node">
<title>Node7</title>
<g id="a_Node000007"><a xlink:href="classdnf__composer_1_1element_1_1GaussKernel.html#a36639a54ade8b0154ed3419f2b0e1650" target="_top" xlink:title=" ">
<polygon fill="white" stroke="#666666" points="174,-292.5 14,-292.5 14,-262.5 174,-262.5 174,-292.5"/>
<text text-anchor="start" x="22" y="-280.5" font-family="Helvetica,sans-Serif" font-size="10.00">dnf_composer::element</text>
<text text-anchor="middle" x="94" y="-269.5" font-family="Helvetica,sans-Serif" font-size="10.00">::GaussKernel::setParameters</text>
</a>
</g>
</g>
<!-- Node6&#45;&gt;Node7 -->
<g id="edge6_Node000006_Node000007" class="edge">
<title>Node6&#45;&gt;Node7</title>
<g id="a_edge6_Node000006_Node000007"><a xlink:title=" ">
<path fill="none" stroke="#63b8ff" d="M236.81,-277.5C216.6,-277.5 194.68,-277.5 174.25,-277.5"/>
<polygon fill="#63b8ff" stroke="#63b8ff" points="236.89,-281 246.89,-277.5 236.89,-274 236.89,-281"/>
</a>
</g>
</g>
<!-- Node9 -->
<g id="Node000009" class="node">
<title>Node9</title>
<g id="a_Node000009"><a xlink:href="classdnf__composer_1_1element_1_1GaussKernel2D.html#a8206313c9478fa50f995e397e4dd9738" target="_top" xlink:title=" ">
<polygon fill="white" stroke="#666666" points="180.5,-244.5 7.5,-244.5 7.5,-214.5 180.5,-214.5 180.5,-244.5"/>
<text text-anchor="start" x="15.5" y="-232.5" font-family="Helvetica,sans-Serif" font-size="10.00">dnf_composer::element</text>
<text text-anchor="middle" x="94" y="-221.5" font-family="Helvetica,sans-Serif" font-size="10.00">::GaussKernel2D::setParameters</text>
</a>
</g>
</g>
<!-- Node8&#45;&gt;Node9 -->
<g id="edge8_Node000008_Node000009" class="edge">
<title>Node8&#45;&gt;Node9</title>
<g id="a_edge8_Node000008_Node000009"><a xlink:title=" ">
<path fill="none" stroke="#63b8ff" d="M236.69,-229.5C218.58,-229.5 199.1,-229.5 180.56,-229.5"/>
<polygon fill="#63b8ff" stroke="#63b8ff" points="236.89,-233 246.89,-229.5 236.89,-226 236.89,-233"/>
</a>
</g>
</g>
<!-- Node11 -->
<g id="Node000011" class="node">
<title>Node11</title>
<g id="a_Node000011"><a xlink:href="classdnf__composer_1_1element_1_1GaussStimulus.html#af05b6b8c812a9db74fd719824bfdfaca" target="_top" xlink:title=" ">
<polygon fill="white" stroke="#666666" points="180,-196.5 8,-196.5 8,-166.5 180,-166.5 180,-196.5"/>
<text text-anchor="start" x="16" y="-184.5" font-family="Helvetica,sans-Serif" font-size="10.00">dnf_composer::element</text>
<text text-anchor="middle" x="94" y="-173.5" font-family="Helvetica,sans-Serif" font-size="10.00">::GaussStimulus::setParameters</text>
</a>
</g>
</g>
<!-- Node10&#45;&gt;Node11 -->
<g id="edge10_Node000010_Node000011" class="edge">
<title>Node10&#45;&gt;Node11</title>
<g id="a_edge10_Node000010_Node000011"><a xlink:title=" ">
<path fill="none" stroke="#63b8ff" d="M236.89,-181.5C218.59,-181.5 198.89,-181.5 180.16,-181.5"/>
<polygon fill="#63b8ff" stroke="#63b8ff" points="236.89,-185 246.89,-181.5 236.89,-178 236.89,-185"/>
</a>
</g>
</g>
<!-- Node13 -->
<g id="Node000013" class="node">
<title>Node13</title>
<g id="a_Node000013"><a xlink:href="classdnf__composer_1_1element_1_1MexicanHatKernel.html#a4aa49909a155682d613a1f6284c90601" target="_top" xlink:title=" ">
<polygon fill="white" stroke="#666666" points="188,-148.5 0,-148.5 0,-118.5 188,-118.5 188,-148.5"/>
<text text-anchor="start" x="8" y="-136.5" font-family="Helvetica,sans-Serif" font-size="10.00">dnf_composer::element</text>
<text text-anchor="middle" x="94" y="-125.5" font-family="Helvetica,sans-Serif" font-size="10.00">::MexicanHatKernel::setParameters</text>
</a>
</g>
</g>
<!-- Node12&#45;&gt;Node13 -->
<g id="edge12_Node000012_Node000013" class="edge">
<title>Node12&#45;&gt;Node13</title>
<g id="a_edge12_Node000012_Node000013"><a xlink:title=" ">
<path fill="none" stroke="#63b8ff" d="M235.3,-133.5C220.01,-133.5 203.8,-133.5 188.04,-133.5"/>
<polygon fill="#63b8ff" stroke="#63b8ff" points="235.71,-137 245.71,-133.5 235.71,-130 235.71,-137"/>
</a>
</g>
</g>
<!-- Node15 -->
<g id="Node000015" class="node">
<title>Node15</title>
<g id="a_Node000015"><a xlink:href="classdnf__composer_1_1element_1_1MexicanHatKernel2D.html#a5f4f3aeeccf58debe0e57e786f1bf57e" target="_top" xlink:title=" ">
<polygon fill="white" stroke="#666666" points="160,-100 28,-100 28,-59 160,-59 160,-100"/>
<text text-anchor="start" x="36" y="-88" font-family="Helvetica,sans-Serif" font-size="10.00">dnf_composer::element</text>
<text text-anchor="start" x="36" y="-77" font-family="Helvetica,sans-Serif" font-size="10.00">::MexicanHatKernel2D</text>
<text text-anchor="middle" x="94" y="-66" font-family="Helvetica,sans-Serif" font-size="10.00">::setParameters</text>
</a>
</g>
</g>
<!-- Node14&#45;&gt;Node15 -->
<g id="edge14_Node000014_Node000015" class="edge">
<title>Node14&#45;&gt;Node15</title>
<g id="a_edge14_Node000014_Node000015"><a xlink:title=" ">
<path fill="none" stroke="#63b8ff" d="M229.39,-81.36C206.49,-81.04 181.95,-80.7 160.19,-80.4"/>
<polygon fill="#63b8ff" stroke="#63b8ff" points="229.39,-84.86 239.44,-81.5 229.49,-77.86 229.39,-84.86"/>
</a>
</g>
</g>
<!-- Node17 -->
<g id="Node000017" class="node">
<title>Node17</title>
<g id="a_Node000017"><a xlink:href="classdnf__composer_1_1element_1_1TimedGaussStimulus.html#ad3728cf451116c584642eee5ee422cd3" target="_top" xlink:title=" ">
<polygon fill="white" stroke="#666666" points="160,-41 28,-41 28,0 160,0 160,-41"/>
<text text-anchor="start" x="36" y="-29" font-family="Helvetica,sans-Serif" font-size="10.00">dnf_composer::element</text>
<text text-anchor="start" x="36" y="-18" font-family="Helvetica,sans-Serif" font-size="10.00">::TimedGaussStimulus</text>
<text text-anchor="middle" x="94" y="-7" font-family="Helvetica,sans-Serif" font-size="10.00">::setParameters</text>
</a>
</g>
</g>
<!-- Node16&#45;&gt;Node17 -->
<g id="edge16_Node000016_Node000017" class="edge">
<title>Node16&#45;&gt;Node17</title>
<g id="a_edge16_Node000016_Node000017"><a xlink:title=" ">
<path fill="none" stroke="#63b8ff" d="M228.55,-26.04C205.89,-25.1 181.69,-24.1 160.2,-23.2"/>
<polygon fill="#63b8ff" stroke="#63b8ff" points="228.7,-29.55 238.84,-26.47 228.99,-22.55 228.7,-29.55"/>
</a>
</g>
</g>
</g>
</svg>
