<?xml version="1.0" encoding="UTF-8" standalone="no"?>
<!DOCTYPE svg PUBLIC "-//W3C//DTD SVG 1.1//EN"
 "http://www.w3.org/Graphics/SVG/1.1/DTD/svg11.dtd">
<!-- Generated by graphviz version 2.43.0 (0)
 -->
<!-- Title: dnf_composer::tools::utils::getResourceRoot Pages: 1 -->
<svg width="565pt" height="220pt"
 viewBox="0.00 0.00 565.00 220.00" xmlns="http://www.w3.org/2000/svg" xmlns:xlink="http://www.w3.org/1999/xlink">
<g id="graph0" class="graph" transform="scale(1 1) rotate(0) translate(4 216)">
<title>dnf_composer::tools::utils::getResourceRoot</title>
<!-- Node1 -->
<g id="Node000001" class="node">
<title>Node1</title>
<g id="a_Node000001"><a xlink:title=" ">
<polygon fill="#999999" stroke="#666666" points="557,-116 424,-116 424,-86 557,-86 557,-116"/>
<text text-anchor="start" x="432" y="-104" font-family="Helvetica,sans-Serif" font-size="10.00">dnf_composer::tools</text>
<text text-anchor="middle" x="490.5" y="-93" font-family="Helvetica,sans-Serif" font-size="10.00">::utils::getResourceRoot</text>
</a>
</g>
</g>
<!-- Node2 -->
<g id="Node000002" class="node">
<title>Node2</title>
<g id="a_Node000002"><a xlink:href="classdnf__composer_1_1Simulation.html#ab793cd0a18d45717e78440e4eada4dc2" target="_top" xlink:title="Write the named component to a CSV file in the output directory.">
<polygon fill="white" stroke="#666666" points="362.5,-212 218.5,-212 218.5,-182 362.5,-182 362.5,-212"/>
<text text-anchor="start" x="226.5" y="-200" font-family="Helvetica,sans-Serif" font-size="10.00">dnf_composer::Simulation</text>
<text text-anchor="middle" x="290.5" y="-189" font-family="Helvetica,sans-Serif" font-size="10.00">::exportComponentToFile</text>
</a>
</g>
</g>
<!-- Node1&#45;&gt;Node2 -->
<g id="edge1_Node000001_Node000002" class="edge">
<title>Node1&#45;&gt;Node2</title>
<g id="a_edge1_Node000001_Node000002"><a xlink:title=" ">
<path fill="none" stroke="#63b8ff" d="M464.6,-122.71C445,-138.75 416.35,-159.99 388,-173 380,-176.67 371.35,-179.84 362.64,-182.54"/>
<polygon fill="#63b8ff" stroke="#63b8ff" points="466.98,-125.28 472.42,-116.19 462.5,-119.9 466.98,-125.28"/>
</a>
</g>
</g>
<!-- Node3 -->
<g id="Node000003" class="node">
<title>Node3</title>
<g id="a_Node000003"><a xlink:href="classdnf__composer_1_1element_1_1FieldCoupling.html#a7af578f4c654acfce33920528d239c7d" target="_top" xlink:title="Construct a FieldCoupling.">
<polygon fill="white" stroke="#666666" points="371,-164 210,-164 210,-134 371,-134 371,-164"/>
<text text-anchor="start" x="218" y="-152" font-family="Helvetica,sans-Serif" font-size="10.00">dnf_composer::element</text>
<text text-anchor="middle" x="290.5" y="-141" font-family="Helvetica,sans-Serif" font-size="10.00">::FieldCoupling::FieldCoupling</text>
</a>
</g>
</g>
<!-- Node1&#45;&gt;Node3 -->
<g id="edge2_Node000001_Node000003" class="edge">
<title>Node1&#45;&gt;Node3</title>
<g id="a_edge2_Node000001_Node000003"><a xlink:title=" ">
<path fill="none" stroke="#63b8ff" d="M417.55,-118.44C396.52,-123.54 373.73,-129.07 353.38,-134"/>
<polygon fill="#63b8ff" stroke="#63b8ff" points="418.5,-121.81 427.39,-116.06 416.85,-115.01 418.5,-121.81"/>
</a>
</g>
</g>
<!-- Node4 -->
<g id="Node000004" class="node">
<title>Node4</title>
<g id="a_Node000004"><a xlink:href="classdnf__composer_1_1Application.html#ad9787ecf2d64ff85c949f2ba24784a08" target="_top" xlink:title="Initialize the GUI and all registered windows. Call once before step().">
<polygon fill="white" stroke="#666666" points="363.5,-116 217.5,-116 217.5,-86 363.5,-86 363.5,-116"/>
<text text-anchor="start" x="225.5" y="-104" font-family="Helvetica,sans-Serif" font-size="10.00">dnf_composer::Application</text>
<text text-anchor="middle" x="290.5" y="-93" font-family="Helvetica,sans-Serif" font-size="10.00">::init</text>
</a>
</g>
</g>
<!-- Node1&#45;&gt;Node4 -->
<g id="edge3_Node000001_Node000004" class="edge">
<title>Node1&#45;&gt;Node4</title>
<g id="a_edge3_Node000001_Node000004"><a xlink:title=" ">
<path fill="none" stroke="#63b8ff" d="M413.77,-101C397.37,-101 380.07,-101 363.8,-101"/>
<polygon fill="#63b8ff" stroke="#63b8ff" points="413.84,-104.5 423.84,-101 413.84,-97.5 413.84,-104.5"/>
</a>
</g>
</g>
<!-- Node5 -->
<g id="Node000005" class="node">
<title>Node5</title>
<g id="a_Node000005"><a xlink:href="namespaceFileDialog.html#a665aae6a75d9f9635f4bf7e8135b48c0" target="_top" xlink:title=" ">
<polygon fill="white" stroke="#666666" points="363.5,-67.5 217.5,-67.5 217.5,-48.5 363.5,-48.5 363.5,-67.5"/>
<text text-anchor="middle" x="290.5" y="-55.5" font-family="Helvetica,sans-Serif" font-size="10.00">FileDialog::ShowFileDialog</text>
</a>
</g>
</g>
<!-- Node1&#45;&gt;Node5 -->
<g id="edge4_Node000001_Node000005" class="edge">
<title>Node1&#45;&gt;Node5</title>
<g id="a_edge4_Node000001_Node000005"><a xlink:title=" ">
<path fill="none" stroke="#63b8ff" d="M417.7,-83.67C407.74,-81.37 397.62,-79.08 388,-77 372.98,-73.75 356.59,-70.43 341.66,-67.5"/>
<polygon fill="#63b8ff" stroke="#63b8ff" points="417.05,-87.11 427.59,-85.97 418.64,-80.29 417.05,-87.11"/>
</a>
</g>
</g>
<!-- Node7 -->
<g id="Node000007" class="node">
<title>Node7</title>
<g id="a_Node000007"><a xlink:href="classdnf__composer_1_1SimulationFileManager.html#ac3c402cf84127446d2b2aba586bae542" target="_top" xlink:title="Construct a SimulationFileManager.">
<polygon fill="white" stroke="#666666" points="388,-30 193,-30 193,0 388,0 388,-30"/>
<text text-anchor="start" x="201" y="-18" font-family="Helvetica,sans-Serif" font-size="10.00">dnf_composer::Simulation</text>
<text text-anchor="middle" x="290.5" y="-7" font-family="Helvetica,sans-Serif" font-size="10.00">FileManager::SimulationFileManager</text>
</a>
</g>
</g>
<!-- Node1&#45;&gt;Node7 -->
<g id="edge6_Node000001_Node000007" class="edge">
<title>Node1&#45;&gt;Node7</title>
<g id="a_edge6_Node000001_Node000007"><a xlink:title=" ">
<path fill="none" stroke="#63b8ff" d="M459.81,-80.03C440.19,-66.97 413.48,-50.69 388,-40 379.06,-36.25 369.42,-32.94 359.8,-30.07"/>
<polygon fill="#63b8ff" stroke="#63b8ff" points="458.05,-83.06 468.29,-85.77 461.97,-77.26 458.05,-83.06"/>
</a>
</g>
</g>
<!-- Node6 -->
<g id="Node000006" class="node">
<title>Node6</title>
<g id="a_Node000006"><a xlink:href="namespaceFileDialog.html#ad9d1c40a19c4dac5851a6534c505914b" target="_top" xlink:title=" ">
<polygon fill="white" stroke="#666666" points="157,-67.5 0,-67.5 0,-48.5 157,-48.5 157,-67.5"/>
<text text-anchor="middle" x="78.5" y="-55.5" font-family="Helvetica,sans-Serif" font-size="10.00">FileDialog::ShowFileDialog_s</text>
</a>
</g>
</g>
<!-- Node5&#45;&gt;Node6 -->
<g id="edge5_Node000005_Node000006" class="edge">
<title>Node5&#45;&gt;Node6</title>
<g id="a_edge5_Node000005_Node000006"><a xlink:title=" ">
<path fill="none" stroke="#63b8ff" d="M207.13,-58C190.72,-58 173.53,-58 157.28,-58"/>
<polygon fill="#63b8ff" stroke="#63b8ff" points="207.23,-61.5 217.23,-58 207.23,-54.5 207.23,-61.5"/>
</a>
</g>
</g>
</g>
</svg>
