<?xml version="1.0" encoding="UTF-8" standalone="no"?>
<!DOCTYPE svg PUBLIC "-//W3C//DTD SVG 1.1//EN"
 "http://www.w3.org/Graphics/SVG/1.1/DTD/svg11.dtd">
<!-- Generated by graphviz version 2.43.0 (0)
 -->
<!-- Title: dnf_composer::element::getElementCategoryInfo Pages: 1 -->
<svg width="774pt" height="167pt"
 viewBox="0.00 0.00 774.00 167.00" xmlns="http://www.w3.org/2000/svg" xmlns:xlink="http://www.w3.org/1999/xlink">
<g id="graph0" class="graph" transform="scale(1 1) rotate(0) translate(4 163)">
<title>dnf_composer::element::getElementCategoryInfo</title>
<!-- Node1 -->
<g id="Node000001" class="node">
<title>Node1</title>
<g id="a_Node000001"><a xlink:title="Category info for a label, or an UNKNOWN/grey fallback.">
<polygon fill="#999999" stroke="#666666" points="766,-94.5 624,-94.5 624,-64.5 766,-64.5 766,-94.5"/>
<text text-anchor="start" x="632" y="-82.5" font-family="Helvetica,sans-Serif" font-size="10.00">dnf_composer::element</text>
<text text-anchor="middle" x="695" y="-71.5" font-family="Helvetica,sans-Serif" font-size="10.00">::getElementCategoryInfo</text>
</a>
</g>
</g>
<!-- Node2 -->
<g id="Node000002" class="node">
<title>Node2</title>
<g id="a_Node000002"><a xlink:href="classdnf__composer_1_1user__interface_1_1ElementWindow.html#a3a560b6dda3f430c27e918cf398d99e3" target="_top" xlink:title=" ">
<polygon fill="white" stroke="#666666" points="569,-159 417,-159 417,-118 569,-118 569,-159"/>
<text text-anchor="start" x="425" y="-147" font-family="Helvetica,sans-Serif" font-size="10.00">dnf_composer::user</text>
<text text-anchor="start" x="425" y="-136" font-family="Helvetica,sans-Serif" font-size="10.00">_interface::ElementWindow</text>
<text text-anchor="middle" x="493" y="-125" font-family="Helvetica,sans-Serif" font-size="10.00">::renderElementControlCard</text>
</a>
</g>
</g>
<!-- Node1&#45;&gt;Node2 -->
<g id="edge1_Node000001_Node000002" class="edge">
<title>Node1&#45;&gt;Node2</title>
<g id="a_edge1_Node000001_Node000002"><a xlink:title=" ">
<path fill="none" stroke="#63b8ff" d="M633.18,-97.44C611.26,-103.91 586.37,-111.25 563.76,-117.92"/>
<polygon fill="#63b8ff" stroke="#63b8ff" points="634.41,-100.73 643.01,-94.54 632.43,-94.01 634.41,-100.73"/>
</a>
</g>
</g>
<!-- Node4 -->
<g id="Node000004" class="node">
<title>Node4</title>
<g id="a_Node000004"><a xlink:href="classdnf__composer_1_1user__interface_1_1SimulationWindow.html#a3630c30901d2b73b1eaa20b40825f6f4" target="_top" xlink:title=" ">
<polygon fill="white" stroke="#666666" points="588,-100 398,-100 398,-59 588,-59 588,-100"/>
<text text-anchor="start" x="406" y="-88" font-family="Helvetica,sans-Serif" font-size="10.00">dnf_composer::user</text>
<text text-anchor="start" x="406" y="-77" font-family="Helvetica,sans-Serif" font-size="10.00">_interface::SimulationWindow</text>
<text text-anchor="middle" x="493" y="-66" font-family="Helvetica,sans-Serif" font-size="10.00">::renderLogElementParametersCard</text>
</a>
</g>
</g>
<!-- Node1&#45;&gt;Node4 -->
<g id="edge3_Node000001_Node000004" class="edge">
<title>Node1&#45;&gt;Node4</title>
<g id="a_edge3_Node000001_Node000004"><a xlink:title=" ">
<path fill="none" stroke="#63b8ff" d="M613.69,-79.5C605.33,-79.5 596.78,-79.5 588.28,-79.5"/>
<polygon fill="#63b8ff" stroke="#63b8ff" points="613.77,-83 623.77,-79.5 613.77,-76 613.77,-83"/>
</a>
</g>
</g>
<!-- Node7 -->
<g id="Node000007" class="node">
<title>Node7</title>
<g id="a_Node000007"><a xlink:href="classdnf__composer_1_1user__interface_1_1SimulationWindow.html#a58938ca889b91293bb674ffdef45b226" target="_top" xlink:title=" ">
<polygon fill="white" stroke="#666666" points="574.5,-41 411.5,-41 411.5,0 574.5,0 574.5,-41"/>
<text text-anchor="start" x="419.5" y="-29" font-family="Helvetica,sans-Serif" font-size="10.00">dnf_composer::user</text>
<text text-anchor="start" x="419.5" y="-18" font-family="Helvetica,sans-Serif" font-size="10.00">_interface::SimulationWindow</text>
<text text-anchor="middle" x="493" y="-7" font-family="Helvetica,sans-Serif" font-size="10.00">::renderRemoveElementCard</text>
</a>
</g>
</g>
<!-- Node1&#45;&gt;Node7 -->
<g id="edge6_Node000001_Node000007" class="edge">
<title>Node1&#45;&gt;Node7</title>
<g id="a_edge6_Node000001_Node000007"><a xlink:title=" ">
<path fill="none" stroke="#63b8ff" d="M633.18,-61.56C611.26,-55.09 586.37,-47.75 563.76,-41.08"/>
<polygon fill="#63b8ff" stroke="#63b8ff" points="632.43,-64.99 643.01,-64.46 634.41,-58.27 632.43,-64.99"/>
</a>
</g>
</g>
<!-- Node3 -->
<g id="Node000003" class="node">
<title>Node3</title>
<g id="a_Node000003"><a xlink:href="classdnf__composer_1_1user__interface_1_1ElementWindow.html#a887f3bb041e6b782122c3e7638833cf5" target="_top" xlink:title=" ">
<polygon fill="white" stroke="#666666" points="356,-159 205,-159 205,-118 356,-118 356,-159"/>
<text text-anchor="start" x="213" y="-147" font-family="Helvetica,sans-Serif" font-size="10.00">dnf_composer::user</text>
<text text-anchor="start" x="213" y="-136" font-family="Helvetica,sans-Serif" font-size="10.00">_interface::ElementWindow</text>
<text text-anchor="middle" x="280.5" y="-125" font-family="Helvetica,sans-Serif" font-size="10.00">::render</text>
</a>
</g>
</g>
<!-- Node2&#45;&gt;Node3 -->
<g id="edge2_Node000002_Node000003" class="edge">
<title>Node2&#45;&gt;Node3</title>
<g id="a_edge2_Node000002_Node000003"><a xlink:title=" ">
<path fill="none" stroke="#63b8ff" d="M406.61,-138.5C389.92,-138.5 372.53,-138.5 356.22,-138.5"/>
<polygon fill="#63b8ff" stroke="#63b8ff" points="406.9,-142 416.9,-138.5 406.9,-135 406.9,-142"/>
</a>
</g>
</g>
<!-- Node5 -->
<g id="Node000005" class="node">
<title>Node5</title>
<g id="a_Node000005"><a xlink:href="classdnf__composer_1_1user__interface_1_1SimulationWindow.html#ab1d68a0e88f02379e326b7b73170f8b8" target="_top" xlink:title=" ">
<polygon fill="white" stroke="#666666" points="362,-71 199,-71 199,-30 362,-30 362,-71"/>
<text text-anchor="start" x="207" y="-59" font-family="Helvetica,sans-Serif" font-size="10.00">dnf_composer::user</text>
<text text-anchor="start" x="207" y="-48" font-family="Helvetica,sans-Serif" font-size="10.00">_interface::SimulationWindow</text>
<text text-anchor="middle" x="280.5" y="-37" font-family="Helvetica,sans-Serif" font-size="10.00">::renderSidebarContents</text>
</a>
</g>
</g>
<!-- Node4&#45;&gt;Node5 -->
<g id="edge4_Node000004_Node000005" class="edge">
<title>Node4&#45;&gt;Node5</title>
<g id="a_edge4_Node000004_Node000005"><a xlink:title=" ">
<path fill="none" stroke="#63b8ff" d="M387.73,-65.14C379.11,-63.95 370.49,-62.76 362.08,-61.6"/>
<polygon fill="#63b8ff" stroke="#63b8ff" points="387.45,-68.63 397.83,-66.53 388.4,-61.69 387.45,-68.63"/>
</a>
</g>
</g>
<!-- Node6 -->
<g id="Node000006" class="node">
<title>Node6</title>
<g id="a_Node000006"><a xlink:href="classdnf__composer_1_1user__interface_1_1SimulationWindow.html#ac0c5ebab9dd16f951c2c231a8e1f6f34" target="_top" xlink:title=" ">
<polygon fill="white" stroke="#666666" points="163,-71 0,-71 0,-30 163,-30 163,-71"/>
<text text-anchor="start" x="8" y="-59" font-family="Helvetica,sans-Serif" font-size="10.00">dnf_composer::user</text>
<text text-anchor="start" x="8" y="-48" font-family="Helvetica,sans-Serif" font-size="10.00">_interface::SimulationWindow</text>
<text text-anchor="middle" x="81.5" y="-37" font-family="Helvetica,sans-Serif" font-size="10.00">::render</text>
</a>
</g>
</g>
<!-- Node5&#45;&gt;Node6 -->
<g id="edge5_Node000005_Node000006" class="edge">
<title>Node5&#45;&gt;Node6</title>
<g id="a_edge5_Node000005_Node000006"><a xlink:title=" ">
<path fill="none" stroke="#63b8ff" d="M188.78,-50.5C180.2,-50.5 171.55,-50.5 163.07,-50.5"/>
<polygon fill="#63b8ff" stroke="#63b8ff" points="188.8,-54 198.8,-50.5 188.8,-47 188.8,-54"/>
</a>
</g>
</g>
<!-- Node7&#45;&gt;Node5 -->
<g id="edge7_Node000007_Node000005" class="edge">
<title>Node7&#45;&gt;Node5</title>
<g id="a_edge7_Node000007_Node000005"><a xlink:title=" ">
<path fill="none" stroke="#63b8ff" d="M401.31,-33.42C388.26,-35.28 374.9,-37.19 362.07,-39.02"/>
<polygon fill="#63b8ff" stroke="#63b8ff" points="401.81,-36.89 411.22,-32.01 400.82,-29.96 401.81,-36.89"/>
</a>
</g>
</g>
</g>
</svg>
