<?xml version="1.0" encoding="UTF-8" standalone="no"?>
<!DOCTYPE svg PUBLIC "-//W3C//DTD SVG 1.1//EN"
 "http://www.w3.org/Graphics/SVG/1.1/DTD/svg11.dtd">
<!-- Generated by graphviz version 2.43.0 (0)
 -->
<!-- Title: FileDialog::ShowFileDialog_s Pages: 1 -->
<svg width="516pt" height="86pt"
 viewBox="0.00 0.00 516.00 86.00" xmlns="http://www.w3.org/2000/svg" xmlns:xlink="http://www.w3.org/1999/xlink">
<g id="graph0" class="graph" transform="scale(1 1) rotate(0) translate(4 82)">
<title>FileDialog::ShowFileDialog_s</title>
<!-- Node1 -->
<g id="Node000001" class="node">
<title>Node1</title>
<g id="a_Node000001"><a xlink:title=" ">
<polygon fill="#999999" stroke="#666666" points="157,-48.5 0,-48.5 0,-29.5 157,-29.5 157,-48.5"/>
<text text-anchor="middle" x="78.5" y="-36.5" font-family="Helvetica,sans-Serif" font-size="10.00">FileDialog::ShowFileDialog_s</text>
</a>
</g>
</g>
<!-- Node2 -->
<g id="Node000002" class="node">
<title>Node2</title>
<g id="a_Node000002"><a xlink:href="namespaceFileDialog.html#af82aa3eae9ac44a53ca5ede2df41b98f" target="_top" xlink:title=" ">
<polygon fill="white" stroke="#666666" points="339,-48.5 193,-48.5 193,-29.5 339,-29.5 339,-48.5"/>
<text text-anchor="middle" x="266" y="-36.5" font-family="Helvetica,sans-Serif" font-size="10.00">FileDialog::ShowFileDialog</text>
</a>
</g>
</g>
<!-- Node1&#45;&gt;Node2 -->
<g id="edge1_Node000001_Node000002" class="edge">
<title>Node1&#45;&gt;Node2</title>
<g id="a_edge1_Node000001_Node000002"><a xlink:title=" ">
<path fill="none" stroke="#63b8ff" d="M157.09,-39C165.49,-39 174.06,-39 182.52,-39"/>
<polygon fill="#63b8ff" stroke="#63b8ff" points="182.75,-42.5 192.75,-39 182.75,-35.5 182.75,-42.5"/>
</a>
</g>
</g>
<!-- Node3 -->
<g id="Node000003" class="node">
<title>Node3</title>
<g id="a_Node000003"><a xlink:href="namespacednf__composer_1_1tools_1_1utils.html#a140c0903ddcfc3ba01218f11d31608dc" target="_top" xlink:title=" ">
<polygon fill="white" stroke="#666666" points="508,-78 375,-78 375,-48 508,-48 508,-78"/>
<text text-anchor="start" x="383" y="-66" font-family="Helvetica,sans-Serif" font-size="10.00">dnf_composer::tools</text>
<text text-anchor="middle" x="441.5" y="-55" font-family="Helvetica,sans-Serif" font-size="10.00">::utils::getResourceRoot</text>
</a>
</g>
</g>
<!-- Node2&#45;&gt;Node3 -->
<g id="edge2_Node000002_Node000003" class="edge">
<title>Node2&#45;&gt;Node3</title>
<g id="a_edge2_Node000002_Node000003"><a xlink:title=" ">
<path fill="none" stroke="#63b8ff" d="M336.07,-48.55C345.44,-49.85 355.1,-51.19 364.58,-52.5"/>
<polygon fill="#63b8ff" stroke="#63b8ff" points="364.39,-56 374.77,-53.91 365.35,-49.07 364.39,-56"/>
</a>
</g>
</g>
<!-- Node4 -->
<g id="Node000004" class="node">
<title>Node4</title>
<g id="a_Node000004"><a xlink:href="namespacednf__composer_1_1tools_1_1utils.html#a9b9ee760b745eb4a1dfabacac1c026d2" target="_top" xlink:title=" ">
<polygon fill="white" stroke="#666666" points="502.5,-30 380.5,-30 380.5,0 502.5,0 502.5,-30"/>
<text text-anchor="start" x="388.5" y="-18" font-family="Helvetica,sans-Serif" font-size="10.00">dnf_composer::tools</text>
<text text-anchor="middle" x="441.5" y="-7" font-family="Helvetica,sans-Serif" font-size="10.00">::utils::safe_localtime</text>
</a>
</g>
</g>
<!-- Node2&#45;&gt;Node4 -->
<g id="edge3_Node000002_Node000004" class="edge">
<title>Node2&#45;&gt;Node4</title>
<g id="a_edge3_Node000002_Node000004"><a xlink:title=" ">
<path fill="none" stroke="#63b8ff" d="M336.07,-29.45C347.28,-27.89 358.91,-26.29 370.16,-24.73"/>
<polygon fill="#63b8ff" stroke="#63b8ff" points="370.93,-28.16 380.35,-23.32 369.97,-21.22 370.93,-28.16"/>
</a>
</g>
</g>
</g>
</svg>
