<?xml version="1.0" encoding="UTF-8" standalone="no"?>
<!DOCTYPE svg PUBLIC "-//W3C//DTD SVG 1.1//EN"
 "http://www.w3.org/Graphics/SVG/1.1/DTD/svg11.dtd">
<!-- Generated by graphviz version 2.43.0 (0)
 -->
<!-- Title: dnf_composer::tools::logger::log Pages: 1 -->
<svg width="525pt" height="500pt"
 viewBox="0.00 0.00 525.00 500.00" xmlns="http://www.w3.org/2000/svg" xmlns:xlink="http://www.w3.org/1999/xlink">
<g id="graph0" class="graph" transform="scale(1 1) rotate(0) translate(4 496)">
<title>dnf_composer::tools::logger::log</title>
<!-- Node1 -->
<g id="Node000001" class="node">
<title>Node1</title>
<g id="a_Node000001"><a xlink:title=" ">
<polygon fill="#999999" stroke="#666666" points="517,-234 401,-234 401,-204 517,-204 517,-234"/>
<text text-anchor="start" x="409" y="-222" font-family="Helvetica,sans-Serif" font-size="10.00">dnf_composer::tools</text>
<text text-anchor="middle" x="459" y="-211" font-family="Helvetica,sans-Serif" font-size="10.00">::logger::log</text>
</a>
</g>
</g>
<!-- Node2 -->
<g id="Node000002" class="node">
<title>Node2</title>
<g id="a_Node000002"><a xlink:href="classdnf__composer_1_1Simulation.html#aa3419352b0706f0ba4c85781b8aa32ae" target="_top" xlink:title="Initialize all registered elements. Must be called before step().">
<polygon fill="white" stroke="#666666" points="355.5,-449 211.5,-449 211.5,-419 355.5,-419 355.5,-449"/>
<text text-anchor="start" x="219.5" y="-437" font-family="Helvetica,sans-Serif" font-size="10.00">dnf_composer::Simulation</text>
<text text-anchor="middle" x="283.5" y="-426" font-family="Helvetica,sans-Serif" font-size="10.00">::init</text>
</a>
</g>
</g>
<!-- Node1&#45;&gt;Node2 -->
<g id="edge1_Node000001_Node000002" class="edge">
<title>Node1&#45;&gt;Node2</title>
<g id="a_edge1_Node000001_Node000002"><a xlink:title=" ">
<path fill="none" stroke="#63b8ff" d="M452.66,-244.15C442.67,-284.99 417.27,-365.64 365,-410 361,-413.4 356.53,-416.31 351.8,-418.82"/>
<polygon fill="#63b8ff" stroke="#63b8ff" points="456.11,-244.74 454.97,-234.21 449.3,-243.15 456.11,-244.74"/>
</a>
</g>
</g>
<!-- Node6 -->
<g id="Node000006" class="node">
<title>Node6</title>
<g id="a_Node000006"><a xlink:href="structdnf__composer_1_1element_1_1ElementDimensions.html#a61dc48a63bf6451065883ea37f0228fa" target="_top" xlink:title=" ">
<polygon fill="white" stroke="#666666" points="358,-401 209,-401 209,-371 358,-371 358,-401"/>
<text text-anchor="start" x="217" y="-389" font-family="Helvetica,sans-Serif" font-size="10.00">dnf_composer::element</text>
<text text-anchor="middle" x="283.5" y="-378" font-family="Helvetica,sans-Serif" font-size="10.00">::ElementDimensions::print</text>
</a>
</g>
</g>
<!-- Node1&#45;&gt;Node6 -->
<g id="edge5_Node000001_Node000006" class="edge">
<title>Node1&#45;&gt;Node6</title>
<g id="a_edge5_Node000001_Node000006"><a xlink:title=" ">
<path fill="none" stroke="#63b8ff" d="M448.44,-243.54C434.74,-275.5 406.52,-330.96 365,-362 360.44,-365.41 355.41,-368.33 350.15,-370.84"/>
<polygon fill="#63b8ff" stroke="#63b8ff" points="451.78,-244.62 452.37,-234.05 445.31,-241.94 451.78,-244.62"/>
</a>
</g>
</g>
<!-- Node7 -->
<g id="Node000007" class="node">
<title>Node7</title>
<g id="a_Node000007"><a xlink:href="structdnf__composer_1_1element_1_1ElementIdentifiers.html#a6c590a127035df69718210304ad9ccb6" target="_top" xlink:title=" ">
<polygon fill="white" stroke="#666666" points="349.5,-352.5 217.5,-352.5 217.5,-311.5 349.5,-311.5 349.5,-352.5"/>
<text text-anchor="start" x="225.5" y="-340.5" font-family="Helvetica,sans-Serif" font-size="10.00">dnf_composer::element</text>
<text text-anchor="start" x="225.5" y="-329.5" font-family="Helvetica,sans-Serif" font-size="10.00">::ElementIdentifiers</text>
<text text-anchor="middle" x="283.5" y="-318.5" font-family="Helvetica,sans-Serif" font-size="10.00">::print</text>
</a>
</g>
</g>
<!-- Node1&#45;&gt;Node7 -->
<g id="edge6_Node000001_Node000007" class="edge">
<title>Node1&#45;&gt;Node7</title>
<g id="a_edge6_Node000001_Node000007"><a xlink:title=" ">
<path fill="none" stroke="#63b8ff" d="M437.63,-241.79C419.97,-260.39 392.92,-286.26 365,-303 359.9,-306.06 354.44,-308.86 348.83,-311.43"/>
<polygon fill="#63b8ff" stroke="#63b8ff" points="440.35,-244.01 444.6,-234.3 435.23,-239.24 440.35,-244.01"/>
</a>
</g>
</g>
<!-- Node8 -->
<g id="Node000008" class="node">
<title>Node8</title>
<g id="a_Node000008"><a xlink:href="structdnf__composer_1_1element_1_1ElementCommonParameters.html#a446472a2d6a83b41ae55e42c024357f3" target="_top" xlink:title=" ">
<polygon fill="white" stroke="#666666" points="365,-293.5 202,-293.5 202,-252.5 365,-252.5 365,-293.5"/>
<text text-anchor="start" x="210" y="-281.5" font-family="Helvetica,sans-Serif" font-size="10.00">dnf_composer::element</text>
<text text-anchor="start" x="210" y="-270.5" font-family="Helvetica,sans-Serif" font-size="10.00">::ElementCommonParameters</text>
<text text-anchor="middle" x="283.5" y="-259.5" font-family="Helvetica,sans-Serif" font-size="10.00">::print</text>
</a>
</g>
</g>
<!-- Node1&#45;&gt;Node8 -->
<g id="edge7_Node000001_Node000008" class="edge">
<title>Node1&#45;&gt;Node8</title>
<g id="a_edge7_Node000001_Node000008"><a xlink:title=" ">
<path fill="none" stroke="#63b8ff" d="M399.98,-237.06C384.07,-242.01 366.71,-247.41 350.4,-252.49"/>
<polygon fill="#63b8ff" stroke="#63b8ff" points="401.16,-240.36 409.67,-234.04 399.08,-233.67 401.16,-240.36"/>
</a>
</g>
</g>
<!-- Node9 -->
<g id="Node000009" class="node">
<title>Node9</title>
<g id="a_Node000009"><a xlink:href="structdnf__composer_1_1element_1_1NeuralFieldState.html#a9b0422c8ee94d56d397b290576b493ce" target="_top" xlink:title=" ">
<polygon fill="white" stroke="#666666" points="349.5,-234 217.5,-234 217.5,-204 349.5,-204 349.5,-234"/>
<text text-anchor="start" x="225.5" y="-222" font-family="Helvetica,sans-Serif" font-size="10.00">dnf_composer::element</text>
<text text-anchor="middle" x="283.5" y="-211" font-family="Helvetica,sans-Serif" font-size="10.00">::NeuralFieldState::print</text>
</a>
</g>
</g>
<!-- Node1&#45;&gt;Node9 -->
<g id="edge8_Node000001_Node000009" class="edge">
<title>Node1&#45;&gt;Node9</title>
<g id="a_edge8_Node000001_Node000009"><a xlink:title=" ">
<path fill="none" stroke="#63b8ff" d="M390.55,-219C377.07,-219 362.93,-219 349.53,-219"/>
<polygon fill="#63b8ff" stroke="#63b8ff" points="390.71,-222.5 400.71,-219 390.71,-215.5 390.71,-222.5"/>
</a>
</g>
</g>
<!-- Node10 -->
<g id="Node000010" class="node">
<title>Node10</title>
<g id="a_Node000010"><a xlink:href="structdnf__composer_1_1element_1_1SigmoidFunction.html#a646bef07506d8f43bda54004704c7fbc" target="_top" xlink:title=" ">
<polygon fill="white" stroke="#666666" points="349.5,-186 217.5,-186 217.5,-156 349.5,-156 349.5,-186"/>
<text text-anchor="start" x="225.5" y="-174" font-family="Helvetica,sans-Serif" font-size="10.00">dnf_composer::element</text>
<text text-anchor="middle" x="283.5" y="-163" font-family="Helvetica,sans-Serif" font-size="10.00">::SigmoidFunction::print</text>
</a>
</g>
</g>
<!-- Node1&#45;&gt;Node10 -->
<g id="edge9_Node000001_Node000010" class="edge">
<title>Node1&#45;&gt;Node10</title>
<g id="a_edge9_Node000001_Node000010"><a xlink:title=" ">
<path fill="none" stroke="#63b8ff" d="M393.7,-201.21C375.63,-196.21 356.15,-190.82 338.73,-186"/>
<polygon fill="#63b8ff" stroke="#63b8ff" points="393.01,-204.65 403.58,-203.94 394.87,-197.9 393.01,-204.65"/>
</a>
</g>
</g>
<!-- Node11 -->
<g id="Node000011" class="node">
<title>Node11</title>
<g id="a_Node000011"><a xlink:href="structdnf__composer_1_1element_1_1HeavisideFunction.html#a6405c8367c96aeb06f4c011d824d4a18" target="_top" xlink:title=" ">
<polygon fill="white" stroke="#666666" points="354,-138 213,-138 213,-108 354,-108 354,-138"/>
<text text-anchor="start" x="221" y="-126" font-family="Helvetica,sans-Serif" font-size="10.00">dnf_composer::element</text>
<text text-anchor="middle" x="283.5" y="-115" font-family="Helvetica,sans-Serif" font-size="10.00">::HeavisideFunction::print</text>
</a>
</g>
</g>
<!-- Node1&#45;&gt;Node11 -->
<g id="edge10_Node000001_Node000011" class="edge">
<title>Node1&#45;&gt;Node11</title>
<g id="a_edge10_Node000001_Node000011"><a xlink:title=" ">
<path fill="none" stroke="#63b8ff" d="M434.53,-196.83C416.67,-181.01 390.83,-160.26 365,-147 358.51,-143.67 351.49,-140.73 344.39,-138.14"/>
<polygon fill="#63b8ff" stroke="#63b8ff" points="432.38,-199.61 442.14,-203.71 437.07,-194.41 432.38,-199.61"/>
</a>
</g>
</g>
<!-- Node12 -->
<g id="Node000012" class="node">
<title>Node12</title>
<g id="a_Node000012"><a xlink:href="classdnf__composer_1_1user__interface_1_1SimulationWindow.html#abf457e8c59e1953591a17904653a4f2d" target="_top" xlink:title=" ">
<polygon fill="white" stroke="#666666" points="365,-89.5 202,-89.5 202,-48.5 365,-48.5 365,-89.5"/>
<text text-anchor="start" x="210" y="-77.5" font-family="Helvetica,sans-Serif" font-size="10.00">dnf_composer::user</text>
<text text-anchor="start" x="210" y="-66.5" font-family="Helvetica,sans-Serif" font-size="10.00">_interface::SimulationWindow</text>
<text text-anchor="middle" x="283.5" y="-55.5" font-family="Helvetica,sans-Serif" font-size="10.00">::renderRunForIterationsCard</text>
</a>
</g>
</g>
<!-- Node1&#45;&gt;Node12 -->
<g id="edge11_Node000001_Node000012" class="edge">
<title>Node1&#45;&gt;Node12</title>
<g id="a_edge11_Node000001_Node000012"><a xlink:title=" ">
<path fill="none" stroke="#63b8ff" d="M445.03,-195.16C429.33,-168.34 400.52,-125.12 365,-99 360.31,-95.55 355.19,-92.46 349.86,-89.69"/>
<polygon fill="#63b8ff" stroke="#63b8ff" points="442.03,-196.96 450.03,-203.91 448.11,-193.49 442.03,-196.96"/>
</a>
</g>
</g>
<!-- Node14 -->
<g id="Node000014" class="node">
<title>Node14</title>
<g id="a_Node000014"><a xlink:href="classdnf__composer_1_1Simulation.html#a8d0fb7b320ba77daf90d6cceafd93815" target="_top" xlink:title="Construct a simulation.">
<polygon fill="white" stroke="#666666" points="355.5,-30 211.5,-30 211.5,0 355.5,0 355.5,-30"/>
<text text-anchor="start" x="219.5" y="-18" font-family="Helvetica,sans-Serif" font-size="10.00">dnf_composer::Simulation</text>
<text text-anchor="middle" x="283.5" y="-7" font-family="Helvetica,sans-Serif" font-size="10.00">::Simulation</text>
</a>
</g>
</g>
<!-- Node1&#45;&gt;Node14 -->
<g id="edge13_Node000001_Node000014" class="edge">
<title>Node1&#45;&gt;Node14</title>
<g id="a_edge13_Node000001_Node000014"><a xlink:title=" ">
<path fill="none" stroke="#63b8ff" d="M451.85,-193.92C441,-154.99 414.77,-80.23 365,-39 360.84,-35.56 356.21,-32.61 351.32,-30.08"/>
<polygon fill="#63b8ff" stroke="#63b8ff" points="448.55,-195.13 454.51,-203.89 455.31,-193.33 448.55,-195.13"/>
</a>
</g>
</g>
<!-- Node3 -->
<g id="Node000003" class="node">
<title>Node3</title>
<g id="a_Node000003"><a xlink:href="classdnf__composer_1_1Simulation.html#a487ef819fe0e501707580714b92b80ca" target="_top" xlink:title="Deserialize the simulation state from a JSON file.">
<polygon fill="white" stroke="#666666" points="155,-492 11,-492 11,-462 155,-462 155,-492"/>
<text text-anchor="start" x="19" y="-480" font-family="Helvetica,sans-Serif" font-size="10.00">dnf_composer::Simulation</text>
<text text-anchor="middle" x="83" y="-469" font-family="Helvetica,sans-Serif" font-size="10.00">::read</text>
</a>
</g>
</g>
<!-- Node2&#45;&gt;Node3 -->
<g id="edge2_Node000002_Node000003" class="edge">
<title>Node2&#45;&gt;Node3</title>
<g id="a_edge2_Node000002_Node000003"><a xlink:title=" ">
<path fill="none" stroke="#63b8ff" d="M202.97,-451.23C186.56,-454.78 169.4,-458.5 153.39,-461.97"/>
<polygon fill="#63b8ff" stroke="#63b8ff" points="204.04,-454.58 213.07,-449.04 202.56,-447.74 204.04,-454.58"/>
</a>
</g>
</g>
<!-- Node4 -->
<g id="Node000004" class="node">
<title>Node4</title>
<g id="a_Node000004"><a xlink:href="classdnf__composer_1_1Simulation.html#adc98d900b0ed2e9f901ee9bf0170d93b" target="_top" xlink:title="Run the simulation for runTime milliseconds (blocking).">
<polygon fill="white" stroke="#666666" points="166,-443.5 0,-443.5 0,-424.5 166,-424.5 166,-443.5"/>
<text text-anchor="middle" x="83" y="-431.5" font-family="Helvetica,sans-Serif" font-size="10.00">dnf_composer::Simulation::run</text>
</a>
</g>
</g>
<!-- Node2&#45;&gt;Node4 -->
<g id="edge3_Node000002_Node000004" class="edge">
<title>Node2&#45;&gt;Node4</title>
<g id="a_edge3_Node000002_Node000004"><a xlink:title=" ">
<path fill="none" stroke="#63b8ff" d="M201.3,-434C189.68,-434 177.73,-434 166.09,-434"/>
<polygon fill="#63b8ff" stroke="#63b8ff" points="201.4,-437.5 211.4,-434 201.4,-430.5 201.4,-437.5"/>
</a>
</g>
</g>
<!-- Node5 -->
<g id="Node000005" class="node">
<title>Node5</title>
<g id="a_Node000005"><a xlink:href="classdnf__composer_1_1Simulation.html#a02cc12769e196f46a1ca4eb4f360fc3c" target="_top" xlink:title="Run the simulation in real&#45;time for milliseconds wall&#45;clock ms.">
<polygon fill="white" stroke="#666666" points="155,-406 11,-406 11,-376 155,-376 155,-406"/>
<text text-anchor="start" x="19" y="-394" font-family="Helvetica,sans-Serif" font-size="10.00">dnf_composer::Simulation</text>
<text text-anchor="middle" x="83" y="-383" font-family="Helvetica,sans-Serif" font-size="10.00">::runForRealTime</text>
</a>
</g>
</g>
<!-- Node2&#45;&gt;Node5 -->
<g id="edge4_Node000002_Node000005" class="edge">
<title>Node2&#45;&gt;Node5</title>
<g id="a_edge4_Node000002_Node000005"><a xlink:title=" ">
<path fill="none" stroke="#63b8ff" d="M202.97,-416.77C186.56,-413.22 169.4,-409.5 153.39,-406.03"/>
<polygon fill="#63b8ff" stroke="#63b8ff" points="202.56,-420.26 213.07,-418.96 204.04,-413.42 202.56,-420.26"/>
</a>
</g>
</g>
<!-- Node13 -->
<g id="Node000013" class="node">
<title>Node13</title>
<g id="a_Node000013"><a xlink:href="classdnf__composer_1_1user__interface_1_1SimulationWindow.html#ac0c5ebab9dd16f951c2c231a8e1f6f34" target="_top" xlink:title=" ">
<polygon fill="white" stroke="#666666" points="164.5,-89.5 1.5,-89.5 1.5,-48.5 164.5,-48.5 164.5,-89.5"/>
<text text-anchor="start" x="9.5" y="-77.5" font-family="Helvetica,sans-Serif" font-size="10.00">dnf_composer::user</text>
<text text-anchor="start" x="9.5" y="-66.5" font-family="Helvetica,sans-Serif" font-size="10.00">_interface::SimulationWindow</text>
<text text-anchor="middle" x="83" y="-55.5" font-family="Helvetica,sans-Serif" font-size="10.00">::render</text>
</a>
</g>
</g>
<!-- Node12&#45;&gt;Node13 -->
<g id="edge12_Node000012_Node000013" class="edge">
<title>Node12&#45;&gt;Node13</title>
<g id="a_edge12_Node000012_Node000013"><a xlink:title=" ">
<path fill="none" stroke="#63b8ff" d="M191.65,-69C182.65,-69 173.56,-69 164.67,-69"/>
<polygon fill="#63b8ff" stroke="#63b8ff" points="191.76,-72.5 201.76,-69 191.76,-65.5 191.76,-72.5"/>
</a>
</g>
</g>
</g>
</svg>
