<?xml version="1.0" encoding="UTF-8" standalone="no"?>
<!DOCTYPE svg PUBLIC "-//W3C//DTD SVG 1.1//EN"
 "http://www.w3.org/Graphics/SVG/1.1/DTD/svg11.dtd">
<!-- Generated by graphviz version 2.43.0 (0)
 -->
<!-- Title: dnf_composer::tools::math::gaussNorm Pages: 1 -->
<svg width="562pt" height="430pt"
 viewBox="0.00 0.00 562.00 430.00" xmlns="http://www.w3.org/2000/svg" xmlns:xlink="http://www.w3.org/1999/xlink">
<g id="graph0" class="graph" transform="scale(1 1) rotate(0) translate(4 426)">
<title>dnf_composer::tools::math::gaussNorm</title>
<!-- Node1 -->
<g id="Node000001" class="node">
<title>Node1</title>
<g id="a_Node000001"><a xlink:title=" ">
<polygon fill="#999999" stroke="#666666" points="554,-213.5 438,-213.5 438,-183.5 554,-183.5 554,-213.5"/>
<text text-anchor="start" x="446" y="-201.5" font-family="Helvetica,sans-Serif" font-size="10.00">dnf_composer::tools</text>
<text text-anchor="middle" x="496" y="-190.5" font-family="Helvetica,sans-Serif" font-size="10.00">::math::gaussNorm</text>
</a>
</g>
</g>
<!-- Node2 -->
<g id="Node000002" class="node">
<title>Node2</title>
<g id="a_Node000002"><a xlink:href="classdnf__composer_1_1element_1_1AsymmetricGaussKernel.html#a96e938df35bc5c5b9944201750e5ff83" target="_top" xlink:title="Initialize the element (called once before the simulation loop).">
<polygon fill="white" stroke="#666666" points="395,-407.5 231,-407.5 231,-377.5 395,-377.5 395,-407.5"/>
<text text-anchor="start" x="239" y="-395.5" font-family="Helvetica,sans-Serif" font-size="10.00">dnf_composer::element</text>
<text text-anchor="middle" x="313" y="-384.5" font-family="Helvetica,sans-Serif" font-size="10.00">::AsymmetricGaussKernel::init</text>
</a>
</g>
</g>
<!-- Node1&#45;&gt;Node2 -->
<g id="edge1_Node000001_Node000002" class="edge">
<title>Node1&#45;&gt;Node2</title>
<g id="a_edge1_Node000001_Node000002"><a xlink:title=" ">
<path fill="none" stroke="#63b8ff" d="M486.59,-223.36C473.64,-258.15 445.63,-321.26 402,-358.5 392.78,-366.37 381.54,-372.53 370.21,-377.31"/>
<polygon fill="#63b8ff" stroke="#63b8ff" points="490.04,-224.13 490.13,-213.53 483.45,-221.75 490.04,-224.13"/>
</a>
</g>
</g>
<!-- Node4 -->
<g id="Node000004" class="node">
<title>Node4</title>
<g id="a_Node000004"><a xlink:href="classdnf__composer_1_1element_1_1AsymmetricGaussKernel2D.html#a8234958fc93042c32fa069831a7034c5" target="_top" xlink:title="Initialize the element (called once before the simulation loop).">
<polygon fill="white" stroke="#666666" points="402,-349.5 224,-349.5 224,-319.5 402,-319.5 402,-349.5"/>
<text text-anchor="start" x="232" y="-337.5" font-family="Helvetica,sans-Serif" font-size="10.00">dnf_composer::element</text>
<text text-anchor="middle" x="313" y="-326.5" font-family="Helvetica,sans-Serif" font-size="10.00">::AsymmetricGaussKernel2D::init</text>
</a>
</g>
</g>
<!-- Node1&#45;&gt;Node4 -->
<g id="edge3_Node000001_Node000004" class="edge">
<title>Node1&#45;&gt;Node4</title>
<g id="a_edge3_Node000001_Node000004"><a xlink:title=" ">
<path fill="none" stroke="#63b8ff" d="M479.17,-221.73C462.4,-244.78 433.97,-279.74 402,-301.5 391.34,-308.75 378.88,-314.67 366.75,-319.39"/>
<polygon fill="#63b8ff" stroke="#63b8ff" points="482.06,-223.7 485.01,-213.52 476.36,-219.64 482.06,-223.7"/>
</a>
</g>
</g>
<!-- Node6 -->
<g id="Node000006" class="node">
<title>Node6</title>
<g id="a_Node000006"><a xlink:href="classdnf__composer_1_1element_1_1CorrelatedNormalNoise.html#af15a4f2f22980b9bd2f843d3a7ec77c7" target="_top" xlink:title="Initialize the element (called once before the simulation loop).">
<polygon fill="white" stroke="#666666" points="392.5,-292.5 233.5,-292.5 233.5,-262.5 392.5,-262.5 392.5,-292.5"/>
<text text-anchor="start" x="241.5" y="-280.5" font-family="Helvetica,sans-Serif" font-size="10.00">dnf_composer::element</text>
<text text-anchor="middle" x="313" y="-269.5" font-family="Helvetica,sans-Serif" font-size="10.00">::CorrelatedNormalNoise::init</text>
</a>
</g>
</g>
<!-- Node1&#45;&gt;Node6 -->
<g id="edge5_Node000001_Node000006" class="edge">
<title>Node1&#45;&gt;Node6</title>
<g id="a_edge5_Node000001_Node000006"><a xlink:title=" ">
<path fill="none" stroke="#63b8ff" d="M459.99,-218.61C442.82,-228.04 421.66,-239.03 402,-247.5 389.4,-252.93 375.46,-258.06 362.47,-262.49"/>
<polygon fill="#63b8ff" stroke="#63b8ff" points="462.04,-221.48 469.08,-213.56 458.64,-215.36 462.04,-221.48"/>
</a>
</g>
</g>
<!-- Node8 -->
<g id="Node000008" class="node">
<title>Node8</title>
<g id="a_Node000008"><a xlink:href="classdnf__composer_1_1element_1_1CorrelatedNormalNoise2D.html#af47d2a942186c3cb7bfcf1052a5341c2" target="_top" xlink:title="Initialize the element (called once before the simulation loop).">
<polygon fill="white" stroke="#666666" points="399.5,-238.5 226.5,-238.5 226.5,-208.5 399.5,-208.5 399.5,-238.5"/>
<text text-anchor="start" x="234.5" y="-226.5" font-family="Helvetica,sans-Serif" font-size="10.00">dnf_composer::element</text>
<text text-anchor="middle" x="313" y="-215.5" font-family="Helvetica,sans-Serif" font-size="10.00">::CorrelatedNormalNoise2D::init</text>
</a>
</g>
</g>
<!-- Node1&#45;&gt;Node8 -->
<g id="edge7_Node000001_Node000008" class="edge">
<title>Node1&#45;&gt;Node8</title>
<g id="a_edge7_Node000001_Node000008"><a xlink:title=" ">
<path fill="none" stroke="#63b8ff" d="M427.6,-207.81C418.49,-209.07 409.04,-210.37 399.66,-211.67"/>
<polygon fill="#63b8ff" stroke="#63b8ff" points="428.3,-211.25 437.73,-206.41 427.35,-204.31 428.3,-211.25"/>
</a>
</g>
</g>
<!-- Node10 -->
<g id="Node000010" class="node">
<title>Node10</title>
<g id="a_Node000010"><a xlink:href="classdnf__composer_1_1element_1_1GaussKernel.html#a287d7d8ff2d471d38fc915b73c0422bd" target="_top" xlink:title="Initialize the element (called once before the simulation loop).">
<polygon fill="white" stroke="#666666" points="379,-189.5 247,-189.5 247,-159.5 379,-159.5 379,-189.5"/>
<text text-anchor="start" x="255" y="-177.5" font-family="Helvetica,sans-Serif" font-size="10.00">dnf_composer::element</text>
<text text-anchor="middle" x="313" y="-166.5" font-family="Helvetica,sans-Serif" font-size="10.00">::GaussKernel::init</text>
</a>
</g>
</g>
<!-- Node1&#45;&gt;Node10 -->
<g id="edge9_Node000001_Node000010" class="edge">
<title>Node1&#45;&gt;Node10</title>
<g id="a_edge9_Node000001_Node000010"><a xlink:title=" ">
<path fill="none" stroke="#63b8ff" d="M427.49,-189.55C411.66,-187.45 394.82,-185.22 379.09,-183.13"/>
<polygon fill="#63b8ff" stroke="#63b8ff" points="427.36,-193.06 437.73,-190.91 428.28,-186.12 427.36,-193.06"/>
</a>
</g>
</g>
<!-- Node12 -->
<g id="Node000012" class="node">
<title>Node12</title>
<g id="a_Node000012"><a xlink:href="classdnf__composer_1_1element_1_1GaussKernel2D.html#a039b5f0baaeb7e4a47195a7b4806df19" target="_top" xlink:title="Initialize the element (called once before the simulation loop).">
<polygon fill="white" stroke="#666666" points="379,-138.5 247,-138.5 247,-108.5 379,-108.5 379,-138.5"/>
<text text-anchor="start" x="255" y="-126.5" font-family="Helvetica,sans-Serif" font-size="10.00">dnf_composer::element</text>
<text text-anchor="middle" x="313" y="-115.5" font-family="Helvetica,sans-Serif" font-size="10.00">::GaussKernel2D::init</text>
</a>
</g>
</g>
<!-- Node1&#45;&gt;Node12 -->
<g id="edge11_Node000001_Node000012" class="edge">
<title>Node1&#45;&gt;Node12</title>
<g id="a_edge11_Node000001_Node000012"><a xlink:title=" ">
<path fill="none" stroke="#63b8ff" d="M459.68,-178.38C442.6,-169.14 421.59,-158.49 402,-150.5 391.35,-146.16 379.72,-142.12 368.52,-138.56"/>
<polygon fill="#63b8ff" stroke="#63b8ff" points="458.29,-181.6 468.74,-183.34 461.65,-175.46 458.29,-181.6"/>
</a>
</g>
</g>
<!-- Node14 -->
<g id="Node000014" class="node">
<title>Node14</title>
<g id="a_Node000014"><a xlink:href="classdnf__composer_1_1element_1_1MexicanHatKernel.html#ad80d75e45cea14a7d222559ae88d0c48" target="_top" xlink:title="Initialize the element (called once before the simulation loop).">
<polygon fill="white" stroke="#666666" points="380,-89.5 246,-89.5 246,-59.5 380,-59.5 380,-89.5"/>
<text text-anchor="start" x="254" y="-77.5" font-family="Helvetica,sans-Serif" font-size="10.00">dnf_composer::element</text>
<text text-anchor="middle" x="313" y="-66.5" font-family="Helvetica,sans-Serif" font-size="10.00">::MexicanHatKernel::init</text>
</a>
</g>
</g>
<!-- Node1&#45;&gt;Node14 -->
<g id="edge13_Node000001_Node000014" class="edge">
<title>Node1&#45;&gt;Node14</title>
<g id="a_edge13_Node000001_Node000014"><a xlink:title=" ">
<path fill="none" stroke="#63b8ff" d="M478.83,-174.99C462.11,-152.42 434.01,-118.98 402,-99.5 395.22,-95.37 387.73,-91.9 380.06,-88.99"/>
<polygon fill="#63b8ff" stroke="#63b8ff" points="476.17,-177.28 484.86,-183.34 481.84,-173.18 476.17,-177.28"/>
</a>
</g>
</g>
<!-- Node16 -->
<g id="Node000016" class="node">
<title>Node16</title>
<g id="a_Node000016"><a xlink:href="classdnf__composer_1_1element_1_1MexicanHatKernel2D.html#aee7c3a1257606ea3a13a3436a17e0a61" target="_top" xlink:title="Initialize the element (called once before the simulation loop).">
<polygon fill="white" stroke="#666666" points="386.5,-38.5 239.5,-38.5 239.5,-8.5 386.5,-8.5 386.5,-38.5"/>
<text text-anchor="start" x="247.5" y="-26.5" font-family="Helvetica,sans-Serif" font-size="10.00">dnf_composer::element</text>
<text text-anchor="middle" x="313" y="-15.5" font-family="Helvetica,sans-Serif" font-size="10.00">::MexicanHatKernel2D::init</text>
</a>
</g>
</g>
<!-- Node1&#45;&gt;Node16 -->
<g id="edge15_Node000001_Node000016" class="edge">
<title>Node1&#45;&gt;Node16</title>
<g id="a_edge15_Node000001_Node000016"><a xlink:title=" ">
<path fill="none" stroke="#63b8ff" d="M486.01,-174.09C472.68,-141.23 444.57,-83.11 402,-50.5 395.78,-45.74 388.72,-41.81 381.37,-38.57"/>
<polygon fill="#63b8ff" stroke="#63b8ff" points="482.77,-175.39 489.68,-183.43 489.28,-172.84 482.77,-175.39"/>
</a>
</g>
</g>
<!-- Node3 -->
<g id="Node000003" class="node">
<title>Node3</title>
<g id="a_Node000003"><a xlink:href="classdnf__composer_1_1element_1_1AsymmetricGaussKernel.html#aa692c282d0b5b78e54d15664166a06eb" target="_top" xlink:title=" ">
<polygon fill="white" stroke="#666666" points="165.5,-422 22.5,-422 22.5,-381 165.5,-381 165.5,-422"/>
<text text-anchor="start" x="30.5" y="-410" font-family="Helvetica,sans-Serif" font-size="10.00">dnf_composer::element</text>
<text text-anchor="start" x="30.5" y="-399" font-family="Helvetica,sans-Serif" font-size="10.00">::AsymmetricGaussKernel</text>
<text text-anchor="middle" x="94" y="-388" font-family="Helvetica,sans-Serif" font-size="10.00">::setParameters</text>
</a>
</g>
</g>
<!-- Node2&#45;&gt;Node3 -->
<g id="edge2_Node000002_Node000003" class="edge">
<title>Node2&#45;&gt;Node3</title>
<g id="a_edge2_Node000002_Node000003"><a xlink:title=" ">
<path fill="none" stroke="#63b8ff" d="M220.75,-396.28C202.34,-397.05 183.25,-397.84 165.68,-398.57"/>
<polygon fill="#63b8ff" stroke="#63b8ff" points="221.04,-399.78 230.89,-395.86 220.75,-392.78 221.04,-399.78"/>
</a>
</g>
</g>
<!-- Node5 -->
<g id="Node000005" class="node">
<title>Node5</title>
<g id="a_Node000005"><a xlink:href="classdnf__composer_1_1element_1_1AsymmetricGaussKernel2D.html#afbef9cba9917c5548463b4e8a7cec7fd" target="_top" xlink:title=" ">
<polygon fill="white" stroke="#666666" points="172,-363 16,-363 16,-322 172,-322 172,-363"/>
<text text-anchor="start" x="24" y="-351" font-family="Helvetica,sans-Serif" font-size="10.00">dnf_composer::element</text>
<text text-anchor="start" x="24" y="-340" font-family="Helvetica,sans-Serif" font-size="10.00">::AsymmetricGaussKernel2D</text>
<text text-anchor="middle" x="94" y="-329" font-family="Helvetica,sans-Serif" font-size="10.00">::setParameters</text>
</a>
</g>
</g>
<!-- Node4&#45;&gt;Node5 -->
<g id="edge4_Node000004_Node000005" class="edge">
<title>Node4&#45;&gt;Node5</title>
<g id="a_edge4_Node000004_Node000005"><a xlink:title=" ">
<path fill="none" stroke="#63b8ff" d="M213.63,-338.13C199.68,-338.64 185.51,-339.16 172.04,-339.66"/>
<polygon fill="#63b8ff" stroke="#63b8ff" points="213.87,-341.62 223.74,-337.75 213.62,-334.62 213.87,-341.62"/>
</a>
</g>
</g>
<!-- Node7 -->
<g id="Node000007" class="node">
<title>Node7</title>
<g id="a_Node000007"><a xlink:href="classdnf__composer_1_1element_1_1CorrelatedNormalNoise.html#a78311915d5aafe88d29c65a834482c89" target="_top" xlink:title=" ">
<polygon fill="white" stroke="#666666" points="162.5,-304 25.5,-304 25.5,-263 162.5,-263 162.5,-304"/>
<text text-anchor="start" x="33.5" y="-292" font-family="Helvetica,sans-Serif" font-size="10.00">dnf_composer::element</text>
<text text-anchor="start" x="33.5" y="-281" font-family="Helvetica,sans-Serif" font-size="10.00">::CorrelatedNormalNoise</text>
<text text-anchor="middle" x="94" y="-270" font-family="Helvetica,sans-Serif" font-size="10.00">::setParameters</text>
</a>
</g>
</g>
<!-- Node6&#45;&gt;Node7 -->
<g id="edge6_Node000006_Node000007" class="edge">
<title>Node6&#45;&gt;Node7</title>
<g id="a_edge6_Node000006_Node000007"><a xlink:title=" ">
<path fill="none" stroke="#63b8ff" d="M223.2,-279.96C202.98,-280.51 181.81,-281.1 162.64,-281.63"/>
<polygon fill="#63b8ff" stroke="#63b8ff" points="223.45,-283.45 233.35,-279.67 223.26,-276.45 223.45,-283.45"/>
</a>
</g>
</g>
<!-- Node9 -->
<g id="Node000009" class="node">
<title>Node9</title>
<g id="a_Node000009"><a xlink:href="classdnf__composer_1_1element_1_1CorrelatedNormalNoise2D.html#af30ec1b833c31764733d434ebffd268c" target="_top" xlink:title=" ">
<polygon fill="white" stroke="#666666" points="169.5,-245 18.5,-245 18.5,-204 169.5,-204 169.5,-245"/>
<text text-anchor="start" x="26.5" y="-233" font-family="Helvetica,sans-Serif" font-size="10.00">dnf_composer::element</text>
<text text-anchor="start" x="26.5" y="-222" font-family="Helvetica,sans-Serif" font-size="10.00">::CorrelatedNormalNoise2D</text>
<text text-anchor="middle" x="94" y="-211" font-family="Helvetica,sans-Serif" font-size="10.00">::setParameters</text>
</a>
</g>
</g>
<!-- Node8&#45;&gt;Node9 -->
<g id="edge8_Node000008_Node000009" class="edge">
<title>Node8&#45;&gt;Node9</title>
<g id="a_edge8_Node000008_Node000009"><a xlink:title=" ">
<path fill="none" stroke="#63b8ff" d="M216.07,-223.94C200.5,-224.01 184.58,-224.09 169.61,-224.16"/>
<polygon fill="#63b8ff" stroke="#63b8ff" points="216.25,-227.44 226.24,-223.9 216.22,-220.44 216.25,-227.44"/>
</a>
</g>
</g>
<!-- Node11 -->
<g id="Node000011" class="node">
<title>Node11</title>
<g id="a_Node000011"><a xlink:href="classdnf__composer_1_1element_1_1GaussKernel.html#a36639a54ade8b0154ed3419f2b0e1650" target="_top" xlink:title=" ">
<polygon fill="white" stroke="#666666" points="174,-185.5 14,-185.5 14,-155.5 174,-155.5 174,-185.5"/>
<text text-anchor="start" x="22" y="-173.5" font-family="Helvetica,sans-Serif" font-size="10.00">dnf_composer::element</text>
<text text-anchor="middle" x="94" y="-162.5" font-family="Helvetica,sans-Serif" font-size="10.00">::GaussKernel::setParameters</text>
</a>
</g>
</g>
<!-- Node10&#45;&gt;Node11 -->
<g id="edge10_Node000010_Node000011" class="edge">
<title>Node10&#45;&gt;Node11</title>
<g id="a_edge10_Node000010_Node000011"><a xlink:title=" ">
<path fill="none" stroke="#63b8ff" d="M236.81,-173.11C216.6,-172.74 194.68,-172.34 174.25,-171.96"/>
<polygon fill="#63b8ff" stroke="#63b8ff" points="236.83,-176.61 246.89,-173.3 236.96,-169.62 236.83,-176.61"/>
</a>
</g>
</g>
<!-- Node13 -->
<g id="Node000013" class="node">
<title>Node13</title>
<g id="a_Node000013"><a xlink:href="classdnf__composer_1_1element_1_1GaussKernel2D.html#a8206313c9478fa50f995e397e4dd9738" target="_top" xlink:title=" ">
<polygon fill="white" stroke="#666666" points="180.5,-137.5 7.5,-137.5 7.5,-107.5 180.5,-107.5 180.5,-137.5"/>
<text text-anchor="start" x="15.5" y="-125.5" font-family="Helvetica,sans-Serif" font-size="10.00">dnf_composer::element</text>
<text text-anchor="middle" x="94" y="-114.5" font-family="Helvetica,sans-Serif" font-size="10.00">::GaussKernel2D::setParameters</text>
</a>
</g>
</g>
<!-- Node12&#45;&gt;Node13 -->
<g id="edge12_Node000012_Node000013" class="edge">
<title>Node12&#45;&gt;Node13</title>
<g id="a_edge12_Node000012_Node000013"><a xlink:title=" ">
<path fill="none" stroke="#63b8ff" d="M236.69,-123.15C218.58,-123.07 199.1,-122.98 180.56,-122.89"/>
<polygon fill="#63b8ff" stroke="#63b8ff" points="236.88,-126.65 246.89,-123.2 236.91,-119.65 236.88,-126.65"/>
</a>
</g>
</g>
<!-- Node15 -->
<g id="Node000015" class="node">
<title>Node15</title>
<g id="a_Node000015"><a xlink:href="classdnf__composer_1_1element_1_1MexicanHatKernel.html#a4aa49909a155682d613a1f6284c90601" target="_top" xlink:title=" ">
<polygon fill="white" stroke="#666666" points="188,-89.5 0,-89.5 0,-59.5 188,-59.5 188,-89.5"/>
<text text-anchor="start" x="8" y="-77.5" font-family="Helvetica,sans-Serif" font-size="10.00">dnf_composer::element</text>
<text text-anchor="middle" x="94" y="-66.5" font-family="Helvetica,sans-Serif" font-size="10.00">::MexicanHatKernel::setParameters</text>
</a>
</g>
</g>
<!-- Node14&#45;&gt;Node15 -->
<g id="edge14_Node000014_Node000015" class="edge">
<title>Node14&#45;&gt;Node15</title>
<g id="a_edge14_Node000014_Node000015"><a xlink:title=" ">
<path fill="none" stroke="#63b8ff" d="M235.3,-74.5C220.01,-74.5 203.8,-74.5 188.04,-74.5"/>
<polygon fill="#63b8ff" stroke="#63b8ff" points="235.71,-78 245.71,-74.5 235.71,-71 235.71,-78"/>
</a>
</g>
</g>
<!-- Node17 -->
<g id="Node000017" class="node">
<title>Node17</title>
<g id="a_Node000017"><a xlink:href="classdnf__composer_1_1element_1_1MexicanHatKernel2D.html#a5f4f3aeeccf58debe0e57e786f1bf57e" target="_top" xlink:title=" ">
<polygon fill="white" stroke="#666666" points="160,-41 28,-41 28,0 160,0 160,-41"/>
<text text-anchor="start" x="36" y="-29" font-family="Helvetica,sans-Serif" font-size="10.00">dnf_composer::element</text>
<text text-anchor="start" x="36" y="-18" font-family="Helvetica,sans-Serif" font-size="10.00">::MexicanHatKernel2D</text>
<text text-anchor="middle" x="94" y="-7" font-family="Helvetica,sans-Serif" font-size="10.00">::setParameters</text>
</a>
</g>
</g>
<!-- Node16&#45;&gt;Node17 -->
<g id="edge16_Node000016_Node000017" class="edge">
<title>Node16&#45;&gt;Node17</title>
<g id="a_edge16_Node000016_Node000017"><a xlink:title=" ">
<path fill="none" stroke="#63b8ff" d="M229.39,-22.36C206.49,-22.04 181.95,-21.7 160.19,-21.4"/>
<polygon fill="#63b8ff" stroke="#63b8ff" points="229.39,-25.86 239.44,-22.5 229.49,-18.86 229.39,-25.86"/>
</a>
</g>
</g>
</g>
</svg>
