<?xml version="1.0" encoding="UTF-8" standalone="no"?>
<!DOCTYPE svg PUBLIC "-//W3C//DTD SVG 1.1//EN"
 "http://www.w3.org/Graphics/SVG/1.1/DTD/svg11.dtd">
<!-- Generated by graphviz version 2.43.0 (0)
 -->
<!-- Title: dnf_composer::tools::math::conv2d_separable_into Pages: 1 -->
<svg width="394pt" height="230pt"
 viewBox="0.00 0.00 394.00 230.00" xmlns="http://www.w3.org/2000/svg" xmlns:xlink="http://www.w3.org/1999/xlink">
<g id="graph0" class="graph" transform="scale(1 1) rotate(0) translate(4 226)">
<title>dnf_composer::tools::math::conv2d_separable_into</title>
<!-- Node1 -->
<g id="Node000001" class="node">
<title>Node1</title>
<g id="a_Node000001"><a xlink:title=" ">
<polygon fill="#999999" stroke="#666666" points="386,-126 219,-126 219,-96 386,-96 386,-126"/>
<text text-anchor="start" x="227" y="-114" font-family="Helvetica,sans-Serif" font-size="10.00">dnf_composer::tools</text>
<text text-anchor="middle" x="302.5" y="-103" font-family="Helvetica,sans-Serif" font-size="10.00">::math::conv2d_separable_into</text>
</a>
</g>
</g>
<!-- Node2 -->
<g id="Node000002" class="node">
<title>Node2</title>
<g id="a_Node000002"><a xlink:href="classdnf__composer_1_1element_1_1AsymmetricGaussKernel2D.html#ab88efe9a35d4b8489448f12e6ab15509" target="_top" xlink:title="Advance the element by one time step.">
<polygon fill="white" stroke="#666666" points="183,-222 0,-222 0,-192 183,-192 183,-222"/>
<text text-anchor="start" x="8" y="-210" font-family="Helvetica,sans-Serif" font-size="10.00">dnf_composer::element</text>
<text text-anchor="middle" x="91.5" y="-199" font-family="Helvetica,sans-Serif" font-size="10.00">::AsymmetricGaussKernel2D::step</text>
</a>
</g>
</g>
<!-- Node1&#45;&gt;Node2 -->
<g id="edge1_Node000001_Node000002" class="edge">
<title>Node1&#45;&gt;Node2</title>
<g id="a_edge1_Node000001_Node000002"><a xlink:title=" ">
<path fill="none" stroke="#63b8ff" d="M272.3,-132.02C249.06,-147.92 215.21,-169.28 183,-183 175.22,-186.31 166.87,-189.27 158.5,-191.88"/>
<polygon fill="#63b8ff" stroke="#63b8ff" points="274.44,-134.79 280.66,-126.22 270.45,-129.04 274.44,-134.79"/>
</a>
</g>
</g>
<!-- Node3 -->
<g id="Node000003" class="node">
<title>Node3</title>
<g id="a_Node000003"><a xlink:href="classdnf__composer_1_1element_1_1CorrelatedNormalNoise2D.html#a3b8fb5f809d6103a7dff54129d8301f5" target="_top" xlink:title="Advance the element by one time step.">
<polygon fill="white" stroke="#666666" points="180.5,-174 2.5,-174 2.5,-144 180.5,-144 180.5,-174"/>
<text text-anchor="start" x="10.5" y="-162" font-family="Helvetica,sans-Serif" font-size="10.00">dnf_composer::element</text>
<text text-anchor="middle" x="91.5" y="-151" font-family="Helvetica,sans-Serif" font-size="10.00">::CorrelatedNormalNoise2D::step</text>
</a>
</g>
</g>
<!-- Node1&#45;&gt;Node3 -->
<g id="edge2_Node000001_Node000003" class="edge">
<title>Node1&#45;&gt;Node3</title>
<g id="a_edge2_Node000001_Node000003"><a xlink:title=" ">
<path fill="none" stroke="#63b8ff" d="M226.16,-128.3C203.79,-133.44 179.49,-139.02 157.82,-144"/>
<polygon fill="#63b8ff" stroke="#63b8ff" points="226.98,-131.71 235.94,-126.06 225.41,-124.88 226.98,-131.71"/>
</a>
</g>
</g>
<!-- Node4 -->
<g id="Node000004" class="node">
<title>Node4</title>
<g id="a_Node000004"><a xlink:href="classdnf__composer_1_1element_1_1GaussKernel2D.html#afe15b891a5a3bf3caba5213476d12edf" target="_top" xlink:title="Advance the element by one time step.">
<polygon fill="white" stroke="#666666" points="157.5,-126 25.5,-126 25.5,-96 157.5,-96 157.5,-126"/>
<text text-anchor="start" x="33.5" y="-114" font-family="Helvetica,sans-Serif" font-size="10.00">dnf_composer::element</text>
<text text-anchor="middle" x="91.5" y="-103" font-family="Helvetica,sans-Serif" font-size="10.00">::GaussKernel2D::step</text>
</a>
</g>
</g>
<!-- Node1&#45;&gt;Node4 -->
<g id="edge3_Node000001_Node000004" class="edge">
<title>Node1&#45;&gt;Node4</title>
<g id="a_edge3_Node000001_Node000004"><a xlink:title=" ">
<path fill="none" stroke="#63b8ff" d="M208.82,-111C191.6,-111 173.95,-111 157.76,-111"/>
<polygon fill="#63b8ff" stroke="#63b8ff" points="208.9,-114.5 218.9,-111 208.9,-107.5 208.9,-114.5"/>
</a>
</g>
</g>
<!-- Node5 -->
<g id="Node000005" class="node">
<title>Node5</title>
<g id="a_Node000005"><a xlink:href="classdnf__composer_1_1element_1_1MexicanHatKernel2D.html#a586a0dc4008c2456314a6254e9d9d0ee" target="_top" xlink:title="Advance the element by one time step.">
<polygon fill="white" stroke="#666666" points="167.5,-78 15.5,-78 15.5,-48 167.5,-48 167.5,-78"/>
<text text-anchor="start" x="23.5" y="-66" font-family="Helvetica,sans-Serif" font-size="10.00">dnf_composer::element</text>
<text text-anchor="middle" x="91.5" y="-55" font-family="Helvetica,sans-Serif" font-size="10.00">::MexicanHatKernel2D::step</text>
</a>
</g>
</g>
<!-- Node1&#45;&gt;Node5 -->
<g id="edge4_Node000001_Node000005" class="edge">
<title>Node1&#45;&gt;Node5</title>
<g id="a_edge4_Node000001_Node000005"><a xlink:title=" ">
<path fill="none" stroke="#63b8ff" d="M226.16,-93.7C203.79,-88.56 179.49,-82.98 157.82,-78"/>
<polygon fill="#63b8ff" stroke="#63b8ff" points="225.41,-97.12 235.94,-95.94 226.98,-90.29 225.41,-97.12"/>
</a>
</g>
</g>
<!-- Node6 -->
<g id="Node000006" class="node">
<title>Node6</title>
<g id="a_Node000006"><a xlink:href="classdnf__composer_1_1element_1_1OscillatoryKernel2D.html#a1a8e3064bedd9fd6d4a00818bc3ff271" target="_top" xlink:title="Advance the element by one time step.">
<polygon fill="white" stroke="#666666" points="164.5,-30 18.5,-30 18.5,0 164.5,0 164.5,-30"/>
<text text-anchor="start" x="26.5" y="-18" font-family="Helvetica,sans-Serif" font-size="10.00">dnf_composer::element</text>
<text text-anchor="middle" x="91.5" y="-7" font-family="Helvetica,sans-Serif" font-size="10.00">::OscillatoryKernel2D::step</text>
</a>
</g>
</g>
<!-- Node1&#45;&gt;Node6 -->
<g id="edge5_Node000001_Node000006" class="edge">
<title>Node1&#45;&gt;Node6</title>
<g id="a_edge5_Node000001_Node000006"><a xlink:title=" ">
<path fill="none" stroke="#63b8ff" d="M272.3,-89.98C249.06,-74.08 215.21,-52.72 183,-39 175.22,-35.69 166.87,-32.73 158.5,-30.12"/>
<polygon fill="#63b8ff" stroke="#63b8ff" points="270.45,-92.96 280.66,-95.78 274.44,-87.21 270.45,-92.96"/>
</a>
</g>
</g>
</g>
</svg>
