<?xml version="1.0" encoding="UTF-8" standalone="no"?>
<!DOCTYPE svg PUBLIC "-//W3C//DTD SVG 1.1//EN"
 "http://www.w3.org/Graphics/SVG/1.1/DTD/svg11.dtd">
<!-- Generated by graphviz version 2.43.0 (0)
 -->
<!-- Title: dnf_composer::tools::utils::getResourceRoot Pages: 1 -->
<svg width="574pt" height="316pt"
 viewBox="0.00 0.00 574.00 316.00" xmlns="http://www.w3.org/2000/svg" xmlns:xlink="http://www.w3.org/1999/xlink">
<g id="graph0" class="graph" transform="scale(1 1) rotate(0) translate(4 312)">
<title>dnf_composer::tools::utils::getResourceRoot</title>
<!-- Node1 -->
<g id="Node000001" class="node">
<title>Node1</title>
<g id="a_Node000001"><a xlink:title=" ">
<polygon fill="#999999" stroke="#666666" points="566,-169 433,-169 433,-139 566,-139 566,-169"/>
<text text-anchor="start" x="441" y="-157" font-family="Helvetica,sans-Serif" font-size="10.00">dnf_composer::tools</text>
<text text-anchor="middle" x="499.5" y="-146" font-family="Helvetica,sans-Serif" font-size="10.00">::utils::getResourceRoot</text>
</a>
</g>
</g>
<!-- Node2 -->
<g id="Node000002" class="node">
<title>Node2</title>
<g id="a_Node000002"><a xlink:href="classdnf__composer_1_1element_1_1FieldCoupling.html#a7af578f4c654acfce33920528d239c7d" target="_top" xlink:title="Construct a FieldCoupling.">
<polygon fill="white" stroke="#666666" points="380,-308 219,-308 219,-278 380,-278 380,-308"/>
<text text-anchor="start" x="227" y="-296" font-family="Helvetica,sans-Serif" font-size="10.00">dnf_composer::element</text>
<text text-anchor="middle" x="299.5" y="-285" font-family="Helvetica,sans-Serif" font-size="10.00">::FieldCoupling::FieldCoupling</text>
</a>
</g>
</g>
<!-- Node1&#45;&gt;Node2 -->
<g id="edge1_Node000001_Node000002" class="edge">
<title>Node1&#45;&gt;Node2</title>
<g id="a_edge1_Node000001_Node000002"><a xlink:title=" ">
<path fill="none" stroke="#63b8ff" d="M483.82,-177.96C466.39,-204.32 434.87,-246 397,-269 391.39,-272.4 385.32,-275.33 379.05,-277.84"/>
<polygon fill="#63b8ff" stroke="#63b8ff" points="486.9,-179.63 489.38,-169.33 481.02,-175.84 486.9,-179.63"/>
</a>
</g>
</g>
<!-- Node3 -->
<g id="Node000003" class="node">
<title>Node3</title>
<g id="a_Node000003"><a xlink:href="classdnf__composer_1_1Simulation.html#aa3419352b0706f0ba4c85781b8aa32ae" target="_top" xlink:title="Initialize all registered elements. Must be called before step().">
<polygon fill="white" stroke="#666666" points="371.5,-260 227.5,-260 227.5,-230 371.5,-230 371.5,-260"/>
<text text-anchor="start" x="235.5" y="-248" font-family="Helvetica,sans-Serif" font-size="10.00">dnf_composer::Simulation</text>
<text text-anchor="middle" x="299.5" y="-237" font-family="Helvetica,sans-Serif" font-size="10.00">::init</text>
</a>
</g>
</g>
<!-- Node1&#45;&gt;Node3 -->
<g id="edge2_Node000001_Node000003" class="edge">
<title>Node1&#45;&gt;Node3</title>
<g id="a_edge2_Node000001_Node000003"><a xlink:title=" ">
<path fill="none" stroke="#63b8ff" d="M471.64,-175.41C451.98,-190.13 424.12,-209.1 397,-221 388.94,-224.54 380.26,-227.62 371.53,-230.29"/>
<polygon fill="#63b8ff" stroke="#63b8ff" points="473.97,-178.03 479.8,-169.19 469.73,-172.47 473.97,-178.03"/>
</a>
</g>
</g>
<!-- Node7 -->
<g id="Node000007" class="node">
<title>Node7</title>
<g id="a_Node000007"><a xlink:href="classdnf__composer_1_1Application.html#ad9787ecf2d64ff85c949f2ba24784a08" target="_top" xlink:title="Initialize the GUI and all registered windows. Call once before step().">
<polygon fill="white" stroke="#666666" points="372.5,-212 226.5,-212 226.5,-182 372.5,-182 372.5,-212"/>
<text text-anchor="start" x="234.5" y="-200" font-family="Helvetica,sans-Serif" font-size="10.00">dnf_composer::Application</text>
<text text-anchor="middle" x="299.5" y="-189" font-family="Helvetica,sans-Serif" font-size="10.00">::init</text>
</a>
</g>
</g>
<!-- Node1&#45;&gt;Node7 -->
<g id="edge6_Node000001_Node000007" class="edge">
<title>Node1&#45;&gt;Node7</title>
<g id="a_edge6_Node000001_Node000007"><a xlink:title=" ">
<path fill="none" stroke="#63b8ff" d="M422.72,-170.46C405.29,-174.24 386.85,-178.25 369.71,-181.97"/>
<polygon fill="#63b8ff" stroke="#63b8ff" points="423.81,-173.8 432.84,-168.26 422.33,-166.96 423.81,-173.8"/>
</a>
</g>
</g>
<!-- Node8 -->
<g id="Node000008" class="node">
<title>Node8</title>
<g id="a_Node000008"><a xlink:href="namespaceFileDialog.html#a665aae6a75d9f9635f4bf7e8135b48c0" target="_top" xlink:title=" ">
<polygon fill="white" stroke="#666666" points="372.5,-163.5 226.5,-163.5 226.5,-144.5 372.5,-144.5 372.5,-163.5"/>
<text text-anchor="middle" x="299.5" y="-151.5" font-family="Helvetica,sans-Serif" font-size="10.00">FileDialog::ShowFileDialog</text>
</a>
</g>
</g>
<!-- Node1&#45;&gt;Node8 -->
<g id="edge7_Node000001_Node000008" class="edge">
<title>Node1&#45;&gt;Node8</title>
<g id="a_edge7_Node000001_Node000008"><a xlink:title=" ">
<path fill="none" stroke="#63b8ff" d="M422.77,-154C406.37,-154 389.07,-154 372.8,-154"/>
<polygon fill="#63b8ff" stroke="#63b8ff" points="422.84,-157.5 432.84,-154 422.84,-150.5 422.84,-157.5"/>
</a>
</g>
</g>
<!-- Node10 -->
<g id="Node000010" class="node">
<title>Node10</title>
<g id="a_Node000010"><a xlink:href="classdnf__composer_1_1SimulationFileManager.html#ac3c402cf84127446d2b2aba586bae542" target="_top" xlink:title="Construct a SimulationFileManager.">
<polygon fill="white" stroke="#666666" points="397,-126 202,-126 202,-96 397,-96 397,-126"/>
<text text-anchor="start" x="210" y="-114" font-family="Helvetica,sans-Serif" font-size="10.00">dnf_composer::Simulation</text>
<text text-anchor="middle" x="299.5" y="-103" font-family="Helvetica,sans-Serif" font-size="10.00">FileManager::SimulationFileManager</text>
</a>
</g>
</g>
<!-- Node1&#45;&gt;Node10 -->
<g id="edge9_Node000001_Node000010" class="edge">
<title>Node1&#45;&gt;Node10</title>
<g id="a_edge9_Node000001_Node000010"><a xlink:title=" ">
<path fill="none" stroke="#63b8ff" d="M422.72,-137.54C405.29,-133.76 386.85,-129.75 369.71,-126.03"/>
<polygon fill="#63b8ff" stroke="#63b8ff" points="422.33,-141.04 432.84,-139.74 423.81,-134.2 422.33,-141.04"/>
</a>
</g>
</g>
<!-- Node11 -->
<g id="Node000011" class="node">
<title>Node11</title>
<g id="a_Node000011"><a xlink:href="classdnf__composer_1_1SimulationRecorder.html#ad2130d98d72a3e3abb30bb024a4eac8b" target="_top" xlink:title="Start a new continuous recording for the given element/component pair. Creates data/&lt;simName&gt;/recordi...">
<polygon fill="white" stroke="#666666" points="371.5,-78 227.5,-78 227.5,-48 371.5,-48 371.5,-78"/>
<text text-anchor="start" x="235.5" y="-66" font-family="Helvetica,sans-Serif" font-size="10.00">dnf_composer::Simulation</text>
<text text-anchor="middle" x="299.5" y="-55" font-family="Helvetica,sans-Serif" font-size="10.00">Recorder::startRecording</text>
</a>
</g>
</g>
<!-- Node1&#45;&gt;Node11 -->
<g id="edge10_Node000001_Node000011" class="edge">
<title>Node1&#45;&gt;Node11</title>
<g id="a_edge10_Node000001_Node000011"><a xlink:title=" ">
<path fill="none" stroke="#63b8ff" d="M471.64,-132.59C451.98,-117.87 424.12,-98.9 397,-87 388.94,-83.46 380.26,-80.38 371.53,-77.71"/>
<polygon fill="#63b8ff" stroke="#63b8ff" points="469.73,-135.53 479.8,-138.81 473.97,-129.97 469.73,-135.53"/>
</a>
</g>
</g>
<!-- Node12 -->
<g id="Node000012" class="node">
<title>Node12</title>
<g id="a_Node000012"><a xlink:href="classdnf__composer_1_1SimulationRecorder.html#ad6a67166f5f8420901788dd360115e46" target="_top" xlink:title="Write a single&#45;row snapshot CSV for the given element/component. Output path: data/&lt;simName&gt;/exports/...">
<polygon fill="white" stroke="#666666" points="371.5,-30 227.5,-30 227.5,0 371.5,0 371.5,-30"/>
<text text-anchor="start" x="235.5" y="-18" font-family="Helvetica,sans-Serif" font-size="10.00">dnf_composer::Simulation</text>
<text text-anchor="middle" x="299.5" y="-7" font-family="Helvetica,sans-Serif" font-size="10.00">Recorder::takeSnapshot</text>
</a>
</g>
</g>
<!-- Node1&#45;&gt;Node12 -->
<g id="edge11_Node000001_Node000012" class="edge">
<title>Node1&#45;&gt;Node12</title>
<g id="a_edge11_Node000001_Node000012"><a xlink:title=" ">
<path fill="none" stroke="#63b8ff" d="M483.82,-130.04C466.39,-103.68 434.87,-62 397,-39 389.18,-34.25 380.46,-30.44 371.55,-27.38"/>
<polygon fill="#63b8ff" stroke="#63b8ff" points="481.02,-132.16 489.38,-138.67 486.9,-128.37 481.02,-132.16"/>
</a>
</g>
</g>
<!-- Node4 -->
<g id="Node000004" class="node">
<title>Node4</title>
<g id="a_Node000004"><a xlink:href="classdnf__composer_1_1Simulation.html#a487ef819fe0e501707580714b92b80ca" target="_top" xlink:title="Deserialize the simulation state from a JSON file.">
<polygon fill="white" stroke="#666666" points="155,-303 11,-303 11,-273 155,-273 155,-303"/>
<text text-anchor="start" x="19" y="-291" font-family="Helvetica,sans-Serif" font-size="10.00">dnf_composer::Simulation</text>
<text text-anchor="middle" x="83" y="-280" font-family="Helvetica,sans-Serif" font-size="10.00">::read</text>
</a>
</g>
</g>
<!-- Node3&#45;&gt;Node4 -->
<g id="edge3_Node000003_Node000004" class="edge">
<title>Node3&#45;&gt;Node4</title>
<g id="a_edge3_Node000003_Node000004"><a xlink:title=" ">
<path fill="none" stroke="#63b8ff" d="M217.46,-261.25C197.02,-265.34 175.22,-269.71 155.3,-273.71"/>
<polygon fill="#63b8ff" stroke="#63b8ff" points="218.26,-264.66 227.37,-259.26 216.88,-257.79 218.26,-264.66"/>
</a>
</g>
</g>
<!-- Node5 -->
<g id="Node000005" class="node">
<title>Node5</title>
<g id="a_Node000005"><a xlink:href="classdnf__composer_1_1Simulation.html#adc98d900b0ed2e9f901ee9bf0170d93b" target="_top" xlink:title="Run the simulation for runTime milliseconds (blocking).">
<polygon fill="white" stroke="#666666" points="166,-254.5 0,-254.5 0,-235.5 166,-235.5 166,-254.5"/>
<text text-anchor="middle" x="83" y="-242.5" font-family="Helvetica,sans-Serif" font-size="10.00">dnf_composer::Simulation::run</text>
</a>
</g>
</g>
<!-- Node3&#45;&gt;Node5 -->
<g id="edge4_Node000003_Node000005" class="edge">
<title>Node3&#45;&gt;Node5</title>
<g id="a_edge4_Node000003_Node000005"><a xlink:title=" ">
<path fill="none" stroke="#63b8ff" d="M217.1,-245C200.4,-245 182.8,-245 166.08,-245"/>
<polygon fill="#63b8ff" stroke="#63b8ff" points="217.37,-248.5 227.37,-245 217.37,-241.5 217.37,-248.5"/>
</a>
</g>
</g>
<!-- Node6 -->
<g id="Node000006" class="node">
<title>Node6</title>
<g id="a_Node000006"><a xlink:href="classdnf__composer_1_1Simulation.html#a02cc12769e196f46a1ca4eb4f360fc3c" target="_top" xlink:title="Run the simulation in real&#45;time for milliseconds wall&#45;clock ms.">
<polygon fill="white" stroke="#666666" points="155,-217 11,-217 11,-187 155,-187 155,-217"/>
<text text-anchor="start" x="19" y="-205" font-family="Helvetica,sans-Serif" font-size="10.00">dnf_composer::Simulation</text>
<text text-anchor="middle" x="83" y="-194" font-family="Helvetica,sans-Serif" font-size="10.00">::runForRealTime</text>
</a>
</g>
</g>
<!-- Node3&#45;&gt;Node6 -->
<g id="edge5_Node000003_Node000006" class="edge">
<title>Node3&#45;&gt;Node6</title>
<g id="a_edge5_Node000003_Node000006"><a xlink:title=" ">
<path fill="none" stroke="#63b8ff" d="M217.46,-228.75C197.02,-224.66 175.22,-220.29 155.3,-216.29"/>
<polygon fill="#63b8ff" stroke="#63b8ff" points="216.88,-232.21 227.37,-230.74 218.26,-225.34 216.88,-232.21"/>
</a>
</g>
</g>
<!-- Node9 -->
<g id="Node000009" class="node">
<title>Node9</title>
<g id="a_Node000009"><a xlink:href="namespaceFileDialog.html#ad9d1c40a19c4dac5851a6534c505914b" target="_top" xlink:title=" ">
<polygon fill="white" stroke="#666666" points="161.5,-163.5 4.5,-163.5 4.5,-144.5 161.5,-144.5 161.5,-163.5"/>
<text text-anchor="middle" x="83" y="-151.5" font-family="Helvetica,sans-Serif" font-size="10.00">FileDialog::ShowFileDialog_s</text>
</a>
</g>
</g>
<!-- Node8&#45;&gt;Node9 -->
<g id="edge8_Node000008_Node000009" class="edge">
<title>Node8&#45;&gt;Node9</title>
<g id="a_edge8_Node000008_Node000009"><a xlink:title=" ">
<path fill="none" stroke="#63b8ff" d="M216.34,-154C198.4,-154 179.48,-154 161.72,-154"/>
<polygon fill="#63b8ff" stroke="#63b8ff" points="216.48,-157.5 226.48,-154 216.48,-150.5 216.48,-157.5"/>
</a>
</g>
</g>
</g>
</svg>
