<?xml version="1.0" encoding="UTF-8" standalone="no"?>
<!DOCTYPE svg PUBLIC "-//W3C//DTD SVG 1.1//EN"
 "http://www.w3.org/Graphics/SVG/1.1/DTD/svg11.dtd">
<!-- Generated by graphviz version 2.43.0 (0)
 -->
<!-- Title: dnf_composer::tools::math::resampleInto Pages: 1 -->
<svg width="333pt" height="182pt"
 viewBox="0.00 0.00 333.00 182.00" xmlns="http://www.w3.org/2000/svg" xmlns:xlink="http://www.w3.org/1999/xlink">
<g id="graph0" class="graph" transform="scale(1 1) rotate(0) translate(4 178)">
<title>dnf_composer::tools::math::resampleInto</title>
<!-- Node1 -->
<g id="Node000001" class="node">
<title>Node1</title>
<g id="a_Node000001"><a xlink:title=" ">
<polygon fill="#999999" stroke="#666666" points="325,-102 206,-102 206,-72 325,-72 325,-102"/>
<text text-anchor="start" x="214" y="-90" font-family="Helvetica,sans-Serif" font-size="10.00">dnf_composer::tools</text>
<text text-anchor="middle" x="265.5" y="-79" font-family="Helvetica,sans-Serif" font-size="10.00">::math::resampleInto</text>
</a>
</g>
</g>
<!-- Node2 -->
<g id="Node000002" class="node">
<title>Node2</title>
<g id="a_Node000002"><a xlink:href="classdnf__composer_1_1element_1_1AsymmetricGaussKernel.html#afa45a45ca8acb0432937de3b1563ba82" target="_top" xlink:title="Advance the element by one time step.">
<polygon fill="white" stroke="#666666" points="170,-174 0,-174 0,-144 170,-144 170,-174"/>
<text text-anchor="start" x="8" y="-162" font-family="Helvetica,sans-Serif" font-size="10.00">dnf_composer::element</text>
<text text-anchor="middle" x="85" y="-151" font-family="Helvetica,sans-Serif" font-size="10.00">::AsymmetricGaussKernel::step</text>
</a>
</g>
</g>
<!-- Node1&#45;&gt;Node2 -->
<g id="edge1_Node000001_Node000002" class="edge">
<title>Node1&#45;&gt;Node2</title>
<g id="a_edge1_Node000001_Node000002"><a xlink:title=" ">
<path fill="none" stroke="#63b8ff" d="M229.02,-107.06C211.6,-116.38 190.09,-127.11 170,-135 161.81,-138.21 153.02,-141.21 144.32,-143.91"/>
<polygon fill="#63b8ff" stroke="#63b8ff" points="231.13,-109.9 238.24,-102.06 227.79,-103.75 231.13,-109.9"/>
</a>
</g>
</g>
<!-- Node3 -->
<g id="Node000003" class="node">
<title>Node3</title>
<g id="a_Node000003"><a xlink:href="classdnf__composer_1_1element_1_1GaussKernel.html#a5fd228b67854d1c571f272756c67389a" target="_top" xlink:title="Advance the element by one time step.">
<polygon fill="white" stroke="#666666" points="151,-126 19,-126 19,-96 151,-96 151,-126"/>
<text text-anchor="start" x="27" y="-114" font-family="Helvetica,sans-Serif" font-size="10.00">dnf_composer::element</text>
<text text-anchor="middle" x="85" y="-103" font-family="Helvetica,sans-Serif" font-size="10.00">::GaussKernel::step</text>
</a>
</g>
</g>
<!-- Node1&#45;&gt;Node3 -->
<g id="edge2_Node000001_Node000003" class="edge">
<title>Node1&#45;&gt;Node3</title>
<g id="a_edge2_Node000001_Node000003"><a xlink:title=" ">
<path fill="none" stroke="#63b8ff" d="M195.57,-96.27C180.93,-98.24 165.52,-100.31 151.04,-102.26"/>
<polygon fill="#63b8ff" stroke="#63b8ff" points="196.11,-99.73 205.56,-94.93 195.18,-92.79 196.11,-99.73"/>
</a>
</g>
</g>
<!-- Node4 -->
<g id="Node000004" class="node">
<title>Node4</title>
<g id="a_Node000004"><a xlink:href="classdnf__composer_1_1element_1_1MexicanHatKernel.html#ac18abde56a67c7c1c127d38065d6f316" target="_top" xlink:title="Advance the element by one time step.">
<polygon fill="white" stroke="#666666" points="154.5,-78 15.5,-78 15.5,-48 154.5,-48 154.5,-78"/>
<text text-anchor="start" x="23.5" y="-66" font-family="Helvetica,sans-Serif" font-size="10.00">dnf_composer::element</text>
<text text-anchor="middle" x="85" y="-55" font-family="Helvetica,sans-Serif" font-size="10.00">::MexicanHatKernel::step</text>
</a>
</g>
</g>
<!-- Node1&#45;&gt;Node4 -->
<g id="edge3_Node000001_Node000004" class="edge">
<title>Node1&#45;&gt;Node4</title>
<g id="a_edge3_Node000001_Node000004"><a xlink:title=" ">
<path fill="none" stroke="#63b8ff" d="M195.49,-77.72C182.13,-75.93 168.14,-74.04 154.79,-72.25"/>
<polygon fill="#63b8ff" stroke="#63b8ff" points="195.18,-81.21 205.56,-79.07 196.11,-74.27 195.18,-81.21"/>
</a>
</g>
</g>
<!-- Node5 -->
<g id="Node000005" class="node">
<title>Node5</title>
<g id="a_Node000005"><a xlink:href="classdnf__composer_1_1element_1_1OscillatoryKernel.html#ab95458cda2baab4cbaf0e010e2cb86a8" target="_top" xlink:title="Advance the element by one time step.">
<polygon fill="white" stroke="#666666" points="151.5,-30 18.5,-30 18.5,0 151.5,0 151.5,-30"/>
<text text-anchor="start" x="26.5" y="-18" font-family="Helvetica,sans-Serif" font-size="10.00">dnf_composer::element</text>
<text text-anchor="middle" x="85" y="-7" font-family="Helvetica,sans-Serif" font-size="10.00">::OscillatoryKernel::step</text>
</a>
</g>
</g>
<!-- Node1&#45;&gt;Node5 -->
<g id="edge4_Node000001_Node000005" class="edge">
<title>Node1&#45;&gt;Node5</title>
<g id="a_edge4_Node000001_Node000005"><a xlink:title=" ">
<path fill="none" stroke="#63b8ff" d="M229.02,-66.94C211.6,-57.62 190.09,-46.89 170,-39 161.81,-35.79 153.02,-32.79 144.32,-30.09"/>
<polygon fill="#63b8ff" stroke="#63b8ff" points="227.79,-70.25 238.24,-71.94 231.13,-64.1 227.79,-70.25"/>
</a>
</g>
</g>
</g>
</svg>
