<?xml version="1.0" encoding="UTF-8" standalone="no"?>
<!DOCTYPE svg PUBLIC "-//W3C//DTD SVG 1.1//EN"
 "http://www.w3.org/Graphics/SVG/1.1/DTD/svg11.dtd">
<!-- Generated by graphviz version 2.43.0 (0)
 -->
<!-- Title: dnf_composer::tools::math::gaussian_2d_periodic Pages: 1 -->
<svg width="476pt" height="167pt"
 viewBox="0.00 0.00 476.00 167.00" xmlns="http://www.w3.org/2000/svg" xmlns:xlink="http://www.w3.org/1999/xlink">
<g id="graph0" class="graph" transform="scale(1 1) rotate(0) translate(4 163)">
<title>dnf_composer::tools::math::gaussian_2d_periodic</title>
<!-- Node1 -->
<g id="Node000001" class="node">
<title>Node1</title>
<g id="a_Node000001"><a xlink:title=" ">
<polygon fill="#999999" stroke="#666666" points="468,-100 352,-100 352,-59 468,-59 468,-100"/>
<text text-anchor="start" x="360" y="-88" font-family="Helvetica,sans-Serif" font-size="10.00">dnf_composer::tools</text>
<text text-anchor="start" x="360" y="-77" font-family="Helvetica,sans-Serif" font-size="10.00">::math::gaussian_2d</text>
<text text-anchor="middle" x="410" y="-66" font-family="Helvetica,sans-Serif" font-size="10.00">_periodic</text>
</a>
</g>
</g>
<!-- Node2 -->
<g id="Node000002" class="node">
<title>Node2</title>
<g id="a_Node000002"><a xlink:href="classdnf__composer_1_1element_1_1GaussFieldCoupling.html#af9329fd9e8be90a4177c5c1769b52864" target="_top" xlink:title="Initialize the element (called once before the simulation loop).">
<polygon fill="white" stroke="#666666" points="316,-94.5 176,-94.5 176,-64.5 316,-64.5 316,-94.5"/>
<text text-anchor="start" x="184" y="-82.5" font-family="Helvetica,sans-Serif" font-size="10.00">dnf_composer::element</text>
<text text-anchor="middle" x="246" y="-71.5" font-family="Helvetica,sans-Serif" font-size="10.00">::GaussFieldCoupling::init</text>
</a>
</g>
</g>
<!-- Node1&#45;&gt;Node2 -->
<g id="edge1_Node000001_Node000002" class="edge">
<title>Node1&#45;&gt;Node2</title>
<g id="a_edge1_Node000001_Node000002"><a xlink:title=" ">
<path fill="none" stroke="#63b8ff" d="M341.7,-79.5C333.24,-79.5 324.58,-79.5 316.1,-79.5"/>
<polygon fill="#63b8ff" stroke="#63b8ff" points="341.88,-83 351.88,-79.5 341.88,-76 341.88,-83"/>
</a>
</g>
</g>
<!-- Node3 -->
<g id="Node000003" class="node">
<title>Node3</title>
<g id="a_Node000003"><a xlink:href="classdnf__composer_1_1element_1_1GaussFieldCoupling.html#a108ed838e6171d3ff2275b2d01099494" target="_top" xlink:title="Resize the output field dimensions and rebuild the weight matrix. Preserves input field dimensions an...">
<polygon fill="white" stroke="#666666" points="136,-159 4,-159 4,-118 136,-118 136,-159"/>
<text text-anchor="start" x="12" y="-147" font-family="Helvetica,sans-Serif" font-size="10.00">dnf_composer::element</text>
<text text-anchor="start" x="12" y="-136" font-family="Helvetica,sans-Serif" font-size="10.00">::GaussFieldCoupling</text>
<text text-anchor="middle" x="70" y="-125" font-family="Helvetica,sans-Serif" font-size="10.00">::changeDimensions</text>
</a>
</g>
</g>
<!-- Node2&#45;&gt;Node3 -->
<g id="edge2_Node000002_Node000003" class="edge">
<title>Node2&#45;&gt;Node3</title>
<g id="a_edge2_Node000002_Node000003"><a xlink:title=" ">
<path fill="none" stroke="#63b8ff" d="M191.05,-97.79C172.24,-104.17 151.01,-111.37 131.69,-117.92"/>
<polygon fill="#63b8ff" stroke="#63b8ff" points="192.3,-101.07 200.64,-94.54 190.05,-94.44 192.3,-101.07"/>
</a>
</g>
</g>
<!-- Node4 -->
<g id="Node000004" class="node">
<title>Node4</title>
<g id="a_Node000004"><a xlink:href="classdnf__composer_1_1element_1_1GaussFieldCoupling.html#a011959c9655f8768d27b19fe039eba00" target="_top" xlink:title="Resize the input field dimensions and rebuild the weight matrix. Preserves output field dimensions an...">
<polygon fill="white" stroke="#666666" points="140,-100 0,-100 0,-59 140,-59 140,-100"/>
<text text-anchor="start" x="8" y="-88" font-family="Helvetica,sans-Serif" font-size="10.00">dnf_composer::element</text>
<text text-anchor="start" x="8" y="-77" font-family="Helvetica,sans-Serif" font-size="10.00">::GaussFieldCoupling</text>
<text text-anchor="middle" x="70" y="-66" font-family="Helvetica,sans-Serif" font-size="10.00">::changeInputDimensions</text>
</a>
</g>
</g>
<!-- Node2&#45;&gt;Node4 -->
<g id="edge3_Node000002_Node000004" class="edge">
<title>Node2&#45;&gt;Node4</title>
<g id="a_edge3_Node000002_Node000004"><a xlink:title=" ">
<path fill="none" stroke="#63b8ff" d="M165.97,-79.5C157.38,-79.5 148.68,-79.5 140.22,-79.5"/>
<polygon fill="#63b8ff" stroke="#63b8ff" points="165.98,-83 175.98,-79.5 165.98,-76 165.98,-83"/>
</a>
</g>
</g>
<!-- Node5 -->
<g id="Node000005" class="node">
<title>Node5</title>
<g id="a_Node000005"><a xlink:href="classdnf__composer_1_1element_1_1GaussFieldCoupling.html#a228fff4bd406f51e882b50bce7188bec" target="_top" xlink:title=" ">
<polygon fill="white" stroke="#666666" points="136,-41 4,-41 4,0 136,0 136,-41"/>
<text text-anchor="start" x="12" y="-29" font-family="Helvetica,sans-Serif" font-size="10.00">dnf_composer::element</text>
<text text-anchor="start" x="12" y="-18" font-family="Helvetica,sans-Serif" font-size="10.00">::GaussFieldCoupling</text>
<text text-anchor="middle" x="70" y="-7" font-family="Helvetica,sans-Serif" font-size="10.00">::setParameters</text>
</a>
</g>
</g>
<!-- Node2&#45;&gt;Node5 -->
<g id="edge4_Node000002_Node000005" class="edge">
<title>Node2&#45;&gt;Node5</title>
<g id="a_edge4_Node000002_Node000005"><a xlink:title=" ">
<path fill="none" stroke="#63b8ff" d="M191.05,-61.21C172.24,-54.83 151.01,-47.63 131.69,-41.08"/>
<polygon fill="#63b8ff" stroke="#63b8ff" points="190.05,-64.56 200.64,-64.46 192.3,-57.93 190.05,-64.56"/>
</a>
</g>
</g>
</g>
</svg>
