<?xml version="1.0" encoding="UTF-8" standalone="no"?>
<!DOCTYPE svg PUBLIC "-//W3C//DTD SVG 1.1//EN"
 "http://www.w3.org/Graphics/SVG/1.1/DTD/svg11.dtd">
<!-- Generated by graphviz version 2.43.0 (0)
 -->
<!-- Title: dnf_composer::tools::logger::log Pages: 1 -->
<svg width="751pt" height="667pt"
 viewBox="0.00 0.00 751.00 667.00" xmlns="http://www.w3.org/2000/svg" xmlns:xlink="http://www.w3.org/1999/xlink">
<g id="graph0" class="graph" transform="scale(1 1) rotate(0) translate(4 663)">
<title>dnf_composer::tools::logger::log</title>
<!-- Node1 -->
<g id="Node000001" class="node">
<title>Node1</title>
<g id="a_Node000001"><a xlink:title=" ">
<polygon fill="#999999" stroke="#666666" points="743,-326 627,-326 627,-296 743,-296 743,-326"/>
<text text-anchor="start" x="635" y="-314" font-family="Helvetica,sans-Serif" font-size="10.00">dnf_composer::tools</text>
<text text-anchor="middle" x="685" y="-303" font-family="Helvetica,sans-Serif" font-size="10.00">::logger::log</text>
</a>
</g>
</g>
<!-- Node2 -->
<g id="Node000002" class="node">
<title>Node2</title>
<g id="a_Node000002"><a xlink:href="classdnf__composer_1_1Simulation.html#aa3419352b0706f0ba4c85781b8aa32ae" target="_top" xlink:title="Initialize all registered elements. Must be called before step().">
<polygon fill="white" stroke="#666666" points="568,-616 424,-616 424,-586 568,-586 568,-616"/>
<text text-anchor="start" x="432" y="-604" font-family="Helvetica,sans-Serif" font-size="10.00">dnf_composer::Simulation</text>
<text text-anchor="middle" x="496" y="-593" font-family="Helvetica,sans-Serif" font-size="10.00">::init</text>
</a>
</g>
</g>
<!-- Node1&#45;&gt;Node2 -->
<g id="edge1_Node000001_Node000002" class="edge">
<title>Node1&#45;&gt;Node2</title>
<g id="a_edge1_Node000001_Node000002"><a xlink:title=" ">
<path fill="none" stroke="#63b8ff" d="M682.77,-336.5C678.81,-389.47 662.02,-511.86 591,-577 584.42,-583.03 576.54,-587.6 568.17,-591.04"/>
<polygon fill="#63b8ff" stroke="#63b8ff" points="686.28,-336.51 683.44,-326.3 679.3,-336.05 686.28,-336.51"/>
</a>
</g>
</g>
<!-- Node6 -->
<g id="Node000006" class="node">
<title>Node6</title>
<g id="a_Node000006"><a xlink:href="structdnf__composer_1_1element_1_1ElementDimensions.html#a61dc48a63bf6451065883ea37f0228fa" target="_top" xlink:title=" ">
<polygon fill="white" stroke="#666666" points="570.5,-568 421.5,-568 421.5,-538 570.5,-538 570.5,-568"/>
<text text-anchor="start" x="429.5" y="-556" font-family="Helvetica,sans-Serif" font-size="10.00">dnf_composer::element</text>
<text text-anchor="middle" x="496" y="-545" font-family="Helvetica,sans-Serif" font-size="10.00">::ElementDimensions::print</text>
</a>
</g>
</g>
<!-- Node1&#45;&gt;Node6 -->
<g id="edge5_Node000001_Node000006" class="edge">
<title>Node1&#45;&gt;Node6</title>
<g id="a_edge5_Node000001_Node000006"><a xlink:title=" ">
<path fill="none" stroke="#63b8ff" d="M680.62,-336.01C673.11,-381.5 650.72,-477.8 591,-529 584.99,-534.15 578.02,-538.22 570.64,-541.43"/>
<polygon fill="#63b8ff" stroke="#63b8ff" points="684.08,-336.51 682.15,-326.1 677.16,-335.44 684.08,-336.51"/>
</a>
</g>
</g>
<!-- Node7 -->
<g id="Node000007" class="node">
<title>Node7</title>
<g id="a_Node000007"><a xlink:href="structdnf__composer_1_1element_1_1ElementIdentifiers.html#a6c590a127035df69718210304ad9ccb6" target="_top" xlink:title=" ">
<polygon fill="white" stroke="#666666" points="562,-519.5 430,-519.5 430,-478.5 562,-478.5 562,-519.5"/>
<text text-anchor="start" x="438" y="-507.5" font-family="Helvetica,sans-Serif" font-size="10.00">dnf_composer::element</text>
<text text-anchor="start" x="438" y="-496.5" font-family="Helvetica,sans-Serif" font-size="10.00">::ElementIdentifiers</text>
<text text-anchor="middle" x="496" y="-485.5" font-family="Helvetica,sans-Serif" font-size="10.00">::print</text>
</a>
</g>
</g>
<!-- Node1&#45;&gt;Node7 -->
<g id="edge6_Node000001_Node000007" class="edge">
<title>Node1&#45;&gt;Node7</title>
<g id="a_edge6_Node000001_Node000007"><a xlink:title=" ">
<path fill="none" stroke="#63b8ff" d="M676.06,-335.67C663.54,-370.66 635.93,-434.38 591,-470 582.57,-476.68 572.6,-481.84 562.35,-485.8"/>
<polygon fill="#63b8ff" stroke="#63b8ff" points="679.37,-336.8 679.32,-326.21 672.75,-334.52 679.37,-336.8"/>
</a>
</g>
</g>
<!-- Node8 -->
<g id="Node000008" class="node">
<title>Node8</title>
<g id="a_Node000008"><a xlink:href="structdnf__composer_1_1element_1_1ElementCommonParameters.html#a446472a2d6a83b41ae55e42c024357f3" target="_top" xlink:title=" ">
<polygon fill="white" stroke="#666666" points="577.5,-460.5 414.5,-460.5 414.5,-419.5 577.5,-419.5 577.5,-460.5"/>
<text text-anchor="start" x="422.5" y="-448.5" font-family="Helvetica,sans-Serif" font-size="10.00">dnf_composer::element</text>
<text text-anchor="start" x="422.5" y="-437.5" font-family="Helvetica,sans-Serif" font-size="10.00">::ElementCommonParameters</text>
<text text-anchor="middle" x="496" y="-426.5" font-family="Helvetica,sans-Serif" font-size="10.00">::print</text>
</a>
</g>
</g>
<!-- Node1&#45;&gt;Node8 -->
<g id="edge7_Node000001_Node000008" class="edge">
<title>Node1&#45;&gt;Node8</title>
<g id="a_edge7_Node000001_Node000008"><a xlink:title=" ">
<path fill="none" stroke="#63b8ff" d="M667.69,-334.29C650.87,-356.69 622.69,-390.01 591,-410 585.49,-413.47 579.55,-416.58 573.42,-419.34"/>
<polygon fill="#63b8ff" stroke="#63b8ff" points="670.68,-336.14 673.77,-326.01 665.03,-332 670.68,-336.14"/>
</a>
</g>
</g>
<!-- Node9 -->
<g id="Node000009" class="node">
<title>Node9</title>
<g id="a_Node000009"><a xlink:href="structdnf__composer_1_1element_1_1NeuralFieldState.html#a9b0422c8ee94d56d397b290576b493ce" target="_top" xlink:title=" ">
<polygon fill="white" stroke="#666666" points="562,-401 430,-401 430,-371 562,-371 562,-401"/>
<text text-anchor="start" x="438" y="-389" font-family="Helvetica,sans-Serif" font-size="10.00">dnf_composer::element</text>
<text text-anchor="middle" x="496" y="-378" font-family="Helvetica,sans-Serif" font-size="10.00">::NeuralFieldState::print</text>
</a>
</g>
</g>
<!-- Node1&#45;&gt;Node9 -->
<g id="edge8_Node000001_Node000009" class="edge">
<title>Node1&#45;&gt;Node9</title>
<g id="a_edge8_Node000001_Node000009"><a xlink:title=" ">
<path fill="none" stroke="#63b8ff" d="M651.68,-331.36C634.23,-341.66 612,-353.71 591,-362 581.83,-365.62 571.95,-368.83 562.15,-371.64"/>
<polygon fill="#63b8ff" stroke="#63b8ff" points="653.57,-334.3 660.34,-326.16 649.96,-328.3 653.57,-334.3"/>
</a>
</g>
</g>
<!-- Node10 -->
<g id="Node000010" class="node">
<title>Node10</title>
<g id="a_Node000010"><a xlink:href="structdnf__composer_1_1element_1_1NeuralField2DBump.html#a5fd238b40ad52cb3b6a8811ca05ab324" target="_top" xlink:title=" ">
<polygon fill="white" stroke="#666666" points="570.5,-353 421.5,-353 421.5,-323 570.5,-323 570.5,-353"/>
<text text-anchor="start" x="429.5" y="-341" font-family="Helvetica,sans-Serif" font-size="10.00">dnf_composer::element</text>
<text text-anchor="middle" x="496" y="-330" font-family="Helvetica,sans-Serif" font-size="10.00">::NeuralField2DBump::print</text>
</a>
</g>
</g>
<!-- Node1&#45;&gt;Node10 -->
<g id="edge9_Node000001_Node000010" class="edge">
<title>Node1&#45;&gt;Node10</title>
<g id="a_edge9_Node000001_Node000010"><a xlink:title=" ">
<path fill="none" stroke="#63b8ff" d="M616.71,-320.72C601.77,-322.87 585.86,-325.17 570.69,-327.36"/>
<polygon fill="#63b8ff" stroke="#63b8ff" points="617.48,-324.14 626.88,-319.25 616.48,-317.21 617.48,-324.14"/>
</a>
</g>
</g>
<!-- Node11 -->
<g id="Node000011" class="node">
<title>Node11</title>
<g id="a_Node000011"><a xlink:href="structdnf__composer_1_1element_1_1NeuralField2DState.html#a518fe0ae122172b909ea8c695492dc23" target="_top" xlink:title=" ">
<polygon fill="white" stroke="#666666" points="562,-304.5 430,-304.5 430,-263.5 562,-263.5 562,-304.5"/>
<text text-anchor="start" x="438" y="-292.5" font-family="Helvetica,sans-Serif" font-size="10.00">dnf_composer::element</text>
<text text-anchor="start" x="438" y="-281.5" font-family="Helvetica,sans-Serif" font-size="10.00">::NeuralField2DState</text>
<text text-anchor="middle" x="496" y="-270.5" font-family="Helvetica,sans-Serif" font-size="10.00">::print</text>
</a>
</g>
</g>
<!-- Node1&#45;&gt;Node11 -->
<g id="edge10_Node000001_Node000011" class="edge">
<title>Node1&#45;&gt;Node11</title>
<g id="a_edge10_Node000001_Node000011"><a xlink:title=" ">
<path fill="none" stroke="#63b8ff" d="M616.63,-301.27C598.93,-298.72 579.87,-295.97 562.28,-293.43"/>
<polygon fill="#63b8ff" stroke="#63b8ff" points="616.48,-304.79 626.88,-302.75 617.48,-297.86 616.48,-304.79"/>
</a>
</g>
</g>
<!-- Node12 -->
<g id="Node000012" class="node">
<title>Node12</title>
<g id="a_Node000012"><a xlink:href="structdnf__composer_1_1element_1_1SigmoidFunction.html#a646bef07506d8f43bda54004704c7fbc" target="_top" xlink:title=" ">
<polygon fill="white" stroke="#666666" points="562,-245 430,-245 430,-215 562,-215 562,-245"/>
<text text-anchor="start" x="438" y="-233" font-family="Helvetica,sans-Serif" font-size="10.00">dnf_composer::element</text>
<text text-anchor="middle" x="496" y="-222" font-family="Helvetica,sans-Serif" font-size="10.00">::SigmoidFunction::print</text>
</a>
</g>
</g>
<!-- Node1&#45;&gt;Node12 -->
<g id="edge11_Node000001_Node000012" class="edge">
<title>Node1&#45;&gt;Node12</title>
<g id="a_edge11_Node000001_Node000012"><a xlink:title=" ">
<path fill="none" stroke="#63b8ff" d="M654.05,-289.99C636.36,-278.36 613.16,-264.4 591,-255 581.83,-251.11 571.89,-247.69 562.03,-244.72"/>
<polygon fill="#63b8ff" stroke="#63b8ff" points="652.5,-293.17 662.76,-295.82 656.4,-287.35 652.5,-293.17"/>
</a>
</g>
</g>
<!-- Node13 -->
<g id="Node000013" class="node">
<title>Node13</title>
<g id="a_Node000013"><a xlink:href="structdnf__composer_1_1element_1_1HeavisideFunction.html#a6405c8367c96aeb06f4c011d824d4a18" target="_top" xlink:title=" ">
<polygon fill="white" stroke="#666666" points="566.5,-197 425.5,-197 425.5,-167 566.5,-167 566.5,-197"/>
<text text-anchor="start" x="433.5" y="-185" font-family="Helvetica,sans-Serif" font-size="10.00">dnf_composer::element</text>
<text text-anchor="middle" x="496" y="-174" font-family="Helvetica,sans-Serif" font-size="10.00">::HeavisideFunction::print</text>
</a>
</g>
</g>
<!-- Node1&#45;&gt;Node13 -->
<g id="edge12_Node000001_Node000013" class="edge">
<title>Node1&#45;&gt;Node13</title>
<g id="a_edge12_Node000001_Node000013"><a xlink:title=" ">
<path fill="none" stroke="#63b8ff" d="M669.29,-287.36C653.07,-263.26 624.73,-226.58 591,-206 583.52,-201.44 575.21,-197.74 566.7,-194.74"/>
<polygon fill="#63b8ff" stroke="#63b8ff" points="666.5,-289.47 674.91,-295.92 672.35,-285.64 666.5,-289.47"/>
</a>
</g>
</g>
<!-- Node14 -->
<g id="Node000014" class="node">
<title>Node14</title>
<g id="a_Node000014"><a xlink:href="structdnf__composer_1_1element_1_1AbsSigmoidFunction.html#ae8f7c574cc79cbe9ca82b7a7efe80abd" target="_top" xlink:title=" ">
<polygon fill="white" stroke="#666666" points="562,-148.5 430,-148.5 430,-107.5 562,-107.5 562,-148.5"/>
<text text-anchor="start" x="438" y="-136.5" font-family="Helvetica,sans-Serif" font-size="10.00">dnf_composer::element</text>
<text text-anchor="start" x="438" y="-125.5" font-family="Helvetica,sans-Serif" font-size="10.00">::AbsSigmoidFunction</text>
<text text-anchor="middle" x="496" y="-114.5" font-family="Helvetica,sans-Serif" font-size="10.00">::print</text>
</a>
</g>
</g>
<!-- Node1&#45;&gt;Node14 -->
<g id="edge13_Node000001_Node000014" class="edge">
<title>Node1&#45;&gt;Node14</title>
<g id="a_edge13_Node000001_Node000014"><a xlink:title=" ">
<path fill="none" stroke="#63b8ff" d="M675.39,-286.36C662.34,-252.57 634.39,-192.15 591,-158 582.52,-151.33 572.52,-146.12 562.26,-142.06"/>
<polygon fill="#63b8ff" stroke="#63b8ff" points="672.18,-287.79 678.96,-295.94 678.74,-285.34 672.18,-287.79"/>
</a>
</g>
</g>
<!-- Node15 -->
<g id="Node000015" class="node">
<title>Node15</title>
<g id="a_Node000015"><a xlink:href="classdnf__composer_1_1user__interface_1_1SimulationWindow.html#a3630c30901d2b73b1eaa20b40825f6f4" target="_top" xlink:title=" ">
<polygon fill="white" stroke="#666666" points="591,-89.5 401,-89.5 401,-48.5 591,-48.5 591,-89.5"/>
<text text-anchor="start" x="409" y="-77.5" font-family="Helvetica,sans-Serif" font-size="10.00">dnf_composer::user</text>
<text text-anchor="start" x="409" y="-66.5" font-family="Helvetica,sans-Serif" font-size="10.00">_interface::SimulationWindow</text>
<text text-anchor="middle" x="496" y="-55.5" font-family="Helvetica,sans-Serif" font-size="10.00">::renderLogElementParametersCard</text>
</a>
</g>
</g>
<!-- Node1&#45;&gt;Node15 -->
<g id="edge14_Node000001_Node000015" class="edge">
<title>Node1&#45;&gt;Node15</title>
<g id="a_edge14_Node000001_Node000015"><a xlink:title=" ">
<path fill="none" stroke="#63b8ff" d="M680.02,-285.91C671.67,-241.52 648.12,-149.04 591,-98 587.56,-94.93 583.8,-92.18 579.83,-89.73"/>
<polygon fill="#63b8ff" stroke="#63b8ff" points="676.59,-286.62 681.79,-295.85 683.49,-285.4 676.59,-286.62"/>
</a>
</g>
</g>
<!-- Node18 -->
<g id="Node000018" class="node">
<title>Node18</title>
<g id="a_Node000018"><a xlink:href="classdnf__composer_1_1Simulation.html#a8d0fb7b320ba77daf90d6cceafd93815" target="_top" xlink:title="Construct a simulation.">
<polygon fill="white" stroke="#666666" points="568,-30 424,-30 424,0 568,0 568,-30"/>
<text text-anchor="start" x="432" y="-18" font-family="Helvetica,sans-Serif" font-size="10.00">dnf_composer::Simulation</text>
<text text-anchor="middle" x="496" y="-7" font-family="Helvetica,sans-Serif" font-size="10.00">::Simulation</text>
</a>
</g>
</g>
<!-- Node1&#45;&gt;Node18 -->
<g id="edge17_Node000001_Node000018" class="edge">
<title>Node1&#45;&gt;Node18</title>
<g id="a_edge17_Node000001_Node000018"><a xlink:title=" ">
<path fill="none" stroke="#63b8ff" d="M683.01,-285.66C679.51,-231.92 663.54,-106 591,-39 584.44,-32.94 576.57,-28.37 568.21,-24.92"/>
<polygon fill="#63b8ff" stroke="#63b8ff" points="679.52,-285.9 683.58,-295.69 686.51,-285.51 679.52,-285.9"/>
</a>
</g>
</g>
<!-- Node3 -->
<g id="Node000003" class="node">
<title>Node3</title>
<g id="a_Node000003"><a xlink:href="classdnf__composer_1_1Simulation.html#a487ef819fe0e501707580714b92b80ca" target="_top" xlink:title="Deserialize the simulation state from a JSON file.">
<polygon fill="white" stroke="#666666" points="354,-659 210,-659 210,-629 354,-629 354,-659"/>
<text text-anchor="start" x="218" y="-647" font-family="Helvetica,sans-Serif" font-size="10.00">dnf_composer::Simulation</text>
<text text-anchor="middle" x="282" y="-636" font-family="Helvetica,sans-Serif" font-size="10.00">::read</text>
</a>
</g>
</g>
<!-- Node2&#45;&gt;Node3 -->
<g id="edge2_Node000002_Node000003" class="edge">
<title>Node2&#45;&gt;Node3</title>
<g id="a_edge2_Node000002_Node000003"><a xlink:title=" ">
<path fill="none" stroke="#63b8ff" d="M413.98,-617.43C394.35,-621.41 373.51,-625.64 354.36,-629.53"/>
<polygon fill="#63b8ff" stroke="#63b8ff" points="414.71,-620.86 423.82,-615.44 413.32,-614 414.71,-620.86"/>
</a>
</g>
</g>
<!-- Node4 -->
<g id="Node000004" class="node">
<title>Node4</title>
<g id="a_Node000004"><a xlink:href="classdnf__composer_1_1Simulation.html#adc98d900b0ed2e9f901ee9bf0170d93b" target="_top" xlink:title="Run the simulation for runTime milliseconds (blocking).">
<polygon fill="white" stroke="#666666" points="365,-610.5 199,-610.5 199,-591.5 365,-591.5 365,-610.5"/>
<text text-anchor="middle" x="282" y="-598.5" font-family="Helvetica,sans-Serif" font-size="10.00">dnf_composer::Simulation::run</text>
</a>
</g>
</g>
<!-- Node2&#45;&gt;Node4 -->
<g id="edge3_Node000002_Node000004" class="edge">
<title>Node2&#45;&gt;Node4</title>
<g id="a_edge3_Node000002_Node000004"><a xlink:title=" ">
<path fill="none" stroke="#63b8ff" d="M413.56,-601C397.76,-601 381.18,-601 365.35,-601"/>
<polygon fill="#63b8ff" stroke="#63b8ff" points="413.82,-604.5 423.82,-601 413.82,-597.5 413.82,-604.5"/>
</a>
</g>
</g>
<!-- Node5 -->
<g id="Node000005" class="node">
<title>Node5</title>
<g id="a_Node000005"><a xlink:href="classdnf__composer_1_1Simulation.html#a02cc12769e196f46a1ca4eb4f360fc3c" target="_top" xlink:title="Run the simulation in real&#45;time for milliseconds wall&#45;clock ms.">
<polygon fill="white" stroke="#666666" points="354,-573 210,-573 210,-543 354,-543 354,-573"/>
<text text-anchor="start" x="218" y="-561" font-family="Helvetica,sans-Serif" font-size="10.00">dnf_composer::Simulation</text>
<text text-anchor="middle" x="282" y="-550" font-family="Helvetica,sans-Serif" font-size="10.00">::runForRealTime</text>
</a>
</g>
</g>
<!-- Node2&#45;&gt;Node5 -->
<g id="edge4_Node000002_Node000005" class="edge">
<title>Node2&#45;&gt;Node5</title>
<g id="a_edge4_Node000002_Node000005"><a xlink:title=" ">
<path fill="none" stroke="#63b8ff" d="M413.98,-584.57C394.35,-580.59 373.51,-576.36 354.36,-572.47"/>
<polygon fill="#63b8ff" stroke="#63b8ff" points="413.32,-588 423.82,-586.56 414.71,-581.14 413.32,-588"/>
</a>
</g>
</g>
<!-- Node16 -->
<g id="Node000016" class="node">
<title>Node16</title>
<g id="a_Node000016"><a xlink:href="classdnf__composer_1_1user__interface_1_1SimulationWindow.html#ab1d68a0e88f02379e326b7b73170f8b8" target="_top" xlink:title=" ">
<polygon fill="white" stroke="#666666" points="363.5,-89.5 200.5,-89.5 200.5,-48.5 363.5,-48.5 363.5,-89.5"/>
<text text-anchor="start" x="208.5" y="-77.5" font-family="Helvetica,sans-Serif" font-size="10.00">dnf_composer::user</text>
<text text-anchor="start" x="208.5" y="-66.5" font-family="Helvetica,sans-Serif" font-size="10.00">_interface::SimulationWindow</text>
<text text-anchor="middle" x="282" y="-55.5" font-family="Helvetica,sans-Serif" font-size="10.00">::renderSidebarContents</text>
</a>
</g>
</g>
<!-- Node15&#45;&gt;Node16 -->
<g id="edge15_Node000015_Node000016" class="edge">
<title>Node15&#45;&gt;Node16</title>
<g id="a_edge15_Node000015_Node000016"><a xlink:title=" ">
<path fill="none" stroke="#63b8ff" d="M390.58,-69C381.54,-69 372.47,-69 363.66,-69"/>
<polygon fill="#63b8ff" stroke="#63b8ff" points="390.78,-72.5 400.78,-69 390.78,-65.5 390.78,-72.5"/>
</a>
</g>
</g>
<!-- Node17 -->
<g id="Node000017" class="node">
<title>Node17</title>
<g id="a_Node000017"><a xlink:href="classdnf__composer_1_1user__interface_1_1SimulationWindow.html#ac0c5ebab9dd16f951c2c231a8e1f6f34" target="_top" xlink:title=" ">
<polygon fill="white" stroke="#666666" points="163,-89.5 0,-89.5 0,-48.5 163,-48.5 163,-89.5"/>
<text text-anchor="start" x="8" y="-77.5" font-family="Helvetica,sans-Serif" font-size="10.00">dnf_composer::user</text>
<text text-anchor="start" x="8" y="-66.5" font-family="Helvetica,sans-Serif" font-size="10.00">_interface::SimulationWindow</text>
<text text-anchor="middle" x="81.5" y="-55.5" font-family="Helvetica,sans-Serif" font-size="10.00">::render</text>
</a>
</g>
</g>
<!-- Node16&#45;&gt;Node17 -->
<g id="edge16_Node000016_Node000017" class="edge">
<title>Node16&#45;&gt;Node17</title>
<g id="a_edge16_Node000016_Node000017"><a xlink:title=" ">
<path fill="none" stroke="#63b8ff" d="M190.15,-69C181.15,-69 172.06,-69 163.17,-69"/>
<polygon fill="#63b8ff" stroke="#63b8ff" points="190.26,-72.5 200.26,-69 190.26,-65.5 190.26,-72.5"/>
</a>
</g>
</g>
</g>
</svg>
