<?xml version="1.0" encoding="UTF-8" standalone="no"?>
<!DOCTYPE svg PUBLIC "-//W3C//DTD SVG 1.1//EN"
 "http://www.w3.org/Graphics/SVG/1.1/DTD/svg11.dtd">
<!-- Generated by graphviz version 2.43.0 (0)
 -->
<!-- Title: dnf_composer::tools::logger::log Pages: 1 -->
<svg width="751pt" height="852pt"
 viewBox="0.00 0.00 751.00 852.00" xmlns="http://www.w3.org/2000/svg" xmlns:xlink="http://www.w3.org/1999/xlink">
<g id="graph0" class="graph" transform="scale(1 1) rotate(0) translate(4 848)">
<title>dnf_composer::tools::logger::log</title>
<!-- Node1 -->
<g id="Node000001" class="node">
<title>Node1</title>
<g id="a_Node000001"><a xlink:title=" ">
<polygon fill="#999999" stroke="#666666" points="743,-416 627,-416 627,-386 743,-386 743,-416"/>
<text text-anchor="start" x="635" y="-404" font-family="Helvetica,sans-Serif" font-size="10.00">dnf_composer::tools</text>
<text text-anchor="middle" x="685" y="-393" font-family="Helvetica,sans-Serif" font-size="10.00">::logger::log</text>
</a>
</g>
</g>
<!-- Node2 -->
<g id="Node000002" class="node">
<title>Node2</title>
<g id="a_Node000002"><a xlink:href="classdnf__composer_1_1Simulation.html#aa3419352b0706f0ba4c85781b8aa32ae" target="_top" xlink:title="Initialize all registered elements. Must be called before step().">
<polygon fill="white" stroke="#666666" points="355.5,-806 211.5,-806 211.5,-776 355.5,-776 355.5,-806"/>
<text text-anchor="start" x="219.5" y="-794" font-family="Helvetica,sans-Serif" font-size="10.00">dnf_composer::Simulation</text>
<text text-anchor="middle" x="283.5" y="-783" font-family="Helvetica,sans-Serif" font-size="10.00">::init</text>
</a>
</g>
</g>
<!-- Node1&#45;&gt;Node2 -->
<g id="edge1_Node000001_Node000002" class="edge">
<title>Node1&#45;&gt;Node2</title>
<g id="a_edge1_Node000001_Node000002"><a xlink:title=" ">
<path fill="none" stroke="#63b8ff" d="M681.4,-426.33C673.07,-502.06 644.44,-724.22 591,-769 523.43,-825.62 415.38,-818.31 347.27,-806.01"/>
<polygon fill="#63b8ff" stroke="#63b8ff" points="684.89,-426.58 682.48,-416.26 677.93,-425.83 684.89,-426.58"/>
</a>
</g>
</g>
<!-- Node6 -->
<g id="Node000006" class="node">
<title>Node6</title>
<g id="a_Node000006"><a xlink:href="structdnf__composer_1_1element_1_1ElementDimensions.html#a61dc48a63bf6451065883ea37f0228fa" target="_top" xlink:title=" ">
<polygon fill="white" stroke="#666666" points="570.5,-712 421.5,-712 421.5,-682 570.5,-682 570.5,-712"/>
<text text-anchor="start" x="429.5" y="-700" font-family="Helvetica,sans-Serif" font-size="10.00">dnf_composer::element</text>
<text text-anchor="middle" x="496" y="-689" font-family="Helvetica,sans-Serif" font-size="10.00">::ElementDimensions::print</text>
</a>
</g>
</g>
<!-- Node1&#45;&gt;Node6 -->
<g id="edge5_Node000001_Node000006" class="edge">
<title>Node1&#45;&gt;Node6</title>
<g id="a_edge5_Node000001_Node000006"><a xlink:title=" ">
<path fill="none" stroke="#63b8ff" d="M683.01,-426.34C679.51,-480.08 663.54,-606 591,-673 585.06,-678.49 578.04,-682.76 570.56,-686.08"/>
<polygon fill="#63b8ff" stroke="#63b8ff" points="686.51,-426.49 683.58,-416.31 679.52,-426.1 686.51,-426.49"/>
</a>
</g>
</g>
<!-- Node7 -->
<g id="Node000007" class="node">
<title>Node7</title>
<g id="a_Node000007"><a xlink:href="structdnf__composer_1_1element_1_1ElementIdentifiers.html#a6c590a127035df69718210304ad9ccb6" target="_top" xlink:title=" ">
<polygon fill="white" stroke="#666666" points="562,-663.5 430,-663.5 430,-622.5 562,-622.5 562,-663.5"/>
<text text-anchor="start" x="438" y="-651.5" font-family="Helvetica,sans-Serif" font-size="10.00">dnf_composer::element</text>
<text text-anchor="start" x="438" y="-640.5" font-family="Helvetica,sans-Serif" font-size="10.00">::ElementIdentifiers</text>
<text text-anchor="middle" x="496" y="-629.5" font-family="Helvetica,sans-Serif" font-size="10.00">::print</text>
</a>
</g>
</g>
<!-- Node1&#45;&gt;Node7 -->
<g id="edge6_Node000001_Node000007" class="edge">
<title>Node1&#45;&gt;Node7</title>
<g id="a_edge6_Node000001_Node000007"><a xlink:title=" ">
<path fill="none" stroke="#63b8ff" d="M680.02,-426.09C671.67,-470.48 648.12,-562.96 591,-614 582.72,-621.4 572.59,-626.91 562.07,-631.01"/>
<polygon fill="#63b8ff" stroke="#63b8ff" points="683.49,-426.6 681.79,-416.15 676.59,-425.38 683.49,-426.6"/>
</a>
</g>
</g>
<!-- Node8 -->
<g id="Node000008" class="node">
<title>Node8</title>
<g id="a_Node000008"><a xlink:href="structdnf__composer_1_1element_1_1ElementCommonParameters.html#a446472a2d6a83b41ae55e42c024357f3" target="_top" xlink:title=" ">
<polygon fill="white" stroke="#666666" points="577.5,-604.5 414.5,-604.5 414.5,-563.5 577.5,-563.5 577.5,-604.5"/>
<text text-anchor="start" x="422.5" y="-592.5" font-family="Helvetica,sans-Serif" font-size="10.00">dnf_composer::element</text>
<text text-anchor="start" x="422.5" y="-581.5" font-family="Helvetica,sans-Serif" font-size="10.00">::ElementCommonParameters</text>
<text text-anchor="middle" x="496" y="-570.5" font-family="Helvetica,sans-Serif" font-size="10.00">::print</text>
</a>
</g>
</g>
<!-- Node1&#45;&gt;Node8 -->
<g id="edge7_Node000001_Node000008" class="edge">
<title>Node1&#45;&gt;Node8</title>
<g id="a_edge7_Node000001_Node000008"><a xlink:title=" ">
<path fill="none" stroke="#63b8ff" d="M675.39,-425.64C662.34,-459.43 634.39,-519.85 591,-554 586.56,-557.5 581.7,-560.59 576.6,-563.33"/>
<polygon fill="#63b8ff" stroke="#63b8ff" points="678.74,-426.66 678.96,-416.06 672.18,-424.21 678.74,-426.66"/>
</a>
</g>
</g>
<!-- Node9 -->
<g id="Node000009" class="node">
<title>Node9</title>
<g id="a_Node000009"><a xlink:href="structdnf__composer_1_1element_1_1NeuralFieldState.html#a9b0422c8ee94d56d397b290576b493ce" target="_top" xlink:title=" ">
<polygon fill="white" stroke="#666666" points="562,-545 430,-545 430,-515 562,-515 562,-545"/>
<text text-anchor="start" x="438" y="-533" font-family="Helvetica,sans-Serif" font-size="10.00">dnf_composer::element</text>
<text text-anchor="middle" x="496" y="-522" font-family="Helvetica,sans-Serif" font-size="10.00">::NeuralFieldState::print</text>
</a>
</g>
</g>
<!-- Node1&#45;&gt;Node9 -->
<g id="edge8_Node000001_Node000009" class="edge">
<title>Node1&#45;&gt;Node9</title>
<g id="a_edge8_Node000001_Node000009"><a xlink:title=" ">
<path fill="none" stroke="#63b8ff" d="M669.29,-424.64C653.07,-448.74 624.73,-485.42 591,-506 582.23,-511.35 572.3,-515.52 562.27,-518.76"/>
<polygon fill="#63b8ff" stroke="#63b8ff" points="672.35,-426.36 674.91,-416.08 666.5,-422.53 672.35,-426.36"/>
</a>
</g>
</g>
<!-- Node10 -->
<g id="Node000010" class="node">
<title>Node10</title>
<g id="a_Node000010"><a xlink:href="structdnf__composer_1_1element_1_1NeuralField2DBump.html#a5fd238b40ad52cb3b6a8811ca05ab324" target="_top" xlink:title=" ">
<polygon fill="white" stroke="#666666" points="570.5,-497 421.5,-497 421.5,-467 570.5,-467 570.5,-497"/>
<text text-anchor="start" x="429.5" y="-485" font-family="Helvetica,sans-Serif" font-size="10.00">dnf_composer::element</text>
<text text-anchor="middle" x="496" y="-474" font-family="Helvetica,sans-Serif" font-size="10.00">::NeuralField2DBump::print</text>
</a>
</g>
</g>
<!-- Node1&#45;&gt;Node10 -->
<g id="edge9_Node000001_Node000010" class="edge">
<title>Node1&#45;&gt;Node10</title>
<g id="a_edge9_Node000001_Node000010"><a xlink:title=" ">
<path fill="none" stroke="#63b8ff" d="M654.84,-422.02C637.1,-433.99 613.58,-448.46 591,-458 583.01,-461.38 574.43,-464.37 565.82,-466.99"/>
<polygon fill="#63b8ff" stroke="#63b8ff" points="657.3,-424.58 663.55,-416.03 653.33,-418.81 657.3,-424.58"/>
</a>
</g>
</g>
<!-- Node11 -->
<g id="Node000011" class="node">
<title>Node11</title>
<g id="a_Node000011"><a xlink:href="structdnf__composer_1_1element_1_1NeuralField2DState.html#a518fe0ae122172b909ea8c695492dc23" target="_top" xlink:title=" ">
<polygon fill="white" stroke="#666666" points="562,-448.5 430,-448.5 430,-407.5 562,-407.5 562,-448.5"/>
<text text-anchor="start" x="438" y="-436.5" font-family="Helvetica,sans-Serif" font-size="10.00">dnf_composer::element</text>
<text text-anchor="start" x="438" y="-425.5" font-family="Helvetica,sans-Serif" font-size="10.00">::NeuralField2DState</text>
<text text-anchor="middle" x="496" y="-414.5" font-family="Helvetica,sans-Serif" font-size="10.00">::print</text>
</a>
</g>
</g>
<!-- Node1&#45;&gt;Node11 -->
<g id="edge10_Node000001_Node000011" class="edge">
<title>Node1&#45;&gt;Node11</title>
<g id="a_edge10_Node000001_Node000011"><a xlink:title=" ">
<path fill="none" stroke="#63b8ff" d="M616.63,-410.73C598.93,-413.28 579.87,-416.03 562.28,-418.57"/>
<polygon fill="#63b8ff" stroke="#63b8ff" points="617.48,-414.14 626.88,-409.25 616.48,-407.21 617.48,-414.14"/>
</a>
</g>
</g>
<!-- Node12 -->
<g id="Node000012" class="node">
<title>Node12</title>
<g id="a_Node000012"><a xlink:href="structdnf__composer_1_1element_1_1SigmoidFunction.html#a646bef07506d8f43bda54004704c7fbc" target="_top" xlink:title=" ">
<polygon fill="white" stroke="#666666" points="562,-389 430,-389 430,-359 562,-359 562,-389"/>
<text text-anchor="start" x="438" y="-377" font-family="Helvetica,sans-Serif" font-size="10.00">dnf_composer::element</text>
<text text-anchor="middle" x="496" y="-366" font-family="Helvetica,sans-Serif" font-size="10.00">::SigmoidFunction::print</text>
</a>
</g>
</g>
<!-- Node1&#45;&gt;Node12 -->
<g id="edge11_Node000001_Node000012" class="edge">
<title>Node1&#45;&gt;Node12</title>
<g id="a_edge11_Node000001_Node000012"><a xlink:title=" ">
<path fill="none" stroke="#63b8ff" d="M616.63,-391.27C598.93,-388.72 579.87,-385.97 562.28,-383.43"/>
<polygon fill="#63b8ff" stroke="#63b8ff" points="616.48,-394.79 626.88,-392.75 617.48,-387.86 616.48,-394.79"/>
</a>
</g>
</g>
<!-- Node13 -->
<g id="Node000013" class="node">
<title>Node13</title>
<g id="a_Node000013"><a xlink:href="structdnf__composer_1_1element_1_1HeavisideFunction.html#a6405c8367c96aeb06f4c011d824d4a18" target="_top" xlink:title=" ">
<polygon fill="white" stroke="#666666" points="566.5,-341 425.5,-341 425.5,-311 566.5,-311 566.5,-341"/>
<text text-anchor="start" x="433.5" y="-329" font-family="Helvetica,sans-Serif" font-size="10.00">dnf_composer::element</text>
<text text-anchor="middle" x="496" y="-318" font-family="Helvetica,sans-Serif" font-size="10.00">::HeavisideFunction::print</text>
</a>
</g>
</g>
<!-- Node1&#45;&gt;Node13 -->
<g id="edge12_Node000001_Node000013" class="edge">
<title>Node1&#45;&gt;Node13</title>
<g id="a_edge12_Node000001_Node000013"><a xlink:title=" ">
<path fill="none" stroke="#63b8ff" d="M651.68,-380.64C634.23,-370.34 612,-358.29 591,-350 582.54,-346.66 573.47,-343.66 564.41,-341.01"/>
<polygon fill="#63b8ff" stroke="#63b8ff" points="649.96,-383.7 660.34,-385.84 653.57,-377.7 649.96,-383.7"/>
</a>
</g>
</g>
<!-- Node14 -->
<g id="Node000014" class="node">
<title>Node14</title>
<g id="a_Node000014"><a xlink:href="structdnf__composer_1_1element_1_1AbsSigmoidFunction.html#ae8f7c574cc79cbe9ca82b7a7efe80abd" target="_top" xlink:title=" ">
<polygon fill="white" stroke="#666666" points="562,-292.5 430,-292.5 430,-251.5 562,-251.5 562,-292.5"/>
<text text-anchor="start" x="438" y="-280.5" font-family="Helvetica,sans-Serif" font-size="10.00">dnf_composer::element</text>
<text text-anchor="start" x="438" y="-269.5" font-family="Helvetica,sans-Serif" font-size="10.00">::AbsSigmoidFunction</text>
<text text-anchor="middle" x="496" y="-258.5" font-family="Helvetica,sans-Serif" font-size="10.00">::print</text>
</a>
</g>
</g>
<!-- Node1&#45;&gt;Node14 -->
<g id="edge13_Node000001_Node000014" class="edge">
<title>Node1&#45;&gt;Node14</title>
<g id="a_edge13_Node000001_Node000014"><a xlink:title=" ">
<path fill="none" stroke="#63b8ff" d="M667.69,-377.71C650.87,-355.31 622.69,-321.99 591,-302 582.16,-296.42 572.2,-291.8 562.15,-288"/>
<polygon fill="#63b8ff" stroke="#63b8ff" points="665.03,-380 673.77,-385.99 670.68,-375.86 665.03,-380"/>
</a>
</g>
</g>
<!-- Node15 -->
<g id="Node000015" class="node">
<title>Node15</title>
<g id="a_Node000015"><a xlink:href="classdnf__composer_1_1user__interface_1_1SimulationWindow.html#a3630c30901d2b73b1eaa20b40825f6f4" target="_top" xlink:title=" ">
<polygon fill="white" stroke="#666666" points="591,-233.5 401,-233.5 401,-192.5 591,-192.5 591,-233.5"/>
<text text-anchor="start" x="409" y="-221.5" font-family="Helvetica,sans-Serif" font-size="10.00">dnf_composer::user</text>
<text text-anchor="start" x="409" y="-210.5" font-family="Helvetica,sans-Serif" font-size="10.00">_interface::SimulationWindow</text>
<text text-anchor="middle" x="496" y="-199.5" font-family="Helvetica,sans-Serif" font-size="10.00">::renderLogElementParametersCard</text>
</a>
</g>
</g>
<!-- Node1&#45;&gt;Node15 -->
<g id="edge14_Node000001_Node000015" class="edge">
<title>Node1&#45;&gt;Node15</title>
<g id="a_edge14_Node000001_Node000015"><a xlink:title=" ">
<path fill="none" stroke="#63b8ff" d="M676.06,-376.33C663.54,-341.34 635.93,-277.62 591,-242 587.12,-238.92 582.91,-236.17 578.5,-233.71"/>
<polygon fill="#63b8ff" stroke="#63b8ff" points="672.75,-377.48 679.32,-385.79 679.37,-375.2 672.75,-377.48"/>
</a>
</g>
</g>
<!-- Node18 -->
<g id="Node000018" class="node">
<title>Node18</title>
<g id="a_Node000018"><a xlink:href="classdnf__composer_1_1Simulation.html#a8d0fb7b320ba77daf90d6cceafd93815" target="_top" xlink:title="Construct a simulation.">
<polygon fill="white" stroke="#666666" points="568,-174 424,-174 424,-144 568,-144 568,-174"/>
<text text-anchor="start" x="432" y="-162" font-family="Helvetica,sans-Serif" font-size="10.00">dnf_composer::Simulation</text>
<text text-anchor="middle" x="496" y="-151" font-family="Helvetica,sans-Serif" font-size="10.00">::Simulation</text>
</a>
</g>
</g>
<!-- Node1&#45;&gt;Node18 -->
<g id="edge17_Node000001_Node000018" class="edge">
<title>Node1&#45;&gt;Node18</title>
<g id="a_edge17_Node000001_Node000018"><a xlink:title=" ">
<path fill="none" stroke="#63b8ff" d="M680.62,-375.99C673.11,-330.5 650.72,-234.2 591,-183 584.35,-177.3 576.52,-172.92 568.27,-169.57"/>
<polygon fill="#63b8ff" stroke="#63b8ff" points="677.16,-376.56 682.15,-385.9 684.08,-375.49 677.16,-376.56"/>
</a>
</g>
</g>
<!-- Node19 -->
<g id="Node000019" class="node">
<title>Node19</title>
<g id="a_Node000019"><a xlink:href="classdnf__composer_1_1SimulationRecorder.html#ad2130d98d72a3e3abb30bb024a4eac8b" target="_top" xlink:title="Start a new continuous recording for the given element/component pair. Creates data/&lt;simName&gt;/recordi...">
<polygon fill="white" stroke="#666666" points="568,-126 424,-126 424,-96 568,-96 568,-126"/>
<text text-anchor="start" x="432" y="-114" font-family="Helvetica,sans-Serif" font-size="10.00">dnf_composer::Simulation</text>
<text text-anchor="middle" x="496" y="-103" font-family="Helvetica,sans-Serif" font-size="10.00">Recorder::startRecording</text>
</a>
</g>
</g>
<!-- Node1&#45;&gt;Node19 -->
<g id="edge18_Node000001_Node000019" class="edge">
<title>Node1&#45;&gt;Node19</title>
<g id="a_edge18_Node000001_Node000019"><a xlink:title=" ">
<path fill="none" stroke="#63b8ff" d="M682.77,-375.5C678.81,-322.53 662.02,-200.14 591,-135 584.42,-128.97 576.54,-124.4 568.17,-120.96"/>
<polygon fill="#63b8ff" stroke="#63b8ff" points="679.3,-375.95 683.44,-385.7 686.28,-375.49 679.3,-375.95"/>
</a>
</g>
</g>
<!-- Node20 -->
<g id="Node000020" class="node">
<title>Node20</title>
<g id="a_Node000020"><a xlink:href="classdnf__composer_1_1SimulationRecorder.html#a65d78b751a8d4c936091162e649fd427" target="_top" xlink:title="Stop the recording for a specific element/component pair. The CSV file is closed and the session is r...">
<polygon fill="white" stroke="#666666" points="568,-78 424,-78 424,-48 568,-48 568,-78"/>
<text text-anchor="start" x="432" y="-66" font-family="Helvetica,sans-Serif" font-size="10.00">dnf_composer::Simulation</text>
<text text-anchor="middle" x="496" y="-55" font-family="Helvetica,sans-Serif" font-size="10.00">Recorder::stopRecording</text>
</a>
</g>
</g>
<!-- Node1&#45;&gt;Node20 -->
<g id="edge19_Node000001_Node000020" class="edge">
<title>Node1&#45;&gt;Node20</title>
<g id="a_edge19_Node000001_Node000020"><a xlink:title=" ">
<path fill="none" stroke="#63b8ff" d="M684.38,-375.6C683.81,-316.08 673.73,-166.65 591,-87 584.57,-80.81 576.77,-76.15 568.45,-72.66"/>
<polygon fill="#63b8ff" stroke="#63b8ff" points="680.88,-375.94 684.38,-385.94 687.88,-375.94 680.88,-375.94"/>
</a>
</g>
</g>
<!-- Node21 -->
<g id="Node000021" class="node">
<title>Node21</title>
<g id="a_Node000021"><a xlink:href="classdnf__composer_1_1SimulationRecorder.html#ad6a67166f5f8420901788dd360115e46" target="_top" xlink:title="Write a single&#45;row snapshot CSV for the given element/component. Output path: data/&lt;simName&gt;/exports/...">
<polygon fill="white" stroke="#666666" points="568,-30 424,-30 424,0 568,0 568,-30"/>
<text text-anchor="start" x="432" y="-18" font-family="Helvetica,sans-Serif" font-size="10.00">dnf_composer::Simulation</text>
<text text-anchor="middle" x="496" y="-7" font-family="Helvetica,sans-Serif" font-size="10.00">Recorder::takeSnapshot</text>
</a>
</g>
</g>
<!-- Node1&#45;&gt;Node21 -->
<g id="edge20_Node000001_Node000021" class="edge">
<title>Node1&#45;&gt;Node21</title>
<g id="a_edge20_Node000001_Node000021"><a xlink:title=" ">
<path fill="none" stroke="#63b8ff" d="M680.84,-375.53C671.11,-301.28 639.37,-87.3 591,-39 584.56,-32.57 576.66,-27.79 568.2,-24.24"/>
<polygon fill="#63b8ff" stroke="#63b8ff" points="677.41,-376.34 682.16,-385.81 684.36,-375.45 677.41,-376.34"/>
</a>
</g>
</g>
<!-- Node22 -->
<g id="Node000022" class="node">
<title>Node22</title>
<g id="a_Node000022"><a xlink:href="classdnf__composer_1_1SimulationRecorder.html#ae82a04488e5edcccdd38a7e02545b4b4" target="_top" xlink:title="Called each simulation step to append rows to active recordings. Ticks are derived from sim....">
<polygon fill="white" stroke="#666666" points="568,-760 424,-760 424,-730 568,-730 568,-760"/>
<text text-anchor="start" x="432" y="-748" font-family="Helvetica,sans-Serif" font-size="10.00">dnf_composer::Simulation</text>
<text text-anchor="middle" x="496" y="-737" font-family="Helvetica,sans-Serif" font-size="10.00">Recorder::update</text>
</a>
</g>
</g>
<!-- Node1&#45;&gt;Node22 -->
<g id="edge21_Node000001_Node000022" class="edge">
<title>Node1&#45;&gt;Node22</title>
<g id="a_edge21_Node000001_Node000022"><a xlink:title=" ">
<path fill="none" stroke="#63b8ff" d="M684.54,-426.5C684.37,-486.87 675.15,-639.57 591,-721 584.46,-727.32 576.5,-732.05 568.01,-735.57"/>
<polygon fill="#63b8ff" stroke="#63b8ff" points="688.04,-426.32 684.49,-416.34 681.04,-426.36 688.04,-426.32"/>
</a>
</g>
</g>
<!-- Node3 -->
<g id="Node000003" class="node">
<title>Node3</title>
<g id="a_Node000003"><a xlink:href="classdnf__composer_1_1Simulation.html#a487ef819fe0e501707580714b92b80ca" target="_top" xlink:title="Deserialize the simulation state from a JSON file.">
<polygon fill="white" stroke="#666666" points="155,-844 11,-844 11,-814 155,-814 155,-844"/>
<text text-anchor="start" x="19" y="-832" font-family="Helvetica,sans-Serif" font-size="10.00">dnf_composer::Simulation</text>
<text text-anchor="middle" x="83" y="-821" font-family="Helvetica,sans-Serif" font-size="10.00">::read</text>
</a>
</g>
</g>
<!-- Node2&#45;&gt;Node3 -->
<g id="edge2_Node000002_Node000003" class="edge">
<title>Node2&#45;&gt;Node3</title>
<g id="a_edge2_Node000002_Node000003"><a xlink:title=" ">
<path fill="none" stroke="#63b8ff" d="M201.44,-806.52C186.14,-809.45 170.25,-812.49 155.27,-815.36"/>
<polygon fill="#63b8ff" stroke="#63b8ff" points="202.23,-809.93 211.4,-804.61 200.92,-803.05 202.23,-809.93"/>
</a>
</g>
</g>
<!-- Node4 -->
<g id="Node000004" class="node">
<title>Node4</title>
<g id="a_Node000004"><a xlink:href="classdnf__composer_1_1Simulation.html#adc98d900b0ed2e9f901ee9bf0170d93b" target="_top" xlink:title="Run the simulation for runTime milliseconds (blocking).">
<polygon fill="white" stroke="#666666" points="166,-795.5 0,-795.5 0,-776.5 166,-776.5 166,-795.5"/>
<text text-anchor="middle" x="83" y="-783.5" font-family="Helvetica,sans-Serif" font-size="10.00">dnf_composer::Simulation::run</text>
</a>
</g>
</g>
<!-- Node2&#45;&gt;Node4 -->
<g id="edge3_Node000002_Node000004" class="edge">
<title>Node2&#45;&gt;Node4</title>
<g id="a_edge3_Node000002_Node000004"><a xlink:title=" ">
<path fill="none" stroke="#63b8ff" d="M201.3,-788.95C189.68,-788.66 177.73,-788.36 166.09,-788.07"/>
<polygon fill="#63b8ff" stroke="#63b8ff" points="201.31,-792.46 211.4,-789.21 201.49,-785.46 201.31,-792.46"/>
</a>
</g>
</g>
<!-- Node5 -->
<g id="Node000005" class="node">
<title>Node5</title>
<g id="a_Node000005"><a xlink:href="classdnf__composer_1_1Simulation.html#a02cc12769e196f46a1ca4eb4f360fc3c" target="_top" xlink:title="Run the simulation in real&#45;time for milliseconds wall&#45;clock ms.">
<polygon fill="white" stroke="#666666" points="155,-758 11,-758 11,-728 155,-728 155,-758"/>
<text text-anchor="start" x="19" y="-746" font-family="Helvetica,sans-Serif" font-size="10.00">dnf_composer::Simulation</text>
<text text-anchor="middle" x="83" y="-735" font-family="Helvetica,sans-Serif" font-size="10.00">::runForRealTime</text>
</a>
</g>
</g>
<!-- Node2&#45;&gt;Node5 -->
<g id="edge4_Node000002_Node000005" class="edge">
<title>Node2&#45;&gt;Node5</title>
<g id="a_edge4_Node000002_Node000005"><a xlink:title=" ">
<path fill="none" stroke="#63b8ff" d="M210.37,-773.56C189.29,-768.46 166.44,-762.93 146.04,-758"/>
<polygon fill="#63b8ff" stroke="#63b8ff" points="209.7,-777 220.24,-775.94 211.34,-770.19 209.7,-777"/>
</a>
</g>
</g>
<!-- Node16 -->
<g id="Node000016" class="node">
<title>Node16</title>
<g id="a_Node000016"><a xlink:href="classdnf__composer_1_1user__interface_1_1SimulationWindow.html#ab1d68a0e88f02379e326b7b73170f8b8" target="_top" xlink:title=" ">
<polygon fill="white" stroke="#666666" points="365,-233.5 202,-233.5 202,-192.5 365,-192.5 365,-233.5"/>
<text text-anchor="start" x="210" y="-221.5" font-family="Helvetica,sans-Serif" font-size="10.00">dnf_composer::user</text>
<text text-anchor="start" x="210" y="-210.5" font-family="Helvetica,sans-Serif" font-size="10.00">_interface::SimulationWindow</text>
<text text-anchor="middle" x="283.5" y="-199.5" font-family="Helvetica,sans-Serif" font-size="10.00">::renderSidebarContents</text>
</a>
</g>
</g>
<!-- Node15&#45;&gt;Node16 -->
<g id="edge15_Node000015_Node000016" class="edge">
<title>Node15&#45;&gt;Node16</title>
<g id="a_edge15_Node000015_Node000016"><a xlink:title=" ">
<path fill="none" stroke="#63b8ff" d="M390.73,-213C382.11,-213 373.49,-213 365.08,-213"/>
<polygon fill="#63b8ff" stroke="#63b8ff" points="390.83,-216.5 400.83,-213 390.83,-209.5 390.83,-216.5"/>
</a>
</g>
</g>
<!-- Node17 -->
<g id="Node000017" class="node">
<title>Node17</title>
<g id="a_Node000017"><a xlink:href="classdnf__composer_1_1user__interface_1_1SimulationWindow.html#ac0c5ebab9dd16f951c2c231a8e1f6f34" target="_top" xlink:title=" ">
<polygon fill="white" stroke="#666666" points="164.5,-233.5 1.5,-233.5 1.5,-192.5 164.5,-192.5 164.5,-233.5"/>
<text text-anchor="start" x="9.5" y="-221.5" font-family="Helvetica,sans-Serif" font-size="10.00">dnf_composer::user</text>
<text text-anchor="start" x="9.5" y="-210.5" font-family="Helvetica,sans-Serif" font-size="10.00">_interface::SimulationWindow</text>
<text text-anchor="middle" x="83" y="-199.5" font-family="Helvetica,sans-Serif" font-size="10.00">::render</text>
</a>
</g>
</g>
<!-- Node16&#45;&gt;Node17 -->
<g id="edge16_Node000016_Node000017" class="edge">
<title>Node16&#45;&gt;Node17</title>
<g id="a_edge16_Node000016_Node000017"><a xlink:title=" ">
<path fill="none" stroke="#63b8ff" d="M191.65,-213C182.65,-213 173.56,-213 164.67,-213"/>
<polygon fill="#63b8ff" stroke="#63b8ff" points="191.76,-216.5 201.76,-213 191.76,-209.5 191.76,-216.5"/>
</a>
</g>
</g>
<!-- Node23 -->
<g id="Node000023" class="node">
<title>Node23</title>
<g id="a_Node000023"><a xlink:href="classdnf__composer_1_1Simulation.html#aeed960786dc5ee998232e105af74ae0c" target="_top" xlink:title="Advance all elements by one deltaT.">
<polygon fill="white" stroke="#666666" points="355.5,-758 211.5,-758 211.5,-728 355.5,-728 355.5,-758"/>
<text text-anchor="start" x="219.5" y="-746" font-family="Helvetica,sans-Serif" font-size="10.00">dnf_composer::Simulation</text>
<text text-anchor="middle" x="283.5" y="-735" font-family="Helvetica,sans-Serif" font-size="10.00">::step</text>
</a>
</g>
</g>
<!-- Node22&#45;&gt;Node23 -->
<g id="edge22_Node000022_Node000023" class="edge">
<title>Node22&#45;&gt;Node23</title>
<g id="a_edge22_Node000022_Node000023"><a xlink:title=" ">
<path fill="none" stroke="#63b8ff" d="M413.57,-744.23C394.48,-744.04 374.29,-743.85 355.69,-743.68"/>
<polygon fill="#63b8ff" stroke="#63b8ff" points="413.7,-747.73 423.73,-744.32 413.77,-740.73 413.7,-747.73"/>
</a>
</g>
</g>
<!-- Node23&#45;&gt;Node4 -->
<g id="edge23_Node000023_Node000004" class="edge">
<title>Node23&#45;&gt;Node4</title>
<g id="a_edge23_Node000023_Node000004"><a xlink:title=" ">
<path fill="none" stroke="#63b8ff" d="M203,-760.22C177.42,-765.76 150.01,-771.7 127.96,-776.48"/>
<polygon fill="#63b8ff" stroke="#63b8ff" points="204.04,-763.58 213.07,-758.04 202.56,-756.74 204.04,-763.58"/>
</a>
</g>
</g>
<!-- Node23&#45;&gt;Node5 -->
<g id="edge24_Node000023_Node000005" class="edge">
<title>Node23&#45;&gt;Node5</title>
<g id="a_edge24_Node000023_Node000005"><a xlink:title=" ">
<path fill="none" stroke="#63b8ff" d="M201.01,-743C185.84,-743 170.1,-743 155.27,-743"/>
<polygon fill="#63b8ff" stroke="#63b8ff" points="201.4,-746.5 211.4,-743 201.4,-739.5 201.4,-746.5"/>
</a>
</g>
</g>
</g>
</svg>
