<?xml version="1.0" encoding="UTF-8" standalone="no"?>
<!DOCTYPE svg PUBLIC "-//W3C//DTD SVG 1.1//EN"
 "http://www.w3.org/Graphics/SVG/1.1/DTD/svg11.dtd">
<!-- Generated by graphviz version 2.43.0 (0)
 -->
<!-- Title: dnf_composer::tools::math::computeKernelRange Pages: 1 -->
<svg width="604pt" height="430pt"
 viewBox="0.00 0.00 604.00 430.00" xmlns="http://www.w3.org/2000/svg" xmlns:xlink="http://www.w3.org/1999/xlink">
<g id="graph0" class="graph" transform="scale(1 1) rotate(0) translate(4 426)">
<title>dnf_composer::tools::math::computeKernelRange</title>
<!-- Node1 -->
<g id="Node000001" class="node">
<title>Node1</title>
<g id="a_Node000001"><a xlink:title=" ">
<polygon fill="#999999" stroke="#666666" points="596,-231.5 438,-231.5 438,-201.5 596,-201.5 596,-231.5"/>
<text text-anchor="start" x="446" y="-219.5" font-family="Helvetica,sans-Serif" font-size="10.00">dnf_composer::tools</text>
<text text-anchor="middle" x="517" y="-208.5" font-family="Helvetica,sans-Serif" font-size="10.00">::math::computeKernelRange</text>
</a>
</g>
</g>
<!-- Node2 -->
<g id="Node000002" class="node">
<title>Node2</title>
<g id="a_Node000002"><a xlink:href="classdnf__composer_1_1element_1_1AsymmetricGaussKernel.html#a96e938df35bc5c5b9944201750e5ff83" target="_top" xlink:title="Initialize the element (called once before the simulation loop).">
<polygon fill="white" stroke="#666666" points="395,-409.5 231,-409.5 231,-379.5 395,-379.5 395,-409.5"/>
<text text-anchor="start" x="239" y="-397.5" font-family="Helvetica,sans-Serif" font-size="10.00">dnf_composer::element</text>
<text text-anchor="middle" x="313" y="-386.5" font-family="Helvetica,sans-Serif" font-size="10.00">::AsymmetricGaussKernel::init</text>
</a>
</g>
</g>
<!-- Node1&#45;&gt;Node2 -->
<g id="edge1_Node000001_Node000002" class="edge">
<title>Node1&#45;&gt;Node2</title>
<g id="a_edge1_Node000001_Node000002"><a xlink:title=" ">
<path fill="none" stroke="#63b8ff" d="M503.24,-240.54C484.93,-272.87 448.25,-330.14 402,-363.5 393.07,-369.94 382.67,-375.15 372.22,-379.33"/>
<polygon fill="#63b8ff" stroke="#63b8ff" points="506.33,-242.18 508.12,-231.74 500.21,-238.79 506.33,-242.18"/>
</a>
</g>
</g>
<!-- Node4 -->
<g id="Node000004" class="node">
<title>Node4</title>
<g id="a_Node000004"><a xlink:href="classdnf__composer_1_1element_1_1AsymmetricGaussKernel2D.html#a8234958fc93042c32fa069831a7034c5" target="_top" xlink:title="Initialize the element (called once before the simulation loop).">
<polygon fill="white" stroke="#666666" points="402,-354.5 224,-354.5 224,-324.5 402,-324.5 402,-354.5"/>
<text text-anchor="start" x="232" y="-342.5" font-family="Helvetica,sans-Serif" font-size="10.00">dnf_composer::element</text>
<text text-anchor="middle" x="313" y="-331.5" font-family="Helvetica,sans-Serif" font-size="10.00">::AsymmetricGaussKernel2D::init</text>
</a>
</g>
</g>
<!-- Node1&#45;&gt;Node4 -->
<g id="edge3_Node000001_Node000004" class="edge">
<title>Node1&#45;&gt;Node4</title>
<g id="a_edge3_Node000001_Node000004"><a xlink:title=" ">
<path fill="none" stroke="#63b8ff" d="M494.95,-238.83C473.45,-260.46 438.18,-292.79 402,-312.5 393.44,-317.16 383.96,-321.14 374.49,-324.49"/>
<polygon fill="#63b8ff" stroke="#63b8ff" points="497.47,-241.27 501.96,-231.67 492.47,-236.37 497.47,-241.27"/>
</a>
</g>
</g>
<!-- Node6 -->
<g id="Node000006" class="node">
<title>Node6</title>
<g id="a_Node000006"><a xlink:href="classdnf__composer_1_1element_1_1GaussKernel.html#a287d7d8ff2d471d38fc915b73c0422bd" target="_top" xlink:title="Initialize the element (called once before the simulation loop).">
<polygon fill="white" stroke="#666666" points="379,-303.5 247,-303.5 247,-273.5 379,-273.5 379,-303.5"/>
<text text-anchor="start" x="255" y="-291.5" font-family="Helvetica,sans-Serif" font-size="10.00">dnf_composer::element</text>
<text text-anchor="middle" x="313" y="-280.5" font-family="Helvetica,sans-Serif" font-size="10.00">::GaussKernel::init</text>
</a>
</g>
</g>
<!-- Node1&#45;&gt;Node6 -->
<g id="edge5_Node000001_Node000006" class="edge">
<title>Node1&#45;&gt;Node6</title>
<g id="a_edge5_Node000001_Node000006"><a xlink:title=" ">
<path fill="none" stroke="#63b8ff" d="M474.11,-235.7C452.78,-245.08 426.29,-256.11 402,-264.5 392.87,-267.65 383.09,-270.66 373.5,-273.43"/>
<polygon fill="#63b8ff" stroke="#63b8ff" points="475.8,-238.78 483.52,-231.53 472.96,-232.39 475.8,-238.78"/>
</a>
</g>
</g>
<!-- Node8 -->
<g id="Node000008" class="node">
<title>Node8</title>
<g id="a_Node000008"><a xlink:href="classdnf__composer_1_1element_1_1GaussKernel2D.html#a039b5f0baaeb7e4a47195a7b4806df19" target="_top" xlink:title="Initialize the element (called once before the simulation loop).">
<polygon fill="white" stroke="#666666" points="379,-255.5 247,-255.5 247,-225.5 379,-225.5 379,-255.5"/>
<text text-anchor="start" x="255" y="-243.5" font-family="Helvetica,sans-Serif" font-size="10.00">dnf_composer::element</text>
<text text-anchor="middle" x="313" y="-232.5" font-family="Helvetica,sans-Serif" font-size="10.00">::GaussKernel2D::init</text>
</a>
</g>
</g>
<!-- Node1&#45;&gt;Node8 -->
<g id="edge7_Node000001_Node000008" class="edge">
<title>Node1&#45;&gt;Node8</title>
<g id="a_edge7_Node000001_Node000008"><a xlink:title=" ">
<path fill="none" stroke="#63b8ff" d="M427.79,-226.98C411.44,-228.92 394.63,-230.92 379.12,-232.76"/>
<polygon fill="#63b8ff" stroke="#63b8ff" points="428.38,-230.43 437.9,-225.78 427.56,-223.48 428.38,-230.43"/>
</a>
</g>
</g>
<!-- Node10 -->
<g id="Node000010" class="node">
<title>Node10</title>
<g id="a_Node000010"><a xlink:href="classdnf__composer_1_1element_1_1MexicanHatKernel.html#ad80d75e45cea14a7d222559ae88d0c48" target="_top" xlink:title="Initialize the element (called once before the simulation loop).">
<polygon fill="white" stroke="#666666" points="380,-207.5 246,-207.5 246,-177.5 380,-177.5 380,-207.5"/>
<text text-anchor="start" x="254" y="-195.5" font-family="Helvetica,sans-Serif" font-size="10.00">dnf_composer::element</text>
<text text-anchor="middle" x="313" y="-184.5" font-family="Helvetica,sans-Serif" font-size="10.00">::MexicanHatKernel::init</text>
</a>
</g>
</g>
<!-- Node1&#45;&gt;Node10 -->
<g id="edge9_Node000001_Node000010" class="edge">
<title>Node1&#45;&gt;Node10</title>
<g id="a_edge9_Node000001_Node000010"><a xlink:title=" ">
<path fill="none" stroke="#63b8ff" d="M427.97,-206.04C411.9,-204.13 395.38,-202.17 380.09,-200.35"/>
<polygon fill="#63b8ff" stroke="#63b8ff" points="427.56,-209.52 437.9,-207.22 428.38,-202.57 427.56,-209.52"/>
</a>
</g>
</g>
<!-- Node12 -->
<g id="Node000012" class="node">
<title>Node12</title>
<g id="a_Node000012"><a xlink:href="classdnf__composer_1_1element_1_1MexicanHatKernel2D.html#aee7c3a1257606ea3a13a3436a17e0a61" target="_top" xlink:title="Initialize the element (called once before the simulation loop).">
<polygon fill="white" stroke="#666666" points="386.5,-156.5 239.5,-156.5 239.5,-126.5 386.5,-126.5 386.5,-156.5"/>
<text text-anchor="start" x="247.5" y="-144.5" font-family="Helvetica,sans-Serif" font-size="10.00">dnf_composer::element</text>
<text text-anchor="middle" x="313" y="-133.5" font-family="Helvetica,sans-Serif" font-size="10.00">::MexicanHatKernel2D::init</text>
</a>
</g>
</g>
<!-- Node1&#45;&gt;Node12 -->
<g id="edge11_Node000001_Node000012" class="edge">
<title>Node1&#45;&gt;Node12</title>
<g id="a_edge11_Node000001_Node000012"><a xlink:title=" ">
<path fill="none" stroke="#63b8ff" d="M473.07,-197.21C451.87,-188.01 425.81,-177.14 402,-168.5 390.58,-164.36 378.19,-160.29 366.4,-156.63"/>
<polygon fill="#63b8ff" stroke="#63b8ff" points="471.87,-200.51 482.43,-201.31 474.68,-194.1 471.87,-200.51"/>
</a>
</g>
</g>
<!-- Node14 -->
<g id="Node000014" class="node">
<title>Node14</title>
<g id="a_Node000014"><a xlink:href="classdnf__composer_1_1element_1_1OscillatoryKernel.html#a47f6325fe52fd6baabe982c590867e7d" target="_top" xlink:title="Initialize the element (called once before the simulation loop).">
<polygon fill="white" stroke="#666666" points="379,-99.5 247,-99.5 247,-69.5 379,-69.5 379,-99.5"/>
<text text-anchor="start" x="255" y="-87.5" font-family="Helvetica,sans-Serif" font-size="10.00">dnf_composer::element</text>
<text text-anchor="middle" x="313" y="-76.5" font-family="Helvetica,sans-Serif" font-size="10.00">::OscillatoryKernel::init</text>
</a>
</g>
</g>
<!-- Node1&#45;&gt;Node14 -->
<g id="edge13_Node000001_Node000014" class="edge">
<title>Node1&#45;&gt;Node14</title>
<g id="a_edge13_Node000001_Node000014"><a xlink:title=" ">
<path fill="none" stroke="#63b8ff" d="M494.82,-193.91C473.22,-171.94 437.86,-138.85 402,-117.5 390.08,-110.41 376.38,-104.38 363.39,-99.51"/>
<polygon fill="#63b8ff" stroke="#63b8ff" points="492.39,-196.43 501.87,-201.18 497.42,-191.56 492.39,-196.43"/>
</a>
</g>
</g>
<!-- Node16 -->
<g id="Node000016" class="node">
<title>Node16</title>
<g id="a_Node000016"><a xlink:href="classdnf__composer_1_1element_1_1OscillatoryKernel2D.html#ab280029bb925d2eb1c0b2af7b6053f9c" target="_top" xlink:title="Initialize the element (called once before the simulation loop).">
<polygon fill="white" stroke="#666666" points="383.5,-46.5 242.5,-46.5 242.5,-16.5 383.5,-16.5 383.5,-46.5"/>
<text text-anchor="start" x="250.5" y="-34.5" font-family="Helvetica,sans-Serif" font-size="10.00">dnf_composer::element</text>
<text text-anchor="middle" x="313" y="-23.5" font-family="Helvetica,sans-Serif" font-size="10.00">::OscillatoryKernel2D::init</text>
</a>
</g>
</g>
<!-- Node1&#45;&gt;Node16 -->
<g id="edge15_Node000001_Node000016" class="edge">
<title>Node1&#45;&gt;Node16</title>
<g id="a_edge15_Node000001_Node000016"><a xlink:title=" ">
<path fill="none" stroke="#63b8ff" d="M504.26,-191.89C486.69,-157.6 450.39,-95.71 402,-60.5 394.33,-54.92 385.51,-50.37 376.5,-46.67"/>
<polygon fill="#63b8ff" stroke="#63b8ff" points="501.31,-193.8 508.91,-201.18 507.57,-190.67 501.31,-193.8"/>
</a>
</g>
</g>
<!-- Node3 -->
<g id="Node000003" class="node">
<title>Node3</title>
<g id="a_Node000003"><a xlink:href="classdnf__composer_1_1element_1_1AsymmetricGaussKernel.html#aa692c282d0b5b78e54d15664166a06eb" target="_top" xlink:title=" ">
<polygon fill="white" stroke="#666666" points="165.5,-422 22.5,-422 22.5,-381 165.5,-381 165.5,-422"/>
<text text-anchor="start" x="30.5" y="-410" font-family="Helvetica,sans-Serif" font-size="10.00">dnf_composer::element</text>
<text text-anchor="start" x="30.5" y="-399" font-family="Helvetica,sans-Serif" font-size="10.00">::AsymmetricGaussKernel</text>
<text text-anchor="middle" x="94" y="-388" font-family="Helvetica,sans-Serif" font-size="10.00">::setParameters</text>
</a>
</g>
</g>
<!-- Node2&#45;&gt;Node3 -->
<g id="edge2_Node000002_Node000003" class="edge">
<title>Node2&#45;&gt;Node3</title>
<g id="a_edge2_Node000002_Node000003"><a xlink:title=" ">
<path fill="none" stroke="#63b8ff" d="M220.75,-397.44C202.34,-398.04 183.25,-398.65 165.68,-399.22"/>
<polygon fill="#63b8ff" stroke="#63b8ff" points="221.01,-400.94 230.89,-397.12 220.78,-393.94 221.01,-400.94"/>
</a>
</g>
</g>
<!-- Node5 -->
<g id="Node000005" class="node">
<title>Node5</title>
<g id="a_Node000005"><a xlink:href="classdnf__composer_1_1element_1_1AsymmetricGaussKernel2D.html#afbef9cba9917c5548463b4e8a7cec7fd" target="_top" xlink:title=" ">
<polygon fill="white" stroke="#666666" points="172,-363 16,-363 16,-322 172,-322 172,-363"/>
<text text-anchor="start" x="24" y="-351" font-family="Helvetica,sans-Serif" font-size="10.00">dnf_composer::element</text>
<text text-anchor="start" x="24" y="-340" font-family="Helvetica,sans-Serif" font-size="10.00">::AsymmetricGaussKernel2D</text>
<text text-anchor="middle" x="94" y="-329" font-family="Helvetica,sans-Serif" font-size="10.00">::setParameters</text>
</a>
</g>
</g>
<!-- Node4&#45;&gt;Node5 -->
<g id="edge4_Node000004_Node000005" class="edge">
<title>Node4&#45;&gt;Node5</title>
<g id="a_edge4_Node000004_Node000005"><a xlink:title=" ">
<path fill="none" stroke="#63b8ff" d="M213.63,-340.86C199.68,-341.05 185.51,-341.25 172.04,-341.43"/>
<polygon fill="#63b8ff" stroke="#63b8ff" points="213.79,-344.36 223.74,-340.72 213.69,-337.36 213.79,-344.36"/>
</a>
</g>
</g>
<!-- Node7 -->
<g id="Node000007" class="node">
<title>Node7</title>
<g id="a_Node000007"><a xlink:href="classdnf__composer_1_1element_1_1GaussKernel.html#a36639a54ade8b0154ed3419f2b0e1650" target="_top" xlink:title=" ">
<polygon fill="white" stroke="#666666" points="174,-303.5 14,-303.5 14,-273.5 174,-273.5 174,-303.5"/>
<text text-anchor="start" x="22" y="-291.5" font-family="Helvetica,sans-Serif" font-size="10.00">dnf_composer::element</text>
<text text-anchor="middle" x="94" y="-280.5" font-family="Helvetica,sans-Serif" font-size="10.00">::GaussKernel::setParameters</text>
</a>
</g>
</g>
<!-- Node6&#45;&gt;Node7 -->
<g id="edge6_Node000006_Node000007" class="edge">
<title>Node6&#45;&gt;Node7</title>
<g id="a_edge6_Node000006_Node000007"><a xlink:title=" ">
<path fill="none" stroke="#63b8ff" d="M236.81,-288.5C216.6,-288.5 194.68,-288.5 174.25,-288.5"/>
<polygon fill="#63b8ff" stroke="#63b8ff" points="236.89,-292 246.89,-288.5 236.89,-285 236.89,-292"/>
</a>
</g>
</g>
<!-- Node9 -->
<g id="Node000009" class="node">
<title>Node9</title>
<g id="a_Node000009"><a xlink:href="classdnf__composer_1_1element_1_1GaussKernel2D.html#a8206313c9478fa50f995e397e4dd9738" target="_top" xlink:title=" ">
<polygon fill="white" stroke="#666666" points="180.5,-255.5 7.5,-255.5 7.5,-225.5 180.5,-225.5 180.5,-255.5"/>
<text text-anchor="start" x="15.5" y="-243.5" font-family="Helvetica,sans-Serif" font-size="10.00">dnf_composer::element</text>
<text text-anchor="middle" x="94" y="-232.5" font-family="Helvetica,sans-Serif" font-size="10.00">::GaussKernel2D::setParameters</text>
</a>
</g>
</g>
<!-- Node8&#45;&gt;Node9 -->
<g id="edge8_Node000008_Node000009" class="edge">
<title>Node8&#45;&gt;Node9</title>
<g id="a_edge8_Node000008_Node000009"><a xlink:title=" ">
<path fill="none" stroke="#63b8ff" d="M236.69,-240.5C218.58,-240.5 199.1,-240.5 180.56,-240.5"/>
<polygon fill="#63b8ff" stroke="#63b8ff" points="236.89,-244 246.89,-240.5 236.89,-237 236.89,-244"/>
</a>
</g>
</g>
<!-- Node11 -->
<g id="Node000011" class="node">
<title>Node11</title>
<g id="a_Node000011"><a xlink:href="classdnf__composer_1_1element_1_1MexicanHatKernel.html#a4aa49909a155682d613a1f6284c90601" target="_top" xlink:title=" ">
<polygon fill="white" stroke="#666666" points="188,-207.5 0,-207.5 0,-177.5 188,-177.5 188,-207.5"/>
<text text-anchor="start" x="8" y="-195.5" font-family="Helvetica,sans-Serif" font-size="10.00">dnf_composer::element</text>
<text text-anchor="middle" x="94" y="-184.5" font-family="Helvetica,sans-Serif" font-size="10.00">::MexicanHatKernel::setParameters</text>
</a>
</g>
</g>
<!-- Node10&#45;&gt;Node11 -->
<g id="edge10_Node000010_Node000011" class="edge">
<title>Node10&#45;&gt;Node11</title>
<g id="a_edge10_Node000010_Node000011"><a xlink:title=" ">
<path fill="none" stroke="#63b8ff" d="M235.3,-192.5C220.01,-192.5 203.8,-192.5 188.04,-192.5"/>
<polygon fill="#63b8ff" stroke="#63b8ff" points="235.71,-196 245.71,-192.5 235.71,-189 235.71,-196"/>
</a>
</g>
</g>
<!-- Node13 -->
<g id="Node000013" class="node">
<title>Node13</title>
<g id="a_Node000013"><a xlink:href="classdnf__composer_1_1element_1_1MexicanHatKernel2D.html#a5f4f3aeeccf58debe0e57e786f1bf57e" target="_top" xlink:title=" ">
<polygon fill="white" stroke="#666666" points="160,-159 28,-159 28,-118 160,-118 160,-159"/>
<text text-anchor="start" x="36" y="-147" font-family="Helvetica,sans-Serif" font-size="10.00">dnf_composer::element</text>
<text text-anchor="start" x="36" y="-136" font-family="Helvetica,sans-Serif" font-size="10.00">::MexicanHatKernel2D</text>
<text text-anchor="middle" x="94" y="-125" font-family="Helvetica,sans-Serif" font-size="10.00">::setParameters</text>
</a>
</g>
</g>
<!-- Node12&#45;&gt;Node13 -->
<g id="edge12_Node000012_Node000013" class="edge">
<title>Node12&#45;&gt;Node13</title>
<g id="a_edge12_Node000012_Node000013"><a xlink:title=" ">
<path fill="none" stroke="#63b8ff" d="M229.39,-140.36C206.49,-140.04 181.95,-139.7 160.19,-139.4"/>
<polygon fill="#63b8ff" stroke="#63b8ff" points="229.39,-143.86 239.44,-140.5 229.49,-136.86 229.39,-143.86"/>
</a>
</g>
</g>
<!-- Node15 -->
<g id="Node000015" class="node">
<title>Node15</title>
<g id="a_Node000015"><a xlink:href="classdnf__composer_1_1element_1_1OscillatoryKernel.html#a5058264b50a235c4c92d8e38d13551ca" target="_top" xlink:title=" ">
<polygon fill="white" stroke="#666666" points="160,-100 28,-100 28,-59 160,-59 160,-100"/>
<text text-anchor="start" x="36" y="-88" font-family="Helvetica,sans-Serif" font-size="10.00">dnf_composer::element</text>
<text text-anchor="start" x="36" y="-77" font-family="Helvetica,sans-Serif" font-size="10.00">::OscillatoryKernel::</text>
<text text-anchor="middle" x="94" y="-66" font-family="Helvetica,sans-Serif" font-size="10.00">setParameters</text>
</a>
</g>
</g>
<!-- Node14&#45;&gt;Node15 -->
<g id="edge14_Node000014_Node000015" class="edge">
<title>Node14&#45;&gt;Node15</title>
<g id="a_edge14_Node000014_Node000015"><a xlink:title=" ">
<path fill="none" stroke="#63b8ff" d="M236.74,-82.77C211.77,-82.19 184.2,-81.56 160.06,-81"/>
<polygon fill="#63b8ff" stroke="#63b8ff" points="236.81,-86.27 246.89,-83 236.98,-79.27 236.81,-86.27"/>
</a>
</g>
</g>
<!-- Node17 -->
<g id="Node000017" class="node">
<title>Node17</title>
<g id="a_Node000017"><a xlink:href="classdnf__composer_1_1element_1_1OscillatoryKernel2D.html#a1d361bc75e26ee2354df657332ca5d3c" target="_top" xlink:title=" ">
<polygon fill="white" stroke="#666666" points="160,-41 28,-41 28,0 160,0 160,-41"/>
<text text-anchor="start" x="36" y="-29" font-family="Helvetica,sans-Serif" font-size="10.00">dnf_composer::element</text>
<text text-anchor="start" x="36" y="-18" font-family="Helvetica,sans-Serif" font-size="10.00">::OscillatoryKernel2D</text>
<text text-anchor="middle" x="94" y="-7" font-family="Helvetica,sans-Serif" font-size="10.00">::setParameters</text>
</a>
</g>
</g>
<!-- Node16&#45;&gt;Node17 -->
<g id="edge16_Node000016_Node000017" class="edge">
<title>Node16&#45;&gt;Node17</title>
<g id="a_edge16_Node000016_Node000017"><a xlink:title=" ">
<path fill="none" stroke="#63b8ff" d="M232.39,-27.46C208.61,-26.26 182.84,-24.95 160.11,-23.8"/>
<polygon fill="#63b8ff" stroke="#63b8ff" points="232.28,-30.96 242.44,-27.97 232.63,-23.97 232.28,-30.96"/>
</a>
</g>
</g>
</g>
</svg>
