<?xml version="1.0" encoding="UTF-8" standalone="no"?>
<!DOCTYPE svg PUBLIC "-//W3C//DTD SVG 1.1//EN"
 "http://www.w3.org/Graphics/SVG/1.1/DTD/svg11.dtd">
<!-- Generated by graphviz version 2.43.0 (0)
 -->
<!-- Title: dnf_composer::tools::math::conv2d_separable_into Pages: 1 -->
<svg width="394pt" height="278pt"
 viewBox="0.00 0.00 394.00 278.00" xmlns="http://www.w3.org/2000/svg" xmlns:xlink="http://www.w3.org/1999/xlink">
<g id="graph0" class="graph" transform="scale(1 1) rotate(0) translate(4 274)">
<title>dnf_composer::tools::math::conv2d_separable_into</title>
<!-- Node1 -->
<g id="Node000001" class="node">
<title>Node1</title>
<g id="a_Node000001"><a xlink:title=" ">
<polygon fill="#999999" stroke="#666666" points="386,-150 219,-150 219,-120 386,-120 386,-150"/>
<text text-anchor="start" x="227" y="-138" font-family="Helvetica,sans-Serif" font-size="10.00">dnf_composer::tools</text>
<text text-anchor="middle" x="302.5" y="-127" font-family="Helvetica,sans-Serif" font-size="10.00">::math::conv2d_separable_into</text>
</a>
</g>
</g>
<!-- Node2 -->
<g id="Node000002" class="node">
<title>Node2</title>
<g id="a_Node000002"><a xlink:href="namespacednf__composer_1_1tools_1_1math.html#a2008b0db9b837585d0f7f90e269f7ad2" target="_top" xlink:title=" ">
<polygon fill="white" stroke="#666666" points="175,-270 8,-270 8,-240 175,-240 175,-270"/>
<text text-anchor="start" x="16" y="-258" font-family="Helvetica,sans-Serif" font-size="10.00">dnf_composer::tools</text>
<text text-anchor="middle" x="91.5" y="-247" font-family="Helvetica,sans-Serif" font-size="10.00">::math::conv2d_separable_into</text>
</a>
</g>
</g>
<!-- Node1&#45;&gt;Node2 -->
<g id="edge1_Node000001_Node000002" class="edge">
<title>Node1&#45;&gt;Node2</title>
<g id="a_edge1_Node000001_Node000002"><a xlink:title=" ">
<path fill="none" stroke="#63b8ff" d="M279.99,-157.23C257.67,-179.06 220.8,-211.8 183,-231 176.33,-234.39 169.14,-237.33 161.83,-239.88"/>
<polygon fill="#63b8ff" stroke="#63b8ff" points="282.63,-159.54 287.26,-150 277.7,-154.58 282.63,-159.54"/>
</a>
</g>
</g>
<!-- Node3 -->
<g id="Node000003" class="node">
<title>Node3</title>
<g id="a_Node000003"><a xlink:href="classdnf__composer_1_1element_1_1AsymmetricGaussKernel2D.html#ab88efe9a35d4b8489448f12e6ab15509" target="_top" xlink:title="Advance the element by one time step.">
<polygon fill="white" stroke="#666666" points="183,-222 0,-222 0,-192 183,-192 183,-222"/>
<text text-anchor="start" x="8" y="-210" font-family="Helvetica,sans-Serif" font-size="10.00">dnf_composer::element</text>
<text text-anchor="middle" x="91.5" y="-199" font-family="Helvetica,sans-Serif" font-size="10.00">::AsymmetricGaussKernel2D::step</text>
</a>
</g>
</g>
<!-- Node1&#45;&gt;Node3 -->
<g id="edge2_Node000001_Node000003" class="edge">
<title>Node1&#45;&gt;Node3</title>
<g id="a_edge2_Node000001_Node000003"><a xlink:title=" ">
<path fill="none" stroke="#63b8ff" d="M258.21,-154.06C235.98,-163.46 208.31,-174.55 183,-183 173.59,-186.14 163.53,-189.14 153.66,-191.9"/>
<polygon fill="#63b8ff" stroke="#63b8ff" points="259.87,-157.16 267.7,-150.01 257.13,-150.72 259.87,-157.16"/>
</a>
</g>
</g>
<!-- Node4 -->
<g id="Node000004" class="node">
<title>Node4</title>
<g id="a_Node000004"><a xlink:href="classdnf__composer_1_1element_1_1CorrelatedNormalNoise2D.html#a3b8fb5f809d6103a7dff54129d8301f5" target="_top" xlink:title="Advance the element by one time step.">
<polygon fill="white" stroke="#666666" points="180.5,-174 2.5,-174 2.5,-144 180.5,-144 180.5,-174"/>
<text text-anchor="start" x="10.5" y="-162" font-family="Helvetica,sans-Serif" font-size="10.00">dnf_composer::element</text>
<text text-anchor="middle" x="91.5" y="-151" font-family="Helvetica,sans-Serif" font-size="10.00">::CorrelatedNormalNoise2D::step</text>
</a>
</g>
</g>
<!-- Node1&#45;&gt;Node4 -->
<g id="edge3_Node000001_Node000004" class="edge">
<title>Node1&#45;&gt;Node4</title>
<g id="a_edge3_Node000001_Node000004"><a xlink:title=" ">
<path fill="none" stroke="#63b8ff" d="M208.82,-145.64C199.47,-146.72 189.99,-147.8 180.69,-148.87"/>
<polygon fill="#63b8ff" stroke="#63b8ff" points="209.36,-149.1 218.9,-144.49 208.56,-142.15 209.36,-149.1"/>
</a>
</g>
</g>
<!-- Node5 -->
<g id="Node000005" class="node">
<title>Node5</title>
<g id="a_Node000005"><a xlink:href="classdnf__composer_1_1element_1_1GaussKernel2D.html#afe15b891a5a3bf3caba5213476d12edf" target="_top" xlink:title="Advance the element by one time step.">
<polygon fill="white" stroke="#666666" points="157.5,-126 25.5,-126 25.5,-96 157.5,-96 157.5,-126"/>
<text text-anchor="start" x="33.5" y="-114" font-family="Helvetica,sans-Serif" font-size="10.00">dnf_composer::element</text>
<text text-anchor="middle" x="91.5" y="-103" font-family="Helvetica,sans-Serif" font-size="10.00">::GaussKernel2D::step</text>
</a>
</g>
</g>
<!-- Node1&#45;&gt;Node5 -->
<g id="edge4_Node000001_Node000005" class="edge">
<title>Node1&#45;&gt;Node5</title>
<g id="a_edge4_Node000001_Node000005"><a xlink:title=" ">
<path fill="none" stroke="#63b8ff" d="M208.82,-124.36C191.6,-122.38 173.95,-120.35 157.76,-118.49"/>
<polygon fill="#63b8ff" stroke="#63b8ff" points="208.56,-127.85 218.9,-125.51 209.36,-120.9 208.56,-127.85"/>
</a>
</g>
</g>
<!-- Node6 -->
<g id="Node000006" class="node">
<title>Node6</title>
<g id="a_Node000006"><a xlink:href="classdnf__composer_1_1element_1_1MexicanHatKernel2D.html#a586a0dc4008c2456314a6254e9d9d0ee" target="_top" xlink:title="Advance the element by one time step.">
<polygon fill="white" stroke="#666666" points="167.5,-78 15.5,-78 15.5,-48 167.5,-48 167.5,-78"/>
<text text-anchor="start" x="23.5" y="-66" font-family="Helvetica,sans-Serif" font-size="10.00">dnf_composer::element</text>
<text text-anchor="middle" x="91.5" y="-55" font-family="Helvetica,sans-Serif" font-size="10.00">::MexicanHatKernel2D::step</text>
</a>
</g>
</g>
<!-- Node1&#45;&gt;Node6 -->
<g id="edge5_Node000001_Node000006" class="edge">
<title>Node1&#45;&gt;Node6</title>
<g id="a_edge5_Node000001_Node000006"><a xlink:title=" ">
<path fill="none" stroke="#63b8ff" d="M258.21,-115.94C235.98,-106.54 208.31,-95.45 183,-87 173.59,-83.86 163.53,-80.86 153.66,-78.1"/>
<polygon fill="#63b8ff" stroke="#63b8ff" points="257.13,-119.28 267.7,-119.99 259.87,-112.84 257.13,-119.28"/>
</a>
</g>
</g>
<!-- Node7 -->
<g id="Node000007" class="node">
<title>Node7</title>
<g id="a_Node000007"><a xlink:href="classdnf__composer_1_1element_1_1OscillatoryKernel2D.html#a1a8e3064bedd9fd6d4a00818bc3ff271" target="_top" xlink:title="Advance the element by one time step.">
<polygon fill="white" stroke="#666666" points="164.5,-30 18.5,-30 18.5,0 164.5,0 164.5,-30"/>
<text text-anchor="start" x="26.5" y="-18" font-family="Helvetica,sans-Serif" font-size="10.00">dnf_composer::element</text>
<text text-anchor="middle" x="91.5" y="-7" font-family="Helvetica,sans-Serif" font-size="10.00">::OscillatoryKernel2D::step</text>
</a>
</g>
</g>
<!-- Node1&#45;&gt;Node7 -->
<g id="edge6_Node000001_Node000007" class="edge">
<title>Node1&#45;&gt;Node7</title>
<g id="a_edge6_Node000001_Node000007"><a xlink:title=" ">
<path fill="none" stroke="#63b8ff" d="M279.99,-112.77C257.67,-90.94 220.8,-58.2 183,-39 176.33,-35.61 169.14,-32.67 161.83,-30.12"/>
<polygon fill="#63b8ff" stroke="#63b8ff" points="277.7,-115.42 287.26,-120 282.63,-110.46 277.7,-115.42"/>
</a>
</g>
</g>
</g>
</svg>
