<?xml version="1.0" encoding="UTF-8" standalone="no"?>
<!DOCTYPE svg PUBLIC "-//W3C//DTD SVG 1.1//EN"
 "http://www.w3.org/Graphics/SVG/1.1/DTD/svg11.dtd">
<!-- Generated by graphviz version 2.43.0 (0)
 -->
<!-- Title: dnf_composer::user_interface::widgets::renderHelpMarker Pages: 1 -->
<svg width="519pt" height="108pt"
 viewBox="0.00 0.00 519.00 108.00" xmlns="http://www.w3.org/2000/svg" xmlns:xlink="http://www.w3.org/1999/xlink">
<g id="graph0" class="graph" transform="scale(1 1) rotate(0) translate(4 104)">
<title>dnf_composer::user_interface::widgets::renderHelpMarker</title>
<!-- Node1 -->
<g id="Node000001" class="node">
<title>Node1</title>
<g id="a_Node000001"><a xlink:title=" ">
<polygon fill="#999999" stroke="#666666" points="511,-70 398,-70 398,-29 511,-29 511,-70"/>
<text text-anchor="start" x="406" y="-58" font-family="Helvetica,sans-Serif" font-size="10.00">dnf_composer::user</text>
<text text-anchor="start" x="406" y="-47" font-family="Helvetica,sans-Serif" font-size="10.00">_interface::widgets</text>
<text text-anchor="middle" x="454.5" y="-36" font-family="Helvetica,sans-Serif" font-size="10.00">::renderHelpMarker</text>
</a>
</g>
</g>
<!-- Node2 -->
<g id="Node000002" class="node">
<title>Node2</title>
<g id="a_Node000002"><a xlink:href="classdnf__composer_1_1user__interface_1_1ElementWindow.html#a7a9a4725216b2715382e35468362857a" target="_top" xlink:title=" ">
<polygon fill="white" stroke="#666666" points="356.5,-100 204.5,-100 204.5,-59 356.5,-59 356.5,-100"/>
<text text-anchor="start" x="212.5" y="-88" font-family="Helvetica,sans-Serif" font-size="10.00">dnf_composer::user</text>
<text text-anchor="start" x="212.5" y="-77" font-family="Helvetica,sans-Serif" font-size="10.00">_interface::ElementWindow</text>
<text text-anchor="middle" x="280.5" y="-66" font-family="Helvetica,sans-Serif" font-size="10.00">::renderElementControlCard</text>
</a>
</g>
</g>
<!-- Node1&#45;&gt;Node2 -->
<g id="edge1_Node000001_Node000002" class="edge">
<title>Node1&#45;&gt;Node2</title>
<g id="a_edge1_Node000001_Node000002"><a xlink:title=" ">
<path fill="none" stroke="#63b8ff" d="M387.7,-60.98C377.58,-62.74 367.07,-64.57 356.77,-66.37"/>
<polygon fill="#63b8ff" stroke="#63b8ff" points="388.41,-64.41 397.66,-59.24 387.2,-57.51 388.41,-64.41"/>
</a>
</g>
</g>
<!-- Node4 -->
<g id="Node000004" class="node">
<title>Node4</title>
<g id="a_Node000004"><a xlink:href="classdnf__composer_1_1user__interface_1_1SimulationWindow.html#a1752634b611833df6dc90fe09952eaef" target="_top" xlink:title=" ">
<polygon fill="white" stroke="#666666" points="362,-41 199,-41 199,0 362,0 362,-41"/>
<text text-anchor="start" x="207" y="-29" font-family="Helvetica,sans-Serif" font-size="10.00">dnf_composer::user</text>
<text text-anchor="start" x="207" y="-18" font-family="Helvetica,sans-Serif" font-size="10.00">_interface::SimulationWindow</text>
<text text-anchor="middle" x="280.5" y="-7" font-family="Helvetica,sans-Serif" font-size="10.00">::renderSetInteractionCard</text>
</a>
</g>
</g>
<!-- Node1&#45;&gt;Node4 -->
<g id="edge3_Node000001_Node000004" class="edge">
<title>Node1&#45;&gt;Node4</title>
<g id="a_edge3_Node000001_Node000004"><a xlink:title=" ">
<path fill="none" stroke="#63b8ff" d="M387.61,-38.39C379.25,-36.98 370.61,-35.52 362.05,-34.08"/>
<polygon fill="#63b8ff" stroke="#63b8ff" points="387.21,-41.87 397.66,-40.08 388.38,-34.97 387.21,-41.87"/>
</a>
</g>
</g>
<!-- Node3 -->
<g id="Node000003" class="node">
<title>Node3</title>
<g id="a_Node000003"><a xlink:href="classdnf__composer_1_1user__interface_1_1ElementWindow.html#a887f3bb041e6b782122c3e7638833cf5" target="_top" xlink:title=" ">
<polygon fill="white" stroke="#666666" points="157,-100 6,-100 6,-59 157,-59 157,-100"/>
<text text-anchor="start" x="14" y="-88" font-family="Helvetica,sans-Serif" font-size="10.00">dnf_composer::user</text>
<text text-anchor="start" x="14" y="-77" font-family="Helvetica,sans-Serif" font-size="10.00">_interface::ElementWindow</text>
<text text-anchor="middle" x="81.5" y="-66" font-family="Helvetica,sans-Serif" font-size="10.00">::render</text>
</a>
</g>
</g>
<!-- Node2&#45;&gt;Node3 -->
<g id="edge2_Node000002_Node000003" class="edge">
<title>Node2&#45;&gt;Node3</title>
<g id="a_edge2_Node000002_Node000003"><a xlink:title=" ">
<path fill="none" stroke="#63b8ff" d="M194.16,-79.5C181.79,-79.5 169.14,-79.5 157,-79.5"/>
<polygon fill="#63b8ff" stroke="#63b8ff" points="194.46,-83 204.46,-79.5 194.46,-76 194.46,-83"/>
</a>
</g>
</g>
<!-- Node5 -->
<g id="Node000005" class="node">
<title>Node5</title>
<g id="a_Node000005"><a xlink:href="classdnf__composer_1_1user__interface_1_1SimulationWindow.html#ac0c5ebab9dd16f951c2c231a8e1f6f34" target="_top" xlink:title=" ">
<polygon fill="white" stroke="#666666" points="163,-41 0,-41 0,0 163,0 163,-41"/>
<text text-anchor="start" x="8" y="-29" font-family="Helvetica,sans-Serif" font-size="10.00">dnf_composer::user</text>
<text text-anchor="start" x="8" y="-18" font-family="Helvetica,sans-Serif" font-size="10.00">_interface::SimulationWindow</text>
<text text-anchor="middle" x="81.5" y="-7" font-family="Helvetica,sans-Serif" font-size="10.00">::render</text>
</a>
</g>
</g>
<!-- Node4&#45;&gt;Node5 -->
<g id="edge4_Node000004_Node000005" class="edge">
<title>Node4&#45;&gt;Node5</title>
<g id="a_edge4_Node000004_Node000005"><a xlink:title=" ">
<path fill="none" stroke="#63b8ff" d="M188.78,-20.5C180.2,-20.5 171.55,-20.5 163.07,-20.5"/>
<polygon fill="#63b8ff" stroke="#63b8ff" points="188.8,-24 198.8,-20.5 188.8,-17 188.8,-24"/>
</a>
</g>
</g>
</g>
</svg>
