<?xml version="1.0" encoding="UTF-8" standalone="no"?>
<!DOCTYPE svg PUBLIC "-//W3C//DTD SVG 1.1//EN"
 "http://www.w3.org/Graphics/SVG/1.1/DTD/svg11.dtd">
<!-- Generated by graphviz version 2.43.0 (0)
 -->
<!-- Title: dnf_composer::tools::math::gaussNorm Pages: 1 -->
<svg width="548pt" height="205pt"
 viewBox="0.00 0.00 548.00 204.50" xmlns="http://www.w3.org/2000/svg" xmlns:xlink="http://www.w3.org/1999/xlink">
<g id="graph0" class="graph" transform="scale(1 1) rotate(0) translate(4 200.5)">
<title>dnf_composer::tools::math::gaussNorm</title>
<!-- Node1 -->
<g id="Node000001" class="node">
<title>Node1</title>
<g id="a_Node000001"><a xlink:title=" ">
<polygon fill="#999999" stroke="#666666" points="540,-103 424,-103 424,-73 540,-73 540,-103"/>
<text text-anchor="start" x="432" y="-91" font-family="Helvetica,sans-Serif" font-size="10.00">dnf_composer::tools</text>
<text text-anchor="middle" x="482" y="-80" font-family="Helvetica,sans-Serif" font-size="10.00">::math::gaussNorm</text>
</a>
</g>
</g>
<!-- Node2 -->
<g id="Node000002" class="node">
<title>Node2</title>
<g id="a_Node000002"><a xlink:href="classdnf__composer_1_1element_1_1AsymmetricGaussKernel.html#a96e938df35bc5c5b9944201750e5ff83" target="_top" xlink:title="Initialize the element (called once before the simulation loop).">
<polygon fill="white" stroke="#666666" points="388,-185 224,-185 224,-155 388,-155 388,-185"/>
<text text-anchor="start" x="232" y="-173" font-family="Helvetica,sans-Serif" font-size="10.00">dnf_composer::element</text>
<text text-anchor="middle" x="306" y="-162" font-family="Helvetica,sans-Serif" font-size="10.00">::AsymmetricGaussKernel::init</text>
</a>
</g>
</g>
<!-- Node1&#45;&gt;Node2 -->
<g id="edge1_Node000001_Node000002" class="edge">
<title>Node1&#45;&gt;Node2</title>
<g id="a_edge1_Node000001_Node000002"><a xlink:title=" ">
<path fill="none" stroke="#63b8ff" d="M446.68,-108.28C429.37,-118.13 407.88,-129.8 388,-139 375.7,-144.69 362.04,-150.21 349.49,-154.98"/>
<polygon fill="#63b8ff" stroke="#63b8ff" points="448.9,-111.04 455.82,-103.03 445.41,-104.97 448.9,-111.04"/>
</a>
</g>
</g>
<!-- Node4 -->
<g id="Node000004" class="node">
<title>Node4</title>
<g id="a_Node000004"><a xlink:href="classdnf__composer_1_1element_1_1CorrelatedNormalNoise.html#af15a4f2f22980b9bd2f843d3a7ec77c7" target="_top" xlink:title="Initialize the element (called once before the simulation loop).">
<polygon fill="white" stroke="#666666" points="385.5,-130 226.5,-130 226.5,-100 385.5,-100 385.5,-130"/>
<text text-anchor="start" x="234.5" y="-118" font-family="Helvetica,sans-Serif" font-size="10.00">dnf_composer::element</text>
<text text-anchor="middle" x="306" y="-107" font-family="Helvetica,sans-Serif" font-size="10.00">::CorrelatedNormalNoise::init</text>
</a>
</g>
</g>
<!-- Node1&#45;&gt;Node4 -->
<g id="edge3_Node000001_Node000004" class="edge">
<title>Node1&#45;&gt;Node4</title>
<g id="a_edge3_Node000001_Node000004"><a xlink:title=" ">
<path fill="none" stroke="#63b8ff" d="M413.38,-98.49C404.25,-99.91 394.82,-101.37 385.51,-102.82"/>
<polygon fill="#63b8ff" stroke="#63b8ff" points="414.2,-101.91 423.54,-96.92 413.13,-94.99 414.2,-101.91"/>
</a>
</g>
</g>
<!-- Node6 -->
<g id="Node000006" class="node">
<title>Node6</title>
<g id="a_Node000006"><a xlink:href="classdnf__composer_1_1element_1_1GaussKernel.html#a287d7d8ff2d471d38fc915b73c0422bd" target="_top" xlink:title="Initialize the element (called once before the simulation loop).">
<polygon fill="white" stroke="#666666" points="372,-79 240,-79 240,-49 372,-49 372,-79"/>
<text text-anchor="start" x="248" y="-67" font-family="Helvetica,sans-Serif" font-size="10.00">dnf_composer::element</text>
<text text-anchor="middle" x="306" y="-56" font-family="Helvetica,sans-Serif" font-size="10.00">::GaussKernel::init</text>
</a>
</g>
</g>
<!-- Node1&#45;&gt;Node6 -->
<g id="edge5_Node000001_Node000006" class="edge">
<title>Node1&#45;&gt;Node6</title>
<g id="a_edge5_Node000001_Node000006"><a xlink:title=" ">
<path fill="none" stroke="#63b8ff" d="M413.36,-78.67C399.84,-76.8 385.66,-74.85 372.22,-73"/>
<polygon fill="#63b8ff" stroke="#63b8ff" points="413.16,-82.18 423.54,-80.07 414.12,-75.24 413.16,-82.18"/>
</a>
</g>
</g>
<!-- Node8 -->
<g id="Node000008" class="node">
<title>Node8</title>
<g id="a_Node000008"><a xlink:href="classdnf__composer_1_1element_1_1MexicanHatKernel.html#ad80d75e45cea14a7d222559ae88d0c48" target="_top" xlink:title="Initialize the element (called once before the simulation loop).">
<polygon fill="white" stroke="#666666" points="373,-31 239,-31 239,-1 373,-1 373,-31"/>
<text text-anchor="start" x="247" y="-19" font-family="Helvetica,sans-Serif" font-size="10.00">dnf_composer::element</text>
<text text-anchor="middle" x="306" y="-8" font-family="Helvetica,sans-Serif" font-size="10.00">::MexicanHatKernel::init</text>
</a>
</g>
</g>
<!-- Node1&#45;&gt;Node8 -->
<g id="edge7_Node000001_Node000008" class="edge">
<title>Node1&#45;&gt;Node8</title>
<g id="a_edge7_Node000001_Node000008"><a xlink:title=" ">
<path fill="none" stroke="#63b8ff" d="M446.09,-67.99C428.95,-58.69 407.77,-47.95 388,-40 379.97,-36.77 371.34,-33.76 362.81,-31.03"/>
<polygon fill="#63b8ff" stroke="#63b8ff" points="444.71,-71.23 455.16,-72.99 448.09,-65.1 444.71,-71.23"/>
</a>
</g>
</g>
<!-- Node3 -->
<g id="Node000003" class="node">
<title>Node3</title>
<g id="a_Node000003"><a xlink:href="classdnf__composer_1_1element_1_1AsymmetricGaussKernel.html#aa692c282d0b5b78e54d15664166a06eb" target="_top" xlink:title=" ">
<polygon fill="white" stroke="#666666" points="165.5,-196.5 22.5,-196.5 22.5,-155.5 165.5,-155.5 165.5,-196.5"/>
<text text-anchor="start" x="30.5" y="-184.5" font-family="Helvetica,sans-Serif" font-size="10.00">dnf_composer::element</text>
<text text-anchor="start" x="30.5" y="-173.5" font-family="Helvetica,sans-Serif" font-size="10.00">::AsymmetricGaussKernel</text>
<text text-anchor="middle" x="94" y="-162.5" font-family="Helvetica,sans-Serif" font-size="10.00">::setParameters</text>
</a>
</g>
</g>
<!-- Node2&#45;&gt;Node3 -->
<g id="edge2_Node000002_Node000003" class="edge">
<title>Node2&#45;&gt;Node3</title>
<g id="a_edge2_Node000002_Node000003"><a xlink:title=" ">
<path fill="none" stroke="#63b8ff" d="M213.39,-172.62C197.41,-173.07 181.02,-173.54 165.72,-173.98"/>
<polygon fill="#63b8ff" stroke="#63b8ff" points="213.91,-176.1 223.81,-172.32 213.71,-169.11 213.91,-176.1"/>
</a>
</g>
</g>
<!-- Node5 -->
<g id="Node000005" class="node">
<title>Node5</title>
<g id="a_Node000005"><a xlink:href="classdnf__composer_1_1element_1_1CorrelatedNormalNoise.html#a78311915d5aafe88d29c65a834482c89" target="_top" xlink:title=" ">
<polygon fill="white" stroke="#666666" points="162.5,-137.5 25.5,-137.5 25.5,-96.5 162.5,-96.5 162.5,-137.5"/>
<text text-anchor="start" x="33.5" y="-125.5" font-family="Helvetica,sans-Serif" font-size="10.00">dnf_composer::element</text>
<text text-anchor="start" x="33.5" y="-114.5" font-family="Helvetica,sans-Serif" font-size="10.00">::CorrelatedNormalNoise</text>
<text text-anchor="middle" x="94" y="-103.5" font-family="Helvetica,sans-Serif" font-size="10.00">::setParameters</text>
</a>
</g>
</g>
<!-- Node4&#45;&gt;Node5 -->
<g id="edge4_Node000004_Node000005" class="edge">
<title>Node4&#45;&gt;Node5</title>
<g id="a_edge4_Node000004_Node000005"><a xlink:title=" ">
<path fill="none" stroke="#63b8ff" d="M216.04,-115.85C198.13,-116.02 179.57,-116.19 162.53,-116.36"/>
<polygon fill="#63b8ff" stroke="#63b8ff" points="216.24,-119.35 226.21,-115.75 216.17,-112.35 216.24,-119.35"/>
</a>
</g>
</g>
<!-- Node7 -->
<g id="Node000007" class="node">
<title>Node7</title>
<g id="a_Node000007"><a xlink:href="classdnf__composer_1_1element_1_1GaussKernel.html#a36639a54ade8b0154ed3419f2b0e1650" target="_top" xlink:title=" ">
<polygon fill="white" stroke="#666666" points="174,-78 14,-78 14,-48 174,-48 174,-78"/>
<text text-anchor="start" x="22" y="-66" font-family="Helvetica,sans-Serif" font-size="10.00">dnf_composer::element</text>
<text text-anchor="middle" x="94" y="-55" font-family="Helvetica,sans-Serif" font-size="10.00">::GaussKernel::setParameters</text>
</a>
</g>
</g>
<!-- Node6&#45;&gt;Node7 -->
<g id="edge6_Node000006_Node000007" class="edge">
<title>Node6&#45;&gt;Node7</title>
<g id="a_edge6_Node000006_Node000007"><a xlink:title=" ">
<path fill="none" stroke="#63b8ff" d="M229.81,-63.64C211.73,-63.56 192.36,-63.46 174.11,-63.38"/>
<polygon fill="#63b8ff" stroke="#63b8ff" points="229.98,-67.14 239.99,-63.69 230.01,-60.14 229.98,-67.14"/>
</a>
</g>
</g>
<!-- Node9 -->
<g id="Node000009" class="node">
<title>Node9</title>
<g id="a_Node000009"><a xlink:href="classdnf__composer_1_1element_1_1MexicanHatKernel.html#a4aa49909a155682d613a1f6284c90601" target="_top" xlink:title=" ">
<polygon fill="white" stroke="#666666" points="188,-30 0,-30 0,0 188,0 188,-30"/>
<text text-anchor="start" x="8" y="-18" font-family="Helvetica,sans-Serif" font-size="10.00">dnf_composer::element</text>
<text text-anchor="middle" x="94" y="-7" font-family="Helvetica,sans-Serif" font-size="10.00">::MexicanHatKernel::setParameters</text>
</a>
</g>
</g>
<!-- Node8&#45;&gt;Node9 -->
<g id="edge8_Node000008_Node000009" class="edge">
<title>Node8&#45;&gt;Node9</title>
<g id="a_edge8_Node000008_Node000009"><a xlink:title=" ">
<path fill="none" stroke="#63b8ff" d="M228.48,-15.64C215.36,-15.57 201.59,-15.51 188.1,-15.44"/>
<polygon fill="#63b8ff" stroke="#63b8ff" points="228.83,-19.14 238.84,-15.68 228.86,-12.14 228.83,-19.14"/>
</a>
</g>
</g>
</g>
</svg>
