<?xml version="1.0" encoding="UTF-8" standalone="no"?>
<!DOCTYPE svg PUBLIC "-//W3C//DTD SVG 1.1//EN"
 "http://www.w3.org/Graphics/SVG/1.1/DTD/svg11.dtd">
<!-- Generated by graphviz version 2.43.0 (0)
 -->
<!-- Title: dnf_composer::tools::utils::getResourceRoot Pages: 1 -->
<svg width="565pt" height="172pt"
 viewBox="0.00 0.00 565.00 172.00" xmlns="http://www.w3.org/2000/svg" xmlns:xlink="http://www.w3.org/1999/xlink">
<g id="graph0" class="graph" transform="scale(1 1) rotate(0) translate(4 168)">
<title>dnf_composer::tools::utils::getResourceRoot</title>
<!-- Node1 -->
<g id="Node000001" class="node">
<title>Node1</title>
<g id="a_Node000001"><a xlink:title=" ">
<polygon fill="#999999" stroke="#666666" points="557,-94 424,-94 424,-64 557,-64 557,-94"/>
<text text-anchor="start" x="432" y="-82" font-family="Helvetica,sans-Serif" font-size="10.00">dnf_composer::tools</text>
<text text-anchor="middle" x="490.5" y="-71" font-family="Helvetica,sans-Serif" font-size="10.00">::utils::getResourceRoot</text>
</a>
</g>
</g>
<!-- Node2 -->
<g id="Node000002" class="node">
<title>Node2</title>
<g id="a_Node000002"><a xlink:href="classdnf__composer_1_1Simulation.html#ab793cd0a18d45717e78440e4eada4dc2" target="_top" xlink:title="Write the named component to a CSV file in the output directory.">
<polygon fill="white" stroke="#666666" points="362.5,-164 218.5,-164 218.5,-134 362.5,-134 362.5,-164"/>
<text text-anchor="start" x="226.5" y="-152" font-family="Helvetica,sans-Serif" font-size="10.00">dnf_composer::Simulation</text>
<text text-anchor="middle" x="290.5" y="-141" font-family="Helvetica,sans-Serif" font-size="10.00">::exportComponentToFile</text>
</a>
</g>
</g>
<!-- Node1&#45;&gt;Node2 -->
<g id="edge1_Node000001_Node000002" class="edge">
<title>Node1&#45;&gt;Node2</title>
<g id="a_edge1_Node000001_Node000002"><a xlink:title=" ">
<path fill="none" stroke="#63b8ff" d="M450.82,-98.53C432.16,-107.43 409.26,-117.61 388,-125 378.62,-128.26 368.59,-131.27 358.67,-133.97"/>
<polygon fill="#63b8ff" stroke="#63b8ff" points="452.4,-101.65 459.88,-94.15 449.36,-95.35 452.4,-101.65"/>
</a>
</g>
</g>
<!-- Node3 -->
<g id="Node000003" class="node">
<title>Node3</title>
<g id="a_Node000003"><a xlink:href="classdnf__composer_1_1element_1_1FieldCoupling.html#a7af578f4c654acfce33920528d239c7d" target="_top" xlink:title="Construct a FieldCoupling.">
<polygon fill="white" stroke="#666666" points="371,-116 210,-116 210,-86 371,-86 371,-116"/>
<text text-anchor="start" x="218" y="-104" font-family="Helvetica,sans-Serif" font-size="10.00">dnf_composer::element</text>
<text text-anchor="middle" x="290.5" y="-93" font-family="Helvetica,sans-Serif" font-size="10.00">::FieldCoupling::FieldCoupling</text>
</a>
</g>
</g>
<!-- Node1&#45;&gt;Node3 -->
<g id="edge2_Node000001_Node000003" class="edge">
<title>Node1&#45;&gt;Node3</title>
<g id="a_edge2_Node000001_Node000003"><a xlink:title=" ">
<path fill="none" stroke="#63b8ff" d="M413.8,-87.41C399.82,-88.96 385.19,-90.59 371.1,-92.16"/>
<polygon fill="#63b8ff" stroke="#63b8ff" points="414.29,-90.88 423.84,-86.3 413.52,-83.92 414.29,-90.88"/>
</a>
</g>
</g>
<!-- Node4 -->
<g id="Node000004" class="node">
<title>Node4</title>
<g id="a_Node000004"><a xlink:href="namespaceFileDialog.html#a665aae6a75d9f9635f4bf7e8135b48c0" target="_top" xlink:title=" ">
<polygon fill="white" stroke="#666666" points="363.5,-67.5 217.5,-67.5 217.5,-48.5 363.5,-48.5 363.5,-67.5"/>
<text text-anchor="middle" x="290.5" y="-55.5" font-family="Helvetica,sans-Serif" font-size="10.00">FileDialog::ShowFileDialog</text>
</a>
</g>
</g>
<!-- Node1&#45;&gt;Node4 -->
<g id="edge3_Node000001_Node000004" class="edge">
<title>Node1&#45;&gt;Node4</title>
<g id="a_edge3_Node000001_Node000004"><a xlink:title=" ">
<path fill="none" stroke="#63b8ff" d="M413.77,-70.97C397.37,-69.23 380.07,-67.39 363.8,-65.67"/>
<polygon fill="#63b8ff" stroke="#63b8ff" points="413.53,-74.46 423.84,-72.04 414.27,-67.5 413.53,-74.46"/>
</a>
</g>
</g>
<!-- Node6 -->
<g id="Node000006" class="node">
<title>Node6</title>
<g id="a_Node000006"><a xlink:href="classdnf__composer_1_1SimulationFileManager.html#ac3c402cf84127446d2b2aba586bae542" target="_top" xlink:title="Construct a SimulationFileManager.">
<polygon fill="white" stroke="#666666" points="388,-30 193,-30 193,0 388,0 388,-30"/>
<text text-anchor="start" x="201" y="-18" font-family="Helvetica,sans-Serif" font-size="10.00">dnf_composer::Simulation</text>
<text text-anchor="middle" x="290.5" y="-7" font-family="Helvetica,sans-Serif" font-size="10.00">FileManager::SimulationFileManager</text>
</a>
</g>
</g>
<!-- Node1&#45;&gt;Node6 -->
<g id="edge5_Node000001_Node000006" class="edge">
<title>Node1&#45;&gt;Node6</title>
<g id="a_edge5_Node000001_Node000006"><a xlink:title=" ">
<path fill="none" stroke="#63b8ff" d="M443.88,-60.21C426.54,-53.4 406.5,-45.93 388,-40 377.04,-36.49 365.26,-33.11 353.83,-30.04"/>
<polygon fill="#63b8ff" stroke="#63b8ff" points="442.63,-63.47 453.21,-63.91 445.21,-56.97 442.63,-63.47"/>
</a>
</g>
</g>
<!-- Node5 -->
<g id="Node000005" class="node">
<title>Node5</title>
<g id="a_Node000005"><a xlink:href="namespaceFileDialog.html#ad9d1c40a19c4dac5851a6534c505914b" target="_top" xlink:title=" ">
<polygon fill="white" stroke="#666666" points="157,-67.5 0,-67.5 0,-48.5 157,-48.5 157,-67.5"/>
<text text-anchor="middle" x="78.5" y="-55.5" font-family="Helvetica,sans-Serif" font-size="10.00">FileDialog::ShowFileDialog_s</text>
</a>
</g>
</g>
<!-- Node4&#45;&gt;Node5 -->
<g id="edge4_Node000004_Node000005" class="edge">
<title>Node4&#45;&gt;Node5</title>
<g id="a_edge4_Node000004_Node000005"><a xlink:title=" ">
<path fill="none" stroke="#63b8ff" d="M207.13,-58C190.72,-58 173.53,-58 157.28,-58"/>
<polygon fill="#63b8ff" stroke="#63b8ff" points="207.23,-61.5 217.23,-58 207.23,-54.5 207.23,-61.5"/>
</a>
</g>
</g>
</g>
</svg>
