<?xml version="1.0" encoding="UTF-8" standalone="no"?>
<!DOCTYPE svg PUBLIC "-//W3C//DTD SVG 1.1//EN"
 "http://www.w3.org/Graphics/SVG/1.1/DTD/svg11.dtd">
<!-- Generated by graphviz version 2.43.0 (0)
 -->
<!-- Title: dnf_composer::tools::math::conv_same Pages: 1 -->
<svg width="330pt" height="182pt"
 viewBox="0.00 0.00 330.00 182.00" xmlns="http://www.w3.org/2000/svg" xmlns:xlink="http://www.w3.org/1999/xlink">
<g id="graph0" class="graph" transform="scale(1 1) rotate(0) translate(4 178)">
<title>dnf_composer::tools::math::conv_same</title>
<!-- Node1 -->
<g id="Node000001" class="node">
<title>Node1</title>
<g id="a_Node000001"><a xlink:title=" ">
<polygon fill="#999999" stroke="#666666" points="322,-102 206,-102 206,-72 322,-72 322,-102"/>
<text text-anchor="start" x="214" y="-90" font-family="Helvetica,sans-Serif" font-size="10.00">dnf_composer::tools</text>
<text text-anchor="middle" x="264" y="-79" font-family="Helvetica,sans-Serif" font-size="10.00">::math::conv_same</text>
</a>
</g>
</g>
<!-- Node2 -->
<g id="Node000002" class="node">
<title>Node2</title>
<g id="a_Node000002"><a xlink:href="classdnf__composer_1_1element_1_1AsymmetricGaussKernel.html#afa45a45ca8acb0432937de3b1563ba82" target="_top" xlink:title="Advance the element by one time step.">
<polygon fill="white" stroke="#666666" points="170,-174 0,-174 0,-144 170,-144 170,-174"/>
<text text-anchor="start" x="8" y="-162" font-family="Helvetica,sans-Serif" font-size="10.00">dnf_composer::element</text>
<text text-anchor="middle" x="85" y="-151" font-family="Helvetica,sans-Serif" font-size="10.00">::AsymmetricGaussKernel::step</text>
</a>
</g>
</g>
<!-- Node1&#45;&gt;Node2 -->
<g id="edge1_Node000001_Node000002" class="edge">
<title>Node1&#45;&gt;Node2</title>
<g id="a_edge1_Node000001_Node000002"><a xlink:title=" ">
<path fill="none" stroke="#63b8ff" d="M228.12,-107.09C210.99,-116.42 189.81,-127.15 170,-135 161.82,-138.24 153.04,-141.25 144.34,-143.95"/>
<polygon fill="#63b8ff" stroke="#63b8ff" points="230.13,-109.98 237.19,-102.08 226.75,-103.85 230.13,-109.98"/>
</a>
</g>
</g>
<!-- Node3 -->
<g id="Node000003" class="node">
<title>Node3</title>
<g id="a_Node000003"><a xlink:href="classdnf__composer_1_1element_1_1GaussKernel.html#a5fd228b67854d1c571f272756c67389a" target="_top" xlink:title="Advance the element by one time step.">
<polygon fill="white" stroke="#666666" points="151,-126 19,-126 19,-96 151,-96 151,-126"/>
<text text-anchor="start" x="27" y="-114" font-family="Helvetica,sans-Serif" font-size="10.00">dnf_composer::element</text>
<text text-anchor="middle" x="85" y="-103" font-family="Helvetica,sans-Serif" font-size="10.00">::GaussKernel::step</text>
</a>
</g>
</g>
<!-- Node1&#45;&gt;Node3 -->
<g id="edge2_Node000001_Node000003" class="edge">
<title>Node1&#45;&gt;Node3</title>
<g id="a_edge2_Node000001_Node000003"><a xlink:title=" ">
<path fill="none" stroke="#63b8ff" d="M195.6,-96.14C181.02,-98.12 165.64,-100.2 151.16,-102.16"/>
<polygon fill="#63b8ff" stroke="#63b8ff" points="196.09,-99.6 205.53,-94.79 195.15,-92.67 196.09,-99.6"/>
</a>
</g>
</g>
<!-- Node4 -->
<g id="Node000004" class="node">
<title>Node4</title>
<g id="a_Node000004"><a xlink:href="classdnf__composer_1_1element_1_1MexicanHatKernel.html#ac18abde56a67c7c1c127d38065d6f316" target="_top" xlink:title="Advance the element by one time step.">
<polygon fill="white" stroke="#666666" points="154.5,-78 15.5,-78 15.5,-48 154.5,-48 154.5,-78"/>
<text text-anchor="start" x="23.5" y="-66" font-family="Helvetica,sans-Serif" font-size="10.00">dnf_composer::element</text>
<text text-anchor="middle" x="85" y="-55" font-family="Helvetica,sans-Serif" font-size="10.00">::MexicanHatKernel::step</text>
</a>
</g>
</g>
<!-- Node1&#45;&gt;Node4 -->
<g id="edge3_Node000001_Node000004" class="edge">
<title>Node1&#45;&gt;Node4</title>
<g id="a_edge3_Node000001_Node000004"><a xlink:title=" ">
<path fill="none" stroke="#63b8ff" d="M195.45,-77.84C182.07,-76.03 168.01,-74.12 154.59,-72.3"/>
<polygon fill="#63b8ff" stroke="#63b8ff" points="195.15,-81.33 205.53,-79.21 196.09,-74.4 195.15,-81.33"/>
</a>
</g>
</g>
<!-- Node5 -->
<g id="Node000005" class="node">
<title>Node5</title>
<g id="a_Node000005"><a xlink:href="classdnf__composer_1_1element_1_1OscillatoryKernel.html#ab95458cda2baab4cbaf0e010e2cb86a8" target="_top" xlink:title="Advance the element by one time step.">
<polygon fill="white" stroke="#666666" points="151.5,-30 18.5,-30 18.5,0 151.5,0 151.5,-30"/>
<text text-anchor="start" x="26.5" y="-18" font-family="Helvetica,sans-Serif" font-size="10.00">dnf_composer::element</text>
<text text-anchor="middle" x="85" y="-7" font-family="Helvetica,sans-Serif" font-size="10.00">::OscillatoryKernel::step</text>
</a>
</g>
</g>
<!-- Node1&#45;&gt;Node5 -->
<g id="edge4_Node000001_Node000005" class="edge">
<title>Node1&#45;&gt;Node5</title>
<g id="a_edge4_Node000001_Node000005"><a xlink:title=" ">
<path fill="none" stroke="#63b8ff" d="M228.12,-66.91C210.99,-57.58 189.81,-46.85 170,-39 161.82,-35.76 153.04,-32.75 144.34,-30.05"/>
<polygon fill="#63b8ff" stroke="#63b8ff" points="226.75,-70.15 237.19,-71.92 230.13,-64.02 226.75,-70.15"/>
</a>
</g>
</g>
</g>
</svg>
