<?xml version="1.0" encoding="UTF-8" standalone="no"?>
<!DOCTYPE svg PUBLIC "-//W3C//DTD SVG 1.1//EN"
 "http://www.w3.org/Graphics/SVG/1.1/DTD/svg11.dtd">
<!-- Generated by graphviz version 2.43.0 (0)
 -->
<!-- Title: dnf_composer::user_interface::widgets::renderHelpMarker Pages: 1 -->
<svg width="521pt" height="285pt"
 viewBox="0.00 0.00 521.00 285.00" xmlns="http://www.w3.org/2000/svg" xmlns:xlink="http://www.w3.org/1999/xlink">
<g id="graph0" class="graph" transform="scale(1 1) rotate(0) translate(4 281)">
<title>dnf_composer::user_interface::widgets::renderHelpMarker</title>
<!-- Node1 -->
<g id="Node000001" class="node">
<title>Node1</title>
<g id="a_Node000001"><a xlink:title=" ">
<polygon fill="#999999" stroke="#666666" points="513,-159 400,-159 400,-118 513,-118 513,-159"/>
<text text-anchor="start" x="408" y="-147" font-family="Helvetica,sans-Serif" font-size="10.00">dnf_composer::user</text>
<text text-anchor="start" x="408" y="-136" font-family="Helvetica,sans-Serif" font-size="10.00">_interface::widgets</text>
<text text-anchor="middle" x="456.5" y="-125" font-family="Helvetica,sans-Serif" font-size="10.00">::renderHelpMarker</text>
</a>
</g>
</g>
<!-- Node2 -->
<g id="Node000002" class="node">
<title>Node2</title>
<g id="a_Node000002"><a xlink:href="classdnf__composer_1_1user__interface_1_1NodeGraphWindow.html#a45cdf9b9314dafc5e31ee9981195ff06" target="_top" xlink:title=" ">
<polygon fill="white" stroke="#666666" points="364,-277 199,-277 199,-236 364,-236 364,-277"/>
<text text-anchor="start" x="207" y="-265" font-family="Helvetica,sans-Serif" font-size="10.00">dnf_composer::user</text>
<text text-anchor="start" x="207" y="-254" font-family="Helvetica,sans-Serif" font-size="10.00">_interface::NodeGraphWindow</text>
<text text-anchor="middle" x="281.5" y="-243" font-family="Helvetica,sans-Serif" font-size="10.00">::render</text>
</a>
</g>
</g>
<!-- Node1&#45;&gt;Node2 -->
<g id="edge1_Node000001_Node000002" class="edge">
<title>Node1&#45;&gt;Node2</title>
<g id="a_edge1_Node000001_Node000002"><a xlink:title=" ">
<path fill="none" stroke="#63b8ff" d="M432.3,-166.77C415.15,-186.12 390.29,-211.14 364,-227.5 359.03,-230.59 353.68,-233.42 348.18,-235.99"/>
<polygon fill="#63b8ff" stroke="#63b8ff" points="435.01,-168.98 438.93,-159.13 429.73,-164.39 435.01,-168.98"/>
</a>
</g>
</g>
<!-- Node3 -->
<g id="Node000003" class="node">
<title>Node3</title>
<g id="a_Node000003"><a xlink:href="classdnf__composer_1_1user__interface_1_1SimulationWindow.html#affb52c7f20aea6a3f5b1c62285bf6438" target="_top" xlink:title=" ">
<polygon fill="white" stroke="#666666" points="363,-159 200,-159 200,-118 363,-118 363,-159"/>
<text text-anchor="start" x="208" y="-147" font-family="Helvetica,sans-Serif" font-size="10.00">dnf_composer::user</text>
<text text-anchor="start" x="208" y="-136" font-family="Helvetica,sans-Serif" font-size="10.00">_interface::SimulationWindow</text>
<text text-anchor="middle" x="281.5" y="-125" font-family="Helvetica,sans-Serif" font-size="10.00">::renderAddElementCard</text>
</a>
</g>
</g>
<!-- Node1&#45;&gt;Node3 -->
<g id="edge2_Node000001_Node000003" class="edge">
<title>Node1&#45;&gt;Node3</title>
<g id="a_edge2_Node000001_Node000003"><a xlink:title=" ">
<path fill="none" stroke="#63b8ff" d="M389.79,-138.5C381.13,-138.5 372.16,-138.5 363.28,-138.5"/>
<polygon fill="#63b8ff" stroke="#63b8ff" points="389.81,-142 399.81,-138.5 389.81,-135 389.81,-142"/>
</a>
</g>
</g>
<!-- Node5 -->
<g id="Node000005" class="node">
<title>Node5</title>
<g id="a_Node000005"><a xlink:href="classdnf__composer_1_1user__interface_1_1ElementWindow.html#a7a9a4725216b2715382e35468362857a" target="_top" xlink:title=" ">
<polygon fill="white" stroke="#666666" points="357.5,-218 205.5,-218 205.5,-177 357.5,-177 357.5,-218"/>
<text text-anchor="start" x="213.5" y="-206" font-family="Helvetica,sans-Serif" font-size="10.00">dnf_composer::user</text>
<text text-anchor="start" x="213.5" y="-195" font-family="Helvetica,sans-Serif" font-size="10.00">_interface::ElementWindow</text>
<text text-anchor="middle" x="281.5" y="-184" font-family="Helvetica,sans-Serif" font-size="10.00">::renderElementControlCard</text>
</a>
</g>
</g>
<!-- Node1&#45;&gt;Node5 -->
<g id="edge4_Node000001_Node000005" class="edge">
<title>Node1&#45;&gt;Node5</title>
<g id="a_edge4_Node000001_Node000005"><a xlink:title=" ">
<path fill="none" stroke="#63b8ff" d="M390.27,-160.75C374.72,-166.05 358.19,-171.69 342.87,-176.91"/>
<polygon fill="#63b8ff" stroke="#63b8ff" points="391.47,-164.03 399.81,-157.49 389.21,-157.41 391.47,-164.03"/>
</a>
</g>
</g>
<!-- Node7 -->
<g id="Node000007" class="node">
<title>Node7</title>
<g id="a_Node000007"><a xlink:href="classdnf__composer_1_1user__interface_1_1NodeGraphWindow.html#a86c56d88b93dc06139a59a56f300d1f0" target="_top" xlink:title=" ">
<polygon fill="white" stroke="#666666" points="364,-100 199,-100 199,-59 364,-59 364,-100"/>
<text text-anchor="start" x="207" y="-88" font-family="Helvetica,sans-Serif" font-size="10.00">dnf_composer::user</text>
<text text-anchor="start" x="207" y="-77" font-family="Helvetica,sans-Serif" font-size="10.00">_interface::NodeGraphWindow</text>
<text text-anchor="middle" x="281.5" y="-66" font-family="Helvetica,sans-Serif" font-size="10.00">::renderGraph</text>
</a>
</g>
</g>
<!-- Node1&#45;&gt;Node7 -->
<g id="edge6_Node000001_Node000007" class="edge">
<title>Node1&#45;&gt;Node7</title>
<g id="a_edge6_Node000001_Node000007"><a xlink:title=" ">
<path fill="none" stroke="#63b8ff" d="M390.27,-116.25C374.72,-110.95 358.19,-105.31 342.87,-100.09"/>
<polygon fill="#63b8ff" stroke="#63b8ff" points="389.21,-119.59 399.81,-119.51 391.47,-112.97 389.21,-119.59"/>
</a>
</g>
</g>
<!-- Node8 -->
<g id="Node000008" class="node">
<title>Node8</title>
<g id="a_Node000008"><a xlink:href="classdnf__composer_1_1user__interface_1_1SimulationWindow.html#a1752634b611833df6dc90fe09952eaef" target="_top" xlink:title=" ">
<polygon fill="white" stroke="#666666" points="363,-41 200,-41 200,0 363,0 363,-41"/>
<text text-anchor="start" x="208" y="-29" font-family="Helvetica,sans-Serif" font-size="10.00">dnf_composer::user</text>
<text text-anchor="start" x="208" y="-18" font-family="Helvetica,sans-Serif" font-size="10.00">_interface::SimulationWindow</text>
<text text-anchor="middle" x="281.5" y="-7" font-family="Helvetica,sans-Serif" font-size="10.00">::renderSetInteractionCard</text>
</a>
</g>
</g>
<!-- Node1&#45;&gt;Node8 -->
<g id="edge7_Node000001_Node000008" class="edge">
<title>Node1&#45;&gt;Node8</title>
<g id="a_edge7_Node000001_Node000008"><a xlink:title=" ">
<path fill="none" stroke="#63b8ff" d="M432.3,-110.23C415.15,-90.88 390.29,-65.86 364,-49.5 359.03,-46.41 353.68,-43.58 348.18,-41.01"/>
<polygon fill="#63b8ff" stroke="#63b8ff" points="429.73,-112.61 438.93,-117.87 435.01,-108.02 429.73,-112.61"/>
</a>
</g>
</g>
<!-- Node4 -->
<g id="Node000004" class="node">
<title>Node4</title>
<g id="a_Node000004"><a xlink:href="classdnf__composer_1_1user__interface_1_1SimulationWindow.html#ac0c5ebab9dd16f951c2c231a8e1f6f34" target="_top" xlink:title=" ">
<polygon fill="white" stroke="#666666" points="163,-100 0,-100 0,-59 163,-59 163,-100"/>
<text text-anchor="start" x="8" y="-88" font-family="Helvetica,sans-Serif" font-size="10.00">dnf_composer::user</text>
<text text-anchor="start" x="8" y="-77" font-family="Helvetica,sans-Serif" font-size="10.00">_interface::SimulationWindow</text>
<text text-anchor="middle" x="81.5" y="-66" font-family="Helvetica,sans-Serif" font-size="10.00">::render</text>
</a>
</g>
</g>
<!-- Node3&#45;&gt;Node4 -->
<g id="edge3_Node000003_Node000004" class="edge">
<title>Node3&#45;&gt;Node4</title>
<g id="a_edge3_Node000003_Node000004"><a xlink:title=" ">
<path fill="none" stroke="#63b8ff" d="M201.85,-115.06C185.22,-110.11 167.8,-104.92 151.56,-100.08"/>
<polygon fill="#63b8ff" stroke="#63b8ff" points="200.94,-118.45 211.53,-117.95 202.94,-111.74 200.94,-118.45"/>
</a>
</g>
</g>
<!-- Node6 -->
<g id="Node000006" class="node">
<title>Node6</title>
<g id="a_Node000006"><a xlink:href="classdnf__composer_1_1user__interface_1_1ElementWindow.html#a887f3bb041e6b782122c3e7638833cf5" target="_top" xlink:title=" ">
<polygon fill="white" stroke="#666666" points="157,-218 6,-218 6,-177 157,-177 157,-218"/>
<text text-anchor="start" x="14" y="-206" font-family="Helvetica,sans-Serif" font-size="10.00">dnf_composer::user</text>
<text text-anchor="start" x="14" y="-195" font-family="Helvetica,sans-Serif" font-size="10.00">_interface::ElementWindow</text>
<text text-anchor="middle" x="81.5" y="-184" font-family="Helvetica,sans-Serif" font-size="10.00">::render</text>
</a>
</g>
</g>
<!-- Node5&#45;&gt;Node6 -->
<g id="edge5_Node000005_Node000006" class="edge">
<title>Node5&#45;&gt;Node6</title>
<g id="a_edge5_Node000005_Node000006"><a xlink:title=" ">
<path fill="none" stroke="#63b8ff" d="M195.3,-197.5C182.64,-197.5 169.68,-197.5 157.26,-197.5"/>
<polygon fill="#63b8ff" stroke="#63b8ff" points="195.36,-201 205.36,-197.5 195.36,-194 195.36,-201"/>
</a>
</g>
</g>
<!-- Node8&#45;&gt;Node4 -->
<g id="edge8_Node000008_Node000004" class="edge">
<title>Node8&#45;&gt;Node4</title>
<g id="a_edge8_Node000008_Node000004"><a xlink:title=" ">
<path fill="none" stroke="#63b8ff" d="M201.85,-43.94C185.22,-48.89 167.8,-54.08 151.56,-58.92"/>
<polygon fill="#63b8ff" stroke="#63b8ff" points="202.94,-47.26 211.53,-41.05 200.94,-40.55 202.94,-47.26"/>
</a>
</g>
</g>
</g>
</svg>
