<?xml version="1.0" encoding="UTF-8" standalone="no"?>
<!DOCTYPE svg PUBLIC "-//W3C//DTD SVG 1.1//EN"
 "http://www.w3.org/Graphics/SVG/1.1/DTD/svg11.dtd">
<!-- Generated by graphviz version 2.43.0 (0)
 -->
<!-- Title: dnf_composer::tools::math::circularGauss Pages: 1 -->
<svg width="520pt" height="98pt"
 viewBox="0.00 0.00 520.00 97.50" xmlns="http://www.w3.org/2000/svg" xmlns:xlink="http://www.w3.org/1999/xlink">
<g id="graph0" class="graph" transform="scale(1 1) rotate(0) translate(4 93.5)">
<title>dnf_composer::tools::math::circularGauss</title>
<!-- Node1 -->
<g id="Node000001" class="node">
<title>Node1</title>
<g id="a_Node000001"><a xlink:title=" ">
<polygon fill="#999999" stroke="#666666" points="512,-62.5 392,-62.5 392,-32.5 512,-32.5 512,-62.5"/>
<text text-anchor="start" x="400" y="-50.5" font-family="Helvetica,sans-Serif" font-size="10.00">dnf_composer::tools</text>
<text text-anchor="middle" x="452" y="-39.5" font-family="Helvetica,sans-Serif" font-size="10.00">::math::circularGauss</text>
</a>
</g>
</g>
<!-- Node2 -->
<g id="Node000002" class="node">
<title>Node2</title>
<g id="a_Node000002"><a xlink:href="classdnf__composer_1_1element_1_1GaussStimulus.html#a3677ed68684c7cd362e7e54f42fafb06" target="_top" xlink:title="Initialize the element (called once before the simulation loop).">
<polygon fill="white" stroke="#666666" points="348,-87.5 216,-87.5 216,-57.5 348,-57.5 348,-87.5"/>
<text text-anchor="start" x="224" y="-75.5" font-family="Helvetica,sans-Serif" font-size="10.00">dnf_composer::element</text>
<text text-anchor="middle" x="282" y="-64.5" font-family="Helvetica,sans-Serif" font-size="10.00">::GaussStimulus::init</text>
</a>
</g>
</g>
<!-- Node1&#45;&gt;Node2 -->
<g id="edge1_Node000001_Node000002" class="edge">
<title>Node1&#45;&gt;Node2</title>
<g id="a_edge1_Node000001_Node000002"><a xlink:title=" ">
<path fill="none" stroke="#63b8ff" d="M381.73,-57.81C370.66,-59.46 359.24,-61.15 348.27,-62.79"/>
<polygon fill="#63b8ff" stroke="#63b8ff" points="382.39,-61.25 391.77,-56.31 381.36,-54.32 382.39,-61.25"/>
</a>
</g>
</g>
<!-- Node4 -->
<g id="Node000004" class="node">
<title>Node4</title>
<g id="a_Node000004"><a xlink:href="classdnf__composer_1_1element_1_1TimedGaussStimulus.html#a7cb7acb2e4c8ece790553cb21d4c33dd" target="_top" xlink:title="Initialize the element (called once before the simulation loop).">
<polygon fill="white" stroke="#666666" points="356,-38.5 208,-38.5 208,-8.5 356,-8.5 356,-38.5"/>
<text text-anchor="start" x="216" y="-26.5" font-family="Helvetica,sans-Serif" font-size="10.00">dnf_composer::element</text>
<text text-anchor="middle" x="282" y="-15.5" font-family="Helvetica,sans-Serif" font-size="10.00">::TimedGaussStimulus::init</text>
</a>
</g>
</g>
<!-- Node1&#45;&gt;Node4 -->
<g id="edge3_Node000001_Node000004" class="edge">
<title>Node1&#45;&gt;Node4</title>
<g id="a_edge3_Node000001_Node000004"><a xlink:title=" ">
<path fill="none" stroke="#63b8ff" d="M381.63,-37.59C373.21,-36.39 364.59,-35.16 356.12,-33.95"/>
<polygon fill="#63b8ff" stroke="#63b8ff" points="381.37,-41.09 391.77,-39.04 382.36,-34.16 381.37,-41.09"/>
</a>
</g>
</g>
<!-- Node3 -->
<g id="Node000003" class="node">
<title>Node3</title>
<g id="a_Node000003"><a xlink:href="classdnf__composer_1_1element_1_1GaussStimulus.html#af05b6b8c812a9db74fd719824bfdfaca" target="_top" xlink:title=" ">
<polygon fill="white" stroke="#666666" points="172,-89.5 0,-89.5 0,-59.5 172,-59.5 172,-89.5"/>
<text text-anchor="start" x="8" y="-77.5" font-family="Helvetica,sans-Serif" font-size="10.00">dnf_composer::element</text>
<text text-anchor="middle" x="86" y="-66.5" font-family="Helvetica,sans-Serif" font-size="10.00">::GaussStimulus::setParameters</text>
</a>
</g>
</g>
<!-- Node2&#45;&gt;Node3 -->
<g id="edge2_Node000002_Node000003" class="edge">
<title>Node2&#45;&gt;Node3</title>
<g id="a_edge2_Node000002_Node000003"><a xlink:title=" ">
<path fill="none" stroke="#63b8ff" d="M205.55,-73.28C194.65,-73.39 183.37,-73.51 172.3,-73.62"/>
<polygon fill="#63b8ff" stroke="#63b8ff" points="205.9,-76.77 215.86,-73.17 205.83,-69.77 205.9,-76.77"/>
</a>
</g>
</g>
<!-- Node5 -->
<g id="Node000005" class="node">
<title>Node5</title>
<g id="a_Node000005"><a xlink:href="classdnf__composer_1_1element_1_1TimedGaussStimulus.html#ad3728cf451116c584642eee5ee422cd3" target="_top" xlink:title=" ">
<polygon fill="white" stroke="#666666" points="152,-41 20,-41 20,0 152,0 152,-41"/>
<text text-anchor="start" x="28" y="-29" font-family="Helvetica,sans-Serif" font-size="10.00">dnf_composer::element</text>
<text text-anchor="start" x="28" y="-18" font-family="Helvetica,sans-Serif" font-size="10.00">::TimedGaussStimulus</text>
<text text-anchor="middle" x="86" y="-7" font-family="Helvetica,sans-Serif" font-size="10.00">::setParameters</text>
</a>
</g>
</g>
<!-- Node4&#45;&gt;Node5 -->
<g id="edge4_Node000004_Node000005" class="edge">
<title>Node4&#45;&gt;Node5</title>
<g id="a_edge4_Node000004_Node000005"><a xlink:title=" ">
<path fill="none" stroke="#63b8ff" d="M197.93,-22.22C182.58,-21.98 166.75,-21.73 152.03,-21.51"/>
<polygon fill="#63b8ff" stroke="#63b8ff" points="197.88,-25.71 207.93,-22.37 197.99,-18.72 197.88,-25.71"/>
</a>
</g>
</g>
</g>
</svg>
