<?xml version="1.0" encoding="UTF-8" standalone="no"?>
<!DOCTYPE svg PUBLIC "-//W3C//DTD SVG 1.1//EN"
 "http://www.w3.org/Graphics/SVG/1.1/DTD/svg11.dtd">
<!-- Generated by graphviz version 2.43.0 (0)
 -->
<!-- Title: dnf_composer::tools::math::gaussNorm Pages: 1 -->
<svg width="548pt" height="146pt"
 viewBox="0.00 0.00 548.00 145.50" xmlns="http://www.w3.org/2000/svg" xmlns:xlink="http://www.w3.org/1999/xlink">
<g id="graph0" class="graph" transform="scale(1 1) rotate(0) translate(4 141.5)">
<title>dnf_composer::tools::math::gaussNorm</title>
<!-- Node1 -->
<g id="Node000001" class="node">
<title>Node1</title>
<g id="a_Node000001"><a xlink:title=" ">
<polygon fill="#999999" stroke="#666666" points="540,-78 424,-78 424,-48 540,-48 540,-78"/>
<text text-anchor="start" x="432" y="-66" font-family="Helvetica,sans-Serif" font-size="10.00">dnf_composer::tools</text>
<text text-anchor="middle" x="482" y="-55" font-family="Helvetica,sans-Serif" font-size="10.00">::math::gaussNorm</text>
</a>
</g>
</g>
<!-- Node2 -->
<g id="Node000002" class="node">
<title>Node2</title>
<g id="a_Node000002"><a xlink:href="classdnf__composer_1_1element_1_1AsymmetricGaussKernel.html#a96e938df35bc5c5b9944201750e5ff83" target="_top" xlink:title="Initialize the element (called once before the simulation loop).">
<polygon fill="white" stroke="#666666" points="388,-129 224,-129 224,-99 388,-99 388,-129"/>
<text text-anchor="start" x="232" y="-117" font-family="Helvetica,sans-Serif" font-size="10.00">dnf_composer::element</text>
<text text-anchor="middle" x="306" y="-106" font-family="Helvetica,sans-Serif" font-size="10.00">::AsymmetricGaussKernel::init</text>
</a>
</g>
</g>
<!-- Node1&#45;&gt;Node2 -->
<g id="edge1_Node000001_Node000002" class="edge">
<title>Node1&#45;&gt;Node2</title>
<g id="a_edge1_Node000001_Node000002"><a xlink:title=" ">
<path fill="none" stroke="#63b8ff" d="M420.01,-80.88C399.82,-86.79 377.58,-93.31 358.2,-98.99"/>
<polygon fill="#63b8ff" stroke="#63b8ff" points="421.12,-84.2 429.74,-78.03 419.15,-77.48 421.12,-84.2"/>
</a>
</g>
</g>
<!-- Node4 -->
<g id="Node000004" class="node">
<title>Node4</title>
<g id="a_Node000004"><a xlink:href="classdnf__composer_1_1element_1_1GaussKernel.html#a287d7d8ff2d471d38fc915b73c0422bd" target="_top" xlink:title="Initialize the element (called once before the simulation loop).">
<polygon fill="white" stroke="#666666" points="372,-78 240,-78 240,-48 372,-48 372,-78"/>
<text text-anchor="start" x="248" y="-66" font-family="Helvetica,sans-Serif" font-size="10.00">dnf_composer::element</text>
<text text-anchor="middle" x="306" y="-55" font-family="Helvetica,sans-Serif" font-size="10.00">::GaussKernel::init</text>
</a>
</g>
</g>
<!-- Node1&#45;&gt;Node4 -->
<g id="edge3_Node000001_Node000004" class="edge">
<title>Node1&#45;&gt;Node4</title>
<g id="a_edge3_Node000001_Node000004"><a xlink:title=" ">
<path fill="none" stroke="#63b8ff" d="M413.36,-63C399.84,-63 385.66,-63 372.22,-63"/>
<polygon fill="#63b8ff" stroke="#63b8ff" points="413.54,-66.5 423.54,-63 413.54,-59.5 413.54,-66.5"/>
</a>
</g>
</g>
<!-- Node6 -->
<g id="Node000006" class="node">
<title>Node6</title>
<g id="a_Node000006"><a xlink:href="classdnf__composer_1_1element_1_1MexicanHatKernel.html#ad80d75e45cea14a7d222559ae88d0c48" target="_top" xlink:title="Initialize the element (called once before the simulation loop).">
<polygon fill="white" stroke="#666666" points="373,-30 239,-30 239,0 373,0 373,-30"/>
<text text-anchor="start" x="247" y="-18" font-family="Helvetica,sans-Serif" font-size="10.00">dnf_composer::element</text>
<text text-anchor="middle" x="306" y="-7" font-family="Helvetica,sans-Serif" font-size="10.00">::MexicanHatKernel::init</text>
</a>
</g>
</g>
<!-- Node1&#45;&gt;Node6 -->
<g id="edge5_Node000001_Node000006" class="edge">
<title>Node1&#45;&gt;Node6</title>
<g id="a_edge5_Node000001_Node000006"><a xlink:title=" ">
<path fill="none" stroke="#63b8ff" d="M416.77,-45.28C398.57,-40.26 378.94,-34.85 361.38,-30"/>
<polygon fill="#63b8ff" stroke="#63b8ff" points="415.85,-48.66 426.42,-47.94 417.71,-41.91 415.85,-48.66"/>
</a>
</g>
</g>
<!-- Node3 -->
<g id="Node000003" class="node">
<title>Node3</title>
<g id="a_Node000003"><a xlink:href="classdnf__composer_1_1element_1_1AsymmetricGaussKernel.html#aa692c282d0b5b78e54d15664166a06eb" target="_top" xlink:title=" ">
<polygon fill="white" stroke="#666666" points="165.5,-137.5 22.5,-137.5 22.5,-96.5 165.5,-96.5 165.5,-137.5"/>
<text text-anchor="start" x="30.5" y="-125.5" font-family="Helvetica,sans-Serif" font-size="10.00">dnf_composer::element</text>
<text text-anchor="start" x="30.5" y="-114.5" font-family="Helvetica,sans-Serif" font-size="10.00">::AsymmetricGaussKernel</text>
<text text-anchor="middle" x="94" y="-103.5" font-family="Helvetica,sans-Serif" font-size="10.00">::setParameters</text>
</a>
</g>
</g>
<!-- Node2&#45;&gt;Node3 -->
<g id="edge2_Node000002_Node000003" class="edge">
<title>Node2&#45;&gt;Node3</title>
<g id="a_edge2_Node000002_Node000003"><a xlink:title=" ">
<path fill="none" stroke="#63b8ff" d="M213.39,-115.31C197.41,-115.54 181.02,-115.77 165.72,-115.99"/>
<polygon fill="#63b8ff" stroke="#63b8ff" points="213.86,-118.8 223.81,-115.16 213.76,-111.8 213.86,-118.8"/>
</a>
</g>
</g>
<!-- Node5 -->
<g id="Node000005" class="node">
<title>Node5</title>
<g id="a_Node000005"><a xlink:href="classdnf__composer_1_1element_1_1GaussKernel.html#a36639a54ade8b0154ed3419f2b0e1650" target="_top" xlink:title=" ">
<polygon fill="white" stroke="#666666" points="174,-78 14,-78 14,-48 174,-48 174,-78"/>
<text text-anchor="start" x="22" y="-66" font-family="Helvetica,sans-Serif" font-size="10.00">dnf_composer::element</text>
<text text-anchor="middle" x="94" y="-55" font-family="Helvetica,sans-Serif" font-size="10.00">::GaussKernel::setParameters</text>
</a>
</g>
</g>
<!-- Node4&#45;&gt;Node5 -->
<g id="edge4_Node000004_Node000005" class="edge">
<title>Node4&#45;&gt;Node5</title>
<g id="a_edge4_Node000004_Node000005"><a xlink:title=" ">
<path fill="none" stroke="#63b8ff" d="M229.81,-63C211.73,-63 192.36,-63 174.11,-63"/>
<polygon fill="#63b8ff" stroke="#63b8ff" points="229.99,-66.5 239.99,-63 229.99,-59.5 229.99,-66.5"/>
</a>
</g>
</g>
<!-- Node7 -->
<g id="Node000007" class="node">
<title>Node7</title>
<g id="a_Node000007"><a xlink:href="classdnf__composer_1_1element_1_1MexicanHatKernel.html#a4aa49909a155682d613a1f6284c90601" target="_top" xlink:title=" ">
<polygon fill="white" stroke="#666666" points="188,-30 0,-30 0,0 188,0 188,-30"/>
<text text-anchor="start" x="8" y="-18" font-family="Helvetica,sans-Serif" font-size="10.00">dnf_composer::element</text>
<text text-anchor="middle" x="94" y="-7" font-family="Helvetica,sans-Serif" font-size="10.00">::MexicanHatKernel::setParameters</text>
</a>
</g>
</g>
<!-- Node6&#45;&gt;Node7 -->
<g id="edge6_Node000006_Node000007" class="edge">
<title>Node6&#45;&gt;Node7</title>
<g id="a_edge6_Node000006_Node000007"><a xlink:title=" ">
<path fill="none" stroke="#63b8ff" d="M228.48,-15C215.36,-15 201.59,-15 188.1,-15"/>
<polygon fill="#63b8ff" stroke="#63b8ff" points="228.84,-18.5 238.84,-15 228.84,-11.5 228.84,-18.5"/>
</a>
</g>
</g>
</g>
</svg>
