<?xml version="1.0" encoding="UTF-8" standalone="no"?>
<!DOCTYPE svg PUBLIC "-//W3C//DTD SVG 1.1//EN"
 "http://www.w3.org/Graphics/SVG/1.1/DTD/svg11.dtd">
<!-- Generated by graphviz version 2.43.0 (0)
 -->
<!-- Title: dnf_composer::tools::utils::getResourceRoot Pages: 1 -->
<svg width="372pt" height="134pt"
 viewBox="0.00 0.00 372.00 134.00" xmlns="http://www.w3.org/2000/svg" xmlns:xlink="http://www.w3.org/1999/xlink">
<g id="graph0" class="graph" transform="scale(1 1) rotate(0) translate(4 130)">
<title>dnf_composer::tools::utils::getResourceRoot</title>
<!-- Node1 -->
<g id="Node000001" class="node">
<title>Node1</title>
<g id="a_Node000001"><a xlink:title=" ">
<polygon fill="#999999" stroke="#666666" points="364,-78 231,-78 231,-48 364,-48 364,-78"/>
<text text-anchor="start" x="239" y="-66" font-family="Helvetica,sans-Serif" font-size="10.00">dnf_composer::tools</text>
<text text-anchor="middle" x="297.5" y="-55" font-family="Helvetica,sans-Serif" font-size="10.00">::utils::getResourceRoot</text>
</a>
</g>
</g>
<!-- Node2 -->
<g id="Node000002" class="node">
<title>Node2</title>
<g id="a_Node000002"><a xlink:href="classdnf__composer_1_1Simulation.html#ab793cd0a18d45717e78440e4eada4dc2" target="_top" xlink:title="Write the named component to a CSV file in the output directory.">
<polygon fill="white" stroke="#666666" points="169.5,-126 25.5,-126 25.5,-96 169.5,-96 169.5,-126"/>
<text text-anchor="start" x="33.5" y="-114" font-family="Helvetica,sans-Serif" font-size="10.00">dnf_composer::Simulation</text>
<text text-anchor="middle" x="97.5" y="-103" font-family="Helvetica,sans-Serif" font-size="10.00">::exportComponentToFile</text>
</a>
</g>
</g>
<!-- Node1&#45;&gt;Node2 -->
<g id="edge1_Node000001_Node000002" class="edge">
<title>Node1&#45;&gt;Node2</title>
<g id="a_edge1_Node000001_Node000002"><a xlink:title=" ">
<path fill="none" stroke="#63b8ff" d="M224.55,-80.44C203.52,-85.54 180.73,-91.07 160.38,-96"/>
<polygon fill="#63b8ff" stroke="#63b8ff" points="225.5,-83.81 234.39,-78.06 223.85,-77.01 225.5,-83.81"/>
</a>
</g>
</g>
<!-- Node3 -->
<g id="Node000003" class="node">
<title>Node3</title>
<g id="a_Node000003"><a xlink:href="classdnf__composer_1_1element_1_1FieldCoupling.html#a7af578f4c654acfce33920528d239c7d" target="_top" xlink:title="Construct a FieldCoupling.">
<polygon fill="white" stroke="#666666" points="178,-78 17,-78 17,-48 178,-48 178,-78"/>
<text text-anchor="start" x="25" y="-66" font-family="Helvetica,sans-Serif" font-size="10.00">dnf_composer::element</text>
<text text-anchor="middle" x="97.5" y="-55" font-family="Helvetica,sans-Serif" font-size="10.00">::FieldCoupling::FieldCoupling</text>
</a>
</g>
</g>
<!-- Node1&#45;&gt;Node3 -->
<g id="edge2_Node000001_Node000003" class="edge">
<title>Node1&#45;&gt;Node3</title>
<g id="a_edge2_Node000001_Node000003"><a xlink:title=" ">
<path fill="none" stroke="#63b8ff" d="M220.8,-63C206.82,-63 192.19,-63 178.1,-63"/>
<polygon fill="#63b8ff" stroke="#63b8ff" points="220.84,-66.5 230.84,-63 220.84,-59.5 220.84,-66.5"/>
</a>
</g>
</g>
<!-- Node4 -->
<g id="Node000004" class="node">
<title>Node4</title>
<g id="a_Node000004"><a xlink:href="classdnf__composer_1_1SimulationFileManager.html#ac3c402cf84127446d2b2aba586bae542" target="_top" xlink:title="Construct a SimulationFileManager.">
<polygon fill="white" stroke="#666666" points="195,-30 0,-30 0,0 195,0 195,-30"/>
<text text-anchor="start" x="8" y="-18" font-family="Helvetica,sans-Serif" font-size="10.00">dnf_composer::Simulation</text>
<text text-anchor="middle" x="97.5" y="-7" font-family="Helvetica,sans-Serif" font-size="10.00">FileManager::SimulationFileManager</text>
</a>
</g>
</g>
<!-- Node1&#45;&gt;Node4 -->
<g id="edge3_Node000001_Node000004" class="edge">
<title>Node1&#45;&gt;Node4</title>
<g id="a_edge3_Node000001_Node000004"><a xlink:title=" ">
<path fill="none" stroke="#63b8ff" d="M224.55,-45.56C203.52,-40.46 180.73,-34.93 160.38,-30"/>
<polygon fill="#63b8ff" stroke="#63b8ff" points="223.85,-48.99 234.39,-47.94 225.5,-42.19 223.85,-48.99"/>
</a>
</g>
</g>
</g>
</svg>
