<?xml version="1.0" encoding="UTF-8" standalone="no"?>
<!DOCTYPE svg PUBLIC "-//W3C//DTD SVG 1.1//EN"
 "http://www.w3.org/Graphics/SVG/1.1/DTD/svg11.dtd">
<!-- Generated by graphviz version 2.43.0 (0)
 -->
<!-- Title: dnf_composer::tools::logger::log Pages: 1 -->
<svg width="525pt" height="559pt"
 viewBox="0.00 0.00 525.00 559.00" xmlns="http://www.w3.org/2000/svg" xmlns:xlink="http://www.w3.org/1999/xlink">
<g id="graph0" class="graph" transform="scale(1 1) rotate(0) translate(4 555)">
<title>dnf_composer::tools::logger::log</title>
<!-- Node1 -->
<g id="Node000001" class="node">
<title>Node1</title>
<g id="a_Node000001"><a xlink:title=" ">
<polygon fill="#999999" stroke="#666666" points="517,-269 401,-269 401,-239 517,-239 517,-269"/>
<text text-anchor="start" x="409" y="-257" font-family="Helvetica,sans-Serif" font-size="10.00">dnf_composer::tools</text>
<text text-anchor="middle" x="459" y="-246" font-family="Helvetica,sans-Serif" font-size="10.00">::logger::log</text>
</a>
</g>
</g>
<!-- Node2 -->
<g id="Node000002" class="node">
<title>Node2</title>
<g id="a_Node000002"><a xlink:href="classdnf__composer_1_1Simulation.html#aa3419352b0706f0ba4c85781b8aa32ae" target="_top" xlink:title="Initialize all registered elements. Must be called before step().">
<polygon fill="white" stroke="#666666" points="355.5,-508 211.5,-508 211.5,-478 355.5,-478 355.5,-508"/>
<text text-anchor="start" x="219.5" y="-496" font-family="Helvetica,sans-Serif" font-size="10.00">dnf_composer::Simulation</text>
<text text-anchor="middle" x="283.5" y="-485" font-family="Helvetica,sans-Serif" font-size="10.00">::init</text>
</a>
</g>
</g>
<!-- Node1&#45;&gt;Node2 -->
<g id="edge1_Node000001_Node000002" class="edge">
<title>Node1&#45;&gt;Node2</title>
<g id="a_edge1_Node000001_Node000002"><a xlink:title=" ">
<path fill="none" stroke="#63b8ff" d="M454.2,-279.05C446.1,-323.81 422.87,-417.61 365,-469 361.18,-472.39 356.91,-475.3 352.36,-477.8"/>
<polygon fill="#63b8ff" stroke="#63b8ff" points="457.68,-279.48 455.91,-269.03 450.78,-278.3 457.68,-279.48"/>
</a>
</g>
</g>
<!-- Node6 -->
<g id="Node000006" class="node">
<title>Node6</title>
<g id="a_Node000006"><a xlink:href="structdnf__composer_1_1element_1_1ElementDimensions.html#a61dc48a63bf6451065883ea37f0228fa" target="_top" xlink:title=" ">
<polygon fill="white" stroke="#666666" points="358,-460 209,-460 209,-430 358,-430 358,-460"/>
<text text-anchor="start" x="217" y="-448" font-family="Helvetica,sans-Serif" font-size="10.00">dnf_composer::element</text>
<text text-anchor="middle" x="283.5" y="-437" font-family="Helvetica,sans-Serif" font-size="10.00">::ElementDimensions::print</text>
</a>
</g>
</g>
<!-- Node1&#45;&gt;Node6 -->
<g id="edge5_Node000001_Node000006" class="edge">
<title>Node1&#45;&gt;Node6</title>
<g id="a_edge5_Node000001_Node000006"><a xlink:title=" ">
<path fill="none" stroke="#63b8ff" d="M450.82,-278.85C438.98,-315.4 411.88,-383.38 365,-421 360.68,-424.47 355.86,-427.44 350.8,-429.97"/>
<polygon fill="#63b8ff" stroke="#63b8ff" points="454.25,-279.59 453.88,-269 447.57,-277.51 454.25,-279.59"/>
</a>
</g>
</g>
<!-- Node7 -->
<g id="Node000007" class="node">
<title>Node7</title>
<g id="a_Node000007"><a xlink:href="structdnf__composer_1_1element_1_1ElementIdentifiers.html#a6c590a127035df69718210304ad9ccb6" target="_top" xlink:title=" ">
<polygon fill="white" stroke="#666666" points="349.5,-411.5 217.5,-411.5 217.5,-370.5 349.5,-370.5 349.5,-411.5"/>
<text text-anchor="start" x="225.5" y="-399.5" font-family="Helvetica,sans-Serif" font-size="10.00">dnf_composer::element</text>
<text text-anchor="start" x="225.5" y="-388.5" font-family="Helvetica,sans-Serif" font-size="10.00">::ElementIdentifiers</text>
<text text-anchor="middle" x="283.5" y="-377.5" font-family="Helvetica,sans-Serif" font-size="10.00">::print</text>
</a>
</g>
</g>
<!-- Node1&#45;&gt;Node7 -->
<g id="edge6_Node000001_Node000007" class="edge">
<title>Node1&#45;&gt;Node7</title>
<g id="a_edge6_Node000001_Node000007"><a xlink:title=" ">
<path fill="none" stroke="#63b8ff" d="M443.03,-277.68C426.59,-301.94 398.07,-339.24 365,-362 360.23,-365.28 355.04,-368.24 349.68,-370.89"/>
<polygon fill="#63b8ff" stroke="#63b8ff" points="446.12,-279.34 448.73,-269.07 440.29,-275.48 446.12,-279.34"/>
</a>
</g>
</g>
<!-- Node8 -->
<g id="Node000008" class="node">
<title>Node8</title>
<g id="a_Node000008"><a xlink:href="structdnf__composer_1_1element_1_1ElementCommonParameters.html#a446472a2d6a83b41ae55e42c024357f3" target="_top" xlink:title=" ">
<polygon fill="white" stroke="#666666" points="365,-352.5 202,-352.5 202,-311.5 365,-311.5 365,-352.5"/>
<text text-anchor="start" x="210" y="-340.5" font-family="Helvetica,sans-Serif" font-size="10.00">dnf_composer::element</text>
<text text-anchor="start" x="210" y="-329.5" font-family="Helvetica,sans-Serif" font-size="10.00">::ElementCommonParameters</text>
<text text-anchor="middle" x="283.5" y="-318.5" font-family="Helvetica,sans-Serif" font-size="10.00">::print</text>
</a>
</g>
</g>
<!-- Node1&#45;&gt;Node8 -->
<g id="edge7_Node000001_Node000008" class="edge">
<title>Node1&#45;&gt;Node8</title>
<g id="a_edge7_Node000001_Node000008"><a xlink:title=" ">
<path fill="none" stroke="#63b8ff" d="M421.72,-274.01C404.73,-283.05 384.07,-293.56 365,-302 357.77,-305.2 350.09,-308.36 342.44,-311.36"/>
<polygon fill="#63b8ff" stroke="#63b8ff" points="423.59,-276.97 430.75,-269.16 420.28,-270.81 423.59,-276.97"/>
</a>
</g>
</g>
<!-- Node9 -->
<g id="Node000009" class="node">
<title>Node9</title>
<g id="a_Node000009"><a xlink:href="structdnf__composer_1_1element_1_1NeuralFieldState.html#a9b0422c8ee94d56d397b290576b493ce" target="_top" xlink:title=" ">
<polygon fill="white" stroke="#666666" points="349.5,-293 217.5,-293 217.5,-263 349.5,-263 349.5,-293"/>
<text text-anchor="start" x="225.5" y="-281" font-family="Helvetica,sans-Serif" font-size="10.00">dnf_composer::element</text>
<text text-anchor="middle" x="283.5" y="-270" font-family="Helvetica,sans-Serif" font-size="10.00">::NeuralFieldState::print</text>
</a>
</g>
</g>
<!-- Node1&#45;&gt;Node9 -->
<g id="edge8_Node000001_Node000009" class="edge">
<title>Node1&#45;&gt;Node9</title>
<g id="a_edge8_Node000001_Node000009"><a xlink:title=" ">
<path fill="none" stroke="#63b8ff" d="M390.55,-263.33C377.07,-265.2 362.93,-267.15 349.53,-269"/>
<polygon fill="#63b8ff" stroke="#63b8ff" points="391.28,-266.76 400.71,-261.93 390.32,-259.83 391.28,-266.76"/>
</a>
</g>
</g>
<!-- Node10 -->
<g id="Node000010" class="node">
<title>Node10</title>
<g id="a_Node000010"><a xlink:href="structdnf__composer_1_1element_1_1SigmoidFunction.html#a646bef07506d8f43bda54004704c7fbc" target="_top" xlink:title=" ">
<polygon fill="white" stroke="#666666" points="349.5,-245 217.5,-245 217.5,-215 349.5,-215 349.5,-245"/>
<text text-anchor="start" x="225.5" y="-233" font-family="Helvetica,sans-Serif" font-size="10.00">dnf_composer::element</text>
<text text-anchor="middle" x="283.5" y="-222" font-family="Helvetica,sans-Serif" font-size="10.00">::SigmoidFunction::print</text>
</a>
</g>
</g>
<!-- Node1&#45;&gt;Node10 -->
<g id="edge9_Node000001_Node000010" class="edge">
<title>Node1&#45;&gt;Node10</title>
<g id="a_edge9_Node000001_Node000010"><a xlink:title=" ">
<path fill="none" stroke="#63b8ff" d="M390.55,-244.67C377.07,-242.8 362.93,-240.85 349.53,-239"/>
<polygon fill="#63b8ff" stroke="#63b8ff" points="390.32,-248.17 400.71,-246.07 391.28,-241.24 390.32,-248.17"/>
</a>
</g>
</g>
<!-- Node11 -->
<g id="Node000011" class="node">
<title>Node11</title>
<g id="a_Node000011"><a xlink:href="structdnf__composer_1_1element_1_1HeavisideFunction.html#a6405c8367c96aeb06f4c011d824d4a18" target="_top" xlink:title=" ">
<polygon fill="white" stroke="#666666" points="354,-197 213,-197 213,-167 354,-167 354,-197"/>
<text text-anchor="start" x="221" y="-185" font-family="Helvetica,sans-Serif" font-size="10.00">dnf_composer::element</text>
<text text-anchor="middle" x="283.5" y="-174" font-family="Helvetica,sans-Serif" font-size="10.00">::HeavisideFunction::print</text>
</a>
</g>
</g>
<!-- Node1&#45;&gt;Node11 -->
<g id="edge10_Node000001_Node000011" class="edge">
<title>Node1&#45;&gt;Node11</title>
<g id="a_edge10_Node000001_Node000011"><a xlink:title=" ">
<path fill="none" stroke="#63b8ff" d="M422.71,-233.81C405.63,-224.55 384.62,-213.91 365,-206 357.02,-202.78 348.44,-199.78 339.97,-197.05"/>
<polygon fill="#63b8ff" stroke="#63b8ff" points="421.31,-237.03 431.76,-238.78 424.68,-230.9 421.31,-237.03"/>
</a>
</g>
</g>
<!-- Node12 -->
<g id="Node000012" class="node">
<title>Node12</title>
<g id="a_Node000012"><a xlink:href="structdnf__composer_1_1element_1_1AbsSigmoidFunction.html#ae8f7c574cc79cbe9ca82b7a7efe80abd" target="_top" xlink:title=" ">
<polygon fill="white" stroke="#666666" points="349.5,-148.5 217.5,-148.5 217.5,-107.5 349.5,-107.5 349.5,-148.5"/>
<text text-anchor="start" x="225.5" y="-136.5" font-family="Helvetica,sans-Serif" font-size="10.00">dnf_composer::element</text>
<text text-anchor="start" x="225.5" y="-125.5" font-family="Helvetica,sans-Serif" font-size="10.00">::AbsSigmoidFunction</text>
<text text-anchor="middle" x="283.5" y="-114.5" font-family="Helvetica,sans-Serif" font-size="10.00">::print</text>
</a>
</g>
</g>
<!-- Node1&#45;&gt;Node12 -->
<g id="edge11_Node000001_Node000012" class="edge">
<title>Node1&#45;&gt;Node12</title>
<g id="a_edge11_Node000001_Node000012"><a xlink:title=" ">
<path fill="none" stroke="#63b8ff" d="M440.76,-231.03C423.61,-209.58 395.52,-177.95 365,-158 359.76,-154.57 354.07,-151.46 348.22,-148.66"/>
<polygon fill="#63b8ff" stroke="#63b8ff" points="438.07,-233.27 446.99,-238.99 443.58,-228.96 438.07,-233.27"/>
</a>
</g>
</g>
<!-- Node13 -->
<g id="Node000013" class="node">
<title>Node13</title>
<g id="a_Node000013"><a xlink:href="classdnf__composer_1_1user__interface_1_1SimulationWindow.html#abf457e8c59e1953591a17904653a4f2d" target="_top" xlink:title=" ">
<polygon fill="white" stroke="#666666" points="365,-89.5 202,-89.5 202,-48.5 365,-48.5 365,-89.5"/>
<text text-anchor="start" x="210" y="-77.5" font-family="Helvetica,sans-Serif" font-size="10.00">dnf_composer::user</text>
<text text-anchor="start" x="210" y="-66.5" font-family="Helvetica,sans-Serif" font-size="10.00">_interface::SimulationWindow</text>
<text text-anchor="middle" x="283.5" y="-55.5" font-family="Helvetica,sans-Serif" font-size="10.00">::renderRunForIterationsCard</text>
</a>
</g>
</g>
<!-- Node1&#45;&gt;Node13 -->
<g id="edge12_Node000001_Node000013" class="edge">
<title>Node1&#45;&gt;Node13</title>
<g id="a_edge12_Node000001_Node000013"><a xlink:title=" ">
<path fill="none" stroke="#63b8ff" d="M449.34,-229.11C436.23,-194.92 408.21,-133.63 365,-98 361.22,-94.88 357.07,-92.09 352.72,-89.58"/>
<polygon fill="#63b8ff" stroke="#63b8ff" points="446.17,-230.63 452.93,-238.79 452.73,-228.19 446.17,-230.63"/>
</a>
</g>
</g>
<!-- Node15 -->
<g id="Node000015" class="node">
<title>Node15</title>
<g id="a_Node000015"><a xlink:href="classdnf__composer_1_1Simulation.html#a8d0fb7b320ba77daf90d6cceafd93815" target="_top" xlink:title="Construct a simulation.">
<polygon fill="white" stroke="#666666" points="355.5,-30 211.5,-30 211.5,0 355.5,0 355.5,-30"/>
<text text-anchor="start" x="219.5" y="-18" font-family="Helvetica,sans-Serif" font-size="10.00">dnf_composer::Simulation</text>
<text text-anchor="middle" x="283.5" y="-7" font-family="Helvetica,sans-Serif" font-size="10.00">::Simulation</text>
</a>
</g>
</g>
<!-- Node1&#45;&gt;Node15 -->
<g id="edge14_Node000001_Node000015" class="edge">
<title>Node1&#45;&gt;Node15</title>
<g id="a_edge14_Node000001_Node000015"><a xlink:title=" ">
<path fill="none" stroke="#63b8ff" d="M454.2,-228.95C446.1,-184.19 422.87,-90.39 365,-39 361.18,-35.61 356.91,-32.7 352.36,-30.2"/>
<polygon fill="#63b8ff" stroke="#63b8ff" points="450.78,-229.7 455.91,-238.97 457.68,-228.52 450.78,-229.7"/>
</a>
</g>
</g>
<!-- Node3 -->
<g id="Node000003" class="node">
<title>Node3</title>
<g id="a_Node000003"><a xlink:href="classdnf__composer_1_1Simulation.html#a487ef819fe0e501707580714b92b80ca" target="_top" xlink:title="Deserialize the simulation state from a JSON file.">
<polygon fill="white" stroke="#666666" points="155,-551 11,-551 11,-521 155,-521 155,-551"/>
<text text-anchor="start" x="19" y="-539" font-family="Helvetica,sans-Serif" font-size="10.00">dnf_composer::Simulation</text>
<text text-anchor="middle" x="83" y="-528" font-family="Helvetica,sans-Serif" font-size="10.00">::read</text>
</a>
</g>
</g>
<!-- Node2&#45;&gt;Node3 -->
<g id="edge2_Node000002_Node000003" class="edge">
<title>Node2&#45;&gt;Node3</title>
<g id="a_edge2_Node000002_Node000003"><a xlink:title=" ">
<path fill="none" stroke="#63b8ff" d="M202.97,-510.23C186.56,-513.78 169.4,-517.5 153.39,-520.97"/>
<polygon fill="#63b8ff" stroke="#63b8ff" points="204.04,-513.58 213.07,-508.04 202.56,-506.74 204.04,-513.58"/>
</a>
</g>
</g>
<!-- Node4 -->
<g id="Node000004" class="node">
<title>Node4</title>
<g id="a_Node000004"><a xlink:href="classdnf__composer_1_1Simulation.html#adc98d900b0ed2e9f901ee9bf0170d93b" target="_top" xlink:title="Run the simulation for runTime milliseconds (blocking).">
<polygon fill="white" stroke="#666666" points="166,-502.5 0,-502.5 0,-483.5 166,-483.5 166,-502.5"/>
<text text-anchor="middle" x="83" y="-490.5" font-family="Helvetica,sans-Serif" font-size="10.00">dnf_composer::Simulation::run</text>
</a>
</g>
</g>
<!-- Node2&#45;&gt;Node4 -->
<g id="edge3_Node000002_Node000004" class="edge">
<title>Node2&#45;&gt;Node4</title>
<g id="a_edge3_Node000002_Node000004"><a xlink:title=" ">
<path fill="none" stroke="#63b8ff" d="M201.3,-493C189.68,-493 177.73,-493 166.09,-493"/>
<polygon fill="#63b8ff" stroke="#63b8ff" points="201.4,-496.5 211.4,-493 201.4,-489.5 201.4,-496.5"/>
</a>
</g>
</g>
<!-- Node5 -->
<g id="Node000005" class="node">
<title>Node5</title>
<g id="a_Node000005"><a xlink:href="classdnf__composer_1_1Simulation.html#a02cc12769e196f46a1ca4eb4f360fc3c" target="_top" xlink:title="Run the simulation in real&#45;time for milliseconds wall&#45;clock ms.">
<polygon fill="white" stroke="#666666" points="155,-465 11,-465 11,-435 155,-435 155,-465"/>
<text text-anchor="start" x="19" y="-453" font-family="Helvetica,sans-Serif" font-size="10.00">dnf_composer::Simulation</text>
<text text-anchor="middle" x="83" y="-442" font-family="Helvetica,sans-Serif" font-size="10.00">::runForRealTime</text>
</a>
</g>
</g>
<!-- Node2&#45;&gt;Node5 -->
<g id="edge4_Node000002_Node000005" class="edge">
<title>Node2&#45;&gt;Node5</title>
<g id="a_edge4_Node000002_Node000005"><a xlink:title=" ">
<path fill="none" stroke="#63b8ff" d="M202.97,-475.77C186.56,-472.22 169.4,-468.5 153.39,-465.03"/>
<polygon fill="#63b8ff" stroke="#63b8ff" points="202.56,-479.26 213.07,-477.96 204.04,-472.42 202.56,-479.26"/>
</a>
</g>
</g>
<!-- Node14 -->
<g id="Node000014" class="node">
<title>Node14</title>
<g id="a_Node000014"><a xlink:href="classdnf__composer_1_1user__interface_1_1SimulationWindow.html#ac0c5ebab9dd16f951c2c231a8e1f6f34" target="_top" xlink:title=" ">
<polygon fill="white" stroke="#666666" points="164.5,-89.5 1.5,-89.5 1.5,-48.5 164.5,-48.5 164.5,-89.5"/>
<text text-anchor="start" x="9.5" y="-77.5" font-family="Helvetica,sans-Serif" font-size="10.00">dnf_composer::user</text>
<text text-anchor="start" x="9.5" y="-66.5" font-family="Helvetica,sans-Serif" font-size="10.00">_interface::SimulationWindow</text>
<text text-anchor="middle" x="83" y="-55.5" font-family="Helvetica,sans-Serif" font-size="10.00">::render</text>
</a>
</g>
</g>
<!-- Node13&#45;&gt;Node14 -->
<g id="edge13_Node000013_Node000014" class="edge">
<title>Node13&#45;&gt;Node14</title>
<g id="a_edge13_Node000013_Node000014"><a xlink:title=" ">
<path fill="none" stroke="#63b8ff" d="M191.65,-69C182.65,-69 173.56,-69 164.67,-69"/>
<polygon fill="#63b8ff" stroke="#63b8ff" points="191.76,-72.5 201.76,-69 191.76,-65.5 191.76,-72.5"/>
</a>
</g>
</g>
</g>
</svg>
