<?xml version="1.0" encoding="UTF-8" standalone="no"?>
<!DOCTYPE svg PUBLIC "-//W3C//DTD SVG 1.1//EN"
 "http://www.w3.org/Graphics/SVG/1.1/DTD/svg11.dtd">
<!-- Generated by graphviz version 2.43.0 (0)
 -->
<!-- Title: dnf_composer::tools::math::gaussDerivative Pages: 1 -->
<svg width="718pt" height="66pt"
 viewBox="0.00 0.00 718.00 65.50" xmlns="http://www.w3.org/2000/svg" xmlns:xlink="http://www.w3.org/1999/xlink">
<g id="graph0" class="graph" transform="scale(1 1) rotate(0) translate(4 61.5)">
<title>dnf_composer::tools::math::gaussDerivative</title>
<!-- Node1 -->
<g id="Node000001" class="node">
<title>Node1</title>
<g id="a_Node000001"><a xlink:title=" ">
<polygon fill="#999999" stroke="#666666" points="710,-35.5 576,-35.5 576,-5.5 710,-5.5 710,-35.5"/>
<text text-anchor="start" x="584" y="-23.5" font-family="Helvetica,sans-Serif" font-size="10.00">dnf_composer::tools</text>
<text text-anchor="middle" x="643" y="-12.5" font-family="Helvetica,sans-Serif" font-size="10.00">::math::gaussDerivative</text>
</a>
</g>
</g>
<!-- Node2 -->
<g id="Node000002" class="node">
<title>Node2</title>
<g id="a_Node000002"><a xlink:href="namespacednf__composer_1_1tools_1_1math.html#a6f23f713f1bfd818c93988f8e122281c" target="_top" xlink:title=" ">
<polygon fill="white" stroke="#666666" points="540,-57.5 379,-57.5 379,-27.5 540,-27.5 540,-57.5"/>
<text text-anchor="start" x="387" y="-45.5" font-family="Helvetica,sans-Serif" font-size="10.00">dnf_composer::tools</text>
<text text-anchor="middle" x="459.5" y="-34.5" font-family="Helvetica,sans-Serif" font-size="10.00">::math::gaussDerivativeNorm</text>
</a>
</g>
</g>
<!-- Node1&#45;&gt;Node2 -->
<g id="edge1_Node000001_Node000002" class="edge">
<title>Node1&#45;&gt;Node2</title>
<g id="a_edge1_Node000001_Node000002"><a xlink:title=" ">
<path fill="none" stroke="#63b8ff" d="M566.01,-29.71C557.44,-30.75 548.69,-31.81 540.08,-32.85"/>
<polygon fill="#63b8ff" stroke="#63b8ff" points="566.45,-33.18 575.96,-28.5 565.61,-26.23 566.45,-33.18"/>
</a>
</g>
</g>
<!-- Node3 -->
<g id="Node000003" class="node">
<title>Node3</title>
<g id="a_Node000003"><a xlink:href="classdnf__composer_1_1element_1_1AsymmetricGaussKernel.html#a96e938df35bc5c5b9944201750e5ff83" target="_top" xlink:title="Initialize the element (called once before the simulation loop).">
<polygon fill="white" stroke="#666666" points="343,-35.5 179,-35.5 179,-5.5 343,-5.5 343,-35.5"/>
<text text-anchor="start" x="187" y="-23.5" font-family="Helvetica,sans-Serif" font-size="10.00">dnf_composer::element</text>
<text text-anchor="middle" x="261" y="-12.5" font-family="Helvetica,sans-Serif" font-size="10.00">::AsymmetricGaussKernel::init</text>
</a>
</g>
</g>
<!-- Node1&#45;&gt;Node3 -->
<g id="edge4_Node000001_Node000003" class="edge">
<title>Node1&#45;&gt;Node3</title>
<g id="a_edge4_Node000001_Node000003"><a xlink:title=" ">
<path fill="none" stroke="#63b8ff" d="M565.74,-18.84C557.06,-18.7 548.34,-18.58 540,-18.5 468.45,-17.8 450.55,-17.89 379,-18.5 367.42,-18.6 355.2,-18.75 343.19,-18.93"/>
<polygon fill="#63b8ff" stroke="#63b8ff" points="565.83,-22.34 575.89,-19.01 565.95,-15.34 565.83,-22.34"/>
</a>
</g>
</g>
<!-- Node2&#45;&gt;Node3 -->
<g id="edge2_Node000002_Node000003" class="edge">
<title>Node2&#45;&gt;Node3</title>
<g id="a_edge2_Node000002_Node000003"><a xlink:title=" ">
<path fill="none" stroke="#63b8ff" d="M368.82,-32.46C360.23,-31.5 351.54,-30.52 343.03,-29.57"/>
<polygon fill="#63b8ff" stroke="#63b8ff" points="368.53,-35.95 378.86,-33.58 369.31,-28.99 368.53,-35.95"/>
</a>
</g>
</g>
<!-- Node4 -->
<g id="Node000004" class="node">
<title>Node4</title>
<g id="a_Node000004"><a xlink:href="classdnf__composer_1_1element_1_1AsymmetricGaussKernel.html#aa692c282d0b5b78e54d15664166a06eb" target="_top" xlink:title=" ">
<polygon fill="white" stroke="#666666" points="143,-41 0,-41 0,0 143,0 143,-41"/>
<text text-anchor="start" x="8" y="-29" font-family="Helvetica,sans-Serif" font-size="10.00">dnf_composer::element</text>
<text text-anchor="start" x="8" y="-18" font-family="Helvetica,sans-Serif" font-size="10.00">::AsymmetricGaussKernel</text>
<text text-anchor="middle" x="71.5" y="-7" font-family="Helvetica,sans-Serif" font-size="10.00">::setParameters</text>
</a>
</g>
</g>
<!-- Node3&#45;&gt;Node4 -->
<g id="edge3_Node000003_Node000004" class="edge">
<title>Node3&#45;&gt;Node4</title>
<g id="a_edge3_Node000003_Node000004"><a xlink:title=" ">
<path fill="none" stroke="#63b8ff" d="M168.78,-20.5C160.18,-20.5 151.55,-20.5 143.18,-20.5"/>
<polygon fill="#63b8ff" stroke="#63b8ff" points="168.85,-24 178.85,-20.5 168.85,-17 168.85,-24"/>
</a>
</g>
</g>
</g>
</svg>
