<?xml version="1.0" encoding="UTF-8" standalone="no"?>
<!DOCTYPE svg PUBLIC "-//W3C//DTD SVG 1.1//EN"
 "http://www.w3.org/Graphics/SVG/1.1/DTD/svg11.dtd">
<!-- Generated by graphviz version 2.43.0 (0)
 -->
<!-- Title: dnf_composer::tools::math::gaussDerivative Pages: 1 -->
<svg width="745pt" height="115pt"
 viewBox="0.00 0.00 745.00 115.00" xmlns="http://www.w3.org/2000/svg" xmlns:xlink="http://www.w3.org/1999/xlink">
<g id="graph0" class="graph" transform="scale(1 1) rotate(0) translate(4 111)">
<title>dnf_composer::tools::math::gaussDerivative</title>
<!-- Node1 -->
<g id="Node000001" class="node">
<title>Node1</title>
<g id="a_Node000001"><a xlink:title=" ">
<polygon fill="#999999" stroke="#666666" points="737,-65.5 603,-65.5 603,-35.5 737,-35.5 737,-65.5"/>
<text text-anchor="start" x="611" y="-53.5" font-family="Helvetica,sans-Serif" font-size="10.00">dnf_composer::tools</text>
<text text-anchor="middle" x="670" y="-42.5" font-family="Helvetica,sans-Serif" font-size="10.00">::math::gaussDerivative</text>
</a>
</g>
</g>
<!-- Node2 -->
<g id="Node000002" class="node">
<title>Node2</title>
<g id="a_Node000002"><a xlink:href="namespacednf__composer_1_1tools_1_1math.html#a6f23f713f1bfd818c93988f8e122281c" target="_top" xlink:title=" ">
<polygon fill="white" stroke="#666666" points="567,-65.5 406,-65.5 406,-35.5 567,-35.5 567,-65.5"/>
<text text-anchor="start" x="414" y="-53.5" font-family="Helvetica,sans-Serif" font-size="10.00">dnf_composer::tools</text>
<text text-anchor="middle" x="486.5" y="-42.5" font-family="Helvetica,sans-Serif" font-size="10.00">::math::gaussDerivativeNorm</text>
</a>
</g>
</g>
<!-- Node1&#45;&gt;Node2 -->
<g id="edge1_Node000001_Node000002" class="edge">
<title>Node1&#45;&gt;Node2</title>
<g id="a_edge1_Node000001_Node000002"><a xlink:title=" ">
<path fill="none" stroke="#63b8ff" d="M592.73,-50.5C584.25,-50.5 575.6,-50.5 567.08,-50.5"/>
<polygon fill="#63b8ff" stroke="#63b8ff" points="592.96,-54 602.96,-50.5 592.96,-47 592.96,-54"/>
</a>
</g>
</g>
<!-- Node3 -->
<g id="Node000003" class="node">
<title>Node3</title>
<g id="a_Node000003"><a xlink:href="classdnf__composer_1_1element_1_1AsymmetricGaussKernel.html#a96e938df35bc5c5b9944201750e5ff83" target="_top" xlink:title="Initialize the element (called once before the simulation loop).">
<polygon fill="white" stroke="#666666" points="363,-101.5 199,-101.5 199,-71.5 363,-71.5 363,-101.5"/>
<text text-anchor="start" x="207" y="-89.5" font-family="Helvetica,sans-Serif" font-size="10.00">dnf_composer::element</text>
<text text-anchor="middle" x="281" y="-78.5" font-family="Helvetica,sans-Serif" font-size="10.00">::AsymmetricGaussKernel::init</text>
</a>
</g>
</g>
<!-- Node1&#45;&gt;Node3 -->
<g id="edge6_Node000001_Node000003" class="edge">
<title>Node1&#45;&gt;Node3</title>
<g id="a_edge6_Node000001_Node000003"><a xlink:title=" ">
<path fill="none" stroke="#63b8ff" d="M603.72,-67.79C591.59,-70.45 578.97,-72.86 567,-74.5 498.68,-83.89 420.36,-86.62 363.13,-87.15"/>
<polygon fill="#63b8ff" stroke="#63b8ff" points="604.8,-71.13 613.77,-65.5 603.25,-64.31 604.8,-71.13"/>
</a>
</g>
</g>
<!-- Node5 -->
<g id="Node000005" class="node">
<title>Node5</title>
<g id="a_Node000005"><a xlink:href="classdnf__composer_1_1element_1_1AsymmetricGaussKernel2D.html#a8234958fc93042c32fa069831a7034c5" target="_top" xlink:title="Initialize the element (called once before the simulation loop).">
<polygon fill="white" stroke="#666666" points="370,-35.5 192,-35.5 192,-5.5 370,-5.5 370,-35.5"/>
<text text-anchor="start" x="200" y="-23.5" font-family="Helvetica,sans-Serif" font-size="10.00">dnf_composer::element</text>
<text text-anchor="middle" x="281" y="-12.5" font-family="Helvetica,sans-Serif" font-size="10.00">::AsymmetricGaussKernel2D::init</text>
</a>
</g>
</g>
<!-- Node1&#45;&gt;Node5 -->
<g id="edge7_Node000001_Node000005" class="edge">
<title>Node1&#45;&gt;Node5</title>
<g id="a_edge7_Node000001_Node000005"><a xlink:title=" ">
<path fill="none" stroke="#63b8ff" d="M604.76,-33.23C592.32,-30.5 579.32,-28.06 567,-26.5 501.46,-18.19 426.77,-16.92 370.3,-17.6"/>
<polygon fill="#63b8ff" stroke="#63b8ff" points="604.07,-36.66 614.6,-35.47 605.63,-29.83 604.07,-36.66"/>
</a>
</g>
</g>
<!-- Node2&#45;&gt;Node3 -->
<g id="edge2_Node000002_Node000003" class="edge">
<title>Node2&#45;&gt;Node3</title>
<g id="a_edge2_Node000002_Node000003"><a xlink:title=" ">
<path fill="none" stroke="#63b8ff" d="M395.99,-66.34C385.07,-68.27 373.96,-70.23 363.17,-72.14"/>
<polygon fill="#63b8ff" stroke="#63b8ff" points="396.71,-69.76 405.95,-64.57 395.49,-62.87 396.71,-69.76"/>
</a>
</g>
</g>
<!-- Node2&#45;&gt;Node5 -->
<g id="edge4_Node000002_Node000005" class="edge">
<title>Node2&#45;&gt;Node5</title>
<g id="a_edge4_Node000002_Node000005"><a xlink:title=" ">
<path fill="none" stroke="#63b8ff" d="M395.99,-37.3C387.45,-36.04 378.79,-34.77 370.26,-33.51"/>
<polygon fill="#63b8ff" stroke="#63b8ff" points="395.54,-40.78 405.95,-38.77 396.56,-33.85 395.54,-40.78"/>
</a>
</g>
</g>
<!-- Node4 -->
<g id="Node000004" class="node">
<title>Node4</title>
<g id="a_Node000004"><a xlink:href="classdnf__composer_1_1element_1_1AsymmetricGaussKernel.html#aa692c282d0b5b78e54d15664166a06eb" target="_top" xlink:title=" ">
<polygon fill="white" stroke="#666666" points="149.5,-107 6.5,-107 6.5,-66 149.5,-66 149.5,-107"/>
<text text-anchor="start" x="14.5" y="-95" font-family="Helvetica,sans-Serif" font-size="10.00">dnf_composer::element</text>
<text text-anchor="start" x="14.5" y="-84" font-family="Helvetica,sans-Serif" font-size="10.00">::AsymmetricGaussKernel</text>
<text text-anchor="middle" x="78" y="-73" font-family="Helvetica,sans-Serif" font-size="10.00">::setParameters</text>
</a>
</g>
</g>
<!-- Node3&#45;&gt;Node4 -->
<g id="edge3_Node000003_Node000004" class="edge">
<title>Node3&#45;&gt;Node4</title>
<g id="a_edge3_Node000003_Node000004"><a xlink:title=" ">
<path fill="none" stroke="#63b8ff" d="M188.48,-86.5C175.5,-86.5 162.31,-86.5 149.81,-86.5"/>
<polygon fill="#63b8ff" stroke="#63b8ff" points="188.83,-90 198.82,-86.5 188.82,-83 188.83,-90"/>
</a>
</g>
</g>
<!-- Node6 -->
<g id="Node000006" class="node">
<title>Node6</title>
<g id="a_Node000006"><a xlink:href="classdnf__composer_1_1element_1_1AsymmetricGaussKernel2D.html#afbef9cba9917c5548463b4e8a7cec7fd" target="_top" xlink:title=" ">
<polygon fill="white" stroke="#666666" points="156,-41 0,-41 0,0 156,0 156,-41"/>
<text text-anchor="start" x="8" y="-29" font-family="Helvetica,sans-Serif" font-size="10.00">dnf_composer::element</text>
<text text-anchor="start" x="8" y="-18" font-family="Helvetica,sans-Serif" font-size="10.00">::AsymmetricGaussKernel2D</text>
<text text-anchor="middle" x="78" y="-7" font-family="Helvetica,sans-Serif" font-size="10.00">::setParameters</text>
</a>
</g>
</g>
<!-- Node5&#45;&gt;Node6 -->
<g id="edge5_Node000005_Node000006" class="edge">
<title>Node5&#45;&gt;Node6</title>
<g id="a_edge5_Node000005_Node000006"><a xlink:title=" ">
<path fill="none" stroke="#63b8ff" d="M181.74,-20.5C173.12,-20.5 164.47,-20.5 156.06,-20.5"/>
<polygon fill="#63b8ff" stroke="#63b8ff" points="181.84,-24 191.84,-20.5 181.84,-17 181.84,-24"/>
</a>
</g>
</g>
</g>
</svg>
