<?xml version="1.0" encoding="UTF-8" standalone="no"?>
<!DOCTYPE svg PUBLIC "-//W3C//DTD SVG 1.1//EN"
 "http://www.w3.org/Graphics/SVG/1.1/DTD/svg11.dtd">
<!-- Generated by graphviz version 2.43.0 (0)
 -->
<!-- Title: src/element_parameters/neural_field_parameters.cpp Pages: 1 -->
<svg width="1279pt" height="346pt"
 viewBox="0.00 0.00 1278.50 346.00" xmlns="http://www.w3.org/2000/svg" xmlns:xlink="http://www.w3.org/1999/xlink">
<g id="graph0" class="graph" transform="scale(1 1) rotate(0) translate(4 342)">
<title>src/element_parameters/neural_field_parameters.cpp</title>
<!-- Node1 -->
<g id="Node000001" class="node">
<title>Node1</title>
<g id="a_Node000001"><a xlink:title=" ">
<polygon fill="#999999" stroke="#666666" points="332,-338 174,-338 174,-308 332,-308 332,-338"/>
<text text-anchor="start" x="182" y="-326" font-family="Helvetica,sans-Serif" font-size="10.00">src/element_parameters</text>
<text text-anchor="middle" x="253" y="-315" font-family="Helvetica,sans-Serif" font-size="10.00">/neural_field_parameters.cpp</text>
</a>
</g>
</g>
<!-- Node2 -->
<g id="Node000002" class="node">
<title>Node2</title>
<g id="a_Node000002"><a xlink:href="neural__field__parameters_8h.html" target="_top" xlink:title=" ">
<polygon fill="white" stroke="#666666" points="326.5,-272 179.5,-272 179.5,-242 326.5,-242 326.5,-272"/>
<text text-anchor="start" x="187.5" y="-260" font-family="Helvetica,sans-Serif" font-size="10.00">element_parameters</text>
<text text-anchor="middle" x="253" y="-249" font-family="Helvetica,sans-Serif" font-size="10.00">/neural_field_parameters.h</text>
</a>
</g>
</g>
<!-- Node1&#45;&gt;Node2 -->
<g id="edge1_Node000001_Node000002" class="edge">
<title>Node1&#45;&gt;Node2</title>
<g id="a_edge1_Node000001_Node000002"><a xlink:title=" ">
<path fill="none" stroke="#63b8ff" d="M253,-307.8C253,-300.34 253,-290.99 253,-282.41"/>
<polygon fill="#63b8ff" stroke="#63b8ff" points="256.5,-282.16 253,-272.16 249.5,-282.16 256.5,-282.16"/>
</a>
</g>
</g>
<!-- Node3 -->
<g id="Node000003" class="node">
<title>Node3</title>
<g id="a_Node000003"><a xlink:href="element__parameters_8h.html" target="_top" xlink:title=" ">
<polygon fill="white" stroke="#666666" points="222,-200.5 94,-200.5 94,-181.5 222,-181.5 222,-200.5"/>
<text text-anchor="middle" x="158" y="-188.5" font-family="Helvetica,sans-Serif" font-size="10.00">element_parameters.h</text>
</a>
</g>
</g>
<!-- Node2&#45;&gt;Node3 -->
<g id="edge2_Node000002_Node000003" class="edge">
<title>Node2&#45;&gt;Node3</title>
<g id="a_edge2_Node000002_Node000003"><a xlink:title=" ">
<path fill="none" stroke="#63b8ff" d="M231.92,-241.8C216.29,-231.27 195.07,-216.97 179.37,-206.4"/>
<polygon fill="#63b8ff" stroke="#63b8ff" points="181.1,-203.34 170.85,-200.66 177.19,-209.15 181.1,-203.34"/>
</a>
</g>
</g>
<!-- Node20 -->
<g id="Node000020" class="node">
<title>Node20</title>
<g id="a_Node000020"><a xlink:href="activation__function_8h.html" target="_top" xlink:title=" ">
<polygon fill="white" stroke="#666666" points="487,-206 373,-206 373,-176 487,-176 487,-206"/>
<text text-anchor="start" x="381" y="-194" font-family="Helvetica,sans-Serif" font-size="10.00">elements/activation</text>
<text text-anchor="middle" x="430" y="-183" font-family="Helvetica,sans-Serif" font-size="10.00">_function.h</text>
</a>
</g>
</g>
<!-- Node2&#45;&gt;Node20 -->
<g id="edge23_Node000002_Node000020" class="edge">
<title>Node2&#45;&gt;Node20</title>
<g id="a_edge23_Node000002_Node000020"><a xlink:title=" ">
<path fill="none" stroke="#63b8ff" d="M291.84,-241.95C318.24,-232.41 353.36,-219.71 381.58,-209.51"/>
<polygon fill="#63b8ff" stroke="#63b8ff" points="383.03,-212.7 391.25,-206.01 380.65,-206.12 383.03,-212.7"/>
</a>
</g>
</g>
<!-- Node4 -->
<g id="Node000004" class="node">
<title>Node4</title>
<g id="a_Node000004"><a xlink:title=" ">
<polygon fill="#e0e0e0" stroke="#999999" points="62,-140 24,-140 24,-121 62,-121 62,-140"/>
<text text-anchor="middle" x="43" y="-128" font-family="Helvetica,sans-Serif" font-size="10.00">map</text>
</a>
</g>
</g>
<!-- Node3&#45;&gt;Node4 -->
<g id="edge3_Node000003_Node000004" class="edge">
<title>Node3&#45;&gt;Node4</title>
<g id="a_edge3_Node000003_Node000004"><a xlink:title=" ">
<path fill="none" stroke="#63b8ff" d="M141.03,-181.37C122.09,-171.73 91.21,-156.03 69.17,-144.81"/>
<polygon fill="#63b8ff" stroke="#63b8ff" points="70.54,-141.58 60.04,-140.17 67.36,-147.82 70.54,-141.58"/>
</a>
</g>
</g>
<!-- Node5 -->
<g id="Node000005" class="node">
<title>Node5</title>
<g id="a_Node000005"><a xlink:title=" ">
<polygon fill="#e0e0e0" stroke="#999999" points="370,-19 326,-19 326,0 370,0 370,-19"/>
<text text-anchor="middle" x="348" y="-7" font-family="Helvetica,sans-Serif" font-size="10.00">string</text>
</a>
</g>
</g>
<!-- Node3&#45;&gt;Node5 -->
<g id="edge4_Node000003_Node000005" class="edge">
<title>Node3&#45;&gt;Node5</title>
<g id="a_edge4_Node000003_Node000005"><a xlink:title=" ">
<path fill="none" stroke="#63b8ff" d="M156.3,-181.42C152.17,-157.9 144.24,-91.75 177,-55 195.28,-34.49 271.71,-20.89 315.96,-14.58"/>
<polygon fill="#63b8ff" stroke="#63b8ff" points="316.5,-18.04 325.93,-13.2 315.55,-11.1 316.5,-18.04"/>
</a>
</g>
</g>
<!-- Node6 -->
<g id="Node000006" class="node">
<title>Node6</title>
<g id="a_Node000006"><a xlink:title=" ">
<polygon fill="#e0e0e0" stroke="#999999" points="130,-140 80,-140 80,-121 130,-121 130,-140"/>
<text text-anchor="middle" x="105" y="-128" font-family="Helvetica,sans-Serif" font-size="10.00">format</text>
</a>
</g>
</g>
<!-- Node3&#45;&gt;Node6 -->
<g id="edge5_Node000003_Node000006" class="edge">
<title>Node3&#45;&gt;Node6</title>
<g id="a_edge5_Node000003_Node000006"><a xlink:title=" ">
<path fill="none" stroke="#63b8ff" d="M150.18,-181.37C142.19,-172.55 129.61,-158.66 119.74,-147.77"/>
<polygon fill="#63b8ff" stroke="#63b8ff" points="122.16,-145.23 112.85,-140.17 116.97,-149.93 122.16,-145.23"/>
</a>
</g>
</g>
<!-- Node7 -->
<g id="Node000007" class="node">
<title>Node7</title>
<g id="a_Node000007"><a xlink:href="logger_8h.html" target="_top" xlink:title=" ">
<polygon fill="white" stroke="#666666" points="389.5,-140 306.5,-140 306.5,-121 389.5,-121 389.5,-140"/>
<text text-anchor="middle" x="348" y="-128" font-family="Helvetica,sans-Serif" font-size="10.00">tools/logger.h</text>
</a>
</g>
</g>
<!-- Node3&#45;&gt;Node7 -->
<g id="edge6_Node000003_Node000007" class="edge">
<title>Node3&#45;&gt;Node7</title>
<g id="a_edge6_Node000003_Node000007"><a xlink:title=" ">
<path fill="none" stroke="#63b8ff" d="M185.63,-181.49C218.55,-171.36 273.73,-154.37 310.49,-143.05"/>
<polygon fill="#63b8ff" stroke="#63b8ff" points="311.81,-146.3 320.34,-140.02 309.75,-139.61 311.81,-146.3"/>
</a>
</g>
</g>
<!-- Node7&#45;&gt;Node5 -->
<g id="edge8_Node000007_Node000005" class="edge">
<title>Node7&#45;&gt;Node5</title>
<g id="a_edge8_Node000007_Node000005"><a xlink:title=" ">
<path fill="none" stroke="#63b8ff" d="M348,-120.94C348,-101.91 348,-55.69 348,-29.47"/>
<polygon fill="#63b8ff" stroke="#63b8ff" points="351.5,-29.3 348,-19.3 344.5,-29.3 351.5,-29.3"/>
</a>
</g>
</g>
<!-- Node8 -->
<g id="Node000008" class="node">
<title>Node8</title>
<g id="a_Node000008"><a xlink:title=" ">
<polygon fill="#e0e0e0" stroke="#999999" points="246,-79.5 186,-79.5 186,-60.5 246,-60.5 246,-79.5"/>
<text text-anchor="middle" x="216" y="-67.5" font-family="Helvetica,sans-Serif" font-size="10.00">iostream</text>
</a>
</g>
</g>
<!-- Node7&#45;&gt;Node8 -->
<g id="edge7_Node000007_Node000008" class="edge">
<title>Node7&#45;&gt;Node8</title>
<g id="a_edge7_Node000007_Node000008"><a xlink:title=" ">
<path fill="none" stroke="#63b8ff" d="M328.81,-120.99C306.61,-111.16 269.88,-94.88 244.38,-83.58"/>
<polygon fill="#63b8ff" stroke="#63b8ff" points="245.78,-80.37 235.22,-79.52 242.94,-86.77 245.78,-80.37"/>
</a>
</g>
</g>
<!-- Node9 -->
<g id="Node000009" class="node">
<title>Node9</title>
<g id="a_Node000009"><a xlink:title=" ">
<polygon fill="#e0e0e0" stroke="#999999" points="457,-19 407,-19 407,0 457,0 457,-19"/>
<text text-anchor="middle" x="432" y="-7" font-family="Helvetica,sans-Serif" font-size="10.00">chrono</text>
</a>
</g>
</g>
<!-- Node7&#45;&gt;Node9 -->
<g id="edge9_Node000007_Node000009" class="edge">
<title>Node7&#45;&gt;Node9</title>
<g id="a_edge9_Node000007_Node000009"><a xlink:title=" ">
<path fill="none" stroke="#63b8ff" d="M389.58,-129.29C423.47,-126.65 469.44,-116.87 493,-85 500.93,-74.28 499.04,-66.89 493,-55 486.23,-41.68 473.4,-31.41 461.25,-24.1"/>
<polygon fill="#63b8ff" stroke="#63b8ff" points="462.64,-20.87 452.2,-19.09 459.25,-26.99 462.64,-20.87"/>
</a>
</g>
</g>
<!-- Node10 -->
<g id="Node000010" class="node">
<title>Node10</title>
<g id="a_Node000010"><a xlink:title=" ">
<polygon fill="#e0e0e0" stroke="#999999" points="320,-79.5 264,-79.5 264,-60.5 320,-60.5 320,-79.5"/>
<text text-anchor="middle" x="292" y="-67.5" font-family="Helvetica,sans-Serif" font-size="10.00">iomanip</text>
</a>
</g>
</g>
<!-- Node7&#45;&gt;Node10 -->
<g id="edge10_Node000007_Node000010" class="edge">
<title>Node7&#45;&gt;Node10</title>
<g id="a_edge10_Node000007_Node000010"><a xlink:title=" ">
<path fill="none" stroke="#63b8ff" d="M339.74,-120.87C331.22,-111.97 317.74,-97.89 307.27,-86.95"/>
<polygon fill="#63b8ff" stroke="#63b8ff" points="309.74,-84.47 300.3,-79.67 304.68,-89.31 309.74,-84.47"/>
</a>
</g>
</g>
<!-- Node11 -->
<g id="Node000011" class="node">
<title>Node11</title>
<g id="a_Node000011"><a xlink:title=" ">
<polygon fill="#e0e0e0" stroke="#999999" points="483.5,-85 376.5,-85 376.5,-55 483.5,-55 483.5,-85"/>
<text text-anchor="start" x="384.5" y="-73" font-family="Helvetica,sans-Serif" font-size="10.00">imgui&#45;platform&#45;kit</text>
<text text-anchor="middle" x="430" y="-62" font-family="Helvetica,sans-Serif" font-size="10.00">/log_window.h</text>
</a>
</g>
</g>
<!-- Node7&#45;&gt;Node11 -->
<g id="edge11_Node000007_Node000011" class="edge">
<title>Node7&#45;&gt;Node11</title>
<g id="a_edge11_Node000007_Node000011"><a xlink:title=" ">
<path fill="none" stroke="#63b8ff" d="M360.1,-120.87C371.02,-113.08 387.51,-101.32 401.72,-91.17"/>
<polygon fill="#63b8ff" stroke="#63b8ff" points="404.11,-93.77 410.22,-85.11 400.04,-88.07 404.11,-93.77"/>
</a>
</g>
</g>
<!-- Node12 -->
<g id="Node000012" class="node">
<title>Node12</title>
<g id="a_Node000012"><a xlink:href="exception_8h.html" target="_top" xlink:title=" ">
<polygon fill="white" stroke="#666666" points="130,-79.5 0,-79.5 0,-60.5 130,-60.5 130,-79.5"/>
<text text-anchor="middle" x="65" y="-67.5" font-family="Helvetica,sans-Serif" font-size="10.00">exceptions/exception.h</text>
</a>
</g>
</g>
<!-- Node7&#45;&gt;Node12 -->
<g id="edge12_Node000007_Node000012" class="edge">
<title>Node7&#45;&gt;Node12</title>
<g id="a_edge12_Node000007_Node000012"><a xlink:title=" ">
<path fill="none" stroke="#63b8ff" d="M306.85,-120.99C256.34,-110.55 170.68,-92.85 116.03,-81.55"/>
<polygon fill="#63b8ff" stroke="#63b8ff" points="116.7,-78.11 106.2,-79.52 115.28,-84.97 116.7,-78.11"/>
</a>
</g>
</g>
<!-- Node14 -->
<g id="Node000014" class="node">
<title>Node14</title>
<g id="a_Node000014"><a xlink:href="utils_8h.html" target="_top" xlink:title=" ">
<polygon fill="white" stroke="#666666" points="625.5,-79.5 578.5,-79.5 578.5,-60.5 625.5,-60.5 625.5,-79.5"/>
<text text-anchor="middle" x="602" y="-67.5" font-family="Helvetica,sans-Serif" font-size="10.00">utils.h</text>
</a>
</g>
</g>
<!-- Node7&#45;&gt;Node14 -->
<g id="edge15_Node000007_Node000014" class="edge">
<title>Node7&#45;&gt;Node14</title>
<g id="a_edge15_Node000007_Node000014"><a xlink:title=" ">
<path fill="none" stroke="#63b8ff" d="M389.86,-122.79C433.7,-115.32 504.36,-102.03 564,-85 566.28,-84.35 568.62,-83.63 570.97,-82.86"/>
<polygon fill="#63b8ff" stroke="#63b8ff" points="572.18,-86.15 580.48,-79.56 569.89,-79.53 572.18,-86.15"/>
</a>
</g>
</g>
<!-- Node12&#45;&gt;Node5 -->
<g id="edge14_Node000012_Node000005" class="edge">
<title>Node12&#45;&gt;Node5</title>
<g id="a_edge14_Node000012_Node000005"><a xlink:title=" ">
<path fill="none" stroke="#63b8ff" d="M106.15,-60.49C162.94,-48.75 264.17,-27.83 315.8,-17.16"/>
<polygon fill="#63b8ff" stroke="#63b8ff" points="316.65,-20.56 325.73,-15.1 315.23,-13.7 316.65,-20.56"/>
</a>
</g>
</g>
<!-- Node13 -->
<g id="Node000013" class="node">
<title>Node13</title>
<g id="a_Node000013"><a xlink:title=" ">
<polygon fill="#e0e0e0" stroke="#999999" points="97.5,-19 32.5,-19 32.5,0 97.5,0 97.5,-19"/>
<text text-anchor="middle" x="65" y="-7" font-family="Helvetica,sans-Serif" font-size="10.00">exception</text>
</a>
</g>
</g>
<!-- Node12&#45;&gt;Node13 -->
<g id="edge13_Node000012_Node000013" class="edge">
<title>Node12&#45;&gt;Node13</title>
<g id="a_edge13_Node000012_Node000013"><a xlink:title=" ">
<path fill="none" stroke="#63b8ff" d="M65,-60.37C65,-52.25 65,-39.81 65,-29.39"/>
<polygon fill="#63b8ff" stroke="#63b8ff" points="68.5,-29.17 65,-19.17 61.5,-29.17 68.5,-29.17"/>
</a>
</g>
</g>
<!-- Node14&#45;&gt;Node5 -->
<g id="edge16_Node000014_Node000005" class="edge">
<title>Node14&#45;&gt;Node5</title>
<g id="a_edge16_Node000014_Node000005"><a xlink:title=" ">
<path fill="none" stroke="#63b8ff" d="M578.1,-63.5C532.24,-52.93 431.83,-29.81 380.15,-17.9"/>
<polygon fill="#63b8ff" stroke="#63b8ff" points="380.72,-14.44 370.19,-15.61 379.15,-21.27 380.72,-14.44"/>
</a>
</g>
</g>
<!-- Node14&#45;&gt;Node9 -->
<g id="edge21_Node000014_Node000009" class="edge">
<title>Node14&#45;&gt;Node9</title>
<g id="a_edge21_Node000014_Node000009"><a xlink:title=" ">
<path fill="none" stroke="#63b8ff" d="M579.13,-60.46C574.15,-58.63 568.91,-56.73 564,-55 531.24,-43.45 493.68,-30.85 467.03,-22.01"/>
<polygon fill="#63b8ff" stroke="#63b8ff" points="467.97,-18.64 457.38,-18.82 465.77,-25.29 467.97,-18.64"/>
</a>
</g>
</g>
<!-- Node15 -->
<g id="Node000015" class="node">
<title>Node15</title>
<g id="a_Node000015"><a xlink:title=" ">
<polygon fill="#e0e0e0" stroke="#999999" points="827.5,-19 780.5,-19 780.5,0 827.5,0 827.5,-19"/>
<text text-anchor="middle" x="804" y="-7" font-family="Helvetica,sans-Serif" font-size="10.00">vector</text>
</a>
</g>
</g>
<!-- Node14&#45;&gt;Node15 -->
<g id="edge17_Node000014_Node000015" class="edge">
<title>Node14&#45;&gt;Node15</title>
<g id="a_edge17_Node000014_Node000015"><a xlink:title=" ">
<path fill="none" stroke="#63b8ff" d="M625.57,-62.17C661.35,-51.81 729.55,-32.06 770.49,-20.21"/>
<polygon fill="#63b8ff" stroke="#63b8ff" points="771.64,-23.52 780.27,-17.37 769.69,-16.79 771.64,-23.52"/>
</a>
</g>
</g>
<!-- Node16 -->
<g id="Node000016" class="node">
<title>Node16</title>
<g id="a_Node000016"><a xlink:title=" ">
<polygon fill="#e0e0e0" stroke="#999999" points="689,-19 635,-19 635,0 689,0 689,-19"/>
<text text-anchor="middle" x="662" y="-7" font-family="Helvetica,sans-Serif" font-size="10.00">random</text>
</a>
</g>
</g>
<!-- Node14&#45;&gt;Node16 -->
<g id="edge18_Node000014_Node000016" class="edge">
<title>Node14&#45;&gt;Node16</title>
<g id="a_edge18_Node000014_Node000016"><a xlink:title=" ">
<path fill="none" stroke="#63b8ff" d="M610.85,-60.37C619.98,-51.47 634.42,-37.39 645.64,-26.45"/>
<polygon fill="#63b8ff" stroke="#63b8ff" points="648.39,-28.65 653.11,-19.17 643.51,-23.64 648.39,-28.65"/>
</a>
</g>
</g>
<!-- Node17 -->
<g id="Node000017" class="node">
<title>Node17</title>
<g id="a_Node000017"><a xlink:title=" ">
<polygon fill="#e0e0e0" stroke="#999999" points="531,-19 475,-19 475,0 531,0 531,-19"/>
<text text-anchor="middle" x="503" y="-7" font-family="Helvetica,sans-Serif" font-size="10.00">sstream</text>
</a>
</g>
</g>
<!-- Node14&#45;&gt;Node17 -->
<g id="edge19_Node000014_Node000017" class="edge">
<title>Node14&#45;&gt;Node17</title>
<g id="a_edge19_Node000014_Node000017"><a xlink:title=" ">
<path fill="none" stroke="#63b8ff" d="M587.39,-60.37C571.31,-50.86 545.22,-35.45 526.3,-24.27"/>
<polygon fill="#63b8ff" stroke="#63b8ff" points="528.06,-21.24 517.67,-19.17 524.5,-27.27 528.06,-21.24"/>
</a>
</g>
</g>
<!-- Node18 -->
<g id="Node000018" class="node">
<title>Node18</title>
<g id="a_Node000018"><a xlink:title=" ">
<polygon fill="#e0e0e0" stroke="#999999" points="762.5,-19 707.5,-19 707.5,0 762.5,0 762.5,-19"/>
<text text-anchor="middle" x="735" y="-7" font-family="Helvetica,sans-Serif" font-size="10.00">fstream</text>
</a>
</g>
</g>
<!-- Node14&#45;&gt;Node18 -->
<g id="edge20_Node000014_Node000018" class="edge">
<title>Node14&#45;&gt;Node18</title>
<g id="a_edge20_Node000014_Node000018"><a xlink:title=" ">
<path fill="none" stroke="#63b8ff" d="M621.34,-60.49C643.7,-50.66 680.71,-34.38 706.4,-23.08"/>
<polygon fill="#63b8ff" stroke="#63b8ff" points="707.89,-26.25 715.64,-19.02 705.07,-19.84 707.89,-26.25"/>
</a>
</g>
</g>
<!-- Node19 -->
<g id="Node000019" class="node">
<title>Node19</title>
<g id="a_Node000019"><a xlink:title=" ">
<polygon fill="#e0e0e0" stroke="#999999" points="617,-19 549,-19 549,0 617,0 617,-19"/>
<text text-anchor="middle" x="583" y="-7" font-family="Helvetica,sans-Serif" font-size="10.00">filesystem</text>
</a>
</g>
</g>
<!-- Node14&#45;&gt;Node19 -->
<g id="edge22_Node000014_Node000019" class="edge">
<title>Node14&#45;&gt;Node19</title>
<g id="a_edge22_Node000014_Node000019"><a xlink:title=" ">
<path fill="none" stroke="#63b8ff" d="M599.2,-60.37C596.5,-52.07 592.35,-39.28 588.92,-28.72"/>
<polygon fill="#63b8ff" stroke="#63b8ff" points="592.23,-27.6 585.82,-19.17 585.58,-29.76 592.23,-27.6"/>
</a>
</g>
</g>
<!-- Node20&#45;&gt;Node5 -->
<g id="edge24_Node000020_Node000005" class="edge">
<title>Node20&#45;&gt;Node5</title>
<g id="a_edge24_Node000020_Node000005"><a xlink:title=" ">
<path fill="none" stroke="#63b8ff" d="M445.8,-175.99C472.84,-150.32 522.36,-94.73 493,-55 479.55,-36.81 418.82,-22.99 380.35,-15.87"/>
<polygon fill="#63b8ff" stroke="#63b8ff" points="380.6,-12.36 370.14,-14.04 379.37,-19.25 380.6,-12.36"/>
</a>
</g>
</g>
<!-- Node20&#45;&gt;Node7 -->
<g id="edge25_Node000020_Node000007" class="edge">
<title>Node20&#45;&gt;Node7</title>
<g id="a_edge25_Node000020_Node000007"><a xlink:title=" ">
<path fill="none" stroke="#63b8ff" d="M410.15,-175.84C397.52,-166.83 381.2,-155.18 368.45,-146.09"/>
<polygon fill="#63b8ff" stroke="#63b8ff" points="370.46,-143.22 360.29,-140.27 366.4,-148.92 370.46,-143.22"/>
</a>
</g>
</g>
<!-- Node21 -->
<g id="Node000021" class="node">
<title>Node21</title>
<g id="a_Node000021"><a xlink:href="math_8h.html" target="_top" xlink:title=" ">
<polygon fill="white" stroke="#666666" points="937,-79.5 859,-79.5 859,-60.5 937,-60.5 937,-79.5"/>
<text text-anchor="middle" x="898" y="-67.5" font-family="Helvetica,sans-Serif" font-size="10.00">tools/math.h</text>
</a>
</g>
</g>
<!-- Node20&#45;&gt;Node21 -->
<g id="edge26_Node000020_Node000021" class="edge">
<title>Node20&#45;&gt;Node21</title>
<g id="a_edge26_Node000020_Node000021"><a xlink:title=" ">
<path fill="none" stroke="#63b8ff" d="M485.06,-176C579.21,-152.06 769.23,-103.74 854.66,-82.02"/>
<polygon fill="#63b8ff" stroke="#63b8ff" points="855.72,-85.36 864.55,-79.51 854,-78.58 855.72,-85.36"/>
</a>
</g>
</g>
<!-- Node21&#45;&gt;Node15 -->
<g id="edge27_Node000021_Node000015" class="edge">
<title>Node21&#45;&gt;Node15</title>
<g id="a_edge27_Node000021_Node000015"><a xlink:title=" ">
<path fill="none" stroke="#63b8ff" d="M884.13,-60.37C869,-50.95 844.54,-35.73 826.62,-24.58"/>
<polygon fill="#63b8ff" stroke="#63b8ff" points="828.27,-21.48 817.93,-19.17 824.57,-27.42 828.27,-21.48"/>
</a>
</g>
</g>
<!-- Node21&#45;&gt;Node16 -->
<g id="edge34_Node000021_Node000016" class="edge">
<title>Node21&#45;&gt;Node16</title>
<g id="a_edge34_Node000021_Node000016"><a xlink:title=" ">
<path fill="none" stroke="#63b8ff" d="M863.68,-60.49C819.8,-49.62 744.11,-30.85 698.98,-19.67"/>
<polygon fill="#63b8ff" stroke="#63b8ff" points="699.57,-16.21 689.02,-17.2 697.88,-23 699.57,-16.21"/>
</a>
</g>
</g>
<!-- Node21&#45;&gt;Node18 -->
<g id="edge36_Node000021_Node000018" class="edge">
<title>Node21&#45;&gt;Node18</title>
<g id="a_edge36_Node000021_Node000018"><a xlink:title=" ">
<path fill="none" stroke="#63b8ff" d="M874.3,-60.49C846.41,-50.49 799.93,-33.8 768.4,-22.49"/>
<polygon fill="#63b8ff" stroke="#63b8ff" points="769.32,-19.1 758.73,-19.02 766.96,-25.69 769.32,-19.1"/>
</a>
</g>
</g>
<!-- Node21&#45;&gt;Node21 -->
<g id="edge30_Node000021_Node000021" class="edge">
<title>Node21&#45;&gt;Node21</title>
<g id="a_edge30_Node000021_Node000021"><a xlink:title=" ">
<path fill="none" stroke="#63b8ff" d="M919.05,-79.53C936.63,-83.61 955,-80.43 955,-70 955,-61.61 943.1,-57.91 929.3,-58.91"/>
<polygon fill="#63b8ff" stroke="#63b8ff" points="928.41,-55.5 919.05,-60.47 929.46,-62.42 928.41,-55.5"/>
</a>
</g>
</g>
<!-- Node22 -->
<g id="Node000022" class="node">
<title>Node22</title>
<g id="a_Node000022"><a xlink:title=" ">
<polygon fill="#e0e0e0" stroke="#999999" points="888,-19 846,-19 846,0 888,0 888,-19"/>
<text text-anchor="middle" x="867" y="-7" font-family="Helvetica,sans-Serif" font-size="10.00">array</text>
</a>
</g>
</g>
<!-- Node21&#45;&gt;Node22 -->
<g id="edge28_Node000021_Node000022" class="edge">
<title>Node21&#45;&gt;Node22</title>
<g id="a_edge28_Node000021_Node000022"><a xlink:title=" ">
<path fill="none" stroke="#63b8ff" d="M893.43,-60.37C888.94,-51.9 881.97,-38.74 876.31,-28.07"/>
<polygon fill="#63b8ff" stroke="#63b8ff" points="879.37,-26.36 871.59,-19.17 873.18,-29.64 879.37,-26.36"/>
</a>
</g>
</g>
<!-- Node23 -->
<g id="Node000023" class="node">
<title>Node23</title>
<g id="a_Node000023"><a xlink:title=" ">
<polygon fill="#e0e0e0" stroke="#999999" points="953.5,-19 906.5,-19 906.5,0 953.5,0 953.5,-19"/>
<text text-anchor="middle" x="930" y="-7" font-family="Helvetica,sans-Serif" font-size="10.00">cmath</text>
</a>
</g>
</g>
<!-- Node21&#45;&gt;Node23 -->
<g id="edge29_Node000021_Node000023" class="edge">
<title>Node21&#45;&gt;Node23</title>
<g id="a_edge29_Node000021_Node000023"><a xlink:title=" ">
<path fill="none" stroke="#63b8ff" d="M902.72,-60.37C907.35,-51.9 914.55,-38.74 920.39,-28.07"/>
<polygon fill="#63b8ff" stroke="#63b8ff" points="923.53,-29.62 925.26,-19.17 917.39,-26.26 923.53,-29.62"/>
</a>
</g>
</g>
<!-- Node24 -->
<g id="Node000024" class="node">
<title>Node24</title>
<g id="a_Node000024"><a xlink:title=" ">
<polygon fill="#e0e0e0" stroke="#999999" points="1036,-19 972,-19 972,0 1036,0 1036,-19"/>
<text text-anchor="middle" x="1004" y="-7" font-family="Helvetica,sans-Serif" font-size="10.00">algorithm</text>
</a>
</g>
</g>
<!-- Node21&#45;&gt;Node24 -->
<g id="edge31_Node000021_Node000024" class="edge">
<title>Node21&#45;&gt;Node24</title>
<g id="a_edge31_Node000021_Node000024"><a xlink:title=" ">
<path fill="none" stroke="#63b8ff" d="M913.64,-60.37C930.94,-50.82 959.05,-35.31 979.33,-24.12"/>
<polygon fill="#63b8ff" stroke="#63b8ff" points="981.23,-27.06 988.3,-19.17 977.85,-20.93 981.23,-27.06"/>
</a>
</g>
</g>
<!-- Node25 -->
<g id="Node000025" class="node">
<title>Node25</title>
<g id="a_Node000025"><a xlink:title=" ">
<polygon fill="#e0e0e0" stroke="#999999" points="1110,-19 1054,-19 1054,0 1110,0 1110,-19"/>
<text text-anchor="middle" x="1082" y="-7" font-family="Helvetica,sans-Serif" font-size="10.00">numeric</text>
</a>
</g>
</g>
<!-- Node21&#45;&gt;Node25 -->
<g id="edge32_Node000021_Node000025" class="edge">
<title>Node21&#45;&gt;Node25</title>
<g id="a_edge32_Node000021_Node000025"><a xlink:title=" ">
<path fill="none" stroke="#63b8ff" d="M924.76,-60.49C956.64,-50.36 1010.07,-33.37 1045.68,-22.05"/>
<polygon fill="#63b8ff" stroke="#63b8ff" points="1046.74,-25.38 1055.21,-19.02 1044.62,-18.71 1046.74,-25.38"/>
</a>
</g>
</g>
<!-- Node26 -->
<g id="Node000026" class="node">
<title>Node26</title>
<g id="a_Node000026"><a xlink:title=" ">
<polygon fill="#e0e0e0" stroke="#999999" points="1193.5,-19 1128.5,-19 1128.5,0 1193.5,0 1193.5,-19"/>
<text text-anchor="middle" x="1161" y="-7" font-family="Helvetica,sans-Serif" font-size="10.00">functional</text>
</a>
</g>
</g>
<!-- Node21&#45;&gt;Node26 -->
<g id="edge33_Node000021_Node000026" class="edge">
<title>Node21&#45;&gt;Node26</title>
<g id="a_edge33_Node000021_Node000026"><a xlink:title=" ">
<path fill="none" stroke="#63b8ff" d="M936.24,-60.49C984.62,-49.73 1067.71,-31.25 1118.17,-20.03"/>
<polygon fill="#63b8ff" stroke="#63b8ff" points="1119.11,-23.4 1128.11,-17.81 1117.59,-16.57 1119.11,-23.4"/>
</a>
</g>
</g>
<!-- Node27 -->
<g id="Node000027" class="node">
<title>Node27</title>
<g id="a_Node000027"><a xlink:title=" ">
<polygon fill="#e0e0e0" stroke="#999999" points="1270.5,-19 1211.5,-19 1211.5,0 1270.5,0 1270.5,-19"/>
<text text-anchor="middle" x="1241" y="-7" font-family="Helvetica,sans-Serif" font-size="10.00">numbers</text>
</a>
</g>
</g>
<!-- Node21&#45;&gt;Node27 -->
<g id="edge35_Node000021_Node000027" class="edge">
<title>Node21&#45;&gt;Node27</title>
<g id="a_edge35_Node000021_Node000027"><a xlink:title=" ">
<path fill="none" stroke="#63b8ff" d="M937.13,-63.32C993.41,-54.99 1100.71,-38.52 1201.15,-19.28"/>
<polygon fill="#63b8ff" stroke="#63b8ff" points="1202.01,-22.68 1211.16,-17.34 1200.68,-15.8 1202.01,-22.68"/>
</a>
</g>
</g>
</g>
</svg>
