<?xml version="1.0" encoding="UTF-8" standalone="no"?>
<!DOCTYPE svg PUBLIC "-//W3C//DTD SVG 1.1//EN"
 "http://www.w3.org/Graphics/SVG/1.1/DTD/svg11.dtd">
<!-- Generated by graphviz version 2.43.0 (0)
 -->
<!-- Title: include/elements/neural_field.h Pages: 1 -->
<svg width="1357pt" height="390pt"
 viewBox="0.00 0.00 1356.85 390.00" xmlns="http://www.w3.org/2000/svg" xmlns:xlink="http://www.w3.org/1999/xlink">
<g id="graph0" class="graph" transform="scale(1 1) rotate(0) translate(4 386)">
<title>include/elements/neural_field.h</title>
<!-- Node1 -->
<g id="Node000001" class="node">
<title>Node1</title>
<g id="a_Node000001"><a xlink:title=" ">
<polygon fill="#999999" stroke="#666666" points="737.85,-382 603.85,-382 603.85,-352 737.85,-352 737.85,-382"/>
<text text-anchor="start" x="611.85" y="-370" font-family="Helvetica,sans-Serif" font-size="10.00">include/elements/neural</text>
<text text-anchor="middle" x="670.85" y="-359" font-family="Helvetica,sans-Serif" font-size="10.00">_field.h</text>
</a>
</g>
</g>
<!-- Node2 -->
<g id="Node000002" class="node">
<title>Node2</title>
<g id="a_Node000002"><a xlink:href="element_8h.html" target="_top" xlink:title=" ">
<polygon fill="white" stroke="#666666" points="743.85,-261 677.85,-261 677.85,-242 743.85,-242 743.85,-261"/>
<text text-anchor="middle" x="710.85" y="-249" font-family="Helvetica,sans-Serif" font-size="10.00">element.h</text>
</a>
</g>
</g>
<!-- Node1&#45;&gt;Node2 -->
<g id="edge1_Node000001_Node000002" class="edge">
<title>Node1&#45;&gt;Node2</title>
<g id="a_edge1_Node000001_Node000002"><a xlink:title=" ">
<path fill="none" stroke="#63b8ff" d="M677.32,-351.72C681.7,-341.8 687.46,-328.23 691.85,-316 697.19,-301.09 702.28,-283.85 705.85,-271.1"/>
<polygon fill="#63b8ff" stroke="#63b8ff" points="709.29,-271.79 708.56,-261.22 702.54,-269.94 709.29,-271.79"/>
</a>
</g>
</g>
<!-- Node24 -->
<g id="Node000024" class="node">
<title>Node24</title>
<g id="a_Node000024"><a xlink:href="activation__function_8h.html" target="_top" xlink:title=" ">
<polygon fill="white" stroke="#666666" points="358.35,-200.5 239.35,-200.5 239.35,-181.5 358.35,-181.5 358.35,-200.5"/>
<text text-anchor="middle" x="298.85" y="-188.5" font-family="Helvetica,sans-Serif" font-size="10.00">activation_function.h</text>
</a>
</g>
</g>
<!-- Node1&#45;&gt;Node24 -->
<g id="edge31_Node000001_Node000024" class="edge">
<title>Node1&#45;&gt;Node24</title>
<g id="a_edge31_Node000001_Node000024"><a xlink:title=" ">
<path fill="none" stroke="#63b8ff" d="M608.23,-351.96C545.56,-336.12 447.92,-306.47 372.85,-261 349.27,-246.72 326.79,-224.02 312.92,-208.58"/>
<polygon fill="#63b8ff" stroke="#63b8ff" points="315.37,-206.07 306.15,-200.86 310.11,-210.69 315.37,-206.07"/>
</a>
</g>
</g>
<!-- Node30 -->
<g id="Node000030" class="node">
<title>Node30</title>
<g id="a_Node000030"><a xlink:href="simulation_8h.html" target="_top" xlink:title=" ">
<polygon fill="white" stroke="#666666" points="1240.85,-316 1108.85,-316 1108.85,-297 1240.85,-297 1240.85,-316"/>
<text text-anchor="middle" x="1174.85" y="-304" font-family="Helvetica,sans-Serif" font-size="10.00">simulation/simulation.h</text>
</a>
</g>
</g>
<!-- Node1&#45;&gt;Node30 -->
<g id="edge45_Node000001_Node000030" class="edge">
<title>Node1&#45;&gt;Node30</title>
<g id="a_edge45_Node000001_Node000030"><a xlink:title=" ">
<path fill="none" stroke="#63b8ff" d="M738.03,-358.2C831.48,-347.36 1000.22,-327.77 1098.37,-316.38"/>
<polygon fill="#63b8ff" stroke="#63b8ff" points="1098.99,-319.83 1108.52,-315.2 1098.19,-312.87 1098.99,-319.83"/>
</a>
</g>
</g>
<!-- Node32 -->
<g id="Node000032" class="node">
<title>Node32</title>
<g id="a_Node000032"><a xlink:href="kernel_8h.html" target="_top" xlink:title=" ">
<polygon fill="white" stroke="#666666" points="682.85,-316 578.85,-316 578.85,-297 682.85,-297 682.85,-316"/>
<text text-anchor="middle" x="630.85" y="-304" font-family="Helvetica,sans-Serif" font-size="10.00">elements/kernel.h</text>
</a>
</g>
</g>
<!-- Node1&#45;&gt;Node32 -->
<g id="edge54_Node000001_Node000032" class="edge">
<title>Node1&#45;&gt;Node32</title>
<g id="a_edge54_Node000001_Node000032"><a xlink:title=" ">
<path fill="none" stroke="#63b8ff" d="M661.16,-351.84C655.59,-343.69 648.56,-333.4 642.66,-324.78"/>
<polygon fill="#63b8ff" stroke="#63b8ff" points="645.37,-322.55 636.84,-316.27 639.6,-326.5 645.37,-322.55"/>
</a>
</g>
</g>
<!-- Node3 -->
<g id="Node000003" class="node">
<title>Node3</title>
<g id="a_Node000003"><a xlink:title=" ">
<polygon fill="#e0e0e0" stroke="#999999" points="1279.35,-19 1232.35,-19 1232.35,0 1279.35,0 1279.35,-19"/>
<text text-anchor="middle" x="1255.85" y="-7" font-family="Helvetica,sans-Serif" font-size="10.00">vector</text>
</a>
</g>
</g>
<!-- Node2&#45;&gt;Node3 -->
<g id="edge2_Node000002_Node000003" class="edge">
<title>Node2&#45;&gt;Node3</title>
<g id="a_edge2_Node000002_Node000003"><a xlink:title=" ">
<path fill="none" stroke="#63b8ff" d="M743.87,-247.88C793.81,-243.24 891.08,-231.55 969.85,-206 1085.75,-168.41 1128.17,-169.61 1215.85,-85 1232.14,-69.28 1243.32,-45.46 1249.63,-29.01"/>
<polygon fill="#63b8ff" stroke="#63b8ff" points="1252.99,-30.01 1253.08,-19.42 1246.4,-27.64 1252.99,-30.01"/>
</a>
</g>
</g>
<!-- Node4 -->
<g id="Node000004" class="node">
<title>Node4</title>
<g id="a_Node000004"><a xlink:title=" ">
<polygon fill="#e0e0e0" stroke="#999999" points="910.85,-19 866.85,-19 866.85,0 910.85,0 910.85,-19"/>
<text text-anchor="middle" x="888.85" y="-7" font-family="Helvetica,sans-Serif" font-size="10.00">string</text>
</a>
</g>
</g>
<!-- Node2&#45;&gt;Node4 -->
<g id="edge3_Node000002_Node000004" class="edge">
<title>Node2&#45;&gt;Node4</title>
<g id="a_edge3_Node000002_Node000004"><a xlink:title=" ">
<path fill="none" stroke="#63b8ff" d="M705.35,-241.8C684.28,-207.98 611.19,-85.58 636.85,-55 664.52,-22.01 794.79,-13.46 856.4,-11.26"/>
<polygon fill="#63b8ff" stroke="#63b8ff" points="856.84,-14.75 866.72,-10.93 856.61,-7.75 856.84,-14.75"/>
</a>
</g>
</g>
<!-- Node5 -->
<g id="Node000005" class="node">
<title>Node5</title>
<g id="a_Node000005"><a xlink:title=" ">
<polygon fill="#e0e0e0" stroke="#999999" points="508.35,-200.5 415.35,-200.5 415.35,-181.5 508.35,-181.5 508.35,-200.5"/>
<text text-anchor="middle" x="461.85" y="-188.5" font-family="Helvetica,sans-Serif" font-size="10.00">unordered_map</text>
</a>
</g>
</g>
<!-- Node2&#45;&gt;Node5 -->
<g id="edge4_Node000002_Node000005" class="edge">
<title>Node2&#45;&gt;Node5</title>
<g id="a_edge4_Node000002_Node000005"><a xlink:title=" ">
<path fill="none" stroke="#63b8ff" d="M677.68,-243.05C639.19,-234.35 573.85,-219.46 517.85,-206 513.79,-205.03 509.57,-204 505.35,-202.96"/>
<polygon fill="#63b8ff" stroke="#63b8ff" points="506.13,-199.55 495.58,-200.54 504.45,-206.34 506.13,-199.55"/>
</a>
</g>
</g>
<!-- Node6 -->
<g id="Node000006" class="node">
<title>Node6</title>
<g id="a_Node000006"><a xlink:title=" ">
<polygon fill="#e0e0e0" stroke="#999999" points="1184.85,-200.5 1126.85,-200.5 1126.85,-181.5 1184.85,-181.5 1184.85,-200.5"/>
<text text-anchor="middle" x="1155.85" y="-188.5" font-family="Helvetica,sans-Serif" font-size="10.00">memory</text>
</a>
</g>
</g>
<!-- Node2&#45;&gt;Node6 -->
<g id="edge5_Node000002_Node000006" class="edge">
<title>Node2&#45;&gt;Node6</title>
<g id="a_edge5_Node000002_Node000006"><a xlink:title=" ">
<path fill="none" stroke="#63b8ff" d="M744.05,-247C808.13,-240.11 953.29,-223.92 1074.85,-206 1088.44,-204 1103.26,-201.52 1116.47,-199.21"/>
<polygon fill="#63b8ff" stroke="#63b8ff" points="1117.42,-202.59 1126.66,-197.4 1116.2,-195.7 1117.42,-202.59"/>
</a>
</g>
</g>
<!-- Node7 -->
<g id="Node000007" class="node">
<title>Node7</title>
<g id="a_Node000007"><a xlink:title=" ">
<polygon fill="#e0e0e0" stroke="#999999" points="576.85,-200.5 526.85,-200.5 526.85,-181.5 576.85,-181.5 576.85,-200.5"/>
<text text-anchor="middle" x="551.85" y="-188.5" font-family="Helvetica,sans-Serif" font-size="10.00">ranges</text>
</a>
</g>
</g>
<!-- Node2&#45;&gt;Node7 -->
<g id="edge6_Node000002_Node000007" class="edge">
<title>Node2&#45;&gt;Node7</title>
<g id="a_edge6_Node000002_Node000007"><a xlink:title=" ">
<path fill="none" stroke="#63b8ff" d="M687.73,-241.99C660.53,-231.99 615.18,-215.3 584.43,-203.99"/>
<polygon fill="#63b8ff" stroke="#63b8ff" points="585.59,-200.68 574.99,-200.52 583.17,-207.25 585.59,-200.68"/>
</a>
</g>
</g>
<!-- Node8 -->
<g id="Node000008" class="node">
<title>Node8</title>
<g id="a_Node000008"><a xlink:title=" ">
<polygon fill="#e0e0e0" stroke="#999999" points="488.85,-79.5 424.85,-79.5 424.85,-60.5 488.85,-60.5 488.85,-79.5"/>
<text text-anchor="middle" x="456.85" y="-67.5" font-family="Helvetica,sans-Serif" font-size="10.00">algorithm</text>
</a>
</g>
</g>
<!-- Node2&#45;&gt;Node8 -->
<g id="edge7_Node000002_Node000008" class="edge">
<title>Node2&#45;&gt;Node8</title>
<g id="a_edge7_Node000002_Node000008"><a xlink:title=" ">
<path fill="none" stroke="#63b8ff" d="M697.85,-241.71C684.69,-232.79 663.78,-218.54 645.85,-206 583.97,-162.72 511.48,-110.52 477.02,-85.61"/>
<polygon fill="#63b8ff" stroke="#63b8ff" points="478.88,-82.64 468.73,-79.61 474.78,-88.31 478.88,-82.64"/>
</a>
</g>
</g>
<!-- Node9 -->
<g id="Node000009" class="node">
<title>Node9</title>
<g id="a_Node000009"><a xlink:title=" ">
<polygon fill="#e0e0e0" stroke="#999999" points="562.85,-79.5 506.85,-79.5 506.85,-60.5 562.85,-60.5 562.85,-79.5"/>
<text text-anchor="middle" x="534.85" y="-67.5" font-family="Helvetica,sans-Serif" font-size="10.00">numeric</text>
</a>
</g>
</g>
<!-- Node2&#45;&gt;Node9 -->
<g id="edge8_Node000002_Node000009" class="edge">
<title>Node2&#45;&gt;Node9</title>
<g id="a_edge8_Node000002_Node000009"><a xlink:title=" ">
<path fill="none" stroke="#63b8ff" d="M700.99,-241.95C691.53,-233.44 677.19,-219.7 666.85,-206 640.7,-171.38 649.17,-152.03 618.85,-121 603.43,-105.23 582.03,-92.59 564.68,-83.96"/>
<polygon fill="#63b8ff" stroke="#63b8ff" points="566.06,-80.74 555.53,-79.59 563.04,-87.06 566.06,-80.74"/>
</a>
</g>
</g>
<!-- Node10 -->
<g id="Node000010" class="node">
<title>Node10</title>
<g id="a_Node000010"><a xlink:href="exception_8h.html" target="_top" xlink:title=" ">
<polygon fill="white" stroke="#666666" points="1102.85,-79.5 972.85,-79.5 972.85,-60.5 1102.85,-60.5 1102.85,-79.5"/>
<text text-anchor="middle" x="1037.85" y="-67.5" font-family="Helvetica,sans-Serif" font-size="10.00">exceptions/exception.h</text>
</a>
</g>
</g>
<!-- Node2&#45;&gt;Node10 -->
<g id="edge9_Node000002_Node000010" class="edge">
<title>Node2&#45;&gt;Node10</title>
<g id="a_edge9_Node000002_Node000010"><a xlink:title=" ">
<path fill="none" stroke="#63b8ff" d="M744.07,-249.75C789.76,-247.47 873.43,-238.73 935.85,-206 973.15,-186.44 979.07,-174.05 1003.85,-140 1015.48,-124.01 1025.03,-103.44 1031.02,-88.93"/>
<polygon fill="#63b8ff" stroke="#63b8ff" points="1034.29,-90.17 1034.72,-79.59 1027.78,-87.59 1034.29,-90.17"/>
</a>
</g>
</g>
<!-- Node12 -->
<g id="Node000012" class="node">
<title>Node12</title>
<g id="a_Node000012"><a xlink:href="logger_8h.html" target="_top" xlink:title=" ">
<polygon fill="white" stroke="#666666" points="817.35,-140 734.35,-140 734.35,-121 817.35,-121 817.35,-140"/>
<text text-anchor="middle" x="775.85" y="-128" font-family="Helvetica,sans-Serif" font-size="10.00">tools/logger.h</text>
</a>
</g>
</g>
<!-- Node2&#45;&gt;Node12 -->
<g id="edge12_Node000002_Node000012" class="edge">
<title>Node2&#45;&gt;Node12</title>
<g id="a_edge12_Node000002_Node000012"><a xlink:title=" ">
<path fill="none" stroke="#63b8ff" d="M715.52,-241.94C726.1,-222.57 752.07,-175.02 766.24,-149.08"/>
<polygon fill="#63b8ff" stroke="#63b8ff" points="769.32,-150.76 771.04,-140.3 763.17,-147.4 769.32,-150.76"/>
</a>
</g>
</g>
<!-- Node21 -->
<g id="Node000021" class="node">
<title>Node21</title>
<g id="a_Node000021"><a xlink:href="element__parameters_8h.html" target="_top" xlink:title=" ">
<polygon fill="white" stroke="#666666" points="926.35,-206 795.35,-206 795.35,-176 926.35,-176 926.35,-206"/>
<text text-anchor="start" x="803.35" y="-194" font-family="Helvetica,sans-Serif" font-size="10.00">element_parameters</text>
<text text-anchor="middle" x="860.85" y="-183" font-family="Helvetica,sans-Serif" font-size="10.00">/element_parameters.h</text>
</a>
</g>
</g>
<!-- Node2&#45;&gt;Node21 -->
<g id="edge26_Node000002_Node000021" class="edge">
<title>Node2&#45;&gt;Node21</title>
<g id="a_edge26_Node000002_Node000021"><a xlink:title=" ">
<path fill="none" stroke="#63b8ff" d="M732.66,-241.99C754.25,-233.57 787.95,-220.43 815.37,-209.73"/>
<polygon fill="#63b8ff" stroke="#63b8ff" points="816.74,-212.96 824.78,-206.06 814.2,-206.44 816.74,-212.96"/>
</a>
</g>
</g>
<!-- Node10&#45;&gt;Node4 -->
<g id="edge11_Node000010_Node000004" class="edge">
<title>Node10&#45;&gt;Node4</title>
<g id="a_edge11_Node000010_Node000004"><a xlink:title=" ">
<path fill="none" stroke="#63b8ff" d="M1016.18,-60.49C990.91,-50.57 948.93,-34.09 920.13,-22.78"/>
<polygon fill="#63b8ff" stroke="#63b8ff" points="921.13,-19.41 910.54,-19.02 918.57,-25.93 921.13,-19.41"/>
</a>
</g>
</g>
<!-- Node11 -->
<g id="Node000011" class="node">
<title>Node11</title>
<g id="a_Node000011"><a xlink:title=" ">
<polygon fill="#e0e0e0" stroke="#999999" points="1066.35,-19 1001.35,-19 1001.35,0 1066.35,0 1066.35,-19"/>
<text text-anchor="middle" x="1033.85" y="-7" font-family="Helvetica,sans-Serif" font-size="10.00">exception</text>
</a>
</g>
</g>
<!-- Node10&#45;&gt;Node11 -->
<g id="edge10_Node000010_Node000011" class="edge">
<title>Node10&#45;&gt;Node11</title>
<g id="a_edge10_Node000010_Node000011"><a xlink:title=" ">
<path fill="none" stroke="#63b8ff" d="M1037.26,-60.37C1036.7,-52.25 1035.85,-39.81 1035.14,-29.39"/>
<polygon fill="#63b8ff" stroke="#63b8ff" points="1038.61,-28.91 1034.44,-19.17 1031.63,-29.38 1038.61,-28.91"/>
</a>
</g>
</g>
<!-- Node12&#45;&gt;Node4 -->
<g id="edge14_Node000012_Node000004" class="edge">
<title>Node12&#45;&gt;Node4</title>
<g id="a_edge14_Node000012_Node000004"><a xlink:title=" ">
<path fill="none" stroke="#63b8ff" d="M734,-121.59C686.67,-110.81 619.64,-88.89 647.85,-55 673.98,-23.6 796.53,-14.27 856.13,-11.56"/>
<polygon fill="#63b8ff" stroke="#63b8ff" points="856.65,-15.05 866.49,-11.13 856.36,-8.05 856.65,-15.05"/>
</a>
</g>
</g>
<!-- Node12&#45;&gt;Node10 -->
<g id="edge18_Node000012_Node000010" class="edge">
<title>Node12&#45;&gt;Node10</title>
<g id="a_edge18_Node000012_Node000010"><a xlink:title=" ">
<path fill="none" stroke="#63b8ff" d="M813.94,-120.99C860.42,-110.62 939.02,-93.07 989.66,-81.76"/>
<polygon fill="#63b8ff" stroke="#63b8ff" points="990.71,-85.11 999.7,-79.52 989.18,-78.28 990.71,-85.11"/>
</a>
</g>
</g>
<!-- Node13 -->
<g id="Node000013" class="node">
<title>Node13</title>
<g id="a_Node000013"><a xlink:title=" ">
<polygon fill="#e0e0e0" stroke="#999999" points="716.85,-79.5 656.85,-79.5 656.85,-60.5 716.85,-60.5 716.85,-79.5"/>
<text text-anchor="middle" x="686.85" y="-67.5" font-family="Helvetica,sans-Serif" font-size="10.00">iostream</text>
</a>
</g>
</g>
<!-- Node12&#45;&gt;Node13 -->
<g id="edge13_Node000012_Node000013" class="edge">
<title>Node12&#45;&gt;Node13</title>
<g id="a_edge13_Node000012_Node000013"><a xlink:title=" ">
<path fill="none" stroke="#63b8ff" d="M762.71,-120.87C748.52,-111.54 725.65,-96.51 708.73,-85.38"/>
<polygon fill="#63b8ff" stroke="#63b8ff" points="710.31,-82.24 700.03,-79.67 706.47,-88.08 710.31,-82.24"/>
</a>
</g>
</g>
<!-- Node14 -->
<g id="Node000014" class="node">
<title>Node14</title>
<g id="a_Node000014"><a xlink:title=" ">
<polygon fill="#e0e0e0" stroke="#999999" points="1347.85,-19 1297.85,-19 1297.85,0 1347.85,0 1347.85,-19"/>
<text text-anchor="middle" x="1322.85" y="-7" font-family="Helvetica,sans-Serif" font-size="10.00">chrono</text>
</a>
</g>
</g>
<!-- Node12&#45;&gt;Node14 -->
<g id="edge15_Node000012_Node000014" class="edge">
<title>Node12&#45;&gt;Node14</title>
<g id="a_edge15_Node000012_Node000014"><a xlink:title=" ">
<path fill="none" stroke="#63b8ff" d="M817.52,-125.86C923.69,-116.5 1197.31,-91.86 1215.85,-85 1251.7,-71.73 1286.81,-43.55 1306.56,-25.9"/>
<polygon fill="#63b8ff" stroke="#63b8ff" points="1309.02,-28.39 1314.04,-19.06 1304.3,-23.23 1309.02,-28.39"/>
</a>
</g>
</g>
<!-- Node15 -->
<g id="Node000015" class="node">
<title>Node15</title>
<g id="a_Node000015"><a xlink:title=" ">
<polygon fill="#e0e0e0" stroke="#999999" points="790.85,-79.5 734.85,-79.5 734.85,-60.5 790.85,-60.5 790.85,-79.5"/>
<text text-anchor="middle" x="762.85" y="-67.5" font-family="Helvetica,sans-Serif" font-size="10.00">iomanip</text>
</a>
</g>
</g>
<!-- Node12&#45;&gt;Node15 -->
<g id="edge16_Node000012_Node000015" class="edge">
<title>Node12&#45;&gt;Node15</title>
<g id="a_edge16_Node000012_Node000015"><a xlink:title=" ">
<path fill="none" stroke="#63b8ff" d="M773.93,-120.87C772.1,-112.66 769.3,-100.04 766.97,-89.55"/>
<polygon fill="#63b8ff" stroke="#63b8ff" points="770.36,-88.67 764.77,-79.67 763.53,-90.19 770.36,-88.67"/>
</a>
</g>
</g>
<!-- Node16 -->
<g id="Node000016" class="node">
<title>Node16</title>
<g id="a_Node000016"><a xlink:title=" ">
<polygon fill="#e0e0e0" stroke="#999999" points="916.35,-85 809.35,-85 809.35,-55 916.35,-55 916.35,-85"/>
<text text-anchor="start" x="817.35" y="-73" font-family="Helvetica,sans-Serif" font-size="10.00">imgui&#45;platform&#45;kit</text>
<text text-anchor="middle" x="862.85" y="-62" font-family="Helvetica,sans-Serif" font-size="10.00">/log_window.h</text>
</a>
</g>
</g>
<!-- Node12&#45;&gt;Node16 -->
<g id="edge17_Node000012_Node000016" class="edge">
<title>Node12&#45;&gt;Node16</title>
<g id="a_edge17_Node000012_Node000016"><a xlink:title=" ">
<path fill="none" stroke="#63b8ff" d="M788.68,-120.87C800.38,-113 818.09,-101.09 833.27,-90.89"/>
<polygon fill="#63b8ff" stroke="#63b8ff" points="835.51,-93.6 841.86,-85.11 831.6,-87.79 835.51,-93.6"/>
</a>
</g>
</g>
<!-- Node17 -->
<g id="Node000017" class="node">
<title>Node17</title>
<g id="a_Node000017"><a xlink:href="utils_8h.html" target="_top" xlink:title=" ">
<polygon fill="white" stroke="#666666" points="1206.35,-79.5 1159.35,-79.5 1159.35,-60.5 1206.35,-60.5 1206.35,-79.5"/>
<text text-anchor="middle" x="1182.85" y="-67.5" font-family="Helvetica,sans-Serif" font-size="10.00">utils.h</text>
</a>
</g>
</g>
<!-- Node12&#45;&gt;Node17 -->
<g id="edge19_Node000012_Node000017" class="edge">
<title>Node12&#45;&gt;Node17</title>
<g id="a_edge19_Node000012_Node000017"><a xlink:title=" ">
<path fill="none" stroke="#63b8ff" d="M817.35,-124.86C880.93,-117.55 1006.18,-102.4 1111.85,-85 1124.12,-82.98 1137.52,-80.43 1149.34,-78.06"/>
<polygon fill="#63b8ff" stroke="#63b8ff" points="1150.15,-81.47 1159.25,-76.04 1148.75,-74.61 1150.15,-81.47"/>
</a>
</g>
</g>
<!-- Node17&#45;&gt;Node3 -->
<g id="edge21_Node000017_Node000003" class="edge">
<title>Node17&#45;&gt;Node3</title>
<g id="a_edge21_Node000017_Node000003"><a xlink:title=" ">
<path fill="none" stroke="#63b8ff" d="M1193.62,-60.37C1205.05,-51.21 1223.33,-36.56 1237.12,-25.51"/>
<polygon fill="#63b8ff" stroke="#63b8ff" points="1239.42,-28.15 1245.03,-19.17 1235.04,-22.69 1239.42,-28.15"/>
</a>
</g>
</g>
<!-- Node17&#45;&gt;Node4 -->
<g id="edge20_Node000017_Node000004" class="edge">
<title>Node17&#45;&gt;Node4</title>
<g id="a_edge20_Node000017_Node000004"><a xlink:title=" ">
<path fill="none" stroke="#63b8ff" d="M1161.78,-60.41C1156.33,-58.42 1150.42,-56.46 1144.85,-55 1049.93,-30.17 1020.65,-39.77 920.99,-19.03"/>
<polygon fill="#63b8ff" stroke="#63b8ff" points="921.64,-15.58 911.13,-16.92 920.18,-22.43 921.64,-15.58"/>
</a>
</g>
</g>
<!-- Node17&#45;&gt;Node14 -->
<g id="edge25_Node000017_Node000014" class="edge">
<title>Node17&#45;&gt;Node14</title>
<g id="a_edge25_Node000017_Node000014"><a xlink:title=" ">
<path fill="none" stroke="#63b8ff" d="M1203.2,-60.49C1226.84,-50.62 1266.05,-34.23 1293.1,-22.93"/>
<polygon fill="#63b8ff" stroke="#63b8ff" points="1294.59,-26.1 1302.47,-19.02 1291.89,-19.64 1294.59,-26.1"/>
</a>
</g>
</g>
<!-- Node18 -->
<g id="Node000018" class="node">
<title>Node18</title>
<g id="a_Node000018"><a xlink:title=" ">
<polygon fill="#e0e0e0" stroke="#999999" points="982.85,-19 928.85,-19 928.85,0 982.85,0 982.85,-19"/>
<text text-anchor="middle" x="955.85" y="-7" font-family="Helvetica,sans-Serif" font-size="10.00">random</text>
</a>
</g>
</g>
<!-- Node17&#45;&gt;Node18 -->
<g id="edge22_Node000017_Node000018" class="edge">
<title>Node17&#45;&gt;Node18</title>
<g id="a_edge22_Node000017_Node000018"><a xlink:title=" ">
<path fill="none" stroke="#63b8ff" d="M1160.9,-60.4C1155.68,-58.5 1150.1,-56.58 1144.85,-55 1137.55,-52.8 1046.15,-31.48 993.18,-19.17"/>
<polygon fill="#63b8ff" stroke="#63b8ff" points="993.67,-15.69 983.14,-16.83 992.09,-22.51 993.67,-15.69"/>
</a>
</g>
</g>
<!-- Node19 -->
<g id="Node000019" class="node">
<title>Node19</title>
<g id="a_Node000019"><a xlink:title=" ">
<polygon fill="#e0e0e0" stroke="#999999" points="1213.85,-19 1157.85,-19 1157.85,0 1213.85,0 1213.85,-19"/>
<text text-anchor="middle" x="1185.85" y="-7" font-family="Helvetica,sans-Serif" font-size="10.00">sstream</text>
</a>
</g>
</g>
<!-- Node17&#45;&gt;Node19 -->
<g id="edge23_Node000017_Node000019" class="edge">
<title>Node17&#45;&gt;Node19</title>
<g id="a_edge23_Node000017_Node000019"><a xlink:title=" ">
<path fill="none" stroke="#63b8ff" d="M1183.29,-60.37C1183.71,-52.25 1184.34,-39.81 1184.88,-29.39"/>
<polygon fill="#63b8ff" stroke="#63b8ff" points="1188.39,-29.33 1185.4,-19.17 1181.39,-28.97 1188.39,-29.33"/>
</a>
</g>
</g>
<!-- Node20 -->
<g id="Node000020" class="node">
<title>Node20</title>
<g id="a_Node000020"><a xlink:title=" ">
<polygon fill="#e0e0e0" stroke="#999999" points="1139.35,-19 1084.35,-19 1084.35,0 1139.35,0 1139.35,-19"/>
<text text-anchor="middle" x="1111.85" y="-7" font-family="Helvetica,sans-Serif" font-size="10.00">fstream</text>
</a>
</g>
</g>
<!-- Node17&#45;&gt;Node20 -->
<g id="edge24_Node000017_Node000020" class="edge">
<title>Node17&#45;&gt;Node20</title>
<g id="a_edge24_Node000017_Node000020"><a xlink:title=" ">
<path fill="none" stroke="#63b8ff" d="M1172.37,-60.37C1161.36,-51.3 1143.81,-36.84 1130.44,-25.82"/>
<polygon fill="#63b8ff" stroke="#63b8ff" points="1132.31,-22.83 1122.37,-19.17 1127.86,-28.23 1132.31,-22.83"/>
</a>
</g>
</g>
<!-- Node21&#45;&gt;Node4 -->
<g id="edge28_Node000021_Node000004" class="edge">
<title>Node21&#45;&gt;Node4</title>
<g id="a_edge28_Node000021_Node000004"><a xlink:title=" ">
<path fill="none" stroke="#63b8ff" d="M862.1,-175.97C863.99,-161.22 868.62,-137.85 879.85,-121 894.24,-99.4 914.48,-108.34 925.85,-85 931.69,-73.01 930.38,-67.54 925.85,-55 921.9,-44.09 913.99,-33.96 906.48,-26.14"/>
<polygon fill="#63b8ff" stroke="#63b8ff" points="908.89,-23.6 899.28,-19.13 904.01,-28.61 908.89,-23.6"/>
</a>
</g>
</g>
<!-- Node21&#45;&gt;Node12 -->
<g id="edge30_Node000021_Node000012" class="edge">
<title>Node21&#45;&gt;Node12</title>
<g id="a_edge30_Node000021_Node000012"><a xlink:title=" ">
<path fill="none" stroke="#63b8ff" d="M840.27,-175.84C827.18,-166.83 810.26,-155.18 797.05,-146.09"/>
<polygon fill="#63b8ff" stroke="#63b8ff" points="798.81,-143.05 788.58,-140.27 794.84,-148.82 798.81,-143.05"/>
</a>
</g>
</g>
<!-- Node22 -->
<g id="Node000022" class="node">
<title>Node22</title>
<g id="a_Node000022"><a xlink:title=" ">
<polygon fill="#e0e0e0" stroke="#999999" points="926.85,-140 888.85,-140 888.85,-121 926.85,-121 926.85,-140"/>
<text text-anchor="middle" x="907.85" y="-128" font-family="Helvetica,sans-Serif" font-size="10.00">map</text>
</a>
</g>
</g>
<!-- Node21&#45;&gt;Node22 -->
<g id="edge27_Node000021_Node000022" class="edge">
<title>Node21&#45;&gt;Node22</title>
<g id="a_edge27_Node000021_Node000022"><a xlink:title=" ">
<path fill="none" stroke="#63b8ff" d="M872.22,-175.84C878.91,-167.52 887.39,-156.96 894.4,-148.23"/>
<polygon fill="#63b8ff" stroke="#63b8ff" points="897.27,-150.25 900.8,-140.27 891.81,-145.87 897.27,-150.25"/>
</a>
</g>
</g>
<!-- Node23 -->
<g id="Node000023" class="node">
<title>Node23</title>
<g id="a_Node000023"><a xlink:title=" ">
<polygon fill="#e0e0e0" stroke="#999999" points="994.85,-140 944.85,-140 944.85,-121 994.85,-121 994.85,-140"/>
<text text-anchor="middle" x="969.85" y="-128" font-family="Helvetica,sans-Serif" font-size="10.00">format</text>
</a>
</g>
</g>
<!-- Node21&#45;&gt;Node23 -->
<g id="edge29_Node000021_Node000023" class="edge">
<title>Node21&#45;&gt;Node23</title>
<g id="a_edge29_Node000021_Node000023"><a xlink:title=" ">
<path fill="none" stroke="#63b8ff" d="M886.96,-175.99C904.49,-166.58 927.47,-154.24 944.78,-144.95"/>
<polygon fill="#63b8ff" stroke="#63b8ff" points="946.59,-147.95 953.75,-140.14 943.28,-141.78 946.59,-147.95"/>
</a>
</g>
</g>
<!-- Node24&#45;&gt;Node4 -->
<g id="edge32_Node000024_Node000004" class="edge">
<title>Node24&#45;&gt;Node4</title>
<g id="a_edge32_Node000024_Node000004"><a xlink:title=" ">
<path fill="none" stroke="#63b8ff" d="M239.12,-182.83C136.5,-168.32 -55.68,-130.27 15.85,-55 45.36,-23.95 702.16,-13.05 856.56,-10.91"/>
<polygon fill="#63b8ff" stroke="#63b8ff" points="856.84,-14.41 866.79,-10.78 856.75,-7.41 856.84,-14.41"/>
</a>
</g>
</g>
<!-- Node24&#45;&gt;Node12 -->
<g id="edge33_Node000024_Node000012" class="edge">
<title>Node24&#45;&gt;Node12</title>
<g id="a_edge33_Node000024_Node000012"><a xlink:title=" ">
<path fill="none" stroke="#63b8ff" d="M358.53,-182.17C374.25,-180.13 391.18,-177.96 406.85,-176 520.05,-161.84 652.9,-146.01 724.26,-137.57"/>
<polygon fill="#63b8ff" stroke="#63b8ff" points="724.81,-141.03 734.33,-136.38 723.99,-134.08 724.81,-141.03"/>
</a>
</g>
</g>
<!-- Node25 -->
<g id="Node000025" class="node">
<title>Node25</title>
<g id="a_Node000025"><a xlink:href="math_8h.html" target="_top" xlink:title=" ">
<polygon fill="white" stroke="#666666" points="337.85,-140 259.85,-140 259.85,-121 337.85,-121 337.85,-140"/>
<text text-anchor="middle" x="298.85" y="-128" font-family="Helvetica,sans-Serif" font-size="10.00">tools/math.h</text>
</a>
</g>
</g>
<!-- Node24&#45;&gt;Node25 -->
<g id="edge34_Node000024_Node000025" class="edge">
<title>Node24&#45;&gt;Node25</title>
<g id="a_edge34_Node000024_Node000025"><a xlink:title=" ">
<path fill="none" stroke="#63b8ff" d="M298.85,-181.37C298.85,-173.25 298.85,-160.81 298.85,-150.39"/>
<polygon fill="#63b8ff" stroke="#63b8ff" points="302.35,-150.17 298.85,-140.17 295.35,-150.17 302.35,-150.17"/>
</a>
</g>
</g>
<!-- Node25&#45;&gt;Node3 -->
<g id="edge35_Node000025_Node000003" class="edge">
<title>Node25&#45;&gt;Node3</title>
<g id="a_edge35_Node000025_Node000003"><a xlink:title=" ">
<path fill="none" stroke="#63b8ff" d="M302.55,-120.56C309.91,-104.12 328.11,-69.43 355.85,-55 438.96,-11.77 1089.09,-31.88 1221.91,-18.49"/>
<polygon fill="#63b8ff" stroke="#63b8ff" points="1222.68,-21.92 1232.18,-17.23 1221.82,-14.98 1222.68,-21.92"/>
</a>
</g>
</g>
<!-- Node25&#45;&gt;Node8 -->
<g id="edge39_Node000025_Node000008" class="edge">
<title>Node25&#45;&gt;Node8</title>
<g id="a_edge39_Node000025_Node000008"><a xlink:title=" ">
<path fill="none" stroke="#63b8ff" d="M321.82,-120.99C348.73,-111.03 393.52,-94.45 424.08,-83.13"/>
<polygon fill="#63b8ff" stroke="#63b8ff" points="425.68,-86.27 433.84,-79.52 423.25,-79.71 425.68,-86.27"/>
</a>
</g>
</g>
<!-- Node25&#45;&gt;Node9 -->
<g id="edge40_Node000025_Node000009" class="edge">
<title>Node25&#45;&gt;Node9</title>
<g id="a_edge40_Node000025_Node000009"><a xlink:title=" ">
<path fill="none" stroke="#63b8ff" d="M338.16,-122.42C378.61,-114.73 443.24,-101.35 497.85,-85 499.99,-84.36 502.18,-83.66 504.37,-82.92"/>
<polygon fill="#63b8ff" stroke="#63b8ff" points="505.65,-86.18 513.89,-79.52 503.3,-79.58 505.65,-86.18"/>
</a>
</g>
</g>
<!-- Node25&#45;&gt;Node18 -->
<g id="edge42_Node000025_Node000018" class="edge">
<title>Node25&#45;&gt;Node18</title>
<g id="a_edge42_Node000025_Node000018"><a xlink:title=" ">
<path fill="none" stroke="#63b8ff" d="M293.11,-120.82C283.7,-105.41 267.67,-73.17 284.85,-55 331.63,-5.49 813.2,-27.41 918.59,-18.55"/>
<polygon fill="#63b8ff" stroke="#63b8ff" points="919.26,-22 928.82,-17.42 918.49,-15.04 919.26,-22"/>
</a>
</g>
</g>
<!-- Node25&#45;&gt;Node20 -->
<g id="edge44_Node000025_Node000020" class="edge">
<title>Node25&#45;&gt;Node20</title>
<g id="a_edge44_Node000025_Node000020"><a xlink:title=" ">
<path fill="none" stroke="#63b8ff" d="M298.71,-120.83C298.99,-104.84 302.13,-70.86 322.85,-55 387.27,-5.67 955.7,-29.09 1074.02,-18.71"/>
<polygon fill="#63b8ff" stroke="#63b8ff" points="1074.48,-22.18 1084.04,-17.6 1073.71,-15.23 1074.48,-22.18"/>
</a>
</g>
</g>
<!-- Node25&#45;&gt;Node25 -->
<g id="edge38_Node000025_Node000025" class="edge">
<title>Node25&#45;&gt;Node25</title>
<g id="a_edge38_Node000025_Node000025"><a xlink:title=" ">
<path fill="none" stroke="#63b8ff" d="M319.89,-140.03C337.48,-144.11 355.85,-140.93 355.85,-130.5 355.85,-122.11 343.95,-118.41 330.14,-119.41"/>
<polygon fill="#63b8ff" stroke="#63b8ff" points="329.25,-116 319.89,-120.97 330.31,-122.92 329.25,-116"/>
</a>
</g>
</g>
<!-- Node26 -->
<g id="Node000026" class="node">
<title>Node26</title>
<g id="a_Node000026"><a xlink:title=" ">
<polygon fill="#e0e0e0" stroke="#999999" points="406.85,-79.5 364.85,-79.5 364.85,-60.5 406.85,-60.5 406.85,-79.5"/>
<text text-anchor="middle" x="385.85" y="-67.5" font-family="Helvetica,sans-Serif" font-size="10.00">array</text>
</a>
</g>
</g>
<!-- Node25&#45;&gt;Node26 -->
<g id="edge36_Node000025_Node000026" class="edge">
<title>Node25&#45;&gt;Node26</title>
<g id="a_edge36_Node000025_Node000026"><a xlink:title=" ">
<path fill="none" stroke="#63b8ff" d="M311.68,-120.87C325.56,-111.54 347.91,-96.51 364.46,-85.38"/>
<polygon fill="#63b8ff" stroke="#63b8ff" points="366.61,-88.15 372.96,-79.67 362.71,-82.34 366.61,-88.15"/>
</a>
</g>
</g>
<!-- Node27 -->
<g id="Node000027" class="node">
<title>Node27</title>
<g id="a_Node000027"><a xlink:title=" ">
<polygon fill="#e0e0e0" stroke="#999999" points="232.35,-79.5 185.35,-79.5 185.35,-60.5 232.35,-60.5 232.35,-79.5"/>
<text text-anchor="middle" x="208.85" y="-67.5" font-family="Helvetica,sans-Serif" font-size="10.00">cmath</text>
</a>
</g>
</g>
<!-- Node25&#45;&gt;Node27 -->
<g id="edge37_Node000025_Node000027" class="edge">
<title>Node25&#45;&gt;Node27</title>
<g id="a_edge37_Node000025_Node000027"><a xlink:title=" ">
<path fill="none" stroke="#63b8ff" d="M285.57,-120.87C271.21,-111.54 248.09,-96.51 230.98,-85.38"/>
<polygon fill="#63b8ff" stroke="#63b8ff" points="232.47,-82.18 222.18,-79.67 228.66,-88.05 232.47,-82.18"/>
</a>
</g>
</g>
<!-- Node28 -->
<g id="Node000028" class="node">
<title>Node28</title>
<g id="a_Node000028"><a xlink:title=" ">
<polygon fill="#e0e0e0" stroke="#999999" points="90.35,-79.5 25.35,-79.5 25.35,-60.5 90.35,-60.5 90.35,-79.5"/>
<text text-anchor="middle" x="57.85" y="-67.5" font-family="Helvetica,sans-Serif" font-size="10.00">functional</text>
</a>
</g>
</g>
<!-- Node25&#45;&gt;Node28 -->
<g id="edge41_Node000025_Node000028" class="edge">
<title>Node25&#45;&gt;Node28</title>
<g id="a_edge41_Node000025_Node000028"><a xlink:title=" ">
<path fill="none" stroke="#63b8ff" d="M259.82,-122.14C219.27,-114.19 154.15,-100.54 98.85,-85 96.38,-84.31 93.84,-83.55 91.29,-82.75"/>
<polygon fill="#63b8ff" stroke="#63b8ff" points="92.15,-79.35 81.56,-79.59 89.98,-86.01 92.15,-79.35"/>
</a>
</g>
</g>
<!-- Node29 -->
<g id="Node000029" class="node">
<title>Node29</title>
<g id="a_Node000029"><a xlink:title=" ">
<polygon fill="#e0e0e0" stroke="#999999" points="167.35,-79.5 108.35,-79.5 108.35,-60.5 167.35,-60.5 167.35,-79.5"/>
<text text-anchor="middle" x="137.85" y="-67.5" font-family="Helvetica,sans-Serif" font-size="10.00">numbers</text>
</a>
</g>
</g>
<!-- Node25&#45;&gt;Node29 -->
<g id="edge43_Node000025_Node000029" class="edge">
<title>Node25&#45;&gt;Node29</title>
<g id="a_edge43_Node000025_Node000029"><a xlink:title=" ">
<path fill="none" stroke="#63b8ff" d="M274.79,-120.84C249.99,-111.91 210.19,-97.54 175.85,-85 174.21,-84.4 172.54,-83.79 170.85,-83.17"/>
<polygon fill="#63b8ff" stroke="#63b8ff" points="171.74,-79.77 161.15,-79.61 169.33,-86.34 171.74,-79.77"/>
</a>
</g>
</g>
<!-- Node30&#45;&gt;Node2 -->
<g id="edge51_Node000030_Node000002" class="edge">
<title>Node30&#45;&gt;Node2</title>
<g id="a_edge51_Node000030_Node000002"><a xlink:title=" ">
<path fill="none" stroke="#63b8ff" d="M1108.37,-297.91C1011.96,-286.89 835.99,-266.79 754.45,-257.48"/>
<polygon fill="#63b8ff" stroke="#63b8ff" points="754.39,-253.95 744.06,-256.29 753.6,-260.91 754.39,-253.95"/>
</a>
</g>
</g>
<!-- Node30&#45;&gt;Node3 -->
<g id="edge46_Node000030_Node000003" class="edge">
<title>Node30&#45;&gt;Node3</title>
<g id="a_edge46_Node000030_Node000003"><a xlink:title=" ">
<path fill="none" stroke="#63b8ff" d="M1201.39,-296.92C1240.97,-282.28 1310.85,-248.43 1310.85,-192 1310.85,-192 1310.85,-192 1310.85,-129.5 1310.85,-89.89 1285.43,-49.14 1269.15,-27.11"/>
<polygon fill="#63b8ff" stroke="#63b8ff" points="1271.9,-24.93 1263.04,-19.12 1266.34,-29.19 1271.9,-24.93"/>
</a>
</g>
</g>
<!-- Node30&#45;&gt;Node4 -->
<g id="edge48_Node000030_Node000004" class="edge">
<title>Node30&#45;&gt;Node4</title>
<g id="a_edge48_Node000030_Node000004"><a xlink:title=" ">
<path fill="none" stroke="#63b8ff" d="M1125.27,-296.98C1104.49,-290.7 1082.31,-279.82 1069.85,-261 1018.25,-183.1 1171.52,-126.9 1111.85,-55 1085.8,-23.62 976.57,-28.03 921.15,-18.81"/>
<polygon fill="#63b8ff" stroke="#63b8ff" points="921.63,-15.34 911.14,-16.85 920.28,-22.21 921.63,-15.34"/>
</a>
</g>
</g>
<!-- Node30&#45;&gt;Node6 -->
<g id="edge47_Node000030_Node000006" class="edge">
<title>Node30&#45;&gt;Node6</title>
<g id="a_edge47_Node000030_Node000006"><a xlink:title=" ">
<path fill="none" stroke="#63b8ff" d="M1173.42,-296.97C1170.37,-278.73 1163.14,-235.57 1158.97,-210.64"/>
<polygon fill="#63b8ff" stroke="#63b8ff" points="1162.39,-209.91 1157.29,-200.63 1155.49,-211.07 1162.39,-209.91"/>
</a>
</g>
</g>
<!-- Node30&#45;&gt;Node10 -->
<g id="edge52_Node000030_Node000010" class="edge">
<title>Node30&#45;&gt;Node10</title>
<g id="a_edge52_Node000030_Node000010"><a xlink:title=" ">
<path fill="none" stroke="#63b8ff" d="M1179.58,-296.71C1190.63,-274.86 1215.63,-216.92 1193.85,-176 1168.5,-128.38 1110.88,-98.49 1073.21,-83.28"/>
<polygon fill="#63b8ff" stroke="#63b8ff" points="1074.22,-79.92 1063.63,-79.55 1071.68,-86.44 1074.22,-79.92"/>
</a>
</g>
</g>
<!-- Node30&#45;&gt;Node14 -->
<g id="edge50_Node000030_Node000014" class="edge">
<title>Node30&#45;&gt;Node14</title>
<g id="a_edge50_Node000030_Node000014"><a xlink:title=" ">
<path fill="none" stroke="#63b8ff" d="M1218.75,-296.9C1270.3,-283.95 1348.85,-254.04 1348.85,-192 1348.85,-192 1348.85,-192 1348.85,-129.5 1348.85,-92.99 1337.02,-51.6 1329.32,-28.52"/>
<polygon fill="#63b8ff" stroke="#63b8ff" points="1332.61,-27.33 1326.04,-19.02 1326,-29.61 1332.61,-27.33"/>
</a>
</g>
</g>
<!-- Node30&#45;&gt;Node17 -->
<g id="edge53_Node000030_Node000017" class="edge">
<title>Node30&#45;&gt;Node17</title>
<g id="a_edge53_Node000030_Node000017"><a xlink:title=" ">
<path fill="none" stroke="#63b8ff" d="M1190.88,-296.95C1203.26,-289.35 1219.49,-276.97 1226.85,-261 1254.3,-201.38 1214.94,-123.1 1194.22,-88.61"/>
<polygon fill="#63b8ff" stroke="#63b8ff" points="1196.96,-86.38 1188.71,-79.74 1191.01,-90.08 1196.96,-86.38"/>
</a>
</g>
</g>
<!-- Node31 -->
<g id="Node000031" class="node">
<title>Node31</title>
<g id="a_Node000031"><a xlink:title=" ">
<polygon fill="#e0e0e0" stroke="#999999" points="1146.85,-261 1078.85,-261 1078.85,-242 1146.85,-242 1146.85,-261"/>
<text text-anchor="middle" x="1112.85" y="-249" font-family="Helvetica,sans-Serif" font-size="10.00">filesystem</text>
</a>
</g>
</g>
<!-- Node30&#45;&gt;Node31 -->
<g id="edge49_Node000030_Node000031" class="edge">
<title>Node30&#45;&gt;Node31</title>
<g id="a_edge49_Node000030_Node000031"><a xlink:title=" ">
<path fill="none" stroke="#63b8ff" d="M1164.89,-296.98C1155.72,-289.15 1141.91,-277.34 1130.82,-267.86"/>
<polygon fill="#63b8ff" stroke="#63b8ff" points="1132.87,-265.01 1122.99,-261.17 1128.32,-270.33 1132.87,-265.01"/>
</a>
</g>
</g>
<!-- Node32&#45;&gt;Node2 -->
<g id="edge55_Node000032_Node000002" class="edge">
<title>Node32&#45;&gt;Node2</title>
<g id="a_edge55_Node000032_Node000002"><a xlink:title=" ">
<path fill="none" stroke="#63b8ff" d="M643.7,-296.98C655.99,-288.84 674.75,-276.41 689.32,-266.76"/>
<polygon fill="#63b8ff" stroke="#63b8ff" points="691.36,-269.61 697.76,-261.17 687.49,-263.78 691.36,-269.61"/>
</a>
</g>
</g>
<!-- Node32&#45;&gt;Node26 -->
<g id="edge56_Node000032_Node000026" class="edge">
<title>Node32&#45;&gt;Node26</title>
<g id="a_edge56_Node000032_Node000026"><a xlink:title=" ">
<path fill="none" stroke="#63b8ff" d="M578.41,-297.03C526.36,-285.72 448.5,-260.39 406.85,-206 380.61,-171.74 381.06,-117.99 383.51,-89.76"/>
<polygon fill="#63b8ff" stroke="#63b8ff" points="387.01,-89.97 384.58,-79.66 380.05,-89.24 387.01,-89.97"/>
</a>
</g>
</g>
</g>
</svg>
