<?xml version="1.0" encoding="UTF-8" standalone="no"?>
<!DOCTYPE svg PUBLIC "-//W3C//DTD SVG 1.1//EN"
 "http://www.w3.org/Graphics/SVG/1.1/DTD/svg11.dtd">
<!-- Generated by graphviz version 2.43.0 (0)
 -->
<!-- Title: include/elements/neural_field.h Pages: 1 -->
<svg width="1533pt" height="390pt"
 viewBox="0.00 0.00 1533.39 390.00" xmlns="http://www.w3.org/2000/svg" xmlns:xlink="http://www.w3.org/1999/xlink">
<g id="graph0" class="graph" transform="scale(1 1) rotate(0) translate(4 386)">
<title>include/elements/neural_field.h</title>
<!-- Node1 -->
<g id="Node000001" class="node">
<title>Node1</title>
<g id="a_Node000001"><a xlink:title=" ">
<polygon fill="#999999" stroke="#666666" points="879,-382 745,-382 745,-352 879,-352 879,-382"/>
<text text-anchor="start" x="753" y="-370" font-family="Helvetica,sans-Serif" font-size="10.00">include/elements/neural</text>
<text text-anchor="middle" x="812" y="-359" font-family="Helvetica,sans-Serif" font-size="10.00">_field.h</text>
</a>
</g>
</g>
<!-- Node2 -->
<g id="Node000002" class="node">
<title>Node2</title>
<g id="a_Node000002"><a xlink:href="element_8h.html" target="_top" xlink:title=" ">
<polygon fill="white" stroke="#666666" points="805,-261 739,-261 739,-242 805,-242 805,-261"/>
<text text-anchor="middle" x="772" y="-249" font-family="Helvetica,sans-Serif" font-size="10.00">element.h</text>
</a>
</g>
</g>
<!-- Node1&#45;&gt;Node2 -->
<g id="edge1_Node000001_Node000002" class="edge">
<title>Node1&#45;&gt;Node2</title>
<g id="a_edge1_Node000001_Node000002"><a xlink:title=" ">
<path fill="none" stroke="#63b8ff" d="M805.52,-351.72C801.14,-341.8 795.38,-328.23 791,-316 785.65,-301.09 780.56,-283.85 777,-271.1"/>
<polygon fill="#63b8ff" stroke="#63b8ff" points="780.31,-269.94 774.29,-261.22 773.56,-271.79 780.31,-269.94"/>
</a>
</g>
</g>
<!-- Node26 -->
<g id="Node000026" class="node">
<title>Node26</title>
<g id="a_Node000026"><a xlink:href="activation__function_8h.html" target="_top" xlink:title=" ">
<polygon fill="white" stroke="#666666" points="1292.5,-200.5 1173.5,-200.5 1173.5,-181.5 1292.5,-181.5 1292.5,-200.5"/>
<text text-anchor="middle" x="1233" y="-188.5" font-family="Helvetica,sans-Serif" font-size="10.00">activation_function.h</text>
</a>
</g>
</g>
<!-- Node1&#45;&gt;Node26 -->
<g id="edge33_Node000001_Node000026" class="edge">
<title>Node1&#45;&gt;Node26</title>
<g id="a_edge33_Node000001_Node000026"><a xlink:title=" ">
<path fill="none" stroke="#63b8ff" d="M872.51,-351.95C938.82,-335.27 1047.28,-304.18 1134,-261 1164.41,-245.86 1196.02,-222.21 1215.11,-206.91"/>
<polygon fill="#63b8ff" stroke="#63b8ff" points="1217.4,-209.56 1222.94,-200.53 1212.98,-204.13 1217.4,-209.56"/>
</a>
</g>
</g>
<!-- Node32 -->
<g id="Node000032" class="node">
<title>Node32</title>
<g id="a_Node000032"><a xlink:href="simulation_8h.html" target="_top" xlink:title=" ">
<polygon fill="white" stroke="#666666" points="401,-316 269,-316 269,-297 401,-297 401,-316"/>
<text text-anchor="middle" x="335" y="-304" font-family="Helvetica,sans-Serif" font-size="10.00">simulation/simulation.h</text>
</a>
</g>
</g>
<!-- Node1&#45;&gt;Node32 -->
<g id="edge46_Node000001_Node000032" class="edge">
<title>Node1&#45;&gt;Node32</title>
<g id="a_edge46_Node000001_Node000032"><a xlink:title=" ">
<path fill="none" stroke="#63b8ff" d="M744.92,-357.77C657.12,-347.01 503.59,-328.18 411.4,-316.87"/>
<polygon fill="#63b8ff" stroke="#63b8ff" points="411.65,-313.37 401.3,-315.63 410.8,-320.32 411.65,-313.37"/>
</a>
</g>
</g>
<!-- Node34 -->
<g id="Node000034" class="node">
<title>Node34</title>
<g id="a_Node000034"><a xlink:href="kernel_8h.html" target="_top" xlink:title=" ">
<polygon fill="white" stroke="#666666" points="904,-316 800,-316 800,-297 904,-297 904,-316"/>
<text text-anchor="middle" x="852" y="-304" font-family="Helvetica,sans-Serif" font-size="10.00">elements/kernel.h</text>
</a>
</g>
</g>
<!-- Node1&#45;&gt;Node34 -->
<g id="edge59_Node000001_Node000034" class="edge">
<title>Node1&#45;&gt;Node34</title>
<g id="a_edge59_Node000001_Node000034"><a xlink:title=" ">
<path fill="none" stroke="#63b8ff" d="M821.68,-351.84C827.25,-343.69 834.29,-333.4 840.18,-324.78"/>
<polygon fill="#63b8ff" stroke="#63b8ff" points="843.25,-326.5 846.01,-316.27 837.47,-322.55 843.25,-326.5"/>
</a>
</g>
</g>
<!-- Node3 -->
<g id="Node000003" class="node">
<title>Node3</title>
<g id="a_Node000003"><a xlink:title=" ">
<polygon fill="#e0e0e0" stroke="#999999" points="285.5,-19 238.5,-19 238.5,0 285.5,0 285.5,-19"/>
<text text-anchor="middle" x="262" y="-7" font-family="Helvetica,sans-Serif" font-size="10.00">vector</text>
</a>
</g>
</g>
<!-- Node2&#45;&gt;Node3 -->
<g id="edge2_Node000002_Node000003" class="edge">
<title>Node2&#45;&gt;Node3</title>
<g id="a_edge2_Node000002_Node000003"><a xlink:title=" ">
<path fill="none" stroke="#63b8ff" d="M738.69,-247.91C692.22,-243.48 605.88,-232.22 537,-206 512.78,-196.78 510.69,-186.51 487,-176 359.63,-119.51 270,-196.91 187,-85 179.06,-74.29 180.4,-66.59 187,-55 196.06,-39.09 213.29,-28.29 228.95,-21.31"/>
<polygon fill="#63b8ff" stroke="#63b8ff" points="230.48,-24.47 238.42,-17.45 227.84,-17.98 230.48,-24.47"/>
</a>
</g>
</g>
<!-- Node4 -->
<g id="Node000004" class="node">
<title>Node4</title>
<g id="a_Node000004"><a xlink:title=" ">
<polygon fill="#e0e0e0" stroke="#999999" points="870,-19 826,-19 826,0 870,0 870,-19"/>
<text text-anchor="middle" x="848" y="-7" font-family="Helvetica,sans-Serif" font-size="10.00">string</text>
</a>
</g>
</g>
<!-- Node2&#45;&gt;Node4 -->
<g id="edge3_Node000002_Node000004" class="edge">
<title>Node2&#45;&gt;Node4</title>
<g id="a_edge3_Node000002_Node000004"><a xlink:title=" ">
<path fill="none" stroke="#63b8ff" d="M805.01,-246.16C847.7,-239.79 918.44,-226.41 934,-206 978.93,-147.06 901.27,-60.98 865.06,-26.07"/>
<polygon fill="#63b8ff" stroke="#63b8ff" points="867.31,-23.37 857.63,-19.06 862.51,-28.47 867.31,-23.37"/>
</a>
</g>
</g>
<!-- Node5 -->
<g id="Node000005" class="node">
<title>Node5</title>
<g id="a_Node000005"><a xlink:title=" ">
<polygon fill="#e0e0e0" stroke="#999999" points="856.5,-200.5 763.5,-200.5 763.5,-181.5 856.5,-181.5 856.5,-200.5"/>
<text text-anchor="middle" x="810" y="-188.5" font-family="Helvetica,sans-Serif" font-size="10.00">unordered_map</text>
</a>
</g>
</g>
<!-- Node2&#45;&gt;Node5 -->
<g id="edge4_Node000002_Node000005" class="edge">
<title>Node2&#45;&gt;Node5</title>
<g id="a_edge4_Node000002_Node000005"><a xlink:title=" ">
<path fill="none" stroke="#63b8ff" d="M777.61,-241.87C783.16,-233.31 791.83,-219.97 798.8,-209.24"/>
<polygon fill="#63b8ff" stroke="#63b8ff" points="801.86,-210.96 804.37,-200.67 795.99,-207.15 801.86,-210.96"/>
</a>
</g>
</g>
<!-- Node6 -->
<g id="Node000006" class="node">
<title>Node6</title>
<g id="a_Node000006"><a xlink:title=" ">
<polygon fill="#e0e0e0" stroke="#999999" points="478,-200.5 420,-200.5 420,-181.5 478,-181.5 478,-200.5"/>
<text text-anchor="middle" x="449" y="-188.5" font-family="Helvetica,sans-Serif" font-size="10.00">memory</text>
</a>
</g>
</g>
<!-- Node2&#45;&gt;Node6 -->
<g id="edge5_Node000002_Node000006" class="edge">
<title>Node2&#45;&gt;Node6</title>
<g id="a_edge5_Node000002_Node000006"><a xlink:title=" ">
<path fill="none" stroke="#63b8ff" d="M738.91,-246.95C686.18,-240.91 580.05,-227.19 492,-206 488.97,-205.27 485.84,-204.43 482.72,-203.53"/>
<polygon fill="#63b8ff" stroke="#63b8ff" points="483.5,-200.11 472.92,-200.52 481.45,-206.8 483.5,-200.11"/>
</a>
</g>
</g>
<!-- Node7 -->
<g id="Node000007" class="node">
<title>Node7</title>
<g id="a_Node000007"><a xlink:title=" ">
<polygon fill="#e0e0e0" stroke="#999999" points="925,-200.5 875,-200.5 875,-181.5 925,-181.5 925,-200.5"/>
<text text-anchor="middle" x="900" y="-188.5" font-family="Helvetica,sans-Serif" font-size="10.00">ranges</text>
</a>
</g>
</g>
<!-- Node2&#45;&gt;Node7 -->
<g id="edge6_Node000002_Node000007" class="edge">
<title>Node2&#45;&gt;Node7</title>
<g id="a_edge6_Node000002_Node000007"><a xlink:title=" ">
<path fill="none" stroke="#63b8ff" d="M790.61,-241.99C812.04,-232.2 847.44,-216.02 872.15,-204.73"/>
<polygon fill="#63b8ff" stroke="#63b8ff" points="873.72,-207.86 881.37,-200.52 870.82,-201.49 873.72,-207.86"/>
</a>
</g>
</g>
<!-- Node8 -->
<g id="Node000008" class="node">
<title>Node8</title>
<g id="a_Node000008"><a xlink:title=" ">
<polygon fill="#e0e0e0" stroke="#999999" points="1045,-79.5 981,-79.5 981,-60.5 1045,-60.5 1045,-79.5"/>
<text text-anchor="middle" x="1013" y="-67.5" font-family="Helvetica,sans-Serif" font-size="10.00">algorithm</text>
</a>
</g>
</g>
<!-- Node2&#45;&gt;Node8 -->
<g id="edge7_Node000002_Node000008" class="edge">
<title>Node2&#45;&gt;Node8</title>
<g id="a_edge7_Node000002_Node000008"><a xlink:title=" ">
<path fill="none" stroke="#63b8ff" d="M805.17,-246.85C854.38,-240.79 943.46,-227.21 967,-206 1000.78,-175.57 1009.77,-119.33 1012.15,-89.97"/>
<polygon fill="#63b8ff" stroke="#63b8ff" points="1015.65,-90.02 1012.79,-79.82 1008.67,-89.58 1015.65,-90.02"/>
</a>
</g>
</g>
<!-- Node9 -->
<g id="Node000009" class="node">
<title>Node9</title>
<g id="a_Node000009"><a xlink:title=" ">
<polygon fill="#e0e0e0" stroke="#999999" points="1119,-79.5 1063,-79.5 1063,-60.5 1119,-60.5 1119,-79.5"/>
<text text-anchor="middle" x="1091" y="-67.5" font-family="Helvetica,sans-Serif" font-size="10.00">numeric</text>
</a>
</g>
</g>
<!-- Node2&#45;&gt;Node9 -->
<g id="edge8_Node000002_Node000009" class="edge">
<title>Node2&#45;&gt;Node9</title>
<g id="a_edge8_Node000002_Node000009"><a xlink:title=" ">
<path fill="none" stroke="#63b8ff" d="M805.14,-250.94C850.55,-250.03 933.07,-242.88 991,-206 1037,-176.72 1069.15,-118.2 1083.14,-88.77"/>
<polygon fill="#63b8ff" stroke="#63b8ff" points="1086.33,-90.22 1087.33,-79.67 1079.97,-87.29 1086.33,-90.22"/>
</a>
</g>
</g>
<!-- Node10 -->
<g id="Node000010" class="node">
<title>Node10</title>
<g id="a_Node000010"><a xlink:href="exception_8h.html" target="_top" xlink:title=" ">
<polygon fill="white" stroke="#666666" points="571,-79.5 441,-79.5 441,-60.5 571,-60.5 571,-79.5"/>
<text text-anchor="middle" x="506" y="-67.5" font-family="Helvetica,sans-Serif" font-size="10.00">exceptions/exception.h</text>
</a>
</g>
</g>
<!-- Node2&#45;&gt;Node10 -->
<g id="edge9_Node000002_Node000010" class="edge">
<title>Node2&#45;&gt;Node10</title>
<g id="a_edge9_Node000002_Node000010"><a xlink:title=" ">
<path fill="none" stroke="#63b8ff" d="M738.9,-247.01C687.63,-241.01 592.19,-227.29 566,-206 529.28,-176.15 514.32,-119.2 508.83,-89.72"/>
<polygon fill="#63b8ff" stroke="#63b8ff" points="512.23,-88.84 507.12,-79.56 505.33,-90 512.23,-88.84"/>
</a>
</g>
</g>
<!-- Node13 -->
<g id="Node000013" class="node">
<title>Node13</title>
<g id="a_Node000013"><a xlink:href="logger_8h.html" target="_top" xlink:title=" ">
<polygon fill="white" stroke="#666666" points="779.5,-140 696.5,-140 696.5,-121 779.5,-121 779.5,-140"/>
<text text-anchor="middle" x="738" y="-128" font-family="Helvetica,sans-Serif" font-size="10.00">tools/logger.h</text>
</a>
</g>
</g>
<!-- Node2&#45;&gt;Node13 -->
<g id="edge13_Node000002_Node000013" class="edge">
<title>Node2&#45;&gt;Node13</title>
<g id="a_edge13_Node000002_Node000013"><a xlink:title=" ">
<path fill="none" stroke="#63b8ff" d="M767.96,-241.8C763.97,-232.94 757.91,-218.75 754,-206 748.31,-187.46 743.89,-165.72 741.15,-150.52"/>
<polygon fill="#63b8ff" stroke="#63b8ff" points="744.54,-149.6 739.39,-140.34 737.64,-150.79 744.54,-149.6"/>
</a>
</g>
</g>
<!-- Node23 -->
<g id="Node000023" class="node">
<title>Node23</title>
<g id="a_Node000023"><a xlink:href="element__parameters_8h.html" target="_top" xlink:title=" ">
<polygon fill="white" stroke="#666666" points="706.5,-206 575.5,-206 575.5,-176 706.5,-176 706.5,-206"/>
<text text-anchor="start" x="583.5" y="-194" font-family="Helvetica,sans-Serif" font-size="10.00">element_parameters</text>
<text text-anchor="middle" x="641" y="-183" font-family="Helvetica,sans-Serif" font-size="10.00">/element_parameters.h</text>
</a>
</g>
</g>
<!-- Node2&#45;&gt;Node23 -->
<g id="edge28_Node000002_Node000023" class="edge">
<title>Node2&#45;&gt;Node23</title>
<g id="a_edge28_Node000002_Node000023"><a xlink:title=" ">
<path fill="none" stroke="#63b8ff" d="M752.95,-241.99C734.35,-233.68 705.44,-220.78 681.66,-210.16"/>
<polygon fill="#63b8ff" stroke="#63b8ff" points="683.05,-206.95 672.49,-206.06 680.2,-213.34 683.05,-206.95"/>
</a>
</g>
</g>
<!-- Node10&#45;&gt;Node4 -->
<g id="edge12_Node000010_Node000004" class="edge">
<title>Node10&#45;&gt;Node4</title>
<g id="a_edge12_Node000010_Node000004"><a xlink:title=" ">
<path fill="none" stroke="#63b8ff" d="M550.19,-60.47C560,-58.63 570.34,-56.71 580,-55 664.97,-39.91 765.4,-23.66 815.77,-15.61"/>
<polygon fill="#63b8ff" stroke="#63b8ff" points="816.41,-19.05 825.74,-14.02 815.31,-12.14 816.41,-19.05"/>
</a>
</g>
</g>
<!-- Node11 -->
<g id="Node000011" class="node">
<title>Node11</title>
<g id="a_Node000011"><a xlink:title=" ">
<polygon fill="#e0e0e0" stroke="#999999" points="483,-19 433,-19 433,0 483,0 483,-19"/>
<text text-anchor="middle" x="458" y="-7" font-family="Helvetica,sans-Serif" font-size="10.00">cstdint</text>
</a>
</g>
</g>
<!-- Node10&#45;&gt;Node11 -->
<g id="edge10_Node000010_Node000011" class="edge">
<title>Node10&#45;&gt;Node11</title>
<g id="a_edge10_Node000010_Node000011"><a xlink:title=" ">
<path fill="none" stroke="#63b8ff" d="M498.92,-60.37C491.76,-51.64 480.51,-37.93 471.61,-27.09"/>
<polygon fill="#63b8ff" stroke="#63b8ff" points="474.16,-24.68 465.11,-19.17 468.75,-29.12 474.16,-24.68"/>
</a>
</g>
</g>
<!-- Node12 -->
<g id="Node000012" class="node">
<title>Node12</title>
<g id="a_Node000012"><a xlink:title=" ">
<polygon fill="#e0e0e0" stroke="#999999" points="566.5,-19 501.5,-19 501.5,0 566.5,0 566.5,-19"/>
<text text-anchor="middle" x="534" y="-7" font-family="Helvetica,sans-Serif" font-size="10.00">exception</text>
</a>
</g>
</g>
<!-- Node10&#45;&gt;Node12 -->
<g id="edge11_Node000010_Node000012" class="edge">
<title>Node10&#45;&gt;Node12</title>
<g id="a_edge11_Node000010_Node000012"><a xlink:title=" ">
<path fill="none" stroke="#63b8ff" d="M510.13,-60.37C514.14,-51.99 520.35,-39.01 525.44,-28.39"/>
<polygon fill="#63b8ff" stroke="#63b8ff" points="528.69,-29.7 529.85,-19.17 522.38,-26.68 528.69,-29.7"/>
</a>
</g>
</g>
<!-- Node13&#45;&gt;Node4 -->
<g id="edge15_Node000013_Node000004" class="edge">
<title>Node13&#45;&gt;Node4</title>
<g id="a_edge15_Node000013_Node000004"><a xlink:title=" ">
<path fill="none" stroke="#63b8ff" d="M779.53,-125.95C806.74,-121.21 840.42,-110.26 858,-85 869.49,-68.48 863.51,-44.83 856.94,-28.63"/>
<polygon fill="#63b8ff" stroke="#63b8ff" points="860,-26.9 852.71,-19.21 853.61,-29.77 860,-26.9"/>
</a>
</g>
</g>
<!-- Node13&#45;&gt;Node10 -->
<g id="edge19_Node000013_Node000010" class="edge">
<title>Node13&#45;&gt;Node10</title>
<g id="a_edge19_Node000013_Node000010"><a xlink:title=" ">
<path fill="none" stroke="#63b8ff" d="M704.27,-120.99C663.37,-110.68 594.38,-93.28 549.52,-81.97"/>
<polygon fill="#63b8ff" stroke="#63b8ff" points="550.33,-78.57 539.78,-79.52 548.62,-85.36 550.33,-78.57"/>
</a>
</g>
</g>
<!-- Node14 -->
<g id="Node000014" class="node">
<title>Node14</title>
<g id="a_Node000014"><a xlink:title=" ">
<polygon fill="#e0e0e0" stroke="#999999" points="775,-79.5 715,-79.5 715,-60.5 775,-60.5 775,-79.5"/>
<text text-anchor="middle" x="745" y="-67.5" font-family="Helvetica,sans-Serif" font-size="10.00">iostream</text>
</a>
</g>
</g>
<!-- Node13&#45;&gt;Node14 -->
<g id="edge14_Node000013_Node000014" class="edge">
<title>Node13&#45;&gt;Node14</title>
<g id="a_edge14_Node000013_Node000014"><a xlink:title=" ">
<path fill="none" stroke="#63b8ff" d="M739.03,-120.87C740,-112.75 741.49,-100.31 742.74,-89.89"/>
<polygon fill="#63b8ff" stroke="#63b8ff" points="746.25,-90.01 743.96,-79.67 739.3,-89.18 746.25,-90.01"/>
</a>
</g>
</g>
<!-- Node15 -->
<g id="Node000015" class="node">
<title>Node15</title>
<g id="a_Node000015"><a xlink:title=" ">
<polygon fill="#e0e0e0" stroke="#999999" points="146,-19 96,-19 96,0 146,0 146,-19"/>
<text text-anchor="middle" x="121" y="-7" font-family="Helvetica,sans-Serif" font-size="10.00">chrono</text>
</a>
</g>
</g>
<!-- Node13&#45;&gt;Node15 -->
<g id="edge16_Node000013_Node000015" class="edge">
<title>Node13&#45;&gt;Node15</title>
<g id="a_edge16_Node000013_Node000015"><a xlink:title=" ">
<path fill="none" stroke="#63b8ff" d="M696.3,-122.22C693.16,-121.78 690.03,-121.36 687,-121 576.38,-107.83 286.88,-134.34 187,-85 161.9,-72.6 142.14,-46.06 131.01,-28.24"/>
<polygon fill="#63b8ff" stroke="#63b8ff" points="133.86,-26.19 125.74,-19.39 127.84,-29.77 133.86,-26.19"/>
</a>
</g>
</g>
<!-- Node16 -->
<g id="Node000016" class="node">
<title>Node16</title>
<g id="a_Node000016"><a xlink:title=" ">
<polygon fill="#e0e0e0" stroke="#999999" points="849,-79.5 793,-79.5 793,-60.5 849,-60.5 849,-79.5"/>
<text text-anchor="middle" x="821" y="-67.5" font-family="Helvetica,sans-Serif" font-size="10.00">iomanip</text>
</a>
</g>
</g>
<!-- Node13&#45;&gt;Node16 -->
<g id="edge17_Node000013_Node000016" class="edge">
<title>Node13&#45;&gt;Node16</title>
<g id="a_edge17_Node000013_Node000016"><a xlink:title=" ">
<path fill="none" stroke="#63b8ff" d="M750.25,-120.87C763.36,-111.62 784.42,-96.78 800.15,-85.69"/>
<polygon fill="#63b8ff" stroke="#63b8ff" points="802.55,-88.29 808.7,-79.67 798.51,-82.57 802.55,-88.29"/>
</a>
</g>
</g>
<!-- Node17 -->
<g id="Node000017" class="node">
<title>Node17</title>
<g id="a_Node000017"><a xlink:title=" ">
<polygon fill="#e0e0e0" stroke="#999999" points="696.5,-85 589.5,-85 589.5,-55 696.5,-55 696.5,-85"/>
<text text-anchor="start" x="597.5" y="-73" font-family="Helvetica,sans-Serif" font-size="10.00">imgui&#45;platform&#45;kit</text>
<text text-anchor="middle" x="643" y="-62" font-family="Helvetica,sans-Serif" font-size="10.00">/log_window.h</text>
</a>
</g>
</g>
<!-- Node13&#45;&gt;Node17 -->
<g id="edge18_Node000013_Node000017" class="edge">
<title>Node13&#45;&gt;Node17</title>
<g id="a_edge18_Node000013_Node000017"><a xlink:title=" ">
<path fill="none" stroke="#63b8ff" d="M723.98,-120.87C711.09,-112.93 691.51,-100.87 674.83,-90.6"/>
<polygon fill="#63b8ff" stroke="#63b8ff" points="676.27,-87.38 665.92,-85.11 672.6,-93.34 676.27,-87.38"/>
</a>
</g>
</g>
<!-- Node18 -->
<g id="Node000018" class="node">
<title>Node18</title>
<g id="a_Node000018"><a xlink:href="utils_8h.html" target="_top" xlink:title=" ">
<polygon fill="white" stroke="#666666" points="243.5,-79.5 196.5,-79.5 196.5,-60.5 243.5,-60.5 243.5,-79.5"/>
<text text-anchor="middle" x="220" y="-67.5" font-family="Helvetica,sans-Serif" font-size="10.00">utils.h</text>
</a>
</g>
</g>
<!-- Node13&#45;&gt;Node18 -->
<g id="edge20_Node000013_Node000018" class="edge">
<title>Node13&#45;&gt;Node18</title>
<g id="a_edge20_Node000013_Node000018"><a xlink:title=" ">
<path fill="none" stroke="#63b8ff" d="M696.29,-122.26C693.15,-121.8 690.03,-121.38 687,-121 494.49,-97.03 440.08,-132.52 252,-85 250.1,-84.52 248.18,-83.94 246.26,-83.29"/>
<polygon fill="#63b8ff" stroke="#63b8ff" points="247.49,-80.02 236.9,-79.63 244.94,-86.53 247.49,-80.02"/>
</a>
</g>
</g>
<!-- Node18&#45;&gt;Node3 -->
<g id="edge22_Node000018_Node000003" class="edge">
<title>Node18&#45;&gt;Node3</title>
<g id="a_edge22_Node000018_Node000003"><a xlink:title=" ">
<path fill="none" stroke="#63b8ff" d="M226.2,-60.37C232.4,-51.73 242.11,-38.2 249.86,-27.42"/>
<polygon fill="#63b8ff" stroke="#63b8ff" points="252.79,-29.33 255.78,-19.17 247.1,-25.25 252.79,-29.33"/>
</a>
</g>
</g>
<!-- Node18&#45;&gt;Node4 -->
<g id="edge21_Node000018_Node000004" class="edge">
<title>Node18&#45;&gt;Node4</title>
<g id="a_edge21_Node000018_Node000004"><a xlink:title=" ">
<path fill="none" stroke="#63b8ff" d="M236.56,-60.47C241.42,-58.33 246.82,-56.28 252,-55 472.21,-0.76 535.01,-38.03 761,-19 779.11,-17.48 799.32,-15.52 815.7,-13.86"/>
<polygon fill="#63b8ff" stroke="#63b8ff" points="816.25,-17.33 825.84,-12.83 815.54,-10.36 816.25,-17.33"/>
</a>
</g>
</g>
<!-- Node18&#45;&gt;Node15 -->
<g id="edge26_Node000018_Node000015" class="edge">
<title>Node18&#45;&gt;Node15</title>
<g id="a_edge26_Node000018_Node000015"><a xlink:title=" ">
<path fill="none" stroke="#63b8ff" d="M205.39,-60.37C189.31,-50.86 163.22,-35.45 144.3,-24.27"/>
<polygon fill="#63b8ff" stroke="#63b8ff" points="146.06,-21.24 135.67,-19.17 142.5,-27.27 146.06,-21.24"/>
</a>
</g>
</g>
<!-- Node19 -->
<g id="Node000019" class="node">
<title>Node19</title>
<g id="a_Node000019"><a xlink:title=" ">
<polygon fill="#e0e0e0" stroke="#999999" points="752,-19 698,-19 698,0 752,0 752,-19"/>
<text text-anchor="middle" x="725" y="-7" font-family="Helvetica,sans-Serif" font-size="10.00">random</text>
</a>
</g>
</g>
<!-- Node18&#45;&gt;Node19 -->
<g id="edge23_Node000018_Node000019" class="edge">
<title>Node18&#45;&gt;Node19</title>
<g id="a_edge23_Node000018_Node000019"><a xlink:title=" ">
<path fill="none" stroke="#63b8ff" d="M236.91,-60.41C241.68,-58.31 246.95,-56.31 252,-55 334.36,-33.7 591.07,-17.83 687.71,-12.47"/>
<polygon fill="#63b8ff" stroke="#63b8ff" points="688.09,-15.96 697.88,-11.92 687.71,-8.97 688.09,-15.96"/>
</a>
</g>
</g>
<!-- Node20 -->
<g id="Node000020" class="node">
<title>Node20</title>
<g id="a_Node000020"><a xlink:title=" ">
<polygon fill="#e0e0e0" stroke="#999999" points="220,-19 164,-19 164,0 220,0 220,-19"/>
<text text-anchor="middle" x="192" y="-7" font-family="Helvetica,sans-Serif" font-size="10.00">sstream</text>
</a>
</g>
</g>
<!-- Node18&#45;&gt;Node20 -->
<g id="edge24_Node000018_Node000020" class="edge">
<title>Node18&#45;&gt;Node20</title>
<g id="a_edge24_Node000018_Node000020"><a xlink:title=" ">
<path fill="none" stroke="#63b8ff" d="M215.87,-60.37C211.86,-51.99 205.65,-39.01 200.56,-28.39"/>
<polygon fill="#63b8ff" stroke="#63b8ff" points="203.62,-26.68 196.15,-19.17 197.31,-29.7 203.62,-26.68"/>
</a>
</g>
</g>
<!-- Node21 -->
<g id="Node000021" class="node">
<title>Node21</title>
<g id="a_Node000021"><a xlink:title=" ">
<polygon fill="#e0e0e0" stroke="#999999" points="358.5,-19 303.5,-19 303.5,0 358.5,0 358.5,-19"/>
<text text-anchor="middle" x="331" y="-7" font-family="Helvetica,sans-Serif" font-size="10.00">fstream</text>
</a>
</g>
</g>
<!-- Node18&#45;&gt;Node21 -->
<g id="edge25_Node000018_Node000021" class="edge">
<title>Node18&#45;&gt;Node21</title>
<g id="a_edge25_Node000018_Node000021"><a xlink:title=" ">
<path fill="none" stroke="#63b8ff" d="M236.38,-60.37C254.58,-50.78 284.2,-35.17 305.45,-23.97"/>
<polygon fill="#63b8ff" stroke="#63b8ff" points="307.34,-26.93 314.55,-19.17 304.08,-20.73 307.34,-26.93"/>
</a>
</g>
</g>
<!-- Node22 -->
<g id="Node000022" class="node">
<title>Node22</title>
<g id="a_Node000022"><a xlink:title=" ">
<polygon fill="#e0e0e0" stroke="#999999" points="68,-19 0,-19 0,0 68,0 68,-19"/>
<text text-anchor="middle" x="34" y="-7" font-family="Helvetica,sans-Serif" font-size="10.00">filesystem</text>
</a>
</g>
</g>
<!-- Node18&#45;&gt;Node22 -->
<g id="edge27_Node000018_Node000022" class="edge">
<title>Node18&#45;&gt;Node22</title>
<g id="a_edge27_Node000018_Node000022"><a xlink:title=" ">
<path fill="none" stroke="#63b8ff" d="M196.44,-61.59C164.9,-51.67 108.6,-33.96 71.27,-22.22"/>
<polygon fill="#63b8ff" stroke="#63b8ff" points="71.87,-18.74 61.28,-19.08 69.77,-25.42 71.87,-18.74"/>
</a>
</g>
</g>
<!-- Node23&#45;&gt;Node4 -->
<g id="edge30_Node000023_Node000004" class="edge">
<title>Node23&#45;&gt;Node4</title>
<g id="a_edge30_Node000023_Node000004"><a xlink:title=" ">
<path fill="none" stroke="#63b8ff" d="M706.53,-181.99C763.45,-171.03 841.81,-145.26 875,-85 885.32,-66.26 873.15,-42.81 861.99,-27.27"/>
<polygon fill="#63b8ff" stroke="#63b8ff" points="864.6,-24.92 855.72,-19.14 859.05,-29.19 864.6,-24.92"/>
</a>
</g>
</g>
<!-- Node23&#45;&gt;Node13 -->
<g id="edge32_Node000023_Node000013" class="edge">
<title>Node23&#45;&gt;Node13</title>
<g id="a_edge32_Node000023_Node000013"><a xlink:title=" ">
<path fill="none" stroke="#63b8ff" d="M664.48,-175.84C679.8,-166.6 699.71,-154.59 714.95,-145.4"/>
<polygon fill="#63b8ff" stroke="#63b8ff" points="716.99,-148.26 723.75,-140.09 713.38,-142.26 716.99,-148.26"/>
</a>
</g>
</g>
<!-- Node24 -->
<g id="Node000024" class="node">
<title>Node24</title>
<g id="a_Node000024"><a xlink:title=" ">
<polygon fill="#e0e0e0" stroke="#999999" points="610,-140 572,-140 572,-121 610,-121 610,-140"/>
<text text-anchor="middle" x="591" y="-128" font-family="Helvetica,sans-Serif" font-size="10.00">map</text>
</a>
</g>
</g>
<!-- Node23&#45;&gt;Node24 -->
<g id="edge29_Node000023_Node000024" class="edge">
<title>Node23&#45;&gt;Node24</title>
<g id="a_edge29_Node000023_Node000024"><a xlink:title=" ">
<path fill="none" stroke="#63b8ff" d="M628.9,-175.84C621.71,-167.43 612.57,-156.74 605.07,-147.96"/>
<polygon fill="#63b8ff" stroke="#63b8ff" points="607.65,-145.59 598.49,-140.27 602.33,-150.14 607.65,-145.59"/>
</a>
</g>
</g>
<!-- Node25 -->
<g id="Node000025" class="node">
<title>Node25</title>
<g id="a_Node000025"><a xlink:title=" ">
<polygon fill="#e0e0e0" stroke="#999999" points="678,-140 628,-140 628,-121 678,-121 678,-140"/>
<text text-anchor="middle" x="653" y="-128" font-family="Helvetica,sans-Serif" font-size="10.00">format</text>
</a>
</g>
</g>
<!-- Node23&#45;&gt;Node25 -->
<g id="edge31_Node000023_Node000025" class="edge">
<title>Node23&#45;&gt;Node25</title>
<g id="a_edge31_Node000023_Node000025"><a xlink:title=" ">
<path fill="none" stroke="#63b8ff" d="M643.9,-175.84C645.49,-168.13 647.46,-158.49 649.17,-150.17"/>
<polygon fill="#63b8ff" stroke="#63b8ff" points="652.62,-150.77 651.2,-140.27 645.76,-149.36 652.62,-150.77"/>
</a>
</g>
</g>
<!-- Node26&#45;&gt;Node4 -->
<g id="edge34_Node000026_Node000004" class="edge">
<title>Node26&#45;&gt;Node4</title>
<g id="a_edge34_Node000026_Node000004"><a xlink:title=" ">
<path fill="none" stroke="#63b8ff" d="M1292.58,-182.51C1393.21,-167.65 1579.42,-129.25 1510,-55 1466.67,-8.65 1007.56,-9.12 880.45,-10.15"/>
<polygon fill="#63b8ff" stroke="#63b8ff" points="880.17,-6.65 870.21,-10.24 880.24,-13.65 880.17,-6.65"/>
</a>
</g>
</g>
<!-- Node26&#45;&gt;Node13 -->
<g id="edge35_Node000026_Node000013" class="edge">
<title>Node26&#45;&gt;Node13</title>
<g id="a_edge35_Node000026_Node000013"><a xlink:title=" ">
<path fill="none" stroke="#63b8ff" d="M1173.29,-182.94C1075.27,-171.36 881.91,-148.51 789.51,-137.59"/>
<polygon fill="#63b8ff" stroke="#63b8ff" points="789.9,-134.11 779.56,-136.41 789.08,-141.06 789.9,-134.11"/>
</a>
</g>
</g>
<!-- Node27 -->
<g id="Node000027" class="node">
<title>Node27</title>
<g id="a_Node000027"><a xlink:href="math_8h.html" target="_top" xlink:title=" ">
<polygon fill="white" stroke="#666666" points="1276,-140 1198,-140 1198,-121 1276,-121 1276,-140"/>
<text text-anchor="middle" x="1237" y="-128" font-family="Helvetica,sans-Serif" font-size="10.00">tools/math.h</text>
</a>
</g>
</g>
<!-- Node26&#45;&gt;Node27 -->
<g id="edge36_Node000026_Node000027" class="edge">
<title>Node26&#45;&gt;Node27</title>
<g id="a_edge36_Node000026_Node000027"><a xlink:title=" ">
<path fill="none" stroke="#63b8ff" d="M1233.59,-181.37C1234.15,-173.25 1235,-160.81 1235.71,-150.39"/>
<polygon fill="#63b8ff" stroke="#63b8ff" points="1239.22,-150.38 1236.41,-140.17 1232.23,-149.91 1239.22,-150.38"/>
</a>
</g>
</g>
<!-- Node27&#45;&gt;Node3 -->
<g id="edge37_Node000027_Node000003" class="edge">
<title>Node27&#45;&gt;Node3</title>
<g id="a_edge37_Node000027_Node000003"><a xlink:title=" ">
<path fill="none" stroke="#63b8ff" d="M1234.2,-120.6C1228.5,-104.22 1213.87,-69.63 1188,-55 1103.83,-7.41 430.62,-32.39 295.72,-18.65"/>
<polygon fill="#63b8ff" stroke="#63b8ff" points="296,-15.16 285.64,-17.4 295.14,-22.11 296,-15.16"/>
</a>
</g>
</g>
<!-- Node27&#45;&gt;Node8 -->
<g id="edge40_Node000027_Node000008" class="edge">
<title>Node27&#45;&gt;Node8</title>
<g id="a_edge40_Node000027_Node000008"><a xlink:title=" ">
<path fill="none" stroke="#63b8ff" d="M1197.82,-121.05C1160.58,-112.77 1103.12,-99.33 1054,-85 1051.54,-84.28 1049,-83.51 1046.46,-82.7"/>
<polygon fill="#63b8ff" stroke="#63b8ff" points="1047.32,-79.3 1036.73,-79.51 1045.14,-85.95 1047.32,-79.3"/>
</a>
</g>
</g>
<!-- Node27&#45;&gt;Node9 -->
<g id="edge41_Node000027_Node000009" class="edge">
<title>Node27&#45;&gt;Node9</title>
<g id="a_edge41_Node000027_Node000009"><a xlink:title=" ">
<path fill="none" stroke="#63b8ff" d="M1215.77,-120.99C1191.01,-111.07 1149.88,-94.59 1121.65,-83.28"/>
<polygon fill="#63b8ff" stroke="#63b8ff" points="1122.84,-79.99 1112.26,-79.52 1120.24,-86.49 1122.84,-79.99"/>
</a>
</g>
</g>
<!-- Node27&#45;&gt;Node19 -->
<g id="edge43_Node000027_Node000019" class="edge">
<title>Node27&#45;&gt;Node19</title>
<g id="a_edge43_Node000027_Node000019"><a xlink:title=" ">
<path fill="none" stroke="#63b8ff" d="M1276.1,-129.91C1361.72,-129.61 1553.24,-121.71 1490,-55 1464.24,-27.83 854.34,-21.72 817,-19 799.15,-17.7 779.39,-15.92 762.77,-14.32"/>
<polygon fill="#63b8ff" stroke="#63b8ff" points="762.64,-10.79 752.35,-13.31 761.96,-17.76 762.64,-10.79"/>
</a>
</g>
</g>
<!-- Node27&#45;&gt;Node21 -->
<g id="edge45_Node000027_Node000021" class="edge">
<title>Node27&#45;&gt;Node21</title>
<g id="a_edge45_Node000027_Node000021"><a xlink:title=" ">
<path fill="none" stroke="#63b8ff" d="M1238.14,-120.94C1239.7,-105.11 1240.39,-71.41 1221,-55 1187.16,-26.37 468.22,-22.02 424,-19 405.78,-17.76 385.59,-15.96 368.7,-14.34"/>
<polygon fill="#63b8ff" stroke="#63b8ff" points="368.94,-10.85 358.65,-13.36 368.26,-17.82 368.94,-10.85"/>
</a>
</g>
</g>
<!-- Node28 -->
<g id="Node000028" class="node">
<title>Node28</title>
<g id="a_Node000028"><a xlink:title=" ">
<polygon fill="#e0e0e0" stroke="#999999" points="1179,-79.5 1137,-79.5 1137,-60.5 1179,-60.5 1179,-79.5"/>
<text text-anchor="middle" x="1158" y="-67.5" font-family="Helvetica,sans-Serif" font-size="10.00">array</text>
</a>
</g>
</g>
<!-- Node27&#45;&gt;Node28 -->
<g id="edge38_Node000027_Node000028" class="edge">
<title>Node27&#45;&gt;Node28</title>
<g id="a_edge38_Node000027_Node000028"><a xlink:title=" ">
<path fill="none" stroke="#63b8ff" d="M1225.34,-120.87C1212.86,-111.62 1192.82,-96.78 1177.84,-85.69"/>
<polygon fill="#63b8ff" stroke="#63b8ff" points="1179.82,-82.81 1169.7,-79.67 1175.66,-88.43 1179.82,-82.81"/>
</a>
</g>
</g>
<!-- Node29 -->
<g id="Node000029" class="node">
<title>Node29</title>
<g id="a_Node000029"><a xlink:title=" ">
<polygon fill="#e0e0e0" stroke="#999999" points="1320.5,-79.5 1273.5,-79.5 1273.5,-60.5 1320.5,-60.5 1320.5,-79.5"/>
<text text-anchor="middle" x="1297" y="-67.5" font-family="Helvetica,sans-Serif" font-size="10.00">cmath</text>
</a>
</g>
</g>
<!-- Node27&#45;&gt;Node29 -->
<g id="edge39_Node000027_Node000029" class="edge">
<title>Node27&#45;&gt;Node29</title>
<g id="a_edge39_Node000027_Node000029"><a xlink:title=" ">
<path fill="none" stroke="#63b8ff" d="M1245.85,-120.87C1254.98,-111.97 1269.42,-97.89 1280.64,-86.95"/>
<polygon fill="#63b8ff" stroke="#63b8ff" points="1283.39,-89.15 1288.11,-79.67 1278.51,-84.14 1283.39,-89.15"/>
</a>
</g>
</g>
<!-- Node30 -->
<g id="Node000030" class="node">
<title>Node30</title>
<g id="a_Node000030"><a xlink:title=" ">
<polygon fill="#e0e0e0" stroke="#999999" points="1403.5,-79.5 1338.5,-79.5 1338.5,-60.5 1403.5,-60.5 1403.5,-79.5"/>
<text text-anchor="middle" x="1371" y="-67.5" font-family="Helvetica,sans-Serif" font-size="10.00">functional</text>
</a>
</g>
</g>
<!-- Node27&#45;&gt;Node30 -->
<g id="edge42_Node000027_Node000030" class="edge">
<title>Node27&#45;&gt;Node30</title>
<g id="a_edge42_Node000027_Node000030"><a xlink:title=" ">
<path fill="none" stroke="#63b8ff" d="M1256.48,-120.99C1279.01,-111.16 1316.31,-94.88 1342.19,-83.58"/>
<polygon fill="#63b8ff" stroke="#63b8ff" points="1343.73,-86.73 1351.49,-79.52 1340.93,-80.31 1343.73,-86.73"/>
</a>
</g>
</g>
<!-- Node31 -->
<g id="Node000031" class="node">
<title>Node31</title>
<g id="a_Node000031"><a xlink:title=" ">
<polygon fill="#e0e0e0" stroke="#999999" points="1480.5,-79.5 1421.5,-79.5 1421.5,-60.5 1480.5,-60.5 1480.5,-79.5"/>
<text text-anchor="middle" x="1451" y="-67.5" font-family="Helvetica,sans-Serif" font-size="10.00">numbers</text>
</a>
</g>
</g>
<!-- Node27&#45;&gt;Node31 -->
<g id="edge44_Node000027_Node000031" class="edge">
<title>Node27&#45;&gt;Node31</title>
<g id="a_edge44_Node000027_Node000031"><a xlink:title=" ">
<path fill="none" stroke="#63b8ff" d="M1275.78,-120.93C1311.66,-112.72 1366.33,-99.45 1413,-85 1415.13,-84.34 1417.31,-83.63 1419.5,-82.89"/>
<polygon fill="#63b8ff" stroke="#63b8ff" points="1420.76,-86.16 1429.03,-79.54 1418.44,-79.56 1420.76,-86.16"/>
</a>
</g>
</g>
<!-- Node32&#45;&gt;Node2 -->
<g id="edge52_Node000032_Node000002" class="edge">
<title>Node32&#45;&gt;Node2</title>
<g id="a_edge52_Node000032_Node000002"><a xlink:title=" ">
<path fill="none" stroke="#63b8ff" d="M401.37,-297.45C492.02,-286.46 652.01,-267.05 728.67,-257.75"/>
<polygon fill="#63b8ff" stroke="#63b8ff" points="729.42,-261.19 738.92,-256.51 728.57,-254.24 729.42,-261.19"/>
</a>
</g>
</g>
<!-- Node32&#45;&gt;Node3 -->
<g id="edge47_Node000032_Node000003" class="edge">
<title>Node32&#45;&gt;Node3</title>
<g id="a_edge47_Node000032_Node000003"><a xlink:title=" ">
<path fill="none" stroke="#63b8ff" d="M268.92,-302.25C196.96,-294.73 92,-270.34 92,-192 92,-192 92,-192 92,-129.5 92,-95.37 185.1,-46.59 233.51,-23.53"/>
<polygon fill="#63b8ff" stroke="#63b8ff" points="235.27,-26.56 242.83,-19.14 232.29,-20.23 235.27,-26.56"/>
</a>
</g>
</g>
<!-- Node32&#45;&gt;Node4 -->
<g id="edge49_Node000032_Node000004" class="edge">
<title>Node32&#45;&gt;Node4</title>
<g id="a_edge49_Node000032_Node000004"><a xlink:title=" ">
<path fill="none" stroke="#63b8ff" d="M337.09,-296.77C346.98,-256.24 390.36,-86.92 432,-55 435.82,-52.07 718.74,-23.46 815.77,-13.73"/>
<polygon fill="#63b8ff" stroke="#63b8ff" points="816.27,-17.19 825.87,-12.71 815.57,-10.23 816.27,-17.19"/>
</a>
</g>
</g>
<!-- Node32&#45;&gt;Node6 -->
<g id="edge48_Node000032_Node000006" class="edge">
<title>Node32&#45;&gt;Node6</title>
<g id="a_edge48_Node000032_Node000006"><a xlink:title=" ">
<path fill="none" stroke="#63b8ff" d="M353.51,-296.88C368.86,-289.07 390.59,-276.45 406,-261 420.9,-246.06 433.06,-225.04 440.6,-210.13"/>
<polygon fill="#63b8ff" stroke="#63b8ff" points="443.85,-211.47 445.06,-200.94 437.55,-208.41 443.85,-211.47"/>
</a>
</g>
</g>
<!-- Node32&#45;&gt;Node10 -->
<g id="edge53_Node000032_Node000010" class="edge">
<title>Node32&#45;&gt;Node10</title>
<g id="a_edge53_Node000032_Node000010"><a xlink:title=" ">
<path fill="none" stroke="#63b8ff" d="M342.03,-296.94C349.05,-288.2 359.91,-274.09 368,-261 390.24,-224.98 387.03,-210.9 411,-176 434.84,-141.3 469.3,-106.03 489.5,-86.49"/>
<polygon fill="#63b8ff" stroke="#63b8ff" points="491.92,-89.02 496.73,-79.58 487.09,-83.96 491.92,-89.02"/>
</a>
</g>
</g>
<!-- Node32&#45;&gt;Node15 -->
<g id="edge51_Node000032_Node000015" class="edge">
<title>Node32&#45;&gt;Node15</title>
<g id="a_edge51_Node000032_Node000015"><a xlink:title=" ">
<path fill="none" stroke="#63b8ff" d="M268.83,-304.39C221.3,-300.88 157.35,-290.39 109,-261 75.49,-240.63 54,-231.22 54,-192 54,-192 54,-192 54,-129.5 54,-88.08 85.2,-47.78 105.01,-26.36"/>
<polygon fill="#63b8ff" stroke="#63b8ff" points="107.57,-28.75 111.96,-19.11 102.52,-23.9 107.57,-28.75"/>
</a>
</g>
</g>
<!-- Node32&#45;&gt;Node18 -->
<g id="edge54_Node000032_Node000018" class="edge">
<title>Node32&#45;&gt;Node18</title>
<g id="a_edge54_Node000032_Node000018"><a xlink:title=" ">
<path fill="none" stroke="#63b8ff" d="M330.77,-296.88C314.01,-262.7 252.03,-136.31 228.84,-89.02"/>
<polygon fill="#63b8ff" stroke="#63b8ff" points="231.94,-87.39 224.39,-79.95 225.65,-90.47 231.94,-87.39"/>
</a>
</g>
</g>
<!-- Node32&#45;&gt;Node22 -->
<g id="edge50_Node000032_Node000022" class="edge">
<title>Node32&#45;&gt;Node22</title>
<g id="a_edge50_Node000032_Node000022"><a xlink:title=" ">
<path fill="none" stroke="#63b8ff" d="M268.91,-299.24C203.37,-292.13 108.21,-279.12 76,-261 40.58,-241.07 16,-232.64 16,-192 16,-192 16,-192 16,-129.5 16,-93.59 24.11,-52.26 29.45,-28.97"/>
<polygon fill="#63b8ff" stroke="#63b8ff" points="32.89,-29.63 31.79,-19.09 26.08,-28.01 32.89,-29.63"/>
</a>
</g>
</g>
<!-- Node33 -->
<g id="Node000033" class="node">
<title>Node33</title>
<g id="a_Node000033"><a xlink:href="simulation__recorder_8h.html" target="_top" xlink:title=" ">
<polygon fill="white" stroke="#666666" points="384.5,-85 261.5,-85 261.5,-55 384.5,-55 384.5,-85"/>
<text text-anchor="start" x="269.5" y="-73" font-family="Helvetica,sans-Serif" font-size="10.00">simulation/simulation</text>
<text text-anchor="middle" x="323" y="-62" font-family="Helvetica,sans-Serif" font-size="10.00">_recorder.h</text>
</a>
</g>
</g>
<!-- Node32&#45;&gt;Node33 -->
<g id="edge55_Node000032_Node000033" class="edge">
<title>Node32&#45;&gt;Node33</title>
<g id="a_edge55_Node000032_Node000033"><a xlink:title=" ">
<path fill="none" stroke="#63b8ff" d="M334.56,-296.88C332.88,-264.16 326.89,-146.96 324.25,-95.51"/>
<polygon fill="#63b8ff" stroke="#63b8ff" points="327.74,-95.12 323.73,-85.31 320.75,-95.47 327.74,-95.12"/>
</a>
</g>
</g>
<!-- Node33&#45;&gt;Node3 -->
<g id="edge57_Node000033_Node000003" class="edge">
<title>Node33&#45;&gt;Node3</title>
<g id="a_edge57_Node000033_Node000003"><a xlink:title=" ">
<path fill="none" stroke="#63b8ff" d="M308.23,-54.84C299.29,-46.26 287.86,-35.3 278.6,-26.42"/>
<polygon fill="#63b8ff" stroke="#63b8ff" points="280.78,-23.66 271.14,-19.27 275.94,-28.71 280.78,-23.66"/>
</a>
</g>
</g>
<!-- Node33&#45;&gt;Node4 -->
<g id="edge56_Node000033_Node000004" class="edge">
<title>Node33&#45;&gt;Node4</title>
<g id="a_edge56_Node000033_Node000004"><a xlink:title=" ">
<path fill="none" stroke="#63b8ff" d="M384.73,-57.18C389.55,-56.4 394.35,-55.66 399,-55 409.35,-53.54 714.58,-23.58 815.76,-13.66"/>
<polygon fill="#63b8ff" stroke="#63b8ff" points="816.11,-17.14 825.72,-12.68 815.42,-10.18 816.11,-17.14"/>
</a>
</g>
</g>
<!-- Node33&#45;&gt;Node21 -->
<g id="edge58_Node000033_Node000021" class="edge">
<title>Node33&#45;&gt;Node21</title>
<g id="a_edge58_Node000033_Node000021"><a xlink:title=" ">
<path fill="none" stroke="#63b8ff" d="M324.94,-54.84C325.98,-47.21 327.28,-37.7 328.41,-29.45"/>
<polygon fill="#63b8ff" stroke="#63b8ff" points="331.91,-29.65 329.8,-19.27 324.98,-28.7 331.91,-29.65"/>
</a>
</g>
</g>
<!-- Node34&#45;&gt;Node2 -->
<g id="edge60_Node000034_Node000002" class="edge">
<title>Node34&#45;&gt;Node2</title>
<g id="a_edge60_Node000034_Node000002"><a xlink:title=" ">
<path fill="none" stroke="#63b8ff" d="M839.15,-296.98C826.86,-288.84 808.09,-276.41 793.52,-266.76"/>
<polygon fill="#63b8ff" stroke="#63b8ff" points="795.36,-263.78 785.09,-261.17 791.49,-269.61 795.36,-263.78"/>
</a>
</g>
</g>
<!-- Node34&#45;&gt;Node28 -->
<g id="edge61_Node000034_Node000028" class="edge">
<title>Node34&#45;&gt;Node28</title>
<g id="a_edge61_Node000034_Node000028"><a xlink:title=" ">
<path fill="none" stroke="#63b8ff" d="M869.8,-296.97C901.8,-281.23 970.5,-245.61 1022,-206 1071.02,-168.3 1120.56,-114.17 1144.01,-87.35"/>
<polygon fill="#63b8ff" stroke="#63b8ff" points="1146.78,-89.51 1150.68,-79.66 1141.49,-84.92 1146.78,-89.51"/>
</a>
</g>
</g>
</g>
</svg>
