<?xml version="1.0" encoding="UTF-8" standalone="no"?>
<!DOCTYPE svg PUBLIC "-//W3C//DTD SVG 1.1//EN"
 "http://www.w3.org/Graphics/SVG/1.1/DTD/svg11.dtd">
<!-- Generated by graphviz version 2.43.0 (0)
 -->
<!-- Title: include/elements/neural_field.h Pages: 1 -->
<svg width="1186pt" height="434pt"
 viewBox="0.00 0.00 1186.00 434.00" xmlns="http://www.w3.org/2000/svg" xmlns:xlink="http://www.w3.org/1999/xlink">
<g id="graph0" class="graph" transform="scale(1 1) rotate(0) translate(4 430)">
<title>include/elements/neural_field.h</title>
<!-- Node1 -->
<g id="Node000001" class="node">
<title>Node1</title>
<g id="a_Node000001"><a xlink:title=" ">
<polygon fill="#999999" stroke="#666666" points="793.5,-426 659.5,-426 659.5,-396 793.5,-396 793.5,-426"/>
<text text-anchor="start" x="667.5" y="-414" font-family="Helvetica,sans-Serif" font-size="10.00">include/elements/neural</text>
<text text-anchor="middle" x="726.5" y="-403" font-family="Helvetica,sans-Serif" font-size="10.00">_field.h</text>
</a>
</g>
</g>
<!-- Node2 -->
<g id="Node000002" class="node">
<title>Node2</title>
<g id="a_Node000002"><a xlink:href="element__factory_8h.html" target="_top" xlink:title=" ">
<polygon fill="white" stroke="#666666" points="415.5,-294 271.5,-294 271.5,-264 415.5,-264 415.5,-294"/>
<text text-anchor="start" x="279.5" y="-282" font-family="Helvetica,sans-Serif" font-size="10.00">include/elements/element</text>
<text text-anchor="middle" x="343.5" y="-271" font-family="Helvetica,sans-Serif" font-size="10.00">_factory.h</text>
</a>
</g>
</g>
<!-- Node1&#45;&gt;Node2 -->
<g id="edge1_Node000001_Node000002" class="edge">
<title>Node1&#45;&gt;Node2</title>
<g id="a_edge1_Node000001_Node000002"><a xlink:title=" ">
<path fill="none" stroke="#63b8ff" d="M649.01,-403.95C594.61,-397.68 521.06,-385.09 460.5,-360 420.72,-343.52 380.65,-312.19 359.28,-294.01"/>
<polygon fill="#63b8ff" stroke="#63b8ff" points="648.96,-407.46 659.28,-405.08 649.73,-400.51 648.96,-407.46"/>
</a>
</g>
</g>
<!-- Node10 -->
<g id="Node000010" class="node">
<title>Node10</title>
<g id="a_Node000010"><a xlink:href="simulation__window_8cpp.html" target="_top" xlink:title=" ">
<polygon fill="white" stroke="#666666" points="699.5,-162 565.5,-162 565.5,-132 699.5,-132 699.5,-162"/>
<text text-anchor="start" x="573.5" y="-150" font-family="Helvetica,sans-Serif" font-size="10.00">src/user_interface</text>
<text text-anchor="middle" x="632.5" y="-139" font-family="Helvetica,sans-Serif" font-size="10.00">/simulation_window.cpp</text>
</a>
</g>
</g>
<!-- Node1&#45;&gt;Node10 -->
<g id="edge28_Node000001_Node000010" class="edge">
<title>Node1&#45;&gt;Node10</title>
<g id="a_edge28_Node000001_Node000010"><a xlink:title=" ">
<path fill="none" stroke="#63b8ff" d="M760.83,-390.51C791.85,-370.73 835.47,-336.92 854.5,-294 871.79,-254.99 881.15,-231.32 854.5,-198 835.34,-174.05 757.78,-160.76 699.69,-154.01"/>
<polygon fill="#63b8ff" stroke="#63b8ff" points="758.7,-387.72 752.05,-395.96 762.39,-393.66 758.7,-387.72"/>
</a>
</g>
</g>
<!-- Node12 -->
<g id="Node000012" class="node">
<title>Node12</title>
<g id="a_Node000012"><a xlink:href="field__coupling_8h.html" target="_top" xlink:title=" ">
<polygon fill="white" stroke="#666666" points="595,-360 470,-360 470,-330 595,-330 595,-360"/>
<text text-anchor="start" x="478" y="-348" font-family="Helvetica,sans-Serif" font-size="10.00">include/elements/field</text>
<text text-anchor="middle" x="532.5" y="-337" font-family="Helvetica,sans-Serif" font-size="10.00">_coupling.h</text>
</a>
</g>
</g>
<!-- Node1&#45;&gt;Node12 -->
<g id="edge12_Node000001_Node000012" class="edge">
<title>Node1&#45;&gt;Node12</title>
<g id="a_edge12_Node000001_Node000012"><a xlink:title=" ">
<path fill="none" stroke="#63b8ff" d="M674.13,-392.72C643.04,-382.47 604.14,-369.63 574.97,-360.01"/>
<polygon fill="#63b8ff" stroke="#63b8ff" points="673.33,-396.15 683.93,-395.95 675.53,-389.5 673.33,-396.15"/>
</a>
</g>
</g>
<!-- Node13 -->
<g id="Node000013" class="node">
<title>Node13</title>
<g id="a_Node000013"><a xlink:href="simulation__file__manager_8h.html" target="_top" xlink:title=" ">
<polygon fill="white" stroke="#666666" points="705,-294 556,-294 556,-264 705,-264 705,-294"/>
<text text-anchor="start" x="564" y="-282" font-family="Helvetica,sans-Serif" font-size="10.00">include/simulation</text>
<text text-anchor="middle" x="630.5" y="-271" font-family="Helvetica,sans-Serif" font-size="10.00">/simulation_file_manager.h</text>
</a>
</g>
</g>
<!-- Node1&#45;&gt;Node13 -->
<g id="edge23_Node000001_Node000013" class="edge">
<title>Node1&#45;&gt;Node13</title>
<g id="a_edge23_Node000001_Node000013"><a xlink:title=" ">
<path fill="none" stroke="#63b8ff" d="M709.85,-387.45C690.03,-360.61 657.53,-316.6 640.94,-294.14"/>
<polygon fill="#63b8ff" stroke="#63b8ff" points="707.29,-389.88 716.04,-395.84 712.92,-385.72 707.29,-389.88"/>
</a>
</g>
</g>
<!-- Node16 -->
<g id="Node000016" class="node">
<title>Node16</title>
<g id="a_Node000016"><a xlink:href="node__graph__window_8h.html" target="_top" xlink:title=" ">
<polygon fill="white" stroke="#666666" points="218.5,-294 90.5,-294 90.5,-264 218.5,-264 218.5,-294"/>
<text text-anchor="start" x="98.5" y="-282" font-family="Helvetica,sans-Serif" font-size="10.00">include/user_interface</text>
<text text-anchor="middle" x="154.5" y="-271" font-family="Helvetica,sans-Serif" font-size="10.00">/node_graph_window.h</text>
</a>
</g>
</g>
<!-- Node1&#45;&gt;Node16 -->
<g id="edge24_Node000001_Node000016" class="edge">
<title>Node1&#45;&gt;Node16</title>
<g id="a_edge24_Node000001_Node000016"><a xlink:title=" ">
<path fill="none" stroke="#63b8ff" d="M649.23,-401.28C584.02,-393.12 488.46,-379.29 406.5,-360 329.2,-341.8 241.29,-311.67 192.42,-294.04"/>
<polygon fill="#63b8ff" stroke="#63b8ff" points="649.08,-404.79 659.43,-402.54 649.93,-397.84 649.08,-404.79"/>
</a>
</g>
</g>
<!-- Node19 -->
<g id="Node000019" class="node">
<title>Node19</title>
<g id="a_Node000019"><a xlink:href="element__window_8cpp.html" target="_top" xlink:title=" ">
<polygon fill="white" stroke="#666666" points="845.5,-294 723.5,-294 723.5,-264 845.5,-264 845.5,-294"/>
<text text-anchor="start" x="731.5" y="-282" font-family="Helvetica,sans-Serif" font-size="10.00">src/user_interface</text>
<text text-anchor="middle" x="784.5" y="-271" font-family="Helvetica,sans-Serif" font-size="10.00">/element_window.cpp</text>
</a>
</g>
</g>
<!-- Node1&#45;&gt;Node19 -->
<g id="edge26_Node000001_Node000019" class="edge">
<title>Node1&#45;&gt;Node19</title>
<g id="a_edge26_Node000001_Node000019"><a xlink:title=" ">
<path fill="none" stroke="#63b8ff" d="M737.03,-386.39C749.05,-359.46 768.3,-316.31 778.19,-294.14"/>
<polygon fill="#63b8ff" stroke="#63b8ff" points="733.7,-385.28 732.82,-395.84 740.09,-388.13 733.7,-385.28"/>
</a>
</g>
</g>
<!-- Node20 -->
<g id="Node000020" class="node">
<title>Node20</title>
<g id="a_Node000020"><a xlink:href="neural__field_8cpp.html" target="_top" xlink:title=" ">
<polygon fill="white" stroke="#666666" points="1015,-360 902,-360 902,-330 1015,-330 1015,-360"/>
<text text-anchor="start" x="910" y="-348" font-family="Helvetica,sans-Serif" font-size="10.00">src/elements/neural</text>
<text text-anchor="middle" x="958.5" y="-337" font-family="Helvetica,sans-Serif" font-size="10.00">_field.cpp</text>
</a>
</g>
</g>
<!-- Node1&#45;&gt;Node20 -->
<g id="edge25_Node000001_Node000020" class="edge">
<title>Node1&#45;&gt;Node20</title>
<g id="a_edge25_Node000001_Node000020"><a xlink:title=" ">
<path fill="none" stroke="#63b8ff" d="M787.21,-393.25C824.69,-382.91 872.22,-369.8 907.71,-360.01"/>
<polygon fill="#63b8ff" stroke="#63b8ff" points="786.12,-389.92 777.41,-395.95 787.98,-396.67 786.12,-389.92"/>
</a>
</g>
</g>
<!-- Node21 -->
<g id="Node000021" class="node">
<title>Node21</title>
<g id="a_Node000021"><a xlink:href="field__metrics__window_8cpp.html" target="_top" xlink:title=" ">
<polygon fill="white" stroke="#666666" points="1178,-360 1033,-360 1033,-330 1178,-330 1178,-360"/>
<text text-anchor="start" x="1041" y="-348" font-family="Helvetica,sans-Serif" font-size="10.00">src/user_interface</text>
<text text-anchor="middle" x="1105.5" y="-337" font-family="Helvetica,sans-Serif" font-size="10.00">/field_metrics_window.cpp</text>
</a>
</g>
</g>
<!-- Node1&#45;&gt;Node21 -->
<g id="edge27_Node000001_Node000021" class="edge">
<title>Node1&#45;&gt;Node21</title>
<g id="a_edge27_Node000001_Node000021"><a xlink:title=" ">
<path fill="none" stroke="#63b8ff" d="M803.89,-397.02C863.83,-386.96 948.94,-372.64 1023.5,-360 1026.49,-359.49 1029.54,-358.98 1032.62,-358.45"/>
<polygon fill="#63b8ff" stroke="#63b8ff" points="803.02,-393.62 793.74,-398.73 804.18,-400.52 803.02,-393.62"/>
</a>
</g>
</g>
<!-- Node3 -->
<g id="Node000003" class="node">
<title>Node3</title>
<g id="a_Node000003"><a xlink:href="simulation__window_8h.html" target="_top" xlink:title=" ">
<polygon fill="white" stroke="#666666" points="367,-228 242,-228 242,-198 367,-198 367,-228"/>
<text text-anchor="start" x="250" y="-216" font-family="Helvetica,sans-Serif" font-size="10.00">include/user_interface</text>
<text text-anchor="middle" x="304.5" y="-205" font-family="Helvetica,sans-Serif" font-size="10.00">/simulation_window.h</text>
</a>
</g>
</g>
<!-- Node2&#45;&gt;Node3 -->
<g id="edge2_Node000002_Node000003" class="edge">
<title>Node2&#45;&gt;Node3</title>
<g id="a_edge2_Node000002_Node000003"><a xlink:title=" ">
<path fill="none" stroke="#63b8ff" d="M329.63,-255.24C324.13,-246.21 317.97,-236.11 313.13,-228.16"/>
<polygon fill="#63b8ff" stroke="#63b8ff" points="326.65,-257.08 334.84,-263.8 332.63,-253.44 326.65,-257.08"/>
</a>
</g>
</g>
<!-- Node11 -->
<g id="Node000011" class="node">
<title>Node11</title>
<g id="a_Node000011"><a xlink:href="element__factory_8cpp.html" target="_top" xlink:title=" ">
<polygon fill="white" stroke="#666666" points="508,-228 385,-228 385,-198 508,-198 508,-228"/>
<text text-anchor="start" x="393" y="-216" font-family="Helvetica,sans-Serif" font-size="10.00">src/elements/element</text>
<text text-anchor="middle" x="446.5" y="-205" font-family="Helvetica,sans-Serif" font-size="10.00">_factory.cpp</text>
</a>
</g>
</g>
<!-- Node2&#45;&gt;Node11 -->
<g id="edge11_Node000002_Node000011" class="edge">
<title>Node2&#45;&gt;Node11</title>
<g id="a_edge11_Node000002_Node000011"><a xlink:title=" ">
<path fill="none" stroke="#63b8ff" d="M375.01,-258.42C390.82,-248.6 409.6,-236.93 423.95,-228.01"/>
<polygon fill="#63b8ff" stroke="#63b8ff" points="372.75,-255.7 366.1,-263.95 376.44,-261.65 372.75,-255.7"/>
</a>
</g>
</g>
<!-- Node4 -->
<g id="Node000004" class="node">
<title>Node4</title>
<g id="a_Node000004"><a xlink:href="dynamic-neural-field-composer-dynamic_8h.html" target="_top" xlink:title=" ">
<polygon fill="white" stroke="#666666" points="153.5,-162 5.5,-162 5.5,-132 153.5,-132 153.5,-162"/>
<text text-anchor="start" x="13.5" y="-150" font-family="Helvetica,sans-Serif" font-size="10.00">include/dynamic&#45;neural</text>
<text text-anchor="middle" x="79.5" y="-139" font-family="Helvetica,sans-Serif" font-size="10.00">&#45;field&#45;composer&#45;dynamic.h</text>
</a>
</g>
</g>
<!-- Node3&#45;&gt;Node4 -->
<g id="edge3_Node000003_Node000004" class="edge">
<title>Node3&#45;&gt;Node4</title>
<g id="a_edge3_Node000003_Node000004"><a xlink:title=" ">
<path fill="none" stroke="#63b8ff" d="M245.16,-195.12C208.88,-184.8 163.03,-171.76 128.76,-162.01"/>
<polygon fill="#63b8ff" stroke="#63b8ff" points="244.55,-198.59 255.12,-197.95 246.46,-191.85 244.55,-198.59"/>
</a>
</g>
</g>
<!-- Node6 -->
<g id="Node000006" class="node">
<title>Node6</title>
<g id="a_Node000006"><a xlink:href="static__layout_8h.html" target="_top" xlink:title=" ">
<polygon fill="white" stroke="#666666" points="306,-162 181,-162 181,-132 306,-132 306,-162"/>
<text text-anchor="start" x="189" y="-150" font-family="Helvetica,sans-Serif" font-size="10.00">include/user_interface</text>
<text text-anchor="middle" x="243.5" y="-139" font-family="Helvetica,sans-Serif" font-size="10.00">/static_layout.h</text>
</a>
</g>
</g>
<!-- Node3&#45;&gt;Node6 -->
<g id="edge5_Node000003_Node000006" class="edge">
<title>Node3&#45;&gt;Node6</title>
<g id="a_edge5_Node000003_Node000006"><a xlink:title=" ">
<path fill="none" stroke="#63b8ff" d="M283.88,-190.37C275.01,-181.06 264.89,-170.44 257,-162.16"/>
<polygon fill="#63b8ff" stroke="#63b8ff" points="281.53,-192.97 290.96,-197.8 286.6,-188.14 281.53,-192.97"/>
</a>
</g>
</g>
<!-- Node3&#45;&gt;Node10 -->
<g id="edge10_Node000003_Node000010" class="edge">
<title>Node3&#45;&gt;Node10</title>
<g id="a_edge10_Node000003_Node000010"><a xlink:title=" ">
<path fill="none" stroke="#63b8ff" d="M377.45,-197.62C446.81,-184.04 515.96,-170.6 565.39,-161.01"/>
<polygon fill="#63b8ff" stroke="#63b8ff" points="376.36,-194.27 367.22,-199.62 377.7,-201.14 376.36,-194.27"/>
</a>
</g>
</g>
<!-- Node5 -->
<g id="Node000005" class="node">
<title>Node5</title>
<g id="a_Node000005"><a xlink:href="dynamic-neural-field-composer-dynamic_8cpp.html" target="_top" xlink:title=" ">
<polygon fill="white" stroke="#666666" points="159,-96 0,-96 0,-66 159,-66 159,-96"/>
<text text-anchor="start" x="8" y="-84" font-family="Helvetica,sans-Serif" font-size="10.00">src/dynamic&#45;neural</text>
<text text-anchor="middle" x="79.5" y="-73" font-family="Helvetica,sans-Serif" font-size="10.00">&#45;field&#45;composer&#45;dynamic.cpp</text>
</a>
</g>
</g>
<!-- Node4&#45;&gt;Node5 -->
<g id="edge4_Node000004_Node000005" class="edge">
<title>Node4&#45;&gt;Node5</title>
<g id="a_edge4_Node000004_Node000005"><a xlink:title=" ">
<path fill="none" stroke="#63b8ff" d="M79.5,-121.54C79.5,-112.96 79.5,-103.61 79.5,-96.16"/>
<polygon fill="#63b8ff" stroke="#63b8ff" points="76,-121.8 79.5,-131.8 83,-121.8 76,-121.8"/>
</a>
</g>
</g>
<!-- Node6&#45;&gt;Node5 -->
<g id="edge8_Node000006_Node000005" class="edge">
<title>Node6&#45;&gt;Node5</title>
<g id="a_edge8_Node000006_Node000005"><a xlink:title=" ">
<path fill="none" stroke="#63b8ff" d="M197.86,-128.19C171.81,-118.02 139.63,-105.47 115.41,-96.01"/>
<polygon fill="#63b8ff" stroke="#63b8ff" points="196.92,-131.58 207.51,-131.95 199.47,-125.06 196.92,-131.58"/>
</a>
</g>
</g>
<!-- Node7 -->
<g id="Node000007" class="node">
<title>Node7</title>
<g id="a_Node000007"><a xlink:href="dynamic-neural-field-composer-static_8h.html" target="_top" xlink:title=" ">
<polygon fill="white" stroke="#666666" points="310,-96 177,-96 177,-66 310,-66 310,-96"/>
<text text-anchor="start" x="185" y="-84" font-family="Helvetica,sans-Serif" font-size="10.00">include/dynamic&#45;neural</text>
<text text-anchor="middle" x="243.5" y="-73" font-family="Helvetica,sans-Serif" font-size="10.00">&#45;field&#45;composer&#45;static.h</text>
</a>
</g>
</g>
<!-- Node6&#45;&gt;Node7 -->
<g id="edge6_Node000006_Node000007" class="edge">
<title>Node6&#45;&gt;Node7</title>
<g id="a_edge6_Node000006_Node000007"><a xlink:title=" ">
<path fill="none" stroke="#63b8ff" d="M243.5,-121.54C243.5,-112.96 243.5,-103.61 243.5,-96.16"/>
<polygon fill="#63b8ff" stroke="#63b8ff" points="240,-121.8 243.5,-131.8 247,-121.8 240,-121.8"/>
</a>
</g>
</g>
<!-- Node9 -->
<g id="Node000009" class="node">
<title>Node9</title>
<g id="a_Node000009"><a xlink:href="static__layout_8cpp.html" target="_top" xlink:title=" ">
<polygon fill="white" stroke="#666666" points="432.5,-96 328.5,-96 328.5,-66 432.5,-66 432.5,-96"/>
<text text-anchor="start" x="336.5" y="-84" font-family="Helvetica,sans-Serif" font-size="10.00">src/user_interface</text>
<text text-anchor="middle" x="380.5" y="-73" font-family="Helvetica,sans-Serif" font-size="10.00">/static_layout.cpp</text>
</a>
</g>
</g>
<!-- Node6&#45;&gt;Node9 -->
<g id="edge9_Node000006_Node000009" class="edge">
<title>Node6&#45;&gt;Node9</title>
<g id="a_edge9_Node000006_Node000009"><a xlink:title=" ">
<path fill="none" stroke="#63b8ff" d="M282.78,-127.65C304.33,-117.58 330.62,-105.3 350.5,-96.01"/>
<polygon fill="#63b8ff" stroke="#63b8ff" points="281.14,-124.55 273.57,-131.95 284.11,-130.89 281.14,-124.55"/>
</a>
</g>
</g>
<!-- Node8 -->
<g id="Node000008" class="node">
<title>Node8</title>
<g id="a_Node000008"><a xlink:href="dynamic-neural-field-composer-static_8cpp.html" target="_top" xlink:title=" ">
<polygon fill="white" stroke="#666666" points="315.5,-30 171.5,-30 171.5,0 315.5,0 315.5,-30"/>
<text text-anchor="start" x="179.5" y="-18" font-family="Helvetica,sans-Serif" font-size="10.00">src/dynamic&#45;neural</text>
<text text-anchor="middle" x="243.5" y="-7" font-family="Helvetica,sans-Serif" font-size="10.00">&#45;field&#45;composer&#45;static.cpp</text>
</a>
</g>
</g>
<!-- Node7&#45;&gt;Node8 -->
<g id="edge7_Node000007_Node000008" class="edge">
<title>Node7&#45;&gt;Node8</title>
<g id="a_edge7_Node000007_Node000008"><a xlink:title=" ">
<path fill="none" stroke="#63b8ff" d="M243.5,-55.54C243.5,-46.96 243.5,-37.61 243.5,-30.16"/>
<polygon fill="#63b8ff" stroke="#63b8ff" points="240,-55.8 243.5,-65.8 247,-55.8 240,-55.8"/>
</a>
</g>
</g>
<!-- Node12&#45;&gt;Node2 -->
<g id="edge13_Node000012_Node000002" class="edge">
<title>Node12&#45;&gt;Node2</title>
<g id="a_edge13_Node000012_Node000002"><a xlink:title=" ">
<path fill="none" stroke="#63b8ff" d="M481.48,-326.72C451.2,-316.47 413.29,-303.63 384.88,-294.01"/>
<polygon fill="#63b8ff" stroke="#63b8ff" points="480.43,-330.06 491.02,-329.95 482.67,-323.43 480.43,-330.06"/>
</a>
</g>
</g>
<!-- Node12&#45;&gt;Node13 -->
<g id="edge14_Node000012_Node000013" class="edge">
<title>Node12&#45;&gt;Node13</title>
<g id="a_edge14_Node000012_Node000013"><a xlink:title=" ">
<path fill="none" stroke="#63b8ff" d="M562.66,-324.3C577.58,-314.56 595.25,-303.02 608.81,-294.16"/>
<polygon fill="#63b8ff" stroke="#63b8ff" points="560.71,-321.4 554.25,-329.8 564.54,-327.26 560.71,-321.4"/>
</a>
</g>
</g>
<!-- Node12&#45;&gt;Node16 -->
<g id="edge17_Node000012_Node000016" class="edge">
<title>Node12&#45;&gt;Node16</title>
<g id="a_edge17_Node000012_Node000016"><a xlink:title=" ">
<path fill="none" stroke="#63b8ff" d="M459.62,-331.66C389.82,-319.84 285.53,-302.18 218.76,-290.88"/>
<polygon fill="#63b8ff" stroke="#63b8ff" points="459.21,-335.14 469.66,-333.36 460.38,-328.24 459.21,-335.14"/>
</a>
</g>
</g>
<!-- Node18 -->
<g id="Node000018" class="node">
<title>Node18</title>
<g id="a_Node000018"><a xlink:href="field__coupling_8cpp.html" target="_top" xlink:title=" ">
<polygon fill="white" stroke="#666666" points="537.5,-294 433.5,-294 433.5,-264 537.5,-264 537.5,-294"/>
<text text-anchor="start" x="441.5" y="-282" font-family="Helvetica,sans-Serif" font-size="10.00">src/elements/field</text>
<text text-anchor="middle" x="485.5" y="-271" font-family="Helvetica,sans-Serif" font-size="10.00">_coupling.cpp</text>
</a>
</g>
</g>
<!-- Node12&#45;&gt;Node18 -->
<g id="edge21_Node000012_Node000018" class="edge">
<title>Node12&#45;&gt;Node18</title>
<g id="a_edge21_Node000012_Node000018"><a xlink:title=" ">
<path fill="none" stroke="#63b8ff" d="M516,-321.53C509.31,-312.43 501.8,-302.19 495.9,-294.16"/>
<polygon fill="#63b8ff" stroke="#63b8ff" points="513.33,-323.81 522.07,-329.8 518.97,-319.66 513.33,-323.81"/>
</a>
</g>
</g>
<!-- Node12&#45;&gt;Node19 -->
<g id="edge22_Node000012_Node000019" class="edge">
<title>Node12&#45;&gt;Node19</title>
<g id="a_edge22_Node000012_Node000019"><a xlink:title=" ">
<path fill="none" stroke="#63b8ff" d="M597.66,-327.45C638.49,-317.08 690.54,-303.86 729.33,-294.01"/>
<polygon fill="#63b8ff" stroke="#63b8ff" points="596.63,-324.1 587.8,-329.95 598.36,-330.89 596.63,-324.1"/>
</a>
</g>
</g>
<!-- Node14 -->
<g id="Node000014" class="node">
<title>Node14</title>
<g id="a_Node000014"><a xlink:href="simulation_8cpp.html" target="_top" xlink:title=" ">
<polygon fill="white" stroke="#666666" points="687,-222.5 526,-222.5 526,-203.5 687,-203.5 687,-222.5"/>
<text text-anchor="middle" x="606.5" y="-210.5" font-family="Helvetica,sans-Serif" font-size="10.00">src/simulation/simulation.cpp</text>
</a>
</g>
</g>
<!-- Node13&#45;&gt;Node14 -->
<g id="edge15_Node000013_Node000014" class="edge">
<title>Node13&#45;&gt;Node14</title>
<g id="a_edge15_Node000013_Node000014"><a xlink:title=" ">
<path fill="none" stroke="#63b8ff" d="M621.6,-254.28C617.49,-243.31 612.85,-230.94 609.82,-222.84"/>
<polygon fill="#63b8ff" stroke="#63b8ff" points="618.39,-255.66 625.17,-263.8 624.94,-253.2 618.39,-255.66"/>
</a>
</g>
</g>
<!-- Node15 -->
<g id="Node000015" class="node">
<title>Node15</title>
<g id="a_Node000015"><a xlink:href="simulation__file__manager_8cpp.html" target="_top" xlink:title=" ">
<polygon fill="white" stroke="#666666" points="845.5,-228 705.5,-228 705.5,-198 845.5,-198 845.5,-228"/>
<text text-anchor="start" x="713.5" y="-216" font-family="Helvetica,sans-Serif" font-size="10.00">src/simulation/simulation</text>
<text text-anchor="middle" x="775.5" y="-205" font-family="Helvetica,sans-Serif" font-size="10.00">_file_manager.cpp</text>
</a>
</g>
</g>
<!-- Node13&#45;&gt;Node15 -->
<g id="edge16_Node000013_Node000015" class="edge">
<title>Node13&#45;&gt;Node15</title>
<g id="a_edge16_Node000013_Node000015"><a xlink:title=" ">
<path fill="none" stroke="#63b8ff" d="M671.77,-259.78C694.63,-249.69 722.62,-237.34 743.75,-228.01"/>
<polygon fill="#63b8ff" stroke="#63b8ff" points="670.06,-256.71 662.32,-263.95 672.88,-263.12 670.06,-256.71"/>
</a>
</g>
</g>
<!-- Node16&#45;&gt;Node4 -->
<g id="edge18_Node000016_Node000004" class="edge">
<title>Node16&#45;&gt;Node4</title>
<g id="a_edge18_Node000016_Node000004"><a xlink:title=" ">
<path fill="none" stroke="#63b8ff" d="M81.77,-259.93C66.28,-252.6 51.8,-242.34 42.5,-228 28.51,-206.43 48.82,-178.72 64.43,-162.21"/>
<polygon fill="#63b8ff" stroke="#63b8ff" points="80.41,-263.16 90.97,-263.92 83.19,-256.73 80.41,-263.16"/>
</a>
</g>
</g>
<!-- Node16&#45;&gt;Node6 -->
<g id="edge19_Node000016_Node000006" class="edge">
<title>Node16&#45;&gt;Node6</title>
<g id="a_edge19_Node000016_Node000006"><a xlink:title=" ">
<path fill="none" stroke="#63b8ff" d="M107.9,-258.99C95.1,-251.36 82.75,-241.17 75.5,-228 69.07,-216.32 67.53,-208.69 75.5,-198 88.42,-180.68 138.69,-167.19 180.91,-158.61"/>
<polygon fill="#63b8ff" stroke="#63b8ff" points="106.33,-262.12 116.78,-263.88 109.71,-255.99 106.33,-262.12"/>
</a>
</g>
</g>
<!-- Node17 -->
<g id="Node000017" class="node">
<title>Node17</title>
<g id="a_Node000017"><a xlink:href="node__graph__window_8cpp.html" target="_top" xlink:title=" ">
<polygon fill="white" stroke="#666666" points="224,-228 85,-228 85,-198 224,-198 224,-228"/>
<text text-anchor="start" x="93" y="-216" font-family="Helvetica,sans-Serif" font-size="10.00">src/user_interface</text>
<text text-anchor="middle" x="154.5" y="-205" font-family="Helvetica,sans-Serif" font-size="10.00">/node_graph_window.cpp</text>
</a>
</g>
</g>
<!-- Node16&#45;&gt;Node17 -->
<g id="edge20_Node000016_Node000017" class="edge">
<title>Node16&#45;&gt;Node17</title>
<g id="a_edge20_Node000016_Node000017"><a xlink:title=" ">
<path fill="none" stroke="#63b8ff" d="M154.5,-253.54C154.5,-244.96 154.5,-235.61 154.5,-228.16"/>
<polygon fill="#63b8ff" stroke="#63b8ff" points="151,-253.8 154.5,-263.8 158,-253.8 151,-253.8"/>
</a>
</g>
</g>
</g>
</svg>
