<?xml version="1.0" encoding="UTF-8" standalone="no"?>
<!DOCTYPE svg PUBLIC "-//W3C//DTD SVG 1.1//EN"
 "http://www.w3.org/Graphics/SVG/1.1/DTD/svg11.dtd">
<!-- Generated by graphviz version 2.43.0 (0)
 -->
<!-- Title: include/elements/neural_field.h Pages: 1 -->
<svg width="1132pt" height="434pt"
 viewBox="0.00 0.00 1132.00 434.00" xmlns="http://www.w3.org/2000/svg" xmlns:xlink="http://www.w3.org/1999/xlink">
<g id="graph0" class="graph" transform="scale(1 1) rotate(0) translate(4 430)">
<title>include/elements/neural_field.h</title>
<!-- Node1 -->
<g id="Node000001" class="node">
<title>Node1</title>
<g id="a_Node000001"><a xlink:title=" ">
<polygon fill="#999999" stroke="#666666" points="692.5,-426 558.5,-426 558.5,-396 692.5,-396 692.5,-426"/>
<text text-anchor="start" x="566.5" y="-414" font-family="Helvetica,sans-Serif" font-size="10.00">include/elements/neural</text>
<text text-anchor="middle" x="625.5" y="-403" font-family="Helvetica,sans-Serif" font-size="10.00">_field.h</text>
</a>
</g>
</g>
<!-- Node2 -->
<g id="Node000002" class="node">
<title>Node2</title>
<g id="a_Node000002"><a xlink:href="element__factory_8h.html" target="_top" xlink:title=" ">
<polygon fill="white" stroke="#666666" points="284.5,-294 140.5,-294 140.5,-264 284.5,-264 284.5,-294"/>
<text text-anchor="start" x="148.5" y="-282" font-family="Helvetica,sans-Serif" font-size="10.00">include/elements/element</text>
<text text-anchor="middle" x="212.5" y="-271" font-family="Helvetica,sans-Serif" font-size="10.00">_factory.h</text>
</a>
</g>
</g>
<!-- Node1&#45;&gt;Node2 -->
<g id="edge1_Node000001_Node000002" class="edge">
<title>Node1&#45;&gt;Node2</title>
<g id="a_edge1_Node000001_Node000002"><a xlink:title=" ">
<path fill="none" stroke="#63b8ff" d="M548.34,-394.95C507.29,-386.2 456.2,-374.12 411.5,-360 350.6,-340.77 281.99,-311.4 243.33,-294.11"/>
<polygon fill="#63b8ff" stroke="#63b8ff" points="547.77,-398.41 558.28,-397.05 549.22,-391.56 547.77,-398.41"/>
</a>
</g>
</g>
<!-- Node12 -->
<g id="Node000012" class="node">
<title>Node12</title>
<g id="a_Node000012"><a xlink:href="field__coupling_8h.html" target="_top" xlink:title=" ">
<polygon fill="white" stroke="#666666" points="584,-360 459,-360 459,-330 584,-330 584,-360"/>
<text text-anchor="start" x="467" y="-348" font-family="Helvetica,sans-Serif" font-size="10.00">include/elements/field</text>
<text text-anchor="middle" x="521.5" y="-337" font-family="Helvetica,sans-Serif" font-size="10.00">_coupling.h</text>
</a>
</g>
</g>
<!-- Node1&#45;&gt;Node12 -->
<g id="edge11_Node000001_Node000012" class="edge">
<title>Node1&#45;&gt;Node12</title>
<g id="a_edge11_Node000001_Node000012"><a xlink:title=" ">
<path fill="none" stroke="#63b8ff" d="M594.13,-390.69C578.07,-380.82 558.89,-369.01 544.27,-360.01"/>
<polygon fill="#63b8ff" stroke="#63b8ff" points="592.33,-393.69 602.68,-395.95 595.99,-387.73 592.33,-393.69"/>
</a>
</g>
</g>
<!-- Node13 -->
<g id="Node000013" class="node">
<title>Node13</title>
<g id="a_Node000013"><a xlink:href="simulation__file__manager_8h.html" target="_top" xlink:title=" ">
<polygon fill="white" stroke="#666666" points="802,-294 653,-294 653,-264 802,-264 802,-294"/>
<text text-anchor="start" x="661" y="-282" font-family="Helvetica,sans-Serif" font-size="10.00">include/simulation</text>
<text text-anchor="middle" x="727.5" y="-271" font-family="Helvetica,sans-Serif" font-size="10.00">/simulation_file_manager.h</text>
</a>
</g>
</g>
<!-- Node1&#45;&gt;Node13 -->
<g id="edge26_Node000001_Node000013" class="edge">
<title>Node1&#45;&gt;Node13</title>
<g id="a_edge26_Node000001_Node000013"><a xlink:title=" ">
<path fill="none" stroke="#63b8ff" d="M642.92,-387.8C663.95,-360.99 698.71,-316.7 716.4,-294.14"/>
<polygon fill="#63b8ff" stroke="#63b8ff" points="640.03,-385.81 636.61,-395.84 645.54,-390.13 640.03,-385.81"/>
</a>
</g>
</g>
<!-- Node16 -->
<g id="Node000016" class="node">
<title>Node16</title>
<g id="a_Node000016"><a xlink:href="element__window_8h.html" target="_top" xlink:title=" ">
<polygon fill="white" stroke="#666666" points="437,-294 312,-294 312,-264 437,-264 437,-294"/>
<text text-anchor="start" x="320" y="-282" font-family="Helvetica,sans-Serif" font-size="10.00">include/user_interface</text>
<text text-anchor="middle" x="374.5" y="-271" font-family="Helvetica,sans-Serif" font-size="10.00">/element_window.h</text>
</a>
</g>
</g>
<!-- Node1&#45;&gt;Node16 -->
<g id="edge27_Node000001_Node000016" class="edge">
<title>Node1&#45;&gt;Node16</title>
<g id="a_edge27_Node000001_Node000016"><a xlink:title=" ">
<path fill="none" stroke="#63b8ff" d="M548.27,-397.52C516.1,-389.99 479.37,-378.2 449.5,-360 421.21,-342.76 396.73,-312 383.95,-294.06"/>
<polygon fill="#63b8ff" stroke="#63b8ff" points="547.57,-400.95 558.1,-399.73 549.1,-394.12 547.57,-400.95"/>
</a>
</g>
</g>
<!-- Node17 -->
<g id="Node000017" class="node">
<title>Node17</title>
<g id="a_Node000017"><a xlink:href="node__graph__window_8h.html" target="_top" xlink:title=" ">
<polygon fill="white" stroke="#666666" points="628.5,-228 500.5,-228 500.5,-198 628.5,-198 628.5,-228"/>
<text text-anchor="start" x="508.5" y="-216" font-family="Helvetica,sans-Serif" font-size="10.00">include/user_interface</text>
<text text-anchor="middle" x="564.5" y="-205" font-family="Helvetica,sans-Serif" font-size="10.00">/node_graph_window.h</text>
</a>
</g>
</g>
<!-- Node1&#45;&gt;Node17 -->
<g id="edge32_Node000001_Node000017" class="edge">
<title>Node1&#45;&gt;Node17</title>
<g id="a_edge32_Node000001_Node000017"><a xlink:title=" ">
<path fill="none" stroke="#63b8ff" d="M619.85,-385.61C612.84,-356.38 600.03,-306.07 585.5,-264 581.26,-251.72 575.49,-238.15 571.07,-228.25"/>
<polygon fill="#63b8ff" stroke="#63b8ff" points="616.53,-386.79 622.24,-395.72 623.34,-385.18 616.53,-386.79"/>
</a>
</g>
</g>
<!-- Node21 -->
<g id="Node000021" class="node">
<title>Node21</title>
<g id="a_Node000021"><a xlink:href="field__metrics__window_8h.html" target="_top" xlink:title=" ">
<polygon fill="white" stroke="#666666" points="1118.5,-228 984.5,-228 984.5,-198 1118.5,-198 1118.5,-228"/>
<text text-anchor="start" x="992.5" y="-216" font-family="Helvetica,sans-Serif" font-size="10.00">include/user_interface</text>
<text text-anchor="middle" x="1051.5" y="-205" font-family="Helvetica,sans-Serif" font-size="10.00">/field_metrics_window.h</text>
</a>
</g>
</g>
<!-- Node1&#45;&gt;Node21 -->
<g id="edge28_Node000001_Node000021" class="edge">
<title>Node1&#45;&gt;Node21</title>
<g id="a_edge28_Node000001_Node000021"><a xlink:title=" ">
<path fill="none" stroke="#63b8ff" d="M665.4,-391.64C749.88,-352.77 945.26,-262.88 1020.86,-228.1"/>
<polygon fill="#63b8ff" stroke="#63b8ff" points="663.76,-388.54 656.14,-395.9 666.68,-394.9 663.76,-388.54"/>
</a>
</g>
</g>
<!-- Node23 -->
<g id="Node000023" class="node">
<title>Node23</title>
<g id="a_Node000023"><a xlink:href="neural__field_8cpp.html" target="_top" xlink:title=" ">
<polygon fill="white" stroke="#666666" points="971,-360 858,-360 858,-330 971,-330 971,-360"/>
<text text-anchor="start" x="866" y="-348" font-family="Helvetica,sans-Serif" font-size="10.00">src/elements/neural</text>
<text text-anchor="middle" x="914.5" y="-337" font-family="Helvetica,sans-Serif" font-size="10.00">_field.cpp</text>
</a>
</g>
</g>
<!-- Node1&#45;&gt;Node23 -->
<g id="edge33_Node000001_Node000023" class="edge">
<title>Node1&#45;&gt;Node23</title>
<g id="a_edge33_Node000001_Node000023"><a xlink:title=" ">
<path fill="none" stroke="#63b8ff" d="M698.89,-393.75C748.17,-382.83 812.16,-368.66 857.59,-358.6"/>
<polygon fill="#63b8ff" stroke="#63b8ff" points="697.93,-390.38 688.92,-395.95 699.44,-397.21 697.93,-390.38"/>
</a>
</g>
</g>
<!-- Node3 -->
<g id="Node000003" class="node">
<title>Node3</title>
<g id="a_Node000003"><a xlink:href="simulation__window_8h.html" target="_top" xlink:title=" ">
<polygon fill="white" stroke="#666666" points="266,-228 141,-228 141,-198 266,-198 266,-228"/>
<text text-anchor="start" x="149" y="-216" font-family="Helvetica,sans-Serif" font-size="10.00">include/user_interface</text>
<text text-anchor="middle" x="203.5" y="-205" font-family="Helvetica,sans-Serif" font-size="10.00">/simulation_window.h</text>
</a>
</g>
</g>
<!-- Node2&#45;&gt;Node3 -->
<g id="edge2_Node000002_Node000003" class="edge">
<title>Node2&#45;&gt;Node3</title>
<g id="a_edge2_Node000002_Node000003"><a xlink:title=" ">
<path fill="none" stroke="#63b8ff" d="M209.1,-253.83C207.88,-245.17 206.55,-235.7 205.49,-228.16"/>
<polygon fill="#63b8ff" stroke="#63b8ff" points="205.64,-254.38 210.5,-263.8 212.58,-253.41 205.64,-254.38"/>
</a>
</g>
</g>
<!-- Node11 -->
<g id="Node000011" class="node">
<title>Node11</title>
<g id="a_Node000011"><a xlink:href="element__factory_8cpp.html" target="_top" xlink:title=" ">
<polygon fill="white" stroke="#666666" points="123,-228 0,-228 0,-198 123,-198 123,-228"/>
<text text-anchor="start" x="8" y="-216" font-family="Helvetica,sans-Serif" font-size="10.00">src/elements/element</text>
<text text-anchor="middle" x="61.5" y="-205" font-family="Helvetica,sans-Serif" font-size="10.00">_factory.cpp</text>
</a>
</g>
</g>
<!-- Node2&#45;&gt;Node11 -->
<g id="edge10_Node000002_Node000011" class="edge">
<title>Node2&#45;&gt;Node11</title>
<g id="a_edge10_Node000002_Node000011"><a xlink:title=" ">
<path fill="none" stroke="#63b8ff" d="M169.84,-259.92C145.97,-249.8 116.67,-237.38 94.56,-228.01"/>
<polygon fill="#63b8ff" stroke="#63b8ff" points="168.79,-263.28 179.36,-263.95 171.52,-256.83 168.79,-263.28"/>
</a>
</g>
</g>
<!-- Node4 -->
<g id="Node000004" class="node">
<title>Node4</title>
<g id="a_Node000004"><a xlink:href="dynamic-neural-field-composer-dynamic_8h.html" target="_top" xlink:title=" ">
<polygon fill="white" stroke="#666666" points="570.5,-162 422.5,-162 422.5,-132 570.5,-132 570.5,-162"/>
<text text-anchor="start" x="430.5" y="-150" font-family="Helvetica,sans-Serif" font-size="10.00">include/dynamic&#45;neural</text>
<text text-anchor="middle" x="496.5" y="-139" font-family="Helvetica,sans-Serif" font-size="10.00">&#45;field&#45;composer&#45;dynamic.h</text>
</a>
</g>
</g>
<!-- Node3&#45;&gt;Node4 -->
<g id="edge3_Node000003_Node000004" class="edge">
<title>Node3&#45;&gt;Node4</title>
<g id="a_edge3_Node000003_Node000004"><a xlink:title=" ">
<path fill="none" stroke="#63b8ff" d="M276.34,-196.09C324.19,-185.64 386.21,-172.09 432.23,-162.04"/>
<polygon fill="#63b8ff" stroke="#63b8ff" points="275.38,-192.72 266.36,-198.27 276.87,-199.56 275.38,-192.72"/>
</a>
</g>
</g>
<!-- Node6 -->
<g id="Node000006" class="node">
<title>Node6</title>
<g id="a_Node000006"><a xlink:href="static__layout__window_8h.html" target="_top" xlink:title=" ">
<polygon fill="white" stroke="#666666" points="398.5,-162 264.5,-162 264.5,-132 398.5,-132 398.5,-162"/>
<text text-anchor="start" x="272.5" y="-150" font-family="Helvetica,sans-Serif" font-size="10.00">include/user_interface</text>
<text text-anchor="middle" x="331.5" y="-139" font-family="Helvetica,sans-Serif" font-size="10.00">/static_layout_window.h</text>
</a>
</g>
</g>
<!-- Node3&#45;&gt;Node6 -->
<g id="edge5_Node000003_Node000006" class="edge">
<title>Node3&#45;&gt;Node6</title>
<g id="a_edge5_Node000003_Node000006"><a xlink:title=" ">
<path fill="none" stroke="#63b8ff" d="M240.74,-193.38C260.77,-183.36 285.07,-171.22 303.48,-162.01"/>
<polygon fill="#63b8ff" stroke="#63b8ff" points="238.97,-190.35 231.59,-197.95 242.1,-196.61 238.97,-190.35"/>
</a>
</g>
</g>
<!-- Node10 -->
<g id="Node000010" class="node">
<title>Node10</title>
<g id="a_Node000010"><a xlink:href="simulation__window_8cpp.html" target="_top" xlink:title=" ">
<polygon fill="white" stroke="#666666" points="246.5,-162 112.5,-162 112.5,-132 246.5,-132 246.5,-162"/>
<text text-anchor="start" x="120.5" y="-150" font-family="Helvetica,sans-Serif" font-size="10.00">src/user_interface</text>
<text text-anchor="middle" x="179.5" y="-139" font-family="Helvetica,sans-Serif" font-size="10.00">/simulation_window.cpp</text>
</a>
</g>
</g>
<!-- Node3&#45;&gt;Node10 -->
<g id="edge9_Node000003_Node000010" class="edge">
<title>Node3&#45;&gt;Node10</title>
<g id="a_edge9_Node000003_Node000010"><a xlink:title=" ">
<path fill="none" stroke="#63b8ff" d="M194.65,-188.39C191.34,-179.59 187.7,-169.86 184.81,-162.16"/>
<polygon fill="#63b8ff" stroke="#63b8ff" points="191.39,-189.66 198.17,-197.8 197.94,-187.2 191.39,-189.66"/>
</a>
</g>
</g>
<!-- Node5 -->
<g id="Node000005" class="node">
<title>Node5</title>
<g id="a_Node000005"><a xlink:href="dynamic-neural-field-composer-dynamic_8cpp.html" target="_top" xlink:title=" ">
<polygon fill="white" stroke="#666666" points="581,-96 422,-96 422,-66 581,-66 581,-96"/>
<text text-anchor="start" x="430" y="-84" font-family="Helvetica,sans-Serif" font-size="10.00">src/dynamic&#45;neural</text>
<text text-anchor="middle" x="501.5" y="-73" font-family="Helvetica,sans-Serif" font-size="10.00">&#45;field&#45;composer&#45;dynamic.cpp</text>
</a>
</g>
</g>
<!-- Node4&#45;&gt;Node5 -->
<g id="edge4_Node000004_Node000005" class="edge">
<title>Node4&#45;&gt;Node5</title>
<g id="a_edge4_Node000004_Node000005"><a xlink:title=" ">
<path fill="none" stroke="#63b8ff" d="M498.39,-121.83C499.06,-113.17 499.8,-103.7 500.39,-96.16"/>
<polygon fill="#63b8ff" stroke="#63b8ff" points="494.9,-121.55 497.61,-131.8 501.88,-122.1 494.9,-121.55"/>
</a>
</g>
</g>
<!-- Node7 -->
<g id="Node000007" class="node">
<title>Node7</title>
<g id="a_Node000007"><a xlink:href="dynamic-neural-field-composer-static_8h.html" target="_top" xlink:title=" ">
<polygon fill="white" stroke="#666666" points="241,-96 108,-96 108,-66 241,-66 241,-96"/>
<text text-anchor="start" x="116" y="-84" font-family="Helvetica,sans-Serif" font-size="10.00">include/dynamic&#45;neural</text>
<text text-anchor="middle" x="174.5" y="-73" font-family="Helvetica,sans-Serif" font-size="10.00">&#45;field&#45;composer&#45;static.h</text>
</a>
</g>
</g>
<!-- Node6&#45;&gt;Node7 -->
<g id="edge6_Node000006_Node000007" class="edge">
<title>Node6&#45;&gt;Node7</title>
<g id="a_edge6_Node000006_Node000007"><a xlink:title=" ">
<path fill="none" stroke="#63b8ff" d="M287.48,-128.05C262.6,-117.91 231.97,-105.43 208.87,-96.01"/>
<polygon fill="#63b8ff" stroke="#63b8ff" points="286.46,-131.42 297.05,-131.95 289.11,-124.94 286.46,-131.42"/>
</a>
</g>
</g>
<!-- Node9 -->
<g id="Node000009" class="node">
<title>Node9</title>
<g id="a_Node000009"><a xlink:href="static__layout__window_8cpp.html" target="_top" xlink:title=" ">
<polygon fill="white" stroke="#666666" points="404,-96 259,-96 259,-66 404,-66 404,-96"/>
<text text-anchor="start" x="267" y="-84" font-family="Helvetica,sans-Serif" font-size="10.00">src/user_interface</text>
<text text-anchor="middle" x="331.5" y="-73" font-family="Helvetica,sans-Serif" font-size="10.00">/static_layout_window.cpp</text>
</a>
</g>
</g>
<!-- Node6&#45;&gt;Node9 -->
<g id="edge8_Node000006_Node000009" class="edge">
<title>Node6&#45;&gt;Node9</title>
<g id="a_edge8_Node000006_Node000009"><a xlink:title=" ">
<path fill="none" stroke="#63b8ff" d="M331.5,-121.54C331.5,-112.96 331.5,-103.61 331.5,-96.16"/>
<polygon fill="#63b8ff" stroke="#63b8ff" points="328,-121.8 331.5,-131.8 335,-121.8 328,-121.8"/>
</a>
</g>
</g>
<!-- Node8 -->
<g id="Node000008" class="node">
<title>Node8</title>
<g id="a_Node000008"><a xlink:href="dynamic-neural-field-composer-static_8cpp.html" target="_top" xlink:title=" ">
<polygon fill="white" stroke="#666666" points="246.5,-30 102.5,-30 102.5,0 246.5,0 246.5,-30"/>
<text text-anchor="start" x="110.5" y="-18" font-family="Helvetica,sans-Serif" font-size="10.00">src/dynamic&#45;neural</text>
<text text-anchor="middle" x="174.5" y="-7" font-family="Helvetica,sans-Serif" font-size="10.00">&#45;field&#45;composer&#45;static.cpp</text>
</a>
</g>
</g>
<!-- Node7&#45;&gt;Node8 -->
<g id="edge7_Node000007_Node000008" class="edge">
<title>Node7&#45;&gt;Node8</title>
<g id="a_edge7_Node000007_Node000008"><a xlink:title=" ">
<path fill="none" stroke="#63b8ff" d="M174.5,-55.54C174.5,-46.96 174.5,-37.61 174.5,-30.16"/>
<polygon fill="#63b8ff" stroke="#63b8ff" points="171,-55.8 174.5,-65.8 178,-55.8 171,-55.8"/>
</a>
</g>
</g>
<!-- Node12&#45;&gt;Node2 -->
<g id="edge12_Node000012_Node000002" class="edge">
<title>Node12&#45;&gt;Node2</title>
<g id="a_edge12_Node000012_Node000002"><a xlink:title=" ">
<path fill="none" stroke="#63b8ff" d="M449,-328.98C398.01,-318.42 330.22,-304.38 280.3,-294.04"/>
<polygon fill="#63b8ff" stroke="#63b8ff" points="448.47,-332.45 458.97,-331.05 449.89,-325.59 448.47,-332.45"/>
</a>
</g>
</g>
<!-- Node12&#45;&gt;Node13 -->
<g id="edge13_Node000012_Node000013" class="edge">
<title>Node12&#45;&gt;Node13</title>
<g id="a_edge13_Node000012_Node000013"><a xlink:title=" ">
<path fill="none" stroke="#63b8ff" d="M576.68,-326.86C609.76,-316.58 651.29,-303.68 682.4,-294.01"/>
<polygon fill="#63b8ff" stroke="#63b8ff" points="575.22,-323.65 566.71,-329.95 577.3,-330.33 575.22,-323.65"/>
</a>
</g>
</g>
<!-- Node12&#45;&gt;Node16 -->
<g id="edge16_Node000012_Node000016" class="edge">
<title>Node12&#45;&gt;Node16</title>
<g id="a_edge16_Node000012_Node000016"><a xlink:title=" ">
<path fill="none" stroke="#63b8ff" d="M479.97,-325.92C456.74,-315.8 428.21,-303.38 406.68,-294.01"/>
<polygon fill="#63b8ff" stroke="#63b8ff" points="478.67,-329.17 489.24,-329.95 481.47,-322.75 478.67,-329.17"/>
</a>
</g>
</g>
<!-- Node12&#45;&gt;Node17 -->
<g id="edge24_Node000012_Node000017" class="edge">
<title>Node12&#45;&gt;Node17</title>
<g id="a_edge24_Node000012_Node000017"><a xlink:title=" ">
<path fill="none" stroke="#63b8ff" d="M548.2,-322.78C556.3,-314.73 564.2,-304.85 568.5,-294 577.11,-272.28 572.69,-244.61 568.64,-228.16"/>
<polygon fill="#63b8ff" stroke="#63b8ff" points="545.75,-320.27 540.79,-329.63 550.5,-325.41 545.75,-320.27"/>
</a>
</g>
</g>
<!-- Node20 -->
<g id="Node000020" class="node">
<title>Node20</title>
<g id="a_Node000020"><a xlink:href="field__coupling_8cpp.html" target="_top" xlink:title=" ">
<polygon fill="white" stroke="#666666" points="559.5,-294 455.5,-294 455.5,-264 559.5,-264 559.5,-294"/>
<text text-anchor="start" x="463.5" y="-282" font-family="Helvetica,sans-Serif" font-size="10.00">src/elements/field</text>
<text text-anchor="middle" x="507.5" y="-271" font-family="Helvetica,sans-Serif" font-size="10.00">_coupling.cpp</text>
</a>
</g>
</g>
<!-- Node12&#45;&gt;Node20 -->
<g id="edge25_Node000012_Node000020" class="edge">
<title>Node12&#45;&gt;Node20</title>
<g id="a_edge25_Node000012_Node000020"><a xlink:title=" ">
<path fill="none" stroke="#63b8ff" d="M516.21,-319.83C514.32,-311.17 512.25,-301.7 510.6,-294.16"/>
<polygon fill="#63b8ff" stroke="#63b8ff" points="512.84,-320.78 518.39,-329.8 519.68,-319.28 512.84,-320.78"/>
</a>
</g>
</g>
<!-- Node14 -->
<g id="Node000014" class="node">
<title>Node14</title>
<g id="a_Node000014"><a xlink:href="simulation_8cpp.html" target="_top" xlink:title=" ">
<polygon fill="white" stroke="#666666" points="808,-222.5 647,-222.5 647,-203.5 808,-203.5 808,-222.5"/>
<text text-anchor="middle" x="727.5" y="-210.5" font-family="Helvetica,sans-Serif" font-size="10.00">src/simulation/simulation.cpp</text>
</a>
</g>
</g>
<!-- Node13&#45;&gt;Node14 -->
<g id="edge14_Node000013_Node000014" class="edge">
<title>Node13&#45;&gt;Node14</title>
<g id="a_edge14_Node000013_Node000014"><a xlink:title=" ">
<path fill="none" stroke="#63b8ff" d="M727.5,-253.6C727.5,-242.8 727.5,-230.78 727.5,-222.84"/>
<polygon fill="#63b8ff" stroke="#63b8ff" points="724,-253.8 727.5,-263.8 731,-253.8 724,-253.8"/>
</a>
</g>
</g>
<!-- Node15 -->
<g id="Node000015" class="node">
<title>Node15</title>
<g id="a_Node000015"><a xlink:href="simulation__file__manager_8cpp.html" target="_top" xlink:title=" ">
<polygon fill="white" stroke="#666666" points="966.5,-228 826.5,-228 826.5,-198 966.5,-198 966.5,-228"/>
<text text-anchor="start" x="834.5" y="-216" font-family="Helvetica,sans-Serif" font-size="10.00">src/simulation/simulation</text>
<text text-anchor="middle" x="896.5" y="-205" font-family="Helvetica,sans-Serif" font-size="10.00">_file_manager.cpp</text>
</a>
</g>
</g>
<!-- Node13&#45;&gt;Node15 -->
<g id="edge15_Node000013_Node000015" class="edge">
<title>Node13&#45;&gt;Node15</title>
<g id="a_edge15_Node000013_Node000015"><a xlink:title=" ">
<path fill="none" stroke="#63b8ff" d="M774.18,-260.32C801.08,-250.14 834.42,-237.51 859.5,-228.01"/>
<polygon fill="#63b8ff" stroke="#63b8ff" points="772.7,-257.14 764.59,-263.95 775.18,-263.69 772.7,-257.14"/>
</a>
</g>
</g>
<!-- Node16&#45;&gt;Node4 -->
<g id="edge17_Node000016_Node000004" class="edge">
<title>Node16&#45;&gt;Node4</title>
<g id="a_edge17_Node000016_Node000004"><a xlink:title=" ">
<path fill="none" stroke="#63b8ff" d="M413.07,-258.96C426.99,-250.79 442.07,-240.28 453.5,-228 471.88,-208.27 484.89,-179.2 491.5,-162.08"/>
<polygon fill="#63b8ff" stroke="#63b8ff" points="411.14,-256.04 404.14,-263.99 414.57,-262.13 411.14,-256.04"/>
</a>
</g>
</g>
<!-- Node16&#45;&gt;Node6 -->
<g id="edge22_Node000016_Node000006" class="edge">
<title>Node16&#45;&gt;Node6</title>
<g id="a_edge22_Node000016_Node000006"><a xlink:title=" ">
<path fill="none" stroke="#63b8ff" d="M339.73,-258C329.33,-250.1 319.19,-240.01 313.5,-228 303.27,-206.38 314.22,-178.68 322.95,-162.2"/>
<polygon fill="#63b8ff" stroke="#63b8ff" points="337.86,-260.96 348.05,-263.86 341.89,-255.24 337.86,-260.96"/>
</a>
</g>
</g>
<!-- Node16&#45;&gt;Node17 -->
<g id="edge18_Node000016_Node000017" class="edge">
<title>Node16&#45;&gt;Node17</title>
<g id="a_edge18_Node000016_Node000017"><a xlink:title=" ">
<path fill="none" stroke="#63b8ff" d="M425.79,-260.72C456.23,-250.47 494.34,-237.63 522.9,-228.01"/>
<polygon fill="#63b8ff" stroke="#63b8ff" points="424.56,-257.45 416.2,-263.95 426.79,-264.08 424.56,-257.45"/>
</a>
</g>
</g>
<!-- Node19 -->
<g id="Node000019" class="node">
<title>Node19</title>
<g id="a_Node000019"><a xlink:href="element__window_8cpp.html" target="_top" xlink:title=" ">
<polygon fill="white" stroke="#666666" points="444.5,-228 322.5,-228 322.5,-198 444.5,-198 444.5,-228"/>
<text text-anchor="start" x="330.5" y="-216" font-family="Helvetica,sans-Serif" font-size="10.00">src/user_interface</text>
<text text-anchor="middle" x="383.5" y="-205" font-family="Helvetica,sans-Serif" font-size="10.00">/element_window.cpp</text>
</a>
</g>
</g>
<!-- Node16&#45;&gt;Node19 -->
<g id="edge23_Node000016_Node000019" class="edge">
<title>Node16&#45;&gt;Node19</title>
<g id="a_edge23_Node000016_Node000019"><a xlink:title=" ">
<path fill="none" stroke="#63b8ff" d="M377.9,-253.83C379.12,-245.17 380.45,-235.7 381.51,-228.16"/>
<polygon fill="#63b8ff" stroke="#63b8ff" points="374.42,-253.41 376.5,-263.8 381.36,-254.38 374.42,-253.41"/>
</a>
</g>
</g>
<!-- Node17&#45;&gt;Node4 -->
<g id="edge19_Node000017_Node000004" class="edge">
<title>Node17&#45;&gt;Node4</title>
<g id="a_edge19_Node000017_Node000004"><a xlink:title=" ">
<path fill="none" stroke="#63b8ff" d="M542.11,-190.92C532.08,-181.49 520.52,-170.61 511.55,-162.16"/>
<polygon fill="#63b8ff" stroke="#63b8ff" points="539.73,-193.49 549.41,-197.8 544.53,-188.39 539.73,-193.49"/>
</a>
</g>
</g>
<!-- Node17&#45;&gt;Node6 -->
<g id="edge20_Node000017_Node000006" class="edge">
<title>Node17&#45;&gt;Node6</title>
<g id="a_edge20_Node000017_Node000006"><a xlink:title=" ">
<path fill="none" stroke="#63b8ff" d="M503.53,-195.25C465.89,-184.91 418.15,-171.8 382.51,-162.01"/>
<polygon fill="#63b8ff" stroke="#63b8ff" points="502.8,-198.68 513.37,-197.95 504.65,-191.93 502.8,-198.68"/>
</a>
</g>
</g>
<!-- Node18 -->
<g id="Node000018" class="node">
<title>Node18</title>
<g id="a_Node000018"><a xlink:href="node__graph__window_8cpp.html" target="_top" xlink:title=" ">
<polygon fill="white" stroke="#666666" points="728,-162 589,-162 589,-132 728,-132 728,-162"/>
<text text-anchor="start" x="597" y="-150" font-family="Helvetica,sans-Serif" font-size="10.00">src/user_interface</text>
<text text-anchor="middle" x="658.5" y="-139" font-family="Helvetica,sans-Serif" font-size="10.00">/node_graph_window.cpp</text>
</a>
</g>
</g>
<!-- Node17&#45;&gt;Node18 -->
<g id="edge21_Node000017_Node000018" class="edge">
<title>Node17&#45;&gt;Node18</title>
<g id="a_edge21_Node000017_Node000018"><a xlink:title=" ">
<path fill="none" stroke="#63b8ff" d="M593.83,-192.03C608.06,-182.34 624.81,-170.94 637.7,-162.16"/>
<polygon fill="#63b8ff" stroke="#63b8ff" points="591.66,-189.28 585.36,-197.8 595.6,-195.06 591.66,-189.28"/>
</a>
</g>
</g>
<!-- Node21&#45;&gt;Node4 -->
<g id="edge29_Node000021_Node000004" class="edge">
<title>Node21&#45;&gt;Node4</title>
<g id="a_edge29_Node000021_Node000004"><a xlink:title=" ">
<path fill="none" stroke="#63b8ff" d="M974.32,-197.93C798.68,-174.35 751.51,-184.29 579.5,-162 576.6,-161.62 573.65,-161.22 570.67,-160.8"/>
<polygon fill="#63b8ff" stroke="#63b8ff" points="974.04,-201.42 984.42,-199.3 974.98,-194.48 974.04,-201.42"/>
</a>
</g>
</g>
<!-- Node21&#45;&gt;Node6 -->
<g id="edge30_Node000021_Node000006" class="edge">
<title>Node21&#45;&gt;Node6</title>
<g id="a_edge30_Node000021_Node000006"><a xlink:title=" ">
<path fill="none" stroke="#63b8ff" d="M974.35,-197.97C725.36,-167.89 658.81,-190.72 413.5,-162 408.62,-161.43 403.6,-160.76 398.54,-160.04"/>
<polygon fill="#63b8ff" stroke="#63b8ff" points="974.08,-201.46 984.43,-199.2 974.93,-194.51 974.08,-201.46"/>
</a>
</g>
</g>
<!-- Node22 -->
<g id="Node000022" class="node">
<title>Node22</title>
<g id="a_Node000022"><a xlink:href="field__metrics__window_8cpp.html" target="_top" xlink:title=" ">
<polygon fill="white" stroke="#666666" points="1124,-162 979,-162 979,-132 1124,-132 1124,-162"/>
<text text-anchor="start" x="987" y="-150" font-family="Helvetica,sans-Serif" font-size="10.00">src/user_interface</text>
<text text-anchor="middle" x="1051.5" y="-139" font-family="Helvetica,sans-Serif" font-size="10.00">/field_metrics_window.cpp</text>
</a>
</g>
</g>
<!-- Node21&#45;&gt;Node22 -->
<g id="edge31_Node000021_Node000022" class="edge">
<title>Node21&#45;&gt;Node22</title>
<g id="a_edge31_Node000021_Node000022"><a xlink:title=" ">
<path fill="none" stroke="#63b8ff" d="M1051.5,-187.54C1051.5,-178.96 1051.5,-169.61 1051.5,-162.16"/>
<polygon fill="#63b8ff" stroke="#63b8ff" points="1048,-187.8 1051.5,-197.8 1055,-187.8 1048,-187.8"/>
</a>
</g>
</g>
</g>
</svg>
