<?xml version="1.0" encoding="UTF-8" standalone="no"?>
<!DOCTYPE svg PUBLIC "-//W3C//DTD SVG 1.1//EN"
 "http://www.w3.org/Graphics/SVG/1.1/DTD/svg11.dtd">
<!-- Generated by graphviz version 2.43.0 (0)
 -->
<!-- Title: src/element_parameters/neural_field_parameters.cpp Pages: 1 -->
<svg width="1298pt" height="346pt"
 viewBox="0.00 0.00 1297.50 346.00" xmlns="http://www.w3.org/2000/svg" xmlns:xlink="http://www.w3.org/1999/xlink">
<g id="graph0" class="graph" transform="scale(1 1) rotate(0) translate(4 342)">
<title>src/element_parameters/neural_field_parameters.cpp</title>
<!-- Node1 -->
<g id="Node000001" class="node">
<title>Node1</title>
<g id="a_Node000001"><a xlink:title=" ">
<polygon fill="#999999" stroke="#666666" points="363.5,-338 205.5,-338 205.5,-308 363.5,-308 363.5,-338"/>
<text text-anchor="start" x="213.5" y="-326" font-family="Helvetica,sans-Serif" font-size="10.00">src/element_parameters</text>
<text text-anchor="middle" x="284.5" y="-315" font-family="Helvetica,sans-Serif" font-size="10.00">/neural_field_parameters.cpp</text>
</a>
</g>
</g>
<!-- Node2 -->
<g id="Node000002" class="node">
<title>Node2</title>
<g id="a_Node000002"><a xlink:href="neural__field__parameters_8h.html" target="_top" xlink:title=" ">
<polygon fill="white" stroke="#666666" points="358,-272 211,-272 211,-242 358,-242 358,-272"/>
<text text-anchor="start" x="219" y="-260" font-family="Helvetica,sans-Serif" font-size="10.00">element_parameters</text>
<text text-anchor="middle" x="284.5" y="-249" font-family="Helvetica,sans-Serif" font-size="10.00">/neural_field_parameters.h</text>
</a>
</g>
</g>
<!-- Node1&#45;&gt;Node2 -->
<g id="edge1_Node000001_Node000002" class="edge">
<title>Node1&#45;&gt;Node2</title>
<g id="a_edge1_Node000001_Node000002"><a xlink:title=" ">
<path fill="none" stroke="#63b8ff" d="M284.5,-307.8C284.5,-300.34 284.5,-290.99 284.5,-282.41"/>
<polygon fill="#63b8ff" stroke="#63b8ff" points="288,-282.16 284.5,-272.16 281,-282.16 288,-282.16"/>
</a>
</g>
</g>
<!-- Node3 -->
<g id="Node000003" class="node">
<title>Node3</title>
<g id="a_Node000003"><a xlink:href="element__parameters_8h.html" target="_top" xlink:title=" ">
<polygon fill="white" stroke="#666666" points="227.5,-200.5 99.5,-200.5 99.5,-181.5 227.5,-181.5 227.5,-200.5"/>
<text text-anchor="middle" x="163.5" y="-188.5" font-family="Helvetica,sans-Serif" font-size="10.00">element_parameters.h</text>
</a>
</g>
</g>
<!-- Node2&#45;&gt;Node3 -->
<g id="edge2_Node000002_Node000003" class="edge">
<title>Node2&#45;&gt;Node3</title>
<g id="a_edge2_Node000002_Node000003"><a xlink:title=" ">
<path fill="none" stroke="#63b8ff" d="M257.95,-241.95C237.29,-231.03 208.82,-215.97 188.55,-205.25"/>
<polygon fill="#63b8ff" stroke="#63b8ff" points="190.08,-202.1 179.6,-200.52 186.81,-208.29 190.08,-202.1"/>
</a>
</g>
</g>
<!-- Node21 -->
<g id="Node000021" class="node">
<title>Node21</title>
<g id="a_Node000021"><a xlink:href="activation__function_8h.html" target="_top" xlink:title=" ">
<polygon fill="white" stroke="#666666" points="518.5,-206 404.5,-206 404.5,-176 518.5,-176 518.5,-206"/>
<text text-anchor="start" x="412.5" y="-194" font-family="Helvetica,sans-Serif" font-size="10.00">elements/activation</text>
<text text-anchor="middle" x="461.5" y="-183" font-family="Helvetica,sans-Serif" font-size="10.00">_function.h</text>
</a>
</g>
</g>
<!-- Node2&#45;&gt;Node21 -->
<g id="edge24_Node000002_Node000021" class="edge">
<title>Node2&#45;&gt;Node21</title>
<g id="a_edge24_Node000002_Node000021"><a xlink:title=" ">
<path fill="none" stroke="#63b8ff" d="M323.34,-241.95C349.74,-232.41 384.86,-219.71 413.08,-209.51"/>
<polygon fill="#63b8ff" stroke="#63b8ff" points="414.53,-212.7 422.75,-206.01 412.15,-206.12 414.53,-212.7"/>
</a>
</g>
</g>
<!-- Node4 -->
<g id="Node000004" class="node">
<title>Node4</title>
<g id="a_Node000004"><a xlink:title=" ">
<polygon fill="#e0e0e0" stroke="#999999" points="67.5,-140 29.5,-140 29.5,-121 67.5,-121 67.5,-140"/>
<text text-anchor="middle" x="48.5" y="-128" font-family="Helvetica,sans-Serif" font-size="10.00">map</text>
</a>
</g>
</g>
<!-- Node3&#45;&gt;Node4 -->
<g id="edge3_Node000003_Node000004" class="edge">
<title>Node3&#45;&gt;Node4</title>
<g id="a_edge3_Node000003_Node000004"><a xlink:title=" ">
<path fill="none" stroke="#63b8ff" d="M146.53,-181.37C127.59,-171.73 96.71,-156.03 74.67,-144.81"/>
<polygon fill="#63b8ff" stroke="#63b8ff" points="76.04,-141.58 65.54,-140.17 72.86,-147.82 76.04,-141.58"/>
</a>
</g>
</g>
<!-- Node5 -->
<g id="Node000005" class="node">
<title>Node5</title>
<g id="a_Node000005"><a xlink:title=" ">
<polygon fill="#e0e0e0" stroke="#999999" points="407.5,-19 363.5,-19 363.5,0 407.5,0 407.5,-19"/>
<text text-anchor="middle" x="385.5" y="-7" font-family="Helvetica,sans-Serif" font-size="10.00">string</text>
</a>
</g>
</g>
<!-- Node3&#45;&gt;Node5 -->
<g id="edge4_Node000003_Node000005" class="edge">
<title>Node3&#45;&gt;Node5</title>
<g id="a_edge4_Node000003_Node000005"><a xlink:title=" ">
<path fill="none" stroke="#63b8ff" d="M161.8,-181.34C157.69,-157.64 149.89,-91.04 183.5,-55 206.19,-30.67 301.89,-18.24 353,-13.24"/>
<polygon fill="#63b8ff" stroke="#63b8ff" points="353.56,-16.7 363.18,-12.28 352.9,-9.73 353.56,-16.7"/>
</a>
</g>
</g>
<!-- Node6 -->
<g id="Node000006" class="node">
<title>Node6</title>
<g id="a_Node000006"><a xlink:title=" ">
<polygon fill="#e0e0e0" stroke="#999999" points="135.5,-140 85.5,-140 85.5,-121 135.5,-121 135.5,-140"/>
<text text-anchor="middle" x="110.5" y="-128" font-family="Helvetica,sans-Serif" font-size="10.00">format</text>
</a>
</g>
</g>
<!-- Node3&#45;&gt;Node6 -->
<g id="edge5_Node000003_Node000006" class="edge">
<title>Node3&#45;&gt;Node6</title>
<g id="a_edge5_Node000003_Node000006"><a xlink:title=" ">
<path fill="none" stroke="#63b8ff" d="M155.68,-181.37C147.69,-172.55 135.11,-158.66 125.24,-147.77"/>
<polygon fill="#63b8ff" stroke="#63b8ff" points="127.66,-145.23 118.35,-140.17 122.47,-149.93 127.66,-145.23"/>
</a>
</g>
</g>
<!-- Node7 -->
<g id="Node000007" class="node">
<title>Node7</title>
<g id="a_Node000007"><a xlink:href="logger_8h.html" target="_top" xlink:title=" ">
<polygon fill="white" stroke="#666666" points="447,-140 364,-140 364,-121 447,-121 447,-140"/>
<text text-anchor="middle" x="405.5" y="-128" font-family="Helvetica,sans-Serif" font-size="10.00">tools/logger.h</text>
</a>
</g>
</g>
<!-- Node3&#45;&gt;Node7 -->
<g id="edge6_Node000003_Node000007" class="edge">
<title>Node3&#45;&gt;Node7</title>
<g id="a_edge6_Node000003_Node000007"><a xlink:title=" ">
<path fill="none" stroke="#63b8ff" d="M198.69,-181.49C241.43,-171.16 313.62,-153.71 360.4,-142.4"/>
<polygon fill="#63b8ff" stroke="#63b8ff" points="361.37,-145.77 370.27,-140.02 359.73,-138.96 361.37,-145.77"/>
</a>
</g>
</g>
<!-- Node7&#45;&gt;Node5 -->
<g id="edge8_Node000007_Node000005" class="edge">
<title>Node7&#45;&gt;Node5</title>
<g id="a_edge8_Node000007_Node000005"><a xlink:title=" ">
<path fill="none" stroke="#63b8ff" d="M404.06,-120.94C400.86,-101.91 393.09,-55.69 388.69,-29.47"/>
<polygon fill="#63b8ff" stroke="#63b8ff" points="392.09,-28.58 386.98,-19.3 385.19,-29.74 392.09,-28.58"/>
</a>
</g>
</g>
<!-- Node8 -->
<g id="Node000008" class="node">
<title>Node8</title>
<g id="a_Node000008"><a xlink:title=" ">
<polygon fill="#e0e0e0" stroke="#999999" points="377.5,-79.5 317.5,-79.5 317.5,-60.5 377.5,-60.5 377.5,-79.5"/>
<text text-anchor="middle" x="347.5" y="-67.5" font-family="Helvetica,sans-Serif" font-size="10.00">iostream</text>
</a>
</g>
</g>
<!-- Node7&#45;&gt;Node8 -->
<g id="edge7_Node000007_Node000008" class="edge">
<title>Node7&#45;&gt;Node8</title>
<g id="a_edge7_Node000007_Node000008"><a xlink:title=" ">
<path fill="none" stroke="#63b8ff" d="M396.94,-120.87C388.12,-111.97 374.16,-97.89 363.32,-86.95"/>
<polygon fill="#63b8ff" stroke="#63b8ff" points="365.62,-84.3 356.09,-79.67 360.65,-89.23 365.62,-84.3"/>
</a>
</g>
</g>
<!-- Node9 -->
<g id="Node000009" class="node">
<title>Node9</title>
<g id="a_Node000009"><a xlink:title=" ">
<polygon fill="#e0e0e0" stroke="#999999" points="475.5,-19 425.5,-19 425.5,0 475.5,0 475.5,-19"/>
<text text-anchor="middle" x="450.5" y="-7" font-family="Helvetica,sans-Serif" font-size="10.00">chrono</text>
</a>
</g>
</g>
<!-- Node7&#45;&gt;Node9 -->
<g id="edge9_Node000007_Node000009" class="edge">
<title>Node7&#45;&gt;Node9</title>
<g id="a_edge9_Node000007_Node000009"><a xlink:title=" ">
<path fill="none" stroke="#63b8ff" d="M445.7,-120.87C465.19,-114.45 486.86,-103.48 498.5,-85 505.61,-73.72 503.83,-67.22 498.5,-55 493.23,-42.92 482.87,-32.65 473.13,-25.03"/>
<polygon fill="#63b8ff" stroke="#63b8ff" points="475.02,-22.07 464.87,-19.04 470.91,-27.74 475.02,-22.07"/>
</a>
</g>
</g>
<!-- Node10 -->
<g id="Node000010" class="node">
<title>Node10</title>
<g id="a_Node000010"><a xlink:title=" ">
<polygon fill="#e0e0e0" stroke="#999999" points="489.5,-79.5 433.5,-79.5 433.5,-60.5 489.5,-60.5 489.5,-79.5"/>
<text text-anchor="middle" x="461.5" y="-67.5" font-family="Helvetica,sans-Serif" font-size="10.00">iomanip</text>
</a>
</g>
</g>
<!-- Node7&#45;&gt;Node10 -->
<g id="edge10_Node000007_Node000010" class="edge">
<title>Node7&#45;&gt;Node10</title>
<g id="a_edge10_Node000007_Node000010"><a xlink:title=" ">
<path fill="none" stroke="#63b8ff" d="M413.76,-120.87C422.28,-111.97 435.76,-97.89 446.23,-86.95"/>
<polygon fill="#63b8ff" stroke="#63b8ff" points="448.82,-89.31 453.2,-79.67 443.76,-84.47 448.82,-89.31"/>
</a>
</g>
</g>
<!-- Node11 -->
<g id="Node000011" class="node">
<title>Node11</title>
<g id="a_Node000011"><a xlink:title=" ">
<polygon fill="#e0e0e0" stroke="#999999" points="299,-85 192,-85 192,-55 299,-55 299,-85"/>
<text text-anchor="start" x="200" y="-73" font-family="Helvetica,sans-Serif" font-size="10.00">imgui&#45;platform&#45;kit</text>
<text text-anchor="middle" x="245.5" y="-62" font-family="Helvetica,sans-Serif" font-size="10.00">/log_window.h</text>
</a>
</g>
</g>
<!-- Node7&#45;&gt;Node11 -->
<g id="edge11_Node000007_Node000011" class="edge">
<title>Node7&#45;&gt;Node11</title>
<g id="a_edge11_Node000007_Node000011"><a xlink:title=" ">
<path fill="none" stroke="#63b8ff" d="M382.23,-120.99C359.11,-112.54 322.95,-99.32 293.62,-88.59"/>
<polygon fill="#63b8ff" stroke="#63b8ff" points="294.56,-85.21 283.97,-85.06 292.16,-91.79 294.56,-85.21"/>
</a>
</g>
</g>
<!-- Node12 -->
<g id="Node000012" class="node">
<title>Node12</title>
<g id="a_Node000012"><a xlink:href="exception_8h.html" target="_top" xlink:title=" ">
<polygon fill="white" stroke="#666666" points="135.5,-79.5 5.5,-79.5 5.5,-60.5 135.5,-60.5 135.5,-79.5"/>
<text text-anchor="middle" x="70.5" y="-67.5" font-family="Helvetica,sans-Serif" font-size="10.00">exceptions/exception.h</text>
</a>
</g>
</g>
<!-- Node7&#45;&gt;Node12 -->
<g id="edge12_Node000007_Node000012" class="edge">
<title>Node7&#45;&gt;Node12</title>
<g id="a_edge12_Node000007_Node000012"><a xlink:title=" ">
<path fill="none" stroke="#63b8ff" d="M363.75,-122.21C304.69,-111.9 196.48,-93 129.31,-81.27"/>
<polygon fill="#63b8ff" stroke="#63b8ff" points="129.76,-77.8 119.3,-79.52 128.55,-84.69 129.76,-77.8"/>
</a>
</g>
</g>
<!-- Node15 -->
<g id="Node000015" class="node">
<title>Node15</title>
<g id="a_Node000015"><a xlink:href="utils_8h.html" target="_top" xlink:title=" ">
<polygon fill="white" stroke="#666666" points="631,-79.5 584,-79.5 584,-60.5 631,-60.5 631,-79.5"/>
<text text-anchor="middle" x="607.5" y="-67.5" font-family="Helvetica,sans-Serif" font-size="10.00">utils.h</text>
</a>
</g>
</g>
<!-- Node7&#45;&gt;Node15 -->
<g id="edge16_Node000007_Node000015" class="edge">
<title>Node7&#45;&gt;Node15</title>
<g id="a_edge16_Node000007_Node000015"><a xlink:title=" ">
<path fill="none" stroke="#63b8ff" d="M440.63,-120.92C474.02,-112.54 525.52,-99.04 569.5,-85 571.41,-84.39 573.36,-83.74 575.33,-83.07"/>
<polygon fill="#63b8ff" stroke="#63b8ff" points="576.84,-86.25 585.11,-79.62 574.51,-79.65 576.84,-86.25"/>
</a>
</g>
</g>
<!-- Node12&#45;&gt;Node5 -->
<g id="edge15_Node000012_Node000005" class="edge">
<title>Node12&#45;&gt;Node5</title>
<g id="a_edge15_Node000012_Node000005"><a xlink:title=" ">
<path fill="none" stroke="#63b8ff" d="M116.3,-60.49C180.91,-48.5 297.16,-26.91 353.36,-16.47"/>
<polygon fill="#63b8ff" stroke="#63b8ff" points="354.25,-19.86 363.44,-14.6 352.97,-12.98 354.25,-19.86"/>
</a>
</g>
</g>
<!-- Node13 -->
<g id="Node000013" class="node">
<title>Node13</title>
<g id="a_Node000013"><a xlink:title=" ">
<polygon fill="#e0e0e0" stroke="#999999" points="133.5,-19 83.5,-19 83.5,0 133.5,0 133.5,-19"/>
<text text-anchor="middle" x="108.5" y="-7" font-family="Helvetica,sans-Serif" font-size="10.00">cstdint</text>
</a>
</g>
</g>
<!-- Node12&#45;&gt;Node13 -->
<g id="edge13_Node000012_Node000013" class="edge">
<title>Node12&#45;&gt;Node13</title>
<g id="a_edge13_Node000012_Node000013"><a xlink:title=" ">
<path fill="none" stroke="#63b8ff" d="M76.11,-60.37C81.66,-51.81 90.33,-38.47 97.3,-27.74"/>
<polygon fill="#63b8ff" stroke="#63b8ff" points="100.36,-29.46 102.87,-19.17 94.49,-25.65 100.36,-29.46"/>
</a>
</g>
</g>
<!-- Node14 -->
<g id="Node000014" class="node">
<title>Node14</title>
<g id="a_Node000014"><a xlink:title=" ">
<polygon fill="#e0e0e0" stroke="#999999" points="65,-19 0,-19 0,0 65,0 65,-19"/>
<text text-anchor="middle" x="32.5" y="-7" font-family="Helvetica,sans-Serif" font-size="10.00">exception</text>
</a>
</g>
</g>
<!-- Node12&#45;&gt;Node14 -->
<g id="edge14_Node000012_Node000014" class="edge">
<title>Node12&#45;&gt;Node14</title>
<g id="a_edge14_Node000012_Node000014"><a xlink:title=" ">
<path fill="none" stroke="#63b8ff" d="M64.89,-60.37C59.34,-51.81 50.67,-38.47 43.7,-27.74"/>
<polygon fill="#63b8ff" stroke="#63b8ff" points="46.51,-25.65 38.13,-19.17 40.64,-29.46 46.51,-25.65"/>
</a>
</g>
</g>
<!-- Node15&#45;&gt;Node5 -->
<g id="edge17_Node000015_Node000005" class="edge">
<title>Node15&#45;&gt;Node5</title>
<g id="a_edge17_Node000015_Node000005"><a xlink:title=" ">
<path fill="none" stroke="#63b8ff" d="M583.95,-62.93C549.57,-54.04 483.35,-36.86 417.25,-19.18"/>
<polygon fill="#63b8ff" stroke="#63b8ff" points="418.07,-15.77 407.51,-16.57 416.26,-22.54 418.07,-15.77"/>
</a>
</g>
</g>
<!-- Node15&#45;&gt;Node9 -->
<g id="edge22_Node000015_Node000009" class="edge">
<title>Node15&#45;&gt;Node9</title>
<g id="a_edge22_Node000015_Node000009"><a xlink:title=" ">
<path fill="none" stroke="#63b8ff" d="M584.67,-60.49C557.93,-50.53 513.42,-33.95 483.06,-22.63"/>
<polygon fill="#63b8ff" stroke="#63b8ff" points="483.95,-19.23 473.36,-19.02 481.51,-25.79 483.95,-19.23"/>
</a>
</g>
</g>
<!-- Node16 -->
<g id="Node000016" class="node">
<title>Node16</title>
<g id="a_Node000016"><a xlink:title=" ">
<polygon fill="#e0e0e0" stroke="#999999" points="774,-19 727,-19 727,0 774,0 774,-19"/>
<text text-anchor="middle" x="750.5" y="-7" font-family="Helvetica,sans-Serif" font-size="10.00">vector</text>
</a>
</g>
</g>
<!-- Node15&#45;&gt;Node16 -->
<g id="edge18_Node000015_Node000016" class="edge">
<title>Node15&#45;&gt;Node16</title>
<g id="a_edge18_Node000015_Node000016"><a xlink:title=" ">
<path fill="none" stroke="#63b8ff" d="M628.29,-60.49C652.44,-50.62 692.48,-34.23 720.12,-22.93"/>
<polygon fill="#63b8ff" stroke="#63b8ff" points="721.75,-26.04 729.68,-19.02 719.1,-19.56 721.75,-26.04"/>
</a>
</g>
</g>
<!-- Node17 -->
<g id="Node000017" class="node">
<title>Node17</title>
<g id="a_Node000017"><a xlink:title=" ">
<polygon fill="#e0e0e0" stroke="#999999" points="846.5,-19 792.5,-19 792.5,0 846.5,0 846.5,-19"/>
<text text-anchor="middle" x="819.5" y="-7" font-family="Helvetica,sans-Serif" font-size="10.00">random</text>
</a>
</g>
</g>
<!-- Node15&#45;&gt;Node17 -->
<g id="edge19_Node000015_Node000017" class="edge">
<title>Node15&#45;&gt;Node17</title>
<g id="a_edge19_Node000015_Node000017"><a xlink:title=" ">
<path fill="none" stroke="#63b8ff" d="M631.41,-62.4C668.2,-52.25 738.99,-32.72 782.45,-20.72"/>
<polygon fill="#63b8ff" stroke="#63b8ff" points="783.64,-24.03 792.35,-17.99 781.78,-17.28 783.64,-24.03"/>
</a>
</g>
</g>
<!-- Node18 -->
<g id="Node000018" class="node">
<title>Node18</title>
<g id="a_Node000018"><a xlink:title=" ">
<polygon fill="#e0e0e0" stroke="#999999" points="635.5,-19 579.5,-19 579.5,0 635.5,0 635.5,-19"/>
<text text-anchor="middle" x="607.5" y="-7" font-family="Helvetica,sans-Serif" font-size="10.00">sstream</text>
</a>
</g>
</g>
<!-- Node15&#45;&gt;Node18 -->
<g id="edge20_Node000015_Node000018" class="edge">
<title>Node15&#45;&gt;Node18</title>
<g id="a_edge20_Node000015_Node000018"><a xlink:title=" ">
<path fill="none" stroke="#63b8ff" d="M607.5,-60.37C607.5,-52.25 607.5,-39.81 607.5,-29.39"/>
<polygon fill="#63b8ff" stroke="#63b8ff" points="611,-29.17 607.5,-19.17 604,-29.17 611,-29.17"/>
</a>
</g>
</g>
<!-- Node19 -->
<g id="Node000019" class="node">
<title>Node19</title>
<g id="a_Node000019"><a xlink:title=" ">
<polygon fill="#e0e0e0" stroke="#999999" points="709,-19 654,-19 654,0 709,0 709,-19"/>
<text text-anchor="middle" x="681.5" y="-7" font-family="Helvetica,sans-Serif" font-size="10.00">fstream</text>
</a>
</g>
</g>
<!-- Node15&#45;&gt;Node19 -->
<g id="edge21_Node000015_Node000019" class="edge">
<title>Node15&#45;&gt;Node19</title>
<g id="a_edge21_Node000015_Node000019"><a xlink:title=" ">
<path fill="none" stroke="#63b8ff" d="M618.42,-60.37C630.01,-51.21 648.53,-36.56 662.52,-25.51"/>
<polygon fill="#63b8ff" stroke="#63b8ff" points="664.86,-28.11 670.54,-19.17 660.52,-22.62 664.86,-28.11"/>
</a>
</g>
</g>
<!-- Node20 -->
<g id="Node000020" class="node">
<title>Node20</title>
<g id="a_Node000020"><a xlink:title=" ">
<polygon fill="#e0e0e0" stroke="#999999" points="561.5,-19 493.5,-19 493.5,0 561.5,0 561.5,-19"/>
<text text-anchor="middle" x="527.5" y="-7" font-family="Helvetica,sans-Serif" font-size="10.00">filesystem</text>
</a>
</g>
</g>
<!-- Node15&#45;&gt;Node20 -->
<g id="edge23_Node000015_Node000020" class="edge">
<title>Node15&#45;&gt;Node20</title>
<g id="a_edge23_Node000015_Node000020"><a xlink:title=" ">
<path fill="none" stroke="#63b8ff" d="M595.7,-60.37C583.05,-51.12 562.76,-36.28 547.59,-25.19"/>
<polygon fill="#63b8ff" stroke="#63b8ff" points="549.49,-22.24 539.35,-19.17 545.36,-27.9 549.49,-22.24"/>
</a>
</g>
</g>
<!-- Node21&#45;&gt;Node5 -->
<g id="edge25_Node000021_Node000005" class="edge">
<title>Node21&#45;&gt;Node5</title>
<g id="a_edge25_Node000021_Node000005"><a xlink:title=" ">
<path fill="none" stroke="#63b8ff" d="M472.5,-175.73C491.17,-149.63 524.63,-93.37 498.5,-55 493.65,-47.88 449,-31.74 417.3,-20.98"/>
<polygon fill="#63b8ff" stroke="#63b8ff" points="418.13,-17.56 407.53,-17.69 415.89,-24.2 418.13,-17.56"/>
</a>
</g>
</g>
<!-- Node21&#45;&gt;Node7 -->
<g id="edge26_Node000021_Node000007" class="edge">
<title>Node21&#45;&gt;Node7</title>
<g id="a_edge26_Node000021_Node000007"><a xlink:title=" ">
<path fill="none" stroke="#63b8ff" d="M447.94,-175.84C439.82,-167.35 429.45,-156.52 421,-147.69"/>
<polygon fill="#63b8ff" stroke="#63b8ff" points="423.33,-145.07 413.89,-140.27 418.28,-149.91 423.33,-145.07"/>
</a>
</g>
</g>
<!-- Node22 -->
<g id="Node000022" class="node">
<title>Node22</title>
<g id="a_Node000022"><a xlink:href="math_8h.html" target="_top" xlink:title=" ">
<polygon fill="white" stroke="#666666" points="970.5,-79.5 892.5,-79.5 892.5,-60.5 970.5,-60.5 970.5,-79.5"/>
<text text-anchor="middle" x="931.5" y="-67.5" font-family="Helvetica,sans-Serif" font-size="10.00">tools/math.h</text>
</a>
</g>
</g>
<!-- Node21&#45;&gt;Node22 -->
<g id="edge27_Node000021_Node000022" class="edge">
<title>Node21&#45;&gt;Node22</title>
<g id="a_edge27_Node000021_Node000022"><a xlink:title=" ">
<path fill="none" stroke="#63b8ff" d="M516.8,-176C611.35,-152.06 802.18,-103.74 887.98,-82.02"/>
<polygon fill="#63b8ff" stroke="#63b8ff" points="889.07,-85.35 897.91,-79.51 887.35,-78.57 889.07,-85.35"/>
</a>
</g>
</g>
<!-- Node22&#45;&gt;Node16 -->
<g id="edge28_Node000022_Node000016" class="edge">
<title>Node22&#45;&gt;Node16</title>
<g id="a_edge28_Node000022_Node000016"><a xlink:title=" ">
<path fill="none" stroke="#63b8ff" d="M905.18,-60.49C873.14,-50.14 819,-32.64 784.01,-21.33"/>
<polygon fill="#63b8ff" stroke="#63b8ff" points="784.85,-17.92 774.25,-18.18 782.69,-24.58 784.85,-17.92"/>
</a>
</g>
</g>
<!-- Node22&#45;&gt;Node17 -->
<g id="edge34_Node000022_Node000017" class="edge">
<title>Node22&#45;&gt;Node17</title>
<g id="a_edge34_Node000022_Node000017"><a xlink:title=" ">
<path fill="none" stroke="#63b8ff" d="M914.97,-60.37C896.53,-50.73 866.46,-35.03 844.99,-23.81"/>
<polygon fill="#63b8ff" stroke="#63b8ff" points="846.58,-20.69 836.09,-19.17 843.34,-26.9 846.58,-20.69"/>
</a>
</g>
</g>
<!-- Node22&#45;&gt;Node19 -->
<g id="edge36_Node000022_Node000019" class="edge">
<title>Node22&#45;&gt;Node19</title>
<g id="a_edge36_Node000022_Node000019"><a xlink:title=" ">
<path fill="none" stroke="#63b8ff" d="M895.15,-60.49C848.09,-49.48 766.49,-30.39 718.92,-19.26"/>
<polygon fill="#63b8ff" stroke="#63b8ff" points="719.56,-15.81 709.02,-16.94 717.96,-22.63 719.56,-15.81"/>
</a>
</g>
</g>
<!-- Node23 -->
<g id="Node000023" class="node">
<title>Node23</title>
<g id="a_Node000023"><a xlink:title=" ">
<polygon fill="#e0e0e0" stroke="#999999" points="1141.5,-19 1099.5,-19 1099.5,0 1141.5,0 1141.5,-19"/>
<text text-anchor="middle" x="1120.5" y="-7" font-family="Helvetica,sans-Serif" font-size="10.00">array</text>
</a>
</g>
</g>
<!-- Node22&#45;&gt;Node23 -->
<g id="edge29_Node000022_Node000023" class="edge">
<title>Node22&#45;&gt;Node23</title>
<g id="a_edge29_Node000022_Node000023"><a xlink:title=" ">
<path fill="none" stroke="#63b8ff" d="M958.98,-60.49C993.79,-49.72 1053.61,-31.21 1089.86,-19.98"/>
<polygon fill="#63b8ff" stroke="#63b8ff" points="1090.9,-23.33 1099.42,-17.03 1088.83,-16.64 1090.9,-23.33"/>
</a>
</g>
</g>
<!-- Node24 -->
<g id="Node000024" class="node">
<title>Node24</title>
<g id="a_Node000024"><a xlink:title=" ">
<polygon fill="#e0e0e0" stroke="#999999" points="1207,-19 1160,-19 1160,0 1207,0 1207,-19"/>
<text text-anchor="middle" x="1183.5" y="-7" font-family="Helvetica,sans-Serif" font-size="10.00">cmath</text>
</a>
</g>
</g>
<!-- Node22&#45;&gt;Node24 -->
<g id="edge30_Node000022_Node000024" class="edge">
<title>Node22&#45;&gt;Node24</title>
<g id="a_edge30_Node000022_Node000024"><a xlink:title=" ">
<path fill="none" stroke="#63b8ff" d="M970.34,-60.47C1012.21,-51.2 1081.06,-35.75 1150,-19.07"/>
<polygon fill="#63b8ff" stroke="#63b8ff" points="1150.83,-22.47 1159.73,-16.71 1149.18,-15.67 1150.83,-22.47"/>
</a>
</g>
</g>
<!-- Node25 -->
<g id="Node000025" class="node">
<title>Node25</title>
<g id="a_Node000025"><a xlink:title=" ">
<polygon fill="#e0e0e0" stroke="#999999" points="1289.5,-19 1225.5,-19 1225.5,0 1289.5,0 1289.5,-19"/>
<text text-anchor="middle" x="1257.5" y="-7" font-family="Helvetica,sans-Serif" font-size="10.00">algorithm</text>
</a>
</g>
</g>
<!-- Node22&#45;&gt;Node25 -->
<g id="edge31_Node000022_Node000025" class="edge">
<title>Node22&#45;&gt;Node25</title>
<g id="a_edge31_Node000022_Node000025"><a xlink:title=" ">
<path fill="none" stroke="#63b8ff" d="M970.76,-62.51C1023.9,-53.63 1121.93,-36.95 1215.39,-19.17"/>
<polygon fill="#63b8ff" stroke="#63b8ff" points="1216.12,-22.59 1225.29,-17.28 1214.81,-15.71 1216.12,-22.59"/>
</a>
</g>
</g>
<!-- Node26 -->
<g id="Node000026" class="node">
<title>Node26</title>
<g id="a_Node000026"><a xlink:title=" ">
<polygon fill="#e0e0e0" stroke="#999999" points="920.5,-19 864.5,-19 864.5,0 920.5,0 920.5,-19"/>
<text text-anchor="middle" x="892.5" y="-7" font-family="Helvetica,sans-Serif" font-size="10.00">numeric</text>
</a>
</g>
</g>
<!-- Node22&#45;&gt;Node26 -->
<g id="edge32_Node000022_Node000026" class="edge">
<title>Node22&#45;&gt;Node26</title>
<g id="a_edge32_Node000022_Node000026"><a xlink:title=" ">
<path fill="none" stroke="#63b8ff" d="M925.75,-60.37C920.04,-51.81 911.15,-38.47 903.99,-27.74"/>
<polygon fill="#63b8ff" stroke="#63b8ff" points="906.74,-25.55 898.28,-19.17 900.91,-29.43 906.74,-25.55"/>
</a>
</g>
</g>
<!-- Node27 -->
<g id="Node000027" class="node">
<title>Node27</title>
<g id="a_Node000027"><a xlink:title=" ">
<polygon fill="#e0e0e0" stroke="#999999" points="1004,-19 939,-19 939,0 1004,0 1004,-19"/>
<text text-anchor="middle" x="971.5" y="-7" font-family="Helvetica,sans-Serif" font-size="10.00">functional</text>
</a>
</g>
</g>
<!-- Node22&#45;&gt;Node27 -->
<g id="edge33_Node000022_Node000027" class="edge">
<title>Node22&#45;&gt;Node27</title>
<g id="a_edge33_Node000022_Node000027"><a xlink:title=" ">
<path fill="none" stroke="#63b8ff" d="M937.4,-60.37C943.25,-51.81 952.37,-38.47 959.71,-27.74"/>
<polygon fill="#63b8ff" stroke="#63b8ff" points="962.82,-29.4 965.57,-19.17 957.04,-25.45 962.82,-29.4"/>
</a>
</g>
</g>
<!-- Node28 -->
<g id="Node000028" class="node">
<title>Node28</title>
<g id="a_Node000028"><a xlink:title=" ">
<polygon fill="#e0e0e0" stroke="#999999" points="1081,-19 1022,-19 1022,0 1081,0 1081,-19"/>
<text text-anchor="middle" x="1051.5" y="-7" font-family="Helvetica,sans-Serif" font-size="10.00">numbers</text>
</a>
</g>
</g>
<!-- Node22&#45;&gt;Node28 -->
<g id="edge35_Node000022_Node000028" class="edge">
<title>Node22&#45;&gt;Node28</title>
<g id="a_edge35_Node000022_Node000028"><a xlink:title=" ">
<path fill="none" stroke="#63b8ff" d="M948.95,-60.49C968.86,-50.79 1001.64,-34.81 1024.77,-23.53"/>
<polygon fill="#63b8ff" stroke="#63b8ff" points="1026.57,-26.54 1034.03,-19.02 1023.51,-20.25 1026.57,-26.54"/>
</a>
</g>
</g>
</g>
</svg>
