<?xml version="1.0" encoding="UTF-8" standalone="no"?>
<!DOCTYPE svg PUBLIC "-//W3C//DTD SVG 1.1//EN"
 "http://www.w3.org/Graphics/SVG/1.1/DTD/svg11.dtd">
<!-- Generated by graphviz version 2.43.0 (0)
 -->
<!-- Title: src/element_parameters/neural_field_parameters.cpp Pages: 1 -->
<svg width="1261pt" height="346pt"
 viewBox="0.00 0.00 1260.50 346.00" xmlns="http://www.w3.org/2000/svg" xmlns:xlink="http://www.w3.org/1999/xlink">
<g id="graph0" class="graph" transform="scale(1 1) rotate(0) translate(4 342)">
<title>src/element_parameters/neural_field_parameters.cpp</title>
<!-- Node1 -->
<g id="Node000001" class="node">
<title>Node1</title>
<g id="a_Node000001"><a xlink:title=" ">
<polygon fill="#999999" stroke="#666666" points="1170,-338 1012,-338 1012,-308 1170,-308 1170,-338"/>
<text text-anchor="start" x="1020" y="-326" font-family="Helvetica,sans-Serif" font-size="10.00">src/element_parameters</text>
<text text-anchor="middle" x="1091" y="-315" font-family="Helvetica,sans-Serif" font-size="10.00">/neural_field_parameters.cpp</text>
</a>
</g>
</g>
<!-- Node2 -->
<g id="Node000002" class="node">
<title>Node2</title>
<g id="a_Node000002"><a xlink:href="neural__field__parameters_8h.html" target="_top" xlink:title=" ">
<polygon fill="white" stroke="#666666" points="1113.5,-272 966.5,-272 966.5,-242 1113.5,-242 1113.5,-272"/>
<text text-anchor="start" x="974.5" y="-260" font-family="Helvetica,sans-Serif" font-size="10.00">element_parameters</text>
<text text-anchor="middle" x="1040" y="-249" font-family="Helvetica,sans-Serif" font-size="10.00">/neural_field_parameters.h</text>
</a>
</g>
</g>
<!-- Node1&#45;&gt;Node2 -->
<g id="edge1_Node000001_Node000002" class="edge">
<title>Node1&#45;&gt;Node2</title>
<g id="a_edge1_Node000001_Node000002"><a xlink:title=" ">
<path fill="none" stroke="#63b8ff" d="M1079.68,-307.8C1073.21,-299.68 1064.95,-289.31 1057.65,-280.15"/>
<polygon fill="#63b8ff" stroke="#63b8ff" points="1060.26,-277.8 1051.29,-272.16 1054.78,-282.17 1060.26,-277.8"/>
</a>
</g>
</g>
<!-- Node6 -->
<g id="Node000006" class="node">
<title>Node6</title>
<g id="a_Node000006"><a xlink:title=" ">
<polygon fill="#e0e0e0" stroke="#999999" points="1167,-140 1117,-140 1117,-121 1167,-121 1167,-140"/>
<text text-anchor="middle" x="1142" y="-128" font-family="Helvetica,sans-Serif" font-size="10.00">format</text>
</a>
</g>
</g>
<!-- Node1&#45;&gt;Node6 -->
<g id="edge37_Node000001_Node000006" class="edge">
<title>Node1&#45;&gt;Node6</title>
<g id="a_edge37_Node000001_Node000006"><a xlink:title=" ">
<path fill="none" stroke="#63b8ff" d="M1101.92,-307.95C1108.81,-298.35 1117.26,-285.06 1122,-272 1137.15,-230.25 1140.88,-177.64 1141.76,-150.16"/>
<polygon fill="#63b8ff" stroke="#63b8ff" points="1145.27,-150.1 1141.99,-140.03 1138.27,-149.94 1145.27,-150.1"/>
</a>
</g>
</g>
<!-- Node3 -->
<g id="Node000003" class="node">
<title>Node3</title>
<g id="a_Node000003"><a xlink:href="element__parameters_8h.html" target="_top" xlink:title=" ">
<polygon fill="white" stroke="#666666" points="1105,-200.5 977,-200.5 977,-181.5 1105,-181.5 1105,-200.5"/>
<text text-anchor="middle" x="1041" y="-188.5" font-family="Helvetica,sans-Serif" font-size="10.00">element_parameters.h</text>
</a>
</g>
</g>
<!-- Node2&#45;&gt;Node3 -->
<g id="edge2_Node000002_Node000003" class="edge">
<title>Node2&#45;&gt;Node3</title>
<g id="a_edge2_Node000002_Node000003"><a xlink:title=" ">
<path fill="none" stroke="#63b8ff" d="M1040.22,-241.8C1040.36,-232.7 1040.55,-220.79 1040.7,-210.9"/>
<polygon fill="#63b8ff" stroke="#63b8ff" points="1044.21,-210.9 1040.86,-200.84 1037.21,-210.79 1044.21,-210.9"/>
</a>
</g>
</g>
<!-- Node21 -->
<g id="Node000021" class="node">
<title>Node21</title>
<g id="a_Node000021"><a xlink:href="activation__function_8h.html" target="_top" xlink:title=" ">
<polygon fill="white" stroke="#666666" points="856,-206 742,-206 742,-176 856,-176 856,-206"/>
<text text-anchor="start" x="750" y="-194" font-family="Helvetica,sans-Serif" font-size="10.00">elements/activation</text>
<text text-anchor="middle" x="799" y="-183" font-family="Helvetica,sans-Serif" font-size="10.00">_function.h</text>
</a>
</g>
</g>
<!-- Node2&#45;&gt;Node21 -->
<g id="edge24_Node000002_Node000021" class="edge">
<title>Node2&#45;&gt;Node21</title>
<g id="a_edge24_Node000002_Node000021"><a xlink:title=" ">
<path fill="none" stroke="#63b8ff" d="M987.11,-241.95C950.07,-232.12 900.42,-218.93 861.43,-208.58"/>
<polygon fill="#63b8ff" stroke="#63b8ff" points="862.33,-205.2 851.77,-206.01 860.53,-211.96 862.33,-205.2"/>
</a>
</g>
</g>
<!-- Node4 -->
<g id="Node000004" class="node">
<title>Node4</title>
<g id="a_Node000004"><a xlink:title=" ">
<polygon fill="#e0e0e0" stroke="#999999" points="1060,-140 1022,-140 1022,-121 1060,-121 1060,-140"/>
<text text-anchor="middle" x="1041" y="-128" font-family="Helvetica,sans-Serif" font-size="10.00">map</text>
</a>
</g>
</g>
<!-- Node3&#45;&gt;Node4 -->
<g id="edge3_Node000003_Node000004" class="edge">
<title>Node3&#45;&gt;Node4</title>
<g id="a_edge3_Node000003_Node000004"><a xlink:title=" ">
<path fill="none" stroke="#63b8ff" d="M1041,-181.37C1041,-173.25 1041,-160.81 1041,-150.39"/>
<polygon fill="#63b8ff" stroke="#63b8ff" points="1044.5,-150.17 1041,-140.17 1037.5,-150.17 1044.5,-150.17"/>
</a>
</g>
</g>
<!-- Node5 -->
<g id="Node000005" class="node">
<title>Node5</title>
<g id="a_Node000005"><a xlink:title=" ">
<polygon fill="#e0e0e0" stroke="#999999" points="999,-19 955,-19 955,0 999,0 999,-19"/>
<text text-anchor="middle" x="977" y="-7" font-family="Helvetica,sans-Serif" font-size="10.00">string</text>
</a>
</g>
</g>
<!-- Node3&#45;&gt;Node5 -->
<g id="edge4_Node000003_Node000005" class="edge">
<title>Node3&#45;&gt;Node5</title>
<g id="a_edge4_Node000003_Node000005"><a xlink:title=" ">
<path fill="none" stroke="#63b8ff" d="M1047.6,-181.37C1054.44,-171.84 1064.74,-155.75 1069,-140 1078.87,-103.53 1090.14,-86.96 1070,-55 1056.72,-33.92 1030.38,-22.6 1009.11,-16.67"/>
<polygon fill="#63b8ff" stroke="#63b8ff" points="1009.71,-13.21 999.16,-14.17 1008,-20 1009.71,-13.21"/>
</a>
</g>
</g>
<!-- Node3&#45;&gt;Node6 -->
<g id="edge5_Node000003_Node000006" class="edge">
<title>Node3&#45;&gt;Node6</title>
<g id="a_edge5_Node000003_Node000006"><a xlink:title=" ">
<path fill="none" stroke="#63b8ff" d="M1055.9,-181.37C1072.31,-171.86 1098.93,-156.45 1118.23,-145.27"/>
<polygon fill="#63b8ff" stroke="#63b8ff" points="1120.14,-148.21 1127.04,-140.17 1116.63,-142.15 1120.14,-148.21"/>
</a>
</g>
</g>
<!-- Node7 -->
<g id="Node000007" class="node">
<title>Node7</title>
<g id="a_Node000007"><a xlink:href="logger_8h.html" target="_top" xlink:title=" ">
<polygon fill="white" stroke="#666666" points="960.5,-140 877.5,-140 877.5,-121 960.5,-121 960.5,-140"/>
<text text-anchor="middle" x="919" y="-128" font-family="Helvetica,sans-Serif" font-size="10.00">tools/logger.h</text>
</a>
</g>
</g>
<!-- Node3&#45;&gt;Node7 -->
<g id="edge6_Node000003_Node000007" class="edge">
<title>Node3&#45;&gt;Node7</title>
<g id="a_edge6_Node000003_Node000007"><a xlink:title=" ">
<path fill="none" stroke="#63b8ff" d="M1023.26,-181.49C1002.93,-171.75 969.39,-155.66 945.86,-144.38"/>
<polygon fill="#63b8ff" stroke="#63b8ff" points="947.29,-141.18 936.76,-140.02 944.26,-147.5 947.29,-141.18"/>
</a>
</g>
</g>
<!-- Node7&#45;&gt;Node5 -->
<g id="edge8_Node000007_Node000005" class="edge">
<title>Node7&#45;&gt;Node5</title>
<g id="a_edge8_Node000007_Node000005"><a xlink:title=" ">
<path fill="none" stroke="#63b8ff" d="M928.79,-120.93C937.68,-112.6 950.53,-99.18 958,-85 967.31,-67.32 972.23,-44.85 974.71,-29.23"/>
<polygon fill="#63b8ff" stroke="#63b8ff" points="978.19,-29.63 976.11,-19.24 971.25,-28.65 978.19,-29.63"/>
</a>
</g>
</g>
<!-- Node8 -->
<g id="Node000008" class="node">
<title>Node8</title>
<g id="a_Node000008"><a xlink:title=" ">
<polygon fill="#e0e0e0" stroke="#999999" points="949,-79.5 889,-79.5 889,-60.5 949,-60.5 949,-79.5"/>
<text text-anchor="middle" x="919" y="-67.5" font-family="Helvetica,sans-Serif" font-size="10.00">iostream</text>
</a>
</g>
</g>
<!-- Node7&#45;&gt;Node8 -->
<g id="edge7_Node000007_Node000008" class="edge">
<title>Node7&#45;&gt;Node8</title>
<g id="a_edge7_Node000007_Node000008"><a xlink:title=" ">
<path fill="none" stroke="#63b8ff" d="M919,-120.87C919,-112.75 919,-100.31 919,-89.89"/>
<polygon fill="#63b8ff" stroke="#63b8ff" points="922.5,-89.67 919,-79.67 915.5,-89.67 922.5,-89.67"/>
</a>
</g>
</g>
<!-- Node9 -->
<g id="Node000009" class="node">
<title>Node9</title>
<g id="a_Node000009"><a xlink:title=" ">
<polygon fill="#e0e0e0" stroke="#999999" points="864,-19 814,-19 814,0 864,0 864,-19"/>
<text text-anchor="middle" x="839" y="-7" font-family="Helvetica,sans-Serif" font-size="10.00">chrono</text>
</a>
</g>
</g>
<!-- Node7&#45;&gt;Node9 -->
<g id="edge9_Node000007_Node000009" class="edge">
<title>Node7&#45;&gt;Node9</title>
<g id="a_edge9_Node000007_Node000009"><a xlink:title=" ">
<path fill="none" stroke="#63b8ff" d="M877.32,-124.06C833.52,-117.38 768.93,-104.49 754,-85 745.89,-74.42 747.1,-66.41 754,-55 764.89,-37 785.73,-25.93 804.04,-19.33"/>
<polygon fill="#63b8ff" stroke="#63b8ff" points="805.19,-22.64 813.6,-16.2 803.01,-15.99 805.19,-22.64"/>
</a>
</g>
</g>
<!-- Node10 -->
<g id="Node000010" class="node">
<title>Node10</title>
<g id="a_Node000010"><a xlink:title=" ">
<polygon fill="#e0e0e0" stroke="#999999" points="1061,-79.5 1005,-79.5 1005,-60.5 1061,-60.5 1061,-79.5"/>
<text text-anchor="middle" x="1033" y="-67.5" font-family="Helvetica,sans-Serif" font-size="10.00">iomanip</text>
</a>
</g>
</g>
<!-- Node7&#45;&gt;Node10 -->
<g id="edge10_Node000007_Node000010" class="edge">
<title>Node7&#45;&gt;Node10</title>
<g id="a_edge10_Node000007_Node000010"><a xlink:title=" ">
<path fill="none" stroke="#63b8ff" d="M935.82,-120.87C954.6,-111.23 985.2,-95.53 1007.05,-84.31"/>
<polygon fill="#63b8ff" stroke="#63b8ff" points="1008.81,-87.35 1016.11,-79.67 1005.61,-81.12 1008.81,-87.35"/>
</a>
</g>
</g>
<!-- Node11 -->
<g id="Node000011" class="node">
<title>Node11</title>
<g id="a_Node000011"><a xlink:title=" ">
<polygon fill="#e0e0e0" stroke="#999999" points="870.5,-85 763.5,-85 763.5,-55 870.5,-55 870.5,-85"/>
<text text-anchor="start" x="771.5" y="-73" font-family="Helvetica,sans-Serif" font-size="10.00">imgui&#45;platform&#45;kit</text>
<text text-anchor="middle" x="817" y="-62" font-family="Helvetica,sans-Serif" font-size="10.00">/log_window.h</text>
</a>
</g>
</g>
<!-- Node7&#45;&gt;Node11 -->
<g id="edge11_Node000007_Node000011" class="edge">
<title>Node7&#45;&gt;Node11</title>
<g id="a_edge11_Node000007_Node000011"><a xlink:title=" ">
<path fill="none" stroke="#63b8ff" d="M903.95,-120.87C889.98,-112.86 868.69,-100.65 850.68,-90.31"/>
<polygon fill="#63b8ff" stroke="#63b8ff" points="852.03,-87.05 841.61,-85.11 848.54,-93.13 852.03,-87.05"/>
</a>
</g>
</g>
<!-- Node12 -->
<g id="Node000012" class="node">
<title>Node12</title>
<g id="a_Node000012"><a xlink:href="exception_8h.html" target="_top" xlink:title=" ">
<polygon fill="white" stroke="#666666" points="1247,-79.5 1117,-79.5 1117,-60.5 1247,-60.5 1247,-79.5"/>
<text text-anchor="middle" x="1182" y="-67.5" font-family="Helvetica,sans-Serif" font-size="10.00">exceptions/exception.h</text>
</a>
</g>
</g>
<!-- Node7&#45;&gt;Node12 -->
<g id="edge12_Node000007_Node000012" class="edge">
<title>Node7&#45;&gt;Node12</title>
<g id="a_edge12_Node000007_Node000012"><a xlink:title=" ">
<path fill="none" stroke="#63b8ff" d="M957.24,-120.99C1003.99,-110.6 1083.13,-92.99 1133.94,-81.69"/>
<polygon fill="#63b8ff" stroke="#63b8ff" points="1134.71,-85.1 1143.71,-79.52 1133.19,-78.27 1134.71,-85.1"/>
</a>
</g>
</g>
<!-- Node15 -->
<g id="Node000015" class="node">
<title>Node15</title>
<g id="a_Node000015"><a xlink:href="utils_8h.html" target="_top" xlink:title=" ">
<polygon fill="white" stroke="#666666" points="668.5,-79.5 621.5,-79.5 621.5,-60.5 668.5,-60.5 668.5,-79.5"/>
<text text-anchor="middle" x="645" y="-67.5" font-family="Helvetica,sans-Serif" font-size="10.00">utils.h</text>
</a>
</g>
</g>
<!-- Node7&#45;&gt;Node15 -->
<g id="edge16_Node000007_Node000015" class="edge">
<title>Node7&#45;&gt;Node15</title>
<g id="a_edge16_Node000007_Node000015"><a xlink:title=" ">
<path fill="none" stroke="#63b8ff" d="M879.16,-120.99C825,-109.43 729.12,-88.96 678.48,-78.15"/>
<polygon fill="#63b8ff" stroke="#63b8ff" points="679.2,-74.72 668.69,-76.06 677.74,-81.57 679.2,-74.72"/>
</a>
</g>
</g>
<!-- Node12&#45;&gt;Node5 -->
<g id="edge15_Node000012_Node000005" class="edge">
<title>Node12&#45;&gt;Node5</title>
<g id="a_edge15_Node000012_Node000005"><a xlink:title=" ">
<path fill="none" stroke="#63b8ff" d="M1152.19,-60.49C1114.07,-49.61 1048.3,-30.85 1009.1,-19.66"/>
<polygon fill="#63b8ff" stroke="#63b8ff" points="1009.85,-16.23 999.27,-16.85 1007.92,-22.96 1009.85,-16.23"/>
</a>
</g>
</g>
<!-- Node13 -->
<g id="Node000013" class="node">
<title>Node13</title>
<g id="a_Node000013"><a xlink:title=" ">
<polygon fill="#e0e0e0" stroke="#999999" points="1169,-19 1119,-19 1119,0 1169,0 1169,-19"/>
<text text-anchor="middle" x="1144" y="-7" font-family="Helvetica,sans-Serif" font-size="10.00">cstdint</text>
</a>
</g>
</g>
<!-- Node12&#45;&gt;Node13 -->
<g id="edge13_Node000012_Node000013" class="edge">
<title>Node12&#45;&gt;Node13</title>
<g id="a_edge13_Node000012_Node000013"><a xlink:title=" ">
<path fill="none" stroke="#63b8ff" d="M1176.39,-60.37C1170.84,-51.81 1162.17,-38.47 1155.2,-27.74"/>
<polygon fill="#63b8ff" stroke="#63b8ff" points="1158.01,-25.65 1149.63,-19.17 1152.14,-29.46 1158.01,-25.65"/>
</a>
</g>
</g>
<!-- Node14 -->
<g id="Node000014" class="node">
<title>Node14</title>
<g id="a_Node000014"><a xlink:title=" ">
<polygon fill="#e0e0e0" stroke="#999999" points="1252.5,-19 1187.5,-19 1187.5,0 1252.5,0 1252.5,-19"/>
<text text-anchor="middle" x="1220" y="-7" font-family="Helvetica,sans-Serif" font-size="10.00">exception</text>
</a>
</g>
</g>
<!-- Node12&#45;&gt;Node14 -->
<g id="edge14_Node000012_Node000014" class="edge">
<title>Node12&#45;&gt;Node14</title>
<g id="a_edge14_Node000012_Node000014"><a xlink:title=" ">
<path fill="none" stroke="#63b8ff" d="M1187.61,-60.37C1193.16,-51.81 1201.83,-38.47 1208.8,-27.74"/>
<polygon fill="#63b8ff" stroke="#63b8ff" points="1211.86,-29.46 1214.37,-19.17 1205.99,-25.65 1211.86,-29.46"/>
</a>
</g>
</g>
<!-- Node15&#45;&gt;Node5 -->
<g id="edge17_Node000015_Node000005" class="edge">
<title>Node15&#45;&gt;Node5</title>
<g id="a_edge17_Node000015_Node000005"><a xlink:title=" ">
<path fill="none" stroke="#63b8ff" d="M666.06,-60.38C671.51,-58.39 677.42,-56.44 683,-55 776.51,-30.96 890.31,-18.3 944.84,-13.22"/>
<polygon fill="#63b8ff" stroke="#63b8ff" points="945.29,-16.69 954.93,-12.3 944.66,-9.72 945.29,-16.69"/>
</a>
</g>
</g>
<!-- Node15&#45;&gt;Node9 -->
<g id="edge22_Node000015_Node000009" class="edge">
<title>Node15&#45;&gt;Node9</title>
<g id="a_edge22_Node000015_Node000009"><a xlink:title=" ">
<path fill="none" stroke="#63b8ff" d="M667.41,-60.43C672.51,-58.56 677.92,-56.66 683,-55 724.31,-41.52 772.5,-28.12 804.26,-19.61"/>
<polygon fill="#63b8ff" stroke="#63b8ff" points="805.21,-22.98 813.97,-17.02 803.4,-16.21 805.21,-22.98"/>
</a>
</g>
</g>
<!-- Node16 -->
<g id="Node000016" class="node">
<title>Node16</title>
<g id="a_Node000016"><a xlink:title=" ">
<polygon fill="#e0e0e0" stroke="#999999" points="563.5,-19 516.5,-19 516.5,0 563.5,0 563.5,-19"/>
<text text-anchor="middle" x="540" y="-7" font-family="Helvetica,sans-Serif" font-size="10.00">vector</text>
</a>
</g>
</g>
<!-- Node15&#45;&gt;Node16 -->
<g id="edge18_Node000015_Node000016" class="edge">
<title>Node15&#45;&gt;Node16</title>
<g id="a_edge18_Node000015_Node000016"><a xlink:title=" ">
<path fill="none" stroke="#63b8ff" d="M629.51,-60.37C612.37,-50.82 584.53,-35.31 564.44,-24.12"/>
<polygon fill="#63b8ff" stroke="#63b8ff" points="566,-20.98 555.56,-19.17 562.59,-27.09 566,-20.98"/>
</a>
</g>
</g>
<!-- Node17 -->
<g id="Node000017" class="node">
<title>Node17</title>
<g id="a_Node000017"><a xlink:title=" ">
<polygon fill="#e0e0e0" stroke="#999999" points="636,-19 582,-19 582,0 636,0 636,-19"/>
<text text-anchor="middle" x="609" y="-7" font-family="Helvetica,sans-Serif" font-size="10.00">random</text>
</a>
</g>
</g>
<!-- Node15&#45;&gt;Node17 -->
<g id="edge19_Node000015_Node000017" class="edge">
<title>Node15&#45;&gt;Node17</title>
<g id="a_edge19_Node000015_Node000017"><a xlink:title=" ">
<path fill="none" stroke="#63b8ff" d="M639.69,-60.37C634.42,-51.81 626.21,-38.47 619.61,-27.74"/>
<polygon fill="#63b8ff" stroke="#63b8ff" points="622.56,-25.85 614.33,-19.17 616.59,-29.52 622.56,-25.85"/>
</a>
</g>
</g>
<!-- Node18 -->
<g id="Node000018" class="node">
<title>Node18</title>
<g id="a_Node000018"><a xlink:title=" ">
<polygon fill="#e0e0e0" stroke="#999999" points="710,-19 654,-19 654,0 710,0 710,-19"/>
<text text-anchor="middle" x="682" y="-7" font-family="Helvetica,sans-Serif" font-size="10.00">sstream</text>
</a>
</g>
</g>
<!-- Node15&#45;&gt;Node18 -->
<g id="edge20_Node000015_Node000018" class="edge">
<title>Node15&#45;&gt;Node18</title>
<g id="a_edge20_Node000015_Node000018"><a xlink:title=" ">
<path fill="none" stroke="#63b8ff" d="M650.46,-60.37C655.87,-51.81 664.31,-38.47 671.1,-27.74"/>
<polygon fill="#63b8ff" stroke="#63b8ff" points="674.13,-29.49 676.52,-19.17 668.21,-25.75 674.13,-29.49"/>
</a>
</g>
</g>
<!-- Node19 -->
<g id="Node000019" class="node">
<title>Node19</title>
<g id="a_Node000019"><a xlink:title=" ">
<polygon fill="#e0e0e0" stroke="#999999" points="498.5,-19 443.5,-19 443.5,0 498.5,0 498.5,-19"/>
<text text-anchor="middle" x="471" y="-7" font-family="Helvetica,sans-Serif" font-size="10.00">fstream</text>
</a>
</g>
</g>
<!-- Node15&#45;&gt;Node19 -->
<g id="edge21_Node000015_Node000019" class="edge">
<title>Node15&#45;&gt;Node19</title>
<g id="a_edge21_Node000015_Node000019"><a xlink:title=" ">
<path fill="none" stroke="#63b8ff" d="M621.17,-60.99C591.44,-50.99 540.34,-33.81 506.12,-22.31"/>
<polygon fill="#63b8ff" stroke="#63b8ff" points="507.11,-18.95 496.52,-19.08 504.88,-25.58 507.11,-18.95"/>
</a>
</g>
</g>
<!-- Node20 -->
<g id="Node000020" class="node">
<title>Node20</title>
<g id="a_Node000020"><a xlink:title=" ">
<polygon fill="#e0e0e0" stroke="#999999" points="796,-19 728,-19 728,0 796,0 796,-19"/>
<text text-anchor="middle" x="762" y="-7" font-family="Helvetica,sans-Serif" font-size="10.00">filesystem</text>
</a>
</g>
</g>
<!-- Node15&#45;&gt;Node20 -->
<g id="edge23_Node000015_Node000020" class="edge">
<title>Node15&#45;&gt;Node20</title>
<g id="a_edge23_Node000015_Node000020"><a xlink:title=" ">
<path fill="none" stroke="#63b8ff" d="M662.01,-60.49C681.42,-50.79 713.39,-34.81 735.94,-23.53"/>
<polygon fill="#63b8ff" stroke="#63b8ff" points="737.59,-26.62 744.97,-19.02 734.46,-20.36 737.59,-26.62"/>
</a>
</g>
</g>
<!-- Node21&#45;&gt;Node5 -->
<g id="edge25_Node000021_Node000005" class="edge">
<title>Node21&#45;&gt;Node5</title>
<g id="a_edge25_Node000021_Node000005"><a xlink:title=" ">
<path fill="none" stroke="#63b8ff" d="M786.33,-175.78C764.27,-149.28 723.92,-91.68 754,-55 766.02,-40.34 885.5,-22.63 944.45,-14.7"/>
<polygon fill="#63b8ff" stroke="#63b8ff" points="945.26,-18.12 954.72,-13.34 944.34,-11.18 945.26,-18.12"/>
</a>
</g>
</g>
<!-- Node21&#45;&gt;Node7 -->
<g id="edge26_Node000021_Node000007" class="edge">
<title>Node21&#45;&gt;Node7</title>
<g id="a_edge26_Node000021_Node000007"><a xlink:title=" ">
<path fill="none" stroke="#63b8ff" d="M827.74,-175.99C847.32,-166.45 873.05,-153.9 892.2,-144.57"/>
<polygon fill="#63b8ff" stroke="#63b8ff" points="893.82,-147.67 901.28,-140.14 890.76,-141.38 893.82,-147.67"/>
</a>
</g>
</g>
<!-- Node22 -->
<g id="Node000022" class="node">
<title>Node22</title>
<g id="a_Node000022"><a xlink:href="math_8h.html" target="_top" xlink:title=" ">
<polygon fill="white" stroke="#666666" points="395,-79.5 317,-79.5 317,-60.5 395,-60.5 395,-79.5"/>
<text text-anchor="middle" x="356" y="-67.5" font-family="Helvetica,sans-Serif" font-size="10.00">tools/math.h</text>
</a>
</g>
</g>
<!-- Node21&#45;&gt;Node22 -->
<g id="edge27_Node000021_Node000022" class="edge">
<title>Node21&#45;&gt;Node22</title>
<g id="a_edge27_Node000021_Node000022"><a xlink:title=" ">
<path fill="none" stroke="#63b8ff" d="M746.88,-176C657.94,-152.11 478.62,-103.94 397.52,-82.15"/>
<polygon fill="#63b8ff" stroke="#63b8ff" points="398.23,-78.72 387.66,-79.51 396.41,-85.48 398.23,-78.72"/>
</a>
</g>
</g>
<!-- Node22&#45;&gt;Node16 -->
<g id="edge28_Node000022_Node000016" class="edge">
<title>Node22&#45;&gt;Node16</title>
<g id="a_edge28_Node000022_Node000016"><a xlink:title=" ">
<path fill="none" stroke="#63b8ff" d="M382.76,-60.49C415.5,-50.08 470.98,-32.44 506.52,-21.14"/>
<polygon fill="#63b8ff" stroke="#63b8ff" points="507.96,-24.36 516.43,-18 505.83,-17.69 507.96,-24.36"/>
</a>
</g>
</g>
<!-- Node22&#45;&gt;Node17 -->
<g id="edge34_Node000022_Node000017" class="edge">
<title>Node22&#45;&gt;Node17</title>
<g id="a_edge34_Node000022_Node000017"><a xlink:title=" ">
<path fill="none" stroke="#63b8ff" d="M392.79,-60.49C440.67,-49.42 523.88,-30.18 571.91,-19.08"/>
<polygon fill="#63b8ff" stroke="#63b8ff" points="572.93,-22.43 581.88,-16.77 571.35,-15.61 572.93,-22.43"/>
</a>
</g>
</g>
<!-- Node22&#45;&gt;Node19 -->
<g id="edge36_Node000022_Node000019" class="edge">
<title>Node22&#45;&gt;Node19</title>
<g id="a_edge36_Node000022_Node000019"><a xlink:title=" ">
<path fill="none" stroke="#63b8ff" d="M372.97,-60.37C391.91,-50.73 422.79,-35.03 444.83,-23.81"/>
<polygon fill="#63b8ff" stroke="#63b8ff" points="446.64,-26.82 453.96,-19.17 443.46,-20.58 446.64,-26.82"/>
</a>
</g>
</g>
<!-- Node23 -->
<g id="Node000023" class="node">
<title>Node23</title>
<g id="a_Node000023"><a xlink:title=" ">
<polygon fill="#e0e0e0" stroke="#999999" points="277,-19 235,-19 235,0 277,0 277,-19"/>
<text text-anchor="middle" x="256" y="-7" font-family="Helvetica,sans-Serif" font-size="10.00">array</text>
</a>
</g>
</g>
<!-- Node22&#45;&gt;Node23 -->
<g id="edge29_Node000022_Node000023" class="edge">
<title>Node22&#45;&gt;Node23</title>
<g id="a_edge29_Node000022_Node000023"><a xlink:title=" ">
<path fill="none" stroke="#63b8ff" d="M341.24,-60.37C325,-50.86 298.65,-35.45 279.54,-24.27"/>
<polygon fill="#63b8ff" stroke="#63b8ff" points="281.21,-21.2 270.82,-19.17 277.68,-27.24 281.21,-21.2"/>
</a>
</g>
</g>
<!-- Node24 -->
<g id="Node000024" class="node">
<title>Node24</title>
<g id="a_Node000024"><a xlink:title=" ">
<polygon fill="#e0e0e0" stroke="#999999" points="342.5,-19 295.5,-19 295.5,0 342.5,0 342.5,-19"/>
<text text-anchor="middle" x="319" y="-7" font-family="Helvetica,sans-Serif" font-size="10.00">cmath</text>
</a>
</g>
</g>
<!-- Node22&#45;&gt;Node24 -->
<g id="edge30_Node000022_Node000024" class="edge">
<title>Node22&#45;&gt;Node24</title>
<g id="a_edge30_Node000022_Node000024"><a xlink:title=" ">
<path fill="none" stroke="#63b8ff" d="M350.54,-60.37C345.13,-51.81 336.69,-38.47 329.9,-27.74"/>
<polygon fill="#63b8ff" stroke="#63b8ff" points="332.79,-25.75 324.48,-19.17 326.87,-29.49 332.79,-25.75"/>
</a>
</g>
</g>
<!-- Node25 -->
<g id="Node000025" class="node">
<title>Node25</title>
<g id="a_Node000025"><a xlink:title=" ">
<polygon fill="#e0e0e0" stroke="#999999" points="425,-19 361,-19 361,0 425,0 425,-19"/>
<text text-anchor="middle" x="393" y="-7" font-family="Helvetica,sans-Serif" font-size="10.00">algorithm</text>
</a>
</g>
</g>
<!-- Node22&#45;&gt;Node25 -->
<g id="edge31_Node000022_Node000025" class="edge">
<title>Node22&#45;&gt;Node25</title>
<g id="a_edge31_Node000022_Node000025"><a xlink:title=" ">
<path fill="none" stroke="#63b8ff" d="M361.46,-60.37C366.87,-51.81 375.31,-38.47 382.1,-27.74"/>
<polygon fill="#63b8ff" stroke="#63b8ff" points="385.13,-29.49 387.52,-19.17 379.21,-25.75 385.13,-29.49"/>
</a>
</g>
</g>
<!-- Node26 -->
<g id="Node000026" class="node">
<title>Node26</title>
<g id="a_Node000026"><a xlink:title=" ">
<polygon fill="#e0e0e0" stroke="#999999" points="56,-19 0,-19 0,0 56,0 56,-19"/>
<text text-anchor="middle" x="28" y="-7" font-family="Helvetica,sans-Serif" font-size="10.00">numeric</text>
</a>
</g>
</g>
<!-- Node22&#45;&gt;Node26 -->
<g id="edge32_Node000022_Node000026" class="edge">
<title>Node22&#45;&gt;Node26</title>
<g id="a_edge32_Node000022_Node000026"><a xlink:title=" ">
<path fill="none" stroke="#63b8ff" d="M316.81,-62.98C262.66,-54.5 161.7,-38.13 66.08,-19.13"/>
<polygon fill="#63b8ff" stroke="#63b8ff" points="66.74,-15.69 56.25,-17.16 65.37,-22.55 66.74,-15.69"/>
</a>
</g>
</g>
<!-- Node27 -->
<g id="Node000027" class="node">
<title>Node27</title>
<g id="a_Node000027"><a xlink:title=" ">
<polygon fill="#e0e0e0" stroke="#999999" points="139.5,-19 74.5,-19 74.5,0 139.5,0 139.5,-19"/>
<text text-anchor="middle" x="107" y="-7" font-family="Helvetica,sans-Serif" font-size="10.00">functional</text>
</a>
</g>
</g>
<!-- Node22&#45;&gt;Node27 -->
<g id="edge33_Node000022_Node000027" class="edge">
<title>Node22&#45;&gt;Node27</title>
<g id="a_edge33_Node000022_Node000027"><a xlink:title=" ">
<path fill="none" stroke="#63b8ff" d="M319.79,-60.49C274.59,-49.87 197.38,-31.73 149.44,-20.47"/>
<polygon fill="#63b8ff" stroke="#63b8ff" points="150.21,-17.06 139.68,-18.18 148.61,-23.87 150.21,-17.06"/>
</a>
</g>
</g>
<!-- Node28 -->
<g id="Node000028" class="node">
<title>Node28</title>
<g id="a_Node000028"><a xlink:title=" ">
<polygon fill="#e0e0e0" stroke="#999999" points="216.5,-19 157.5,-19 157.5,0 216.5,0 216.5,-19"/>
<text text-anchor="middle" x="187" y="-7" font-family="Helvetica,sans-Serif" font-size="10.00">numbers</text>
</a>
</g>
</g>
<!-- Node22&#45;&gt;Node28 -->
<g id="edge35_Node000022_Node000028" class="edge">
<title>Node22&#45;&gt;Node28</title>
<g id="a_edge35_Node000022_Node000028"><a xlink:title=" ">
<path fill="none" stroke="#63b8ff" d="M331.43,-60.49C302.39,-50.44 253.9,-33.66 221.2,-22.34"/>
<polygon fill="#63b8ff" stroke="#63b8ff" points="222.2,-18.98 211.6,-19.02 219.91,-25.6 222.2,-18.98"/>
</a>
</g>
</g>
</g>
</svg>
