<?xml version="1.0" encoding="UTF-8" standalone="no"?>
<!DOCTYPE svg PUBLIC "-//W3C//DTD SVG 1.1//EN"
 "http://www.w3.org/Graphics/SVG/1.1/DTD/svg11.dtd">
<!-- Generated by graphviz version 2.43.0 (0)
 -->
<!-- Title: include/elements/neural_field_2d.h Pages: 1 -->
<svg width="1452pt" height="335pt"
 viewBox="0.00 0.00 1452.00 335.00" xmlns="http://www.w3.org/2000/svg" xmlns:xlink="http://www.w3.org/1999/xlink">
<g id="graph0" class="graph" transform="scale(1 1) rotate(0) translate(4 331)">
<title>include/elements/neural_field_2d.h</title>
<!-- Node1 -->
<g id="Node000001" class="node">
<title>Node1</title>
<g id="a_Node000001"><a xlink:title=" ">
<polygon fill="#999999" stroke="#666666" points="988.5,-327 854.5,-327 854.5,-297 988.5,-297 988.5,-327"/>
<text text-anchor="start" x="862.5" y="-315" font-family="Helvetica,sans-Serif" font-size="10.00">include/elements/neural</text>
<text text-anchor="middle" x="921.5" y="-304" font-family="Helvetica,sans-Serif" font-size="10.00">_field_2d.h</text>
</a>
</g>
</g>
<!-- Node2 -->
<g id="Node000002" class="node">
<title>Node2</title>
<g id="a_Node000002"><a xlink:title=" ">
<polygon fill="#e0e0e0" stroke="#999999" points="939,-79.5 892,-79.5 892,-60.5 939,-60.5 939,-79.5"/>
<text text-anchor="middle" x="915.5" y="-67.5" font-family="Helvetica,sans-Serif" font-size="10.00">cmath</text>
</a>
</g>
</g>
<!-- Node1&#45;&gt;Node2 -->
<g id="edge1_Node000001_Node000002" class="edge">
<title>Node1&#45;&gt;Node2</title>
<g id="a_edge1_Node000001_Node000002"><a xlink:title=" ">
<path fill="none" stroke="#63b8ff" d="M926.6,-296.78C929.87,-286.89 933.81,-273.32 935.5,-261 943.97,-199.36 947.27,-182.1 935.5,-121 933.34,-109.81 928.71,-97.94 924.44,-88.57"/>
<polygon fill="#63b8ff" stroke="#63b8ff" points="927.58,-87.03 920.09,-79.54 921.28,-90.07 927.58,-87.03"/>
</a>
</g>
</g>
<!-- Node3 -->
<g id="Node000003" class="node">
<title>Node3</title>
<g id="a_Node000003"><a xlink:title=" ">
<polygon fill="#e0e0e0" stroke="#999999" points="1444,-261 1397,-261 1397,-242 1444,-242 1444,-261"/>
<text text-anchor="middle" x="1420.5" y="-249" font-family="Helvetica,sans-Serif" font-size="10.00">queue</text>
</a>
</g>
</g>
<!-- Node1&#45;&gt;Node3 -->
<g id="edge2_Node000001_Node000003" class="edge">
<title>Node1&#45;&gt;Node3</title>
<g id="a_edge2_Node000001_Node000003"><a xlink:title=" ">
<path fill="none" stroke="#63b8ff" d="M988.62,-306.09C1078.65,-298.97 1243.31,-284.04 1382.5,-261 1383.96,-260.76 1385.45,-260.5 1386.95,-260.22"/>
<polygon fill="#63b8ff" stroke="#63b8ff" points="1387.75,-263.63 1396.86,-258.22 1386.37,-256.76 1387.75,-263.63"/>
</a>
</g>
</g>
<!-- Node4 -->
<g id="Node000004" class="node">
<title>Node4</title>
<g id="a_Node000004"><a xlink:title=" ">
<polygon fill="#e0e0e0" stroke="#999999" points="1388.5,-19 1332.5,-19 1332.5,0 1388.5,0 1388.5,-19"/>
<text text-anchor="middle" x="1360.5" y="-7" font-family="Helvetica,sans-Serif" font-size="10.00">sstream</text>
</a>
</g>
</g>
<!-- Node1&#45;&gt;Node4 -->
<g id="edge3_Node000001_Node000004" class="edge">
<title>Node1&#45;&gt;Node4</title>
<g id="a_edge3_Node000001_Node000004"><a xlink:title=" ">
<path fill="none" stroke="#63b8ff" d="M988.9,-307.04C1113.78,-297.85 1368.5,-269.6 1368.5,-192 1368.5,-192 1368.5,-192 1368.5,-129.5 1368.5,-94.07 1364.93,-52.85 1362.56,-29.4"/>
<polygon fill="#63b8ff" stroke="#63b8ff" points="1366.01,-28.73 1361.48,-19.15 1359.04,-29.46 1366.01,-28.73"/>
</a>
</g>
</g>
<!-- Node5 -->
<g id="Node000005" class="node">
<title>Node5</title>
<g id="a_Node000005"><a xlink:title=" ">
<polygon fill="#e0e0e0" stroke="#999999" points="717.5,-79.5 661.5,-79.5 661.5,-60.5 717.5,-60.5 717.5,-79.5"/>
<text text-anchor="middle" x="689.5" y="-67.5" font-family="Helvetica,sans-Serif" font-size="10.00">iomanip</text>
</a>
</g>
</g>
<!-- Node1&#45;&gt;Node5 -->
<g id="edge4_Node000001_Node000005" class="edge">
<title>Node1&#45;&gt;Node5</title>
<g id="a_edge4_Node000001_Node000005"><a xlink:title=" ">
<path fill="none" stroke="#63b8ff" d="M919.96,-296.97C918,-282.63 913.81,-259.97 905.5,-242 890.16,-208.84 883.31,-200.82 856.5,-176 812.85,-135.6 751.56,-101.69 716.66,-84.06"/>
<polygon fill="#63b8ff" stroke="#63b8ff" points="718.07,-80.85 707.55,-79.53 714.95,-87.11 718.07,-80.85"/>
</a>
</g>
</g>
<!-- Node6 -->
<g id="Node000006" class="node">
<title>Node6</title>
<g id="a_Node000006"><a xlink:title=" ">
<polygon fill="#e0e0e0" stroke="#999999" points="663.5,-140 613.5,-140 613.5,-121 663.5,-121 663.5,-140"/>
<text text-anchor="middle" x="638.5" y="-128" font-family="Helvetica,sans-Serif" font-size="10.00">format</text>
</a>
</g>
</g>
<!-- Node1&#45;&gt;Node6 -->
<g id="edge5_Node000001_Node000006" class="edge">
<title>Node1&#45;&gt;Node6</title>
<g id="a_edge5_Node000001_Node000006"><a xlink:title=" ">
<path fill="none" stroke="#63b8ff" d="M915.67,-297C903.36,-269.27 872,-207.35 825.5,-176 779.27,-144.84 713.74,-135.39 673.78,-132.6"/>
<polygon fill="#63b8ff" stroke="#63b8ff" points="673.91,-129.1 663.72,-132 673.49,-136.09 673.91,-129.1"/>
</a>
</g>
</g>
<!-- Node7 -->
<g id="Node000007" class="node">
<title>Node7</title>
<g id="a_Node000007"><a xlink:href="element_8h.html" target="_top" xlink:title=" ">
<polygon fill="white" stroke="#666666" points="476.5,-261 410.5,-261 410.5,-242 476.5,-242 476.5,-261"/>
<text text-anchor="middle" x="443.5" y="-249" font-family="Helvetica,sans-Serif" font-size="10.00">element.h</text>
</a>
</g>
</g>
<!-- Node1&#45;&gt;Node7 -->
<g id="edge6_Node000001_Node000007" class="edge">
<title>Node1&#45;&gt;Node7</title>
<g id="a_edge6_Node000001_Node000007"><a xlink:title=" ">
<path fill="none" stroke="#63b8ff" d="M854.28,-302.77C754.66,-290.58 570.59,-268.05 486.92,-257.81"/>
<polygon fill="#63b8ff" stroke="#63b8ff" points="487.11,-254.31 476.75,-256.57 486.26,-261.26 487.11,-254.31"/>
</a>
</g>
</g>
<!-- Node28 -->
<g id="Node000028" class="node">
<title>Node28</title>
<g id="a_Node000028"><a xlink:href="activation__function_8h.html" target="_top" xlink:title=" ">
<polygon fill="white" stroke="#666666" points="817,-200.5 698,-200.5 698,-181.5 817,-181.5 817,-200.5"/>
<text text-anchor="middle" x="757.5" y="-188.5" font-family="Helvetica,sans-Serif" font-size="10.00">activation_function.h</text>
</a>
</g>
</g>
<!-- Node1&#45;&gt;Node28 -->
<g id="edge38_Node000001_Node000028" class="edge">
<title>Node1&#45;&gt;Node28</title>
<g id="a_edge38_Node000001_Node000028"><a xlink:title=" ">
<path fill="none" stroke="#63b8ff" d="M902.04,-296.88C870.71,-274.15 809.38,-229.65 777.63,-206.61"/>
<polygon fill="#63b8ff" stroke="#63b8ff" points="779.65,-203.75 769.51,-200.71 775.54,-209.42 779.65,-203.75"/>
</a>
</g>
</g>
<!-- Node8 -->
<g id="Node000008" class="node">
<title>Node8</title>
<g id="a_Node000008"><a xlink:title=" ">
<polygon fill="#e0e0e0" stroke="#999999" points="907,-19 860,-19 860,0 907,0 907,-19"/>
<text text-anchor="middle" x="883.5" y="-7" font-family="Helvetica,sans-Serif" font-size="10.00">vector</text>
</a>
</g>
</g>
<!-- Node7&#45;&gt;Node8 -->
<g id="edge7_Node000007_Node000008" class="edge">
<title>Node7&#45;&gt;Node8</title>
<g id="a_edge7_Node000007_Node000008"><a xlink:title=" ">
<path fill="none" stroke="#63b8ff" d="M441.75,-241.64C438.84,-227.54 432.55,-199.2 424.5,-176 418.76,-159.46 412.13,-157.13 408.5,-140 403.68,-117.31 396.69,-69.72 410.5,-55 440.48,-23.05 746.54,-13.48 849.74,-11.15"/>
<polygon fill="#63b8ff" stroke="#63b8ff" points="849.99,-14.65 859.91,-10.93 849.84,-7.65 849.99,-14.65"/>
</a>
</g>
</g>
<!-- Node9 -->
<g id="Node000009" class="node">
<title>Node9</title>
<g id="a_Node000009"><a xlink:title=" ">
<polygon fill="#e0e0e0" stroke="#999999" points="318.5,-19 274.5,-19 274.5,0 318.5,0 318.5,-19"/>
<text text-anchor="middle" x="296.5" y="-7" font-family="Helvetica,sans-Serif" font-size="10.00">string</text>
</a>
</g>
</g>
<!-- Node7&#45;&gt;Node9 -->
<g id="edge8_Node000007_Node000009" class="edge">
<title>Node7&#45;&gt;Node9</title>
<g id="a_edge8_Node000007_Node000009"><a xlink:title=" ">
<path fill="none" stroke="#63b8ff" d="M410.33,-250.26C344.1,-249 199.22,-242.09 168.5,-206 115.4,-143.62 225.71,-58.01 274.68,-24.63"/>
<polygon fill="#63b8ff" stroke="#63b8ff" points="276.69,-27.49 283.05,-19.02 272.8,-21.68 276.69,-27.49"/>
</a>
</g>
</g>
<!-- Node10 -->
<g id="Node000010" class="node">
<title>Node10</title>
<g id="a_Node000010"><a xlink:title=" ">
<polygon fill="#e0e0e0" stroke="#999999" points="271,-200.5 178,-200.5 178,-181.5 271,-181.5 271,-200.5"/>
<text text-anchor="middle" x="224.5" y="-188.5" font-family="Helvetica,sans-Serif" font-size="10.00">unordered_map</text>
</a>
</g>
</g>
<!-- Node7&#45;&gt;Node10 -->
<g id="edge9_Node000007_Node000010" class="edge">
<title>Node7&#45;&gt;Node10</title>
<g id="a_edge9_Node000007_Node000010"><a xlink:title=" ">
<path fill="none" stroke="#63b8ff" d="M411.66,-241.99C373.22,-231.73 308.47,-214.43 266.11,-203.12"/>
<polygon fill="#63b8ff" stroke="#63b8ff" points="266.95,-199.72 256.38,-200.52 265.14,-206.48 266.95,-199.72"/>
</a>
</g>
</g>
<!-- Node11 -->
<g id="Node000011" class="node">
<title>Node11</title>
<g id="a_Node000011"><a xlink:title=" ">
<polygon fill="#e0e0e0" stroke="#999999" points="347.5,-200.5 289.5,-200.5 289.5,-181.5 347.5,-181.5 347.5,-200.5"/>
<text text-anchor="middle" x="318.5" y="-188.5" font-family="Helvetica,sans-Serif" font-size="10.00">memory</text>
</a>
</g>
</g>
<!-- Node7&#45;&gt;Node11 -->
<g id="edge10_Node000007_Node000011" class="edge">
<title>Node7&#45;&gt;Node11</title>
<g id="a_edge10_Node000007_Node000011"><a xlink:title=" ">
<path fill="none" stroke="#63b8ff" d="M425.32,-241.99C404.49,-232.25 370.13,-216.16 346.02,-204.88"/>
<polygon fill="#63b8ff" stroke="#63b8ff" points="347.24,-201.59 336.7,-200.52 344.27,-207.93 347.24,-201.59"/>
</a>
</g>
</g>
<!-- Node12 -->
<g id="Node000012" class="node">
<title>Node12</title>
<g id="a_Node000012"><a xlink:title=" ">
<polygon fill="#e0e0e0" stroke="#999999" points="415.5,-200.5 365.5,-200.5 365.5,-181.5 415.5,-181.5 415.5,-200.5"/>
<text text-anchor="middle" x="390.5" y="-188.5" font-family="Helvetica,sans-Serif" font-size="10.00">ranges</text>
</a>
</g>
</g>
<!-- Node7&#45;&gt;Node12 -->
<g id="edge11_Node000007_Node000012" class="edge">
<title>Node7&#45;&gt;Node12</title>
<g id="a_edge11_Node000007_Node000012"><a xlink:title=" ">
<path fill="none" stroke="#63b8ff" d="M435.68,-241.87C427.69,-233.05 415.11,-219.16 405.24,-208.27"/>
<polygon fill="#63b8ff" stroke="#63b8ff" points="407.66,-205.73 398.35,-200.67 402.47,-210.43 407.66,-205.73"/>
</a>
</g>
</g>
<!-- Node13 -->
<g id="Node000013" class="node">
<title>Node13</title>
<g id="a_Node000013"><a xlink:title=" ">
<polygon fill="#e0e0e0" stroke="#999999" points="799.5,-79.5 735.5,-79.5 735.5,-60.5 799.5,-60.5 799.5,-79.5"/>
<text text-anchor="middle" x="767.5" y="-67.5" font-family="Helvetica,sans-Serif" font-size="10.00">algorithm</text>
</a>
</g>
</g>
<!-- Node7&#45;&gt;Node13 -->
<g id="edge12_Node000007_Node000013" class="edge">
<title>Node7&#45;&gt;Node13</title>
<g id="a_edge12_Node000007_Node000013"><a xlink:title=" ">
<path fill="none" stroke="#63b8ff" d="M476.82,-247.83C515.41,-243.57 579.89,-232.77 628.5,-206 684.07,-175.39 733.2,-116.62 755.22,-87.79"/>
<polygon fill="#63b8ff" stroke="#63b8ff" points="758.2,-89.65 761.39,-79.55 752.59,-85.45 758.2,-89.65"/>
</a>
</g>
</g>
<!-- Node14 -->
<g id="Node000014" class="node">
<title>Node14</title>
<g id="a_Node000014"><a xlink:title=" ">
<polygon fill="#e0e0e0" stroke="#999999" points="873.5,-79.5 817.5,-79.5 817.5,-60.5 873.5,-60.5 873.5,-79.5"/>
<text text-anchor="middle" x="845.5" y="-67.5" font-family="Helvetica,sans-Serif" font-size="10.00">numeric</text>
</a>
</g>
</g>
<!-- Node7&#45;&gt;Node14 -->
<g id="edge13_Node000007_Node000014" class="edge">
<title>Node7&#45;&gt;Node14</title>
<g id="a_edge13_Node000007_Node000014"><a xlink:title=" ">
<path fill="none" stroke="#63b8ff" d="M476.76,-248.91C565.11,-244.37 800.63,-230.11 825.5,-206 856.74,-175.72 853.45,-119.42 849.1,-90.01"/>
<polygon fill="#63b8ff" stroke="#63b8ff" points="852.5,-89.12 847.39,-79.84 845.6,-90.28 852.5,-89.12"/>
</a>
</g>
</g>
<!-- Node15 -->
<g id="Node000015" class="node">
<title>Node15</title>
<g id="a_Node000015"><a xlink:href="exception_8h.html" target="_top" xlink:title=" ">
<polygon fill="white" stroke="#666666" points="135.5,-79.5 5.5,-79.5 5.5,-60.5 135.5,-60.5 135.5,-79.5"/>
<text text-anchor="middle" x="70.5" y="-67.5" font-family="Helvetica,sans-Serif" font-size="10.00">exceptions/exception.h</text>
</a>
</g>
</g>
<!-- Node7&#45;&gt;Node15 -->
<g id="edge14_Node000007_Node000015" class="edge">
<title>Node7&#45;&gt;Node15</title>
<g id="a_edge14_Node000007_Node000015"><a xlink:title=" ">
<path fill="none" stroke="#63b8ff" d="M410.41,-249.57C340.1,-247 178.74,-237.71 135.5,-206 96.63,-177.49 79.97,-119.51 73.74,-89.67"/>
<polygon fill="#63b8ff" stroke="#63b8ff" points="77.15,-88.89 71.84,-79.73 70.28,-90.21 77.15,-88.89"/>
</a>
</g>
</g>
<!-- Node18 -->
<g id="Node000018" class="node">
<title>Node18</title>
<g id="a_Node000018"><a xlink:href="logger_8h.html" target="_top" xlink:title=" ">
<polygon fill="white" stroke="#666666" points="595,-140 512,-140 512,-121 595,-121 595,-140"/>
<text text-anchor="middle" x="553.5" y="-128" font-family="Helvetica,sans-Serif" font-size="10.00">tools/logger.h</text>
</a>
</g>
</g>
<!-- Node7&#45;&gt;Node18 -->
<g id="edge18_Node000007_Node000018" class="edge">
<title>Node7&#45;&gt;Node18</title>
<g id="a_edge18_Node000007_Node000018"><a xlink:title=" ">
<path fill="none" stroke="#63b8ff" d="M476.6,-246.5C520.72,-240.41 595.17,-227.22 611.5,-206 619.63,-195.43 617.4,-187.96 611.5,-176 605.01,-162.85 592.57,-152.5 580.86,-145.11"/>
<polygon fill="#63b8ff" stroke="#63b8ff" points="582.57,-142.05 572.17,-140.03 579.04,-148.1 582.57,-142.05"/>
</a>
</g>
</g>
<!-- Node26 -->
<g id="Node000026" class="node">
<title>Node26</title>
<g id="a_Node000026"><a xlink:href="element__parameters_8h.html" target="_top" xlink:title=" ">
<polygon fill="white" stroke="#666666" points="603,-206 472,-206 472,-176 603,-176 603,-206"/>
<text text-anchor="start" x="480" y="-194" font-family="Helvetica,sans-Serif" font-size="10.00">element_parameters</text>
<text text-anchor="middle" x="537.5" y="-183" font-family="Helvetica,sans-Serif" font-size="10.00">/element_parameters.h</text>
</a>
</g>
</g>
<!-- Node7&#45;&gt;Node26 -->
<g id="edge33_Node000007_Node000026" class="edge">
<title>Node7&#45;&gt;Node26</title>
<g id="a_edge33_Node000007_Node000026"><a xlink:title=" ">
<path fill="none" stroke="#63b8ff" d="M457.37,-241.87C470.12,-233.93 489.5,-221.87 506.01,-211.6"/>
<polygon fill="#63b8ff" stroke="#63b8ff" points="508.18,-214.37 514.82,-206.11 504.48,-208.43 508.18,-214.37"/>
</a>
</g>
</g>
<!-- Node15&#45;&gt;Node9 -->
<g id="edge17_Node000015_Node000009" class="edge">
<title>Node15&#45;&gt;Node9</title>
<g id="a_edge17_Node000015_Node000009"><a xlink:title=" ">
<path fill="none" stroke="#63b8ff" d="M103.36,-60.49C146.45,-49.34 221.57,-29.89 264.32,-18.83"/>
<polygon fill="#63b8ff" stroke="#63b8ff" points="265.4,-22.17 274.2,-16.27 263.64,-15.39 265.4,-22.17"/>
</a>
</g>
</g>
<!-- Node16 -->
<g id="Node000016" class="node">
<title>Node16</title>
<g id="a_Node000016"><a xlink:title=" ">
<polygon fill="#e0e0e0" stroke="#999999" points="133.5,-19 83.5,-19 83.5,0 133.5,0 133.5,-19"/>
<text text-anchor="middle" x="108.5" y="-7" font-family="Helvetica,sans-Serif" font-size="10.00">cstdint</text>
</a>
</g>
</g>
<!-- Node15&#45;&gt;Node16 -->
<g id="edge15_Node000015_Node000016" class="edge">
<title>Node15&#45;&gt;Node16</title>
<g id="a_edge15_Node000015_Node000016"><a xlink:title=" ">
<path fill="none" stroke="#63b8ff" d="M76.11,-60.37C81.66,-51.81 90.33,-38.47 97.3,-27.74"/>
<polygon fill="#63b8ff" stroke="#63b8ff" points="100.36,-29.46 102.87,-19.17 94.49,-25.65 100.36,-29.46"/>
</a>
</g>
</g>
<!-- Node17 -->
<g id="Node000017" class="node">
<title>Node17</title>
<g id="a_Node000017"><a xlink:title=" ">
<polygon fill="#e0e0e0" stroke="#999999" points="65,-19 0,-19 0,0 65,0 65,-19"/>
<text text-anchor="middle" x="32.5" y="-7" font-family="Helvetica,sans-Serif" font-size="10.00">exception</text>
</a>
</g>
</g>
<!-- Node15&#45;&gt;Node17 -->
<g id="edge16_Node000015_Node000017" class="edge">
<title>Node15&#45;&gt;Node17</title>
<g id="a_edge16_Node000015_Node000017"><a xlink:title=" ">
<path fill="none" stroke="#63b8ff" d="M64.89,-60.37C59.34,-51.81 50.67,-38.47 43.7,-27.74"/>
<polygon fill="#63b8ff" stroke="#63b8ff" points="46.51,-25.65 38.13,-19.17 40.64,-29.46 46.51,-25.65"/>
</a>
</g>
</g>
<!-- Node18&#45;&gt;Node5 -->
<g id="edge22_Node000018_Node000005" class="edge">
<title>Node18&#45;&gt;Node5</title>
<g id="a_edge22_Node000018_Node000005"><a xlink:title=" ">
<path fill="none" stroke="#63b8ff" d="M573.28,-120.99C596.14,-111.16 633.99,-94.88 660.26,-83.58"/>
<polygon fill="#63b8ff" stroke="#63b8ff" points="661.9,-86.68 669.7,-79.52 659.13,-80.25 661.9,-86.68"/>
</a>
</g>
</g>
<!-- Node18&#45;&gt;Node9 -->
<g id="edge20_Node000018_Node000009" class="edge">
<title>Node18&#45;&gt;Node9</title>
<g id="a_edge20_Node000018_Node000009"><a xlink:title=" ">
<path fill="none" stroke="#63b8ff" d="M516.31,-120.95C486.81,-113.46 444.96,-101.23 410.5,-85 374.97,-68.26 337.55,-41.88 315.65,-25.41"/>
<polygon fill="#63b8ff" stroke="#63b8ff" points="317.61,-22.5 307.53,-19.22 313.36,-28.07 317.61,-22.5"/>
</a>
</g>
</g>
<!-- Node18&#45;&gt;Node15 -->
<g id="edge24_Node000018_Node000015" class="edge">
<title>Node18&#45;&gt;Node15</title>
<g id="a_edge24_Node000018_Node000015"><a xlink:title=" ">
<path fill="none" stroke="#63b8ff" d="M511.9,-124.46C430.41,-114.59 248.72,-92.59 145.65,-80.1"/>
<polygon fill="#63b8ff" stroke="#63b8ff" points="145.97,-76.62 135.62,-78.89 145.13,-83.56 145.97,-76.62"/>
</a>
</g>
</g>
<!-- Node19 -->
<g id="Node000019" class="node">
<title>Node19</title>
<g id="a_Node000019"><a xlink:title=" ">
<polygon fill="#e0e0e0" stroke="#999999" points="479.5,-79.5 419.5,-79.5 419.5,-60.5 479.5,-60.5 479.5,-79.5"/>
<text text-anchor="middle" x="449.5" y="-67.5" font-family="Helvetica,sans-Serif" font-size="10.00">iostream</text>
</a>
</g>
</g>
<!-- Node18&#45;&gt;Node19 -->
<g id="edge19_Node000018_Node000019" class="edge">
<title>Node18&#45;&gt;Node19</title>
<g id="a_edge19_Node000018_Node000019"><a xlink:title=" ">
<path fill="none" stroke="#63b8ff" d="M538.15,-120.87C521.18,-111.32 493.6,-95.81 473.71,-84.62"/>
<polygon fill="#63b8ff" stroke="#63b8ff" points="475.34,-81.52 464.91,-79.67 471.91,-87.62 475.34,-81.52"/>
</a>
</g>
</g>
<!-- Node20 -->
<g id="Node000020" class="node">
<title>Node20</title>
<g id="a_Node000020"><a xlink:title=" ">
<polygon fill="#e0e0e0" stroke="#999999" points="975.5,-19 925.5,-19 925.5,0 975.5,0 975.5,-19"/>
<text text-anchor="middle" x="950.5" y="-7" font-family="Helvetica,sans-Serif" font-size="10.00">chrono</text>
</a>
</g>
</g>
<!-- Node18&#45;&gt;Node20 -->
<g id="edge21_Node000018_Node000020" class="edge">
<title>Node18&#45;&gt;Node20</title>
<g id="a_edge21_Node000018_Node000020"><a xlink:title=" ">
<path fill="none" stroke="#63b8ff" d="M565.5,-120.7C577.64,-111.76 596.94,-97.51 613.5,-85 630.95,-71.82 632.32,-63.43 652.5,-55 758.78,-10.61 798.06,-39.7 915.25,-18.99"/>
<polygon fill="#63b8ff" stroke="#63b8ff" points="916.12,-22.39 925.32,-17.12 914.85,-15.5 916.12,-22.39"/>
</a>
</g>
</g>
<!-- Node21 -->
<g id="Node000021" class="node">
<title>Node21</title>
<g id="a_Node000021"><a xlink:title=" ">
<polygon fill="#e0e0e0" stroke="#999999" points="605,-85 498,-85 498,-55 605,-55 605,-85"/>
<text text-anchor="start" x="506" y="-73" font-family="Helvetica,sans-Serif" font-size="10.00">imgui&#45;platform&#45;kit</text>
<text text-anchor="middle" x="551.5" y="-62" font-family="Helvetica,sans-Serif" font-size="10.00">/log_window.h</text>
</a>
</g>
</g>
<!-- Node18&#45;&gt;Node21 -->
<g id="edge23_Node000018_Node000021" class="edge">
<title>Node18&#45;&gt;Node21</title>
<g id="a_edge23_Node000018_Node000021"><a xlink:title=" ">
<path fill="none" stroke="#63b8ff" d="M553.2,-120.87C552.97,-114.11 552.64,-104.35 552.33,-95.26"/>
<polygon fill="#63b8ff" stroke="#63b8ff" points="555.82,-94.99 551.98,-85.11 548.83,-95.23 555.82,-94.99"/>
</a>
</g>
</g>
<!-- Node22 -->
<g id="Node000022" class="node">
<title>Node22</title>
<g id="a_Node000022"><a xlink:href="utils_8h.html" target="_top" xlink:title=" ">
<polygon fill="white" stroke="#666666" points="1043,-79.5 996,-79.5 996,-60.5 1043,-60.5 1043,-79.5"/>
<text text-anchor="middle" x="1019.5" y="-67.5" font-family="Helvetica,sans-Serif" font-size="10.00">utils.h</text>
</a>
</g>
</g>
<!-- Node18&#45;&gt;Node22 -->
<g id="edge25_Node000018_Node000022" class="edge">
<title>Node18&#45;&gt;Node22</title>
<g id="a_edge25_Node000018_Node000022"><a xlink:title=" ">
<path fill="none" stroke="#63b8ff" d="M595.22,-122.33C598.36,-121.86 601.48,-121.41 604.5,-121 756.83,-100.35 796.49,-107.89 948.5,-85 960.8,-83.15 974.2,-80.63 986.02,-78.25"/>
<polygon fill="#63b8ff" stroke="#63b8ff" points="986.84,-81.65 995.93,-76.2 985.43,-74.8 986.84,-81.65"/>
</a>
</g>
</g>
<!-- Node22&#45;&gt;Node4 -->
<g id="edge29_Node000022_Node000004" class="edge">
<title>Node22&#45;&gt;Node4</title>
<g id="a_edge29_Node000022_Node000004"><a xlink:title=" ">
<path fill="none" stroke="#63b8ff" d="M1037.35,-60.42C1042.18,-58.38 1047.46,-56.4 1052.5,-55 1163.22,-24.3 1194.91,-36.27 1308.5,-19 1313,-18.32 1317.71,-17.58 1322.38,-16.83"/>
<polygon fill="#63b8ff" stroke="#63b8ff" points="1323.14,-20.25 1332.45,-15.2 1322.02,-13.34 1323.14,-20.25"/>
</a>
</g>
</g>
<!-- Node22&#45;&gt;Node8 -->
<g id="edge27_Node000022_Node000008" class="edge">
<title>Node22&#45;&gt;Node8</title>
<g id="a_edge27_Node000022_Node000008"><a xlink:title=" ">
<path fill="none" stroke="#63b8ff" d="M999.72,-60.49C976.86,-50.66 939.01,-34.38 912.74,-23.08"/>
<polygon fill="#63b8ff" stroke="#63b8ff" points="913.87,-19.75 903.3,-19.02 911.1,-26.18 913.87,-19.75"/>
</a>
</g>
</g>
<!-- Node22&#45;&gt;Node9 -->
<g id="edge26_Node000022_Node000009" class="edge">
<title>Node22&#45;&gt;Node9</title>
<g id="a_edge26_Node000022_Node000009"><a xlink:title=" ">
<path fill="none" stroke="#63b8ff" d="M995.96,-63.58C982.19,-60.61 964.44,-57.11 948.5,-55 711.85,-23.72 423.8,-13.8 328.68,-11.26"/>
<polygon fill="#63b8ff" stroke="#63b8ff" points="328.64,-7.75 318.55,-10.99 328.46,-14.75 328.64,-7.75"/>
</a>
</g>
</g>
<!-- Node22&#45;&gt;Node20 -->
<g id="edge31_Node000022_Node000020" class="edge">
<title>Node22&#45;&gt;Node20</title>
<g id="a_edge31_Node000022_Node000020"><a xlink:title=" ">
<path fill="none" stroke="#63b8ff" d="M1009.32,-60.37C998.62,-51.3 981.56,-36.84 968.57,-25.82"/>
<polygon fill="#63b8ff" stroke="#63b8ff" points="970.61,-22.96 960.72,-19.17 966.09,-28.3 970.61,-22.96"/>
</a>
</g>
</g>
<!-- Node23 -->
<g id="Node000023" class="node">
<title>Node23</title>
<g id="a_Node000023"><a xlink:title=" ">
<polygon fill="#e0e0e0" stroke="#999999" points="1194.5,-19 1140.5,-19 1140.5,0 1194.5,0 1194.5,-19"/>
<text text-anchor="middle" x="1167.5" y="-7" font-family="Helvetica,sans-Serif" font-size="10.00">random</text>
</a>
</g>
</g>
<!-- Node22&#45;&gt;Node23 -->
<g id="edge28_Node000022_Node000023" class="edge">
<title>Node22&#45;&gt;Node23</title>
<g id="a_edge28_Node000022_Node000023"><a xlink:title=" ">
<path fill="none" stroke="#63b8ff" d="M1039.35,-60.46C1043.67,-58.63 1048.23,-56.73 1052.5,-55 1080.15,-43.79 1111.78,-31.59 1134.86,-22.81"/>
<polygon fill="#63b8ff" stroke="#63b8ff" points="1136.4,-25.97 1144.5,-19.15 1133.91,-19.43 1136.4,-25.97"/>
</a>
</g>
</g>
<!-- Node24 -->
<g id="Node000024" class="node">
<title>Node24</title>
<g id="a_Node000024"><a xlink:title=" ">
<polygon fill="#e0e0e0" stroke="#999999" points="1299,-19 1244,-19 1244,0 1299,0 1299,-19"/>
<text text-anchor="middle" x="1271.5" y="-7" font-family="Helvetica,sans-Serif" font-size="10.00">fstream</text>
</a>
</g>
</g>
<!-- Node22&#45;&gt;Node24 -->
<g id="edge30_Node000022_Node000024" class="edge">
<title>Node22&#45;&gt;Node24</title>
<g id="a_edge30_Node000022_Node000024"><a xlink:title=" ">
<path fill="none" stroke="#63b8ff" d="M1037.76,-60.48C1042.49,-58.49 1047.63,-56.51 1052.5,-55 1114.76,-35.68 1189.64,-22.55 1233.75,-15.81"/>
<polygon fill="#63b8ff" stroke="#63b8ff" points="1234.37,-19.26 1243.74,-14.31 1233.33,-12.33 1234.37,-19.26"/>
</a>
</g>
</g>
<!-- Node25 -->
<g id="Node000025" class="node">
<title>Node25</title>
<g id="a_Node000025"><a xlink:title=" ">
<polygon fill="#e0e0e0" stroke="#999999" points="1061.5,-19 993.5,-19 993.5,0 1061.5,0 1061.5,-19"/>
<text text-anchor="middle" x="1027.5" y="-7" font-family="Helvetica,sans-Serif" font-size="10.00">filesystem</text>
</a>
</g>
</g>
<!-- Node22&#45;&gt;Node25 -->
<g id="edge32_Node000022_Node000025" class="edge">
<title>Node22&#45;&gt;Node25</title>
<g id="a_edge32_Node000022_Node000025"><a xlink:title=" ">
<path fill="none" stroke="#63b8ff" d="M1020.68,-60.37C1021.79,-52.25 1023.49,-39.81 1024.92,-29.39"/>
<polygon fill="#63b8ff" stroke="#63b8ff" points="1028.43,-29.55 1026.31,-19.17 1021.49,-28.6 1028.43,-29.55"/>
</a>
</g>
</g>
<!-- Node26&#45;&gt;Node6 -->
<g id="edge36_Node000026_Node000006" class="edge">
<title>Node26&#45;&gt;Node6</title>
<g id="a_edge36_Node000026_Node000006"><a xlink:title=" ">
<path fill="none" stroke="#63b8ff" d="M561.69,-175.99C577.79,-166.66 598.84,-154.47 614.83,-145.21"/>
<polygon fill="#63b8ff" stroke="#63b8ff" points="616.69,-148.18 623.58,-140.14 613.18,-142.12 616.69,-148.18"/>
</a>
</g>
</g>
<!-- Node26&#45;&gt;Node9 -->
<g id="edge35_Node000026_Node000009" class="edge">
<title>Node26&#45;&gt;Node9</title>
<g id="a_edge35_Node000026_Node000009"><a xlink:title=" ">
<path fill="none" stroke="#63b8ff" d="M471.93,-180.53C416.12,-168.64 339.19,-142.33 301.5,-85 290.73,-68.61 290.94,-45.58 292.92,-29.47"/>
<polygon fill="#63b8ff" stroke="#63b8ff" points="296.44,-29.59 294.54,-19.17 289.53,-28.5 296.44,-29.59"/>
</a>
</g>
</g>
<!-- Node26&#45;&gt;Node18 -->
<g id="edge37_Node000026_Node000018" class="edge">
<title>Node26&#45;&gt;Node18</title>
<g id="a_edge37_Node000026_Node000018"><a xlink:title=" ">
<path fill="none" stroke="#63b8ff" d="M541.37,-175.84C543.48,-168.13 546.12,-158.49 548.39,-150.17"/>
<polygon fill="#63b8ff" stroke="#63b8ff" points="551.84,-150.84 551.1,-140.27 545.09,-148.99 551.84,-150.84"/>
</a>
</g>
</g>
<!-- Node27 -->
<g id="Node000027" class="node">
<title>Node27</title>
<g id="a_Node000027"><a xlink:title=" ">
<polygon fill="#e0e0e0" stroke="#999999" points="455.5,-140 417.5,-140 417.5,-121 455.5,-121 455.5,-140"/>
<text text-anchor="middle" x="436.5" y="-128" font-family="Helvetica,sans-Serif" font-size="10.00">map</text>
</a>
</g>
</g>
<!-- Node26&#45;&gt;Node27 -->
<g id="edge34_Node000026_Node000027" class="edge">
<title>Node26&#45;&gt;Node27</title>
<g id="a_edge34_Node000026_Node000027"><a xlink:title=" ">
<path fill="none" stroke="#63b8ff" d="M513.31,-175.99C497.21,-166.66 476.16,-154.47 460.17,-145.21"/>
<polygon fill="#63b8ff" stroke="#63b8ff" points="461.82,-142.12 451.42,-140.14 458.31,-148.18 461.82,-142.12"/>
</a>
</g>
</g>
<!-- Node28&#45;&gt;Node9 -->
<g id="edge39_Node000028_Node000009" class="edge">
<title>Node28&#45;&gt;Node9</title>
<g id="a_edge39_Node000028_Node000009"><a xlink:title=" ">
<path fill="none" stroke="#63b8ff" d="M697.83,-182.94C645.39,-175.65 567.51,-162.17 502.5,-140 484.63,-133.91 481.95,-128.2 464.5,-121 417.34,-101.54 397.32,-114.23 355.5,-85 334.02,-69.99 316.48,-44.93 306.26,-28.06"/>
<polygon fill="#63b8ff" stroke="#63b8ff" points="309.17,-26.1 301.12,-19.22 303.12,-29.62 309.17,-26.1"/>
</a>
</g>
</g>
<!-- Node28&#45;&gt;Node18 -->
<g id="edge40_Node000028_Node000018" class="edge">
<title>Node28&#45;&gt;Node18</title>
<g id="a_edge40_Node000028_Node000018"><a xlink:title=" ">
<path fill="none" stroke="#63b8ff" d="M727.84,-181.49C692.26,-171.29 632.48,-154.15 593.02,-142.83"/>
<polygon fill="#63b8ff" stroke="#63b8ff" points="593.78,-139.41 583.2,-140.02 591.85,-146.14 593.78,-139.41"/>
</a>
</g>
</g>
<!-- Node29 -->
<g id="Node000029" class="node">
<title>Node29</title>
<g id="a_Node000029"><a xlink:href="math_8h.html" target="_top" xlink:title=" ">
<polygon fill="white" stroke="#666666" points="1093.5,-140 1015.5,-140 1015.5,-121 1093.5,-121 1093.5,-140"/>
<text text-anchor="middle" x="1054.5" y="-128" font-family="Helvetica,sans-Serif" font-size="10.00">tools/math.h</text>
</a>
</g>
</g>
<!-- Node28&#45;&gt;Node29 -->
<g id="edge41_Node000028_Node000029" class="edge">
<title>Node28&#45;&gt;Node29</title>
<g id="a_edge41_Node000028_Node000029"><a xlink:title=" ">
<path fill="none" stroke="#63b8ff" d="M800.69,-181.49C855.02,-170.79 948.11,-152.46 1005.18,-141.21"/>
<polygon fill="#63b8ff" stroke="#63b8ff" points="1005.92,-144.64 1015.06,-139.27 1004.57,-137.77 1005.92,-144.64"/>
</a>
</g>
</g>
<!-- Node29&#45;&gt;Node2 -->
<g id="edge44_Node000029_Node000002" class="edge">
<title>Node29&#45;&gt;Node2</title>
<g id="a_edge44_Node000029_Node000002"><a xlink:title=" ">
<path fill="none" stroke="#63b8ff" d="M1034.29,-120.99C1010.82,-111.12 971.89,-94.73 945.04,-83.43"/>
<polygon fill="#63b8ff" stroke="#63b8ff" points="946.31,-80.17 935.74,-79.52 943.6,-86.62 946.31,-80.17"/>
</a>
</g>
</g>
<!-- Node29&#45;&gt;Node8 -->
<g id="edge42_Node000029_Node000008" class="edge">
<title>Node29&#45;&gt;Node8</title>
<g id="a_edge42_Node000029_Node000008"><a xlink:title=" ">
<path fill="none" stroke="#63b8ff" d="M1040.97,-120.9C1027.3,-112.13 1005.67,-98 987.5,-85 969.71,-72.28 966.2,-67.85 948.5,-55 934.25,-44.65 917.89,-33.46 905.15,-24.89"/>
<polygon fill="#63b8ff" stroke="#63b8ff" points="906.85,-21.81 896.6,-19.16 902.96,-27.63 906.85,-21.81"/>
</a>
</g>
</g>
<!-- Node29&#45;&gt;Node13 -->
<g id="edge45_Node000029_Node000013" class="edge">
<title>Node29&#45;&gt;Node13</title>
<g id="a_edge45_Node000029_Node000013"><a xlink:title=" ">
<path fill="none" stroke="#63b8ff" d="M1015.34,-124.27C966.46,-117.32 880.55,-103.7 808.5,-85 805.86,-84.31 803.15,-83.54 800.43,-82.72"/>
<polygon fill="#63b8ff" stroke="#63b8ff" points="801.32,-79.33 790.73,-79.61 799.18,-86 801.32,-79.33"/>
</a>
</g>
</g>
<!-- Node29&#45;&gt;Node14 -->
<g id="edge46_Node000029_Node000014" class="edge">
<title>Node29&#45;&gt;Node14</title>
<g id="a_edge46_Node000029_Node000014"><a xlink:title=" ">
<path fill="none" stroke="#63b8ff" d="M1017.51,-120.99C982.67,-112.71 929.16,-99.32 883.5,-85 881.37,-84.33 879.19,-83.62 877,-82.87"/>
<polygon fill="#63b8ff" stroke="#63b8ff" points="878.07,-79.54 867.48,-79.51 875.74,-86.14 878.07,-79.54"/>
</a>
</g>
</g>
<!-- Node29&#45;&gt;Node23 -->
<g id="edge48_Node000029_Node000023" class="edge">
<title>Node29&#45;&gt;Node23</title>
<g id="a_edge48_Node000029_Node000023"><a xlink:title=" ">
<path fill="none" stroke="#63b8ff" d="M1093.69,-127.31C1150.45,-123.24 1251.22,-112.26 1273.5,-85 1281.94,-74.68 1280.88,-66.1 1273.5,-55 1258.22,-32.02 1228.53,-20.88 1204.45,-15.5"/>
<polygon fill="#63b8ff" stroke="#63b8ff" points="1205.02,-12.04 1194.53,-13.53 1203.66,-18.91 1205.02,-12.04"/>
</a>
</g>
</g>
<!-- Node29&#45;&gt;Node24 -->
<g id="edge50_Node000029_Node000024" class="edge">
<title>Node29&#45;&gt;Node24</title>
<g id="a_edge50_Node000029_Node000024"><a xlink:title=" ">
<path fill="none" stroke="#63b8ff" d="M1093.54,-127.93C1153.79,-124.59 1265.06,-114.5 1289.5,-85 1302.84,-68.9 1293.02,-44.49 1283.44,-28.04"/>
<polygon fill="#63b8ff" stroke="#63b8ff" points="1286.3,-26 1278.01,-19.4 1280.37,-29.73 1286.3,-26"/>
</a>
</g>
</g>
<!-- Node30 -->
<g id="Node000030" class="node">
<title>Node30</title>
<g id="a_Node000030"><a xlink:title=" ">
<polygon fill="#e0e0e0" stroke="#999999" points="1103.5,-79.5 1061.5,-79.5 1061.5,-60.5 1103.5,-60.5 1103.5,-79.5"/>
<text text-anchor="middle" x="1082.5" y="-67.5" font-family="Helvetica,sans-Serif" font-size="10.00">array</text>
</a>
</g>
</g>
<!-- Node29&#45;&gt;Node30 -->
<g id="edge43_Node000029_Node000030" class="edge">
<title>Node29&#45;&gt;Node30</title>
<g id="a_edge43_Node000029_Node000030"><a xlink:title=" ">
<path fill="none" stroke="#63b8ff" d="M1058.63,-120.87C1062.64,-112.49 1068.85,-99.51 1073.94,-88.89"/>
<polygon fill="#63b8ff" stroke="#63b8ff" points="1077.19,-90.2 1078.35,-79.67 1070.88,-87.18 1077.19,-90.2"/>
</a>
</g>
</g>
<!-- Node31 -->
<g id="Node000031" class="node">
<title>Node31</title>
<g id="a_Node000031"><a xlink:title=" ">
<polygon fill="#e0e0e0" stroke="#999999" points="1187,-79.5 1122,-79.5 1122,-60.5 1187,-60.5 1187,-79.5"/>
<text text-anchor="middle" x="1154.5" y="-67.5" font-family="Helvetica,sans-Serif" font-size="10.00">functional</text>
</a>
</g>
</g>
<!-- Node29&#45;&gt;Node31 -->
<g id="edge47_Node000029_Node000031" class="edge">
<title>Node29&#45;&gt;Node31</title>
<g id="a_edge47_Node000029_Node000031"><a xlink:title=" ">
<path fill="none" stroke="#63b8ff" d="M1069.26,-120.87C1085.5,-111.36 1111.85,-95.95 1130.96,-84.77"/>
<polygon fill="#63b8ff" stroke="#63b8ff" points="1132.82,-87.74 1139.68,-79.67 1129.29,-81.7 1132.82,-87.74"/>
</a>
</g>
</g>
<!-- Node32 -->
<g id="Node000032" class="node">
<title>Node32</title>
<g id="a_Node000032"><a xlink:title=" ">
<polygon fill="#e0e0e0" stroke="#999999" points="1264,-79.5 1205,-79.5 1205,-60.5 1264,-60.5 1264,-79.5"/>
<text text-anchor="middle" x="1234.5" y="-67.5" font-family="Helvetica,sans-Serif" font-size="10.00">numbers</text>
</a>
</g>
</g>
<!-- Node29&#45;&gt;Node32 -->
<g id="edge49_Node000029_Node000032" class="edge">
<title>Node29&#45;&gt;Node32</title>
<g id="a_edge49_Node000029_Node000032"><a xlink:title=" ">
<path fill="none" stroke="#63b8ff" d="M1083.19,-120.96C1111.97,-112.29 1157.49,-98.29 1196.5,-85 1198.35,-84.37 1200.24,-83.71 1202.15,-83.04"/>
<polygon fill="#63b8ff" stroke="#63b8ff" points="1203.43,-86.3 1211.66,-79.62 1201.06,-79.71 1203.43,-86.3"/>
</a>
</g>
</g>
</g>
</svg>
