<?xml version="1.0" encoding="UTF-8" standalone="no"?>
<!DOCTYPE svg PUBLIC "-//W3C//DTD SVG 1.1//EN"
 "http://www.w3.org/Graphics/SVG/1.1/DTD/svg11.dtd">
<!-- Generated by graphviz version 2.43.0 (0)
 -->
<!-- Title: src/elements/neural_field.cpp Pages: 1 -->
<svg width="1500pt" height="445pt"
 viewBox="0.00 0.00 1499.50 445.00" xmlns="http://www.w3.org/2000/svg" xmlns:xlink="http://www.w3.org/1999/xlink">
<g id="graph0" class="graph" transform="scale(1 1) rotate(0) translate(4 441)">
<title>src/elements/neural_field.cpp</title>
<!-- Node1 -->
<g id="Node000001" class="node">
<title>Node1</title>
<g id="a_Node000001"><a xlink:title=" ">
<polygon fill="#999999" stroke="#666666" points="948,-437 835,-437 835,-407 948,-407 948,-437"/>
<text text-anchor="start" x="843" y="-425" font-family="Helvetica,sans-Serif" font-size="10.00">src/elements/neural</text>
<text text-anchor="middle" x="891.5" y="-414" font-family="Helvetica,sans-Serif" font-size="10.00">_field.cpp</text>
</a>
</g>
</g>
<!-- Node2 -->
<g id="Node000002" class="node">
<title>Node2</title>
<g id="a_Node000002"><a xlink:href="neural__field_8h.html" target="_top" xlink:title=" ">
<polygon fill="white" stroke="#666666" points="957,-371 826,-371 826,-352 957,-352 957,-371"/>
<text text-anchor="middle" x="891.5" y="-359" font-family="Helvetica,sans-Serif" font-size="10.00">elements/neural_field.h</text>
</a>
</g>
</g>
<!-- Node1&#45;&gt;Node2 -->
<g id="edge1_Node000001_Node000002" class="edge">
<title>Node1&#45;&gt;Node2</title>
<g id="a_edge1_Node000001_Node000002"><a xlink:title=" ">
<path fill="none" stroke="#63b8ff" d="M891.5,-406.84C891.5,-399.21 891.5,-389.7 891.5,-381.45"/>
<polygon fill="#63b8ff" stroke="#63b8ff" points="895,-381.27 891.5,-371.27 888,-381.27 895,-381.27"/>
</a>
</g>
</g>
<!-- Node3 -->
<g id="Node000003" class="node">
<title>Node3</title>
<g id="a_Node000003"><a xlink:href="element_8h.html" target="_top" xlink:title=" ">
<polygon fill="white" stroke="#666666" points="855.5,-261 789.5,-261 789.5,-242 855.5,-242 855.5,-261"/>
<text text-anchor="middle" x="822.5" y="-249" font-family="Helvetica,sans-Serif" font-size="10.00">element.h</text>
</a>
</g>
</g>
<!-- Node2&#45;&gt;Node3 -->
<g id="edge2_Node000002_Node000003" class="edge">
<title>Node2&#45;&gt;Node3</title>
<g id="a_edge2_Node000002_Node000003"><a xlink:title=" ">
<path fill="none" stroke="#63b8ff" d="M886.52,-351.76C879.44,-339.4 865.91,-316.21 853.5,-297 847.56,-287.81 840.62,-277.79 834.82,-269.59"/>
<polygon fill="#63b8ff" stroke="#63b8ff" points="837.52,-267.35 828.86,-261.24 831.82,-271.42 837.52,-267.35"/>
</a>
</g>
</g>
<!-- Node27 -->
<g id="Node000027" class="node">
<title>Node27</title>
<g id="a_Node000027"><a xlink:href="activation__function_8h.html" target="_top" xlink:title=" ">
<polygon fill="white" stroke="#666666" points="970,-200.5 851,-200.5 851,-181.5 970,-181.5 970,-200.5"/>
<text text-anchor="middle" x="910.5" y="-188.5" font-family="Helvetica,sans-Serif" font-size="10.00">activation_function.h</text>
</a>
</g>
</g>
<!-- Node2&#45;&gt;Node27 -->
<g id="edge34_Node000002_Node000027" class="edge">
<title>Node2&#45;&gt;Node27</title>
<g id="a_edge34_Node000002_Node000027"><a xlink:title=" ">
<path fill="none" stroke="#63b8ff" d="M892.47,-351.91C895.4,-325.89 904.25,-247.47 908.36,-211.01"/>
<polygon fill="#63b8ff" stroke="#63b8ff" points="911.87,-211.1 909.51,-200.77 904.91,-210.32 911.87,-211.1"/>
</a>
</g>
</g>
<!-- Node33 -->
<g id="Node000033" class="node">
<title>Node33</title>
<g id="a_Node000033"><a xlink:href="simulation_8h.html" target="_top" xlink:title=" ">
<polygon fill="white" stroke="#666666" points="1365.5,-316 1233.5,-316 1233.5,-297 1365.5,-297 1365.5,-316"/>
<text text-anchor="middle" x="1299.5" y="-304" font-family="Helvetica,sans-Serif" font-size="10.00">simulation/simulation.h</text>
</a>
</g>
</g>
<!-- Node2&#45;&gt;Node33 -->
<g id="edge47_Node000002_Node000033" class="edge">
<title>Node2&#45;&gt;Node33</title>
<g id="a_edge47_Node000002_Node000033"><a xlink:title=" ">
<path fill="none" stroke="#63b8ff" d="M957.05,-351.98C1029.81,-342.53 1147.06,-327.3 1223.7,-317.35"/>
<polygon fill="#63b8ff" stroke="#63b8ff" points="1224.31,-320.8 1233.77,-316.04 1223.4,-313.86 1224.31,-320.8"/>
</a>
</g>
</g>
<!-- Node34 -->
<g id="Node000034" class="node">
<title>Node34</title>
<g id="a_Node000034"><a xlink:href="kernel_8h.html" target="_top" xlink:title=" ">
<polygon fill="white" stroke="#666666" points="844.5,-316 740.5,-316 740.5,-297 844.5,-297 844.5,-316"/>
<text text-anchor="middle" x="792.5" y="-304" font-family="Helvetica,sans-Serif" font-size="10.00">elements/kernel.h</text>
</a>
</g>
</g>
<!-- Node2&#45;&gt;Node34 -->
<g id="edge56_Node000002_Node000034" class="edge">
<title>Node2&#45;&gt;Node34</title>
<g id="a_edge56_Node000002_Node000034"><a xlink:title=" ">
<path fill="none" stroke="#63b8ff" d="M875.59,-351.98C859.95,-343.61 835.84,-330.7 817.62,-320.95"/>
<polygon fill="#63b8ff" stroke="#63b8ff" points="819.16,-317.8 808.7,-316.17 815.86,-323.98 819.16,-317.8"/>
</a>
</g>
</g>
<!-- Node4 -->
<g id="Node000004" class="node">
<title>Node4</title>
<g id="a_Node000004"><a xlink:title=" ">
<polygon fill="#e0e0e0" stroke="#999999" points="609,-19 562,-19 562,0 609,0 609,-19"/>
<text text-anchor="middle" x="585.5" y="-7" font-family="Helvetica,sans-Serif" font-size="10.00">vector</text>
</a>
</g>
</g>
<!-- Node3&#45;&gt;Node4 -->
<g id="edge3_Node000003_Node000004" class="edge">
<title>Node3&#45;&gt;Node4</title>
<g id="a_edge3_Node000003_Node000004"><a xlink:title=" ">
<path fill="none" stroke="#63b8ff" d="M789.11,-247.42C738.57,-242.05 646.14,-229.29 623.5,-206 576.32,-157.48 579.07,-68.85 582.98,-29.83"/>
<polygon fill="#63b8ff" stroke="#63b8ff" points="586.52,-29.74 584.18,-19.41 579.56,-28.94 586.52,-29.74"/>
</a>
</g>
</g>
<!-- Node5 -->
<g id="Node000005" class="node">
<title>Node5</title>
<g id="a_Node000005"><a xlink:title=" ">
<polygon fill="#e0e0e0" stroke="#999999" points="1162.5,-19 1118.5,-19 1118.5,0 1162.5,0 1162.5,-19"/>
<text text-anchor="middle" x="1140.5" y="-7" font-family="Helvetica,sans-Serif" font-size="10.00">string</text>
</a>
</g>
</g>
<!-- Node3&#45;&gt;Node5 -->
<g id="edge4_Node000003_Node000005" class="edge">
<title>Node3&#45;&gt;Node5</title>
<g id="a_edge4_Node000003_Node000005"><a xlink:title=" ">
<path fill="none" stroke="#63b8ff" d="M855.72,-250.29C926.63,-249.12 1089.53,-242.43 1128.5,-206 1178.24,-159.49 1164.84,-122.31 1154.5,-55 1153.15,-46.19 1150.37,-36.74 1147.65,-28.82"/>
<polygon fill="#63b8ff" stroke="#63b8ff" points="1150.84,-27.35 1144.1,-19.18 1144.27,-29.77 1150.84,-27.35"/>
</a>
</g>
</g>
<!-- Node6 -->
<g id="Node000006" class="node">
<title>Node6</title>
<g id="a_Node000006"><a xlink:title=" ">
<polygon fill="#e0e0e0" stroke="#999999" points="726,-200.5 633,-200.5 633,-181.5 726,-181.5 726,-200.5"/>
<text text-anchor="middle" x="679.5" y="-188.5" font-family="Helvetica,sans-Serif" font-size="10.00">unordered_map</text>
</a>
</g>
</g>
<!-- Node3&#45;&gt;Node6 -->
<g id="edge5_Node000003_Node000006" class="edge">
<title>Node3&#45;&gt;Node6</title>
<g id="a_edge5_Node000003_Node000006"><a xlink:title=" ">
<path fill="none" stroke="#63b8ff" d="M801.71,-241.99C777.56,-232.12 737.52,-215.73 709.88,-204.43"/>
<polygon fill="#63b8ff" stroke="#63b8ff" points="710.9,-201.06 700.32,-200.52 708.25,-207.54 710.9,-201.06"/>
</a>
</g>
</g>
<!-- Node7 -->
<g id="Node000007" class="node">
<title>Node7</title>
<g id="a_Node000007"><a xlink:title=" ">
<polygon fill="#e0e0e0" stroke="#999999" points="1271.5,-200.5 1213.5,-200.5 1213.5,-181.5 1271.5,-181.5 1271.5,-200.5"/>
<text text-anchor="middle" x="1242.5" y="-188.5" font-family="Helvetica,sans-Serif" font-size="10.00">memory</text>
</a>
</g>
</g>
<!-- Node3&#45;&gt;Node7 -->
<g id="edge6_Node000003_Node000007" class="edge">
<title>Node3&#45;&gt;Node7</title>
<g id="a_edge6_Node000003_Node000007"><a xlink:title=" ">
<path fill="none" stroke="#63b8ff" d="M855.64,-248.79C921.72,-244.9 1074.3,-233.49 1199.5,-206 1202.72,-205.29 1206.04,-204.44 1209.34,-203.51"/>
<polygon fill="#63b8ff" stroke="#63b8ff" points="1210.52,-206.81 1219.07,-200.55 1208.49,-200.11 1210.52,-206.81"/>
</a>
</g>
</g>
<!-- Node8 -->
<g id="Node000008" class="node">
<title>Node8</title>
<g id="a_Node000008"><a xlink:title=" ">
<polygon fill="#e0e0e0" stroke="#999999" points="794.5,-200.5 744.5,-200.5 744.5,-181.5 794.5,-181.5 794.5,-200.5"/>
<text text-anchor="middle" x="769.5" y="-188.5" font-family="Helvetica,sans-Serif" font-size="10.00">ranges</text>
</a>
</g>
</g>
<!-- Node3&#45;&gt;Node8 -->
<g id="edge7_Node000003_Node000008" class="edge">
<title>Node3&#45;&gt;Node8</title>
<g id="a_edge7_Node000003_Node000008"><a xlink:title=" ">
<path fill="none" stroke="#63b8ff" d="M814.68,-241.87C806.69,-233.05 794.11,-219.16 784.24,-208.27"/>
<polygon fill="#63b8ff" stroke="#63b8ff" points="786.66,-205.73 777.35,-200.67 781.47,-210.43 786.66,-205.73"/>
</a>
</g>
</g>
<!-- Node9 -->
<g id="Node000009" class="node">
<title>Node9</title>
<g id="a_Node000009"><a xlink:title=" ">
<polygon fill="#e0e0e0" stroke="#999999" points="538.5,-79.5 474.5,-79.5 474.5,-60.5 538.5,-60.5 538.5,-79.5"/>
<text text-anchor="middle" x="506.5" y="-67.5" font-family="Helvetica,sans-Serif" font-size="10.00">algorithm</text>
</a>
</g>
</g>
<!-- Node3&#45;&gt;Node9 -->
<g id="edge8_Node000003_Node000009" class="edge">
<title>Node3&#45;&gt;Node9</title>
<g id="a_edge8_Node000003_Node000009"><a xlink:title=" ">
<path fill="none" stroke="#63b8ff" d="M789.16,-247.55C732.84,-242.02 621.89,-228.56 590.5,-206 555.27,-180.68 565.88,-157.55 542.5,-121 535.25,-109.66 526.43,-97.4 519.34,-87.85"/>
<polygon fill="#63b8ff" stroke="#63b8ff" points="521.98,-85.54 513.17,-79.65 516.38,-89.74 521.98,-85.54"/>
</a>
</g>
</g>
<!-- Node10 -->
<g id="Node000010" class="node">
<title>Node10</title>
<g id="a_Node000010"><a xlink:title=" ">
<polygon fill="#e0e0e0" stroke="#999999" points="456.5,-79.5 400.5,-79.5 400.5,-60.5 456.5,-60.5 456.5,-79.5"/>
<text text-anchor="middle" x="428.5" y="-67.5" font-family="Helvetica,sans-Serif" font-size="10.00">numeric</text>
</a>
</g>
</g>
<!-- Node3&#45;&gt;Node10 -->
<g id="edge9_Node000003_Node000010" class="edge">
<title>Node3&#45;&gt;Node10</title>
<g id="a_edge9_Node000003_Node000010"><a xlink:title=" ">
<path fill="none" stroke="#63b8ff" d="M789.27,-251.14C737.77,-250.78 636.86,-244.65 562.5,-206 507.24,-177.28 460.68,-117.61 439.99,-88.18"/>
<polygon fill="#63b8ff" stroke="#63b8ff" points="442.75,-86.02 434.2,-79.76 436.98,-89.98 442.75,-86.02"/>
</a>
</g>
</g>
<!-- Node11 -->
<g id="Node000011" class="node">
<title>Node11</title>
<g id="a_Node000011"><a xlink:href="exception_8h.html" target="_top" xlink:title=" ">
<polygon fill="white" stroke="#666666" points="1450.5,-79.5 1320.5,-79.5 1320.5,-60.5 1450.5,-60.5 1450.5,-79.5"/>
<text text-anchor="middle" x="1385.5" y="-67.5" font-family="Helvetica,sans-Serif" font-size="10.00">exceptions/exception.h</text>
</a>
</g>
</g>
<!-- Node3&#45;&gt;Node11 -->
<g id="edge10_Node000003_Node000011" class="edge">
<title>Node3&#45;&gt;Node11</title>
<g id="a_edge10_Node000003_Node000011"><a xlink:title=" ">
<path fill="none" stroke="#63b8ff" d="M855.54,-251.27C917.68,-251.63 1055.24,-247.2 1161.5,-206 1183.23,-197.58 1184.77,-188.39 1204.5,-176 1232.14,-158.64 1240.22,-156.29 1268.5,-140 1301.19,-121.17 1338.71,-98.93 1362.26,-84.9"/>
<polygon fill="#63b8ff" stroke="#63b8ff" points="1364.35,-87.72 1371.15,-79.59 1360.76,-81.71 1364.35,-87.72"/>
</a>
</g>
</g>
<!-- Node14 -->
<g id="Node000014" class="node">
<title>Node14</title>
<g id="a_Node000014"><a xlink:href="logger_8h.html" target="_top" xlink:title=" ">
<polygon fill="white" stroke="#666666" points="950,-140 867,-140 867,-121 950,-121 950,-140"/>
<text text-anchor="middle" x="908.5" y="-128" font-family="Helvetica,sans-Serif" font-size="10.00">tools/logger.h</text>
</a>
</g>
</g>
<!-- Node3&#45;&gt;Node14 -->
<g id="edge14_Node000003_Node000014" class="edge">
<title>Node3&#45;&gt;Node14</title>
<g id="a_edge14_Node000003_Node000014"><a xlink:title=" ">
<path fill="none" stroke="#63b8ff" d="M822.74,-241.86C823.54,-227.05 826.98,-196.47 841.5,-176 851.02,-162.58 865.97,-152.09 879.33,-144.67"/>
<polygon fill="#63b8ff" stroke="#63b8ff" points="880.99,-147.75 888.24,-140.03 877.76,-141.55 880.99,-147.75"/>
</a>
</g>
</g>
<!-- Node24 -->
<g id="Node000024" class="node">
<title>Node24</title>
<g id="a_Node000024"><a xlink:href="element__parameters_8h.html" target="_top" xlink:title=" ">
<polygon fill="white" stroke="#666666" points="1119,-206 988,-206 988,-176 1119,-176 1119,-206"/>
<text text-anchor="start" x="996" y="-194" font-family="Helvetica,sans-Serif" font-size="10.00">element_parameters</text>
<text text-anchor="middle" x="1053.5" y="-183" font-family="Helvetica,sans-Serif" font-size="10.00">/element_parameters.h</text>
</a>
</g>
</g>
<!-- Node3&#45;&gt;Node24 -->
<g id="edge29_Node000003_Node000024" class="edge">
<title>Node3&#45;&gt;Node24</title>
<g id="a_edge29_Node000003_Node000024"><a xlink:title=" ">
<path fill="none" stroke="#63b8ff" d="M855.6,-242.12C890.09,-233.38 945.03,-219.47 988.29,-208.52"/>
<polygon fill="#63b8ff" stroke="#63b8ff" points="989.33,-211.86 998.17,-206.01 987.61,-205.08 989.33,-211.86"/>
</a>
</g>
</g>
<!-- Node11&#45;&gt;Node5 -->
<g id="edge13_Node000011_Node000005" class="edge">
<title>Node11&#45;&gt;Node5</title>
<g id="a_edge13_Node000011_Node000005"><a xlink:title=" ">
<path fill="none" stroke="#63b8ff" d="M1349.87,-60.49C1302.23,-49.12 1218.45,-29.11 1172.64,-18.17"/>
<polygon fill="#63b8ff" stroke="#63b8ff" points="1173.2,-14.71 1162.66,-15.79 1171.58,-21.52 1173.2,-14.71"/>
</a>
</g>
</g>
<!-- Node12 -->
<g id="Node000012" class="node">
<title>Node12</title>
<g id="a_Node000012"><a xlink:title=" ">
<polygon fill="#e0e0e0" stroke="#999999" points="1491.5,-19 1441.5,-19 1441.5,0 1491.5,0 1491.5,-19"/>
<text text-anchor="middle" x="1466.5" y="-7" font-family="Helvetica,sans-Serif" font-size="10.00">cstdint</text>
</a>
</g>
</g>
<!-- Node11&#45;&gt;Node12 -->
<g id="edge11_Node000011_Node000012" class="edge">
<title>Node11&#45;&gt;Node12</title>
<g id="a_edge11_Node000011_Node000012"><a xlink:title=" ">
<path fill="none" stroke="#63b8ff" d="M1397.45,-60.37C1410.25,-51.12 1430.8,-36.28 1446.15,-25.19"/>
<polygon fill="#63b8ff" stroke="#63b8ff" points="1448.44,-27.86 1454.5,-19.17 1444.34,-22.18 1448.44,-27.86"/>
</a>
</g>
</g>
<!-- Node13 -->
<g id="Node000013" class="node">
<title>Node13</title>
<g id="a_Node000013"><a xlink:title=" ">
<polygon fill="#e0e0e0" stroke="#999999" points="1337,-19 1272,-19 1272,0 1337,0 1337,-19"/>
<text text-anchor="middle" x="1304.5" y="-7" font-family="Helvetica,sans-Serif" font-size="10.00">exception</text>
</a>
</g>
</g>
<!-- Node11&#45;&gt;Node13 -->
<g id="edge12_Node000011_Node000013" class="edge">
<title>Node11&#45;&gt;Node13</title>
<g id="a_edge12_Node000011_Node000013"><a xlink:title=" ">
<path fill="none" stroke="#63b8ff" d="M1373.55,-60.37C1360.75,-51.12 1340.2,-36.28 1324.85,-25.19"/>
<polygon fill="#63b8ff" stroke="#63b8ff" points="1326.66,-22.18 1316.5,-19.17 1322.56,-27.86 1326.66,-22.18"/>
</a>
</g>
</g>
<!-- Node14&#45;&gt;Node5 -->
<g id="edge16_Node000014_Node000005" class="edge">
<title>Node14&#45;&gt;Node5</title>
<g id="a_edge16_Node000014_Node000005"><a xlink:title=" ">
<path fill="none" stroke="#63b8ff" d="M925.18,-120.94C965.13,-100.45 1066.52,-48.45 1114.53,-23.82"/>
<polygon fill="#63b8ff" stroke="#63b8ff" points="1116.35,-26.82 1123.65,-19.14 1113.16,-20.59 1116.35,-26.82"/>
</a>
</g>
</g>
<!-- Node14&#45;&gt;Node11 -->
<g id="edge20_Node000014_Node000011" class="edge">
<title>Node14&#45;&gt;Node11</title>
<g id="a_edge20_Node000014_Node000011"><a xlink:title=" ">
<path fill="none" stroke="#63b8ff" d="M950.41,-124.36C1030.97,-114.48 1208.4,-92.72 1310.05,-80.25"/>
<polygon fill="#63b8ff" stroke="#63b8ff" points="1310.75,-83.69 1320.25,-79 1309.89,-76.75 1310.75,-83.69"/>
</a>
</g>
</g>
<!-- Node15 -->
<g id="Node000015" class="node">
<title>Node15</title>
<g id="a_Node000015"><a xlink:title=" ">
<polygon fill="#e0e0e0" stroke="#999999" points="894.5,-79.5 834.5,-79.5 834.5,-60.5 894.5,-60.5 894.5,-79.5"/>
<text text-anchor="middle" x="864.5" y="-67.5" font-family="Helvetica,sans-Serif" font-size="10.00">iostream</text>
</a>
</g>
</g>
<!-- Node14&#45;&gt;Node15 -->
<g id="edge15_Node000014_Node000015" class="edge">
<title>Node14&#45;&gt;Node15</title>
<g id="a_edge15_Node000014_Node000015"><a xlink:title=" ">
<path fill="none" stroke="#63b8ff" d="M902.01,-120.87C895.51,-112.23 885.34,-98.7 877.22,-87.92"/>
<polygon fill="#63b8ff" stroke="#63b8ff" points="879.83,-85.56 871.02,-79.67 874.23,-89.76 879.83,-85.56"/>
</a>
</g>
</g>
<!-- Node16 -->
<g id="Node000016" class="node">
<title>Node16</title>
<g id="a_Node000016"><a xlink:title=" ">
<polygon fill="#e0e0e0" stroke="#999999" points="1023.5,-19 973.5,-19 973.5,0 1023.5,0 1023.5,-19"/>
<text text-anchor="middle" x="998.5" y="-7" font-family="Helvetica,sans-Serif" font-size="10.00">chrono</text>
</a>
</g>
</g>
<!-- Node14&#45;&gt;Node16 -->
<g id="edge17_Node000014_Node000016" class="edge">
<title>Node14&#45;&gt;Node16</title>
<g id="a_edge17_Node000014_Node000016"><a xlink:title=" ">
<path fill="none" stroke="#63b8ff" d="M925.05,-120.95C938.63,-113.18 957.51,-100.58 969.5,-85 982.43,-68.2 990.25,-44.92 994.46,-28.88"/>
<polygon fill="#63b8ff" stroke="#63b8ff" points="997.88,-29.64 996.82,-19.1 991.07,-28 997.88,-29.64"/>
</a>
</g>
</g>
<!-- Node17 -->
<g id="Node000017" class="node">
<title>Node17</title>
<g id="a_Node000017"><a xlink:title=" ">
<polygon fill="#e0e0e0" stroke="#999999" points="690.5,-79.5 634.5,-79.5 634.5,-60.5 690.5,-60.5 690.5,-79.5"/>
<text text-anchor="middle" x="662.5" y="-67.5" font-family="Helvetica,sans-Serif" font-size="10.00">iomanip</text>
</a>
</g>
</g>
<!-- Node14&#45;&gt;Node17 -->
<g id="edge18_Node000014_Node000017" class="edge">
<title>Node14&#45;&gt;Node17</title>
<g id="a_edge18_Node000014_Node000017"><a xlink:title=" ">
<path fill="none" stroke="#63b8ff" d="M866.79,-122.55C824.27,-115.01 756.63,-101.78 699.5,-85 697.36,-84.37 695.16,-83.68 692.97,-82.94"/>
<polygon fill="#63b8ff" stroke="#63b8ff" points="694.04,-79.61 683.44,-79.56 691.69,-86.2 694.04,-79.61"/>
</a>
</g>
</g>
<!-- Node18 -->
<g id="Node000018" class="node">
<title>Node18</title>
<g id="a_Node000018"><a xlink:title=" ">
<polygon fill="#e0e0e0" stroke="#999999" points="816,-85 709,-85 709,-55 816,-55 816,-85"/>
<text text-anchor="start" x="717" y="-73" font-family="Helvetica,sans-Serif" font-size="10.00">imgui&#45;platform&#45;kit</text>
<text text-anchor="middle" x="762.5" y="-62" font-family="Helvetica,sans-Serif" font-size="10.00">/log_window.h</text>
</a>
</g>
</g>
<!-- Node14&#45;&gt;Node18 -->
<g id="edge19_Node000014_Node000018" class="edge">
<title>Node14&#45;&gt;Node18</title>
<g id="a_edge19_Node000014_Node000018"><a xlink:title=" ">
<path fill="none" stroke="#63b8ff" d="M887.27,-120.99C866.35,-112.61 833.74,-99.55 807.11,-88.87"/>
<polygon fill="#63b8ff" stroke="#63b8ff" points="808.18,-85.53 797.6,-85.06 805.58,-92.03 808.18,-85.53"/>
</a>
</g>
</g>
<!-- Node19 -->
<g id="Node000019" class="node">
<title>Node19</title>
<g id="a_Node000019"><a xlink:href="utils_8h.html" target="_top" xlink:title=" ">
<polygon fill="white" stroke="#666666" points="960,-79.5 913,-79.5 913,-60.5 960,-60.5 960,-79.5"/>
<text text-anchor="middle" x="936.5" y="-67.5" font-family="Helvetica,sans-Serif" font-size="10.00">utils.h</text>
</a>
</g>
</g>
<!-- Node14&#45;&gt;Node19 -->
<g id="edge21_Node000014_Node000019" class="edge">
<title>Node14&#45;&gt;Node19</title>
<g id="a_edge21_Node000014_Node000019"><a xlink:title=" ">
<path fill="none" stroke="#63b8ff" d="M912.63,-120.87C916.64,-112.49 922.85,-99.51 927.94,-88.89"/>
<polygon fill="#63b8ff" stroke="#63b8ff" points="931.19,-90.2 932.35,-79.67 924.88,-87.18 931.19,-90.2"/>
</a>
</g>
</g>
<!-- Node19&#45;&gt;Node4 -->
<g id="edge23_Node000019_Node000004" class="edge">
<title>Node19&#45;&gt;Node4</title>
<g id="a_edge23_Node000019_Node000004"><a xlink:title=" ">
<path fill="none" stroke="#63b8ff" d="M918.65,-60.42C913.82,-58.38 908.54,-56.4 903.5,-55 802.35,-26.99 677.97,-16.11 619.25,-12.31"/>
<polygon fill="#63b8ff" stroke="#63b8ff" points="619.27,-8.81 609.07,-11.69 618.83,-15.8 619.27,-8.81"/>
</a>
</g>
</g>
<!-- Node19&#45;&gt;Node5 -->
<g id="edge22_Node000019_Node000005" class="edge">
<title>Node19&#45;&gt;Node5</title>
<g id="a_edge22_Node000019_Node000005"><a xlink:title=" ">
<path fill="none" stroke="#63b8ff" d="M960.3,-62.17C997.02,-51.64 1067.54,-31.42 1108.63,-19.64"/>
<polygon fill="#63b8ff" stroke="#63b8ff" points="1109.75,-22.96 1118.4,-16.84 1107.83,-16.23 1109.75,-22.96"/>
</a>
</g>
</g>
<!-- Node19&#45;&gt;Node16 -->
<g id="edge27_Node000019_Node000016" class="edge">
<title>Node19&#45;&gt;Node16</title>
<g id="a_edge27_Node000019_Node000016"><a xlink:title=" ">
<path fill="none" stroke="#63b8ff" d="M945.65,-60.37C955.17,-51.38 970.3,-37.11 981.93,-26.14"/>
<polygon fill="#63b8ff" stroke="#63b8ff" points="984.44,-28.58 989.31,-19.17 979.64,-23.48 984.44,-28.58"/>
</a>
</g>
</g>
<!-- Node20 -->
<g id="Node000020" class="node">
<title>Node20</title>
<g id="a_Node000020"><a xlink:title=" ">
<polygon fill="#e0e0e0" stroke="#999999" points="449.5,-19 395.5,-19 395.5,0 449.5,0 449.5,-19"/>
<text text-anchor="middle" x="422.5" y="-7" font-family="Helvetica,sans-Serif" font-size="10.00">random</text>
</a>
</g>
</g>
<!-- Node19&#45;&gt;Node20 -->
<g id="edge24_Node000019_Node000020" class="edge">
<title>Node19&#45;&gt;Node20</title>
<g id="a_edge24_Node000019_Node000020"><a xlink:title=" ">
<path fill="none" stroke="#63b8ff" d="M919.04,-60.41C914.12,-58.32 908.69,-56.31 903.5,-55 860.85,-44.26 565.06,-21.24 459.68,-13.28"/>
<polygon fill="#63b8ff" stroke="#63b8ff" points="459.75,-9.77 449.52,-12.51 459.23,-16.75 459.75,-9.77"/>
</a>
</g>
</g>
<!-- Node21 -->
<g id="Node000021" class="node">
<title>Node21</title>
<g id="a_Node000021"><a xlink:title=" ">
<polygon fill="#e0e0e0" stroke="#999999" points="955.5,-19 899.5,-19 899.5,0 955.5,0 955.5,-19"/>
<text text-anchor="middle" x="927.5" y="-7" font-family="Helvetica,sans-Serif" font-size="10.00">sstream</text>
</a>
</g>
</g>
<!-- Node19&#45;&gt;Node21 -->
<g id="edge25_Node000019_Node000021" class="edge">
<title>Node19&#45;&gt;Node21</title>
<g id="a_edge25_Node000019_Node000021"><a xlink:title=" ">
<path fill="none" stroke="#63b8ff" d="M935.17,-60.37C933.91,-52.16 931.97,-39.54 930.35,-29.05"/>
<polygon fill="#63b8ff" stroke="#63b8ff" points="933.81,-28.52 928.83,-19.17 926.89,-29.58 933.81,-28.52"/>
</a>
</g>
</g>
<!-- Node22 -->
<g id="Node000022" class="node">
<title>Node22</title>
<g id="a_Node000022"><a xlink:title=" ">
<polygon fill="#e0e0e0" stroke="#999999" points="190,-19 135,-19 135,0 190,0 190,-19"/>
<text text-anchor="middle" x="162.5" y="-7" font-family="Helvetica,sans-Serif" font-size="10.00">fstream</text>
</a>
</g>
</g>
<!-- Node19&#45;&gt;Node22 -->
<g id="edge26_Node000019_Node000022" class="edge">
<title>Node19&#45;&gt;Node22</title>
<g id="a_edge26_Node000019_Node000022"><a xlink:title=" ">
<path fill="none" stroke="#63b8ff" d="M919.41,-60.44C914.4,-58.3 908.83,-56.25 903.5,-55 834.87,-38.89 342.26,-17.81 200.55,-12.03"/>
<polygon fill="#63b8ff" stroke="#63b8ff" points="200.33,-8.51 190.2,-11.6 200.05,-15.51 200.33,-8.51"/>
</a>
</g>
</g>
<!-- Node23 -->
<g id="Node000023" class="node">
<title>Node23</title>
<g id="a_Node000023"><a xlink:title=" ">
<polygon fill="#e0e0e0" stroke="#999999" points="1423.5,-19 1355.5,-19 1355.5,0 1423.5,0 1423.5,-19"/>
<text text-anchor="middle" x="1389.5" y="-7" font-family="Helvetica,sans-Serif" font-size="10.00">filesystem</text>
</a>
</g>
</g>
<!-- Node19&#45;&gt;Node23 -->
<g id="edge28_Node000019_Node000023" class="edge">
<title>Node19&#45;&gt;Node23</title>
<g id="a_edge28_Node000019_Node000023"><a xlink:title=" ">
<path fill="none" stroke="#63b8ff" d="M960.16,-66.73C1021.82,-60.69 1192.72,-43.11 1345.25,-19.09"/>
<polygon fill="#63b8ff" stroke="#63b8ff" points="1345.95,-22.53 1355.27,-17.5 1344.85,-15.61 1345.95,-22.53"/>
</a>
</g>
</g>
<!-- Node24&#45;&gt;Node5 -->
<g id="edge31_Node000024_Node000005" class="edge">
<title>Node24&#45;&gt;Node5</title>
<g id="a_edge31_Node000024_Node000005"><a xlink:title=" ">
<path fill="none" stroke="#63b8ff" d="M1082.32,-175.84C1096.41,-167.4 1112.29,-155.32 1121.5,-140 1142.41,-105.22 1143.39,-55.95 1142.07,-29.33"/>
<polygon fill="#63b8ff" stroke="#63b8ff" points="1145.55,-28.86 1141.4,-19.12 1138.57,-29.33 1145.55,-28.86"/>
</a>
</g>
</g>
<!-- Node24&#45;&gt;Node14 -->
<g id="edge33_Node000024_Node000014" class="edge">
<title>Node24&#45;&gt;Node14</title>
<g id="a_edge33_Node000024_Node000014"><a xlink:title=" ">
<path fill="none" stroke="#63b8ff" d="M1018.77,-175.99C994.58,-166.23 962.6,-153.33 939.31,-143.93"/>
<polygon fill="#63b8ff" stroke="#63b8ff" points="940.5,-140.63 929.91,-140.14 937.88,-147.13 940.5,-140.63"/>
</a>
</g>
</g>
<!-- Node25 -->
<g id="Node000025" class="node">
<title>Node25</title>
<g id="a_Node000025"><a xlink:title=" ">
<polygon fill="#e0e0e0" stroke="#999999" points="1112.5,-140 1074.5,-140 1074.5,-121 1112.5,-121 1112.5,-140"/>
<text text-anchor="middle" x="1093.5" y="-128" font-family="Helvetica,sans-Serif" font-size="10.00">map</text>
</a>
</g>
</g>
<!-- Node24&#45;&gt;Node25 -->
<g id="edge30_Node000024_Node000025" class="edge">
<title>Node24&#45;&gt;Node25</title>
<g id="a_edge30_Node000024_Node000025"><a xlink:title=" ">
<path fill="none" stroke="#63b8ff" d="M1063.18,-175.84C1068.75,-167.69 1075.79,-157.4 1081.68,-148.78"/>
<polygon fill="#63b8ff" stroke="#63b8ff" points="1084.75,-150.5 1087.51,-140.27 1078.97,-146.55 1084.75,-150.5"/>
</a>
</g>
</g>
<!-- Node26 -->
<g id="Node000026" class="node">
<title>Node26</title>
<g id="a_Node000026"><a xlink:title=" ">
<polygon fill="#e0e0e0" stroke="#999999" points="1056.5,-140 1006.5,-140 1006.5,-121 1056.5,-121 1056.5,-140"/>
<text text-anchor="middle" x="1031.5" y="-128" font-family="Helvetica,sans-Serif" font-size="10.00">format</text>
</a>
</g>
</g>
<!-- Node24&#45;&gt;Node26 -->
<g id="edge32_Node000024_Node000026" class="edge">
<title>Node24&#45;&gt;Node26</title>
<g id="a_edge32_Node000024_Node000026"><a xlink:title=" ">
<path fill="none" stroke="#63b8ff" d="M1048.17,-175.84C1045.24,-168.04 1041.57,-158.27 1038.42,-149.89"/>
<polygon fill="#63b8ff" stroke="#63b8ff" points="1041.59,-148.39 1034.8,-140.27 1035.04,-150.86 1041.59,-148.39"/>
</a>
</g>
</g>
<!-- Node27&#45;&gt;Node5 -->
<g id="edge35_Node000027_Node000005" class="edge">
<title>Node27&#45;&gt;Node5</title>
<g id="a_edge35_Node000027_Node000005"><a xlink:title=" ">
<path fill="none" stroke="#63b8ff" d="M921.18,-181.46C937.56,-168.38 969.87,-142.63 997.5,-121 1041.64,-86.45 1093.82,-46.3 1121.32,-25.2"/>
<polygon fill="#63b8ff" stroke="#63b8ff" points="1123.53,-27.91 1129.34,-19.05 1119.27,-22.36 1123.53,-27.91"/>
</a>
</g>
</g>
<!-- Node27&#45;&gt;Node14 -->
<g id="edge36_Node000027_Node000014" class="edge">
<title>Node27&#45;&gt;Node14</title>
<g id="a_edge36_Node000027_Node000014"><a xlink:title=" ">
<path fill="none" stroke="#63b8ff" d="M910.2,-181.37C909.93,-173.25 909.5,-160.81 909.15,-150.39"/>
<polygon fill="#63b8ff" stroke="#63b8ff" points="912.64,-150.04 908.8,-140.17 905.64,-150.28 912.64,-150.04"/>
</a>
</g>
</g>
<!-- Node28 -->
<g id="Node000028" class="node">
<title>Node28</title>
<g id="a_Node000028"><a xlink:href="math_8h.html" target="_top" xlink:title=" ">
<polygon fill="white" stroke="#666666" points="321.5,-140 243.5,-140 243.5,-121 321.5,-121 321.5,-140"/>
<text text-anchor="middle" x="282.5" y="-128" font-family="Helvetica,sans-Serif" font-size="10.00">tools/math.h</text>
</a>
</g>
</g>
<!-- Node27&#45;&gt;Node28 -->
<g id="edge37_Node000027_Node000028" class="edge">
<title>Node27&#45;&gt;Node28</title>
<g id="a_edge37_Node000027_Node000028"><a xlink:title=" ">
<path fill="none" stroke="#63b8ff" d="M850.85,-181.71C835.44,-179.71 818.87,-177.66 803.5,-176 630.56,-157.31 424.62,-141.67 331.97,-134.98"/>
<polygon fill="#63b8ff" stroke="#63b8ff" points="332,-131.47 321.77,-134.25 331.5,-138.46 332,-131.47"/>
</a>
</g>
</g>
<!-- Node28&#45;&gt;Node4 -->
<g id="edge38_Node000028_Node000004" class="edge">
<title>Node28&#45;&gt;Node4</title>
<g id="a_edge38_Node000028_Node000004"><a xlink:title=" ">
<path fill="none" stroke="#63b8ff" d="M285.5,-120.92C291.52,-105.07 306.66,-71.32 331.5,-55 367.24,-31.52 491.08,-18.3 551.63,-13.11"/>
<polygon fill="#63b8ff" stroke="#63b8ff" points="552.15,-16.58 561.82,-12.26 551.56,-9.6 552.15,-16.58"/>
</a>
</g>
</g>
<!-- Node28&#45;&gt;Node9 -->
<g id="edge41_Node000028_Node000009" class="edge">
<title>Node28&#45;&gt;Node9</title>
<g id="a_edge41_Node000028_Node000009"><a xlink:title=" ">
<path fill="none" stroke="#63b8ff" d="M321.68,-121.05C358.92,-112.77 416.38,-99.33 465.5,-85 467.96,-84.28 470.5,-83.51 473.04,-82.7"/>
<polygon fill="#63b8ff" stroke="#63b8ff" points="474.36,-85.95 482.77,-79.51 472.18,-79.3 474.36,-85.95"/>
</a>
</g>
</g>
<!-- Node28&#45;&gt;Node10 -->
<g id="edge42_Node000028_Node000010" class="edge">
<title>Node28&#45;&gt;Node10</title>
<g id="a_edge42_Node000028_Node000010"><a xlink:title=" ">
<path fill="none" stroke="#63b8ff" d="M303.73,-120.99C328.49,-111.07 369.62,-94.59 397.85,-83.28"/>
<polygon fill="#63b8ff" stroke="#63b8ff" points="399.26,-86.49 407.24,-79.52 396.66,-79.99 399.26,-86.49"/>
</a>
</g>
</g>
<!-- Node28&#45;&gt;Node20 -->
<g id="edge44_Node000028_Node000020" class="edge">
<title>Node28&#45;&gt;Node20</title>
<g id="a_edge44_Node000028_Node000020"><a xlink:title=" ">
<path fill="none" stroke="#63b8ff" d="M243.12,-123.24C192.06,-113.49 113.06,-91.88 144.5,-55 174.98,-19.25 316.42,-12.1 385,-10.75"/>
<polygon fill="#63b8ff" stroke="#63b8ff" points="385.42,-14.25 395.36,-10.58 385.3,-7.25 385.42,-14.25"/>
</a>
</g>
</g>
<!-- Node28&#45;&gt;Node22 -->
<g id="edge46_Node000028_Node000022" class="edge">
<title>Node28&#45;&gt;Node22</title>
<g id="a_edge46_Node000028_Node000022"><a xlink:title=" ">
<path fill="none" stroke="#63b8ff" d="M243.37,-124.85C198.04,-118.56 127.49,-105.69 111.5,-85 103.35,-74.45 105.98,-67.14 111.5,-55 117.12,-42.63 128.07,-32.36 138.39,-24.81"/>
<polygon fill="#63b8ff" stroke="#63b8ff" points="140.46,-27.63 146.77,-19.12 136.53,-21.84 140.46,-27.63"/>
</a>
</g>
</g>
<!-- Node29 -->
<g id="Node000029" class="node">
<title>Node29</title>
<g id="a_Node000029"><a xlink:title=" ">
<polygon fill="#e0e0e0" stroke="#999999" points="382.5,-79.5 340.5,-79.5 340.5,-60.5 382.5,-60.5 382.5,-79.5"/>
<text text-anchor="middle" x="361.5" y="-67.5" font-family="Helvetica,sans-Serif" font-size="10.00">array</text>
</a>
</g>
</g>
<!-- Node28&#45;&gt;Node29 -->
<g id="edge39_Node000028_Node000029" class="edge">
<title>Node28&#45;&gt;Node29</title>
<g id="a_edge39_Node000028_Node000029"><a xlink:title=" ">
<path fill="none" stroke="#63b8ff" d="M294.16,-120.87C306.64,-111.62 326.68,-96.78 341.66,-85.69"/>
<polygon fill="#63b8ff" stroke="#63b8ff" points="343.84,-88.43 349.8,-79.67 339.68,-82.81 343.84,-88.43"/>
</a>
</g>
</g>
<!-- Node30 -->
<g id="Node000030" class="node">
<title>Node30</title>
<g id="a_Node000030"><a xlink:title=" ">
<polygon fill="#e0e0e0" stroke="#999999" points="201,-79.5 154,-79.5 154,-60.5 201,-60.5 201,-79.5"/>
<text text-anchor="middle" x="177.5" y="-67.5" font-family="Helvetica,sans-Serif" font-size="10.00">cmath</text>
</a>
</g>
</g>
<!-- Node28&#45;&gt;Node30 -->
<g id="edge40_Node000028_Node000030" class="edge">
<title>Node28&#45;&gt;Node30</title>
<g id="a_edge40_Node000028_Node000030"><a xlink:title=" ">
<path fill="none" stroke="#63b8ff" d="M267.01,-120.87C249.87,-111.32 222.03,-95.81 201.94,-84.62"/>
<polygon fill="#63b8ff" stroke="#63b8ff" points="203.5,-81.48 193.06,-79.67 200.09,-87.59 203.5,-81.48"/>
</a>
</g>
</g>
<!-- Node31 -->
<g id="Node000031" class="node">
<title>Node31</title>
<g id="a_Node000031"><a xlink:title=" ">
<polygon fill="#e0e0e0" stroke="#999999" points="284,-79.5 219,-79.5 219,-60.5 284,-60.5 284,-79.5"/>
<text text-anchor="middle" x="251.5" y="-67.5" font-family="Helvetica,sans-Serif" font-size="10.00">functional</text>
</a>
</g>
</g>
<!-- Node28&#45;&gt;Node31 -->
<g id="edge43_Node000028_Node000031" class="edge">
<title>Node28&#45;&gt;Node31</title>
<g id="a_edge43_Node000028_Node000031"><a xlink:title=" ">
<path fill="none" stroke="#63b8ff" d="M277.93,-120.87C273.44,-112.4 266.47,-99.24 260.81,-88.57"/>
<polygon fill="#63b8ff" stroke="#63b8ff" points="263.87,-86.86 256.09,-79.67 257.68,-90.14 263.87,-86.86"/>
</a>
</g>
</g>
<!-- Node32 -->
<g id="Node000032" class="node">
<title>Node32</title>
<g id="a_Node000032"><a xlink:title=" ">
<polygon fill="#e0e0e0" stroke="#999999" points="59,-79.5 0,-79.5 0,-60.5 59,-60.5 59,-79.5"/>
<text text-anchor="middle" x="29.5" y="-67.5" font-family="Helvetica,sans-Serif" font-size="10.00">numbers</text>
</a>
</g>
</g>
<!-- Node28&#45;&gt;Node32 -->
<g id="edge45_Node000028_Node000032" class="edge">
<title>Node28&#45;&gt;Node32</title>
<g id="a_edge45_Node000028_Node000032"><a xlink:title=" ">
<path fill="none" stroke="#63b8ff" d="M243.32,-122.35C201.12,-114.37 132.13,-100.53 73.5,-85 70.67,-84.25 67.75,-83.43 64.82,-82.57"/>
<polygon fill="#63b8ff" stroke="#63b8ff" points="65.55,-79.14 54.97,-79.57 63.52,-85.83 65.55,-79.14"/>
</a>
</g>
</g>
<!-- Node33&#45;&gt;Node3 -->
<g id="edge53_Node000033_Node000003" class="edge">
<title>Node33&#45;&gt;Node3</title>
<g id="a_edge53_Node000033_Node000003"><a xlink:title=" ">
<path fill="none" stroke="#63b8ff" d="M1233.18,-298.13C1133.87,-287.1 949.31,-266.59 865.68,-257.3"/>
<polygon fill="#63b8ff" stroke="#63b8ff" points="865.84,-253.79 855.52,-256.17 865.07,-260.75 865.84,-253.79"/>
</a>
</g>
</g>
<!-- Node33&#45;&gt;Node4 -->
<g id="edge48_Node000033_Node000004" class="edge">
<title>Node33&#45;&gt;Node4</title>
<g id="a_edge48_Node000033_Node000004"><a xlink:title=" ">
<path fill="none" stroke="#63b8ff" d="M1233.37,-305.96C1076.09,-305.58 686.38,-295.41 599.5,-206 552.67,-157.8 569.76,-67.61 580.02,-28.91"/>
<polygon fill="#63b8ff" stroke="#63b8ff" points="583.46,-29.62 582.79,-19.04 576.72,-27.72 583.46,-29.62"/>
</a>
</g>
</g>
<!-- Node33&#45;&gt;Node5 -->
<g id="edge50_Node000033_Node000005" class="edge">
<title>Node33&#45;&gt;Node5</title>
<g id="a_edge50_Node000033_Node000005"><a xlink:title=" ">
<path fill="none" stroke="#63b8ff" d="M1315.53,-296.95C1327.91,-289.35 1344.15,-276.97 1351.5,-261 1367.3,-226.68 1368.03,-209.97 1351.5,-176 1313.58,-98.06 1219.22,-45.95 1170.57,-23.33"/>
<polygon fill="#63b8ff" stroke="#63b8ff" points="1171.75,-20.02 1161.19,-19.07 1168.85,-26.39 1171.75,-20.02"/>
</a>
</g>
</g>
<!-- Node33&#45;&gt;Node7 -->
<g id="edge49_Node000033_Node000007" class="edge">
<title>Node33&#45;&gt;Node7</title>
<g id="a_edge49_Node000033_Node000007"><a xlink:title=" ">
<path fill="none" stroke="#63b8ff" d="M1295.22,-296.97C1285.93,-278.48 1263.79,-234.4 1251.36,-209.64"/>
<polygon fill="#63b8ff" stroke="#63b8ff" points="1254.45,-208 1246.83,-200.63 1248.19,-211.14 1254.45,-208"/>
</a>
</g>
</g>
<!-- Node33&#45;&gt;Node11 -->
<g id="edge54_Node000033_Node000011" class="edge">
<title>Node33&#45;&gt;Node11</title>
<g id="a_edge54_Node000033_Node000011"><a xlink:title=" ">
<path fill="none" stroke="#63b8ff" d="M1337.51,-296.85C1356.62,-290.37 1378.1,-279.36 1389.5,-261 1423.26,-206.64 1403.57,-125.6 1392.04,-89.5"/>
<polygon fill="#63b8ff" stroke="#63b8ff" points="1395.29,-88.19 1388.8,-79.82 1388.66,-90.42 1395.29,-88.19"/>
</a>
</g>
</g>
<!-- Node33&#45;&gt;Node16 -->
<g id="edge52_Node000033_Node000016" class="edge">
<title>Node33&#45;&gt;Node16</title>
<g id="a_edge52_Node000033_Node000016"><a xlink:title=" ">
<path fill="none" stroke="#63b8ff" d="M1304.12,-296.94C1308.56,-288.2 1314.95,-274.09 1317.5,-261 1324.84,-223.27 1324.9,-206.5 1301.5,-176 1231.87,-85.22 1097.63,-37.81 1033.83,-19.56"/>
<polygon fill="#63b8ff" stroke="#63b8ff" points="1034.43,-16.09 1023.86,-16.78 1032.55,-22.83 1034.43,-16.09"/>
</a>
</g>
</g>
<!-- Node33&#45;&gt;Node19 -->
<g id="edge55_Node000033_Node000019" class="edge">
<title>Node33&#45;&gt;Node19</title>
<g id="a_edge55_Node000033_Node000019"><a xlink:title=" ">
<path fill="none" stroke="#63b8ff" d="M1301.03,-296.74C1304.47,-273.94 1310.36,-212.05 1280.5,-176 1260.11,-151.38 1052.3,-98.98 969.9,-78.98"/>
<polygon fill="#63b8ff" stroke="#63b8ff" points="970.58,-75.55 960.04,-76.6 968.94,-82.35 970.58,-75.55"/>
</a>
</g>
</g>
<!-- Node33&#45;&gt;Node23 -->
<g id="edge51_Node000033_Node000023" class="edge">
<title>Node33&#45;&gt;Node23</title>
<g id="a_edge51_Node000033_Node000023"><a xlink:title=" ">
<path fill="none" stroke="#63b8ff" d="M1346.06,-296.97C1399.1,-284.25 1478.5,-254.74 1478.5,-192 1478.5,-192 1478.5,-192 1478.5,-129.5 1478.5,-95.33 1479.55,-82.67 1459.5,-55 1449.68,-41.45 1434.36,-31.04 1420.55,-23.7"/>
<polygon fill="#63b8ff" stroke="#63b8ff" points="1421.83,-20.43 1411.31,-19.11 1418.71,-26.69 1421.83,-20.43"/>
</a>
</g>
</g>
<!-- Node34&#45;&gt;Node3 -->
<g id="edge57_Node000034_Node000003" class="edge">
<title>Node34&#45;&gt;Node3</title>
<g id="a_edge57_Node000034_Node000003"><a xlink:title=" ">
<path fill="none" stroke="#63b8ff" d="M797.45,-296.75C801.56,-289.49 807.53,-278.95 812.6,-269.98"/>
<polygon fill="#63b8ff" stroke="#63b8ff" points="815.76,-271.52 817.64,-261.09 809.67,-268.07 815.76,-271.52"/>
</a>
</g>
</g>
<!-- Node34&#45;&gt;Node29 -->
<g id="edge58_Node000034_Node000029" class="edge">
<title>Node34&#45;&gt;Node29</title>
<g id="a_edge58_Node000034_Node000029"><a xlink:title=" ">
<path fill="none" stroke="#63b8ff" d="M740.39,-303.52C662.11,-299.66 518.81,-288.92 476.5,-261 412.8,-218.97 378.86,-128.36 366.73,-89.41"/>
<polygon fill="#63b8ff" stroke="#63b8ff" points="370.04,-88.26 363.83,-79.68 363.34,-90.26 370.04,-88.26"/>
</a>
</g>
</g>
</g>
</svg>
