<?xml version="1.0" encoding="UTF-8" standalone="no"?>
<!DOCTYPE svg PUBLIC "-//W3C//DTD SVG 1.1//EN"
 "http://www.w3.org/Graphics/SVG/1.1/DTD/svg11.dtd">
<!-- Generated by graphviz version 2.43.0 (0)
 -->
<!-- Title: include/user_interface/node_utilities/node_widgets.h Pages: 1 -->
<svg width="481pt" height="313pt"
 viewBox="0.00 0.00 481.00 313.00" xmlns="http://www.w3.org/2000/svg" xmlns:xlink="http://www.w3.org/1999/xlink">
<g id="graph0" class="graph" transform="scale(1 1) rotate(0) translate(4 309)">
<title>include/user_interface/node_utilities/node_widgets.h</title>
<!-- Node1 -->
<g id="Node000001" class="node">
<title>Node1</title>
<g id="a_Node000001"><a xlink:title=" ">
<polygon fill="#999999" stroke="#666666" points="395,-305 230,-305 230,-275 395,-275 395,-305"/>
<text text-anchor="start" x="238" y="-293" font-family="Helvetica,sans-Serif" font-size="10.00">include/user_interface</text>
<text text-anchor="middle" x="312.5" y="-282" font-family="Helvetica,sans-Serif" font-size="10.00">/node_utilities/node_widgets.h</text>
</a>
</g>
</g>
<!-- Node2 -->
<g id="Node000002" class="node">
<title>Node2</title>
<g id="a_Node000002"><a xlink:href="node__graph__window_8h.html" target="_top" xlink:title=" ">
<polygon fill="white" stroke="#666666" points="307.5,-233.5 179.5,-233.5 179.5,-203.5 307.5,-203.5 307.5,-233.5"/>
<text text-anchor="start" x="187.5" y="-221.5" font-family="Helvetica,sans-Serif" font-size="10.00">include/user_interface</text>
<text text-anchor="middle" x="243.5" y="-210.5" font-family="Helvetica,sans-Serif" font-size="10.00">/node_graph_window.h</text>
</a>
</g>
</g>
<!-- Node1&#45;&gt;Node2 -->
<g id="edge1_Node000001_Node000002" class="edge">
<title>Node1&#45;&gt;Node2</title>
<g id="a_edge1_Node000001_Node000002"><a xlink:title=" ">
<path fill="none" stroke="#63b8ff" d="M291.32,-267.67C280.31,-256.58 267.16,-243.34 257.44,-233.54"/>
<polygon fill="#63b8ff" stroke="#63b8ff" points="289.01,-270.3 298.54,-274.94 293.98,-265.37 289.01,-270.3"/>
</a>
</g>
</g>
<!-- Node10 -->
<g id="Node000010" class="node">
<title>Node10</title>
<g id="a_Node000010"><a xlink:href="node__widgets_8cpp.html" target="_top" xlink:title=" ">
<polygon fill="white" stroke="#666666" points="439,-239 326,-239 326,-198 439,-198 439,-239"/>
<text text-anchor="start" x="334" y="-227" font-family="Helvetica,sans-Serif" font-size="10.00">src/user_interface</text>
<text text-anchor="start" x="334" y="-216" font-family="Helvetica,sans-Serif" font-size="10.00">/node_utilities/node</text>
<text text-anchor="middle" x="382.5" y="-205" font-family="Helvetica,sans-Serif" font-size="10.00">_widgets.cpp</text>
</a>
</g>
</g>
<!-- Node1&#45;&gt;Node10 -->
<g id="edge9_Node000001_Node000010" class="edge">
<title>Node1&#45;&gt;Node10</title>
<g id="a_edge9_Node000001_Node000010"><a xlink:title=" ">
<path fill="none" stroke="#63b8ff" d="M333.97,-267.69C343.15,-258.57 353.8,-247.99 362.79,-239.07"/>
<polygon fill="#63b8ff" stroke="#63b8ff" points="331.3,-265.41 326.67,-274.94 336.23,-270.37 331.3,-265.41"/>
</a>
</g>
</g>
<!-- Node3 -->
<g id="Node000003" class="node">
<title>Node3</title>
<g id="a_Node000003"><a xlink:href="dynamic-neural-field-composer-dynamic_8h.html" target="_top" xlink:title=" ">
<polygon fill="white" stroke="#666666" points="156.5,-162 8.5,-162 8.5,-132 156.5,-132 156.5,-162"/>
<text text-anchor="start" x="16.5" y="-150" font-family="Helvetica,sans-Serif" font-size="10.00">include/dynamic&#45;neural</text>
<text text-anchor="middle" x="82.5" y="-139" font-family="Helvetica,sans-Serif" font-size="10.00">&#45;field&#45;composer&#45;dynamic.h</text>
</a>
</g>
</g>
<!-- Node2&#45;&gt;Node3 -->
<g id="edge2_Node000002_Node000003" class="edge">
<title>Node2&#45;&gt;Node3</title>
<g id="a_edge2_Node000002_Node000003"><a xlink:title=" ">
<path fill="none" stroke="#63b8ff" d="M201.71,-199.46C174.68,-187.79 140.01,-172.82 115.03,-162.04"/>
<polygon fill="#63b8ff" stroke="#63b8ff" points="200.35,-202.69 210.92,-203.44 203.13,-196.26 200.35,-202.69"/>
</a>
</g>
</g>
<!-- Node5 -->
<g id="Node000005" class="node">
<title>Node5</title>
<g id="a_Node000005"><a xlink:href="static__layout__window_8h.html" target="_top" xlink:title=" ">
<polygon fill="white" stroke="#666666" points="310.5,-162 176.5,-162 176.5,-132 310.5,-132 310.5,-162"/>
<text text-anchor="start" x="184.5" y="-150" font-family="Helvetica,sans-Serif" font-size="10.00">include/user_interface</text>
<text text-anchor="middle" x="243.5" y="-139" font-family="Helvetica,sans-Serif" font-size="10.00">/static_layout_window.h</text>
</a>
</g>
</g>
<!-- Node2&#45;&gt;Node5 -->
<g id="edge4_Node000002_Node000005" class="edge">
<title>Node2&#45;&gt;Node5</title>
<g id="a_edge4_Node000002_Node000005"><a xlink:title=" ">
<path fill="none" stroke="#63b8ff" d="M243.5,-193.25C243.5,-182.81 243.5,-170.99 243.5,-162.04"/>
<polygon fill="#63b8ff" stroke="#63b8ff" points="240,-193.44 243.5,-203.44 247,-193.44 240,-193.44"/>
</a>
</g>
</g>
<!-- Node9 -->
<g id="Node000009" class="node">
<title>Node9</title>
<g id="a_Node000009"><a xlink:href="node__graph__window_8cpp.html" target="_top" xlink:title=" ">
<polygon fill="white" stroke="#666666" points="468,-162 329,-162 329,-132 468,-132 468,-162"/>
<text text-anchor="start" x="337" y="-150" font-family="Helvetica,sans-Serif" font-size="10.00">src/user_interface</text>
<text text-anchor="middle" x="398.5" y="-139" font-family="Helvetica,sans-Serif" font-size="10.00">/node_graph_window.cpp</text>
</a>
</g>
</g>
<!-- Node2&#45;&gt;Node9 -->
<g id="edge8_Node000002_Node000009" class="edge">
<title>Node2&#45;&gt;Node9</title>
<g id="a_edge8_Node000002_Node000009"><a xlink:title=" ">
<path fill="none" stroke="#63b8ff" d="M284.08,-199.31C310.05,-187.66 343.24,-172.78 367.18,-162.04"/>
<polygon fill="#63b8ff" stroke="#63b8ff" points="282.56,-196.15 274.87,-203.44 285.42,-202.54 282.56,-196.15"/>
</a>
</g>
</g>
<!-- Node4 -->
<g id="Node000004" class="node">
<title>Node4</title>
<g id="a_Node000004"><a xlink:href="dynamic-neural-field-composer-dynamic_8cpp.html" target="_top" xlink:title=" ">
<polygon fill="white" stroke="#666666" points="159,-96 0,-96 0,-66 159,-66 159,-96"/>
<text text-anchor="start" x="8" y="-84" font-family="Helvetica,sans-Serif" font-size="10.00">src/dynamic&#45;neural</text>
<text text-anchor="middle" x="79.5" y="-73" font-family="Helvetica,sans-Serif" font-size="10.00">&#45;field&#45;composer&#45;dynamic.cpp</text>
</a>
</g>
</g>
<!-- Node3&#45;&gt;Node4 -->
<g id="edge3_Node000003_Node000004" class="edge">
<title>Node3&#45;&gt;Node4</title>
<g id="a_edge3_Node000003_Node000004"><a xlink:title=" ">
<path fill="none" stroke="#63b8ff" d="M81.35,-121.54C80.95,-112.96 80.51,-103.61 80.16,-96.16"/>
<polygon fill="#63b8ff" stroke="#63b8ff" points="77.87,-121.97 81.83,-131.8 84.86,-121.64 77.87,-121.97"/>
</a>
</g>
</g>
<!-- Node6 -->
<g id="Node000006" class="node">
<title>Node6</title>
<g id="a_Node000006"><a xlink:href="dynamic-neural-field-composer-static_8h.html" target="_top" xlink:title=" ">
<polygon fill="white" stroke="#666666" points="310,-96 177,-96 177,-66 310,-66 310,-96"/>
<text text-anchor="start" x="185" y="-84" font-family="Helvetica,sans-Serif" font-size="10.00">include/dynamic&#45;neural</text>
<text text-anchor="middle" x="243.5" y="-73" font-family="Helvetica,sans-Serif" font-size="10.00">&#45;field&#45;composer&#45;static.h</text>
</a>
</g>
</g>
<!-- Node5&#45;&gt;Node6 -->
<g id="edge5_Node000005_Node000006" class="edge">
<title>Node5&#45;&gt;Node6</title>
<g id="a_edge5_Node000005_Node000006"><a xlink:title=" ">
<path fill="none" stroke="#63b8ff" d="M243.5,-121.54C243.5,-112.96 243.5,-103.61 243.5,-96.16"/>
<polygon fill="#63b8ff" stroke="#63b8ff" points="240,-121.8 243.5,-131.8 247,-121.8 240,-121.8"/>
</a>
</g>
</g>
<!-- Node8 -->
<g id="Node000008" class="node">
<title>Node8</title>
<g id="a_Node000008"><a xlink:href="static__layout__window_8cpp.html" target="_top" xlink:title=" ">
<polygon fill="white" stroke="#666666" points="473,-96 328,-96 328,-66 473,-66 473,-96"/>
<text text-anchor="start" x="336" y="-84" font-family="Helvetica,sans-Serif" font-size="10.00">src/user_interface</text>
<text text-anchor="middle" x="400.5" y="-73" font-family="Helvetica,sans-Serif" font-size="10.00">/static_layout_window.cpp</text>
</a>
</g>
</g>
<!-- Node5&#45;&gt;Node8 -->
<g id="edge7_Node000005_Node000008" class="edge">
<title>Node5&#45;&gt;Node8</title>
<g id="a_edge7_Node000005_Node000008"><a xlink:title=" ">
<path fill="none" stroke="#63b8ff" d="M287.52,-128.05C312.4,-117.91 343.03,-105.43 366.13,-96.01"/>
<polygon fill="#63b8ff" stroke="#63b8ff" points="285.89,-124.94 277.95,-131.95 288.54,-131.42 285.89,-124.94"/>
</a>
</g>
</g>
<!-- Node7 -->
<g id="Node000007" class="node">
<title>Node7</title>
<g id="a_Node000007"><a xlink:href="dynamic-neural-field-composer-static_8cpp.html" target="_top" xlink:title=" ">
<polygon fill="white" stroke="#666666" points="315.5,-30 171.5,-30 171.5,0 315.5,0 315.5,-30"/>
<text text-anchor="start" x="179.5" y="-18" font-family="Helvetica,sans-Serif" font-size="10.00">src/dynamic&#45;neural</text>
<text text-anchor="middle" x="243.5" y="-7" font-family="Helvetica,sans-Serif" font-size="10.00">&#45;field&#45;composer&#45;static.cpp</text>
</a>
</g>
</g>
<!-- Node6&#45;&gt;Node7 -->
<g id="edge6_Node000006_Node000007" class="edge">
<title>Node6&#45;&gt;Node7</title>
<g id="a_edge6_Node000006_Node000007"><a xlink:title=" ">
<path fill="none" stroke="#63b8ff" d="M243.5,-55.54C243.5,-46.96 243.5,-37.61 243.5,-30.16"/>
<polygon fill="#63b8ff" stroke="#63b8ff" points="240,-55.8 243.5,-65.8 247,-55.8 240,-55.8"/>
</a>
</g>
</g>
</g>
</svg>
