<?xml version="1.0" encoding="UTF-8" standalone="no"?>
<!DOCTYPE svg PUBLIC "-//W3C//DTD SVG 1.1//EN"
 "http://www.w3.org/Graphics/SVG/1.1/DTD/svg11.dtd">
<!-- Generated by graphviz version 2.43.0 (0)
 -->
<!-- Title: src/user_interface/node_utilities/node_widgets.cpp Pages: 1 -->
<svg width="260pt" height="225pt"
 viewBox="0.00 0.00 260.00 225.00" xmlns="http://www.w3.org/2000/svg" xmlns:xlink="http://www.w3.org/1999/xlink">
<g id="graph0" class="graph" transform="scale(1 1) rotate(0) translate(4 221)">
<title>src/user_interface/node_utilities/node_widgets.cpp</title>
<!-- Node1 -->
<g id="Node000001" class="node">
<title>Node1</title>
<g id="a_Node000001"><a xlink:title=" ">
<polygon fill="#999999" stroke="#666666" points="192.5,-217 79.5,-217 79.5,-176 192.5,-176 192.5,-217"/>
<text text-anchor="start" x="87.5" y="-205" font-family="Helvetica,sans-Serif" font-size="10.00">src/user_interface</text>
<text text-anchor="start" x="87.5" y="-194" font-family="Helvetica,sans-Serif" font-size="10.00">/node_utilities/node</text>
<text text-anchor="middle" x="136" y="-183" font-family="Helvetica,sans-Serif" font-size="10.00">_widgets.cpp</text>
</a>
</g>
</g>
<!-- Node2 -->
<g id="Node000002" class="node">
<title>Node2</title>
<g id="a_Node000002"><a xlink:href="node__widgets_8h.html" target="_top" xlink:title=" ">
<polygon fill="white" stroke="#666666" points="138,-140 0,-140 0,-110 138,-110 138,-140"/>
<text text-anchor="start" x="8" y="-128" font-family="Helvetica,sans-Serif" font-size="10.00">user_interface/node</text>
<text text-anchor="middle" x="69" y="-117" font-family="Helvetica,sans-Serif" font-size="10.00">_utilities/node_widgets.h</text>
</a>
</g>
</g>
<!-- Node1&#45;&gt;Node2 -->
<g id="edge1_Node000001_Node000002" class="edge">
<title>Node1&#45;&gt;Node2</title>
<g id="a_edge1_Node000001_Node000002"><a xlink:title=" ">
<path fill="none" stroke="#63b8ff" d="M116.98,-175.77C108.4,-166.87 98.24,-156.33 89.49,-147.25"/>
<polygon fill="#63b8ff" stroke="#63b8ff" points="91.99,-144.81 82.53,-140.04 86.95,-149.67 91.99,-144.81"/>
</a>
</g>
</g>
<!-- Node5 -->
<g id="Node000005" class="node">
<title>Node5</title>
<g id="a_Node000005"><a xlink:title=" ">
<polygon fill="#e0e0e0" stroke="#999999" points="252,-134.5 156,-134.5 156,-115.5 252,-115.5 252,-134.5"/>
<text text-anchor="middle" x="204" y="-122.5" font-family="Helvetica,sans-Serif" font-size="10.00">imgui_internal.h</text>
</a>
</g>
</g>
<!-- Node1&#45;&gt;Node5 -->
<g id="edge5_Node000001_Node000005" class="edge">
<title>Node1&#45;&gt;Node5</title>
<g id="a_edge5_Node000001_Node000005"><a xlink:title=" ">
<path fill="none" stroke="#63b8ff" d="M155.3,-175.77C165.71,-165.13 178.4,-152.16 188.21,-142.13"/>
<polygon fill="#63b8ff" stroke="#63b8ff" points="190.88,-144.42 195.37,-134.82 185.88,-139.52 190.88,-144.42"/>
</a>
</g>
</g>
<!-- Node3 -->
<g id="Node000003" class="node">
<title>Node3</title>
<g id="a_Node000003"><a xlink:title=" ">
<polygon fill="#e0e0e0" stroke="#999999" points="95.5,-19 42.5,-19 42.5,0 95.5,0 95.5,-19"/>
<text text-anchor="middle" x="69" y="-7" font-family="Helvetica,sans-Serif" font-size="10.00">imgui.h</text>
</a>
</g>
</g>
<!-- Node2&#45;&gt;Node3 -->
<g id="edge2_Node000002_Node000003" class="edge">
<title>Node2&#45;&gt;Node3</title>
<g id="a_edge2_Node000002_Node000003"><a xlink:title=" ">
<path fill="none" stroke="#63b8ff" d="M64.38,-109.77C60.42,-95.85 55.68,-74.03 58,-55 59.06,-46.31 61.24,-36.87 63.38,-28.93"/>
<polygon fill="#63b8ff" stroke="#63b8ff" points="66.77,-29.83 66.17,-19.25 60.04,-27.89 66.77,-29.83"/>
</a>
</g>
</g>
<!-- Node4 -->
<g id="Node000004" class="node">
<title>Node4</title>
<g id="a_Node000004"><a xlink:href="drawing_8h.html" target="_top" xlink:title=" ">
<polygon fill="white" stroke="#666666" points="132.5,-74 67.5,-74 67.5,-55 132.5,-55 132.5,-74"/>
<text text-anchor="middle" x="100" y="-62" font-family="Helvetica,sans-Serif" font-size="10.00">drawing.h</text>
</a>
</g>
</g>
<!-- Node2&#45;&gt;Node4 -->
<g id="edge3_Node000002_Node000004" class="edge">
<title>Node2&#45;&gt;Node4</title>
<g id="a_edge3_Node000002_Node000004"><a xlink:title=" ">
<path fill="none" stroke="#63b8ff" d="M76.5,-109.84C80.73,-101.87 86.04,-91.84 90.55,-83.33"/>
<polygon fill="#63b8ff" stroke="#63b8ff" points="93.77,-84.74 95.35,-74.27 87.58,-81.46 93.77,-84.74"/>
</a>
</g>
</g>
<!-- Node4&#45;&gt;Node3 -->
<g id="edge4_Node000004_Node000003" class="edge">
<title>Node4&#45;&gt;Node3</title>
<g id="a_edge4_Node000004_Node000003"><a xlink:title=" ">
<path fill="none" stroke="#63b8ff" d="M94.88,-54.75C90.64,-47.49 84.47,-36.95 79.22,-27.98"/>
<polygon fill="#63b8ff" stroke="#63b8ff" points="82.09,-25.95 74.02,-19.09 76.05,-29.49 82.09,-25.95"/>
</a>
</g>
</g>
</g>
</svg>
