<?xml version="1.0" encoding="UTF-8" standalone="no"?>
<!DOCTYPE svg PUBLIC "-//W3C//DTD SVG 1.1//EN"
 "http://www.w3.org/Graphics/SVG/1.1/DTD/svg11.dtd">
<!-- Generated by graphviz version 2.43.0 (0)
 -->
<!-- Title: src/element_parameters/normal_noise_parameters.cpp Pages: 1 -->
<svg width="645pt" height="335pt"
 viewBox="0.00 0.00 645.00 335.00" xmlns="http://www.w3.org/2000/svg" xmlns:xlink="http://www.w3.org/1999/xlink">
<g id="graph0" class="graph" transform="scale(1 1) rotate(0) translate(4 331)">
<title>src/element_parameters/normal_noise_parameters.cpp</title>
<!-- Node1 -->
<g id="Node000001" class="node">
<title>Node1</title>
<g id="a_Node000001"><a xlink:title=" ">
<polygon fill="#999999" stroke="#666666" points="481.5,-327 314.5,-327 314.5,-297 481.5,-297 481.5,-327"/>
<text text-anchor="start" x="322.5" y="-315" font-family="Helvetica,sans-Serif" font-size="10.00">src/element_parameters</text>
<text text-anchor="middle" x="398" y="-304" font-family="Helvetica,sans-Serif" font-size="10.00">/normal_noise_parameters.cpp</text>
</a>
</g>
</g>
<!-- Node2 -->
<g id="Node000002" class="node">
<title>Node2</title>
<g id="a_Node000002"><a xlink:href="normal__noise__parameters_8h.html" target="_top" xlink:title=" ">
<polygon fill="white" stroke="#666666" points="476,-261 320,-261 320,-231 476,-231 476,-261"/>
<text text-anchor="start" x="328" y="-249" font-family="Helvetica,sans-Serif" font-size="10.00">element_parameters</text>
<text text-anchor="middle" x="398" y="-238" font-family="Helvetica,sans-Serif" font-size="10.00">/normal_noise_parameters.h</text>
</a>
</g>
</g>
<!-- Node1&#45;&gt;Node2 -->
<g id="edge1_Node000001_Node000002" class="edge">
<title>Node1&#45;&gt;Node2</title>
<g id="a_edge1_Node000001_Node000002"><a xlink:title=" ">
<path fill="none" stroke="#63b8ff" d="M398,-296.8C398,-289.34 398,-279.99 398,-271.41"/>
<polygon fill="#63b8ff" stroke="#63b8ff" points="401.5,-271.16 398,-261.16 394.5,-271.16 401.5,-271.16"/>
</a>
</g>
</g>
<!-- Node3 -->
<g id="Node000003" class="node">
<title>Node3</title>
<g id="a_Node000003"><a xlink:href="element__parameters_8h.html" target="_top" xlink:title=" ">
<polygon fill="white" stroke="#666666" points="462,-195 334,-195 334,-176 462,-176 462,-195"/>
<text text-anchor="middle" x="398" y="-183" font-family="Helvetica,sans-Serif" font-size="10.00">element_parameters.h</text>
</a>
</g>
</g>
<!-- Node2&#45;&gt;Node3 -->
<g id="edge2_Node000002_Node000003" class="edge">
<title>Node2&#45;&gt;Node3</title>
<g id="a_edge2_Node000002_Node000003"><a xlink:title=" ">
<path fill="none" stroke="#63b8ff" d="M398,-230.84C398,-223.21 398,-213.7 398,-205.45"/>
<polygon fill="#63b8ff" stroke="#63b8ff" points="401.5,-205.27 398,-195.27 394.5,-205.27 401.5,-205.27"/>
</a>
</g>
</g>
<!-- Node4 -->
<g id="Node000004" class="node">
<title>Node4</title>
<g id="a_Node000004"><a xlink:title=" ">
<polygon fill="#e0e0e0" stroke="#999999" points="293,-140 255,-140 255,-121 293,-121 293,-140"/>
<text text-anchor="middle" x="274" y="-128" font-family="Helvetica,sans-Serif" font-size="10.00">map</text>
</a>
</g>
</g>
<!-- Node3&#45;&gt;Node4 -->
<g id="edge3_Node000003_Node000004" class="edge">
<title>Node3&#45;&gt;Node4</title>
<g id="a_edge3_Node000003_Node000004"><a xlink:title=" ">
<path fill="none" stroke="#63b8ff" d="M378.08,-175.98C357.59,-167.23 325.5,-153.51 302.36,-143.62"/>
<polygon fill="#63b8ff" stroke="#63b8ff" points="303.63,-140.36 293.06,-139.65 300.88,-146.79 303.63,-140.36"/>
</a>
</g>
</g>
<!-- Node5 -->
<g id="Node000005" class="node">
<title>Node5</title>
<g id="a_Node000005"><a xlink:title=" ">
<polygon fill="#e0e0e0" stroke="#999999" points="485,-19 441,-19 441,0 485,0 485,-19"/>
<text text-anchor="middle" x="463" y="-7" font-family="Helvetica,sans-Serif" font-size="10.00">string</text>
</a>
</g>
</g>
<!-- Node3&#45;&gt;Node5 -->
<g id="edge4_Node000003_Node000005" class="edge">
<title>Node3&#45;&gt;Node5</title>
<g id="a_edge4_Node000003_Node000005"><a xlink:title=" ">
<path fill="none" stroke="#63b8ff" d="M401.31,-175.63C411.48,-148.4 442.41,-65.61 456.22,-28.65"/>
<polygon fill="#63b8ff" stroke="#63b8ff" points="459.55,-29.74 459.77,-19.14 452.99,-27.29 459.55,-29.74"/>
</a>
</g>
</g>
<!-- Node6 -->
<g id="Node000006" class="node">
<title>Node6</title>
<g id="a_Node000006"><a xlink:title=" ">
<polygon fill="#e0e0e0" stroke="#999999" points="521,-140 471,-140 471,-121 521,-121 521,-140"/>
<text text-anchor="middle" x="496" y="-128" font-family="Helvetica,sans-Serif" font-size="10.00">format</text>
</a>
</g>
</g>
<!-- Node3&#45;&gt;Node6 -->
<g id="edge5_Node000003_Node000006" class="edge">
<title>Node3&#45;&gt;Node6</title>
<g id="a_edge5_Node000003_Node000006"><a xlink:title=" ">
<path fill="none" stroke="#63b8ff" d="M413.75,-175.98C429.23,-167.61 453.09,-154.7 471.14,-144.95"/>
<polygon fill="#63b8ff" stroke="#63b8ff" points="472.84,-148.01 479.97,-140.17 469.51,-141.85 472.84,-148.01"/>
</a>
</g>
</g>
<!-- Node7 -->
<g id="Node000007" class="node">
<title>Node7</title>
<g id="a_Node000007"><a xlink:href="logger_8h.html" target="_top" xlink:title=" ">
<polygon fill="white" stroke="#666666" points="394.5,-140 311.5,-140 311.5,-121 394.5,-121 394.5,-140"/>
<text text-anchor="middle" x="353" y="-128" font-family="Helvetica,sans-Serif" font-size="10.00">tools/logger.h</text>
</a>
</g>
</g>
<!-- Node3&#45;&gt;Node7 -->
<g id="edge6_Node000003_Node000007" class="edge">
<title>Node3&#45;&gt;Node7</title>
<g id="a_edge6_Node000003_Node000007"><a xlink:title=" ">
<path fill="none" stroke="#63b8ff" d="M390.57,-175.75C384.15,-168.18 374.69,-157.05 366.88,-147.84"/>
<polygon fill="#63b8ff" stroke="#63b8ff" points="369.43,-145.45 360.29,-140.09 364.1,-149.98 369.43,-145.45"/>
</a>
</g>
</g>
<!-- Node7&#45;&gt;Node5 -->
<g id="edge8_Node000007_Node000005" class="edge">
<title>Node7&#45;&gt;Node5</title>
<g id="a_edge8_Node000007_Node000005"><a xlink:title=" ">
<path fill="none" stroke="#63b8ff" d="M360.91,-120.94C379.14,-101.23 424.33,-52.34 448,-26.73"/>
<polygon fill="#63b8ff" stroke="#63b8ff" points="450.65,-29.02 454.86,-19.3 445.51,-24.27 450.65,-29.02"/>
</a>
</g>
</g>
<!-- Node8 -->
<g id="Node000008" class="node">
<title>Node8</title>
<g id="a_Node000008"><a xlink:title=" ">
<polygon fill="#e0e0e0" stroke="#999999" points="112,-79.5 52,-79.5 52,-60.5 112,-60.5 112,-79.5"/>
<text text-anchor="middle" x="82" y="-67.5" font-family="Helvetica,sans-Serif" font-size="10.00">iostream</text>
</a>
</g>
</g>
<!-- Node7&#45;&gt;Node8 -->
<g id="edge7_Node000007_Node000008" class="edge">
<title>Node7&#45;&gt;Node8</title>
<g id="a_edge7_Node000007_Node000008"><a xlink:title=" ">
<path fill="none" stroke="#63b8ff" d="M311.32,-122.31C254.62,-112.38 156.21,-94.63 121,-85 118.57,-84.34 116.08,-83.59 113.58,-82.8"/>
<polygon fill="#63b8ff" stroke="#63b8ff" points="114.68,-79.48 104.08,-79.6 112.44,-86.11 114.68,-79.48"/>
</a>
</g>
</g>
<!-- Node9 -->
<g id="Node000009" class="node">
<title>Node9</title>
<g id="a_Node000009"><a xlink:title=" ">
<polygon fill="#e0e0e0" stroke="#999999" points="50,-19 0,-19 0,0 50,0 50,-19"/>
<text text-anchor="middle" x="25" y="-7" font-family="Helvetica,sans-Serif" font-size="10.00">chrono</text>
</a>
</g>
</g>
<!-- Node7&#45;&gt;Node9 -->
<g id="edge9_Node000007_Node000009" class="edge">
<title>Node7&#45;&gt;Node9</title>
<g id="a_edge9_Node000007_Node000009"><a xlink:title=" ">
<path fill="none" stroke="#63b8ff" d="M311.27,-122.45C308.13,-121.95 305.02,-121.46 302,-121 244.56,-112.22 86.07,-124.01 43,-85 27.69,-71.14 24.33,-46.71 24.05,-29.61"/>
<polygon fill="#63b8ff" stroke="#63b8ff" points="27.56,-29.23 24.25,-19.17 20.56,-29.1 27.56,-29.23"/>
</a>
</g>
</g>
<!-- Node10 -->
<g id="Node000010" class="node">
<title>Node10</title>
<g id="a_Node000010"><a xlink:title=" ">
<polygon fill="#e0e0e0" stroke="#999999" points="186,-79.5 130,-79.5 130,-60.5 186,-60.5 186,-79.5"/>
<text text-anchor="middle" x="158" y="-67.5" font-family="Helvetica,sans-Serif" font-size="10.00">iomanip</text>
</a>
</g>
</g>
<!-- Node7&#45;&gt;Node10 -->
<g id="edge10_Node000007_Node000010" class="edge">
<title>Node7&#45;&gt;Node10</title>
<g id="a_edge10_Node000007_Node000010"><a xlink:title=" ">
<path fill="none" stroke="#63b8ff" d="M319.45,-120.96C287.29,-112.56 237.5,-98.99 195,-85 193.14,-84.39 191.24,-83.74 189.32,-83.07"/>
<polygon fill="#63b8ff" stroke="#63b8ff" points="190.39,-79.73 179.8,-79.61 188,-86.31 190.39,-79.73"/>
</a>
</g>
</g>
<!-- Node11 -->
<g id="Node000011" class="node">
<title>Node11</title>
<g id="a_Node000011"><a xlink:title=" ">
<polygon fill="#e0e0e0" stroke="#999999" points="311.5,-85 204.5,-85 204.5,-55 311.5,-55 311.5,-85"/>
<text text-anchor="start" x="212.5" y="-73" font-family="Helvetica,sans-Serif" font-size="10.00">imgui&#45;platform&#45;kit</text>
<text text-anchor="middle" x="258" y="-62" font-family="Helvetica,sans-Serif" font-size="10.00">/log_window.h</text>
</a>
</g>
</g>
<!-- Node7&#45;&gt;Node11 -->
<g id="edge11_Node000007_Node000011" class="edge">
<title>Node7&#45;&gt;Node11</title>
<g id="a_edge11_Node000007_Node000011"><a xlink:title=" ">
<path fill="none" stroke="#63b8ff" d="M338.98,-120.87C326.09,-112.93 306.51,-100.87 289.83,-90.6"/>
<polygon fill="#63b8ff" stroke="#63b8ff" points="291.27,-87.38 280.92,-85.11 287.6,-93.34 291.27,-87.38"/>
</a>
</g>
</g>
<!-- Node12 -->
<g id="Node000012" class="node">
<title>Node12</title>
<g id="a_Node000012"><a xlink:href="exception_8h.html" target="_top" xlink:title=" ">
<polygon fill="white" stroke="#666666" points="601,-79.5 471,-79.5 471,-60.5 601,-60.5 601,-79.5"/>
<text text-anchor="middle" x="536" y="-67.5" font-family="Helvetica,sans-Serif" font-size="10.00">exceptions/exception.h</text>
</a>
</g>
</g>
<!-- Node7&#45;&gt;Node12 -->
<g id="edge12_Node000007_Node000012" class="edge">
<title>Node7&#45;&gt;Node12</title>
<g id="a_edge12_Node000007_Node000012"><a xlink:title=" ">
<path fill="none" stroke="#63b8ff" d="M379.61,-120.99C411.19,-110.9 464.01,-94.01 499.42,-82.69"/>
<polygon fill="#63b8ff" stroke="#63b8ff" points="500.9,-85.9 509.36,-79.52 498.77,-79.23 500.9,-85.9"/>
</a>
</g>
</g>
<!-- Node15 -->
<g id="Node000015" class="node">
<title>Node15</title>
<g id="a_Node000015"><a xlink:href="utils_8h.html" target="_top" xlink:title=" ">
<polygon fill="white" stroke="#666666" points="376.5,-79.5 329.5,-79.5 329.5,-60.5 376.5,-60.5 376.5,-79.5"/>
<text text-anchor="middle" x="353" y="-67.5" font-family="Helvetica,sans-Serif" font-size="10.00">utils.h</text>
</a>
</g>
</g>
<!-- Node7&#45;&gt;Node15 -->
<g id="edge16_Node000007_Node000015" class="edge">
<title>Node7&#45;&gt;Node15</title>
<g id="a_edge16_Node000007_Node000015"><a xlink:title=" ">
<path fill="none" stroke="#63b8ff" d="M353,-120.87C353,-112.75 353,-100.31 353,-89.89"/>
<polygon fill="#63b8ff" stroke="#63b8ff" points="356.5,-89.67 353,-79.67 349.5,-89.67 356.5,-89.67"/>
</a>
</g>
</g>
<!-- Node12&#45;&gt;Node5 -->
<g id="edge15_Node000012_Node000005" class="edge">
<title>Node12&#45;&gt;Node5</title>
<g id="a_edge15_Node000012_Node000005"><a xlink:title=" ">
<path fill="none" stroke="#63b8ff" d="M525.23,-60.37C513.8,-51.21 495.52,-36.56 481.72,-25.51"/>
<polygon fill="#63b8ff" stroke="#63b8ff" points="483.81,-22.69 473.82,-19.17 479.43,-28.15 483.81,-22.69"/>
</a>
</g>
</g>
<!-- Node13 -->
<g id="Node000013" class="node">
<title>Node13</title>
<g id="a_Node000013"><a xlink:title=" ">
<polygon fill="#e0e0e0" stroke="#999999" points="637,-19 587,-19 587,0 637,0 637,-19"/>
<text text-anchor="middle" x="612" y="-7" font-family="Helvetica,sans-Serif" font-size="10.00">cstdint</text>
</a>
</g>
</g>
<!-- Node12&#45;&gt;Node13 -->
<g id="edge13_Node000012_Node000013" class="edge">
<title>Node12&#45;&gt;Node13</title>
<g id="a_edge13_Node000012_Node000013"><a xlink:title=" ">
<path fill="none" stroke="#63b8ff" d="M547.21,-60.37C559.11,-51.21 578.14,-36.56 592.51,-25.51"/>
<polygon fill="#63b8ff" stroke="#63b8ff" points="594.95,-28.04 600.74,-19.17 590.68,-22.49 594.95,-28.04"/>
</a>
</g>
</g>
<!-- Node14 -->
<g id="Node000014" class="node">
<title>Node14</title>
<g id="a_Node000014"><a xlink:title=" ">
<polygon fill="#e0e0e0" stroke="#999999" points="568.5,-19 503.5,-19 503.5,0 568.5,0 568.5,-19"/>
<text text-anchor="middle" x="536" y="-7" font-family="Helvetica,sans-Serif" font-size="10.00">exception</text>
</a>
</g>
</g>
<!-- Node12&#45;&gt;Node14 -->
<g id="edge14_Node000012_Node000014" class="edge">
<title>Node12&#45;&gt;Node14</title>
<g id="a_edge14_Node000012_Node000014"><a xlink:title=" ">
<path fill="none" stroke="#63b8ff" d="M536,-60.37C536,-52.25 536,-39.81 536,-29.39"/>
<polygon fill="#63b8ff" stroke="#63b8ff" points="539.5,-29.17 536,-19.17 532.5,-29.17 539.5,-29.17"/>
</a>
</g>
</g>
<!-- Node15&#45;&gt;Node5 -->
<g id="edge17_Node000015_Node000005" class="edge">
<title>Node15&#45;&gt;Node5</title>
<g id="a_edge17_Node000015_Node000005"><a xlink:title=" ">
<path fill="none" stroke="#63b8ff" d="M369.23,-60.37C387.27,-50.78 416.62,-35.17 437.68,-23.97"/>
<polygon fill="#63b8ff" stroke="#63b8ff" points="439.52,-26.95 446.7,-19.17 436.23,-20.77 439.52,-26.95"/>
</a>
</g>
</g>
<!-- Node15&#45;&gt;Node9 -->
<g id="edge22_Node000015_Node000009" class="edge">
<title>Node15&#45;&gt;Node9</title>
<g id="a_edge22_Node000015_Node000009"><a xlink:title=" ">
<path fill="none" stroke="#63b8ff" d="M335.15,-60.42C330.32,-58.38 325.04,-56.39 320,-55 207.55,-23.95 174.6,-40.79 60,-19 59.9,-18.98 59.8,-18.96 59.7,-18.94"/>
<polygon fill="#63b8ff" stroke="#63b8ff" points="60.68,-15.57 50.17,-16.93 59.23,-22.42 60.68,-15.57"/>
</a>
</g>
</g>
<!-- Node16 -->
<g id="Node000016" class="node">
<title>Node16</title>
<g id="a_Node000016"><a xlink:title=" ">
<polygon fill="#e0e0e0" stroke="#999999" points="276.5,-19 229.5,-19 229.5,0 276.5,0 276.5,-19"/>
<text text-anchor="middle" x="253" y="-7" font-family="Helvetica,sans-Serif" font-size="10.00">vector</text>
</a>
</g>
</g>
<!-- Node15&#45;&gt;Node16 -->
<g id="edge18_Node000015_Node000016" class="edge">
<title>Node15&#45;&gt;Node16</title>
<g id="a_edge18_Node000015_Node000016"><a xlink:title=" ">
<path fill="none" stroke="#63b8ff" d="M338.24,-60.37C322,-50.86 295.65,-35.45 276.54,-24.27"/>
<polygon fill="#63b8ff" stroke="#63b8ff" points="278.21,-21.2 267.82,-19.17 274.68,-27.24 278.21,-21.2"/>
</a>
</g>
</g>
<!-- Node17 -->
<g id="Node000017" class="node">
<title>Node17</title>
<g id="a_Node000017"><a xlink:title=" ">
<polygon fill="#e0e0e0" stroke="#999999" points="349,-19 295,-19 295,0 349,0 349,-19"/>
<text text-anchor="middle" x="322" y="-7" font-family="Helvetica,sans-Serif" font-size="10.00">random</text>
</a>
</g>
</g>
<!-- Node15&#45;&gt;Node17 -->
<g id="edge19_Node000015_Node000017" class="edge">
<title>Node15&#45;&gt;Node17</title>
<g id="a_edge19_Node000015_Node000017"><a xlink:title=" ">
<path fill="none" stroke="#63b8ff" d="M348.43,-60.37C343.94,-51.9 336.97,-38.74 331.31,-28.07"/>
<polygon fill="#63b8ff" stroke="#63b8ff" points="334.37,-26.36 326.59,-19.17 328.18,-29.64 334.37,-26.36"/>
</a>
</g>
</g>
<!-- Node18 -->
<g id="Node000018" class="node">
<title>Node18</title>
<g id="a_Node000018"><a xlink:title=" ">
<polygon fill="#e0e0e0" stroke="#999999" points="423,-19 367,-19 367,0 423,0 423,-19"/>
<text text-anchor="middle" x="395" y="-7" font-family="Helvetica,sans-Serif" font-size="10.00">sstream</text>
</a>
</g>
</g>
<!-- Node15&#45;&gt;Node18 -->
<g id="edge20_Node000015_Node000018" class="edge">
<title>Node15&#45;&gt;Node18</title>
<g id="a_edge20_Node000015_Node000018"><a xlink:title=" ">
<path fill="none" stroke="#63b8ff" d="M359.2,-60.37C365.4,-51.73 375.11,-38.2 382.86,-27.42"/>
<polygon fill="#63b8ff" stroke="#63b8ff" points="385.79,-29.33 388.78,-19.17 380.1,-25.25 385.79,-29.33"/>
</a>
</g>
</g>
<!-- Node19 -->
<g id="Node000019" class="node">
<title>Node19</title>
<g id="a_Node000019"><a xlink:title=" ">
<polygon fill="#e0e0e0" stroke="#999999" points="124.5,-19 69.5,-19 69.5,0 124.5,0 124.5,-19"/>
<text text-anchor="middle" x="97" y="-7" font-family="Helvetica,sans-Serif" font-size="10.00">fstream</text>
</a>
</g>
</g>
<!-- Node15&#45;&gt;Node19 -->
<g id="edge21_Node000015_Node000019" class="edge">
<title>Node15&#45;&gt;Node19</title>
<g id="a_edge21_Node000015_Node000019"><a xlink:title=" ">
<path fill="none" stroke="#63b8ff" d="M334.75,-60.45C330.02,-58.46 324.88,-56.49 320,-55 242.45,-31.33 218.17,-36.03 134.77,-19.07"/>
<polygon fill="#63b8ff" stroke="#63b8ff" points="135.36,-15.62 124.86,-17.01 133.94,-22.47 135.36,-15.62"/>
</a>
</g>
</g>
<!-- Node20 -->
<g id="Node000020" class="node">
<title>Node20</title>
<g id="a_Node000020"><a xlink:title=" ">
<polygon fill="#e0e0e0" stroke="#999999" points="211,-19 143,-19 143,0 211,0 211,-19"/>
<text text-anchor="middle" x="177" y="-7" font-family="Helvetica,sans-Serif" font-size="10.00">filesystem</text>
</a>
</g>
</g>
<!-- Node15&#45;&gt;Node20 -->
<g id="edge23_Node000015_Node000020" class="edge">
<title>Node15&#45;&gt;Node20</title>
<g id="a_edge23_Node000015_Node000020"><a xlink:title=" ">
<path fill="none" stroke="#63b8ff" d="M333.58,-60.38C329.15,-58.52 324.44,-56.63 320,-55 285.72,-42.43 246.01,-30.26 217.15,-21.83"/>
<polygon fill="#63b8ff" stroke="#63b8ff" points="218,-18.43 207.42,-19.01 216.05,-25.16 218,-18.43"/>
</a>
</g>
</g>
</g>
</svg>
