<?xml version="1.0" encoding="UTF-8" standalone="no"?>
<!DOCTYPE svg PUBLIC "-//W3C//DTD SVG 1.1//EN"
 "http://www.w3.org/Graphics/SVG/1.1/DTD/svg11.dtd">
<!-- Generated by graphviz version 2.43.0 (0)
 -->
<!-- Title: include/elements/normal_noise_2d.h Pages: 1 -->
<svg width="1196pt" height="335pt"
 viewBox="0.00 0.00 1196.00 335.00" xmlns="http://www.w3.org/2000/svg" xmlns:xlink="http://www.w3.org/1999/xlink">
<g id="graph0" class="graph" transform="scale(1 1) rotate(0) translate(4 331)">
<title>include/elements/normal_noise_2d.h</title>
<!-- Node1 -->
<g id="Node000001" class="node">
<title>Node1</title>
<g id="a_Node000001"><a xlink:title=" ">
<polygon fill="#999999" stroke="#666666" points="394,-327 256,-327 256,-297 394,-297 394,-327"/>
<text text-anchor="start" x="264" y="-315" font-family="Helvetica,sans-Serif" font-size="10.00">include/elements/normal</text>
<text text-anchor="middle" x="325" y="-304" font-family="Helvetica,sans-Serif" font-size="10.00">_noise_2d.h</text>
</a>
</g>
</g>
<!-- Node2 -->
<g id="Node000002" class="node">
<title>Node2</title>
<g id="a_Node000002"><a xlink:title=" ">
<polygon fill="#e0e0e0" stroke="#999999" points="75.5,-200.5 28.5,-200.5 28.5,-181.5 75.5,-181.5 75.5,-200.5"/>
<text text-anchor="middle" x="52" y="-188.5" font-family="Helvetica,sans-Serif" font-size="10.00">cmath</text>
</a>
</g>
</g>
<!-- Node1&#45;&gt;Node2 -->
<g id="edge1_Node000001_Node000002" class="edge">
<title>Node1&#45;&gt;Node2</title>
<g id="a_edge1_Node000001_Node000002"><a xlink:title=" ">
<path fill="none" stroke="#63b8ff" d="M292.88,-297C239.25,-273.62 132.31,-227.01 80.9,-204.6"/>
<polygon fill="#63b8ff" stroke="#63b8ff" points="82.25,-201.37 71.68,-200.58 79.45,-207.78 82.25,-201.37"/>
</a>
</g>
</g>
<!-- Node3 -->
<g id="Node000003" class="node">
<title>Node3</title>
<g id="a_Node000003"><a xlink:title=" ">
<polygon fill="#e0e0e0" stroke="#999999" points="154,-19 98,-19 98,0 154,0 154,-19"/>
<text text-anchor="middle" x="126" y="-7" font-family="Helvetica,sans-Serif" font-size="10.00">sstream</text>
</a>
</g>
</g>
<!-- Node1&#45;&gt;Node3 -->
<g id="edge2_Node000001_Node000003" class="edge">
<title>Node1&#45;&gt;Node3</title>
<g id="a_edge2_Node000001_Node000003"><a xlink:title=" ">
<path fill="none" stroke="#63b8ff" d="M255.68,-299.99C160.23,-282.84 0,-246 0,-192 0,-192 0,-192 0,-129.5 0,-77.3 57.87,-41.19 95.17,-23.35"/>
<polygon fill="#63b8ff" stroke="#63b8ff" points="97,-26.36 104.63,-19 94.08,-20 97,-26.36"/>
</a>
</g>
</g>
<!-- Node4 -->
<g id="Node000004" class="node">
<title>Node4</title>
<g id="a_Node000004"><a xlink:title=" ">
<polygon fill="#e0e0e0" stroke="#999999" points="523,-79.5 467,-79.5 467,-60.5 523,-60.5 523,-79.5"/>
<text text-anchor="middle" x="495" y="-67.5" font-family="Helvetica,sans-Serif" font-size="10.00">iomanip</text>
</a>
</g>
</g>
<!-- Node1&#45;&gt;Node4 -->
<g id="edge3_Node000001_Node000004" class="edge">
<title>Node1&#45;&gt;Node4</title>
<g id="a_edge3_Node000001_Node000004"><a xlink:title=" ">
<path fill="none" stroke="#63b8ff" d="M394.17,-303.01C453.58,-292.08 535.82,-266.36 576,-206 604.36,-163.39 547.89,-110.88 515.52,-85.76"/>
<polygon fill="#63b8ff" stroke="#63b8ff" points="517.58,-82.93 507.49,-79.7 513.37,-88.52 517.58,-82.93"/>
</a>
</g>
</g>
<!-- Node5 -->
<g id="Node000005" class="node">
<title>Node5</title>
<g id="a_Node000005"><a xlink:href="math_8h.html" target="_top" xlink:title=" ">
<polygon fill="white" stroke="#666666" points="364,-261 286,-261 286,-242 364,-242 364,-261"/>
<text text-anchor="middle" x="325" y="-249" font-family="Helvetica,sans-Serif" font-size="10.00">tools/math.h</text>
</a>
</g>
</g>
<!-- Node1&#45;&gt;Node5 -->
<g id="edge4_Node000001_Node000005" class="edge">
<title>Node1&#45;&gt;Node5</title>
<g id="a_edge4_Node000001_Node000005"><a xlink:title=" ">
<path fill="none" stroke="#63b8ff" d="M325,-296.84C325,-289.21 325,-279.7 325,-271.45"/>
<polygon fill="#63b8ff" stroke="#63b8ff" points="328.5,-271.27 325,-261.27 321.5,-271.27 328.5,-271.27"/>
</a>
</g>
</g>
<!-- Node14 -->
<g id="Node000014" class="node">
<title>Node14</title>
<g id="a_Node000014"><a xlink:href="element_8h.html" target="_top" xlink:title=" ">
<polygon fill="white" stroke="#666666" points="823,-261 757,-261 757,-242 823,-242 823,-261"/>
<text text-anchor="middle" x="790" y="-249" font-family="Helvetica,sans-Serif" font-size="10.00">element.h</text>
</a>
</g>
</g>
<!-- Node1&#45;&gt;Node14 -->
<g id="edge14_Node000001_Node000014" class="edge">
<title>Node1&#45;&gt;Node14</title>
<g id="a_edge14_Node000001_Node000014"><a xlink:title=" ">
<path fill="none" stroke="#63b8ff" d="M394.11,-302.31C491.33,-290.08 665.6,-268.15 746.52,-257.97"/>
<polygon fill="#63b8ff" stroke="#63b8ff" points="747.35,-261.39 756.83,-256.67 746.48,-254.45 747.35,-261.39"/>
</a>
</g>
</g>
<!-- Node5&#45;&gt;Node2 -->
<g id="edge7_Node000005_Node000002" class="edge">
<title>Node5&#45;&gt;Node2</title>
<g id="a_edge7_Node000005_Node000002"><a xlink:title=" ">
<path fill="none" stroke="#63b8ff" d="M285.72,-245.89C237.67,-239.65 154.19,-226.82 85,-206 83.32,-205.49 81.61,-204.93 79.9,-204.33"/>
<polygon fill="#63b8ff" stroke="#63b8ff" points="80.83,-200.93 70.24,-200.57 78.29,-207.46 80.83,-200.93"/>
</a>
</g>
</g>
<!-- Node6 -->
<g id="Node000006" class="node">
<title>Node6</title>
<g id="a_Node000006"><a xlink:title=" ">
<polygon fill="#e0e0e0" stroke="#999999" points="490.5,-19 443.5,-19 443.5,0 490.5,0 490.5,-19"/>
<text text-anchor="middle" x="467" y="-7" font-family="Helvetica,sans-Serif" font-size="10.00">vector</text>
</a>
</g>
</g>
<!-- Node5&#45;&gt;Node6 -->
<g id="edge5_Node000005_Node000006" class="edge">
<title>Node5&#45;&gt;Node6</title>
<g id="a_edge5_Node000005_Node000006"><a xlink:title=" ">
<path fill="none" stroke="#63b8ff" d="M332.44,-241.7C339.57,-233 350.35,-219.13 358,-206 394.98,-142.57 384.33,-116.13 425,-55 431.96,-44.54 441.44,-34.26 449.64,-26.21"/>
<polygon fill="#63b8ff" stroke="#63b8ff" points="452.13,-28.67 456.98,-19.25 447.32,-23.59 452.13,-28.67"/>
</a>
</g>
</g>
<!-- Node7 -->
<g id="Node000007" class="node">
<title>Node7</title>
<g id="a_Node000007"><a xlink:title=" ">
<polygon fill="#e0e0e0" stroke="#999999" points="136,-200.5 94,-200.5 94,-181.5 136,-181.5 136,-200.5"/>
<text text-anchor="middle" x="115" y="-188.5" font-family="Helvetica,sans-Serif" font-size="10.00">array</text>
</a>
</g>
</g>
<!-- Node5&#45;&gt;Node7 -->
<g id="edge6_Node000005_Node000007" class="edge">
<title>Node5&#45;&gt;Node7</title>
<g id="a_edge6_Node000005_Node000007"><a xlink:title=" ">
<path fill="none" stroke="#63b8ff" d="M285.74,-243.09C248.83,-235.59 192.35,-222.72 145,-206 143.78,-205.57 142.54,-205.11 141.3,-204.62"/>
<polygon fill="#63b8ff" stroke="#63b8ff" points="142.46,-201.31 131.89,-200.58 139.7,-207.74 142.46,-201.31"/>
</a>
</g>
</g>
<!-- Node8 -->
<g id="Node000008" class="node">
<title>Node8</title>
<g id="a_Node000008"><a xlink:title=" ">
<polygon fill="#e0e0e0" stroke="#999999" points="567,-200.5 503,-200.5 503,-181.5 567,-181.5 567,-200.5"/>
<text text-anchor="middle" x="535" y="-188.5" font-family="Helvetica,sans-Serif" font-size="10.00">algorithm</text>
</a>
</g>
</g>
<!-- Node5&#45;&gt;Node8 -->
<g id="edge8_Node000005_Node000008" class="edge">
<title>Node5&#45;&gt;Node8</title>
<g id="a_edge8_Node000005_Node000008"><a xlink:title=" ">
<path fill="none" stroke="#63b8ff" d="M360.49,-241.94C394.83,-233.47 448.25,-219.81 494,-206 496.31,-205.3 498.68,-204.56 501.07,-203.8"/>
<polygon fill="#63b8ff" stroke="#63b8ff" points="502.41,-207.04 510.81,-200.58 500.22,-200.39 502.41,-207.04"/>
</a>
</g>
</g>
<!-- Node9 -->
<g id="Node000009" class="node">
<title>Node9</title>
<g id="a_Node000009"><a xlink:title=" ">
<polygon fill="#e0e0e0" stroke="#999999" points="485,-200.5 429,-200.5 429,-181.5 485,-181.5 485,-200.5"/>
<text text-anchor="middle" x="457" y="-188.5" font-family="Helvetica,sans-Serif" font-size="10.00">numeric</text>
</a>
</g>
</g>
<!-- Node5&#45;&gt;Node9 -->
<g id="edge9_Node000005_Node000009" class="edge">
<title>Node5&#45;&gt;Node9</title>
<g id="a_edge9_Node000005_Node000009"><a xlink:title=" ">
<path fill="none" stroke="#63b8ff" d="M344.19,-241.99C366.39,-232.16 403.12,-215.88 428.62,-204.58"/>
<polygon fill="#63b8ff" stroke="#63b8ff" points="430.06,-207.77 437.78,-200.52 427.22,-201.37 430.06,-207.77"/>
</a>
</g>
</g>
<!-- Node10 -->
<g id="Node000010" class="node">
<title>Node10</title>
<g id="a_Node000010"><a xlink:title=" ">
<polygon fill="#e0e0e0" stroke="#999999" points="219.5,-200.5 154.5,-200.5 154.5,-181.5 219.5,-181.5 219.5,-200.5"/>
<text text-anchor="middle" x="187" y="-188.5" font-family="Helvetica,sans-Serif" font-size="10.00">functional</text>
</a>
</g>
</g>
<!-- Node5&#45;&gt;Node10 -->
<g id="edge10_Node000005_Node000010" class="edge">
<title>Node5&#45;&gt;Node10</title>
<g id="a_edge10_Node000005_Node000010"><a xlink:title=" ">
<path fill="none" stroke="#63b8ff" d="M304.93,-241.99C281.63,-232.12 242.99,-215.73 216.32,-204.43"/>
<polygon fill="#63b8ff" stroke="#63b8ff" points="217.66,-201.2 207.09,-200.52 214.93,-207.64 217.66,-201.2"/>
</a>
</g>
</g>
<!-- Node11 -->
<g id="Node000011" class="node">
<title>Node11</title>
<g id="a_Node000011"><a xlink:title=" ">
<polygon fill="#e0e0e0" stroke="#999999" points="425,-19 371,-19 371,0 425,0 425,-19"/>
<text text-anchor="middle" x="398" y="-7" font-family="Helvetica,sans-Serif" font-size="10.00">random</text>
</a>
</g>
</g>
<!-- Node5&#45;&gt;Node11 -->
<g id="edge11_Node000005_Node000011" class="edge">
<title>Node5&#45;&gt;Node11</title>
<g id="a_edge11_Node000005_Node000011"><a xlink:title=" ">
<path fill="none" stroke="#63b8ff" d="M327.71,-241.98C330.56,-233.03 335.14,-218.54 339,-206 359.07,-140.88 382.26,-63.35 392.57,-28.74"/>
<polygon fill="#63b8ff" stroke="#63b8ff" points="395.95,-29.67 395.45,-19.09 389.24,-27.67 395.95,-29.67"/>
</a>
</g>
</g>
<!-- Node12 -->
<g id="Node000012" class="node">
<title>Node12</title>
<g id="a_Node000012"><a xlink:title=" ">
<polygon fill="#e0e0e0" stroke="#999999" points="296.5,-200.5 237.5,-200.5 237.5,-181.5 296.5,-181.5 296.5,-200.5"/>
<text text-anchor="middle" x="267" y="-188.5" font-family="Helvetica,sans-Serif" font-size="10.00">numbers</text>
</a>
</g>
</g>
<!-- Node5&#45;&gt;Node12 -->
<g id="edge12_Node000005_Node000012" class="edge">
<title>Node5&#45;&gt;Node12</title>
<g id="a_edge12_Node000005_Node000012"><a xlink:title=" ">
<path fill="none" stroke="#63b8ff" d="M316.44,-241.87C307.62,-232.97 293.66,-218.89 282.82,-207.95"/>
<polygon fill="#63b8ff" stroke="#63b8ff" points="285.12,-205.3 275.59,-200.67 280.15,-210.23 285.12,-205.3"/>
</a>
</g>
</g>
<!-- Node13 -->
<g id="Node000013" class="node">
<title>Node13</title>
<g id="a_Node000013"><a xlink:title=" ">
<polygon fill="#e0e0e0" stroke="#999999" points="352.5,-19 297.5,-19 297.5,0 352.5,0 352.5,-19"/>
<text text-anchor="middle" x="325" y="-7" font-family="Helvetica,sans-Serif" font-size="10.00">fstream</text>
</a>
</g>
</g>
<!-- Node5&#45;&gt;Node13 -->
<g id="edge13_Node000005_Node000013" class="edge">
<title>Node5&#45;&gt;Node13</title>
<g id="a_edge13_Node000005_Node000013"><a xlink:title=" ">
<path fill="none" stroke="#63b8ff" d="M325,-241.96C325,-207.48 325,-78.08 325,-29.28"/>
<polygon fill="#63b8ff" stroke="#63b8ff" points="328.5,-29.19 325,-19.19 321.5,-29.19 328.5,-29.19"/>
</a>
</g>
</g>
<!-- Node14&#45;&gt;Node6 -->
<g id="edge15_Node000014_Node000006" class="edge">
<title>Node14&#45;&gt;Node6</title>
<g id="a_edge15_Node000014_Node000006"><a xlink:title=" ">
<path fill="none" stroke="#63b8ff" d="M765.14,-241.96C694.2,-217.03 493.59,-142.5 458,-85 447.43,-67.92 452.86,-44.38 458.85,-28.36"/>
<polygon fill="#63b8ff" stroke="#63b8ff" points="462.11,-29.65 462.7,-19.07 455.64,-26.96 462.11,-29.65"/>
</a>
</g>
</g>
<!-- Node14&#45;&gt;Node8 -->
<g id="edge20_Node000014_Node000008" class="edge">
<title>Node14&#45;&gt;Node8</title>
<g id="a_edge20_Node000014_Node000008"><a xlink:title=" ">
<path fill="none" stroke="#63b8ff" d="M756.92,-242.91C710.91,-232.36 627.56,-213.23 577.14,-201.67"/>
<polygon fill="#63b8ff" stroke="#63b8ff" points="577.74,-198.21 567.21,-199.39 576.18,-205.04 577.74,-198.21"/>
</a>
</g>
</g>
<!-- Node14&#45;&gt;Node9 -->
<g id="edge21_Node000014_Node000009" class="edge">
<title>Node14&#45;&gt;Node9</title>
<g id="a_edge21_Node000014_Node000009"><a xlink:title=" ">
<path fill="none" stroke="#63b8ff" d="M756.69,-247.82C701.4,-242.85 587.52,-230.43 494,-206 491.7,-205.4 489.35,-204.71 487,-203.95"/>
<polygon fill="#63b8ff" stroke="#63b8ff" points="488.09,-200.63 477.49,-200.64 485.78,-207.24 488.09,-200.63"/>
</a>
</g>
</g>
<!-- Node15 -->
<g id="Node000015" class="node">
<title>Node15</title>
<g id="a_Node000015"><a xlink:title=" ">
<polygon fill="#e0e0e0" stroke="#999999" points="919,-19 875,-19 875,0 919,0 919,-19"/>
<text text-anchor="middle" x="897" y="-7" font-family="Helvetica,sans-Serif" font-size="10.00">string</text>
</a>
</g>
</g>
<!-- Node14&#45;&gt;Node15 -->
<g id="edge16_Node000014_Node000015" class="edge">
<title>Node14&#45;&gt;Node15</title>
<g id="a_edge16_Node000014_Node000015"><a xlink:title=" ">
<path fill="none" stroke="#63b8ff" d="M810.68,-241.97C826.86,-234.45 849.03,-222.18 864,-206 886.27,-181.93 885.04,-170.54 897,-140 911.02,-104.21 919.6,-92.87 913,-55 911.43,-46 908.2,-36.42 905.06,-28.46"/>
<polygon fill="#63b8ff" stroke="#63b8ff" points="908.23,-26.97 901.11,-19.12 901.78,-29.69 908.23,-26.97"/>
</a>
</g>
</g>
<!-- Node16 -->
<g id="Node000016" class="node">
<title>Node16</title>
<g id="a_Node000016"><a xlink:title=" ">
<polygon fill="#e0e0e0" stroke="#999999" points="1005.5,-200.5 912.5,-200.5 912.5,-181.5 1005.5,-181.5 1005.5,-200.5"/>
<text text-anchor="middle" x="959" y="-188.5" font-family="Helvetica,sans-Serif" font-size="10.00">unordered_map</text>
</a>
</g>
</g>
<!-- Node14&#45;&gt;Node16 -->
<g id="edge17_Node000014_Node000016" class="edge">
<title>Node14&#45;&gt;Node16</title>
<g id="a_edge17_Node000014_Node000016"><a xlink:title=" ">
<path fill="none" stroke="#63b8ff" d="M814.57,-241.99C843.61,-231.94 892.1,-215.16 924.8,-203.84"/>
<polygon fill="#63b8ff" stroke="#63b8ff" points="926.09,-207.1 934.4,-200.52 923.8,-200.48 926.09,-207.1"/>
</a>
</g>
</g>
<!-- Node17 -->
<g id="Node000017" class="node">
<title>Node17</title>
<g id="a_Node000017"><a xlink:title=" ">
<polygon fill="#e0e0e0" stroke="#999999" points="1120,-200.5 1062,-200.5 1062,-181.5 1120,-181.5 1120,-200.5"/>
<text text-anchor="middle" x="1091" y="-188.5" font-family="Helvetica,sans-Serif" font-size="10.00">memory</text>
</a>
</g>
</g>
<!-- Node14&#45;&gt;Node17 -->
<g id="edge18_Node000014_Node000017" class="edge">
<title>Node14&#45;&gt;Node17</title>
<g id="a_edge18_Node000014_Node000017"><a xlink:title=" ">
<path fill="none" stroke="#63b8ff" d="M823.31,-246.32C872.77,-239.76 968.36,-225.72 1048,-206 1050.95,-205.27 1054,-204.44 1057.04,-203.55"/>
<polygon fill="#63b8ff" stroke="#63b8ff" points="1058.09,-206.89 1066.62,-200.61 1056.03,-200.2 1058.09,-206.89"/>
</a>
</g>
</g>
<!-- Node18 -->
<g id="Node000018" class="node">
<title>Node18</title>
<g id="a_Node000018"><a xlink:title=" ">
<polygon fill="#e0e0e0" stroke="#999999" points="1188,-200.5 1138,-200.5 1138,-181.5 1188,-181.5 1188,-200.5"/>
<text text-anchor="middle" x="1163" y="-188.5" font-family="Helvetica,sans-Serif" font-size="10.00">ranges</text>
</a>
</g>
</g>
<!-- Node14&#45;&gt;Node18 -->
<g id="edge19_Node000014_Node000018" class="edge">
<title>Node14&#45;&gt;Node18</title>
<g id="a_edge19_Node000014_Node000018"><a xlink:title=" ">
<path fill="none" stroke="#63b8ff" d="M823.28,-249C884.66,-245.6 1019.45,-235.21 1129,-206 1130.94,-205.48 1132.92,-204.88 1134.9,-204.22"/>
<polygon fill="#63b8ff" stroke="#63b8ff" points="1136.46,-207.38 1144.6,-200.6 1134,-200.82 1136.46,-207.38"/>
</a>
</g>
</g>
<!-- Node19 -->
<g id="Node000019" class="node">
<title>Node19</title>
<g id="a_Node000019"><a xlink:href="exception_8h.html" target="_top" xlink:title=" ">
<polygon fill="white" stroke="#666666" points="1093,-79.5 963,-79.5 963,-60.5 1093,-60.5 1093,-79.5"/>
<text text-anchor="middle" x="1028" y="-67.5" font-family="Helvetica,sans-Serif" font-size="10.00">exceptions/exception.h</text>
</a>
</g>
</g>
<!-- Node14&#45;&gt;Node19 -->
<g id="edge22_Node000014_Node000019" class="edge">
<title>Node14&#45;&gt;Node19</title>
<g id="a_edge22_Node000014_Node000019"><a xlink:title=" ">
<path fill="none" stroke="#63b8ff" d="M823.43,-248.65C879.73,-244.8 989.81,-233.82 1015,-206 1044.02,-173.95 1038.1,-118.42 1032.43,-89.58"/>
<polygon fill="#63b8ff" stroke="#63b8ff" points="1035.81,-88.66 1030.27,-79.63 1028.97,-90.14 1035.81,-88.66"/>
</a>
</g>
</g>
<!-- Node22 -->
<g id="Node000022" class="node">
<title>Node22</title>
<g id="a_Node000022"><a xlink:href="logger_8h.html" target="_top" xlink:title=" ">
<polygon fill="white" stroke="#666666" points="744.5,-140 661.5,-140 661.5,-121 744.5,-121 744.5,-140"/>
<text text-anchor="middle" x="703" y="-128" font-family="Helvetica,sans-Serif" font-size="10.00">tools/logger.h</text>
</a>
</g>
</g>
<!-- Node14&#45;&gt;Node22 -->
<g id="edge26_Node000014_Node000022" class="edge">
<title>Node14&#45;&gt;Node22</title>
<g id="a_edge26_Node000014_Node000022"><a xlink:title=" ">
<path fill="none" stroke="#63b8ff" d="M764.38,-241.86C747.63,-234.86 726.75,-223.27 715,-206 703.85,-189.61 701.69,-166.58 701.78,-150.47"/>
<polygon fill="#63b8ff" stroke="#63b8ff" points="705.29,-150.29 702.16,-140.17 698.3,-150.03 705.29,-150.29"/>
</a>
</g>
</g>
<!-- Node28 -->
<g id="Node000028" class="node">
<title>Node28</title>
<g id="a_Node000028"><a xlink:href="element__parameters_8h.html" target="_top" xlink:title=" ">
<polygon fill="white" stroke="#666666" points="855.5,-206 724.5,-206 724.5,-176 855.5,-176 855.5,-206"/>
<text text-anchor="start" x="732.5" y="-194" font-family="Helvetica,sans-Serif" font-size="10.00">element_parameters</text>
<text text-anchor="middle" x="790" y="-183" font-family="Helvetica,sans-Serif" font-size="10.00">/element_parameters.h</text>
</a>
</g>
</g>
<!-- Node14&#45;&gt;Node28 -->
<g id="edge41_Node000014_Node000028" class="edge">
<title>Node14&#45;&gt;Node28</title>
<g id="a_edge41_Node000014_Node000028"><a xlink:title=" ">
<path fill="none" stroke="#63b8ff" d="M790,-241.87C790,-235.11 790,-225.35 790,-216.26"/>
<polygon fill="#63b8ff" stroke="#63b8ff" points="793.5,-216.11 790,-206.11 786.5,-216.11 793.5,-216.11"/>
</a>
</g>
</g>
<!-- Node19&#45;&gt;Node15 -->
<g id="edge25_Node000019_Node000015" class="edge">
<title>Node19&#45;&gt;Node15</title>
<g id="a_edge25_Node000019_Node000015"><a xlink:title=" ">
<path fill="none" stroke="#63b8ff" d="M1008.95,-60.49C987.03,-50.7 950.79,-34.52 925.5,-23.23"/>
<polygon fill="#63b8ff" stroke="#63b8ff" points="926.63,-19.9 916.07,-19.02 923.78,-26.29 926.63,-19.9"/>
</a>
</g>
</g>
<!-- Node20 -->
<g id="Node000020" class="node">
<title>Node20</title>
<g id="a_Node000020"><a xlink:title=" ">
<polygon fill="#e0e0e0" stroke="#999999" points="1100,-19 1050,-19 1050,0 1100,0 1100,-19"/>
<text text-anchor="middle" x="1075" y="-7" font-family="Helvetica,sans-Serif" font-size="10.00">cstdint</text>
</a>
</g>
</g>
<!-- Node19&#45;&gt;Node20 -->
<g id="edge23_Node000019_Node000020" class="edge">
<title>Node19&#45;&gt;Node20</title>
<g id="a_edge23_Node000019_Node000020"><a xlink:title=" ">
<path fill="none" stroke="#63b8ff" d="M1034.94,-60.37C1041.95,-51.64 1052.96,-37.93 1061.67,-27.09"/>
<polygon fill="#63b8ff" stroke="#63b8ff" points="1064.5,-29.16 1068.04,-19.17 1059.04,-24.77 1064.5,-29.16"/>
</a>
</g>
</g>
<!-- Node21 -->
<g id="Node000021" class="node">
<title>Node21</title>
<g id="a_Node000021"><a xlink:title=" ">
<polygon fill="#e0e0e0" stroke="#999999" points="1031.5,-19 966.5,-19 966.5,0 1031.5,0 1031.5,-19"/>
<text text-anchor="middle" x="999" y="-7" font-family="Helvetica,sans-Serif" font-size="10.00">exception</text>
</a>
</g>
</g>
<!-- Node19&#45;&gt;Node21 -->
<g id="edge24_Node000019_Node000021" class="edge">
<title>Node19&#45;&gt;Node21</title>
<g id="a_edge24_Node000019_Node000021"><a xlink:title=" ">
<path fill="none" stroke="#63b8ff" d="M1023.72,-60.37C1019.57,-51.99 1013.13,-39.01 1007.87,-28.39"/>
<polygon fill="#63b8ff" stroke="#63b8ff" points="1010.87,-26.57 1003.3,-19.17 1004.6,-29.68 1010.87,-26.57"/>
</a>
</g>
</g>
<!-- Node22&#45;&gt;Node4 -->
<g id="edge30_Node000022_Node000004" class="edge">
<title>Node22&#45;&gt;Node4</title>
<g id="a_edge30_Node000022_Node000004"><a xlink:title=" ">
<path fill="none" stroke="#63b8ff" d="M665.65,-121C630.78,-112.78 577.45,-99.47 532,-85 530.09,-84.39 528.13,-83.74 526.16,-83.06"/>
<polygon fill="#63b8ff" stroke="#63b8ff" points="526.98,-79.64 516.38,-79.54 524.6,-86.22 526.98,-79.64"/>
</a>
</g>
</g>
<!-- Node22&#45;&gt;Node15 -->
<g id="edge28_Node000022_Node000015" class="edge">
<title>Node22&#45;&gt;Node15</title>
<g id="a_edge28_Node000022_Node000015"><a xlink:title=" ">
<path fill="none" stroke="#63b8ff" d="M744.55,-122.56C773.08,-116.27 810.75,-104.86 839,-85 860.3,-70.03 877.49,-44.96 887.48,-28.08"/>
<polygon fill="#63b8ff" stroke="#63b8ff" points="890.61,-29.66 892.5,-19.23 884.52,-26.2 890.61,-29.66"/>
</a>
</g>
</g>
<!-- Node22&#45;&gt;Node19 -->
<g id="edge32_Node000022_Node000019" class="edge">
<title>Node22&#45;&gt;Node19</title>
<g id="a_edge32_Node000022_Node000019"><a xlink:title=" ">
<path fill="none" stroke="#63b8ff" d="M744.82,-121.97C802.27,-111.63 905.81,-92.99 970.51,-81.35"/>
<polygon fill="#63b8ff" stroke="#63b8ff" points="971.32,-84.76 980.54,-79.54 970.08,-77.87 971.32,-84.76"/>
</a>
</g>
</g>
<!-- Node23 -->
<g id="Node000023" class="node">
<title>Node23</title>
<g id="a_Node000023"><a xlink:title=" ">
<polygon fill="#e0e0e0" stroke="#999999" points="667,-79.5 607,-79.5 607,-60.5 667,-60.5 667,-79.5"/>
<text text-anchor="middle" x="637" y="-67.5" font-family="Helvetica,sans-Serif" font-size="10.00">iostream</text>
</a>
</g>
</g>
<!-- Node22&#45;&gt;Node23 -->
<g id="edge27_Node000022_Node000023" class="edge">
<title>Node22&#45;&gt;Node23</title>
<g id="a_edge27_Node000022_Node000023"><a xlink:title=" ">
<path fill="none" stroke="#63b8ff" d="M693.26,-120.87C683.03,-111.8 666.71,-97.34 654.28,-86.32"/>
<polygon fill="#63b8ff" stroke="#63b8ff" points="656.58,-83.68 646.78,-79.67 651.94,-88.92 656.58,-83.68"/>
</a>
</g>
</g>
<!-- Node24 -->
<g id="Node000024" class="node">
<title>Node24</title>
<g id="a_Node000024"><a xlink:title=" ">
<polygon fill="#e0e0e0" stroke="#999999" points="694,-19 644,-19 644,0 694,0 694,-19"/>
<text text-anchor="middle" x="669" y="-7" font-family="Helvetica,sans-Serif" font-size="10.00">chrono</text>
</a>
</g>
</g>
<!-- Node22&#45;&gt;Node24 -->
<g id="edge29_Node000022_Node000024" class="edge">
<title>Node22&#45;&gt;Node24</title>
<g id="a_edge29_Node000022_Node000024"><a xlink:title=" ">
<path fill="none" stroke="#63b8ff" d="M700.55,-120.94C695.09,-101.82 681.79,-55.27 674.32,-29.12"/>
<polygon fill="#63b8ff" stroke="#63b8ff" points="677.63,-27.96 671.51,-19.3 670.9,-29.88 677.63,-27.96"/>
</a>
</g>
</g>
<!-- Node25 -->
<g id="Node000025" class="node">
<title>Node25</title>
<g id="a_Node000025"><a xlink:title=" ">
<polygon fill="#e0e0e0" stroke="#999999" points="830.5,-85 723.5,-85 723.5,-55 830.5,-55 830.5,-85"/>
<text text-anchor="start" x="731.5" y="-73" font-family="Helvetica,sans-Serif" font-size="10.00">imgui&#45;platform&#45;kit</text>
<text text-anchor="middle" x="777" y="-62" font-family="Helvetica,sans-Serif" font-size="10.00">/log_window.h</text>
</a>
</g>
</g>
<!-- Node22&#45;&gt;Node25 -->
<g id="edge31_Node000022_Node000025" class="edge">
<title>Node22&#45;&gt;Node25</title>
<g id="a_edge31_Node000022_Node000025"><a xlink:title=" ">
<path fill="none" stroke="#63b8ff" d="M713.92,-120.87C723.68,-113.15 738.37,-101.54 751.12,-91.46"/>
<polygon fill="#63b8ff" stroke="#63b8ff" points="753.47,-94.06 759.15,-85.11 749.13,-88.57 753.47,-94.06"/>
</a>
</g>
</g>
<!-- Node26 -->
<g id="Node000026" class="node">
<title>Node26</title>
<g id="a_Node000026"><a xlink:href="utils_8h.html" target="_top" xlink:title=" ">
<polygon fill="white" stroke="#666666" points="588.5,-79.5 541.5,-79.5 541.5,-60.5 588.5,-60.5 588.5,-79.5"/>
<text text-anchor="middle" x="565" y="-67.5" font-family="Helvetica,sans-Serif" font-size="10.00">utils.h</text>
</a>
</g>
</g>
<!-- Node22&#45;&gt;Node26 -->
<g id="edge33_Node000022_Node000026" class="edge">
<title>Node22&#45;&gt;Node26</title>
<g id="a_edge33_Node000022_Node000026"><a xlink:title=" ">
<path fill="none" stroke="#63b8ff" d="M682.93,-120.99C659.63,-111.12 620.99,-94.73 594.32,-83.43"/>
<polygon fill="#63b8ff" stroke="#63b8ff" points="595.66,-80.2 585.09,-79.52 592.93,-86.64 595.66,-80.2"/>
</a>
</g>
</g>
<!-- Node26&#45;&gt;Node3 -->
<g id="edge37_Node000026_Node000003" class="edge">
<title>Node26&#45;&gt;Node3</title>
<g id="a_edge37_Node000026_Node000003"><a xlink:title=" ">
<path fill="none" stroke="#63b8ff" d="M547.52,-60.47C542.6,-58.37 537.18,-56.35 532,-55 462.94,-36.98 251.42,-19.78 164.21,-13.26"/>
<polygon fill="#63b8ff" stroke="#63b8ff" points="164.44,-9.77 154.21,-12.52 163.92,-16.75 164.44,-9.77"/>
</a>
</g>
</g>
<!-- Node26&#45;&gt;Node6 -->
<g id="edge35_Node000026_Node000006" class="edge">
<title>Node26&#45;&gt;Node6</title>
<g id="a_edge35_Node000026_Node000006"><a xlink:title=" ">
<path fill="none" stroke="#63b8ff" d="M550.54,-60.37C534.69,-50.91 509.03,-35.59 490.32,-24.42"/>
<polygon fill="#63b8ff" stroke="#63b8ff" points="491.9,-21.29 481.52,-19.17 488.31,-27.3 491.9,-21.29"/>
</a>
</g>
</g>
<!-- Node26&#45;&gt;Node11 -->
<g id="edge36_Node000026_Node000011" class="edge">
<title>Node26&#45;&gt;Node11</title>
<g id="a_edge36_Node000026_Node000011"><a xlink:title=" ">
<path fill="none" stroke="#63b8ff" d="M545.56,-60.45C541.13,-58.58 536.43,-56.67 532,-55 499.56,-42.76 462.07,-30.46 435,-21.9"/>
<polygon fill="#63b8ff" stroke="#63b8ff" points="435.76,-18.47 425.17,-18.82 433.67,-25.15 435.76,-18.47"/>
</a>
</g>
</g>
<!-- Node26&#45;&gt;Node13 -->
<g id="edge38_Node000026_Node000013" class="edge">
<title>Node26&#45;&gt;Node13</title>
<g id="a_edge38_Node000026_Node000013"><a xlink:title=" ">
<path fill="none" stroke="#63b8ff" d="M546.39,-60.37C541.75,-58.42 536.75,-56.49 532,-55 461.35,-32.76 439.22,-35.38 362.96,-19.15"/>
<polygon fill="#63b8ff" stroke="#63b8ff" points="363.38,-15.66 352.87,-16.96 361.9,-22.5 363.38,-15.66"/>
</a>
</g>
</g>
<!-- Node26&#45;&gt;Node15 -->
<g id="edge34_Node000026_Node000015" class="edge">
<title>Node26&#45;&gt;Node15</title>
<g id="a_edge34_Node000026_Node000015"><a xlink:title=" ">
<path fill="none" stroke="#63b8ff" d="M582.86,-60.45C587.69,-58.41 592.97,-56.42 598,-55 692.72,-28.33 809.09,-16.85 864.58,-12.62"/>
<polygon fill="#63b8ff" stroke="#63b8ff" points="865.12,-16.09 874.84,-11.87 864.61,-9.11 865.12,-16.09"/>
</a>
</g>
</g>
<!-- Node26&#45;&gt;Node24 -->
<g id="edge39_Node000026_Node000024" class="edge">
<title>Node26&#45;&gt;Node24</title>
<g id="a_edge39_Node000026_Node000024"><a xlink:title=" ">
<path fill="none" stroke="#63b8ff" d="M580.35,-60.37C597.32,-50.82 624.9,-35.31 644.79,-24.12"/>
<polygon fill="#63b8ff" stroke="#63b8ff" points="646.59,-27.12 653.59,-19.17 643.16,-21.02 646.59,-27.12"/>
</a>
</g>
</g>
<!-- Node27 -->
<g id="Node000027" class="node">
<title>Node27</title>
<g id="a_Node000027"><a xlink:title=" ">
<polygon fill="#e0e0e0" stroke="#999999" points="599,-19 531,-19 531,0 599,0 599,-19"/>
<text text-anchor="middle" x="565" y="-7" font-family="Helvetica,sans-Serif" font-size="10.00">filesystem</text>
</a>
</g>
</g>
<!-- Node26&#45;&gt;Node27 -->
<g id="edge40_Node000026_Node000027" class="edge">
<title>Node26&#45;&gt;Node27</title>
<g id="a_edge40_Node000026_Node000027"><a xlink:title=" ">
<path fill="none" stroke="#63b8ff" d="M565,-60.37C565,-52.25 565,-39.81 565,-29.39"/>
<polygon fill="#63b8ff" stroke="#63b8ff" points="568.5,-29.17 565,-19.17 561.5,-29.17 568.5,-29.17"/>
</a>
</g>
</g>
<!-- Node28&#45;&gt;Node15 -->
<g id="edge43_Node000028_Node000015" class="edge">
<title>Node28&#45;&gt;Node15</title>
<g id="a_edge43_Node000028_Node000015"><a xlink:title=" ">
<path fill="none" stroke="#63b8ff" d="M831.21,-175.97C848.33,-168.05 866.79,-156.39 878,-140 901.01,-106.36 901.1,-56.28 899.1,-29.32"/>
<polygon fill="#63b8ff" stroke="#63b8ff" points="902.58,-28.93 898.17,-19.29 895.61,-29.57 902.58,-28.93"/>
</a>
</g>
</g>
<!-- Node28&#45;&gt;Node22 -->
<g id="edge45_Node000028_Node000022" class="edge">
<title>Node28&#45;&gt;Node22</title>
<g id="a_edge45_Node000028_Node000022"><a xlink:title=" ">
<path fill="none" stroke="#63b8ff" d="M768.94,-175.84C755.46,-166.77 738.01,-155.04 724.45,-145.92"/>
<polygon fill="#63b8ff" stroke="#63b8ff" points="726.03,-142.77 715.78,-140.09 722.13,-148.58 726.03,-142.77"/>
</a>
</g>
</g>
<!-- Node29 -->
<g id="Node000029" class="node">
<title>Node29</title>
<g id="a_Node000029"><a xlink:title=" ">
<polygon fill="#e0e0e0" stroke="#999999" points="801,-140 763,-140 763,-121 801,-121 801,-140"/>
<text text-anchor="middle" x="782" y="-128" font-family="Helvetica,sans-Serif" font-size="10.00">map</text>
</a>
</g>
</g>
<!-- Node28&#45;&gt;Node29 -->
<g id="edge42_Node000028_Node000029" class="edge">
<title>Node28&#45;&gt;Node29</title>
<g id="a_edge42_Node000028_Node000029"><a xlink:title=" ">
<path fill="none" stroke="#63b8ff" d="M788.06,-175.84C787.02,-168.21 785.72,-158.7 784.59,-150.45"/>
<polygon fill="#63b8ff" stroke="#63b8ff" points="788.02,-149.7 783.2,-140.27 781.09,-150.65 788.02,-149.7"/>
</a>
</g>
</g>
<!-- Node30 -->
<g id="Node000030" class="node">
<title>Node30</title>
<g id="a_Node000030"><a xlink:title=" ">
<polygon fill="#e0e0e0" stroke="#999999" points="869,-140 819,-140 819,-121 869,-121 869,-140"/>
<text text-anchor="middle" x="844" y="-128" font-family="Helvetica,sans-Serif" font-size="10.00">format</text>
</a>
</g>
</g>
<!-- Node28&#45;&gt;Node30 -->
<g id="edge44_Node000028_Node000030" class="edge">
<title>Node28&#45;&gt;Node30</title>
<g id="a_edge44_Node000028_Node000030"><a xlink:title=" ">
<path fill="none" stroke="#63b8ff" d="M803.07,-175.84C810.91,-167.35 820.91,-156.52 829.06,-147.69"/>
<polygon fill="#63b8ff" stroke="#63b8ff" points="831.7,-149.99 835.91,-140.27 826.55,-145.24 831.7,-149.99"/>
</a>
</g>
</g>
</g>
</svg>
