<?xml version="1.0" encoding="UTF-8" standalone="no"?>
<!DOCTYPE svg PUBLIC "-//W3C//DTD SVG 1.1//EN"
 "http://www.w3.org/Graphics/SVG/1.1/DTD/svg11.dtd">
<!-- Generated by graphviz version 2.43.0 (0)
 -->
<!-- Title: include/elements/normal_noise_2d.h Pages: 1 -->
<svg width="975pt" height="368pt"
 viewBox="0.00 0.00 974.50 368.00" xmlns="http://www.w3.org/2000/svg" xmlns:xlink="http://www.w3.org/1999/xlink">
<g id="graph0" class="graph" transform="scale(1 1) rotate(0) translate(4 364)">
<title>include/elements/normal_noise_2d.h</title>
<!-- Node1 -->
<g id="Node000001" class="node">
<title>Node1</title>
<g id="a_Node000001"><a xlink:title=" ">
<polygon fill="#999999" stroke="#666666" points="633.5,-360 495.5,-360 495.5,-330 633.5,-330 633.5,-360"/>
<text text-anchor="start" x="503.5" y="-348" font-family="Helvetica,sans-Serif" font-size="10.00">include/elements/normal</text>
<text text-anchor="middle" x="564.5" y="-337" font-family="Helvetica,sans-Serif" font-size="10.00">_noise_2d.h</text>
</a>
</g>
</g>
<!-- Node2 -->
<g id="Node000002" class="node">
<title>Node2</title>
<g id="a_Node000002"><a xlink:href="element__factory_8h.html" target="_top" xlink:title=" ">
<polygon fill="white" stroke="#666666" points="275.5,-294 131.5,-294 131.5,-264 275.5,-264 275.5,-294"/>
<text text-anchor="start" x="139.5" y="-282" font-family="Helvetica,sans-Serif" font-size="10.00">include/elements/element</text>
<text text-anchor="middle" x="203.5" y="-271" font-family="Helvetica,sans-Serif" font-size="10.00">_factory.h</text>
</a>
</g>
</g>
<!-- Node1&#45;&gt;Node2 -->
<g id="edge1_Node000001_Node000002" class="edge">
<title>Node1&#45;&gt;Node2</title>
<g id="a_edge1_Node000001_Node000002"><a xlink:title=" ">
<path fill="none" stroke="#63b8ff" d="M485.11,-329.92C422.56,-318.84 336.1,-303.51 275.53,-292.77"/>
<polygon fill="#63b8ff" stroke="#63b8ff" points="484.87,-333.44 495.32,-331.74 486.09,-326.54 484.87,-333.44"/>
</a>
</g>
</g>
<!-- Node12 -->
<g id="Node000012" class="node">
<title>Node12</title>
<g id="a_Node000012"><a xlink:href="simulation__file__manager_8h.html" target="_top" xlink:title=" ">
<polygon fill="white" stroke="#666666" points="771,-294 622,-294 622,-264 771,-264 771,-294"/>
<text text-anchor="start" x="630" y="-282" font-family="Helvetica,sans-Serif" font-size="10.00">include/simulation</text>
<text text-anchor="middle" x="696.5" y="-271" font-family="Helvetica,sans-Serif" font-size="10.00">/simulation_file_manager.h</text>
</a>
</g>
</g>
<!-- Node1&#45;&gt;Node12 -->
<g id="edge11_Node000001_Node000012" class="edge">
<title>Node1&#45;&gt;Node12</title>
<g id="a_edge11_Node000001_Node000012"><a xlink:title=" ">
<path fill="none" stroke="#63b8ff" d="M602.63,-325.51C623.34,-315.47 648.53,-303.26 667.6,-294.01"/>
<polygon fill="#63b8ff" stroke="#63b8ff" points="600.94,-322.44 593.47,-329.95 603.99,-328.74 600.94,-322.44"/>
</a>
</g>
</g>
<!-- Node15 -->
<g id="Node000015" class="node">
<title>Node15</title>
<g id="a_Node000015"><a xlink:href="element__window_8h.html" target="_top" xlink:title=" ">
<polygon fill="white" stroke="#666666" points="535,-294 410,-294 410,-264 535,-264 535,-294"/>
<text text-anchor="start" x="418" y="-282" font-family="Helvetica,sans-Serif" font-size="10.00">include/user_interface</text>
<text text-anchor="middle" x="472.5" y="-271" font-family="Helvetica,sans-Serif" font-size="10.00">/element_window.h</text>
</a>
</g>
</g>
<!-- Node1&#45;&gt;Node15 -->
<g id="edge14_Node000001_Node000015" class="edge">
<title>Node1&#45;&gt;Node15</title>
<g id="a_edge14_Node000001_Node000015"><a xlink:title=" ">
<path fill="none" stroke="#63b8ff" d="M535.79,-324.03C521.87,-314.34 505.47,-302.94 492.86,-294.16"/>
<polygon fill="#63b8ff" stroke="#63b8ff" points="533.87,-326.96 544.08,-329.8 537.87,-321.21 533.87,-326.96"/>
</a>
</g>
</g>
<!-- Node16 -->
<g id="Node000016" class="node">
<title>Node16</title>
<g id="a_Node000016"><a xlink:href="node__graph__window_8h.html" target="_top" xlink:title=" ">
<polygon fill="white" stroke="#666666" points="628.5,-228 500.5,-228 500.5,-198 628.5,-198 628.5,-228"/>
<text text-anchor="start" x="508.5" y="-216" font-family="Helvetica,sans-Serif" font-size="10.00">include/user_interface</text>
<text text-anchor="middle" x="564.5" y="-205" font-family="Helvetica,sans-Serif" font-size="10.00">/node_graph_window.h</text>
</a>
</g>
</g>
<!-- Node1&#45;&gt;Node16 -->
<g id="edge22_Node000001_Node000016" class="edge">
<title>Node1&#45;&gt;Node16</title>
<g id="a_edge22_Node000001_Node000016"><a xlink:title=" ">
<path fill="none" stroke="#63b8ff" d="M564.5,-319.68C564.5,-292.7 564.5,-250.11 564.5,-228.14"/>
<polygon fill="#63b8ff" stroke="#63b8ff" points="561,-319.84 564.5,-329.84 568,-319.84 561,-319.84"/>
</a>
</g>
</g>
<!-- Node19 -->
<g id="Node000019" class="node">
<title>Node19</title>
<g id="a_Node000019"><a xlink:href="normal__noise__2d_8cpp.html" target="_top" xlink:title=" ">
<polygon fill="white" stroke="#666666" points="906,-294 789,-294 789,-264 906,-264 906,-294"/>
<text text-anchor="start" x="797" y="-282" font-family="Helvetica,sans-Serif" font-size="10.00">src/elements/normal</text>
<text text-anchor="middle" x="847.5" y="-271" font-family="Helvetica,sans-Serif" font-size="10.00">_noise_2d.cpp</text>
</a>
</g>
</g>
<!-- Node1&#45;&gt;Node19 -->
<g id="edge23_Node000001_Node000019" class="edge">
<title>Node1&#45;&gt;Node19</title>
<g id="a_edge23_Node000001_Node000019"><a xlink:title=" ">
<path fill="none" stroke="#63b8ff" d="M636.46,-327.73C683.69,-317.05 744.67,-303.26 788.92,-293.25"/>
<polygon fill="#63b8ff" stroke="#63b8ff" points="635.59,-324.34 626.61,-329.95 637.13,-331.16 635.59,-324.34"/>
</a>
</g>
</g>
<!-- Node3 -->
<g id="Node000003" class="node">
<title>Node3</title>
<g id="a_Node000003"><a xlink:href="simulation__window_8h.html" target="_top" xlink:title=" ">
<polygon fill="white" stroke="#666666" points="266,-228 141,-228 141,-198 266,-198 266,-228"/>
<text text-anchor="start" x="149" y="-216" font-family="Helvetica,sans-Serif" font-size="10.00">include/user_interface</text>
<text text-anchor="middle" x="203.5" y="-205" font-family="Helvetica,sans-Serif" font-size="10.00">/simulation_window.h</text>
</a>
</g>
</g>
<!-- Node2&#45;&gt;Node3 -->
<g id="edge2_Node000002_Node000003" class="edge">
<title>Node2&#45;&gt;Node3</title>
<g id="a_edge2_Node000002_Node000003"><a xlink:title=" ">
<path fill="none" stroke="#63b8ff" d="M203.5,-253.54C203.5,-244.96 203.5,-235.61 203.5,-228.16"/>
<polygon fill="#63b8ff" stroke="#63b8ff" points="200,-253.8 203.5,-263.8 207,-253.8 200,-253.8"/>
</a>
</g>
</g>
<!-- Node11 -->
<g id="Node000011" class="node">
<title>Node11</title>
<g id="a_Node000011"><a xlink:href="element__factory_8cpp.html" target="_top" xlink:title=" ">
<polygon fill="white" stroke="#666666" points="123,-228 0,-228 0,-198 123,-198 123,-228"/>
<text text-anchor="start" x="8" y="-216" font-family="Helvetica,sans-Serif" font-size="10.00">src/elements/element</text>
<text text-anchor="middle" x="61.5" y="-205" font-family="Helvetica,sans-Serif" font-size="10.00">_factory.cpp</text>
</a>
</g>
</g>
<!-- Node2&#45;&gt;Node11 -->
<g id="edge10_Node000002_Node000011" class="edge">
<title>Node2&#45;&gt;Node11</title>
<g id="a_edge10_Node000002_Node000011"><a xlink:title=" ">
<path fill="none" stroke="#63b8ff" d="M163.08,-259.78C140.7,-249.69 113.29,-237.34 92.59,-228.01"/>
<polygon fill="#63b8ff" stroke="#63b8ff" points="161.78,-263.04 172.34,-263.95 164.66,-256.65 161.78,-263.04"/>
</a>
</g>
</g>
<!-- Node4 -->
<g id="Node000004" class="node">
<title>Node4</title>
<g id="a_Node000004"><a xlink:href="dynamic-neural-field-composer-dynamic_8h.html" target="_top" xlink:title=" ">
<polygon fill="white" stroke="#666666" points="412.5,-162 264.5,-162 264.5,-132 412.5,-132 412.5,-162"/>
<text text-anchor="start" x="272.5" y="-150" font-family="Helvetica,sans-Serif" font-size="10.00">include/dynamic&#45;neural</text>
<text text-anchor="middle" x="338.5" y="-139" font-family="Helvetica,sans-Serif" font-size="10.00">&#45;field&#45;composer&#45;dynamic.h</text>
</a>
</g>
</g>
<!-- Node3&#45;&gt;Node4 -->
<g id="edge3_Node000003_Node000004" class="edge">
<title>Node3&#45;&gt;Node4</title>
<g id="a_edge3_Node000003_Node000004"><a xlink:title=" ">
<path fill="none" stroke="#63b8ff" d="M242.21,-193.65C263.44,-183.58 289.35,-171.3 308.94,-162.01"/>
<polygon fill="#63b8ff" stroke="#63b8ff" points="240.66,-190.51 233.13,-197.95 243.66,-196.83 240.66,-190.51"/>
</a>
</g>
</g>
<!-- Node6 -->
<g id="Node000006" class="node">
<title>Node6</title>
<g id="a_Node000006"><a xlink:href="static__layout__window_8h.html" target="_top" xlink:title=" ">
<polygon fill="white" stroke="#666666" points="564.5,-162 430.5,-162 430.5,-132 564.5,-132 564.5,-162"/>
<text text-anchor="start" x="438.5" y="-150" font-family="Helvetica,sans-Serif" font-size="10.00">include/user_interface</text>
<text text-anchor="middle" x="497.5" y="-139" font-family="Helvetica,sans-Serif" font-size="10.00">/static_layout_window.h</text>
</a>
</g>
</g>
<!-- Node3&#45;&gt;Node6 -->
<g id="edge5_Node000003_Node000006" class="edge">
<title>Node3&#45;&gt;Node6</title>
<g id="a_edge5_Node000003_Node000006"><a xlink:title=" ">
<path fill="none" stroke="#63b8ff" d="M276.24,-196.16C324.34,-185.69 386.82,-172.09 433.11,-162.02"/>
<polygon fill="#63b8ff" stroke="#63b8ff" points="275.24,-192.8 266.21,-198.35 276.73,-199.64 275.24,-192.8"/>
</a>
</g>
</g>
<!-- Node10 -->
<g id="Node000010" class="node">
<title>Node10</title>
<g id="a_Node000010"><a xlink:href="simulation__window_8cpp.html" target="_top" xlink:title=" ">
<polygon fill="white" stroke="#666666" points="246.5,-162 112.5,-162 112.5,-132 246.5,-132 246.5,-162"/>
<text text-anchor="start" x="120.5" y="-150" font-family="Helvetica,sans-Serif" font-size="10.00">src/user_interface</text>
<text text-anchor="middle" x="179.5" y="-139" font-family="Helvetica,sans-Serif" font-size="10.00">/simulation_window.cpp</text>
</a>
</g>
</g>
<!-- Node3&#45;&gt;Node10 -->
<g id="edge9_Node000003_Node000010" class="edge">
<title>Node3&#45;&gt;Node10</title>
<g id="a_edge9_Node000003_Node000010"><a xlink:title=" ">
<path fill="none" stroke="#63b8ff" d="M194.65,-188.39C191.34,-179.59 187.7,-169.86 184.81,-162.16"/>
<polygon fill="#63b8ff" stroke="#63b8ff" points="191.39,-189.66 198.17,-197.8 197.94,-187.2 191.39,-189.66"/>
</a>
</g>
</g>
<!-- Node5 -->
<g id="Node000005" class="node">
<title>Node5</title>
<g id="a_Node000005"><a xlink:href="dynamic-neural-field-composer-dynamic_8cpp.html" target="_top" xlink:title=" ">
<polygon fill="white" stroke="#666666" points="413,-96 254,-96 254,-66 413,-66 413,-96"/>
<text text-anchor="start" x="262" y="-84" font-family="Helvetica,sans-Serif" font-size="10.00">src/dynamic&#45;neural</text>
<text text-anchor="middle" x="333.5" y="-73" font-family="Helvetica,sans-Serif" font-size="10.00">&#45;field&#45;composer&#45;dynamic.cpp</text>
</a>
</g>
</g>
<!-- Node4&#45;&gt;Node5 -->
<g id="edge4_Node000004_Node000005" class="edge">
<title>Node4&#45;&gt;Node5</title>
<g id="a_edge4_Node000004_Node000005"><a xlink:title=" ">
<path fill="none" stroke="#63b8ff" d="M336.61,-121.83C335.94,-113.17 335.2,-103.7 334.61,-96.16"/>
<polygon fill="#63b8ff" stroke="#63b8ff" points="333.12,-122.1 337.39,-131.8 340.1,-121.55 333.12,-122.1"/>
</a>
</g>
</g>
<!-- Node7 -->
<g id="Node000007" class="node">
<title>Node7</title>
<g id="a_Node000007"><a xlink:href="dynamic-neural-field-composer-static_8h.html" target="_top" xlink:title=" ">
<polygon fill="white" stroke="#666666" points="564,-96 431,-96 431,-66 564,-66 564,-96"/>
<text text-anchor="start" x="439" y="-84" font-family="Helvetica,sans-Serif" font-size="10.00">include/dynamic&#45;neural</text>
<text text-anchor="middle" x="497.5" y="-73" font-family="Helvetica,sans-Serif" font-size="10.00">&#45;field&#45;composer&#45;static.h</text>
</a>
</g>
</g>
<!-- Node6&#45;&gt;Node7 -->
<g id="edge6_Node000006_Node000007" class="edge">
<title>Node6&#45;&gt;Node7</title>
<g id="a_edge6_Node000006_Node000007"><a xlink:title=" ">
<path fill="none" stroke="#63b8ff" d="M497.5,-121.54C497.5,-112.96 497.5,-103.61 497.5,-96.16"/>
<polygon fill="#63b8ff" stroke="#63b8ff" points="494,-121.8 497.5,-131.8 501,-121.8 494,-121.8"/>
</a>
</g>
</g>
<!-- Node9 -->
<g id="Node000009" class="node">
<title>Node9</title>
<g id="a_Node000009"><a xlink:href="static__layout__window_8cpp.html" target="_top" xlink:title=" ">
<polygon fill="white" stroke="#666666" points="727,-96 582,-96 582,-66 727,-66 727,-96"/>
<text text-anchor="start" x="590" y="-84" font-family="Helvetica,sans-Serif" font-size="10.00">src/user_interface</text>
<text text-anchor="middle" x="654.5" y="-73" font-family="Helvetica,sans-Serif" font-size="10.00">/static_layout_window.cpp</text>
</a>
</g>
</g>
<!-- Node6&#45;&gt;Node9 -->
<g id="edge8_Node000006_Node000009" class="edge">
<title>Node6&#45;&gt;Node9</title>
<g id="a_edge8_Node000006_Node000009"><a xlink:title=" ">
<path fill="none" stroke="#63b8ff" d="M541.52,-128.05C566.4,-117.91 597.03,-105.43 620.13,-96.01"/>
<polygon fill="#63b8ff" stroke="#63b8ff" points="539.89,-124.94 531.95,-131.95 542.54,-131.42 539.89,-124.94"/>
</a>
</g>
</g>
<!-- Node8 -->
<g id="Node000008" class="node">
<title>Node8</title>
<g id="a_Node000008"><a xlink:href="dynamic-neural-field-composer-static_8cpp.html" target="_top" xlink:title=" ">
<polygon fill="white" stroke="#666666" points="569.5,-30 425.5,-30 425.5,0 569.5,0 569.5,-30"/>
<text text-anchor="start" x="433.5" y="-18" font-family="Helvetica,sans-Serif" font-size="10.00">src/dynamic&#45;neural</text>
<text text-anchor="middle" x="497.5" y="-7" font-family="Helvetica,sans-Serif" font-size="10.00">&#45;field&#45;composer&#45;static.cpp</text>
</a>
</g>
</g>
<!-- Node7&#45;&gt;Node8 -->
<g id="edge7_Node000007_Node000008" class="edge">
<title>Node7&#45;&gt;Node8</title>
<g id="a_edge7_Node000007_Node000008"><a xlink:title=" ">
<path fill="none" stroke="#63b8ff" d="M497.5,-55.54C497.5,-46.96 497.5,-37.61 497.5,-30.16"/>
<polygon fill="#63b8ff" stroke="#63b8ff" points="494,-55.8 497.5,-65.8 501,-55.8 494,-55.8"/>
</a>
</g>
</g>
<!-- Node13 -->
<g id="Node000013" class="node">
<title>Node13</title>
<g id="a_Node000013"><a xlink:href="simulation_8cpp.html" target="_top" xlink:title=" ">
<polygon fill="white" stroke="#666666" points="808,-222.5 647,-222.5 647,-203.5 808,-203.5 808,-222.5"/>
<text text-anchor="middle" x="727.5" y="-210.5" font-family="Helvetica,sans-Serif" font-size="10.00">src/simulation/simulation.cpp</text>
</a>
</g>
</g>
<!-- Node12&#45;&gt;Node13 -->
<g id="edge12_Node000012_Node000013" class="edge">
<title>Node12&#45;&gt;Node13</title>
<g id="a_edge12_Node000012_Node000013"><a xlink:title=" ">
<path fill="none" stroke="#63b8ff" d="M707.83,-254.61C713.18,-243.56 719.25,-231.03 723.22,-222.84"/>
<polygon fill="#63b8ff" stroke="#63b8ff" points="704.59,-253.27 703.38,-263.8 710.89,-256.32 704.59,-253.27"/>
</a>
</g>
</g>
<!-- Node14 -->
<g id="Node000014" class="node">
<title>Node14</title>
<g id="a_Node000014"><a xlink:href="simulation__file__manager_8cpp.html" target="_top" xlink:title=" ">
<polygon fill="white" stroke="#666666" points="966.5,-228 826.5,-228 826.5,-198 966.5,-198 966.5,-228"/>
<text text-anchor="start" x="834.5" y="-216" font-family="Helvetica,sans-Serif" font-size="10.00">src/simulation/simulation</text>
<text text-anchor="middle" x="896.5" y="-205" font-family="Helvetica,sans-Serif" font-size="10.00">_file_manager.cpp</text>
</a>
</g>
</g>
<!-- Node12&#45;&gt;Node14 -->
<g id="edge13_Node000012_Node000014" class="edge">
<title>Node12&#45;&gt;Node14</title>
<g id="a_edge13_Node000012_Node000014"><a xlink:title=" ">
<path fill="none" stroke="#63b8ff" d="M750.07,-260.86C782.19,-250.58 822.51,-237.68 852.71,-228.01"/>
<polygon fill="#63b8ff" stroke="#63b8ff" points="748.85,-257.57 740.39,-263.95 750.98,-264.24 748.85,-257.57"/>
</a>
</g>
</g>
<!-- Node15&#45;&gt;Node4 -->
<g id="edge15_Node000015_Node000004" class="edge">
<title>Node15&#45;&gt;Node4</title>
<g id="a_edge15_Node000015_Node000004"><a xlink:title=" ">
<path fill="none" stroke="#63b8ff" d="M459.38,-255.01C448.93,-237.99 433.17,-214.92 415.5,-198 400.65,-183.78 381.21,-171.19 365.59,-162.21"/>
<polygon fill="#63b8ff" stroke="#63b8ff" points="456.48,-256.98 464.61,-263.77 462.48,-253.39 456.48,-256.98"/>
</a>
</g>
</g>
<!-- Node15&#45;&gt;Node6 -->
<g id="edge20_Node000015_Node000006" class="edge">
<title>Node15&#45;&gt;Node6</title>
<g id="a_edge20_Node000015_Node000006"><a xlink:title=" ">
<path fill="none" stroke="#63b8ff" d="M477.18,-253.68C482.36,-226.7 490.56,-184.11 494.78,-162.14"/>
<polygon fill="#63b8ff" stroke="#63b8ff" points="473.67,-253.36 475.22,-263.84 480.55,-254.68 473.67,-253.36"/>
</a>
</g>
</g>
<!-- Node15&#45;&gt;Node16 -->
<g id="edge16_Node000015_Node000016" class="edge">
<title>Node15&#45;&gt;Node16</title>
<g id="a_edge16_Node000015_Node000016"><a xlink:title=" ">
<path fill="none" stroke="#63b8ff" d="M501.21,-258.03C515.13,-248.34 531.53,-236.94 544.14,-228.16"/>
<polygon fill="#63b8ff" stroke="#63b8ff" points="499.13,-255.21 492.92,-263.8 503.13,-260.96 499.13,-255.21"/>
</a>
</g>
</g>
<!-- Node18 -->
<g id="Node000018" class="node">
<title>Node18</title>
<g id="a_Node000018"><a xlink:href="element__window_8cpp.html" target="_top" xlink:title=" ">
<polygon fill="white" stroke="#666666" points="406.5,-228 284.5,-228 284.5,-198 406.5,-198 406.5,-228"/>
<text text-anchor="start" x="292.5" y="-216" font-family="Helvetica,sans-Serif" font-size="10.00">src/user_interface</text>
<text text-anchor="middle" x="345.5" y="-205" font-family="Helvetica,sans-Serif" font-size="10.00">/element_window.cpp</text>
</a>
</g>
</g>
<!-- Node15&#45;&gt;Node18 -->
<g id="edge21_Node000015_Node000018" class="edge">
<title>Node15&#45;&gt;Node18</title>
<g id="a_edge21_Node000015_Node000018"><a xlink:title=" ">
<path fill="none" stroke="#63b8ff" d="M435.55,-259.38C415.67,-249.36 391.57,-237.22 373.31,-228.01"/>
<polygon fill="#63b8ff" stroke="#63b8ff" points="434.12,-262.58 444.63,-263.95 437.27,-256.33 434.12,-262.58"/>
</a>
</g>
</g>
<!-- Node16&#45;&gt;Node4 -->
<g id="edge17_Node000016_Node000004" class="edge">
<title>Node16&#45;&gt;Node4</title>
<g id="a_edge17_Node000016_Node000004"><a xlink:title=" ">
<path fill="none" stroke="#63b8ff" d="M504.9,-195.12C468.46,-184.8 422.4,-171.76 387.98,-162.01"/>
<polygon fill="#63b8ff" stroke="#63b8ff" points="504.33,-198.6 514.9,-197.95 506.24,-191.86 504.33,-198.6"/>
</a>
</g>
</g>
<!-- Node16&#45;&gt;Node6 -->
<g id="edge18_Node000016_Node000006" class="edge">
<title>Node16&#45;&gt;Node6</title>
<g id="a_edge18_Node000016_Node000006"><a xlink:title=" ">
<path fill="none" stroke="#63b8ff" d="M542.15,-190.65C532.33,-181.27 521.08,-170.53 512.33,-162.16"/>
<polygon fill="#63b8ff" stroke="#63b8ff" points="539.98,-193.42 549.63,-197.8 544.82,-188.36 539.98,-193.42"/>
</a>
</g>
</g>
<!-- Node17 -->
<g id="Node000017" class="node">
<title>Node17</title>
<g id="a_Node000017"><a xlink:href="node__graph__window_8cpp.html" target="_top" xlink:title=" ">
<polygon fill="white" stroke="#666666" points="722,-162 583,-162 583,-132 722,-132 722,-162"/>
<text text-anchor="start" x="591" y="-150" font-family="Helvetica,sans-Serif" font-size="10.00">src/user_interface</text>
<text text-anchor="middle" x="652.5" y="-139" font-family="Helvetica,sans-Serif" font-size="10.00">/node_graph_window.cpp</text>
</a>
</g>
</g>
<!-- Node16&#45;&gt;Node17 -->
<g id="edge19_Node000016_Node000017" class="edge">
<title>Node16&#45;&gt;Node17</title>
<g id="a_edge19_Node000016_Node000017"><a xlink:title=" ">
<path fill="none" stroke="#63b8ff" d="M592.34,-191.75C605.57,-182.13 621.07,-170.86 633.02,-162.16"/>
<polygon fill="#63b8ff" stroke="#63b8ff" points="590.06,-189.08 584.03,-197.8 594.18,-194.75 590.06,-189.08"/>
</a>
</g>
</g>
</g>
</svg>
