<?xml version="1.0" encoding="UTF-8" standalone="no"?>
<!DOCTYPE svg PUBLIC "-//W3C//DTD SVG 1.1//EN"
 "http://www.w3.org/Graphics/SVG/1.1/DTD/svg11.dtd">
<!-- Generated by graphviz version 2.43.0 (0)
 -->
<!-- Title: include/element_parameters/normal_noise_parameters.h Pages: 1 -->
<svg width="872pt" height="269pt"
 viewBox="0.00 0.00 871.50 269.00" xmlns="http://www.w3.org/2000/svg" xmlns:xlink="http://www.w3.org/1999/xlink">
<g id="graph0" class="graph" transform="scale(1 1) rotate(0) translate(4 265)">
<title>include/element_parameters/normal_noise_parameters.h</title>
<!-- Node1 -->
<g id="Node000001" class="node">
<title>Node1</title>
<g id="a_Node000001"><a xlink:title=" ">
<polygon fill="#999999" stroke="#666666" points="170.5,-261 13.5,-261 13.5,-231 170.5,-231 170.5,-261"/>
<text text-anchor="start" x="21.5" y="-249" font-family="Helvetica,sans-Serif" font-size="10.00">include/element_parameters</text>
<text text-anchor="middle" x="92" y="-238" font-family="Helvetica,sans-Serif" font-size="10.00">/normal_noise_parameters.h</text>
</a>
</g>
</g>
<!-- Node2 -->
<g id="Node000002" class="node">
<title>Node2</title>
<g id="a_Node000002"><a xlink:href="element__parameters_8h.html" target="_top" xlink:title=" ">
<polygon fill="white" stroke="#666666" points="156,-195 28,-195 28,-176 156,-176 156,-195"/>
<text text-anchor="middle" x="92" y="-183" font-family="Helvetica,sans-Serif" font-size="10.00">element_parameters.h</text>
</a>
</g>
</g>
<!-- Node1&#45;&gt;Node2 -->
<g id="edge1_Node000001_Node000002" class="edge">
<title>Node1&#45;&gt;Node2</title>
<g id="a_edge1_Node000001_Node000002"><a xlink:title=" ">
<path fill="none" stroke="#63b8ff" d="M92,-230.84C92,-223.21 92,-213.7 92,-205.45"/>
<polygon fill="#63b8ff" stroke="#63b8ff" points="95.5,-205.27 92,-195.27 88.5,-205.27 95.5,-205.27"/>
</a>
</g>
</g>
<!-- Node3 -->
<g id="Node000003" class="node">
<title>Node3</title>
<g id="a_Node000003"><a xlink:title=" ">
<polygon fill="#e0e0e0" stroke="#999999" points="38,-140 0,-140 0,-121 38,-121 38,-140"/>
<text text-anchor="middle" x="19" y="-128" font-family="Helvetica,sans-Serif" font-size="10.00">map</text>
</a>
</g>
</g>
<!-- Node2&#45;&gt;Node3 -->
<g id="edge2_Node000002_Node000003" class="edge">
<title>Node2&#45;&gt;Node3</title>
<g id="a_edge2_Node000002_Node000003"><a xlink:title=" ">
<path fill="none" stroke="#63b8ff" d="M80.27,-175.98C69.27,-168 52.58,-155.88 39.4,-146.31"/>
<polygon fill="#63b8ff" stroke="#63b8ff" points="41.09,-143.21 30.94,-140.17 36.98,-148.88 41.09,-143.21"/>
</a>
</g>
</g>
<!-- Node4 -->
<g id="Node000004" class="node">
<title>Node4</title>
<g id="a_Node000004"><a xlink:title=" ">
<polygon fill="#e0e0e0" stroke="#999999" points="339,-19 295,-19 295,0 339,0 339,-19"/>
<text text-anchor="middle" x="317" y="-7" font-family="Helvetica,sans-Serif" font-size="10.00">string</text>
</a>
</g>
</g>
<!-- Node2&#45;&gt;Node4 -->
<g id="edge3_Node000002_Node000004" class="edge">
<title>Node2&#45;&gt;Node4</title>
<g id="a_edge3_Node000002_Node000004"><a xlink:title=" ">
<path fill="none" stroke="#63b8ff" d="M87.92,-175.7C77.99,-152.82 55.45,-90.75 85,-55 109.96,-24.79 226.94,-14.89 284.65,-11.81"/>
<polygon fill="#63b8ff" stroke="#63b8ff" points="284.88,-15.3 294.7,-11.31 284.53,-8.31 284.88,-15.3"/>
</a>
</g>
</g>
<!-- Node5 -->
<g id="Node000005" class="node">
<title>Node5</title>
<g id="a_Node000005"><a xlink:title=" ">
<polygon fill="#e0e0e0" stroke="#999999" points="144,-140 94,-140 94,-121 144,-121 144,-140"/>
<text text-anchor="middle" x="119" y="-128" font-family="Helvetica,sans-Serif" font-size="10.00">format</text>
</a>
</g>
</g>
<!-- Node2&#45;&gt;Node5 -->
<g id="edge4_Node000002_Node000005" class="edge">
<title>Node2&#45;&gt;Node5</title>
<g id="a_edge4_Node000002_Node000005"><a xlink:title=" ">
<path fill="none" stroke="#63b8ff" d="M96.46,-175.75C100.12,-168.57 105.41,-158.18 109.95,-149.27"/>
<polygon fill="#63b8ff" stroke="#63b8ff" points="113.2,-150.59 114.62,-140.09 106.97,-147.41 113.2,-150.59"/>
</a>
</g>
</g>
<!-- Node6 -->
<g id="Node000006" class="node">
<title>Node6</title>
<g id="a_Node000006"><a xlink:href="logger_8h.html" target="_top" xlink:title=" ">
<polygon fill="white" stroke="#666666" points="452.5,-140 369.5,-140 369.5,-121 452.5,-121 452.5,-140"/>
<text text-anchor="middle" x="411" y="-128" font-family="Helvetica,sans-Serif" font-size="10.00">tools/logger.h</text>
</a>
</g>
</g>
<!-- Node2&#45;&gt;Node6 -->
<g id="edge5_Node000002_Node000006" class="edge">
<title>Node2&#45;&gt;Node6</title>
<g id="a_edge5_Node000002_Node000006"><a xlink:title=" ">
<path fill="none" stroke="#63b8ff" d="M143.25,-175.98C202.52,-166.14 299.55,-150.02 359.1,-140.12"/>
<polygon fill="#63b8ff" stroke="#63b8ff" points="359.75,-143.56 369.04,-138.47 358.6,-136.66 359.75,-143.56"/>
</a>
</g>
</g>
<!-- Node6&#45;&gt;Node4 -->
<g id="edge7_Node000006_Node000004" class="edge">
<title>Node6&#45;&gt;Node4</title>
<g id="a_edge7_Node000006_Node000004"><a xlink:title=" ">
<path fill="none" stroke="#63b8ff" d="M417.87,-120.95C428.77,-106.28 447.36,-75.89 433,-55 414.26,-27.73 376.32,-17.17 348.93,-13.07"/>
<polygon fill="#63b8ff" stroke="#63b8ff" points="349.37,-9.6 339.01,-11.8 348.48,-16.55 349.37,-9.6"/>
</a>
</g>
</g>
<!-- Node7 -->
<g id="Node000007" class="node">
<title>Node7</title>
<g id="a_Node000007"><a xlink:title=" ">
<polygon fill="#e0e0e0" stroke="#999999" points="540,-79.5 480,-79.5 480,-60.5 540,-60.5 540,-79.5"/>
<text text-anchor="middle" x="510" y="-67.5" font-family="Helvetica,sans-Serif" font-size="10.00">iostream</text>
</a>
</g>
</g>
<!-- Node6&#45;&gt;Node7 -->
<g id="edge6_Node000006_Node000007" class="edge">
<title>Node6&#45;&gt;Node7</title>
<g id="a_edge6_Node000006_Node000007"><a xlink:title=" ">
<path fill="none" stroke="#63b8ff" d="M425.61,-120.87C441.69,-111.36 467.78,-95.95 486.7,-84.77"/>
<polygon fill="#63b8ff" stroke="#63b8ff" points="488.5,-87.77 495.33,-79.67 484.94,-81.74 488.5,-87.77"/>
</a>
</g>
</g>
<!-- Node8 -->
<g id="Node000008" class="node">
<title>Node8</title>
<g id="a_Node000008"><a xlink:title=" ">
<polygon fill="#e0e0e0" stroke="#999999" points="492,-19 442,-19 442,0 492,0 492,-19"/>
<text text-anchor="middle" x="467" y="-7" font-family="Helvetica,sans-Serif" font-size="10.00">chrono</text>
</a>
</g>
</g>
<!-- Node6&#45;&gt;Node8 -->
<g id="edge8_Node000006_Node000008" class="edge">
<title>Node6&#45;&gt;Node8</title>
<g id="a_edge8_Node000006_Node000008"><a xlink:title=" ">
<path fill="none" stroke="#63b8ff" d="M452.58,-128.47C484.66,-125.22 527.14,-115.01 549,-85 556.85,-74.22 555.82,-66.46 549,-55 538.82,-37.9 519.52,-26.96 502.2,-20.21"/>
<polygon fill="#63b8ff" stroke="#63b8ff" points="502.91,-16.75 492.32,-16.7 500.57,-23.34 502.91,-16.75"/>
</a>
</g>
</g>
<!-- Node9 -->
<g id="Node000009" class="node">
<title>Node9</title>
<g id="a_Node000009"><a xlink:title=" ">
<polygon fill="#e0e0e0" stroke="#999999" points="298,-79.5 242,-79.5 242,-60.5 298,-60.5 298,-79.5"/>
<text text-anchor="middle" x="270" y="-67.5" font-family="Helvetica,sans-Serif" font-size="10.00">iomanip</text>
</a>
</g>
</g>
<!-- Node6&#45;&gt;Node9 -->
<g id="edge9_Node000006_Node000009" class="edge">
<title>Node6&#45;&gt;Node9</title>
<g id="a_edge9_Node000006_Node000009"><a xlink:title=" ">
<path fill="none" stroke="#63b8ff" d="M390.5,-120.99C366.69,-111.12 327.21,-94.73 299.96,-83.43"/>
<polygon fill="#63b8ff" stroke="#63b8ff" points="301.11,-80.12 290.53,-79.52 298.42,-86.58 301.11,-80.12"/>
</a>
</g>
</g>
<!-- Node10 -->
<g id="Node000010" class="node">
<title>Node10</title>
<g id="a_Node000010"><a xlink:title=" ">
<polygon fill="#e0e0e0" stroke="#999999" points="423.5,-85 316.5,-85 316.5,-55 423.5,-55 423.5,-85"/>
<text text-anchor="start" x="324.5" y="-73" font-family="Helvetica,sans-Serif" font-size="10.00">imgui&#45;platform&#45;kit</text>
<text text-anchor="middle" x="370" y="-62" font-family="Helvetica,sans-Serif" font-size="10.00">/log_window.h</text>
</a>
</g>
</g>
<!-- Node6&#45;&gt;Node10 -->
<g id="edge10_Node000006_Node000010" class="edge">
<title>Node6&#45;&gt;Node10</title>
<g id="a_edge10_Node000006_Node000010"><a xlink:title=" ">
<path fill="none" stroke="#63b8ff" d="M404.95,-120.87C399.9,-113.67 392.48,-103.07 385.76,-93.49"/>
<polygon fill="#63b8ff" stroke="#63b8ff" points="388.5,-91.29 379.89,-85.11 382.77,-95.31 388.5,-91.29"/>
</a>
</g>
</g>
<!-- Node11 -->
<g id="Node000011" class="node">
<title>Node11</title>
<g id="a_Node000011"><a xlink:href="exception_8h.html" target="_top" xlink:title=" ">
<polygon fill="white" stroke="#666666" points="224,-79.5 94,-79.5 94,-60.5 224,-60.5 224,-79.5"/>
<text text-anchor="middle" x="159" y="-67.5" font-family="Helvetica,sans-Serif" font-size="10.00">exceptions/exception.h</text>
</a>
</g>
</g>
<!-- Node6&#45;&gt;Node11 -->
<g id="edge11_Node000006_Node000011" class="edge">
<title>Node6&#45;&gt;Node11</title>
<g id="a_edge11_Node000006_Node000011"><a xlink:title=" ">
<path fill="none" stroke="#63b8ff" d="M374.36,-120.99C329.75,-110.64 254.37,-93.14 205.66,-81.83"/>
<polygon fill="#63b8ff" stroke="#63b8ff" points="206.22,-78.37 195.69,-79.52 204.64,-85.19 206.22,-78.37"/>
</a>
</g>
</g>
<!-- Node13 -->
<g id="Node000013" class="node">
<title>Node13</title>
<g id="a_Node000013"><a xlink:href="utils_8h.html" target="_top" xlink:title=" ">
<polygon fill="white" stroke="#666666" points="643.5,-79.5 596.5,-79.5 596.5,-60.5 643.5,-60.5 643.5,-79.5"/>
<text text-anchor="middle" x="620" y="-67.5" font-family="Helvetica,sans-Serif" font-size="10.00">utils.h</text>
</a>
</g>
</g>
<!-- Node6&#45;&gt;Node13 -->
<g id="edge14_Node000006_Node000013" class="edge">
<title>Node6&#45;&gt;Node13</title>
<g id="a_edge14_Node000006_Node000013"><a xlink:title=" ">
<path fill="none" stroke="#63b8ff" d="M447.99,-120.99C482.83,-112.71 536.34,-99.32 582,-85 584.13,-84.33 586.31,-83.62 588.5,-82.87"/>
<polygon fill="#63b8ff" stroke="#63b8ff" points="589.76,-86.14 598.02,-79.51 587.43,-79.54 589.76,-86.14"/>
</a>
</g>
</g>
<!-- Node11&#45;&gt;Node4 -->
<g id="edge13_Node000011_Node000004" class="edge">
<title>Node11&#45;&gt;Node4</title>
<g id="a_edge13_Node000011_Node000004"><a xlink:title=" ">
<path fill="none" stroke="#63b8ff" d="M181.97,-60.49C209.12,-50.44 254.44,-33.66 285.01,-22.34"/>
<polygon fill="#63b8ff" stroke="#63b8ff" points="286.6,-25.49 294.76,-18.73 284.17,-18.92 286.6,-25.49"/>
</a>
</g>
</g>
<!-- Node12 -->
<g id="Node000012" class="node">
<title>Node12</title>
<g id="a_Node000012"><a xlink:title=" ">
<polygon fill="#e0e0e0" stroke="#999999" points="191.5,-19 126.5,-19 126.5,0 191.5,0 191.5,-19"/>
<text text-anchor="middle" x="159" y="-7" font-family="Helvetica,sans-Serif" font-size="10.00">exception</text>
</a>
</g>
</g>
<!-- Node11&#45;&gt;Node12 -->
<g id="edge12_Node000011_Node000012" class="edge">
<title>Node11&#45;&gt;Node12</title>
<g id="a_edge12_Node000011_Node000012"><a xlink:title=" ">
<path fill="none" stroke="#63b8ff" d="M159,-60.37C159,-52.25 159,-39.81 159,-29.39"/>
<polygon fill="#63b8ff" stroke="#63b8ff" points="162.5,-29.17 159,-19.17 155.5,-29.17 162.5,-29.17"/>
</a>
</g>
</g>
<!-- Node13&#45;&gt;Node4 -->
<g id="edge15_Node000013_Node000004" class="edge">
<title>Node13&#45;&gt;Node4</title>
<g id="a_edge15_Node000013_Node000004"><a xlink:title=" ">
<path fill="none" stroke="#63b8ff" d="M596.34,-64.3C582.54,-61.57 564.79,-58.07 549,-55 477.63,-41.12 393.84,-25.12 349.07,-16.6"/>
<polygon fill="#63b8ff" stroke="#63b8ff" points="349.56,-13.13 339.08,-14.7 348.25,-20 349.56,-13.13"/>
</a>
</g>
</g>
<!-- Node13&#45;&gt;Node8 -->
<g id="edge20_Node000013_Node000008" class="edge">
<title>Node13&#45;&gt;Node8</title>
<g id="a_edge20_Node000013_Node000008"><a xlink:title=" ">
<path fill="none" stroke="#63b8ff" d="M597.75,-60.49C571.69,-50.53 528.32,-33.95 498.73,-22.63"/>
<polygon fill="#63b8ff" stroke="#63b8ff" points="499.86,-19.32 489.27,-19.02 497.36,-25.86 499.86,-19.32"/>
</a>
</g>
</g>
<!-- Node14 -->
<g id="Node000014" class="node">
<title>Node14</title>
<g id="a_Node000014"><a xlink:title=" ">
<polygon fill="#e0e0e0" stroke="#999999" points="643.5,-19 596.5,-19 596.5,0 643.5,0 643.5,-19"/>
<text text-anchor="middle" x="620" y="-7" font-family="Helvetica,sans-Serif" font-size="10.00">vector</text>
</a>
</g>
</g>
<!-- Node13&#45;&gt;Node14 -->
<g id="edge16_Node000013_Node000014" class="edge">
<title>Node13&#45;&gt;Node14</title>
<g id="a_edge16_Node000013_Node000014"><a xlink:title=" ">
<path fill="none" stroke="#63b8ff" d="M620,-60.37C620,-52.25 620,-39.81 620,-29.39"/>
<polygon fill="#63b8ff" stroke="#63b8ff" points="623.5,-29.17 620,-19.17 616.5,-29.17 623.5,-29.17"/>
</a>
</g>
</g>
<!-- Node15 -->
<g id="Node000015" class="node">
<title>Node15</title>
<g id="a_Node000015"><a xlink:title=" ">
<polygon fill="#e0e0e0" stroke="#999999" points="716,-19 662,-19 662,0 716,0 716,-19"/>
<text text-anchor="middle" x="689" y="-7" font-family="Helvetica,sans-Serif" font-size="10.00">random</text>
</a>
</g>
</g>
<!-- Node13&#45;&gt;Node15 -->
<g id="edge17_Node000013_Node000015" class="edge">
<title>Node13&#45;&gt;Node15</title>
<g id="a_edge17_Node000013_Node000015"><a xlink:title=" ">
<path fill="none" stroke="#63b8ff" d="M630.18,-60.37C640.88,-51.3 657.94,-36.84 670.93,-25.82"/>
<polygon fill="#63b8ff" stroke="#63b8ff" points="673.41,-28.3 678.78,-19.17 668.89,-22.96 673.41,-28.3"/>
</a>
</g>
</g>
<!-- Node16 -->
<g id="Node000016" class="node">
<title>Node16</title>
<g id="a_Node000016"><a xlink:title=" ">
<polygon fill="#e0e0e0" stroke="#999999" points="790,-19 734,-19 734,0 790,0 790,-19"/>
<text text-anchor="middle" x="762" y="-7" font-family="Helvetica,sans-Serif" font-size="10.00">sstream</text>
</a>
</g>
</g>
<!-- Node13&#45;&gt;Node16 -->
<g id="edge18_Node000013_Node000016" class="edge">
<title>Node13&#45;&gt;Node16</title>
<g id="a_edge18_Node000013_Node000016"><a xlink:title=" ">
<path fill="none" stroke="#63b8ff" d="M640.65,-60.49C664.63,-50.62 704.39,-34.23 731.83,-22.93"/>
<polygon fill="#63b8ff" stroke="#63b8ff" points="733.41,-26.06 741.33,-19.02 730.75,-19.59 733.41,-26.06"/>
</a>
</g>
</g>
<!-- Node17 -->
<g id="Node000017" class="node">
<title>Node17</title>
<g id="a_Node000017"><a xlink:title=" ">
<polygon fill="#e0e0e0" stroke="#999999" points="863.5,-19 808.5,-19 808.5,0 863.5,0 863.5,-19"/>
<text text-anchor="middle" x="836" y="-7" font-family="Helvetica,sans-Serif" font-size="10.00">fstream</text>
</a>
</g>
</g>
<!-- Node13&#45;&gt;Node17 -->
<g id="edge19_Node000013_Node000017" class="edge">
<title>Node13&#45;&gt;Node17</title>
<g id="a_edge19_Node000013_Node000017"><a xlink:title=" ">
<path fill="none" stroke="#63b8ff" d="M643.53,-62.63C680.86,-52.52 753.98,-32.71 798.57,-20.64"/>
<polygon fill="#63b8ff" stroke="#63b8ff" points="799.7,-23.96 808.44,-17.96 797.87,-17.2 799.7,-23.96"/>
</a>
</g>
</g>
<!-- Node18 -->
<g id="Node000018" class="node">
<title>Node18</title>
<g id="a_Node000018"><a xlink:title=" ">
<polygon fill="#e0e0e0" stroke="#999999" points="578,-19 510,-19 510,0 578,0 578,-19"/>
<text text-anchor="middle" x="544" y="-7" font-family="Helvetica,sans-Serif" font-size="10.00">filesystem</text>
</a>
</g>
</g>
<!-- Node13&#45;&gt;Node18 -->
<g id="edge21_Node000013_Node000018" class="edge">
<title>Node13&#45;&gt;Node18</title>
<g id="a_edge21_Node000013_Node000018"><a xlink:title=" ">
<path fill="none" stroke="#63b8ff" d="M608.79,-60.37C596.89,-51.21 577.86,-36.56 563.49,-25.51"/>
<polygon fill="#63b8ff" stroke="#63b8ff" points="565.32,-22.49 555.26,-19.17 561.05,-28.04 565.32,-22.49"/>
</a>
</g>
</g>
</g>
</svg>
