<?xml version="1.0" encoding="UTF-8" standalone="no"?>
<!DOCTYPE svg PUBLIC "-//W3C//DTD SVG 1.1//EN"
 "http://www.w3.org/Graphics/SVG/1.1/DTD/svg11.dtd">
<!-- Generated by graphviz version 2.43.0 (0)
 -->
<!-- Title: src/elements/oscillatory_kernel_2d.cpp Pages: 1 -->
<svg width="1180pt" height="456pt"
 viewBox="0.00 0.00 1180.00 456.00" xmlns="http://www.w3.org/2000/svg" xmlns:xlink="http://www.w3.org/1999/xlink">
<g id="graph0" class="graph" transform="scale(1 1) rotate(0) translate(4 452)">
<title>src/elements/oscillatory_kernel_2d.cpp</title>
<!-- Node1 -->
<g id="Node000001" class="node">
<title>Node1</title>
<g id="a_Node000001"><a xlink:title=" ">
<polygon fill="#999999" stroke="#666666" points="419,-448 285,-448 285,-418 419,-418 419,-448"/>
<text text-anchor="start" x="293" y="-436" font-family="Helvetica,sans-Serif" font-size="10.00">src/elements/oscillatory</text>
<text text-anchor="middle" x="352" y="-425" font-family="Helvetica,sans-Serif" font-size="10.00">_kernel_2d.cpp</text>
</a>
</g>
</g>
<!-- Node2 -->
<g id="Node000002" class="node">
<title>Node2</title>
<g id="a_Node000002"><a xlink:href="oscillatory__kernel__2d_8h.html" target="_top" xlink:title=" ">
<polygon fill="white" stroke="#666666" points="410,-382 294,-382 294,-352 410,-352 410,-382"/>
<text text-anchor="start" x="302" y="-370" font-family="Helvetica,sans-Serif" font-size="10.00">elements/oscillatory</text>
<text text-anchor="middle" x="352" y="-359" font-family="Helvetica,sans-Serif" font-size="10.00">_kernel_2d.h</text>
</a>
</g>
</g>
<!-- Node1&#45;&gt;Node2 -->
<g id="edge1_Node000001_Node000002" class="edge">
<title>Node1&#45;&gt;Node2</title>
<g id="a_edge1_Node000001_Node000002"><a xlink:title=" ">
<path fill="none" stroke="#63b8ff" d="M352,-417.8C352,-410.34 352,-400.99 352,-392.41"/>
<polygon fill="#63b8ff" stroke="#63b8ff" points="355.5,-392.16 352,-382.16 348.5,-392.16 355.5,-392.16"/>
</a>
</g>
</g>
<!-- Node3 -->
<g id="Node000003" class="node">
<title>Node3</title>
<g id="a_Node000003"><a xlink:title=" ">
<polygon fill="#e0e0e0" stroke="#999999" points="84.5,-200.5 37.5,-200.5 37.5,-181.5 84.5,-181.5 84.5,-200.5"/>
<text text-anchor="middle" x="61" y="-188.5" font-family="Helvetica,sans-Serif" font-size="10.00">cmath</text>
</a>
</g>
</g>
<!-- Node2&#45;&gt;Node3 -->
<g id="edge2_Node000002_Node000003" class="edge">
<title>Node2&#45;&gt;Node3</title>
<g id="a_edge2_Node000002_Node000003"><a xlink:title=" ">
<path fill="none" stroke="#63b8ff" d="M328.19,-351.76C273.38,-318.99 138.86,-238.55 84.43,-206.01"/>
<polygon fill="#63b8ff" stroke="#63b8ff" points="85.9,-202.81 75.52,-200.68 82.31,-208.82 85.9,-202.81"/>
</a>
</g>
</g>
<!-- Node4 -->
<g id="Node000004" class="node">
<title>Node4</title>
<g id="a_Node000004"><a xlink:title=" ">
<polygon fill="#e0e0e0" stroke="#999999" points="56,-19 0,-19 0,0 56,0 56,-19"/>
<text text-anchor="middle" x="28" y="-7" font-family="Helvetica,sans-Serif" font-size="10.00">sstream</text>
</a>
</g>
</g>
<!-- Node2&#45;&gt;Node4 -->
<g id="edge3_Node000002_Node000004" class="edge">
<title>Node2&#45;&gt;Node4</title>
<g id="a_edge3_Node000002_Node000004"><a xlink:title=" ">
<path fill="none" stroke="#63b8ff" d="M293.81,-358.93C195.96,-345.39 9,-311.77 9,-252.5 9,-252.5 9,-252.5 9,-129.5 9,-93.54 17.56,-52.23 23.19,-28.96"/>
<polygon fill="#63b8ff" stroke="#63b8ff" points="26.63,-29.64 25.67,-19.09 19.84,-27.93 26.63,-29.64"/>
</a>
</g>
</g>
<!-- Node5 -->
<g id="Node000005" class="node">
<title>Node5</title>
<g id="a_Node000005"><a xlink:title=" ">
<polygon fill="#e0e0e0" stroke="#999999" points="458,-79.5 402,-79.5 402,-60.5 458,-60.5 458,-79.5"/>
<text text-anchor="middle" x="430" y="-67.5" font-family="Helvetica,sans-Serif" font-size="10.00">iomanip</text>
</a>
</g>
</g>
<!-- Node2&#45;&gt;Node5 -->
<g id="edge4_Node000002_Node000005" class="edge">
<title>Node2&#45;&gt;Node5</title>
<g id="a_edge4_Node000002_Node000005"><a xlink:title=" ">
<path fill="none" stroke="#63b8ff" d="M410.28,-354.29C462.2,-340.07 530,-310.41 530,-252.5 530,-252.5 530,-252.5 530,-190 530,-142.8 483.32,-104.55 453.75,-85.05"/>
<polygon fill="#63b8ff" stroke="#63b8ff" points="455.51,-82.02 445.19,-79.61 451.75,-87.93 455.51,-82.02"/>
</a>
</g>
</g>
<!-- Node6 -->
<g id="Node000006" class="node">
<title>Node6</title>
<g id="a_Node000006"><a xlink:title=" ">
<polygon fill="#e0e0e0" stroke="#999999" points="420,-200.5 378,-200.5 378,-181.5 420,-181.5 420,-200.5"/>
<text text-anchor="middle" x="399" y="-188.5" font-family="Helvetica,sans-Serif" font-size="10.00">array</text>
</a>
</g>
</g>
<!-- Node2&#45;&gt;Node6 -->
<g id="edge5_Node000002_Node000006" class="edge">
<title>Node2&#45;&gt;Node6</title>
<g id="a_edge5_Node000002_Node000006"><a xlink:title=" ">
<path fill="none" stroke="#63b8ff" d="M355.85,-351.76C364.31,-320.41 384.56,-245.46 394,-210.52"/>
<polygon fill="#63b8ff" stroke="#63b8ff" points="397.43,-211.25 396.65,-200.68 390.67,-209.43 397.43,-211.25"/>
</a>
</g>
</g>
<!-- Node7 -->
<g id="Node000007" class="node">
<title>Node7</title>
<g id="a_Node000007"><a xlink:href="math_8h.html" target="_top" xlink:title=" ">
<polygon fill="white" stroke="#666666" points="308,-261 230,-261 230,-242 308,-242 308,-261"/>
<text text-anchor="middle" x="269" y="-249" font-family="Helvetica,sans-Serif" font-size="10.00">tools/math.h</text>
</a>
</g>
</g>
<!-- Node2&#45;&gt;Node7 -->
<g id="edge6_Node000002_Node000007" class="edge">
<title>Node2&#45;&gt;Node7</title>
<g id="a_edge6_Node000002_Node000007"><a xlink:title=" ">
<path fill="none" stroke="#63b8ff" d="M341.49,-351.63C326.15,-330.65 297.7,-291.75 281.37,-269.42"/>
<polygon fill="#63b8ff" stroke="#63b8ff" points="284.11,-267.24 275.38,-261.23 278.46,-271.37 284.11,-267.24"/>
</a>
</g>
</g>
<!-- Node15 -->
<g id="Node000015" class="node">
<title>Node15</title>
<g id="a_Node000015"><a xlink:href="kernel_8h.html" target="_top" xlink:title=" ">
<polygon fill="white" stroke="#666666" points="614,-316 558,-316 558,-297 614,-297 614,-316"/>
<text text-anchor="middle" x="586" y="-304" font-family="Helvetica,sans-Serif" font-size="10.00">kernel.h</text>
</a>
</g>
</g>
<!-- Node2&#45;&gt;Node15 -->
<g id="edge16_Node000002_Node000015" class="edge">
<title>Node2&#45;&gt;Node15</title>
<g id="a_edge16_Node000002_Node000015"><a xlink:title=" ">
<path fill="none" stroke="#63b8ff" d="M408.05,-351.99C451.18,-341.2 509.65,-326.59 547.59,-317.1"/>
<polygon fill="#63b8ff" stroke="#63b8ff" points="548.87,-320.39 557.72,-314.57 547.17,-313.6 548.87,-320.39"/>
</a>
</g>
</g>
<!-- Node7&#45;&gt;Node3 -->
<g id="edge9_Node000007_Node000003" class="edge">
<title>Node7&#45;&gt;Node3</title>
<g id="a_edge9_Node000007_Node000003"><a xlink:title=" ">
<path fill="none" stroke="#63b8ff" d="M232.23,-241.97C197.6,-233.67 144.4,-220.27 99,-206 96.87,-205.33 94.69,-204.61 92.5,-203.87"/>
<polygon fill="#63b8ff" stroke="#63b8ff" points="93.57,-200.54 82.98,-200.51 91.24,-207.14 93.57,-200.54"/>
</a>
</g>
</g>
<!-- Node7&#45;&gt;Node6 -->
<g id="edge8_Node000007_Node000006" class="edge">
<title>Node7&#45;&gt;Node6</title>
<g id="a_edge8_Node000007_Node000006"><a xlink:title=" ">
<path fill="none" stroke="#63b8ff" d="M287.98,-241.98C307.92,-233.03 340.17,-218.54 368,-206 368.85,-205.62 369.71,-205.23 370.58,-204.84"/>
<polygon fill="#63b8ff" stroke="#63b8ff" points="372.31,-207.9 379.98,-200.59 369.43,-201.52 372.31,-207.9"/>
</a>
</g>
</g>
<!-- Node8 -->
<g id="Node000008" class="node">
<title>Node8</title>
<g id="a_Node000008"><a xlink:title=" ">
<polygon fill="#e0e0e0" stroke="#999999" points="397.5,-19 350.5,-19 350.5,0 397.5,0 397.5,-19"/>
<text text-anchor="middle" x="374" y="-7" font-family="Helvetica,sans-Serif" font-size="10.00">vector</text>
</a>
</g>
</g>
<!-- Node7&#45;&gt;Node8 -->
<g id="edge7_Node000007_Node000008" class="edge">
<title>Node7&#45;&gt;Node8</title>
<g id="a_edge7_Node000007_Node000008"><a xlink:title=" ">
<path fill="none" stroke="#63b8ff" d="M248.8,-241.91C234.53,-234.64 216.49,-222.71 208,-206 201.96,-194.11 202.89,-188.31 208,-176 237.2,-105.66 312.42,-49.72 350.77,-24.71"/>
<polygon fill="#63b8ff" stroke="#63b8ff" points="353.12,-27.36 359.67,-19.03 349.36,-21.46 353.12,-27.36"/>
</a>
</g>
</g>
<!-- Node9 -->
<g id="Node000009" class="node">
<title>Node9</title>
<g id="a_Node000009"><a xlink:title=" ">
<polygon fill="#e0e0e0" stroke="#999999" points="502,-200.5 438,-200.5 438,-181.5 502,-181.5 502,-200.5"/>
<text text-anchor="middle" x="470" y="-188.5" font-family="Helvetica,sans-Serif" font-size="10.00">algorithm</text>
</a>
</g>
</g>
<!-- Node7&#45;&gt;Node9 -->
<g id="edge10_Node000007_Node000009" class="edge">
<title>Node7&#45;&gt;Node9</title>
<g id="a_edge10_Node000007_Node000009"><a xlink:title=" ">
<path fill="none" stroke="#63b8ff" d="M301.95,-241.93C334.41,-233.35 385.34,-219.51 429,-206 431.3,-205.29 433.67,-204.53 436.06,-203.76"/>
<polygon fill="#63b8ff" stroke="#63b8ff" points="437.41,-207 445.79,-200.52 435.2,-200.36 437.41,-207"/>
</a>
</g>
</g>
<!-- Node10 -->
<g id="Node000010" class="node">
<title>Node10</title>
<g id="a_Node000010"><a xlink:title=" ">
<polygon fill="#e0e0e0" stroke="#999999" points="614,-200.5 558,-200.5 558,-181.5 614,-181.5 614,-200.5"/>
<text text-anchor="middle" x="586" y="-188.5" font-family="Helvetica,sans-Serif" font-size="10.00">numeric</text>
</a>
</g>
</g>
<!-- Node7&#45;&gt;Node10 -->
<g id="edge11_Node000007_Node000010" class="edge">
<title>Node7&#45;&gt;Node10</title>
<g id="a_edge11_Node000007_Node000010"><a xlink:title=" ">
<path fill="none" stroke="#63b8ff" d="M308.41,-243.29C356.31,-234.51 439.59,-219.23 511,-206 522.99,-203.78 536.05,-201.35 547.86,-199.14"/>
<polygon fill="#63b8ff" stroke="#63b8ff" points="548.68,-202.55 557.87,-197.27 547.39,-195.67 548.68,-202.55"/>
</a>
</g>
</g>
<!-- Node11 -->
<g id="Node000011" class="node">
<title>Node11</title>
<g id="a_Node000011"><a xlink:title=" ">
<polygon fill="#e0e0e0" stroke="#999999" points="282.5,-200.5 217.5,-200.5 217.5,-181.5 282.5,-181.5 282.5,-200.5"/>
<text text-anchor="middle" x="250" y="-188.5" font-family="Helvetica,sans-Serif" font-size="10.00">functional</text>
</a>
</g>
</g>
<!-- Node7&#45;&gt;Node11 -->
<g id="edge12_Node000007_Node000011" class="edge">
<title>Node7&#45;&gt;Node11</title>
<g id="a_edge12_Node000007_Node000011"><a xlink:title=" ">
<path fill="none" stroke="#63b8ff" d="M266.2,-241.87C263.5,-233.57 259.35,-220.78 255.92,-210.22"/>
<polygon fill="#63b8ff" stroke="#63b8ff" points="259.23,-209.1 252.82,-200.67 252.58,-211.26 259.23,-209.1"/>
</a>
</g>
</g>
<!-- Node12 -->
<g id="Node000012" class="node">
<title>Node12</title>
<g id="a_Node000012"><a xlink:title=" ">
<polygon fill="#e0e0e0" stroke="#999999" points="203,-19 149,-19 149,0 203,0 203,-19"/>
<text text-anchor="middle" x="176" y="-7" font-family="Helvetica,sans-Serif" font-size="10.00">random</text>
</a>
</g>
</g>
<!-- Node7&#45;&gt;Node12 -->
<g id="edge13_Node000007_Node000012" class="edge">
<title>Node7&#45;&gt;Node12</title>
<g id="a_edge13_Node000007_Node000012"><a xlink:title=" ">
<path fill="none" stroke="#63b8ff" d="M229.79,-244.94C204.96,-239.33 174.2,-228.16 156,-206 113.39,-154.14 133.86,-119.02 154,-55 156.94,-45.65 161.61,-35.82 165.9,-27.79"/>
<polygon fill="#63b8ff" stroke="#63b8ff" points="168.97,-29.47 170.78,-19.03 162.85,-26.06 168.97,-29.47"/>
</a>
</g>
</g>
<!-- Node13 -->
<g id="Node000013" class="node">
<title>Node13</title>
<g id="a_Node000013"><a xlink:title=" ">
<polygon fill="#e0e0e0" stroke="#999999" points="359.5,-200.5 300.5,-200.5 300.5,-181.5 359.5,-181.5 359.5,-200.5"/>
<text text-anchor="middle" x="330" y="-188.5" font-family="Helvetica,sans-Serif" font-size="10.00">numbers</text>
</a>
</g>
</g>
<!-- Node7&#45;&gt;Node13 -->
<g id="edge14_Node000007_Node000013" class="edge">
<title>Node7&#45;&gt;Node13</title>
<g id="a_edge14_Node000007_Node000013"><a xlink:title=" ">
<path fill="none" stroke="#63b8ff" d="M278,-241.87C287.37,-232.88 302.25,-218.61 313.7,-207.64"/>
<polygon fill="#63b8ff" stroke="#63b8ff" points="316.17,-210.12 320.96,-200.67 311.32,-205.06 316.17,-210.12"/>
</a>
</g>
</g>
<!-- Node14 -->
<g id="Node000014" class="node">
<title>Node14</title>
<g id="a_Node000014"><a xlink:title=" ">
<polygon fill="#e0e0e0" stroke="#999999" points="313.5,-19 258.5,-19 258.5,0 313.5,0 313.5,-19"/>
<text text-anchor="middle" x="286" y="-7" font-family="Helvetica,sans-Serif" font-size="10.00">fstream</text>
</a>
</g>
</g>
<!-- Node7&#45;&gt;Node14 -->
<g id="edge15_Node000007_Node000014" class="edge">
<title>Node7&#45;&gt;Node14</title>
<g id="a_edge15_Node000007_Node000014"><a xlink:title=" ">
<path fill="none" stroke="#63b8ff" d="M229.83,-242.45C209.77,-236.13 187.07,-225.07 175,-206 139.11,-149.29 137.4,-110.59 175,-55 191.26,-30.97 222.84,-19.91 248.18,-14.83"/>
<polygon fill="#63b8ff" stroke="#63b8ff" points="249,-18.24 258.23,-13.05 247.78,-11.34 249,-18.24"/>
</a>
</g>
</g>
<!-- Node15&#45;&gt;Node6 -->
<g id="edge49_Node000015_Node000006" class="edge">
<title>Node15&#45;&gt;Node6</title>
<g id="a_edge49_Node000015_Node000006"><a xlink:title=" ">
<path fill="none" stroke="#63b8ff" d="M571.94,-296.97C539.86,-277.5 460.99,-229.63 421.83,-205.86"/>
<polygon fill="#63b8ff" stroke="#63b8ff" points="423.58,-202.83 413.22,-200.63 419.95,-208.81 423.58,-202.83"/>
</a>
</g>
</g>
<!-- Node16 -->
<g id="Node000016" class="node">
<title>Node16</title>
<g id="a_Node000016"><a xlink:href="element_8h.html" target="_top" xlink:title=" ">
<polygon fill="white" stroke="#666666" points="807,-261 741,-261 741,-242 807,-242 807,-261"/>
<text text-anchor="middle" x="774" y="-249" font-family="Helvetica,sans-Serif" font-size="10.00">element.h</text>
</a>
</g>
</g>
<!-- Node15&#45;&gt;Node16 -->
<g id="edge17_Node000015_Node000016" class="edge">
<title>Node15&#45;&gt;Node16</title>
<g id="a_edge17_Node000015_Node000016"><a xlink:title=" ">
<path fill="none" stroke="#63b8ff" d="M614.15,-297.57C645.98,-288.59 698.06,-273.91 734.09,-263.75"/>
<polygon fill="#63b8ff" stroke="#63b8ff" points="735.12,-267.1 743.79,-261.02 733.22,-260.36 735.12,-267.1"/>
</a>
</g>
</g>
<!-- Node16&#45;&gt;Node8 -->
<g id="edge18_Node000016_Node000008" class="edge">
<title>Node16&#45;&gt;Node8</title>
<g id="a_edge18_Node000016_Node000008"><a xlink:title=" ">
<path fill="none" stroke="#63b8ff" d="M749.82,-241.86C727.94,-233.69 695.08,-220.54 668,-206 646.82,-194.63 644.29,-187.15 623,-176 525.61,-125 465.64,-167.51 393,-85 379.38,-69.53 375.28,-45.63 374.17,-29.09"/>
<polygon fill="#63b8ff" stroke="#63b8ff" points="377.66,-28.87 373.8,-19.01 370.67,-29.13 377.66,-28.87"/>
</a>
</g>
</g>
<!-- Node16&#45;&gt;Node9 -->
<g id="edge23_Node000016_Node000009" class="edge">
<title>Node16&#45;&gt;Node9</title>
<g id="a_edge23_Node000016_Node000009"><a xlink:title=" ">
<path fill="none" stroke="#63b8ff" d="M740.89,-244.13C685.32,-233.43 573.38,-211.89 512.24,-200.13"/>
<polygon fill="#63b8ff" stroke="#63b8ff" points="512.63,-196.64 502.15,-198.19 511.31,-203.51 512.63,-196.64"/>
</a>
</g>
</g>
<!-- Node16&#45;&gt;Node10 -->
<g id="edge24_Node000016_Node000010" class="edge">
<title>Node16&#45;&gt;Node10</title>
<g id="a_edge24_Node000016_Node000010"><a xlink:title=" ">
<path fill="none" stroke="#63b8ff" d="M745.12,-241.94C715.62,-233.14 668.52,-218.93 628,-206 625.71,-205.27 623.36,-204.51 620.99,-203.74"/>
<polygon fill="#63b8ff" stroke="#63b8ff" points="621.88,-200.35 611.28,-200.55 619.69,-207 621.88,-200.35"/>
</a>
</g>
</g>
<!-- Node17 -->
<g id="Node000017" class="node">
<title>Node17</title>
<g id="a_Node000017"><a xlink:title=" ">
<polygon fill="#e0e0e0" stroke="#999999" points="854,-19 810,-19 810,0 854,0 854,-19"/>
<text text-anchor="middle" x="832" y="-7" font-family="Helvetica,sans-Serif" font-size="10.00">string</text>
</a>
</g>
</g>
<!-- Node16&#45;&gt;Node17 -->
<g id="edge19_Node000016_Node000017" class="edge">
<title>Node16&#45;&gt;Node17</title>
<g id="a_edge19_Node000016_Node000017"><a xlink:title=" ">
<path fill="none" stroke="#63b8ff" d="M801.65,-241.98C818.58,-235.17 838.89,-223.76 849,-206 881.99,-148.07 854.61,-64.47 839.88,-28.3"/>
<polygon fill="#63b8ff" stroke="#63b8ff" points="843.08,-26.88 835.96,-19.04 836.64,-29.61 843.08,-26.88"/>
</a>
</g>
</g>
<!-- Node18 -->
<g id="Node000018" class="node">
<title>Node18</title>
<g id="a_Node000018"><a xlink:title=" ">
<polygon fill="#e0e0e0" stroke="#999999" points="989.5,-200.5 896.5,-200.5 896.5,-181.5 989.5,-181.5 989.5,-200.5"/>
<text text-anchor="middle" x="943" y="-188.5" font-family="Helvetica,sans-Serif" font-size="10.00">unordered_map</text>
</a>
</g>
</g>
<!-- Node16&#45;&gt;Node18 -->
<g id="edge20_Node000016_Node000018" class="edge">
<title>Node16&#45;&gt;Node18</title>
<g id="a_edge20_Node000016_Node000018"><a xlink:title=" ">
<path fill="none" stroke="#63b8ff" d="M798.57,-241.99C827.61,-231.94 876.1,-215.16 908.8,-203.84"/>
<polygon fill="#63b8ff" stroke="#63b8ff" points="910.09,-207.1 918.4,-200.52 907.8,-200.48 910.09,-207.1"/>
</a>
</g>
</g>
<!-- Node19 -->
<g id="Node000019" class="node">
<title>Node19</title>
<g id="a_Node000019"><a xlink:title=" ">
<polygon fill="#e0e0e0" stroke="#999999" points="1104,-200.5 1046,-200.5 1046,-181.5 1104,-181.5 1104,-200.5"/>
<text text-anchor="middle" x="1075" y="-188.5" font-family="Helvetica,sans-Serif" font-size="10.00">memory</text>
</a>
</g>
</g>
<!-- Node16&#45;&gt;Node19 -->
<g id="edge21_Node000016_Node000019" class="edge">
<title>Node16&#45;&gt;Node19</title>
<g id="a_edge21_Node000016_Node000019"><a xlink:title=" ">
<path fill="none" stroke="#63b8ff" d="M807.31,-246.32C856.77,-239.76 952.36,-225.72 1032,-206 1034.95,-205.27 1038,-204.44 1041.04,-203.55"/>
<polygon fill="#63b8ff" stroke="#63b8ff" points="1042.09,-206.89 1050.62,-200.61 1040.03,-200.2 1042.09,-206.89"/>
</a>
</g>
</g>
<!-- Node20 -->
<g id="Node000020" class="node">
<title>Node20</title>
<g id="a_Node000020"><a xlink:title=" ">
<polygon fill="#e0e0e0" stroke="#999999" points="1172,-200.5 1122,-200.5 1122,-181.5 1172,-181.5 1172,-200.5"/>
<text text-anchor="middle" x="1147" y="-188.5" font-family="Helvetica,sans-Serif" font-size="10.00">ranges</text>
</a>
</g>
</g>
<!-- Node16&#45;&gt;Node20 -->
<g id="edge22_Node000016_Node000020" class="edge">
<title>Node16&#45;&gt;Node20</title>
<g id="a_edge22_Node000016_Node000020"><a xlink:title=" ">
<path fill="none" stroke="#63b8ff" d="M807.28,-249C868.66,-245.6 1003.45,-235.21 1113,-206 1114.94,-205.48 1116.92,-204.88 1118.9,-204.22"/>
<polygon fill="#63b8ff" stroke="#63b8ff" points="1120.46,-207.38 1128.6,-200.6 1118,-200.82 1120.46,-207.38"/>
</a>
</g>
</g>
<!-- Node21 -->
<g id="Node000021" class="node">
<title>Node21</title>
<g id="a_Node000021"><a xlink:href="exception_8h.html" target="_top" xlink:title=" ">
<polygon fill="white" stroke="#666666" points="1028,-79.5 898,-79.5 898,-60.5 1028,-60.5 1028,-79.5"/>
<text text-anchor="middle" x="963" y="-67.5" font-family="Helvetica,sans-Serif" font-size="10.00">exceptions/exception.h</text>
</a>
</g>
</g>
<!-- Node16&#45;&gt;Node21 -->
<g id="edge25_Node000016_Node000021" class="edge">
<title>Node16&#45;&gt;Node21</title>
<g id="a_edge25_Node000016_Node000021"><a xlink:title=" ">
<path fill="none" stroke="#63b8ff" d="M807.26,-248.93C863.86,-245.47 975.11,-235.07 999,-206 1027.64,-171.14 995.67,-115.68 976.03,-87.95"/>
<polygon fill="#63b8ff" stroke="#63b8ff" points="978.7,-85.67 969.96,-79.68 973.06,-89.81 978.7,-85.67"/>
</a>
</g>
</g>
<!-- Node24 -->
<g id="Node000024" class="node">
<title>Node24</title>
<g id="a_Node000024"><a xlink:href="logger_8h.html" target="_top" xlink:title=" ">
<polygon fill="white" stroke="#666666" points="679.5,-140 596.5,-140 596.5,-121 679.5,-121 679.5,-140"/>
<text text-anchor="middle" x="638" y="-128" font-family="Helvetica,sans-Serif" font-size="10.00">tools/logger.h</text>
</a>
</g>
</g>
<!-- Node16&#45;&gt;Node24 -->
<g id="edge29_Node000016_Node000024" class="edge">
<title>Node16&#45;&gt;Node24</title>
<g id="a_edge29_Node000016_Node000024"><a xlink:title=" ">
<path fill="none" stroke="#63b8ff" d="M756.16,-241.94C740.44,-233.91 717.41,-220.93 700,-206 679.93,-188.78 661.14,-164.63 649.61,-148.54"/>
<polygon fill="#63b8ff" stroke="#63b8ff" points="652.32,-146.3 643.72,-140.12 646.58,-150.32 652.32,-146.3"/>
</a>
</g>
</g>
<!-- Node30 -->
<g id="Node000030" class="node">
<title>Node30</title>
<g id="a_Node000030"><a xlink:href="element__parameters_8h.html" target="_top" xlink:title=" ">
<polygon fill="white" stroke="#666666" points="839.5,-206 708.5,-206 708.5,-176 839.5,-176 839.5,-206"/>
<text text-anchor="start" x="716.5" y="-194" font-family="Helvetica,sans-Serif" font-size="10.00">element_parameters</text>
<text text-anchor="middle" x="774" y="-183" font-family="Helvetica,sans-Serif" font-size="10.00">/element_parameters.h</text>
</a>
</g>
</g>
<!-- Node16&#45;&gt;Node30 -->
<g id="edge44_Node000016_Node000030" class="edge">
<title>Node16&#45;&gt;Node30</title>
<g id="a_edge44_Node000016_Node000030"><a xlink:title=" ">
<path fill="none" stroke="#63b8ff" d="M774,-241.87C774,-235.11 774,-225.35 774,-216.26"/>
<polygon fill="#63b8ff" stroke="#63b8ff" points="777.5,-216.11 774,-206.11 770.5,-216.11 777.5,-216.11"/>
</a>
</g>
</g>
<!-- Node21&#45;&gt;Node17 -->
<g id="edge28_Node000021_Node000017" class="edge">
<title>Node21&#45;&gt;Node17</title>
<g id="a_edge28_Node000021_Node000017"><a xlink:title=" ">
<path fill="none" stroke="#63b8ff" d="M943.95,-60.49C922.03,-50.7 885.79,-34.52 860.5,-23.23"/>
<polygon fill="#63b8ff" stroke="#63b8ff" points="861.63,-19.9 851.07,-19.02 858.78,-26.29 861.63,-19.9"/>
</a>
</g>
</g>
<!-- Node22 -->
<g id="Node000022" class="node">
<title>Node22</title>
<g id="a_Node000022"><a xlink:title=" ">
<polygon fill="#e0e0e0" stroke="#999999" points="1035,-19 985,-19 985,0 1035,0 1035,-19"/>
<text text-anchor="middle" x="1010" y="-7" font-family="Helvetica,sans-Serif" font-size="10.00">cstdint</text>
</a>
</g>
</g>
<!-- Node21&#45;&gt;Node22 -->
<g id="edge26_Node000021_Node000022" class="edge">
<title>Node21&#45;&gt;Node22</title>
<g id="a_edge26_Node000021_Node000022"><a xlink:title=" ">
<path fill="none" stroke="#63b8ff" d="M969.94,-60.37C976.95,-51.64 987.96,-37.93 996.67,-27.09"/>
<polygon fill="#63b8ff" stroke="#63b8ff" points="999.5,-29.16 1003.04,-19.17 994.04,-24.77 999.5,-29.16"/>
</a>
</g>
</g>
<!-- Node23 -->
<g id="Node000023" class="node">
<title>Node23</title>
<g id="a_Node000023"><a xlink:title=" ">
<polygon fill="#e0e0e0" stroke="#999999" points="966.5,-19 901.5,-19 901.5,0 966.5,0 966.5,-19"/>
<text text-anchor="middle" x="934" y="-7" font-family="Helvetica,sans-Serif" font-size="10.00">exception</text>
</a>
</g>
</g>
<!-- Node21&#45;&gt;Node23 -->
<g id="edge27_Node000021_Node000023" class="edge">
<title>Node21&#45;&gt;Node23</title>
<g id="a_edge27_Node000021_Node000023"><a xlink:title=" ">
<path fill="none" stroke="#63b8ff" d="M958.72,-60.37C954.57,-51.99 948.13,-39.01 942.87,-28.39"/>
<polygon fill="#63b8ff" stroke="#63b8ff" points="945.87,-26.57 938.3,-19.17 939.6,-29.68 945.87,-26.57"/>
</a>
</g>
</g>
<!-- Node24&#45;&gt;Node5 -->
<g id="edge33_Node000024_Node000005" class="edge">
<title>Node24&#45;&gt;Node5</title>
<g id="a_edge33_Node000024_Node000005"><a xlink:title=" ">
<path fill="none" stroke="#63b8ff" d="M600.65,-121C565.78,-112.78 512.45,-99.47 467,-85 465.09,-84.39 463.13,-83.74 461.16,-83.06"/>
<polygon fill="#63b8ff" stroke="#63b8ff" points="461.98,-79.64 451.38,-79.54 459.6,-86.22 461.98,-79.64"/>
</a>
</g>
</g>
<!-- Node24&#45;&gt;Node17 -->
<g id="edge31_Node000024_Node000017" class="edge">
<title>Node24&#45;&gt;Node17</title>
<g id="a_edge31_Node000024_Node000017"><a xlink:title=" ">
<path fill="none" stroke="#63b8ff" d="M679.6,-122.76C708.4,-116.56 746.52,-105.15 775,-85 796.11,-70.06 812.97,-44.98 822.72,-28.09"/>
<polygon fill="#63b8ff" stroke="#63b8ff" points="825.84,-29.68 827.62,-19.24 819.72,-26.29 825.84,-29.68"/>
</a>
</g>
</g>
<!-- Node24&#45;&gt;Node21 -->
<g id="edge35_Node000024_Node000021" class="edge">
<title>Node24&#45;&gt;Node21</title>
<g id="a_edge35_Node000024_Node000021"><a xlink:title=" ">
<path fill="none" stroke="#63b8ff" d="M679.82,-121.97C737.27,-111.63 840.81,-92.99 905.51,-81.35"/>
<polygon fill="#63b8ff" stroke="#63b8ff" points="906.32,-84.76 915.54,-79.54 905.08,-77.87 906.32,-84.76"/>
</a>
</g>
</g>
<!-- Node25 -->
<g id="Node000025" class="node">
<title>Node25</title>
<g id="a_Node000025"><a xlink:title=" ">
<polygon fill="#e0e0e0" stroke="#999999" points="602,-79.5 542,-79.5 542,-60.5 602,-60.5 602,-79.5"/>
<text text-anchor="middle" x="572" y="-67.5" font-family="Helvetica,sans-Serif" font-size="10.00">iostream</text>
</a>
</g>
</g>
<!-- Node24&#45;&gt;Node25 -->
<g id="edge30_Node000024_Node000025" class="edge">
<title>Node24&#45;&gt;Node25</title>
<g id="a_edge30_Node000024_Node000025"><a xlink:title=" ">
<path fill="none" stroke="#63b8ff" d="M628.26,-120.87C618.03,-111.8 601.71,-97.34 589.28,-86.32"/>
<polygon fill="#63b8ff" stroke="#63b8ff" points="591.58,-83.68 581.78,-79.67 586.94,-88.92 591.58,-83.68"/>
</a>
</g>
</g>
<!-- Node26 -->
<g id="Node000026" class="node">
<title>Node26</title>
<g id="a_Node000026"><a xlink:title=" ">
<polygon fill="#e0e0e0" stroke="#999999" points="629,-19 579,-19 579,0 629,0 629,-19"/>
<text text-anchor="middle" x="604" y="-7" font-family="Helvetica,sans-Serif" font-size="10.00">chrono</text>
</a>
</g>
</g>
<!-- Node24&#45;&gt;Node26 -->
<g id="edge32_Node000024_Node000026" class="edge">
<title>Node24&#45;&gt;Node26</title>
<g id="a_edge32_Node000024_Node000026"><a xlink:title=" ">
<path fill="none" stroke="#63b8ff" d="M635.55,-120.94C630.09,-101.82 616.79,-55.27 609.32,-29.12"/>
<polygon fill="#63b8ff" stroke="#63b8ff" points="612.63,-27.96 606.51,-19.3 605.9,-29.88 612.63,-27.96"/>
</a>
</g>
</g>
<!-- Node27 -->
<g id="Node000027" class="node">
<title>Node27</title>
<g id="a_Node000027"><a xlink:title=" ">
<polygon fill="#e0e0e0" stroke="#999999" points="765.5,-85 658.5,-85 658.5,-55 765.5,-55 765.5,-85"/>
<text text-anchor="start" x="666.5" y="-73" font-family="Helvetica,sans-Serif" font-size="10.00">imgui&#45;platform&#45;kit</text>
<text text-anchor="middle" x="712" y="-62" font-family="Helvetica,sans-Serif" font-size="10.00">/log_window.h</text>
</a>
</g>
</g>
<!-- Node24&#45;&gt;Node27 -->
<g id="edge34_Node000024_Node000027" class="edge">
<title>Node24&#45;&gt;Node27</title>
<g id="a_edge34_Node000024_Node000027"><a xlink:title=" ">
<path fill="none" stroke="#63b8ff" d="M648.92,-120.87C658.68,-113.15 673.37,-101.54 686.12,-91.46"/>
<polygon fill="#63b8ff" stroke="#63b8ff" points="688.47,-94.06 694.15,-85.11 684.13,-88.57 688.47,-94.06"/>
</a>
</g>
</g>
<!-- Node28 -->
<g id="Node000028" class="node">
<title>Node28</title>
<g id="a_Node000028"><a xlink:href="utils_8h.html" target="_top" xlink:title=" ">
<polygon fill="white" stroke="#666666" points="523.5,-79.5 476.5,-79.5 476.5,-60.5 523.5,-60.5 523.5,-79.5"/>
<text text-anchor="middle" x="500" y="-67.5" font-family="Helvetica,sans-Serif" font-size="10.00">utils.h</text>
</a>
</g>
</g>
<!-- Node24&#45;&gt;Node28 -->
<g id="edge36_Node000024_Node000028" class="edge">
<title>Node24&#45;&gt;Node28</title>
<g id="a_edge36_Node000024_Node000028"><a xlink:title=" ">
<path fill="none" stroke="#63b8ff" d="M617.93,-120.99C594.63,-111.12 555.99,-94.73 529.32,-83.43"/>
<polygon fill="#63b8ff" stroke="#63b8ff" points="530.66,-80.2 520.09,-79.52 527.93,-86.64 530.66,-80.2"/>
</a>
</g>
</g>
<!-- Node28&#45;&gt;Node4 -->
<g id="edge40_Node000028_Node000004" class="edge">
<title>Node28&#45;&gt;Node4</title>
<g id="a_edge40_Node000028_Node000004"><a xlink:title=" ">
<path fill="none" stroke="#63b8ff" d="M482.53,-60.44C477.61,-58.35 472.18,-56.33 467,-55 428.65,-45.16 165.99,-22.2 66.28,-13.72"/>
<polygon fill="#63b8ff" stroke="#63b8ff" points="66.31,-10.21 56.05,-12.85 65.72,-17.18 66.31,-10.21"/>
</a>
</g>
</g>
<!-- Node28&#45;&gt;Node8 -->
<g id="edge38_Node000028_Node000008" class="edge">
<title>Node28&#45;&gt;Node8</title>
<g id="a_edge38_Node000028_Node000008"><a xlink:title=" ">
<path fill="none" stroke="#63b8ff" d="M481.68,-60.49C460.59,-50.7 425.74,-34.52 401.42,-23.23"/>
<polygon fill="#63b8ff" stroke="#63b8ff" points="402.89,-20.05 392.34,-19.02 399.94,-26.4 402.89,-20.05"/>
</a>
</g>
</g>
<!-- Node28&#45;&gt;Node12 -->
<g id="edge39_Node000028_Node000012" class="edge">
<title>Node28&#45;&gt;Node12</title>
<g id="a_edge39_Node000028_Node000012"><a xlink:title=" ">
<path fill="none" stroke="#63b8ff" d="M482.14,-60.47C477.31,-58.42 472.03,-56.43 467,-55 419.98,-41.66 280.78,-23.41 213.39,-15.04"/>
<polygon fill="#63b8ff" stroke="#63b8ff" points="213.57,-11.53 203.22,-13.78 212.71,-18.48 213.57,-11.53"/>
</a>
</g>
</g>
<!-- Node28&#45;&gt;Node14 -->
<g id="edge41_Node000028_Node000014" class="edge">
<title>Node28&#45;&gt;Node14</title>
<g id="a_edge41_Node000028_Node000014"><a xlink:title=" ">
<path fill="none" stroke="#63b8ff" d="M481.35,-60.48C476.72,-58.53 471.72,-56.57 467,-55 418.31,-38.8 360.48,-25.59 323.52,-17.89"/>
<polygon fill="#63b8ff" stroke="#63b8ff" points="324.18,-14.45 313.68,-15.86 322.77,-21.31 324.18,-14.45"/>
</a>
</g>
</g>
<!-- Node28&#45;&gt;Node17 -->
<g id="edge37_Node000028_Node000017" class="edge">
<title>Node28&#45;&gt;Node17</title>
<g id="a_edge37_Node000028_Node000017"><a xlink:title=" ">
<path fill="none" stroke="#63b8ff" d="M517.86,-60.45C522.69,-58.41 527.97,-56.42 533,-55 627.72,-28.33 744.09,-16.85 799.58,-12.62"/>
<polygon fill="#63b8ff" stroke="#63b8ff" points="800.12,-16.09 809.84,-11.87 799.61,-9.11 800.12,-16.09"/>
</a>
</g>
</g>
<!-- Node28&#45;&gt;Node26 -->
<g id="edge42_Node000028_Node000026" class="edge">
<title>Node28&#45;&gt;Node26</title>
<g id="a_edge42_Node000028_Node000026"><a xlink:title=" ">
<path fill="none" stroke="#63b8ff" d="M515.35,-60.37C532.32,-50.82 559.9,-35.31 579.79,-24.12"/>
<polygon fill="#63b8ff" stroke="#63b8ff" points="581.59,-27.12 588.59,-19.17 578.16,-21.02 581.59,-27.12"/>
</a>
</g>
</g>
<!-- Node29 -->
<g id="Node000029" class="node">
<title>Node29</title>
<g id="a_Node000029"><a xlink:title=" ">
<polygon fill="#e0e0e0" stroke="#999999" points="534,-19 466,-19 466,0 534,0 534,-19"/>
<text text-anchor="middle" x="500" y="-7" font-family="Helvetica,sans-Serif" font-size="10.00">filesystem</text>
</a>
</g>
</g>
<!-- Node28&#45;&gt;Node29 -->
<g id="edge43_Node000028_Node000029" class="edge">
<title>Node28&#45;&gt;Node29</title>
<g id="a_edge43_Node000028_Node000029"><a xlink:title=" ">
<path fill="none" stroke="#63b8ff" d="M500,-60.37C500,-52.25 500,-39.81 500,-29.39"/>
<polygon fill="#63b8ff" stroke="#63b8ff" points="503.5,-29.17 500,-19.17 496.5,-29.17 503.5,-29.17"/>
</a>
</g>
</g>
<!-- Node30&#45;&gt;Node17 -->
<g id="edge46_Node000030_Node000017" class="edge">
<title>Node30&#45;&gt;Node17</title>
<g id="a_edge46_Node000030_Node000017"><a xlink:title=" ">
<path fill="none" stroke="#63b8ff" d="M788.18,-176C796.79,-166.63 807.2,-153.56 813,-140 828.8,-103.04 831.84,-55.32 832.21,-29.36"/>
<polygon fill="#63b8ff" stroke="#63b8ff" points="835.71,-29.09 832.22,-19.08 828.71,-29.08 835.71,-29.09"/>
</a>
</g>
</g>
<!-- Node30&#45;&gt;Node24 -->
<g id="edge48_Node000030_Node000024" class="edge">
<title>Node30&#45;&gt;Node24</title>
<g id="a_edge48_Node000030_Node000024"><a xlink:title=" ">
<path fill="none" stroke="#63b8ff" d="M741.42,-175.99C718.94,-166.31 689.28,-153.56 667.49,-144.18"/>
<polygon fill="#63b8ff" stroke="#63b8ff" points="668.65,-140.88 658.08,-140.14 665.89,-147.31 668.65,-140.88"/>
</a>
</g>
</g>
<!-- Node31 -->
<g id="Node000031" class="node">
<title>Node31</title>
<g id="a_Node000031"><a xlink:title=" ">
<polygon fill="#e0e0e0" stroke="#999999" points="736,-140 698,-140 698,-121 736,-121 736,-140"/>
<text text-anchor="middle" x="717" y="-128" font-family="Helvetica,sans-Serif" font-size="10.00">map</text>
</a>
</g>
</g>
<!-- Node30&#45;&gt;Node31 -->
<g id="edge45_Node000030_Node000031" class="edge">
<title>Node30&#45;&gt;Node31</title>
<g id="a_edge45_Node000030_Node000031"><a xlink:title=" ">
<path fill="none" stroke="#63b8ff" d="M760.2,-175.84C751.93,-167.35 741.38,-156.52 732.77,-147.69"/>
<polygon fill="#63b8ff" stroke="#63b8ff" points="735.03,-144.99 725.54,-140.27 730.01,-149.87 735.03,-144.99"/>
</a>
</g>
</g>
<!-- Node32 -->
<g id="Node000032" class="node">
<title>Node32</title>
<g id="a_Node000032"><a xlink:title=" ">
<polygon fill="#e0e0e0" stroke="#999999" points="804,-140 754,-140 754,-121 804,-121 804,-140"/>
<text text-anchor="middle" x="779" y="-128" font-family="Helvetica,sans-Serif" font-size="10.00">format</text>
</a>
</g>
</g>
<!-- Node30&#45;&gt;Node32 -->
<g id="edge47_Node000030_Node000032" class="edge">
<title>Node30&#45;&gt;Node32</title>
<g id="a_edge47_Node000030_Node000032"><a xlink:title=" ">
<path fill="none" stroke="#63b8ff" d="M775.21,-175.84C775.86,-168.21 776.67,-158.7 777.38,-150.45"/>
<polygon fill="#63b8ff" stroke="#63b8ff" points="780.89,-150.53 778.25,-140.27 773.91,-149.93 780.89,-150.53"/>
</a>
</g>
</g>
</g>
</svg>
