<?xml version="1.0" encoding="UTF-8" standalone="no"?>
<!DOCTYPE svg PUBLIC "-//W3C//DTD SVG 1.1//EN"
 "http://www.w3.org/Graphics/SVG/1.1/DTD/svg11.dtd">
<!-- Generated by graphviz version 2.43.0 (0)
 -->
<!-- Title: include/visualization/plot.h Pages: 1 -->
<svg width="2067pt" height="566pt"
 viewBox="0.00 0.00 2067.00 566.00" xmlns="http://www.w3.org/2000/svg" xmlns:xlink="http://www.w3.org/1999/xlink">
<g id="graph0" class="graph" transform="scale(1 1) rotate(0) translate(4 562)">
<title>include/visualization/plot.h</title>
<!-- Node1 -->
<g id="Node000001" class="node">
<title>Node1</title>
<g id="a_Node000001"><a xlink:title=" ">
<polygon fill="#999999" stroke="#666666" points="1418.5,-558 1301.5,-558 1301.5,-528 1418.5,-528 1418.5,-558"/>
<text text-anchor="start" x="1309.5" y="-546" font-family="Helvetica,sans-Serif" font-size="10.00">include/visualization</text>
<text text-anchor="middle" x="1360" y="-535" font-family="Helvetica,sans-Serif" font-size="10.00">/plot.h</text>
</a>
</g>
</g>
<!-- Node2 -->
<g id="Node000002" class="node">
<title>Node2</title>
<g id="a_Node000002"><a xlink:href="heatmap_8h.html" target="_top" xlink:title=" ">
<polygon fill="white" stroke="#666666" points="1462.5,-492 1345.5,-492 1345.5,-462 1462.5,-462 1462.5,-492"/>
<text text-anchor="start" x="1353.5" y="-480" font-family="Helvetica,sans-Serif" font-size="10.00">include/visualization</text>
<text text-anchor="middle" x="1404" y="-469" font-family="Helvetica,sans-Serif" font-size="10.00">/heatmap.h</text>
</a>
</g>
</g>
<!-- Node1&#45;&gt;Node2 -->
<g id="edge1_Node000001_Node000002" class="edge">
<title>Node1&#45;&gt;Node2</title>
<g id="a_edge1_Node000001_Node000002"><a xlink:title=" ">
<path fill="none" stroke="#63b8ff" d="M1375.45,-519.53C1381.71,-510.43 1388.74,-500.19 1394.26,-492.16"/>
<polygon fill="#63b8ff" stroke="#63b8ff" points="1372.55,-517.57 1369.77,-527.8 1378.31,-521.54 1372.55,-517.57"/>
</a>
</g>
</g>
<!-- Node3 -->
<g id="Node000003" class="node">
<title>Node3</title>
<g id="a_Node000003"><a xlink:href="visualization_8h.html" target="_top" xlink:title=" ">
<polygon fill="white" stroke="#666666" points="1375.5,-426 1258.5,-426 1258.5,-396 1375.5,-396 1375.5,-426"/>
<text text-anchor="start" x="1266.5" y="-414" font-family="Helvetica,sans-Serif" font-size="10.00">include/visualization</text>
<text text-anchor="middle" x="1317" y="-403" font-family="Helvetica,sans-Serif" font-size="10.00">/visualization.h</text>
</a>
</g>
</g>
<!-- Node1&#45;&gt;Node3 -->
<g id="edge65_Node000001_Node000003" class="edge">
<title>Node1&#45;&gt;Node3</title>
<g id="a_edge65_Node000001_Node000003"><a xlink:title=" ">
<path fill="none" stroke="#63b8ff" d="M1348.22,-518.77C1344.3,-510.46 1340.14,-500.94 1337,-492 1329.07,-469.44 1322.98,-442.27 1319.7,-426.11"/>
<polygon fill="#63b8ff" stroke="#63b8ff" points="1345.12,-520.39 1352.63,-527.85 1351.41,-517.33 1345.12,-520.39"/>
</a>
</g>
</g>
<!-- Node37 -->
<g id="Node000037" class="node">
<title>Node37</title>
<g id="a_Node000037"><a xlink:href="lineplot_8h.html" target="_top" xlink:title=" ">
<polygon fill="white" stroke="#666666" points="1288.5,-492 1171.5,-492 1171.5,-462 1288.5,-462 1288.5,-492"/>
<text text-anchor="start" x="1179.5" y="-480" font-family="Helvetica,sans-Serif" font-size="10.00">include/visualization</text>
<text text-anchor="middle" x="1230" y="-469" font-family="Helvetica,sans-Serif" font-size="10.00">/lineplot.h</text>
</a>
</g>
</g>
<!-- Node1&#45;&gt;Node37 -->
<g id="edge62_Node000001_Node000037" class="edge">
<title>Node1&#45;&gt;Node37</title>
<g id="a_edge62_Node000001_Node000037"><a xlink:title=" ">
<path fill="none" stroke="#63b8ff" d="M1322.45,-523.51C1302.05,-513.47 1277.24,-501.26 1258.46,-492.01"/>
<polygon fill="#63b8ff" stroke="#63b8ff" points="1320.95,-526.68 1331.47,-527.95 1324.05,-520.4 1320.95,-526.68"/>
</a>
</g>
</g>
<!-- Node38 -->
<g id="Node000038" class="node">
<title>Node38</title>
<g id="a_Node000038"><a xlink:href="plot_8cpp.html" target="_top" xlink:title=" ">
<polygon fill="white" stroke="#666666" points="1619,-486.5 1481,-486.5 1481,-467.5 1619,-467.5 1619,-486.5"/>
<text text-anchor="middle" x="1550" y="-474.5" font-family="Helvetica,sans-Serif" font-size="10.00">src/visualization/plot.cpp</text>
</a>
</g>
</g>
<!-- Node1&#45;&gt;Node38 -->
<g id="edge66_Node000001_Node000038" class="edge">
<title>Node1&#45;&gt;Node38</title>
<g id="a_edge66_Node000001_Node000038"><a xlink:title=" ">
<path fill="none" stroke="#63b8ff" d="M1411.25,-524.74C1447.99,-512.36 1495.88,-496.23 1524.71,-486.52"/>
<polygon fill="#63b8ff" stroke="#63b8ff" points="1410.06,-521.45 1401.7,-527.95 1412.29,-528.08 1410.06,-521.45"/>
</a>
</g>
</g>
<!-- Node2&#45;&gt;Node3 -->
<g id="edge2_Node000002_Node000003" class="edge">
<title>Node2&#45;&gt;Node3</title>
<g id="a_edge2_Node000002_Node000003"><a xlink:title=" ">
<path fill="none" stroke="#63b8ff" d="M1376.48,-455.75C1363.39,-446.13 1348.07,-434.86 1336.25,-426.16"/>
<polygon fill="#63b8ff" stroke="#63b8ff" points="1374.56,-458.69 1384.69,-461.8 1378.71,-453.05 1374.56,-458.69"/>
</a>
</g>
</g>
<!-- Node36 -->
<g id="Node000036" class="node">
<title>Node36</title>
<g id="a_Node000036"><a xlink:href="heatmap_8cpp.html" target="_top" xlink:title=" ">
<polygon fill="white" stroke="#666666" points="1556.5,-420.5 1393.5,-420.5 1393.5,-401.5 1556.5,-401.5 1556.5,-420.5"/>
<text text-anchor="middle" x="1475" y="-408.5" font-family="Helvetica,sans-Serif" font-size="10.00">src/visualization/heatmap.cpp</text>
</a>
</g>
</g>
<!-- Node2&#45;&gt;Node36 -->
<g id="edge61_Node000002_Node000036" class="edge">
<title>Node2&#45;&gt;Node36</title>
<g id="a_edge61_Node000002_Node000036"><a xlink:title=" ">
<path fill="none" stroke="#63b8ff" d="M1427.37,-454.93C1440.22,-443.35 1455.47,-429.61 1465.19,-420.84"/>
<polygon fill="#63b8ff" stroke="#63b8ff" points="1424.84,-452.5 1419.76,-461.8 1429.53,-457.7 1424.84,-452.5"/>
</a>
</g>
</g>
<!-- Node4 -->
<g id="Node000004" class="node">
<title>Node4</title>
<g id="a_Node000004"><a xlink:href="application_8h.html" target="_top" xlink:title=" ">
<polygon fill="white" stroke="#666666" points="1078.5,-360 969.5,-360 969.5,-330 1078.5,-330 1078.5,-360"/>
<text text-anchor="start" x="977.5" y="-348" font-family="Helvetica,sans-Serif" font-size="10.00">include/application</text>
<text text-anchor="middle" x="1024" y="-337" font-family="Helvetica,sans-Serif" font-size="10.00">/application.h</text>
</a>
</g>
</g>
<!-- Node3&#45;&gt;Node4 -->
<g id="edge3_Node000003_Node000004" class="edge">
<title>Node3&#45;&gt;Node4</title>
<g id="a_edge3_Node000003_Node000004"><a xlink:title=" ">
<path fill="none" stroke="#63b8ff" d="M1248.63,-395.07C1196.83,-383.75 1126.59,-368.41 1078.53,-357.91"/>
<polygon fill="#63b8ff" stroke="#63b8ff" points="1247.89,-398.49 1258.41,-397.2 1249.39,-391.65 1247.89,-398.49"/>
</a>
</g>
</g>
<!-- Node5 -->
<g id="Node000005" class="node">
<title>Node5</title>
<g id="a_Node000005"><a xlink:href="dynamic-neural-field-composer-dynamic_8h.html" target="_top" xlink:title=" ">
<polygon fill="white" stroke="#666666" points="1474,-162 1326,-162 1326,-132 1474,-132 1474,-162"/>
<text text-anchor="start" x="1334" y="-150" font-family="Helvetica,sans-Serif" font-size="10.00">include/dynamic&#45;neural</text>
<text text-anchor="middle" x="1400" y="-139" font-family="Helvetica,sans-Serif" font-size="10.00">&#45;field&#45;composer&#45;dynamic.h</text>
</a>
</g>
</g>
<!-- Node3&#45;&gt;Node5 -->
<g id="edge52_Node000003_Node000005" class="edge">
<title>Node3&#45;&gt;Node5</title>
<g id="a_edge52_Node000003_Node000005"><a xlink:title=" ">
<path fill="none" stroke="#63b8ff" d="M1385.52,-395.98C1586.45,-359.27 1710.09,-401.55 1805,-228 1852.03,-142.01 1769.64,-202.17 1483,-162 1480.11,-161.59 1477.16,-161.17 1474.18,-160.72"/>
<polygon fill="#63b8ff" stroke="#63b8ff" points="1384.77,-392.56 1375.59,-397.84 1386.06,-399.44 1384.77,-392.56"/>
</a>
</g>
</g>
<!-- Node7 -->
<g id="Node000007" class="node">
<title>Node7</title>
<g id="a_Node000007"><a xlink:href="dynamic-neural-field-composer-static_8h.html" target="_top" xlink:title=" ">
<polygon fill="white" stroke="#666666" points="2053.5,-96 1920.5,-96 1920.5,-66 2053.5,-66 2053.5,-96"/>
<text text-anchor="start" x="1928.5" y="-84" font-family="Helvetica,sans-Serif" font-size="10.00">include/dynamic&#45;neural</text>
<text text-anchor="middle" x="1987" y="-73" font-family="Helvetica,sans-Serif" font-size="10.00">&#45;field&#45;composer&#45;static.h</text>
</a>
</g>
</g>
<!-- Node3&#45;&gt;Node7 -->
<g id="edge53_Node000003_Node000007" class="edge">
<title>Node3&#45;&gt;Node7</title>
<g id="a_edge53_Node000003_Node000007"><a xlink:title=" ">
<path fill="none" stroke="#63b8ff" d="M1385.6,-396.16C1552.6,-374.63 2044,-425.65 2044,-280 2044,-280 2044,-280 2044,-212 2044,-166.66 2014.55,-119.34 1997.99,-96.3"/>
<polygon fill="#63b8ff" stroke="#63b8ff" points="1384.94,-392.72 1375.55,-397.61 1385.94,-399.64 1384.94,-392.72"/>
</a>
</g>
</g>
<!-- Node11 -->
<g id="Node000011" class="node">
<title>Node11</title>
<g id="a_Node000011"><a xlink:href="static__layout_8h.html" target="_top" xlink:title=" ">
<polygon fill="white" stroke="#666666" points="716.5,-162 591.5,-162 591.5,-132 716.5,-132 716.5,-162"/>
<text text-anchor="start" x="599.5" y="-150" font-family="Helvetica,sans-Serif" font-size="10.00">include/user_interface</text>
<text text-anchor="middle" x="654" y="-139" font-family="Helvetica,sans-Serif" font-size="10.00">/static_layout.h</text>
</a>
</g>
</g>
<!-- Node3&#45;&gt;Node11 -->
<g id="edge59_Node000003_Node000011" class="edge">
<title>Node3&#45;&gt;Node11</title>
<g id="a_edge59_Node000003_Node000011"><a xlink:title=" ">
<path fill="none" stroke="#63b8ff" d="M1248.35,-408.12C1016.43,-401.06 272.68,-372.42 203,-294 150.3,-234.69 231.48,-223.84 297,-198 394.96,-159.37 518.36,-149.92 591.45,-147.98"/>
<polygon fill="#63b8ff" stroke="#63b8ff" points="1248.25,-411.62 1258.35,-408.42 1248.46,-404.62 1248.25,-411.62"/>
</a>
</g>
</g>
<!-- Node25 -->
<g id="Node000025" class="node">
<title>Node25</title>
<g id="a_Node000025"><a xlink:href="plot__control__window_8h.html" target="_top" xlink:title=" ">
<polygon fill="white" stroke="#666666" points="1693,-294 1565,-294 1565,-264 1693,-264 1693,-294"/>
<text text-anchor="start" x="1573" y="-282" font-family="Helvetica,sans-Serif" font-size="10.00">include/user_interface</text>
<text text-anchor="middle" x="1629" y="-271" font-family="Helvetica,sans-Serif" font-size="10.00">/plot_control_window.h</text>
</a>
</g>
</g>
<!-- Node3&#45;&gt;Node25 -->
<g id="edge54_Node000003_Node000025" class="edge">
<title>Node3&#45;&gt;Node25</title>
<g id="a_edge54_Node000003_Node000025"><a xlink:title=" ">
<path fill="none" stroke="#63b8ff" d="M1385.88,-395.78C1453.57,-381.73 1547.3,-362.04 1551,-360 1580.72,-343.6 1606.26,-312.24 1619.44,-294.03"/>
<polygon fill="#63b8ff" stroke="#63b8ff" points="1384.76,-392.44 1375.68,-397.9 1386.18,-399.29 1384.76,-392.44"/>
</a>
</g>
</g>
<!-- Node33 -->
<g id="Node000033" class="node">
<title>Node33</title>
<g id="a_Node000033"><a xlink:href="plots__window_8h.html" target="_top" xlink:title=" ">
<polygon fill="white" stroke="#666666" points="1599.5,-228 1474.5,-228 1474.5,-198 1599.5,-198 1599.5,-228"/>
<text text-anchor="start" x="1482.5" y="-216" font-family="Helvetica,sans-Serif" font-size="10.00">include/user_interface</text>
<text text-anchor="middle" x="1537" y="-205" font-family="Helvetica,sans-Serif" font-size="10.00">/plots_window.h</text>
</a>
</g>
</g>
<!-- Node3&#45;&gt;Node33 -->
<g id="edge55_Node000003_Node000033" class="edge">
<title>Node3&#45;&gt;Node33</title>
<g id="a_edge55_Node000003_Node000033"><a xlink:title=" ">
<path fill="none" stroke="#63b8ff" d="M1367.92,-392.17C1412.4,-374.08 1475.55,-341.87 1513,-294 1528.28,-274.47 1533.85,-245.34 1535.87,-228.14"/>
<polygon fill="#63b8ff" stroke="#63b8ff" points="1366.46,-388.99 1358.45,-395.93 1369.04,-395.49 1366.46,-388.99"/>
</a>
</g>
</g>
<!-- Node35 -->
<g id="Node000035" class="node">
<title>Node35</title>
<g id="a_Node000035"><a xlink:href="visualization_8cpp.html" target="_top" xlink:title=" ">
<polygon fill="white" stroke="#666666" points="951,-354.5 769,-354.5 769,-335.5 951,-335.5 951,-354.5"/>
<text text-anchor="middle" x="860" y="-342.5" font-family="Helvetica,sans-Serif" font-size="10.00">src/visualization/visualization.cpp</text>
</a>
</g>
</g>
<!-- Node3&#45;&gt;Node35 -->
<g id="edge60_Node000003_Node000035" class="edge">
<title>Node3&#45;&gt;Node35</title>
<g id="a_edge60_Node000003_Node000035"><a xlink:title=" ">
<path fill="none" stroke="#63b8ff" d="M1248.2,-400.36C1159.22,-387.9 1005.63,-366.4 920.77,-354.51"/>
<polygon fill="#63b8ff" stroke="#63b8ff" points="1247.8,-403.84 1258.19,-401.76 1248.77,-396.91 1247.8,-403.84"/>
</a>
</g>
</g>
<!-- Node4&#45;&gt;Node5 -->
<g id="edge4_Node000004_Node000005" class="edge">
<title>Node4&#45;&gt;Node5</title>
<g id="a_edge4_Node000004_Node000005"><a xlink:title=" ">
<path fill="none" stroke="#63b8ff" d="M1088.82,-341.6C1208.51,-336.48 1454.37,-322.6 1480,-294 1488.9,-284.07 1483.96,-276.73 1480,-264 1467.05,-222.42 1433.43,-182.58 1414.15,-162.16"/>
<polygon fill="#63b8ff" stroke="#63b8ff" points="1088.53,-338.1 1078.69,-342.02 1088.83,-345.1 1088.53,-338.1"/>
</a>
</g>
</g>
<!-- Node4&#45;&gt;Node7 -->
<g id="edge6_Node000004_Node000007" class="edge">
<title>Node4&#45;&gt;Node7</title>
<g id="a_edge6_Node000004_Node000007"><a xlink:title=" ">
<path fill="none" stroke="#63b8ff" d="M1088.72,-343.96C1216.35,-342.91 1509.13,-335.69 1751,-294 1858.33,-275.5 1921.17,-314.77 1987,-228 2016.88,-188.62 2001.24,-124.52 1992.09,-96.21"/>
<polygon fill="#63b8ff" stroke="#63b8ff" points="1088.69,-340.46 1078.72,-344.03 1088.74,-347.46 1088.69,-340.46"/>
</a>
</g>
</g>
<!-- Node9 -->
<g id="Node000009" class="node">
<title>Node9</title>
<g id="a_Node000009"><a xlink:href="element__window_8h.html" target="_top" xlink:title=" ">
<polygon fill="white" stroke="#666666" points="830.5,-294 705.5,-294 705.5,-264 830.5,-264 830.5,-294"/>
<text text-anchor="start" x="713.5" y="-282" font-family="Helvetica,sans-Serif" font-size="10.00">include/user_interface</text>
<text text-anchor="middle" x="768" y="-271" font-family="Helvetica,sans-Serif" font-size="10.00">/element_window.h</text>
</a>
</g>
</g>
<!-- Node4&#45;&gt;Node9 -->
<g id="edge8_Node000004_Node000009" class="edge">
<title>Node4&#45;&gt;Node9</title>
<g id="a_edge8_Node000004_Node000009"><a xlink:title=" ">
<path fill="none" stroke="#63b8ff" d="M959.62,-327.91C917.96,-317.49 864.25,-304.06 824.29,-294.07"/>
<polygon fill="#63b8ff" stroke="#63b8ff" points="958.85,-331.32 969.4,-330.35 960.54,-324.53 958.85,-331.32"/>
</a>
</g>
</g>
<!-- Node10 -->
<g id="Node000010" class="node">
<title>Node10</title>
<g id="a_Node000010"><a xlink:href="node__graph__window_8h.html" target="_top" xlink:title=" ">
<polygon fill="white" stroke="#666666" points="950,-228 822,-228 822,-198 950,-198 950,-228"/>
<text text-anchor="start" x="830" y="-216" font-family="Helvetica,sans-Serif" font-size="10.00">include/user_interface</text>
<text text-anchor="middle" x="886" y="-205" font-family="Helvetica,sans-Serif" font-size="10.00">/node_graph_window.h</text>
</a>
</g>
</g>
<!-- Node4&#45;&gt;Node10 -->
<g id="edge37_Node000004_Node000010" class="edge">
<title>Node4&#45;&gt;Node10</title>
<g id="a_edge37_Node000004_Node000010"><a xlink:title=" ">
<path fill="none" stroke="#63b8ff" d="M959.1,-329.63C924.92,-320.61 888.03,-308.04 878,-294 864.12,-274.58 872.35,-245.41 879.35,-228.18"/>
<polygon fill="#63b8ff" stroke="#63b8ff" points="958.56,-333.1 969.12,-332.2 960.3,-326.32 958.56,-333.1"/>
</a>
</g>
</g>
<!-- Node4&#45;&gt;Node11 -->
<g id="edge45_Node000004_Node000011" class="edge">
<title>Node4&#45;&gt;Node11</title>
<g id="a_edge45_Node000004_Node000011"><a xlink:title=" ">
<path fill="none" stroke="#63b8ff" d="M959.36,-330.18C845.75,-316.29 599.36,-332.71 510,-294 491.81,-286.12 494.64,-273.03 477,-264 408.26,-228.8 355.63,-288 307,-228 298.61,-217.64 298.27,-208.08 307,-198 343.07,-156.37 501.59,-148.61 591.39,-147.64"/>
<polygon fill="#63b8ff" stroke="#63b8ff" points="958.9,-333.64 969.28,-331.52 959.84,-326.71 958.9,-333.64"/>
</a>
</g>
</g>
<!-- Node15 -->
<g id="Node000015" class="node">
<title>Node15</title>
<g id="a_Node000015"><a xlink:href="field__metrics__window_8h.html" target="_top" xlink:title=" ">
<polygon fill="white" stroke="#666666" points="1165,-294 1031,-294 1031,-264 1165,-264 1165,-294"/>
<text text-anchor="start" x="1039" y="-282" font-family="Helvetica,sans-Serif" font-size="10.00">include/user_interface</text>
<text text-anchor="middle" x="1098" y="-271" font-family="Helvetica,sans-Serif" font-size="10.00">/field_metrics_window.h</text>
</a>
</g>
</g>
<!-- Node4&#45;&gt;Node15 -->
<g id="edge19_Node000004_Node000015" class="edge">
<title>Node4&#45;&gt;Node15</title>
<g id="a_edge19_Node000004_Node000015"><a xlink:title=" ">
<path fill="none" stroke="#63b8ff" d="M1048.05,-323.2C1059.03,-313.7 1071.76,-302.69 1081.62,-294.16"/>
<polygon fill="#63b8ff" stroke="#63b8ff" points="1045.7,-320.61 1040.42,-329.8 1050.28,-325.9 1045.7,-320.61"/>
</a>
</g>
</g>
<!-- Node18 -->
<g id="Node000018" class="node">
<title>Node18</title>
<g id="a_Node000018"><a xlink:href="log__window_8h.html" target="_top" xlink:title=" ">
<polygon fill="white" stroke="#666666" points="687.5,-294 562.5,-294 562.5,-264 687.5,-264 687.5,-294"/>
<text text-anchor="start" x="570.5" y="-282" font-family="Helvetica,sans-Serif" font-size="10.00">include/user_interface</text>
<text text-anchor="middle" x="625" y="-271" font-family="Helvetica,sans-Serif" font-size="10.00">/log_window.h</text>
</a>
</g>
</g>
<!-- Node4&#45;&gt;Node18 -->
<g id="edge23_Node000004_Node000018" class="edge">
<title>Node4&#45;&gt;Node18</title>
<g id="a_edge23_Node000004_Node000018"><a xlink:title=" ">
<path fill="none" stroke="#63b8ff" d="M959.13,-329.94C841.66,-309.54 809.61,-312.93 696,-294 693.27,-293.55 690.49,-293.07 687.68,-292.57"/>
<polygon fill="#63b8ff" stroke="#63b8ff" points="958.79,-333.44 969.24,-331.72 960,-326.54 958.79,-333.44"/>
</a>
</g>
</g>
<!-- Node21 -->
<g id="Node000021" class="node">
<title>Node21</title>
<g id="a_Node000021"><a xlink:href="logger_8cpp.html" target="_top" xlink:title=" ">
<polygon fill="white" stroke="#666666" points="427.5,-222.5 316.5,-222.5 316.5,-203.5 427.5,-203.5 427.5,-222.5"/>
<text text-anchor="middle" x="372" y="-210.5" font-family="Helvetica,sans-Serif" font-size="10.00">src/tools/logger.cpp</text>
</a>
</g>
</g>
<!-- Node4&#45;&gt;Node21 -->
<g id="edge47_Node000004_Node000021" class="edge">
<title>Node4&#45;&gt;Node21</title>
<g id="a_edge47_Node000004_Node000021"><a xlink:title=" ">
<path fill="none" stroke="#63b8ff" d="M959.17,-330.06C778.4,-304.44 720.58,-354.92 553,-294 531.1,-286.04 530.69,-274.73 510,-264 474.71,-245.7 431.19,-231.14 402.57,-222.55"/>
<polygon fill="#63b8ff" stroke="#63b8ff" points="958.87,-333.55 969.27,-331.55 959.89,-326.63 958.87,-333.55"/>
</a>
</g>
</g>
<!-- Node23 -->
<g id="Node000023" class="node">
<title>Node23</title>
<g id="a_Node000023"><a xlink:href="main__menu__bar_8h.html" target="_top" xlink:title=" ">
<polygon fill="white" stroke="#666666" points="1977.5,-228 1852.5,-228 1852.5,-198 1977.5,-198 1977.5,-228"/>
<text text-anchor="start" x="1860.5" y="-216" font-family="Helvetica,sans-Serif" font-size="10.00">include/user_interface</text>
<text text-anchor="middle" x="1915" y="-205" font-family="Helvetica,sans-Serif" font-size="10.00">/main_menu_bar.h</text>
</a>
</g>
</g>
<!-- Node4&#45;&gt;Node23 -->
<g id="edge33_Node000004_Node000023" class="edge">
<title>Node4&#45;&gt;Node23</title>
<g id="a_edge33_Node000004_Node000023"><a xlink:title=" ">
<path fill="none" stroke="#63b8ff" d="M1088.9,-341.95C1235.2,-336.87 1586.87,-322.08 1702,-294 1734.88,-285.98 1740.45,-276.26 1772,-264 1805.46,-251 1843.9,-237.65 1872.49,-228.01"/>
<polygon fill="#63b8ff" stroke="#63b8ff" points="1088.61,-338.45 1078.73,-342.29 1088.85,-345.45 1088.61,-338.45"/>
</a>
</g>
</g>
<!-- Node4&#45;&gt;Node25 -->
<g id="edge38_Node000004_Node000025" class="edge">
<title>Node4&#45;&gt;Node25</title>
<g id="a_edge38_Node000004_Node000025"><a xlink:title=" ">
<path fill="none" stroke="#63b8ff" d="M1088.84,-337.75C1182.52,-328.63 1361.15,-310.93 1513,-294 1529.83,-292.12 1548.03,-289.98 1564.9,-287.95"/>
<polygon fill="#63b8ff" stroke="#63b8ff" points="1088.28,-334.29 1078.67,-338.74 1088.96,-341.25 1088.28,-334.29"/>
</a>
</g>
</g>
<!-- Node27 -->
<g id="Node000027" class="node">
<title>Node27</title>
<g id="a_Node000027"><a xlink:href="simulation__window_8h.html" target="_top" xlink:title=" ">
<polygon fill="white" stroke="#666666" points="1012.5,-294 887.5,-294 887.5,-264 1012.5,-264 1012.5,-294"/>
<text text-anchor="start" x="895.5" y="-282" font-family="Helvetica,sans-Serif" font-size="10.00">include/user_interface</text>
<text text-anchor="middle" x="950" y="-271" font-family="Helvetica,sans-Serif" font-size="10.00">/simulation_window.h</text>
</a>
</g>
</g>
<!-- Node4&#45;&gt;Node27 -->
<g id="edge41_Node000004_Node000027" class="edge">
<title>Node4&#45;&gt;Node27</title>
<g id="a_edge41_Node000004_Node000027"><a xlink:title=" ">
<path fill="none" stroke="#63b8ff" d="M999.95,-323.2C988.97,-313.7 976.24,-302.69 966.38,-294.16"/>
<polygon fill="#63b8ff" stroke="#63b8ff" points="997.72,-325.9 1007.58,-329.8 1002.3,-320.61 997.72,-325.9"/>
</a>
</g>
</g>
<!-- Node28 -->
<g id="Node000028" class="node">
<title>Node28</title>
<g id="a_Node000028"><a xlink:href="application_8cpp.html" target="_top" xlink:title=" ">
<polygon fill="white" stroke="#666666" points="1348.5,-288.5 1183.5,-288.5 1183.5,-269.5 1348.5,-269.5 1348.5,-288.5"/>
<text text-anchor="middle" x="1266" y="-276.5" font-family="Helvetica,sans-Serif" font-size="10.00">src/application/application.cpp</text>
</a>
</g>
</g>
<!-- Node4&#45;&gt;Node28 -->
<g id="edge46_Node000004_Node000028" class="edge">
<title>Node4&#45;&gt;Node28</title>
<g id="a_edge46_Node000004_Node000028"><a xlink:title=" ">
<path fill="none" stroke="#63b8ff" d="M1086.91,-327.36C1133.98,-314.91 1196.44,-298.4 1233.79,-288.52"/>
<polygon fill="#63b8ff" stroke="#63b8ff" points="1085.88,-324.01 1077.11,-329.95 1087.67,-330.78 1085.88,-324.01"/>
</a>
</g>
</g>
<!-- Node29 -->
<g id="Node000029" class="node">
<title>Node29</title>
<g id="a_Node000029"><a xlink:href="help__window_8cpp.html" target="_top" xlink:title=" ">
<polygon fill="white" stroke="#666666" points="1471,-294 1367,-294 1367,-264 1471,-264 1471,-294"/>
<text text-anchor="start" x="1375" y="-282" font-family="Helvetica,sans-Serif" font-size="10.00">src/user_interface</text>
<text text-anchor="middle" x="1419" y="-271" font-family="Helvetica,sans-Serif" font-size="10.00">/help_window.cpp</text>
</a>
</g>
</g>
<!-- Node4&#45;&gt;Node29 -->
<g id="edge48_Node000004_Node000029" class="edge">
<title>Node4&#45;&gt;Node29</title>
<g id="a_edge48_Node000004_Node000029"><a xlink:title=" ">
<path fill="none" stroke="#63b8ff" d="M1088.65,-335.82C1156.12,-326.94 1264.85,-311.64 1358,-294 1360.88,-293.45 1363.84,-292.87 1366.81,-292.26"/>
<polygon fill="#63b8ff" stroke="#63b8ff" points="1088.06,-332.37 1078.6,-337.14 1088.97,-339.31 1088.06,-332.37"/>
</a>
</g>
</g>
<!-- Node30 -->
<g id="Node000030" class="node">
<title>Node30</title>
<g id="a_Node000030"><a xlink:href="status__bar__window_8cpp.html" target="_top" xlink:title=" ">
<polygon fill="white" stroke="#666666" points="345.5,-294 212.5,-294 212.5,-264 345.5,-264 345.5,-294"/>
<text text-anchor="start" x="220.5" y="-282" font-family="Helvetica,sans-Serif" font-size="10.00">src/user_interface</text>
<text text-anchor="middle" x="279" y="-271" font-family="Helvetica,sans-Serif" font-size="10.00">/status_bar_window.cpp</text>
</a>
</g>
</g>
<!-- Node4&#45;&gt;Node30 -->
<g id="edge49_Node000004_Node000030" class="edge">
<title>Node4&#45;&gt;Node30</title>
<g id="a_edge49_Node000004_Node000030"><a xlink:title=" ">
<path fill="none" stroke="#63b8ff" d="M959.27,-330.07C691.42,-293.91 619.14,-326.06 355,-294 351.94,-293.63 348.81,-293.21 345.66,-292.76"/>
<polygon fill="#63b8ff" stroke="#63b8ff" points="958.91,-333.55 969.29,-331.44 959.86,-326.62 958.91,-333.55"/>
</a>
</g>
</g>
<!-- Node31 -->
<g id="Node000031" class="node">
<title>Node31</title>
<g id="a_Node000031"><a xlink:href="widgets_8cpp.html" target="_top" xlink:title=" ">
<polygon fill="white" stroke="#666666" points="468,-294 364,-294 364,-264 468,-264 468,-294"/>
<text text-anchor="start" x="372" y="-282" font-family="Helvetica,sans-Serif" font-size="10.00">src/user_interface</text>
<text text-anchor="middle" x="416" y="-271" font-family="Helvetica,sans-Serif" font-size="10.00">/widgets.cpp</text>
</a>
</g>
</g>
<!-- Node4&#45;&gt;Node31 -->
<g id="edge50_Node000004_Node000031" class="edge">
<title>Node4&#45;&gt;Node31</title>
<g id="a_edge50_Node000004_Node000031"><a xlink:title=" ">
<path fill="none" stroke="#63b8ff" d="M959.08,-330.03C747.4,-299.93 689.6,-323.7 482,-294 477.48,-293.35 472.8,-292.58 468.12,-291.73"/>
<polygon fill="#63b8ff" stroke="#63b8ff" points="958.88,-333.53 969.28,-331.5 959.88,-326.61 958.88,-333.53"/>
</a>
</g>
</g>
<!-- Node32 -->
<g id="Node000032" class="node">
<title>Node32</title>
<g id="a_Node000032"><a xlink:href="lineplot_8cpp.html" target="_top" xlink:title=" ">
<polygon fill="white" stroke="#666666" points="156,-288.5 0,-288.5 0,-269.5 156,-269.5 156,-288.5"/>
<text text-anchor="middle" x="78" y="-276.5" font-family="Helvetica,sans-Serif" font-size="10.00">src/visualization/lineplot.cpp</text>
</a>
</g>
</g>
<!-- Node4&#45;&gt;Node32 -->
<g id="edge51_Node000004_Node000032" class="edge">
<title>Node4&#45;&gt;Node32</title>
<g id="a_edge51_Node000004_Node000032"><a xlink:title=" ">
<path fill="none" stroke="#63b8ff" d="M959.31,-330.09C624.35,-286.53 535.48,-320.5 203,-294 184.82,-292.55 165.21,-290.56 147.02,-288.53"/>
<polygon fill="#63b8ff" stroke="#63b8ff" points="958.92,-333.57 969.29,-331.4 959.84,-326.63 958.92,-333.57"/>
</a>
</g>
</g>
<!-- Node6 -->
<g id="Node000006" class="node">
<title>Node6</title>
<g id="a_Node000006"><a xlink:href="dynamic-neural-field-composer-dynamic_8cpp.html" target="_top" xlink:title=" ">
<polygon fill="white" stroke="#666666" points="808.5,-96 649.5,-96 649.5,-66 808.5,-66 808.5,-96"/>
<text text-anchor="start" x="657.5" y="-84" font-family="Helvetica,sans-Serif" font-size="10.00">src/dynamic&#45;neural</text>
<text text-anchor="middle" x="729" y="-73" font-family="Helvetica,sans-Serif" font-size="10.00">&#45;field&#45;composer&#45;dynamic.cpp</text>
</a>
</g>
</g>
<!-- Node5&#45;&gt;Node6 -->
<g id="edge5_Node000005_Node000006" class="edge">
<title>Node5&#45;&gt;Node6</title>
<g id="a_edge5_Node000005_Node000006"><a xlink:title=" ">
<path fill="none" stroke="#63b8ff" d="M1315.62,-137.95C1185.17,-125.51 936.3,-101.77 808.73,-89.6"/>
<polygon fill="#63b8ff" stroke="#63b8ff" points="1315.66,-141.47 1325.95,-138.94 1316.33,-134.5 1315.66,-141.47"/>
</a>
</g>
</g>
<!-- Node8 -->
<g id="Node000008" class="node">
<title>Node8</title>
<g id="a_Node000008"><a xlink:href="dynamic-neural-field-composer-static_8cpp.html" target="_top" xlink:title=" ">
<polygon fill="white" stroke="#666666" points="2059,-30 1915,-30 1915,0 2059,0 2059,-30"/>
<text text-anchor="start" x="1923" y="-18" font-family="Helvetica,sans-Serif" font-size="10.00">src/dynamic&#45;neural</text>
<text text-anchor="middle" x="1987" y="-7" font-family="Helvetica,sans-Serif" font-size="10.00">&#45;field&#45;composer&#45;static.cpp</text>
</a>
</g>
</g>
<!-- Node7&#45;&gt;Node8 -->
<g id="edge7_Node000007_Node000008" class="edge">
<title>Node7&#45;&gt;Node8</title>
<g id="a_edge7_Node000007_Node000008"><a xlink:title=" ">
<path fill="none" stroke="#63b8ff" d="M1987,-55.54C1987,-46.96 1987,-37.61 1987,-30.16"/>
<polygon fill="#63b8ff" stroke="#63b8ff" points="1983.5,-55.8 1987,-65.8 1990.5,-55.8 1983.5,-55.8"/>
</a>
</g>
</g>
<!-- Node9&#45;&gt;Node5 -->
<g id="edge9_Node000009_Node000005" class="edge">
<title>Node9&#45;&gt;Node5</title>
<g id="a_edge9_Node000009_Node000005"><a xlink:title=" ">
<path fill="none" stroke="#63b8ff" d="M840.67,-266.31C877.43,-258.61 921.98,-246.44 959,-228 978.26,-218.41 977.15,-206.3 997,-198 1054.73,-173.87 1226.15,-159.17 1325.84,-152.41"/>
<polygon fill="#63b8ff" stroke="#63b8ff" points="839.62,-262.95 830.52,-268.37 841.02,-269.81 839.62,-262.95"/>
</a>
</g>
</g>
<!-- Node9&#45;&gt;Node10 -->
<g id="edge10_Node000009_Node000010" class="edge">
<title>Node9&#45;&gt;Node10</title>
<g id="a_edge10_Node000009_Node000010"><a xlink:title=" ">
<path fill="none" stroke="#63b8ff" d="M802.84,-259.11C821.2,-249.14 843.35,-237.13 860.16,-228.01"/>
<polygon fill="#63b8ff" stroke="#63b8ff" points="801.02,-256.11 793.9,-263.95 804.35,-262.26 801.02,-256.11"/>
</a>
</g>
</g>
<!-- Node9&#45;&gt;Node11 -->
<g id="edge17_Node000009_Node000011" class="edge">
<title>Node9&#45;&gt;Node11</title>
<g id="a_edge17_Node000009_Node000011"><a xlink:title=" ">
<path fill="none" stroke="#63b8ff" d="M714.3,-259.6C698.98,-251.98 683.6,-241.66 673,-228 658.04,-208.71 654.59,-179.5 653.94,-162.22"/>
<polygon fill="#63b8ff" stroke="#63b8ff" points="713.24,-262.96 723.78,-263.99 716.18,-256.61 713.24,-262.96"/>
</a>
</g>
</g>
<!-- Node14 -->
<g id="Node000014" class="node">
<title>Node14</title>
<g id="a_Node000014"><a xlink:href="element__window_8cpp.html" target="_top" xlink:title=" ">
<polygon fill="white" stroke="#666666" points="804,-228 682,-228 682,-198 804,-198 804,-228"/>
<text text-anchor="start" x="690" y="-216" font-family="Helvetica,sans-Serif" font-size="10.00">src/user_interface</text>
<text text-anchor="middle" x="743" y="-205" font-family="Helvetica,sans-Serif" font-size="10.00">/element_window.cpp</text>
</a>
</g>
</g>
<!-- Node9&#45;&gt;Node14 -->
<g id="edge18_Node000009_Node000014" class="edge">
<title>Node9&#45;&gt;Node14</title>
<g id="a_edge18_Node000009_Node000014"><a xlink:title=" ">
<path fill="none" stroke="#63b8ff" d="M758.78,-254.39C755.34,-245.59 751.54,-235.86 748.53,-228.16"/>
<polygon fill="#63b8ff" stroke="#63b8ff" points="755.55,-255.76 762.45,-263.8 762.07,-253.21 755.55,-255.76"/>
</a>
</g>
</g>
<!-- Node10&#45;&gt;Node5 -->
<g id="edge11_Node000010_Node000005" class="edge">
<title>Node10&#45;&gt;Node5</title>
<g id="a_edge11_Node000010_Node000005"><a xlink:title=" ">
<path fill="none" stroke="#63b8ff" d="M960.18,-198.57C961.46,-198.38 962.74,-198.19 964,-198 1090.64,-179.39 1238.83,-163.67 1325.75,-155.07"/>
<polygon fill="#63b8ff" stroke="#63b8ff" points="959.55,-195.13 950.22,-200.14 960.64,-202.04 959.55,-195.13"/>
</a>
</g>
</g>
<!-- Node10&#45;&gt;Node11 -->
<g id="edge12_Node000010_Node000011" class="edge">
<title>Node10&#45;&gt;Node11</title>
<g id="a_edge12_Node000010_Node000011"><a xlink:title=" ">
<path fill="none" stroke="#63b8ff" d="M825.29,-195.25C787.81,-184.91 740.28,-171.8 704.79,-162.01"/>
<polygon fill="#63b8ff" stroke="#63b8ff" points="824.52,-198.67 835.09,-197.95 826.38,-191.92 824.52,-198.67"/>
</a>
</g>
</g>
<!-- Node13 -->
<g id="Node000013" class="node">
<title>Node13</title>
<g id="a_Node000013"><a xlink:href="node__graph__window_8cpp.html" target="_top" xlink:title=" ">
<polygon fill="white" stroke="#666666" points="955.5,-162 816.5,-162 816.5,-132 955.5,-132 955.5,-162"/>
<text text-anchor="start" x="824.5" y="-150" font-family="Helvetica,sans-Serif" font-size="10.00">src/user_interface</text>
<text text-anchor="middle" x="886" y="-139" font-family="Helvetica,sans-Serif" font-size="10.00">/node_graph_window.cpp</text>
</a>
</g>
</g>
<!-- Node10&#45;&gt;Node13 -->
<g id="edge16_Node000010_Node000013" class="edge">
<title>Node10&#45;&gt;Node13</title>
<g id="a_edge16_Node000010_Node000013"><a xlink:title=" ">
<path fill="none" stroke="#63b8ff" d="M886,-187.54C886,-178.96 886,-169.61 886,-162.16"/>
<polygon fill="#63b8ff" stroke="#63b8ff" points="882.5,-187.8 886,-197.8 889.5,-187.8 882.5,-187.8"/>
</a>
</g>
</g>
<!-- Node11&#45;&gt;Node6 -->
<g id="edge14_Node000011_Node000006" class="edge">
<title>Node11&#45;&gt;Node6</title>
<g id="a_edge14_Node000011_Node000006"><a xlink:title=" ">
<path fill="none" stroke="#63b8ff" d="M678.37,-125.2C689.51,-115.7 702.41,-104.69 712.4,-96.16"/>
<polygon fill="#63b8ff" stroke="#63b8ff" points="675.98,-122.64 670.64,-131.8 680.52,-127.97 675.98,-122.64"/>
</a>
</g>
</g>
<!-- Node11&#45;&gt;Node7 -->
<g id="edge13_Node000011_Node000007" class="edge">
<title>Node11&#45;&gt;Node7</title>
<g id="a_edge13_Node000011_Node000007"><a xlink:title=" ">
<path fill="none" stroke="#63b8ff" d="M727.1,-138.58C752.39,-136.21 780.92,-133.74 807,-132 1230.5,-103.67 1740.63,-88.46 1920.4,-83.68"/>
<polygon fill="#63b8ff" stroke="#63b8ff" points="726.47,-135.12 716.85,-139.55 727.13,-142.09 726.47,-135.12"/>
</a>
</g>
</g>
<!-- Node12 -->
<g id="Node000012" class="node">
<title>Node12</title>
<g id="a_Node000012"><a xlink:href="static__layout_8cpp.html" target="_top" xlink:title=" ">
<polygon fill="white" stroke="#666666" points="631,-96 527,-96 527,-66 631,-66 631,-96"/>
<text text-anchor="start" x="535" y="-84" font-family="Helvetica,sans-Serif" font-size="10.00">src/user_interface</text>
<text text-anchor="middle" x="579" y="-73" font-family="Helvetica,sans-Serif" font-size="10.00">/static_layout.cpp</text>
</a>
</g>
</g>
<!-- Node11&#45;&gt;Node12 -->
<g id="edge15_Node000011_Node000012" class="edge">
<title>Node11&#45;&gt;Node12</title>
<g id="a_edge15_Node000011_Node000012"><a xlink:title=" ">
<path fill="none" stroke="#63b8ff" d="M629.63,-125.2C618.49,-115.7 605.59,-104.69 595.6,-96.16"/>
<polygon fill="#63b8ff" stroke="#63b8ff" points="627.48,-127.97 637.36,-131.8 632.02,-122.64 627.48,-127.97"/>
</a>
</g>
</g>
<!-- Node15&#45;&gt;Node5 -->
<g id="edge20_Node000015_Node000005" class="edge">
<title>Node15&#45;&gt;Node5</title>
<g id="a_edge20_Node000015_Node000005"><a xlink:title=" ">
<path fill="none" stroke="#63b8ff" d="M1175.07,-264.08C1236.02,-256.27 1357.1,-260.85 1389,-228 1405.9,-210.6 1404.98,-180.18 1402.61,-162.29"/>
<polygon fill="#63b8ff" stroke="#63b8ff" points="1174.5,-260.63 1165.13,-265.57 1175.53,-267.55 1174.5,-260.63"/>
</a>
</g>
</g>
<!-- Node16 -->
<g id="Node000016" class="node">
<title>Node16</title>
<g id="a_Node000016"><a xlink:href="field__metrics__window_8cpp.html" target="_top" xlink:title=" ">
<polygon fill="white" stroke="#666666" points="1379.5,-228 1234.5,-228 1234.5,-198 1379.5,-198 1379.5,-228"/>
<text text-anchor="start" x="1242.5" y="-216" font-family="Helvetica,sans-Serif" font-size="10.00">src/user_interface</text>
<text text-anchor="middle" x="1307" y="-205" font-family="Helvetica,sans-Serif" font-size="10.00">/field_metrics_window.cpp</text>
</a>
</g>
</g>
<!-- Node15&#45;&gt;Node16 -->
<g id="edge21_Node000015_Node000016" class="edge">
<title>Node15&#45;&gt;Node16</title>
<g id="a_edge21_Node000015_Node000016"><a xlink:title=" ">
<path fill="none" stroke="#63b8ff" d="M1153.55,-260.99C1187.18,-250.69 1229.55,-237.72 1261.24,-228.01"/>
<polygon fill="#63b8ff" stroke="#63b8ff" points="1152.4,-257.68 1143.87,-263.95 1154.45,-264.37 1152.4,-257.68"/>
</a>
</g>
</g>
<!-- Node17 -->
<g id="Node000017" class="node">
<title>Node17</title>
<g id="a_Node000017"><a xlink:href="simulation__window_8cpp.html" target="_top" xlink:title=" ">
<polygon fill="white" stroke="#666666" points="1140,-228 1006,-228 1006,-198 1140,-198 1140,-228"/>
<text text-anchor="start" x="1014" y="-216" font-family="Helvetica,sans-Serif" font-size="10.00">src/user_interface</text>
<text text-anchor="middle" x="1073" y="-205" font-family="Helvetica,sans-Serif" font-size="10.00">/simulation_window.cpp</text>
</a>
</g>
</g>
<!-- Node15&#45;&gt;Node17 -->
<g id="edge22_Node000015_Node000017" class="edge">
<title>Node15&#45;&gt;Node17</title>
<g id="a_edge22_Node000015_Node000017"><a xlink:title=" ">
<path fill="none" stroke="#63b8ff" d="M1088.78,-254.39C1085.34,-245.59 1081.54,-235.86 1078.53,-228.16"/>
<polygon fill="#63b8ff" stroke="#63b8ff" points="1085.55,-255.76 1092.45,-263.8 1092.07,-253.21 1085.55,-255.76"/>
</a>
</g>
</g>
<!-- Node18&#45;&gt;Node5 -->
<g id="edge24_Node000018_Node000005" class="edge">
<title>Node18&#45;&gt;Node5</title>
<g id="a_edge24_Node000018_Node000005"><a xlink:title=" ">
<path fill="none" stroke="#63b8ff" d="M632.43,-254.17C639.62,-235.47 652.49,-210.56 673,-198 700.53,-181.14 1146.37,-159.38 1325.93,-151.25"/>
<polygon fill="#63b8ff" stroke="#63b8ff" points="629.06,-253.21 629.01,-263.81 635.66,-255.56 629.06,-253.21"/>
</a>
</g>
</g>
<!-- Node18&#45;&gt;Node11 -->
<g id="edge29_Node000018_Node000011" class="edge">
<title>Node18&#45;&gt;Node11</title>
<g id="a_edge29_Node000018_Node000011"><a xlink:title=" ">
<path fill="none" stroke="#63b8ff" d="M610.16,-254.94C601.65,-238.67 594.1,-216.56 602,-198 608.23,-183.37 621.08,-170.95 632.44,-162.14"/>
<polygon fill="#63b8ff" stroke="#63b8ff" points="607.19,-256.79 615.17,-263.77 613.28,-253.34 607.19,-256.79"/>
</a>
</g>
</g>
<!-- Node18&#45;&gt;Node17 -->
<g id="edge32_Node000018_Node000017" class="edge">
<title>Node18&#45;&gt;Node17</title>
<g id="a_edge32_Node000018_Node000017"><a xlink:title=" ">
<path fill="none" stroke="#63b8ff" d="M697.62,-263.81C768.91,-252.53 918.35,-233.41 1005.87,-222.39"/>
<polygon fill="#63b8ff" stroke="#63b8ff" points="696.99,-260.37 687.68,-265.42 698.11,-267.28 696.99,-260.37"/>
</a>
</g>
</g>
<!-- Node19 -->
<g id="Node000019" class="node">
<title>Node19</title>
<g id="a_Node000019"><a xlink:href="control__bar__window_8h.html" target="_top" xlink:title=" ">
<polygon fill="white" stroke="#666666" points="188.5,-228 63.5,-228 63.5,-198 188.5,-198 188.5,-228"/>
<text text-anchor="start" x="71.5" y="-216" font-family="Helvetica,sans-Serif" font-size="10.00">include/user_interface</text>
<text text-anchor="middle" x="126" y="-205" font-family="Helvetica,sans-Serif" font-size="10.00">/control_bar_window.h</text>
</a>
</g>
</g>
<!-- Node18&#45;&gt;Node19 -->
<g id="edge25_Node000018_Node000019" class="edge">
<title>Node18&#45;&gt;Node19</title>
<g id="a_edge25_Node000018_Node000019"><a xlink:title=" ">
<path fill="none" stroke="#63b8ff" d="M552.19,-268.66C454.18,-256.09 281.44,-233.94 188.83,-222.06"/>
<polygon fill="#63b8ff" stroke="#63b8ff" points="551.94,-272.16 562.31,-269.96 552.83,-265.22 551.94,-272.16"/>
</a>
</g>
</g>
<!-- Node18&#45;&gt;Node21 -->
<g id="edge30_Node000018_Node000021" class="edge">
<title>Node18&#45;&gt;Node21</title>
<g id="a_edge30_Node000018_Node000021"><a xlink:title=" ">
<path fill="none" stroke="#63b8ff" d="M559.54,-261.44C510.29,-248.98 444.8,-232.42 405.67,-222.52"/>
<polygon fill="#63b8ff" stroke="#63b8ff" points="558.93,-264.9 569.48,-263.95 560.64,-258.11 558.93,-264.9"/>
</a>
</g>
</g>
<!-- Node22 -->
<g id="Node000022" class="node">
<title>Node22</title>
<g id="a_Node000022"><a xlink:href="log__window_8cpp.html" target="_top" xlink:title=" ">
<polygon fill="white" stroke="#666666" points="550,-228 446,-228 446,-198 550,-198 550,-228"/>
<text text-anchor="start" x="454" y="-216" font-family="Helvetica,sans-Serif" font-size="10.00">src/user_interface</text>
<text text-anchor="middle" x="498" y="-205" font-family="Helvetica,sans-Serif" font-size="10.00">/log_window.cpp</text>
</a>
</g>
</g>
<!-- Node18&#45;&gt;Node22 -->
<g id="edge31_Node000018_Node000022" class="edge">
<title>Node18&#45;&gt;Node22</title>
<g id="a_edge31_Node000018_Node000022"><a xlink:title=" ">
<path fill="none" stroke="#63b8ff" d="M588.05,-259.38C568.17,-249.36 544.07,-237.22 525.81,-228.01"/>
<polygon fill="#63b8ff" stroke="#63b8ff" points="586.62,-262.58 597.13,-263.95 589.77,-256.33 586.62,-262.58"/>
</a>
</g>
</g>
<!-- Node19&#45;&gt;Node6 -->
<g id="edge27_Node000019_Node000006" class="edge">
<title>Node19&#45;&gt;Node6</title>
<g id="a_edge27_Node000019_Node000006"><a xlink:title=" ">
<path fill="none" stroke="#63b8ff" d="M124.72,-187.72C125.2,-169.5 129.17,-145.47 145,-132 187,-96.26 585.21,-102.29 640,-96 643.11,-95.64 646.27,-95.26 649.47,-94.85"/>
<polygon fill="#63b8ff" stroke="#63b8ff" points="121.22,-187.93 124.79,-197.9 128.22,-187.88 121.22,-187.93"/>
</a>
</g>
</g>
<!-- Node19&#45;&gt;Node11 -->
<g id="edge26_Node000019_Node000011" class="edge">
<title>Node19&#45;&gt;Node11</title>
<g id="a_edge26_Node000019_Node000011"><a xlink:title=" ">
<path fill="none" stroke="#63b8ff" d="M198.55,-198.67C200.04,-198.44 201.53,-198.21 203,-198 341.17,-177.81 504.21,-161.61 591.45,-153.55"/>
<polygon fill="#63b8ff" stroke="#63b8ff" points="197.88,-195.23 188.56,-200.25 198.98,-202.14 197.88,-195.23"/>
</a>
</g>
</g>
<!-- Node20 -->
<g id="Node000020" class="node">
<title>Node20</title>
<g id="a_Node000020"><a xlink:href="control__bar__window_8cpp.html" target="_top" xlink:title=" ">
<polygon fill="white" stroke="#666666" points="291.5,-162 154.5,-162 154.5,-132 291.5,-132 291.5,-162"/>
<text text-anchor="start" x="162.5" y="-150" font-family="Helvetica,sans-Serif" font-size="10.00">src/user_interface</text>
<text text-anchor="middle" x="223" y="-139" font-family="Helvetica,sans-Serif" font-size="10.00">/control_bar_window.cpp</text>
</a>
</g>
</g>
<!-- Node19&#45;&gt;Node20 -->
<g id="edge28_Node000019_Node000020" class="edge">
<title>Node19&#45;&gt;Node20</title>
<g id="a_edge28_Node000019_Node000020"><a xlink:title=" ">
<path fill="none" stroke="#63b8ff" d="M156.27,-192.03C170.95,-182.34 188.23,-170.94 201.53,-162.16"/>
<polygon fill="#63b8ff" stroke="#63b8ff" points="153.95,-189.37 147.53,-197.8 157.8,-195.21 153.95,-189.37"/>
</a>
</g>
</g>
<!-- Node23&#45;&gt;Node5 -->
<g id="edge34_Node000023_Node000005" class="edge">
<title>Node23&#45;&gt;Node5</title>
<g id="a_edge34_Node000023_Node000005"><a xlink:title=" ">
<path fill="none" stroke="#63b8ff" d="M1842.45,-198.65C1840.96,-198.42 1839.47,-198.21 1838,-198 1680.97,-175.8 1640.16,-183.2 1483,-162 1480.1,-161.61 1477.15,-161.19 1474.17,-160.76"/>
<polygon fill="#63b8ff" stroke="#63b8ff" points="1842.03,-202.12 1852.45,-200.2 1843.11,-195.21 1842.03,-202.12"/>
</a>
</g>
</g>
<!-- Node23&#45;&gt;Node7 -->
<g id="edge35_Node000023_Node000007" class="edge">
<title>Node23&#45;&gt;Node7</title>
<g id="a_edge35_Node000023_Node000007"><a xlink:title=" ">
<path fill="none" stroke="#63b8ff" d="M1931.26,-189.68C1937.14,-181.2 1943.65,-171.33 1949,-162 1961.77,-139.72 1974.05,-112.46 1981.04,-96.21"/>
<polygon fill="#63b8ff" stroke="#63b8ff" points="1928.33,-187.75 1925.42,-197.94 1934.05,-191.79 1928.33,-187.75"/>
</a>
</g>
</g>
<!-- Node24 -->
<g id="Node000024" class="node">
<title>Node24</title>
<g id="a_Node000024"><a xlink:href="main__menu__bar_8cpp.html" target="_top" xlink:title=" ">
<polygon fill="white" stroke="#666666" points="1940,-162 1822,-162 1822,-132 1940,-132 1940,-162"/>
<text text-anchor="start" x="1830" y="-150" font-family="Helvetica,sans-Serif" font-size="10.00">src/user_interface</text>
<text text-anchor="middle" x="1881" y="-139" font-family="Helvetica,sans-Serif" font-size="10.00">/main_menu_bar.cpp</text>
</a>
</g>
</g>
<!-- Node23&#45;&gt;Node24 -->
<g id="edge36_Node000023_Node000024" class="edge">
<title>Node23&#45;&gt;Node24</title>
<g id="a_edge36_Node000023_Node000024"><a xlink:title=" ">
<path fill="none" stroke="#63b8ff" d="M1902.76,-188.96C1898,-180 1892.7,-170.03 1888.52,-162.16"/>
<polygon fill="#63b8ff" stroke="#63b8ff" points="1899.67,-190.61 1907.45,-197.8 1905.85,-187.32 1899.67,-190.61"/>
</a>
</g>
</g>
<!-- Node25&#45;&gt;Node5 -->
<g id="edge39_Node000025_Node000005" class="edge">
<title>Node25&#45;&gt;Node5</title>
<g id="a_edge39_Node000025_Node000005"><a xlink:title=" ">
<path fill="none" stroke="#63b8ff" d="M1629.26,-253.52C1628.1,-235.76 1623.58,-212.43 1609,-198 1599.14,-188.24 1530.17,-172.94 1474.12,-161.83"/>
<polygon fill="#63b8ff" stroke="#63b8ff" points="1625.77,-253.84 1629.61,-263.72 1632.77,-253.61 1625.77,-253.84"/>
</a>
</g>
</g>
<!-- Node26 -->
<g id="Node000026" class="node">
<title>Node26</title>
<g id="a_Node000026"><a xlink:href="plot__control__window_8cpp.html" target="_top" xlink:title=" ">
<polygon fill="white" stroke="#666666" points="1796,-228 1656,-228 1656,-198 1796,-198 1796,-228"/>
<text text-anchor="start" x="1664" y="-216" font-family="Helvetica,sans-Serif" font-size="10.00">src/user_interface</text>
<text text-anchor="middle" x="1726" y="-205" font-family="Helvetica,sans-Serif" font-size="10.00">/plot_control_window.cpp</text>
</a>
</g>
</g>
<!-- Node25&#45;&gt;Node26 -->
<g id="edge40_Node000025_Node000026" class="edge">
<title>Node25&#45;&gt;Node26</title>
<g id="a_edge40_Node000025_Node000026"><a xlink:title=" ">
<path fill="none" stroke="#63b8ff" d="M1659.27,-258.03C1673.95,-248.34 1691.23,-236.94 1704.53,-228.16"/>
<polygon fill="#63b8ff" stroke="#63b8ff" points="1656.95,-255.37 1650.53,-263.8 1660.8,-261.21 1656.95,-255.37"/>
</a>
</g>
</g>
<!-- Node27&#45;&gt;Node5 -->
<g id="edge42_Node000027_Node000005" class="edge">
<title>Node27&#45;&gt;Node5</title>
<g id="a_edge42_Node000027_Node000005"><a xlink:title=" ">
<path fill="none" stroke="#63b8ff" d="M1022.52,-263.33C1074.86,-252.35 1140.75,-237.64 1167,-228 1194.24,-218 1198.02,-208.71 1225,-198 1262.3,-183.2 1305.66,-170.78 1339.89,-162.02"/>
<polygon fill="#63b8ff" stroke="#63b8ff" points="1021.66,-259.93 1012.59,-265.4 1023.09,-266.78 1021.66,-259.93"/>
</a>
</g>
</g>
<!-- Node27&#45;&gt;Node11 -->
<g id="edge43_Node000027_Node000011" class="edge">
<title>Node27&#45;&gt;Node11</title>
<g id="a_edge43_Node000027_Node000011"><a xlink:title=" ">
<path fill="none" stroke="#63b8ff" d="M1022.52,-261.97C1077.71,-249.42 1144.91,-233.25 1149,-228 1157.2,-217.49 1157.94,-207.89 1149,-198 1145.4,-194.02 849.03,-166.08 716.66,-153.79"/>
<polygon fill="#63b8ff" stroke="#63b8ff" points="1021.7,-258.57 1012.72,-264.19 1023.25,-265.39 1021.7,-258.57"/>
</a>
</g>
</g>
<!-- Node27&#45;&gt;Node17 -->
<g id="edge44_Node000027_Node000017" class="edge">
<title>Node27&#45;&gt;Node17</title>
<g id="a_edge44_Node000027_Node000017"><a xlink:title=" ">
<path fill="none" stroke="#63b8ff" d="M986.05,-259.24C1005.25,-249.25 1028.46,-237.18 1046.07,-228.01"/>
<polygon fill="#63b8ff" stroke="#63b8ff" points="984.25,-256.23 976.99,-263.95 987.48,-262.44 984.25,-256.23"/>
</a>
</g>
</g>
<!-- Node33&#45;&gt;Node5 -->
<g id="edge56_Node000033_Node000005" class="edge">
<title>Node33&#45;&gt;Node5</title>
<g id="a_edge56_Node000033_Node000005"><a xlink:title=" ">
<path fill="none" stroke="#63b8ff" d="M1497.72,-193.65C1476.17,-183.58 1449.88,-171.3 1430,-162.01"/>
<polygon fill="#63b8ff" stroke="#63b8ff" points="1496.39,-196.89 1506.93,-197.95 1499.36,-190.55 1496.39,-196.89"/>
</a>
</g>
</g>
<!-- Node33&#45;&gt;Node11 -->
<g id="edge57_Node000033_Node000011" class="edge">
<title>Node33&#45;&gt;Node11</title>
<g id="a_edge57_Node000033_Node000011"><a xlink:title=" ">
<path fill="none" stroke="#63b8ff" d="M1464.3,-204.65C1440.34,-202.35 1413.54,-199.92 1389,-198 1130.63,-177.79 1065.4,-181.81 807,-162 777.35,-159.73 744.5,-156.78 716.87,-154.17"/>
<polygon fill="#63b8ff" stroke="#63b8ff" points="1464.1,-208.14 1474.39,-205.62 1464.77,-201.18 1464.1,-208.14"/>
</a>
</g>
</g>
<!-- Node34 -->
<g id="Node000034" class="node">
<title>Node34</title>
<g id="a_Node000034"><a xlink:href="plots__window_8cpp.html" target="_top" xlink:title=" ">
<polygon fill="white" stroke="#666666" points="1598,-162 1492,-162 1492,-132 1598,-132 1598,-162"/>
<text text-anchor="start" x="1500" y="-150" font-family="Helvetica,sans-Serif" font-size="10.00">src/user_interface</text>
<text text-anchor="middle" x="1545" y="-139" font-family="Helvetica,sans-Serif" font-size="10.00">/plots_window.cpp</text>
</a>
</g>
</g>
<!-- Node33&#45;&gt;Node34 -->
<g id="edge58_Node000033_Node000034" class="edge">
<title>Node33&#45;&gt;Node34</title>
<g id="a_edge58_Node000033_Node000034"><a xlink:title=" ">
<path fill="none" stroke="#63b8ff" d="M1540.02,-187.83C1541.1,-179.17 1542.29,-169.7 1543.23,-162.16"/>
<polygon fill="#63b8ff" stroke="#63b8ff" points="1536.54,-187.44 1538.78,-197.8 1543.49,-188.31 1536.54,-187.44"/>
</a>
</g>
</g>
<!-- Node37&#45;&gt;Node3 -->
<g id="edge63_Node000037_Node000003" class="edge">
<title>Node37&#45;&gt;Node3</title>
<g id="a_edge63_Node000037_Node000003"><a xlink:title=" ">
<path fill="none" stroke="#63b8ff" d="M1257.52,-455.75C1270.61,-446.13 1285.93,-434.86 1297.75,-426.16"/>
<polygon fill="#63b8ff" stroke="#63b8ff" points="1255.29,-453.05 1249.31,-461.8 1259.44,-458.69 1255.29,-453.05"/>
</a>
</g>
</g>
<!-- Node37&#45;&gt;Node32 -->
<g id="edge64_Node000037_Node000032" class="edge">
<title>Node37&#45;&gt;Node32</title>
<g id="a_edge64_Node000037_Node000032"><a xlink:title=" ">
<path fill="none" stroke="#63b8ff" d="M1161.1,-473.81C955.47,-466.44 349.3,-438.44 170,-360 132.19,-343.46 98.6,-305.7 84.74,-288.64"/>
<polygon fill="#63b8ff" stroke="#63b8ff" points="1161.05,-477.31 1171.17,-474.16 1161.3,-470.31 1161.05,-477.31"/>
</a>
</g>
</g>
</g>
</svg>
