<?xml version="1.0" encoding="UTF-8" standalone="no"?>
<!DOCTYPE svg PUBLIC "-//W3C//DTD SVG 1.1//EN"
 "http://www.w3.org/Graphics/SVG/1.1/DTD/svg11.dtd">
<!-- Generated by graphviz version 2.43.0 (0)
 -->
<!-- Title: include/user_interface/plot_control_window.h Pages: 1 -->
<svg width="1555pt" height="522pt"
 viewBox="0.00 0.00 1555.00 522.00" xmlns="http://www.w3.org/2000/svg" xmlns:xlink="http://www.w3.org/1999/xlink">
<g id="graph0" class="graph" transform="scale(1 1) rotate(0) translate(4 518)">
<title>include/user_interface/plot_control_window.h</title>
<!-- Node1 -->
<g id="Node000001" class="node">
<title>Node1</title>
<g id="a_Node000001"><a xlink:title=" ">
<polygon fill="#999999" stroke="#666666" points="960,-514 832,-514 832,-484 960,-484 960,-514"/>
<text text-anchor="start" x="840" y="-502" font-family="Helvetica,sans-Serif" font-size="10.00">include/user_interface</text>
<text text-anchor="middle" x="896" y="-491" font-family="Helvetica,sans-Serif" font-size="10.00">/plot_control_window.h</text>
</a>
</g>
</g>
<!-- Node2 -->
<g id="Node000002" class="node">
<title>Node2</title>
<g id="a_Node000002"><a xlink:title=" ">
<polygon fill="#e0e0e0" stroke="#999999" points="809,-448 669,-448 669,-418 809,-418 809,-448"/>
<text text-anchor="start" x="677" y="-436" font-family="Helvetica,sans-Serif" font-size="10.00">imgui&#45;platform&#45;kit</text>
<text text-anchor="middle" x="739" y="-425" font-family="Helvetica,sans-Serif" font-size="10.00">/user_interface_window.h</text>
</a>
</g>
</g>
<!-- Node1&#45;&gt;Node2 -->
<g id="edge1_Node000001_Node000002" class="edge">
<title>Node1&#45;&gt;Node2</title>
<g id="a_edge1_Node000001_Node000002"><a xlink:title=" ">
<path fill="none" stroke="#63b8ff" d="M861.55,-483.95C838.44,-474.53 807.8,-462.04 782.94,-451.91"/>
<polygon fill="#63b8ff" stroke="#63b8ff" points="783.96,-448.55 773.37,-448.01 781.31,-455.03 783.96,-448.55"/>
</a>
</g>
</g>
<!-- Node3 -->
<g id="Node000003" class="node">
<title>Node3</title>
<g id="a_Node000003"><a xlink:href="visualization_8h.html" target="_top" xlink:title=" ">
<polygon fill="white" stroke="#666666" points="1211.5,-376.5 1058.5,-376.5 1058.5,-357.5 1211.5,-357.5 1211.5,-376.5"/>
<text text-anchor="middle" x="1135" y="-364.5" font-family="Helvetica,sans-Serif" font-size="10.00">visualization/visualization.h</text>
</a>
</g>
</g>
<!-- Node1&#45;&gt;Node3 -->
<g id="edge2_Node000001_Node000003" class="edge">
<title>Node1&#45;&gt;Node3</title>
<g id="a_edge2_Node000001_Node000003"><a xlink:title=" ">
<path fill="none" stroke="#63b8ff" d="M922.03,-483.84C968.45,-458.59 1064.91,-406.13 1110.33,-381.42"/>
<polygon fill="#63b8ff" stroke="#63b8ff" points="1112.1,-384.44 1119.21,-376.59 1108.76,-378.29 1112.1,-384.44"/>
</a>
</g>
</g>
<!-- Node33 -->
<g id="Node000033" class="node">
<title>Node33</title>
<g id="a_Node000033"><a xlink:href="application_8h.html" target="_top" xlink:title=" ">
<polygon fill="white" stroke="#666666" points="964.5,-442.5 827.5,-442.5 827.5,-423.5 964.5,-423.5 964.5,-442.5"/>
<text text-anchor="middle" x="896" y="-430.5" font-family="Helvetica,sans-Serif" font-size="10.00">application/application.h</text>
</a>
</g>
</g>
<!-- Node1&#45;&gt;Node33 -->
<g id="edge57_Node000001_Node000033" class="edge">
<title>Node1&#45;&gt;Node33</title>
<g id="a_edge57_Node000001_Node000033"><a xlink:title=" ">
<path fill="none" stroke="#63b8ff" d="M896,-483.8C896,-474.7 896,-462.79 896,-452.9"/>
<polygon fill="#63b8ff" stroke="#63b8ff" points="899.5,-452.84 896,-442.84 892.5,-452.84 899.5,-452.84"/>
</a>
</g>
</g>
<!-- Node4 -->
<g id="Node000004" class="node">
<title>Node4</title>
<g id="a_Node000004"><a xlink:title=" ">
<polygon fill="#e0e0e0" stroke="#999999" points="1179,-79.5 1119,-79.5 1119,-60.5 1179,-60.5 1179,-79.5"/>
<text text-anchor="middle" x="1149" y="-67.5" font-family="Helvetica,sans-Serif" font-size="10.00">iostream</text>
</a>
</g>
</g>
<!-- Node3&#45;&gt;Node4 -->
<g id="edge3_Node000003_Node000004" class="edge">
<title>Node3&#45;&gt;Node4</title>
<g id="a_edge3_Node000003_Node000004"><a xlink:title=" ">
<path fill="none" stroke="#63b8ff" d="M1135,-357.46C1135,-338.55 1135,-291.71 1135,-252.5 1135,-252.5 1135,-252.5 1135,-190 1135,-154.25 1141.31,-112.86 1145.46,-89.52"/>
<polygon fill="#63b8ff" stroke="#63b8ff" points="1148.91,-90.09 1147.28,-79.62 1142.03,-88.82 1148.91,-90.09"/>
</a>
</g>
</g>
<!-- Node5 -->
<g id="Node000005" class="node">
<title>Node5</title>
<g id="a_Node000005"><a xlink:title=" ">
<polygon fill="#e0e0e0" stroke="#999999" points="444.5,-19 397.5,-19 397.5,0 444.5,0 444.5,-19"/>
<text text-anchor="middle" x="421" y="-7" font-family="Helvetica,sans-Serif" font-size="10.00">vector</text>
</a>
</g>
</g>
<!-- Node3&#45;&gt;Node5 -->
<g id="edge4_Node000003_Node000005" class="edge">
<title>Node3&#45;&gt;Node5</title>
<g id="a_edge4_Node000003_Node000005"><a xlink:title=" ">
<path fill="none" stroke="#63b8ff" d="M1084.62,-357.49C956.74,-335.73 626.37,-278.6 579,-261 533.27,-244.01 516,-242.83 484,-206 438.21,-153.31 425.61,-66.89 422.22,-29.13"/>
<polygon fill="#63b8ff" stroke="#63b8ff" points="425.7,-28.77 421.43,-19.07 418.72,-29.31 425.7,-28.77"/>
</a>
</g>
</g>
<!-- Node6 -->
<g id="Node000006" class="node">
<title>Node6</title>
<g id="a_Node000006"><a xlink:href="simulation_8h.html" target="_top" xlink:title=" ">
<polygon fill="white" stroke="#666666" points="416,-316 284,-316 284,-297 416,-297 416,-316"/>
<text text-anchor="middle" x="350" y="-304" font-family="Helvetica,sans-Serif" font-size="10.00">simulation/simulation.h</text>
</a>
</g>
</g>
<!-- Node3&#45;&gt;Node6 -->
<g id="edge5_Node000003_Node000006" class="edge">
<title>Node3&#45;&gt;Node6</title>
<g id="a_edge5_Node000003_Node000006"><a xlink:title=" ">
<path fill="none" stroke="#63b8ff" d="M1088.25,-357.49C1075.56,-355.42 1061.78,-353.41 1049,-352 775.08,-321.82 704.65,-338.56 430,-316 428.89,-315.91 427.76,-315.81 426.64,-315.72"/>
<polygon fill="#63b8ff" stroke="#63b8ff" points="426.6,-312.2 416.33,-314.79 425.98,-319.17 426.6,-312.2"/>
</a>
</g>
</g>
<!-- Node16 -->
<g id="Node000016" class="node">
<title>Node16</title>
<g id="a_Node000016"><a xlink:href="exception_8h.html" target="_top" xlink:title=" ">
<polygon fill="white" stroke="#666666" points="1403,-79.5 1273,-79.5 1273,-60.5 1403,-60.5 1403,-79.5"/>
<text text-anchor="middle" x="1338" y="-67.5" font-family="Helvetica,sans-Serif" font-size="10.00">exceptions/exception.h</text>
</a>
</g>
</g>
<!-- Node3&#45;&gt;Node16 -->
<g id="edge45_Node000003_Node000016" class="edge">
<title>Node3&#45;&gt;Node16</title>
<g id="a_edge45_Node000003_Node000016"><a xlink:title=" ">
<path fill="none" stroke="#63b8ff" d="M1211.87,-364.64C1303.53,-361.44 1449.47,-350.84 1490,-316 1512.34,-296.8 1509,-281.96 1509,-252.5 1509,-252.5 1509,-252.5 1509,-190 1509,-129.81 1436.75,-97.59 1386.17,-82.41"/>
<polygon fill="#63b8ff" stroke="#63b8ff" points="1386.95,-78.99 1376.38,-79.6 1385.02,-85.72 1386.95,-78.99"/>
</a>
</g>
</g>
<!-- Node19 -->
<g id="Node000019" class="node">
<title>Node19</title>
<g id="a_Node000019"><a xlink:href="logger_8h.html" target="_top" xlink:title=" ">
<polygon fill="white" stroke="#666666" points="1050.5,-140 967.5,-140 967.5,-121 1050.5,-121 1050.5,-140"/>
<text text-anchor="middle" x="1009" y="-128" font-family="Helvetica,sans-Serif" font-size="10.00">tools/logger.h</text>
</a>
</g>
</g>
<!-- Node3&#45;&gt;Node19 -->
<g id="edge52_Node000003_Node000019" class="edge">
<title>Node3&#45;&gt;Node19</title>
<g id="a_edge52_Node000003_Node000019"><a xlink:title=" ">
<path fill="none" stroke="#63b8ff" d="M1130.37,-357.38C1112,-323.2 1044.09,-196.81 1018.68,-149.52"/>
<polygon fill="#63b8ff" stroke="#63b8ff" points="1021.63,-147.61 1013.81,-140.45 1015.46,-150.92 1021.63,-147.61"/>
</a>
</g>
</g>
<!-- Node29 -->
<g id="Node000029" class="node">
<title>Node29</title>
<g id="a_Node000029"><a xlink:href="plot_8h.html" target="_top" xlink:title=" ">
<polygon fill="white" stroke="#666666" points="1407,-261 1363,-261 1363,-242 1407,-242 1407,-261"/>
<text text-anchor="middle" x="1385" y="-249" font-family="Helvetica,sans-Serif" font-size="10.00">plot.h</text>
</a>
</g>
</g>
<!-- Node3&#45;&gt;Node29 -->
<g id="edge46_Node000003_Node000029" class="edge">
<title>Node3&#45;&gt;Node29</title>
<g id="a_edge46_Node000003_Node000029"><a xlink:title=" ">
<path fill="none" stroke="#63b8ff" d="M1181.88,-357.49C1217.34,-349.84 1266.51,-336.6 1306,-316 1330.22,-303.37 1354.12,-282.7 1369.18,-268.39"/>
<polygon fill="#63b8ff" stroke="#63b8ff" points="1371.85,-270.67 1376.58,-261.19 1366.97,-265.66 1371.85,-270.67"/>
</a>
</g>
</g>
<!-- Node31 -->
<g id="Node000031" class="node">
<title>Node31</title>
<g id="a_Node000031"><a xlink:href="lineplot_8h.html" target="_top" xlink:title=" ">
<polygon fill="white" stroke="#666666" points="1481,-316 1353,-316 1353,-297 1481,-297 1481,-316"/>
<text text-anchor="middle" x="1417" y="-304" font-family="Helvetica,sans-Serif" font-size="10.00">visualization/lineplot.h</text>
</a>
</g>
</g>
<!-- Node3&#45;&gt;Node31 -->
<g id="edge53_Node000003_Node000031" class="edge">
<title>Node3&#45;&gt;Node31</title>
<g id="a_edge53_Node000003_Node000031"><a xlink:title=" ">
<path fill="none" stroke="#63b8ff" d="M1176.01,-357.49C1226.34,-347.05 1311.69,-329.35 1366.15,-318.05"/>
<polygon fill="#63b8ff" stroke="#63b8ff" points="1366.86,-321.48 1375.95,-316.02 1365.44,-314.62 1366.86,-321.48"/>
</a>
</g>
</g>
<!-- Node32 -->
<g id="Node000032" class="node">
<title>Node32</title>
<g id="a_Node000032"><a xlink:href="heatmap_8h.html" target="_top" xlink:title=" ">
<polygon fill="white" stroke="#666666" points="1297,-316 1163,-316 1163,-297 1297,-297 1297,-316"/>
<text text-anchor="middle" x="1230" y="-304" font-family="Helvetica,sans-Serif" font-size="10.00">visualization/heatmap.h</text>
</a>
</g>
</g>
<!-- Node3&#45;&gt;Node32 -->
<g id="edge55_Node000003_Node000032" class="edge">
<title>Node3&#45;&gt;Node32</title>
<g id="a_edge55_Node000003_Node000032"><a xlink:title=" ">
<path fill="none" stroke="#63b8ff" d="M1149.02,-357.37C1164.31,-347.95 1189.03,-332.73 1207.14,-321.58"/>
<polygon fill="#63b8ff" stroke="#63b8ff" points="1209.25,-324.39 1215.92,-316.17 1205.57,-318.43 1209.25,-324.39"/>
</a>
</g>
</g>
<!-- Node6&#45;&gt;Node5 -->
<g id="edge6_Node000006_Node000005" class="edge">
<title>Node6&#45;&gt;Node5</title>
<g id="a_edge6_Node000006_Node000005"><a xlink:title=" ">
<path fill="none" stroke="#63b8ff" d="M345.8,-296.91C336.14,-276 314.04,-220.85 326,-176 341.94,-116.21 385.19,-55.56 407.42,-27.14"/>
<polygon fill="#63b8ff" stroke="#63b8ff" points="410.34,-29.09 413.83,-19.09 404.86,-24.73 410.34,-29.09"/>
</a>
</g>
</g>
<!-- Node7 -->
<g id="Node000007" class="node">
<title>Node7</title>
<g id="a_Node000007"><a xlink:title=" ">
<polygon fill="#e0e0e0" stroke="#999999" points="393,-200.5 335,-200.5 335,-181.5 393,-181.5 393,-200.5"/>
<text text-anchor="middle" x="364" y="-188.5" font-family="Helvetica,sans-Serif" font-size="10.00">memory</text>
</a>
</g>
</g>
<!-- Node6&#45;&gt;Node7 -->
<g id="edge7_Node000006_Node000007" class="edge">
<title>Node6&#45;&gt;Node7</title>
<g id="a_edge7_Node000006_Node000007"><a xlink:title=" ">
<path fill="none" stroke="#63b8ff" d="M351.05,-296.97C353.3,-278.73 358.63,-235.57 361.7,-210.64"/>
<polygon fill="#63b8ff" stroke="#63b8ff" points="365.18,-210.98 362.94,-200.63 358.24,-210.13 365.18,-210.98"/>
</a>
</g>
</g>
<!-- Node8 -->
<g id="Node000008" class="node">
<title>Node8</title>
<g id="a_Node000008"><a xlink:title=" ">
<polygon fill="#e0e0e0" stroke="#999999" points="875,-19 831,-19 831,0 875,0 875,-19"/>
<text text-anchor="middle" x="853" y="-7" font-family="Helvetica,sans-Serif" font-size="10.00">string</text>
</a>
</g>
</g>
<!-- Node6&#45;&gt;Node8 -->
<g id="edge8_Node000006_Node000008" class="edge">
<title>Node6&#45;&gt;Node8</title>
<g id="a_edge8_Node000006_Node000008"><a xlink:title=" ">
<path fill="none" stroke="#63b8ff" d="M416.06,-305.97C566.73,-305.48 928.42,-294.85 1002,-206 1053.44,-143.88 959.86,-212.08 872,-85 860.52,-68.39 855.97,-45.39 854.17,-29.36"/>
<polygon fill="#63b8ff" stroke="#63b8ff" points="857.63,-28.77 853.29,-19.11 850.66,-29.37 857.63,-28.77"/>
</a>
</g>
</g>
<!-- Node9 -->
<g id="Node000009" class="node">
<title>Node9</title>
<g id="a_Node000009"><a xlink:title=" ">
<polygon fill="#e0e0e0" stroke="#999999" points="68,-19 0,-19 0,0 68,0 68,-19"/>
<text text-anchor="middle" x="34" y="-7" font-family="Helvetica,sans-Serif" font-size="10.00">filesystem</text>
</a>
</g>
</g>
<!-- Node6&#45;&gt;Node9 -->
<g id="edge9_Node000006_Node000009" class="edge">
<title>Node6&#45;&gt;Node9</title>
<g id="a_edge9_Node000006_Node000009"><a xlink:title=" ">
<path fill="none" stroke="#63b8ff" d="M313.38,-296.96C243.94,-279.68 100,-238.3 100,-192 100,-192 100,-192 100,-129.5 100,-88.41 69.54,-48.23 50.01,-26.69"/>
<polygon fill="#63b8ff" stroke="#63b8ff" points="52.3,-24.02 42.9,-19.13 47.2,-28.81 52.3,-24.02"/>
</a>
</g>
</g>
<!-- Node10 -->
<g id="Node000010" class="node">
<title>Node10</title>
<g id="a_Node000010"><a xlink:title=" ">
<polygon fill="#e0e0e0" stroke="#999999" points="356,-19 306,-19 306,0 356,0 356,-19"/>
<text text-anchor="middle" x="331" y="-7" font-family="Helvetica,sans-Serif" font-size="10.00">chrono</text>
</a>
</g>
</g>
<!-- Node6&#45;&gt;Node10 -->
<g id="edge10_Node000006_Node000010" class="edge">
<title>Node6&#45;&gt;Node10</title>
<g id="a_edge10_Node000006_Node000010"><a xlink:title=" ">
<path fill="none" stroke="#63b8ff" d="M334.67,-296.96C321.88,-289.13 304.04,-276.41 293,-261 274.1,-234.6 269,-224.47 269,-192 269,-192 269,-192 269,-129.5 269,-88.99 297.61,-48.6 315.96,-26.86"/>
<polygon fill="#63b8ff" stroke="#63b8ff" points="318.69,-29.07 322.64,-19.24 313.42,-24.46 318.69,-29.07"/>
</a>
</g>
</g>
<!-- Node11 -->
<g id="Node000011" class="node">
<title>Node11</title>
<g id="a_Node000011"><a xlink:href="element_8h.html" target="_top" xlink:title=" ">
<polygon fill="white" stroke="#666666" points="703.5,-261 588.5,-261 588.5,-242 703.5,-242 703.5,-261"/>
<text text-anchor="middle" x="646" y="-249" font-family="Helvetica,sans-Serif" font-size="10.00">elements/element.h</text>
</a>
</g>
</g>
<!-- Node6&#45;&gt;Node11 -->
<g id="edge11_Node000006_Node000011" class="edge">
<title>Node6&#45;&gt;Node11</title>
<g id="a_edge11_Node000006_Node000011"><a xlink:title=" ">
<path fill="none" stroke="#63b8ff" d="M397.56,-296.98C449.4,-287.7 532.39,-272.84 588.01,-262.88"/>
<polygon fill="#63b8ff" stroke="#63b8ff" points="588.84,-266.29 598.07,-261.08 587.61,-259.4 588.84,-266.29"/>
</a>
</g>
</g>
<!-- Node6&#45;&gt;Node16 -->
<g id="edge43_Node000006_Node000016" class="edge">
<title>Node6&#45;&gt;Node16</title>
<g id="a_edge43_Node000006_Node000016"><a xlink:title=" ">
<path fill="none" stroke="#63b8ff" d="M416.21,-303.01C621.03,-294.71 1234.45,-265.1 1300,-206 1333.37,-175.92 1338.38,-119.07 1338.57,-89.67"/>
<polygon fill="#63b8ff" stroke="#63b8ff" points="1342.07,-89.49 1338.45,-79.53 1335.07,-89.58 1342.07,-89.49"/>
</a>
</g>
</g>
<!-- Node22 -->
<g id="Node000022" class="node">
<title>Node22</title>
<g id="a_Node000022"><a xlink:href="utils_8h.html" target="_top" xlink:title=" ">
<polygon fill="white" stroke="#666666" points="240.5,-79.5 193.5,-79.5 193.5,-60.5 240.5,-60.5 240.5,-79.5"/>
<text text-anchor="middle" x="217" y="-67.5" font-family="Helvetica,sans-Serif" font-size="10.00">utils.h</text>
</a>
</g>
</g>
<!-- Node6&#45;&gt;Node22 -->
<g id="edge44_Node000006_Node000022" class="edge">
<title>Node6&#45;&gt;Node22</title>
<g id="a_edge44_Node000006_Node000022"><a xlink:title=" ">
<path fill="none" stroke="#63b8ff" d="M312.82,-296.85C292.77,-290.29 269.27,-279.2 255,-261 214.73,-209.65 213.67,-127.01 215.52,-90"/>
<polygon fill="#63b8ff" stroke="#63b8ff" points="219.03,-89.88 216.18,-79.68 212.05,-89.44 219.03,-89.88"/>
</a>
</g>
</g>
<!-- Node11&#45;&gt;Node5 -->
<g id="edge12_Node000011_Node000005" class="edge">
<title>Node11&#45;&gt;Node5</title>
<g id="a_edge12_Node000011_Node000005"><a xlink:title=" ">
<path fill="none" stroke="#63b8ff" d="M588.43,-243.24C561.02,-237.21 529.41,-226.18 507,-206 479.06,-180.84 441.41,-72.84 426.98,-29.05"/>
<polygon fill="#63b8ff" stroke="#63b8ff" points="430.25,-27.81 423.83,-19.39 423.6,-29.98 430.25,-27.81"/>
</a>
</g>
</g>
<!-- Node11&#45;&gt;Node7 -->
<g id="edge15_Node000011_Node000007" class="edge">
<title>Node11&#45;&gt;Node7</title>
<g id="a_edge15_Node000011_Node000007"><a xlink:title=" ">
<path fill="none" stroke="#63b8ff" d="M604.99,-241.99C550.86,-230.76 456.21,-211.13 403.07,-200.1"/>
<polygon fill="#63b8ff" stroke="#63b8ff" points="403.52,-196.62 393.02,-198.02 402.1,-203.48 403.52,-196.62"/>
</a>
</g>
</g>
<!-- Node11&#45;&gt;Node8 -->
<g id="edge13_Node000011_Node000008" class="edge">
<title>Node11&#45;&gt;Node8</title>
<g id="a_edge13_Node000011_Node000008"><a xlink:title=" ">
<path fill="none" stroke="#63b8ff" d="M588.34,-245.75C561.76,-240.34 532.51,-229.1 516,-206 508.25,-195.15 508.95,-187.32 516,-176 584.68,-65.76 750.63,-26.86 820.81,-15.04"/>
<polygon fill="#63b8ff" stroke="#63b8ff" points="821.51,-18.47 830.83,-13.43 820.4,-11.56 821.51,-18.47"/>
</a>
</g>
</g>
<!-- Node12 -->
<g id="Node000012" class="node">
<title>Node12</title>
<g id="a_Node000012"><a xlink:title=" ">
<polygon fill="#e0e0e0" stroke="#999999" points="692.5,-200.5 599.5,-200.5 599.5,-181.5 692.5,-181.5 692.5,-200.5"/>
<text text-anchor="middle" x="646" y="-188.5" font-family="Helvetica,sans-Serif" font-size="10.00">unordered_map</text>
</a>
</g>
</g>
<!-- Node11&#45;&gt;Node12 -->
<g id="edge14_Node000011_Node000012" class="edge">
<title>Node11&#45;&gt;Node12</title>
<g id="a_edge14_Node000011_Node000012"><a xlink:title=" ">
<path fill="none" stroke="#63b8ff" d="M646,-241.87C646,-233.75 646,-221.31 646,-210.89"/>
<polygon fill="#63b8ff" stroke="#63b8ff" points="649.5,-210.67 646,-200.67 642.5,-210.67 649.5,-210.67"/>
</a>
</g>
</g>
<!-- Node13 -->
<g id="Node000013" class="node">
<title>Node13</title>
<g id="a_Node000013"><a xlink:title=" ">
<polygon fill="#e0e0e0" stroke="#999999" points="761,-200.5 711,-200.5 711,-181.5 761,-181.5 761,-200.5"/>
<text text-anchor="middle" x="736" y="-188.5" font-family="Helvetica,sans-Serif" font-size="10.00">ranges</text>
</a>
</g>
</g>
<!-- Node11&#45;&gt;Node13 -->
<g id="edge16_Node000011_Node000013" class="edge">
<title>Node11&#45;&gt;Node13</title>
<g id="a_edge16_Node000011_Node000013"><a xlink:title=" ">
<path fill="none" stroke="#63b8ff" d="M659.28,-241.87C673.64,-232.54 696.76,-217.51 713.87,-206.38"/>
<polygon fill="#63b8ff" stroke="#63b8ff" points="716.19,-209.05 722.67,-200.67 712.37,-203.18 716.19,-209.05"/>
</a>
</g>
</g>
<!-- Node14 -->
<g id="Node000014" class="node">
<title>Node14</title>
<g id="a_Node000014"><a xlink:title=" ">
<polygon fill="#e0e0e0" stroke="#999999" points="993,-200.5 929,-200.5 929,-181.5 993,-181.5 993,-200.5"/>
<text text-anchor="middle" x="961" y="-188.5" font-family="Helvetica,sans-Serif" font-size="10.00">algorithm</text>
</a>
</g>
</g>
<!-- Node11&#45;&gt;Node14 -->
<g id="edge17_Node000011_Node000014" class="edge">
<title>Node11&#45;&gt;Node14</title>
<g id="a_edge17_Node000011_Node000014"><a xlink:title=" ">
<path fill="none" stroke="#63b8ff" d="M703.53,-243.84C759.15,-236.77 845.56,-224.1 919,-206 921.96,-205.27 925.02,-204.43 928.07,-203.53"/>
<polygon fill="#63b8ff" stroke="#63b8ff" points="929.16,-206.86 937.65,-200.52 927.06,-200.18 929.16,-206.86"/>
</a>
</g>
</g>
<!-- Node15 -->
<g id="Node000015" class="node">
<title>Node15</title>
<g id="a_Node000015"><a xlink:title=" ">
<polygon fill="#e0e0e0" stroke="#999999" points="581,-200.5 525,-200.5 525,-181.5 581,-181.5 581,-200.5"/>
<text text-anchor="middle" x="553" y="-188.5" font-family="Helvetica,sans-Serif" font-size="10.00">numeric</text>
</a>
</g>
</g>
<!-- Node11&#45;&gt;Node15 -->
<g id="edge18_Node000011_Node000015" class="edge">
<title>Node11&#45;&gt;Node15</title>
<g id="a_edge18_Node000011_Node000015"><a xlink:title=" ">
<path fill="none" stroke="#63b8ff" d="M632.28,-241.87C617.3,-232.45 593.11,-217.23 575.38,-206.08"/>
<polygon fill="#63b8ff" stroke="#63b8ff" points="577.11,-203.03 566.78,-200.67 573.38,-208.95 577.11,-203.03"/>
</a>
</g>
</g>
<!-- Node11&#45;&gt;Node16 -->
<g id="edge19_Node000011_Node000016" class="edge">
<title>Node11&#45;&gt;Node16</title>
<g id="a_edge19_Node000011_Node000016"><a xlink:title=" ">
<path fill="none" stroke="#63b8ff" d="M703.6,-249.79C850.65,-247.52 1231.62,-238.52 1278,-206 1288.23,-198.83 1317.64,-124.37 1331.11,-89.2"/>
<polygon fill="#63b8ff" stroke="#63b8ff" points="1334.46,-90.26 1334.74,-79.67 1327.92,-87.77 1334.46,-90.26"/>
</a>
</g>
</g>
<!-- Node11&#45;&gt;Node19 -->
<g id="edge23_Node000011_Node000019" class="edge">
<title>Node11&#45;&gt;Node19</title>
<g id="a_edge23_Node000011_Node000019"><a xlink:title=" ">
<path fill="none" stroke="#63b8ff" d="M703.7,-247.2C799.18,-241.16 981.62,-227.02 1002,-206 1016.1,-191.46 1015.62,-167.01 1013.1,-150.11"/>
<polygon fill="#63b8ff" stroke="#63b8ff" points="1016.54,-149.46 1011.27,-140.27 1009.65,-150.74 1016.54,-149.46"/>
</a>
</g>
</g>
<!-- Node26 -->
<g id="Node000026" class="node">
<title>Node26</title>
<g id="a_Node000026"><a xlink:href="element__parameters_8h.html" target="_top" xlink:title=" ">
<polygon fill="white" stroke="#666666" points="910.5,-206 779.5,-206 779.5,-176 910.5,-176 910.5,-206"/>
<text text-anchor="start" x="787.5" y="-194" font-family="Helvetica,sans-Serif" font-size="10.00">element_parameters</text>
<text text-anchor="middle" x="845" y="-183" font-family="Helvetica,sans-Serif" font-size="10.00">/element_parameters.h</text>
</a>
</g>
</g>
<!-- Node11&#45;&gt;Node26 -->
<g id="edge38_Node000011_Node000026" class="edge">
<title>Node11&#45;&gt;Node26</title>
<g id="a_edge38_Node000011_Node000026"><a xlink:title=" ">
<path fill="none" stroke="#63b8ff" d="M674.94,-241.99C704.33,-233.35 750.64,-219.74 787.52,-208.9"/>
<polygon fill="#63b8ff" stroke="#63b8ff" points="788.55,-212.24 797.16,-206.06 786.58,-205.53 788.55,-212.24"/>
</a>
</g>
</g>
<!-- Node16&#45;&gt;Node8 -->
<g id="edge22_Node000016_Node000008" class="edge">
<title>Node16&#45;&gt;Node8</title>
<g id="a_edge22_Node000016_Node000008"><a xlink:title=" ">
<path fill="none" stroke="#63b8ff" d="M1292.96,-60.49C1281.88,-58.54 1270.03,-56.58 1259,-55 1120.42,-35.15 954.1,-19.45 885.26,-13.3"/>
<polygon fill="#63b8ff" stroke="#63b8ff" points="885.34,-9.8 875.07,-12.4 884.72,-16.77 885.34,-9.8"/>
</a>
</g>
</g>
<!-- Node17 -->
<g id="Node000017" class="node">
<title>Node17</title>
<g id="a_Node000017"><a xlink:title=" ">
<polygon fill="#e0e0e0" stroke="#999999" points="1401,-19 1351,-19 1351,0 1401,0 1401,-19"/>
<text text-anchor="middle" x="1376" y="-7" font-family="Helvetica,sans-Serif" font-size="10.00">cstdint</text>
</a>
</g>
</g>
<!-- Node16&#45;&gt;Node17 -->
<g id="edge20_Node000016_Node000017" class="edge">
<title>Node16&#45;&gt;Node17</title>
<g id="a_edge20_Node000016_Node000017"><a xlink:title=" ">
<path fill="none" stroke="#63b8ff" d="M1343.61,-60.37C1349.16,-51.81 1357.83,-38.47 1364.8,-27.74"/>
<polygon fill="#63b8ff" stroke="#63b8ff" points="1367.86,-29.46 1370.37,-19.17 1361.99,-25.65 1367.86,-29.46"/>
</a>
</g>
</g>
<!-- Node18 -->
<g id="Node000018" class="node">
<title>Node18</title>
<g id="a_Node000018"><a xlink:title=" ">
<polygon fill="#e0e0e0" stroke="#999999" points="1332.5,-19 1267.5,-19 1267.5,0 1332.5,0 1332.5,-19"/>
<text text-anchor="middle" x="1300" y="-7" font-family="Helvetica,sans-Serif" font-size="10.00">exception</text>
</a>
</g>
</g>
<!-- Node16&#45;&gt;Node18 -->
<g id="edge21_Node000016_Node000018" class="edge">
<title>Node16&#45;&gt;Node18</title>
<g id="a_edge21_Node000016_Node000018"><a xlink:title=" ">
<path fill="none" stroke="#63b8ff" d="M1332.39,-60.37C1326.84,-51.81 1318.17,-38.47 1311.2,-27.74"/>
<polygon fill="#63b8ff" stroke="#63b8ff" points="1314.01,-25.65 1305.63,-19.17 1308.14,-29.46 1314.01,-25.65"/>
</a>
</g>
</g>
<!-- Node19&#45;&gt;Node4 -->
<g id="edge24_Node000019_Node000004" class="edge">
<title>Node19&#45;&gt;Node4</title>
<g id="a_edge24_Node000019_Node000004"><a xlink:title=" ">
<path fill="none" stroke="#63b8ff" d="M1029.36,-120.99C1053,-111.12 1092.2,-94.73 1119.25,-83.43"/>
<polygon fill="#63b8ff" stroke="#63b8ff" points="1120.74,-86.6 1128.62,-79.52 1118.04,-80.14 1120.74,-86.6"/>
</a>
</g>
</g>
<!-- Node19&#45;&gt;Node8 -->
<g id="edge25_Node000019_Node000008" class="edge">
<title>Node19&#45;&gt;Node8</title>
<g id="a_edge25_Node000019_Node000008"><a xlink:title=" ">
<path fill="none" stroke="#63b8ff" d="M1029.52,-121C1044.02,-113.77 1062.35,-101.86 1071,-85 1077.09,-73.14 1079.43,-65.33 1071,-55 1047.92,-26.74 940.2,-15.96 885.32,-12.24"/>
<polygon fill="#63b8ff" stroke="#63b8ff" points="885.29,-8.74 875.09,-11.59 884.84,-15.72 885.29,-8.74"/>
</a>
</g>
</g>
<!-- Node19&#45;&gt;Node10 -->
<g id="edge26_Node000019_Node000010" class="edge">
<title>Node19&#45;&gt;Node10</title>
<g id="a_edge26_Node000019_Node000010"><a xlink:title=" ">
<path fill="none" stroke="#63b8ff" d="M967.35,-122.19C843.87,-100.52 481.17,-36.86 366.31,-16.7"/>
<polygon fill="#63b8ff" stroke="#63b8ff" points="366.75,-13.22 356.29,-14.94 365.54,-20.12 366.75,-13.22"/>
</a>
</g>
</g>
<!-- Node19&#45;&gt;Node16 -->
<g id="edge29_Node000019_Node000016" class="edge">
<title>Node19&#45;&gt;Node16</title>
<g id="a_edge29_Node000019_Node000016"><a xlink:title=" ">
<path fill="none" stroke="#63b8ff" d="M1050.67,-122.09C1108.69,-111.77 1214.07,-93.04 1279.82,-81.35"/>
<polygon fill="#63b8ff" stroke="#63b8ff" points="1280.78,-84.73 1290.01,-79.53 1279.56,-77.84 1280.78,-84.73"/>
</a>
</g>
</g>
<!-- Node20 -->
<g id="Node000020" class="node">
<title>Node20</title>
<g id="a_Node000020"><a xlink:title=" ">
<polygon fill="#e0e0e0" stroke="#999999" points="937,-79.5 881,-79.5 881,-60.5 937,-60.5 937,-79.5"/>
<text text-anchor="middle" x="909" y="-67.5" font-family="Helvetica,sans-Serif" font-size="10.00">iomanip</text>
</a>
</g>
</g>
<!-- Node19&#45;&gt;Node20 -->
<g id="edge27_Node000019_Node000020" class="edge">
<title>Node19&#45;&gt;Node20</title>
<g id="a_edge27_Node000019_Node000020"><a xlink:title=" ">
<path fill="none" stroke="#63b8ff" d="M994.24,-120.87C978,-111.36 951.65,-95.95 932.54,-84.77"/>
<polygon fill="#63b8ff" stroke="#63b8ff" points="934.21,-81.7 923.82,-79.67 930.68,-87.74 934.21,-81.7"/>
</a>
</g>
</g>
<!-- Node21 -->
<g id="Node000021" class="node">
<title>Node21</title>
<g id="a_Node000021"><a xlink:title=" ">
<polygon fill="#e0e0e0" stroke="#999999" points="1062.5,-85 955.5,-85 955.5,-55 1062.5,-55 1062.5,-85"/>
<text text-anchor="start" x="963.5" y="-73" font-family="Helvetica,sans-Serif" font-size="10.00">imgui&#45;platform&#45;kit</text>
<text text-anchor="middle" x="1009" y="-62" font-family="Helvetica,sans-Serif" font-size="10.00">/log_window.h</text>
</a>
</g>
</g>
<!-- Node19&#45;&gt;Node21 -->
<g id="edge28_Node000019_Node000021" class="edge">
<title>Node19&#45;&gt;Node21</title>
<g id="a_edge28_Node000019_Node000021"><a xlink:title=" ">
<path fill="none" stroke="#63b8ff" d="M1009,-120.87C1009,-114.11 1009,-104.35 1009,-95.26"/>
<polygon fill="#63b8ff" stroke="#63b8ff" points="1012.5,-95.11 1009,-85.11 1005.5,-95.11 1012.5,-95.11"/>
</a>
</g>
</g>
<!-- Node19&#45;&gt;Node22 -->
<g id="edge30_Node000019_Node000022" class="edge">
<title>Node19&#45;&gt;Node22</title>
<g id="a_edge30_Node000019_Node000022"><a xlink:title=" ">
<path fill="none" stroke="#63b8ff" d="M967.26,-127.57C834.81,-121.33 424.96,-101.2 293,-85 279.02,-83.28 263.74,-80.62 250.56,-78.08"/>
<polygon fill="#63b8ff" stroke="#63b8ff" points="251,-74.6 240.51,-76.08 249.64,-81.46 251,-74.6"/>
</a>
</g>
</g>
<!-- Node22&#45;&gt;Node5 -->
<g id="edge32_Node000022_Node000005" class="edge">
<title>Node22&#45;&gt;Node5</title>
<g id="a_edge32_Node000022_Node000005"><a xlink:title=" ">
<path fill="none" stroke="#63b8ff" d="M240.8,-62.17C277.04,-51.78 346.19,-31.95 387.49,-20.11"/>
<polygon fill="#63b8ff" stroke="#63b8ff" points="388.7,-23.4 397.35,-17.28 386.77,-16.67 388.7,-23.4"/>
</a>
</g>
</g>
<!-- Node22&#45;&gt;Node8 -->
<g id="edge31_Node000022_Node000008" class="edge">
<title>Node22&#45;&gt;Node8</title>
<g id="a_edge31_Node000022_Node000008"><a xlink:title=" ">
<path fill="none" stroke="#63b8ff" d="M240.77,-66.81C338.42,-57.83 708.83,-23.76 820.77,-13.46"/>
<polygon fill="#63b8ff" stroke="#63b8ff" points="821.14,-16.95 830.78,-12.54 820.5,-9.97 821.14,-16.95"/>
</a>
</g>
</g>
<!-- Node22&#45;&gt;Node9 -->
<g id="edge37_Node000022_Node000009" class="edge">
<title>Node22&#45;&gt;Node9</title>
<g id="a_edge37_Node000022_Node000009"><a xlink:title=" ">
<path fill="none" stroke="#63b8ff" d="M193.45,-61.47C162.3,-51.51 107.09,-33.86 70.51,-22.17"/>
<polygon fill="#63b8ff" stroke="#63b8ff" points="71.31,-18.75 60.72,-19.04 69.18,-25.42 71.31,-18.75"/>
</a>
</g>
</g>
<!-- Node22&#45;&gt;Node10 -->
<g id="edge36_Node000022_Node000010" class="edge">
<title>Node22&#45;&gt;Node10</title>
<g id="a_edge36_Node000022_Node000010"><a xlink:title=" ">
<path fill="none" stroke="#63b8ff" d="M233.82,-60.37C252.6,-50.73 283.2,-35.03 305.05,-23.81"/>
<polygon fill="#63b8ff" stroke="#63b8ff" points="306.81,-26.85 314.11,-19.17 303.61,-20.62 306.81,-26.85"/>
</a>
</g>
</g>
<!-- Node23 -->
<g id="Node000023" class="node">
<title>Node23</title>
<g id="a_Node000023"><a xlink:title=" ">
<polygon fill="#e0e0e0" stroke="#999999" points="288,-19 234,-19 234,0 288,0 288,-19"/>
<text text-anchor="middle" x="261" y="-7" font-family="Helvetica,sans-Serif" font-size="10.00">random</text>
</a>
</g>
</g>
<!-- Node22&#45;&gt;Node23 -->
<g id="edge33_Node000022_Node000023" class="edge">
<title>Node22&#45;&gt;Node23</title>
<g id="a_edge33_Node000022_Node000023"><a xlink:title=" ">
<path fill="none" stroke="#63b8ff" d="M223.49,-60.37C229.99,-51.73 240.16,-38.2 248.28,-27.42"/>
<polygon fill="#63b8ff" stroke="#63b8ff" points="251.27,-29.26 254.48,-19.17 245.67,-25.06 251.27,-29.26"/>
</a>
</g>
</g>
<!-- Node24 -->
<g id="Node000024" class="node">
<title>Node24</title>
<g id="a_Node000024"><a xlink:title=" ">
<polygon fill="#e0e0e0" stroke="#999999" points="142,-19 86,-19 86,0 142,0 142,-19"/>
<text text-anchor="middle" x="114" y="-7" font-family="Helvetica,sans-Serif" font-size="10.00">sstream</text>
</a>
</g>
</g>
<!-- Node22&#45;&gt;Node24 -->
<g id="edge34_Node000022_Node000024" class="edge">
<title>Node22&#45;&gt;Node24</title>
<g id="a_edge34_Node000022_Node000024"><a xlink:title=" ">
<path fill="none" stroke="#63b8ff" d="M201.8,-60.37C184.99,-50.82 157.68,-35.31 137.98,-24.12"/>
<polygon fill="#63b8ff" stroke="#63b8ff" points="139.68,-21.06 129.26,-19.17 136.23,-27.15 139.68,-21.06"/>
</a>
</g>
</g>
<!-- Node25 -->
<g id="Node000025" class="node">
<title>Node25</title>
<g id="a_Node000025"><a xlink:title=" ">
<polygon fill="#e0e0e0" stroke="#999999" points="215.5,-19 160.5,-19 160.5,0 215.5,0 215.5,-19"/>
<text text-anchor="middle" x="188" y="-7" font-family="Helvetica,sans-Serif" font-size="10.00">fstream</text>
</a>
</g>
</g>
<!-- Node22&#45;&gt;Node25 -->
<g id="edge35_Node000022_Node000025" class="edge">
<title>Node22&#45;&gt;Node25</title>
<g id="a_edge35_Node000022_Node000025"><a xlink:title=" ">
<path fill="none" stroke="#63b8ff" d="M212.72,-60.37C208.57,-51.99 202.13,-39.01 196.87,-28.39"/>
<polygon fill="#63b8ff" stroke="#63b8ff" points="199.87,-26.57 192.3,-19.17 193.6,-29.68 199.87,-26.57"/>
</a>
</g>
</g>
<!-- Node26&#45;&gt;Node8 -->
<g id="edge40_Node000026_Node000008" class="edge">
<title>Node26&#45;&gt;Node8</title>
<g id="a_edge40_Node000026_Node000008"><a xlink:title=" ">
<path fill="none" stroke="#63b8ff" d="M842.54,-175.71C838.68,-150.97 832.3,-98.59 839,-55 840.35,-46.19 843.13,-36.74 845.85,-28.82"/>
<polygon fill="#63b8ff" stroke="#63b8ff" points="849.23,-29.77 849.4,-19.18 842.66,-27.35 849.23,-29.77"/>
</a>
</g>
</g>
<!-- Node26&#45;&gt;Node19 -->
<g id="edge42_Node000026_Node000019" class="edge">
<title>Node26&#45;&gt;Node19</title>
<g id="a_edge42_Node000026_Node000019"><a xlink:title=" ">
<path fill="none" stroke="#63b8ff" d="M884.28,-175.99C912.01,-166.1 948.78,-152.98 975.2,-143.56"/>
<polygon fill="#63b8ff" stroke="#63b8ff" points="976.54,-146.8 984.78,-140.14 974.19,-140.2 976.54,-146.8"/>
</a>
</g>
</g>
<!-- Node27 -->
<g id="Node000027" class="node">
<title>Node27</title>
<g id="a_Node000027"><a xlink:title=" ">
<polygon fill="#e0e0e0" stroke="#999999" points="1107,-140 1069,-140 1069,-121 1107,-121 1107,-140"/>
<text text-anchor="middle" x="1088" y="-128" font-family="Helvetica,sans-Serif" font-size="10.00">map</text>
</a>
</g>
</g>
<!-- Node26&#45;&gt;Node27 -->
<g id="edge39_Node000026_Node000027" class="edge">
<title>Node26&#45;&gt;Node27</title>
<g id="a_edge39_Node000026_Node000027"><a xlink:title=" ">
<path fill="none" stroke="#63b8ff" d="M909.38,-175.94C951.98,-166.39 1009,-153.16 1059,-140 1059.1,-139.97 1059.2,-139.95 1059.3,-139.92"/>
<polygon fill="#63b8ff" stroke="#63b8ff" points="1059.99,-143.36 1068.7,-137.32 1058.13,-136.61 1059.99,-143.36"/>
</a>
</g>
</g>
<!-- Node28 -->
<g id="Node000028" class="node">
<title>Node28</title>
<g id="a_Node000028"><a xlink:title=" ">
<polygon fill="#e0e0e0" stroke="#999999" points="787,-140 737,-140 737,-121 787,-121 787,-140"/>
<text text-anchor="middle" x="762" y="-128" font-family="Helvetica,sans-Serif" font-size="10.00">format</text>
</a>
</g>
</g>
<!-- Node26&#45;&gt;Node28 -->
<g id="edge41_Node000026_Node000028" class="edge">
<title>Node26&#45;&gt;Node28</title>
<g id="a_edge41_Node000026_Node000028"><a xlink:title=" ">
<path fill="none" stroke="#63b8ff" d="M824.91,-175.84C812.12,-166.83 795.6,-155.18 782.7,-146.09"/>
<polygon fill="#63b8ff" stroke="#63b8ff" points="784.63,-143.17 774.44,-140.27 780.59,-148.89 784.63,-143.17"/>
</a>
</g>
</g>
<!-- Node30 -->
<g id="Node000030" class="node">
<title>Node30</title>
<g id="a_Node000030"><a xlink:href="plot__parameters_8h.html" target="_top" xlink:title=" ">
<polygon fill="white" stroke="#666666" points="1269,-200.5 1163,-200.5 1163,-181.5 1269,-181.5 1269,-200.5"/>
<text text-anchor="middle" x="1216" y="-188.5" font-family="Helvetica,sans-Serif" font-size="10.00">plot_parameters.h</text>
</a>
</g>
</g>
<!-- Node29&#45;&gt;Node30 -->
<g id="edge47_Node000029_Node000030" class="edge">
<title>Node29&#45;&gt;Node30</title>
<g id="a_edge47_Node000029_Node000030"><a xlink:title=" ">
<path fill="none" stroke="#63b8ff" d="M1362.91,-242.85C1334.28,-232.94 1284.08,-215.57 1250.43,-203.92"/>
<polygon fill="#63b8ff" stroke="#63b8ff" points="1251.16,-200.47 1240.57,-200.5 1248.87,-207.08 1251.16,-200.47"/>
</a>
</g>
</g>
<!-- Node30&#45;&gt;Node5 -->
<g id="edge50_Node000030_Node000005" class="edge">
<title>Node30&#45;&gt;Node5</title>
<g id="a_edge50_Node000030_Node000005"><a xlink:title=" ">
<path fill="none" stroke="#63b8ff" d="M1217.34,-181.33C1220.57,-156.98 1225.87,-87.69 1188,-55 1159.86,-30.71 599.14,-14.98 454.7,-11.32"/>
<polygon fill="#63b8ff" stroke="#63b8ff" points="454.74,-7.82 444.65,-11.07 454.56,-14.82 454.74,-7.82"/>
</a>
</g>
</g>
<!-- Node30&#45;&gt;Node8 -->
<g id="edge49_Node000030_Node000008" class="edge">
<title>Node30&#45;&gt;Node8</title>
<g id="a_edge49_Node000030_Node000008"><a xlink:title=" ">
<path fill="none" stroke="#63b8ff" d="M1219.87,-181.39C1229.83,-157.81 1253.36,-91.51 1221,-55 1198.87,-30.03 971.1,-16.31 885.38,-12"/>
<polygon fill="#63b8ff" stroke="#63b8ff" points="885.35,-8.5 875.19,-11.5 885.01,-15.49 885.35,-8.5"/>
</a>
</g>
</g>
<!-- Node30&#45;&gt;Node19 -->
<g id="edge51_Node000030_Node000019" class="edge">
<title>Node30&#45;&gt;Node19</title>
<g id="a_edge51_Node000030_Node000019"><a xlink:title=" ">
<path fill="none" stroke="#63b8ff" d="M1185.9,-181.49C1149.72,-171.27 1088.89,-154.08 1048.84,-142.76"/>
<polygon fill="#63b8ff" stroke="#63b8ff" points="1049.71,-139.37 1039.14,-140.02 1047.81,-146.1 1049.71,-139.37"/>
</a>
</g>
</g>
<!-- Node30&#45;&gt;Node27 -->
<g id="edge48_Node000030_Node000027" class="edge">
<title>Node30&#45;&gt;Node27</title>
<g id="a_edge48_Node000030_Node000027"><a xlink:title=" ">
<path fill="none" stroke="#63b8ff" d="M1197.39,-181.49C1175.96,-171.7 1140.56,-155.52 1115.85,-144.23"/>
<polygon fill="#63b8ff" stroke="#63b8ff" points="1117.18,-140.99 1106.63,-140.02 1114.28,-147.36 1117.18,-140.99"/>
</a>
</g>
</g>
<!-- Node31&#45;&gt;Node29 -->
<g id="edge54_Node000031_Node000029" class="edge">
<title>Node31&#45;&gt;Node29</title>
<g id="a_edge54_Node000031_Node000029"><a xlink:title=" ">
<path fill="none" stroke="#63b8ff" d="M1411.72,-296.75C1407.29,-289.42 1400.84,-278.73 1395.38,-269.7"/>
<polygon fill="#63b8ff" stroke="#63b8ff" points="1398.35,-267.84 1390.19,-261.09 1392.36,-271.46 1398.35,-267.84"/>
</a>
</g>
</g>
<!-- Node32&#45;&gt;Node29 -->
<g id="edge56_Node000032_Node000029" class="edge">
<title>Node32&#45;&gt;Node29</title>
<g id="a_edge56_Node000032_Node000029"><a xlink:title=" ">
<path fill="none" stroke="#63b8ff" d="M1254.9,-296.98C1281.54,-287.88 1323.88,-273.4 1352.98,-263.45"/>
<polygon fill="#63b8ff" stroke="#63b8ff" points="1354.34,-266.68 1362.67,-260.13 1352.08,-260.06 1354.34,-266.68"/>
</a>
</g>
</g>
<!-- Node33&#45;&gt;Node3 -->
<g id="edge62_Node000033_Node000003" class="edge">
<title>Node33&#45;&gt;Node3</title>
<g id="a_edge62_Node000033_Node000003"><a xlink:title=" ">
<path fill="none" stroke="#63b8ff" d="M928.23,-423.37C970.85,-411.96 1046.02,-391.83 1093.03,-379.24"/>
<polygon fill="#63b8ff" stroke="#63b8ff" points="1094.14,-382.56 1102.9,-376.6 1092.33,-375.8 1094.14,-382.56"/>
</a>
</g>
</g>
<!-- Node33&#45;&gt;Node6 -->
<g id="edge61_Node000033_Node000006" class="edge">
<title>Node33&#45;&gt;Node6</title>
<g id="a_edge61_Node000033_Node000006"><a xlink:title=" ">
<path fill="none" stroke="#63b8ff" d="M852.38,-423.45C841.21,-421.46 829.18,-419.49 818,-418 726.24,-405.81 483.36,-427.95 403,-382 380.88,-369.35 365.67,-343.28 357.39,-325.59"/>
<polygon fill="#63b8ff" stroke="#63b8ff" points="360.54,-324.06 353.32,-316.3 354.13,-326.87 360.54,-324.06"/>
</a>
</g>
</g>
<!-- Node33&#45;&gt;Node16 -->
<g id="edge60_Node000033_Node000016" class="edge">
<title>Node33&#45;&gt;Node16</title>
<g id="a_edge60_Node000033_Node000016"><a xlink:title=" ">
<path fill="none" stroke="#63b8ff" d="M964.74,-426.03C1132.09,-410.56 1547,-366.29 1547,-307.5 1547,-307.5 1547,-307.5 1547,-190 1547,-125.13 1470.03,-95.17 1409.51,-81.64"/>
<polygon fill="#63b8ff" stroke="#63b8ff" points="1410.09,-78.18 1399.58,-79.53 1408.63,-85.03 1410.09,-78.18"/>
</a>
</g>
</g>
<!-- Node34 -->
<g id="Node000034" class="node">
<title>Node34</title>
<g id="a_Node000034"><a xlink:title=" ">
<polygon fill="#e0e0e0" stroke="#999999" points="1040.5,-376.5 971.5,-376.5 971.5,-357.5 1040.5,-357.5 1040.5,-376.5"/>
<text text-anchor="middle" x="1006" y="-364.5" font-family="Helvetica,sans-Serif" font-size="10.00">type_traits</text>
</a>
</g>
</g>
<!-- Node33&#45;&gt;Node34 -->
<g id="edge58_Node000033_Node000034" class="edge">
<title>Node33&#45;&gt;Node34</title>
<g id="a_edge58_Node000033_Node000034"><a xlink:title=" ">
<path fill="none" stroke="#63b8ff" d="M910.84,-423.37C929.12,-412.73 960.44,-394.51 982.13,-381.89"/>
<polygon fill="#63b8ff" stroke="#63b8ff" points="984.17,-384.75 991.05,-376.7 980.64,-378.7 984.17,-384.75"/>
</a>
</g>
</g>
<!-- Node35 -->
<g id="Node000035" class="node">
<title>Node35</title>
<g id="a_Node000035"><a xlink:title=" ">
<polygon fill="#e0e0e0" stroke="#999999" points="519.5,-382 412.5,-382 412.5,-352 519.5,-352 519.5,-382"/>
<text text-anchor="start" x="420.5" y="-370" font-family="Helvetica,sans-Serif" font-size="10.00">imgui&#45;platform&#45;kit</text>
<text text-anchor="middle" x="466" y="-359" font-family="Helvetica,sans-Serif" font-size="10.00">/user_interface.h</text>
</a>
</g>
</g>
<!-- Node33&#45;&gt;Node35 -->
<g id="edge59_Node000033_Node000035" class="edge">
<title>Node33&#45;&gt;Node35</title>
<g id="a_edge59_Node000033_Node000035"><a xlink:title=" ">
<path fill="none" stroke="#63b8ff" d="M850.7,-423.44C840,-421.54 828.61,-419.61 818,-418 692.85,-399.02 657.71,-404.05 529.89,-382.23"/>
<polygon fill="#63b8ff" stroke="#63b8ff" points="530.15,-378.72 519.7,-380.47 528.96,-385.62 530.15,-378.72"/>
</a>
</g>
</g>
<!-- Node36 -->
<g id="Node000036" class="node">
<title>Node36</title>
<g id="a_Node000036"><a xlink:href="IconsFontAwesome6_8h.html" target="_top" xlink:title=" ">
<polygon fill="white" stroke="#666666" points="666.5,-382 537.5,-382 537.5,-352 666.5,-352 666.5,-382"/>
<text text-anchor="start" x="545.5" y="-370" font-family="Helvetica,sans-Serif" font-size="10.00">user_interface/fonts</text>
<text text-anchor="middle" x="602" y="-359" font-family="Helvetica,sans-Serif" font-size="10.00">/IconsFontAwesome6.h</text>
</a>
</g>
</g>
<!-- Node33&#45;&gt;Node36 -->
<g id="edge63_Node000033_Node000036" class="edge">
<title>Node33&#45;&gt;Node36</title>
<g id="a_edge63_Node000033_Node000036"><a xlink:title=" ">
<path fill="none" stroke="#63b8ff" d="M856.65,-423.44C810.75,-413.44 733.84,-396.7 676.53,-384.22"/>
<polygon fill="#63b8ff" stroke="#63b8ff" points="676.94,-380.73 666.43,-382.02 675.45,-387.57 676.94,-380.73"/>
</a>
</g>
</g>
<!-- Node37 -->
<g id="Node000037" class="node">
<title>Node37</title>
<g id="a_Node000037"><a xlink:href="fa_8h.html" target="_top" xlink:title=" ">
<polygon fill="white" stroke="#666666" points="821,-376.5 685,-376.5 685,-357.5 821,-357.5 821,-376.5"/>
<text text-anchor="middle" x="753" y="-364.5" font-family="Helvetica,sans-Serif" font-size="10.00">user_interface/fonts/fa.h</text>
</a>
</g>
</g>
<!-- Node33&#45;&gt;Node37 -->
<g id="edge64_Node000033_Node000037" class="edge">
<title>Node33&#45;&gt;Node37</title>
<g id="a_edge64_Node000033_Node000037"><a xlink:title=" ">
<path fill="none" stroke="#63b8ff" d="M876.71,-423.37C852.3,-412.44 810.03,-393.52 781.79,-380.88"/>
<polygon fill="#63b8ff" stroke="#63b8ff" points="782.99,-377.59 772.44,-376.7 780.13,-383.98 782.99,-377.59"/>
</a>
</g>
</g>
<!-- Node38 -->
<g id="Node000038" class="node">
<title>Node38</title>
<g id="a_Node000038"><a xlink:href="imgui__freetype_8h.html" target="_top" xlink:title=" ">
<polygon fill="white" stroke="#666666" points="953,-382 839,-382 839,-352 953,-352 953,-382"/>
<text text-anchor="start" x="847" y="-370" font-family="Helvetica,sans-Serif" font-size="10.00">user_interface/fonts</text>
<text text-anchor="middle" x="896" y="-359" font-family="Helvetica,sans-Serif" font-size="10.00">/imgui_freetype.h</text>
</a>
</g>
</g>
<!-- Node33&#45;&gt;Node38 -->
<g id="edge65_Node000033_Node000038" class="edge">
<title>Node33&#45;&gt;Node38</title>
<g id="a_edge65_Node000033_Node000038"><a xlink:title=" ">
<path fill="none" stroke="#63b8ff" d="M896,-423.37C896,-415.49 896,-403.45 896,-392.6"/>
<polygon fill="#63b8ff" stroke="#63b8ff" points="899.5,-392.36 896,-382.36 892.5,-392.36 899.5,-392.36"/>
</a>
</g>
</g>
<!-- Node39 -->
<g id="Node000039" class="node">
<title>Node39</title>
<g id="a_Node000039"><a xlink:title=" ">
<polygon fill="#e0e0e0" stroke="#999999" points="265.5,-316 212.5,-316 212.5,-297 265.5,-297 265.5,-316"/>
<text text-anchor="middle" x="239" y="-304" font-family="Helvetica,sans-Serif" font-size="10.00">imgui.h</text>
</a>
</g>
</g>
<!-- Node38&#45;&gt;Node39 -->
<g id="edge66_Node000038_Node000039" class="edge">
<title>Node38&#45;&gt;Node39</title>
<g id="a_edge66_Node000038_Node000039"><a xlink:title=" ">
<path fill="none" stroke="#63b8ff" d="M838.85,-353.35C835.86,-352.85 832.9,-352.4 830,-352 588.36,-318.71 521.23,-351.64 275.58,-315.79"/>
<polygon fill="#63b8ff" stroke="#63b8ff" points="276.05,-312.32 265.64,-314.31 275.02,-319.24 276.05,-312.32"/>
</a>
</g>
</g>
</g>
</svg>
