<?xml version="1.0" encoding="UTF-8" standalone="no"?>
<!DOCTYPE svg PUBLIC "-//W3C//DTD SVG 1.1//EN"
 "http://www.w3.org/Graphics/SVG/1.1/DTD/svg11.dtd">
<!-- Generated by graphviz version 2.43.0 (0)
 -->
<!-- Title: src/user_interface/plot_control_window.cpp Pages: 1 -->
<svg width="1404pt" height="588pt"
 viewBox="0.00 0.00 1404.00 588.00" xmlns="http://www.w3.org/2000/svg" xmlns:xlink="http://www.w3.org/1999/xlink">
<g id="graph0" class="graph" transform="scale(1 1) rotate(0) translate(4 584)">
<title>src/user_interface/plot_control_window.cpp</title>
<!-- Node1 -->
<g id="Node000001" class="node">
<title>Node1</title>
<g id="a_Node000001"><a xlink:title=" ">
<polygon fill="#999999" stroke="#666666" points="584,-580 444,-580 444,-550 584,-550 584,-580"/>
<text text-anchor="start" x="452" y="-568" font-family="Helvetica,sans-Serif" font-size="10.00">src/user_interface</text>
<text text-anchor="middle" x="514" y="-557" font-family="Helvetica,sans-Serif" font-size="10.00">/plot_control_window.cpp</text>
</a>
</g>
</g>
<!-- Node2 -->
<g id="Node000002" class="node">
<title>Node2</title>
<g id="a_Node000002"><a xlink:href="plot__control__window_8h.html" target="_top" xlink:title=" ">
<polygon fill="white" stroke="#666666" points="511,-514 403,-514 403,-484 511,-484 511,-514"/>
<text text-anchor="start" x="411" y="-502" font-family="Helvetica,sans-Serif" font-size="10.00">user_interface/plot</text>
<text text-anchor="middle" x="457" y="-491" font-family="Helvetica,sans-Serif" font-size="10.00">_control_window.h</text>
</a>
</g>
</g>
<!-- Node1&#45;&gt;Node2 -->
<g id="edge1_Node000001_Node000002" class="edge">
<title>Node1&#45;&gt;Node2</title>
<g id="a_edge1_Node000001_Node000002"><a xlink:title=" ">
<path fill="none" stroke="#63b8ff" d="M501.35,-549.8C494.04,-541.59 484.7,-531.1 476.48,-521.87"/>
<polygon fill="#63b8ff" stroke="#63b8ff" points="478.88,-519.3 469.61,-514.16 473.65,-523.96 478.88,-519.3"/>
</a>
</g>
</g>
<!-- Node40 -->
<g id="Node000040" class="node">
<title>Node40</title>
<g id="a_Node000040"><a xlink:title=" ">
<polygon fill="#e0e0e0" stroke="#999999" points="615,-508.5 529,-508.5 529,-489.5 615,-489.5 615,-508.5"/>
<text text-anchor="middle" x="572" y="-496.5" font-family="Helvetica,sans-Serif" font-size="10.00">unordered_set</text>
</a>
</g>
</g>
<!-- Node1&#45;&gt;Node40 -->
<g id="edge66_Node000001_Node000040" class="edge">
<title>Node1&#45;&gt;Node40</title>
<g id="a_edge66_Node000001_Node000040"><a xlink:title=" ">
<path fill="none" stroke="#63b8ff" d="M526.87,-549.8C535.83,-539.92 547.79,-526.72 557.14,-516.39"/>
<polygon fill="#63b8ff" stroke="#63b8ff" points="559.86,-518.6 563.98,-508.84 554.68,-513.9 559.86,-518.6"/>
</a>
</g>
</g>
<!-- Node3 -->
<g id="Node000003" class="node">
<title>Node3</title>
<g id="a_Node000003"><a xlink:title=" ">
<polygon fill="#e0e0e0" stroke="#999999" points="429,-448 289,-448 289,-418 429,-418 429,-448"/>
<text text-anchor="start" x="297" y="-436" font-family="Helvetica,sans-Serif" font-size="10.00">imgui&#45;platform&#45;kit</text>
<text text-anchor="middle" x="359" y="-425" font-family="Helvetica,sans-Serif" font-size="10.00">/user_interface_window.h</text>
</a>
</g>
</g>
<!-- Node2&#45;&gt;Node3 -->
<g id="edge2_Node000002_Node000003" class="edge">
<title>Node2&#45;&gt;Node3</title>
<g id="a_edge2_Node000002_Node000003"><a xlink:title=" ">
<path fill="none" stroke="#63b8ff" d="M435.25,-483.8C421.67,-474.93 404.01,-463.39 389.1,-453.66"/>
<polygon fill="#63b8ff" stroke="#63b8ff" points="390.98,-450.7 380.69,-448.16 387.15,-456.56 390.98,-450.7"/>
</a>
</g>
</g>
<!-- Node4 -->
<g id="Node000004" class="node">
<title>Node4</title>
<g id="a_Node000004"><a xlink:href="visualization_8h.html" target="_top" xlink:title=" ">
<polygon fill="white" stroke="#666666" points="400.5,-376.5 247.5,-376.5 247.5,-357.5 400.5,-357.5 400.5,-376.5"/>
<text text-anchor="middle" x="324" y="-364.5" font-family="Helvetica,sans-Serif" font-size="10.00">visualization/visualization.h</text>
</a>
</g>
</g>
<!-- Node2&#45;&gt;Node4 -->
<g id="edge3_Node000002_Node000004" class="edge">
<title>Node2&#45;&gt;Node4</title>
<g id="a_edge3_Node000002_Node000004"><a xlink:title=" ">
<path fill="none" stroke="#63b8ff" d="M457.29,-483.9C456.9,-466.49 453.73,-436.85 438,-418 422.2,-399.06 397.84,-387.07 375.68,-379.6"/>
<polygon fill="#63b8ff" stroke="#63b8ff" points="376.61,-376.23 366.02,-376.57 374.52,-382.91 376.61,-376.23"/>
</a>
</g>
</g>
<!-- Node33 -->
<g id="Node000033" class="node">
<title>Node33</title>
<g id="a_Node000033"><a xlink:href="application_8h.html" target="_top" xlink:title=" ">
<polygon fill="white" stroke="#666666" points="755.5,-442.5 618.5,-442.5 618.5,-423.5 755.5,-423.5 755.5,-442.5"/>
<text text-anchor="middle" x="687" y="-430.5" font-family="Helvetica,sans-Serif" font-size="10.00">application/application.h</text>
</a>
</g>
</g>
<!-- Node2&#45;&gt;Node33 -->
<g id="edge56_Node000002_Node000033" class="edge">
<title>Node2&#45;&gt;Node33</title>
<g id="a_edge56_Node000002_Node000033"><a xlink:title=" ">
<path fill="none" stroke="#63b8ff" d="M507.47,-483.95C549.23,-472.34 607.77,-456.05 646.51,-445.27"/>
<polygon fill="#63b8ff" stroke="#63b8ff" points="647.7,-448.57 656.39,-442.52 645.82,-441.83 647.7,-448.57"/>
</a>
</g>
</g>
<!-- Node5 -->
<g id="Node000005" class="node">
<title>Node5</title>
<g id="a_Node000005"><a xlink:title=" ">
<polygon fill="#e0e0e0" stroke="#999999" points="164,-79.5 104,-79.5 104,-60.5 164,-60.5 164,-79.5"/>
<text text-anchor="middle" x="134" y="-67.5" font-family="Helvetica,sans-Serif" font-size="10.00">iostream</text>
</a>
</g>
</g>
<!-- Node4&#45;&gt;Node5 -->
<g id="edge4_Node000004_Node000005" class="edge">
<title>Node4&#45;&gt;Node5</title>
<g id="a_edge4_Node000004_Node000005"><a xlink:title=" ">
<path fill="none" stroke="#63b8ff" d="M247.27,-359.79C187.15,-353.15 110.5,-340.13 91,-316 35.48,-247.3 96.12,-131.99 122.75,-88.4"/>
<polygon fill="#63b8ff" stroke="#63b8ff" points="125.8,-90.12 128.15,-79.79 119.87,-86.4 125.8,-90.12"/>
</a>
</g>
</g>
<!-- Node6 -->
<g id="Node000006" class="node">
<title>Node6</title>
<g id="a_Node000006"><a xlink:title=" ">
<polygon fill="#e0e0e0" stroke="#999999" points="70.5,-19 23.5,-19 23.5,0 70.5,0 70.5,-19"/>
<text text-anchor="middle" x="47" y="-7" font-family="Helvetica,sans-Serif" font-size="10.00">vector</text>
</a>
</g>
</g>
<!-- Node4&#45;&gt;Node6 -->
<g id="edge5_Node000004_Node000006" class="edge">
<title>Node4&#45;&gt;Node6</title>
<g id="a_edge5_Node000004_Node000006"><a xlink:title=" ">
<path fill="none" stroke="#63b8ff" d="M247.39,-360.41C196.72,-354.39 129.95,-341.89 76,-316 36.32,-296.95 0,-296.52 0,-252.5 0,-252.5 0,-252.5 0,-129.5 0,-91.02 21.53,-50.12 35.44,-27.7"/>
<polygon fill="#63b8ff" stroke="#63b8ff" points="38.39,-29.59 40.86,-19.28 32.5,-25.8 38.39,-29.59"/>
</a>
</g>
</g>
<!-- Node7 -->
<g id="Node000007" class="node">
<title>Node7</title>
<g id="a_Node000007"><a xlink:href="simulation_8h.html" target="_top" xlink:title=" ">
<polygon fill="white" stroke="#666666" points="584,-316 452,-316 452,-297 584,-297 584,-316"/>
<text text-anchor="middle" x="518" y="-304" font-family="Helvetica,sans-Serif" font-size="10.00">simulation/simulation.h</text>
</a>
</g>
</g>
<!-- Node4&#45;&gt;Node7 -->
<g id="edge6_Node000004_Node000007" class="edge">
<title>Node4&#45;&gt;Node7</title>
<g id="a_edge6_Node000004_Node000007"><a xlink:title=" ">
<path fill="none" stroke="#63b8ff" d="M352.21,-357.49C385.97,-347.31 442.65,-330.22 480.18,-318.9"/>
<polygon fill="#63b8ff" stroke="#63b8ff" points="481.19,-322.25 489.76,-316.02 479.17,-315.55 481.19,-322.25"/>
</a>
</g>
</g>
<!-- Node17 -->
<g id="Node000017" class="node">
<title>Node17</title>
<g id="a_Node000017"><a xlink:href="exception_8h.html" target="_top" xlink:title=" ">
<polygon fill="white" stroke="#666666" points="1083,-79.5 953,-79.5 953,-60.5 1083,-60.5 1083,-79.5"/>
<text text-anchor="middle" x="1018" y="-67.5" font-family="Helvetica,sans-Serif" font-size="10.00">exceptions/exception.h</text>
</a>
</g>
</g>
<!-- Node4&#45;&gt;Node17 -->
<g id="edge44_Node000004_Node000017" class="edge">
<title>Node4&#45;&gt;Node17</title>
<g id="a_edge44_Node000004_Node000017"><a xlink:title=" ">
<path fill="none" stroke="#63b8ff" d="M400.82,-360.23C617.19,-343.48 1216,-293.43 1216,-252.5 1216,-252.5 1216,-252.5 1216,-190 1216,-126.12 1139.35,-95.66 1081.43,-81.77"/>
<polygon fill="#63b8ff" stroke="#63b8ff" points="1082.11,-78.33 1071.58,-79.52 1080.55,-85.16 1082.11,-78.33"/>
</a>
</g>
</g>
<!-- Node19 -->
<g id="Node000019" class="node">
<title>Node19</title>
<g id="a_Node000019"><a xlink:href="logger_8h.html" target="_top" xlink:title=" ">
<polygon fill="white" stroke="#666666" points="431.5,-140 348.5,-140 348.5,-121 431.5,-121 431.5,-140"/>
<text text-anchor="middle" x="390" y="-128" font-family="Helvetica,sans-Serif" font-size="10.00">tools/logger.h</text>
</a>
</g>
</g>
<!-- Node4&#45;&gt;Node19 -->
<g id="edge51_Node000004_Node000019" class="edge">
<title>Node4&#45;&gt;Node19</title>
<g id="a_edge51_Node000004_Node000019"><a xlink:title=" ">
<path fill="none" stroke="#63b8ff" d="M247.4,-358.4C192.22,-351.15 124.51,-338.01 107,-316 86.52,-290.27 88.45,-269.16 107,-242 158.96,-165.93 271.75,-142.22 338.18,-134.84"/>
<polygon fill="#63b8ff" stroke="#63b8ff" points="338.83,-138.29 348.42,-133.79 338.12,-131.33 338.83,-138.29"/>
</a>
</g>
</g>
<!-- Node29 -->
<g id="Node000029" class="node">
<title>Node29</title>
<g id="a_Node000029"><a xlink:href="plot_8h.html" target="_top" xlink:title=" ">
<polygon fill="white" stroke="#666666" points="160,-261 116,-261 116,-242 160,-242 160,-261"/>
<text text-anchor="middle" x="138" y="-249" font-family="Helvetica,sans-Serif" font-size="10.00">plot.h</text>
</a>
</g>
</g>
<!-- Node4&#45;&gt;Node29 -->
<g id="edge45_Node000004_Node000029" class="edge">
<title>Node4&#45;&gt;Node29</title>
<g id="a_edge45_Node000004_Node000029"><a xlink:title=" ">
<path fill="none" stroke="#63b8ff" d="M317.81,-357.13C307.28,-342.65 284.54,-313.87 259,-297 231.59,-278.89 195.83,-266.92 170.31,-260"/>
<polygon fill="#63b8ff" stroke="#63b8ff" points="170.96,-256.55 160.4,-257.42 169.2,-263.33 170.96,-256.55"/>
</a>
</g>
</g>
<!-- Node31 -->
<g id="Node000031" class="node">
<title>Node31</title>
<g id="a_Node000031"><a xlink:href="lineplot_8h.html" target="_top" xlink:title=" ">
<polygon fill="white" stroke="#666666" points="434,-316 306,-316 306,-297 434,-297 434,-316"/>
<text text-anchor="middle" x="370" y="-304" font-family="Helvetica,sans-Serif" font-size="10.00">visualization/lineplot.h</text>
</a>
</g>
</g>
<!-- Node4&#45;&gt;Node31 -->
<g id="edge52_Node000004_Node000031" class="edge">
<title>Node4&#45;&gt;Node31</title>
<g id="a_edge52_Node000004_Node000031"><a xlink:title=" ">
<path fill="none" stroke="#63b8ff" d="M330.79,-357.37C337.65,-348.64 348.43,-334.93 356.95,-324.09"/>
<polygon fill="#63b8ff" stroke="#63b8ff" points="359.75,-326.19 363.18,-316.17 354.25,-321.86 359.75,-326.19"/>
</a>
</g>
</g>
<!-- Node32 -->
<g id="Node000032" class="node">
<title>Node32</title>
<g id="a_Node000032"><a xlink:href="heatmap_8h.html" target="_top" xlink:title=" ">
<polygon fill="white" stroke="#666666" points="250,-316 116,-316 116,-297 250,-297 250,-316"/>
<text text-anchor="middle" x="183" y="-304" font-family="Helvetica,sans-Serif" font-size="10.00">visualization/heatmap.h</text>
</a>
</g>
</g>
<!-- Node4&#45;&gt;Node32 -->
<g id="edge54_Node000004_Node000032" class="edge">
<title>Node4&#45;&gt;Node32</title>
<g id="a_edge54_Node000004_Node000032"><a xlink:title=" ">
<path fill="none" stroke="#63b8ff" d="M303.5,-357.49C279.69,-347.62 240.21,-331.23 212.96,-319.93"/>
<polygon fill="#63b8ff" stroke="#63b8ff" points="214.11,-316.62 203.53,-316.02 211.42,-323.08 214.11,-316.62"/>
</a>
</g>
</g>
<!-- Node7&#45;&gt;Node6 -->
<g id="edge7_Node000007_Node000006" class="edge">
<title>Node7&#45;&gt;Node6</title>
<g id="a_edge7_Node000007_Node000006"><a xlink:title=" ">
<path fill="none" stroke="#63b8ff" d="M458.96,-296.96C389.19,-286.59 280.35,-269.45 263,-261 158.05,-209.85 129.58,-184.18 68,-85 57.39,-67.91 52.01,-45.34 49.37,-29.54"/>
<polygon fill="#63b8ff" stroke="#63b8ff" points="52.8,-28.79 47.89,-19.4 45.87,-29.8 52.8,-28.79"/>
</a>
</g>
</g>
<!-- Node8 -->
<g id="Node000008" class="node">
<title>Node8</title>
<g id="a_Node000008"><a xlink:title=" ">
<polygon fill="#e0e0e0" stroke="#999999" points="550,-200.5 492,-200.5 492,-181.5 550,-181.5 550,-200.5"/>
<text text-anchor="middle" x="521" y="-188.5" font-family="Helvetica,sans-Serif" font-size="10.00">memory</text>
</a>
</g>
</g>
<!-- Node7&#45;&gt;Node8 -->
<g id="edge8_Node000007_Node000008" class="edge">
<title>Node7&#45;&gt;Node8</title>
<g id="a_edge8_Node000007_Node000008"><a xlink:title=" ">
<path fill="none" stroke="#63b8ff" d="M518.23,-296.97C518.71,-278.73 519.85,-235.57 520.51,-210.64"/>
<polygon fill="#63b8ff" stroke="#63b8ff" points="524.01,-210.72 520.77,-200.63 517.01,-210.53 524.01,-210.72"/>
</a>
</g>
</g>
<!-- Node9 -->
<g id="Node000009" class="node">
<title>Node9</title>
<g id="a_Node000009"><a xlink:title=" ">
<polygon fill="#e0e0e0" stroke="#999999" points="670,-19 626,-19 626,0 670,0 670,-19"/>
<text text-anchor="middle" x="648" y="-7" font-family="Helvetica,sans-Serif" font-size="10.00">string</text>
</a>
</g>
</g>
<!-- Node7&#45;&gt;Node9 -->
<g id="edge9_Node000007_Node000009" class="edge">
<title>Node7&#45;&gt;Node9</title>
<g id="a_edge9_Node000007_Node000009"><a xlink:title=" ">
<path fill="none" stroke="#63b8ff" d="M511.52,-296.85C496.25,-275.32 460.91,-218.06 483,-176 491.28,-160.23 603.63,-98.72 615,-85 628.79,-68.36 637.87,-45.06 642.96,-28.96"/>
<polygon fill="#63b8ff" stroke="#63b8ff" points="646.38,-29.72 645.84,-19.14 639.66,-27.75 646.38,-29.72"/>
</a>
</g>
</g>
<!-- Node10 -->
<g id="Node000010" class="node">
<title>Node10</title>
<g id="a_Node000010"><a xlink:title=" ">
<polygon fill="#e0e0e0" stroke="#999999" points="614,-261 546,-261 546,-242 614,-242 614,-261"/>
<text text-anchor="middle" x="580" y="-249" font-family="Helvetica,sans-Serif" font-size="10.00">filesystem</text>
</a>
</g>
</g>
<!-- Node7&#45;&gt;Node10 -->
<g id="edge10_Node000007_Node000010" class="edge">
<title>Node7&#45;&gt;Node10</title>
<g id="a_edge10_Node000007_Node000010"><a xlink:title=" ">
<path fill="none" stroke="#63b8ff" d="M527.96,-296.98C537.13,-289.15 550.94,-277.34 562.03,-267.86"/>
<polygon fill="#63b8ff" stroke="#63b8ff" points="564.53,-270.33 569.86,-261.17 559.98,-265.01 564.53,-270.33"/>
</a>
</g>
</g>
<!-- Node11 -->
<g id="Node000011" class="node">
<title>Node11</title>
<g id="a_Node000011"><a xlink:title=" ">
<polygon fill="#e0e0e0" stroke="#999999" points="359,-19 309,-19 309,0 359,0 359,-19"/>
<text text-anchor="middle" x="334" y="-7" font-family="Helvetica,sans-Serif" font-size="10.00">chrono</text>
</a>
</g>
</g>
<!-- Node7&#45;&gt;Node11 -->
<g id="edge11_Node000007_Node000011" class="edge">
<title>Node7&#45;&gt;Node11</title>
<g id="a_edge11_Node000007_Node000011"><a xlink:title=" ">
<path fill="none" stroke="#63b8ff" d="M488.06,-296.99C427.46,-278.87 296,-234.64 296,-192 296,-192 296,-192 296,-129.5 296,-92.07 313.27,-51.03 324.52,-28.25"/>
<polygon fill="#63b8ff" stroke="#63b8ff" points="327.74,-29.65 329.19,-19.15 321.51,-26.46 327.74,-29.65"/>
</a>
</g>
</g>
<!-- Node12 -->
<g id="Node000012" class="node">
<title>Node12</title>
<g id="a_Node000012"><a xlink:href="element_8h.html" target="_top" xlink:title=" ">
<polygon fill="white" stroke="#666666" points="823.5,-261 708.5,-261 708.5,-242 823.5,-242 823.5,-261"/>
<text text-anchor="middle" x="766" y="-249" font-family="Helvetica,sans-Serif" font-size="10.00">elements/element.h</text>
</a>
</g>
</g>
<!-- Node7&#45;&gt;Node12 -->
<g id="edge12_Node000007_Node000012" class="edge">
<title>Node7&#45;&gt;Node12</title>
<g id="a_edge12_Node000007_Node000012"><a xlink:title=" ">
<path fill="none" stroke="#63b8ff" d="M557.85,-296.98C600.83,-287.8 669.37,-273.15 715.96,-263.19"/>
<polygon fill="#63b8ff" stroke="#63b8ff" points="716.79,-266.59 725.84,-261.08 715.33,-259.75 716.79,-266.59"/>
</a>
</g>
</g>
<!-- Node7&#45;&gt;Node17 -->
<g id="edge42_Node000007_Node000017" class="edge">
<title>Node7&#45;&gt;Node17</title>
<g id="a_edge42_Node000007_Node000017"><a xlink:title=" ">
<path fill="none" stroke="#63b8ff" d="M584.21,-305.66C732.88,-304.46 1085.97,-292.38 1159,-206 1200.61,-156.78 1102.6,-106.19 1049.44,-83.43"/>
<polygon fill="#63b8ff" stroke="#63b8ff" points="1050.65,-80.14 1040.07,-79.51 1047.95,-86.6 1050.65,-80.14"/>
</a>
</g>
</g>
<!-- Node22 -->
<g id="Node000022" class="node">
<title>Node22</title>
<g id="a_Node000022"><a xlink:href="utils_8h.html" target="_top" xlink:title=" ">
<polygon fill="white" stroke="#666666" points="267.5,-79.5 220.5,-79.5 220.5,-60.5 267.5,-60.5 267.5,-79.5"/>
<text text-anchor="middle" x="244" y="-67.5" font-family="Helvetica,sans-Serif" font-size="10.00">utils.h</text>
</a>
</g>
</g>
<!-- Node7&#45;&gt;Node22 -->
<g id="edge43_Node000007_Node000022" class="edge">
<title>Node7&#45;&gt;Node22</title>
<g id="a_edge43_Node000007_Node000022"><a xlink:title=" ">
<path fill="none" stroke="#63b8ff" d="M452.58,-296.96C387.02,-287.81 294.12,-272.98 282,-261 235.18,-214.7 237.74,-128.11 241.54,-89.92"/>
<polygon fill="#63b8ff" stroke="#63b8ff" points="245.05,-90.06 242.71,-79.72 238.1,-89.26 245.05,-90.06"/>
</a>
</g>
</g>
<!-- Node12&#45;&gt;Node6 -->
<g id="edge13_Node000012_Node000006" class="edge">
<title>Node12&#45;&gt;Node6</title>
<g id="a_edge13_Node000012_Node000006"><a xlink:title=" ">
<path fill="none" stroke="#63b8ff" d="M708.41,-246C596.45,-237.07 357.21,-217.03 321,-206 212.01,-172.81 178.75,-162.24 95,-85 77.39,-68.76 63.45,-44.72 55.22,-28.37"/>
<polygon fill="#63b8ff" stroke="#63b8ff" points="58.36,-26.81 50.86,-19.33 52.05,-29.85 58.36,-26.81"/>
</a>
</g>
</g>
<!-- Node12&#45;&gt;Node8 -->
<g id="edge16_Node000012_Node000008" class="edge">
<title>Node12&#45;&gt;Node8</title>
<g id="a_edge16_Node000012_Node000008"><a xlink:title=" ">
<path fill="none" stroke="#63b8ff" d="M721.16,-241.93C680.02,-233.76 617.53,-220.57 564,-206 561.23,-205.25 558.37,-204.42 555.51,-203.56"/>
<polygon fill="#63b8ff" stroke="#63b8ff" points="556.48,-200.2 545.89,-200.56 554.39,-206.88 556.48,-200.2"/>
</a>
</g>
</g>
<!-- Node12&#45;&gt;Node9 -->
<g id="edge14_Node000012_Node000009" class="edge">
<title>Node12&#45;&gt;Node9</title>
<g id="a_edge14_Node000012_Node000009"><a xlink:title=" ">
<path fill="none" stroke="#63b8ff" d="M766.4,-241.84C767.05,-220.29 766.67,-162.98 747,-121 728.22,-80.91 690.02,-44.84 666.96,-25.46"/>
<polygon fill="#63b8ff" stroke="#63b8ff" points="669.16,-22.74 659.2,-19.1 664.72,-28.15 669.16,-22.74"/>
</a>
</g>
</g>
<!-- Node13 -->
<g id="Node000013" class="node">
<title>Node13</title>
<g id="a_Node000013"><a xlink:title=" ">
<polygon fill="#e0e0e0" stroke="#999999" points="925.5,-200.5 832.5,-200.5 832.5,-181.5 925.5,-181.5 925.5,-200.5"/>
<text text-anchor="middle" x="879" y="-188.5" font-family="Helvetica,sans-Serif" font-size="10.00">unordered_map</text>
</a>
</g>
</g>
<!-- Node12&#45;&gt;Node13 -->
<g id="edge15_Node000012_Node000013" class="edge">
<title>Node12&#45;&gt;Node13</title>
<g id="a_edge15_Node000012_Node000013"><a xlink:title=" ">
<path fill="none" stroke="#63b8ff" d="M782.67,-241.87C801.28,-232.23 831.62,-216.53 853.28,-205.31"/>
<polygon fill="#63b8ff" stroke="#63b8ff" points="854.99,-208.37 862.26,-200.67 851.77,-202.16 854.99,-208.37"/>
</a>
</g>
</g>
<!-- Node14 -->
<g id="Node000014" class="node">
<title>Node14</title>
<g id="a_Node000014"><a xlink:title=" ">
<polygon fill="#e0e0e0" stroke="#999999" points="994,-200.5 944,-200.5 944,-181.5 994,-181.5 994,-200.5"/>
<text text-anchor="middle" x="969" y="-188.5" font-family="Helvetica,sans-Serif" font-size="10.00">ranges</text>
</a>
</g>
</g>
<!-- Node12&#45;&gt;Node14 -->
<g id="edge17_Node000012_Node000014" class="edge">
<title>Node12&#45;&gt;Node14</title>
<g id="a_edge17_Node000012_Node000014"><a xlink:title=" ">
<path fill="none" stroke="#63b8ff" d="M804.35,-241.94C838.89,-233.87 890.85,-220.83 935,-206 936.62,-205.46 938.28,-204.87 939.94,-204.26"/>
<polygon fill="#63b8ff" stroke="#63b8ff" points="941.34,-207.47 949.39,-200.59 938.8,-200.95 941.34,-207.47"/>
</a>
</g>
</g>
<!-- Node15 -->
<g id="Node000015" class="node">
<title>Node15</title>
<g id="a_Node000015"><a xlink:title=" ">
<polygon fill="#e0e0e0" stroke="#999999" points="1076,-200.5 1012,-200.5 1012,-181.5 1076,-181.5 1076,-200.5"/>
<text text-anchor="middle" x="1044" y="-188.5" font-family="Helvetica,sans-Serif" font-size="10.00">algorithm</text>
</a>
</g>
</g>
<!-- Node12&#45;&gt;Node15 -->
<g id="edge18_Node000012_Node000015" class="edge">
<title>Node12&#45;&gt;Node15</title>
<g id="a_edge18_Node000012_Node000015"><a xlink:title=" ">
<path fill="none" stroke="#63b8ff" d="M823.98,-242C872.29,-234.35 942.68,-221.88 1003,-206 1005.64,-205.31 1008.35,-204.53 1011.06,-203.7"/>
<polygon fill="#63b8ff" stroke="#63b8ff" points="1012.31,-206.98 1020.76,-200.58 1010.17,-200.31 1012.31,-206.98"/>
</a>
</g>
</g>
<!-- Node16 -->
<g id="Node000016" class="node">
<title>Node16</title>
<g id="a_Node000016"><a xlink:title=" ">
<polygon fill="#e0e0e0" stroke="#999999" points="1150,-200.5 1094,-200.5 1094,-181.5 1150,-181.5 1150,-200.5"/>
<text text-anchor="middle" x="1122" y="-188.5" font-family="Helvetica,sans-Serif" font-size="10.00">numeric</text>
</a>
</g>
</g>
<!-- Node12&#45;&gt;Node16 -->
<g id="edge19_Node000012_Node000016" class="edge">
<title>Node12&#45;&gt;Node16</title>
<g id="a_edge19_Node000012_Node000016"><a xlink:title=" ">
<path fill="none" stroke="#63b8ff" d="M823.5,-246.36C887.96,-240.83 995.2,-228.95 1085,-206 1087.45,-205.38 1089.95,-204.64 1092.45,-203.84"/>
<polygon fill="#63b8ff" stroke="#63b8ff" points="1093.62,-207.14 1101.91,-200.53 1091.31,-200.53 1093.62,-207.14"/>
</a>
</g>
</g>
<!-- Node12&#45;&gt;Node17 -->
<g id="edge20_Node000012_Node000017" class="edge">
<title>Node12&#45;&gt;Node17</title>
<g id="a_edge20_Node000012_Node000017"><a xlink:title=" ">
<path fill="none" stroke="#63b8ff" d="M771.13,-241.74C780.23,-226.76 800.48,-195.92 824,-176 874.62,-133.13 945.56,-100.2 986.14,-83.39"/>
<polygon fill="#63b8ff" stroke="#63b8ff" points="987.59,-86.58 995.53,-79.56 984.95,-80.09 987.59,-86.58"/>
</a>
</g>
</g>
<!-- Node12&#45;&gt;Node19 -->
<g id="edge23_Node000012_Node000019" class="edge">
<title>Node12&#45;&gt;Node19</title>
<g id="a_edge23_Node000012_Node000019"><a xlink:title=" ">
<path fill="none" stroke="#63b8ff" d="M712.62,-241.98C678.61,-235.21 634.28,-223.85 598,-206 578.38,-196.34 578.63,-185.64 559,-176 521.7,-157.68 475.93,-146.22 441.43,-139.53"/>
<polygon fill="#63b8ff" stroke="#63b8ff" points="442.04,-136.08 431.57,-137.69 440.75,-142.96 442.04,-136.08"/>
</a>
</g>
</g>
<!-- Node26 -->
<g id="Node000026" class="node">
<title>Node26</title>
<g id="a_Node000026"><a xlink:href="element__parameters_8h.html" target="_top" xlink:title=" ">
<polygon fill="white" stroke="#666666" points="737.5,-206 606.5,-206 606.5,-176 737.5,-176 737.5,-206"/>
<text text-anchor="start" x="614.5" y="-194" font-family="Helvetica,sans-Serif" font-size="10.00">element_parameters</text>
<text text-anchor="middle" x="672" y="-183" font-family="Helvetica,sans-Serif" font-size="10.00">/element_parameters.h</text>
</a>
</g>
</g>
<!-- Node12&#45;&gt;Node26 -->
<g id="edge37_Node000012_Node000026" class="edge">
<title>Node12&#45;&gt;Node26</title>
<g id="a_edge37_Node000012_Node000026"><a xlink:title=" ">
<path fill="none" stroke="#63b8ff" d="M752.13,-241.87C739.38,-233.93 720,-221.87 703.49,-211.6"/>
<polygon fill="#63b8ff" stroke="#63b8ff" points="705.02,-208.43 694.68,-206.11 701.32,-214.37 705.02,-208.43"/>
</a>
</g>
</g>
<!-- Node17&#45;&gt;Node9 -->
<g id="edge22_Node000017_Node000009" class="edge">
<title>Node17&#45;&gt;Node9</title>
<g id="a_edge22_Node000017_Node000009"><a xlink:title=" ">
<path fill="none" stroke="#63b8ff" d="M964.2,-60.49C886.14,-48.15 743.87,-25.66 680.25,-15.6"/>
<polygon fill="#63b8ff" stroke="#63b8ff" points="680.45,-12.09 670.02,-13.98 679.35,-19 680.45,-12.09"/>
</a>
</g>
</g>
<!-- Node18 -->
<g id="Node000018" class="node">
<title>Node18</title>
<g id="a_Node000018"><a xlink:title=" ">
<polygon fill="#e0e0e0" stroke="#999999" points="1050.5,-19 985.5,-19 985.5,0 1050.5,0 1050.5,-19"/>
<text text-anchor="middle" x="1018" y="-7" font-family="Helvetica,sans-Serif" font-size="10.00">exception</text>
</a>
</g>
</g>
<!-- Node17&#45;&gt;Node18 -->
<g id="edge21_Node000017_Node000018" class="edge">
<title>Node17&#45;&gt;Node18</title>
<g id="a_edge21_Node000017_Node000018"><a xlink:title=" ">
<path fill="none" stroke="#63b8ff" d="M1018,-60.37C1018,-52.25 1018,-39.81 1018,-29.39"/>
<polygon fill="#63b8ff" stroke="#63b8ff" points="1021.5,-29.17 1018,-19.17 1014.5,-29.17 1021.5,-29.17"/>
</a>
</g>
</g>
<!-- Node19&#45;&gt;Node5 -->
<g id="edge24_Node000019_Node000005" class="edge">
<title>Node19&#45;&gt;Node5</title>
<g id="a_edge24_Node000019_Node000005"><a xlink:title=" ">
<path fill="none" stroke="#63b8ff" d="M352.78,-120.99C305.13,-110.11 222.92,-91.32 173.98,-80.14"/>
<polygon fill="#63b8ff" stroke="#63b8ff" points="174.6,-76.69 164.07,-77.87 173.04,-83.51 174.6,-76.69"/>
</a>
</g>
</g>
<!-- Node19&#45;&gt;Node9 -->
<g id="edge25_Node000019_Node000009" class="edge">
<title>Node19&#45;&gt;Node9</title>
<g id="a_edge25_Node000019_Node000009"><a xlink:title=" ">
<path fill="none" stroke="#63b8ff" d="M431.84,-122.83C465.79,-116.32 514.21,-104.5 553,-85 569.36,-76.78 607.62,-45.09 630.28,-25.79"/>
<polygon fill="#63b8ff" stroke="#63b8ff" points="632.81,-28.23 638.13,-19.07 628.26,-22.92 632.81,-28.23"/>
</a>
</g>
</g>
<!-- Node19&#45;&gt;Node11 -->
<g id="edge26_Node000019_Node000011" class="edge">
<title>Node19&#45;&gt;Node11</title>
<g id="a_edge26_Node000019_Node000011"><a xlink:title=" ">
<path fill="none" stroke="#63b8ff" d="M380.73,-120.83C372.3,-112.43 360.12,-98.96 353,-85 343.92,-67.2 338.96,-44.75 336.41,-29.17"/>
<polygon fill="#63b8ff" stroke="#63b8ff" points="339.87,-28.59 334.95,-19.2 332.94,-29.6 339.87,-28.59"/>
</a>
</g>
</g>
<!-- Node19&#45;&gt;Node17 -->
<g id="edge29_Node000019_Node000017" class="edge">
<title>Node19&#45;&gt;Node17</title>
<g id="a_edge29_Node000019_Node000017"><a xlink:title=" ">
<path fill="none" stroke="#63b8ff" d="M431.69,-125.62C535.95,-115.9 809.17,-90.45 942.56,-78.03"/>
<polygon fill="#63b8ff" stroke="#63b8ff" points="943.06,-81.5 952.69,-77.08 942.41,-74.53 943.06,-81.5"/>
</a>
</g>
</g>
<!-- Node20 -->
<g id="Node000020" class="node">
<title>Node20</title>
<g id="a_Node000020"><a xlink:title=" ">
<polygon fill="#e0e0e0" stroke="#999999" points="418,-79.5 362,-79.5 362,-60.5 418,-60.5 418,-79.5"/>
<text text-anchor="middle" x="390" y="-67.5" font-family="Helvetica,sans-Serif" font-size="10.00">iomanip</text>
</a>
</g>
</g>
<!-- Node19&#45;&gt;Node20 -->
<g id="edge27_Node000019_Node000020" class="edge">
<title>Node19&#45;&gt;Node20</title>
<g id="a_edge27_Node000019_Node000020"><a xlink:title=" ">
<path fill="none" stroke="#63b8ff" d="M390,-120.87C390,-112.75 390,-100.31 390,-89.89"/>
<polygon fill="#63b8ff" stroke="#63b8ff" points="393.5,-89.67 390,-79.67 386.5,-89.67 393.5,-89.67"/>
</a>
</g>
</g>
<!-- Node21 -->
<g id="Node000021" class="node">
<title>Node21</title>
<g id="a_Node000021"><a xlink:title=" ">
<polygon fill="#e0e0e0" stroke="#999999" points="543.5,-85 436.5,-85 436.5,-55 543.5,-55 543.5,-85"/>
<text text-anchor="start" x="444.5" y="-73" font-family="Helvetica,sans-Serif" font-size="10.00">imgui&#45;platform&#45;kit</text>
<text text-anchor="middle" x="490" y="-62" font-family="Helvetica,sans-Serif" font-size="10.00">/log_window.h</text>
</a>
</g>
</g>
<!-- Node19&#45;&gt;Node21 -->
<g id="edge28_Node000019_Node000021" class="edge">
<title>Node19&#45;&gt;Node21</title>
<g id="a_edge28_Node000019_Node000021"><a xlink:title=" ">
<path fill="none" stroke="#63b8ff" d="M404.76,-120.87C418.45,-112.86 439.32,-100.65 456.98,-90.31"/>
<polygon fill="#63b8ff" stroke="#63b8ff" points="459.01,-93.19 465.87,-85.11 455.47,-87.14 459.01,-93.19"/>
</a>
</g>
</g>
<!-- Node19&#45;&gt;Node22 -->
<g id="edge30_Node000019_Node000022" class="edge">
<title>Node19&#45;&gt;Node22</title>
<g id="a_edge30_Node000019_Node000022"><a xlink:title=" ">
<path fill="none" stroke="#63b8ff" d="M368.77,-120.99C344.01,-111.07 302.88,-94.59 274.65,-83.28"/>
<polygon fill="#63b8ff" stroke="#63b8ff" points="275.84,-79.99 265.26,-79.52 273.24,-86.49 275.84,-79.99"/>
</a>
</g>
</g>
<!-- Node22&#45;&gt;Node6 -->
<g id="edge32_Node000022_Node000006" class="edge">
<title>Node22&#45;&gt;Node6</title>
<g id="a_edge32_Node000022_Node000006"><a xlink:title=" ">
<path fill="none" stroke="#63b8ff" d="M221.6,-60.41C216.5,-58.55 211.08,-56.64 206,-55 182.73,-47.47 119.83,-30.21 80.48,-19.53"/>
<polygon fill="#63b8ff" stroke="#63b8ff" points="81.35,-16.14 70.78,-16.9 79.52,-22.9 81.35,-16.14"/>
</a>
</g>
</g>
<!-- Node22&#45;&gt;Node9 -->
<g id="edge31_Node000022_Node000009" class="edge">
<title>Node22&#45;&gt;Node9</title>
<g id="a_edge31_Node000022_Node000009"><a xlink:title=" ">
<path fill="none" stroke="#63b8ff" d="M267.76,-65.56C336.58,-55.59 536.14,-26.7 615.19,-15.25"/>
<polygon fill="#63b8ff" stroke="#63b8ff" points="616.12,-18.65 625.52,-13.76 615.12,-11.72 616.12,-18.65"/>
</a>
</g>
</g>
<!-- Node22&#45;&gt;Node11 -->
<g id="edge36_Node000022_Node000011" class="edge">
<title>Node22&#45;&gt;Node11</title>
<g id="a_edge36_Node000022_Node000011"><a xlink:title=" ">
<path fill="none" stroke="#63b8ff" d="M257.28,-60.37C271.64,-51.04 294.76,-36.01 311.87,-24.88"/>
<polygon fill="#63b8ff" stroke="#63b8ff" points="314.19,-27.55 320.67,-19.17 310.37,-21.68 314.19,-27.55"/>
</a>
</g>
</g>
<!-- Node23 -->
<g id="Node000023" class="node">
<title>Node23</title>
<g id="a_Node000023"><a xlink:title=" ">
<polygon fill="#e0e0e0" stroke="#999999" points="143,-19 89,-19 89,0 143,0 143,-19"/>
<text text-anchor="middle" x="116" y="-7" font-family="Helvetica,sans-Serif" font-size="10.00">random</text>
</a>
</g>
</g>
<!-- Node22&#45;&gt;Node23 -->
<g id="edge33_Node000022_Node000023" class="edge">
<title>Node22&#45;&gt;Node23</title>
<g id="a_edge33_Node000022_Node000023"><a xlink:title=" ">
<path fill="none" stroke="#63b8ff" d="M225.39,-60.49C203.96,-50.7 168.56,-34.52 143.85,-23.23"/>
<polygon fill="#63b8ff" stroke="#63b8ff" points="145.18,-19.99 134.63,-19.02 142.28,-26.36 145.18,-19.99"/>
</a>
</g>
</g>
<!-- Node24 -->
<g id="Node000024" class="node">
<title>Node24</title>
<g id="a_Node000024"><a xlink:title=" ">
<polygon fill="#e0e0e0" stroke="#999999" points="217,-19 161,-19 161,0 217,0 217,-19"/>
<text text-anchor="middle" x="189" y="-7" font-family="Helvetica,sans-Serif" font-size="10.00">sstream</text>
</a>
</g>
</g>
<!-- Node22&#45;&gt;Node24 -->
<g id="edge34_Node000022_Node000024" class="edge">
<title>Node22&#45;&gt;Node24</title>
<g id="a_edge34_Node000022_Node000024"><a xlink:title=" ">
<path fill="none" stroke="#63b8ff" d="M235.88,-60.37C227.6,-51.55 214.53,-37.66 204.3,-26.77"/>
<polygon fill="#63b8ff" stroke="#63b8ff" points="206.55,-24.06 197.15,-19.17 201.45,-28.85 206.55,-24.06"/>
</a>
</g>
</g>
<!-- Node25 -->
<g id="Node000025" class="node">
<title>Node25</title>
<g id="a_Node000025"><a xlink:title=" ">
<polygon fill="#e0e0e0" stroke="#999999" points="290.5,-19 235.5,-19 235.5,0 290.5,0 290.5,-19"/>
<text text-anchor="middle" x="263" y="-7" font-family="Helvetica,sans-Serif" font-size="10.00">fstream</text>
</a>
</g>
</g>
<!-- Node22&#45;&gt;Node25 -->
<g id="edge35_Node000022_Node000025" class="edge">
<title>Node22&#45;&gt;Node25</title>
<g id="a_edge35_Node000022_Node000025"><a xlink:title=" ">
<path fill="none" stroke="#63b8ff" d="M246.8,-60.37C249.5,-52.07 253.65,-39.28 257.08,-28.72"/>
<polygon fill="#63b8ff" stroke="#63b8ff" points="260.42,-29.76 260.18,-19.17 253.77,-27.6 260.42,-29.76"/>
</a>
</g>
</g>
<!-- Node26&#45;&gt;Node9 -->
<g id="edge39_Node000026_Node000009" class="edge">
<title>Node26&#45;&gt;Node9</title>
<g id="a_edge39_Node000026_Node000009"><a xlink:title=" ">
<path fill="none" stroke="#63b8ff" d="M672.02,-175.67C671.81,-150.86 670.32,-98.39 662,-55 660.32,-46.25 657.5,-36.8 654.83,-28.87"/>
<polygon fill="#63b8ff" stroke="#63b8ff" points="658.04,-27.46 651.4,-19.21 651.45,-29.81 658.04,-27.46"/>
</a>
</g>
</g>
<!-- Node26&#45;&gt;Node19 -->
<g id="edge41_Node000026_Node000019" class="edge">
<title>Node26&#45;&gt;Node19</title>
<g id="a_edge41_Node000026_Node000019"><a xlink:title=" ">
<path fill="none" stroke="#63b8ff" d="M606.24,-176.36C555.9,-165.92 487.46,-151.72 441.17,-142.11"/>
<polygon fill="#63b8ff" stroke="#63b8ff" points="441.85,-138.68 431.35,-140.08 440.43,-145.54 441.85,-138.68"/>
</a>
</g>
</g>
<!-- Node27 -->
<g id="Node000027" class="node">
<title>Node27</title>
<g id="a_Node000027"><a xlink:title=" ">
<polygon fill="#e0e0e0" stroke="#999999" points="632,-140 594,-140 594,-121 632,-121 632,-140"/>
<text text-anchor="middle" x="613" y="-128" font-family="Helvetica,sans-Serif" font-size="10.00">map</text>
</a>
</g>
</g>
<!-- Node26&#45;&gt;Node27 -->
<g id="edge38_Node000026_Node000027" class="edge">
<title>Node26&#45;&gt;Node27</title>
<g id="a_edge38_Node000026_Node000027"><a xlink:title=" ">
<path fill="none" stroke="#63b8ff" d="M657.72,-175.84C649.07,-167.26 638.01,-156.3 629.06,-147.42"/>
<polygon fill="#63b8ff" stroke="#63b8ff" points="631.41,-144.82 621.84,-140.27 626.48,-149.79 631.41,-144.82"/>
</a>
</g>
</g>
<!-- Node28 -->
<g id="Node000028" class="node">
<title>Node28</title>
<g id="a_Node000028"><a xlink:title=" ">
<polygon fill="#e0e0e0" stroke="#999999" points="738,-140 688,-140 688,-121 738,-121 738,-140"/>
<text text-anchor="middle" x="713" y="-128" font-family="Helvetica,sans-Serif" font-size="10.00">format</text>
</a>
</g>
</g>
<!-- Node26&#45;&gt;Node28 -->
<g id="edge40_Node000026_Node000028" class="edge">
<title>Node26&#45;&gt;Node28</title>
<g id="a_edge40_Node000026_Node000028"><a xlink:title=" ">
<path fill="none" stroke="#63b8ff" d="M681.92,-175.84C687.69,-167.61 695,-157.18 701.08,-148.51"/>
<polygon fill="#63b8ff" stroke="#63b8ff" points="703.98,-150.46 706.86,-140.27 698.25,-146.45 703.98,-150.46"/>
</a>
</g>
</g>
<!-- Node30 -->
<g id="Node000030" class="node">
<title>Node30</title>
<g id="a_Node000030"><a xlink:href="plot__parameters_8h.html" target="_top" xlink:title=" ">
<polygon fill="white" stroke="#666666" points="436,-200.5 330,-200.5 330,-181.5 436,-181.5 436,-200.5"/>
<text text-anchor="middle" x="383" y="-188.5" font-family="Helvetica,sans-Serif" font-size="10.00">plot_parameters.h</text>
</a>
</g>
</g>
<!-- Node29&#45;&gt;Node30 -->
<g id="edge46_Node000029_Node000030" class="edge">
<title>Node29&#45;&gt;Node30</title>
<g id="a_edge46_Node000029_Node000030"><a xlink:title=" ">
<path fill="none" stroke="#63b8ff" d="M160.17,-245.21C200.12,-235.67 284.91,-215.42 337.62,-202.84"/>
<polygon fill="#63b8ff" stroke="#63b8ff" points="338.47,-206.23 347.38,-200.5 336.84,-199.42 338.47,-206.23"/>
</a>
</g>
</g>
<!-- Node30&#45;&gt;Node6 -->
<g id="edge49_Node000030_Node000006" class="edge">
<title>Node30&#45;&gt;Node6</title>
<g id="a_edge49_Node000030_Node000006"><a xlink:title=" ">
<path fill="none" stroke="#63b8ff" d="M367.56,-181.25C337.16,-163.87 267.66,-123.34 212,-85 193.99,-72.59 192.22,-65.44 173,-55 143.31,-38.87 106.61,-26.69 80.49,-19.18"/>
<polygon fill="#63b8ff" stroke="#63b8ff" points="81.27,-15.77 70.69,-16.45 79.38,-22.51 81.27,-15.77"/>
</a>
</g>
</g>
<!-- Node30&#45;&gt;Node9 -->
<g id="edge48_Node000030_Node000009" class="edge">
<title>Node30&#45;&gt;Node9</title>
<g id="a_edge48_Node000030_Node000009"><a xlink:title=" ">
<path fill="none" stroke="#63b8ff" d="M406.85,-181.44C446.93,-166.28 529.08,-131.84 587,-85 607.43,-68.48 625.76,-44.17 636.88,-27.85"/>
<polygon fill="#63b8ff" stroke="#63b8ff" points="639.94,-29.56 642.55,-19.29 634.11,-25.7 639.94,-29.56"/>
</a>
</g>
</g>
<!-- Node30&#45;&gt;Node19 -->
<g id="edge50_Node000030_Node000019" class="edge">
<title>Node30&#45;&gt;Node19</title>
<g id="a_edge50_Node000030_Node000019"><a xlink:title=" ">
<path fill="none" stroke="#63b8ff" d="M384.03,-181.37C385,-173.25 386.49,-160.81 387.74,-150.39"/>
<polygon fill="#63b8ff" stroke="#63b8ff" points="391.25,-150.51 388.96,-140.17 384.3,-149.68 391.25,-150.51"/>
</a>
</g>
</g>
<!-- Node30&#45;&gt;Node27 -->
<g id="edge47_Node000030_Node000027" class="edge">
<title>Node30&#45;&gt;Node27</title>
<g id="a_edge47_Node000030_Node000027"><a xlink:title=" ">
<path fill="none" stroke="#63b8ff" d="M416.44,-181.49C461.56,-170.02 541.19,-149.76 583.94,-138.89"/>
<polygon fill="#63b8ff" stroke="#63b8ff" points="584.89,-142.26 593.72,-136.4 583.16,-135.48 584.89,-142.26"/>
</a>
</g>
</g>
<!-- Node31&#45;&gt;Node29 -->
<g id="edge53_Node000031_Node000029" class="edge">
<title>Node31&#45;&gt;Node29</title>
<g id="a_edge53_Node000031_Node000029"><a xlink:title=" ">
<path fill="none" stroke="#63b8ff" d="M332.04,-296.98C292.54,-288.1 228.9,-273.71 174,-261 172.73,-260.71 171.44,-260.41 170.14,-260.1"/>
<polygon fill="#63b8ff" stroke="#63b8ff" points="170.61,-256.62 160.08,-257.74 169.01,-263.43 170.61,-256.62"/>
</a>
</g>
</g>
<!-- Node32&#45;&gt;Node29 -->
<g id="edge55_Node000032_Node000029" class="edge">
<title>Node32&#45;&gt;Node29</title>
<g id="a_edge55_Node000032_Node000029"><a xlink:title=" ">
<path fill="none" stroke="#63b8ff" d="M175.57,-296.75C169.15,-289.18 159.69,-278.05 151.88,-268.84"/>
<polygon fill="#63b8ff" stroke="#63b8ff" points="154.43,-266.45 145.29,-261.09 149.1,-270.98 154.43,-266.45"/>
</a>
</g>
</g>
<!-- Node33&#45;&gt;Node4 -->
<g id="edge61_Node000033_Node000004" class="edge">
<title>Node33&#45;&gt;Node4</title>
<g id="a_edge61_Node000033_Node000004"><a xlink:title=" ">
<path fill="none" stroke="#63b8ff" d="M638.42,-423.44C572.13,-411.75 453.48,-390.83 382.42,-378.3"/>
<polygon fill="#63b8ff" stroke="#63b8ff" points="382.75,-374.8 372.29,-376.51 381.53,-381.7 382.75,-374.8"/>
</a>
</g>
</g>
<!-- Node33&#45;&gt;Node7 -->
<g id="edge60_Node000033_Node000007" class="edge">
<title>Node33&#45;&gt;Node7</title>
<g id="a_edge60_Node000033_Node000007"><a xlink:title=" ">
<path fill="none" stroke="#63b8ff" d="M618.48,-423.47C590.07,-416.62 558.93,-404.26 538,-382 523.84,-366.94 519.48,-342.95 518.26,-326.28"/>
<polygon fill="#63b8ff" stroke="#63b8ff" points="521.75,-325.95 517.83,-316.11 514.75,-326.24 521.75,-325.95"/>
</a>
</g>
</g>
<!-- Node33&#45;&gt;Node17 -->
<g id="edge59_Node000033_Node000017" class="edge">
<title>Node33&#45;&gt;Node17</title>
<g id="a_edge59_Node000033_Node000017"><a xlink:title=" ">
<path fill="none" stroke="#63b8ff" d="M755.68,-431.22C906.63,-427.65 1254,-408.47 1254,-307.5 1254,-307.5 1254,-307.5 1254,-190 1254,-116.74 1162.22,-88.58 1093.13,-77.75"/>
<polygon fill="#63b8ff" stroke="#63b8ff" points="1093.52,-74.27 1083.11,-76.28 1092.5,-81.2 1093.52,-74.27"/>
</a>
</g>
</g>
<!-- Node34 -->
<g id="Node000034" class="node">
<title>Node34</title>
<g id="a_Node000034"><a xlink:title=" ">
<polygon fill="#e0e0e0" stroke="#999999" points="615.5,-376.5 546.5,-376.5 546.5,-357.5 615.5,-357.5 615.5,-376.5"/>
<text text-anchor="middle" x="581" y="-364.5" font-family="Helvetica,sans-Serif" font-size="10.00">type_traits</text>
</a>
</g>
</g>
<!-- Node33&#45;&gt;Node34 -->
<g id="edge57_Node000033_Node000034" class="edge">
<title>Node33&#45;&gt;Node34</title>
<g id="a_edge57_Node000033_Node000034"><a xlink:title=" ">
<path fill="none" stroke="#63b8ff" d="M672.7,-423.37C655.08,-412.73 624.91,-394.51 604.01,-381.89"/>
<polygon fill="#63b8ff" stroke="#63b8ff" points="605.78,-378.87 595.41,-376.7 602.16,-384.86 605.78,-378.87"/>
</a>
</g>
</g>
<!-- Node35 -->
<g id="Node000035" class="node">
<title>Node35</title>
<g id="a_Node000035"><a xlink:title=" ">
<polygon fill="#e0e0e0" stroke="#999999" points="740.5,-382 633.5,-382 633.5,-352 740.5,-352 740.5,-382"/>
<text text-anchor="start" x="641.5" y="-370" font-family="Helvetica,sans-Serif" font-size="10.00">imgui&#45;platform&#45;kit</text>
<text text-anchor="middle" x="687" y="-359" font-family="Helvetica,sans-Serif" font-size="10.00">/user_interface.h</text>
</a>
</g>
</g>
<!-- Node33&#45;&gt;Node35 -->
<g id="edge58_Node000033_Node000035" class="edge">
<title>Node33&#45;&gt;Node35</title>
<g id="a_edge58_Node000033_Node000035"><a xlink:title=" ">
<path fill="none" stroke="#63b8ff" d="M687,-423.37C687,-415.49 687,-403.45 687,-392.6"/>
<polygon fill="#63b8ff" stroke="#63b8ff" points="690.5,-392.36 687,-382.36 683.5,-392.36 690.5,-392.36"/>
</a>
</g>
</g>
<!-- Node36 -->
<g id="Node000036" class="node">
<title>Node36</title>
<g id="a_Node000036"><a xlink:href="IconsFontAwesome6_8h.html" target="_top" xlink:title=" ">
<polygon fill="white" stroke="#666666" points="887.5,-382 758.5,-382 758.5,-352 887.5,-352 887.5,-382"/>
<text text-anchor="start" x="766.5" y="-370" font-family="Helvetica,sans-Serif" font-size="10.00">user_interface/fonts</text>
<text text-anchor="middle" x="823" y="-359" font-family="Helvetica,sans-Serif" font-size="10.00">/IconsFontAwesome6.h</text>
</a>
</g>
</g>
<!-- Node33&#45;&gt;Node36 -->
<g id="edge62_Node000033_Node000036" class="edge">
<title>Node33&#45;&gt;Node36</title>
<g id="a_edge62_Node000033_Node000036"><a xlink:title=" ">
<path fill="none" stroke="#63b8ff" d="M705.34,-423.37C725.36,-413.95 758,-398.59 783.83,-386.43"/>
<polygon fill="#63b8ff" stroke="#63b8ff" points="785.45,-389.54 793,-382.12 782.47,-383.21 785.45,-389.54"/>
</a>
</g>
</g>
<!-- Node37 -->
<g id="Node000037" class="node">
<title>Node37</title>
<g id="a_Node000037"><a xlink:href="fa_8h.html" target="_top" xlink:title=" ">
<polygon fill="white" stroke="#666666" points="1042,-376.5 906,-376.5 906,-357.5 1042,-357.5 1042,-376.5"/>
<text text-anchor="middle" x="974" y="-364.5" font-family="Helvetica,sans-Serif" font-size="10.00">user_interface/fonts/fa.h</text>
</a>
</g>
</g>
<!-- Node33&#45;&gt;Node37 -->
<g id="edge63_Node000033_Node000037" class="edge">
<title>Node33&#45;&gt;Node37</title>
<g id="a_edge63_Node000033_Node000037"><a xlink:title=" ">
<path fill="none" stroke="#63b8ff" d="M725.41,-423.44C777.17,-411.89 869.33,-391.34 925.72,-378.77"/>
<polygon fill="#63b8ff" stroke="#63b8ff" points="926.82,-382.11 935.82,-376.51 925.3,-375.27 926.82,-382.11"/>
</a>
</g>
</g>
<!-- Node38 -->
<g id="Node000038" class="node">
<title>Node38</title>
<g id="a_Node000038"><a xlink:href="imgui__freetype_8h.html" target="_top" xlink:title=" ">
<polygon fill="white" stroke="#666666" points="1396,-382 1282,-382 1282,-352 1396,-352 1396,-382"/>
<text text-anchor="start" x="1290" y="-370" font-family="Helvetica,sans-Serif" font-size="10.00">user_interface/fonts</text>
<text text-anchor="middle" x="1339" y="-359" font-family="Helvetica,sans-Serif" font-size="10.00">/imgui_freetype.h</text>
</a>
</g>
</g>
<!-- Node33&#45;&gt;Node38 -->
<g id="edge64_Node000033_Node000038" class="edge">
<title>Node33&#45;&gt;Node38</title>
<g id="a_edge64_Node000033_Node000038"><a xlink:title=" ">
<path fill="none" stroke="#63b8ff" d="M755.7,-428.52C864.7,-422.44 1083.8,-408.01 1268,-382 1269.26,-381.82 1270.53,-381.64 1271.81,-381.44"/>
<polygon fill="#63b8ff" stroke="#63b8ff" points="1272.42,-384.89 1281.74,-379.85 1271.31,-377.98 1272.42,-384.89"/>
</a>
</g>
</g>
<!-- Node39 -->
<g id="Node000039" class="node">
<title>Node39</title>
<g id="a_Node000039"><a xlink:title=" ">
<polygon fill="#e0e0e0" stroke="#999999" points="1365.5,-316 1312.5,-316 1312.5,-297 1365.5,-297 1365.5,-316"/>
<text text-anchor="middle" x="1339" y="-304" font-family="Helvetica,sans-Serif" font-size="10.00">imgui.h</text>
</a>
</g>
</g>
<!-- Node38&#45;&gt;Node39 -->
<g id="edge65_Node000038_Node000039" class="edge">
<title>Node38&#45;&gt;Node39</title>
<g id="a_edge65_Node000038_Node000039"><a xlink:title=" ">
<path fill="none" stroke="#63b8ff" d="M1339,-351.84C1339,-344.21 1339,-334.7 1339,-326.45"/>
<polygon fill="#63b8ff" stroke="#63b8ff" points="1342.5,-326.27 1339,-316.27 1335.5,-326.27 1342.5,-326.27"/>
</a>
</g>
</g>
</g>
</svg>
