<?xml version="1.0" encoding="UTF-8" standalone="no"?>
<!DOCTYPE svg PUBLIC "-//W3C//DTD SVG 1.1//EN"
 "http://www.w3.org/Graphics/SVG/1.1/DTD/svg11.dtd">
<!-- Generated by graphviz version 2.43.0 (0)
 -->
<!-- Title: src/user_interface/plot_control_window.cpp Pages: 1 -->
<svg width="1361pt" height="588pt"
 viewBox="0.00 0.00 1360.50 588.00" xmlns="http://www.w3.org/2000/svg" xmlns:xlink="http://www.w3.org/1999/xlink">
<g id="graph0" class="graph" transform="scale(1 1) rotate(0) translate(4 584)">
<title>src/user_interface/plot_control_window.cpp</title>
<!-- Node1 -->
<g id="Node000001" class="node">
<title>Node1</title>
<g id="a_Node000001"><a xlink:title=" ">
<polygon fill="#999999" stroke="#666666" points="559,-580 419,-580 419,-550 559,-550 559,-580"/>
<text text-anchor="start" x="427" y="-568" font-family="Helvetica,sans-Serif" font-size="10.00">src/user_interface</text>
<text text-anchor="middle" x="489" y="-557" font-family="Helvetica,sans-Serif" font-size="10.00">/plot_control_window.cpp</text>
</a>
</g>
</g>
<!-- Node2 -->
<g id="Node000002" class="node">
<title>Node2</title>
<g id="a_Node000002"><a xlink:href="plot__control__window_8h.html" target="_top" xlink:title=" ">
<polygon fill="white" stroke="#666666" points="428,-514 320,-514 320,-484 428,-484 428,-514"/>
<text text-anchor="start" x="328" y="-502" font-family="Helvetica,sans-Serif" font-size="10.00">user_interface/plot</text>
<text text-anchor="middle" x="374" y="-491" font-family="Helvetica,sans-Serif" font-size="10.00">_control_window.h</text>
</a>
</g>
</g>
<!-- Node1&#45;&gt;Node2 -->
<g id="edge1_Node000001_Node000002" class="edge">
<title>Node1&#45;&gt;Node2</title>
<g id="a_edge1_Node000001_Node000002"><a xlink:title=" ">
<path fill="none" stroke="#63b8ff" d="M463.76,-549.95C447.43,-540.87 425.98,-528.93 408.13,-519"/>
<polygon fill="#63b8ff" stroke="#63b8ff" points="409.62,-515.82 399.18,-514.01 406.21,-521.93 409.62,-515.82"/>
</a>
</g>
</g>
<!-- Node40 -->
<g id="Node000040" class="node">
<title>Node40</title>
<g id="a_Node000040"><a xlink:title=" ">
<polygon fill="#e0e0e0" stroke="#999999" points="532,-508.5 446,-508.5 446,-489.5 532,-489.5 532,-508.5"/>
<text text-anchor="middle" x="489" y="-496.5" font-family="Helvetica,sans-Serif" font-size="10.00">unordered_set</text>
</a>
</g>
</g>
<!-- Node1&#45;&gt;Node40 -->
<g id="edge70_Node000001_Node000040" class="edge">
<title>Node1&#45;&gt;Node40</title>
<g id="a_edge70_Node000001_Node000040"><a xlink:title=" ">
<path fill="none" stroke="#63b8ff" d="M489,-549.8C489,-540.7 489,-528.79 489,-518.9"/>
<polygon fill="#63b8ff" stroke="#63b8ff" points="492.5,-518.84 489,-508.84 485.5,-518.84 492.5,-518.84"/>
</a>
</g>
</g>
<!-- Node41 -->
<g id="Node000041" class="node">
<title>Node41</title>
<g id="a_Node000041"><a xlink:href="IconsFontAwesome6_8h.html" target="_top" xlink:title=" ">
<polygon fill="white" stroke="#666666" points="679.5,-514 550.5,-514 550.5,-484 679.5,-484 679.5,-514"/>
<text text-anchor="start" x="558.5" y="-502" font-family="Helvetica,sans-Serif" font-size="10.00">user_interface/fonts</text>
<text text-anchor="middle" x="615" y="-491" font-family="Helvetica,sans-Serif" font-size="10.00">/IconsFontAwesome6.h</text>
</a>
</g>
</g>
<!-- Node1&#45;&gt;Node41 -->
<g id="edge71_Node000001_Node000041" class="edge">
<title>Node1&#45;&gt;Node41</title>
<g id="a_edge71_Node000001_Node000041"><a xlink:title=" ">
<path fill="none" stroke="#63b8ff" d="M516.65,-549.95C534.79,-540.74 558.7,-528.6 578.41,-518.59"/>
<polygon fill="#63b8ff" stroke="#63b8ff" points="580.08,-521.66 587.41,-514.01 576.91,-515.42 580.08,-521.66"/>
</a>
</g>
</g>
<!-- Node3 -->
<g id="Node000003" class="node">
<title>Node3</title>
<g id="a_Node000003"><a xlink:title=" ">
<polygon fill="#e0e0e0" stroke="#999999" points="346,-448 206,-448 206,-418 346,-418 346,-448"/>
<text text-anchor="start" x="214" y="-436" font-family="Helvetica,sans-Serif" font-size="10.00">imgui&#45;platform&#45;kit</text>
<text text-anchor="middle" x="276" y="-425" font-family="Helvetica,sans-Serif" font-size="10.00">/user_interface_window.h</text>
</a>
</g>
</g>
<!-- Node2&#45;&gt;Node3 -->
<g id="edge2_Node000002_Node000003" class="edge">
<title>Node2&#45;&gt;Node3</title>
<g id="a_edge2_Node000002_Node000003"><a xlink:title=" ">
<path fill="none" stroke="#63b8ff" d="M352.25,-483.8C338.67,-474.93 321.01,-463.39 306.1,-453.66"/>
<polygon fill="#63b8ff" stroke="#63b8ff" points="307.98,-450.7 297.69,-448.16 304.15,-456.56 307.98,-450.7"/>
</a>
</g>
</g>
<!-- Node4 -->
<g id="Node000004" class="node">
<title>Node4</title>
<g id="a_Node000004"><a xlink:href="visualization_8h.html" target="_top" xlink:title=" ">
<polygon fill="white" stroke="#666666" points="434.5,-376.5 281.5,-376.5 281.5,-357.5 434.5,-357.5 434.5,-376.5"/>
<text text-anchor="middle" x="358" y="-364.5" font-family="Helvetica,sans-Serif" font-size="10.00">visualization/visualization.h</text>
</a>
</g>
</g>
<!-- Node2&#45;&gt;Node4 -->
<g id="edge3_Node000002_Node000004" class="edge">
<title>Node2&#45;&gt;Node4</title>
<g id="a_edge3_Node000002_Node000004"><a xlink:title=" ">
<path fill="none" stroke="#63b8ff" d="M372.26,-483.84C369.36,-460.34 363.57,-413.26 360.33,-386.93"/>
<polygon fill="#63b8ff" stroke="#63b8ff" points="363.77,-386.25 359.08,-376.75 356.82,-387.1 363.77,-386.25"/>
</a>
</g>
</g>
<!-- Node35 -->
<g id="Node000035" class="node">
<title>Node35</title>
<g id="a_Node000035"><a xlink:href="application_8h.html" target="_top" xlink:title=" ">
<polygon fill="white" stroke="#666666" points="555.5,-442.5 418.5,-442.5 418.5,-423.5 555.5,-423.5 555.5,-442.5"/>
<text text-anchor="middle" x="487" y="-430.5" font-family="Helvetica,sans-Serif" font-size="10.00">application/application.h</text>
</a>
</g>
</g>
<!-- Node2&#45;&gt;Node35 -->
<g id="edge62_Node000002_Node000035" class="edge">
<title>Node2&#45;&gt;Node35</title>
<g id="a_edge62_Node000002_Node000035"><a xlink:title=" ">
<path fill="none" stroke="#63b8ff" d="M398.8,-483.95C417.92,-473.13 444.2,-458.24 463.09,-447.54"/>
<polygon fill="#63b8ff" stroke="#63b8ff" points="464.99,-450.49 471.96,-442.52 461.54,-444.4 464.99,-450.49"/>
</a>
</g>
</g>
<!-- Node5 -->
<g id="Node000005" class="node">
<title>Node5</title>
<g id="a_Node000005"><a xlink:title=" ">
<polygon fill="#e0e0e0" stroke="#999999" points="262,-79.5 202,-79.5 202,-60.5 262,-60.5 262,-79.5"/>
<text text-anchor="middle" x="232" y="-67.5" font-family="Helvetica,sans-Serif" font-size="10.00">iostream</text>
</a>
</g>
</g>
<!-- Node4&#45;&gt;Node5 -->
<g id="edge4_Node000004_Node000005" class="edge">
<title>Node4&#45;&gt;Node5</title>
<g id="a_edge4_Node000004_Node000005"><a xlink:title=" ">
<path fill="none" stroke="#63b8ff" d="M281.28,-360.19C213.69,-353.54 121.92,-340.28 95,-316 73.13,-296.27 76,-281.96 76,-252.5 76,-252.5 76,-252.5 76,-190 76,-131.61 145.95,-98.06 192.17,-82.26"/>
<polygon fill="#63b8ff" stroke="#63b8ff" points="193.51,-85.51 201.92,-79.07 191.33,-78.86 193.51,-85.51"/>
</a>
</g>
</g>
<!-- Node6 -->
<g id="Node000006" class="node">
<title>Node6</title>
<g id="a_Node000006"><a xlink:title=" ">
<polygon fill="#e0e0e0" stroke="#999999" points="1136.5,-19 1089.5,-19 1089.5,0 1136.5,0 1136.5,-19"/>
<text text-anchor="middle" x="1113" y="-7" font-family="Helvetica,sans-Serif" font-size="10.00">vector</text>
</a>
</g>
</g>
<!-- Node4&#45;&gt;Node6 -->
<g id="edge5_Node000004_Node000006" class="edge">
<title>Node4&#45;&gt;Node6</title>
<g id="a_edge5_Node000004_Node000006"><a xlink:title=" ">
<path fill="none" stroke="#63b8ff" d="M404.74,-357.46C417.44,-355.4 431.22,-353.39 444,-352 733.85,-320.53 813.51,-375.15 1099,-316 1178.79,-299.47 1271,-333.99 1271,-252.5 1271,-252.5 1271,-252.5 1271,-129.5 1271,-67.59 1192.65,-33.86 1146.3,-19.33"/>
<polygon fill="#63b8ff" stroke="#63b8ff" points="1147.24,-15.96 1136.65,-16.43 1145.23,-22.66 1147.24,-15.96"/>
</a>
</g>
</g>
<!-- Node7 -->
<g id="Node000007" class="node">
<title>Node7</title>
<g id="a_Node000007"><a xlink:href="simulation_8h.html" target="_top" xlink:title=" ">
<polygon fill="white" stroke="#666666" points="1090,-316 958,-316 958,-297 1090,-297 1090,-316"/>
<text text-anchor="middle" x="1024" y="-304" font-family="Helvetica,sans-Serif" font-size="10.00">simulation/simulation.h</text>
</a>
</g>
</g>
<!-- Node4&#45;&gt;Node7 -->
<g id="edge6_Node000004_Node000007" class="edge">
<title>Node4&#45;&gt;Node7</title>
<g id="a_edge6_Node000004_Node000007"><a xlink:title=" ">
<path fill="none" stroke="#63b8ff" d="M406.11,-357.43C418.43,-355.44 431.68,-353.47 444,-352 623.9,-330.5 836.49,-317.28 947.61,-311.29"/>
<polygon fill="#63b8ff" stroke="#63b8ff" points="947.92,-314.78 957.71,-310.75 947.54,-307.79 947.92,-314.78"/>
</a>
</g>
</g>
<!-- Node17 -->
<g id="Node000017" class="node">
<title>Node17</title>
<g id="a_Node000017"><a xlink:href="exception_8h.html" target="_top" xlink:title=" ">
<polygon fill="white" stroke="#666666" points="139,-79.5 9,-79.5 9,-60.5 139,-60.5 139,-79.5"/>
<text text-anchor="middle" x="74" y="-67.5" font-family="Helvetica,sans-Serif" font-size="10.00">exceptions/exception.h</text>
</a>
</g>
</g>
<!-- Node4&#45;&gt;Node17 -->
<g id="edge50_Node000004_Node000017" class="edge">
<title>Node4&#45;&gt;Node17</title>
<g id="a_edge50_Node000004_Node000017"><a xlink:title=" ">
<path fill="none" stroke="#63b8ff" d="M281.23,-359.42C209.75,-352.05 109.5,-338.14 77,-316 49.63,-297.35 38,-285.62 38,-252.5 38,-252.5 38,-252.5 38,-190 38,-152.75 54.36,-111.65 65.02,-88.81"/>
<polygon fill="#63b8ff" stroke="#63b8ff" points="68.23,-90.21 69.44,-79.68 61.93,-87.16 68.23,-90.21"/>
</a>
</g>
</g>
<!-- Node20 -->
<g id="Node000020" class="node">
<title>Node20</title>
<g id="a_Node000020"><a xlink:href="logger_8h.html" target="_top" xlink:title=" ">
<polygon fill="white" stroke="#666666" points="426.5,-140 343.5,-140 343.5,-121 426.5,-121 426.5,-140"/>
<text text-anchor="middle" x="385" y="-128" font-family="Helvetica,sans-Serif" font-size="10.00">tools/logger.h</text>
</a>
</g>
</g>
<!-- Node4&#45;&gt;Node20 -->
<g id="edge57_Node000004_Node000020" class="edge">
<title>Node4&#45;&gt;Node20</title>
<g id="a_edge57_Node000004_Node000020"><a xlink:title=" ">
<path fill="none" stroke="#63b8ff" d="M380.46,-357.32C407.24,-345.57 446.56,-323.05 431,-297 383.63,-217.69 208.94,-251.62 262,-176 278.12,-153.02 307.34,-141.86 333.26,-136.46"/>
<polygon fill="#63b8ff" stroke="#63b8ff" points="334.17,-139.85 343.37,-134.6 332.9,-132.97 334.17,-139.85"/>
</a>
</g>
</g>
<!-- Node31 -->
<g id="Node000031" class="node">
<title>Node31</title>
<g id="a_Node000031"><a xlink:href="plot_8h.html" target="_top" xlink:title=" ">
<polygon fill="white" stroke="#666666" points="177,-261 133,-261 133,-242 177,-242 177,-261"/>
<text text-anchor="middle" x="155" y="-249" font-family="Helvetica,sans-Serif" font-size="10.00">plot.h</text>
</a>
</g>
</g>
<!-- Node4&#45;&gt;Node31 -->
<g id="edge51_Node000004_Node000031" class="edge">
<title>Node4&#45;&gt;Node31</title>
<g id="a_edge51_Node000004_Node000031"><a xlink:title=" ">
<path fill="none" stroke="#63b8ff" d="M345.28,-357.48C324.91,-343.97 283.57,-317.14 247,-297 226.18,-285.54 201.97,-273.89 183.61,-265.39"/>
<polygon fill="#63b8ff" stroke="#63b8ff" points="184.88,-262.12 174.33,-261.13 181.96,-268.48 184.88,-262.12"/>
</a>
</g>
</g>
<!-- Node33 -->
<g id="Node000033" class="node">
<title>Node33</title>
<g id="a_Node000033"><a xlink:href="lineplot_8h.html" target="_top" xlink:title=" ">
<polygon fill="white" stroke="#666666" points="422,-316 294,-316 294,-297 422,-297 422,-316"/>
<text text-anchor="middle" x="358" y="-304" font-family="Helvetica,sans-Serif" font-size="10.00">visualization/lineplot.h</text>
</a>
</g>
</g>
<!-- Node4&#45;&gt;Node33 -->
<g id="edge58_Node000004_Node000033" class="edge">
<title>Node4&#45;&gt;Node33</title>
<g id="a_edge58_Node000004_Node000033"><a xlink:title=" ">
<path fill="none" stroke="#63b8ff" d="M358,-357.37C358,-349.25 358,-336.81 358,-326.39"/>
<polygon fill="#63b8ff" stroke="#63b8ff" points="361.5,-326.17 358,-316.17 354.5,-326.17 361.5,-326.17"/>
</a>
</g>
</g>
<!-- Node34 -->
<g id="Node000034" class="node">
<title>Node34</title>
<g id="a_Node000034"><a xlink:href="heatmap_8h.html" target="_top" xlink:title=" ">
<polygon fill="white" stroke="#666666" points="238,-316 104,-316 104,-297 238,-297 238,-316"/>
<text text-anchor="middle" x="171" y="-304" font-family="Helvetica,sans-Serif" font-size="10.00">visualization/heatmap.h</text>
</a>
</g>
</g>
<!-- Node4&#45;&gt;Node34 -->
<g id="edge60_Node000004_Node000034" class="edge">
<title>Node4&#45;&gt;Node34</title>
<g id="a_edge60_Node000004_Node000034"><a xlink:title=" ">
<path fill="none" stroke="#63b8ff" d="M330.81,-357.49C298.4,-347.36 244.1,-330.37 207.92,-319.05"/>
<polygon fill="#63b8ff" stroke="#63b8ff" points="208.81,-315.66 198.22,-316.02 206.72,-322.34 208.81,-315.66"/>
</a>
</g>
</g>
<!-- Node7&#45;&gt;Node6 -->
<g id="edge7_Node000007_Node000006" class="edge">
<title>Node7&#45;&gt;Node6</title>
<g id="a_edge7_Node000007_Node000006"><a xlink:title=" ">
<path fill="none" stroke="#63b8ff" d="M1090.13,-297.46C1151.36,-285.88 1233,-258.06 1233,-192 1233,-192 1233,-192 1233,-129.5 1233,-78.33 1177.3,-41.65 1141.8,-23.46"/>
<polygon fill="#63b8ff" stroke="#63b8ff" points="1143.33,-20.32 1132.82,-19.03 1140.24,-26.6 1143.33,-20.32"/>
</a>
</g>
</g>
<!-- Node8 -->
<g id="Node000008" class="node">
<title>Node8</title>
<g id="a_Node000008"><a xlink:title=" ">
<polygon fill="#e0e0e0" stroke="#999999" points="1053,-200.5 995,-200.5 995,-181.5 1053,-181.5 1053,-200.5"/>
<text text-anchor="middle" x="1024" y="-188.5" font-family="Helvetica,sans-Serif" font-size="10.00">memory</text>
</a>
</g>
</g>
<!-- Node7&#45;&gt;Node8 -->
<g id="edge8_Node000007_Node000008" class="edge">
<title>Node7&#45;&gt;Node8</title>
<g id="a_edge8_Node000007_Node000008"><a xlink:title=" ">
<path fill="none" stroke="#63b8ff" d="M1024,-296.97C1024,-278.73 1024,-235.57 1024,-210.64"/>
<polygon fill="#63b8ff" stroke="#63b8ff" points="1027.5,-210.63 1024,-200.63 1020.5,-210.63 1027.5,-210.63"/>
</a>
</g>
</g>
<!-- Node9 -->
<g id="Node000009" class="node">
<title>Node9</title>
<g id="a_Node000009"><a xlink:title=" ">
<polygon fill="#e0e0e0" stroke="#999999" points="470,-19 426,-19 426,0 470,0 470,-19"/>
<text text-anchor="middle" x="448" y="-7" font-family="Helvetica,sans-Serif" font-size="10.00">string</text>
</a>
</g>
</g>
<!-- Node7&#45;&gt;Node9 -->
<g id="edge9_Node000007_Node000009" class="edge">
<title>Node7&#45;&gt;Node9</title>
<g id="a_edge9_Node000007_Node000009"><a xlink:title=" ">
<path fill="none" stroke="#63b8ff" d="M957.93,-304.29C794.3,-300.16 375.25,-282.2 262,-206 200.78,-164.81 145.52,-111.48 193,-55 221.09,-21.59 353.38,-13.26 415.56,-11.19"/>
<polygon fill="#63b8ff" stroke="#63b8ff" points="415.72,-14.68 425.61,-10.89 415.51,-7.69 415.72,-14.68"/>
</a>
</g>
</g>
<!-- Node10 -->
<g id="Node000010" class="node">
<title>Node10</title>
<g id="a_Node000010"><a xlink:title=" ">
<polygon fill="#e0e0e0" stroke="#999999" points="1069,-19 1001,-19 1001,0 1069,0 1069,-19"/>
<text text-anchor="middle" x="1035" y="-7" font-family="Helvetica,sans-Serif" font-size="10.00">filesystem</text>
</a>
</g>
</g>
<!-- Node7&#45;&gt;Node10 -->
<g id="edge10_Node000007_Node000010" class="edge">
<title>Node7&#45;&gt;Node10</title>
<g id="a_edge10_Node000007_Node000010"><a xlink:title=" ">
<path fill="none" stroke="#63b8ff" d="M1080.37,-296.94C1105.02,-290.64 1132.67,-279.76 1152,-261 1170.78,-242.78 1168.25,-231.73 1173,-206 1187.74,-126.09 1099.4,-54.17 1056.89,-24.67"/>
<polygon fill="#63b8ff" stroke="#63b8ff" points="1058.81,-21.75 1048.57,-19.04 1054.88,-27.54 1058.81,-21.75"/>
</a>
</g>
</g>
<!-- Node11 -->
<g id="Node000011" class="node">
<title>Node11</title>
<g id="a_Node000011"><a xlink:title=" ">
<polygon fill="#e0e0e0" stroke="#999999" points="758,-19 708,-19 708,0 758,0 758,-19"/>
<text text-anchor="middle" x="733" y="-7" font-family="Helvetica,sans-Serif" font-size="10.00">chrono</text>
</a>
</g>
</g>
<!-- Node7&#45;&gt;Node11 -->
<g id="edge11_Node000007_Node000011" class="edge">
<title>Node7&#45;&gt;Node11</title>
<g id="a_edge11_Node000007_Node000011"><a xlink:title=" ">
<path fill="none" stroke="#63b8ff" d="M1031.19,-296.82C1048.58,-274.74 1089.47,-215.4 1062,-176 1028.54,-128.02 865.01,-115.34 815,-85 788.39,-68.86 762.66,-43.36 747.33,-26.78"/>
<polygon fill="#63b8ff" stroke="#63b8ff" points="749.61,-24.09 740.31,-19.02 744.42,-28.79 749.61,-24.09"/>
</a>
</g>
</g>
<!-- Node12 -->
<g id="Node000012" class="node">
<title>Node12</title>
<g id="a_Node000012"><a xlink:href="element_8h.html" target="_top" xlink:title=" ">
<polygon fill="white" stroke="#666666" points="799.5,-261 684.5,-261 684.5,-242 799.5,-242 799.5,-261"/>
<text text-anchor="middle" x="742" y="-249" font-family="Helvetica,sans-Serif" font-size="10.00">elements/element.h</text>
</a>
</g>
</g>
<!-- Node7&#45;&gt;Node12 -->
<g id="edge12_Node000007_Node000012" class="edge">
<title>Node7&#45;&gt;Node12</title>
<g id="a_edge12_Node000007_Node000012"><a xlink:title=" ">
<path fill="none" stroke="#63b8ff" d="M978.69,-296.98C929.4,-287.72 850.57,-272.9 797.57,-262.94"/>
<polygon fill="#63b8ff" stroke="#63b8ff" points="798.14,-259.49 787.66,-261.08 796.84,-266.37 798.14,-259.49"/>
</a>
</g>
</g>
<!-- Node7&#45;&gt;Node17 -->
<g id="edge44_Node000007_Node000017" class="edge">
<title>Node7&#45;&gt;Node17</title>
<g id="a_edge44_Node000007_Node000017"><a xlink:title=" ">
<path fill="none" stroke="#63b8ff" d="M957.91,-304.9C798.53,-302.93 396.65,-294.67 267,-261 212.55,-246.86 194.34,-244.16 153,-206 116.37,-172.19 91.66,-117.46 80.6,-89.19"/>
<polygon fill="#63b8ff" stroke="#63b8ff" points="83.84,-87.87 77.04,-79.75 77.29,-90.35 83.84,-87.87"/>
</a>
</g>
</g>
<!-- Node23 -->
<g id="Node000023" class="node">
<title>Node23</title>
<g id="a_Node000023"><a xlink:href="utils_8h.html" target="_top" xlink:title=" ">
<polygon fill="white" stroke="#666666" points="870.5,-79.5 823.5,-79.5 823.5,-60.5 870.5,-60.5 870.5,-79.5"/>
<text text-anchor="middle" x="847" y="-67.5" font-family="Helvetica,sans-Serif" font-size="10.00">utils.h</text>
</a>
</g>
</g>
<!-- Node7&#45;&gt;Node23 -->
<g id="edge45_Node000007_Node000023" class="edge">
<title>Node7&#45;&gt;Node23</title>
<g id="a_edge45_Node000007_Node000023"><a xlink:title=" ">
<path fill="none" stroke="#63b8ff" d="M1049.51,-296.9C1065.69,-289.96 1085.35,-278.44 1095,-261 1113.29,-227.95 1115.87,-207.49 1095,-176 1037.69,-89.5 975.54,-125.48 880,-85 878.84,-84.51 877.66,-84.01 876.46,-83.5"/>
<polygon fill="#63b8ff" stroke="#63b8ff" points="877.82,-80.27 867.24,-79.59 875.08,-86.72 877.82,-80.27"/>
</a>
</g>
</g>
<!-- Node30 -->
<g id="Node000030" class="node">
<title>Node30</title>
<g id="a_Node000030"><a xlink:href="simulation__recorder_8h.html" target="_top" xlink:title=" ">
<polygon fill="white" stroke="#666666" points="1011.5,-85 888.5,-85 888.5,-55 1011.5,-55 1011.5,-85"/>
<text text-anchor="start" x="896.5" y="-73" font-family="Helvetica,sans-Serif" font-size="10.00">simulation/simulation</text>
<text text-anchor="middle" x="950" y="-62" font-family="Helvetica,sans-Serif" font-size="10.00">_recorder.h</text>
</a>
</g>
</g>
<!-- Node7&#45;&gt;Node30 -->
<g id="edge46_Node000007_Node000030" class="edge">
<title>Node7&#45;&gt;Node30</title>
<g id="a_edge46_Node000007_Node000030"><a xlink:title=" ">
<path fill="none" stroke="#63b8ff" d="M1077.12,-296.97C1098.17,-290.7 1120.35,-279.83 1133,-261 1167.7,-209.35 1170.76,-170.46 1133,-121 1125.87,-111.66 1069.85,-97.2 1021.65,-86.23"/>
<polygon fill="#63b8ff" stroke="#63b8ff" points="1022.34,-82.8 1011.81,-84.02 1020.8,-89.63 1022.34,-82.8"/>
</a>
</g>
</g>
<!-- Node12&#45;&gt;Node6 -->
<g id="edge13_Node000012_Node000006" class="edge">
<title>Node12&#45;&gt;Node6</title>
<g id="a_edge13_Node000012_Node000006"><a xlink:title=" ">
<path fill="none" stroke="#63b8ff" d="M799.58,-247.51C842.88,-243.1 902.35,-232.31 948,-206 987.61,-183.17 1070.24,-70.6 1101.06,-27.41"/>
<polygon fill="#63b8ff" stroke="#63b8ff" points="1104.04,-29.27 1106.98,-19.09 1098.33,-25.22 1104.04,-29.27"/>
</a>
</g>
</g>
<!-- Node12&#45;&gt;Node8 -->
<g id="edge16_Node000012_Node000008" class="edge">
<title>Node12&#45;&gt;Node8</title>
<g id="a_edge16_Node000012_Node000008"><a xlink:title=" ">
<path fill="none" stroke="#63b8ff" d="M799.44,-241.97C848.14,-234.22 919.65,-221.63 981,-206 983.95,-205.25 986.99,-204.4 990.03,-203.51"/>
<polygon fill="#63b8ff" stroke="#63b8ff" points="991.08,-206.85 999.6,-200.55 989.02,-200.16 991.08,-206.85"/>
</a>
</g>
</g>
<!-- Node12&#45;&gt;Node9 -->
<g id="edge14_Node000012_Node000009" class="edge">
<title>Node12&#45;&gt;Node9</title>
<g id="a_edge14_Node000012_Node000009"><a xlink:title=" ">
<path fill="none" stroke="#63b8ff" d="M727.59,-241.9C715.33,-233.94 698.01,-221.08 687,-206 663.11,-173.26 678.12,-153.56 654,-121 625.74,-82.85 611.49,-78.09 570,-55 541.08,-38.91 505.22,-26.64 479.88,-19.1"/>
<polygon fill="#63b8ff" stroke="#63b8ff" points="480.63,-15.67 470.05,-16.26 478.69,-22.4 480.63,-15.67"/>
</a>
</g>
</g>
<!-- Node13 -->
<g id="Node000013" class="node">
<title>Node13</title>
<g id="a_Node000013"><a xlink:title=" ">
<polygon fill="#e0e0e0" stroke="#999999" points="788.5,-200.5 695.5,-200.5 695.5,-181.5 788.5,-181.5 788.5,-200.5"/>
<text text-anchor="middle" x="742" y="-188.5" font-family="Helvetica,sans-Serif" font-size="10.00">unordered_map</text>
</a>
</g>
</g>
<!-- Node12&#45;&gt;Node13 -->
<g id="edge15_Node000012_Node000013" class="edge">
<title>Node12&#45;&gt;Node13</title>
<g id="a_edge15_Node000012_Node000013"><a xlink:title=" ">
<path fill="none" stroke="#63b8ff" d="M742,-241.87C742,-233.75 742,-221.31 742,-210.89"/>
<polygon fill="#63b8ff" stroke="#63b8ff" points="745.5,-210.67 742,-200.67 738.5,-210.67 745.5,-210.67"/>
</a>
</g>
</g>
<!-- Node14 -->
<g id="Node000014" class="node">
<title>Node14</title>
<g id="a_Node000014"><a xlink:title=" ">
<polygon fill="#e0e0e0" stroke="#999999" points="857,-200.5 807,-200.5 807,-181.5 857,-181.5 857,-200.5"/>
<text text-anchor="middle" x="832" y="-188.5" font-family="Helvetica,sans-Serif" font-size="10.00">ranges</text>
</a>
</g>
</g>
<!-- Node12&#45;&gt;Node14 -->
<g id="edge17_Node000012_Node000014" class="edge">
<title>Node12&#45;&gt;Node14</title>
<g id="a_edge17_Node000012_Node000014"><a xlink:title=" ">
<path fill="none" stroke="#63b8ff" d="M755.28,-241.87C769.64,-232.54 792.76,-217.51 809.87,-206.38"/>
<polygon fill="#63b8ff" stroke="#63b8ff" points="812.19,-209.05 818.67,-200.67 808.37,-203.18 812.19,-209.05"/>
</a>
</g>
</g>
<!-- Node15 -->
<g id="Node000015" class="node">
<title>Node15</title>
<g id="a_Node000015"><a xlink:title=" ">
<polygon fill="#e0e0e0" stroke="#999999" points="939,-200.5 875,-200.5 875,-181.5 939,-181.5 939,-200.5"/>
<text text-anchor="middle" x="907" y="-188.5" font-family="Helvetica,sans-Serif" font-size="10.00">algorithm</text>
</a>
</g>
</g>
<!-- Node12&#45;&gt;Node15 -->
<g id="edge18_Node000012_Node000015" class="edge">
<title>Node12&#45;&gt;Node15</title>
<g id="a_edge18_Node000012_Node000015"><a xlink:title=" ">
<path fill="none" stroke="#63b8ff" d="M765.99,-241.99C794.22,-231.99 841.28,-215.3 873.19,-203.99"/>
<polygon fill="#63b8ff" stroke="#63b8ff" points="874.72,-207.16 882.98,-200.52 872.38,-200.56 874.72,-207.16"/>
</a>
</g>
</g>
<!-- Node16 -->
<g id="Node000016" class="node">
<title>Node16</title>
<g id="a_Node000016"><a xlink:title=" ">
<polygon fill="#e0e0e0" stroke="#999999" points="489,-200.5 433,-200.5 433,-181.5 489,-181.5 489,-200.5"/>
<text text-anchor="middle" x="461" y="-188.5" font-family="Helvetica,sans-Serif" font-size="10.00">numeric</text>
</a>
</g>
</g>
<!-- Node12&#45;&gt;Node16 -->
<g id="edge19_Node000012_Node000016" class="edge">
<title>Node12&#45;&gt;Node16</title>
<g id="a_edge19_Node000012_Node000016"><a xlink:title=" ">
<path fill="none" stroke="#63b8ff" d="M684.42,-242.81C634.79,-235.5 561.47,-223.09 499,-206 496.57,-205.33 494.07,-204.58 491.57,-203.78"/>
<polygon fill="#63b8ff" stroke="#63b8ff" points="492.69,-200.46 482.09,-200.5 490.4,-207.07 492.69,-200.46"/>
</a>
</g>
</g>
<!-- Node12&#45;&gt;Node17 -->
<g id="edge20_Node000012_Node000017" class="edge">
<title>Node12&#45;&gt;Node17</title>
<g id="a_edge20_Node000012_Node000017"><a xlink:title=" ">
<path fill="none" stroke="#63b8ff" d="M684.13,-248.92C573.88,-245.29 337.95,-234.38 262,-206 259.61,-205.11 142.35,-120.42 94.25,-85.65"/>
<polygon fill="#63b8ff" stroke="#63b8ff" points="96.02,-82.61 85.86,-79.58 91.92,-88.28 96.02,-82.61"/>
</a>
</g>
</g>
<!-- Node12&#45;&gt;Node20 -->
<g id="edge24_Node000012_Node000020" class="edge">
<title>Node12&#45;&gt;Node20</title>
<g id="a_edge24_Node000012_Node000020"><a xlink:title=" ">
<path fill="none" stroke="#63b8ff" d="M684.4,-248.66C604.4,-245.07 464.84,-234.78 424,-206 405.2,-192.76 394.77,-167.61 389.53,-150.22"/>
<polygon fill="#63b8ff" stroke="#63b8ff" points="392.79,-148.85 386.8,-140.11 386.03,-150.68 392.79,-148.85"/>
</a>
</g>
</g>
<!-- Node27 -->
<g id="Node000027" class="node">
<title>Node27</title>
<g id="a_Node000027"><a xlink:href="element__parameters_8h.html" target="_top" xlink:title=" ">
<polygon fill="white" stroke="#666666" points="638.5,-206 507.5,-206 507.5,-176 638.5,-176 638.5,-206"/>
<text text-anchor="start" x="515.5" y="-194" font-family="Helvetica,sans-Serif" font-size="10.00">element_parameters</text>
<text text-anchor="middle" x="573" y="-183" font-family="Helvetica,sans-Serif" font-size="10.00">/element_parameters.h</text>
</a>
</g>
</g>
<!-- Node12&#45;&gt;Node27 -->
<g id="edge39_Node000012_Node000027" class="edge">
<title>Node12&#45;&gt;Node27</title>
<g id="a_edge39_Node000012_Node000027"><a xlink:title=" ">
<path fill="none" stroke="#63b8ff" d="M717.43,-241.99C692.89,-233.5 654.47,-220.2 623.42,-209.45"/>
<polygon fill="#63b8ff" stroke="#63b8ff" points="624.22,-206.03 613.63,-206.06 621.94,-212.64 624.22,-206.03"/>
</a>
</g>
</g>
<!-- Node17&#45;&gt;Node9 -->
<g id="edge23_Node000017_Node000009" class="edge">
<title>Node17&#45;&gt;Node9</title>
<g id="a_edge23_Node000017_Node000009"><a xlink:title=" ">
<path fill="none" stroke="#63b8ff" d="M121.17,-60.44C131.64,-58.59 142.69,-56.69 153,-55 248.36,-39.36 361.4,-22.88 415.71,-15.09"/>
<polygon fill="#63b8ff" stroke="#63b8ff" points="416.36,-18.54 425.77,-13.65 415.37,-11.61 416.36,-18.54"/>
</a>
</g>
</g>
<!-- Node18 -->
<g id="Node000018" class="node">
<title>Node18</title>
<g id="a_Node000018"><a xlink:title=" ">
<polygon fill="#e0e0e0" stroke="#999999" points="137,-19 87,-19 87,0 137,0 137,-19"/>
<text text-anchor="middle" x="112" y="-7" font-family="Helvetica,sans-Serif" font-size="10.00">cstdint</text>
</a>
</g>
</g>
<!-- Node17&#45;&gt;Node18 -->
<g id="edge21_Node000017_Node000018" class="edge">
<title>Node17&#45;&gt;Node18</title>
<g id="a_edge21_Node000017_Node000018"><a xlink:title=" ">
<path fill="none" stroke="#63b8ff" d="M79.61,-60.37C85.16,-51.81 93.83,-38.47 100.8,-27.74"/>
<polygon fill="#63b8ff" stroke="#63b8ff" points="103.86,-29.46 106.37,-19.17 97.99,-25.65 103.86,-29.46"/>
</a>
</g>
</g>
<!-- Node19 -->
<g id="Node000019" class="node">
<title>Node19</title>
<g id="a_Node000019"><a xlink:title=" ">
<polygon fill="#e0e0e0" stroke="#999999" points="68.5,-19 3.5,-19 3.5,0 68.5,0 68.5,-19"/>
<text text-anchor="middle" x="36" y="-7" font-family="Helvetica,sans-Serif" font-size="10.00">exception</text>
</a>
</g>
</g>
<!-- Node17&#45;&gt;Node19 -->
<g id="edge22_Node000017_Node000019" class="edge">
<title>Node17&#45;&gt;Node19</title>
<g id="a_edge22_Node000017_Node000019"><a xlink:title=" ">
<path fill="none" stroke="#63b8ff" d="M68.39,-60.37C62.84,-51.81 54.17,-38.47 47.2,-27.74"/>
<polygon fill="#63b8ff" stroke="#63b8ff" points="50.01,-25.65 41.63,-19.17 44.14,-29.46 50.01,-25.65"/>
</a>
</g>
</g>
<!-- Node20&#45;&gt;Node5 -->
<g id="edge25_Node000020_Node000005" class="edge">
<title>Node20&#45;&gt;Node5</title>
<g id="a_edge25_Node000020_Node000005"><a xlink:title=" ">
<path fill="none" stroke="#63b8ff" d="M362.75,-120.99C336.69,-111.03 293.32,-94.45 263.73,-83.13"/>
<polygon fill="#63b8ff" stroke="#63b8ff" points="264.86,-79.82 254.27,-79.52 262.36,-86.36 264.86,-79.82"/>
</a>
</g>
</g>
<!-- Node20&#45;&gt;Node9 -->
<g id="edge26_Node000020_Node000009" class="edge">
<title>Node20&#45;&gt;Node9</title>
<g id="a_edge26_Node000020_Node000009"><a xlink:title=" ">
<path fill="none" stroke="#63b8ff" d="M374.93,-120.89C359.53,-106.65 333.37,-77.53 348,-55 362.97,-31.96 392.93,-20.75 416.18,-15.36"/>
<polygon fill="#63b8ff" stroke="#63b8ff" points="416.9,-18.78 425.98,-13.32 415.48,-11.93 416.9,-18.78"/>
</a>
</g>
</g>
<!-- Node20&#45;&gt;Node11 -->
<g id="edge27_Node000020_Node000011" class="edge">
<title>Node20&#45;&gt;Node11</title>
<g id="a_edge27_Node000020_Node000011"><a xlink:title=" ">
<path fill="none" stroke="#63b8ff" d="M420.97,-120.96C454.24,-112.76 504.91,-99.5 548,-85 604.39,-66.02 668.44,-38.95 704.45,-23.21"/>
<polygon fill="#63b8ff" stroke="#63b8ff" points="706.09,-26.31 713.83,-19.08 703.27,-19.9 706.09,-26.31"/>
</a>
</g>
</g>
<!-- Node20&#45;&gt;Node17 -->
<g id="edge30_Node000020_Node000017" class="edge">
<title>Node20&#45;&gt;Node17</title>
<g id="a_edge30_Node000020_Node000017"><a xlink:title=" ">
<path fill="none" stroke="#63b8ff" d="M343.38,-121.67C288.19,-111.29 190.64,-92.94 129.3,-81.4"/>
<polygon fill="#63b8ff" stroke="#63b8ff" points="129.88,-77.95 119.41,-79.54 128.59,-84.83 129.88,-77.95"/>
</a>
</g>
</g>
<!-- Node21 -->
<g id="Node000021" class="node">
<title>Node21</title>
<g id="a_Node000021"><a xlink:title=" ">
<polygon fill="#e0e0e0" stroke="#999999" points="413,-79.5 357,-79.5 357,-60.5 413,-60.5 413,-79.5"/>
<text text-anchor="middle" x="385" y="-67.5" font-family="Helvetica,sans-Serif" font-size="10.00">iomanip</text>
</a>
</g>
</g>
<!-- Node20&#45;&gt;Node21 -->
<g id="edge28_Node000020_Node000021" class="edge">
<title>Node20&#45;&gt;Node21</title>
<g id="a_edge28_Node000020_Node000021"><a xlink:title=" ">
<path fill="none" stroke="#63b8ff" d="M385,-120.87C385,-112.75 385,-100.31 385,-89.89"/>
<polygon fill="#63b8ff" stroke="#63b8ff" points="388.5,-89.67 385,-79.67 381.5,-89.67 388.5,-89.67"/>
</a>
</g>
</g>
<!-- Node22 -->
<g id="Node000022" class="node">
<title>Node22</title>
<g id="a_Node000022"><a xlink:title=" ">
<polygon fill="#e0e0e0" stroke="#999999" points="538.5,-85 431.5,-85 431.5,-55 538.5,-55 538.5,-85"/>
<text text-anchor="start" x="439.5" y="-73" font-family="Helvetica,sans-Serif" font-size="10.00">imgui&#45;platform&#45;kit</text>
<text text-anchor="middle" x="485" y="-62" font-family="Helvetica,sans-Serif" font-size="10.00">/log_window.h</text>
</a>
</g>
</g>
<!-- Node20&#45;&gt;Node22 -->
<g id="edge29_Node000020_Node000022" class="edge">
<title>Node20&#45;&gt;Node22</title>
<g id="a_edge29_Node000020_Node000022"><a xlink:title=" ">
<path fill="none" stroke="#63b8ff" d="M399.76,-120.87C413.45,-112.86 434.32,-100.65 451.98,-90.31"/>
<polygon fill="#63b8ff" stroke="#63b8ff" points="454.01,-93.19 460.87,-85.11 450.47,-87.14 454.01,-93.19"/>
</a>
</g>
</g>
<!-- Node20&#45;&gt;Node23 -->
<g id="edge31_Node000020_Node000023" class="edge">
<title>Node20&#45;&gt;Node23</title>
<g id="a_edge31_Node000020_Node000023"><a xlink:title=" ">
<path fill="none" stroke="#63b8ff" d="M426.81,-124.21C517.46,-112.73 730.57,-85.74 813.32,-75.26"/>
<polygon fill="#63b8ff" stroke="#63b8ff" points="813.95,-78.71 823.43,-73.98 813.07,-71.77 813.95,-78.71"/>
</a>
</g>
</g>
<!-- Node23&#45;&gt;Node6 -->
<g id="edge33_Node000023_Node000006" class="edge">
<title>Node23&#45;&gt;Node6</title>
<g id="a_edge33_Node000023_Node000006"><a xlink:title=" ">
<path fill="none" stroke="#63b8ff" d="M865.24,-60.42C869.97,-58.42 875.11,-56.46 880,-55 965.69,-29.38 990.5,-37.56 1078,-19 1078.46,-18.9 1078.92,-18.8 1079.39,-18.7"/>
<polygon fill="#63b8ff" stroke="#63b8ff" points="1080.34,-22.08 1089.32,-16.45 1078.79,-15.25 1080.34,-22.08"/>
</a>
</g>
</g>
<!-- Node23&#45;&gt;Node9 -->
<g id="edge32_Node000023_Node000009" class="edge">
<title>Node23&#45;&gt;Node9</title>
<g id="a_edge32_Node000023_Node000009"><a xlink:title=" ">
<path fill="none" stroke="#63b8ff" d="M823.24,-65.52C754.98,-55.51 558.25,-26.66 480.33,-15.24"/>
<polygon fill="#63b8ff" stroke="#63b8ff" points="480.56,-11.74 470.15,-13.75 479.54,-18.66 480.56,-11.74"/>
</a>
</g>
</g>
<!-- Node23&#45;&gt;Node10 -->
<g id="edge38_Node000023_Node000010" class="edge">
<title>Node23&#45;&gt;Node10</title>
<g id="a_edge38_Node000023_Node000010"><a xlink:title=" ">
<path fill="none" stroke="#63b8ff" d="M866.04,-60.46C870.57,-58.55 875.42,-56.62 880,-55 916.91,-41.93 959.76,-29.86 991.03,-21.59"/>
<polygon fill="#63b8ff" stroke="#63b8ff" points="991.97,-24.97 1000.76,-19.05 990.2,-18.19 991.97,-24.97"/>
</a>
</g>
</g>
<!-- Node23&#45;&gt;Node11 -->
<g id="edge37_Node000023_Node000011" class="edge">
<title>Node23&#45;&gt;Node11</title>
<g id="a_edge37_Node000023_Node000011"><a xlink:title=" ">
<path fill="none" stroke="#63b8ff" d="M830.18,-60.37C811.4,-50.73 780.8,-35.03 758.95,-23.81"/>
<polygon fill="#63b8ff" stroke="#63b8ff" points="760.39,-20.62 749.89,-19.17 757.19,-26.85 760.39,-20.62"/>
</a>
</g>
</g>
<!-- Node24 -->
<g id="Node000024" class="node">
<title>Node24</title>
<g id="a_Node000024"><a xlink:title=" ">
<polygon fill="#e0e0e0" stroke="#999999" points="830,-19 776,-19 776,0 830,0 830,-19"/>
<text text-anchor="middle" x="803" y="-7" font-family="Helvetica,sans-Serif" font-size="10.00">random</text>
</a>
</g>
</g>
<!-- Node23&#45;&gt;Node24 -->
<g id="edge34_Node000023_Node000024" class="edge">
<title>Node23&#45;&gt;Node24</title>
<g id="a_edge34_Node000023_Node000024"><a xlink:title=" ">
<path fill="none" stroke="#63b8ff" d="M840.51,-60.37C834.01,-51.73 823.84,-38.2 815.72,-27.42"/>
<polygon fill="#63b8ff" stroke="#63b8ff" points="818.33,-25.06 809.52,-19.17 812.73,-29.26 818.33,-25.06"/>
</a>
</g>
</g>
<!-- Node25 -->
<g id="Node000025" class="node">
<title>Node25</title>
<g id="a_Node000025"><a xlink:title=" ">
<polygon fill="#e0e0e0" stroke="#999999" points="904,-19 848,-19 848,0 904,0 904,-19"/>
<text text-anchor="middle" x="876" y="-7" font-family="Helvetica,sans-Serif" font-size="10.00">sstream</text>
</a>
</g>
</g>
<!-- Node23&#45;&gt;Node25 -->
<g id="edge35_Node000023_Node000025" class="edge">
<title>Node23&#45;&gt;Node25</title>
<g id="a_edge35_Node000023_Node000025"><a xlink:title=" ">
<path fill="none" stroke="#63b8ff" d="M851.28,-60.37C855.43,-51.99 861.87,-39.01 867.13,-28.39"/>
<polygon fill="#63b8ff" stroke="#63b8ff" points="870.4,-29.68 871.7,-19.17 864.13,-26.57 870.4,-29.68"/>
</a>
</g>
</g>
<!-- Node26 -->
<g id="Node000026" class="node">
<title>Node26</title>
<g id="a_Node000026"><a xlink:title=" ">
<polygon fill="#e0e0e0" stroke="#999999" points="977.5,-19 922.5,-19 922.5,0 977.5,0 977.5,-19"/>
<text text-anchor="middle" x="950" y="-7" font-family="Helvetica,sans-Serif" font-size="10.00">fstream</text>
</a>
</g>
</g>
<!-- Node23&#45;&gt;Node26 -->
<g id="edge36_Node000023_Node000026" class="edge">
<title>Node23&#45;&gt;Node26</title>
<g id="a_edge36_Node000023_Node000026"><a xlink:title=" ">
<path fill="none" stroke="#63b8ff" d="M862.2,-60.37C879.01,-50.82 906.32,-35.31 926.02,-24.12"/>
<polygon fill="#63b8ff" stroke="#63b8ff" points="927.77,-27.15 934.74,-19.17 924.32,-21.06 927.77,-27.15"/>
</a>
</g>
</g>
<!-- Node27&#45;&gt;Node9 -->
<g id="edge41_Node000027_Node000009" class="edge">
<title>Node27&#45;&gt;Node9</title>
<g id="a_edge41_Node000027_Node000009"><a xlink:title=" ">
<path fill="none" stroke="#63b8ff" d="M574.41,-175.64C576.23,-148.91 576.33,-90.94 548,-55 531.37,-33.91 502.62,-22.54 480.2,-16.59"/>
<polygon fill="#63b8ff" stroke="#63b8ff" points="480.95,-13.17 470.41,-14.22 479.31,-19.97 480.95,-13.17"/>
</a>
</g>
</g>
<!-- Node27&#45;&gt;Node20 -->
<g id="edge43_Node000027_Node000020" class="edge">
<title>Node27&#45;&gt;Node20</title>
<g id="a_edge43_Node000027_Node000020"><a xlink:title=" ">
<path fill="none" stroke="#63b8ff" d="M527.97,-175.99C495.66,-165.94 452.66,-152.55 422.27,-143.1"/>
<polygon fill="#63b8ff" stroke="#63b8ff" points="423.08,-139.68 412.49,-140.05 421,-146.37 423.08,-139.68"/>
</a>
</g>
</g>
<!-- Node28 -->
<g id="Node000028" class="node">
<title>Node28</title>
<g id="a_Node000028"><a xlink:title=" ">
<polygon fill="#e0e0e0" stroke="#999999" points="539,-140 501,-140 501,-121 539,-121 539,-140"/>
<text text-anchor="middle" x="520" y="-128" font-family="Helvetica,sans-Serif" font-size="10.00">map</text>
</a>
</g>
</g>
<!-- Node27&#45;&gt;Node28 -->
<g id="edge40_Node000027_Node000028" class="edge">
<title>Node27&#45;&gt;Node28</title>
<g id="a_edge40_Node000027_Node000028"><a xlink:title=" ">
<path fill="none" stroke="#63b8ff" d="M560.17,-175.84C552.48,-167.35 542.67,-156.52 534.67,-147.69"/>
<polygon fill="#63b8ff" stroke="#63b8ff" points="537.25,-145.33 527.94,-140.27 532.06,-150.03 537.25,-145.33"/>
</a>
</g>
</g>
<!-- Node29 -->
<g id="Node000029" class="node">
<title>Node29</title>
<g id="a_Node000029"><a xlink:title=" ">
<polygon fill="#e0e0e0" stroke="#999999" points="645,-140 595,-140 595,-121 645,-121 645,-140"/>
<text text-anchor="middle" x="620" y="-128" font-family="Helvetica,sans-Serif" font-size="10.00">format</text>
</a>
</g>
</g>
<!-- Node27&#45;&gt;Node29 -->
<g id="edge42_Node000027_Node000029" class="edge">
<title>Node27&#45;&gt;Node29</title>
<g id="a_edge42_Node000027_Node000029"><a xlink:title=" ">
<path fill="none" stroke="#63b8ff" d="M584.38,-175.84C591.06,-167.52 599.55,-156.96 606.56,-148.23"/>
<polygon fill="#63b8ff" stroke="#63b8ff" points="609.42,-150.25 612.96,-140.27 603.97,-145.87 609.42,-150.25"/>
</a>
</g>
</g>
<!-- Node30&#45;&gt;Node6 -->
<g id="edge48_Node000030_Node000006" class="edge">
<title>Node30&#45;&gt;Node6</title>
<g id="a_edge48_Node000030_Node000006"><a xlink:title=" ">
<path fill="none" stroke="#63b8ff" d="M989.04,-54.99C1016.77,-45.04 1053.59,-31.82 1079.88,-22.39"/>
<polygon fill="#63b8ff" stroke="#63b8ff" points="1081.17,-25.64 1089.4,-18.97 1078.81,-19.05 1081.17,-25.64"/>
</a>
</g>
</g>
<!-- Node30&#45;&gt;Node9 -->
<g id="edge47_Node000030_Node000009" class="edge">
<title>Node30&#45;&gt;Node9</title>
<g id="a_edge47_Node000030_Node000009"><a xlink:title=" ">
<path fill="none" stroke="#63b8ff" d="M888.22,-56.31C885.45,-55.85 882.7,-55.41 880,-55 731.44,-32.54 552.41,-18.08 480.35,-12.78"/>
<polygon fill="#63b8ff" stroke="#63b8ff" points="480.35,-9.27 470.12,-12.03 479.84,-16.25 480.35,-9.27"/>
</a>
</g>
</g>
<!-- Node30&#45;&gt;Node26 -->
<g id="edge49_Node000030_Node000026" class="edge">
<title>Node30&#45;&gt;Node26</title>
<g id="a_edge49_Node000030_Node000026"><a xlink:title=" ">
<path fill="none" stroke="#63b8ff" d="M950,-54.84C950,-47.21 950,-37.7 950,-29.45"/>
<polygon fill="#63b8ff" stroke="#63b8ff" points="953.5,-29.27 950,-19.27 946.5,-29.27 953.5,-29.27"/>
</a>
</g>
</g>
<!-- Node32 -->
<g id="Node000032" class="node">
<title>Node32</title>
<g id="a_Node000032"><a xlink:href="plot__parameters_8h.html" target="_top" xlink:title=" ">
<polygon fill="white" stroke="#666666" points="377,-200.5 271,-200.5 271,-181.5 377,-181.5 377,-200.5"/>
<text text-anchor="middle" x="324" y="-188.5" font-family="Helvetica,sans-Serif" font-size="10.00">plot_parameters.h</text>
</a>
</g>
</g>
<!-- Node31&#45;&gt;Node32 -->
<g id="edge52_Node000031_Node000032" class="edge">
<title>Node31&#45;&gt;Node32</title>
<g id="a_edge52_Node000031_Node000032"><a xlink:title=" ">
<path fill="none" stroke="#63b8ff" d="M177.09,-242.85C205.72,-232.94 255.92,-215.57 289.57,-203.92"/>
<polygon fill="#63b8ff" stroke="#63b8ff" points="291.13,-207.08 299.43,-200.5 288.84,-200.47 291.13,-207.08"/>
</a>
</g>
</g>
<!-- Node32&#45;&gt;Node6 -->
<g id="edge55_Node000032_Node000006" class="edge">
<title>Node32&#45;&gt;Node6</title>
<g id="a_edge55_Node000032_Node000006"><a xlink:title=" ">
<path fill="none" stroke="#63b8ff" d="M342.68,-181.43C379.84,-164.54 461.98,-127.99 492,-121 721.51,-67.54 801.66,-171.16 1021,-85 1052.85,-72.49 1082.19,-44.74 1098.81,-26.86"/>
<polygon fill="#63b8ff" stroke="#63b8ff" points="1101.41,-29.2 1105.51,-19.44 1096.21,-24.51 1101.41,-29.2"/>
</a>
</g>
</g>
<!-- Node32&#45;&gt;Node9 -->
<g id="edge54_Node000032_Node000009" class="edge">
<title>Node32&#45;&gt;Node9</title>
<g id="a_edge54_Node000032_Node000009"><a xlink:title=" ">
<path fill="none" stroke="#63b8ff" d="M322.2,-181.34C317.93,-158.18 309.58,-93.95 339,-55 357.11,-31.02 390.36,-19.91 415.4,-14.79"/>
<polygon fill="#63b8ff" stroke="#63b8ff" points="416.34,-18.18 425.55,-12.95 415.09,-11.29 416.34,-18.18"/>
</a>
</g>
</g>
<!-- Node32&#45;&gt;Node20 -->
<g id="edge56_Node000032_Node000020" class="edge">
<title>Node32&#45;&gt;Node20</title>
<g id="a_edge56_Node000032_Node000020"><a xlink:title=" ">
<path fill="none" stroke="#63b8ff" d="M333,-181.37C342.37,-172.38 357.25,-158.11 368.7,-147.14"/>
<polygon fill="#63b8ff" stroke="#63b8ff" points="371.17,-149.62 375.96,-140.17 366.32,-144.56 371.17,-149.62"/>
</a>
</g>
</g>
<!-- Node32&#45;&gt;Node28 -->
<g id="edge53_Node000032_Node000028" class="edge">
<title>Node32&#45;&gt;Node28</title>
<g id="a_edge53_Node000032_Node000028"><a xlink:title=" ">
<path fill="none" stroke="#63b8ff" d="M352.5,-181.49C389.57,-170.43 453.98,-151.2 491.2,-140.1"/>
<polygon fill="#63b8ff" stroke="#63b8ff" points="492.35,-143.41 500.93,-137.19 490.35,-136.7 492.35,-143.41"/>
</a>
</g>
</g>
<!-- Node33&#45;&gt;Node31 -->
<g id="edge59_Node000033_Node000031" class="edge">
<title>Node33&#45;&gt;Node31</title>
<g id="a_edge59_Node000033_Node000031"><a xlink:title=" ">
<path fill="none" stroke="#63b8ff" d="M325.38,-296.98C287.38,-287.06 224.97,-270.77 187.16,-260.9"/>
<polygon fill="#63b8ff" stroke="#63b8ff" points="187.75,-257.43 177.19,-258.29 185.98,-264.21 187.75,-257.43"/>
</a>
</g>
</g>
<!-- Node34&#45;&gt;Node31 -->
<g id="edge61_Node000034_Node000031" class="edge">
<title>Node34&#45;&gt;Node31</title>
<g id="a_edge61_Node000034_Node000031"><a xlink:title=" ">
<path fill="none" stroke="#63b8ff" d="M168.36,-296.75C166.24,-289.72 163.19,-279.62 160.54,-270.84"/>
<polygon fill="#63b8ff" stroke="#63b8ff" points="163.83,-269.65 157.59,-261.09 157.13,-271.67 163.83,-269.65"/>
</a>
</g>
</g>
<!-- Node35&#45;&gt;Node4 -->
<g id="edge67_Node000035_Node000004" class="edge">
<title>Node35&#45;&gt;Node4</title>
<g id="a_edge67_Node000035_Node000004"><a xlink:title=" ">
<path fill="none" stroke="#63b8ff" d="M469.6,-423.37C447.77,-412.54 410.11,-393.85 384.64,-381.22"/>
<polygon fill="#63b8ff" stroke="#63b8ff" points="386.05,-378.01 375.53,-376.7 382.94,-384.28 386.05,-378.01"/>
</a>
</g>
</g>
<!-- Node35&#45;&gt;Node7 -->
<g id="edge66_Node000035_Node000007" class="edge">
<title>Node35&#45;&gt;Node7</title>
<g id="a_edge66_Node000035_Node000007"><a xlink:title=" ">
<path fill="none" stroke="#63b8ff" d="M523.91,-423.44C618.96,-401.4 872.05,-342.73 977.19,-318.35"/>
<polygon fill="#63b8ff" stroke="#63b8ff" points="978.24,-321.7 987.19,-316.03 976.66,-314.88 978.24,-321.7"/>
</a>
</g>
</g>
<!-- Node35&#45;&gt;Node17 -->
<g id="edge65_Node000035_Node000017" class="edge">
<title>Node35&#45;&gt;Node17</title>
<g id="a_edge65_Node000035_Node000017"><a xlink:title=" ">
<path fill="none" stroke="#63b8ff" d="M430.18,-423.45C301.72,-403.35 0,-351.46 0,-307.5 0,-307.5 0,-307.5 0,-190 0,-147.53 34.41,-107.65 56.3,-86.57"/>
<polygon fill="#63b8ff" stroke="#63b8ff" points="58.77,-89.06 63.71,-79.69 54,-83.93 58.77,-89.06"/>
</a>
</g>
</g>
<!-- Node36 -->
<g id="Node000036" class="node">
<title>Node36</title>
<g id="a_Node000036"><a xlink:title=" ">
<polygon fill="#e0e0e0" stroke="#999999" points="521.5,-376.5 452.5,-376.5 452.5,-357.5 521.5,-357.5 521.5,-376.5"/>
<text text-anchor="middle" x="487" y="-364.5" font-family="Helvetica,sans-Serif" font-size="10.00">type_traits</text>
</a>
</g>
</g>
<!-- Node35&#45;&gt;Node36 -->
<g id="edge63_Node000035_Node000036" class="edge">
<title>Node35&#45;&gt;Node36</title>
<g id="a_edge63_Node000035_Node000036"><a xlink:title=" ">
<path fill="none" stroke="#63b8ff" d="M487,-423.37C487,-414.16 487,-399.29 487,-387.27"/>
<polygon fill="#63b8ff" stroke="#63b8ff" points="490.5,-386.91 487,-376.91 483.5,-386.91 490.5,-386.91"/>
</a>
</g>
</g>
<!-- Node37 -->
<g id="Node000037" class="node">
<title>Node37</title>
<g id="a_Node000037"><a xlink:title=" ">
<polygon fill="#e0e0e0" stroke="#999999" points="646.5,-382 539.5,-382 539.5,-352 646.5,-352 646.5,-382"/>
<text text-anchor="start" x="547.5" y="-370" font-family="Helvetica,sans-Serif" font-size="10.00">imgui&#45;platform&#45;kit</text>
<text text-anchor="middle" x="593" y="-359" font-family="Helvetica,sans-Serif" font-size="10.00">/user_interface.h</text>
</a>
</g>
</g>
<!-- Node35&#45;&gt;Node37 -->
<g id="edge64_Node000035_Node000037" class="edge">
<title>Node35&#45;&gt;Node37</title>
<g id="a_edge64_Node000035_Node000037"><a xlink:title=" ">
<path fill="none" stroke="#63b8ff" d="M501.3,-423.37C516.49,-414.2 541.01,-399.39 560.87,-387.4"/>
<polygon fill="#63b8ff" stroke="#63b8ff" points="562.87,-390.28 569.62,-382.12 559.25,-384.29 562.87,-390.28"/>
</a>
</g>
</g>
<!-- Node38 -->
<g id="Node000038" class="node">
<title>Node38</title>
<g id="a_Node000038"><a xlink:href="imgui__freetype_8h.html" target="_top" xlink:title=" ">
<polygon fill="white" stroke="#666666" points="1187,-382 1073,-382 1073,-352 1187,-352 1187,-382"/>
<text text-anchor="start" x="1081" y="-370" font-family="Helvetica,sans-Serif" font-size="10.00">user_interface/fonts</text>
<text text-anchor="middle" x="1130" y="-359" font-family="Helvetica,sans-Serif" font-size="10.00">/imgui_freetype.h</text>
</a>
</g>
</g>
<!-- Node35&#45;&gt;Node38 -->
<g id="edge68_Node000035_Node000038" class="edge">
<title>Node35&#45;&gt;Node38</title>
<g id="a_edge68_Node000035_Node000038"><a xlink:title=" ">
<path fill="none" stroke="#63b8ff" d="M555.51,-425.18C679.52,-412.84 939.74,-386.94 1062.79,-374.69"/>
<polygon fill="#63b8ff" stroke="#63b8ff" points="1063.23,-378.16 1072.84,-373.69 1062.54,-371.2 1063.23,-378.16"/>
</a>
</g>
</g>
<!-- Node39 -->
<g id="Node000039" class="node">
<title>Node39</title>
<g id="a_Node000039"><a xlink:title=" ">
<polygon fill="#e0e0e0" stroke="#999999" points="1352.5,-316 1299.5,-316 1299.5,-297 1352.5,-297 1352.5,-316"/>
<text text-anchor="middle" x="1326" y="-304" font-family="Helvetica,sans-Serif" font-size="10.00">imgui.h</text>
</a>
</g>
</g>
<!-- Node38&#45;&gt;Node39 -->
<g id="edge69_Node000038_Node000039" class="edge">
<title>Node38&#45;&gt;Node39</title>
<g id="a_edge69_Node000038_Node000039"><a xlink:title=" ">
<path fill="none" stroke="#63b8ff" d="M1176.95,-351.99C1211.49,-341.68 1257.77,-327.87 1289.55,-318.38"/>
<polygon fill="#63b8ff" stroke="#63b8ff" points="1290.74,-321.68 1299.32,-315.46 1288.74,-314.97 1290.74,-321.68"/>
</a>
</g>
</g>
</g>
</svg>
