<?xml version="1.0" encoding="UTF-8" standalone="no"?>
<!DOCTYPE svg PUBLIC "-//W3C//DTD SVG 1.1//EN"
 "http://www.w3.org/Graphics/SVG/1.1/DTD/svg11.dtd">
<!-- Generated by graphviz version 2.43.0 (0)
 -->
<!-- Title: src/user_interface/plots_window.cpp Pages: 1 -->
<svg width="1269pt" height="522pt"
 viewBox="0.00 0.00 1269.46 522.00" xmlns="http://www.w3.org/2000/svg" xmlns:xlink="http://www.w3.org/1999/xlink">
<g id="graph0" class="graph" transform="scale(1 1) rotate(0) translate(4 518)">
<title>src/user_interface/plots_window.cpp</title>
<!-- Node1 -->
<g id="Node000001" class="node">
<title>Node1</title>
<g id="a_Node000001"><a xlink:title=" ">
<polygon fill="#999999" stroke="#666666" points="830,-514 724,-514 724,-484 830,-484 830,-514"/>
<text text-anchor="start" x="732" y="-502" font-family="Helvetica,sans-Serif" font-size="10.00">src/user_interface</text>
<text text-anchor="middle" x="777" y="-491" font-family="Helvetica,sans-Serif" font-size="10.00">/plots_window.cpp</text>
</a>
</g>
</g>
<!-- Node2 -->
<g id="Node000002" class="node">
<title>Node2</title>
<g id="a_Node000002"><a xlink:href="plots__window_8h.html" target="_top" xlink:title=" ">
<polygon fill="white" stroke="#666666" points="421.5,-448 308.5,-448 308.5,-418 421.5,-418 421.5,-448"/>
<text text-anchor="start" x="316.5" y="-436" font-family="Helvetica,sans-Serif" font-size="10.00">user_interface/plots</text>
<text text-anchor="middle" x="365" y="-425" font-family="Helvetica,sans-Serif" font-size="10.00">_window.h</text>
</a>
</g>
</g>
<!-- Node1&#45;&gt;Node2 -->
<g id="edge1_Node000001_Node000002" class="edge">
<title>Node1&#45;&gt;Node2</title>
<g id="a_edge1_Node000001_Node000002"><a xlink:title=" ">
<path fill="none" stroke="#63b8ff" d="M723.98,-489.76C649.37,-478.17 513.41,-457.05 431.92,-444.4"/>
<polygon fill="#63b8ff" stroke="#63b8ff" points="432.2,-440.9 421.78,-442.82 431.12,-447.81 432.2,-440.9"/>
</a>
</g>
</g>
<!-- Node16 -->
<g id="Node000016" class="node">
<title>Node16</title>
<g id="a_Node000016"><a xlink:title=" ">
<polygon fill="#e0e0e0" stroke="#999999" points="1224,-200.5 1160,-200.5 1160,-181.5 1224,-181.5 1224,-200.5"/>
<text text-anchor="middle" x="1192" y="-188.5" font-family="Helvetica,sans-Serif" font-size="10.00">algorithm</text>
</a>
</g>
</g>
<!-- Node1&#45;&gt;Node16 -->
<g id="edge58_Node000001_Node000016" class="edge">
<title>Node1&#45;&gt;Node16</title>
<g id="a_edge58_Node000001_Node000016"><a xlink:title=" ">
<path fill="none" stroke="#63b8ff" d="M830.11,-494.72C954.06,-485.6 1252,-454.67 1252,-368 1252,-368 1252,-368 1252,-305.5 1252,-267.1 1224.83,-228.99 1207.06,-208.16"/>
<polygon fill="#63b8ff" stroke="#63b8ff" points="1209.59,-205.75 1200.34,-200.58 1204.35,-210.39 1209.59,-205.75"/>
</a>
</g>
</g>
<!-- Node3 -->
<g id="Node000003" class="node">
<title>Node3</title>
<g id="a_Node000003"><a xlink:title=" ">
<polygon fill="#e0e0e0" stroke="#999999" points="118.5,-19 71.5,-19 71.5,0 118.5,0 118.5,-19"/>
<text text-anchor="middle" x="95" y="-7" font-family="Helvetica,sans-Serif" font-size="10.00">vector</text>
</a>
</g>
</g>
<!-- Node2&#45;&gt;Node3 -->
<g id="edge2_Node000002_Node000003" class="edge">
<title>Node2&#45;&gt;Node3</title>
<g id="a_edge2_Node000002_Node000003"><a xlink:title=" ">
<path fill="none" stroke="#63b8ff" d="M308.37,-424.66C205.85,-409.77 0,-371.86 0,-307.5 0,-307.5 0,-307.5 0,-129.5 0,-83.22 44.42,-44.59 72.51,-24.79"/>
<polygon fill="#63b8ff" stroke="#63b8ff" points="74.68,-27.55 80.98,-19.03 70.74,-21.76 74.68,-27.55"/>
</a>
</g>
</g>
<!-- Node4 -->
<g id="Node000004" class="node">
<title>Node4</title>
<g id="a_Node000004"><a xlink:title=" ">
<polygon fill="#e0e0e0" stroke="#999999" points="600,-382 460,-382 460,-352 600,-352 600,-382"/>
<text text-anchor="start" x="468" y="-370" font-family="Helvetica,sans-Serif" font-size="10.00">imgui&#45;platform&#45;kit</text>
<text text-anchor="middle" x="530" y="-359" font-family="Helvetica,sans-Serif" font-size="10.00">/user_interface_window.h</text>
</a>
</g>
</g>
<!-- Node2&#45;&gt;Node4 -->
<g id="edge3_Node000002_Node000004" class="edge">
<title>Node2&#45;&gt;Node4</title>
<g id="a_edge3_Node000002_Node000004"><a xlink:title=" ">
<path fill="none" stroke="#63b8ff" d="M401.21,-417.95C425.71,-408.45 458.27,-395.82 484.52,-385.64"/>
<polygon fill="#63b8ff" stroke="#63b8ff" points="485.82,-388.89 493.87,-382.01 483.29,-382.37 485.82,-388.89"/>
</a>
</g>
</g>
<!-- Node5 -->
<g id="Node000005" class="node">
<title>Node5</title>
<g id="a_Node000005"><a xlink:title=" ">
<polygon fill="#e0e0e0" stroke="#999999" points="270.5,-376.5 223.5,-376.5 223.5,-357.5 270.5,-357.5 270.5,-376.5"/>
<text text-anchor="middle" x="247" y="-364.5" font-family="Helvetica,sans-Serif" font-size="10.00">cmath</text>
</a>
</g>
</g>
<!-- Node2&#45;&gt;Node5 -->
<g id="edge4_Node000002_Node000005" class="edge">
<title>Node2&#45;&gt;Node5</title>
<g id="a_edge4_Node000002_Node000005"><a xlink:title=" ">
<path fill="none" stroke="#63b8ff" d="M339.1,-417.95C319.05,-407.08 291.45,-392.11 271.7,-381.4"/>
<polygon fill="#63b8ff" stroke="#63b8ff" points="273.16,-378.21 262.7,-376.52 269.83,-384.36 273.16,-378.21"/>
</a>
</g>
</g>
<!-- Node6 -->
<g id="Node000006" class="node">
<title>Node6</title>
<g id="a_Node000006"><a xlink:href="visualization_8h.html" target="_top" xlink:title=" ">
<polygon fill="white" stroke="#666666" points="441.5,-376.5 288.5,-376.5 288.5,-357.5 441.5,-357.5 441.5,-376.5"/>
<text text-anchor="middle" x="365" y="-364.5" font-family="Helvetica,sans-Serif" font-size="10.00">visualization/visualization.h</text>
</a>
</g>
</g>
<!-- Node2&#45;&gt;Node6 -->
<g id="edge5_Node000002_Node000006" class="edge">
<title>Node2&#45;&gt;Node6</title>
<g id="a_edge5_Node000002_Node000006"><a xlink:title=" ">
<path fill="none" stroke="#63b8ff" d="M365,-417.8C365,-408.7 365,-396.79 365,-386.9"/>
<polygon fill="#63b8ff" stroke="#63b8ff" points="368.5,-386.84 365,-376.84 361.5,-386.84 368.5,-386.84"/>
</a>
</g>
</g>
<!-- Node6&#45;&gt;Node3 -->
<g id="edge7_Node000006_Node000003" class="edge">
<title>Node6&#45;&gt;Node3</title>
<g id="a_edge7_Node000006_Node000003"><a xlink:title=" ">
<path fill="none" stroke="#63b8ff" d="M313.5,-357.49C232.72,-344.08 84.88,-319.2 80,-316 51.7,-297.46 38,-286.34 38,-252.5 38,-252.5 38,-252.5 38,-129.5 38,-89.64 64.34,-48.98 81.21,-27.03"/>
<polygon fill="#63b8ff" stroke="#63b8ff" points="84.05,-29.07 87.55,-19.07 78.58,-24.71 84.05,-29.07"/>
</a>
</g>
</g>
<!-- Node7 -->
<g id="Node000007" class="node">
<title>Node7</title>
<g id="a_Node000007"><a xlink:title=" ">
<polygon fill="#e0e0e0" stroke="#999999" points="240,-79.5 180,-79.5 180,-60.5 240,-60.5 240,-79.5"/>
<text text-anchor="middle" x="210" y="-67.5" font-family="Helvetica,sans-Serif" font-size="10.00">iostream</text>
</a>
</g>
</g>
<!-- Node6&#45;&gt;Node7 -->
<g id="edge6_Node000006_Node000007" class="edge">
<title>Node6&#45;&gt;Node7</title>
<g id="a_edge6_Node000006_Node000007"><a xlink:title=" ">
<path fill="none" stroke="#63b8ff" d="M314.4,-357.47C237.21,-344.33 98.52,-320.23 95,-316 32.91,-241.35 145.98,-127.59 191.9,-86.49"/>
<polygon fill="#63b8ff" stroke="#63b8ff" points="194.43,-88.92 199.63,-79.69 189.81,-83.66 194.43,-88.92"/>
</a>
</g>
</g>
<!-- Node8 -->
<g id="Node000008" class="node">
<title>Node8</title>
<g id="a_Node000008"><a xlink:href="simulation_8h.html" target="_top" xlink:title=" ">
<polygon fill="white" stroke="#666666" points="610,-316 478,-316 478,-297 610,-297 610,-316"/>
<text text-anchor="middle" x="544" y="-304" font-family="Helvetica,sans-Serif" font-size="10.00">simulation/simulation.h</text>
</a>
</g>
</g>
<!-- Node6&#45;&gt;Node8 -->
<g id="edge8_Node000006_Node000008" class="edge">
<title>Node6&#45;&gt;Node8</title>
<g id="a_edge8_Node000006_Node000008"><a xlink:title=" ">
<path fill="none" stroke="#63b8ff" d="M391.03,-357.49C421.92,-347.4 473.58,-330.51 508.22,-319.19"/>
<polygon fill="#63b8ff" stroke="#63b8ff" points="509.52,-322.45 517.94,-316.02 507.35,-315.8 509.52,-322.45"/>
</a>
</g>
</g>
<!-- Node18 -->
<g id="Node000018" class="node">
<title>Node18</title>
<g id="a_Node000018"><a xlink:href="exception_8h.html" target="_top" xlink:title=" ">
<polygon fill="white" stroke="#666666" points="1121,-79.5 991,-79.5 991,-60.5 1121,-60.5 1121,-79.5"/>
<text text-anchor="middle" x="1056" y="-67.5" font-family="Helvetica,sans-Serif" font-size="10.00">exceptions/exception.h</text>
</a>
</g>
</g>
<!-- Node6&#45;&gt;Node18 -->
<g id="edge46_Node000006_Node000018" class="edge">
<title>Node6&#45;&gt;Node18</title>
<g id="a_edge46_Node000006_Node000018"><a xlink:title=" ">
<path fill="none" stroke="#63b8ff" d="M416.36,-357.47C427.76,-355.63 439.78,-353.71 451,-352 629.86,-324.67 1146.34,-352.88 1252,-206 1275.76,-172.97 1250.19,-145.89 1218,-121 1192.27,-101.1 1158.57,-89.07 1128.57,-81.81"/>
<polygon fill="#63b8ff" stroke="#63b8ff" points="1129.08,-78.34 1118.55,-79.53 1127.53,-85.16 1129.08,-78.34"/>
</a>
</g>
</g>
<!-- Node20 -->
<g id="Node000020" class="node">
<title>Node20</title>
<g id="a_Node000020"><a xlink:href="logger_8h.html" target="_top" xlink:title=" ">
<polygon fill="white" stroke="#666666" points="466.5,-140 383.5,-140 383.5,-121 466.5,-121 466.5,-140"/>
<text text-anchor="middle" x="425" y="-128" font-family="Helvetica,sans-Serif" font-size="10.00">tools/logger.h</text>
</a>
</g>
</g>
<!-- Node6&#45;&gt;Node20 -->
<g id="edge53_Node000006_Node000020" class="edge">
<title>Node6&#45;&gt;Node20</title>
<g id="a_edge53_Node000006_Node000020"><a xlink:title=" ">
<path fill="none" stroke="#63b8ff" d="M376.17,-357.48C386.91,-348.51 402.47,-333.31 409,-316 431.31,-256.86 361.01,-234.88 384,-176 388.4,-164.73 397.14,-154.59 405.43,-146.85"/>
<polygon fill="#63b8ff" stroke="#63b8ff" points="407.82,-149.4 413.07,-140.2 403.23,-144.12 407.82,-149.4"/>
</a>
</g>
</g>
<!-- Node30 -->
<g id="Node000030" class="node">
<title>Node30</title>
<g id="a_Node000030"><a xlink:href="plot_8h.html" target="_top" xlink:title=" ">
<polygon fill="white" stroke="#666666" points="272,-261 228,-261 228,-242 272,-242 272,-261"/>
<text text-anchor="middle" x="250" y="-249" font-family="Helvetica,sans-Serif" font-size="10.00">plot.h</text>
</a>
</g>
</g>
<!-- Node6&#45;&gt;Node30 -->
<g id="edge47_Node000006_Node000030" class="edge">
<title>Node6&#45;&gt;Node30</title>
<g id="a_edge47_Node000006_Node000030"><a xlink:title=" ">
<path fill="none" stroke="#63b8ff" d="M373.75,-357.24C386.47,-343.42 407.1,-316.16 393,-297 386.26,-287.85 322.07,-270.45 282.01,-260.33"/>
<polygon fill="#63b8ff" stroke="#63b8ff" points="282.7,-256.9 272.15,-257.86 281,-263.69 282.7,-256.9"/>
</a>
</g>
</g>
<!-- Node32 -->
<g id="Node000032" class="node">
<title>Node32</title>
<g id="a_Node000032"><a xlink:href="lineplot_8h.html" target="_top" xlink:title=" ">
<polygon fill="white" stroke="#666666" points="232,-316 104,-316 104,-297 232,-297 232,-316"/>
<text text-anchor="middle" x="168" y="-304" font-family="Helvetica,sans-Serif" font-size="10.00">visualization/lineplot.h</text>
</a>
</g>
</g>
<!-- Node6&#45;&gt;Node32 -->
<g id="edge54_Node000006_Node000032" class="edge">
<title>Node6&#45;&gt;Node32</title>
<g id="a_edge54_Node000006_Node000032"><a xlink:title=" ">
<path fill="none" stroke="#63b8ff" d="M336.35,-357.49C302.07,-347.31 244.52,-330.22 206.4,-318.9"/>
<polygon fill="#63b8ff" stroke="#63b8ff" points="207.26,-315.51 196.68,-316.02 205.27,-322.22 207.26,-315.51"/>
</a>
</g>
</g>
<!-- Node33 -->
<g id="Node000033" class="node">
<title>Node33</title>
<g id="a_Node000033"><a xlink:href="heatmap_8h.html" target="_top" xlink:title=" ">
<polygon fill="white" stroke="#666666" points="384,-316 250,-316 250,-297 384,-297 384,-316"/>
<text text-anchor="middle" x="317" y="-304" font-family="Helvetica,sans-Serif" font-size="10.00">visualization/heatmap.h</text>
</a>
</g>
</g>
<!-- Node6&#45;&gt;Node33 -->
<g id="edge56_Node000006_Node000033" class="edge">
<title>Node6&#45;&gt;Node33</title>
<g id="a_edge56_Node000006_Node000033"><a xlink:title=" ">
<path fill="none" stroke="#63b8ff" d="M357.92,-357.37C350.76,-348.64 339.51,-334.93 330.61,-324.09"/>
<polygon fill="#63b8ff" stroke="#63b8ff" points="333.16,-321.68 324.11,-316.17 327.75,-326.12 333.16,-321.68"/>
</a>
</g>
</g>
<!-- Node8&#45;&gt;Node3 -->
<g id="edge9_Node000008_Node000003" class="edge">
<title>Node8&#45;&gt;Node3</title>
<g id="a_edge9_Node000008_Node000003"><a xlink:title=" ">
<path fill="none" stroke="#63b8ff" d="M511.58,-296.92C483.21,-288.98 441.15,-276.13 406,-261 303.14,-216.73 279.84,-199.54 185,-140 149.38,-117.64 130.4,-120.6 108,-85 97.42,-68.19 94.81,-45.23 94.44,-29.26"/>
<polygon fill="#63b8ff" stroke="#63b8ff" points="97.94,-29.07 94.48,-19.05 90.94,-29.04 97.94,-29.07"/>
</a>
</g>
</g>
<!-- Node9 -->
<g id="Node000009" class="node">
<title>Node9</title>
<g id="a_Node000009"><a xlink:title=" ">
<polygon fill="#e0e0e0" stroke="#999999" points="1142,-200.5 1084,-200.5 1084,-181.5 1142,-181.5 1142,-200.5"/>
<text text-anchor="middle" x="1113" y="-188.5" font-family="Helvetica,sans-Serif" font-size="10.00">memory</text>
</a>
</g>
</g>
<!-- Node8&#45;&gt;Node9 -->
<g id="edge10_Node000008_Node000009" class="edge">
<title>Node8&#45;&gt;Node9</title>
<g id="a_edge10_Node000008_Node000009"><a xlink:title=" ">
<path fill="none" stroke="#63b8ff" d="M610.3,-300.13C679.78,-293.75 791.87,-281.32 887,-261 970.05,-243.26 988.95,-231.37 1070,-206 1072.43,-205.24 1074.93,-204.45 1077.44,-203.65"/>
<polygon fill="#63b8ff" stroke="#63b8ff" points="1078.66,-206.93 1087.11,-200.54 1076.52,-200.27 1078.66,-206.93"/>
</a>
</g>
</g>
<!-- Node10 -->
<g id="Node000010" class="node">
<title>Node10</title>
<g id="a_Node000010"><a xlink:title=" ">
<polygon fill="#e0e0e0" stroke="#999999" points="717,-19 673,-19 673,0 717,0 717,-19"/>
<text text-anchor="middle" x="695" y="-7" font-family="Helvetica,sans-Serif" font-size="10.00">string</text>
</a>
</g>
</g>
<!-- Node8&#45;&gt;Node10 -->
<g id="edge11_Node000008_Node000010" class="edge">
<title>Node8&#45;&gt;Node10</title>
<g id="a_edge11_Node000008_Node000010"><a xlink:title=" ">
<path fill="none" stroke="#63b8ff" d="M574.77,-296.9C613.61,-284.2 678.77,-256.31 707,-206 739.42,-148.22 715.54,-65.14 702.28,-28.75"/>
<polygon fill="#63b8ff" stroke="#63b8ff" points="705.41,-27.13 698.58,-19.03 698.87,-29.62 705.41,-27.13"/>
</a>
</g>
</g>
<!-- Node11 -->
<g id="Node000011" class="node">
<title>Node11</title>
<g id="a_Node000011"><a xlink:title=" ">
<polygon fill="#e0e0e0" stroke="#999999" points="510,-261 442,-261 442,-242 510,-242 510,-261"/>
<text text-anchor="middle" x="476" y="-249" font-family="Helvetica,sans-Serif" font-size="10.00">filesystem</text>
</a>
</g>
</g>
<!-- Node8&#45;&gt;Node11 -->
<g id="edge12_Node000008_Node000011" class="edge">
<title>Node8&#45;&gt;Node11</title>
<g id="a_edge12_Node000008_Node000011"><a xlink:title=" ">
<path fill="none" stroke="#63b8ff" d="M533.07,-296.98C522.92,-289.07 507.58,-277.11 495.35,-267.58"/>
<polygon fill="#63b8ff" stroke="#63b8ff" points="497.16,-264.56 487.12,-261.17 492.86,-270.08 497.16,-264.56"/>
</a>
</g>
</g>
<!-- Node12 -->
<g id="Node000012" class="node">
<title>Node12</title>
<g id="a_Node000012"><a xlink:title=" ">
<polygon fill="#e0e0e0" stroke="#999999" points="558,-19 508,-19 508,0 558,0 558,-19"/>
<text text-anchor="middle" x="533" y="-7" font-family="Helvetica,sans-Serif" font-size="10.00">chrono</text>
</a>
</g>
</g>
<!-- Node8&#45;&gt;Node12 -->
<g id="edge13_Node000008_Node000012" class="edge">
<title>Node8&#45;&gt;Node12</title>
<g id="a_edge13_Node000008_Node000012"><a xlink:title=" ">
<path fill="none" stroke="#63b8ff" d="M543.72,-296.85C542.66,-264.79 538.83,-149.79 535,-55 534.66,-46.49 534.24,-37.07 533.87,-29.09"/>
<polygon fill="#63b8ff" stroke="#63b8ff" points="537.37,-28.86 533.41,-19.03 530.37,-29.18 537.37,-28.86"/>
</a>
</g>
</g>
<!-- Node13 -->
<g id="Node000013" class="node">
<title>Node13</title>
<g id="a_Node000013"><a xlink:href="element_8h.html" target="_top" xlink:title=" ">
<polygon fill="white" stroke="#666666" points="877.5,-261 762.5,-261 762.5,-242 877.5,-242 877.5,-261"/>
<text text-anchor="middle" x="820" y="-249" font-family="Helvetica,sans-Serif" font-size="10.00">elements/element.h</text>
</a>
</g>
</g>
<!-- Node8&#45;&gt;Node13 -->
<g id="edge14_Node000008_Node000013" class="edge">
<title>Node8&#45;&gt;Node13</title>
<g id="a_edge14_Node000008_Node000013"><a xlink:title=" ">
<path fill="none" stroke="#63b8ff" d="M588.34,-296.98C636.49,-287.74 713.42,-272.97 765.29,-263.01"/>
<polygon fill="#63b8ff" stroke="#63b8ff" points="766.15,-266.41 775.31,-261.08 764.83,-259.53 766.15,-266.41"/>
</a>
</g>
</g>
<!-- Node8&#45;&gt;Node18 -->
<g id="edge44_Node000008_Node000018" class="edge">
<title>Node8&#45;&gt;Node18</title>
<g id="a_edge44_Node000008_Node000018"><a xlink:title=" ">
<path fill="none" stroke="#63b8ff" d="M610.12,-300.92C774.89,-288.83 1193.38,-253.66 1233,-206 1279.53,-150.03 1161.8,-103.35 1096.32,-82.58"/>
<polygon fill="#63b8ff" stroke="#63b8ff" points="1097.26,-79.21 1086.67,-79.59 1095.19,-85.89 1097.26,-79.21"/>
</a>
</g>
</g>
<!-- Node23 -->
<g id="Node000023" class="node">
<title>Node23</title>
<g id="a_Node000023"><a xlink:href="utils_8h.html" target="_top" xlink:title=" ">
<polygon fill="white" stroke="#666666" points="305.5,-79.5 258.5,-79.5 258.5,-60.5 305.5,-60.5 305.5,-79.5"/>
<text text-anchor="middle" x="282" y="-67.5" font-family="Helvetica,sans-Serif" font-size="10.00">utils.h</text>
</a>
</g>
</g>
<!-- Node8&#45;&gt;Node23 -->
<g id="edge45_Node000008_Node000023" class="edge">
<title>Node8&#45;&gt;Node23</title>
<g id="a_edge45_Node000008_Node000023"><a xlink:title=" ">
<path fill="none" stroke="#63b8ff" d="M511.92,-296.96C488.64,-289.78 457.13,-277.94 433,-261 364.92,-213.2 312.03,-126.11 291.4,-88.77"/>
<polygon fill="#63b8ff" stroke="#63b8ff" points="294.29,-86.76 286.45,-79.64 288.14,-90.1 294.29,-86.76"/>
</a>
</g>
</g>
<!-- Node13&#45;&gt;Node3 -->
<g id="edge15_Node000013_Node000003" class="edge">
<title>Node13&#45;&gt;Node3</title>
<g id="a_edge15_Node000013_Node000003"><a xlink:title=" ">
<path fill="none" stroke="#63b8ff" d="M762.17,-250.39C677.68,-248.93 516.15,-241.24 384,-206 314.41,-187.44 300.76,-171.52 236,-140 188.99,-117.12 168.5,-122.44 132,-85 116.45,-69.05 106.21,-45.28 100.52,-28.9"/>
<polygon fill="#63b8ff" stroke="#63b8ff" points="103.84,-27.8 97.43,-19.36 97.18,-29.95 103.84,-27.8"/>
</a>
</g>
</g>
<!-- Node13&#45;&gt;Node9 -->
<g id="edge18_Node000013_Node000009" class="edge">
<title>Node13&#45;&gt;Node9</title>
<g id="a_edge18_Node000013_Node000009"><a xlink:title=" ">
<path fill="none" stroke="#63b8ff" d="M877.57,-242.57C928.55,-235 1004.79,-222.34 1070,-206 1072.95,-205.26 1075.99,-204.42 1079.03,-203.54"/>
<polygon fill="#63b8ff" stroke="#63b8ff" points="1080.08,-206.88 1088.61,-200.59 1078.02,-200.19 1080.08,-206.88"/>
</a>
</g>
</g>
<!-- Node13&#45;&gt;Node10 -->
<g id="edge16_Node000013_Node000010" class="edge">
<title>Node13&#45;&gt;Node10</title>
<g id="a_edge16_Node000013_Node000010"><a xlink:title=" ">
<path fill="none" stroke="#63b8ff" d="M810.68,-241.85C802.22,-233.48 790.01,-220.02 783,-206 752.13,-144.3 782.97,-113.87 747,-55 739.74,-43.12 728.23,-32.79 717.88,-25.08"/>
<polygon fill="#63b8ff" stroke="#63b8ff" points="719.78,-22.14 709.58,-19.25 715.75,-27.86 719.78,-22.14"/>
</a>
</g>
</g>
<!-- Node14 -->
<g id="Node000014" class="node">
<title>Node14</title>
<g id="a_Node000014"><a xlink:title=" ">
<polygon fill="#e0e0e0" stroke="#999999" points="959.5,-200.5 866.5,-200.5 866.5,-181.5 959.5,-181.5 959.5,-200.5"/>
<text text-anchor="middle" x="913" y="-188.5" font-family="Helvetica,sans-Serif" font-size="10.00">unordered_map</text>
</a>
</g>
</g>
<!-- Node13&#45;&gt;Node14 -->
<g id="edge17_Node000013_Node000014" class="edge">
<title>Node13&#45;&gt;Node14</title>
<g id="a_edge17_Node000013_Node000014"><a xlink:title=" ">
<path fill="none" stroke="#63b8ff" d="M833.72,-241.87C848.7,-232.45 872.89,-217.23 890.62,-206.08"/>
<polygon fill="#63b8ff" stroke="#63b8ff" points="892.62,-208.95 899.22,-200.67 888.89,-203.03 892.62,-208.95"/>
</a>
</g>
</g>
<!-- Node15 -->
<g id="Node000015" class="node">
<title>Node15</title>
<g id="a_Node000015"><a xlink:title=" ">
<polygon fill="#e0e0e0" stroke="#999999" points="1028,-200.5 978,-200.5 978,-181.5 1028,-181.5 1028,-200.5"/>
<text text-anchor="middle" x="1003" y="-188.5" font-family="Helvetica,sans-Serif" font-size="10.00">ranges</text>
</a>
</g>
</g>
<!-- Node13&#45;&gt;Node15 -->
<g id="edge19_Node000013_Node000015" class="edge">
<title>Node13&#45;&gt;Node15</title>
<g id="a_edge19_Node000013_Node000015"><a xlink:title=" ">
<path fill="none" stroke="#63b8ff" d="M851.98,-241.95C882.36,-233.6 929.17,-220.11 969,-206 970.43,-205.49 971.89,-204.96 973.35,-204.41"/>
<polygon fill="#63b8ff" stroke="#63b8ff" points="974.96,-207.54 982.99,-200.63 972.41,-201.02 974.96,-207.54"/>
</a>
</g>
</g>
<!-- Node13&#45;&gt;Node16 -->
<g id="edge20_Node000013_Node000016" class="edge">
<title>Node13&#45;&gt;Node16</title>
<g id="a_edge20_Node000013_Node000016"><a xlink:title=" ">
<path fill="none" stroke="#63b8ff" d="M877.73,-246.18C944.27,-240.41 1056.61,-228.24 1151,-206 1153.98,-205.3 1157.05,-204.47 1160.1,-203.56"/>
<polygon fill="#63b8ff" stroke="#63b8ff" points="1161.21,-206.88 1169.67,-200.51 1159.08,-200.21 1161.21,-206.88"/>
</a>
</g>
</g>
<!-- Node17 -->
<g id="Node000017" class="node">
<title>Node17</title>
<g id="a_Node000017"><a xlink:title=" ">
<polygon fill="#e0e0e0" stroke="#999999" points="848,-200.5 792,-200.5 792,-181.5 848,-181.5 848,-200.5"/>
<text text-anchor="middle" x="820" y="-188.5" font-family="Helvetica,sans-Serif" font-size="10.00">numeric</text>
</a>
</g>
</g>
<!-- Node13&#45;&gt;Node17 -->
<g id="edge21_Node000013_Node000017" class="edge">
<title>Node13&#45;&gt;Node17</title>
<g id="a_edge21_Node000013_Node000017"><a xlink:title=" ">
<path fill="none" stroke="#63b8ff" d="M820,-241.87C820,-233.75 820,-221.31 820,-210.89"/>
<polygon fill="#63b8ff" stroke="#63b8ff" points="823.5,-210.67 820,-200.67 816.5,-210.67 823.5,-210.67"/>
</a>
</g>
</g>
<!-- Node13&#45;&gt;Node18 -->
<g id="edge22_Node000013_Node000018" class="edge">
<title>Node13&#45;&gt;Node18</title>
<g id="a_edge22_Node000013_Node000018"><a xlink:title=" ">
<path fill="none" stroke="#63b8ff" d="M877.55,-242.18C938.07,-232.89 1026.07,-217.63 1037,-206 1066.76,-174.32 1063.6,-118.63 1059.44,-89.67"/>
<polygon fill="#63b8ff" stroke="#63b8ff" points="1062.87,-88.98 1057.8,-79.67 1055.96,-90.11 1062.87,-88.98"/>
</a>
</g>
</g>
<!-- Node13&#45;&gt;Node20 -->
<g id="edge25_Node000013_Node000020" class="edge">
<title>Node13&#45;&gt;Node20</title>
<g id="a_edge25_Node000013_Node000020"><a xlink:title=" ">
<path fill="none" stroke="#63b8ff" d="M762.38,-248.67C651.93,-244.57 419.14,-232.8 395,-206 380.06,-189.41 395.54,-164.44 409.23,-148.05"/>
<polygon fill="#63b8ff" stroke="#63b8ff" points="412.04,-150.16 416.06,-140.35 406.81,-145.51 412.04,-150.16"/>
</a>
</g>
</g>
<!-- Node27 -->
<g id="Node000027" class="node">
<title>Node27</title>
<g id="a_Node000027"><a xlink:href="element__parameters_8h.html" target="_top" xlink:title=" ">
<polygon fill="white" stroke="#666666" points="697.5,-206 566.5,-206 566.5,-176 697.5,-176 697.5,-206"/>
<text text-anchor="start" x="574.5" y="-194" font-family="Helvetica,sans-Serif" font-size="10.00">element_parameters</text>
<text text-anchor="middle" x="632" y="-183" font-family="Helvetica,sans-Serif" font-size="10.00">/element_parameters.h</text>
</a>
</g>
</g>
<!-- Node13&#45;&gt;Node27 -->
<g id="edge39_Node000013_Node000027" class="edge">
<title>Node13&#45;&gt;Node27</title>
<g id="a_edge39_Node000013_Node000027"><a xlink:title=" ">
<path fill="none" stroke="#63b8ff" d="M792.66,-241.99C765.02,-233.39 721.52,-219.86 686.75,-209.04"/>
<polygon fill="#63b8ff" stroke="#63b8ff" points="687.79,-205.69 677.2,-206.06 685.71,-212.38 687.79,-205.69"/>
</a>
</g>
</g>
<!-- Node18&#45;&gt;Node10 -->
<g id="edge24_Node000018_Node000010" class="edge">
<title>Node18&#45;&gt;Node10</title>
<g id="a_edge24_Node000018_Node000010"><a xlink:title=" ">
<path fill="none" stroke="#63b8ff" d="M1003.51,-60.49C927.72,-48.21 789.89,-25.88 727.37,-15.75"/>
<polygon fill="#63b8ff" stroke="#63b8ff" points="727.74,-12.26 717.31,-14.11 726.62,-19.17 727.74,-12.26"/>
</a>
</g>
</g>
<!-- Node19 -->
<g id="Node000019" class="node">
<title>Node19</title>
<g id="a_Node000019"><a xlink:title=" ">
<polygon fill="#e0e0e0" stroke="#999999" points="1088.5,-19 1023.5,-19 1023.5,0 1088.5,0 1088.5,-19"/>
<text text-anchor="middle" x="1056" y="-7" font-family="Helvetica,sans-Serif" font-size="10.00">exception</text>
</a>
</g>
</g>
<!-- Node18&#45;&gt;Node19 -->
<g id="edge23_Node000018_Node000019" class="edge">
<title>Node18&#45;&gt;Node19</title>
<g id="a_edge23_Node000018_Node000019"><a xlink:title=" ">
<path fill="none" stroke="#63b8ff" d="M1056,-60.37C1056,-52.25 1056,-39.81 1056,-29.39"/>
<polygon fill="#63b8ff" stroke="#63b8ff" points="1059.5,-29.17 1056,-19.17 1052.5,-29.17 1059.5,-29.17"/>
</a>
</g>
</g>
<!-- Node20&#45;&gt;Node7 -->
<g id="edge26_Node000020_Node000007" class="edge">
<title>Node20&#45;&gt;Node7</title>
<g id="a_edge26_Node000020_Node000007"><a xlink:title=" ">
<path fill="none" stroke="#63b8ff" d="M386.6,-120.92C350.74,-112.65 295.88,-99.3 249,-85 246.74,-84.31 244.41,-83.56 242.07,-82.79"/>
<polygon fill="#63b8ff" stroke="#63b8ff" points="243.16,-79.46 232.56,-79.52 240.88,-86.08 243.16,-79.46"/>
</a>
</g>
</g>
<!-- Node20&#45;&gt;Node10 -->
<g id="edge27_Node000020_Node000010" class="edge">
<title>Node20&#45;&gt;Node10</title>
<g id="a_edge27_Node000020_Node000010"><a xlink:title=" ">
<path fill="none" stroke="#63b8ff" d="M447.05,-120.96C469.36,-112.24 504.77,-98.14 535,-85 582.37,-64.41 636.73,-38.63 668.33,-23.43"/>
<polygon fill="#63b8ff" stroke="#63b8ff" points="669.89,-26.56 677.38,-19.07 666.85,-20.26 669.89,-26.56"/>
</a>
</g>
</g>
<!-- Node20&#45;&gt;Node12 -->
<g id="edge28_Node000020_Node000012" class="edge">
<title>Node20&#45;&gt;Node12</title>
<g id="a_edge28_Node000020_Node000012"><a xlink:title=" ">
<path fill="none" stroke="#63b8ff" d="M456.91,-120.94C476.12,-114.2 499.58,-102.89 514,-85 526.8,-69.13 531.09,-45.67 532.47,-29.33"/>
<polygon fill="#63b8ff" stroke="#63b8ff" points="535.96,-29.52 533.02,-19.34 528.97,-29.13 535.96,-29.52"/>
</a>
</g>
</g>
<!-- Node20&#45;&gt;Node18 -->
<g id="edge31_Node000020_Node000018" class="edge">
<title>Node20&#45;&gt;Node18</title>
<g id="a_edge31_Node000020_Node000018"><a xlink:title=" ">
<path fill="none" stroke="#63b8ff" d="M466.89,-125.62C571.78,-115.89 846.88,-90.39 980.71,-77.98"/>
<polygon fill="#63b8ff" stroke="#63b8ff" points="981.24,-81.45 990.88,-77.04 980.6,-74.48 981.24,-81.45"/>
</a>
</g>
</g>
<!-- Node21 -->
<g id="Node000021" class="node">
<title>Node21</title>
<g id="a_Node000021"><a xlink:title=" ">
<polygon fill="#e0e0e0" stroke="#999999" points="505,-79.5 449,-79.5 449,-60.5 505,-60.5 505,-79.5"/>
<text text-anchor="middle" x="477" y="-67.5" font-family="Helvetica,sans-Serif" font-size="10.00">iomanip</text>
</a>
</g>
</g>
<!-- Node20&#45;&gt;Node21 -->
<g id="edge29_Node000020_Node000021" class="edge">
<title>Node20&#45;&gt;Node21</title>
<g id="a_edge29_Node000020_Node000021"><a xlink:title=" ">
<path fill="none" stroke="#63b8ff" d="M432.67,-120.87C440.51,-112.05 452.86,-98.16 462.54,-87.27"/>
<polygon fill="#63b8ff" stroke="#63b8ff" points="465.27,-89.47 469.3,-79.67 460.04,-84.82 465.27,-89.47"/>
</a>
</g>
</g>
<!-- Node22 -->
<g id="Node000022" class="node">
<title>Node22</title>
<g id="a_Node000022"><a xlink:title=" ">
<polygon fill="#e0e0e0" stroke="#999999" points="430.5,-85 323.5,-85 323.5,-55 430.5,-55 430.5,-85"/>
<text text-anchor="start" x="331.5" y="-73" font-family="Helvetica,sans-Serif" font-size="10.00">imgui&#45;platform&#45;kit</text>
<text text-anchor="middle" x="377" y="-62" font-family="Helvetica,sans-Serif" font-size="10.00">/log_window.h</text>
</a>
</g>
</g>
<!-- Node20&#45;&gt;Node22 -->
<g id="edge30_Node000020_Node000022" class="edge">
<title>Node20&#45;&gt;Node22</title>
<g id="a_edge30_Node000020_Node000022"><a xlink:title=" ">
<path fill="none" stroke="#63b8ff" d="M417.92,-120.87C411.89,-113.52 402.96,-102.63 394.98,-92.91"/>
<polygon fill="#63b8ff" stroke="#63b8ff" points="397.63,-90.63 388.58,-85.11 392.22,-95.07 397.63,-90.63"/>
</a>
</g>
</g>
<!-- Node20&#45;&gt;Node23 -->
<g id="edge32_Node000020_Node000023" class="edge">
<title>Node20&#45;&gt;Node23</title>
<g id="a_edge32_Node000020_Node000023"><a xlink:title=" ">
<path fill="none" stroke="#63b8ff" d="M403.46,-120.91C381.25,-112.02 345.64,-97.7 315,-85 313.84,-84.52 312.65,-84.02 311.45,-83.52"/>
<polygon fill="#63b8ff" stroke="#63b8ff" points="312.8,-80.29 302.22,-79.64 310.08,-86.75 312.8,-80.29"/>
</a>
</g>
</g>
<!-- Node23&#45;&gt;Node3 -->
<g id="edge34_Node000023_Node000003" class="edge">
<title>Node23&#45;&gt;Node3</title>
<g id="a_edge34_Node000023_Node000003"><a xlink:title=" ">
<path fill="none" stroke="#63b8ff" d="M262.96,-60.46C258.42,-58.56 253.57,-56.62 249,-55 208.24,-40.52 160.2,-27.22 128.76,-19"/>
<polygon fill="#63b8ff" stroke="#63b8ff" points="129.32,-15.54 118.76,-16.42 127.56,-22.31 129.32,-15.54"/>
</a>
</g>
</g>
<!-- Node23&#45;&gt;Node10 -->
<g id="edge33_Node000023_Node000010" class="edge">
<title>Node23&#45;&gt;Node10</title>
<g id="a_edge33_Node000023_Node000010"><a xlink:title=" ">
<path fill="none" stroke="#63b8ff" d="M299.49,-60.49C304.4,-58.4 309.83,-56.37 315,-55 380.46,-37.66 582.73,-19.71 662.33,-13.12"/>
<polygon fill="#63b8ff" stroke="#63b8ff" points="663.04,-16.58 672.73,-12.27 662.47,-9.6 663.04,-16.58"/>
</a>
</g>
</g>
<!-- Node23&#45;&gt;Node12 -->
<g id="edge38_Node000023_Node000012" class="edge">
<title>Node23&#45;&gt;Node12</title>
<g id="a_edge38_Node000023_Node000012"><a xlink:title=" ">
<path fill="none" stroke="#63b8ff" d="M300.26,-60.49C304.99,-58.5 310.13,-56.51 315,-55 378.04,-35.41 454.07,-22.14 497.65,-15.49"/>
<polygon fill="#63b8ff" stroke="#63b8ff" points="498.37,-18.92 507.74,-13.98 497.34,-12 498.37,-18.92"/>
</a>
</g>
</g>
<!-- Node24 -->
<g id="Node000024" class="node">
<title>Node24</title>
<g id="a_Node000024"><a xlink:title=" ">
<polygon fill="#e0e0e0" stroke="#999999" points="309,-19 255,-19 255,0 309,0 309,-19"/>
<text text-anchor="middle" x="282" y="-7" font-family="Helvetica,sans-Serif" font-size="10.00">random</text>
</a>
</g>
</g>
<!-- Node23&#45;&gt;Node24 -->
<g id="edge35_Node000023_Node000024" class="edge">
<title>Node23&#45;&gt;Node24</title>
<g id="a_edge35_Node000023_Node000024"><a xlink:title=" ">
<path fill="none" stroke="#63b8ff" d="M282,-60.37C282,-52.25 282,-39.81 282,-29.39"/>
<polygon fill="#63b8ff" stroke="#63b8ff" points="285.5,-29.17 282,-19.17 278.5,-29.17 285.5,-29.17"/>
</a>
</g>
</g>
<!-- Node25 -->
<g id="Node000025" class="node">
<title>Node25</title>
<g id="a_Node000025"><a xlink:title=" ">
<polygon fill="#e0e0e0" stroke="#999999" points="383,-19 327,-19 327,0 383,0 383,-19"/>
<text text-anchor="middle" x="355" y="-7" font-family="Helvetica,sans-Serif" font-size="10.00">sstream</text>
</a>
</g>
</g>
<!-- Node23&#45;&gt;Node25 -->
<g id="edge36_Node000023_Node000025" class="edge">
<title>Node23&#45;&gt;Node25</title>
<g id="a_edge36_Node000023_Node000025"><a xlink:title=" ">
<path fill="none" stroke="#63b8ff" d="M292.77,-60.37C304.2,-51.21 322.48,-36.56 336.28,-25.51"/>
<polygon fill="#63b8ff" stroke="#63b8ff" points="338.57,-28.15 344.18,-19.17 334.19,-22.69 338.57,-28.15"/>
</a>
</g>
</g>
<!-- Node26 -->
<g id="Node000026" class="node">
<title>Node26</title>
<g id="a_Node000026"><a xlink:title=" ">
<polygon fill="#e0e0e0" stroke="#999999" points="236.5,-19 181.5,-19 181.5,0 236.5,0 236.5,-19"/>
<text text-anchor="middle" x="209" y="-7" font-family="Helvetica,sans-Serif" font-size="10.00">fstream</text>
</a>
</g>
</g>
<!-- Node23&#45;&gt;Node26 -->
<g id="edge37_Node000023_Node000026" class="edge">
<title>Node23&#45;&gt;Node26</title>
<g id="a_edge37_Node000023_Node000026"><a xlink:title=" ">
<path fill="none" stroke="#63b8ff" d="M271.23,-60.37C259.8,-51.21 241.52,-36.56 227.72,-25.51"/>
<polygon fill="#63b8ff" stroke="#63b8ff" points="229.81,-22.69 219.82,-19.17 225.43,-28.15 229.81,-22.69"/>
</a>
</g>
</g>
<!-- Node27&#45;&gt;Node10 -->
<g id="edge41_Node000027_Node000010" class="edge">
<title>Node27&#45;&gt;Node10</title>
<g id="a_edge41_Node000027_Node000010"><a xlink:title=" ">
<path fill="none" stroke="#63b8ff" d="M648.45,-175.92C658.09,-166.71 669.59,-153.85 676,-140 692.89,-103.52 695.51,-55.62 695.52,-29.5"/>
<polygon fill="#63b8ff" stroke="#63b8ff" points="699.01,-29.1 695.38,-19.15 692.01,-29.2 699.01,-29.1"/>
</a>
</g>
</g>
<!-- Node27&#45;&gt;Node20 -->
<g id="edge43_Node000027_Node000020" class="edge">
<title>Node27&#45;&gt;Node20</title>
<g id="a_edge43_Node000027_Node000020"><a xlink:title=" ">
<path fill="none" stroke="#63b8ff" d="M582.42,-175.99C546.54,-165.85 498.67,-152.32 465.17,-142.85"/>
<polygon fill="#63b8ff" stroke="#63b8ff" points="465.84,-139.41 455.27,-140.05 463.94,-146.14 465.84,-139.41"/>
</a>
</g>
</g>
<!-- Node28 -->
<g id="Node000028" class="node">
<title>Node28</title>
<g id="a_Node000028"><a xlink:title=" ">
<polygon fill="#e0e0e0" stroke="#999999" points="599,-140 561,-140 561,-121 599,-121 599,-140"/>
<text text-anchor="middle" x="580" y="-128" font-family="Helvetica,sans-Serif" font-size="10.00">map</text>
</a>
</g>
</g>
<!-- Node27&#45;&gt;Node28 -->
<g id="edge40_Node000027_Node000028" class="edge">
<title>Node27&#45;&gt;Node28</title>
<g id="a_edge40_Node000027_Node000028"><a xlink:title=" ">
<path fill="none" stroke="#63b8ff" d="M619.41,-175.84C611.94,-167.43 602.44,-156.74 594.63,-147.96"/>
<polygon fill="#63b8ff" stroke="#63b8ff" points="597.05,-145.41 587.79,-140.27 591.82,-150.07 597.05,-145.41"/>
</a>
</g>
</g>
<!-- Node29 -->
<g id="Node000029" class="node">
<title>Node29</title>
<g id="a_Node000029"><a xlink:title=" ">
<polygon fill="#e0e0e0" stroke="#999999" points="667,-140 617,-140 617,-121 667,-121 667,-140"/>
<text text-anchor="middle" x="642" y="-128" font-family="Helvetica,sans-Serif" font-size="10.00">format</text>
</a>
</g>
</g>
<!-- Node27&#45;&gt;Node29 -->
<g id="edge42_Node000027_Node000029" class="edge">
<title>Node27&#45;&gt;Node29</title>
<g id="a_edge42_Node000027_Node000029"><a xlink:title=" ">
<path fill="none" stroke="#63b8ff" d="M634.42,-175.84C635.74,-168.13 637.39,-158.49 638.81,-150.17"/>
<polygon fill="#63b8ff" stroke="#63b8ff" points="642.27,-150.71 640.5,-140.27 635.37,-149.53 642.27,-150.71"/>
</a>
</g>
</g>
<!-- Node31 -->
<g id="Node000031" class="node">
<title>Node31</title>
<g id="a_Node000031"><a xlink:href="plot__parameters_8h.html" target="_top" xlink:title=" ">
<polygon fill="white" stroke="#666666" points="510,-200.5 404,-200.5 404,-181.5 510,-181.5 510,-200.5"/>
<text text-anchor="middle" x="457" y="-188.5" font-family="Helvetica,sans-Serif" font-size="10.00">plot_parameters.h</text>
</a>
</g>
</g>
<!-- Node30&#45;&gt;Node31 -->
<g id="edge48_Node000030_Node000031" class="edge">
<title>Node30&#45;&gt;Node31</title>
<g id="a_edge48_Node000030_Node000031"><a xlink:title=" ">
<path fill="none" stroke="#63b8ff" d="M272.15,-244.24C306.62,-234.5 373.62,-215.57 416.78,-203.37"/>
<polygon fill="#63b8ff" stroke="#63b8ff" points="418,-206.66 426.67,-200.57 416.1,-199.92 418,-206.66"/>
</a>
</g>
</g>
<!-- Node31&#45;&gt;Node3 -->
<g id="edge51_Node000031_Node000003" class="edge">
<title>Node31&#45;&gt;Node3</title>
<g id="a_edge51_Node000031_Node000003"><a xlink:title=" ">
<path fill="none" stroke="#63b8ff" d="M418.58,-181.41C361.39,-167.46 251.93,-136.15 171,-85 145.73,-69.03 122.04,-43.49 108.03,-26.85"/>
<polygon fill="#63b8ff" stroke="#63b8ff" points="110.69,-24.57 101.63,-19.06 105.28,-29.01 110.69,-24.57"/>
</a>
</g>
</g>
<!-- Node31&#45;&gt;Node10 -->
<g id="edge50_Node000031_Node000010" class="edge">
<title>Node31&#45;&gt;Node10</title>
<g id="a_edge50_Node000031_Node000010"><a xlink:title=" ">
<path fill="none" stroke="#63b8ff" d="M468.48,-181.34C506.42,-152.73 628.05,-60.99 675.65,-25.1"/>
<polygon fill="#63b8ff" stroke="#63b8ff" points="677.76,-27.89 683.64,-19.07 673.54,-22.3 677.76,-27.89"/>
</a>
</g>
</g>
<!-- Node31&#45;&gt;Node20 -->
<g id="edge52_Node000031_Node000020" class="edge">
<title>Node31&#45;&gt;Node20</title>
<g id="a_edge52_Node000031_Node000020"><a xlink:title=" ">
<path fill="none" stroke="#63b8ff" d="M452.28,-181.37C447.65,-172.9 440.45,-159.74 434.61,-149.07"/>
<polygon fill="#63b8ff" stroke="#63b8ff" points="437.61,-147.26 429.74,-140.17 431.47,-150.62 437.61,-147.26"/>
</a>
</g>
</g>
<!-- Node31&#45;&gt;Node28 -->
<g id="edge49_Node000031_Node000028" class="edge">
<title>Node31&#45;&gt;Node28</title>
<g id="a_edge49_Node000031_Node000028"><a xlink:title=" ">
<path fill="none" stroke="#63b8ff" d="M474.89,-181.49C495.38,-171.75 529.19,-155.66 552.92,-144.38"/>
<polygon fill="#63b8ff" stroke="#63b8ff" points="554.57,-147.47 562.09,-140.02 551.56,-141.15 554.57,-147.47"/>
</a>
</g>
</g>
<!-- Node32&#45;&gt;Node30 -->
<g id="edge55_Node000032_Node000030" class="edge">
<title>Node32&#45;&gt;Node30</title>
<g id="a_edge55_Node000032_Node000030"><a xlink:title=" ">
<path fill="none" stroke="#63b8ff" d="M181.17,-296.98C193.77,-288.84 213,-276.41 227.94,-266.76"/>
<polygon fill="#63b8ff" stroke="#63b8ff" points="230.09,-269.54 236.59,-261.17 226.29,-263.66 230.09,-269.54"/>
</a>
</g>
</g>
<!-- Node33&#45;&gt;Node30 -->
<g id="edge57_Node000033_Node000030" class="edge">
<title>Node33&#45;&gt;Node30</title>
<g id="a_edge57_Node000033_Node000030"><a xlink:title=" ">
<path fill="none" stroke="#63b8ff" d="M306.24,-296.98C296.23,-289.07 281.11,-277.11 269.07,-267.58"/>
<polygon fill="#63b8ff" stroke="#63b8ff" points="270.97,-264.63 260.96,-261.17 266.63,-270.12 270.97,-264.63"/>
</a>
</g>
</g>
</g>
</svg>
