<?xml version="1.0" encoding="UTF-8" standalone="no"?>
<!DOCTYPE svg PUBLIC "-//W3C//DTD SVG 1.1//EN"
 "http://www.w3.org/Graphics/SVG/1.1/DTD/svg11.dtd">
<!-- Generated by graphviz version 2.43.0 (0)
 -->
<!-- Title: include/user_interface/plot_control_window.h Pages: 1 -->
<svg width="1596pt" height="522pt"
 viewBox="0.00 0.00 1595.50 522.00" xmlns="http://www.w3.org/2000/svg" xmlns:xlink="http://www.w3.org/1999/xlink">
<g id="graph0" class="graph" transform="scale(1 1) rotate(0) translate(4 518)">
<title>include/user_interface/plot_control_window.h</title>
<!-- Node1 -->
<g id="Node000001" class="node">
<title>Node1</title>
<g id="a_Node000001"><a xlink:title=" ">
<polygon fill="#999999" stroke="#666666" points="761,-514 633,-514 633,-484 761,-484 761,-514"/>
<text text-anchor="start" x="641" y="-502" font-family="Helvetica,sans-Serif" font-size="10.00">include/user_interface</text>
<text text-anchor="middle" x="697" y="-491" font-family="Helvetica,sans-Serif" font-size="10.00">/plot_control_window.h</text>
</a>
</g>
</g>
<!-- Node2 -->
<g id="Node000002" class="node">
<title>Node2</title>
<g id="a_Node000002"><a xlink:title=" ">
<polygon fill="#e0e0e0" stroke="#999999" points="669,-448 529,-448 529,-418 669,-418 669,-448"/>
<text text-anchor="start" x="537" y="-436" font-family="Helvetica,sans-Serif" font-size="10.00">imgui&#45;platform&#45;kit</text>
<text text-anchor="middle" x="599" y="-425" font-family="Helvetica,sans-Serif" font-size="10.00">/user_interface_window.h</text>
</a>
</g>
</g>
<!-- Node1&#45;&gt;Node2 -->
<g id="edge1_Node000001_Node000002" class="edge">
<title>Node1&#45;&gt;Node2</title>
<g id="a_edge1_Node000001_Node000002"><a xlink:title=" ">
<path fill="none" stroke="#63b8ff" d="M675.25,-483.8C661.67,-474.93 644.01,-463.39 629.1,-453.66"/>
<polygon fill="#63b8ff" stroke="#63b8ff" points="630.98,-450.7 620.69,-448.16 627.15,-456.56 630.98,-450.7"/>
</a>
</g>
</g>
<!-- Node3 -->
<g id="Node000003" class="node">
<title>Node3</title>
<g id="a_Node000003"><a xlink:href="visualization_8h.html" target="_top" xlink:title=" ">
<polygon fill="white" stroke="#666666" points="435.5,-376.5 282.5,-376.5 282.5,-357.5 435.5,-357.5 435.5,-376.5"/>
<text text-anchor="middle" x="359" y="-364.5" font-family="Helvetica,sans-Serif" font-size="10.00">visualization/visualization.h</text>
</a>
</g>
</g>
<!-- Node1&#45;&gt;Node3 -->
<g id="edge2_Node000001_Node000003" class="edge">
<title>Node1&#45;&gt;Node3</title>
<g id="a_edge2_Node000001_Node000003"><a xlink:title=" ">
<path fill="none" stroke="#63b8ff" d="M698.01,-483.83C698.46,-465.76 696.23,-434.87 678,-418 645.07,-387.53 528.59,-375.62 445.93,-370.97"/>
<polygon fill="#63b8ff" stroke="#63b8ff" points="445.95,-367.46 435.77,-370.42 445.57,-374.45 445.95,-367.46"/>
</a>
</g>
</g>
<!-- Node33 -->
<g id="Node000033" class="node">
<title>Node33</title>
<g id="a_Node000033"><a xlink:href="application_8h.html" target="_top" xlink:title=" ">
<polygon fill="white" stroke="#666666" points="1192.5,-442.5 1055.5,-442.5 1055.5,-423.5 1192.5,-423.5 1192.5,-442.5"/>
<text text-anchor="middle" x="1124" y="-430.5" font-family="Helvetica,sans-Serif" font-size="10.00">application/application.h</text>
</a>
</g>
</g>
<!-- Node1&#45;&gt;Node33 -->
<g id="edge57_Node000001_Node000033" class="edge">
<title>Node1&#45;&gt;Node33</title>
<g id="a_edge57_Node000001_Node000033"><a xlink:title=" ">
<path fill="none" stroke="#63b8ff" d="M761.39,-488.35C841.04,-476.41 976,-456.18 1056.88,-444.06"/>
<polygon fill="#63b8ff" stroke="#63b8ff" points="1057.59,-447.49 1066.96,-442.55 1056.55,-440.57 1057.59,-447.49"/>
</a>
</g>
</g>
<!-- Node4 -->
<g id="Node000004" class="node">
<title>Node4</title>
<g id="a_Node000004"><a xlink:title=" ">
<polygon fill="#e0e0e0" stroke="#999999" points="164,-79.5 104,-79.5 104,-60.5 164,-60.5 164,-79.5"/>
<text text-anchor="middle" x="134" y="-67.5" font-family="Helvetica,sans-Serif" font-size="10.00">iostream</text>
</a>
</g>
</g>
<!-- Node3&#45;&gt;Node4 -->
<g id="edge3_Node000003_Node000004" class="edge">
<title>Node3&#45;&gt;Node4</title>
<g id="a_edge3_Node000003_Node000004"><a xlink:title=" ">
<path fill="none" stroke="#63b8ff" d="M282.31,-365.54C201.25,-360.52 85,-338.36 85,-252.5 85,-252.5 85,-252.5 85,-190 85,-151.29 107.44,-110.47 121.95,-88.13"/>
<polygon fill="#63b8ff" stroke="#63b8ff" points="124.91,-90 127.59,-79.74 119.11,-86.09 124.91,-90"/>
</a>
</g>
</g>
<!-- Node5 -->
<g id="Node000005" class="node">
<title>Node5</title>
<g id="a_Node000005"><a xlink:title=" ">
<polygon fill="#e0e0e0" stroke="#999999" points="99.5,-19 52.5,-19 52.5,0 99.5,0 99.5,-19"/>
<text text-anchor="middle" x="76" y="-7" font-family="Helvetica,sans-Serif" font-size="10.00">vector</text>
</a>
</g>
</g>
<!-- Node3&#45;&gt;Node5 -->
<g id="edge4_Node000003_Node000005" class="edge">
<title>Node3&#45;&gt;Node5</title>
<g id="a_edge4_Node000003_Node000005"><a xlink:title=" ">
<path fill="none" stroke="#63b8ff" d="M282.87,-357.48C177.48,-343.54 0,-311.33 0,-252.5 0,-252.5 0,-252.5 0,-129.5 0,-86.71 35.34,-46.94 57.82,-25.97"/>
<polygon fill="#63b8ff" stroke="#63b8ff" points="60.34,-28.42 65.43,-19.13 55.66,-23.21 60.34,-28.42"/>
</a>
</g>
</g>
<!-- Node6 -->
<g id="Node000006" class="node">
<title>Node6</title>
<g id="a_Node000006"><a xlink:href="simulation_8h.html" target="_top" xlink:title=" ">
<polygon fill="white" stroke="#666666" points="628,-316 496,-316 496,-297 628,-297 628,-316"/>
<text text-anchor="middle" x="562" y="-304" font-family="Helvetica,sans-Serif" font-size="10.00">simulation/simulation.h</text>
</a>
</g>
</g>
<!-- Node3&#45;&gt;Node6 -->
<g id="edge5_Node000003_Node000006" class="edge">
<title>Node3&#45;&gt;Node6</title>
<g id="a_edge5_Node000003_Node000006"><a xlink:title=" ">
<path fill="none" stroke="#63b8ff" d="M388.52,-357.49C423.92,-347.29 483.4,-330.15 522.68,-318.83"/>
<polygon fill="#63b8ff" stroke="#63b8ff" points="523.81,-322.15 532.45,-316.02 521.87,-315.42 523.81,-322.15"/>
</a>
</g>
</g>
<!-- Node16 -->
<g id="Node000016" class="node">
<title>Node16</title>
<g id="a_Node000016"><a xlink:href="exception_8h.html" target="_top" xlink:title=" ">
<polygon fill="white" stroke="#666666" points="1385,-79.5 1255,-79.5 1255,-60.5 1385,-60.5 1385,-79.5"/>
<text text-anchor="middle" x="1320" y="-67.5" font-family="Helvetica,sans-Serif" font-size="10.00">exceptions/exception.h</text>
</a>
</g>
</g>
<!-- Node3&#45;&gt;Node16 -->
<g id="edge45_Node000003_Node000016" class="edge">
<title>Node3&#45;&gt;Node16</title>
<g id="a_edge45_Node000003_Node000016"><a xlink:title=" ">
<path fill="none" stroke="#63b8ff" d="M435.61,-364.96C663.28,-360.88 1320,-341.38 1320,-252.5 1320,-252.5 1320,-252.5 1320,-190 1320,-154.65 1320,-113.4 1320,-89.92"/>
<polygon fill="#63b8ff" stroke="#63b8ff" points="1323.5,-89.66 1320,-79.66 1316.5,-89.66 1323.5,-89.66"/>
</a>
</g>
</g>
<!-- Node19 -->
<g id="Node000019" class="node">
<title>Node19</title>
<g id="a_Node000019"><a xlink:href="logger_8h.html" target="_top" xlink:title=" ">
<polygon fill="white" stroke="#666666" points="401.5,-140 318.5,-140 318.5,-121 401.5,-121 401.5,-140"/>
<text text-anchor="middle" x="360" y="-128" font-family="Helvetica,sans-Serif" font-size="10.00">tools/logger.h</text>
</a>
</g>
</g>
<!-- Node3&#45;&gt;Node19 -->
<g id="edge52_Node000003_Node000019" class="edge">
<title>Node3&#45;&gt;Node19</title>
<g id="a_edge52_Node000003_Node000019"><a xlink:title=" ">
<path fill="none" stroke="#63b8ff" d="M282.4,-358.4C227.22,-351.15 159.51,-338.01 142,-316 80.54,-238.77 246.47,-170.09 323.32,-143.36"/>
<polygon fill="#63b8ff" stroke="#63b8ff" points="324.78,-146.56 333.11,-140.02 322.51,-139.94 324.78,-146.56"/>
</a>
</g>
</g>
<!-- Node29 -->
<g id="Node000029" class="node">
<title>Node29</title>
<g id="a_Node000029"><a xlink:href="plot_8h.html" target="_top" xlink:title=" ">
<polygon fill="white" stroke="#666666" points="240,-261 196,-261 196,-242 240,-242 240,-261"/>
<text text-anchor="middle" x="218" y="-249" font-family="Helvetica,sans-Serif" font-size="10.00">plot.h</text>
</a>
</g>
</g>
<!-- Node3&#45;&gt;Node29 -->
<g id="edge46_Node000003_Node000029" class="edge">
<title>Node3&#45;&gt;Node29</title>
<g id="a_edge46_Node000003_Node000029"><a xlink:title=" ">
<path fill="none" stroke="#63b8ff" d="M352.09,-357.17C340.9,-343.26 317.69,-315.86 294,-297 278.75,-284.85 259.83,-273.77 244.68,-265.7"/>
<polygon fill="#63b8ff" stroke="#63b8ff" points="246.3,-262.59 235.81,-261.08 243.06,-268.8 246.3,-262.59"/>
</a>
</g>
</g>
<!-- Node31 -->
<g id="Node000031" class="node">
<title>Node31</title>
<g id="a_Node000031"><a xlink:href="lineplot_8h.html" target="_top" xlink:title=" ">
<polygon fill="white" stroke="#666666" points="469,-316 341,-316 341,-297 469,-297 469,-316"/>
<text text-anchor="middle" x="405" y="-304" font-family="Helvetica,sans-Serif" font-size="10.00">visualization/lineplot.h</text>
</a>
</g>
</g>
<!-- Node3&#45;&gt;Node31 -->
<g id="edge53_Node000003_Node000031" class="edge">
<title>Node3&#45;&gt;Node31</title>
<g id="a_edge53_Node000003_Node000031"><a xlink:title=" ">
<path fill="none" stroke="#63b8ff" d="M365.79,-357.37C372.65,-348.64 383.43,-334.93 391.95,-324.09"/>
<polygon fill="#63b8ff" stroke="#63b8ff" points="394.75,-326.19 398.18,-316.17 389.25,-321.86 394.75,-326.19"/>
</a>
</g>
</g>
<!-- Node32 -->
<g id="Node000032" class="node">
<title>Node32</title>
<g id="a_Node000032"><a xlink:href="heatmap_8h.html" target="_top" xlink:title=" ">
<polygon fill="white" stroke="#666666" points="285,-316 151,-316 151,-297 285,-297 285,-316"/>
<text text-anchor="middle" x="218" y="-304" font-family="Helvetica,sans-Serif" font-size="10.00">visualization/heatmap.h</text>
</a>
</g>
</g>
<!-- Node3&#45;&gt;Node32 -->
<g id="edge55_Node000003_Node000032" class="edge">
<title>Node3&#45;&gt;Node32</title>
<g id="a_edge55_Node000003_Node000032"><a xlink:title=" ">
<path fill="none" stroke="#63b8ff" d="M338.5,-357.49C314.69,-347.62 275.21,-331.23 247.96,-319.93"/>
<polygon fill="#63b8ff" stroke="#63b8ff" points="249.11,-316.62 238.53,-316.02 246.42,-323.08 249.11,-316.62"/>
</a>
</g>
</g>
<!-- Node6&#45;&gt;Node5 -->
<g id="edge6_Node000006_Node000005" class="edge">
<title>Node6&#45;&gt;Node5</title>
<g id="a_edge6_Node000006_Node000005"><a xlink:title=" ">
<path fill="none" stroke="#63b8ff" d="M504.81,-296.98C431.87,-284.5 303.28,-256.98 204,-206 134.93,-170.53 104.68,-157.91 78,-85 71.41,-66.99 71.78,-44.86 73.26,-29.42"/>
<polygon fill="#63b8ff" stroke="#63b8ff" points="76.78,-29.44 74.51,-19.1 69.83,-28.6 76.78,-29.44"/>
</a>
</g>
</g>
<!-- Node7 -->
<g id="Node000007" class="node">
<title>Node7</title>
<g id="a_Node000007"><a xlink:title=" ">
<polygon fill="#e0e0e0" stroke="#999999" points="616,-200.5 558,-200.5 558,-181.5 616,-181.5 616,-200.5"/>
<text text-anchor="middle" x="587" y="-188.5" font-family="Helvetica,sans-Serif" font-size="10.00">memory</text>
</a>
</g>
</g>
<!-- Node6&#45;&gt;Node7 -->
<g id="edge7_Node000006_Node000007" class="edge">
<title>Node6&#45;&gt;Node7</title>
<g id="a_edge7_Node000006_Node000007"><a xlink:title=" ">
<path fill="none" stroke="#63b8ff" d="M563.88,-296.97C567.9,-278.73 577.4,-235.57 582.89,-210.64"/>
<polygon fill="#63b8ff" stroke="#63b8ff" points="586.37,-211.15 585.1,-200.63 579.53,-209.64 586.37,-211.15"/>
</a>
</g>
</g>
<!-- Node8 -->
<g id="Node000008" class="node">
<title>Node8</title>
<g id="a_Node000008"><a xlink:title=" ">
<polygon fill="#e0e0e0" stroke="#999999" points="768,-19 724,-19 724,0 768,0 768,-19"/>
<text text-anchor="middle" x="746" y="-7" font-family="Helvetica,sans-Serif" font-size="10.00">string</text>
</a>
</g>
</g>
<!-- Node6&#45;&gt;Node8 -->
<g id="edge8_Node000006_Node000008" class="edge">
<title>Node6&#45;&gt;Node8</title>
<g id="a_edge8_Node000006_Node000008"><a xlink:title=" ">
<path fill="none" stroke="#63b8ff" d="M628.04,-305.46C774.04,-303.8 1116.89,-290.77 1187,-206 1303.97,-64.58 897.55,-22.02 778.08,-12.7"/>
<polygon fill="#63b8ff" stroke="#63b8ff" points="778.3,-9.2 768.06,-11.94 777.77,-16.18 778.3,-9.2"/>
</a>
</g>
</g>
<!-- Node9 -->
<g id="Node000009" class="node">
<title>Node9</title>
<g id="a_Node000009"><a xlink:title=" ">
<polygon fill="#e0e0e0" stroke="#999999" points="706,-19 638,-19 638,0 706,0 706,-19"/>
<text text-anchor="middle" x="672" y="-7" font-family="Helvetica,sans-Serif" font-size="10.00">filesystem</text>
</a>
</g>
</g>
<!-- Node6&#45;&gt;Node9 -->
<g id="edge9_Node000006_Node000009" class="edge">
<title>Node6&#45;&gt;Node9</title>
<g id="a_edge9_Node000006_Node000009"><a xlink:title=" ">
<path fill="none" stroke="#63b8ff" d="M558.71,-296.75C551.21,-275.46 534.59,-219.55 549,-176 569.98,-112.59 625.72,-53.7 654.4,-26.42"/>
<polygon fill="#63b8ff" stroke="#63b8ff" points="657.12,-28.67 662.05,-19.29 652.34,-23.55 657.12,-28.67"/>
</a>
</g>
</g>
<!-- Node10 -->
<g id="Node000010" class="node">
<title>Node10</title>
<g id="a_Node000010"><a xlink:title=" ">
<polygon fill="#e0e0e0" stroke="#999999" points="400,-19 350,-19 350,0 400,0 400,-19"/>
<text text-anchor="middle" x="375" y="-7" font-family="Helvetica,sans-Serif" font-size="10.00">chrono</text>
</a>
</g>
</g>
<!-- Node6&#45;&gt;Node10 -->
<g id="edge10_Node000006_Node000010" class="edge">
<title>Node6&#45;&gt;Node10</title>
<g id="a_edge10_Node000006_Node000010"><a xlink:title=" ">
<path fill="none" stroke="#63b8ff" d="M546.79,-296.87C534.08,-288.98 516.28,-276.24 505,-261 446.67,-182.18 482.16,-135.38 426,-55 418.01,-43.56 406.46,-33.16 396.37,-25.29"/>
<polygon fill="#63b8ff" stroke="#63b8ff" points="398.46,-22.49 388.35,-19.32 394.27,-28.1 398.46,-22.49"/>
</a>
</g>
</g>
<!-- Node11 -->
<g id="Node000011" class="node">
<title>Node11</title>
<g id="a_Node000011"><a xlink:href="element_8h.html" target="_top" xlink:title=" ">
<polygon fill="white" stroke="#666666" points="889.5,-261 774.5,-261 774.5,-242 889.5,-242 889.5,-261"/>
<text text-anchor="middle" x="832" y="-249" font-family="Helvetica,sans-Serif" font-size="10.00">elements/element.h</text>
</a>
</g>
</g>
<!-- Node6&#45;&gt;Node11 -->
<g id="edge11_Node000006_Node000011" class="edge">
<title>Node6&#45;&gt;Node11</title>
<g id="a_edge11_Node000006_Node000011"><a xlink:title=" ">
<path fill="none" stroke="#63b8ff" d="M605.38,-296.98C652.38,-287.76 727.43,-273.03 778.16,-263.07"/>
<polygon fill="#63b8ff" stroke="#63b8ff" points="779.14,-266.44 788.28,-261.08 777.79,-259.57 779.14,-266.44"/>
</a>
</g>
</g>
<!-- Node6&#45;&gt;Node16 -->
<g id="edge43_Node000006_Node000016" class="edge">
<title>Node6&#45;&gt;Node16</title>
<g id="a_edge43_Node000006_Node000016"><a xlink:title=" ">
<path fill="none" stroke="#63b8ff" d="M628.02,-305.43C792.15,-304.69 1208.96,-299.03 1258,-261 1265.04,-255.54 1300.74,-136.39 1314.54,-89.61"/>
<polygon fill="#63b8ff" stroke="#63b8ff" points="1317.95,-90.43 1317.41,-79.85 1311.23,-88.46 1317.95,-90.43"/>
</a>
</g>
</g>
<!-- Node22 -->
<g id="Node000022" class="node">
<title>Node22</title>
<g id="a_Node000022"><a xlink:href="utils_8h.html" target="_top" xlink:title=" ">
<polygon fill="white" stroke="#666666" points="543.5,-79.5 496.5,-79.5 496.5,-60.5 543.5,-60.5 543.5,-79.5"/>
<text text-anchor="middle" x="520" y="-67.5" font-family="Helvetica,sans-Serif" font-size="10.00">utils.h</text>
</a>
</g>
</g>
<!-- Node6&#45;&gt;Node22 -->
<g id="edge44_Node000006_Node000022" class="edge">
<title>Node6&#45;&gt;Node22</title>
<g id="a_edge44_Node000006_Node000022"><a xlink:title=" ">
<path fill="none" stroke="#63b8ff" d="M548.22,-296.82C537.18,-288.99 522.51,-276.35 516,-261 491.25,-202.62 505.92,-124.8 514.77,-89.64"/>
<polygon fill="#63b8ff" stroke="#63b8ff" points="518.2,-90.37 517.38,-79.8 511.43,-88.57 518.2,-90.37"/>
</a>
</g>
</g>
<!-- Node11&#45;&gt;Node5 -->
<g id="edge12_Node000011_Node000005" class="edge">
<title>Node11&#45;&gt;Node5</title>
<g id="a_edge12_Node000011_Node000005"><a xlink:title=" ">
<path fill="none" stroke="#63b8ff" d="M774.34,-248.97C655.13,-245.28 385.37,-234.02 298,-206 197.98,-173.93 157.85,-169.15 95,-85 82.92,-68.82 78.48,-45.75 76.87,-29.58"/>
<polygon fill="#63b8ff" stroke="#63b8ff" points="80.33,-28.95 76.13,-19.22 73.35,-29.45 80.33,-28.95"/>
</a>
</g>
</g>
<!-- Node11&#45;&gt;Node7 -->
<g id="edge15_Node000011_Node000007" class="edge">
<title>Node11&#45;&gt;Node7</title>
<g id="a_edge15_Node000011_Node000007"><a xlink:title=" ">
<path fill="none" stroke="#63b8ff" d="M787.16,-241.93C746.02,-233.76 683.53,-220.57 630,-206 627.23,-205.25 624.37,-204.42 621.51,-203.56"/>
<polygon fill="#63b8ff" stroke="#63b8ff" points="622.48,-200.2 611.89,-200.56 620.39,-206.88 622.48,-200.2"/>
</a>
</g>
</g>
<!-- Node11&#45;&gt;Node8 -->
<g id="edge13_Node000011_Node000008" class="edge">
<title>Node11&#45;&gt;Node8</title>
<g id="a_edge13_Node000011_Node000008"><a xlink:title=" ">
<path fill="none" stroke="#63b8ff" d="M831.9,-241.73C831.41,-220.4 828.62,-164.4 813,-121 800.03,-84.96 774.56,-47.84 759.03,-27.11"/>
<polygon fill="#63b8ff" stroke="#63b8ff" points="761.72,-24.86 752.86,-19.05 756.16,-29.12 761.72,-24.86"/>
</a>
</g>
</g>
<!-- Node12 -->
<g id="Node000012" class="node">
<title>Node12</title>
<g id="a_Node000012"><a xlink:title=" ">
<polygon fill="#e0e0e0" stroke="#999999" points="1027.5,-200.5 934.5,-200.5 934.5,-181.5 1027.5,-181.5 1027.5,-200.5"/>
<text text-anchor="middle" x="981" y="-188.5" font-family="Helvetica,sans-Serif" font-size="10.00">unordered_map</text>
</a>
</g>
</g>
<!-- Node11&#45;&gt;Node12 -->
<g id="edge14_Node000011_Node000012" class="edge">
<title>Node11&#45;&gt;Node12</title>
<g id="a_edge14_Node000011_Node000012"><a xlink:title=" ">
<path fill="none" stroke="#63b8ff" d="M853.67,-241.99C878.94,-232.07 920.91,-215.59 949.72,-204.28"/>
<polygon fill="#63b8ff" stroke="#63b8ff" points="951.28,-207.43 959.31,-200.52 948.72,-200.91 951.28,-207.43"/>
</a>
</g>
</g>
<!-- Node13 -->
<g id="Node000013" class="node">
<title>Node13</title>
<g id="a_Node000013"><a xlink:title=" ">
<polygon fill="#e0e0e0" stroke="#999999" points="1096,-200.5 1046,-200.5 1046,-181.5 1096,-181.5 1096,-200.5"/>
<text text-anchor="middle" x="1071" y="-188.5" font-family="Helvetica,sans-Serif" font-size="10.00">ranges</text>
</a>
</g>
</g>
<!-- Node11&#45;&gt;Node13 -->
<g id="edge16_Node000011_Node000013" class="edge">
<title>Node11&#45;&gt;Node13</title>
<g id="a_edge16_Node000011_Node000013"><a xlink:title=" ">
<path fill="none" stroke="#63b8ff" d="M883.2,-241.99C925.07,-234.41 985.54,-222.04 1037,-206 1038.68,-205.48 1040.38,-204.91 1042.1,-204.3"/>
<polygon fill="#63b8ff" stroke="#63b8ff" points="1043.71,-207.43 1051.8,-200.6 1041.21,-200.89 1043.71,-207.43"/>
</a>
</g>
</g>
<!-- Node14 -->
<g id="Node000014" class="node">
<title>Node14</title>
<g id="a_Node000014"><a xlink:title=" ">
<polygon fill="#e0e0e0" stroke="#999999" points="1178,-200.5 1114,-200.5 1114,-181.5 1178,-181.5 1178,-200.5"/>
<text text-anchor="middle" x="1146" y="-188.5" font-family="Helvetica,sans-Serif" font-size="10.00">algorithm</text>
</a>
</g>
</g>
<!-- Node11&#45;&gt;Node14 -->
<g id="edge17_Node000011_Node000014" class="edge">
<title>Node11&#45;&gt;Node14</title>
<g id="a_edge17_Node000011_Node000014"><a xlink:title=" ">
<path fill="none" stroke="#63b8ff" d="M889.56,-243.96C945.21,-236.98 1031.63,-224.37 1105,-206 1107.8,-205.3 1110.69,-204.49 1113.57,-203.63"/>
<polygon fill="#63b8ff" stroke="#63b8ff" points="1114.76,-206.92 1123.22,-200.54 1112.63,-200.25 1114.76,-206.92"/>
</a>
</g>
</g>
<!-- Node15 -->
<g id="Node000015" class="node">
<title>Node15</title>
<g id="a_Node000015"><a xlink:title=" ">
<polygon fill="#e0e0e0" stroke="#999999" points="916,-200.5 860,-200.5 860,-181.5 916,-181.5 916,-200.5"/>
<text text-anchor="middle" x="888" y="-188.5" font-family="Helvetica,sans-Serif" font-size="10.00">numeric</text>
</a>
</g>
</g>
<!-- Node11&#45;&gt;Node15 -->
<g id="edge18_Node000011_Node000015" class="edge">
<title>Node11&#45;&gt;Node15</title>
<g id="a_edge18_Node000011_Node000015"><a xlink:title=" ">
<path fill="none" stroke="#63b8ff" d="M840.26,-241.87C848.78,-232.97 862.26,-218.89 872.73,-207.95"/>
<polygon fill="#63b8ff" stroke="#63b8ff" points="875.32,-210.31 879.7,-200.67 870.26,-205.47 875.32,-210.31"/>
</a>
</g>
</g>
<!-- Node11&#45;&gt;Node16 -->
<g id="edge19_Node000011_Node000016" class="edge">
<title>Node11&#45;&gt;Node16</title>
<g id="a_edge19_Node000011_Node000016"><a xlink:title=" ">
<path fill="none" stroke="#63b8ff" d="M889.76,-247.95C976.65,-243.34 1136.25,-231.59 1187,-206 1233.59,-182.5 1231.18,-157.98 1268,-121 1279.57,-109.37 1292.92,-96.56 1303.19,-86.81"/>
<polygon fill="#63b8ff" stroke="#63b8ff" points="1305.81,-89.14 1310.68,-79.73 1301.01,-84.06 1305.81,-89.14"/>
</a>
</g>
</g>
<!-- Node11&#45;&gt;Node19 -->
<g id="edge23_Node000011_Node000019" class="edge">
<title>Node11&#45;&gt;Node19</title>
<g id="a_edge23_Node000011_Node000019"><a xlink:title=" ">
<path fill="none" stroke="#63b8ff" d="M778.62,-241.98C744.61,-235.21 700.28,-223.85 664,-206 644.38,-196.34 645.05,-184.74 625,-176 555.29,-145.62 466.92,-135.88 411.92,-132.82"/>
<polygon fill="#63b8ff" stroke="#63b8ff" points="411.87,-129.32 401.71,-132.31 411.52,-136.31 411.87,-129.32"/>
</a>
</g>
</g>
<!-- Node26 -->
<g id="Node000026" class="node">
<title>Node26</title>
<g id="a_Node000026"><a xlink:href="element__parameters_8h.html" target="_top" xlink:title=" ">
<polygon fill="white" stroke="#666666" points="803.5,-206 672.5,-206 672.5,-176 803.5,-176 803.5,-206"/>
<text text-anchor="start" x="680.5" y="-194" font-family="Helvetica,sans-Serif" font-size="10.00">element_parameters</text>
<text text-anchor="middle" x="738" y="-183" font-family="Helvetica,sans-Serif" font-size="10.00">/element_parameters.h</text>
</a>
</g>
</g>
<!-- Node11&#45;&gt;Node26 -->
<g id="edge38_Node000011_Node000026" class="edge">
<title>Node11&#45;&gt;Node26</title>
<g id="a_edge38_Node000011_Node000026"><a xlink:title=" ">
<path fill="none" stroke="#63b8ff" d="M818.13,-241.87C805.38,-233.93 786,-221.87 769.49,-211.6"/>
<polygon fill="#63b8ff" stroke="#63b8ff" points="771.02,-208.43 760.68,-206.11 767.32,-214.37 771.02,-208.43"/>
</a>
</g>
</g>
<!-- Node16&#45;&gt;Node8 -->
<g id="edge22_Node000016_Node000008" class="edge">
<title>Node16&#45;&gt;Node8</title>
<g id="a_edge22_Node000016_Node000008"><a xlink:title=" ">
<path fill="none" stroke="#63b8ff" d="M1275.81,-60.48C1264.5,-58.49 1252.32,-56.51 1241,-55 1067.42,-31.86 857.95,-17.44 778.59,-12.46"/>
<polygon fill="#63b8ff" stroke="#63b8ff" points="778.47,-8.95 768.28,-11.82 778.04,-15.93 778.47,-8.95"/>
</a>
</g>
</g>
<!-- Node17 -->
<g id="Node000017" class="node">
<title>Node17</title>
<g id="a_Node000017"><a xlink:title=" ">
<polygon fill="#e0e0e0" stroke="#999999" points="1383,-19 1333,-19 1333,0 1383,0 1383,-19"/>
<text text-anchor="middle" x="1358" y="-7" font-family="Helvetica,sans-Serif" font-size="10.00">cstdint</text>
</a>
</g>
</g>
<!-- Node16&#45;&gt;Node17 -->
<g id="edge20_Node000016_Node000017" class="edge">
<title>Node16&#45;&gt;Node17</title>
<g id="a_edge20_Node000016_Node000017"><a xlink:title=" ">
<path fill="none" stroke="#63b8ff" d="M1325.61,-60.37C1331.16,-51.81 1339.83,-38.47 1346.8,-27.74"/>
<polygon fill="#63b8ff" stroke="#63b8ff" points="1349.86,-29.46 1352.37,-19.17 1343.99,-25.65 1349.86,-29.46"/>
</a>
</g>
</g>
<!-- Node18 -->
<g id="Node000018" class="node">
<title>Node18</title>
<g id="a_Node000018"><a xlink:title=" ">
<polygon fill="#e0e0e0" stroke="#999999" points="1314.5,-19 1249.5,-19 1249.5,0 1314.5,0 1314.5,-19"/>
<text text-anchor="middle" x="1282" y="-7" font-family="Helvetica,sans-Serif" font-size="10.00">exception</text>
</a>
</g>
</g>
<!-- Node16&#45;&gt;Node18 -->
<g id="edge21_Node000016_Node000018" class="edge">
<title>Node16&#45;&gt;Node18</title>
<g id="a_edge21_Node000016_Node000018"><a xlink:title=" ">
<path fill="none" stroke="#63b8ff" d="M1314.39,-60.37C1308.84,-51.81 1300.17,-38.47 1293.2,-27.74"/>
<polygon fill="#63b8ff" stroke="#63b8ff" points="1296.01,-25.65 1287.63,-19.17 1290.14,-29.46 1296.01,-25.65"/>
</a>
</g>
</g>
<!-- Node19&#45;&gt;Node4 -->
<g id="edge24_Node000019_Node000004" class="edge">
<title>Node19&#45;&gt;Node4</title>
<g id="a_edge24_Node000019_Node000004"><a xlink:title=" ">
<path fill="none" stroke="#63b8ff" d="M327.14,-120.99C286.48,-110.47 217.3,-92.56 173.71,-81.28"/>
<polygon fill="#63b8ff" stroke="#63b8ff" points="174.57,-77.89 164.01,-78.77 172.82,-84.66 174.57,-77.89"/>
</a>
</g>
</g>
<!-- Node19&#45;&gt;Node8 -->
<g id="edge25_Node000019_Node000008" class="edge">
<title>Node19&#45;&gt;Node8</title>
<g id="a_edge25_Node000019_Node000008"><a xlink:title=" ">
<path fill="none" stroke="#63b8ff" d="M401.66,-121.82C449.94,-112.59 526.29,-96.86 553,-85 574.3,-75.54 575,-65.11 596,-55 606.74,-49.83 673.34,-30.81 714.1,-19.38"/>
<polygon fill="#63b8ff" stroke="#63b8ff" points="715.17,-22.71 723.86,-16.65 713.28,-15.97 715.17,-22.71"/>
</a>
</g>
</g>
<!-- Node19&#45;&gt;Node10 -->
<g id="edge26_Node000019_Node000010" class="edge">
<title>Node19&#45;&gt;Node10</title>
<g id="a_edge26_Node000019_Node000010"><a xlink:title=" ">
<path fill="none" stroke="#63b8ff" d="M375.73,-120.88C387.88,-113.23 403.8,-100.83 411,-85 416.52,-72.86 415.45,-67.57 411,-55 407.25,-44.41 399.79,-34.49 392.63,-26.71"/>
<polygon fill="#63b8ff" stroke="#63b8ff" points="394.69,-23.82 385.16,-19.19 389.72,-28.76 394.69,-23.82"/>
</a>
</g>
</g>
<!-- Node19&#45;&gt;Node16 -->
<g id="edge29_Node000019_Node000016" class="edge">
<title>Node19&#45;&gt;Node16</title>
<g id="a_edge29_Node000019_Node000016"><a xlink:title=" ">
<path fill="none" stroke="#63b8ff" d="M401.56,-126.97C549.61,-117.95 1052.69,-87.29 1244.69,-75.59"/>
<polygon fill="#63b8ff" stroke="#63b8ff" points="1244.93,-79.08 1254.7,-74.98 1244.5,-72.09 1244.93,-79.08"/>
</a>
</g>
</g>
<!-- Node20 -->
<g id="Node000020" class="node">
<title>Node20</title>
<g id="a_Node000020"><a xlink:title=" ">
<polygon fill="#e0e0e0" stroke="#999999" points="276,-79.5 220,-79.5 220,-60.5 276,-60.5 276,-79.5"/>
<text text-anchor="middle" x="248" y="-67.5" font-family="Helvetica,sans-Serif" font-size="10.00">iomanip</text>
</a>
</g>
</g>
<!-- Node19&#45;&gt;Node20 -->
<g id="edge27_Node000019_Node000020" class="edge">
<title>Node19&#45;&gt;Node20</title>
<g id="a_edge27_Node000019_Node000020"><a xlink:title=" ">
<path fill="none" stroke="#63b8ff" d="M343.47,-120.87C325.03,-111.23 294.96,-95.53 273.49,-84.31"/>
<polygon fill="#63b8ff" stroke="#63b8ff" points="275.08,-81.19 264.59,-79.67 271.84,-87.4 275.08,-81.19"/>
</a>
</g>
</g>
<!-- Node21 -->
<g id="Node000021" class="node">
<title>Node21</title>
<g id="a_Node000021"><a xlink:title=" ">
<polygon fill="#e0e0e0" stroke="#999999" points="401.5,-85 294.5,-85 294.5,-55 401.5,-55 401.5,-85"/>
<text text-anchor="start" x="302.5" y="-73" font-family="Helvetica,sans-Serif" font-size="10.00">imgui&#45;platform&#45;kit</text>
<text text-anchor="middle" x="348" y="-62" font-family="Helvetica,sans-Serif" font-size="10.00">/log_window.h</text>
</a>
</g>
</g>
<!-- Node19&#45;&gt;Node21 -->
<g id="edge28_Node000019_Node000021" class="edge">
<title>Node19&#45;&gt;Node21</title>
<g id="a_edge28_Node000019_Node000021"><a xlink:title=" ">
<path fill="none" stroke="#63b8ff" d="M358.23,-120.87C356.83,-114.03 354.8,-104.14 352.92,-94.97"/>
<polygon fill="#63b8ff" stroke="#63b8ff" points="356.33,-94.21 350.9,-85.11 349.48,-95.61 356.33,-94.21"/>
</a>
</g>
</g>
<!-- Node19&#45;&gt;Node22 -->
<g id="edge30_Node000019_Node000022" class="edge">
<title>Node19&#45;&gt;Node22</title>
<g id="a_edge30_Node000019_Node000022"><a xlink:title=" ">
<path fill="none" stroke="#63b8ff" d="M383.27,-120.99C410.64,-110.99 456.27,-94.3 487.22,-82.99"/>
<polygon fill="#63b8ff" stroke="#63b8ff" points="488.52,-86.24 496.71,-79.52 486.11,-79.66 488.52,-86.24"/>
</a>
</g>
</g>
<!-- Node22&#45;&gt;Node5 -->
<g id="edge32_Node000022_Node000005" class="edge">
<title>Node22&#45;&gt;Node5</title>
<g id="a_edge32_Node000022_Node000005"><a xlink:title=" ">
<path fill="none" stroke="#63b8ff" d="M496.44,-65.9C422.61,-56.17 195.54,-26.25 109.51,-14.91"/>
<polygon fill="#63b8ff" stroke="#63b8ff" points="109.87,-11.43 99.5,-13.6 108.96,-18.37 109.87,-11.43"/>
</a>
</g>
</g>
<!-- Node22&#45;&gt;Node8 -->
<g id="edge31_Node000022_Node000008" class="edge">
<title>Node22&#45;&gt;Node8</title>
<g id="a_edge31_Node000022_Node000008"><a xlink:title=" ">
<path fill="none" stroke="#63b8ff" d="M541.94,-60.38C547.16,-58.47 552.74,-56.56 558,-55 623.67,-35.46 643.85,-36.35 713.93,-19.17"/>
<polygon fill="#63b8ff" stroke="#63b8ff" points="714.82,-22.55 723.68,-16.74 713.13,-15.76 714.82,-22.55"/>
</a>
</g>
</g>
<!-- Node22&#45;&gt;Node9 -->
<g id="edge37_Node000022_Node000009" class="edge">
<title>Node22&#45;&gt;Node9</title>
<g id="a_edge37_Node000022_Node000009"><a xlink:title=" ">
<path fill="none" stroke="#63b8ff" d="M542.1,-60.49C567.99,-50.53 611.08,-33.95 640.47,-22.63"/>
<polygon fill="#63b8ff" stroke="#63b8ff" points="641.8,-25.88 649.87,-19.02 639.28,-19.34 641.8,-25.88"/>
</a>
</g>
</g>
<!-- Node22&#45;&gt;Node10 -->
<g id="edge36_Node000022_Node000010" class="edge">
<title>Node22&#45;&gt;Node10</title>
<g id="a_edge36_Node000022_Node000010"><a xlink:title=" ">
<path fill="none" stroke="#63b8ff" d="M498.92,-60.49C474.32,-50.57 433.47,-34.09 405.44,-22.78"/>
<polygon fill="#63b8ff" stroke="#63b8ff" points="406.69,-19.51 396.11,-19.02 404.07,-26 406.69,-19.51"/>
</a>
</g>
</g>
<!-- Node23 -->
<g id="Node000023" class="node">
<title>Node23</title>
<g id="a_Node000023"><a xlink:title=" ">
<polygon fill="#e0e0e0" stroke="#999999" points="620,-19 566,-19 566,0 620,0 620,-19"/>
<text text-anchor="middle" x="593" y="-7" font-family="Helvetica,sans-Serif" font-size="10.00">random</text>
</a>
</g>
</g>
<!-- Node22&#45;&gt;Node23 -->
<g id="edge33_Node000022_Node000023" class="edge">
<title>Node22&#45;&gt;Node23</title>
<g id="a_edge33_Node000022_Node000023"><a xlink:title=" ">
<path fill="none" stroke="#63b8ff" d="M530.77,-60.37C542.2,-51.21 560.48,-36.56 574.28,-25.51"/>
<polygon fill="#63b8ff" stroke="#63b8ff" points="576.57,-28.15 582.18,-19.17 572.19,-22.69 576.57,-28.15"/>
</a>
</g>
</g>
<!-- Node24 -->
<g id="Node000024" class="node">
<title>Node24</title>
<g id="a_Node000024"><a xlink:title=" ">
<polygon fill="#e0e0e0" stroke="#999999" points="474,-19 418,-19 418,0 474,0 474,-19"/>
<text text-anchor="middle" x="446" y="-7" font-family="Helvetica,sans-Serif" font-size="10.00">sstream</text>
</a>
</g>
</g>
<!-- Node22&#45;&gt;Node24 -->
<g id="edge34_Node000022_Node000024" class="edge">
<title>Node22&#45;&gt;Node24</title>
<g id="a_edge34_Node000022_Node000024"><a xlink:title=" ">
<path fill="none" stroke="#63b8ff" d="M509.08,-60.37C497.49,-51.21 478.97,-36.56 464.98,-25.51"/>
<polygon fill="#63b8ff" stroke="#63b8ff" points="466.98,-22.62 456.96,-19.17 462.64,-28.11 466.98,-22.62"/>
</a>
</g>
</g>
<!-- Node25 -->
<g id="Node000025" class="node">
<title>Node25</title>
<g id="a_Node000025"><a xlink:title=" ">
<polygon fill="#e0e0e0" stroke="#999999" points="547.5,-19 492.5,-19 492.5,0 547.5,0 547.5,-19"/>
<text text-anchor="middle" x="520" y="-7" font-family="Helvetica,sans-Serif" font-size="10.00">fstream</text>
</a>
</g>
</g>
<!-- Node22&#45;&gt;Node25 -->
<g id="edge35_Node000022_Node000025" class="edge">
<title>Node22&#45;&gt;Node25</title>
<g id="a_edge35_Node000022_Node000025"><a xlink:title=" ">
<path fill="none" stroke="#63b8ff" d="M520,-60.37C520,-52.25 520,-39.81 520,-29.39"/>
<polygon fill="#63b8ff" stroke="#63b8ff" points="523.5,-29.17 520,-19.17 516.5,-29.17 523.5,-29.17"/>
</a>
</g>
</g>
<!-- Node26&#45;&gt;Node8 -->
<g id="edge40_Node000026_Node000008" class="edge">
<title>Node26&#45;&gt;Node8</title>
<g id="a_edge40_Node000026_Node000008"><a xlink:title=" ">
<path fill="none" stroke="#63b8ff" d="M738.63,-175.91C740.06,-143.85 743.55,-65.38 745.16,-29.26"/>
<polygon fill="#63b8ff" stroke="#63b8ff" points="748.67,-29.28 745.62,-19.13 741.67,-28.97 748.67,-29.28"/>
</a>
</g>
</g>
<!-- Node26&#45;&gt;Node19 -->
<g id="edge42_Node000026_Node000019" class="edge">
<title>Node26&#45;&gt;Node19</title>
<g id="a_edge42_Node000026_Node000019"><a xlink:title=" ">
<path fill="none" stroke="#63b8ff" d="M672.1,-178.33C667.33,-177.53 662.59,-176.74 658,-176 571.78,-162.02 471.26,-147.35 411.77,-138.83"/>
<polygon fill="#63b8ff" stroke="#63b8ff" points="411.9,-135.31 401.51,-137.36 410.91,-142.24 411.9,-135.31"/>
</a>
</g>
</g>
<!-- Node27 -->
<g id="Node000027" class="node">
<title>Node27</title>
<g id="a_Node000027"><a xlink:title=" ">
<polygon fill="#e0e0e0" stroke="#999999" points="676,-140 638,-140 638,-121 676,-121 676,-140"/>
<text text-anchor="middle" x="657" y="-128" font-family="Helvetica,sans-Serif" font-size="10.00">map</text>
</a>
</g>
</g>
<!-- Node26&#45;&gt;Node27 -->
<g id="edge39_Node000026_Node000027" class="edge">
<title>Node26&#45;&gt;Node27</title>
<g id="a_edge39_Node000026_Node000027"><a xlink:title=" ">
<path fill="none" stroke="#63b8ff" d="M718.39,-175.84C706.03,-166.91 690.1,-155.41 677.57,-146.35"/>
<polygon fill="#63b8ff" stroke="#63b8ff" points="679.29,-143.28 669.14,-140.27 675.2,-148.96 679.29,-143.28"/>
</a>
</g>
</g>
<!-- Node28 -->
<g id="Node000028" class="node">
<title>Node28</title>
<g id="a_Node000028"><a xlink:title=" ">
<polygon fill="#e0e0e0" stroke="#999999" points="804,-140 754,-140 754,-121 804,-121 804,-140"/>
<text text-anchor="middle" x="779" y="-128" font-family="Helvetica,sans-Serif" font-size="10.00">format</text>
</a>
</g>
</g>
<!-- Node26&#45;&gt;Node28 -->
<g id="edge41_Node000026_Node000028" class="edge">
<title>Node26&#45;&gt;Node28</title>
<g id="a_edge41_Node000026_Node000028"><a xlink:title=" ">
<path fill="none" stroke="#63b8ff" d="M747.92,-175.84C753.69,-167.61 761,-157.18 767.08,-148.51"/>
<polygon fill="#63b8ff" stroke="#63b8ff" points="769.98,-150.46 772.86,-140.27 764.25,-146.45 769.98,-150.46"/>
</a>
</g>
</g>
<!-- Node30 -->
<g id="Node000030" class="node">
<title>Node30</title>
<g id="a_Node000030"><a xlink:href="plot__parameters_8h.html" target="_top" xlink:title=" ">
<polygon fill="white" stroke="#666666" points="413,-200.5 307,-200.5 307,-181.5 413,-181.5 413,-200.5"/>
<text text-anchor="middle" x="360" y="-188.5" font-family="Helvetica,sans-Serif" font-size="10.00">plot_parameters.h</text>
</a>
</g>
</g>
<!-- Node29&#45;&gt;Node30 -->
<g id="edge47_Node000029_Node000030" class="edge">
<title>Node29&#45;&gt;Node30</title>
<g id="a_edge47_Node000029_Node000030"><a xlink:title=" ">
<path fill="none" stroke="#63b8ff" d="M238.65,-241.99C262.63,-232.12 302.39,-215.73 329.83,-204.43"/>
<polygon fill="#63b8ff" stroke="#63b8ff" points="331.41,-207.56 339.33,-200.52 328.75,-201.09 331.41,-207.56"/>
</a>
</g>
</g>
<!-- Node30&#45;&gt;Node5 -->
<g id="edge50_Node000030_Node000005" class="edge">
<title>Node30&#45;&gt;Node5</title>
<g id="a_edge50_Node000030_Node000005"><a xlink:title=" ">
<path fill="none" stroke="#63b8ff" d="M347.08,-181.24C321.02,-163.51 260.46,-121.91 211,-85 193.75,-72.13 191.35,-66.23 173,-55 152.32,-42.34 127.43,-30.99 108.04,-22.93"/>
<polygon fill="#63b8ff" stroke="#63b8ff" points="109.31,-19.67 98.73,-19.13 106.67,-26.15 109.31,-19.67"/>
</a>
</g>
</g>
<!-- Node30&#45;&gt;Node8 -->
<g id="edge49_Node000030_Node000008" class="edge">
<title>Node30&#45;&gt;Node8</title>
<g id="a_edge49_Node000030_Node000008"><a xlink:title=" ">
<path fill="none" stroke="#63b8ff" d="M378.65,-181.48C417.59,-163.68 510.38,-121.17 588,-85 633.89,-63.62 687.11,-38.44 718.6,-23.51"/>
<polygon fill="#63b8ff" stroke="#63b8ff" points="720.48,-26.49 728.02,-19.04 717.48,-20.17 720.48,-26.49"/>
</a>
</g>
</g>
<!-- Node30&#45;&gt;Node19 -->
<g id="edge51_Node000030_Node000019" class="edge">
<title>Node30&#45;&gt;Node19</title>
<g id="a_edge51_Node000030_Node000019"><a xlink:title=" ">
<path fill="none" stroke="#63b8ff" d="M360,-181.37C360,-173.25 360,-160.81 360,-150.39"/>
<polygon fill="#63b8ff" stroke="#63b8ff" points="363.5,-150.17 360,-140.17 356.5,-150.17 363.5,-150.17"/>
</a>
</g>
</g>
<!-- Node30&#45;&gt;Node27 -->
<g id="edge48_Node000030_Node000027" class="edge">
<title>Node30&#45;&gt;Node27</title>
<g id="a_edge48_Node000030_Node000027"><a xlink:title=" ">
<path fill="none" stroke="#63b8ff" d="M403.19,-181.49C464.6,-169.4 575.51,-147.55 627.98,-137.22"/>
<polygon fill="#63b8ff" stroke="#63b8ff" points="628.83,-140.62 637.96,-135.25 627.47,-133.75 628.83,-140.62"/>
</a>
</g>
</g>
<!-- Node31&#45;&gt;Node29 -->
<g id="edge54_Node000031_Node000029" class="edge">
<title>Node31&#45;&gt;Node29</title>
<g id="a_edge54_Node000031_Node000029"><a xlink:title=" ">
<path fill="none" stroke="#63b8ff" d="M374.96,-296.98C340.66,-287.26 284.79,-271.43 249.78,-261.51"/>
<polygon fill="#63b8ff" stroke="#63b8ff" points="250.64,-258.11 240.07,-258.75 248.73,-264.85 250.64,-258.11"/>
</a>
</g>
</g>
<!-- Node32&#45;&gt;Node29 -->
<g id="edge56_Node000032_Node000029" class="edge">
<title>Node32&#45;&gt;Node29</title>
<g id="a_edge56_Node000032_Node000029"><a xlink:title=" ">
<path fill="none" stroke="#63b8ff" d="M218,-296.75C218,-289.8 218,-279.85 218,-271.13"/>
<polygon fill="#63b8ff" stroke="#63b8ff" points="221.5,-271.09 218,-261.09 214.5,-271.09 221.5,-271.09"/>
</a>
</g>
</g>
<!-- Node33&#45;&gt;Node3 -->
<g id="edge62_Node000033_Node000003" class="edge">
<title>Node33&#45;&gt;Node3</title>
<g id="a_edge62_Node000033_Node000003"><a xlink:title=" ">
<path fill="none" stroke="#63b8ff" d="M1055.44,-426.26C915.98,-414.6 599.52,-388.12 445.9,-375.27"/>
<polygon fill="#63b8ff" stroke="#63b8ff" points="445.83,-371.75 435.57,-374.41 445.24,-378.73 445.83,-371.75"/>
</a>
</g>
</g>
<!-- Node33&#45;&gt;Node6 -->
<g id="edge61_Node000033_Node000006" class="edge">
<title>Node33&#45;&gt;Node6</title>
<g id="a_edge61_Node000033_Node000006"><a xlink:title=" ">
<path fill="none" stroke="#63b8ff" d="M1085.37,-423.44C985.69,-401.36 719.96,-342.49 610.33,-318.21"/>
<polygon fill="#63b8ff" stroke="#63b8ff" points="611.05,-314.78 600.53,-316.03 609.53,-321.61 611.05,-314.78"/>
</a>
</g>
</g>
<!-- Node33&#45;&gt;Node16 -->
<g id="edge60_Node000033_Node000016" class="edge">
<title>Node33&#45;&gt;Node16</title>
<g id="a_edge60_Node000033_Node000016"><a xlink:title=" ">
<path fill="none" stroke="#63b8ff" d="M1192.63,-424.61C1261.67,-412.93 1358,-383.08 1358,-307.5 1358,-307.5 1358,-307.5 1358,-190 1358,-152.57 1340.73,-111.53 1329.48,-88.75"/>
<polygon fill="#63b8ff" stroke="#63b8ff" points="1332.49,-86.96 1324.81,-79.65 1326.26,-90.15 1332.49,-86.96"/>
</a>
</g>
</g>
<!-- Node34 -->
<g id="Node000034" class="node">
<title>Node34</title>
<g id="a_Node000034"><a xlink:title=" ">
<polygon fill="#e0e0e0" stroke="#999999" points="1587.5,-376.5 1518.5,-376.5 1518.5,-357.5 1587.5,-357.5 1587.5,-376.5"/>
<text text-anchor="middle" x="1553" y="-364.5" font-family="Helvetica,sans-Serif" font-size="10.00">type_traits</text>
</a>
</g>
</g>
<!-- Node33&#45;&gt;Node34 -->
<g id="edge58_Node000033_Node000034" class="edge">
<title>Node33&#45;&gt;Node34</title>
<g id="a_edge58_Node000033_Node000034"><a xlink:title=" ">
<path fill="none" stroke="#63b8ff" d="M1192.8,-426.8C1270.32,-420.08 1399.78,-406.26 1509,-382 1512.21,-381.29 1515.52,-380.44 1518.81,-379.53"/>
<polygon fill="#63b8ff" stroke="#63b8ff" points="1519.96,-382.84 1528.54,-376.64 1517.96,-376.13 1519.96,-382.84"/>
</a>
</g>
</g>
<!-- Node35 -->
<g id="Node000035" class="node">
<title>Node35</title>
<g id="a_Node000035"><a xlink:title=" ">
<polygon fill="#e0e0e0" stroke="#999999" points="1177.5,-382 1070.5,-382 1070.5,-352 1177.5,-352 1177.5,-382"/>
<text text-anchor="start" x="1078.5" y="-370" font-family="Helvetica,sans-Serif" font-size="10.00">imgui&#45;platform&#45;kit</text>
<text text-anchor="middle" x="1124" y="-359" font-family="Helvetica,sans-Serif" font-size="10.00">/user_interface.h</text>
</a>
</g>
</g>
<!-- Node33&#45;&gt;Node35 -->
<g id="edge59_Node000033_Node000035" class="edge">
<title>Node33&#45;&gt;Node35</title>
<g id="a_edge59_Node000033_Node000035"><a xlink:title=" ">
<path fill="none" stroke="#63b8ff" d="M1124,-423.37C1124,-415.49 1124,-403.45 1124,-392.6"/>
<polygon fill="#63b8ff" stroke="#63b8ff" points="1127.5,-392.36 1124,-382.36 1120.5,-392.36 1127.5,-392.36"/>
</a>
</g>
</g>
<!-- Node36 -->
<g id="Node000036" class="node">
<title>Node36</title>
<g id="a_Node000036"><a xlink:href="imgui__freetype_8h.html" target="_top" xlink:title=" ">
<polygon fill="white" stroke="#666666" points="1500,-382 1386,-382 1386,-352 1500,-352 1500,-382"/>
<text text-anchor="start" x="1394" y="-370" font-family="Helvetica,sans-Serif" font-size="10.00">user_interface/fonts</text>
<text text-anchor="middle" x="1443" y="-359" font-family="Helvetica,sans-Serif" font-size="10.00">/imgui_freetype.h</text>
</a>
</g>
</g>
<!-- Node33&#45;&gt;Node36 -->
<g id="edge63_Node000033_Node000036" class="edge">
<title>Node33&#45;&gt;Node36</title>
<g id="a_edge63_Node000033_Node000036"><a xlink:title=" ">
<path fill="none" stroke="#63b8ff" d="M1166.69,-423.44C1220.27,-412.68 1312.79,-394.12 1375.88,-381.47"/>
<polygon fill="#63b8ff" stroke="#63b8ff" points="1376.63,-384.89 1385.74,-379.49 1375.25,-378.02 1376.63,-384.89"/>
</a>
</g>
</g>
<!-- Node37 -->
<g id="Node000037" class="node">
<title>Node37</title>
<g id="a_Node000037"><a xlink:title=" ">
<polygon fill="#e0e0e0" stroke="#999999" points="1469.5,-316 1416.5,-316 1416.5,-297 1469.5,-297 1469.5,-316"/>
<text text-anchor="middle" x="1443" y="-304" font-family="Helvetica,sans-Serif" font-size="10.00">imgui.h</text>
</a>
</g>
</g>
<!-- Node36&#45;&gt;Node37 -->
<g id="edge64_Node000036_Node000037" class="edge">
<title>Node36&#45;&gt;Node37</title>
<g id="a_edge64_Node000036_Node000037"><a xlink:title=" ">
<path fill="none" stroke="#63b8ff" d="M1443,-351.84C1443,-344.21 1443,-334.7 1443,-326.45"/>
<polygon fill="#63b8ff" stroke="#63b8ff" points="1446.5,-326.27 1443,-316.27 1439.5,-326.27 1446.5,-326.27"/>
</a>
</g>
</g>
</g>
</svg>
