<?xml version="1.0" encoding="UTF-8" standalone="no"?>
<!DOCTYPE svg PUBLIC "-//W3C//DTD SVG 1.1//EN"
 "http://www.w3.org/Graphics/SVG/1.1/DTD/svg11.dtd">
<!-- Generated by graphviz version 2.43.0 (0)
 -->
<!-- Title: include/visualization/plot_parameters.h Pages: 1 -->
<svg width="757pt" height="214pt"
 viewBox="0.00 0.00 756.50 214.00" xmlns="http://www.w3.org/2000/svg" xmlns:xlink="http://www.w3.org/1999/xlink">
<g id="graph0" class="graph" transform="scale(1 1) rotate(0) translate(4 210)">
<title>include/visualization/plot_parameters.h</title>
<!-- Node1 -->
<g id="Node000001" class="node">
<title>Node1</title>
<g id="a_Node000001"><a xlink:title=" ">
<polygon fill="#999999" stroke="#666666" points="280.5,-206 163.5,-206 163.5,-176 280.5,-176 280.5,-206"/>
<text text-anchor="start" x="171.5" y="-194" font-family="Helvetica,sans-Serif" font-size="10.00">include/visualization</text>
<text text-anchor="middle" x="222" y="-183" font-family="Helvetica,sans-Serif" font-size="10.00">/plot_parameters.h</text>
</a>
</g>
</g>
<!-- Node2 -->
<g id="Node000002" class="node">
<title>Node2</title>
<g id="a_Node000002"><a xlink:title=" ">
<polygon fill="#e0e0e0" stroke="#999999" points="38,-140 0,-140 0,-121 38,-121 38,-140"/>
<text text-anchor="middle" x="19" y="-128" font-family="Helvetica,sans-Serif" font-size="10.00">map</text>
</a>
</g>
</g>
<!-- Node1&#45;&gt;Node2 -->
<g id="edge1_Node000001_Node000002" class="edge">
<title>Node1&#45;&gt;Node2</title>
<g id="a_edge1_Node000001_Node000002"><a xlink:title=" ">
<path fill="none" stroke="#63b8ff" d="M173.38,-175.99C134.22,-164.7 80.48,-149.22 47.84,-139.81"/>
<polygon fill="#63b8ff" stroke="#63b8ff" points="48.6,-136.39 38.02,-136.98 46.66,-143.11 48.6,-136.39"/>
</a>
</g>
</g>
<!-- Node3 -->
<g id="Node000003" class="node">
<title>Node3</title>
<g id="a_Node000003"><a xlink:title=" ">
<polygon fill="#e0e0e0" stroke="#999999" points="300,-19 256,-19 256,0 300,0 300,-19"/>
<text text-anchor="middle" x="278" y="-7" font-family="Helvetica,sans-Serif" font-size="10.00">string</text>
</a>
</g>
</g>
<!-- Node1&#45;&gt;Node3 -->
<g id="edge2_Node000001_Node000003" class="edge">
<title>Node1&#45;&gt;Node3</title>
<g id="a_edge2_Node000001_Node000003"><a xlink:title=" ">
<path fill="none" stroke="#63b8ff" d="M187.78,-175.95C135.69,-152.58 46.43,-103.47 85,-55 95.01,-42.41 193.49,-24.45 245.77,-15.7"/>
<polygon fill="#63b8ff" stroke="#63b8ff" points="246.58,-19.11 255.87,-14.03 245.43,-12.21 246.58,-19.11"/>
</a>
</g>
</g>
<!-- Node4 -->
<g id="Node000004" class="node">
<title>Node4</title>
<g id="a_Node000004"><a xlink:title=" ">
<polygon fill="#e0e0e0" stroke="#999999" points="748.5,-19 701.5,-19 701.5,0 748.5,0 748.5,-19"/>
<text text-anchor="middle" x="725" y="-7" font-family="Helvetica,sans-Serif" font-size="10.00">vector</text>
</a>
</g>
</g>
<!-- Node1&#45;&gt;Node4 -->
<g id="edge3_Node000001_Node000004" class="edge">
<title>Node1&#45;&gt;Node4</title>
<g id="a_edge3_Node000001_Node000004"><a xlink:title=" ">
<path fill="none" stroke="#63b8ff" d="M280.74,-186.43C367.63,-178.88 533.05,-155.65 653,-85 677.98,-70.29 700.04,-44.58 712.96,-27.54"/>
<polygon fill="#63b8ff" stroke="#63b8ff" points="716.06,-29.23 719.16,-19.1 710.42,-25.09 716.06,-29.23"/>
</a>
</g>
</g>
<!-- Node5 -->
<g id="Node000005" class="node">
<title>Node5</title>
<g id="a_Node000005"><a xlink:href="logger_8h.html" target="_top" xlink:title=" ">
<polygon fill="white" stroke="#666666" points="438.5,-140 355.5,-140 355.5,-121 438.5,-121 438.5,-140"/>
<text text-anchor="middle" x="397" y="-128" font-family="Helvetica,sans-Serif" font-size="10.00">tools/logger.h</text>
</a>
</g>
</g>
<!-- Node1&#45;&gt;Node5 -->
<g id="edge4_Node000001_Node000005" class="edge">
<title>Node1&#45;&gt;Node5</title>
<g id="a_edge4_Node000001_Node000005"><a xlink:title=" ">
<path fill="none" stroke="#63b8ff" d="M263.92,-175.99C293.73,-166.02 333.33,-152.78 361.56,-143.35"/>
<polygon fill="#63b8ff" stroke="#63b8ff" points="363.04,-146.54 371.41,-140.05 360.82,-139.9 363.04,-146.54"/>
</a>
</g>
</g>
<!-- Node5&#45;&gt;Node3 -->
<g id="edge6_Node000005_Node000003" class="edge">
<title>Node5&#45;&gt;Node3</title>
<g id="a_edge6_Node000005_Node000003"><a xlink:title=" ">
<path fill="none" stroke="#63b8ff" d="M394.4,-120.67C389.59,-105.59 378,-74.6 359,-55 345.18,-40.75 325.8,-29.88 309.46,-22.45"/>
<polygon fill="#63b8ff" stroke="#63b8ff" points="310.83,-19.23 300.26,-18.48 308.05,-25.65 310.83,-19.23"/>
</a>
</g>
</g>
<!-- Node6 -->
<g id="Node000006" class="node">
<title>Node6</title>
<g id="a_Node000006"><a xlink:title=" ">
<polygon fill="#e0e0e0" stroke="#999999" points="504,-79.5 444,-79.5 444,-60.5 504,-60.5 504,-79.5"/>
<text text-anchor="middle" x="474" y="-67.5" font-family="Helvetica,sans-Serif" font-size="10.00">iostream</text>
</a>
</g>
</g>
<!-- Node5&#45;&gt;Node6 -->
<g id="edge5_Node000005_Node000006" class="edge">
<title>Node5&#45;&gt;Node6</title>
<g id="a_edge5_Node000005_Node000006"><a xlink:title=" ">
<path fill="none" stroke="#63b8ff" d="M408.36,-120.87C420.42,-111.71 439.7,-97.06 454.25,-86.01"/>
<polygon fill="#63b8ff" stroke="#63b8ff" points="456.75,-88.5 462.59,-79.67 452.51,-82.93 456.75,-88.5"/>
</a>
</g>
</g>
<!-- Node7 -->
<g id="Node000007" class="node">
<title>Node7</title>
<g id="a_Node000007"><a xlink:title=" ">
<polygon fill="#e0e0e0" stroke="#999999" points="378,-19 328,-19 328,0 378,0 378,-19"/>
<text text-anchor="middle" x="353" y="-7" font-family="Helvetica,sans-Serif" font-size="10.00">chrono</text>
</a>
</g>
</g>
<!-- Node5&#45;&gt;Node7 -->
<g id="edge7_Node000005_Node000007" class="edge">
<title>Node5&#45;&gt;Node7</title>
<g id="a_edge7_Node000005_Node000007"><a xlink:title=" ">
<path fill="none" stroke="#63b8ff" d="M398.16,-120.83C399.69,-106.51 401.24,-77.27 392,-55 387.45,-44.04 379.07,-33.91 371.24,-26.1"/>
<polygon fill="#63b8ff" stroke="#63b8ff" points="373.45,-23.37 363.75,-19.1 368.67,-28.49 373.45,-23.37"/>
</a>
</g>
</g>
<!-- Node8 -->
<g id="Node000008" class="node">
<title>Node8</title>
<g id="a_Node000008"><a xlink:title=" ">
<polygon fill="#e0e0e0" stroke="#999999" points="644,-79.5 588,-79.5 588,-60.5 644,-60.5 644,-79.5"/>
<text text-anchor="middle" x="616" y="-67.5" font-family="Helvetica,sans-Serif" font-size="10.00">iomanip</text>
</a>
</g>
</g>
<!-- Node5&#45;&gt;Node8 -->
<g id="edge8_Node000005_Node000008" class="edge">
<title>Node5&#45;&gt;Node8</title>
<g id="a_edge8_Node000005_Node000008"><a xlink:title=" ">
<path fill="none" stroke="#63b8ff" d="M438.23,-120.92C475.38,-112.84 531.31,-99.79 579,-85 580.92,-84.4 582.88,-83.76 584.85,-83.09"/>
<polygon fill="#63b8ff" stroke="#63b8ff" points="586.4,-86.26 594.63,-79.59 584.04,-79.67 586.4,-86.26"/>
</a>
</g>
</g>
<!-- Node9 -->
<g id="Node000009" class="node">
<title>Node9</title>
<g id="a_Node000009"><a xlink:title=" ">
<polygon fill="#e0e0e0" stroke="#999999" points="349.5,-85 242.5,-85 242.5,-55 349.5,-55 349.5,-85"/>
<text text-anchor="start" x="250.5" y="-73" font-family="Helvetica,sans-Serif" font-size="10.00">imgui&#45;platform&#45;kit</text>
<text text-anchor="middle" x="296" y="-62" font-family="Helvetica,sans-Serif" font-size="10.00">/log_window.h</text>
</a>
</g>
</g>
<!-- Node5&#45;&gt;Node9 -->
<g id="edge9_Node000005_Node000009" class="edge">
<title>Node5&#45;&gt;Node9</title>
<g id="a_edge9_Node000005_Node000009"><a xlink:title=" ">
<path fill="none" stroke="#63b8ff" d="M382.1,-120.87C368.27,-112.86 347.19,-100.65 329.35,-90.31"/>
<polygon fill="#63b8ff" stroke="#63b8ff" points="330.78,-87.1 320.37,-85.11 327.27,-93.16 330.78,-87.1"/>
</a>
</g>
</g>
<!-- Node10 -->
<g id="Node000010" class="node">
<title>Node10</title>
<g id="a_Node000010"><a xlink:href="exception_8h.html" target="_top" xlink:title=" ">
<polygon fill="white" stroke="#666666" points="224,-79.5 94,-79.5 94,-60.5 224,-60.5 224,-79.5"/>
<text text-anchor="middle" x="159" y="-67.5" font-family="Helvetica,sans-Serif" font-size="10.00">exceptions/exception.h</text>
</a>
</g>
</g>
<!-- Node5&#45;&gt;Node10 -->
<g id="edge10_Node000005_Node000010" class="edge">
<title>Node5&#45;&gt;Node10</title>
<g id="a_edge10_Node000005_Node000010"><a xlink:title=" ">
<path fill="none" stroke="#63b8ff" d="M362.39,-120.99C320.44,-110.68 249.66,-93.28 203.64,-81.97"/>
<polygon fill="#63b8ff" stroke="#63b8ff" points="204.2,-78.5 193.65,-79.52 202.52,-85.3 204.2,-78.5"/>
</a>
</g>
</g>
<!-- Node12 -->
<g id="Node000012" class="node">
<title>Node12</title>
<g id="a_Node000012"><a xlink:href="utils_8h.html" target="_top" xlink:title=" ">
<polygon fill="white" stroke="#666666" points="569.5,-79.5 522.5,-79.5 522.5,-60.5 569.5,-60.5 569.5,-79.5"/>
<text text-anchor="middle" x="546" y="-67.5" font-family="Helvetica,sans-Serif" font-size="10.00">utils.h</text>
</a>
</g>
</g>
<!-- Node5&#45;&gt;Node12 -->
<g id="edge13_Node000005_Node000012" class="edge">
<title>Node5&#45;&gt;Node12</title>
<g id="a_edge13_Node000005_Node000012"><a xlink:title=" ">
<path fill="none" stroke="#63b8ff" d="M420.2,-120.87C443.69,-112.07 481,-97.92 513,-85 514.2,-84.52 515.42,-84.02 516.66,-83.51"/>
<polygon fill="#63b8ff" stroke="#63b8ff" points="518.27,-86.63 526.15,-79.55 515.58,-80.17 518.27,-86.63"/>
</a>
</g>
</g>
<!-- Node10&#45;&gt;Node3 -->
<g id="edge12_Node000010_Node000003" class="edge">
<title>Node10&#45;&gt;Node3</title>
<g id="a_edge12_Node000010_Node000003"><a xlink:title=" ">
<path fill="none" stroke="#63b8ff" d="M176.3,-60.49C196.05,-50.79 228.55,-34.81 251.49,-23.53"/>
<polygon fill="#63b8ff" stroke="#63b8ff" points="253.25,-26.57 260.68,-19.02 250.16,-20.29 253.25,-26.57"/>
</a>
</g>
</g>
<!-- Node11 -->
<g id="Node000011" class="node">
<title>Node11</title>
<g id="a_Node000011"><a xlink:title=" ">
<polygon fill="#e0e0e0" stroke="#999999" points="191.5,-19 126.5,-19 126.5,0 191.5,0 191.5,-19"/>
<text text-anchor="middle" x="159" y="-7" font-family="Helvetica,sans-Serif" font-size="10.00">exception</text>
</a>
</g>
</g>
<!-- Node10&#45;&gt;Node11 -->
<g id="edge11_Node000010_Node000011" class="edge">
<title>Node10&#45;&gt;Node11</title>
<g id="a_edge11_Node000010_Node000011"><a xlink:title=" ">
<path fill="none" stroke="#63b8ff" d="M159,-60.37C159,-52.25 159,-39.81 159,-29.39"/>
<polygon fill="#63b8ff" stroke="#63b8ff" points="162.5,-29.17 159,-19.17 155.5,-29.17 162.5,-29.17"/>
</a>
</g>
</g>
<!-- Node12&#45;&gt;Node3 -->
<g id="edge14_Node000012_Node000003" class="edge">
<title>Node12&#45;&gt;Node3</title>
<g id="a_edge14_Node000012_Node000003"><a xlink:title=" ">
<path fill="none" stroke="#63b8ff" d="M527.76,-60.43C523.03,-58.44 517.89,-56.47 513,-55 429.03,-29.73 405.05,-35.9 319,-19 316.12,-18.44 313.14,-17.84 310.15,-17.23"/>
<polygon fill="#63b8ff" stroke="#63b8ff" points="310.61,-13.75 300.11,-15.17 309.2,-20.61 310.61,-13.75"/>
</a>
</g>
</g>
<!-- Node12&#45;&gt;Node4 -->
<g id="edge15_Node000012_Node000004" class="edge">
<title>Node12&#45;&gt;Node4</title>
<g id="a_edge15_Node000012_Node000004"><a xlink:title=" ">
<path fill="none" stroke="#63b8ff" d="M565.41,-60.36C569.84,-58.51 574.55,-56.62 579,-55 617.1,-41.16 661.79,-27.97 691.6,-19.6"/>
<polygon fill="#63b8ff" stroke="#63b8ff" points="692.79,-22.9 701.49,-16.84 690.91,-16.15 692.79,-22.9"/>
</a>
</g>
</g>
<!-- Node12&#45;&gt;Node7 -->
<g id="edge19_Node000012_Node000007" class="edge">
<title>Node12&#45;&gt;Node7</title>
<g id="a_edge19_Node000012_Node000007"><a xlink:title=" ">
<path fill="none" stroke="#63b8ff" d="M526.97,-60.43C522.44,-58.53 517.58,-56.6 513,-55 490.03,-46.97 427.78,-30.18 388.05,-19.68"/>
<polygon fill="#63b8ff" stroke="#63b8ff" points="388.78,-16.25 378.22,-17.09 387,-23.02 388.78,-16.25"/>
</a>
</g>
</g>
<!-- Node13 -->
<g id="Node000013" class="node">
<title>Node13</title>
<g id="a_Node000013"><a xlink:title=" ">
<polygon fill="#e0e0e0" stroke="#999999" points="536,-19 482,-19 482,0 536,0 536,-19"/>
<text text-anchor="middle" x="509" y="-7" font-family="Helvetica,sans-Serif" font-size="10.00">random</text>
</a>
</g>
</g>
<!-- Node12&#45;&gt;Node13 -->
<g id="edge16_Node000012_Node000013" class="edge">
<title>Node12&#45;&gt;Node13</title>
<g id="a_edge16_Node000012_Node000013"><a xlink:title=" ">
<path fill="none" stroke="#63b8ff" d="M540.54,-60.37C535.13,-51.81 526.69,-38.47 519.9,-27.74"/>
<polygon fill="#63b8ff" stroke="#63b8ff" points="522.79,-25.75 514.48,-19.17 516.87,-29.49 522.79,-25.75"/>
</a>
</g>
</g>
<!-- Node14 -->
<g id="Node000014" class="node">
<title>Node14</title>
<g id="a_Node000014"><a xlink:title=" ">
<polygon fill="#e0e0e0" stroke="#999999" points="610,-19 554,-19 554,0 610,0 610,-19"/>
<text text-anchor="middle" x="582" y="-7" font-family="Helvetica,sans-Serif" font-size="10.00">sstream</text>
</a>
</g>
</g>
<!-- Node12&#45;&gt;Node14 -->
<g id="edge17_Node000012_Node000014" class="edge">
<title>Node12&#45;&gt;Node14</title>
<g id="a_edge17_Node000012_Node000014"><a xlink:title=" ">
<path fill="none" stroke="#63b8ff" d="M551.31,-60.37C556.58,-51.81 564.79,-38.47 571.39,-27.74"/>
<polygon fill="#63b8ff" stroke="#63b8ff" points="574.41,-29.52 576.67,-19.17 568.44,-25.85 574.41,-29.52"/>
</a>
</g>
</g>
<!-- Node15 -->
<g id="Node000015" class="node">
<title>Node15</title>
<g id="a_Node000015"><a xlink:title=" ">
<polygon fill="#e0e0e0" stroke="#999999" points="683.5,-19 628.5,-19 628.5,0 683.5,0 683.5,-19"/>
<text text-anchor="middle" x="656" y="-7" font-family="Helvetica,sans-Serif" font-size="10.00">fstream</text>
</a>
</g>
</g>
<!-- Node12&#45;&gt;Node15 -->
<g id="edge18_Node000012_Node000015" class="edge">
<title>Node12&#45;&gt;Node15</title>
<g id="a_edge18_Node000012_Node000015"><a xlink:title=" ">
<path fill="none" stroke="#63b8ff" d="M562.23,-60.37C580.27,-50.78 609.62,-35.17 630.68,-23.97"/>
<polygon fill="#63b8ff" stroke="#63b8ff" points="632.52,-26.95 639.7,-19.17 629.23,-20.77 632.52,-26.95"/>
</a>
</g>
</g>
<!-- Node16 -->
<g id="Node000016" class="node">
<title>Node16</title>
<g id="a_Node000016"><a xlink:title=" ">
<polygon fill="#e0e0e0" stroke="#999999" points="464,-19 396,-19 396,0 464,0 464,-19"/>
<text text-anchor="middle" x="430" y="-7" font-family="Helvetica,sans-Serif" font-size="10.00">filesystem</text>
</a>
</g>
</g>
<!-- Node12&#45;&gt;Node16 -->
<g id="edge20_Node000012_Node000016" class="edge">
<title>Node12&#45;&gt;Node16</title>
<g id="a_edge20_Node000012_Node000016"><a xlink:title=" ">
<path fill="none" stroke="#63b8ff" d="M528.88,-60.37C509.78,-50.73 478.63,-35.03 456.4,-23.81"/>
<polygon fill="#63b8ff" stroke="#63b8ff" points="457.69,-20.55 447.19,-19.17 454.54,-26.8 457.69,-20.55"/>
</a>
</g>
</g>
</g>
</svg>
