<?xml version="1.0" encoding="UTF-8" standalone="no"?>
<!DOCTYPE svg PUBLIC "-//W3C//DTD SVG 1.1//EN"
 "http://www.w3.org/Graphics/SVG/1.1/DTD/svg11.dtd">
<!-- Generated by graphviz version 2.43.0 (0)
 -->
<!-- Title: include/elements/resize_2d.h Pages: 1 -->
<svg width="1333pt" height="379pt"
 viewBox="0.00 0.00 1333.00 379.00" xmlns="http://www.w3.org/2000/svg" xmlns:xlink="http://www.w3.org/1999/xlink">
<g id="graph0" class="graph" transform="scale(1 1) rotate(0) translate(4 375)">
<title>include/elements/resize_2d.h</title>
<!-- Node1 -->
<g id="Node000001" class="node">
<title>Node1</title>
<g id="a_Node000001"><a xlink:title=" ">
<polygon fill="#999999" stroke="#666666" points="1252.5,-371 1093.5,-371 1093.5,-352 1252.5,-352 1252.5,-371"/>
<text text-anchor="middle" x="1173" y="-359" font-family="Helvetica,sans-Serif" font-size="10.00">include/elements/resize_2d.h</text>
</a>
</g>
</g>
<!-- Node2 -->
<g id="Node000002" class="node">
<title>Node2</title>
<g id="a_Node000002"><a xlink:title=" ">
<polygon fill="#e0e0e0" stroke="#999999" points="1182.5,-200.5 1135.5,-200.5 1135.5,-181.5 1182.5,-181.5 1182.5,-200.5"/>
<text text-anchor="middle" x="1159" y="-188.5" font-family="Helvetica,sans-Serif" font-size="10.00">cmath</text>
</a>
</g>
</g>
<!-- Node1&#45;&gt;Node2 -->
<g id="edge1_Node000001_Node000002" class="edge">
<title>Node1&#45;&gt;Node2</title>
<g id="a_edge1_Node000001_Node000002"><a xlink:title=" ">
<path fill="none" stroke="#63b8ff" d="M1173.16,-351.86C1173.31,-339.63 1173.36,-316.58 1172,-297 1169.89,-266.7 1165.08,-231.73 1161.94,-210.77"/>
<polygon fill="#63b8ff" stroke="#63b8ff" points="1165.37,-210.04 1160.4,-200.68 1158.45,-211.1 1165.37,-210.04"/>
</a>
</g>
</g>
<!-- Node3 -->
<g id="Node000003" class="node">
<title>Node3</title>
<g id="a_Node000003"><a xlink:title=" ">
<polygon fill="#e0e0e0" stroke="#999999" points="1315,-19 1259,-19 1259,0 1315,0 1315,-19"/>
<text text-anchor="middle" x="1287" y="-7" font-family="Helvetica,sans-Serif" font-size="10.00">sstream</text>
</a>
</g>
</g>
<!-- Node1&#45;&gt;Node3 -->
<g id="edge2_Node000001_Node000003" class="edge">
<title>Node1&#45;&gt;Node3</title>
<g id="a_edge2_Node000001_Node000003"><a xlink:title=" ">
<path fill="none" stroke="#63b8ff" d="M1209.02,-351.92C1253.97,-338.82 1325,-309.15 1325,-252.5 1325,-252.5 1325,-252.5 1325,-129.5 1325,-92.07 1307.73,-51.03 1296.48,-28.25"/>
<polygon fill="#63b8ff" stroke="#63b8ff" points="1299.49,-26.46 1291.81,-19.15 1293.26,-29.65 1299.49,-26.46"/>
</a>
</g>
</g>
<!-- Node4 -->
<g id="Node000004" class="node">
<title>Node4</title>
<g id="a_Node000004"><a xlink:title=" ">
<polygon fill="#e0e0e0" stroke="#999999" points="1239,-79.5 1183,-79.5 1183,-60.5 1239,-60.5 1239,-79.5"/>
<text text-anchor="middle" x="1211" y="-67.5" font-family="Helvetica,sans-Serif" font-size="10.00">iomanip</text>
</a>
</g>
</g>
<!-- Node1&#45;&gt;Node4 -->
<g id="edge3_Node000001_Node000004" class="edge">
<title>Node1&#45;&gt;Node4</title>
<g id="a_edge3_Node000001_Node000004"><a xlink:title=" ">
<path fill="none" stroke="#63b8ff" d="M1184.88,-351.88C1206.25,-335.26 1249,-296.52 1249,-252.5 1249,-252.5 1249,-252.5 1249,-190 1249,-152.57 1231.73,-111.53 1220.48,-88.75"/>
<polygon fill="#63b8ff" stroke="#63b8ff" points="1223.49,-86.96 1215.81,-79.65 1217.26,-90.15 1223.49,-86.96"/>
</a>
</g>
</g>
<!-- Node5 -->
<g id="Node000005" class="node">
<title>Node5</title>
<g id="a_Node000005"><a xlink:href="math_8h.html" target="_top" xlink:title=" ">
<polygon fill="white" stroke="#666666" points="1070,-261 992,-261 992,-242 1070,-242 1070,-261"/>
<text text-anchor="middle" x="1031" y="-249" font-family="Helvetica,sans-Serif" font-size="10.00">tools/math.h</text>
</a>
</g>
</g>
<!-- Node1&#45;&gt;Node5 -->
<g id="edge4_Node000001_Node000005" class="edge">
<title>Node1&#45;&gt;Node5</title>
<g id="a_edge4_Node000001_Node000005"><a xlink:title=" ">
<path fill="none" stroke="#63b8ff" d="M1156.49,-351.88C1141.06,-343.53 1117.67,-330.08 1099,-316 1079.6,-301.36 1059.51,-281.99 1046.25,-268.51"/>
<polygon fill="#63b8ff" stroke="#63b8ff" points="1048.76,-266.08 1039.28,-261.34 1043.74,-270.95 1048.76,-266.08"/>
</a>
</g>
</g>
<!-- Node14 -->
<g id="Node000014" class="node">
<title>Node14</title>
<g id="a_Node000014"><a xlink:href="element_8h.html" target="_top" xlink:title=" ">
<polygon fill="white" stroke="#666666" points="507,-261 441,-261 441,-242 507,-242 507,-261"/>
<text text-anchor="middle" x="474" y="-249" font-family="Helvetica,sans-Serif" font-size="10.00">element.h</text>
</a>
</g>
</g>
<!-- Node1&#45;&gt;Node14 -->
<g id="edge14_Node000001_Node000014" class="edge">
<title>Node1&#45;&gt;Node14</title>
<g id="a_edge14_Node000001_Node000014"><a xlink:title=" ">
<path fill="none" stroke="#63b8ff" d="M1117.86,-351.98C983.01,-331.14 638.73,-277.95 517.24,-259.18"/>
<polygon fill="#63b8ff" stroke="#63b8ff" points="517.62,-255.7 507.2,-257.63 516.55,-262.62 517.62,-255.7"/>
</a>
</g>
</g>
<!-- Node31 -->
<g id="Node000031" class="node">
<title>Node31</title>
<g id="a_Node000031"><a xlink:href="resize_8h.html" target="_top" xlink:title=" ">
<polygon fill="white" stroke="#666666" points="1162.5,-316 1107.5,-316 1107.5,-297 1162.5,-297 1162.5,-316"/>
<text text-anchor="middle" x="1135" y="-304" font-family="Helvetica,sans-Serif" font-size="10.00">resize.h</text>
</a>
</g>
</g>
<!-- Node1&#45;&gt;Node31 -->
<g id="edge46_Node000001_Node000031" class="edge">
<title>Node1&#45;&gt;Node31</title>
<g id="a_edge46_Node000001_Node000031"><a xlink:title=" ">
<path fill="none" stroke="#63b8ff" d="M1166.73,-351.75C1161.41,-344.34 1153.64,-333.5 1147.12,-324.41"/>
<polygon fill="#63b8ff" stroke="#63b8ff" points="1149.83,-322.18 1141.16,-316.09 1144.14,-326.26 1149.83,-322.18"/>
</a>
</g>
</g>
<!-- Node5&#45;&gt;Node2 -->
<g id="edge7_Node000005_Node000002" class="edge">
<title>Node5&#45;&gt;Node2</title>
<g id="a_edge7_Node000005_Node000002"><a xlink:title=" ">
<path fill="none" stroke="#63b8ff" d="M1049.61,-241.99C1071.04,-232.2 1106.44,-216.02 1131.15,-204.73"/>
<polygon fill="#63b8ff" stroke="#63b8ff" points="1132.72,-207.86 1140.37,-200.52 1129.82,-201.49 1132.72,-207.86"/>
</a>
</g>
</g>
<!-- Node6 -->
<g id="Node000006" class="node">
<title>Node6</title>
<g id="a_Node000006"><a xlink:title=" ">
<polygon fill="#e0e0e0" stroke="#999999" points="622.5,-19 575.5,-19 575.5,0 622.5,0 622.5,-19"/>
<text text-anchor="middle" x="599" y="-7" font-family="Helvetica,sans-Serif" font-size="10.00">vector</text>
</a>
</g>
</g>
<!-- Node5&#45;&gt;Node6 -->
<g id="edge5_Node000005_Node000006" class="edge">
<title>Node5&#45;&gt;Node6</title>
<g id="a_edge5_Node000005_Node000006"><a xlink:title=" ">
<path fill="none" stroke="#63b8ff" d="M1031.19,-241.52C1031.03,-226.2 1028.54,-194.87 1012,-176 909.27,-58.8 711.94,-23.54 632.93,-13.86"/>
<polygon fill="#63b8ff" stroke="#63b8ff" points="632.93,-10.33 622.59,-12.65 632.12,-17.29 632.93,-10.33"/>
</a>
</g>
</g>
<!-- Node7 -->
<g id="Node000007" class="node">
<title>Node7</title>
<g id="a_Node000007"><a xlink:title=" ">
<polygon fill="#e0e0e0" stroke="#999999" points="1003,-200.5 961,-200.5 961,-181.5 1003,-181.5 1003,-200.5"/>
<text text-anchor="middle" x="982" y="-188.5" font-family="Helvetica,sans-Serif" font-size="10.00">array</text>
</a>
</g>
</g>
<!-- Node5&#45;&gt;Node7 -->
<g id="edge6_Node000005_Node000007" class="edge">
<title>Node5&#45;&gt;Node7</title>
<g id="a_edge6_Node000005_Node000007"><a xlink:title=" ">
<path fill="none" stroke="#63b8ff" d="M1023.77,-241.87C1016.46,-233.14 1004.98,-219.43 995.9,-208.59"/>
<polygon fill="#63b8ff" stroke="#63b8ff" points="998.36,-206.09 989.26,-200.67 993,-210.58 998.36,-206.09"/>
</a>
</g>
</g>
<!-- Node8 -->
<g id="Node000008" class="node">
<title>Node8</title>
<g id="a_Node000008"><a xlink:title=" ">
<polygon fill="#e0e0e0" stroke="#999999" points="744,-200.5 680,-200.5 680,-181.5 744,-181.5 744,-200.5"/>
<text text-anchor="middle" x="712" y="-188.5" font-family="Helvetica,sans-Serif" font-size="10.00">algorithm</text>
</a>
</g>
</g>
<!-- Node5&#45;&gt;Node8 -->
<g id="edge8_Node000005_Node000008" class="edge">
<title>Node5&#45;&gt;Node8</title>
<g id="a_edge8_Node000005_Node000008"><a xlink:title=" ">
<path fill="none" stroke="#63b8ff" d="M991.88,-243.33C931.52,-232.26 816.17,-211.1 754.07,-199.72"/>
<polygon fill="#63b8ff" stroke="#63b8ff" points="754.68,-196.27 744.21,-197.91 753.42,-203.15 754.68,-196.27"/>
</a>
</g>
</g>
<!-- Node9 -->
<g id="Node000009" class="node">
<title>Node9</title>
<g id="a_Node000009"><a xlink:title=" ">
<polygon fill="#e0e0e0" stroke="#999999" points="662,-200.5 606,-200.5 606,-181.5 662,-181.5 662,-200.5"/>
<text text-anchor="middle" x="634" y="-188.5" font-family="Helvetica,sans-Serif" font-size="10.00">numeric</text>
</a>
</g>
</g>
<!-- Node5&#45;&gt;Node9 -->
<g id="edge9_Node000005_Node000009" class="edge">
<title>Node5&#45;&gt;Node9</title>
<g id="a_edge9_Node000005_Node000009"><a xlink:title=" ">
<path fill="none" stroke="#63b8ff" d="M991.82,-248.72C925.09,-245.01 785.48,-234.3 671,-206 668.55,-205.39 666.04,-204.67 663.54,-203.88"/>
<polygon fill="#63b8ff" stroke="#63b8ff" points="664.67,-200.57 654.08,-200.59 662.37,-207.18 664.67,-200.57"/>
</a>
</g>
</g>
<!-- Node10 -->
<g id="Node000010" class="node">
<title>Node10</title>
<g id="a_Node000010"><a xlink:title=" ">
<polygon fill="#e0e0e0" stroke="#999999" points="865.5,-200.5 800.5,-200.5 800.5,-181.5 865.5,-181.5 865.5,-200.5"/>
<text text-anchor="middle" x="833" y="-188.5" font-family="Helvetica,sans-Serif" font-size="10.00">functional</text>
</a>
</g>
</g>
<!-- Node5&#45;&gt;Node10 -->
<g id="edge10_Node000005_Node000010" class="edge">
<title>Node5&#45;&gt;Node10</title>
<g id="a_edge10_Node000005_Node000010"><a xlink:title=" ">
<path fill="none" stroke="#63b8ff" d="M998.98,-241.96C967.15,-233.34 917,-219.42 874,-206 871.7,-205.28 869.33,-204.52 866.95,-203.75"/>
<polygon fill="#63b8ff" stroke="#63b8ff" points="867.81,-200.34 857.21,-200.5 865.59,-206.98 867.81,-200.34"/>
</a>
</g>
</g>
<!-- Node11 -->
<g id="Node000011" class="node">
<title>Node11</title>
<g id="a_Node000011"><a xlink:title=" ">
<polygon fill="#e0e0e0" stroke="#999999" points="779,-19 725,-19 725,0 779,0 779,-19"/>
<text text-anchor="middle" x="752" y="-7" font-family="Helvetica,sans-Serif" font-size="10.00">random</text>
</a>
</g>
</g>
<!-- Node5&#45;&gt;Node11 -->
<g id="edge11_Node000005_Node000011" class="edge">
<title>Node5&#45;&gt;Node11</title>
<g id="a_edge11_Node000005_Node000011"><a xlink:title=" ">
<path fill="none" stroke="#63b8ff" d="M1035.43,-241.76C1050.01,-211.6 1092.91,-110.74 1045,-55 1028.5,-35.81 864.3,-19.83 789.17,-13.46"/>
<polygon fill="#63b8ff" stroke="#63b8ff" points="789.45,-9.97 779.19,-12.63 788.86,-16.95 789.45,-9.97"/>
</a>
</g>
</g>
<!-- Node12 -->
<g id="Node000012" class="node">
<title>Node12</title>
<g id="a_Node000012"><a xlink:title=" ">
<polygon fill="#e0e0e0" stroke="#999999" points="942.5,-200.5 883.5,-200.5 883.5,-181.5 942.5,-181.5 942.5,-200.5"/>
<text text-anchor="middle" x="913" y="-188.5" font-family="Helvetica,sans-Serif" font-size="10.00">numbers</text>
</a>
</g>
</g>
<!-- Node5&#45;&gt;Node12 -->
<g id="edge12_Node000005_Node000012" class="edge">
<title>Node5&#45;&gt;Node12</title>
<g id="a_edge12_Node000005_Node000012"><a xlink:title=" ">
<path fill="none" stroke="#63b8ff" d="M1013.84,-241.99C994.27,-232.29 962.03,-216.31 939.28,-205.03"/>
<polygon fill="#63b8ff" stroke="#63b8ff" points="940.69,-201.82 930.18,-200.52 937.58,-208.09 940.69,-201.82"/>
</a>
</g>
</g>
<!-- Node13 -->
<g id="Node000013" class="node">
<title>Node13</title>
<g id="a_Node000013"><a xlink:title=" ">
<polygon fill="#e0e0e0" stroke="#999999" points="946.5,-19 891.5,-19 891.5,0 946.5,0 946.5,-19"/>
<text text-anchor="middle" x="919" y="-7" font-family="Helvetica,sans-Serif" font-size="10.00">fstream</text>
</a>
</g>
</g>
<!-- Node5&#45;&gt;Node13 -->
<g id="edge13_Node000005_Node000013" class="edge">
<title>Node5&#45;&gt;Node13</title>
<g id="a_edge13_Node000005_Node000013"><a xlink:title=" ">
<path fill="none" stroke="#63b8ff" d="M1047.03,-241.95C1059.41,-234.35 1075.65,-221.97 1083,-206 1111.07,-145.04 1123.77,-108.31 1083,-55 1067.74,-35.04 1000.17,-21.94 956.67,-15.41"/>
<polygon fill="#63b8ff" stroke="#63b8ff" points="957.11,-11.94 946.71,-13.96 956.1,-18.86 957.11,-11.94"/>
</a>
</g>
</g>
<!-- Node14&#45;&gt;Node6 -->
<g id="edge15_Node000014_Node000006" class="edge">
<title>Node14&#45;&gt;Node6</title>
<g id="a_edge15_Node000014_Node000006"><a xlink:title=" ">
<path fill="none" stroke="#63b8ff" d="M504.37,-241.96C522.92,-235.19 545.58,-223.83 559,-206 599.59,-152.07 601.56,-66.98 600.19,-29.41"/>
<polygon fill="#63b8ff" stroke="#63b8ff" points="603.68,-29.17 599.7,-19.36 596.69,-29.52 603.68,-29.17"/>
</a>
</g>
</g>
<!-- Node14&#45;&gt;Node8 -->
<g id="edge20_Node000014_Node000008" class="edge">
<title>Node14&#45;&gt;Node8</title>
<g id="a_edge20_Node000014_Node000008"><a xlink:title=" ">
<path fill="none" stroke="#63b8ff" d="M507.04,-244.16C546.39,-236.35 613.98,-222.13 671,-206 673.47,-205.3 676.01,-204.54 678.56,-203.75"/>
<polygon fill="#63b8ff" stroke="#63b8ff" points="679.86,-207 688.29,-200.58 677.69,-200.35 679.86,-207"/>
</a>
</g>
</g>
<!-- Node14&#45;&gt;Node9 -->
<g id="edge21_Node000014_Node000009" class="edge">
<title>Node14&#45;&gt;Node9</title>
<g id="a_edge21_Node000014_Node000009"><a xlink:title=" ">
<path fill="none" stroke="#63b8ff" d="M497.27,-241.99C524.64,-231.99 570.27,-215.3 601.22,-203.99"/>
<polygon fill="#63b8ff" stroke="#63b8ff" points="602.52,-207.24 610.71,-200.52 600.11,-200.66 602.52,-207.24"/>
</a>
</g>
</g>
<!-- Node15 -->
<g id="Node000015" class="node">
<title>Node15</title>
<g id="a_Node000015"><a xlink:title=" ">
<polygon fill="#e0e0e0" stroke="#999999" points="226,-19 182,-19 182,0 226,0 226,-19"/>
<text text-anchor="middle" x="204" y="-7" font-family="Helvetica,sans-Serif" font-size="10.00">string</text>
</a>
</g>
</g>
<!-- Node14&#45;&gt;Node15 -->
<g id="edge16_Node000014_Node000015" class="edge">
<title>Node14&#45;&gt;Node15</title>
<g id="a_edge16_Node000014_Node000015"><a xlink:title=" ">
<path fill="none" stroke="#63b8ff" d="M440.77,-250.59C371.62,-250 215.92,-244.34 183,-206 139.09,-154.87 175.4,-66.32 194.31,-28.48"/>
<polygon fill="#63b8ff" stroke="#63b8ff" points="197.61,-29.72 199.1,-19.23 191.4,-26.5 197.61,-29.72"/>
</a>
</g>
</g>
<!-- Node16 -->
<g id="Node000016" class="node">
<title>Node16</title>
<g id="a_Node000016"><a xlink:title=" ">
<polygon fill="#e0e0e0" stroke="#999999" points="473.5,-200.5 380.5,-200.5 380.5,-181.5 473.5,-181.5 473.5,-200.5"/>
<text text-anchor="middle" x="427" y="-188.5" font-family="Helvetica,sans-Serif" font-size="10.00">unordered_map</text>
</a>
</g>
</g>
<!-- Node14&#45;&gt;Node16 -->
<g id="edge17_Node000014_Node000016" class="edge">
<title>Node14&#45;&gt;Node16</title>
<g id="a_edge17_Node000014_Node000016"><a xlink:title=" ">
<path fill="none" stroke="#63b8ff" d="M467.06,-241.87C460.05,-233.14 449.04,-219.43 440.33,-208.59"/>
<polygon fill="#63b8ff" stroke="#63b8ff" points="442.96,-206.27 433.96,-200.67 437.5,-210.66 442.96,-206.27"/>
</a>
</g>
</g>
<!-- Node17 -->
<g id="Node000017" class="node">
<title>Node17</title>
<g id="a_Node000017"><a xlink:title=" ">
<polygon fill="#e0e0e0" stroke="#999999" points="550,-200.5 492,-200.5 492,-181.5 550,-181.5 550,-200.5"/>
<text text-anchor="middle" x="521" y="-188.5" font-family="Helvetica,sans-Serif" font-size="10.00">memory</text>
</a>
</g>
</g>
<!-- Node14&#45;&gt;Node17 -->
<g id="edge18_Node000014_Node000017" class="edge">
<title>Node14&#45;&gt;Node17</title>
<g id="a_edge18_Node000014_Node000017"><a xlink:title=" ">
<path fill="none" stroke="#63b8ff" d="M480.94,-241.87C487.95,-233.14 498.96,-219.43 507.67,-208.59"/>
<polygon fill="#63b8ff" stroke="#63b8ff" points="510.5,-210.66 514.04,-200.67 505.04,-206.27 510.5,-210.66"/>
</a>
</g>
</g>
<!-- Node18 -->
<g id="Node000018" class="node">
<title>Node18</title>
<g id="a_Node000018"><a xlink:title=" ">
<polygon fill="#e0e0e0" stroke="#999999" points="98,-200.5 48,-200.5 48,-181.5 98,-181.5 98,-200.5"/>
<text text-anchor="middle" x="73" y="-188.5" font-family="Helvetica,sans-Serif" font-size="10.00">ranges</text>
</a>
</g>
</g>
<!-- Node14&#45;&gt;Node18 -->
<g id="edge19_Node000014_Node000018" class="edge">
<title>Node14&#45;&gt;Node18</title>
<g id="a_edge19_Node000014_Node000018"><a xlink:title=" ">
<path fill="none" stroke="#63b8ff" d="M440.62,-248.88C376.27,-245.21 230.89,-234.27 112,-206 109.34,-205.37 106.6,-204.61 103.88,-203.79"/>
<polygon fill="#63b8ff" stroke="#63b8ff" points="104.79,-200.4 94.2,-200.57 102.59,-207.05 104.79,-200.4"/>
</a>
</g>
</g>
<!-- Node19 -->
<g id="Node000019" class="node">
<title>Node19</title>
<g id="a_Node000019"><a xlink:href="exception_8h.html" target="_top" xlink:title=" ">
<polygon fill="white" stroke="#666666" points="137,-79.5 7,-79.5 7,-60.5 137,-60.5 137,-79.5"/>
<text text-anchor="middle" x="72" y="-67.5" font-family="Helvetica,sans-Serif" font-size="10.00">exceptions/exception.h</text>
</a>
</g>
</g>
<!-- Node14&#45;&gt;Node19 -->
<g id="edge22_Node000014_Node000019" class="edge">
<title>Node14&#45;&gt;Node19</title>
<g id="a_edge22_Node000014_Node000019"><a xlink:title=" ">
<path fill="none" stroke="#63b8ff" d="M440.76,-249.58C367.94,-246.99 197.07,-237.63 150,-206 108.36,-178.02 86.13,-119.8 77.03,-89.79"/>
<polygon fill="#63b8ff" stroke="#63b8ff" points="80.29,-88.44 74.17,-79.79 73.56,-90.37 80.29,-88.44"/>
</a>
</g>
</g>
<!-- Node22 -->
<g id="Node000022" class="node">
<title>Node22</title>
<g id="a_Node000022"><a xlink:href="logger_8h.html" target="_top" xlink:title=" ">
<polygon fill="white" stroke="#666666" points="383.5,-140 300.5,-140 300.5,-121 383.5,-121 383.5,-140"/>
<text text-anchor="middle" x="342" y="-128" font-family="Helvetica,sans-Serif" font-size="10.00">tools/logger.h</text>
</a>
</g>
</g>
<!-- Node14&#45;&gt;Node22 -->
<g id="edge26_Node000014_Node000022" class="edge">
<title>Node14&#45;&gt;Node22</title>
<g id="a_edge26_Node000014_Node000022"><a xlink:title=" ">
<path fill="none" stroke="#63b8ff" d="M440.9,-243.33C418.54,-236.94 389.79,-225.49 371,-206 356.13,-190.57 348.65,-166.66 345.05,-150.11"/>
<polygon fill="#63b8ff" stroke="#63b8ff" points="348.44,-149.19 343.14,-140.02 341.56,-150.49 348.44,-149.19"/>
</a>
</g>
</g>
<!-- Node28 -->
<g id="Node000028" class="node">
<title>Node28</title>
<g id="a_Node000028"><a xlink:href="element__parameters_8h.html" target="_top" xlink:title=" ">
<polygon fill="white" stroke="#666666" points="323.5,-206 192.5,-206 192.5,-176 323.5,-176 323.5,-206"/>
<text text-anchor="start" x="200.5" y="-194" font-family="Helvetica,sans-Serif" font-size="10.00">element_parameters</text>
<text text-anchor="middle" x="258" y="-183" font-family="Helvetica,sans-Serif" font-size="10.00">/element_parameters.h</text>
</a>
</g>
</g>
<!-- Node14&#45;&gt;Node28 -->
<g id="edge41_Node000014_Node000028" class="edge">
<title>Node14&#45;&gt;Node28</title>
<g id="a_edge41_Node000014_Node000028"><a xlink:title=" ">
<path fill="none" stroke="#63b8ff" d="M442.59,-241.99C410.49,-233.3 359.78,-219.57 319.63,-208.69"/>
<polygon fill="#63b8ff" stroke="#63b8ff" points="320.5,-205.3 309.93,-206.06 318.67,-212.06 320.5,-205.3"/>
</a>
</g>
</g>
<!-- Node19&#45;&gt;Node15 -->
<g id="edge25_Node000019_Node000015" class="edge">
<title>Node19&#45;&gt;Node15</title>
<g id="a_edge25_Node000019_Node000015"><a xlink:title=" ">
<path fill="none" stroke="#63b8ff" d="M91.19,-60.49C113.39,-50.66 150.12,-34.38 175.62,-23.08"/>
<polygon fill="#63b8ff" stroke="#63b8ff" points="177.06,-26.27 184.78,-19.02 174.22,-19.87 177.06,-26.27"/>
</a>
</g>
</g>
<!-- Node20 -->
<g id="Node000020" class="node">
<title>Node20</title>
<g id="a_Node000020"><a xlink:title=" ">
<polygon fill="#e0e0e0" stroke="#999999" points="50,-19 0,-19 0,0 50,0 50,-19"/>
<text text-anchor="middle" x="25" y="-7" font-family="Helvetica,sans-Serif" font-size="10.00">cstdint</text>
</a>
</g>
</g>
<!-- Node19&#45;&gt;Node20 -->
<g id="edge23_Node000019_Node000020" class="edge">
<title>Node19&#45;&gt;Node20</title>
<g id="a_edge23_Node000019_Node000020"><a xlink:title=" ">
<path fill="none" stroke="#63b8ff" d="M65.06,-60.37C58.05,-51.64 47.04,-37.93 38.33,-27.09"/>
<polygon fill="#63b8ff" stroke="#63b8ff" points="40.96,-24.77 31.96,-19.17 35.5,-29.16 40.96,-24.77"/>
</a>
</g>
</g>
<!-- Node21 -->
<g id="Node000021" class="node">
<title>Node21</title>
<g id="a_Node000021"><a xlink:title=" ">
<polygon fill="#e0e0e0" stroke="#999999" points="133.5,-19 68.5,-19 68.5,0 133.5,0 133.5,-19"/>
<text text-anchor="middle" x="101" y="-7" font-family="Helvetica,sans-Serif" font-size="10.00">exception</text>
</a>
</g>
</g>
<!-- Node19&#45;&gt;Node21 -->
<g id="edge24_Node000019_Node000021" class="edge">
<title>Node19&#45;&gt;Node21</title>
<g id="a_edge24_Node000019_Node000021"><a xlink:title=" ">
<path fill="none" stroke="#63b8ff" d="M76.28,-60.37C80.43,-51.99 86.87,-39.01 92.13,-28.39"/>
<polygon fill="#63b8ff" stroke="#63b8ff" points="95.4,-29.68 96.7,-19.17 89.13,-26.57 95.4,-29.68"/>
</a>
</g>
</g>
<!-- Node22&#45;&gt;Node4 -->
<g id="edge30_Node000022_Node000004" class="edge">
<title>Node22&#45;&gt;Node4</title>
<g id="a_edge30_Node000022_Node000004"><a xlink:title=" ">
<path fill="none" stroke="#63b8ff" d="M383.62,-126.7C531.59,-116.74 1030.91,-83.12 1172.99,-73.56"/>
<polygon fill="#63b8ff" stroke="#63b8ff" points="1173.23,-77.05 1182.98,-72.89 1172.76,-70.07 1173.23,-77.05"/>
</a>
</g>
</g>
<!-- Node22&#45;&gt;Node15 -->
<g id="edge28_Node000022_Node000015" class="edge">
<title>Node22&#45;&gt;Node15</title>
<g id="a_edge28_Node000022_Node000015"><a xlink:title=" ">
<path fill="none" stroke="#63b8ff" d="M332.08,-120.94C309.01,-101.06 251.53,-51.49 222.06,-26.07"/>
<polygon fill="#63b8ff" stroke="#63b8ff" points="224.07,-23.18 214.21,-19.3 219.49,-28.48 224.07,-23.18"/>
</a>
</g>
</g>
<!-- Node22&#45;&gt;Node19 -->
<g id="edge32_Node000022_Node000019" class="edge">
<title>Node22&#45;&gt;Node19</title>
<g id="a_edge32_Node000022_Node000019"><a xlink:title=" ">
<path fill="none" stroke="#63b8ff" d="M302.74,-120.99C254.75,-110.6 173.5,-92.99 121.33,-81.69"/>
<polygon fill="#63b8ff" stroke="#63b8ff" points="121.82,-78.21 111.31,-79.52 120.34,-85.05 121.82,-78.21"/>
</a>
</g>
</g>
<!-- Node23 -->
<g id="Node000023" class="node">
<title>Node23</title>
<g id="a_Node000023"><a xlink:title=" ">
<polygon fill="#e0e0e0" stroke="#999999" points="368,-79.5 308,-79.5 308,-60.5 368,-60.5 368,-79.5"/>
<text text-anchor="middle" x="338" y="-67.5" font-family="Helvetica,sans-Serif" font-size="10.00">iostream</text>
</a>
</g>
</g>
<!-- Node22&#45;&gt;Node23 -->
<g id="edge27_Node000022_Node000023" class="edge">
<title>Node22&#45;&gt;Node23</title>
<g id="a_edge27_Node000022_Node000023"><a xlink:title=" ">
<path fill="none" stroke="#63b8ff" d="M341.41,-120.87C340.85,-112.75 340,-100.31 339.29,-89.89"/>
<polygon fill="#63b8ff" stroke="#63b8ff" points="342.77,-89.41 338.59,-79.67 335.78,-89.88 342.77,-89.41"/>
</a>
</g>
</g>
<!-- Node24 -->
<g id="Node000024" class="node">
<title>Node24</title>
<g id="a_Node000024"><a xlink:title=" ">
<polygon fill="#e0e0e0" stroke="#999999" points="394,-19 344,-19 344,0 394,0 394,-19"/>
<text text-anchor="middle" x="369" y="-7" font-family="Helvetica,sans-Serif" font-size="10.00">chrono</text>
</a>
</g>
</g>
<!-- Node22&#45;&gt;Node24 -->
<g id="edge29_Node000022_Node000024" class="edge">
<title>Node22&#45;&gt;Node24</title>
<g id="a_edge29_Node000022_Node000024"><a xlink:title=" ">
<path fill="none" stroke="#63b8ff" d="M329.51,-120.93C319.13,-112.99 305.12,-100.14 299,-85 294,-72.64 292.58,-66.69 299,-55 306.77,-40.85 321.17,-30.56 334.89,-23.46"/>
<polygon fill="#63b8ff" stroke="#63b8ff" points="336.66,-26.49 344.19,-19.05 333.66,-20.17 336.66,-26.49"/>
</a>
</g>
</g>
<!-- Node25 -->
<g id="Node000025" class="node">
<title>Node25</title>
<g id="a_Node000025"><a xlink:title=" ">
<polygon fill="#e0e0e0" stroke="#999999" points="493.5,-85 386.5,-85 386.5,-55 493.5,-55 493.5,-85"/>
<text text-anchor="start" x="394.5" y="-73" font-family="Helvetica,sans-Serif" font-size="10.00">imgui&#45;platform&#45;kit</text>
<text text-anchor="middle" x="440" y="-62" font-family="Helvetica,sans-Serif" font-size="10.00">/log_window.h</text>
</a>
</g>
</g>
<!-- Node22&#45;&gt;Node25 -->
<g id="edge31_Node000022_Node000025" class="edge">
<title>Node22&#45;&gt;Node25</title>
<g id="a_edge31_Node000022_Node000025"><a xlink:title=" ">
<path fill="none" stroke="#63b8ff" d="M356.46,-120.87C369.88,-112.86 390.33,-100.65 407.64,-90.31"/>
<polygon fill="#63b8ff" stroke="#63b8ff" points="409.56,-93.25 416.36,-85.11 405.97,-87.23 409.56,-93.25"/>
</a>
</g>
</g>
<!-- Node26 -->
<g id="Node000026" class="node">
<title>Node26</title>
<g id="a_Node000026"><a xlink:href="utils_8h.html" target="_top" xlink:title=" ">
<polygon fill="white" stroke="#666666" points="558.5,-79.5 511.5,-79.5 511.5,-60.5 558.5,-60.5 558.5,-79.5"/>
<text text-anchor="middle" x="535" y="-67.5" font-family="Helvetica,sans-Serif" font-size="10.00">utils.h</text>
</a>
</g>
</g>
<!-- Node22&#45;&gt;Node26 -->
<g id="edge33_Node000022_Node000026" class="edge">
<title>Node22&#45;&gt;Node26</title>
<g id="a_edge33_Node000022_Node000026"><a xlink:title=" ">
<path fill="none" stroke="#63b8ff" d="M377.68,-120.99C410.38,-112.86 459.95,-99.7 502,-85 503.43,-84.5 504.89,-83.97 506.36,-83.41"/>
<polygon fill="#63b8ff" stroke="#63b8ff" points="507.98,-86.53 515.97,-79.57 505.39,-80.03 507.98,-86.53"/>
</a>
</g>
</g>
<!-- Node26&#45;&gt;Node3 -->
<g id="edge37_Node000026_Node000003" class="edge">
<title>Node26&#45;&gt;Node3</title>
<g id="a_edge37_Node000026_Node000003"><a xlink:title=" ">
<path fill="none" stroke="#63b8ff" d="M558.75,-67.15C667.04,-58.73 1114.52,-23.92 1248.76,-13.47"/>
<polygon fill="#63b8ff" stroke="#63b8ff" points="1249.27,-16.95 1258.96,-12.68 1248.72,-9.97 1249.27,-16.95"/>
</a>
</g>
</g>
<!-- Node26&#45;&gt;Node6 -->
<g id="edge35_Node000026_Node000006" class="edge">
<title>Node26&#45;&gt;Node6</title>
<g id="a_edge35_Node000026_Node000006"><a xlink:title=" ">
<path fill="none" stroke="#63b8ff" d="M544.44,-60.37C554.27,-51.38 569.89,-37.11 581.89,-26.14"/>
<polygon fill="#63b8ff" stroke="#63b8ff" points="584.5,-28.5 589.52,-19.17 579.78,-23.33 584.5,-28.5"/>
</a>
</g>
</g>
<!-- Node26&#45;&gt;Node11 -->
<g id="edge36_Node000026_Node000011" class="edge">
<title>Node26&#45;&gt;Node11</title>
<g id="a_edge36_Node000026_Node000011"><a xlink:title=" ">
<path fill="none" stroke="#63b8ff" d="M558.64,-62.63C596.24,-52.49 670,-32.61 714.76,-20.54"/>
<polygon fill="#63b8ff" stroke="#63b8ff" points="715.92,-23.85 724.66,-17.87 714.09,-17.09 715.92,-23.85"/>
</a>
</g>
</g>
<!-- Node26&#45;&gt;Node13 -->
<g id="edge38_Node000026_Node000013" class="edge">
<title>Node26&#45;&gt;Node13</title>
<g id="a_edge38_Node000026_Node000013"><a xlink:title=" ">
<path fill="none" stroke="#63b8ff" d="M558.73,-65.38C623.36,-55.54 802.91,-28.19 881.43,-16.22"/>
<polygon fill="#63b8ff" stroke="#63b8ff" points="882.02,-19.67 891.37,-14.71 880.96,-12.75 882.02,-19.67"/>
</a>
</g>
</g>
<!-- Node26&#45;&gt;Node15 -->
<g id="edge34_Node000026_Node000015" class="edge">
<title>Node26&#45;&gt;Node15</title>
<g id="a_edge34_Node000026_Node000015"><a xlink:title=" ">
<path fill="none" stroke="#63b8ff" d="M517.14,-60.45C512.31,-58.41 507.03,-56.42 502,-55 407.6,-28.39 291.62,-16.89 236.31,-12.64"/>
<polygon fill="#63b8ff" stroke="#63b8ff" points="236.32,-9.13 226.09,-11.88 235.8,-16.11 236.32,-9.13"/>
</a>
</g>
</g>
<!-- Node26&#45;&gt;Node24 -->
<g id="edge39_Node000026_Node000024" class="edge">
<title>Node26&#45;&gt;Node24</title>
<g id="a_edge39_Node000026_Node000024"><a xlink:title=" ">
<path fill="none" stroke="#63b8ff" d="M515.56,-60.45C511.13,-58.59 506.42,-56.68 502,-55 469.09,-42.54 430.95,-29.96 403.97,-21.37"/>
<polygon fill="#63b8ff" stroke="#63b8ff" points="404.8,-17.97 394.21,-18.29 402.69,-24.64 404.8,-17.97"/>
</a>
</g>
</g>
<!-- Node27 -->
<g id="Node000027" class="node">
<title>Node27</title>
<g id="a_Node000027"><a xlink:title=" ">
<polygon fill="#e0e0e0" stroke="#999999" points="557,-19 489,-19 489,0 557,0 557,-19"/>
<text text-anchor="middle" x="523" y="-7" font-family="Helvetica,sans-Serif" font-size="10.00">filesystem</text>
</a>
</g>
</g>
<!-- Node26&#45;&gt;Node27 -->
<g id="edge40_Node000026_Node000027" class="edge">
<title>Node26&#45;&gt;Node27</title>
<g id="a_edge40_Node000026_Node000027"><a xlink:title=" ">
<path fill="none" stroke="#63b8ff" d="M533.23,-60.37C531.55,-52.16 528.96,-39.54 526.81,-29.05"/>
<polygon fill="#63b8ff" stroke="#63b8ff" points="530.22,-28.26 524.78,-19.17 523.36,-29.67 530.22,-28.26"/>
</a>
</g>
</g>
<!-- Node28&#45;&gt;Node15 -->
<g id="edge43_Node000028_Node000015" class="edge">
<title>Node28&#45;&gt;Node15</title>
<g id="a_edge43_Node000028_Node000015"><a xlink:title=" ">
<path fill="none" stroke="#63b8ff" d="M245.3,-175.75C237.59,-166.28 228.24,-153.2 223,-140 208.16,-102.64 204.75,-55.07 204.07,-29.25"/>
<polygon fill="#63b8ff" stroke="#63b8ff" points="207.57,-28.97 203.91,-19.03 200.57,-29.08 207.57,-28.97"/>
</a>
</g>
</g>
<!-- Node28&#45;&gt;Node22 -->
<g id="edge45_Node000028_Node000022" class="edge">
<title>Node28&#45;&gt;Node22</title>
<g id="a_edge45_Node000028_Node000022"><a xlink:title=" ">
<path fill="none" stroke="#63b8ff" d="M278.33,-175.84C291.27,-166.83 307.99,-155.18 321.05,-146.09"/>
<polygon fill="#63b8ff" stroke="#63b8ff" points="323.21,-148.85 329.41,-140.27 319.21,-143.11 323.21,-148.85"/>
</a>
</g>
</g>
<!-- Node29 -->
<g id="Node000029" class="node">
<title>Node29</title>
<g id="a_Node000029"><a xlink:title=" ">
<polygon fill="#e0e0e0" stroke="#999999" points="718,-140 680,-140 680,-121 718,-121 718,-140"/>
<text text-anchor="middle" x="699" y="-128" font-family="Helvetica,sans-Serif" font-size="10.00">map</text>
</a>
</g>
</g>
<!-- Node28&#45;&gt;Node29 -->
<g id="edge42_Node000028_Node000029" class="edge">
<title>Node28&#45;&gt;Node29</title>
<g id="a_edge42_Node000028_Node000029"><a xlink:title=" ">
<path fill="none" stroke="#63b8ff" d="M323.55,-181.31C420.8,-168.4 599.36,-144.72 669.56,-135.41"/>
<polygon fill="#63b8ff" stroke="#63b8ff" points="670.41,-138.82 679.86,-134.04 669.49,-131.88 670.41,-138.82"/>
</a>
</g>
</g>
<!-- Node30 -->
<g id="Node000030" class="node">
<title>Node30</title>
<g id="a_Node000030"><a xlink:title=" ">
<polygon fill="#e0e0e0" stroke="#999999" points="282,-140 232,-140 232,-121 282,-121 282,-140"/>
<text text-anchor="middle" x="257" y="-128" font-family="Helvetica,sans-Serif" font-size="10.00">format</text>
</a>
</g>
</g>
<!-- Node28&#45;&gt;Node30 -->
<g id="edge44_Node000028_Node000030" class="edge">
<title>Node28&#45;&gt;Node30</title>
<g id="a_edge44_Node000028_Node000030"><a xlink:title=" ">
<path fill="none" stroke="#63b8ff" d="M257.76,-175.84C257.63,-168.21 257.47,-158.7 257.32,-150.45"/>
<polygon fill="#63b8ff" stroke="#63b8ff" points="260.82,-150.2 257.15,-140.27 253.82,-150.32 260.82,-150.2"/>
</a>
</g>
</g>
<!-- Node31&#45;&gt;Node2 -->
<g id="edge47_Node000031_Node000002" class="edge">
<title>Node31&#45;&gt;Node2</title>
<g id="a_edge47_Node000031_Node000002"><a xlink:title=" ">
<path fill="none" stroke="#63b8ff" d="M1136.8,-296.97C1140.66,-278.73 1149.79,-235.57 1155.06,-210.64"/>
<polygon fill="#63b8ff" stroke="#63b8ff" points="1158.53,-211.14 1157.18,-200.63 1151.68,-209.69 1158.53,-211.14"/>
</a>
</g>
</g>
<!-- Node31&#45;&gt;Node3 -->
<g id="edge49_Node000031_Node000003" class="edge">
<title>Node31&#45;&gt;Node3</title>
<g id="a_edge49_Node000031_Node000003"><a xlink:title=" ">
<path fill="none" stroke="#63b8ff" d="M1162.53,-298.53C1206.33,-285.59 1287,-253.42 1287,-192 1287,-192 1287,-192 1287,-129.5 1287,-94.15 1287,-52.9 1287,-29.42"/>
<polygon fill="#63b8ff" stroke="#63b8ff" points="1290.5,-29.16 1287,-19.16 1283.5,-29.16 1290.5,-29.16"/>
</a>
</g>
</g>
<!-- Node31&#45;&gt;Node4 -->
<g id="edge50_Node000031_Node000004" class="edge">
<title>Node31&#45;&gt;Node4</title>
<g id="a_edge50_Node000031_Node000004"><a xlink:title=" ">
<path fill="none" stroke="#63b8ff" d="M1141.39,-296.99C1153.47,-280.44 1179.55,-242.35 1192,-206 1205.63,-166.21 1209.49,-116.61 1210.58,-89.99"/>
<polygon fill="#63b8ff" stroke="#63b8ff" points="1214.08,-89.9 1210.9,-79.79 1207.09,-89.68 1214.08,-89.9"/>
</a>
</g>
</g>
<!-- Node31&#45;&gt;Node5 -->
<g id="edge51_Node000031_Node000005" class="edge">
<title>Node31&#45;&gt;Node5</title>
<g id="a_edge51_Node000031_Node000005"><a xlink:title=" ">
<path fill="none" stroke="#63b8ff" d="M1118.29,-296.98C1101.79,-288.57 1076.3,-275.59 1057.12,-265.81"/>
<polygon fill="#63b8ff" stroke="#63b8ff" points="1058.51,-262.59 1048.01,-261.17 1055.33,-268.83 1058.51,-262.59"/>
</a>
</g>
</g>
<!-- Node31&#45;&gt;Node14 -->
<g id="edge52_Node000031_Node000014" class="edge">
<title>Node31&#45;&gt;Node14</title>
<g id="a_edge52_Node000031_Node000014"><a xlink:title=" ">
<path fill="none" stroke="#63b8ff" d="M1107.44,-303.29C1004.54,-295.04 642.32,-266 517.03,-255.95"/>
<polygon fill="#63b8ff" stroke="#63b8ff" points="517.28,-252.46 507.03,-255.15 516.72,-259.44 517.28,-252.46"/>
</a>
</g>
</g>
<!-- Node31&#45;&gt;Node29 -->
<g id="edge48_Node000031_Node000029" class="edge">
<title>Node31&#45;&gt;Node29</title>
<g id="a_edge48_Node000031_Node000029"><a xlink:title=" ">
<path fill="none" stroke="#63b8ff" d="M1107.29,-301.34C1046.97,-291.48 900.4,-263.11 791,-206 786.89,-203.85 742.8,-167.66 717.18,-146.53"/>
<polygon fill="#63b8ff" stroke="#63b8ff" points="719.22,-143.68 709.28,-140.01 714.76,-149.07 719.22,-143.68"/>
</a>
</g>
</g>
</g>
</svg>
