<?xml version="1.0" encoding="UTF-8" standalone="no"?>
<!DOCTYPE svg PUBLIC "-//W3C//DTD SVG 1.1//EN"
 "http://www.w3.org/Graphics/SVG/1.1/DTD/svg11.dtd">
<!-- Generated by graphviz version 2.43.0 (0)
 -->
<!-- Title: include/simulation/simulation.h Pages: 1 -->
<svg width="925pt" height="335pt"
 viewBox="0.00 0.00 925.06 335.00" xmlns="http://www.w3.org/2000/svg" xmlns:xlink="http://www.w3.org/1999/xlink">
<g id="graph0" class="graph" transform="scale(1 1) rotate(0) translate(4 331)">
<title>include/simulation/simulation.h</title>
<!-- Node1 -->
<g id="Node000001" class="node">
<title>Node1</title>
<g id="a_Node000001"><a xlink:title=" ">
<polygon fill="#999999" stroke="#666666" points="411.56,-327 304.56,-327 304.56,-297 411.56,-297 411.56,-327"/>
<text text-anchor="start" x="312.56" y="-315" font-family="Helvetica,sans-Serif" font-size="10.00">include/simulation</text>
<text text-anchor="middle" x="358.06" y="-304" font-family="Helvetica,sans-Serif" font-size="10.00">/simulation.h</text>
</a>
</g>
</g>
<!-- Node2 -->
<g id="Node000002" class="node">
<title>Node2</title>
<g id="a_Node000002"><a xlink:title=" ">
<polygon fill="#e0e0e0" stroke="#999999" points="47.56,-19 0.56,-19 0.56,0 47.56,0 47.56,-19"/>
<text text-anchor="middle" x="24.06" y="-7" font-family="Helvetica,sans-Serif" font-size="10.00">vector</text>
</a>
</g>
</g>
<!-- Node1&#45;&gt;Node2 -->
<g id="edge1_Node000001_Node000002" class="edge">
<title>Node1&#45;&gt;Node2</title>
<g id="a_edge1_Node000001_Node000002"><a xlink:title=" ">
<path fill="none" stroke="#63b8ff" d="M304.55,-308.34C257.46,-303.89 188.59,-292.1 137.06,-261 52.74,-210.1 30.93,-78.38 25.65,-29.3"/>
<polygon fill="#63b8ff" stroke="#63b8ff" points="29.11,-28.79 24.67,-19.17 22.15,-29.46 29.11,-28.79"/>
</a>
</g>
</g>
<!-- Node3 -->
<g id="Node000003" class="node">
<title>Node3</title>
<g id="a_Node000003"><a xlink:title=" ">
<polygon fill="#e0e0e0" stroke="#999999" points="175.06,-200.5 117.06,-200.5 117.06,-181.5 175.06,-181.5 175.06,-200.5"/>
<text text-anchor="middle" x="146.06" y="-188.5" font-family="Helvetica,sans-Serif" font-size="10.00">memory</text>
</a>
</g>
</g>
<!-- Node1&#45;&gt;Node3 -->
<g id="edge2_Node000001_Node000003" class="edge">
<title>Node1&#45;&gt;Node3</title>
<g id="a_edge2_Node000001_Node000003"><a xlink:title=" ">
<path fill="none" stroke="#63b8ff" d="M332.91,-296.88C291.79,-273.8 210.69,-228.28 170.22,-205.56"/>
<polygon fill="#63b8ff" stroke="#63b8ff" points="171.75,-202.4 161.31,-200.56 168.32,-208.51 171.75,-202.4"/>
</a>
</g>
</g>
<!-- Node4 -->
<g id="Node000004" class="node">
<title>Node4</title>
<g id="a_Node000004"><a xlink:title=" ">
<polygon fill="#e0e0e0" stroke="#999999" points="593.06,-19 549.06,-19 549.06,0 593.06,0 593.06,-19"/>
<text text-anchor="middle" x="571.06" y="-7" font-family="Helvetica,sans-Serif" font-size="10.00">string</text>
</a>
</g>
</g>
<!-- Node1&#45;&gt;Node4 -->
<g id="edge3_Node000001_Node000004" class="edge">
<title>Node1&#45;&gt;Node4</title>
<g id="a_edge3_Node000001_Node000004"><a xlink:title=" ">
<path fill="none" stroke="#63b8ff" d="M411.66,-310.88C551.57,-309.12 917.06,-294.7 917.06,-192 917.06,-192 917.06,-192 917.06,-129.5 917.06,-54.67 836.58,-80.05 766.06,-55 710.31,-35.19 642.4,-22.04 603.2,-15.46"/>
<polygon fill="#63b8ff" stroke="#63b8ff" points="603.61,-11.98 593.18,-13.81 602.48,-18.89 603.61,-11.98"/>
</a>
</g>
</g>
<!-- Node5 -->
<g id="Node000005" class="node">
<title>Node5</title>
<g id="a_Node000005"><a xlink:title=" ">
<polygon fill="#e0e0e0" stroke="#999999" points="264.06,-19 196.06,-19 196.06,0 264.06,0 264.06,-19"/>
<text text-anchor="middle" x="230.06" y="-7" font-family="Helvetica,sans-Serif" font-size="10.00">filesystem</text>
</a>
</g>
</g>
<!-- Node1&#45;&gt;Node5 -->
<g id="edge4_Node000001_Node000005" class="edge">
<title>Node1&#45;&gt;Node5</title>
<g id="a_edge4_Node000001_Node000005"><a xlink:title=" ">
<path fill="none" stroke="#63b8ff" d="M304.37,-305.6C244.8,-296.41 151.37,-271.75 108.06,-206 85.15,-171.22 74.74,-128.28 133.06,-55 146.33,-38.33 167.24,-27.66 186.25,-20.96"/>
<polygon fill="#63b8ff" stroke="#63b8ff" points="187.54,-24.22 195.98,-17.81 185.38,-17.57 187.54,-24.22"/>
</a>
</g>
</g>
<!-- Node6 -->
<g id="Node000006" class="node">
<title>Node6</title>
<g id="a_Node000006"><a xlink:title=" ">
<polygon fill="#e0e0e0" stroke="#999999" points="116.06,-19 66.06,-19 66.06,0 116.06,0 116.06,-19"/>
<text text-anchor="middle" x="91.06" y="-7" font-family="Helvetica,sans-Serif" font-size="10.00">chrono</text>
</a>
</g>
</g>
<!-- Node1&#45;&gt;Node6 -->
<g id="edge5_Node000001_Node000006" class="edge">
<title>Node1&#45;&gt;Node6</title>
<g id="a_edge5_Node000001_Node000006"><a xlink:title=" ">
<path fill="none" stroke="#63b8ff" d="M304.54,-309.57C221.22,-306.29 65.75,-295.57 24.06,-261 -0.93,-240.27 0.06,-224.47 0.06,-192 0.06,-192 0.06,-192 0.06,-129.5 0.06,-84.17 42.25,-45.4 69.17,-25.27"/>
<polygon fill="#63b8ff" stroke="#63b8ff" points="71.56,-27.86 77.63,-19.18 67.47,-22.18 71.56,-27.86"/>
</a>
</g>
</g>
<!-- Node7 -->
<g id="Node000007" class="node">
<title>Node7</title>
<g id="a_Node000007"><a xlink:href="element_8h.html" target="_top" xlink:title=" ">
<polygon fill="white" stroke="#666666" points="486.56,-261 371.56,-261 371.56,-242 486.56,-242 486.56,-261"/>
<text text-anchor="middle" x="429.06" y="-249" font-family="Helvetica,sans-Serif" font-size="10.00">elements/element.h</text>
</a>
</g>
</g>
<!-- Node1&#45;&gt;Node7 -->
<g id="edge6_Node000001_Node000007" class="edge">
<title>Node1&#45;&gt;Node7</title>
<g id="a_edge6_Node000001_Node000007"><a xlink:title=" ">
<path fill="none" stroke="#63b8ff" d="M375.25,-296.84C385.87,-288.09 399.5,-276.85 410.39,-267.88"/>
<polygon fill="#63b8ff" stroke="#63b8ff" points="412.93,-270.33 418.42,-261.27 408.48,-264.92 412.93,-270.33"/>
</a>
</g>
</g>
<!-- Node12 -->
<g id="Node000012" class="node">
<title>Node12</title>
<g id="a_Node000012"><a xlink:href="exception_8h.html" target="_top" xlink:title=" ">
<polygon fill="white" stroke="#666666" points="757.06,-79.5 627.06,-79.5 627.06,-60.5 757.06,-60.5 757.06,-79.5"/>
<text text-anchor="middle" x="692.06" y="-67.5" font-family="Helvetica,sans-Serif" font-size="10.00">exceptions/exception.h</text>
</a>
</g>
</g>
<!-- Node1&#45;&gt;Node12 -->
<g id="edge38_Node000001_Node000012" class="edge">
<title>Node1&#45;&gt;Node12</title>
<g id="a_edge38_Node000001_Node000012"><a xlink:title=" ">
<path fill="none" stroke="#63b8ff" d="M411.7,-310.18C482.65,-307.6 610.68,-297.71 713.06,-261 757.19,-245.18 780.13,-246.89 803.06,-206 822.1,-172.06 807.55,-150.4 782.06,-121 767.31,-103.98 745.27,-91.6 726.69,-83.41"/>
<polygon fill="#63b8ff" stroke="#63b8ff" points="727.93,-80.14 717.35,-79.52 725.23,-86.6 727.93,-80.14"/>
</a>
</g>
</g>
<!-- Node19 -->
<g id="Node000019" class="node">
<title>Node19</title>
<g id="a_Node000019"><a xlink:href="utils_8h.html" target="_top" xlink:title=" ">
<polygon fill="white" stroke="#666666" points="466.56,-79.5 419.56,-79.5 419.56,-60.5 466.56,-60.5 466.56,-79.5"/>
<text text-anchor="middle" x="443.06" y="-67.5" font-family="Helvetica,sans-Serif" font-size="10.00">utils.h</text>
</a>
</g>
</g>
<!-- Node1&#45;&gt;Node19 -->
<g id="edge39_Node000001_Node000019" class="edge">
<title>Node1&#45;&gt;Node19</title>
<g id="a_edge39_Node000001_Node000019"><a xlink:title=" ">
<path fill="none" stroke="#63b8ff" d="M411.7,-305.87C515.63,-294.71 738.32,-264.39 784.06,-206 867.4,-99.62 578.17,-76.84 476.85,-72.16"/>
<polygon fill="#63b8ff" stroke="#63b8ff" points="476.97,-68.66 466.83,-71.73 476.67,-75.66 476.97,-68.66"/>
</a>
</g>
</g>
<!-- Node7&#45;&gt;Node2 -->
<g id="edge7_Node000007_Node000002" class="edge">
<title>Node7&#45;&gt;Node2</title>
<g id="a_edge7_Node000007_Node000002"><a xlink:title=" ">
<path fill="none" stroke="#63b8ff" d="M371.36,-243.62C334.05,-237.48 285.3,-226.21 246.06,-206 154.34,-158.76 69.86,-65.27 37.74,-27.21"/>
<polygon fill="#63b8ff" stroke="#63b8ff" points="40.14,-24.62 31.05,-19.18 34.76,-29.1 40.14,-24.62"/>
</a>
</g>
</g>
<!-- Node7&#45;&gt;Node3 -->
<g id="edge10_Node000007_Node000003" class="edge">
<title>Node7&#45;&gt;Node3</title>
<g id="a_edge10_Node000007_Node000003"><a xlink:title=" ">
<path fill="none" stroke="#63b8ff" d="M371.38,-241.99C322.48,-234.25 250.67,-221.67 189.06,-206 186.11,-205.25 183.07,-204.41 180.03,-203.51"/>
<polygon fill="#63b8ff" stroke="#63b8ff" points="181.05,-200.16 170.46,-200.56 178.98,-206.85 181.05,-200.16"/>
</a>
</g>
</g>
<!-- Node7&#45;&gt;Node4 -->
<g id="edge8_Node000007_Node000004" class="edge">
<title>Node7&#45;&gt;Node4</title>
<g id="a_edge8_Node000007_Node000004"><a xlink:title=" ">
<path fill="none" stroke="#63b8ff" d="M429.98,-241.7C431.79,-227.18 436.78,-197.67 449.06,-176 476.8,-127.05 505.37,-131.49 537.06,-85 549.17,-67.25 558.83,-44.49 564.71,-28.83"/>
<polygon fill="#63b8ff" stroke="#63b8ff" points="568.06,-29.86 568.17,-19.26 561.48,-27.48 568.06,-29.86"/>
</a>
</g>
</g>
<!-- Node8 -->
<g id="Node000008" class="node">
<title>Node8</title>
<g id="a_Node000008"><a xlink:title=" ">
<polygon fill="#e0e0e0" stroke="#999999" points="550.56,-200.5 457.56,-200.5 457.56,-181.5 550.56,-181.5 550.56,-200.5"/>
<text text-anchor="middle" x="504.06" y="-188.5" font-family="Helvetica,sans-Serif" font-size="10.00">unordered_map</text>
</a>
</g>
</g>
<!-- Node7&#45;&gt;Node8 -->
<g id="edge9_Node000007_Node000008" class="edge">
<title>Node7&#45;&gt;Node8</title>
<g id="a_edge9_Node000007_Node000008"><a xlink:title=" ">
<path fill="none" stroke="#63b8ff" d="M440.13,-241.87C451.87,-232.71 470.65,-218.06 484.82,-207.01"/>
<polygon fill="#63b8ff" stroke="#63b8ff" points="487.22,-209.58 492.95,-200.67 482.91,-204.06 487.22,-209.58"/>
</a>
</g>
</g>
<!-- Node9 -->
<g id="Node000009" class="node">
<title>Node9</title>
<g id="a_Node000009"><a xlink:title=" ">
<polygon fill="#e0e0e0" stroke="#999999" points="619.06,-200.5 569.06,-200.5 569.06,-181.5 619.06,-181.5 619.06,-200.5"/>
<text text-anchor="middle" x="594.06" y="-188.5" font-family="Helvetica,sans-Serif" font-size="10.00">ranges</text>
</a>
</g>
</g>
<!-- Node7&#45;&gt;Node9 -->
<g id="edge11_Node000007_Node000009" class="edge">
<title>Node7&#45;&gt;Node9</title>
<g id="a_edge11_Node000007_Node000009"><a xlink:title=" ">
<path fill="none" stroke="#63b8ff" d="M455.59,-241.86C481.96,-233.16 523.5,-219.19 559.06,-206 560.48,-205.47 561.93,-204.93 563.39,-204.37"/>
<polygon fill="#63b8ff" stroke="#63b8ff" points="564.98,-207.51 573.03,-200.61 562.44,-200.98 564.98,-207.51"/>
</a>
</g>
</g>
<!-- Node10 -->
<g id="Node000010" class="node">
<title>Node10</title>
<g id="a_Node000010"><a xlink:title=" ">
<polygon fill="#e0e0e0" stroke="#999999" points="701.06,-200.5 637.06,-200.5 637.06,-181.5 701.06,-181.5 701.06,-200.5"/>
<text text-anchor="middle" x="669.06" y="-188.5" font-family="Helvetica,sans-Serif" font-size="10.00">algorithm</text>
</a>
</g>
</g>
<!-- Node7&#45;&gt;Node10 -->
<g id="edge12_Node000007_Node000010" class="edge">
<title>Node7&#45;&gt;Node10</title>
<g id="a_edge12_Node000007_Node000010"><a xlink:title=" ">
<path fill="none" stroke="#63b8ff" d="M473.67,-241.97C514.23,-233.88 575.58,-220.78 628.06,-206 630.53,-205.3 633.07,-204.55 635.62,-203.75"/>
<polygon fill="#63b8ff" stroke="#63b8ff" points="636.93,-207.01 645.35,-200.59 634.76,-200.35 636.93,-207.01"/>
</a>
</g>
</g>
<!-- Node11 -->
<g id="Node000011" class="node">
<title>Node11</title>
<g id="a_Node000011"><a xlink:title=" ">
<polygon fill="#e0e0e0" stroke="#999999" points="775.06,-200.5 719.06,-200.5 719.06,-181.5 775.06,-181.5 775.06,-200.5"/>
<text text-anchor="middle" x="747.06" y="-188.5" font-family="Helvetica,sans-Serif" font-size="10.00">numeric</text>
</a>
</g>
</g>
<!-- Node7&#45;&gt;Node11 -->
<g id="edge13_Node000007_Node000011" class="edge">
<title>Node7&#45;&gt;Node11</title>
<g id="a_edge13_Node000007_Node000011"><a xlink:title=" ">
<path fill="none" stroke="#63b8ff" d="M486.83,-244.85C544.14,-238.43 634.16,-226.14 710.06,-206 712.36,-205.39 714.71,-204.69 717.06,-203.93"/>
<polygon fill="#63b8ff" stroke="#63b8ff" points="718.28,-207.22 726.56,-200.61 715.97,-200.61 718.28,-207.22"/>
</a>
</g>
</g>
<!-- Node7&#45;&gt;Node12 -->
<g id="edge14_Node000007_Node000012" class="edge">
<title>Node7&#45;&gt;Node12</title>
<g id="a_edge14_Node000007_Node000012"><a xlink:title=" ">
<path fill="none" stroke="#63b8ff" d="M486.81,-247.38C582.35,-241.63 764.75,-227.89 784.06,-206 819.68,-165.64 751.92,-110.93 714.49,-85.32"/>
<polygon fill="#63b8ff" stroke="#63b8ff" points="716.4,-82.39 706.14,-79.75 712.52,-88.21 716.4,-82.39"/>
</a>
</g>
</g>
<!-- Node15 -->
<g id="Node000015" class="node">
<title>Node15</title>
<g id="a_Node000015"><a xlink:href="logger_8h.html" target="_top" xlink:title=" ">
<polygon fill="white" stroke="#666666" points="297.56,-140 214.56,-140 214.56,-121 297.56,-121 297.56,-140"/>
<text text-anchor="middle" x="256.06" y="-128" font-family="Helvetica,sans-Serif" font-size="10.00">tools/logger.h</text>
</a>
</g>
</g>
<!-- Node7&#45;&gt;Node15 -->
<g id="edge18_Node000007_Node000015" class="edge">
<title>Node7&#45;&gt;Node15</title>
<g id="a_edge18_Node000007_Node000015"><a xlink:title=" ">
<path fill="none" stroke="#63b8ff" d="M371.34,-242.64C328.14,-235.48 274.19,-223.35 260.06,-206 247.57,-190.66 248.56,-167.1 251.39,-150.59"/>
<polygon fill="#63b8ff" stroke="#63b8ff" points="254.89,-150.98 253.5,-140.48 248.03,-149.55 254.89,-150.98"/>
</a>
</g>
</g>
<!-- Node23 -->
<g id="Node000023" class="node">
<title>Node23</title>
<g id="a_Node000023"><a xlink:href="element__parameters_8h.html" target="_top" xlink:title=" ">
<polygon fill="white" stroke="#666666" points="400.56,-206 269.56,-206 269.56,-176 400.56,-176 400.56,-206"/>
<text text-anchor="start" x="277.56" y="-194" font-family="Helvetica,sans-Serif" font-size="10.00">element_parameters</text>
<text text-anchor="middle" x="335.06" y="-183" font-family="Helvetica,sans-Serif" font-size="10.00">/element_parameters.h</text>
</a>
</g>
</g>
<!-- Node7&#45;&gt;Node23 -->
<g id="edge33_Node000007_Node000023" class="edge">
<title>Node7&#45;&gt;Node23</title>
<g id="a_edge33_Node000007_Node000023"><a xlink:title=" ">
<path fill="none" stroke="#63b8ff" d="M415.19,-241.87C402.44,-233.93 383.06,-221.87 366.56,-211.6"/>
<polygon fill="#63b8ff" stroke="#63b8ff" points="368.08,-208.43 357.74,-206.11 364.38,-214.37 368.08,-208.43"/>
</a>
</g>
</g>
<!-- Node12&#45;&gt;Node4 -->
<g id="edge17_Node000012_Node000004" class="edge">
<title>Node12&#45;&gt;Node4</title>
<g id="a_edge17_Node000012_Node000004"><a xlink:title=" ">
<path fill="none" stroke="#63b8ff" d="M674.47,-60.49C654.3,-50.75 621.04,-34.66 597.7,-23.38"/>
<polygon fill="#63b8ff" stroke="#63b8ff" points="599.2,-20.22 588.68,-19.02 596.16,-26.52 599.2,-20.22"/>
</a>
</g>
</g>
<!-- Node13 -->
<g id="Node000013" class="node">
<title>Node13</title>
<g id="a_Node000013"><a xlink:title=" ">
<polygon fill="#e0e0e0" stroke="#999999" points="769.06,-19 719.06,-19 719.06,0 769.06,0 769.06,-19"/>
<text text-anchor="middle" x="744.06" y="-7" font-family="Helvetica,sans-Serif" font-size="10.00">cstdint</text>
</a>
</g>
</g>
<!-- Node12&#45;&gt;Node13 -->
<g id="edge15_Node000012_Node000013" class="edge">
<title>Node12&#45;&gt;Node13</title>
<g id="a_edge15_Node000012_Node000013"><a xlink:title=" ">
<path fill="none" stroke="#63b8ff" d="M699.73,-60.37C707.57,-51.55 719.92,-37.66 729.6,-26.77"/>
<polygon fill="#63b8ff" stroke="#63b8ff" points="732.33,-28.97 736.36,-19.17 727.1,-24.32 732.33,-28.97"/>
</a>
</g>
</g>
<!-- Node14 -->
<g id="Node000014" class="node">
<title>Node14</title>
<g id="a_Node000014"><a xlink:title=" ">
<polygon fill="#e0e0e0" stroke="#999999" points="700.56,-19 635.56,-19 635.56,0 700.56,0 700.56,-19"/>
<text text-anchor="middle" x="668.06" y="-7" font-family="Helvetica,sans-Serif" font-size="10.00">exception</text>
</a>
</g>
</g>
<!-- Node12&#45;&gt;Node14 -->
<g id="edge16_Node000012_Node000014" class="edge">
<title>Node12&#45;&gt;Node14</title>
<g id="a_edge16_Node000012_Node000014"><a xlink:title=" ">
<path fill="none" stroke="#63b8ff" d="M688.52,-60.37C685.12,-52.07 679.87,-39.28 675.54,-28.72"/>
<polygon fill="#63b8ff" stroke="#63b8ff" points="678.65,-27.09 671.62,-19.17 672.18,-29.75 678.65,-27.09"/>
</a>
</g>
</g>
<!-- Node15&#45;&gt;Node4 -->
<g id="edge20_Node000015_Node000004" class="edge">
<title>Node15&#45;&gt;Node4</title>
<g id="a_edge20_Node000015_Node000004"><a xlink:title=" ">
<path fill="none" stroke="#63b8ff" d="M297.82,-122.08C356.8,-111.43 459.15,-92.3 475.06,-85 491.88,-77.28 530.74,-45.15 553.53,-25.69"/>
<polygon fill="#63b8ff" stroke="#63b8ff" points="555.82,-28.34 561.12,-19.17 551.26,-23.03 555.82,-28.34"/>
</a>
</g>
</g>
<!-- Node15&#45;&gt;Node6 -->
<g id="edge21_Node000015_Node000006" class="edge">
<title>Node15&#45;&gt;Node6</title>
<g id="a_edge21_Node000015_Node000006"><a xlink:title=" ">
<path fill="none" stroke="#63b8ff" d="M214.42,-122.14C188.66,-115.84 156.2,-104.58 133.06,-85 115.4,-70.05 103.67,-45.69 97.2,-28.92"/>
<polygon fill="#63b8ff" stroke="#63b8ff" points="100.38,-27.4 93.7,-19.17 93.79,-29.76 100.38,-27.4"/>
</a>
</g>
</g>
<!-- Node15&#45;&gt;Node12 -->
<g id="edge24_Node000015_Node000012" class="edge">
<title>Node15&#45;&gt;Node12</title>
<g id="a_edge24_Node000015_Node000012"><a xlink:title=" ">
<path fill="none" stroke="#63b8ff" d="M297.79,-122.42C300.93,-121.93 304.04,-121.45 307.06,-121 414.42,-105.09 539.04,-89.41 616.73,-79.97"/>
<polygon fill="#63b8ff" stroke="#63b8ff" points="617.4,-83.41 626.91,-78.74 616.56,-76.46 617.4,-83.41"/>
</a>
</g>
</g>
<!-- Node16 -->
<g id="Node000016" class="node">
<title>Node16</title>
<g id="a_Node000016"><a xlink:title=" ">
<polygon fill="#e0e0e0" stroke="#999999" points="202.06,-79.5 142.06,-79.5 142.06,-60.5 202.06,-60.5 202.06,-79.5"/>
<text text-anchor="middle" x="172.06" y="-67.5" font-family="Helvetica,sans-Serif" font-size="10.00">iostream</text>
</a>
</g>
</g>
<!-- Node15&#45;&gt;Node16 -->
<g id="edge19_Node000015_Node000016" class="edge">
<title>Node15&#45;&gt;Node16</title>
<g id="a_edge19_Node000015_Node000016"><a xlink:title=" ">
<path fill="none" stroke="#63b8ff" d="M243.67,-120.87C230.27,-111.54 208.69,-96.51 192.72,-85.38"/>
<polygon fill="#63b8ff" stroke="#63b8ff" points="194.71,-82.51 184.51,-79.67 190.71,-88.25 194.71,-82.51"/>
</a>
</g>
</g>
<!-- Node17 -->
<g id="Node000017" class="node">
<title>Node17</title>
<g id="a_Node000017"><a xlink:title=" ">
<polygon fill="#e0e0e0" stroke="#999999" points="276.06,-79.5 220.06,-79.5 220.06,-60.5 276.06,-60.5 276.06,-79.5"/>
<text text-anchor="middle" x="248.06" y="-67.5" font-family="Helvetica,sans-Serif" font-size="10.00">iomanip</text>
</a>
</g>
</g>
<!-- Node15&#45;&gt;Node17 -->
<g id="edge22_Node000015_Node000017" class="edge">
<title>Node15&#45;&gt;Node17</title>
<g id="a_edge22_Node000015_Node000017"><a xlink:title=" ">
<path fill="none" stroke="#63b8ff" d="M254.88,-120.87C253.77,-112.75 252.07,-100.31 250.64,-89.89"/>
<polygon fill="#63b8ff" stroke="#63b8ff" points="254.07,-89.1 249.25,-79.67 247.13,-90.05 254.07,-89.1"/>
</a>
</g>
</g>
<!-- Node18 -->
<g id="Node000018" class="node">
<title>Node18</title>
<g id="a_Node000018"><a xlink:title=" ">
<polygon fill="#e0e0e0" stroke="#999999" points="401.56,-85 294.56,-85 294.56,-55 401.56,-55 401.56,-85"/>
<text text-anchor="start" x="302.56" y="-73" font-family="Helvetica,sans-Serif" font-size="10.00">imgui&#45;platform&#45;kit</text>
<text text-anchor="middle" x="348.06" y="-62" font-family="Helvetica,sans-Serif" font-size="10.00">/log_window.h</text>
</a>
</g>
</g>
<!-- Node15&#45;&gt;Node18 -->
<g id="edge23_Node000015_Node000018" class="edge">
<title>Node15&#45;&gt;Node18</title>
<g id="a_edge23_Node000015_Node000018"><a xlink:title=" ">
<path fill="none" stroke="#63b8ff" d="M269.64,-120.87C282.12,-112.93 301.09,-100.87 317.24,-90.6"/>
<polygon fill="#63b8ff" stroke="#63b8ff" points="319.3,-93.43 325.86,-85.11 315.55,-87.53 319.3,-93.43"/>
</a>
</g>
</g>
<!-- Node15&#45;&gt;Node19 -->
<g id="edge25_Node000015_Node000019" class="edge">
<title>Node15&#45;&gt;Node19</title>
<g id="a_edge25_Node000015_Node000019"><a xlink:title=" ">
<path fill="none" stroke="#63b8ff" d="M290.08,-120.93C321.53,-112.7 369.41,-99.44 410.06,-85 411.49,-84.49 412.95,-83.95 414.41,-83.4"/>
<polygon fill="#63b8ff" stroke="#63b8ff" points="416.05,-86.51 424.02,-79.54 413.44,-80.02 416.05,-86.51"/>
</a>
</g>
</g>
<!-- Node19&#45;&gt;Node2 -->
<g id="edge27_Node000019_Node000002" class="edge">
<title>Node19&#45;&gt;Node2</title>
<g id="a_edge27_Node000019_Node000002"><a xlink:title=" ">
<path fill="none" stroke="#63b8ff" d="M425.59,-60.44C420.67,-58.35 415.25,-56.33 410.06,-55 260.45,-16.57 214.2,-45.51 57.74,-18.81"/>
<polygon fill="#63b8ff" stroke="#63b8ff" points="58.22,-15.34 47.76,-17.06 57.01,-22.24 58.22,-15.34"/>
</a>
</g>
</g>
<!-- Node19&#45;&gt;Node4 -->
<g id="edge26_Node000019_Node000004" class="edge">
<title>Node19&#45;&gt;Node4</title>
<g id="a_edge26_Node000019_Node000004"><a xlink:title=" ">
<path fill="none" stroke="#63b8ff" d="M461.67,-60.49C483.1,-50.7 518.5,-34.52 543.21,-23.23"/>
<polygon fill="#63b8ff" stroke="#63b8ff" points="544.79,-26.36 552.43,-19.02 541.88,-19.99 544.79,-26.36"/>
</a>
</g>
</g>
<!-- Node19&#45;&gt;Node5 -->
<g id="edge32_Node000019_Node000005" class="edge">
<title>Node19&#45;&gt;Node5</title>
<g id="a_edge32_Node000019_Node000005"><a xlink:title=" ">
<path fill="none" stroke="#63b8ff" d="M424.41,-60.48C419.78,-58.53 414.79,-56.57 410.06,-55 364.56,-39.83 311.05,-27.25 274.27,-19.37"/>
<polygon fill="#63b8ff" stroke="#63b8ff" points="274.87,-15.92 264.36,-17.28 273.42,-22.77 274.87,-15.92"/>
</a>
</g>
</g>
<!-- Node19&#45;&gt;Node6 -->
<g id="edge31_Node000019_Node000006" class="edge">
<title>Node19&#45;&gt;Node6</title>
<g id="a_edge31_Node000019_Node000006"><a xlink:title=" ">
<path fill="none" stroke="#63b8ff" d="M425.21,-60.42C420.39,-58.38 415.1,-56.39 410.06,-55 357.26,-40.39 198.41,-22.08 126.78,-14.29"/>
<polygon fill="#63b8ff" stroke="#63b8ff" points="126.78,-10.77 116.46,-13.17 126.03,-17.73 126.78,-10.77"/>
</a>
</g>
</g>
<!-- Node20 -->
<g id="Node000020" class="node">
<title>Node20</title>
<g id="a_Node000020"><a xlink:title=" ">
<polygon fill="#e0e0e0" stroke="#999999" points="531.06,-19 477.06,-19 477.06,0 531.06,0 531.06,-19"/>
<text text-anchor="middle" x="504.06" y="-7" font-family="Helvetica,sans-Serif" font-size="10.00">random</text>
</a>
</g>
</g>
<!-- Node19&#45;&gt;Node20 -->
<g id="edge28_Node000019_Node000020" class="edge">
<title>Node19&#45;&gt;Node20</title>
<g id="a_edge28_Node000019_Node000020"><a xlink:title=" ">
<path fill="none" stroke="#63b8ff" d="M452.06,-60.37C461.43,-51.38 476.31,-37.11 487.76,-26.14"/>
<polygon fill="#63b8ff" stroke="#63b8ff" points="490.23,-28.62 495.02,-19.17 485.38,-23.56 490.23,-28.62"/>
</a>
</g>
</g>
<!-- Node21 -->
<g id="Node000021" class="node">
<title>Node21</title>
<g id="a_Node000021"><a xlink:title=" ">
<polygon fill="#e0e0e0" stroke="#999999" points="385.06,-19 329.06,-19 329.06,0 385.06,0 385.06,-19"/>
<text text-anchor="middle" x="357.06" y="-7" font-family="Helvetica,sans-Serif" font-size="10.00">sstream</text>
</a>
</g>
</g>
<!-- Node19&#45;&gt;Node21 -->
<g id="edge29_Node000019_Node000021" class="edge">
<title>Node19&#45;&gt;Node21</title>
<g id="a_edge29_Node000019_Node000021"><a xlink:title=" ">
<path fill="none" stroke="#63b8ff" d="M430.37,-60.37C416.65,-51.04 394.56,-36.01 378.21,-24.88"/>
<polygon fill="#63b8ff" stroke="#63b8ff" points="380.04,-21.9 369.8,-19.17 376.1,-27.69 380.04,-21.9"/>
</a>
</g>
</g>
<!-- Node22 -->
<g id="Node000022" class="node">
<title>Node22</title>
<g id="a_Node000022"><a xlink:title=" ">
<polygon fill="#e0e0e0" stroke="#999999" points="458.56,-19 403.56,-19 403.56,0 458.56,0 458.56,-19"/>
<text text-anchor="middle" x="431.06" y="-7" font-family="Helvetica,sans-Serif" font-size="10.00">fstream</text>
</a>
</g>
</g>
<!-- Node19&#45;&gt;Node22 -->
<g id="edge30_Node000019_Node000022" class="edge">
<title>Node19&#45;&gt;Node22</title>
<g id="a_edge30_Node000019_Node000022"><a xlink:title=" ">
<path fill="none" stroke="#63b8ff" d="M441.29,-60.37C439.61,-52.16 437.02,-39.54 434.87,-29.05"/>
<polygon fill="#63b8ff" stroke="#63b8ff" points="438.28,-28.26 432.84,-19.17 431.42,-29.67 438.28,-28.26"/>
</a>
</g>
</g>
<!-- Node23&#45;&gt;Node4 -->
<g id="edge35_Node000023_Node000004" class="edge">
<title>Node23&#45;&gt;Node4</title>
<g id="a_edge35_Node000023_Node000004"><a xlink:title=" ">
<path fill="none" stroke="#63b8ff" d="M366.73,-175.95C403.92,-158.4 466.1,-125.66 510.06,-85 529.14,-67.35 547.55,-43.66 559.06,-27.77"/>
<polygon fill="#63b8ff" stroke="#63b8ff" points="562.05,-29.61 564.99,-19.43 556.35,-25.55 562.05,-29.61"/>
</a>
</g>
</g>
<!-- Node23&#45;&gt;Node15 -->
<g id="edge37_Node000023_Node000015" class="edge">
<title>Node23&#45;&gt;Node15</title>
<g id="a_edge37_Node000023_Node000015"><a xlink:title=" ">
<path fill="none" stroke="#63b8ff" d="M315.94,-175.84C303.89,-166.91 288.35,-155.41 276.12,-146.35"/>
<polygon fill="#63b8ff" stroke="#63b8ff" points="278.02,-143.4 267.9,-140.27 273.85,-149.03 278.02,-143.4"/>
</a>
</g>
</g>
<!-- Node24 -->
<g id="Node000024" class="node">
<title>Node24</title>
<g id="a_Node000024"><a xlink:title=" ">
<polygon fill="#e0e0e0" stroke="#999999" points="354.06,-140 316.06,-140 316.06,-121 354.06,-121 354.06,-140"/>
<text text-anchor="middle" x="335.06" y="-128" font-family="Helvetica,sans-Serif" font-size="10.00">map</text>
</a>
</g>
</g>
<!-- Node23&#45;&gt;Node24 -->
<g id="edge34_Node000023_Node000024" class="edge">
<title>Node23&#45;&gt;Node24</title>
<g id="a_edge34_Node000023_Node000024"><a xlink:title=" ">
<path fill="none" stroke="#63b8ff" d="M335.06,-175.84C335.06,-168.21 335.06,-158.7 335.06,-150.45"/>
<polygon fill="#63b8ff" stroke="#63b8ff" points="338.56,-150.27 335.06,-140.27 331.56,-150.27 338.56,-150.27"/>
</a>
</g>
</g>
<!-- Node25 -->
<g id="Node000025" class="node">
<title>Node25</title>
<g id="a_Node000025"><a xlink:title=" ">
<polygon fill="#e0e0e0" stroke="#999999" points="422.06,-140 372.06,-140 372.06,-121 422.06,-121 422.06,-140"/>
<text text-anchor="middle" x="397.06" y="-128" font-family="Helvetica,sans-Serif" font-size="10.00">format</text>
</a>
</g>
</g>
<!-- Node23&#45;&gt;Node25 -->
<g id="edge36_Node000023_Node000025" class="edge">
<title>Node23&#45;&gt;Node25</title>
<g id="a_edge36_Node000023_Node000025"><a xlink:title=" ">
<path fill="none" stroke="#63b8ff" d="M350.07,-175.84C359.25,-167.17 371.02,-156.08 380.47,-147.15"/>
<polygon fill="#63b8ff" stroke="#63b8ff" points="382.9,-149.67 387.77,-140.27 378.1,-144.58 382.9,-149.67"/>
</a>
</g>
</g>
</g>
</svg>
