<?xml version="1.0" encoding="UTF-8" standalone="no"?>
<!DOCTYPE svg PUBLIC "-//W3C//DTD SVG 1.1//EN"
 "http://www.w3.org/Graphics/SVG/1.1/DTD/svg11.dtd">
<!-- Generated by graphviz version 2.43.0 (0)
 -->
<!-- Title: src/user_interface/status_bar_window.cpp Pages: 1 -->
<svg width="1336pt" height="522pt"
 viewBox="0.00 0.00 1336.00 522.00" xmlns="http://www.w3.org/2000/svg" xmlns:xlink="http://www.w3.org/1999/xlink">
<g id="graph0" class="graph" transform="scale(1 1) rotate(0) translate(4 518)">
<title>src/user_interface/status_bar_window.cpp</title>
<!-- Node1 -->
<g id="Node000001" class="node">
<title>Node1</title>
<g id="a_Node000001"><a xlink:title=" ">
<polygon fill="#999999" stroke="#666666" points="514.5,-514 381.5,-514 381.5,-484 514.5,-484 514.5,-514"/>
<text text-anchor="start" x="389.5" y="-502" font-family="Helvetica,sans-Serif" font-size="10.00">src/user_interface</text>
<text text-anchor="middle" x="448" y="-491" font-family="Helvetica,sans-Serif" font-size="10.00">/status_bar_window.cpp</text>
</a>
</g>
</g>
<!-- Node2 -->
<g id="Node000002" class="node">
<title>Node2</title>
<g id="a_Node000002"><a xlink:href="status__bar__window_8h.html" target="_top" xlink:title=" ">
<polygon fill="white" stroke="#666666" points="404.5,-448 285.5,-448 285.5,-418 404.5,-418 404.5,-448"/>
<text text-anchor="start" x="293.5" y="-436" font-family="Helvetica,sans-Serif" font-size="10.00">user_interface/status</text>
<text text-anchor="middle" x="345" y="-425" font-family="Helvetica,sans-Serif" font-size="10.00">_bar_window.h</text>
</a>
</g>
</g>
<!-- Node1&#45;&gt;Node2 -->
<g id="edge1_Node000001_Node000002" class="edge">
<title>Node1&#45;&gt;Node2</title>
<g id="a_edge1_Node000001_Node000002"><a xlink:title=" ">
<path fill="none" stroke="#63b8ff" d="M425.4,-483.95C411.04,-475.03 392.26,-463.36 376.45,-453.54"/>
<polygon fill="#63b8ff" stroke="#63b8ff" points="377.89,-450.32 367.55,-448.01 374.2,-456.26 377.89,-450.32"/>
</a>
</g>
</g>
<!-- Node30 -->
<g id="Node000030" class="node">
<title>Node30</title>
<g id="a_Node000030"><a xlink:href="application_8h.html" target="_top" xlink:title=" ">
<polygon fill="white" stroke="#666666" points="956.5,-442.5 819.5,-442.5 819.5,-423.5 956.5,-423.5 956.5,-442.5"/>
<text text-anchor="middle" x="888" y="-430.5" font-family="Helvetica,sans-Serif" font-size="10.00">application/application.h</text>
</a>
</g>
</g>
<!-- Node1&#45;&gt;Node30 -->
<g id="edge47_Node000001_Node000030" class="edge">
<title>Node1&#45;&gt;Node30</title>
<g id="a_edge47_Node000001_Node000030"><a xlink:title=" ">
<path fill="none" stroke="#63b8ff" d="M514.83,-488.28C597.1,-476.31 736.11,-456.09 819.26,-444"/>
<polygon fill="#63b8ff" stroke="#63b8ff" points="819.97,-447.43 829.36,-442.53 818.96,-440.51 819.97,-447.43"/>
</a>
</g>
</g>
<!-- Node3 -->
<g id="Node000003" class="node">
<title>Node3</title>
<g id="a_Node000003"><a xlink:title=" ">
<polygon fill="#e0e0e0" stroke="#999999" points="317,-382 177,-382 177,-352 317,-352 317,-382"/>
<text text-anchor="start" x="185" y="-370" font-family="Helvetica,sans-Serif" font-size="10.00">imgui&#45;platform&#45;kit</text>
<text text-anchor="middle" x="247" y="-359" font-family="Helvetica,sans-Serif" font-size="10.00">/user_interface_window.h</text>
</a>
</g>
</g>
<!-- Node2&#45;&gt;Node3 -->
<g id="edge2_Node000002_Node000003" class="edge">
<title>Node2&#45;&gt;Node3</title>
<g id="a_edge2_Node000002_Node000003"><a xlink:title=" ">
<path fill="none" stroke="#63b8ff" d="M323.25,-417.8C309.67,-408.93 292.01,-397.39 277.1,-387.66"/>
<polygon fill="#63b8ff" stroke="#63b8ff" points="278.98,-384.7 268.69,-382.16 275.15,-390.56 278.98,-384.7"/>
</a>
</g>
</g>
<!-- Node4 -->
<g id="Node000004" class="node">
<title>Node4</title>
<g id="a_Node000004"><a xlink:href="simulation_8h.html" target="_top" xlink:title=" ">
<polygon fill="white" stroke="#666666" points="397,-316 265,-316 265,-297 397,-297 397,-316"/>
<text text-anchor="middle" x="331" y="-304" font-family="Helvetica,sans-Serif" font-size="10.00">simulation/simulation.h</text>
</a>
</g>
</g>
<!-- Node2&#45;&gt;Node4 -->
<g id="edge3_Node000002_Node000004" class="edge">
<title>Node2&#45;&gt;Node4</title>
<g id="a_edge3_Node000002_Node000004"><a xlink:title=" ">
<path fill="none" stroke="#63b8ff" d="M343.39,-417.72C340.85,-395.12 335.91,-351.12 333.09,-326.09"/>
<polygon fill="#63b8ff" stroke="#63b8ff" points="336.56,-325.62 331.96,-316.07 329.6,-326.4 336.56,-325.62"/>
</a>
</g>
</g>
<!-- Node5 -->
<g id="Node000005" class="node">
<title>Node5</title>
<g id="a_Node000005"><a xlink:title=" ">
<polygon fill="#e0e0e0" stroke="#999999" points="156.5,-19 109.5,-19 109.5,0 156.5,0 156.5,-19"/>
<text text-anchor="middle" x="133" y="-7" font-family="Helvetica,sans-Serif" font-size="10.00">vector</text>
</a>
</g>
</g>
<!-- Node4&#45;&gt;Node5 -->
<g id="edge4_Node000004_Node000005" class="edge">
<title>Node4&#45;&gt;Node5</title>
<g id="a_edge4_Node000004_Node000005"><a xlink:title=" ">
<path fill="none" stroke="#63b8ff" d="M265,-303.65C189.44,-297.6 76,-274.74 76,-192 76,-192 76,-192 76,-129.5 76,-89.64 102.34,-48.98 119.21,-27.03"/>
<polygon fill="#63b8ff" stroke="#63b8ff" points="122.05,-29.07 125.55,-19.07 116.58,-24.71 122.05,-29.07"/>
</a>
</g>
</g>
<!-- Node6 -->
<g id="Node000006" class="node">
<title>Node6</title>
<g id="a_Node000006"><a xlink:title=" ">
<polygon fill="#e0e0e0" stroke="#999999" points="276,-200.5 218,-200.5 218,-181.5 276,-181.5 276,-200.5"/>
<text text-anchor="middle" x="247" y="-188.5" font-family="Helvetica,sans-Serif" font-size="10.00">memory</text>
</a>
</g>
</g>
<!-- Node4&#45;&gt;Node6 -->
<g id="edge5_Node000004_Node000006" class="edge">
<title>Node4&#45;&gt;Node6</title>
<g id="a_edge5_Node000004_Node000006"><a xlink:title=" ">
<path fill="none" stroke="#63b8ff" d="M324.69,-296.97C310.88,-278.32 277.8,-233.61 259.57,-208.99"/>
<polygon fill="#63b8ff" stroke="#63b8ff" points="262.15,-206.59 253.39,-200.63 256.52,-210.75 262.15,-206.59"/>
</a>
</g>
</g>
<!-- Node7 -->
<g id="Node000007" class="node">
<title>Node7</title>
<g id="a_Node000007"><a xlink:title=" ">
<polygon fill="#e0e0e0" stroke="#999999" points="567,-19 523,-19 523,0 567,0 567,-19"/>
<text text-anchor="middle" x="545" y="-7" font-family="Helvetica,sans-Serif" font-size="10.00">string</text>
</a>
</g>
</g>
<!-- Node4&#45;&gt;Node7 -->
<g id="edge6_Node000004_Node000007" class="edge">
<title>Node4&#45;&gt;Node7</title>
<g id="a_edge6_Node000004_Node000007"><a xlink:title=" ">
<path fill="none" stroke="#63b8ff" d="M310.88,-296.91C268.24,-277.44 175.36,-227.63 209,-176 222.66,-155.03 392.67,-96.29 415,-85 453.66,-65.45 497.04,-39.81 522.64,-24.27"/>
<polygon fill="#63b8ff" stroke="#63b8ff" points="524.5,-27.23 531.22,-19.04 520.86,-21.25 524.5,-27.23"/>
</a>
</g>
</g>
<!-- Node8 -->
<g id="Node000008" class="node">
<title>Node8</title>
<g id="a_Node000008"><a xlink:title=" ">
<polygon fill="#e0e0e0" stroke="#999999" points="263,-19 195,-19 195,0 263,0 263,-19"/>
<text text-anchor="middle" x="229" y="-7" font-family="Helvetica,sans-Serif" font-size="10.00">filesystem</text>
</a>
</g>
</g>
<!-- Node4&#45;&gt;Node8 -->
<g id="edge7_Node000004_Node000008" class="edge">
<title>Node4&#45;&gt;Node8</title>
<g id="a_edge7_Node000004_Node000008"><a xlink:title=" ">
<path fill="none" stroke="#63b8ff" d="M264.7,-304.01C193.61,-300.84 87.49,-291.05 62,-261 -8.43,-177.97 146.33,-64.2 206.44,-24.7"/>
<polygon fill="#63b8ff" stroke="#63b8ff" points="208.41,-27.59 214.9,-19.22 204.61,-21.71 208.41,-27.59"/>
</a>
</g>
</g>
<!-- Node9 -->
<g id="Node000009" class="node">
<title>Node9</title>
<g id="a_Node000009"><a xlink:title=" ">
<polygon fill="#e0e0e0" stroke="#999999" points="1003,-19 953,-19 953,0 1003,0 1003,-19"/>
<text text-anchor="middle" x="978" y="-7" font-family="Helvetica,sans-Serif" font-size="10.00">chrono</text>
</a>
</g>
</g>
<!-- Node4&#45;&gt;Node9 -->
<g id="edge8_Node000004_Node000009" class="edge">
<title>Node4&#45;&gt;Node9</title>
<g id="a_edge8_Node000004_Node000009"><a xlink:title=" ">
<path fill="none" stroke="#63b8ff" d="M397.1,-305.65C547.91,-304.47 910.36,-292.5 988,-206 1032.82,-156.06 1002.56,-66.87 986.37,-28.67"/>
<polygon fill="#63b8ff" stroke="#63b8ff" points="989.48,-27.06 982.25,-19.33 983.08,-29.89 989.48,-27.06"/>
</a>
</g>
</g>
<!-- Node10 -->
<g id="Node000010" class="node">
<title>Node10</title>
<g id="a_Node000010"><a xlink:href="element_8h.html" target="_top" xlink:title=" ">
<polygon fill="white" stroke="#666666" points="623.5,-261 508.5,-261 508.5,-242 623.5,-242 623.5,-261"/>
<text text-anchor="middle" x="566" y="-249" font-family="Helvetica,sans-Serif" font-size="10.00">elements/element.h</text>
</a>
</g>
</g>
<!-- Node4&#45;&gt;Node10 -->
<g id="edge9_Node000004_Node000010" class="edge">
<title>Node4&#45;&gt;Node10</title>
<g id="a_edge9_Node000004_Node000010"><a xlink:title=" ">
<path fill="none" stroke="#63b8ff" d="M368.76,-296.98C409.32,-287.84 473.89,-273.27 518.03,-263.32"/>
<polygon fill="#63b8ff" stroke="#63b8ff" points="518.96,-266.7 527.95,-261.08 517.42,-259.87 518.96,-266.7"/>
</a>
</g>
</g>
<!-- Node15 -->
<g id="Node000015" class="node">
<title>Node15</title>
<g id="a_Node000015"><a xlink:href="exception_8h.html" target="_top" xlink:title=" ">
<polygon fill="white" stroke="#666666" points="1283,-79.5 1153,-79.5 1153,-60.5 1283,-60.5 1283,-79.5"/>
<text text-anchor="middle" x="1218" y="-67.5" font-family="Helvetica,sans-Serif" font-size="10.00">exceptions/exception.h</text>
</a>
</g>
</g>
<!-- Node4&#45;&gt;Node15 -->
<g id="edge41_Node000004_Node000015" class="edge">
<title>Node4&#45;&gt;Node15</title>
<g id="a_edge41_Node000004_Node000015"><a xlink:title=" ">
<path fill="none" stroke="#63b8ff" d="M397.02,-303.78C558.07,-299.21 962.08,-285.45 1018,-261 1106.19,-222.44 1179.17,-127.33 1206.47,-88.22"/>
<polygon fill="#63b8ff" stroke="#63b8ff" points="1209.65,-89.78 1212.41,-79.55 1203.87,-85.82 1209.65,-89.78"/>
</a>
</g>
</g>
<!-- Node22 -->
<g id="Node000022" class="node">
<title>Node22</title>
<g id="a_Node000022"><a xlink:href="utils_8h.html" target="_top" xlink:title=" ">
<polygon fill="white" stroke="#666666" points="406.5,-79.5 359.5,-79.5 359.5,-60.5 406.5,-60.5 406.5,-79.5"/>
<text text-anchor="middle" x="383" y="-67.5" font-family="Helvetica,sans-Serif" font-size="10.00">utils.h</text>
</a>
</g>
</g>
<!-- Node4&#45;&gt;Node22 -->
<g id="edge42_Node000004_Node000022" class="edge">
<title>Node4&#45;&gt;Node22</title>
<g id="a_edge42_Node000004_Node000022"><a xlink:title=" ">
<path fill="none" stroke="#63b8ff" d="M276.55,-296.95C236.98,-289.5 188.3,-277.32 176,-261 153.27,-230.83 156.23,-208.19 176,-176 186.2,-159.39 299.2,-107.92 353.8,-83.76"/>
<polygon fill="#63b8ff" stroke="#63b8ff" points="355.54,-86.82 363.28,-79.59 352.72,-80.42 355.54,-86.82"/>
</a>
</g>
</g>
<!-- Node29 -->
<g id="Node000029" class="node">
<title>Node29</title>
<g id="a_Node000029"><a xlink:href="simulation__recorder_8h.html" target="_top" xlink:title=" ">
<polygon fill="white" stroke="#666666" points="341.5,-85 218.5,-85 218.5,-55 341.5,-55 341.5,-85"/>
<text text-anchor="start" x="226.5" y="-73" font-family="Helvetica,sans-Serif" font-size="10.00">simulation/simulation</text>
<text text-anchor="middle" x="280" y="-62" font-family="Helvetica,sans-Serif" font-size="10.00">_recorder.h</text>
</a>
</g>
</g>
<!-- Node4&#45;&gt;Node29 -->
<g id="edge43_Node000004_Node000029" class="edge">
<title>Node4&#45;&gt;Node29</title>
<g id="a_edge43_Node000004_Node000029"><a xlink:title=" ">
<path fill="none" stroke="#63b8ff" d="M264.89,-298.99C215.46,-292.59 153.79,-280.84 138,-261 99.26,-212.31 102.04,-171.78 138,-121 146.96,-108.34 178.12,-96.68 208.98,-87.8"/>
<polygon fill="#63b8ff" stroke="#63b8ff" points="210.26,-91.08 218.96,-85.02 208.39,-84.34 210.26,-91.08"/>
</a>
</g>
</g>
<!-- Node10&#45;&gt;Node5 -->
<g id="edge10_Node000010_Node000005" class="edge">
<title>Node10&#45;&gt;Node5</title>
<g id="a_edge10_Node000010_Node000005"><a xlink:title=" ">
<path fill="none" stroke="#63b8ff" d="M508.18,-247.78C457.42,-243.58 382.6,-232.95 323,-206 303.39,-197.13 301.99,-189.2 285,-176 232.42,-135.15 207.21,-137.29 166,-85 152.62,-68.03 143.46,-44.79 138.25,-28.8"/>
<polygon fill="#63b8ff" stroke="#63b8ff" points="141.54,-27.59 135.26,-19.06 134.84,-29.64 141.54,-27.59"/>
</a>
</g>
</g>
<!-- Node10&#45;&gt;Node6 -->
<g id="edge13_Node000010_Node000006" class="edge">
<title>Node10&#45;&gt;Node6</title>
<g id="a_edge13_Node000010_Node000006"><a xlink:title=" ">
<path fill="none" stroke="#63b8ff" d="M508.4,-243.85C452.2,-236.75 364.54,-224.03 290,-206 286.97,-205.27 283.84,-204.42 280.73,-203.52"/>
<polygon fill="#63b8ff" stroke="#63b8ff" points="281.51,-200.1 270.92,-200.51 279.45,-206.79 281.51,-200.1"/>
</a>
</g>
</g>
<!-- Node10&#45;&gt;Node7 -->
<g id="edge11_Node000010_Node000007" class="edge">
<title>Node10&#45;&gt;Node7</title>
<g id="a_edge11_Node000010_Node000007"><a xlink:title=" ">
<path fill="none" stroke="#63b8ff" d="M565.25,-241.96C562.24,-207.48 550.91,-78.08 546.64,-29.28"/>
<polygon fill="#63b8ff" stroke="#63b8ff" points="550.12,-28.85 545.76,-19.19 543.15,-29.46 550.12,-28.85"/>
</a>
</g>
</g>
<!-- Node11 -->
<g id="Node000011" class="node">
<title>Node11</title>
<g id="a_Node000011"><a xlink:title=" ">
<polygon fill="#e0e0e0" stroke="#999999" points="687.5,-200.5 594.5,-200.5 594.5,-181.5 687.5,-181.5 687.5,-200.5"/>
<text text-anchor="middle" x="641" y="-188.5" font-family="Helvetica,sans-Serif" font-size="10.00">unordered_map</text>
</a>
</g>
</g>
<!-- Node10&#45;&gt;Node11 -->
<g id="edge12_Node000010_Node000011" class="edge">
<title>Node10&#45;&gt;Node11</title>
<g id="a_edge12_Node000010_Node000011"><a xlink:title=" ">
<path fill="none" stroke="#63b8ff" d="M577.07,-241.87C588.81,-232.71 607.59,-218.06 621.76,-207.01"/>
<polygon fill="#63b8ff" stroke="#63b8ff" points="624.16,-209.58 629.89,-200.67 619.85,-204.06 624.16,-209.58"/>
</a>
</g>
</g>
<!-- Node12 -->
<g id="Node000012" class="node">
<title>Node12</title>
<g id="a_Node000012"><a xlink:title=" ">
<polygon fill="#e0e0e0" stroke="#999999" points="756,-200.5 706,-200.5 706,-181.5 756,-181.5 756,-200.5"/>
<text text-anchor="middle" x="731" y="-188.5" font-family="Helvetica,sans-Serif" font-size="10.00">ranges</text>
</a>
</g>
</g>
<!-- Node10&#45;&gt;Node12 -->
<g id="edge14_Node000010_Node000012" class="edge">
<title>Node10&#45;&gt;Node12</title>
<g id="a_edge14_Node000010_Node000012"><a xlink:title=" ">
<path fill="none" stroke="#63b8ff" d="M592.53,-241.86C618.9,-233.16 660.44,-219.19 696,-206 697.42,-205.47 698.87,-204.93 700.33,-204.37"/>
<polygon fill="#63b8ff" stroke="#63b8ff" points="701.92,-207.51 709.97,-200.61 699.38,-200.98 701.92,-207.51"/>
</a>
</g>
</g>
<!-- Node13 -->
<g id="Node000013" class="node">
<title>Node13</title>
<g id="a_Node000013"><a xlink:title=" ">
<polygon fill="#e0e0e0" stroke="#999999" points="838,-200.5 774,-200.5 774,-181.5 838,-181.5 838,-200.5"/>
<text text-anchor="middle" x="806" y="-188.5" font-family="Helvetica,sans-Serif" font-size="10.00">algorithm</text>
</a>
</g>
</g>
<!-- Node10&#45;&gt;Node13 -->
<g id="edge15_Node000010_Node000013" class="edge">
<title>Node10&#45;&gt;Node13</title>
<g id="a_edge15_Node000010_Node000013"><a xlink:title=" ">
<path fill="none" stroke="#63b8ff" d="M610.61,-241.97C651.17,-233.88 712.52,-220.78 765,-206 767.47,-205.3 770.01,-204.55 772.56,-203.75"/>
<polygon fill="#63b8ff" stroke="#63b8ff" points="773.86,-207.01 782.29,-200.59 771.7,-200.35 773.86,-207.01"/>
</a>
</g>
</g>
<!-- Node14 -->
<g id="Node000014" class="node">
<title>Node14</title>
<g id="a_Node000014"><a xlink:title=" ">
<polygon fill="#e0e0e0" stroke="#999999" points="538,-200.5 482,-200.5 482,-181.5 538,-181.5 538,-200.5"/>
<text text-anchor="middle" x="510" y="-188.5" font-family="Helvetica,sans-Serif" font-size="10.00">numeric</text>
</a>
</g>
</g>
<!-- Node10&#45;&gt;Node14 -->
<g id="edge16_Node000010_Node000014" class="edge">
<title>Node10&#45;&gt;Node14</title>
<g id="a_edge16_Node000010_Node000014"><a xlink:title=" ">
<path fill="none" stroke="#63b8ff" d="M557.74,-241.87C549.22,-232.97 535.74,-218.89 525.27,-207.95"/>
<polygon fill="#63b8ff" stroke="#63b8ff" points="527.74,-205.47 518.3,-200.67 522.68,-210.31 527.74,-205.47"/>
</a>
</g>
</g>
<!-- Node10&#45;&gt;Node15 -->
<g id="edge17_Node000010_Node000015" class="edge">
<title>Node10&#45;&gt;Node15</title>
<g id="a_edge17_Node000010_Node000015"><a xlink:title=" ">
<path fill="none" stroke="#63b8ff" d="M623.64,-247.55C722.93,-241.94 921.95,-228.28 988,-206 1056.97,-182.73 1065.06,-157.57 1128,-121 1149.85,-108.31 1175.01,-94.39 1193.16,-84.46"/>
<polygon fill="#63b8ff" stroke="#63b8ff" points="1194.86,-87.53 1201.96,-79.67 1191.51,-81.38 1194.86,-87.53"/>
</a>
</g>
</g>
<!-- Node18 -->
<g id="Node000018" class="node">
<title>Node18</title>
<g id="a_Node000018"><a xlink:href="logger_8h.html" target="_top" xlink:title=" ">
<polygon fill="white" stroke="#666666" points="981.5,-140 898.5,-140 898.5,-121 981.5,-121 981.5,-140"/>
<text text-anchor="middle" x="940" y="-128" font-family="Helvetica,sans-Serif" font-size="10.00">tools/logger.h</text>
</a>
</g>
</g>
<!-- Node10&#45;&gt;Node18 -->
<g id="edge21_Node000010_Node000018" class="edge">
<title>Node10&#45;&gt;Node18</title>
<g id="a_edge21_Node000010_Node000018"><a xlink:title=" ">
<path fill="none" stroke="#63b8ff" d="M623.79,-248.34C730.16,-243.77 948.25,-231.38 971,-206 985.97,-189.3 970.09,-164.35 956.09,-148"/>
<polygon fill="#63b8ff" stroke="#63b8ff" points="958.44,-145.37 949.12,-140.33 953.25,-150.08 958.44,-145.37"/>
</a>
</g>
</g>
<!-- Node26 -->
<g id="Node000026" class="node">
<title>Node26</title>
<g id="a_Node000026"><a xlink:href="element__parameters_8h.html" target="_top" xlink:title=" ">
<polygon fill="white" stroke="#666666" points="463.5,-206 332.5,-206 332.5,-176 463.5,-176 463.5,-206"/>
<text text-anchor="start" x="340.5" y="-194" font-family="Helvetica,sans-Serif" font-size="10.00">element_parameters</text>
<text text-anchor="middle" x="398" y="-183" font-family="Helvetica,sans-Serif" font-size="10.00">/element_parameters.h</text>
</a>
</g>
</g>
<!-- Node10&#45;&gt;Node26 -->
<g id="edge36_Node000010_Node000026" class="edge">
<title>Node10&#45;&gt;Node26</title>
<g id="a_edge36_Node000010_Node000026"><a xlink:title=" ">
<path fill="none" stroke="#63b8ff" d="M541.57,-241.99C517.18,-233.5 478.99,-220.2 448.13,-209.45"/>
<polygon fill="#63b8ff" stroke="#63b8ff" points="448.98,-206.05 438.39,-206.06 446.68,-212.66 448.98,-206.05"/>
</a>
</g>
</g>
<!-- Node15&#45;&gt;Node7 -->
<g id="edge20_Node000015_Node000007" class="edge">
<title>Node15&#45;&gt;Node7</title>
<g id="a_edge20_Node000015_Node000007"><a xlink:title=" ">
<path fill="none" stroke="#63b8ff" d="M1177.42,-60.47C1166.6,-58.43 1154.89,-56.43 1144,-55 928.65,-26.72 667.21,-15 577.23,-11.61"/>
<polygon fill="#63b8ff" stroke="#63b8ff" points="577.24,-8.11 567.12,-11.24 576.98,-15.11 577.24,-8.11"/>
</a>
</g>
</g>
<!-- Node16 -->
<g id="Node000016" class="node">
<title>Node16</title>
<g id="a_Node000016"><a xlink:title=" ">
<polygon fill="#e0e0e0" stroke="#999999" points="1281,-19 1231,-19 1231,0 1281,0 1281,-19"/>
<text text-anchor="middle" x="1256" y="-7" font-family="Helvetica,sans-Serif" font-size="10.00">cstdint</text>
</a>
</g>
</g>
<!-- Node15&#45;&gt;Node16 -->
<g id="edge18_Node000015_Node000016" class="edge">
<title>Node15&#45;&gt;Node16</title>
<g id="a_edge18_Node000015_Node000016"><a xlink:title=" ">
<path fill="none" stroke="#63b8ff" d="M1223.61,-60.37C1229.16,-51.81 1237.83,-38.47 1244.8,-27.74"/>
<polygon fill="#63b8ff" stroke="#63b8ff" points="1247.86,-29.46 1250.37,-19.17 1241.99,-25.65 1247.86,-29.46"/>
</a>
</g>
</g>
<!-- Node17 -->
<g id="Node000017" class="node">
<title>Node17</title>
<g id="a_Node000017"><a xlink:title=" ">
<polygon fill="#e0e0e0" stroke="#999999" points="1212.5,-19 1147.5,-19 1147.5,0 1212.5,0 1212.5,-19"/>
<text text-anchor="middle" x="1180" y="-7" font-family="Helvetica,sans-Serif" font-size="10.00">exception</text>
</a>
</g>
</g>
<!-- Node15&#45;&gt;Node17 -->
<g id="edge19_Node000015_Node000017" class="edge">
<title>Node15&#45;&gt;Node17</title>
<g id="a_edge19_Node000015_Node000017"><a xlink:title=" ">
<path fill="none" stroke="#63b8ff" d="M1212.39,-60.37C1206.84,-51.81 1198.17,-38.47 1191.2,-27.74"/>
<polygon fill="#63b8ff" stroke="#63b8ff" points="1194.01,-25.65 1185.63,-19.17 1188.14,-29.46 1194.01,-25.65"/>
</a>
</g>
</g>
<!-- Node18&#45;&gt;Node7 -->
<g id="edge23_Node000018_Node000007" class="edge">
<title>Node18&#45;&gt;Node7</title>
<g id="a_edge23_Node000018_Node000007"><a xlink:title=" ">
<path fill="none" stroke="#63b8ff" d="M940.53,-120.77C940.96,-104.97 939.34,-71.74 920,-55 869.11,-10.97 658.7,-8.94 577.33,-9.86"/>
<polygon fill="#63b8ff" stroke="#63b8ff" points="577.13,-6.37 567.18,-10 577.22,-13.36 577.13,-6.37"/>
</a>
</g>
</g>
<!-- Node18&#45;&gt;Node9 -->
<g id="edge24_Node000018_Node000009" class="edge">
<title>Node18&#45;&gt;Node9</title>
<g id="a_edge24_Node000018_Node000009"><a xlink:title=" ">
<path fill="none" stroke="#63b8ff" d="M942.73,-120.94C948.84,-101.82 963.7,-55.27 972.05,-29.12"/>
<polygon fill="#63b8ff" stroke="#63b8ff" points="975.48,-29.89 975.19,-19.3 968.81,-27.76 975.48,-29.89"/>
</a>
</g>
</g>
<!-- Node18&#45;&gt;Node15 -->
<g id="edge27_Node000018_Node000015" class="edge">
<title>Node18&#45;&gt;Node15</title>
<g id="a_edge27_Node000018_Node000015"><a xlink:title=" ">
<path fill="none" stroke="#63b8ff" d="M980.42,-120.99C1029.94,-110.57 1113.84,-92.92 1167.54,-81.62"/>
<polygon fill="#63b8ff" stroke="#63b8ff" points="1168.46,-85 1177.53,-79.52 1167.02,-78.15 1168.46,-85"/>
</a>
</g>
</g>
<!-- Node19 -->
<g id="Node000019" class="node">
<title>Node19</title>
<g id="a_Node000019"><a xlink:title=" ">
<polygon fill="#e0e0e0" stroke="#999999" points="1135,-79.5 1075,-79.5 1075,-60.5 1135,-60.5 1135,-79.5"/>
<text text-anchor="middle" x="1105" y="-67.5" font-family="Helvetica,sans-Serif" font-size="10.00">iostream</text>
</a>
</g>
</g>
<!-- Node18&#45;&gt;Node19 -->
<g id="edge22_Node000018_Node000019" class="edge">
<title>Node18&#45;&gt;Node19</title>
<g id="a_edge22_Node000018_Node000019"><a xlink:title=" ">
<path fill="none" stroke="#63b8ff" d="M963.99,-120.99C992.22,-110.99 1039.28,-94.3 1071.19,-82.99"/>
<polygon fill="#63b8ff" stroke="#63b8ff" points="1072.72,-86.16 1080.98,-79.52 1070.38,-79.56 1072.72,-86.16"/>
</a>
</g>
</g>
<!-- Node20 -->
<g id="Node000020" class="node">
<title>Node20</title>
<g id="a_Node000020"><a xlink:title=" ">
<polygon fill="#e0e0e0" stroke="#999999" points="786,-79.5 730,-79.5 730,-60.5 786,-60.5 786,-79.5"/>
<text text-anchor="middle" x="758" y="-67.5" font-family="Helvetica,sans-Serif" font-size="10.00">iomanip</text>
</a>
</g>
</g>
<!-- Node18&#45;&gt;Node20 -->
<g id="edge25_Node000018_Node000020" class="edge">
<title>Node18&#45;&gt;Node20</title>
<g id="a_edge25_Node000018_Node000020"><a xlink:title=" ">
<path fill="none" stroke="#63b8ff" d="M910.62,-120.92C881.41,-112.27 835.41,-98.34 796,-85 794.15,-84.37 792.26,-83.72 790.35,-83.05"/>
<polygon fill="#63b8ff" stroke="#63b8ff" points="791.43,-79.72 780.84,-79.64 789.07,-86.31 791.43,-79.72"/>
</a>
</g>
</g>
<!-- Node21 -->
<g id="Node000021" class="node">
<title>Node21</title>
<g id="a_Node000021"><a xlink:title=" ">
<polygon fill="#e0e0e0" stroke="#999999" points="911.5,-85 804.5,-85 804.5,-55 911.5,-55 911.5,-85"/>
<text text-anchor="start" x="812.5" y="-73" font-family="Helvetica,sans-Serif" font-size="10.00">imgui&#45;platform&#45;kit</text>
<text text-anchor="middle" x="858" y="-62" font-family="Helvetica,sans-Serif" font-size="10.00">/log_window.h</text>
</a>
</g>
</g>
<!-- Node18&#45;&gt;Node21 -->
<g id="edge26_Node000018_Node000021" class="edge">
<title>Node18&#45;&gt;Node21</title>
<g id="a_edge26_Node000018_Node000021"><a xlink:title=" ">
<path fill="none" stroke="#63b8ff" d="M927.9,-120.87C916.98,-113.08 900.49,-101.32 886.28,-91.17"/>
<polygon fill="#63b8ff" stroke="#63b8ff" points="887.96,-88.07 877.78,-85.11 883.89,-93.77 887.96,-88.07"/>
</a>
</g>
</g>
<!-- Node18&#45;&gt;Node22 -->
<g id="edge28_Node000018_Node000022" class="edge">
<title>Node18&#45;&gt;Node22</title>
<g id="a_edge28_Node000018_Node000022"><a xlink:title=" ">
<path fill="none" stroke="#63b8ff" d="M898.13,-125.1C791.93,-113.95 513.62,-84.72 416.79,-74.55"/>
<polygon fill="#63b8ff" stroke="#63b8ff" points="417,-71.05 406.68,-73.49 416.26,-78.01 417,-71.05"/>
</a>
</g>
</g>
<!-- Node22&#45;&gt;Node5 -->
<g id="edge30_Node000022_Node000005" class="edge">
<title>Node22&#45;&gt;Node5</title>
<g id="a_edge30_Node000022_Node000005"><a xlink:title=" ">
<path fill="none" stroke="#63b8ff" d="M364.74,-60.49C360.01,-58.5 354.87,-56.52 350,-55 316.16,-44.47 218.57,-26.04 166.57,-16.54"/>
<polygon fill="#63b8ff" stroke="#63b8ff" points="166.97,-13.05 156.5,-14.71 165.71,-19.94 166.97,-13.05"/>
</a>
</g>
</g>
<!-- Node22&#45;&gt;Node7 -->
<g id="edge29_Node000022_Node000007" class="edge">
<title>Node22&#45;&gt;Node7</title>
<g id="a_edge29_Node000022_Node000007"><a xlink:title=" ">
<path fill="none" stroke="#63b8ff" d="M406.3,-60.38C411.16,-58.59 416.24,-56.73 421,-55 452.17,-43.66 487.82,-30.89 512.87,-21.95"/>
<polygon fill="#63b8ff" stroke="#63b8ff" points="514.34,-25.14 522.58,-18.48 511.98,-18.55 514.34,-25.14"/>
</a>
</g>
</g>
<!-- Node22&#45;&gt;Node8 -->
<g id="edge35_Node000022_Node000008" class="edge">
<title>Node22&#45;&gt;Node8</title>
<g id="a_edge35_Node000022_Node000008"><a xlink:title=" ">
<path fill="none" stroke="#63b8ff" d="M363.17,-60.4C358.85,-58.58 354.28,-56.69 350,-55 320.73,-43.42 287.11,-31.13 262.74,-22.41"/>
<polygon fill="#63b8ff" stroke="#63b8ff" points="263.83,-19.08 253.24,-19.02 261.48,-25.68 263.83,-19.08"/>
</a>
</g>
</g>
<!-- Node22&#45;&gt;Node9 -->
<g id="edge34_Node000022_Node000009" class="edge">
<title>Node22&#45;&gt;Node9</title>
<g id="a_edge34_Node000022_Node000009"><a xlink:title=" ">
<path fill="none" stroke="#63b8ff" d="M406.69,-66.67C498.73,-57.62 832.84,-24.77 942.71,-13.97"/>
<polygon fill="#63b8ff" stroke="#63b8ff" points="943.32,-17.43 952.93,-12.97 942.63,-10.46 943.32,-17.43"/>
</a>
</g>
</g>
<!-- Node23 -->
<g id="Node000023" class="node">
<title>Node23</title>
<g id="a_Node000023"><a xlink:title=" ">
<polygon fill="#e0e0e0" stroke="#999999" points="409,-19 355,-19 355,0 409,0 409,-19"/>
<text text-anchor="middle" x="382" y="-7" font-family="Helvetica,sans-Serif" font-size="10.00">random</text>
</a>
</g>
</g>
<!-- Node22&#45;&gt;Node23 -->
<g id="edge31_Node000022_Node000023" class="edge">
<title>Node22&#45;&gt;Node23</title>
<g id="a_edge31_Node000022_Node000023"><a xlink:title=" ">
<path fill="none" stroke="#63b8ff" d="M382.85,-60.37C382.71,-52.25 382.5,-39.81 382.32,-29.39"/>
<polygon fill="#63b8ff" stroke="#63b8ff" points="385.82,-29.11 382.15,-19.17 378.82,-29.23 385.82,-29.11"/>
</a>
</g>
</g>
<!-- Node24 -->
<g id="Node000024" class="node">
<title>Node24</title>
<g id="a_Node000024"><a xlink:title=" ">
<polygon fill="#e0e0e0" stroke="#999999" points="483,-19 427,-19 427,0 483,0 483,-19"/>
<text text-anchor="middle" x="455" y="-7" font-family="Helvetica,sans-Serif" font-size="10.00">sstream</text>
</a>
</g>
</g>
<!-- Node22&#45;&gt;Node24 -->
<g id="edge32_Node000022_Node000024" class="edge">
<title>Node22&#45;&gt;Node24</title>
<g id="a_edge32_Node000022_Node000024"><a xlink:title=" ">
<path fill="none" stroke="#63b8ff" d="M393.62,-60.37C404.9,-51.21 422.92,-36.56 436.53,-25.51"/>
<polygon fill="#63b8ff" stroke="#63b8ff" points="438.78,-28.19 444.33,-19.17 434.36,-22.76 438.78,-28.19"/>
</a>
</g>
</g>
<!-- Node25 -->
<g id="Node000025" class="node">
<title>Node25</title>
<g id="a_Node000025"><a xlink:title=" ">
<polygon fill="#e0e0e0" stroke="#999999" points="336.5,-19 281.5,-19 281.5,0 336.5,0 336.5,-19"/>
<text text-anchor="middle" x="309" y="-7" font-family="Helvetica,sans-Serif" font-size="10.00">fstream</text>
</a>
</g>
</g>
<!-- Node22&#45;&gt;Node25 -->
<g id="edge33_Node000022_Node000025" class="edge">
<title>Node22&#45;&gt;Node25</title>
<g id="a_edge33_Node000022_Node000025"><a xlink:title=" ">
<path fill="none" stroke="#63b8ff" d="M372.08,-60.37C360.49,-51.21 341.97,-36.56 327.98,-25.51"/>
<polygon fill="#63b8ff" stroke="#63b8ff" points="329.98,-22.62 319.96,-19.17 325.64,-28.11 329.98,-22.62"/>
</a>
</g>
</g>
<!-- Node26&#45;&gt;Node7 -->
<g id="edge38_Node000026_Node000007" class="edge">
<title>Node26&#45;&gt;Node7</title>
<g id="a_edge38_Node000026_Node000007"><a xlink:title=" ">
<path fill="none" stroke="#63b8ff" d="M409.08,-175.92C420.12,-161.93 437.62,-139.88 453,-121 480.44,-87.32 513.09,-48.37 531.18,-26.88"/>
<polygon fill="#63b8ff" stroke="#63b8ff" points="534.01,-28.95 537.78,-19.05 528.66,-24.44 534.01,-28.95"/>
</a>
</g>
</g>
<!-- Node26&#45;&gt;Node18 -->
<g id="edge40_Node000026_Node000018" class="edge">
<title>Node26&#45;&gt;Node18</title>
<g id="a_edge40_Node000026_Node000018"><a xlink:title=" ">
<path fill="none" stroke="#63b8ff" d="M463.8,-177.37C466.9,-176.89 469.98,-176.42 473,-176 623.15,-154.87 801.91,-140.94 888.25,-134.91"/>
<polygon fill="#63b8ff" stroke="#63b8ff" points="888.57,-138.4 898.31,-134.21 888.09,-131.41 888.57,-138.4"/>
</a>
</g>
</g>
<!-- Node27 -->
<g id="Node000027" class="node">
<title>Node27</title>
<g id="a_Node000027"><a xlink:title=" ">
<polygon fill="#e0e0e0" stroke="#999999" points="500,-140 462,-140 462,-121 500,-121 500,-140"/>
<text text-anchor="middle" x="481" y="-128" font-family="Helvetica,sans-Serif" font-size="10.00">map</text>
</a>
</g>
</g>
<!-- Node26&#45;&gt;Node27 -->
<g id="edge37_Node000026_Node000027" class="edge">
<title>Node26&#45;&gt;Node27</title>
<g id="a_edge37_Node000026_Node000027"><a xlink:title=" ">
<path fill="none" stroke="#63b8ff" d="M418.09,-175.84C430.88,-166.83 447.4,-155.18 460.3,-146.09"/>
<polygon fill="#63b8ff" stroke="#63b8ff" points="462.41,-148.89 468.56,-140.27 458.37,-143.17 462.41,-148.89"/>
</a>
</g>
</g>
<!-- Node28 -->
<g id="Node000028" class="node">
<title>Node28</title>
<g id="a_Node000028"><a xlink:title=" ">
<polygon fill="#e0e0e0" stroke="#999999" points="406,-140 356,-140 356,-121 406,-121 406,-140"/>
<text text-anchor="middle" x="381" y="-128" font-family="Helvetica,sans-Serif" font-size="10.00">format</text>
</a>
</g>
</g>
<!-- Node26&#45;&gt;Node28 -->
<g id="edge39_Node000026_Node000028" class="edge">
<title>Node26&#45;&gt;Node28</title>
<g id="a_edge39_Node000026_Node000028"><a xlink:title=" ">
<path fill="none" stroke="#63b8ff" d="M393.88,-175.84C391.62,-168.04 388.78,-158.27 386.34,-149.89"/>
<polygon fill="#63b8ff" stroke="#63b8ff" points="389.7,-148.89 383.55,-140.27 382.98,-150.85 389.7,-148.89"/>
</a>
</g>
</g>
<!-- Node29&#45;&gt;Node5 -->
<g id="edge45_Node000029_Node000005" class="edge">
<title>Node29&#45;&gt;Node5</title>
<g id="a_edge45_Node000029_Node000005"><a xlink:title=" ">
<path fill="none" stroke="#63b8ff" d="M244.79,-54.99C220.26,-45.23 187.85,-32.33 164.24,-22.93"/>
<polygon fill="#63b8ff" stroke="#63b8ff" points="165.29,-19.58 154.71,-19.14 162.71,-26.09 165.29,-19.58"/>
</a>
</g>
</g>
<!-- Node29&#45;&gt;Node7 -->
<g id="edge44_Node000029_Node000007" class="edge">
<title>Node29&#45;&gt;Node7</title>
<g id="a_edge44_Node000029_Node000007"><a xlink:title=" ">
<path fill="none" stroke="#63b8ff" d="M341.8,-55.36C395.23,-43.56 470.37,-26.98 512.7,-17.63"/>
<polygon fill="#63b8ff" stroke="#63b8ff" points="513.71,-20.99 522.72,-15.42 512.2,-14.16 513.71,-20.99"/>
</a>
</g>
</g>
<!-- Node29&#45;&gt;Node25 -->
<g id="edge46_Node000029_Node000025" class="edge">
<title>Node29&#45;&gt;Node25</title>
<g id="a_edge46_Node000029_Node000025"><a xlink:title=" ">
<path fill="none" stroke="#63b8ff" d="M287.02,-54.84C290.97,-46.87 295.94,-36.84 300.16,-28.33"/>
<polygon fill="#63b8ff" stroke="#63b8ff" points="303.35,-29.78 304.65,-19.27 297.08,-26.67 303.35,-29.78"/>
</a>
</g>
</g>
<!-- Node30&#45;&gt;Node4 -->
<g id="edge51_Node000030_Node000004" class="edge">
<title>Node30&#45;&gt;Node4</title>
<g id="a_edge51_Node000030_Node000004"><a xlink:title=" ">
<path fill="none" stroke="#63b8ff" d="M849.72,-423.44C751.02,-401.38 488.08,-342.61 379.23,-318.28"/>
<polygon fill="#63b8ff" stroke="#63b8ff" points="379.71,-314.8 369.18,-316.03 378.18,-321.63 379.71,-314.8"/>
</a>
</g>
</g>
<!-- Node30&#45;&gt;Node15 -->
<g id="edge50_Node000030_Node000015" class="edge">
<title>Node30&#45;&gt;Node15</title>
<g id="a_edge50_Node000030_Node000015"><a xlink:title=" ">
<path fill="none" stroke="#63b8ff" d="M956.82,-430.98C1056.98,-428.25 1236.68,-418.28 1289,-382 1319.71,-360.7 1328,-344.87 1328,-307.5 1328,-307.5 1328,-307.5 1328,-190 1328,-141.09 1277.28,-103.73 1244.72,-84.79"/>
<polygon fill="#63b8ff" stroke="#63b8ff" points="1246.11,-81.56 1235.67,-79.73 1242.69,-87.67 1246.11,-81.56"/>
</a>
</g>
</g>
<!-- Node31 -->
<g id="Node000031" class="node">
<title>Node31</title>
<g id="a_Node000031"><a xlink:title=" ">
<polygon fill="#e0e0e0" stroke="#999999" points="816.5,-376.5 747.5,-376.5 747.5,-357.5 816.5,-357.5 816.5,-376.5"/>
<text text-anchor="middle" x="782" y="-364.5" font-family="Helvetica,sans-Serif" font-size="10.00">type_traits</text>
</a>
</g>
</g>
<!-- Node30&#45;&gt;Node31 -->
<g id="edge48_Node000030_Node000031" class="edge">
<title>Node30&#45;&gt;Node31</title>
<g id="a_edge48_Node000030_Node000031"><a xlink:title=" ">
<path fill="none" stroke="#63b8ff" d="M873.7,-423.37C856.08,-412.73 825.91,-394.51 805.01,-381.89"/>
<polygon fill="#63b8ff" stroke="#63b8ff" points="806.78,-378.87 796.41,-376.7 803.16,-384.86 806.78,-378.87"/>
</a>
</g>
</g>
<!-- Node32 -->
<g id="Node000032" class="node">
<title>Node32</title>
<g id="a_Node000032"><a xlink:title=" ">
<polygon fill="#e0e0e0" stroke="#999999" points="941.5,-382 834.5,-382 834.5,-352 941.5,-352 941.5,-382"/>
<text text-anchor="start" x="842.5" y="-370" font-family="Helvetica,sans-Serif" font-size="10.00">imgui&#45;platform&#45;kit</text>
<text text-anchor="middle" x="888" y="-359" font-family="Helvetica,sans-Serif" font-size="10.00">/user_interface.h</text>
</a>
</g>
</g>
<!-- Node30&#45;&gt;Node32 -->
<g id="edge49_Node000030_Node000032" class="edge">
<title>Node30&#45;&gt;Node32</title>
<g id="a_edge49_Node000030_Node000032"><a xlink:title=" ">
<path fill="none" stroke="#63b8ff" d="M888,-423.37C888,-415.49 888,-403.45 888,-392.6"/>
<polygon fill="#63b8ff" stroke="#63b8ff" points="891.5,-392.36 888,-382.36 884.5,-392.36 891.5,-392.36"/>
</a>
</g>
</g>
<!-- Node33 -->
<g id="Node000033" class="node">
<title>Node33</title>
<g id="a_Node000033"><a xlink:href="visualization_8h.html" target="_top" xlink:title=" ">
<polygon fill="white" stroke="#666666" points="1112.5,-376.5 959.5,-376.5 959.5,-357.5 1112.5,-357.5 1112.5,-376.5"/>
<text text-anchor="middle" x="1036" y="-364.5" font-family="Helvetica,sans-Serif" font-size="10.00">visualization/visualization.h</text>
</a>
</g>
</g>
<!-- Node30&#45;&gt;Node33 -->
<g id="edge52_Node000030_Node000033" class="edge">
<title>Node30&#45;&gt;Node33</title>
<g id="a_edge52_Node000030_Node000033"><a xlink:title=" ">
<path fill="none" stroke="#63b8ff" d="M907.96,-423.37C933.34,-412.39 977.36,-393.36 1006.59,-380.72"/>
<polygon fill="#63b8ff" stroke="#63b8ff" points="1008.09,-383.88 1015.88,-376.7 1005.32,-377.46 1008.09,-383.88"/>
</a>
</g>
</g>
<!-- Node38 -->
<g id="Node000038" class="node">
<title>Node38</title>
<g id="a_Node000038"><a xlink:href="imgui__freetype_8h.html" target="_top" xlink:title=" ">
<polygon fill="white" stroke="#666666" points="1280,-382 1166,-382 1166,-352 1280,-352 1280,-382"/>
<text text-anchor="start" x="1174" y="-370" font-family="Helvetica,sans-Serif" font-size="10.00">user_interface/fonts</text>
<text text-anchor="middle" x="1223" y="-359" font-family="Helvetica,sans-Serif" font-size="10.00">/imgui_freetype.h</text>
</a>
</g>
</g>
<!-- Node30&#45;&gt;Node38 -->
<g id="edge68_Node000030_Node000038" class="edge">
<title>Node30&#45;&gt;Node38</title>
<g id="a_edge68_Node000030_Node000038"><a xlink:title=" ">
<path fill="none" stroke="#63b8ff" d="M932.83,-423.44C990.07,-412.5 1089.6,-393.49 1155.89,-380.82"/>
<polygon fill="#63b8ff" stroke="#63b8ff" points="1156.66,-384.24 1165.83,-378.92 1155.35,-377.36 1156.66,-384.24"/>
</a>
</g>
</g>
<!-- Node33&#45;&gt;Node4 -->
<g id="edge55_Node000033_Node000004" class="edge">
<title>Node33&#45;&gt;Node4</title>
<g id="a_edge55_Node000033_Node000004"><a xlink:title=" ">
<path fill="none" stroke="#63b8ff" d="M988.9,-357.45C976.6,-355.44 963.33,-353.45 951,-352 755.94,-328.98 524.85,-316.2 407.56,-310.74"/>
<polygon fill="#63b8ff" stroke="#63b8ff" points="407.4,-307.22 397.25,-310.26 407.08,-314.22 407.4,-307.22"/>
</a>
</g>
</g>
<!-- Node33&#45;&gt;Node5 -->
<g id="edge54_Node000033_Node000005" class="edge">
<title>Node33&#45;&gt;Node5</title>
<g id="a_edge54_Node000033_Node000005"><a xlink:title=" ">
<path fill="none" stroke="#63b8ff" d="M989.81,-357.43C977.26,-355.37 963.64,-353.36 951,-352 643.48,-318.82 561.95,-361.44 256,-316 140.05,-298.78 0,-369.73 0,-252.5 0,-252.5 0,-252.5 0,-129.5 0,-75.94 60.63,-40.46 100.02,-23.06"/>
<polygon fill="#63b8ff" stroke="#63b8ff" points="101.69,-26.15 109.53,-19.02 98.96,-19.71 101.69,-26.15"/>
</a>
</g>
</g>
<!-- Node33&#45;&gt;Node15 -->
<g id="edge56_Node000033_Node000015" class="edge">
<title>Node33&#45;&gt;Node15</title>
<g id="a_edge56_Node000033_Node000015"><a xlink:title=" ">
<path fill="none" stroke="#63b8ff" d="M1084.77,-357.39C1138.68,-344.74 1218,-315.43 1218,-252.5 1218,-252.5 1218,-252.5 1218,-190 1218,-154.65 1218,-113.4 1218,-89.92"/>
<polygon fill="#63b8ff" stroke="#63b8ff" points="1221.5,-89.66 1218,-79.66 1214.5,-89.66 1221.5,-89.66"/>
</a>
</g>
</g>
<!-- Node33&#45;&gt;Node18 -->
<g id="edge63_Node000033_Node000018" class="edge">
<title>Node33&#45;&gt;Node18</title>
<g id="a_edge63_Node000033_Node000018"><a xlink:title=" ">
<path fill="none" stroke="#63b8ff" d="M1066.31,-357.35C1086.27,-349.9 1110.87,-336.96 1123,-316 1139.47,-287.53 1139.16,-270.64 1123,-242 1092.81,-188.51 1025.19,-158 981.13,-143.11"/>
<polygon fill="#63b8ff" stroke="#63b8ff" points="982.16,-139.77 971.57,-140 980,-146.42 982.16,-139.77"/>
</a>
</g>
</g>
<!-- Node33&#45;&gt;Node19 -->
<g id="edge53_Node000033_Node000019" class="edge">
<title>Node33&#45;&gt;Node19</title>
<g id="a_edge53_Node000033_Node000019"><a xlink:title=" ">
<path fill="none" stroke="#63b8ff" d="M1065.49,-357.44C1107.62,-343.18 1180,-310.28 1180,-252.5 1180,-252.5 1180,-252.5 1180,-190 1180,-147.37 1145.13,-107.55 1122.94,-86.52"/>
<polygon fill="#63b8ff" stroke="#63b8ff" points="1125.17,-83.82 1115.43,-79.66 1120.45,-88.99 1125.17,-83.82"/>
</a>
</g>
</g>
<!-- Node34 -->
<g id="Node000034" class="node">
<title>Node34</title>
<g id="a_Node000034"><a xlink:href="plot_8h.html" target="_top" xlink:title=" ">
<polygon fill="white" stroke="#666666" points="1114,-261 1070,-261 1070,-242 1114,-242 1114,-261"/>
<text text-anchor="middle" x="1092" y="-249" font-family="Helvetica,sans-Serif" font-size="10.00">plot.h</text>
</a>
</g>
</g>
<!-- Node33&#45;&gt;Node34 -->
<g id="edge57_Node000033_Node000034" class="edge">
<title>Node33&#45;&gt;Node34</title>
<g id="a_edge57_Node000033_Node000034"><a xlink:title=" ">
<path fill="none" stroke="#63b8ff" d="M1018.87,-357.34C996.25,-344.73 961.05,-320.27 977,-297 986.73,-282.8 1029.62,-268.88 1060.17,-260.49"/>
<polygon fill="#63b8ff" stroke="#63b8ff" points="1061.23,-263.83 1069.99,-257.87 1059.42,-257.07 1061.23,-263.83"/>
</a>
</g>
</g>
<!-- Node36 -->
<g id="Node000036" class="node">
<title>Node36</title>
<g id="a_Node000036"><a xlink:href="lineplot_8h.html" target="_top" xlink:title=" ">
<polygon fill="white" stroke="#666666" points="1114,-316 986,-316 986,-297 1114,-297 1114,-316"/>
<text text-anchor="middle" x="1050" y="-304" font-family="Helvetica,sans-Serif" font-size="10.00">visualization/lineplot.h</text>
</a>
</g>
</g>
<!-- Node33&#45;&gt;Node36 -->
<g id="edge64_Node000033_Node000036" class="edge">
<title>Node33&#45;&gt;Node36</title>
<g id="a_edge64_Node000033_Node000036"><a xlink:title=" ">
<path fill="none" stroke="#63b8ff" d="M1038.07,-357.37C1040.03,-349.16 1043.05,-336.54 1045.56,-326.05"/>
<polygon fill="#63b8ff" stroke="#63b8ff" points="1049,-326.71 1047.93,-316.17 1042.19,-325.08 1049,-326.71"/>
</a>
</g>
</g>
<!-- Node37 -->
<g id="Node000037" class="node">
<title>Node37</title>
<g id="a_Node000037"><a xlink:href="heatmap_8h.html" target="_top" xlink:title=" ">
<polygon fill="white" stroke="#666666" points="930,-316 796,-316 796,-297 930,-297 930,-316"/>
<text text-anchor="middle" x="863" y="-304" font-family="Helvetica,sans-Serif" font-size="10.00">visualization/heatmap.h</text>
</a>
</g>
</g>
<!-- Node33&#45;&gt;Node37 -->
<g id="edge66_Node000033_Node000037" class="edge">
<title>Node33&#45;&gt;Node37</title>
<g id="a_edge66_Node000033_Node000037"><a xlink:title=" ">
<path fill="none" stroke="#63b8ff" d="M1010.84,-357.49C981.12,-347.44 931.48,-330.66 898.01,-319.34"/>
<polygon fill="#63b8ff" stroke="#63b8ff" points="898.78,-315.9 888.19,-316.02 896.54,-322.54 898.78,-315.9"/>
</a>
</g>
</g>
<!-- Node35 -->
<g id="Node000035" class="node">
<title>Node35</title>
<g id="a_Node000035"><a xlink:href="plot__parameters_8h.html" target="_top" xlink:title=" ">
<polygon fill="white" stroke="#666666" points="962,-200.5 856,-200.5 856,-181.5 962,-181.5 962,-200.5"/>
<text text-anchor="middle" x="909" y="-188.5" font-family="Helvetica,sans-Serif" font-size="10.00">plot_parameters.h</text>
</a>
</g>
</g>
<!-- Node34&#45;&gt;Node35 -->
<g id="edge58_Node000034_Node000035" class="edge">
<title>Node34&#45;&gt;Node35</title>
<g id="a_edge58_Node000034_Node000035"><a xlink:title=" ">
<path fill="none" stroke="#63b8ff" d="M1069.93,-243.44C1039.08,-233.58 982.69,-215.56 945.53,-203.68"/>
<polygon fill="#63b8ff" stroke="#63b8ff" points="946.19,-200.21 935.6,-200.5 944.05,-206.88 946.19,-200.21"/>
</a>
</g>
</g>
<!-- Node35&#45;&gt;Node5 -->
<g id="edge61_Node000035_Node000005" class="edge">
<title>Node35&#45;&gt;Node5</title>
<g id="a_edge61_Node000035_Node000005"><a xlink:title=" ">
<path fill="none" stroke="#63b8ff" d="M873.01,-181.49C864.51,-179.58 855.45,-177.64 847,-176 697.59,-147 659.7,-142.29 509,-121 376.03,-102.21 330.07,-143.1 209,-85 181.76,-71.93 158.32,-45.17 144.93,-27.53"/>
<polygon fill="#63b8ff" stroke="#63b8ff" points="147.61,-25.27 138.88,-19.26 141.96,-29.4 147.61,-25.27"/>
</a>
</g>
</g>
<!-- Node35&#45;&gt;Node7 -->
<g id="edge60_Node000035_Node000007" class="edge">
<title>Node35&#45;&gt;Node7</title>
<g id="a_edge60_Node000035_Node000007"><a xlink:title=" ">
<path fill="none" stroke="#63b8ff" d="M891.44,-181.34C832.58,-152.31 641.96,-58.31 571.5,-23.57"/>
<polygon fill="#63b8ff" stroke="#63b8ff" points="572.9,-20.35 562.38,-19.07 569.8,-26.63 572.9,-20.35"/>
</a>
</g>
</g>
<!-- Node35&#45;&gt;Node18 -->
<g id="edge62_Node000035_Node000018" class="edge">
<title>Node35&#45;&gt;Node18</title>
<g id="a_edge62_Node000035_Node000018"><a xlink:title=" ">
<path fill="none" stroke="#63b8ff" d="M913.57,-181.37C918.06,-172.9 925.03,-159.74 930.69,-149.07"/>
<polygon fill="#63b8ff" stroke="#63b8ff" points="933.82,-150.64 935.41,-140.17 927.63,-147.36 933.82,-150.64"/>
</a>
</g>
</g>
<!-- Node35&#45;&gt;Node27 -->
<g id="edge59_Node000035_Node000027" class="edge">
<title>Node35&#45;&gt;Node27</title>
<g id="a_edge59_Node000035_Node000027"><a xlink:title=" ">
<path fill="none" stroke="#63b8ff" d="M874.38,-181.45C865.49,-179.46 855.93,-177.49 847,-176 700.16,-151.57 660.46,-166.64 514,-140 512.72,-139.77 511.42,-139.51 510.11,-139.24"/>
<polygon fill="#63b8ff" stroke="#63b8ff" points="510.62,-135.77 500.09,-136.92 509.04,-142.59 510.62,-135.77"/>
</a>
</g>
</g>
<!-- Node36&#45;&gt;Node34 -->
<g id="edge65_Node000036_Node000034" class="edge">
<title>Node36&#45;&gt;Node34</title>
<g id="a_edge65_Node000036_Node000034"><a xlink:title=" ">
<path fill="none" stroke="#63b8ff" d="M1056.94,-296.75C1062.87,-289.26 1071.57,-278.28 1078.82,-269.13"/>
<polygon fill="#63b8ff" stroke="#63b8ff" points="1081.73,-271.1 1085.19,-261.09 1076.24,-266.75 1081.73,-271.1"/>
</a>
</g>
</g>
<!-- Node37&#45;&gt;Node34 -->
<g id="edge67_Node000037_Node000034" class="edge">
<title>Node37&#45;&gt;Node34</title>
<g id="a_edge67_Node000037_Node000034"><a xlink:title=" ">
<path fill="none" stroke="#63b8ff" d="M900.37,-296.94C939.26,-288.03 1001.92,-273.62 1056,-261 1057.27,-260.7 1058.56,-260.4 1059.86,-260.1"/>
<polygon fill="#63b8ff" stroke="#63b8ff" points="1060.99,-263.43 1069.92,-257.73 1059.38,-256.61 1060.99,-263.43"/>
</a>
</g>
</g>
<!-- Node39 -->
<g id="Node000039" class="node">
<title>Node39</title>
<g id="a_Node000039"><a xlink:title=" ">
<polygon fill="#e0e0e0" stroke="#999999" points="1299.5,-316 1246.5,-316 1246.5,-297 1299.5,-297 1299.5,-316"/>
<text text-anchor="middle" x="1273" y="-304" font-family="Helvetica,sans-Serif" font-size="10.00">imgui.h</text>
</a>
</g>
</g>
<!-- Node38&#45;&gt;Node39 -->
<g id="edge69_Node000038_Node000039" class="edge">
<title>Node38&#45;&gt;Node39</title>
<g id="a_edge69_Node000038_Node000039"><a xlink:title=" ">
<path fill="none" stroke="#63b8ff" d="M1235.1,-351.84C1242.29,-343.43 1251.43,-332.74 1258.93,-323.96"/>
<polygon fill="#63b8ff" stroke="#63b8ff" points="1261.67,-326.14 1265.51,-316.27 1256.35,-321.59 1261.67,-326.14"/>
</a>
</g>
</g>
</g>
</svg>
