<?xml version="1.0" encoding="UTF-8" standalone="no"?>
<!DOCTYPE svg PUBLIC "-//W3C//DTD SVG 1.1//EN"
 "http://www.w3.org/Graphics/SVG/1.1/DTD/svg11.dtd">
<!-- Generated by graphviz version 2.43.0 (0)
 -->
<!-- Title: dnf_composer::PlotCommonParameters::toString Pages: 1 -->
<svg width="368pt" height="86pt"
 viewBox="0.00 0.00 368.00 86.00" xmlns="http://www.w3.org/2000/svg" xmlns:xlink="http://www.w3.org/1999/xlink">
<g id="graph0" class="graph" transform="scale(1 1) rotate(0) translate(4 82)">
<title>dnf_composer::PlotCommonParameters::toString</title>
<!-- Node1 -->
<g id="Node000001" class="node">
<title>Node1</title>
<g id="a_Node000001"><a xlink:title=" ">
<polygon fill="#999999" stroke="#666666" points="155,-54 0,-54 0,-24 155,-24 155,-54"/>
<text text-anchor="start" x="8" y="-42" font-family="Helvetica,sans-Serif" font-size="10.00">dnf_composer::PlotCommon</text>
<text text-anchor="middle" x="77.5" y="-31" font-family="Helvetica,sans-Serif" font-size="10.00">Parameters::toString</text>
</a>
</g>
</g>
<!-- Node2 -->
<g id="Node000002" class="node">
<title>Node2</title>
<g id="a_Node000002"><a xlink:href="structdnf__composer_1_1PlotDimensions.html#a2d3269aa20d5e324f7acf9f85d4d7460" target="_top" xlink:title=" ">
<polygon fill="white" stroke="#666666" points="359.5,-78 191.5,-78 191.5,-48 359.5,-48 359.5,-78"/>
<text text-anchor="start" x="199.5" y="-66" font-family="Helvetica,sans-Serif" font-size="10.00">dnf_composer::PlotDimensions</text>
<text text-anchor="middle" x="275.5" y="-55" font-family="Helvetica,sans-Serif" font-size="10.00">::toString</text>
</a>
</g>
</g>
<!-- Node1&#45;&gt;Node2 -->
<g id="edge1_Node000001_Node000002" class="edge">
<title>Node1&#45;&gt;Node2</title>
<g id="a_edge1_Node000001_Node000002"><a xlink:title=" ">
<path fill="none" stroke="#63b8ff" d="M155.12,-48.38C163.78,-49.44 172.67,-50.53 181.51,-51.61"/>
<polygon fill="#63b8ff" stroke="#63b8ff" points="181.1,-55.09 191.45,-52.83 181.95,-48.14 181.1,-55.09"/>
</a>
</g>
</g>
<!-- Node3 -->
<g id="Node000003" class="node">
<title>Node3</title>
<g id="a_Node000003"><a xlink:href="structdnf__composer_1_1PlotAnnotations.html#aef0fb7926b0f41734d3ddba4c506ef1d" target="_top" xlink:title=" ">
<polygon fill="white" stroke="#666666" points="360,-30 191,-30 191,0 360,0 360,-30"/>
<text text-anchor="start" x="199" y="-18" font-family="Helvetica,sans-Serif" font-size="10.00">dnf_composer::PlotAnnotations</text>
<text text-anchor="middle" x="275.5" y="-7" font-family="Helvetica,sans-Serif" font-size="10.00">::toString</text>
</a>
</g>
</g>
<!-- Node1&#45;&gt;Node3 -->
<g id="edge2_Node000001_Node000003" class="edge">
<title>Node1&#45;&gt;Node3</title>
<g id="a_edge2_Node000001_Node000003"><a xlink:title=" ">
<path fill="none" stroke="#63b8ff" d="M155.12,-29.62C163.53,-28.59 172.16,-27.53 180.75,-26.48"/>
<polygon fill="#63b8ff" stroke="#63b8ff" points="181.3,-29.94 190.8,-25.25 180.45,-22.99 181.3,-29.94"/>
</a>
</g>
</g>
</g>
</svg>
