<?xml version="1.0" encoding="UTF-8" standalone="no"?>
<!DOCTYPE svg PUBLIC "-//W3C//DTD SVG 1.1//EN"
 "http://www.w3.org/Graphics/SVG/1.1/DTD/svg11.dtd">
<!-- Generated by graphviz version 2.43.0 (0)
 -->
<!-- Title: dnf_composer::element::ElementDimensions::toString Pages: 1 -->
<svg width="549pt" height="666pt"
 viewBox="0.00 0.00 549.00 666.00" xmlns="http://www.w3.org/2000/svg" xmlns:xlink="http://www.w3.org/1999/xlink">
<g id="graph0" class="graph" transform="scale(1 1) rotate(0) translate(4 662)">
<title>dnf_composer::element::ElementDimensions::toString</title>
<!-- Node1 -->
<g id="Node000001" class="node">
<title>Node1</title>
<g id="a_Node000001"><a xlink:title=" ">
<polygon fill="#999999" stroke="#666666" points="541,-579.5 409,-579.5 409,-538.5 541,-538.5 541,-579.5"/>
<text text-anchor="start" x="417" y="-567.5" font-family="Helvetica,sans-Serif" font-size="10.00">dnf_composer::element</text>
<text text-anchor="start" x="417" y="-556.5" font-family="Helvetica,sans-Serif" font-size="10.00">::ElementDimensions::</text>
<text text-anchor="middle" x="475" y="-545.5" font-family="Helvetica,sans-Serif" font-size="10.00">toString</text>
</a>
</g>
</g>
<!-- Node2 -->
<g id="Node000002" class="node">
<title>Node2</title>
<g id="a_Node000002"><a xlink:href="structdnf__composer_1_1element_1_1ElementDimensions.html#a61dc48a63bf6451065883ea37f0228fa" target="_top" xlink:title=" ">
<polygon fill="white" stroke="#666666" points="360.5,-658 211.5,-658 211.5,-628 360.5,-628 360.5,-658"/>
<text text-anchor="start" x="219.5" y="-646" font-family="Helvetica,sans-Serif" font-size="10.00">dnf_composer::element</text>
<text text-anchor="middle" x="286" y="-635" font-family="Helvetica,sans-Serif" font-size="10.00">::ElementDimensions::print</text>
</a>
</g>
</g>
<!-- Node1&#45;&gt;Node2 -->
<g id="edge1_Node000001_Node000002" class="edge">
<title>Node1&#45;&gt;Node2</title>
<g id="a_edge1_Node000001_Node000002"><a xlink:title=" ">
<path fill="none" stroke="#63b8ff" d="M435.53,-585.11C417.2,-596.7 394.59,-609.77 373,-619 365.3,-622.29 357.03,-625.26 348.76,-627.9"/>
<polygon fill="#63b8ff" stroke="#63b8ff" points="437.65,-587.92 444.17,-579.57 433.86,-582.03 437.65,-587.92"/>
</a>
</g>
</g>
<!-- Node3 -->
<g id="Node000003" class="node">
<title>Node3</title>
<g id="a_Node000003"><a xlink:href="structdnf__composer_1_1element_1_1ElementCommonParameters.html#a83c667c71a22c80a0e415da7fab9795b" target="_top" xlink:title=" ">
<polygon fill="white" stroke="#666666" points="367.5,-357.5 204.5,-357.5 204.5,-316.5 367.5,-316.5 367.5,-357.5"/>
<text text-anchor="start" x="212.5" y="-345.5" font-family="Helvetica,sans-Serif" font-size="10.00">dnf_composer::element</text>
<text text-anchor="start" x="212.5" y="-334.5" font-family="Helvetica,sans-Serif" font-size="10.00">::ElementCommonParameters</text>
<text text-anchor="middle" x="286" y="-323.5" font-family="Helvetica,sans-Serif" font-size="10.00">::toString</text>
</a>
</g>
</g>
<!-- Node1&#45;&gt;Node3 -->
<g id="edge2_Node000001_Node000003" class="edge">
<title>Node1&#45;&gt;Node3</title>
<g id="a_edge2_Node000001_Node000003"><a xlink:title=" ">
<path fill="none" stroke="#63b8ff" d="M449.92,-530.41C411.68,-485.02 337.97,-397.51 304.41,-357.67"/>
<polygon fill="#63b8ff" stroke="#63b8ff" points="447.29,-532.72 456.41,-538.11 452.64,-528.21 447.29,-532.72"/>
</a>
</g>
</g>
<!-- Node16 -->
<g id="Node000016" class="node">
<title>Node16</title>
<g id="a_Node000016"><a xlink:href="structdnf__composer_1_1element_1_1FieldCouplingParameters.html#ab9b737d98c9562b14a80f4163d5bd45b" target="_top" xlink:title=" ">
<polygon fill="white" stroke="#666666" points="358,-609.5 214,-609.5 214,-568.5 358,-568.5 358,-609.5"/>
<text text-anchor="start" x="222" y="-597.5" font-family="Helvetica,sans-Serif" font-size="10.00">dnf_composer::element</text>
<text text-anchor="start" x="222" y="-586.5" font-family="Helvetica,sans-Serif" font-size="10.00">::FieldCouplingParameters</text>
<text text-anchor="middle" x="286" y="-575.5" font-family="Helvetica,sans-Serif" font-size="10.00">::toString</text>
</a>
</g>
</g>
<!-- Node1&#45;&gt;Node16 -->
<g id="edge15_Node000001_Node000016" class="edge">
<title>Node1&#45;&gt;Node16</title>
<g id="a_edge15_Node000001_Node000016"><a xlink:title=" ">
<path fill="none" stroke="#63b8ff" d="M398.76,-571.07C385.41,-573.21 371.53,-575.44 358.29,-577.56"/>
<polygon fill="#63b8ff" stroke="#63b8ff" points="399.54,-574.49 408.86,-569.45 398.43,-567.58 399.54,-574.49"/>
</a>
</g>
</g>
<!-- Node17 -->
<g id="Node000017" class="node">
<title>Node17</title>
<g id="a_Node000017"><a xlink:href="structdnf__composer_1_1element_1_1GaussFieldCouplingParameters.html#a2e99d9d86c8a44b489917bf45d325d9a" target="_top" xlink:title=" ">
<polygon fill="white" stroke="#666666" points="373,-550.5 199,-550.5 199,-509.5 373,-509.5 373,-550.5"/>
<text text-anchor="start" x="207" y="-538.5" font-family="Helvetica,sans-Serif" font-size="10.00">dnf_composer::element</text>
<text text-anchor="start" x="207" y="-527.5" font-family="Helvetica,sans-Serif" font-size="10.00">::GaussFieldCouplingParameters</text>
<text text-anchor="middle" x="286" y="-516.5" font-family="Helvetica,sans-Serif" font-size="10.00">::toString</text>
</a>
</g>
</g>
<!-- Node1&#45;&gt;Node17 -->
<g id="edge17_Node000001_Node000017" class="edge">
<title>Node1&#45;&gt;Node17</title>
<g id="a_edge17_Node000001_Node000017"><a xlink:title=" ">
<path fill="none" stroke="#63b8ff" d="M398.76,-547.33C390.38,-546.03 381.79,-544.7 373.29,-543.38"/>
<polygon fill="#63b8ff" stroke="#63b8ff" points="398.44,-550.82 408.86,-548.9 399.51,-543.91 398.44,-550.82"/>
</a>
</g>
</g>
<!-- Node4 -->
<g id="Node000004" class="node">
<title>Node4</title>
<g id="a_Node000004"><a xlink:href="structdnf__composer_1_1element_1_1ElementCommonParameters.html#a446472a2d6a83b41ae55e42c024357f3" target="_top" xlink:title=" ">
<polygon fill="white" stroke="#666666" points="163,-196.5 0,-196.5 0,-155.5 163,-155.5 163,-196.5"/>
<text text-anchor="start" x="8" y="-184.5" font-family="Helvetica,sans-Serif" font-size="10.00">dnf_composer::element</text>
<text text-anchor="start" x="8" y="-173.5" font-family="Helvetica,sans-Serif" font-size="10.00">::ElementCommonParameters</text>
<text text-anchor="middle" x="81.5" y="-162.5" font-family="Helvetica,sans-Serif" font-size="10.00">::print</text>
</a>
</g>
</g>
<!-- Node3&#45;&gt;Node4 -->
<g id="edge3_Node000003_Node000004" class="edge">
<title>Node3&#45;&gt;Node4</title>
<g id="a_edge3_Node000003_Node000004"><a xlink:title=" ">
<path fill="none" stroke="#63b8ff" d="M264.78,-307.98C242.8,-278.37 205.14,-232.93 163,-205 158.42,-201.96 153.48,-199.2 148.38,-196.69"/>
<polygon fill="#63b8ff" stroke="#63b8ff" points="262.1,-310.24 270.82,-316.25 267.75,-306.11 262.1,-310.24"/>
</a>
</g>
</g>
<!-- Node5 -->
<g id="Node000005" class="node">
<title>Node5</title>
<g id="a_Node000005"><a xlink:href="classdnf__composer_1_1element_1_1AsymmetricGaussKernel.html#ad04b7f2dc4f17529affba6c44995de85" target="_top" xlink:title=" ">
<polygon fill="white" stroke="#666666" points="153,-137.5 10,-137.5 10,-96.5 153,-96.5 153,-137.5"/>
<text text-anchor="start" x="18" y="-125.5" font-family="Helvetica,sans-Serif" font-size="10.00">dnf_composer::element</text>
<text text-anchor="start" x="18" y="-114.5" font-family="Helvetica,sans-Serif" font-size="10.00">::AsymmetricGaussKernel</text>
<text text-anchor="middle" x="81.5" y="-103.5" font-family="Helvetica,sans-Serif" font-size="10.00">::toString</text>
</a>
</g>
</g>
<!-- Node3&#45;&gt;Node5 -->
<g id="edge4_Node000003_Node000005" class="edge">
<title>Node3&#45;&gt;Node5</title>
<g id="a_edge4_Node000003_Node000005"><a xlink:title=" ">
<path fill="none" stroke="#63b8ff" d="M273.23,-306.94C255.42,-265.16 217.78,-189.77 163,-146 159.17,-142.94 154.99,-140.19 150.61,-137.71"/>
<polygon fill="#63b8ff" stroke="#63b8ff" points="270.05,-308.42 277.13,-316.3 276.51,-305.72 270.05,-308.42"/>
</a>
</g>
</g>
<!-- Node6 -->
<g id="Node000006" class="node">
<title>Node6</title>
<g id="a_Node000006"><a xlink:href="classdnf__composer_1_1element_1_1BoostStimulus.html#a8d10a318500c48897e0be68daeb73486" target="_top" xlink:title=" ">
<polygon fill="white" stroke="#666666" points="150,-78 13,-78 13,-48 150,-48 150,-78"/>
<text text-anchor="start" x="21" y="-66" font-family="Helvetica,sans-Serif" font-size="10.00">dnf_composer::element</text>
<text text-anchor="middle" x="81.5" y="-55" font-family="Helvetica,sans-Serif" font-size="10.00">::BoostStimulus::toString</text>
</a>
</g>
</g>
<!-- Node3&#45;&gt;Node6 -->
<g id="edge5_Node000003_Node000006" class="edge">
<title>Node3&#45;&gt;Node6</title>
<g id="a_edge5_Node000003_Node000006"><a xlink:title=" ">
<path fill="none" stroke="#63b8ff" d="M278.59,-306.64C265.91,-254.06 232.59,-146 163,-87 159,-83.6 154.53,-80.69 149.8,-78.19"/>
<polygon fill="#63b8ff" stroke="#63b8ff" points="275.18,-307.44 280.86,-316.39 282,-305.86 275.18,-307.44"/>
</a>
</g>
</g>
<!-- Node7 -->
<g id="Node000007" class="node">
<title>Node7</title>
<g id="a_Node000007"><a xlink:href="classdnf__composer_1_1element_1_1FieldCoupling.html#a0ec7d17d851fa9007175794248bb9590" target="_top" xlink:title=" ">
<polygon fill="white" stroke="#666666" points="148,-604 15,-604 15,-574 148,-574 148,-604"/>
<text text-anchor="start" x="23" y="-592" font-family="Helvetica,sans-Serif" font-size="10.00">dnf_composer::element</text>
<text text-anchor="middle" x="81.5" y="-581" font-family="Helvetica,sans-Serif" font-size="10.00">::FieldCoupling::toString</text>
</a>
</g>
</g>
<!-- Node3&#45;&gt;Node7 -->
<g id="edge6_Node000003_Node000007" class="edge">
<title>Node3&#45;&gt;Node7</title>
<g id="a_edge6_Node000003_Node000007"><a xlink:title=" ">
<path fill="none" stroke="#63b8ff" d="M269.44,-366.65C237.52,-427.37 167.26,-560.49 163,-564 158.26,-567.91 152.9,-571.21 147.27,-573.99"/>
<polygon fill="#63b8ff" stroke="#63b8ff" points="272.66,-368.04 274.21,-357.56 266.46,-364.78 272.66,-368.04"/>
</a>
</g>
</g>
<!-- Node8 -->
<g id="Node000008" class="node">
<title>Node8</title>
<g id="a_Node000008"><a xlink:href="classdnf__composer_1_1element_1_1GaussFieldCoupling.html#a6af7a83156ac66cf5cfaafcbb16d2409" target="_top" xlink:title=" ">
<polygon fill="white" stroke="#666666" points="147.5,-555.5 15.5,-555.5 15.5,-514.5 147.5,-514.5 147.5,-555.5"/>
<text text-anchor="start" x="23.5" y="-543.5" font-family="Helvetica,sans-Serif" font-size="10.00">dnf_composer::element</text>
<text text-anchor="start" x="23.5" y="-532.5" font-family="Helvetica,sans-Serif" font-size="10.00">::GaussFieldCoupling</text>
<text text-anchor="middle" x="81.5" y="-521.5" font-family="Helvetica,sans-Serif" font-size="10.00">::toString</text>
</a>
</g>
</g>
<!-- Node3&#45;&gt;Node8 -->
<g id="edge7_Node000003_Node000008" class="edge">
<title>Node3&#45;&gt;Node8</title>
<g id="a_edge7_Node000003_Node000008"><a xlink:title=" ">
<path fill="none" stroke="#63b8ff" d="M270.36,-366.9C250.73,-404.12 212.53,-467.37 163,-505 158.25,-508.61 153.02,-511.82 147.57,-514.68"/>
<polygon fill="#63b8ff" stroke="#63b8ff" points="273.69,-368.08 275.17,-357.59 267.47,-364.86 273.69,-368.08"/>
</a>
</g>
</g>
<!-- Node9 -->
<g id="Node000009" class="node">
<title>Node9</title>
<g id="a_Node000009"><a xlink:href="classdnf__composer_1_1element_1_1GaussKernel.html#a7b8a9134ec53b0a10ad914ad363c4fd0" target="_top" xlink:title=" ">
<polygon fill="white" stroke="#666666" points="147.5,-30 15.5,-30 15.5,0 147.5,0 147.5,-30"/>
<text text-anchor="start" x="23.5" y="-18" font-family="Helvetica,sans-Serif" font-size="10.00">dnf_composer::element</text>
<text text-anchor="middle" x="81.5" y="-7" font-family="Helvetica,sans-Serif" font-size="10.00">::GaussKernel::toString</text>
</a>
</g>
</g>
<!-- Node3&#45;&gt;Node9 -->
<g id="edge8_Node000003_Node000009" class="edge">
<title>Node3&#45;&gt;Node9</title>
<g id="a_edge8_Node000003_Node000009"><a xlink:title=" ">
<path fill="none" stroke="#63b8ff" d="M281.19,-306.15C272.1,-245.86 243.52,-111.93 163,-39 158.46,-34.89 153.24,-31.48 147.69,-28.65"/>
<polygon fill="#63b8ff" stroke="#63b8ff" points="277.74,-306.78 282.62,-316.18 284.67,-305.79 277.74,-306.78"/>
</a>
</g>
</g>
<!-- Node10 -->
<g id="Node000010" class="node">
<title>Node10</title>
<g id="a_Node000010"><a xlink:href="classdnf__composer_1_1element_1_1GaussStimulus.html#a15f8c25e4db545c57c765a440e7a8cb7" target="_top" xlink:title=" ">
<polygon fill="white" stroke="#666666" points="151.5,-496 11.5,-496 11.5,-466 151.5,-466 151.5,-496"/>
<text text-anchor="start" x="19.5" y="-484" font-family="Helvetica,sans-Serif" font-size="10.00">dnf_composer::element</text>
<text text-anchor="middle" x="81.5" y="-473" font-family="Helvetica,sans-Serif" font-size="10.00">::GaussStimulus::toString</text>
</a>
</g>
</g>
<!-- Node3&#45;&gt;Node10 -->
<g id="edge9_Node000003_Node000010" class="edge">
<title>Node3&#45;&gt;Node10</title>
<g id="a_edge9_Node000003_Node000010"><a xlink:title=" ">
<path fill="none" stroke="#63b8ff" d="M262.69,-365.96C240.27,-393.17 203.34,-433.18 163,-457 157.22,-460.41 150.92,-463.37 144.48,-465.93"/>
<polygon fill="#63b8ff" stroke="#63b8ff" points="265.6,-367.93 269.17,-357.96 260.16,-363.53 265.6,-367.93"/>
</a>
</g>
</g>
<!-- Node11 -->
<g id="Node000011" class="node">
<title>Node11</title>
<g id="a_Node000011"><a xlink:href="classdnf__composer_1_1element_1_1MemoryTrace.html#ac660d6876aaa723c4a6afa5a4387a606" target="_top" xlink:title=" ">
<polygon fill="white" stroke="#666666" points="148,-448 15,-448 15,-418 148,-418 148,-448"/>
<text text-anchor="start" x="23" y="-436" font-family="Helvetica,sans-Serif" font-size="10.00">dnf_composer::element</text>
<text text-anchor="middle" x="81.5" y="-425" font-family="Helvetica,sans-Serif" font-size="10.00">::MemoryTrace::toString</text>
</a>
</g>
</g>
<!-- Node3&#45;&gt;Node11 -->
<g id="edge10_Node000003_Node000011" class="edge">
<title>Node3&#45;&gt;Node11</title>
<g id="a_edge10_Node000003_Node000011"><a xlink:title=" ">
<path fill="none" stroke="#63b8ff" d="M246.43,-363.05C223.05,-378 192.18,-396.27 163,-409 155.51,-412.27 147.45,-415.25 139.42,-417.92"/>
<polygon fill="#63b8ff" stroke="#63b8ff" points="248.52,-365.87 255.01,-357.5 244.71,-359.99 248.52,-365.87"/>
</a>
</g>
</g>
<!-- Node12 -->
<g id="Node000012" class="node">
<title>Node12</title>
<g id="a_Node000012"><a xlink:href="classdnf__composer_1_1element_1_1MexicanHatKernel.html#ac6310b5ece9178f4d0730302822b99e3" target="_top" xlink:title=" ">
<polygon fill="white" stroke="#666666" points="159.5,-400 3.5,-400 3.5,-370 159.5,-370 159.5,-400"/>
<text text-anchor="start" x="11.5" y="-388" font-family="Helvetica,sans-Serif" font-size="10.00">dnf_composer::element</text>
<text text-anchor="middle" x="81.5" y="-377" font-family="Helvetica,sans-Serif" font-size="10.00">::MexicanHatKernel::toString</text>
</a>
</g>
</g>
<!-- Node3&#45;&gt;Node12 -->
<g id="edge11_Node000003_Node000012" class="edge">
<title>Node3&#45;&gt;Node12</title>
<g id="a_edge11_Node000003_Node000012"><a xlink:title=" ">
<path fill="none" stroke="#63b8ff" d="M194.3,-358.5C177.99,-362.36 161.32,-366.32 146,-369.95"/>
<polygon fill="#63b8ff" stroke="#63b8ff" points="195.46,-361.82 204.38,-356.11 193.85,-355.01 195.46,-361.82"/>
</a>
</g>
</g>
<!-- Node13 -->
<g id="Node000013" class="node">
<title>Node13</title>
<g id="a_Node000013"><a xlink:href="classdnf__composer_1_1element_1_1NeuralField.html#acf0203117e7820c0902e2986a594e47f" target="_top" xlink:title=" ">
<polygon fill="white" stroke="#666666" points="147.5,-352 15.5,-352 15.5,-322 147.5,-322 147.5,-352"/>
<text text-anchor="start" x="23.5" y="-340" font-family="Helvetica,sans-Serif" font-size="10.00">dnf_composer::element</text>
<text text-anchor="middle" x="81.5" y="-329" font-family="Helvetica,sans-Serif" font-size="10.00">::NeuralField::toString</text>
</a>
</g>
</g>
<!-- Node3&#45;&gt;Node13 -->
<g id="edge12_Node000003_Node000013" class="edge">
<title>Node3&#45;&gt;Node13</title>
<g id="a_edge12_Node000003_Node000013"><a xlink:title=" ">
<path fill="none" stroke="#63b8ff" d="M194.14,-337C178.45,-337 162.42,-337 147.58,-337"/>
<polygon fill="#63b8ff" stroke="#63b8ff" points="194.38,-340.5 204.38,-337 194.38,-333.5 194.38,-340.5"/>
</a>
</g>
</g>
<!-- Node14 -->
<g id="Node000014" class="node">
<title>Node14</title>
<g id="a_Node000014"><a xlink:href="classdnf__composer_1_1element_1_1NormalNoise.html#a310344bc777d0f29351f0ffeaa3cd20c" target="_top" xlink:title=" ">
<polygon fill="white" stroke="#666666" points="147.5,-304 15.5,-304 15.5,-274 147.5,-274 147.5,-304"/>
<text text-anchor="start" x="23.5" y="-292" font-family="Helvetica,sans-Serif" font-size="10.00">dnf_composer::element</text>
<text text-anchor="middle" x="81.5" y="-281" font-family="Helvetica,sans-Serif" font-size="10.00">::NormalNoise::toString</text>
</a>
</g>
</g>
<!-- Node3&#45;&gt;Node14 -->
<g id="edge13_Node000003_Node000014" class="edge">
<title>Node3&#45;&gt;Node14</title>
<g id="a_edge13_Node000003_Node000014"><a xlink:title=" ">
<path fill="none" stroke="#63b8ff" d="M194.3,-315.5C177.99,-311.64 161.32,-307.68 146,-304.05"/>
<polygon fill="#63b8ff" stroke="#63b8ff" points="193.85,-318.99 204.38,-317.89 195.46,-312.18 193.85,-318.99"/>
</a>
</g>
</g>
<!-- Node15 -->
<g id="Node000015" class="node">
<title>Node15</title>
<g id="a_Node000015"><a xlink:href="classdnf__composer_1_1element_1_1OscillatoryKernel.html#aceabd095ff34c16767e66308bf408d63" target="_top" xlink:title=" ">
<polygon fill="white" stroke="#666666" points="147.5,-255.5 15.5,-255.5 15.5,-214.5 147.5,-214.5 147.5,-255.5"/>
<text text-anchor="start" x="23.5" y="-243.5" font-family="Helvetica,sans-Serif" font-size="10.00">dnf_composer::element</text>
<text text-anchor="start" x="23.5" y="-232.5" font-family="Helvetica,sans-Serif" font-size="10.00">::OscillatoryKernel::</text>
<text text-anchor="middle" x="81.5" y="-221.5" font-family="Helvetica,sans-Serif" font-size="10.00">toString</text>
</a>
</g>
</g>
<!-- Node3&#45;&gt;Node15 -->
<g id="edge14_Node000003_Node000015" class="edge">
<title>Node3&#45;&gt;Node15</title>
<g id="a_edge14_Node000003_Node000015"><a xlink:title=" ">
<path fill="none" stroke="#63b8ff" d="M245.14,-311.05C221.77,-296.46 191.35,-278.52 163,-265 156.13,-261.73 148.81,-258.57 141.48,-255.6"/>
<polygon fill="#63b8ff" stroke="#63b8ff" points="243.41,-314.1 253.73,-316.47 247.14,-308.18 243.41,-314.1"/>
</a>
</g>
</g>
<!-- Node16&#45;&gt;Node7 -->
<g id="edge16_Node000016_Node000007" class="edge">
<title>Node16&#45;&gt;Node7</title>
<g id="a_edge16_Node000016_Node000007"><a xlink:title=" ">
<path fill="none" stroke="#63b8ff" d="M203.72,-589C185.21,-589 165.77,-589 148.02,-589"/>
<polygon fill="#63b8ff" stroke="#63b8ff" points="203.89,-592.5 213.89,-589 203.89,-585.5 203.89,-592.5"/>
</a>
</g>
</g>
<!-- Node17&#45;&gt;Node8 -->
<g id="edge18_Node000017_Node000008" class="edge">
<title>Node17&#45;&gt;Node8</title>
<g id="a_edge18_Node000017_Node000008"><a xlink:title=" ">
<path fill="none" stroke="#63b8ff" d="M188.75,-532.38C174.85,-532.72 160.83,-533.07 147.73,-533.39"/>
<polygon fill="#63b8ff" stroke="#63b8ff" points="188.92,-535.87 198.83,-532.13 188.74,-528.88 188.92,-535.87"/>
</a>
</g>
</g>
</g>
</svg>
