<?xml version="1.0" encoding="UTF-8" standalone="no"?>
<!DOCTYPE svg PUBLIC "-//W3C//DTD SVG 1.1//EN"
 "http://www.w3.org/Graphics/SVG/1.1/DTD/svg11.dtd">
<!-- Generated by graphviz version 2.43.0 (0)
 -->
<!-- Title: dnf_composer::element::AbsSigmoidFunction::print Pages: 1 -->
<svg width="308pt" height="98pt"
 viewBox="0.00 0.00 308.00 97.50" xmlns="http://www.w3.org/2000/svg" xmlns:xlink="http://www.w3.org/1999/xlink">
<g id="graph0" class="graph" transform="scale(1 1) rotate(0) translate(4 93.5)">
<title>dnf_composer::element::AbsSigmoidFunction::print</title>
<!-- Node1 -->
<g id="Node000001" class="node">
<title>Node1</title>
<g id="a_Node000001"><a xlink:title=" ">
<polygon fill="#999999" stroke="#666666" points="132,-68 0,-68 0,-27 132,-27 132,-68"/>
<text text-anchor="start" x="8" y="-56" font-family="Helvetica,sans-Serif" font-size="10.00">dnf_composer::element</text>
<text text-anchor="start" x="8" y="-45" font-family="Helvetica,sans-Serif" font-size="10.00">::AbsSigmoidFunction</text>
<text text-anchor="middle" x="66" y="-34" font-family="Helvetica,sans-Serif" font-size="10.00">::print</text>
</a>
</g>
</g>
<!-- Node2 -->
<g id="Node000002" class="node">
<title>Node2</title>
<g id="a_Node000002"><a xlink:href="namespacednf__composer_1_1tools_1_1logger.html#af64ef64b3026606a73972fdcae2ca87a" target="_top" xlink:title=" ">
<polygon fill="white" stroke="#666666" points="292,-89.5 176,-89.5 176,-59.5 292,-59.5 292,-89.5"/>
<text text-anchor="start" x="184" y="-77.5" font-family="Helvetica,sans-Serif" font-size="10.00">dnf_composer::tools</text>
<text text-anchor="middle" x="234" y="-66.5" font-family="Helvetica,sans-Serif" font-size="10.00">::logger::log</text>
</a>
</g>
</g>
<!-- Node1&#45;&gt;Node2 -->
<g id="edge1_Node000001_Node000002" class="edge">
<title>Node1&#45;&gt;Node2</title>
<g id="a_edge1_Node000001_Node000002"><a xlink:title=" ">
<path fill="none" stroke="#63b8ff" d="M132.13,-58.09C143.19,-59.89 154.69,-61.76 165.8,-63.57"/>
<polygon fill="#63b8ff" stroke="#63b8ff" points="165.44,-67.06 175.87,-65.21 166.56,-60.15 165.44,-67.06"/>
</a>
</g>
</g>
<!-- Node3 -->
<g id="Node000003" class="node">
<title>Node3</title>
<g id="a_Node000003"><a xlink:href="structdnf__composer_1_1element_1_1AbsSigmoidFunction.html#a1e4aa81115310d3156d8aee89d397071" target="_top" xlink:title=" ">
<polygon fill="white" stroke="#666666" points="300,-41 168,-41 168,0 300,0 300,-41"/>
<text text-anchor="start" x="176" y="-29" font-family="Helvetica,sans-Serif" font-size="10.00">dnf_composer::element</text>
<text text-anchor="start" x="176" y="-18" font-family="Helvetica,sans-Serif" font-size="10.00">::AbsSigmoidFunction</text>
<text text-anchor="middle" x="234" y="-7" font-family="Helvetica,sans-Serif" font-size="10.00">::toString</text>
</a>
</g>
</g>
<!-- Node1&#45;&gt;Node3 -->
<g id="edge2_Node000001_Node000003" class="edge">
<title>Node1&#45;&gt;Node3</title>
<g id="a_edge2_Node000001_Node000003"><a xlink:title=" ">
<path fill="none" stroke="#63b8ff" d="M132.13,-36.91C140.55,-35.54 149.23,-34.12 157.8,-32.73"/>
<polygon fill="#63b8ff" stroke="#63b8ff" points="158.48,-36.17 167.78,-31.11 157.35,-29.26 158.48,-36.17"/>
</a>
</g>
</g>
</g>
</svg>
