<?xml version="1.0" encoding="UTF-8" standalone="no"?>
<!DOCTYPE svg PUBLIC "-//W3C//DTD SVG 1.1//EN"
 "http://www.w3.org/Graphics/SVG/1.1/DTD/svg11.dtd">
<!-- Generated by graphviz version 2.43.0 (0)
 -->
<!-- Title: dnf_composer::element::GaussFieldCouplingParameters Pages: 1 -->
<svg width="489pt" height="582pt"
 viewBox="0.00 0.00 489.00 582.00" xmlns="http://www.w3.org/2000/svg" xmlns:xlink="http://www.w3.org/1999/xlink">
<g id="graph0" class="graph" transform="scale(1 1) rotate(0) translate(4 578)">
<title>dnf_composer::element::GaussFieldCouplingParameters</title>
<!-- Node1 -->
<g id="Node000001" class="node">
<title>Node1</title>
<g id="a_Node000001"><a xlink:title="Parameters for a sparse Gaussian field coupling (fixed projection).">
<polygon fill="#999999" stroke="transparent" points="343,-105 162,-105 162,0 343,0 343,-105"/>
<text text-anchor="start" x="174" y="-92.5" font-family="Helvetica,sans-Serif" font-size="10.00">dnf_composer::element</text>
<text text-anchor="start" x="174" y="-81.5" font-family="Helvetica,sans-Serif" font-size="10.00">::GaussFieldCouplingParameters</text>
<text text-anchor="start" x="166.5" y="-66.5" font-family="Helvetica,sans-Serif" font-size="10.00">+</text>
<text text-anchor="start" x="179.5" y="-66.5" font-family="Helvetica,sans-Serif" font-size="10.00">circular</text>
<text text-anchor="start" x="166.5" y="-51.5" font-family="Helvetica,sans-Serif" font-size="10.00">+</text>
<text text-anchor="start" x="179.5" y="-51.5" font-family="Helvetica,sans-Serif" font-size="10.00">normalized</text>
<text text-anchor="start" x="166.5" y="-36.5" font-family="Helvetica,sans-Serif" font-size="10.00">+</text>
<text text-anchor="start" x="179.5" y="-36.5" font-family="Helvetica,sans-Serif" font-size="10.00">addCoupling()</text>
<text text-anchor="start" x="166.5" y="-21.5" font-family="Helvetica,sans-Serif" font-size="10.00">+</text>
<text text-anchor="start" x="179.5" y="-21.5" font-family="Helvetica,sans-Serif" font-size="10.00">GaussFieldCouplingParameters()</text>
<text text-anchor="start" x="166.5" y="-6.5" font-family="Helvetica,sans-Serif" font-size="10.00">+</text>
<text text-anchor="start" x="179.5" y="-6.5" font-family="Helvetica,sans-Serif" font-size="10.00">toString()</text>
<polygon fill="#666666" stroke="#666666" points="162.5,-76.5 162.5,-76.5 343.5,-76.5 343.5,-76.5 162.5,-76.5"/>
<polygon fill="#666666" stroke="#666666" points="162.5,-46.5 162.5,-46.5 177.5,-46.5 177.5,-46.5 162.5,-46.5"/>
<polygon fill="#666666" stroke="#666666" points="177.5,-46.5 177.5,-46.5 343.5,-46.5 343.5,-46.5 177.5,-46.5"/>
<polygon fill="none" stroke="#666666" points="162,0 162,-105 343,-105 343,0 162,0"/>
</a>
</g>
</g>
<!-- Node2 -->
<g id="Node000002" class="node">
<title>Node2</title>
<g id="a_Node000002"><a xlink:href="structdnf__composer_1_1element_1_1ElementSpecificParameters.html" target="_top" xlink:title=" ">
<polygon fill="white" stroke="transparent" points="171,-324.5 0,-324.5 0,-219.5 171,-219.5 171,-324.5"/>
<text text-anchor="start" x="16" y="-312" font-family="Helvetica,sans-Serif" font-size="10.00">dnf_composer::element</text>
<text text-anchor="start" x="16" y="-301" font-family="Helvetica,sans-Serif" font-size="10.00">::ElementSpecificParameters</text>
<text text-anchor="start" x="84" y="-286" font-family="Helvetica,sans-Serif" font-size="10.00"> </text>
<text text-anchor="start" x="4.5" y="-271" font-family="Helvetica,sans-Serif" font-size="10.00">+</text>
<text text-anchor="start" x="17.5" y="-271" font-family="Helvetica,sans-Serif" font-size="10.00">ElementSpecificParameters()</text>
<text text-anchor="start" x="4.5" y="-256" font-family="Helvetica,sans-Serif" font-size="10.00">+</text>
<text text-anchor="start" x="17.5" y="-256" font-family="Helvetica,sans-Serif" font-size="10.00">print()</text>
<text text-anchor="start" x="4.5" y="-241" font-family="Helvetica,sans-Serif" font-size="10.00">+</text>
<text text-anchor="start" x="17.5" y="-241" font-family="Helvetica,sans-Serif" font-size="10.00">toString()</text>
<text text-anchor="start" x="4.5" y="-226" font-family="Helvetica,sans-Serif" font-size="10.00">+</text>
<text text-anchor="start" x="17.5" y="-226" font-family="Helvetica,sans-Serif" font-size="10.00">~ElementSpecificParameters()</text>
<polygon fill="#666666" stroke="#666666" points="0.5,-296 0.5,-296 171.5,-296 171.5,-296 0.5,-296"/>
<polygon fill="#666666" stroke="#666666" points="0.5,-281 0.5,-281 171.5,-281 171.5,-281 0.5,-281"/>
<polygon fill="none" stroke="#666666" points="0,-219.5 0,-324.5 171,-324.5 171,-219.5 0,-219.5"/>
</a>
</g>
</g>
<!-- Node2&#45;&gt;Node1 -->
<g id="edge1_Node000001_Node000002" class="edge">
<title>Node2&#45;&gt;Node1</title>
<g id="a_edge1_Node000001_Node000002"><a xlink:title=" ">
<path fill="none" stroke="#63b8ff" d="M131.44,-211.17C156.99,-177.9 188.46,-136.9 212.92,-105.05"/>
<polygon fill="none" stroke="#63b8ff" points="128.39,-209.39 125.08,-219.46 133.94,-213.66 128.39,-209.39"/>
</a>
</g>
</g>
<!-- Node3 -->
<g id="Node000003" class="node">
<title>Node3</title>
<g id="a_Node000003"><a xlink:href="structdnf__composer_1_1element_1_1ElementDimensions.html" target="_top" xlink:title=" ">
<polygon fill="white" stroke="transparent" points="316,-392 189,-392 189,-152 316,-152 316,-392"/>
<text text-anchor="start" x="195" y="-380" font-family="Helvetica,sans-Serif" font-size="10.00">dnf_composer::element</text>
<text text-anchor="start" x="200.5" y="-369" font-family="Helvetica,sans-Serif" font-size="10.00">::ElementDimensions</text>
<text text-anchor="start" x="193.5" y="-354" font-family="Helvetica,sans-Serif" font-size="10.00">+</text>
<text text-anchor="start" x="206.5" y="-354" font-family="Helvetica,sans-Serif" font-size="10.00">d_x</text>
<text text-anchor="start" x="193.5" y="-339" font-family="Helvetica,sans-Serif" font-size="10.00">+</text>
<text text-anchor="start" x="206.5" y="-339" font-family="Helvetica,sans-Serif" font-size="10.00">d_y</text>
<text text-anchor="start" x="193.5" y="-324" font-family="Helvetica,sans-Serif" font-size="10.00">+</text>
<text text-anchor="start" x="206.5" y="-324" font-family="Helvetica,sans-Serif" font-size="10.00">dimensionality</text>
<text text-anchor="start" x="193.5" y="-309" font-family="Helvetica,sans-Serif" font-size="10.00">+</text>
<text text-anchor="start" x="206.5" y="-309" font-family="Helvetica,sans-Serif" font-size="10.00">size</text>
<text text-anchor="start" x="193.5" y="-294" font-family="Helvetica,sans-Serif" font-size="10.00">+</text>
<text text-anchor="start" x="206.5" y="-294" font-family="Helvetica,sans-Serif" font-size="10.00">size_x</text>
<text text-anchor="start" x="193.5" y="-279" font-family="Helvetica,sans-Serif" font-size="10.00">+</text>
<text text-anchor="start" x="206.5" y="-279" font-family="Helvetica,sans-Serif" font-size="10.00">size_y</text>
<text text-anchor="start" x="193.5" y="-264" font-family="Helvetica,sans-Serif" font-size="10.00">+</text>
<text text-anchor="start" x="206.5" y="-264" font-family="Helvetica,sans-Serif" font-size="10.00">x_max</text>
<text text-anchor="start" x="193.5" y="-249" font-family="Helvetica,sans-Serif" font-size="10.00">+</text>
<text text-anchor="start" x="206.5" y="-249" font-family="Helvetica,sans-Serif" font-size="10.00">y_max</text>
<text text-anchor="start" x="193.5" y="-234" font-family="Helvetica,sans-Serif" font-size="10.00">+</text>
<text text-anchor="start" x="206.5" y="-234" font-family="Helvetica,sans-Serif" font-size="10.00">ElementDimensions()</text>
<text text-anchor="start" x="193.5" y="-219" font-family="Helvetica,sans-Serif" font-size="10.00">+</text>
<text text-anchor="start" x="206.5" y="-219" font-family="Helvetica,sans-Serif" font-size="10.00">ElementDimensions()</text>
<text text-anchor="start" x="193.5" y="-204" font-family="Helvetica,sans-Serif" font-size="10.00">+</text>
<text text-anchor="start" x="206.5" y="-204" font-family="Helvetica,sans-Serif" font-size="10.00">ElementDimensions()</text>
<text text-anchor="start" x="193.5" y="-189" font-family="Helvetica,sans-Serif" font-size="10.00">+</text>
<text text-anchor="start" x="206.5" y="-189" font-family="Helvetica,sans-Serif" font-size="10.00">operator==()</text>
<text text-anchor="start" x="193.5" y="-174" font-family="Helvetica,sans-Serif" font-size="10.00">+</text>
<text text-anchor="start" x="206.5" y="-174" font-family="Helvetica,sans-Serif" font-size="10.00">print()</text>
<text text-anchor="start" x="193.5" y="-159" font-family="Helvetica,sans-Serif" font-size="10.00">+</text>
<text text-anchor="start" x="206.5" y="-159" font-family="Helvetica,sans-Serif" font-size="10.00">toString()</text>
<polygon fill="#666666" stroke="#666666" points="189.5,-364 189.5,-364 316.5,-364 316.5,-364 189.5,-364"/>
<polygon fill="#666666" stroke="#666666" points="189.5,-244 189.5,-244 204.5,-244 204.5,-244 189.5,-244"/>
<polygon fill="#666666" stroke="#666666" points="204.5,-244 204.5,-244 316.5,-244 316.5,-244 204.5,-244"/>
<polygon fill="none" stroke="#666666" points="189,-152 189,-392 316,-392 316,-152 189,-152"/>
</a>
</g>
</g>
<!-- Node3&#45;&gt;Node1 -->
<g id="edge2_Node000001_Node000003" class="edge">
<title>Node3&#45;&gt;Node1</title>
<g id="a_edge2_Node000001_Node000003"><a xlink:title=" ">
<path fill="none" stroke="#63b8ff" d="M252.5,-151.75C252.5,-139.89 252.5,-128.2 252.5,-117.24"/>
<polygon fill="none" stroke="#63b8ff" points="252.5,-117.22 248.5,-111.22 252.5,-105.22 256.5,-111.22 252.5,-117.22"/>
</a>
</g>
<text text-anchor="middle" x="311.5" y="-126" font-family="Helvetica,sans-Serif" font-size="10.00" fill="grey"> +inputFieldDimensions</text>
</g>
<!-- Node4 -->
<g id="Node000004" class="node">
<title>Node4</title>
<g id="a_Node000004"><a xlink:title=" ">
<polygon fill="white" stroke="transparent" points="481,-302 334,-302 334,-242 481,-242 481,-302"/>
<text text-anchor="start" x="339.5" y="-290" font-family="Helvetica,sans-Serif" font-size="10.00">std::vector&lt; dnf_composer</text>
<text text-anchor="start" x="339.5" y="-279" font-family="Helvetica,sans-Serif" font-size="10.00">::element::GaussCoupling &gt;</text>
<text text-anchor="start" x="406" y="-264" font-family="Helvetica,sans-Serif" font-size="10.00"> </text>
<text text-anchor="start" x="406" y="-249" font-family="Helvetica,sans-Serif" font-size="10.00"> </text>
<polygon fill="#666666" stroke="#666666" points="334.5,-274 334.5,-274 481.5,-274 481.5,-274 334.5,-274"/>
<polygon fill="#666666" stroke="#666666" points="334.5,-259 334.5,-259 481.5,-259 481.5,-259 334.5,-259"/>
<polygon fill="none" stroke="#666666" points="334,-242 334,-302 481,-302 481,-242 334,-242"/>
</a>
</g>
</g>
<!-- Node4&#45;&gt;Node1 -->
<g id="edge3_Node000001_Node000004" class="edge">
<title>Node4&#45;&gt;Node1</title>
<g id="a_edge3_Node000001_Node000004"><a xlink:title=" ">
<path fill="none" stroke="#63b8ff" d="M407.75,-241.73C406.59,-209.63 400.39,-158.05 374.5,-123 368.41,-114.76 361.03,-107.34 352.95,-100.72"/>
<polygon fill="none" stroke="#63b8ff" points="352.73,-100.55 345.53,-100.1 343.17,-93.29 350.37,-93.73 352.73,-100.55"/>
</a>
</g>
<text text-anchor="middle" x="409.5" y="-126" font-family="Helvetica,sans-Serif" font-size="10.00" fill="grey"> +couplings</text>
</g>
<!-- Node5 -->
<g id="Node000005" class="node">
<title>Node5</title>
<g id="a_Node000005"><a xlink:href="structdnf__composer_1_1element_1_1GaussCoupling.html" target="_top" xlink:title="A single sparse Gaussian point&#45;coupling between two spatial locations.">
<polygon fill="white" stroke="transparent" points="470.5,-574 344.5,-574 344.5,-439 470.5,-439 470.5,-574"/>
<text text-anchor="start" x="349.5" y="-561.5" font-family="Helvetica,sans-Serif" font-size="10.00">dnf_composer::element</text>
<text text-anchor="start" x="368" y="-550.5" font-family="Helvetica,sans-Serif" font-size="10.00">::GaussCoupling</text>
<text text-anchor="start" x="354.5" y="-535.5" font-family="Helvetica,sans-Serif" font-size="10.00">+</text>
<text text-anchor="start" x="373.5" y="-535.5" font-family="Helvetica,sans-Serif" font-size="10.00">amplitude</text>
<text text-anchor="start" x="354.5" y="-520.5" font-family="Helvetica,sans-Serif" font-size="10.00">+</text>
<text text-anchor="start" x="373.5" y="-520.5" font-family="Helvetica,sans-Serif" font-size="10.00">width</text>
<text text-anchor="start" x="354.5" y="-505.5" font-family="Helvetica,sans-Serif" font-size="10.00">+</text>
<text text-anchor="start" x="373.5" y="-505.5" font-family="Helvetica,sans-Serif" font-size="10.00">x_i</text>
<text text-anchor="start" x="354.5" y="-490.5" font-family="Helvetica,sans-Serif" font-size="10.00">+</text>
<text text-anchor="start" x="373.5" y="-490.5" font-family="Helvetica,sans-Serif" font-size="10.00">x_j</text>
<text text-anchor="start" x="354.5" y="-475.5" font-family="Helvetica,sans-Serif" font-size="10.00">+</text>
<text text-anchor="start" x="373.5" y="-475.5" font-family="Helvetica,sans-Serif" font-size="10.00">GaussCoupling()</text>
<text text-anchor="start" x="354.5" y="-460.5" font-family="Helvetica,sans-Serif" font-size="10.00">+</text>
<text text-anchor="start" x="373.5" y="-460.5" font-family="Helvetica,sans-Serif" font-size="10.00">operator==()</text>
<text text-anchor="start" x="354.5" y="-445.5" font-family="Helvetica,sans-Serif" font-size="10.00">+</text>
<text text-anchor="start" x="373.5" y="-445.5" font-family="Helvetica,sans-Serif" font-size="10.00">toString()</text>
<polygon fill="#666666" stroke="#666666" points="344.5,-545.5 344.5,-545.5 470.5,-545.5 470.5,-545.5 344.5,-545.5"/>
<polygon fill="#666666" stroke="#666666" points="344.5,-485.5 344.5,-485.5 371.5,-485.5 371.5,-485.5 344.5,-485.5"/>
<polygon fill="#666666" stroke="#666666" points="371.5,-485.5 371.5,-485.5 470.5,-485.5 470.5,-485.5 371.5,-485.5"/>
<polygon fill="none" stroke="#666666" points="344.5,-439 344.5,-574 470.5,-574 470.5,-439 344.5,-439"/>
</a>
</g>
</g>
<!-- Node5&#45;&gt;Node4 -->
<g id="edge4_Node000004_Node000005" class="edge">
<title>Node5&#45;&gt;Node4</title>
<g id="a_edge4_Node000004_Node000005"><a xlink:title=" ">
<path fill="none" stroke="#63b8ff" d="M407.5,-438.87C407.5,-398.78 407.5,-348.98 407.5,-314.47"/>
<polygon fill="none" stroke="#63b8ff" points="407.5,-314.04 403.5,-308.04 407.5,-302.04 411.5,-308.04 407.5,-314.04"/>
</a>
</g>
<text text-anchor="middle" x="436.5" y="-413" font-family="Helvetica,sans-Serif" font-size="10.00" fill="grey"> +elements</text>
</g>
</g>
</svg>
