<?xml version="1.0" encoding="UTF-8" standalone="no"?>
<!DOCTYPE svg PUBLIC "-//W3C//DTD SVG 1.1//EN"
 "http://www.w3.org/Graphics/SVG/1.1/DTD/svg11.dtd">
<!-- Generated by graphviz version 2.43.0 (0)
 -->
<!-- Title: dnf_composer::element::GaussFieldCouplingParameters Pages: 1 -->
<svg width="489pt" height="477pt"
 viewBox="0.00 0.00 489.00 477.00" xmlns="http://www.w3.org/2000/svg" xmlns:xlink="http://www.w3.org/1999/xlink">
<g id="graph0" class="graph" transform="scale(1 1) rotate(0) translate(4 473)">
<title>dnf_composer::element::GaussFieldCouplingParameters</title>
<!-- Node1 -->
<g id="Node000001" class="node">
<title>Node1</title>
<g id="a_Node000001"><a xlink:title="Parameters for a sparse Gaussian field coupling (fixed projection).">
<polygon fill="#999999" stroke="transparent" points="343,-105 162,-105 162,0 343,0 343,-105"/>
<text text-anchor="start" x="174" y="-92.5" font-family="Helvetica,sans-Serif" font-size="10.00">dnf_composer::element</text>
<text text-anchor="start" x="174" y="-81.5" font-family="Helvetica,sans-Serif" font-size="10.00">::GaussFieldCouplingParameters</text>
<text text-anchor="start" x="166.5" y="-66.5" font-family="Helvetica,sans-Serif" font-size="10.00">+</text>
<text text-anchor="start" x="179.5" y="-66.5" font-family="Helvetica,sans-Serif" font-size="10.00">circular</text>
<text text-anchor="start" x="166.5" y="-51.5" font-family="Helvetica,sans-Serif" font-size="10.00">+</text>
<text text-anchor="start" x="179.5" y="-51.5" font-family="Helvetica,sans-Serif" font-size="10.00">normalized</text>
<text text-anchor="start" x="166.5" y="-36.5" font-family="Helvetica,sans-Serif" font-size="10.00">+</text>
<text text-anchor="start" x="179.5" y="-36.5" font-family="Helvetica,sans-Serif" font-size="10.00">addCoupling()</text>
<text text-anchor="start" x="166.5" y="-21.5" font-family="Helvetica,sans-Serif" font-size="10.00">+</text>
<text text-anchor="start" x="179.5" y="-21.5" font-family="Helvetica,sans-Serif" font-size="10.00">GaussFieldCouplingParameters()</text>
<text text-anchor="start" x="166.5" y="-6.5" font-family="Helvetica,sans-Serif" font-size="10.00">+</text>
<text text-anchor="start" x="179.5" y="-6.5" font-family="Helvetica,sans-Serif" font-size="10.00">toString()</text>
<polygon fill="#666666" stroke="#666666" points="162.5,-76.5 162.5,-76.5 343.5,-76.5 343.5,-76.5 162.5,-76.5"/>
<polygon fill="#666666" stroke="#666666" points="162.5,-46.5 162.5,-46.5 177.5,-46.5 177.5,-46.5 162.5,-46.5"/>
<polygon fill="#666666" stroke="#666666" points="177.5,-46.5 177.5,-46.5 343.5,-46.5 343.5,-46.5 177.5,-46.5"/>
<polygon fill="none" stroke="#666666" points="162,0 162,-105 343,-105 343,0 162,0"/>
</a>
</g>
</g>
<!-- Node2 -->
<g id="Node000002" class="node">
<title>Node2</title>
<g id="a_Node000002"><a xlink:href="structdnf__composer_1_1element_1_1ElementSpecificParameters.html" target="_top" xlink:title="Abstract base for all element&#45;specific parameter structs.">
<polygon fill="white" stroke="transparent" points="171,-272 0,-272 0,-167 171,-167 171,-272"/>
<text text-anchor="start" x="16" y="-259.5" font-family="Helvetica,sans-Serif" font-size="10.00">dnf_composer::element</text>
<text text-anchor="start" x="16" y="-248.5" font-family="Helvetica,sans-Serif" font-size="10.00">::ElementSpecificParameters</text>
<text text-anchor="start" x="84" y="-233.5" font-family="Helvetica,sans-Serif" font-size="10.00"> </text>
<text text-anchor="start" x="4.5" y="-218.5" font-family="Helvetica,sans-Serif" font-size="10.00">+</text>
<text text-anchor="start" x="17.5" y="-218.5" font-family="Helvetica,sans-Serif" font-size="10.00">ElementSpecificParameters()</text>
<text text-anchor="start" x="4.5" y="-203.5" font-family="Helvetica,sans-Serif" font-size="10.00">+</text>
<text text-anchor="start" x="17.5" y="-203.5" font-family="Helvetica,sans-Serif" font-size="10.00">print()</text>
<text text-anchor="start" x="4.5" y="-188.5" font-family="Helvetica,sans-Serif" font-size="10.00">+</text>
<text text-anchor="start" x="17.5" y="-188.5" font-family="Helvetica,sans-Serif" font-size="10.00">toString()</text>
<text text-anchor="start" x="4.5" y="-173.5" font-family="Helvetica,sans-Serif" font-size="10.00">+</text>
<text text-anchor="start" x="17.5" y="-173.5" font-family="Helvetica,sans-Serif" font-size="10.00">~ElementSpecificParameters()</text>
<polygon fill="#666666" stroke="#666666" points="0.5,-243.5 0.5,-243.5 171.5,-243.5 171.5,-243.5 0.5,-243.5"/>
<polygon fill="#666666" stroke="#666666" points="0.5,-228.5 0.5,-228.5 171.5,-228.5 171.5,-228.5 0.5,-228.5"/>
<polygon fill="none" stroke="#666666" points="0,-167 0,-272 171,-272 171,-167 0,-167"/>
</a>
</g>
</g>
<!-- Node2&#45;&gt;Node1 -->
<g id="edge1_Node000001_Node000002" class="edge">
<title>Node2&#45;&gt;Node1</title>
<g id="a_edge1_Node000001_Node000002"><a xlink:title=" ">
<path fill="none" stroke="#63b8ff" d="M145.46,-159.26C163.4,-141.54 182.91,-122.26 200.3,-105.07"/>
<polygon fill="none" stroke="#63b8ff" points="142.54,-157.23 137.88,-166.75 147.46,-162.21 142.54,-157.23"/>
</a>
</g>
</g>
<!-- Node3 -->
<g id="Node000003" class="node">
<title>Node3</title>
<g id="a_Node000003"><a xlink:href="structdnf__composer_1_1element_1_1ElementDimensions.html" target="_top" xlink:title="Spatial discretization of a one&#45;dimensional field.">
<polygon fill="white" stroke="transparent" points="316,-287 189,-287 189,-152 316,-152 316,-287"/>
<text text-anchor="start" x="195" y="-274.5" font-family="Helvetica,sans-Serif" font-size="10.00">dnf_composer::element</text>
<text text-anchor="start" x="200.5" y="-263.5" font-family="Helvetica,sans-Serif" font-size="10.00">::ElementDimensions</text>
<text text-anchor="start" x="193.5" y="-248.5" font-family="Helvetica,sans-Serif" font-size="10.00">+</text>
<text text-anchor="start" x="206.5" y="-248.5" font-family="Helvetica,sans-Serif" font-size="10.00">d_x</text>
<text text-anchor="start" x="193.5" y="-233.5" font-family="Helvetica,sans-Serif" font-size="10.00">+</text>
<text text-anchor="start" x="206.5" y="-233.5" font-family="Helvetica,sans-Serif" font-size="10.00">size</text>
<text text-anchor="start" x="193.5" y="-218.5" font-family="Helvetica,sans-Serif" font-size="10.00">+</text>
<text text-anchor="start" x="206.5" y="-218.5" font-family="Helvetica,sans-Serif" font-size="10.00">x_max</text>
<text text-anchor="start" x="193.5" y="-203.5" font-family="Helvetica,sans-Serif" font-size="10.00">+</text>
<text text-anchor="start" x="206.5" y="-203.5" font-family="Helvetica,sans-Serif" font-size="10.00">ElementDimensions()</text>
<text text-anchor="start" x="193.5" y="-188.5" font-family="Helvetica,sans-Serif" font-size="10.00">+</text>
<text text-anchor="start" x="206.5" y="-188.5" font-family="Helvetica,sans-Serif" font-size="10.00">operator==()</text>
<text text-anchor="start" x="193.5" y="-173.5" font-family="Helvetica,sans-Serif" font-size="10.00">+</text>
<text text-anchor="start" x="206.5" y="-173.5" font-family="Helvetica,sans-Serif" font-size="10.00">print()</text>
<text text-anchor="start" x="193.5" y="-158.5" font-family="Helvetica,sans-Serif" font-size="10.00">+</text>
<text text-anchor="start" x="206.5" y="-158.5" font-family="Helvetica,sans-Serif" font-size="10.00">toString()</text>
<polygon fill="#666666" stroke="#666666" points="189.5,-258.5 189.5,-258.5 316.5,-258.5 316.5,-258.5 189.5,-258.5"/>
<polygon fill="#666666" stroke="#666666" points="189.5,-213.5 189.5,-213.5 204.5,-213.5 204.5,-213.5 189.5,-213.5"/>
<polygon fill="#666666" stroke="#666666" points="204.5,-213.5 204.5,-213.5 316.5,-213.5 316.5,-213.5 204.5,-213.5"/>
<polygon fill="none" stroke="#666666" points="189,-152 189,-287 316,-287 316,-152 189,-152"/>
</a>
</g>
</g>
<!-- Node3&#45;&gt;Node1 -->
<g id="edge2_Node000001_Node000003" class="edge">
<title>Node3&#45;&gt;Node1</title>
<g id="a_edge2_Node000001_Node000003"><a xlink:title=" ">
<path fill="none" stroke="#63b8ff" d="M252.5,-151.86C252.5,-140.43 252.5,-128.58 252.5,-117.23"/>
<polygon fill="none" stroke="#63b8ff" points="252.5,-117.16 248.5,-111.16 252.5,-105.16 256.5,-111.16 252.5,-117.16"/>
</a>
</g>
<text text-anchor="middle" x="311.5" y="-126" font-family="Helvetica,sans-Serif" font-size="10.00" fill="grey"> +inputFieldDimensions</text>
</g>
<!-- Node4 -->
<g id="Node000004" class="node">
<title>Node4</title>
<g id="a_Node000004"><a xlink:title=" ">
<polygon fill="white" stroke="transparent" points="481,-249.5 334,-249.5 334,-189.5 481,-189.5 481,-249.5"/>
<text text-anchor="start" x="339.5" y="-237.5" font-family="Helvetica,sans-Serif" font-size="10.00">std::vector&lt; dnf_composer</text>
<text text-anchor="start" x="339.5" y="-226.5" font-family="Helvetica,sans-Serif" font-size="10.00">::element::GaussCoupling &gt;</text>
<text text-anchor="start" x="406" y="-211.5" font-family="Helvetica,sans-Serif" font-size="10.00"> </text>
<text text-anchor="start" x="406" y="-196.5" font-family="Helvetica,sans-Serif" font-size="10.00"> </text>
<polygon fill="#666666" stroke="#666666" points="334.5,-221.5 334.5,-221.5 481.5,-221.5 481.5,-221.5 334.5,-221.5"/>
<polygon fill="#666666" stroke="#666666" points="334.5,-206.5 334.5,-206.5 481.5,-206.5 481.5,-206.5 334.5,-206.5"/>
<polygon fill="none" stroke="#666666" points="334,-189.5 334,-249.5 481,-249.5 481,-189.5 334,-189.5"/>
</a>
</g>
</g>
<!-- Node4&#45;&gt;Node1 -->
<g id="edge3_Node000001_Node000004" class="edge">
<title>Node4&#45;&gt;Node1</title>
<g id="a_edge3_Node000001_Node000004"><a xlink:title=" ">
<path fill="none" stroke="#63b8ff" d="M402.98,-189.08C398.58,-168.69 390.19,-141.9 374.5,-123 368.25,-115.47 360.95,-108.59 353.1,-102.34"/>
<polygon fill="none" stroke="#63b8ff" points="352.9,-102.19 345.7,-101.82 343.27,-95.03 350.47,-95.4 352.9,-102.19"/>
</a>
</g>
<text text-anchor="middle" x="409.5" y="-126" font-family="Helvetica,sans-Serif" font-size="10.00" fill="grey"> +couplings</text>
</g>
<!-- Node5 -->
<g id="Node000005" class="node">
<title>Node5</title>
<g id="a_Node000005"><a xlink:href="structdnf__composer_1_1element_1_1GaussCoupling.html" target="_top" xlink:title="A single sparse Gaussian point&#45;coupling between two spatial locations.">
<polygon fill="white" stroke="transparent" points="470.5,-469 344.5,-469 344.5,-334 470.5,-334 470.5,-469"/>
<text text-anchor="start" x="349.5" y="-456.5" font-family="Helvetica,sans-Serif" font-size="10.00">dnf_composer::element</text>
<text text-anchor="start" x="368" y="-445.5" font-family="Helvetica,sans-Serif" font-size="10.00">::GaussCoupling</text>
<text text-anchor="start" x="354.5" y="-430.5" font-family="Helvetica,sans-Serif" font-size="10.00">+</text>
<text text-anchor="start" x="373.5" y="-430.5" font-family="Helvetica,sans-Serif" font-size="10.00">amplitude</text>
<text text-anchor="start" x="354.5" y="-415.5" font-family="Helvetica,sans-Serif" font-size="10.00">+</text>
<text text-anchor="start" x="373.5" y="-415.5" font-family="Helvetica,sans-Serif" font-size="10.00">width</text>
<text text-anchor="start" x="354.5" y="-400.5" font-family="Helvetica,sans-Serif" font-size="10.00">+</text>
<text text-anchor="start" x="373.5" y="-400.5" font-family="Helvetica,sans-Serif" font-size="10.00">x_i</text>
<text text-anchor="start" x="354.5" y="-385.5" font-family="Helvetica,sans-Serif" font-size="10.00">+</text>
<text text-anchor="start" x="373.5" y="-385.5" font-family="Helvetica,sans-Serif" font-size="10.00">x_j</text>
<text text-anchor="start" x="354.5" y="-370.5" font-family="Helvetica,sans-Serif" font-size="10.00">+</text>
<text text-anchor="start" x="373.5" y="-370.5" font-family="Helvetica,sans-Serif" font-size="10.00">GaussCoupling()</text>
<text text-anchor="start" x="354.5" y="-355.5" font-family="Helvetica,sans-Serif" font-size="10.00">+</text>
<text text-anchor="start" x="373.5" y="-355.5" font-family="Helvetica,sans-Serif" font-size="10.00">operator==()</text>
<text text-anchor="start" x="354.5" y="-340.5" font-family="Helvetica,sans-Serif" font-size="10.00">+</text>
<text text-anchor="start" x="373.5" y="-340.5" font-family="Helvetica,sans-Serif" font-size="10.00">toString()</text>
<polygon fill="#666666" stroke="#666666" points="344.5,-440.5 344.5,-440.5 470.5,-440.5 470.5,-440.5 344.5,-440.5"/>
<polygon fill="#666666" stroke="#666666" points="344.5,-380.5 344.5,-380.5 371.5,-380.5 371.5,-380.5 344.5,-380.5"/>
<polygon fill="#666666" stroke="#666666" points="371.5,-380.5 371.5,-380.5 470.5,-380.5 470.5,-380.5 371.5,-380.5"/>
<polygon fill="none" stroke="#666666" points="344.5,-334 344.5,-469 470.5,-469 470.5,-334 344.5,-334"/>
</a>
</g>
</g>
<!-- Node5&#45;&gt;Node4 -->
<g id="edge4_Node000004_Node000005" class="edge">
<title>Node5&#45;&gt;Node4</title>
<g id="a_edge4_Node000004_Node000005"><a xlink:title=" ">
<path fill="none" stroke="#63b8ff" d="M407.5,-333.99C407.5,-309.82 407.5,-283.23 407.5,-261.86"/>
<polygon fill="none" stroke="#63b8ff" points="407.5,-261.62 403.5,-255.62 407.5,-249.62 411.5,-255.62 407.5,-261.62"/>
</a>
</g>
<text text-anchor="middle" x="436.5" y="-308" font-family="Helvetica,sans-Serif" font-size="10.00" fill="grey"> +elements</text>
</g>
</g>
</svg>
