<?xml version="1.0" encoding="UTF-8" standalone="no"?>
<!DOCTYPE svg PUBLIC "-//W3C//DTD SVG 1.1//EN"
 "http://www.w3.org/Graphics/SVG/1.1/DTD/svg11.dtd">
<!-- Generated by graphviz version 2.43.0 (0)
 -->
<!-- Title: dnf_composer::element::ElementIdentifiers::toString Pages: 1 -->
<svg width="538pt" height="672pt"
 viewBox="0.00 0.00 538.00 672.00" xmlns="http://www.w3.org/2000/svg" xmlns:xlink="http://www.w3.org/1999/xlink">
<g id="graph0" class="graph" transform="scale(1 1) rotate(0) translate(4 668)">
<title>dnf_composer::element::ElementIdentifiers::toString</title>
<!-- Node1 -->
<g id="Node000001" class="node">
<title>Node1</title>
<g id="a_Node000001"><a xlink:title=" ">
<polygon fill="#999999" stroke="#666666" points="530,-364 398,-364 398,-323 530,-323 530,-364"/>
<text text-anchor="start" x="406" y="-352" font-family="Helvetica,sans-Serif" font-size="10.00">dnf_composer::element</text>
<text text-anchor="start" x="406" y="-341" font-family="Helvetica,sans-Serif" font-size="10.00">::ElementIdentifiers</text>
<text text-anchor="middle" x="464" y="-330" font-family="Helvetica,sans-Serif" font-size="10.00">::toString</text>
</a>
</g>
</g>
<!-- Node2 -->
<g id="Node000002" class="node">
<title>Node2</title>
<g id="a_Node000002"><a xlink:href="structdnf__composer_1_1element_1_1ElementIdentifiers.html#a6c590a127035df69718210304ad9ccb6" target="_top" xlink:title=" ">
<polygon fill="white" stroke="#666666" points="346.5,-394 214.5,-394 214.5,-353 346.5,-353 346.5,-394"/>
<text text-anchor="start" x="222.5" y="-382" font-family="Helvetica,sans-Serif" font-size="10.00">dnf_composer::element</text>
<text text-anchor="start" x="222.5" y="-371" font-family="Helvetica,sans-Serif" font-size="10.00">::ElementIdentifiers</text>
<text text-anchor="middle" x="280.5" y="-360" font-family="Helvetica,sans-Serif" font-size="10.00">::print</text>
</a>
</g>
</g>
<!-- Node1&#45;&gt;Node2 -->
<g id="edge1_Node000001_Node000002" class="edge">
<title>Node1&#45;&gt;Node2</title>
<g id="a_edge1_Node000001_Node000002"><a xlink:title=" ">
<path fill="none" stroke="#63b8ff" d="M388.09,-355.88C374.34,-358.15 360.1,-360.51 346.67,-362.73"/>
<polygon fill="#63b8ff" stroke="#63b8ff" points="388.69,-359.33 397.99,-354.25 387.55,-352.42 388.69,-359.33"/>
</a>
</g>
</g>
<!-- Node3 -->
<g id="Node000003" class="node">
<title>Node3</title>
<g id="a_Node000003"><a xlink:href="structdnf__composer_1_1element_1_1ElementCommonParameters.html#a83c667c71a22c80a0e415da7fab9795b" target="_top" xlink:title=" ">
<polygon fill="white" stroke="#666666" points="362,-335 199,-335 199,-294 362,-294 362,-335"/>
<text text-anchor="start" x="207" y="-323" font-family="Helvetica,sans-Serif" font-size="10.00">dnf_composer::element</text>
<text text-anchor="start" x="207" y="-312" font-family="Helvetica,sans-Serif" font-size="10.00">::ElementCommonParameters</text>
<text text-anchor="middle" x="280.5" y="-301" font-family="Helvetica,sans-Serif" font-size="10.00">::toString</text>
</a>
</g>
</g>
<!-- Node1&#45;&gt;Node3 -->
<g id="edge2_Node000001_Node000003" class="edge">
<title>Node1&#45;&gt;Node3</title>
<g id="a_edge2_Node000001_Node000003"><a xlink:title=" ">
<path fill="none" stroke="#63b8ff" d="M388.08,-331.53C379.54,-330.17 370.82,-328.77 362.21,-327.4"/>
<polygon fill="#63b8ff" stroke="#63b8ff" points="387.56,-334.99 397.99,-333.11 388.66,-328.08 387.56,-334.99"/>
</a>
</g>
</g>
<!-- Node4 -->
<g id="Node000004" class="node">
<title>Node4</title>
<g id="a_Node000004"><a xlink:href="structdnf__composer_1_1element_1_1ElementCommonParameters.html#a446472a2d6a83b41ae55e42c024357f3" target="_top" xlink:title=" ">
<polygon fill="white" stroke="#666666" points="163,-664 0,-664 0,-623 163,-623 163,-664"/>
<text text-anchor="start" x="8" y="-652" font-family="Helvetica,sans-Serif" font-size="10.00">dnf_composer::element</text>
<text text-anchor="start" x="8" y="-641" font-family="Helvetica,sans-Serif" font-size="10.00">::ElementCommonParameters</text>
<text text-anchor="middle" x="81.5" y="-630" font-family="Helvetica,sans-Serif" font-size="10.00">::print</text>
</a>
</g>
</g>
<!-- Node3&#45;&gt;Node4 -->
<g id="edge3_Node000003_Node000004" class="edge">
<title>Node3&#45;&gt;Node4</title>
<g id="a_edge3_Node000003_Node000004"><a xlink:title=" ">
<path fill="none" stroke="#63b8ff" d="M201.18,-341.95C200.42,-342.78 199.7,-343.63 199,-344.5 123.51,-439.14 239.01,-520.27 163,-614.5 160.48,-617.62 157.6,-620.41 154.46,-622.89"/>
<polygon fill="#63b8ff" stroke="#63b8ff" points="203.56,-344.51 208.58,-335.18 198.84,-339.35 203.56,-344.51"/>
</a>
</g>
</g>
<!-- Node5 -->
<g id="Node000005" class="node">
<title>Node5</title>
<g id="a_Node000005"><a xlink:href="classdnf__composer_1_1element_1_1AsymmetricGaussKernel.html#ad04b7f2dc4f17529affba6c44995de85" target="_top" xlink:title=" ">
<polygon fill="white" stroke="#666666" points="153,-605 10,-605 10,-564 153,-564 153,-605"/>
<text text-anchor="start" x="18" y="-593" font-family="Helvetica,sans-Serif" font-size="10.00">dnf_composer::element</text>
<text text-anchor="start" x="18" y="-582" font-family="Helvetica,sans-Serif" font-size="10.00">::AsymmetricGaussKernel</text>
<text text-anchor="middle" x="81.5" y="-571" font-family="Helvetica,sans-Serif" font-size="10.00">::toString</text>
</a>
</g>
</g>
<!-- Node3&#45;&gt;Node5 -->
<g id="edge4_Node000003_Node000005" class="edge">
<title>Node3&#45;&gt;Node5</title>
<g id="a_edge4_Node000003_Node000005"><a xlink:title=" ">
<path fill="none" stroke="#63b8ff" d="M201.3,-341.91C200.5,-342.75 199.74,-343.61 199,-344.5 138.58,-417.42 223.42,-481.58 163,-554.5 160.05,-558.06 156.63,-561.2 152.91,-563.96"/>
<polygon fill="#63b8ff" stroke="#63b8ff" points="203.91,-344.27 209.09,-335.04 199.28,-339.02 203.91,-344.27"/>
</a>
</g>
</g>
<!-- Node6 -->
<g id="Node000006" class="node">
<title>Node6</title>
<g id="a_Node000006"><a xlink:href="classdnf__composer_1_1element_1_1BoostStimulus.html#a8d10a318500c48897e0be68daeb73486" target="_top" xlink:title=" ">
<polygon fill="white" stroke="#666666" points="150,-545.5 13,-545.5 13,-515.5 150,-515.5 150,-545.5"/>
<text text-anchor="start" x="21" y="-533.5" font-family="Helvetica,sans-Serif" font-size="10.00">dnf_composer::element</text>
<text text-anchor="middle" x="81.5" y="-522.5" font-family="Helvetica,sans-Serif" font-size="10.00">::BoostStimulus::toString</text>
</a>
</g>
</g>
<!-- Node3&#45;&gt;Node6 -->
<g id="edge5_Node000003_Node000006" class="edge">
<title>Node3&#45;&gt;Node6</title>
<g id="a_edge5_Node000003_Node000006"><a xlink:title=" ">
<path fill="none" stroke="#63b8ff" d="M201.36,-341.96C200.55,-342.78 199.76,-343.63 199,-344.5 150.57,-400.13 213.27,-452.53 163,-506.5 159.32,-510.45 155.03,-513.76 150.37,-516.53"/>
<polygon fill="#63b8ff" stroke="#63b8ff" points="203.95,-344.35 209.29,-335.21 199.41,-339.02 203.95,-344.35"/>
</a>
</g>
</g>
<!-- Node7 -->
<g id="Node000007" class="node">
<title>Node7</title>
<g id="a_Node000007"><a xlink:href="classdnf__composer_1_1element_1_1CorrelatedNormalNoise.html#af978a9e9e7acbb0a917a4a3766efaf04" target="_top" xlink:title=" ">
<polygon fill="white" stroke="#666666" points="150,-497 13,-497 13,-456 150,-456 150,-497"/>
<text text-anchor="start" x="21" y="-485" font-family="Helvetica,sans-Serif" font-size="10.00">dnf_composer::element</text>
<text text-anchor="start" x="21" y="-474" font-family="Helvetica,sans-Serif" font-size="10.00">::CorrelatedNormalNoise</text>
<text text-anchor="middle" x="81.5" y="-463" font-family="Helvetica,sans-Serif" font-size="10.00">::toString</text>
</a>
</g>
</g>
<!-- Node3&#45;&gt;Node7 -->
<g id="edge6_Node000003_Node000007" class="edge">
<title>Node3&#45;&gt;Node7</title>
<g id="a_edge6_Node000003_Node000007"><a xlink:title=" ">
<path fill="none" stroke="#63b8ff" d="M202.36,-341.33C201.2,-342.35 200.08,-343.4 199,-344.5 165.3,-378.79 196.7,-412.21 163,-446.5 159.24,-450.33 154.94,-453.68 150.33,-456.6"/>
<polygon fill="#63b8ff" stroke="#63b8ff" points="204.67,-343.97 210.52,-335.14 200.44,-338.39 204.67,-343.97"/>
</a>
</g>
</g>
<!-- Node8 -->
<g id="Node000008" class="node">
<title>Node8</title>
<g id="a_Node000008"><a xlink:href="classdnf__composer_1_1element_1_1FieldCoupling.html#a0ec7d17d851fa9007175794248bb9590" target="_top" xlink:title=" ">
<polygon fill="white" stroke="#666666" points="148,-437.5 15,-437.5 15,-407.5 148,-407.5 148,-437.5"/>
<text text-anchor="start" x="23" y="-425.5" font-family="Helvetica,sans-Serif" font-size="10.00">dnf_composer::element</text>
<text text-anchor="middle" x="81.5" y="-414.5" font-family="Helvetica,sans-Serif" font-size="10.00">::FieldCoupling::toString</text>
</a>
</g>
</g>
<!-- Node3&#45;&gt;Node8 -->
<g id="edge7_Node000003_Node000008" class="edge">
<title>Node3&#45;&gt;Node8</title>
<g id="a_edge7_Node000003_Node000008"><a xlink:title=" ">
<path fill="none" stroke="#63b8ff" d="M204.62,-340.4C202.69,-341.7 200.81,-343.07 199,-344.5 176.39,-362.41 186.2,-381.36 163,-398.5 158.31,-401.97 153.12,-404.94 147.7,-407.48"/>
<polygon fill="#63b8ff" stroke="#63b8ff" points="206.71,-343.23 213.46,-335.06 203.09,-337.24 206.71,-343.23"/>
</a>
</g>
</g>
<!-- Node9 -->
<g id="Node000009" class="node">
<title>Node9</title>
<g id="a_Node000009"><a xlink:href="classdnf__composer_1_1element_1_1GaussFieldCoupling.html#a6af7a83156ac66cf5cfaafcbb16d2409" target="_top" xlink:title=" ">
<polygon fill="white" stroke="#666666" points="147.5,-389 15.5,-389 15.5,-348 147.5,-348 147.5,-389"/>
<text text-anchor="start" x="23.5" y="-377" font-family="Helvetica,sans-Serif" font-size="10.00">dnf_composer::element</text>
<text text-anchor="start" x="23.5" y="-366" font-family="Helvetica,sans-Serif" font-size="10.00">::GaussFieldCoupling</text>
<text text-anchor="middle" x="81.5" y="-355" font-family="Helvetica,sans-Serif" font-size="10.00">::toString</text>
</a>
</g>
</g>
<!-- Node3&#45;&gt;Node9 -->
<g id="edge8_Node000003_Node000009" class="edge">
<title>Node3&#45;&gt;Node9</title>
<g id="a_edge8_Node000003_Node000009"><a xlink:title=" ">
<path fill="none" stroke="#63b8ff" d="M194.73,-337.74C178.97,-342.06 162.73,-346.51 147.67,-350.63"/>
<polygon fill="#63b8ff" stroke="#63b8ff" points="195.74,-341.09 204.46,-335.07 193.89,-334.34 195.74,-341.09"/>
</a>
</g>
</g>
<!-- Node10 -->
<g id="Node000010" class="node">
<title>Node10</title>
<g id="a_Node000010"><a xlink:href="classdnf__composer_1_1element_1_1GaussKernel.html#a7b8a9134ec53b0a10ad914ad363c4fd0" target="_top" xlink:title=" ">
<polygon fill="white" stroke="#666666" points="147.5,-329.5 15.5,-329.5 15.5,-299.5 147.5,-299.5 147.5,-329.5"/>
<text text-anchor="start" x="23.5" y="-317.5" font-family="Helvetica,sans-Serif" font-size="10.00">dnf_composer::element</text>
<text text-anchor="middle" x="81.5" y="-306.5" font-family="Helvetica,sans-Serif" font-size="10.00">::GaussKernel::toString</text>
</a>
</g>
</g>
<!-- Node3&#45;&gt;Node10 -->
<g id="edge9_Node000003_Node000010" class="edge">
<title>Node3&#45;&gt;Node10</title>
<g id="a_edge9_Node000003_Node000010"><a xlink:title=" ">
<path fill="none" stroke="#63b8ff" d="M188.77,-314.5C174.93,-314.5 160.88,-314.5 147.72,-314.5"/>
<polygon fill="#63b8ff" stroke="#63b8ff" points="188.8,-318 198.8,-314.5 188.8,-311 188.8,-318"/>
</a>
</g>
</g>
<!-- Node11 -->
<g id="Node000011" class="node">
<title>Node11</title>
<g id="a_Node000011"><a xlink:href="classdnf__composer_1_1element_1_1GaussStimulus.html#a15f8c25e4db545c57c765a440e7a8cb7" target="_top" xlink:title=" ">
<polygon fill="white" stroke="#666666" points="151.5,-281.5 11.5,-281.5 11.5,-251.5 151.5,-251.5 151.5,-281.5"/>
<text text-anchor="start" x="19.5" y="-269.5" font-family="Helvetica,sans-Serif" font-size="10.00">dnf_composer::element</text>
<text text-anchor="middle" x="81.5" y="-258.5" font-family="Helvetica,sans-Serif" font-size="10.00">::GaussStimulus::toString</text>
</a>
</g>
</g>
<!-- Node3&#45;&gt;Node11 -->
<g id="edge10_Node000003_Node000011" class="edge">
<title>Node3&#45;&gt;Node11</title>
<g id="a_edge10_Node000003_Node000011"><a xlink:title=" ">
<path fill="none" stroke="#63b8ff" d="M188.89,-292.42C173.71,-288.72 158.29,-284.97 144.07,-281.5"/>
<polygon fill="#63b8ff" stroke="#63b8ff" points="188.26,-295.87 198.8,-294.84 189.92,-289.07 188.26,-295.87"/>
</a>
</g>
</g>
<!-- Node12 -->
<g id="Node000012" class="node">
<title>Node12</title>
<g id="a_Node000012"><a xlink:href="classdnf__composer_1_1element_1_1MemoryTrace.html#ac660d6876aaa723c4a6afa5a4387a606" target="_top" xlink:title=" ">
<polygon fill="white" stroke="#666666" points="148,-233.5 15,-233.5 15,-203.5 148,-203.5 148,-233.5"/>
<text text-anchor="start" x="23" y="-221.5" font-family="Helvetica,sans-Serif" font-size="10.00">dnf_composer::element</text>
<text text-anchor="middle" x="81.5" y="-210.5" font-family="Helvetica,sans-Serif" font-size="10.00">::MemoryTrace::toString</text>
</a>
</g>
</g>
<!-- Node3&#45;&gt;Node12 -->
<g id="edge11_Node000003_Node000012" class="edge">
<title>Node3&#45;&gt;Node12</title>
<g id="a_edge11_Node000003_Node000012"><a xlink:title=" ">
<path fill="none" stroke="#63b8ff" d="M242.54,-288.15C220.3,-273.21 190.96,-255.04 163,-242.5 155.68,-239.22 147.79,-236.24 139.91,-233.58"/>
<polygon fill="#63b8ff" stroke="#63b8ff" points="240.76,-291.18 251,-293.91 244.7,-285.39 240.76,-291.18"/>
</a>
</g>
</g>
<!-- Node13 -->
<g id="Node000013" class="node">
<title>Node13</title>
<g id="a_Node000013"><a xlink:href="classdnf__composer_1_1element_1_1MexicanHatKernel.html#ac6310b5ece9178f4d0730302822b99e3" target="_top" xlink:title=" ">
<polygon fill="white" stroke="#666666" points="159.5,-185.5 3.5,-185.5 3.5,-155.5 159.5,-155.5 159.5,-185.5"/>
<text text-anchor="start" x="11.5" y="-173.5" font-family="Helvetica,sans-Serif" font-size="10.00">dnf_composer::element</text>
<text text-anchor="middle" x="81.5" y="-162.5" font-family="Helvetica,sans-Serif" font-size="10.00">::MexicanHatKernel::toString</text>
</a>
</g>
</g>
<!-- Node3&#45;&gt;Node13 -->
<g id="edge12_Node000003_Node000013" class="edge">
<title>Node3&#45;&gt;Node13</title>
<g id="a_edge12_Node000003_Node000013"><a xlink:title=" ">
<path fill="none" stroke="#63b8ff" d="M258.84,-285.97C237.68,-258.72 202.38,-218.37 163,-194.5 157.39,-191.1 151.26,-188.15 144.98,-185.6"/>
<polygon fill="#63b8ff" stroke="#63b8ff" points="256.1,-288.14 264.94,-293.97 261.66,-283.9 256.1,-288.14"/>
</a>
</g>
</g>
<!-- Node14 -->
<g id="Node000014" class="node">
<title>Node14</title>
<g id="a_Node000014"><a xlink:href="classdnf__composer_1_1element_1_1NeuralField.html#acf0203117e7820c0902e2986a594e47f" target="_top" xlink:title=" ">
<polygon fill="white" stroke="#666666" points="147.5,-137.5 15.5,-137.5 15.5,-107.5 147.5,-107.5 147.5,-137.5"/>
<text text-anchor="start" x="23.5" y="-125.5" font-family="Helvetica,sans-Serif" font-size="10.00">dnf_composer::element</text>
<text text-anchor="middle" x="81.5" y="-114.5" font-family="Helvetica,sans-Serif" font-size="10.00">::NeuralField::toString</text>
</a>
</g>
</g>
<!-- Node3&#45;&gt;Node14 -->
<g id="edge13_Node000003_Node000014" class="edge">
<title>Node3&#45;&gt;Node14</title>
<g id="a_edge13_Node000003_Node000014"><a xlink:title=" ">
<path fill="none" stroke="#63b8ff" d="M266.39,-284.36C248.46,-246.61 212.73,-182.54 163,-146.5 158.28,-143.08 153.06,-140.14 147.63,-137.61"/>
<polygon fill="#63b8ff" stroke="#63b8ff" points="263.39,-286.21 270.77,-293.81 269.74,-283.26 263.39,-286.21"/>
</a>
</g>
</g>
<!-- Node15 -->
<g id="Node000015" class="node">
<title>Node15</title>
<g id="a_Node000015"><a xlink:href="classdnf__composer_1_1element_1_1NormalNoise.html#a310344bc777d0f29351f0ffeaa3cd20c" target="_top" xlink:title=" ">
<polygon fill="white" stroke="#666666" points="147.5,-89.5 15.5,-89.5 15.5,-59.5 147.5,-59.5 147.5,-89.5"/>
<text text-anchor="start" x="23.5" y="-77.5" font-family="Helvetica,sans-Serif" font-size="10.00">dnf_composer::element</text>
<text text-anchor="middle" x="81.5" y="-66.5" font-family="Helvetica,sans-Serif" font-size="10.00">::NormalNoise::toString</text>
</a>
</g>
</g>
<!-- Node3&#45;&gt;Node15 -->
<g id="edge14_Node000003_Node000015" class="edge">
<title>Node3&#45;&gt;Node15</title>
<g id="a_edge14_Node000003_Node000015"><a xlink:title=" ">
<path fill="none" stroke="#63b8ff" d="M271.27,-283.94C257.08,-237.08 223.53,-147.75 163,-98.5 158.36,-94.73 153.14,-91.55 147.65,-88.87"/>
<polygon fill="#63b8ff" stroke="#63b8ff" points="267.99,-285.2 274.16,-293.81 274.71,-283.23 267.99,-285.2"/>
</a>
</g>
</g>
<!-- Node16 -->
<g id="Node000016" class="node">
<title>Node16</title>
<g id="a_Node000016"><a xlink:href="classdnf__composer_1_1element_1_1OscillatoryKernel.html#aceabd095ff34c16767e66308bf408d63" target="_top" xlink:title=" ">
<polygon fill="white" stroke="#666666" points="147.5,-41 15.5,-41 15.5,0 147.5,0 147.5,-41"/>
<text text-anchor="start" x="23.5" y="-29" font-family="Helvetica,sans-Serif" font-size="10.00">dnf_composer::element</text>
<text text-anchor="start" x="23.5" y="-18" font-family="Helvetica,sans-Serif" font-size="10.00">::OscillatoryKernel::</text>
<text text-anchor="middle" x="81.5" y="-7" font-family="Helvetica,sans-Serif" font-size="10.00">toString</text>
</a>
</g>
</g>
<!-- Node3&#45;&gt;Node16 -->
<g id="edge15_Node000003_Node000016" class="edge">
<title>Node3&#45;&gt;Node16</title>
<g id="a_edge15_Node000003_Node000016"><a xlink:title=" ">
<path fill="none" stroke="#63b8ff" d="M274.04,-283.79C262.83,-229.4 232.2,-115.74 163,-50.5 158.44,-46.2 153.21,-42.51 147.66,-39.33"/>
<polygon fill="#63b8ff" stroke="#63b8ff" points="270.66,-284.72 276.03,-293.85 277.53,-283.36 270.66,-284.72"/>
</a>
</g>
</g>
</g>
</svg>
