<?xml version="1.0" encoding="UTF-8" standalone="no"?>
<!DOCTYPE svg PUBLIC "-//W3C//DTD SVG 1.1//EN"
 "http://www.w3.org/Graphics/SVG/1.1/DTD/svg11.dtd">
<!-- Generated by graphviz version 2.43.0 (0)
 -->
<!-- Title: dnf_composer::element::AsymmetricGaussKernelParameters Pages: 1 -->
<svg width="213pt" height="314pt"
 viewBox="0.00 0.00 213.00 314.00" xmlns="http://www.w3.org/2000/svg" xmlns:xlink="http://www.w3.org/1999/xlink">
<g id="graph0" class="graph" transform="scale(1 1) rotate(0) translate(4 310)">
<title>dnf_composer::element::AsymmetricGaussKernelParameters</title>
<!-- Node1 -->
<g id="Node000001" class="node">
<title>Node1</title>
<g id="a_Node000001"><a xlink:title="Parameters for an asymmetric (shifted) Gaussian convolution kernel.">
<polygon fill="#999999" stroke="transparent" points="205,-165 0,-165 0,0 205,0 205,-165"/>
<text text-anchor="start" x="12" y="-152.5" font-family="Helvetica,sans-Serif" font-size="10.00">dnf_composer::element</text>
<text text-anchor="start" x="12" y="-141.5" font-family="Helvetica,sans-Serif" font-size="10.00">::AsymmetricGaussKernelParameters</text>
<text text-anchor="start" x="4.5" y="-126.5" font-family="Helvetica,sans-Serif" font-size="10.00">+</text>
<text text-anchor="start" x="17.5" y="-126.5" font-family="Helvetica,sans-Serif" font-size="10.00">amplitude</text>
<text text-anchor="start" x="4.5" y="-111.5" font-family="Helvetica,sans-Serif" font-size="10.00">+</text>
<text text-anchor="start" x="17.5" y="-111.5" font-family="Helvetica,sans-Serif" font-size="10.00">amplitudeGlobal</text>
<text text-anchor="start" x="4.5" y="-96.5" font-family="Helvetica,sans-Serif" font-size="10.00">+</text>
<text text-anchor="start" x="17.5" y="-96.5" font-family="Helvetica,sans-Serif" font-size="10.00">circular</text>
<text text-anchor="start" x="4.5" y="-81.5" font-family="Helvetica,sans-Serif" font-size="10.00">+</text>
<text text-anchor="start" x="17.5" y="-81.5" font-family="Helvetica,sans-Serif" font-size="10.00">normalized</text>
<text text-anchor="start" x="4.5" y="-66.5" font-family="Helvetica,sans-Serif" font-size="10.00">+</text>
<text text-anchor="start" x="17.5" y="-66.5" font-family="Helvetica,sans-Serif" font-size="10.00">timeShift</text>
<text text-anchor="start" x="4.5" y="-51.5" font-family="Helvetica,sans-Serif" font-size="10.00">+</text>
<text text-anchor="start" x="17.5" y="-51.5" font-family="Helvetica,sans-Serif" font-size="10.00">width</text>
<text text-anchor="start" x="4.5" y="-36.5" font-family="Helvetica,sans-Serif" font-size="10.00">+</text>
<text text-anchor="start" x="17.5" y="-36.5" font-family="Helvetica,sans-Serif" font-size="10.00">AsymmetricGaussKernelParameters()</text>
<text text-anchor="start" x="4.5" y="-21.5" font-family="Helvetica,sans-Serif" font-size="10.00">+</text>
<text text-anchor="start" x="17.5" y="-21.5" font-family="Helvetica,sans-Serif" font-size="10.00">operator==()</text>
<text text-anchor="start" x="4.5" y="-6.5" font-family="Helvetica,sans-Serif" font-size="10.00">+</text>
<text text-anchor="start" x="17.5" y="-6.5" font-family="Helvetica,sans-Serif" font-size="10.00">toString()</text>
<polygon fill="#666666" stroke="#666666" points="0.5,-136.5 0.5,-136.5 205.5,-136.5 205.5,-136.5 0.5,-136.5"/>
<polygon fill="#666666" stroke="#666666" points="0.5,-46.5 0.5,-46.5 15.5,-46.5 15.5,-46.5 0.5,-46.5"/>
<polygon fill="#666666" stroke="#666666" points="15.5,-46.5 15.5,-46.5 205.5,-46.5 205.5,-46.5 15.5,-46.5"/>
<polygon fill="none" stroke="#666666" points="0,0 0,-165 205,-165 205,0 0,0"/>
</a>
</g>
</g>
<!-- Node2 -->
<g id="Node000002" class="node">
<title>Node2</title>
<g id="a_Node000002"><a xlink:href="structdnf__composer_1_1element_1_1ElementSpecificParameters.html" target="_top" xlink:title="Abstract base for all element&#45;specific parameter structs.">
<polygon fill="white" stroke="transparent" points="188,-306 17,-306 17,-201 188,-201 188,-306"/>
<text text-anchor="start" x="33" y="-293.5" font-family="Helvetica,sans-Serif" font-size="10.00">dnf_composer::element</text>
<text text-anchor="start" x="33" y="-282.5" font-family="Helvetica,sans-Serif" font-size="10.00">::ElementSpecificParameters</text>
<text text-anchor="start" x="101" y="-267.5" font-family="Helvetica,sans-Serif" font-size="10.00"> </text>
<text text-anchor="start" x="21.5" y="-252.5" font-family="Helvetica,sans-Serif" font-size="10.00">+</text>
<text text-anchor="start" x="34.5" y="-252.5" font-family="Helvetica,sans-Serif" font-size="10.00">ElementSpecificParameters()</text>
<text text-anchor="start" x="21.5" y="-237.5" font-family="Helvetica,sans-Serif" font-size="10.00">+</text>
<text text-anchor="start" x="34.5" y="-237.5" font-family="Helvetica,sans-Serif" font-size="10.00">print()</text>
<text text-anchor="start" x="21.5" y="-222.5" font-family="Helvetica,sans-Serif" font-size="10.00">+</text>
<text text-anchor="start" x="34.5" y="-222.5" font-family="Helvetica,sans-Serif" font-size="10.00">toString()</text>
<text text-anchor="start" x="21.5" y="-207.5" font-family="Helvetica,sans-Serif" font-size="10.00">+</text>
<text text-anchor="start" x="34.5" y="-207.5" font-family="Helvetica,sans-Serif" font-size="10.00">~ElementSpecificParameters()</text>
<polygon fill="#666666" stroke="#666666" points="17.5,-277.5 17.5,-277.5 188.5,-277.5 188.5,-277.5 17.5,-277.5"/>
<polygon fill="#666666" stroke="#666666" points="17.5,-262.5 17.5,-262.5 188.5,-262.5 188.5,-262.5 17.5,-262.5"/>
<polygon fill="none" stroke="#666666" points="17,-201 17,-306 188,-306 188,-201 17,-201"/>
</a>
</g>
</g>
<!-- Node2&#45;&gt;Node1 -->
<g id="edge1_Node000001_Node000002" class="edge">
<title>Node2&#45;&gt;Node1</title>
<g id="a_edge1_Node000001_Node000002"><a xlink:title=" ">
<path fill="none" stroke="#63b8ff" d="M102.5,-190.82C102.5,-182.42 102.5,-173.69 102.5,-165.01"/>
<polygon fill="none" stroke="#63b8ff" points="99,-190.88 102.5,-200.88 106,-190.88 99,-190.88"/>
</a>
</g>
</g>
</g>
</svg>
