<?xml version="1.0" encoding="UTF-8" standalone="no"?>
<!DOCTYPE svg PUBLIC "-//W3C//DTD SVG 1.1//EN"
 "http://www.w3.org/Graphics/SVG/1.1/DTD/svg11.dtd">
<!-- Generated by graphviz version 2.43.0 (0)
 -->
<!-- Title: dnf_composer::element::NormalNoiseParameters Pages: 1 -->
<svg width="179pt" height="284pt"
 viewBox="0.00 0.00 179.00 284.00" xmlns="http://www.w3.org/2000/svg" xmlns:xlink="http://www.w3.org/1999/xlink">
<g id="graph0" class="graph" transform="scale(1 1) rotate(0) translate(4 280)">
<title>dnf_composer::element::NormalNoiseParameters</title>
<!-- Node1 -->
<g id="Node000001" class="node">
<title>Node1</title>
<g id="a_Node000001"><a xlink:title="Parameters for an additive normal&#45;noise input.">
<polygon fill="#999999" stroke="transparent" points="159.5,-135 11.5,-135 11.5,0 159.5,0 159.5,-135"/>
<text text-anchor="start" x="22.5" y="-122.5" font-family="Helvetica,sans-Serif" font-size="10.00">dnf_composer::element</text>
<text text-anchor="start" x="22.5" y="-111.5" font-family="Helvetica,sans-Serif" font-size="10.00">::NormalNoiseParameters</text>
<text text-anchor="start" x="15.5" y="-96.5" font-family="Helvetica,sans-Serif" font-size="10.00">+</text>
<text text-anchor="start" x="28.5" y="-96.5" font-family="Helvetica,sans-Serif" font-size="10.00">amplitude</text>
<text text-anchor="start" x="15.5" y="-81.5" font-family="Helvetica,sans-Serif" font-size="10.00">+</text>
<text text-anchor="start" x="28.5" y="-81.5" font-family="Helvetica,sans-Serif" font-size="10.00">NormalNoiseParameters()</text>
<text text-anchor="start" x="15.5" y="-66.5" font-family="Helvetica,sans-Serif" font-size="10.00">+</text>
<text text-anchor="start" x="28.5" y="-66.5" font-family="Helvetica,sans-Serif" font-size="10.00">NormalNoiseParameters()</text>
<text text-anchor="start" x="15.5" y="-51.5" font-family="Helvetica,sans-Serif" font-size="10.00">+</text>
<text text-anchor="start" x="28.5" y="-51.5" font-family="Helvetica,sans-Serif" font-size="10.00">operator==()</text>
<text text-anchor="start" x="15.5" y="-36.5" font-family="Helvetica,sans-Serif" font-size="10.00">+</text>
<text text-anchor="start" x="28.5" y="-36.5" font-family="Helvetica,sans-Serif" font-size="10.00">operator==()</text>
<text text-anchor="start" x="15.5" y="-21.5" font-family="Helvetica,sans-Serif" font-size="10.00">+</text>
<text text-anchor="start" x="28.5" y="-21.5" font-family="Helvetica,sans-Serif" font-size="10.00">toString()</text>
<text text-anchor="start" x="15.5" y="-6.5" font-family="Helvetica,sans-Serif" font-size="10.00">+</text>
<text text-anchor="start" x="28.5" y="-6.5" font-family="Helvetica,sans-Serif" font-size="10.00">toString()</text>
<polygon fill="#666666" stroke="#666666" points="11.5,-106.5 11.5,-106.5 159.5,-106.5 159.5,-106.5 11.5,-106.5"/>
<polygon fill="#666666" stroke="#666666" points="11.5,-91.5 11.5,-91.5 26.5,-91.5 26.5,-91.5 11.5,-91.5"/>
<polygon fill="#666666" stroke="#666666" points="26.5,-91.5 26.5,-91.5 159.5,-91.5 159.5,-91.5 26.5,-91.5"/>
<polygon fill="none" stroke="#666666" points="11.5,0 11.5,-135 159.5,-135 159.5,0 11.5,0"/>
</a>
</g>
</g>
<!-- Node2 -->
<g id="Node000002" class="node">
<title>Node2</title>
<g id="a_Node000002"><a xlink:href="structdnf__composer_1_1element_1_1ElementSpecificParameters.html" target="_top" xlink:title=" ">
<polygon fill="white" stroke="transparent" points="171,-276 0,-276 0,-171 171,-171 171,-276"/>
<text text-anchor="start" x="16" y="-263.5" font-family="Helvetica,sans-Serif" font-size="10.00">dnf_composer::element</text>
<text text-anchor="start" x="16" y="-252.5" font-family="Helvetica,sans-Serif" font-size="10.00">::ElementSpecificParameters</text>
<text text-anchor="start" x="84" y="-237.5" font-family="Helvetica,sans-Serif" font-size="10.00"> </text>
<text text-anchor="start" x="4.5" y="-222.5" font-family="Helvetica,sans-Serif" font-size="10.00">+</text>
<text text-anchor="start" x="17.5" y="-222.5" font-family="Helvetica,sans-Serif" font-size="10.00">ElementSpecificParameters()</text>
<text text-anchor="start" x="4.5" y="-207.5" font-family="Helvetica,sans-Serif" font-size="10.00">+</text>
<text text-anchor="start" x="17.5" y="-207.5" font-family="Helvetica,sans-Serif" font-size="10.00">print()</text>
<text text-anchor="start" x="4.5" y="-192.5" font-family="Helvetica,sans-Serif" font-size="10.00">+</text>
<text text-anchor="start" x="17.5" y="-192.5" font-family="Helvetica,sans-Serif" font-size="10.00">toString()</text>
<text text-anchor="start" x="4.5" y="-177.5" font-family="Helvetica,sans-Serif" font-size="10.00">+</text>
<text text-anchor="start" x="17.5" y="-177.5" font-family="Helvetica,sans-Serif" font-size="10.00">~ElementSpecificParameters()</text>
<polygon fill="#666666" stroke="#666666" points="0.5,-247.5 0.5,-247.5 171.5,-247.5 171.5,-247.5 0.5,-247.5"/>
<polygon fill="#666666" stroke="#666666" points="0.5,-232.5 0.5,-232.5 171.5,-232.5 171.5,-232.5 0.5,-232.5"/>
<polygon fill="none" stroke="#666666" points="0,-171 0,-276 171,-276 171,-171 0,-171"/>
</a>
</g>
</g>
<!-- Node2&#45;&gt;Node1 -->
<g id="edge1_Node000001_Node000002" class="edge">
<title>Node2&#45;&gt;Node1</title>
<g id="a_edge1_Node000001_Node000002"><a xlink:title=" ">
<path fill="none" stroke="#63b8ff" d="M78.87,-160.68C78.74,-152.27 78.71,-143.61 78.8,-135.11"/>
<polygon fill="none" stroke="#63b8ff" points="75.37,-160.87 79.08,-170.79 82.37,-160.72 75.37,-160.87"/>
</a>
</g>
</g>
<!-- Node2&#45;&gt;Node1 -->
<g id="edge2_Node000001_Node000002" class="edge">
<title>Node2&#45;&gt;Node1</title>
<g id="a_edge2_Node000001_Node000002"><a xlink:title=" ">
<path fill="none" stroke="#63b8ff" d="M92.13,-160.68C92.26,-152.27 92.29,-143.61 92.2,-135.11"/>
<polygon fill="none" stroke="#63b8ff" points="88.63,-160.72 91.92,-170.79 95.63,-160.87 88.63,-160.72"/>
</a>
</g>
</g>
</g>
</svg>
