<?xml version="1.0" encoding="UTF-8" standalone="no"?>
<!DOCTYPE svg PUBLIC "-//W3C//DTD SVG 1.1//EN"
 "http://www.w3.org/Graphics/SVG/1.1/DTD/svg11.dtd">
<!-- Generated by graphviz version 2.43.0 (0)
 -->
<!-- Title: dnf_composer::element::ElementCommonParameters::toString Pages: 1 -->
<svg width="370pt" height="1315pt"
 viewBox="0.00 0.00 370.00 1315.00" xmlns="http://www.w3.org/2000/svg" xmlns:xlink="http://www.w3.org/1999/xlink">
<g id="graph0" class="graph" transform="scale(1 1) rotate(0) translate(4 1311)">
<title>dnf_composer::element::ElementCommonParameters::toString</title>
<!-- Node1 -->
<g id="Node000001" class="node">
<title>Node1</title>
<g id="a_Node000001"><a xlink:title=" ">
<polygon fill="#999999" stroke="#666666" points="362,-668 199,-668 199,-627 362,-627 362,-668"/>
<text text-anchor="start" x="207" y="-656" font-family="Helvetica,sans-Serif" font-size="10.00">dnf_composer::element</text>
<text text-anchor="start" x="207" y="-645" font-family="Helvetica,sans-Serif" font-size="10.00">::ElementCommonParameters</text>
<text text-anchor="middle" x="280.5" y="-634" font-family="Helvetica,sans-Serif" font-size="10.00">::toString</text>
</a>
</g>
</g>
<!-- Node2 -->
<g id="Node000002" class="node">
<title>Node2</title>
<g id="a_Node000002"><a xlink:href="structdnf__composer_1_1element_1_1ElementCommonParameters.html#a446472a2d6a83b41ae55e42c024357f3" target="_top" xlink:title=" ">
<polygon fill="white" stroke="#666666" points="163,-1307 0,-1307 0,-1266 163,-1266 163,-1307"/>
<text text-anchor="start" x="8" y="-1295" font-family="Helvetica,sans-Serif" font-size="10.00">dnf_composer::element</text>
<text text-anchor="start" x="8" y="-1284" font-family="Helvetica,sans-Serif" font-size="10.00">::ElementCommonParameters</text>
<text text-anchor="middle" x="81.5" y="-1273" font-family="Helvetica,sans-Serif" font-size="10.00">::print</text>
</a>
</g>
</g>
<!-- Node1&#45;&gt;Node2 -->
<g id="edge1_Node000001_Node000002" class="edge">
<title>Node1&#45;&gt;Node2</title>
<g id="a_edge1_Node000001_Node000002"><a xlink:title=" ">
<path fill="none" stroke="#63b8ff" d="M277.58,-678.31C270.07,-789.5 239.24,-1168.24 163,-1257.5 160.3,-1260.66 157.23,-1263.48 153.89,-1265.99"/>
<polygon fill="#63b8ff" stroke="#63b8ff" points="281.09,-678.32 278.25,-668.11 274.1,-677.86 281.09,-678.32"/>
</a>
</g>
</g>
<!-- Node3 -->
<g id="Node000003" class="node">
<title>Node3</title>
<g id="a_Node000003"><a xlink:href="classdnf__composer_1_1element_1_1AsymmetricGaussKernel.html#ad04b7f2dc4f17529affba6c44995de85" target="_top" xlink:title=" ">
<polygon fill="white" stroke="#666666" points="153,-1248 10,-1248 10,-1207 153,-1207 153,-1248"/>
<text text-anchor="start" x="18" y="-1236" font-family="Helvetica,sans-Serif" font-size="10.00">dnf_composer::element</text>
<text text-anchor="start" x="18" y="-1225" font-family="Helvetica,sans-Serif" font-size="10.00">::AsymmetricGaussKernel</text>
<text text-anchor="middle" x="81.5" y="-1214" font-family="Helvetica,sans-Serif" font-size="10.00">::toString</text>
</a>
</g>
</g>
<!-- Node1&#45;&gt;Node3 -->
<g id="edge2_Node000001_Node000003" class="edge">
<title>Node1&#45;&gt;Node3</title>
<g id="a_edge2_Node000001_Node000003"><a xlink:title=" ">
<path fill="none" stroke="#63b8ff" d="M276.89,-678.37C267.49,-782.54 232.24,-1119.02 163,-1198.5 160.07,-1201.86 156.73,-1204.83 153.1,-1207.46"/>
<polygon fill="#63b8ff" stroke="#63b8ff" points="280.39,-678.48 277.79,-668.21 273.42,-677.86 280.39,-678.48"/>
</a>
</g>
</g>
<!-- Node4 -->
<g id="Node000004" class="node">
<title>Node4</title>
<g id="a_Node000004"><a xlink:href="classdnf__composer_1_1element_1_1AsymmetricGaussKernel2D.html#a2684446b0d35c206880e4d633d3f04e8" target="_top" xlink:title=" ">
<polygon fill="white" stroke="#666666" points="159.5,-1189 3.5,-1189 3.5,-1148 159.5,-1148 159.5,-1189"/>
<text text-anchor="start" x="11.5" y="-1177" font-family="Helvetica,sans-Serif" font-size="10.00">dnf_composer::element</text>
<text text-anchor="start" x="11.5" y="-1166" font-family="Helvetica,sans-Serif" font-size="10.00">::AsymmetricGaussKernel2D</text>
<text text-anchor="middle" x="81.5" y="-1155" font-family="Helvetica,sans-Serif" font-size="10.00">::toString</text>
</a>
</g>
</g>
<!-- Node1&#45;&gt;Node4 -->
<g id="edge3_Node000001_Node000004" class="edge">
<title>Node1&#45;&gt;Node4</title>
<g id="a_edge3_Node000001_Node000004"><a xlink:title=" ">
<path fill="none" stroke="#63b8ff" d="M276.01,-678.14C264.5,-774.4 224.84,-1068.49 163,-1138.5 159.94,-1141.97 156.44,-1145.03 152.65,-1147.74"/>
<polygon fill="#63b8ff" stroke="#63b8ff" points="279.49,-678.51 277.19,-668.17 272.54,-677.69 279.49,-678.51"/>
</a>
</g>
</g>
<!-- Node5 -->
<g id="Node000005" class="node">
<title>Node5</title>
<g id="a_Node000005"><a xlink:href="classdnf__composer_1_1element_1_1BoostStimulus.html#a8d10a318500c48897e0be68daeb73486" target="_top" xlink:title=" ">
<polygon fill="white" stroke="#666666" points="150,-1129.5 13,-1129.5 13,-1099.5 150,-1099.5 150,-1129.5"/>
<text text-anchor="start" x="21" y="-1117.5" font-family="Helvetica,sans-Serif" font-size="10.00">dnf_composer::element</text>
<text text-anchor="middle" x="81.5" y="-1106.5" font-family="Helvetica,sans-Serif" font-size="10.00">::BoostStimulus::toString</text>
</a>
</g>
</g>
<!-- Node1&#45;&gt;Node5 -->
<g id="edge4_Node000001_Node000005" class="edge">
<title>Node1&#45;&gt;Node5</title>
<g id="a_edge4_Node000001_Node000005"><a xlink:title=" ">
<path fill="none" stroke="#63b8ff" d="M275.36,-678.26C262.63,-768.54 221.33,-1030.24 163,-1090.5 159.25,-1094.38 154.9,-1097.63 150.2,-1100.37"/>
<polygon fill="#63b8ff" stroke="#63b8ff" points="278.86,-678.51 276.77,-668.12 271.93,-677.55 278.86,-678.51"/>
</a>
</g>
</g>
<!-- Node6 -->
<g id="Node000006" class="node">
<title>Node6</title>
<g id="a_Node000006"><a xlink:href="classdnf__composer_1_1element_1_1BoostStimulus2D.html#a056a3a4ab8e0033bd26ed5bbaea3d950" target="_top" xlink:title=" ">
<polygon fill="white" stroke="#666666" points="157,-1081.5 6,-1081.5 6,-1051.5 157,-1051.5 157,-1081.5"/>
<text text-anchor="start" x="14" y="-1069.5" font-family="Helvetica,sans-Serif" font-size="10.00">dnf_composer::element</text>
<text text-anchor="middle" x="81.5" y="-1058.5" font-family="Helvetica,sans-Serif" font-size="10.00">::BoostStimulus2D::toString</text>
</a>
</g>
</g>
<!-- Node1&#45;&gt;Node6 -->
<g id="edge5_Node000001_Node000006" class="edge">
<title>Node1&#45;&gt;Node6</title>
<g id="a_edge5_Node000001_Node000006"><a xlink:title=" ">
<path fill="none" stroke="#63b8ff" d="M279.76,-678.5C278.63,-752.31 265.28,-939.92 163,-1042.5 159.6,-1045.91 155.74,-1048.84 151.6,-1051.35"/>
<polygon fill="#63b8ff" stroke="#63b8ff" points="283.26,-678.09 279.84,-668.06 276.26,-678.03 283.26,-678.09"/>
</a>
</g>
</g>
<!-- Node7 -->
<g id="Node000007" class="node">
<title>Node7</title>
<g id="a_Node000007"><a xlink:href="classdnf__composer_1_1element_1_1CorrelatedNormalNoise.html#af978a9e9e7acbb0a917a4a3766efaf04" target="_top" xlink:title=" ">
<polygon fill="white" stroke="#666666" points="150,-1033 13,-1033 13,-992 150,-992 150,-1033"/>
<text text-anchor="start" x="21" y="-1021" font-family="Helvetica,sans-Serif" font-size="10.00">dnf_composer::element</text>
<text text-anchor="start" x="21" y="-1010" font-family="Helvetica,sans-Serif" font-size="10.00">::CorrelatedNormalNoise</text>
<text text-anchor="middle" x="81.5" y="-999" font-family="Helvetica,sans-Serif" font-size="10.00">::toString</text>
</a>
</g>
</g>
<!-- Node1&#45;&gt;Node7 -->
<g id="edge6_Node000001_Node000007" class="edge">
<title>Node1&#45;&gt;Node7</title>
<g id="a_edge6_Node000001_Node000007"><a xlink:title=" ">
<path fill="none" stroke="#63b8ff" d="M277.5,-678.06C271.62,-743.13 248.91,-896.55 163,-983.5 159.24,-987.3 154.95,-990.61 150.34,-993.49"/>
<polygon fill="#63b8ff" stroke="#63b8ff" points="280.99,-678.29 278.33,-668.04 274.02,-677.71 280.99,-678.29"/>
</a>
</g>
</g>
<!-- Node8 -->
<g id="Node000008" class="node">
<title>Node8</title>
<g id="a_Node000008"><a xlink:href="classdnf__composer_1_1element_1_1CorrelatedNormalNoise2D.html#ace11403ed6a019fe22d734dc55089324" target="_top" xlink:title=" ">
<polygon fill="white" stroke="#666666" points="157,-974 6,-974 6,-933 157,-933 157,-974"/>
<text text-anchor="start" x="14" y="-962" font-family="Helvetica,sans-Serif" font-size="10.00">dnf_composer::element</text>
<text text-anchor="start" x="14" y="-951" font-family="Helvetica,sans-Serif" font-size="10.00">::CorrelatedNormalNoise2D</text>
<text text-anchor="middle" x="81.5" y="-940" font-family="Helvetica,sans-Serif" font-size="10.00">::toString</text>
</a>
</g>
</g>
<!-- Node1&#45;&gt;Node8 -->
<g id="edge7_Node000001_Node000008" class="edge">
<title>Node1&#45;&gt;Node8</title>
<g id="a_edge7_Node000001_Node000008"><a xlink:title=" ">
<path fill="none" stroke="#63b8ff" d="M274.68,-678.39C264.33,-734.74 234.79,-854.71 163,-923.5 159.34,-927.01 155.23,-930.11 150.86,-932.86"/>
<polygon fill="#63b8ff" stroke="#63b8ff" points="278.17,-678.78 276.45,-668.32 271.28,-677.57 278.17,-678.78"/>
</a>
</g>
</g>
<!-- Node9 -->
<g id="Node000009" class="node">
<title>Node9</title>
<g id="a_Node000009"><a xlink:href="classdnf__composer_1_1element_1_1FieldCoupling.html#a0ec7d17d851fa9007175794248bb9590" target="_top" xlink:title=" ">
<polygon fill="white" stroke="#666666" points="148,-914.5 15,-914.5 15,-884.5 148,-884.5 148,-914.5"/>
<text text-anchor="start" x="23" y="-902.5" font-family="Helvetica,sans-Serif" font-size="10.00">dnf_composer::element</text>
<text text-anchor="middle" x="81.5" y="-891.5" font-family="Helvetica,sans-Serif" font-size="10.00">::FieldCoupling::toString</text>
</a>
</g>
</g>
<!-- Node1&#45;&gt;Node9 -->
<g id="edge8_Node000001_Node000009" class="edge">
<title>Node1&#45;&gt;Node9</title>
<g id="a_edge8_Node000001_Node000009"><a xlink:title=" ">
<path fill="none" stroke="#63b8ff" d="M272.24,-677.99C259.01,-726.92 226.32,-822.81 163,-875.5 158.52,-879.23 153.47,-882.38 148.14,-885.04"/>
<polygon fill="#63b8ff" stroke="#63b8ff" points="275.63,-678.86 274.77,-668.3 268.86,-677.09 275.63,-678.86"/>
</a>
</g>
</g>
<!-- Node10 -->
<g id="Node000010" class="node">
<title>Node10</title>
<g id="a_Node000010"><a xlink:href="classdnf__composer_1_1element_1_1GaussFieldCoupling.html#a6af7a83156ac66cf5cfaafcbb16d2409" target="_top" xlink:title=" ">
<polygon fill="white" stroke="#666666" points="147.5,-866 15.5,-866 15.5,-825 147.5,-825 147.5,-866"/>
<text text-anchor="start" x="23.5" y="-854" font-family="Helvetica,sans-Serif" font-size="10.00">dnf_composer::element</text>
<text text-anchor="start" x="23.5" y="-843" font-family="Helvetica,sans-Serif" font-size="10.00">::GaussFieldCoupling</text>
<text text-anchor="middle" x="81.5" y="-832" font-family="Helvetica,sans-Serif" font-size="10.00">::toString</text>
</a>
</g>
</g>
<!-- Node1&#45;&gt;Node10 -->
<g id="edge9_Node000001_Node000010" class="edge">
<title>Node1&#45;&gt;Node10</title>
<g id="a_edge9_Node000001_Node000010"><a xlink:title=" ">
<path fill="none" stroke="#63b8ff" d="M265.86,-677.42C247.47,-714.66 211.37,-777.92 163,-815.5 158.29,-819.16 153.09,-822.41 147.66,-825.29"/>
<polygon fill="#63b8ff" stroke="#63b8ff" points="269.16,-678.62 270.36,-668.1 262.86,-675.58 269.16,-678.62"/>
</a>
</g>
</g>
<!-- Node11 -->
<g id="Node000011" class="node">
<title>Node11</title>
<g id="a_Node000011"><a xlink:href="classdnf__composer_1_1element_1_1GaussKernel.html#a7b8a9134ec53b0a10ad914ad363c4fd0" target="_top" xlink:title=" ">
<polygon fill="white" stroke="#666666" points="147.5,-806.5 15.5,-806.5 15.5,-776.5 147.5,-776.5 147.5,-806.5"/>
<text text-anchor="start" x="23.5" y="-794.5" font-family="Helvetica,sans-Serif" font-size="10.00">dnf_composer::element</text>
<text text-anchor="middle" x="81.5" y="-783.5" font-family="Helvetica,sans-Serif" font-size="10.00">::GaussKernel::toString</text>
</a>
</g>
</g>
<!-- Node1&#45;&gt;Node11 -->
<g id="edge10_Node000001_Node000011" class="edge">
<title>Node1&#45;&gt;Node11</title>
<g id="a_edge10_Node000001_Node000011"><a xlink:title=" ">
<path fill="none" stroke="#63b8ff" d="M258.84,-676.03C237.68,-703.28 202.38,-743.63 163,-767.5 157.39,-770.9 151.26,-773.85 144.98,-776.4"/>
<polygon fill="#63b8ff" stroke="#63b8ff" points="261.66,-678.1 264.94,-668.03 256.1,-673.86 261.66,-678.1"/>
</a>
</g>
</g>
<!-- Node12 -->
<g id="Node000012" class="node">
<title>Node12</title>
<g id="a_Node000012"><a xlink:href="classdnf__composer_1_1element_1_1GaussKernel2D.html#aad30c18ace65fff07f0c104744106395" target="_top" xlink:title=" ">
<polygon fill="white" stroke="#666666" points="152,-758.5 11,-758.5 11,-728.5 152,-728.5 152,-758.5"/>
<text text-anchor="start" x="19" y="-746.5" font-family="Helvetica,sans-Serif" font-size="10.00">dnf_composer::element</text>
<text text-anchor="middle" x="81.5" y="-735.5" font-family="Helvetica,sans-Serif" font-size="10.00">::GaussKernel2D::toString</text>
</a>
</g>
</g>
<!-- Node1&#45;&gt;Node12 -->
<g id="edge11_Node000001_Node000012" class="edge">
<title>Node1&#45;&gt;Node12</title>
<g id="a_edge11_Node000001_Node000012"><a xlink:title=" ">
<path fill="none" stroke="#63b8ff" d="M242.54,-673.85C220.3,-688.79 190.96,-706.96 163,-719.5 155.68,-722.78 147.79,-725.76 139.91,-728.42"/>
<polygon fill="#63b8ff" stroke="#63b8ff" points="244.7,-676.61 251,-668.09 240.76,-670.82 244.7,-676.61"/>
</a>
</g>
</g>
<!-- Node13 -->
<g id="Node000013" class="node">
<title>Node13</title>
<g id="a_Node000013"><a xlink:href="classdnf__composer_1_1element_1_1GaussStimulus.html#a15f8c25e4db545c57c765a440e7a8cb7" target="_top" xlink:title=" ">
<polygon fill="white" stroke="#666666" points="151.5,-710.5 11.5,-710.5 11.5,-680.5 151.5,-680.5 151.5,-710.5"/>
<text text-anchor="start" x="19.5" y="-698.5" font-family="Helvetica,sans-Serif" font-size="10.00">dnf_composer::element</text>
<text text-anchor="middle" x="81.5" y="-687.5" font-family="Helvetica,sans-Serif" font-size="10.00">::GaussStimulus::toString</text>
</a>
</g>
</g>
<!-- Node1&#45;&gt;Node13 -->
<g id="edge12_Node000001_Node000013" class="edge">
<title>Node1&#45;&gt;Node13</title>
<g id="a_edge12_Node000001_Node000013"><a xlink:title=" ">
<path fill="none" stroke="#63b8ff" d="M188.89,-669.58C173.71,-673.28 158.29,-677.03 144.07,-680.5"/>
<polygon fill="#63b8ff" stroke="#63b8ff" points="189.92,-672.93 198.8,-667.16 188.26,-666.13 189.92,-672.93"/>
</a>
</g>
</g>
<!-- Node14 -->
<g id="Node000014" class="node">
<title>Node14</title>
<g id="a_Node000014"><a xlink:href="classdnf__composer_1_1element_1_1GaussStimulus2D.html#add4ff932bad991f32015046d873c6660" target="_top" xlink:title=" ">
<polygon fill="white" stroke="#666666" points="158,-662.5 5,-662.5 5,-632.5 158,-632.5 158,-662.5"/>
<text text-anchor="start" x="13" y="-650.5" font-family="Helvetica,sans-Serif" font-size="10.00">dnf_composer::element</text>
<text text-anchor="middle" x="81.5" y="-639.5" font-family="Helvetica,sans-Serif" font-size="10.00">::GaussStimulus2D::toString</text>
</a>
</g>
</g>
<!-- Node1&#45;&gt;Node14 -->
<g id="edge13_Node000001_Node000014" class="edge">
<title>Node1&#45;&gt;Node14</title>
<g id="a_edge13_Node000001_Node000014"><a xlink:title=" ">
<path fill="none" stroke="#63b8ff" d="M188.69,-647.5C178.53,-647.5 168.26,-647.5 158.31,-647.5"/>
<polygon fill="#63b8ff" stroke="#63b8ff" points="188.8,-651 198.8,-647.5 188.8,-644 188.8,-651"/>
</a>
</g>
</g>
<!-- Node15 -->
<g id="Node000015" class="node">
<title>Node15</title>
<g id="a_Node000015"><a xlink:href="classdnf__composer_1_1element_1_1MemoryTrace.html#ac660d6876aaa723c4a6afa5a4387a606" target="_top" xlink:title=" ">
<polygon fill="white" stroke="#666666" points="148,-614.5 15,-614.5 15,-584.5 148,-584.5 148,-614.5"/>
<text text-anchor="start" x="23" y="-602.5" font-family="Helvetica,sans-Serif" font-size="10.00">dnf_composer::element</text>
<text text-anchor="middle" x="81.5" y="-591.5" font-family="Helvetica,sans-Serif" font-size="10.00">::MemoryTrace::toString</text>
</a>
</g>
</g>
<!-- Node1&#45;&gt;Node15 -->
<g id="edge14_Node000001_Node000015" class="edge">
<title>Node1&#45;&gt;Node15</title>
<g id="a_edge14_Node000001_Node000015"><a xlink:title=" ">
<path fill="none" stroke="#63b8ff" d="M188.89,-625.42C173.71,-621.72 158.29,-617.97 144.07,-614.5"/>
<polygon fill="#63b8ff" stroke="#63b8ff" points="188.26,-628.87 198.8,-627.84 189.92,-622.07 188.26,-628.87"/>
</a>
</g>
</g>
<!-- Node16 -->
<g id="Node000016" class="node">
<title>Node16</title>
<g id="a_Node000016"><a xlink:href="classdnf__composer_1_1element_1_1MemoryTrace2D.html#ae32150b2ea377c29eaeb4cb3ab122351" target="_top" xlink:title=" ">
<polygon fill="white" stroke="#666666" points="154.5,-566.5 8.5,-566.5 8.5,-536.5 154.5,-536.5 154.5,-566.5"/>
<text text-anchor="start" x="16.5" y="-554.5" font-family="Helvetica,sans-Serif" font-size="10.00">dnf_composer::element</text>
<text text-anchor="middle" x="81.5" y="-543.5" font-family="Helvetica,sans-Serif" font-size="10.00">::MemoryTrace2D::toString</text>
</a>
</g>
</g>
<!-- Node1&#45;&gt;Node16 -->
<g id="edge15_Node000001_Node000016" class="edge">
<title>Node1&#45;&gt;Node16</title>
<g id="a_edge15_Node000001_Node000016"><a xlink:title=" ">
<path fill="none" stroke="#63b8ff" d="M242.54,-621.15C220.3,-606.21 190.96,-588.04 163,-575.5 155.68,-572.22 147.79,-569.24 139.91,-566.58"/>
<polygon fill="#63b8ff" stroke="#63b8ff" points="240.76,-624.18 251,-626.91 244.7,-618.39 240.76,-624.18"/>
</a>
</g>
</g>
<!-- Node17 -->
<g id="Node000017" class="node">
<title>Node17</title>
<g id="a_Node000017"><a xlink:href="classdnf__composer_1_1element_1_1MexicanHatKernel.html#ac6310b5ece9178f4d0730302822b99e3" target="_top" xlink:title=" ">
<polygon fill="white" stroke="#666666" points="159.5,-518.5 3.5,-518.5 3.5,-488.5 159.5,-488.5 159.5,-518.5"/>
<text text-anchor="start" x="11.5" y="-506.5" font-family="Helvetica,sans-Serif" font-size="10.00">dnf_composer::element</text>
<text text-anchor="middle" x="81.5" y="-495.5" font-family="Helvetica,sans-Serif" font-size="10.00">::MexicanHatKernel::toString</text>
</a>
</g>
</g>
<!-- Node1&#45;&gt;Node17 -->
<g id="edge16_Node000001_Node000017" class="edge">
<title>Node1&#45;&gt;Node17</title>
<g id="a_edge16_Node000001_Node000017"><a xlink:title=" ">
<path fill="none" stroke="#63b8ff" d="M258.84,-618.97C237.68,-591.72 202.38,-551.37 163,-527.5 157.39,-524.1 151.26,-521.15 144.98,-518.6"/>
<polygon fill="#63b8ff" stroke="#63b8ff" points="256.1,-621.14 264.94,-626.97 261.66,-616.9 256.1,-621.14"/>
</a>
</g>
</g>
<!-- Node18 -->
<g id="Node000018" class="node">
<title>Node18</title>
<g id="a_Node000018"><a xlink:href="classdnf__composer_1_1element_1_1MexicanHatKernel2D.html#a4ab0245904a75a1410ff41bbb09bc5dc" target="_top" xlink:title=" ">
<polygon fill="white" stroke="#666666" points="147.5,-470 15.5,-470 15.5,-429 147.5,-429 147.5,-470"/>
<text text-anchor="start" x="23.5" y="-458" font-family="Helvetica,sans-Serif" font-size="10.00">dnf_composer::element</text>
<text text-anchor="start" x="23.5" y="-447" font-family="Helvetica,sans-Serif" font-size="10.00">::MexicanHatKernel2D</text>
<text text-anchor="middle" x="81.5" y="-436" font-family="Helvetica,sans-Serif" font-size="10.00">::toString</text>
</a>
</g>
</g>
<!-- Node1&#45;&gt;Node18 -->
<g id="edge17_Node000001_Node000018" class="edge">
<title>Node1&#45;&gt;Node18</title>
<g id="a_edge17_Node000001_Node000018"><a xlink:title=" ">
<path fill="none" stroke="#63b8ff" d="M265.86,-617.58C247.47,-580.34 211.37,-517.08 163,-479.5 158.29,-475.84 153.09,-472.59 147.66,-469.71"/>
<polygon fill="#63b8ff" stroke="#63b8ff" points="262.86,-619.42 270.36,-626.9 269.16,-616.38 262.86,-619.42"/>
</a>
</g>
</g>
<!-- Node19 -->
<g id="Node000019" class="node">
<title>Node19</title>
<g id="a_Node000019"><a xlink:href="classdnf__composer_1_1element_1_1NeuralField.html#acf0203117e7820c0902e2986a594e47f" target="_top" xlink:title=" ">
<polygon fill="white" stroke="#666666" points="147.5,-410.5 15.5,-410.5 15.5,-380.5 147.5,-380.5 147.5,-410.5"/>
<text text-anchor="start" x="23.5" y="-398.5" font-family="Helvetica,sans-Serif" font-size="10.00">dnf_composer::element</text>
<text text-anchor="middle" x="81.5" y="-387.5" font-family="Helvetica,sans-Serif" font-size="10.00">::NeuralField::toString</text>
</a>
</g>
</g>
<!-- Node1&#45;&gt;Node19 -->
<g id="edge18_Node000001_Node000019" class="edge">
<title>Node1&#45;&gt;Node19</title>
<g id="a_edge18_Node000001_Node000019"><a xlink:title=" ">
<path fill="none" stroke="#63b8ff" d="M272.05,-616.91C258.62,-568.22 225.71,-473.2 163,-420.5 158.41,-416.64 153.22,-413.37 147.75,-410.61"/>
<polygon fill="#63b8ff" stroke="#63b8ff" points="268.74,-618.09 274.7,-626.85 275.5,-616.29 268.74,-618.09"/>
</a>
</g>
</g>
<!-- Node20 -->
<g id="Node000020" class="node">
<title>Node20</title>
<g id="a_Node000020"><a xlink:href="classdnf__composer_1_1element_1_1NeuralField2D.html#a4e4561bb48eab8b878f3dc96574923d4" target="_top" xlink:title=" ">
<polygon fill="white" stroke="#666666" points="149.5,-362.5 13.5,-362.5 13.5,-332.5 149.5,-332.5 149.5,-362.5"/>
<text text-anchor="start" x="21.5" y="-350.5" font-family="Helvetica,sans-Serif" font-size="10.00">dnf_composer::element</text>
<text text-anchor="middle" x="81.5" y="-339.5" font-family="Helvetica,sans-Serif" font-size="10.00">::NeuralField2D::toString</text>
</a>
</g>
</g>
<!-- Node1&#45;&gt;Node20 -->
<g id="edge19_Node000001_Node000020" class="edge">
<title>Node1&#45;&gt;Node20</title>
<g id="a_edge19_Node000001_Node000020"><a xlink:title=" ">
<path fill="none" stroke="#63b8ff" d="M275.19,-616.56C265.62,-559.62 237.24,-438.01 163,-371.5 158.98,-367.9 154.44,-364.84 149.62,-362.24"/>
<polygon fill="#63b8ff" stroke="#63b8ff" points="271.78,-617.4 276.81,-626.73 278.69,-616.3 271.78,-617.4"/>
</a>
</g>
</g>
<!-- Node21 -->
<g id="Node000021" class="node">
<title>Node21</title>
<g id="a_Node000021"><a xlink:href="classdnf__composer_1_1element_1_1NormalNoise.html#a310344bc777d0f29351f0ffeaa3cd20c" target="_top" xlink:title=" ">
<polygon fill="white" stroke="#666666" points="147.5,-314.5 15.5,-314.5 15.5,-284.5 147.5,-284.5 147.5,-314.5"/>
<text text-anchor="start" x="23.5" y="-302.5" font-family="Helvetica,sans-Serif" font-size="10.00">dnf_composer::element</text>
<text text-anchor="middle" x="81.5" y="-291.5" font-family="Helvetica,sans-Serif" font-size="10.00">::NormalNoise::toString</text>
</a>
</g>
</g>
<!-- Node1&#45;&gt;Node21 -->
<g id="edge20_Node000001_Node000021" class="edge">
<title>Node1&#45;&gt;Node21</title>
<g id="a_edge20_Node000001_Node000021"><a xlink:title=" ">
<path fill="none" stroke="#63b8ff" d="M277.38,-616.33C271.33,-552.1 248.38,-404.27 163,-323.5 158.55,-319.29 153.39,-315.82 147.88,-312.95"/>
<polygon fill="#63b8ff" stroke="#63b8ff" points="273.93,-616.95 278.27,-626.61 280.9,-616.35 273.93,-616.95"/>
</a>
</g>
</g>
<!-- Node22 -->
<g id="Node000022" class="node">
<title>Node22</title>
<g id="a_Node000022"><a xlink:href="classdnf__composer_1_1element_1_1NormalNoise2D.html#a7bae54e92d8beef10452ddf4c1e93435" target="_top" xlink:title=" ">
<polygon fill="white" stroke="#666666" points="153.5,-266.5 9.5,-266.5 9.5,-236.5 153.5,-236.5 153.5,-266.5"/>
<text text-anchor="start" x="17.5" y="-254.5" font-family="Helvetica,sans-Serif" font-size="10.00">dnf_composer::element</text>
<text text-anchor="middle" x="81.5" y="-243.5" font-family="Helvetica,sans-Serif" font-size="10.00">::NormalNoise2D::toString</text>
</a>
</g>
</g>
<!-- Node1&#45;&gt;Node22 -->
<g id="edge21_Node000001_Node000022" class="edge">
<title>Node1&#45;&gt;Node22</title>
<g id="a_edge21_Node000001_Node000022"><a xlink:title=" ">
<path fill="none" stroke="#63b8ff" d="M279.1,-616.78C276.46,-546.17 259.93,-371.11 163,-275.5 159.57,-272.12 155.69,-269.21 151.53,-266.71"/>
<polygon fill="#63b8ff" stroke="#63b8ff" points="275.6,-616.91 279.4,-626.8 282.6,-616.7 275.6,-616.91"/>
</a>
</g>
</g>
<!-- Node23 -->
<g id="Node000023" class="node">
<title>Node23</title>
<g id="a_Node000023"><a xlink:href="classdnf__composer_1_1element_1_1OscillatoryKernel.html#aceabd095ff34c16767e66308bf408d63" target="_top" xlink:title=" ">
<polygon fill="white" stroke="#666666" points="147.5,-218 15.5,-218 15.5,-177 147.5,-177 147.5,-218"/>
<text text-anchor="start" x="23.5" y="-206" font-family="Helvetica,sans-Serif" font-size="10.00">dnf_composer::element</text>
<text text-anchor="start" x="23.5" y="-195" font-family="Helvetica,sans-Serif" font-size="10.00">::OscillatoryKernel::</text>
<text text-anchor="middle" x="81.5" y="-184" font-family="Helvetica,sans-Serif" font-size="10.00">toString</text>
</a>
</g>
</g>
<!-- Node1&#45;&gt;Node23 -->
<g id="edge22_Node000001_Node000023" class="edge">
<title>Node1&#45;&gt;Node23</title>
<g id="a_edge22_Node000001_Node000023"><a xlink:title=" ">
<path fill="none" stroke="#63b8ff" d="M279.95,-616.6C279.37,-540.36 267.34,-341.24 163,-227.5 158.56,-222.66 153.27,-218.6 147.56,-215.2"/>
<polygon fill="#63b8ff" stroke="#63b8ff" points="276.45,-616.93 279.96,-626.93 283.45,-616.93 276.45,-616.93"/>
</a>
</g>
</g>
<!-- Node24 -->
<g id="Node000024" class="node">
<title>Node24</title>
<g id="a_Node000024"><a xlink:href="classdnf__composer_1_1element_1_1OscillatoryKernel2D.html#af8470b33f4c637c87f142fb0c4eff923" target="_top" xlink:title=" ">
<polygon fill="white" stroke="#666666" points="147.5,-159 15.5,-159 15.5,-118 147.5,-118 147.5,-159"/>
<text text-anchor="start" x="23.5" y="-147" font-family="Helvetica,sans-Serif" font-size="10.00">dnf_composer::element</text>
<text text-anchor="start" x="23.5" y="-136" font-family="Helvetica,sans-Serif" font-size="10.00">::OscillatoryKernel2D</text>
<text text-anchor="middle" x="81.5" y="-125" font-family="Helvetica,sans-Serif" font-size="10.00">::toString</text>
</a>
</g>
</g>
<!-- Node1&#45;&gt;Node24 -->
<g id="edge23_Node000001_Node000024" class="edge">
<title>Node1&#45;&gt;Node24</title>
<g id="a_edge23_Node000001_Node000024"><a xlink:title=" ">
<path fill="none" stroke="#63b8ff" d="M275.79,-616.68C263.82,-521.8 223.41,-236.5 163,-168.5 158.64,-163.59 153.4,-159.49 147.72,-156.05"/>
<polygon fill="#63b8ff" stroke="#63b8ff" points="272.34,-617.28 277.05,-626.77 279.29,-616.42 272.34,-617.28"/>
</a>
</g>
</g>
<!-- Node25 -->
<g id="Node000025" class="node">
<title>Node25</title>
<g id="a_Node000025"><a xlink:href="classdnf__composer_1_1element_1_1TimedGaussStimulus.html#afa9ab0ee32955f758cce483f5f274105" target="_top" xlink:title=" ">
<polygon fill="white" stroke="#666666" points="147.5,-100 15.5,-100 15.5,-59 147.5,-59 147.5,-100"/>
<text text-anchor="start" x="23.5" y="-88" font-family="Helvetica,sans-Serif" font-size="10.00">dnf_composer::element</text>
<text text-anchor="start" x="23.5" y="-77" font-family="Helvetica,sans-Serif" font-size="10.00">::TimedGaussStimulus</text>
<text text-anchor="middle" x="81.5" y="-66" font-family="Helvetica,sans-Serif" font-size="10.00">::toString</text>
</a>
</g>
</g>
<!-- Node1&#45;&gt;Node25 -->
<g id="edge24_Node000001_Node000025" class="edge">
<title>Node1&#45;&gt;Node25</title>
<g id="a_edge24_Node000001_Node000025"><a xlink:title=" ">
<path fill="none" stroke="#63b8ff" d="M276.69,-616.69C266.76,-514.26 230.29,-187.21 163,-109.5 158.7,-104.54 153.51,-100.4 147.85,-96.94"/>
<polygon fill="#63b8ff" stroke="#63b8ff" points="273.21,-617.08 277.64,-626.7 280.18,-616.42 273.21,-617.08"/>
</a>
</g>
</g>
<!-- Node26 -->
<g id="Node000026" class="node">
<title>Node26</title>
<g id="a_Node000026"><a xlink:href="classdnf__composer_1_1element_1_1TimedGaussStimulus2D.html#aea500c669bb14917031e728dcbbf948b" target="_top" xlink:title=" ">
<polygon fill="white" stroke="#666666" points="151.5,-41 11.5,-41 11.5,0 151.5,0 151.5,-41"/>
<text text-anchor="start" x="19.5" y="-29" font-family="Helvetica,sans-Serif" font-size="10.00">dnf_composer::element</text>
<text text-anchor="start" x="19.5" y="-18" font-family="Helvetica,sans-Serif" font-size="10.00">::TimedGaussStimulus2D</text>
<text text-anchor="middle" x="81.5" y="-7" font-family="Helvetica,sans-Serif" font-size="10.00">::toString</text>
</a>
</g>
</g>
<!-- Node1&#45;&gt;Node26 -->
<g id="edge25_Node000001_Node000026" class="edge">
<title>Node1&#45;&gt;Node26</title>
<g id="a_edge25_Node000001_Node000026"><a xlink:title=" ">
<path fill="none" stroke="#63b8ff" d="M277.4,-616.64C269.37,-506.98 237.2,-137.99 163,-50.5 159.72,-46.63 155.89,-43.26 151.72,-40.33"/>
<polygon fill="#63b8ff" stroke="#63b8ff" points="273.92,-616.99 278.12,-626.71 280.9,-616.49 273.92,-616.99"/>
</a>
</g>
</g>
</g>
</svg>
