<?xml version="1.0" encoding="UTF-8" standalone="no"?>
<!DOCTYPE svg PUBLIC "-//W3C//DTD SVG 1.1//EN"
 "http://www.w3.org/Graphics/SVG/1.1/DTD/svg11.dtd">
<!-- Generated by graphviz version 2.43.0 (0)
 -->
<!-- Title: dnf_composer::PlotDimensions::toString Pages: 1 -->
<svg width="540pt" height="86pt"
 viewBox="0.00 0.00 540.00 86.00" xmlns="http://www.w3.org/2000/svg" xmlns:xlink="http://www.w3.org/1999/xlink">
<g id="graph0" class="graph" transform="scale(1 1) rotate(0) translate(4 82)">
<title>dnf_composer::PlotDimensions::toString</title>
<!-- Node1 -->
<g id="Node000001" class="node">
<title>Node1</title>
<g id="a_Node000001"><a xlink:title=" ">
<polygon fill="#999999" stroke="#666666" points="532,-54 364,-54 364,-24 532,-24 532,-54"/>
<text text-anchor="start" x="372" y="-42" font-family="Helvetica,sans-Serif" font-size="10.00">dnf_composer::PlotDimensions</text>
<text text-anchor="middle" x="448" y="-31" font-family="Helvetica,sans-Serif" font-size="10.00">::toString</text>
</a>
</g>
</g>
<!-- Node2 -->
<g id="Node000002" class="node">
<title>Node2</title>
<g id="a_Node000002"><a xlink:href="structdnf__composer_1_1PlotCommonParameters.html#a0e9a7632cb1e21cec853bfc8e0eed413" target="_top" xlink:title=" ">
<polygon fill="white" stroke="#666666" points="328,-54 173,-54 173,-24 328,-24 328,-54"/>
<text text-anchor="start" x="181" y="-42" font-family="Helvetica,sans-Serif" font-size="10.00">dnf_composer::PlotCommon</text>
<text text-anchor="middle" x="250.5" y="-31" font-family="Helvetica,sans-Serif" font-size="10.00">Parameters::toString</text>
</a>
</g>
</g>
<!-- Node1&#45;&gt;Node2 -->
<g id="edge1_Node000001_Node000002" class="edge">
<title>Node1&#45;&gt;Node2</title>
<g id="a_edge1_Node000001_Node000002"><a xlink:title=" ">
<path fill="none" stroke="#63b8ff" d="M353.76,-39C345.16,-39 336.53,-39 328.11,-39"/>
<polygon fill="#63b8ff" stroke="#63b8ff" points="353.81,-42.5 363.81,-39 353.81,-35.5 353.81,-42.5"/>
</a>
</g>
</g>
<!-- Node3 -->
<g id="Node000003" class="node">
<title>Node3</title>
<g id="a_Node000003"><a xlink:href="classdnf__composer_1_1Heatmap.html#a8f810a3846757374ca3675b62c195801" target="_top" xlink:title=" ">
<polygon fill="white" stroke="#666666" points="137,-78 0,-78 0,-48 137,-48 137,-78"/>
<text text-anchor="start" x="8" y="-66" font-family="Helvetica,sans-Serif" font-size="10.00">dnf_composer::Heatmap</text>
<text text-anchor="middle" x="68.5" y="-55" font-family="Helvetica,sans-Serif" font-size="10.00">::toString</text>
</a>
</g>
</g>
<!-- Node2&#45;&gt;Node3 -->
<g id="edge2_Node000002_Node000003" class="edge">
<title>Node2&#45;&gt;Node3</title>
<g id="a_edge2_Node000002_Node000003"><a xlink:title=" ">
<path fill="none" stroke="#63b8ff" d="M162.84,-50.56C154.23,-51.7 145.58,-52.86 137.2,-53.97"/>
<polygon fill="#63b8ff" stroke="#63b8ff" points="163.45,-54 172.9,-49.21 162.53,-47.07 163.45,-54"/>
</a>
</g>
</g>
<!-- Node4 -->
<g id="Node000004" class="node">
<title>Node4</title>
<g id="a_Node000004"><a xlink:href="classdnf__composer_1_1LinePlot.html#a1c294653651ddc4841dc0186b4967cdb" target="_top" xlink:title=" ">
<polygon fill="white" stroke="#666666" points="134,-30 3,-30 3,0 134,0 134,-30"/>
<text text-anchor="start" x="11" y="-18" font-family="Helvetica,sans-Serif" font-size="10.00">dnf_composer::LinePlot</text>
<text text-anchor="middle" x="68.5" y="-7" font-family="Helvetica,sans-Serif" font-size="10.00">::toString</text>
</a>
</g>
</g>
<!-- Node2&#45;&gt;Node4 -->
<g id="edge3_Node000002_Node000004" class="edge">
<title>Node2&#45;&gt;Node4</title>
<g id="a_edge3_Node000002_Node000004"><a xlink:title=" ">
<path fill="none" stroke="#63b8ff" d="M162.86,-27.45C153.18,-26.16 143.45,-24.86 134.12,-23.62"/>
<polygon fill="#63b8ff" stroke="#63b8ff" points="162.53,-30.93 172.9,-28.79 163.45,-24 162.53,-30.93"/>
</a>
</g>
</g>
</g>
</svg>
