<?xml version="1.0" encoding="UTF-8" standalone="no"?>
<!DOCTYPE svg PUBLIC "-//W3C//DTD SVG 1.1//EN"
 "http://www.w3.org/Graphics/SVG/1.1/DTD/svg11.dtd">
<!-- Generated by graphviz version 2.43.0 (0)
 -->
<!-- Title: ImGui_ImplFreeType_FontSrcBakedData Pages: 1 -->
<svg width="132pt" height="79pt"
 viewBox="0.00 0.00 132.00 79.00" xmlns="http://www.w3.org/2000/svg" xmlns:xlink="http://www.w3.org/1999/xlink">
<g id="graph0" class="graph" transform="scale(1 1) rotate(0) translate(4 75)">
<title>ImGui_ImplFreeType_FontSrcBakedData</title>
<!-- Node1 -->
<g id="Node000001" class="node">
<title>Node1</title>
<g id="a_Node000001"><a xlink:title=" ">
<polygon fill="#999999" stroke="transparent" points="124,-71 0,-71 0,0 124,0 124,-71"/>
<text text-anchor="start" x="12" y="-58.5" font-family="Helvetica,sans-Serif" font-size="10.00">ImGui_ImplFreeType</text>
<text text-anchor="start" x="14.5" y="-47.5" font-family="Helvetica,sans-Serif" font-size="10.00">_FontSrcBakedData</text>
<text text-anchor="start" x="4" y="-32.5" font-family="Helvetica,sans-Serif" font-size="10.00">+</text>
<text text-anchor="start" x="17" y="-32.5" font-family="Helvetica,sans-Serif" font-size="10.00">FtSize</text>
<text text-anchor="start" x="4" y="-17.5" font-family="Helvetica,sans-Serif" font-size="10.00">+</text>
<text text-anchor="start" x="17" y="-17.5" font-family="Helvetica,sans-Serif" font-size="10.00">ImGui_ImplFreeType</text>
<text text-anchor="start" x="17" y="-6.5" font-family="Helvetica,sans-Serif" font-size="10.00">_FontSrcBakedData()</text>
<polygon fill="#666666" stroke="#666666" points="0,-42.5 0,-42.5 124,-42.5 124,-42.5 0,-42.5"/>
<polygon fill="#666666" stroke="#666666" points="0,-27.5 0,-27.5 15,-27.5 15,-27.5 0,-27.5"/>
<polygon fill="#666666" stroke="#666666" points="15,-27.5 15,-27.5 124,-27.5 124,-27.5 15,-27.5"/>
<polygon fill="none" stroke="#666666" points="0,0 0,-71 124,-71 124,0 0,0"/>
</a>
</g>
</g>
</g>
</svg>
