<?xml version="1.0" encoding="UTF-8" standalone="no"?>
<!DOCTYPE svg PUBLIC "-//W3C//DTD SVG 1.1//EN"
 "http://www.w3.org/Graphics/SVG/1.1/DTD/svg11.dtd">
<!-- Generated by graphviz version 2.43.0 (0)
 -->
<!-- Title: ax::NodeEditor::Utilities::BlueprintNodeBuilder::Begin Pages: 1 -->
<svg width="338pt" height="67pt"
 viewBox="0.00 0.00 338.00 67.00" xmlns="http://www.w3.org/2000/svg" xmlns:xlink="http://www.w3.org/1999/xlink">
<g id="graph0" class="graph" transform="scale(1 1) rotate(0) translate(4 63)">
<title>ax::NodeEditor::Utilities::BlueprintNodeBuilder::Begin</title>
<!-- Node1 -->
<g id="Node000001" class="node">
<title>Node1</title>
<g id="a_Node000001"><a xlink:title=" ">
<polygon fill="#999999" stroke="#666666" points="330,-35.5 169,-35.5 169,-5.5 330,-5.5 330,-35.5"/>
<text text-anchor="start" x="177" y="-23.5" font-family="Helvetica,sans-Serif" font-size="10.00">ax::NodeEditor::Utilities</text>
<text text-anchor="middle" x="249.5" y="-12.5" font-family="Helvetica,sans-Serif" font-size="10.00">::BlueprintNodeBuilder::Begin</text>
</a>
</g>
</g>
<!-- Node2 -->
<g id="Node000002" class="node">
<title>Node2</title>
<g id="a_Node000002"><a xlink:href="structax_1_1NodeEditor_1_1Utilities_1_1BlueprintNodeBuilder.html#a09aa035d6f61fceef005b8da0d836461" target="_top" xlink:title=" ">
<polygon fill="white" stroke="#666666" points="133,-41 0,-41 0,0 133,0 133,-41"/>
<text text-anchor="start" x="8" y="-29" font-family="Helvetica,sans-Serif" font-size="10.00">ax::NodeEditor::Utilities</text>
<text text-anchor="start" x="8" y="-18" font-family="Helvetica,sans-Serif" font-size="10.00">::BlueprintNodeBuilder</text>
<text text-anchor="middle" x="66.5" y="-7" font-family="Helvetica,sans-Serif" font-size="10.00">::Output</text>
</a>
</g>
</g>
<!-- Node1&#45;&gt;Node2 -->
<g id="edge1_Node000001_Node000002" class="edge">
<title>Node1&#45;&gt;Node2</title>
<g id="a_edge1_Node000001_Node000002"><a xlink:title=" ">
<path fill="none" stroke="#63b8ff" d="M158.72,-20.5C150.08,-20.5 141.42,-20.5 133.08,-20.5"/>
<polygon fill="#63b8ff" stroke="#63b8ff" points="158.85,-24 168.85,-20.5 158.85,-17 158.85,-24"/>
</a>
</g>
</g>
<!-- Node2&#45;&gt;Node2 -->
<g id="edge2_Node000002_Node000002" class="edge">
<title>Node2&#45;&gt;Node2</title>
<g id="a_edge2_Node000002_Node000002"><a xlink:title=" ">
<path fill="none" stroke="#63b8ff" d="M97.81,-50.96C93.16,-55.74 82.72,-59 66.5,-59 40.55,-59 29.4,-50.65 33.05,-41.1"/>
<polygon fill="#63b8ff" stroke="#63b8ff" points="101.25,-51.61 99.95,-41.1 94.41,-50.13 101.25,-51.61"/>
</a>
</g>
</g>
</g>
</svg>
