<?xml version="1.0" encoding="UTF-8" standalone="no"?>
<!DOCTYPE svg PUBLIC "-//W3C//DTD SVG 1.1//EN"
 "http://www.w3.org/Graphics/SVG/1.1/DTD/svg11.dtd">
<!-- Generated by graphviz version 2.43.0 (0)
 -->
<!-- Title: dnf_composer::element::TimedGaussStimulus2DParameters Pages: 1 -->
<svg width="314pt" height="325pt"
 viewBox="0.00 0.00 313.50 325.00" xmlns="http://www.w3.org/2000/svg" xmlns:xlink="http://www.w3.org/1999/xlink">
<g id="graph0" class="graph" transform="scale(1 1) rotate(0) translate(4 321)">
<title>dnf_composer::element::TimedGaussStimulus2DParameters</title>
<!-- Node1 -->
<g id="Node000001" class="node">
<title>Node1</title>
<g id="a_Node000001"><a xlink:title=" ">
<polygon fill="#999999" stroke="transparent" points="267.5,-165 65.5,-165 65.5,0 267.5,0 267.5,-165"/>
<text text-anchor="start" x="77" y="-152.5" font-family="Helvetica,sans-Serif" font-size="10.00">dnf_composer::element</text>
<text text-anchor="start" x="77" y="-141.5" font-family="Helvetica,sans-Serif" font-size="10.00">::TimedGaussStimulus2DParameters</text>
<text text-anchor="start" x="69.5" y="-126.5" font-family="Helvetica,sans-Serif" font-size="10.00">+</text>
<text text-anchor="start" x="82.5" y="-126.5" font-family="Helvetica,sans-Serif" font-size="10.00">amplitude</text>
<text text-anchor="start" x="69.5" y="-111.5" font-family="Helvetica,sans-Serif" font-size="10.00">+</text>
<text text-anchor="start" x="82.5" y="-111.5" font-family="Helvetica,sans-Serif" font-size="10.00">circular</text>
<text text-anchor="start" x="69.5" y="-96.5" font-family="Helvetica,sans-Serif" font-size="10.00">+</text>
<text text-anchor="start" x="82.5" y="-96.5" font-family="Helvetica,sans-Serif" font-size="10.00">normalized</text>
<text text-anchor="start" x="69.5" y="-81.5" font-family="Helvetica,sans-Serif" font-size="10.00">+</text>
<text text-anchor="start" x="82.5" y="-81.5" font-family="Helvetica,sans-Serif" font-size="10.00">position_x</text>
<text text-anchor="start" x="69.5" y="-66.5" font-family="Helvetica,sans-Serif" font-size="10.00">+</text>
<text text-anchor="start" x="82.5" y="-66.5" font-family="Helvetica,sans-Serif" font-size="10.00">position_y</text>
<text text-anchor="start" x="69.5" y="-51.5" font-family="Helvetica,sans-Serif" font-size="10.00">+</text>
<text text-anchor="start" x="82.5" y="-51.5" font-family="Helvetica,sans-Serif" font-size="10.00">width</text>
<text text-anchor="start" x="69.5" y="-36.5" font-family="Helvetica,sans-Serif" font-size="10.00">+</text>
<text text-anchor="start" x="82.5" y="-36.5" font-family="Helvetica,sans-Serif" font-size="10.00">operator==()</text>
<text text-anchor="start" x="69.5" y="-21.5" font-family="Helvetica,sans-Serif" font-size="10.00">+</text>
<text text-anchor="start" x="82.5" y="-21.5" font-family="Helvetica,sans-Serif" font-size="10.00">TimedGaussStimulus2DParameters()</text>
<text text-anchor="start" x="69.5" y="-6.5" font-family="Helvetica,sans-Serif" font-size="10.00">+</text>
<text text-anchor="start" x="82.5" y="-6.5" font-family="Helvetica,sans-Serif" font-size="10.00">toString()</text>
<polygon fill="#666666" stroke="#666666" points="65.5,-136.5 65.5,-136.5 267.5,-136.5 267.5,-136.5 65.5,-136.5"/>
<polygon fill="#666666" stroke="#666666" points="65.5,-46.5 65.5,-46.5 80.5,-46.5 80.5,-46.5 65.5,-46.5"/>
<polygon fill="#666666" stroke="#666666" points="80.5,-46.5 80.5,-46.5 267.5,-46.5 267.5,-46.5 80.5,-46.5"/>
<polygon fill="none" stroke="#666666" points="65.5,0 65.5,-165 267.5,-165 267.5,0 65.5,0"/>
</a>
</g>
</g>
<!-- Node2 -->
<g id="Node000002" class="node">
<title>Node2</title>
<g id="a_Node000002"><a xlink:href="structdnf__composer_1_1element_1_1ElementSpecificParameters.html" target="_top" xlink:title=" ">
<polygon fill="white" stroke="transparent" points="171,-317 0,-317 0,-212 171,-212 171,-317"/>
<text text-anchor="start" x="16" y="-304.5" font-family="Helvetica,sans-Serif" font-size="10.00">dnf_composer::element</text>
<text text-anchor="start" x="16" y="-293.5" font-family="Helvetica,sans-Serif" font-size="10.00">::ElementSpecificParameters</text>
<text text-anchor="start" x="84" y="-278.5" font-family="Helvetica,sans-Serif" font-size="10.00"> </text>
<text text-anchor="start" x="4.5" y="-263.5" font-family="Helvetica,sans-Serif" font-size="10.00">+</text>
<text text-anchor="start" x="17.5" y="-263.5" font-family="Helvetica,sans-Serif" font-size="10.00">ElementSpecificParameters()</text>
<text text-anchor="start" x="4.5" y="-248.5" font-family="Helvetica,sans-Serif" font-size="10.00">+</text>
<text text-anchor="start" x="17.5" y="-248.5" font-family="Helvetica,sans-Serif" font-size="10.00">print()</text>
<text text-anchor="start" x="4.5" y="-233.5" font-family="Helvetica,sans-Serif" font-size="10.00">+</text>
<text text-anchor="start" x="17.5" y="-233.5" font-family="Helvetica,sans-Serif" font-size="10.00">toString()</text>
<text text-anchor="start" x="4.5" y="-218.5" font-family="Helvetica,sans-Serif" font-size="10.00">+</text>
<text text-anchor="start" x="17.5" y="-218.5" font-family="Helvetica,sans-Serif" font-size="10.00">~ElementSpecificParameters()</text>
<polygon fill="#666666" stroke="#666666" points="0.5,-288.5 0.5,-288.5 171.5,-288.5 171.5,-288.5 0.5,-288.5"/>
<polygon fill="#666666" stroke="#666666" points="0.5,-273.5 0.5,-273.5 171.5,-273.5 171.5,-273.5 0.5,-273.5"/>
<polygon fill="none" stroke="#666666" points="0,-212 0,-317 171,-317 171,-212 0,-212"/>
</a>
</g>
</g>
<!-- Node2&#45;&gt;Node1 -->
<g id="edge1_Node000001_Node000002" class="edge">
<title>Node2&#45;&gt;Node1</title>
<g id="a_edge1_Node000001_Node000002"><a xlink:title=" ">
<path fill="none" stroke="#63b8ff" d="M112.94,-202.51C118.32,-190.56 124.05,-177.84 129.68,-165.33"/>
<polygon fill="none" stroke="#63b8ff" points="109.62,-201.36 108.71,-211.92 116.01,-204.24 109.62,-201.36"/>
</a>
</g>
</g>
<!-- Node3 -->
<g id="Node000003" class="node">
<title>Node3</title>
<g id="a_Node000003"><a xlink:title=" ">
<polygon fill="white" stroke="transparent" points="305.5,-294.5 189.5,-294.5 189.5,-234.5 305.5,-234.5 305.5,-294.5"/>
<text text-anchor="start" x="194.5" y="-282.5" font-family="Helvetica,sans-Serif" font-size="10.00">std::vector&lt; std::pair</text>
<text text-anchor="start" x="194.5" y="-271.5" font-family="Helvetica,sans-Serif" font-size="10.00">&lt; double, double &gt; &gt;</text>
<text text-anchor="start" x="205.5" y="-256.5" font-family="Helvetica,sans-Serif" font-size="10.00">+</text>
<text text-anchor="start" x="230.5" y="-256.5" font-family="Helvetica,sans-Serif" font-size="10.00">elements</text>
<text text-anchor="start" x="245.5" y="-241.5" font-family="Helvetica,sans-Serif" font-size="10.00"> </text>
<polygon fill="#666666" stroke="#666666" points="189.5,-266.5 189.5,-266.5 305.5,-266.5 305.5,-266.5 189.5,-266.5"/>
<polygon fill="#666666" stroke="#666666" points="189.5,-251.5 189.5,-251.5 228.5,-251.5 228.5,-251.5 189.5,-251.5"/>
<polygon fill="#666666" stroke="#666666" points="228.5,-251.5 228.5,-251.5 305.5,-251.5 305.5,-251.5 228.5,-251.5"/>
<polygon fill="none" stroke="#666666" points="189.5,-234.5 189.5,-294.5 305.5,-294.5 305.5,-234.5 189.5,-234.5"/>
</a>
</g>
</g>
<!-- Node3&#45;&gt;Node1 -->
<g id="edge2_Node000001_Node000003" class="edge">
<title>Node3&#45;&gt;Node1</title>
<g id="a_edge2_Node000001_Node000003"><a xlink:title=" ">
<path fill="none" stroke="#63b8ff" d="M234.31,-234.18C227.09,-218.15 217.71,-197.3 208.24,-176.26"/>
<polygon fill="none" stroke="#63b8ff" points="208.22,-176.2 202.11,-172.37 203.29,-165.26 209.4,-169.09 208.22,-176.2"/>
</a>
</g>
<text text-anchor="middle" x="240.5" y="-186" font-family="Helvetica,sans-Serif" font-size="10.00" fill="grey"> +onTimes</text>
</g>
</g>
</svg>
