<?xml version="1.0" encoding="UTF-8" standalone="no"?>
<!DOCTYPE svg PUBLIC "-//W3C//DTD SVG 1.1//EN"
 "http://www.w3.org/Graphics/SVG/1.1/DTD/svg11.dtd">
<!-- Generated by graphviz version 2.43.0 (0)
 -->
<!-- Title: dnf_composer::element::CorrelatedNormalNoise2DParameters Pages: 1 -->
<svg width="221pt" height="269pt"
 viewBox="0.00 0.00 221.00 269.00" xmlns="http://www.w3.org/2000/svg" xmlns:xlink="http://www.w3.org/1999/xlink">
<g id="graph0" class="graph" transform="scale(1 1) rotate(0) translate(4 265)">
<title>dnf_composer::element::CorrelatedNormalNoise2DParameters</title>
<!-- Node1 -->
<g id="Node000001" class="node">
<title>Node1</title>
<g id="a_Node000001"><a xlink:title=" ">
<polygon fill="#999999" stroke="transparent" points="213,-120 0,-120 0,0 213,0 213,-120"/>
<text text-anchor="start" x="12" y="-108" font-family="Helvetica,sans-Serif" font-size="10.00">dnf_composer::element</text>
<text text-anchor="start" x="12" y="-97" font-family="Helvetica,sans-Serif" font-size="10.00">::CorrelatedNormalNoise2DParameters</text>
<text text-anchor="start" x="4.5" y="-82" font-family="Helvetica,sans-Serif" font-size="10.00">+</text>
<text text-anchor="start" x="17.5" y="-82" font-family="Helvetica,sans-Serif" font-size="10.00">amplitude</text>
<text text-anchor="start" x="4.5" y="-67" font-family="Helvetica,sans-Serif" font-size="10.00">+</text>
<text text-anchor="start" x="17.5" y="-67" font-family="Helvetica,sans-Serif" font-size="10.00">circular</text>
<text text-anchor="start" x="4.5" y="-52" font-family="Helvetica,sans-Serif" font-size="10.00">+</text>
<text text-anchor="start" x="17.5" y="-52" font-family="Helvetica,sans-Serif" font-size="10.00">width</text>
<text text-anchor="start" x="4.5" y="-37" font-family="Helvetica,sans-Serif" font-size="10.00">+</text>
<text text-anchor="start" x="17.5" y="-37" font-family="Helvetica,sans-Serif" font-size="10.00">CorrelatedNormalNoise2DParameters()</text>
<text text-anchor="start" x="4.5" y="-22" font-family="Helvetica,sans-Serif" font-size="10.00">+</text>
<text text-anchor="start" x="17.5" y="-22" font-family="Helvetica,sans-Serif" font-size="10.00">operator==()</text>
<text text-anchor="start" x="4.5" y="-7" font-family="Helvetica,sans-Serif" font-size="10.00">+</text>
<text text-anchor="start" x="17.5" y="-7" font-family="Helvetica,sans-Serif" font-size="10.00">toString()</text>
<polygon fill="#666666" stroke="#666666" points="0.5,-92 0.5,-92 213.5,-92 213.5,-92 0.5,-92"/>
<polygon fill="#666666" stroke="#666666" points="0.5,-47 0.5,-47 15.5,-47 15.5,-47 0.5,-47"/>
<polygon fill="#666666" stroke="#666666" points="15.5,-47 15.5,-47 213.5,-47 213.5,-47 15.5,-47"/>
<polygon fill="none" stroke="#666666" points="0,0 0,-120 213,-120 213,0 0,0"/>
</a>
</g>
</g>
<!-- Node2 -->
<g id="Node000002" class="node">
<title>Node2</title>
<g id="a_Node000002"><a xlink:href="structdnf__composer_1_1element_1_1ElementSpecificParameters.html" target="_top" xlink:title=" ">
<polygon fill="white" stroke="transparent" points="192,-261 21,-261 21,-156 192,-156 192,-261"/>
<text text-anchor="start" x="37" y="-248.5" font-family="Helvetica,sans-Serif" font-size="10.00">dnf_composer::element</text>
<text text-anchor="start" x="37" y="-237.5" font-family="Helvetica,sans-Serif" font-size="10.00">::ElementSpecificParameters</text>
<text text-anchor="start" x="105" y="-222.5" font-family="Helvetica,sans-Serif" font-size="10.00"> </text>
<text text-anchor="start" x="25.5" y="-207.5" font-family="Helvetica,sans-Serif" font-size="10.00">+</text>
<text text-anchor="start" x="38.5" y="-207.5" font-family="Helvetica,sans-Serif" font-size="10.00">ElementSpecificParameters()</text>
<text text-anchor="start" x="25.5" y="-192.5" font-family="Helvetica,sans-Serif" font-size="10.00">+</text>
<text text-anchor="start" x="38.5" y="-192.5" font-family="Helvetica,sans-Serif" font-size="10.00">print()</text>
<text text-anchor="start" x="25.5" y="-177.5" font-family="Helvetica,sans-Serif" font-size="10.00">+</text>
<text text-anchor="start" x="38.5" y="-177.5" font-family="Helvetica,sans-Serif" font-size="10.00">toString()</text>
<text text-anchor="start" x="25.5" y="-162.5" font-family="Helvetica,sans-Serif" font-size="10.00">+</text>
<text text-anchor="start" x="38.5" y="-162.5" font-family="Helvetica,sans-Serif" font-size="10.00">~ElementSpecificParameters()</text>
<polygon fill="#666666" stroke="#666666" points="21.5,-232.5 21.5,-232.5 192.5,-232.5 192.5,-232.5 21.5,-232.5"/>
<polygon fill="#666666" stroke="#666666" points="21.5,-217.5 21.5,-217.5 192.5,-217.5 192.5,-217.5 21.5,-217.5"/>
<polygon fill="none" stroke="#666666" points="21,-156 21,-261 192,-261 192,-156 21,-156"/>
</a>
</g>
</g>
<!-- Node2&#45;&gt;Node1 -->
<g id="edge1_Node000001_Node000002" class="edge">
<title>Node2&#45;&gt;Node1</title>
<g id="a_edge1_Node000001_Node000002"><a xlink:title=" ">
<path fill="none" stroke="#63b8ff" d="M106.5,-145.68C106.5,-137.24 106.5,-128.58 106.5,-120.19"/>
<polygon fill="none" stroke="#63b8ff" points="103,-145.85 106.5,-155.85 110,-145.85 103,-145.85"/>
</a>
</g>
</g>
</g>
</svg>
