<?xml version="1.0" encoding="UTF-8" standalone="no"?>
<!DOCTYPE svg PUBLIC "-//W3C//DTD SVG 1.1//EN"
 "http://www.w3.org/Graphics/SVG/1.1/DTD/svg11.dtd">
<!-- Generated by graphviz version 2.43.0 (0)
 -->
<!-- Title: dnf_composer::element::ElementDimensions::toString Pages: 1 -->
<svg width="549pt" height="1417pt"
 viewBox="0.00 0.00 549.00 1417.00" xmlns="http://www.w3.org/2000/svg" xmlns:xlink="http://www.w3.org/1999/xlink">
<g id="graph0" class="graph" transform="scale(1 1) rotate(0) translate(4 1413)">
<title>dnf_composer::element::ElementDimensions::toString</title>
<!-- Node1 -->
<g id="Node000001" class="node">
<title>Node1</title>
<g id="a_Node000001"><a xlink:title=" ">
<polygon fill="#999999" stroke="#666666" points="541,-1312.5 409,-1312.5 409,-1271.5 541,-1271.5 541,-1312.5"/>
<text text-anchor="start" x="417" y="-1300.5" font-family="Helvetica,sans-Serif" font-size="10.00">dnf_composer::element</text>
<text text-anchor="start" x="417" y="-1289.5" font-family="Helvetica,sans-Serif" font-size="10.00">::ElementDimensions::</text>
<text text-anchor="middle" x="475" y="-1278.5" font-family="Helvetica,sans-Serif" font-size="10.00">toString</text>
</a>
</g>
</g>
<!-- Node2 -->
<g id="Node000002" class="node">
<title>Node2</title>
<g id="a_Node000002"><a xlink:href="classdnf__composer_1_1Simulation.html#a25e8c5e2e105b2a3cf853d21824e33c0" target="_top" xlink:title="Disconnect all connections from elementId and resize it to newDimensions.">
<polygon fill="white" stroke="#666666" points="358,-1409 214,-1409 214,-1379 358,-1379 358,-1409"/>
<text text-anchor="start" x="222" y="-1397" font-family="Helvetica,sans-Serif" font-size="10.00">dnf_composer::Simulation</text>
<text text-anchor="middle" x="286" y="-1386" font-family="Helvetica,sans-Serif" font-size="10.00">::changeDimensions</text>
</a>
</g>
</g>
<!-- Node1&#45;&gt;Node2 -->
<g id="edge1_Node000001_Node000002" class="edge">
<title>Node1&#45;&gt;Node2</title>
<g id="a_edge1_Node000001_Node000002"><a xlink:title=" ">
<path fill="none" stroke="#63b8ff" d="M444.95,-1319.34C425.81,-1336.07 399.46,-1356.73 373,-1370 366.21,-1373.41 358.87,-1376.39 351.44,-1378.98"/>
<polygon fill="#63b8ff" stroke="#63b8ff" points="447.3,-1321.95 452.44,-1312.68 442.64,-1316.72 447.3,-1321.95"/>
</a>
</g>
</g>
<!-- Node3 -->
<g id="Node000003" class="node">
<title>Node3</title>
<g id="a_Node000003"><a xlink:href="structdnf__composer_1_1element_1_1ElementDimensions.html#a61dc48a63bf6451065883ea37f0228fa" target="_top" xlink:title=" ">
<polygon fill="white" stroke="#666666" points="360.5,-1361 211.5,-1361 211.5,-1331 360.5,-1331 360.5,-1361"/>
<text text-anchor="start" x="219.5" y="-1349" font-family="Helvetica,sans-Serif" font-size="10.00">dnf_composer::element</text>
<text text-anchor="middle" x="286" y="-1338" font-family="Helvetica,sans-Serif" font-size="10.00">::ElementDimensions::print</text>
</a>
</g>
</g>
<!-- Node1&#45;&gt;Node3 -->
<g id="edge2_Node000001_Node000003" class="edge">
<title>Node1&#45;&gt;Node3</title>
<g id="a_edge2_Node000001_Node000003"><a xlink:title=" ">
<path fill="none" stroke="#63b8ff" d="M399,-1314.43C390.24,-1317 381.43,-1319.57 373,-1322 362.87,-1324.92 352.06,-1327.98 341.63,-1330.9"/>
<polygon fill="#63b8ff" stroke="#63b8ff" points="400.25,-1317.71 408.85,-1311.52 398.27,-1310.99 400.25,-1317.71"/>
</a>
</g>
</g>
<!-- Node4 -->
<g id="Node000004" class="node">
<title>Node4</title>
<g id="a_Node000004"><a xlink:href="structdnf__composer_1_1element_1_1ElementCommonParameters.html#a83c667c71a22c80a0e415da7fab9795b" target="_top" xlink:title=" ">
<polygon fill="white" stroke="#666666" points="367.5,-670.5 204.5,-670.5 204.5,-629.5 367.5,-629.5 367.5,-670.5"/>
<text text-anchor="start" x="212.5" y="-658.5" font-family="Helvetica,sans-Serif" font-size="10.00">dnf_composer::element</text>
<text text-anchor="start" x="212.5" y="-647.5" font-family="Helvetica,sans-Serif" font-size="10.00">::ElementCommonParameters</text>
<text text-anchor="middle" x="286" y="-636.5" font-family="Helvetica,sans-Serif" font-size="10.00">::toString</text>
</a>
</g>
</g>
<!-- Node1&#45;&gt;Node4 -->
<g id="edge3_Node000001_Node000004" class="edge">
<title>Node1&#45;&gt;Node4</title>
<g id="a_edge3_Node000001_Node000004"><a xlink:title=" ">
<path fill="none" stroke="#63b8ff" d="M465.19,-1261.75C432.72,-1150.28 320.25,-764.16 292.99,-670.56"/>
<polygon fill="#63b8ff" stroke="#63b8ff" points="461.83,-1262.74 467.99,-1271.37 468.55,-1260.79 461.83,-1262.74"/>
</a>
</g>
</g>
<!-- Node30 -->
<g id="Node000030" class="node">
<title>Node30</title>
<g id="a_Node000030"><a xlink:href="structdnf__composer_1_1element_1_1FieldCouplingParameters.html#ab9b737d98c9562b14a80f4163d5bd45b" target="_top" xlink:title=" ">
<polygon fill="white" stroke="#666666" points="358,-1312.5 214,-1312.5 214,-1271.5 358,-1271.5 358,-1312.5"/>
<text text-anchor="start" x="222" y="-1300.5" font-family="Helvetica,sans-Serif" font-size="10.00">dnf_composer::element</text>
<text text-anchor="start" x="222" y="-1289.5" font-family="Helvetica,sans-Serif" font-size="10.00">::FieldCouplingParameters</text>
<text text-anchor="middle" x="286" y="-1278.5" font-family="Helvetica,sans-Serif" font-size="10.00">::toString</text>
</a>
</g>
</g>
<!-- Node1&#45;&gt;Node30 -->
<g id="edge29_Node000001_Node000030" class="edge">
<title>Node1&#45;&gt;Node30</title>
<g id="a_edge29_Node000001_Node000030"><a xlink:title=" ">
<path fill="none" stroke="#63b8ff" d="M398.76,-1292C385.41,-1292 371.53,-1292 358.29,-1292"/>
<polygon fill="#63b8ff" stroke="#63b8ff" points="398.86,-1295.5 408.86,-1292 398.86,-1288.5 398.86,-1295.5"/>
</a>
</g>
</g>
<!-- Node31 -->
<g id="Node000031" class="node">
<title>Node31</title>
<g id="a_Node000031"><a xlink:href="structdnf__composer_1_1element_1_1GaussFieldCouplingParameters.html#a2e99d9d86c8a44b489917bf45d325d9a" target="_top" xlink:title=" ">
<polygon fill="white" stroke="#666666" points="373,-1253.5 199,-1253.5 199,-1212.5 373,-1212.5 373,-1253.5"/>
<text text-anchor="start" x="207" y="-1241.5" font-family="Helvetica,sans-Serif" font-size="10.00">dnf_composer::element</text>
<text text-anchor="start" x="207" y="-1230.5" font-family="Helvetica,sans-Serif" font-size="10.00">::GaussFieldCouplingParameters</text>
<text text-anchor="middle" x="286" y="-1219.5" font-family="Helvetica,sans-Serif" font-size="10.00">::toString</text>
</a>
</g>
</g>
<!-- Node1&#45;&gt;Node31 -->
<g id="edge31_Node000001_Node000031" class="edge">
<title>Node1&#45;&gt;Node31</title>
<g id="a_edge31_Node000001_Node000031"><a xlink:title=" ">
<path fill="none" stroke="#63b8ff" d="M399.28,-1268.42C383.71,-1263.51 367.42,-1258.37 352.22,-1253.58"/>
<polygon fill="#63b8ff" stroke="#63b8ff" points="398.27,-1271.78 408.86,-1271.45 400.38,-1265.1 398.27,-1271.78"/>
</a>
</g>
</g>
<!-- Node5 -->
<g id="Node000005" class="node">
<title>Node5</title>
<g id="a_Node000005"><a xlink:href="structdnf__composer_1_1element_1_1ElementCommonParameters.html#a446472a2d6a83b41ae55e42c024357f3" target="_top" xlink:title=" ">
<polygon fill="white" stroke="#666666" points="163,-866.5 0,-866.5 0,-825.5 163,-825.5 163,-866.5"/>
<text text-anchor="start" x="8" y="-854.5" font-family="Helvetica,sans-Serif" font-size="10.00">dnf_composer::element</text>
<text text-anchor="start" x="8" y="-843.5" font-family="Helvetica,sans-Serif" font-size="10.00">::ElementCommonParameters</text>
<text text-anchor="middle" x="81.5" y="-832.5" font-family="Helvetica,sans-Serif" font-size="10.00">::print</text>
</a>
</g>
</g>
<!-- Node4&#45;&gt;Node5 -->
<g id="edge4_Node000004_Node000005" class="edge">
<title>Node4&#45;&gt;Node5</title>
<g id="a_edge4_Node000004_Node000005"><a xlink:title=" ">
<path fill="none" stroke="#63b8ff" d="M270.11,-679.84C250.34,-716.65 212.12,-778.9 163,-816 158.36,-819.51 153.26,-822.64 147.96,-825.43"/>
<polygon fill="#63b8ff" stroke="#63b8ff" points="273.4,-681.09 274.96,-670.61 267.21,-677.83 273.4,-681.09"/>
</a>
</g>
</g>
<!-- Node6 -->
<g id="Node000006" class="node">
<title>Node6</title>
<g id="a_Node000006"><a xlink:href="classdnf__composer_1_1element_1_1AsymmetricGaussKernel.html#ad04b7f2dc4f17529affba6c44995de85" target="_top" xlink:title=" ">
<polygon fill="white" stroke="#666666" points="153,-807.5 10,-807.5 10,-766.5 153,-766.5 153,-807.5"/>
<text text-anchor="start" x="18" y="-795.5" font-family="Helvetica,sans-Serif" font-size="10.00">dnf_composer::element</text>
<text text-anchor="start" x="18" y="-784.5" font-family="Helvetica,sans-Serif" font-size="10.00">::AsymmetricGaussKernel</text>
<text text-anchor="middle" x="81.5" y="-773.5" font-family="Helvetica,sans-Serif" font-size="10.00">::toString</text>
</a>
</g>
</g>
<!-- Node4&#45;&gt;Node6 -->
<g id="edge5_Node000004_Node000006" class="edge">
<title>Node4&#45;&gt;Node6</title>
<g id="a_edge5_Node000004_Node000006"><a xlink:title=" ">
<path fill="none" stroke="#63b8ff" d="M258.97,-677.95C235.69,-701.62 199.67,-735.1 163,-757 157.24,-760.44 151.01,-763.6 144.67,-766.47"/>
<polygon fill="#63b8ff" stroke="#63b8ff" points="261.62,-680.25 266.07,-670.64 256.59,-675.37 261.62,-680.25"/>
</a>
</g>
</g>
<!-- Node7 -->
<g id="Node000007" class="node">
<title>Node7</title>
<g id="a_Node000007"><a xlink:href="classdnf__composer_1_1element_1_1AsymmetricGaussKernel2D.html#a2684446b0d35c206880e4d633d3f04e8" target="_top" xlink:title=" ">
<polygon fill="white" stroke="#666666" points="159.5,-748.5 3.5,-748.5 3.5,-707.5 159.5,-707.5 159.5,-748.5"/>
<text text-anchor="start" x="11.5" y="-736.5" font-family="Helvetica,sans-Serif" font-size="10.00">dnf_composer::element</text>
<text text-anchor="start" x="11.5" y="-725.5" font-family="Helvetica,sans-Serif" font-size="10.00">::AsymmetricGaussKernel2D</text>
<text text-anchor="middle" x="81.5" y="-714.5" font-family="Helvetica,sans-Serif" font-size="10.00">::toString</text>
</a>
</g>
</g>
<!-- Node4&#45;&gt;Node7 -->
<g id="edge6_Node000004_Node000007" class="edge">
<title>Node4&#45;&gt;Node7</title>
<g id="a_edge6_Node000004_Node000007"><a xlink:title=" ">
<path fill="none" stroke="#63b8ff" d="M224.07,-674.22C204.58,-681.9 182.91,-690.37 163,-698 154.92,-701.09 146.37,-704.33 137.98,-707.47"/>
<polygon fill="#63b8ff" stroke="#63b8ff" points="225.42,-677.45 233.44,-670.53 222.85,-670.94 225.42,-677.45"/>
</a>
</g>
</g>
<!-- Node8 -->
<g id="Node000008" class="node">
<title>Node8</title>
<g id="a_Node000008"><a xlink:href="classdnf__composer_1_1element_1_1BoostStimulus.html#a8d10a318500c48897e0be68daeb73486" target="_top" xlink:title=" ">
<polygon fill="white" stroke="#666666" points="150,-689 13,-689 13,-659 150,-659 150,-689"/>
<text text-anchor="start" x="21" y="-677" font-family="Helvetica,sans-Serif" font-size="10.00">dnf_composer::element</text>
<text text-anchor="middle" x="81.5" y="-666" font-family="Helvetica,sans-Serif" font-size="10.00">::BoostStimulus::toString</text>
</a>
</g>
</g>
<!-- Node4&#45;&gt;Node8 -->
<g id="edge7_Node000004_Node000008" class="edge">
<title>Node4&#45;&gt;Node8</title>
<g id="a_edge7_Node000004_Node000008"><a xlink:title=" ">
<path fill="none" stroke="#63b8ff" d="M194.19,-660.76C179.38,-662.52 164.26,-664.31 150.13,-665.98"/>
<polygon fill="#63b8ff" stroke="#63b8ff" points="194.87,-664.21 204.38,-659.55 194.04,-657.26 194.87,-664.21"/>
</a>
</g>
</g>
<!-- Node9 -->
<g id="Node000009" class="node">
<title>Node9</title>
<g id="a_Node000009"><a xlink:href="classdnf__composer_1_1element_1_1BoostStimulus2D.html#a056a3a4ab8e0033bd26ed5bbaea3d950" target="_top" xlink:title=" ">
<polygon fill="white" stroke="#666666" points="157,-641 6,-641 6,-611 157,-611 157,-641"/>
<text text-anchor="start" x="14" y="-629" font-family="Helvetica,sans-Serif" font-size="10.00">dnf_composer::element</text>
<text text-anchor="middle" x="81.5" y="-618" font-family="Helvetica,sans-Serif" font-size="10.00">::BoostStimulus2D::toString</text>
</a>
</g>
</g>
<!-- Node4&#45;&gt;Node9 -->
<g id="edge8_Node000004_Node000009" class="edge">
<title>Node4&#45;&gt;Node9</title>
<g id="a_edge8_Node000004_Node000009"><a xlink:title=" ">
<path fill="none" stroke="#63b8ff" d="M194.1,-639.23C181.77,-637.77 169.24,-636.28 157.25,-634.86"/>
<polygon fill="#63b8ff" stroke="#63b8ff" points="194.04,-642.74 204.38,-640.45 194.87,-635.79 194.04,-642.74"/>
</a>
</g>
</g>
<!-- Node10 -->
<g id="Node000010" class="node">
<title>Node10</title>
<g id="a_Node000010"><a xlink:href="classdnf__composer_1_1element_1_1CorrelatedNormalNoise.html#af978a9e9e7acbb0a917a4a3766efaf04" target="_top" xlink:title=" ">
<polygon fill="white" stroke="#666666" points="150,-592.5 13,-592.5 13,-551.5 150,-551.5 150,-592.5"/>
<text text-anchor="start" x="21" y="-580.5" font-family="Helvetica,sans-Serif" font-size="10.00">dnf_composer::element</text>
<text text-anchor="start" x="21" y="-569.5" font-family="Helvetica,sans-Serif" font-size="10.00">::CorrelatedNormalNoise</text>
<text text-anchor="middle" x="81.5" y="-558.5" font-family="Helvetica,sans-Serif" font-size="10.00">::toString</text>
</a>
</g>
</g>
<!-- Node4&#45;&gt;Node10 -->
<g id="edge9_Node000004_Node000010" class="edge">
<title>Node4&#45;&gt;Node10</title>
<g id="a_edge9_Node000004_Node000010"><a xlink:title=" ">
<path fill="none" stroke="#63b8ff" d="M224.07,-625.78C204.58,-618.1 182.91,-609.63 163,-602 154.92,-598.91 146.37,-595.67 137.98,-592.53"/>
<polygon fill="#63b8ff" stroke="#63b8ff" points="222.85,-629.06 233.44,-629.47 225.42,-622.55 222.85,-629.06"/>
</a>
</g>
</g>
<!-- Node11 -->
<g id="Node000011" class="node">
<title>Node11</title>
<g id="a_Node000011"><a xlink:href="classdnf__composer_1_1element_1_1CorrelatedNormalNoise2D.html#ace11403ed6a019fe22d734dc55089324" target="_top" xlink:title=" ">
<polygon fill="white" stroke="#666666" points="157,-533.5 6,-533.5 6,-492.5 157,-492.5 157,-533.5"/>
<text text-anchor="start" x="14" y="-521.5" font-family="Helvetica,sans-Serif" font-size="10.00">dnf_composer::element</text>
<text text-anchor="start" x="14" y="-510.5" font-family="Helvetica,sans-Serif" font-size="10.00">::CorrelatedNormalNoise2D</text>
<text text-anchor="middle" x="81.5" y="-499.5" font-family="Helvetica,sans-Serif" font-size="10.00">::toString</text>
</a>
</g>
</g>
<!-- Node4&#45;&gt;Node11 -->
<g id="edge10_Node000004_Node000011" class="edge">
<title>Node4&#45;&gt;Node11</title>
<g id="a_edge10_Node000004_Node000011"><a xlink:title=" ">
<path fill="none" stroke="#63b8ff" d="M259.08,-621.67C235.87,-597.71 199.89,-563.87 163,-542 157.89,-538.97 152.41,-536.18 146.8,-533.63"/>
<polygon fill="#63b8ff" stroke="#63b8ff" points="256.72,-624.27 266.15,-629.08 261.78,-619.43 256.72,-624.27"/>
</a>
</g>
</g>
<!-- Node12 -->
<g id="Node000012" class="node">
<title>Node12</title>
<g id="a_Node000012"><a xlink:href="classdnf__composer_1_1element_1_1FieldCoupling.html#a0ec7d17d851fa9007175794248bb9590" target="_top" xlink:title=" ">
<polygon fill="white" stroke="#666666" points="148,-1307 15,-1307 15,-1277 148,-1277 148,-1307"/>
<text text-anchor="start" x="23" y="-1295" font-family="Helvetica,sans-Serif" font-size="10.00">dnf_composer::element</text>
<text text-anchor="middle" x="81.5" y="-1284" font-family="Helvetica,sans-Serif" font-size="10.00">::FieldCoupling::toString</text>
</a>
</g>
</g>
<!-- Node4&#45;&gt;Node12 -->
<g id="edge11_Node000004_Node000012" class="edge">
<title>Node4&#45;&gt;Node12</title>
<g id="a_edge11_Node000004_Node000012"><a xlink:title=" ">
<path fill="none" stroke="#63b8ff" d="M282.99,-680.91C275.09,-793.34 242.58,-1178.51 163,-1267 158.79,-1271.68 153.73,-1275.49 148.21,-1278.6"/>
<polygon fill="#63b8ff" stroke="#63b8ff" points="286.51,-680.83 283.7,-670.61 279.52,-680.35 286.51,-680.83"/>
</a>
</g>
</g>
<!-- Node13 -->
<g id="Node000013" class="node">
<title>Node13</title>
<g id="a_Node000013"><a xlink:href="classdnf__composer_1_1element_1_1GaussFieldCoupling.html#a6af7a83156ac66cf5cfaafcbb16d2409" target="_top" xlink:title=" ">
<polygon fill="white" stroke="#666666" points="147.5,-1258.5 15.5,-1258.5 15.5,-1217.5 147.5,-1217.5 147.5,-1258.5"/>
<text text-anchor="start" x="23.5" y="-1246.5" font-family="Helvetica,sans-Serif" font-size="10.00">dnf_composer::element</text>
<text text-anchor="start" x="23.5" y="-1235.5" font-family="Helvetica,sans-Serif" font-size="10.00">::GaussFieldCoupling</text>
<text text-anchor="middle" x="81.5" y="-1224.5" font-family="Helvetica,sans-Serif" font-size="10.00">::toString</text>
</a>
</g>
</g>
<!-- Node4&#45;&gt;Node13 -->
<g id="edge12_Node000004_Node000013" class="edge">
<title>Node4&#45;&gt;Node13</title>
<g id="a_edge12_Node000004_Node000013"><a xlink:title=" ">
<path fill="none" stroke="#63b8ff" d="M282.12,-680.89C271.74,-785.91 233.14,-1127.16 163,-1208 158.7,-1212.96 153.5,-1217.1 147.84,-1220.55"/>
<polygon fill="#63b8ff" stroke="#63b8ff" points="285.63,-680.94 283.11,-670.65 278.66,-680.26 285.63,-680.94"/>
</a>
</g>
</g>
<!-- Node14 -->
<g id="Node000014" class="node">
<title>Node14</title>
<g id="a_Node000014"><a xlink:href="classdnf__composer_1_1element_1_1GaussKernel.html#a7b8a9134ec53b0a10ad914ad363c4fd0" target="_top" xlink:title=" ">
<polygon fill="white" stroke="#666666" points="147.5,-474 15.5,-474 15.5,-444 147.5,-444 147.5,-474"/>
<text text-anchor="start" x="23.5" y="-462" font-family="Helvetica,sans-Serif" font-size="10.00">dnf_composer::element</text>
<text text-anchor="middle" x="81.5" y="-451" font-family="Helvetica,sans-Serif" font-size="10.00">::GaussKernel::toString</text>
</a>
</g>
</g>
<!-- Node4&#45;&gt;Node14 -->
<g id="edge13_Node000004_Node000014" class="edge">
<title>Node4&#45;&gt;Node14</title>
<g id="a_edge13_Node000004_Node000014"><a xlink:title=" ">
<path fill="none" stroke="#63b8ff" d="M270.86,-620.04C251.63,-582.53 213.75,-518.84 163,-483 158.12,-479.55 152.73,-476.59 147.13,-474.05"/>
<polygon fill="#63b8ff" stroke="#63b8ff" points="267.95,-622.06 275.56,-629.43 274.21,-618.93 267.95,-622.06"/>
</a>
</g>
</g>
<!-- Node15 -->
<g id="Node000015" class="node">
<title>Node15</title>
<g id="a_Node000015"><a xlink:href="classdnf__composer_1_1element_1_1GaussKernel2D.html#aad30c18ace65fff07f0c104744106395" target="_top" xlink:title=" ">
<polygon fill="white" stroke="#666666" points="152,-426 11,-426 11,-396 152,-396 152,-426"/>
<text text-anchor="start" x="19" y="-414" font-family="Helvetica,sans-Serif" font-size="10.00">dnf_composer::element</text>
<text text-anchor="middle" x="81.5" y="-403" font-family="Helvetica,sans-Serif" font-size="10.00">::GaussKernel2D::toString</text>
</a>
</g>
</g>
<!-- Node4&#45;&gt;Node15 -->
<g id="edge14_Node000004_Node000015" class="edge">
<title>Node4&#45;&gt;Node15</title>
<g id="a_edge14_Node000004_Node000015"><a xlink:title=" ">
<path fill="none" stroke="#63b8ff" d="M276.02,-619.86C260.6,-573.28 224.63,-484.05 163,-435 158.66,-431.55 153.84,-428.59 148.77,-426.06"/>
<polygon fill="#63b8ff" stroke="#63b8ff" points="272.69,-620.95 279.09,-629.39 279.36,-618.8 272.69,-620.95"/>
</a>
</g>
</g>
<!-- Node16 -->
<g id="Node000016" class="node">
<title>Node16</title>
<g id="a_Node000016"><a xlink:href="classdnf__composer_1_1element_1_1GaussStimulus.html#a15f8c25e4db545c57c765a440e7a8cb7" target="_top" xlink:title=" ">
<polygon fill="white" stroke="#666666" points="151.5,-378 11.5,-378 11.5,-348 151.5,-348 151.5,-378"/>
<text text-anchor="start" x="19.5" y="-366" font-family="Helvetica,sans-Serif" font-size="10.00">dnf_composer::element</text>
<text text-anchor="middle" x="81.5" y="-355" font-family="Helvetica,sans-Serif" font-size="10.00">::GaussStimulus::toString</text>
</a>
</g>
</g>
<!-- Node4&#45;&gt;Node16 -->
<g id="edge15_Node000004_Node000016" class="edge">
<title>Node4&#45;&gt;Node16</title>
<g id="a_edge15_Node000004_Node000016"><a xlink:title=" ">
<path fill="none" stroke="#63b8ff" d="M279.33,-619.32C267.6,-564.51 235.45,-449.66 163,-387 159.03,-383.57 154.58,-380.62 149.87,-378.1"/>
<polygon fill="#63b8ff" stroke="#63b8ff" points="275.97,-620.35 281.41,-629.44 282.83,-618.94 275.97,-620.35"/>
</a>
</g>
</g>
<!-- Node17 -->
<g id="Node000017" class="node">
<title>Node17</title>
<g id="a_Node000017"><a xlink:href="classdnf__composer_1_1element_1_1GaussStimulus2D.html#add4ff932bad991f32015046d873c6660" target="_top" xlink:title=" ">
<polygon fill="white" stroke="#666666" points="158,-330 5,-330 5,-300 158,-300 158,-330"/>
<text text-anchor="start" x="13" y="-318" font-family="Helvetica,sans-Serif" font-size="10.00">dnf_composer::element</text>
<text text-anchor="middle" x="81.5" y="-307" font-family="Helvetica,sans-Serif" font-size="10.00">::GaussStimulus2D::toString</text>
</a>
</g>
</g>
<!-- Node4&#45;&gt;Node17 -->
<g id="edge16_Node000004_Node000017" class="edge">
<title>Node4&#45;&gt;Node17</title>
<g id="a_edge16_Node000004_Node000017"><a xlink:title=" ">
<path fill="none" stroke="#63b8ff" d="M281.79,-619.13C273.66,-556.9 246.55,-415.81 163,-339 159.24,-335.55 155.01,-332.59 150.5,-330.05"/>
<polygon fill="#63b8ff" stroke="#63b8ff" points="278.32,-619.61 283.02,-629.11 285.27,-618.76 278.32,-619.61"/>
</a>
</g>
</g>
<!-- Node18 -->
<g id="Node000018" class="node">
<title>Node18</title>
<g id="a_Node000018"><a xlink:href="classdnf__composer_1_1element_1_1MemoryTrace.html#ac660d6876aaa723c4a6afa5a4387a606" target="_top" xlink:title=" ">
<polygon fill="white" stroke="#666666" points="148,-282 15,-282 15,-252 148,-252 148,-282"/>
<text text-anchor="start" x="23" y="-270" font-family="Helvetica,sans-Serif" font-size="10.00">dnf_composer::element</text>
<text text-anchor="middle" x="81.5" y="-259" font-family="Helvetica,sans-Serif" font-size="10.00">::MemoryTrace::toString</text>
</a>
</g>
</g>
<!-- Node4&#45;&gt;Node18 -->
<g id="edge17_Node000004_Node000018" class="edge">
<title>Node4&#45;&gt;Node18</title>
<g id="a_edge17_Node000004_Node000018"><a xlink:title=" ">
<path fill="none" stroke="#63b8ff" d="M283.64,-618.89C278.91,-549.75 257.75,-382.23 163,-291 158.69,-286.85 153.7,-283.42 148.35,-280.57"/>
<polygon fill="#63b8ff" stroke="#63b8ff" points="280.16,-619.35 284.27,-629.12 287.15,-618.92 280.16,-619.35"/>
</a>
</g>
</g>
<!-- Node19 -->
<g id="Node000019" class="node">
<title>Node19</title>
<g id="a_Node000019"><a xlink:href="classdnf__composer_1_1element_1_1MemoryTrace2D.html#ae32150b2ea377c29eaeb4cb3ab122351" target="_top" xlink:title=" ">
<polygon fill="white" stroke="#666666" points="154.5,-234 8.5,-234 8.5,-204 154.5,-204 154.5,-234"/>
<text text-anchor="start" x="16.5" y="-222" font-family="Helvetica,sans-Serif" font-size="10.00">dnf_composer::element</text>
<text text-anchor="middle" x="81.5" y="-211" font-family="Helvetica,sans-Serif" font-size="10.00">::MemoryTrace2D::toString</text>
</a>
</g>
</g>
<!-- Node4&#45;&gt;Node19 -->
<g id="edge18_Node000004_Node000019" class="edge">
<title>Node4&#45;&gt;Node19</title>
<g id="a_edge18_Node000004_Node000019"><a xlink:title=" ">
<path fill="none" stroke="#63b8ff" d="M285.11,-619.04C283.66,-543.67 269.22,-349.06 163,-243 159.59,-239.6 155.73,-236.68 151.58,-234.17"/>
<polygon fill="#63b8ff" stroke="#63b8ff" points="281.62,-619.32 285.24,-629.27 288.62,-619.23 281.62,-619.32"/>
</a>
</g>
</g>
<!-- Node20 -->
<g id="Node000020" class="node">
<title>Node20</title>
<g id="a_Node000020"><a xlink:href="classdnf__composer_1_1element_1_1MexicanHatKernel.html#ac6310b5ece9178f4d0730302822b99e3" target="_top" xlink:title=" ">
<polygon fill="white" stroke="#666666" points="159.5,-186 3.5,-186 3.5,-156 159.5,-156 159.5,-186"/>
<text text-anchor="start" x="11.5" y="-174" font-family="Helvetica,sans-Serif" font-size="10.00">dnf_composer::element</text>
<text text-anchor="middle" x="81.5" y="-163" font-family="Helvetica,sans-Serif" font-size="10.00">::MexicanHatKernel::toString</text>
</a>
</g>
</g>
<!-- Node4&#45;&gt;Node20 -->
<g id="edge19_Node000004_Node000020" class="edge">
<title>Node4&#45;&gt;Node20</title>
<g id="a_edge19_Node000004_Node000020"><a xlink:title=" ">
<path fill="none" stroke="#63b8ff" d="M280.71,-619.31C267.29,-527.43 223.33,-257.03 163,-195 159.64,-191.55 155.82,-188.59 151.69,-186.05"/>
<polygon fill="#63b8ff" stroke="#63b8ff" points="277.27,-619.97 282.16,-629.36 284.2,-618.97 277.27,-619.97"/>
</a>
</g>
</g>
<!-- Node21 -->
<g id="Node000021" class="node">
<title>Node21</title>
<g id="a_Node000021"><a xlink:href="classdnf__composer_1_1element_1_1MexicanHatKernel2D.html#a4ab0245904a75a1410ff41bbb09bc5dc" target="_top" xlink:title=" ">
<polygon fill="white" stroke="#666666" points="147.5,-137.5 15.5,-137.5 15.5,-96.5 147.5,-96.5 147.5,-137.5"/>
<text text-anchor="start" x="23.5" y="-125.5" font-family="Helvetica,sans-Serif" font-size="10.00">dnf_composer::element</text>
<text text-anchor="start" x="23.5" y="-114.5" font-family="Helvetica,sans-Serif" font-size="10.00">::MexicanHatKernel2D</text>
<text text-anchor="middle" x="81.5" y="-103.5" font-family="Helvetica,sans-Serif" font-size="10.00">::toString</text>
</a>
</g>
</g>
<!-- Node4&#45;&gt;Node21 -->
<g id="edge20_Node000004_Node000021" class="edge">
<title>Node4&#45;&gt;Node21</title>
<g id="a_edge20_Node000004_Node000021"><a xlink:title=" ">
<path fill="none" stroke="#63b8ff" d="M281.34,-619.27C269.09,-521.34 226.75,-218.81 163,-147 158.64,-142.09 153.41,-137.99 147.72,-134.55"/>
<polygon fill="#63b8ff" stroke="#63b8ff" points="277.89,-619.9 282.58,-629.4 284.83,-619.05 277.89,-619.9"/>
</a>
</g>
</g>
<!-- Node22 -->
<g id="Node000022" class="node">
<title>Node22</title>
<g id="a_Node000022"><a xlink:href="classdnf__composer_1_1element_1_1NeuralField.html#acf0203117e7820c0902e2986a594e47f" target="_top" xlink:title=" ">
<polygon fill="white" stroke="#666666" points="147.5,-78 15.5,-78 15.5,-48 147.5,-48 147.5,-78"/>
<text text-anchor="start" x="23.5" y="-66" font-family="Helvetica,sans-Serif" font-size="10.00">dnf_composer::element</text>
<text text-anchor="middle" x="81.5" y="-55" font-family="Helvetica,sans-Serif" font-size="10.00">::NeuralField::toString</text>
</a>
</g>
</g>
<!-- Node4&#45;&gt;Node22 -->
<g id="edge21_Node000004_Node000022" class="edge">
<title>Node4&#45;&gt;Node22</title>
<g id="a_edge21_Node000004_Node000022"><a xlink:title=" ">
<path fill="none" stroke="#63b8ff" d="M282.41,-619.34C272.9,-513.6 236.51,-166.35 163,-87 158.64,-82.29 153.4,-78.49 147.71,-75.43"/>
<polygon fill="#63b8ff" stroke="#63b8ff" points="278.93,-619.7 283.3,-629.35 285.91,-619.09 278.93,-619.7"/>
</a>
</g>
</g>
<!-- Node23 -->
<g id="Node000023" class="node">
<title>Node23</title>
<g id="a_Node000023"><a xlink:href="classdnf__composer_1_1element_1_1NeuralField2D.html#a4e4561bb48eab8b878f3dc96574923d4" target="_top" xlink:title=" ">
<polygon fill="white" stroke="#666666" points="149.5,-30 13.5,-30 13.5,0 149.5,0 149.5,-30"/>
<text text-anchor="start" x="21.5" y="-18" font-family="Helvetica,sans-Serif" font-size="10.00">dnf_composer::element</text>
<text text-anchor="middle" x="81.5" y="-7" font-family="Helvetica,sans-Serif" font-size="10.00">::NeuralField2D::toString</text>
</a>
</g>
</g>
<!-- Node4&#45;&gt;Node23 -->
<g id="edge22_Node000004_Node000023" class="edge">
<title>Node4&#45;&gt;Node23</title>
<g id="a_edge22_Node000004_Node000023"><a xlink:title=" ">
<path fill="none" stroke="#63b8ff" d="M282.96,-618.98C274.97,-507.06 242.33,-126.04 163,-39 159.17,-34.8 154.64,-31.32 149.71,-28.44"/>
<polygon fill="#63b8ff" stroke="#63b8ff" points="279.48,-619.52 283.67,-629.25 286.47,-619.03 279.48,-619.52"/>
</a>
</g>
</g>
<!-- Node24 -->
<g id="Node000024" class="node">
<title>Node24</title>
<g id="a_Node000024"><a xlink:href="classdnf__composer_1_1element_1_1NormalNoise.html#a310344bc777d0f29351f0ffeaa3cd20c" target="_top" xlink:title=" ">
<polygon fill="white" stroke="#666666" points="147.5,-1199 15.5,-1199 15.5,-1169 147.5,-1169 147.5,-1199"/>
<text text-anchor="start" x="23.5" y="-1187" font-family="Helvetica,sans-Serif" font-size="10.00">dnf_composer::element</text>
<text text-anchor="middle" x="81.5" y="-1176" font-family="Helvetica,sans-Serif" font-size="10.00">::NormalNoise::toString</text>
</a>
</g>
</g>
<!-- Node4&#45;&gt;Node24 -->
<g id="edge23_Node000004_Node000024" class="edge">
<title>Node4&#45;&gt;Node24</title>
<g id="a_edge23_Node000004_Node000024"><a xlink:title=" ">
<path fill="none" stroke="#63b8ff" d="M281.66,-680.69C270.3,-779.84 230.02,-1089.19 163,-1160 158.59,-1164.66 153.32,-1168.43 147.61,-1171.47"/>
<polygon fill="#63b8ff" stroke="#63b8ff" points="285.15,-681.04 282.79,-670.71 278.19,-680.26 285.15,-681.04"/>
</a>
</g>
</g>
<!-- Node25 -->
<g id="Node000025" class="node">
<title>Node25</title>
<g id="a_Node000025"><a xlink:href="classdnf__composer_1_1element_1_1NormalNoise2D.html#a7bae54e92d8beef10452ddf4c1e93435" target="_top" xlink:title=" ">
<polygon fill="white" stroke="#666666" points="153.5,-1151 9.5,-1151 9.5,-1121 153.5,-1121 153.5,-1151"/>
<text text-anchor="start" x="17.5" y="-1139" font-family="Helvetica,sans-Serif" font-size="10.00">dnf_composer::element</text>
<text text-anchor="middle" x="81.5" y="-1128" font-family="Helvetica,sans-Serif" font-size="10.00">::NormalNoise2D::toString</text>
</a>
</g>
</g>
<!-- Node4&#45;&gt;Node25 -->
<g id="edge24_Node000004_Node000025" class="edge">
<title>Node4&#45;&gt;Node25</title>
<g id="a_edge24_Node000004_Node000025"><a xlink:title=" ">
<path fill="none" stroke="#63b8ff" d="M280.78,-680.74C267.48,-773.43 223.68,-1047.69 163,-1111 159.25,-1114.91 154.91,-1118.21 150.22,-1121"/>
<polygon fill="#63b8ff" stroke="#63b8ff" points="284.28,-681 282.22,-670.61 277.35,-680.02 284.28,-681"/>
</a>
</g>
</g>
<!-- Node26 -->
<g id="Node000026" class="node">
<title>Node26</title>
<g id="a_Node000026"><a xlink:href="classdnf__composer_1_1element_1_1OscillatoryKernel.html#aceabd095ff34c16767e66308bf408d63" target="_top" xlink:title=" ">
<polygon fill="white" stroke="#666666" points="147.5,-1102.5 15.5,-1102.5 15.5,-1061.5 147.5,-1061.5 147.5,-1102.5"/>
<text text-anchor="start" x="23.5" y="-1090.5" font-family="Helvetica,sans-Serif" font-size="10.00">dnf_composer::element</text>
<text text-anchor="start" x="23.5" y="-1079.5" font-family="Helvetica,sans-Serif" font-size="10.00">::OscillatoryKernel::</text>
<text text-anchor="middle" x="81.5" y="-1068.5" font-family="Helvetica,sans-Serif" font-size="10.00">toString</text>
</a>
</g>
</g>
<!-- Node4&#45;&gt;Node26 -->
<g id="edge25_Node000004_Node000026" class="edge">
<title>Node4&#45;&gt;Node26</title>
<g id="a_edge25_Node000004_Node000026"><a xlink:title=" ">
<path fill="none" stroke="#63b8ff" d="M284.52,-680.67C281.7,-754.52 264.4,-944.1 163,-1052 158.61,-1056.67 153.42,-1060.62 147.83,-1063.96"/>
<polygon fill="#63b8ff" stroke="#63b8ff" points="288.02,-680.74 284.83,-670.63 281.02,-680.52 288.02,-680.74"/>
</a>
</g>
</g>
<!-- Node27 -->
<g id="Node000027" class="node">
<title>Node27</title>
<g id="a_Node000027"><a xlink:href="classdnf__composer_1_1element_1_1OscillatoryKernel2D.html#af8470b33f4c637c87f142fb0c4eff923" target="_top" xlink:title=" ">
<polygon fill="white" stroke="#666666" points="147.5,-1043.5 15.5,-1043.5 15.5,-1002.5 147.5,-1002.5 147.5,-1043.5"/>
<text text-anchor="start" x="23.5" y="-1031.5" font-family="Helvetica,sans-Serif" font-size="10.00">dnf_composer::element</text>
<text text-anchor="start" x="23.5" y="-1020.5" font-family="Helvetica,sans-Serif" font-size="10.00">::OscillatoryKernel2D</text>
<text text-anchor="middle" x="81.5" y="-1009.5" font-family="Helvetica,sans-Serif" font-size="10.00">::toString</text>
</a>
</g>
</g>
<!-- Node4&#45;&gt;Node27 -->
<g id="edge26_Node000004_Node000027" class="edge">
<title>Node4&#45;&gt;Node27</title>
<g id="a_edge26_Node000004_Node000027"><a xlink:title=" ">
<path fill="none" stroke="#63b8ff" d="M282.62,-680.66C275.89,-746.7 251.02,-903.65 163,-993 158.5,-997.57 153.24,-1001.45 147.6,-1004.74"/>
<polygon fill="#63b8ff" stroke="#63b8ff" points="286.12,-680.79 283.58,-670.5 279.16,-680.13 286.12,-680.79"/>
</a>
</g>
</g>
<!-- Node28 -->
<g id="Node000028" class="node">
<title>Node28</title>
<g id="a_Node000028"><a xlink:href="classdnf__composer_1_1element_1_1TimedGaussStimulus.html#afa9ab0ee32955f758cce483f5f274105" target="_top" xlink:title=" ">
<polygon fill="white" stroke="#666666" points="147.5,-984.5 15.5,-984.5 15.5,-943.5 147.5,-943.5 147.5,-984.5"/>
<text text-anchor="start" x="23.5" y="-972.5" font-family="Helvetica,sans-Serif" font-size="10.00">dnf_composer::element</text>
<text text-anchor="start" x="23.5" y="-961.5" font-family="Helvetica,sans-Serif" font-size="10.00">::TimedGaussStimulus</text>
<text text-anchor="middle" x="81.5" y="-950.5" font-family="Helvetica,sans-Serif" font-size="10.00">::toString</text>
</a>
</g>
</g>
<!-- Node4&#45;&gt;Node28 -->
<g id="edge27_Node000004_Node000028" class="edge">
<title>Node4&#45;&gt;Node28</title>
<g id="a_edge27_Node000004_Node000028"><a xlink:title=" ">
<path fill="none" stroke="#63b8ff" d="M280.02,-680.59C269.1,-738.06 237.82,-862.76 163,-934 158.46,-938.32 153.25,-942.03 147.7,-945.21"/>
<polygon fill="#63b8ff" stroke="#63b8ff" points="283.47,-681.13 281.82,-670.67 276.59,-679.88 283.47,-681.13"/>
</a>
</g>
</g>
<!-- Node29 -->
<g id="Node000029" class="node">
<title>Node29</title>
<g id="a_Node000029"><a xlink:href="classdnf__composer_1_1element_1_1TimedGaussStimulus2D.html#aea500c669bb14917031e728dcbbf948b" target="_top" xlink:title=" ">
<polygon fill="white" stroke="#666666" points="151.5,-925.5 11.5,-925.5 11.5,-884.5 151.5,-884.5 151.5,-925.5"/>
<text text-anchor="start" x="19.5" y="-913.5" font-family="Helvetica,sans-Serif" font-size="10.00">dnf_composer::element</text>
<text text-anchor="start" x="19.5" y="-902.5" font-family="Helvetica,sans-Serif" font-size="10.00">::TimedGaussStimulus2D</text>
<text text-anchor="middle" x="81.5" y="-891.5" font-family="Helvetica,sans-Serif" font-size="10.00">::toString</text>
</a>
</g>
</g>
<!-- Node4&#45;&gt;Node29 -->
<g id="edge28_Node000004_Node000029" class="edge">
<title>Node4&#45;&gt;Node29</title>
<g id="a_edge28_Node000004_Node000029"><a xlink:title=" ">
<path fill="none" stroke="#63b8ff" d="M276.24,-680.29C260.92,-728.13 224.88,-821.24 163,-875 158.95,-878.52 154.44,-881.65 149.69,-884.42"/>
<polygon fill="#63b8ff" stroke="#63b8ff" points="279.65,-681.12 279.28,-670.53 272.97,-679.04 279.65,-681.12"/>
</a>
</g>
</g>
<!-- Node30&#45;&gt;Node12 -->
<g id="edge30_Node000030_Node000012" class="edge">
<title>Node30&#45;&gt;Node12</title>
<g id="a_edge30_Node000030_Node000012"><a xlink:title=" ">
<path fill="none" stroke="#63b8ff" d="M203.72,-1292C185.21,-1292 165.77,-1292 148.02,-1292"/>
<polygon fill="#63b8ff" stroke="#63b8ff" points="203.89,-1295.5 213.89,-1292 203.89,-1288.5 203.89,-1295.5"/>
</a>
</g>
</g>
<!-- Node31&#45;&gt;Node13 -->
<g id="edge32_Node000031_Node000013" class="edge">
<title>Node31&#45;&gt;Node13</title>
<g id="a_edge32_Node000031_Node000013"><a xlink:title=" ">
<path fill="none" stroke="#63b8ff" d="M188.75,-1235.38C174.85,-1235.72 160.83,-1236.07 147.73,-1236.39"/>
<polygon fill="#63b8ff" stroke="#63b8ff" points="188.92,-1238.87 198.83,-1235.13 188.74,-1231.88 188.92,-1238.87"/>
</a>
</g>
</g>
</g>
</svg>
