<?xml version="1.0" encoding="UTF-8" standalone="no"?>
<!DOCTYPE svg PUBLIC "-//W3C//DTD SVG 1.1//EN"
 "http://www.w3.org/Graphics/SVG/1.1/DTD/svg11.dtd">
<!-- Generated by graphviz version 2.43.0 (0)
 -->
<!-- Title: dnf_composer::element::ElementDimensions::toString Pages: 1 -->
<svg width="549pt" height="1608pt"
 viewBox="0.00 0.00 549.00 1608.00" xmlns="http://www.w3.org/2000/svg" xmlns:xlink="http://www.w3.org/1999/xlink">
<g id="graph0" class="graph" transform="scale(1 1) rotate(0) translate(4 1604)">
<title>dnf_composer::element::ElementDimensions::toString</title>
<!-- Node1 -->
<g id="Node000001" class="node">
<title>Node1</title>
<g id="a_Node000001"><a xlink:title=" ">
<polygon fill="#999999" stroke="#666666" points="541,-1395.5 409,-1395.5 409,-1354.5 541,-1354.5 541,-1395.5"/>
<text text-anchor="start" x="417" y="-1383.5" font-family="Helvetica,sans-Serif" font-size="10.00">dnf_composer::element</text>
<text text-anchor="start" x="417" y="-1372.5" font-family="Helvetica,sans-Serif" font-size="10.00">::ElementDimensions::</text>
<text text-anchor="middle" x="475" y="-1361.5" font-family="Helvetica,sans-Serif" font-size="10.00">toString</text>
</a>
</g>
</g>
<!-- Node2 -->
<g id="Node000002" class="node">
<title>Node2</title>
<g id="a_Node000002"><a xlink:href="classdnf__composer_1_1Simulation.html#a25e8c5e2e105b2a3cf853d21824e33c0" target="_top" xlink:title="Disconnect all connections from elementId and resize it to newDimensions.">
<polygon fill="white" stroke="#666666" points="358,-1600 214,-1600 214,-1570 358,-1570 358,-1600"/>
<text text-anchor="start" x="222" y="-1588" font-family="Helvetica,sans-Serif" font-size="10.00">dnf_composer::Simulation</text>
<text text-anchor="middle" x="286" y="-1577" font-family="Helvetica,sans-Serif" font-size="10.00">::changeDimensions</text>
</a>
</g>
</g>
<!-- Node1&#45;&gt;Node2 -->
<g id="edge1_Node000001_Node000002" class="edge">
<title>Node1&#45;&gt;Node2</title>
<g id="a_edge1_Node000001_Node000002"><a xlink:title=" ">
<path fill="none" stroke="#63b8ff" d="M465.71,-1405.3C452.83,-1446.69 424,-1520.37 373,-1561 368.51,-1564.57 363.53,-1567.62 358.28,-1570.21"/>
<polygon fill="#63b8ff" stroke="#63b8ff" points="469.13,-1406.1 468.65,-1395.52 462.42,-1404.09 469.13,-1406.1"/>
</a>
</g>
</g>
<!-- Node3 -->
<g id="Node000003" class="node">
<title>Node3</title>
<g id="a_Node000003"><a xlink:href="structdnf__composer_1_1element_1_1ElementDimensions.html#a61dc48a63bf6451065883ea37f0228fa" target="_top" xlink:title=" ">
<polygon fill="white" stroke="#666666" points="360.5,-1552 211.5,-1552 211.5,-1522 360.5,-1522 360.5,-1552"/>
<text text-anchor="start" x="219.5" y="-1540" font-family="Helvetica,sans-Serif" font-size="10.00">dnf_composer::element</text>
<text text-anchor="middle" x="286" y="-1529" font-family="Helvetica,sans-Serif" font-size="10.00">::ElementDimensions::print</text>
</a>
</g>
</g>
<!-- Node1&#45;&gt;Node3 -->
<g id="edge2_Node000001_Node000003" class="edge">
<title>Node1&#45;&gt;Node3</title>
<g id="a_edge2_Node000001_Node000003"><a xlink:title=" ">
<path fill="none" stroke="#63b8ff" d="M459.76,-1404.9C443.24,-1436.43 413.04,-1485.28 373,-1513 368.03,-1516.44 362.58,-1519.39 356.91,-1521.92"/>
<polygon fill="#63b8ff" stroke="#63b8ff" points="463.02,-1406.22 464.45,-1395.72 456.79,-1403.03 463.02,-1406.22"/>
</a>
</g>
</g>
<!-- Node4 -->
<g id="Node000004" class="node">
<title>Node4</title>
<g id="a_Node000004"><a xlink:href="structdnf__composer_1_1element_1_1ElementCommonParameters.html#a83c667c71a22c80a0e415da7fab9795b" target="_top" xlink:title=" ">
<polygon fill="white" stroke="#666666" points="367.5,-812.5 204.5,-812.5 204.5,-771.5 367.5,-771.5 367.5,-812.5"/>
<text text-anchor="start" x="212.5" y="-800.5" font-family="Helvetica,sans-Serif" font-size="10.00">dnf_composer::element</text>
<text text-anchor="start" x="212.5" y="-789.5" font-family="Helvetica,sans-Serif" font-size="10.00">::ElementCommonParameters</text>
<text text-anchor="middle" x="286" y="-778.5" font-family="Helvetica,sans-Serif" font-size="10.00">::toString</text>
</a>
</g>
</g>
<!-- Node1&#45;&gt;Node4 -->
<g id="edge3_Node000001_Node000004" class="edge">
<title>Node1&#45;&gt;Node4</title>
<g id="a_edge3_Node000001_Node000004"><a xlink:title=" ">
<path fill="none" stroke="#63b8ff" d="M464.27,-1344.66C430.89,-1240.6 321.57,-899.77 293.58,-812.5"/>
<polygon fill="#63b8ff" stroke="#63b8ff" points="460.96,-1345.8 467.34,-1354.25 467.62,-1343.66 460.96,-1345.8"/>
</a>
</g>
</g>
<!-- Node34 -->
<g id="Node000034" class="node">
<title>Node34</title>
<g id="a_Node000034"><a xlink:href="structdnf__composer_1_1element_1_1CollapseParameters.html#acf5d336ea5fb71295b869cc832769caa" target="_top" xlink:title=" ">
<polygon fill="white" stroke="#666666" points="352,-1503.5 220,-1503.5 220,-1462.5 352,-1462.5 352,-1503.5"/>
<text text-anchor="start" x="228" y="-1491.5" font-family="Helvetica,sans-Serif" font-size="10.00">dnf_composer::element</text>
<text text-anchor="start" x="228" y="-1480.5" font-family="Helvetica,sans-Serif" font-size="10.00">::CollapseParameters</text>
<text text-anchor="middle" x="286" y="-1469.5" font-family="Helvetica,sans-Serif" font-size="10.00">::toString</text>
</a>
</g>
</g>
<!-- Node1&#45;&gt;Node34 -->
<g id="edge33_Node000001_Node000034" class="edge">
<title>Node1&#45;&gt;Node34</title>
<g id="a_edge33_Node000001_Node000034"><a xlink:title=" ">
<path fill="none" stroke="#63b8ff" d="M444.02,-1402.32C424.81,-1418.73 398.74,-1439.05 373,-1453 366.47,-1456.54 359.43,-1459.79 352.3,-1462.74"/>
<polygon fill="#63b8ff" stroke="#63b8ff" points="446.55,-1404.75 451.81,-1395.56 441.96,-1399.47 446.55,-1404.75"/>
</a>
</g>
</g>
<!-- Node35 -->
<g id="Node000035" class="node">
<title>Node35</title>
<g id="a_Node000035"><a xlink:href="structdnf__composer_1_1element_1_1ExpandParameters.html#a100ca128705fe8d8d06c75f89a8276a8" target="_top" xlink:title=" ">
<polygon fill="white" stroke="#666666" points="365,-1444 207,-1444 207,-1414 365,-1414 365,-1444"/>
<text text-anchor="start" x="215" y="-1432" font-family="Helvetica,sans-Serif" font-size="10.00">dnf_composer::element</text>
<text text-anchor="middle" x="286" y="-1421" font-family="Helvetica,sans-Serif" font-size="10.00">::ExpandParameters::toString</text>
</a>
</g>
</g>
<!-- Node1&#45;&gt;Node35 -->
<g id="edge35_Node000001_Node000035" class="edge">
<title>Node1&#45;&gt;Node35</title>
<g id="a_edge35_Node000001_Node000035"><a xlink:title=" ">
<path fill="none" stroke="#63b8ff" d="M399,-1397.43C390.24,-1400 381.43,-1402.57 373,-1405 362.87,-1407.92 352.06,-1410.98 341.63,-1413.9"/>
<polygon fill="#63b8ff" stroke="#63b8ff" points="400.25,-1400.71 408.85,-1394.52 398.27,-1393.99 400.25,-1400.71"/>
</a>
</g>
</g>
<!-- Node36 -->
<g id="Node000036" class="node">
<title>Node36</title>
<g id="a_Node000036"><a xlink:href="structdnf__composer_1_1element_1_1FieldCouplingParameters.html#ab9b737d98c9562b14a80f4163d5bd45b" target="_top" xlink:title=" ">
<polygon fill="white" stroke="#666666" points="358,-1395.5 214,-1395.5 214,-1354.5 358,-1354.5 358,-1395.5"/>
<text text-anchor="start" x="222" y="-1383.5" font-family="Helvetica,sans-Serif" font-size="10.00">dnf_composer::element</text>
<text text-anchor="start" x="222" y="-1372.5" font-family="Helvetica,sans-Serif" font-size="10.00">::FieldCouplingParameters</text>
<text text-anchor="middle" x="286" y="-1361.5" font-family="Helvetica,sans-Serif" font-size="10.00">::toString</text>
</a>
</g>
</g>
<!-- Node1&#45;&gt;Node36 -->
<g id="edge37_Node000001_Node000036" class="edge">
<title>Node1&#45;&gt;Node36</title>
<g id="a_edge37_Node000001_Node000036"><a xlink:title=" ">
<path fill="none" stroke="#63b8ff" d="M398.76,-1375C385.41,-1375 371.53,-1375 358.29,-1375"/>
<polygon fill="#63b8ff" stroke="#63b8ff" points="398.86,-1378.5 408.86,-1375 398.86,-1371.5 398.86,-1378.5"/>
</a>
</g>
</g>
<!-- Node37 -->
<g id="Node000037" class="node">
<title>Node37</title>
<g id="a_Node000037"><a xlink:href="structdnf__composer_1_1element_1_1GaussFieldCouplingParameters.html#a2e99d9d86c8a44b489917bf45d325d9a" target="_top" xlink:title=" ">
<polygon fill="white" stroke="#666666" points="373,-1336.5 199,-1336.5 199,-1295.5 373,-1295.5 373,-1336.5"/>
<text text-anchor="start" x="207" y="-1324.5" font-family="Helvetica,sans-Serif" font-size="10.00">dnf_composer::element</text>
<text text-anchor="start" x="207" y="-1313.5" font-family="Helvetica,sans-Serif" font-size="10.00">::GaussFieldCouplingParameters</text>
<text text-anchor="middle" x="286" y="-1302.5" font-family="Helvetica,sans-Serif" font-size="10.00">::toString</text>
</a>
</g>
</g>
<!-- Node1&#45;&gt;Node37 -->
<g id="edge39_Node000001_Node000037" class="edge">
<title>Node1&#45;&gt;Node37</title>
<g id="a_edge39_Node000001_Node000037"><a xlink:title=" ">
<path fill="none" stroke="#63b8ff" d="M399.28,-1351.42C383.71,-1346.51 367.42,-1341.37 352.22,-1336.58"/>
<polygon fill="#63b8ff" stroke="#63b8ff" points="398.27,-1354.78 408.86,-1354.45 400.38,-1348.1 398.27,-1354.78"/>
</a>
</g>
</g>
<!-- Node38 -->
<g id="Node000038" class="node">
<title>Node38</title>
<g id="a_Node000038"><a xlink:href="structdnf__composer_1_1element_1_1ResizeParameters.html#ac31284309afa54141546347fd0366d41" target="_top" xlink:title=" ">
<polygon fill="white" stroke="#666666" points="363.5,-593 208.5,-593 208.5,-563 363.5,-563 363.5,-593"/>
<text text-anchor="start" x="216.5" y="-581" font-family="Helvetica,sans-Serif" font-size="10.00">dnf_composer::element</text>
<text text-anchor="middle" x="286" y="-570" font-family="Helvetica,sans-Serif" font-size="10.00">::ResizeParameters::toString</text>
</a>
</g>
</g>
<!-- Node1&#45;&gt;Node38 -->
<g id="edge41_Node000001_Node000038" class="edge">
<title>Node1&#45;&gt;Node38</title>
<g id="a_edge41_Node000001_Node000038"><a xlink:title=" ">
<path fill="none" stroke="#63b8ff" d="M471.89,-1344.33C465.04,-1253.64 439.83,-979.54 373,-763 352.63,-697 313.39,-624.21 295.85,-593.26"/>
<polygon fill="#63b8ff" stroke="#63b8ff" points="468.41,-1344.75 472.64,-1354.46 475.39,-1344.23 468.41,-1344.75"/>
</a>
</g>
</g>
<!-- Node39 -->
<g id="Node000039" class="node">
<title>Node39</title>
<g id="a_Node000039"><a xlink:href="structdnf__composer_1_1element_1_1Resize2DParameters.html#afbcafae839b881516f822eb9830e2f4c" target="_top" xlink:title=" ">
<polygon fill="white" stroke="#666666" points="352,-223.5 220,-223.5 220,-182.5 352,-182.5 352,-223.5"/>
<text text-anchor="start" x="228" y="-211.5" font-family="Helvetica,sans-Serif" font-size="10.00">dnf_composer::element</text>
<text text-anchor="start" x="228" y="-200.5" font-family="Helvetica,sans-Serif" font-size="10.00">::Resize2DParameters</text>
<text text-anchor="middle" x="286" y="-189.5" font-family="Helvetica,sans-Serif" font-size="10.00">::toString</text>
</a>
</g>
</g>
<!-- Node1&#45;&gt;Node39 -->
<g id="edge43_Node000001_Node000039" class="edge">
<title>Node1&#45;&gt;Node39</title>
<g id="a_edge43_Node000001_Node000039"><a xlink:title=" ">
<path fill="none" stroke="#63b8ff" d="M471.51,-1343.97C462.49,-1234.94 429.03,-859.56 373,-554 349.75,-427.18 308.41,-277.79 293,-223.78"/>
<polygon fill="#63b8ff" stroke="#63b8ff" points="468.05,-1344.56 472.35,-1354.24 475.02,-1343.99 468.05,-1344.56"/>
</a>
</g>
</g>
<!-- Node5 -->
<g id="Node000005" class="node">
<title>Node5</title>
<g id="a_Node000005"><a xlink:href="structdnf__composer_1_1element_1_1ElementCommonParameters.html#a446472a2d6a83b41ae55e42c024357f3" target="_top" xlink:title=" ">
<polygon fill="white" stroke="#666666" points="163,-351.5 0,-351.5 0,-310.5 163,-310.5 163,-351.5"/>
<text text-anchor="start" x="8" y="-339.5" font-family="Helvetica,sans-Serif" font-size="10.00">dnf_composer::element</text>
<text text-anchor="start" x="8" y="-328.5" font-family="Helvetica,sans-Serif" font-size="10.00">::ElementCommonParameters</text>
<text text-anchor="middle" x="81.5" y="-317.5" font-family="Helvetica,sans-Serif" font-size="10.00">::print</text>
</a>
</g>
</g>
<!-- Node4&#45;&gt;Node5 -->
<g id="edge4_Node000004_Node000005" class="edge">
<title>Node4&#45;&gt;Node5</title>
<g id="a_edge4_Node000004_Node000005"><a xlink:title=" ">
<path fill="none" stroke="#63b8ff" d="M268.4,-762.25C248.73,-725.67 216.43,-661.14 199,-602 168.38,-498.12 231.2,-445.13 163,-361 160.18,-357.52 156.92,-354.45 153.35,-351.73"/>
<polygon fill="#63b8ff" stroke="#63b8ff" points="265.5,-764.25 273.35,-771.37 271.65,-760.91 265.5,-764.25"/>
</a>
</g>
</g>
<!-- Node6 -->
<g id="Node000006" class="node">
<title>Node6</title>
<g id="a_Node000006"><a xlink:href="classdnf__composer_1_1element_1_1AsymmetricGaussKernel.html#ad04b7f2dc4f17529affba6c44995de85" target="_top" xlink:title=" ">
<polygon fill="white" stroke="#666666" points="153,-292.5 10,-292.5 10,-251.5 153,-251.5 153,-292.5"/>
<text text-anchor="start" x="18" y="-280.5" font-family="Helvetica,sans-Serif" font-size="10.00">dnf_composer::element</text>
<text text-anchor="start" x="18" y="-269.5" font-family="Helvetica,sans-Serif" font-size="10.00">::AsymmetricGaussKernel</text>
<text text-anchor="middle" x="81.5" y="-258.5" font-family="Helvetica,sans-Serif" font-size="10.00">::toString</text>
</a>
</g>
</g>
<!-- Node4&#45;&gt;Node6 -->
<g id="edge5_Node000004_Node000006" class="edge">
<title>Node4&#45;&gt;Node6</title>
<g id="a_edge5_Node000004_Node000006"><a xlink:title=" ">
<path fill="none" stroke="#63b8ff" d="M268.11,-762.33C248.15,-725.83 215.58,-661.39 199,-602 180.95,-537.33 204.52,-354.76 163,-302 160.14,-298.37 156.79,-295.17 153.12,-292.37"/>
<polygon fill="#63b8ff" stroke="#63b8ff" points="265.23,-764.37 273.13,-771.43 271.36,-760.98 265.23,-764.37"/>
</a>
</g>
</g>
<!-- Node7 -->
<g id="Node000007" class="node">
<title>Node7</title>
<g id="a_Node000007"><a xlink:href="classdnf__composer_1_1element_1_1AsymmetricGaussKernel2D.html#a2684446b0d35c206880e4d633d3f04e8" target="_top" xlink:title=" ">
<polygon fill="white" stroke="#666666" points="159.5,-233.5 3.5,-233.5 3.5,-192.5 159.5,-192.5 159.5,-233.5"/>
<text text-anchor="start" x="11.5" y="-221.5" font-family="Helvetica,sans-Serif" font-size="10.00">dnf_composer::element</text>
<text text-anchor="start" x="11.5" y="-210.5" font-family="Helvetica,sans-Serif" font-size="10.00">::AsymmetricGaussKernel2D</text>
<text text-anchor="middle" x="81.5" y="-199.5" font-family="Helvetica,sans-Serif" font-size="10.00">::toString</text>
</a>
</g>
</g>
<!-- Node4&#45;&gt;Node7 -->
<g id="edge6_Node000004_Node000007" class="edge">
<title>Node4&#45;&gt;Node7</title>
<g id="a_edge6_Node000004_Node000007"><a xlink:title=" ">
<path fill="none" stroke="#63b8ff" d="M267.91,-762.39C247.76,-725.94 215,-661.54 199,-602 178.19,-524.57 211.97,-306.49 163,-243 160.27,-239.46 157.07,-236.33 153.55,-233.58"/>
<polygon fill="#63b8ff" stroke="#63b8ff" points="265.05,-764.45 272.99,-771.47 271.16,-761.03 265.05,-764.45"/>
</a>
</g>
</g>
<!-- Node8 -->
<g id="Node000008" class="node">
<title>Node8</title>
<g id="a_Node000008"><a xlink:href="classdnf__composer_1_1element_1_1BoostStimulus.html#a8d10a318500c48897e0be68daeb73486" target="_top" xlink:title=" ">
<polygon fill="white" stroke="#666666" points="150,-174 13,-174 13,-144 150,-144 150,-174"/>
<text text-anchor="start" x="21" y="-162" font-family="Helvetica,sans-Serif" font-size="10.00">dnf_composer::element</text>
<text text-anchor="middle" x="81.5" y="-151" font-family="Helvetica,sans-Serif" font-size="10.00">::BoostStimulus::toString</text>
</a>
</g>
</g>
<!-- Node4&#45;&gt;Node8 -->
<g id="edge7_Node000004_Node000008" class="edge">
<title>Node4&#45;&gt;Node8</title>
<g id="a_edge7_Node000004_Node000008"><a xlink:title=" ">
<path fill="none" stroke="#63b8ff" d="M267.77,-762.42C247.48,-726.01 214.58,-661.65 199,-602 175.44,-511.79 221.46,-256.62 163,-184 159.42,-179.55 155.06,-175.88 150.25,-172.85"/>
<polygon fill="#63b8ff" stroke="#63b8ff" points="264.93,-764.5 272.89,-771.49 271.02,-761.06 264.93,-764.5"/>
</a>
</g>
</g>
<!-- Node9 -->
<g id="Node000009" class="node">
<title>Node9</title>
<g id="a_Node000009"><a xlink:href="classdnf__composer_1_1element_1_1BoostStimulus2D.html#a056a3a4ab8e0033bd26ed5bbaea3d950" target="_top" xlink:title=" ">
<polygon fill="white" stroke="#666666" points="157,-126 6,-126 6,-96 157,-96 157,-126"/>
<text text-anchor="start" x="14" y="-114" font-family="Helvetica,sans-Serif" font-size="10.00">dnf_composer::element</text>
<text text-anchor="middle" x="81.5" y="-103" font-family="Helvetica,sans-Serif" font-size="10.00">::BoostStimulus2D::toString</text>
</a>
</g>
</g>
<!-- Node4&#45;&gt;Node9 -->
<g id="edge8_Node000004_Node000009" class="edge">
<title>Node4&#45;&gt;Node9</title>
<g id="a_edge8_Node000004_Node000009"><a xlink:title=" ">
<path fill="none" stroke="#63b8ff" d="M267.52,-762.15C247.13,-725.71 214.27,-661.56 199,-602 173.15,-501.18 228.37,-216 163,-135 160.25,-131.6 157.04,-128.66 153.52,-126.13"/>
<polygon fill="#63b8ff" stroke="#63b8ff" points="264.69,-764.26 272.66,-771.24 270.78,-760.81 264.69,-764.26"/>
</a>
</g>
</g>
<!-- Node10 -->
<g id="Node000010" class="node">
<title>Node10</title>
<g id="a_Node000010"><a xlink:href="classdnf__composer_1_1element_1_1Collapse.html#a58dd18ede01fde9207e23b56ab84e92e" target="_top" xlink:title=" ">
<polygon fill="white" stroke="#666666" points="147.5,-1498 15.5,-1498 15.5,-1468 147.5,-1468 147.5,-1498"/>
<text text-anchor="start" x="23.5" y="-1486" font-family="Helvetica,sans-Serif" font-size="10.00">dnf_composer::element</text>
<text text-anchor="middle" x="81.5" y="-1475" font-family="Helvetica,sans-Serif" font-size="10.00">::Collapse::toString</text>
</a>
</g>
</g>
<!-- Node4&#45;&gt;Node10 -->
<g id="edge9_Node000004_Node000010" class="edge">
<title>Node4&#45;&gt;Node10</title>
<g id="a_edge9_Node000004_Node000010"><a xlink:title=" ">
<path fill="none" stroke="#63b8ff" d="M279.84,-822.66C258.02,-951.98 173.93,-1446.81 163,-1459 158.72,-1463.78 153.53,-1467.62 147.87,-1470.71"/>
<polygon fill="#63b8ff" stroke="#63b8ff" points="283.32,-823.08 281.53,-812.64 276.41,-821.92 283.32,-823.08"/>
</a>
</g>
</g>
<!-- Node11 -->
<g id="Node000011" class="node">
<title>Node11</title>
<g id="a_Node000011"><a xlink:href="classdnf__composer_1_1element_1_1CorrelatedNormalNoise.html#af978a9e9e7acbb0a917a4a3766efaf04" target="_top" xlink:title=" ">
<polygon fill="white" stroke="#666666" points="150,-1294.5 13,-1294.5 13,-1253.5 150,-1253.5 150,-1294.5"/>
<text text-anchor="start" x="21" y="-1282.5" font-family="Helvetica,sans-Serif" font-size="10.00">dnf_composer::element</text>
<text text-anchor="start" x="21" y="-1271.5" font-family="Helvetica,sans-Serif" font-size="10.00">::CorrelatedNormalNoise</text>
<text text-anchor="middle" x="81.5" y="-1260.5" font-family="Helvetica,sans-Serif" font-size="10.00">::toString</text>
</a>
</g>
</g>
<!-- Node4&#45;&gt;Node11 -->
<g id="edge10_Node000004_Node000011" class="edge">
<title>Node4&#45;&gt;Node11</title>
<g id="a_edge10_Node000004_Node000011"><a xlink:title=" ">
<path fill="none" stroke="#63b8ff" d="M285.86,-823.18C286.37,-903.83 276.53,-1121.66 163,-1245 159.28,-1249.04 154.95,-1252.52 150.27,-1255.52"/>
<polygon fill="#63b8ff" stroke="#63b8ff" points="289.36,-822.69 285.73,-812.73 282.36,-822.77 289.36,-822.69"/>
</a>
</g>
</g>
<!-- Node12 -->
<g id="Node000012" class="node">
<title>Node12</title>
<g id="a_Node000012"><a xlink:href="classdnf__composer_1_1element_1_1CorrelatedNormalNoise2D.html#ace11403ed6a019fe22d734dc55089324" target="_top" xlink:title=" ">
<polygon fill="white" stroke="#666666" points="157,-1235.5 6,-1235.5 6,-1194.5 157,-1194.5 157,-1235.5"/>
<text text-anchor="start" x="14" y="-1223.5" font-family="Helvetica,sans-Serif" font-size="10.00">dnf_composer::element</text>
<text text-anchor="start" x="14" y="-1212.5" font-family="Helvetica,sans-Serif" font-size="10.00">::CorrelatedNormalNoise2D</text>
<text text-anchor="middle" x="81.5" y="-1201.5" font-family="Helvetica,sans-Serif" font-size="10.00">::toString</text>
</a>
</g>
</g>
<!-- Node4&#45;&gt;Node12 -->
<g id="edge11_Node000004_Node000012" class="edge">
<title>Node4&#45;&gt;Node12</title>
<g id="a_edge11_Node000004_Node000012"><a xlink:title=" ">
<path fill="none" stroke="#63b8ff" d="M284.25,-822.95C280.82,-895.85 262.22,-1080.09 163,-1185 159.72,-1188.47 156,-1191.54 152.01,-1194.25"/>
<polygon fill="#63b8ff" stroke="#63b8ff" points="287.76,-822.76 284.67,-812.63 280.76,-822.48 287.76,-822.76"/>
</a>
</g>
</g>
<!-- Node13 -->
<g id="Node000013" class="node">
<title>Node13</title>
<g id="a_Node000013"><a xlink:href="classdnf__composer_1_1element_1_1Expand.html#ad4820d154bfeb73bcc0244a526544084" target="_top" xlink:title=" ">
<polygon fill="white" stroke="#666666" points="147.5,-1450 15.5,-1450 15.5,-1420 147.5,-1420 147.5,-1450"/>
<text text-anchor="start" x="23.5" y="-1438" font-family="Helvetica,sans-Serif" font-size="10.00">dnf_composer::element</text>
<text text-anchor="middle" x="81.5" y="-1427" font-family="Helvetica,sans-Serif" font-size="10.00">::Expand::toString</text>
</a>
</g>
</g>
<!-- Node4&#45;&gt;Node13 -->
<g id="edge12_Node000004_Node000013" class="edge">
<title>Node4&#45;&gt;Node13</title>
<g id="a_edge12_Node000004_Node000013"><a xlink:title=" ">
<path fill="none" stroke="#63b8ff" d="M279.81,-822.97C259.21,-945.21 183.32,-1388.65 163,-1411 158.68,-1415.75 153.47,-1419.57 147.8,-1422.65"/>
<polygon fill="#63b8ff" stroke="#63b8ff" points="283.31,-823.24 281.52,-812.8 276.41,-822.08 283.31,-823.24"/>
</a>
</g>
</g>
<!-- Node14 -->
<g id="Node000014" class="node">
<title>Node14</title>
<g id="a_Node000014"><a xlink:href="classdnf__composer_1_1element_1_1FieldCoupling.html#a0ec7d17d851fa9007175794248bb9590" target="_top" xlink:title=" ">
<polygon fill="white" stroke="#666666" points="148,-1402 15,-1402 15,-1372 148,-1372 148,-1402"/>
<text text-anchor="start" x="23" y="-1390" font-family="Helvetica,sans-Serif" font-size="10.00">dnf_composer::element</text>
<text text-anchor="middle" x="81.5" y="-1379" font-family="Helvetica,sans-Serif" font-size="10.00">::FieldCoupling::toString</text>
</a>
</g>
</g>
<!-- Node4&#45;&gt;Node14 -->
<g id="edge13_Node000004_Node000014" class="edge">
<title>Node4&#45;&gt;Node14</title>
<g id="a_edge13_Node000004_Node000014"><a xlink:title=" ">
<path fill="none" stroke="#63b8ff" d="M280.32,-822.62C262.86,-935.28 200.56,-1322.33 163,-1363 158.74,-1367.61 153.65,-1371.34 148.11,-1374.37"/>
<polygon fill="#63b8ff" stroke="#63b8ff" points="283.8,-823.01 281.87,-812.6 276.88,-821.95 283.8,-823.01"/>
</a>
</g>
</g>
<!-- Node15 -->
<g id="Node000015" class="node">
<title>Node15</title>
<g id="a_Node000015"><a xlink:href="classdnf__composer_1_1element_1_1GaussFieldCoupling.html#a6af7a83156ac66cf5cfaafcbb16d2409" target="_top" xlink:title=" ">
<polygon fill="white" stroke="#666666" points="147.5,-1353.5 15.5,-1353.5 15.5,-1312.5 147.5,-1312.5 147.5,-1353.5"/>
<text text-anchor="start" x="23.5" y="-1341.5" font-family="Helvetica,sans-Serif" font-size="10.00">dnf_composer::element</text>
<text text-anchor="start" x="23.5" y="-1330.5" font-family="Helvetica,sans-Serif" font-size="10.00">::GaussFieldCoupling</text>
<text text-anchor="middle" x="81.5" y="-1319.5" font-family="Helvetica,sans-Serif" font-size="10.00">::toString</text>
</a>
</g>
</g>
<!-- Node4&#45;&gt;Node15 -->
<g id="edge14_Node000004_Node000015" class="edge">
<title>Node4&#45;&gt;Node15</title>
<g id="a_edge14_Node000004_Node000015"><a xlink:title=" ">
<path fill="none" stroke="#63b8ff" d="M281.52,-822.66C269.71,-921.74 228.22,-1231.04 163,-1304 158.64,-1308.87 153.41,-1312.93 147.72,-1316.3"/>
<polygon fill="#63b8ff" stroke="#63b8ff" points="285,-823.03 282.69,-812.69 278.05,-822.22 285,-823.03"/>
</a>
</g>
</g>
<!-- Node16 -->
<g id="Node000016" class="node">
<title>Node16</title>
<g id="a_Node000016"><a xlink:href="classdnf__composer_1_1element_1_1GaussKernel.html#a7b8a9134ec53b0a10ad914ad363c4fd0" target="_top" xlink:title=" ">
<polygon fill="white" stroke="#666666" points="147.5,-1176 15.5,-1176 15.5,-1146 147.5,-1146 147.5,-1176"/>
<text text-anchor="start" x="23.5" y="-1164" font-family="Helvetica,sans-Serif" font-size="10.00">dnf_composer::element</text>
<text text-anchor="middle" x="81.5" y="-1153" font-family="Helvetica,sans-Serif" font-size="10.00">::GaussKernel::toString</text>
</a>
</g>
</g>
<!-- Node4&#45;&gt;Node16 -->
<g id="edge15_Node000004_Node000016" class="edge">
<title>Node4&#45;&gt;Node16</title>
<g id="a_edge15_Node000004_Node000016"><a xlink:title=" ">
<path fill="none" stroke="#63b8ff" d="M283.17,-822.81C277.5,-889.85 254.58,-1049.91 163,-1137 158.46,-1141.32 153.17,-1144.87 147.51,-1147.78"/>
<polygon fill="#63b8ff" stroke="#63b8ff" points="286.68,-822.75 283.96,-812.51 279.7,-822.21 286.68,-822.75"/>
</a>
</g>
</g>
<!-- Node17 -->
<g id="Node000017" class="node">
<title>Node17</title>
<g id="a_Node000017"><a xlink:href="classdnf__composer_1_1element_1_1GaussKernel2D.html#aad30c18ace65fff07f0c104744106395" target="_top" xlink:title=" ">
<polygon fill="white" stroke="#666666" points="152,-1128 11,-1128 11,-1098 152,-1098 152,-1128"/>
<text text-anchor="start" x="19" y="-1116" font-family="Helvetica,sans-Serif" font-size="10.00">dnf_composer::element</text>
<text text-anchor="middle" x="81.5" y="-1105" font-family="Helvetica,sans-Serif" font-size="10.00">::GaussKernel2D::toString</text>
</a>
</g>
</g>
<!-- Node4&#45;&gt;Node17 -->
<g id="edge16_Node000004_Node000017" class="edge">
<title>Node4&#45;&gt;Node17</title>
<g id="a_edge16_Node000004_Node000017"><a xlink:title=" ">
<path fill="none" stroke="#63b8ff" d="M281.16,-822.75C272,-882.84 243.33,-1016.33 163,-1089 159.21,-1092.42 154.96,-1095.36 150.43,-1097.88"/>
<polygon fill="#63b8ff" stroke="#63b8ff" points="284.64,-823.14 282.6,-812.75 277.71,-822.14 284.64,-823.14"/>
</a>
</g>
</g>
<!-- Node18 -->
<g id="Node000018" class="node">
<title>Node18</title>
<g id="a_Node000018"><a xlink:href="classdnf__composer_1_1element_1_1GaussStimulus.html#a15f8c25e4db545c57c765a440e7a8cb7" target="_top" xlink:title=" ">
<polygon fill="white" stroke="#666666" points="151.5,-1080 11.5,-1080 11.5,-1050 151.5,-1050 151.5,-1080"/>
<text text-anchor="start" x="19.5" y="-1068" font-family="Helvetica,sans-Serif" font-size="10.00">dnf_composer::element</text>
<text text-anchor="middle" x="81.5" y="-1057" font-family="Helvetica,sans-Serif" font-size="10.00">::GaussStimulus::toString</text>
</a>
</g>
</g>
<!-- Node4&#45;&gt;Node18 -->
<g id="edge17_Node000004_Node000018" class="edge">
<title>Node4&#45;&gt;Node18</title>
<g id="a_edge17_Node000004_Node000018"><a xlink:title=" ">
<path fill="none" stroke="#63b8ff" d="M278.48,-822.57C265.67,-875.06 232.26,-982.37 163,-1041 158.99,-1044.39 154.52,-1047.3 149.79,-1049.81"/>
<polygon fill="#63b8ff" stroke="#63b8ff" points="281.95,-823.06 280.83,-812.53 275.14,-821.46 281.95,-823.06"/>
</a>
</g>
</g>
<!-- Node19 -->
<g id="Node000019" class="node">
<title>Node19</title>
<g id="a_Node000019"><a xlink:href="classdnf__composer_1_1element_1_1GaussStimulus2D.html#add4ff932bad991f32015046d873c6660" target="_top" xlink:title=" ">
<polygon fill="white" stroke="#666666" points="158,-1032 5,-1032 5,-1002 158,-1002 158,-1032"/>
<text text-anchor="start" x="13" y="-1020" font-family="Helvetica,sans-Serif" font-size="10.00">dnf_composer::element</text>
<text text-anchor="middle" x="81.5" y="-1009" font-family="Helvetica,sans-Serif" font-size="10.00">::GaussStimulus2D::toString</text>
</a>
</g>
</g>
<!-- Node4&#45;&gt;Node19 -->
<g id="edge18_Node000004_Node000019" class="edge">
<title>Node4&#45;&gt;Node19</title>
<g id="a_edge18_Node000004_Node000019"><a xlink:title=" ">
<path fill="none" stroke="#63b8ff" d="M274.75,-822.09C258.22,-866.15 221.45,-947.87 163,-993 158.5,-996.48 153.5,-999.45 148.26,-1001.99"/>
<polygon fill="#63b8ff" stroke="#63b8ff" points="278.11,-823.11 278.25,-812.51 271.53,-820.7 278.11,-823.11"/>
</a>
</g>
</g>
<!-- Node20 -->
<g id="Node000020" class="node">
<title>Node20</title>
<g id="a_Node000020"><a xlink:href="classdnf__composer_1_1element_1_1MemoryTrace.html#ac660d6876aaa723c4a6afa5a4387a606" target="_top" xlink:title=" ">
<polygon fill="white" stroke="#666666" points="148,-984 15,-984 15,-954 148,-954 148,-984"/>
<text text-anchor="start" x="23" y="-972" font-family="Helvetica,sans-Serif" font-size="10.00">dnf_composer::element</text>
<text text-anchor="middle" x="81.5" y="-961" font-family="Helvetica,sans-Serif" font-size="10.00">::MemoryTrace::toString</text>
</a>
</g>
</g>
<!-- Node4&#45;&gt;Node20 -->
<g id="edge19_Node000004_Node000020" class="edge">
<title>Node4&#45;&gt;Node20</title>
<g id="a_edge19_Node000004_Node000020"><a xlink:title=" ">
<path fill="none" stroke="#63b8ff" d="M269.09,-821.37C248.88,-855.94 210.82,-912.72 163,-945 157.92,-948.43 152.35,-951.37 146.57,-953.91"/>
<polygon fill="#63b8ff" stroke="#63b8ff" points="272.14,-823.08 274.07,-812.66 266.07,-819.6 272.14,-823.08"/>
</a>
</g>
</g>
<!-- Node21 -->
<g id="Node000021" class="node">
<title>Node21</title>
<g id="a_Node000021"><a xlink:href="classdnf__composer_1_1element_1_1MemoryTrace2D.html#ae32150b2ea377c29eaeb4cb3ab122351" target="_top" xlink:title=" ">
<polygon fill="white" stroke="#666666" points="154.5,-936 8.5,-936 8.5,-906 154.5,-906 154.5,-936"/>
<text text-anchor="start" x="16.5" y="-924" font-family="Helvetica,sans-Serif" font-size="10.00">dnf_composer::element</text>
<text text-anchor="middle" x="81.5" y="-913" font-family="Helvetica,sans-Serif" font-size="10.00">::MemoryTrace2D::toString</text>
</a>
</g>
</g>
<!-- Node4&#45;&gt;Node21 -->
<g id="edge20_Node000004_Node000021" class="edge">
<title>Node4&#45;&gt;Node21</title>
<g id="a_edge20_Node000004_Node000021"><a xlink:title=" ">
<path fill="none" stroke="#63b8ff" d="M259.22,-820.01C236.1,-843.61 200.17,-876.68 163,-897 156.86,-900.36 150.19,-903.3 143.41,-905.86"/>
<polygon fill="#63b8ff" stroke="#63b8ff" points="261.84,-822.34 266.27,-812.71 256.8,-817.48 261.84,-822.34"/>
</a>
</g>
</g>
<!-- Node22 -->
<g id="Node000022" class="node">
<title>Node22</title>
<g id="a_Node000022"><a xlink:href="classdnf__composer_1_1element_1_1MexicanHatKernel.html#ac6310b5ece9178f4d0730302822b99e3" target="_top" xlink:title=" ">
<polygon fill="white" stroke="#666666" points="159.5,-888 3.5,-888 3.5,-858 159.5,-858 159.5,-888"/>
<text text-anchor="start" x="11.5" y="-876" font-family="Helvetica,sans-Serif" font-size="10.00">dnf_composer::element</text>
<text text-anchor="middle" x="81.5" y="-865" font-family="Helvetica,sans-Serif" font-size="10.00">::MexicanHatKernel::toString</text>
</a>
</g>
</g>
<!-- Node4&#45;&gt;Node22 -->
<g id="edge21_Node000004_Node000022" class="edge">
<title>Node4&#45;&gt;Node22</title>
<g id="a_edge21_Node000004_Node000022"><a xlink:title=" ">
<path fill="none" stroke="#63b8ff" d="M235.85,-816.98C213.88,-827.62 187.47,-839.69 163,-849 154.69,-852.16 145.76,-855.18 136.99,-857.94"/>
<polygon fill="#63b8ff" stroke="#63b8ff" points="237.53,-820.06 244.98,-812.52 234.46,-813.77 237.53,-820.06"/>
</a>
</g>
</g>
<!-- Node23 -->
<g id="Node000023" class="node">
<title>Node23</title>
<g id="a_Node000023"><a xlink:href="classdnf__composer_1_1element_1_1MexicanHatKernel2D.html#a4ab0245904a75a1410ff41bbb09bc5dc" target="_top" xlink:title=" ">
<polygon fill="white" stroke="#666666" points="147.5,-839.5 15.5,-839.5 15.5,-798.5 147.5,-798.5 147.5,-839.5"/>
<text text-anchor="start" x="23.5" y="-827.5" font-family="Helvetica,sans-Serif" font-size="10.00">dnf_composer::element</text>
<text text-anchor="start" x="23.5" y="-816.5" font-family="Helvetica,sans-Serif" font-size="10.00">::MexicanHatKernel2D</text>
<text text-anchor="middle" x="81.5" y="-805.5" font-family="Helvetica,sans-Serif" font-size="10.00">::toString</text>
</a>
</g>
</g>
<!-- Node4&#45;&gt;Node23 -->
<g id="edge22_Node000004_Node000023" class="edge">
<title>Node4&#45;&gt;Node23</title>
<g id="a_edge22_Node000004_Node000023"><a xlink:title=" ">
<path fill="none" stroke="#63b8ff" d="M194.14,-804.12C178.45,-806.21 162.42,-808.34 147.58,-810.32"/>
<polygon fill="#63b8ff" stroke="#63b8ff" points="194.94,-807.54 204.38,-802.75 194.01,-800.6 194.94,-807.54"/>
</a>
</g>
</g>
<!-- Node24 -->
<g id="Node000024" class="node">
<title>Node24</title>
<g id="a_Node000024"><a xlink:href="classdnf__composer_1_1element_1_1NeuralField.html#acf0203117e7820c0902e2986a594e47f" target="_top" xlink:title=" ">
<polygon fill="white" stroke="#666666" points="147.5,-780 15.5,-780 15.5,-750 147.5,-750 147.5,-780"/>
<text text-anchor="start" x="23.5" y="-768" font-family="Helvetica,sans-Serif" font-size="10.00">dnf_composer::element</text>
<text text-anchor="middle" x="81.5" y="-757" font-family="Helvetica,sans-Serif" font-size="10.00">::NeuralField::toString</text>
</a>
</g>
</g>
<!-- Node4&#45;&gt;Node24 -->
<g id="edge23_Node000004_Node000024" class="edge">
<title>Node4&#45;&gt;Node24</title>
<g id="a_edge23_Node000004_Node000024"><a xlink:title=" ">
<path fill="none" stroke="#63b8ff" d="M194.14,-779.88C178.45,-777.79 162.42,-775.66 147.58,-773.68"/>
<polygon fill="#63b8ff" stroke="#63b8ff" points="194.01,-783.4 204.38,-781.25 194.94,-776.46 194.01,-783.4"/>
</a>
</g>
</g>
<!-- Node25 -->
<g id="Node000025" class="node">
<title>Node25</title>
<g id="a_Node000025"><a xlink:href="classdnf__composer_1_1element_1_1NeuralField2D.html#a4e4561bb48eab8b878f3dc96574923d4" target="_top" xlink:title=" ">
<polygon fill="white" stroke="#666666" points="149.5,-732 13.5,-732 13.5,-702 149.5,-702 149.5,-732"/>
<text text-anchor="start" x="21.5" y="-720" font-family="Helvetica,sans-Serif" font-size="10.00">dnf_composer::element</text>
<text text-anchor="middle" x="81.5" y="-709" font-family="Helvetica,sans-Serif" font-size="10.00">::NeuralField2D::toString</text>
</a>
</g>
</g>
<!-- Node4&#45;&gt;Node25 -->
<g id="edge24_Node000004_Node000025" class="edge">
<title>Node4&#45;&gt;Node25</title>
<g id="a_edge24_Node000004_Node000025"><a xlink:title=" ">
<path fill="none" stroke="#63b8ff" d="M229.81,-767.47C209.05,-758.63 185.12,-748.9 163,-741 154.35,-737.91 145.08,-734.89 136.02,-732.09"/>
<polygon fill="#63b8ff" stroke="#63b8ff" points="228.54,-770.73 239.11,-771.46 231.3,-764.3 228.54,-770.73"/>
</a>
</g>
</g>
<!-- Node26 -->
<g id="Node000026" class="node">
<title>Node26</title>
<g id="a_Node000026"><a xlink:href="classdnf__composer_1_1element_1_1NormalNoise.html#a310344bc777d0f29351f0ffeaa3cd20c" target="_top" xlink:title=" ">
<polygon fill="white" stroke="#666666" points="147.5,-684 15.5,-684 15.5,-654 147.5,-654 147.5,-684"/>
<text text-anchor="start" x="23.5" y="-672" font-family="Helvetica,sans-Serif" font-size="10.00">dnf_composer::element</text>
<text text-anchor="middle" x="81.5" y="-661" font-family="Helvetica,sans-Serif" font-size="10.00">::NormalNoise::toString</text>
</a>
</g>
</g>
<!-- Node4&#45;&gt;Node26 -->
<g id="edge25_Node000004_Node000026" class="edge">
<title>Node4&#45;&gt;Node26</title>
<g id="a_edge25_Node000004_Node000026"><a xlink:title=" ">
<path fill="none" stroke="#63b8ff" d="M257.36,-764.18C234.01,-742.09 198.76,-711.88 163,-693 156.68,-689.66 149.83,-686.73 142.89,-684.16"/>
<polygon fill="#63b8ff" stroke="#63b8ff" points="255.16,-766.93 264.8,-771.33 260.01,-761.88 255.16,-766.93"/>
</a>
</g>
</g>
<!-- Node27 -->
<g id="Node000027" class="node">
<title>Node27</title>
<g id="a_Node000027"><a xlink:href="classdnf__composer_1_1element_1_1NormalNoise2D.html#a7bae54e92d8beef10452ddf4c1e93435" target="_top" xlink:title=" ">
<polygon fill="white" stroke="#666666" points="153.5,-636 9.5,-636 9.5,-606 153.5,-606 153.5,-636"/>
<text text-anchor="start" x="17.5" y="-624" font-family="Helvetica,sans-Serif" font-size="10.00">dnf_composer::element</text>
<text text-anchor="middle" x="81.5" y="-613" font-family="Helvetica,sans-Serif" font-size="10.00">::NormalNoise2D::toString</text>
</a>
</g>
</g>
<!-- Node4&#45;&gt;Node27 -->
<g id="edge26_Node000004_Node000027" class="edge">
<title>Node4&#45;&gt;Node27</title>
<g id="a_edge26_Node000004_Node000027"><a xlink:title=" ">
<path fill="none" stroke="#63b8ff" d="M268.04,-762.56C247.38,-729.25 209.41,-675.67 163,-645 157.77,-641.54 152.02,-638.57 146.08,-636.02"/>
<polygon fill="#63b8ff" stroke="#63b8ff" points="265.22,-764.65 273.4,-771.38 271.2,-761.02 265.22,-764.65"/>
</a>
</g>
</g>
<!-- Node28 -->
<g id="Node000028" class="node">
<title>Node28</title>
<g id="a_Node000028"><a xlink:href="classdnf__composer_1_1element_1_1OscillatoryKernel.html#aceabd095ff34c16767e66308bf408d63" target="_top" xlink:title=" ">
<polygon fill="white" stroke="#666666" points="147.5,-587.5 15.5,-587.5 15.5,-546.5 147.5,-546.5 147.5,-587.5"/>
<text text-anchor="start" x="23.5" y="-575.5" font-family="Helvetica,sans-Serif" font-size="10.00">dnf_composer::element</text>
<text text-anchor="start" x="23.5" y="-564.5" font-family="Helvetica,sans-Serif" font-size="10.00">::OscillatoryKernel::</text>
<text text-anchor="middle" x="81.5" y="-553.5" font-family="Helvetica,sans-Serif" font-size="10.00">toString</text>
</a>
</g>
</g>
<!-- Node4&#45;&gt;Node28 -->
<g id="edge27_Node000004_Node000028" class="edge">
<title>Node4&#45;&gt;Node28</title>
<g id="a_edge27_Node000004_Node000028"><a xlink:title=" ">
<path fill="none" stroke="#63b8ff" d="M273.47,-761.72C255.83,-719.24 218.29,-642.1 163,-597 158.38,-593.23 153.23,-589.9 147.84,-586.98"/>
<polygon fill="#63b8ff" stroke="#63b8ff" points="270.32,-763.28 277.32,-771.23 276.81,-760.65 270.32,-763.28"/>
</a>
</g>
</g>
<!-- Node29 -->
<g id="Node000029" class="node">
<title>Node29</title>
<g id="a_Node000029"><a xlink:href="classdnf__composer_1_1element_1_1OscillatoryKernel2D.html#af8470b33f4c637c87f142fb0c4eff923" target="_top" xlink:title=" ">
<polygon fill="white" stroke="#666666" points="147.5,-528.5 15.5,-528.5 15.5,-487.5 147.5,-487.5 147.5,-528.5"/>
<text text-anchor="start" x="23.5" y="-516.5" font-family="Helvetica,sans-Serif" font-size="10.00">dnf_composer::element</text>
<text text-anchor="start" x="23.5" y="-505.5" font-family="Helvetica,sans-Serif" font-size="10.00">::OscillatoryKernel2D</text>
<text text-anchor="middle" x="81.5" y="-494.5" font-family="Helvetica,sans-Serif" font-size="10.00">::toString</text>
</a>
</g>
</g>
<!-- Node4&#45;&gt;Node29 -->
<g id="edge28_Node000004_Node000029" class="edge">
<title>Node4&#45;&gt;Node29</title>
<g id="a_edge28_Node000004_Node000029"><a xlink:title=" ">
<path fill="none" stroke="#63b8ff" d="M271.22,-761.79C241.24,-696.26 172.02,-546.23 163,-538 158.37,-533.78 153.1,-530.13 147.51,-526.99"/>
<polygon fill="#63b8ff" stroke="#63b8ff" points="268.18,-763.54 275.52,-771.18 274.54,-760.63 268.18,-763.54"/>
</a>
</g>
</g>
<!-- Node30 -->
<g id="Node000030" class="node">
<title>Node30</title>
<g id="a_Node000030"><a xlink:href="classdnf__composer_1_1element_1_1Resize.html#a01d211cf228eccad7d1618280ed98050" target="_top" xlink:title=" ">
<polygon fill="white" stroke="#666666" points="147.5,-78 15.5,-78 15.5,-48 147.5,-48 147.5,-78"/>
<text text-anchor="start" x="23.5" y="-66" font-family="Helvetica,sans-Serif" font-size="10.00">dnf_composer::element</text>
<text text-anchor="middle" x="81.5" y="-55" font-family="Helvetica,sans-Serif" font-size="10.00">::Resize::toString</text>
</a>
</g>
</g>
<!-- Node4&#45;&gt;Node30 -->
<g id="edge29_Node000004_Node000030" class="edge">
<title>Node4&#45;&gt;Node30</title>
<g id="a_edge29_Node000004_Node000030"><a xlink:title=" ">
<path fill="none" stroke="#63b8ff" d="M267.44,-762.17C246.98,-725.75 214.06,-661.62 199,-602 170.9,-490.77 234.73,-176.54 163,-87 158.81,-81.76 153.52,-77.64 147.67,-74.38"/>
<polygon fill="#63b8ff" stroke="#63b8ff" points="264.62,-764.29 272.61,-771.25 270.71,-760.83 264.62,-764.29"/>
</a>
</g>
</g>
<!-- Node31 -->
<g id="Node000031" class="node">
<title>Node31</title>
<g id="a_Node000031"><a xlink:href="classdnf__composer_1_1element_1_1Resize2D.html#a6ede09dafbe890913c78ff6189b5ef50" target="_top" xlink:title=" ">
<polygon fill="white" stroke="#666666" points="147.5,-30 15.5,-30 15.5,0 147.5,0 147.5,-30"/>
<text text-anchor="start" x="23.5" y="-18" font-family="Helvetica,sans-Serif" font-size="10.00">dnf_composer::element</text>
<text text-anchor="middle" x="81.5" y="-7" font-family="Helvetica,sans-Serif" font-size="10.00">::Resize2D::toString</text>
</a>
</g>
</g>
<!-- Node4&#45;&gt;Node31 -->
<g id="edge30_Node000004_Node000031" class="edge">
<title>Node4&#45;&gt;Node31</title>
<g id="a_edge30_Node000004_Node000031"><a xlink:title=" ">
<path fill="none" stroke="#63b8ff" d="M267.38,-762.19C246.86,-725.78 213.88,-661.66 199,-602 183.83,-541.18 202.05,-88.04 163,-39 158.82,-33.75 153.55,-29.62 147.7,-26.36"/>
<polygon fill="#63b8ff" stroke="#63b8ff" points="264.57,-764.31 272.57,-771.26 270.65,-760.84 264.57,-764.31"/>
</a>
</g>
</g>
<!-- Node32 -->
<g id="Node000032" class="node">
<title>Node32</title>
<g id="a_Node000032"><a xlink:href="classdnf__composer_1_1element_1_1TimedGaussStimulus.html#afa9ab0ee32955f758cce483f5f274105" target="_top" xlink:title=" ">
<polygon fill="white" stroke="#666666" points="147.5,-469.5 15.5,-469.5 15.5,-428.5 147.5,-428.5 147.5,-469.5"/>
<text text-anchor="start" x="23.5" y="-457.5" font-family="Helvetica,sans-Serif" font-size="10.00">dnf_composer::element</text>
<text text-anchor="start" x="23.5" y="-446.5" font-family="Helvetica,sans-Serif" font-size="10.00">::TimedGaussStimulus</text>
<text text-anchor="middle" x="81.5" y="-435.5" font-family="Helvetica,sans-Serif" font-size="10.00">::toString</text>
</a>
</g>
</g>
<!-- Node4&#45;&gt;Node32 -->
<g id="edge31_Node000004_Node000032" class="edge">
<title>Node4&#45;&gt;Node32</title>
<g id="a_edge31_Node000004_Node000032"><a xlink:title=" ">
<path fill="none" stroke="#63b8ff" d="M269.89,-762.1C251.56,-725.13 220.48,-659.97 199,-602 179.21,-548.59 201.8,-520.7 163,-479 158.63,-474.3 153.46,-470.34 147.88,-466.99"/>
<polygon fill="#63b8ff" stroke="#63b8ff" points="266.88,-763.93 274.48,-771.32 273.15,-760.8 266.88,-763.93"/>
</a>
</g>
</g>
<!-- Node33 -->
<g id="Node000033" class="node">
<title>Node33</title>
<g id="a_Node000033"><a xlink:href="classdnf__composer_1_1element_1_1TimedGaussStimulus2D.html#aea500c669bb14917031e728dcbbf948b" target="_top" xlink:title=" ">
<polygon fill="white" stroke="#666666" points="151.5,-410.5 11.5,-410.5 11.5,-369.5 151.5,-369.5 151.5,-410.5"/>
<text text-anchor="start" x="19.5" y="-398.5" font-family="Helvetica,sans-Serif" font-size="10.00">dnf_composer::element</text>
<text text-anchor="start" x="19.5" y="-387.5" font-family="Helvetica,sans-Serif" font-size="10.00">::TimedGaussStimulus2D</text>
<text text-anchor="middle" x="81.5" y="-376.5" font-family="Helvetica,sans-Serif" font-size="10.00">::toString</text>
</a>
</g>
</g>
<!-- Node4&#45;&gt;Node33 -->
<g id="edge32_Node000004_Node000033" class="edge">
<title>Node4&#45;&gt;Node33</title>
<g id="a_edge32_Node000004_Node000033"><a xlink:title=" ">
<path fill="none" stroke="#63b8ff" d="M268.86,-762.11C249.65,-725.38 217.82,-660.71 199,-602 173.83,-523.48 216.41,-482.82 163,-420 159.72,-416.14 155.88,-412.77 151.71,-409.84"/>
<polygon fill="#63b8ff" stroke="#63b8ff" points="265.93,-764.05 273.69,-771.26 272.12,-760.78 265.93,-764.05"/>
</a>
</g>
</g>
<!-- Node34&#45;&gt;Node10 -->
<g id="edge34_Node000034_Node000010" class="edge">
<title>Node34&#45;&gt;Node10</title>
<g id="a_edge34_Node000034_Node000010"><a xlink:title=" ">
<path fill="none" stroke="#63b8ff" d="M209.62,-1483C189.23,-1483 167.34,-1483 147.56,-1483"/>
<polygon fill="#63b8ff" stroke="#63b8ff" points="209.81,-1486.5 219.81,-1483 209.81,-1479.5 209.81,-1486.5"/>
</a>
</g>
</g>
<!-- Node35&#45;&gt;Node13 -->
<g id="edge36_Node000035_Node000013" class="edge">
<title>Node35&#45;&gt;Node13</title>
<g id="a_edge36_Node000035_Node000013"><a xlink:title=" ">
<path fill="none" stroke="#63b8ff" d="M196.79,-1431.61C180.28,-1432.1 163.3,-1432.61 147.64,-1433.07"/>
<polygon fill="#63b8ff" stroke="#63b8ff" points="197.11,-1435.11 207,-1431.31 196.9,-1428.11 197.11,-1435.11"/>
</a>
</g>
</g>
<!-- Node36&#45;&gt;Node14 -->
<g id="edge38_Node000036_Node000014" class="edge">
<title>Node36&#45;&gt;Node14</title>
<g id="a_edge38_Node000036_Node000014"><a xlink:title=" ">
<path fill="none" stroke="#63b8ff" d="M203.72,-1379.82C185.21,-1380.91 165.77,-1382.07 148.02,-1383.12"/>
<polygon fill="#63b8ff" stroke="#63b8ff" points="204.12,-1383.3 213.89,-1379.21 203.7,-1376.31 204.12,-1383.3"/>
</a>
</g>
</g>
<!-- Node37&#45;&gt;Node15 -->
<g id="edge40_Node000037_Node000015" class="edge">
<title>Node37&#45;&gt;Node15</title>
<g id="a_edge40_Node000037_Node000015"><a xlink:title=" ">
<path fill="none" stroke="#63b8ff" d="M188.75,-1324.08C174.85,-1325.25 160.83,-1326.42 147.73,-1327.52"/>
<polygon fill="#63b8ff" stroke="#63b8ff" points="189.16,-1327.56 198.83,-1323.23 188.57,-1320.58 189.16,-1327.56"/>
</a>
</g>
</g>
<!-- Node38&#45;&gt;Node30 -->
<g id="edge42_Node000038_Node000030" class="edge">
<title>Node38&#45;&gt;Node30</title>
<g id="a_edge42_Node000038_Node000030"><a xlink:title=" ">
<path fill="none" stroke="#63b8ff" d="M278.74,-552.99C264.52,-496.14 228.72,-352.89 199,-233 182.92,-168.13 209.11,-135.38 163,-87 158.57,-82.36 153.29,-78.6 147.57,-75.56"/>
<polygon fill="#63b8ff" stroke="#63b8ff" points="275.39,-554.02 281.21,-562.87 282.18,-552.32 275.39,-554.02"/>
</a>
</g>
</g>
<!-- Node39&#45;&gt;Node31 -->
<g id="edge44_Node000039_Node000031" class="edge">
<title>Node39&#45;&gt;Node31</title>
<g id="a_edge44_Node000039_Node000031"><a xlink:title=" ">
<path fill="none" stroke="#63b8ff" d="M270.41,-172.99C250.95,-136.08 213.05,-74.01 163,-39 158.1,-35.57 152.71,-32.63 147.1,-30.1"/>
<polygon fill="#63b8ff" stroke="#63b8ff" points="267.49,-174.97 275.18,-182.25 273.71,-171.76 267.49,-174.97"/>
</a>
</g>
</g>
</g>
</svg>
