<?xml version="1.0" encoding="UTF-8" standalone="no"?>
<!DOCTYPE svg PUBLIC "-//W3C//DTD SVG 1.1//EN"
 "http://www.w3.org/Graphics/SVG/1.1/DTD/svg11.dtd">
<!-- Generated by graphviz version 2.43.0 (0)
 -->
<!-- Title: dnf_composer::element::GaussKernelParameters Pages: 1 -->
<svg width="179pt" height="344pt"
 viewBox="0.00 0.00 179.00 344.00" xmlns="http://www.w3.org/2000/svg" xmlns:xlink="http://www.w3.org/1999/xlink">
<g id="graph0" class="graph" transform="scale(1 1) rotate(0) translate(4 340)">
<title>dnf_composer::element::GaussKernelParameters</title>
<!-- Node1 -->
<g id="Node000001" class="node">
<title>Node1</title>
<g id="a_Node000001"><a xlink:title="Parameters for a Gaussian lateral interaction kernel.">
<polygon fill="#999999" stroke="transparent" points="158,-195 13,-195 13,0 158,0 158,-195"/>
<text text-anchor="start" x="24.5" y="-182.5" font-family="Helvetica,sans-Serif" font-size="10.00">dnf_composer::element</text>
<text text-anchor="start" x="24.5" y="-171.5" font-family="Helvetica,sans-Serif" font-size="10.00">::GaussKernelParameters</text>
<text text-anchor="start" x="17.5" y="-156.5" font-family="Helvetica,sans-Serif" font-size="10.00">+</text>
<text text-anchor="start" x="30.5" y="-156.5" font-family="Helvetica,sans-Serif" font-size="10.00">amplitude</text>
<text text-anchor="start" x="17.5" y="-141.5" font-family="Helvetica,sans-Serif" font-size="10.00">+</text>
<text text-anchor="start" x="30.5" y="-141.5" font-family="Helvetica,sans-Serif" font-size="10.00">amplitudeGlobal</text>
<text text-anchor="start" x="17.5" y="-126.5" font-family="Helvetica,sans-Serif" font-size="10.00">+</text>
<text text-anchor="start" x="30.5" y="-126.5" font-family="Helvetica,sans-Serif" font-size="10.00">circular</text>
<text text-anchor="start" x="17.5" y="-111.5" font-family="Helvetica,sans-Serif" font-size="10.00">+</text>
<text text-anchor="start" x="30.5" y="-111.5" font-family="Helvetica,sans-Serif" font-size="10.00">normalized</text>
<text text-anchor="start" x="17.5" y="-96.5" font-family="Helvetica,sans-Serif" font-size="10.00">+</text>
<text text-anchor="start" x="30.5" y="-96.5" font-family="Helvetica,sans-Serif" font-size="10.00">width</text>
<text text-anchor="start" x="17.5" y="-81.5" font-family="Helvetica,sans-Serif" font-size="10.00">+</text>
<text text-anchor="start" x="30.5" y="-81.5" font-family="Helvetica,sans-Serif" font-size="10.00">GaussKernelParameters()</text>
<text text-anchor="start" x="17.5" y="-66.5" font-family="Helvetica,sans-Serif" font-size="10.00">+</text>
<text text-anchor="start" x="30.5" y="-66.5" font-family="Helvetica,sans-Serif" font-size="10.00">GaussKernelParameters()</text>
<text text-anchor="start" x="17.5" y="-51.5" font-family="Helvetica,sans-Serif" font-size="10.00">+</text>
<text text-anchor="start" x="30.5" y="-51.5" font-family="Helvetica,sans-Serif" font-size="10.00">operator==()</text>
<text text-anchor="start" x="17.5" y="-36.5" font-family="Helvetica,sans-Serif" font-size="10.00">+</text>
<text text-anchor="start" x="30.5" y="-36.5" font-family="Helvetica,sans-Serif" font-size="10.00">operator==()</text>
<text text-anchor="start" x="17.5" y="-21.5" font-family="Helvetica,sans-Serif" font-size="10.00">+</text>
<text text-anchor="start" x="30.5" y="-21.5" font-family="Helvetica,sans-Serif" font-size="10.00">toString()</text>
<text text-anchor="start" x="17.5" y="-6.5" font-family="Helvetica,sans-Serif" font-size="10.00">+</text>
<text text-anchor="start" x="30.5" y="-6.5" font-family="Helvetica,sans-Serif" font-size="10.00">toString()</text>
<polygon fill="#666666" stroke="#666666" points="13.5,-166.5 13.5,-166.5 158.5,-166.5 158.5,-166.5 13.5,-166.5"/>
<polygon fill="#666666" stroke="#666666" points="13.5,-91.5 13.5,-91.5 28.5,-91.5 28.5,-91.5 13.5,-91.5"/>
<polygon fill="#666666" stroke="#666666" points="28.5,-91.5 28.5,-91.5 158.5,-91.5 158.5,-91.5 28.5,-91.5"/>
<polygon fill="none" stroke="#666666" points="13,0 13,-195 158,-195 158,0 13,0"/>
</a>
</g>
</g>
<!-- Node2 -->
<g id="Node000002" class="node">
<title>Node2</title>
<g id="a_Node000002"><a xlink:href="structdnf__composer_1_1element_1_1ElementSpecificParameters.html" target="_top" xlink:title=" ">
<polygon fill="white" stroke="transparent" points="171,-336 0,-336 0,-231 171,-231 171,-336"/>
<text text-anchor="start" x="16" y="-323.5" font-family="Helvetica,sans-Serif" font-size="10.00">dnf_composer::element</text>
<text text-anchor="start" x="16" y="-312.5" font-family="Helvetica,sans-Serif" font-size="10.00">::ElementSpecificParameters</text>
<text text-anchor="start" x="84" y="-297.5" font-family="Helvetica,sans-Serif" font-size="10.00"> </text>
<text text-anchor="start" x="4.5" y="-282.5" font-family="Helvetica,sans-Serif" font-size="10.00">+</text>
<text text-anchor="start" x="17.5" y="-282.5" font-family="Helvetica,sans-Serif" font-size="10.00">ElementSpecificParameters()</text>
<text text-anchor="start" x="4.5" y="-267.5" font-family="Helvetica,sans-Serif" font-size="10.00">+</text>
<text text-anchor="start" x="17.5" y="-267.5" font-family="Helvetica,sans-Serif" font-size="10.00">print()</text>
<text text-anchor="start" x="4.5" y="-252.5" font-family="Helvetica,sans-Serif" font-size="10.00">+</text>
<text text-anchor="start" x="17.5" y="-252.5" font-family="Helvetica,sans-Serif" font-size="10.00">toString()</text>
<text text-anchor="start" x="4.5" y="-237.5" font-family="Helvetica,sans-Serif" font-size="10.00">+</text>
<text text-anchor="start" x="17.5" y="-237.5" font-family="Helvetica,sans-Serif" font-size="10.00">~ElementSpecificParameters()</text>
<polygon fill="#666666" stroke="#666666" points="0.5,-307.5 0.5,-307.5 171.5,-307.5 171.5,-307.5 0.5,-307.5"/>
<polygon fill="#666666" stroke="#666666" points="0.5,-292.5 0.5,-292.5 171.5,-292.5 171.5,-292.5 0.5,-292.5"/>
<polygon fill="none" stroke="#666666" points="0,-231 0,-336 171,-336 171,-231 0,-231"/>
</a>
</g>
</g>
<!-- Node2&#45;&gt;Node1 -->
<g id="edge1_Node000001_Node000002" class="edge">
<title>Node2&#45;&gt;Node1</title>
<g id="a_edge1_Node000001_Node000002"><a xlink:title=" ">
<path fill="none" stroke="#63b8ff" d="M79.08,-220.58C78.89,-212.37 78.79,-203.81 78.76,-195.19"/>
<polygon fill="none" stroke="#63b8ff" points="75.59,-220.86 79.36,-230.76 82.58,-220.66 75.59,-220.86"/>
</a>
</g>
</g>
<!-- Node2&#45;&gt;Node1 -->
<g id="edge2_Node000001_Node000002" class="edge">
<title>Node2&#45;&gt;Node1</title>
<g id="a_edge2_Node000001_Node000002"><a xlink:title=" ">
<path fill="none" stroke="#63b8ff" d="M91.92,-220.58C92.11,-212.37 92.21,-203.81 92.24,-195.19"/>
<polygon fill="none" stroke="#63b8ff" points="88.42,-220.66 91.64,-230.76 95.41,-220.86 88.42,-220.66"/>
</a>
</g>
</g>
</g>
</svg>
