<?xml version="1.0" encoding="UTF-8" standalone="no"?>
<!DOCTYPE svg PUBLIC "-//W3C//DTD SVG 1.1//EN"
 "http://www.w3.org/Graphics/SVG/1.1/DTD/svg11.dtd">
<!-- Generated by graphviz version 2.43.0 (0)
 -->
<!-- Title: dnf_composer::element::ActivationFunction Pages: 1 -->
<svg width="434pt" height="419pt"
 viewBox="0.00 0.00 434.00 419.00" xmlns="http://www.w3.org/2000/svg" xmlns:xlink="http://www.w3.org/1999/xlink">
<g id="graph0" class="graph" transform="scale(1 1) rotate(0) translate(4 415)">
<title>dnf_composer::element::ActivationFunction</title>
<!-- Node1 -->
<g id="Node000001" class="node">
<title>Node1</title>
<g id="a_Node000001"><a xlink:title="Abstract base for activation functions applied to a neural field.">
<polygon fill="#999999" stroke="transparent" points="282,-411 154,-411 154,-246 282,-246 282,-411"/>
<text text-anchor="start" x="160" y="-398.5" font-family="Helvetica,sans-Serif" font-size="10.00">dnf_composer::element</text>
<text text-anchor="start" x="169.5" y="-387.5" font-family="Helvetica,sans-Serif" font-size="10.00">::ActivationFunction</text>
<text text-anchor="start" x="158" y="-372.5" font-family="Helvetica,sans-Serif" font-size="10.00">+</text>
<text text-anchor="start" x="171" y="-372.5" font-family="Helvetica,sans-Serif" font-size="10.00">type</text>
<text text-anchor="start" x="158" y="-357.5" font-family="Helvetica,sans-Serif" font-size="10.00">+</text>
<text text-anchor="start" x="171" y="-357.5" font-family="Helvetica,sans-Serif" font-size="10.00">ActivationFunction()</text>
<text text-anchor="start" x="158" y="-342.5" font-family="Helvetica,sans-Serif" font-size="10.00">+</text>
<text text-anchor="start" x="171" y="-342.5" font-family="Helvetica,sans-Serif" font-size="10.00">ActivationFunction()</text>
<text text-anchor="start" x="158" y="-327.5" font-family="Helvetica,sans-Serif" font-size="10.00">+</text>
<text text-anchor="start" x="171" y="-327.5" font-family="Helvetica,sans-Serif" font-size="10.00">clone()</text>
<text text-anchor="start" x="158" y="-312.5" font-family="Helvetica,sans-Serif" font-size="10.00">+</text>
<text text-anchor="start" x="171" y="-312.5" font-family="Helvetica,sans-Serif" font-size="10.00">operator()()</text>
<text text-anchor="start" x="158" y="-297.5" font-family="Helvetica,sans-Serif" font-size="10.00">+</text>
<text text-anchor="start" x="171" y="-297.5" font-family="Helvetica,sans-Serif" font-size="10.00">operator=()</text>
<text text-anchor="start" x="158" y="-282.5" font-family="Helvetica,sans-Serif" font-size="10.00">+</text>
<text text-anchor="start" x="171" y="-282.5" font-family="Helvetica,sans-Serif" font-size="10.00">print()</text>
<text text-anchor="start" x="158" y="-267.5" font-family="Helvetica,sans-Serif" font-size="10.00">+</text>
<text text-anchor="start" x="171" y="-267.5" font-family="Helvetica,sans-Serif" font-size="10.00">toString()</text>
<text text-anchor="start" x="158" y="-252.5" font-family="Helvetica,sans-Serif" font-size="10.00">+</text>
<text text-anchor="start" x="171" y="-252.5" font-family="Helvetica,sans-Serif" font-size="10.00">~ActivationFunction()</text>
<polygon fill="#666666" stroke="#666666" points="154,-382.5 154,-382.5 282,-382.5 282,-382.5 154,-382.5"/>
<polygon fill="#666666" stroke="#666666" points="154,-367.5 154,-367.5 169,-367.5 169,-367.5 154,-367.5"/>
<polygon fill="#666666" stroke="#666666" points="169,-367.5 169,-367.5 282,-367.5 282,-367.5 169,-367.5"/>
<polygon fill="none" stroke="#666666" points="154,-246 154,-411 282,-411 282,-246 154,-246"/>
</a>
</g>
</g>
<!-- Node2 -->
<g id="Node000002" class="node">
<title>Node2</title>
<g id="a_Node000002"><a xlink:href="structdnf__composer_1_1element_1_1AbsSigmoidFunction.html" target="_top" xlink:title="Rational (absolute&#45;value) sigmoid — cedar&#39;s default activation function.">
<polygon fill="white" stroke="transparent" points="136,-210 0,-210 0,0 136,0 136,-210"/>
<text text-anchor="start" x="10" y="-198" font-family="Helvetica,sans-Serif" font-size="10.00">dnf_composer::element</text>
<text text-anchor="start" x="15" y="-187" font-family="Helvetica,sans-Serif" font-size="10.00">::AbsSigmoidFunction</text>
<text text-anchor="start" x="4" y="-172" font-family="Helvetica,sans-Serif" font-size="10.00">+</text>
<text text-anchor="start" x="17" y="-172" font-family="Helvetica,sans-Serif" font-size="10.00">beta</text>
<text text-anchor="start" x="4" y="-157" font-family="Helvetica,sans-Serif" font-size="10.00">+</text>
<text text-anchor="start" x="17" y="-157" font-family="Helvetica,sans-Serif" font-size="10.00">x_shift</text>
<text text-anchor="start" x="4" y="-142" font-family="Helvetica,sans-Serif" font-size="10.00">+</text>
<text text-anchor="start" x="17" y="-142" font-family="Helvetica,sans-Serif" font-size="10.00">AbsSigmoidFunction()</text>
<text text-anchor="start" x="4" y="-127" font-family="Helvetica,sans-Serif" font-size="10.00">+</text>
<text text-anchor="start" x="17" y="-127" font-family="Helvetica,sans-Serif" font-size="10.00">AbsSigmoidFunction()</text>
<text text-anchor="start" x="4" y="-112" font-family="Helvetica,sans-Serif" font-size="10.00">+</text>
<text text-anchor="start" x="17" y="-112" font-family="Helvetica,sans-Serif" font-size="10.00">clone()</text>
<text text-anchor="start" x="4" y="-97" font-family="Helvetica,sans-Serif" font-size="10.00">+</text>
<text text-anchor="start" x="17" y="-97" font-family="Helvetica,sans-Serif" font-size="10.00">getBeta()</text>
<text text-anchor="start" x="4" y="-82" font-family="Helvetica,sans-Serif" font-size="10.00">+</text>
<text text-anchor="start" x="17" y="-82" font-family="Helvetica,sans-Serif" font-size="10.00">getXShift()</text>
<text text-anchor="start" x="4" y="-67" font-family="Helvetica,sans-Serif" font-size="10.00">+</text>
<text text-anchor="start" x="17" y="-67" font-family="Helvetica,sans-Serif" font-size="10.00">operator()()</text>
<text text-anchor="start" x="4" y="-52" font-family="Helvetica,sans-Serif" font-size="10.00">+</text>
<text text-anchor="start" x="17" y="-52" font-family="Helvetica,sans-Serif" font-size="10.00">operator==()</text>
<text text-anchor="start" x="4" y="-37" font-family="Helvetica,sans-Serif" font-size="10.00">+</text>
<text text-anchor="start" x="17" y="-37" font-family="Helvetica,sans-Serif" font-size="10.00">print()</text>
<text text-anchor="start" x="4" y="-22" font-family="Helvetica,sans-Serif" font-size="10.00">+</text>
<text text-anchor="start" x="17" y="-22" font-family="Helvetica,sans-Serif" font-size="10.00">toString()</text>
<text text-anchor="start" x="4" y="-7" font-family="Helvetica,sans-Serif" font-size="10.00">+</text>
<text text-anchor="start" x="17" y="-7" font-family="Helvetica,sans-Serif" font-size="10.00">~AbsSigmoidFunction()</text>
<polygon fill="#666666" stroke="#666666" points="0,-182 0,-182 136,-182 136,-182 0,-182"/>
<polygon fill="#666666" stroke="#666666" points="0,-152 0,-152 15,-152 15,-152 0,-152"/>
<polygon fill="#666666" stroke="#666666" points="15,-152 15,-152 136,-152 136,-152 15,-152"/>
<polygon fill="none" stroke="#666666" points="0,0 0,-210 136,-210 136,0 0,0"/>
</a>
</g>
</g>
<!-- Node1&#45;&gt;Node2 -->
<g id="edge1_Node000001_Node000002" class="edge">
<title>Node1&#45;&gt;Node2</title>
<g id="a_edge1_Node000001_Node000002"><a xlink:title=" ">
<path fill="none" stroke="#63b8ff" d="M157.03,-237.47C150.14,-227.29 143.07,-216.86 136.09,-206.55"/>
<polygon fill="none" stroke="#63b8ff" points="154.28,-239.65 162.78,-245.97 160.08,-235.72 154.28,-239.65"/>
</a>
</g>
</g>
<!-- Node3 -->
<g id="Node000003" class="node">
<title>Node3</title>
<g id="a_Node000003"><a xlink:href="structdnf__composer_1_1element_1_1HeavisideFunction.html" target="_top" xlink:title="Heaviside step function.">
<polygon fill="white" stroke="transparent" points="281.5,-195 154.5,-195 154.5,-15 281.5,-15 281.5,-195"/>
<text text-anchor="start" x="160.5" y="-183" font-family="Helvetica,sans-Serif" font-size="10.00">dnf_composer::element</text>
<text text-anchor="start" x="170" y="-172" font-family="Helvetica,sans-Serif" font-size="10.00">::HeavisideFunction</text>
<text text-anchor="start" x="159" y="-157" font-family="Helvetica,sans-Serif" font-size="10.00">+</text>
<text text-anchor="start" x="172" y="-157" font-family="Helvetica,sans-Serif" font-size="10.00">x_shift</text>
<text text-anchor="start" x="159" y="-142" font-family="Helvetica,sans-Serif" font-size="10.00">+</text>
<text text-anchor="start" x="172" y="-142" font-family="Helvetica,sans-Serif" font-size="10.00">clone()</text>
<text text-anchor="start" x="159" y="-127" font-family="Helvetica,sans-Serif" font-size="10.00">+</text>
<text text-anchor="start" x="172" y="-127" font-family="Helvetica,sans-Serif" font-size="10.00">getXShift()</text>
<text text-anchor="start" x="159" y="-112" font-family="Helvetica,sans-Serif" font-size="10.00">+</text>
<text text-anchor="start" x="172" y="-112" font-family="Helvetica,sans-Serif" font-size="10.00">HeavisideFunction()</text>
<text text-anchor="start" x="159" y="-97" font-family="Helvetica,sans-Serif" font-size="10.00">+</text>
<text text-anchor="start" x="172" y="-97" font-family="Helvetica,sans-Serif" font-size="10.00">HeavisideFunction()</text>
<text text-anchor="start" x="159" y="-82" font-family="Helvetica,sans-Serif" font-size="10.00">+</text>
<text text-anchor="start" x="172" y="-82" font-family="Helvetica,sans-Serif" font-size="10.00">operator()()</text>
<text text-anchor="start" x="159" y="-67" font-family="Helvetica,sans-Serif" font-size="10.00">+</text>
<text text-anchor="start" x="172" y="-67" font-family="Helvetica,sans-Serif" font-size="10.00">operator==()</text>
<text text-anchor="start" x="159" y="-52" font-family="Helvetica,sans-Serif" font-size="10.00">+</text>
<text text-anchor="start" x="172" y="-52" font-family="Helvetica,sans-Serif" font-size="10.00">print()</text>
<text text-anchor="start" x="159" y="-37" font-family="Helvetica,sans-Serif" font-size="10.00">+</text>
<text text-anchor="start" x="172" y="-37" font-family="Helvetica,sans-Serif" font-size="10.00">toString()</text>
<text text-anchor="start" x="159" y="-22" font-family="Helvetica,sans-Serif" font-size="10.00">+</text>
<text text-anchor="start" x="172" y="-22" font-family="Helvetica,sans-Serif" font-size="10.00">~HeavisideFunction()</text>
<polygon fill="#666666" stroke="#666666" points="155,-167 155,-167 282,-167 282,-167 155,-167"/>
<polygon fill="#666666" stroke="#666666" points="155,-152 155,-152 170,-152 170,-152 155,-152"/>
<polygon fill="#666666" stroke="#666666" points="170,-152 170,-152 282,-152 282,-152 170,-152"/>
<polygon fill="none" stroke="#666666" points="154.5,-15 154.5,-195 281.5,-195 281.5,-15 154.5,-15"/>
</a>
</g>
</g>
<!-- Node1&#45;&gt;Node3 -->
<g id="edge2_Node000001_Node000003" class="edge">
<title>Node1&#45;&gt;Node3</title>
<g id="a_edge2_Node000001_Node000003"><a xlink:title=" ">
<path fill="none" stroke="#63b8ff" d="M218,-235.79C218,-222.37 218,-208.56 218,-195.19"/>
<polygon fill="none" stroke="#63b8ff" points="214.5,-235.97 218,-245.97 221.5,-235.97 214.5,-235.97"/>
</a>
</g>
</g>
<!-- Node4 -->
<g id="Node000004" class="node">
<title>Node4</title>
<g id="a_Node000004"><a xlink:href="structdnf__composer_1_1element_1_1SigmoidFunction.html" target="_top" xlink:title="Logistic (exponential) sigmoid.">
<polygon fill="white" stroke="transparent" points="426,-210 300,-210 300,0 426,0 426,-210"/>
<text text-anchor="start" x="305" y="-198" font-family="Helvetica,sans-Serif" font-size="10.00">dnf_composer::element</text>
<text text-anchor="start" x="319" y="-187" font-family="Helvetica,sans-Serif" font-size="10.00">::SigmoidFunction</text>
<text text-anchor="start" x="306" y="-172" font-family="Helvetica,sans-Serif" font-size="10.00">+</text>
<text text-anchor="start" x="321" y="-172" font-family="Helvetica,sans-Serif" font-size="10.00">steepness</text>
<text text-anchor="start" x="306" y="-157" font-family="Helvetica,sans-Serif" font-size="10.00">+</text>
<text text-anchor="start" x="321" y="-157" font-family="Helvetica,sans-Serif" font-size="10.00">x_shift</text>
<text text-anchor="start" x="306" y="-142" font-family="Helvetica,sans-Serif" font-size="10.00">+</text>
<text text-anchor="start" x="321" y="-142" font-family="Helvetica,sans-Serif" font-size="10.00">clone()</text>
<text text-anchor="start" x="306" y="-127" font-family="Helvetica,sans-Serif" font-size="10.00">+</text>
<text text-anchor="start" x="321" y="-127" font-family="Helvetica,sans-Serif" font-size="10.00">getSteepness()</text>
<text text-anchor="start" x="306" y="-112" font-family="Helvetica,sans-Serif" font-size="10.00">+</text>
<text text-anchor="start" x="321" y="-112" font-family="Helvetica,sans-Serif" font-size="10.00">getXShift()</text>
<text text-anchor="start" x="306" y="-97" font-family="Helvetica,sans-Serif" font-size="10.00">+</text>
<text text-anchor="start" x="321" y="-97" font-family="Helvetica,sans-Serif" font-size="10.00">operator()()</text>
<text text-anchor="start" x="306" y="-82" font-family="Helvetica,sans-Serif" font-size="10.00">+</text>
<text text-anchor="start" x="321" y="-82" font-family="Helvetica,sans-Serif" font-size="10.00">operator==()</text>
<text text-anchor="start" x="306" y="-67" font-family="Helvetica,sans-Serif" font-size="10.00">+</text>
<text text-anchor="start" x="321" y="-67" font-family="Helvetica,sans-Serif" font-size="10.00">print()</text>
<text text-anchor="start" x="306" y="-52" font-family="Helvetica,sans-Serif" font-size="10.00">+</text>
<text text-anchor="start" x="321" y="-52" font-family="Helvetica,sans-Serif" font-size="10.00">SigmoidFunction()</text>
<text text-anchor="start" x="306" y="-37" font-family="Helvetica,sans-Serif" font-size="10.00">+</text>
<text text-anchor="start" x="321" y="-37" font-family="Helvetica,sans-Serif" font-size="10.00">SigmoidFunction()</text>
<text text-anchor="start" x="306" y="-22" font-family="Helvetica,sans-Serif" font-size="10.00">+</text>
<text text-anchor="start" x="321" y="-22" font-family="Helvetica,sans-Serif" font-size="10.00">toString()</text>
<text text-anchor="start" x="306" y="-7" font-family="Helvetica,sans-Serif" font-size="10.00">+</text>
<text text-anchor="start" x="321" y="-7" font-family="Helvetica,sans-Serif" font-size="10.00">~SigmoidFunction()</text>
<polygon fill="#666666" stroke="#666666" points="300,-182 300,-182 426,-182 426,-182 300,-182"/>
<polygon fill="#666666" stroke="#666666" points="300,-152 300,-152 319,-152 319,-152 300,-152"/>
<polygon fill="#666666" stroke="#666666" points="319,-152 319,-152 426,-152 426,-152 319,-152"/>
<polygon fill="none" stroke="#666666" points="300,0 300,-210 426,-210 426,0 300,0"/>
</a>
</g>
</g>
<!-- Node1&#45;&gt;Node4 -->
<g id="edge3_Node000001_Node000004" class="edge">
<title>Node1&#45;&gt;Node4</title>
<g id="a_edge3_Node000001_Node000004"><a xlink:title=" ">
<path fill="none" stroke="#63b8ff" d="M276.86,-237.58C284.46,-225.98 292.26,-214.07 299.92,-202.37"/>
<polygon fill="none" stroke="#63b8ff" points="273.92,-235.68 271.37,-245.97 279.78,-239.52 273.92,-235.68"/>
</a>
</g>
</g>
</g>
</svg>
