<?xml version="1.0" encoding="UTF-8" standalone="no"?>
<!DOCTYPE svg PUBLIC "-//W3C//DTD SVG 1.1//EN"
 "http://www.w3.org/Graphics/SVG/1.1/DTD/svg11.dtd">
<!-- Generated by graphviz version 2.43.0 (0)
 -->
<!-- Title: ax::NodeEditor::Utilities::BlueprintNodeBuilder::Output Pages: 1 -->
<svg width="507pt" height="124pt"
 viewBox="0.00 0.00 507.00 124.00" xmlns="http://www.w3.org/2000/svg" xmlns:xlink="http://www.w3.org/1999/xlink">
<g id="graph0" class="graph" transform="scale(1 1) rotate(0) translate(4 120)">
<title>ax::NodeEditor::Utilities::BlueprintNodeBuilder::Output</title>
<!-- Node1 -->
<g id="Node000001" class="node">
<title>Node1</title>
<g id="a_Node000001"><a xlink:title=" ">
<polygon fill="#999999" stroke="#666666" points="133,-78.5 0,-78.5 0,-37.5 133,-37.5 133,-78.5"/>
<text text-anchor="start" x="8" y="-66.5" font-family="Helvetica,sans-Serif" font-size="10.00">ax::NodeEditor::Utilities</text>
<text text-anchor="start" x="8" y="-55.5" font-family="Helvetica,sans-Serif" font-size="10.00">::BlueprintNodeBuilder</text>
<text text-anchor="middle" x="66.5" y="-44.5" font-family="Helvetica,sans-Serif" font-size="10.00">::Output</text>
</a>
</g>
</g>
<!-- Node1&#45;&gt;Node1 -->
<g id="edge5_Node000001_Node000001" class="edge">
<title>Node1&#45;&gt;Node1</title>
<g id="a_edge5_Node000001_Node000001"><a xlink:title=" ">
<path fill="none" stroke="#63b8ff" d="M33.05,-78.6C29.4,-88.15 40.55,-96.5 66.5,-96.5 82.72,-96.5 93.16,-93.24 97.81,-88.46"/>
<polygon fill="#63b8ff" stroke="#63b8ff" points="101.25,-89.11 99.95,-78.6 94.41,-87.63 101.25,-89.11"/>
</a>
</g>
</g>
<!-- Node2 -->
<g id="Node000002" class="node">
<title>Node2</title>
<g id="a_Node000002"><a xlink:href="structax_1_1NodeEditor_1_1Utilities_1_1BlueprintNodeBuilder.html#a56865f16dff7c82dc170c6cda0f2b7b9" target="_top" xlink:title=" ">
<polygon fill="white" stroke="#666666" points="330,-116 169,-116 169,-86 330,-86 330,-116"/>
<text text-anchor="start" x="177" y="-104" font-family="Helvetica,sans-Serif" font-size="10.00">ax::NodeEditor::Utilities</text>
<text text-anchor="middle" x="249.5" y="-93" font-family="Helvetica,sans-Serif" font-size="10.00">::BlueprintNodeBuilder::Begin</text>
</a>
</g>
</g>
<!-- Node1&#45;&gt;Node2 -->
<g id="edge1_Node000001_Node000002" class="edge">
<title>Node1&#45;&gt;Node2</title>
<g id="a_edge1_Node000001_Node000002"><a xlink:title=" ">
<path fill="none" stroke="#63b8ff" d="M133.1,-73.58C146.78,-76.83 161.28,-80.28 175.21,-83.59"/>
<polygon fill="#63b8ff" stroke="#63b8ff" points="174.7,-87.06 185.24,-85.97 176.32,-80.25 174.7,-87.06"/>
</a>
</g>
</g>
<!-- Node3 -->
<g id="Node000003" class="node">
<title>Node3</title>
<g id="a_Node000003"><a xlink:href="structax_1_1NodeEditor_1_1Utilities_1_1BlueprintNodeBuilder.html#aeb9a0ad965437943fba1440ccd973f88" target="_top" xlink:title=" ">
<polygon fill="white" stroke="#666666" points="499,-99.5 366,-99.5 366,-58.5 499,-58.5 499,-99.5"/>
<text text-anchor="start" x="374" y="-87.5" font-family="Helvetica,sans-Serif" font-size="10.00">ax::NodeEditor::Utilities</text>
<text text-anchor="start" x="374" y="-76.5" font-family="Helvetica,sans-Serif" font-size="10.00">::BlueprintNodeBuilder</text>
<text text-anchor="middle" x="432.5" y="-65.5" font-family="Helvetica,sans-Serif" font-size="10.00">::Header</text>
</a>
</g>
</g>
<!-- Node1&#45;&gt;Node3 -->
<g id="edge3_Node000001_Node000003" class="edge">
<title>Node1&#45;&gt;Node3</title>
<g id="a_edge3_Node000001_Node000003"><a xlink:title=" ">
<path fill="none" stroke="#63b8ff" d="M133.42,-61.8C195.94,-65.41 289.83,-70.83 355.48,-74.61"/>
<polygon fill="#63b8ff" stroke="#63b8ff" points="355.58,-78.13 365.77,-75.21 355.98,-71.14 355.58,-78.13"/>
</a>
</g>
</g>
<!-- Node4 -->
<g id="Node000004" class="node">
<title>Node4</title>
<g id="a_Node000004"><a xlink:href="structax_1_1NodeEditor_1_1Utilities_1_1BlueprintNodeBuilder.html#ad355e01d12640ba1a1149a2fab42b70f" target="_top" xlink:title=" ">
<polygon fill="white" stroke="#666666" points="328.5,-30 170.5,-30 170.5,0 328.5,0 328.5,-30"/>
<text text-anchor="start" x="178.5" y="-18" font-family="Helvetica,sans-Serif" font-size="10.00">ax::NodeEditor::Utilities</text>
<text text-anchor="middle" x="249.5" y="-7" font-family="Helvetica,sans-Serif" font-size="10.00">::BlueprintNodeBuilder::Input</text>
</a>
</g>
</g>
<!-- Node1&#45;&gt;Node4 -->
<g id="edge4_Node000001_Node000004" class="edge">
<title>Node1&#45;&gt;Node4</title>
<g id="a_edge4_Node000001_Node000004"><a xlink:title=" ">
<path fill="none" stroke="#63b8ff" d="M133.1,-42.42C146.78,-39.17 161.28,-35.72 175.21,-32.41"/>
<polygon fill="#63b8ff" stroke="#63b8ff" points="176.32,-35.75 185.24,-30.03 174.7,-28.94 176.32,-35.75"/>
</a>
</g>
</g>
<!-- Node2&#45;&gt;Node3 -->
<g id="edge2_Node000002_Node000003" class="edge">
<title>Node2&#45;&gt;Node3</title>
<g id="a_edge2_Node000002_Node000003"><a xlink:title=" ">
<path fill="none" stroke="#63b8ff" d="M330.15,-91.32C338.65,-90.29 347.27,-89.24 355.72,-88.21"/>
<polygon fill="#63b8ff" stroke="#63b8ff" points="356.42,-91.65 365.92,-86.97 355.57,-84.7 356.42,-91.65"/>
</a>
</g>
</g>
</g>
</svg>
