<?xml version="1.0" encoding="UTF-8" standalone="no"?>
<!DOCTYPE svg PUBLIC "-//W3C//DTD SVG 1.1//EN"
 "http://www.w3.org/Graphics/SVG/1.1/DTD/svg11.dtd">
<!-- Generated by graphviz version 2.43.0 (0)
 -->
<!-- Title: dnf_composer::element::NeuralField2DState Pages: 1 -->
<svg width="180pt" height="477pt"
 viewBox="0.00 0.00 180.00 477.00" xmlns="http://www.w3.org/2000/svg" xmlns:xlink="http://www.w3.org/1999/xlink">
<g id="graph0" class="graph" transform="scale(1 1) rotate(0) translate(4 473)">
<title>dnf_composer::element::NeuralField2DState</title>
<!-- Node1 -->
<g id="Node000001" class="node">
<title>Node1</title>
<g id="a_Node000001"><a xlink:title=" ">
<polygon fill="#999999" stroke="transparent" points="156,-165 16,-165 16,0 156,0 156,-165"/>
<text text-anchor="start" x="28" y="-152.5" font-family="Helvetica,sans-Serif" font-size="10.00">dnf_composer::element</text>
<text text-anchor="start" x="35.5" y="-141.5" font-family="Helvetica,sans-Serif" font-size="10.00">::NeuralField2DState</text>
<text text-anchor="start" x="20" y="-126.5" font-family="Helvetica,sans-Serif" font-size="10.00">+</text>
<text text-anchor="start" x="33" y="-126.5" font-family="Helvetica,sans-Serif" font-size="10.00">highestActivation</text>
<text text-anchor="start" x="20" y="-111.5" font-family="Helvetica,sans-Serif" font-size="10.00">+</text>
<text text-anchor="start" x="33" y="-111.5" font-family="Helvetica,sans-Serif" font-size="10.00">lowestActivation</text>
<text text-anchor="start" x="20" y="-96.5" font-family="Helvetica,sans-Serif" font-size="10.00">+</text>
<text text-anchor="start" x="33" y="-96.5" font-family="Helvetica,sans-Serif" font-size="10.00">previousActivationAvg</text>
<text text-anchor="start" x="20" y="-81.5" font-family="Helvetica,sans-Serif" font-size="10.00">+</text>
<text text-anchor="start" x="33" y="-81.5" font-family="Helvetica,sans-Serif" font-size="10.00">previousActivationNorm</text>
<text text-anchor="start" x="20" y="-66.5" font-family="Helvetica,sans-Serif" font-size="10.00">+</text>
<text text-anchor="start" x="33" y="-66.5" font-family="Helvetica,sans-Serif" font-size="10.00">previousActivationSum</text>
<text text-anchor="start" x="20" y="-51.5" font-family="Helvetica,sans-Serif" font-size="10.00">+</text>
<text text-anchor="start" x="33" y="-51.5" font-family="Helvetica,sans-Serif" font-size="10.00">stable</text>
<text text-anchor="start" x="20" y="-36.5" font-family="Helvetica,sans-Serif" font-size="10.00">+</text>
<text text-anchor="start" x="33" y="-36.5" font-family="Helvetica,sans-Serif" font-size="10.00">thresholdForStability</text>
<text text-anchor="start" x="20" y="-21.5" font-family="Helvetica,sans-Serif" font-size="10.00">+</text>
<text text-anchor="start" x="33" y="-21.5" font-family="Helvetica,sans-Serif" font-size="10.00">print()</text>
<text text-anchor="start" x="20" y="-6.5" font-family="Helvetica,sans-Serif" font-size="10.00">+</text>
<text text-anchor="start" x="33" y="-6.5" font-family="Helvetica,sans-Serif" font-size="10.00">toString()</text>
<polygon fill="#666666" stroke="#666666" points="16,-136.5 16,-136.5 156,-136.5 156,-136.5 16,-136.5"/>
<polygon fill="#666666" stroke="#666666" points="16,-31.5 16,-31.5 31,-31.5 31,-31.5 16,-31.5"/>
<polygon fill="#666666" stroke="#666666" points="31,-31.5 31,-31.5 156,-31.5 156,-31.5 31,-31.5"/>
<polygon fill="none" stroke="#666666" points="16,0 16,-165 156,-165 156,0 16,0"/>
</a>
</g>
</g>
<!-- Node2 -->
<g id="Node000002" class="node">
<title>Node2</title>
<g id="a_Node000002"><a xlink:title=" ">
<polygon fill="white" stroke="transparent" points="172,-272 0,-272 0,-212 172,-212 172,-272"/>
<text text-anchor="start" x="5" y="-260" font-family="Helvetica,sans-Serif" font-size="10.00">std::vector&lt; dnf_composer</text>
<text text-anchor="start" x="5" y="-249" font-family="Helvetica,sans-Serif" font-size="10.00">::element::NeuralField2DBump &gt;</text>
<text text-anchor="start" x="84" y="-234" font-family="Helvetica,sans-Serif" font-size="10.00"> </text>
<text text-anchor="start" x="84" y="-219" font-family="Helvetica,sans-Serif" font-size="10.00"> </text>
<polygon fill="#666666" stroke="#666666" points="0,-244 0,-244 172,-244 172,-244 0,-244"/>
<polygon fill="#666666" stroke="#666666" points="0,-229 0,-229 172,-229 172,-229 0,-229"/>
<polygon fill="none" stroke="#666666" points="0,-212 0,-272 172,-272 172,-212 0,-212"/>
</a>
</g>
</g>
<!-- Node2&#45;&gt;Node1 -->
<g id="edge1_Node000001_Node000002" class="edge">
<title>Node2&#45;&gt;Node1</title>
<g id="a_edge1_Node000001_Node000002"><a xlink:title=" ">
<path fill="none" stroke="#63b8ff" d="M86,-211.74C86,-201.63 86,-189.69 86,-177.23"/>
<polygon fill="none" stroke="#63b8ff" points="86,-177.16 82,-171.16 86,-165.16 90,-171.16 86,-177.16"/>
</a>
</g>
<text text-anchor="middle" x="108.5" y="-186" font-family="Helvetica,sans-Serif" font-size="10.00" fill="grey"> +bumps</text>
</g>
<!-- Node3 -->
<g id="Node000003" class="node">
<title>Node3</title>
<g id="a_Node000003"><a xlink:href="structdnf__composer_1_1element_1_1NeuralField2DBump.html" target="_top" xlink:title=" ">
<polygon fill="white" stroke="transparent" points="149,-469 23,-469 23,-319 149,-319 149,-469"/>
<text text-anchor="start" x="28" y="-457" font-family="Helvetica,sans-Serif" font-size="10.00">dnf_composer::element</text>
<text text-anchor="start" x="34" y="-446" font-family="Helvetica,sans-Serif" font-size="10.00">::NeuralField2DBump</text>
<text text-anchor="start" x="40" y="-431" font-family="Helvetica,sans-Serif" font-size="10.00">+</text>
<text text-anchor="start" x="66" y="-431" font-family="Helvetica,sans-Serif" font-size="10.00">amplitude</text>
<text text-anchor="start" x="40" y="-416" font-family="Helvetica,sans-Serif" font-size="10.00">+</text>
<text text-anchor="start" x="66" y="-416" font-family="Helvetica,sans-Serif" font-size="10.00">area</text>
<text text-anchor="start" x="40" y="-401" font-family="Helvetica,sans-Serif" font-size="10.00">+</text>
<text text-anchor="start" x="66" y="-401" font-family="Helvetica,sans-Serif" font-size="10.00">centroid_x</text>
<text text-anchor="start" x="40" y="-386" font-family="Helvetica,sans-Serif" font-size="10.00">+</text>
<text text-anchor="start" x="66" y="-386" font-family="Helvetica,sans-Serif" font-size="10.00">centroid_y</text>
<text text-anchor="start" x="40" y="-371" font-family="Helvetica,sans-Serif" font-size="10.00">+</text>
<text text-anchor="start" x="66" y="-371" font-family="Helvetica,sans-Serif" font-size="10.00">velocity_x</text>
<text text-anchor="start" x="40" y="-356" font-family="Helvetica,sans-Serif" font-size="10.00">+</text>
<text text-anchor="start" x="66" y="-356" font-family="Helvetica,sans-Serif" font-size="10.00">velocity_y</text>
<text text-anchor="start" x="40" y="-341" font-family="Helvetica,sans-Serif" font-size="10.00">+</text>
<text text-anchor="start" x="66" y="-341" font-family="Helvetica,sans-Serif" font-size="10.00">print()</text>
<text text-anchor="start" x="40" y="-326" font-family="Helvetica,sans-Serif" font-size="10.00">+</text>
<text text-anchor="start" x="66" y="-326" font-family="Helvetica,sans-Serif" font-size="10.00">toString()</text>
<polygon fill="#666666" stroke="#666666" points="23,-441 23,-441 149,-441 149,-441 23,-441"/>
<polygon fill="#666666" stroke="#666666" points="23,-351 23,-351 64,-351 64,-351 23,-351"/>
<polygon fill="#666666" stroke="#666666" points="64,-351 64,-351 149,-351 149,-351 64,-351"/>
<polygon fill="none" stroke="#666666" points="23,-319 23,-469 149,-469 149,-319 23,-319"/>
</a>
</g>
</g>
<!-- Node3&#45;&gt;Node2 -->
<g id="edge2_Node000002_Node000003" class="edge">
<title>Node3&#45;&gt;Node2</title>
<g id="a_edge2_Node000002_Node000003"><a xlink:title=" ">
<path fill="none" stroke="#63b8ff" d="M86,-318.88C86,-307 86,-295.08 86,-284.33"/>
<polygon fill="none" stroke="#63b8ff" points="86,-284.32 82,-278.32 86,-272.32 90,-278.32 86,-284.32"/>
</a>
</g>
<text text-anchor="middle" x="115" y="-293" font-family="Helvetica,sans-Serif" font-size="10.00" fill="grey"> +elements</text>
</g>
</g>
</svg>
