<?xml version="1.0" encoding="UTF-8" standalone="no"?>
<!DOCTYPE svg PUBLIC "-//W3C//DTD SVG 1.1//EN"
 "http://www.w3.org/Graphics/SVG/1.1/DTD/svg11.dtd">
<!-- Generated by graphviz version 2.43.0 (0)
 -->
<!-- Title: dnf_composer::element::FieldCouplingParameters Pages: 1 -->
<svg width="340pt" height="325pt"
 viewBox="0.00 0.00 339.50 325.00" xmlns="http://www.w3.org/2000/svg" xmlns:xlink="http://www.w3.org/1999/xlink">
<g id="graph0" class="graph" transform="scale(1 1) rotate(0) translate(4 321)">
<title>dnf_composer::element::FieldCouplingParameters</title>
<!-- Node1 -->
<g id="Node000001" class="node">
<title>Node1</title>
<g id="a_Node000001"><a xlink:title="Parameters for a learned full&#45;matrix field coupling.">
<polygon fill="#999999" stroke="transparent" points="244,-135 93,-135 93,0 244,0 244,-135"/>
<text text-anchor="start" x="105" y="-122.5" font-family="Helvetica,sans-Serif" font-size="10.00">dnf_composer::element</text>
<text text-anchor="start" x="105" y="-111.5" font-family="Helvetica,sans-Serif" font-size="10.00">::FieldCouplingParameters</text>
<text text-anchor="start" x="97.5" y="-96.5" font-family="Helvetica,sans-Serif" font-size="10.00">+</text>
<text text-anchor="start" x="110.5" y="-96.5" font-family="Helvetica,sans-Serif" font-size="10.00">isLearningActive</text>
<text text-anchor="start" x="97.5" y="-81.5" font-family="Helvetica,sans-Serif" font-size="10.00">+</text>
<text text-anchor="start" x="110.5" y="-81.5" font-family="Helvetica,sans-Serif" font-size="10.00">learningRate</text>
<text text-anchor="start" x="97.5" y="-66.5" font-family="Helvetica,sans-Serif" font-size="10.00">+</text>
<text text-anchor="start" x="110.5" y="-66.5" font-family="Helvetica,sans-Serif" font-size="10.00">learningRule</text>
<text text-anchor="start" x="97.5" y="-51.5" font-family="Helvetica,sans-Serif" font-size="10.00">+</text>
<text text-anchor="start" x="110.5" y="-51.5" font-family="Helvetica,sans-Serif" font-size="10.00">scalar</text>
<text text-anchor="start" x="97.5" y="-36.5" font-family="Helvetica,sans-Serif" font-size="10.00">+</text>
<text text-anchor="start" x="110.5" y="-36.5" font-family="Helvetica,sans-Serif" font-size="10.00">FieldCouplingParameters()</text>
<text text-anchor="start" x="97.5" y="-21.5" font-family="Helvetica,sans-Serif" font-size="10.00">+</text>
<text text-anchor="start" x="110.5" y="-21.5" font-family="Helvetica,sans-Serif" font-size="10.00">operator==()</text>
<text text-anchor="start" x="97.5" y="-6.5" font-family="Helvetica,sans-Serif" font-size="10.00">+</text>
<text text-anchor="start" x="110.5" y="-6.5" font-family="Helvetica,sans-Serif" font-size="10.00">toString()</text>
<polygon fill="#666666" stroke="#666666" points="93.5,-106.5 93.5,-106.5 244.5,-106.5 244.5,-106.5 93.5,-106.5"/>
<polygon fill="#666666" stroke="#666666" points="93.5,-46.5 93.5,-46.5 108.5,-46.5 108.5,-46.5 93.5,-46.5"/>
<polygon fill="#666666" stroke="#666666" points="108.5,-46.5 108.5,-46.5 244.5,-46.5 244.5,-46.5 108.5,-46.5"/>
<polygon fill="none" stroke="#666666" points="93,0 93,-135 244,-135 244,0 93,0"/>
</a>
</g>
</g>
<!-- Node2 -->
<g id="Node000002" class="node">
<title>Node2</title>
<g id="a_Node000002"><a xlink:href="structdnf__composer_1_1element_1_1ElementSpecificParameters.html" target="_top" xlink:title="Abstract base for all element&#45;specific parameter structs.">
<polygon fill="white" stroke="transparent" points="171,-302 0,-302 0,-197 171,-197 171,-302"/>
<text text-anchor="start" x="16" y="-289.5" font-family="Helvetica,sans-Serif" font-size="10.00">dnf_composer::element</text>
<text text-anchor="start" x="16" y="-278.5" font-family="Helvetica,sans-Serif" font-size="10.00">::ElementSpecificParameters</text>
<text text-anchor="start" x="84" y="-263.5" font-family="Helvetica,sans-Serif" font-size="10.00"> </text>
<text text-anchor="start" x="4.5" y="-248.5" font-family="Helvetica,sans-Serif" font-size="10.00">+</text>
<text text-anchor="start" x="17.5" y="-248.5" font-family="Helvetica,sans-Serif" font-size="10.00">ElementSpecificParameters()</text>
<text text-anchor="start" x="4.5" y="-233.5" font-family="Helvetica,sans-Serif" font-size="10.00">+</text>
<text text-anchor="start" x="17.5" y="-233.5" font-family="Helvetica,sans-Serif" font-size="10.00">print()</text>
<text text-anchor="start" x="4.5" y="-218.5" font-family="Helvetica,sans-Serif" font-size="10.00">+</text>
<text text-anchor="start" x="17.5" y="-218.5" font-family="Helvetica,sans-Serif" font-size="10.00">toString()</text>
<text text-anchor="start" x="4.5" y="-203.5" font-family="Helvetica,sans-Serif" font-size="10.00">+</text>
<text text-anchor="start" x="17.5" y="-203.5" font-family="Helvetica,sans-Serif" font-size="10.00">~ElementSpecificParameters()</text>
<polygon fill="#666666" stroke="#666666" points="0.5,-273.5 0.5,-273.5 171.5,-273.5 171.5,-273.5 0.5,-273.5"/>
<polygon fill="#666666" stroke="#666666" points="0.5,-258.5 0.5,-258.5 171.5,-258.5 171.5,-258.5 0.5,-258.5"/>
<polygon fill="none" stroke="#666666" points="0,-197 0,-302 171,-302 171,-197 0,-197"/>
</a>
</g>
</g>
<!-- Node2&#45;&gt;Node1 -->
<g id="edge1_Node000001_Node000002" class="edge">
<title>Node2&#45;&gt;Node1</title>
<g id="a_edge1_Node000001_Node000002"><a xlink:title=" ">
<path fill="none" stroke="#63b8ff" d="M113.53,-187.72C121.31,-170.84 129.8,-152.42 137.74,-135.22"/>
<polygon fill="none" stroke="#63b8ff" points="110.29,-186.37 109.28,-196.92 116.65,-189.3 110.29,-186.37"/>
</a>
</g>
</g>
<!-- Node3 -->
<g id="Node000003" class="node">
<title>Node3</title>
<g id="a_Node000003"><a xlink:href="structdnf__composer_1_1element_1_1ElementDimensions.html" target="_top" xlink:title="Spatial discretization of a one&#45;dimensional field.">
<polygon fill="white" stroke="transparent" points="316,-317 189,-317 189,-182 316,-182 316,-317"/>
<text text-anchor="start" x="195" y="-304.5" font-family="Helvetica,sans-Serif" font-size="10.00">dnf_composer::element</text>
<text text-anchor="start" x="200.5" y="-293.5" font-family="Helvetica,sans-Serif" font-size="10.00">::ElementDimensions</text>
<text text-anchor="start" x="193.5" y="-278.5" font-family="Helvetica,sans-Serif" font-size="10.00">+</text>
<text text-anchor="start" x="206.5" y="-278.5" font-family="Helvetica,sans-Serif" font-size="10.00">d_x</text>
<text text-anchor="start" x="193.5" y="-263.5" font-family="Helvetica,sans-Serif" font-size="10.00">+</text>
<text text-anchor="start" x="206.5" y="-263.5" font-family="Helvetica,sans-Serif" font-size="10.00">size</text>
<text text-anchor="start" x="193.5" y="-248.5" font-family="Helvetica,sans-Serif" font-size="10.00">+</text>
<text text-anchor="start" x="206.5" y="-248.5" font-family="Helvetica,sans-Serif" font-size="10.00">x_max</text>
<text text-anchor="start" x="193.5" y="-233.5" font-family="Helvetica,sans-Serif" font-size="10.00">+</text>
<text text-anchor="start" x="206.5" y="-233.5" font-family="Helvetica,sans-Serif" font-size="10.00">ElementDimensions()</text>
<text text-anchor="start" x="193.5" y="-218.5" font-family="Helvetica,sans-Serif" font-size="10.00">+</text>
<text text-anchor="start" x="206.5" y="-218.5" font-family="Helvetica,sans-Serif" font-size="10.00">operator==()</text>
<text text-anchor="start" x="193.5" y="-203.5" font-family="Helvetica,sans-Serif" font-size="10.00">+</text>
<text text-anchor="start" x="206.5" y="-203.5" font-family="Helvetica,sans-Serif" font-size="10.00">print()</text>
<text text-anchor="start" x="193.5" y="-188.5" font-family="Helvetica,sans-Serif" font-size="10.00">+</text>
<text text-anchor="start" x="206.5" y="-188.5" font-family="Helvetica,sans-Serif" font-size="10.00">toString()</text>
<polygon fill="#666666" stroke="#666666" points="189.5,-288.5 189.5,-288.5 316.5,-288.5 316.5,-288.5 189.5,-288.5"/>
<polygon fill="#666666" stroke="#666666" points="189.5,-243.5 189.5,-243.5 204.5,-243.5 204.5,-243.5 189.5,-243.5"/>
<polygon fill="#666666" stroke="#666666" points="204.5,-243.5 204.5,-243.5 316.5,-243.5 316.5,-243.5 204.5,-243.5"/>
<polygon fill="none" stroke="#666666" points="189,-182 189,-317 316,-317 316,-182 189,-182"/>
</a>
</g>
</g>
<!-- Node3&#45;&gt;Node1 -->
<g id="edge2_Node000001_Node000003" class="edge">
<title>Node3&#45;&gt;Node1</title>
<g id="a_edge2_Node000001_Node000003"><a xlink:title=" ">
<path fill="none" stroke="#63b8ff" d="M221.46,-181.99C215.99,-170.25 210.24,-157.95 204.64,-145.95"/>
<polygon fill="none" stroke="#63b8ff" points="204.63,-145.92 198.47,-142.17 199.55,-135.04 205.71,-138.79 204.63,-145.92"/>
</a>
</g>
<text text-anchor="middle" x="272.5" y="-156" font-family="Helvetica,sans-Serif" font-size="10.00" fill="grey"> +inputFieldDimensions</text>
</g>
</g>
</svg>
