<?xml version="1.0" encoding="UTF-8" standalone="no"?>
<!DOCTYPE svg PUBLIC "-//W3C//DTD SVG 1.1//EN"
 "http://www.w3.org/Graphics/SVG/1.1/DTD/svg11.dtd">
<!-- Generated by graphviz version 2.43.0 (0)
 -->
<!-- Title: dnf_composer::PlotSpecificParameters Pages: 1 -->
<svg width="392pt" height="303pt"
 viewBox="0.00 0.00 392.00 303.00" xmlns="http://www.w3.org/2000/svg" xmlns:xlink="http://www.w3.org/1999/xlink">
<g id="graph0" class="graph" transform="scale(1 1) rotate(0) translate(4 299)">
<title>dnf_composer::PlotSpecificParameters</title>
<!-- Node1 -->
<g id="Node000001" class="node">
<title>Node1</title>
<g id="a_Node000001"><a xlink:title=" ">
<polygon fill="#999999" stroke="transparent" points="267.5,-295 118.5,-295 118.5,-205 267.5,-205 267.5,-295"/>
<text text-anchor="start" x="127.5" y="-283" font-family="Helvetica,sans-Serif" font-size="10.00">dnf_composer::PlotSpecific</text>
<text text-anchor="start" x="165.5" y="-272" font-family="Helvetica,sans-Serif" font-size="10.00">Parameters</text>
<text text-anchor="start" x="191.5" y="-257" font-family="Helvetica,sans-Serif" font-size="10.00"> </text>
<text text-anchor="start" x="123" y="-242" font-family="Helvetica,sans-Serif" font-size="10.00">+</text>
<text text-anchor="start" x="136" y="-242" font-family="Helvetica,sans-Serif" font-size="10.00">PlotSpecificParameters()</text>
<text text-anchor="start" x="123" y="-227" font-family="Helvetica,sans-Serif" font-size="10.00">+</text>
<text text-anchor="start" x="136" y="-227" font-family="Helvetica,sans-Serif" font-size="10.00">toString()</text>
<text text-anchor="start" x="123" y="-212" font-family="Helvetica,sans-Serif" font-size="10.00">+</text>
<text text-anchor="start" x="136" y="-212" font-family="Helvetica,sans-Serif" font-size="10.00">~PlotSpecificParameters()</text>
<polygon fill="#666666" stroke="#666666" points="119,-267 119,-267 268,-267 268,-267 119,-267"/>
<polygon fill="#666666" stroke="#666666" points="119,-252 119,-252 268,-252 268,-252 119,-252"/>
<polygon fill="none" stroke="#666666" points="118.5,-205 118.5,-295 267.5,-295 267.5,-205 118.5,-205"/>
</a>
</g>
</g>
<!-- Node2 -->
<g id="Node000002" class="node">
<title>Node2</title>
<g id="a_Node000002"><a xlink:href="structdnf__composer_1_1HeatmapParameters.html" target="_top" xlink:title=" ">
<polygon fill="white" stroke="transparent" points="186,-169 0,-169 0,0 186,0 186,-169"/>
<text text-anchor="start" x="5" y="-156.5" font-family="Helvetica,sans-Serif" font-size="10.00">dnf_composer::HeatmapParameters</text>
<text text-anchor="start" x="18" y="-141.5" font-family="Helvetica,sans-Serif" font-size="10.00">+</text>
<text text-anchor="start" x="45" y="-141.5" font-family="Helvetica,sans-Serif" font-size="10.00">autoDimensions</text>
<text text-anchor="start" x="18" y="-126.5" font-family="Helvetica,sans-Serif" font-size="10.00">+</text>
<text text-anchor="start" x="45" y="-126.5" font-family="Helvetica,sans-Serif" font-size="10.00">autoScale</text>
<text text-anchor="start" x="18" y="-111.5" font-family="Helvetica,sans-Serif" font-size="10.00">+</text>
<text text-anchor="start" x="45" y="-111.5" font-family="Helvetica,sans-Serif" font-size="10.00">hintCols</text>
<text text-anchor="start" x="18" y="-96.5" font-family="Helvetica,sans-Serif" font-size="10.00">+</text>
<text text-anchor="start" x="45" y="-96.5" font-family="Helvetica,sans-Serif" font-size="10.00">hintRows</text>
<text text-anchor="start" x="18" y="-81.5" font-family="Helvetica,sans-Serif" font-size="10.00">+</text>
<text text-anchor="start" x="45" y="-81.5" font-family="Helvetica,sans-Serif" font-size="10.00">scaleMax</text>
<text text-anchor="start" x="18" y="-66.5" font-family="Helvetica,sans-Serif" font-size="10.00">+</text>
<text text-anchor="start" x="45" y="-66.5" font-family="Helvetica,sans-Serif" font-size="10.00">scaleMin</text>
<text text-anchor="start" x="18" y="-51.5" font-family="Helvetica,sans-Serif" font-size="10.00">+</text>
<text text-anchor="start" x="45" y="-51.5" font-family="Helvetica,sans-Serif" font-size="10.00">HeatmapParameters()</text>
<text text-anchor="start" x="18" y="-36.5" font-family="Helvetica,sans-Serif" font-size="10.00">+</text>
<text text-anchor="start" x="45" y="-36.5" font-family="Helvetica,sans-Serif" font-size="10.00">HeatmapParameters()</text>
<text text-anchor="start" x="18" y="-21.5" font-family="Helvetica,sans-Serif" font-size="10.00">+</text>
<text text-anchor="start" x="45" y="-21.5" font-family="Helvetica,sans-Serif" font-size="10.00">operator==()</text>
<text text-anchor="start" x="18" y="-6.5" font-family="Helvetica,sans-Serif" font-size="10.00">+</text>
<text text-anchor="start" x="45" y="-6.5" font-family="Helvetica,sans-Serif" font-size="10.00">toString()</text>
<polygon fill="#666666" stroke="#666666" points="0,-151.5 0,-151.5 186,-151.5 186,-151.5 0,-151.5"/>
<polygon fill="#666666" stroke="#666666" points="0,-61.5 0,-61.5 43,-61.5 43,-61.5 0,-61.5"/>
<polygon fill="#666666" stroke="#666666" points="43,-61.5 43,-61.5 186,-61.5 186,-61.5 43,-61.5"/>
<polygon fill="none" stroke="#666666" points="0,0 0,-169 186,-169 186,0 0,0"/>
</a>
</g>
</g>
<!-- Node1&#45;&gt;Node2 -->
<g id="edge1_Node000001_Node000002" class="edge">
<title>Node1&#45;&gt;Node2</title>
<g id="a_edge1_Node000001_Node000002"><a xlink:title=" ">
<path fill="none" stroke="#63b8ff" d="M160.57,-195.98C155.31,-187.38 149.75,-178.28 144.17,-169.16"/>
<polygon fill="none" stroke="#63b8ff" points="157.74,-198.05 165.94,-204.75 163.71,-194.4 157.74,-198.05"/>
</a>
</g>
</g>
<!-- Node3 -->
<g id="Node000003" class="node">
<title>Node3</title>
<g id="a_Node000003"><a xlink:href="structdnf__composer_1_1LinePlotParameters.html" target="_top" xlink:title=" ">
<polygon fill="white" stroke="transparent" points="384,-139 204,-139 204,-30 384,-30 384,-139"/>
<text text-anchor="start" x="209" y="-126.5" font-family="Helvetica,sans-Serif" font-size="10.00">dnf_composer::LinePlotParameters</text>
<text text-anchor="start" x="222" y="-111.5" font-family="Helvetica,sans-Serif" font-size="10.00">+</text>
<text text-anchor="start" x="249" y="-111.5" font-family="Helvetica,sans-Serif" font-size="10.00">autoFit</text>
<text text-anchor="start" x="222" y="-96.5" font-family="Helvetica,sans-Serif" font-size="10.00">+</text>
<text text-anchor="start" x="249" y="-96.5" font-family="Helvetica,sans-Serif" font-size="10.00">lineThickness</text>
<text text-anchor="start" x="222" y="-81.5" font-family="Helvetica,sans-Serif" font-size="10.00">+</text>
<text text-anchor="start" x="249" y="-81.5" font-family="Helvetica,sans-Serif" font-size="10.00">LinePlotParameters()</text>
<text text-anchor="start" x="222" y="-66.5" font-family="Helvetica,sans-Serif" font-size="10.00">+</text>
<text text-anchor="start" x="249" y="-66.5" font-family="Helvetica,sans-Serif" font-size="10.00">LinePlotParameters()</text>
<text text-anchor="start" x="222" y="-51.5" font-family="Helvetica,sans-Serif" font-size="10.00">+</text>
<text text-anchor="start" x="249" y="-51.5" font-family="Helvetica,sans-Serif" font-size="10.00">operator==()</text>
<text text-anchor="start" x="222" y="-36.5" font-family="Helvetica,sans-Serif" font-size="10.00">+</text>
<text text-anchor="start" x="249" y="-36.5" font-family="Helvetica,sans-Serif" font-size="10.00">toString()</text>
<polygon fill="#666666" stroke="#666666" points="204,-121.5 204,-121.5 384,-121.5 384,-121.5 204,-121.5"/>
<polygon fill="#666666" stroke="#666666" points="204,-91.5 204,-91.5 247,-91.5 247,-91.5 204,-91.5"/>
<polygon fill="#666666" stroke="#666666" points="247,-91.5 247,-91.5 384,-91.5 384,-91.5 247,-91.5"/>
<polygon fill="none" stroke="#666666" points="204,-30 204,-139 384,-139 384,-30 204,-30"/>
</a>
</g>
</g>
<!-- Node1&#45;&gt;Node3 -->
<g id="edge2_Node000001_Node000003" class="edge">
<title>Node1&#45;&gt;Node3</title>
<g id="a_edge2_Node000001_Node000003"><a xlink:title=" ">
<path fill="none" stroke="#63b8ff" d="M225.74,-196C237,-177.78 249.6,-157.37 260.89,-139.1"/>
<polygon fill="none" stroke="#63b8ff" points="222.61,-194.41 220.33,-204.75 228.57,-198.09 222.61,-194.41"/>
</a>
</g>
</g>
</g>
</svg>
