<?xml version="1.0" encoding="UTF-8" standalone="no"?>
<!DOCTYPE svg PUBLIC "-//W3C//DTD SVG 1.1//EN"
 "http://www.w3.org/Graphics/SVG/1.1/DTD/svg11.dtd">
<!-- Generated by graphviz version 2.43.0 (0)
 -->
<!-- Title: dnf_composer::element::ElementSpecificParameters Pages: 1 -->
<svg width="2181pt" height="389pt"
 viewBox="0.00 0.00 2180.50 389.00" xmlns="http://www.w3.org/2000/svg" xmlns:xlink="http://www.w3.org/1999/xlink">
<g id="graph0" class="graph" transform="scale(1 1) rotate(0) translate(4 385)">
<title>dnf_composer::element::ElementSpecificParameters</title>
<!-- Node1 -->
<g id="Node000001" class="node">
<title>Node1</title>
<g id="a_Node000001"><a xlink:title="Abstract base for all element&#45;specific parameter structs.">
<polygon fill="#999999" stroke="transparent" points="1308,-381 1137,-381 1137,-276 1308,-276 1308,-381"/>
<text text-anchor="start" x="1153" y="-368.5" font-family="Helvetica,sans-Serif" font-size="10.00">dnf_composer::element</text>
<text text-anchor="start" x="1153" y="-357.5" font-family="Helvetica,sans-Serif" font-size="10.00">::ElementSpecificParameters</text>
<text text-anchor="start" x="1221" y="-342.5" font-family="Helvetica,sans-Serif" font-size="10.00"> </text>
<text text-anchor="start" x="1141.5" y="-327.5" font-family="Helvetica,sans-Serif" font-size="10.00">+</text>
<text text-anchor="start" x="1154.5" y="-327.5" font-family="Helvetica,sans-Serif" font-size="10.00">ElementSpecificParameters()</text>
<text text-anchor="start" x="1141.5" y="-312.5" font-family="Helvetica,sans-Serif" font-size="10.00">+</text>
<text text-anchor="start" x="1154.5" y="-312.5" font-family="Helvetica,sans-Serif" font-size="10.00">print()</text>
<text text-anchor="start" x="1141.5" y="-297.5" font-family="Helvetica,sans-Serif" font-size="10.00">+</text>
<text text-anchor="start" x="1154.5" y="-297.5" font-family="Helvetica,sans-Serif" font-size="10.00">toString()</text>
<text text-anchor="start" x="1141.5" y="-282.5" font-family="Helvetica,sans-Serif" font-size="10.00">+</text>
<text text-anchor="start" x="1154.5" y="-282.5" font-family="Helvetica,sans-Serif" font-size="10.00">~ElementSpecificParameters()</text>
<polygon fill="#666666" stroke="#666666" points="1137.5,-352.5 1137.5,-352.5 1308.5,-352.5 1308.5,-352.5 1137.5,-352.5"/>
<polygon fill="#666666" stroke="#666666" points="1137.5,-337.5 1137.5,-337.5 1308.5,-337.5 1308.5,-337.5 1137.5,-337.5"/>
<polygon fill="none" stroke="#666666" points="1137,-276 1137,-381 1308,-381 1308,-276 1137,-276"/>
</a>
</g>
</g>
<!-- Node2 -->
<g id="Node000002" class="node">
<title>Node2</title>
<g id="a_Node000002"><a xlink:href="structdnf__composer_1_1element_1_1AsymmetricGaussKernelParameters.html" target="_top" xlink:title="Parameters for an asymmetric (shifted) Gaussian convolution kernel.">
<polygon fill="white" stroke="transparent" points="205,-210 0,-210 0,-30 205,-30 205,-210"/>
<text text-anchor="start" x="12" y="-198" font-family="Helvetica,sans-Serif" font-size="10.00">dnf_composer::element</text>
<text text-anchor="start" x="12" y="-187" font-family="Helvetica,sans-Serif" font-size="10.00">::AsymmetricGaussKernelParameters</text>
<text text-anchor="start" x="4.5" y="-172" font-family="Helvetica,sans-Serif" font-size="10.00">+</text>
<text text-anchor="start" x="17.5" y="-172" font-family="Helvetica,sans-Serif" font-size="10.00">amplitude</text>
<text text-anchor="start" x="4.5" y="-157" font-family="Helvetica,sans-Serif" font-size="10.00">+</text>
<text text-anchor="start" x="17.5" y="-157" font-family="Helvetica,sans-Serif" font-size="10.00">amplitudeGlobal</text>
<text text-anchor="start" x="4.5" y="-142" font-family="Helvetica,sans-Serif" font-size="10.00">+</text>
<text text-anchor="start" x="17.5" y="-142" font-family="Helvetica,sans-Serif" font-size="10.00">circular</text>
<text text-anchor="start" x="4.5" y="-127" font-family="Helvetica,sans-Serif" font-size="10.00">+</text>
<text text-anchor="start" x="17.5" y="-127" font-family="Helvetica,sans-Serif" font-size="10.00">normalized</text>
<text text-anchor="start" x="4.5" y="-112" font-family="Helvetica,sans-Serif" font-size="10.00">+</text>
<text text-anchor="start" x="17.5" y="-112" font-family="Helvetica,sans-Serif" font-size="10.00">outputFieldDimensions</text>
<text text-anchor="start" x="4.5" y="-97" font-family="Helvetica,sans-Serif" font-size="10.00">+</text>
<text text-anchor="start" x="17.5" y="-97" font-family="Helvetica,sans-Serif" font-size="10.00">timeShift</text>
<text text-anchor="start" x="4.5" y="-82" font-family="Helvetica,sans-Serif" font-size="10.00">+</text>
<text text-anchor="start" x="17.5" y="-82" font-family="Helvetica,sans-Serif" font-size="10.00">width</text>
<text text-anchor="start" x="4.5" y="-67" font-family="Helvetica,sans-Serif" font-size="10.00">+</text>
<text text-anchor="start" x="17.5" y="-67" font-family="Helvetica,sans-Serif" font-size="10.00">AsymmetricGaussKernelParameters()</text>
<text text-anchor="start" x="4.5" y="-52" font-family="Helvetica,sans-Serif" font-size="10.00">+</text>
<text text-anchor="start" x="17.5" y="-52" font-family="Helvetica,sans-Serif" font-size="10.00">operator==()</text>
<text text-anchor="start" x="4.5" y="-37" font-family="Helvetica,sans-Serif" font-size="10.00">+</text>
<text text-anchor="start" x="17.5" y="-37" font-family="Helvetica,sans-Serif" font-size="10.00">toString()</text>
<polygon fill="#666666" stroke="#666666" points="0.5,-182 0.5,-182 205.5,-182 205.5,-182 0.5,-182"/>
<polygon fill="#666666" stroke="#666666" points="0.5,-77 0.5,-77 15.5,-77 15.5,-77 0.5,-77"/>
<polygon fill="#666666" stroke="#666666" points="15.5,-77 15.5,-77 205.5,-77 205.5,-77 15.5,-77"/>
<polygon fill="none" stroke="#666666" points="0,-30 0,-210 205,-210 205,-30 0,-30"/>
</a>
</g>
</g>
<!-- Node1&#45;&gt;Node2 -->
<g id="edge1_Node000001_Node000002" class="edge">
<title>Node1&#45;&gt;Node2</title>
<g id="a_edge1_Node000001_Node000002"><a xlink:title=" ">
<path fill="none" stroke="#63b8ff" d="M1126.6,-327.84C906.69,-327.25 372.8,-317.61 213.5,-240 198.13,-232.51 183.83,-221.92 170.95,-210.11"/>
<polygon fill="none" stroke="#63b8ff" points="1126.82,-331.34 1136.83,-327.86 1126.84,-324.34 1126.82,-331.34"/>
</a>
</g>
</g>
<!-- Node3 -->
<g id="Node000003" class="node">
<title>Node3</title>
<g id="a_Node000003"><a xlink:href="structdnf__composer_1_1element_1_1BoostStimulusParameters.html" target="_top" xlink:title="Parameters for a spatially homogeneous boost stimulus.">
<polygon fill="white" stroke="transparent" points="378,-172.5 223,-172.5 223,-67.5 378,-67.5 378,-172.5"/>
<text text-anchor="start" x="234.5" y="-160" font-family="Helvetica,sans-Serif" font-size="10.00">dnf_composer::element</text>
<text text-anchor="start" x="234.5" y="-149" font-family="Helvetica,sans-Serif" font-size="10.00">::BoostStimulusParameters</text>
<text text-anchor="start" x="227.5" y="-134" font-family="Helvetica,sans-Serif" font-size="10.00">+</text>
<text text-anchor="start" x="240.5" y="-134" font-family="Helvetica,sans-Serif" font-size="10.00">amplitude</text>
<text text-anchor="start" x="227.5" y="-119" font-family="Helvetica,sans-Serif" font-size="10.00">+</text>
<text text-anchor="start" x="240.5" y="-119" font-family="Helvetica,sans-Serif" font-size="10.00">isActive</text>
<text text-anchor="start" x="227.5" y="-104" font-family="Helvetica,sans-Serif" font-size="10.00">+</text>
<text text-anchor="start" x="240.5" y="-104" font-family="Helvetica,sans-Serif" font-size="10.00">BoostStimulusParameters()</text>
<text text-anchor="start" x="227.5" y="-89" font-family="Helvetica,sans-Serif" font-size="10.00">+</text>
<text text-anchor="start" x="240.5" y="-89" font-family="Helvetica,sans-Serif" font-size="10.00">operator==()</text>
<text text-anchor="start" x="227.5" y="-74" font-family="Helvetica,sans-Serif" font-size="10.00">+</text>
<text text-anchor="start" x="240.5" y="-74" font-family="Helvetica,sans-Serif" font-size="10.00">toString()</text>
<polygon fill="#666666" stroke="#666666" points="223.5,-144 223.5,-144 378.5,-144 378.5,-144 223.5,-144"/>
<polygon fill="#666666" stroke="#666666" points="223.5,-114 223.5,-114 238.5,-114 238.5,-114 223.5,-114"/>
<polygon fill="#666666" stroke="#666666" points="238.5,-114 238.5,-114 378.5,-114 378.5,-114 238.5,-114"/>
<polygon fill="none" stroke="#666666" points="223,-67.5 223,-172.5 378,-172.5 378,-67.5 223,-67.5"/>
</a>
</g>
</g>
<!-- Node1&#45;&gt;Node3 -->
<g id="edge2_Node000001_Node000003" class="edge">
<title>Node1&#45;&gt;Node3</title>
<g id="a_edge2_Node000001_Node000003"><a xlink:title=" ">
<path fill="none" stroke="#63b8ff" d="M1126.64,-327.14C934.54,-324.87 510.27,-311.63 386.5,-240 359.92,-224.61 339.3,-197.35 324.93,-172.79"/>
<polygon fill="none" stroke="#63b8ff" points="1126.68,-330.64 1136.72,-327.25 1126.76,-323.64 1126.68,-330.64"/>
</a>
</g>
</g>
<!-- Node4 -->
<g id="Node000004" class="node">
<title>Node4</title>
<g id="a_Node000004"><a xlink:href="structdnf__composer_1_1element_1_1CorrelatedNormalNoiseParameters.html" target="_top" xlink:title="Parameters for a spatially correlated Gaussian noise source.">
<polygon fill="white" stroke="transparent" points="595,-180 396,-180 396,-60 595,-60 595,-180"/>
<text text-anchor="start" x="407.5" y="-168" font-family="Helvetica,sans-Serif" font-size="10.00">dnf_composer::element</text>
<text text-anchor="start" x="407.5" y="-157" font-family="Helvetica,sans-Serif" font-size="10.00">::CorrelatedNormalNoiseParameters</text>
<text text-anchor="start" x="400.5" y="-142" font-family="Helvetica,sans-Serif" font-size="10.00">+</text>
<text text-anchor="start" x="413.5" y="-142" font-family="Helvetica,sans-Serif" font-size="10.00">amplitude</text>
<text text-anchor="start" x="400.5" y="-127" font-family="Helvetica,sans-Serif" font-size="10.00">+</text>
<text text-anchor="start" x="413.5" y="-127" font-family="Helvetica,sans-Serif" font-size="10.00">circular</text>
<text text-anchor="start" x="400.5" y="-112" font-family="Helvetica,sans-Serif" font-size="10.00">+</text>
<text text-anchor="start" x="413.5" y="-112" font-family="Helvetica,sans-Serif" font-size="10.00">width</text>
<text text-anchor="start" x="400.5" y="-97" font-family="Helvetica,sans-Serif" font-size="10.00">+</text>
<text text-anchor="start" x="413.5" y="-97" font-family="Helvetica,sans-Serif" font-size="10.00">CorrelatedNormalNoiseParameters()</text>
<text text-anchor="start" x="400.5" y="-82" font-family="Helvetica,sans-Serif" font-size="10.00">+</text>
<text text-anchor="start" x="413.5" y="-82" font-family="Helvetica,sans-Serif" font-size="10.00">operator==()</text>
<text text-anchor="start" x="400.5" y="-67" font-family="Helvetica,sans-Serif" font-size="10.00">+</text>
<text text-anchor="start" x="413.5" y="-67" font-family="Helvetica,sans-Serif" font-size="10.00">toString()</text>
<polygon fill="#666666" stroke="#666666" points="396.5,-152 396.5,-152 595.5,-152 595.5,-152 396.5,-152"/>
<polygon fill="#666666" stroke="#666666" points="396.5,-107 396.5,-107 411.5,-107 411.5,-107 396.5,-107"/>
<polygon fill="#666666" stroke="#666666" points="411.5,-107 411.5,-107 595.5,-107 595.5,-107 411.5,-107"/>
<polygon fill="none" stroke="#666666" points="396,-60 396,-180 595,-180 595,-60 396,-60"/>
</a>
</g>
</g>
<!-- Node1&#45;&gt;Node4 -->
<g id="edge3_Node000001_Node000004" class="edge">
<title>Node1&#45;&gt;Node4</title>
<g id="a_edge3_Node000001_Node000004"><a xlink:title=" ">
<path fill="none" stroke="#63b8ff" d="M1126.84,-321.91C976.34,-311.79 692.27,-287.02 603.5,-240 576.87,-225.9 553.49,-202.51 535.35,-180.19"/>
<polygon fill="none" stroke="#63b8ff" points="1126.79,-325.41 1137,-322.58 1127.25,-318.43 1126.79,-325.41"/>
</a>
</g>
</g>
<!-- Node5 -->
<g id="Node000005" class="node">
<title>Node5</title>
<g id="a_Node000005"><a xlink:href="structdnf__composer_1_1element_1_1FieldCouplingParameters.html" target="_top" xlink:title="Parameters for a learned full&#45;matrix field coupling.">
<polygon fill="white" stroke="transparent" points="764,-195 613,-195 613,-45 764,-45 764,-195"/>
<text text-anchor="start" x="625" y="-183" font-family="Helvetica,sans-Serif" font-size="10.00">dnf_composer::element</text>
<text text-anchor="start" x="625" y="-172" font-family="Helvetica,sans-Serif" font-size="10.00">::FieldCouplingParameters</text>
<text text-anchor="start" x="617.5" y="-157" font-family="Helvetica,sans-Serif" font-size="10.00">+</text>
<text text-anchor="start" x="630.5" y="-157" font-family="Helvetica,sans-Serif" font-size="10.00">inputFieldDimensions</text>
<text text-anchor="start" x="617.5" y="-142" font-family="Helvetica,sans-Serif" font-size="10.00">+</text>
<text text-anchor="start" x="630.5" y="-142" font-family="Helvetica,sans-Serif" font-size="10.00">isLearningActive</text>
<text text-anchor="start" x="617.5" y="-127" font-family="Helvetica,sans-Serif" font-size="10.00">+</text>
<text text-anchor="start" x="630.5" y="-127" font-family="Helvetica,sans-Serif" font-size="10.00">learningRate</text>
<text text-anchor="start" x="617.5" y="-112" font-family="Helvetica,sans-Serif" font-size="10.00">+</text>
<text text-anchor="start" x="630.5" y="-112" font-family="Helvetica,sans-Serif" font-size="10.00">learningRule</text>
<text text-anchor="start" x="617.5" y="-97" font-family="Helvetica,sans-Serif" font-size="10.00">+</text>
<text text-anchor="start" x="630.5" y="-97" font-family="Helvetica,sans-Serif" font-size="10.00">scalar</text>
<text text-anchor="start" x="617.5" y="-82" font-family="Helvetica,sans-Serif" font-size="10.00">+</text>
<text text-anchor="start" x="630.5" y="-82" font-family="Helvetica,sans-Serif" font-size="10.00">FieldCouplingParameters()</text>
<text text-anchor="start" x="617.5" y="-67" font-family="Helvetica,sans-Serif" font-size="10.00">+</text>
<text text-anchor="start" x="630.5" y="-67" font-family="Helvetica,sans-Serif" font-size="10.00">operator==()</text>
<text text-anchor="start" x="617.5" y="-52" font-family="Helvetica,sans-Serif" font-size="10.00">+</text>
<text text-anchor="start" x="630.5" y="-52" font-family="Helvetica,sans-Serif" font-size="10.00">toString()</text>
<polygon fill="#666666" stroke="#666666" points="613.5,-167 613.5,-167 764.5,-167 764.5,-167 613.5,-167"/>
<polygon fill="#666666" stroke="#666666" points="613.5,-92 613.5,-92 628.5,-92 628.5,-92 613.5,-92"/>
<polygon fill="#666666" stroke="#666666" points="628.5,-92 628.5,-92 764.5,-92 764.5,-92 628.5,-92"/>
<polygon fill="none" stroke="#666666" points="613,-45 613,-195 764,-195 764,-45 613,-45"/>
</a>
</g>
</g>
<!-- Node1&#45;&gt;Node5 -->
<g id="edge4_Node000001_Node000005" class="edge">
<title>Node1&#45;&gt;Node5</title>
<g id="a_edge4_Node000001_Node000005"><a xlink:title=" ">
<path fill="none" stroke="#63b8ff" d="M1126.66,-317.32C1012.44,-303.76 829.83,-277.08 772.5,-240 754.98,-228.67 740.03,-212.28 727.81,-195.28"/>
<polygon fill="none" stroke="#63b8ff" points="1126.46,-320.83 1136.8,-318.52 1127.28,-313.87 1126.46,-320.83"/>
</a>
</g>
</g>
<!-- Node6 -->
<g id="Node000006" class="node">
<title>Node6</title>
<g id="a_Node000006"><a xlink:href="structdnf__composer_1_1element_1_1GaussFieldCouplingParameters.html" target="_top" xlink:title="Parameters for a sparse Gaussian field coupling (fixed projection).">
<polygon fill="white" stroke="transparent" points="963,-187.5 782,-187.5 782,-52.5 963,-52.5 963,-187.5"/>
<text text-anchor="start" x="794" y="-175" font-family="Helvetica,sans-Serif" font-size="10.00">dnf_composer::element</text>
<text text-anchor="start" x="794" y="-164" font-family="Helvetica,sans-Serif" font-size="10.00">::GaussFieldCouplingParameters</text>
<text text-anchor="start" x="786.5" y="-149" font-family="Helvetica,sans-Serif" font-size="10.00">+</text>
<text text-anchor="start" x="799.5" y="-149" font-family="Helvetica,sans-Serif" font-size="10.00">circular</text>
<text text-anchor="start" x="786.5" y="-134" font-family="Helvetica,sans-Serif" font-size="10.00">+</text>
<text text-anchor="start" x="799.5" y="-134" font-family="Helvetica,sans-Serif" font-size="10.00">couplings</text>
<text text-anchor="start" x="786.5" y="-119" font-family="Helvetica,sans-Serif" font-size="10.00">+</text>
<text text-anchor="start" x="799.5" y="-119" font-family="Helvetica,sans-Serif" font-size="10.00">inputFieldDimensions</text>
<text text-anchor="start" x="786.5" y="-104" font-family="Helvetica,sans-Serif" font-size="10.00">+</text>
<text text-anchor="start" x="799.5" y="-104" font-family="Helvetica,sans-Serif" font-size="10.00">normalized</text>
<text text-anchor="start" x="786.5" y="-89" font-family="Helvetica,sans-Serif" font-size="10.00">+</text>
<text text-anchor="start" x="799.5" y="-89" font-family="Helvetica,sans-Serif" font-size="10.00">addCoupling()</text>
<text text-anchor="start" x="786.5" y="-74" font-family="Helvetica,sans-Serif" font-size="10.00">+</text>
<text text-anchor="start" x="799.5" y="-74" font-family="Helvetica,sans-Serif" font-size="10.00">GaussFieldCouplingParameters()</text>
<text text-anchor="start" x="786.5" y="-59" font-family="Helvetica,sans-Serif" font-size="10.00">+</text>
<text text-anchor="start" x="799.5" y="-59" font-family="Helvetica,sans-Serif" font-size="10.00">toString()</text>
<polygon fill="#666666" stroke="#666666" points="782.5,-159 782.5,-159 963.5,-159 963.5,-159 782.5,-159"/>
<polygon fill="#666666" stroke="#666666" points="782.5,-99 782.5,-99 797.5,-99 797.5,-99 782.5,-99"/>
<polygon fill="#666666" stroke="#666666" points="797.5,-99 797.5,-99 963.5,-99 963.5,-99 797.5,-99"/>
<polygon fill="none" stroke="#666666" points="782,-52.5 782,-187.5 963,-187.5 963,-52.5 782,-52.5"/>
</a>
</g>
</g>
<!-- Node1&#45;&gt;Node6 -->
<g id="edge5_Node000001_Node000006" class="edge">
<title>Node1&#45;&gt;Node6</title>
<g id="a_edge5_Node000001_Node000006"><a xlink:title=" ">
<path fill="none" stroke="#63b8ff" d="M1127.2,-307.31C1077.73,-293.74 1018.08,-272.29 971.5,-240 951.18,-225.91 932.68,-206.58 917.31,-187.6"/>
<polygon fill="none" stroke="#63b8ff" points="1126.38,-310.72 1136.95,-309.92 1128.19,-303.95 1126.38,-310.72"/>
</a>
</g>
</g>
<!-- Node7 -->
<g id="Node000007" class="node">
<title>Node7</title>
<g id="a_Node000007"><a xlink:href="structdnf__composer_1_1element_1_1GaussKernelParameters.html" target="_top" xlink:title="Parameters for a Gaussian lateral interaction kernel.">
<polygon fill="white" stroke="transparent" points="1126,-225 981,-225 981,-15 1126,-15 1126,-225"/>
<text text-anchor="start" x="992.5" y="-213" font-family="Helvetica,sans-Serif" font-size="10.00">dnf_composer::element</text>
<text text-anchor="start" x="992.5" y="-202" font-family="Helvetica,sans-Serif" font-size="10.00">::GaussKernelParameters</text>
<text text-anchor="start" x="985.5" y="-187" font-family="Helvetica,sans-Serif" font-size="10.00">+</text>
<text text-anchor="start" x="998.5" y="-187" font-family="Helvetica,sans-Serif" font-size="10.00">amplitude</text>
<text text-anchor="start" x="985.5" y="-172" font-family="Helvetica,sans-Serif" font-size="10.00">+</text>
<text text-anchor="start" x="998.5" y="-172" font-family="Helvetica,sans-Serif" font-size="10.00">amplitudeGlobal</text>
<text text-anchor="start" x="985.5" y="-157" font-family="Helvetica,sans-Serif" font-size="10.00">+</text>
<text text-anchor="start" x="998.5" y="-157" font-family="Helvetica,sans-Serif" font-size="10.00">circular</text>
<text text-anchor="start" x="985.5" y="-142" font-family="Helvetica,sans-Serif" font-size="10.00">+</text>
<text text-anchor="start" x="998.5" y="-142" font-family="Helvetica,sans-Serif" font-size="10.00">normalized</text>
<text text-anchor="start" x="985.5" y="-127" font-family="Helvetica,sans-Serif" font-size="10.00">+</text>
<text text-anchor="start" x="998.5" y="-127" font-family="Helvetica,sans-Serif" font-size="10.00">outputFieldDimensions</text>
<text text-anchor="start" x="985.5" y="-112" font-family="Helvetica,sans-Serif" font-size="10.00">+</text>
<text text-anchor="start" x="998.5" y="-112" font-family="Helvetica,sans-Serif" font-size="10.00">width</text>
<text text-anchor="start" x="985.5" y="-97" font-family="Helvetica,sans-Serif" font-size="10.00">+</text>
<text text-anchor="start" x="998.5" y="-97" font-family="Helvetica,sans-Serif" font-size="10.00">GaussKernelParameters()</text>
<text text-anchor="start" x="985.5" y="-82" font-family="Helvetica,sans-Serif" font-size="10.00">+</text>
<text text-anchor="start" x="998.5" y="-82" font-family="Helvetica,sans-Serif" font-size="10.00">GaussKernelParameters()</text>
<text text-anchor="start" x="985.5" y="-67" font-family="Helvetica,sans-Serif" font-size="10.00">+</text>
<text text-anchor="start" x="998.5" y="-67" font-family="Helvetica,sans-Serif" font-size="10.00">operator==()</text>
<text text-anchor="start" x="985.5" y="-52" font-family="Helvetica,sans-Serif" font-size="10.00">+</text>
<text text-anchor="start" x="998.5" y="-52" font-family="Helvetica,sans-Serif" font-size="10.00">operator==()</text>
<text text-anchor="start" x="985.5" y="-37" font-family="Helvetica,sans-Serif" font-size="10.00">+</text>
<text text-anchor="start" x="998.5" y="-37" font-family="Helvetica,sans-Serif" font-size="10.00">toString()</text>
<text text-anchor="start" x="985.5" y="-22" font-family="Helvetica,sans-Serif" font-size="10.00">+</text>
<text text-anchor="start" x="998.5" y="-22" font-family="Helvetica,sans-Serif" font-size="10.00">toString()</text>
<polygon fill="#666666" stroke="#666666" points="981.5,-197 981.5,-197 1126.5,-197 1126.5,-197 981.5,-197"/>
<polygon fill="#666666" stroke="#666666" points="981.5,-107 981.5,-107 996.5,-107 996.5,-107 981.5,-107"/>
<polygon fill="#666666" stroke="#666666" points="996.5,-107 996.5,-107 1126.5,-107 1126.5,-107 996.5,-107"/>
<polygon fill="none" stroke="#666666" points="981,-15 981,-225 1126,-225 1126,-15 981,-15"/>
</a>
</g>
</g>
<!-- Node1&#45;&gt;Node7 -->
<g id="edge6_Node000001_Node000007" class="edge">
<title>Node1&#45;&gt;Node7</title>
<g id="a_edge6_Node000001_Node000007"><a xlink:title=" ">
<path fill="none" stroke="#63b8ff" d="M1151.25,-268.5C1142.24,-259.23 1133.43,-249.55 1125.5,-240 1121.51,-235.19 1117.52,-230.19 1113.59,-225.08"/>
<polygon fill="none" stroke="#63b8ff" points="1148.98,-271.18 1158.5,-275.84 1153.96,-266.26 1148.98,-271.18"/>
</a>
</g>
</g>
<!-- Node1&#45;&gt;Node7 -->
<g id="edge7_Node000001_Node000007" class="edge">
<title>Node1&#45;&gt;Node7</title>
<g id="a_edge7_Node000001_Node000007"><a xlink:title=" ">
<path fill="none" stroke="#63b8ff" d="M1169.04,-268.5C1160.24,-259.23 1151.43,-249.55 1143.5,-240 1137.67,-232.98 1131.86,-225.55 1126.15,-217.95"/>
<polygon fill="none" stroke="#63b8ff" points="1166.63,-271.04 1176.08,-275.84 1171.68,-266.2 1166.63,-271.04"/>
</a>
</g>
</g>
<!-- Node8 -->
<g id="Node000008" class="node">
<title>Node8</title>
<g id="a_Node000008"><a xlink:href="structdnf__composer_1_1element_1_1GaussStimulusParameters.html" target="_top" xlink:title="Parameters for a Gaussian&#45;shaped external stimulus.">
<polygon fill="white" stroke="transparent" points="1301,-217.5 1144,-217.5 1144,-22.5 1301,-22.5 1301,-217.5"/>
<text text-anchor="start" x="1155.5" y="-205" font-family="Helvetica,sans-Serif" font-size="10.00">dnf_composer::element</text>
<text text-anchor="start" x="1155.5" y="-194" font-family="Helvetica,sans-Serif" font-size="10.00">::GaussStimulusParameters</text>
<text text-anchor="start" x="1148.5" y="-179" font-family="Helvetica,sans-Serif" font-size="10.00">+</text>
<text text-anchor="start" x="1161.5" y="-179" font-family="Helvetica,sans-Serif" font-size="10.00">amplitude</text>
<text text-anchor="start" x="1148.5" y="-164" font-family="Helvetica,sans-Serif" font-size="10.00">+</text>
<text text-anchor="start" x="1161.5" y="-164" font-family="Helvetica,sans-Serif" font-size="10.00">circular</text>
<text text-anchor="start" x="1148.5" y="-149" font-family="Helvetica,sans-Serif" font-size="10.00">+</text>
<text text-anchor="start" x="1161.5" y="-149" font-family="Helvetica,sans-Serif" font-size="10.00">normalized</text>
<text text-anchor="start" x="1148.5" y="-134" font-family="Helvetica,sans-Serif" font-size="10.00">+</text>
<text text-anchor="start" x="1161.5" y="-134" font-family="Helvetica,sans-Serif" font-size="10.00">position</text>
<text text-anchor="start" x="1148.5" y="-119" font-family="Helvetica,sans-Serif" font-size="10.00">+</text>
<text text-anchor="start" x="1161.5" y="-119" font-family="Helvetica,sans-Serif" font-size="10.00">width</text>
<text text-anchor="start" x="1148.5" y="-104" font-family="Helvetica,sans-Serif" font-size="10.00">+</text>
<text text-anchor="start" x="1161.5" y="-104" font-family="Helvetica,sans-Serif" font-size="10.00">GaussStimulusParameters()</text>
<text text-anchor="start" x="1148.5" y="-89" font-family="Helvetica,sans-Serif" font-size="10.00">+</text>
<text text-anchor="start" x="1161.5" y="-89" font-family="Helvetica,sans-Serif" font-size="10.00">GaussStimulusParameters()</text>
<text text-anchor="start" x="1148.5" y="-74" font-family="Helvetica,sans-Serif" font-size="10.00">+</text>
<text text-anchor="start" x="1161.5" y="-74" font-family="Helvetica,sans-Serif" font-size="10.00">operator==()</text>
<text text-anchor="start" x="1148.5" y="-59" font-family="Helvetica,sans-Serif" font-size="10.00">+</text>
<text text-anchor="start" x="1161.5" y="-59" font-family="Helvetica,sans-Serif" font-size="10.00">operator==()</text>
<text text-anchor="start" x="1148.5" y="-44" font-family="Helvetica,sans-Serif" font-size="10.00">+</text>
<text text-anchor="start" x="1161.5" y="-44" font-family="Helvetica,sans-Serif" font-size="10.00">toString()</text>
<text text-anchor="start" x="1148.5" y="-29" font-family="Helvetica,sans-Serif" font-size="10.00">+</text>
<text text-anchor="start" x="1161.5" y="-29" font-family="Helvetica,sans-Serif" font-size="10.00">toString()</text>
<polygon fill="#666666" stroke="#666666" points="1144.5,-189 1144.5,-189 1301.5,-189 1301.5,-189 1144.5,-189"/>
<polygon fill="#666666" stroke="#666666" points="1144.5,-114 1144.5,-114 1159.5,-114 1159.5,-114 1144.5,-114"/>
<polygon fill="#666666" stroke="#666666" points="1159.5,-114 1159.5,-114 1301.5,-114 1301.5,-114 1159.5,-114"/>
<polygon fill="none" stroke="#666666" points="1144,-22.5 1144,-217.5 1301,-217.5 1301,-22.5 1144,-22.5"/>
</a>
</g>
</g>
<!-- Node1&#45;&gt;Node8 -->
<g id="edge8_Node000001_Node000008" class="edge">
<title>Node1&#45;&gt;Node8</title>
<g id="a_edge8_Node000001_Node000008"><a xlink:title=" ">
<path fill="none" stroke="#63b8ff" d="M1216.26,-265.71C1215.87,-250.6 1215.7,-234.08 1215.76,-217.76"/>
<polygon fill="none" stroke="#63b8ff" points="1212.77,-266.03 1216.57,-275.92 1219.76,-265.82 1212.77,-266.03"/>
</a>
</g>
</g>
<!-- Node1&#45;&gt;Node8 -->
<g id="edge9_Node000001_Node000008" class="edge">
<title>Node1&#45;&gt;Node8</title>
<g id="a_edge9_Node000001_Node000008"><a xlink:title=" ">
<path fill="none" stroke="#63b8ff" d="M1228.74,-265.71C1229.13,-250.6 1229.3,-234.08 1229.24,-217.76"/>
<polygon fill="none" stroke="#63b8ff" points="1225.24,-265.82 1228.43,-275.92 1232.23,-266.03 1225.24,-265.82"/>
</a>
</g>
</g>
<!-- Node9 -->
<g id="Node000009" class="node">
<title>Node9</title>
<g id="a_Node000009"><a xlink:href="structdnf__composer_1_1element_1_1MemoryTraceParameters.html" target="_top" xlink:title="Parameters governing MemoryTrace build&#45;up and decay dynamics.">
<polygon fill="white" stroke="transparent" points="1470,-180 1319,-180 1319,-60 1470,-60 1470,-180"/>
<text text-anchor="start" x="1331" y="-168" font-family="Helvetica,sans-Serif" font-size="10.00">dnf_composer::element</text>
<text text-anchor="start" x="1331" y="-157" font-family="Helvetica,sans-Serif" font-size="10.00">::MemoryTraceParameters</text>
<text text-anchor="start" x="1323.5" y="-142" font-family="Helvetica,sans-Serif" font-size="10.00">+</text>
<text text-anchor="start" x="1336.5" y="-142" font-family="Helvetica,sans-Serif" font-size="10.00">tauBuild</text>
<text text-anchor="start" x="1323.5" y="-127" font-family="Helvetica,sans-Serif" font-size="10.00">+</text>
<text text-anchor="start" x="1336.5" y="-127" font-family="Helvetica,sans-Serif" font-size="10.00">tauDecay</text>
<text text-anchor="start" x="1323.5" y="-112" font-family="Helvetica,sans-Serif" font-size="10.00">+</text>
<text text-anchor="start" x="1336.5" y="-112" font-family="Helvetica,sans-Serif" font-size="10.00">threshold</text>
<text text-anchor="start" x="1323.5" y="-97" font-family="Helvetica,sans-Serif" font-size="10.00">+</text>
<text text-anchor="start" x="1336.5" y="-97" font-family="Helvetica,sans-Serif" font-size="10.00">MemoryTraceParameters()</text>
<text text-anchor="start" x="1323.5" y="-82" font-family="Helvetica,sans-Serif" font-size="10.00">+</text>
<text text-anchor="start" x="1336.5" y="-82" font-family="Helvetica,sans-Serif" font-size="10.00">operator==()</text>
<text text-anchor="start" x="1323.5" y="-67" font-family="Helvetica,sans-Serif" font-size="10.00">+</text>
<text text-anchor="start" x="1336.5" y="-67" font-family="Helvetica,sans-Serif" font-size="10.00">toString()</text>
<polygon fill="#666666" stroke="#666666" points="1319.5,-152 1319.5,-152 1470.5,-152 1470.5,-152 1319.5,-152"/>
<polygon fill="#666666" stroke="#666666" points="1319.5,-107 1319.5,-107 1334.5,-107 1334.5,-107 1319.5,-107"/>
<polygon fill="#666666" stroke="#666666" points="1334.5,-107 1334.5,-107 1470.5,-107 1470.5,-107 1334.5,-107"/>
<polygon fill="none" stroke="#666666" points="1319,-60 1319,-180 1470,-180 1470,-60 1319,-60"/>
</a>
</g>
</g>
<!-- Node1&#45;&gt;Node9 -->
<g id="edge10_Node000001_Node000009" class="edge">
<title>Node1&#45;&gt;Node9</title>
<g id="a_edge10_Node000001_Node000009"><a xlink:title=" ">
<path fill="none" stroke="#63b8ff" d="M1284.71,-268.38C1293.63,-259.12 1302.49,-249.48 1310.5,-240 1326.33,-221.26 1342.22,-199.64 1355.86,-180.01"/>
<polygon fill="none" stroke="#63b8ff" points="1282.04,-266.11 1277.55,-275.71 1287.05,-271 1282.04,-266.11"/>
</a>
</g>
</g>
<!-- Node10 -->
<g id="Node000010" class="node">
<title>Node10</title>
<g id="a_Node000010"><a xlink:href="structdnf__composer_1_1element_1_1MexicanHatKernelParameters.html" target="_top" xlink:title="Parameters for a Mexican&#45;hat lateral interaction kernel.">
<polygon fill="white" stroke="transparent" points="1662.5,-240 1488.5,-240 1488.5,0 1662.5,0 1662.5,-240"/>
<text text-anchor="start" x="1500" y="-228" font-family="Helvetica,sans-Serif" font-size="10.00">dnf_composer::element</text>
<text text-anchor="start" x="1500" y="-217" font-family="Helvetica,sans-Serif" font-size="10.00">::MexicanHatKernelParameters</text>
<text text-anchor="start" x="1492.5" y="-202" font-family="Helvetica,sans-Serif" font-size="10.00">+</text>
<text text-anchor="start" x="1505.5" y="-202" font-family="Helvetica,sans-Serif" font-size="10.00">amplitudeExc</text>
<text text-anchor="start" x="1492.5" y="-187" font-family="Helvetica,sans-Serif" font-size="10.00">+</text>
<text text-anchor="start" x="1505.5" y="-187" font-family="Helvetica,sans-Serif" font-size="10.00">amplitudeGlobal</text>
<text text-anchor="start" x="1492.5" y="-172" font-family="Helvetica,sans-Serif" font-size="10.00">+</text>
<text text-anchor="start" x="1505.5" y="-172" font-family="Helvetica,sans-Serif" font-size="10.00">amplitudeInh</text>
<text text-anchor="start" x="1492.5" y="-157" font-family="Helvetica,sans-Serif" font-size="10.00">+</text>
<text text-anchor="start" x="1505.5" y="-157" font-family="Helvetica,sans-Serif" font-size="10.00">circular</text>
<text text-anchor="start" x="1492.5" y="-142" font-family="Helvetica,sans-Serif" font-size="10.00">+</text>
<text text-anchor="start" x="1505.5" y="-142" font-family="Helvetica,sans-Serif" font-size="10.00">normalized</text>
<text text-anchor="start" x="1492.5" y="-127" font-family="Helvetica,sans-Serif" font-size="10.00">+</text>
<text text-anchor="start" x="1505.5" y="-127" font-family="Helvetica,sans-Serif" font-size="10.00">outputFieldDimensions</text>
<text text-anchor="start" x="1492.5" y="-112" font-family="Helvetica,sans-Serif" font-size="10.00">+</text>
<text text-anchor="start" x="1505.5" y="-112" font-family="Helvetica,sans-Serif" font-size="10.00">widthExc</text>
<text text-anchor="start" x="1492.5" y="-97" font-family="Helvetica,sans-Serif" font-size="10.00">+</text>
<text text-anchor="start" x="1505.5" y="-97" font-family="Helvetica,sans-Serif" font-size="10.00">widthInh</text>
<text text-anchor="start" x="1492.5" y="-82" font-family="Helvetica,sans-Serif" font-size="10.00">+</text>
<text text-anchor="start" x="1505.5" y="-82" font-family="Helvetica,sans-Serif" font-size="10.00">MexicanHatKernelParameters()</text>
<text text-anchor="start" x="1492.5" y="-67" font-family="Helvetica,sans-Serif" font-size="10.00">+</text>
<text text-anchor="start" x="1505.5" y="-67" font-family="Helvetica,sans-Serif" font-size="10.00">MexicanHatKernelParameters()</text>
<text text-anchor="start" x="1492.5" y="-52" font-family="Helvetica,sans-Serif" font-size="10.00">+</text>
<text text-anchor="start" x="1505.5" y="-52" font-family="Helvetica,sans-Serif" font-size="10.00">operator==()</text>
<text text-anchor="start" x="1492.5" y="-37" font-family="Helvetica,sans-Serif" font-size="10.00">+</text>
<text text-anchor="start" x="1505.5" y="-37" font-family="Helvetica,sans-Serif" font-size="10.00">operator==()</text>
<text text-anchor="start" x="1492.5" y="-22" font-family="Helvetica,sans-Serif" font-size="10.00">+</text>
<text text-anchor="start" x="1505.5" y="-22" font-family="Helvetica,sans-Serif" font-size="10.00">toString()</text>
<text text-anchor="start" x="1492.5" y="-7" font-family="Helvetica,sans-Serif" font-size="10.00">+</text>
<text text-anchor="start" x="1505.5" y="-7" font-family="Helvetica,sans-Serif" font-size="10.00">toString()</text>
<polygon fill="#666666" stroke="#666666" points="1488.5,-212 1488.5,-212 1662.5,-212 1662.5,-212 1488.5,-212"/>
<polygon fill="#666666" stroke="#666666" points="1488.5,-92 1488.5,-92 1503.5,-92 1503.5,-92 1488.5,-92"/>
<polygon fill="#666666" stroke="#666666" points="1503.5,-92 1503.5,-92 1662.5,-92 1662.5,-92 1503.5,-92"/>
<polygon fill="none" stroke="#666666" points="1488.5,0 1488.5,-240 1662.5,-240 1662.5,0 1488.5,0"/>
</a>
</g>
</g>
<!-- Node1&#45;&gt;Node10 -->
<g id="edge11_Node000001_Node000010" class="edge">
<title>Node1&#45;&gt;Node10</title>
<g id="a_edge11_Node000001_Node000010"><a xlink:title=" ">
<path fill="none" stroke="#63b8ff" d="M1318.03,-306.45C1366.64,-292.98 1424.87,-271.89 1470.5,-240 1476.59,-235.74 1482.5,-230.99 1488.2,-225.91"/>
<polygon fill="none" stroke="#63b8ff" points="1316.87,-303.14 1308.13,-309.13 1318.7,-309.9 1316.87,-303.14"/>
</a>
</g>
</g>
<!-- Node1&#45;&gt;Node10 -->
<g id="edge12_Node000001_Node000010" class="edge">
<title>Node1&#45;&gt;Node10</title>
<g id="a_edge12_Node000001_Node000010"><a xlink:title=" ">
<path fill="none" stroke="#63b8ff" d="M1317.97,-310.62C1371.69,-297.49 1437.86,-275.4 1488.5,-240 1488.61,-239.92 1488.72,-239.85 1488.83,-239.77"/>
<polygon fill="none" stroke="#63b8ff" points="1317.01,-307.25 1308.09,-312.97 1318.63,-314.06 1317.01,-307.25"/>
</a>
</g>
</g>
<!-- Node11 -->
<g id="Node000011" class="node">
<title>Node11</title>
<g id="a_Node000011"><a xlink:href="structdnf__composer_1_1element_1_1NeuralFieldParameters.html" target="_top" xlink:title="Parameters that govern a NeuralField&#39;s dynamics.">
<polygon fill="white" stroke="transparent" points="1820.5,-202.5 1680.5,-202.5 1680.5,-37.5 1820.5,-37.5 1820.5,-202.5"/>
<text text-anchor="start" x="1691.5" y="-190" font-family="Helvetica,sans-Serif" font-size="10.00">dnf_composer::element</text>
<text text-anchor="start" x="1691.5" y="-179" font-family="Helvetica,sans-Serif" font-size="10.00">::NeuralFieldParameters</text>
<text text-anchor="start" x="1684.5" y="-164" font-family="Helvetica,sans-Serif" font-size="10.00">+</text>
<text text-anchor="start" x="1697.5" y="-164" font-family="Helvetica,sans-Serif" font-size="10.00">activationFunction</text>
<text text-anchor="start" x="1684.5" y="-149" font-family="Helvetica,sans-Serif" font-size="10.00">+</text>
<text text-anchor="start" x="1697.5" y="-149" font-family="Helvetica,sans-Serif" font-size="10.00">startingRestingLevel</text>
<text text-anchor="start" x="1684.5" y="-134" font-family="Helvetica,sans-Serif" font-size="10.00">+</text>
<text text-anchor="start" x="1697.5" y="-134" font-family="Helvetica,sans-Serif" font-size="10.00">tau</text>
<text text-anchor="start" x="1684.5" y="-119" font-family="Helvetica,sans-Serif" font-size="10.00">+</text>
<text text-anchor="start" x="1697.5" y="-119" font-family="Helvetica,sans-Serif" font-size="10.00">NeuralFieldParameters()</text>
<text text-anchor="start" x="1684.5" y="-104" font-family="Helvetica,sans-Serif" font-size="10.00">+</text>
<text text-anchor="start" x="1697.5" y="-104" font-family="Helvetica,sans-Serif" font-size="10.00">NeuralFieldParameters()</text>
<text text-anchor="start" x="1684.5" y="-89" font-family="Helvetica,sans-Serif" font-size="10.00">+</text>
<text text-anchor="start" x="1697.5" y="-89" font-family="Helvetica,sans-Serif" font-size="10.00">NeuralFieldParameters()</text>
<text text-anchor="start" x="1684.5" y="-74" font-family="Helvetica,sans-Serif" font-size="10.00">+</text>
<text text-anchor="start" x="1697.5" y="-74" font-family="Helvetica,sans-Serif" font-size="10.00">operator=()</text>
<text text-anchor="start" x="1684.5" y="-59" font-family="Helvetica,sans-Serif" font-size="10.00">+</text>
<text text-anchor="start" x="1697.5" y="-59" font-family="Helvetica,sans-Serif" font-size="10.00">operator==()</text>
<text text-anchor="start" x="1684.5" y="-44" font-family="Helvetica,sans-Serif" font-size="10.00">+</text>
<text text-anchor="start" x="1697.5" y="-44" font-family="Helvetica,sans-Serif" font-size="10.00">toString()</text>
<polygon fill="#666666" stroke="#666666" points="1680.5,-174 1680.5,-174 1820.5,-174 1820.5,-174 1680.5,-174"/>
<polygon fill="#666666" stroke="#666666" points="1680.5,-129 1680.5,-129 1695.5,-129 1695.5,-129 1680.5,-129"/>
<polygon fill="#666666" stroke="#666666" points="1695.5,-129 1695.5,-129 1820.5,-129 1820.5,-129 1695.5,-129"/>
<polygon fill="none" stroke="#666666" points="1680.5,-37.5 1680.5,-202.5 1820.5,-202.5 1820.5,-37.5 1680.5,-37.5"/>
</a>
</g>
</g>
<!-- Node1&#45;&gt;Node11 -->
<g id="edge13_Node000001_Node000011" class="edge">
<title>Node1&#45;&gt;Node11</title>
<g id="a_edge13_Node000001_Node000011"><a xlink:title=" ">
<path fill="none" stroke="#63b8ff" d="M1318.31,-317.57C1432.45,-304.25 1614.84,-277.83 1671.5,-240 1686.04,-230.29 1698.56,-216.91 1709.08,-202.61"/>
<polygon fill="none" stroke="#63b8ff" points="1317.7,-314.12 1308.16,-318.74 1318.5,-321.07 1317.7,-314.12"/>
</a>
</g>
</g>
<!-- Node12 -->
<g id="Node000012" class="node">
<title>Node12</title>
<g id="a_Node000012"><a xlink:href="structdnf__composer_1_1element_1_1NormalNoiseParameters.html" target="_top" xlink:title="Parameters for an additive normal&#45;noise input.">
<polygon fill="white" stroke="transparent" points="1986.5,-187.5 1838.5,-187.5 1838.5,-52.5 1986.5,-52.5 1986.5,-187.5"/>
<text text-anchor="start" x="1849.5" y="-175" font-family="Helvetica,sans-Serif" font-size="10.00">dnf_composer::element</text>
<text text-anchor="start" x="1849.5" y="-164" font-family="Helvetica,sans-Serif" font-size="10.00">::NormalNoiseParameters</text>
<text text-anchor="start" x="1842.5" y="-149" font-family="Helvetica,sans-Serif" font-size="10.00">+</text>
<text text-anchor="start" x="1855.5" y="-149" font-family="Helvetica,sans-Serif" font-size="10.00">amplitude</text>
<text text-anchor="start" x="1842.5" y="-134" font-family="Helvetica,sans-Serif" font-size="10.00">+</text>
<text text-anchor="start" x="1855.5" y="-134" font-family="Helvetica,sans-Serif" font-size="10.00">NormalNoiseParameters()</text>
<text text-anchor="start" x="1842.5" y="-119" font-family="Helvetica,sans-Serif" font-size="10.00">+</text>
<text text-anchor="start" x="1855.5" y="-119" font-family="Helvetica,sans-Serif" font-size="10.00">NormalNoiseParameters()</text>
<text text-anchor="start" x="1842.5" y="-104" font-family="Helvetica,sans-Serif" font-size="10.00">+</text>
<text text-anchor="start" x="1855.5" y="-104" font-family="Helvetica,sans-Serif" font-size="10.00">operator==()</text>
<text text-anchor="start" x="1842.5" y="-89" font-family="Helvetica,sans-Serif" font-size="10.00">+</text>
<text text-anchor="start" x="1855.5" y="-89" font-family="Helvetica,sans-Serif" font-size="10.00">operator==()</text>
<text text-anchor="start" x="1842.5" y="-74" font-family="Helvetica,sans-Serif" font-size="10.00">+</text>
<text text-anchor="start" x="1855.5" y="-74" font-family="Helvetica,sans-Serif" font-size="10.00">toString()</text>
<text text-anchor="start" x="1842.5" y="-59" font-family="Helvetica,sans-Serif" font-size="10.00">+</text>
<text text-anchor="start" x="1855.5" y="-59" font-family="Helvetica,sans-Serif" font-size="10.00">toString()</text>
<polygon fill="#666666" stroke="#666666" points="1838.5,-159 1838.5,-159 1986.5,-159 1986.5,-159 1838.5,-159"/>
<polygon fill="#666666" stroke="#666666" points="1838.5,-144 1838.5,-144 1853.5,-144 1853.5,-144 1838.5,-144"/>
<polygon fill="#666666" stroke="#666666" points="1853.5,-144 1853.5,-144 1986.5,-144 1986.5,-144 1853.5,-144"/>
<polygon fill="none" stroke="#666666" points="1838.5,-52.5 1838.5,-187.5 1986.5,-187.5 1986.5,-52.5 1838.5,-52.5"/>
</a>
</g>
</g>
<!-- Node1&#45;&gt;Node12 -->
<g id="edge14_Node000001_Node000012" class="edge">
<title>Node1&#45;&gt;Node12</title>
<g id="a_edge14_Node000001_Node000012"><a xlink:title=" ">
<path fill="none" stroke="#63b8ff" d="M1318.58,-322.56C1465.64,-313.65 1737.97,-290.88 1820.5,-240 1840.98,-227.38 1857.73,-207.61 1871.15,-187.79"/>
<polygon fill="none" stroke="#63b8ff" points="1317.99,-319.09 1308.22,-323.18 1318.41,-326.07 1317.99,-319.09"/>
</a>
</g>
</g>
<!-- Node1&#45;&gt;Node12 -->
<g id="edge15_Node000001_Node000012" class="edge">
<title>Node1&#45;&gt;Node12</title>
<g id="a_edge15_Node000001_Node000012"><a xlink:title=" ">
<path fill="none" stroke="#63b8ff" d="M1318.45,-323.22C1469.44,-314.81 1753.84,-292.2 1838.5,-240 1858.98,-227.38 1875.73,-207.61 1888.21,-187.79"/>
<polygon fill="none" stroke="#63b8ff" points="1318.05,-319.74 1308.26,-323.78 1318.43,-326.73 1318.05,-319.74"/>
</a>
</g>
</g>
<!-- Node13 -->
<g id="Node000013" class="node">
<title>Node13</title>
<g id="a_Node000013"><a xlink:href="structdnf__composer_1_1element_1_1OscillatoryKernelParameters.html" target="_top" xlink:title="Parameters for an oscillatory (damped&#45;cosine) convolution kernel.">
<polygon fill="white" stroke="transparent" points="2172.5,-210 2004.5,-210 2004.5,-30 2172.5,-30 2172.5,-210"/>
<text text-anchor="start" x="2016" y="-198" font-family="Helvetica,sans-Serif" font-size="10.00">dnf_composer::element</text>
<text text-anchor="start" x="2016" y="-187" font-family="Helvetica,sans-Serif" font-size="10.00">::OscillatoryKernelParameters</text>
<text text-anchor="start" x="2008.5" y="-172" font-family="Helvetica,sans-Serif" font-size="10.00">+</text>
<text text-anchor="start" x="2021.5" y="-172" font-family="Helvetica,sans-Serif" font-size="10.00">amplitude</text>
<text text-anchor="start" x="2008.5" y="-157" font-family="Helvetica,sans-Serif" font-size="10.00">+</text>
<text text-anchor="start" x="2021.5" y="-157" font-family="Helvetica,sans-Serif" font-size="10.00">amplitudeGlobal</text>
<text text-anchor="start" x="2008.5" y="-142" font-family="Helvetica,sans-Serif" font-size="10.00">+</text>
<text text-anchor="start" x="2021.5" y="-142" font-family="Helvetica,sans-Serif" font-size="10.00">circular</text>
<text text-anchor="start" x="2008.5" y="-127" font-family="Helvetica,sans-Serif" font-size="10.00">+</text>
<text text-anchor="start" x="2021.5" y="-127" font-family="Helvetica,sans-Serif" font-size="10.00">decay</text>
<text text-anchor="start" x="2008.5" y="-112" font-family="Helvetica,sans-Serif" font-size="10.00">+</text>
<text text-anchor="start" x="2021.5" y="-112" font-family="Helvetica,sans-Serif" font-size="10.00">normalized</text>
<text text-anchor="start" x="2008.5" y="-97" font-family="Helvetica,sans-Serif" font-size="10.00">+</text>
<text text-anchor="start" x="2021.5" y="-97" font-family="Helvetica,sans-Serif" font-size="10.00">outputFieldDimensions</text>
<text text-anchor="start" x="2008.5" y="-82" font-family="Helvetica,sans-Serif" font-size="10.00">+</text>
<text text-anchor="start" x="2021.5" y="-82" font-family="Helvetica,sans-Serif" font-size="10.00">zeroCrossings</text>
<text text-anchor="start" x="2008.5" y="-67" font-family="Helvetica,sans-Serif" font-size="10.00">+</text>
<text text-anchor="start" x="2021.5" y="-67" font-family="Helvetica,sans-Serif" font-size="10.00">operator==()</text>
<text text-anchor="start" x="2008.5" y="-52" font-family="Helvetica,sans-Serif" font-size="10.00">+</text>
<text text-anchor="start" x="2021.5" y="-52" font-family="Helvetica,sans-Serif" font-size="10.00">OscillatoryKernelParameters()</text>
<text text-anchor="start" x="2008.5" y="-37" font-family="Helvetica,sans-Serif" font-size="10.00">+</text>
<text text-anchor="start" x="2021.5" y="-37" font-family="Helvetica,sans-Serif" font-size="10.00">toString()</text>
<polygon fill="#666666" stroke="#666666" points="2004.5,-182 2004.5,-182 2172.5,-182 2172.5,-182 2004.5,-182"/>
<polygon fill="#666666" stroke="#666666" points="2004.5,-77 2004.5,-77 2019.5,-77 2019.5,-77 2004.5,-77"/>
<polygon fill="#666666" stroke="#666666" points="2019.5,-77 2019.5,-77 2172.5,-77 2172.5,-77 2019.5,-77"/>
<polygon fill="none" stroke="#666666" points="2004.5,-30 2004.5,-210 2172.5,-210 2172.5,-30 2004.5,-30"/>
</a>
</g>
</g>
<!-- Node1&#45;&gt;Node13 -->
<g id="edge16_Node000001_Node000013" class="edge">
<title>Node1&#45;&gt;Node13</title>
<g id="a_edge16_Node000001_Node000013"><a xlink:title=" ">
<path fill="none" stroke="#63b8ff" d="M1318.27,-325.8C1498.8,-321.11 1881.56,-303.75 1995.5,-240 2009.12,-232.38 2021.43,-221.88 2032.3,-210.24"/>
<polygon fill="none" stroke="#63b8ff" points="1318.16,-322.3 1308.25,-326.05 1318.34,-329.3 1318.16,-322.3"/>
</a>
</g>
</g>
</g>
</svg>
