<?xml version="1.0" encoding="UTF-8" standalone="no"?>
<!DOCTYPE svg PUBLIC "-//W3C//DTD SVG 1.1//EN"
 "http://www.w3.org/Graphics/SVG/1.1/DTD/svg11.dtd">
<!-- Generated by graphviz version 2.43.0 (0)
 -->
<!-- Title: dnf_composer::element::ActivationFunction Pages: 1 -->
<svg width="280pt" height="419pt"
 viewBox="0.00 0.00 279.50 419.00" xmlns="http://www.w3.org/2000/svg" xmlns:xlink="http://www.w3.org/1999/xlink">
<g id="graph0" class="graph" transform="scale(1 1) rotate(0) translate(4 415)">
<title>dnf_composer::element::ActivationFunction</title>
<!-- Node1 -->
<g id="Node000001" class="node">
<title>Node1</title>
<g id="a_Node000001"><a xlink:title="Abstract base for activation functions applied to a neural field.">
<polygon fill="#999999" stroke="transparent" points="199.5,-411 71.5,-411 71.5,-246 199.5,-246 199.5,-411"/>
<text text-anchor="start" x="77.5" y="-398.5" font-family="Helvetica,sans-Serif" font-size="10.00">dnf_composer::element</text>
<text text-anchor="start" x="87" y="-387.5" font-family="Helvetica,sans-Serif" font-size="10.00">::ActivationFunction</text>
<text text-anchor="start" x="75.5" y="-372.5" font-family="Helvetica,sans-Serif" font-size="10.00">+</text>
<text text-anchor="start" x="88.5" y="-372.5" font-family="Helvetica,sans-Serif" font-size="10.00">type</text>
<text text-anchor="start" x="75.5" y="-357.5" font-family="Helvetica,sans-Serif" font-size="10.00">+</text>
<text text-anchor="start" x="88.5" y="-357.5" font-family="Helvetica,sans-Serif" font-size="10.00">ActivationFunction()</text>
<text text-anchor="start" x="75.5" y="-342.5" font-family="Helvetica,sans-Serif" font-size="10.00">+</text>
<text text-anchor="start" x="88.5" y="-342.5" font-family="Helvetica,sans-Serif" font-size="10.00">ActivationFunction()</text>
<text text-anchor="start" x="75.5" y="-327.5" font-family="Helvetica,sans-Serif" font-size="10.00">+</text>
<text text-anchor="start" x="88.5" y="-327.5" font-family="Helvetica,sans-Serif" font-size="10.00">clone()</text>
<text text-anchor="start" x="75.5" y="-312.5" font-family="Helvetica,sans-Serif" font-size="10.00">+</text>
<text text-anchor="start" x="88.5" y="-312.5" font-family="Helvetica,sans-Serif" font-size="10.00">operator()()</text>
<text text-anchor="start" x="75.5" y="-297.5" font-family="Helvetica,sans-Serif" font-size="10.00">+</text>
<text text-anchor="start" x="88.5" y="-297.5" font-family="Helvetica,sans-Serif" font-size="10.00">operator=()</text>
<text text-anchor="start" x="75.5" y="-282.5" font-family="Helvetica,sans-Serif" font-size="10.00">+</text>
<text text-anchor="start" x="88.5" y="-282.5" font-family="Helvetica,sans-Serif" font-size="10.00">print()</text>
<text text-anchor="start" x="75.5" y="-267.5" font-family="Helvetica,sans-Serif" font-size="10.00">+</text>
<text text-anchor="start" x="88.5" y="-267.5" font-family="Helvetica,sans-Serif" font-size="10.00">toString()</text>
<text text-anchor="start" x="75.5" y="-252.5" font-family="Helvetica,sans-Serif" font-size="10.00">+</text>
<text text-anchor="start" x="88.5" y="-252.5" font-family="Helvetica,sans-Serif" font-size="10.00">~ActivationFunction()</text>
<polygon fill="#666666" stroke="#666666" points="71.5,-382.5 71.5,-382.5 199.5,-382.5 199.5,-382.5 71.5,-382.5"/>
<polygon fill="#666666" stroke="#666666" points="71.5,-367.5 71.5,-367.5 86.5,-367.5 86.5,-367.5 71.5,-367.5"/>
<polygon fill="#666666" stroke="#666666" points="86.5,-367.5 86.5,-367.5 199.5,-367.5 199.5,-367.5 86.5,-367.5"/>
<polygon fill="none" stroke="#666666" points="71.5,-246 71.5,-411 199.5,-411 199.5,-246 71.5,-246"/>
</a>
</g>
</g>
<!-- Node2 -->
<g id="Node000002" class="node">
<title>Node2</title>
<g id="a_Node000002"><a xlink:href="structdnf__composer_1_1element_1_1HeavisideFunction.html" target="_top" xlink:title="Heaviside step function: output = (x &gt;= x_shift) ? 1 : 0.">
<polygon fill="white" stroke="transparent" points="127,-195 0,-195 0,-15 127,-15 127,-195"/>
<text text-anchor="start" x="6" y="-183" font-family="Helvetica,sans-Serif" font-size="10.00">dnf_composer::element</text>
<text text-anchor="start" x="15.5" y="-172" font-family="Helvetica,sans-Serif" font-size="10.00">::HeavisideFunction</text>
<text text-anchor="start" x="4.5" y="-157" font-family="Helvetica,sans-Serif" font-size="10.00">+</text>
<text text-anchor="start" x="17.5" y="-157" font-family="Helvetica,sans-Serif" font-size="10.00">x_shift</text>
<text text-anchor="start" x="4.5" y="-142" font-family="Helvetica,sans-Serif" font-size="10.00">+</text>
<text text-anchor="start" x="17.5" y="-142" font-family="Helvetica,sans-Serif" font-size="10.00">clone()</text>
<text text-anchor="start" x="4.5" y="-127" font-family="Helvetica,sans-Serif" font-size="10.00">+</text>
<text text-anchor="start" x="17.5" y="-127" font-family="Helvetica,sans-Serif" font-size="10.00">getXShift()</text>
<text text-anchor="start" x="4.5" y="-112" font-family="Helvetica,sans-Serif" font-size="10.00">+</text>
<text text-anchor="start" x="17.5" y="-112" font-family="Helvetica,sans-Serif" font-size="10.00">HeavisideFunction()</text>
<text text-anchor="start" x="4.5" y="-97" font-family="Helvetica,sans-Serif" font-size="10.00">+</text>
<text text-anchor="start" x="17.5" y="-97" font-family="Helvetica,sans-Serif" font-size="10.00">HeavisideFunction()</text>
<text text-anchor="start" x="4.5" y="-82" font-family="Helvetica,sans-Serif" font-size="10.00">+</text>
<text text-anchor="start" x="17.5" y="-82" font-family="Helvetica,sans-Serif" font-size="10.00">operator()()</text>
<text text-anchor="start" x="4.5" y="-67" font-family="Helvetica,sans-Serif" font-size="10.00">+</text>
<text text-anchor="start" x="17.5" y="-67" font-family="Helvetica,sans-Serif" font-size="10.00">operator==()</text>
<text text-anchor="start" x="4.5" y="-52" font-family="Helvetica,sans-Serif" font-size="10.00">+</text>
<text text-anchor="start" x="17.5" y="-52" font-family="Helvetica,sans-Serif" font-size="10.00">print()</text>
<text text-anchor="start" x="4.5" y="-37" font-family="Helvetica,sans-Serif" font-size="10.00">+</text>
<text text-anchor="start" x="17.5" y="-37" font-family="Helvetica,sans-Serif" font-size="10.00">toString()</text>
<text text-anchor="start" x="4.5" y="-22" font-family="Helvetica,sans-Serif" font-size="10.00">+</text>
<text text-anchor="start" x="17.5" y="-22" font-family="Helvetica,sans-Serif" font-size="10.00">~HeavisideFunction()</text>
<polygon fill="#666666" stroke="#666666" points="0.5,-167 0.5,-167 127.5,-167 127.5,-167 0.5,-167"/>
<polygon fill="#666666" stroke="#666666" points="0.5,-152 0.5,-152 15.5,-152 15.5,-152 0.5,-152"/>
<polygon fill="#666666" stroke="#666666" points="15.5,-152 15.5,-152 127.5,-152 127.5,-152 15.5,-152"/>
<polygon fill="none" stroke="#666666" points="0,-15 0,-195 127,-195 127,-15 0,-15"/>
</a>
</g>
</g>
<!-- Node1&#45;&gt;Node2 -->
<g id="edge1_Node000001_Node000002" class="edge">
<title>Node1&#45;&gt;Node2</title>
<g id="a_edge1_Node000001_Node000002"><a xlink:title=" ">
<path fill="none" stroke="#63b8ff" d="M105.82,-236.19C101.41,-222.64 96.88,-208.69 92.49,-195.19"/>
<polygon fill="none" stroke="#63b8ff" points="102.58,-237.54 109,-245.97 109.23,-235.37 102.58,-237.54"/>
</a>
</g>
</g>
<!-- Node3 -->
<g id="Node000003" class="node">
<title>Node3</title>
<g id="a_Node000003"><a xlink:href="structdnf__composer_1_1element_1_1SigmoidFunction.html" target="_top" xlink:title="Logistic sigmoid: output = 1 / (1 + exp(&#45;steepness * (x &#45; x_shift))).">
<polygon fill="white" stroke="transparent" points="271.5,-210 145.5,-210 145.5,0 271.5,0 271.5,-210"/>
<text text-anchor="start" x="150.5" y="-198" font-family="Helvetica,sans-Serif" font-size="10.00">dnf_composer::element</text>
<text text-anchor="start" x="164.5" y="-187" font-family="Helvetica,sans-Serif" font-size="10.00">::SigmoidFunction</text>
<text text-anchor="start" x="151.5" y="-172" font-family="Helvetica,sans-Serif" font-size="10.00">+</text>
<text text-anchor="start" x="166.5" y="-172" font-family="Helvetica,sans-Serif" font-size="10.00">steepness</text>
<text text-anchor="start" x="151.5" y="-157" font-family="Helvetica,sans-Serif" font-size="10.00">+</text>
<text text-anchor="start" x="166.5" y="-157" font-family="Helvetica,sans-Serif" font-size="10.00">x_shift</text>
<text text-anchor="start" x="151.5" y="-142" font-family="Helvetica,sans-Serif" font-size="10.00">+</text>
<text text-anchor="start" x="166.5" y="-142" font-family="Helvetica,sans-Serif" font-size="10.00">clone()</text>
<text text-anchor="start" x="151.5" y="-127" font-family="Helvetica,sans-Serif" font-size="10.00">+</text>
<text text-anchor="start" x="166.5" y="-127" font-family="Helvetica,sans-Serif" font-size="10.00">getSteepness()</text>
<text text-anchor="start" x="151.5" y="-112" font-family="Helvetica,sans-Serif" font-size="10.00">+</text>
<text text-anchor="start" x="166.5" y="-112" font-family="Helvetica,sans-Serif" font-size="10.00">getXShift()</text>
<text text-anchor="start" x="151.5" y="-97" font-family="Helvetica,sans-Serif" font-size="10.00">+</text>
<text text-anchor="start" x="166.5" y="-97" font-family="Helvetica,sans-Serif" font-size="10.00">operator()()</text>
<text text-anchor="start" x="151.5" y="-82" font-family="Helvetica,sans-Serif" font-size="10.00">+</text>
<text text-anchor="start" x="166.5" y="-82" font-family="Helvetica,sans-Serif" font-size="10.00">operator==()</text>
<text text-anchor="start" x="151.5" y="-67" font-family="Helvetica,sans-Serif" font-size="10.00">+</text>
<text text-anchor="start" x="166.5" y="-67" font-family="Helvetica,sans-Serif" font-size="10.00">print()</text>
<text text-anchor="start" x="151.5" y="-52" font-family="Helvetica,sans-Serif" font-size="10.00">+</text>
<text text-anchor="start" x="166.5" y="-52" font-family="Helvetica,sans-Serif" font-size="10.00">SigmoidFunction()</text>
<text text-anchor="start" x="151.5" y="-37" font-family="Helvetica,sans-Serif" font-size="10.00">+</text>
<text text-anchor="start" x="166.5" y="-37" font-family="Helvetica,sans-Serif" font-size="10.00">SigmoidFunction()</text>
<text text-anchor="start" x="151.5" y="-22" font-family="Helvetica,sans-Serif" font-size="10.00">+</text>
<text text-anchor="start" x="166.5" y="-22" font-family="Helvetica,sans-Serif" font-size="10.00">toString()</text>
<text text-anchor="start" x="151.5" y="-7" font-family="Helvetica,sans-Serif" font-size="10.00">+</text>
<text text-anchor="start" x="166.5" y="-7" font-family="Helvetica,sans-Serif" font-size="10.00">~SigmoidFunction()</text>
<polygon fill="#666666" stroke="#666666" points="145.5,-182 145.5,-182 271.5,-182 271.5,-182 145.5,-182"/>
<polygon fill="#666666" stroke="#666666" points="145.5,-152 145.5,-152 164.5,-152 164.5,-152 145.5,-152"/>
<polygon fill="#666666" stroke="#666666" points="164.5,-152 164.5,-152 271.5,-152 271.5,-152 164.5,-152"/>
<polygon fill="none" stroke="#666666" points="145.5,0 145.5,-210 271.5,-210 271.5,0 145.5,0"/>
</a>
</g>
</g>
<!-- Node1&#45;&gt;Node3 -->
<g id="edge2_Node000001_Node000003" class="edge">
<title>Node1&#45;&gt;Node3</title>
<g id="a_edge2_Node000001_Node000003"><a xlink:title=" ">
<path fill="none" stroke="#63b8ff" d="M165.54,-236.36C168.36,-227.78 171.24,-219.05 174.11,-210.36"/>
<polygon fill="none" stroke="#63b8ff" points="162.18,-235.37 162.37,-245.97 168.83,-237.56 162.18,-235.37"/>
</a>
</g>
</g>
</g>
</svg>
