<?xml version="1.0" encoding="UTF-8" standalone="no"?>
<!DOCTYPE svg PUBLIC "-//W3C//DTD SVG 1.1//EN"
 "http://www.w3.org/Graphics/SVG/1.1/DTD/svg11.dtd">
<!-- Generated by graphviz version 2.43.0 (0)
 -->
<!-- Title: dnf_composer::element::ElementCommonParameters::toString Pages: 1 -->
<svg width="370pt" height="1508pt"
 viewBox="0.00 0.00 370.00 1508.00" xmlns="http://www.w3.org/2000/svg" xmlns:xlink="http://www.w3.org/1999/xlink">
<g id="graph0" class="graph" transform="scale(1 1) rotate(0) translate(4 1504)">
<title>dnf_composer::element::ElementCommonParameters::toString</title>
<!-- Node1 -->
<g id="Node000001" class="node">
<title>Node1</title>
<g id="a_Node000001"><a xlink:title=" ">
<polygon fill="#999999" stroke="#666666" points="362,-765 199,-765 199,-724 362,-724 362,-765"/>
<text text-anchor="start" x="207" y="-753" font-family="Helvetica,sans-Serif" font-size="10.00">dnf_composer::element</text>
<text text-anchor="start" x="207" y="-742" font-family="Helvetica,sans-Serif" font-size="10.00">::ElementCommonParameters</text>
<text text-anchor="middle" x="280.5" y="-731" font-family="Helvetica,sans-Serif" font-size="10.00">::toString</text>
</a>
</g>
</g>
<!-- Node2 -->
<g id="Node000002" class="node">
<title>Node2</title>
<g id="a_Node000002"><a xlink:href="structdnf__composer_1_1element_1_1ElementCommonParameters.html#a446472a2d6a83b41ae55e42c024357f3" target="_top" xlink:title=" ">
<polygon fill="white" stroke="#666666" points="163,-1500 0,-1500 0,-1459 163,-1459 163,-1500"/>
<text text-anchor="start" x="8" y="-1488" font-family="Helvetica,sans-Serif" font-size="10.00">dnf_composer::element</text>
<text text-anchor="start" x="8" y="-1477" font-family="Helvetica,sans-Serif" font-size="10.00">::ElementCommonParameters</text>
<text text-anchor="middle" x="81.5" y="-1466" font-family="Helvetica,sans-Serif" font-size="10.00">::print</text>
</a>
</g>
</g>
<!-- Node1&#45;&gt;Node2 -->
<g id="edge1_Node000001_Node000002" class="edge">
<title>Node1&#45;&gt;Node2</title>
<g id="a_edge1_Node000001_Node000002"><a xlink:title=" ">
<path fill="none" stroke="#63b8ff" d="M278.46,-775.24C273.75,-897.16 250.67,-1345.2 163,-1450.5 160.43,-1453.58 157.51,-1456.34 154.34,-1458.8"/>
<polygon fill="#63b8ff" stroke="#63b8ff" points="281.96,-775.23 278.84,-765.11 274.97,-774.97 281.96,-775.23"/>
</a>
</g>
</g>
<!-- Node3 -->
<g id="Node000003" class="node">
<title>Node3</title>
<g id="a_Node000003"><a xlink:href="classdnf__composer_1_1element_1_1AsymmetricGaussKernel.html#ad04b7f2dc4f17529affba6c44995de85" target="_top" xlink:title=" ">
<polygon fill="white" stroke="#666666" points="153,-1441 10,-1441 10,-1400 153,-1400 153,-1441"/>
<text text-anchor="start" x="18" y="-1429" font-family="Helvetica,sans-Serif" font-size="10.00">dnf_composer::element</text>
<text text-anchor="start" x="18" y="-1418" font-family="Helvetica,sans-Serif" font-size="10.00">::AsymmetricGaussKernel</text>
<text text-anchor="middle" x="81.5" y="-1407" font-family="Helvetica,sans-Serif" font-size="10.00">::toString</text>
</a>
</g>
</g>
<!-- Node1&#45;&gt;Node3 -->
<g id="edge2_Node000001_Node000003" class="edge">
<title>Node1&#45;&gt;Node3</title>
<g id="a_edge2_Node000001_Node000003"><a xlink:title=" ">
<path fill="none" stroke="#63b8ff" d="M277.95,-775.26C271.56,-890.65 243.64,-1296.07 163,-1391.5 160.12,-1394.9 156.82,-1397.91 153.22,-1400.56"/>
<polygon fill="#63b8ff" stroke="#63b8ff" points="281.46,-775.19 278.5,-765.01 274.47,-774.81 281.46,-775.19"/>
</a>
</g>
</g>
<!-- Node4 -->
<g id="Node000004" class="node">
<title>Node4</title>
<g id="a_Node000004"><a xlink:href="classdnf__composer_1_1element_1_1AsymmetricGaussKernel2D.html#a2684446b0d35c206880e4d633d3f04e8" target="_top" xlink:title=" ">
<polygon fill="white" stroke="#666666" points="159.5,-1382 3.5,-1382 3.5,-1341 159.5,-1341 159.5,-1382"/>
<text text-anchor="start" x="11.5" y="-1370" font-family="Helvetica,sans-Serif" font-size="10.00">dnf_composer::element</text>
<text text-anchor="start" x="11.5" y="-1359" font-family="Helvetica,sans-Serif" font-size="10.00">::AsymmetricGaussKernel2D</text>
<text text-anchor="middle" x="81.5" y="-1348" font-family="Helvetica,sans-Serif" font-size="10.00">::toString</text>
</a>
</g>
</g>
<!-- Node1&#45;&gt;Node4 -->
<g id="edge3_Node000001_Node000004" class="edge">
<title>Node1&#45;&gt;Node4</title>
<g id="a_edge3_Node000001_Node000004"><a xlink:title=" ">
<path fill="none" stroke="#63b8ff" d="M277.28,-775.54C268.91,-884.22 235.99,-1245.72 163,-1331.5 160,-1335.02 156.55,-1338.13 152.8,-1340.87"/>
<polygon fill="#63b8ff" stroke="#63b8ff" points="280.79,-775.49 278.05,-765.25 273.81,-774.96 280.79,-775.49"/>
</a>
</g>
</g>
<!-- Node5 -->
<g id="Node000005" class="node">
<title>Node5</title>
<g id="a_Node000005"><a xlink:href="classdnf__composer_1_1element_1_1BoostStimulus.html#a8d10a318500c48897e0be68daeb73486" target="_top" xlink:title=" ">
<polygon fill="white" stroke="#666666" points="150,-1322.5 13,-1322.5 13,-1292.5 150,-1292.5 150,-1322.5"/>
<text text-anchor="start" x="21" y="-1310.5" font-family="Helvetica,sans-Serif" font-size="10.00">dnf_composer::element</text>
<text text-anchor="middle" x="81.5" y="-1299.5" font-family="Helvetica,sans-Serif" font-size="10.00">::BoostStimulus::toString</text>
</a>
</g>
</g>
<!-- Node1&#45;&gt;Node5 -->
<g id="edge4_Node000001_Node000005" class="edge">
<title>Node1&#45;&gt;Node5</title>
<g id="a_edge4_Node000001_Node000005"><a xlink:title=" ">
<path fill="none" stroke="#63b8ff" d="M276.92,-775.19C267.69,-877.98 233.05,-1207.85 163,-1283.5 159.23,-1287.57 154.81,-1290.95 150.01,-1293.78"/>
<polygon fill="#63b8ff" stroke="#63b8ff" points="280.42,-775.42 277.81,-765.16 273.44,-774.81 280.42,-775.42"/>
</a>
</g>
</g>
<!-- Node6 -->
<g id="Node000006" class="node">
<title>Node6</title>
<g id="a_Node000006"><a xlink:href="classdnf__composer_1_1element_1_1BoostStimulus2D.html#a056a3a4ab8e0033bd26ed5bbaea3d950" target="_top" xlink:title=" ">
<polygon fill="white" stroke="#666666" points="157,-1274.5 6,-1274.5 6,-1244.5 157,-1244.5 157,-1274.5"/>
<text text-anchor="start" x="14" y="-1262.5" font-family="Helvetica,sans-Serif" font-size="10.00">dnf_composer::element</text>
<text text-anchor="middle" x="81.5" y="-1251.5" font-family="Helvetica,sans-Serif" font-size="10.00">::BoostStimulus2D::toString</text>
</a>
</g>
</g>
<!-- Node1&#45;&gt;Node6 -->
<g id="edge5_Node000001_Node000006" class="edge">
<title>Node1&#45;&gt;Node6</title>
<g id="a_edge5_Node000001_Node000006"><a xlink:title=" ">
<path fill="none" stroke="#63b8ff" d="M276.24,-774.99C265.35,-871.43 227.23,-1167.52 163,-1235.5 159.8,-1238.89 156.13,-1241.81 152.18,-1244.32"/>
<polygon fill="#63b8ff" stroke="#63b8ff" points="279.73,-775.33 277.35,-765.01 272.77,-774.56 279.73,-775.33"/>
</a>
</g>
</g>
<!-- Node7 -->
<g id="Node000007" class="node">
<title>Node7</title>
<g id="a_Node000007"><a xlink:href="classdnf__composer_1_1element_1_1Collapse.html#a58dd18ede01fde9207e23b56ab84e92e" target="_top" xlink:title=" ">
<polygon fill="white" stroke="#666666" points="147.5,-1226.5 15.5,-1226.5 15.5,-1196.5 147.5,-1196.5 147.5,-1226.5"/>
<text text-anchor="start" x="23.5" y="-1214.5" font-family="Helvetica,sans-Serif" font-size="10.00">dnf_composer::element</text>
<text text-anchor="middle" x="81.5" y="-1203.5" font-family="Helvetica,sans-Serif" font-size="10.00">::Collapse::toString</text>
</a>
</g>
</g>
<!-- Node1&#45;&gt;Node7 -->
<g id="edge6_Node000001_Node000007" class="edge">
<title>Node1&#45;&gt;Node7</title>
<g id="a_edge6_Node000001_Node000007"><a xlink:title=" ">
<path fill="none" stroke="#63b8ff" d="M275.36,-775.26C262.63,-865.54 221.33,-1127.24 163,-1187.5 158.54,-1192.11 153.23,-1195.85 147.5,-1198.87"/>
<polygon fill="#63b8ff" stroke="#63b8ff" points="278.86,-775.51 276.77,-765.12 271.93,-774.55 278.86,-775.51"/>
</a>
</g>
</g>
<!-- Node8 -->
<g id="Node000008" class="node">
<title>Node8</title>
<g id="a_Node000008"><a xlink:href="classdnf__composer_1_1element_1_1CorrelatedNormalNoise.html#af978a9e9e7acbb0a917a4a3766efaf04" target="_top" xlink:title=" ">
<polygon fill="white" stroke="#666666" points="150,-1178 13,-1178 13,-1137 150,-1137 150,-1178"/>
<text text-anchor="start" x="21" y="-1166" font-family="Helvetica,sans-Serif" font-size="10.00">dnf_composer::element</text>
<text text-anchor="start" x="21" y="-1155" font-family="Helvetica,sans-Serif" font-size="10.00">::CorrelatedNormalNoise</text>
<text text-anchor="middle" x="81.5" y="-1144" font-family="Helvetica,sans-Serif" font-size="10.00">::toString</text>
</a>
</g>
</g>
<!-- Node1&#45;&gt;Node8 -->
<g id="edge7_Node000001_Node000008" class="edge">
<title>Node1&#45;&gt;Node8</title>
<g id="a_edge7_Node000001_Node000008"><a xlink:title=" ">
<path fill="none" stroke="#63b8ff" d="M279.06,-775.3C276.37,-847 259.76,-1026.65 163,-1128.5 159.21,-1132.48 154.84,-1135.92 150.13,-1138.89"/>
<polygon fill="#63b8ff" stroke="#63b8ff" points="282.56,-775.25 279.37,-765.14 275.57,-775.03 282.56,-775.25"/>
</a>
</g>
</g>
<!-- Node9 -->
<g id="Node000009" class="node">
<title>Node9</title>
<g id="a_Node000009"><a xlink:href="classdnf__composer_1_1element_1_1CorrelatedNormalNoise2D.html#ace11403ed6a019fe22d734dc55089324" target="_top" xlink:title=" ">
<polygon fill="white" stroke="#666666" points="157,-1119 6,-1119 6,-1078 157,-1078 157,-1119"/>
<text text-anchor="start" x="14" y="-1107" font-family="Helvetica,sans-Serif" font-size="10.00">dnf_composer::element</text>
<text text-anchor="start" x="14" y="-1096" font-family="Helvetica,sans-Serif" font-size="10.00">::CorrelatedNormalNoise2D</text>
<text text-anchor="middle" x="81.5" y="-1085" font-family="Helvetica,sans-Serif" font-size="10.00">::toString</text>
</a>
</g>
</g>
<!-- Node1&#45;&gt;Node9 -->
<g id="edge8_Node000001_Node000009" class="edge">
<title>Node1&#45;&gt;Node9</title>
<g id="a_edge8_Node000001_Node000009"><a xlink:title=" ">
<path fill="none" stroke="#63b8ff" d="M276.94,-775.21C270.05,-838.59 245.63,-984.91 163,-1068.5 159.54,-1072 155.63,-1075.1 151.46,-1077.84"/>
<polygon fill="#63b8ff" stroke="#63b8ff" points="280.44,-775.38 277.97,-765.07 273.48,-774.67 280.44,-775.38"/>
</a>
</g>
</g>
<!-- Node10 -->
<g id="Node000010" class="node">
<title>Node10</title>
<g id="a_Node000010"><a xlink:href="classdnf__composer_1_1element_1_1Expand.html#ad4820d154bfeb73bcc0244a526544084" target="_top" xlink:title=" ">
<polygon fill="white" stroke="#666666" points="147.5,-1059.5 15.5,-1059.5 15.5,-1029.5 147.5,-1029.5 147.5,-1059.5"/>
<text text-anchor="start" x="23.5" y="-1047.5" font-family="Helvetica,sans-Serif" font-size="10.00">dnf_composer::element</text>
<text text-anchor="middle" x="81.5" y="-1036.5" font-family="Helvetica,sans-Serif" font-size="10.00">::Expand::toString</text>
</a>
</g>
</g>
<!-- Node1&#45;&gt;Node10 -->
<g id="edge9_Node000001_Node000010" class="edge">
<title>Node1&#45;&gt;Node10</title>
<g id="a_edge9_Node000001_Node000010"><a xlink:title=" ">
<path fill="none" stroke="#63b8ff" d="M275.19,-775.44C265.62,-832.38 237.24,-953.99 163,-1020.5 158.44,-1024.59 153.21,-1027.98 147.65,-1030.79"/>
<polygon fill="#63b8ff" stroke="#63b8ff" points="278.69,-775.7 276.81,-765.27 271.78,-774.6 278.69,-775.7"/>
</a>
</g>
</g>
<!-- Node11 -->
<g id="Node000011" class="node">
<title>Node11</title>
<g id="a_Node000011"><a xlink:href="classdnf__composer_1_1element_1_1FieldCoupling.html#a0ec7d17d851fa9007175794248bb9590" target="_top" xlink:title=" ">
<polygon fill="white" stroke="#666666" points="148,-1011.5 15,-1011.5 15,-981.5 148,-981.5 148,-1011.5"/>
<text text-anchor="start" x="23" y="-999.5" font-family="Helvetica,sans-Serif" font-size="10.00">dnf_composer::element</text>
<text text-anchor="middle" x="81.5" y="-988.5" font-family="Helvetica,sans-Serif" font-size="10.00">::FieldCoupling::toString</text>
</a>
</g>
</g>
<!-- Node1&#45;&gt;Node11 -->
<g id="edge10_Node000001_Node000011" class="edge">
<title>Node1&#45;&gt;Node11</title>
<g id="a_edge10_Node000001_Node000011"><a xlink:title=" ">
<path fill="none" stroke="#63b8ff" d="M272.24,-774.99C259.01,-823.92 226.32,-919.81 163,-972.5 158.52,-976.23 153.47,-979.38 148.14,-982.04"/>
<polygon fill="#63b8ff" stroke="#63b8ff" points="275.63,-775.86 274.77,-765.3 268.86,-774.09 275.63,-775.86"/>
</a>
</g>
</g>
<!-- Node12 -->
<g id="Node000012" class="node">
<title>Node12</title>
<g id="a_Node000012"><a xlink:href="classdnf__composer_1_1element_1_1GaussFieldCoupling.html#a6af7a83156ac66cf5cfaafcbb16d2409" target="_top" xlink:title=" ">
<polygon fill="white" stroke="#666666" points="147.5,-963 15.5,-963 15.5,-922 147.5,-922 147.5,-963"/>
<text text-anchor="start" x="23.5" y="-951" font-family="Helvetica,sans-Serif" font-size="10.00">dnf_composer::element</text>
<text text-anchor="start" x="23.5" y="-940" font-family="Helvetica,sans-Serif" font-size="10.00">::GaussFieldCoupling</text>
<text text-anchor="middle" x="81.5" y="-929" font-family="Helvetica,sans-Serif" font-size="10.00">::toString</text>
</a>
</g>
</g>
<!-- Node1&#45;&gt;Node12 -->
<g id="edge11_Node000001_Node000012" class="edge">
<title>Node1&#45;&gt;Node12</title>
<g id="a_edge11_Node000001_Node000012"><a xlink:title=" ">
<path fill="none" stroke="#63b8ff" d="M265.86,-774.42C247.47,-811.66 211.37,-874.92 163,-912.5 158.29,-916.16 153.09,-919.41 147.66,-922.29"/>
<polygon fill="#63b8ff" stroke="#63b8ff" points="269.16,-775.62 270.36,-765.1 262.86,-772.58 269.16,-775.62"/>
</a>
</g>
</g>
<!-- Node13 -->
<g id="Node000013" class="node">
<title>Node13</title>
<g id="a_Node000013"><a xlink:href="classdnf__composer_1_1element_1_1GaussKernel.html#a7b8a9134ec53b0a10ad914ad363c4fd0" target="_top" xlink:title=" ">
<polygon fill="white" stroke="#666666" points="147.5,-903.5 15.5,-903.5 15.5,-873.5 147.5,-873.5 147.5,-903.5"/>
<text text-anchor="start" x="23.5" y="-891.5" font-family="Helvetica,sans-Serif" font-size="10.00">dnf_composer::element</text>
<text text-anchor="middle" x="81.5" y="-880.5" font-family="Helvetica,sans-Serif" font-size="10.00">::GaussKernel::toString</text>
</a>
</g>
</g>
<!-- Node1&#45;&gt;Node13 -->
<g id="edge12_Node000001_Node000013" class="edge">
<title>Node1&#45;&gt;Node13</title>
<g id="a_edge12_Node000001_Node000013"><a xlink:title=" ">
<path fill="none" stroke="#63b8ff" d="M258.84,-773.03C237.68,-800.28 202.38,-840.63 163,-864.5 157.39,-867.9 151.26,-870.85 144.98,-873.4"/>
<polygon fill="#63b8ff" stroke="#63b8ff" points="261.66,-775.1 264.94,-765.03 256.1,-770.86 261.66,-775.1"/>
</a>
</g>
</g>
<!-- Node14 -->
<g id="Node000014" class="node">
<title>Node14</title>
<g id="a_Node000014"><a xlink:href="classdnf__composer_1_1element_1_1GaussKernel2D.html#aad30c18ace65fff07f0c104744106395" target="_top" xlink:title=" ">
<polygon fill="white" stroke="#666666" points="152,-855.5 11,-855.5 11,-825.5 152,-825.5 152,-855.5"/>
<text text-anchor="start" x="19" y="-843.5" font-family="Helvetica,sans-Serif" font-size="10.00">dnf_composer::element</text>
<text text-anchor="middle" x="81.5" y="-832.5" font-family="Helvetica,sans-Serif" font-size="10.00">::GaussKernel2D::toString</text>
</a>
</g>
</g>
<!-- Node1&#45;&gt;Node14 -->
<g id="edge13_Node000001_Node000014" class="edge">
<title>Node1&#45;&gt;Node14</title>
<g id="a_edge13_Node000001_Node000014"><a xlink:title=" ">
<path fill="none" stroke="#63b8ff" d="M242.54,-770.85C220.3,-785.79 190.96,-803.96 163,-816.5 155.68,-819.78 147.79,-822.76 139.91,-825.42"/>
<polygon fill="#63b8ff" stroke="#63b8ff" points="244.7,-773.61 251,-765.09 240.76,-767.82 244.7,-773.61"/>
</a>
</g>
</g>
<!-- Node15 -->
<g id="Node000015" class="node">
<title>Node15</title>
<g id="a_Node000015"><a xlink:href="classdnf__composer_1_1element_1_1GaussStimulus.html#a15f8c25e4db545c57c765a440e7a8cb7" target="_top" xlink:title=" ">
<polygon fill="white" stroke="#666666" points="151.5,-807.5 11.5,-807.5 11.5,-777.5 151.5,-777.5 151.5,-807.5"/>
<text text-anchor="start" x="19.5" y="-795.5" font-family="Helvetica,sans-Serif" font-size="10.00">dnf_composer::element</text>
<text text-anchor="middle" x="81.5" y="-784.5" font-family="Helvetica,sans-Serif" font-size="10.00">::GaussStimulus::toString</text>
</a>
</g>
</g>
<!-- Node1&#45;&gt;Node15 -->
<g id="edge14_Node000001_Node000015" class="edge">
<title>Node1&#45;&gt;Node15</title>
<g id="a_edge14_Node000001_Node000015"><a xlink:title=" ">
<path fill="none" stroke="#63b8ff" d="M188.89,-766.58C173.71,-770.28 158.29,-774.03 144.07,-777.5"/>
<polygon fill="#63b8ff" stroke="#63b8ff" points="189.92,-769.93 198.8,-764.16 188.26,-763.13 189.92,-769.93"/>
</a>
</g>
</g>
<!-- Node16 -->
<g id="Node000016" class="node">
<title>Node16</title>
<g id="a_Node000016"><a xlink:href="classdnf__composer_1_1element_1_1GaussStimulus2D.html#add4ff932bad991f32015046d873c6660" target="_top" xlink:title=" ">
<polygon fill="white" stroke="#666666" points="158,-759.5 5,-759.5 5,-729.5 158,-729.5 158,-759.5"/>
<text text-anchor="start" x="13" y="-747.5" font-family="Helvetica,sans-Serif" font-size="10.00">dnf_composer::element</text>
<text text-anchor="middle" x="81.5" y="-736.5" font-family="Helvetica,sans-Serif" font-size="10.00">::GaussStimulus2D::toString</text>
</a>
</g>
</g>
<!-- Node1&#45;&gt;Node16 -->
<g id="edge15_Node000001_Node000016" class="edge">
<title>Node1&#45;&gt;Node16</title>
<g id="a_edge15_Node000001_Node000016"><a xlink:title=" ">
<path fill="none" stroke="#63b8ff" d="M188.69,-744.5C178.53,-744.5 168.26,-744.5 158.31,-744.5"/>
<polygon fill="#63b8ff" stroke="#63b8ff" points="188.8,-748 198.8,-744.5 188.8,-741 188.8,-748"/>
</a>
</g>
</g>
<!-- Node17 -->
<g id="Node000017" class="node">
<title>Node17</title>
<g id="a_Node000017"><a xlink:href="classdnf__composer_1_1element_1_1MemoryTrace.html#ac660d6876aaa723c4a6afa5a4387a606" target="_top" xlink:title=" ">
<polygon fill="white" stroke="#666666" points="148,-711.5 15,-711.5 15,-681.5 148,-681.5 148,-711.5"/>
<text text-anchor="start" x="23" y="-699.5" font-family="Helvetica,sans-Serif" font-size="10.00">dnf_composer::element</text>
<text text-anchor="middle" x="81.5" y="-688.5" font-family="Helvetica,sans-Serif" font-size="10.00">::MemoryTrace::toString</text>
</a>
</g>
</g>
<!-- Node1&#45;&gt;Node17 -->
<g id="edge16_Node000001_Node000017" class="edge">
<title>Node1&#45;&gt;Node17</title>
<g id="a_edge16_Node000001_Node000017"><a xlink:title=" ">
<path fill="none" stroke="#63b8ff" d="M188.89,-722.42C173.71,-718.72 158.29,-714.97 144.07,-711.5"/>
<polygon fill="#63b8ff" stroke="#63b8ff" points="188.26,-725.87 198.8,-724.84 189.92,-719.07 188.26,-725.87"/>
</a>
</g>
</g>
<!-- Node18 -->
<g id="Node000018" class="node">
<title>Node18</title>
<g id="a_Node000018"><a xlink:href="classdnf__composer_1_1element_1_1MemoryTrace2D.html#ae32150b2ea377c29eaeb4cb3ab122351" target="_top" xlink:title=" ">
<polygon fill="white" stroke="#666666" points="154.5,-663.5 8.5,-663.5 8.5,-633.5 154.5,-633.5 154.5,-663.5"/>
<text text-anchor="start" x="16.5" y="-651.5" font-family="Helvetica,sans-Serif" font-size="10.00">dnf_composer::element</text>
<text text-anchor="middle" x="81.5" y="-640.5" font-family="Helvetica,sans-Serif" font-size="10.00">::MemoryTrace2D::toString</text>
</a>
</g>
</g>
<!-- Node1&#45;&gt;Node18 -->
<g id="edge17_Node000001_Node000018" class="edge">
<title>Node1&#45;&gt;Node18</title>
<g id="a_edge17_Node000001_Node000018"><a xlink:title=" ">
<path fill="none" stroke="#63b8ff" d="M242.54,-718.15C220.3,-703.21 190.96,-685.04 163,-672.5 155.68,-669.22 147.79,-666.24 139.91,-663.58"/>
<polygon fill="#63b8ff" stroke="#63b8ff" points="240.76,-721.18 251,-723.91 244.7,-715.39 240.76,-721.18"/>
</a>
</g>
</g>
<!-- Node19 -->
<g id="Node000019" class="node">
<title>Node19</title>
<g id="a_Node000019"><a xlink:href="classdnf__composer_1_1element_1_1MexicanHatKernel.html#ac6310b5ece9178f4d0730302822b99e3" target="_top" xlink:title=" ">
<polygon fill="white" stroke="#666666" points="159.5,-615.5 3.5,-615.5 3.5,-585.5 159.5,-585.5 159.5,-615.5"/>
<text text-anchor="start" x="11.5" y="-603.5" font-family="Helvetica,sans-Serif" font-size="10.00">dnf_composer::element</text>
<text text-anchor="middle" x="81.5" y="-592.5" font-family="Helvetica,sans-Serif" font-size="10.00">::MexicanHatKernel::toString</text>
</a>
</g>
</g>
<!-- Node1&#45;&gt;Node19 -->
<g id="edge18_Node000001_Node000019" class="edge">
<title>Node1&#45;&gt;Node19</title>
<g id="a_edge18_Node000001_Node000019"><a xlink:title=" ">
<path fill="none" stroke="#63b8ff" d="M258.84,-715.97C237.68,-688.72 202.38,-648.37 163,-624.5 157.39,-621.1 151.26,-618.15 144.98,-615.6"/>
<polygon fill="#63b8ff" stroke="#63b8ff" points="256.1,-718.14 264.94,-723.97 261.66,-713.9 256.1,-718.14"/>
</a>
</g>
</g>
<!-- Node20 -->
<g id="Node000020" class="node">
<title>Node20</title>
<g id="a_Node000020"><a xlink:href="classdnf__composer_1_1element_1_1MexicanHatKernel2D.html#a4ab0245904a75a1410ff41bbb09bc5dc" target="_top" xlink:title=" ">
<polygon fill="white" stroke="#666666" points="147.5,-567 15.5,-567 15.5,-526 147.5,-526 147.5,-567"/>
<text text-anchor="start" x="23.5" y="-555" font-family="Helvetica,sans-Serif" font-size="10.00">dnf_composer::element</text>
<text text-anchor="start" x="23.5" y="-544" font-family="Helvetica,sans-Serif" font-size="10.00">::MexicanHatKernel2D</text>
<text text-anchor="middle" x="81.5" y="-533" font-family="Helvetica,sans-Serif" font-size="10.00">::toString</text>
</a>
</g>
</g>
<!-- Node1&#45;&gt;Node20 -->
<g id="edge19_Node000001_Node000020" class="edge">
<title>Node1&#45;&gt;Node20</title>
<g id="a_edge19_Node000001_Node000020"><a xlink:title=" ">
<path fill="none" stroke="#63b8ff" d="M265.86,-714.58C247.47,-677.34 211.37,-614.08 163,-576.5 158.29,-572.84 153.09,-569.59 147.66,-566.71"/>
<polygon fill="#63b8ff" stroke="#63b8ff" points="262.86,-716.42 270.36,-723.9 269.16,-713.38 262.86,-716.42"/>
</a>
</g>
</g>
<!-- Node21 -->
<g id="Node000021" class="node">
<title>Node21</title>
<g id="a_Node000021"><a xlink:href="classdnf__composer_1_1element_1_1NeuralField.html#acf0203117e7820c0902e2986a594e47f" target="_top" xlink:title=" ">
<polygon fill="white" stroke="#666666" points="147.5,-507.5 15.5,-507.5 15.5,-477.5 147.5,-477.5 147.5,-507.5"/>
<text text-anchor="start" x="23.5" y="-495.5" font-family="Helvetica,sans-Serif" font-size="10.00">dnf_composer::element</text>
<text text-anchor="middle" x="81.5" y="-484.5" font-family="Helvetica,sans-Serif" font-size="10.00">::NeuralField::toString</text>
</a>
</g>
</g>
<!-- Node1&#45;&gt;Node21 -->
<g id="edge20_Node000001_Node000021" class="edge">
<title>Node1&#45;&gt;Node21</title>
<g id="a_edge20_Node000001_Node000021"><a xlink:title=" ">
<path fill="none" stroke="#63b8ff" d="M272.05,-713.91C258.62,-665.22 225.71,-570.2 163,-517.5 158.41,-513.64 153.22,-510.37 147.75,-507.61"/>
<polygon fill="#63b8ff" stroke="#63b8ff" points="268.74,-715.09 274.7,-723.85 275.5,-713.29 268.74,-715.09"/>
</a>
</g>
</g>
<!-- Node22 -->
<g id="Node000022" class="node">
<title>Node22</title>
<g id="a_Node000022"><a xlink:href="classdnf__composer_1_1element_1_1NeuralField2D.html#a4e4561bb48eab8b878f3dc96574923d4" target="_top" xlink:title=" ">
<polygon fill="white" stroke="#666666" points="149.5,-459.5 13.5,-459.5 13.5,-429.5 149.5,-429.5 149.5,-459.5"/>
<text text-anchor="start" x="21.5" y="-447.5" font-family="Helvetica,sans-Serif" font-size="10.00">dnf_composer::element</text>
<text text-anchor="middle" x="81.5" y="-436.5" font-family="Helvetica,sans-Serif" font-size="10.00">::NeuralField2D::toString</text>
</a>
</g>
</g>
<!-- Node1&#45;&gt;Node22 -->
<g id="edge21_Node000001_Node000022" class="edge">
<title>Node1&#45;&gt;Node22</title>
<g id="a_edge21_Node000001_Node000022"><a xlink:title=" ">
<path fill="none" stroke="#63b8ff" d="M275.19,-713.56C265.62,-656.62 237.24,-535.01 163,-468.5 158.98,-464.9 154.44,-461.84 149.62,-459.24"/>
<polygon fill="#63b8ff" stroke="#63b8ff" points="271.78,-714.4 276.81,-723.73 278.69,-713.3 271.78,-714.4"/>
</a>
</g>
</g>
<!-- Node23 -->
<g id="Node000023" class="node">
<title>Node23</title>
<g id="a_Node000023"><a xlink:href="classdnf__composer_1_1element_1_1NormalNoise.html#a310344bc777d0f29351f0ffeaa3cd20c" target="_top" xlink:title=" ">
<polygon fill="white" stroke="#666666" points="147.5,-411.5 15.5,-411.5 15.5,-381.5 147.5,-381.5 147.5,-411.5"/>
<text text-anchor="start" x="23.5" y="-399.5" font-family="Helvetica,sans-Serif" font-size="10.00">dnf_composer::element</text>
<text text-anchor="middle" x="81.5" y="-388.5" font-family="Helvetica,sans-Serif" font-size="10.00">::NormalNoise::toString</text>
</a>
</g>
</g>
<!-- Node1&#45;&gt;Node23 -->
<g id="edge22_Node000001_Node000023" class="edge">
<title>Node1&#45;&gt;Node23</title>
<g id="a_edge22_Node000001_Node000023"><a xlink:title=" ">
<path fill="none" stroke="#63b8ff" d="M277.38,-713.33C271.33,-649.1 248.38,-501.27 163,-420.5 158.55,-416.29 153.39,-412.82 147.88,-409.95"/>
<polygon fill="#63b8ff" stroke="#63b8ff" points="273.93,-713.95 278.27,-723.61 280.9,-713.35 273.93,-713.95"/>
</a>
</g>
</g>
<!-- Node24 -->
<g id="Node000024" class="node">
<title>Node24</title>
<g id="a_Node000024"><a xlink:href="classdnf__composer_1_1element_1_1NormalNoise2D.html#a7bae54e92d8beef10452ddf4c1e93435" target="_top" xlink:title=" ">
<polygon fill="white" stroke="#666666" points="153.5,-363.5 9.5,-363.5 9.5,-333.5 153.5,-333.5 153.5,-363.5"/>
<text text-anchor="start" x="17.5" y="-351.5" font-family="Helvetica,sans-Serif" font-size="10.00">dnf_composer::element</text>
<text text-anchor="middle" x="81.5" y="-340.5" font-family="Helvetica,sans-Serif" font-size="10.00">::NormalNoise2D::toString</text>
</a>
</g>
</g>
<!-- Node1&#45;&gt;Node24 -->
<g id="edge23_Node000001_Node000024" class="edge">
<title>Node1&#45;&gt;Node24</title>
<g id="a_edge23_Node000001_Node000024"><a xlink:title=" ">
<path fill="none" stroke="#63b8ff" d="M279.1,-713.78C276.46,-643.17 259.93,-468.11 163,-372.5 159.57,-369.12 155.69,-366.21 151.53,-363.71"/>
<polygon fill="#63b8ff" stroke="#63b8ff" points="275.6,-713.91 279.4,-723.8 282.6,-713.7 275.6,-713.91"/>
</a>
</g>
</g>
<!-- Node25 -->
<g id="Node000025" class="node">
<title>Node25</title>
<g id="a_Node000025"><a xlink:href="classdnf__composer_1_1element_1_1OscillatoryKernel.html#aceabd095ff34c16767e66308bf408d63" target="_top" xlink:title=" ">
<polygon fill="white" stroke="#666666" points="147.5,-315 15.5,-315 15.5,-274 147.5,-274 147.5,-315"/>
<text text-anchor="start" x="23.5" y="-303" font-family="Helvetica,sans-Serif" font-size="10.00">dnf_composer::element</text>
<text text-anchor="start" x="23.5" y="-292" font-family="Helvetica,sans-Serif" font-size="10.00">::OscillatoryKernel::</text>
<text text-anchor="middle" x="81.5" y="-281" font-family="Helvetica,sans-Serif" font-size="10.00">toString</text>
</a>
</g>
</g>
<!-- Node1&#45;&gt;Node25 -->
<g id="edge24_Node000001_Node000025" class="edge">
<title>Node1&#45;&gt;Node25</title>
<g id="a_edge24_Node000001_Node000025"><a xlink:title=" ">
<path fill="none" stroke="#63b8ff" d="M279.95,-713.6C279.37,-637.36 267.34,-438.24 163,-324.5 158.56,-319.66 153.27,-315.6 147.56,-312.2"/>
<polygon fill="#63b8ff" stroke="#63b8ff" points="276.45,-713.93 279.96,-723.93 283.45,-713.93 276.45,-713.93"/>
</a>
</g>
</g>
<!-- Node26 -->
<g id="Node000026" class="node">
<title>Node26</title>
<g id="a_Node000026"><a xlink:href="classdnf__composer_1_1element_1_1OscillatoryKernel2D.html#af8470b33f4c637c87f142fb0c4eff923" target="_top" xlink:title=" ">
<polygon fill="white" stroke="#666666" points="147.5,-256 15.5,-256 15.5,-215 147.5,-215 147.5,-256"/>
<text text-anchor="start" x="23.5" y="-244" font-family="Helvetica,sans-Serif" font-size="10.00">dnf_composer::element</text>
<text text-anchor="start" x="23.5" y="-233" font-family="Helvetica,sans-Serif" font-size="10.00">::OscillatoryKernel2D</text>
<text text-anchor="middle" x="81.5" y="-222" font-family="Helvetica,sans-Serif" font-size="10.00">::toString</text>
</a>
</g>
</g>
<!-- Node1&#45;&gt;Node26 -->
<g id="edge25_Node000001_Node000026" class="edge">
<title>Node1&#45;&gt;Node26</title>
<g id="a_edge25_Node000001_Node000026"><a xlink:title=" ">
<path fill="none" stroke="#63b8ff" d="M275.79,-713.68C263.82,-618.8 223.41,-333.5 163,-265.5 158.64,-260.59 153.4,-256.49 147.72,-253.05"/>
<polygon fill="#63b8ff" stroke="#63b8ff" points="272.34,-714.28 277.05,-723.77 279.29,-713.42 272.34,-714.28"/>
</a>
</g>
</g>
<!-- Node27 -->
<g id="Node000027" class="node">
<title>Node27</title>
<g id="a_Node000027"><a xlink:href="classdnf__composer_1_1element_1_1Resize.html#a01d211cf228eccad7d1618280ed98050" target="_top" xlink:title=" ">
<polygon fill="white" stroke="#666666" points="147.5,-196.5 15.5,-196.5 15.5,-166.5 147.5,-166.5 147.5,-196.5"/>
<text text-anchor="start" x="23.5" y="-184.5" font-family="Helvetica,sans-Serif" font-size="10.00">dnf_composer::element</text>
<text text-anchor="middle" x="81.5" y="-173.5" font-family="Helvetica,sans-Serif" font-size="10.00">::Resize::toString</text>
</a>
</g>
</g>
<!-- Node1&#45;&gt;Node27 -->
<g id="edge26_Node000001_Node000027" class="edge">
<title>Node1&#45;&gt;Node27</title>
<g id="a_edge26_Node000001_Node000027"><a xlink:title=" ">
<path fill="none" stroke="#63b8ff" d="M276.88,-713.89C267.52,-611.39 232.51,-282.4 163,-206.5 158.65,-201.75 153.42,-197.9 147.74,-194.77"/>
<polygon fill="#63b8ff" stroke="#63b8ff" points="273.4,-714.26 277.78,-723.9 280.37,-713.63 273.4,-714.26"/>
</a>
</g>
</g>
<!-- Node28 -->
<g id="Node000028" class="node">
<title>Node28</title>
<g id="a_Node000028"><a xlink:href="classdnf__composer_1_1element_1_1Resize2D.html#a6ede09dafbe890913c78ff6189b5ef50" target="_top" xlink:title=" ">
<polygon fill="white" stroke="#666666" points="147.5,-148.5 15.5,-148.5 15.5,-118.5 147.5,-118.5 147.5,-148.5"/>
<text text-anchor="start" x="23.5" y="-136.5" font-family="Helvetica,sans-Serif" font-size="10.00">dnf_composer::element</text>
<text text-anchor="middle" x="81.5" y="-125.5" font-family="Helvetica,sans-Serif" font-size="10.00">::Resize2D::toString</text>
</a>
</g>
</g>
<!-- Node1&#45;&gt;Node28 -->
<g id="edge27_Node000001_Node000028" class="edge">
<title>Node1&#45;&gt;Node28</title>
<g id="a_edge27_Node000001_Node000028"><a xlink:title=" ">
<path fill="none" stroke="#63b8ff" d="M277.5,-713.65C269.84,-604.83 238.9,-240.88 163,-157.5 158.68,-152.75 153.47,-148.93 147.8,-145.85"/>
<polygon fill="#63b8ff" stroke="#63b8ff" points="274.03,-714.21 278.21,-723.94 281.01,-713.73 274.03,-714.21"/>
</a>
</g>
</g>
<!-- Node29 -->
<g id="Node000029" class="node">
<title>Node29</title>
<g id="a_Node000029"><a xlink:href="classdnf__composer_1_1element_1_1TimedGaussStimulus.html#afa9ab0ee32955f758cce483f5f274105" target="_top" xlink:title=" ">
<polygon fill="white" stroke="#666666" points="147.5,-100 15.5,-100 15.5,-59 147.5,-59 147.5,-100"/>
<text text-anchor="start" x="23.5" y="-88" font-family="Helvetica,sans-Serif" font-size="10.00">dnf_composer::element</text>
<text text-anchor="start" x="23.5" y="-77" font-family="Helvetica,sans-Serif" font-size="10.00">::TimedGaussStimulus</text>
<text text-anchor="middle" x="81.5" y="-66" font-family="Helvetica,sans-Serif" font-size="10.00">::toString</text>
</a>
</g>
</g>
<!-- Node1&#45;&gt;Node29 -->
<g id="edge28_Node000001_Node000029" class="edge">
<title>Node1&#45;&gt;Node29</title>
<g id="a_edge28_Node000001_Node000029"><a xlink:title=" ">
<path fill="none" stroke="#63b8ff" d="M277.79,-713.58C270.91,-599.41 241.66,-203.31 163,-109.5 158.69,-104.36 153.4,-100.1 147.62,-96.56"/>
<polygon fill="#63b8ff" stroke="#63b8ff" points="274.31,-713.95 278.39,-723.73 281.3,-713.54 274.31,-713.95"/>
</a>
</g>
</g>
<!-- Node30 -->
<g id="Node000030" class="node">
<title>Node30</title>
<g id="a_Node000030"><a xlink:href="classdnf__composer_1_1element_1_1TimedGaussStimulus2D.html#aea500c669bb14917031e728dcbbf948b" target="_top" xlink:title=" ">
<polygon fill="white" stroke="#666666" points="151.5,-41 11.5,-41 11.5,0 151.5,0 151.5,-41"/>
<text text-anchor="start" x="19.5" y="-29" font-family="Helvetica,sans-Serif" font-size="10.00">dnf_composer::element</text>
<text text-anchor="start" x="19.5" y="-18" font-family="Helvetica,sans-Serif" font-size="10.00">::TimedGaussStimulus2D</text>
<text text-anchor="middle" x="81.5" y="-7" font-family="Helvetica,sans-Serif" font-size="10.00">::toString</text>
</a>
</g>
</g>
<!-- Node1&#45;&gt;Node30 -->
<g id="edge29_Node000001_Node000030" class="edge">
<title>Node1&#45;&gt;Node30</title>
<g id="a_edge29_Node000001_Node000030"><a xlink:title=" ">
<path fill="none" stroke="#63b8ff" d="M278.34,-713.91C273.18,-593.58 248.7,-154.3 163,-50.5 159.77,-46.59 155.98,-43.19 151.83,-40.23"/>
<polygon fill="#63b8ff" stroke="#63b8ff" points="274.84,-714.07 278.75,-723.92 281.83,-713.78 274.84,-714.07"/>
</a>
</g>
</g>
</g>
</svg>
