<?xml version="1.0" encoding="UTF-8" standalone="no"?>
<!DOCTYPE svg PUBLIC "-//W3C//DTD SVG 1.1//EN"
 "http://www.w3.org/Graphics/SVG/1.1/DTD/svg11.dtd">
<!-- Generated by graphviz version 2.43.0 (0)
 -->
<!-- Title: include/elements/timed_gauss_stimulus.h Pages: 1 -->
<svg width="1264pt" height="335pt"
 viewBox="0.00 0.00 1264.00 335.00" xmlns="http://www.w3.org/2000/svg" xmlns:xlink="http://www.w3.org/1999/xlink">
<g id="graph0" class="graph" transform="scale(1 1) rotate(0) translate(4 331)">
<title>include/elements/timed_gauss_stimulus.h</title>
<!-- Node1 -->
<g id="Node000001" class="node">
<title>Node1</title>
<g id="a_Node000001"><a xlink:title=" ">
<polygon fill="#999999" stroke="#666666" points="858.5,-327 726.5,-327 726.5,-297 858.5,-297 858.5,-327"/>
<text text-anchor="start" x="734.5" y="-315" font-family="Helvetica,sans-Serif" font-size="10.00">include/elements/timed</text>
<text text-anchor="middle" x="792.5" y="-304" font-family="Helvetica,sans-Serif" font-size="10.00">_gauss_stimulus.h</text>
</a>
</g>
</g>
<!-- Node2 -->
<g id="Node000002" class="node">
<title>Node2</title>
<g id="a_Node000002"><a xlink:title=" ">
<polygon fill="#e0e0e0" stroke="#999999" points="958,-19 911,-19 911,0 958,0 958,-19"/>
<text text-anchor="middle" x="934.5" y="-7" font-family="Helvetica,sans-Serif" font-size="10.00">vector</text>
</a>
</g>
</g>
<!-- Node1&#45;&gt;Node2 -->
<g id="edge1_Node000001_Node000002" class="edge">
<title>Node1&#45;&gt;Node2</title>
<g id="a_edge1_Node000001_Node000002"><a xlink:title=" ">
<path fill="none" stroke="#63b8ff" d="M858.66,-304.56C969.93,-291.88 1182.5,-258.9 1182.5,-192 1182.5,-192 1182.5,-192 1182.5,-129.5 1182.5,-35.67 1036.4,-15.77 968.47,-11.59"/>
<polygon fill="#63b8ff" stroke="#63b8ff" points="968.45,-8.08 958.28,-11.05 968.08,-15.07 968.45,-8.08"/>
</a>
</g>
</g>
<!-- Node3 -->
<g id="Node000003" class="node">
<title>Node3</title>
<g id="a_Node000003"><a xlink:title=" ">
<polygon fill="#e0e0e0" stroke="#999999" points="1256,-261 1211,-261 1211,-242 1256,-242 1256,-261"/>
<text text-anchor="middle" x="1233.5" y="-249" font-family="Helvetica,sans-Serif" font-size="10.00">utility</text>
</a>
</g>
</g>
<!-- Node1&#45;&gt;Node3 -->
<g id="edge2_Node000001_Node000003" class="edge">
<title>Node1&#45;&gt;Node3</title>
<g id="a_edge2_Node000001_Node000003"><a xlink:title=" ">
<path fill="none" stroke="#63b8ff" d="M858.59,-304.92C938.85,-297.06 1078.18,-281.86 1196.5,-261 1197.96,-260.74 1199.45,-260.46 1200.95,-260.17"/>
<polygon fill="#63b8ff" stroke="#63b8ff" points="1201.81,-263.57 1210.88,-258.08 1200.37,-256.72 1201.81,-263.57"/>
</a>
</g>
</g>
<!-- Node4 -->
<g id="Node000004" class="node">
<title>Node4</title>
<g id="a_Node000004"><a xlink:title=" ">
<polygon fill="#e0e0e0" stroke="#999999" points="720.5,-19 664.5,-19 664.5,0 720.5,0 720.5,-19"/>
<text text-anchor="middle" x="692.5" y="-7" font-family="Helvetica,sans-Serif" font-size="10.00">sstream</text>
</a>
</g>
</g>
<!-- Node1&#45;&gt;Node4 -->
<g id="edge3_Node000001_Node000004" class="edge">
<title>Node1&#45;&gt;Node4</title>
<g id="a_edge3_Node000001_Node000004"><a xlink:title=" ">
<path fill="none" stroke="#63b8ff" d="M782.35,-296.76C767.99,-275.18 743.5,-232.44 743.5,-192 743.5,-192 743.5,-192 743.5,-129.5 743.5,-90.56 720.14,-49.82 705.04,-27.56"/>
<polygon fill="#63b8ff" stroke="#63b8ff" points="707.78,-25.37 699.17,-19.2 702.06,-29.4 707.78,-25.37"/>
</a>
</g>
</g>
<!-- Node5 -->
<g id="Node000005" class="node">
<title>Node5</title>
<g id="a_Node000005"><a xlink:title=" ">
<polygon fill="#e0e0e0" stroke="#999999" points="695.5,-79.5 639.5,-79.5 639.5,-60.5 695.5,-60.5 695.5,-79.5"/>
<text text-anchor="middle" x="667.5" y="-67.5" font-family="Helvetica,sans-Serif" font-size="10.00">iomanip</text>
</a>
</g>
</g>
<!-- Node1&#45;&gt;Node5 -->
<g id="edge4_Node000001_Node000005" class="edge">
<title>Node1&#45;&gt;Node5</title>
<g id="a_edge4_Node000001_Node000005"><a xlink:title=" ">
<path fill="none" stroke="#63b8ff" d="M768.34,-296.8C755.21,-287.98 739.62,-275.56 729.5,-261 691.24,-205.99 675.42,-125.86 669.96,-89.81"/>
<polygon fill="#63b8ff" stroke="#63b8ff" points="673.4,-89.15 668.53,-79.74 666.47,-90.13 673.4,-89.15"/>
</a>
</g>
</g>
<!-- Node6 -->
<g id="Node000006" class="node">
<title>Node6</title>
<g id="a_Node000006"><a xlink:href="math_8h.html" target="_top" xlink:title=" ">
<polygon fill="white" stroke="#666666" points="911.5,-261 833.5,-261 833.5,-242 911.5,-242 911.5,-261"/>
<text text-anchor="middle" x="872.5" y="-249" font-family="Helvetica,sans-Serif" font-size="10.00">tools/math.h</text>
</a>
</g>
</g>
<!-- Node1&#45;&gt;Node6 -->
<g id="edge5_Node000001_Node000006" class="edge">
<title>Node1&#45;&gt;Node6</title>
<g id="a_edge5_Node000001_Node000006"><a xlink:title=" ">
<path fill="none" stroke="#63b8ff" d="M811.86,-296.84C824.07,-287.91 839.8,-276.41 852.19,-267.35"/>
<polygon fill="#63b8ff" stroke="#63b8ff" points="854.5,-269.99 860.51,-261.27 850.37,-264.34 854.5,-269.99"/>
</a>
</g>
</g>
<!-- Node15 -->
<g id="Node000015" class="node">
<title>Node15</title>
<g id="a_Node000015"><a xlink:href="element_8h.html" target="_top" xlink:title=" ">
<polygon fill="white" stroke="#666666" points="430.5,-261 364.5,-261 364.5,-242 430.5,-242 430.5,-261"/>
<text text-anchor="middle" x="397.5" y="-249" font-family="Helvetica,sans-Serif" font-size="10.00">element.h</text>
</a>
</g>
</g>
<!-- Node1&#45;&gt;Node15 -->
<g id="edge15_Node000001_Node000015" class="edge">
<title>Node1&#45;&gt;Node15</title>
<g id="a_edge15_Node000001_Node000015"><a xlink:title=" ">
<path fill="none" stroke="#63b8ff" d="M726.38,-301.21C645.12,-289.17 509.55,-269.1 440.6,-258.88"/>
<polygon fill="#63b8ff" stroke="#63b8ff" points="440.93,-255.39 430.53,-257.39 439.91,-262.32 440.93,-255.39"/>
</a>
</g>
</g>
<!-- Node6&#45;&gt;Node2 -->
<g id="edge6_Node000006_Node000002" class="edge">
<title>Node6&#45;&gt;Node2</title>
<g id="a_edge6_Node000006_Node000002"><a xlink:title=" ">
<path fill="none" stroke="#63b8ff" d="M911.74,-247.12C962.5,-241.83 1046.66,-229.68 1065.5,-206 1116.75,-141.59 1006.21,-57.48 956.78,-24.57"/>
<polygon fill="#63b8ff" stroke="#63b8ff" points="958.6,-21.58 948.32,-19.04 954.77,-27.44 958.6,-21.58"/>
</a>
</g>
</g>
<!-- Node7 -->
<g id="Node000007" class="node">
<title>Node7</title>
<g id="a_Node000007"><a xlink:title=" ">
<polygon fill="#e0e0e0" stroke="#999999" points="1154.5,-200.5 1112.5,-200.5 1112.5,-181.5 1154.5,-181.5 1154.5,-200.5"/>
<text text-anchor="middle" x="1133.5" y="-188.5" font-family="Helvetica,sans-Serif" font-size="10.00">array</text>
</a>
</g>
</g>
<!-- Node6&#45;&gt;Node7 -->
<g id="edge7_Node000006_Node000007" class="edge">
<title>Node6&#45;&gt;Node7</title>
<g id="a_edge7_Node000006_Node000007"><a xlink:title=" ">
<path fill="none" stroke="#63b8ff" d="M911.82,-245.03C957.34,-238.18 1034.26,-224.99 1098.5,-206 1100.43,-205.43 1102.4,-204.79 1104.37,-204.12"/>
<polygon fill="#63b8ff" stroke="#63b8ff" points="1105.95,-207.27 1114.1,-200.5 1103.51,-200.7 1105.95,-207.27"/>
</a>
</g>
</g>
<!-- Node8 -->
<g id="Node000008" class="node">
<title>Node8</title>
<g id="a_Node000008"><a xlink:title=" ">
<polygon fill="#e0e0e0" stroke="#999999" points="1056,-200.5 1009,-200.5 1009,-181.5 1056,-181.5 1056,-200.5"/>
<text text-anchor="middle" x="1032.5" y="-188.5" font-family="Helvetica,sans-Serif" font-size="10.00">cmath</text>
</a>
</g>
</g>
<!-- Node6&#45;&gt;Node8 -->
<g id="edge8_Node000006_Node000008" class="edge">
<title>Node6&#45;&gt;Node8</title>
<g id="a_edge8_Node000006_Node000008"><a xlink:title=" ">
<path fill="none" stroke="#63b8ff" d="M899.19,-241.89C925.24,-233.34 965.89,-219.56 1000.5,-206 1001.71,-205.53 1002.93,-205.04 1004.17,-204.53"/>
<polygon fill="#63b8ff" stroke="#63b8ff" points="1005.79,-207.65 1013.65,-200.54 1003.07,-201.2 1005.79,-207.65"/>
</a>
</g>
</g>
<!-- Node9 -->
<g id="Node000009" class="node">
<title>Node9</title>
<g id="a_Node000009"><a xlink:title=" ">
<polygon fill="#e0e0e0" stroke="#999999" points="603.5,-200.5 539.5,-200.5 539.5,-181.5 603.5,-181.5 603.5,-200.5"/>
<text text-anchor="middle" x="571.5" y="-188.5" font-family="Helvetica,sans-Serif" font-size="10.00">algorithm</text>
</a>
</g>
</g>
<!-- Node6&#45;&gt;Node9 -->
<g id="edge9_Node000006_Node000009" class="edge">
<title>Node6&#45;&gt;Node9</title>
<g id="a_edge9_Node000006_Node000009"><a xlink:title=" ">
<path fill="none" stroke="#63b8ff" d="M833.33,-245.78C782.08,-239.15 689.72,-225.66 612.5,-206 609.7,-205.29 606.81,-204.47 603.93,-203.6"/>
<polygon fill="#63b8ff" stroke="#63b8ff" points="604.88,-200.23 594.29,-200.5 602.74,-206.9 604.88,-200.23"/>
</a>
</g>
</g>
<!-- Node10 -->
<g id="Node000010" class="node">
<title>Node10</title>
<g id="a_Node000010"><a xlink:title=" ">
<polygon fill="#e0e0e0" stroke="#999999" points="677.5,-200.5 621.5,-200.5 621.5,-181.5 677.5,-181.5 677.5,-200.5"/>
<text text-anchor="middle" x="649.5" y="-188.5" font-family="Helvetica,sans-Serif" font-size="10.00">numeric</text>
</a>
</g>
</g>
<!-- Node6&#45;&gt;Node10 -->
<g id="edge10_Node000006_Node000010" class="edge">
<title>Node6&#45;&gt;Node10</title>
<g id="a_edge10_Node000006_Node000010"><a xlink:title=" ">
<path fill="none" stroke="#63b8ff" d="M840.07,-241.99C799.59,-231.37 730.45,-213.24 687.52,-201.97"/>
<polygon fill="#63b8ff" stroke="#63b8ff" points="688.29,-198.56 677.73,-199.4 686.51,-205.33 688.29,-198.56"/>
</a>
</g>
</g>
<!-- Node11 -->
<g id="Node000011" class="node">
<title>Node11</title>
<g id="a_Node000011"><a xlink:title=" ">
<polygon fill="#e0e0e0" stroke="#999999" points="875,-200.5 810,-200.5 810,-181.5 875,-181.5 875,-200.5"/>
<text text-anchor="middle" x="842.5" y="-188.5" font-family="Helvetica,sans-Serif" font-size="10.00">functional</text>
</a>
</g>
</g>
<!-- Node6&#45;&gt;Node11 -->
<g id="edge11_Node000006_Node000011" class="edge">
<title>Node6&#45;&gt;Node11</title>
<g id="a_edge11_Node000006_Node000011"><a xlink:title=" ">
<path fill="none" stroke="#63b8ff" d="M868.07,-241.87C863.73,-233.4 856.98,-220.24 851.51,-209.57"/>
<polygon fill="#63b8ff" stroke="#63b8ff" points="854.62,-207.97 846.94,-200.67 848.39,-211.16 854.62,-207.97"/>
</a>
</g>
</g>
<!-- Node12 -->
<g id="Node000012" class="node">
<title>Node12</title>
<g id="a_Node000012"><a xlink:title=" ">
<polygon fill="#e0e0e0" stroke="#999999" points="800.5,-19 746.5,-19 746.5,0 800.5,0 800.5,-19"/>
<text text-anchor="middle" x="773.5" y="-7" font-family="Helvetica,sans-Serif" font-size="10.00">random</text>
</a>
</g>
</g>
<!-- Node6&#45;&gt;Node12 -->
<g id="edge12_Node000006_Node000012" class="edge">
<title>Node6&#45;&gt;Node12</title>
<g id="a_edge12_Node000006_Node000012"><a xlink:title=" ">
<path fill="none" stroke="#63b8ff" d="M848.82,-241.89C832.79,-234.78 812.6,-223.07 801.5,-206 765.23,-150.24 767.85,-66.71 771.25,-29.53"/>
<polygon fill="#63b8ff" stroke="#63b8ff" points="774.77,-29.49 772.33,-19.18 767.81,-28.76 774.77,-29.49"/>
</a>
</g>
</g>
<!-- Node13 -->
<g id="Node000013" class="node">
<title>Node13</title>
<g id="a_Node000013"><a xlink:title=" ">
<polygon fill="#e0e0e0" stroke="#999999" points="991,-200.5 932,-200.5 932,-181.5 991,-181.5 991,-200.5"/>
<text text-anchor="middle" x="961.5" y="-188.5" font-family="Helvetica,sans-Serif" font-size="10.00">numbers</text>
</a>
</g>
</g>
<!-- Node6&#45;&gt;Node13 -->
<g id="edge13_Node000006_Node000013" class="edge">
<title>Node6&#45;&gt;Node13</title>
<g id="a_edge13_Node000006_Node000013"><a xlink:title=" ">
<path fill="none" stroke="#63b8ff" d="M885.63,-241.87C899.83,-232.54 922.69,-217.51 939.62,-206.38"/>
<polygon fill="#63b8ff" stroke="#63b8ff" points="941.88,-209.08 948.31,-200.67 938.03,-203.24 941.88,-209.08"/>
</a>
</g>
</g>
<!-- Node14 -->
<g id="Node000014" class="node">
<title>Node14</title>
<g id="a_Node000014"><a xlink:title=" ">
<polygon fill="#e0e0e0" stroke="#999999" points="887,-19 832,-19 832,0 887,0 887,-19"/>
<text text-anchor="middle" x="859.5" y="-7" font-family="Helvetica,sans-Serif" font-size="10.00">fstream</text>
</a>
</g>
</g>
<!-- Node6&#45;&gt;Node14 -->
<g id="edge14_Node000006_Node000014" class="edge">
<title>Node6&#45;&gt;Node14</title>
<g id="a_edge14_Node000006_Node000014"><a xlink:title=" ">
<path fill="none" stroke="#63b8ff" d="M875.59,-241.77C878.55,-232.9 882.82,-218.69 884.5,-206 893.13,-140.8 874.71,-63.31 864.99,-28.73"/>
<polygon fill="#63b8ff" stroke="#63b8ff" points="868.34,-27.7 862.19,-19.08 861.62,-29.66 868.34,-27.7"/>
</a>
</g>
</g>
<!-- Node15&#45;&gt;Node2 -->
<g id="edge16_Node000015_Node000002" class="edge">
<title>Node15&#45;&gt;Node2</title>
<g id="a_edge16_Node000015_Node000002"><a xlink:title=" ">
<path fill="none" stroke="#63b8ff" d="M419.36,-241.95C439.1,-233.85 468.63,-220.74 492.5,-206 510.81,-194.69 511.92,-186.85 530.5,-176 659.64,-100.59 829.68,-43.11 900.88,-20.72"/>
<polygon fill="#63b8ff" stroke="#63b8ff" points="902.15,-23.99 910.65,-17.67 900.06,-17.31 902.15,-23.99"/>
</a>
</g>
</g>
<!-- Node15&#45;&gt;Node9 -->
<g id="edge21_Node000015_Node000009" class="edge">
<title>Node15&#45;&gt;Node9</title>
<g id="a_edge21_Node000015_Node000009"><a xlink:title=" ">
<path fill="none" stroke="#63b8ff" d="M422.8,-241.99C452.7,-231.94 502.62,-215.16 536.28,-203.84"/>
<polygon fill="#63b8ff" stroke="#63b8ff" points="537.8,-207.02 546.17,-200.52 535.57,-200.39 537.8,-207.02"/>
</a>
</g>
</g>
<!-- Node15&#45;&gt;Node10 -->
<g id="edge22_Node000015_Node000010" class="edge">
<title>Node15&#45;&gt;Node10</title>
<g id="a_edge22_Node000015_Node000010"><a xlink:title=" ">
<path fill="none" stroke="#63b8ff" d="M430.68,-245.31C473.25,-238.26 549.18,-224.41 612.5,-206 614.64,-205.38 616.84,-204.69 619.04,-203.96"/>
<polygon fill="#63b8ff" stroke="#63b8ff" points="620.31,-207.22 628.56,-200.58 617.97,-200.62 620.31,-207.22"/>
</a>
</g>
</g>
<!-- Node16 -->
<g id="Node000016" class="node">
<title>Node16</title>
<g id="a_Node000016"><a xlink:title=" ">
<polygon fill="#e0e0e0" stroke="#999999" points="269.5,-19 225.5,-19 225.5,0 269.5,0 269.5,-19"/>
<text text-anchor="middle" x="247.5" y="-7" font-family="Helvetica,sans-Serif" font-size="10.00">string</text>
</a>
</g>
</g>
<!-- Node15&#45;&gt;Node16 -->
<g id="edge17_Node000015_Node000016" class="edge">
<title>Node15&#45;&gt;Node16</title>
<g id="a_edge17_Node000015_Node000016"><a xlink:title=" ">
<path fill="none" stroke="#63b8ff" d="M364.37,-248.8C334.14,-245.35 290.72,-235.23 267.5,-206 225.95,-153.71 236.25,-67.08 243.4,-29.2"/>
<polygon fill="#63b8ff" stroke="#63b8ff" points="246.89,-29.6 245.45,-19.1 240.03,-28.2 246.89,-29.6"/>
</a>
</g>
</g>
<!-- Node17 -->
<g id="Node000017" class="node">
<title>Node17</title>
<g id="a_Node000017"><a xlink:title=" ">
<polygon fill="#e0e0e0" stroke="#999999" points="369,-200.5 276,-200.5 276,-181.5 369,-181.5 369,-200.5"/>
<text text-anchor="middle" x="322.5" y="-188.5" font-family="Helvetica,sans-Serif" font-size="10.00">unordered_map</text>
</a>
</g>
</g>
<!-- Node15&#45;&gt;Node17 -->
<g id="edge18_Node000015_Node000017" class="edge">
<title>Node15&#45;&gt;Node17</title>
<g id="a_edge18_Node000015_Node000017"><a xlink:title=" ">
<path fill="none" stroke="#63b8ff" d="M386.43,-241.87C374.69,-232.71 355.91,-218.06 341.74,-207.01"/>
<polygon fill="#63b8ff" stroke="#63b8ff" points="343.65,-204.06 333.61,-200.67 339.34,-209.58 343.65,-204.06"/>
</a>
</g>
</g>
<!-- Node18 -->
<g id="Node000018" class="node">
<title>Node18</title>
<g id="a_Node000018"><a xlink:title=" ">
<polygon fill="#e0e0e0" stroke="#999999" points="483.5,-200.5 425.5,-200.5 425.5,-181.5 483.5,-181.5 483.5,-200.5"/>
<text text-anchor="middle" x="454.5" y="-188.5" font-family="Helvetica,sans-Serif" font-size="10.00">memory</text>
</a>
</g>
</g>
<!-- Node15&#45;&gt;Node18 -->
<g id="edge19_Node000015_Node000018" class="edge">
<title>Node15&#45;&gt;Node18</title>
<g id="a_edge19_Node000015_Node000018"><a xlink:title=" ">
<path fill="none" stroke="#63b8ff" d="M405.91,-241.87C414.58,-232.97 428.3,-218.89 438.95,-207.95"/>
<polygon fill="#63b8ff" stroke="#63b8ff" points="441.58,-210.27 446.05,-200.67 436.57,-205.39 441.58,-210.27"/>
</a>
</g>
</g>
<!-- Node19 -->
<g id="Node000019" class="node">
<title>Node19</title>
<g id="a_Node000019"><a xlink:title=" ">
<polygon fill="#e0e0e0" stroke="#999999" points="69.5,-200.5 19.5,-200.5 19.5,-181.5 69.5,-181.5 69.5,-200.5"/>
<text text-anchor="middle" x="44.5" y="-188.5" font-family="Helvetica,sans-Serif" font-size="10.00">ranges</text>
</a>
</g>
</g>
<!-- Node15&#45;&gt;Node19 -->
<g id="edge20_Node000015_Node000019" class="edge">
<title>Node15&#45;&gt;Node19</title>
<g id="a_edge20_Node000015_Node000019"><a xlink:title=" ">
<path fill="none" stroke="#63b8ff" d="M364.35,-248.63C305.77,-244.72 180.51,-233.64 78.5,-206 76.56,-205.47 74.58,-204.87 72.6,-204.2"/>
<polygon fill="#63b8ff" stroke="#63b8ff" points="73.5,-200.8 62.91,-200.57 71.04,-207.36 73.5,-200.8"/>
</a>
</g>
</g>
<!-- Node20 -->
<g id="Node000020" class="node">
<title>Node20</title>
<g id="a_Node000020"><a xlink:href="exception_8h.html" target="_top" xlink:title=" ">
<polygon fill="white" stroke="#666666" points="181.5,-79.5 51.5,-79.5 51.5,-60.5 181.5,-60.5 181.5,-79.5"/>
<text text-anchor="middle" x="116.5" y="-67.5" font-family="Helvetica,sans-Serif" font-size="10.00">exceptions/exception.h</text>
</a>
</g>
</g>
<!-- Node15&#45;&gt;Node20 -->
<g id="edge23_Node000015_Node000020" class="edge">
<title>Node15&#45;&gt;Node20</title>
<g id="a_edge23_Node000015_Node000020"><a xlink:title=" ">
<path fill="none" stroke="#63b8ff" d="M364.25,-249.16C274.76,-245.22 33.9,-232.25 10.5,-206 -27.3,-163.61 49.93,-109.51 91.87,-84.64"/>
<polygon fill="#63b8ff" stroke="#63b8ff" points="93.82,-87.55 100.71,-79.51 90.31,-81.5 93.82,-87.55"/>
</a>
</g>
</g>
<!-- Node23 -->
<g id="Node000023" class="node">
<title>Node23</title>
<g id="a_Node000023"><a xlink:href="logger_8h.html" target="_top" xlink:title=" ">
<polygon fill="white" stroke="#666666" points="439,-140 356,-140 356,-121 439,-121 439,-140"/>
<text text-anchor="middle" x="397.5" y="-128" font-family="Helvetica,sans-Serif" font-size="10.00">tools/logger.h</text>
</a>
</g>
</g>
<!-- Node15&#45;&gt;Node23 -->
<g id="edge27_Node000015_Node000023" class="edge">
<title>Node15&#45;&gt;Node23</title>
<g id="a_edge27_Node000015_Node000023"><a xlink:title=" ">
<path fill="none" stroke="#63b8ff" d="M397.5,-241.94C397.5,-222.91 397.5,-176.69 397.5,-150.47"/>
<polygon fill="#63b8ff" stroke="#63b8ff" points="401,-150.3 397.5,-140.3 394,-150.3 401,-150.3"/>
</a>
</g>
</g>
<!-- Node29 -->
<g id="Node000029" class="node">
<title>Node29</title>
<g id="a_Node000029"><a xlink:href="element__parameters_8h.html" target="_top" xlink:title=" ">
<polygon fill="white" stroke="#666666" points="219,-206 88,-206 88,-176 219,-176 219,-206"/>
<text text-anchor="start" x="96" y="-194" font-family="Helvetica,sans-Serif" font-size="10.00">element_parameters</text>
<text text-anchor="middle" x="153.5" y="-183" font-family="Helvetica,sans-Serif" font-size="10.00">/element_parameters.h</text>
</a>
</g>
</g>
<!-- Node15&#45;&gt;Node29 -->
<g id="edge42_Node000015_Node000029" class="edge">
<title>Node15&#45;&gt;Node29</title>
<g id="a_edge42_Node000015_Node000029"><a xlink:title=" ">
<path fill="none" stroke="#63b8ff" d="M364.34,-242.55C327.92,-233.82 268.43,-219.56 221.92,-208.4"/>
<polygon fill="#63b8ff" stroke="#63b8ff" points="222.44,-204.93 211.9,-206 220.81,-211.74 222.44,-204.93"/>
</a>
</g>
</g>
<!-- Node20&#45;&gt;Node16 -->
<g id="edge26_Node000020_Node000016" class="edge">
<title>Node20&#45;&gt;Node16</title>
<g id="a_edge26_Node000020_Node000016"><a xlink:title=" ">
<path fill="none" stroke="#63b8ff" d="M135.55,-60.49C157.47,-50.7 193.71,-34.52 218.99,-23.23"/>
<polygon fill="#63b8ff" stroke="#63b8ff" points="220.72,-26.29 228.43,-19.02 217.87,-19.9 220.72,-26.29"/>
</a>
</g>
</g>
<!-- Node21 -->
<g id="Node000021" class="node">
<title>Node21</title>
<g id="a_Node000021"><a xlink:title=" ">
<polygon fill="#e0e0e0" stroke="#999999" points="174.5,-19 124.5,-19 124.5,0 174.5,0 174.5,-19"/>
<text text-anchor="middle" x="149.5" y="-7" font-family="Helvetica,sans-Serif" font-size="10.00">cstdint</text>
</a>
</g>
</g>
<!-- Node20&#45;&gt;Node21 -->
<g id="edge24_Node000020_Node000021" class="edge">
<title>Node20&#45;&gt;Node21</title>
<g id="a_edge24_Node000020_Node000021"><a xlink:title=" ">
<path fill="none" stroke="#63b8ff" d="M121.37,-60.37C126.14,-51.9 133.57,-38.74 139.59,-28.07"/>
<polygon fill="#63b8ff" stroke="#63b8ff" points="142.74,-29.6 144.61,-19.17 136.65,-26.16 142.74,-29.6"/>
</a>
</g>
</g>
<!-- Node22 -->
<g id="Node000022" class="node">
<title>Node22</title>
<g id="a_Node000022"><a xlink:title=" ">
<polygon fill="#e0e0e0" stroke="#999999" points="106,-19 41,-19 41,0 106,0 106,-19"/>
<text text-anchor="middle" x="73.5" y="-7" font-family="Helvetica,sans-Serif" font-size="10.00">exception</text>
</a>
</g>
</g>
<!-- Node20&#45;&gt;Node22 -->
<g id="edge25_Node000020_Node000022" class="edge">
<title>Node20&#45;&gt;Node22</title>
<g id="a_edge25_Node000020_Node000022"><a xlink:title=" ">
<path fill="none" stroke="#63b8ff" d="M110.15,-60.37C103.8,-51.73 93.86,-38.2 85.93,-27.42"/>
<polygon fill="#63b8ff" stroke="#63b8ff" points="88.61,-25.15 79.87,-19.17 82.97,-29.3 88.61,-25.15"/>
</a>
</g>
</g>
<!-- Node23&#45;&gt;Node5 -->
<g id="edge31_Node000023_Node000005" class="edge">
<title>Node23&#45;&gt;Node5</title>
<g id="a_edge31_Node000023_Node000005"><a xlink:title=" ">
<path fill="none" stroke="#63b8ff" d="M439.25,-123.76C486.27,-116.77 564.71,-103.58 630.5,-85 632.65,-84.39 634.85,-83.72 637.05,-82.99"/>
<polygon fill="#63b8ff" stroke="#63b8ff" points="638.31,-86.26 646.58,-79.64 635.98,-79.66 638.31,-86.26"/>
</a>
</g>
</g>
<!-- Node23&#45;&gt;Node16 -->
<g id="edge29_Node000023_Node000016" class="edge">
<title>Node23&#45;&gt;Node16</title>
<g id="a_edge29_Node000023_Node000016"><a xlink:title=" ">
<path fill="none" stroke="#63b8ff" d="M386.71,-120.94C361.54,-100.97 298.63,-51.06 266.72,-25.75"/>
<polygon fill="#63b8ff" stroke="#63b8ff" points="268.6,-22.77 258.59,-19.3 264.25,-28.26 268.6,-22.77"/>
</a>
</g>
</g>
<!-- Node23&#45;&gt;Node20 -->
<g id="edge33_Node000023_Node000020" class="edge">
<title>Node23&#45;&gt;Node20</title>
<g id="a_edge33_Node000023_Node000020"><a xlink:title=" ">
<path fill="none" stroke="#63b8ff" d="M356.64,-120.99C306.59,-110.57 221.78,-92.92 167.5,-81.62"/>
<polygon fill="#63b8ff" stroke="#63b8ff" points="167.91,-78.13 157.41,-79.52 166.48,-84.98 167.91,-78.13"/>
</a>
</g>
</g>
<!-- Node24 -->
<g id="Node000024" class="node">
<title>Node24</title>
<g id="a_Node000024"><a xlink:title=" ">
<polygon fill="#e0e0e0" stroke="#999999" points="428.5,-79.5 368.5,-79.5 368.5,-60.5 428.5,-60.5 428.5,-79.5"/>
<text text-anchor="middle" x="398.5" y="-67.5" font-family="Helvetica,sans-Serif" font-size="10.00">iostream</text>
</a>
</g>
</g>
<!-- Node23&#45;&gt;Node24 -->
<g id="edge28_Node000023_Node000024" class="edge">
<title>Node23&#45;&gt;Node24</title>
<g id="a_edge28_Node000023_Node000024"><a xlink:title=" ">
<path fill="none" stroke="#63b8ff" d="M397.65,-120.87C397.78,-112.75 398,-100.31 398.18,-89.89"/>
<polygon fill="#63b8ff" stroke="#63b8ff" points="401.68,-89.73 398.35,-79.67 394.68,-89.61 401.68,-89.73"/>
</a>
</g>
</g>
<!-- Node25 -->
<g id="Node000025" class="node">
<title>Node25</title>
<g id="a_Node000025"><a xlink:title=" ">
<polygon fill="#e0e0e0" stroke="#999999" points="455.5,-19 405.5,-19 405.5,0 455.5,0 455.5,-19"/>
<text text-anchor="middle" x="430.5" y="-7" font-family="Helvetica,sans-Serif" font-size="10.00">chrono</text>
</a>
</g>
</g>
<!-- Node23&#45;&gt;Node25 -->
<g id="edge30_Node000023_Node000025" class="edge">
<title>Node23&#45;&gt;Node25</title>
<g id="a_edge30_Node000023_Node000025"><a xlink:title=" ">
<path fill="none" stroke="#63b8ff" d="M386.79,-120.93C377.56,-112.8 364.91,-99.68 359.5,-85 354.88,-72.49 353.04,-66.67 359.5,-55 367.4,-40.73 382,-30.42 395.91,-23.34"/>
<polygon fill="#63b8ff" stroke="#63b8ff" points="397.76,-26.35 405.35,-18.95 394.8,-20 397.76,-26.35"/>
</a>
</g>
</g>
<!-- Node26 -->
<g id="Node000026" class="node">
<title>Node26</title>
<g id="a_Node000026"><a xlink:title=" ">
<polygon fill="#e0e0e0" stroke="#999999" points="554,-85 447,-85 447,-55 554,-55 554,-85"/>
<text text-anchor="start" x="455" y="-73" font-family="Helvetica,sans-Serif" font-size="10.00">imgui&#45;platform&#45;kit</text>
<text text-anchor="middle" x="500.5" y="-62" font-family="Helvetica,sans-Serif" font-size="10.00">/log_window.h</text>
</a>
</g>
</g>
<!-- Node23&#45;&gt;Node26 -->
<g id="edge32_Node000023_Node000026" class="edge">
<title>Node23&#45;&gt;Node26</title>
<g id="a_edge32_Node000023_Node000026"><a xlink:title=" ">
<path fill="none" stroke="#63b8ff" d="M412.7,-120.87C426.8,-112.86 448.3,-100.65 466.49,-90.31"/>
<polygon fill="#63b8ff" stroke="#63b8ff" points="468.68,-93.1 475.65,-85.11 465.22,-87.01 468.68,-93.1"/>
</a>
</g>
</g>
<!-- Node27 -->
<g id="Node000027" class="node">
<title>Node27</title>
<g id="a_Node000027"><a xlink:href="utils_8h.html" target="_top" xlink:title=" ">
<polygon fill="white" stroke="#666666" points="621,-79.5 574,-79.5 574,-60.5 621,-60.5 621,-79.5"/>
<text text-anchor="middle" x="597.5" y="-67.5" font-family="Helvetica,sans-Serif" font-size="10.00">utils.h</text>
</a>
</g>
</g>
<!-- Node23&#45;&gt;Node27 -->
<g id="edge34_Node000023_Node000027" class="edge">
<title>Node23&#45;&gt;Node27</title>
<g id="a_edge34_Node000023_Node000027"><a xlink:title=" ">
<path fill="none" stroke="#63b8ff" d="M434.83,-120.95C468.74,-112.84 519.97,-99.73 563.5,-85 565.12,-84.45 566.77,-83.86 568.44,-83.25"/>
<polygon fill="#63b8ff" stroke="#63b8ff" points="569.83,-86.46 577.88,-79.58 567.3,-79.94 569.83,-86.46"/>
</a>
</g>
</g>
<!-- Node27&#45;&gt;Node2 -->
<g id="edge36_Node000027_Node000002" class="edge">
<title>Node27&#45;&gt;Node2</title>
<g id="a_edge36_Node000027_Node000002"><a xlink:title=" ">
<path fill="none" stroke="#63b8ff" d="M615.34,-60.41C620.17,-58.37 625.46,-56.38 630.5,-55 745.54,-23.42 779.07,-40.04 896.5,-19 897.95,-18.74 899.44,-18.46 900.94,-18.17"/>
<polygon fill="#63b8ff" stroke="#63b8ff" points="901.76,-21.57 910.84,-16.12 900.34,-14.72 901.76,-21.57"/>
</a>
</g>
</g>
<!-- Node27&#45;&gt;Node4 -->
<g id="edge38_Node000027_Node000004" class="edge">
<title>Node27&#45;&gt;Node4</title>
<g id="a_edge38_Node000027_Node000004"><a xlink:title=" ">
<path fill="none" stroke="#63b8ff" d="M611.52,-60.37C626.81,-50.95 651.53,-35.73 669.64,-24.58"/>
<polygon fill="#63b8ff" stroke="#63b8ff" points="671.74,-27.39 678.42,-19.17 668.07,-21.43 671.74,-27.39"/>
</a>
</g>
</g>
<!-- Node27&#45;&gt;Node12 -->
<g id="edge37_Node000027_Node000012" class="edge">
<title>Node27&#45;&gt;Node12</title>
<g id="a_edge37_Node000027_Node000012"><a xlink:title=" ">
<path fill="none" stroke="#63b8ff" d="M616.91,-60.38C621.35,-58.52 626.06,-56.63 630.5,-55 666.09,-41.95 707.53,-29.33 736.61,-20.88"/>
<polygon fill="#63b8ff" stroke="#63b8ff" points="737.71,-24.21 746.35,-18.07 735.77,-17.48 737.71,-24.21"/>
</a>
</g>
</g>
<!-- Node27&#45;&gt;Node14 -->
<g id="edge39_Node000027_Node000014" class="edge">
<title>Node27&#45;&gt;Node14</title>
<g id="a_edge39_Node000027_Node000014"><a xlink:title=" ">
<path fill="none" stroke="#63b8ff" d="M615.75,-60.46C620.48,-58.46 625.62,-56.49 630.5,-55 648.53,-49.49 761.51,-28.45 821.76,-17.39"/>
<polygon fill="#63b8ff" stroke="#63b8ff" points="822.45,-20.82 831.65,-15.57 821.19,-13.93 822.45,-20.82"/>
</a>
</g>
</g>
<!-- Node27&#45;&gt;Node16 -->
<g id="edge35_Node000027_Node000016" class="edge">
<title>Node27&#45;&gt;Node16</title>
<g id="a_edge35_Node000027_Node000016"><a xlink:title=" ">
<path fill="none" stroke="#63b8ff" d="M579.09,-60.44C574.11,-58.4 568.67,-56.41 563.5,-55 462.08,-27.45 337.46,-16.29 279.7,-12.36"/>
<polygon fill="#63b8ff" stroke="#63b8ff" points="279.92,-8.87 269.72,-11.71 279.47,-15.86 279.92,-8.87"/>
</a>
</g>
</g>
<!-- Node27&#45;&gt;Node25 -->
<g id="edge40_Node000027_Node000025" class="edge">
<title>Node27&#45;&gt;Node25</title>
<g id="a_edge40_Node000027_Node000025"><a xlink:title=" ">
<path fill="none" stroke="#63b8ff" d="M577.45,-60.48C572.89,-58.62 568.04,-56.69 563.5,-55 530.52,-42.71 492.39,-30.11 465.43,-21.47"/>
<polygon fill="#63b8ff" stroke="#63b8ff" points="466.27,-18.07 455.68,-18.36 464.14,-24.74 466.27,-18.07"/>
</a>
</g>
</g>
<!-- Node28 -->
<g id="Node000028" class="node">
<title>Node28</title>
<g id="a_Node000028"><a xlink:title=" ">
<polygon fill="#e0e0e0" stroke="#999999" points="631.5,-19 563.5,-19 563.5,0 631.5,0 631.5,-19"/>
<text text-anchor="middle" x="597.5" y="-7" font-family="Helvetica,sans-Serif" font-size="10.00">filesystem</text>
</a>
</g>
</g>
<!-- Node27&#45;&gt;Node28 -->
<g id="edge41_Node000027_Node000028" class="edge">
<title>Node27&#45;&gt;Node28</title>
<g id="a_edge41_Node000027_Node000028"><a xlink:title=" ">
<path fill="none" stroke="#63b8ff" d="M597.5,-60.37C597.5,-52.25 597.5,-39.81 597.5,-29.39"/>
<polygon fill="#63b8ff" stroke="#63b8ff" points="601,-29.17 597.5,-19.17 594,-29.17 601,-29.17"/>
</a>
</g>
</g>
<!-- Node29&#45;&gt;Node16 -->
<g id="edge44_Node000029_Node000016" class="edge">
<title>Node29&#45;&gt;Node16</title>
<g id="a_edge44_Node000029_Node000016"><a xlink:title=" ">
<path fill="none" stroke="#63b8ff" d="M163.22,-175.84C169.82,-165.99 178.58,-152.43 185.5,-140 207.03,-101.31 228.53,-53.97 239.68,-28.6"/>
<polygon fill="#63b8ff" stroke="#63b8ff" points="243,-29.73 243.79,-19.17 236.59,-26.94 243,-29.73"/>
</a>
</g>
</g>
<!-- Node29&#45;&gt;Node23 -->
<g id="edge46_Node000029_Node000023" class="edge">
<title>Node29&#45;&gt;Node23</title>
<g id="a_edge46_Node000029_Node000023"><a xlink:title=" ">
<path fill="none" stroke="#63b8ff" d="M211.94,-175.99C254.87,-165.7 312.37,-151.91 351.92,-142.43"/>
<polygon fill="#63b8ff" stroke="#63b8ff" points="352.91,-145.79 361.82,-140.05 351.28,-138.98 352.91,-145.79"/>
</a>
</g>
</g>
<!-- Node30 -->
<g id="Node000030" class="node">
<title>Node30</title>
<g id="a_Node000030"><a xlink:title=" ">
<polygon fill="#e0e0e0" stroke="#999999" points="176.5,-140 138.5,-140 138.5,-121 176.5,-121 176.5,-140"/>
<text text-anchor="middle" x="157.5" y="-128" font-family="Helvetica,sans-Serif" font-size="10.00">map</text>
</a>
</g>
</g>
<!-- Node29&#45;&gt;Node30 -->
<g id="edge43_Node000029_Node000030" class="edge">
<title>Node29&#45;&gt;Node30</title>
<g id="a_edge43_Node000029_Node000030"><a xlink:title=" ">
<path fill="none" stroke="#63b8ff" d="M154.47,-175.84C154.99,-168.21 155.64,-158.7 156.2,-150.45"/>
<polygon fill="#63b8ff" stroke="#63b8ff" points="159.71,-150.48 156.9,-140.27 152.72,-150 159.71,-150.48"/>
</a>
</g>
</g>
<!-- Node31 -->
<g id="Node000031" class="node">
<title>Node31</title>
<g id="a_Node000031"><a xlink:title=" ">
<polygon fill="#e0e0e0" stroke="#999999" points="120.5,-140 70.5,-140 70.5,-121 120.5,-121 120.5,-140"/>
<text text-anchor="middle" x="95.5" y="-128" font-family="Helvetica,sans-Serif" font-size="10.00">format</text>
</a>
</g>
</g>
<!-- Node29&#45;&gt;Node31 -->
<g id="edge45_Node000029_Node000031" class="edge">
<title>Node29&#45;&gt;Node31</title>
<g id="a_edge45_Node000029_Node000031"><a xlink:title=" ">
<path fill="none" stroke="#63b8ff" d="M139.46,-175.84C130.95,-167.26 120.08,-156.3 111.28,-147.42"/>
<polygon fill="#63b8ff" stroke="#63b8ff" points="113.72,-144.9 104.19,-140.27 108.74,-149.83 113.72,-144.9"/>
</a>
</g>
</g>
</g>
</svg>
