<?xml version="1.0" encoding="UTF-8" standalone="no"?>
<!DOCTYPE svg PUBLIC "-//W3C//DTD SVG 1.1//EN"
 "http://www.w3.org/Graphics/SVG/1.1/DTD/svg11.dtd">
<!-- Generated by graphviz version 2.43.0 (0)
 -->
<!-- Title: include/visualization/visualization.h Pages: 1 -->
<svg width="1893pt" height="434pt"
 viewBox="0.00 0.00 1893.18 434.00" xmlns="http://www.w3.org/2000/svg" xmlns:xlink="http://www.w3.org/1999/xlink">
<g id="graph0" class="graph" transform="scale(1 1) rotate(0) translate(4 430)">
<title>include/visualization/visualization.h</title>
<!-- Node1 -->
<g id="Node000001" class="node">
<title>Node1</title>
<g id="a_Node000001"><a xlink:title=" ">
<polygon fill="#999999" stroke="#666666" points="1566.68,-426 1449.68,-426 1449.68,-396 1566.68,-396 1566.68,-426"/>
<text text-anchor="start" x="1457.68" y="-414" font-family="Helvetica,sans-Serif" font-size="10.00">include/visualization</text>
<text text-anchor="middle" x="1508.18" y="-403" font-family="Helvetica,sans-Serif" font-size="10.00">/visualization.h</text>
</a>
</g>
</g>
<!-- Node2 -->
<g id="Node000002" class="node">
<title>Node2</title>
<g id="a_Node000002"><a xlink:href="application_8h.html" target="_top" xlink:title=" ">
<polygon fill="white" stroke="#666666" points="1049.68,-360 940.68,-360 940.68,-330 1049.68,-330 1049.68,-360"/>
<text text-anchor="start" x="948.68" y="-348" font-family="Helvetica,sans-Serif" font-size="10.00">include/application</text>
<text text-anchor="middle" x="995.18" y="-337" font-family="Helvetica,sans-Serif" font-size="10.00">/application.h</text>
</a>
</g>
</g>
<!-- Node1&#45;&gt;Node2 -->
<g id="edge1_Node000001_Node000002" class="edge">
<title>Node1&#45;&gt;Node2</title>
<g id="a_edge1_Node000001_Node000002"><a xlink:title=" ">
<path fill="none" stroke="#63b8ff" d="M1439.34,-401.41C1336.28,-388.55 1143.94,-364.56 1049.85,-352.82"/>
<polygon fill="#63b8ff" stroke="#63b8ff" points="1438.98,-404.89 1449.34,-402.66 1439.85,-397.95 1438.98,-404.89"/>
</a>
</g>
</g>
<!-- Node3 -->
<g id="Node000003" class="node">
<title>Node3</title>
<g id="a_Node000003"><a xlink:href="dynamic-neural-field-composer-dynamic_8h.html" target="_top" xlink:title=" ">
<polygon fill="white" stroke="#666666" points="542.18,-162 394.18,-162 394.18,-132 542.18,-132 542.18,-162"/>
<text text-anchor="start" x="402.18" y="-150" font-family="Helvetica,sans-Serif" font-size="10.00">include/dynamic&#45;neural</text>
<text text-anchor="middle" x="468.18" y="-139" font-family="Helvetica,sans-Serif" font-size="10.00">&#45;field&#45;composer&#45;dynamic.h</text>
</a>
</g>
</g>
<!-- Node1&#45;&gt;Node3 -->
<g id="edge41_Node000001_Node000003" class="edge">
<title>Node1&#45;&gt;Node3</title>
<g id="a_edge41_Node000001_Node000003"><a xlink:title=" ">
<path fill="none" stroke="#63b8ff" d="M1439.14,-408.17C1166.62,-400.43 174.72,-367.41 56.18,-294 16.28,-269.29 -19.14,-232.95 12.18,-198 37.17,-170.13 271.38,-156.23 394.04,-150.81"/>
<polygon fill="#63b8ff" stroke="#63b8ff" points="1439.2,-411.67 1449.3,-408.45 1439.4,-404.67 1439.2,-411.67"/>
</a>
</g>
</g>
<!-- Node5 -->
<g id="Node000005" class="node">
<title>Node5</title>
<g id="a_Node000005"><a xlink:href="dynamic-neural-field-composer-static_8h.html" target="_top" xlink:title=" ">
<polygon fill="white" stroke="#666666" points="1555.68,-96 1422.68,-96 1422.68,-66 1555.68,-66 1555.68,-96"/>
<text text-anchor="start" x="1430.68" y="-84" font-family="Helvetica,sans-Serif" font-size="10.00">include/dynamic&#45;neural</text>
<text text-anchor="middle" x="1489.18" y="-73" font-family="Helvetica,sans-Serif" font-size="10.00">&#45;field&#45;composer&#45;static.h</text>
</a>
</g>
</g>
<!-- Node1&#45;&gt;Node5 -->
<g id="edge42_Node000001_Node000005" class="edge">
<title>Node1&#45;&gt;Node5</title>
<g id="a_edge42_Node000001_Node000005"><a xlink:title=" ">
<path fill="none" stroke="#63b8ff" d="M1564.63,-392.26C1613.09,-373.1 1675.18,-337.35 1675.18,-280 1675.18,-280 1675.18,-280 1675.18,-212 1675.18,-148.37 1601.16,-113.29 1546.51,-96.05"/>
<polygon fill="#63b8ff" stroke="#63b8ff" points="1563.25,-389.04 1555.15,-395.87 1565.74,-395.59 1563.25,-389.04"/>
</a>
</g>
</g>
<!-- Node9 -->
<g id="Node000009" class="node">
<title>Node9</title>
<g id="a_Node000009"><a xlink:href="static__layout__window_8h.html" target="_top" xlink:title=" ">
<polygon fill="white" stroke="#666666" points="1447.18,-162 1313.18,-162 1313.18,-132 1447.18,-132 1447.18,-162"/>
<text text-anchor="start" x="1321.18" y="-150" font-family="Helvetica,sans-Serif" font-size="10.00">include/user_interface</text>
<text text-anchor="middle" x="1380.18" y="-139" font-family="Helvetica,sans-Serif" font-size="10.00">/static_layout_window.h</text>
</a>
</g>
</g>
<!-- Node1&#45;&gt;Node9 -->
<g id="edge48_Node000001_Node000009" class="edge">
<title>Node1&#45;&gt;Node9</title>
<g id="a_edge48_Node000001_Node000009"><a xlink:title=" ">
<path fill="none" stroke="#63b8ff" d="M1527.91,-388.07C1562.48,-346.9 1626.17,-256.9 1580.18,-198 1571.77,-187.23 1502.19,-171.51 1447.44,-160.58"/>
<polygon fill="#63b8ff" stroke="#63b8ff" points="1525.08,-385.99 1521.22,-395.86 1530.39,-390.55 1525.08,-385.99"/>
</a>
</g>
</g>
<!-- Node20 -->
<g id="Node000020" class="node">
<title>Node20</title>
<g id="a_Node000020"><a xlink:href="plot__control__window_8h.html" target="_top" xlink:title=" ">
<polygon fill="white" stroke="#666666" points="193.18,-294 65.18,-294 65.18,-264 193.18,-264 193.18,-294"/>
<text text-anchor="start" x="73.18" y="-282" font-family="Helvetica,sans-Serif" font-size="10.00">include/user_interface</text>
<text text-anchor="middle" x="129.18" y="-271" font-family="Helvetica,sans-Serif" font-size="10.00">/plot_control_window.h</text>
</a>
</g>
</g>
<!-- Node1&#45;&gt;Node20 -->
<g id="edge43_Node000001_Node000020" class="edge">
<title>Node1&#45;&gt;Node20</title>
<g id="a_edge43_Node000001_Node000020"><a xlink:title=" ">
<path fill="none" stroke="#63b8ff" d="M1439.26,-404.97C1247.38,-390.72 690.86,-347.56 230.18,-294 218.23,-292.61 205.49,-290.97 193.24,-289.31"/>
<polygon fill="#63b8ff" stroke="#63b8ff" points="1439.25,-408.48 1449.48,-405.73 1439.76,-401.5 1439.25,-408.48"/>
</a>
</g>
</g>
<!-- Node27 -->
<g id="Node000027" class="node">
<title>Node27</title>
<g id="a_Node000027"><a xlink:href="plots__window_8h.html" target="_top" xlink:title=" ">
<polygon fill="white" stroke="#666666" points="1570.68,-228 1445.68,-228 1445.68,-198 1570.68,-198 1570.68,-228"/>
<text text-anchor="start" x="1453.68" y="-216" font-family="Helvetica,sans-Serif" font-size="10.00">include/user_interface</text>
<text text-anchor="middle" x="1508.18" y="-205" font-family="Helvetica,sans-Serif" font-size="10.00">/plots_window.h</text>
</a>
</g>
</g>
<!-- Node1&#45;&gt;Node27 -->
<g id="edge44_Node000001_Node000027" class="edge">
<title>Node1&#45;&gt;Node27</title>
<g id="a_edge44_Node000001_Node000027"><a xlink:title=" ">
<path fill="none" stroke="#63b8ff" d="M1508.18,-385.89C1508.18,-344.58 1508.18,-261.48 1508.18,-228.23"/>
<polygon fill="#63b8ff" stroke="#63b8ff" points="1504.68,-385.9 1508.18,-395.9 1511.68,-385.9 1504.68,-385.9"/>
</a>
</g>
</g>
<!-- Node29 -->
<g id="Node000029" class="node">
<title>Node29</title>
<g id="a_Node000029"><a xlink:href="visualization_8cpp.html" target="_top" xlink:title=" ">
<polygon fill="white" stroke="#666666" points="1885.18,-354.5 1703.18,-354.5 1703.18,-335.5 1885.18,-335.5 1885.18,-354.5"/>
<text text-anchor="middle" x="1794.18" y="-342.5" font-family="Helvetica,sans-Serif" font-size="10.00">src/visualization/visualization.cpp</text>
</a>
</g>
</g>
<!-- Node1&#45;&gt;Node29 -->
<g id="edge49_Node000001_Node000029" class="edge">
<title>Node1&#45;&gt;Node29</title>
<g id="a_edge49_Node000001_Node000029"><a xlink:title=" ">
<path fill="none" stroke="#63b8ff" d="M1576.61,-394.69C1632.69,-382.14 1710.03,-364.83 1755.79,-354.59"/>
<polygon fill="#63b8ff" stroke="#63b8ff" points="1575.74,-391.29 1566.75,-396.89 1577.27,-398.13 1575.74,-391.29"/>
</a>
</g>
</g>
<!-- Node2&#45;&gt;Node3 -->
<g id="edge2_Node000002_Node000003" class="edge">
<title>Node2&#45;&gt;Node3</title>
<g id="a_edge2_Node000002_Node000003"><a xlink:title=" ">
<path fill="none" stroke="#63b8ff" d="M930.35,-340.68C783.76,-332.87 438.2,-312.56 421.18,-294 386.1,-255.72 431.73,-191.05 455.47,-162.4"/>
<polygon fill="#63b8ff" stroke="#63b8ff" points="930.38,-344.19 940.55,-341.22 930.75,-337.2 930.38,-344.19"/>
</a>
</g>
</g>
<!-- Node2&#45;&gt;Node5 -->
<g id="edge4_Node000002_Node000005" class="edge">
<title>Node2&#45;&gt;Node5</title>
<g id="a_edge4_Node000002_Node000005"><a xlink:title=" ">
<path fill="none" stroke="#63b8ff" d="M1060.06,-341.59C1199.17,-334.86 1518.53,-310.55 1580.18,-228 1605.72,-193.82 1601.91,-168.72 1580.18,-132 1570.27,-115.24 1552.53,-103.73 1535.32,-96.01"/>
<polygon fill="#63b8ff" stroke="#63b8ff" points="1059.79,-338.1 1049.97,-342.06 1060.12,-345.09 1059.79,-338.1"/>
</a>
</g>
</g>
<!-- Node7 -->
<g id="Node000007" class="node">
<title>Node7</title>
<g id="a_Node000007"><a xlink:href="element__window_8h.html" target="_top" xlink:title=" ">
<polygon fill="white" stroke="#666666" points="1330.68,-294 1205.68,-294 1205.68,-264 1330.68,-264 1330.68,-294"/>
<text text-anchor="start" x="1213.68" y="-282" font-family="Helvetica,sans-Serif" font-size="10.00">include/user_interface</text>
<text text-anchor="middle" x="1268.18" y="-271" font-family="Helvetica,sans-Serif" font-size="10.00">/element_window.h</text>
</a>
</g>
</g>
<!-- Node2&#45;&gt;Node7 -->
<g id="edge6_Node000002_Node000007" class="edge">
<title>Node2&#45;&gt;Node7</title>
<g id="a_edge6_Node000002_Node000007"><a xlink:title=" ">
<path fill="none" stroke="#63b8ff" d="M1059.7,-328.88C1104.6,-318.35 1164.07,-304.41 1207.99,-294.11"/>
<polygon fill="#63b8ff" stroke="#63b8ff" points="1058.71,-325.51 1049.77,-331.2 1060.31,-332.33 1058.71,-325.51"/>
</a>
</g>
</g>
<!-- Node8 -->
<g id="Node000008" class="node">
<title>Node8</title>
<g id="a_Node000008"><a xlink:href="node__graph__window_8h.html" target="_top" xlink:title=" ">
<polygon fill="white" stroke="#666666" points="1389.18,-228 1261.18,-228 1261.18,-198 1389.18,-198 1389.18,-228"/>
<text text-anchor="start" x="1269.18" y="-216" font-family="Helvetica,sans-Serif" font-size="10.00">include/user_interface</text>
<text text-anchor="middle" x="1325.18" y="-205" font-family="Helvetica,sans-Serif" font-size="10.00">/node_graph_window.h</text>
</a>
</g>
</g>
<!-- Node2&#45;&gt;Node8 -->
<g id="edge28_Node000002_Node000008" class="edge">
<title>Node2&#45;&gt;Node8</title>
<g id="a_edge28_Node000002_Node000008"><a xlink:title=" ">
<path fill="none" stroke="#63b8ff" d="M1059.91,-344.27C1149.6,-343.11 1304.67,-335.03 1340.18,-294 1356.09,-275.62 1343.85,-245.83 1334.11,-228.25"/>
<polygon fill="#63b8ff" stroke="#63b8ff" points="1059.81,-340.77 1049.85,-344.38 1059.88,-347.77 1059.81,-340.77"/>
</a>
</g>
</g>
<!-- Node10 -->
<g id="Node000010" class="node">
<title>Node10</title>
<g id="a_Node000010"><a xlink:href="static__layout__window_8cpp.html" target="_top" xlink:title=" ">
<polygon fill="white" stroke="#666666" points="1021.68,-96 876.68,-96 876.68,-66 1021.68,-66 1021.68,-96"/>
<text text-anchor="start" x="884.68" y="-84" font-family="Helvetica,sans-Serif" font-size="10.00">src/user_interface</text>
<text text-anchor="middle" x="949.18" y="-73" font-family="Helvetica,sans-Serif" font-size="10.00">/static_layout_window.cpp</text>
</a>
</g>
</g>
<!-- Node2&#45;&gt;Node10 -->
<g id="edge38_Node000002_Node000010" class="edge">
<title>Node2&#45;&gt;Node10</title>
<g id="a_edge38_Node000002_Node000010"><a xlink:title=" ">
<path fill="none" stroke="#63b8ff" d="M1049.08,-326.09C1083.3,-311.74 1117.77,-289.8 1098.18,-264 1062.19,-216.59 1008.32,-272.85 969.18,-228 936.22,-190.22 942.01,-124.71 946.53,-96.07"/>
<polygon fill="#63b8ff" stroke="#63b8ff" points="1047.46,-322.97 1039.48,-329.93 1050.06,-329.46 1047.46,-322.97"/>
</a>
</g>
</g>
<!-- Node13 -->
<g id="Node000013" class="node">
<title>Node13</title>
<g id="a_Node000013"><a xlink:href="field__metrics__window_8h.html" target="_top" xlink:title=" ">
<polygon fill="white" stroke="#666666" points="373.18,-294 239.18,-294 239.18,-264 373.18,-264 373.18,-294"/>
<text text-anchor="start" x="247.18" y="-282" font-family="Helvetica,sans-Serif" font-size="10.00">include/user_interface</text>
<text text-anchor="middle" x="306.18" y="-271" font-family="Helvetica,sans-Serif" font-size="10.00">/field_metrics_window.h</text>
</a>
</g>
</g>
<!-- Node2&#45;&gt;Node13 -->
<g id="edge16_Node000002_Node000013" class="edge">
<title>Node2&#45;&gt;Node13</title>
<g id="a_edge16_Node000002_Node000013"><a xlink:title=" ">
<path fill="none" stroke="#63b8ff" d="M930.45,-340.58C819.12,-334.26 584.33,-319.09 387.18,-294 382.65,-293.42 377.99,-292.77 373.3,-292.07"/>
<polygon fill="#63b8ff" stroke="#63b8ff" points="930.33,-344.07 940.51,-341.14 930.72,-337.09 930.33,-344.07"/>
</a>
</g>
</g>
<!-- Node15 -->
<g id="Node000015" class="node">
<title>Node15</title>
<g id="a_Node000015"><a xlink:href="log__window_8h.html" target="_top" xlink:title=" ">
<polygon fill="white" stroke="#666666" points="554.68,-294 429.68,-294 429.68,-264 554.68,-264 554.68,-294"/>
<text text-anchor="start" x="437.68" y="-282" font-family="Helvetica,sans-Serif" font-size="10.00">include/user_interface</text>
<text text-anchor="middle" x="492.18" y="-271" font-family="Helvetica,sans-Serif" font-size="10.00">/log_window.h</text>
</a>
</g>
</g>
<!-- Node2&#45;&gt;Node15 -->
<g id="edge19_Node000002_Node000015" class="edge">
<title>Node2&#45;&gt;Node15</title>
<g id="a_edge19_Node000002_Node000015"><a xlink:title=" ">
<path fill="none" stroke="#63b8ff" d="M930.45,-337.69C846.82,-329.23 696.79,-313.07 569.18,-294 564.48,-293.3 559.62,-292.52 554.74,-291.72"/>
<polygon fill="#63b8ff" stroke="#63b8ff" points="930.27,-341.18 940.57,-338.7 930.97,-334.22 930.27,-341.18"/>
</a>
</g>
</g>
<!-- Node16 -->
<g id="Node000016" class="node">
<title>Node16</title>
<g id="a_Node000016"><a xlink:href="logger_8cpp.html" target="_top" xlink:title=" ">
<polygon fill="white" stroke="#666666" points="738.68,-222.5 627.68,-222.5 627.68,-203.5 738.68,-203.5 738.68,-222.5"/>
<text text-anchor="middle" x="683.18" y="-210.5" font-family="Helvetica,sans-Serif" font-size="10.00">src/tools/logger.cpp</text>
</a>
</g>
</g>
<!-- Node2&#45;&gt;Node16 -->
<g id="edge37_Node000002_Node000016" class="edge">
<title>Node2&#45;&gt;Node16</title>
<g id="a_edge37_Node000002_Node000016"><a xlink:title=" ">
<path fill="none" stroke="#63b8ff" d="M930.17,-340.34C824.34,-333.7 624.41,-318.11 603.18,-294 579.04,-266.58 632.21,-236.77 663.09,-222.52"/>
<polygon fill="#63b8ff" stroke="#63b8ff" points="930.22,-343.85 940.42,-340.97 930.65,-336.86 930.22,-343.85"/>
</a>
</g>
</g>
<!-- Node18 -->
<g id="Node000018" class="node">
<title>Node18</title>
<g id="a_Node000018"><a xlink:href="main__menu__bar_8h.html" target="_top" xlink:title=" ">
<polygon fill="white" stroke="#666666" points="920.68,-228 795.68,-228 795.68,-198 920.68,-198 920.68,-228"/>
<text text-anchor="start" x="803.68" y="-216" font-family="Helvetica,sans-Serif" font-size="10.00">include/user_interface</text>
<text text-anchor="middle" x="858.18" y="-205" font-family="Helvetica,sans-Serif" font-size="10.00">/main_menu_bar.h</text>
</a>
</g>
</g>
<!-- Node2&#45;&gt;Node18 -->
<g id="edge24_Node000002_Node000018" class="edge">
<title>Node2&#45;&gt;Node18</title>
<g id="a_edge24_Node000002_Node000018"><a xlink:title=" ">
<path fill="none" stroke="#63b8ff" d="M1039.72,-325.44C1069.83,-310.22 1100.96,-287.43 1082.18,-264 1077.04,-257.58 985.2,-238.61 920.73,-225.97"/>
<polygon fill="#63b8ff" stroke="#63b8ff" points="1037.95,-322.41 1030.47,-329.92 1040.99,-328.72 1037.95,-322.41"/>
</a>
</g>
</g>
<!-- Node2&#45;&gt;Node20 -->
<g id="edge29_Node000002_Node000020" class="edge">
<title>Node2&#45;&gt;Node20</title>
<g id="a_edge29_Node000002_Node000020"><a xlink:title=" ">
<path fill="none" stroke="#63b8ff" d="M929.99,-341.33C797.77,-335.58 488.67,-320.33 230.18,-294 218.21,-292.78 205.47,-291.22 193.21,-289.59"/>
<polygon fill="#63b8ff" stroke="#63b8ff" points="930.2,-344.85 940.34,-341.78 930.5,-337.85 930.2,-344.85"/>
</a>
</g>
</g>
<!-- Node22 -->
<g id="Node000022" class="node">
<title>Node22</title>
<g id="a_Node000022"><a xlink:href="simulation__window_8h.html" target="_top" xlink:title=" ">
<polygon fill="white" stroke="#666666" points="1102.68,-228 977.68,-228 977.68,-198 1102.68,-198 1102.68,-228"/>
<text text-anchor="start" x="985.68" y="-216" font-family="Helvetica,sans-Serif" font-size="10.00">include/user_interface</text>
<text text-anchor="middle" x="1040.18" y="-205" font-family="Helvetica,sans-Serif" font-size="10.00">/simulation_window.h</text>
</a>
</g>
</g>
<!-- Node2&#45;&gt;Node22 -->
<g id="edge32_Node000002_Node000022" class="edge">
<title>Node2&#45;&gt;Node22</title>
<g id="a_edge32_Node000002_Node000022"><a xlink:title=" ">
<path fill="none" stroke="#63b8ff" d="M1060.22,-340.92C1093.73,-335.63 1131.92,-323.03 1153.18,-294 1174.91,-264.33 1130.31,-241.55 1090.89,-228.02"/>
<polygon fill="#63b8ff" stroke="#63b8ff" points="1059.41,-337.5 1049.99,-342.34 1060.38,-344.43 1059.41,-337.5"/>
</a>
</g>
</g>
<!-- Node24 -->
<g id="Node000024" class="node">
<title>Node24</title>
<g id="a_Node000024"><a xlink:href="application_8cpp.html" target="_top" xlink:title=" ">
<polygon fill="white" stroke="#666666" points="776.68,-288.5 611.68,-288.5 611.68,-269.5 776.68,-269.5 776.68,-288.5"/>
<text text-anchor="middle" x="694.18" y="-276.5" font-family="Helvetica,sans-Serif" font-size="10.00">src/application/application.cpp</text>
</a>
</g>
</g>
<!-- Node2&#45;&gt;Node24 -->
<g id="edge36_Node000002_Node000024" class="edge">
<title>Node2&#45;&gt;Node24</title>
<g id="a_edge36_Node000002_Node000024"><a xlink:title=" ">
<path fill="none" stroke="#63b8ff" d="M930.62,-330.27C871.07,-317.61 784.53,-299.21 734.33,-288.54"/>
<polygon fill="#63b8ff" stroke="#63b8ff" points="930.16,-333.75 940.67,-332.41 931.62,-326.91 930.16,-333.75"/>
</a>
</g>
</g>
<!-- Node25 -->
<g id="Node000025" class="node">
<title>Node25</title>
<g id="a_Node000025"><a xlink:href="widgets_8cpp.html" target="_top" xlink:title=" ">
<polygon fill="white" stroke="#666666" points="899.18,-294 795.18,-294 795.18,-264 899.18,-264 899.18,-294"/>
<text text-anchor="start" x="803.18" y="-282" font-family="Helvetica,sans-Serif" font-size="10.00">src/user_interface</text>
<text text-anchor="middle" x="847.18" y="-271" font-family="Helvetica,sans-Serif" font-size="10.00">/widgets.cpp</text>
</a>
</g>
</g>
<!-- Node2&#45;&gt;Node25 -->
<g id="edge39_Node000002_Node000025" class="edge">
<title>Node2&#45;&gt;Node25</title>
<g id="a_edge39_Node000002_Node000025"><a xlink:title=" ">
<path fill="none" stroke="#63b8ff" d="M953.37,-325.92C929.98,-315.8 901.26,-303.38 879.59,-294.01"/>
<polygon fill="#63b8ff" stroke="#63b8ff" points="952.14,-329.2 962.7,-329.95 954.91,-322.77 952.14,-329.2"/>
</a>
</g>
</g>
<!-- Node26 -->
<g id="Node000026" class="node">
<title>Node26</title>
<g id="a_Node000026"><a xlink:href="lineplot_8cpp.html" target="_top" xlink:title=" ">
<polygon fill="white" stroke="#666666" points="1073.18,-288.5 917.18,-288.5 917.18,-269.5 1073.18,-269.5 1073.18,-288.5"/>
<text text-anchor="middle" x="995.18" y="-276.5" font-family="Helvetica,sans-Serif" font-size="10.00">src/visualization/lineplot.cpp</text>
</a>
</g>
</g>
<!-- Node2&#45;&gt;Node26 -->
<g id="edge40_Node000002_Node000026" class="edge">
<title>Node2&#45;&gt;Node26</title>
<g id="a_edge40_Node000002_Node000026"><a xlink:title=" ">
<path fill="none" stroke="#63b8ff" d="M995.18,-319.6C995.18,-308.8 995.18,-296.78 995.18,-288.84"/>
<polygon fill="#63b8ff" stroke="#63b8ff" points="991.68,-319.8 995.18,-329.8 998.68,-319.8 991.68,-319.8"/>
</a>
</g>
</g>
<!-- Node4 -->
<g id="Node000004" class="node">
<title>Node4</title>
<g id="a_Node000004"><a xlink:href="dynamic-neural-field-composer-dynamic_8cpp.html" target="_top" xlink:title=" ">
<polygon fill="white" stroke="#666666" points="547.68,-96 388.68,-96 388.68,-66 547.68,-66 547.68,-96"/>
<text text-anchor="start" x="396.68" y="-84" font-family="Helvetica,sans-Serif" font-size="10.00">src/dynamic&#45;neural</text>
<text text-anchor="middle" x="468.18" y="-73" font-family="Helvetica,sans-Serif" font-size="10.00">&#45;field&#45;composer&#45;dynamic.cpp</text>
</a>
</g>
</g>
<!-- Node3&#45;&gt;Node4 -->
<g id="edge3_Node000003_Node000004" class="edge">
<title>Node3&#45;&gt;Node4</title>
<g id="a_edge3_Node000003_Node000004"><a xlink:title=" ">
<path fill="none" stroke="#63b8ff" d="M468.18,-121.54C468.18,-112.96 468.18,-103.61 468.18,-96.16"/>
<polygon fill="#63b8ff" stroke="#63b8ff" points="464.68,-121.8 468.18,-131.8 471.68,-121.8 464.68,-121.8"/>
</a>
</g>
</g>
<!-- Node6 -->
<g id="Node000006" class="node">
<title>Node6</title>
<g id="a_Node000006"><a xlink:href="dynamic-neural-field-composer-static_8cpp.html" target="_top" xlink:title=" ">
<polygon fill="white" stroke="#666666" points="1561.18,-30 1417.18,-30 1417.18,0 1561.18,0 1561.18,-30"/>
<text text-anchor="start" x="1425.18" y="-18" font-family="Helvetica,sans-Serif" font-size="10.00">src/dynamic&#45;neural</text>
<text text-anchor="middle" x="1489.18" y="-7" font-family="Helvetica,sans-Serif" font-size="10.00">&#45;field&#45;composer&#45;static.cpp</text>
</a>
</g>
</g>
<!-- Node5&#45;&gt;Node6 -->
<g id="edge5_Node000005_Node000006" class="edge">
<title>Node5&#45;&gt;Node6</title>
<g id="a_edge5_Node000005_Node000006"><a xlink:title=" ">
<path fill="none" stroke="#63b8ff" d="M1489.18,-55.54C1489.18,-46.96 1489.18,-37.61 1489.18,-30.16"/>
<polygon fill="#63b8ff" stroke="#63b8ff" points="1485.68,-55.8 1489.18,-65.8 1492.68,-55.8 1485.68,-55.8"/>
</a>
</g>
</g>
<!-- Node7&#45;&gt;Node3 -->
<g id="edge7_Node000007_Node000003" class="edge">
<title>Node7&#45;&gt;Node3</title>
<g id="a_edge7_Node000007_Node000003"><a xlink:title=" ">
<path fill="none" stroke="#63b8ff" d="M1195,-272.6C1069.74,-263.04 824.11,-242.73 787.18,-228 766.87,-219.9 768.18,-206.84 748.18,-198 682.24,-168.85 600.44,-156.69 542.32,-151.62"/>
<polygon fill="#63b8ff" stroke="#63b8ff" points="1195.04,-276.12 1205.27,-273.38 1195.57,-269.14 1195.04,-276.12"/>
</a>
</g>
</g>
<!-- Node7&#45;&gt;Node8 -->
<g id="edge8_Node000007_Node000008" class="edge">
<title>Node7&#45;&gt;Node8</title>
<g id="a_edge8_Node000007_Node000008"><a xlink:title=" ">
<path fill="none" stroke="#63b8ff" d="M1287.7,-256.09C1295.93,-246.85 1305.27,-236.36 1312.57,-228.16"/>
<polygon fill="#63b8ff" stroke="#63b8ff" points="1284.87,-254 1280.83,-263.8 1290.1,-258.66 1284.87,-254"/>
</a>
</g>
</g>
<!-- Node7&#45;&gt;Node9 -->
<g id="edge14_Node000007_Node000009" class="edge">
<title>Node7&#45;&gt;Node9</title>
<g id="a_edge14_Node000007_Node000009"><a xlink:title=" ">
<path fill="none" stroke="#63b8ff" d="M1340.58,-266.6C1362.77,-259.33 1384.83,-247.45 1398.18,-228 1411.88,-208.05 1399.45,-179.32 1389.55,-162.26"/>
<polygon fill="#63b8ff" stroke="#63b8ff" points="1339.34,-263.32 1330.75,-269.53 1341.34,-270.03 1339.34,-263.32"/>
</a>
</g>
</g>
<!-- Node12 -->
<g id="Node000012" class="node">
<title>Node12</title>
<g id="a_Node000012"><a xlink:href="element__window_8cpp.html" target="_top" xlink:title=" ">
<polygon fill="white" stroke="#666666" points="1243.18,-228 1121.18,-228 1121.18,-198 1243.18,-198 1243.18,-228"/>
<text text-anchor="start" x="1129.18" y="-216" font-family="Helvetica,sans-Serif" font-size="10.00">src/user_interface</text>
<text text-anchor="middle" x="1182.18" y="-205" font-family="Helvetica,sans-Serif" font-size="10.00">/element_window.cpp</text>
</a>
</g>
</g>
<!-- Node7&#45;&gt;Node12 -->
<g id="edge15_Node000007_Node000012" class="edge">
<title>Node7&#45;&gt;Node12</title>
<g id="a_edge15_Node000007_Node000012"><a xlink:title=" ">
<path fill="none" stroke="#63b8ff" d="M1240.98,-257.75C1228.04,-248.13 1212.9,-236.86 1201.22,-228.16"/>
<polygon fill="#63b8ff" stroke="#63b8ff" points="1238.98,-260.63 1249.1,-263.8 1243.16,-255.02 1238.98,-260.63"/>
</a>
</g>
</g>
<!-- Node8&#45;&gt;Node3 -->
<g id="edge9_Node000008_Node000003" class="edge">
<title>Node8&#45;&gt;Node3</title>
<g id="a_edge9_Node000008_Node000003"><a xlink:title=" ">
<path fill="none" stroke="#63b8ff" d="M1251.01,-198C1098.1,-179.76 706.67,-159.56 542.37,-151.54"/>
<polygon fill="#63b8ff" stroke="#63b8ff" points="1250.81,-201.5 1261.16,-199.25 1251.67,-194.55 1250.81,-201.5"/>
</a>
</g>
</g>
<!-- Node8&#45;&gt;Node9 -->
<g id="edge10_Node000008_Node000009" class="edge">
<title>Node8&#45;&gt;Node9</title>
<g id="a_edge10_Node000008_Node000009"><a xlink:title=" ">
<path fill="none" stroke="#63b8ff" d="M1344.01,-190.09C1351.95,-180.85 1360.97,-170.36 1368.01,-162.16"/>
<polygon fill="#63b8ff" stroke="#63b8ff" points="1341.25,-187.93 1337.39,-197.8 1346.56,-192.49 1341.25,-187.93"/>
</a>
</g>
</g>
<!-- Node11 -->
<g id="Node000011" class="node">
<title>Node11</title>
<g id="a_Node000011"><a xlink:href="node__graph__window_8cpp.html" target="_top" xlink:title=" ">
<polygon fill="white" stroke="#666666" points="1294.68,-162 1155.68,-162 1155.68,-132 1294.68,-132 1294.68,-162"/>
<text text-anchor="start" x="1163.68" y="-150" font-family="Helvetica,sans-Serif" font-size="10.00">src/user_interface</text>
<text text-anchor="middle" x="1225.18" y="-139" font-family="Helvetica,sans-Serif" font-size="10.00">/node_graph_window.cpp</text>
</a>
</g>
</g>
<!-- Node8&#45;&gt;Node11 -->
<g id="edge13_Node000008_Node000011" class="edge">
<title>Node8&#45;&gt;Node11</title>
<g id="a_edge13_Node000008_Node000011"><a xlink:title=" ">
<path fill="none" stroke="#63b8ff" d="M1294.4,-192.3C1279.18,-182.56 1261.15,-171.02 1247.31,-162.16"/>
<polygon fill="#63b8ff" stroke="#63b8ff" points="1292.68,-195.35 1302.99,-197.8 1296.45,-189.46 1292.68,-195.35"/>
</a>
</g>
</g>
<!-- Node9&#45;&gt;Node5 -->
<g id="edge11_Node000009_Node000005" class="edge">
<title>Node9&#45;&gt;Node5</title>
<g id="a_edge11_Node000009_Node000005"><a xlink:title=" ">
<path fill="none" stroke="#63b8ff" d="M1413.06,-126.69C1429.89,-116.82 1450,-105.01 1465.32,-96.01"/>
<polygon fill="#63b8ff" stroke="#63b8ff" points="1410.95,-123.87 1404.1,-131.95 1414.5,-129.91 1410.95,-123.87"/>
</a>
</g>
</g>
<!-- Node9&#45;&gt;Node10 -->
<g id="edge12_Node000009_Node000010" class="edge">
<title>Node9&#45;&gt;Node10</title>
<g id="a_edge12_Node000009_Node000010"><a xlink:title=" ">
<path fill="none" stroke="#63b8ff" d="M1303.08,-131.86C1199.63,-115.2 1091.33,-100.44 1021.73,-91.31"/>
<polygon fill="#63b8ff" stroke="#63b8ff" points="1302.64,-135.34 1313.07,-133.48 1303.76,-128.43 1302.64,-135.34"/>
</a>
</g>
</g>
<!-- Node13&#45;&gt;Node3 -->
<g id="edge17_Node000013_Node000003" class="edge">
<title>Node13&#45;&gt;Node3</title>
<g id="a_edge17_Node000013_Node000003"><a xlink:title=" ">
<path fill="none" stroke="#63b8ff" d="M325.88,-255.99C341.58,-239.1 364.61,-215.74 387.18,-198 404.46,-184.42 425.65,-171.45 442.02,-162.13"/>
<polygon fill="#63b8ff" stroke="#63b8ff" points="322.97,-253.98 318.79,-263.71 328.13,-258.71 322.97,-253.98"/>
</a>
</g>
</g>
<!-- Node14 -->
<g id="Node000014" class="node">
<title>Node14</title>
<g id="a_Node000014"><a xlink:href="field__metrics__window_8cpp.html" target="_top" xlink:title=" ">
<polygon fill="white" stroke="#666666" points="334.68,-228 189.68,-228 189.68,-198 334.68,-198 334.68,-228"/>
<text text-anchor="start" x="197.68" y="-216" font-family="Helvetica,sans-Serif" font-size="10.00">src/user_interface</text>
<text text-anchor="middle" x="262.18" y="-205" font-family="Helvetica,sans-Serif" font-size="10.00">/field_metrics_window.cpp</text>
</a>
</g>
</g>
<!-- Node13&#45;&gt;Node14 -->
<g id="edge18_Node000013_Node000014" class="edge">
<title>Node13&#45;&gt;Node14</title>
<g id="a_edge18_Node000013_Node000014"><a xlink:title=" ">
<path fill="none" stroke="#63b8ff" d="M290.73,-255.53C284.48,-246.43 277.44,-236.19 271.92,-228.16"/>
<polygon fill="#63b8ff" stroke="#63b8ff" points="287.87,-257.54 296.42,-263.8 293.64,-253.57 287.87,-257.54"/>
</a>
</g>
</g>
<!-- Node15&#45;&gt;Node3 -->
<g id="edge20_Node000015_Node000003" class="edge">
<title>Node15&#45;&gt;Node3</title>
<g id="a_edge20_Node000015_Node000003"><a xlink:title=" ">
<path fill="none" stroke="#63b8ff" d="M473.04,-255.97C467.07,-247.75 461.25,-237.98 458.18,-228 451.31,-205.66 457.66,-178.42 462.9,-162.18"/>
<polygon fill="#63b8ff" stroke="#63b8ff" points="470.3,-258.16 479.2,-263.92 475.84,-253.87 470.3,-258.16"/>
</a>
</g>
</g>
<!-- Node15&#45;&gt;Node10 -->
<g id="edge23_Node000015_Node000010" class="edge">
<title>Node15&#45;&gt;Node10</title>
<g id="a_edge23_Node000015_Node000010"><a xlink:title=" ">
<path fill="none" stroke="#63b8ff" d="M528.46,-258.87C544.61,-249.98 563.66,-238.97 580.18,-228 598.4,-215.9 600.57,-209.47 619.18,-198 676.72,-162.54 692.72,-155.25 756.18,-132 796.97,-117.05 844.15,-104.75 881.65,-96.08"/>
<polygon fill="#63b8ff" stroke="#63b8ff" points="526.44,-255.99 519.33,-263.84 529.79,-262.14 526.44,-255.99"/>
</a>
</g>
</g>
<!-- Node15&#45;&gt;Node16 -->
<g id="edge21_Node000015_Node000016" class="edge">
<title>Node15&#45;&gt;Node16</title>
<g id="a_edge21_Node000015_Node000016"><a xlink:title=" ">
<path fill="none" stroke="#63b8ff" d="M543.71,-260.74C580.63,-248.36 628.78,-232.23 657.76,-222.52"/>
<polygon fill="#63b8ff" stroke="#63b8ff" points="542.47,-257.46 534.1,-263.95 544.69,-264.1 542.47,-257.46"/>
</a>
</g>
</g>
<!-- Node17 -->
<g id="Node000017" class="node">
<title>Node17</title>
<g id="a_Node000017"><a xlink:href="log__window_8cpp.html" target="_top" xlink:title=" ">
<polygon fill="white" stroke="#666666" points="571.18,-228 467.18,-228 467.18,-198 571.18,-198 571.18,-228"/>
<text text-anchor="start" x="475.18" y="-216" font-family="Helvetica,sans-Serif" font-size="10.00">src/user_interface</text>
<text text-anchor="middle" x="519.18" y="-205" font-family="Helvetica,sans-Serif" font-size="10.00">/log_window.cpp</text>
</a>
</g>
</g>
<!-- Node15&#45;&gt;Node17 -->
<g id="edge22_Node000015_Node000017" class="edge">
<title>Node15&#45;&gt;Node17</title>
<g id="a_edge22_Node000015_Node000017"><a xlink:title=" ">
<path fill="none" stroke="#63b8ff" d="M502.14,-254.39C505.86,-245.59 509.96,-235.86 513.21,-228.16"/>
<polygon fill="#63b8ff" stroke="#63b8ff" points="498.84,-253.22 498.17,-263.8 505.29,-255.94 498.84,-253.22"/>
</a>
</g>
</g>
<!-- Node18&#45;&gt;Node3 -->
<g id="edge25_Node000018_Node000003" class="edge">
<title>Node18&#45;&gt;Node3</title>
<g id="a_edge25_Node000018_Node000003"><a xlink:title=" ">
<path fill="none" stroke="#63b8ff" d="M785.62,-198.76C784.13,-198.5 782.65,-198.25 781.18,-198 699.55,-184.06 605.72,-169.23 542.25,-159.37"/>
<polygon fill="#63b8ff" stroke="#63b8ff" points="785.13,-202.23 795.59,-200.5 786.34,-195.33 785.13,-202.23"/>
</a>
</g>
</g>
<!-- Node18&#45;&gt;Node5 -->
<g id="edge26_Node000018_Node000005" class="edge">
<title>Node18&#45;&gt;Node5</title>
<g id="a_edge26_Node000018_Node000005"><a xlink:title=" ">
<path fill="none" stroke="#63b8ff" d="M879.63,-190.91C900.4,-171.93 933.72,-145.06 968.18,-132 1049.65,-101.13 1301.37,-88.45 1422.6,-84.03"/>
<polygon fill="#63b8ff" stroke="#63b8ff" points="877.22,-188.37 872.31,-197.76 882,-193.49 877.22,-188.37"/>
</a>
</g>
</g>
<!-- Node19 -->
<g id="Node000019" class="node">
<title>Node19</title>
<g id="a_Node000019"><a xlink:href="main__menu__bar_8cpp.html" target="_top" xlink:title=" ">
<polygon fill="white" stroke="#666666" points="883.18,-162 765.18,-162 765.18,-132 883.18,-132 883.18,-162"/>
<text text-anchor="start" x="773.18" y="-150" font-family="Helvetica,sans-Serif" font-size="10.00">src/user_interface</text>
<text text-anchor="middle" x="824.18" y="-139" font-family="Helvetica,sans-Serif" font-size="10.00">/main_menu_bar.cpp</text>
</a>
</g>
</g>
<!-- Node18&#45;&gt;Node19 -->
<g id="edge27_Node000018_Node000019" class="edge">
<title>Node18&#45;&gt;Node19</title>
<g id="a_edge27_Node000018_Node000019"><a xlink:title=" ">
<path fill="none" stroke="#63b8ff" d="M845.94,-188.96C841.19,-180 835.89,-170.03 831.71,-162.16"/>
<polygon fill="#63b8ff" stroke="#63b8ff" points="842.85,-190.61 850.64,-197.8 849.04,-187.32 842.85,-190.61"/>
</a>
</g>
</g>
<!-- Node20&#45;&gt;Node3 -->
<g id="edge30_Node000020_Node000003" class="edge">
<title>Node20&#45;&gt;Node3</title>
<g id="a_edge30_Node000020_Node000003"><a xlink:title=" ">
<path fill="none" stroke="#63b8ff" d="M74.01,-260.21C37.33,-245.56 -0.31,-223.16 22.18,-198 46.46,-170.85 273.25,-156.68 393.74,-151.02"/>
<polygon fill="#63b8ff" stroke="#63b8ff" points="73.19,-263.65 83.78,-263.95 75.69,-257.11 73.19,-263.65"/>
</a>
</g>
</g>
<!-- Node21 -->
<g id="Node000021" class="node">
<title>Node21</title>
<g id="a_Node000021"><a xlink:href="plot__control__window_8cpp.html" target="_top" xlink:title=" ">
<polygon fill="white" stroke="#666666" points="171.18,-228 31.18,-228 31.18,-198 171.18,-198 171.18,-228"/>
<text text-anchor="start" x="39.18" y="-216" font-family="Helvetica,sans-Serif" font-size="10.00">src/user_interface</text>
<text text-anchor="middle" x="101.18" y="-205" font-family="Helvetica,sans-Serif" font-size="10.00">/plot_control_window.cpp</text>
</a>
</g>
</g>
<!-- Node20&#45;&gt;Node21 -->
<g id="edge31_Node000020_Node000021" class="edge">
<title>Node20&#45;&gt;Node21</title>
<g id="a_edge31_Node000020_Node000021"><a xlink:title=" ">
<path fill="none" stroke="#63b8ff" d="M118.86,-254.39C115,-245.59 110.75,-235.86 107.38,-228.16"/>
<polygon fill="#63b8ff" stroke="#63b8ff" points="115.75,-256.04 122.97,-263.8 122.17,-253.23 115.75,-256.04"/>
</a>
</g>
</g>
<!-- Node22&#45;&gt;Node3 -->
<g id="edge33_Node000022_Node000003" class="edge">
<title>Node22&#45;&gt;Node3</title>
<g id="a_edge33_Node000022_Node000003"><a xlink:title=" ">
<path fill="none" stroke="#63b8ff" d="M967.73,-202.58C955.22,-201.01 942.33,-199.43 930.18,-198 793.37,-181.89 633.53,-165.03 542.25,-155.58"/>
<polygon fill="#63b8ff" stroke="#63b8ff" points="967.31,-206.06 977.67,-203.84 968.19,-199.11 967.31,-206.06"/>
</a>
</g>
</g>
<!-- Node22&#45;&gt;Node9 -->
<g id="edge34_Node000022_Node000009" class="edge">
<title>Node22&#45;&gt;Node9</title>
<g id="a_edge34_Node000022_Node000009"><a xlink:title=" ">
<path fill="none" stroke="#63b8ff" d="M1113,-197.85C1187.21,-183.74 1261.08,-169.99 1312.97,-160.39"/>
<polygon fill="#63b8ff" stroke="#63b8ff" points="1112.17,-194.45 1103.01,-199.76 1113.48,-201.32 1112.17,-194.45"/>
</a>
</g>
</g>
<!-- Node23 -->
<g id="Node000023" class="node">
<title>Node23</title>
<g id="a_Node000023"><a xlink:href="simulation__window_8cpp.html" target="_top" xlink:title=" ">
<polygon fill="white" stroke="#666666" points="1111.18,-162 977.18,-162 977.18,-132 1111.18,-132 1111.18,-162"/>
<text text-anchor="start" x="985.18" y="-150" font-family="Helvetica,sans-Serif" font-size="10.00">src/user_interface</text>
<text text-anchor="middle" x="1044.18" y="-139" font-family="Helvetica,sans-Serif" font-size="10.00">/simulation_window.cpp</text>
</a>
</g>
</g>
<!-- Node22&#45;&gt;Node23 -->
<g id="edge35_Node000022_Node000023" class="edge">
<title>Node22&#45;&gt;Node23</title>
<g id="a_edge35_Node000022_Node000023"><a xlink:title=" ">
<path fill="none" stroke="#63b8ff" d="M1041.71,-187.54C1042.25,-178.96 1042.83,-169.61 1043.3,-162.16"/>
<polygon fill="#63b8ff" stroke="#63b8ff" points="1038.2,-187.6 1041.07,-197.8 1045.19,-188.03 1038.2,-187.6"/>
</a>
</g>
</g>
<!-- Node27&#45;&gt;Node3 -->
<g id="edge45_Node000027_Node000003" class="edge">
<title>Node27&#45;&gt;Node3</title>
<g id="a_edge45_Node000027_Node000003"><a xlink:title=" ">
<path fill="none" stroke="#63b8ff" d="M1435.19,-201.95C1422.85,-200.47 1410.17,-199.08 1398.18,-198 1314.04,-190.39 747.42,-161.88 542.21,-151.67"/>
<polygon fill="#63b8ff" stroke="#63b8ff" points="1435.09,-205.47 1445.44,-203.21 1435.95,-198.52 1435.09,-205.47"/>
</a>
</g>
</g>
<!-- Node27&#45;&gt;Node9 -->
<g id="edge46_Node000027_Node000009" class="edge">
<title>Node27&#45;&gt;Node9</title>
<g id="a_edge46_Node000027_Node000009"><a xlink:title=" ">
<path fill="none" stroke="#63b8ff" d="M1470.94,-193.38C1450.91,-183.36 1426.62,-171.22 1408.21,-162.01"/>
<polygon fill="#63b8ff" stroke="#63b8ff" points="1469.58,-196.61 1480.09,-197.95 1472.71,-190.35 1469.58,-196.61"/>
</a>
</g>
</g>
<!-- Node28 -->
<g id="Node000028" class="node">
<title>Node28</title>
<g id="a_Node000028"><a xlink:href="plots__window_8cpp.html" target="_top" xlink:title=" ">
<polygon fill="white" stroke="#666666" points="1571.18,-162 1465.18,-162 1465.18,-132 1571.18,-132 1571.18,-162"/>
<text text-anchor="start" x="1473.18" y="-150" font-family="Helvetica,sans-Serif" font-size="10.00">src/user_interface</text>
<text text-anchor="middle" x="1518.18" y="-139" font-family="Helvetica,sans-Serif" font-size="10.00">/plots_window.cpp</text>
</a>
</g>
</g>
<!-- Node27&#45;&gt;Node28 -->
<g id="edge47_Node000027_Node000028" class="edge">
<title>Node27&#45;&gt;Node28</title>
<g id="a_edge47_Node000027_Node000028"><a xlink:title=" ">
<path fill="none" stroke="#63b8ff" d="M1511.96,-187.83C1513.31,-179.17 1514.79,-169.7 1515.97,-162.16"/>
<polygon fill="#63b8ff" stroke="#63b8ff" points="1508.49,-187.38 1510.4,-197.8 1515.4,-188.46 1508.49,-187.38"/>
</a>
</g>
</g>
</g>
</svg>
