<?xml version="1.0" encoding="UTF-8" standalone="no"?>
<!DOCTYPE svg PUBLIC "-//W3C//DTD SVG 1.1//EN"
 "http://www.w3.org/Graphics/SVG/1.1/DTD/svg11.dtd">
<!-- Generated by graphviz version 2.43.0 (0)
 -->
<!-- Title: include/user_interface/widgets.h Pages: 1 -->
<svg width="826pt" height="368pt"
 viewBox="0.00 0.00 826.00 368.00" xmlns="http://www.w3.org/2000/svg" xmlns:xlink="http://www.w3.org/1999/xlink">
<g id="graph0" class="graph" transform="scale(1 1) rotate(0) translate(4 364)">
<title>include/user_interface/widgets.h</title>
<!-- Node1 -->
<g id="Node000001" class="node">
<title>Node1</title>
<g id="a_Node000001"><a xlink:title=" ">
<polygon fill="#999999" stroke="#666666" points="575.5,-360 450.5,-360 450.5,-330 575.5,-330 575.5,-360"/>
<text text-anchor="start" x="458.5" y="-348" font-family="Helvetica,sans-Serif" font-size="10.00">include/user_interface</text>
<text text-anchor="middle" x="513" y="-337" font-family="Helvetica,sans-Serif" font-size="10.00">/widgets.h</text>
</a>
</g>
</g>
<!-- Node2 -->
<g id="Node000002" class="node">
<title>Node2</title>
<g id="a_Node000002"><a xlink:href="element__window_8h.html" target="_top" xlink:title=" ">
<polygon fill="white" stroke="#666666" points="250.5,-294 125.5,-294 125.5,-264 250.5,-264 250.5,-294"/>
<text text-anchor="start" x="133.5" y="-282" font-family="Helvetica,sans-Serif" font-size="10.00">include/user_interface</text>
<text text-anchor="middle" x="188" y="-271" font-family="Helvetica,sans-Serif" font-size="10.00">/element_window.h</text>
</a>
</g>
</g>
<!-- Node1&#45;&gt;Node2 -->
<g id="edge1_Node000001_Node000002" class="edge">
<title>Node1&#45;&gt;Node2</title>
<g id="a_edge1_Node000001_Node000002"><a xlink:title=" ">
<path fill="none" stroke="#63b8ff" d="M440.32,-329.69C383.38,-318.47 304.98,-303.04 250.75,-292.36"/>
<polygon fill="#63b8ff" stroke="#63b8ff" points="439.85,-333.16 450.34,-331.66 441.2,-326.29 439.85,-333.16"/>
</a>
</g>
</g>
<!-- Node5 -->
<g id="Node000005" class="node">
<title>Node5</title>
<g id="a_Node000005"><a xlink:href="node__graph__window_8h.html" target="_top" xlink:title=" ">
<polygon fill="white" stroke="#666666" points="344,-228 216,-228 216,-198 344,-198 344,-228"/>
<text text-anchor="start" x="224" y="-216" font-family="Helvetica,sans-Serif" font-size="10.00">include/user_interface</text>
<text text-anchor="middle" x="280" y="-205" font-family="Helvetica,sans-Serif" font-size="10.00">/node_graph_window.h</text>
</a>
</g>
</g>
<!-- Node1&#45;&gt;Node5 -->
<g id="edge13_Node000001_Node000005" class="edge">
<title>Node1&#45;&gt;Node5</title>
<g id="a_edge13_Node000001_Node000005"><a xlink:title=" ">
<path fill="none" stroke="#63b8ff" d="M440.55,-328.49C413.38,-320.7 383.04,-309.53 358,-294 329.48,-276.32 303.89,-246 290.29,-228.2"/>
<polygon fill="#63b8ff" stroke="#63b8ff" points="439.83,-331.92 450.4,-331.2 441.69,-325.17 439.83,-331.92"/>
</a>
</g>
</g>
<!-- Node9 -->
<g id="Node000009" class="node">
<title>Node9</title>
<g id="a_Node000009"><a xlink:href="static__layout__window_8cpp.html" target="_top" xlink:title=" ">
<polygon fill="white" stroke="#666666" points="635.5,-96 490.5,-96 490.5,-66 635.5,-66 635.5,-96"/>
<text text-anchor="start" x="498.5" y="-84" font-family="Helvetica,sans-Serif" font-size="10.00">src/user_interface</text>
<text text-anchor="middle" x="563" y="-73" font-family="Helvetica,sans-Serif" font-size="10.00">/static_layout_window.cpp</text>
</a>
</g>
</g>
<!-- Node1&#45;&gt;Node9 -->
<g id="edge21_Node000001_Node000009" class="edge">
<title>Node1&#45;&gt;Node9</title>
<g id="a_edge21_Node000001_Node000009"><a xlink:title=" ">
<path fill="none" stroke="#63b8ff" d="M553.39,-325.19C589.1,-306.17 639.12,-273.15 663,-228 682.97,-190.25 689.73,-168.15 667,-132 656.28,-114.96 637.95,-103.59 619.64,-96.07"/>
<polygon fill="#63b8ff" stroke="#63b8ff" points="551.46,-322.25 544.18,-329.95 554.67,-328.47 551.46,-322.25"/>
</a>
</g>
</g>
<!-- Node12 -->
<g id="Node000012" class="node">
<title>Node12</title>
<g id="a_Node000012"><a xlink:href="builders_8h.html" target="_top" xlink:title=" ">
<polygon fill="white" stroke="#666666" points="504.5,-294 367.5,-294 367.5,-264 504.5,-264 504.5,-294"/>
<text text-anchor="start" x="375.5" y="-282" font-family="Helvetica,sans-Serif" font-size="10.00">include/user_interface</text>
<text text-anchor="middle" x="436" y="-271" font-family="Helvetica,sans-Serif" font-size="10.00">/node_utilities/builders.h</text>
</a>
</g>
</g>
<!-- Node1&#45;&gt;Node12 -->
<g id="edge14_Node000001_Node000012" class="edge">
<title>Node1&#45;&gt;Node12</title>
<g id="a_edge14_Node000001_Node000012"><a xlink:title=" ">
<path fill="none" stroke="#63b8ff" d="M487.98,-323.2C476.55,-313.7 463.3,-302.69 453.04,-294.16"/>
<polygon fill="#63b8ff" stroke="#63b8ff" points="485.98,-326.1 495.91,-329.8 490.46,-320.71 485.98,-326.1"/>
</a>
</g>
</g>
<!-- Node14 -->
<g id="Node000014" class="node">
<title>Node14</title>
<g id="a_Node000014"><a xlink:href="simulation__window_8h.html" target="_top" xlink:title=" ">
<polygon fill="white" stroke="#666666" points="653.5,-228 528.5,-228 528.5,-198 653.5,-198 653.5,-228"/>
<text text-anchor="start" x="536.5" y="-216" font-family="Helvetica,sans-Serif" font-size="10.00">include/user_interface</text>
<text text-anchor="middle" x="591" y="-205" font-family="Helvetica,sans-Serif" font-size="10.00">/simulation_window.h</text>
</a>
</g>
</g>
<!-- Node1&#45;&gt;Node14 -->
<g id="edge17_Node000001_Node000014" class="edge">
<title>Node1&#45;&gt;Node14</title>
<g id="a_edge17_Node000001_Node000014"><a xlink:title=" ">
<path fill="none" stroke="#63b8ff" d="M526.74,-321.1C542.86,-294.23 569.1,-250.5 582.51,-228.14"/>
<polygon fill="#63b8ff" stroke="#63b8ff" points="523.64,-319.46 521.5,-329.84 529.64,-323.07 523.64,-319.46"/>
</a>
</g>
</g>
<!-- Node16 -->
<g id="Node000016" class="node">
<title>Node16</title>
<g id="a_Node000016"><a xlink:href="widgets_8cpp.html" target="_top" xlink:title=" ">
<polygon fill="white" stroke="#666666" points="818,-294 714,-294 714,-264 818,-264 818,-294"/>
<text text-anchor="start" x="722" y="-282" font-family="Helvetica,sans-Serif" font-size="10.00">src/user_interface</text>
<text text-anchor="middle" x="766" y="-271" font-family="Helvetica,sans-Serif" font-size="10.00">/widgets.cpp</text>
</a>
</g>
</g>
<!-- Node1&#45;&gt;Node16 -->
<g id="edge22_Node000001_Node000016" class="edge">
<title>Node1&#45;&gt;Node16</title>
<g id="a_edge22_Node000001_Node000016"><a xlink:title=" ">
<path fill="none" stroke="#63b8ff" d="M578.4,-327.46C620.47,-316.82 674.4,-303.17 713.63,-293.25"/>
<polygon fill="#63b8ff" stroke="#63b8ff" points="577.36,-324.11 568.52,-329.95 579.07,-330.9 577.36,-324.11"/>
</a>
</g>
</g>
<!-- Node3 -->
<g id="Node000003" class="node">
<title>Node3</title>
<g id="a_Node000003"><a xlink:href="dynamic-neural-field-composer-dynamic_8h.html" target="_top" xlink:title=" ">
<polygon fill="white" stroke="#666666" points="196,-162 48,-162 48,-132 196,-132 196,-162"/>
<text text-anchor="start" x="56" y="-150" font-family="Helvetica,sans-Serif" font-size="10.00">include/dynamic&#45;neural</text>
<text text-anchor="middle" x="122" y="-139" font-family="Helvetica,sans-Serif" font-size="10.00">&#45;field&#45;composer&#45;dynamic.h</text>
</a>
</g>
</g>
<!-- Node2&#45;&gt;Node3 -->
<g id="edge2_Node000002_Node000003" class="edge">
<title>Node2&#45;&gt;Node3</title>
<g id="a_edge2_Node000002_Node000003"><a xlink:title=" ">
<path fill="none" stroke="#63b8ff" d="M176.19,-254.75C162.54,-227.84 140.48,-184.4 129.18,-162.14"/>
<polygon fill="#63b8ff" stroke="#63b8ff" points="173.16,-256.51 180.81,-263.84 179.41,-253.34 173.16,-256.51"/>
</a>
</g>
</g>
<!-- Node2&#45;&gt;Node5 -->
<g id="edge4_Node000002_Node000005" class="edge">
<title>Node2&#45;&gt;Node5</title>
<g id="a_edge4_Node000002_Node000005"><a xlink:title=" ">
<path fill="none" stroke="#63b8ff" d="M216.71,-258.03C230.63,-248.34 247.03,-236.94 259.64,-228.16"/>
<polygon fill="#63b8ff" stroke="#63b8ff" points="214.63,-255.21 208.42,-263.8 218.63,-260.96 214.63,-255.21"/>
</a>
</g>
</g>
<!-- Node6 -->
<g id="Node000006" class="node">
<title>Node6</title>
<g id="a_Node000006"><a xlink:href="static__layout__window_8h.html" target="_top" xlink:title=" ">
<polygon fill="white" stroke="#666666" points="348,-162 214,-162 214,-132 348,-132 348,-162"/>
<text text-anchor="start" x="222" y="-150" font-family="Helvetica,sans-Serif" font-size="10.00">include/user_interface</text>
<text text-anchor="middle" x="281" y="-139" font-family="Helvetica,sans-Serif" font-size="10.00">/static_layout_window.h</text>
</a>
</g>
</g>
<!-- Node2&#45;&gt;Node6 -->
<g id="edge11_Node000002_Node000006" class="edge">
<title>Node2&#45;&gt;Node6</title>
<g id="a_edge11_Node000002_Node000006"><a xlink:title=" ">
<path fill="none" stroke="#63b8ff" d="M189.19,-253.54C191.05,-236.65 195.68,-214.38 207,-198 217.67,-182.57 234.78,-170.55 249.87,-162.17"/>
<polygon fill="#63b8ff" stroke="#63b8ff" points="185.68,-253.48 188.32,-263.74 192.66,-254.07 185.68,-253.48"/>
</a>
</g>
</g>
<!-- Node11 -->
<g id="Node000011" class="node">
<title>Node11</title>
<g id="a_Node000011"><a xlink:href="element__window_8cpp.html" target="_top" xlink:title=" ">
<polygon fill="white" stroke="#666666" points="122,-228 0,-228 0,-198 122,-198 122,-228"/>
<text text-anchor="start" x="8" y="-216" font-family="Helvetica,sans-Serif" font-size="10.00">src/user_interface</text>
<text text-anchor="middle" x="61" y="-205" font-family="Helvetica,sans-Serif" font-size="10.00">/element_window.cpp</text>
</a>
</g>
</g>
<!-- Node2&#45;&gt;Node11 -->
<g id="edge12_Node000002_Node000011" class="edge">
<title>Node2&#45;&gt;Node11</title>
<g id="a_edge12_Node000002_Node000011"><a xlink:title=" ">
<path fill="none" stroke="#63b8ff" d="M151.05,-259.38C131.17,-249.36 107.07,-237.22 88.81,-228.01"/>
<polygon fill="#63b8ff" stroke="#63b8ff" points="149.62,-262.58 160.13,-263.95 152.77,-256.33 149.62,-262.58"/>
</a>
</g>
</g>
<!-- Node4 -->
<g id="Node000004" class="node">
<title>Node4</title>
<g id="a_Node000004"><a xlink:href="dynamic-neural-field-composer-dynamic_8cpp.html" target="_top" xlink:title=" ">
<polygon fill="white" stroke="#666666" points="199.5,-96 40.5,-96 40.5,-66 199.5,-66 199.5,-96"/>
<text text-anchor="start" x="48.5" y="-84" font-family="Helvetica,sans-Serif" font-size="10.00">src/dynamic&#45;neural</text>
<text text-anchor="middle" x="120" y="-73" font-family="Helvetica,sans-Serif" font-size="10.00">&#45;field&#45;composer&#45;dynamic.cpp</text>
</a>
</g>
</g>
<!-- Node3&#45;&gt;Node4 -->
<g id="edge3_Node000003_Node000004" class="edge">
<title>Node3&#45;&gt;Node4</title>
<g id="a_edge3_Node000003_Node000004"><a xlink:title=" ">
<path fill="none" stroke="#63b8ff" d="M121.24,-121.54C120.97,-112.96 120.68,-103.61 120.44,-96.16"/>
<polygon fill="#63b8ff" stroke="#63b8ff" points="117.75,-121.91 121.56,-131.8 124.74,-121.69 117.75,-121.91"/>
</a>
</g>
</g>
<!-- Node5&#45;&gt;Node3 -->
<g id="edge5_Node000005_Node000003" class="edge">
<title>Node5&#45;&gt;Node3</title>
<g id="a_edge5_Node000005_Node000003"><a xlink:title=" ">
<path fill="none" stroke="#63b8ff" d="M236.03,-194.19C210.94,-184.02 179.93,-171.47 156.59,-162.01"/>
<polygon fill="#63b8ff" stroke="#63b8ff" points="234.74,-197.44 245.33,-197.95 237.37,-190.96 234.74,-197.44"/>
</a>
</g>
</g>
<!-- Node5&#45;&gt;Node6 -->
<g id="edge6_Node000005_Node000006" class="edge">
<title>Node5&#45;&gt;Node6</title>
<g id="a_edge6_Node000005_Node000006"><a xlink:title=" ">
<path fill="none" stroke="#63b8ff" d="M280.38,-187.54C280.52,-178.96 280.66,-169.61 280.78,-162.16"/>
<polygon fill="#63b8ff" stroke="#63b8ff" points="276.88,-187.74 280.22,-197.8 283.88,-187.85 276.88,-187.74"/>
</a>
</g>
</g>
<!-- Node10 -->
<g id="Node000010" class="node">
<title>Node10</title>
<g id="a_Node000010"><a xlink:href="node__graph__window_8cpp.html" target="_top" xlink:title=" ">
<polygon fill="white" stroke="#666666" points="505.5,-162 366.5,-162 366.5,-132 505.5,-132 505.5,-162"/>
<text text-anchor="start" x="374.5" y="-150" font-family="Helvetica,sans-Serif" font-size="10.00">src/user_interface</text>
<text text-anchor="middle" x="436" y="-139" font-family="Helvetica,sans-Serif" font-size="10.00">/node_graph_window.cpp</text>
</a>
</g>
</g>
<!-- Node5&#45;&gt;Node10 -->
<g id="edge10_Node000005_Node000010" class="edge">
<title>Node5&#45;&gt;Node10</title>
<g id="a_edge10_Node000005_Node000010"><a xlink:title=" ">
<path fill="none" stroke="#63b8ff" d="M323.74,-194.05C348.46,-183.91 378.9,-171.43 401.84,-162.01"/>
<polygon fill="#63b8ff" stroke="#63b8ff" points="322.16,-190.92 314.23,-197.95 324.82,-197.4 322.16,-190.92"/>
</a>
</g>
</g>
<!-- Node7 -->
<g id="Node000007" class="node">
<title>Node7</title>
<g id="a_Node000007"><a xlink:href="dynamic-neural-field-composer-static_8h.html" target="_top" xlink:title=" ">
<polygon fill="white" stroke="#666666" points="350.5,-96 217.5,-96 217.5,-66 350.5,-66 350.5,-96"/>
<text text-anchor="start" x="225.5" y="-84" font-family="Helvetica,sans-Serif" font-size="10.00">include/dynamic&#45;neural</text>
<text text-anchor="middle" x="284" y="-73" font-family="Helvetica,sans-Serif" font-size="10.00">&#45;field&#45;composer&#45;static.h</text>
</a>
</g>
</g>
<!-- Node6&#45;&gt;Node7 -->
<g id="edge7_Node000006_Node000007" class="edge">
<title>Node6&#45;&gt;Node7</title>
<g id="a_edge7_Node000006_Node000007"><a xlink:title=" ">
<path fill="none" stroke="#63b8ff" d="M282.15,-121.54C282.55,-112.96 282.99,-103.61 283.34,-96.16"/>
<polygon fill="#63b8ff" stroke="#63b8ff" points="278.64,-121.64 281.67,-131.8 285.63,-121.97 278.64,-121.64"/>
</a>
</g>
</g>
<!-- Node6&#45;&gt;Node9 -->
<g id="edge9_Node000006_Node000009" class="edge">
<title>Node6&#45;&gt;Node9</title>
<g id="a_edge9_Node000006_Node000009"><a xlink:title=" ">
<path fill="none" stroke="#63b8ff" d="M352.76,-129.71C398.62,-119.31 457.49,-105.95 501.26,-96.01"/>
<polygon fill="#63b8ff" stroke="#63b8ff" points="351.86,-126.33 342.89,-131.95 353.41,-133.15 351.86,-126.33"/>
</a>
</g>
</g>
<!-- Node8 -->
<g id="Node000008" class="node">
<title>Node8</title>
<g id="a_Node000008"><a xlink:href="dynamic-neural-field-composer-static_8cpp.html" target="_top" xlink:title=" ">
<polygon fill="white" stroke="#666666" points="356,-30 212,-30 212,0 356,0 356,-30"/>
<text text-anchor="start" x="220" y="-18" font-family="Helvetica,sans-Serif" font-size="10.00">src/dynamic&#45;neural</text>
<text text-anchor="middle" x="284" y="-7" font-family="Helvetica,sans-Serif" font-size="10.00">&#45;field&#45;composer&#45;static.cpp</text>
</a>
</g>
</g>
<!-- Node7&#45;&gt;Node8 -->
<g id="edge8_Node000007_Node000008" class="edge">
<title>Node7&#45;&gt;Node8</title>
<g id="a_edge8_Node000007_Node000008"><a xlink:title=" ">
<path fill="none" stroke="#63b8ff" d="M284,-55.54C284,-46.96 284,-37.61 284,-30.16"/>
<polygon fill="#63b8ff" stroke="#63b8ff" points="280.5,-55.8 284,-65.8 287.5,-55.8 280.5,-55.8"/>
</a>
</g>
</g>
<!-- Node12&#45;&gt;Node5 -->
<g id="edge15_Node000012_Node000005" class="edge">
<title>Node12&#45;&gt;Node5</title>
<g id="a_edge15_Node000012_Node000005"><a xlink:title=" ">
<path fill="none" stroke="#63b8ff" d="M392.26,-260.05C367.54,-249.91 337.1,-237.43 314.16,-228.01"/>
<polygon fill="#63b8ff" stroke="#63b8ff" points="391.18,-263.4 401.77,-263.95 393.84,-256.92 391.18,-263.4"/>
</a>
</g>
</g>
<!-- Node13 -->
<g id="Node000013" class="node">
<title>Node13</title>
<g id="a_Node000013"><a xlink:href="builders_8cpp.html" target="_top" xlink:title=" ">
<polygon fill="white" stroke="#666666" points="510,-228 362,-228 362,-198 510,-198 510,-228"/>
<text text-anchor="start" x="370" y="-216" font-family="Helvetica,sans-Serif" font-size="10.00">src/user_interface</text>
<text text-anchor="middle" x="436" y="-205" font-family="Helvetica,sans-Serif" font-size="10.00">/node_utilities/builders.cpp</text>
</a>
</g>
</g>
<!-- Node12&#45;&gt;Node13 -->
<g id="edge16_Node000012_Node000013" class="edge">
<title>Node12&#45;&gt;Node13</title>
<g id="a_edge16_Node000012_Node000013"><a xlink:title=" ">
<path fill="none" stroke="#63b8ff" d="M436,-253.54C436,-244.96 436,-235.61 436,-228.16"/>
<polygon fill="#63b8ff" stroke="#63b8ff" points="432.5,-253.8 436,-263.8 439.5,-253.8 432.5,-253.8"/>
</a>
</g>
</g>
<!-- Node14&#45;&gt;Node3 -->
<g id="edge18_Node000014_Node000003" class="edge">
<title>Node14&#45;&gt;Node3</title>
<g id="a_edge18_Node000014_Node000003"><a xlink:title=" ">
<path fill="none" stroke="#63b8ff" d="M517.99,-197.93C378.42,-176.8 340.82,-181.23 205,-162 202.11,-161.59 199.16,-161.16 196.18,-160.71"/>
<polygon fill="#63b8ff" stroke="#63b8ff" points="517.81,-201.44 528.22,-199.49 518.87,-194.52 517.81,-201.44"/>
</a>
</g>
</g>
<!-- Node14&#45;&gt;Node6 -->
<g id="edge19_Node000014_Node000006" class="edge">
<title>Node14&#45;&gt;Node6</title>
<g id="a_edge19_Node000014_Node000006"><a xlink:title=" ">
<path fill="none" stroke="#63b8ff" d="M518.22,-196.97C466.78,-186.35 398.35,-172.23 348.2,-161.87"/>
<polygon fill="#63b8ff" stroke="#63b8ff" points="517.77,-200.45 528.27,-199.05 519.18,-193.6 517.77,-200.45"/>
</a>
</g>
</g>
<!-- Node15 -->
<g id="Node000015" class="node">
<title>Node15</title>
<g id="a_Node000015"><a xlink:href="simulation__window_8cpp.html" target="_top" xlink:title=" ">
<polygon fill="white" stroke="#666666" points="658,-162 524,-162 524,-132 658,-132 658,-162"/>
<text text-anchor="start" x="532" y="-150" font-family="Helvetica,sans-Serif" font-size="10.00">src/user_interface</text>
<text text-anchor="middle" x="591" y="-139" font-family="Helvetica,sans-Serif" font-size="10.00">/simulation_window.cpp</text>
</a>
</g>
</g>
<!-- Node14&#45;&gt;Node15 -->
<g id="edge20_Node000014_Node000015" class="edge">
<title>Node14&#45;&gt;Node15</title>
<g id="a_edge20_Node000014_Node000015"><a xlink:title=" ">
<path fill="none" stroke="#63b8ff" d="M591,-187.54C591,-178.96 591,-169.61 591,-162.16"/>
<polygon fill="#63b8ff" stroke="#63b8ff" points="587.5,-187.8 591,-197.8 594.5,-187.8 587.5,-187.8"/>
</a>
</g>
</g>
</g>
</svg>
